<?xml version="1.0" encoding="UTF-8"?>
<!DOCTYPE svg PUBLIC "-//W3C//DTD SVG 1.1//EN"
  "http://www.w3.org/Graphics/SVG/1.1/DTD/svg11.dtd">
<svg xmlns="http://www.w3.org/2000/svg" xmlns:xlink="http://www.w3.org/1999/xlink"   viewBox="0.00 0.00 200.00 150.00">
<!-- Created by OpenEye Scientific Software -->
<!-- Creation Date Mon Nov 19 16:16:02 2018 -->
<line x1="75.24" y1="40.53" x2="88.07" y2="47.89" stroke="black" stroke-width="2" stroke-linejoin="round" stroke-linecap="round" />
<line x1="78.96" y1="38.79" x2="87.69" y2="43.79" stroke="black" stroke-width="2" stroke-linejoin="round" stroke-linecap="round" />
<line x1="75.24" y1="40.53" x2="75.24" y2="25.67" stroke="black" stroke-width="2" stroke-linejoin="round" stroke-linecap="round" />
<line x1="75.24" y1="25.67" x2="88.07" y2="18.16" stroke="black" stroke-width="2" stroke-linejoin="round" stroke-linecap="round" />
<line x1="78.99" y1="27.37" x2="87.71" y2="22.26" stroke="black" stroke-width="2" stroke-linejoin="round" stroke-linecap="round" />
<line x1="88.07" y1="18.16" x2="100.90" y2="25.67" stroke="black" stroke-width="2" stroke-linejoin="round" stroke-linecap="round" />
<line x1="107.29" y1="21.92" x2="100.90" y2="25.67" stroke="black" stroke-width="2" stroke-linejoin="round" stroke-linecap="round" />
<line x1="107.29" y1="21.92" x2="109.61" y2="20.57" stroke="blue" stroke-width="2" stroke-linejoin="round" stroke-linecap="round" />
<line x1="100.90" y1="25.67" x2="100.92" y2="40.53" stroke="black" stroke-width="2" stroke-linejoin="round" stroke-linecap="round" />
<line x1="104.27" y1="28.04" x2="104.28" y2="38.15" stroke="black" stroke-width="2" stroke-linejoin="round" stroke-linecap="round" />
<line x1="100.92" y1="40.53" x2="88.07" y2="47.89" stroke="black" stroke-width="2" stroke-linejoin="round" stroke-linecap="round" />
<line x1="100.92" y1="40.53" x2="113.73" y2="47.91" stroke="black" stroke-width="2" stroke-linejoin="round" stroke-linecap="round" />
<line x1="113.73" y1="55.30" x2="113.73" y2="47.91" stroke="black" stroke-width="2" stroke-linejoin="round" stroke-linecap="round" />
<line x1="113.73" y1="55.30" x2="113.73" y2="57.96" stroke="blue" stroke-width="2" stroke-linejoin="round" stroke-linecap="round" />
<line x1="110.36" y1="55.30" x2="110.36" y2="50.27" stroke="black" stroke-width="2" stroke-linejoin="round" stroke-linecap="round" />
<line x1="110.36" y1="55.30" x2="110.36" y2="60.33" stroke="blue" stroke-width="2" stroke-linejoin="round" stroke-linecap="round" />
<line x1="107.33" y1="66.39" x2="109.63" y2="65.06" stroke="blue" stroke-width="2" stroke-linejoin="round" stroke-linecap="round" />
<line x1="107.33" y1="66.39" x2="100.92" y2="70.08" stroke="black" stroke-width="2" stroke-linejoin="round" stroke-linecap="round" />
<line x1="100.92" y1="70.08" x2="100.97" y2="84.94" stroke="black" stroke-width="2" stroke-linejoin="round" stroke-linecap="round" />
<line x1="97.57" y1="72.47" x2="97.60" y2="82.57" stroke="black" stroke-width="2" stroke-linejoin="round" stroke-linecap="round" />
<line x1="100.92" y1="70.08" x2="88.08" y2="62.61" stroke="black" stroke-width="2" stroke-linejoin="round" stroke-linecap="round" />
<line x1="88.08" y1="62.61" x2="75.27" y2="70.00" stroke="black" stroke-width="2" stroke-linejoin="round" stroke-linecap="round" />
<line x1="87.71" y1="66.71" x2="79.00" y2="71.74" stroke="black" stroke-width="2" stroke-linejoin="round" stroke-linecap="round" />
<line x1="75.27" y1="70.00" x2="75.19" y2="84.79" stroke="black" stroke-width="2" stroke-linejoin="round" stroke-linecap="round" />
<line x1="75.19" y1="84.79" x2="88.03" y2="92.26" stroke="black" stroke-width="2" stroke-linejoin="round" stroke-linecap="round" />
<line x1="78.93" y1="83.07" x2="87.67" y2="88.15" stroke="black" stroke-width="2" stroke-linejoin="round" stroke-linecap="round" />
<line x1="88.03" y1="92.26" x2="100.97" y2="84.94" stroke="black" stroke-width="2" stroke-linejoin="round" stroke-linecap="round" />
<line x1="88.03" y1="92.26" x2="87.94" y2="107.04" stroke="black" stroke-width="2" stroke-linejoin="round" stroke-linecap="round" />
<line x1="80.55" y1="107.00" x2="87.94" y2="107.04" stroke="black" stroke-width="2" stroke-linejoin="round" stroke-linecap="round" />
<line x1="80.55" y1="107.00" x2="77.62" y2="106.98" stroke="#00cd00" stroke-width="2" stroke-linejoin="round" stroke-linecap="round" />
<line x1="95.34" y1="107.08" x2="87.94" y2="107.04" stroke="black" stroke-width="2" stroke-linejoin="round" stroke-linecap="round" />
<line x1="95.34" y1="107.08" x2="98.27" y2="107.10" stroke="#00cd00" stroke-width="2" stroke-linejoin="round" stroke-linecap="round" />
<line x1="87.90" y1="114.43" x2="87.94" y2="107.04" stroke="black" stroke-width="2" stroke-linejoin="round" stroke-linecap="round" />
<line x1="87.90" y1="114.43" x2="87.88" y2="117.37" stroke="#00cd00" stroke-width="2" stroke-linejoin="round" stroke-linecap="round" />
<line x1="120.17" y1="44.20" x2="113.73" y2="47.91" stroke="black" stroke-width="2" stroke-linejoin="round" stroke-linecap="round" />
<line x1="120.17" y1="44.20" x2="122.51" y2="42.86" stroke="blue" stroke-width="2" stroke-linejoin="round" stroke-linecap="round" />
<line x1="126.60" y1="33.07" x2="126.60" y2="35.77" stroke="blue" stroke-width="2" stroke-linejoin="round" stroke-linecap="round" />
<line x1="126.60" y1="33.07" x2="126.59" y2="25.63" stroke="black" stroke-width="2" stroke-linejoin="round" stroke-linecap="round" />
<line x1="123.23" y1="33.07" x2="123.24" y2="38.13" stroke="blue" stroke-width="2" stroke-linejoin="round" stroke-linecap="round" />
<line x1="123.23" y1="33.07" x2="123.22" y2="28.02" stroke="black" stroke-width="2" stroke-linejoin="round" stroke-linecap="round" />
<line x1="120.14" y1="21.90" x2="126.59" y2="25.63" stroke="black" stroke-width="2" stroke-linejoin="round" stroke-linecap="round" />
<line x1="120.14" y1="21.90" x2="117.79" y2="20.54" stroke="blue" stroke-width="2" stroke-linejoin="round" stroke-linecap="round" />
<text x="113.73" y="64.67" fill="blue" font-family="Arial" font-size="6" font-style="normal" font-weight="normal" text-anchor="middle">  N </text>
<text x="73.16" y="108.93" fill="#00cd00" font-family="Arial" font-size="6" font-style="normal" font-weight="normal" text-anchor="middle">  F </text>
<text x="102.73" y="109.11" fill="#00cd00" font-family="Arial" font-size="6" font-style="normal" font-weight="normal" text-anchor="middle">  F </text>
<text x="87.86" y="123.80" fill="#00cd00" font-family="Arial" font-size="6" font-style="normal" font-weight="normal" text-anchor="middle">  F </text>
<text x="126.61" y="42.48" fill="blue" font-family="Arial" font-size="6" font-style="normal" font-weight="normal" text-anchor="middle">  N </text>
<text x="113.69" y="20.16" fill="blue" font-family="Arial" font-size="6" font-style="normal" font-weight="normal" text-anchor="middle">  N </text>
<text x="113.69" y="15.36" fill="blue" font-family="Arial" font-size="6" font-style="normal" font-weight="normal" text-anchor="middle">  H </text>
<text x="100.00" y="143.75" fill="black" font-family="Arial" font-size="15" font-style="normal" font-weight="normal" text-anchor="middle">  SM02_micro007 </text>
</svg>
