<?xml version="1.0" encoding="UTF-8"?>
<!DOCTYPE svg PUBLIC "-//W3C//DTD SVG 1.1//EN"
  "http://www.w3.org/Graphics/SVG/1.1/DTD/svg11.dtd">
<svg xmlns="http://www.w3.org/2000/svg" xmlns:xlink="http://www.w3.org/1999/xlink"   viewBox="0.00 0.00 164.00 83.00">
<!-- Created by OpenEye Scientific Software -->
<!-- Creation Date Mon Nov 19 16:16:02 2018 -->
<line x1="63.80" y1="22.23" x2="72.19" y2="27.04" stroke="black" stroke-width="2" stroke-linejoin="round" stroke-linecap="round" />
<line x1="66.41" y1="20.79" x2="72.12" y2="24.06" stroke="black" stroke-width="2" stroke-linejoin="round" stroke-linecap="round" />
<line x1="63.80" y1="22.23" x2="63.80" y2="12.51" stroke="black" stroke-width="2" stroke-linejoin="round" stroke-linecap="round" />
<line x1="63.80" y1="12.51" x2="72.19" y2="7.60" stroke="black" stroke-width="2" stroke-linejoin="round" stroke-linecap="round" />
<line x1="66.43" y1="13.92" x2="72.14" y2="10.58" stroke="black" stroke-width="2" stroke-linejoin="round" stroke-linecap="round" />
<line x1="72.19" y1="7.60" x2="80.59" y2="12.51" stroke="black" stroke-width="2" stroke-linejoin="round" stroke-linecap="round" />
<line x1="84.77" y1="10.06" x2="80.59" y2="12.51" stroke="black" stroke-width="2" stroke-linejoin="round" stroke-linecap="round" />
<line x1="84.77" y1="10.06" x2="85.66" y2="9.54" stroke="blue" stroke-width="2" stroke-linejoin="round" stroke-linecap="round" />
<line x1="86.06" y1="12.26" x2="83.21" y2="13.92" stroke="black" stroke-width="2" stroke-linejoin="round" stroke-linecap="round" />
<line x1="86.06" y1="12.26" x2="88.90" y2="10.59" stroke="blue" stroke-width="2" stroke-linejoin="round" stroke-linecap="round" />
<line x1="80.59" y1="12.51" x2="80.60" y2="22.23" stroke="black" stroke-width="2" stroke-linejoin="round" stroke-linecap="round" />
<line x1="80.60" y1="22.23" x2="72.19" y2="27.04" stroke="black" stroke-width="2" stroke-linejoin="round" stroke-linecap="round" />
<line x1="80.60" y1="22.23" x2="88.98" y2="27.05" stroke="black" stroke-width="2" stroke-linejoin="round" stroke-linecap="round" />
<line x1="83.21" y1="20.79" x2="88.91" y2="24.07" stroke="black" stroke-width="2" stroke-linejoin="round" stroke-linecap="round" />
<line x1="93.19" y1="24.63" x2="88.98" y2="27.05" stroke="black" stroke-width="2" stroke-linejoin="round" stroke-linecap="round" />
<line x1="93.19" y1="24.63" x2="93.36" y2="24.53" stroke="blue" stroke-width="2" stroke-linejoin="round" stroke-linecap="round" />
<line x1="97.39" y1="17.35" x2="97.39" y2="17.55" stroke="blue" stroke-width="2" stroke-linejoin="round" stroke-linecap="round" />
<line x1="97.39" y1="17.35" x2="97.39" y2="12.49" stroke="black" stroke-width="2" stroke-linejoin="round" stroke-linecap="round" />
<line x1="94.84" y1="17.35" x2="94.85" y2="20.66" stroke="blue" stroke-width="2" stroke-linejoin="round" stroke-linecap="round" />
<line x1="94.84" y1="17.35" x2="94.84" y2="14.04" stroke="black" stroke-width="2" stroke-linejoin="round" stroke-linecap="round" />
<line x1="93.17" y1="10.05" x2="97.39" y2="12.49" stroke="black" stroke-width="2" stroke-linejoin="round" stroke-linecap="round" />
<line x1="93.17" y1="10.05" x2="92.26" y2="9.52" stroke="blue" stroke-width="2" stroke-linejoin="round" stroke-linecap="round" />
<line x1="88.98" y1="31.89" x2="88.98" y2="27.05" stroke="black" stroke-width="2" stroke-linejoin="round" stroke-linecap="round" />
<line x1="88.98" y1="31.89" x2="88.98" y2="32.06" stroke="blue" stroke-width="2" stroke-linejoin="round" stroke-linecap="round" />
<line x1="84.79" y1="39.14" x2="84.94" y2="39.05" stroke="blue" stroke-width="2" stroke-linejoin="round" stroke-linecap="round" />
<line x1="84.79" y1="39.14" x2="80.60" y2="41.55" stroke="black" stroke-width="2" stroke-linejoin="round" stroke-linecap="round" />
<line x1="80.60" y1="41.55" x2="80.63" y2="51.27" stroke="black" stroke-width="2" stroke-linejoin="round" stroke-linecap="round" />
<line x1="78.06" y1="43.12" x2="78.08" y2="49.72" stroke="black" stroke-width="2" stroke-linejoin="round" stroke-linecap="round" />
<line x1="80.60" y1="41.55" x2="72.20" y2="36.67" stroke="black" stroke-width="2" stroke-linejoin="round" stroke-linecap="round" />
<line x1="72.20" y1="36.67" x2="63.83" y2="41.50" stroke="black" stroke-width="2" stroke-linejoin="round" stroke-linecap="round" />
<line x1="72.14" y1="39.65" x2="66.44" y2="42.94" stroke="black" stroke-width="2" stroke-linejoin="round" stroke-linecap="round" />
<line x1="63.83" y1="41.50" x2="63.77" y2="51.17" stroke="black" stroke-width="2" stroke-linejoin="round" stroke-linecap="round" />
<line x1="63.77" y1="51.17" x2="72.17" y2="56.06" stroke="black" stroke-width="2" stroke-linejoin="round" stroke-linecap="round" />
<line x1="66.40" y1="49.75" x2="72.11" y2="53.07" stroke="black" stroke-width="2" stroke-linejoin="round" stroke-linecap="round" />
<line x1="72.17" y1="56.06" x2="80.63" y2="51.27" stroke="black" stroke-width="2" stroke-linejoin="round" stroke-linecap="round" />
<line x1="72.17" y1="56.06" x2="72.11" y2="65.72" stroke="black" stroke-width="2" stroke-linejoin="round" stroke-linecap="round" />
<line x1="67.28" y1="65.69" x2="72.11" y2="65.72" stroke="black" stroke-width="2" stroke-linejoin="round" stroke-linecap="round" />
<line x1="67.28" y1="65.69" x2="66.08" y2="65.69" stroke="#00cd00" stroke-width="2" stroke-linejoin="round" stroke-linecap="round" />
<line x1="76.95" y1="65.75" x2="72.11" y2="65.72" stroke="black" stroke-width="2" stroke-linejoin="round" stroke-linecap="round" />
<line x1="76.95" y1="65.75" x2="78.14" y2="65.76" stroke="#00cd00" stroke-width="2" stroke-linejoin="round" stroke-linecap="round" />
<line x1="72.09" y1="70.56" x2="72.11" y2="65.72" stroke="black" stroke-width="2" stroke-linejoin="round" stroke-linecap="round" />
<line x1="72.09" y1="70.56" x2="72.08" y2="71.75" stroke="#00cd00" stroke-width="2" stroke-linejoin="round" stroke-linecap="round" />
<text x="97.40" y="23.53" fill="blue" font-family="Arial" font-size="4" font-style="normal" font-weight="normal" text-anchor="middle">  N </text>
<text x="100.20" y="23.53" fill="blue" font-family="Arial" font-size="4" font-style="normal" font-weight="normal" text-anchor="middle">  H </text>
<text x="102.20" y="21.96" fill="blue" font-family="Arial" font-size="2" font-style="normal" font-weight="normal" text-anchor="middle">  + </text>
<text x="88.95" y="8.93" fill="blue" font-family="Arial" font-size="4" font-style="normal" font-weight="normal" text-anchor="middle">  N </text>
<text x="88.98" y="38.04" fill="blue" font-family="Arial" font-size="4" font-style="normal" font-weight="normal" text-anchor="middle">  N </text>
<text x="91.78" y="38.04" fill="blue" font-family="Arial" font-size="4" font-style="normal" font-weight="normal" text-anchor="middle">  H </text>
<text x="93.78" y="38.44" fill="blue" font-family="Arial" font-size="2" font-style="normal" font-weight="normal" text-anchor="middle">  2 </text>
<text x="93.78" y="36.47" fill="blue" font-family="Arial" font-size="2" font-style="normal" font-weight="normal" text-anchor="middle">  + </text>
<text x="62.45" y="66.99" fill="#00cd00" font-family="Arial" font-size="4" font-style="normal" font-weight="normal" text-anchor="middle">  F </text>
<text x="81.78" y="67.10" fill="#00cd00" font-family="Arial" font-size="4" font-style="normal" font-weight="normal" text-anchor="middle">  F </text>
<text x="72.06" y="76.71" fill="#00cd00" font-family="Arial" font-size="4" font-style="normal" font-weight="normal" text-anchor="middle">  F </text>
</svg>
