<?xml version="1.0" encoding="UTF-8"?>
<!DOCTYPE svg PUBLIC "-//W3C//DTD SVG 1.1//EN"
  "http://www.w3.org/Graphics/SVG/1.1/DTD/svg11.dtd">
<svg xmlns="http://www.w3.org/2000/svg" xmlns:xlink="http://www.w3.org/1999/xlink"   viewBox="0.00 0.00 164.00 83.00">
<!-- Created by OpenEye Scientific Software -->
<!-- Creation Date Mon Nov 19 16:16:02 2018 -->
<line x1="66.46" y1="24.68" x2="74.51" y2="29.30" stroke="black" stroke-width="2" stroke-linejoin="round" stroke-linecap="round" />
<line x1="68.98" y1="23.27" x2="74.46" y2="26.40" stroke="black" stroke-width="2" stroke-linejoin="round" stroke-linecap="round" />
<line x1="66.46" y1="24.68" x2="66.46" y2="15.36" stroke="black" stroke-width="2" stroke-linejoin="round" stroke-linecap="round" />
<line x1="66.46" y1="15.36" x2="74.51" y2="10.65" stroke="black" stroke-width="2" stroke-linejoin="round" stroke-linecap="round" />
<line x1="69.00" y1="16.75" x2="74.48" y2="13.54" stroke="black" stroke-width="2" stroke-linejoin="round" stroke-linecap="round" />
<line x1="74.51" y1="10.65" x2="82.56" y2="15.36" stroke="black" stroke-width="2" stroke-linejoin="round" stroke-linecap="round" />
<line x1="86.57" y1="13.01" x2="82.56" y2="15.36" stroke="black" stroke-width="2" stroke-linejoin="round" stroke-linecap="round" />
<line x1="86.57" y1="13.01" x2="86.56" y2="13.01" stroke="blue" stroke-width="2" stroke-linejoin="round" stroke-linecap="round" />
<line x1="87.83" y1="15.15" x2="85.10" y2="16.75" stroke="black" stroke-width="2" stroke-linejoin="round" stroke-linecap="round" />
<line x1="87.83" y1="15.15" x2="90.55" y2="13.55" stroke="blue" stroke-width="2" stroke-linejoin="round" stroke-linecap="round" />
<line x1="82.56" y1="15.36" x2="82.57" y2="24.68" stroke="black" stroke-width="2" stroke-linejoin="round" stroke-linecap="round" />
<line x1="82.57" y1="24.68" x2="74.51" y2="29.30" stroke="black" stroke-width="2" stroke-linejoin="round" stroke-linecap="round" />
<line x1="82.57" y1="24.68" x2="90.61" y2="29.31" stroke="black" stroke-width="2" stroke-linejoin="round" stroke-linecap="round" />
<line x1="85.10" y1="23.27" x2="90.56" y2="26.42" stroke="black" stroke-width="2" stroke-linejoin="round" stroke-linecap="round" />
<line x1="94.65" y1="26.99" x2="90.61" y2="29.31" stroke="black" stroke-width="2" stroke-linejoin="round" stroke-linecap="round" />
<line x1="94.65" y1="26.99" x2="95.37" y2="26.57" stroke="blue" stroke-width="2" stroke-linejoin="round" stroke-linecap="round" />
<line x1="98.68" y1="20.00" x2="98.68" y2="20.84" stroke="blue" stroke-width="2" stroke-linejoin="round" stroke-linecap="round" />
<line x1="98.68" y1="20.00" x2="98.67" y2="15.34" stroke="black" stroke-width="2" stroke-linejoin="round" stroke-linecap="round" />
<line x1="96.20" y1="20.00" x2="96.20" y2="23.17" stroke="blue" stroke-width="2" stroke-linejoin="round" stroke-linecap="round" />
<line x1="96.20" y1="20.00" x2="96.19" y2="16.83" stroke="black" stroke-width="2" stroke-linejoin="round" stroke-linecap="round" />
<line x1="94.63" y1="13.00" x2="98.67" y2="15.34" stroke="black" stroke-width="2" stroke-linejoin="round" stroke-linecap="round" />
<line x1="94.63" y1="13.00" x2="94.62" y2="12.99" stroke="blue" stroke-width="2" stroke-linejoin="round" stroke-linecap="round" />
<line x1="90.61" y1="33.95" x2="90.61" y2="29.31" stroke="black" stroke-width="2" stroke-linejoin="round" stroke-linecap="round" />
<line x1="90.61" y1="33.95" x2="90.61" y2="33.92" stroke="blue" stroke-width="2" stroke-linejoin="round" stroke-linecap="round" />
<line x1="86.59" y1="40.90" x2="86.57" y2="40.91" stroke="blue" stroke-width="2" stroke-linejoin="round" stroke-linecap="round" />
<line x1="86.59" y1="40.90" x2="82.58" y2="43.22" stroke="black" stroke-width="2" stroke-linejoin="round" stroke-linecap="round" />
<line x1="82.58" y1="43.22" x2="82.60" y2="52.54" stroke="black" stroke-width="2" stroke-linejoin="round" stroke-linecap="round" />
<line x1="80.10" y1="44.72" x2="80.11" y2="51.06" stroke="black" stroke-width="2" stroke-linejoin="round" stroke-linecap="round" />
<line x1="82.58" y1="43.22" x2="74.52" y2="38.53" stroke="black" stroke-width="2" stroke-linejoin="round" stroke-linecap="round" />
<line x1="74.52" y1="38.53" x2="66.48" y2="43.17" stroke="black" stroke-width="2" stroke-linejoin="round" stroke-linecap="round" />
<line x1="74.47" y1="41.43" x2="69.01" y2="44.58" stroke="black" stroke-width="2" stroke-linejoin="round" stroke-linecap="round" />
<line x1="66.48" y1="43.17" x2="66.43" y2="52.44" stroke="black" stroke-width="2" stroke-linejoin="round" stroke-linecap="round" />
<line x1="66.43" y1="52.44" x2="74.49" y2="57.13" stroke="black" stroke-width="2" stroke-linejoin="round" stroke-linecap="round" />
<line x1="68.97" y1="51.05" x2="74.45" y2="54.23" stroke="black" stroke-width="2" stroke-linejoin="round" stroke-linecap="round" />
<line x1="74.49" y1="57.13" x2="82.60" y2="52.54" stroke="black" stroke-width="2" stroke-linejoin="round" stroke-linecap="round" />
<line x1="74.49" y1="57.13" x2="74.43" y2="66.40" stroke="black" stroke-width="2" stroke-linejoin="round" stroke-linecap="round" />
<line x1="69.80" y1="66.37" x2="74.43" y2="66.40" stroke="black" stroke-width="2" stroke-linejoin="round" stroke-linecap="round" />
<line x1="69.80" y1="66.37" x2="68.80" y2="66.37" stroke="#00cd00" stroke-width="2" stroke-linejoin="round" stroke-linecap="round" />
<line x1="79.07" y1="66.43" x2="74.43" y2="66.40" stroke="black" stroke-width="2" stroke-linejoin="round" stroke-linecap="round" />
<line x1="79.07" y1="66.43" x2="80.07" y2="66.44" stroke="#00cd00" stroke-width="2" stroke-linejoin="round" stroke-linecap="round" />
<line x1="74.41" y1="71.04" x2="74.43" y2="66.40" stroke="black" stroke-width="2" stroke-linejoin="round" stroke-linecap="round" />
<line x1="74.41" y1="71.04" x2="74.40" y2="72.04" stroke="#00cd00" stroke-width="2" stroke-linejoin="round" stroke-linecap="round" />
<text x="98.68" y="25.98" fill="blue" font-family="Arial" font-size="4" font-style="normal" font-weight="normal" text-anchor="middle">  N </text>
<text x="90.58" y="11.98" fill="blue" font-family="Arial" font-size="4" font-style="normal" font-weight="normal" text-anchor="middle">  N </text>
<text x="90.58" y="8.78" fill="blue" font-family="Arial" font-size="4" font-style="normal" font-weight="normal" text-anchor="middle">  H </text>
<text x="92.58" y="10.66" fill="blue" font-family="Arial" font-size="2" font-style="normal" font-weight="normal" text-anchor="middle">  + </text>
<text x="90.61" y="39.90" fill="blue" font-family="Arial" font-size="4" font-style="normal" font-weight="normal" text-anchor="middle">  N </text>
<text x="93.41" y="39.90" fill="blue" font-family="Arial" font-size="4" font-style="normal" font-weight="normal" text-anchor="middle">  H </text>
<text x="95.41" y="40.30" fill="blue" font-family="Arial" font-size="2" font-style="normal" font-weight="normal" text-anchor="middle">  2 </text>
<text x="95.41" y="38.33" fill="blue" font-family="Arial" font-size="2" font-style="normal" font-weight="normal" text-anchor="middle">  + </text>
<text x="65.16" y="67.67" fill="#00cd00" font-family="Arial" font-size="4" font-style="normal" font-weight="normal" text-anchor="middle">  F </text>
<text x="83.71" y="67.78" fill="#00cd00" font-family="Arial" font-size="4" font-style="normal" font-weight="normal" text-anchor="middle">  F </text>
<text x="74.38" y="77.00" fill="#00cd00" font-family="Arial" font-size="4" font-style="normal" font-weight="normal" text-anchor="middle">  F </text>
</svg>
