<?xml version="1.0" encoding="UTF-8"?>
<!DOCTYPE svg PUBLIC "-//W3C//DTD SVG 1.1//EN"
  "http://www.w3.org/Graphics/SVG/1.1/DTD/svg11.dtd">
<svg xmlns="http://www.w3.org/2000/svg" xmlns:xlink="http://www.w3.org/1999/xlink"   viewBox="0.00 0.00 164.00 83.00">
<!-- Created by OpenEye Scientific Software -->
<!-- Creation Date Mon Nov 19 16:16:02 2018 -->
<line x1="152.56" y1="59.72" x2="137.36" y2="64.68" stroke="black" stroke-width="2" stroke-linejoin="round" stroke-linecap="round" />
<line x1="149.03" y1="57.14" x2="138.69" y2="60.52" stroke="black" stroke-width="2" stroke-linejoin="round" stroke-linecap="round" />
<line x1="152.56" y1="59.72" x2="155.80" y2="44.14" stroke="black" stroke-width="2" stroke-linejoin="round" stroke-linecap="round" />
<line x1="155.80" y1="44.14" x2="143.99" y2="33.48" stroke="black" stroke-width="2" stroke-linejoin="round" stroke-linecap="round" />
<line x1="151.53" y1="45.07" x2="143.51" y2="37.82" stroke="black" stroke-width="2" stroke-linejoin="round" stroke-linecap="round" />
<line x1="143.99" y1="33.48" x2="128.79" y2="38.45" stroke="black" stroke-width="2" stroke-linejoin="round" stroke-linecap="round" />
<line x1="128.79" y1="38.45" x2="125.40" y2="54.07" stroke="black" stroke-width="2" stroke-linejoin="round" stroke-linecap="round" />
<line x1="131.71" y1="41.70" x2="129.41" y2="52.32" stroke="black" stroke-width="2" stroke-linejoin="round" stroke-linecap="round" />
<line x1="125.40" y1="54.07" x2="137.36" y2="64.68" stroke="black" stroke-width="2" stroke-linejoin="round" stroke-linecap="round" />
<line x1="128.79" y1="38.45" x2="116.99" y2="27.79" stroke="black" stroke-width="2" stroke-linejoin="round" stroke-linecap="round" />
<line x1="116.99" y1="27.79" x2="101.85" y2="32.68" stroke="black" stroke-width="2" stroke-linejoin="round" stroke-linecap="round" />
<line x1="95.39" y1="27.98" x2="101.85" y2="32.68" stroke="black" stroke-width="2" stroke-linejoin="round" stroke-linecap="round" />
<line x1="95.39" y1="27.98" x2="92.75" y2="26.06" stroke="#ebc80a" stroke-width="2" stroke-linejoin="round" stroke-linecap="round" />
<line x1="99.37" y1="40.25" x2="101.85" y2="32.68" stroke="black" stroke-width="2" stroke-linejoin="round" stroke-linecap="round" />
<line x1="99.37" y1="40.25" x2="98.75" y2="42.13" stroke="blue" stroke-width="2" stroke-linejoin="round" stroke-linecap="round" />
<line x1="96.00" y1="39.15" x2="97.69" y2="34.00" stroke="black" stroke-width="2" stroke-linejoin="round" stroke-linecap="round" />
<line x1="96.00" y1="39.15" x2="94.31" y2="44.29" stroke="blue" stroke-width="2" stroke-linejoin="round" stroke-linecap="round" />
<line x1="90.90" y1="47.82" x2="85.69" y2="47.82" stroke="blue" stroke-width="2" stroke-linejoin="round" stroke-linecap="round" />
<line x1="78.52" y1="40.25" x2="79.51" y2="43.32" stroke="blue" stroke-width="2" stroke-linejoin="round" stroke-linecap="round" />
<line x1="78.52" y1="40.25" x2="76.08" y2="32.68" stroke="black" stroke-width="2" stroke-linejoin="round" stroke-linecap="round" />
<line x1="81.89" y1="39.16" x2="83.55" y2="44.31" stroke="blue" stroke-width="2" stroke-linejoin="round" stroke-linecap="round" />
<line x1="81.89" y1="39.16" x2="80.24" y2="34.02" stroke="black" stroke-width="2" stroke-linejoin="round" stroke-linecap="round" />
<line x1="82.50" y1="27.98" x2="76.08" y2="32.68" stroke="black" stroke-width="2" stroke-linejoin="round" stroke-linecap="round" />
<line x1="82.50" y1="27.98" x2="85.11" y2="26.08" stroke="#ebc80a" stroke-width="2" stroke-linejoin="round" stroke-linecap="round" />
<line x1="68.52" y1="30.23" x2="76.08" y2="32.68" stroke="black" stroke-width="2" stroke-linejoin="round" stroke-linecap="round" />
<line x1="68.52" y1="30.23" x2="65.45" y2="29.23" stroke="blue" stroke-width="2" stroke-linejoin="round" stroke-linecap="round" />
<line x1="55.04" y1="33.10" x2="57.44" y2="30.94" stroke="blue" stroke-width="2" stroke-linejoin="round" stroke-linecap="round" />
<line x1="55.04" y1="33.10" x2="49.13" y2="38.42" stroke="black" stroke-width="2" stroke-linejoin="round" stroke-linecap="round" />
<line x1="49.06" y1="46.57" x2="47.40" y2="38.79" stroke="black" stroke-width="2" stroke-linejoin="round" stroke-linecap="round" />
<line x1="49.06" y1="46.57" x2="49.62" y2="49.23" stroke="red" stroke-width="2" stroke-linejoin="round" stroke-linecap="round" />
<line x1="52.52" y1="45.83" x2="50.87" y2="38.05" stroke="black" stroke-width="2" stroke-linejoin="round" stroke-linecap="round" />
<line x1="52.52" y1="45.83" x2="53.09" y2="48.49" stroke="red" stroke-width="2" stroke-linejoin="round" stroke-linecap="round" />
<line x1="49.13" y1="38.42" x2="34.00" y2="33.51" stroke="black" stroke-width="2" stroke-linejoin="round" stroke-linecap="round" />
<line x1="31.52" y1="25.91" x2="34.00" y2="33.51" stroke="black" stroke-width="2" stroke-linejoin="round" stroke-linecap="round" />
<line x1="31.52" y1="25.91" x2="30.51" y2="22.81" stroke="#ebc80a" stroke-width="2" stroke-linejoin="round" stroke-linecap="round" />
<line x1="34.00" y1="33.51" x2="21.11" y2="42.87" stroke="black" stroke-width="2" stroke-linejoin="round" stroke-linecap="round" />
<line x1="29.86" y1="32.14" x2="21.09" y2="38.50" stroke="black" stroke-width="2" stroke-linejoin="round" stroke-linecap="round" />
<line x1="21.11" y1="42.87" x2="8.20" y2="33.53" stroke="black" stroke-width="2" stroke-linejoin="round" stroke-linecap="round" />
<line x1="8.20" y1="33.53" x2="13.13" y2="18.40" stroke="black" stroke-width="2" stroke-linejoin="round" stroke-linecap="round" />
<line x1="12.36" y1="32.21" x2="15.71" y2="21.92" stroke="black" stroke-width="2" stroke-linejoin="round" stroke-linecap="round" />
<line x1="21.09" y1="18.36" x2="13.13" y2="18.40" stroke="black" stroke-width="2" stroke-linejoin="round" stroke-linecap="round" />
<line x1="21.09" y1="18.36" x2="24.31" y2="18.34" stroke="#ebc80a" stroke-width="2" stroke-linejoin="round" stroke-linecap="round" />
<text x="96.89" y="49.80" fill="blue" font-family="Arial" font-size="6" font-style="normal" font-weight="normal" text-anchor="middle">  N </text>
<text x="96.89" y="54.60" fill="blue" font-family="Arial" font-size="6" font-style="normal" font-weight="normal" text-anchor="middle">  H </text>
<text x="100.19" y="47.45" fill="blue" font-family="Arial" font-size="4" font-style="normal" font-weight="normal" text-anchor="middle">  + </text>
<text x="80.96" y="49.80" fill="blue" font-family="Arial" font-size="6" font-style="normal" font-weight="normal" text-anchor="middle">  N </text>
<text x="88.92" y="25.26" fill="#ebc80a" font-family="Arial" font-size="6" font-style="normal" font-weight="normal" text-anchor="middle">  S </text>
<text x="60.95" y="29.75" fill="blue" font-family="Arial" font-size="6" font-style="normal" font-weight="normal" text-anchor="middle">  N </text>
<text x="60.95" y="24.95" fill="blue" font-family="Arial" font-size="6" font-style="normal" font-weight="normal" text-anchor="middle">  H </text>
<text x="52.45" y="55.96" fill="red" font-family="Arial" font-size="6" font-style="normal" font-weight="normal" text-anchor="middle">  O </text>
<text x="29.04" y="20.30" fill="#ebc80a" font-family="Arial" font-size="6" font-style="normal" font-weight="normal" text-anchor="middle">  S </text>
</svg>
