<?xml version="1.0" encoding="UTF-8"?>
<!DOCTYPE svg PUBLIC "-//W3C//DTD SVG 1.1//EN"
  "http://www.w3.org/Graphics/SVG/1.1/DTD/svg11.dtd">
<svg xmlns="http://www.w3.org/2000/svg" xmlns:xlink="http://www.w3.org/1999/xlink"   viewBox="0.00 0.00 200.00 150.00">
<!-- Created by OpenEye Scientific Software -->
<!-- Creation Date Mon Nov 19 16:16:03 2018 -->
<line x1="186.05" y1="89.72" x2="167.51" y2="95.77" stroke="black" stroke-width="2" stroke-linejoin="round" stroke-linecap="round" />
<line x1="181.81" y1="86.78" x2="169.21" y2="90.90" stroke="black" stroke-width="2" stroke-linejoin="round" stroke-linecap="round" />
<line x1="186.05" y1="89.72" x2="190.00" y2="70.72" stroke="black" stroke-width="2" stroke-linejoin="round" stroke-linecap="round" />
<line x1="190.00" y1="70.72" x2="175.60" y2="57.72" stroke="black" stroke-width="2" stroke-linejoin="round" stroke-linecap="round" />
<line x1="184.95" y1="71.69" x2="175.15" y2="62.85" stroke="black" stroke-width="2" stroke-linejoin="round" stroke-linecap="round" />
<line x1="175.60" y1="57.72" x2="157.06" y2="63.78" stroke="black" stroke-width="2" stroke-linejoin="round" stroke-linecap="round" />
<line x1="157.06" y1="63.78" x2="152.93" y2="82.83" stroke="black" stroke-width="2" stroke-linejoin="round" stroke-linecap="round" />
<line x1="160.41" y1="67.70" x2="157.60" y2="80.65" stroke="black" stroke-width="2" stroke-linejoin="round" stroke-linecap="round" />
<line x1="152.93" y1="82.83" x2="167.51" y2="95.77" stroke="black" stroke-width="2" stroke-linejoin="round" stroke-linecap="round" />
<line x1="157.06" y1="63.78" x2="148.44" y2="55.99" stroke="black" stroke-width="2" stroke-linejoin="round" stroke-linecap="round" />
<line x1="135.27" y1="53.17" x2="124.21" y2="56.74" stroke="black" stroke-width="2" stroke-linejoin="round" stroke-linecap="round" />
<line x1="116.33" y1="51.01" x2="124.21" y2="56.74" stroke="black" stroke-width="2" stroke-linejoin="round" stroke-linecap="round" />
<line x1="116.33" y1="51.01" x2="113.01" y2="48.60" stroke="#ebc80a" stroke-width="2" stroke-linejoin="round" stroke-linecap="round" />
<line x1="121.18" y1="65.98" x2="124.21" y2="56.74" stroke="black" stroke-width="2" stroke-linejoin="round" stroke-linecap="round" />
<line x1="121.18" y1="65.98" x2="119.91" y2="69.85" stroke="blue" stroke-width="2" stroke-linejoin="round" stroke-linecap="round" />
<line x1="117.28" y1="64.70" x2="119.34" y2="58.42" stroke="black" stroke-width="2" stroke-linejoin="round" stroke-linecap="round" />
<line x1="117.28" y1="64.70" x2="115.23" y2="70.98" stroke="blue" stroke-width="2" stroke-linejoin="round" stroke-linecap="round" />
<line x1="112.52" y1="75.21" x2="104.37" y2="75.21" stroke="blue" stroke-width="2" stroke-linejoin="round" stroke-linecap="round" />
<line x1="95.76" y1="65.98" x2="97.00" y2="69.84" stroke="blue" stroke-width="2" stroke-linejoin="round" stroke-linecap="round" />
<line x1="95.76" y1="65.98" x2="92.78" y2="56.74" stroke="black" stroke-width="2" stroke-linejoin="round" stroke-linecap="round" />
<line x1="99.66" y1="64.72" x2="101.68" y2="71.00" stroke="blue" stroke-width="2" stroke-linejoin="round" stroke-linecap="round" />
<line x1="99.66" y1="64.72" x2="97.64" y2="58.44" stroke="black" stroke-width="2" stroke-linejoin="round" stroke-linecap="round" />
<line x1="100.61" y1="51.01" x2="92.78" y2="56.74" stroke="black" stroke-width="2" stroke-linejoin="round" stroke-linecap="round" />
<line x1="100.61" y1="51.01" x2="103.89" y2="48.61" stroke="#ebc80a" stroke-width="2" stroke-linejoin="round" stroke-linecap="round" />
<line x1="83.56" y1="53.75" x2="92.78" y2="56.74" stroke="black" stroke-width="2" stroke-linejoin="round" stroke-linecap="round" />
<line x1="83.56" y1="53.75" x2="79.69" y2="52.50" stroke="blue" stroke-width="2" stroke-linejoin="round" stroke-linecap="round" />
<line x1="67.12" y1="57.25" x2="70.14" y2="54.53" stroke="blue" stroke-width="2" stroke-linejoin="round" stroke-linecap="round" />
<line x1="67.12" y1="57.25" x2="59.92" y2="63.74" stroke="black" stroke-width="2" stroke-linejoin="round" stroke-linecap="round" />
<line x1="59.93" y1="73.66" x2="57.91" y2="64.17" stroke="black" stroke-width="2" stroke-linejoin="round" stroke-linecap="round" />
<line x1="59.93" y1="73.66" x2="60.64" y2="76.97" stroke="red" stroke-width="2" stroke-linejoin="round" stroke-linecap="round" />
<line x1="63.95" y1="72.80" x2="61.93" y2="63.32" stroke="black" stroke-width="2" stroke-linejoin="round" stroke-linecap="round" />
<line x1="63.95" y1="72.80" x2="64.65" y2="76.11" stroke="red" stroke-width="2" stroke-linejoin="round" stroke-linecap="round" />
<line x1="59.92" y1="63.74" x2="41.47" y2="57.76" stroke="black" stroke-width="2" stroke-linejoin="round" stroke-linecap="round" />
<line x1="38.44" y1="48.49" x2="41.47" y2="57.76" stroke="black" stroke-width="2" stroke-linejoin="round" stroke-linecap="round" />
<line x1="38.44" y1="48.49" x2="37.17" y2="44.59" stroke="#ebc80a" stroke-width="2" stroke-linejoin="round" stroke-linecap="round" />
<line x1="41.47" y1="57.76" x2="25.74" y2="69.17" stroke="black" stroke-width="2" stroke-linejoin="round" stroke-linecap="round" />
<line x1="36.54" y1="56.26" x2="25.85" y2="64.02" stroke="black" stroke-width="2" stroke-linejoin="round" stroke-linecap="round" />
<line x1="25.74" y1="69.17" x2="10.00" y2="57.78" stroke="black" stroke-width="2" stroke-linejoin="round" stroke-linecap="round" />
<line x1="10.00" y1="57.78" x2="16.01" y2="39.33" stroke="black" stroke-width="2" stroke-linejoin="round" stroke-linecap="round" />
<line x1="14.86" y1="56.10" x2="18.95" y2="43.56" stroke="black" stroke-width="2" stroke-linejoin="round" stroke-linecap="round" />
<line x1="25.71" y1="39.28" x2="16.01" y2="39.33" stroke="black" stroke-width="2" stroke-linejoin="round" stroke-linecap="round" />
<line x1="25.71" y1="39.28" x2="29.78" y2="39.26" stroke="#ebc80a" stroke-width="2" stroke-linejoin="round" stroke-linecap="round" />
<text x="142.67" y="53.42" fill="black" font-family="Arial" font-size="8" font-style="normal" font-weight="normal" text-anchor="middle">  C </text>
<text x="142.67" y="47.02" fill="black" font-family="Arial" font-size="8" font-style="normal" font-weight="normal" text-anchor="middle">  H </text>
<text x="147.31" y="50.78" fill="black" font-family="Arial" font-size="8" font-style="normal" font-weight="normal" text-anchor="middle">  - </text>
<text x="118.16" y="77.85" fill="blue" font-family="Arial" font-size="8" font-style="normal" font-weight="normal" text-anchor="middle">  N </text>
<text x="98.73" y="77.85" fill="blue" font-family="Arial" font-size="8" font-style="normal" font-weight="normal" text-anchor="middle">  N </text>
<text x="108.44" y="47.92" fill="#ebc80a" font-family="Arial" font-size="8" font-style="normal" font-weight="normal" text-anchor="middle">  S </text>
<text x="74.33" y="53.40" fill="blue" font-family="Arial" font-size="8" font-style="normal" font-weight="normal" text-anchor="middle">  N </text>
<text x="74.33" y="47.00" fill="blue" font-family="Arial" font-size="8" font-style="normal" font-weight="normal" text-anchor="middle">  H </text>
<text x="63.96" y="85.36" fill="red" font-family="Arial" font-size="8" font-style="normal" font-weight="normal" text-anchor="middle">  O </text>
<text x="35.42" y="41.87" fill="#ebc80a" font-family="Arial" font-size="8" font-style="normal" font-weight="normal" text-anchor="middle">  S </text>
<text x="100.00" y="143.75" fill="black" font-family="Arial" font-size="15" font-style="normal" font-weight="normal" text-anchor="middle">  SM03_micro010 </text>
</svg>
