<?xml version="1.0" encoding="UTF-8"?>
<!DOCTYPE svg PUBLIC "-//W3C//DTD SVG 1.1//EN"
  "http://www.w3.org/Graphics/SVG/1.1/DTD/svg11.dtd">
<svg xmlns="http://www.w3.org/2000/svg" xmlns:xlink="http://www.w3.org/1999/xlink"   viewBox="0.00 0.00 200.00 150.00">
<!-- Created by OpenEye Scientific Software -->
<!-- Creation Date Mon Nov 19 16:16:03 2018 -->
<line x1="68.44" y1="34.86" x2="81.05" y2="42.10" stroke="black" stroke-width="2" stroke-linejoin="round" stroke-linecap="round" />
<line x1="72.11" y1="33.14" x2="80.69" y2="38.05" stroke="black" stroke-width="2" stroke-linejoin="round" stroke-linecap="round" />
<line x1="68.44" y1="34.86" x2="68.44" y2="20.25" stroke="black" stroke-width="2" stroke-linejoin="round" stroke-linecap="round" />
<line x1="68.44" y1="20.25" x2="81.05" y2="12.87" stroke="black" stroke-width="2" stroke-linejoin="round" stroke-linecap="round" />
<line x1="72.14" y1="21.94" x2="80.71" y2="16.92" stroke="black" stroke-width="2" stroke-linejoin="round" stroke-linecap="round" />
<line x1="81.05" y1="12.87" x2="93.66" y2="20.25" stroke="black" stroke-width="2" stroke-linejoin="round" stroke-linecap="round" />
<line x1="99.95" y1="16.57" x2="93.66" y2="20.25" stroke="black" stroke-width="2" stroke-linejoin="round" stroke-linecap="round" />
<line x1="99.95" y1="16.57" x2="102.16" y2="15.28" stroke="blue" stroke-width="2" stroke-linejoin="round" stroke-linecap="round" />
<line x1="101.63" y1="19.44" x2="97.35" y2="21.94" stroke="black" stroke-width="2" stroke-linejoin="round" stroke-linecap="round" />
<line x1="101.63" y1="19.44" x2="105.91" y2="16.93" stroke="blue" stroke-width="2" stroke-linejoin="round" stroke-linecap="round" />
<line x1="93.66" y1="20.25" x2="93.68" y2="34.86" stroke="black" stroke-width="2" stroke-linejoin="round" stroke-linecap="round" />
<line x1="93.68" y1="34.86" x2="81.05" y2="42.10" stroke="black" stroke-width="2" stroke-linejoin="round" stroke-linecap="round" />
<line x1="93.68" y1="34.86" x2="106.28" y2="42.11" stroke="black" stroke-width="2" stroke-linejoin="round" stroke-linecap="round" />
<line x1="97.36" y1="33.14" x2="105.92" y2="38.07" stroke="black" stroke-width="2" stroke-linejoin="round" stroke-linecap="round" />
<line x1="112.61" y1="38.47" x2="106.28" y2="42.11" stroke="black" stroke-width="2" stroke-linejoin="round" stroke-linecap="round" />
<line x1="112.61" y1="38.47" x2="114.83" y2="37.19" stroke="blue" stroke-width="2" stroke-linejoin="round" stroke-linecap="round" />
<line x1="118.92" y1="27.52" x2="118.93" y2="30.10" stroke="blue" stroke-width="2" stroke-linejoin="round" stroke-linecap="round" />
<line x1="118.92" y1="27.52" x2="118.91" y2="20.22" stroke="black" stroke-width="2" stroke-linejoin="round" stroke-linecap="round" />
<line x1="115.60" y1="27.53" x2="115.61" y2="32.50" stroke="blue" stroke-width="2" stroke-linejoin="round" stroke-linecap="round" />
<line x1="115.60" y1="27.53" x2="115.59" y2="22.56" stroke="black" stroke-width="2" stroke-linejoin="round" stroke-linecap="round" />
<line x1="112.58" y1="16.55" x2="118.91" y2="20.22" stroke="black" stroke-width="2" stroke-linejoin="round" stroke-linecap="round" />
<line x1="112.58" y1="16.55" x2="110.33" y2="15.25" stroke="blue" stroke-width="2" stroke-linejoin="round" stroke-linecap="round" />
<line x1="106.28" y1="49.38" x2="106.28" y2="42.11" stroke="black" stroke-width="2" stroke-linejoin="round" stroke-linecap="round" />
<line x1="106.28" y1="49.38" x2="106.28" y2="51.91" stroke="blue" stroke-width="2" stroke-linejoin="round" stroke-linecap="round" />
<line x1="112.57" y1="60.28" x2="110.37" y2="59.01" stroke="blue" stroke-width="2" stroke-linejoin="round" stroke-linecap="round" />
<line x1="112.57" y1="60.28" x2="118.86" y2="63.91" stroke="black" stroke-width="2" stroke-linejoin="round" stroke-linecap="round" />
<line x1="118.86" y1="63.91" x2="118.86" y2="78.44" stroke="black" stroke-width="2" stroke-linejoin="round" stroke-linecap="round" />
<line x1="118.86" y1="78.44" x2="131.50" y2="85.77" stroke="black" stroke-width="2" stroke-linejoin="round" stroke-linecap="round" />
<line x1="119.21" y1="82.49" x2="127.81" y2="87.47" stroke="black" stroke-width="2" stroke-linejoin="round" stroke-linecap="round" />
<line x1="118.86" y1="78.44" x2="106.28" y2="85.73" stroke="black" stroke-width="2" stroke-linejoin="round" stroke-linecap="round" />
<line x1="106.28" y1="85.73" x2="106.22" y2="100.26" stroke="black" stroke-width="2" stroke-linejoin="round" stroke-linecap="round" />
<line x1="109.60" y1="88.07" x2="109.55" y2="97.95" stroke="black" stroke-width="2" stroke-linejoin="round" stroke-linecap="round" />
<line x1="106.22" y1="100.26" x2="118.86" y2="107.58" stroke="black" stroke-width="2" stroke-linejoin="round" stroke-linecap="round" />
<line x1="118.86" y1="107.58" x2="131.56" y2="100.37" stroke="black" stroke-width="2" stroke-linejoin="round" stroke-linecap="round" />
<line x1="119.25" y1="103.54" x2="127.89" y2="98.63" stroke="black" stroke-width="2" stroke-linejoin="round" stroke-linecap="round" />
<line x1="131.56" y1="100.37" x2="131.50" y2="85.77" stroke="black" stroke-width="2" stroke-linejoin="round" stroke-linecap="round" />
<line x1="118.83" y1="114.85" x2="118.86" y2="107.58" stroke="black" stroke-width="2" stroke-linejoin="round" stroke-linecap="round" />
<line x1="118.83" y1="114.85" x2="118.82" y2="116.37" stroke="#82d700" stroke-width="2" stroke-linejoin="round" stroke-linecap="round" />
<text x="118.93" y="36.81" fill="blue" font-family="Arial" font-size="6" font-style="normal" font-weight="normal" text-anchor="middle">  N </text>
<text x="106.24" y="14.87" fill="blue" font-family="Arial" font-size="6" font-style="normal" font-weight="normal" text-anchor="middle">  N </text>
<text x="106.28" y="58.62" fill="blue" font-family="Arial" font-size="6" font-style="normal" font-weight="normal" text-anchor="middle">  N </text>
<text x="102.08" y="58.62" fill="blue" font-family="Arial" font-size="6" font-style="normal" font-weight="normal" text-anchor="middle">  H </text>
<text x="118.79" y="124.09" fill="#82d700" font-family="Arial" font-size="6" font-style="normal" font-weight="normal" text-anchor="middle">  Cl </text>
<text x="100.00" y="143.75" fill="black" font-family="Arial" font-size="15" font-style="normal" font-weight="normal" text-anchor="middle">  SM04_micro003 </text>
</svg>
