<?xml version="1.0" encoding="UTF-8"?>
<!DOCTYPE svg PUBLIC "-//W3C//DTD SVG 1.1//EN"
  "http://www.w3.org/Graphics/SVG/1.1/DTD/svg11.dtd">
<svg xmlns="http://www.w3.org/2000/svg" xmlns:xlink="http://www.w3.org/1999/xlink"   viewBox="0.00 0.00 164.00 83.00">
<!-- Created by OpenEye Scientific Software -->
<!-- Creation Date Mon Nov 19 16:16:03 2018 -->
<line x1="64.70" y1="21.25" x2="72.53" y2="25.74" stroke="black" stroke-width="2" stroke-linejoin="round" stroke-linecap="round" />
<line x1="67.17" y1="19.85" x2="72.49" y2="22.90" stroke="black" stroke-width="2" stroke-linejoin="round" stroke-linecap="round" />
<line x1="64.70" y1="21.25" x2="64.70" y2="12.18" stroke="black" stroke-width="2" stroke-linejoin="round" stroke-linecap="round" />
<line x1="64.70" y1="12.18" x2="72.53" y2="7.60" stroke="black" stroke-width="2" stroke-linejoin="round" stroke-linecap="round" />
<line x1="67.18" y1="13.55" x2="72.51" y2="10.44" stroke="black" stroke-width="2" stroke-linejoin="round" stroke-linecap="round" />
<line x1="72.53" y1="7.60" x2="80.35" y2="12.18" stroke="black" stroke-width="2" stroke-linejoin="round" stroke-linecap="round" />
<line x1="84.25" y1="9.89" x2="80.35" y2="12.18" stroke="black" stroke-width="2" stroke-linejoin="round" stroke-linecap="round" />
<line x1="84.25" y1="9.89" x2="85.25" y2="9.31" stroke="blue" stroke-width="2" stroke-linejoin="round" stroke-linecap="round" />
<line x1="80.35" y1="12.18" x2="80.36" y2="21.25" stroke="black" stroke-width="2" stroke-linejoin="round" stroke-linecap="round" />
<line x1="82.80" y1="13.63" x2="82.80" y2="19.79" stroke="black" stroke-width="2" stroke-linejoin="round" stroke-linecap="round" />
<line x1="80.36" y1="21.25" x2="72.53" y2="25.74" stroke="black" stroke-width="2" stroke-linejoin="round" stroke-linecap="round" />
<line x1="80.36" y1="21.25" x2="88.18" y2="25.75" stroke="black" stroke-width="2" stroke-linejoin="round" stroke-linecap="round" />
<line x1="88.18" y1="30.26" x2="88.18" y2="25.75" stroke="black" stroke-width="2" stroke-linejoin="round" stroke-linecap="round" />
<line x1="88.18" y1="30.26" x2="88.18" y2="31.40" stroke="blue" stroke-width="2" stroke-linejoin="round" stroke-linecap="round" />
<line x1="85.74" y1="30.25" x2="85.74" y2="27.19" stroke="black" stroke-width="2" stroke-linejoin="round" stroke-linecap="round" />
<line x1="85.74" y1="30.25" x2="85.74" y2="33.32" stroke="blue" stroke-width="2" stroke-linejoin="round" stroke-linecap="round" />
<line x1="84.27" y1="37.02" x2="85.26" y2="36.45" stroke="blue" stroke-width="2" stroke-linejoin="round" stroke-linecap="round" />
<line x1="84.27" y1="37.02" x2="80.37" y2="39.27" stroke="black" stroke-width="2" stroke-linejoin="round" stroke-linecap="round" />
<line x1="80.37" y1="39.27" x2="80.37" y2="48.29" stroke="black" stroke-width="2" stroke-linejoin="round" stroke-linecap="round" />
<line x1="80.37" y1="48.29" x2="72.52" y2="52.83" stroke="black" stroke-width="2" stroke-linejoin="round" stroke-linecap="round" />
<line x1="80.34" y1="51.13" x2="75.00" y2="54.22" stroke="black" stroke-width="2" stroke-linejoin="round" stroke-linecap="round" />
<line x1="80.37" y1="48.29" x2="88.17" y2="52.81" stroke="black" stroke-width="2" stroke-linejoin="round" stroke-linecap="round" />
<line x1="88.17" y1="52.81" x2="88.21" y2="61.83" stroke="black" stroke-width="2" stroke-linejoin="round" stroke-linecap="round" />
<line x1="85.73" y1="54.26" x2="85.76" y2="60.40" stroke="black" stroke-width="2" stroke-linejoin="round" stroke-linecap="round" />
<line x1="88.21" y1="61.83" x2="80.37" y2="66.37" stroke="black" stroke-width="2" stroke-linejoin="round" stroke-linecap="round" />
<line x1="80.37" y1="66.37" x2="72.48" y2="61.90" stroke="black" stroke-width="2" stroke-linejoin="round" stroke-linecap="round" />
<line x1="80.31" y1="63.53" x2="74.95" y2="60.49" stroke="black" stroke-width="2" stroke-linejoin="round" stroke-linecap="round" />
<line x1="72.48" y1="61.90" x2="72.52" y2="52.83" stroke="black" stroke-width="2" stroke-linejoin="round" stroke-linecap="round" />
<line x1="80.39" y1="70.88" x2="80.37" y2="66.37" stroke="black" stroke-width="2" stroke-linejoin="round" stroke-linecap="round" />
<line x1="80.39" y1="70.88" x2="80.39" y2="71.52" stroke="#82d700" stroke-width="2" stroke-linejoin="round" stroke-linecap="round" />
<line x1="92.11" y1="23.49" x2="88.18" y2="25.75" stroke="black" stroke-width="2" stroke-linejoin="round" stroke-linecap="round" />
<line x1="92.11" y1="23.49" x2="93.12" y2="22.90" stroke="blue" stroke-width="2" stroke-linejoin="round" stroke-linecap="round" />
<line x1="96.03" y1="16.69" x2="96.03" y2="17.86" stroke="blue" stroke-width="2" stroke-linejoin="round" stroke-linecap="round" />
<line x1="96.03" y1="16.69" x2="96.02" y2="12.16" stroke="black" stroke-width="2" stroke-linejoin="round" stroke-linecap="round" />
<line x1="92.09" y1="9.88" x2="96.02" y2="12.16" stroke="black" stroke-width="2" stroke-linejoin="round" stroke-linecap="round" />
<line x1="92.09" y1="9.88" x2="91.07" y2="9.29" stroke="blue" stroke-width="2" stroke-linejoin="round" stroke-linecap="round" />
<line x1="90.87" y1="12.00" x2="93.54" y2="13.54" stroke="black" stroke-width="2" stroke-linejoin="round" stroke-linecap="round" />
<line x1="90.87" y1="12.00" x2="88.19" y2="10.45" stroke="blue" stroke-width="2" stroke-linejoin="round" stroke-linecap="round" />
<text x="88.18" y="35.75" fill="blue" font-family="Arial" font-size="3" font-style="normal" font-weight="normal" text-anchor="middle">  N </text>
<text x="80.40" y="76.38" fill="#82d700" font-family="Arial" font-size="3" font-style="normal" font-weight="normal" text-anchor="middle">  Cl </text>
<text x="96.03" y="22.22" fill="blue" font-family="Arial" font-size="3" font-style="normal" font-weight="normal" text-anchor="middle">  N </text>
<text x="98.13" y="22.22" fill="blue" font-family="Arial" font-size="3" font-style="normal" font-weight="normal" text-anchor="middle">  H </text>
<text x="88.16" y="8.60" fill="blue" font-family="Arial" font-size="3" font-style="normal" font-weight="normal" text-anchor="middle">  N </text>
</svg>
