<?xml version="1.0" encoding="UTF-8"?>
<!DOCTYPE svg PUBLIC "-//W3C//DTD SVG 1.1//EN"
  "http://www.w3.org/Graphics/SVG/1.1/DTD/svg11.dtd">
<svg xmlns="http://www.w3.org/2000/svg" xmlns:xlink="http://www.w3.org/1999/xlink"   viewBox="0.00 0.00 200.00 150.00">
<!-- Created by OpenEye Scientific Software -->
<!-- Creation Date Mon Nov 19 16:16:03 2018 -->
<line x1="71.49" y1="34.86" x2="84.10" y2="42.10" stroke="black" stroke-width="2" stroke-linejoin="round" stroke-linecap="round" />
<line x1="75.16" y1="33.14" x2="83.73" y2="38.05" stroke="black" stroke-width="2" stroke-linejoin="round" stroke-linecap="round" />
<line x1="71.49" y1="34.86" x2="71.49" y2="20.25" stroke="black" stroke-width="2" stroke-linejoin="round" stroke-linecap="round" />
<line x1="71.49" y1="20.25" x2="84.10" y2="12.87" stroke="black" stroke-width="2" stroke-linejoin="round" stroke-linecap="round" />
<line x1="75.18" y1="21.94" x2="83.76" y2="16.92" stroke="black" stroke-width="2" stroke-linejoin="round" stroke-linecap="round" />
<line x1="84.10" y1="12.87" x2="96.71" y2="20.25" stroke="black" stroke-width="2" stroke-linejoin="round" stroke-linecap="round" />
<line x1="103.00" y1="16.57" x2="96.71" y2="20.25" stroke="black" stroke-width="2" stroke-linejoin="round" stroke-linecap="round" />
<line x1="103.00" y1="16.57" x2="105.20" y2="15.28" stroke="blue" stroke-width="2" stroke-linejoin="round" stroke-linecap="round" />
<line x1="96.71" y1="20.25" x2="96.73" y2="34.86" stroke="black" stroke-width="2" stroke-linejoin="round" stroke-linecap="round" />
<line x1="100.04" y1="22.58" x2="100.05" y2="32.52" stroke="black" stroke-width="2" stroke-linejoin="round" stroke-linecap="round" />
<line x1="96.73" y1="34.86" x2="84.10" y2="42.10" stroke="black" stroke-width="2" stroke-linejoin="round" stroke-linecap="round" />
<line x1="96.73" y1="34.86" x2="109.32" y2="42.11" stroke="black" stroke-width="2" stroke-linejoin="round" stroke-linecap="round" />
<line x1="109.32" y1="49.38" x2="109.32" y2="42.11" stroke="black" stroke-width="2" stroke-linejoin="round" stroke-linecap="round" />
<line x1="109.32" y1="49.38" x2="109.32" y2="51.92" stroke="blue" stroke-width="2" stroke-linejoin="round" stroke-linecap="round" />
<line x1="106.00" y1="49.38" x2="106.00" y2="44.44" stroke="black" stroke-width="2" stroke-linejoin="round" stroke-linecap="round" />
<line x1="106.00" y1="49.38" x2="106.00" y2="54.32" stroke="blue" stroke-width="2" stroke-linejoin="round" stroke-linecap="round" />
<line x1="103.03" y1="60.28" x2="105.23" y2="59.01" stroke="blue" stroke-width="2" stroke-linejoin="round" stroke-linecap="round" />
<line x1="103.03" y1="60.28" x2="96.74" y2="63.91" stroke="black" stroke-width="2" stroke-linejoin="round" stroke-linecap="round" />
<line x1="96.74" y1="63.91" x2="96.74" y2="78.44" stroke="black" stroke-width="2" stroke-linejoin="round" stroke-linecap="round" />
<line x1="96.74" y1="78.44" x2="84.10" y2="85.76" stroke="black" stroke-width="2" stroke-linejoin="round" stroke-linecap="round" />
<line x1="96.38" y1="82.49" x2="87.78" y2="87.47" stroke="black" stroke-width="2" stroke-linejoin="round" stroke-linecap="round" />
<line x1="96.74" y1="78.44" x2="109.31" y2="85.73" stroke="black" stroke-width="2" stroke-linejoin="round" stroke-linecap="round" />
<line x1="109.31" y1="85.73" x2="109.37" y2="100.26" stroke="black" stroke-width="2" stroke-linejoin="round" stroke-linecap="round" />
<line x1="106.00" y1="88.07" x2="106.04" y2="97.95" stroke="black" stroke-width="2" stroke-linejoin="round" stroke-linecap="round" />
<line x1="109.37" y1="100.26" x2="96.73" y2="107.58" stroke="black" stroke-width="2" stroke-linejoin="round" stroke-linecap="round" />
<line x1="96.73" y1="107.58" x2="84.03" y2="100.37" stroke="black" stroke-width="2" stroke-linejoin="round" stroke-linecap="round" />
<line x1="96.34" y1="103.54" x2="87.70" y2="98.63" stroke="black" stroke-width="2" stroke-linejoin="round" stroke-linecap="round" />
<line x1="84.03" y1="100.37" x2="84.10" y2="85.76" stroke="black" stroke-width="2" stroke-linejoin="round" stroke-linecap="round" />
<line x1="96.76" y1="114.85" x2="96.73" y2="107.58" stroke="black" stroke-width="2" stroke-linejoin="round" stroke-linecap="round" />
<line x1="96.76" y1="114.85" x2="96.77" y2="116.37" stroke="#82d700" stroke-width="2" stroke-linejoin="round" stroke-linecap="round" />
<line x1="115.65" y1="38.47" x2="109.32" y2="42.11" stroke="black" stroke-width="2" stroke-linejoin="round" stroke-linecap="round" />
<line x1="115.65" y1="38.47" x2="117.88" y2="37.19" stroke="blue" stroke-width="2" stroke-linejoin="round" stroke-linecap="round" />
<line x1="121.97" y1="27.52" x2="121.98" y2="30.10" stroke="blue" stroke-width="2" stroke-linejoin="round" stroke-linecap="round" />
<line x1="121.97" y1="27.52" x2="121.96" y2="20.22" stroke="black" stroke-width="2" stroke-linejoin="round" stroke-linecap="round" />
<line x1="115.62" y1="16.55" x2="121.96" y2="20.22" stroke="black" stroke-width="2" stroke-linejoin="round" stroke-linecap="round" />
<line x1="115.62" y1="16.55" x2="113.38" y2="15.25" stroke="blue" stroke-width="2" stroke-linejoin="round" stroke-linecap="round" />
<line x1="113.96" y1="19.43" x2="118.27" y2="21.92" stroke="black" stroke-width="2" stroke-linejoin="round" stroke-linecap="round" />
<line x1="113.96" y1="19.43" x2="109.65" y2="16.94" stroke="blue" stroke-width="2" stroke-linejoin="round" stroke-linecap="round" />
<text x="109.32" y="58.63" fill="blue" font-family="Arial" font-size="6" font-style="normal" font-weight="normal" text-anchor="middle">  N </text>
<text x="96.79" y="124.09" fill="#82d700" font-family="Arial" font-size="6" font-style="normal" font-weight="normal" text-anchor="middle">  Cl </text>
<text x="121.98" y="36.81" fill="blue" font-family="Arial" font-size="6" font-style="normal" font-weight="normal" text-anchor="middle">  N </text>
<text x="126.18" y="36.81" fill="blue" font-family="Arial" font-size="6" font-style="normal" font-weight="normal" text-anchor="middle">  H </text>
<text x="109.29" y="14.87" fill="blue" font-family="Arial" font-size="6" font-style="normal" font-weight="normal" text-anchor="middle">  N </text>
<text x="100.00" y="143.75" fill="black" font-family="Arial" font-size="15" font-style="normal" font-weight="normal" text-anchor="middle">  SM04_micro009 </text>
</svg>
