<?xml version="1.0" encoding="UTF-8"?>
<!DOCTYPE svg PUBLIC "-//W3C//DTD SVG 1.1//EN"
  "http://www.w3.org/Graphics/SVG/1.1/DTD/svg11.dtd">
<svg xmlns="http://www.w3.org/2000/svg" xmlns:xlink="http://www.w3.org/1999/xlink"   viewBox="0.00 0.00 200.00 150.00">
<!-- Created by OpenEye Scientific Software -->
<!-- Creation Date Mon Nov 19 16:16:04 2018 -->
<line x1="81.69" y1="116.14" x2="81.69" y2="98.93" stroke="black" stroke-width="2" stroke-linejoin="round" stroke-linecap="round" />
<line x1="85.42" y1="113.38" x2="85.42" y2="101.68" stroke="black" stroke-width="2" stroke-linejoin="round" stroke-linecap="round" />
<line x1="81.69" y1="116.14" x2="96.54" y2="124.66" stroke="black" stroke-width="2" stroke-linejoin="round" stroke-linecap="round" />
<line x1="96.54" y1="124.66" x2="111.32" y2="116.14" stroke="black" stroke-width="2" stroke-linejoin="round" stroke-linecap="round" />
<line x1="97.04" y1="120.06" x2="107.09" y2="114.27" stroke="black" stroke-width="2" stroke-linejoin="round" stroke-linecap="round" />
<line x1="111.32" y1="116.14" x2="111.39" y2="98.93" stroke="black" stroke-width="2" stroke-linejoin="round" stroke-linecap="round" />
<line x1="111.32" y1="116.14" x2="126.11" y2="124.76" stroke="black" stroke-width="2" stroke-linejoin="round" stroke-linecap="round" />
<line x1="126.11" y1="124.76" x2="141.06" y2="116.26" stroke="black" stroke-width="2" stroke-linejoin="round" stroke-linecap="round" />
<line x1="126.66" y1="120.16" x2="136.83" y2="114.38" stroke="black" stroke-width="2" stroke-linejoin="round" stroke-linecap="round" />
<line x1="141.06" y1="116.26" x2="141.14" y2="99.05" stroke="black" stroke-width="2" stroke-linejoin="round" stroke-linecap="round" />
<line x1="133.70" y1="94.69" x2="141.14" y2="99.05" stroke="black" stroke-width="2" stroke-linejoin="round" stroke-linecap="round" />
<line x1="133.70" y1="94.69" x2="132.00" y2="93.70" stroke="blue" stroke-width="2" stroke-linejoin="round" stroke-linecap="round" />
<line x1="131.81" y1="97.91" x2="136.87" y2="100.88" stroke="black" stroke-width="2" stroke-linejoin="round" stroke-linecap="round" />
<line x1="131.81" y1="97.91" x2="126.75" y2="94.95" stroke="blue" stroke-width="2" stroke-linejoin="round" stroke-linecap="round" />
<line x1="118.82" y1="94.63" x2="120.49" y2="93.67" stroke="blue" stroke-width="2" stroke-linejoin="round" stroke-linecap="round" />
<line x1="118.82" y1="94.63" x2="111.39" y2="98.93" stroke="black" stroke-width="2" stroke-linejoin="round" stroke-linecap="round" />
<line x1="111.39" y1="98.93" x2="96.54" y2="90.23" stroke="black" stroke-width="2" stroke-linejoin="round" stroke-linecap="round" />
<line x1="107.13" y1="100.75" x2="97.03" y2="94.84" stroke="black" stroke-width="2" stroke-linejoin="round" stroke-linecap="round" />
<line x1="96.54" y1="90.23" x2="81.69" y2="98.93" stroke="black" stroke-width="2" stroke-linejoin="round" stroke-linecap="round" />
<line x1="96.54" y1="81.70" x2="96.54" y2="90.23" stroke="black" stroke-width="2" stroke-linejoin="round" stroke-linecap="round" />
<line x1="96.54" y1="81.70" x2="96.54" y2="78.36" stroke="blue" stroke-width="2" stroke-linejoin="round" stroke-linecap="round" />
<line x1="89.15" y1="68.91" x2="92.05" y2="70.58" stroke="blue" stroke-width="2" stroke-linejoin="round" stroke-linecap="round" />
<line x1="89.15" y1="68.91" x2="81.77" y2="64.64" stroke="black" stroke-width="2" stroke-linejoin="round" stroke-linecap="round" />
<line x1="74.38" y1="68.91" x2="80.83" y2="63.03" stroke="black" stroke-width="2" stroke-linejoin="round" stroke-linecap="round" />
<line x1="74.38" y1="68.91" x2="73.48" y2="69.72" stroke="red" stroke-width="2" stroke-linejoin="round" stroke-linecap="round" />
<line x1="74.38" y1="68.91" x2="82.70" y2="66.26" stroke="black" stroke-width="2" stroke-linejoin="round" stroke-linecap="round" />
<line x1="74.38" y1="68.91" x2="73.22" y2="69.27" stroke="red" stroke-width="2" stroke-linejoin="round" stroke-linecap="round" />
<line x1="81.77" y1="64.64" x2="81.77" y2="47.58" stroke="black" stroke-width="2" stroke-linejoin="round" stroke-linecap="round" />
<line x1="81.77" y1="47.58" x2="66.93" y2="38.99" stroke="black" stroke-width="2" stroke-linejoin="round" stroke-linecap="round" />
<line x1="81.26" y1="42.98" x2="71.17" y2="37.13" stroke="black" stroke-width="2" stroke-linejoin="round" stroke-linecap="round" />
<line x1="81.77" y1="47.58" x2="96.53" y2="39.03" stroke="black" stroke-width="2" stroke-linejoin="round" stroke-linecap="round" />
<line x1="96.53" y1="39.03" x2="96.60" y2="21.97" stroke="black" stroke-width="2" stroke-linejoin="round" stroke-linecap="round" />
<line x1="92.81" y1="36.28" x2="92.86" y2="24.68" stroke="black" stroke-width="2" stroke-linejoin="round" stroke-linecap="round" />
<line x1="96.60" y1="21.97" x2="81.76" y2="13.37" stroke="black" stroke-width="2" stroke-linejoin="round" stroke-linecap="round" />
<line x1="74.31" y1="17.61" x2="81.76" y2="13.37" stroke="black" stroke-width="2" stroke-linejoin="round" stroke-linecap="round" />
<line x1="74.31" y1="17.61" x2="71.36" y2="19.28" stroke="blue" stroke-width="2" stroke-linejoin="round" stroke-linecap="round" />
<line x1="76.15" y1="20.85" x2="81.22" y2="17.97" stroke="black" stroke-width="2" stroke-linejoin="round" stroke-linecap="round" />
<line x1="76.15" y1="20.85" x2="71.08" y2="23.73" stroke="blue" stroke-width="2" stroke-linejoin="round" stroke-linecap="round" />
<line x1="66.89" y1="30.41" x2="66.87" y2="27.02" stroke="blue" stroke-width="2" stroke-linejoin="round" stroke-linecap="round" />
<line x1="66.89" y1="30.41" x2="66.93" y2="38.99" stroke="black" stroke-width="2" stroke-linejoin="round" stroke-linecap="round" />
<line x1="104.00" y1="17.73" x2="96.60" y2="21.97" stroke="black" stroke-width="2" stroke-linejoin="round" stroke-linecap="round" />
<line x1="104.00" y1="17.73" x2="105.48" y2="16.88" stroke="#a00" stroke-width="2" stroke-linejoin="round" stroke-linecap="round" />
<text x="126.26" y="92.64" fill="blue" font-family="Arial" font-size="7" font-style="normal" font-weight="normal" text-anchor="middle">  N </text>
<text x="126.26" y="87.04" fill="blue" font-family="Arial" font-size="7" font-style="normal" font-weight="normal" text-anchor="middle">  H </text>
<text x="129.91" y="90.33" fill="blue" font-family="Arial" font-size="4" font-style="normal" font-weight="normal" text-anchor="middle">  + </text>
<text x="96.54" y="75.48" fill="blue" font-family="Arial" font-size="7" font-style="normal" font-weight="normal" text-anchor="middle">  N </text>
<text x="101.44" y="75.48" fill="blue" font-family="Arial" font-size="7" font-style="normal" font-weight="normal" text-anchor="middle">  H </text>
<text x="66.99" y="75.48" fill="red" font-family="Arial" font-size="7" font-style="normal" font-weight="normal" text-anchor="middle">  O </text>
<text x="61.64" y="75.48" fill="red" font-family="Arial" font-size="7" font-style="normal" font-weight="normal" text-anchor="middle">  H </text>
<text x="71.10" y="72.73" fill="red" font-family="Arial" font-size="4" font-style="normal" font-weight="normal" text-anchor="middle">  + </text>
<text x="66.85" y="24.15" fill="blue" font-family="Arial" font-size="7" font-style="normal" font-weight="normal" text-anchor="middle">  N </text>
<text x="111.40" y="15.79" fill="#a00" font-family="Arial" font-size="7" font-style="normal" font-weight="normal" text-anchor="middle">  Br </text>
<text x="100.00" y="143.75" fill="black" font-family="Arial" font-size="15" font-style="normal" font-weight="normal" text-anchor="middle">  SM06_micro012 </text>
</svg>
