<?xml version="1.0" encoding="UTF-8"?>
<!DOCTYPE svg PUBLIC "-//W3C//DTD SVG 1.1//EN"
  "http://www.w3.org/Graphics/SVG/1.1/DTD/svg11.dtd">
<svg xmlns="http://www.w3.org/2000/svg" xmlns:xlink="http://www.w3.org/1999/xlink"   viewBox="0.00 0.00 200.00 150.00">
<!-- Created by OpenEye Scientific Software -->
<!-- Creation Date Mon Nov 19 16:16:05 2018 -->
<line x1="122.33" y1="124.76" x2="107.44" y2="116.22" stroke="black" stroke-width="2" stroke-linejoin="round" stroke-linecap="round" />
<line x1="121.80" y1="120.16" x2="111.68" y2="114.35" stroke="black" stroke-width="2" stroke-linejoin="round" stroke-linecap="round" />
<line x1="122.33" y1="124.76" x2="137.07" y2="116.14" stroke="black" stroke-width="2" stroke-linejoin="round" stroke-linecap="round" />
<line x1="137.07" y1="116.14" x2="137.07" y2="99.06" stroke="black" stroke-width="2" stroke-linejoin="round" stroke-linecap="round" />
<line x1="133.34" y1="113.40" x2="133.34" y2="101.79" stroke="black" stroke-width="2" stroke-linejoin="round" stroke-linecap="round" />
<line x1="137.07" y1="99.06" x2="122.18" y2="90.52" stroke="black" stroke-width="2" stroke-linejoin="round" stroke-linecap="round" />
<line x1="122.18" y1="90.52" x2="107.29" y2="99.06" stroke="black" stroke-width="2" stroke-linejoin="round" stroke-linecap="round" />
<line x1="121.65" y1="95.12" x2="111.53" y2="100.93" stroke="black" stroke-width="2" stroke-linejoin="round" stroke-linecap="round" />
<line x1="107.29" y1="99.06" x2="107.44" y2="116.22" stroke="black" stroke-width="2" stroke-linejoin="round" stroke-linecap="round" />
<line x1="122.18" y1="90.52" x2="122.18" y2="73.44" stroke="black" stroke-width="2" stroke-linejoin="round" stroke-linecap="round" />
<line x1="114.79" y1="69.17" x2="122.18" y2="73.44" stroke="black" stroke-width="2" stroke-linejoin="round" stroke-linecap="round" />
<line x1="114.79" y1="69.17" x2="111.88" y2="67.50" stroke="blue" stroke-width="2" stroke-linejoin="round" stroke-linecap="round" />
<line x1="107.39" y1="56.36" x2="107.39" y2="59.72" stroke="blue" stroke-width="2" stroke-linejoin="round" stroke-linecap="round" />
<line x1="107.39" y1="56.36" x2="107.39" y2="47.83" stroke="black" stroke-width="2" stroke-linejoin="round" stroke-linecap="round" />
<line x1="114.83" y1="43.55" x2="107.39" y2="47.83" stroke="black" stroke-width="2" stroke-linejoin="round" stroke-linecap="round" />
<line x1="114.83" y1="43.55" x2="116.50" y2="42.59" stroke="blue" stroke-width="2" stroke-linejoin="round" stroke-linecap="round" />
<line x1="112.97" y1="40.31" x2="107.91" y2="43.22" stroke="black" stroke-width="2" stroke-linejoin="round" stroke-linecap="round" />
<line x1="112.97" y1="40.31" x2="118.03" y2="37.40" stroke="blue" stroke-width="2" stroke-linejoin="round" stroke-linecap="round" />
<line x1="107.39" y1="47.83" x2="92.59" y2="39.31" stroke="black" stroke-width="2" stroke-linejoin="round" stroke-linecap="round" />
<line x1="92.59" y1="39.31" x2="92.57" y2="22.13" stroke="black" stroke-width="2" stroke-linejoin="round" stroke-linecap="round" />
<line x1="96.32" y1="36.55" x2="96.31" y2="24.88" stroke="black" stroke-width="2" stroke-linejoin="round" stroke-linecap="round" />
<line x1="92.59" y1="39.31" x2="77.75" y2="47.80" stroke="black" stroke-width="2" stroke-linejoin="round" stroke-linecap="round" />
<line x1="77.75" y1="47.80" x2="62.93" y2="39.31" stroke="black" stroke-width="2" stroke-linejoin="round" stroke-linecap="round" />
<line x1="77.24" y1="43.21" x2="67.16" y2="37.43" stroke="black" stroke-width="2" stroke-linejoin="round" stroke-linecap="round" />
<line x1="62.93" y1="39.31" x2="62.93" y2="22.13" stroke="black" stroke-width="2" stroke-linejoin="round" stroke-linecap="round" />
<line x1="62.93" y1="22.13" x2="77.75" y2="13.46" stroke="black" stroke-width="2" stroke-linejoin="round" stroke-linecap="round" />
<line x1="67.19" y1="23.97" x2="77.26" y2="18.07" stroke="black" stroke-width="2" stroke-linejoin="round" stroke-linecap="round" />
<line x1="77.75" y1="13.46" x2="92.57" y2="22.13" stroke="black" stroke-width="2" stroke-linejoin="round" stroke-linecap="round" />
<line x1="99.96" y1="17.81" x2="92.57" y2="22.13" stroke="black" stroke-width="2" stroke-linejoin="round" stroke-linecap="round" />
<line x1="99.96" y1="17.81" x2="102.88" y2="16.10" stroke="blue" stroke-width="2" stroke-linejoin="round" stroke-linecap="round" />
<line x1="114.80" y1="17.79" x2="111.84" y2="16.08" stroke="blue" stroke-width="2" stroke-linejoin="round" stroke-linecap="round" />
<line x1="114.80" y1="17.79" x2="122.25" y2="22.09" stroke="black" stroke-width="2" stroke-linejoin="round" stroke-linecap="round" />
<line x1="112.93" y1="21.02" x2="107.86" y2="18.09" stroke="blue" stroke-width="2" stroke-linejoin="round" stroke-linecap="round" />
<line x1="112.93" y1="21.02" x2="117.99" y2="23.95" stroke="black" stroke-width="2" stroke-linejoin="round" stroke-linecap="round" />
<line x1="122.26" y1="30.68" x2="122.25" y2="22.09" stroke="black" stroke-width="2" stroke-linejoin="round" stroke-linecap="round" />
<line x1="122.26" y1="30.68" x2="122.26" y2="32.61" stroke="blue" stroke-width="2" stroke-linejoin="round" stroke-linecap="round" />
<text x="107.39" y="67.21" fill="blue" font-family="Arial" font-size="7" font-style="normal" font-weight="normal" text-anchor="middle">  N </text>
<text x="102.49" y="67.21" fill="blue" font-family="Arial" font-size="7" font-style="normal" font-weight="normal" text-anchor="middle">  H </text>
<text x="107.35" y="15.79" fill="blue" font-family="Arial" font-size="7" font-style="normal" font-weight="normal" text-anchor="middle">  N </text>
<text x="122.27" y="41.58" fill="blue" font-family="Arial" font-size="7" font-style="normal" font-weight="normal" text-anchor="middle">  N </text>
<text x="127.17" y="41.58" fill="blue" font-family="Arial" font-size="7" font-style="normal" font-weight="normal" text-anchor="middle">  H </text>
<text x="130.82" y="38.83" fill="blue" font-family="Arial" font-size="4" font-style="normal" font-weight="normal" text-anchor="middle">  + </text>
<text x="100.00" y="143.75" fill="black" font-family="Arial" font-size="15" font-style="normal" font-weight="normal" text-anchor="middle">  SM07_micro007 </text>
</svg>
