<?xml version="1.0" encoding="UTF-8"?>
<!DOCTYPE svg PUBLIC "-//W3C//DTD SVG 1.1//EN"
  "http://www.w3.org/Graphics/SVG/1.1/DTD/svg11.dtd">
<svg xmlns="http://www.w3.org/2000/svg" xmlns:xlink="http://www.w3.org/1999/xlink"   viewBox="0.00 0.00 200.00 150.00">
<!-- Created by OpenEye Scientific Software -->
<!-- Creation Date Mon Nov 19 16:16:05 2018 -->
<line x1="98.49" y1="125.16" x2="112.71" y2="117.01" stroke="black" stroke-width="2" stroke-linejoin="round" stroke-linecap="round" />
<line x1="98.97" y1="120.73" x2="108.64" y2="115.18" stroke="black" stroke-width="2" stroke-linejoin="round" stroke-linecap="round" />
<line x1="98.49" y1="125.16" x2="84.42" y2="116.93" stroke="black" stroke-width="2" stroke-linejoin="round" stroke-linecap="round" />
<line x1="84.42" y1="116.93" x2="84.42" y2="100.62" stroke="black" stroke-width="2" stroke-linejoin="round" stroke-linecap="round" />
<line x1="88.03" y1="114.32" x2="88.03" y2="103.23" stroke="black" stroke-width="2" stroke-linejoin="round" stroke-linecap="round" />
<line x1="84.42" y1="100.62" x2="98.64" y2="92.47" stroke="black" stroke-width="2" stroke-linejoin="round" stroke-linecap="round" />
<line x1="98.64" y1="92.47" x2="112.86" y2="100.62" stroke="black" stroke-width="2" stroke-linejoin="round" stroke-linecap="round" />
<line x1="99.12" y1="96.90" x2="108.79" y2="102.45" stroke="black" stroke-width="2" stroke-linejoin="round" stroke-linecap="round" />
<line x1="112.86" y1="100.62" x2="112.71" y2="117.01" stroke="black" stroke-width="2" stroke-linejoin="round" stroke-linecap="round" />
<line x1="98.64" y1="92.47" x2="98.64" y2="76.16" stroke="black" stroke-width="2" stroke-linejoin="round" stroke-linecap="round" />
<line x1="105.70" y1="72.09" x2="98.64" y2="76.16" stroke="black" stroke-width="2" stroke-linejoin="round" stroke-linecap="round" />
<line x1="105.70" y1="72.09" x2="107.00" y2="71.34" stroke="blue" stroke-width="2" stroke-linejoin="round" stroke-linecap="round" />
<line x1="112.77" y1="59.86" x2="112.77" y2="61.36" stroke="blue" stroke-width="2" stroke-linejoin="round" stroke-linecap="round" />
<line x1="112.77" y1="59.86" x2="112.77" y2="51.71" stroke="black" stroke-width="2" stroke-linejoin="round" stroke-linecap="round" />
<line x1="109.16" y1="59.86" x2="109.16" y2="65.40" stroke="blue" stroke-width="2" stroke-linejoin="round" stroke-linecap="round" />
<line x1="109.16" y1="59.86" x2="109.16" y2="54.31" stroke="black" stroke-width="2" stroke-linejoin="round" stroke-linecap="round" />
<line x1="119.87" y1="47.62" x2="112.77" y2="51.71" stroke="black" stroke-width="2" stroke-linejoin="round" stroke-linecap="round" />
<line x1="119.87" y1="47.62" x2="122.47" y2="46.12" stroke="blue" stroke-width="2" stroke-linejoin="round" stroke-linecap="round" />
<line x1="112.77" y1="51.71" x2="98.63" y2="43.57" stroke="black" stroke-width="2" stroke-linejoin="round" stroke-linecap="round" />
<line x1="98.63" y1="43.57" x2="98.61" y2="27.17" stroke="black" stroke-width="2" stroke-linejoin="round" stroke-linecap="round" />
<line x1="102.24" y1="40.94" x2="102.23" y2="29.79" stroke="black" stroke-width="2" stroke-linejoin="round" stroke-linecap="round" />
<line x1="98.63" y1="43.57" x2="84.46" y2="51.69" stroke="black" stroke-width="2" stroke-linejoin="round" stroke-linecap="round" />
<line x1="84.46" y1="51.69" x2="70.31" y2="43.57" stroke="black" stroke-width="2" stroke-linejoin="round" stroke-linecap="round" />
<line x1="83.99" y1="47.26" x2="74.37" y2="41.74" stroke="black" stroke-width="2" stroke-linejoin="round" stroke-linecap="round" />
<line x1="70.31" y1="43.57" x2="70.31" y2="27.17" stroke="black" stroke-width="2" stroke-linejoin="round" stroke-linecap="round" />
<line x1="70.31" y1="27.17" x2="84.46" y2="18.89" stroke="black" stroke-width="2" stroke-linejoin="round" stroke-linecap="round" />
<line x1="74.40" y1="28.96" x2="84.02" y2="23.33" stroke="black" stroke-width="2" stroke-linejoin="round" stroke-linecap="round" />
<line x1="84.46" y1="18.89" x2="98.61" y2="27.17" stroke="black" stroke-width="2" stroke-linejoin="round" stroke-linecap="round" />
<line x1="105.67" y1="23.04" x2="98.61" y2="27.17" stroke="black" stroke-width="2" stroke-linejoin="round" stroke-linecap="round" />
<line x1="105.67" y1="23.04" x2="108.25" y2="21.53" stroke="blue" stroke-width="2" stroke-linejoin="round" stroke-linecap="round" />
<line x1="119.83" y1="23.02" x2="117.21" y2="21.51" stroke="blue" stroke-width="2" stroke-linejoin="round" stroke-linecap="round" />
<line x1="119.83" y1="23.02" x2="126.95" y2="27.14" stroke="black" stroke-width="2" stroke-linejoin="round" stroke-linecap="round" />
<line x1="126.96" y1="35.33" x2="126.95" y2="27.14" stroke="black" stroke-width="2" stroke-linejoin="round" stroke-linecap="round" />
<line x1="126.96" y1="35.33" x2="126.96" y2="38.35" stroke="blue" stroke-width="2" stroke-linejoin="round" stroke-linecap="round" />
<line x1="123.35" y1="35.34" x2="123.34" y2="29.76" stroke="black" stroke-width="2" stroke-linejoin="round" stroke-linecap="round" />
<line x1="123.35" y1="35.34" x2="123.36" y2="40.91" stroke="blue" stroke-width="2" stroke-linejoin="round" stroke-linecap="round" />
<text x="112.76" y="70.32" fill="blue" font-family="Arial" font-size="7" font-style="normal" font-weight="normal" text-anchor="middle">  N </text>
<text x="117.66" y="70.32" fill="blue" font-family="Arial" font-size="7" font-style="normal" font-weight="normal" text-anchor="middle">  H </text>
<text x="121.31" y="67.57" fill="blue" font-family="Arial" font-size="4" font-style="normal" font-weight="normal" text-anchor="middle">  + </text>
<text x="112.72" y="21.22" fill="blue" font-family="Arial" font-size="7" font-style="normal" font-weight="normal" text-anchor="middle">  N </text>
<text x="112.72" y="15.62" fill="blue" font-family="Arial" font-size="7" font-style="normal" font-weight="normal" text-anchor="middle">  H </text>
<text x="126.97" y="45.84" fill="blue" font-family="Arial" font-size="7" font-style="normal" font-weight="normal" text-anchor="middle">  N </text>
<text x="100.00" y="143.75" fill="black" font-family="Arial" font-size="15" font-style="normal" font-weight="normal" text-anchor="middle">  SM07_micro006 </text>
</svg>
