<?xml version="1.0" encoding="UTF-8"?>
<!DOCTYPE svg PUBLIC "-//W3C//DTD SVG 1.1//EN"
  "http://www.w3.org/Graphics/SVG/1.1/DTD/svg11.dtd">
<svg xmlns="http://www.w3.org/2000/svg" xmlns:xlink="http://www.w3.org/1999/xlink"   viewBox="0.00 0.00 164.00 83.00">
<!-- Created by OpenEye Scientific Software -->
<!-- Creation Date Mon Nov 19 16:16:05 2018 -->
<line x1="34.58" y1="38.36" x2="45.68" y2="31.93" stroke="black" stroke-width="2" stroke-linejoin="round" stroke-linecap="round" />
<line x1="45.68" y1="31.93" x2="56.85" y2="38.33" stroke="black" stroke-width="2" stroke-linejoin="round" stroke-linecap="round" />
<line x1="48.99" y1="30.30" x2="56.58" y2="34.66" stroke="black" stroke-width="2" stroke-linejoin="round" stroke-linecap="round" />
<line x1="45.68" y1="31.93" x2="45.68" y2="18.99" stroke="black" stroke-width="2" stroke-linejoin="round" stroke-linecap="round" />
<line x1="45.68" y1="18.99" x2="56.85" y2="12.45" stroke="black" stroke-width="2" stroke-linejoin="round" stroke-linecap="round" />
<line x1="49.01" y1="20.58" x2="56.60" y2="16.13" stroke="black" stroke-width="2" stroke-linejoin="round" stroke-linecap="round" />
<line x1="56.85" y1="12.45" x2="68.02" y2="18.99" stroke="black" stroke-width="2" stroke-linejoin="round" stroke-linecap="round" />
<line x1="73.60" y1="15.76" x2="68.02" y2="18.99" stroke="black" stroke-width="2" stroke-linejoin="round" stroke-linecap="round" />
<line x1="73.60" y1="15.76" x2="75.49" y2="14.67" stroke="blue" stroke-width="2" stroke-linejoin="round" stroke-linecap="round" />
<line x1="68.02" y1="18.99" x2="67.96" y2="31.93" stroke="black" stroke-width="2" stroke-linejoin="round" stroke-linecap="round" />
<line x1="71.06" y1="21.07" x2="71.02" y2="29.87" stroke="black" stroke-width="2" stroke-linejoin="round" stroke-linecap="round" />
<line x1="67.96" y1="31.93" x2="56.85" y2="38.33" stroke="black" stroke-width="2" stroke-linejoin="round" stroke-linecap="round" />
<line x1="67.96" y1="31.93" x2="79.08" y2="38.41" stroke="black" stroke-width="2" stroke-linejoin="round" stroke-linecap="round" />
<line x1="79.08" y1="38.41" x2="90.32" y2="32.02" stroke="black" stroke-width="2" stroke-linejoin="round" stroke-linecap="round" />
<line x1="79.37" y1="34.73" x2="87.02" y2="30.39" stroke="black" stroke-width="2" stroke-linejoin="round" stroke-linecap="round" />
<line x1="90.32" y1="32.02" x2="90.38" y2="19.08" stroke="black" stroke-width="2" stroke-linejoin="round" stroke-linecap="round" />
<line x1="96.71" y1="17.23" x2="91.14" y2="20.41" stroke="black" stroke-width="2" stroke-linejoin="round" stroke-linecap="round" />
<line x1="96.71" y1="17.23" x2="98.20" y2="16.38" stroke="red" stroke-width="2" stroke-linejoin="round" stroke-linecap="round" />
<line x1="95.19" y1="14.58" x2="89.62" y2="17.76" stroke="black" stroke-width="2" stroke-linejoin="round" stroke-linecap="round" />
<line x1="95.19" y1="14.58" x2="96.68" y2="13.73" stroke="red" stroke-width="2" stroke-linejoin="round" stroke-linecap="round" />
<line x1="84.78" y1="15.81" x2="90.38" y2="19.08" stroke="black" stroke-width="2" stroke-linejoin="round" stroke-linecap="round" />
<line x1="84.78" y1="15.81" x2="82.88" y2="14.69" stroke="blue" stroke-width="2" stroke-linejoin="round" stroke-linecap="round" />
<line x1="90.32" y1="32.02" x2="101.40" y2="38.50" stroke="black" stroke-width="2" stroke-linejoin="round" stroke-linecap="round" />
<line x1="101.40" y1="38.50" x2="112.54" y2="32.15" stroke="black" stroke-width="2" stroke-linejoin="round" stroke-linecap="round" />
<line x1="114.10" y1="25.74" x2="114.07" y2="32.15" stroke="black" stroke-width="2" stroke-linejoin="round" stroke-linecap="round" />
<line x1="114.10" y1="25.74" x2="114.11" y2="24.03" stroke="red" stroke-width="2" stroke-linejoin="round" stroke-linecap="round" />
<line x1="111.05" y1="25.72" x2="111.01" y2="32.14" stroke="black" stroke-width="2" stroke-linejoin="round" stroke-linecap="round" />
<line x1="111.05" y1="25.72" x2="111.06" y2="24.01" stroke="red" stroke-width="2" stroke-linejoin="round" stroke-linecap="round" />
<line x1="118.08" y1="35.38" x2="112.54" y2="32.15" stroke="black" stroke-width="2" stroke-linejoin="round" stroke-linecap="round" />
<line x1="118.08" y1="35.38" x2="119.56" y2="36.25" stroke="red" stroke-width="2" stroke-linejoin="round" stroke-linecap="round" />
<line x1="79.08" y1="38.41" x2="79.01" y2="51.23" stroke="black" stroke-width="2" stroke-linejoin="round" stroke-linecap="round" />
<line x1="79.01" y1="51.23" x2="67.79" y2="57.59" stroke="black" stroke-width="2" stroke-linejoin="round" stroke-linecap="round" />
<line x1="78.72" y1="54.91" x2="71.09" y2="59.23" stroke="black" stroke-width="2" stroke-linejoin="round" stroke-linecap="round" />
<line x1="79.01" y1="51.23" x2="90.16" y2="57.71" stroke="black" stroke-width="2" stroke-linejoin="round" stroke-linecap="round" />
<line x1="90.16" y1="57.71" x2="90.09" y2="70.54" stroke="black" stroke-width="2" stroke-linejoin="round" stroke-linecap="round" />
<line x1="87.09" y1="59.75" x2="87.05" y2="68.47" stroke="black" stroke-width="2" stroke-linejoin="round" stroke-linecap="round" />
<line x1="90.09" y1="70.54" x2="78.98" y2="76.95" stroke="black" stroke-width="2" stroke-linejoin="round" stroke-linecap="round" />
<line x1="78.98" y1="76.95" x2="67.83" y2="70.48" stroke="black" stroke-width="2" stroke-linejoin="round" stroke-linecap="round" />
<line x1="78.73" y1="73.28" x2="71.15" y2="68.88" stroke="black" stroke-width="2" stroke-linejoin="round" stroke-linecap="round" />
<line x1="67.83" y1="70.48" x2="67.79" y2="57.59" stroke="black" stroke-width="2" stroke-linejoin="round" stroke-linecap="round" />
<text x="101.52" y="14.38" fill="red" font-family="Arial" font-size="5" font-style="normal" font-weight="normal" text-anchor="middle">  O </text>
<text x="79.19" y="14.18" fill="blue" font-family="Arial" font-size="5" font-style="normal" font-weight="normal" text-anchor="middle">  N </text>
<text x="79.19" y="10.18" fill="blue" font-family="Arial" font-size="5" font-style="normal" font-weight="normal" text-anchor="middle">  H </text>
<text x="112.61" y="20.97" fill="red" font-family="Arial" font-size="5" font-style="normal" font-weight="normal" text-anchor="middle">  O </text>
<text x="123.61" y="40.27" fill="red" font-family="Arial" font-size="5" font-style="normal" font-weight="normal" text-anchor="middle">  O </text>
<text x="127.44" y="40.27" fill="red" font-family="Arial" font-size="5" font-style="normal" font-weight="normal" text-anchor="middle">  H </text>
</svg>
