<?xml version="1.0" encoding="UTF-8"?>
<!DOCTYPE svg PUBLIC "-//W3C//DTD SVG 1.1//EN"
  "http://www.w3.org/Graphics/SVG/1.1/DTD/svg11.dtd">
<svg xmlns="http://www.w3.org/2000/svg" xmlns:xlink="http://www.w3.org/1999/xlink"   viewBox="0.00 0.00 164.00 83.00">
<!-- Created by OpenEye Scientific Software -->
<!-- Creation Date Mon Nov 19 16:16:05 2018 -->
<line x1="33.06" y1="35.86" x2="44.87" y2="29.02" stroke="black" stroke-width="2" stroke-linejoin="round" stroke-linecap="round" />
<line x1="44.87" y1="29.02" x2="56.76" y2="35.83" stroke="black" stroke-width="2" stroke-linejoin="round" stroke-linecap="round" />
<line x1="48.36" y1="27.34" x2="56.44" y2="31.98" stroke="black" stroke-width="2" stroke-linejoin="round" stroke-linecap="round" />
<line x1="44.87" y1="29.02" x2="44.87" y2="15.24" stroke="black" stroke-width="2" stroke-linejoin="round" stroke-linecap="round" />
<line x1="44.87" y1="15.24" x2="56.76" y2="8.28" stroke="black" stroke-width="2" stroke-linejoin="round" stroke-linecap="round" />
<line x1="48.38" y1="16.87" x2="56.47" y2="12.14" stroke="black" stroke-width="2" stroke-linejoin="round" stroke-linecap="round" />
<line x1="56.76" y1="8.28" x2="68.65" y2="15.24" stroke="black" stroke-width="2" stroke-linejoin="round" stroke-linecap="round" />
<line x1="74.60" y1="11.80" x2="68.65" y2="15.24" stroke="black" stroke-width="2" stroke-linejoin="round" stroke-linecap="round" />
<line x1="74.60" y1="11.80" x2="76.85" y2="10.50" stroke="blue" stroke-width="2" stroke-linejoin="round" stroke-linecap="round" />
<line x1="76.19" y1="14.56" x2="72.15" y2="16.90" stroke="black" stroke-width="2" stroke-linejoin="round" stroke-linecap="round" />
<line x1="76.19" y1="14.56" x2="80.24" y2="12.22" stroke="blue" stroke-width="2" stroke-linejoin="round" stroke-linecap="round" />
<line x1="68.65" y1="15.24" x2="68.59" y2="29.02" stroke="black" stroke-width="2" stroke-linejoin="round" stroke-linecap="round" />
<line x1="68.59" y1="29.02" x2="56.76" y2="35.83" stroke="black" stroke-width="2" stroke-linejoin="round" stroke-linecap="round" />
<line x1="68.59" y1="29.02" x2="80.43" y2="35.92" stroke="black" stroke-width="2" stroke-linejoin="round" stroke-linecap="round" />
<line x1="72.09" y1="27.37" x2="80.14" y2="32.06" stroke="black" stroke-width="2" stroke-linejoin="round" stroke-linecap="round" />
<line x1="80.43" y1="35.92" x2="92.40" y2="29.12" stroke="black" stroke-width="2" stroke-linejoin="round" stroke-linecap="round" />
<line x1="92.40" y1="29.12" x2="92.46" y2="15.34" stroke="black" stroke-width="2" stroke-linejoin="round" stroke-linecap="round" />
<line x1="89.22" y1="26.90" x2="89.26" y2="17.53" stroke="black" stroke-width="2" stroke-linejoin="round" stroke-linecap="round" />
<line x1="86.50" y1="11.85" x2="92.46" y2="15.34" stroke="black" stroke-width="2" stroke-linejoin="round" stroke-linecap="round" />
<line x1="86.50" y1="11.85" x2="84.24" y2="10.52" stroke="blue" stroke-width="2" stroke-linejoin="round" stroke-linecap="round" />
<line x1="98.39" y1="11.96" x2="92.46" y2="15.34" stroke="black" stroke-width="2" stroke-linejoin="round" stroke-linecap="round" />
<line x1="98.39" y1="11.96" x2="99.16" y2="11.52" stroke="red" stroke-width="2" stroke-linejoin="round" stroke-linecap="round" />
<line x1="92.40" y1="29.12" x2="104.19" y2="36.01" stroke="black" stroke-width="2" stroke-linejoin="round" stroke-linecap="round" />
<line x1="104.19" y1="36.01" x2="116.05" y2="29.25" stroke="black" stroke-width="2" stroke-linejoin="round" stroke-linecap="round" />
<line x1="117.68" y1="22.43" x2="117.64" y2="29.26" stroke="black" stroke-width="2" stroke-linejoin="round" stroke-linecap="round" />
<line x1="117.68" y1="22.43" x2="117.69" y2="20.30" stroke="red" stroke-width="2" stroke-linejoin="round" stroke-linecap="round" />
<line x1="114.50" y1="22.41" x2="114.46" y2="29.24" stroke="black" stroke-width="2" stroke-linejoin="round" stroke-linecap="round" />
<line x1="114.50" y1="22.41" x2="114.51" y2="20.28" stroke="red" stroke-width="2" stroke-linejoin="round" stroke-linecap="round" />
<line x1="121.94" y1="32.70" x2="116.05" y2="29.25" stroke="black" stroke-width="2" stroke-linejoin="round" stroke-linecap="round" />
<line x1="121.94" y1="32.70" x2="122.71" y2="33.14" stroke="red" stroke-width="2" stroke-linejoin="round" stroke-linecap="round" />
<line x1="80.43" y1="35.92" x2="80.35" y2="49.57" stroke="black" stroke-width="2" stroke-linejoin="round" stroke-linecap="round" />
<line x1="80.35" y1="49.57" x2="68.41" y2="56.33" stroke="black" stroke-width="2" stroke-linejoin="round" stroke-linecap="round" />
<line x1="80.01" y1="53.42" x2="71.89" y2="58.02" stroke="black" stroke-width="2" stroke-linejoin="round" stroke-linecap="round" />
<line x1="80.35" y1="49.57" x2="92.22" y2="56.47" stroke="black" stroke-width="2" stroke-linejoin="round" stroke-linecap="round" />
<line x1="92.22" y1="56.47" x2="92.15" y2="70.12" stroke="black" stroke-width="2" stroke-linejoin="round" stroke-linecap="round" />
<line x1="89.03" y1="58.63" x2="88.97" y2="67.92" stroke="black" stroke-width="2" stroke-linejoin="round" stroke-linecap="round" />
<line x1="92.15" y1="70.12" x2="80.32" y2="76.95" stroke="black" stroke-width="2" stroke-linejoin="round" stroke-linecap="round" />
<line x1="80.32" y1="76.95" x2="68.45" y2="70.06" stroke="black" stroke-width="2" stroke-linejoin="round" stroke-linecap="round" />
<line x1="80.02" y1="73.09" x2="71.95" y2="68.41" stroke="black" stroke-width="2" stroke-linejoin="round" stroke-linecap="round" />
<line x1="68.45" y1="70.06" x2="68.41" y2="56.33" stroke="black" stroke-width="2" stroke-linejoin="round" stroke-linecap="round" />
<text x="80.55" y="10.01" fill="blue" font-family="Arial" font-size="5" font-style="normal" font-weight="normal" text-anchor="middle">  N </text>
<text x="104.32" y="10.23" fill="red" font-family="Arial" font-size="5" font-style="normal" font-weight="normal" text-anchor="middle">  O </text>
<text x="107.20" y="8.58" fill="red" font-family="Arial" font-size="4" font-style="normal" font-weight="normal" text-anchor="middle">  - </text>
<text x="116.13" y="17.24" fill="red" font-family="Arial" font-size="5" font-style="normal" font-weight="normal" text-anchor="middle">  O </text>
<text x="127.84" y="37.79" fill="red" font-family="Arial" font-size="5" font-style="normal" font-weight="normal" text-anchor="middle">  O </text>
<text x="130.71" y="36.14" fill="red" font-family="Arial" font-size="4" font-style="normal" font-weight="normal" text-anchor="middle">  - </text>
</svg>
