<?xml version="1.0" encoding="UTF-8"?>
<!DOCTYPE svg PUBLIC "-//W3C//DTD SVG 1.1//EN"
  "http://www.w3.org/Graphics/SVG/1.1/DTD/svg11.dtd">
<svg xmlns="http://www.w3.org/2000/svg" xmlns:xlink="http://www.w3.org/1999/xlink"   viewBox="0.00 0.00 200.00 150.00">
<!-- Created by OpenEye Scientific Software -->
<!-- Creation Date Mon Nov 19 16:16:05 2018 -->
<line x1="21.10" y1="58.68" x2="40.05" y2="47.70" stroke="black" stroke-width="2" stroke-linejoin="round" stroke-linecap="round" />
<line x1="40.05" y1="47.70" x2="59.13" y2="58.64" stroke="black" stroke-width="2" stroke-linejoin="round" stroke-linecap="round" />
<line x1="45.35" y1="45.54" x2="58.32" y2="52.98" stroke="black" stroke-width="2" stroke-linejoin="round" stroke-linecap="round" />
<line x1="40.05" y1="47.70" x2="40.05" y2="25.60" stroke="black" stroke-width="2" stroke-linejoin="round" stroke-linecap="round" />
<line x1="40.05" y1="25.60" x2="59.13" y2="14.43" stroke="black" stroke-width="2" stroke-linejoin="round" stroke-linecap="round" />
<line x1="45.38" y1="27.70" x2="58.35" y2="20.11" stroke="black" stroke-width="2" stroke-linejoin="round" stroke-linecap="round" />
<line x1="59.13" y1="14.43" x2="78.20" y2="25.60" stroke="black" stroke-width="2" stroke-linejoin="round" stroke-linecap="round" />
<line x1="87.74" y1="20.08" x2="78.20" y2="25.60" stroke="black" stroke-width="2" stroke-linejoin="round" stroke-linecap="round" />
<line x1="87.74" y1="20.08" x2="92.01" y2="17.62" stroke="blue" stroke-width="2" stroke-linejoin="round" stroke-linecap="round" />
<line x1="90.00" y1="23.98" x2="83.51" y2="27.73" stroke="black" stroke-width="2" stroke-linejoin="round" stroke-linecap="round" />
<line x1="90.00" y1="23.98" x2="96.49" y2="20.23" stroke="blue" stroke-width="2" stroke-linejoin="round" stroke-linecap="round" />
<line x1="78.20" y1="25.60" x2="78.11" y2="47.70" stroke="black" stroke-width="2" stroke-linejoin="round" stroke-linecap="round" />
<line x1="78.11" y1="47.70" x2="59.13" y2="58.64" stroke="black" stroke-width="2" stroke-linejoin="round" stroke-linecap="round" />
<line x1="78.11" y1="47.70" x2="97.10" y2="58.77" stroke="black" stroke-width="2" stroke-linejoin="round" stroke-linecap="round" />
<line x1="83.41" y1="45.58" x2="96.33" y2="53.11" stroke="black" stroke-width="2" stroke-linejoin="round" stroke-linecap="round" />
<line x1="97.10" y1="58.77" x2="116.30" y2="47.86" stroke="black" stroke-width="2" stroke-linejoin="round" stroke-linecap="round" />
<line x1="116.30" y1="47.86" x2="116.39" y2="25.76" stroke="black" stroke-width="2" stroke-linejoin="round" stroke-linecap="round" />
<line x1="111.81" y1="44.30" x2="111.87" y2="29.28" stroke="black" stroke-width="2" stroke-linejoin="round" stroke-linecap="round" />
<line x1="106.84" y1="20.16" x2="116.39" y2="25.76" stroke="black" stroke-width="2" stroke-linejoin="round" stroke-linecap="round" />
<line x1="106.84" y1="20.16" x2="102.54" y2="17.65" stroke="blue" stroke-width="2" stroke-linejoin="round" stroke-linecap="round" />
<line x1="125.91" y1="20.34" x2="116.39" y2="25.76" stroke="black" stroke-width="2" stroke-linejoin="round" stroke-linecap="round" />
<line x1="125.91" y1="20.34" x2="129.47" y2="18.31" stroke="red" stroke-width="2" stroke-linejoin="round" stroke-linecap="round" />
<line x1="116.30" y1="47.86" x2="135.21" y2="58.92" stroke="black" stroke-width="2" stroke-linejoin="round" stroke-linecap="round" />
<line x1="135.21" y1="58.92" x2="154.24" y2="48.07" stroke="black" stroke-width="2" stroke-linejoin="round" stroke-linecap="round" />
<line x1="156.56" y1="37.13" x2="156.49" y2="48.08" stroke="black" stroke-width="2" stroke-linejoin="round" stroke-linecap="round" />
<line x1="156.56" y1="37.13" x2="156.58" y2="33.03" stroke="red" stroke-width="2" stroke-linejoin="round" stroke-linecap="round" />
<line x1="152.05" y1="37.11" x2="151.99" y2="48.06" stroke="black" stroke-width="2" stroke-linejoin="round" stroke-linecap="round" />
<line x1="152.05" y1="37.11" x2="152.07" y2="33.01" stroke="red" stroke-width="2" stroke-linejoin="round" stroke-linecap="round" />
<line x1="163.70" y1="53.60" x2="154.24" y2="48.07" stroke="black" stroke-width="2" stroke-linejoin="round" stroke-linecap="round" />
<line x1="163.70" y1="53.60" x2="165.30" y2="54.54" stroke="red" stroke-width="2" stroke-linejoin="round" stroke-linecap="round" />
<line x1="97.10" y1="58.77" x2="96.97" y2="80.67" stroke="black" stroke-width="2" stroke-linejoin="round" stroke-linecap="round" />
<line x1="96.97" y1="80.67" x2="77.81" y2="91.52" stroke="black" stroke-width="2" stroke-linejoin="round" stroke-linecap="round" />
<line x1="96.13" y1="86.33" x2="83.10" y2="93.71" stroke="black" stroke-width="2" stroke-linejoin="round" stroke-linecap="round" />
<line x1="96.97" y1="80.67" x2="116.02" y2="91.74" stroke="black" stroke-width="2" stroke-linejoin="round" stroke-linecap="round" />
<line x1="116.02" y1="91.74" x2="115.89" y2="113.64" stroke="black" stroke-width="2" stroke-linejoin="round" stroke-linecap="round" />
<line x1="111.49" y1="95.22" x2="111.41" y2="110.11" stroke="black" stroke-width="2" stroke-linejoin="round" stroke-linecap="round" />
<line x1="115.89" y1="113.64" x2="96.93" y2="124.60" stroke="black" stroke-width="2" stroke-linejoin="round" stroke-linecap="round" />
<line x1="96.93" y1="124.60" x2="77.88" y2="113.54" stroke="black" stroke-width="2" stroke-linejoin="round" stroke-linecap="round" />
<line x1="96.14" y1="118.94" x2="83.19" y2="111.41" stroke="black" stroke-width="2" stroke-linejoin="round" stroke-linecap="round" />
<line x1="77.88" y1="113.54" x2="77.81" y2="91.52" stroke="black" stroke-width="2" stroke-linejoin="round" stroke-linecap="round" />
<text x="97.28" y="17.54" fill="blue" font-family="Arial" font-size="9" font-style="normal" font-weight="normal" text-anchor="middle">  N </text>
<text x="135.42" y="17.88" fill="red" font-family="Arial" font-size="9" font-style="normal" font-weight="normal" text-anchor="middle">  O </text>
<text x="142.31" y="17.88" fill="red" font-family="Arial" font-size="9" font-style="normal" font-weight="normal" text-anchor="middle">  H </text>
<text x="154.37" y="29.14" fill="red" font-family="Arial" font-size="9" font-style="normal" font-weight="normal" text-anchor="middle">  O </text>
<text x="173.15" y="62.10" fill="red" font-family="Arial" font-size="9" font-style="normal" font-weight="normal" text-anchor="middle">  O </text>
<text x="178.49" y="59.13" fill="red" font-family="Arial" font-size="8" font-style="normal" font-weight="normal" text-anchor="middle">  - </text>
<text x="100.00" y="143.75" fill="black" font-family="Arial" font-size="15" font-style="normal" font-weight="normal" text-anchor="middle">  SM08_micro009 </text>
</svg>
