<?xml version="1.0" encoding="UTF-8"?>
<!DOCTYPE svg PUBLIC "-//W3C//DTD SVG 1.1//EN"
  "http://www.w3.org/Graphics/SVG/1.1/DTD/svg11.dtd">
<svg xmlns="http://www.w3.org/2000/svg" xmlns:xlink="http://www.w3.org/1999/xlink"   viewBox="0.00 0.00 164.00 83.00">
<!-- Created by OpenEye Scientific Software -->
<!-- Creation Date Mon Nov 19 16:16:05 2018 -->
<line x1="104.23" y1="74.82" x2="108.67" y2="77.35" stroke="black" stroke-width="2" stroke-linejoin="round" stroke-linecap="round" />
<line x1="104.23" y1="74.82" x2="103.40" y2="74.35" stroke="red" stroke-width="2" stroke-linejoin="round" stroke-linecap="round" />
<line x1="99.75" y1="67.18" x2="99.76" y2="68.14" stroke="red" stroke-width="2" stroke-linejoin="round" stroke-linecap="round" />
<line x1="99.75" y1="67.18" x2="99.72" y2="62.07" stroke="black" stroke-width="2" stroke-linejoin="round" stroke-linecap="round" />
<line x1="99.72" y1="62.07" x2="90.78" y2="57.01" stroke="black" stroke-width="2" stroke-linejoin="round" stroke-linecap="round" />
<line x1="99.59" y1="58.97" x2="93.51" y2="55.52" stroke="black" stroke-width="2" stroke-linejoin="round" stroke-linecap="round" />
<line x1="99.72" y1="62.07" x2="108.61" y2="56.91" stroke="black" stroke-width="2" stroke-linejoin="round" stroke-linecap="round" />
<line x1="108.61" y1="56.91" x2="108.55" y2="46.68" stroke="black" stroke-width="2" stroke-linejoin="round" stroke-linecap="round" />
<line x1="105.96" y1="55.28" x2="105.92" y2="48.33" stroke="black" stroke-width="2" stroke-linejoin="round" stroke-linecap="round" />
<line x1="108.55" y1="46.68" x2="99.70" y2="41.57" stroke="black" stroke-width="2" stroke-linejoin="round" stroke-linecap="round" />
<line x1="99.70" y1="41.57" x2="90.81" y2="46.73" stroke="black" stroke-width="2" stroke-linejoin="round" stroke-linecap="round" />
<line x1="99.60" y1="44.67" x2="93.56" y2="48.18" stroke="black" stroke-width="2" stroke-linejoin="round" stroke-linecap="round" />
<line x1="90.81" y1="46.73" x2="90.78" y2="57.01" stroke="black" stroke-width="2" stroke-linejoin="round" stroke-linecap="round" />
<line x1="86.38" y1="44.18" x2="90.81" y2="46.73" stroke="black" stroke-width="2" stroke-linejoin="round" stroke-linecap="round" />
<line x1="86.38" y1="44.18" x2="85.99" y2="43.95" stroke="blue" stroke-width="2" stroke-linejoin="round" stroke-linecap="round" />
<line x1="81.96" y1="36.51" x2="81.96" y2="36.96" stroke="blue" stroke-width="2" stroke-linejoin="round" stroke-linecap="round" />
<line x1="81.96" y1="36.51" x2="81.96" y2="31.39" stroke="black" stroke-width="2" stroke-linejoin="round" stroke-linecap="round" />
<line x1="84.59" y1="36.51" x2="84.59" y2="39.98" stroke="blue" stroke-width="2" stroke-linejoin="round" stroke-linecap="round" />
<line x1="84.59" y1="36.51" x2="84.59" y2="33.03" stroke="black" stroke-width="2" stroke-linejoin="round" stroke-linecap="round" />
<line x1="86.41" y1="28.83" x2="81.96" y2="31.39" stroke="black" stroke-width="2" stroke-linejoin="round" stroke-linecap="round" />
<line x1="86.41" y1="28.83" x2="87.55" y2="28.17" stroke="blue" stroke-width="2" stroke-linejoin="round" stroke-linecap="round" />
<line x1="81.96" y1="31.39" x2="73.09" y2="26.29" stroke="black" stroke-width="2" stroke-linejoin="round" stroke-linecap="round" />
<line x1="73.09" y1="26.29" x2="73.08" y2="16.01" stroke="black" stroke-width="2" stroke-linejoin="round" stroke-linecap="round" />
<line x1="75.73" y1="24.64" x2="75.72" y2="17.65" stroke="black" stroke-width="2" stroke-linejoin="round" stroke-linecap="round" />
<line x1="73.09" y1="26.29" x2="64.21" y2="31.38" stroke="black" stroke-width="2" stroke-linejoin="round" stroke-linecap="round" />
<line x1="64.21" y1="31.38" x2="55.33" y2="26.29" stroke="black" stroke-width="2" stroke-linejoin="round" stroke-linecap="round" />
<line x1="64.10" y1="28.28" x2="58.06" y2="24.82" stroke="black" stroke-width="2" stroke-linejoin="round" stroke-linecap="round" />
<line x1="55.33" y1="26.29" x2="55.33" y2="16.01" stroke="black" stroke-width="2" stroke-linejoin="round" stroke-linecap="round" />
<line x1="55.33" y1="16.01" x2="64.21" y2="10.82" stroke="black" stroke-width="2" stroke-linejoin="round" stroke-linecap="round" />
<line x1="58.08" y1="17.46" x2="64.12" y2="13.92" stroke="black" stroke-width="2" stroke-linejoin="round" stroke-linecap="round" />
<line x1="64.21" y1="10.82" x2="73.08" y2="16.01" stroke="black" stroke-width="2" stroke-linejoin="round" stroke-linecap="round" />
<line x1="77.50" y1="13.42" x2="73.08" y2="16.01" stroke="black" stroke-width="2" stroke-linejoin="round" stroke-linecap="round" />
<line x1="77.50" y1="13.42" x2="78.63" y2="12.76" stroke="blue" stroke-width="2" stroke-linejoin="round" stroke-linecap="round" />
<line x1="86.39" y1="13.41" x2="85.24" y2="12.74" stroke="blue" stroke-width="2" stroke-linejoin="round" stroke-linecap="round" />
<line x1="86.39" y1="13.41" x2="90.85" y2="15.99" stroke="black" stroke-width="2" stroke-linejoin="round" stroke-linecap="round" />
<line x1="90.85" y1="21.13" x2="90.85" y2="15.99" stroke="black" stroke-width="2" stroke-linejoin="round" stroke-linecap="round" />
<line x1="90.85" y1="21.13" x2="90.86" y2="22.45" stroke="blue" stroke-width="2" stroke-linejoin="round" stroke-linecap="round" />
<line x1="88.22" y1="21.13" x2="88.21" y2="17.64" stroke="black" stroke-width="2" stroke-linejoin="round" stroke-linecap="round" />
<line x1="88.22" y1="21.13" x2="88.22" y2="24.63" stroke="blue" stroke-width="2" stroke-linejoin="round" stroke-linecap="round" />
<text x="99.78" y="73.61" fill="red" font-family="Arial" font-size="4" font-style="normal" font-weight="normal" text-anchor="middle">  O </text>
<text x="81.95" y="42.94" fill="blue" font-family="Arial" font-size="4" font-style="normal" font-weight="normal" text-anchor="middle">  N </text>
<text x="79.15" y="42.94" fill="blue" font-family="Arial" font-size="4" font-style="normal" font-weight="normal" text-anchor="middle">  H </text>
<text x="83.95" y="41.37" fill="blue" font-family="Arial" font-size="2" font-style="normal" font-weight="normal" text-anchor="middle">  + </text>
<text x="81.93" y="12.15" fill="blue" font-family="Arial" font-size="4" font-style="normal" font-weight="normal" text-anchor="middle">  N </text>
<text x="81.93" y="8.95" fill="blue" font-family="Arial" font-size="4" font-style="normal" font-weight="normal" text-anchor="middle">  H </text>
<text x="90.86" y="27.59" fill="blue" font-family="Arial" font-size="4" font-style="normal" font-weight="normal" text-anchor="middle">  N </text>
</svg>
