<?xml version="1.0" encoding="UTF-8"?>
<!DOCTYPE svg PUBLIC "-//W3C//DTD SVG 1.1//EN"
  "http://www.w3.org/Graphics/SVG/1.1/DTD/svg11.dtd">
<svg xmlns="http://www.w3.org/2000/svg" xmlns:xlink="http://www.w3.org/1999/xlink"   viewBox="0.00 0.00 164.00 83.00">
<!-- Created by OpenEye Scientific Software -->
<!-- Creation Date Mon Nov 19 16:16:05 2018 -->
<line x1="65.87" y1="74.50" x2="61.23" y2="77.14" stroke="black" stroke-width="2" stroke-linejoin="round" stroke-linecap="round" />
<line x1="65.87" y1="74.50" x2="66.89" y2="73.91" stroke="red" stroke-width="2" stroke-linejoin="round" stroke-linecap="round" />
<line x1="70.54" y1="66.52" x2="70.53" y2="67.70" stroke="red" stroke-width="2" stroke-linejoin="round" stroke-linecap="round" />
<line x1="70.54" y1="66.52" x2="70.57" y2="61.19" stroke="black" stroke-width="2" stroke-linejoin="round" stroke-linecap="round" />
<line x1="70.57" y1="61.19" x2="79.91" y2="55.91" stroke="black" stroke-width="2" stroke-linejoin="round" stroke-linecap="round" />
<line x1="70.73" y1="57.98" x2="77.08" y2="54.39" stroke="black" stroke-width="2" stroke-linejoin="round" stroke-linecap="round" />
<line x1="70.57" y1="61.19" x2="61.30" y2="55.80" stroke="black" stroke-width="2" stroke-linejoin="round" stroke-linecap="round" />
<line x1="61.30" y1="55.80" x2="61.36" y2="45.12" stroke="black" stroke-width="2" stroke-linejoin="round" stroke-linecap="round" />
<line x1="64.01" y1="54.10" x2="64.06" y2="46.85" stroke="black" stroke-width="2" stroke-linejoin="round" stroke-linecap="round" />
<line x1="61.36" y1="45.12" x2="70.60" y2="39.79" stroke="black" stroke-width="2" stroke-linejoin="round" stroke-linecap="round" />
<line x1="70.60" y1="39.79" x2="79.87" y2="45.18" stroke="black" stroke-width="2" stroke-linejoin="round" stroke-linecap="round" />
<line x1="70.73" y1="42.99" x2="77.03" y2="46.66" stroke="black" stroke-width="2" stroke-linejoin="round" stroke-linecap="round" />
<line x1="79.87" y1="45.18" x2="79.91" y2="55.91" stroke="black" stroke-width="2" stroke-linejoin="round" stroke-linecap="round" />
<line x1="84.50" y1="42.51" x2="79.87" y2="45.18" stroke="black" stroke-width="2" stroke-linejoin="round" stroke-linecap="round" />
<line x1="84.50" y1="42.51" x2="85.81" y2="41.76" stroke="blue" stroke-width="2" stroke-linejoin="round" stroke-linecap="round" />
<line x1="89.12" y1="34.51" x2="89.12" y2="36.03" stroke="blue" stroke-width="2" stroke-linejoin="round" stroke-linecap="round" />
<line x1="89.12" y1="34.51" x2="89.12" y2="29.18" stroke="black" stroke-width="2" stroke-linejoin="round" stroke-linecap="round" />
<line x1="86.41" y1="34.51" x2="86.41" y2="38.14" stroke="blue" stroke-width="2" stroke-linejoin="round" stroke-linecap="round" />
<line x1="86.41" y1="34.51" x2="86.41" y2="30.88" stroke="black" stroke-width="2" stroke-linejoin="round" stroke-linecap="round" />
<line x1="93.76" y1="26.50" x2="89.12" y2="29.18" stroke="black" stroke-width="2" stroke-linejoin="round" stroke-linecap="round" />
<line x1="93.76" y1="26.50" x2="95.10" y2="25.73" stroke="blue" stroke-width="2" stroke-linejoin="round" stroke-linecap="round" />
<line x1="89.12" y1="29.18" x2="79.87" y2="23.85" stroke="black" stroke-width="2" stroke-linejoin="round" stroke-linecap="round" />
<line x1="79.87" y1="23.85" x2="79.86" y2="13.12" stroke="black" stroke-width="2" stroke-linejoin="round" stroke-linecap="round" />
<line x1="82.57" y1="22.13" x2="82.56" y2="14.84" stroke="black" stroke-width="2" stroke-linejoin="round" stroke-linecap="round" />
<line x1="79.87" y1="23.85" x2="70.59" y2="29.16" stroke="black" stroke-width="2" stroke-linejoin="round" stroke-linecap="round" />
<line x1="70.59" y1="29.16" x2="61.33" y2="23.85" stroke="black" stroke-width="2" stroke-linejoin="round" stroke-linecap="round" />
<line x1="70.46" y1="25.96" x2="64.16" y2="22.35" stroke="black" stroke-width="2" stroke-linejoin="round" stroke-linecap="round" />
<line x1="61.33" y1="23.85" x2="61.33" y2="13.12" stroke="black" stroke-width="2" stroke-linejoin="round" stroke-linecap="round" />
<line x1="61.33" y1="13.12" x2="70.59" y2="7.70" stroke="black" stroke-width="2" stroke-linejoin="round" stroke-linecap="round" />
<line x1="64.18" y1="14.59" x2="70.48" y2="10.91" stroke="black" stroke-width="2" stroke-linejoin="round" stroke-linecap="round" />
<line x1="70.59" y1="7.70" x2="79.86" y2="13.12" stroke="black" stroke-width="2" stroke-linejoin="round" stroke-linecap="round" />
<line x1="84.47" y1="10.42" x2="79.86" y2="13.12" stroke="black" stroke-width="2" stroke-linejoin="round" stroke-linecap="round" />
<line x1="84.47" y1="10.42" x2="85.79" y2="9.65" stroke="blue" stroke-width="2" stroke-linejoin="round" stroke-linecap="round" />
<line x1="93.74" y1="10.41" x2="92.40" y2="9.63" stroke="blue" stroke-width="2" stroke-linejoin="round" stroke-linecap="round" />
<line x1="93.74" y1="10.41" x2="98.40" y2="13.10" stroke="black" stroke-width="2" stroke-linejoin="round" stroke-linecap="round" />
<line x1="92.39" y1="12.75" x2="89.22" y2="10.92" stroke="blue" stroke-width="2" stroke-linejoin="round" stroke-linecap="round" />
<line x1="92.39" y1="12.75" x2="95.55" y2="14.58" stroke="black" stroke-width="2" stroke-linejoin="round" stroke-linecap="round" />
<line x1="98.40" y1="18.46" x2="98.40" y2="13.10" stroke="black" stroke-width="2" stroke-linejoin="round" stroke-linecap="round" />
<line x1="98.40" y1="18.46" x2="98.41" y2="20.01" stroke="blue" stroke-width="2" stroke-linejoin="round" stroke-linecap="round" />
<text x="70.51" y="73.18" fill="red" font-family="Arial" font-size="4" font-style="normal" font-weight="normal" text-anchor="middle">  O </text>
<text x="89.12" y="41.17" fill="blue" font-family="Arial" font-size="4" font-style="normal" font-weight="normal" text-anchor="middle">  N </text>
<text x="89.09" y="9.04" fill="blue" font-family="Arial" font-size="4" font-style="normal" font-weight="normal" text-anchor="middle">  N </text>
<text x="98.41" y="25.15" fill="blue" font-family="Arial" font-size="4" font-style="normal" font-weight="normal" text-anchor="middle">  N </text>
<text x="101.21" y="25.15" fill="blue" font-family="Arial" font-size="4" font-style="normal" font-weight="normal" text-anchor="middle">  H </text>
</svg>
