<?xml version="1.0" encoding="UTF-8"?>
<!DOCTYPE svg PUBLIC "-//W3C//DTD SVG 1.1//EN"
  "http://www.w3.org/Graphics/SVG/1.1/DTD/svg11.dtd">
<svg xmlns="http://www.w3.org/2000/svg" xmlns:xlink="http://www.w3.org/1999/xlink"   viewBox="0.00 0.00 200.00 150.00">
<!-- Created by OpenEye Scientific Software -->
<!-- Creation Date Mon Nov 19 16:16:05 2018 -->
<line x1="73.82" y1="120.53" x2="66.39" y2="124.76" stroke="black" stroke-width="2" stroke-linejoin="round" stroke-linecap="round" />
<line x1="73.82" y1="120.53" x2="76.24" y2="119.16" stroke="red" stroke-width="2" stroke-linejoin="round" stroke-linecap="round" />
<line x1="81.31" y1="107.74" x2="81.29" y2="110.52" stroke="red" stroke-width="2" stroke-linejoin="round" stroke-linecap="round" />
<line x1="81.31" y1="107.74" x2="81.36" y2="99.19" stroke="black" stroke-width="2" stroke-linejoin="round" stroke-linecap="round" />
<line x1="81.36" y1="99.19" x2="96.32" y2="90.73" stroke="black" stroke-width="2" stroke-linejoin="round" stroke-linecap="round" />
<line x1="81.91" y1="94.59" x2="92.09" y2="88.83" stroke="black" stroke-width="2" stroke-linejoin="round" stroke-linecap="round" />
<line x1="81.36" y1="99.19" x2="66.49" y2="90.55" stroke="black" stroke-width="2" stroke-linejoin="round" stroke-linecap="round" />
<line x1="66.49" y1="90.55" x2="66.59" y2="73.45" stroke="black" stroke-width="2" stroke-linejoin="round" stroke-linecap="round" />
<line x1="70.25" y1="87.84" x2="70.32" y2="76.20" stroke="black" stroke-width="2" stroke-linejoin="round" stroke-linecap="round" />
<line x1="66.59" y1="73.45" x2="81.41" y2="64.90" stroke="black" stroke-width="2" stroke-linejoin="round" stroke-linecap="round" />
<line x1="81.41" y1="64.90" x2="96.27" y2="73.54" stroke="black" stroke-width="2" stroke-linejoin="round" stroke-linecap="round" />
<line x1="81.91" y1="69.51" x2="92.02" y2="75.38" stroke="black" stroke-width="2" stroke-linejoin="round" stroke-linecap="round" />
<line x1="96.27" y1="73.54" x2="96.32" y2="90.73" stroke="black" stroke-width="2" stroke-linejoin="round" stroke-linecap="round" />
<line x1="103.68" y1="69.26" x2="96.27" y2="73.54" stroke="black" stroke-width="2" stroke-linejoin="round" stroke-linecap="round" />
<line x1="103.68" y1="69.26" x2="106.60" y2="67.58" stroke="blue" stroke-width="2" stroke-linejoin="round" stroke-linecap="round" />
<line x1="111.09" y1="56.43" x2="111.09" y2="59.80" stroke="blue" stroke-width="2" stroke-linejoin="round" stroke-linecap="round" />
<line x1="111.09" y1="56.43" x2="111.09" y2="47.88" stroke="black" stroke-width="2" stroke-linejoin="round" stroke-linecap="round" />
<line x1="107.35" y1="56.43" x2="107.35" y2="62.25" stroke="blue" stroke-width="2" stroke-linejoin="round" stroke-linecap="round" />
<line x1="107.35" y1="56.43" x2="107.35" y2="50.62" stroke="black" stroke-width="2" stroke-linejoin="round" stroke-linecap="round" />
<line x1="118.54" y1="43.59" x2="111.09" y2="47.88" stroke="black" stroke-width="2" stroke-linejoin="round" stroke-linecap="round" />
<line x1="118.54" y1="43.59" x2="121.49" y2="41.89" stroke="blue" stroke-width="2" stroke-linejoin="round" stroke-linecap="round" />
<line x1="111.09" y1="47.88" x2="96.26" y2="39.35" stroke="black" stroke-width="2" stroke-linejoin="round" stroke-linecap="round" />
<line x1="96.26" y1="39.35" x2="96.24" y2="22.15" stroke="black" stroke-width="2" stroke-linejoin="round" stroke-linecap="round" />
<line x1="100.00" y1="36.59" x2="99.98" y2="24.89" stroke="black" stroke-width="2" stroke-linejoin="round" stroke-linecap="round" />
<line x1="96.26" y1="39.35" x2="81.40" y2="47.86" stroke="black" stroke-width="2" stroke-linejoin="round" stroke-linecap="round" />
<line x1="81.40" y1="47.86" x2="66.55" y2="39.35" stroke="black" stroke-width="2" stroke-linejoin="round" stroke-linecap="round" />
<line x1="80.88" y1="43.26" x2="70.79" y2="37.47" stroke="black" stroke-width="2" stroke-linejoin="round" stroke-linecap="round" />
<line x1="66.55" y1="39.35" x2="66.55" y2="22.15" stroke="black" stroke-width="2" stroke-linejoin="round" stroke-linecap="round" />
<line x1="66.55" y1="22.15" x2="81.40" y2="13.46" stroke="black" stroke-width="2" stroke-linejoin="round" stroke-linecap="round" />
<line x1="70.81" y1="23.98" x2="80.91" y2="18.07" stroke="black" stroke-width="2" stroke-linejoin="round" stroke-linecap="round" />
<line x1="81.40" y1="13.46" x2="96.24" y2="22.15" stroke="black" stroke-width="2" stroke-linejoin="round" stroke-linecap="round" />
<line x1="103.64" y1="17.81" x2="96.24" y2="22.15" stroke="black" stroke-width="2" stroke-linejoin="round" stroke-linecap="round" />
<line x1="103.64" y1="17.81" x2="106.57" y2="16.10" stroke="blue" stroke-width="2" stroke-linejoin="round" stroke-linecap="round" />
<line x1="118.50" y1="17.79" x2="115.53" y2="16.08" stroke="blue" stroke-width="2" stroke-linejoin="round" stroke-linecap="round" />
<line x1="118.50" y1="17.79" x2="125.96" y2="22.11" stroke="black" stroke-width="2" stroke-linejoin="round" stroke-linecap="round" />
<line x1="116.63" y1="21.03" x2="111.56" y2="18.10" stroke="blue" stroke-width="2" stroke-linejoin="round" stroke-linecap="round" />
<line x1="116.63" y1="21.03" x2="121.71" y2="23.96" stroke="black" stroke-width="2" stroke-linejoin="round" stroke-linecap="round" />
<line x1="125.98" y1="30.71" x2="125.96" y2="22.11" stroke="black" stroke-width="2" stroke-linejoin="round" stroke-linecap="round" />
<line x1="125.98" y1="30.71" x2="125.98" y2="34.12" stroke="blue" stroke-width="2" stroke-linejoin="round" stroke-linecap="round" />
<text x="81.26" y="118.61" fill="red" font-family="Arial" font-size="7" font-style="normal" font-weight="normal" text-anchor="middle">  O </text>
<text x="111.09" y="67.30" fill="blue" font-family="Arial" font-size="7" font-style="normal" font-weight="normal" text-anchor="middle">  N </text>
<text x="111.04" y="15.79" fill="blue" font-family="Arial" font-size="7" font-style="normal" font-weight="normal" text-anchor="middle">  N </text>
<text x="125.99" y="41.62" fill="blue" font-family="Arial" font-size="7" font-style="normal" font-weight="normal" text-anchor="middle">  N </text>
<text x="130.89" y="41.62" fill="blue" font-family="Arial" font-size="7" font-style="normal" font-weight="normal" text-anchor="middle">  H </text>
<text x="100.00" y="143.75" fill="black" font-family="Arial" font-size="15" font-style="normal" font-weight="normal" text-anchor="middle">  SM09_micro011 </text>
</svg>
