<?xml version="1.0" encoding="UTF-8"?>
<!DOCTYPE svg PUBLIC "-//W3C//DTD SVG 1.1//EN"
  "http://www.w3.org/Graphics/SVG/1.1/DTD/svg11.dtd">
<svg xmlns="http://www.w3.org/2000/svg" xmlns:xlink="http://www.w3.org/1999/xlink"   viewBox="0.00 0.00 164.00 83.00">
<!-- Created by OpenEye Scientific Software -->
<!-- Creation Date Mon Nov 19 16:16:05 2018 -->
<line x1="67.85" y1="74.82" x2="63.41" y2="77.35" stroke="black" stroke-width="2" stroke-linejoin="round" stroke-linecap="round" />
<line x1="67.85" y1="74.82" x2="68.68" y2="74.35" stroke="red" stroke-width="2" stroke-linejoin="round" stroke-linecap="round" />
<line x1="72.33" y1="67.18" x2="72.32" y2="68.14" stroke="red" stroke-width="2" stroke-linejoin="round" stroke-linecap="round" />
<line x1="72.33" y1="67.18" x2="72.36" y2="62.07" stroke="black" stroke-width="2" stroke-linejoin="round" stroke-linecap="round" />
<line x1="72.36" y1="62.07" x2="81.30" y2="57.01" stroke="black" stroke-width="2" stroke-linejoin="round" stroke-linecap="round" />
<line x1="72.49" y1="58.97" x2="78.57" y2="55.53" stroke="black" stroke-width="2" stroke-linejoin="round" stroke-linecap="round" />
<line x1="72.36" y1="62.07" x2="63.47" y2="56.90" stroke="black" stroke-width="2" stroke-linejoin="round" stroke-linecap="round" />
<line x1="63.47" y1="56.90" x2="63.53" y2="46.68" stroke="black" stroke-width="2" stroke-linejoin="round" stroke-linecap="round" />
<line x1="66.12" y1="55.28" x2="66.16" y2="48.33" stroke="black" stroke-width="2" stroke-linejoin="round" stroke-linecap="round" />
<line x1="63.53" y1="46.68" x2="72.39" y2="41.57" stroke="black" stroke-width="2" stroke-linejoin="round" stroke-linecap="round" />
<line x1="72.39" y1="41.57" x2="81.27" y2="46.73" stroke="black" stroke-width="2" stroke-linejoin="round" stroke-linecap="round" />
<line x1="72.48" y1="44.67" x2="78.53" y2="48.19" stroke="black" stroke-width="2" stroke-linejoin="round" stroke-linecap="round" />
<line x1="81.27" y1="46.73" x2="81.30" y2="57.01" stroke="black" stroke-width="2" stroke-linejoin="round" stroke-linecap="round" />
<line x1="85.70" y1="44.18" x2="81.27" y2="46.73" stroke="black" stroke-width="2" stroke-linejoin="round" stroke-linecap="round" />
<line x1="85.70" y1="44.18" x2="86.09" y2="43.95" stroke="blue" stroke-width="2" stroke-linejoin="round" stroke-linecap="round" />
<line x1="90.13" y1="36.51" x2="90.13" y2="36.96" stroke="blue" stroke-width="2" stroke-linejoin="round" stroke-linecap="round" />
<line x1="90.13" y1="36.51" x2="90.13" y2="31.40" stroke="black" stroke-width="2" stroke-linejoin="round" stroke-linecap="round" />
<line x1="94.58" y1="28.83" x2="90.13" y2="31.40" stroke="black" stroke-width="2" stroke-linejoin="round" stroke-linecap="round" />
<line x1="94.58" y1="28.83" x2="95.72" y2="28.18" stroke="blue" stroke-width="2" stroke-linejoin="round" stroke-linecap="round" />
<line x1="93.27" y1="26.55" x2="90.24" y2="28.29" stroke="black" stroke-width="2" stroke-linejoin="round" stroke-linecap="round" />
<line x1="93.27" y1="26.55" x2="96.30" y2="24.81" stroke="blue" stroke-width="2" stroke-linejoin="round" stroke-linecap="round" />
<line x1="90.13" y1="31.40" x2="81.27" y2="26.29" stroke="black" stroke-width="2" stroke-linejoin="round" stroke-linecap="round" />
<line x1="81.27" y1="26.29" x2="81.25" y2="16.01" stroke="black" stroke-width="2" stroke-linejoin="round" stroke-linecap="round" />
<line x1="83.90" y1="24.65" x2="83.89" y2="17.65" stroke="black" stroke-width="2" stroke-linejoin="round" stroke-linecap="round" />
<line x1="81.27" y1="26.29" x2="72.38" y2="31.38" stroke="black" stroke-width="2" stroke-linejoin="round" stroke-linecap="round" />
<line x1="72.38" y1="31.38" x2="63.50" y2="26.29" stroke="black" stroke-width="2" stroke-linejoin="round" stroke-linecap="round" />
<line x1="72.27" y1="28.28" x2="66.24" y2="24.82" stroke="black" stroke-width="2" stroke-linejoin="round" stroke-linecap="round" />
<line x1="63.50" y1="26.29" x2="63.50" y2="16.01" stroke="black" stroke-width="2" stroke-linejoin="round" stroke-linecap="round" />
<line x1="63.50" y1="16.01" x2="72.38" y2="10.82" stroke="black" stroke-width="2" stroke-linejoin="round" stroke-linecap="round" />
<line x1="66.26" y1="17.46" x2="72.29" y2="13.92" stroke="black" stroke-width="2" stroke-linejoin="round" stroke-linecap="round" />
<line x1="72.38" y1="10.82" x2="81.25" y2="16.01" stroke="black" stroke-width="2" stroke-linejoin="round" stroke-linecap="round" />
<line x1="85.68" y1="13.42" x2="81.25" y2="16.01" stroke="black" stroke-width="2" stroke-linejoin="round" stroke-linecap="round" />
<line x1="85.68" y1="13.42" x2="86.08" y2="13.18" stroke="blue" stroke-width="2" stroke-linejoin="round" stroke-linecap="round" />
<line x1="94.56" y1="13.41" x2="94.14" y2="13.16" stroke="blue" stroke-width="2" stroke-linejoin="round" stroke-linecap="round" />
<line x1="94.56" y1="13.41" x2="99.02" y2="15.99" stroke="black" stroke-width="2" stroke-linejoin="round" stroke-linecap="round" />
<line x1="93.24" y1="15.69" x2="90.21" y2="13.94" stroke="blue" stroke-width="2" stroke-linejoin="round" stroke-linecap="round" />
<line x1="93.24" y1="15.69" x2="96.28" y2="17.44" stroke="black" stroke-width="2" stroke-linejoin="round" stroke-linecap="round" />
<line x1="99.03" y1="21.13" x2="99.02" y2="15.99" stroke="black" stroke-width="2" stroke-linejoin="round" stroke-linecap="round" />
<line x1="99.03" y1="21.13" x2="99.03" y2="22.45" stroke="blue" stroke-width="2" stroke-linejoin="round" stroke-linecap="round" />
<text x="72.29" y="73.62" fill="red" font-family="Arial" font-size="4" font-style="normal" font-weight="normal" text-anchor="middle">  O </text>
<text x="90.13" y="42.94" fill="blue" font-family="Arial" font-size="4" font-style="normal" font-weight="normal" text-anchor="middle">  N </text>
<text x="92.93" y="42.94" fill="blue" font-family="Arial" font-size="4" font-style="normal" font-weight="normal" text-anchor="middle">  H </text>
<text x="94.93" y="43.34" fill="blue" font-family="Arial" font-size="2" font-style="normal" font-weight="normal" text-anchor="middle">  2 </text>
<text x="94.93" y="41.37" fill="blue" font-family="Arial" font-size="2" font-style="normal" font-weight="normal" text-anchor="middle">  + </text>
<text x="90.10" y="12.15" fill="blue" font-family="Arial" font-size="4" font-style="normal" font-weight="normal" text-anchor="middle">  N </text>
<text x="90.10" y="8.95" fill="blue" font-family="Arial" font-size="4" font-style="normal" font-weight="normal" text-anchor="middle">  H </text>
<text x="92.10" y="10.83" fill="blue" font-family="Arial" font-size="2" font-style="normal" font-weight="normal" text-anchor="middle">  + </text>
<text x="99.04" y="27.59" fill="blue" font-family="Arial" font-size="4" font-style="normal" font-weight="normal" text-anchor="middle">  N </text>
</svg>
