<?xml version="1.0" encoding="UTF-8"?>
<!DOCTYPE svg PUBLIC "-//W3C//DTD SVG 1.1//EN"
  "http://www.w3.org/Graphics/SVG/1.1/DTD/svg11.dtd">
<svg xmlns="http://www.w3.org/2000/svg" xmlns:xlink="http://www.w3.org/1999/xlink"   viewBox="0.00 0.00 200.00 150.00">
<!-- Created by OpenEye Scientific Software -->
<!-- Creation Date Mon Nov 19 16:16:06 2018 -->
<line x1="180.21" y1="25.44" x2="190.00" y2="42.29" stroke="black" stroke-width="2" stroke-linejoin="round" stroke-linecap="round" />
<line x1="178.23" y1="30.20" x2="184.89" y2="41.65" stroke="black" stroke-width="2" stroke-linejoin="round" stroke-linecap="round" />
<line x1="180.21" y1="25.44" x2="160.82" y2="25.56" stroke="black" stroke-width="2" stroke-linejoin="round" stroke-linecap="round" />
<line x1="160.82" y1="25.56" x2="151.13" y2="42.35" stroke="black" stroke-width="2" stroke-linejoin="round" stroke-linecap="round" />
<line x1="162.82" y1="30.29" x2="156.23" y2="41.71" stroke="black" stroke-width="2" stroke-linejoin="round" stroke-linecap="round" />
<line x1="151.13" y1="42.35" x2="160.92" y2="59.19" stroke="black" stroke-width="2" stroke-linejoin="round" stroke-linecap="round" />
<line x1="160.92" y1="59.19" x2="180.41" y2="59.25" stroke="black" stroke-width="2" stroke-linejoin="round" stroke-linecap="round" />
<line x1="164.05" y1="55.10" x2="177.30" y2="55.14" stroke="black" stroke-width="2" stroke-linejoin="round" stroke-linecap="round" />
<line x1="180.41" y1="59.25" x2="190.00" y2="42.29" stroke="black" stroke-width="2" stroke-linejoin="round" stroke-linecap="round" />
<line x1="160.92" y1="59.19" x2="151.23" y2="75.98" stroke="black" stroke-width="2" stroke-linejoin="round" stroke-linecap="round" />
<line x1="154.30" y1="85.40" x2="149.46" y2="77.00" stroke="black" stroke-width="2" stroke-linejoin="round" stroke-linecap="round" />
<line x1="154.30" y1="85.40" x2="155.99" y2="88.32" stroke="red" stroke-width="2" stroke-linejoin="round" stroke-linecap="round" />
<line x1="157.86" y1="83.35" x2="153.01" y2="74.95" stroke="black" stroke-width="2" stroke-linejoin="round" stroke-linecap="round" />
<line x1="157.86" y1="83.35" x2="159.54" y2="86.27" stroke="red" stroke-width="2" stroke-linejoin="round" stroke-linecap="round" />
<line x1="141.54" y1="75.98" x2="151.23" y2="75.98" stroke="black" stroke-width="2" stroke-linejoin="round" stroke-linecap="round" />
<line x1="141.54" y1="75.98" x2="137.49" y2="75.98" stroke="blue" stroke-width="2" stroke-linejoin="round" stroke-linecap="round" />
<line x1="127.00" y1="84.37" x2="129.03" y2="80.87" stroke="blue" stroke-width="2" stroke-linejoin="round" stroke-linecap="round" />
<line x1="127.00" y1="84.37" x2="122.16" y2="92.77" stroke="black" stroke-width="2" stroke-linejoin="round" stroke-linecap="round" />
<line x1="122.16" y1="92.77" x2="102.77" y2="92.77" stroke="black" stroke-width="2" stroke-linejoin="round" stroke-linecap="round" />
<line x1="119.06" y1="88.67" x2="105.87" y2="88.67" stroke="black" stroke-width="2" stroke-linejoin="round" stroke-linecap="round" />
<line x1="97.93" y1="84.38" x2="102.77" y2="92.77" stroke="black" stroke-width="2" stroke-linejoin="round" stroke-linecap="round" />
<line x1="97.93" y1="84.38" x2="95.90" y2="80.87" stroke="blue" stroke-width="2" stroke-linejoin="round" stroke-linecap="round" />
<line x1="83.39" y1="75.98" x2="87.44" y2="75.98" stroke="blue" stroke-width="2" stroke-linejoin="round" stroke-linecap="round" />
<line x1="83.39" y1="75.98" x2="73.69" y2="75.98" stroke="black" stroke-width="2" stroke-linejoin="round" stroke-linecap="round" />
<line x1="83.39" y1="80.08" x2="89.98" y2="80.08" stroke="blue" stroke-width="2" stroke-linejoin="round" stroke-linecap="round" />
<line x1="83.39" y1="80.08" x2="76.80" y2="80.09" stroke="black" stroke-width="2" stroke-linejoin="round" stroke-linecap="round" />
<line x1="67.96" y1="68.09" x2="73.69" y2="75.98" stroke="black" stroke-width="2" stroke-linejoin="round" stroke-linecap="round" />
<line x1="67.96" y1="68.09" x2="65.53" y2="64.76" stroke="#ebc80a" stroke-width="2" stroke-linejoin="round" stroke-linecap="round" />
<line x1="67.96" y1="83.88" x2="73.69" y2="75.98" stroke="black" stroke-width="2" stroke-linejoin="round" stroke-linecap="round" />
<line x1="67.96" y1="83.88" x2="65.53" y2="87.22" stroke="blue" stroke-width="2" stroke-linejoin="round" stroke-linecap="round" />
<line x1="52.94" y1="88.76" x2="56.85" y2="90.04" stroke="blue" stroke-width="2" stroke-linejoin="round" stroke-linecap="round" />
<line x1="52.94" y1="88.76" x2="43.65" y2="85.74" stroke="black" stroke-width="2" stroke-linejoin="round" stroke-linecap="round" />
<line x1="43.65" y1="85.74" x2="43.65" y2="66.22" stroke="black" stroke-width="2" stroke-linejoin="round" stroke-linecap="round" />
<line x1="39.55" y1="82.62" x2="39.55" y2="69.35" stroke="black" stroke-width="2" stroke-linejoin="round" stroke-linecap="round" />
<line x1="43.65" y1="85.74" x2="26.83" y2="95.37" stroke="black" stroke-width="2" stroke-linejoin="round" stroke-linecap="round" />
<line x1="26.83" y1="95.37" x2="10.00" y2="85.72" stroke="black" stroke-width="2" stroke-linejoin="round" stroke-linecap="round" />
<line x1="26.17" y1="90.27" x2="14.73" y2="83.71" stroke="black" stroke-width="2" stroke-linejoin="round" stroke-linecap="round" />
<line x1="10.00" y1="85.72" x2="10.00" y2="66.22" stroke="black" stroke-width="2" stroke-linejoin="round" stroke-linecap="round" />
<line x1="10.00" y1="66.22" x2="26.83" y2="56.38" stroke="black" stroke-width="2" stroke-linejoin="round" stroke-linecap="round" />
<line x1="14.76" y1="68.19" x2="26.21" y2="61.49" stroke="black" stroke-width="2" stroke-linejoin="round" stroke-linecap="round" />
<line x1="26.83" y1="56.38" x2="43.65" y2="66.22" stroke="black" stroke-width="2" stroke-linejoin="round" stroke-linecap="round" />
<line x1="52.94" y1="63.21" x2="43.65" y2="66.22" stroke="black" stroke-width="2" stroke-linejoin="round" stroke-linecap="round" />
<line x1="52.94" y1="63.21" x2="56.85" y2="61.94" stroke="#ebc80a" stroke-width="2" stroke-linejoin="round" stroke-linecap="round" />
<line x1="97.93" y1="101.16" x2="102.77" y2="92.77" stroke="black" stroke-width="2" stroke-linejoin="round" stroke-linecap="round" />
<line x1="97.93" y1="101.16" x2="97.23" y2="102.36" stroke="red" stroke-width="2" stroke-linejoin="round" stroke-linecap="round" />
<text x="160.93" y="95.41" fill="red" font-family="Arial" font-size="8" font-style="normal" font-weight="normal" text-anchor="middle">  O </text>
<text x="131.85" y="78.62" fill="blue" font-family="Arial" font-size="8" font-style="normal" font-weight="normal" text-anchor="middle">  N </text>
<text x="131.85" y="72.22" fill="blue" font-family="Arial" font-size="8" font-style="normal" font-weight="normal" text-anchor="middle">  H </text>
<text x="93.08" y="78.62" fill="blue" font-family="Arial" font-size="8" font-style="normal" font-weight="normal" text-anchor="middle">  N </text>
<text x="62.22" y="94.42" fill="blue" font-family="Arial" font-size="8" font-style="normal" font-weight="normal" text-anchor="middle">  N </text>
<text x="62.22" y="100.82" fill="blue" font-family="Arial" font-size="8" font-style="normal" font-weight="normal" text-anchor="middle">  H </text>
<text x="62.22" y="62.83" fill="#ebc80a" font-family="Arial" font-size="8" font-style="normal" font-weight="normal" text-anchor="middle">  S </text>
<text x="93.08" y="112.20" fill="red" font-family="Arial" font-size="8" font-style="normal" font-weight="normal" text-anchor="middle">  O </text>
<text x="98.00" y="109.56" fill="red" font-family="Arial" font-size="8" font-style="normal" font-weight="normal" text-anchor="middle">  - </text>
<text x="100.00" y="143.75" fill="black" font-family="Arial" font-size="15" font-style="normal" font-weight="normal" text-anchor="middle">  SM10_micro013 </text>
</svg>
