<?xml version="1.0" encoding="UTF-8"?>
<!DOCTYPE svg PUBLIC "-//W3C//DTD SVG 1.1//EN"
  "http://www.w3.org/Graphics/SVG/1.1/DTD/svg11.dtd">
<svg xmlns="http://www.w3.org/2000/svg" xmlns:xlink="http://www.w3.org/1999/xlink"   viewBox="0.00 0.00 164.00 83.00">
<!-- Created by OpenEye Scientific Software -->
<!-- Creation Date Mon Nov 19 16:16:07 2018 -->
<line x1="147.77" y1="7.01" x2="155.80" y2="20.83" stroke="black" stroke-width="2" stroke-linejoin="round" stroke-linecap="round" />
<line x1="145.99" y1="11.00" x2="151.45" y2="20.40" stroke="black" stroke-width="2" stroke-linejoin="round" stroke-linecap="round" />
<line x1="147.77" y1="7.01" x2="131.87" y2="7.11" stroke="black" stroke-width="2" stroke-linejoin="round" stroke-linecap="round" />
<line x1="131.87" y1="7.11" x2="123.93" y2="20.87" stroke="black" stroke-width="2" stroke-linejoin="round" stroke-linecap="round" />
<line x1="133.67" y1="11.08" x2="128.27" y2="20.44" stroke="black" stroke-width="2" stroke-linejoin="round" stroke-linecap="round" />
<line x1="123.93" y1="20.87" x2="131.96" y2="34.69" stroke="black" stroke-width="2" stroke-linejoin="round" stroke-linecap="round" />
<line x1="131.96" y1="34.69" x2="147.93" y2="34.73" stroke="black" stroke-width="2" stroke-linejoin="round" stroke-linecap="round" />
<line x1="134.52" y1="31.15" x2="145.39" y2="31.18" stroke="black" stroke-width="2" stroke-linejoin="round" stroke-linecap="round" />
<line x1="147.93" y1="34.73" x2="155.80" y2="20.83" stroke="black" stroke-width="2" stroke-linejoin="round" stroke-linecap="round" />
<line x1="131.96" y1="34.69" x2="124.01" y2="48.45" stroke="black" stroke-width="2" stroke-linejoin="round" stroke-linecap="round" />
<line x1="116.06" y1="48.45" x2="124.01" y2="48.45" stroke="black" stroke-width="2" stroke-linejoin="round" stroke-linecap="round" />
<line x1="116.06" y1="48.45" x2="112.85" y2="48.45" stroke="blue" stroke-width="2" stroke-linejoin="round" stroke-linecap="round" />
<line x1="116.06" y1="52.00" x2="121.47" y2="52.00" stroke="black" stroke-width="2" stroke-linejoin="round" stroke-linecap="round" />
<line x1="116.06" y1="52.00" x2="110.66" y2="52.00" stroke="blue" stroke-width="2" stroke-linejoin="round" stroke-linecap="round" />
<line x1="104.14" y1="55.34" x2="105.75" y2="52.55" stroke="blue" stroke-width="2" stroke-linejoin="round" stroke-linecap="round" />
<line x1="104.14" y1="55.34" x2="100.17" y2="62.22" stroke="black" stroke-width="2" stroke-linejoin="round" stroke-linecap="round" />
<line x1="100.17" y1="62.22" x2="84.27" y2="62.22" stroke="black" stroke-width="2" stroke-linejoin="round" stroke-linecap="round" />
<line x1="97.63" y1="58.68" x2="86.82" y2="58.68" stroke="black" stroke-width="2" stroke-linejoin="round" stroke-linecap="round" />
<line x1="80.30" y1="55.34" x2="84.27" y2="62.22" stroke="black" stroke-width="2" stroke-linejoin="round" stroke-linecap="round" />
<line x1="80.30" y1="55.34" x2="78.69" y2="52.55" stroke="blue" stroke-width="2" stroke-linejoin="round" stroke-linecap="round" />
<line x1="68.38" y1="48.46" x2="71.59" y2="48.46" stroke="blue" stroke-width="2" stroke-linejoin="round" stroke-linecap="round" />
<line x1="68.38" y1="48.46" x2="60.43" y2="48.46" stroke="black" stroke-width="2" stroke-linejoin="round" stroke-linecap="round" />
<line x1="68.38" y1="52.00" x2="73.78" y2="52.00" stroke="blue" stroke-width="2" stroke-linejoin="round" stroke-linecap="round" />
<line x1="68.38" y1="52.00" x2="62.97" y2="52.00" stroke="black" stroke-width="2" stroke-linejoin="round" stroke-linecap="round" />
<line x1="55.72" y1="41.98" x2="60.43" y2="48.46" stroke="black" stroke-width="2" stroke-linejoin="round" stroke-linecap="round" />
<line x1="55.72" y1="41.98" x2="53.80" y2="39.33" stroke="#ebc80a" stroke-width="2" stroke-linejoin="round" stroke-linecap="round" />
<line x1="55.72" y1="54.93" x2="60.43" y2="48.46" stroke="black" stroke-width="2" stroke-linejoin="round" stroke-linecap="round" />
<line x1="55.72" y1="54.93" x2="53.80" y2="57.58" stroke="blue" stroke-width="2" stroke-linejoin="round" stroke-linecap="round" />
<line x1="43.41" y1="58.93" x2="46.52" y2="59.95" stroke="blue" stroke-width="2" stroke-linejoin="round" stroke-linecap="round" />
<line x1="43.41" y1="58.93" x2="35.79" y2="56.46" stroke="black" stroke-width="2" stroke-linejoin="round" stroke-linecap="round" />
<line x1="35.79" y1="56.46" x2="35.79" y2="40.45" stroke="black" stroke-width="2" stroke-linejoin="round" stroke-linecap="round" />
<line x1="32.25" y1="53.90" x2="32.25" y2="43.01" stroke="black" stroke-width="2" stroke-linejoin="round" stroke-linecap="round" />
<line x1="35.79" y1="56.46" x2="22.00" y2="64.35" stroke="black" stroke-width="2" stroke-linejoin="round" stroke-linecap="round" />
<line x1="22.00" y1="64.35" x2="8.20" y2="56.44" stroke="black" stroke-width="2" stroke-linejoin="round" stroke-linecap="round" />
<line x1="21.55" y1="60.01" x2="12.17" y2="54.63" stroke="black" stroke-width="2" stroke-linejoin="round" stroke-linecap="round" />
<line x1="8.20" y1="56.44" x2="8.20" y2="40.45" stroke="black" stroke-width="2" stroke-linejoin="round" stroke-linecap="round" />
<line x1="8.20" y1="40.45" x2="22.00" y2="32.38" stroke="black" stroke-width="2" stroke-linejoin="round" stroke-linecap="round" />
<line x1="12.20" y1="42.22" x2="21.58" y2="36.73" stroke="black" stroke-width="2" stroke-linejoin="round" stroke-linecap="round" />
<line x1="22.00" y1="32.38" x2="35.79" y2="40.45" stroke="black" stroke-width="2" stroke-linejoin="round" stroke-linecap="round" />
<line x1="43.41" y1="37.98" x2="35.79" y2="40.45" stroke="black" stroke-width="2" stroke-linejoin="round" stroke-linecap="round" />
<line x1="43.41" y1="37.98" x2="46.52" y2="36.97" stroke="#ebc80a" stroke-width="2" stroke-linejoin="round" stroke-linecap="round" />
<line x1="80.30" y1="69.10" x2="84.27" y2="62.22" stroke="black" stroke-width="2" stroke-linejoin="round" stroke-linecap="round" />
<line x1="80.30" y1="69.10" x2="79.69" y2="70.16" stroke="red" stroke-width="2" stroke-linejoin="round" stroke-linecap="round" />
<line x1="127.99" y1="55.34" x2="124.01" y2="48.45" stroke="black" stroke-width="2" stroke-linejoin="round" stroke-linecap="round" />
<line x1="127.99" y1="55.34" x2="128.59" y2="56.39" stroke="red" stroke-width="2" stroke-linejoin="round" stroke-linecap="round" />
<text x="108.12" y="50.43" fill="blue" font-family="Arial" font-size="6" font-style="normal" font-weight="normal" text-anchor="middle">  N </text>
<text x="76.32" y="50.44" fill="blue" font-family="Arial" font-size="6" font-style="normal" font-weight="normal" text-anchor="middle">  N </text>
<text x="51.02" y="63.39" fill="blue" font-family="Arial" font-size="6" font-style="normal" font-weight="normal" text-anchor="middle">  N </text>
<text x="51.02" y="68.19" fill="blue" font-family="Arial" font-size="6" font-style="normal" font-weight="normal" text-anchor="middle">  H </text>
<text x="51.02" y="37.49" fill="#ebc80a" font-family="Arial" font-size="6" font-style="normal" font-weight="normal" text-anchor="middle">  S </text>
<text x="76.33" y="77.97" fill="red" font-family="Arial" font-size="6" font-style="normal" font-weight="normal" text-anchor="middle">  O </text>
<text x="80.02" y="75.99" fill="red" font-family="Arial" font-size="6" font-style="normal" font-weight="normal" text-anchor="middle">  - </text>
<text x="131.96" y="64.20" fill="red" font-family="Arial" font-size="6" font-style="normal" font-weight="normal" text-anchor="middle">  O </text>
<text x="135.65" y="62.22" fill="red" font-family="Arial" font-size="6" font-style="normal" font-weight="normal" text-anchor="middle">  - </text>
</svg>
