<?xml version="1.0" encoding="UTF-8"?>
<!DOCTYPE svg PUBLIC "-//W3C//DTD SVG 1.1//EN"
  "http://www.w3.org/Graphics/SVG/1.1/DTD/svg11.dtd">
<svg xmlns="http://www.w3.org/2000/svg" xmlns:xlink="http://www.w3.org/1999/xlink"   viewBox="0.00 0.00 164.00 83.00">
<!-- Created by OpenEye Scientific Software -->
<!-- Creation Date Mon Nov 19 16:16:07 2018 -->
<line x1="147.77" y1="75.98" x2="155.80" y2="62.17" stroke="black" stroke-width="2" stroke-linejoin="round" stroke-linecap="round" />
<line x1="145.99" y1="71.99" x2="151.45" y2="62.60" stroke="black" stroke-width="2" stroke-linejoin="round" stroke-linecap="round" />
<line x1="147.77" y1="75.98" x2="131.88" y2="75.89" stroke="black" stroke-width="2" stroke-linejoin="round" stroke-linecap="round" />
<line x1="131.88" y1="75.89" x2="123.93" y2="62.12" stroke="black" stroke-width="2" stroke-linejoin="round" stroke-linecap="round" />
<line x1="133.67" y1="71.92" x2="128.27" y2="62.56" stroke="black" stroke-width="2" stroke-linejoin="round" stroke-linecap="round" />
<line x1="123.93" y1="62.12" x2="131.96" y2="48.31" stroke="black" stroke-width="2" stroke-linejoin="round" stroke-linecap="round" />
<line x1="131.96" y1="48.31" x2="147.93" y2="48.26" stroke="black" stroke-width="2" stroke-linejoin="round" stroke-linecap="round" />
<line x1="134.52" y1="51.85" x2="145.39" y2="51.81" stroke="black" stroke-width="2" stroke-linejoin="round" stroke-linecap="round" />
<line x1="147.93" y1="48.26" x2="155.80" y2="62.17" stroke="black" stroke-width="2" stroke-linejoin="round" stroke-linecap="round" />
<line x1="131.96" y1="48.31" x2="124.01" y2="34.55" stroke="black" stroke-width="2" stroke-linejoin="round" stroke-linecap="round" />
<line x1="129.52" y1="28.55" x2="125.54" y2="35.43" stroke="black" stroke-width="2" stroke-linejoin="round" stroke-linecap="round" />
<line x1="129.52" y1="28.55" x2="130.87" y2="26.20" stroke="red" stroke-width="2" stroke-linejoin="round" stroke-linecap="round" />
<line x1="126.45" y1="26.78" x2="122.47" y2="33.66" stroke="black" stroke-width="2" stroke-linejoin="round" stroke-linecap="round" />
<line x1="126.45" y1="26.78" x2="127.80" y2="24.43" stroke="red" stroke-width="2" stroke-linejoin="round" stroke-linecap="round" />
<line x1="116.06" y1="34.55" x2="124.01" y2="34.55" stroke="black" stroke-width="2" stroke-linejoin="round" stroke-linecap="round" />
<line x1="116.06" y1="34.55" x2="112.84" y2="34.55" stroke="blue" stroke-width="2" stroke-linejoin="round" stroke-linecap="round" />
<line x1="104.14" y1="27.66" x2="105.75" y2="30.45" stroke="blue" stroke-width="2" stroke-linejoin="round" stroke-linecap="round" />
<line x1="104.14" y1="27.66" x2="100.16" y2="20.78" stroke="black" stroke-width="2" stroke-linejoin="round" stroke-linecap="round" />
<line x1="100.16" y1="20.78" x2="84.27" y2="20.78" stroke="black" stroke-width="2" stroke-linejoin="round" stroke-linecap="round" />
<line x1="97.62" y1="24.32" x2="86.81" y2="24.33" stroke="black" stroke-width="2" stroke-linejoin="round" stroke-linecap="round" />
<line x1="80.30" y1="27.67" x2="84.27" y2="20.78" stroke="black" stroke-width="2" stroke-linejoin="round" stroke-linecap="round" />
<line x1="80.30" y1="27.67" x2="78.69" y2="30.45" stroke="blue" stroke-width="2" stroke-linejoin="round" stroke-linecap="round" />
<line x1="68.38" y1="34.55" x2="71.59" y2="34.55" stroke="blue" stroke-width="2" stroke-linejoin="round" stroke-linecap="round" />
<line x1="68.38" y1="34.55" x2="60.43" y2="34.55" stroke="black" stroke-width="2" stroke-linejoin="round" stroke-linecap="round" />
<line x1="55.72" y1="28.08" x2="60.43" y2="34.55" stroke="black" stroke-width="2" stroke-linejoin="round" stroke-linecap="round" />
<line x1="55.72" y1="28.08" x2="53.80" y2="25.43" stroke="#ebc80a" stroke-width="2" stroke-linejoin="round" stroke-linecap="round" />
<line x1="55.72" y1="41.02" x2="60.43" y2="34.55" stroke="black" stroke-width="2" stroke-linejoin="round" stroke-linecap="round" />
<line x1="55.72" y1="41.02" x2="54.54" y2="42.65" stroke="blue" stroke-width="2" stroke-linejoin="round" stroke-linecap="round" />
<line x1="52.86" y1="38.94" x2="56.06" y2="34.54" stroke="black" stroke-width="2" stroke-linejoin="round" stroke-linecap="round" />
<line x1="52.86" y1="38.94" x2="49.66" y2="43.35" stroke="blue" stroke-width="2" stroke-linejoin="round" stroke-linecap="round" />
<line x1="43.41" y1="45.03" x2="45.32" y2="45.65" stroke="blue" stroke-width="2" stroke-linejoin="round" stroke-linecap="round" />
<line x1="43.41" y1="45.03" x2="35.79" y2="42.55" stroke="black" stroke-width="2" stroke-linejoin="round" stroke-linecap="round" />
<line x1="35.79" y1="42.55" x2="35.79" y2="26.55" stroke="black" stroke-width="2" stroke-linejoin="round" stroke-linecap="round" />
<line x1="32.25" y1="39.99" x2="32.25" y2="29.11" stroke="black" stroke-width="2" stroke-linejoin="round" stroke-linecap="round" />
<line x1="35.79" y1="42.55" x2="22.00" y2="50.45" stroke="black" stroke-width="2" stroke-linejoin="round" stroke-linecap="round" />
<line x1="22.00" y1="50.45" x2="8.20" y2="42.53" stroke="black" stroke-width="2" stroke-linejoin="round" stroke-linecap="round" />
<line x1="21.55" y1="46.11" x2="12.17" y2="40.73" stroke="black" stroke-width="2" stroke-linejoin="round" stroke-linecap="round" />
<line x1="8.20" y1="42.53" x2="8.20" y2="26.55" stroke="black" stroke-width="2" stroke-linejoin="round" stroke-linecap="round" />
<line x1="8.20" y1="26.55" x2="22.00" y2="18.47" stroke="black" stroke-width="2" stroke-linejoin="round" stroke-linecap="round" />
<line x1="12.20" y1="28.31" x2="21.58" y2="22.82" stroke="black" stroke-width="2" stroke-linejoin="round" stroke-linecap="round" />
<line x1="22.00" y1="18.47" x2="35.79" y2="26.55" stroke="black" stroke-width="2" stroke-linejoin="round" stroke-linecap="round" />
<line x1="43.41" y1="24.07" x2="35.79" y2="26.55" stroke="black" stroke-width="2" stroke-linejoin="round" stroke-linecap="round" />
<line x1="43.41" y1="24.07" x2="46.52" y2="23.06" stroke="#ebc80a" stroke-width="2" stroke-linejoin="round" stroke-linecap="round" />
<line x1="80.30" y1="13.90" x2="84.27" y2="20.78" stroke="black" stroke-width="2" stroke-linejoin="round" stroke-linecap="round" />
<line x1="80.30" y1="13.90" x2="78.94" y2="11.55" stroke="red" stroke-width="2" stroke-linejoin="round" stroke-linecap="round" />
<text x="131.96" y="22.76" fill="red" font-family="Arial" font-size="6" font-style="normal" font-weight="normal" text-anchor="middle">  O </text>
<text x="108.11" y="36.53" fill="blue" font-family="Arial" font-size="6" font-style="normal" font-weight="normal" text-anchor="middle">  N </text>
<text x="108.11" y="41.33" fill="blue" font-family="Arial" font-size="6" font-style="normal" font-weight="normal" text-anchor="middle">  H </text>
<text x="76.32" y="36.53" fill="blue" font-family="Arial" font-size="6" font-style="normal" font-weight="normal" text-anchor="middle">  N </text>
<text x="76.32" y="41.33" fill="blue" font-family="Arial" font-size="6" font-style="normal" font-weight="normal" text-anchor="middle">  H </text>
<text x="51.02" y="49.48" fill="blue" font-family="Arial" font-size="6" font-style="normal" font-weight="normal" text-anchor="middle">  N </text>
<text x="51.02" y="54.28" fill="blue" font-family="Arial" font-size="6" font-style="normal" font-weight="normal" text-anchor="middle">  H </text>
<text x="54.32" y="47.13" fill="blue" font-family="Arial" font-size="4" font-style="normal" font-weight="normal" text-anchor="middle">  + </text>
<text x="51.02" y="23.58" fill="#ebc80a" font-family="Arial" font-size="6" font-style="normal" font-weight="normal" text-anchor="middle">  S </text>
<text x="76.32" y="9.00" fill="red" font-family="Arial" font-size="6" font-style="normal" font-weight="normal" text-anchor="middle">  O </text>
<text x="71.73" y="9.00" fill="red" font-family="Arial" font-size="6" font-style="normal" font-weight="normal" text-anchor="middle">  H </text>
</svg>
