<?xml version="1.0" encoding="UTF-8"?>
<!DOCTYPE svg PUBLIC "-//W3C//DTD SVG 1.1//EN"
  "http://www.w3.org/Graphics/SVG/1.1/DTD/svg11.dtd">
<svg xmlns="http://www.w3.org/2000/svg" xmlns:xlink="http://www.w3.org/1999/xlink"   viewBox="0.00 0.00 164.00 83.00">
<!-- Created by OpenEye Scientific Software -->
<!-- Creation Date Mon Nov 19 16:16:07 2018 -->
<line x1="100.98" y1="77.16" x2="89.03" y2="74.66" stroke="black" stroke-width="2" stroke-linejoin="round" stroke-linecap="round" />
<line x1="99.68" y1="73.88" x2="91.55" y2="72.18" stroke="black" stroke-width="2" stroke-linejoin="round" stroke-linecap="round" />
<line x1="100.98" y1="77.16" x2="109.06" y2="68.09" stroke="black" stroke-width="2" stroke-linejoin="round" stroke-linecap="round" />
<line x1="109.06" y1="68.09" x2="105.30" y2="56.54" stroke="black" stroke-width="2" stroke-linejoin="round" stroke-linecap="round" />
<line x1="105.66" y1="67.15" x2="103.11" y2="59.29" stroke="black" stroke-width="2" stroke-linejoin="round" stroke-linecap="round" />
<line x1="105.30" y1="56.54" x2="93.36" y2="54.03" stroke="black" stroke-width="2" stroke-linejoin="round" stroke-linecap="round" />
<line x1="93.36" y1="54.03" x2="85.16" y2="63.08" stroke="black" stroke-width="2" stroke-linejoin="round" stroke-linecap="round" />
<line x1="94.23" y1="57.46" x2="88.65" y2="63.61" stroke="black" stroke-width="2" stroke-linejoin="round" stroke-linecap="round" />
<line x1="85.16" y1="63.08" x2="89.03" y2="74.66" stroke="black" stroke-width="2" stroke-linejoin="round" stroke-linecap="round" />
<line x1="91.48" y1="48.26" x2="93.36" y2="54.03" stroke="black" stroke-width="2" stroke-linejoin="round" stroke-linecap="round" />
<line x1="91.48" y1="48.26" x2="90.92" y2="46.55" stroke="blue" stroke-width="2" stroke-linejoin="round" stroke-linecap="round" />
<line x1="92.12" y1="39.02" x2="93.66" y2="36.89" stroke="blue" stroke-width="2" stroke-linejoin="round" stroke-linecap="round" />
<line x1="83.79" y1="40.59" x2="85.54" y2="41.16" stroke="blue" stroke-width="2" stroke-linejoin="round" stroke-linecap="round" />
<line x1="83.79" y1="40.59" x2="77.97" y2="38.70" stroke="black" stroke-width="2" stroke-linejoin="round" stroke-linecap="round" />
<line x1="72.70" y1="41.72" x2="77.97" y2="38.70" stroke="black" stroke-width="2" stroke-linejoin="round" stroke-linecap="round" />
<line x1="72.70" y1="41.72" x2="71.14" y2="42.61" stroke="blue" stroke-width="2" stroke-linejoin="round" stroke-linecap="round" />
<line x1="71.24" y1="39.16" x2="74.82" y2="37.11" stroke="black" stroke-width="2" stroke-linejoin="round" stroke-linecap="round" />
<line x1="71.24" y1="39.16" x2="67.65" y2="41.21" stroke="blue" stroke-width="2" stroke-linejoin="round" stroke-linecap="round" />
<line x1="77.97" y1="38.70" x2="77.97" y2="26.47" stroke="black" stroke-width="2" stroke-linejoin="round" stroke-linecap="round" />
<line x1="77.97" y1="26.47" x2="89.60" y2="22.69" stroke="black" stroke-width="2" stroke-linejoin="round" stroke-linecap="round" />
<line x1="93.20" y1="27.64" x2="89.60" y2="22.69" stroke="black" stroke-width="2" stroke-linejoin="round" stroke-linecap="round" />
<line x1="93.20" y1="27.64" x2="93.66" y2="28.28" stroke="blue" stroke-width="2" stroke-linejoin="round" stroke-linecap="round" />
<line x1="90.82" y1="29.37" x2="88.37" y2="26.00" stroke="black" stroke-width="2" stroke-linejoin="round" stroke-linecap="round" />
<line x1="90.82" y1="29.37" x2="93.26" y2="32.73" stroke="blue" stroke-width="2" stroke-linejoin="round" stroke-linecap="round" />
<line x1="77.97" y1="26.47" x2="67.43" y2="20.30" stroke="black" stroke-width="2" stroke-linejoin="round" stroke-linecap="round" />
<line x1="74.80" y1="28.02" x2="67.63" y2="23.83" stroke="black" stroke-width="2" stroke-linejoin="round" stroke-linecap="round" />
<line x1="62.16" y1="23.38" x2="67.43" y2="20.30" stroke="black" stroke-width="2" stroke-linejoin="round" stroke-linecap="round" />
<line x1="62.16" y1="23.38" x2="60.58" y2="24.31" stroke="blue" stroke-width="2" stroke-linejoin="round" stroke-linecap="round" />
<line x1="56.89" y1="32.58" x2="56.89" y2="30.74" stroke="blue" stroke-width="2" stroke-linejoin="round" stroke-linecap="round" />
<line x1="56.89" y1="32.58" x2="56.89" y2="38.68" stroke="black" stroke-width="2" stroke-linejoin="round" stroke-linecap="round" />
<line x1="59.83" y1="32.58" x2="59.83" y2="28.42" stroke="blue" stroke-width="2" stroke-linejoin="round" stroke-linecap="round" />
<line x1="59.83" y1="32.58" x2="59.83" y2="36.73" stroke="black" stroke-width="2" stroke-linejoin="round" stroke-linecap="round" />
<line x1="62.16" y1="41.71" x2="56.89" y2="38.68" stroke="black" stroke-width="2" stroke-linejoin="round" stroke-linecap="round" />
<line x1="62.16" y1="41.71" x2="63.72" y2="42.60" stroke="blue" stroke-width="2" stroke-linejoin="round" stroke-linecap="round" />
<line x1="67.43" y1="14.23" x2="67.43" y2="20.30" stroke="black" stroke-width="2" stroke-linejoin="round" stroke-linecap="round" />
<line x1="67.43" y1="14.23" x2="67.43" y2="12.43" stroke="blue" stroke-width="2" stroke-linejoin="round" stroke-linecap="round" />
<text x="89.60" y="44.13" fill="blue" font-family="Arial" font-size="5" font-style="normal" font-weight="normal" text-anchor="middle">  N </text>
<text x="96.79" y="34.24" fill="blue" font-family="Arial" font-size="5" font-style="normal" font-weight="normal" text-anchor="middle">  N </text>
<text x="100.29" y="34.24" fill="blue" font-family="Arial" font-size="5" font-style="normal" font-weight="normal" text-anchor="middle">  H </text>
<text x="102.94" y="32.27" fill="blue" font-family="Arial" font-size="3" font-style="normal" font-weight="normal" text-anchor="middle">  + </text>
<text x="56.89" y="28.12" fill="blue" font-family="Arial" font-size="5" font-style="normal" font-weight="normal" text-anchor="middle">  N </text>
<text x="67.43" y="46.38" fill="blue" font-family="Arial" font-size="5" font-style="normal" font-weight="normal" text-anchor="middle">  N </text>
<text x="67.43" y="9.81" fill="blue" font-family="Arial" font-size="5" font-style="normal" font-weight="normal" text-anchor="middle">  N </text>
<text x="70.93" y="9.81" fill="blue" font-family="Arial" font-size="5" font-style="normal" font-weight="normal" text-anchor="middle">  H </text>
<text x="73.28" y="10.31" fill="blue" font-family="Arial" font-size="2" font-style="normal" font-weight="normal" text-anchor="middle">  2 </text>
</svg>
