<?xml version="1.0" encoding="UTF-8"?>
<!DOCTYPE svg PUBLIC "-//W3C//DTD SVG 1.1//EN"
  "http://www.w3.org/Graphics/SVG/1.1/DTD/svg11.dtd">
<svg xmlns="http://www.w3.org/2000/svg" xmlns:xlink="http://www.w3.org/1999/xlink"   viewBox="0.00 0.00 200.00 150.00">
<!-- Created by OpenEye Scientific Software -->
<!-- Creation Date Mon Nov 19 16:16:08 2018 -->
<line x1="67.56" y1="40.76" x2="83.10" y2="49.67" stroke="black" stroke-width="2" stroke-linejoin="round" stroke-linecap="round" />
<line x1="71.97" y1="38.83" x2="82.54" y2="44.89" stroke="black" stroke-width="2" stroke-linejoin="round" stroke-linecap="round" />
<line x1="67.56" y1="40.76" x2="67.56" y2="22.75" stroke="black" stroke-width="2" stroke-linejoin="round" stroke-linecap="round" />
<line x1="67.56" y1="22.75" x2="83.10" y2="13.66" stroke="black" stroke-width="2" stroke-linejoin="round" stroke-linecap="round" />
<line x1="72.00" y1="24.63" x2="82.56" y2="18.45" stroke="black" stroke-width="2" stroke-linejoin="round" stroke-linecap="round" />
<line x1="83.10" y1="13.66" x2="98.64" y2="22.75" stroke="black" stroke-width="2" stroke-linejoin="round" stroke-linecap="round" />
<line x1="106.39" y1="18.22" x2="98.64" y2="22.75" stroke="black" stroke-width="2" stroke-linejoin="round" stroke-linecap="round" />
<line x1="106.39" y1="18.22" x2="109.66" y2="16.30" stroke="blue" stroke-width="2" stroke-linejoin="round" stroke-linecap="round" />
<line x1="108.34" y1="21.55" x2="103.07" y2="24.64" stroke="black" stroke-width="2" stroke-linejoin="round" stroke-linecap="round" />
<line x1="108.34" y1="21.55" x2="113.61" y2="18.47" stroke="blue" stroke-width="2" stroke-linejoin="round" stroke-linecap="round" />
<line x1="98.64" y1="22.75" x2="98.66" y2="40.76" stroke="black" stroke-width="2" stroke-linejoin="round" stroke-linecap="round" />
<line x1="98.66" y1="40.76" x2="83.10" y2="49.67" stroke="black" stroke-width="2" stroke-linejoin="round" stroke-linecap="round" />
<line x1="98.66" y1="40.76" x2="114.18" y2="49.69" stroke="black" stroke-width="2" stroke-linejoin="round" stroke-linecap="round" />
<line x1="103.08" y1="38.84" x2="113.63" y2="44.92" stroke="black" stroke-width="2" stroke-linejoin="round" stroke-linecap="round" />
<line x1="121.98" y1="45.21" x2="114.18" y2="49.69" stroke="black" stroke-width="2" stroke-linejoin="round" stroke-linecap="round" />
<line x1="121.98" y1="45.21" x2="125.29" y2="43.31" stroke="blue" stroke-width="2" stroke-linejoin="round" stroke-linecap="round" />
<line x1="129.77" y1="31.72" x2="129.77" y2="35.53" stroke="blue" stroke-width="2" stroke-linejoin="round" stroke-linecap="round" />
<line x1="129.77" y1="31.72" x2="129.76" y2="22.71" stroke="black" stroke-width="2" stroke-linejoin="round" stroke-linecap="round" />
<line x1="125.90" y1="31.72" x2="125.91" y2="37.84" stroke="blue" stroke-width="2" stroke-linejoin="round" stroke-linecap="round" />
<line x1="125.90" y1="31.72" x2="125.90" y2="25.60" stroke="black" stroke-width="2" stroke-linejoin="round" stroke-linecap="round" />
<line x1="121.95" y1="18.20" x2="129.76" y2="22.71" stroke="black" stroke-width="2" stroke-linejoin="round" stroke-linecap="round" />
<line x1="121.95" y1="18.20" x2="118.63" y2="16.28" stroke="blue" stroke-width="2" stroke-linejoin="round" stroke-linecap="round" />
<line x1="114.18" y1="58.65" x2="114.18" y2="49.69" stroke="black" stroke-width="2" stroke-linejoin="round" stroke-linecap="round" />
<line x1="114.18" y1="58.65" x2="114.18" y2="60.95" stroke="blue" stroke-width="2" stroke-linejoin="round" stroke-linecap="round" />
<line x1="106.43" y1="72.08" x2="108.42" y2="70.93" stroke="blue" stroke-width="2" stroke-linejoin="round" stroke-linecap="round" />
<line x1="106.43" y1="72.08" x2="98.67" y2="76.55" stroke="black" stroke-width="2" stroke-linejoin="round" stroke-linecap="round" />
<line x1="98.67" y1="76.55" x2="98.73" y2="94.55" stroke="black" stroke-width="2" stroke-linejoin="round" stroke-linecap="round" />
<line x1="94.82" y1="79.45" x2="94.85" y2="91.68" stroke="black" stroke-width="2" stroke-linejoin="round" stroke-linecap="round" />
<line x1="98.67" y1="76.55" x2="83.11" y2="67.51" stroke="black" stroke-width="2" stroke-linejoin="round" stroke-linecap="round" />
<line x1="83.11" y1="67.51" x2="67.60" y2="76.46" stroke="black" stroke-width="2" stroke-linejoin="round" stroke-linecap="round" />
<line x1="82.56" y1="72.29" x2="72.02" y2="78.37" stroke="black" stroke-width="2" stroke-linejoin="round" stroke-linecap="round" />
<line x1="67.60" y1="76.46" x2="67.50" y2="94.37" stroke="black" stroke-width="2" stroke-linejoin="round" stroke-linecap="round" />
<line x1="67.50" y1="94.37" x2="83.06" y2="103.41" stroke="black" stroke-width="2" stroke-linejoin="round" stroke-linecap="round" />
<line x1="71.93" y1="92.47" x2="82.51" y2="98.62" stroke="black" stroke-width="2" stroke-linejoin="round" stroke-linecap="round" />
<line x1="83.06" y1="103.41" x2="98.73" y2="94.55" stroke="black" stroke-width="2" stroke-linejoin="round" stroke-linecap="round" />
<line x1="83.00" y1="112.37" x2="83.06" y2="103.41" stroke="black" stroke-width="2" stroke-linejoin="round" stroke-linecap="round" />
<line x1="83.00" y1="112.37" x2="82.99" y2="114.95" stroke="#82d700" stroke-width="2" stroke-linejoin="round" stroke-linecap="round" />
<text x="129.78" y="43.03" fill="blue" font-family="Arial" font-size="7" font-style="normal" font-weight="normal" text-anchor="middle">  N </text>
<text x="114.14" y="15.99" fill="blue" font-family="Arial" font-size="7" font-style="normal" font-weight="normal" text-anchor="middle">  N </text>
<text x="114.18" y="69.91" fill="blue" font-family="Arial" font-size="7" font-style="normal" font-weight="normal" text-anchor="middle">  N </text>
<text x="117.83" y="67.60" fill="blue" font-family="Arial" font-size="6" font-style="normal" font-weight="normal" text-anchor="middle">  - </text>
<text x="82.95" y="123.63" fill="#82d700" font-family="Arial" font-size="7" font-style="normal" font-weight="normal" text-anchor="middle">  Cl </text>
<text x="100.00" y="143.75" fill="black" font-family="Arial" font-size="15" font-style="normal" font-weight="normal" text-anchor="middle">  SM12_micro009 </text>
</svg>
