<?xml version="1.0" encoding="UTF-8"?>
<!DOCTYPE svg PUBLIC "-//W3C//DTD SVG 1.1//EN"
  "http://www.w3.org/Graphics/SVG/1.1/DTD/svg11.dtd">
<svg xmlns="http://www.w3.org/2000/svg" xmlns:xlink="http://www.w3.org/1999/xlink"   viewBox="0.00 0.00 164.00 83.00">
<!-- Created by OpenEye Scientific Software -->
<!-- Creation Date Mon Nov 19 16:16:08 2018 -->
<line x1="130.53" y1="54.04" x2="119.73" y2="60.20" stroke="black" stroke-width="2" stroke-linejoin="round" stroke-linecap="round" />
<line x1="119.73" y1="60.20" x2="108.96" y2="53.85" stroke="black" stroke-width="2" stroke-linejoin="round" stroke-linecap="round" />
<line x1="116.48" y1="61.76" x2="109.16" y2="57.44" stroke="black" stroke-width="2" stroke-linejoin="round" stroke-linecap="round" />
<line x1="119.73" y1="60.20" x2="119.69" y2="72.70" stroke="black" stroke-width="2" stroke-linejoin="round" stroke-linecap="round" />
<line x1="119.69" y1="72.70" x2="108.88" y2="78.85" stroke="black" stroke-width="2" stroke-linejoin="round" stroke-linecap="round" />
<line x1="116.48" y1="71.08" x2="109.13" y2="75.27" stroke="black" stroke-width="2" stroke-linejoin="round" stroke-linecap="round" />
<line x1="108.88" y1="78.85" x2="98.11" y2="72.63" stroke="black" stroke-width="2" stroke-linejoin="round" stroke-linecap="round" />
<line x1="98.11" y1="72.63" x2="98.15" y2="60.13" stroke="black" stroke-width="2" stroke-linejoin="round" stroke-linecap="round" />
<line x1="101.11" y1="70.64" x2="101.13" y2="62.14" stroke="black" stroke-width="2" stroke-linejoin="round" stroke-linecap="round" />
<line x1="98.15" y1="60.13" x2="108.96" y2="53.85" stroke="black" stroke-width="2" stroke-linejoin="round" stroke-linecap="round" />
<line x1="92.77" y1="57.02" x2="98.15" y2="60.13" stroke="black" stroke-width="2" stroke-linejoin="round" stroke-linecap="round" />
<line x1="92.77" y1="57.02" x2="91.99" y2="56.58" stroke="blue" stroke-width="2" stroke-linejoin="round" stroke-linecap="round" />
<line x1="87.38" y1="47.70" x2="87.38" y2="48.59" stroke="blue" stroke-width="2" stroke-linejoin="round" stroke-linecap="round" />
<line x1="87.38" y1="47.70" x2="87.38" y2="41.48" stroke="black" stroke-width="2" stroke-linejoin="round" stroke-linecap="round" />
<line x1="90.37" y1="47.70" x2="90.37" y2="51.92" stroke="blue" stroke-width="2" stroke-linejoin="round" stroke-linecap="round" />
<line x1="90.37" y1="47.70" x2="90.37" y2="43.47" stroke="black" stroke-width="2" stroke-linejoin="round" stroke-linecap="round" />
<line x1="92.80" y1="38.36" x2="87.38" y2="41.48" stroke="black" stroke-width="2" stroke-linejoin="round" stroke-linecap="round" />
<line x1="92.80" y1="38.36" x2="94.51" y2="37.38" stroke="blue" stroke-width="2" stroke-linejoin="round" stroke-linecap="round" />
<line x1="87.38" y1="41.48" x2="76.61" y2="35.27" stroke="black" stroke-width="2" stroke-linejoin="round" stroke-linecap="round" />
<line x1="76.61" y1="35.27" x2="76.59" y2="22.77" stroke="black" stroke-width="2" stroke-linejoin="round" stroke-linecap="round" />
<line x1="79.59" y1="33.27" x2="79.58" y2="24.77" stroke="black" stroke-width="2" stroke-linejoin="round" stroke-linecap="round" />
<line x1="76.61" y1="35.27" x2="65.80" y2="41.46" stroke="black" stroke-width="2" stroke-linejoin="round" stroke-linecap="round" />
<line x1="65.80" y1="41.46" x2="55.01" y2="35.27" stroke="black" stroke-width="2" stroke-linejoin="round" stroke-linecap="round" />
<line x1="65.56" y1="37.88" x2="58.22" y2="33.67" stroke="black" stroke-width="2" stroke-linejoin="round" stroke-linecap="round" />
<line x1="55.01" y1="35.27" x2="55.01" y2="22.77" stroke="black" stroke-width="2" stroke-linejoin="round" stroke-linecap="round" />
<line x1="55.01" y1="22.77" x2="65.80" y2="16.45" stroke="black" stroke-width="2" stroke-linejoin="round" stroke-linecap="round" />
<line x1="58.24" y1="24.34" x2="65.58" y2="20.05" stroke="black" stroke-width="2" stroke-linejoin="round" stroke-linecap="round" />
<line x1="65.80" y1="16.45" x2="76.59" y2="22.77" stroke="black" stroke-width="2" stroke-linejoin="round" stroke-linecap="round" />
<line x1="81.97" y1="19.62" x2="76.59" y2="22.77" stroke="black" stroke-width="2" stroke-linejoin="round" stroke-linecap="round" />
<line x1="81.97" y1="19.62" x2="83.66" y2="18.63" stroke="blue" stroke-width="2" stroke-linejoin="round" stroke-linecap="round" />
<line x1="92.78" y1="19.61" x2="91.05" y2="18.61" stroke="blue" stroke-width="2" stroke-linejoin="round" stroke-linecap="round" />
<line x1="92.78" y1="19.61" x2="98.20" y2="22.74" stroke="black" stroke-width="2" stroke-linejoin="round" stroke-linecap="round" />
<line x1="98.21" y1="28.99" x2="98.20" y2="22.74" stroke="black" stroke-width="2" stroke-linejoin="round" stroke-linecap="round" />
<line x1="98.21" y1="28.99" x2="98.21" y2="30.97" stroke="blue" stroke-width="2" stroke-linejoin="round" stroke-linecap="round" />
<line x1="95.22" y1="29.00" x2="95.21" y2="24.75" stroke="black" stroke-width="2" stroke-linejoin="round" stroke-linecap="round" />
<line x1="95.22" y1="29.00" x2="95.22" y2="33.25" stroke="blue" stroke-width="2" stroke-linejoin="round" stroke-linecap="round" />
<line x1="49.61" y1="19.68" x2="55.01" y2="22.77" stroke="black" stroke-width="2" stroke-linejoin="round" stroke-linecap="round" />
<line x1="49.61" y1="19.68" x2="48.29" y2="18.92" stroke="red" stroke-width="2" stroke-linejoin="round" stroke-linecap="round" />
<line x1="44.20" y1="10.37" x2="44.21" y2="11.89" stroke="red" stroke-width="2" stroke-linejoin="round" stroke-linecap="round" />
<line x1="44.20" y1="10.37" x2="44.18" y2="4.15" stroke="black" stroke-width="2" stroke-linejoin="round" stroke-linecap="round" />
<line x1="49.63" y1="38.39" x2="55.01" y2="35.27" stroke="black" stroke-width="2" stroke-linejoin="round" stroke-linecap="round" />
<line x1="49.63" y1="38.39" x2="48.31" y2="39.15" stroke="red" stroke-width="2" stroke-linejoin="round" stroke-linecap="round" />
<line x1="38.86" y1="38.41" x2="40.17" y2="39.17" stroke="red" stroke-width="2" stroke-linejoin="round" stroke-linecap="round" />
<line x1="38.86" y1="38.41" x2="33.47" y2="35.31" stroke="black" stroke-width="2" stroke-linejoin="round" stroke-linecap="round" />
<text x="87.38" y="55.56" fill="blue" font-family="Arial" font-size="5" font-style="normal" font-weight="normal" text-anchor="middle">  N </text>
<text x="83.88" y="55.56" fill="blue" font-family="Arial" font-size="5" font-style="normal" font-weight="normal" text-anchor="middle">  H </text>
<text x="90.03" y="53.60" fill="blue" font-family="Arial" font-size="3" font-style="normal" font-weight="normal" text-anchor="middle">  + </text>
<text x="87.35" y="18.12" fill="blue" font-family="Arial" font-size="5" font-style="normal" font-weight="normal" text-anchor="middle">  N </text>
<text x="87.35" y="14.12" fill="blue" font-family="Arial" font-size="5" font-style="normal" font-weight="normal" text-anchor="middle">  H </text>
<text x="98.21" y="36.90" fill="blue" font-family="Arial" font-size="5" font-style="normal" font-weight="normal" text-anchor="middle">  N </text>
<text x="44.22" y="18.23" fill="red" font-family="Arial" font-size="5" font-style="normal" font-weight="normal" text-anchor="middle">  O </text>
<text x="44.25" y="43.16" fill="red" font-family="Arial" font-size="5" font-style="normal" font-weight="normal" text-anchor="middle">  O </text>
</svg>
