<?xml version="1.0" encoding="UTF-8"?>
<!DOCTYPE svg PUBLIC "-//W3C//DTD SVG 1.1//EN"
  "http://www.w3.org/Graphics/SVG/1.1/DTD/svg11.dtd">
<svg xmlns="http://www.w3.org/2000/svg" xmlns:xlink="http://www.w3.org/1999/xlink"   viewBox="0.00 0.00 164.00 83.00">
<!-- Created by OpenEye Scientific Software -->
<!-- Creation Date Mon Nov 19 16:16:09 2018 -->
<line x1="54.95" y1="71.03" x2="65.60" y2="77.14" stroke="black" stroke-width="2" stroke-linejoin="round" stroke-linecap="round" />
<line x1="58.13" y1="69.44" x2="65.37" y2="73.59" stroke="black" stroke-width="2" stroke-linejoin="round" stroke-linecap="round" />
<line x1="54.95" y1="71.03" x2="54.95" y2="58.68" stroke="black" stroke-width="2" stroke-linejoin="round" stroke-linecap="round" />
<line x1="54.95" y1="58.68" x2="65.60" y2="52.45" stroke="black" stroke-width="2" stroke-linejoin="round" stroke-linecap="round" />
<line x1="58.15" y1="60.25" x2="65.39" y2="56.01" stroke="black" stroke-width="2" stroke-linejoin="round" stroke-linecap="round" />
<line x1="65.60" y1="52.45" x2="76.25" y2="58.68" stroke="black" stroke-width="2" stroke-linejoin="round" stroke-linecap="round" />
<line x1="82.13" y1="56.78" x2="76.25" y2="58.68" stroke="black" stroke-width="2" stroke-linejoin="round" stroke-linecap="round" />
<line x1="82.13" y1="56.78" x2="83.94" y2="56.19" stroke="blue" stroke-width="2" stroke-linejoin="round" stroke-linecap="round" />
<line x1="76.25" y1="58.68" x2="76.25" y2="71.04" stroke="black" stroke-width="2" stroke-linejoin="round" stroke-linecap="round" />
<line x1="79.22" y1="60.66" x2="79.22" y2="69.07" stroke="black" stroke-width="2" stroke-linejoin="round" stroke-linecap="round" />
<line x1="76.25" y1="71.04" x2="65.60" y2="77.14" stroke="black" stroke-width="2" stroke-linejoin="round" stroke-linecap="round" />
<line x1="82.13" y1="72.95" x2="76.25" y2="71.04" stroke="black" stroke-width="2" stroke-linejoin="round" stroke-linecap="round" />
<line x1="82.13" y1="72.95" x2="83.94" y2="73.54" stroke="blue" stroke-width="2" stroke-linejoin="round" stroke-linecap="round" />
<line x1="91.64" y1="69.87" x2="90.52" y2="71.41" stroke="blue" stroke-width="2" stroke-linejoin="round" stroke-linecap="round" />
<line x1="91.64" y1="69.87" x2="95.27" y2="64.87" stroke="black" stroke-width="2" stroke-linejoin="round" stroke-linecap="round" />
<line x1="89.24" y1="68.12" x2="86.77" y2="71.52" stroke="blue" stroke-width="2" stroke-linejoin="round" stroke-linecap="round" />
<line x1="89.24" y1="68.12" x2="91.71" y2="64.72" stroke="black" stroke-width="2" stroke-linejoin="round" stroke-linecap="round" />
<line x1="91.64" y1="59.87" x2="95.27" y2="64.87" stroke="black" stroke-width="2" stroke-linejoin="round" stroke-linecap="round" />
<line x1="91.64" y1="59.87" x2="90.52" y2="58.33" stroke="blue" stroke-width="2" stroke-linejoin="round" stroke-linecap="round" />
<line x1="89.90" y1="49.03" x2="89.33" y2="50.80" stroke="blue" stroke-width="2" stroke-linejoin="round" stroke-linecap="round" />
<line x1="89.90" y1="49.03" x2="91.80" y2="43.20" stroke="black" stroke-width="2" stroke-linejoin="round" stroke-linecap="round" />
<line x1="91.80" y1="43.20" x2="83.56" y2="34.01" stroke="black" stroke-width="2" stroke-linejoin="round" stroke-linecap="round" />
<line x1="92.69" y1="39.75" x2="87.08" y2="33.50" stroke="black" stroke-width="2" stroke-linejoin="round" stroke-linecap="round" />
<line x1="91.80" y1="43.20" x2="103.80" y2="40.63" stroke="black" stroke-width="2" stroke-linejoin="round" stroke-linecap="round" />
<line x1="103.80" y1="40.63" x2="107.65" y2="28.97" stroke="black" stroke-width="2" stroke-linejoin="round" stroke-linecap="round" />
<line x1="101.60" y1="37.83" x2="104.22" y2="29.91" stroke="black" stroke-width="2" stroke-linejoin="round" stroke-linecap="round" />
<line x1="107.65" y1="28.97" x2="99.40" y2="19.79" stroke="black" stroke-width="2" stroke-linejoin="round" stroke-linecap="round" />
<line x1="99.40" y1="19.79" x2="87.32" y2="22.27" stroke="black" stroke-width="2" stroke-linejoin="round" stroke-linecap="round" />
<line x1="98.07" y1="23.09" x2="89.85" y2="24.77" stroke="black" stroke-width="2" stroke-linejoin="round" stroke-linecap="round" />
<line x1="87.32" y1="22.27" x2="83.56" y2="34.01" stroke="black" stroke-width="2" stroke-linejoin="round" stroke-linecap="round" />
<line x1="101.33" y1="13.96" x2="99.40" y2="19.79" stroke="black" stroke-width="2" stroke-linejoin="round" stroke-linecap="round" />
<line x1="101.33" y1="13.96" x2="101.78" y2="12.60" stroke="red" stroke-width="2" stroke-linejoin="round" stroke-linecap="round" />
<text x="88.01" y="76.52" fill="blue" font-family="Arial" font-size="5" font-style="normal" font-weight="normal" text-anchor="middle">  N </text>
<text x="88.01" y="56.52" fill="blue" font-family="Arial" font-size="5" font-style="normal" font-weight="normal" text-anchor="middle">  N </text>
<text x="103.25" y="9.78" fill="red" font-family="Arial" font-size="5" font-style="normal" font-weight="normal" text-anchor="middle">  O </text>
<text x="107.07" y="9.78" fill="red" font-family="Arial" font-size="5" font-style="normal" font-weight="normal" text-anchor="middle">  H </text>
</svg>
