<?xml version="1.0" encoding="UTF-8"?>
<!DOCTYPE svg PUBLIC "-//W3C//DTD SVG 1.1//EN"
  "http://www.w3.org/Graphics/SVG/1.1/DTD/svg11.dtd">
<svg xmlns="http://www.w3.org/2000/svg" xmlns:xlink="http://www.w3.org/1999/xlink"   viewBox="0.00 0.00 164.00 83.00">
<!-- Created by OpenEye Scientific Software -->
<!-- Creation Date Mon Nov 19 16:16:10 2018 -->
<line x1="68.92" y1="76.51" x2="65.75" y2="69.48" stroke="black" stroke-width="2" stroke-linejoin="round" stroke-linecap="round" />
<line x1="70.44" y1="74.47" x2="68.28" y2="69.69" stroke="black" stroke-width="2" stroke-linejoin="round" stroke-linecap="round" />
<line x1="68.92" y1="76.51" x2="76.56" y2="77.26" stroke="black" stroke-width="2" stroke-linejoin="round" stroke-linecap="round" />
<line x1="76.56" y1="77.26" x2="81.06" y2="71.04" stroke="black" stroke-width="2" stroke-linejoin="round" stroke-linecap="round" />
<line x1="75.47" y1="74.95" x2="78.53" y2="70.73" stroke="black" stroke-width="2" stroke-linejoin="round" stroke-linecap="round" />
<line x1="81.06" y1="71.04" x2="77.88" y2="64.01" stroke="black" stroke-width="2" stroke-linejoin="round" stroke-linecap="round" />
<line x1="77.88" y1="64.01" x2="70.21" y2="63.19" stroke="black" stroke-width="2" stroke-linejoin="round" stroke-linecap="round" />
<line x1="76.42" y1="66.09" x2="71.20" y2="65.54" stroke="black" stroke-width="2" stroke-linejoin="round" stroke-linecap="round" />
<line x1="70.21" y1="63.19" x2="65.75" y2="69.48" stroke="black" stroke-width="2" stroke-linejoin="round" stroke-linecap="round" />
<line x1="77.88" y1="64.01" x2="82.38" y2="57.79" stroke="black" stroke-width="2" stroke-linejoin="round" stroke-linecap="round" />
<line x1="80.82" y1="54.29" x2="82.38" y2="57.79" stroke="black" stroke-width="2" stroke-linejoin="round" stroke-linecap="round" />
<line x1="80.82" y1="54.29" x2="80.62" y2="53.85" stroke="#ebc80a" stroke-width="2" stroke-linejoin="round" stroke-linecap="round" />
<line x1="81.50" y1="47.67" x2="81.22" y2="48.06" stroke="#ebc80a" stroke-width="2" stroke-linejoin="round" stroke-linecap="round" />
<line x1="81.50" y1="47.67" x2="83.75" y2="44.57" stroke="black" stroke-width="2" stroke-linejoin="round" stroke-linecap="round" />
<line x1="82.55" y1="40.92" x2="83.75" y2="44.57" stroke="black" stroke-width="2" stroke-linejoin="round" stroke-linecap="round" />
<line x1="82.55" y1="40.92" x2="82.48" y2="40.71" stroke="red" stroke-width="2" stroke-linejoin="round" stroke-linecap="round" />
<line x1="87.59" y1="44.57" x2="83.75" y2="44.57" stroke="black" stroke-width="2" stroke-linejoin="round" stroke-linecap="round" />
<line x1="87.59" y1="44.57" x2="88.06" y2="44.57" stroke="blue" stroke-width="2" stroke-linejoin="round" stroke-linecap="round" />
<line x1="87.59" y1="42.34" x2="84.98" y2="42.34" stroke="black" stroke-width="2" stroke-linejoin="round" stroke-linecap="round" />
<line x1="87.59" y1="42.34" x2="90.20" y2="42.35" stroke="blue" stroke-width="2" stroke-linejoin="round" stroke-linecap="round" />
<line x1="92.46" y1="41.37" x2="92.56" y2="41.06" stroke="blue" stroke-width="2" stroke-linejoin="round" stroke-linecap="round" />
<line x1="90.68" y1="35.00" x2="90.56" y2="34.91" stroke="blue" stroke-width="2" stroke-linejoin="round" stroke-linecap="round" />
<line x1="90.68" y1="35.00" x2="87.57" y2="32.74" stroke="black" stroke-width="2" stroke-linejoin="round" stroke-linecap="round" />
<line x1="89.37" y1="36.80" x2="91.48" y2="38.34" stroke="blue" stroke-width="2" stroke-linejoin="round" stroke-linecap="round" />
<line x1="89.37" y1="36.80" x2="87.26" y2="35.26" stroke="black" stroke-width="2" stroke-linejoin="round" stroke-linecap="round" />
<line x1="84.46" y1="35.01" x2="87.57" y2="32.74" stroke="black" stroke-width="2" stroke-linejoin="round" stroke-linecap="round" />
<line x1="84.46" y1="35.01" x2="84.27" y2="35.15" stroke="red" stroke-width="2" stroke-linejoin="round" stroke-linecap="round" />
<line x1="87.57" y1="32.74" x2="87.57" y2="25.06" stroke="black" stroke-width="2" stroke-linejoin="round" stroke-linecap="round" />
<line x1="87.57" y1="25.06" x2="94.23" y2="21.24" stroke="black" stroke-width="2" stroke-linejoin="round" stroke-linecap="round" />
<line x1="87.53" y1="22.52" x2="92.06" y2="19.92" stroke="black" stroke-width="2" stroke-linejoin="round" stroke-linecap="round" />
<line x1="87.57" y1="25.06" x2="80.92" y2="21.24" stroke="black" stroke-width="2" stroke-linejoin="round" stroke-linecap="round" />
<line x1="80.92" y1="21.24" x2="80.92" y2="13.53" stroke="black" stroke-width="2" stroke-linejoin="round" stroke-linecap="round" />
<line x1="83.14" y1="20.01" x2="83.14" y2="14.76" stroke="black" stroke-width="2" stroke-linejoin="round" stroke-linecap="round" />
<line x1="84.25" y1="11.58" x2="80.92" y2="13.53" stroke="black" stroke-width="2" stroke-linejoin="round" stroke-linecap="round" />
<line x1="84.25" y1="11.58" x2="84.13" y2="11.65" stroke="blue" stroke-width="2" stroke-linejoin="round" stroke-linecap="round" />
<line x1="90.90" y1="11.58" x2="91.02" y2="11.65" stroke="blue" stroke-width="2" stroke-linejoin="round" stroke-linecap="round" />
<line x1="90.90" y1="11.58" x2="94.23" y2="13.53" stroke="black" stroke-width="2" stroke-linejoin="round" stroke-linecap="round" />
<line x1="89.78" y1="13.50" x2="87.51" y2="12.18" stroke="blue" stroke-width="2" stroke-linejoin="round" stroke-linecap="round" />
<line x1="89.78" y1="13.50" x2="92.04" y2="14.83" stroke="black" stroke-width="2" stroke-linejoin="round" stroke-linecap="round" />
<line x1="94.23" y1="13.53" x2="94.23" y2="21.24" stroke="black" stroke-width="2" stroke-linejoin="round" stroke-linecap="round" />
<text x="79.25" y="51.77" fill="#ebc80a" font-family="Arial" font-size="3" font-style="normal" font-weight="normal" text-anchor="middle">  S </text>
<text x="91.42" y="45.57" fill="blue" font-family="Arial" font-size="3" font-style="normal" font-weight="normal" text-anchor="middle">  N </text>
<text x="93.79" y="38.25" fill="blue" font-family="Arial" font-size="3" font-style="normal" font-weight="normal" text-anchor="middle">  N </text>
<text x="95.89" y="38.25" fill="blue" font-family="Arial" font-size="3" font-style="normal" font-weight="normal" text-anchor="middle">  H </text>
<text x="97.54" y="37.07" fill="blue" font-family="Arial" font-size="2" font-style="normal" font-weight="normal" text-anchor="middle">  + </text>
<text x="81.34" y="38.27" fill="red" font-family="Arial" font-size="3" font-style="normal" font-weight="normal" text-anchor="middle">  O </text>
<text x="87.57" y="10.62" fill="blue" font-family="Arial" font-size="3" font-style="normal" font-weight="normal" text-anchor="middle">  N </text>
<text x="87.57" y="8.22" fill="blue" font-family="Arial" font-size="3" font-style="normal" font-weight="normal" text-anchor="middle">  H </text>
<text x="89.22" y="9.63" fill="blue" font-family="Arial" font-size="2" font-style="normal" font-weight="normal" text-anchor="middle">  + </text>
</svg>
