<?xml version="1.0" encoding="UTF-8"?>
<!DOCTYPE svg PUBLIC "-//W3C//DTD SVG 1.1//EN"
  "http://www.w3.org/Graphics/SVG/1.1/DTD/svg11.dtd">
<svg xmlns="http://www.w3.org/2000/svg" xmlns:xlink="http://www.w3.org/1999/xlink"   viewBox="0.00 0.00 200.00 150.00">
<!-- Created by OpenEye Scientific Software -->
<!-- Creation Date Mon Nov 19 16:16:10 2018 -->
<line x1="81.04" y1="123.49" x2="75.78" y2="111.83" stroke="black" stroke-width="2" stroke-linejoin="round" stroke-linecap="round" />
<line x1="82.96" y1="120.37" x2="79.39" y2="112.44" stroke="black" stroke-width="2" stroke-linejoin="round" stroke-linecap="round" />
<line x1="81.04" y1="123.49" x2="93.70" y2="124.72" stroke="black" stroke-width="2" stroke-linejoin="round" stroke-linecap="round" />
<line x1="93.70" y1="124.72" x2="101.16" y2="114.41" stroke="black" stroke-width="2" stroke-linejoin="round" stroke-linecap="round" />
<line x1="92.44" y1="121.29" x2="97.51" y2="114.28" stroke="black" stroke-width="2" stroke-linejoin="round" stroke-linecap="round" />
<line x1="101.16" y1="114.41" x2="95.91" y2="102.75" stroke="black" stroke-width="2" stroke-linejoin="round" stroke-linecap="round" />
<line x1="95.91" y1="102.75" x2="83.19" y2="101.40" stroke="black" stroke-width="2" stroke-linejoin="round" stroke-linecap="round" />
<line x1="93.55" y1="105.55" x2="84.90" y2="104.63" stroke="black" stroke-width="2" stroke-linejoin="round" stroke-linecap="round" />
<line x1="83.19" y1="101.40" x2="75.78" y2="111.83" stroke="black" stroke-width="2" stroke-linejoin="round" stroke-linecap="round" />
<line x1="95.91" y1="102.75" x2="103.37" y2="92.44" stroke="black" stroke-width="2" stroke-linejoin="round" stroke-linecap="round" />
<line x1="100.77" y1="86.63" x2="103.37" y2="92.44" stroke="black" stroke-width="2" stroke-linejoin="round" stroke-linecap="round" />
<line x1="100.77" y1="86.63" x2="99.92" y2="84.73" stroke="#ebc80a" stroke-width="2" stroke-linejoin="round" stroke-linecap="round" />
<line x1="101.90" y1="75.67" x2="100.68" y2="77.36" stroke="#ebc80a" stroke-width="2" stroke-linejoin="round" stroke-linecap="round" />
<line x1="101.90" y1="75.67" x2="105.63" y2="70.52" stroke="black" stroke-width="2" stroke-linejoin="round" stroke-linecap="round" />
<line x1="103.63" y1="64.47" x2="105.63" y2="70.52" stroke="black" stroke-width="2" stroke-linejoin="round" stroke-linecap="round" />
<line x1="103.63" y1="64.47" x2="103.11" y2="62.89" stroke="red" stroke-width="2" stroke-linejoin="round" stroke-linecap="round" />
<line x1="111.99" y1="70.52" x2="105.63" y2="70.52" stroke="black" stroke-width="2" stroke-linejoin="round" stroke-linecap="round" />
<line x1="111.99" y1="70.52" x2="114.08" y2="70.53" stroke="blue" stroke-width="2" stroke-linejoin="round" stroke-linecap="round" />
<line x1="112.00" y1="67.49" x2="107.67" y2="67.48" stroke="black" stroke-width="2" stroke-linejoin="round" stroke-linecap="round" />
<line x1="112.00" y1="67.49" x2="116.32" y2="67.49" stroke="blue" stroke-width="2" stroke-linejoin="round" stroke-linecap="round" />
<line x1="119.67" y1="66.46" x2="120.96" y2="62.47" stroke="blue" stroke-width="2" stroke-linejoin="round" stroke-linecap="round" />
<line x1="117.12" y1="54.65" x2="118.82" y2="55.89" stroke="blue" stroke-width="2" stroke-linejoin="round" stroke-linecap="round" />
<line x1="117.12" y1="54.65" x2="111.97" y2="50.90" stroke="black" stroke-width="2" stroke-linejoin="round" stroke-linecap="round" />
<line x1="115.34" y1="57.11" x2="118.84" y2="59.66" stroke="blue" stroke-width="2" stroke-linejoin="round" stroke-linecap="round" />
<line x1="115.34" y1="57.11" x2="111.83" y2="54.56" stroke="black" stroke-width="2" stroke-linejoin="round" stroke-linecap="round" />
<line x1="106.81" y1="54.67" x2="111.97" y2="50.90" stroke="black" stroke-width="2" stroke-linejoin="round" stroke-linecap="round" />
<line x1="106.81" y1="54.67" x2="105.44" y2="55.66" stroke="red" stroke-width="2" stroke-linejoin="round" stroke-linecap="round" />
<line x1="111.97" y1="50.90" x2="111.97" y2="38.18" stroke="black" stroke-width="2" stroke-linejoin="round" stroke-linecap="round" />
<line x1="111.97" y1="38.18" x2="123.01" y2="31.85" stroke="black" stroke-width="2" stroke-linejoin="round" stroke-linecap="round" />
<line x1="112.23" y1="34.53" x2="119.74" y2="30.23" stroke="black" stroke-width="2" stroke-linejoin="round" stroke-linecap="round" />
<line x1="111.97" y1="38.18" x2="100.93" y2="31.85" stroke="black" stroke-width="2" stroke-linejoin="round" stroke-linecap="round" />
<line x1="100.93" y1="31.85" x2="100.93" y2="19.06" stroke="black" stroke-width="2" stroke-linejoin="round" stroke-linecap="round" />
<line x1="103.97" y1="29.80" x2="103.97" y2="21.10" stroke="black" stroke-width="2" stroke-linejoin="round" stroke-linecap="round" />
<line x1="106.45" y1="15.83" x2="100.93" y2="19.06" stroke="black" stroke-width="2" stroke-linejoin="round" stroke-linecap="round" />
<line x1="106.45" y1="15.83" x2="108.28" y2="14.76" stroke="blue" stroke-width="2" stroke-linejoin="round" stroke-linecap="round" />
<line x1="117.49" y1="15.83" x2="115.66" y2="14.76" stroke="blue" stroke-width="2" stroke-linejoin="round" stroke-linecap="round" />
<line x1="117.49" y1="15.83" x2="123.01" y2="19.06" stroke="black" stroke-width="2" stroke-linejoin="round" stroke-linecap="round" />
<line x1="115.96" y1="18.45" x2="112.21" y2="16.25" stroke="blue" stroke-width="2" stroke-linejoin="round" stroke-linecap="round" />
<line x1="115.96" y1="18.45" x2="119.71" y2="20.64" stroke="black" stroke-width="2" stroke-linejoin="round" stroke-linecap="round" />
<line x1="123.01" y1="19.06" x2="123.01" y2="31.85" stroke="black" stroke-width="2" stroke-linejoin="round" stroke-linecap="round" />
<text x="98.17" y="82.47" fill="#ebc80a" font-family="Arial" font-size="5" font-style="normal" font-weight="normal" text-anchor="middle">  S </text>
<text x="118.36" y="72.18" fill="blue" font-family="Arial" font-size="5" font-style="normal" font-weight="normal" text-anchor="middle">  N </text>
<text x="122.28" y="60.06" fill="blue" font-family="Arial" font-size="5" font-style="normal" font-weight="normal" text-anchor="middle">  N </text>
<text x="101.64" y="60.08" fill="red" font-family="Arial" font-size="5" font-style="normal" font-weight="normal" text-anchor="middle">  O </text>
<text x="111.97" y="14.25" fill="blue" font-family="Arial" font-size="5" font-style="normal" font-weight="normal" text-anchor="middle">  N </text>
<text x="100.00" y="143.75" fill="black" font-family="Arial" font-size="15" font-style="normal" font-weight="normal" text-anchor="middle">  SM17_micro010 </text>
</svg>
