<?xml version="1.0" encoding="UTF-8"?>
<!DOCTYPE svg PUBLIC "-//W3C//DTD SVG 1.1//EN"
  "http://www.w3.org/Graphics/SVG/1.1/DTD/svg11.dtd">
<svg xmlns="http://www.w3.org/2000/svg" xmlns:xlink="http://www.w3.org/1999/xlink"   viewBox="0.00 0.00 164.00 83.00">
<!-- Created by OpenEye Scientific Software -->
<!-- Creation Date Mon Nov 19 16:16:12 2018 -->
<line x1="11.63" y1="9.17" x2="22.15" y2="15.20" stroke="black" stroke-width="2" stroke-linejoin="round" stroke-linecap="round" />
<line x1="27.39" y1="12.16" x2="22.15" y2="15.20" stroke="black" stroke-width="2" stroke-linejoin="round" stroke-linecap="round" />
<line x1="27.39" y1="12.16" x2="28.57" y2="11.47" stroke="red" stroke-width="2" stroke-linejoin="round" stroke-linecap="round" />
<line x1="37.89" y1="12.12" x2="36.71" y2="11.44" stroke="red" stroke-width="2" stroke-linejoin="round" stroke-linecap="round" />
<line x1="37.89" y1="12.12" x2="43.15" y2="15.14" stroke="black" stroke-width="2" stroke-linejoin="round" stroke-linecap="round" />
<line x1="43.15" y1="15.14" x2="53.68" y2="8.98" stroke="black" stroke-width="2" stroke-linejoin="round" stroke-linecap="round" />
<line x1="46.32" y1="16.69" x2="53.48" y2="12.50" stroke="black" stroke-width="2" stroke-linejoin="round" stroke-linecap="round" />
<line x1="43.15" y1="15.14" x2="43.15" y2="27.34" stroke="black" stroke-width="2" stroke-linejoin="round" stroke-linecap="round" />
<line x1="43.15" y1="27.34" x2="53.68" y2="33.38" stroke="black" stroke-width="2" stroke-linejoin="round" stroke-linecap="round" />
<line x1="46.30" y1="25.75" x2="53.46" y2="29.86" stroke="black" stroke-width="2" stroke-linejoin="round" stroke-linecap="round" />
<line x1="53.68" y1="33.38" x2="64.21" y2="27.35" stroke="black" stroke-width="2" stroke-linejoin="round" stroke-linecap="round" />
<line x1="70.02" y1="29.24" x2="64.21" y2="27.35" stroke="black" stroke-width="2" stroke-linejoin="round" stroke-linecap="round" />
<line x1="70.02" y1="29.24" x2="71.76" y2="29.81" stroke="blue" stroke-width="2" stroke-linejoin="round" stroke-linecap="round" />
<line x1="64.21" y1="27.35" x2="64.21" y2="15.14" stroke="black" stroke-width="2" stroke-linejoin="round" stroke-linecap="round" />
<line x1="61.27" y1="25.40" x2="61.27" y2="17.09" stroke="black" stroke-width="2" stroke-linejoin="round" stroke-linecap="round" />
<line x1="64.21" y1="15.14" x2="53.68" y2="8.98" stroke="black" stroke-width="2" stroke-linejoin="round" stroke-linecap="round" />
<line x1="70.02" y1="13.25" x2="64.21" y2="15.14" stroke="black" stroke-width="2" stroke-linejoin="round" stroke-linecap="round" />
<line x1="70.02" y1="13.25" x2="71.76" y2="12.69" stroke="#ebc80a" stroke-width="2" stroke-linejoin="round" stroke-linecap="round" />
<line x1="79.41" y1="16.31" x2="78.34" y2="14.83" stroke="#ebc80a" stroke-width="2" stroke-linejoin="round" stroke-linecap="round" />
<line x1="79.41" y1="16.31" x2="83.00" y2="21.25" stroke="black" stroke-width="2" stroke-linejoin="round" stroke-linecap="round" />
<line x1="79.41" y1="26.19" x2="83.00" y2="21.25" stroke="black" stroke-width="2" stroke-linejoin="round" stroke-linecap="round" />
<line x1="79.41" y1="26.19" x2="78.34" y2="27.67" stroke="blue" stroke-width="2" stroke-linejoin="round" stroke-linecap="round" />
<line x1="77.03" y1="24.46" x2="79.48" y2="21.10" stroke="black" stroke-width="2" stroke-linejoin="round" stroke-linecap="round" />
<line x1="77.03" y1="24.46" x2="74.59" y2="27.82" stroke="blue" stroke-width="2" stroke-linejoin="round" stroke-linecap="round" />
<line x1="89.07" y1="21.25" x2="83.00" y2="21.25" stroke="black" stroke-width="2" stroke-linejoin="round" stroke-linecap="round" />
<line x1="89.07" y1="21.25" x2="90.85" y2="21.25" stroke="blue" stroke-width="2" stroke-linejoin="round" stroke-linecap="round" />
<line x1="98.16" y1="26.50" x2="97.27" y2="24.95" stroke="blue" stroke-width="2" stroke-linejoin="round" stroke-linecap="round" />
<line x1="98.16" y1="26.50" x2="101.19" y2="31.75" stroke="black" stroke-width="2" stroke-linejoin="round" stroke-linecap="round" />
<line x1="96.89" y1="36.27" x2="99.92" y2="31.01" stroke="black" stroke-width="2" stroke-linejoin="round" stroke-linecap="round" />
<line x1="96.89" y1="36.27" x2="96.21" y2="37.45" stroke="red" stroke-width="2" stroke-linejoin="round" stroke-linecap="round" />
<line x1="99.44" y1="37.74" x2="102.47" y2="32.48" stroke="black" stroke-width="2" stroke-linejoin="round" stroke-linecap="round" />
<line x1="99.44" y1="37.74" x2="98.75" y2="38.92" stroke="red" stroke-width="2" stroke-linejoin="round" stroke-linecap="round" />
<line x1="101.19" y1="31.75" x2="113.32" y2="31.75" stroke="black" stroke-width="2" stroke-linejoin="round" stroke-linecap="round" />
<line x1="113.32" y1="31.75" x2="119.39" y2="42.25" stroke="black" stroke-width="2" stroke-linejoin="round" stroke-linecap="round" />
<line x1="119.39" y1="42.25" x2="131.58" y2="42.21" stroke="black" stroke-width="2" stroke-linejoin="round" stroke-linecap="round" />
<line x1="121.35" y1="45.18" x2="129.63" y2="45.16" stroke="black" stroke-width="2" stroke-linejoin="round" stroke-linecap="round" />
<line x1="119.39" y1="42.25" x2="113.26" y2="52.79" stroke="black" stroke-width="2" stroke-linejoin="round" stroke-linecap="round" />
<line x1="113.26" y1="52.79" x2="119.32" y2="63.29" stroke="black" stroke-width="2" stroke-linejoin="round" stroke-linecap="round" />
<line x1="116.78" y1="53.00" x2="120.90" y2="60.14" stroke="black" stroke-width="2" stroke-linejoin="round" stroke-linecap="round" />
<line x1="119.32" y1="63.29" x2="131.45" y2="63.36" stroke="black" stroke-width="2" stroke-linejoin="round" stroke-linecap="round" />
<line x1="131.45" y1="63.36" x2="137.58" y2="52.82" stroke="black" stroke-width="2" stroke-linejoin="round" stroke-linecap="round" />
<line x1="129.89" y1="60.20" x2="134.06" y2="53.03" stroke="black" stroke-width="2" stroke-linejoin="round" stroke-linecap="round" />
<line x1="137.58" y1="52.82" x2="131.58" y2="42.21" stroke="black" stroke-width="2" stroke-linejoin="round" stroke-linecap="round" />
<line x1="143.64" y1="52.86" x2="137.58" y2="52.82" stroke="black" stroke-width="2" stroke-linejoin="round" stroke-linecap="round" />
<line x1="143.64" y1="52.86" x2="144.59" y2="52.86" stroke="#82d700" stroke-width="2" stroke-linejoin="round" stroke-linecap="round" />
<line x1="134.46" y1="68.63" x2="131.45" y2="63.36" stroke="black" stroke-width="2" stroke-linejoin="round" stroke-linecap="round" />
<line x1="134.46" y1="68.63" x2="134.93" y2="69.45" stroke="#82d700" stroke-width="2" stroke-linejoin="round" stroke-linecap="round" />
<text x="32.63" y="10.76" fill="red" font-family="Arial" font-size="5" font-style="normal" font-weight="normal" text-anchor="middle">  O </text>
<text x="75.82" y="13.02" fill="#ebc80a" font-family="Arial" font-size="5" font-style="normal" font-weight="normal" text-anchor="middle">  S </text>
<text x="75.82" y="32.78" fill="blue" font-family="Arial" font-size="5" font-style="normal" font-weight="normal" text-anchor="middle">  N </text>
<text x="95.13" y="22.90" fill="blue" font-family="Arial" font-size="5" font-style="normal" font-weight="normal" text-anchor="middle">  N </text>
<text x="95.13" y="18.90" fill="blue" font-family="Arial" font-size="5" font-style="normal" font-weight="normal" text-anchor="middle">  H </text>
<text x="95.13" y="43.90" fill="red" font-family="Arial" font-size="5" font-style="normal" font-weight="normal" text-anchor="middle">  O </text>
<text x="149.71" y="54.54" fill="#82d700" font-family="Arial" font-size="5" font-style="normal" font-weight="normal" text-anchor="middle">  Cl </text>
<text x="137.47" y="75.54" fill="#82d700" font-family="Arial" font-size="5" font-style="normal" font-weight="normal" text-anchor="middle">  Cl </text>
</svg>
