<?xml version="1.0" encoding="UTF-8"?>
<!DOCTYPE svg PUBLIC "-//W3C//DTD SVG 1.1//EN"
  "http://www.w3.org/Graphics/SVG/1.1/DTD/svg11.dtd">
<svg xmlns="http://www.w3.org/2000/svg" xmlns:xlink="http://www.w3.org/1999/xlink"   viewBox="0.00 0.00 200.00 150.00">
<!-- Created by OpenEye Scientific Software -->
<!-- Creation Date Mon Nov 19 16:16:13 2018 -->
<line x1="110.41" y1="98.81" x2="96.04" y2="94.24" stroke="black" stroke-width="2" stroke-linejoin="round" stroke-linecap="round" />
<line x1="109.15" y1="94.82" x2="99.37" y2="91.72" stroke="black" stroke-width="2" stroke-linejoin="round" stroke-linecap="round" />
<line x1="110.41" y1="98.81" x2="121.62" y2="88.71" stroke="black" stroke-width="2" stroke-linejoin="round" stroke-linecap="round" />
<line x1="121.62" y1="88.71" x2="118.41" y2="73.89" stroke="black" stroke-width="2" stroke-linejoin="round" stroke-linecap="round" />
<line x1="117.77" y1="87.06" x2="115.59" y2="76.99" stroke="black" stroke-width="2" stroke-linejoin="round" stroke-linecap="round" />
<line x1="118.41" y1="73.89" x2="104.01" y2="69.17" stroke="black" stroke-width="2" stroke-linejoin="round" stroke-linecap="round" />
<line x1="104.01" y1="69.17" x2="92.84" y2="79.42" stroke="black" stroke-width="2" stroke-linejoin="round" stroke-linecap="round" />
<line x1="104.53" y1="73.33" x2="96.93" y2="80.30" stroke="black" stroke-width="2" stroke-linejoin="round" stroke-linecap="round" />
<line x1="92.84" y1="79.42" x2="96.04" y2="94.24" stroke="black" stroke-width="2" stroke-linejoin="round" stroke-linecap="round" />
<line x1="85.65" y1="77.14" x2="92.84" y2="79.42" stroke="black" stroke-width="2" stroke-linejoin="round" stroke-linecap="round" />
<line x1="85.65" y1="77.14" x2="83.46" y2="76.44" stroke="red" stroke-width="2" stroke-linejoin="round" stroke-linecap="round" />
<line x1="76.85" y1="67.49" x2="77.34" y2="69.74" stroke="red" stroke-width="2" stroke-linejoin="round" stroke-linecap="round" />
<line x1="76.85" y1="67.49" x2="75.24" y2="60.12" stroke="black" stroke-width="2" stroke-linejoin="round" stroke-linecap="round" />
<line x1="75.24" y1="60.12" x2="60.86" y2="55.55" stroke="black" stroke-width="2" stroke-linejoin="round" stroke-linecap="round" />
<line x1="60.86" y1="55.55" x2="49.65" y2="65.75" stroke="black" stroke-width="2" stroke-linejoin="round" stroke-linecap="round" />
<line x1="56.77" y1="54.66" x2="49.15" y2="61.59" stroke="black" stroke-width="2" stroke-linejoin="round" stroke-linecap="round" />
<line x1="60.86" y1="55.55" x2="57.61" y2="40.82" stroke="black" stroke-width="2" stroke-linejoin="round" stroke-linecap="round" />
<line x1="57.61" y1="40.82" x2="43.26" y2="36.19" stroke="black" stroke-width="2" stroke-linejoin="round" stroke-linecap="round" />
<line x1="54.27" y1="43.33" x2="44.51" y2="40.18" stroke="black" stroke-width="2" stroke-linejoin="round" stroke-linecap="round" />
<line x1="43.26" y1="36.19" x2="32.05" y2="46.39" stroke="black" stroke-width="2" stroke-linejoin="round" stroke-linecap="round" />
<line x1="32.05" y1="46.39" x2="35.18" y2="61.22" stroke="black" stroke-width="2" stroke-linejoin="round" stroke-linecap="round" />
<line x1="35.89" y1="48.06" x2="38.02" y2="58.14" stroke="black" stroke-width="2" stroke-linejoin="round" stroke-linecap="round" />
<line x1="35.18" y1="61.22" x2="49.65" y2="65.75" stroke="black" stroke-width="2" stroke-linejoin="round" stroke-linecap="round" />
<line x1="51.27" y1="73.11" x2="49.65" y2="65.75" stroke="black" stroke-width="2" stroke-linejoin="round" stroke-linecap="round" />
<line x1="51.27" y1="73.11" x2="51.66" y2="74.87" stroke="#82d700" stroke-width="2" stroke-linejoin="round" stroke-linecap="round" />
<line x1="24.87" y1="44.07" x2="32.05" y2="46.39" stroke="black" stroke-width="2" stroke-linejoin="round" stroke-linecap="round" />
<line x1="24.87" y1="44.07" x2="23.16" y2="43.52" stroke="#82d700" stroke-width="2" stroke-linejoin="round" stroke-linecap="round" />
<line x1="118.41" y1="73.89" x2="129.62" y2="63.80" stroke="black" stroke-width="2" stroke-linejoin="round" stroke-linecap="round" />
<line x1="129.62" y1="63.80" x2="143.96" y2="68.45" stroke="black" stroke-width="2" stroke-linejoin="round" stroke-linecap="round" />
<line x1="130.86" y1="67.79" x2="140.61" y2="70.95" stroke="black" stroke-width="2" stroke-linejoin="round" stroke-linecap="round" />
<line x1="150.05" y1="64.00" x2="143.96" y2="68.45" stroke="black" stroke-width="2" stroke-linejoin="round" stroke-linecap="round" />
<line x1="150.05" y1="64.00" x2="152.32" y2="62.33" stroke="#ebc80a" stroke-width="2" stroke-linejoin="round" stroke-linecap="round" />
<line x1="143.96" y1="68.45" x2="148.58" y2="82.81" stroke="black" stroke-width="2" stroke-linejoin="round" stroke-linecap="round" />
<line x1="156.14" y1="82.81" x2="148.58" y2="82.81" stroke="black" stroke-width="2" stroke-linejoin="round" stroke-linecap="round" />
<line x1="156.14" y1="82.81" x2="158.96" y2="82.81" stroke="blue" stroke-width="2" stroke-linejoin="round" stroke-linecap="round" />
<line x1="156.14" y1="79.39" x2="151.00" y2="79.39" stroke="black" stroke-width="2" stroke-linejoin="round" stroke-linecap="round" />
<line x1="156.14" y1="79.39" x2="161.27" y2="79.39" stroke="blue" stroke-width="2" stroke-linejoin="round" stroke-linecap="round" />
<line x1="166.04" y1="75.63" x2="165.16" y2="78.31" stroke="blue" stroke-width="2" stroke-linejoin="round" stroke-linecap="round" />
<line x1="166.04" y1="75.63" x2="168.39" y2="68.45" stroke="black" stroke-width="2" stroke-linejoin="round" stroke-linecap="round" />
<line x1="176.09" y1="67.76" x2="168.91" y2="70.08" stroke="black" stroke-width="2" stroke-linejoin="round" stroke-linecap="round" />
<line x1="176.09" y1="67.76" x2="178.28" y2="67.05" stroke="red" stroke-width="2" stroke-linejoin="round" stroke-linecap="round" />
<line x1="175.04" y1="64.51" x2="167.86" y2="66.83" stroke="black" stroke-width="2" stroke-linejoin="round" stroke-linecap="round" />
<line x1="175.04" y1="64.51" x2="177.23" y2="63.80" stroke="red" stroke-width="2" stroke-linejoin="round" stroke-linecap="round" />
<line x1="162.26" y1="64.00" x2="168.39" y2="68.45" stroke="black" stroke-width="2" stroke-linejoin="round" stroke-linecap="round" />
<line x1="162.26" y1="64.00" x2="159.96" y2="62.32" stroke="#ebc80a" stroke-width="2" stroke-linejoin="round" stroke-linecap="round" />
<line x1="144.14" y1="88.90" x2="148.58" y2="82.81" stroke="black" stroke-width="2" stroke-linejoin="round" stroke-linecap="round" />
<line x1="144.14" y1="88.90" x2="142.79" y2="90.76" stroke="red" stroke-width="2" stroke-linejoin="round" stroke-linecap="round" />
<text x="78.47" y="76.83" fill="red" font-family="Arial" font-size="6" font-style="normal" font-weight="normal" text-anchor="middle">  O </text>
<text x="52.90" y="82.46" fill="#82d700" font-family="Arial" font-size="6" font-style="normal" font-weight="normal" text-anchor="middle">  Cl </text>
<text x="17.69" y="43.74" fill="#82d700" font-family="Arial" font-size="6" font-style="normal" font-weight="normal" text-anchor="middle">  Cl </text>
<text x="163.69" y="84.79" fill="blue" font-family="Arial" font-size="6" font-style="normal" font-weight="normal" text-anchor="middle">  N </text>
<text x="182.74" y="65.79" fill="red" font-family="Arial" font-size="6" font-style="normal" font-weight="normal" text-anchor="middle">  O </text>
<text x="156.14" y="61.52" fill="#ebc80a" font-family="Arial" font-size="6" font-style="normal" font-weight="normal" text-anchor="middle">  S </text>
<text x="139.70" y="96.98" fill="red" font-family="Arial" font-size="6" font-style="normal" font-weight="normal" text-anchor="middle">  O </text>
<text x="135.11" y="96.98" fill="red" font-family="Arial" font-size="6" font-style="normal" font-weight="normal" text-anchor="middle">  H </text>
<text x="100.00" y="143.75" fill="black" font-family="Arial" font-size="15" font-style="normal" font-weight="normal" text-anchor="middle">  SM20_micro005 </text>
</svg>
