<?xml version="1.0" encoding="UTF-8"?>
<!DOCTYPE svg PUBLIC "-//W3C//DTD SVG 1.1//EN"
  "http://www.w3.org/Graphics/SVG/1.1/DTD/svg11.dtd">
<svg xmlns="http://www.w3.org/2000/svg" xmlns:xlink="http://www.w3.org/1999/xlink"   viewBox="0.00 0.00 164.00 83.00">
<!-- Created by OpenEye Scientific Software -->
<!-- Creation Date Mon Nov 19 16:16:13 2018 -->
<line x1="99.76" y1="32.74" x2="108.98" y2="27.53" stroke="black" stroke-width="2" stroke-linejoin="round" stroke-linecap="round" />
<line x1="99.91" y1="29.56" x2="106.17" y2="26.02" stroke="black" stroke-width="2" stroke-linejoin="round" stroke-linecap="round" />
<line x1="99.76" y1="32.74" x2="90.60" y2="27.42" stroke="black" stroke-width="2" stroke-linejoin="round" stroke-linecap="round" />
<line x1="90.60" y1="27.42" x2="90.67" y2="16.77" stroke="black" stroke-width="2" stroke-linejoin="round" stroke-linecap="round" />
<line x1="93.31" y1="25.73" x2="93.35" y2="18.49" stroke="black" stroke-width="2" stroke-linejoin="round" stroke-linecap="round" />
<line x1="90.67" y1="16.77" x2="99.88" y2="11.45" stroke="black" stroke-width="2" stroke-linejoin="round" stroke-linecap="round" />
<line x1="99.88" y1="11.45" x2="109.04" y2="16.88" stroke="black" stroke-width="2" stroke-linejoin="round" stroke-linecap="round" />
<line x1="99.97" y1="14.64" x2="106.20" y2="18.33" stroke="black" stroke-width="2" stroke-linejoin="round" stroke-linecap="round" />
<line x1="109.04" y1="16.88" x2="108.98" y2="27.53" stroke="black" stroke-width="2" stroke-linejoin="round" stroke-linecap="round" />
<line x1="113.65" y1="14.27" x2="109.04" y2="16.88" stroke="black" stroke-width="2" stroke-linejoin="round" stroke-linecap="round" />
<line x1="113.65" y1="14.27" x2="114.12" y2="14.01" stroke="#a00" stroke-width="2" stroke-linejoin="round" stroke-linecap="round" />
<line x1="86.09" y1="14.11" x2="90.67" y2="16.77" stroke="black" stroke-width="2" stroke-linejoin="round" stroke-linecap="round" />
<line x1="86.09" y1="14.11" x2="84.81" y2="13.37" stroke="blue" stroke-width="2" stroke-linejoin="round" stroke-linecap="round" />
<line x1="76.92" y1="14.09" x2="78.20" y2="13.35" stroke="blue" stroke-width="2" stroke-linejoin="round" stroke-linecap="round" />
<line x1="76.92" y1="14.09" x2="72.32" y2="16.72" stroke="black" stroke-width="2" stroke-linejoin="round" stroke-linecap="round" />
<line x1="72.32" y1="22.04" x2="72.32" y2="16.72" stroke="black" stroke-width="2" stroke-linejoin="round" stroke-linecap="round" />
<line x1="72.32" y1="22.04" x2="72.32" y2="23.54" stroke="blue" stroke-width="2" stroke-linejoin="round" stroke-linecap="round" />
<line x1="69.63" y1="22.04" x2="69.63" y2="18.42" stroke="black" stroke-width="2" stroke-linejoin="round" stroke-linecap="round" />
<line x1="69.63" y1="22.04" x2="69.63" y2="25.66" stroke="blue" stroke-width="2" stroke-linejoin="round" stroke-linecap="round" />
<line x1="67.73" y1="14.03" x2="72.32" y2="16.72" stroke="black" stroke-width="2" stroke-linejoin="round" stroke-linecap="round" />
<line x1="67.73" y1="14.03" x2="66.43" y2="13.27" stroke="blue" stroke-width="2" stroke-linejoin="round" stroke-linecap="round" />
<line x1="58.54" y1="14.03" x2="59.84" y2="13.27" stroke="blue" stroke-width="2" stroke-linejoin="round" stroke-linecap="round" />
<line x1="58.54" y1="14.03" x2="53.95" y2="16.72" stroke="black" stroke-width="2" stroke-linejoin="round" stroke-linecap="round" />
<line x1="53.95" y1="16.72" x2="53.95" y2="27.36" stroke="black" stroke-width="2" stroke-linejoin="round" stroke-linecap="round" />
<line x1="56.65" y1="18.42" x2="56.65" y2="25.66" stroke="black" stroke-width="2" stroke-linejoin="round" stroke-linecap="round" />
<line x1="53.95" y1="27.36" x2="63.14" y2="32.63" stroke="black" stroke-width="2" stroke-linejoin="round" stroke-linecap="round" />
<line x1="63.14" y1="37.93" x2="63.14" y2="32.63" stroke="black" stroke-width="2" stroke-linejoin="round" stroke-linecap="round" />
<line x1="63.14" y1="37.93" x2="63.14" y2="38.56" stroke="blue" stroke-width="2" stroke-linejoin="round" stroke-linecap="round" />
<line x1="65.83" y1="37.93" x2="65.83" y2="34.33" stroke="black" stroke-width="2" stroke-linejoin="round" stroke-linecap="round" />
<line x1="65.83" y1="37.93" x2="65.83" y2="41.53" stroke="blue" stroke-width="2" stroke-linejoin="round" stroke-linecap="round" />
<line x1="67.72" y1="45.87" x2="67.17" y2="45.55" stroke="blue" stroke-width="2" stroke-linejoin="round" stroke-linecap="round" />
<line x1="67.72" y1="45.87" x2="72.31" y2="48.52" stroke="black" stroke-width="2" stroke-linejoin="round" stroke-linecap="round" />
<line x1="72.31" y1="48.52" x2="72.28" y2="59.16" stroke="black" stroke-width="2" stroke-linejoin="round" stroke-linecap="round" />
<line x1="75.00" y1="50.23" x2="74.98" y2="57.47" stroke="black" stroke-width="2" stroke-linejoin="round" stroke-linecap="round" />
<line x1="72.31" y1="48.52" x2="81.51" y2="43.17" stroke="black" stroke-width="2" stroke-linejoin="round" stroke-linecap="round" />
<line x1="81.51" y1="43.17" x2="90.68" y2="48.46" stroke="black" stroke-width="2" stroke-linejoin="round" stroke-linecap="round" />
<line x1="81.63" y1="46.35" x2="87.87" y2="49.95" stroke="black" stroke-width="2" stroke-linejoin="round" stroke-linecap="round" />
<line x1="90.68" y1="48.46" x2="90.75" y2="59.05" stroke="black" stroke-width="2" stroke-linejoin="round" stroke-linecap="round" />
<line x1="90.75" y1="59.05" x2="81.54" y2="64.40" stroke="black" stroke-width="2" stroke-linejoin="round" stroke-linecap="round" />
<line x1="87.92" y1="57.58" x2="81.66" y2="61.22" stroke="black" stroke-width="2" stroke-linejoin="round" stroke-linecap="round" />
<line x1="81.54" y1="64.40" x2="72.28" y2="59.16" stroke="black" stroke-width="2" stroke-linejoin="round" stroke-linecap="round" />
<line x1="81.57" y1="69.70" x2="81.54" y2="64.40" stroke="black" stroke-width="2" stroke-linejoin="round" stroke-linecap="round" />
<line x1="81.57" y1="69.70" x2="81.58" y2="70.23" stroke="#a00" stroke-width="2" stroke-linejoin="round" stroke-linecap="round" />
<line x1="67.73" y1="30.00" x2="63.14" y2="32.63" stroke="black" stroke-width="2" stroke-linejoin="round" stroke-linecap="round" />
<line x1="67.73" y1="30.00" x2="69.01" y2="29.26" stroke="blue" stroke-width="2" stroke-linejoin="round" stroke-linecap="round" />
<line x1="49.37" y1="30.02" x2="53.95" y2="27.36" stroke="black" stroke-width="2" stroke-linejoin="round" stroke-linecap="round" />
<line x1="49.37" y1="30.02" x2="47.94" y2="30.85" stroke="#00cd00" stroke-width="2" stroke-linejoin="round" stroke-linecap="round" />
<text x="118.26" y="12.99" fill="#a00" font-family="Arial" font-size="4" font-style="normal" font-weight="normal" text-anchor="middle">  Br </text>
<text x="81.51" y="12.77" fill="blue" font-family="Arial" font-size="4" font-style="normal" font-weight="normal" text-anchor="middle">  N </text>
<text x="81.51" y="9.57" fill="blue" font-family="Arial" font-size="4" font-style="normal" font-weight="normal" text-anchor="middle">  H </text>
<text x="63.14" y="12.66" fill="blue" font-family="Arial" font-size="4" font-style="normal" font-weight="normal" text-anchor="middle">  N </text>
<text x="63.14" y="9.46" fill="blue" font-family="Arial" font-size="4" font-style="normal" font-weight="normal" text-anchor="middle">  H </text>
<text x="63.14" y="44.54" fill="blue" font-family="Arial" font-size="4" font-style="normal" font-weight="normal" text-anchor="middle">  N </text>
<text x="60.34" y="44.54" fill="blue" font-family="Arial" font-size="4" font-style="normal" font-weight="normal" text-anchor="middle">  H </text>
<text x="65.14" y="42.97" fill="blue" font-family="Arial" font-size="2" font-style="normal" font-weight="normal" text-anchor="middle">  + </text>
<text x="81.60" y="76.31" fill="#a00" font-family="Arial" font-size="4" font-style="normal" font-weight="normal" text-anchor="middle">  Br </text>
<text x="72.32" y="28.68" fill="blue" font-family="Arial" font-size="4" font-style="normal" font-weight="normal" text-anchor="middle">  N </text>
<text x="44.79" y="33.99" fill="#00cd00" font-family="Arial" font-size="4" font-style="normal" font-weight="normal" text-anchor="middle">  F </text>
</svg>
