<?xml version="1.0" encoding="UTF-8"?>
<!DOCTYPE svg PUBLIC "-//W3C//DTD SVG 1.1//EN"
  "http://www.w3.org/Graphics/SVG/1.1/DTD/svg11.dtd">
<svg xmlns="http://www.w3.org/2000/svg" xmlns:xlink="http://www.w3.org/1999/xlink"   viewBox="0.00 0.00 200.00 150.00">
<!-- Created by OpenEye Scientific Software -->
<!-- Creation Date Mon Nov 19 16:16:13 2018 -->
<line x1="134.74" y1="53.55" x2="149.58" y2="45.15" stroke="black" stroke-width="2" stroke-linejoin="round" stroke-linecap="round" />
<line x1="135.28" y1="48.96" x2="145.37" y2="43.25" stroke="black" stroke-width="2" stroke-linejoin="round" stroke-linecap="round" />
<line x1="134.74" y1="53.55" x2="120.01" y2="44.98" stroke="black" stroke-width="2" stroke-linejoin="round" stroke-linecap="round" />
<line x1="120.01" y1="44.98" x2="120.11" y2="27.85" stroke="black" stroke-width="2" stroke-linejoin="round" stroke-linecap="round" />
<line x1="123.75" y1="42.26" x2="123.82" y2="30.61" stroke="black" stroke-width="2" stroke-linejoin="round" stroke-linecap="round" />
<line x1="120.11" y1="27.85" x2="134.94" y2="19.28" stroke="black" stroke-width="2" stroke-linejoin="round" stroke-linecap="round" />
<line x1="134.94" y1="19.28" x2="149.68" y2="28.02" stroke="black" stroke-width="2" stroke-linejoin="round" stroke-linecap="round" />
<line x1="135.40" y1="23.89" x2="145.42" y2="29.83" stroke="black" stroke-width="2" stroke-linejoin="round" stroke-linecap="round" />
<line x1="149.68" y1="28.02" x2="149.58" y2="45.15" stroke="black" stroke-width="2" stroke-linejoin="round" stroke-linecap="round" />
<line x1="157.10" y1="23.83" x2="149.68" y2="28.02" stroke="black" stroke-width="2" stroke-linejoin="round" stroke-linecap="round" />
<line x1="157.10" y1="23.83" x2="158.58" y2="22.99" stroke="#a00" stroke-width="2" stroke-linejoin="round" stroke-linecap="round" />
<line x1="112.74" y1="23.56" x2="120.11" y2="27.85" stroke="black" stroke-width="2" stroke-linejoin="round" stroke-linecap="round" />
<line x1="112.74" y1="23.56" x2="109.85" y2="21.89" stroke="blue" stroke-width="2" stroke-linejoin="round" stroke-linecap="round" />
<line x1="97.98" y1="23.52" x2="100.87" y2="21.86" stroke="blue" stroke-width="2" stroke-linejoin="round" stroke-linecap="round" />
<line x1="97.98" y1="23.52" x2="90.58" y2="27.76" stroke="black" stroke-width="2" stroke-linejoin="round" stroke-linecap="round" />
<line x1="90.58" y1="36.33" x2="90.58" y2="27.76" stroke="black" stroke-width="2" stroke-linejoin="round" stroke-linecap="round" />
<line x1="90.58" y1="36.33" x2="90.58" y2="39.71" stroke="blue" stroke-width="2" stroke-linejoin="round" stroke-linecap="round" />
<line x1="86.86" y1="36.33" x2="86.86" y2="30.50" stroke="black" stroke-width="2" stroke-linejoin="round" stroke-linecap="round" />
<line x1="86.86" y1="36.33" x2="86.86" y2="42.15" stroke="blue" stroke-width="2" stroke-linejoin="round" stroke-linecap="round" />
<line x1="83.19" y1="23.43" x2="90.58" y2="27.76" stroke="black" stroke-width="2" stroke-linejoin="round" stroke-linecap="round" />
<line x1="83.19" y1="23.43" x2="80.27" y2="21.73" stroke="blue" stroke-width="2" stroke-linejoin="round" stroke-linecap="round" />
<line x1="68.41" y1="23.43" x2="71.32" y2="21.73" stroke="blue" stroke-width="2" stroke-linejoin="round" stroke-linecap="round" />
<line x1="68.41" y1="23.43" x2="61.01" y2="27.76" stroke="black" stroke-width="2" stroke-linejoin="round" stroke-linecap="round" />
<line x1="70.29" y1="26.65" x2="75.32" y2="23.71" stroke="blue" stroke-width="2" stroke-linejoin="round" stroke-linecap="round" />
<line x1="70.29" y1="26.65" x2="65.26" y2="29.59" stroke="black" stroke-width="2" stroke-linejoin="round" stroke-linecap="round" />
<line x1="61.01" y1="27.76" x2="61.01" y2="44.89" stroke="black" stroke-width="2" stroke-linejoin="round" stroke-linecap="round" />
<line x1="61.01" y1="44.89" x2="75.80" y2="53.37" stroke="black" stroke-width="2" stroke-linejoin="round" stroke-linecap="round" />
<line x1="65.23" y1="43.02" x2="75.29" y2="48.78" stroke="black" stroke-width="2" stroke-linejoin="round" stroke-linecap="round" />
<line x1="83.19" y1="49.13" x2="75.80" y2="53.37" stroke="black" stroke-width="2" stroke-linejoin="round" stroke-linecap="round" />
<line x1="83.19" y1="49.13" x2="86.09" y2="47.47" stroke="blue" stroke-width="2" stroke-linejoin="round" stroke-linecap="round" />
<line x1="75.80" y1="61.90" x2="75.80" y2="53.37" stroke="black" stroke-width="2" stroke-linejoin="round" stroke-linecap="round" />
<line x1="75.80" y1="61.90" x2="75.80" y2="63.76" stroke="blue" stroke-width="2" stroke-linejoin="round" stroke-linecap="round" />
<line x1="68.42" y1="74.68" x2="70.03" y2="73.75" stroke="blue" stroke-width="2" stroke-linejoin="round" stroke-linecap="round" />
<line x1="68.42" y1="74.68" x2="61.04" y2="78.94" stroke="black" stroke-width="2" stroke-linejoin="round" stroke-linecap="round" />
<line x1="61.04" y1="78.94" x2="61.09" y2="96.07" stroke="black" stroke-width="2" stroke-linejoin="round" stroke-linecap="round" />
<line x1="57.32" y1="81.69" x2="57.35" y2="93.34" stroke="black" stroke-width="2" stroke-linejoin="round" stroke-linecap="round" />
<line x1="61.04" y1="78.94" x2="46.22" y2="70.33" stroke="black" stroke-width="2" stroke-linejoin="round" stroke-linecap="round" />
<line x1="46.22" y1="70.33" x2="31.46" y2="78.85" stroke="black" stroke-width="2" stroke-linejoin="round" stroke-linecap="round" />
<line x1="45.73" y1="74.92" x2="35.69" y2="80.72" stroke="black" stroke-width="2" stroke-linejoin="round" stroke-linecap="round" />
<line x1="31.46" y1="78.85" x2="31.36" y2="95.90" stroke="black" stroke-width="2" stroke-linejoin="round" stroke-linecap="round" />
<line x1="31.36" y1="95.90" x2="46.18" y2="104.51" stroke="black" stroke-width="2" stroke-linejoin="round" stroke-linecap="round" />
<line x1="35.61" y1="94.05" x2="45.68" y2="99.91" stroke="black" stroke-width="2" stroke-linejoin="round" stroke-linecap="round" />
<line x1="46.18" y1="104.51" x2="61.09" y2="96.07" stroke="black" stroke-width="2" stroke-linejoin="round" stroke-linecap="round" />
<line x1="46.13" y1="113.03" x2="46.18" y2="104.51" stroke="black" stroke-width="2" stroke-linejoin="round" stroke-linecap="round" />
<line x1="46.13" y1="113.03" x2="46.11" y2="114.73" stroke="#a00" stroke-width="2" stroke-linejoin="round" stroke-linecap="round" />
<line x1="53.64" y1="49.17" x2="61.01" y2="44.89" stroke="black" stroke-width="2" stroke-linejoin="round" stroke-linecap="round" />
<line x1="53.64" y1="49.17" x2="50.47" y2="51.00" stroke="#00cd00" stroke-width="2" stroke-linejoin="round" stroke-linecap="round" />
<text x="164.52" y="21.94" fill="#a00" font-family="Arial" font-size="7" font-style="normal" font-weight="normal" text-anchor="middle">  Br </text>
<text x="105.37" y="21.59" fill="blue" font-family="Arial" font-size="7" font-style="normal" font-weight="normal" text-anchor="middle">  N </text>
<text x="105.37" y="15.99" fill="blue" font-family="Arial" font-size="7" font-style="normal" font-weight="normal" text-anchor="middle">  H </text>
<text x="75.80" y="21.42" fill="blue" font-family="Arial" font-size="7" font-style="normal" font-weight="normal" text-anchor="middle">  N </text>
<text x="90.58" y="47.20" fill="blue" font-family="Arial" font-size="7" font-style="normal" font-weight="normal" text-anchor="middle">  N </text>
<text x="75.80" y="72.73" fill="blue" font-family="Arial" font-size="7" font-style="normal" font-weight="normal" text-anchor="middle">  N </text>
<text x="79.45" y="70.42" fill="blue" font-family="Arial" font-size="6" font-style="normal" font-weight="normal" text-anchor="middle">  - </text>
<text x="46.07" y="123.86" fill="#a00" font-family="Arial" font-size="7" font-style="normal" font-weight="normal" text-anchor="middle">  Br </text>
<text x="46.26" y="55.75" fill="#00cd00" font-family="Arial" font-size="7" font-style="normal" font-weight="normal" text-anchor="middle">  F </text>
<text x="100.00" y="143.75" fill="black" font-family="Arial" font-size="15" font-style="normal" font-weight="normal" text-anchor="middle">  SM21_micro012 </text>
</svg>
