<?xml version="1.0" encoding="UTF-8"?>
<!DOCTYPE svg PUBLIC "-//W3C//DTD SVG 1.1//EN"
  "http://www.w3.org/Graphics/SVG/1.1/DTD/svg11.dtd">
<svg xmlns="http://www.w3.org/2000/svg" xmlns:xlink="http://www.w3.org/1999/xlink"   viewBox="0.00 0.00 200.00 150.00">
<!-- Created by OpenEye Scientific Software -->
<!-- Creation Date Mon Nov 19 16:16:14 2018 -->
<line x1="183.09" y1="90.78" x2="183.07" y2="76.86" stroke="black" stroke-width="2" stroke-linejoin="round" stroke-linecap="round" />
<line x1="177.04" y1="73.39" x2="183.07" y2="76.86" stroke="black" stroke-width="2" stroke-linejoin="round" stroke-linecap="round" />
<line x1="177.04" y1="73.39" x2="175.55" y2="72.53" stroke="red" stroke-width="2" stroke-linejoin="round" stroke-linecap="round" />
<line x1="171.00" y1="62.96" x2="171.00" y2="64.68" stroke="red" stroke-width="2" stroke-linejoin="round" stroke-linecap="round" />
<line x1="171.00" y1="62.96" x2="170.99" y2="56.00" stroke="black" stroke-width="2" stroke-linejoin="round" stroke-linecap="round" />
<line x1="177.82" y1="53.91" x2="171.80" y2="57.40" stroke="black" stroke-width="2" stroke-linejoin="round" stroke-linecap="round" />
<line x1="177.82" y1="53.91" x2="179.31" y2="53.05" stroke="red" stroke-width="2" stroke-linejoin="round" stroke-linecap="round" />
<line x1="176.20" y1="51.12" x2="170.18" y2="54.61" stroke="black" stroke-width="2" stroke-linejoin="round" stroke-linecap="round" />
<line x1="176.20" y1="51.12" x2="177.69" y2="50.25" stroke="red" stroke-width="2" stroke-linejoin="round" stroke-linecap="round" />
<line x1="170.99" y1="56.00" x2="158.93" y2="49.06" stroke="black" stroke-width="2" stroke-linejoin="round" stroke-linecap="round" />
<line x1="158.93" y1="49.06" x2="146.81" y2="56.06" stroke="black" stroke-width="2" stroke-linejoin="round" stroke-linecap="round" />
<line x1="155.38" y1="47.39" x2="147.14" y2="52.14" stroke="black" stroke-width="2" stroke-linejoin="round" stroke-linecap="round" />
<line x1="158.93" y1="49.06" x2="158.89" y2="35.14" stroke="black" stroke-width="2" stroke-linejoin="round" stroke-linecap="round" />
<line x1="158.89" y1="35.14" x2="146.86" y2="28.15" stroke="black" stroke-width="2" stroke-linejoin="round" stroke-linecap="round" />
<line x1="155.34" y1="36.81" x2="147.16" y2="32.06" stroke="black" stroke-width="2" stroke-linejoin="round" stroke-linecap="round" />
<line x1="146.86" y1="28.15" x2="134.74" y2="35.14" stroke="black" stroke-width="2" stroke-linejoin="round" stroke-linecap="round" />
<line x1="134.74" y1="35.14" x2="134.66" y2="49.13" stroke="black" stroke-width="2" stroke-linejoin="round" stroke-linecap="round" />
<line x1="137.95" y1="37.40" x2="137.90" y2="46.91" stroke="black" stroke-width="2" stroke-linejoin="round" stroke-linecap="round" />
<line x1="134.66" y1="49.13" x2="146.81" y2="56.06" stroke="black" stroke-width="2" stroke-linejoin="round" stroke-linecap="round" />
<line x1="128.73" y1="31.65" x2="134.74" y2="35.14" stroke="black" stroke-width="2" stroke-linejoin="round" stroke-linecap="round" />
<line x1="128.73" y1="31.65" x2="126.80" y2="30.53" stroke="blue" stroke-width="2" stroke-linejoin="round" stroke-linecap="round" />
<line x1="116.67" y1="31.61" x2="118.61" y2="30.50" stroke="blue" stroke-width="2" stroke-linejoin="round" stroke-linecap="round" />
<line x1="116.67" y1="31.61" x2="110.64" y2="35.07" stroke="black" stroke-width="2" stroke-linejoin="round" stroke-linecap="round" />
<line x1="104.60" y1="31.54" x2="110.64" y2="35.07" stroke="black" stroke-width="2" stroke-linejoin="round" stroke-linecap="round" />
<line x1="104.60" y1="31.54" x2="102.65" y2="30.40" stroke="blue" stroke-width="2" stroke-linejoin="round" stroke-linecap="round" />
<line x1="102.97" y1="34.33" x2="107.08" y2="36.73" stroke="black" stroke-width="2" stroke-linejoin="round" stroke-linecap="round" />
<line x1="102.97" y1="34.33" x2="98.87" y2="31.92" stroke="blue" stroke-width="2" stroke-linejoin="round" stroke-linecap="round" />
<line x1="110.64" y1="42.07" x2="110.64" y2="35.07" stroke="black" stroke-width="2" stroke-linejoin="round" stroke-linecap="round" />
<line x1="110.64" y1="42.07" x2="110.64" y2="44.33" stroke="blue" stroke-width="2" stroke-linejoin="round" stroke-linecap="round" />
<line x1="104.60" y1="52.52" x2="106.53" y2="51.42" stroke="blue" stroke-width="2" stroke-linejoin="round" stroke-linecap="round" />
<line x1="104.60" y1="52.52" x2="98.56" y2="55.99" stroke="black" stroke-width="2" stroke-linejoin="round" stroke-linecap="round" />
<line x1="98.56" y1="62.94" x2="98.56" y2="55.99" stroke="black" stroke-width="2" stroke-linejoin="round" stroke-linecap="round" />
<line x1="98.56" y1="62.94" x2="98.56" y2="65.17" stroke="blue" stroke-width="2" stroke-linejoin="round" stroke-linecap="round" />
<line x1="95.34" y1="62.94" x2="95.34" y2="58.21" stroke="black" stroke-width="2" stroke-linejoin="round" stroke-linecap="round" />
<line x1="95.34" y1="62.94" x2="95.34" y2="67.68" stroke="blue" stroke-width="2" stroke-linejoin="round" stroke-linecap="round" />
<line x1="92.54" y1="73.38" x2="94.47" y2="72.27" stroke="blue" stroke-width="2" stroke-linejoin="round" stroke-linecap="round" />
<line x1="92.54" y1="73.38" x2="86.51" y2="76.86" stroke="black" stroke-width="2" stroke-linejoin="round" stroke-linecap="round" />
<line x1="86.51" y1="76.86" x2="74.42" y2="69.83" stroke="black" stroke-width="2" stroke-linejoin="round" stroke-linecap="round" />
<line x1="82.96" y1="78.53" x2="74.73" y2="73.75" stroke="black" stroke-width="2" stroke-linejoin="round" stroke-linecap="round" />
<line x1="86.51" y1="76.86" x2="86.55" y2="90.85" stroke="black" stroke-width="2" stroke-linejoin="round" stroke-linecap="round" />
<line x1="86.55" y1="90.85" x2="74.50" y2="97.81" stroke="black" stroke-width="2" stroke-linejoin="round" stroke-linecap="round" />
<line x1="83.01" y1="89.17" x2="74.82" y2="93.90" stroke="black" stroke-width="2" stroke-linejoin="round" stroke-linecap="round" />
<line x1="74.50" y1="97.81" x2="62.41" y2="90.92" stroke="black" stroke-width="2" stroke-linejoin="round" stroke-linecap="round" />
<line x1="62.41" y1="90.92" x2="62.37" y2="76.93" stroke="black" stroke-width="2" stroke-linejoin="round" stroke-linecap="round" />
<line x1="65.63" y1="88.67" x2="65.60" y2="79.16" stroke="black" stroke-width="2" stroke-linejoin="round" stroke-linecap="round" />
<line x1="62.37" y1="76.93" x2="74.42" y2="69.83" stroke="black" stroke-width="2" stroke-linejoin="round" stroke-linecap="round" />
<line x1="62.41" y1="90.92" x2="50.39" y2="97.93" stroke="black" stroke-width="2" stroke-linejoin="round" stroke-linecap="round" />
<line x1="48.80" y1="104.90" x2="48.77" y2="97.94" stroke="black" stroke-width="2" stroke-linejoin="round" stroke-linecap="round" />
<line x1="48.80" y1="104.90" x2="48.81" y2="106.62" stroke="red" stroke-width="2" stroke-linejoin="round" stroke-linecap="round" />
<line x1="52.03" y1="104.88" x2="52.00" y2="97.93" stroke="black" stroke-width="2" stroke-linejoin="round" stroke-linecap="round" />
<line x1="52.03" y1="104.88" x2="52.04" y2="106.60" stroke="red" stroke-width="2" stroke-linejoin="round" stroke-linecap="round" />
<line x1="44.35" y1="94.48" x2="50.39" y2="97.93" stroke="black" stroke-width="2" stroke-linejoin="round" stroke-linecap="round" />
<line x1="44.35" y1="94.48" x2="42.85" y2="93.63" stroke="red" stroke-width="2" stroke-linejoin="round" stroke-linecap="round" />
<line x1="32.29" y1="94.53" x2="33.78" y2="93.67" stroke="red" stroke-width="2" stroke-linejoin="round" stroke-linecap="round" />
<line x1="32.29" y1="94.53" x2="26.28" y2="98.04" stroke="black" stroke-width="2" stroke-linejoin="round" stroke-linecap="round" />
<line x1="26.28" y1="98.04" x2="14.20" y2="91.13" stroke="black" stroke-width="2" stroke-linejoin="round" stroke-linecap="round" />
<line x1="98.56" y1="55.99" x2="86.49" y2="49.06" stroke="black" stroke-width="2" stroke-linejoin="round" stroke-linecap="round" />
<line x1="86.49" y1="49.06" x2="86.49" y2="35.07" stroke="black" stroke-width="2" stroke-linejoin="round" stroke-linecap="round" />
<line x1="89.72" y1="46.82" x2="89.72" y2="37.31" stroke="black" stroke-width="2" stroke-linejoin="round" stroke-linecap="round" />
<line x1="92.53" y1="31.54" x2="86.49" y2="35.07" stroke="black" stroke-width="2" stroke-linejoin="round" stroke-linecap="round" />
<line x1="92.53" y1="31.54" x2="94.48" y2="30.40" stroke="blue" stroke-width="2" stroke-linejoin="round" stroke-linecap="round" />
<line x1="86.49" y1="35.07" x2="74.42" y2="28.15" stroke="black" stroke-width="2" stroke-linejoin="round" stroke-linecap="round" />
<text x="171.01" y="71.90" fill="red" font-family="Arial" font-size="6" font-style="normal" font-weight="normal" text-anchor="middle">  O </text>
<text x="183.03" y="51.01" fill="red" font-family="Arial" font-size="6" font-style="normal" font-weight="normal" text-anchor="middle">  O </text>
<text x="122.71" y="30.13" fill="blue" font-family="Arial" font-size="6" font-style="normal" font-weight="normal" text-anchor="middle">  N </text>
<text x="122.71" y="25.33" fill="blue" font-family="Arial" font-size="6" font-style="normal" font-weight="normal" text-anchor="middle">  H </text>
<text x="110.64" y="51.04" fill="blue" font-family="Arial" font-size="6" font-style="normal" font-weight="normal" text-anchor="middle">  N </text>
<text x="114.84" y="51.04" fill="blue" font-family="Arial" font-size="6" font-style="normal" font-weight="normal" text-anchor="middle">  H </text>
<text x="98.56" y="71.88" fill="blue" font-family="Arial" font-size="6" font-style="normal" font-weight="normal" text-anchor="middle">  N </text>
<text x="50.45" y="113.83" fill="red" font-family="Arial" font-size="6" font-style="normal" font-weight="normal" text-anchor="middle">  O </text>
<text x="38.30" y="93.01" fill="red" font-family="Arial" font-size="6" font-style="normal" font-weight="normal" text-anchor="middle">  O </text>
<text x="98.56" y="29.99" fill="blue" font-family="Arial" font-size="6" font-style="normal" font-weight="normal" text-anchor="middle">  N </text>
<text x="100.00" y="143.75" fill="black" font-family="Arial" font-size="15" font-style="normal" font-weight="normal" text-anchor="middle">  SM23_micro005 </text>
</svg>
