<?xml version="1.0" encoding="UTF-8"?>
<!DOCTYPE svg PUBLIC "-//W3C//DTD SVG 1.1//EN"
  "http://www.w3.org/Graphics/SVG/1.1/DTD/svg11.dtd">
<svg xmlns="http://www.w3.org/2000/svg" xmlns:xlink="http://www.w3.org/1999/xlink"   viewBox="0.00 0.00 164.00 83.00">
<!-- Created by OpenEye Scientific Software -->
<!-- Creation Date Mon Nov 19 16:16:15 2018 -->
<line x1="79.50" y1="72.92" x2="75.87" y2="76.93" stroke="black" stroke-width="2" stroke-linejoin="round" stroke-linecap="round" />
<line x1="79.50" y1="72.92" x2="80.35" y2="72.00" stroke="red" stroke-width="2" stroke-linejoin="round" stroke-linecap="round" />
<line x1="81.49" y1="63.77" x2="81.87" y2="64.96" stroke="red" stroke-width="2" stroke-linejoin="round" stroke-linecap="round" />
<line x1="81.49" y1="63.77" x2="79.84" y2="58.61" stroke="black" stroke-width="2" stroke-linejoin="round" stroke-linecap="round" />
<line x1="79.84" y1="58.61" x2="87.18" y2="50.58" stroke="black" stroke-width="2" stroke-linejoin="round" stroke-linecap="round" />
<line x1="79.00" y1="55.49" x2="83.99" y2="50.03" stroke="black" stroke-width="2" stroke-linejoin="round" stroke-linecap="round" />
<line x1="79.84" y1="58.61" x2="69.21" y2="56.34" stroke="black" stroke-width="2" stroke-linejoin="round" stroke-linecap="round" />
<line x1="69.21" y1="56.34" x2="65.91" y2="46.03" stroke="black" stroke-width="2" stroke-linejoin="round" stroke-linecap="round" />
<line x1="71.28" y1="53.85" x2="69.04" y2="46.85" stroke="black" stroke-width="2" stroke-linejoin="round" stroke-linecap="round" />
<line x1="65.91" y1="46.03" x2="73.14" y2="37.98" stroke="black" stroke-width="2" stroke-linejoin="round" stroke-linecap="round" />
<line x1="73.14" y1="37.98" x2="83.77" y2="40.25" stroke="black" stroke-width="2" stroke-linejoin="round" stroke-linecap="round" />
<line x1="74.27" y1="41.01" x2="81.50" y2="42.56" stroke="black" stroke-width="2" stroke-linejoin="round" stroke-linecap="round" />
<line x1="83.77" y1="40.25" x2="87.18" y2="50.58" stroke="black" stroke-width="2" stroke-linejoin="round" stroke-linecap="round" />
<line x1="73.14" y1="37.98" x2="69.79" y2="27.69" stroke="black" stroke-width="2" stroke-linejoin="round" stroke-linecap="round" />
<line x1="69.79" y1="27.69" x2="76.20" y2="18.87" stroke="black" stroke-width="2" stroke-linejoin="round" stroke-linecap="round" />
<line x1="68.61" y1="24.67" x2="72.97" y2="18.67" stroke="black" stroke-width="2" stroke-linejoin="round" stroke-linecap="round" />
<line x1="69.79" y1="27.69" x2="59.43" y2="24.32" stroke="black" stroke-width="2" stroke-linejoin="round" stroke-linecap="round" />
<line x1="59.43" y1="24.32" x2="59.43" y2="13.42" stroke="black" stroke-width="2" stroke-linejoin="round" stroke-linecap="round" />
<line x1="56.70" y1="22.57" x2="56.70" y2="15.16" stroke="black" stroke-width="2" stroke-linejoin="round" stroke-linecap="round" />
<line x1="59.43" y1="24.32" x2="50.04" y2="29.69" stroke="black" stroke-width="2" stroke-linejoin="round" stroke-linecap="round" />
<line x1="45.34" y1="27.00" x2="50.04" y2="29.69" stroke="black" stroke-width="2" stroke-linejoin="round" stroke-linecap="round" />
<line x1="45.34" y1="27.00" x2="43.96" y2="26.20" stroke="blue" stroke-width="2" stroke-linejoin="round" stroke-linecap="round" />
<line x1="46.70" y1="24.63" x2="49.89" y2="26.46" stroke="black" stroke-width="2" stroke-linejoin="round" stroke-linecap="round" />
<line x1="46.70" y1="24.63" x2="43.51" y2="22.80" stroke="blue" stroke-width="2" stroke-linejoin="round" stroke-linecap="round" />
<line x1="40.65" y1="18.86" x2="40.65" y2="20.48" stroke="blue" stroke-width="2" stroke-linejoin="round" stroke-linecap="round" />
<line x1="40.65" y1="18.86" x2="40.65" y2="13.42" stroke="black" stroke-width="2" stroke-linejoin="round" stroke-linecap="round" />
<line x1="45.34" y1="10.67" x2="40.65" y2="13.42" stroke="black" stroke-width="2" stroke-linejoin="round" stroke-linecap="round" />
<line x1="45.34" y1="10.67" x2="46.74" y2="9.85" stroke="blue" stroke-width="2" stroke-linejoin="round" stroke-linecap="round" />
<line x1="46.72" y1="13.03" x2="43.53" y2="14.90" stroke="black" stroke-width="2" stroke-linejoin="round" stroke-linecap="round" />
<line x1="46.72" y1="13.03" x2="49.91" y2="11.16" stroke="blue" stroke-width="2" stroke-linejoin="round" stroke-linecap="round" />
<line x1="54.73" y1="10.67" x2="53.34" y2="9.85" stroke="blue" stroke-width="2" stroke-linejoin="round" stroke-linecap="round" />
<line x1="54.73" y1="10.67" x2="59.43" y2="13.42" stroke="black" stroke-width="2" stroke-linejoin="round" stroke-linecap="round" />
<line x1="64.61" y1="11.74" x2="59.43" y2="13.42" stroke="black" stroke-width="2" stroke-linejoin="round" stroke-linecap="round" />
<line x1="64.61" y1="11.74" x2="65.84" y2="11.34" stroke="red" stroke-width="2" stroke-linejoin="round" stroke-linecap="round" />
<line x1="73.00" y1="14.46" x2="72.24" y2="13.42" stroke="red" stroke-width="2" stroke-linejoin="round" stroke-linecap="round" />
<line x1="73.00" y1="14.46" x2="76.20" y2="18.87" stroke="black" stroke-width="2" stroke-linejoin="round" stroke-linecap="round" />
<line x1="76.20" y1="18.87" x2="87.02" y2="18.87" stroke="black" stroke-width="2" stroke-linejoin="round" stroke-linecap="round" />
<line x1="87.02" y1="18.87" x2="92.47" y2="9.46" stroke="black" stroke-width="2" stroke-linejoin="round" stroke-linecap="round" />
<line x1="90.26" y1="18.73" x2="93.96" y2="12.33" stroke="black" stroke-width="2" stroke-linejoin="round" stroke-linecap="round" />
<line x1="87.02" y1="18.87" x2="92.45" y2="28.23" stroke="black" stroke-width="2" stroke-linejoin="round" stroke-linecap="round" />
<line x1="92.45" y1="28.23" x2="103.27" y2="28.28" stroke="black" stroke-width="2" stroke-linejoin="round" stroke-linecap="round" />
<line x1="94.19" y1="25.51" x2="101.55" y2="25.54" stroke="black" stroke-width="2" stroke-linejoin="round" stroke-linecap="round" />
<line x1="103.27" y1="28.28" x2="108.72" y2="18.87" stroke="black" stroke-width="2" stroke-linejoin="round" stroke-linecap="round" />
<line x1="108.72" y1="18.87" x2="103.35" y2="9.41" stroke="black" stroke-width="2" stroke-linejoin="round" stroke-linecap="round" />
<line x1="105.49" y1="18.70" x2="101.83" y2="12.27" stroke="black" stroke-width="2" stroke-linejoin="round" stroke-linecap="round" />
<line x1="103.35" y1="9.41" x2="92.47" y2="9.46" stroke="black" stroke-width="2" stroke-linejoin="round" stroke-linecap="round" />
<line x1="114.13" y1="18.89" x2="108.72" y2="18.87" stroke="black" stroke-width="2" stroke-linejoin="round" stroke-linecap="round" />
<line x1="114.13" y1="18.89" x2="115.38" y2="18.89" stroke="red" stroke-width="2" stroke-linejoin="round" stroke-linecap="round" />
<line x1="122.23" y1="23.61" x2="121.60" y2="22.52" stroke="red" stroke-width="2" stroke-linejoin="round" stroke-linecap="round" />
<line x1="122.23" y1="23.61" x2="124.91" y2="28.31" stroke="black" stroke-width="2" stroke-linejoin="round" stroke-linecap="round" />
<line x1="50.04" y1="35.10" x2="50.04" y2="29.69" stroke="black" stroke-width="2" stroke-linejoin="round" stroke-linecap="round" />
<line x1="50.04" y1="35.10" x2="50.03" y2="35.85" stroke="blue" stroke-width="2" stroke-linejoin="round" stroke-linecap="round" />
<line x1="45.35" y1="43.21" x2="46.00" y2="42.84" stroke="blue" stroke-width="2" stroke-linejoin="round" stroke-linecap="round" />
<line x1="45.35" y1="43.21" x2="40.66" y2="45.92" stroke="black" stroke-width="2" stroke-linejoin="round" stroke-linecap="round" />
<line x1="40.66" y1="45.92" x2="40.65" y2="56.74" stroke="black" stroke-width="2" stroke-linejoin="round" stroke-linecap="round" />
<line x1="45.34" y1="59.45" x2="40.65" y2="56.74" stroke="black" stroke-width="2" stroke-linejoin="round" stroke-linecap="round" />
<line x1="45.34" y1="59.45" x2="46.42" y2="60.07" stroke="red" stroke-width="2" stroke-linejoin="round" stroke-linecap="round" />
<text x="83.14" y="70.24" fill="red" font-family="Arial" font-size="4" font-style="normal" font-weight="normal" text-anchor="middle">  O </text>
<text x="40.65" y="25.62" fill="blue" font-family="Arial" font-size="4" font-style="normal" font-weight="normal" text-anchor="middle">  N </text>
<text x="50.04" y="9.24" fill="blue" font-family="Arial" font-size="4" font-style="normal" font-weight="normal" text-anchor="middle">  N </text>
<text x="69.79" y="11.37" fill="red" font-family="Arial" font-size="4" font-style="normal" font-weight="normal" text-anchor="middle">  O </text>
<text x="119.54" y="20.23" fill="red" font-family="Arial" font-size="4" font-style="normal" font-weight="normal" text-anchor="middle">  O </text>
<text x="50.03" y="41.83" fill="blue" font-family="Arial" font-size="4" font-style="normal" font-weight="normal" text-anchor="middle">  N </text>
<text x="52.83" y="41.83" fill="blue" font-family="Arial" font-size="4" font-style="normal" font-weight="normal" text-anchor="middle">  H </text>
<text x="54.83" y="42.23" fill="blue" font-family="Arial" font-size="2" font-style="normal" font-weight="normal" text-anchor="middle">  2 </text>
<text x="54.83" y="40.26" fill="blue" font-family="Arial" font-size="2" font-style="normal" font-weight="normal" text-anchor="middle">  + </text>
<text x="50.02" y="63.47" fill="red" font-family="Arial" font-size="4" font-style="normal" font-weight="normal" text-anchor="middle">  O </text>
<text x="53.08" y="63.47" fill="red" font-family="Arial" font-size="4" font-style="normal" font-weight="normal" text-anchor="middle">  H </text>
</svg>
