<?xml version="1.0" encoding="UTF-8"?>
<!DOCTYPE svg PUBLIC "-//W3C//DTD SVG 1.1//EN"
  "http://www.w3.org/Graphics/SVG/1.1/DTD/svg11.dtd">
<svg xmlns="http://www.w3.org/2000/svg" xmlns:xlink="http://www.w3.org/1999/xlink"   viewBox="0.00 0.00 164.00 83.00">
<!-- Created by OpenEye Scientific Software -->
<!-- Creation Date Mon Nov 19 16:16:15 2018 -->
<line x1="80.90" y1="72.92" x2="77.27" y2="76.93" stroke="black" stroke-width="2" stroke-linejoin="round" stroke-linecap="round" />
<line x1="80.90" y1="72.92" x2="81.75" y2="72.00" stroke="red" stroke-width="2" stroke-linejoin="round" stroke-linecap="round" />
<line x1="82.89" y1="63.77" x2="83.27" y2="64.96" stroke="red" stroke-width="2" stroke-linejoin="round" stroke-linecap="round" />
<line x1="82.89" y1="63.77" x2="81.24" y2="58.61" stroke="black" stroke-width="2" stroke-linejoin="round" stroke-linecap="round" />
<line x1="81.24" y1="58.61" x2="88.58" y2="50.58" stroke="black" stroke-width="2" stroke-linejoin="round" stroke-linecap="round" />
<line x1="80.40" y1="55.49" x2="85.39" y2="50.03" stroke="black" stroke-width="2" stroke-linejoin="round" stroke-linecap="round" />
<line x1="81.24" y1="58.61" x2="70.61" y2="56.34" stroke="black" stroke-width="2" stroke-linejoin="round" stroke-linecap="round" />
<line x1="70.61" y1="56.34" x2="67.31" y2="46.03" stroke="black" stroke-width="2" stroke-linejoin="round" stroke-linecap="round" />
<line x1="72.68" y1="53.85" x2="70.44" y2="46.85" stroke="black" stroke-width="2" stroke-linejoin="round" stroke-linecap="round" />
<line x1="67.31" y1="46.03" x2="74.54" y2="37.98" stroke="black" stroke-width="2" stroke-linejoin="round" stroke-linecap="round" />
<line x1="74.54" y1="37.98" x2="85.17" y2="40.25" stroke="black" stroke-width="2" stroke-linejoin="round" stroke-linecap="round" />
<line x1="75.67" y1="41.01" x2="82.90" y2="42.56" stroke="black" stroke-width="2" stroke-linejoin="round" stroke-linecap="round" />
<line x1="85.17" y1="40.25" x2="88.58" y2="50.58" stroke="black" stroke-width="2" stroke-linejoin="round" stroke-linecap="round" />
<line x1="74.54" y1="37.98" x2="71.19" y2="27.69" stroke="black" stroke-width="2" stroke-linejoin="round" stroke-linecap="round" />
<line x1="71.19" y1="27.69" x2="77.60" y2="18.87" stroke="black" stroke-width="2" stroke-linejoin="round" stroke-linecap="round" />
<line x1="70.01" y1="24.67" x2="74.37" y2="18.67" stroke="black" stroke-width="2" stroke-linejoin="round" stroke-linecap="round" />
<line x1="71.19" y1="27.69" x2="60.83" y2="24.32" stroke="black" stroke-width="2" stroke-linejoin="round" stroke-linecap="round" />
<line x1="60.83" y1="24.32" x2="60.83" y2="13.42" stroke="black" stroke-width="2" stroke-linejoin="round" stroke-linecap="round" />
<line x1="58.10" y1="22.57" x2="58.10" y2="15.16" stroke="black" stroke-width="2" stroke-linejoin="round" stroke-linecap="round" />
<line x1="60.83" y1="24.32" x2="51.44" y2="29.69" stroke="black" stroke-width="2" stroke-linejoin="round" stroke-linecap="round" />
<line x1="46.74" y1="27.00" x2="51.44" y2="29.69" stroke="black" stroke-width="2" stroke-linejoin="round" stroke-linecap="round" />
<line x1="46.74" y1="27.00" x2="46.09" y2="26.62" stroke="blue" stroke-width="2" stroke-linejoin="round" stroke-linecap="round" />
<line x1="48.10" y1="24.63" x2="51.29" y2="26.46" stroke="black" stroke-width="2" stroke-linejoin="round" stroke-linecap="round" />
<line x1="48.10" y1="24.63" x2="44.91" y2="22.80" stroke="blue" stroke-width="2" stroke-linejoin="round" stroke-linecap="round" />
<line x1="42.05" y1="18.86" x2="42.05" y2="19.64" stroke="blue" stroke-width="2" stroke-linejoin="round" stroke-linecap="round" />
<line x1="42.05" y1="18.86" x2="42.05" y2="13.42" stroke="black" stroke-width="2" stroke-linejoin="round" stroke-linecap="round" />
<line x1="46.74" y1="10.67" x2="42.05" y2="13.42" stroke="black" stroke-width="2" stroke-linejoin="round" stroke-linecap="round" />
<line x1="46.74" y1="10.67" x2="48.14" y2="9.85" stroke="blue" stroke-width="2" stroke-linejoin="round" stroke-linecap="round" />
<line x1="48.12" y1="13.03" x2="44.93" y2="14.90" stroke="black" stroke-width="2" stroke-linejoin="round" stroke-linecap="round" />
<line x1="48.12" y1="13.03" x2="51.31" y2="11.16" stroke="blue" stroke-width="2" stroke-linejoin="round" stroke-linecap="round" />
<line x1="56.13" y1="10.67" x2="54.74" y2="9.85" stroke="blue" stroke-width="2" stroke-linejoin="round" stroke-linecap="round" />
<line x1="56.13" y1="10.67" x2="60.83" y2="13.42" stroke="black" stroke-width="2" stroke-linejoin="round" stroke-linecap="round" />
<line x1="66.01" y1="11.74" x2="60.83" y2="13.42" stroke="black" stroke-width="2" stroke-linejoin="round" stroke-linecap="round" />
<line x1="66.01" y1="11.74" x2="67.24" y2="11.34" stroke="red" stroke-width="2" stroke-linejoin="round" stroke-linecap="round" />
<line x1="74.40" y1="14.46" x2="73.64" y2="13.42" stroke="red" stroke-width="2" stroke-linejoin="round" stroke-linecap="round" />
<line x1="74.40" y1="14.46" x2="77.60" y2="18.87" stroke="black" stroke-width="2" stroke-linejoin="round" stroke-linecap="round" />
<line x1="77.60" y1="18.87" x2="88.42" y2="18.87" stroke="black" stroke-width="2" stroke-linejoin="round" stroke-linecap="round" />
<line x1="88.42" y1="18.87" x2="93.87" y2="9.46" stroke="black" stroke-width="2" stroke-linejoin="round" stroke-linecap="round" />
<line x1="91.66" y1="18.73" x2="95.36" y2="12.33" stroke="black" stroke-width="2" stroke-linejoin="round" stroke-linecap="round" />
<line x1="88.42" y1="18.87" x2="93.85" y2="28.23" stroke="black" stroke-width="2" stroke-linejoin="round" stroke-linecap="round" />
<line x1="93.85" y1="28.23" x2="104.67" y2="28.28" stroke="black" stroke-width="2" stroke-linejoin="round" stroke-linecap="round" />
<line x1="95.59" y1="25.51" x2="102.95" y2="25.54" stroke="black" stroke-width="2" stroke-linejoin="round" stroke-linecap="round" />
<line x1="104.67" y1="28.28" x2="110.12" y2="18.87" stroke="black" stroke-width="2" stroke-linejoin="round" stroke-linecap="round" />
<line x1="110.12" y1="18.87" x2="104.75" y2="9.41" stroke="black" stroke-width="2" stroke-linejoin="round" stroke-linecap="round" />
<line x1="106.89" y1="18.70" x2="103.23" y2="12.27" stroke="black" stroke-width="2" stroke-linejoin="round" stroke-linecap="round" />
<line x1="104.75" y1="9.41" x2="93.87" y2="9.46" stroke="black" stroke-width="2" stroke-linejoin="round" stroke-linecap="round" />
<line x1="115.53" y1="18.89" x2="110.12" y2="18.87" stroke="black" stroke-width="2" stroke-linejoin="round" stroke-linecap="round" />
<line x1="115.53" y1="18.89" x2="116.78" y2="18.89" stroke="red" stroke-width="2" stroke-linejoin="round" stroke-linecap="round" />
<line x1="123.63" y1="23.61" x2="123.00" y2="22.52" stroke="red" stroke-width="2" stroke-linejoin="round" stroke-linecap="round" />
<line x1="123.63" y1="23.61" x2="126.31" y2="28.31" stroke="black" stroke-width="2" stroke-linejoin="round" stroke-linecap="round" />
<line x1="51.44" y1="35.10" x2="51.44" y2="29.69" stroke="black" stroke-width="2" stroke-linejoin="round" stroke-linecap="round" />
<line x1="51.44" y1="35.10" x2="51.43" y2="36.69" stroke="blue" stroke-width="2" stroke-linejoin="round" stroke-linecap="round" />
<line x1="46.75" y1="43.21" x2="48.12" y2="42.42" stroke="blue" stroke-width="2" stroke-linejoin="round" stroke-linecap="round" />
<line x1="46.75" y1="43.21" x2="42.06" y2="45.92" stroke="black" stroke-width="2" stroke-linejoin="round" stroke-linecap="round" />
<line x1="42.06" y1="45.92" x2="42.05" y2="56.74" stroke="black" stroke-width="2" stroke-linejoin="round" stroke-linecap="round" />
<line x1="46.74" y1="59.45" x2="42.05" y2="56.74" stroke="black" stroke-width="2" stroke-linejoin="round" stroke-linecap="round" />
<line x1="46.74" y1="59.45" x2="46.96" y2="59.57" stroke="red" stroke-width="2" stroke-linejoin="round" stroke-linecap="round" />
<text x="84.54" y="70.24" fill="red" font-family="Arial" font-size="4" font-style="normal" font-weight="normal" text-anchor="middle">  O </text>
<text x="42.05" y="25.62" fill="blue" font-family="Arial" font-size="4" font-style="normal" font-weight="normal" text-anchor="middle">  N </text>
<text x="39.25" y="25.62" fill="blue" font-family="Arial" font-size="4" font-style="normal" font-weight="normal" text-anchor="middle">  H </text>
<text x="44.05" y="24.05" fill="blue" font-family="Arial" font-size="2" font-style="normal" font-weight="normal" text-anchor="middle">  + </text>
<text x="51.44" y="9.24" fill="blue" font-family="Arial" font-size="4" font-style="normal" font-weight="normal" text-anchor="middle">  N </text>
<text x="71.19" y="11.37" fill="red" font-family="Arial" font-size="4" font-style="normal" font-weight="normal" text-anchor="middle">  O </text>
<text x="120.94" y="20.23" fill="red" font-family="Arial" font-size="4" font-style="normal" font-weight="normal" text-anchor="middle">  O </text>
<text x="51.43" y="41.83" fill="blue" font-family="Arial" font-size="4" font-style="normal" font-weight="normal" text-anchor="middle">  N </text>
<text x="54.23" y="41.83" fill="blue" font-family="Arial" font-size="4" font-style="normal" font-weight="normal" text-anchor="middle">  H </text>
<text x="51.42" y="63.47" fill="red" font-family="Arial" font-size="4" font-style="normal" font-weight="normal" text-anchor="middle">  O </text>
<text x="53.68" y="62.15" fill="red" font-family="Arial" font-size="3" font-style="normal" font-weight="normal" text-anchor="middle">  - </text>
</svg>
