<?xml version="1.0" encoding="UTF-8"?>
<!DOCTYPE svg PUBLIC "-//W3C//DTD SVG 1.1//EN"
  "http://www.w3.org/Graphics/SVG/1.1/DTD/svg11.dtd">
<svg xmlns="http://www.w3.org/2000/svg" xmlns:xlink="http://www.w3.org/1999/xlink"   viewBox="0.00 0.00 200.00 150.00">
<!-- Created by OpenEye Scientific Software -->
<!-- Creation Date Mon Nov 19 16:16:16 2018 -->
<line x1="106.21" y1="118.53" x2="100.67" y2="124.63" stroke="black" stroke-width="2" stroke-linejoin="round" stroke-linecap="round" />
<line x1="106.21" y1="118.53" x2="107.87" y2="116.70" stroke="red" stroke-width="2" stroke-linejoin="round" stroke-linecap="round" />
<line x1="109.24" y1="104.57" x2="110.00" y2="106.92" stroke="red" stroke-width="2" stroke-linejoin="round" stroke-linecap="round" />
<line x1="109.24" y1="104.57" x2="106.73" y2="96.71" stroke="black" stroke-width="2" stroke-linejoin="round" stroke-linecap="round" />
<line x1="106.73" y1="96.71" x2="117.92" y2="84.47" stroke="black" stroke-width="2" stroke-linejoin="round" stroke-linecap="round" />
<line x1="105.83" y1="92.30" x2="113.44" y2="83.98" stroke="black" stroke-width="2" stroke-linejoin="round" stroke-linecap="round" />
<line x1="106.73" y1="96.71" x2="90.52" y2="93.24" stroke="black" stroke-width="2" stroke-linejoin="round" stroke-linecap="round" />
<line x1="90.52" y1="93.24" x2="85.49" y2="77.53" stroke="black" stroke-width="2" stroke-linejoin="round" stroke-linecap="round" />
<line x1="93.18" y1="89.62" x2="89.76" y2="78.93" stroke="black" stroke-width="2" stroke-linejoin="round" stroke-linecap="round" />
<line x1="85.49" y1="77.53" x2="96.51" y2="65.26" stroke="black" stroke-width="2" stroke-linejoin="round" stroke-linecap="round" />
<line x1="96.51" y1="65.26" x2="112.72" y2="68.73" stroke="black" stroke-width="2" stroke-linejoin="round" stroke-linecap="round" />
<line x1="98.34" y1="69.37" x2="109.37" y2="71.73" stroke="black" stroke-width="2" stroke-linejoin="round" stroke-linecap="round" />
<line x1="112.72" y1="68.73" x2="117.92" y2="84.47" stroke="black" stroke-width="2" stroke-linejoin="round" stroke-linecap="round" />
<line x1="96.51" y1="65.26" x2="91.41" y2="49.57" stroke="black" stroke-width="2" stroke-linejoin="round" stroke-linecap="round" />
<line x1="91.41" y1="49.57" x2="101.18" y2="36.13" stroke="black" stroke-width="2" stroke-linejoin="round" stroke-linecap="round" />
<line x1="90.03" y1="45.28" x2="96.67" y2="36.14" stroke="black" stroke-width="2" stroke-linejoin="round" stroke-linecap="round" />
<line x1="91.41" y1="49.57" x2="75.61" y2="44.43" stroke="black" stroke-width="2" stroke-linejoin="round" stroke-linecap="round" />
<line x1="75.61" y1="44.43" x2="61.29" y2="52.62" stroke="black" stroke-width="2" stroke-linejoin="round" stroke-linecap="round" />
<line x1="75.61" y1="44.43" x2="75.61" y2="27.82" stroke="black" stroke-width="2" stroke-linejoin="round" stroke-linecap="round" />
<line x1="71.97" y1="41.77" x2="71.97" y2="30.48" stroke="black" stroke-width="2" stroke-linejoin="round" stroke-linecap="round" />
<line x1="68.45" y1="23.63" x2="75.61" y2="27.82" stroke="black" stroke-width="2" stroke-linejoin="round" stroke-linecap="round" />
<line x1="68.45" y1="23.63" x2="65.77" y2="22.06" stroke="blue" stroke-width="2" stroke-linejoin="round" stroke-linecap="round" />
<line x1="54.13" y1="23.63" x2="56.82" y2="22.06" stroke="blue" stroke-width="2" stroke-linejoin="round" stroke-linecap="round" />
<line x1="54.13" y1="23.63" x2="46.97" y2="27.82" stroke="black" stroke-width="2" stroke-linejoin="round" stroke-linecap="round" />
<line x1="46.97" y1="36.12" x2="46.97" y2="27.82" stroke="black" stroke-width="2" stroke-linejoin="round" stroke-linecap="round" />
<line x1="46.97" y1="36.12" x2="46.97" y2="39.23" stroke="blue" stroke-width="2" stroke-linejoin="round" stroke-linecap="round" />
<line x1="50.61" y1="36.12" x2="50.61" y2="30.47" stroke="black" stroke-width="2" stroke-linejoin="round" stroke-linecap="round" />
<line x1="50.61" y1="36.12" x2="50.61" y2="41.76" stroke="blue" stroke-width="2" stroke-linejoin="round" stroke-linecap="round" />
<line x1="54.13" y1="48.52" x2="51.47" y2="46.99" stroke="blue" stroke-width="2" stroke-linejoin="round" stroke-linecap="round" />
<line x1="54.13" y1="48.52" x2="61.29" y2="52.62" stroke="black" stroke-width="2" stroke-linejoin="round" stroke-linecap="round" />
<line x1="61.29" y1="60.87" x2="61.29" y2="52.62" stroke="black" stroke-width="2" stroke-linejoin="round" stroke-linecap="round" />
<line x1="61.29" y1="60.87" x2="61.29" y2="63.93" stroke="blue" stroke-width="2" stroke-linejoin="round" stroke-linecap="round" />
<line x1="57.65" y1="60.87" x2="57.65" y2="55.26" stroke="black" stroke-width="2" stroke-linejoin="round" stroke-linecap="round" />
<line x1="57.65" y1="60.87" x2="57.65" y2="66.48" stroke="blue" stroke-width="2" stroke-linejoin="round" stroke-linecap="round" />
<line x1="54.14" y1="73.24" x2="56.79" y2="71.71" stroke="blue" stroke-width="2" stroke-linejoin="round" stroke-linecap="round" />
<line x1="54.14" y1="73.24" x2="46.99" y2="77.36" stroke="black" stroke-width="2" stroke-linejoin="round" stroke-linecap="round" />
<line x1="46.99" y1="77.36" x2="46.99" y2="93.86" stroke="black" stroke-width="2" stroke-linejoin="round" stroke-linecap="round" />
<line x1="39.84" y1="97.98" x2="46.99" y2="93.86" stroke="black" stroke-width="2" stroke-linejoin="round" stroke-linecap="round" />
<line x1="39.84" y1="97.98" x2="37.70" y2="99.21" stroke="red" stroke-width="2" stroke-linejoin="round" stroke-linecap="round" />
<line x1="83.51" y1="25.25" x2="75.61" y2="27.82" stroke="black" stroke-width="2" stroke-linejoin="round" stroke-linecap="round" />
<line x1="83.51" y1="25.25" x2="85.92" y2="24.47" stroke="red" stroke-width="2" stroke-linejoin="round" stroke-linecap="round" />
<line x1="96.29" y1="29.41" x2="94.81" y2="27.36" stroke="red" stroke-width="2" stroke-linejoin="round" stroke-linecap="round" />
<line x1="96.29" y1="29.41" x2="101.18" y2="36.13" stroke="black" stroke-width="2" stroke-linejoin="round" stroke-linecap="round" />
<line x1="101.18" y1="36.13" x2="117.67" y2="36.12" stroke="black" stroke-width="2" stroke-linejoin="round" stroke-linecap="round" />
<line x1="117.67" y1="36.12" x2="125.98" y2="21.78" stroke="black" stroke-width="2" stroke-linejoin="round" stroke-linecap="round" />
<line x1="122.15" y1="35.65" x2="127.80" y2="25.90" stroke="black" stroke-width="2" stroke-linejoin="round" stroke-linecap="round" />
<line x1="117.67" y1="36.12" x2="125.94" y2="50.40" stroke="black" stroke-width="2" stroke-linejoin="round" stroke-linecap="round" />
<line x1="125.94" y1="50.40" x2="142.44" y2="50.47" stroke="black" stroke-width="2" stroke-linejoin="round" stroke-linecap="round" />
<line x1="128.60" y1="46.77" x2="139.82" y2="46.82" stroke="black" stroke-width="2" stroke-linejoin="round" stroke-linecap="round" />
<line x1="142.44" y1="50.47" x2="150.75" y2="36.12" stroke="black" stroke-width="2" stroke-linejoin="round" stroke-linecap="round" />
<line x1="150.75" y1="36.12" x2="142.57" y2="21.70" stroke="black" stroke-width="2" stroke-linejoin="round" stroke-linecap="round" />
<line x1="146.28" y1="35.61" x2="140.71" y2="25.80" stroke="black" stroke-width="2" stroke-linejoin="round" stroke-linecap="round" />
<line x1="142.57" y1="21.70" x2="125.98" y2="21.78" stroke="black" stroke-width="2" stroke-linejoin="round" stroke-linecap="round" />
<line x1="159.00" y1="36.16" x2="150.75" y2="36.12" stroke="black" stroke-width="2" stroke-linejoin="round" stroke-linecap="round" />
<line x1="159.00" y1="36.16" x2="161.47" y2="36.17" stroke="red" stroke-width="2" stroke-linejoin="round" stroke-linecap="round" />
<line x1="171.34" y1="43.35" x2="170.11" y2="41.21" stroke="red" stroke-width="2" stroke-linejoin="round" stroke-linecap="round" />
<line x1="171.34" y1="43.35" x2="175.43" y2="50.51" stroke="black" stroke-width="2" stroke-linejoin="round" stroke-linecap="round" />
<text x="111.76" y="114.73" fill="red" font-family="Arial" font-size="7" font-style="normal" font-weight="normal" text-anchor="middle">  O </text>
<text x="61.29" y="21.75" fill="blue" font-family="Arial" font-size="7" font-style="normal" font-weight="normal" text-anchor="middle">  N </text>
<text x="61.29" y="16.15" fill="blue" font-family="Arial" font-size="7" font-style="normal" font-weight="normal" text-anchor="middle">  H </text>
<text x="46.97" y="46.72" fill="blue" font-family="Arial" font-size="7" font-style="normal" font-weight="normal" text-anchor="middle">  N </text>
<text x="61.28" y="71.43" fill="blue" font-family="Arial" font-size="7" font-style="normal" font-weight="normal" text-anchor="middle">  N </text>
<text x="32.70" y="104.41" fill="red" font-family="Arial" font-size="7" font-style="normal" font-weight="normal" text-anchor="middle">  O </text>
<text x="27.34" y="104.41" fill="red" font-family="Arial" font-size="7" font-style="normal" font-weight="normal" text-anchor="middle">  H </text>
<text x="91.41" y="25.00" fill="red" font-family="Arial" font-size="7" font-style="normal" font-weight="normal" text-anchor="middle">  O </text>
<text x="167.25" y="38.50" fill="red" font-family="Arial" font-size="7" font-style="normal" font-weight="normal" text-anchor="middle">  O </text>
<text x="100.00" y="143.75" fill="black" font-family="Arial" font-size="15" font-style="normal" font-weight="normal" text-anchor="middle">  SM24_micro028 </text>
</svg>
