<?xml version="1.0" encoding="UTF-8"?>
<!DOCTYPE svg PUBLIC "-//W3C//DTD SVG 1.1//EN"
  "http://www.w3.org/Graphics/SVG/1.1/DTD/svg11.dtd">
<svg xmlns="http://www.w3.org/2000/svg" xmlns:xlink="http://www.w3.org/1999/xlink"   viewBox="0.00 0.00 200.00 150.00">
<!-- Created by OpenEye Scientific Software -->
<!-- Creation Date Mon Nov 19 16:16:16 2018 -->
<line x1="96.37" y1="118.53" x2="90.82" y2="124.63" stroke="black" stroke-width="2" stroke-linejoin="round" stroke-linecap="round" />
<line x1="96.37" y1="118.53" x2="98.03" y2="116.70" stroke="red" stroke-width="2" stroke-linejoin="round" stroke-linecap="round" />
<line x1="99.40" y1="104.57" x2="100.15" y2="106.92" stroke="red" stroke-width="2" stroke-linejoin="round" stroke-linecap="round" />
<line x1="99.40" y1="104.57" x2="96.89" y2="96.71" stroke="black" stroke-width="2" stroke-linejoin="round" stroke-linecap="round" />
<line x1="96.89" y1="96.71" x2="108.07" y2="84.47" stroke="black" stroke-width="2" stroke-linejoin="round" stroke-linecap="round" />
<line x1="95.99" y1="92.30" x2="103.60" y2="83.98" stroke="black" stroke-width="2" stroke-linejoin="round" stroke-linecap="round" />
<line x1="96.89" y1="96.71" x2="80.67" y2="93.24" stroke="black" stroke-width="2" stroke-linejoin="round" stroke-linecap="round" />
<line x1="80.67" y1="93.24" x2="75.64" y2="77.53" stroke="black" stroke-width="2" stroke-linejoin="round" stroke-linecap="round" />
<line x1="83.34" y1="89.62" x2="79.92" y2="78.93" stroke="black" stroke-width="2" stroke-linejoin="round" stroke-linecap="round" />
<line x1="75.64" y1="77.53" x2="86.67" y2="65.26" stroke="black" stroke-width="2" stroke-linejoin="round" stroke-linecap="round" />
<line x1="86.67" y1="65.26" x2="102.88" y2="68.73" stroke="black" stroke-width="2" stroke-linejoin="round" stroke-linecap="round" />
<line x1="88.50" y1="69.37" x2="99.52" y2="71.73" stroke="black" stroke-width="2" stroke-linejoin="round" stroke-linecap="round" />
<line x1="102.88" y1="68.73" x2="108.07" y2="84.47" stroke="black" stroke-width="2" stroke-linejoin="round" stroke-linecap="round" />
<line x1="86.67" y1="65.26" x2="81.57" y2="49.57" stroke="black" stroke-width="2" stroke-linejoin="round" stroke-linecap="round" />
<line x1="81.57" y1="49.57" x2="91.33" y2="36.13" stroke="black" stroke-width="2" stroke-linejoin="round" stroke-linecap="round" />
<line x1="80.19" y1="45.28" x2="86.83" y2="36.14" stroke="black" stroke-width="2" stroke-linejoin="round" stroke-linecap="round" />
<line x1="81.57" y1="49.57" x2="65.77" y2="44.43" stroke="black" stroke-width="2" stroke-linejoin="round" stroke-linecap="round" />
<line x1="65.77" y1="44.43" x2="51.45" y2="52.62" stroke="black" stroke-width="2" stroke-linejoin="round" stroke-linecap="round" />
<line x1="61.67" y1="42.58" x2="51.93" y2="48.15" stroke="black" stroke-width="2" stroke-linejoin="round" stroke-linecap="round" />
<line x1="65.77" y1="44.43" x2="65.77" y2="27.82" stroke="black" stroke-width="2" stroke-linejoin="round" stroke-linecap="round" />
<line x1="58.61" y1="23.63" x2="65.77" y2="27.82" stroke="black" stroke-width="2" stroke-linejoin="round" stroke-linecap="round" />
<line x1="58.61" y1="23.63" x2="57.19" y2="22.80" stroke="blue" stroke-width="2" stroke-linejoin="round" stroke-linecap="round" />
<line x1="56.77" y1="26.77" x2="61.64" y2="29.62" stroke="black" stroke-width="2" stroke-linejoin="round" stroke-linecap="round" />
<line x1="56.77" y1="26.77" x2="51.90" y2="23.92" stroke="blue" stroke-width="2" stroke-linejoin="round" stroke-linecap="round" />
<line x1="44.29" y1="23.63" x2="45.71" y2="22.80" stroke="blue" stroke-width="2" stroke-linejoin="round" stroke-linecap="round" />
<line x1="44.29" y1="23.63" x2="37.13" y2="27.82" stroke="black" stroke-width="2" stroke-linejoin="round" stroke-linecap="round" />
<line x1="37.13" y1="36.12" x2="37.13" y2="27.82" stroke="black" stroke-width="2" stroke-linejoin="round" stroke-linecap="round" />
<line x1="37.13" y1="36.12" x2="37.13" y2="39.23" stroke="blue" stroke-width="2" stroke-linejoin="round" stroke-linecap="round" />
<line x1="40.77" y1="36.12" x2="40.77" y2="30.47" stroke="black" stroke-width="2" stroke-linejoin="round" stroke-linecap="round" />
<line x1="40.77" y1="36.12" x2="40.77" y2="41.76" stroke="blue" stroke-width="2" stroke-linejoin="round" stroke-linecap="round" />
<line x1="44.29" y1="48.52" x2="41.63" y2="46.99" stroke="blue" stroke-width="2" stroke-linejoin="round" stroke-linecap="round" />
<line x1="44.29" y1="48.52" x2="51.45" y2="52.62" stroke="black" stroke-width="2" stroke-linejoin="round" stroke-linecap="round" />
<line x1="51.45" y1="60.87" x2="51.45" y2="52.62" stroke="black" stroke-width="2" stroke-linejoin="round" stroke-linecap="round" />
<line x1="51.45" y1="60.87" x2="51.45" y2="62.46" stroke="blue" stroke-width="2" stroke-linejoin="round" stroke-linecap="round" />
<line x1="44.30" y1="73.24" x2="45.68" y2="72.44" stroke="blue" stroke-width="2" stroke-linejoin="round" stroke-linecap="round" />
<line x1="44.30" y1="73.24" x2="37.15" y2="77.36" stroke="black" stroke-width="2" stroke-linejoin="round" stroke-linecap="round" />
<line x1="37.15" y1="77.36" x2="37.14" y2="93.86" stroke="black" stroke-width="2" stroke-linejoin="round" stroke-linecap="round" />
<line x1="44.28" y1="97.98" x2="37.14" y2="93.86" stroke="black" stroke-width="2" stroke-linejoin="round" stroke-linecap="round" />
<line x1="44.28" y1="97.98" x2="46.42" y2="99.22" stroke="red" stroke-width="2" stroke-linejoin="round" stroke-linecap="round" />
<line x1="73.67" y1="25.25" x2="65.77" y2="27.82" stroke="black" stroke-width="2" stroke-linejoin="round" stroke-linecap="round" />
<line x1="73.67" y1="25.25" x2="76.08" y2="24.47" stroke="red" stroke-width="2" stroke-linejoin="round" stroke-linecap="round" />
<line x1="86.45" y1="29.41" x2="84.97" y2="27.36" stroke="red" stroke-width="2" stroke-linejoin="round" stroke-linecap="round" />
<line x1="86.45" y1="29.41" x2="91.33" y2="36.13" stroke="black" stroke-width="2" stroke-linejoin="round" stroke-linecap="round" />
<line x1="91.33" y1="36.13" x2="107.83" y2="36.12" stroke="black" stroke-width="2" stroke-linejoin="round" stroke-linecap="round" />
<line x1="107.83" y1="36.12" x2="116.14" y2="21.78" stroke="black" stroke-width="2" stroke-linejoin="round" stroke-linecap="round" />
<line x1="112.31" y1="35.65" x2="117.96" y2="25.90" stroke="black" stroke-width="2" stroke-linejoin="round" stroke-linecap="round" />
<line x1="107.83" y1="36.12" x2="116.10" y2="50.40" stroke="black" stroke-width="2" stroke-linejoin="round" stroke-linecap="round" />
<line x1="116.10" y1="50.40" x2="132.60" y2="50.47" stroke="black" stroke-width="2" stroke-linejoin="round" stroke-linecap="round" />
<line x1="118.76" y1="46.77" x2="129.97" y2="46.82" stroke="black" stroke-width="2" stroke-linejoin="round" stroke-linecap="round" />
<line x1="132.60" y1="50.47" x2="140.91" y2="36.12" stroke="black" stroke-width="2" stroke-linejoin="round" stroke-linecap="round" />
<line x1="140.91" y1="36.12" x2="132.72" y2="21.70" stroke="black" stroke-width="2" stroke-linejoin="round" stroke-linecap="round" />
<line x1="136.43" y1="35.61" x2="130.87" y2="25.80" stroke="black" stroke-width="2" stroke-linejoin="round" stroke-linecap="round" />
<line x1="132.72" y1="21.70" x2="116.14" y2="21.78" stroke="black" stroke-width="2" stroke-linejoin="round" stroke-linecap="round" />
<line x1="149.16" y1="36.16" x2="140.91" y2="36.12" stroke="black" stroke-width="2" stroke-linejoin="round" stroke-linecap="round" />
<line x1="149.16" y1="36.16" x2="151.63" y2="36.17" stroke="red" stroke-width="2" stroke-linejoin="round" stroke-linecap="round" />
<line x1="161.50" y1="43.35" x2="160.27" y2="41.21" stroke="red" stroke-width="2" stroke-linejoin="round" stroke-linecap="round" />
<line x1="161.50" y1="43.35" x2="165.59" y2="50.51" stroke="black" stroke-width="2" stroke-linejoin="round" stroke-linecap="round" />
<text x="101.92" y="114.73" fill="red" font-family="Arial" font-size="7" font-style="normal" font-weight="normal" text-anchor="middle">  O </text>
<text x="51.45" y="21.75" fill="blue" font-family="Arial" font-size="7" font-style="normal" font-weight="normal" text-anchor="middle">  N </text>
<text x="51.45" y="16.15" fill="blue" font-family="Arial" font-size="7" font-style="normal" font-weight="normal" text-anchor="middle">  H </text>
<text x="55.10" y="19.44" fill="blue" font-family="Arial" font-size="4" font-style="normal" font-weight="normal" text-anchor="middle">  + </text>
<text x="37.13" y="46.72" fill="blue" font-family="Arial" font-size="7" font-style="normal" font-weight="normal" text-anchor="middle">  N </text>
<text x="51.44" y="71.43" fill="blue" font-family="Arial" font-size="7" font-style="normal" font-weight="normal" text-anchor="middle">  N </text>
<text x="56.34" y="71.43" fill="blue" font-family="Arial" font-size="7" font-style="normal" font-weight="normal" text-anchor="middle">  H </text>
<text x="59.99" y="72.13" fill="blue" font-family="Arial" font-size="4" font-style="normal" font-weight="normal" text-anchor="middle">  2 </text>
<text x="59.99" y="68.68" fill="blue" font-family="Arial" font-size="4" font-style="normal" font-weight="normal" text-anchor="middle">  + </text>
<text x="51.43" y="104.42" fill="red" font-family="Arial" font-size="7" font-style="normal" font-weight="normal" text-anchor="middle">  O </text>
<text x="56.78" y="104.42" fill="red" font-family="Arial" font-size="7" font-style="normal" font-weight="normal" text-anchor="middle">  H </text>
<text x="81.57" y="25.00" fill="red" font-family="Arial" font-size="7" font-style="normal" font-weight="normal" text-anchor="middle">  O </text>
<text x="157.40" y="38.50" fill="red" font-family="Arial" font-size="7" font-style="normal" font-weight="normal" text-anchor="middle">  O </text>
<text x="100.00" y="143.75" fill="black" font-family="Arial" font-size="15" font-style="normal" font-weight="normal" text-anchor="middle">  SM24_micro032 </text>
</svg>
