<?xml version="1.0" encoding="UTF-8"?>
<!DOCTYPE svg PUBLIC "-//W3C//DTD SVG 1.1//EN"
  "http://www.w3.org/Graphics/SVG/1.1/DTD/svg11.dtd">
<svg xmlns="http://www.w3.org/2000/svg" xmlns:xlink="http://www.w3.org/1999/xlink"   viewBox="0.00 0.00 200.00 150.00">
<!-- Created by OpenEye Scientific Software -->
<!-- Creation Date Mon Nov 19 16:16:15 2018 -->
<line x1="103.76" y1="118.53" x2="98.22" y2="124.63" stroke="black" stroke-width="2" stroke-linejoin="round" stroke-linecap="round" />
<line x1="103.76" y1="118.53" x2="105.42" y2="116.70" stroke="red" stroke-width="2" stroke-linejoin="round" stroke-linecap="round" />
<line x1="106.79" y1="104.57" x2="107.55" y2="106.92" stroke="red" stroke-width="2" stroke-linejoin="round" stroke-linecap="round" />
<line x1="106.79" y1="104.57" x2="104.28" y2="96.71" stroke="black" stroke-width="2" stroke-linejoin="round" stroke-linecap="round" />
<line x1="104.28" y1="96.71" x2="115.47" y2="84.47" stroke="black" stroke-width="2" stroke-linejoin="round" stroke-linecap="round" />
<line x1="103.38" y1="92.30" x2="110.99" y2="83.98" stroke="black" stroke-width="2" stroke-linejoin="round" stroke-linecap="round" />
<line x1="104.28" y1="96.71" x2="88.07" y2="93.24" stroke="black" stroke-width="2" stroke-linejoin="round" stroke-linecap="round" />
<line x1="88.07" y1="93.24" x2="83.04" y2="77.53" stroke="black" stroke-width="2" stroke-linejoin="round" stroke-linecap="round" />
<line x1="90.73" y1="89.62" x2="87.31" y2="78.93" stroke="black" stroke-width="2" stroke-linejoin="round" stroke-linecap="round" />
<line x1="83.04" y1="77.53" x2="94.06" y2="65.26" stroke="black" stroke-width="2" stroke-linejoin="round" stroke-linecap="round" />
<line x1="94.06" y1="65.26" x2="110.27" y2="68.73" stroke="black" stroke-width="2" stroke-linejoin="round" stroke-linecap="round" />
<line x1="95.89" y1="69.37" x2="106.92" y2="71.73" stroke="black" stroke-width="2" stroke-linejoin="round" stroke-linecap="round" />
<line x1="110.27" y1="68.73" x2="115.47" y2="84.47" stroke="black" stroke-width="2" stroke-linejoin="round" stroke-linecap="round" />
<line x1="94.06" y1="65.26" x2="88.96" y2="49.57" stroke="black" stroke-width="2" stroke-linejoin="round" stroke-linecap="round" />
<line x1="88.96" y1="49.57" x2="98.73" y2="36.13" stroke="black" stroke-width="2" stroke-linejoin="round" stroke-linecap="round" />
<line x1="87.58" y1="45.28" x2="94.22" y2="36.14" stroke="black" stroke-width="2" stroke-linejoin="round" stroke-linecap="round" />
<line x1="88.96" y1="49.57" x2="73.16" y2="44.43" stroke="black" stroke-width="2" stroke-linejoin="round" stroke-linecap="round" />
<line x1="73.16" y1="44.43" x2="58.84" y2="52.62" stroke="black" stroke-width="2" stroke-linejoin="round" stroke-linecap="round" />
<line x1="73.16" y1="44.43" x2="73.16" y2="27.82" stroke="black" stroke-width="2" stroke-linejoin="round" stroke-linecap="round" />
<line x1="69.52" y1="41.77" x2="69.52" y2="30.48" stroke="black" stroke-width="2" stroke-linejoin="round" stroke-linecap="round" />
<line x1="66.00" y1="23.63" x2="73.16" y2="27.82" stroke="black" stroke-width="2" stroke-linejoin="round" stroke-linecap="round" />
<line x1="66.00" y1="23.63" x2="63.32" y2="22.06" stroke="blue" stroke-width="2" stroke-linejoin="round" stroke-linecap="round" />
<line x1="51.68" y1="23.63" x2="54.37" y2="22.06" stroke="blue" stroke-width="2" stroke-linejoin="round" stroke-linecap="round" />
<line x1="51.68" y1="23.63" x2="44.52" y2="27.82" stroke="black" stroke-width="2" stroke-linejoin="round" stroke-linecap="round" />
<line x1="44.52" y1="36.12" x2="44.52" y2="27.82" stroke="black" stroke-width="2" stroke-linejoin="round" stroke-linecap="round" />
<line x1="44.52" y1="36.12" x2="44.52" y2="39.23" stroke="blue" stroke-width="2" stroke-linejoin="round" stroke-linecap="round" />
<line x1="48.16" y1="36.12" x2="48.16" y2="30.47" stroke="black" stroke-width="2" stroke-linejoin="round" stroke-linecap="round" />
<line x1="48.16" y1="36.12" x2="48.16" y2="41.76" stroke="blue" stroke-width="2" stroke-linejoin="round" stroke-linecap="round" />
<line x1="51.68" y1="48.52" x2="49.02" y2="46.99" stroke="blue" stroke-width="2" stroke-linejoin="round" stroke-linecap="round" />
<line x1="51.68" y1="48.52" x2="58.84" y2="52.62" stroke="black" stroke-width="2" stroke-linejoin="round" stroke-linecap="round" />
<line x1="58.84" y1="60.87" x2="58.84" y2="52.62" stroke="black" stroke-width="2" stroke-linejoin="round" stroke-linecap="round" />
<line x1="58.84" y1="60.87" x2="58.84" y2="62.46" stroke="blue" stroke-width="2" stroke-linejoin="round" stroke-linecap="round" />
<line x1="55.20" y1="60.87" x2="55.20" y2="55.26" stroke="black" stroke-width="2" stroke-linejoin="round" stroke-linecap="round" />
<line x1="55.20" y1="60.87" x2="55.20" y2="66.48" stroke="blue" stroke-width="2" stroke-linejoin="round" stroke-linecap="round" />
<line x1="51.69" y1="73.24" x2="53.07" y2="72.44" stroke="blue" stroke-width="2" stroke-linejoin="round" stroke-linecap="round" />
<line x1="51.69" y1="73.24" x2="44.54" y2="77.36" stroke="black" stroke-width="2" stroke-linejoin="round" stroke-linecap="round" />
<line x1="44.54" y1="77.36" x2="44.54" y2="93.86" stroke="black" stroke-width="2" stroke-linejoin="round" stroke-linecap="round" />
<line x1="37.39" y1="97.98" x2="44.54" y2="93.86" stroke="black" stroke-width="2" stroke-linejoin="round" stroke-linecap="round" />
<line x1="37.39" y1="97.98" x2="36.76" y2="98.34" stroke="red" stroke-width="2" stroke-linejoin="round" stroke-linecap="round" />
<line x1="81.06" y1="25.25" x2="73.16" y2="27.82" stroke="black" stroke-width="2" stroke-linejoin="round" stroke-linecap="round" />
<line x1="81.06" y1="25.25" x2="83.47" y2="24.47" stroke="red" stroke-width="2" stroke-linejoin="round" stroke-linecap="round" />
<line x1="93.84" y1="29.41" x2="92.36" y2="27.36" stroke="red" stroke-width="2" stroke-linejoin="round" stroke-linecap="round" />
<line x1="93.84" y1="29.41" x2="98.73" y2="36.13" stroke="black" stroke-width="2" stroke-linejoin="round" stroke-linecap="round" />
<line x1="98.73" y1="36.13" x2="115.22" y2="36.12" stroke="black" stroke-width="2" stroke-linejoin="round" stroke-linecap="round" />
<line x1="115.22" y1="36.12" x2="123.53" y2="21.78" stroke="black" stroke-width="2" stroke-linejoin="round" stroke-linecap="round" />
<line x1="119.70" y1="35.65" x2="125.35" y2="25.90" stroke="black" stroke-width="2" stroke-linejoin="round" stroke-linecap="round" />
<line x1="115.22" y1="36.12" x2="123.49" y2="50.40" stroke="black" stroke-width="2" stroke-linejoin="round" stroke-linecap="round" />
<line x1="123.49" y1="50.40" x2="139.99" y2="50.47" stroke="black" stroke-width="2" stroke-linejoin="round" stroke-linecap="round" />
<line x1="126.15" y1="46.77" x2="137.37" y2="46.82" stroke="black" stroke-width="2" stroke-linejoin="round" stroke-linecap="round" />
<line x1="139.99" y1="50.47" x2="148.30" y2="36.12" stroke="black" stroke-width="2" stroke-linejoin="round" stroke-linecap="round" />
<line x1="148.30" y1="36.12" x2="140.12" y2="21.70" stroke="black" stroke-width="2" stroke-linejoin="round" stroke-linecap="round" />
<line x1="143.83" y1="35.61" x2="138.26" y2="25.80" stroke="black" stroke-width="2" stroke-linejoin="round" stroke-linecap="round" />
<line x1="140.12" y1="21.70" x2="123.53" y2="21.78" stroke="black" stroke-width="2" stroke-linejoin="round" stroke-linecap="round" />
<line x1="156.55" y1="36.16" x2="148.30" y2="36.12" stroke="black" stroke-width="2" stroke-linejoin="round" stroke-linecap="round" />
<line x1="156.55" y1="36.16" x2="159.02" y2="36.17" stroke="red" stroke-width="2" stroke-linejoin="round" stroke-linecap="round" />
<line x1="168.89" y1="43.35" x2="167.66" y2="41.21" stroke="red" stroke-width="2" stroke-linejoin="round" stroke-linecap="round" />
<line x1="168.89" y1="43.35" x2="172.98" y2="50.51" stroke="black" stroke-width="2" stroke-linejoin="round" stroke-linecap="round" />
<text x="109.31" y="114.73" fill="red" font-family="Arial" font-size="7" font-style="normal" font-weight="normal" text-anchor="middle">  O </text>
<text x="58.84" y="21.75" fill="blue" font-family="Arial" font-size="7" font-style="normal" font-weight="normal" text-anchor="middle">  N </text>
<text x="58.84" y="16.15" fill="blue" font-family="Arial" font-size="7" font-style="normal" font-weight="normal" text-anchor="middle">  H </text>
<text x="44.52" y="46.72" fill="blue" font-family="Arial" font-size="7" font-style="normal" font-weight="normal" text-anchor="middle">  N </text>
<text x="58.83" y="71.43" fill="blue" font-family="Arial" font-size="7" font-style="normal" font-weight="normal" text-anchor="middle">  N </text>
<text x="63.73" y="71.43" fill="blue" font-family="Arial" font-size="7" font-style="normal" font-weight="normal" text-anchor="middle">  H </text>
<text x="67.38" y="68.68" fill="blue" font-family="Arial" font-size="4" font-style="normal" font-weight="normal" text-anchor="middle">  + </text>
<text x="30.25" y="104.41" fill="red" font-family="Arial" font-size="7" font-style="normal" font-weight="normal" text-anchor="middle">  O </text>
<text x="34.35" y="102.10" fill="red" font-family="Arial" font-size="6" font-style="normal" font-weight="normal" text-anchor="middle">  - </text>
<text x="88.96" y="25.00" fill="red" font-family="Arial" font-size="7" font-style="normal" font-weight="normal" text-anchor="middle">  O </text>
<text x="164.80" y="38.50" fill="red" font-family="Arial" font-size="7" font-style="normal" font-weight="normal" text-anchor="middle">  O </text>
<text x="100.00" y="143.75" fill="black" font-family="Arial" font-size="15" font-style="normal" font-weight="normal" text-anchor="middle">  SM24_micro023 </text>
</svg>
