<?xml version="1.0" encoding="UTF-8"?>
<!DOCTYPE svg PUBLIC "-//W3C//DTD SVG 1.1//EN"
  "http://www.w3.org/Graphics/SVG/1.1/DTD/svg11.dtd">
<svg xmlns="http://www.w3.org/2000/svg" xmlns:xlink="http://www.w3.org/1999/xlink"   viewBox="0.00 0.00 164.00 83.00">
<!-- Created by OpenEye Scientific Software -->
<!-- Creation Date Mon Nov 19 16:16:15 2018 -->
<line x1="86.33" y1="72.92" x2="82.69" y2="76.93" stroke="black" stroke-width="2" stroke-linejoin="round" stroke-linecap="round" />
<line x1="86.33" y1="72.92" x2="87.17" y2="72.00" stroke="red" stroke-width="2" stroke-linejoin="round" stroke-linecap="round" />
<line x1="88.32" y1="63.77" x2="88.70" y2="64.96" stroke="red" stroke-width="2" stroke-linejoin="round" stroke-linecap="round" />
<line x1="88.32" y1="63.77" x2="86.67" y2="58.61" stroke="black" stroke-width="2" stroke-linejoin="round" stroke-linecap="round" />
<line x1="86.67" y1="58.61" x2="94.01" y2="50.58" stroke="black" stroke-width="2" stroke-linejoin="round" stroke-linecap="round" />
<line x1="85.83" y1="55.49" x2="90.82" y2="50.03" stroke="black" stroke-width="2" stroke-linejoin="round" stroke-linecap="round" />
<line x1="86.67" y1="58.61" x2="76.04" y2="56.34" stroke="black" stroke-width="2" stroke-linejoin="round" stroke-linecap="round" />
<line x1="76.04" y1="56.34" x2="72.74" y2="46.03" stroke="black" stroke-width="2" stroke-linejoin="round" stroke-linecap="round" />
<line x1="78.11" y1="53.85" x2="75.87" y2="46.85" stroke="black" stroke-width="2" stroke-linejoin="round" stroke-linecap="round" />
<line x1="72.74" y1="46.03" x2="79.97" y2="37.98" stroke="black" stroke-width="2" stroke-linejoin="round" stroke-linecap="round" />
<line x1="79.97" y1="37.98" x2="90.60" y2="40.25" stroke="black" stroke-width="2" stroke-linejoin="round" stroke-linecap="round" />
<line x1="81.10" y1="41.01" x2="88.33" y2="42.56" stroke="black" stroke-width="2" stroke-linejoin="round" stroke-linecap="round" />
<line x1="90.60" y1="40.25" x2="94.01" y2="50.58" stroke="black" stroke-width="2" stroke-linejoin="round" stroke-linecap="round" />
<line x1="79.97" y1="37.98" x2="76.62" y2="27.69" stroke="black" stroke-width="2" stroke-linejoin="round" stroke-linecap="round" />
<line x1="76.62" y1="27.69" x2="83.03" y2="18.87" stroke="black" stroke-width="2" stroke-linejoin="round" stroke-linecap="round" />
<line x1="75.44" y1="24.67" x2="79.79" y2="18.67" stroke="black" stroke-width="2" stroke-linejoin="round" stroke-linecap="round" />
<line x1="76.62" y1="27.69" x2="66.26" y2="24.32" stroke="black" stroke-width="2" stroke-linejoin="round" stroke-linecap="round" />
<line x1="66.26" y1="24.32" x2="66.26" y2="13.42" stroke="black" stroke-width="2" stroke-linejoin="round" stroke-linecap="round" />
<line x1="63.53" y1="22.57" x2="63.53" y2="15.16" stroke="black" stroke-width="2" stroke-linejoin="round" stroke-linecap="round" />
<line x1="66.26" y1="24.32" x2="56.87" y2="29.69" stroke="black" stroke-width="2" stroke-linejoin="round" stroke-linecap="round" />
<line x1="56.86" y1="35.10" x2="56.87" y2="29.69" stroke="black" stroke-width="2" stroke-linejoin="round" stroke-linecap="round" />
<line x1="56.86" y1="35.10" x2="56.86" y2="36.69" stroke="blue" stroke-width="2" stroke-linejoin="round" stroke-linecap="round" />
<line x1="54.13" y1="35.10" x2="54.13" y2="31.42" stroke="black" stroke-width="2" stroke-linejoin="round" stroke-linecap="round" />
<line x1="54.13" y1="35.10" x2="54.13" y2="38.78" stroke="blue" stroke-width="2" stroke-linejoin="round" stroke-linecap="round" />
<line x1="52.17" y1="43.21" x2="53.55" y2="42.42" stroke="blue" stroke-width="2" stroke-linejoin="round" stroke-linecap="round" />
<line x1="52.17" y1="43.21" x2="47.49" y2="45.92" stroke="black" stroke-width="2" stroke-linejoin="round" stroke-linecap="round" />
<line x1="47.49" y1="45.92" x2="47.48" y2="56.74" stroke="black" stroke-width="2" stroke-linejoin="round" stroke-linecap="round" />
<line x1="42.79" y1="59.44" x2="47.48" y2="56.74" stroke="black" stroke-width="2" stroke-linejoin="round" stroke-linecap="round" />
<line x1="42.79" y1="59.44" x2="42.57" y2="59.57" stroke="red" stroke-width="2" stroke-linejoin="round" stroke-linecap="round" />
<line x1="52.17" y1="27.00" x2="56.87" y2="29.69" stroke="black" stroke-width="2" stroke-linejoin="round" stroke-linecap="round" />
<line x1="52.17" y1="27.00" x2="50.79" y2="26.20" stroke="blue" stroke-width="2" stroke-linejoin="round" stroke-linecap="round" />
<line x1="47.47" y1="18.86" x2="47.47" y2="20.48" stroke="blue" stroke-width="2" stroke-linejoin="round" stroke-linecap="round" />
<line x1="47.47" y1="18.86" x2="47.47" y2="13.42" stroke="black" stroke-width="2" stroke-linejoin="round" stroke-linecap="round" />
<line x1="52.17" y1="10.67" x2="47.47" y2="13.42" stroke="black" stroke-width="2" stroke-linejoin="round" stroke-linecap="round" />
<line x1="52.17" y1="10.67" x2="53.57" y2="9.85" stroke="blue" stroke-width="2" stroke-linejoin="round" stroke-linecap="round" />
<line x1="53.55" y1="13.03" x2="50.36" y2="14.90" stroke="black" stroke-width="2" stroke-linejoin="round" stroke-linecap="round" />
<line x1="53.55" y1="13.03" x2="56.74" y2="11.16" stroke="blue" stroke-width="2" stroke-linejoin="round" stroke-linecap="round" />
<line x1="61.56" y1="10.67" x2="60.16" y2="9.85" stroke="blue" stroke-width="2" stroke-linejoin="round" stroke-linecap="round" />
<line x1="61.56" y1="10.67" x2="66.26" y2="13.42" stroke="black" stroke-width="2" stroke-linejoin="round" stroke-linecap="round" />
<line x1="71.44" y1="11.74" x2="66.26" y2="13.42" stroke="black" stroke-width="2" stroke-linejoin="round" stroke-linecap="round" />
<line x1="71.44" y1="11.74" x2="72.67" y2="11.34" stroke="red" stroke-width="2" stroke-linejoin="round" stroke-linecap="round" />
<line x1="79.83" y1="14.46" x2="79.07" y2="13.42" stroke="red" stroke-width="2" stroke-linejoin="round" stroke-linecap="round" />
<line x1="79.83" y1="14.46" x2="83.03" y2="18.87" stroke="black" stroke-width="2" stroke-linejoin="round" stroke-linecap="round" />
<line x1="83.03" y1="18.87" x2="93.85" y2="18.87" stroke="black" stroke-width="2" stroke-linejoin="round" stroke-linecap="round" />
<line x1="93.85" y1="18.87" x2="99.30" y2="9.46" stroke="black" stroke-width="2" stroke-linejoin="round" stroke-linecap="round" />
<line x1="97.09" y1="18.73" x2="100.79" y2="12.33" stroke="black" stroke-width="2" stroke-linejoin="round" stroke-linecap="round" />
<line x1="93.85" y1="18.87" x2="99.27" y2="28.23" stroke="black" stroke-width="2" stroke-linejoin="round" stroke-linecap="round" />
<line x1="99.27" y1="28.23" x2="110.10" y2="28.28" stroke="black" stroke-width="2" stroke-linejoin="round" stroke-linecap="round" />
<line x1="101.02" y1="25.51" x2="108.38" y2="25.54" stroke="black" stroke-width="2" stroke-linejoin="round" stroke-linecap="round" />
<line x1="110.10" y1="28.28" x2="115.55" y2="18.87" stroke="black" stroke-width="2" stroke-linejoin="round" stroke-linecap="round" />
<line x1="115.55" y1="18.87" x2="110.18" y2="9.41" stroke="black" stroke-width="2" stroke-linejoin="round" stroke-linecap="round" />
<line x1="112.31" y1="18.70" x2="108.66" y2="12.27" stroke="black" stroke-width="2" stroke-linejoin="round" stroke-linecap="round" />
<line x1="110.18" y1="9.41" x2="99.30" y2="9.46" stroke="black" stroke-width="2" stroke-linejoin="round" stroke-linecap="round" />
<line x1="120.96" y1="18.89" x2="115.55" y2="18.87" stroke="black" stroke-width="2" stroke-linejoin="round" stroke-linecap="round" />
<line x1="120.96" y1="18.89" x2="122.21" y2="18.89" stroke="red" stroke-width="2" stroke-linejoin="round" stroke-linecap="round" />
<line x1="129.05" y1="23.61" x2="128.43" y2="22.52" stroke="red" stroke-width="2" stroke-linejoin="round" stroke-linecap="round" />
<line x1="129.05" y1="23.61" x2="131.74" y2="28.31" stroke="black" stroke-width="2" stroke-linejoin="round" stroke-linecap="round" />
<text x="89.97" y="70.24" fill="red" font-family="Arial" font-size="4" font-style="normal" font-weight="normal" text-anchor="middle">  O </text>
<text x="56.86" y="41.83" fill="blue" font-family="Arial" font-size="4" font-style="normal" font-weight="normal" text-anchor="middle">  N </text>
<text x="38.11" y="63.46" fill="red" font-family="Arial" font-size="4" font-style="normal" font-weight="normal" text-anchor="middle">  O </text>
<text x="33.85" y="63.46" fill="red" font-family="Arial" font-size="4" font-style="normal" font-weight="normal" text-anchor="middle">  H </text>
<text x="35.85" y="63.86" fill="red" font-family="Arial" font-size="2" font-style="normal" font-weight="normal" text-anchor="middle">  2 </text>
<text x="40.37" y="61.89" fill="red" font-family="Arial" font-size="2" font-style="normal" font-weight="normal" text-anchor="middle">  + </text>
<text x="47.47" y="25.62" fill="blue" font-family="Arial" font-size="4" font-style="normal" font-weight="normal" text-anchor="middle">  N </text>
<text x="44.67" y="25.62" fill="blue" font-family="Arial" font-size="4" font-style="normal" font-weight="normal" text-anchor="middle">  H </text>
<text x="56.87" y="9.24" fill="blue" font-family="Arial" font-size="4" font-style="normal" font-weight="normal" text-anchor="middle">  N </text>
<text x="76.62" y="11.37" fill="red" font-family="Arial" font-size="4" font-style="normal" font-weight="normal" text-anchor="middle">  O </text>
<text x="126.37" y="20.23" fill="red" font-family="Arial" font-size="4" font-style="normal" font-weight="normal" text-anchor="middle">  O </text>
</svg>
