<?xml version="1.0" encoding="utf-8" standalone="no"?>
<!DOCTYPE svg PUBLIC "-//W3C//DTD SVG 1.1//EN"
  "http://www.w3.org/Graphics/SVG/1.1/DTD/svg11.dtd">
<!-- Created with matplotlib (http://matplotlib.org/) -->
<svg height="159.84pt" version="1.1" viewBox="0 0 230.4 159.84" width="230.4pt" xmlns="http://www.w3.org/2000/svg" xmlns:xlink="http://www.w3.org/1999/xlink">
 <defs>
  <style type="text/css">
*{stroke-linecap:butt;stroke-linejoin:round;}
  </style>
 </defs>
 <g id="figure_1">
  <g id="patch_1">
   <path d="M 0 159.84 
L 230.4 159.84 
L 230.4 0 
L 0 0 
z
" style="fill:#ffffff;"/>
  </g>
  <g id="axes_1">
   <g id="patch_2">
    <path d="M 51.05 120.04 
L 214.015179 120.04 
L 214.015179 14.383174 
L 51.05 14.383174 
z
" style="fill:#ffffff;"/>
   </g>
   <g id="matplotlib.axis_1">
    <g id="xtick_1">
     <g id="line2d_1">
      <defs>
       <path d="M 0 0 
L 0 3.5 
" id="mf7293b0975" style="stroke:#262626;stroke-width:0.8;"/>
      </defs>
      <g>
       <use style="fill:#262626;stroke:#262626;stroke-width:0.8;" x="51.05" xlink:href="#mf7293b0975" y="120.04"/>
      </g>
     </g>
     <g id="text_1">
      <!-- 2 -->
      <defs>
       <path d="M 50.34375 8.453125 
L 50.34375 0 
L 3.03125 0 
Q 2.9375 3.171875 4.046875 6.109375 
Q 5.859375 10.9375 9.828125 15.625 
Q 13.8125 20.3125 21.34375 26.46875 
Q 33.015625 36.03125 37.109375 41.625 
Q 41.21875 47.21875 41.21875 52.203125 
Q 41.21875 57.421875 37.46875 61 
Q 33.734375 64.59375 27.734375 64.59375 
Q 21.390625 64.59375 17.578125 60.78125 
Q 13.765625 56.984375 13.71875 50.25 
L 4.6875 51.171875 
Q 5.609375 61.28125 11.65625 66.578125 
Q 17.71875 71.875 27.9375 71.875 
Q 38.234375 71.875 44.234375 66.15625 
Q 50.25 60.453125 50.25 52 
Q 50.25 47.703125 48.484375 43.546875 
Q 46.734375 39.40625 42.65625 34.8125 
Q 38.578125 30.21875 29.109375 22.21875 
Q 21.1875 15.578125 18.9375 13.203125 
Q 16.703125 10.84375 15.234375 8.453125 
z
" id="ArialMT-32"/>
      </defs>
      <g style="fill:#262626;" transform="translate(48.269531 134.197812)scale(0.1 -0.1)">
       <use xlink:href="#ArialMT-32"/>
      </g>
     </g>
    </g>
    <g id="xtick_2">
     <g id="line2d_2">
      <g>
       <use style="fill:#262626;stroke:#262626;stroke-width:0.8;" x="83.643036" xlink:href="#mf7293b0975" y="120.04"/>
      </g>
     </g>
     <g id="text_2">
      <!-- 4 -->
      <defs>
       <path d="M 32.328125 0 
L 32.328125 17.140625 
L 1.265625 17.140625 
L 1.265625 25.203125 
L 33.9375 71.578125 
L 41.109375 71.578125 
L 41.109375 25.203125 
L 50.78125 25.203125 
L 50.78125 17.140625 
L 41.109375 17.140625 
L 41.109375 0 
z
M 32.328125 25.203125 
L 32.328125 57.46875 
L 9.90625 25.203125 
z
" id="ArialMT-34"/>
      </defs>
      <g style="fill:#262626;" transform="translate(80.862567 134.197812)scale(0.1 -0.1)">
       <use xlink:href="#ArialMT-34"/>
      </g>
     </g>
    </g>
    <g id="xtick_3">
     <g id="line2d_3">
      <g>
       <use style="fill:#262626;stroke:#262626;stroke-width:0.8;" x="116.236071" xlink:href="#mf7293b0975" y="120.04"/>
      </g>
     </g>
     <g id="text_3">
      <!-- 6 -->
      <defs>
       <path d="M 49.75 54.046875 
L 41.015625 53.375 
Q 39.84375 58.546875 37.703125 60.890625 
Q 34.125 64.65625 28.90625 64.65625 
Q 24.703125 64.65625 21.53125 62.3125 
Q 17.390625 59.28125 14.984375 53.46875 
Q 12.59375 47.65625 12.5 36.921875 
Q 15.671875 41.75 20.265625 44.09375 
Q 24.859375 46.4375 29.890625 46.4375 
Q 38.671875 46.4375 44.84375 39.96875 
Q 51.03125 33.5 51.03125 23.25 
Q 51.03125 16.5 48.125 10.71875 
Q 45.21875 4.9375 40.140625 1.859375 
Q 35.0625 -1.21875 28.609375 -1.21875 
Q 17.625 -1.21875 10.6875 6.859375 
Q 3.765625 14.9375 3.765625 33.5 
Q 3.765625 54.25 11.421875 63.671875 
Q 18.109375 71.875 29.4375 71.875 
Q 37.890625 71.875 43.28125 67.140625 
Q 48.6875 62.40625 49.75 54.046875 
z
M 13.875 23.1875 
Q 13.875 18.65625 15.796875 14.5 
Q 17.71875 10.359375 21.1875 8.171875 
Q 24.65625 6 28.46875 6 
Q 34.03125 6 38.03125 10.484375 
Q 42.046875 14.984375 42.046875 22.703125 
Q 42.046875 30.125 38.078125 34.390625 
Q 34.125 38.671875 28.125 38.671875 
Q 22.171875 38.671875 18.015625 34.390625 
Q 13.875 30.125 13.875 23.1875 
z
" id="ArialMT-36"/>
      </defs>
      <g style="fill:#262626;" transform="translate(113.455603 134.197812)scale(0.1 -0.1)">
       <use xlink:href="#ArialMT-36"/>
      </g>
     </g>
    </g>
    <g id="xtick_4">
     <g id="line2d_4">
      <g>
       <use style="fill:#262626;stroke:#262626;stroke-width:0.8;" x="148.829107" xlink:href="#mf7293b0975" y="120.04"/>
      </g>
     </g>
     <g id="text_4">
      <!-- 8 -->
      <defs>
       <path d="M 17.671875 38.8125 
Q 12.203125 40.828125 9.5625 44.53125 
Q 6.9375 48.25 6.9375 53.421875 
Q 6.9375 61.234375 12.546875 66.546875 
Q 18.171875 71.875 27.484375 71.875 
Q 36.859375 71.875 42.578125 66.421875 
Q 48.296875 60.984375 48.296875 53.171875 
Q 48.296875 48.1875 45.671875 44.5 
Q 43.0625 40.828125 37.75 38.8125 
Q 44.34375 36.671875 47.78125 31.875 
Q 51.21875 27.09375 51.21875 20.453125 
Q 51.21875 11.28125 44.71875 5.03125 
Q 38.234375 -1.21875 27.640625 -1.21875 
Q 17.046875 -1.21875 10.546875 5.046875 
Q 4.046875 11.328125 4.046875 20.703125 
Q 4.046875 27.6875 7.59375 32.390625 
Q 11.140625 37.109375 17.671875 38.8125 
z
M 15.921875 53.71875 
Q 15.921875 48.640625 19.1875 45.40625 
Q 22.46875 42.1875 27.6875 42.1875 
Q 32.765625 42.1875 36.015625 45.375 
Q 39.265625 48.578125 39.265625 53.21875 
Q 39.265625 58.0625 35.90625 61.359375 
Q 32.5625 64.65625 27.59375 64.65625 
Q 22.5625 64.65625 19.234375 61.421875 
Q 15.921875 58.203125 15.921875 53.71875 
z
M 13.09375 20.65625 
Q 13.09375 16.890625 14.875 13.375 
Q 16.65625 9.859375 20.171875 7.921875 
Q 23.6875 6 27.734375 6 
Q 34.03125 6 38.125 10.046875 
Q 42.234375 14.109375 42.234375 20.359375 
Q 42.234375 26.703125 38.015625 30.859375 
Q 33.796875 35.015625 27.4375 35.015625 
Q 21.234375 35.015625 17.15625 30.90625 
Q 13.09375 26.8125 13.09375 20.65625 
z
" id="ArialMT-38"/>
      </defs>
      <g style="fill:#262626;" transform="translate(146.048638 134.197812)scale(0.1 -0.1)">
       <use xlink:href="#ArialMT-38"/>
      </g>
     </g>
    </g>
    <g id="xtick_5">
     <g id="line2d_5">
      <g>
       <use style="fill:#262626;stroke:#262626;stroke-width:0.8;" x="181.422143" xlink:href="#mf7293b0975" y="120.04"/>
      </g>
     </g>
     <g id="text_5">
      <!-- 10 -->
      <defs>
       <path d="M 37.25 0 
L 28.46875 0 
L 28.46875 56 
Q 25.296875 52.984375 20.140625 49.953125 
Q 14.984375 46.921875 10.890625 45.40625 
L 10.890625 53.90625 
Q 18.265625 57.375 23.78125 62.296875 
Q 29.296875 67.234375 31.59375 71.875 
L 37.25 71.875 
z
" id="ArialMT-31"/>
       <path d="M 4.15625 35.296875 
Q 4.15625 48 6.765625 55.734375 
Q 9.375 63.484375 14.515625 67.671875 
Q 19.671875 71.875 27.484375 71.875 
Q 33.25 71.875 37.59375 69.546875 
Q 41.9375 67.234375 44.765625 62.859375 
Q 47.609375 58.5 49.21875 52.21875 
Q 50.828125 45.953125 50.828125 35.296875 
Q 50.828125 22.703125 48.234375 14.96875 
Q 45.65625 7.234375 40.5 3 
Q 35.359375 -1.21875 27.484375 -1.21875 
Q 17.140625 -1.21875 11.234375 6.203125 
Q 4.15625 15.140625 4.15625 35.296875 
z
M 13.1875 35.296875 
Q 13.1875 17.671875 17.3125 11.828125 
Q 21.4375 6 27.484375 6 
Q 33.546875 6 37.671875 11.859375 
Q 41.796875 17.71875 41.796875 35.296875 
Q 41.796875 52.984375 37.671875 58.78125 
Q 33.546875 64.59375 27.390625 64.59375 
Q 21.34375 64.59375 17.71875 59.46875 
Q 13.1875 52.9375 13.1875 35.296875 
z
" id="ArialMT-30"/>
      </defs>
      <g style="fill:#262626;" transform="translate(175.861205 134.197812)scale(0.1 -0.1)">
       <use xlink:href="#ArialMT-31"/>
       <use x="55.615234" xlink:href="#ArialMT-30"/>
      </g>
     </g>
    </g>
    <g id="xtick_6">
     <g id="line2d_6">
      <g>
       <use style="fill:#262626;stroke:#262626;stroke-width:0.8;" x="214.015179" xlink:href="#mf7293b0975" y="120.04"/>
      </g>
     </g>
     <g id="text_6">
      <!-- 12 -->
      <g style="fill:#262626;" transform="translate(208.454241 134.197812)scale(0.1 -0.1)">
       <use xlink:href="#ArialMT-31"/>
       <use x="55.615234" xlink:href="#ArialMT-32"/>
      </g>
     </g>
    </g>
    <g id="text_7">
     <!-- pH -->
     <defs>
      <path d="M 6.59375 -19.875 
L 6.59375 51.859375 
L 14.59375 51.859375 
L 14.59375 45.125 
Q 17.4375 49.078125 21 51.046875 
Q 24.5625 53.03125 29.640625 53.03125 
Q 36.28125 53.03125 41.359375 49.609375 
Q 46.4375 46.1875 49.015625 39.953125 
Q 51.609375 33.734375 51.609375 26.3125 
Q 51.609375 18.359375 48.75 11.984375 
Q 45.90625 5.609375 40.453125 2.21875 
Q 35.015625 -1.171875 29 -1.171875 
Q 24.609375 -1.171875 21.109375 0.6875 
Q 17.625 2.546875 15.375 5.375 
L 15.375 -19.875 
z
M 14.546875 25.640625 
Q 14.546875 15.625 18.59375 10.84375 
Q 22.65625 6.0625 28.421875 6.0625 
Q 34.28125 6.0625 38.453125 11.015625 
Q 42.625 15.96875 42.625 26.375 
Q 42.625 36.28125 38.546875 41.203125 
Q 34.46875 46.140625 28.8125 46.140625 
Q 23.1875 46.140625 18.859375 40.890625 
Q 14.546875 35.640625 14.546875 25.640625 
z
" id="ArialMT-70"/>
      <path d="M 8.015625 0 
L 8.015625 71.578125 
L 17.484375 71.578125 
L 17.484375 42.1875 
L 54.6875 42.1875 
L 54.6875 71.578125 
L 64.15625 71.578125 
L 64.15625 0 
L 54.6875 0 
L 54.6875 33.734375 
L 17.484375 33.734375 
L 17.484375 0 
z
" id="ArialMT-48"/>
     </defs>
     <g style="fill:#262626;" transform="translate(126.141183 147.343125)scale(0.1 -0.1)">
      <use xlink:href="#ArialMT-70"/>
      <use x="55.615234" xlink:href="#ArialMT-48"/>
     </g>
    </g>
   </g>
   <g id="matplotlib.axis_2">
    <g id="ytick_1">
     <g id="line2d_7">
      <defs>
       <path d="M 0 0 
L -3.5 0 
" id="me6146c4bfa" style="stroke:#262626;stroke-width:0.8;"/>
      </defs>
      <g>
       <use style="fill:#262626;stroke:#262626;stroke-width:0.8;" x="51.05" xlink:href="#me6146c4bfa" y="92.131283"/>
      </g>
     </g>
     <g id="text_8">
      <!-- 0 -->
      <g style="fill:#262626;" transform="translate(38.489062 95.71019)scale(0.1 -0.1)">
       <use xlink:href="#ArialMT-30"/>
      </g>
     </g>
    </g>
    <g id="ytick_2">
     <g id="line2d_8">
      <g>
       <use style="fill:#262626;stroke:#262626;stroke-width:0.8;" x="51.05" xlink:href="#me6146c4bfa" y="53.236453"/>
      </g>
     </g>
     <g id="text_9">
      <!-- 20 -->
      <g style="fill:#262626;" transform="translate(32.928125 56.815359)scale(0.1 -0.1)">
       <use xlink:href="#ArialMT-32"/>
       <use x="55.615234" xlink:href="#ArialMT-30"/>
      </g>
     </g>
    </g>
    <g id="ytick_3">
     <g id="line2d_9">
      <g>
       <use style="fill:#262626;stroke:#262626;stroke-width:0.8;" x="51.05" xlink:href="#me6146c4bfa" y="14.341622"/>
      </g>
     </g>
     <g id="text_10">
      <!-- 40 -->
      <g style="fill:#262626;" transform="translate(32.928125 17.920528)scale(0.1 -0.1)">
       <use xlink:href="#ArialMT-34"/>
       <use x="55.615234" xlink:href="#ArialMT-30"/>
      </g>
     </g>
    </g>
    <g id="text_11">
     <!-- Free energy ($k_B T$) -->
     <defs>
      <path d="M 8.203125 0 
L 8.203125 71.578125 
L 56.5 71.578125 
L 56.5 63.140625 
L 17.671875 63.140625 
L 17.671875 40.96875 
L 51.265625 40.96875 
L 51.265625 32.515625 
L 17.671875 32.515625 
L 17.671875 0 
z
" id="ArialMT-46"/>
      <path d="M 6.5 0 
L 6.5 51.859375 
L 14.40625 51.859375 
L 14.40625 44 
Q 17.4375 49.515625 20 51.265625 
Q 22.5625 53.03125 25.640625 53.03125 
Q 30.078125 53.03125 34.671875 50.203125 
L 31.640625 42.046875 
Q 28.421875 43.953125 25.203125 43.953125 
Q 22.3125 43.953125 20.015625 42.21875 
Q 17.71875 40.484375 16.75 37.40625 
Q 15.28125 32.71875 15.28125 27.15625 
L 15.28125 0 
z
" id="ArialMT-72"/>
      <path d="M 42.09375 16.703125 
L 51.171875 15.578125 
Q 49.03125 7.625 43.21875 3.21875 
Q 37.40625 -1.171875 28.375 -1.171875 
Q 17 -1.171875 10.328125 5.828125 
Q 3.65625 12.84375 3.65625 25.484375 
Q 3.65625 38.578125 10.390625 45.796875 
Q 17.140625 53.03125 27.875 53.03125 
Q 38.28125 53.03125 44.875 45.953125 
Q 51.46875 38.875 51.46875 26.03125 
Q 51.46875 25.25 51.421875 23.6875 
L 12.75 23.6875 
Q 13.234375 15.140625 17.578125 10.59375 
Q 21.921875 6.0625 28.421875 6.0625 
Q 33.25 6.0625 36.671875 8.59375 
Q 40.09375 11.140625 42.09375 16.703125 
z
M 13.234375 30.90625 
L 42.1875 30.90625 
Q 41.609375 37.453125 38.875 40.71875 
Q 34.671875 45.796875 27.984375 45.796875 
Q 21.921875 45.796875 17.796875 41.75 
Q 13.671875 37.703125 13.234375 30.90625 
z
" id="ArialMT-65"/>
      <path id="ArialMT-20"/>
      <path d="M 6.59375 0 
L 6.59375 51.859375 
L 14.5 51.859375 
L 14.5 44.484375 
Q 20.21875 53.03125 31 53.03125 
Q 35.6875 53.03125 39.625 51.34375 
Q 43.5625 49.65625 45.515625 46.921875 
Q 47.46875 44.1875 48.25 40.4375 
Q 48.734375 37.984375 48.734375 31.890625 
L 48.734375 0 
L 39.9375 0 
L 39.9375 31.546875 
Q 39.9375 36.921875 38.90625 39.578125 
Q 37.890625 42.234375 35.28125 43.8125 
Q 32.671875 45.40625 29.15625 45.40625 
Q 23.53125 45.40625 19.453125 41.84375 
Q 15.375 38.28125 15.375 28.328125 
L 15.375 0 
z
" id="ArialMT-6e"/>
      <path d="M 4.984375 -4.296875 
L 13.53125 -5.5625 
Q 14.0625 -9.515625 16.5 -11.328125 
Q 19.78125 -13.765625 25.4375 -13.765625 
Q 31.546875 -13.765625 34.859375 -11.328125 
Q 38.1875 -8.890625 39.359375 -4.5 
Q 40.046875 -1.8125 39.984375 6.78125 
Q 34.234375 0 25.640625 0 
Q 14.9375 0 9.078125 7.71875 
Q 3.21875 15.4375 3.21875 26.21875 
Q 3.21875 33.640625 5.90625 39.90625 
Q 8.59375 46.1875 13.6875 49.609375 
Q 18.796875 53.03125 25.6875 53.03125 
Q 34.859375 53.03125 40.828125 45.609375 
L 40.828125 51.859375 
L 48.921875 51.859375 
L 48.921875 7.03125 
Q 48.921875 -5.078125 46.453125 -10.125 
Q 44 -15.1875 38.640625 -18.109375 
Q 33.296875 -21.046875 25.484375 -21.046875 
Q 16.21875 -21.046875 10.5 -16.875 
Q 4.78125 -12.703125 4.984375 -4.296875 
z
M 12.25 26.859375 
Q 12.25 16.65625 16.296875 11.96875 
Q 20.359375 7.28125 26.46875 7.28125 
Q 32.515625 7.28125 36.609375 11.9375 
Q 40.71875 16.609375 40.71875 26.5625 
Q 40.71875 36.078125 36.5 40.90625 
Q 32.28125 45.75 26.3125 45.75 
Q 20.453125 45.75 16.34375 40.984375 
Q 12.25 36.234375 12.25 26.859375 
z
" id="ArialMT-67"/>
      <path d="M 6.203125 -19.96875 
L 5.21875 -11.71875 
Q 8.109375 -12.5 10.25 -12.5 
Q 13.1875 -12.5 14.9375 -11.515625 
Q 16.703125 -10.546875 17.828125 -8.796875 
Q 18.65625 -7.46875 20.515625 -2.25 
Q 20.75 -1.515625 21.296875 -0.09375 
L 1.609375 51.859375 
L 11.078125 51.859375 
L 21.875 21.828125 
Q 23.96875 16.109375 25.640625 9.8125 
Q 27.15625 15.875 29.25 21.625 
L 40.328125 51.859375 
L 49.125 51.859375 
L 29.390625 -0.875 
Q 26.21875 -9.421875 24.46875 -12.640625 
Q 22.125 -17 19.09375 -19.015625 
Q 16.0625 -21.046875 11.859375 -21.046875 
Q 9.328125 -21.046875 6.203125 -19.96875 
z
" id="ArialMT-79"/>
      <path d="M 23.390625 -21.046875 
Q 16.109375 -11.859375 11.078125 0.4375 
Q 6.0625 12.75 6.0625 25.921875 
Q 6.0625 37.546875 9.8125 48.1875 
Q 14.203125 60.546875 23.390625 72.796875 
L 29.6875 72.796875 
Q 23.78125 62.640625 21.875 58.296875 
Q 18.890625 51.5625 17.1875 44.234375 
Q 15.09375 35.109375 15.09375 25.875 
Q 15.09375 2.390625 29.6875 -21.046875 
z
" id="ArialMT-28"/>
      <path d="M 18.3125 75.984375 
L 27.296875 75.984375 
L 18.703125 31.6875 
L 49.515625 54.6875 
L 61.1875 54.6875 
L 26.8125 28.515625 
L 51.90625 0 
L 41.015625 0 
L 17.671875 26.703125 
L 12.5 0 
L 3.515625 0 
z
" id="DejaVuSans-Oblique-6b"/>
      <path d="M 16.890625 72.90625 
L 42.09375 72.90625 
Q 52.34375 72.90625 57.421875 69.09375 
Q 62.5 65.28125 62.5 57.625 
Q 62.5 50.59375 58.125 45.484375 
Q 53.765625 40.375 46.6875 39.3125 
Q 52.734375 37.9375 55.765625 34.078125 
Q 58.796875 30.21875 58.796875 23.78125 
Q 58.796875 12.796875 50.65625 6.390625 
Q 42.53125 0 28.421875 0 
L 2.6875 0 
z
M 19.28125 34.8125 
L 14.109375 8.109375 
L 29.984375 8.109375 
Q 38.921875 8.109375 43.75 12.203125 
Q 48.578125 16.3125 48.578125 23.78125 
Q 48.578125 29.546875 45.375 32.171875 
Q 42.1875 34.8125 35.109375 34.8125 
z
M 25.09375 64.796875 
L 20.796875 42.828125 
L 35.5 42.828125 
Q 43.359375 42.828125 47.78125 46.234375 
Q 52.203125 49.65625 52.203125 55.71875 
Q 52.203125 60.453125 49.21875 62.625 
Q 46.234375 64.796875 39.703125 64.796875 
z
" id="DejaVuSans-Oblique-42"/>
      <path d="M 5.90625 72.90625 
L 67.578125 72.90625 
L 66.015625 64.59375 
L 39.984375 64.59375 
L 27.484375 0 
L 17.578125 0 
L 30.078125 64.59375 
L 4.296875 64.59375 
z
" id="DejaVuSans-Oblique-54"/>
      <path d="M 12.359375 -21.046875 
L 6.0625 -21.046875 
Q 20.65625 2.390625 20.65625 25.875 
Q 20.65625 35.0625 18.5625 44.09375 
Q 16.890625 51.421875 13.921875 58.15625 
Q 12.015625 62.546875 6.0625 72.796875 
L 12.359375 72.796875 
Q 21.53125 60.546875 25.921875 48.1875 
Q 29.6875 37.546875 29.6875 25.921875 
Q 29.6875 12.75 24.625 0.4375 
Q 19.578125 -11.859375 12.359375 -21.046875 
z
" id="ArialMT-29"/>
     </defs>
     <g style="fill:#262626;" transform="translate(26.728125 107.411587)rotate(-90)scale(0.1 -0.1)">
      <use transform="translate(0 0.015625)" xlink:href="#ArialMT-46"/>
      <use transform="translate(61.083984 0.015625)" xlink:href="#ArialMT-72"/>
      <use transform="translate(94.384766 0.015625)" xlink:href="#ArialMT-65"/>
      <use transform="translate(150 0.015625)" xlink:href="#ArialMT-65"/>
      <use transform="translate(205.615234 0.015625)" xlink:href="#ArialMT-20"/>
      <use transform="translate(233.398438 0.015625)" xlink:href="#ArialMT-65"/>
      <use transform="translate(289.013672 0.015625)" xlink:href="#ArialMT-6e"/>
      <use transform="translate(344.628906 0.015625)" xlink:href="#ArialMT-65"/>
      <use transform="translate(400.244141 0.015625)" xlink:href="#ArialMT-72"/>
      <use transform="translate(433.544922 0.015625)" xlink:href="#ArialMT-67"/>
      <use transform="translate(489.160156 0.015625)" xlink:href="#ArialMT-79"/>
      <use transform="translate(539.160156 0.015625)" xlink:href="#ArialMT-20"/>
      <use transform="translate(566.943359 0.015625)" xlink:href="#ArialMT-28"/>
      <use transform="translate(600.244141 0.015625)" xlink:href="#DejaVuSans-Oblique-6b"/>
      <use transform="translate(658.154297 -16.390625)scale(0.7)" xlink:href="#DejaVuSans-Oblique-42"/>
      <use transform="translate(708.911133 0.015625)" xlink:href="#DejaVuSans-Oblique-54"/>
      <use transform="translate(769.995117 0.015625)" xlink:href="#ArialMT-29"/>
     </g>
    </g>
   </g>
   <g id="line2d_10">
    <path clip-path="url(#p298a0e7468)" d="M 51.05 92.131283 
L 52.679652 92.131283 
L 54.309304 92.131283 
L 55.938955 92.131283 
L 57.568607 92.131283 
L 59.198259 92.131283 
L 60.827911 92.131283 
L 62.457563 92.131283 
L 64.087214 92.131283 
L 65.716866 92.131283 
L 67.346518 92.131283 
L 68.97617 92.131283 
L 70.605821 92.131283 
L 72.235473 92.131283 
L 73.865125 92.131283 
L 75.494777 92.131283 
L 77.124429 92.131283 
L 78.75408 92.131283 
L 80.383732 92.131283 
L 82.013384 92.131283 
L 83.643036 92.131283 
L 85.272687 92.131283 
L 86.902339 92.131283 
L 88.531991 92.131283 
L 90.161643 92.131283 
L 91.791295 92.131283 
L 93.420946 92.131283 
L 95.050598 92.131283 
L 96.68025 92.131283 
L 98.309902 92.131283 
L 99.939554 92.131283 
L 101.569205 92.131283 
L 103.198857 92.131283 
L 104.828509 92.131283 
L 106.458161 92.131283 
L 108.087812 92.131283 
L 109.717464 92.131283 
L 111.347116 92.131283 
L 112.976768 92.131283 
L 114.60642 92.131283 
L 116.236071 92.131283 
L 117.865723 92.131283 
L 119.495375 92.131283 
L 121.125027 92.131283 
L 122.754679 92.131283 
L 124.38433 92.131283 
L 126.013982 92.131283 
L 127.643634 92.131283 
L 129.273286 92.131283 
L 130.902938 92.131283 
L 132.532589 92.131283 
L 134.162241 92.131283 
L 135.791893 92.131283 
L 137.421545 92.131283 
L 139.051196 92.131283 
L 140.680848 92.131283 
L 142.3105 92.131283 
L 143.940152 92.131283 
L 145.569804 92.131283 
L 147.199455 92.131283 
L 148.829107 92.131283 
L 150.458759 92.131283 
L 152.088411 92.131283 
L 153.718063 92.131283 
L 155.347714 92.131283 
L 156.977366 92.131283 
L 158.607018 92.131283 
L 160.23667 92.131283 
L 161.866321 92.131283 
L 163.495973 92.131283 
L 165.125625 92.131283 
L 166.755277 92.131283 
L 168.384929 92.131283 
L 170.01458 92.131283 
L 171.644232 92.131283 
L 173.273884 92.131283 
L 174.903536 92.131283 
L 176.533187 92.131283 
L 178.162839 92.131283 
L 179.792491 92.131283 
L 181.422143 92.131283 
L 183.051795 92.131283 
L 184.681446 92.131283 
L 186.311098 92.131283 
L 187.94075 92.131283 
L 189.570402 92.131283 
L 191.200054 92.131283 
L 192.829705 92.131283 
L 194.459357 92.131283 
L 196.089009 92.131283 
L 197.718661 92.131283 
L 199.348312 92.131283 
L 200.977964 92.131283 
L 202.607616 92.131283 
L 204.237268 92.131283 
L 205.86692 92.131283 
L 207.496571 92.131283 
L 209.126223 92.131283 
L 210.755875 92.131283 
L 212.385527 92.131283 
L 214.015179 92.131283 
" style="fill:none;stroke:#333333;stroke-linecap:round;stroke-width:2;"/>
   </g>
   <g id="line2d_11">
    <path clip-path="url(#p298a0e7468)" d="M 51.05 106.908462 
L 52.679652 106.460669 
L 54.309304 106.012875 
L 55.938955 105.565082 
L 57.568607 105.117289 
L 59.198259 104.669495 
L 60.827911 104.221702 
L 62.457563 103.773909 
L 64.087214 103.326116 
L 65.716866 102.878322 
L 67.346518 102.430529 
L 68.97617 101.982736 
L 70.605821 101.534942 
L 72.235473 101.087149 
L 73.865125 100.639356 
L 75.494777 100.191563 
L 77.124429 99.743769 
L 78.75408 99.295976 
L 80.383732 98.848183 
L 82.013384 98.400389 
L 83.643036 97.952596 
L 85.272687 97.504803 
L 86.902339 97.05701 
L 88.531991 96.609216 
L 90.161643 96.161423 
L 91.791295 95.71363 
L 93.420946 95.265836 
L 95.050598 94.818043 
L 96.68025 94.37025 
L 98.309902 93.922457 
L 99.939554 93.474663 
L 101.569205 93.02687 
L 103.198857 92.579077 
L 104.828509 92.131283 
L 106.458161 91.68349 
L 108.087812 91.235697 
L 109.717464 90.787904 
L 111.347116 90.34011 
L 112.976768 89.892317 
L 114.60642 89.444524 
L 116.236071 88.99673 
L 117.865723 88.548937 
L 119.495375 88.101144 
L 121.125027 87.653351 
L 122.754679 87.205557 
L 124.38433 86.757764 
L 126.013982 86.309971 
L 127.643634 85.862177 
L 129.273286 85.414384 
L 130.902938 84.966591 
L 132.532589 84.518798 
L 134.162241 84.071004 
L 135.791893 83.623211 
L 137.421545 83.175418 
L 139.051196 82.727624 
L 140.680848 82.279831 
L 142.3105 81.832038 
L 143.940152 81.384245 
L 145.569804 80.936451 
L 147.199455 80.488658 
L 148.829107 80.040865 
L 150.458759 79.593071 
L 152.088411 79.145278 
L 153.718063 78.697485 
L 155.347714 78.249692 
L 156.977366 77.801898 
L 158.607018 77.354105 
L 160.23667 76.906312 
L 161.866321 76.458518 
L 163.495973 76.010725 
L 165.125625 75.562932 
L 166.755277 75.115139 
L 168.384929 74.667345 
L 170.01458 74.219552 
L 171.644232 73.771759 
L 173.273884 73.323965 
L 174.903536 72.876172 
L 176.533187 72.428379 
L 178.162839 71.980586 
L 179.792491 71.532792 
L 181.422143 71.084999 
L 183.051795 70.637206 
L 184.681446 70.189412 
L 186.311098 69.741619 
L 187.94075 69.293826 
L 189.570402 68.846033 
L 191.200054 68.398239 
L 192.829705 67.950446 
L 194.459357 67.502653 
L 196.089009 67.054859 
L 197.718661 66.607066 
L 199.348312 66.159273 
L 200.977964 65.71148 
L 202.607616 65.263686 
L 204.237268 64.815893 
L 205.86692 64.3681 
L 207.496571 63.920306 
L 209.126223 63.472513 
L 210.755875 63.02472 
L 212.385527 62.576927 
L 214.015179 62.129133 
" style="fill:none;stroke:#92c5de;stroke-linecap:round;stroke-width:2;"/>
   </g>
   <g id="line2d_12">
    <path clip-path="url(#p298a0e7468)" d="M 51.05 109.505663 
L 52.679652 108.610076 
L 54.309304 107.71449 
L 55.938955 106.818903 
L 57.568607 105.923317 
L 59.198259 105.02773 
L 60.827911 104.132144 
L 62.457563 103.236557 
L 64.087214 102.34097 
L 65.716866 101.445384 
L 67.346518 100.549797 
L 68.97617 99.654211 
L 70.605821 98.758624 
L 72.235473 97.863038 
L 73.865125 96.967451 
L 75.494777 96.071864 
L 77.124429 95.176278 
L 78.75408 94.280691 
L 80.383732 93.385105 
L 82.013384 92.489518 
L 83.643036 91.593932 
L 85.272687 90.698345 
L 86.902339 89.802758 
L 88.531991 88.907172 
L 90.161643 88.011585 
L 91.791295 87.115999 
L 93.420946 86.220412 
L 95.050598 85.324825 
L 96.68025 84.429239 
L 98.309902 83.533652 
L 99.939554 82.638066 
L 101.569205 81.742479 
L 103.198857 80.846893 
L 104.828509 79.951306 
L 106.458161 79.055719 
L 108.087812 78.160133 
L 109.717464 77.264546 
L 111.347116 76.36896 
L 112.976768 75.473373 
L 114.60642 74.577787 
L 116.236071 73.6822 
L 117.865723 72.786613 
L 119.495375 71.891027 
L 121.125027 70.99544 
L 122.754679 70.099854 
L 124.38433 69.204267 
L 126.013982 68.308681 
L 127.643634 67.413094 
L 129.273286 66.517507 
L 130.902938 65.621921 
L 132.532589 64.726334 
L 134.162241 63.830748 
L 135.791893 62.935161 
L 137.421545 62.039575 
L 139.051196 61.143988 
L 140.680848 60.248401 
L 142.3105 59.352815 
L 143.940152 58.457228 
L 145.569804 57.561642 
L 147.199455 56.666055 
L 148.829107 55.770469 
L 150.458759 54.874882 
L 152.088411 53.979295 
L 153.718063 53.083709 
L 155.347714 52.188122 
L 156.977366 51.292536 
L 158.607018 50.396949 
L 160.23667 49.501363 
L 161.866321 48.605776 
L 163.495973 47.710189 
L 165.125625 46.814603 
L 166.755277 45.919016 
L 168.384929 45.02343 
L 170.01458 44.127843 
L 171.644232 43.232257 
L 173.273884 42.33667 
L 174.903536 41.441083 
L 176.533187 40.545497 
L 178.162839 39.64991 
L 179.792491 38.754324 
L 181.422143 37.858737 
L 183.051795 36.963151 
L 184.681446 36.067564 
L 186.311098 35.171977 
L 187.94075 34.276391 
L 189.570402 33.380804 
L 191.200054 32.485218 
L 192.829705 31.589631 
L 194.459357 30.694045 
L 196.089009 29.798458 
L 197.718661 28.902871 
L 199.348312 28.007285 
L 200.977964 27.111698 
L 202.607616 26.216112 
L 204.237268 25.320525 
L 205.86692 24.424939 
L 207.496571 23.529352 
L 209.126223 22.633766 
L 210.755875 21.738179 
L 212.385527 20.842592 
L 214.015179 19.947006 
" style="fill:none;stroke:#4393c3;stroke-linecap:round;stroke-width:2;"/>
   </g>
   <g id="line2d_13">
    <path clip-path="url(#p298a0e7468)" d="M 51.05 19.185757 
L 52.679652 19.63355 
L 54.309304 20.081344 
L 55.938955 20.529137 
L 57.568607 20.97693 
L 59.198259 21.424724 
L 60.827911 21.872517 
L 62.457563 22.32031 
L 64.087214 22.768103 
L 65.716866 23.215897 
L 67.346518 23.66369 
L 68.97617 24.111483 
L 70.605821 24.559277 
L 72.235473 25.00707 
L 73.865125 25.454863 
L 75.494777 25.902656 
L 77.124429 26.35045 
L 78.75408 26.798243 
L 80.383732 27.246036 
L 82.013384 27.69383 
L 83.643036 28.141623 
L 85.272687 28.589416 
L 86.902339 29.037209 
L 88.531991 29.485003 
L 90.161643 29.932796 
L 91.791295 30.380589 
L 93.420946 30.828383 
L 95.050598 31.276176 
L 96.68025 31.723969 
L 98.309902 32.171762 
L 99.939554 32.619556 
L 101.569205 33.067349 
L 103.198857 33.515142 
L 104.828509 33.962936 
L 106.458161 34.410729 
L 108.087812 34.858522 
L 109.717464 35.306315 
L 111.347116 35.754109 
L 112.976768 36.201902 
L 114.60642 36.649695 
L 116.236071 37.097489 
L 117.865723 37.545282 
L 119.495375 37.993075 
L 121.125027 38.440868 
L 122.754679 38.888662 
L 124.38433 39.336455 
L 126.013982 39.784248 
L 127.643634 40.232042 
L 129.273286 40.679835 
L 130.902938 41.127628 
L 132.532589 41.575421 
L 134.162241 42.023215 
L 135.791893 42.471008 
L 137.421545 42.918801 
L 139.051196 43.366595 
L 140.680848 43.814388 
L 142.3105 44.262181 
L 143.940152 44.709974 
L 145.569804 45.157768 
L 147.199455 45.605561 
L 148.829107 46.053354 
L 150.458759 46.501148 
L 152.088411 46.948941 
L 153.718063 47.396734 
L 155.347714 47.844527 
L 156.977366 48.292321 
L 158.607018 48.740114 
L 160.23667 49.187907 
L 161.866321 49.635701 
L 163.495973 50.083494 
L 165.125625 50.531287 
L 166.755277 50.97908 
L 168.384929 51.426874 
L 170.01458 51.874667 
L 171.644232 52.32246 
L 173.273884 52.770254 
L 174.903536 53.218047 
L 176.533187 53.66584 
L 178.162839 54.113633 
L 179.792491 54.561427 
L 181.422143 55.00922 
L 183.051795 55.457013 
L 184.681446 55.904807 
L 186.311098 56.3526 
L 187.94075 56.800393 
L 189.570402 57.248186 
L 191.200054 57.69598 
L 192.829705 58.143773 
L 194.459357 58.591566 
L 196.089009 59.03936 
L 197.718661 59.487153 
L 199.348312 59.934946 
L 200.977964 60.382739 
L 202.607616 60.830533 
L 204.237268 61.278326 
L 205.86692 61.726119 
L 207.496571 62.173913 
L 209.126223 62.621706 
L 210.755875 63.069499 
L 212.385527 63.517292 
L 214.015179 63.965086 
" style="fill:none;stroke:#f4a582;stroke-dasharray:2,3.3;stroke-dashoffset:0;stroke-width:2;"/>
   </g>
   <g id="line2d_14">
    <path clip-path="url(#p298a0e7468)" d="M 51.05 92.131283 
L 52.679652 92.131283 
L 54.309304 92.131283 
L 55.938955 92.131283 
L 57.568607 92.131283 
L 59.198259 92.131283 
L 60.827911 92.131283 
L 62.457563 92.131283 
L 64.087214 92.131283 
L 65.716866 92.131283 
L 67.346518 92.131283 
L 68.97617 92.131283 
L 70.605821 92.131283 
L 72.235473 92.131283 
L 73.865125 92.131283 
L 75.494777 92.131283 
L 77.124429 92.131283 
L 78.75408 92.131283 
L 80.383732 92.131283 
L 82.013384 92.131283 
L 83.643036 92.131283 
L 85.272687 92.131283 
L 86.902339 92.131283 
L 88.531991 92.131283 
L 90.161643 92.131283 
L 91.791295 92.131283 
L 93.420946 92.131283 
L 95.050598 92.131283 
L 96.68025 92.131283 
L 98.309902 92.131283 
L 99.939554 92.131283 
L 101.569205 92.131283 
L 103.198857 92.131283 
L 104.828509 92.131283 
L 106.458161 92.131283 
L 108.087812 92.131283 
L 109.717464 92.131283 
L 111.347116 92.131283 
L 112.976768 92.131283 
L 114.60642 92.131283 
L 116.236071 92.131283 
L 117.865723 92.131283 
L 119.495375 92.131283 
L 121.125027 92.131283 
L 122.754679 92.131283 
L 124.38433 92.131283 
L 126.013982 92.131283 
L 127.643634 92.131283 
L 129.273286 92.131283 
L 130.902938 92.131283 
L 132.532589 92.131283 
L 134.162241 92.131283 
L 135.791893 92.131283 
L 137.421545 92.131283 
L 139.051196 92.131283 
L 140.680848 92.131283 
L 142.3105 92.131283 
L 143.940152 92.131283 
L 145.569804 92.131283 
L 147.199455 92.131283 
L 148.829107 92.131283 
L 150.458759 92.131283 
L 152.088411 92.131283 
L 153.718063 92.131283 
L 155.347714 92.131283 
L 156.977366 92.131283 
L 158.607018 92.131283 
L 160.23667 92.131283 
L 161.866321 92.131283 
L 163.495973 92.131283 
L 165.125625 92.131283 
L 166.755277 92.131283 
L 168.384929 92.131283 
L 170.01458 92.131283 
L 171.644232 92.131283 
L 173.273884 92.131283 
L 174.903536 92.131283 
L 176.533187 92.131283 
L 178.162839 92.131283 
L 179.792491 92.131283 
L 181.422143 92.131283 
L 183.051795 92.131283 
L 184.681446 92.131283 
L 186.311098 92.131283 
L 187.94075 92.131283 
L 189.570402 92.131283 
L 191.200054 92.131283 
L 192.829705 92.131283 
L 194.459357 92.131283 
L 196.089009 92.131283 
L 197.718661 92.131283 
L 199.348312 92.131283 
L 200.977964 92.131283 
L 202.607616 92.131283 
L 204.237268 92.131283 
L 205.86692 92.131283 
L 207.496571 92.131283 
L 209.126223 92.131283 
L 210.755875 92.131283 
L 212.385527 92.131283 
L 214.015179 92.131283 
" style="fill:none;stroke:#333333;stroke-dasharray:2,3.3;stroke-dashoffset:0;stroke-width:2;"/>
   </g>
   <g id="line2d_15">
    <path clip-path="url(#p298a0e7468)" d="M 51.05 111.655071 
L 52.679652 111.207277 
L 54.309304 110.759484 
L 55.938955 110.311691 
L 57.568607 109.863898 
L 59.198259 109.416104 
L 60.827911 108.968311 
L 62.457563 108.520518 
L 64.087214 108.072724 
L 65.716866 107.624931 
L 67.346518 107.177138 
L 68.97617 106.729345 
L 70.605821 106.281551 
L 72.235473 105.833758 
L 73.865125 105.385965 
L 75.494777 104.938171 
L 77.124429 104.490378 
L 78.75408 104.042585 
L 80.383732 103.594792 
L 82.013384 103.146998 
L 83.643036 102.699205 
L 85.272687 102.251412 
L 86.902339 101.803618 
L 88.531991 101.355825 
L 90.161643 100.908032 
L 91.791295 100.460239 
L 93.420946 100.012445 
L 95.050598 99.564652 
L 96.68025 99.116859 
L 98.309902 98.669065 
L 99.939554 98.221272 
L 101.569205 97.773479 
L 103.198857 97.325686 
L 104.828509 96.877892 
L 106.458161 96.430099 
L 108.087812 95.982306 
L 109.717464 95.534512 
L 111.347116 95.086719 
L 112.976768 94.638926 
L 114.60642 94.191133 
L 116.236071 93.743339 
L 117.865723 93.295546 
L 119.495375 92.847753 
L 121.125027 92.399959 
L 122.754679 91.952166 
L 124.38433 91.504373 
L 126.013982 91.05658 
L 127.643634 90.608786 
L 129.273286 90.160993 
L 130.902938 89.7132 
L 132.532589 89.265406 
L 134.162241 88.817613 
L 135.791893 88.36982 
L 137.421545 87.922027 
L 139.051196 87.474233 
L 140.680848 87.02644 
L 142.3105 86.578647 
L 143.940152 86.130853 
L 145.569804 85.68306 
L 147.199455 85.235267 
L 148.829107 84.787474 
L 150.458759 84.33968 
L 152.088411 83.891887 
L 153.718063 83.444094 
L 155.347714 82.9963 
L 156.977366 82.548507 
L 158.607018 82.100714 
L 160.23667 81.652921 
L 161.866321 81.205127 
L 163.495973 80.757334 
L 165.125625 80.309541 
L 166.755277 79.861747 
L 168.384929 79.413954 
L 170.01458 78.966161 
L 171.644232 78.518368 
L 173.273884 78.070574 
L 174.903536 77.622781 
L 176.533187 77.174988 
L 178.162839 76.727194 
L 179.792491 76.279401 
L 181.422143 75.831608 
L 183.051795 75.383815 
L 184.681446 74.936021 
L 186.311098 74.488228 
L 187.94075 74.040435 
L 189.570402 73.592641 
L 191.200054 73.144848 
L 192.829705 72.697055 
L 194.459357 72.249262 
L 196.089009 71.801468 
L 197.718661 71.353675 
L 199.348312 70.905882 
L 200.977964 70.458088 
L 202.607616 70.010295 
L 204.237268 69.562502 
L 205.86692 69.114709 
L 207.496571 68.666915 
L 209.126223 68.219122 
L 210.755875 67.771329 
L 212.385527 67.323535 
L 214.015179 66.875742 
" style="fill:none;stroke:#92c5de;stroke-dasharray:2,3.3;stroke-dashoffset:0;stroke-width:2;"/>
   </g>
   <g id="line2d_16">
    <path clip-path="url(#p298a0e7468)" d="M 51.05 104.669495 
L 52.679652 104.221702 
L 54.309304 103.773909 
L 55.938955 103.326116 
L 57.568607 102.878322 
L 59.198259 102.430529 
L 60.827911 101.982736 
L 62.457563 101.534942 
L 64.087214 101.087149 
L 65.716866 100.639356 
L 67.346518 100.191563 
L 68.97617 99.743769 
L 70.605821 99.295976 
L 72.235473 98.848183 
L 73.865125 98.400389 
L 75.494777 97.952596 
L 77.124429 97.504803 
L 78.75408 97.05701 
L 80.383732 96.609216 
L 82.013384 96.161423 
L 83.643036 95.71363 
L 85.272687 95.265836 
L 86.902339 94.818043 
L 88.531991 94.37025 
L 90.161643 93.922457 
L 91.791295 93.474663 
L 93.420946 93.02687 
L 95.050598 92.579077 
L 96.68025 92.131283 
L 98.309902 91.68349 
L 99.939554 91.235697 
L 101.569205 90.787904 
L 103.198857 90.34011 
L 104.828509 89.892317 
L 106.458161 89.444524 
L 108.087812 88.99673 
L 109.717464 88.548937 
L 111.347116 88.101144 
L 112.976768 87.653351 
L 114.60642 87.205557 
L 116.236071 86.757764 
L 117.865723 86.309971 
L 119.495375 85.862177 
L 121.125027 85.414384 
L 122.754679 84.966591 
L 124.38433 84.518798 
L 126.013982 84.071004 
L 127.643634 83.623211 
L 129.273286 83.175418 
L 130.902938 82.727624 
L 132.532589 82.279831 
L 134.162241 81.832038 
L 135.791893 81.384245 
L 137.421545 80.936451 
L 139.051196 80.488658 
L 140.680848 80.040865 
L 142.3105 79.593071 
L 143.940152 79.145278 
L 145.569804 78.697485 
L 147.199455 78.249692 
L 148.829107 77.801898 
L 150.458759 77.354105 
L 152.088411 76.906312 
L 153.718063 76.458518 
L 155.347714 76.010725 
L 156.977366 75.562932 
L 158.607018 75.115139 
L 160.23667 74.667345 
L 161.866321 74.219552 
L 163.495973 73.771759 
L 165.125625 73.323965 
L 166.755277 72.876172 
L 168.384929 72.428379 
L 170.01458 71.980586 
L 171.644232 71.532792 
L 173.273884 71.084999 
L 174.903536 70.637206 
L 176.533187 70.189412 
L 178.162839 69.741619 
L 179.792491 69.293826 
L 181.422143 68.846033 
L 183.051795 68.398239 
L 184.681446 67.950446 
L 186.311098 67.502653 
L 187.94075 67.054859 
L 189.570402 66.607066 
L 191.200054 66.159273 
L 192.829705 65.71148 
L 194.459357 65.263686 
L 196.089009 64.815893 
L 197.718661 64.3681 
L 199.348312 63.920306 
L 200.977964 63.472513 
L 202.607616 63.02472 
L 204.237268 62.576927 
L 205.86692 62.129133 
L 207.496571 61.68134 
L 209.126223 61.233547 
L 210.755875 60.785753 
L 212.385527 60.33796 
L 214.015179 59.890167 
" style="fill:none;stroke:#92c5de;stroke-dasharray:2,3.3;stroke-dashoffset:0;stroke-width:2;"/>
   </g>
   <g id="line2d_17">
    <path clip-path="url(#p298a0e7468)" d="M 51.05 115.237417 
L 52.679652 114.34183 
L 54.309304 113.446244 
L 55.938955 112.550657 
L 57.568607 111.655071 
L 59.198259 110.759484 
L 60.827911 109.863898 
L 62.457563 108.968311 
L 64.087214 108.072724 
L 65.716866 107.177138 
L 67.346518 106.281551 
L 68.97617 105.385965 
L 70.605821 104.490378 
L 72.235473 103.594792 
L 73.865125 102.699205 
L 75.494777 101.803618 
L 77.124429 100.908032 
L 78.75408 100.012445 
L 80.383732 99.116859 
L 82.013384 98.221272 
L 83.643036 97.325686 
L 85.272687 96.430099 
L 86.902339 95.534512 
L 88.531991 94.638926 
L 90.161643 93.743339 
L 91.791295 92.847753 
L 93.420946 91.952166 
L 95.050598 91.05658 
L 96.68025 90.160993 
L 98.309902 89.265406 
L 99.939554 88.36982 
L 101.569205 87.474233 
L 103.198857 86.578647 
L 104.828509 85.68306 
L 106.458161 84.787474 
L 108.087812 83.891887 
L 109.717464 82.9963 
L 111.347116 82.100714 
L 112.976768 81.205127 
L 114.60642 80.309541 
L 116.236071 79.413954 
L 117.865723 78.518368 
L 119.495375 77.622781 
L 121.125027 76.727194 
L 122.754679 75.831608 
L 124.38433 74.936021 
L 126.013982 74.040435 
L 127.643634 73.144848 
L 129.273286 72.249262 
L 130.902938 71.353675 
L 132.532589 70.458088 
L 134.162241 69.562502 
L 135.791893 68.666915 
L 137.421545 67.771329 
L 139.051196 66.875742 
L 140.680848 65.980156 
L 142.3105 65.084569 
L 143.940152 64.188982 
L 145.569804 63.293396 
L 147.199455 62.397809 
L 148.829107 61.502223 
L 150.458759 60.606636 
L 152.088411 59.71105 
L 153.718063 58.815463 
L 155.347714 57.919876 
L 156.977366 57.02429 
L 158.607018 56.128703 
L 160.23667 55.233117 
L 161.866321 54.33753 
L 163.495973 53.441944 
L 165.125625 52.546357 
L 166.755277 51.65077 
L 168.384929 50.755184 
L 170.01458 49.859597 
L 171.644232 48.964011 
L 173.273884 48.068424 
L 174.903536 47.172838 
L 176.533187 46.277251 
L 178.162839 45.381664 
L 179.792491 44.486078 
L 181.422143 43.590491 
L 183.051795 42.694905 
L 184.681446 41.799318 
L 186.311098 40.903732 
L 187.94075 40.008145 
L 189.570402 39.112558 
L 191.200054 38.216972 
L 192.829705 37.321385 
L 194.459357 36.425799 
L 196.089009 35.530212 
L 197.718661 34.634626 
L 199.348312 33.739039 
L 200.977964 32.843452 
L 202.607616 31.947866 
L 204.237268 31.052279 
L 205.86692 30.156693 
L 207.496571 29.261106 
L 209.126223 28.36552 
L 210.755875 27.469933 
L 212.385527 26.574346 
L 214.015179 25.67876 
" style="fill:none;stroke:#4393c3;stroke-dasharray:2,3.3;stroke-dashoffset:0;stroke-width:2;"/>
   </g>
   <g id="line2d_18">
    <path clip-path="url(#p298a0e7468)" d="M 51.05 42.023215 
L 52.679652 42.023215 
L 54.309304 42.023215 
L 55.938955 42.023215 
L 57.568607 42.023215 
L 59.198259 42.023215 
L 60.827911 42.023215 
L 62.457563 42.023215 
L 64.087214 42.023215 
L 65.716866 42.023215 
L 67.346518 42.023215 
L 68.97617 42.023215 
L 70.605821 42.023215 
L 72.235473 42.023215 
L 73.865125 42.023215 
L 75.494777 42.023215 
L 77.124429 42.023215 
L 78.75408 42.023215 
L 80.383732 42.023215 
L 82.013384 42.023215 
L 83.643036 42.023215 
L 85.272687 42.023215 
L 86.902339 42.023215 
L 88.531991 42.023215 
L 90.161643 42.023215 
L 91.791295 42.023215 
L 93.420946 42.023215 
L 95.050598 42.023215 
L 96.68025 42.023215 
L 98.309902 42.023215 
L 99.939554 42.023215 
L 101.569205 42.023215 
L 103.198857 42.023215 
L 104.828509 42.023215 
L 106.458161 42.023215 
L 108.087812 42.023215 
L 109.717464 42.023215 
L 111.347116 42.023215 
L 112.976768 42.023215 
L 114.60642 42.023215 
L 116.236071 42.023215 
L 117.865723 42.023215 
L 119.495375 42.023215 
L 121.125027 42.023215 
L 122.754679 42.023215 
L 124.38433 42.023215 
L 126.013982 42.023215 
L 127.643634 42.023215 
L 129.273286 42.023215 
L 130.902938 42.023215 
L 132.532589 42.023215 
L 134.162241 42.023215 
L 135.791893 42.023215 
L 137.421545 42.023215 
L 139.051196 42.023215 
L 140.680848 42.023215 
L 142.3105 42.023215 
L 143.940152 42.023215 
L 145.569804 42.023215 
L 147.199455 42.023215 
L 148.829107 42.023215 
L 150.458759 42.023215 
L 152.088411 42.023215 
L 153.718063 42.023215 
L 155.347714 42.023215 
L 156.977366 42.023215 
L 158.607018 42.023215 
L 160.23667 42.023215 
L 161.866321 42.023215 
L 163.495973 42.023215 
L 165.125625 42.023215 
L 166.755277 42.023215 
L 168.384929 42.023215 
L 170.01458 42.023215 
L 171.644232 42.023215 
L 173.273884 42.023215 
L 174.903536 42.023215 
L 176.533187 42.023215 
L 178.162839 42.023215 
L 179.792491 42.023215 
L 181.422143 42.023215 
L 183.051795 42.023215 
L 184.681446 42.023215 
L 186.311098 42.023215 
L 187.94075 42.023215 
L 189.570402 42.023215 
L 191.200054 42.023215 
L 192.829705 42.023215 
L 194.459357 42.023215 
L 196.089009 42.023215 
L 197.718661 42.023215 
L 199.348312 42.023215 
L 200.977964 42.023215 
L 202.607616 42.023215 
L 204.237268 42.023215 
L 205.86692 42.023215 
L 207.496571 42.023215 
L 209.126223 42.023215 
L 210.755875 42.023215 
L 212.385527 42.023215 
L 214.015179 42.023215 
" style="fill:none;stroke:#333333;stroke-dasharray:2,3.3;stroke-dashoffset:0;stroke-width:2;"/>
   </g>
   <g id="patch_3">
    <path d="M 51.05 120.04 
L 51.05 14.383174 
" style="fill:none;stroke:#262626;stroke-linecap:square;stroke-linejoin:miter;stroke-width:0.8;"/>
   </g>
   <g id="patch_4">
    <path d="M 51.05 120.04 
L 214.015179 120.04 
" style="fill:none;stroke:#262626;stroke-linecap:square;stroke-linejoin:miter;stroke-width:0.8;"/>
   </g>
   <g id="legend_1">
    <g id="patch_5">
     <path d="M 57.35 98.469893 
L 162.174688 98.469893 
Q 163.974688 98.469893 163.974688 96.669893 
L 163.974688 20.683174 
Q 163.974688 18.883174 162.174688 18.883174 
L 57.35 18.883174 
Q 55.55 18.883174 55.55 20.683174 
L 55.55 96.669893 
Q 55.55 98.469893 57.35 98.469893 
z
" style="fill:#ffffff;opacity:0.8;stroke:#cccccc;stroke-linejoin:miter;"/>
    </g>
    <g id="line2d_19">
     <path d="M 59.15 25.775205 
L 77.15 25.775205 
" style="fill:none;stroke:#000000;stroke-linecap:round;stroke-width:1.5;"/>
    </g>
    <g id="line2d_20"/>
    <g id="text_12">
     <!-- Exp. macrostates -->
     <defs>
      <path d="M 7.90625 0 
L 7.90625 71.578125 
L 59.671875 71.578125 
L 59.671875 63.140625 
L 17.390625 63.140625 
L 17.390625 41.21875 
L 56.984375 41.21875 
L 56.984375 32.8125 
L 17.390625 32.8125 
L 17.390625 8.453125 
L 61.328125 8.453125 
L 61.328125 0 
z
" id="ArialMT-45"/>
      <path d="M 0.734375 0 
L 19.671875 26.953125 
L 2.15625 51.859375 
L 13.140625 51.859375 
L 21.09375 39.703125 
Q 23.34375 36.234375 24.703125 33.890625 
Q 26.859375 37.109375 28.65625 39.59375 
L 37.40625 51.859375 
L 47.90625 51.859375 
L 29.984375 27.4375 
L 49.265625 0 
L 38.484375 0 
L 27.828125 16.109375 
L 25 20.453125 
L 11.375 0 
z
" id="ArialMT-78"/>
      <path d="M 9.078125 0 
L 9.078125 10.015625 
L 19.09375 10.015625 
L 19.09375 0 
z
" id="ArialMT-2e"/>
      <path d="M 6.59375 0 
L 6.59375 51.859375 
L 14.453125 51.859375 
L 14.453125 44.578125 
Q 16.890625 48.390625 20.9375 50.703125 
Q 25 53.03125 30.171875 53.03125 
Q 35.9375 53.03125 39.625 50.640625 
Q 43.3125 48.25 44.828125 43.953125 
Q 50.984375 53.03125 60.84375 53.03125 
Q 68.5625 53.03125 72.703125 48.75 
Q 76.859375 44.484375 76.859375 35.59375 
L 76.859375 0 
L 68.109375 0 
L 68.109375 32.671875 
Q 68.109375 37.9375 67.25 40.25 
Q 66.40625 42.578125 64.15625 43.984375 
Q 61.921875 45.40625 58.890625 45.40625 
Q 53.421875 45.40625 49.796875 41.765625 
Q 46.1875 38.140625 46.1875 30.125 
L 46.1875 0 
L 37.40625 0 
L 37.40625 33.6875 
Q 37.40625 39.546875 35.25 42.46875 
Q 33.109375 45.40625 28.21875 45.40625 
Q 24.515625 45.40625 21.359375 43.453125 
Q 18.21875 41.5 16.796875 37.734375 
Q 15.375 33.984375 15.375 26.90625 
L 15.375 0 
z
" id="ArialMT-6d"/>
      <path d="M 40.4375 6.390625 
Q 35.546875 2.25 31.03125 0.53125 
Q 26.515625 -1.171875 21.34375 -1.171875 
Q 12.796875 -1.171875 8.203125 3 
Q 3.609375 7.171875 3.609375 13.671875 
Q 3.609375 17.484375 5.34375 20.625 
Q 7.078125 23.78125 9.890625 25.6875 
Q 12.703125 27.59375 16.21875 28.5625 
Q 18.796875 29.25 24.03125 29.890625 
Q 34.671875 31.15625 39.703125 32.90625 
Q 39.75 34.71875 39.75 35.203125 
Q 39.75 40.578125 37.25 42.78125 
Q 33.890625 45.75 27.25 45.75 
Q 21.046875 45.75 18.09375 43.578125 
Q 15.140625 41.40625 13.71875 35.890625 
L 5.125 37.0625 
Q 6.296875 42.578125 8.984375 45.96875 
Q 11.671875 49.359375 16.75 51.1875 
Q 21.828125 53.03125 28.515625 53.03125 
Q 35.15625 53.03125 39.296875 51.46875 
Q 43.453125 49.90625 45.40625 47.53125 
Q 47.359375 45.171875 48.140625 41.546875 
Q 48.578125 39.3125 48.578125 33.453125 
L 48.578125 21.734375 
Q 48.578125 9.46875 49.140625 6.21875 
Q 49.703125 2.984375 51.375 0 
L 42.1875 0 
Q 40.828125 2.734375 40.4375 6.390625 
z
M 39.703125 26.03125 
Q 34.90625 24.078125 25.34375 22.703125 
Q 19.921875 21.921875 17.671875 20.9375 
Q 15.4375 19.96875 14.203125 18.09375 
Q 12.984375 16.21875 12.984375 13.921875 
Q 12.984375 10.40625 15.640625 8.0625 
Q 18.3125 5.71875 23.4375 5.71875 
Q 28.515625 5.71875 32.46875 7.9375 
Q 36.421875 10.15625 38.28125 14.015625 
Q 39.703125 17 39.703125 22.796875 
z
" id="ArialMT-61"/>
      <path d="M 40.4375 19 
L 49.078125 17.875 
Q 47.65625 8.9375 41.8125 3.875 
Q 35.984375 -1.171875 27.484375 -1.171875 
Q 16.84375 -1.171875 10.375 5.78125 
Q 3.90625 12.75 3.90625 25.734375 
Q 3.90625 34.125 6.6875 40.421875 
Q 9.46875 46.734375 15.15625 49.875 
Q 20.84375 53.03125 27.546875 53.03125 
Q 35.984375 53.03125 41.359375 48.75 
Q 46.734375 44.484375 48.25 36.625 
L 39.703125 35.296875 
Q 38.484375 40.53125 35.375 43.15625 
Q 32.28125 45.796875 27.875 45.796875 
Q 21.234375 45.796875 17.078125 41.03125 
Q 12.9375 36.28125 12.9375 25.984375 
Q 12.9375 15.53125 16.9375 10.796875 
Q 20.953125 6.0625 27.390625 6.0625 
Q 32.5625 6.0625 36.03125 9.234375 
Q 39.5 12.40625 40.4375 19 
z
" id="ArialMT-63"/>
      <path d="M 3.328125 25.921875 
Q 3.328125 40.328125 11.328125 47.265625 
Q 18.015625 53.03125 27.640625 53.03125 
Q 38.328125 53.03125 45.109375 46.015625 
Q 51.90625 39.015625 51.90625 26.65625 
Q 51.90625 16.65625 48.90625 10.90625 
Q 45.90625 5.171875 40.15625 2 
Q 34.421875 -1.171875 27.640625 -1.171875 
Q 16.75 -1.171875 10.03125 5.8125 
Q 3.328125 12.796875 3.328125 25.921875 
z
M 12.359375 25.921875 
Q 12.359375 15.96875 16.703125 11.015625 
Q 21.046875 6.0625 27.640625 6.0625 
Q 34.1875 6.0625 38.53125 11.03125 
Q 42.875 16.015625 42.875 26.21875 
Q 42.875 35.84375 38.5 40.796875 
Q 34.125 45.75 27.640625 45.75 
Q 21.046875 45.75 16.703125 40.8125 
Q 12.359375 35.890625 12.359375 25.921875 
z
" id="ArialMT-6f"/>
      <path d="M 3.078125 15.484375 
L 11.765625 16.84375 
Q 12.5 11.625 15.84375 8.84375 
Q 19.1875 6.0625 25.203125 6.0625 
Q 31.25 6.0625 34.171875 8.515625 
Q 37.109375 10.984375 37.109375 14.3125 
Q 37.109375 17.28125 34.515625 19 
Q 32.71875 20.171875 25.53125 21.96875 
Q 15.875 24.421875 12.140625 26.203125 
Q 8.40625 27.984375 6.46875 31.125 
Q 4.546875 34.28125 4.546875 38.09375 
Q 4.546875 41.546875 6.125 44.5 
Q 7.71875 47.46875 10.453125 49.421875 
Q 12.5 50.921875 16.03125 51.96875 
Q 19.578125 53.03125 23.640625 53.03125 
Q 29.734375 53.03125 34.34375 51.265625 
Q 38.96875 49.515625 41.15625 46.5 
Q 43.359375 43.5 44.1875 38.484375 
L 35.59375 37.3125 
Q 35.015625 41.3125 32.203125 43.546875 
Q 29.390625 45.796875 24.265625 45.796875 
Q 18.21875 45.796875 15.625 43.796875 
Q 13.03125 41.796875 13.03125 39.109375 
Q 13.03125 37.40625 14.109375 36.03125 
Q 15.1875 34.625 17.484375 33.6875 
Q 18.796875 33.203125 25.25 31.453125 
Q 34.578125 28.953125 38.25 27.359375 
Q 41.9375 25.78125 44.03125 22.75 
Q 46.140625 19.734375 46.140625 15.234375 
Q 46.140625 10.84375 43.578125 6.953125 
Q 41.015625 3.078125 36.171875 0.953125 
Q 31.34375 -1.171875 25.25 -1.171875 
Q 15.140625 -1.171875 9.84375 3.03125 
Q 4.546875 7.234375 3.078125 15.484375 
z
" id="ArialMT-73"/>
      <path d="M 25.78125 7.859375 
L 27.046875 0.09375 
Q 23.34375 -0.6875 20.40625 -0.6875 
Q 15.625 -0.6875 12.984375 0.828125 
Q 10.359375 2.34375 9.28125 4.8125 
Q 8.203125 7.28125 8.203125 15.1875 
L 8.203125 45.015625 
L 1.765625 45.015625 
L 1.765625 51.859375 
L 8.203125 51.859375 
L 8.203125 64.703125 
L 16.9375 69.96875 
L 16.9375 51.859375 
L 25.78125 51.859375 
L 25.78125 45.015625 
L 16.9375 45.015625 
L 16.9375 14.703125 
Q 16.9375 10.9375 17.40625 9.859375 
Q 17.875 8.796875 18.921875 8.15625 
Q 19.96875 7.515625 21.921875 7.515625 
Q 23.390625 7.515625 25.78125 7.859375 
z
" id="ArialMT-74"/>
     </defs>
     <g style="fill:#262626;" transform="translate(84.35 28.925205)scale(0.09 -0.09)">
      <use xlink:href="#ArialMT-45"/>
      <use x="66.699219" xlink:href="#ArialMT-78"/>
      <use x="116.699219" xlink:href="#ArialMT-70"/>
      <use x="172.314453" xlink:href="#ArialMT-2e"/>
      <use x="200.097656" xlink:href="#ArialMT-20"/>
      <use x="227.880859" xlink:href="#ArialMT-6d"/>
      <use x="311.181641" xlink:href="#ArialMT-61"/>
      <use x="366.796875" xlink:href="#ArialMT-63"/>
      <use x="416.796875" xlink:href="#ArialMT-72"/>
      <use x="450.097656" xlink:href="#ArialMT-6f"/>
      <use x="505.712891" xlink:href="#ArialMT-73"/>
      <use x="555.712891" xlink:href="#ArialMT-74"/>
      <use x="583.496094" xlink:href="#ArialMT-61"/>
      <use x="639.111328" xlink:href="#ArialMT-74"/>
      <use x="666.894531" xlink:href="#ArialMT-65"/>
      <use x="722.509766" xlink:href="#ArialMT-73"/>
     </g>
    </g>
    <g id="line2d_21">
     <path d="M 59.15 38.505987 
L 77.15 38.505987 
" style="fill:none;stroke:#000000;stroke-dasharray:1.5,2.475;stroke-dashoffset:0;stroke-width:1.5;"/>
    </g>
    <g id="line2d_22"/>
    <g id="text_13">
     <!-- Jaguar microstates -->
     <defs>
      <path d="M 2.875 20.3125 
L 11.421875 21.484375 
Q 11.765625 13.28125 14.5 10.25 
Q 17.234375 7.234375 22.078125 7.234375 
Q 25.640625 7.234375 28.21875 8.859375 
Q 30.8125 10.5 31.78125 13.296875 
Q 32.765625 16.109375 32.765625 22.265625 
L 32.765625 71.578125 
L 42.234375 71.578125 
L 42.234375 22.796875 
Q 42.234375 13.8125 40.0625 8.875 
Q 37.890625 3.953125 33.171875 1.359375 
Q 28.46875 -1.21875 22.125 -1.21875 
Q 12.703125 -1.21875 7.6875 4.203125 
Q 2.6875 9.625 2.875 20.3125 
z
" id="ArialMT-4a"/>
      <path d="M 40.578125 0 
L 40.578125 7.625 
Q 34.515625 -1.171875 24.125 -1.171875 
Q 19.53125 -1.171875 15.546875 0.578125 
Q 11.578125 2.34375 9.640625 5 
Q 7.71875 7.671875 6.9375 11.53125 
Q 6.390625 14.109375 6.390625 19.734375 
L 6.390625 51.859375 
L 15.1875 51.859375 
L 15.1875 23.09375 
Q 15.1875 16.21875 15.71875 13.8125 
Q 16.546875 10.359375 19.234375 8.375 
Q 21.921875 6.390625 25.875 6.390625 
Q 29.828125 6.390625 33.296875 8.421875 
Q 36.765625 10.453125 38.203125 13.9375 
Q 39.65625 17.4375 39.65625 24.078125 
L 39.65625 51.859375 
L 48.4375 51.859375 
L 48.4375 0 
z
" id="ArialMT-75"/>
      <path d="M 6.640625 61.46875 
L 6.640625 71.578125 
L 15.4375 71.578125 
L 15.4375 61.46875 
z
M 6.640625 0 
L 6.640625 51.859375 
L 15.4375 51.859375 
L 15.4375 0 
z
" id="ArialMT-69"/>
     </defs>
     <g style="fill:#262626;" transform="translate(84.35 41.655987)scale(0.09 -0.09)">
      <use xlink:href="#ArialMT-4a"/>
      <use x="50" xlink:href="#ArialMT-61"/>
      <use x="105.615234" xlink:href="#ArialMT-67"/>
      <use x="161.230469" xlink:href="#ArialMT-75"/>
      <use x="216.845703" xlink:href="#ArialMT-61"/>
      <use x="272.460938" xlink:href="#ArialMT-72"/>
      <use x="305.761719" xlink:href="#ArialMT-20"/>
      <use x="333.544922" xlink:href="#ArialMT-6d"/>
      <use x="416.845703" xlink:href="#ArialMT-69"/>
      <use x="439.0625" xlink:href="#ArialMT-63"/>
      <use x="489.0625" xlink:href="#ArialMT-72"/>
      <use x="522.363281" xlink:href="#ArialMT-6f"/>
      <use x="577.978516" xlink:href="#ArialMT-73"/>
      <use x="627.978516" xlink:href="#ArialMT-74"/>
      <use x="655.761719" xlink:href="#ArialMT-61"/>
      <use x="711.376953" xlink:href="#ArialMT-74"/>
      <use x="739.160156" xlink:href="#ArialMT-65"/>
      <use x="794.775391" xlink:href="#ArialMT-73"/>
     </g>
    </g>
    <g id="patch_6">
     <path d="M 59.15 54.518955 
L 77.15 54.518955 
L 77.15 48.218955 
L 59.15 48.218955 
z
" style="fill:#f4a582;stroke:#f4a582;stroke-linejoin:miter;"/>
    </g>
    <g id="text_14">
     <!-- -1 charge -->
     <defs>
      <path d="M 3.171875 21.484375 
L 3.171875 30.328125 
L 30.171875 30.328125 
L 30.171875 21.484375 
z
" id="ArialMT-2d"/>
      <path d="M 6.59375 0 
L 6.59375 71.578125 
L 15.375 71.578125 
L 15.375 45.90625 
Q 21.53125 53.03125 30.90625 53.03125 
Q 36.671875 53.03125 40.921875 50.75 
Q 45.171875 48.484375 47 44.484375 
Q 48.828125 40.484375 48.828125 32.859375 
L 48.828125 0 
L 40.046875 0 
L 40.046875 32.859375 
Q 40.046875 39.453125 37.1875 42.453125 
Q 34.328125 45.453125 29.109375 45.453125 
Q 25.203125 45.453125 21.75 43.421875 
Q 18.3125 41.40625 16.84375 37.9375 
Q 15.375 34.46875 15.375 28.375 
L 15.375 0 
z
" id="ArialMT-68"/>
     </defs>
     <g style="fill:#262626;" transform="translate(84.35 54.518955)scale(0.09 -0.09)">
      <use xlink:href="#ArialMT-2d"/>
      <use x="33.300781" xlink:href="#ArialMT-31"/>
      <use x="88.916016" xlink:href="#ArialMT-20"/>
      <use x="116.699219" xlink:href="#ArialMT-63"/>
      <use x="166.699219" xlink:href="#ArialMT-68"/>
      <use x="222.314453" xlink:href="#ArialMT-61"/>
      <use x="277.929688" xlink:href="#ArialMT-72"/>
      <use x="311.230469" xlink:href="#ArialMT-67"/>
      <use x="366.845703" xlink:href="#ArialMT-65"/>
     </g>
    </g>
    <g id="patch_7">
     <path d="M 59.15 67.355205 
L 77.15 67.355205 
L 77.15 61.055205 
L 59.15 61.055205 
z
" style="fill:#333333;stroke:#333333;stroke-linejoin:miter;"/>
    </g>
    <g id="text_15">
     <!-- neutral -->
     <defs>
      <path d="M 6.390625 0 
L 6.390625 71.578125 
L 15.1875 71.578125 
L 15.1875 0 
z
" id="ArialMT-6c"/>
     </defs>
     <g style="fill:#262626;" transform="translate(84.35 67.355205)scale(0.09 -0.09)">
      <use xlink:href="#ArialMT-6e"/>
      <use x="55.615234" xlink:href="#ArialMT-65"/>
      <use x="111.230469" xlink:href="#ArialMT-75"/>
      <use x="166.845703" xlink:href="#ArialMT-74"/>
      <use x="194.628906" xlink:href="#ArialMT-72"/>
      <use x="227.929688" xlink:href="#ArialMT-61"/>
      <use x="283.544922" xlink:href="#ArialMT-6c"/>
     </g>
    </g>
    <g id="patch_8">
     <path d="M 59.15 80.112705 
L 77.15 80.112705 
L 77.15 73.812705 
L 59.15 73.812705 
z
" style="fill:#92c5de;stroke:#92c5de;stroke-linejoin:miter;"/>
    </g>
    <g id="text_16">
     <!-- +1 charge -->
     <defs>
      <path d="M 25.046875 11.578125 
L 25.046875 31.203125 
L 5.5625 31.203125 
L 5.5625 39.40625 
L 25.046875 39.40625 
L 25.046875 58.890625 
L 33.34375 58.890625 
L 33.34375 39.40625 
L 52.828125 39.40625 
L 52.828125 31.203125 
L 33.34375 31.203125 
L 33.34375 11.578125 
z
" id="ArialMT-2b"/>
     </defs>
     <g style="fill:#262626;" transform="translate(84.35 80.112705)scale(0.09 -0.09)">
      <use xlink:href="#ArialMT-2b"/>
      <use x="58.398438" xlink:href="#ArialMT-31"/>
      <use x="114.013672" xlink:href="#ArialMT-20"/>
      <use x="141.796875" xlink:href="#ArialMT-63"/>
      <use x="191.796875" xlink:href="#ArialMT-68"/>
      <use x="247.412109" xlink:href="#ArialMT-61"/>
      <use x="303.027344" xlink:href="#ArialMT-72"/>
      <use x="336.328125" xlink:href="#ArialMT-67"/>
      <use x="391.943359" xlink:href="#ArialMT-65"/>
     </g>
    </g>
    <g id="patch_9">
     <path d="M 59.15 92.975674 
L 77.15 92.975674 
L 77.15 86.675674 
L 59.15 86.675674 
z
" style="fill:#4393c3;stroke:#4393c3;stroke-linejoin:miter;"/>
    </g>
    <g id="text_17">
     <!-- +2 charge -->
     <g style="fill:#262626;" transform="translate(84.35 92.975674)scale(0.09 -0.09)">
      <use xlink:href="#ArialMT-2b"/>
      <use x="58.398438" xlink:href="#ArialMT-32"/>
      <use x="114.013672" xlink:href="#ArialMT-20"/>
      <use x="141.796875" xlink:href="#ArialMT-63"/>
      <use x="191.796875" xlink:href="#ArialMT-68"/>
      <use x="247.412109" xlink:href="#ArialMT-61"/>
      <use x="303.027344" xlink:href="#ArialMT-72"/>
      <use x="336.328125" xlink:href="#ArialMT-67"/>
      <use x="391.943359" xlink:href="#ArialMT-65"/>
     </g>
    </g>
   </g>
  </g>
 </g>
 <defs>
  <clipPath id="p298a0e7468">
   <rect height="105.656826" width="162.965179" x="51.05" y="14.383174"/>
  </clipPath>
 </defs>
</svg>
