<?xml version="1.0" encoding="utf-8" standalone="no"?>
<!DOCTYPE svg PUBLIC "-//W3C//DTD SVG 1.1//EN"
  "http://www.w3.org/Graphics/SVG/1.1/DTD/svg11.dtd">
<!-- Created with matplotlib (http://matplotlib.org/) -->
<svg height="144pt" version="1.1" viewBox="0 0 144 144" width="144pt" xmlns="http://www.w3.org/2000/svg" xmlns:xlink="http://www.w3.org/1999/xlink">
 <defs>
  <style type="text/css">
*{stroke-linecap:butt;stroke-linejoin:round;}
  </style>
 </defs>
 <g id="figure_1">
  <g id="patch_1">
   <path d="M 0 144 
L 144 144 
L 144 0 
L 0 0 
z
" style="fill:#ffffff;"/>
  </g>
  <g id="axes_1">
   <g id="patch_2">
    <path d="M 47.6 101.92 
L 130.44 101.92 
L 130.44 13.56 
L 47.6 13.56 
z
" style="fill:#ffffff;"/>
   </g>
   <g id="matplotlib.axis_1">
    <g id="xtick_1">
     <g id="line2d_1">
      <defs>
       <path d="M 0 0 
L 0 3.5 
" id="mf9a301f8c9" style="stroke:#262626;stroke-width:0.8;"/>
      </defs>
      <g>
       <use style="fill:#262626;stroke:#262626;stroke-width:0.8;" x="51.365455" xlink:href="#mf9a301f8c9" y="101.92"/>
      </g>
     </g>
     <g id="text_1">
      <!-- 2 -->
      <defs>
       <path d="M 50.34375 8.453125 
L 50.34375 0 
L 3.03125 0 
Q 2.9375 3.171875 4.046875 6.109375 
Q 5.859375 10.9375 9.828125 15.625 
Q 13.8125 20.3125 21.34375 26.46875 
Q 33.015625 36.03125 37.109375 41.625 
Q 41.21875 47.21875 41.21875 52.203125 
Q 41.21875 57.421875 37.46875 61 
Q 33.734375 64.59375 27.734375 64.59375 
Q 21.390625 64.59375 17.578125 60.78125 
Q 13.765625 56.984375 13.71875 50.25 
L 4.6875 51.171875 
Q 5.609375 61.28125 11.65625 66.578125 
Q 17.71875 71.875 27.9375 71.875 
Q 38.234375 71.875 44.234375 66.15625 
Q 50.25 60.453125 50.25 52 
Q 50.25 47.703125 48.484375 43.546875 
Q 46.734375 39.40625 42.65625 34.8125 
Q 38.578125 30.21875 29.109375 22.21875 
Q 21.1875 15.578125 18.9375 13.203125 
Q 16.703125 10.84375 15.234375 8.453125 
z
" id="ArialMT-32"/>
      </defs>
      <g style="fill:#262626;" transform="translate(48.306939 116.793594)scale(0.11 -0.11)">
       <use xlink:href="#ArialMT-32"/>
      </g>
     </g>
    </g>
    <g id="xtick_2">
     <g id="line2d_2">
      <g>
       <use style="fill:#262626;stroke:#262626;stroke-width:0.8;" x="66.427273" xlink:href="#mf9a301f8c9" y="101.92"/>
      </g>
     </g>
     <g id="text_2">
      <!-- 4 -->
      <defs>
       <path d="M 32.328125 0 
L 32.328125 17.140625 
L 1.265625 17.140625 
L 1.265625 25.203125 
L 33.9375 71.578125 
L 41.109375 71.578125 
L 41.109375 25.203125 
L 50.78125 25.203125 
L 50.78125 17.140625 
L 41.109375 17.140625 
L 41.109375 0 
z
M 32.328125 25.203125 
L 32.328125 57.46875 
L 9.90625 25.203125 
z
" id="ArialMT-34"/>
      </defs>
      <g style="fill:#262626;" transform="translate(63.368757 116.793594)scale(0.11 -0.11)">
       <use xlink:href="#ArialMT-34"/>
      </g>
     </g>
    </g>
    <g id="xtick_3">
     <g id="line2d_3">
      <g>
       <use style="fill:#262626;stroke:#262626;stroke-width:0.8;" x="81.489091" xlink:href="#mf9a301f8c9" y="101.92"/>
      </g>
     </g>
     <g id="text_3">
      <!-- 6 -->
      <defs>
       <path d="M 49.75 54.046875 
L 41.015625 53.375 
Q 39.84375 58.546875 37.703125 60.890625 
Q 34.125 64.65625 28.90625 64.65625 
Q 24.703125 64.65625 21.53125 62.3125 
Q 17.390625 59.28125 14.984375 53.46875 
Q 12.59375 47.65625 12.5 36.921875 
Q 15.671875 41.75 20.265625 44.09375 
Q 24.859375 46.4375 29.890625 46.4375 
Q 38.671875 46.4375 44.84375 39.96875 
Q 51.03125 33.5 51.03125 23.25 
Q 51.03125 16.5 48.125 10.71875 
Q 45.21875 4.9375 40.140625 1.859375 
Q 35.0625 -1.21875 28.609375 -1.21875 
Q 17.625 -1.21875 10.6875 6.859375 
Q 3.765625 14.9375 3.765625 33.5 
Q 3.765625 54.25 11.421875 63.671875 
Q 18.109375 71.875 29.4375 71.875 
Q 37.890625 71.875 43.28125 67.140625 
Q 48.6875 62.40625 49.75 54.046875 
z
M 13.875 23.1875 
Q 13.875 18.65625 15.796875 14.5 
Q 17.71875 10.359375 21.1875 8.171875 
Q 24.65625 6 28.46875 6 
Q 34.03125 6 38.03125 10.484375 
Q 42.046875 14.984375 42.046875 22.703125 
Q 42.046875 30.125 38.078125 34.390625 
Q 34.125 38.671875 28.125 38.671875 
Q 22.171875 38.671875 18.015625 34.390625 
Q 13.875 30.125 13.875 23.1875 
z
" id="ArialMT-36"/>
      </defs>
      <g style="fill:#262626;" transform="translate(78.430575 116.793594)scale(0.11 -0.11)">
       <use xlink:href="#ArialMT-36"/>
      </g>
     </g>
    </g>
    <g id="xtick_4">
     <g id="line2d_4">
      <g>
       <use style="fill:#262626;stroke:#262626;stroke-width:0.8;" x="96.550909" xlink:href="#mf9a301f8c9" y="101.92"/>
      </g>
     </g>
     <g id="text_4">
      <!-- 8 -->
      <defs>
       <path d="M 17.671875 38.8125 
Q 12.203125 40.828125 9.5625 44.53125 
Q 6.9375 48.25 6.9375 53.421875 
Q 6.9375 61.234375 12.546875 66.546875 
Q 18.171875 71.875 27.484375 71.875 
Q 36.859375 71.875 42.578125 66.421875 
Q 48.296875 60.984375 48.296875 53.171875 
Q 48.296875 48.1875 45.671875 44.5 
Q 43.0625 40.828125 37.75 38.8125 
Q 44.34375 36.671875 47.78125 31.875 
Q 51.21875 27.09375 51.21875 20.453125 
Q 51.21875 11.28125 44.71875 5.03125 
Q 38.234375 -1.21875 27.640625 -1.21875 
Q 17.046875 -1.21875 10.546875 5.046875 
Q 4.046875 11.328125 4.046875 20.703125 
Q 4.046875 27.6875 7.59375 32.390625 
Q 11.140625 37.109375 17.671875 38.8125 
z
M 15.921875 53.71875 
Q 15.921875 48.640625 19.1875 45.40625 
Q 22.46875 42.1875 27.6875 42.1875 
Q 32.765625 42.1875 36.015625 45.375 
Q 39.265625 48.578125 39.265625 53.21875 
Q 39.265625 58.0625 35.90625 61.359375 
Q 32.5625 64.65625 27.59375 64.65625 
Q 22.5625 64.65625 19.234375 61.421875 
Q 15.921875 58.203125 15.921875 53.71875 
z
M 13.09375 20.65625 
Q 13.09375 16.890625 14.875 13.375 
Q 16.65625 9.859375 20.171875 7.921875 
Q 23.6875 6 27.734375 6 
Q 34.03125 6 38.125 10.046875 
Q 42.234375 14.109375 42.234375 20.359375 
Q 42.234375 26.703125 38.015625 30.859375 
Q 33.796875 35.015625 27.4375 35.015625 
Q 21.234375 35.015625 17.15625 30.90625 
Q 13.09375 26.8125 13.09375 20.65625 
z
" id="ArialMT-38"/>
      </defs>
      <g style="fill:#262626;" transform="translate(93.492393 116.793594)scale(0.11 -0.11)">
       <use xlink:href="#ArialMT-38"/>
      </g>
     </g>
    </g>
    <g id="xtick_5">
     <g id="line2d_5">
      <g>
       <use style="fill:#262626;stroke:#262626;stroke-width:0.8;" x="111.612727" xlink:href="#mf9a301f8c9" y="101.92"/>
      </g>
     </g>
     <g id="text_5">
      <!-- 10 -->
      <defs>
       <path d="M 37.25 0 
L 28.46875 0 
L 28.46875 56 
Q 25.296875 52.984375 20.140625 49.953125 
Q 14.984375 46.921875 10.890625 45.40625 
L 10.890625 53.90625 
Q 18.265625 57.375 23.78125 62.296875 
Q 29.296875 67.234375 31.59375 71.875 
L 37.25 71.875 
z
" id="ArialMT-31"/>
       <path d="M 4.15625 35.296875 
Q 4.15625 48 6.765625 55.734375 
Q 9.375 63.484375 14.515625 67.671875 
Q 19.671875 71.875 27.484375 71.875 
Q 33.25 71.875 37.59375 69.546875 
Q 41.9375 67.234375 44.765625 62.859375 
Q 47.609375 58.5 49.21875 52.21875 
Q 50.828125 45.953125 50.828125 35.296875 
Q 50.828125 22.703125 48.234375 14.96875 
Q 45.65625 7.234375 40.5 3 
Q 35.359375 -1.21875 27.484375 -1.21875 
Q 17.140625 -1.21875 11.234375 6.203125 
Q 4.15625 15.140625 4.15625 35.296875 
z
M 13.1875 35.296875 
Q 13.1875 17.671875 17.3125 11.828125 
Q 21.4375 6 27.484375 6 
Q 33.546875 6 37.671875 11.859375 
Q 41.796875 17.71875 41.796875 35.296875 
Q 41.796875 52.984375 37.671875 58.78125 
Q 33.546875 64.59375 27.390625 64.59375 
Q 21.34375 64.59375 17.71875 59.46875 
Q 13.1875 52.9375 13.1875 35.296875 
z
" id="ArialMT-30"/>
      </defs>
      <g style="fill:#262626;" transform="translate(105.495696 116.793594)scale(0.11 -0.11)">
       <use xlink:href="#ArialMT-31"/>
       <use x="55.615234" xlink:href="#ArialMT-30"/>
      </g>
     </g>
    </g>
    <g id="xtick_6">
     <g id="line2d_6">
      <g>
       <use style="fill:#262626;stroke:#262626;stroke-width:0.8;" x="126.674545" xlink:href="#mf9a301f8c9" y="101.92"/>
      </g>
     </g>
     <g id="text_6">
      <!-- 12 -->
      <g style="fill:#262626;" transform="translate(120.557514 116.793594)scale(0.11 -0.11)">
       <use xlink:href="#ArialMT-31"/>
       <use x="55.615234" xlink:href="#ArialMT-32"/>
      </g>
     </g>
    </g>
    <g id="text_7">
     <!-- pH -->
     <defs>
      <path d="M 6.59375 -19.875 
L 6.59375 51.859375 
L 14.59375 51.859375 
L 14.59375 45.125 
Q 17.4375 49.078125 21 51.046875 
Q 24.5625 53.03125 29.640625 53.03125 
Q 36.28125 53.03125 41.359375 49.609375 
Q 46.4375 46.1875 49.015625 39.953125 
Q 51.609375 33.734375 51.609375 26.3125 
Q 51.609375 18.359375 48.75 11.984375 
Q 45.90625 5.609375 40.453125 2.21875 
Q 35.015625 -1.171875 29 -1.171875 
Q 24.609375 -1.171875 21.109375 0.6875 
Q 17.625 2.546875 15.375 5.375 
L 15.375 -19.875 
z
M 14.546875 25.640625 
Q 14.546875 15.625 18.59375 10.84375 
Q 22.65625 6.0625 28.421875 6.0625 
Q 34.28125 6.0625 38.453125 11.015625 
Q 42.625 15.96875 42.625 26.375 
Q 42.625 36.28125 38.546875 41.203125 
Q 34.46875 46.140625 28.8125 46.140625 
Q 23.1875 46.140625 18.859375 40.890625 
Q 14.546875 35.640625 14.546875 25.640625 
z
" id="ArialMT-70"/>
      <path d="M 8.015625 0 
L 8.015625 71.578125 
L 17.484375 71.578125 
L 17.484375 42.1875 
L 54.6875 42.1875 
L 54.6875 71.578125 
L 64.15625 71.578125 
L 64.15625 0 
L 54.6875 0 
L 54.6875 33.734375 
L 17.484375 33.734375 
L 17.484375 0 
z
" id="ArialMT-48"/>
     </defs>
     <g style="fill:#262626;" transform="translate(81.989453 130.853437)scale(0.11 -0.11)">
      <use xlink:href="#ArialMT-70"/>
      <use x="55.615234" xlink:href="#ArialMT-48"/>
     </g>
    </g>
   </g>
   <g id="matplotlib.axis_2">
    <g id="ytick_1">
     <g id="line2d_7">
      <defs>
       <path d="M 0 0 
L -3.5 0 
" id="m2d4f97fb2a" style="stroke:#262626;stroke-width:0.8;"/>
      </defs>
      <g>
       <use style="fill:#262626;stroke:#262626;stroke-width:0.8;" x="47.6" xlink:href="#m2d4f97fb2a" y="82.098195"/>
      </g>
     </g>
     <g id="text_8">
      <!-- 0 -->
      <g style="fill:#262626;" transform="translate(34.482969 86.034992)scale(0.11 -0.11)">
       <use xlink:href="#ArialMT-30"/>
      </g>
     </g>
    </g>
    <g id="ytick_2">
     <g id="line2d_8">
      <g>
       <use style="fill:#262626;stroke:#262626;stroke-width:0.8;" x="47.6" xlink:href="#m2d4f97fb2a" y="49.432026"/>
      </g>
     </g>
     <g id="text_9">
      <!-- 20 -->
      <g style="fill:#262626;" transform="translate(28.365938 53.368823)scale(0.11 -0.11)">
       <use xlink:href="#ArialMT-32"/>
       <use x="55.615234" xlink:href="#ArialMT-30"/>
      </g>
     </g>
    </g>
    <g id="ytick_3">
     <g id="line2d_9">
      <g>
       <use style="fill:#262626;stroke:#262626;stroke-width:0.8;" x="47.6" xlink:href="#m2d4f97fb2a" y="16.765858"/>
      </g>
     </g>
     <g id="text_10">
      <!-- 40 -->
      <g style="fill:#262626;" transform="translate(28.365938 20.702655)scale(0.11 -0.11)">
       <use xlink:href="#ArialMT-34"/>
       <use x="55.615234" xlink:href="#ArialMT-30"/>
      </g>
     </g>
    </g>
    <g id="text_11">
     <!-- Free energy ($k_B T$) -->
     <defs>
      <path d="M 8.203125 0 
L 8.203125 71.578125 
L 56.5 71.578125 
L 56.5 63.140625 
L 17.671875 63.140625 
L 17.671875 40.96875 
L 51.265625 40.96875 
L 51.265625 32.515625 
L 17.671875 32.515625 
L 17.671875 0 
z
" id="ArialMT-46"/>
      <path d="M 6.5 0 
L 6.5 51.859375 
L 14.40625 51.859375 
L 14.40625 44 
Q 17.4375 49.515625 20 51.265625 
Q 22.5625 53.03125 25.640625 53.03125 
Q 30.078125 53.03125 34.671875 50.203125 
L 31.640625 42.046875 
Q 28.421875 43.953125 25.203125 43.953125 
Q 22.3125 43.953125 20.015625 42.21875 
Q 17.71875 40.484375 16.75 37.40625 
Q 15.28125 32.71875 15.28125 27.15625 
L 15.28125 0 
z
" id="ArialMT-72"/>
      <path d="M 42.09375 16.703125 
L 51.171875 15.578125 
Q 49.03125 7.625 43.21875 3.21875 
Q 37.40625 -1.171875 28.375 -1.171875 
Q 17 -1.171875 10.328125 5.828125 
Q 3.65625 12.84375 3.65625 25.484375 
Q 3.65625 38.578125 10.390625 45.796875 
Q 17.140625 53.03125 27.875 53.03125 
Q 38.28125 53.03125 44.875 45.953125 
Q 51.46875 38.875 51.46875 26.03125 
Q 51.46875 25.25 51.421875 23.6875 
L 12.75 23.6875 
Q 13.234375 15.140625 17.578125 10.59375 
Q 21.921875 6.0625 28.421875 6.0625 
Q 33.25 6.0625 36.671875 8.59375 
Q 40.09375 11.140625 42.09375 16.703125 
z
M 13.234375 30.90625 
L 42.1875 30.90625 
Q 41.609375 37.453125 38.875 40.71875 
Q 34.671875 45.796875 27.984375 45.796875 
Q 21.921875 45.796875 17.796875 41.75 
Q 13.671875 37.703125 13.234375 30.90625 
z
" id="ArialMT-65"/>
      <path id="ArialMT-20"/>
      <path d="M 6.59375 0 
L 6.59375 51.859375 
L 14.5 51.859375 
L 14.5 44.484375 
Q 20.21875 53.03125 31 53.03125 
Q 35.6875 53.03125 39.625 51.34375 
Q 43.5625 49.65625 45.515625 46.921875 
Q 47.46875 44.1875 48.25 40.4375 
Q 48.734375 37.984375 48.734375 31.890625 
L 48.734375 0 
L 39.9375 0 
L 39.9375 31.546875 
Q 39.9375 36.921875 38.90625 39.578125 
Q 37.890625 42.234375 35.28125 43.8125 
Q 32.671875 45.40625 29.15625 45.40625 
Q 23.53125 45.40625 19.453125 41.84375 
Q 15.375 38.28125 15.375 28.328125 
L 15.375 0 
z
" id="ArialMT-6e"/>
      <path d="M 4.984375 -4.296875 
L 13.53125 -5.5625 
Q 14.0625 -9.515625 16.5 -11.328125 
Q 19.78125 -13.765625 25.4375 -13.765625 
Q 31.546875 -13.765625 34.859375 -11.328125 
Q 38.1875 -8.890625 39.359375 -4.5 
Q 40.046875 -1.8125 39.984375 6.78125 
Q 34.234375 0 25.640625 0 
Q 14.9375 0 9.078125 7.71875 
Q 3.21875 15.4375 3.21875 26.21875 
Q 3.21875 33.640625 5.90625 39.90625 
Q 8.59375 46.1875 13.6875 49.609375 
Q 18.796875 53.03125 25.6875 53.03125 
Q 34.859375 53.03125 40.828125 45.609375 
L 40.828125 51.859375 
L 48.921875 51.859375 
L 48.921875 7.03125 
Q 48.921875 -5.078125 46.453125 -10.125 
Q 44 -15.1875 38.640625 -18.109375 
Q 33.296875 -21.046875 25.484375 -21.046875 
Q 16.21875 -21.046875 10.5 -16.875 
Q 4.78125 -12.703125 4.984375 -4.296875 
z
M 12.25 26.859375 
Q 12.25 16.65625 16.296875 11.96875 
Q 20.359375 7.28125 26.46875 7.28125 
Q 32.515625 7.28125 36.609375 11.9375 
Q 40.71875 16.609375 40.71875 26.5625 
Q 40.71875 36.078125 36.5 40.90625 
Q 32.28125 45.75 26.3125 45.75 
Q 20.453125 45.75 16.34375 40.984375 
Q 12.25 36.234375 12.25 26.859375 
z
" id="ArialMT-67"/>
      <path d="M 6.203125 -19.96875 
L 5.21875 -11.71875 
Q 8.109375 -12.5 10.25 -12.5 
Q 13.1875 -12.5 14.9375 -11.515625 
Q 16.703125 -10.546875 17.828125 -8.796875 
Q 18.65625 -7.46875 20.515625 -2.25 
Q 20.75 -1.515625 21.296875 -0.09375 
L 1.609375 51.859375 
L 11.078125 51.859375 
L 21.875 21.828125 
Q 23.96875 16.109375 25.640625 9.8125 
Q 27.15625 15.875 29.25 21.625 
L 40.328125 51.859375 
L 49.125 51.859375 
L 29.390625 -0.875 
Q 26.21875 -9.421875 24.46875 -12.640625 
Q 22.125 -17 19.09375 -19.015625 
Q 16.0625 -21.046875 11.859375 -21.046875 
Q 9.328125 -21.046875 6.203125 -19.96875 
z
" id="ArialMT-79"/>
      <path d="M 23.390625 -21.046875 
Q 16.109375 -11.859375 11.078125 0.4375 
Q 6.0625 12.75 6.0625 25.921875 
Q 6.0625 37.546875 9.8125 48.1875 
Q 14.203125 60.546875 23.390625 72.796875 
L 29.6875 72.796875 
Q 23.78125 62.640625 21.875 58.296875 
Q 18.890625 51.5625 17.1875 44.234375 
Q 15.09375 35.109375 15.09375 25.875 
Q 15.09375 2.390625 29.6875 -21.046875 
z
" id="ArialMT-28"/>
      <path d="M 18.3125 75.984375 
L 27.296875 75.984375 
L 18.703125 31.6875 
L 49.515625 54.6875 
L 61.1875 54.6875 
L 26.8125 28.515625 
L 51.90625 0 
L 41.015625 0 
L 17.671875 26.703125 
L 12.5 0 
L 3.515625 0 
z
" id="DejaVuSans-Oblique-6b"/>
      <path d="M 16.890625 72.90625 
L 42.09375 72.90625 
Q 52.34375 72.90625 57.421875 69.09375 
Q 62.5 65.28125 62.5 57.625 
Q 62.5 50.59375 58.125 45.484375 
Q 53.765625 40.375 46.6875 39.3125 
Q 52.734375 37.9375 55.765625 34.078125 
Q 58.796875 30.21875 58.796875 23.78125 
Q 58.796875 12.796875 50.65625 6.390625 
Q 42.53125 0 28.421875 0 
L 2.6875 0 
z
M 19.28125 34.8125 
L 14.109375 8.109375 
L 29.984375 8.109375 
Q 38.921875 8.109375 43.75 12.203125 
Q 48.578125 16.3125 48.578125 23.78125 
Q 48.578125 29.546875 45.375 32.171875 
Q 42.1875 34.8125 35.109375 34.8125 
z
M 25.09375 64.796875 
L 20.796875 42.828125 
L 35.5 42.828125 
Q 43.359375 42.828125 47.78125 46.234375 
Q 52.203125 49.65625 52.203125 55.71875 
Q 52.203125 60.453125 49.21875 62.625 
Q 46.234375 64.796875 39.703125 64.796875 
z
" id="DejaVuSans-Oblique-42"/>
      <path d="M 5.90625 72.90625 
L 67.578125 72.90625 
L 66.015625 64.59375 
L 39.984375 64.59375 
L 27.484375 0 
L 17.578125 0 
L 30.078125 64.59375 
L 4.296875 64.59375 
z
" id="DejaVuSans-Oblique-54"/>
      <path d="M 12.359375 -21.046875 
L 6.0625 -21.046875 
Q 20.65625 2.390625 20.65625 25.875 
Q 20.65625 35.0625 18.5625 44.09375 
Q 16.890625 51.421875 13.921875 58.15625 
Q 12.015625 62.546875 6.0625 72.796875 
L 12.359375 72.796875 
Q 21.53125 60.546875 25.921875 48.1875 
Q 29.6875 37.546875 29.6875 25.921875 
Q 29.6875 12.75 24.625 0.4375 
Q 19.578125 -11.859375 12.359375 -21.046875 
z
" id="ArialMT-29"/>
     </defs>
     <g style="fill:#262626;" transform="translate(21.945938 101.96)rotate(-90)scale(0.11 -0.11)">
      <use transform="translate(0 0.015625)" xlink:href="#ArialMT-46"/>
      <use transform="translate(61.083984 0.015625)" xlink:href="#ArialMT-72"/>
      <use transform="translate(94.384766 0.015625)" xlink:href="#ArialMT-65"/>
      <use transform="translate(150 0.015625)" xlink:href="#ArialMT-65"/>
      <use transform="translate(205.615234 0.015625)" xlink:href="#ArialMT-20"/>
      <use transform="translate(233.398438 0.015625)" xlink:href="#ArialMT-65"/>
      <use transform="translate(289.013672 0.015625)" xlink:href="#ArialMT-6e"/>
      <use transform="translate(344.628906 0.015625)" xlink:href="#ArialMT-65"/>
      <use transform="translate(400.244141 0.015625)" xlink:href="#ArialMT-72"/>
      <use transform="translate(433.544922 0.015625)" xlink:href="#ArialMT-67"/>
      <use transform="translate(489.160156 0.015625)" xlink:href="#ArialMT-79"/>
      <use transform="translate(539.160156 0.015625)" xlink:href="#ArialMT-20"/>
      <use transform="translate(566.943359 0.015625)" xlink:href="#ArialMT-28"/>
      <use transform="translate(600.244141 0.015625)" xlink:href="#DejaVuSans-Oblique-6b"/>
      <use transform="translate(658.154297 -16.390625)scale(0.7)" xlink:href="#DejaVuSans-Oblique-42"/>
      <use transform="translate(708.911133 0.015625)" xlink:href="#DejaVuSans-Oblique-54"/>
      <use transform="translate(769.995117 0.015625)" xlink:href="#ArialMT-29"/>
     </g>
    </g>
   </g>
   <g id="patch_3">
    <path d="M 47.6 101.92 
L 47.6 13.56 
" style="fill:none;stroke:#262626;stroke-linecap:square;stroke-linejoin:miter;stroke-width:0.8;"/>
   </g>
   <g id="patch_4">
    <path d="M 47.6 101.92 
L 130.44 101.92 
" style="fill:none;stroke:#262626;stroke-linecap:square;stroke-linejoin:miter;stroke-width:0.8;"/>
   </g>
   <g id="line2d_10">
    <path clip-path="url(#pb5b0afdfeb)" d="M 51.365455 92.785023 
L 52.118545 92.032857 
L 52.871636 91.280691 
L 53.624727 90.528524 
L 54.377818 89.776358 
L 55.130909 89.024192 
L 55.884 88.272025 
L 56.637091 87.519859 
L 57.390182 86.767693 
L 58.143273 86.015526 
L 58.896364 85.26336 
L 59.649455 84.511194 
L 60.402545 83.759027 
L 61.155636 83.006861 
L 61.908727 82.254695 
L 62.661818 81.502528 
L 63.414909 80.750362 
L 64.168 79.998196 
L 64.921091 79.246029 
L 65.674182 78.493863 
L 66.427273 77.741697 
L 67.180364 76.98953 
L 67.933455 76.237364 
L 68.686545 75.485198 
L 69.439636 74.733031 
L 70.192727 73.980865 
L 70.945818 73.228699 
L 71.698909 72.476532 
L 72.452 71.724366 
L 73.205091 70.9722 
L 73.958182 70.220033 
L 74.711273 69.467867 
L 75.464364 68.715701 
L 76.217455 67.963534 
L 76.970545 67.211368 
L 77.723636 66.459202 
L 78.476727 65.707035 
L 79.229818 64.954869 
L 79.982909 64.202703 
L 80.736 63.450536 
L 81.489091 62.69837 
L 82.242182 61.946204 
L 82.995273 61.194037 
L 83.748364 60.441871 
L 84.501455 59.689705 
L 85.254545 58.937538 
L 86.007636 58.185372 
L 86.760727 57.433206 
L 87.513818 56.681039 
L 88.266909 55.928873 
L 89.02 55.176707 
L 89.773091 54.42454 
L 90.526182 53.672374 
L 91.279273 52.920208 
L 92.032364 52.168041 
L 92.785455 51.415875 
L 93.538545 50.663709 
L 94.291636 49.911542 
L 95.044727 49.159376 
L 95.797818 48.40721 
L 96.550909 47.655043 
L 97.304 46.902877 
L 98.057091 46.150711 
L 98.810182 45.398545 
L 99.563273 44.646378 
L 100.316364 43.894211 
L 101.069455 43.142043 
L 101.822545 42.389874 
L 102.575636 41.637718 
L 103.328727 40.885539 
L 104.081818 40.133377 
L 104.834909 39.381218 
L 105.588 38.629023 
L 106.341091 37.876944 
L 107.094182 37.124709 
L 107.847273 36.372587 
L 108.600364 35.620491 
L 109.353455 34.867633 
L 110.106545 34.116372 
L 110.859636 33.363779 
L 111.612727 32.61116 
L 112.365818 31.860359 
L 113.118909 31.108252 
L 113.872 30.361734 
L 114.625091 29.600016 
L 115.378182 28.840492 
L 116.131273 28.133534 
L 116.884364 27.29673 
L 117.637455 26.577459 
L 118.390545 25.9331 
L 119.143636 25.28496 
L 119.896727 24.253059 
L 120.649818 23.596842 
L 121.402909 22.840737 
L 122.156 22.088684 
L 122.909091 21.33663 
L 123.662182 20.584577 
L 124.415273 19.832524 
L 125.168364 19.08047 
L 125.921455 18.328417 
L 126.674545 17.576364 
" style="fill:none;stroke:#4393c3;stroke-linecap:round;stroke-width:1.5;"/>
   </g>
   <g id="line2d_11">
    <path clip-path="url(#pb5b0afdfeb)" d="M 51.365455 39.346287 
L 52.118545 39.72237 
L 52.871636 40.098453 
L 53.624727 40.474537 
L 54.377818 40.85062 
L 55.130909 41.226703 
L 55.884 41.602786 
L 56.637091 41.978869 
L 57.390182 42.354952 
L 58.143273 42.731036 
L 58.896364 43.107119 
L 59.649455 43.483202 
L 60.402545 43.859285 
L 61.155636 44.235368 
L 61.908727 44.611451 
L 62.661818 44.987535 
L 63.414909 45.363618 
L 64.168 45.739701 
L 64.921091 46.115784 
L 65.674182 46.491867 
L 66.427273 46.86795 
L 67.180364 47.244034 
L 67.933455 47.620117 
L 68.686545 47.9962 
L 69.439636 48.372283 
L 70.192727 48.748366 
L 70.945818 49.124449 
L 71.698909 49.500533 
L 72.452 49.876616 
L 73.205091 50.252699 
L 73.958182 50.628782 
L 74.711273 51.004865 
L 75.464364 51.380948 
L 76.217455 51.757031 
L 76.970545 52.133115 
L 77.723636 52.509198 
L 78.476727 52.885281 
L 79.229818 53.261364 
L 79.982909 53.637447 
L 80.736 54.01353 
L 81.489091 54.389614 
L 82.242182 54.765697 
L 82.995273 55.14178 
L 83.748364 55.517863 
L 84.501455 55.893946 
L 85.254545 56.270029 
L 86.007636 56.646113 
L 86.760727 57.022196 
L 87.513818 57.398279 
L 88.266909 57.774362 
L 89.02 58.150445 
L 89.773091 58.526528 
L 90.526182 58.902612 
L 91.279273 59.278695 
L 92.032364 59.654778 
L 92.785455 60.030861 
L 93.538545 60.406944 
L 94.291636 60.783027 
L 95.044727 61.159111 
L 95.797818 61.535194 
L 96.550909 61.911277 
L 97.304 62.28736 
L 98.057091 62.663443 
L 98.810182 63.039526 
L 99.563273 63.41561 
L 100.316364 63.791693 
L 101.069455 64.167776 
L 101.822545 64.543859 
L 102.575636 64.919942 
L 103.328727 65.296025 
L 104.081818 65.672109 
L 104.834909 66.048192 
L 105.588 66.424275 
L 106.341091 66.800358 
L 107.094182 67.176441 
L 107.847273 67.552524 
L 108.600364 67.928608 
L 109.353455 68.304691 
L 110.106545 68.680774 
L 110.859636 69.056857 
L 111.612727 69.43294 
L 112.365818 69.809023 
L 113.118909 70.185107 
L 113.872 70.56119 
L 114.625091 70.937273 
L 115.378182 71.313356 
L 116.131273 71.689439 
L 116.884364 72.065522 
L 117.637455 72.441606 
L 118.390545 72.817689 
L 119.143636 73.193772 
L 119.896727 73.569855 
L 120.649818 73.945938 
L 121.402909 74.322021 
L 122.156 74.698105 
L 122.909091 75.074188 
L 123.662182 75.450271 
L 124.415273 75.826354 
L 125.168364 76.202437 
L 125.921455 76.57852 
L 126.674545 76.954604 
" style="fill:none;stroke:#f4a582;stroke-linecap:round;stroke-width:1.5;"/>
   </g>
   <g id="line2d_12">
    <path clip-path="url(#pb5b0afdfeb)" d="M 51.365455 97.903636 
L 52.118545 97.527553 
L 52.871636 97.15147 
L 53.624727 96.775387 
L 54.377818 96.399304 
L 55.130909 96.023221 
L 55.884 95.647137 
L 56.637091 95.271054 
L 57.390182 94.894971 
L 58.143273 94.518888 
L 58.896364 94.142805 
L 59.649455 93.766722 
L 60.402545 93.390638 
L 61.155636 93.014555 
L 61.908727 92.638472 
L 62.661818 92.262389 
L 63.414909 91.886306 
L 64.168 91.510223 
L 64.921091 91.134139 
L 65.674182 90.758056 
L 66.427273 90.381973 
L 67.180364 90.00589 
L 67.933455 89.629807 
L 68.686545 89.253724 
L 69.439636 88.87764 
L 70.192727 88.501557 
L 70.945818 88.125474 
L 71.698909 87.749391 
L 72.452 87.373308 
L 73.205091 86.997225 
L 73.958182 86.621141 
L 74.711273 86.245058 
L 75.464364 85.868975 
L 76.217455 85.492892 
L 76.970545 85.116809 
L 77.723636 84.740726 
L 78.476727 84.364642 
L 79.229818 83.988559 
L 79.982909 83.612476 
L 80.736 83.236393 
L 81.489091 82.86031 
L 82.242182 82.484227 
L 82.995273 82.108143 
L 83.748364 81.73206 
L 84.501455 81.355977 
L 85.254545 80.979894 
L 86.007636 80.603811 
L 86.760727 80.227728 
L 87.513818 79.851644 
L 88.266909 79.475561 
L 89.02 79.099478 
L 89.773091 78.723395 
L 90.526182 78.347312 
L 91.279273 77.971229 
L 92.032364 77.595145 
L 92.785455 77.219062 
L 93.538545 76.842979 
L 94.291636 76.466896 
L 95.044727 76.090813 
L 95.797818 75.71473 
L 96.550909 75.338646 
L 97.304 74.962563 
L 98.057091 74.58648 
L 98.810182 74.210397 
L 99.563273 73.834314 
L 100.316364 73.458231 
L 101.069455 73.082147 
L 101.822545 72.706064 
L 102.575636 72.329981 
L 103.328727 71.953898 
L 104.081818 71.577815 
L 104.834909 71.201732 
L 105.588 70.825648 
L 106.341091 70.449565 
L 107.094182 70.073482 
L 107.847273 69.697399 
L 108.600364 69.321316 
L 109.353455 68.945233 
L 110.106545 68.569149 
L 110.859636 68.193066 
L 111.612727 67.816983 
L 112.365818 67.4409 
L 113.118909 67.064817 
L 113.872 66.688734 
L 114.625091 66.31265 
L 115.378182 65.936567 
L 116.131273 65.560484 
L 116.884364 65.184401 
L 117.637455 64.808318 
L 118.390545 64.432235 
L 119.143636 64.056151 
L 119.896727 63.680068 
L 120.649818 63.303985 
L 121.402909 62.927902 
L 122.156 62.551819 
L 122.909091 62.175736 
L 123.662182 61.799652 
L 124.415273 61.423569 
L 125.168364 61.047486 
L 125.921455 60.671403 
L 126.674545 60.29532 
" style="fill:none;stroke:#92c5de;stroke-linecap:round;stroke-width:1.5;"/>
   </g>
   <g id="line2d_13">
    <path clip-path="url(#pb5b0afdfeb)" d="M 51.365455 82.098195 
L 52.118545 82.098195 
L 52.871636 82.098195 
L 53.624727 82.098195 
L 54.377818 82.098195 
L 55.130909 82.098195 
L 55.884 82.098195 
L 56.637091 82.098195 
L 57.390182 82.098195 
L 58.143273 82.098195 
L 58.896364 82.098195 
L 59.649455 82.098195 
L 60.402545 82.098195 
L 61.155636 82.098195 
L 61.908727 82.098195 
L 62.661818 82.098195 
L 63.414909 82.098195 
L 64.168 82.098195 
L 64.921091 82.098195 
L 65.674182 82.098195 
L 66.427273 82.098195 
L 67.180364 82.098195 
L 67.933455 82.098195 
L 68.686545 82.098195 
L 69.439636 82.098195 
L 70.192727 82.098195 
L 70.945818 82.098195 
L 71.698909 82.098195 
L 72.452 82.098195 
L 73.205091 82.098195 
L 73.958182 82.098195 
L 74.711273 82.098195 
L 75.464364 82.098195 
L 76.217455 82.098195 
L 76.970545 82.098195 
L 77.723636 82.098195 
L 78.476727 82.098195 
L 79.229818 82.098195 
L 79.982909 82.098195 
L 80.736 82.098195 
L 81.489091 82.098195 
L 82.242182 82.098195 
L 82.995273 82.098195 
L 83.748364 82.098195 
L 84.501455 82.098195 
L 85.254545 82.098195 
L 86.007636 82.098195 
L 86.760727 82.098195 
L 87.513818 82.098195 
L 88.266909 82.098195 
L 89.02 82.098195 
L 89.773091 82.098195 
L 90.526182 82.098195 
L 91.279273 82.098195 
L 92.032364 82.098195 
L 92.785455 82.098195 
L 93.538545 82.098195 
L 94.291636 82.098195 
L 95.044727 82.098195 
L 95.797818 82.098195 
L 96.550909 82.098195 
L 97.304 82.098195 
L 98.057091 82.098195 
L 98.810182 82.098195 
L 99.563273 82.098195 
L 100.316364 82.098195 
L 101.069455 82.098195 
L 101.822545 82.098195 
L 102.575636 82.098195 
L 103.328727 82.098195 
L 104.081818 82.098195 
L 104.834909 82.098195 
L 105.588 82.098195 
L 106.341091 82.098195 
L 107.094182 82.098195 
L 107.847273 82.098195 
L 108.600364 82.098195 
L 109.353455 82.098195 
L 110.106545 82.098195 
L 110.859636 82.098195 
L 111.612727 82.098195 
L 112.365818 82.098195 
L 113.118909 82.098195 
L 113.872 82.098195 
L 114.625091 82.098195 
L 115.378182 82.098195 
L 116.131273 82.098195 
L 116.884364 82.098195 
L 117.637455 82.098195 
L 118.390545 82.098195 
L 119.143636 82.098195 
L 119.896727 82.098195 
L 120.649818 82.098195 
L 121.402909 82.098195 
L 122.156 82.098195 
L 122.909091 82.098195 
L 123.662182 82.098195 
L 124.415273 82.098195 
L 125.168364 82.098195 
L 125.921455 82.098195 
L 126.674545 82.098195 
" style="fill:none;stroke:#333333;stroke-linecap:round;stroke-width:1.5;"/>
   </g>
  </g>
 </g>
 <defs>
  <clipPath id="pb5b0afdfeb">
   <rect height="88.36" width="82.84" x="47.6" y="13.56"/>
  </clipPath>
 </defs>
</svg>
