<?xml version="1.0" encoding="utf-8" standalone="no"?>
<!DOCTYPE svg PUBLIC "-//W3C//DTD SVG 1.1//EN"
  "http://www.w3.org/Graphics/SVG/1.1/DTD/svg11.dtd">
<!-- Created with matplotlib (http://matplotlib.org/) -->
<svg height="216pt" version="1.1" viewBox="0 0 216 216" width="216pt" xmlns="http://www.w3.org/2000/svg" xmlns:xlink="http://www.w3.org/1999/xlink">
 <defs>
  <style type="text/css">
*{stroke-linecap:butt;stroke-linejoin:round;}
  </style>
 </defs>
 <g id="figure_1">
  <g id="patch_1">
   <path d="M 0 216 
L 216 216 
L 216 0 
L 0 0 
z
" style="fill:#ffffff;"/>
  </g>
  <g id="axes_1">
   <g id="patch_2">
    <path d="M 44.78 175.96 
L 203.52 175.96 
L 203.52 25.44 
L 44.78 25.44 
z
" style="fill:#ffffff;"/>
   </g>
   <g id="matplotlib.axis_1">
    <g id="xtick_1">
     <g id="line2d_1">
      <defs>
       <path d="M 0 0 
L 0 3.5 
" id="m4cc3942fa6" style="stroke:#262626;stroke-width:0.8;"/>
      </defs>
      <g>
       <use style="fill:#262626;stroke:#262626;stroke-width:0.8;" x="51.995455" xlink:href="#m4cc3942fa6" y="175.96"/>
      </g>
     </g>
     <g id="text_1">
      <!-- 2 -->
      <defs>
       <path d="M 50.34375 8.453125 
L 50.34375 0 
L 3.03125 0 
Q 2.9375 3.171875 4.046875 6.109375 
Q 5.859375 10.9375 9.828125 15.625 
Q 13.8125 20.3125 21.34375 26.46875 
Q 33.015625 36.03125 37.109375 41.625 
Q 41.21875 47.21875 41.21875 52.203125 
Q 41.21875 57.421875 37.46875 61 
Q 33.734375 64.59375 27.734375 64.59375 
Q 21.390625 64.59375 17.578125 60.78125 
Q 13.765625 56.984375 13.71875 50.25 
L 4.6875 51.171875 
Q 5.609375 61.28125 11.65625 66.578125 
Q 17.71875 71.875 27.9375 71.875 
Q 38.234375 71.875 44.234375 66.15625 
Q 50.25 60.453125 50.25 52 
Q 50.25 47.703125 48.484375 43.546875 
Q 46.734375 39.40625 42.65625 34.8125 
Q 38.578125 30.21875 29.109375 22.21875 
Q 21.1875 15.578125 18.9375 13.203125 
Q 16.703125 10.84375 15.234375 8.453125 
z
" id="ArialMT-32"/>
      </defs>
      <g style="fill:#262626;" transform="translate(49.214986 190.117812)scale(0.1 -0.1)">
       <use xlink:href="#ArialMT-32"/>
      </g>
     </g>
    </g>
    <g id="xtick_2">
     <g id="line2d_2">
      <g>
       <use style="fill:#262626;stroke:#262626;stroke-width:0.8;" x="80.857273" xlink:href="#m4cc3942fa6" y="175.96"/>
      </g>
     </g>
     <g id="text_2">
      <!-- 4 -->
      <defs>
       <path d="M 32.328125 0 
L 32.328125 17.140625 
L 1.265625 17.140625 
L 1.265625 25.203125 
L 33.9375 71.578125 
L 41.109375 71.578125 
L 41.109375 25.203125 
L 50.78125 25.203125 
L 50.78125 17.140625 
L 41.109375 17.140625 
L 41.109375 0 
z
M 32.328125 25.203125 
L 32.328125 57.46875 
L 9.90625 25.203125 
z
" id="ArialMT-34"/>
      </defs>
      <g style="fill:#262626;" transform="translate(78.076804 190.117812)scale(0.1 -0.1)">
       <use xlink:href="#ArialMT-34"/>
      </g>
     </g>
    </g>
    <g id="xtick_3">
     <g id="line2d_3">
      <g>
       <use style="fill:#262626;stroke:#262626;stroke-width:0.8;" x="109.719091" xlink:href="#m4cc3942fa6" y="175.96"/>
      </g>
     </g>
     <g id="text_3">
      <!-- 6 -->
      <defs>
       <path d="M 49.75 54.046875 
L 41.015625 53.375 
Q 39.84375 58.546875 37.703125 60.890625 
Q 34.125 64.65625 28.90625 64.65625 
Q 24.703125 64.65625 21.53125 62.3125 
Q 17.390625 59.28125 14.984375 53.46875 
Q 12.59375 47.65625 12.5 36.921875 
Q 15.671875 41.75 20.265625 44.09375 
Q 24.859375 46.4375 29.890625 46.4375 
Q 38.671875 46.4375 44.84375 39.96875 
Q 51.03125 33.5 51.03125 23.25 
Q 51.03125 16.5 48.125 10.71875 
Q 45.21875 4.9375 40.140625 1.859375 
Q 35.0625 -1.21875 28.609375 -1.21875 
Q 17.625 -1.21875 10.6875 6.859375 
Q 3.765625 14.9375 3.765625 33.5 
Q 3.765625 54.25 11.421875 63.671875 
Q 18.109375 71.875 29.4375 71.875 
Q 37.890625 71.875 43.28125 67.140625 
Q 48.6875 62.40625 49.75 54.046875 
z
M 13.875 23.1875 
Q 13.875 18.65625 15.796875 14.5 
Q 17.71875 10.359375 21.1875 8.171875 
Q 24.65625 6 28.46875 6 
Q 34.03125 6 38.03125 10.484375 
Q 42.046875 14.984375 42.046875 22.703125 
Q 42.046875 30.125 38.078125 34.390625 
Q 34.125 38.671875 28.125 38.671875 
Q 22.171875 38.671875 18.015625 34.390625 
Q 13.875 30.125 13.875 23.1875 
z
" id="ArialMT-36"/>
      </defs>
      <g style="fill:#262626;" transform="translate(106.938622 190.117812)scale(0.1 -0.1)">
       <use xlink:href="#ArialMT-36"/>
      </g>
     </g>
    </g>
    <g id="xtick_4">
     <g id="line2d_4">
      <g>
       <use style="fill:#262626;stroke:#262626;stroke-width:0.8;" x="138.580909" xlink:href="#m4cc3942fa6" y="175.96"/>
      </g>
     </g>
     <g id="text_4">
      <!-- 8 -->
      <defs>
       <path d="M 17.671875 38.8125 
Q 12.203125 40.828125 9.5625 44.53125 
Q 6.9375 48.25 6.9375 53.421875 
Q 6.9375 61.234375 12.546875 66.546875 
Q 18.171875 71.875 27.484375 71.875 
Q 36.859375 71.875 42.578125 66.421875 
Q 48.296875 60.984375 48.296875 53.171875 
Q 48.296875 48.1875 45.671875 44.5 
Q 43.0625 40.828125 37.75 38.8125 
Q 44.34375 36.671875 47.78125 31.875 
Q 51.21875 27.09375 51.21875 20.453125 
Q 51.21875 11.28125 44.71875 5.03125 
Q 38.234375 -1.21875 27.640625 -1.21875 
Q 17.046875 -1.21875 10.546875 5.046875 
Q 4.046875 11.328125 4.046875 20.703125 
Q 4.046875 27.6875 7.59375 32.390625 
Q 11.140625 37.109375 17.671875 38.8125 
z
M 15.921875 53.71875 
Q 15.921875 48.640625 19.1875 45.40625 
Q 22.46875 42.1875 27.6875 42.1875 
Q 32.765625 42.1875 36.015625 45.375 
Q 39.265625 48.578125 39.265625 53.21875 
Q 39.265625 58.0625 35.90625 61.359375 
Q 32.5625 64.65625 27.59375 64.65625 
Q 22.5625 64.65625 19.234375 61.421875 
Q 15.921875 58.203125 15.921875 53.71875 
z
M 13.09375 20.65625 
Q 13.09375 16.890625 14.875 13.375 
Q 16.65625 9.859375 20.171875 7.921875 
Q 23.6875 6 27.734375 6 
Q 34.03125 6 38.125 10.046875 
Q 42.234375 14.109375 42.234375 20.359375 
Q 42.234375 26.703125 38.015625 30.859375 
Q 33.796875 35.015625 27.4375 35.015625 
Q 21.234375 35.015625 17.15625 30.90625 
Q 13.09375 26.8125 13.09375 20.65625 
z
" id="ArialMT-38"/>
      </defs>
      <g style="fill:#262626;" transform="translate(135.80044 190.117812)scale(0.1 -0.1)">
       <use xlink:href="#ArialMT-38"/>
      </g>
     </g>
    </g>
    <g id="xtick_5">
     <g id="line2d_5">
      <g>
       <use style="fill:#262626;stroke:#262626;stroke-width:0.8;" x="167.442727" xlink:href="#m4cc3942fa6" y="175.96"/>
      </g>
     </g>
     <g id="text_5">
      <!-- 10 -->
      <defs>
       <path d="M 37.25 0 
L 28.46875 0 
L 28.46875 56 
Q 25.296875 52.984375 20.140625 49.953125 
Q 14.984375 46.921875 10.890625 45.40625 
L 10.890625 53.90625 
Q 18.265625 57.375 23.78125 62.296875 
Q 29.296875 67.234375 31.59375 71.875 
L 37.25 71.875 
z
" id="ArialMT-31"/>
       <path d="M 4.15625 35.296875 
Q 4.15625 48 6.765625 55.734375 
Q 9.375 63.484375 14.515625 67.671875 
Q 19.671875 71.875 27.484375 71.875 
Q 33.25 71.875 37.59375 69.546875 
Q 41.9375 67.234375 44.765625 62.859375 
Q 47.609375 58.5 49.21875 52.21875 
Q 50.828125 45.953125 50.828125 35.296875 
Q 50.828125 22.703125 48.234375 14.96875 
Q 45.65625 7.234375 40.5 3 
Q 35.359375 -1.21875 27.484375 -1.21875 
Q 17.140625 -1.21875 11.234375 6.203125 
Q 4.15625 15.140625 4.15625 35.296875 
z
M 13.1875 35.296875 
Q 13.1875 17.671875 17.3125 11.828125 
Q 21.4375 6 27.484375 6 
Q 33.546875 6 37.671875 11.859375 
Q 41.796875 17.71875 41.796875 35.296875 
Q 41.796875 52.984375 37.671875 58.78125 
Q 33.546875 64.59375 27.390625 64.59375 
Q 21.34375 64.59375 17.71875 59.46875 
Q 13.1875 52.9375 13.1875 35.296875 
z
" id="ArialMT-30"/>
      </defs>
      <g style="fill:#262626;" transform="translate(161.88179 190.117812)scale(0.1 -0.1)">
       <use xlink:href="#ArialMT-31"/>
       <use x="55.615234" xlink:href="#ArialMT-30"/>
      </g>
     </g>
    </g>
    <g id="xtick_6">
     <g id="line2d_6">
      <g>
       <use style="fill:#262626;stroke:#262626;stroke-width:0.8;" x="196.304545" xlink:href="#m4cc3942fa6" y="175.96"/>
      </g>
     </g>
     <g id="text_6">
      <!-- 12 -->
      <g style="fill:#262626;" transform="translate(190.743608 190.117812)scale(0.1 -0.1)">
       <use xlink:href="#ArialMT-31"/>
       <use x="55.615234" xlink:href="#ArialMT-32"/>
      </g>
     </g>
    </g>
    <g id="text_7">
     <!-- pH -->
     <defs>
      <path d="M 6.59375 -19.875 
L 6.59375 51.859375 
L 14.59375 51.859375 
L 14.59375 45.125 
Q 17.4375 49.078125 21 51.046875 
Q 24.5625 53.03125 29.640625 53.03125 
Q 36.28125 53.03125 41.359375 49.609375 
Q 46.4375 46.1875 49.015625 39.953125 
Q 51.609375 33.734375 51.609375 26.3125 
Q 51.609375 18.359375 48.75 11.984375 
Q 45.90625 5.609375 40.453125 2.21875 
Q 35.015625 -1.171875 29 -1.171875 
Q 24.609375 -1.171875 21.109375 0.6875 
Q 17.625 2.546875 15.375 5.375 
L 15.375 -19.875 
z
M 14.546875 25.640625 
Q 14.546875 15.625 18.59375 10.84375 
Q 22.65625 6.0625 28.421875 6.0625 
Q 34.28125 6.0625 38.453125 11.015625 
Q 42.625 15.96875 42.625 26.375 
Q 42.625 36.28125 38.546875 41.203125 
Q 34.46875 46.140625 28.8125 46.140625 
Q 23.1875 46.140625 18.859375 40.890625 
Q 14.546875 35.640625 14.546875 25.640625 
z
" id="ArialMT-70"/>
      <path d="M 8.015625 0 
L 8.015625 71.578125 
L 17.484375 71.578125 
L 17.484375 42.1875 
L 54.6875 42.1875 
L 54.6875 71.578125 
L 64.15625 71.578125 
L 64.15625 0 
L 54.6875 0 
L 54.6875 33.734375 
L 17.484375 33.734375 
L 17.484375 0 
z
" id="ArialMT-48"/>
     </defs>
     <g style="fill:#262626;" transform="translate(117.758594 203.263125)scale(0.1 -0.1)">
      <use xlink:href="#ArialMT-70"/>
      <use x="55.615234" xlink:href="#ArialMT-48"/>
     </g>
    </g>
   </g>
   <g id="matplotlib.axis_2">
    <g id="ytick_1">
     <g id="line2d_7">
      <defs>
       <path d="M 0 0 
L -3.5 0 
" id="m158dcb1914" style="stroke:#262626;stroke-width:0.8;"/>
      </defs>
      <g>
       <use style="fill:#262626;stroke:#262626;stroke-width:0.8;" x="44.78" xlink:href="#m158dcb1914" y="175.949056"/>
      </g>
     </g>
     <g id="text_8">
      <!-- −2 -->
      <defs>
       <path d="M 52.828125 31.203125 
L 5.5625 31.203125 
L 5.5625 39.40625 
L 52.828125 39.40625 
z
" id="ArialMT-2212"/>
      </defs>
      <g style="fill:#262626;" transform="translate(26.378438 179.527962)scale(0.1 -0.1)">
       <use xlink:href="#ArialMT-2212"/>
       <use x="58.398438" xlink:href="#ArialMT-32"/>
      </g>
     </g>
    </g>
    <g id="ytick_2">
     <g id="line2d_8">
      <g>
       <use style="fill:#262626;stroke:#262626;stroke-width:0.8;" x="44.78" xlink:href="#m158dcb1914" y="144.528873"/>
      </g>
     </g>
     <g id="text_9">
      <!-- −1 -->
      <g style="fill:#262626;" transform="translate(26.378438 148.10778)scale(0.1 -0.1)">
       <use xlink:href="#ArialMT-2212"/>
       <use x="58.398438" xlink:href="#ArialMT-31"/>
      </g>
     </g>
    </g>
    <g id="ytick_3">
     <g id="line2d_9">
      <g>
       <use style="fill:#262626;stroke:#262626;stroke-width:0.8;" x="44.78" xlink:href="#m158dcb1914" y="113.108691"/>
      </g>
     </g>
     <g id="text_10">
      <!-- 0 -->
      <g style="fill:#262626;" transform="translate(32.219063 116.687597)scale(0.1 -0.1)">
       <use xlink:href="#ArialMT-30"/>
      </g>
     </g>
    </g>
    <g id="ytick_4">
     <g id="line2d_10">
      <g>
       <use style="fill:#262626;stroke:#262626;stroke-width:0.8;" x="44.78" xlink:href="#m158dcb1914" y="81.688509"/>
      </g>
     </g>
     <g id="text_11">
      <!-- 1 -->
      <g style="fill:#262626;" transform="translate(32.219063 85.267415)scale(0.1 -0.1)">
       <use xlink:href="#ArialMT-31"/>
      </g>
     </g>
    </g>
    <g id="ytick_5">
     <g id="line2d_11">
      <g>
       <use style="fill:#262626;stroke:#262626;stroke-width:0.8;" x="44.78" xlink:href="#m158dcb1914" y="50.268326"/>
      </g>
     </g>
     <g id="text_12">
      <!-- 2 -->
      <g style="fill:#262626;" transform="translate(32.219063 53.847233)scale(0.1 -0.1)">
       <use xlink:href="#ArialMT-32"/>
      </g>
     </g>
    </g>
    <g id="text_13">
     <!-- $\langle q_\mathsf{total} \rangle$ -->
     <defs>
      <path d="M 8.9375 31.34375 
L 22.703125 75.875 
L 31 75.875 
L 17.234375 31.34375 
L 31 -13.1875 
L 22.703125 -13.1875 
z
" id="DejaVuSans-27e8"/>
      <path d="M 41.703125 8.203125 
Q 38.09375 3.46875 33.171875 1.015625 
Q 28.265625 -1.421875 22.3125 -1.421875 
Q 14.015625 -1.421875 9.296875 4.171875 
Q 4.59375 9.765625 4.59375 19.578125 
Q 4.59375 27.484375 7.5 34.859375 
Q 10.40625 42.234375 15.828125 48.09375 
Q 19.34375 51.90625 23.90625 53.953125 
Q 28.46875 56 33.5 56 
Q 39.546875 56 43.453125 53.609375 
Q 47.359375 51.21875 49.125 46.390625 
L 50.6875 54.59375 
L 59.71875 54.59375 
L 45.125 -20.609375 
L 36.078125 -20.609375 
z
M 13.921875 20.90625 
Q 13.921875 13.671875 16.9375 9.890625 
Q 19.96875 6.109375 25.6875 6.109375 
Q 34.1875 6.109375 40.1875 14.234375 
Q 46.1875 22.359375 46.1875 33.984375 
Q 46.1875 41.015625 43.078125 44.75 
Q 39.984375 48.484375 34.1875 48.484375 
Q 29.9375 48.484375 26.3125 46.5 
Q 22.703125 44.53125 20.015625 40.71875 
Q 17.1875 36.71875 15.546875 31.34375 
Q 13.921875 25.984375 13.921875 20.90625 
z
" id="DejaVuSans-Oblique-71"/>
      <path d="M 18.3125 70.21875 
L 18.3125 54.6875 
L 36.8125 54.6875 
L 36.8125 47.703125 
L 18.3125 47.703125 
L 18.3125 18.015625 
Q 18.3125 11.328125 20.140625 9.421875 
Q 21.96875 7.515625 27.59375 7.515625 
L 36.8125 7.515625 
L 36.8125 0 
L 27.59375 0 
Q 17.1875 0 13.234375 3.875 
Q 9.28125 7.765625 9.28125 18.015625 
L 9.28125 47.703125 
L 2.6875 47.703125 
L 2.6875 54.6875 
L 9.28125 54.6875 
L 9.28125 70.21875 
z
" id="DejaVuSans-74"/>
      <path d="M 30.609375 48.390625 
Q 23.390625 48.390625 19.1875 42.75 
Q 14.984375 37.109375 14.984375 27.296875 
Q 14.984375 17.484375 19.15625 11.84375 
Q 23.34375 6.203125 30.609375 6.203125 
Q 37.796875 6.203125 41.984375 11.859375 
Q 46.1875 17.53125 46.1875 27.296875 
Q 46.1875 37.015625 41.984375 42.703125 
Q 37.796875 48.390625 30.609375 48.390625 
z
M 30.609375 56 
Q 42.328125 56 49.015625 48.375 
Q 55.71875 40.765625 55.71875 27.296875 
Q 55.71875 13.875 49.015625 6.21875 
Q 42.328125 -1.421875 30.609375 -1.421875 
Q 18.84375 -1.421875 12.171875 6.21875 
Q 5.515625 13.875 5.515625 27.296875 
Q 5.515625 40.765625 12.171875 48.375 
Q 18.84375 56 30.609375 56 
z
" id="DejaVuSans-6f"/>
      <path d="M 34.28125 27.484375 
Q 23.390625 27.484375 19.1875 25 
Q 14.984375 22.515625 14.984375 16.5 
Q 14.984375 11.71875 18.140625 8.90625 
Q 21.296875 6.109375 26.703125 6.109375 
Q 34.1875 6.109375 38.703125 11.40625 
Q 43.21875 16.703125 43.21875 25.484375 
L 43.21875 27.484375 
z
M 52.203125 31.203125 
L 52.203125 0 
L 43.21875 0 
L 43.21875 8.296875 
Q 40.140625 3.328125 35.546875 0.953125 
Q 30.953125 -1.421875 24.3125 -1.421875 
Q 15.921875 -1.421875 10.953125 3.296875 
Q 6 8.015625 6 15.921875 
Q 6 25.140625 12.171875 29.828125 
Q 18.359375 34.515625 30.609375 34.515625 
L 43.21875 34.515625 
L 43.21875 35.40625 
Q 43.21875 41.609375 39.140625 45 
Q 35.0625 48.390625 27.6875 48.390625 
Q 23 48.390625 18.546875 47.265625 
Q 14.109375 46.140625 10.015625 43.890625 
L 10.015625 52.203125 
Q 14.9375 54.109375 19.578125 55.046875 
Q 24.21875 56 28.609375 56 
Q 40.484375 56 46.34375 49.84375 
Q 52.203125 43.703125 52.203125 31.203125 
z
" id="DejaVuSans-61"/>
      <path d="M 9.421875 75.984375 
L 18.40625 75.984375 
L 18.40625 0 
L 9.421875 0 
z
" id="DejaVuSans-6c"/>
      <path d="M 30.078125 31.34375 
L 16.3125 -13.1875 
L 8.015625 -13.1875 
L 21.78125 31.34375 
L 8.015625 75.875 
L 16.3125 75.875 
z
" id="DejaVuSans-27e9"/>
     </defs>
     <g style="fill:#262626;" transform="translate(20.278438 115.95)rotate(-90)scale(0.1 -0.1)">
      <use transform="translate(0 0.125)" xlink:href="#DejaVuSans-27e8"/>
      <use transform="translate(39.013672 0.125)" xlink:href="#DejaVuSans-Oblique-71"/>
      <use transform="translate(102.490234 -16.28125)scale(0.7)" xlink:href="#DejaVuSans-74"/>
      <use transform="translate(129.936523 -16.28125)scale(0.7)" xlink:href="#DejaVuSans-6f"/>
      <use transform="translate(172.763672 -16.28125)scale(0.7)" xlink:href="#DejaVuSans-74"/>
      <use transform="translate(200.209961 -16.28125)scale(0.7)" xlink:href="#DejaVuSans-61"/>
      <use transform="translate(243.105469 -16.28125)scale(0.7)" xlink:href="#DejaVuSans-6c"/>
      <use transform="translate(265.288086 0.125)" xlink:href="#DejaVuSans-27e9"/>
     </g>
    </g>
   </g>
   <g id="PolyCollection_1">
    <defs>
     <path d="M 51.995455 -183.718182 
L 51.995455 -124.582441 
L 53.438545 -122.339949 
L 54.881636 -120.106174 
L 56.324727 -117.916081 
L 57.767818 -115.803805 
L 59.210909 -113.797583 
L 60.654 -111.915769 
L 62.097091 -110.164715 
L 63.540182 -108.538681 
L 64.983273 -107.021373 
L 66.426364 -105.588517 
L 67.869455 -104.210944 
L 69.312545 -102.857763 
L 70.755636 -101.499396 
L 72.198727 -100.110456 
L 73.641818 -98.672519 
L 75.084909 -97.176704 
L 76.528 -95.625751 
L 77.971091 -94.035039 
L 79.414182 -92.432022 
L 80.857273 -90.853777 
L 82.300364 -89.342858 
L 83.743455 -87.942205 
L 85.186545 -86.690182 
L 86.629636 -85.616763 
L 88.072727 -84.741453 
L 89.515818 -84.073034 
L 90.958909 -83.61076 
L 92.402 -83.346408 
L 93.845091 -83.266549 
L 95.288182 -83.354605 
L 96.731273 -83.592481 
L 98.174364 -83.961712 
L 99.617455 -84.444224 
L 101.060545 -85.022818 
L 102.503636 -85.6815 
L 103.946727 -86.40571 
L 105.389818 -87.182421 
L 106.832909 -88.000047 
L 108.276 -88.848153 
L 109.719091 -89.716963 
L 111.162182 -90.596718 
L 112.605273 -91.476906 
L 114.048364 -92.345306 
L 115.491455 -93.186785 
L 116.934545 -93.981788 
L 118.377636 -94.7047 
L 119.820727 -95.322733 
L 121.263818 -95.796863 
L 122.706909 -96.087049 
L 124.15 -96.162648 
L 125.593091 -96.014028 
L 127.036182 -95.657065 
L 128.479273 -95.12658 
L 129.922364 -94.464324 
L 131.365455 -93.709343 
L 132.808545 -92.893499 
L 134.251636 -92.040762 
L 135.694727 -91.168217 
L 137.137818 -90.287512 
L 138.580909 -89.406185 
L 140.024 -88.528719 
L 141.467091 -87.657322 
L 142.910182 -86.792465 
L 144.353273 -85.933225 
L 145.796364 -85.077452 
L 147.239455 -84.2218 
L 148.682545 -83.361661 
L 150.125636 -82.491047 
L 151.568727 -81.602474 
L 153.011818 -80.686878 
L 154.454909 -79.733608 
L 155.898 -78.730504 
L 157.341091 -77.664109 
L 158.784182 -76.520077 
L 160.227273 -75.283876 
L 161.670364 -73.941899 
L 163.113455 -72.483064 
L 164.556545 -70.900868 
L 165.999636 -69.195706 
L 167.442727 -67.37704 
L 168.885818 -65.464839 
L 170.328909 -63.489712 
L 171.772 -61.491297 
L 173.215091 -59.514933 
L 174.658182 -57.607126 
L 176.101273 -55.810717 
L 177.544364 -54.160805 
L 178.987455 -52.682173 
L 180.430545 -51.388519 
L 181.873636 -50.283291 
L 183.316727 -49.361602 
L 184.759818 -48.612606 
L 186.202909 -48.021827 
L 187.646 -47.573094 
L 189.089091 -47.249964 
L 190.532182 -47.036622 
L 191.975273 -46.918371 
L 193.418364 -46.881818 
L 194.861455 -46.914902 
L 196.304545 -47.006821 
L 196.304545 -97.244895 
L 196.304545 -97.244895 
L 194.861455 -97.667022 
L 193.418364 -98.110805 
L 191.975273 -98.58352 
L 190.532182 -99.094393 
L 189.089091 -99.654642 
L 187.646 -100.277334 
L 186.202909 -100.976968 
L 184.759818 -101.768737 
L 183.316727 -102.667387 
L 181.873636 -103.685638 
L 180.430545 -104.832204 
L 178.987455 -106.109526 
L 177.544364 -107.511542 
L 176.101273 -109.021941 
L 174.658182 -110.613496 
L 173.215091 -112.248954 
L 171.772 -113.883679 
L 170.328909 -115.469776 
L 168.885818 -116.96092 
L 167.442727 -118.316897 
L 165.999636 -119.506939 
L 164.556545 -120.511347 
L 163.113455 -121.321402 
L 161.670364 -121.937959 
L 160.227273 -122.369279 
L 158.784182 -122.628652 
L 157.341091 -122.73218 
L 155.898 -122.696958 
L 154.454909 -122.539738 
L 153.011818 -122.276061 
L 151.568727 -121.919815 
L 150.125636 -121.483105 
L 148.682545 -120.976343 
L 147.239455 -120.408443 
L 145.796364 -119.787062 
L 144.353273 -119.118835 
L 142.910182 -118.409615 
L 141.467091 -117.664737 
L 140.024 -116.889348 
L 138.580909 -116.088829 
L 137.137818 -115.269355 
L 135.694727 -114.438622 
L 134.251636 -113.606777 
L 132.808545 -112.787601 
L 131.365455 -111.999948 
L 129.922364 -111.269275 
L 128.479273 -110.628728 
L 127.036182 -110.118505 
L 125.593091 -109.78143 
L 124.15 -109.65338 
L 122.706909 -109.75132 
L 121.263818 -110.066801 
L 119.820727 -110.570518 
L 118.377636 -111.223991 
L 116.934545 -111.99006 
L 115.491455 -112.838199 
L 114.048364 -113.745564 
L 112.605273 -114.69602 
L 111.162182 -115.678659 
L 109.719091 -116.686491 
L 108.276 -117.71547 
L 106.832909 -118.763811 
L 105.389818 -119.831529 
L 103.946727 -120.920144 
L 102.503636 -122.032565 
L 101.060545 -123.173155 
L 99.617455 -124.347964 
L 98.174364 -125.565024 
L 96.731273 -126.834544 
L 95.288182 -128.168837 
L 93.845091 -129.581858 
L 92.402 -131.088257 
L 90.958909 -132.701937 
L 89.515818 -134.434135 
L 88.072727 -136.291166 
L 86.629636 -138.272128 
L 85.186545 -140.36699 
L 83.743455 -142.555623 
L 82.300364 -144.808275 
L 80.857273 -147.087791 
L 79.414182 -149.353427 
L 77.971091 -151.565627 
L 76.528 -153.690801 
L 75.084909 -155.705208 
L 73.641818 -157.597291 
L 72.198727 -159.368251 
L 70.755636 -161.031053 
L 69.312545 -162.608268 
L 67.869455 -164.12923 
L 66.426364 -165.626882 
L 64.983273 -167.13463 
L 63.540182 -168.683369 
L 62.097091 -170.298748 
L 60.654 -171.998702 
L 59.210909 -173.791438 
L 57.767818 -175.674248 
L 56.324727 -177.633584 
L 54.881636 -179.646692 
L 53.438545 -181.684888 
L 51.995455 -183.718182 
z
" id="m73a2406d3a" style="stroke:#ffffff;stroke-opacity:0.05;"/>
    </defs>
    <g clip-path="url(#pe3413309b0)">
     <use style="fill:#12711c;fill-opacity:0.05;stroke:#ffffff;stroke-opacity:0.05;" x="0" xlink:href="#m73a2406d3a" y="216"/>
    </g>
   </g>
   <g id="line2d_12">
    <path clip-path="url(#pe3413309b0)" d="M 51.995455 61.849688 
L 53.438545 63.987581 
L 54.881636 66.123567 
L 56.324727 68.225168 
L 57.767818 70.260973 
L 59.210909 72.205489 
L 60.654 74.042764 
L 62.097091 75.768269 
L 63.540182 77.388975 
L 64.983273 78.921999 
L 66.426364 80.3923 
L 67.869455 81.829913 
L 69.312545 83.266984 
L 70.755636 84.734776 
L 72.198727 86.260646 
L 73.641818 87.865095 
L 75.084909 89.559044 
L 76.528 91.341724 
L 77.971091 93.199667 
L 79.414182 95.107275 
L 80.857273 97.029216 
L 82.300364 98.924433 
L 83.743455 100.751086 
L 85.186545 102.471414 
L 86.629636 104.055555 
L 88.072727 105.48369 
L 89.515818 106.746416 
L 90.958909 107.843651 
L 92.402 108.782667 
L 93.845091 109.575796 
L 95.288182 110.238279 
L 96.731273 110.786488 
L 98.174364 111.236632 
L 99.617455 111.603906 
L 101.060545 111.902014 
L 102.503636 112.142967 
L 103.946727 112.337073 
L 105.389818 112.493025 
L 106.832909 112.618071 
L 108.276 112.718188 
L 109.719091 112.798273 
L 111.162182 112.862312 
L 112.605273 112.913537 
L 114.048364 112.954565 
L 115.491455 112.987508 
L 116.934545 113.014076 
L 118.377636 113.035654 
L 119.820727 113.053374 
L 121.263818 113.068168 
L 122.706909 113.080816 
L 124.15 113.091986 
L 125.593091 113.102271 
L 127.036182 113.112215 
L 128.479273 113.122346 
L 129.922364 113.133201 
L 131.365455 113.145354 
L 132.808545 113.15945 
L 134.251636 113.176231 
L 135.694727 113.196581 
L 137.137818 113.221567 
L 138.580909 113.252493 
L 140.024 113.290966 
L 141.467091 113.338971 
L 142.910182 113.39896 
L 144.353273 113.47397 
L 145.796364 113.567743 
L 147.239455 113.684878 
L 148.682545 113.830998 
L 150.125636 114.012924 
L 151.568727 114.238856 
L 153.011818 114.51853 
L 154.454909 114.863327 
L 155.898 115.286269 
L 157.341091 115.801856 
L 158.784182 116.425636 
L 160.227273 117.173422 
L 161.670364 118.060071 
L 163.113455 119.097767 
L 164.556545 120.293893 
L 165.999636 121.648677 
L 167.442727 123.153032 
L 168.885818 124.78712 
L 170.328909 126.520256 
L 171.772 128.312512 
L 173.215091 130.118056 
L 174.658182 131.889689 
L 176.101273 133.583671 
L 177.544364 135.163827 
L 178.987455 136.60415 
L 180.430545 137.889638 
L 181.873636 139.015535 
L 183.316727 139.985506 
L 184.759818 140.809328 
L 186.202909 141.500603 
L 187.646 142.074786 
L 189.089091 142.547697 
L 190.532182 142.934492 
L 191.975273 143.249054 
L 193.418364 143.503689 
L 194.861455 143.709038 
L 196.304545 143.874142 
" style="fill:none;opacity:0.9;stroke:#12711c;stroke-linecap:round;stroke-width:1.5;"/>
   </g>
   <g id="line2d_13">
    <path clip-path="url(#pe3413309b0)" d="M 51.995455 84.370512 
L 53.438545 84.991939 
L 54.881636 85.737068 
L 56.324727 86.620787 
L 57.767818 87.655353 
L 59.210909 88.848267 
L 60.654 90.199923 
L 62.097091 91.701435 
L 63.540182 93.333188 
L 64.983273 95.064702 
L 66.426364 96.856208 
L 67.869455 98.66195 
L 69.312545 100.434706 
L 70.755636 102.130625 
L 72.198727 103.713346 
L 73.641818 105.156649 
L 75.084909 106.445312 
L 76.528 107.574388 
L 77.971091 108.547398 
L 79.414182 109.374019 
L 80.857273 110.067796 
L 82.300364 110.644166 
L 83.743455 111.11895 
L 85.186545 111.507327 
L 86.629636 111.823208 
L 88.072727 112.078931 
L 89.515818 112.285173 
L 90.958909 112.451003 
L 92.402 112.584014 
L 93.845091 112.69049 
L 95.288182 112.775593 
L 96.731273 112.843526 
L 98.174364 112.8977 
L 99.617455 112.940867 
L 101.060545 112.975243 
L 102.503636 113.002603 
L 103.946727 113.024372 
L 105.389818 113.041688 
L 106.832909 113.055458 
L 108.276 113.066409 
L 109.719091 113.075117 
L 111.162182 113.082043 
L 112.605273 113.087553 
L 114.048364 113.09194 
L 115.491455 113.095437 
L 116.934545 113.098229 
L 118.377636 113.100464 
L 119.820727 113.102261 
L 121.263818 113.103717 
L 122.706909 113.104907 
L 124.15 113.105896 
L 125.593091 113.106737 
L 127.036182 113.107473 
L 128.479273 113.108144 
L 129.922364 113.108787 
L 131.365455 113.109434 
L 132.808545 113.110121 
L 134.251636 113.110885 
L 135.694727 113.111764 
L 137.137818 113.112808 
L 138.580909 113.114071 
L 140.024 113.11562 
L 141.467091 113.117538 
L 142.910182 113.119926 
L 144.353273 113.122912 
L 145.796364 113.126655 
L 147.239455 113.131352 
L 148.682545 113.137253 
L 150.125636 113.144671 
L 151.568727 113.153999 
L 153.011818 113.165729 
L 154.454909 113.180479 
L 155.898 113.199026 
L 157.341091 113.222341 
L 158.784182 113.251642 
L 160.227273 113.28845 
L 161.670364 113.334665 
L 163.113455 113.39265 
L 164.556545 113.465343 
L 165.999636 113.556375 
L 167.442727 113.670223 
L 168.885818 113.812363 
L 170.328909 113.989455 
L 171.772 114.209518 
L 173.215091 114.482092 
L 174.658182 114.818352 
L 176.101273 115.231124 
L 177.544364 115.734746 
L 178.987455 116.34467 
L 180.430545 117.076732 
L 181.873636 117.945982 
L 183.316727 118.965029 
L 184.759818 120.141955 
L 186.202909 121.477968 
L 187.646 122.965194 
L 189.089091 124.585122 
L 190.532182 126.308317 
L 191.975273 128.095817 
L 193.418364 129.902274 
L 194.861455 131.680394 
L 196.304545 133.385783 
" style="fill:none;opacity:0.7;stroke:#000000;stroke-linecap:round;stroke-width:1.5;"/>
   </g>
   <g id="line2d_14">
    <path clip-path="url(#pe3413309b0)" d="M 51.995455 32.281818 
L 53.438545 34.315112 
L 54.881636 36.353308 
L 56.324727 38.366416 
L 57.767818 40.325752 
L 59.210909 42.208562 
L 60.654 44.001298 
L 62.097091 45.701252 
L 63.540182 47.316631 
L 64.983273 48.86537 
L 66.426364 50.373118 
L 67.869455 51.87077 
L 69.312545 53.391732 
L 70.755636 54.968947 
L 72.198727 56.631749 
L 73.641818 58.402709 
L 75.084909 60.294792 
L 76.528 62.309199 
L 77.971091 64.434373 
L 79.414182 66.646573 
L 80.857273 68.912209 
L 82.300364 71.191725 
L 83.743455 73.444377 
L 85.186545 75.63301 
L 86.629636 77.727872 
L 88.072727 79.708834 
L 89.515818 81.565865 
L 90.958909 83.298063 
L 92.402 84.911743 
L 93.845091 86.418142 
L 95.288182 87.831163 
L 96.731273 89.165456 
L 98.174364 90.434976 
L 99.617455 91.652036 
L 101.060545 92.826845 
L 102.503636 93.967435 
L 103.946727 95.079856 
L 105.389818 96.168471 
L 106.832909 97.236189 
L 108.276 98.28453 
L 109.719091 99.313509 
L 111.162182 100.321341 
L 112.605273 101.30398 
L 114.048364 102.254436 
L 115.491455 103.161801 
L 116.934545 104.00994 
L 118.377636 104.776009 
L 119.820727 105.429482 
L 121.263818 105.933199 
L 122.706909 106.24868 
L 124.15 106.34662 
L 125.593091 106.21857 
L 127.036182 105.881495 
L 128.479273 105.371272 
L 129.922364 104.730725 
L 131.365455 104.000052 
L 132.808545 103.212399 
L 134.251636 102.393223 
L 135.694727 101.561378 
L 137.137818 100.730645 
L 138.580909 99.911171 
L 140.024 99.110652 
L 141.467091 98.335263 
L 142.910182 97.590385 
L 144.353273 96.881165 
L 145.796364 96.212938 
L 147.239455 95.591557 
L 148.682545 95.023657 
L 150.125636 94.516895 
L 151.568727 94.080185 
L 153.011818 93.723939 
L 154.454909 93.460262 
L 155.898 93.303042 
L 157.341091 93.26782 
L 158.784182 93.371348 
L 160.227273 93.630721 
L 161.670364 94.062041 
L 163.113455 94.678598 
L 164.556545 95.488653 
L 165.999636 96.493061 
L 167.442727 97.683103 
L 168.885818 99.03908 
L 170.328909 100.530224 
L 171.772 102.116321 
L 173.215091 103.751046 
L 174.658182 105.386504 
L 176.101273 106.978059 
L 177.544364 108.488458 
L 178.987455 109.890474 
L 180.430545 111.167796 
L 181.873636 112.314362 
L 183.316727 113.332613 
L 184.759818 114.231263 
L 186.202909 115.023032 
L 187.646 115.722666 
L 189.089091 116.345358 
L 190.532182 116.905607 
L 191.975273 117.41648 
L 193.418364 117.889195 
L 194.861455 118.332978 
L 196.304545 118.755105 
" style="fill:none;opacity:0.45;stroke:#12711c;stroke-dasharray:2.775,1.2;stroke-dashoffset:0;stroke-width:0.75;"/>
   </g>
   <g id="line2d_15">
    <path clip-path="url(#pe3413309b0)" d="M 51.995455 91.417559 
L 53.438545 93.660051 
L 54.881636 95.893826 
L 56.324727 98.083919 
L 57.767818 100.196195 
L 59.210909 102.202417 
L 60.654 104.084231 
L 62.097091 105.835285 
L 63.540182 107.461319 
L 64.983273 108.978627 
L 66.426364 110.411483 
L 67.869455 111.789056 
L 69.312545 113.142237 
L 70.755636 114.500604 
L 72.198727 115.889544 
L 73.641818 117.327481 
L 75.084909 118.823296 
L 76.528 120.374249 
L 77.971091 121.964961 
L 79.414182 123.567978 
L 80.857273 125.146223 
L 82.300364 126.657142 
L 83.743455 128.057795 
L 85.186545 129.309818 
L 86.629636 130.383237 
L 88.072727 131.258547 
L 89.515818 131.926966 
L 90.958909 132.38924 
L 92.402 132.653592 
L 93.845091 132.733451 
L 95.288182 132.645395 
L 96.731273 132.407519 
L 98.174364 132.038288 
L 99.617455 131.555776 
L 101.060545 130.977182 
L 102.503636 130.3185 
L 103.946727 129.59429 
L 105.389818 128.817579 
L 106.832909 127.999953 
L 108.276 127.151847 
L 109.719091 126.283037 
L 111.162182 125.403282 
L 112.605273 124.523094 
L 114.048364 123.654694 
L 115.491455 122.813215 
L 116.934545 122.018212 
L 118.377636 121.2953 
L 119.820727 120.677267 
L 121.263818 120.203137 
L 122.706909 119.912951 
L 124.15 119.837352 
L 125.593091 119.985972 
L 127.036182 120.342935 
L 128.479273 120.87342 
L 129.922364 121.535676 
L 131.365455 122.290657 
L 132.808545 123.106501 
L 134.251636 123.959238 
L 135.694727 124.831783 
L 137.137818 125.712488 
L 138.580909 126.593815 
L 140.024 127.471281 
L 141.467091 128.342678 
L 142.910182 129.207535 
L 144.353273 130.066775 
L 145.796364 130.922548 
L 147.239455 131.7782 
L 148.682545 132.638339 
L 150.125636 133.508953 
L 151.568727 134.397526 
L 153.011818 135.313122 
L 154.454909 136.266392 
L 155.898 137.269496 
L 157.341091 138.335891 
L 158.784182 139.479923 
L 160.227273 140.716124 
L 161.670364 142.058101 
L 163.113455 143.516936 
L 164.556545 145.099132 
L 165.999636 146.804294 
L 167.442727 148.62296 
L 168.885818 150.535161 
L 170.328909 152.510288 
L 171.772 154.508703 
L 173.215091 156.485067 
L 174.658182 158.392874 
L 176.101273 160.189283 
L 177.544364 161.839195 
L 178.987455 163.317827 
L 180.430545 164.611481 
L 181.873636 165.716709 
L 183.316727 166.638398 
L 184.759818 167.387394 
L 186.202909 167.978173 
L 187.646 168.426906 
L 189.089091 168.750036 
L 190.532182 168.963378 
L 191.975273 169.081629 
L 193.418364 169.118182 
L 194.861455 169.085098 
L 196.304545 168.993179 
" style="fill:none;opacity:0.45;stroke:#12711c;stroke-dasharray:2.775,1.2;stroke-dashoffset:0;stroke-width:0.75;"/>
   </g>
   <g id="patch_3">
    <path d="M 44.78 175.96 
L 44.78 25.44 
" style="fill:none;stroke:#262626;stroke-linecap:square;stroke-linejoin:miter;stroke-width:0.8;"/>
   </g>
   <g id="patch_4">
    <path d="M 44.78 175.96 
L 203.52 175.96 
" style="fill:none;stroke:#262626;stroke-linecap:square;stroke-linejoin:miter;stroke-width:0.8;"/>
   </g>
   <g id="text_14">
    <!-- Epik-scan SM06 -->
    <defs>
     <path d="M 7.90625 0 
L 7.90625 71.578125 
L 59.671875 71.578125 
L 59.671875 63.140625 
L 17.390625 63.140625 
L 17.390625 41.21875 
L 56.984375 41.21875 
L 56.984375 32.8125 
L 17.390625 32.8125 
L 17.390625 8.453125 
L 61.328125 8.453125 
L 61.328125 0 
z
" id="ArialMT-45"/>
     <path d="M 6.640625 61.46875 
L 6.640625 71.578125 
L 15.4375 71.578125 
L 15.4375 61.46875 
z
M 6.640625 0 
L 6.640625 51.859375 
L 15.4375 51.859375 
L 15.4375 0 
z
" id="ArialMT-69"/>
     <path d="M 6.640625 0 
L 6.640625 71.578125 
L 15.4375 71.578125 
L 15.4375 30.765625 
L 36.234375 51.859375 
L 47.609375 51.859375 
L 27.78125 32.625 
L 49.609375 0 
L 38.765625 0 
L 21.625 26.515625 
L 15.4375 20.5625 
L 15.4375 0 
z
" id="ArialMT-6b"/>
     <path d="M 3.171875 21.484375 
L 3.171875 30.328125 
L 30.171875 30.328125 
L 30.171875 21.484375 
z
" id="ArialMT-2d"/>
     <path d="M 3.078125 15.484375 
L 11.765625 16.84375 
Q 12.5 11.625 15.84375 8.84375 
Q 19.1875 6.0625 25.203125 6.0625 
Q 31.25 6.0625 34.171875 8.515625 
Q 37.109375 10.984375 37.109375 14.3125 
Q 37.109375 17.28125 34.515625 19 
Q 32.71875 20.171875 25.53125 21.96875 
Q 15.875 24.421875 12.140625 26.203125 
Q 8.40625 27.984375 6.46875 31.125 
Q 4.546875 34.28125 4.546875 38.09375 
Q 4.546875 41.546875 6.125 44.5 
Q 7.71875 47.46875 10.453125 49.421875 
Q 12.5 50.921875 16.03125 51.96875 
Q 19.578125 53.03125 23.640625 53.03125 
Q 29.734375 53.03125 34.34375 51.265625 
Q 38.96875 49.515625 41.15625 46.5 
Q 43.359375 43.5 44.1875 38.484375 
L 35.59375 37.3125 
Q 35.015625 41.3125 32.203125 43.546875 
Q 29.390625 45.796875 24.265625 45.796875 
Q 18.21875 45.796875 15.625 43.796875 
Q 13.03125 41.796875 13.03125 39.109375 
Q 13.03125 37.40625 14.109375 36.03125 
Q 15.1875 34.625 17.484375 33.6875 
Q 18.796875 33.203125 25.25 31.453125 
Q 34.578125 28.953125 38.25 27.359375 
Q 41.9375 25.78125 44.03125 22.75 
Q 46.140625 19.734375 46.140625 15.234375 
Q 46.140625 10.84375 43.578125 6.953125 
Q 41.015625 3.078125 36.171875 0.953125 
Q 31.34375 -1.171875 25.25 -1.171875 
Q 15.140625 -1.171875 9.84375 3.03125 
Q 4.546875 7.234375 3.078125 15.484375 
z
" id="ArialMT-73"/>
     <path d="M 40.4375 19 
L 49.078125 17.875 
Q 47.65625 8.9375 41.8125 3.875 
Q 35.984375 -1.171875 27.484375 -1.171875 
Q 16.84375 -1.171875 10.375 5.78125 
Q 3.90625 12.75 3.90625 25.734375 
Q 3.90625 34.125 6.6875 40.421875 
Q 9.46875 46.734375 15.15625 49.875 
Q 20.84375 53.03125 27.546875 53.03125 
Q 35.984375 53.03125 41.359375 48.75 
Q 46.734375 44.484375 48.25 36.625 
L 39.703125 35.296875 
Q 38.484375 40.53125 35.375 43.15625 
Q 32.28125 45.796875 27.875 45.796875 
Q 21.234375 45.796875 17.078125 41.03125 
Q 12.9375 36.28125 12.9375 25.984375 
Q 12.9375 15.53125 16.9375 10.796875 
Q 20.953125 6.0625 27.390625 6.0625 
Q 32.5625 6.0625 36.03125 9.234375 
Q 39.5 12.40625 40.4375 19 
z
" id="ArialMT-63"/>
     <path d="M 40.4375 6.390625 
Q 35.546875 2.25 31.03125 0.53125 
Q 26.515625 -1.171875 21.34375 -1.171875 
Q 12.796875 -1.171875 8.203125 3 
Q 3.609375 7.171875 3.609375 13.671875 
Q 3.609375 17.484375 5.34375 20.625 
Q 7.078125 23.78125 9.890625 25.6875 
Q 12.703125 27.59375 16.21875 28.5625 
Q 18.796875 29.25 24.03125 29.890625 
Q 34.671875 31.15625 39.703125 32.90625 
Q 39.75 34.71875 39.75 35.203125 
Q 39.75 40.578125 37.25 42.78125 
Q 33.890625 45.75 27.25 45.75 
Q 21.046875 45.75 18.09375 43.578125 
Q 15.140625 41.40625 13.71875 35.890625 
L 5.125 37.0625 
Q 6.296875 42.578125 8.984375 45.96875 
Q 11.671875 49.359375 16.75 51.1875 
Q 21.828125 53.03125 28.515625 53.03125 
Q 35.15625 53.03125 39.296875 51.46875 
Q 43.453125 49.90625 45.40625 47.53125 
Q 47.359375 45.171875 48.140625 41.546875 
Q 48.578125 39.3125 48.578125 33.453125 
L 48.578125 21.734375 
Q 48.578125 9.46875 49.140625 6.21875 
Q 49.703125 2.984375 51.375 0 
L 42.1875 0 
Q 40.828125 2.734375 40.4375 6.390625 
z
M 39.703125 26.03125 
Q 34.90625 24.078125 25.34375 22.703125 
Q 19.921875 21.921875 17.671875 20.9375 
Q 15.4375 19.96875 14.203125 18.09375 
Q 12.984375 16.21875 12.984375 13.921875 
Q 12.984375 10.40625 15.640625 8.0625 
Q 18.3125 5.71875 23.4375 5.71875 
Q 28.515625 5.71875 32.46875 7.9375 
Q 36.421875 10.15625 38.28125 14.015625 
Q 39.703125 17 39.703125 22.796875 
z
" id="ArialMT-61"/>
     <path d="M 6.59375 0 
L 6.59375 51.859375 
L 14.5 51.859375 
L 14.5 44.484375 
Q 20.21875 53.03125 31 53.03125 
Q 35.6875 53.03125 39.625 51.34375 
Q 43.5625 49.65625 45.515625 46.921875 
Q 47.46875 44.1875 48.25 40.4375 
Q 48.734375 37.984375 48.734375 31.890625 
L 48.734375 0 
L 39.9375 0 
L 39.9375 31.546875 
Q 39.9375 36.921875 38.90625 39.578125 
Q 37.890625 42.234375 35.28125 43.8125 
Q 32.671875 45.40625 29.15625 45.40625 
Q 23.53125 45.40625 19.453125 41.84375 
Q 15.375 38.28125 15.375 28.328125 
L 15.375 0 
z
" id="ArialMT-6e"/>
     <path id="ArialMT-20"/>
     <path d="M 4.5 23 
L 13.421875 23.78125 
Q 14.0625 18.40625 16.375 14.96875 
Q 18.703125 11.53125 23.578125 9.40625 
Q 28.46875 7.28125 34.578125 7.28125 
Q 39.984375 7.28125 44.140625 8.890625 
Q 48.296875 10.5 50.3125 13.296875 
Q 52.34375 16.109375 52.34375 19.4375 
Q 52.34375 22.796875 50.390625 25.3125 
Q 48.4375 27.828125 43.953125 29.546875 
Q 41.0625 30.671875 31.203125 33.03125 
Q 21.34375 35.40625 17.390625 37.5 
Q 12.25 40.1875 9.734375 44.15625 
Q 7.234375 48.140625 7.234375 53.078125 
Q 7.234375 58.5 10.296875 63.203125 
Q 13.375 67.921875 19.28125 70.359375 
Q 25.203125 72.796875 32.421875 72.796875 
Q 40.375 72.796875 46.453125 70.234375 
Q 52.546875 67.671875 55.8125 62.6875 
Q 59.078125 57.71875 59.328125 51.421875 
L 50.25 50.734375 
Q 49.515625 57.515625 45.28125 60.984375 
Q 41.0625 64.453125 32.8125 64.453125 
Q 24.21875 64.453125 20.28125 61.296875 
Q 16.359375 58.15625 16.359375 53.71875 
Q 16.359375 49.859375 19.140625 47.359375 
Q 21.875 44.875 33.421875 42.265625 
Q 44.96875 39.65625 49.265625 37.703125 
Q 55.515625 34.8125 58.484375 30.390625 
Q 61.46875 25.984375 61.46875 20.21875 
Q 61.46875 14.5 58.203125 9.4375 
Q 54.9375 4.390625 48.796875 1.578125 
Q 42.671875 -1.21875 35.015625 -1.21875 
Q 25.296875 -1.21875 18.71875 1.609375 
Q 12.15625 4.4375 8.421875 10.125 
Q 4.6875 15.828125 4.5 23 
z
" id="ArialMT-53"/>
     <path d="M 7.421875 0 
L 7.421875 71.578125 
L 21.6875 71.578125 
L 38.625 20.90625 
Q 40.96875 13.8125 42.046875 10.296875 
Q 43.265625 14.203125 45.84375 21.78125 
L 62.984375 71.578125 
L 75.734375 71.578125 
L 75.734375 0 
L 66.609375 0 
L 66.609375 59.90625 
L 45.796875 0 
L 37.25 0 
L 16.546875 60.9375 
L 16.546875 0 
z
" id="ArialMT-4d"/>
    </defs>
    <g style="fill:#262626;" transform="translate(80.467188 19.44)scale(0.12 -0.12)">
     <use xlink:href="#ArialMT-45"/>
     <use x="66.699219" xlink:href="#ArialMT-70"/>
     <use x="122.314453" xlink:href="#ArialMT-69"/>
     <use x="144.53125" xlink:href="#ArialMT-6b"/>
     <use x="194.53125" xlink:href="#ArialMT-2d"/>
     <use x="227.832031" xlink:href="#ArialMT-73"/>
     <use x="277.832031" xlink:href="#ArialMT-63"/>
     <use x="327.832031" xlink:href="#ArialMT-61"/>
     <use x="383.447266" xlink:href="#ArialMT-6e"/>
     <use x="439.0625" xlink:href="#ArialMT-20"/>
     <use x="466.845703" xlink:href="#ArialMT-53"/>
     <use x="533.544922" xlink:href="#ArialMT-4d"/>
     <use x="616.845703" xlink:href="#ArialMT-30"/>
     <use x="672.460938" xlink:href="#ArialMT-36"/>
    </g>
   </g>
  </g>
 </g>
 <defs>
  <clipPath id="pe3413309b0">
   <rect height="150.52" width="158.74" x="44.78" y="25.44"/>
  </clipPath>
 </defs>
</svg>
