<?xml version="1.0" encoding="utf-8" standalone="no"?>
<!DOCTYPE svg PUBLIC "-//W3C//DTD SVG 1.1//EN"
  "http://www.w3.org/Graphics/SVG/1.1/DTD/svg11.dtd">
<!-- Created with matplotlib (http://matplotlib.org/) -->
<svg height="216pt" version="1.1" viewBox="0 0 216 216" width="216pt" xmlns="http://www.w3.org/2000/svg" xmlns:xlink="http://www.w3.org/1999/xlink">
 <defs>
  <style type="text/css">
*{stroke-linecap:butt;stroke-linejoin:round;}
  </style>
 </defs>
 <g id="figure_1">
  <g id="patch_1">
   <path d="M 0 216 
L 216 216 
L 216 0 
L 0 0 
z
" style="fill:#ffffff;"/>
  </g>
  <g id="axes_1">
   <g id="patch_2">
    <path d="M 44.78 175.96 
L 203.52 175.96 
L 203.52 25.44 
L 44.78 25.44 
z
" style="fill:#ffffff;"/>
   </g>
   <g id="matplotlib.axis_1">
    <g id="xtick_1">
     <g id="line2d_1">
      <defs>
       <path d="M 0 0 
L 0 3.5 
" id="m2fc91eaf40" style="stroke:#262626;stroke-width:0.8;"/>
      </defs>
      <g>
       <use style="fill:#262626;stroke:#262626;stroke-width:0.8;" x="51.995455" xlink:href="#m2fc91eaf40" y="175.96"/>
      </g>
     </g>
     <g id="text_1">
      <!-- 2 -->
      <defs>
       <path d="M 50.34375 8.453125 
L 50.34375 0 
L 3.03125 0 
Q 2.9375 3.171875 4.046875 6.109375 
Q 5.859375 10.9375 9.828125 15.625 
Q 13.8125 20.3125 21.34375 26.46875 
Q 33.015625 36.03125 37.109375 41.625 
Q 41.21875 47.21875 41.21875 52.203125 
Q 41.21875 57.421875 37.46875 61 
Q 33.734375 64.59375 27.734375 64.59375 
Q 21.390625 64.59375 17.578125 60.78125 
Q 13.765625 56.984375 13.71875 50.25 
L 4.6875 51.171875 
Q 5.609375 61.28125 11.65625 66.578125 
Q 17.71875 71.875 27.9375 71.875 
Q 38.234375 71.875 44.234375 66.15625 
Q 50.25 60.453125 50.25 52 
Q 50.25 47.703125 48.484375 43.546875 
Q 46.734375 39.40625 42.65625 34.8125 
Q 38.578125 30.21875 29.109375 22.21875 
Q 21.1875 15.578125 18.9375 13.203125 
Q 16.703125 10.84375 15.234375 8.453125 
z
" id="ArialMT-32"/>
      </defs>
      <g style="fill:#262626;" transform="translate(49.214986 190.117812)scale(0.1 -0.1)">
       <use xlink:href="#ArialMT-32"/>
      </g>
     </g>
    </g>
    <g id="xtick_2">
     <g id="line2d_2">
      <g>
       <use style="fill:#262626;stroke:#262626;stroke-width:0.8;" x="80.857273" xlink:href="#m2fc91eaf40" y="175.96"/>
      </g>
     </g>
     <g id="text_2">
      <!-- 4 -->
      <defs>
       <path d="M 32.328125 0 
L 32.328125 17.140625 
L 1.265625 17.140625 
L 1.265625 25.203125 
L 33.9375 71.578125 
L 41.109375 71.578125 
L 41.109375 25.203125 
L 50.78125 25.203125 
L 50.78125 17.140625 
L 41.109375 17.140625 
L 41.109375 0 
z
M 32.328125 25.203125 
L 32.328125 57.46875 
L 9.90625 25.203125 
z
" id="ArialMT-34"/>
      </defs>
      <g style="fill:#262626;" transform="translate(78.076804 190.117812)scale(0.1 -0.1)">
       <use xlink:href="#ArialMT-34"/>
      </g>
     </g>
    </g>
    <g id="xtick_3">
     <g id="line2d_3">
      <g>
       <use style="fill:#262626;stroke:#262626;stroke-width:0.8;" x="109.719091" xlink:href="#m2fc91eaf40" y="175.96"/>
      </g>
     </g>
     <g id="text_3">
      <!-- 6 -->
      <defs>
       <path d="M 49.75 54.046875 
L 41.015625 53.375 
Q 39.84375 58.546875 37.703125 60.890625 
Q 34.125 64.65625 28.90625 64.65625 
Q 24.703125 64.65625 21.53125 62.3125 
Q 17.390625 59.28125 14.984375 53.46875 
Q 12.59375 47.65625 12.5 36.921875 
Q 15.671875 41.75 20.265625 44.09375 
Q 24.859375 46.4375 29.890625 46.4375 
Q 38.671875 46.4375 44.84375 39.96875 
Q 51.03125 33.5 51.03125 23.25 
Q 51.03125 16.5 48.125 10.71875 
Q 45.21875 4.9375 40.140625 1.859375 
Q 35.0625 -1.21875 28.609375 -1.21875 
Q 17.625 -1.21875 10.6875 6.859375 
Q 3.765625 14.9375 3.765625 33.5 
Q 3.765625 54.25 11.421875 63.671875 
Q 18.109375 71.875 29.4375 71.875 
Q 37.890625 71.875 43.28125 67.140625 
Q 48.6875 62.40625 49.75 54.046875 
z
M 13.875 23.1875 
Q 13.875 18.65625 15.796875 14.5 
Q 17.71875 10.359375 21.1875 8.171875 
Q 24.65625 6 28.46875 6 
Q 34.03125 6 38.03125 10.484375 
Q 42.046875 14.984375 42.046875 22.703125 
Q 42.046875 30.125 38.078125 34.390625 
Q 34.125 38.671875 28.125 38.671875 
Q 22.171875 38.671875 18.015625 34.390625 
Q 13.875 30.125 13.875 23.1875 
z
" id="ArialMT-36"/>
      </defs>
      <g style="fill:#262626;" transform="translate(106.938622 190.117812)scale(0.1 -0.1)">
       <use xlink:href="#ArialMT-36"/>
      </g>
     </g>
    </g>
    <g id="xtick_4">
     <g id="line2d_4">
      <g>
       <use style="fill:#262626;stroke:#262626;stroke-width:0.8;" x="138.580909" xlink:href="#m2fc91eaf40" y="175.96"/>
      </g>
     </g>
     <g id="text_4">
      <!-- 8 -->
      <defs>
       <path d="M 17.671875 38.8125 
Q 12.203125 40.828125 9.5625 44.53125 
Q 6.9375 48.25 6.9375 53.421875 
Q 6.9375 61.234375 12.546875 66.546875 
Q 18.171875 71.875 27.484375 71.875 
Q 36.859375 71.875 42.578125 66.421875 
Q 48.296875 60.984375 48.296875 53.171875 
Q 48.296875 48.1875 45.671875 44.5 
Q 43.0625 40.828125 37.75 38.8125 
Q 44.34375 36.671875 47.78125 31.875 
Q 51.21875 27.09375 51.21875 20.453125 
Q 51.21875 11.28125 44.71875 5.03125 
Q 38.234375 -1.21875 27.640625 -1.21875 
Q 17.046875 -1.21875 10.546875 5.046875 
Q 4.046875 11.328125 4.046875 20.703125 
Q 4.046875 27.6875 7.59375 32.390625 
Q 11.140625 37.109375 17.671875 38.8125 
z
M 15.921875 53.71875 
Q 15.921875 48.640625 19.1875 45.40625 
Q 22.46875 42.1875 27.6875 42.1875 
Q 32.765625 42.1875 36.015625 45.375 
Q 39.265625 48.578125 39.265625 53.21875 
Q 39.265625 58.0625 35.90625 61.359375 
Q 32.5625 64.65625 27.59375 64.65625 
Q 22.5625 64.65625 19.234375 61.421875 
Q 15.921875 58.203125 15.921875 53.71875 
z
M 13.09375 20.65625 
Q 13.09375 16.890625 14.875 13.375 
Q 16.65625 9.859375 20.171875 7.921875 
Q 23.6875 6 27.734375 6 
Q 34.03125 6 38.125 10.046875 
Q 42.234375 14.109375 42.234375 20.359375 
Q 42.234375 26.703125 38.015625 30.859375 
Q 33.796875 35.015625 27.4375 35.015625 
Q 21.234375 35.015625 17.15625 30.90625 
Q 13.09375 26.8125 13.09375 20.65625 
z
" id="ArialMT-38"/>
      </defs>
      <g style="fill:#262626;" transform="translate(135.80044 190.117812)scale(0.1 -0.1)">
       <use xlink:href="#ArialMT-38"/>
      </g>
     </g>
    </g>
    <g id="xtick_5">
     <g id="line2d_5">
      <g>
       <use style="fill:#262626;stroke:#262626;stroke-width:0.8;" x="167.442727" xlink:href="#m2fc91eaf40" y="175.96"/>
      </g>
     </g>
     <g id="text_5">
      <!-- 10 -->
      <defs>
       <path d="M 37.25 0 
L 28.46875 0 
L 28.46875 56 
Q 25.296875 52.984375 20.140625 49.953125 
Q 14.984375 46.921875 10.890625 45.40625 
L 10.890625 53.90625 
Q 18.265625 57.375 23.78125 62.296875 
Q 29.296875 67.234375 31.59375 71.875 
L 37.25 71.875 
z
" id="ArialMT-31"/>
       <path d="M 4.15625 35.296875 
Q 4.15625 48 6.765625 55.734375 
Q 9.375 63.484375 14.515625 67.671875 
Q 19.671875 71.875 27.484375 71.875 
Q 33.25 71.875 37.59375 69.546875 
Q 41.9375 67.234375 44.765625 62.859375 
Q 47.609375 58.5 49.21875 52.21875 
Q 50.828125 45.953125 50.828125 35.296875 
Q 50.828125 22.703125 48.234375 14.96875 
Q 45.65625 7.234375 40.5 3 
Q 35.359375 -1.21875 27.484375 -1.21875 
Q 17.140625 -1.21875 11.234375 6.203125 
Q 4.15625 15.140625 4.15625 35.296875 
z
M 13.1875 35.296875 
Q 13.1875 17.671875 17.3125 11.828125 
Q 21.4375 6 27.484375 6 
Q 33.546875 6 37.671875 11.859375 
Q 41.796875 17.71875 41.796875 35.296875 
Q 41.796875 52.984375 37.671875 58.78125 
Q 33.546875 64.59375 27.390625 64.59375 
Q 21.34375 64.59375 17.71875 59.46875 
Q 13.1875 52.9375 13.1875 35.296875 
z
" id="ArialMT-30"/>
      </defs>
      <g style="fill:#262626;" transform="translate(161.88179 190.117812)scale(0.1 -0.1)">
       <use xlink:href="#ArialMT-31"/>
       <use x="55.615234" xlink:href="#ArialMT-30"/>
      </g>
     </g>
    </g>
    <g id="xtick_6">
     <g id="line2d_6">
      <g>
       <use style="fill:#262626;stroke:#262626;stroke-width:0.8;" x="196.304545" xlink:href="#m2fc91eaf40" y="175.96"/>
      </g>
     </g>
     <g id="text_6">
      <!-- 12 -->
      <g style="fill:#262626;" transform="translate(190.743608 190.117812)scale(0.1 -0.1)">
       <use xlink:href="#ArialMT-31"/>
       <use x="55.615234" xlink:href="#ArialMT-32"/>
      </g>
     </g>
    </g>
    <g id="text_7">
     <!-- pH -->
     <defs>
      <path d="M 6.59375 -19.875 
L 6.59375 51.859375 
L 14.59375 51.859375 
L 14.59375 45.125 
Q 17.4375 49.078125 21 51.046875 
Q 24.5625 53.03125 29.640625 53.03125 
Q 36.28125 53.03125 41.359375 49.609375 
Q 46.4375 46.1875 49.015625 39.953125 
Q 51.609375 33.734375 51.609375 26.3125 
Q 51.609375 18.359375 48.75 11.984375 
Q 45.90625 5.609375 40.453125 2.21875 
Q 35.015625 -1.171875 29 -1.171875 
Q 24.609375 -1.171875 21.109375 0.6875 
Q 17.625 2.546875 15.375 5.375 
L 15.375 -19.875 
z
M 14.546875 25.640625 
Q 14.546875 15.625 18.59375 10.84375 
Q 22.65625 6.0625 28.421875 6.0625 
Q 34.28125 6.0625 38.453125 11.015625 
Q 42.625 15.96875 42.625 26.375 
Q 42.625 36.28125 38.546875 41.203125 
Q 34.46875 46.140625 28.8125 46.140625 
Q 23.1875 46.140625 18.859375 40.890625 
Q 14.546875 35.640625 14.546875 25.640625 
z
" id="ArialMT-70"/>
      <path d="M 8.015625 0 
L 8.015625 71.578125 
L 17.484375 71.578125 
L 17.484375 42.1875 
L 54.6875 42.1875 
L 54.6875 71.578125 
L 64.15625 71.578125 
L 64.15625 0 
L 54.6875 0 
L 54.6875 33.734375 
L 17.484375 33.734375 
L 17.484375 0 
z
" id="ArialMT-48"/>
     </defs>
     <g style="fill:#262626;" transform="translate(117.758594 203.263125)scale(0.1 -0.1)">
      <use xlink:href="#ArialMT-70"/>
      <use x="55.615234" xlink:href="#ArialMT-48"/>
     </g>
    </g>
   </g>
   <g id="matplotlib.axis_2">
    <g id="ytick_1">
     <g id="line2d_7">
      <defs>
       <path d="M 0 0 
L -3.5 0 
" id="mc7818824ee" style="stroke:#262626;stroke-width:0.8;"/>
      </defs>
      <g>
       <use style="fill:#262626;stroke:#262626;stroke-width:0.8;" x="44.78" xlink:href="#mc7818824ee" y="137.814186"/>
      </g>
     </g>
     <g id="text_8">
      <!-- −1 -->
      <defs>
       <path d="M 52.828125 31.203125 
L 5.5625 31.203125 
L 5.5625 39.40625 
L 52.828125 39.40625 
z
" id="ArialMT-2212"/>
      </defs>
      <g style="fill:#262626;" transform="translate(26.378438 141.393093)scale(0.1 -0.1)">
       <use xlink:href="#ArialMT-2212"/>
       <use x="58.398438" xlink:href="#ArialMT-31"/>
      </g>
     </g>
    </g>
    <g id="ytick_2">
     <g id="line2d_8">
      <g>
       <use style="fill:#262626;stroke:#262626;stroke-width:0.8;" x="44.78" xlink:href="#mc7818824ee" y="93.44738"/>
      </g>
     </g>
     <g id="text_9">
      <!-- 0 -->
      <g style="fill:#262626;" transform="translate(32.219063 97.026286)scale(0.1 -0.1)">
       <use xlink:href="#ArialMT-30"/>
      </g>
     </g>
    </g>
    <g id="ytick_3">
     <g id="line2d_9">
      <g>
       <use style="fill:#262626;stroke:#262626;stroke-width:0.8;" x="44.78" xlink:href="#mc7818824ee" y="49.080573"/>
      </g>
     </g>
     <g id="text_10">
      <!-- 1 -->
      <g style="fill:#262626;" transform="translate(32.219063 52.659479)scale(0.1 -0.1)">
       <use xlink:href="#ArialMT-31"/>
      </g>
     </g>
    </g>
    <g id="text_11">
     <!-- $\langle q_\mathsf{total} \rangle$ -->
     <defs>
      <path d="M 8.9375 31.34375 
L 22.703125 75.875 
L 31 75.875 
L 17.234375 31.34375 
L 31 -13.1875 
L 22.703125 -13.1875 
z
" id="DejaVuSans-27e8"/>
      <path d="M 41.703125 8.203125 
Q 38.09375 3.46875 33.171875 1.015625 
Q 28.265625 -1.421875 22.3125 -1.421875 
Q 14.015625 -1.421875 9.296875 4.171875 
Q 4.59375 9.765625 4.59375 19.578125 
Q 4.59375 27.484375 7.5 34.859375 
Q 10.40625 42.234375 15.828125 48.09375 
Q 19.34375 51.90625 23.90625 53.953125 
Q 28.46875 56 33.5 56 
Q 39.546875 56 43.453125 53.609375 
Q 47.359375 51.21875 49.125 46.390625 
L 50.6875 54.59375 
L 59.71875 54.59375 
L 45.125 -20.609375 
L 36.078125 -20.609375 
z
M 13.921875 20.90625 
Q 13.921875 13.671875 16.9375 9.890625 
Q 19.96875 6.109375 25.6875 6.109375 
Q 34.1875 6.109375 40.1875 14.234375 
Q 46.1875 22.359375 46.1875 33.984375 
Q 46.1875 41.015625 43.078125 44.75 
Q 39.984375 48.484375 34.1875 48.484375 
Q 29.9375 48.484375 26.3125 46.5 
Q 22.703125 44.53125 20.015625 40.71875 
Q 17.1875 36.71875 15.546875 31.34375 
Q 13.921875 25.984375 13.921875 20.90625 
z
" id="DejaVuSans-Oblique-71"/>
      <path d="M 18.3125 70.21875 
L 18.3125 54.6875 
L 36.8125 54.6875 
L 36.8125 47.703125 
L 18.3125 47.703125 
L 18.3125 18.015625 
Q 18.3125 11.328125 20.140625 9.421875 
Q 21.96875 7.515625 27.59375 7.515625 
L 36.8125 7.515625 
L 36.8125 0 
L 27.59375 0 
Q 17.1875 0 13.234375 3.875 
Q 9.28125 7.765625 9.28125 18.015625 
L 9.28125 47.703125 
L 2.6875 47.703125 
L 2.6875 54.6875 
L 9.28125 54.6875 
L 9.28125 70.21875 
z
" id="DejaVuSans-74"/>
      <path d="M 30.609375 48.390625 
Q 23.390625 48.390625 19.1875 42.75 
Q 14.984375 37.109375 14.984375 27.296875 
Q 14.984375 17.484375 19.15625 11.84375 
Q 23.34375 6.203125 30.609375 6.203125 
Q 37.796875 6.203125 41.984375 11.859375 
Q 46.1875 17.53125 46.1875 27.296875 
Q 46.1875 37.015625 41.984375 42.703125 
Q 37.796875 48.390625 30.609375 48.390625 
z
M 30.609375 56 
Q 42.328125 56 49.015625 48.375 
Q 55.71875 40.765625 55.71875 27.296875 
Q 55.71875 13.875 49.015625 6.21875 
Q 42.328125 -1.421875 30.609375 -1.421875 
Q 18.84375 -1.421875 12.171875 6.21875 
Q 5.515625 13.875 5.515625 27.296875 
Q 5.515625 40.765625 12.171875 48.375 
Q 18.84375 56 30.609375 56 
z
" id="DejaVuSans-6f"/>
      <path d="M 34.28125 27.484375 
Q 23.390625 27.484375 19.1875 25 
Q 14.984375 22.515625 14.984375 16.5 
Q 14.984375 11.71875 18.140625 8.90625 
Q 21.296875 6.109375 26.703125 6.109375 
Q 34.1875 6.109375 38.703125 11.40625 
Q 43.21875 16.703125 43.21875 25.484375 
L 43.21875 27.484375 
z
M 52.203125 31.203125 
L 52.203125 0 
L 43.21875 0 
L 43.21875 8.296875 
Q 40.140625 3.328125 35.546875 0.953125 
Q 30.953125 -1.421875 24.3125 -1.421875 
Q 15.921875 -1.421875 10.953125 3.296875 
Q 6 8.015625 6 15.921875 
Q 6 25.140625 12.171875 29.828125 
Q 18.359375 34.515625 30.609375 34.515625 
L 43.21875 34.515625 
L 43.21875 35.40625 
Q 43.21875 41.609375 39.140625 45 
Q 35.0625 48.390625 27.6875 48.390625 
Q 23 48.390625 18.546875 47.265625 
Q 14.109375 46.140625 10.015625 43.890625 
L 10.015625 52.203125 
Q 14.9375 54.109375 19.578125 55.046875 
Q 24.21875 56 28.609375 56 
Q 40.484375 56 46.34375 49.84375 
Q 52.203125 43.703125 52.203125 31.203125 
z
" id="DejaVuSans-61"/>
      <path d="M 9.421875 75.984375 
L 18.40625 75.984375 
L 18.40625 0 
L 9.421875 0 
z
" id="DejaVuSans-6c"/>
      <path d="M 30.078125 31.34375 
L 16.3125 -13.1875 
L 8.015625 -13.1875 
L 21.78125 31.34375 
L 8.015625 75.875 
L 16.3125 75.875 
z
" id="DejaVuSans-27e9"/>
     </defs>
     <g style="fill:#262626;" transform="translate(20.278438 115.95)rotate(-90)scale(0.1 -0.1)">
      <use transform="translate(0 0.125)" xlink:href="#DejaVuSans-27e8"/>
      <use transform="translate(39.013672 0.125)" xlink:href="#DejaVuSans-Oblique-71"/>
      <use transform="translate(102.490234 -16.28125)scale(0.7)" xlink:href="#DejaVuSans-74"/>
      <use transform="translate(129.936523 -16.28125)scale(0.7)" xlink:href="#DejaVuSans-6f"/>
      <use transform="translate(172.763672 -16.28125)scale(0.7)" xlink:href="#DejaVuSans-74"/>
      <use transform="translate(200.209961 -16.28125)scale(0.7)" xlink:href="#DejaVuSans-61"/>
      <use transform="translate(243.105469 -16.28125)scale(0.7)" xlink:href="#DejaVuSans-6c"/>
      <use transform="translate(265.288086 0.125)" xlink:href="#DejaVuSans-27e9"/>
     </g>
    </g>
   </g>
   <g id="PolyCollection_1">
    <defs>
     <path d="M 51.995455 -183.718182 
L 51.995455 -107.780804 
L 53.438545 -105.499512 
L 54.881636 -103.291651 
L 56.324727 -101.218746 
L 57.767818 -99.332335 
L 59.210909 -97.669974 
L 60.654 -96.253718 
L 62.097091 -95.090902 
L 63.540182 -94.176521 
L 64.983273 -93.496428 
L 66.426364 -93.030582 
L 67.869455 -92.755912 
L 69.312545 -92.648533 
L 70.755636 -92.685292 
L 72.198727 -92.844729 
L 73.641818 -93.107574 
L 75.084909 -93.456937 
L 76.528 -93.878284 
L 77.971091 -94.359308 
L 79.414182 -94.88974 
L 80.857273 -95.46113 
L 82.300364 -96.066618 
L 83.743455 -96.700703 
L 85.186545 -97.358988 
L 86.629636 -98.037915 
L 88.072727 -98.734458 
L 89.515818 -99.445802 
L 90.958909 -100.169004 
L 92.402 -100.900679 
L 93.845091 -101.636735 
L 95.288182 -102.372164 
L 96.731273 -103.100882 
L 98.174364 -103.815569 
L 99.617455 -104.507467 
L 101.060545 -105.166083 
L 102.503636 -105.77882 
L 103.946727 -106.330579 
L 105.389818 -106.803499 
L 106.832909 -107.177063 
L 108.276 -107.428879 
L 109.719091 -107.536431 
L 111.162182 -107.479789 
L 112.605273 -107.244739 
L 114.048364 -106.825365 
L 115.491455 -106.225135 
L 116.934545 -105.456284 
L 118.377636 -104.537921 
L 119.820727 -103.493576 
L 121.263818 -102.348635 
L 122.706909 -101.127997 
L 124.15 -99.854321 
L 125.593091 -98.547153 
L 127.036182 -97.222853 
L 128.479273 -95.894721 
L 129.922364 -94.57277 
L 131.365455 -93.263166 
L 132.808545 -91.967586 
L 134.251636 -90.682738 
L 135.694727 -89.400211 
L 137.137818 -88.106806 
L 138.580909 -86.785249 
L 140.024 -85.4151 
L 141.467091 -83.973752 
L 142.910182 -82.437538 
L 144.353273 -80.783098 
L 145.796364 -78.9893 
L 147.239455 -77.039918 
L 148.682545 -74.926914 
L 150.125636 -72.653901 
L 151.568727 -70.2391 
L 153.011818 -67.716868 
L 154.454909 -65.136777 
L 155.898 -62.559799 
L 157.341091 -60.05211 
L 158.784182 -57.677904 
L 160.227273 -55.49279 
L 161.670364 -53.539075 
L 163.113455 -51.843528 
L 164.556545 -50.417585 
L 165.999636 -49.259401 
L 167.442727 -48.356929 
L 168.885818 -47.691245 
L 170.328909 -47.239576 
L 171.772 -46.977724 
L 173.215091 -46.881818 
L 174.658182 -46.929439 
L 176.101273 -47.100242 
L 177.544364 -47.3762 
L 178.987455 -47.741562 
L 180.430545 -48.182667 
L 181.873636 -48.687657 
L 183.316727 -49.246193 
L 184.759818 -49.849223 
L 186.202909 -50.488804 
L 187.646 -51.158005 
L 189.089091 -51.850834 
L 190.532182 -52.562172 
L 191.975273 -53.287681 
L 193.418364 -54.023665 
L 194.861455 -54.766914 
L 196.304545 -55.514552 
L 196.304545 -100.988428 
L 196.304545 -100.988428 
L 194.861455 -101.770013 
L 193.418364 -102.555962 
L 191.975273 -103.345643 
L 190.532182 -104.138661 
L 189.089091 -104.934842 
L 187.646 -105.734249 
L 186.202909 -106.537259 
L 184.759818 -107.34472 
L 183.316727 -108.15819 
L 181.873636 -108.980227 
L 180.430545 -109.8147 
L 178.987455 -110.667087 
L 177.544364 -111.544734 
L 176.101273 -112.457073 
L 174.658182 -113.415794 
L 173.215091 -114.434943 
L 171.772 -115.530901 
L 170.328909 -116.722153 
L 168.885818 -118.028708 
L 167.442727 -119.471031 
L 165.999636 -121.068346 
L 164.556545 -122.836245 
L 163.113455 -124.783694 
L 161.670364 -126.90973 
L 160.227273 -129.200408 
L 158.784182 -131.626795 
L 157.341091 -134.144825 
L 155.898 -136.697576 
L 154.454909 -139.219913 
L 153.011818 -141.644685 
L 151.568727 -143.909177 
L 150.125636 -145.960538 
L 148.682545 -147.759374 
L 147.239455 -149.281228 
L 145.796364 -150.51601 
L 144.353273 -151.465826 
L 142.910182 -152.141924 
L 141.467091 -152.561502 
L 140.024 -152.744822 
L 138.580909 -152.712898 
L 137.137818 -152.485958 
L 135.694727 -152.082811 
L 134.251636 -151.52098 
L 132.808545 -150.817376 
L 131.365455 -149.989158 
L 129.922364 -149.054439 
L 128.479273 -148.03262 
L 127.036182 -146.94441 
L 125.593091 -145.811686 
L 124.15 -144.657361 
L 122.706909 -143.505563 
L 121.263818 -142.382094 
L 119.820727 -141.314634 
L 118.377636 -140.332116 
L 116.934545 -139.463159 
L 115.491455 -138.733884 
L 114.048364 -138.165485 
L 112.605273 -137.771875 
L 111.162182 -137.557887 
L 109.719091 -137.518718 
L 108.276 -137.641083 
L 106.832909 -137.905836 
L 105.389818 -138.291149 
L 103.946727 -138.775256 
L 102.503636 -139.338233 
L 101.060545 -139.962816 
L 99.617455 -140.634537 
L 98.174364 -141.341492 
L 96.731273 -142.07399 
L 95.288182 -142.824215 
L 93.845091 -143.585988 
L 92.402 -144.354617 
L 90.958909 -145.126812 
L 89.515818 -145.900615 
L 88.072727 -146.675295 
L 86.629636 -147.451219 
L 85.186545 -148.229699 
L 83.743455 -149.012854 
L 82.300364 -149.803527 
L 80.857273 -150.60527 
L 79.414182 -151.422417 
L 77.971091 -152.260235 
L 76.528 -153.125135 
L 75.084909 -154.02494 
L 73.641818 -154.969174 
L 72.198727 -155.969344 
L 70.755636 -157.039167 
L 69.312545 -158.19467 
L 67.869455 -159.454078 
L 66.426364 -160.837374 
L 64.983273 -162.365401 
L 63.540182 -164.058369 
L 62.097091 -165.933694 
L 60.654 -168.003167 
L 59.210909 -170.269674 
L 57.767818 -172.723952 
L 56.324727 -175.342083 
L 54.881636 -178.084601 
L 53.438545 -180.897903 
L 51.995455 -183.718182 
z
" id="m97aea67b43" style="stroke:#ffffff;stroke-opacity:0.05;"/>
    </defs>
    <g clip-path="url(#p635ac49d23)">
     <use style="fill:#001c7f;fill-opacity:0.05;stroke:#ffffff;stroke-opacity:0.05;" x="0" xlink:href="#m97aea67b43" y="216"/>
    </g>
   </g>
   <g id="line2d_10">
    <path clip-path="url(#p635ac49d23)" d="M 51.995455 70.250507 
L 53.438545 72.801293 
L 54.881636 75.311874 
L 56.324727 77.719585 
L 57.767818 79.971856 
L 59.210909 82.030176 
L 60.654 83.871558 
L 62.097091 85.487702 
L 63.540182 86.882555 
L 64.983273 88.069086 
L 66.426364 89.066022 
L 67.869455 89.895005 
L 69.312545 90.578398 
L 70.755636 91.13777 
L 72.198727 91.592963 
L 73.641818 91.961626 
L 75.084909 92.259061 
L 76.528 92.498291 
L 77.971091 92.690229 
L 79.414182 92.843921 
L 80.857273 92.9668 
L 82.300364 93.064928 
L 83.743455 93.143222 
L 85.186545 93.205656 
L 86.629636 93.255433 
L 88.072727 93.295123 
L 89.515818 93.326791 
L 90.958909 93.352092 
L 92.402 93.372352 
L 93.845091 93.388639 
L 95.288182 93.401811 
L 96.731273 93.412564 
L 98.174364 93.42147 
L 99.617455 93.428998 
L 101.060545 93.43555 
L 102.503636 93.441473 
L 103.946727 93.447082 
L 105.389818 93.452676 
L 106.832909 93.458551 
L 108.276 93.465019 
L 109.719091 93.472426 
L 111.162182 93.481162 
L 112.605273 93.491693 
L 114.048364 93.504575 
L 115.491455 93.520491 
L 116.934545 93.540279 
L 118.377636 93.564981 
L 119.820727 93.595895 
L 121.263818 93.634636 
L 122.706909 93.68322 
L 124.15 93.744159 
L 125.593091 93.820581 
L 127.036182 93.916368 
L 128.479273 94.03633 
L 129.922364 94.186396 
L 131.365455 94.373838 
L 132.808545 94.607519 
L 134.251636 94.898141 
L 135.694727 95.258489 
L 137.137818 95.703618 
L 138.580909 96.250926 
L 140.024 96.920039 
L 141.467091 97.732373 
L 142.910182 98.710269 
L 144.353273 99.875538 
L 145.796364 101.247345 
L 147.239455 102.839427 
L 148.682545 104.656856 
L 150.125636 106.69278 
L 151.568727 108.925861 
L 153.011818 111.319224 
L 154.454909 113.821655 
L 155.898 116.371313 
L 157.341091 118.901532 
L 158.784182 121.347651 
L 160.227273 123.653401 
L 161.670364 125.775598 
L 163.113455 127.686389 
L 164.556545 129.373085 
L 165.999636 130.836126 
L 167.442727 132.08602 
L 168.885818 133.140024 
L 170.328909 134.019136 
L 171.772 134.745687 
L 173.215091 135.341619 
L 174.658182 135.827384 
L 176.101273 136.221342 
L 177.544364 136.539533 
L 178.987455 136.795675 
L 180.430545 137.001316 
L 181.873636 137.166058 
L 183.316727 137.297809 
L 184.759818 137.403029 
L 186.202909 137.486969 
L 187.646 137.553873 
L 189.089091 137.607162 
L 190.532182 137.649583 
L 191.975273 137.683338 
L 193.418364 137.710187 
L 194.861455 137.731537 
L 196.304545 137.74851 
" style="fill:none;opacity:0.9;stroke:#001c7f;stroke-linecap:round;stroke-width:1.5;"/>
   </g>
   <g id="line2d_11">
    <path clip-path="url(#p635ac49d23)" d="M 51.995455 93.447381 
L 53.438545 93.447381 
L 54.881636 93.447381 
L 56.324727 93.447382 
L 57.767818 93.447383 
L 59.210909 93.447383 
L 60.654 93.447384 
L 62.097091 93.447386 
L 63.540182 93.447387 
L 64.983273 93.447389 
L 66.426364 93.447392 
L 67.869455 93.447395 
L 69.312545 93.447399 
L 70.755636 93.447404 
L 72.198727 93.44741 
L 73.641818 93.447418 
L 75.084909 93.447428 
L 76.528 93.447441 
L 77.971091 93.447457 
L 79.414182 93.447477 
L 80.857273 93.447502 
L 82.300364 93.447533 
L 83.743455 93.447573 
L 85.186545 93.447623 
L 86.629636 93.447687 
L 88.072727 93.447766 
L 89.515818 93.447866 
L 90.958909 93.447992 
L 92.402 93.448151 
L 93.845091 93.44835 
L 95.288182 93.448601 
L 96.731273 93.448918 
L 98.174364 93.449316 
L 99.617455 93.449818 
L 101.060545 93.450449 
L 102.503636 93.451243 
L 103.946727 93.452244 
L 105.389818 93.453503 
L 106.832909 93.455088 
L 108.276 93.457084 
L 109.719091 93.459596 
L 111.162182 93.462758 
L 112.605273 93.466738 
L 114.048364 93.471748 
L 115.491455 93.478053 
L 116.934545 93.485988 
L 118.377636 93.495974 
L 119.820727 93.508538 
L 121.263818 93.524346 
L 122.706909 93.544232 
L 124.15 93.56924 
L 125.593091 93.600684 
L 127.036182 93.640206 
L 128.479273 93.689861 
L 129.922364 93.752214 
L 131.365455 93.830462 
L 132.808545 93.928576 
L 134.251636 94.051473 
L 135.694727 94.205217 
L 137.137818 94.397239 
L 138.580909 94.636589 
L 140.024 94.934187 
L 141.467091 95.303058 
L 142.910182 95.758511 
L 144.353273 96.3182 
L 145.796364 97.001975 
L 147.239455 97.831404 
L 148.682545 98.828854 
L 150.125636 100.015959 
L 151.568727 101.411434 
L 153.011818 103.028228 
L 154.454909 104.870255 
L 155.898 106.929176 
L 157.341091 109.181959 
L 158.784182 111.59005 
L 160.227273 114.10084 
L 161.670364 116.651645 
L 163.113455 119.17568 
L 164.556545 121.608914 
L 165.999636 123.896331 
L 167.442727 125.996364 
L 168.885818 127.88288 
L 170.328909 129.544755 
L 171.772 130.983699 
L 173.215091 132.211121 
L 174.658182 133.244828 
L 176.101273 134.10607 
L 177.544364 134.817207 
L 178.987455 135.400062 
L 180.430545 135.874876 
L 181.873636 136.259763 
L 183.316727 136.570502 
L 184.759818 136.820564 
L 186.202909 137.021272 
L 187.646 137.182028 
L 189.089091 137.31057 
L 190.532182 137.413213 
L 191.975273 137.495089 
L 193.418364 137.560343 
L 194.861455 137.612314 
L 196.304545 137.653683 
" style="fill:none;opacity:0.7;stroke:#000000;stroke-linecap:round;stroke-width:1.5;"/>
   </g>
   <g id="line2d_12">
    <path clip-path="url(#p635ac49d23)" d="M 51.995455 32.281818 
L 53.438545 35.102097 
L 54.881636 37.915399 
L 56.324727 40.657917 
L 57.767818 43.276048 
L 59.210909 45.730326 
L 60.654 47.996833 
L 62.097091 50.066306 
L 63.540182 51.941631 
L 64.983273 53.634599 
L 66.426364 55.162626 
L 67.869455 56.545922 
L 69.312545 57.80533 
L 70.755636 58.960833 
L 72.198727 60.030656 
L 73.641818 61.030826 
L 75.084909 61.97506 
L 76.528 62.874865 
L 77.971091 63.739765 
L 79.414182 64.577583 
L 80.857273 65.39473 
L 82.300364 66.196473 
L 83.743455 66.987146 
L 85.186545 67.770301 
L 86.629636 68.548781 
L 88.072727 69.324705 
L 89.515818 70.099385 
L 90.958909 70.873188 
L 92.402 71.645383 
L 93.845091 72.414012 
L 95.288182 73.175785 
L 96.731273 73.92601 
L 98.174364 74.658508 
L 99.617455 75.365463 
L 101.060545 76.037184 
L 102.503636 76.661767 
L 103.946727 77.224744 
L 105.389818 77.708851 
L 106.832909 78.094164 
L 108.276 78.358917 
L 109.719091 78.481282 
L 111.162182 78.442113 
L 112.605273 78.228125 
L 114.048364 77.834515 
L 115.491455 77.266116 
L 116.934545 76.536841 
L 118.377636 75.667884 
L 119.820727 74.685366 
L 121.263818 73.617906 
L 122.706909 72.494437 
L 124.15 71.342639 
L 125.593091 70.188314 
L 127.036182 69.05559 
L 128.479273 67.96738 
L 129.922364 66.945561 
L 131.365455 66.010842 
L 132.808545 65.182624 
L 134.251636 64.47902 
L 135.694727 63.917189 
L 137.137818 63.514042 
L 138.580909 63.287102 
L 140.024 63.255178 
L 141.467091 63.438498 
L 142.910182 63.858076 
L 144.353273 64.534174 
L 145.796364 65.48399 
L 147.239455 66.718772 
L 148.682545 68.240626 
L 150.125636 70.039462 
L 151.568727 72.090823 
L 153.011818 74.355315 
L 154.454909 76.780087 
L 155.898 79.302424 
L 157.341091 81.855175 
L 158.784182 84.373205 
L 160.227273 86.799592 
L 161.670364 89.09027 
L 163.113455 91.216306 
L 164.556545 93.163755 
L 165.999636 94.931654 
L 167.442727 96.528969 
L 168.885818 97.971292 
L 170.328909 99.277847 
L 171.772 100.469099 
L 173.215091 101.565057 
L 174.658182 102.584206 
L 176.101273 103.542927 
L 177.544364 104.455266 
L 178.987455 105.332913 
L 180.430545 106.1853 
L 181.873636 107.019773 
L 183.316727 107.84181 
L 184.759818 108.65528 
L 186.202909 109.462741 
L 187.646 110.265751 
L 189.089091 111.065158 
L 190.532182 111.861339 
L 191.975273 112.654357 
L 193.418364 113.444038 
L 194.861455 114.229987 
L 196.304545 115.011572 
" style="fill:none;opacity:0.45;stroke:#001c7f;stroke-dasharray:2.775,1.2;stroke-dashoffset:0;stroke-width:0.75;"/>
   </g>
   <g id="line2d_13">
    <path clip-path="url(#p635ac49d23)" d="M 51.995455 108.219196 
L 53.438545 110.500488 
L 54.881636 112.708349 
L 56.324727 114.781254 
L 57.767818 116.667665 
L 59.210909 118.330026 
L 60.654 119.746282 
L 62.097091 120.909098 
L 63.540182 121.823479 
L 64.983273 122.503572 
L 66.426364 122.969418 
L 67.869455 123.244088 
L 69.312545 123.351467 
L 70.755636 123.314708 
L 72.198727 123.155271 
L 73.641818 122.892426 
L 75.084909 122.543063 
L 76.528 122.121716 
L 77.971091 121.640692 
L 79.414182 121.11026 
L 80.857273 120.53887 
L 82.300364 119.933382 
L 83.743455 119.299297 
L 85.186545 118.641012 
L 86.629636 117.962085 
L 88.072727 117.265542 
L 89.515818 116.554198 
L 90.958909 115.830996 
L 92.402 115.099321 
L 93.845091 114.363265 
L 95.288182 113.627836 
L 96.731273 112.899118 
L 98.174364 112.184431 
L 99.617455 111.492533 
L 101.060545 110.833917 
L 102.503636 110.22118 
L 103.946727 109.669421 
L 105.389818 109.196501 
L 106.832909 108.822937 
L 108.276 108.571121 
L 109.719091 108.463569 
L 111.162182 108.520211 
L 112.605273 108.755261 
L 114.048364 109.174635 
L 115.491455 109.774865 
L 116.934545 110.543716 
L 118.377636 111.462079 
L 119.820727 112.506424 
L 121.263818 113.651365 
L 122.706909 114.872003 
L 124.15 116.145679 
L 125.593091 117.452847 
L 127.036182 118.777147 
L 128.479273 120.105279 
L 129.922364 121.42723 
L 131.365455 122.736834 
L 132.808545 124.032414 
L 134.251636 125.317262 
L 135.694727 126.599789 
L 137.137818 127.893194 
L 138.580909 129.214751 
L 140.024 130.5849 
L 141.467091 132.026248 
L 142.910182 133.562462 
L 144.353273 135.216902 
L 145.796364 137.0107 
L 147.239455 138.960082 
L 148.682545 141.073086 
L 150.125636 143.346099 
L 151.568727 145.7609 
L 153.011818 148.283132 
L 154.454909 150.863223 
L 155.898 153.440201 
L 157.341091 155.94789 
L 158.784182 158.322096 
L 160.227273 160.50721 
L 161.670364 162.460925 
L 163.113455 164.156472 
L 164.556545 165.582415 
L 165.999636 166.740599 
L 167.442727 167.643071 
L 168.885818 168.308755 
L 170.328909 168.760424 
L 171.772 169.022276 
L 173.215091 169.118182 
L 174.658182 169.070561 
L 176.101273 168.899758 
L 177.544364 168.6238 
L 178.987455 168.258438 
L 180.430545 167.817333 
L 181.873636 167.312343 
L 183.316727 166.753807 
L 184.759818 166.150777 
L 186.202909 165.511196 
L 187.646 164.841995 
L 189.089091 164.149166 
L 190.532182 163.437828 
L 191.975273 162.712319 
L 193.418364 161.976335 
L 194.861455 161.233086 
L 196.304545 160.485448 
" style="fill:none;opacity:0.45;stroke:#001c7f;stroke-dasharray:2.775,1.2;stroke-dashoffset:0;stroke-width:0.75;"/>
   </g>
   <g id="patch_3">
    <path d="M 44.78 175.96 
L 44.78 25.44 
" style="fill:none;stroke:#262626;stroke-linecap:square;stroke-linejoin:miter;stroke-width:0.8;"/>
   </g>
   <g id="patch_4">
    <path d="M 44.78 175.96 
L 203.52 175.96 
" style="fill:none;stroke:#262626;stroke-linecap:square;stroke-linejoin:miter;stroke-width:0.8;"/>
   </g>
   <g id="text_12">
    <!-- Epik-micro SM19 -->
    <defs>
     <path d="M 7.90625 0 
L 7.90625 71.578125 
L 59.671875 71.578125 
L 59.671875 63.140625 
L 17.390625 63.140625 
L 17.390625 41.21875 
L 56.984375 41.21875 
L 56.984375 32.8125 
L 17.390625 32.8125 
L 17.390625 8.453125 
L 61.328125 8.453125 
L 61.328125 0 
z
" id="ArialMT-45"/>
     <path d="M 6.640625 61.46875 
L 6.640625 71.578125 
L 15.4375 71.578125 
L 15.4375 61.46875 
z
M 6.640625 0 
L 6.640625 51.859375 
L 15.4375 51.859375 
L 15.4375 0 
z
" id="ArialMT-69"/>
     <path d="M 6.640625 0 
L 6.640625 71.578125 
L 15.4375 71.578125 
L 15.4375 30.765625 
L 36.234375 51.859375 
L 47.609375 51.859375 
L 27.78125 32.625 
L 49.609375 0 
L 38.765625 0 
L 21.625 26.515625 
L 15.4375 20.5625 
L 15.4375 0 
z
" id="ArialMT-6b"/>
     <path d="M 3.171875 21.484375 
L 3.171875 30.328125 
L 30.171875 30.328125 
L 30.171875 21.484375 
z
" id="ArialMT-2d"/>
     <path d="M 6.59375 0 
L 6.59375 51.859375 
L 14.453125 51.859375 
L 14.453125 44.578125 
Q 16.890625 48.390625 20.9375 50.703125 
Q 25 53.03125 30.171875 53.03125 
Q 35.9375 53.03125 39.625 50.640625 
Q 43.3125 48.25 44.828125 43.953125 
Q 50.984375 53.03125 60.84375 53.03125 
Q 68.5625 53.03125 72.703125 48.75 
Q 76.859375 44.484375 76.859375 35.59375 
L 76.859375 0 
L 68.109375 0 
L 68.109375 32.671875 
Q 68.109375 37.9375 67.25 40.25 
Q 66.40625 42.578125 64.15625 43.984375 
Q 61.921875 45.40625 58.890625 45.40625 
Q 53.421875 45.40625 49.796875 41.765625 
Q 46.1875 38.140625 46.1875 30.125 
L 46.1875 0 
L 37.40625 0 
L 37.40625 33.6875 
Q 37.40625 39.546875 35.25 42.46875 
Q 33.109375 45.40625 28.21875 45.40625 
Q 24.515625 45.40625 21.359375 43.453125 
Q 18.21875 41.5 16.796875 37.734375 
Q 15.375 33.984375 15.375 26.90625 
L 15.375 0 
z
" id="ArialMT-6d"/>
     <path d="M 40.4375 19 
L 49.078125 17.875 
Q 47.65625 8.9375 41.8125 3.875 
Q 35.984375 -1.171875 27.484375 -1.171875 
Q 16.84375 -1.171875 10.375 5.78125 
Q 3.90625 12.75 3.90625 25.734375 
Q 3.90625 34.125 6.6875 40.421875 
Q 9.46875 46.734375 15.15625 49.875 
Q 20.84375 53.03125 27.546875 53.03125 
Q 35.984375 53.03125 41.359375 48.75 
Q 46.734375 44.484375 48.25 36.625 
L 39.703125 35.296875 
Q 38.484375 40.53125 35.375 43.15625 
Q 32.28125 45.796875 27.875 45.796875 
Q 21.234375 45.796875 17.078125 41.03125 
Q 12.9375 36.28125 12.9375 25.984375 
Q 12.9375 15.53125 16.9375 10.796875 
Q 20.953125 6.0625 27.390625 6.0625 
Q 32.5625 6.0625 36.03125 9.234375 
Q 39.5 12.40625 40.4375 19 
z
" id="ArialMT-63"/>
     <path d="M 6.5 0 
L 6.5 51.859375 
L 14.40625 51.859375 
L 14.40625 44 
Q 17.4375 49.515625 20 51.265625 
Q 22.5625 53.03125 25.640625 53.03125 
Q 30.078125 53.03125 34.671875 50.203125 
L 31.640625 42.046875 
Q 28.421875 43.953125 25.203125 43.953125 
Q 22.3125 43.953125 20.015625 42.21875 
Q 17.71875 40.484375 16.75 37.40625 
Q 15.28125 32.71875 15.28125 27.15625 
L 15.28125 0 
z
" id="ArialMT-72"/>
     <path d="M 3.328125 25.921875 
Q 3.328125 40.328125 11.328125 47.265625 
Q 18.015625 53.03125 27.640625 53.03125 
Q 38.328125 53.03125 45.109375 46.015625 
Q 51.90625 39.015625 51.90625 26.65625 
Q 51.90625 16.65625 48.90625 10.90625 
Q 45.90625 5.171875 40.15625 2 
Q 34.421875 -1.171875 27.640625 -1.171875 
Q 16.75 -1.171875 10.03125 5.8125 
Q 3.328125 12.796875 3.328125 25.921875 
z
M 12.359375 25.921875 
Q 12.359375 15.96875 16.703125 11.015625 
Q 21.046875 6.0625 27.640625 6.0625 
Q 34.1875 6.0625 38.53125 11.03125 
Q 42.875 16.015625 42.875 26.21875 
Q 42.875 35.84375 38.5 40.796875 
Q 34.125 45.75 27.640625 45.75 
Q 21.046875 45.75 16.703125 40.8125 
Q 12.359375 35.890625 12.359375 25.921875 
z
" id="ArialMT-6f"/>
     <path id="ArialMT-20"/>
     <path d="M 4.5 23 
L 13.421875 23.78125 
Q 14.0625 18.40625 16.375 14.96875 
Q 18.703125 11.53125 23.578125 9.40625 
Q 28.46875 7.28125 34.578125 7.28125 
Q 39.984375 7.28125 44.140625 8.890625 
Q 48.296875 10.5 50.3125 13.296875 
Q 52.34375 16.109375 52.34375 19.4375 
Q 52.34375 22.796875 50.390625 25.3125 
Q 48.4375 27.828125 43.953125 29.546875 
Q 41.0625 30.671875 31.203125 33.03125 
Q 21.34375 35.40625 17.390625 37.5 
Q 12.25 40.1875 9.734375 44.15625 
Q 7.234375 48.140625 7.234375 53.078125 
Q 7.234375 58.5 10.296875 63.203125 
Q 13.375 67.921875 19.28125 70.359375 
Q 25.203125 72.796875 32.421875 72.796875 
Q 40.375 72.796875 46.453125 70.234375 
Q 52.546875 67.671875 55.8125 62.6875 
Q 59.078125 57.71875 59.328125 51.421875 
L 50.25 50.734375 
Q 49.515625 57.515625 45.28125 60.984375 
Q 41.0625 64.453125 32.8125 64.453125 
Q 24.21875 64.453125 20.28125 61.296875 
Q 16.359375 58.15625 16.359375 53.71875 
Q 16.359375 49.859375 19.140625 47.359375 
Q 21.875 44.875 33.421875 42.265625 
Q 44.96875 39.65625 49.265625 37.703125 
Q 55.515625 34.8125 58.484375 30.390625 
Q 61.46875 25.984375 61.46875 20.21875 
Q 61.46875 14.5 58.203125 9.4375 
Q 54.9375 4.390625 48.796875 1.578125 
Q 42.671875 -1.21875 35.015625 -1.21875 
Q 25.296875 -1.21875 18.71875 1.609375 
Q 12.15625 4.4375 8.421875 10.125 
Q 4.6875 15.828125 4.5 23 
z
" id="ArialMT-53"/>
     <path d="M 7.421875 0 
L 7.421875 71.578125 
L 21.6875 71.578125 
L 38.625 20.90625 
Q 40.96875 13.8125 42.046875 10.296875 
Q 43.265625 14.203125 45.84375 21.78125 
L 62.984375 71.578125 
L 75.734375 71.578125 
L 75.734375 0 
L 66.609375 0 
L 66.609375 59.90625 
L 45.796875 0 
L 37.25 0 
L 16.546875 60.9375 
L 16.546875 0 
z
" id="ArialMT-4d"/>
     <path d="M 5.46875 16.546875 
L 13.921875 17.328125 
Q 14.984375 11.375 18.015625 8.6875 
Q 21.046875 6 25.78125 6 
Q 29.828125 6 32.875 7.859375 
Q 35.9375 9.71875 37.890625 12.8125 
Q 39.84375 15.921875 41.15625 21.1875 
Q 42.484375 26.46875 42.484375 31.9375 
Q 42.484375 32.515625 42.4375 33.6875 
Q 39.796875 29.5 35.234375 26.875 
Q 30.671875 24.265625 25.34375 24.265625 
Q 16.453125 24.265625 10.296875 30.703125 
Q 4.15625 37.15625 4.15625 47.703125 
Q 4.15625 58.59375 10.578125 65.234375 
Q 17 71.875 26.65625 71.875 
Q 33.640625 71.875 39.421875 68.109375 
Q 45.21875 64.359375 48.21875 57.390625 
Q 51.21875 50.4375 51.21875 37.25 
Q 51.21875 23.53125 48.234375 15.40625 
Q 45.265625 7.28125 39.375 3.03125 
Q 33.5 -1.21875 25.59375 -1.21875 
Q 17.1875 -1.21875 11.859375 3.4375 
Q 6.546875 8.109375 5.46875 16.546875 
z
M 41.453125 48.140625 
Q 41.453125 55.71875 37.421875 60.15625 
Q 33.40625 64.59375 27.734375 64.59375 
Q 21.875 64.59375 17.53125 59.8125 
Q 13.1875 55.03125 13.1875 47.40625 
Q 13.1875 40.578125 17.3125 36.296875 
Q 21.4375 32.03125 27.484375 32.03125 
Q 33.59375 32.03125 37.515625 36.296875 
Q 41.453125 40.578125 41.453125 48.140625 
z
" id="ArialMT-39"/>
    </defs>
    <g style="fill:#262626;" transform="translate(78.475 19.44)scale(0.12 -0.12)">
     <use xlink:href="#ArialMT-45"/>
     <use x="66.699219" xlink:href="#ArialMT-70"/>
     <use x="122.314453" xlink:href="#ArialMT-69"/>
     <use x="144.53125" xlink:href="#ArialMT-6b"/>
     <use x="194.53125" xlink:href="#ArialMT-2d"/>
     <use x="227.832031" xlink:href="#ArialMT-6d"/>
     <use x="311.132812" xlink:href="#ArialMT-69"/>
     <use x="333.349609" xlink:href="#ArialMT-63"/>
     <use x="383.349609" xlink:href="#ArialMT-72"/>
     <use x="416.650391" xlink:href="#ArialMT-6f"/>
     <use x="472.265625" xlink:href="#ArialMT-20"/>
     <use x="500.048828" xlink:href="#ArialMT-53"/>
     <use x="566.748047" xlink:href="#ArialMT-4d"/>
     <use x="650.048828" xlink:href="#ArialMT-31"/>
     <use x="705.664062" xlink:href="#ArialMT-39"/>
    </g>
   </g>
  </g>
 </g>
 <defs>
  <clipPath id="p635ac49d23">
   <rect height="150.52" width="158.74" x="44.78" y="25.44"/>
  </clipPath>
 </defs>
</svg>
