<?xml version="1.0" encoding="utf-8" standalone="no"?>
<!DOCTYPE svg PUBLIC "-//W3C//DTD SVG 1.1//EN"
  "http://www.w3.org/Graphics/SVG/1.1/DTD/svg11.dtd">
<!-- Created with matplotlib (http://matplotlib.org/) -->
<svg height="216pt" version="1.1" viewBox="0 0 216 216" width="216pt" xmlns="http://www.w3.org/2000/svg" xmlns:xlink="http://www.w3.org/1999/xlink">
 <defs>
  <style type="text/css">
*{stroke-linecap:butt;stroke-linejoin:round;}
  </style>
 </defs>
 <g id="figure_1">
  <g id="patch_1">
   <path d="M 0 216 
L 216 216 
L 216 0 
L 0 0 
z
" style="fill:#ffffff;"/>
  </g>
  <g id="axes_1">
   <g id="patch_2">
    <path d="M 38.96 175.96 
L 203.52 175.96 
L 203.52 25.44 
L 38.96 25.44 
z
" style="fill:#ffffff;"/>
   </g>
   <g id="matplotlib.axis_1">
    <g id="xtick_1">
     <g id="line2d_1">
      <defs>
       <path d="M 0 0 
L 0 3.5 
" id="m9d8f5915eb" style="stroke:#262626;stroke-width:0.8;"/>
      </defs>
      <g>
       <use style="fill:#262626;stroke:#262626;stroke-width:0.8;" x="46.44" xlink:href="#m9d8f5915eb" y="175.96"/>
      </g>
     </g>
     <g id="text_1">
      <!-- 2 -->
      <defs>
       <path d="M 50.34375 8.453125 
L 50.34375 0 
L 3.03125 0 
Q 2.9375 3.171875 4.046875 6.109375 
Q 5.859375 10.9375 9.828125 15.625 
Q 13.8125 20.3125 21.34375 26.46875 
Q 33.015625 36.03125 37.109375 41.625 
Q 41.21875 47.21875 41.21875 52.203125 
Q 41.21875 57.421875 37.46875 61 
Q 33.734375 64.59375 27.734375 64.59375 
Q 21.390625 64.59375 17.578125 60.78125 
Q 13.765625 56.984375 13.71875 50.25 
L 4.6875 51.171875 
Q 5.609375 61.28125 11.65625 66.578125 
Q 17.71875 71.875 27.9375 71.875 
Q 38.234375 71.875 44.234375 66.15625 
Q 50.25 60.453125 50.25 52 
Q 50.25 47.703125 48.484375 43.546875 
Q 46.734375 39.40625 42.65625 34.8125 
Q 38.578125 30.21875 29.109375 22.21875 
Q 21.1875 15.578125 18.9375 13.203125 
Q 16.703125 10.84375 15.234375 8.453125 
z
" id="ArialMT-32"/>
      </defs>
      <g style="fill:#262626;" transform="translate(43.659531 190.117812)scale(0.1 -0.1)">
       <use xlink:href="#ArialMT-32"/>
      </g>
     </g>
    </g>
    <g id="xtick_2">
     <g id="line2d_2">
      <g>
       <use style="fill:#262626;stroke:#262626;stroke-width:0.8;" x="76.36" xlink:href="#m9d8f5915eb" y="175.96"/>
      </g>
     </g>
     <g id="text_2">
      <!-- 4 -->
      <defs>
       <path d="M 32.328125 0 
L 32.328125 17.140625 
L 1.265625 17.140625 
L 1.265625 25.203125 
L 33.9375 71.578125 
L 41.109375 71.578125 
L 41.109375 25.203125 
L 50.78125 25.203125 
L 50.78125 17.140625 
L 41.109375 17.140625 
L 41.109375 0 
z
M 32.328125 25.203125 
L 32.328125 57.46875 
L 9.90625 25.203125 
z
" id="ArialMT-34"/>
      </defs>
      <g style="fill:#262626;" transform="translate(73.579531 190.117812)scale(0.1 -0.1)">
       <use xlink:href="#ArialMT-34"/>
      </g>
     </g>
    </g>
    <g id="xtick_3">
     <g id="line2d_3">
      <g>
       <use style="fill:#262626;stroke:#262626;stroke-width:0.8;" x="106.28" xlink:href="#m9d8f5915eb" y="175.96"/>
      </g>
     </g>
     <g id="text_3">
      <!-- 6 -->
      <defs>
       <path d="M 49.75 54.046875 
L 41.015625 53.375 
Q 39.84375 58.546875 37.703125 60.890625 
Q 34.125 64.65625 28.90625 64.65625 
Q 24.703125 64.65625 21.53125 62.3125 
Q 17.390625 59.28125 14.984375 53.46875 
Q 12.59375 47.65625 12.5 36.921875 
Q 15.671875 41.75 20.265625 44.09375 
Q 24.859375 46.4375 29.890625 46.4375 
Q 38.671875 46.4375 44.84375 39.96875 
Q 51.03125 33.5 51.03125 23.25 
Q 51.03125 16.5 48.125 10.71875 
Q 45.21875 4.9375 40.140625 1.859375 
Q 35.0625 -1.21875 28.609375 -1.21875 
Q 17.625 -1.21875 10.6875 6.859375 
Q 3.765625 14.9375 3.765625 33.5 
Q 3.765625 54.25 11.421875 63.671875 
Q 18.109375 71.875 29.4375 71.875 
Q 37.890625 71.875 43.28125 67.140625 
Q 48.6875 62.40625 49.75 54.046875 
z
M 13.875 23.1875 
Q 13.875 18.65625 15.796875 14.5 
Q 17.71875 10.359375 21.1875 8.171875 
Q 24.65625 6 28.46875 6 
Q 34.03125 6 38.03125 10.484375 
Q 42.046875 14.984375 42.046875 22.703125 
Q 42.046875 30.125 38.078125 34.390625 
Q 34.125 38.671875 28.125 38.671875 
Q 22.171875 38.671875 18.015625 34.390625 
Q 13.875 30.125 13.875 23.1875 
z
" id="ArialMT-36"/>
      </defs>
      <g style="fill:#262626;" transform="translate(103.499531 190.117812)scale(0.1 -0.1)">
       <use xlink:href="#ArialMT-36"/>
      </g>
     </g>
    </g>
    <g id="xtick_4">
     <g id="line2d_4">
      <g>
       <use style="fill:#262626;stroke:#262626;stroke-width:0.8;" x="136.2" xlink:href="#m9d8f5915eb" y="175.96"/>
      </g>
     </g>
     <g id="text_4">
      <!-- 8 -->
      <defs>
       <path d="M 17.671875 38.8125 
Q 12.203125 40.828125 9.5625 44.53125 
Q 6.9375 48.25 6.9375 53.421875 
Q 6.9375 61.234375 12.546875 66.546875 
Q 18.171875 71.875 27.484375 71.875 
Q 36.859375 71.875 42.578125 66.421875 
Q 48.296875 60.984375 48.296875 53.171875 
Q 48.296875 48.1875 45.671875 44.5 
Q 43.0625 40.828125 37.75 38.8125 
Q 44.34375 36.671875 47.78125 31.875 
Q 51.21875 27.09375 51.21875 20.453125 
Q 51.21875 11.28125 44.71875 5.03125 
Q 38.234375 -1.21875 27.640625 -1.21875 
Q 17.046875 -1.21875 10.546875 5.046875 
Q 4.046875 11.328125 4.046875 20.703125 
Q 4.046875 27.6875 7.59375 32.390625 
Q 11.140625 37.109375 17.671875 38.8125 
z
M 15.921875 53.71875 
Q 15.921875 48.640625 19.1875 45.40625 
Q 22.46875 42.1875 27.6875 42.1875 
Q 32.765625 42.1875 36.015625 45.375 
Q 39.265625 48.578125 39.265625 53.21875 
Q 39.265625 58.0625 35.90625 61.359375 
Q 32.5625 64.65625 27.59375 64.65625 
Q 22.5625 64.65625 19.234375 61.421875 
Q 15.921875 58.203125 15.921875 53.71875 
z
M 13.09375 20.65625 
Q 13.09375 16.890625 14.875 13.375 
Q 16.65625 9.859375 20.171875 7.921875 
Q 23.6875 6 27.734375 6 
Q 34.03125 6 38.125 10.046875 
Q 42.234375 14.109375 42.234375 20.359375 
Q 42.234375 26.703125 38.015625 30.859375 
Q 33.796875 35.015625 27.4375 35.015625 
Q 21.234375 35.015625 17.15625 30.90625 
Q 13.09375 26.8125 13.09375 20.65625 
z
" id="ArialMT-38"/>
      </defs>
      <g style="fill:#262626;" transform="translate(133.419531 190.117812)scale(0.1 -0.1)">
       <use xlink:href="#ArialMT-38"/>
      </g>
     </g>
    </g>
    <g id="xtick_5">
     <g id="line2d_5">
      <g>
       <use style="fill:#262626;stroke:#262626;stroke-width:0.8;" x="166.12" xlink:href="#m9d8f5915eb" y="175.96"/>
      </g>
     </g>
     <g id="text_5">
      <!-- 10 -->
      <defs>
       <path d="M 37.25 0 
L 28.46875 0 
L 28.46875 56 
Q 25.296875 52.984375 20.140625 49.953125 
Q 14.984375 46.921875 10.890625 45.40625 
L 10.890625 53.90625 
Q 18.265625 57.375 23.78125 62.296875 
Q 29.296875 67.234375 31.59375 71.875 
L 37.25 71.875 
z
" id="ArialMT-31"/>
       <path d="M 4.15625 35.296875 
Q 4.15625 48 6.765625 55.734375 
Q 9.375 63.484375 14.515625 67.671875 
Q 19.671875 71.875 27.484375 71.875 
Q 33.25 71.875 37.59375 69.546875 
Q 41.9375 67.234375 44.765625 62.859375 
Q 47.609375 58.5 49.21875 52.21875 
Q 50.828125 45.953125 50.828125 35.296875 
Q 50.828125 22.703125 48.234375 14.96875 
Q 45.65625 7.234375 40.5 3 
Q 35.359375 -1.21875 27.484375 -1.21875 
Q 17.140625 -1.21875 11.234375 6.203125 
Q 4.15625 15.140625 4.15625 35.296875 
z
M 13.1875 35.296875 
Q 13.1875 17.671875 17.3125 11.828125 
Q 21.4375 6 27.484375 6 
Q 33.546875 6 37.671875 11.859375 
Q 41.796875 17.71875 41.796875 35.296875 
Q 41.796875 52.984375 37.671875 58.78125 
Q 33.546875 64.59375 27.390625 64.59375 
Q 21.34375 64.59375 17.71875 59.46875 
Q 13.1875 52.9375 13.1875 35.296875 
z
" id="ArialMT-30"/>
      </defs>
      <g style="fill:#262626;" transform="translate(160.559062 190.117812)scale(0.1 -0.1)">
       <use xlink:href="#ArialMT-31"/>
       <use x="55.615234" xlink:href="#ArialMT-30"/>
      </g>
     </g>
    </g>
    <g id="xtick_6">
     <g id="line2d_6">
      <g>
       <use style="fill:#262626;stroke:#262626;stroke-width:0.8;" x="196.04" xlink:href="#m9d8f5915eb" y="175.96"/>
      </g>
     </g>
     <g id="text_6">
      <!-- 12 -->
      <g style="fill:#262626;" transform="translate(190.479062 190.117812)scale(0.1 -0.1)">
       <use xlink:href="#ArialMT-31"/>
       <use x="55.615234" xlink:href="#ArialMT-32"/>
      </g>
     </g>
    </g>
    <g id="text_7">
     <!-- pH -->
     <defs>
      <path d="M 6.59375 -19.875 
L 6.59375 51.859375 
L 14.59375 51.859375 
L 14.59375 45.125 
Q 17.4375 49.078125 21 51.046875 
Q 24.5625 53.03125 29.640625 53.03125 
Q 36.28125 53.03125 41.359375 49.609375 
Q 46.4375 46.1875 49.015625 39.953125 
Q 51.609375 33.734375 51.609375 26.3125 
Q 51.609375 18.359375 48.75 11.984375 
Q 45.90625 5.609375 40.453125 2.21875 
Q 35.015625 -1.171875 29 -1.171875 
Q 24.609375 -1.171875 21.109375 0.6875 
Q 17.625 2.546875 15.375 5.375 
L 15.375 -19.875 
z
M 14.546875 25.640625 
Q 14.546875 15.625 18.59375 10.84375 
Q 22.65625 6.0625 28.421875 6.0625 
Q 34.28125 6.0625 38.453125 11.015625 
Q 42.625 15.96875 42.625 26.375 
Q 42.625 36.28125 38.546875 41.203125 
Q 34.46875 46.140625 28.8125 46.140625 
Q 23.1875 46.140625 18.859375 40.890625 
Q 14.546875 35.640625 14.546875 25.640625 
z
" id="ArialMT-70"/>
      <path d="M 8.015625 0 
L 8.015625 71.578125 
L 17.484375 71.578125 
L 17.484375 42.1875 
L 54.6875 42.1875 
L 54.6875 71.578125 
L 64.15625 71.578125 
L 64.15625 0 
L 54.6875 0 
L 54.6875 33.734375 
L 17.484375 33.734375 
L 17.484375 0 
z
" id="ArialMT-48"/>
     </defs>
     <g style="fill:#262626;" transform="translate(114.848594 203.263125)scale(0.1 -0.1)">
      <use xlink:href="#ArialMT-70"/>
      <use x="55.615234" xlink:href="#ArialMT-48"/>
     </g>
    </g>
   </g>
   <g id="matplotlib.axis_2">
    <g id="ytick_1">
     <g id="line2d_7">
      <defs>
       <path d="M 0 0 
L -3.5 0 
" id="madbdb3cdfc" style="stroke:#262626;stroke-width:0.8;"/>
      </defs>
      <g>
       <use style="fill:#262626;stroke:#262626;stroke-width:0.8;" x="38.96" xlink:href="#madbdb3cdfc" y="121.6508"/>
      </g>
     </g>
     <g id="text_8">
      <!-- 0 -->
      <g style="fill:#262626;" transform="translate(26.399063 125.229706)scale(0.1 -0.1)">
       <use xlink:href="#ArialMT-30"/>
      </g>
     </g>
    </g>
    <g id="ytick_2">
     <g id="line2d_8">
      <g>
       <use style="fill:#262626;stroke:#262626;stroke-width:0.8;" x="38.96" xlink:href="#madbdb3cdfc" y="62.90932"/>
      </g>
     </g>
     <g id="text_9">
      <!-- 1 -->
      <g style="fill:#262626;" transform="translate(26.399063 66.488226)scale(0.1 -0.1)">
       <use xlink:href="#ArialMT-31"/>
      </g>
     </g>
    </g>
    <g id="text_10">
     <!-- $\langle q_\mathsf{total} \rangle$ -->
     <defs>
      <path d="M 8.9375 31.34375 
L 22.703125 75.875 
L 31 75.875 
L 17.234375 31.34375 
L 31 -13.1875 
L 22.703125 -13.1875 
z
" id="DejaVuSans-27e8"/>
      <path d="M 41.703125 8.203125 
Q 38.09375 3.46875 33.171875 1.015625 
Q 28.265625 -1.421875 22.3125 -1.421875 
Q 14.015625 -1.421875 9.296875 4.171875 
Q 4.59375 9.765625 4.59375 19.578125 
Q 4.59375 27.484375 7.5 34.859375 
Q 10.40625 42.234375 15.828125 48.09375 
Q 19.34375 51.90625 23.90625 53.953125 
Q 28.46875 56 33.5 56 
Q 39.546875 56 43.453125 53.609375 
Q 47.359375 51.21875 49.125 46.390625 
L 50.6875 54.59375 
L 59.71875 54.59375 
L 45.125 -20.609375 
L 36.078125 -20.609375 
z
M 13.921875 20.90625 
Q 13.921875 13.671875 16.9375 9.890625 
Q 19.96875 6.109375 25.6875 6.109375 
Q 34.1875 6.109375 40.1875 14.234375 
Q 46.1875 22.359375 46.1875 33.984375 
Q 46.1875 41.015625 43.078125 44.75 
Q 39.984375 48.484375 34.1875 48.484375 
Q 29.9375 48.484375 26.3125 46.5 
Q 22.703125 44.53125 20.015625 40.71875 
Q 17.1875 36.71875 15.546875 31.34375 
Q 13.921875 25.984375 13.921875 20.90625 
z
" id="DejaVuSans-Oblique-71"/>
      <path d="M 18.3125 70.21875 
L 18.3125 54.6875 
L 36.8125 54.6875 
L 36.8125 47.703125 
L 18.3125 47.703125 
L 18.3125 18.015625 
Q 18.3125 11.328125 20.140625 9.421875 
Q 21.96875 7.515625 27.59375 7.515625 
L 36.8125 7.515625 
L 36.8125 0 
L 27.59375 0 
Q 17.1875 0 13.234375 3.875 
Q 9.28125 7.765625 9.28125 18.015625 
L 9.28125 47.703125 
L 2.6875 47.703125 
L 2.6875 54.6875 
L 9.28125 54.6875 
L 9.28125 70.21875 
z
" id="DejaVuSans-74"/>
      <path d="M 30.609375 48.390625 
Q 23.390625 48.390625 19.1875 42.75 
Q 14.984375 37.109375 14.984375 27.296875 
Q 14.984375 17.484375 19.15625 11.84375 
Q 23.34375 6.203125 30.609375 6.203125 
Q 37.796875 6.203125 41.984375 11.859375 
Q 46.1875 17.53125 46.1875 27.296875 
Q 46.1875 37.015625 41.984375 42.703125 
Q 37.796875 48.390625 30.609375 48.390625 
z
M 30.609375 56 
Q 42.328125 56 49.015625 48.375 
Q 55.71875 40.765625 55.71875 27.296875 
Q 55.71875 13.875 49.015625 6.21875 
Q 42.328125 -1.421875 30.609375 -1.421875 
Q 18.84375 -1.421875 12.171875 6.21875 
Q 5.515625 13.875 5.515625 27.296875 
Q 5.515625 40.765625 12.171875 48.375 
Q 18.84375 56 30.609375 56 
z
" id="DejaVuSans-6f"/>
      <path d="M 34.28125 27.484375 
Q 23.390625 27.484375 19.1875 25 
Q 14.984375 22.515625 14.984375 16.5 
Q 14.984375 11.71875 18.140625 8.90625 
Q 21.296875 6.109375 26.703125 6.109375 
Q 34.1875 6.109375 38.703125 11.40625 
Q 43.21875 16.703125 43.21875 25.484375 
L 43.21875 27.484375 
z
M 52.203125 31.203125 
L 52.203125 0 
L 43.21875 0 
L 43.21875 8.296875 
Q 40.140625 3.328125 35.546875 0.953125 
Q 30.953125 -1.421875 24.3125 -1.421875 
Q 15.921875 -1.421875 10.953125 3.296875 
Q 6 8.015625 6 15.921875 
Q 6 25.140625 12.171875 29.828125 
Q 18.359375 34.515625 30.609375 34.515625 
L 43.21875 34.515625 
L 43.21875 35.40625 
Q 43.21875 41.609375 39.140625 45 
Q 35.0625 48.390625 27.6875 48.390625 
Q 23 48.390625 18.546875 47.265625 
Q 14.109375 46.140625 10.015625 43.890625 
L 10.015625 52.203125 
Q 14.9375 54.109375 19.578125 55.046875 
Q 24.21875 56 28.609375 56 
Q 40.484375 56 46.34375 49.84375 
Q 52.203125 43.703125 52.203125 31.203125 
z
" id="DejaVuSans-61"/>
      <path d="M 9.421875 75.984375 
L 18.40625 75.984375 
L 18.40625 0 
L 9.421875 0 
z
" id="DejaVuSans-6c"/>
      <path d="M 30.078125 31.34375 
L 16.3125 -13.1875 
L 8.015625 -13.1875 
L 21.78125 31.34375 
L 8.015625 75.875 
L 16.3125 75.875 
z
" id="DejaVuSans-27e9"/>
     </defs>
     <g style="fill:#262626;" transform="translate(20.299063 115.95)rotate(-90)scale(0.1 -0.1)">
      <use transform="translate(0 0.125)" xlink:href="#DejaVuSans-27e8"/>
      <use transform="translate(39.013672 0.125)" xlink:href="#DejaVuSans-Oblique-71"/>
      <use transform="translate(102.490234 -16.28125)scale(0.7)" xlink:href="#DejaVuSans-74"/>
      <use transform="translate(129.936523 -16.28125)scale(0.7)" xlink:href="#DejaVuSans-6f"/>
      <use transform="translate(172.763672 -16.28125)scale(0.7)" xlink:href="#DejaVuSans-74"/>
      <use transform="translate(200.209961 -16.28125)scale(0.7)" xlink:href="#DejaVuSans-61"/>
      <use transform="translate(243.105469 -16.28125)scale(0.7)" xlink:href="#DejaVuSans-6c"/>
      <use transform="translate(265.288086 0.125)" xlink:href="#DejaVuSans-27e9"/>
     </g>
    </g>
   </g>
   <g id="PolyCollection_1">
    <defs>
     <path d="M 46.44 -182.740663 
L 46.44 -119.503878 
L 47.936 -118.112332 
L 49.432 -116.583216 
L 50.928 -114.899293 
L 52.424 -113.040846 
L 53.92 -110.986087 
L 55.416 -108.711985 
L 56.912 -106.195887 
L 58.408 -103.418237 
L 59.904 -100.366473 
L 61.4 -97.039689 
L 62.896 -93.453073 
L 64.392 -89.641042 
L 65.888 -85.658151 
L 67.384 -81.577093 
L 68.88 -77.483557 
L 70.376 -73.468489 
L 71.872 -69.619186 
L 73.368 -66.011087 
L 74.864 -62.701914 
L 76.36 -59.729008 
L 77.856 -57.109786 
L 79.352 -54.84454 
L 80.848 -52.920531 
L 82.344 -51.316385 
L 83.84 -50.006076 
L 85.336 -48.962086 
L 86.832 -48.157604 
L 88.328 -47.567876 
L 89.824 -47.170884 
L 91.32 -46.947582 
L 92.816 -46.881818 
L 94.312 -46.960088 
L 95.808 -47.171172 
L 97.304 -47.505728 
L 98.8 -47.955894 
L 100.296 -48.514904 
L 101.792 -49.176767 
L 103.288 -49.935979 
L 104.784 -50.787282 
L 106.28 -51.725448 
L 107.776 -52.745086 
L 109.272 -53.84047 
L 110.768 -55.00539 
L 112.264 -56.233047 
L 113.76 -57.515967 
L 115.256 -58.845968 
L 116.752 -60.214185 
L 118.248 -61.611155 
L 119.744 -63.027005 
L 121.24 -64.451707 
L 122.736 -65.875402 
L 124.232 -67.288708 
L 125.728 -68.682983 
L 127.224 -70.050551 
L 128.72 -71.384985 
L 130.216 -72.68145 
L 131.712 -73.936864 
L 133.208 -75.149525 
L 134.704 -76.318437 
L 136.2 -77.443035 
L 137.696 -78.523481 
L 139.192 -79.560575 
L 140.688 -80.554452 
L 142.184 -81.502668 
L 143.68 -82.399368 
L 145.176 -83.236981 
L 146.672 -84.010076 
L 148.168 -84.718566 
L 149.664 -85.367274 
L 151.16 -85.962405 
L 152.656 -86.5082 
L 154.152 -87.005961 
L 155.648 -87.455238 
L 157.144 -87.855746 
L 158.64 -88.208214 
L 160.136 -88.513315 
L 161.632 -88.770415 
L 163.128 -88.978882 
L 164.624 -89.141401 
L 166.12 -89.265242 
L 167.616 -89.359728 
L 169.112 -89.432687 
L 170.608 -89.488702 
L 172.104 -89.529163 
L 173.6 -89.552911 
L 175.096 -89.556673 
L 176.592 -89.535188 
L 178.088 -89.48113 
L 179.584 -89.385011 
L 181.08 -89.235225 
L 182.576 -89.018383 
L 184.072 -88.719979 
L 185.568 -88.32535 
L 187.064 -87.82068 
L 188.56 -87.193789 
L 190.056 -86.434479 
L 191.552 -85.534446 
L 193.048 -84.486867 
L 194.544 -83.285893 
L 196.04 -81.926204 
L 196.04 -104.810367 
L 196.04 -104.810367 
L 194.544 -103.8488 
L 193.048 -102.966027 
L 191.552 -102.172452 
L 190.056 -101.474974 
L 188.56 -100.877062 
L 187.064 -100.378692 
L 185.568 -99.976312 
L 184.072 -99.663062 
L 182.576 -99.429382 
L 181.08 -99.264002 
L 179.584 -99.155127 
L 178.088 -99.091525 
L 176.592 -99.063309 
L 175.096 -99.062361 
L 173.6 -99.082442 
L 172.104 -99.119156 
L 170.608 -99.169921 
L 169.112 -99.234122 
L 167.616 -99.313587 
L 166.12 -99.413244 
L 164.624 -99.541196 
L 163.128 -99.706984 
L 161.632 -99.918054 
L 160.136 -100.177228 
L 158.64 -100.483985 
L 157.144 -100.837777 
L 155.648 -101.239351 
L 154.152 -101.689491 
L 152.656 -102.187958 
L 151.16 -102.734338 
L 149.664 -103.329968 
L 148.168 -103.979112 
L 146.672 -104.687999 
L 145.176 -105.461475 
L 143.68 -106.299471 
L 142.184 -107.196578 
L 140.688 -108.145246 
L 139.192 -109.139644 
L 137.696 -110.177356 
L 136.2 -111.258549 
L 134.704 -112.384064 
L 133.208 -113.554112 
L 131.712 -114.768187 
L 130.216 -116.025369 
L 128.72 -117.324051 
L 127.224 -118.661268 
L 125.728 -120.032333 
L 124.232 -121.431005 
L 122.736 -122.849843 
L 121.24 -124.280499 
L 119.744 -125.713961 
L 118.248 -127.140834 
L 116.752 -128.551678 
L 115.256 -129.937354 
L 113.76 -131.289328 
L 112.264 -132.599896 
L 110.768 -133.862342 
L 109.272 -135.071029 
L 107.776 -136.221464 
L 106.28 -137.310335 
L 104.784 -138.335544 
L 103.288 -139.296243 
L 101.792 -140.192886 
L 100.296 -141.027305 
L 98.8 -141.802827 
L 97.304 -142.524425 
L 95.808 -143.198899 
L 94.312 -143.835096 
L 92.816 -144.444135 
L 91.32 -145.039666 
L 89.824 -145.638135 
L 88.328 -146.259025 
L 86.832 -146.925035 
L 85.336 -147.662077 
L 83.84 -148.498967 
L 82.344 -149.46666 
L 80.848 -150.59685 
L 79.352 -151.919817 
L 77.856 -153.461417 
L 76.36 -155.23925 
L 74.864 -157.258314 
L 73.368 -159.506801 
L 71.872 -161.953093 
L 70.376 -164.545088 
L 68.88 -167.212727 
L 67.384 -169.873851 
L 65.888 -172.442556 
L 64.392 -174.838425 
L 62.896 -176.994651 
L 61.4 -178.863462 
L 59.904 -180.418045 
L 58.408 -181.651298 
L 56.912 -182.572518 
L 55.416 -183.203328 
L 53.92 -183.573672 
L 52.424 -183.718182 
L 50.928 -183.673074 
L 49.432 -183.473729 
L 47.936 -183.153061 
L 46.44 -182.740663 
z
" id="m82bd76c934" style="stroke:#ffffff;stroke-opacity:0.05;"/>
    </defs>
    <g clip-path="url(#p4b83fe39c6)">
     <use style="fill:#001c7f;fill-opacity:0.05;stroke:#ffffff;stroke-opacity:0.05;" x="0" xlink:href="#m82bd76c934" y="216"/>
    </g>
   </g>
   <g id="line2d_9">
    <path clip-path="url(#p4b83fe39c6)" d="M 46.44 64.87773 
L 47.936 65.367303 
L 49.432 65.971527 
L 50.928 66.713817 
L 52.424 67.620486 
L 53.92 68.720121 
L 55.416 70.042344 
L 56.912 71.615797 
L 58.408 73.465233 
L 59.904 75.607741 
L 61.4 78.048425 
L 62.896 80.776138 
L 64.392 83.760267 
L 65.888 86.949647 
L 67.384 90.274528 
L 68.88 93.651858 
L 70.376 96.993211 
L 71.872 100.213861 
L 73.368 103.241056 
L 74.864 106.019886 
L 76.36 108.515871 
L 77.856 110.714399 
L 79.352 112.617821 
L 80.848 114.241309 
L 82.344 115.608478 
L 83.84 116.747478 
L 85.336 117.687919 
L 86.832 118.45868 
L 88.328 119.08655 
L 89.824 119.595491 
L 91.32 120.006376 
L 92.816 120.337023 
L 94.312 120.602408 
L 95.808 120.814964 
L 97.304 120.984923 
L 98.8 121.12064 
L 100.296 121.228896 
L 101.792 121.315174 
L 103.288 121.383889 
L 104.784 121.438587 
L 106.28 121.482108 
L 107.776 121.516725 
L 109.272 121.544251 
L 110.768 121.566134 
L 112.264 121.583528 
L 113.76 121.597353 
L 115.256 121.608339 
L 116.752 121.617069 
L 118.248 121.624005 
L 119.744 121.629517 
L 121.24 121.633897 
L 122.736 121.637377 
L 124.232 121.640143 
L 125.728 121.642342 
L 127.224 121.644091 
L 128.72 121.645482 
L 130.216 121.64659 
L 131.712 121.647475 
L 133.208 121.648182 
L 134.704 121.648749 
L 136.2 121.649208 
L 137.696 121.649582 
L 139.192 121.649891 
L 140.688 121.650151 
L 142.184 121.650377 
L 143.68 121.65058 
L 145.176 121.650772 
L 146.672 121.650962 
L 148.168 121.651161 
L 149.664 121.651379 
L 151.16 121.651628 
L 152.656 121.651921 
L 154.152 121.652274 
L 155.648 121.652705 
L 157.144 121.653238 
L 158.64 121.653901 
L 160.136 121.654729 
L 161.632 121.655765 
L 163.128 121.657067 
L 164.624 121.658702 
L 166.12 121.660757 
L 167.616 121.663342 
L 169.112 121.666595 
L 170.608 121.670689 
L 172.104 121.67584 
L 173.6 121.682324 
L 175.096 121.690483 
L 176.592 121.700751 
L 178.088 121.713672 
L 179.584 121.729931 
L 181.08 121.750386 
L 182.576 121.776118 
L 184.072 121.808479 
L 185.568 121.849169 
L 187.064 121.900314 
L 188.56 121.964575 
L 190.056 122.045274 
L 191.552 122.146551 
L 193.048 122.273553 
L 194.544 122.432654 
L 196.04 122.631715 
" style="fill:none;opacity:0.9;stroke:#001c7f;stroke-linecap:round;stroke-width:1.5;"/>
   </g>
   <g id="line2d_10">
    <path clip-path="url(#p4b83fe39c6)" d="M 46.44 62.914929 
L 47.936 62.916382 
L 49.432 62.91821 
L 50.928 62.920511 
L 52.424 62.923408 
L 53.92 62.927055 
L 55.416 62.931645 
L 56.912 62.937422 
L 58.408 62.944694 
L 59.904 62.953846 
L 61.4 62.965364 
L 62.896 62.979858 
L 64.392 62.998095 
L 65.888 63.021037 
L 67.384 63.049894 
L 68.88 63.086183 
L 70.376 63.131803 
L 71.872 63.189135 
L 73.368 63.261153 
L 74.864 63.351565 
L 76.36 63.46499 
L 77.856 63.607158 
L 79.352 63.785152 
L 80.848 64.007687 
L 82.344 64.28542 
L 83.84 64.631282 
L 85.336 65.060812 
L 86.832 65.592442 
L 88.328 66.247688 
L 89.824 67.051129 
L 91.32 68.030061 
L 92.816 69.213652 
L 94.312 70.631416 
L 95.808 72.310853 
L 97.304 74.27418 
L 98.8 76.534289 
L 100.296 79.090351 
L 101.792 81.923839 
L 103.288 84.996013 
L 104.784 88.247963 
L 106.28 91.603893 
L 107.776 94.977582 
L 109.272 98.280978 
L 110.768 101.433187 
L 112.264 104.367962 
L 113.76 107.038316 
L 115.256 109.417818 
L 116.752 111.498981 
L 118.248 113.289733 
L 119.744 114.809079 
L 121.24 116.082848 
L 122.736 117.140082 
L 124.232 118.010313 
L 125.728 118.721723 
L 127.224 119.300043 
L 128.72 119.768031 
L 130.216 120.145339 
L 131.712 120.448633 
L 133.208 120.691849 
L 134.704 120.886512 
L 136.2 121.042075 
L 137.696 121.16624 
L 139.192 121.265246 
L 140.688 121.34413 
L 142.184 121.406941 
L 143.68 121.456931 
L 145.176 121.496699 
L 146.672 121.528327 
L 148.168 121.553475 
L 149.664 121.573465 
L 151.16 121.589354 
L 152.656 121.601981 
L 154.152 121.612015 
L 155.648 121.619988 
L 157.144 121.626323 
L 158.64 121.631355 
L 160.136 121.635353 
L 161.632 121.63853 
L 163.128 121.641053 
L 164.624 121.643057 
L 166.12 121.64465 
L 167.616 121.645914 
L 169.112 121.646919 
L 170.608 121.647717 
L 172.104 121.648351 
L 173.6 121.648855 
L 175.096 121.649255 
L 176.592 121.649573 
L 178.088 121.649825 
L 179.584 121.650026 
L 181.08 121.650185 
L 182.576 121.650311 
L 184.072 121.650412 
L 185.568 121.650492 
L 187.064 121.650555 
L 188.56 121.650605 
L 190.056 121.650645 
L 191.552 121.650677 
L 193.048 121.650702 
L 194.544 121.650722 
L 196.04 121.650738 
" style="fill:none;opacity:0.7;stroke:#000000;stroke-linecap:round;stroke-width:1.5;"/>
   </g>
   <g id="line2d_11">
    <path clip-path="url(#p4b83fe39c6)" d="M 46.44 33.259337 
L 47.936 32.846939 
L 49.432 32.526271 
L 50.928 32.326926 
L 52.424 32.281818 
L 53.92 32.426328 
L 55.416 32.796672 
L 56.912 33.427482 
L 58.408 34.348702 
L 59.904 35.581955 
L 61.4 37.136538 
L 62.896 39.005349 
L 64.392 41.161575 
L 65.888 43.557444 
L 67.384 46.126149 
L 68.88 48.787273 
L 70.376 51.454912 
L 71.872 54.046907 
L 73.368 56.493199 
L 74.864 58.741686 
L 76.36 60.76075 
L 77.856 62.538583 
L 79.352 64.080183 
L 80.848 65.40315 
L 82.344 66.53334 
L 83.84 67.501033 
L 85.336 68.337923 
L 86.832 69.074965 
L 88.328 69.740975 
L 89.824 70.361865 
L 91.32 70.960334 
L 92.816 71.555865 
L 94.312 72.164904 
L 95.808 72.801101 
L 97.304 73.475575 
L 98.8 74.197173 
L 100.296 74.972695 
L 101.792 75.807114 
L 103.288 76.703757 
L 104.784 77.664456 
L 106.28 78.689665 
L 107.776 79.778536 
L 109.272 80.928971 
L 110.768 82.137658 
L 112.264 83.400104 
L 113.76 84.710672 
L 115.256 86.062646 
L 116.752 87.448322 
L 118.248 88.859166 
L 119.744 90.286039 
L 121.24 91.719501 
L 122.736 93.150157 
L 124.232 94.568995 
L 125.728 95.967667 
L 127.224 97.338732 
L 128.72 98.675949 
L 130.216 99.974631 
L 131.712 101.231813 
L 133.208 102.445888 
L 134.704 103.615936 
L 136.2 104.741451 
L 137.696 105.822644 
L 139.192 106.860356 
L 140.688 107.854754 
L 142.184 108.803422 
L 143.68 109.700529 
L 145.176 110.538525 
L 146.672 111.312001 
L 148.168 112.020888 
L 149.664 112.670032 
L 151.16 113.265662 
L 152.656 113.812042 
L 154.152 114.310509 
L 155.648 114.760649 
L 157.144 115.162223 
L 158.64 115.516015 
L 160.136 115.822772 
L 161.632 116.081946 
L 163.128 116.293016 
L 164.624 116.458804 
L 166.12 116.586756 
L 167.616 116.686413 
L 169.112 116.765878 
L 170.608 116.830079 
L 172.104 116.880844 
L 173.6 116.917558 
L 175.096 116.937639 
L 176.592 116.936691 
L 178.088 116.908475 
L 179.584 116.844873 
L 181.08 116.735998 
L 182.576 116.570618 
L 184.072 116.336938 
L 185.568 116.023688 
L 187.064 115.621308 
L 188.56 115.122938 
L 190.056 114.525026 
L 191.552 113.827548 
L 193.048 113.033973 
L 194.544 112.1512 
L 196.04 111.189633 
" style="fill:none;opacity:0.45;stroke:#001c7f;stroke-dasharray:2.775,1.2;stroke-dashoffset:0;stroke-width:0.75;"/>
   </g>
   <g id="line2d_12">
    <path clip-path="url(#p4b83fe39c6)" d="M 46.44 96.496122 
L 47.936 97.887668 
L 49.432 99.416784 
L 50.928 101.100707 
L 52.424 102.959154 
L 53.92 105.013913 
L 55.416 107.288015 
L 56.912 109.804113 
L 58.408 112.581763 
L 59.904 115.633527 
L 61.4 118.960311 
L 62.896 122.546927 
L 64.392 126.358958 
L 65.888 130.341849 
L 67.384 134.422907 
L 68.88 138.516443 
L 70.376 142.531511 
L 71.872 146.380814 
L 73.368 149.988913 
L 74.864 153.298086 
L 76.36 156.270992 
L 77.856 158.890214 
L 79.352 161.15546 
L 80.848 163.079469 
L 82.344 164.683615 
L 83.84 165.993924 
L 85.336 167.037914 
L 86.832 167.842396 
L 88.328 168.432124 
L 89.824 168.829116 
L 91.32 169.052418 
L 92.816 169.118182 
L 94.312 169.039912 
L 95.808 168.828828 
L 97.304 168.494272 
L 98.8 168.044106 
L 100.296 167.485096 
L 101.792 166.823233 
L 103.288 166.064021 
L 104.784 165.212718 
L 106.28 164.274552 
L 107.776 163.254914 
L 109.272 162.15953 
L 110.768 160.99461 
L 112.264 159.766953 
L 113.76 158.484033 
L 115.256 157.154032 
L 116.752 155.785815 
L 118.248 154.388845 
L 119.744 152.972995 
L 121.24 151.548293 
L 122.736 150.124598 
L 124.232 148.711292 
L 125.728 147.317017 
L 127.224 145.949449 
L 128.72 144.615015 
L 130.216 143.31855 
L 131.712 142.063136 
L 133.208 140.850475 
L 134.704 139.681563 
L 136.2 138.556965 
L 137.696 137.476519 
L 139.192 136.439425 
L 140.688 135.445548 
L 142.184 134.497332 
L 143.68 133.600632 
L 145.176 132.763019 
L 146.672 131.989924 
L 148.168 131.281434 
L 149.664 130.632726 
L 151.16 130.037595 
L 152.656 129.4918 
L 154.152 128.994039 
L 155.648 128.544762 
L 157.144 128.144254 
L 158.64 127.791786 
L 160.136 127.486685 
L 161.632 127.229585 
L 163.128 127.021118 
L 164.624 126.858599 
L 166.12 126.734758 
L 167.616 126.640272 
L 169.112 126.567313 
L 170.608 126.511298 
L 172.104 126.470837 
L 173.6 126.447089 
L 175.096 126.443327 
L 176.592 126.464812 
L 178.088 126.51887 
L 179.584 126.614989 
L 181.08 126.764775 
L 182.576 126.981617 
L 184.072 127.280021 
L 185.568 127.67465 
L 187.064 128.17932 
L 188.56 128.806211 
L 190.056 129.565521 
L 191.552 130.465554 
L 193.048 131.513133 
L 194.544 132.714107 
L 196.04 134.073796 
" style="fill:none;opacity:0.45;stroke:#001c7f;stroke-dasharray:2.775,1.2;stroke-dashoffset:0;stroke-width:0.75;"/>
   </g>
   <g id="patch_3">
    <path d="M 38.96 175.96 
L 38.96 25.44 
" style="fill:none;stroke:#262626;stroke-linecap:square;stroke-linejoin:miter;stroke-width:0.8;"/>
   </g>
   <g id="patch_4">
    <path d="M 38.96 175.96 
L 203.52 175.96 
" style="fill:none;stroke:#262626;stroke-linecap:square;stroke-linejoin:miter;stroke-width:0.8;"/>
   </g>
   <g id="text_11">
    <!-- Epik-micro SM04 -->
    <defs>
     <path d="M 7.90625 0 
L 7.90625 71.578125 
L 59.671875 71.578125 
L 59.671875 63.140625 
L 17.390625 63.140625 
L 17.390625 41.21875 
L 56.984375 41.21875 
L 56.984375 32.8125 
L 17.390625 32.8125 
L 17.390625 8.453125 
L 61.328125 8.453125 
L 61.328125 0 
z
" id="ArialMT-45"/>
     <path d="M 6.640625 61.46875 
L 6.640625 71.578125 
L 15.4375 71.578125 
L 15.4375 61.46875 
z
M 6.640625 0 
L 6.640625 51.859375 
L 15.4375 51.859375 
L 15.4375 0 
z
" id="ArialMT-69"/>
     <path d="M 6.640625 0 
L 6.640625 71.578125 
L 15.4375 71.578125 
L 15.4375 30.765625 
L 36.234375 51.859375 
L 47.609375 51.859375 
L 27.78125 32.625 
L 49.609375 0 
L 38.765625 0 
L 21.625 26.515625 
L 15.4375 20.5625 
L 15.4375 0 
z
" id="ArialMT-6b"/>
     <path d="M 3.171875 21.484375 
L 3.171875 30.328125 
L 30.171875 30.328125 
L 30.171875 21.484375 
z
" id="ArialMT-2d"/>
     <path d="M 6.59375 0 
L 6.59375 51.859375 
L 14.453125 51.859375 
L 14.453125 44.578125 
Q 16.890625 48.390625 20.9375 50.703125 
Q 25 53.03125 30.171875 53.03125 
Q 35.9375 53.03125 39.625 50.640625 
Q 43.3125 48.25 44.828125 43.953125 
Q 50.984375 53.03125 60.84375 53.03125 
Q 68.5625 53.03125 72.703125 48.75 
Q 76.859375 44.484375 76.859375 35.59375 
L 76.859375 0 
L 68.109375 0 
L 68.109375 32.671875 
Q 68.109375 37.9375 67.25 40.25 
Q 66.40625 42.578125 64.15625 43.984375 
Q 61.921875 45.40625 58.890625 45.40625 
Q 53.421875 45.40625 49.796875 41.765625 
Q 46.1875 38.140625 46.1875 30.125 
L 46.1875 0 
L 37.40625 0 
L 37.40625 33.6875 
Q 37.40625 39.546875 35.25 42.46875 
Q 33.109375 45.40625 28.21875 45.40625 
Q 24.515625 45.40625 21.359375 43.453125 
Q 18.21875 41.5 16.796875 37.734375 
Q 15.375 33.984375 15.375 26.90625 
L 15.375 0 
z
" id="ArialMT-6d"/>
     <path d="M 40.4375 19 
L 49.078125 17.875 
Q 47.65625 8.9375 41.8125 3.875 
Q 35.984375 -1.171875 27.484375 -1.171875 
Q 16.84375 -1.171875 10.375 5.78125 
Q 3.90625 12.75 3.90625 25.734375 
Q 3.90625 34.125 6.6875 40.421875 
Q 9.46875 46.734375 15.15625 49.875 
Q 20.84375 53.03125 27.546875 53.03125 
Q 35.984375 53.03125 41.359375 48.75 
Q 46.734375 44.484375 48.25 36.625 
L 39.703125 35.296875 
Q 38.484375 40.53125 35.375 43.15625 
Q 32.28125 45.796875 27.875 45.796875 
Q 21.234375 45.796875 17.078125 41.03125 
Q 12.9375 36.28125 12.9375 25.984375 
Q 12.9375 15.53125 16.9375 10.796875 
Q 20.953125 6.0625 27.390625 6.0625 
Q 32.5625 6.0625 36.03125 9.234375 
Q 39.5 12.40625 40.4375 19 
z
" id="ArialMT-63"/>
     <path d="M 6.5 0 
L 6.5 51.859375 
L 14.40625 51.859375 
L 14.40625 44 
Q 17.4375 49.515625 20 51.265625 
Q 22.5625 53.03125 25.640625 53.03125 
Q 30.078125 53.03125 34.671875 50.203125 
L 31.640625 42.046875 
Q 28.421875 43.953125 25.203125 43.953125 
Q 22.3125 43.953125 20.015625 42.21875 
Q 17.71875 40.484375 16.75 37.40625 
Q 15.28125 32.71875 15.28125 27.15625 
L 15.28125 0 
z
" id="ArialMT-72"/>
     <path d="M 3.328125 25.921875 
Q 3.328125 40.328125 11.328125 47.265625 
Q 18.015625 53.03125 27.640625 53.03125 
Q 38.328125 53.03125 45.109375 46.015625 
Q 51.90625 39.015625 51.90625 26.65625 
Q 51.90625 16.65625 48.90625 10.90625 
Q 45.90625 5.171875 40.15625 2 
Q 34.421875 -1.171875 27.640625 -1.171875 
Q 16.75 -1.171875 10.03125 5.8125 
Q 3.328125 12.796875 3.328125 25.921875 
z
M 12.359375 25.921875 
Q 12.359375 15.96875 16.703125 11.015625 
Q 21.046875 6.0625 27.640625 6.0625 
Q 34.1875 6.0625 38.53125 11.03125 
Q 42.875 16.015625 42.875 26.21875 
Q 42.875 35.84375 38.5 40.796875 
Q 34.125 45.75 27.640625 45.75 
Q 21.046875 45.75 16.703125 40.8125 
Q 12.359375 35.890625 12.359375 25.921875 
z
" id="ArialMT-6f"/>
     <path id="ArialMT-20"/>
     <path d="M 4.5 23 
L 13.421875 23.78125 
Q 14.0625 18.40625 16.375 14.96875 
Q 18.703125 11.53125 23.578125 9.40625 
Q 28.46875 7.28125 34.578125 7.28125 
Q 39.984375 7.28125 44.140625 8.890625 
Q 48.296875 10.5 50.3125 13.296875 
Q 52.34375 16.109375 52.34375 19.4375 
Q 52.34375 22.796875 50.390625 25.3125 
Q 48.4375 27.828125 43.953125 29.546875 
Q 41.0625 30.671875 31.203125 33.03125 
Q 21.34375 35.40625 17.390625 37.5 
Q 12.25 40.1875 9.734375 44.15625 
Q 7.234375 48.140625 7.234375 53.078125 
Q 7.234375 58.5 10.296875 63.203125 
Q 13.375 67.921875 19.28125 70.359375 
Q 25.203125 72.796875 32.421875 72.796875 
Q 40.375 72.796875 46.453125 70.234375 
Q 52.546875 67.671875 55.8125 62.6875 
Q 59.078125 57.71875 59.328125 51.421875 
L 50.25 50.734375 
Q 49.515625 57.515625 45.28125 60.984375 
Q 41.0625 64.453125 32.8125 64.453125 
Q 24.21875 64.453125 20.28125 61.296875 
Q 16.359375 58.15625 16.359375 53.71875 
Q 16.359375 49.859375 19.140625 47.359375 
Q 21.875 44.875 33.421875 42.265625 
Q 44.96875 39.65625 49.265625 37.703125 
Q 55.515625 34.8125 58.484375 30.390625 
Q 61.46875 25.984375 61.46875 20.21875 
Q 61.46875 14.5 58.203125 9.4375 
Q 54.9375 4.390625 48.796875 1.578125 
Q 42.671875 -1.21875 35.015625 -1.21875 
Q 25.296875 -1.21875 18.71875 1.609375 
Q 12.15625 4.4375 8.421875 10.125 
Q 4.6875 15.828125 4.5 23 
z
" id="ArialMT-53"/>
     <path d="M 7.421875 0 
L 7.421875 71.578125 
L 21.6875 71.578125 
L 38.625 20.90625 
Q 40.96875 13.8125 42.046875 10.296875 
Q 43.265625 14.203125 45.84375 21.78125 
L 62.984375 71.578125 
L 75.734375 71.578125 
L 75.734375 0 
L 66.609375 0 
L 66.609375 59.90625 
L 45.796875 0 
L 37.25 0 
L 16.546875 60.9375 
L 16.546875 0 
z
" id="ArialMT-4d"/>
    </defs>
    <g style="fill:#262626;" transform="translate(75.565 19.44)scale(0.12 -0.12)">
     <use xlink:href="#ArialMT-45"/>
     <use x="66.699219" xlink:href="#ArialMT-70"/>
     <use x="122.314453" xlink:href="#ArialMT-69"/>
     <use x="144.53125" xlink:href="#ArialMT-6b"/>
     <use x="194.53125" xlink:href="#ArialMT-2d"/>
     <use x="227.832031" xlink:href="#ArialMT-6d"/>
     <use x="311.132812" xlink:href="#ArialMT-69"/>
     <use x="333.349609" xlink:href="#ArialMT-63"/>
     <use x="383.349609" xlink:href="#ArialMT-72"/>
     <use x="416.650391" xlink:href="#ArialMT-6f"/>
     <use x="472.265625" xlink:href="#ArialMT-20"/>
     <use x="500.048828" xlink:href="#ArialMT-53"/>
     <use x="566.748047" xlink:href="#ArialMT-4d"/>
     <use x="650.048828" xlink:href="#ArialMT-30"/>
     <use x="705.664062" xlink:href="#ArialMT-34"/>
    </g>
   </g>
  </g>
 </g>
 <defs>
  <clipPath id="p4b83fe39c6">
   <rect height="150.52" width="164.56" x="38.96" y="25.44"/>
  </clipPath>
 </defs>
</svg>
