<?xml version="1.0" encoding="utf-8" standalone="no"?>
<!DOCTYPE svg PUBLIC "-//W3C//DTD SVG 1.1//EN"
  "http://www.w3.org/Graphics/SVG/1.1/DTD/svg11.dtd">
<!-- Created with matplotlib (http://matplotlib.org/) -->
<svg height="144pt" version="1.1" viewBox="0 0 144 144" width="144pt" xmlns="http://www.w3.org/2000/svg" xmlns:xlink="http://www.w3.org/1999/xlink">
 <defs>
  <style type="text/css">
*{stroke-linecap:butt;stroke-linejoin:round;}
  </style>
 </defs>
 <g id="figure_1">
  <g id="patch_1">
   <path d="M 0 144 
L 144 144 
L 144 0 
L 0 0 
z
" style="fill:#ffffff;"/>
  </g>
  <g id="axes_1">
   <g id="patch_2">
    <path d="M 47.54 101.92 
L 130.44 101.92 
L 130.44 13.56 
L 47.54 13.56 
z
" style="fill:#ffffff;"/>
   </g>
   <g id="matplotlib.axis_1">
    <g id="xtick_1">
     <g id="line2d_1">
      <defs>
       <path d="M 0 0 
L 0 3.5 
" id="md3ddda6d9b" style="stroke:#262626;stroke-width:0.8;"/>
      </defs>
      <g>
       <use style="fill:#262626;stroke:#262626;stroke-width:0.8;" x="51.308182" xlink:href="#md3ddda6d9b" y="101.92"/>
      </g>
     </g>
     <g id="text_1">
      <!-- 2 -->
      <defs>
       <path d="M 50.34375 8.453125 
L 50.34375 0 
L 3.03125 0 
Q 2.9375 3.171875 4.046875 6.109375 
Q 5.859375 10.9375 9.828125 15.625 
Q 13.8125 20.3125 21.34375 26.46875 
Q 33.015625 36.03125 37.109375 41.625 
Q 41.21875 47.21875 41.21875 52.203125 
Q 41.21875 57.421875 37.46875 61 
Q 33.734375 64.59375 27.734375 64.59375 
Q 21.390625 64.59375 17.578125 60.78125 
Q 13.765625 56.984375 13.71875 50.25 
L 4.6875 51.171875 
Q 5.609375 61.28125 11.65625 66.578125 
Q 17.71875 71.875 27.9375 71.875 
Q 38.234375 71.875 44.234375 66.15625 
Q 50.25 60.453125 50.25 52 
Q 50.25 47.703125 48.484375 43.546875 
Q 46.734375 39.40625 42.65625 34.8125 
Q 38.578125 30.21875 29.109375 22.21875 
Q 21.1875 15.578125 18.9375 13.203125 
Q 16.703125 10.84375 15.234375 8.453125 
z
" id="ArialMT-32"/>
      </defs>
      <g style="fill:#262626;" transform="translate(48.249666 116.793594)scale(0.11 -0.11)">
       <use xlink:href="#ArialMT-32"/>
      </g>
     </g>
    </g>
    <g id="xtick_2">
     <g id="line2d_2">
      <g>
       <use style="fill:#262626;stroke:#262626;stroke-width:0.8;" x="66.380909" xlink:href="#md3ddda6d9b" y="101.92"/>
      </g>
     </g>
     <g id="text_2">
      <!-- 4 -->
      <defs>
       <path d="M 32.328125 0 
L 32.328125 17.140625 
L 1.265625 17.140625 
L 1.265625 25.203125 
L 33.9375 71.578125 
L 41.109375 71.578125 
L 41.109375 25.203125 
L 50.78125 25.203125 
L 50.78125 17.140625 
L 41.109375 17.140625 
L 41.109375 0 
z
M 32.328125 25.203125 
L 32.328125 57.46875 
L 9.90625 25.203125 
z
" id="ArialMT-34"/>
      </defs>
      <g style="fill:#262626;" transform="translate(63.322393 116.793594)scale(0.11 -0.11)">
       <use xlink:href="#ArialMT-34"/>
      </g>
     </g>
    </g>
    <g id="xtick_3">
     <g id="line2d_3">
      <g>
       <use style="fill:#262626;stroke:#262626;stroke-width:0.8;" x="81.453636" xlink:href="#md3ddda6d9b" y="101.92"/>
      </g>
     </g>
     <g id="text_3">
      <!-- 6 -->
      <defs>
       <path d="M 49.75 54.046875 
L 41.015625 53.375 
Q 39.84375 58.546875 37.703125 60.890625 
Q 34.125 64.65625 28.90625 64.65625 
Q 24.703125 64.65625 21.53125 62.3125 
Q 17.390625 59.28125 14.984375 53.46875 
Q 12.59375 47.65625 12.5 36.921875 
Q 15.671875 41.75 20.265625 44.09375 
Q 24.859375 46.4375 29.890625 46.4375 
Q 38.671875 46.4375 44.84375 39.96875 
Q 51.03125 33.5 51.03125 23.25 
Q 51.03125 16.5 48.125 10.71875 
Q 45.21875 4.9375 40.140625 1.859375 
Q 35.0625 -1.21875 28.609375 -1.21875 
Q 17.625 -1.21875 10.6875 6.859375 
Q 3.765625 14.9375 3.765625 33.5 
Q 3.765625 54.25 11.421875 63.671875 
Q 18.109375 71.875 29.4375 71.875 
Q 37.890625 71.875 43.28125 67.140625 
Q 48.6875 62.40625 49.75 54.046875 
z
M 13.875 23.1875 
Q 13.875 18.65625 15.796875 14.5 
Q 17.71875 10.359375 21.1875 8.171875 
Q 24.65625 6 28.46875 6 
Q 34.03125 6 38.03125 10.484375 
Q 42.046875 14.984375 42.046875 22.703125 
Q 42.046875 30.125 38.078125 34.390625 
Q 34.125 38.671875 28.125 38.671875 
Q 22.171875 38.671875 18.015625 34.390625 
Q 13.875 30.125 13.875 23.1875 
z
" id="ArialMT-36"/>
      </defs>
      <g style="fill:#262626;" transform="translate(78.395121 116.793594)scale(0.11 -0.11)">
       <use xlink:href="#ArialMT-36"/>
      </g>
     </g>
    </g>
    <g id="xtick_4">
     <g id="line2d_4">
      <g>
       <use style="fill:#262626;stroke:#262626;stroke-width:0.8;" x="96.526364" xlink:href="#md3ddda6d9b" y="101.92"/>
      </g>
     </g>
     <g id="text_4">
      <!-- 8 -->
      <defs>
       <path d="M 17.671875 38.8125 
Q 12.203125 40.828125 9.5625 44.53125 
Q 6.9375 48.25 6.9375 53.421875 
Q 6.9375 61.234375 12.546875 66.546875 
Q 18.171875 71.875 27.484375 71.875 
Q 36.859375 71.875 42.578125 66.421875 
Q 48.296875 60.984375 48.296875 53.171875 
Q 48.296875 48.1875 45.671875 44.5 
Q 43.0625 40.828125 37.75 38.8125 
Q 44.34375 36.671875 47.78125 31.875 
Q 51.21875 27.09375 51.21875 20.453125 
Q 51.21875 11.28125 44.71875 5.03125 
Q 38.234375 -1.21875 27.640625 -1.21875 
Q 17.046875 -1.21875 10.546875 5.046875 
Q 4.046875 11.328125 4.046875 20.703125 
Q 4.046875 27.6875 7.59375 32.390625 
Q 11.140625 37.109375 17.671875 38.8125 
z
M 15.921875 53.71875 
Q 15.921875 48.640625 19.1875 45.40625 
Q 22.46875 42.1875 27.6875 42.1875 
Q 32.765625 42.1875 36.015625 45.375 
Q 39.265625 48.578125 39.265625 53.21875 
Q 39.265625 58.0625 35.90625 61.359375 
Q 32.5625 64.65625 27.59375 64.65625 
Q 22.5625 64.65625 19.234375 61.421875 
Q 15.921875 58.203125 15.921875 53.71875 
z
M 13.09375 20.65625 
Q 13.09375 16.890625 14.875 13.375 
Q 16.65625 9.859375 20.171875 7.921875 
Q 23.6875 6 27.734375 6 
Q 34.03125 6 38.125 10.046875 
Q 42.234375 14.109375 42.234375 20.359375 
Q 42.234375 26.703125 38.015625 30.859375 
Q 33.796875 35.015625 27.4375 35.015625 
Q 21.234375 35.015625 17.15625 30.90625 
Q 13.09375 26.8125 13.09375 20.65625 
z
" id="ArialMT-38"/>
      </defs>
      <g style="fill:#262626;" transform="translate(93.467848 116.793594)scale(0.11 -0.11)">
       <use xlink:href="#ArialMT-38"/>
      </g>
     </g>
    </g>
    <g id="xtick_5">
     <g id="line2d_5">
      <g>
       <use style="fill:#262626;stroke:#262626;stroke-width:0.8;" x="111.599091" xlink:href="#md3ddda6d9b" y="101.92"/>
      </g>
     </g>
     <g id="text_5">
      <!-- 10 -->
      <defs>
       <path d="M 37.25 0 
L 28.46875 0 
L 28.46875 56 
Q 25.296875 52.984375 20.140625 49.953125 
Q 14.984375 46.921875 10.890625 45.40625 
L 10.890625 53.90625 
Q 18.265625 57.375 23.78125 62.296875 
Q 29.296875 67.234375 31.59375 71.875 
L 37.25 71.875 
z
" id="ArialMT-31"/>
       <path d="M 4.15625 35.296875 
Q 4.15625 48 6.765625 55.734375 
Q 9.375 63.484375 14.515625 67.671875 
Q 19.671875 71.875 27.484375 71.875 
Q 33.25 71.875 37.59375 69.546875 
Q 41.9375 67.234375 44.765625 62.859375 
Q 47.609375 58.5 49.21875 52.21875 
Q 50.828125 45.953125 50.828125 35.296875 
Q 50.828125 22.703125 48.234375 14.96875 
Q 45.65625 7.234375 40.5 3 
Q 35.359375 -1.21875 27.484375 -1.21875 
Q 17.140625 -1.21875 11.234375 6.203125 
Q 4.15625 15.140625 4.15625 35.296875 
z
M 13.1875 35.296875 
Q 13.1875 17.671875 17.3125 11.828125 
Q 21.4375 6 27.484375 6 
Q 33.546875 6 37.671875 11.859375 
Q 41.796875 17.71875 41.796875 35.296875 
Q 41.796875 52.984375 37.671875 58.78125 
Q 33.546875 64.59375 27.390625 64.59375 
Q 21.34375 64.59375 17.71875 59.46875 
Q 13.1875 52.9375 13.1875 35.296875 
z
" id="ArialMT-30"/>
      </defs>
      <g style="fill:#262626;" transform="translate(105.48206 116.793594)scale(0.11 -0.11)">
       <use xlink:href="#ArialMT-31"/>
       <use x="55.615234" xlink:href="#ArialMT-30"/>
      </g>
     </g>
    </g>
    <g id="xtick_6">
     <g id="line2d_6">
      <g>
       <use style="fill:#262626;stroke:#262626;stroke-width:0.8;" x="126.671818" xlink:href="#md3ddda6d9b" y="101.92"/>
      </g>
     </g>
     <g id="text_6">
      <!-- 12 -->
      <g style="fill:#262626;" transform="translate(120.554787 116.793594)scale(0.11 -0.11)">
       <use xlink:href="#ArialMT-31"/>
       <use x="55.615234" xlink:href="#ArialMT-32"/>
      </g>
     </g>
    </g>
    <g id="text_7">
     <!-- pH -->
     <defs>
      <path d="M 6.59375 -19.875 
L 6.59375 51.859375 
L 14.59375 51.859375 
L 14.59375 45.125 
Q 17.4375 49.078125 21 51.046875 
Q 24.5625 53.03125 29.640625 53.03125 
Q 36.28125 53.03125 41.359375 49.609375 
Q 46.4375 46.1875 49.015625 39.953125 
Q 51.609375 33.734375 51.609375 26.3125 
Q 51.609375 18.359375 48.75 11.984375 
Q 45.90625 5.609375 40.453125 2.21875 
Q 35.015625 -1.171875 29 -1.171875 
Q 24.609375 -1.171875 21.109375 0.6875 
Q 17.625 2.546875 15.375 5.375 
L 15.375 -19.875 
z
M 14.546875 25.640625 
Q 14.546875 15.625 18.59375 10.84375 
Q 22.65625 6.0625 28.421875 6.0625 
Q 34.28125 6.0625 38.453125 11.015625 
Q 42.625 15.96875 42.625 26.375 
Q 42.625 36.28125 38.546875 41.203125 
Q 34.46875 46.140625 28.8125 46.140625 
Q 23.1875 46.140625 18.859375 40.890625 
Q 14.546875 35.640625 14.546875 25.640625 
z
" id="ArialMT-70"/>
      <path d="M 8.015625 0 
L 8.015625 71.578125 
L 17.484375 71.578125 
L 17.484375 42.1875 
L 54.6875 42.1875 
L 54.6875 71.578125 
L 64.15625 71.578125 
L 64.15625 0 
L 54.6875 0 
L 54.6875 33.734375 
L 17.484375 33.734375 
L 17.484375 0 
z
" id="ArialMT-48"/>
     </defs>
     <g style="fill:#262626;" transform="translate(81.959453 130.853437)scale(0.11 -0.11)">
      <use xlink:href="#ArialMT-70"/>
      <use x="55.615234" xlink:href="#ArialMT-48"/>
     </g>
    </g>
   </g>
   <g id="matplotlib.axis_2">
    <g id="ytick_1">
     <g id="line2d_7">
      <defs>
       <path d="M 0 0 
L -3.5 0 
" id="me18419b279" style="stroke:#262626;stroke-width:0.8;"/>
      </defs>
      <g>
       <use style="fill:#262626;stroke:#262626;stroke-width:0.8;" x="47.54" xlink:href="#me18419b279" y="71.58041"/>
      </g>
     </g>
     <g id="text_8">
      <!-- 0 -->
      <g style="fill:#262626;" transform="translate(34.422969 75.517207)scale(0.11 -0.11)">
       <use xlink:href="#ArialMT-30"/>
      </g>
     </g>
    </g>
    <g id="ytick_2">
     <g id="line2d_8">
      <g>
       <use style="fill:#262626;stroke:#262626;stroke-width:0.8;" x="47.54" xlink:href="#me18419b279" y="36.694747"/>
      </g>
     </g>
     <g id="text_9">
      <!-- 20 -->
      <g style="fill:#262626;" transform="translate(28.305938 40.631544)scale(0.11 -0.11)">
       <use xlink:href="#ArialMT-32"/>
       <use x="55.615234" xlink:href="#ArialMT-30"/>
      </g>
     </g>
    </g>
    <g id="text_10">
     <!-- Free energy ($k_B T$) -->
     <defs>
      <path d="M 8.203125 0 
L 8.203125 71.578125 
L 56.5 71.578125 
L 56.5 63.140625 
L 17.671875 63.140625 
L 17.671875 40.96875 
L 51.265625 40.96875 
L 51.265625 32.515625 
L 17.671875 32.515625 
L 17.671875 0 
z
" id="ArialMT-46"/>
      <path d="M 6.5 0 
L 6.5 51.859375 
L 14.40625 51.859375 
L 14.40625 44 
Q 17.4375 49.515625 20 51.265625 
Q 22.5625 53.03125 25.640625 53.03125 
Q 30.078125 53.03125 34.671875 50.203125 
L 31.640625 42.046875 
Q 28.421875 43.953125 25.203125 43.953125 
Q 22.3125 43.953125 20.015625 42.21875 
Q 17.71875 40.484375 16.75 37.40625 
Q 15.28125 32.71875 15.28125 27.15625 
L 15.28125 0 
z
" id="ArialMT-72"/>
      <path d="M 42.09375 16.703125 
L 51.171875 15.578125 
Q 49.03125 7.625 43.21875 3.21875 
Q 37.40625 -1.171875 28.375 -1.171875 
Q 17 -1.171875 10.328125 5.828125 
Q 3.65625 12.84375 3.65625 25.484375 
Q 3.65625 38.578125 10.390625 45.796875 
Q 17.140625 53.03125 27.875 53.03125 
Q 38.28125 53.03125 44.875 45.953125 
Q 51.46875 38.875 51.46875 26.03125 
Q 51.46875 25.25 51.421875 23.6875 
L 12.75 23.6875 
Q 13.234375 15.140625 17.578125 10.59375 
Q 21.921875 6.0625 28.421875 6.0625 
Q 33.25 6.0625 36.671875 8.59375 
Q 40.09375 11.140625 42.09375 16.703125 
z
M 13.234375 30.90625 
L 42.1875 30.90625 
Q 41.609375 37.453125 38.875 40.71875 
Q 34.671875 45.796875 27.984375 45.796875 
Q 21.921875 45.796875 17.796875 41.75 
Q 13.671875 37.703125 13.234375 30.90625 
z
" id="ArialMT-65"/>
      <path id="ArialMT-20"/>
      <path d="M 6.59375 0 
L 6.59375 51.859375 
L 14.5 51.859375 
L 14.5 44.484375 
Q 20.21875 53.03125 31 53.03125 
Q 35.6875 53.03125 39.625 51.34375 
Q 43.5625 49.65625 45.515625 46.921875 
Q 47.46875 44.1875 48.25 40.4375 
Q 48.734375 37.984375 48.734375 31.890625 
L 48.734375 0 
L 39.9375 0 
L 39.9375 31.546875 
Q 39.9375 36.921875 38.90625 39.578125 
Q 37.890625 42.234375 35.28125 43.8125 
Q 32.671875 45.40625 29.15625 45.40625 
Q 23.53125 45.40625 19.453125 41.84375 
Q 15.375 38.28125 15.375 28.328125 
L 15.375 0 
z
" id="ArialMT-6e"/>
      <path d="M 4.984375 -4.296875 
L 13.53125 -5.5625 
Q 14.0625 -9.515625 16.5 -11.328125 
Q 19.78125 -13.765625 25.4375 -13.765625 
Q 31.546875 -13.765625 34.859375 -11.328125 
Q 38.1875 -8.890625 39.359375 -4.5 
Q 40.046875 -1.8125 39.984375 6.78125 
Q 34.234375 0 25.640625 0 
Q 14.9375 0 9.078125 7.71875 
Q 3.21875 15.4375 3.21875 26.21875 
Q 3.21875 33.640625 5.90625 39.90625 
Q 8.59375 46.1875 13.6875 49.609375 
Q 18.796875 53.03125 25.6875 53.03125 
Q 34.859375 53.03125 40.828125 45.609375 
L 40.828125 51.859375 
L 48.921875 51.859375 
L 48.921875 7.03125 
Q 48.921875 -5.078125 46.453125 -10.125 
Q 44 -15.1875 38.640625 -18.109375 
Q 33.296875 -21.046875 25.484375 -21.046875 
Q 16.21875 -21.046875 10.5 -16.875 
Q 4.78125 -12.703125 4.984375 -4.296875 
z
M 12.25 26.859375 
Q 12.25 16.65625 16.296875 11.96875 
Q 20.359375 7.28125 26.46875 7.28125 
Q 32.515625 7.28125 36.609375 11.9375 
Q 40.71875 16.609375 40.71875 26.5625 
Q 40.71875 36.078125 36.5 40.90625 
Q 32.28125 45.75 26.3125 45.75 
Q 20.453125 45.75 16.34375 40.984375 
Q 12.25 36.234375 12.25 26.859375 
z
" id="ArialMT-67"/>
      <path d="M 6.203125 -19.96875 
L 5.21875 -11.71875 
Q 8.109375 -12.5 10.25 -12.5 
Q 13.1875 -12.5 14.9375 -11.515625 
Q 16.703125 -10.546875 17.828125 -8.796875 
Q 18.65625 -7.46875 20.515625 -2.25 
Q 20.75 -1.515625 21.296875 -0.09375 
L 1.609375 51.859375 
L 11.078125 51.859375 
L 21.875 21.828125 
Q 23.96875 16.109375 25.640625 9.8125 
Q 27.15625 15.875 29.25 21.625 
L 40.328125 51.859375 
L 49.125 51.859375 
L 29.390625 -0.875 
Q 26.21875 -9.421875 24.46875 -12.640625 
Q 22.125 -17 19.09375 -19.015625 
Q 16.0625 -21.046875 11.859375 -21.046875 
Q 9.328125 -21.046875 6.203125 -19.96875 
z
" id="ArialMT-79"/>
      <path d="M 23.390625 -21.046875 
Q 16.109375 -11.859375 11.078125 0.4375 
Q 6.0625 12.75 6.0625 25.921875 
Q 6.0625 37.546875 9.8125 48.1875 
Q 14.203125 60.546875 23.390625 72.796875 
L 29.6875 72.796875 
Q 23.78125 62.640625 21.875 58.296875 
Q 18.890625 51.5625 17.1875 44.234375 
Q 15.09375 35.109375 15.09375 25.875 
Q 15.09375 2.390625 29.6875 -21.046875 
z
" id="ArialMT-28"/>
      <path d="M 18.3125 75.984375 
L 27.296875 75.984375 
L 18.703125 31.6875 
L 49.515625 54.6875 
L 61.1875 54.6875 
L 26.8125 28.515625 
L 51.90625 0 
L 41.015625 0 
L 17.671875 26.703125 
L 12.5 0 
L 3.515625 0 
z
" id="DejaVuSans-Oblique-6b"/>
      <path d="M 16.890625 72.90625 
L 42.09375 72.90625 
Q 52.34375 72.90625 57.421875 69.09375 
Q 62.5 65.28125 62.5 57.625 
Q 62.5 50.59375 58.125 45.484375 
Q 53.765625 40.375 46.6875 39.3125 
Q 52.734375 37.9375 55.765625 34.078125 
Q 58.796875 30.21875 58.796875 23.78125 
Q 58.796875 12.796875 50.65625 6.390625 
Q 42.53125 0 28.421875 0 
L 2.6875 0 
z
M 19.28125 34.8125 
L 14.109375 8.109375 
L 29.984375 8.109375 
Q 38.921875 8.109375 43.75 12.203125 
Q 48.578125 16.3125 48.578125 23.78125 
Q 48.578125 29.546875 45.375 32.171875 
Q 42.1875 34.8125 35.109375 34.8125 
z
M 25.09375 64.796875 
L 20.796875 42.828125 
L 35.5 42.828125 
Q 43.359375 42.828125 47.78125 46.234375 
Q 52.203125 49.65625 52.203125 55.71875 
Q 52.203125 60.453125 49.21875 62.625 
Q 46.234375 64.796875 39.703125 64.796875 
z
" id="DejaVuSans-Oblique-42"/>
      <path d="M 5.90625 72.90625 
L 67.578125 72.90625 
L 66.015625 64.59375 
L 39.984375 64.59375 
L 27.484375 0 
L 17.578125 0 
L 30.078125 64.59375 
L 4.296875 64.59375 
z
" id="DejaVuSans-Oblique-54"/>
      <path d="M 12.359375 -21.046875 
L 6.0625 -21.046875 
Q 20.65625 2.390625 20.65625 25.875 
Q 20.65625 35.0625 18.5625 44.09375 
Q 16.890625 51.421875 13.921875 58.15625 
Q 12.015625 62.546875 6.0625 72.796875 
L 12.359375 72.796875 
Q 21.53125 60.546875 25.921875 48.1875 
Q 29.6875 37.546875 29.6875 25.921875 
Q 29.6875 12.75 24.625 0.4375 
Q 19.578125 -11.859375 12.359375 -21.046875 
z
" id="ArialMT-29"/>
     </defs>
     <g style="fill:#262626;" transform="translate(21.885938 101.96)rotate(-90)scale(0.11 -0.11)">
      <use transform="translate(0 0.015625)" xlink:href="#ArialMT-46"/>
      <use transform="translate(61.083984 0.015625)" xlink:href="#ArialMT-72"/>
      <use transform="translate(94.384766 0.015625)" xlink:href="#ArialMT-65"/>
      <use transform="translate(150 0.015625)" xlink:href="#ArialMT-65"/>
      <use transform="translate(205.615234 0.015625)" xlink:href="#ArialMT-20"/>
      <use transform="translate(233.398438 0.015625)" xlink:href="#ArialMT-65"/>
      <use transform="translate(289.013672 0.015625)" xlink:href="#ArialMT-6e"/>
      <use transform="translate(344.628906 0.015625)" xlink:href="#ArialMT-65"/>
      <use transform="translate(400.244141 0.015625)" xlink:href="#ArialMT-72"/>
      <use transform="translate(433.544922 0.015625)" xlink:href="#ArialMT-67"/>
      <use transform="translate(489.160156 0.015625)" xlink:href="#ArialMT-79"/>
      <use transform="translate(539.160156 0.015625)" xlink:href="#ArialMT-20"/>
      <use transform="translate(566.943359 0.015625)" xlink:href="#ArialMT-28"/>
      <use transform="translate(600.244141 0.015625)" xlink:href="#DejaVuSans-Oblique-6b"/>
      <use transform="translate(658.154297 -16.390625)scale(0.7)" xlink:href="#DejaVuSans-Oblique-42"/>
      <use transform="translate(708.911133 0.015625)" xlink:href="#DejaVuSans-Oblique-54"/>
      <use transform="translate(769.995117 0.015625)" xlink:href="#ArialMT-29"/>
     </g>
    </g>
   </g>
   <g id="patch_3">
    <path d="M 47.54 101.92 
L 47.54 13.56 
" style="fill:none;stroke:#262626;stroke-linecap:square;stroke-linejoin:miter;stroke-width:0.8;"/>
   </g>
   <g id="patch_4">
    <path d="M 47.54 101.92 
L 130.44 101.92 
" style="fill:none;stroke:#262626;stroke-linecap:square;stroke-linejoin:miter;stroke-width:0.8;"/>
   </g>
   <g id="line2d_9">
    <path clip-path="url(#pd50a2c1f5f)" d="M 51.308182 97.903636 
L 52.061818 97.100364 
L 52.815455 96.297092 
L 53.569091 95.49382 
L 54.322727 94.690548 
L 55.076364 93.887276 
L 55.83 93.084004 
L 56.583636 92.280732 
L 57.337273 91.47746 
L 58.090909 90.674188 
L 58.844545 89.870916 
L 59.598182 89.067643 
L 60.351818 88.264371 
L 61.105455 87.461099 
L 61.859091 86.657827 
L 62.612727 85.854555 
L 63.366364 85.051283 
L 64.12 84.248011 
L 64.873636 83.444739 
L 65.627273 82.641467 
L 66.380909 81.838195 
L 67.134545 81.034923 
L 67.888182 80.23165 
L 68.641818 79.428378 
L 69.395455 78.625106 
L 70.149091 77.821834 
L 70.902727 77.018562 
L 71.656364 76.21529 
L 72.41 75.412018 
L 73.163636 74.608746 
L 73.917273 73.805474 
L 74.670909 73.002202 
L 75.424545 72.19893 
L 76.178182 71.395658 
L 76.931818 70.592385 
L 77.685455 69.789113 
L 78.439091 68.985841 
L 79.192727 68.182569 
L 79.946364 67.379297 
L 80.7 66.576025 
L 81.453636 65.772753 
L 82.207273 64.969481 
L 82.960909 64.166209 
L 83.714545 63.362937 
L 84.468182 62.559665 
L 85.221818 61.756393 
L 85.975455 60.95312 
L 86.729091 60.149848 
L 87.482727 59.346576 
L 88.236364 58.543304 
L 88.99 57.740032 
L 89.743636 56.93676 
L 90.497273 56.133488 
L 91.250909 55.330216 
L 92.004545 54.526944 
L 92.758182 53.723672 
L 93.511818 52.9204 
L 94.265455 52.117127 
L 95.019091 51.313855 
L 95.772727 50.510583 
L 96.526364 49.707311 
L 97.28 48.904039 
L 98.033636 48.100767 
L 98.787273 47.297495 
L 99.540909 46.494223 
L 100.294545 45.690951 
L 101.048182 44.887679 
L 101.801818 44.084407 
L 102.555455 43.281135 
L 103.309091 42.477862 
L 104.062727 41.67459 
L 104.816364 40.871318 
L 105.57 40.068046 
L 106.323636 39.264774 
L 107.077273 38.461502 
L 107.830909 37.65823 
L 108.584545 36.854958 
L 109.338182 36.051686 
L 110.091818 35.248414 
L 110.845455 34.445142 
L 111.599091 33.641869 
L 112.352727 32.838597 
L 113.106364 32.035324 
L 113.86 31.232053 
L 114.613636 30.428779 
L 115.367273 29.625511 
L 116.120909 28.82223 
L 116.874545 28.018971 
L 117.628182 27.215706 
L 118.381818 26.412437 
L 119.135455 25.609109 
L 119.889091 24.805808 
L 120.642727 24.002589 
L 121.396364 23.199167 
L 122.15 22.395898 
L 122.903636 21.592933 
L 123.657273 20.789942 
L 124.410909 19.987187 
L 125.164545 19.183673 
L 125.918182 18.380235 
L 126.671818 17.576364 
" style="fill:none;stroke:#4393c3;stroke-linecap:round;stroke-width:1.5;"/>
   </g>
   <g id="line2d_10">
    <path clip-path="url(#pd50a2c1f5f)" d="M 51.308182 26.038899 
L 52.061818 26.440535 
L 52.815455 26.842171 
L 53.569091 27.243807 
L 54.322727 27.645443 
L 55.076364 28.047079 
L 55.83 28.448715 
L 56.583636 28.850352 
L 57.337273 29.251988 
L 58.090909 29.653624 
L 58.844545 30.05526 
L 59.598182 30.456896 
L 60.351818 30.858532 
L 61.105455 31.260168 
L 61.859091 31.661804 
L 62.612727 32.06344 
L 63.366364 32.465076 
L 64.12 32.866712 
L 64.873636 33.268348 
L 65.627273 33.669984 
L 66.380909 34.07162 
L 67.134545 34.473256 
L 67.888182 34.874892 
L 68.641818 35.276528 
L 69.395455 35.678164 
L 70.149091 36.0798 
L 70.902727 36.481436 
L 71.656364 36.883072 
L 72.41 37.284708 
L 73.163636 37.686344 
L 73.917273 38.087981 
L 74.670909 38.489617 
L 75.424545 38.891253 
L 76.178182 39.292889 
L 76.931818 39.694525 
L 77.685455 40.096161 
L 78.439091 40.497797 
L 79.192727 40.899433 
L 79.946364 41.301069 
L 80.7 41.702705 
L 81.453636 42.104341 
L 82.207273 42.505977 
L 82.960909 42.907613 
L 83.714545 43.309249 
L 84.468182 43.710885 
L 85.221818 44.112521 
L 85.975455 44.514157 
L 86.729091 44.915793 
L 87.482727 45.317429 
L 88.236364 45.719065 
L 88.99 46.120701 
L 89.743636 46.522337 
L 90.497273 46.923973 
L 91.250909 47.325609 
L 92.004545 47.727246 
L 92.758182 48.128882 
L 93.511818 48.530518 
L 94.265455 48.932154 
L 95.019091 49.33379 
L 95.772727 49.735426 
L 96.526364 50.137062 
L 97.28 50.538698 
L 98.033636 50.940334 
L 98.787273 51.34197 
L 99.540909 51.743606 
L 100.294545 52.145242 
L 101.048182 52.546878 
L 101.801818 52.948514 
L 102.555455 53.35015 
L 103.309091 53.751786 
L 104.062727 54.153422 
L 104.816364 54.555058 
L 105.57 54.956694 
L 106.323636 55.35833 
L 107.077273 55.759966 
L 107.830909 56.161602 
L 108.584545 56.563238 
L 109.338182 56.964875 
L 110.091818 57.366511 
L 110.845455 57.768147 
L 111.599091 58.169783 
L 112.352727 58.571419 
L 113.106364 58.973055 
L 113.86 59.374691 
L 114.613636 59.776327 
L 115.367273 60.177963 
L 116.120909 60.579599 
L 116.874545 60.981235 
L 117.628182 61.382871 
L 118.381818 61.784507 
L 119.135455 62.186143 
L 119.889091 62.587779 
L 120.642727 62.989415 
L 121.396364 63.391051 
L 122.15 63.792687 
L 122.903636 64.194323 
L 123.657273 64.595959 
L 124.410909 64.997595 
L 125.164545 65.399231 
L 125.918182 65.800867 
L 126.671818 66.202504 
" style="fill:none;stroke:#f4a582;stroke-linecap:round;stroke-width:1.5;"/>
   </g>
   <g id="line2d_11">
    <path clip-path="url(#pd50a2c1f5f)" d="M 51.308182 87.589623 
L 52.061818 87.187987 
L 52.815455 86.786351 
L 53.569091 86.384715 
L 54.322727 85.983079 
L 55.076364 85.581443 
L 55.83 85.179807 
L 56.583636 84.77817 
L 57.337273 84.376534 
L 58.090909 83.974898 
L 58.844545 83.573262 
L 59.598182 83.171626 
L 60.351818 82.76999 
L 61.105455 82.368354 
L 61.859091 81.966718 
L 62.612727 81.565082 
L 63.366364 81.163446 
L 64.12 80.76181 
L 64.873636 80.360174 
L 65.627273 79.958538 
L 66.380909 79.556902 
L 67.134545 79.155266 
L 67.888182 78.75363 
L 68.641818 78.351994 
L 69.395455 77.950358 
L 70.149091 77.548722 
L 70.902727 77.147086 
L 71.656364 76.74545 
L 72.41 76.343814 
L 73.163636 75.942178 
L 73.917273 75.540542 
L 74.670909 75.138905 
L 75.424545 74.737269 
L 76.178182 74.335633 
L 76.931818 73.933997 
L 77.685455 73.532361 
L 78.439091 73.130725 
L 79.192727 72.729089 
L 79.946364 72.327453 
L 80.7 71.925817 
L 81.453636 71.524181 
L 82.207273 71.122545 
L 82.960909 70.720909 
L 83.714545 70.319273 
L 84.468182 69.917637 
L 85.221818 69.516001 
L 85.975455 69.114365 
L 86.729091 68.712729 
L 87.482727 68.311093 
L 88.236364 67.909457 
L 88.99 67.507821 
L 89.743636 67.106185 
L 90.497273 66.704549 
L 91.250909 66.302913 
L 92.004545 65.901276 
L 92.758182 65.49964 
L 93.511818 65.098004 
L 94.265455 64.696368 
L 95.019091 64.294732 
L 95.772727 63.893096 
L 96.526364 63.49146 
L 97.28 63.089824 
L 98.033636 62.688188 
L 98.787273 62.286552 
L 99.540909 61.884916 
L 100.294545 61.48328 
L 101.048182 61.081644 
L 101.801818 60.680008 
L 102.555455 60.278372 
L 103.309091 59.876736 
L 104.062727 59.4751 
L 104.816364 59.073464 
L 105.57 58.671828 
L 106.323636 58.270192 
L 107.077273 57.868556 
L 107.830909 57.46692 
L 108.584545 57.065284 
L 109.338182 56.663647 
L 110.091818 56.262011 
L 110.845455 55.860375 
L 111.599091 55.458739 
L 112.352727 55.057103 
L 113.106364 54.655467 
L 113.86 54.253831 
L 114.613636 53.852195 
L 115.367273 53.450559 
L 116.120909 53.048923 
L 116.874545 52.647287 
L 117.628182 52.245651 
L 118.381818 51.844015 
L 119.135455 51.442379 
L 119.889091 51.040743 
L 120.642727 50.639107 
L 121.396364 50.237471 
L 122.15 49.835835 
L 122.903636 49.434199 
L 123.657273 49.032563 
L 124.410909 48.630927 
L 125.164545 48.229291 
L 125.918182 47.827655 
L 126.671818 47.426019 
" style="fill:none;stroke:#92c5de;stroke-linecap:round;stroke-width:1.5;"/>
   </g>
   <g id="line2d_12">
    <path clip-path="url(#pd50a2c1f5f)" d="M 51.308182 71.58041 
L 52.061818 71.58041 
L 52.815455 71.58041 
L 53.569091 71.58041 
L 54.322727 71.58041 
L 55.076364 71.58041 
L 55.83 71.58041 
L 56.583636 71.58041 
L 57.337273 71.58041 
L 58.090909 71.58041 
L 58.844545 71.58041 
L 59.598182 71.58041 
L 60.351818 71.58041 
L 61.105455 71.58041 
L 61.859091 71.58041 
L 62.612727 71.58041 
L 63.366364 71.58041 
L 64.12 71.58041 
L 64.873636 71.58041 
L 65.627273 71.58041 
L 66.380909 71.58041 
L 67.134545 71.58041 
L 67.888182 71.58041 
L 68.641818 71.58041 
L 69.395455 71.58041 
L 70.149091 71.58041 
L 70.902727 71.58041 
L 71.656364 71.58041 
L 72.41 71.58041 
L 73.163636 71.58041 
L 73.917273 71.58041 
L 74.670909 71.58041 
L 75.424545 71.58041 
L 76.178182 71.58041 
L 76.931818 71.58041 
L 77.685455 71.58041 
L 78.439091 71.58041 
L 79.192727 71.58041 
L 79.946364 71.58041 
L 80.7 71.58041 
L 81.453636 71.58041 
L 82.207273 71.58041 
L 82.960909 71.58041 
L 83.714545 71.58041 
L 84.468182 71.58041 
L 85.221818 71.58041 
L 85.975455 71.58041 
L 86.729091 71.58041 
L 87.482727 71.58041 
L 88.236364 71.58041 
L 88.99 71.58041 
L 89.743636 71.58041 
L 90.497273 71.58041 
L 91.250909 71.58041 
L 92.004545 71.58041 
L 92.758182 71.58041 
L 93.511818 71.58041 
L 94.265455 71.58041 
L 95.019091 71.58041 
L 95.772727 71.58041 
L 96.526364 71.58041 
L 97.28 71.58041 
L 98.033636 71.58041 
L 98.787273 71.58041 
L 99.540909 71.58041 
L 100.294545 71.58041 
L 101.048182 71.58041 
L 101.801818 71.58041 
L 102.555455 71.58041 
L 103.309091 71.58041 
L 104.062727 71.58041 
L 104.816364 71.58041 
L 105.57 71.58041 
L 106.323636 71.58041 
L 107.077273 71.58041 
L 107.830909 71.58041 
L 108.584545 71.58041 
L 109.338182 71.58041 
L 110.091818 71.58041 
L 110.845455 71.58041 
L 111.599091 71.58041 
L 112.352727 71.58041 
L 113.106364 71.58041 
L 113.86 71.58041 
L 114.613636 71.58041 
L 115.367273 71.58041 
L 116.120909 71.58041 
L 116.874545 71.58041 
L 117.628182 71.58041 
L 118.381818 71.58041 
L 119.135455 71.58041 
L 119.889091 71.58041 
L 120.642727 71.58041 
L 121.396364 71.58041 
L 122.15 71.58041 
L 122.903636 71.58041 
L 123.657273 71.58041 
L 124.410909 71.58041 
L 125.164545 71.58041 
L 125.918182 71.58041 
L 126.671818 71.58041 
" style="fill:none;stroke:#333333;stroke-linecap:round;stroke-width:1.5;"/>
   </g>
  </g>
 </g>
 <defs>
  <clipPath id="pd50a2c1f5f">
   <rect height="88.36" width="82.9" x="47.54" y="13.56"/>
  </clipPath>
 </defs>
</svg>
