<?xml version="1.0" encoding="utf-8" standalone="no"?>
<!DOCTYPE svg PUBLIC "-//W3C//DTD SVG 1.1//EN"
  "http://www.w3.org/Graphics/SVG/1.1/DTD/svg11.dtd">
<!-- Created with matplotlib (http://matplotlib.org/) -->
<svg height="216pt" version="1.1" viewBox="0 0 216 216" width="216pt" xmlns="http://www.w3.org/2000/svg" xmlns:xlink="http://www.w3.org/1999/xlink">
 <defs>
  <style type="text/css">
*{stroke-linecap:butt;stroke-linejoin:round;}
  </style>
 </defs>
 <g id="figure_1">
  <g id="patch_1">
   <path d="M 0 216 
L 216 216 
L 216 0 
L 0 0 
z
" style="fill:#ffffff;"/>
  </g>
  <g id="axes_1">
   <g id="patch_2">
    <path d="M 44.78 175.96 
L 203.52 175.96 
L 203.52 25.44 
L 44.78 25.44 
z
" style="fill:#ffffff;"/>
   </g>
   <g id="matplotlib.axis_1">
    <g id="xtick_1">
     <g id="line2d_1">
      <defs>
       <path d="M 0 0 
L 0 3.5 
" id="m66f4e65aba" style="stroke:#262626;stroke-width:0.8;"/>
      </defs>
      <g>
       <use style="fill:#262626;stroke:#262626;stroke-width:0.8;" x="51.995455" xlink:href="#m66f4e65aba" y="175.96"/>
      </g>
     </g>
     <g id="text_1">
      <!-- 2 -->
      <defs>
       <path d="M 50.34375 8.453125 
L 50.34375 0 
L 3.03125 0 
Q 2.9375 3.171875 4.046875 6.109375 
Q 5.859375 10.9375 9.828125 15.625 
Q 13.8125 20.3125 21.34375 26.46875 
Q 33.015625 36.03125 37.109375 41.625 
Q 41.21875 47.21875 41.21875 52.203125 
Q 41.21875 57.421875 37.46875 61 
Q 33.734375 64.59375 27.734375 64.59375 
Q 21.390625 64.59375 17.578125 60.78125 
Q 13.765625 56.984375 13.71875 50.25 
L 4.6875 51.171875 
Q 5.609375 61.28125 11.65625 66.578125 
Q 17.71875 71.875 27.9375 71.875 
Q 38.234375 71.875 44.234375 66.15625 
Q 50.25 60.453125 50.25 52 
Q 50.25 47.703125 48.484375 43.546875 
Q 46.734375 39.40625 42.65625 34.8125 
Q 38.578125 30.21875 29.109375 22.21875 
Q 21.1875 15.578125 18.9375 13.203125 
Q 16.703125 10.84375 15.234375 8.453125 
z
" id="ArialMT-32"/>
      </defs>
      <g style="fill:#262626;" transform="translate(49.214986 190.117812)scale(0.1 -0.1)">
       <use xlink:href="#ArialMT-32"/>
      </g>
     </g>
    </g>
    <g id="xtick_2">
     <g id="line2d_2">
      <g>
       <use style="fill:#262626;stroke:#262626;stroke-width:0.8;" x="80.857273" xlink:href="#m66f4e65aba" y="175.96"/>
      </g>
     </g>
     <g id="text_2">
      <!-- 4 -->
      <defs>
       <path d="M 32.328125 0 
L 32.328125 17.140625 
L 1.265625 17.140625 
L 1.265625 25.203125 
L 33.9375 71.578125 
L 41.109375 71.578125 
L 41.109375 25.203125 
L 50.78125 25.203125 
L 50.78125 17.140625 
L 41.109375 17.140625 
L 41.109375 0 
z
M 32.328125 25.203125 
L 32.328125 57.46875 
L 9.90625 25.203125 
z
" id="ArialMT-34"/>
      </defs>
      <g style="fill:#262626;" transform="translate(78.076804 190.117812)scale(0.1 -0.1)">
       <use xlink:href="#ArialMT-34"/>
      </g>
     </g>
    </g>
    <g id="xtick_3">
     <g id="line2d_3">
      <g>
       <use style="fill:#262626;stroke:#262626;stroke-width:0.8;" x="109.719091" xlink:href="#m66f4e65aba" y="175.96"/>
      </g>
     </g>
     <g id="text_3">
      <!-- 6 -->
      <defs>
       <path d="M 49.75 54.046875 
L 41.015625 53.375 
Q 39.84375 58.546875 37.703125 60.890625 
Q 34.125 64.65625 28.90625 64.65625 
Q 24.703125 64.65625 21.53125 62.3125 
Q 17.390625 59.28125 14.984375 53.46875 
Q 12.59375 47.65625 12.5 36.921875 
Q 15.671875 41.75 20.265625 44.09375 
Q 24.859375 46.4375 29.890625 46.4375 
Q 38.671875 46.4375 44.84375 39.96875 
Q 51.03125 33.5 51.03125 23.25 
Q 51.03125 16.5 48.125 10.71875 
Q 45.21875 4.9375 40.140625 1.859375 
Q 35.0625 -1.21875 28.609375 -1.21875 
Q 17.625 -1.21875 10.6875 6.859375 
Q 3.765625 14.9375 3.765625 33.5 
Q 3.765625 54.25 11.421875 63.671875 
Q 18.109375 71.875 29.4375 71.875 
Q 37.890625 71.875 43.28125 67.140625 
Q 48.6875 62.40625 49.75 54.046875 
z
M 13.875 23.1875 
Q 13.875 18.65625 15.796875 14.5 
Q 17.71875 10.359375 21.1875 8.171875 
Q 24.65625 6 28.46875 6 
Q 34.03125 6 38.03125 10.484375 
Q 42.046875 14.984375 42.046875 22.703125 
Q 42.046875 30.125 38.078125 34.390625 
Q 34.125 38.671875 28.125 38.671875 
Q 22.171875 38.671875 18.015625 34.390625 
Q 13.875 30.125 13.875 23.1875 
z
" id="ArialMT-36"/>
      </defs>
      <g style="fill:#262626;" transform="translate(106.938622 190.117812)scale(0.1 -0.1)">
       <use xlink:href="#ArialMT-36"/>
      </g>
     </g>
    </g>
    <g id="xtick_4">
     <g id="line2d_4">
      <g>
       <use style="fill:#262626;stroke:#262626;stroke-width:0.8;" x="138.580909" xlink:href="#m66f4e65aba" y="175.96"/>
      </g>
     </g>
     <g id="text_4">
      <!-- 8 -->
      <defs>
       <path d="M 17.671875 38.8125 
Q 12.203125 40.828125 9.5625 44.53125 
Q 6.9375 48.25 6.9375 53.421875 
Q 6.9375 61.234375 12.546875 66.546875 
Q 18.171875 71.875 27.484375 71.875 
Q 36.859375 71.875 42.578125 66.421875 
Q 48.296875 60.984375 48.296875 53.171875 
Q 48.296875 48.1875 45.671875 44.5 
Q 43.0625 40.828125 37.75 38.8125 
Q 44.34375 36.671875 47.78125 31.875 
Q 51.21875 27.09375 51.21875 20.453125 
Q 51.21875 11.28125 44.71875 5.03125 
Q 38.234375 -1.21875 27.640625 -1.21875 
Q 17.046875 -1.21875 10.546875 5.046875 
Q 4.046875 11.328125 4.046875 20.703125 
Q 4.046875 27.6875 7.59375 32.390625 
Q 11.140625 37.109375 17.671875 38.8125 
z
M 15.921875 53.71875 
Q 15.921875 48.640625 19.1875 45.40625 
Q 22.46875 42.1875 27.6875 42.1875 
Q 32.765625 42.1875 36.015625 45.375 
Q 39.265625 48.578125 39.265625 53.21875 
Q 39.265625 58.0625 35.90625 61.359375 
Q 32.5625 64.65625 27.59375 64.65625 
Q 22.5625 64.65625 19.234375 61.421875 
Q 15.921875 58.203125 15.921875 53.71875 
z
M 13.09375 20.65625 
Q 13.09375 16.890625 14.875 13.375 
Q 16.65625 9.859375 20.171875 7.921875 
Q 23.6875 6 27.734375 6 
Q 34.03125 6 38.125 10.046875 
Q 42.234375 14.109375 42.234375 20.359375 
Q 42.234375 26.703125 38.015625 30.859375 
Q 33.796875 35.015625 27.4375 35.015625 
Q 21.234375 35.015625 17.15625 30.90625 
Q 13.09375 26.8125 13.09375 20.65625 
z
" id="ArialMT-38"/>
      </defs>
      <g style="fill:#262626;" transform="translate(135.80044 190.117812)scale(0.1 -0.1)">
       <use xlink:href="#ArialMT-38"/>
      </g>
     </g>
    </g>
    <g id="xtick_5">
     <g id="line2d_5">
      <g>
       <use style="fill:#262626;stroke:#262626;stroke-width:0.8;" x="167.442727" xlink:href="#m66f4e65aba" y="175.96"/>
      </g>
     </g>
     <g id="text_5">
      <!-- 10 -->
      <defs>
       <path d="M 37.25 0 
L 28.46875 0 
L 28.46875 56 
Q 25.296875 52.984375 20.140625 49.953125 
Q 14.984375 46.921875 10.890625 45.40625 
L 10.890625 53.90625 
Q 18.265625 57.375 23.78125 62.296875 
Q 29.296875 67.234375 31.59375 71.875 
L 37.25 71.875 
z
" id="ArialMT-31"/>
       <path d="M 4.15625 35.296875 
Q 4.15625 48 6.765625 55.734375 
Q 9.375 63.484375 14.515625 67.671875 
Q 19.671875 71.875 27.484375 71.875 
Q 33.25 71.875 37.59375 69.546875 
Q 41.9375 67.234375 44.765625 62.859375 
Q 47.609375 58.5 49.21875 52.21875 
Q 50.828125 45.953125 50.828125 35.296875 
Q 50.828125 22.703125 48.234375 14.96875 
Q 45.65625 7.234375 40.5 3 
Q 35.359375 -1.21875 27.484375 -1.21875 
Q 17.140625 -1.21875 11.234375 6.203125 
Q 4.15625 15.140625 4.15625 35.296875 
z
M 13.1875 35.296875 
Q 13.1875 17.671875 17.3125 11.828125 
Q 21.4375 6 27.484375 6 
Q 33.546875 6 37.671875 11.859375 
Q 41.796875 17.71875 41.796875 35.296875 
Q 41.796875 52.984375 37.671875 58.78125 
Q 33.546875 64.59375 27.390625 64.59375 
Q 21.34375 64.59375 17.71875 59.46875 
Q 13.1875 52.9375 13.1875 35.296875 
z
" id="ArialMT-30"/>
      </defs>
      <g style="fill:#262626;" transform="translate(161.88179 190.117812)scale(0.1 -0.1)">
       <use xlink:href="#ArialMT-31"/>
       <use x="55.615234" xlink:href="#ArialMT-30"/>
      </g>
     </g>
    </g>
    <g id="xtick_6">
     <g id="line2d_6">
      <g>
       <use style="fill:#262626;stroke:#262626;stroke-width:0.8;" x="196.304545" xlink:href="#m66f4e65aba" y="175.96"/>
      </g>
     </g>
     <g id="text_6">
      <!-- 12 -->
      <g style="fill:#262626;" transform="translate(190.743608 190.117812)scale(0.1 -0.1)">
       <use xlink:href="#ArialMT-31"/>
       <use x="55.615234" xlink:href="#ArialMT-32"/>
      </g>
     </g>
    </g>
    <g id="text_7">
     <!-- pH -->
     <defs>
      <path d="M 6.59375 -19.875 
L 6.59375 51.859375 
L 14.59375 51.859375 
L 14.59375 45.125 
Q 17.4375 49.078125 21 51.046875 
Q 24.5625 53.03125 29.640625 53.03125 
Q 36.28125 53.03125 41.359375 49.609375 
Q 46.4375 46.1875 49.015625 39.953125 
Q 51.609375 33.734375 51.609375 26.3125 
Q 51.609375 18.359375 48.75 11.984375 
Q 45.90625 5.609375 40.453125 2.21875 
Q 35.015625 -1.171875 29 -1.171875 
Q 24.609375 -1.171875 21.109375 0.6875 
Q 17.625 2.546875 15.375 5.375 
L 15.375 -19.875 
z
M 14.546875 25.640625 
Q 14.546875 15.625 18.59375 10.84375 
Q 22.65625 6.0625 28.421875 6.0625 
Q 34.28125 6.0625 38.453125 11.015625 
Q 42.625 15.96875 42.625 26.375 
Q 42.625 36.28125 38.546875 41.203125 
Q 34.46875 46.140625 28.8125 46.140625 
Q 23.1875 46.140625 18.859375 40.890625 
Q 14.546875 35.640625 14.546875 25.640625 
z
" id="ArialMT-70"/>
      <path d="M 8.015625 0 
L 8.015625 71.578125 
L 17.484375 71.578125 
L 17.484375 42.1875 
L 54.6875 42.1875 
L 54.6875 71.578125 
L 64.15625 71.578125 
L 64.15625 0 
L 54.6875 0 
L 54.6875 33.734375 
L 17.484375 33.734375 
L 17.484375 0 
z
" id="ArialMT-48"/>
     </defs>
     <g style="fill:#262626;" transform="translate(117.758594 203.263125)scale(0.1 -0.1)">
      <use xlink:href="#ArialMT-70"/>
      <use x="55.615234" xlink:href="#ArialMT-48"/>
     </g>
    </g>
   </g>
   <g id="matplotlib.axis_2">
    <g id="ytick_1">
     <g id="line2d_7">
      <defs>
       <path d="M 0 0 
L -3.5 0 
" id="m2f35f0b49c" style="stroke:#262626;stroke-width:0.8;"/>
      </defs>
      <g>
       <use style="fill:#262626;stroke:#262626;stroke-width:0.8;" x="44.78" xlink:href="#m2f35f0b49c" y="132.850978"/>
      </g>
     </g>
     <g id="text_8">
      <!-- −1 -->
      <defs>
       <path d="M 52.828125 31.203125 
L 5.5625 31.203125 
L 5.5625 39.40625 
L 52.828125 39.40625 
z
" id="ArialMT-2212"/>
      </defs>
      <g style="fill:#262626;" transform="translate(26.378438 136.429885)scale(0.1 -0.1)">
       <use xlink:href="#ArialMT-2212"/>
       <use x="58.398438" xlink:href="#ArialMT-31"/>
      </g>
     </g>
    </g>
    <g id="ytick_2">
     <g id="line2d_8">
      <g>
       <use style="fill:#262626;stroke:#262626;stroke-width:0.8;" x="44.78" xlink:href="#m2f35f0b49c" y="69.261676"/>
      </g>
     </g>
     <g id="text_9">
      <!-- 0 -->
      <g style="fill:#262626;" transform="translate(32.219063 72.840582)scale(0.1 -0.1)">
       <use xlink:href="#ArialMT-30"/>
      </g>
     </g>
    </g>
    <g id="text_10">
     <!-- $\langle q_\mathsf{total} \rangle$ -->
     <defs>
      <path d="M 8.9375 31.34375 
L 22.703125 75.875 
L 31 75.875 
L 17.234375 31.34375 
L 31 -13.1875 
L 22.703125 -13.1875 
z
" id="DejaVuSans-27e8"/>
      <path d="M 41.703125 8.203125 
Q 38.09375 3.46875 33.171875 1.015625 
Q 28.265625 -1.421875 22.3125 -1.421875 
Q 14.015625 -1.421875 9.296875 4.171875 
Q 4.59375 9.765625 4.59375 19.578125 
Q 4.59375 27.484375 7.5 34.859375 
Q 10.40625 42.234375 15.828125 48.09375 
Q 19.34375 51.90625 23.90625 53.953125 
Q 28.46875 56 33.5 56 
Q 39.546875 56 43.453125 53.609375 
Q 47.359375 51.21875 49.125 46.390625 
L 50.6875 54.59375 
L 59.71875 54.59375 
L 45.125 -20.609375 
L 36.078125 -20.609375 
z
M 13.921875 20.90625 
Q 13.921875 13.671875 16.9375 9.890625 
Q 19.96875 6.109375 25.6875 6.109375 
Q 34.1875 6.109375 40.1875 14.234375 
Q 46.1875 22.359375 46.1875 33.984375 
Q 46.1875 41.015625 43.078125 44.75 
Q 39.984375 48.484375 34.1875 48.484375 
Q 29.9375 48.484375 26.3125 46.5 
Q 22.703125 44.53125 20.015625 40.71875 
Q 17.1875 36.71875 15.546875 31.34375 
Q 13.921875 25.984375 13.921875 20.90625 
z
" id="DejaVuSans-Oblique-71"/>
      <path d="M 18.3125 70.21875 
L 18.3125 54.6875 
L 36.8125 54.6875 
L 36.8125 47.703125 
L 18.3125 47.703125 
L 18.3125 18.015625 
Q 18.3125 11.328125 20.140625 9.421875 
Q 21.96875 7.515625 27.59375 7.515625 
L 36.8125 7.515625 
L 36.8125 0 
L 27.59375 0 
Q 17.1875 0 13.234375 3.875 
Q 9.28125 7.765625 9.28125 18.015625 
L 9.28125 47.703125 
L 2.6875 47.703125 
L 2.6875 54.6875 
L 9.28125 54.6875 
L 9.28125 70.21875 
z
" id="DejaVuSans-74"/>
      <path d="M 30.609375 48.390625 
Q 23.390625 48.390625 19.1875 42.75 
Q 14.984375 37.109375 14.984375 27.296875 
Q 14.984375 17.484375 19.15625 11.84375 
Q 23.34375 6.203125 30.609375 6.203125 
Q 37.796875 6.203125 41.984375 11.859375 
Q 46.1875 17.53125 46.1875 27.296875 
Q 46.1875 37.015625 41.984375 42.703125 
Q 37.796875 48.390625 30.609375 48.390625 
z
M 30.609375 56 
Q 42.328125 56 49.015625 48.375 
Q 55.71875 40.765625 55.71875 27.296875 
Q 55.71875 13.875 49.015625 6.21875 
Q 42.328125 -1.421875 30.609375 -1.421875 
Q 18.84375 -1.421875 12.171875 6.21875 
Q 5.515625 13.875 5.515625 27.296875 
Q 5.515625 40.765625 12.171875 48.375 
Q 18.84375 56 30.609375 56 
z
" id="DejaVuSans-6f"/>
      <path d="M 34.28125 27.484375 
Q 23.390625 27.484375 19.1875 25 
Q 14.984375 22.515625 14.984375 16.5 
Q 14.984375 11.71875 18.140625 8.90625 
Q 21.296875 6.109375 26.703125 6.109375 
Q 34.1875 6.109375 38.703125 11.40625 
Q 43.21875 16.703125 43.21875 25.484375 
L 43.21875 27.484375 
z
M 52.203125 31.203125 
L 52.203125 0 
L 43.21875 0 
L 43.21875 8.296875 
Q 40.140625 3.328125 35.546875 0.953125 
Q 30.953125 -1.421875 24.3125 -1.421875 
Q 15.921875 -1.421875 10.953125 3.296875 
Q 6 8.015625 6 15.921875 
Q 6 25.140625 12.171875 29.828125 
Q 18.359375 34.515625 30.609375 34.515625 
L 43.21875 34.515625 
L 43.21875 35.40625 
Q 43.21875 41.609375 39.140625 45 
Q 35.0625 48.390625 27.6875 48.390625 
Q 23 48.390625 18.546875 47.265625 
Q 14.109375 46.140625 10.015625 43.890625 
L 10.015625 52.203125 
Q 14.9375 54.109375 19.578125 55.046875 
Q 24.21875 56 28.609375 56 
Q 40.484375 56 46.34375 49.84375 
Q 52.203125 43.703125 52.203125 31.203125 
z
" id="DejaVuSans-61"/>
      <path d="M 9.421875 75.984375 
L 18.40625 75.984375 
L 18.40625 0 
L 9.421875 0 
z
" id="DejaVuSans-6c"/>
      <path d="M 30.078125 31.34375 
L 16.3125 -13.1875 
L 8.015625 -13.1875 
L 21.78125 31.34375 
L 8.015625 75.875 
L 16.3125 75.875 
z
" id="DejaVuSans-27e9"/>
     </defs>
     <g style="fill:#262626;" transform="translate(20.278438 115.95)rotate(-90)scale(0.1 -0.1)">
      <use transform="translate(0 0.125)" xlink:href="#DejaVuSans-27e8"/>
      <use transform="translate(39.013672 0.125)" xlink:href="#DejaVuSans-Oblique-71"/>
      <use transform="translate(102.490234 -16.28125)scale(0.7)" xlink:href="#DejaVuSans-74"/>
      <use transform="translate(129.936523 -16.28125)scale(0.7)" xlink:href="#DejaVuSans-6f"/>
      <use transform="translate(172.763672 -16.28125)scale(0.7)" xlink:href="#DejaVuSans-74"/>
      <use transform="translate(200.209961 -16.28125)scale(0.7)" xlink:href="#DejaVuSans-61"/>
      <use transform="translate(243.105469 -16.28125)scale(0.7)" xlink:href="#DejaVuSans-6c"/>
      <use transform="translate(265.288086 0.125)" xlink:href="#DejaVuSans-27e9"/>
     </g>
    </g>
   </g>
   <g id="PolyCollection_1">
    <defs>
     <path d="M 51.995455 -183.718182 
L 51.995455 -110.178194 
L 53.438545 -111.162229 
L 54.881636 -112.130852 
L 56.324727 -113.078296 
L 57.767818 -113.99997 
L 59.210909 -114.892432 
L 60.654 -115.753278 
L 62.097091 -116.580945 
L 63.540182 -117.374466 
L 64.983273 -118.133214 
L 66.426364 -118.85669 
L 67.869455 -119.544404 
L 69.312545 -120.195837 
L 70.755636 -120.810496 
L 72.198727 -121.388002 
L 73.641818 -121.928184 
L 75.084909 -122.431171 
L 76.528 -122.897452 
L 77.971091 -123.327918 
L 79.414182 -123.723872 
L 80.857273 -124.087018 
L 82.300364 -124.419441 
L 83.743455 -124.723587 
L 85.186545 -125.00227 
L 86.629636 -125.258689 
L 88.072727 -125.496464 
L 89.515818 -125.719658 
L 90.958909 -125.932775 
L 92.402 -126.140727 
L 93.845091 -126.348786 
L 95.288182 -126.562511 
L 96.731273 -126.787688 
L 98.174364 -127.030272 
L 99.617455 -127.296328 
L 101.060545 -127.591947 
L 102.503636 -127.923118 
L 103.946727 -128.295523 
L 105.389818 -128.714215 
L 106.832909 -129.183158 
L 108.276 -129.704556 
L 109.719091 -130.277929 
L 111.162182 -130.898821 
L 112.605273 -131.557055 
L 114.048364 -132.234443 
L 115.491455 -132.901979 
L 116.934545 -133.516881 
L 118.377636 -134.020593 
L 119.820727 -134.340131 
L 121.263818 -134.396033 
L 122.706909 -134.118245 
L 124.15 -133.464653 
L 125.593091 -132.4311 
L 127.036182 -131.046325 
L 128.479273 -129.357077 
L 129.922364 -127.4135 
L 131.365455 -125.26008 
L 132.808545 -122.931916 
L 134.251636 -120.454122 
L 135.694727 -117.842596 
L 137.137818 -115.105199 
L 138.580909 -112.242987 
L 140.024 -109.251464 
L 141.467091 -106.122012 
L 142.910182 -102.843745 
L 144.353273 -99.406042 
L 145.796364 -95.801936 
L 147.239455 -92.032299 
L 148.682545 -88.110422 
L 150.125636 -84.066208 
L 151.568727 -79.948832 
L 153.011818 -75.826713 
L 154.454909 -71.78401 
L 155.898 -67.913723 
L 157.341091 -64.308461 
L 158.784182 -61.050739 
L 160.227273 -58.20481 
L 161.670364 -55.811535 
L 163.113455 -53.88686 
L 164.556545 -52.42352 
L 165.999636 -51.394951 
L 167.442727 -50.76023 
L 168.885818 -50.469015 
L 170.328909 -50.465837 
L 171.772 -50.693435 
L 173.215091 -51.095115 
L 174.658182 -51.616233 
L 176.101273 -52.205003 
L 177.544364 -52.812829 
L 178.987455 -53.394328 
L 180.430545 -53.907228 
L 181.873636 -54.312268 
L 183.316727 -54.573266 
L 184.759818 -54.6575 
L 186.202909 -54.536516 
L 187.646 -54.187339 
L 189.089091 -53.593795 
L 190.532182 -52.747366 
L 191.975273 -51.646932 
L 193.418364 -50.297161 
L 194.861455 -48.705958 
L 196.304545 -46.881818 
L 196.304545 -113.379701 
L 196.304545 -113.379701 
L 194.861455 -112.824871 
L 193.418364 -112.279834 
L 191.975273 -111.797836 
L 190.532182 -111.425834 
L 189.089091 -111.202614 
L 187.646 -111.157162 
L 186.202909 -111.308051 
L 184.759818 -111.664202 
L 183.316727 -112.226769 
L 181.873636 -112.991477 
L 180.430545 -113.950854 
L 178.987455 -115.096062 
L 177.544364 -116.418303 
L 176.101273 -117.909876 
L 174.658182 -119.564991 
L 173.215091 -121.3804 
L 171.772 -123.355821 
L 170.328909 -125.494094 
L 168.885818 -127.80095 
L 167.442727 -130.284194 
L 165.999636 -132.952132 
L 164.556545 -135.811057 
L 163.113455 -138.861766 
L 161.670364 -142.095324 
L 160.227273 -145.488623 
L 158.784182 -149.000686 
L 157.341091 -152.57089 
L 155.898 -156.12025 
L 154.454909 -159.556291 
L 153.011818 -162.781105 
L 151.568727 -165.701099 
L 150.125636 -168.236393 
L 148.682545 -170.3279 
L 147.239455 -171.940953 
L 145.796364 -173.065358 
L 144.353273 -173.712629 
L 142.910182 -173.911562 
L 141.467091 -173.703306 
L 140.024 -173.136788 
L 138.580909 -172.265033 
L 137.137818 -171.142583 
L 135.694727 -169.824048 
L 134.251636 -168.363708 
L 132.808545 -166.816013 
L 131.365455 -165.236776 
L 129.922364 -163.684756 
L 128.479273 -162.223054 
L 127.036182 -160.919233 
L 125.593091 -159.842308 
L 124.15 -159.054366 
L 122.706909 -158.596553 
L 121.263818 -158.474712 
L 119.820727 -158.654763 
L 118.377636 -159.073089 
L 116.934545 -159.655383 
L 115.491455 -160.332775 
L 114.048364 -161.049995 
L 112.605273 -161.766877 
L 111.162182 -162.456503 
L 109.719091 -163.102344 
L 108.276 -163.695546 
L 106.832909 -164.232705 
L 105.389818 -164.714176 
L 103.946727 -165.142829 
L 102.503636 -165.523157 
L 101.060545 -165.860636 
L 99.617455 -166.161281 
L 98.174364 -166.43135 
L 96.731273 -166.677148 
L 95.288182 -166.90491 
L 93.845091 -167.120728 
L 92.402 -167.3305 
L 90.958909 -167.539878 
L 89.515818 -167.754206 
L 88.072727 -167.978464 
L 86.629636 -168.217212 
L 85.186545 -168.474564 
L 83.743455 -168.754189 
L 82.300364 -169.059337 
L 80.857273 -169.392876 
L 79.414182 -169.757311 
L 77.971091 -170.154795 
L 76.528 -170.587114 
L 75.084909 -171.05567 
L 73.641818 -171.561475 
L 72.198727 -172.105167 
L 70.755636 -172.687062 
L 69.312545 -173.307224 
L 67.869455 -173.965565 
L 66.426364 -174.66196 
L 64.983273 -175.396352 
L 63.540182 -176.16883 
L 62.097091 -176.979625 
L 60.654 -177.829026 
L 59.210909 -178.717218 
L 57.767818 -179.644087 
L 56.324727 -180.609047 
L 54.881636 -181.61094 
L 53.438545 -182.648043 
L 51.995455 -183.718182 
z
" id="md8028a0d6f" style="stroke:#ffffff;stroke-opacity:0.05;"/>
    </defs>
    <g clip-path="url(#p75a7fe8d2d)">
     <use style="fill:#b1400d;fill-opacity:0.05;stroke:#ffffff;stroke-opacity:0.05;" x="0" xlink:href="#md8028a0d6f" y="216"/>
    </g>
   </g>
   <g id="line2d_9">
    <path clip-path="url(#p75a7fe8d2d)" d="M 51.995455 69.051812 
L 53.438545 69.094864 
L 54.881636 69.129104 
L 56.324727 69.156329 
L 57.767818 69.177972 
L 59.210909 69.195175 
L 60.654 69.208848 
L 62.097091 69.219715 
L 63.540182 69.228352 
L 64.983273 69.235217 
L 66.426364 69.240675 
L 67.869455 69.245016 
L 69.312545 69.24847 
L 70.755636 69.251221 
L 72.198727 69.253416 
L 73.641818 69.255171 
L 75.084909 69.256579 
L 76.528 69.257717 
L 77.971091 69.258643 
L 79.414182 69.259409 
L 80.857273 69.260053 
L 82.300364 69.260611 
L 83.743455 69.261112 
L 85.186545 69.261583 
L 86.629636 69.26205 
L 88.072727 69.262536 
L 89.515818 69.263068 
L 90.958909 69.263674 
L 92.402 69.264386 
L 93.845091 69.265243 
L 95.288182 69.26629 
L 96.731273 69.267582 
L 98.174364 69.269189 
L 99.617455 69.271195 
L 101.060545 69.273709 
L 102.503636 69.276862 
L 103.946727 69.280824 
L 105.389818 69.285805 
L 106.832909 69.292069 
L 108.276 69.299949 
L 109.719091 69.309863 
L 111.162182 69.322338 
L 112.605273 69.338034 
L 114.048364 69.357781 
L 115.491455 69.382623 
L 116.934545 69.413868 
L 118.377636 69.453159 
L 119.820727 69.502553 
L 121.263818 69.564627 
L 122.706909 69.642601 
L 124.15 69.740491 
L 125.593091 69.863296 
L 127.036182 70.017221 
L 128.479273 70.209934 
L 129.922364 70.450872 
L 131.365455 70.751572 
L 132.808545 71.126035 
L 134.251636 71.591085 
L 135.694727 72.166678 
L 137.137818 72.876109 
L 138.580909 73.74599 
L 140.024 74.805874 
L 141.467091 76.087341 
L 142.910182 77.622346 
L 144.353273 79.440665 
L 145.796364 81.566353 
L 147.239455 84.013374 
L 148.682545 86.780839 
L 150.125636 89.848699 
L 151.568727 93.175034 
L 153.011818 96.696091 
L 154.454909 100.329849 
L 155.898 103.983014 
L 157.341091 107.560325 
L 158.784182 110.974287 
L 160.227273 114.153283 
L 161.670364 117.046571 
L 163.113455 119.625687 
L 164.556545 121.882711 
L 165.999636 123.826458 
L 167.442727 125.477788 
L 168.885818 126.865018 
L 170.328909 128.020035 
L 171.772 128.975372 
L 173.215091 129.762242 
L 174.658182 130.409388 
L 176.101273 130.94256 
L 177.544364 131.384434 
L 178.987455 131.754805 
L 180.430545 132.070959 
L 181.873636 132.348127 
L 183.316727 132.599982 
L 184.759818 132.839149 
L 186.202909 133.077716 
L 187.646 133.327749 
L 189.089091 133.601795 
L 190.532182 133.9134 
L 191.975273 134.277616 
L 193.418364 134.711502 
L 194.861455 135.234586 
L 196.304545 135.869241 
" style="fill:none;opacity:0.9;stroke:#b1400d;stroke-linecap:round;stroke-width:1.5;"/>
   </g>
   <g id="line2d_10">
    <path clip-path="url(#p75a7fe8d2d)" d="M 51.995455 69.261678 
L 53.438545 69.261678 
L 54.881636 69.261679 
L 56.324727 69.26168 
L 57.767818 69.261681 
L 59.210909 69.261682 
L 60.654 69.261684 
L 62.097091 69.261685 
L 63.540182 69.261688 
L 64.983273 69.261691 
L 66.426364 69.261695 
L 67.869455 69.2617 
L 69.312545 69.261706 
L 70.755636 69.261714 
L 72.198727 69.261723 
L 73.641818 69.261735 
L 75.084909 69.261751 
L 76.528 69.26177 
L 77.971091 69.261794 
L 79.414182 69.261825 
L 80.857273 69.261864 
L 82.300364 69.261912 
L 83.743455 69.261974 
L 85.186545 69.262051 
L 86.629636 69.262147 
L 88.072727 69.26227 
L 89.515818 69.262423 
L 90.958909 69.262617 
L 92.402 69.26286 
L 93.845091 69.263167 
L 95.288182 69.263553 
L 96.731273 69.264039 
L 98.174364 69.26465 
L 99.617455 69.26542 
L 101.060545 69.26639 
L 102.503636 69.26761 
L 103.946727 69.269146 
L 105.389818 69.27108 
L 106.832909 69.273515 
L 108.276 69.276579 
L 109.719091 69.280437 
L 111.162182 69.285293 
L 112.605273 69.291405 
L 114.048364 69.299098 
L 115.491455 69.308781 
L 116.934545 69.320966 
L 118.377636 69.336299 
L 119.820727 69.355593 
L 121.263818 69.379865 
L 122.706909 69.410395 
L 124.15 69.448789 
L 125.593091 69.497058 
L 127.036182 69.557721 
L 128.479273 69.633926 
L 129.922364 69.729601 
L 131.365455 69.849639 
L 132.808545 70.000109 
L 134.251636 70.188522 
L 135.694727 70.424119 
L 137.137818 70.71821 
L 138.580909 71.084533 
L 140.024 71.539609 
L 141.467091 72.103069 
L 142.910182 72.797866 
L 144.353273 73.650284 
L 145.796364 74.689611 
L 147.239455 75.947278 
L 148.682545 77.455298 
L 150.125636 79.2438 
L 151.568727 81.337592 
L 153.011818 83.751855 
L 154.454909 86.487385 
L 155.898 89.526198 
L 157.341091 92.8286 
L 158.784182 96.332901 
L 160.227273 99.958615 
L 161.670364 103.61314 
L 163.113455 107.200909 
L 164.556545 110.63317 
L 165.999636 113.83634 
L 167.442727 116.757348 
L 168.885818 119.365389 
L 170.328909 121.650456 
L 171.772 123.619667 
L 173.215091 125.292613 
L 174.658182 126.696704 
L 176.101273 127.863181 
L 177.544364 128.824066 
L 178.987455 129.610077 
L 180.430545 130.249368 
L 181.873636 130.766909 
L 183.316727 131.184309 
L 184.759818 131.519921 
L 186.202909 131.78911 
L 187.646 132.0046 
L 189.089091 132.17683 
L 190.532182 132.314313 
L 191.975273 132.423949 
L 193.418364 132.511308 
L 194.861455 132.580872 
L 196.304545 132.636237 
" style="fill:none;opacity:0.7;stroke:#000000;stroke-linecap:round;stroke-width:1.5;"/>
   </g>
   <g id="line2d_11">
    <path clip-path="url(#p75a7fe8d2d)" d="M 51.995455 32.281818 
L 53.438545 33.351957 
L 54.881636 34.38906 
L 56.324727 35.390953 
L 57.767818 36.355913 
L 59.210909 37.282782 
L 60.654 38.170974 
L 62.097091 39.020375 
L 63.540182 39.83117 
L 64.983273 40.603648 
L 66.426364 41.33804 
L 67.869455 42.034435 
L 69.312545 42.692776 
L 70.755636 43.312938 
L 72.198727 43.894833 
L 73.641818 44.438525 
L 75.084909 44.94433 
L 76.528 45.412886 
L 77.971091 45.845205 
L 79.414182 46.242689 
L 80.857273 46.607124 
L 82.300364 46.940663 
L 83.743455 47.245811 
L 85.186545 47.525436 
L 86.629636 47.782788 
L 88.072727 48.021536 
L 89.515818 48.245794 
L 90.958909 48.460122 
L 92.402 48.6695 
L 93.845091 48.879272 
L 95.288182 49.09509 
L 96.731273 49.322852 
L 98.174364 49.56865 
L 99.617455 49.838719 
L 101.060545 50.139364 
L 102.503636 50.476843 
L 103.946727 50.857171 
L 105.389818 51.285824 
L 106.832909 51.767295 
L 108.276 52.304454 
L 109.719091 52.897656 
L 111.162182 53.543497 
L 112.605273 54.233123 
L 114.048364 54.950005 
L 115.491455 55.667225 
L 116.934545 56.344617 
L 118.377636 56.926911 
L 119.820727 57.345237 
L 121.263818 57.525288 
L 122.706909 57.403447 
L 124.15 56.945634 
L 125.593091 56.157692 
L 127.036182 55.080767 
L 128.479273 53.776946 
L 129.922364 52.315244 
L 131.365455 50.763224 
L 132.808545 49.183987 
L 134.251636 47.636292 
L 135.694727 46.175952 
L 137.137818 44.857417 
L 138.580909 43.734967 
L 140.024 42.863212 
L 141.467091 42.296694 
L 142.910182 42.088438 
L 144.353273 42.287371 
L 145.796364 42.934642 
L 147.239455 44.059047 
L 148.682545 45.6721 
L 150.125636 47.763607 
L 151.568727 50.298901 
L 153.011818 53.218895 
L 154.454909 56.443709 
L 155.898 59.87975 
L 157.341091 63.42911 
L 158.784182 66.999314 
L 160.227273 70.511377 
L 161.670364 73.904676 
L 163.113455 77.138234 
L 164.556545 80.188943 
L 165.999636 83.047868 
L 167.442727 85.715806 
L 168.885818 88.19905 
L 170.328909 90.505906 
L 171.772 92.644179 
L 173.215091 94.6196 
L 174.658182 96.435009 
L 176.101273 98.090124 
L 177.544364 99.581697 
L 178.987455 100.903938 
L 180.430545 102.049146 
L 181.873636 103.008523 
L 183.316727 103.773231 
L 184.759818 104.335798 
L 186.202909 104.691949 
L 187.646 104.842838 
L 189.089091 104.797386 
L 190.532182 104.574166 
L 191.975273 104.202164 
L 193.418364 103.720166 
L 194.861455 103.175129 
L 196.304545 102.620299 
" style="fill:none;opacity:0.45;stroke:#b1400d;stroke-dasharray:2.775,1.2;stroke-dashoffset:0;stroke-width:0.75;"/>
   </g>
   <g id="line2d_12">
    <path clip-path="url(#p75a7fe8d2d)" d="M 51.995455 105.821806 
L 53.438545 104.837771 
L 54.881636 103.869148 
L 56.324727 102.921704 
L 57.767818 102.00003 
L 59.210909 101.107568 
L 60.654 100.246722 
L 62.097091 99.419055 
L 63.540182 98.625534 
L 64.983273 97.866786 
L 66.426364 97.14331 
L 67.869455 96.455596 
L 69.312545 95.804163 
L 70.755636 95.189504 
L 72.198727 94.611998 
L 73.641818 94.071816 
L 75.084909 93.568829 
L 76.528 93.102548 
L 77.971091 92.672082 
L 79.414182 92.276128 
L 80.857273 91.912982 
L 82.300364 91.580559 
L 83.743455 91.276413 
L 85.186545 90.99773 
L 86.629636 90.741311 
L 88.072727 90.503536 
L 89.515818 90.280342 
L 90.958909 90.067225 
L 92.402 89.859273 
L 93.845091 89.651214 
L 95.288182 89.437489 
L 96.731273 89.212312 
L 98.174364 88.969728 
L 99.617455 88.703672 
L 101.060545 88.408053 
L 102.503636 88.076882 
L 103.946727 87.704477 
L 105.389818 87.285785 
L 106.832909 86.816842 
L 108.276 86.295444 
L 109.719091 85.722071 
L 111.162182 85.101179 
L 112.605273 84.442945 
L 114.048364 83.765557 
L 115.491455 83.098021 
L 116.934545 82.483119 
L 118.377636 81.979407 
L 119.820727 81.659869 
L 121.263818 81.603967 
L 122.706909 81.881755 
L 124.15 82.535347 
L 125.593091 83.5689 
L 127.036182 84.953675 
L 128.479273 86.642923 
L 129.922364 88.5865 
L 131.365455 90.73992 
L 132.808545 93.068084 
L 134.251636 95.545878 
L 135.694727 98.157404 
L 137.137818 100.894801 
L 138.580909 103.757013 
L 140.024 106.748536 
L 141.467091 109.877988 
L 142.910182 113.156255 
L 144.353273 116.593958 
L 145.796364 120.198064 
L 147.239455 123.967701 
L 148.682545 127.889578 
L 150.125636 131.933792 
L 151.568727 136.051168 
L 153.011818 140.173287 
L 154.454909 144.21599 
L 155.898 148.086277 
L 157.341091 151.691539 
L 158.784182 154.949261 
L 160.227273 157.79519 
L 161.670364 160.188465 
L 163.113455 162.11314 
L 164.556545 163.57648 
L 165.999636 164.605049 
L 167.442727 165.23977 
L 168.885818 165.530985 
L 170.328909 165.534163 
L 171.772 165.306565 
L 173.215091 164.904885 
L 174.658182 164.383767 
L 176.101273 163.794997 
L 177.544364 163.187171 
L 178.987455 162.605672 
L 180.430545 162.092772 
L 181.873636 161.687732 
L 183.316727 161.426734 
L 184.759818 161.3425 
L 186.202909 161.463484 
L 187.646 161.812661 
L 189.089091 162.406205 
L 190.532182 163.252634 
L 191.975273 164.353068 
L 193.418364 165.702839 
L 194.861455 167.294042 
L 196.304545 169.118182 
" style="fill:none;opacity:0.45;stroke:#b1400d;stroke-dasharray:2.775,1.2;stroke-dashoffset:0;stroke-width:0.75;"/>
   </g>
   <g id="patch_3">
    <path d="M 44.78 175.96 
L 44.78 25.44 
" style="fill:none;stroke:#262626;stroke-linecap:square;stroke-linejoin:miter;stroke-width:0.8;"/>
   </g>
   <g id="patch_4">
    <path d="M 44.78 175.96 
L 203.52 175.96 
" style="fill:none;stroke:#262626;stroke-linecap:square;stroke-linejoin:miter;stroke-width:0.8;"/>
   </g>
   <g id="text_11">
    <!-- Epik-macro SM01 -->
    <defs>
     <path d="M 7.90625 0 
L 7.90625 71.578125 
L 59.671875 71.578125 
L 59.671875 63.140625 
L 17.390625 63.140625 
L 17.390625 41.21875 
L 56.984375 41.21875 
L 56.984375 32.8125 
L 17.390625 32.8125 
L 17.390625 8.453125 
L 61.328125 8.453125 
L 61.328125 0 
z
" id="ArialMT-45"/>
     <path d="M 6.640625 61.46875 
L 6.640625 71.578125 
L 15.4375 71.578125 
L 15.4375 61.46875 
z
M 6.640625 0 
L 6.640625 51.859375 
L 15.4375 51.859375 
L 15.4375 0 
z
" id="ArialMT-69"/>
     <path d="M 6.640625 0 
L 6.640625 71.578125 
L 15.4375 71.578125 
L 15.4375 30.765625 
L 36.234375 51.859375 
L 47.609375 51.859375 
L 27.78125 32.625 
L 49.609375 0 
L 38.765625 0 
L 21.625 26.515625 
L 15.4375 20.5625 
L 15.4375 0 
z
" id="ArialMT-6b"/>
     <path d="M 3.171875 21.484375 
L 3.171875 30.328125 
L 30.171875 30.328125 
L 30.171875 21.484375 
z
" id="ArialMT-2d"/>
     <path d="M 6.59375 0 
L 6.59375 51.859375 
L 14.453125 51.859375 
L 14.453125 44.578125 
Q 16.890625 48.390625 20.9375 50.703125 
Q 25 53.03125 30.171875 53.03125 
Q 35.9375 53.03125 39.625 50.640625 
Q 43.3125 48.25 44.828125 43.953125 
Q 50.984375 53.03125 60.84375 53.03125 
Q 68.5625 53.03125 72.703125 48.75 
Q 76.859375 44.484375 76.859375 35.59375 
L 76.859375 0 
L 68.109375 0 
L 68.109375 32.671875 
Q 68.109375 37.9375 67.25 40.25 
Q 66.40625 42.578125 64.15625 43.984375 
Q 61.921875 45.40625 58.890625 45.40625 
Q 53.421875 45.40625 49.796875 41.765625 
Q 46.1875 38.140625 46.1875 30.125 
L 46.1875 0 
L 37.40625 0 
L 37.40625 33.6875 
Q 37.40625 39.546875 35.25 42.46875 
Q 33.109375 45.40625 28.21875 45.40625 
Q 24.515625 45.40625 21.359375 43.453125 
Q 18.21875 41.5 16.796875 37.734375 
Q 15.375 33.984375 15.375 26.90625 
L 15.375 0 
z
" id="ArialMT-6d"/>
     <path d="M 40.4375 6.390625 
Q 35.546875 2.25 31.03125 0.53125 
Q 26.515625 -1.171875 21.34375 -1.171875 
Q 12.796875 -1.171875 8.203125 3 
Q 3.609375 7.171875 3.609375 13.671875 
Q 3.609375 17.484375 5.34375 20.625 
Q 7.078125 23.78125 9.890625 25.6875 
Q 12.703125 27.59375 16.21875 28.5625 
Q 18.796875 29.25 24.03125 29.890625 
Q 34.671875 31.15625 39.703125 32.90625 
Q 39.75 34.71875 39.75 35.203125 
Q 39.75 40.578125 37.25 42.78125 
Q 33.890625 45.75 27.25 45.75 
Q 21.046875 45.75 18.09375 43.578125 
Q 15.140625 41.40625 13.71875 35.890625 
L 5.125 37.0625 
Q 6.296875 42.578125 8.984375 45.96875 
Q 11.671875 49.359375 16.75 51.1875 
Q 21.828125 53.03125 28.515625 53.03125 
Q 35.15625 53.03125 39.296875 51.46875 
Q 43.453125 49.90625 45.40625 47.53125 
Q 47.359375 45.171875 48.140625 41.546875 
Q 48.578125 39.3125 48.578125 33.453125 
L 48.578125 21.734375 
Q 48.578125 9.46875 49.140625 6.21875 
Q 49.703125 2.984375 51.375 0 
L 42.1875 0 
Q 40.828125 2.734375 40.4375 6.390625 
z
M 39.703125 26.03125 
Q 34.90625 24.078125 25.34375 22.703125 
Q 19.921875 21.921875 17.671875 20.9375 
Q 15.4375 19.96875 14.203125 18.09375 
Q 12.984375 16.21875 12.984375 13.921875 
Q 12.984375 10.40625 15.640625 8.0625 
Q 18.3125 5.71875 23.4375 5.71875 
Q 28.515625 5.71875 32.46875 7.9375 
Q 36.421875 10.15625 38.28125 14.015625 
Q 39.703125 17 39.703125 22.796875 
z
" id="ArialMT-61"/>
     <path d="M 40.4375 19 
L 49.078125 17.875 
Q 47.65625 8.9375 41.8125 3.875 
Q 35.984375 -1.171875 27.484375 -1.171875 
Q 16.84375 -1.171875 10.375 5.78125 
Q 3.90625 12.75 3.90625 25.734375 
Q 3.90625 34.125 6.6875 40.421875 
Q 9.46875 46.734375 15.15625 49.875 
Q 20.84375 53.03125 27.546875 53.03125 
Q 35.984375 53.03125 41.359375 48.75 
Q 46.734375 44.484375 48.25 36.625 
L 39.703125 35.296875 
Q 38.484375 40.53125 35.375 43.15625 
Q 32.28125 45.796875 27.875 45.796875 
Q 21.234375 45.796875 17.078125 41.03125 
Q 12.9375 36.28125 12.9375 25.984375 
Q 12.9375 15.53125 16.9375 10.796875 
Q 20.953125 6.0625 27.390625 6.0625 
Q 32.5625 6.0625 36.03125 9.234375 
Q 39.5 12.40625 40.4375 19 
z
" id="ArialMT-63"/>
     <path d="M 6.5 0 
L 6.5 51.859375 
L 14.40625 51.859375 
L 14.40625 44 
Q 17.4375 49.515625 20 51.265625 
Q 22.5625 53.03125 25.640625 53.03125 
Q 30.078125 53.03125 34.671875 50.203125 
L 31.640625 42.046875 
Q 28.421875 43.953125 25.203125 43.953125 
Q 22.3125 43.953125 20.015625 42.21875 
Q 17.71875 40.484375 16.75 37.40625 
Q 15.28125 32.71875 15.28125 27.15625 
L 15.28125 0 
z
" id="ArialMT-72"/>
     <path d="M 3.328125 25.921875 
Q 3.328125 40.328125 11.328125 47.265625 
Q 18.015625 53.03125 27.640625 53.03125 
Q 38.328125 53.03125 45.109375 46.015625 
Q 51.90625 39.015625 51.90625 26.65625 
Q 51.90625 16.65625 48.90625 10.90625 
Q 45.90625 5.171875 40.15625 2 
Q 34.421875 -1.171875 27.640625 -1.171875 
Q 16.75 -1.171875 10.03125 5.8125 
Q 3.328125 12.796875 3.328125 25.921875 
z
M 12.359375 25.921875 
Q 12.359375 15.96875 16.703125 11.015625 
Q 21.046875 6.0625 27.640625 6.0625 
Q 34.1875 6.0625 38.53125 11.03125 
Q 42.875 16.015625 42.875 26.21875 
Q 42.875 35.84375 38.5 40.796875 
Q 34.125 45.75 27.640625 45.75 
Q 21.046875 45.75 16.703125 40.8125 
Q 12.359375 35.890625 12.359375 25.921875 
z
" id="ArialMT-6f"/>
     <path id="ArialMT-20"/>
     <path d="M 4.5 23 
L 13.421875 23.78125 
Q 14.0625 18.40625 16.375 14.96875 
Q 18.703125 11.53125 23.578125 9.40625 
Q 28.46875 7.28125 34.578125 7.28125 
Q 39.984375 7.28125 44.140625 8.890625 
Q 48.296875 10.5 50.3125 13.296875 
Q 52.34375 16.109375 52.34375 19.4375 
Q 52.34375 22.796875 50.390625 25.3125 
Q 48.4375 27.828125 43.953125 29.546875 
Q 41.0625 30.671875 31.203125 33.03125 
Q 21.34375 35.40625 17.390625 37.5 
Q 12.25 40.1875 9.734375 44.15625 
Q 7.234375 48.140625 7.234375 53.078125 
Q 7.234375 58.5 10.296875 63.203125 
Q 13.375 67.921875 19.28125 70.359375 
Q 25.203125 72.796875 32.421875 72.796875 
Q 40.375 72.796875 46.453125 70.234375 
Q 52.546875 67.671875 55.8125 62.6875 
Q 59.078125 57.71875 59.328125 51.421875 
L 50.25 50.734375 
Q 49.515625 57.515625 45.28125 60.984375 
Q 41.0625 64.453125 32.8125 64.453125 
Q 24.21875 64.453125 20.28125 61.296875 
Q 16.359375 58.15625 16.359375 53.71875 
Q 16.359375 49.859375 19.140625 47.359375 
Q 21.875 44.875 33.421875 42.265625 
Q 44.96875 39.65625 49.265625 37.703125 
Q 55.515625 34.8125 58.484375 30.390625 
Q 61.46875 25.984375 61.46875 20.21875 
Q 61.46875 14.5 58.203125 9.4375 
Q 54.9375 4.390625 48.796875 1.578125 
Q 42.671875 -1.21875 35.015625 -1.21875 
Q 25.296875 -1.21875 18.71875 1.609375 
Q 12.15625 4.4375 8.421875 10.125 
Q 4.6875 15.828125 4.5 23 
z
" id="ArialMT-53"/>
     <path d="M 7.421875 0 
L 7.421875 71.578125 
L 21.6875 71.578125 
L 38.625 20.90625 
Q 40.96875 13.8125 42.046875 10.296875 
Q 43.265625 14.203125 45.84375 21.78125 
L 62.984375 71.578125 
L 75.734375 71.578125 
L 75.734375 0 
L 66.609375 0 
L 66.609375 59.90625 
L 45.796875 0 
L 37.25 0 
L 16.546875 60.9375 
L 16.546875 0 
z
" id="ArialMT-4d"/>
    </defs>
    <g style="fill:#262626;" transform="translate(76.471563 19.44)scale(0.12 -0.12)">
     <use xlink:href="#ArialMT-45"/>
     <use x="66.699219" xlink:href="#ArialMT-70"/>
     <use x="122.314453" xlink:href="#ArialMT-69"/>
     <use x="144.53125" xlink:href="#ArialMT-6b"/>
     <use x="194.53125" xlink:href="#ArialMT-2d"/>
     <use x="227.832031" xlink:href="#ArialMT-6d"/>
     <use x="311.132812" xlink:href="#ArialMT-61"/>
     <use x="366.748047" xlink:href="#ArialMT-63"/>
     <use x="416.748047" xlink:href="#ArialMT-72"/>
     <use x="450.048828" xlink:href="#ArialMT-6f"/>
     <use x="505.664062" xlink:href="#ArialMT-20"/>
     <use x="533.447266" xlink:href="#ArialMT-53"/>
     <use x="600.146484" xlink:href="#ArialMT-4d"/>
     <use x="683.447266" xlink:href="#ArialMT-30"/>
     <use x="739.0625" xlink:href="#ArialMT-31"/>
    </g>
   </g>
  </g>
 </g>
 <defs>
  <clipPath id="p75a7fe8d2d">
   <rect height="150.52" width="158.74" x="44.78" y="25.44"/>
  </clipPath>
 </defs>
</svg>
