<?xml version="1.0" encoding="utf-8" standalone="no"?>
<!DOCTYPE svg PUBLIC "-//W3C//DTD SVG 1.1//EN"
  "http://www.w3.org/Graphics/SVG/1.1/DTD/svg11.dtd">
<!-- Created with matplotlib (http://matplotlib.org/) -->
<svg height="216pt" version="1.1" viewBox="0 0 216 216" width="216pt" xmlns="http://www.w3.org/2000/svg" xmlns:xlink="http://www.w3.org/1999/xlink">
 <defs>
  <style type="text/css">
*{stroke-linecap:butt;stroke-linejoin:round;}
  </style>
 </defs>
 <g id="figure_1">
  <g id="patch_1">
   <path d="M 0 216 
L 216 216 
L 216 0 
L 0 0 
z
" style="fill:#ffffff;"/>
  </g>
  <g id="axes_1">
   <g id="patch_2">
    <path d="M 44.78 175.96 
L 203.52 175.96 
L 203.52 25.44 
L 44.78 25.44 
z
" style="fill:#ffffff;"/>
   </g>
   <g id="matplotlib.axis_1">
    <g id="xtick_1">
     <g id="line2d_1">
      <defs>
       <path d="M 0 0 
L 0 3.5 
" id="mf5a1cab43f" style="stroke:#262626;stroke-width:0.8;"/>
      </defs>
      <g>
       <use style="fill:#262626;stroke:#262626;stroke-width:0.8;" x="51.995455" xlink:href="#mf5a1cab43f" y="175.96"/>
      </g>
     </g>
     <g id="text_1">
      <!-- 2 -->
      <defs>
       <path d="M 50.34375 8.453125 
L 50.34375 0 
L 3.03125 0 
Q 2.9375 3.171875 4.046875 6.109375 
Q 5.859375 10.9375 9.828125 15.625 
Q 13.8125 20.3125 21.34375 26.46875 
Q 33.015625 36.03125 37.109375 41.625 
Q 41.21875 47.21875 41.21875 52.203125 
Q 41.21875 57.421875 37.46875 61 
Q 33.734375 64.59375 27.734375 64.59375 
Q 21.390625 64.59375 17.578125 60.78125 
Q 13.765625 56.984375 13.71875 50.25 
L 4.6875 51.171875 
Q 5.609375 61.28125 11.65625 66.578125 
Q 17.71875 71.875 27.9375 71.875 
Q 38.234375 71.875 44.234375 66.15625 
Q 50.25 60.453125 50.25 52 
Q 50.25 47.703125 48.484375 43.546875 
Q 46.734375 39.40625 42.65625 34.8125 
Q 38.578125 30.21875 29.109375 22.21875 
Q 21.1875 15.578125 18.9375 13.203125 
Q 16.703125 10.84375 15.234375 8.453125 
z
" id="ArialMT-32"/>
      </defs>
      <g style="fill:#262626;" transform="translate(49.214986 190.117812)scale(0.1 -0.1)">
       <use xlink:href="#ArialMT-32"/>
      </g>
     </g>
    </g>
    <g id="xtick_2">
     <g id="line2d_2">
      <g>
       <use style="fill:#262626;stroke:#262626;stroke-width:0.8;" x="80.857273" xlink:href="#mf5a1cab43f" y="175.96"/>
      </g>
     </g>
     <g id="text_2">
      <!-- 4 -->
      <defs>
       <path d="M 32.328125 0 
L 32.328125 17.140625 
L 1.265625 17.140625 
L 1.265625 25.203125 
L 33.9375 71.578125 
L 41.109375 71.578125 
L 41.109375 25.203125 
L 50.78125 25.203125 
L 50.78125 17.140625 
L 41.109375 17.140625 
L 41.109375 0 
z
M 32.328125 25.203125 
L 32.328125 57.46875 
L 9.90625 25.203125 
z
" id="ArialMT-34"/>
      </defs>
      <g style="fill:#262626;" transform="translate(78.076804 190.117812)scale(0.1 -0.1)">
       <use xlink:href="#ArialMT-34"/>
      </g>
     </g>
    </g>
    <g id="xtick_3">
     <g id="line2d_3">
      <g>
       <use style="fill:#262626;stroke:#262626;stroke-width:0.8;" x="109.719091" xlink:href="#mf5a1cab43f" y="175.96"/>
      </g>
     </g>
     <g id="text_3">
      <!-- 6 -->
      <defs>
       <path d="M 49.75 54.046875 
L 41.015625 53.375 
Q 39.84375 58.546875 37.703125 60.890625 
Q 34.125 64.65625 28.90625 64.65625 
Q 24.703125 64.65625 21.53125 62.3125 
Q 17.390625 59.28125 14.984375 53.46875 
Q 12.59375 47.65625 12.5 36.921875 
Q 15.671875 41.75 20.265625 44.09375 
Q 24.859375 46.4375 29.890625 46.4375 
Q 38.671875 46.4375 44.84375 39.96875 
Q 51.03125 33.5 51.03125 23.25 
Q 51.03125 16.5 48.125 10.71875 
Q 45.21875 4.9375 40.140625 1.859375 
Q 35.0625 -1.21875 28.609375 -1.21875 
Q 17.625 -1.21875 10.6875 6.859375 
Q 3.765625 14.9375 3.765625 33.5 
Q 3.765625 54.25 11.421875 63.671875 
Q 18.109375 71.875 29.4375 71.875 
Q 37.890625 71.875 43.28125 67.140625 
Q 48.6875 62.40625 49.75 54.046875 
z
M 13.875 23.1875 
Q 13.875 18.65625 15.796875 14.5 
Q 17.71875 10.359375 21.1875 8.171875 
Q 24.65625 6 28.46875 6 
Q 34.03125 6 38.03125 10.484375 
Q 42.046875 14.984375 42.046875 22.703125 
Q 42.046875 30.125 38.078125 34.390625 
Q 34.125 38.671875 28.125 38.671875 
Q 22.171875 38.671875 18.015625 34.390625 
Q 13.875 30.125 13.875 23.1875 
z
" id="ArialMT-36"/>
      </defs>
      <g style="fill:#262626;" transform="translate(106.938622 190.117812)scale(0.1 -0.1)">
       <use xlink:href="#ArialMT-36"/>
      </g>
     </g>
    </g>
    <g id="xtick_4">
     <g id="line2d_4">
      <g>
       <use style="fill:#262626;stroke:#262626;stroke-width:0.8;" x="138.580909" xlink:href="#mf5a1cab43f" y="175.96"/>
      </g>
     </g>
     <g id="text_4">
      <!-- 8 -->
      <defs>
       <path d="M 17.671875 38.8125 
Q 12.203125 40.828125 9.5625 44.53125 
Q 6.9375 48.25 6.9375 53.421875 
Q 6.9375 61.234375 12.546875 66.546875 
Q 18.171875 71.875 27.484375 71.875 
Q 36.859375 71.875 42.578125 66.421875 
Q 48.296875 60.984375 48.296875 53.171875 
Q 48.296875 48.1875 45.671875 44.5 
Q 43.0625 40.828125 37.75 38.8125 
Q 44.34375 36.671875 47.78125 31.875 
Q 51.21875 27.09375 51.21875 20.453125 
Q 51.21875 11.28125 44.71875 5.03125 
Q 38.234375 -1.21875 27.640625 -1.21875 
Q 17.046875 -1.21875 10.546875 5.046875 
Q 4.046875 11.328125 4.046875 20.703125 
Q 4.046875 27.6875 7.59375 32.390625 
Q 11.140625 37.109375 17.671875 38.8125 
z
M 15.921875 53.71875 
Q 15.921875 48.640625 19.1875 45.40625 
Q 22.46875 42.1875 27.6875 42.1875 
Q 32.765625 42.1875 36.015625 45.375 
Q 39.265625 48.578125 39.265625 53.21875 
Q 39.265625 58.0625 35.90625 61.359375 
Q 32.5625 64.65625 27.59375 64.65625 
Q 22.5625 64.65625 19.234375 61.421875 
Q 15.921875 58.203125 15.921875 53.71875 
z
M 13.09375 20.65625 
Q 13.09375 16.890625 14.875 13.375 
Q 16.65625 9.859375 20.171875 7.921875 
Q 23.6875 6 27.734375 6 
Q 34.03125 6 38.125 10.046875 
Q 42.234375 14.109375 42.234375 20.359375 
Q 42.234375 26.703125 38.015625 30.859375 
Q 33.796875 35.015625 27.4375 35.015625 
Q 21.234375 35.015625 17.15625 30.90625 
Q 13.09375 26.8125 13.09375 20.65625 
z
" id="ArialMT-38"/>
      </defs>
      <g style="fill:#262626;" transform="translate(135.80044 190.117812)scale(0.1 -0.1)">
       <use xlink:href="#ArialMT-38"/>
      </g>
     </g>
    </g>
    <g id="xtick_5">
     <g id="line2d_5">
      <g>
       <use style="fill:#262626;stroke:#262626;stroke-width:0.8;" x="167.442727" xlink:href="#mf5a1cab43f" y="175.96"/>
      </g>
     </g>
     <g id="text_5">
      <!-- 10 -->
      <defs>
       <path d="M 37.25 0 
L 28.46875 0 
L 28.46875 56 
Q 25.296875 52.984375 20.140625 49.953125 
Q 14.984375 46.921875 10.890625 45.40625 
L 10.890625 53.90625 
Q 18.265625 57.375 23.78125 62.296875 
Q 29.296875 67.234375 31.59375 71.875 
L 37.25 71.875 
z
" id="ArialMT-31"/>
       <path d="M 4.15625 35.296875 
Q 4.15625 48 6.765625 55.734375 
Q 9.375 63.484375 14.515625 67.671875 
Q 19.671875 71.875 27.484375 71.875 
Q 33.25 71.875 37.59375 69.546875 
Q 41.9375 67.234375 44.765625 62.859375 
Q 47.609375 58.5 49.21875 52.21875 
Q 50.828125 45.953125 50.828125 35.296875 
Q 50.828125 22.703125 48.234375 14.96875 
Q 45.65625 7.234375 40.5 3 
Q 35.359375 -1.21875 27.484375 -1.21875 
Q 17.140625 -1.21875 11.234375 6.203125 
Q 4.15625 15.140625 4.15625 35.296875 
z
M 13.1875 35.296875 
Q 13.1875 17.671875 17.3125 11.828125 
Q 21.4375 6 27.484375 6 
Q 33.546875 6 37.671875 11.859375 
Q 41.796875 17.71875 41.796875 35.296875 
Q 41.796875 52.984375 37.671875 58.78125 
Q 33.546875 64.59375 27.390625 64.59375 
Q 21.34375 64.59375 17.71875 59.46875 
Q 13.1875 52.9375 13.1875 35.296875 
z
" id="ArialMT-30"/>
      </defs>
      <g style="fill:#262626;" transform="translate(161.88179 190.117812)scale(0.1 -0.1)">
       <use xlink:href="#ArialMT-31"/>
       <use x="55.615234" xlink:href="#ArialMT-30"/>
      </g>
     </g>
    </g>
    <g id="xtick_6">
     <g id="line2d_6">
      <g>
       <use style="fill:#262626;stroke:#262626;stroke-width:0.8;" x="196.304545" xlink:href="#mf5a1cab43f" y="175.96"/>
      </g>
     </g>
     <g id="text_6">
      <!-- 12 -->
      <g style="fill:#262626;" transform="translate(190.743608 190.117812)scale(0.1 -0.1)">
       <use xlink:href="#ArialMT-31"/>
       <use x="55.615234" xlink:href="#ArialMT-32"/>
      </g>
     </g>
    </g>
    <g id="text_7">
     <!-- pH -->
     <defs>
      <path d="M 6.59375 -19.875 
L 6.59375 51.859375 
L 14.59375 51.859375 
L 14.59375 45.125 
Q 17.4375 49.078125 21 51.046875 
Q 24.5625 53.03125 29.640625 53.03125 
Q 36.28125 53.03125 41.359375 49.609375 
Q 46.4375 46.1875 49.015625 39.953125 
Q 51.609375 33.734375 51.609375 26.3125 
Q 51.609375 18.359375 48.75 11.984375 
Q 45.90625 5.609375 40.453125 2.21875 
Q 35.015625 -1.171875 29 -1.171875 
Q 24.609375 -1.171875 21.109375 0.6875 
Q 17.625 2.546875 15.375 5.375 
L 15.375 -19.875 
z
M 14.546875 25.640625 
Q 14.546875 15.625 18.59375 10.84375 
Q 22.65625 6.0625 28.421875 6.0625 
Q 34.28125 6.0625 38.453125 11.015625 
Q 42.625 15.96875 42.625 26.375 
Q 42.625 36.28125 38.546875 41.203125 
Q 34.46875 46.140625 28.8125 46.140625 
Q 23.1875 46.140625 18.859375 40.890625 
Q 14.546875 35.640625 14.546875 25.640625 
z
" id="ArialMT-70"/>
      <path d="M 8.015625 0 
L 8.015625 71.578125 
L 17.484375 71.578125 
L 17.484375 42.1875 
L 54.6875 42.1875 
L 54.6875 71.578125 
L 64.15625 71.578125 
L 64.15625 0 
L 54.6875 0 
L 54.6875 33.734375 
L 17.484375 33.734375 
L 17.484375 0 
z
" id="ArialMT-48"/>
     </defs>
     <g style="fill:#262626;" transform="translate(117.758594 203.263125)scale(0.1 -0.1)">
      <use xlink:href="#ArialMT-70"/>
      <use x="55.615234" xlink:href="#ArialMT-48"/>
     </g>
    </g>
   </g>
   <g id="matplotlib.axis_2">
    <g id="ytick_1">
     <g id="line2d_7">
      <defs>
       <path d="M 0 0 
L -3.5 0 
" id="m79fb1f658a" style="stroke:#262626;stroke-width:0.8;"/>
      </defs>
      <g>
       <use style="fill:#262626;stroke:#262626;stroke-width:0.8;" x="44.78" xlink:href="#m79fb1f658a" y="174.654023"/>
      </g>
     </g>
     <g id="text_8">
      <!-- −2 -->
      <defs>
       <path d="M 52.828125 31.203125 
L 5.5625 31.203125 
L 5.5625 39.40625 
L 52.828125 39.40625 
z
" id="ArialMT-2212"/>
      </defs>
      <g style="fill:#262626;" transform="translate(26.378438 178.232929)scale(0.1 -0.1)">
       <use xlink:href="#ArialMT-2212"/>
       <use x="58.398438" xlink:href="#ArialMT-32"/>
      </g>
     </g>
    </g>
    <g id="ytick_2">
     <g id="line2d_8">
      <g>
       <use style="fill:#262626;stroke:#262626;stroke-width:0.8;" x="44.78" xlink:href="#m79fb1f658a" y="135.500921"/>
      </g>
     </g>
     <g id="text_9">
      <!-- −1 -->
      <g style="fill:#262626;" transform="translate(26.378438 139.079828)scale(0.1 -0.1)">
       <use xlink:href="#ArialMT-2212"/>
       <use x="58.398438" xlink:href="#ArialMT-31"/>
      </g>
     </g>
    </g>
    <g id="ytick_3">
     <g id="line2d_9">
      <g>
       <use style="fill:#262626;stroke:#262626;stroke-width:0.8;" x="44.78" xlink:href="#m79fb1f658a" y="96.34782"/>
      </g>
     </g>
     <g id="text_10">
      <!-- 0 -->
      <g style="fill:#262626;" transform="translate(32.219063 99.926726)scale(0.1 -0.1)">
       <use xlink:href="#ArialMT-30"/>
      </g>
     </g>
    </g>
    <g id="ytick_4">
     <g id="line2d_10">
      <g>
       <use style="fill:#262626;stroke:#262626;stroke-width:0.8;" x="44.78" xlink:href="#m79fb1f658a" y="57.194719"/>
      </g>
     </g>
     <g id="text_11">
      <!-- 1 -->
      <g style="fill:#262626;" transform="translate(32.219063 60.773625)scale(0.1 -0.1)">
       <use xlink:href="#ArialMT-31"/>
      </g>
     </g>
    </g>
    <g id="text_12">
     <!-- $\langle q_\mathsf{total} \rangle$ -->
     <defs>
      <path d="M 8.9375 31.34375 
L 22.703125 75.875 
L 31 75.875 
L 17.234375 31.34375 
L 31 -13.1875 
L 22.703125 -13.1875 
z
" id="DejaVuSans-27e8"/>
      <path d="M 41.703125 8.203125 
Q 38.09375 3.46875 33.171875 1.015625 
Q 28.265625 -1.421875 22.3125 -1.421875 
Q 14.015625 -1.421875 9.296875 4.171875 
Q 4.59375 9.765625 4.59375 19.578125 
Q 4.59375 27.484375 7.5 34.859375 
Q 10.40625 42.234375 15.828125 48.09375 
Q 19.34375 51.90625 23.90625 53.953125 
Q 28.46875 56 33.5 56 
Q 39.546875 56 43.453125 53.609375 
Q 47.359375 51.21875 49.125 46.390625 
L 50.6875 54.59375 
L 59.71875 54.59375 
L 45.125 -20.609375 
L 36.078125 -20.609375 
z
M 13.921875 20.90625 
Q 13.921875 13.671875 16.9375 9.890625 
Q 19.96875 6.109375 25.6875 6.109375 
Q 34.1875 6.109375 40.1875 14.234375 
Q 46.1875 22.359375 46.1875 33.984375 
Q 46.1875 41.015625 43.078125 44.75 
Q 39.984375 48.484375 34.1875 48.484375 
Q 29.9375 48.484375 26.3125 46.5 
Q 22.703125 44.53125 20.015625 40.71875 
Q 17.1875 36.71875 15.546875 31.34375 
Q 13.921875 25.984375 13.921875 20.90625 
z
" id="DejaVuSans-Oblique-71"/>
      <path d="M 18.3125 70.21875 
L 18.3125 54.6875 
L 36.8125 54.6875 
L 36.8125 47.703125 
L 18.3125 47.703125 
L 18.3125 18.015625 
Q 18.3125 11.328125 20.140625 9.421875 
Q 21.96875 7.515625 27.59375 7.515625 
L 36.8125 7.515625 
L 36.8125 0 
L 27.59375 0 
Q 17.1875 0 13.234375 3.875 
Q 9.28125 7.765625 9.28125 18.015625 
L 9.28125 47.703125 
L 2.6875 47.703125 
L 2.6875 54.6875 
L 9.28125 54.6875 
L 9.28125 70.21875 
z
" id="DejaVuSans-74"/>
      <path d="M 30.609375 48.390625 
Q 23.390625 48.390625 19.1875 42.75 
Q 14.984375 37.109375 14.984375 27.296875 
Q 14.984375 17.484375 19.15625 11.84375 
Q 23.34375 6.203125 30.609375 6.203125 
Q 37.796875 6.203125 41.984375 11.859375 
Q 46.1875 17.53125 46.1875 27.296875 
Q 46.1875 37.015625 41.984375 42.703125 
Q 37.796875 48.390625 30.609375 48.390625 
z
M 30.609375 56 
Q 42.328125 56 49.015625 48.375 
Q 55.71875 40.765625 55.71875 27.296875 
Q 55.71875 13.875 49.015625 6.21875 
Q 42.328125 -1.421875 30.609375 -1.421875 
Q 18.84375 -1.421875 12.171875 6.21875 
Q 5.515625 13.875 5.515625 27.296875 
Q 5.515625 40.765625 12.171875 48.375 
Q 18.84375 56 30.609375 56 
z
" id="DejaVuSans-6f"/>
      <path d="M 34.28125 27.484375 
Q 23.390625 27.484375 19.1875 25 
Q 14.984375 22.515625 14.984375 16.5 
Q 14.984375 11.71875 18.140625 8.90625 
Q 21.296875 6.109375 26.703125 6.109375 
Q 34.1875 6.109375 38.703125 11.40625 
Q 43.21875 16.703125 43.21875 25.484375 
L 43.21875 27.484375 
z
M 52.203125 31.203125 
L 52.203125 0 
L 43.21875 0 
L 43.21875 8.296875 
Q 40.140625 3.328125 35.546875 0.953125 
Q 30.953125 -1.421875 24.3125 -1.421875 
Q 15.921875 -1.421875 10.953125 3.296875 
Q 6 8.015625 6 15.921875 
Q 6 25.140625 12.171875 29.828125 
Q 18.359375 34.515625 30.609375 34.515625 
L 43.21875 34.515625 
L 43.21875 35.40625 
Q 43.21875 41.609375 39.140625 45 
Q 35.0625 48.390625 27.6875 48.390625 
Q 23 48.390625 18.546875 47.265625 
Q 14.109375 46.140625 10.015625 43.890625 
L 10.015625 52.203125 
Q 14.9375 54.109375 19.578125 55.046875 
Q 24.21875 56 28.609375 56 
Q 40.484375 56 46.34375 49.84375 
Q 52.203125 43.703125 52.203125 31.203125 
z
" id="DejaVuSans-61"/>
      <path d="M 9.421875 75.984375 
L 18.40625 75.984375 
L 18.40625 0 
L 9.421875 0 
z
" id="DejaVuSans-6c"/>
      <path d="M 30.078125 31.34375 
L 16.3125 -13.1875 
L 8.015625 -13.1875 
L 21.78125 31.34375 
L 8.015625 75.875 
L 16.3125 75.875 
z
" id="DejaVuSans-27e9"/>
     </defs>
     <g style="fill:#262626;" transform="translate(20.278438 115.95)rotate(-90)scale(0.1 -0.1)">
      <use transform="translate(0 0.125)" xlink:href="#DejaVuSans-27e8"/>
      <use transform="translate(39.013672 0.125)" xlink:href="#DejaVuSans-Oblique-71"/>
      <use transform="translate(102.490234 -16.28125)scale(0.7)" xlink:href="#DejaVuSans-74"/>
      <use transform="translate(129.936523 -16.28125)scale(0.7)" xlink:href="#DejaVuSans-6f"/>
      <use transform="translate(172.763672 -16.28125)scale(0.7)" xlink:href="#DejaVuSans-74"/>
      <use transform="translate(200.209961 -16.28125)scale(0.7)" xlink:href="#DejaVuSans-61"/>
      <use transform="translate(243.105469 -16.28125)scale(0.7)" xlink:href="#DejaVuSans-6c"/>
      <use transform="translate(265.288086 0.125)" xlink:href="#DejaVuSans-27e9"/>
     </g>
    </g>
   </g>
   <g id="PolyCollection_1">
    <defs>
     <path d="M 51.995455 -183.718182 
L 51.995455 -96.406105 
L 53.438545 -94.192977 
L 54.881636 -92.049155 
L 56.324727 -90.029835 
L 57.767818 -88.181117 
L 59.210909 -86.536555 
L 60.654 -85.115909 
L 62.097091 -83.925919 
L 63.540182 -82.962491 
L 64.983273 -82.21356 
L 66.426364 -81.661983 
L 67.869455 -81.288051 
L 69.312545 -81.071406 
L 70.755636 -80.992339 
L 72.198727 -81.032565 
L 73.641818 -81.175593 
L 75.084909 -81.406859 
L 76.528 -81.713706 
L 77.971091 -82.085315 
L 79.414182 -82.512607 
L 80.857273 -82.988132 
L 82.300364 -83.505943 
L 83.743455 -84.061434 
L 85.186545 -84.651167 
L 86.629636 -85.272702 
L 88.072727 -85.924434 
L 89.515818 -86.605465 
L 90.958909 -87.31549 
L 92.402 -88.054723 
L 93.845091 -88.823836 
L 95.288182 -89.623935 
L 96.731273 -90.456515 
L 98.174364 -91.32336 
L 99.617455 -92.226365 
L 101.060545 -93.167293 
L 102.503636 -94.147521 
L 103.946727 -95.167772 
L 105.389818 -96.227844 
L 106.832909 -97.326264 
L 108.276 -98.459831 
L 109.719091 -99.623063 
L 111.162182 -100.807528 
L 112.605273 -102.001036 
L 114.048364 -103.186549 
L 115.491455 -104.340637 
L 116.934545 -105.431464 
L 118.377636 -106.416751 
L 119.820727 -107.242997 
L 121.263818 -107.848355 
L 122.706909 -108.171806 
L 124.15 -108.168559 
L 125.593091 -107.825017 
L 127.036182 -107.163013 
L 128.479273 -106.229945 
L 129.922364 -105.082523 
L 131.365455 -103.773635 
L 132.808545 -102.345695 
L 134.251636 -100.828939 
L 135.694727 -99.242182 
L 137.137818 -97.594397 
L 138.580909 -95.886402 
L 140.024 -94.112457 
L 141.467091 -92.261818 
L 142.910182 -90.320393 
L 144.353273 -88.272674 
L 145.796364 -86.104052 
L 147.239455 -83.803588 
L 148.682545 -81.367093 
L 150.125636 -78.800177 
L 151.568727 -76.120663 
L 153.011818 -73.359638 
L 154.454909 -70.560509 
L 155.898 -67.775816 
L 157.341091 -65.062178 
L 158.784182 -62.474339 
L 160.227273 -60.059586 
L 161.670364 -57.853686 
L 163.113455 -55.878942 
L 164.556545 -54.144381 
L 165.999636 -52.647542 
L 167.442727 -51.37716 
L 168.885818 -50.316046 
L 170.328909 -49.443706 
L 171.772 -48.738431 
L 173.215091 -48.1788 
L 174.658182 -47.744649 
L 176.101273 -47.417597 
L 177.544364 -47.181261 
L 178.987455 -47.021252 
L 180.430545 -46.925051 
L 181.873636 -46.881818 
L 183.316727 -46.882194 
L 184.759818 -46.918115 
L 186.202909 -46.982664 
L 187.646 -47.069942 
L 189.089091 -47.174966 
L 190.532182 -47.29357 
L 191.975273 -47.422313 
L 193.418364 -47.558381 
L 194.861455 -47.699494 
L 196.304545 -47.843808 
L 196.304545 -113.269206 
L 196.304545 -113.269206 
L 194.861455 -113.443205 
L 193.418364 -113.621657 
L 191.975273 -113.804681 
L 190.532182 -113.992457 
L 189.089091 -114.185254 
L 187.646 -114.38348 
L 186.202909 -114.587776 
L 184.759818 -114.799142 
L 183.316727 -115.019109 
L 181.873636 -115.249948 
L 180.430545 -115.494906 
L 178.987455 -115.758469 
L 177.544364 -116.046617 
L 176.101273 -116.367068 
L 174.658182 -116.729486 
L 173.215091 -117.14563 
L 171.772 -117.629368 
L 170.328909 -118.196499 
L 168.885818 -118.864254 
L 167.442727 -119.650362 
L 165.999636 -120.571555 
L 164.556545 -121.641467 
L 163.113455 -122.867961 
L 161.670364 -124.250175 
L 160.227273 -125.775751 
L 158.784182 -127.418935 
L 157.341091 -129.140305 
L 155.898 -130.888632 
L 154.454909 -132.604917 
L 153.011818 -134.228026 
L 151.568727 -135.700793 
L 150.125636 -136.975332 
L 148.682545 -138.016568 
L 147.239455 -138.803577 
L 145.796364 -139.328929 
L 144.353273 -139.596653 
L 142.910182 -139.619558 
L 141.467091 -139.41658 
L 140.024 -139.010599 
L 138.580909 -138.426973 
L 137.137818 -137.692861 
L 135.694727 -136.837303 
L 134.251636 -135.89199 
L 132.808545 -134.89263 
L 131.365455 -133.880759 
L 129.922364 -132.905641 
L 128.479273 -132.025453 
L 127.036182 -131.306021 
L 125.593091 -130.814609 
L 124.15 -130.607174 
L 122.706909 -130.712461 
L 121.263818 -131.122442 
L 119.820727 -131.796797 
L 118.377636 -132.678099 
L 116.934545 -133.707378 
L 115.491455 -134.833442 
L 114.048364 -136.015864 
L 112.605273 -137.224306 
L 111.162182 -138.436551 
L 109.719091 -139.636551 
L 108.276 -140.81294 
L 106.832909 -141.957987 
L 105.389818 -143.066817 
L 103.946727 -144.136785 
L 102.503636 -145.166941 
L 101.060545 -146.157611 
L 99.617455 -147.110073 
L 98.174364 -148.026317 
L 96.731273 -148.908808 
L 95.288182 -149.760272 
L 93.845091 -150.583492 
L 92.402 -151.381185 
L 90.958909 -152.155965 
L 89.515818 -152.910377 
L 88.072727 -153.646962 
L 86.629636 -154.36832 
L 85.186545 -155.077172 
L 83.743455 -155.776427 
L 82.300364 -156.469261 
L 80.857273 -157.159209 
L 79.414182 -157.850298 
L 77.971091 -158.547219 
L 76.528 -159.255568 
L 75.084909 -159.982148 
L 73.641818 -160.73531 
L 72.198727 -161.525273 
L 70.755636 -162.364371 
L 69.312545 -163.267152 
L 67.869455 -164.250255 
L 66.426364 -165.331973 
L 64.983273 -166.531411 
L 63.540182 -167.867137 
L 62.097091 -169.355262 
L 60.654 -171.006962 
L 59.210909 -172.825614 
L 57.767818 -174.803965 
L 56.324727 -176.921942 
L 54.881636 -179.145855 
L 53.438545 -181.429618 
L 51.995455 -183.718182 
z
" id="md28abfc533" style="stroke:#ffffff;stroke-opacity:0.05;"/>
    </defs>
    <g clip-path="url(#p675cb6fdb4)">
     <use style="fill:#12711c;fill-opacity:0.05;stroke:#ffffff;stroke-opacity:0.05;" x="0" xlink:href="#md28abfc533" y="216"/>
    </g>
   </g>
   <g id="line2d_11">
    <path clip-path="url(#p675cb6fdb4)" d="M 51.995455 75.937857 
L 53.438545 78.188702 
L 54.881636 80.402495 
L 56.324727 82.524112 
L 57.767818 84.507459 
L 59.210909 86.318915 
L 60.654 87.938565 
L 62.097091 89.35941 
L 63.540182 90.585186 
L 64.983273 91.627514 
L 66.426364 92.503022 
L 67.869455 93.230847 
L 69.312545 93.830721 
L 70.755636 94.321645 
L 72.198727 94.721081 
L 73.641818 95.044548 
L 75.084909 95.305497 
L 76.528 95.515363 
L 77.971091 95.683733 
L 79.414182 95.818548 
L 80.857273 95.926329 
L 82.300364 96.012398 
L 83.743455 96.081069 
L 85.186545 96.13583 
L 86.629636 96.179489 
L 88.072727 96.214302 
L 89.515818 96.242079 
L 90.958909 96.264272 
L 92.402 96.282046 
L 93.845091 96.296336 
L 95.288182 96.307897 
L 96.731273 96.317338 
L 98.174364 96.325162 
L 99.617455 96.331781 
L 101.060545 96.337548 
L 102.503636 96.342769 
L 103.946727 96.347722 
L 105.389818 96.352669 
L 106.832909 96.357874 
L 108.276 96.363614 
L 109.719091 96.370193 
L 111.162182 96.377961 
L 112.605273 96.387329 
L 114.048364 96.398793 
L 115.491455 96.412961 
L 116.934545 96.430579 
L 118.377636 96.452575 
L 119.820727 96.480103 
L 121.263818 96.514602 
L 122.706909 96.557867 
L 124.15 96.612134 
L 125.593091 96.680187 
L 127.036182 96.765483 
L 128.479273 96.872301 
L 129.922364 97.005918 
L 131.365455 97.172803 
L 132.808545 97.380837 
L 134.251636 97.639536 
L 135.694727 97.960258 
L 137.137818 98.356371 
L 138.580909 98.843312 
L 140.024 99.438472 
L 141.467091 100.160801 
L 142.910182 101.030024 
L 144.353273 102.065337 
L 145.796364 103.28351 
L 147.239455 104.696418 
L 148.682545 106.308169 
L 150.125636 108.112245 
L 151.568727 110.089272 
L 153.011818 112.206168 
L 154.454909 114.417287 
L 155.898 116.667776 
L 157.341091 118.898758 
L 158.784182 121.053363 
L 160.227273 123.082331 
L 161.670364 124.948069 
L 163.113455 126.626549 
L 164.556545 128.107076 
L 165.999636 129.390451 
L 167.442727 130.486239 
L 168.885818 131.40985 
L 170.328909 132.179898 
L 171.772 132.816101 
L 173.215091 133.337785 
L 174.658182 133.762932 
L 176.101273 134.107668 
L 177.544364 134.386061 
L 178.987455 134.61014 
L 180.430545 134.790022 
L 181.873636 134.934117 
L 183.316727 135.049348 
L 184.759818 135.141371 
L 186.202909 135.21478 
L 187.646 135.273289 
L 189.089091 135.31989 
L 190.532182 135.356986 
L 191.975273 135.386503 
L 193.418364 135.409981 
L 194.861455 135.42865 
L 196.304545 135.443493 
" style="fill:none;opacity:0.9;stroke:#12711c;stroke-linecap:round;stroke-width:1.5;"/>
   </g>
   <g id="line2d_12">
    <path clip-path="url(#p675cb6fdb4)" d="M 51.995455 96.347821 
L 53.438545 96.347821 
L 54.881636 96.347822 
L 56.324727 96.347822 
L 57.767818 96.347823 
L 59.210909 96.347823 
L 60.654 96.347824 
L 62.097091 96.347825 
L 63.540182 96.347827 
L 64.983273 96.347829 
L 66.426364 96.347831 
L 67.869455 96.347834 
L 69.312545 96.347837 
L 70.755636 96.347841 
L 72.198727 96.347847 
L 73.641818 96.347854 
L 75.084909 96.347863 
L 76.528 96.347874 
L 77.971091 96.347888 
L 79.414182 96.347906 
L 80.857273 96.347928 
L 82.300364 96.347956 
L 83.743455 96.347991 
L 85.186545 96.348035 
L 86.629636 96.348091 
L 88.072727 96.348161 
L 89.515818 96.348249 
L 90.958909 96.34836 
L 92.402 96.3485 
L 93.845091 96.348677 
L 95.288182 96.348898 
L 96.731273 96.349178 
L 98.174364 96.349529 
L 99.617455 96.349971 
L 101.060545 96.350529 
L 102.503636 96.35123 
L 103.946727 96.352113 
L 105.389818 96.353224 
L 106.832909 96.354623 
L 108.276 96.356384 
L 109.719091 96.358601 
L 111.162182 96.361391 
L 112.605273 96.364903 
L 114.048364 96.369324 
L 115.491455 96.374889 
L 116.934545 96.381891 
L 118.377636 96.390703 
L 119.820727 96.401792 
L 121.263818 96.415742 
L 122.706909 96.433291 
L 124.15 96.45536 
L 125.593091 96.483109 
L 127.036182 96.517987 
L 128.479273 96.561806 
L 129.922364 96.616832 
L 131.365455 96.685885 
L 132.808545 96.772469 
L 134.251636 96.880924 
L 135.694727 97.016601 
L 137.137818 97.186058 
L 138.580909 97.397281 
L 140.024 97.659907 
L 141.467091 97.985431 
L 142.910182 98.387362 
L 144.353273 98.88128 
L 145.796364 99.484702 
L 147.239455 100.216662 
L 148.682545 101.096897 
L 150.125636 102.144501 
L 151.568727 103.375989 
L 153.011818 104.802788 
L 154.454909 106.428351 
L 155.898 108.245321 
L 157.341091 110.233371 
L 158.784182 112.358479 
L 160.227273 114.574217 
L 161.670364 116.825267 
L 163.113455 119.052694 
L 164.556545 121.19999 
L 165.999636 123.218604 
L 167.442727 125.071855 
L 168.885818 126.736679 
L 170.328909 128.203261 
L 171.772 129.47311 
L 173.215091 130.556293 
L 174.658182 131.468525 
L 176.101273 132.228559 
L 177.544364 132.856128 
L 178.987455 133.370489 
L 180.430545 133.789506 
L 181.873636 134.129164 
L 183.316727 134.403387 
L 184.759818 134.624063 
L 186.202909 134.801185 
L 187.646 134.943051 
L 189.089091 135.056486 
L 190.532182 135.147068 
L 191.975273 135.219322 
L 193.418364 135.276908 
L 194.861455 135.322772 
L 196.304545 135.359279 
" style="fill:none;opacity:0.7;stroke:#000000;stroke-linecap:round;stroke-width:1.5;"/>
   </g>
   <g id="line2d_13">
    <path clip-path="url(#p675cb6fdb4)" d="M 51.995455 32.281818 
L 53.438545 34.570382 
L 54.881636 36.854145 
L 56.324727 39.078058 
L 57.767818 41.196035 
L 59.210909 43.174386 
L 60.654 44.993038 
L 62.097091 46.644738 
L 63.540182 48.132863 
L 64.983273 49.468589 
L 66.426364 50.668027 
L 67.869455 51.749745 
L 69.312545 52.732848 
L 70.755636 53.635629 
L 72.198727 54.474727 
L 73.641818 55.26469 
L 75.084909 56.017852 
L 76.528 56.744432 
L 77.971091 57.452781 
L 79.414182 58.149702 
L 80.857273 58.840791 
L 82.300364 59.530739 
L 83.743455 60.223573 
L 85.186545 60.922828 
L 86.629636 61.63168 
L 88.072727 62.353038 
L 89.515818 63.089623 
L 90.958909 63.844035 
L 92.402 64.618815 
L 93.845091 65.416508 
L 95.288182 66.239728 
L 96.731273 67.091192 
L 98.174364 67.973683 
L 99.617455 68.889927 
L 101.060545 69.842389 
L 102.503636 70.833059 
L 103.946727 71.863215 
L 105.389818 72.933183 
L 106.832909 74.042013 
L 108.276 75.18706 
L 109.719091 76.363449 
L 111.162182 77.563449 
L 112.605273 78.775694 
L 114.048364 79.984136 
L 115.491455 81.166558 
L 116.934545 82.292622 
L 118.377636 83.321901 
L 119.820727 84.203203 
L 121.263818 84.877558 
L 122.706909 85.287539 
L 124.15 85.392826 
L 125.593091 85.185391 
L 127.036182 84.693979 
L 128.479273 83.974547 
L 129.922364 83.094359 
L 131.365455 82.119241 
L 132.808545 81.10737 
L 134.251636 80.10801 
L 135.694727 79.162697 
L 137.137818 78.307139 
L 138.580909 77.573027 
L 140.024 76.989401 
L 141.467091 76.58342 
L 142.910182 76.380442 
L 144.353273 76.403347 
L 145.796364 76.671071 
L 147.239455 77.196423 
L 148.682545 77.983432 
L 150.125636 79.024668 
L 151.568727 80.299207 
L 153.011818 81.771974 
L 154.454909 83.395083 
L 155.898 85.111368 
L 157.341091 86.859695 
L 158.784182 88.581065 
L 160.227273 90.224249 
L 161.670364 91.749825 
L 163.113455 93.132039 
L 164.556545 94.358533 
L 165.999636 95.428445 
L 167.442727 96.349638 
L 168.885818 97.135746 
L 170.328909 97.803501 
L 171.772 98.370632 
L 173.215091 98.85437 
L 174.658182 99.270514 
L 176.101273 99.632932 
L 177.544364 99.953383 
L 178.987455 100.241531 
L 180.430545 100.505094 
L 181.873636 100.750052 
L 183.316727 100.980891 
L 184.759818 101.200858 
L 186.202909 101.412224 
L 187.646 101.61652 
L 189.089091 101.814746 
L 190.532182 102.007543 
L 191.975273 102.195319 
L 193.418364 102.378343 
L 194.861455 102.556795 
L 196.304545 102.730794 
" style="fill:none;opacity:0.45;stroke:#12711c;stroke-dasharray:2.775,1.2;stroke-dashoffset:0;stroke-width:0.75;"/>
   </g>
   <g id="line2d_14">
    <path clip-path="url(#p675cb6fdb4)" d="M 51.995455 119.593895 
L 53.438545 121.807023 
L 54.881636 123.950845 
L 56.324727 125.970165 
L 57.767818 127.818883 
L 59.210909 129.463445 
L 60.654 130.884091 
L 62.097091 132.074081 
L 63.540182 133.037509 
L 64.983273 133.78644 
L 66.426364 134.338017 
L 67.869455 134.711949 
L 69.312545 134.928594 
L 70.755636 135.007661 
L 72.198727 134.967435 
L 73.641818 134.824407 
L 75.084909 134.593141 
L 76.528 134.286294 
L 77.971091 133.914685 
L 79.414182 133.487393 
L 80.857273 133.011868 
L 82.300364 132.494057 
L 83.743455 131.938566 
L 85.186545 131.348833 
L 86.629636 130.727298 
L 88.072727 130.075566 
L 89.515818 129.394535 
L 90.958909 128.68451 
L 92.402 127.945277 
L 93.845091 127.176164 
L 95.288182 126.376065 
L 96.731273 125.543485 
L 98.174364 124.67664 
L 99.617455 123.773635 
L 101.060545 122.832707 
L 102.503636 121.852479 
L 103.946727 120.832228 
L 105.389818 119.772156 
L 106.832909 118.673736 
L 108.276 117.540169 
L 109.719091 116.376937 
L 111.162182 115.192472 
L 112.605273 113.998964 
L 114.048364 112.813451 
L 115.491455 111.659363 
L 116.934545 110.568536 
L 118.377636 109.583249 
L 119.820727 108.757003 
L 121.263818 108.151645 
L 122.706909 107.828194 
L 124.15 107.831441 
L 125.593091 108.174983 
L 127.036182 108.836987 
L 128.479273 109.770055 
L 129.922364 110.917477 
L 131.365455 112.226365 
L 132.808545 113.654305 
L 134.251636 115.171061 
L 135.694727 116.757818 
L 137.137818 118.405603 
L 138.580909 120.113598 
L 140.024 121.887543 
L 141.467091 123.738182 
L 142.910182 125.679607 
L 144.353273 127.727326 
L 145.796364 129.895948 
L 147.239455 132.196412 
L 148.682545 134.632907 
L 150.125636 137.199823 
L 151.568727 139.879337 
L 153.011818 142.640362 
L 154.454909 145.439491 
L 155.898 148.224184 
L 157.341091 150.937822 
L 158.784182 153.525661 
L 160.227273 155.940414 
L 161.670364 158.146314 
L 163.113455 160.121058 
L 164.556545 161.855619 
L 165.999636 163.352458 
L 167.442727 164.62284 
L 168.885818 165.683954 
L 170.328909 166.556294 
L 171.772 167.261569 
L 173.215091 167.8212 
L 174.658182 168.255351 
L 176.101273 168.582403 
L 177.544364 168.818739 
L 178.987455 168.978748 
L 180.430545 169.074949 
L 181.873636 169.118182 
L 183.316727 169.117806 
L 184.759818 169.081885 
L 186.202909 169.017336 
L 187.646 168.930058 
L 189.089091 168.825034 
L 190.532182 168.70643 
L 191.975273 168.577687 
L 193.418364 168.441619 
L 194.861455 168.300506 
L 196.304545 168.156192 
" style="fill:none;opacity:0.45;stroke:#12711c;stroke-dasharray:2.775,1.2;stroke-dashoffset:0;stroke-width:0.75;"/>
   </g>
   <g id="patch_3">
    <path d="M 44.78 175.96 
L 44.78 25.44 
" style="fill:none;stroke:#262626;stroke-linecap:square;stroke-linejoin:miter;stroke-width:0.8;"/>
   </g>
   <g id="patch_4">
    <path d="M 44.78 175.96 
L 203.52 175.96 
" style="fill:none;stroke:#262626;stroke-linecap:square;stroke-linejoin:miter;stroke-width:0.8;"/>
   </g>
   <g id="text_13">
    <!-- Epik-scan SM19 -->
    <defs>
     <path d="M 7.90625 0 
L 7.90625 71.578125 
L 59.671875 71.578125 
L 59.671875 63.140625 
L 17.390625 63.140625 
L 17.390625 41.21875 
L 56.984375 41.21875 
L 56.984375 32.8125 
L 17.390625 32.8125 
L 17.390625 8.453125 
L 61.328125 8.453125 
L 61.328125 0 
z
" id="ArialMT-45"/>
     <path d="M 6.640625 61.46875 
L 6.640625 71.578125 
L 15.4375 71.578125 
L 15.4375 61.46875 
z
M 6.640625 0 
L 6.640625 51.859375 
L 15.4375 51.859375 
L 15.4375 0 
z
" id="ArialMT-69"/>
     <path d="M 6.640625 0 
L 6.640625 71.578125 
L 15.4375 71.578125 
L 15.4375 30.765625 
L 36.234375 51.859375 
L 47.609375 51.859375 
L 27.78125 32.625 
L 49.609375 0 
L 38.765625 0 
L 21.625 26.515625 
L 15.4375 20.5625 
L 15.4375 0 
z
" id="ArialMT-6b"/>
     <path d="M 3.171875 21.484375 
L 3.171875 30.328125 
L 30.171875 30.328125 
L 30.171875 21.484375 
z
" id="ArialMT-2d"/>
     <path d="M 3.078125 15.484375 
L 11.765625 16.84375 
Q 12.5 11.625 15.84375 8.84375 
Q 19.1875 6.0625 25.203125 6.0625 
Q 31.25 6.0625 34.171875 8.515625 
Q 37.109375 10.984375 37.109375 14.3125 
Q 37.109375 17.28125 34.515625 19 
Q 32.71875 20.171875 25.53125 21.96875 
Q 15.875 24.421875 12.140625 26.203125 
Q 8.40625 27.984375 6.46875 31.125 
Q 4.546875 34.28125 4.546875 38.09375 
Q 4.546875 41.546875 6.125 44.5 
Q 7.71875 47.46875 10.453125 49.421875 
Q 12.5 50.921875 16.03125 51.96875 
Q 19.578125 53.03125 23.640625 53.03125 
Q 29.734375 53.03125 34.34375 51.265625 
Q 38.96875 49.515625 41.15625 46.5 
Q 43.359375 43.5 44.1875 38.484375 
L 35.59375 37.3125 
Q 35.015625 41.3125 32.203125 43.546875 
Q 29.390625 45.796875 24.265625 45.796875 
Q 18.21875 45.796875 15.625 43.796875 
Q 13.03125 41.796875 13.03125 39.109375 
Q 13.03125 37.40625 14.109375 36.03125 
Q 15.1875 34.625 17.484375 33.6875 
Q 18.796875 33.203125 25.25 31.453125 
Q 34.578125 28.953125 38.25 27.359375 
Q 41.9375 25.78125 44.03125 22.75 
Q 46.140625 19.734375 46.140625 15.234375 
Q 46.140625 10.84375 43.578125 6.953125 
Q 41.015625 3.078125 36.171875 0.953125 
Q 31.34375 -1.171875 25.25 -1.171875 
Q 15.140625 -1.171875 9.84375 3.03125 
Q 4.546875 7.234375 3.078125 15.484375 
z
" id="ArialMT-73"/>
     <path d="M 40.4375 19 
L 49.078125 17.875 
Q 47.65625 8.9375 41.8125 3.875 
Q 35.984375 -1.171875 27.484375 -1.171875 
Q 16.84375 -1.171875 10.375 5.78125 
Q 3.90625 12.75 3.90625 25.734375 
Q 3.90625 34.125 6.6875 40.421875 
Q 9.46875 46.734375 15.15625 49.875 
Q 20.84375 53.03125 27.546875 53.03125 
Q 35.984375 53.03125 41.359375 48.75 
Q 46.734375 44.484375 48.25 36.625 
L 39.703125 35.296875 
Q 38.484375 40.53125 35.375 43.15625 
Q 32.28125 45.796875 27.875 45.796875 
Q 21.234375 45.796875 17.078125 41.03125 
Q 12.9375 36.28125 12.9375 25.984375 
Q 12.9375 15.53125 16.9375 10.796875 
Q 20.953125 6.0625 27.390625 6.0625 
Q 32.5625 6.0625 36.03125 9.234375 
Q 39.5 12.40625 40.4375 19 
z
" id="ArialMT-63"/>
     <path d="M 40.4375 6.390625 
Q 35.546875 2.25 31.03125 0.53125 
Q 26.515625 -1.171875 21.34375 -1.171875 
Q 12.796875 -1.171875 8.203125 3 
Q 3.609375 7.171875 3.609375 13.671875 
Q 3.609375 17.484375 5.34375 20.625 
Q 7.078125 23.78125 9.890625 25.6875 
Q 12.703125 27.59375 16.21875 28.5625 
Q 18.796875 29.25 24.03125 29.890625 
Q 34.671875 31.15625 39.703125 32.90625 
Q 39.75 34.71875 39.75 35.203125 
Q 39.75 40.578125 37.25 42.78125 
Q 33.890625 45.75 27.25 45.75 
Q 21.046875 45.75 18.09375 43.578125 
Q 15.140625 41.40625 13.71875 35.890625 
L 5.125 37.0625 
Q 6.296875 42.578125 8.984375 45.96875 
Q 11.671875 49.359375 16.75 51.1875 
Q 21.828125 53.03125 28.515625 53.03125 
Q 35.15625 53.03125 39.296875 51.46875 
Q 43.453125 49.90625 45.40625 47.53125 
Q 47.359375 45.171875 48.140625 41.546875 
Q 48.578125 39.3125 48.578125 33.453125 
L 48.578125 21.734375 
Q 48.578125 9.46875 49.140625 6.21875 
Q 49.703125 2.984375 51.375 0 
L 42.1875 0 
Q 40.828125 2.734375 40.4375 6.390625 
z
M 39.703125 26.03125 
Q 34.90625 24.078125 25.34375 22.703125 
Q 19.921875 21.921875 17.671875 20.9375 
Q 15.4375 19.96875 14.203125 18.09375 
Q 12.984375 16.21875 12.984375 13.921875 
Q 12.984375 10.40625 15.640625 8.0625 
Q 18.3125 5.71875 23.4375 5.71875 
Q 28.515625 5.71875 32.46875 7.9375 
Q 36.421875 10.15625 38.28125 14.015625 
Q 39.703125 17 39.703125 22.796875 
z
" id="ArialMT-61"/>
     <path d="M 6.59375 0 
L 6.59375 51.859375 
L 14.5 51.859375 
L 14.5 44.484375 
Q 20.21875 53.03125 31 53.03125 
Q 35.6875 53.03125 39.625 51.34375 
Q 43.5625 49.65625 45.515625 46.921875 
Q 47.46875 44.1875 48.25 40.4375 
Q 48.734375 37.984375 48.734375 31.890625 
L 48.734375 0 
L 39.9375 0 
L 39.9375 31.546875 
Q 39.9375 36.921875 38.90625 39.578125 
Q 37.890625 42.234375 35.28125 43.8125 
Q 32.671875 45.40625 29.15625 45.40625 
Q 23.53125 45.40625 19.453125 41.84375 
Q 15.375 38.28125 15.375 28.328125 
L 15.375 0 
z
" id="ArialMT-6e"/>
     <path id="ArialMT-20"/>
     <path d="M 4.5 23 
L 13.421875 23.78125 
Q 14.0625 18.40625 16.375 14.96875 
Q 18.703125 11.53125 23.578125 9.40625 
Q 28.46875 7.28125 34.578125 7.28125 
Q 39.984375 7.28125 44.140625 8.890625 
Q 48.296875 10.5 50.3125 13.296875 
Q 52.34375 16.109375 52.34375 19.4375 
Q 52.34375 22.796875 50.390625 25.3125 
Q 48.4375 27.828125 43.953125 29.546875 
Q 41.0625 30.671875 31.203125 33.03125 
Q 21.34375 35.40625 17.390625 37.5 
Q 12.25 40.1875 9.734375 44.15625 
Q 7.234375 48.140625 7.234375 53.078125 
Q 7.234375 58.5 10.296875 63.203125 
Q 13.375 67.921875 19.28125 70.359375 
Q 25.203125 72.796875 32.421875 72.796875 
Q 40.375 72.796875 46.453125 70.234375 
Q 52.546875 67.671875 55.8125 62.6875 
Q 59.078125 57.71875 59.328125 51.421875 
L 50.25 50.734375 
Q 49.515625 57.515625 45.28125 60.984375 
Q 41.0625 64.453125 32.8125 64.453125 
Q 24.21875 64.453125 20.28125 61.296875 
Q 16.359375 58.15625 16.359375 53.71875 
Q 16.359375 49.859375 19.140625 47.359375 
Q 21.875 44.875 33.421875 42.265625 
Q 44.96875 39.65625 49.265625 37.703125 
Q 55.515625 34.8125 58.484375 30.390625 
Q 61.46875 25.984375 61.46875 20.21875 
Q 61.46875 14.5 58.203125 9.4375 
Q 54.9375 4.390625 48.796875 1.578125 
Q 42.671875 -1.21875 35.015625 -1.21875 
Q 25.296875 -1.21875 18.71875 1.609375 
Q 12.15625 4.4375 8.421875 10.125 
Q 4.6875 15.828125 4.5 23 
z
" id="ArialMT-53"/>
     <path d="M 7.421875 0 
L 7.421875 71.578125 
L 21.6875 71.578125 
L 38.625 20.90625 
Q 40.96875 13.8125 42.046875 10.296875 
Q 43.265625 14.203125 45.84375 21.78125 
L 62.984375 71.578125 
L 75.734375 71.578125 
L 75.734375 0 
L 66.609375 0 
L 66.609375 59.90625 
L 45.796875 0 
L 37.25 0 
L 16.546875 60.9375 
L 16.546875 0 
z
" id="ArialMT-4d"/>
     <path d="M 5.46875 16.546875 
L 13.921875 17.328125 
Q 14.984375 11.375 18.015625 8.6875 
Q 21.046875 6 25.78125 6 
Q 29.828125 6 32.875 7.859375 
Q 35.9375 9.71875 37.890625 12.8125 
Q 39.84375 15.921875 41.15625 21.1875 
Q 42.484375 26.46875 42.484375 31.9375 
Q 42.484375 32.515625 42.4375 33.6875 
Q 39.796875 29.5 35.234375 26.875 
Q 30.671875 24.265625 25.34375 24.265625 
Q 16.453125 24.265625 10.296875 30.703125 
Q 4.15625 37.15625 4.15625 47.703125 
Q 4.15625 58.59375 10.578125 65.234375 
Q 17 71.875 26.65625 71.875 
Q 33.640625 71.875 39.421875 68.109375 
Q 45.21875 64.359375 48.21875 57.390625 
Q 51.21875 50.4375 51.21875 37.25 
Q 51.21875 23.53125 48.234375 15.40625 
Q 45.265625 7.28125 39.375 3.03125 
Q 33.5 -1.21875 25.59375 -1.21875 
Q 17.1875 -1.21875 11.859375 3.4375 
Q 6.546875 8.109375 5.46875 16.546875 
z
M 41.453125 48.140625 
Q 41.453125 55.71875 37.421875 60.15625 
Q 33.40625 64.59375 27.734375 64.59375 
Q 21.875 64.59375 17.53125 59.8125 
Q 13.1875 55.03125 13.1875 47.40625 
Q 13.1875 40.578125 17.3125 36.296875 
Q 21.4375 32.03125 27.484375 32.03125 
Q 33.59375 32.03125 37.515625 36.296875 
Q 41.453125 40.578125 41.453125 48.140625 
z
" id="ArialMT-39"/>
    </defs>
    <g style="fill:#262626;" transform="translate(80.467188 19.44)scale(0.12 -0.12)">
     <use xlink:href="#ArialMT-45"/>
     <use x="66.699219" xlink:href="#ArialMT-70"/>
     <use x="122.314453" xlink:href="#ArialMT-69"/>
     <use x="144.53125" xlink:href="#ArialMT-6b"/>
     <use x="194.53125" xlink:href="#ArialMT-2d"/>
     <use x="227.832031" xlink:href="#ArialMT-73"/>
     <use x="277.832031" xlink:href="#ArialMT-63"/>
     <use x="327.832031" xlink:href="#ArialMT-61"/>
     <use x="383.447266" xlink:href="#ArialMT-6e"/>
     <use x="439.0625" xlink:href="#ArialMT-20"/>
     <use x="466.845703" xlink:href="#ArialMT-53"/>
     <use x="533.544922" xlink:href="#ArialMT-4d"/>
     <use x="616.845703" xlink:href="#ArialMT-31"/>
     <use x="672.460938" xlink:href="#ArialMT-39"/>
    </g>
   </g>
  </g>
 </g>
 <defs>
  <clipPath id="p675cb6fdb4">
   <rect height="150.52" width="158.74" x="44.78" y="25.44"/>
  </clipPath>
 </defs>
</svg>
