<?xml version="1.0" encoding="utf-8" standalone="no"?>
<!DOCTYPE svg PUBLIC "-//W3C//DTD SVG 1.1//EN"
  "http://www.w3.org/Graphics/SVG/1.1/DTD/svg11.dtd">
<!-- Created with matplotlib (http://matplotlib.org/) -->
<svg height="216pt" version="1.1" viewBox="0 0 216 216" width="216pt" xmlns="http://www.w3.org/2000/svg" xmlns:xlink="http://www.w3.org/1999/xlink">
 <defs>
  <style type="text/css">
*{stroke-linecap:butt;stroke-linejoin:round;}
  </style>
 </defs>
 <g id="figure_1">
  <g id="patch_1">
   <path d="M 0 216 
L 216 216 
L 216 0 
L 0 0 
z
" style="fill:#ffffff;"/>
  </g>
  <g id="axes_1">
   <g id="patch_2">
    <path d="M 44.78 175.96 
L 203.52 175.96 
L 203.52 25.44 
L 44.78 25.44 
z
" style="fill:#ffffff;"/>
   </g>
   <g id="matplotlib.axis_1">
    <g id="xtick_1">
     <g id="line2d_1">
      <defs>
       <path d="M 0 0 
L 0 3.5 
" id="m8ad9c4a3c6" style="stroke:#262626;stroke-width:0.8;"/>
      </defs>
      <g>
       <use style="fill:#262626;stroke:#262626;stroke-width:0.8;" x="51.995455" xlink:href="#m8ad9c4a3c6" y="175.96"/>
      </g>
     </g>
     <g id="text_1">
      <!-- 2 -->
      <defs>
       <path d="M 50.34375 8.453125 
L 50.34375 0 
L 3.03125 0 
Q 2.9375 3.171875 4.046875 6.109375 
Q 5.859375 10.9375 9.828125 15.625 
Q 13.8125 20.3125 21.34375 26.46875 
Q 33.015625 36.03125 37.109375 41.625 
Q 41.21875 47.21875 41.21875 52.203125 
Q 41.21875 57.421875 37.46875 61 
Q 33.734375 64.59375 27.734375 64.59375 
Q 21.390625 64.59375 17.578125 60.78125 
Q 13.765625 56.984375 13.71875 50.25 
L 4.6875 51.171875 
Q 5.609375 61.28125 11.65625 66.578125 
Q 17.71875 71.875 27.9375 71.875 
Q 38.234375 71.875 44.234375 66.15625 
Q 50.25 60.453125 50.25 52 
Q 50.25 47.703125 48.484375 43.546875 
Q 46.734375 39.40625 42.65625 34.8125 
Q 38.578125 30.21875 29.109375 22.21875 
Q 21.1875 15.578125 18.9375 13.203125 
Q 16.703125 10.84375 15.234375 8.453125 
z
" id="ArialMT-32"/>
      </defs>
      <g style="fill:#262626;" transform="translate(49.214986 190.117812)scale(0.1 -0.1)">
       <use xlink:href="#ArialMT-32"/>
      </g>
     </g>
    </g>
    <g id="xtick_2">
     <g id="line2d_2">
      <g>
       <use style="fill:#262626;stroke:#262626;stroke-width:0.8;" x="80.857273" xlink:href="#m8ad9c4a3c6" y="175.96"/>
      </g>
     </g>
     <g id="text_2">
      <!-- 4 -->
      <defs>
       <path d="M 32.328125 0 
L 32.328125 17.140625 
L 1.265625 17.140625 
L 1.265625 25.203125 
L 33.9375 71.578125 
L 41.109375 71.578125 
L 41.109375 25.203125 
L 50.78125 25.203125 
L 50.78125 17.140625 
L 41.109375 17.140625 
L 41.109375 0 
z
M 32.328125 25.203125 
L 32.328125 57.46875 
L 9.90625 25.203125 
z
" id="ArialMT-34"/>
      </defs>
      <g style="fill:#262626;" transform="translate(78.076804 190.117812)scale(0.1 -0.1)">
       <use xlink:href="#ArialMT-34"/>
      </g>
     </g>
    </g>
    <g id="xtick_3">
     <g id="line2d_3">
      <g>
       <use style="fill:#262626;stroke:#262626;stroke-width:0.8;" x="109.719091" xlink:href="#m8ad9c4a3c6" y="175.96"/>
      </g>
     </g>
     <g id="text_3">
      <!-- 6 -->
      <defs>
       <path d="M 49.75 54.046875 
L 41.015625 53.375 
Q 39.84375 58.546875 37.703125 60.890625 
Q 34.125 64.65625 28.90625 64.65625 
Q 24.703125 64.65625 21.53125 62.3125 
Q 17.390625 59.28125 14.984375 53.46875 
Q 12.59375 47.65625 12.5 36.921875 
Q 15.671875 41.75 20.265625 44.09375 
Q 24.859375 46.4375 29.890625 46.4375 
Q 38.671875 46.4375 44.84375 39.96875 
Q 51.03125 33.5 51.03125 23.25 
Q 51.03125 16.5 48.125 10.71875 
Q 45.21875 4.9375 40.140625 1.859375 
Q 35.0625 -1.21875 28.609375 -1.21875 
Q 17.625 -1.21875 10.6875 6.859375 
Q 3.765625 14.9375 3.765625 33.5 
Q 3.765625 54.25 11.421875 63.671875 
Q 18.109375 71.875 29.4375 71.875 
Q 37.890625 71.875 43.28125 67.140625 
Q 48.6875 62.40625 49.75 54.046875 
z
M 13.875 23.1875 
Q 13.875 18.65625 15.796875 14.5 
Q 17.71875 10.359375 21.1875 8.171875 
Q 24.65625 6 28.46875 6 
Q 34.03125 6 38.03125 10.484375 
Q 42.046875 14.984375 42.046875 22.703125 
Q 42.046875 30.125 38.078125 34.390625 
Q 34.125 38.671875 28.125 38.671875 
Q 22.171875 38.671875 18.015625 34.390625 
Q 13.875 30.125 13.875 23.1875 
z
" id="ArialMT-36"/>
      </defs>
      <g style="fill:#262626;" transform="translate(106.938622 190.117812)scale(0.1 -0.1)">
       <use xlink:href="#ArialMT-36"/>
      </g>
     </g>
    </g>
    <g id="xtick_4">
     <g id="line2d_4">
      <g>
       <use style="fill:#262626;stroke:#262626;stroke-width:0.8;" x="138.580909" xlink:href="#m8ad9c4a3c6" y="175.96"/>
      </g>
     </g>
     <g id="text_4">
      <!-- 8 -->
      <defs>
       <path d="M 17.671875 38.8125 
Q 12.203125 40.828125 9.5625 44.53125 
Q 6.9375 48.25 6.9375 53.421875 
Q 6.9375 61.234375 12.546875 66.546875 
Q 18.171875 71.875 27.484375 71.875 
Q 36.859375 71.875 42.578125 66.421875 
Q 48.296875 60.984375 48.296875 53.171875 
Q 48.296875 48.1875 45.671875 44.5 
Q 43.0625 40.828125 37.75 38.8125 
Q 44.34375 36.671875 47.78125 31.875 
Q 51.21875 27.09375 51.21875 20.453125 
Q 51.21875 11.28125 44.71875 5.03125 
Q 38.234375 -1.21875 27.640625 -1.21875 
Q 17.046875 -1.21875 10.546875 5.046875 
Q 4.046875 11.328125 4.046875 20.703125 
Q 4.046875 27.6875 7.59375 32.390625 
Q 11.140625 37.109375 17.671875 38.8125 
z
M 15.921875 53.71875 
Q 15.921875 48.640625 19.1875 45.40625 
Q 22.46875 42.1875 27.6875 42.1875 
Q 32.765625 42.1875 36.015625 45.375 
Q 39.265625 48.578125 39.265625 53.21875 
Q 39.265625 58.0625 35.90625 61.359375 
Q 32.5625 64.65625 27.59375 64.65625 
Q 22.5625 64.65625 19.234375 61.421875 
Q 15.921875 58.203125 15.921875 53.71875 
z
M 13.09375 20.65625 
Q 13.09375 16.890625 14.875 13.375 
Q 16.65625 9.859375 20.171875 7.921875 
Q 23.6875 6 27.734375 6 
Q 34.03125 6 38.125 10.046875 
Q 42.234375 14.109375 42.234375 20.359375 
Q 42.234375 26.703125 38.015625 30.859375 
Q 33.796875 35.015625 27.4375 35.015625 
Q 21.234375 35.015625 17.15625 30.90625 
Q 13.09375 26.8125 13.09375 20.65625 
z
" id="ArialMT-38"/>
      </defs>
      <g style="fill:#262626;" transform="translate(135.80044 190.117812)scale(0.1 -0.1)">
       <use xlink:href="#ArialMT-38"/>
      </g>
     </g>
    </g>
    <g id="xtick_5">
     <g id="line2d_5">
      <g>
       <use style="fill:#262626;stroke:#262626;stroke-width:0.8;" x="167.442727" xlink:href="#m8ad9c4a3c6" y="175.96"/>
      </g>
     </g>
     <g id="text_5">
      <!-- 10 -->
      <defs>
       <path d="M 37.25 0 
L 28.46875 0 
L 28.46875 56 
Q 25.296875 52.984375 20.140625 49.953125 
Q 14.984375 46.921875 10.890625 45.40625 
L 10.890625 53.90625 
Q 18.265625 57.375 23.78125 62.296875 
Q 29.296875 67.234375 31.59375 71.875 
L 37.25 71.875 
z
" id="ArialMT-31"/>
       <path d="M 4.15625 35.296875 
Q 4.15625 48 6.765625 55.734375 
Q 9.375 63.484375 14.515625 67.671875 
Q 19.671875 71.875 27.484375 71.875 
Q 33.25 71.875 37.59375 69.546875 
Q 41.9375 67.234375 44.765625 62.859375 
Q 47.609375 58.5 49.21875 52.21875 
Q 50.828125 45.953125 50.828125 35.296875 
Q 50.828125 22.703125 48.234375 14.96875 
Q 45.65625 7.234375 40.5 3 
Q 35.359375 -1.21875 27.484375 -1.21875 
Q 17.140625 -1.21875 11.234375 6.203125 
Q 4.15625 15.140625 4.15625 35.296875 
z
M 13.1875 35.296875 
Q 13.1875 17.671875 17.3125 11.828125 
Q 21.4375 6 27.484375 6 
Q 33.546875 6 37.671875 11.859375 
Q 41.796875 17.71875 41.796875 35.296875 
Q 41.796875 52.984375 37.671875 58.78125 
Q 33.546875 64.59375 27.390625 64.59375 
Q 21.34375 64.59375 17.71875 59.46875 
Q 13.1875 52.9375 13.1875 35.296875 
z
" id="ArialMT-30"/>
      </defs>
      <g style="fill:#262626;" transform="translate(161.88179 190.117812)scale(0.1 -0.1)">
       <use xlink:href="#ArialMT-31"/>
       <use x="55.615234" xlink:href="#ArialMT-30"/>
      </g>
     </g>
    </g>
    <g id="xtick_6">
     <g id="line2d_6">
      <g>
       <use style="fill:#262626;stroke:#262626;stroke-width:0.8;" x="196.304545" xlink:href="#m8ad9c4a3c6" y="175.96"/>
      </g>
     </g>
     <g id="text_6">
      <!-- 12 -->
      <g style="fill:#262626;" transform="translate(190.743608 190.117812)scale(0.1 -0.1)">
       <use xlink:href="#ArialMT-31"/>
       <use x="55.615234" xlink:href="#ArialMT-32"/>
      </g>
     </g>
    </g>
    <g id="text_7">
     <!-- pH -->
     <defs>
      <path d="M 6.59375 -19.875 
L 6.59375 51.859375 
L 14.59375 51.859375 
L 14.59375 45.125 
Q 17.4375 49.078125 21 51.046875 
Q 24.5625 53.03125 29.640625 53.03125 
Q 36.28125 53.03125 41.359375 49.609375 
Q 46.4375 46.1875 49.015625 39.953125 
Q 51.609375 33.734375 51.609375 26.3125 
Q 51.609375 18.359375 48.75 11.984375 
Q 45.90625 5.609375 40.453125 2.21875 
Q 35.015625 -1.171875 29 -1.171875 
Q 24.609375 -1.171875 21.109375 0.6875 
Q 17.625 2.546875 15.375 5.375 
L 15.375 -19.875 
z
M 14.546875 25.640625 
Q 14.546875 15.625 18.59375 10.84375 
Q 22.65625 6.0625 28.421875 6.0625 
Q 34.28125 6.0625 38.453125 11.015625 
Q 42.625 15.96875 42.625 26.375 
Q 42.625 36.28125 38.546875 41.203125 
Q 34.46875 46.140625 28.8125 46.140625 
Q 23.1875 46.140625 18.859375 40.890625 
Q 14.546875 35.640625 14.546875 25.640625 
z
" id="ArialMT-70"/>
      <path d="M 8.015625 0 
L 8.015625 71.578125 
L 17.484375 71.578125 
L 17.484375 42.1875 
L 54.6875 42.1875 
L 54.6875 71.578125 
L 64.15625 71.578125 
L 64.15625 0 
L 54.6875 0 
L 54.6875 33.734375 
L 17.484375 33.734375 
L 17.484375 0 
z
" id="ArialMT-48"/>
     </defs>
     <g style="fill:#262626;" transform="translate(117.758594 203.263125)scale(0.1 -0.1)">
      <use xlink:href="#ArialMT-70"/>
      <use x="55.615234" xlink:href="#ArialMT-48"/>
     </g>
    </g>
   </g>
   <g id="matplotlib.axis_2">
    <g id="ytick_1">
     <g id="line2d_7">
      <defs>
       <path d="M 0 0 
L -3.5 0 
" id="ma2e53a921a" style="stroke:#262626;stroke-width:0.8;"/>
      </defs>
      <g>
       <use style="fill:#262626;stroke:#262626;stroke-width:0.8;" x="44.78" xlink:href="#ma2e53a921a" y="138.890542"/>
      </g>
     </g>
     <g id="text_8">
      <!-- −1 -->
      <defs>
       <path d="M 52.828125 31.203125 
L 5.5625 31.203125 
L 5.5625 39.40625 
L 52.828125 39.40625 
z
" id="ArialMT-2212"/>
      </defs>
      <g style="fill:#262626;" transform="translate(26.378438 142.469449)scale(0.1 -0.1)">
       <use xlink:href="#ArialMT-2212"/>
       <use x="58.398438" xlink:href="#ArialMT-31"/>
      </g>
     </g>
    </g>
    <g id="ytick_2">
     <g id="line2d_8">
      <g>
       <use style="fill:#262626;stroke:#262626;stroke-width:0.8;" x="44.78" xlink:href="#ma2e53a921a" y="101.027172"/>
      </g>
     </g>
     <g id="text_9">
      <!-- 0 -->
      <g style="fill:#262626;" transform="translate(32.219063 104.606078)scale(0.1 -0.1)">
       <use xlink:href="#ArialMT-30"/>
      </g>
     </g>
    </g>
    <g id="ytick_3">
     <g id="line2d_9">
      <g>
       <use style="fill:#262626;stroke:#262626;stroke-width:0.8;" x="44.78" xlink:href="#ma2e53a921a" y="63.163801"/>
      </g>
     </g>
     <g id="text_10">
      <!-- 1 -->
      <g style="fill:#262626;" transform="translate(32.219063 66.742707)scale(0.1 -0.1)">
       <use xlink:href="#ArialMT-31"/>
      </g>
     </g>
    </g>
    <g id="ytick_4">
     <g id="line2d_10">
      <g>
       <use style="fill:#262626;stroke:#262626;stroke-width:0.8;" x="44.78" xlink:href="#ma2e53a921a" y="25.30043"/>
      </g>
     </g>
     <g id="text_11">
      <!-- 2 -->
      <g style="fill:#262626;" transform="translate(32.219063 28.879337)scale(0.1 -0.1)">
       <use xlink:href="#ArialMT-32"/>
      </g>
     </g>
    </g>
    <g id="text_12">
     <!-- $\langle q_\mathsf{total} \rangle$ -->
     <defs>
      <path d="M 8.9375 31.34375 
L 22.703125 75.875 
L 31 75.875 
L 17.234375 31.34375 
L 31 -13.1875 
L 22.703125 -13.1875 
z
" id="DejaVuSans-27e8"/>
      <path d="M 41.703125 8.203125 
Q 38.09375 3.46875 33.171875 1.015625 
Q 28.265625 -1.421875 22.3125 -1.421875 
Q 14.015625 -1.421875 9.296875 4.171875 
Q 4.59375 9.765625 4.59375 19.578125 
Q 4.59375 27.484375 7.5 34.859375 
Q 10.40625 42.234375 15.828125 48.09375 
Q 19.34375 51.90625 23.90625 53.953125 
Q 28.46875 56 33.5 56 
Q 39.546875 56 43.453125 53.609375 
Q 47.359375 51.21875 49.125 46.390625 
L 50.6875 54.59375 
L 59.71875 54.59375 
L 45.125 -20.609375 
L 36.078125 -20.609375 
z
M 13.921875 20.90625 
Q 13.921875 13.671875 16.9375 9.890625 
Q 19.96875 6.109375 25.6875 6.109375 
Q 34.1875 6.109375 40.1875 14.234375 
Q 46.1875 22.359375 46.1875 33.984375 
Q 46.1875 41.015625 43.078125 44.75 
Q 39.984375 48.484375 34.1875 48.484375 
Q 29.9375 48.484375 26.3125 46.5 
Q 22.703125 44.53125 20.015625 40.71875 
Q 17.1875 36.71875 15.546875 31.34375 
Q 13.921875 25.984375 13.921875 20.90625 
z
" id="DejaVuSans-Oblique-71"/>
      <path d="M 18.3125 70.21875 
L 18.3125 54.6875 
L 36.8125 54.6875 
L 36.8125 47.703125 
L 18.3125 47.703125 
L 18.3125 18.015625 
Q 18.3125 11.328125 20.140625 9.421875 
Q 21.96875 7.515625 27.59375 7.515625 
L 36.8125 7.515625 
L 36.8125 0 
L 27.59375 0 
Q 17.1875 0 13.234375 3.875 
Q 9.28125 7.765625 9.28125 18.015625 
L 9.28125 47.703125 
L 2.6875 47.703125 
L 2.6875 54.6875 
L 9.28125 54.6875 
L 9.28125 70.21875 
z
" id="DejaVuSans-74"/>
      <path d="M 30.609375 48.390625 
Q 23.390625 48.390625 19.1875 42.75 
Q 14.984375 37.109375 14.984375 27.296875 
Q 14.984375 17.484375 19.15625 11.84375 
Q 23.34375 6.203125 30.609375 6.203125 
Q 37.796875 6.203125 41.984375 11.859375 
Q 46.1875 17.53125 46.1875 27.296875 
Q 46.1875 37.015625 41.984375 42.703125 
Q 37.796875 48.390625 30.609375 48.390625 
z
M 30.609375 56 
Q 42.328125 56 49.015625 48.375 
Q 55.71875 40.765625 55.71875 27.296875 
Q 55.71875 13.875 49.015625 6.21875 
Q 42.328125 -1.421875 30.609375 -1.421875 
Q 18.84375 -1.421875 12.171875 6.21875 
Q 5.515625 13.875 5.515625 27.296875 
Q 5.515625 40.765625 12.171875 48.375 
Q 18.84375 56 30.609375 56 
z
" id="DejaVuSans-6f"/>
      <path d="M 34.28125 27.484375 
Q 23.390625 27.484375 19.1875 25 
Q 14.984375 22.515625 14.984375 16.5 
Q 14.984375 11.71875 18.140625 8.90625 
Q 21.296875 6.109375 26.703125 6.109375 
Q 34.1875 6.109375 38.703125 11.40625 
Q 43.21875 16.703125 43.21875 25.484375 
L 43.21875 27.484375 
z
M 52.203125 31.203125 
L 52.203125 0 
L 43.21875 0 
L 43.21875 8.296875 
Q 40.140625 3.328125 35.546875 0.953125 
Q 30.953125 -1.421875 24.3125 -1.421875 
Q 15.921875 -1.421875 10.953125 3.296875 
Q 6 8.015625 6 15.921875 
Q 6 25.140625 12.171875 29.828125 
Q 18.359375 34.515625 30.609375 34.515625 
L 43.21875 34.515625 
L 43.21875 35.40625 
Q 43.21875 41.609375 39.140625 45 
Q 35.0625 48.390625 27.6875 48.390625 
Q 23 48.390625 18.546875 47.265625 
Q 14.109375 46.140625 10.015625 43.890625 
L 10.015625 52.203125 
Q 14.9375 54.109375 19.578125 55.046875 
Q 24.21875 56 28.609375 56 
Q 40.484375 56 46.34375 49.84375 
Q 52.203125 43.703125 52.203125 31.203125 
z
" id="DejaVuSans-61"/>
      <path d="M 9.421875 75.984375 
L 18.40625 75.984375 
L 18.40625 0 
L 9.421875 0 
z
" id="DejaVuSans-6c"/>
      <path d="M 30.078125 31.34375 
L 16.3125 -13.1875 
L 8.015625 -13.1875 
L 21.78125 31.34375 
L 8.015625 75.875 
L 16.3125 75.875 
z
" id="DejaVuSans-27e9"/>
     </defs>
     <g style="fill:#262626;" transform="translate(20.278438 115.95)rotate(-90)scale(0.1 -0.1)">
      <use transform="translate(0 0.125)" xlink:href="#DejaVuSans-27e8"/>
      <use transform="translate(39.013672 0.125)" xlink:href="#DejaVuSans-Oblique-71"/>
      <use transform="translate(102.490234 -16.28125)scale(0.7)" xlink:href="#DejaVuSans-74"/>
      <use transform="translate(129.936523 -16.28125)scale(0.7)" xlink:href="#DejaVuSans-6f"/>
      <use transform="translate(172.763672 -16.28125)scale(0.7)" xlink:href="#DejaVuSans-74"/>
      <use transform="translate(200.209961 -16.28125)scale(0.7)" xlink:href="#DejaVuSans-61"/>
      <use transform="translate(243.105469 -16.28125)scale(0.7)" xlink:href="#DejaVuSans-6c"/>
      <use transform="translate(265.288086 0.125)" xlink:href="#DejaVuSans-27e9"/>
     </g>
    </g>
   </g>
   <g id="PolyCollection_1">
    <defs>
     <path d="M 51.995455 -183.718182 
L 51.995455 -119.344297 
L 53.438545 -118.849833 
L 54.881636 -118.268662 
L 56.324727 -117.586243 
L 57.767818 -116.784815 
L 59.210909 -115.844549 
L 60.654 -114.745962 
L 62.097091 -113.472443 
L 63.540182 -112.012628 
L 64.983273 -110.362975 
L 66.426364 -108.530453 
L 67.869455 -106.534516 
L 69.312545 -104.407498 
L 70.755636 -102.192805 
L 72.198727 -99.941032 
L 73.641818 -97.705033 
L 75.084909 -95.535334 
L 76.528 -93.476575 
L 77.971091 -91.564667 
L 79.414182 -89.82438 
L 80.857273 -88.268168 
L 82.300364 -86.897065 
L 83.743455 -85.703198 
L 85.186545 -84.672732 
L 86.629636 -83.788426 
L 88.072727 -83.031322 
L 89.515818 -82.381418 
L 90.958909 -81.817882 
L 92.402 -81.319541 
L 93.845091 -80.865845 
L 95.288182 -80.437919 
L 96.731273 -80.019493 
L 98.174364 -79.597376 
L 99.617455 -79.160857 
L 101.060545 -78.700204 
L 102.503636 -78.205773 
L 103.946727 -77.668524 
L 105.389818 -77.080958 
L 106.832909 -76.437032 
L 108.276 -75.730526 
L 109.719091 -74.952787 
L 111.162182 -74.091767 
L 112.605273 -73.133108 
L 114.048364 -72.061814 
L 115.491455 -70.863079 
L 116.934545 -69.52341 
L 118.377636 -68.03404 
L 119.820727 -66.395963 
L 121.263818 -64.623319 
L 122.706909 -62.743073 
L 124.15 -60.792298 
L 125.593091 -58.815494 
L 127.036182 -56.862631 
L 128.479273 -54.986788 
L 129.922364 -53.240253 
L 131.365455 -51.669399 
L 132.808545 -50.309676 
L 134.251636 -49.182031 
L 135.694727 -48.292158 
L 137.137818 -47.633384 
L 138.580909 -47.191477 
L 140.024 -46.948118 
L 141.467091 -46.881818 
L 142.910182 -46.96822 
L 144.353273 -47.182006 
L 145.796364 -47.500047 
L 147.239455 -47.903768 
L 148.682545 -48.379846 
L 150.125636 -48.919237 
L 151.568727 -49.514847 
L 153.011818 -50.159339 
L 154.454909 -50.844584 
L 155.898 -51.56244 
L 157.341091 -52.305339 
L 158.784182 -53.066066 
L 160.227273 -53.837554 
L 161.670364 -54.613585 
L 163.113455 -55.38968 
L 164.556545 -56.16293 
L 165.999636 -56.931061 
L 167.442727 -57.691945 
L 168.885818 -58.443655 
L 170.328909 -59.184372 
L 171.772 -59.912146 
L 173.215091 -60.625108 
L 174.658182 -61.322092 
L 176.101273 -62.003014 
L 177.544364 -62.668551 
L 178.987455 -63.319429 
L 180.430545 -63.955863 
L 181.873636 -64.57741 
L 183.316727 -65.183123 
L 184.759818 -65.771766 
L 186.202909 -66.342008 
L 187.646 -66.892656 
L 189.089091 -67.422899 
L 190.532182 -67.932401 
L 191.975273 -68.421196 
L 193.418364 -68.889535 
L 194.861455 -69.337809 
L 196.304545 -69.766544 
L 196.304545 -84.453376 
L 196.304545 -84.453376 
L 194.861455 -84.882372 
L 193.418364 -85.330973 
L 191.975273 -85.799725 
L 190.532182 -86.289039 
L 189.089091 -86.799194 
L 187.646 -87.33026 
L 186.202909 -87.881944 
L 184.759818 -88.45349 
L 183.316727 -89.043775 
L 181.873636 -89.651554 
L 180.430545 -90.275703 
L 178.987455 -90.915412 
L 177.544364 -91.570412 
L 176.101273 -92.241139 
L 174.658182 -92.928592 
L 173.215091 -93.633798 
L 171.772 -94.357106 
L 170.328909 -95.097904 
L 168.885818 -95.855009 
L 167.442727 -96.62734 
L 165.999636 -97.414169 
L 164.556545 -98.214937 
L 163.113455 -99.029235 
L 161.670364 -99.856943 
L 160.227273 -100.697851 
L 158.784182 -101.550856 
L 157.341091 -102.413956 
L 155.898 -103.285341 
L 154.454909 -104.164327 
L 153.011818 -105.051444 
L 151.568727 -105.948537 
L 150.125636 -106.859735 
L 148.682545 -107.792648 
L 147.239455 -108.758244 
L 145.796364 -109.769074 
L 144.353273 -110.83727 
L 142.910182 -111.973717 
L 141.467091 -113.18857 
L 140.024 -114.492926 
L 138.580909 -115.900534 
L 137.137818 -117.427303 
L 135.694727 -119.088053 
L 134.251636 -120.892755 
L 132.808545 -122.844506 
L 131.365455 -124.938755 
L 129.922364 -127.161693 
L 128.479273 -129.487526 
L 127.036182 -131.876682 
L 125.593091 -134.276875 
L 124.15 -136.627731 
L 122.706909 -138.868502 
L 121.263818 -140.946744 
L 119.820727 -142.824597 
L 118.377636 -144.480238 
L 116.934545 -145.905116 
L 115.491455 -147.100355 
L 114.048364 -148.075004 
L 112.605273 -148.845446 
L 111.162182 -149.433675 
L 109.719091 -149.864302 
L 108.276 -150.16245 
L 106.832909 -150.353583 
L 105.389818 -150.463646 
L 103.946727 -150.517816 
L 102.503636 -150.538414 
L 101.060545 -150.543734 
L 99.617455 -150.548596 
L 98.174364 -150.566017 
L 96.731273 -150.608513 
L 95.288182 -150.688002 
L 93.845091 -150.815092 
L 92.402 -150.999217 
L 90.958909 -151.249754 
L 89.515818 -151.577425 
L 88.072727 -151.995539 
L 86.629636 -152.520682 
L 85.186545 -153.1723 
L 83.743455 -153.971115 
L 82.300364 -154.936908 
L 80.857273 -156.086145 
L 79.414182 -157.429438 
L 77.971091 -158.968861 
L 76.528 -160.695294 
L 75.084909 -162.585938 
L 73.641818 -164.602938 
L 72.198727 -166.694932 
L 70.755636 -168.8023 
L 69.312545 -170.864578 
L 67.869455 -172.827529 
L 66.426364 -174.648091 
L 64.983273 -176.296774 
L 63.540182 -177.757838 
L 62.097091 -179.027871 
L 60.654 -180.113398 
L 59.210909 -181.028052 
L 57.767818 -181.7897 
L 56.324727 -182.418173 
L 54.881636 -182.934307 
L 53.438545 -183.360027 
L 51.995455 -183.718182 
z
" id="mc2ddc07038" style="stroke:#ffffff;stroke-opacity:0.05;"/>
    </defs>
    <g clip-path="url(#p709b69d0b0)">
     <use style="fill:#001c7f;fill-opacity:0.05;stroke:#ffffff;stroke-opacity:0.05;" x="0" xlink:href="#mc2ddc07038" y="216"/>
    </g>
   </g>
   <g id="line2d_11">
    <path clip-path="url(#p709b69d0b0)" d="M 51.995455 64.468761 
L 53.438545 64.89507 
L 54.881636 65.398515 
L 56.324727 65.997792 
L 57.767818 66.712743 
L 59.210909 67.563699 
L 60.654 68.57032 
L 62.097091 69.749843 
L 63.540182 71.114767 
L 64.983273 72.670125 
L 66.426364 74.410728 
L 67.869455 76.318978 
L 69.312545 78.363962 
L 70.755636 80.502447 
L 72.198727 82.682018 
L 73.641818 84.846015 
L 75.084909 86.939364 
L 76.528 88.914065 
L 77.971091 90.733236 
L 79.414182 92.373091 
L 80.857273 93.822843 
L 82.300364 95.083014 
L 83.743455 96.162843 
L 85.186545 97.077484 
L 86.629636 97.845446 
L 88.072727 98.48657 
L 89.515818 99.020578 
L 90.958909 99.466182 
L 92.402 99.840621 
L 93.845091 100.159531 
L 95.288182 100.437039 
L 96.731273 100.685997 
L 98.174364 100.918304 
L 99.617455 101.145274 
L 101.060545 101.378031 
L 102.503636 101.627906 
L 103.946727 101.90683 
L 105.389818 102.227698 
L 106.832909 102.604693 
L 108.276 103.053512 
L 109.719091 103.591455 
L 111.162182 104.237279 
L 112.605273 105.010723 
L 114.048364 105.931591 
L 115.491455 107.018283 
L 116.934545 108.285737 
L 118.377636 109.742861 
L 119.820727 111.38972 
L 121.263818 113.214969 
L 122.706909 115.194213 
L 124.15 117.289985 
L 125.593091 119.453816 
L 127.036182 121.630343 
L 128.479273 123.762843 
L 129.922364 125.799027 
L 131.365455 127.695923 
L 132.808545 129.422909 
L 134.251636 130.962607 
L 135.694727 132.309894 
L 137.137818 133.469656 
L 138.580909 134.453995 
L 140.024 135.279478 
L 141.467091 135.964806 
L 142.910182 136.529032 
L 144.353273 136.990362 
L 145.796364 137.36544 
L 147.239455 137.668994 
L 148.682545 137.913753 
L 150.125636 138.110514 
L 151.568727 138.268308 
L 153.011818 138.394609 
L 154.454909 138.495544 
L 155.898 138.57611 
L 157.341091 138.640353 
L 158.784182 138.691539 
L 160.227273 138.732298 
L 161.670364 138.764736 
L 163.113455 138.790542 
L 164.556545 138.811066 
L 165.999636 138.827385 
L 167.442727 138.840358 
L 168.885818 138.850668 
L 170.328909 138.858862 
L 171.772 138.865374 
L 173.215091 138.870547 
L 174.658182 138.874658 
L 176.101273 138.877924 
L 177.544364 138.880518 
L 178.987455 138.88258 
L 180.430545 138.884217 
L 181.873636 138.885518 
L 183.316727 138.886551 
L 184.759818 138.887372 
L 186.202909 138.888024 
L 187.646 138.888542 
L 189.089091 138.888953 
L 190.532182 138.88928 
L 191.975273 138.88954 
L 193.418364 138.889746 
L 194.861455 138.88991 
L 196.304545 138.89004 
" style="fill:none;opacity:0.9;stroke:#001c7f;stroke-linecap:round;stroke-width:1.5;"/>
   </g>
   <g id="line2d_12">
    <path clip-path="url(#p709b69d0b0)" d="M 51.995455 101.027533 
L 53.438545 101.027627 
L 54.881636 101.027745 
L 56.324727 101.027893 
L 57.767818 101.02808 
L 59.210909 101.028315 
L 60.654 101.028611 
L 62.097091 101.028984 
L 63.540182 101.029453 
L 64.983273 101.030044 
L 66.426364 101.030787 
L 67.869455 101.031723 
L 69.312545 101.032902 
L 70.755636 101.034385 
L 72.198727 101.036252 
L 73.641818 101.038603 
L 75.084909 101.041561 
L 76.528 101.045286 
L 77.971091 101.049973 
L 79.414182 101.055872 
L 80.857273 101.063296 
L 82.300364 101.072639 
L 83.743455 101.084394 
L 85.186545 101.099182 
L 86.629636 101.117782 
L 88.072727 101.141173 
L 89.515818 101.170579 
L 90.958909 101.207534 
L 92.402 101.253955 
L 93.845091 101.312232 
L 95.288182 101.385344 
L 96.731273 101.476982 
L 98.174364 101.591712 
L 99.617455 101.735153 
L 101.060545 101.914173 
L 102.503636 102.137108 
L 103.946727 102.413972 
L 105.389818 102.756649 
L 106.832909 103.179005 
L 108.276 103.696884 
L 109.719091 104.32788 
L 111.162182 105.090795 
L 112.605273 106.004652 
L 114.048364 107.087178 
L 115.491455 108.352692 
L 116.934545 109.809505 
L 118.377636 111.457082 
L 119.820727 113.283482 
L 121.263818 115.263732 
L 122.706909 117.359862 
L 124.15 119.523016 
L 125.593091 121.697616 
L 127.036182 123.826907 
L 128.479273 125.858747 
L 129.922364 127.750433 
L 131.365455 129.47168 
L 132.808545 131.005451 
L 134.251636 132.346919 
L 135.694727 133.501196 
L 137.137818 134.480531 
L 138.580909 135.301572 
L 140.024 135.98304 
L 141.467091 136.543971 
L 142.910182 137.002529 
L 144.353273 137.3753 
L 145.796364 137.676954 
L 147.239455 137.920158 
L 148.682545 138.115654 
L 150.125636 138.272425 
L 151.568727 138.3979 
L 153.011818 138.498173 
L 154.454909 138.578206 
L 155.898 138.642023 
L 157.341091 138.69287 
L 158.784182 138.733357 
L 160.227273 138.765579 
L 161.670364 138.791213 
L 163.113455 138.811599 
L 164.556545 138.827809 
L 165.999636 138.840694 
L 167.442727 138.850936 
L 168.885818 138.859075 
L 170.328909 138.865543 
L 171.772 138.870682 
L 173.215091 138.874765 
L 174.658182 138.878009 
L 176.101273 138.880586 
L 177.544364 138.882633 
L 178.987455 138.88426 
L 180.430545 138.885552 
L 181.873636 138.886578 
L 183.316727 138.887393 
L 184.759818 138.888041 
L 186.202909 138.888555 
L 187.646 138.888964 
L 189.089091 138.889289 
L 190.532182 138.889546 
L 191.975273 138.889751 
L 193.418364 138.889914 
L 194.861455 138.890043 
L 196.304545 138.890146 
" style="fill:none;opacity:0.7;stroke:#000000;stroke-linecap:round;stroke-width:1.5;"/>
   </g>
   <g id="line2d_13">
    <path clip-path="url(#p709b69d0b0)" d="M 51.995455 32.281818 
L 53.438545 32.639973 
L 54.881636 33.065693 
L 56.324727 33.581827 
L 57.767818 34.2103 
L 59.210909 34.971948 
L 60.654 35.886602 
L 62.097091 36.972129 
L 63.540182 38.242162 
L 64.983273 39.703226 
L 66.426364 41.351909 
L 67.869455 43.172471 
L 69.312545 45.135422 
L 70.755636 47.1977 
L 72.198727 49.305068 
L 73.641818 51.397062 
L 75.084909 53.414062 
L 76.528 55.304706 
L 77.971091 57.031139 
L 79.414182 58.570562 
L 80.857273 59.913855 
L 82.300364 61.063092 
L 83.743455 62.028885 
L 85.186545 62.8277 
L 86.629636 63.479318 
L 88.072727 64.004461 
L 89.515818 64.422575 
L 90.958909 64.750246 
L 92.402 65.000783 
L 93.845091 65.184908 
L 95.288182 65.311998 
L 96.731273 65.391487 
L 98.174364 65.433983 
L 99.617455 65.451404 
L 101.060545 65.456266 
L 102.503636 65.461586 
L 103.946727 65.482184 
L 105.389818 65.536354 
L 106.832909 65.646417 
L 108.276 65.83755 
L 109.719091 66.135698 
L 111.162182 66.566325 
L 112.605273 67.154554 
L 114.048364 67.924996 
L 115.491455 68.899645 
L 116.934545 70.094884 
L 118.377636 71.519762 
L 119.820727 73.175403 
L 121.263818 75.053256 
L 122.706909 77.131498 
L 124.15 79.372269 
L 125.593091 81.723125 
L 127.036182 84.123318 
L 128.479273 86.512474 
L 129.922364 88.838307 
L 131.365455 91.061245 
L 132.808545 93.155494 
L 134.251636 95.107245 
L 135.694727 96.911947 
L 137.137818 98.572697 
L 138.580909 100.099466 
L 140.024 101.507074 
L 141.467091 102.81143 
L 142.910182 104.026283 
L 144.353273 105.16273 
L 145.796364 106.230926 
L 147.239455 107.241756 
L 148.682545 108.207352 
L 150.125636 109.140265 
L 151.568727 110.051463 
L 153.011818 110.948556 
L 154.454909 111.835673 
L 155.898 112.714659 
L 157.341091 113.586044 
L 158.784182 114.449144 
L 160.227273 115.302149 
L 161.670364 116.143057 
L 163.113455 116.970765 
L 164.556545 117.785063 
L 165.999636 118.585831 
L 167.442727 119.37266 
L 168.885818 120.144991 
L 170.328909 120.902096 
L 171.772 121.642894 
L 173.215091 122.366202 
L 174.658182 123.071408 
L 176.101273 123.758861 
L 177.544364 124.429588 
L 178.987455 125.084588 
L 180.430545 125.724297 
L 181.873636 126.348446 
L 183.316727 126.956225 
L 184.759818 127.54651 
L 186.202909 128.118056 
L 187.646 128.66974 
L 189.089091 129.200806 
L 190.532182 129.710961 
L 191.975273 130.200275 
L 193.418364 130.669027 
L 194.861455 131.117628 
L 196.304545 131.546624 
" style="fill:none;opacity:0.45;stroke:#001c7f;stroke-dasharray:2.775,1.2;stroke-dashoffset:0;stroke-width:0.75;"/>
   </g>
   <g id="line2d_14">
    <path clip-path="url(#p709b69d0b0)" d="M 51.995455 96.655703 
L 53.438545 97.150167 
L 54.881636 97.731338 
L 56.324727 98.413757 
L 57.767818 99.215185 
L 59.210909 100.155451 
L 60.654 101.254038 
L 62.097091 102.527557 
L 63.540182 103.987372 
L 64.983273 105.637025 
L 66.426364 107.469547 
L 67.869455 109.465484 
L 69.312545 111.592502 
L 70.755636 113.807195 
L 72.198727 116.058968 
L 73.641818 118.294967 
L 75.084909 120.464666 
L 76.528 122.523425 
L 77.971091 124.435333 
L 79.414182 126.17562 
L 80.857273 127.731832 
L 82.300364 129.102935 
L 83.743455 130.296802 
L 85.186545 131.327268 
L 86.629636 132.211574 
L 88.072727 132.968678 
L 89.515818 133.618582 
L 90.958909 134.182118 
L 92.402 134.680459 
L 93.845091 135.134155 
L 95.288182 135.562081 
L 96.731273 135.980507 
L 98.174364 136.402624 
L 99.617455 136.839143 
L 101.060545 137.299796 
L 102.503636 137.794227 
L 103.946727 138.331476 
L 105.389818 138.919042 
L 106.832909 139.562968 
L 108.276 140.269474 
L 109.719091 141.047213 
L 111.162182 141.908233 
L 112.605273 142.866892 
L 114.048364 143.938186 
L 115.491455 145.136921 
L 116.934545 146.47659 
L 118.377636 147.96596 
L 119.820727 149.604037 
L 121.263818 151.376681 
L 122.706909 153.256927 
L 124.15 155.207702 
L 125.593091 157.184506 
L 127.036182 159.137369 
L 128.479273 161.013212 
L 129.922364 162.759747 
L 131.365455 164.330601 
L 132.808545 165.690324 
L 134.251636 166.817969 
L 135.694727 167.707842 
L 137.137818 168.366616 
L 138.580909 168.808523 
L 140.024 169.051882 
L 141.467091 169.118182 
L 142.910182 169.03178 
L 144.353273 168.817994 
L 145.796364 168.499953 
L 147.239455 168.096232 
L 148.682545 167.620154 
L 150.125636 167.080763 
L 151.568727 166.485153 
L 153.011818 165.840661 
L 154.454909 165.155416 
L 155.898 164.43756 
L 157.341091 163.694661 
L 158.784182 162.933934 
L 160.227273 162.162446 
L 161.670364 161.386415 
L 163.113455 160.61032 
L 164.556545 159.83707 
L 165.999636 159.068939 
L 167.442727 158.308055 
L 168.885818 157.556345 
L 170.328909 156.815628 
L 171.772 156.087854 
L 173.215091 155.374892 
L 174.658182 154.677908 
L 176.101273 153.996986 
L 177.544364 153.331449 
L 178.987455 152.680571 
L 180.430545 152.044137 
L 181.873636 151.42259 
L 183.316727 150.816877 
L 184.759818 150.228234 
L 186.202909 149.657992 
L 187.646 149.107344 
L 189.089091 148.577101 
L 190.532182 148.067599 
L 191.975273 147.578804 
L 193.418364 147.110465 
L 194.861455 146.662191 
L 196.304545 146.233456 
" style="fill:none;opacity:0.45;stroke:#001c7f;stroke-dasharray:2.775,1.2;stroke-dashoffset:0;stroke-width:0.75;"/>
   </g>
   <g id="patch_3">
    <path d="M 44.78 175.96 
L 44.78 25.44 
" style="fill:none;stroke:#262626;stroke-linecap:square;stroke-linejoin:miter;stroke-width:0.8;"/>
   </g>
   <g id="patch_4">
    <path d="M 44.78 175.96 
L 203.52 175.96 
" style="fill:none;stroke:#262626;stroke-linecap:square;stroke-linejoin:miter;stroke-width:0.8;"/>
   </g>
   <g id="text_13">
    <!-- Epik-micro SM03 -->
    <defs>
     <path d="M 7.90625 0 
L 7.90625 71.578125 
L 59.671875 71.578125 
L 59.671875 63.140625 
L 17.390625 63.140625 
L 17.390625 41.21875 
L 56.984375 41.21875 
L 56.984375 32.8125 
L 17.390625 32.8125 
L 17.390625 8.453125 
L 61.328125 8.453125 
L 61.328125 0 
z
" id="ArialMT-45"/>
     <path d="M 6.640625 61.46875 
L 6.640625 71.578125 
L 15.4375 71.578125 
L 15.4375 61.46875 
z
M 6.640625 0 
L 6.640625 51.859375 
L 15.4375 51.859375 
L 15.4375 0 
z
" id="ArialMT-69"/>
     <path d="M 6.640625 0 
L 6.640625 71.578125 
L 15.4375 71.578125 
L 15.4375 30.765625 
L 36.234375 51.859375 
L 47.609375 51.859375 
L 27.78125 32.625 
L 49.609375 0 
L 38.765625 0 
L 21.625 26.515625 
L 15.4375 20.5625 
L 15.4375 0 
z
" id="ArialMT-6b"/>
     <path d="M 3.171875 21.484375 
L 3.171875 30.328125 
L 30.171875 30.328125 
L 30.171875 21.484375 
z
" id="ArialMT-2d"/>
     <path d="M 6.59375 0 
L 6.59375 51.859375 
L 14.453125 51.859375 
L 14.453125 44.578125 
Q 16.890625 48.390625 20.9375 50.703125 
Q 25 53.03125 30.171875 53.03125 
Q 35.9375 53.03125 39.625 50.640625 
Q 43.3125 48.25 44.828125 43.953125 
Q 50.984375 53.03125 60.84375 53.03125 
Q 68.5625 53.03125 72.703125 48.75 
Q 76.859375 44.484375 76.859375 35.59375 
L 76.859375 0 
L 68.109375 0 
L 68.109375 32.671875 
Q 68.109375 37.9375 67.25 40.25 
Q 66.40625 42.578125 64.15625 43.984375 
Q 61.921875 45.40625 58.890625 45.40625 
Q 53.421875 45.40625 49.796875 41.765625 
Q 46.1875 38.140625 46.1875 30.125 
L 46.1875 0 
L 37.40625 0 
L 37.40625 33.6875 
Q 37.40625 39.546875 35.25 42.46875 
Q 33.109375 45.40625 28.21875 45.40625 
Q 24.515625 45.40625 21.359375 43.453125 
Q 18.21875 41.5 16.796875 37.734375 
Q 15.375 33.984375 15.375 26.90625 
L 15.375 0 
z
" id="ArialMT-6d"/>
     <path d="M 40.4375 19 
L 49.078125 17.875 
Q 47.65625 8.9375 41.8125 3.875 
Q 35.984375 -1.171875 27.484375 -1.171875 
Q 16.84375 -1.171875 10.375 5.78125 
Q 3.90625 12.75 3.90625 25.734375 
Q 3.90625 34.125 6.6875 40.421875 
Q 9.46875 46.734375 15.15625 49.875 
Q 20.84375 53.03125 27.546875 53.03125 
Q 35.984375 53.03125 41.359375 48.75 
Q 46.734375 44.484375 48.25 36.625 
L 39.703125 35.296875 
Q 38.484375 40.53125 35.375 43.15625 
Q 32.28125 45.796875 27.875 45.796875 
Q 21.234375 45.796875 17.078125 41.03125 
Q 12.9375 36.28125 12.9375 25.984375 
Q 12.9375 15.53125 16.9375 10.796875 
Q 20.953125 6.0625 27.390625 6.0625 
Q 32.5625 6.0625 36.03125 9.234375 
Q 39.5 12.40625 40.4375 19 
z
" id="ArialMT-63"/>
     <path d="M 6.5 0 
L 6.5 51.859375 
L 14.40625 51.859375 
L 14.40625 44 
Q 17.4375 49.515625 20 51.265625 
Q 22.5625 53.03125 25.640625 53.03125 
Q 30.078125 53.03125 34.671875 50.203125 
L 31.640625 42.046875 
Q 28.421875 43.953125 25.203125 43.953125 
Q 22.3125 43.953125 20.015625 42.21875 
Q 17.71875 40.484375 16.75 37.40625 
Q 15.28125 32.71875 15.28125 27.15625 
L 15.28125 0 
z
" id="ArialMT-72"/>
     <path d="M 3.328125 25.921875 
Q 3.328125 40.328125 11.328125 47.265625 
Q 18.015625 53.03125 27.640625 53.03125 
Q 38.328125 53.03125 45.109375 46.015625 
Q 51.90625 39.015625 51.90625 26.65625 
Q 51.90625 16.65625 48.90625 10.90625 
Q 45.90625 5.171875 40.15625 2 
Q 34.421875 -1.171875 27.640625 -1.171875 
Q 16.75 -1.171875 10.03125 5.8125 
Q 3.328125 12.796875 3.328125 25.921875 
z
M 12.359375 25.921875 
Q 12.359375 15.96875 16.703125 11.015625 
Q 21.046875 6.0625 27.640625 6.0625 
Q 34.1875 6.0625 38.53125 11.03125 
Q 42.875 16.015625 42.875 26.21875 
Q 42.875 35.84375 38.5 40.796875 
Q 34.125 45.75 27.640625 45.75 
Q 21.046875 45.75 16.703125 40.8125 
Q 12.359375 35.890625 12.359375 25.921875 
z
" id="ArialMT-6f"/>
     <path id="ArialMT-20"/>
     <path d="M 4.5 23 
L 13.421875 23.78125 
Q 14.0625 18.40625 16.375 14.96875 
Q 18.703125 11.53125 23.578125 9.40625 
Q 28.46875 7.28125 34.578125 7.28125 
Q 39.984375 7.28125 44.140625 8.890625 
Q 48.296875 10.5 50.3125 13.296875 
Q 52.34375 16.109375 52.34375 19.4375 
Q 52.34375 22.796875 50.390625 25.3125 
Q 48.4375 27.828125 43.953125 29.546875 
Q 41.0625 30.671875 31.203125 33.03125 
Q 21.34375 35.40625 17.390625 37.5 
Q 12.25 40.1875 9.734375 44.15625 
Q 7.234375 48.140625 7.234375 53.078125 
Q 7.234375 58.5 10.296875 63.203125 
Q 13.375 67.921875 19.28125 70.359375 
Q 25.203125 72.796875 32.421875 72.796875 
Q 40.375 72.796875 46.453125 70.234375 
Q 52.546875 67.671875 55.8125 62.6875 
Q 59.078125 57.71875 59.328125 51.421875 
L 50.25 50.734375 
Q 49.515625 57.515625 45.28125 60.984375 
Q 41.0625 64.453125 32.8125 64.453125 
Q 24.21875 64.453125 20.28125 61.296875 
Q 16.359375 58.15625 16.359375 53.71875 
Q 16.359375 49.859375 19.140625 47.359375 
Q 21.875 44.875 33.421875 42.265625 
Q 44.96875 39.65625 49.265625 37.703125 
Q 55.515625 34.8125 58.484375 30.390625 
Q 61.46875 25.984375 61.46875 20.21875 
Q 61.46875 14.5 58.203125 9.4375 
Q 54.9375 4.390625 48.796875 1.578125 
Q 42.671875 -1.21875 35.015625 -1.21875 
Q 25.296875 -1.21875 18.71875 1.609375 
Q 12.15625 4.4375 8.421875 10.125 
Q 4.6875 15.828125 4.5 23 
z
" id="ArialMT-53"/>
     <path d="M 7.421875 0 
L 7.421875 71.578125 
L 21.6875 71.578125 
L 38.625 20.90625 
Q 40.96875 13.8125 42.046875 10.296875 
Q 43.265625 14.203125 45.84375 21.78125 
L 62.984375 71.578125 
L 75.734375 71.578125 
L 75.734375 0 
L 66.609375 0 
L 66.609375 59.90625 
L 45.796875 0 
L 37.25 0 
L 16.546875 60.9375 
L 16.546875 0 
z
" id="ArialMT-4d"/>
     <path d="M 4.203125 18.890625 
L 12.984375 20.0625 
Q 14.5 12.59375 18.140625 9.296875 
Q 21.78125 6 27 6 
Q 33.203125 6 37.46875 10.296875 
Q 41.75 14.59375 41.75 20.953125 
Q 41.75 27 37.796875 30.921875 
Q 33.84375 34.859375 27.734375 34.859375 
Q 25.25 34.859375 21.53125 33.890625 
L 22.515625 41.609375 
Q 23.390625 41.5 23.921875 41.5 
Q 29.546875 41.5 34.03125 44.421875 
Q 38.53125 47.359375 38.53125 53.46875 
Q 38.53125 58.296875 35.25 61.46875 
Q 31.984375 64.65625 26.8125 64.65625 
Q 21.6875 64.65625 18.265625 61.421875 
Q 14.84375 58.203125 13.875 51.765625 
L 5.078125 53.328125 
Q 6.6875 62.15625 12.390625 67.015625 
Q 18.109375 71.875 26.609375 71.875 
Q 32.46875 71.875 37.390625 69.359375 
Q 42.328125 66.84375 44.9375 62.5 
Q 47.5625 58.15625 47.5625 53.265625 
Q 47.5625 48.640625 45.0625 44.828125 
Q 42.578125 41.015625 37.703125 38.765625 
Q 44.046875 37.3125 47.5625 32.6875 
Q 51.078125 28.078125 51.078125 21.140625 
Q 51.078125 11.765625 44.234375 5.25 
Q 37.40625 -1.265625 26.953125 -1.265625 
Q 17.53125 -1.265625 11.296875 4.34375 
Q 5.078125 9.96875 4.203125 18.890625 
z
" id="ArialMT-33"/>
    </defs>
    <g style="fill:#262626;" transform="translate(78.475 19.44)scale(0.12 -0.12)">
     <use xlink:href="#ArialMT-45"/>
     <use x="66.699219" xlink:href="#ArialMT-70"/>
     <use x="122.314453" xlink:href="#ArialMT-69"/>
     <use x="144.53125" xlink:href="#ArialMT-6b"/>
     <use x="194.53125" xlink:href="#ArialMT-2d"/>
     <use x="227.832031" xlink:href="#ArialMT-6d"/>
     <use x="311.132812" xlink:href="#ArialMT-69"/>
     <use x="333.349609" xlink:href="#ArialMT-63"/>
     <use x="383.349609" xlink:href="#ArialMT-72"/>
     <use x="416.650391" xlink:href="#ArialMT-6f"/>
     <use x="472.265625" xlink:href="#ArialMT-20"/>
     <use x="500.048828" xlink:href="#ArialMT-53"/>
     <use x="566.748047" xlink:href="#ArialMT-4d"/>
     <use x="650.048828" xlink:href="#ArialMT-30"/>
     <use x="705.664062" xlink:href="#ArialMT-33"/>
    </g>
   </g>
  </g>
 </g>
 <defs>
  <clipPath id="p709b69d0b0">
   <rect height="150.52" width="158.74" x="44.78" y="25.44"/>
  </clipPath>
 </defs>
</svg>
