<?xml version="1.0" encoding="utf-8" standalone="no"?>
<!DOCTYPE svg PUBLIC "-//W3C//DTD SVG 1.1//EN"
  "http://www.w3.org/Graphics/SVG/1.1/DTD/svg11.dtd">
<!-- Created with matplotlib (http://matplotlib.org/) -->
<svg height="216pt" version="1.1" viewBox="0 0 216 216" width="216pt" xmlns="http://www.w3.org/2000/svg" xmlns:xlink="http://www.w3.org/1999/xlink">
 <defs>
  <style type="text/css">
*{stroke-linecap:butt;stroke-linejoin:round;}
  </style>
 </defs>
 <g id="figure_1">
  <g id="patch_1">
   <path d="M 0 216 
L 216 216 
L 216 0 
L 0 0 
z
" style="fill:#ffffff;"/>
  </g>
  <g id="axes_1">
   <g id="patch_2">
    <path d="M 38.96 175.96 
L 203.52 175.96 
L 203.52 25.44 
L 38.96 25.44 
z
" style="fill:#ffffff;"/>
   </g>
   <g id="matplotlib.axis_1">
    <g id="xtick_1">
     <g id="line2d_1">
      <defs>
       <path d="M 0 0 
L 0 3.5 
" id="m9ab48d150c" style="stroke:#262626;stroke-width:0.8;"/>
      </defs>
      <g>
       <use style="fill:#262626;stroke:#262626;stroke-width:0.8;" x="46.44" xlink:href="#m9ab48d150c" y="175.96"/>
      </g>
     </g>
     <g id="text_1">
      <!-- 2 -->
      <defs>
       <path d="M 50.34375 8.453125 
L 50.34375 0 
L 3.03125 0 
Q 2.9375 3.171875 4.046875 6.109375 
Q 5.859375 10.9375 9.828125 15.625 
Q 13.8125 20.3125 21.34375 26.46875 
Q 33.015625 36.03125 37.109375 41.625 
Q 41.21875 47.21875 41.21875 52.203125 
Q 41.21875 57.421875 37.46875 61 
Q 33.734375 64.59375 27.734375 64.59375 
Q 21.390625 64.59375 17.578125 60.78125 
Q 13.765625 56.984375 13.71875 50.25 
L 4.6875 51.171875 
Q 5.609375 61.28125 11.65625 66.578125 
Q 17.71875 71.875 27.9375 71.875 
Q 38.234375 71.875 44.234375 66.15625 
Q 50.25 60.453125 50.25 52 
Q 50.25 47.703125 48.484375 43.546875 
Q 46.734375 39.40625 42.65625 34.8125 
Q 38.578125 30.21875 29.109375 22.21875 
Q 21.1875 15.578125 18.9375 13.203125 
Q 16.703125 10.84375 15.234375 8.453125 
z
" id="ArialMT-32"/>
      </defs>
      <g style="fill:#262626;" transform="translate(43.659531 190.117812)scale(0.1 -0.1)">
       <use xlink:href="#ArialMT-32"/>
      </g>
     </g>
    </g>
    <g id="xtick_2">
     <g id="line2d_2">
      <g>
       <use style="fill:#262626;stroke:#262626;stroke-width:0.8;" x="76.36" xlink:href="#m9ab48d150c" y="175.96"/>
      </g>
     </g>
     <g id="text_2">
      <!-- 4 -->
      <defs>
       <path d="M 32.328125 0 
L 32.328125 17.140625 
L 1.265625 17.140625 
L 1.265625 25.203125 
L 33.9375 71.578125 
L 41.109375 71.578125 
L 41.109375 25.203125 
L 50.78125 25.203125 
L 50.78125 17.140625 
L 41.109375 17.140625 
L 41.109375 0 
z
M 32.328125 25.203125 
L 32.328125 57.46875 
L 9.90625 25.203125 
z
" id="ArialMT-34"/>
      </defs>
      <g style="fill:#262626;" transform="translate(73.579531 190.117812)scale(0.1 -0.1)">
       <use xlink:href="#ArialMT-34"/>
      </g>
     </g>
    </g>
    <g id="xtick_3">
     <g id="line2d_3">
      <g>
       <use style="fill:#262626;stroke:#262626;stroke-width:0.8;" x="106.28" xlink:href="#m9ab48d150c" y="175.96"/>
      </g>
     </g>
     <g id="text_3">
      <!-- 6 -->
      <defs>
       <path d="M 49.75 54.046875 
L 41.015625 53.375 
Q 39.84375 58.546875 37.703125 60.890625 
Q 34.125 64.65625 28.90625 64.65625 
Q 24.703125 64.65625 21.53125 62.3125 
Q 17.390625 59.28125 14.984375 53.46875 
Q 12.59375 47.65625 12.5 36.921875 
Q 15.671875 41.75 20.265625 44.09375 
Q 24.859375 46.4375 29.890625 46.4375 
Q 38.671875 46.4375 44.84375 39.96875 
Q 51.03125 33.5 51.03125 23.25 
Q 51.03125 16.5 48.125 10.71875 
Q 45.21875 4.9375 40.140625 1.859375 
Q 35.0625 -1.21875 28.609375 -1.21875 
Q 17.625 -1.21875 10.6875 6.859375 
Q 3.765625 14.9375 3.765625 33.5 
Q 3.765625 54.25 11.421875 63.671875 
Q 18.109375 71.875 29.4375 71.875 
Q 37.890625 71.875 43.28125 67.140625 
Q 48.6875 62.40625 49.75 54.046875 
z
M 13.875 23.1875 
Q 13.875 18.65625 15.796875 14.5 
Q 17.71875 10.359375 21.1875 8.171875 
Q 24.65625 6 28.46875 6 
Q 34.03125 6 38.03125 10.484375 
Q 42.046875 14.984375 42.046875 22.703125 
Q 42.046875 30.125 38.078125 34.390625 
Q 34.125 38.671875 28.125 38.671875 
Q 22.171875 38.671875 18.015625 34.390625 
Q 13.875 30.125 13.875 23.1875 
z
" id="ArialMT-36"/>
      </defs>
      <g style="fill:#262626;" transform="translate(103.499531 190.117812)scale(0.1 -0.1)">
       <use xlink:href="#ArialMT-36"/>
      </g>
     </g>
    </g>
    <g id="xtick_4">
     <g id="line2d_4">
      <g>
       <use style="fill:#262626;stroke:#262626;stroke-width:0.8;" x="136.2" xlink:href="#m9ab48d150c" y="175.96"/>
      </g>
     </g>
     <g id="text_4">
      <!-- 8 -->
      <defs>
       <path d="M 17.671875 38.8125 
Q 12.203125 40.828125 9.5625 44.53125 
Q 6.9375 48.25 6.9375 53.421875 
Q 6.9375 61.234375 12.546875 66.546875 
Q 18.171875 71.875 27.484375 71.875 
Q 36.859375 71.875 42.578125 66.421875 
Q 48.296875 60.984375 48.296875 53.171875 
Q 48.296875 48.1875 45.671875 44.5 
Q 43.0625 40.828125 37.75 38.8125 
Q 44.34375 36.671875 47.78125 31.875 
Q 51.21875 27.09375 51.21875 20.453125 
Q 51.21875 11.28125 44.71875 5.03125 
Q 38.234375 -1.21875 27.640625 -1.21875 
Q 17.046875 -1.21875 10.546875 5.046875 
Q 4.046875 11.328125 4.046875 20.703125 
Q 4.046875 27.6875 7.59375 32.390625 
Q 11.140625 37.109375 17.671875 38.8125 
z
M 15.921875 53.71875 
Q 15.921875 48.640625 19.1875 45.40625 
Q 22.46875 42.1875 27.6875 42.1875 
Q 32.765625 42.1875 36.015625 45.375 
Q 39.265625 48.578125 39.265625 53.21875 
Q 39.265625 58.0625 35.90625 61.359375 
Q 32.5625 64.65625 27.59375 64.65625 
Q 22.5625 64.65625 19.234375 61.421875 
Q 15.921875 58.203125 15.921875 53.71875 
z
M 13.09375 20.65625 
Q 13.09375 16.890625 14.875 13.375 
Q 16.65625 9.859375 20.171875 7.921875 
Q 23.6875 6 27.734375 6 
Q 34.03125 6 38.125 10.046875 
Q 42.234375 14.109375 42.234375 20.359375 
Q 42.234375 26.703125 38.015625 30.859375 
Q 33.796875 35.015625 27.4375 35.015625 
Q 21.234375 35.015625 17.15625 30.90625 
Q 13.09375 26.8125 13.09375 20.65625 
z
" id="ArialMT-38"/>
      </defs>
      <g style="fill:#262626;" transform="translate(133.419531 190.117812)scale(0.1 -0.1)">
       <use xlink:href="#ArialMT-38"/>
      </g>
     </g>
    </g>
    <g id="xtick_5">
     <g id="line2d_5">
      <g>
       <use style="fill:#262626;stroke:#262626;stroke-width:0.8;" x="166.12" xlink:href="#m9ab48d150c" y="175.96"/>
      </g>
     </g>
     <g id="text_5">
      <!-- 10 -->
      <defs>
       <path d="M 37.25 0 
L 28.46875 0 
L 28.46875 56 
Q 25.296875 52.984375 20.140625 49.953125 
Q 14.984375 46.921875 10.890625 45.40625 
L 10.890625 53.90625 
Q 18.265625 57.375 23.78125 62.296875 
Q 29.296875 67.234375 31.59375 71.875 
L 37.25 71.875 
z
" id="ArialMT-31"/>
       <path d="M 4.15625 35.296875 
Q 4.15625 48 6.765625 55.734375 
Q 9.375 63.484375 14.515625 67.671875 
Q 19.671875 71.875 27.484375 71.875 
Q 33.25 71.875 37.59375 69.546875 
Q 41.9375 67.234375 44.765625 62.859375 
Q 47.609375 58.5 49.21875 52.21875 
Q 50.828125 45.953125 50.828125 35.296875 
Q 50.828125 22.703125 48.234375 14.96875 
Q 45.65625 7.234375 40.5 3 
Q 35.359375 -1.21875 27.484375 -1.21875 
Q 17.140625 -1.21875 11.234375 6.203125 
Q 4.15625 15.140625 4.15625 35.296875 
z
M 13.1875 35.296875 
Q 13.1875 17.671875 17.3125 11.828125 
Q 21.4375 6 27.484375 6 
Q 33.546875 6 37.671875 11.859375 
Q 41.796875 17.71875 41.796875 35.296875 
Q 41.796875 52.984375 37.671875 58.78125 
Q 33.546875 64.59375 27.390625 64.59375 
Q 21.34375 64.59375 17.71875 59.46875 
Q 13.1875 52.9375 13.1875 35.296875 
z
" id="ArialMT-30"/>
      </defs>
      <g style="fill:#262626;" transform="translate(160.559062 190.117812)scale(0.1 -0.1)">
       <use xlink:href="#ArialMT-31"/>
       <use x="55.615234" xlink:href="#ArialMT-30"/>
      </g>
     </g>
    </g>
    <g id="xtick_6">
     <g id="line2d_6">
      <g>
       <use style="fill:#262626;stroke:#262626;stroke-width:0.8;" x="196.04" xlink:href="#m9ab48d150c" y="175.96"/>
      </g>
     </g>
     <g id="text_6">
      <!-- 12 -->
      <g style="fill:#262626;" transform="translate(190.479062 190.117812)scale(0.1 -0.1)">
       <use xlink:href="#ArialMT-31"/>
       <use x="55.615234" xlink:href="#ArialMT-32"/>
      </g>
     </g>
    </g>
    <g id="text_7">
     <!-- pH -->
     <defs>
      <path d="M 6.59375 -19.875 
L 6.59375 51.859375 
L 14.59375 51.859375 
L 14.59375 45.125 
Q 17.4375 49.078125 21 51.046875 
Q 24.5625 53.03125 29.640625 53.03125 
Q 36.28125 53.03125 41.359375 49.609375 
Q 46.4375 46.1875 49.015625 39.953125 
Q 51.609375 33.734375 51.609375 26.3125 
Q 51.609375 18.359375 48.75 11.984375 
Q 45.90625 5.609375 40.453125 2.21875 
Q 35.015625 -1.171875 29 -1.171875 
Q 24.609375 -1.171875 21.109375 0.6875 
Q 17.625 2.546875 15.375 5.375 
L 15.375 -19.875 
z
M 14.546875 25.640625 
Q 14.546875 15.625 18.59375 10.84375 
Q 22.65625 6.0625 28.421875 6.0625 
Q 34.28125 6.0625 38.453125 11.015625 
Q 42.625 15.96875 42.625 26.375 
Q 42.625 36.28125 38.546875 41.203125 
Q 34.46875 46.140625 28.8125 46.140625 
Q 23.1875 46.140625 18.859375 40.890625 
Q 14.546875 35.640625 14.546875 25.640625 
z
" id="ArialMT-70"/>
      <path d="M 8.015625 0 
L 8.015625 71.578125 
L 17.484375 71.578125 
L 17.484375 42.1875 
L 54.6875 42.1875 
L 54.6875 71.578125 
L 64.15625 71.578125 
L 64.15625 0 
L 54.6875 0 
L 54.6875 33.734375 
L 17.484375 33.734375 
L 17.484375 0 
z
" id="ArialMT-48"/>
     </defs>
     <g style="fill:#262626;" transform="translate(114.848594 203.263125)scale(0.1 -0.1)">
      <use xlink:href="#ArialMT-70"/>
      <use x="55.615234" xlink:href="#ArialMT-48"/>
     </g>
    </g>
   </g>
   <g id="matplotlib.axis_2">
    <g id="ytick_1">
     <g id="line2d_7">
      <defs>
       <path d="M 0 0 
L -3.5 0 
" id="me40e105bc8" style="stroke:#262626;stroke-width:0.8;"/>
      </defs>
      <g>
       <use style="fill:#262626;stroke:#262626;stroke-width:0.8;" x="38.96" xlink:href="#me40e105bc8" y="138.891748"/>
      </g>
     </g>
     <g id="text_8">
      <!-- 0 -->
      <g style="fill:#262626;" transform="translate(26.399063 142.470654)scale(0.1 -0.1)">
       <use xlink:href="#ArialMT-30"/>
      </g>
     </g>
    </g>
    <g id="ytick_2">
     <g id="line2d_8">
      <g>
       <use style="fill:#262626;stroke:#262626;stroke-width:0.8;" x="38.96" xlink:href="#me40e105bc8" y="97.460023"/>
      </g>
     </g>
     <g id="text_9">
      <!-- 1 -->
      <g style="fill:#262626;" transform="translate(26.399063 101.038929)scale(0.1 -0.1)">
       <use xlink:href="#ArialMT-31"/>
      </g>
     </g>
    </g>
    <g id="ytick_3">
     <g id="line2d_9">
      <g>
       <use style="fill:#262626;stroke:#262626;stroke-width:0.8;" x="38.96" xlink:href="#me40e105bc8" y="56.028298"/>
      </g>
     </g>
     <g id="text_10">
      <!-- 2 -->
      <g style="fill:#262626;" transform="translate(26.399063 59.607204)scale(0.1 -0.1)">
       <use xlink:href="#ArialMT-32"/>
      </g>
     </g>
    </g>
    <g id="text_11">
     <!-- $\langle q_\mathsf{total} \rangle$ -->
     <defs>
      <path d="M 8.9375 31.34375 
L 22.703125 75.875 
L 31 75.875 
L 17.234375 31.34375 
L 31 -13.1875 
L 22.703125 -13.1875 
z
" id="DejaVuSans-27e8"/>
      <path d="M 41.703125 8.203125 
Q 38.09375 3.46875 33.171875 1.015625 
Q 28.265625 -1.421875 22.3125 -1.421875 
Q 14.015625 -1.421875 9.296875 4.171875 
Q 4.59375 9.765625 4.59375 19.578125 
Q 4.59375 27.484375 7.5 34.859375 
Q 10.40625 42.234375 15.828125 48.09375 
Q 19.34375 51.90625 23.90625 53.953125 
Q 28.46875 56 33.5 56 
Q 39.546875 56 43.453125 53.609375 
Q 47.359375 51.21875 49.125 46.390625 
L 50.6875 54.59375 
L 59.71875 54.59375 
L 45.125 -20.609375 
L 36.078125 -20.609375 
z
M 13.921875 20.90625 
Q 13.921875 13.671875 16.9375 9.890625 
Q 19.96875 6.109375 25.6875 6.109375 
Q 34.1875 6.109375 40.1875 14.234375 
Q 46.1875 22.359375 46.1875 33.984375 
Q 46.1875 41.015625 43.078125 44.75 
Q 39.984375 48.484375 34.1875 48.484375 
Q 29.9375 48.484375 26.3125 46.5 
Q 22.703125 44.53125 20.015625 40.71875 
Q 17.1875 36.71875 15.546875 31.34375 
Q 13.921875 25.984375 13.921875 20.90625 
z
" id="DejaVuSans-Oblique-71"/>
      <path d="M 18.3125 70.21875 
L 18.3125 54.6875 
L 36.8125 54.6875 
L 36.8125 47.703125 
L 18.3125 47.703125 
L 18.3125 18.015625 
Q 18.3125 11.328125 20.140625 9.421875 
Q 21.96875 7.515625 27.59375 7.515625 
L 36.8125 7.515625 
L 36.8125 0 
L 27.59375 0 
Q 17.1875 0 13.234375 3.875 
Q 9.28125 7.765625 9.28125 18.015625 
L 9.28125 47.703125 
L 2.6875 47.703125 
L 2.6875 54.6875 
L 9.28125 54.6875 
L 9.28125 70.21875 
z
" id="DejaVuSans-74"/>
      <path d="M 30.609375 48.390625 
Q 23.390625 48.390625 19.1875 42.75 
Q 14.984375 37.109375 14.984375 27.296875 
Q 14.984375 17.484375 19.15625 11.84375 
Q 23.34375 6.203125 30.609375 6.203125 
Q 37.796875 6.203125 41.984375 11.859375 
Q 46.1875 17.53125 46.1875 27.296875 
Q 46.1875 37.015625 41.984375 42.703125 
Q 37.796875 48.390625 30.609375 48.390625 
z
M 30.609375 56 
Q 42.328125 56 49.015625 48.375 
Q 55.71875 40.765625 55.71875 27.296875 
Q 55.71875 13.875 49.015625 6.21875 
Q 42.328125 -1.421875 30.609375 -1.421875 
Q 18.84375 -1.421875 12.171875 6.21875 
Q 5.515625 13.875 5.515625 27.296875 
Q 5.515625 40.765625 12.171875 48.375 
Q 18.84375 56 30.609375 56 
z
" id="DejaVuSans-6f"/>
      <path d="M 34.28125 27.484375 
Q 23.390625 27.484375 19.1875 25 
Q 14.984375 22.515625 14.984375 16.5 
Q 14.984375 11.71875 18.140625 8.90625 
Q 21.296875 6.109375 26.703125 6.109375 
Q 34.1875 6.109375 38.703125 11.40625 
Q 43.21875 16.703125 43.21875 25.484375 
L 43.21875 27.484375 
z
M 52.203125 31.203125 
L 52.203125 0 
L 43.21875 0 
L 43.21875 8.296875 
Q 40.140625 3.328125 35.546875 0.953125 
Q 30.953125 -1.421875 24.3125 -1.421875 
Q 15.921875 -1.421875 10.953125 3.296875 
Q 6 8.015625 6 15.921875 
Q 6 25.140625 12.171875 29.828125 
Q 18.359375 34.515625 30.609375 34.515625 
L 43.21875 34.515625 
L 43.21875 35.40625 
Q 43.21875 41.609375 39.140625 45 
Q 35.0625 48.390625 27.6875 48.390625 
Q 23 48.390625 18.546875 47.265625 
Q 14.109375 46.140625 10.015625 43.890625 
L 10.015625 52.203125 
Q 14.9375 54.109375 19.578125 55.046875 
Q 24.21875 56 28.609375 56 
Q 40.484375 56 46.34375 49.84375 
Q 52.203125 43.703125 52.203125 31.203125 
z
" id="DejaVuSans-61"/>
      <path d="M 9.421875 75.984375 
L 18.40625 75.984375 
L 18.40625 0 
L 9.421875 0 
z
" id="DejaVuSans-6c"/>
      <path d="M 30.078125 31.34375 
L 16.3125 -13.1875 
L 8.015625 -13.1875 
L 21.78125 31.34375 
L 8.015625 75.875 
L 16.3125 75.875 
z
" id="DejaVuSans-27e9"/>
     </defs>
     <g style="fill:#262626;" transform="translate(20.299063 115.95)rotate(-90)scale(0.1 -0.1)">
      <use transform="translate(0 0.125)" xlink:href="#DejaVuSans-27e8"/>
      <use transform="translate(39.013672 0.125)" xlink:href="#DejaVuSans-Oblique-71"/>
      <use transform="translate(102.490234 -16.28125)scale(0.7)" xlink:href="#DejaVuSans-74"/>
      <use transform="translate(129.936523 -16.28125)scale(0.7)" xlink:href="#DejaVuSans-6f"/>
      <use transform="translate(172.763672 -16.28125)scale(0.7)" xlink:href="#DejaVuSans-74"/>
      <use transform="translate(200.209961 -16.28125)scale(0.7)" xlink:href="#DejaVuSans-61"/>
      <use transform="translate(243.105469 -16.28125)scale(0.7)" xlink:href="#DejaVuSans-6c"/>
      <use transform="translate(265.288086 0.125)" xlink:href="#DejaVuSans-27e9"/>
     </g>
    </g>
   </g>
   <g id="PolyCollection_1">
    <defs>
     <path d="M 46.44 -183.718182 
L 46.44 -110.606062 
L 47.936 -108.322573 
L 49.432 -105.932212 
L 50.928 -103.482821 
L 52.424 -101.030933 
L 53.92 -98.636001 
L 55.416 -96.354028 
L 56.912 -94.231817 
L 58.408 -92.302805 
L 59.904 -90.58514 
L 61.4 -89.082412 
L 62.896 -87.786804 
L 64.392 -86.683479 
L 65.888 -85.754345 
L 67.384 -84.979952 
L 68.88 -84.339794 
L 70.376 -83.812099 
L 71.872 -83.374019 
L 73.368 -83.002357 
L 74.864 -82.674527 
L 76.36 -82.369746 
L 77.856 -82.070491 
L 79.352 -81.76353 
L 80.848 -81.43939 
L 82.344 -81.090195 
L 83.84 -80.707242 
L 85.336 -80.279681 
L 86.832 -79.79437 
L 88.328 -79.236313 
L 89.824 -78.589582 
L 91.32 -77.838372 
L 92.816 -76.967184 
L 94.312 -75.960096 
L 95.808 -74.800464 
L 97.304 -73.472101 
L 98.8 -71.961969 
L 100.296 -70.264132 
L 101.792 -68.384356 
L 103.288 -66.343489 
L 104.784 -64.177629 
L 106.28 -61.935141 
L 107.776 -59.672676 
L 109.272 -57.451579 
L 110.768 -55.334051 
L 112.264 -53.378724 
L 113.76 -51.636594 
L 115.256 -50.147785 
L 116.752 -48.938628 
L 118.248 -48.019301 
L 119.744 -47.383762 
L 121.24 -47.013211 
L 122.736 -46.881818 
L 124.232 -46.962052 
L 125.728 -47.227839 
L 127.224 -47.655414 
L 128.72 -48.222882 
L 130.216 -48.909661 
L 131.712 -49.695949 
L 133.208 -50.562186 
L 134.704 -51.489534 
L 136.2 -52.461607 
L 137.696 -53.465479 
L 139.192 -54.490391 
L 140.688 -55.525532 
L 142.184 -56.559666 
L 143.68 -57.583234 
L 145.176 -58.590535 
L 146.672 -59.579517 
L 148.168 -60.549509 
L 149.664 -61.499142 
L 151.16 -62.425949 
L 152.656 -63.327345 
L 154.152 -64.20178 
L 155.648 -65.049115 
L 157.144 -65.869989 
L 158.64 -66.664664 
L 160.136 -67.432236 
L 161.632 -68.170569 
L 163.128 -68.87661 
L 164.624 -69.546842 
L 166.12 -70.1782 
L 167.616 -70.769142 
L 169.112 -71.319976 
L 170.608 -71.832258 
L 172.104 -72.30796 
L 173.6 -72.748965 
L 175.096 -73.156938 
L 176.592 -73.533397 
L 178.088 -73.879811 
L 179.584 -74.197678 
L 181.08 -74.488547 
L 182.576 -74.753993 
L 184.072 -74.995521 
L 185.568 -75.214431 
L 187.064 -75.411642 
L 188.56 -75.587524 
L 190.056 -75.741734 
L 191.552 -75.873078 
L 193.048 -75.979373 
L 194.544 -76.057365 
L 196.04 -76.10281 
L 196.04 -78.073242 
L 196.04 -78.073242 
L 194.544 -78.127056 
L 193.048 -78.21171 
L 191.552 -78.323315 
L 190.056 -78.458898 
L 188.56 -78.616503 
L 187.064 -78.795115 
L 185.568 -78.994539 
L 184.072 -79.215259 
L 182.576 -79.458292 
L 181.08 -79.725019 
L 179.584 -80.017013 
L 178.088 -80.335908 
L 176.592 -80.683308 
L 175.096 -81.060764 
L 173.6 -81.469798 
L 172.104 -81.911982 
L 170.608 -82.389049 
L 169.112 -82.902951 
L 167.616 -83.455745 
L 166.12 -84.049094 
L 164.624 -84.683434 
L 163.128 -85.357381 
L 161.632 -86.068068 
L 160.136 -86.812225 
L 158.64 -87.587106 
L 157.144 -88.390968 
L 155.648 -89.223391 
L 154.152 -90.085252 
L 152.656 -90.977957 
L 151.16 -91.902338 
L 149.664 -92.858058 
L 148.168 -93.844058 
L 146.672 -94.859784 
L 145.176 -95.906269 
L 143.68 -96.985845 
L 142.184 -98.100221 
L 140.688 -99.24839 
L 139.192 -100.426644 
L 137.696 -101.631019 
L 136.2 -102.859709 
L 134.704 -104.113064 
L 133.208 -105.391786 
L 131.712 -106.696091 
L 130.216 -108.027195 
L 128.72 -109.389486 
L 127.224 -110.791357 
L 125.728 -112.244803 
L 124.232 -113.764653 
L 122.736 -115.3672 
L 121.24 -117.06812 
L 119.744 -118.880592 
L 118.248 -120.814479 
L 116.752 -122.876452 
L 115.256 -125.069656 
L 113.76 -127.391104 
L 112.264 -129.826855 
L 110.768 -132.347765 
L 109.272 -134.908876 
L 107.776 -137.453198 
L 106.28 -139.91854 
L 104.784 -142.24585 
L 103.288 -144.387292 
L 101.792 -146.311354 
L 100.296 -148.003009 
L 98.8 -149.46036 
L 97.304 -150.690999 
L 95.808 -151.70968 
L 94.312 -152.536765 
L 92.816 -153.196627 
L 91.32 -153.715933 
L 89.824 -154.121702 
L 88.328 -154.439077 
L 86.832 -154.689609 
L 85.336 -154.89117 
L 83.84 -155.059205 
L 82.344 -155.208169 
L 80.848 -155.352657 
L 79.352 -155.508049 
L 77.856 -155.690044 
L 76.36 -155.913079 
L 74.864 -156.189029 
L 73.368 -156.527481 
L 71.872 -156.937474 
L 70.376 -157.429521 
L 68.88 -158.017075 
L 67.384 -158.717325 
L 65.888 -159.551101 
L 64.392 -160.541343 
L 62.896 -161.710021 
L 61.4 -163.07429 
L 59.904 -164.643028 
L 58.408 -166.414507 
L 56.912 -168.374875 
L 55.416 -170.496992 
L 53.92 -172.739987 
L 52.424 -175.050539 
L 50.928 -177.366558 
L 49.432 -179.622869 
L 47.936 -181.75766 
L 46.44 -183.718182 
z
" id="ma136e9be85" style="stroke:#ffffff;stroke-opacity:0.05;"/>
    </defs>
    <g clip-path="url(#p96d0996cb0)">
     <use style="fill:#001c7f;fill-opacity:0.05;stroke:#ffffff;stroke-opacity:0.05;" x="0" xlink:href="#ma136e9be85" y="216"/>
    </g>
   </g>
   <g id="line2d_10">
    <path clip-path="url(#p96d0996cb0)" d="M 46.44 68.837878 
L 47.936 70.959883 
L 49.432 73.22246 
L 50.928 75.575311 
L 52.424 77.959264 
L 53.92 80.312006 
L 55.416 82.57449 
L 56.912 84.696654 
L 58.408 86.641344 
L 59.904 88.385916 
L 61.4 89.921649 
L 62.896 91.251587 
L 64.392 92.387589 
L 65.888 93.347277 
L 67.384 94.151361 
L 68.88 94.821565 
L 70.376 95.37919 
L 71.872 95.844254 
L 73.368 96.235081 
L 74.864 96.568222 
L 76.36 96.858588 
L 77.856 97.119733 
L 79.352 97.36421 
L 80.848 97.603977 
L 82.344 97.850818 
L 83.84 98.116777 
L 85.336 98.414574 
L 86.832 98.75801 
L 88.328 99.162305 
L 89.824 99.644358 
L 91.32 100.222847 
L 92.816 100.918094 
L 94.312 101.75157 
L 95.808 102.744928 
L 97.304 103.91845 
L 98.8 105.288836 
L 100.296 106.866429 
L 101.792 108.652145 
L 103.288 110.634609 
L 104.784 112.788261 
L 106.28 115.07316 
L 107.776 117.437063 
L 109.272 119.819772 
L 110.768 122.159092 
L 112.264 124.39721 
L 113.76 126.486151 
L 115.256 128.39128 
L 116.752 130.09246 
L 118.248 131.58311 
L 119.744 132.867823 
L 121.24 133.959335 
L 122.736 134.875491 
L 124.232 135.636648 
L 125.728 136.263679 
L 127.224 136.776614 
L 128.72 137.193816 
L 130.216 137.531572 
L 131.712 137.80398 
L 133.208 138.023014 
L 134.704 138.198701 
L 136.2 138.339342 
L 137.696 138.451751 
L 139.192 138.541482 
L 140.688 138.613039 
L 142.184 138.670057 
L 143.68 138.715461 
L 145.176 138.751598 
L 146.672 138.780349 
L 148.168 138.803217 
L 149.664 138.8214 
L 151.16 138.835856 
L 152.656 138.847349 
L 154.152 138.856484 
L 155.648 138.863747 
L 157.144 138.869522 
L 158.64 138.874115 
L 160.136 138.87777 
L 161.632 138.880681 
L 163.128 138.883004 
L 164.624 138.884862 
L 166.12 138.886353 
L 167.616 138.887556 
L 169.112 138.888537 
L 170.608 138.889347 
L 172.104 138.890029 
L 173.6 138.890619 
L 175.096 138.891149 
L 176.592 138.891648 
L 178.088 138.892141 
L 179.584 138.892655 
L 181.08 138.893217 
L 182.576 138.893857 
L 184.072 138.89461 
L 185.568 138.895515 
L 187.064 138.896621 
L 188.56 138.897987 
L 190.056 138.899684 
L 191.552 138.901804 
L 193.048 138.904459 
L 194.544 138.90779 
L 196.04 138.911974 
" style="fill:none;opacity:0.9;stroke:#001c7f;stroke-linecap:round;stroke-width:1.5;"/>
   </g>
   <g id="line2d_11">
    <path clip-path="url(#p96d0996cb0)" d="M 46.44 64.66425 
L 47.936 66.346207 
L 49.432 68.234797 
L 50.928 70.311852 
L 52.424 72.544804 
L 53.92 74.887598 
L 55.416 77.283953 
L 56.912 79.672678 
L 58.408 81.994041 
L 59.904 84.195906 
L 61.4 86.238367 
L 62.896 88.096177 
L 64.392 89.758893 
L 65.888 91.229246 
L 67.384 92.520486 
L 68.88 93.653462 
L 70.376 94.653961 
L 71.872 95.550627 
L 73.368 96.373527 
L 74.864 97.153294 
L 76.36 97.920732 
L 77.856 98.706664 
L 79.352 99.541876 
L 80.848 100.456934 
L 82.344 101.481703 
L 83.84 102.644393 
L 85.336 103.96999 
L 86.832 105.47805 
L 88.328 107.179953 
L 89.824 109.075988 
L 91.32 111.152834 
L 92.816 113.382233 
L 94.312 115.721562 
L 95.808 118.116732 
L 97.304 120.507202 
L 98.8 122.832267 
L 100.296 125.037326 
L 101.792 127.078831 
L 103.288 128.927095 
L 104.784 130.566752 
L 106.28 131.995293 
L 107.776 133.220413 
L 109.272 134.256929 
L 110.768 135.123857 
L 112.264 135.841999 
L 113.76 136.432162 
L 115.256 136.913979 
L 116.752 137.305236 
L 118.248 137.621572 
L 119.744 137.876435 
L 121.24 138.081187 
L 122.736 138.245305 
L 124.232 138.376613 
L 125.728 138.481517 
L 127.224 138.565227 
L 128.72 138.631964 
L 130.216 138.685129 
L 131.712 138.727456 
L 133.208 138.76114 
L 134.704 138.787936 
L 136.2 138.809244 
L 137.696 138.826186 
L 139.192 138.839653 
L 140.688 138.850357 
L 142.184 138.858863 
L 143.68 138.865622 
L 145.176 138.870993 
L 146.672 138.87526 
L 148.168 138.87865 
L 149.664 138.881343 
L 151.16 138.883483 
L 152.656 138.885182 
L 154.152 138.886532 
L 155.648 138.887605 
L 157.144 138.888457 
L 158.64 138.889134 
L 160.136 138.889671 
L 161.632 138.890098 
L 163.128 138.890437 
L 164.624 138.890707 
L 166.12 138.890921 
L 167.616 138.891091 
L 169.112 138.891226 
L 170.608 138.891333 
L 172.104 138.891418 
L 173.6 138.891486 
L 175.096 138.89154 
L 176.592 138.891583 
L 178.088 138.891617 
L 179.584 138.891644 
L 181.08 138.891665 
L 182.576 138.891682 
L 184.072 138.891695 
L 185.568 138.891706 
L 187.064 138.891715 
L 188.56 138.891721 
L 190.056 138.891727 
L 191.552 138.891731 
L 193.048 138.891734 
L 194.544 138.891737 
L 196.04 138.891739 
" style="fill:none;opacity:0.7;stroke:#000000;stroke-linecap:round;stroke-width:1.5;"/>
   </g>
   <g id="line2d_12">
    <path clip-path="url(#p96d0996cb0)" d="M 46.44 32.281818 
L 47.936 34.24234 
L 49.432 36.377131 
L 50.928 38.633442 
L 52.424 40.949461 
L 53.92 43.260013 
L 55.416 45.503008 
L 56.912 47.625125 
L 58.408 49.585493 
L 59.904 51.356972 
L 61.4 52.92571 
L 62.896 54.289979 
L 64.392 55.458657 
L 65.888 56.448899 
L 67.384 57.282675 
L 68.88 57.982925 
L 70.376 58.570479 
L 71.872 59.062526 
L 73.368 59.472519 
L 74.864 59.810971 
L 76.36 60.086921 
L 77.856 60.309956 
L 79.352 60.491951 
L 80.848 60.647343 
L 82.344 60.791831 
L 83.84 60.940795 
L 85.336 61.10883 
L 86.832 61.310391 
L 88.328 61.560923 
L 89.824 61.878298 
L 91.32 62.284067 
L 92.816 62.803373 
L 94.312 63.463235 
L 95.808 64.29032 
L 97.304 65.309001 
L 98.8 66.53964 
L 100.296 67.996991 
L 101.792 69.688646 
L 103.288 71.612708 
L 104.784 73.75415 
L 106.28 76.08146 
L 107.776 78.546802 
L 109.272 81.091124 
L 110.768 83.652235 
L 112.264 86.173145 
L 113.76 88.608896 
L 115.256 90.930344 
L 116.752 93.123548 
L 118.248 95.185521 
L 119.744 97.119408 
L 121.24 98.93188 
L 122.736 100.6328 
L 124.232 102.235347 
L 125.728 103.755197 
L 127.224 105.208643 
L 128.72 106.610514 
L 130.216 107.972805 
L 131.712 109.303909 
L 133.208 110.608214 
L 134.704 111.886936 
L 136.2 113.140291 
L 137.696 114.368981 
L 139.192 115.573356 
L 140.688 116.75161 
L 142.184 117.899779 
L 143.68 119.014155 
L 145.176 120.093731 
L 146.672 121.140216 
L 148.168 122.155942 
L 149.664 123.141942 
L 151.16 124.097662 
L 152.656 125.022043 
L 154.152 125.914748 
L 155.648 126.776609 
L 157.144 127.609032 
L 158.64 128.412894 
L 160.136 129.187775 
L 161.632 129.931932 
L 163.128 130.642619 
L 164.624 131.316566 
L 166.12 131.950906 
L 167.616 132.544255 
L 169.112 133.097049 
L 170.608 133.610951 
L 172.104 134.088018 
L 173.6 134.530202 
L 175.096 134.939236 
L 176.592 135.316692 
L 178.088 135.664092 
L 179.584 135.982987 
L 181.08 136.274981 
L 182.576 136.541708 
L 184.072 136.784741 
L 185.568 137.005461 
L 187.064 137.204885 
L 188.56 137.383497 
L 190.056 137.541102 
L 191.552 137.676685 
L 193.048 137.78829 
L 194.544 137.872944 
L 196.04 137.926758 
" style="fill:none;opacity:0.45;stroke:#001c7f;stroke-dasharray:2.775,1.2;stroke-dashoffset:0;stroke-width:0.75;"/>
   </g>
   <g id="line2d_13">
    <path clip-path="url(#p96d0996cb0)" d="M 46.44 105.393938 
L 47.936 107.677427 
L 49.432 110.067788 
L 50.928 112.517179 
L 52.424 114.969067 
L 53.92 117.363999 
L 55.416 119.645972 
L 56.912 121.768183 
L 58.408 123.697195 
L 59.904 125.41486 
L 61.4 126.917588 
L 62.896 128.213196 
L 64.392 129.316521 
L 65.888 130.245655 
L 67.384 131.020048 
L 68.88 131.660206 
L 70.376 132.187901 
L 71.872 132.625981 
L 73.368 132.997643 
L 74.864 133.325473 
L 76.36 133.630254 
L 77.856 133.929509 
L 79.352 134.23647 
L 80.848 134.56061 
L 82.344 134.909805 
L 83.84 135.292758 
L 85.336 135.720319 
L 86.832 136.20563 
L 88.328 136.763687 
L 89.824 137.410418 
L 91.32 138.161628 
L 92.816 139.032816 
L 94.312 140.039904 
L 95.808 141.199536 
L 97.304 142.527899 
L 98.8 144.038031 
L 100.296 145.735868 
L 101.792 147.615644 
L 103.288 149.656511 
L 104.784 151.822371 
L 106.28 154.064859 
L 107.776 156.327324 
L 109.272 158.548421 
L 110.768 160.665949 
L 112.264 162.621276 
L 113.76 164.363406 
L 115.256 165.852215 
L 116.752 167.061372 
L 118.248 167.980699 
L 119.744 168.616238 
L 121.24 168.986789 
L 122.736 169.118182 
L 124.232 169.037948 
L 125.728 168.772161 
L 127.224 168.344586 
L 128.72 167.777118 
L 130.216 167.090339 
L 131.712 166.304051 
L 133.208 165.437814 
L 134.704 164.510466 
L 136.2 163.538393 
L 137.696 162.534521 
L 139.192 161.509609 
L 140.688 160.474468 
L 142.184 159.440334 
L 143.68 158.416766 
L 145.176 157.409465 
L 146.672 156.420483 
L 148.168 155.450491 
L 149.664 154.500858 
L 151.16 153.574051 
L 152.656 152.672655 
L 154.152 151.79822 
L 155.648 150.950885 
L 157.144 150.130011 
L 158.64 149.335336 
L 160.136 148.567764 
L 161.632 147.829431 
L 163.128 147.12339 
L 164.624 146.453158 
L 166.12 145.8218 
L 167.616 145.230858 
L 169.112 144.680024 
L 170.608 144.167742 
L 172.104 143.69204 
L 173.6 143.251035 
L 175.096 142.843062 
L 176.592 142.466603 
L 178.088 142.120189 
L 179.584 141.802322 
L 181.08 141.511453 
L 182.576 141.246007 
L 184.072 141.004479 
L 185.568 140.785569 
L 187.064 140.588358 
L 188.56 140.412476 
L 190.056 140.258266 
L 191.552 140.126922 
L 193.048 140.020627 
L 194.544 139.942635 
L 196.04 139.89719 
" style="fill:none;opacity:0.45;stroke:#001c7f;stroke-dasharray:2.775,1.2;stroke-dashoffset:0;stroke-width:0.75;"/>
   </g>
   <g id="patch_3">
    <path d="M 38.96 175.96 
L 38.96 25.44 
" style="fill:none;stroke:#262626;stroke-linecap:square;stroke-linejoin:miter;stroke-width:0.8;"/>
   </g>
   <g id="patch_4">
    <path d="M 38.96 175.96 
L 203.52 175.96 
" style="fill:none;stroke:#262626;stroke-linecap:square;stroke-linejoin:miter;stroke-width:0.8;"/>
   </g>
   <g id="text_12">
    <!-- Epik-micro SM14 -->
    <defs>
     <path d="M 7.90625 0 
L 7.90625 71.578125 
L 59.671875 71.578125 
L 59.671875 63.140625 
L 17.390625 63.140625 
L 17.390625 41.21875 
L 56.984375 41.21875 
L 56.984375 32.8125 
L 17.390625 32.8125 
L 17.390625 8.453125 
L 61.328125 8.453125 
L 61.328125 0 
z
" id="ArialMT-45"/>
     <path d="M 6.640625 61.46875 
L 6.640625 71.578125 
L 15.4375 71.578125 
L 15.4375 61.46875 
z
M 6.640625 0 
L 6.640625 51.859375 
L 15.4375 51.859375 
L 15.4375 0 
z
" id="ArialMT-69"/>
     <path d="M 6.640625 0 
L 6.640625 71.578125 
L 15.4375 71.578125 
L 15.4375 30.765625 
L 36.234375 51.859375 
L 47.609375 51.859375 
L 27.78125 32.625 
L 49.609375 0 
L 38.765625 0 
L 21.625 26.515625 
L 15.4375 20.5625 
L 15.4375 0 
z
" id="ArialMT-6b"/>
     <path d="M 3.171875 21.484375 
L 3.171875 30.328125 
L 30.171875 30.328125 
L 30.171875 21.484375 
z
" id="ArialMT-2d"/>
     <path d="M 6.59375 0 
L 6.59375 51.859375 
L 14.453125 51.859375 
L 14.453125 44.578125 
Q 16.890625 48.390625 20.9375 50.703125 
Q 25 53.03125 30.171875 53.03125 
Q 35.9375 53.03125 39.625 50.640625 
Q 43.3125 48.25 44.828125 43.953125 
Q 50.984375 53.03125 60.84375 53.03125 
Q 68.5625 53.03125 72.703125 48.75 
Q 76.859375 44.484375 76.859375 35.59375 
L 76.859375 0 
L 68.109375 0 
L 68.109375 32.671875 
Q 68.109375 37.9375 67.25 40.25 
Q 66.40625 42.578125 64.15625 43.984375 
Q 61.921875 45.40625 58.890625 45.40625 
Q 53.421875 45.40625 49.796875 41.765625 
Q 46.1875 38.140625 46.1875 30.125 
L 46.1875 0 
L 37.40625 0 
L 37.40625 33.6875 
Q 37.40625 39.546875 35.25 42.46875 
Q 33.109375 45.40625 28.21875 45.40625 
Q 24.515625 45.40625 21.359375 43.453125 
Q 18.21875 41.5 16.796875 37.734375 
Q 15.375 33.984375 15.375 26.90625 
L 15.375 0 
z
" id="ArialMT-6d"/>
     <path d="M 40.4375 19 
L 49.078125 17.875 
Q 47.65625 8.9375 41.8125 3.875 
Q 35.984375 -1.171875 27.484375 -1.171875 
Q 16.84375 -1.171875 10.375 5.78125 
Q 3.90625 12.75 3.90625 25.734375 
Q 3.90625 34.125 6.6875 40.421875 
Q 9.46875 46.734375 15.15625 49.875 
Q 20.84375 53.03125 27.546875 53.03125 
Q 35.984375 53.03125 41.359375 48.75 
Q 46.734375 44.484375 48.25 36.625 
L 39.703125 35.296875 
Q 38.484375 40.53125 35.375 43.15625 
Q 32.28125 45.796875 27.875 45.796875 
Q 21.234375 45.796875 17.078125 41.03125 
Q 12.9375 36.28125 12.9375 25.984375 
Q 12.9375 15.53125 16.9375 10.796875 
Q 20.953125 6.0625 27.390625 6.0625 
Q 32.5625 6.0625 36.03125 9.234375 
Q 39.5 12.40625 40.4375 19 
z
" id="ArialMT-63"/>
     <path d="M 6.5 0 
L 6.5 51.859375 
L 14.40625 51.859375 
L 14.40625 44 
Q 17.4375 49.515625 20 51.265625 
Q 22.5625 53.03125 25.640625 53.03125 
Q 30.078125 53.03125 34.671875 50.203125 
L 31.640625 42.046875 
Q 28.421875 43.953125 25.203125 43.953125 
Q 22.3125 43.953125 20.015625 42.21875 
Q 17.71875 40.484375 16.75 37.40625 
Q 15.28125 32.71875 15.28125 27.15625 
L 15.28125 0 
z
" id="ArialMT-72"/>
     <path d="M 3.328125 25.921875 
Q 3.328125 40.328125 11.328125 47.265625 
Q 18.015625 53.03125 27.640625 53.03125 
Q 38.328125 53.03125 45.109375 46.015625 
Q 51.90625 39.015625 51.90625 26.65625 
Q 51.90625 16.65625 48.90625 10.90625 
Q 45.90625 5.171875 40.15625 2 
Q 34.421875 -1.171875 27.640625 -1.171875 
Q 16.75 -1.171875 10.03125 5.8125 
Q 3.328125 12.796875 3.328125 25.921875 
z
M 12.359375 25.921875 
Q 12.359375 15.96875 16.703125 11.015625 
Q 21.046875 6.0625 27.640625 6.0625 
Q 34.1875 6.0625 38.53125 11.03125 
Q 42.875 16.015625 42.875 26.21875 
Q 42.875 35.84375 38.5 40.796875 
Q 34.125 45.75 27.640625 45.75 
Q 21.046875 45.75 16.703125 40.8125 
Q 12.359375 35.890625 12.359375 25.921875 
z
" id="ArialMT-6f"/>
     <path id="ArialMT-20"/>
     <path d="M 4.5 23 
L 13.421875 23.78125 
Q 14.0625 18.40625 16.375 14.96875 
Q 18.703125 11.53125 23.578125 9.40625 
Q 28.46875 7.28125 34.578125 7.28125 
Q 39.984375 7.28125 44.140625 8.890625 
Q 48.296875 10.5 50.3125 13.296875 
Q 52.34375 16.109375 52.34375 19.4375 
Q 52.34375 22.796875 50.390625 25.3125 
Q 48.4375 27.828125 43.953125 29.546875 
Q 41.0625 30.671875 31.203125 33.03125 
Q 21.34375 35.40625 17.390625 37.5 
Q 12.25 40.1875 9.734375 44.15625 
Q 7.234375 48.140625 7.234375 53.078125 
Q 7.234375 58.5 10.296875 63.203125 
Q 13.375 67.921875 19.28125 70.359375 
Q 25.203125 72.796875 32.421875 72.796875 
Q 40.375 72.796875 46.453125 70.234375 
Q 52.546875 67.671875 55.8125 62.6875 
Q 59.078125 57.71875 59.328125 51.421875 
L 50.25 50.734375 
Q 49.515625 57.515625 45.28125 60.984375 
Q 41.0625 64.453125 32.8125 64.453125 
Q 24.21875 64.453125 20.28125 61.296875 
Q 16.359375 58.15625 16.359375 53.71875 
Q 16.359375 49.859375 19.140625 47.359375 
Q 21.875 44.875 33.421875 42.265625 
Q 44.96875 39.65625 49.265625 37.703125 
Q 55.515625 34.8125 58.484375 30.390625 
Q 61.46875 25.984375 61.46875 20.21875 
Q 61.46875 14.5 58.203125 9.4375 
Q 54.9375 4.390625 48.796875 1.578125 
Q 42.671875 -1.21875 35.015625 -1.21875 
Q 25.296875 -1.21875 18.71875 1.609375 
Q 12.15625 4.4375 8.421875 10.125 
Q 4.6875 15.828125 4.5 23 
z
" id="ArialMT-53"/>
     <path d="M 7.421875 0 
L 7.421875 71.578125 
L 21.6875 71.578125 
L 38.625 20.90625 
Q 40.96875 13.8125 42.046875 10.296875 
Q 43.265625 14.203125 45.84375 21.78125 
L 62.984375 71.578125 
L 75.734375 71.578125 
L 75.734375 0 
L 66.609375 0 
L 66.609375 59.90625 
L 45.796875 0 
L 37.25 0 
L 16.546875 60.9375 
L 16.546875 0 
z
" id="ArialMT-4d"/>
    </defs>
    <g style="fill:#262626;" transform="translate(75.565 19.44)scale(0.12 -0.12)">
     <use xlink:href="#ArialMT-45"/>
     <use x="66.699219" xlink:href="#ArialMT-70"/>
     <use x="122.314453" xlink:href="#ArialMT-69"/>
     <use x="144.53125" xlink:href="#ArialMT-6b"/>
     <use x="194.53125" xlink:href="#ArialMT-2d"/>
     <use x="227.832031" xlink:href="#ArialMT-6d"/>
     <use x="311.132812" xlink:href="#ArialMT-69"/>
     <use x="333.349609" xlink:href="#ArialMT-63"/>
     <use x="383.349609" xlink:href="#ArialMT-72"/>
     <use x="416.650391" xlink:href="#ArialMT-6f"/>
     <use x="472.265625" xlink:href="#ArialMT-20"/>
     <use x="500.048828" xlink:href="#ArialMT-53"/>
     <use x="566.748047" xlink:href="#ArialMT-4d"/>
     <use x="650.048828" xlink:href="#ArialMT-31"/>
     <use x="705.664062" xlink:href="#ArialMT-34"/>
    </g>
   </g>
  </g>
 </g>
 <defs>
  <clipPath id="p96d0996cb0">
   <rect height="150.52" width="164.56" x="38.96" y="25.44"/>
  </clipPath>
 </defs>
</svg>
