<?xml version="1.0" encoding="utf-8" standalone="no"?>
<!DOCTYPE svg PUBLIC "-//W3C//DTD SVG 1.1//EN"
  "http://www.w3.org/Graphics/SVG/1.1/DTD/svg11.dtd">
<!-- Created with matplotlib (http://matplotlib.org/) -->
<svg height="144pt" version="1.1" viewBox="0 0 144 144" width="144pt" xmlns="http://www.w3.org/2000/svg" xmlns:xlink="http://www.w3.org/1999/xlink">
 <defs>
  <style type="text/css">
*{stroke-linecap:butt;stroke-linejoin:round;}
  </style>
 </defs>
 <g id="figure_1">
  <g id="patch_1">
   <path d="M 0 144 
L 144 144 
L 144 0 
L 0 0 
z
" style="fill:#ffffff;"/>
  </g>
  <g id="axes_1">
   <g id="patch_2">
    <path d="M 47.6 101.92 
L 130.44 101.92 
L 130.44 14.557342 
L 47.6 14.557342 
z
" style="fill:#ffffff;"/>
   </g>
   <g id="matplotlib.axis_1">
    <g id="xtick_1">
     <g id="line2d_1">
      <defs>
       <path d="M 0 0 
L 0 3.5 
" id="mc53f6bbee2" style="stroke:#262626;stroke-width:0.8;"/>
      </defs>
      <g>
       <use style="fill:#262626;stroke:#262626;stroke-width:0.8;" x="51.365455" xlink:href="#mc53f6bbee2" y="101.92"/>
      </g>
     </g>
     <g id="text_1">
      <!-- 2 -->
      <defs>
       <path d="M 50.34375 8.453125 
L 50.34375 0 
L 3.03125 0 
Q 2.9375 3.171875 4.046875 6.109375 
Q 5.859375 10.9375 9.828125 15.625 
Q 13.8125 20.3125 21.34375 26.46875 
Q 33.015625 36.03125 37.109375 41.625 
Q 41.21875 47.21875 41.21875 52.203125 
Q 41.21875 57.421875 37.46875 61 
Q 33.734375 64.59375 27.734375 64.59375 
Q 21.390625 64.59375 17.578125 60.78125 
Q 13.765625 56.984375 13.71875 50.25 
L 4.6875 51.171875 
Q 5.609375 61.28125 11.65625 66.578125 
Q 17.71875 71.875 27.9375 71.875 
Q 38.234375 71.875 44.234375 66.15625 
Q 50.25 60.453125 50.25 52 
Q 50.25 47.703125 48.484375 43.546875 
Q 46.734375 39.40625 42.65625 34.8125 
Q 38.578125 30.21875 29.109375 22.21875 
Q 21.1875 15.578125 18.9375 13.203125 
Q 16.703125 10.84375 15.234375 8.453125 
z
" id="ArialMT-32"/>
      </defs>
      <g style="fill:#262626;" transform="translate(48.306939 116.793594)scale(0.11 -0.11)">
       <use xlink:href="#ArialMT-32"/>
      </g>
     </g>
    </g>
    <g id="xtick_2">
     <g id="line2d_2">
      <g>
       <use style="fill:#262626;stroke:#262626;stroke-width:0.8;" x="66.427273" xlink:href="#mc53f6bbee2" y="101.92"/>
      </g>
     </g>
     <g id="text_2">
      <!-- 4 -->
      <defs>
       <path d="M 32.328125 0 
L 32.328125 17.140625 
L 1.265625 17.140625 
L 1.265625 25.203125 
L 33.9375 71.578125 
L 41.109375 71.578125 
L 41.109375 25.203125 
L 50.78125 25.203125 
L 50.78125 17.140625 
L 41.109375 17.140625 
L 41.109375 0 
z
M 32.328125 25.203125 
L 32.328125 57.46875 
L 9.90625 25.203125 
z
" id="ArialMT-34"/>
      </defs>
      <g style="fill:#262626;" transform="translate(63.368757 116.793594)scale(0.11 -0.11)">
       <use xlink:href="#ArialMT-34"/>
      </g>
     </g>
    </g>
    <g id="xtick_3">
     <g id="line2d_3">
      <g>
       <use style="fill:#262626;stroke:#262626;stroke-width:0.8;" x="81.489091" xlink:href="#mc53f6bbee2" y="101.92"/>
      </g>
     </g>
     <g id="text_3">
      <!-- 6 -->
      <defs>
       <path d="M 49.75 54.046875 
L 41.015625 53.375 
Q 39.84375 58.546875 37.703125 60.890625 
Q 34.125 64.65625 28.90625 64.65625 
Q 24.703125 64.65625 21.53125 62.3125 
Q 17.390625 59.28125 14.984375 53.46875 
Q 12.59375 47.65625 12.5 36.921875 
Q 15.671875 41.75 20.265625 44.09375 
Q 24.859375 46.4375 29.890625 46.4375 
Q 38.671875 46.4375 44.84375 39.96875 
Q 51.03125 33.5 51.03125 23.25 
Q 51.03125 16.5 48.125 10.71875 
Q 45.21875 4.9375 40.140625 1.859375 
Q 35.0625 -1.21875 28.609375 -1.21875 
Q 17.625 -1.21875 10.6875 6.859375 
Q 3.765625 14.9375 3.765625 33.5 
Q 3.765625 54.25 11.421875 63.671875 
Q 18.109375 71.875 29.4375 71.875 
Q 37.890625 71.875 43.28125 67.140625 
Q 48.6875 62.40625 49.75 54.046875 
z
M 13.875 23.1875 
Q 13.875 18.65625 15.796875 14.5 
Q 17.71875 10.359375 21.1875 8.171875 
Q 24.65625 6 28.46875 6 
Q 34.03125 6 38.03125 10.484375 
Q 42.046875 14.984375 42.046875 22.703125 
Q 42.046875 30.125 38.078125 34.390625 
Q 34.125 38.671875 28.125 38.671875 
Q 22.171875 38.671875 18.015625 34.390625 
Q 13.875 30.125 13.875 23.1875 
z
" id="ArialMT-36"/>
      </defs>
      <g style="fill:#262626;" transform="translate(78.430575 116.793594)scale(0.11 -0.11)">
       <use xlink:href="#ArialMT-36"/>
      </g>
     </g>
    </g>
    <g id="xtick_4">
     <g id="line2d_4">
      <g>
       <use style="fill:#262626;stroke:#262626;stroke-width:0.8;" x="96.550909" xlink:href="#mc53f6bbee2" y="101.92"/>
      </g>
     </g>
     <g id="text_4">
      <!-- 8 -->
      <defs>
       <path d="M 17.671875 38.8125 
Q 12.203125 40.828125 9.5625 44.53125 
Q 6.9375 48.25 6.9375 53.421875 
Q 6.9375 61.234375 12.546875 66.546875 
Q 18.171875 71.875 27.484375 71.875 
Q 36.859375 71.875 42.578125 66.421875 
Q 48.296875 60.984375 48.296875 53.171875 
Q 48.296875 48.1875 45.671875 44.5 
Q 43.0625 40.828125 37.75 38.8125 
Q 44.34375 36.671875 47.78125 31.875 
Q 51.21875 27.09375 51.21875 20.453125 
Q 51.21875 11.28125 44.71875 5.03125 
Q 38.234375 -1.21875 27.640625 -1.21875 
Q 17.046875 -1.21875 10.546875 5.046875 
Q 4.046875 11.328125 4.046875 20.703125 
Q 4.046875 27.6875 7.59375 32.390625 
Q 11.140625 37.109375 17.671875 38.8125 
z
M 15.921875 53.71875 
Q 15.921875 48.640625 19.1875 45.40625 
Q 22.46875 42.1875 27.6875 42.1875 
Q 32.765625 42.1875 36.015625 45.375 
Q 39.265625 48.578125 39.265625 53.21875 
Q 39.265625 58.0625 35.90625 61.359375 
Q 32.5625 64.65625 27.59375 64.65625 
Q 22.5625 64.65625 19.234375 61.421875 
Q 15.921875 58.203125 15.921875 53.71875 
z
M 13.09375 20.65625 
Q 13.09375 16.890625 14.875 13.375 
Q 16.65625 9.859375 20.171875 7.921875 
Q 23.6875 6 27.734375 6 
Q 34.03125 6 38.125 10.046875 
Q 42.234375 14.109375 42.234375 20.359375 
Q 42.234375 26.703125 38.015625 30.859375 
Q 33.796875 35.015625 27.4375 35.015625 
Q 21.234375 35.015625 17.15625 30.90625 
Q 13.09375 26.8125 13.09375 20.65625 
z
" id="ArialMT-38"/>
      </defs>
      <g style="fill:#262626;" transform="translate(93.492393 116.793594)scale(0.11 -0.11)">
       <use xlink:href="#ArialMT-38"/>
      </g>
     </g>
    </g>
    <g id="xtick_5">
     <g id="line2d_5">
      <g>
       <use style="fill:#262626;stroke:#262626;stroke-width:0.8;" x="111.612727" xlink:href="#mc53f6bbee2" y="101.92"/>
      </g>
     </g>
     <g id="text_5">
      <!-- 10 -->
      <defs>
       <path d="M 37.25 0 
L 28.46875 0 
L 28.46875 56 
Q 25.296875 52.984375 20.140625 49.953125 
Q 14.984375 46.921875 10.890625 45.40625 
L 10.890625 53.90625 
Q 18.265625 57.375 23.78125 62.296875 
Q 29.296875 67.234375 31.59375 71.875 
L 37.25 71.875 
z
" id="ArialMT-31"/>
       <path d="M 4.15625 35.296875 
Q 4.15625 48 6.765625 55.734375 
Q 9.375 63.484375 14.515625 67.671875 
Q 19.671875 71.875 27.484375 71.875 
Q 33.25 71.875 37.59375 69.546875 
Q 41.9375 67.234375 44.765625 62.859375 
Q 47.609375 58.5 49.21875 52.21875 
Q 50.828125 45.953125 50.828125 35.296875 
Q 50.828125 22.703125 48.234375 14.96875 
Q 45.65625 7.234375 40.5 3 
Q 35.359375 -1.21875 27.484375 -1.21875 
Q 17.140625 -1.21875 11.234375 6.203125 
Q 4.15625 15.140625 4.15625 35.296875 
z
M 13.1875 35.296875 
Q 13.1875 17.671875 17.3125 11.828125 
Q 21.4375 6 27.484375 6 
Q 33.546875 6 37.671875 11.859375 
Q 41.796875 17.71875 41.796875 35.296875 
Q 41.796875 52.984375 37.671875 58.78125 
Q 33.546875 64.59375 27.390625 64.59375 
Q 21.34375 64.59375 17.71875 59.46875 
Q 13.1875 52.9375 13.1875 35.296875 
z
" id="ArialMT-30"/>
      </defs>
      <g style="fill:#262626;" transform="translate(105.495696 116.793594)scale(0.11 -0.11)">
       <use xlink:href="#ArialMT-31"/>
       <use x="55.615234" xlink:href="#ArialMT-30"/>
      </g>
     </g>
    </g>
    <g id="xtick_6">
     <g id="line2d_6">
      <g>
       <use style="fill:#262626;stroke:#262626;stroke-width:0.8;" x="126.674545" xlink:href="#mc53f6bbee2" y="101.92"/>
      </g>
     </g>
     <g id="text_6">
      <!-- 12 -->
      <g style="fill:#262626;" transform="translate(120.557514 116.793594)scale(0.11 -0.11)">
       <use xlink:href="#ArialMT-31"/>
       <use x="55.615234" xlink:href="#ArialMT-32"/>
      </g>
     </g>
    </g>
    <g id="text_7">
     <!-- pH -->
     <defs>
      <path d="M 6.59375 -19.875 
L 6.59375 51.859375 
L 14.59375 51.859375 
L 14.59375 45.125 
Q 17.4375 49.078125 21 51.046875 
Q 24.5625 53.03125 29.640625 53.03125 
Q 36.28125 53.03125 41.359375 49.609375 
Q 46.4375 46.1875 49.015625 39.953125 
Q 51.609375 33.734375 51.609375 26.3125 
Q 51.609375 18.359375 48.75 11.984375 
Q 45.90625 5.609375 40.453125 2.21875 
Q 35.015625 -1.171875 29 -1.171875 
Q 24.609375 -1.171875 21.109375 0.6875 
Q 17.625 2.546875 15.375 5.375 
L 15.375 -19.875 
z
M 14.546875 25.640625 
Q 14.546875 15.625 18.59375 10.84375 
Q 22.65625 6.0625 28.421875 6.0625 
Q 34.28125 6.0625 38.453125 11.015625 
Q 42.625 15.96875 42.625 26.375 
Q 42.625 36.28125 38.546875 41.203125 
Q 34.46875 46.140625 28.8125 46.140625 
Q 23.1875 46.140625 18.859375 40.890625 
Q 14.546875 35.640625 14.546875 25.640625 
z
" id="ArialMT-70"/>
      <path d="M 8.015625 0 
L 8.015625 71.578125 
L 17.484375 71.578125 
L 17.484375 42.1875 
L 54.6875 42.1875 
L 54.6875 71.578125 
L 64.15625 71.578125 
L 64.15625 0 
L 54.6875 0 
L 54.6875 33.734375 
L 17.484375 33.734375 
L 17.484375 0 
z
" id="ArialMT-48"/>
     </defs>
     <g style="fill:#262626;" transform="translate(81.989453 130.853437)scale(0.11 -0.11)">
      <use xlink:href="#ArialMT-70"/>
      <use x="55.615234" xlink:href="#ArialMT-48"/>
     </g>
    </g>
   </g>
   <g id="matplotlib.axis_2">
    <g id="ytick_1">
     <g id="line2d_7">
      <defs>
       <path d="M 0 0 
L -3.5 0 
" id="m8dc6a7c9d5" style="stroke:#262626;stroke-width:0.8;"/>
      </defs>
      <g>
       <use style="fill:#262626;stroke:#262626;stroke-width:0.8;" x="47.6" xlink:href="#m8dc6a7c9d5" y="82.110796"/>
      </g>
     </g>
     <g id="text_8">
      <!-- 0 -->
      <g style="fill:#262626;" transform="translate(34.482969 86.047593)scale(0.11 -0.11)">
       <use xlink:href="#ArialMT-30"/>
      </g>
     </g>
    </g>
    <g id="ytick_2">
     <g id="line2d_8">
      <g>
       <use style="fill:#262626;stroke:#262626;stroke-width:0.8;" x="47.6" xlink:href="#m8dc6a7c9d5" y="26.594802"/>
      </g>
     </g>
     <g id="text_9">
      <!-- 50 -->
      <defs>
       <path d="M 4.15625 18.75 
L 13.375 19.53125 
Q 14.40625 12.796875 18.140625 9.390625 
Q 21.875 6 27.15625 6 
Q 33.5 6 37.890625 10.78125 
Q 42.28125 15.578125 42.28125 23.484375 
Q 42.28125 31 38.0625 35.34375 
Q 33.84375 39.703125 27 39.703125 
Q 22.75 39.703125 19.328125 37.765625 
Q 15.921875 35.84375 13.96875 32.765625 
L 5.71875 33.84375 
L 12.640625 70.609375 
L 48.25 70.609375 
L 48.25 62.203125 
L 19.671875 62.203125 
L 15.828125 42.96875 
Q 22.265625 47.46875 29.34375 47.46875 
Q 38.71875 47.46875 45.15625 40.96875 
Q 51.609375 34.46875 51.609375 24.265625 
Q 51.609375 14.546875 45.953125 7.46875 
Q 39.0625 -1.21875 27.15625 -1.21875 
Q 17.390625 -1.21875 11.203125 4.25 
Q 5.03125 9.71875 4.15625 18.75 
z
" id="ArialMT-35"/>
      </defs>
      <g style="fill:#262626;" transform="translate(28.365938 30.531599)scale(0.11 -0.11)">
       <use xlink:href="#ArialMT-35"/>
       <use x="55.615234" xlink:href="#ArialMT-30"/>
      </g>
     </g>
    </g>
    <g id="text_10">
     <!-- Free energy ($k_B T$) -->
     <defs>
      <path d="M 8.203125 0 
L 8.203125 71.578125 
L 56.5 71.578125 
L 56.5 63.140625 
L 17.671875 63.140625 
L 17.671875 40.96875 
L 51.265625 40.96875 
L 51.265625 32.515625 
L 17.671875 32.515625 
L 17.671875 0 
z
" id="ArialMT-46"/>
      <path d="M 6.5 0 
L 6.5 51.859375 
L 14.40625 51.859375 
L 14.40625 44 
Q 17.4375 49.515625 20 51.265625 
Q 22.5625 53.03125 25.640625 53.03125 
Q 30.078125 53.03125 34.671875 50.203125 
L 31.640625 42.046875 
Q 28.421875 43.953125 25.203125 43.953125 
Q 22.3125 43.953125 20.015625 42.21875 
Q 17.71875 40.484375 16.75 37.40625 
Q 15.28125 32.71875 15.28125 27.15625 
L 15.28125 0 
z
" id="ArialMT-72"/>
      <path d="M 42.09375 16.703125 
L 51.171875 15.578125 
Q 49.03125 7.625 43.21875 3.21875 
Q 37.40625 -1.171875 28.375 -1.171875 
Q 17 -1.171875 10.328125 5.828125 
Q 3.65625 12.84375 3.65625 25.484375 
Q 3.65625 38.578125 10.390625 45.796875 
Q 17.140625 53.03125 27.875 53.03125 
Q 38.28125 53.03125 44.875 45.953125 
Q 51.46875 38.875 51.46875 26.03125 
Q 51.46875 25.25 51.421875 23.6875 
L 12.75 23.6875 
Q 13.234375 15.140625 17.578125 10.59375 
Q 21.921875 6.0625 28.421875 6.0625 
Q 33.25 6.0625 36.671875 8.59375 
Q 40.09375 11.140625 42.09375 16.703125 
z
M 13.234375 30.90625 
L 42.1875 30.90625 
Q 41.609375 37.453125 38.875 40.71875 
Q 34.671875 45.796875 27.984375 45.796875 
Q 21.921875 45.796875 17.796875 41.75 
Q 13.671875 37.703125 13.234375 30.90625 
z
" id="ArialMT-65"/>
      <path id="ArialMT-20"/>
      <path d="M 6.59375 0 
L 6.59375 51.859375 
L 14.5 51.859375 
L 14.5 44.484375 
Q 20.21875 53.03125 31 53.03125 
Q 35.6875 53.03125 39.625 51.34375 
Q 43.5625 49.65625 45.515625 46.921875 
Q 47.46875 44.1875 48.25 40.4375 
Q 48.734375 37.984375 48.734375 31.890625 
L 48.734375 0 
L 39.9375 0 
L 39.9375 31.546875 
Q 39.9375 36.921875 38.90625 39.578125 
Q 37.890625 42.234375 35.28125 43.8125 
Q 32.671875 45.40625 29.15625 45.40625 
Q 23.53125 45.40625 19.453125 41.84375 
Q 15.375 38.28125 15.375 28.328125 
L 15.375 0 
z
" id="ArialMT-6e"/>
      <path d="M 4.984375 -4.296875 
L 13.53125 -5.5625 
Q 14.0625 -9.515625 16.5 -11.328125 
Q 19.78125 -13.765625 25.4375 -13.765625 
Q 31.546875 -13.765625 34.859375 -11.328125 
Q 38.1875 -8.890625 39.359375 -4.5 
Q 40.046875 -1.8125 39.984375 6.78125 
Q 34.234375 0 25.640625 0 
Q 14.9375 0 9.078125 7.71875 
Q 3.21875 15.4375 3.21875 26.21875 
Q 3.21875 33.640625 5.90625 39.90625 
Q 8.59375 46.1875 13.6875 49.609375 
Q 18.796875 53.03125 25.6875 53.03125 
Q 34.859375 53.03125 40.828125 45.609375 
L 40.828125 51.859375 
L 48.921875 51.859375 
L 48.921875 7.03125 
Q 48.921875 -5.078125 46.453125 -10.125 
Q 44 -15.1875 38.640625 -18.109375 
Q 33.296875 -21.046875 25.484375 -21.046875 
Q 16.21875 -21.046875 10.5 -16.875 
Q 4.78125 -12.703125 4.984375 -4.296875 
z
M 12.25 26.859375 
Q 12.25 16.65625 16.296875 11.96875 
Q 20.359375 7.28125 26.46875 7.28125 
Q 32.515625 7.28125 36.609375 11.9375 
Q 40.71875 16.609375 40.71875 26.5625 
Q 40.71875 36.078125 36.5 40.90625 
Q 32.28125 45.75 26.3125 45.75 
Q 20.453125 45.75 16.34375 40.984375 
Q 12.25 36.234375 12.25 26.859375 
z
" id="ArialMT-67"/>
      <path d="M 6.203125 -19.96875 
L 5.21875 -11.71875 
Q 8.109375 -12.5 10.25 -12.5 
Q 13.1875 -12.5 14.9375 -11.515625 
Q 16.703125 -10.546875 17.828125 -8.796875 
Q 18.65625 -7.46875 20.515625 -2.25 
Q 20.75 -1.515625 21.296875 -0.09375 
L 1.609375 51.859375 
L 11.078125 51.859375 
L 21.875 21.828125 
Q 23.96875 16.109375 25.640625 9.8125 
Q 27.15625 15.875 29.25 21.625 
L 40.328125 51.859375 
L 49.125 51.859375 
L 29.390625 -0.875 
Q 26.21875 -9.421875 24.46875 -12.640625 
Q 22.125 -17 19.09375 -19.015625 
Q 16.0625 -21.046875 11.859375 -21.046875 
Q 9.328125 -21.046875 6.203125 -19.96875 
z
" id="ArialMT-79"/>
      <path d="M 23.390625 -21.046875 
Q 16.109375 -11.859375 11.078125 0.4375 
Q 6.0625 12.75 6.0625 25.921875 
Q 6.0625 37.546875 9.8125 48.1875 
Q 14.203125 60.546875 23.390625 72.796875 
L 29.6875 72.796875 
Q 23.78125 62.640625 21.875 58.296875 
Q 18.890625 51.5625 17.1875 44.234375 
Q 15.09375 35.109375 15.09375 25.875 
Q 15.09375 2.390625 29.6875 -21.046875 
z
" id="ArialMT-28"/>
      <path d="M 18.3125 75.984375 
L 27.296875 75.984375 
L 18.703125 31.6875 
L 49.515625 54.6875 
L 61.1875 54.6875 
L 26.8125 28.515625 
L 51.90625 0 
L 41.015625 0 
L 17.671875 26.703125 
L 12.5 0 
L 3.515625 0 
z
" id="DejaVuSans-Oblique-6b"/>
      <path d="M 16.890625 72.90625 
L 42.09375 72.90625 
Q 52.34375 72.90625 57.421875 69.09375 
Q 62.5 65.28125 62.5 57.625 
Q 62.5 50.59375 58.125 45.484375 
Q 53.765625 40.375 46.6875 39.3125 
Q 52.734375 37.9375 55.765625 34.078125 
Q 58.796875 30.21875 58.796875 23.78125 
Q 58.796875 12.796875 50.65625 6.390625 
Q 42.53125 0 28.421875 0 
L 2.6875 0 
z
M 19.28125 34.8125 
L 14.109375 8.109375 
L 29.984375 8.109375 
Q 38.921875 8.109375 43.75 12.203125 
Q 48.578125 16.3125 48.578125 23.78125 
Q 48.578125 29.546875 45.375 32.171875 
Q 42.1875 34.8125 35.109375 34.8125 
z
M 25.09375 64.796875 
L 20.796875 42.828125 
L 35.5 42.828125 
Q 43.359375 42.828125 47.78125 46.234375 
Q 52.203125 49.65625 52.203125 55.71875 
Q 52.203125 60.453125 49.21875 62.625 
Q 46.234375 64.796875 39.703125 64.796875 
z
" id="DejaVuSans-Oblique-42"/>
      <path d="M 5.90625 72.90625 
L 67.578125 72.90625 
L 66.015625 64.59375 
L 39.984375 64.59375 
L 27.484375 0 
L 17.578125 0 
L 30.078125 64.59375 
L 4.296875 64.59375 
z
" id="DejaVuSans-Oblique-54"/>
      <path d="M 12.359375 -21.046875 
L 6.0625 -21.046875 
Q 20.65625 2.390625 20.65625 25.875 
Q 20.65625 35.0625 18.5625 44.09375 
Q 16.890625 51.421875 13.921875 58.15625 
Q 12.015625 62.546875 6.0625 72.796875 
L 12.359375 72.796875 
Q 21.53125 60.546875 25.921875 48.1875 
Q 29.6875 37.546875 29.6875 25.921875 
Q 29.6875 12.75 24.625 0.4375 
Q 19.578125 -11.859375 12.359375 -21.046875 
z
" id="ArialMT-29"/>
     </defs>
     <g style="fill:#262626;" transform="translate(21.945938 102.458671)rotate(-90)scale(0.11 -0.11)">
      <use transform="translate(0 0.015625)" xlink:href="#ArialMT-46"/>
      <use transform="translate(61.083984 0.015625)" xlink:href="#ArialMT-72"/>
      <use transform="translate(94.384766 0.015625)" xlink:href="#ArialMT-65"/>
      <use transform="translate(150 0.015625)" xlink:href="#ArialMT-65"/>
      <use transform="translate(205.615234 0.015625)" xlink:href="#ArialMT-20"/>
      <use transform="translate(233.398438 0.015625)" xlink:href="#ArialMT-65"/>
      <use transform="translate(289.013672 0.015625)" xlink:href="#ArialMT-6e"/>
      <use transform="translate(344.628906 0.015625)" xlink:href="#ArialMT-65"/>
      <use transform="translate(400.244141 0.015625)" xlink:href="#ArialMT-72"/>
      <use transform="translate(433.544922 0.015625)" xlink:href="#ArialMT-67"/>
      <use transform="translate(489.160156 0.015625)" xlink:href="#ArialMT-79"/>
      <use transform="translate(539.160156 0.015625)" xlink:href="#ArialMT-20"/>
      <use transform="translate(566.943359 0.015625)" xlink:href="#ArialMT-28"/>
      <use transform="translate(600.244141 0.015625)" xlink:href="#DejaVuSans-Oblique-6b"/>
      <use transform="translate(658.154297 -16.390625)scale(0.7)" xlink:href="#DejaVuSans-Oblique-42"/>
      <use transform="translate(708.911133 0.015625)" xlink:href="#DejaVuSans-Oblique-54"/>
      <use transform="translate(769.995117 0.015625)" xlink:href="#ArialMT-29"/>
     </g>
    </g>
   </g>
   <g id="patch_3">
    <path d="M 47.6 101.92 
L 47.6 14.557342 
" style="fill:none;stroke:#262626;stroke-linecap:square;stroke-linejoin:miter;stroke-width:0.8;"/>
   </g>
   <g id="patch_4">
    <path d="M 47.6 101.92 
L 130.44 101.92 
" style="fill:none;stroke:#262626;stroke-linecap:square;stroke-linejoin:miter;stroke-width:0.8;"/>
   </g>
   <g id="line2d_9">
    <path clip-path="url(#p4ccc221719)" d="M 51.365455 95.244081 
L 52.118545 94.477099 
L 52.871636 93.710117 
L 53.624727 92.943136 
L 54.377818 92.176154 
L 55.130909 91.409172 
L 55.884 90.64219 
L 56.637091 89.875208 
L 57.390182 89.108227 
L 58.143273 88.341245 
L 58.896364 87.574263 
L 59.649455 86.807281 
L 60.402545 86.040299 
L 61.155636 85.273318 
L 61.908727 84.506336 
L 62.661818 83.739354 
L 63.414909 82.972372 
L 64.168 82.20539 
L 64.921091 81.438409 
L 65.674182 80.671427 
L 66.427273 79.904445 
L 67.180364 79.137463 
L 67.933455 78.370481 
L 68.686545 77.6035 
L 69.439636 76.836518 
L 70.192727 76.069536 
L 70.945818 75.302554 
L 71.698909 74.535572 
L 72.452 73.768591 
L 73.205091 73.001609 
L 73.958182 72.234627 
L 74.711273 71.467645 
L 75.464364 70.700663 
L 76.217455 69.933682 
L 76.970545 69.1667 
L 77.723636 68.399718 
L 78.476727 67.632736 
L 79.229818 66.865754 
L 79.982909 66.098773 
L 80.736 65.331791 
L 81.489091 64.564809 
L 82.242182 63.797827 
L 82.995273 63.030845 
L 83.748364 62.263864 
L 84.501455 61.496882 
L 85.254545 60.7299 
L 86.007636 59.962918 
L 86.760727 59.195937 
L 87.513818 58.428955 
L 88.266909 57.661973 
L 89.02 56.894991 
L 89.773091 56.12801 
L 90.526182 55.361026 
L 91.279273 54.594049 
L 92.032364 53.827058 
L 92.785455 53.060066 
L 93.538545 52.293056 
L 94.291636 51.526199 
L 95.044727 50.759076 
L 95.797818 49.992446 
L 96.550909 49.224989 
L 97.304 48.457059 
L 98.057091 47.690369 
L 98.810182 46.922218 
L 99.563273 46.156236 
L 100.316364 45.375648 
L 101.069455 44.621724 
L 101.822545 43.760395 
L 102.575636 43.020415 
L 103.328727 42.311776 
L 104.081818 41.544569 
L 104.834909 40.777363 
L 105.588 40.010156 
L 106.341091 39.24295 
L 107.094182 38.475743 
L 107.847273 37.708536 
L 108.600364 36.94133 
L 109.353455 36.174123 
L 110.106545 35.406917 
L 110.859636 34.63971 
L 111.612727 33.872504 
L 112.365818 33.105297 
L 113.118909 32.33809 
L 113.872 31.570884 
L 114.625091 30.803677 
L 115.378182 30.036471 
L 116.131273 29.269264 
L 116.884364 28.502058 
L 117.637455 27.734851 
L 118.390545 26.967645 
L 119.143636 26.200438 
L 119.896727 25.433231 
L 120.649818 24.666025 
L 121.402909 23.898818 
L 122.156 23.131612 
L 122.909091 22.364405 
L 123.662182 21.597199 
L 124.415273 20.829992 
L 125.168364 20.062785 
L 125.921455 19.295579 
L 126.674545 18.528372 
" style="fill:none;stroke:#2166ac;stroke-linecap:round;stroke-width:1.5;"/>
   </g>
   <g id="line2d_10">
    <path clip-path="url(#p4ccc221719)" d="M 51.365455 97.94897 
L 52.118545 97.437649 
L 52.871636 96.926328 
L 53.624727 96.415007 
L 54.377818 95.903685 
L 55.130909 95.392364 
L 55.884 94.881043 
L 56.637091 94.369722 
L 57.390182 93.858401 
L 58.143273 93.347079 
L 58.896364 92.835758 
L 59.649455 92.324437 
L 60.402545 91.813116 
L 61.155636 91.301795 
L 61.908727 90.790473 
L 62.661818 90.279152 
L 63.414909 89.767831 
L 64.168 89.25651 
L 64.921091 88.745189 
L 65.674182 88.233867 
L 66.427273 87.722546 
L 67.180364 87.211225 
L 67.933455 86.699904 
L 68.686545 86.188583 
L 69.439636 85.677261 
L 70.192727 85.16594 
L 70.945818 84.654619 
L 71.698909 84.143298 
L 72.452 83.631977 
L 73.205091 83.120655 
L 73.958182 82.609334 
L 74.711273 82.098013 
L 75.464364 81.586692 
L 76.217455 81.075371 
L 76.970545 80.564049 
L 77.723636 80.052728 
L 78.476727 79.541407 
L 79.229818 79.030086 
L 79.982909 78.518765 
L 80.736 78.007443 
L 81.489091 77.496122 
L 82.242182 76.984801 
L 82.995273 76.47348 
L 83.748364 75.962159 
L 84.501455 75.450837 
L 85.254545 74.939516 
L 86.007636 74.428195 
L 86.760727 73.916874 
L 87.513818 73.405553 
L 88.266909 72.894231 
L 89.02 72.38291 
L 89.773091 71.871589 
L 90.526182 71.360268 
L 91.279273 70.848947 
L 92.032364 70.337625 
L 92.785455 69.826304 
L 93.538545 69.314983 
L 94.291636 68.803662 
L 95.044727 68.292341 
L 95.797818 67.781019 
L 96.550909 67.269698 
L 97.304 66.758377 
L 98.057091 66.247056 
L 98.810182 65.735735 
L 99.563273 65.224413 
L 100.316364 64.713092 
L 101.069455 64.201771 
L 101.822545 63.69045 
L 102.575636 63.179129 
L 103.328727 62.667807 
L 104.081818 62.156486 
L 104.834909 61.645165 
L 105.588 61.133844 
L 106.341091 60.622523 
L 107.094182 60.111201 
L 107.847273 59.59988 
L 108.600364 59.088559 
L 109.353455 58.577238 
L 110.106545 58.065917 
L 110.859636 57.554595 
L 111.612727 57.043274 
L 112.365818 56.531953 
L 113.118909 56.020633 
L 113.872 55.509312 
L 114.625091 54.997986 
L 115.378182 54.48667 
L 116.131273 53.97535 
L 116.884364 53.46402 
L 117.637455 52.95272 
L 118.390545 52.441367 
L 119.143636 51.930099 
L 119.896727 51.418744 
L 120.649818 50.907401 
L 121.402909 50.396237 
L 122.156 49.885054 
L 122.909091 49.373303 
L 123.662182 48.863088 
L 124.415273 48.352354 
L 125.168364 47.838485 
L 125.921455 47.328418 
L 126.674545 46.817909 
" style="fill:none;stroke:#4393c3;stroke-linecap:round;stroke-width:1.5;"/>
   </g>
   <g id="line2d_11">
    <path clip-path="url(#p4ccc221719)" d="M 51.365455 53.039629 
L 52.118545 53.29529 
L 52.871636 53.55095 
L 53.624727 53.806611 
L 54.377818 54.062272 
L 55.130909 54.317932 
L 55.884 54.573593 
L 56.637091 54.829253 
L 57.390182 55.084914 
L 58.143273 55.340575 
L 58.896364 55.596235 
L 59.649455 55.851896 
L 60.402545 56.107556 
L 61.155636 56.363217 
L 61.908727 56.618878 
L 62.661818 56.874538 
L 63.414909 57.130199 
L 64.168 57.385859 
L 64.921091 57.64152 
L 65.674182 57.897181 
L 66.427273 58.152841 
L 67.180364 58.408502 
L 67.933455 58.664162 
L 68.686545 58.919823 
L 69.439636 59.175484 
L 70.192727 59.431144 
L 70.945818 59.686805 
L 71.698909 59.942465 
L 72.452 60.198126 
L 73.205091 60.453787 
L 73.958182 60.709447 
L 74.711273 60.965108 
L 75.464364 61.220768 
L 76.217455 61.476429 
L 76.970545 61.73209 
L 77.723636 61.98775 
L 78.476727 62.243411 
L 79.229818 62.499071 
L 79.982909 62.754732 
L 80.736 63.010393 
L 81.489091 63.266053 
L 82.242182 63.521714 
L 82.995273 63.777374 
L 83.748364 64.033035 
L 84.501455 64.288696 
L 85.254545 64.544356 
L 86.007636 64.800017 
L 86.760727 65.055677 
L 87.513818 65.311338 
L 88.266909 65.566999 
L 89.02 65.822659 
L 89.773091 66.07832 
L 90.526182 66.33398 
L 91.279273 66.589641 
L 92.032364 66.845302 
L 92.785455 67.100962 
L 93.538545 67.356623 
L 94.291636 67.612283 
L 95.044727 67.867944 
L 95.797818 68.123605 
L 96.550909 68.379265 
L 97.304 68.634926 
L 98.057091 68.890586 
L 98.810182 69.146247 
L 99.563273 69.401908 
L 100.316364 69.657568 
L 101.069455 69.913229 
L 101.822545 70.168889 
L 102.575636 70.42455 
L 103.328727 70.680211 
L 104.081818 70.935871 
L 104.834909 71.191532 
L 105.588 71.447192 
L 106.341091 71.702853 
L 107.094182 71.958514 
L 107.847273 72.214174 
L 108.600364 72.469835 
L 109.353455 72.725495 
L 110.106545 72.981156 
L 110.859636 73.236817 
L 111.612727 73.492477 
L 112.365818 73.748138 
L 113.118909 74.003798 
L 113.872 74.259459 
L 114.625091 74.51512 
L 115.378182 74.77078 
L 116.131273 75.026441 
L 116.884364 75.282101 
L 117.637455 75.537762 
L 118.390545 75.793423 
L 119.143636 76.049083 
L 119.896727 76.304744 
L 120.649818 76.560404 
L 121.402909 76.816065 
L 122.156 77.071726 
L 122.909091 77.327386 
L 123.662182 77.583047 
L 124.415273 77.838707 
L 125.168364 78.094368 
L 125.921455 78.350029 
L 126.674545 78.605689 
" style="fill:none;stroke:#f4a582;stroke-linecap:round;stroke-width:1.5;"/>
   </g>
   <g id="line2d_12">
    <path clip-path="url(#p4ccc221719)" d="M 51.365455 92.851098 
L 52.118545 92.595437 
L 52.871636 92.339777 
L 53.624727 92.084116 
L 54.377818 91.828455 
L 55.130909 91.572795 
L 55.884 91.317134 
L 56.637091 91.061474 
L 57.390182 90.805813 
L 58.143273 90.550152 
L 58.896364 90.294492 
L 59.649455 90.038831 
L 60.402545 89.783171 
L 61.155636 89.52751 
L 61.908727 89.271849 
L 62.661818 89.016189 
L 63.414909 88.760528 
L 64.168 88.504868 
L 64.921091 88.249207 
L 65.674182 87.993546 
L 66.427273 87.737886 
L 67.180364 87.482225 
L 67.933455 87.226565 
L 68.686545 86.970904 
L 69.439636 86.715243 
L 70.192727 86.459583 
L 70.945818 86.203922 
L 71.698909 85.948262 
L 72.452 85.692601 
L 73.205091 85.43694 
L 73.958182 85.18128 
L 74.711273 84.925619 
L 75.464364 84.669959 
L 76.217455 84.414298 
L 76.970545 84.158637 
L 77.723636 83.902977 
L 78.476727 83.647316 
L 79.229818 83.391656 
L 79.982909 83.135995 
L 80.736 82.880334 
L 81.489091 82.624674 
L 82.242182 82.369013 
L 82.995273 82.113353 
L 83.748364 81.857692 
L 84.501455 81.602031 
L 85.254545 81.346371 
L 86.007636 81.09071 
L 86.760727 80.83505 
L 87.513818 80.579389 
L 88.266909 80.323728 
L 89.02 80.068068 
L 89.773091 79.812407 
L 90.526182 79.556747 
L 91.279273 79.301086 
L 92.032364 79.045425 
L 92.785455 78.789765 
L 93.538545 78.534104 
L 94.291636 78.278444 
L 95.044727 78.022783 
L 95.797818 77.767122 
L 96.550909 77.511462 
L 97.304 77.255801 
L 98.057091 77.000141 
L 98.810182 76.74448 
L 99.563273 76.488819 
L 100.316364 76.233159 
L 101.069455 75.977498 
L 101.822545 75.721838 
L 102.575636 75.466177 
L 103.328727 75.210516 
L 104.081818 74.954856 
L 104.834909 74.699195 
L 105.588 74.443535 
L 106.341091 74.187874 
L 107.094182 73.932213 
L 107.847273 73.676553 
L 108.600364 73.420892 
L 109.353455 73.165232 
L 110.106545 72.909571 
L 110.859636 72.65391 
L 111.612727 72.39825 
L 112.365818 72.142589 
L 113.118909 71.886929 
L 113.872 71.631268 
L 114.625091 71.375607 
L 115.378182 71.119947 
L 116.131273 70.864286 
L 116.884364 70.608626 
L 117.637455 70.352965 
L 118.390545 70.097304 
L 119.143636 69.841644 
L 119.896727 69.585983 
L 120.649818 69.330323 
L 121.402909 69.074662 
L 122.156 68.819001 
L 122.909091 68.563341 
L 123.662182 68.30768 
L 124.415273 68.05202 
L 125.168364 67.796359 
L 125.921455 67.540698 
L 126.674545 67.285038 
" style="fill:none;stroke:#92c5de;stroke-linecap:round;stroke-width:1.5;"/>
   </g>
   <g id="line2d_13">
    <path clip-path="url(#p4ccc221719)" d="M 51.365455 82.110796 
L 52.118545 82.110796 
L 52.871636 82.110796 
L 53.624727 82.110796 
L 54.377818 82.110796 
L 55.130909 82.110796 
L 55.884 82.110796 
L 56.637091 82.110796 
L 57.390182 82.110796 
L 58.143273 82.110796 
L 58.896364 82.110796 
L 59.649455 82.110796 
L 60.402545 82.110796 
L 61.155636 82.110796 
L 61.908727 82.110796 
L 62.661818 82.110796 
L 63.414909 82.110796 
L 64.168 82.110796 
L 64.921091 82.110796 
L 65.674182 82.110796 
L 66.427273 82.110796 
L 67.180364 82.110796 
L 67.933455 82.110796 
L 68.686545 82.110796 
L 69.439636 82.110796 
L 70.192727 82.110796 
L 70.945818 82.110796 
L 71.698909 82.110796 
L 72.452 82.110796 
L 73.205091 82.110796 
L 73.958182 82.110796 
L 74.711273 82.110796 
L 75.464364 82.110796 
L 76.217455 82.110796 
L 76.970545 82.110796 
L 77.723636 82.110796 
L 78.476727 82.110796 
L 79.229818 82.110796 
L 79.982909 82.110796 
L 80.736 82.110796 
L 81.489091 82.110796 
L 82.242182 82.110796 
L 82.995273 82.110796 
L 83.748364 82.110796 
L 84.501455 82.110796 
L 85.254545 82.110796 
L 86.007636 82.110796 
L 86.760727 82.110796 
L 87.513818 82.110796 
L 88.266909 82.110796 
L 89.02 82.110796 
L 89.773091 82.110796 
L 90.526182 82.110796 
L 91.279273 82.110796 
L 92.032364 82.110796 
L 92.785455 82.110796 
L 93.538545 82.110796 
L 94.291636 82.110796 
L 95.044727 82.110796 
L 95.797818 82.110796 
L 96.550909 82.110796 
L 97.304 82.110796 
L 98.057091 82.110796 
L 98.810182 82.110796 
L 99.563273 82.110796 
L 100.316364 82.110796 
L 101.069455 82.110796 
L 101.822545 82.110796 
L 102.575636 82.110796 
L 103.328727 82.110796 
L 104.081818 82.110796 
L 104.834909 82.110796 
L 105.588 82.110796 
L 106.341091 82.110796 
L 107.094182 82.110796 
L 107.847273 82.110796 
L 108.600364 82.110796 
L 109.353455 82.110796 
L 110.106545 82.110796 
L 110.859636 82.110796 
L 111.612727 82.110796 
L 112.365818 82.110796 
L 113.118909 82.110796 
L 113.872 82.110796 
L 114.625091 82.110796 
L 115.378182 82.110796 
L 116.131273 82.110796 
L 116.884364 82.110796 
L 117.637455 82.110796 
L 118.390545 82.110796 
L 119.143636 82.110796 
L 119.896727 82.110796 
L 120.649818 82.110796 
L 121.402909 82.110796 
L 122.156 82.110796 
L 122.909091 82.110796 
L 123.662182 82.110796 
L 124.415273 82.110796 
L 125.168364 82.110796 
L 125.921455 82.110796 
L 126.674545 82.110796 
" style="fill:none;stroke:#333333;stroke-linecap:round;stroke-width:1.5;"/>
   </g>
  </g>
 </g>
 <defs>
  <clipPath id="p4ccc221719">
   <rect height="87.362658" width="82.84" x="47.6" y="14.557342"/>
  </clipPath>
 </defs>
</svg>
