<?xml version="1.0" encoding="utf-8" standalone="no"?>
<!DOCTYPE svg PUBLIC "-//W3C//DTD SVG 1.1//EN"
  "http://www.w3.org/Graphics/SVG/1.1/DTD/svg11.dtd">
<!-- Created with matplotlib (http://matplotlib.org/) -->
<svg height="216pt" version="1.1" viewBox="0 0 216 216" width="216pt" xmlns="http://www.w3.org/2000/svg" xmlns:xlink="http://www.w3.org/1999/xlink">
 <defs>
  <style type="text/css">
*{stroke-linecap:butt;stroke-linejoin:round;}
  </style>
 </defs>
 <g id="figure_1">
  <g id="patch_1">
   <path d="M 0 216 
L 216 216 
L 216 0 
L 0 0 
z
" style="fill:#ffffff;"/>
  </g>
  <g id="axes_1">
   <g id="patch_2">
    <path d="M 44.78 175.96 
L 203.52 175.96 
L 203.52 25.44 
L 44.78 25.44 
z
" style="fill:#ffffff;"/>
   </g>
   <g id="matplotlib.axis_1">
    <g id="xtick_1">
     <g id="line2d_1">
      <defs>
       <path d="M 0 0 
L 0 3.5 
" id="mfaa61ad56d" style="stroke:#262626;stroke-width:0.8;"/>
      </defs>
      <g>
       <use style="fill:#262626;stroke:#262626;stroke-width:0.8;" x="51.995455" xlink:href="#mfaa61ad56d" y="175.96"/>
      </g>
     </g>
     <g id="text_1">
      <!-- 2 -->
      <defs>
       <path d="M 50.34375 8.453125 
L 50.34375 0 
L 3.03125 0 
Q 2.9375 3.171875 4.046875 6.109375 
Q 5.859375 10.9375 9.828125 15.625 
Q 13.8125 20.3125 21.34375 26.46875 
Q 33.015625 36.03125 37.109375 41.625 
Q 41.21875 47.21875 41.21875 52.203125 
Q 41.21875 57.421875 37.46875 61 
Q 33.734375 64.59375 27.734375 64.59375 
Q 21.390625 64.59375 17.578125 60.78125 
Q 13.765625 56.984375 13.71875 50.25 
L 4.6875 51.171875 
Q 5.609375 61.28125 11.65625 66.578125 
Q 17.71875 71.875 27.9375 71.875 
Q 38.234375 71.875 44.234375 66.15625 
Q 50.25 60.453125 50.25 52 
Q 50.25 47.703125 48.484375 43.546875 
Q 46.734375 39.40625 42.65625 34.8125 
Q 38.578125 30.21875 29.109375 22.21875 
Q 21.1875 15.578125 18.9375 13.203125 
Q 16.703125 10.84375 15.234375 8.453125 
z
" id="ArialMT-32"/>
      </defs>
      <g style="fill:#262626;" transform="translate(49.214986 190.117812)scale(0.1 -0.1)">
       <use xlink:href="#ArialMT-32"/>
      </g>
     </g>
    </g>
    <g id="xtick_2">
     <g id="line2d_2">
      <g>
       <use style="fill:#262626;stroke:#262626;stroke-width:0.8;" x="80.857273" xlink:href="#mfaa61ad56d" y="175.96"/>
      </g>
     </g>
     <g id="text_2">
      <!-- 4 -->
      <defs>
       <path d="M 32.328125 0 
L 32.328125 17.140625 
L 1.265625 17.140625 
L 1.265625 25.203125 
L 33.9375 71.578125 
L 41.109375 71.578125 
L 41.109375 25.203125 
L 50.78125 25.203125 
L 50.78125 17.140625 
L 41.109375 17.140625 
L 41.109375 0 
z
M 32.328125 25.203125 
L 32.328125 57.46875 
L 9.90625 25.203125 
z
" id="ArialMT-34"/>
      </defs>
      <g style="fill:#262626;" transform="translate(78.076804 190.117812)scale(0.1 -0.1)">
       <use xlink:href="#ArialMT-34"/>
      </g>
     </g>
    </g>
    <g id="xtick_3">
     <g id="line2d_3">
      <g>
       <use style="fill:#262626;stroke:#262626;stroke-width:0.8;" x="109.719091" xlink:href="#mfaa61ad56d" y="175.96"/>
      </g>
     </g>
     <g id="text_3">
      <!-- 6 -->
      <defs>
       <path d="M 49.75 54.046875 
L 41.015625 53.375 
Q 39.84375 58.546875 37.703125 60.890625 
Q 34.125 64.65625 28.90625 64.65625 
Q 24.703125 64.65625 21.53125 62.3125 
Q 17.390625 59.28125 14.984375 53.46875 
Q 12.59375 47.65625 12.5 36.921875 
Q 15.671875 41.75 20.265625 44.09375 
Q 24.859375 46.4375 29.890625 46.4375 
Q 38.671875 46.4375 44.84375 39.96875 
Q 51.03125 33.5 51.03125 23.25 
Q 51.03125 16.5 48.125 10.71875 
Q 45.21875 4.9375 40.140625 1.859375 
Q 35.0625 -1.21875 28.609375 -1.21875 
Q 17.625 -1.21875 10.6875 6.859375 
Q 3.765625 14.9375 3.765625 33.5 
Q 3.765625 54.25 11.421875 63.671875 
Q 18.109375 71.875 29.4375 71.875 
Q 37.890625 71.875 43.28125 67.140625 
Q 48.6875 62.40625 49.75 54.046875 
z
M 13.875 23.1875 
Q 13.875 18.65625 15.796875 14.5 
Q 17.71875 10.359375 21.1875 8.171875 
Q 24.65625 6 28.46875 6 
Q 34.03125 6 38.03125 10.484375 
Q 42.046875 14.984375 42.046875 22.703125 
Q 42.046875 30.125 38.078125 34.390625 
Q 34.125 38.671875 28.125 38.671875 
Q 22.171875 38.671875 18.015625 34.390625 
Q 13.875 30.125 13.875 23.1875 
z
" id="ArialMT-36"/>
      </defs>
      <g style="fill:#262626;" transform="translate(106.938622 190.117812)scale(0.1 -0.1)">
       <use xlink:href="#ArialMT-36"/>
      </g>
     </g>
    </g>
    <g id="xtick_4">
     <g id="line2d_4">
      <g>
       <use style="fill:#262626;stroke:#262626;stroke-width:0.8;" x="138.580909" xlink:href="#mfaa61ad56d" y="175.96"/>
      </g>
     </g>
     <g id="text_4">
      <!-- 8 -->
      <defs>
       <path d="M 17.671875 38.8125 
Q 12.203125 40.828125 9.5625 44.53125 
Q 6.9375 48.25 6.9375 53.421875 
Q 6.9375 61.234375 12.546875 66.546875 
Q 18.171875 71.875 27.484375 71.875 
Q 36.859375 71.875 42.578125 66.421875 
Q 48.296875 60.984375 48.296875 53.171875 
Q 48.296875 48.1875 45.671875 44.5 
Q 43.0625 40.828125 37.75 38.8125 
Q 44.34375 36.671875 47.78125 31.875 
Q 51.21875 27.09375 51.21875 20.453125 
Q 51.21875 11.28125 44.71875 5.03125 
Q 38.234375 -1.21875 27.640625 -1.21875 
Q 17.046875 -1.21875 10.546875 5.046875 
Q 4.046875 11.328125 4.046875 20.703125 
Q 4.046875 27.6875 7.59375 32.390625 
Q 11.140625 37.109375 17.671875 38.8125 
z
M 15.921875 53.71875 
Q 15.921875 48.640625 19.1875 45.40625 
Q 22.46875 42.1875 27.6875 42.1875 
Q 32.765625 42.1875 36.015625 45.375 
Q 39.265625 48.578125 39.265625 53.21875 
Q 39.265625 58.0625 35.90625 61.359375 
Q 32.5625 64.65625 27.59375 64.65625 
Q 22.5625 64.65625 19.234375 61.421875 
Q 15.921875 58.203125 15.921875 53.71875 
z
M 13.09375 20.65625 
Q 13.09375 16.890625 14.875 13.375 
Q 16.65625 9.859375 20.171875 7.921875 
Q 23.6875 6 27.734375 6 
Q 34.03125 6 38.125 10.046875 
Q 42.234375 14.109375 42.234375 20.359375 
Q 42.234375 26.703125 38.015625 30.859375 
Q 33.796875 35.015625 27.4375 35.015625 
Q 21.234375 35.015625 17.15625 30.90625 
Q 13.09375 26.8125 13.09375 20.65625 
z
" id="ArialMT-38"/>
      </defs>
      <g style="fill:#262626;" transform="translate(135.80044 190.117812)scale(0.1 -0.1)">
       <use xlink:href="#ArialMT-38"/>
      </g>
     </g>
    </g>
    <g id="xtick_5">
     <g id="line2d_5">
      <g>
       <use style="fill:#262626;stroke:#262626;stroke-width:0.8;" x="167.442727" xlink:href="#mfaa61ad56d" y="175.96"/>
      </g>
     </g>
     <g id="text_5">
      <!-- 10 -->
      <defs>
       <path d="M 37.25 0 
L 28.46875 0 
L 28.46875 56 
Q 25.296875 52.984375 20.140625 49.953125 
Q 14.984375 46.921875 10.890625 45.40625 
L 10.890625 53.90625 
Q 18.265625 57.375 23.78125 62.296875 
Q 29.296875 67.234375 31.59375 71.875 
L 37.25 71.875 
z
" id="ArialMT-31"/>
       <path d="M 4.15625 35.296875 
Q 4.15625 48 6.765625 55.734375 
Q 9.375 63.484375 14.515625 67.671875 
Q 19.671875 71.875 27.484375 71.875 
Q 33.25 71.875 37.59375 69.546875 
Q 41.9375 67.234375 44.765625 62.859375 
Q 47.609375 58.5 49.21875 52.21875 
Q 50.828125 45.953125 50.828125 35.296875 
Q 50.828125 22.703125 48.234375 14.96875 
Q 45.65625 7.234375 40.5 3 
Q 35.359375 -1.21875 27.484375 -1.21875 
Q 17.140625 -1.21875 11.234375 6.203125 
Q 4.15625 15.140625 4.15625 35.296875 
z
M 13.1875 35.296875 
Q 13.1875 17.671875 17.3125 11.828125 
Q 21.4375 6 27.484375 6 
Q 33.546875 6 37.671875 11.859375 
Q 41.796875 17.71875 41.796875 35.296875 
Q 41.796875 52.984375 37.671875 58.78125 
Q 33.546875 64.59375 27.390625 64.59375 
Q 21.34375 64.59375 17.71875 59.46875 
Q 13.1875 52.9375 13.1875 35.296875 
z
" id="ArialMT-30"/>
      </defs>
      <g style="fill:#262626;" transform="translate(161.88179 190.117812)scale(0.1 -0.1)">
       <use xlink:href="#ArialMT-31"/>
       <use x="55.615234" xlink:href="#ArialMT-30"/>
      </g>
     </g>
    </g>
    <g id="xtick_6">
     <g id="line2d_6">
      <g>
       <use style="fill:#262626;stroke:#262626;stroke-width:0.8;" x="196.304545" xlink:href="#mfaa61ad56d" y="175.96"/>
      </g>
     </g>
     <g id="text_6">
      <!-- 12 -->
      <g style="fill:#262626;" transform="translate(190.743608 190.117812)scale(0.1 -0.1)">
       <use xlink:href="#ArialMT-31"/>
       <use x="55.615234" xlink:href="#ArialMT-32"/>
      </g>
     </g>
    </g>
    <g id="text_7">
     <!-- pH -->
     <defs>
      <path d="M 6.59375 -19.875 
L 6.59375 51.859375 
L 14.59375 51.859375 
L 14.59375 45.125 
Q 17.4375 49.078125 21 51.046875 
Q 24.5625 53.03125 29.640625 53.03125 
Q 36.28125 53.03125 41.359375 49.609375 
Q 46.4375 46.1875 49.015625 39.953125 
Q 51.609375 33.734375 51.609375 26.3125 
Q 51.609375 18.359375 48.75 11.984375 
Q 45.90625 5.609375 40.453125 2.21875 
Q 35.015625 -1.171875 29 -1.171875 
Q 24.609375 -1.171875 21.109375 0.6875 
Q 17.625 2.546875 15.375 5.375 
L 15.375 -19.875 
z
M 14.546875 25.640625 
Q 14.546875 15.625 18.59375 10.84375 
Q 22.65625 6.0625 28.421875 6.0625 
Q 34.28125 6.0625 38.453125 11.015625 
Q 42.625 15.96875 42.625 26.375 
Q 42.625 36.28125 38.546875 41.203125 
Q 34.46875 46.140625 28.8125 46.140625 
Q 23.1875 46.140625 18.859375 40.890625 
Q 14.546875 35.640625 14.546875 25.640625 
z
" id="ArialMT-70"/>
      <path d="M 8.015625 0 
L 8.015625 71.578125 
L 17.484375 71.578125 
L 17.484375 42.1875 
L 54.6875 42.1875 
L 54.6875 71.578125 
L 64.15625 71.578125 
L 64.15625 0 
L 54.6875 0 
L 54.6875 33.734375 
L 17.484375 33.734375 
L 17.484375 0 
z
" id="ArialMT-48"/>
     </defs>
     <g style="fill:#262626;" transform="translate(117.758594 203.263125)scale(0.1 -0.1)">
      <use xlink:href="#ArialMT-70"/>
      <use x="55.615234" xlink:href="#ArialMT-48"/>
     </g>
    </g>
   </g>
   <g id="matplotlib.axis_2">
    <g id="ytick_1">
     <g id="line2d_7">
      <defs>
       <path d="M 0 0 
L -3.5 0 
" id="me3a91f2a34" style="stroke:#262626;stroke-width:0.8;"/>
      </defs>
      <g>
       <use style="fill:#262626;stroke:#262626;stroke-width:0.8;" x="44.78" xlink:href="#me3a91f2a34" y="128.652472"/>
      </g>
     </g>
     <g id="text_8">
      <!-- −1 -->
      <defs>
       <path d="M 52.828125 31.203125 
L 5.5625 31.203125 
L 5.5625 39.40625 
L 52.828125 39.40625 
z
" id="ArialMT-2212"/>
      </defs>
      <g style="fill:#262626;" transform="translate(26.378438 132.231378)scale(0.1 -0.1)">
       <use xlink:href="#ArialMT-2212"/>
       <use x="58.398438" xlink:href="#ArialMT-31"/>
      </g>
     </g>
    </g>
    <g id="ytick_2">
     <g id="line2d_8">
      <g>
       <use style="fill:#262626;stroke:#262626;stroke-width:0.8;" x="44.78" xlink:href="#me3a91f2a34" y="74.232208"/>
      </g>
     </g>
     <g id="text_9">
      <!-- 0 -->
      <g style="fill:#262626;" transform="translate(32.219063 77.811114)scale(0.1 -0.1)">
       <use xlink:href="#ArialMT-30"/>
      </g>
     </g>
    </g>
    <g id="text_10">
     <!-- $\langle q_\mathsf{total} \rangle$ -->
     <defs>
      <path d="M 8.9375 31.34375 
L 22.703125 75.875 
L 31 75.875 
L 17.234375 31.34375 
L 31 -13.1875 
L 22.703125 -13.1875 
z
" id="DejaVuSans-27e8"/>
      <path d="M 41.703125 8.203125 
Q 38.09375 3.46875 33.171875 1.015625 
Q 28.265625 -1.421875 22.3125 -1.421875 
Q 14.015625 -1.421875 9.296875 4.171875 
Q 4.59375 9.765625 4.59375 19.578125 
Q 4.59375 27.484375 7.5 34.859375 
Q 10.40625 42.234375 15.828125 48.09375 
Q 19.34375 51.90625 23.90625 53.953125 
Q 28.46875 56 33.5 56 
Q 39.546875 56 43.453125 53.609375 
Q 47.359375 51.21875 49.125 46.390625 
L 50.6875 54.59375 
L 59.71875 54.59375 
L 45.125 -20.609375 
L 36.078125 -20.609375 
z
M 13.921875 20.90625 
Q 13.921875 13.671875 16.9375 9.890625 
Q 19.96875 6.109375 25.6875 6.109375 
Q 34.1875 6.109375 40.1875 14.234375 
Q 46.1875 22.359375 46.1875 33.984375 
Q 46.1875 41.015625 43.078125 44.75 
Q 39.984375 48.484375 34.1875 48.484375 
Q 29.9375 48.484375 26.3125 46.5 
Q 22.703125 44.53125 20.015625 40.71875 
Q 17.1875 36.71875 15.546875 31.34375 
Q 13.921875 25.984375 13.921875 20.90625 
z
" id="DejaVuSans-Oblique-71"/>
      <path d="M 18.3125 70.21875 
L 18.3125 54.6875 
L 36.8125 54.6875 
L 36.8125 47.703125 
L 18.3125 47.703125 
L 18.3125 18.015625 
Q 18.3125 11.328125 20.140625 9.421875 
Q 21.96875 7.515625 27.59375 7.515625 
L 36.8125 7.515625 
L 36.8125 0 
L 27.59375 0 
Q 17.1875 0 13.234375 3.875 
Q 9.28125 7.765625 9.28125 18.015625 
L 9.28125 47.703125 
L 2.6875 47.703125 
L 2.6875 54.6875 
L 9.28125 54.6875 
L 9.28125 70.21875 
z
" id="DejaVuSans-74"/>
      <path d="M 30.609375 48.390625 
Q 23.390625 48.390625 19.1875 42.75 
Q 14.984375 37.109375 14.984375 27.296875 
Q 14.984375 17.484375 19.15625 11.84375 
Q 23.34375 6.203125 30.609375 6.203125 
Q 37.796875 6.203125 41.984375 11.859375 
Q 46.1875 17.53125 46.1875 27.296875 
Q 46.1875 37.015625 41.984375 42.703125 
Q 37.796875 48.390625 30.609375 48.390625 
z
M 30.609375 56 
Q 42.328125 56 49.015625 48.375 
Q 55.71875 40.765625 55.71875 27.296875 
Q 55.71875 13.875 49.015625 6.21875 
Q 42.328125 -1.421875 30.609375 -1.421875 
Q 18.84375 -1.421875 12.171875 6.21875 
Q 5.515625 13.875 5.515625 27.296875 
Q 5.515625 40.765625 12.171875 48.375 
Q 18.84375 56 30.609375 56 
z
" id="DejaVuSans-6f"/>
      <path d="M 34.28125 27.484375 
Q 23.390625 27.484375 19.1875 25 
Q 14.984375 22.515625 14.984375 16.5 
Q 14.984375 11.71875 18.140625 8.90625 
Q 21.296875 6.109375 26.703125 6.109375 
Q 34.1875 6.109375 38.703125 11.40625 
Q 43.21875 16.703125 43.21875 25.484375 
L 43.21875 27.484375 
z
M 52.203125 31.203125 
L 52.203125 0 
L 43.21875 0 
L 43.21875 8.296875 
Q 40.140625 3.328125 35.546875 0.953125 
Q 30.953125 -1.421875 24.3125 -1.421875 
Q 15.921875 -1.421875 10.953125 3.296875 
Q 6 8.015625 6 15.921875 
Q 6 25.140625 12.171875 29.828125 
Q 18.359375 34.515625 30.609375 34.515625 
L 43.21875 34.515625 
L 43.21875 35.40625 
Q 43.21875 41.609375 39.140625 45 
Q 35.0625 48.390625 27.6875 48.390625 
Q 23 48.390625 18.546875 47.265625 
Q 14.109375 46.140625 10.015625 43.890625 
L 10.015625 52.203125 
Q 14.9375 54.109375 19.578125 55.046875 
Q 24.21875 56 28.609375 56 
Q 40.484375 56 46.34375 49.84375 
Q 52.203125 43.703125 52.203125 31.203125 
z
" id="DejaVuSans-61"/>
      <path d="M 9.421875 75.984375 
L 18.40625 75.984375 
L 18.40625 0 
L 9.421875 0 
z
" id="DejaVuSans-6c"/>
      <path d="M 30.078125 31.34375 
L 16.3125 -13.1875 
L 8.015625 -13.1875 
L 21.78125 31.34375 
L 8.015625 75.875 
L 16.3125 75.875 
z
" id="DejaVuSans-27e9"/>
     </defs>
     <g style="fill:#262626;" transform="translate(20.278438 115.95)rotate(-90)scale(0.1 -0.1)">
      <use transform="translate(0 0.125)" xlink:href="#DejaVuSans-27e8"/>
      <use transform="translate(39.013672 0.125)" xlink:href="#DejaVuSans-Oblique-71"/>
      <use transform="translate(102.490234 -16.28125)scale(0.7)" xlink:href="#DejaVuSans-74"/>
      <use transform="translate(129.936523 -16.28125)scale(0.7)" xlink:href="#DejaVuSans-6f"/>
      <use transform="translate(172.763672 -16.28125)scale(0.7)" xlink:href="#DejaVuSans-74"/>
      <use transform="translate(200.209961 -16.28125)scale(0.7)" xlink:href="#DejaVuSans-61"/>
      <use transform="translate(243.105469 -16.28125)scale(0.7)" xlink:href="#DejaVuSans-6c"/>
      <use transform="translate(265.288086 0.125)" xlink:href="#DejaVuSans-27e9"/>
     </g>
    </g>
   </g>
   <g id="PolyCollection_1">
    <defs>
     <path d="M 51.995455 -160.389916 
L 51.995455 -123.504874 
L 53.438545 -123.824351 
L 54.881636 -124.067753 
L 56.324727 -124.236546 
L 57.767818 -124.333233 
L 59.210909 -124.36101 
L 60.654 -124.323415 
L 62.097091 -124.224018 
L 63.540182 -124.0662 
L 64.983273 -123.853054 
L 66.426364 -123.587403 
L 67.869455 -123.271906 
L 69.312545 -122.909221 
L 70.755636 -122.502154 
L 72.198727 -122.053741 
L 73.641818 -121.567251 
L 75.084909 -121.046116 
L 76.528 -120.493827 
L 77.971091 -119.913848 
L 79.414182 -119.309558 
L 80.857273 -118.684227 
L 82.300364 -118.040996 
L 83.743455 -117.382837 
L 85.186545 -116.71251 
L 86.629636 -116.032519 
L 88.072727 -115.345095 
L 89.515818 -114.652175 
L 90.958909 -113.955347 
L 92.402 -113.25575 
L 93.845091 -112.554042 
L 95.288182 -111.850602 
L 96.731273 -111.145958 
L 98.174364 -110.441091 
L 99.617455 -109.737288 
L 101.060545 -109.035795 
L 102.503636 -108.337678 
L 103.946727 -107.643933 
L 105.389818 -106.955638 
L 106.832909 -106.274039 
L 108.276 -105.600603 
L 109.719091 -104.93709 
L 111.162182 -104.285569 
L 112.605273 -103.648348 
L 114.048364 -103.027771 
L 115.491455 -102.425948 
L 116.934545 -101.844467 
L 118.377636 -101.284182 
L 119.820727 -100.745124 
L 121.263818 -100.226548 
L 122.706909 -99.727048 
L 124.15 -99.244671 
L 125.593091 -98.776935 
L 127.036182 -98.320714 
L 128.479273 -97.871979 
L 129.922364 -97.425445 
L 131.365455 -96.974179 
L 132.808545 -96.509176 
L 134.251636 -96.018942 
L 135.694727 -95.489107 
L 137.137818 -94.902163 
L 138.580909 -94.23745 
L 140.024 -93.471604 
L 141.467091 -92.579639 
L 142.910182 -91.536899 
L 144.353273 -90.321911 
L 145.796364 -88.919982 
L 147.239455 -87.327094 
L 148.682545 -85.553527 
L 150.125636 -83.62638 
L 151.568727 -81.590019 
L 153.011818 -79.503553 
L 154.454909 -77.434993 
L 155.898 -75.452973 
L 157.341091 -73.618217 
L 158.784182 -71.976905 
L 160.227273 -70.556649 
L 161.670364 -69.364736 
L 163.113455 -68.388621 
L 164.556545 -67.598991 
L 165.999636 -66.954958 
L 167.442727 -66.41026 
L 168.885818 -65.919065 
L 170.328909 -65.440125 
L 171.772 -64.938858 
L 173.215091 -64.388089 
L 174.658182 -63.768276 
L 176.101273 -63.067403 
L 177.544364 -62.280541 
L 178.987455 -61.409139 
L 180.430545 -60.459879 
L 181.873636 -59.44274 
L 183.316727 -58.368542 
L 184.759818 -57.24686 
L 186.202909 -56.084913 
L 187.646 -54.887298 
L 189.089091 -53.656068 
L 190.532182 -52.390753 
L 191.975273 -51.088198 
L 193.418364 -49.742371 
L 194.861455 -48.344251 
L 196.304545 -46.881818 
L 196.304545 -122.62311 
L 196.304545 -122.62311 
L 194.861455 -122.240737 
L 193.418364 -121.730113 
L 191.975273 -121.117107 
L 190.532182 -120.425611 
L 189.089091 -119.678155 
L 187.646 -118.896559 
L 186.202909 -118.102557 
L 184.759818 -117.318468 
L 183.316727 -116.568048 
L 181.873636 -115.877387 
L 180.430545 -115.275468 
L 178.987455 -114.793869 
L 177.544364 -114.465516 
L 176.101273 -114.323058 
L 174.658182 -114.397736 
L 173.215091 -114.718971 
L 171.772 -115.314215 
L 170.328909 -116.208752 
L 168.885818 -117.425308 
L 167.442727 -118.983182 
L 165.999636 -120.896755 
L 164.556545 -123.173882 
L 163.113455 -125.8147 
L 161.670364 -128.810477 
L 160.227273 -132.141814 
L 158.784182 -135.775967 
L 157.341091 -139.663921 
L 155.898 -143.738875 
L 154.454909 -147.918084 
L 153.011818 -152.108591 
L 151.568727 -156.215275 
L 150.125636 -160.149123 
L 148.682545 -163.834313 
L 147.239455 -167.213276 
L 145.796364 -170.249011 
L 144.353273 -172.924528 
L 142.910182 -175.24001 
L 141.467091 -177.208764 
L 140.024 -178.853011 
L 138.580909 -180.20023 
L 137.137818 -181.2803 
L 135.694727 -182.123394 
L 134.251636 -182.758522 
L 132.808545 -183.212612 
L 131.365455 -183.510011 
L 129.922364 -183.672276 
L 128.479273 -183.718182 
L 127.036182 -183.663864 
L 125.593091 -183.523021 
L 124.15 -183.307124 
L 122.706909 -183.025631 
L 121.263818 -182.686233 
L 119.820727 -182.29517 
L 118.377636 -181.857614 
L 116.934545 -181.378091 
L 115.491455 -180.860849 
L 114.048364 -180.310109 
L 112.605273 -179.730144 
L 111.162182 -179.125205 
L 109.719091 -178.499345 
L 108.276 -177.856226 
L 106.832909 -177.199 
L 105.389818 -176.530285 
L 103.946727 -175.852234 
L 102.503636 -175.166636 
L 101.060545 -174.475001 
L 99.617455 -173.778672 
L 98.174364 -173.078988 
L 96.731273 -172.377416 
L 95.288182 -171.675416 
L 93.845091 -170.974111 
L 92.402 -170.274142 
L 90.958909 -169.575981 
L 89.515818 -168.880363 
L 88.072727 -168.18849 
L 86.629636 -167.502007 
L 85.186545 -166.8229 
L 83.743455 -166.153448 
L 82.300364 -165.496202 
L 80.857273 -164.853968 
L 79.414182 -164.229775 
L 77.971091 -163.626822 
L 76.528 -163.04845 
L 75.084909 -162.498126 
L 73.641818 -161.979415 
L 72.198727 -161.49594 
L 70.755636 -161.051292 
L 69.312545 -160.648941 
L 67.869455 -160.292174 
L 66.426364 -159.984111 
L 64.983273 -159.727804 
L 63.540182 -159.526412 
L 62.097091 -159.38338 
L 60.654 -159.302584 
L 59.210909 -159.288394 
L 57.767818 -159.345617 
L 56.324727 -159.47935 
L 54.881636 -159.694742 
L 53.438545 -159.996749 
L 51.995455 -160.389916 
z
" id="m70cc619cd6" style="stroke:#ffffff;stroke-opacity:0.05;"/>
    </defs>
    <g clip-path="url(#pddfafd15ad)">
     <use style="fill:#001c7f;fill-opacity:0.05;stroke:#ffffff;stroke-opacity:0.05;" x="0" xlink:href="#m70cc619cd6" y="216"/>
    </g>
   </g>
   <g id="line2d_9">
    <path clip-path="url(#pddfafd15ad)" d="M 51.995455 74.052605 
L 53.438545 74.08945 
L 54.881636 74.118753 
L 56.324727 74.142052 
L 57.767818 74.160575 
L 59.210909 74.175298 
L 60.654 74.187 
L 62.097091 74.196301 
L 63.540182 74.203694 
L 64.983273 74.209571 
L 66.426364 74.214243 
L 67.869455 74.21796 
L 69.312545 74.220919 
L 70.755636 74.223277 
L 72.198727 74.225159 
L 73.641818 74.226667 
L 75.084909 74.227879 
L 76.528 74.228861 
L 77.971091 74.229665 
L 79.414182 74.230334 
L 80.857273 74.230902 
L 82.300364 74.231401 
L 83.743455 74.231858 
L 85.186545 74.232295 
L 86.629636 74.232737 
L 88.072727 74.233208 
L 89.515818 74.233731 
L 90.958909 74.234336 
L 92.402 74.235054 
L 93.845091 74.235924 
L 95.288182 74.236991 
L 96.731273 74.238313 
L 98.174364 74.23996 
L 99.617455 74.24202 
L 101.060545 74.244602 
L 102.503636 74.247843 
L 103.946727 74.251917 
L 105.389818 74.257039 
L 106.832909 74.263481 
L 108.276 74.271586 
L 109.719091 74.281783 
L 111.162182 74.294613 
L 112.605273 74.310754 
L 114.048364 74.33106 
L 115.491455 74.356601 
L 116.934545 74.388721 
L 118.377636 74.429102 
L 119.820727 74.479853 
L 121.263818 74.543609 
L 122.706909 74.62366 
L 124.15 74.724102 
L 125.593091 74.850022 
L 127.036182 75.007711 
L 128.479273 75.20492 
L 129.922364 75.451139 
L 131.365455 75.757905 
L 132.808545 76.139106 
L 134.251636 76.611268 
L 135.694727 77.193749 
L 137.137818 77.908769 
L 138.580909 78.78116 
L 140.024 79.837693 
L 141.467091 81.105798 
L 142.910182 82.611545 
L 144.353273 84.376781 
L 145.796364 86.415504 
L 147.239455 88.729815 
L 148.682545 91.30608 
L 150.125636 94.112249 
L 151.568727 97.097353 
L 153.011818 100.193928 
L 154.454909 103.323461 
L 155.898 106.404076 
L 157.341091 109.358931 
L 158.784182 112.123564 
L 160.227273 114.650768 
L 161.670364 116.912394 
L 163.113455 118.898339 
L 164.556545 120.613563 
L 165.999636 122.074144 
L 167.442727 123.303279 
L 168.885818 124.327813 
L 170.328909 125.175562 
L 171.772 125.873464 
L 173.215091 126.44647 
L 174.658182 126.916994 
L 176.101273 127.30477 
L 177.544364 127.626972 
L 178.987455 127.898496 
L 180.430545 128.132327 
L 181.873636 128.339936 
L 183.316727 128.531705 
L 184.759818 128.717336 
L 186.202909 128.906265 
L 187.646 129.108071 
L 189.089091 129.332888 
L 190.532182 129.591818 
L 191.975273 129.897348 
L 193.418364 130.263758 
L 194.861455 130.707506 
L 196.304545 131.247536 
" style="fill:none;opacity:0.9;stroke:#001c7f;stroke-linecap:round;stroke-width:1.5;"/>
   </g>
   <g id="line2d_10">
    <path clip-path="url(#pddfafd15ad)" d="M 51.995455 74.232209 
L 53.438545 74.23221 
L 54.881636 74.23221 
L 56.324727 74.232211 
L 57.767818 74.232212 
L 59.210909 74.232213 
L 60.654 74.232214 
L 62.097091 74.232216 
L 63.540182 74.232218 
L 64.983273 74.232221 
L 66.426364 74.232224 
L 67.869455 74.232228 
L 69.312545 74.232233 
L 70.755636 74.23224 
L 72.198727 74.232248 
L 73.641818 74.232259 
L 75.084909 74.232272 
L 76.528 74.232288 
L 77.971091 74.232309 
L 79.414182 74.232335 
L 80.857273 74.232368 
L 82.300364 74.23241 
L 83.743455 74.232462 
L 85.186545 74.232528 
L 86.629636 74.232611 
L 88.072727 74.232716 
L 89.515818 74.232847 
L 90.958909 74.233013 
L 92.402 74.233221 
L 93.845091 74.233484 
L 95.288182 74.233814 
L 96.731273 74.23423 
L 98.174364 74.234753 
L 99.617455 74.235412 
L 101.060545 74.236242 
L 102.503636 74.237286 
L 103.946727 74.238601 
L 105.389818 74.240256 
L 106.832909 74.242339 
L 108.276 74.244962 
L 109.719091 74.248264 
L 111.162182 74.252419 
L 112.605273 74.25765 
L 114.048364 74.264234 
L 115.491455 74.27252 
L 116.934545 74.282948 
L 118.377636 74.296071 
L 119.820727 74.312582 
L 121.263818 74.333355 
L 122.706909 74.359483 
L 124.15 74.392341 
L 125.593091 74.43365 
L 127.036182 74.485565 
L 128.479273 74.550782 
L 129.922364 74.632662 
L 131.365455 74.735391 
L 132.808545 74.864165 
L 134.251636 75.02541 
L 135.694727 75.227036 
L 137.137818 75.478722 
L 138.580909 75.792224 
L 140.024 76.181683 
L 141.467091 76.663896 
L 142.910182 77.258509 
L 144.353273 77.988016 
L 145.796364 78.87748 
L 147.239455 79.953803 
L 148.682545 81.244379 
L 150.125636 82.774994 
L 151.568727 84.566879 
L 153.011818 86.633026 
L 154.454909 88.974115 
L 155.898 91.574758 
L 157.341091 94.400981 
L 158.784182 97.399992 
L 160.227273 100.502909 
L 161.670364 103.630482 
L 163.113455 106.700925 
L 164.556545 109.638284 
L 165.999636 112.379583 
L 167.442727 114.879406 
L 168.885818 117.111391 
L 170.328909 119.06697 
L 171.772 120.752238 
L 173.215091 122.183959 
L 174.658182 123.385592 
L 176.101273 124.383873 
L 177.544364 125.206207 
L 178.987455 125.878882 
L 180.430545 126.425992 
L 181.873636 126.868908 
L 183.316727 127.226122 
L 184.759818 127.513342 
L 186.202909 127.743716 
L 187.646 127.928134 
L 189.089091 128.075531 
L 190.532182 128.19319 
L 191.975273 128.287017 
L 193.418364 128.361779 
L 194.861455 128.421313 
L 196.304545 128.468695 
" style="fill:none;opacity:0.7;stroke:#000000;stroke-linecap:round;stroke-width:1.5;"/>
   </g>
   <g id="line2d_11">
    <path clip-path="url(#pddfafd15ad)" d="M 51.995455 55.610084 
L 53.438545 56.003251 
L 54.881636 56.305258 
L 56.324727 56.52065 
L 57.767818 56.654383 
L 59.210909 56.711606 
L 60.654 56.697416 
L 62.097091 56.61662 
L 63.540182 56.473588 
L 64.983273 56.272196 
L 66.426364 56.015889 
L 67.869455 55.707826 
L 69.312545 55.351059 
L 70.755636 54.948708 
L 72.198727 54.50406 
L 73.641818 54.020585 
L 75.084909 53.501874 
L 76.528 52.95155 
L 77.971091 52.373178 
L 79.414182 51.770225 
L 80.857273 51.146032 
L 82.300364 50.503798 
L 83.743455 49.846552 
L 85.186545 49.1771 
L 86.629636 48.497993 
L 88.072727 47.81151 
L 89.515818 47.119637 
L 90.958909 46.424019 
L 92.402 45.725858 
L 93.845091 45.025889 
L 95.288182 44.324584 
L 96.731273 43.622584 
L 98.174364 42.921012 
L 99.617455 42.221328 
L 101.060545 41.524999 
L 102.503636 40.833364 
L 103.946727 40.147766 
L 105.389818 39.469715 
L 106.832909 38.801 
L 108.276 38.143774 
L 109.719091 37.500655 
L 111.162182 36.874795 
L 112.605273 36.269856 
L 114.048364 35.689891 
L 115.491455 35.139151 
L 116.934545 34.621909 
L 118.377636 34.142386 
L 119.820727 33.70483 
L 121.263818 33.313767 
L 122.706909 32.974369 
L 124.15 32.692876 
L 125.593091 32.476979 
L 127.036182 32.336136 
L 128.479273 32.281818 
L 129.922364 32.327724 
L 131.365455 32.489989 
L 132.808545 32.787388 
L 134.251636 33.241478 
L 135.694727 33.876606 
L 137.137818 34.7197 
L 138.580909 35.79977 
L 140.024 37.146989 
L 141.467091 38.791236 
L 142.910182 40.75999 
L 144.353273 43.075472 
L 145.796364 45.750989 
L 147.239455 48.786724 
L 148.682545 52.165687 
L 150.125636 55.850877 
L 151.568727 59.784725 
L 153.011818 63.891409 
L 154.454909 68.081916 
L 155.898 72.261125 
L 157.341091 76.336079 
L 158.784182 80.224033 
L 160.227273 83.858186 
L 161.670364 87.189523 
L 163.113455 90.1853 
L 164.556545 92.826118 
L 165.999636 95.103245 
L 167.442727 97.016818 
L 168.885818 98.574692 
L 170.328909 99.791248 
L 171.772 100.685785 
L 173.215091 101.281029 
L 174.658182 101.602264 
L 176.101273 101.676942 
L 177.544364 101.534484 
L 178.987455 101.206131 
L 180.430545 100.724532 
L 181.873636 100.122613 
L 183.316727 99.431952 
L 184.759818 98.681532 
L 186.202909 97.897443 
L 187.646 97.103441 
L 189.089091 96.321845 
L 190.532182 95.574389 
L 191.975273 94.882893 
L 193.418364 94.269887 
L 194.861455 93.759263 
L 196.304545 93.37689 
" style="fill:none;opacity:0.45;stroke:#001c7f;stroke-dasharray:2.775,1.2;stroke-dashoffset:0;stroke-width:0.75;"/>
   </g>
   <g id="line2d_12">
    <path clip-path="url(#pddfafd15ad)" d="M 51.995455 92.495126 
L 53.438545 92.175649 
L 54.881636 91.932247 
L 56.324727 91.763454 
L 57.767818 91.666767 
L 59.210909 91.63899 
L 60.654 91.676585 
L 62.097091 91.775982 
L 63.540182 91.9338 
L 64.983273 92.146946 
L 66.426364 92.412597 
L 67.869455 92.728094 
L 69.312545 93.090779 
L 70.755636 93.497846 
L 72.198727 93.946259 
L 73.641818 94.432749 
L 75.084909 94.953884 
L 76.528 95.506173 
L 77.971091 96.086152 
L 79.414182 96.690442 
L 80.857273 97.315773 
L 82.300364 97.959004 
L 83.743455 98.617163 
L 85.186545 99.28749 
L 86.629636 99.967481 
L 88.072727 100.654905 
L 89.515818 101.347825 
L 90.958909 102.044653 
L 92.402 102.74425 
L 93.845091 103.445958 
L 95.288182 104.149398 
L 96.731273 104.854042 
L 98.174364 105.558909 
L 99.617455 106.262712 
L 101.060545 106.964205 
L 102.503636 107.662322 
L 103.946727 108.356067 
L 105.389818 109.044362 
L 106.832909 109.725961 
L 108.276 110.399397 
L 109.719091 111.06291 
L 111.162182 111.714431 
L 112.605273 112.351652 
L 114.048364 112.972229 
L 115.491455 113.574052 
L 116.934545 114.155533 
L 118.377636 114.715818 
L 119.820727 115.254876 
L 121.263818 115.773452 
L 122.706909 116.272952 
L 124.15 116.755329 
L 125.593091 117.223065 
L 127.036182 117.679286 
L 128.479273 118.128021 
L 129.922364 118.574555 
L 131.365455 119.025821 
L 132.808545 119.490824 
L 134.251636 119.981058 
L 135.694727 120.510893 
L 137.137818 121.097837 
L 138.580909 121.76255 
L 140.024 122.528396 
L 141.467091 123.420361 
L 142.910182 124.463101 
L 144.353273 125.678089 
L 145.796364 127.080018 
L 147.239455 128.672906 
L 148.682545 130.446473 
L 150.125636 132.37362 
L 151.568727 134.409981 
L 153.011818 136.496447 
L 154.454909 138.565007 
L 155.898 140.547027 
L 157.341091 142.381783 
L 158.784182 144.023095 
L 160.227273 145.443351 
L 161.670364 146.635264 
L 163.113455 147.611379 
L 164.556545 148.401009 
L 165.999636 149.045042 
L 167.442727 149.58974 
L 168.885818 150.080935 
L 170.328909 150.559875 
L 171.772 151.061142 
L 173.215091 151.611911 
L 174.658182 152.231724 
L 176.101273 152.932597 
L 177.544364 153.719459 
L 178.987455 154.590861 
L 180.430545 155.540121 
L 181.873636 156.55726 
L 183.316727 157.631458 
L 184.759818 158.75314 
L 186.202909 159.915087 
L 187.646 161.112702 
L 189.089091 162.343932 
L 190.532182 163.609247 
L 191.975273 164.911802 
L 193.418364 166.257629 
L 194.861455 167.655749 
L 196.304545 169.118182 
" style="fill:none;opacity:0.45;stroke:#001c7f;stroke-dasharray:2.775,1.2;stroke-dashoffset:0;stroke-width:0.75;"/>
   </g>
   <g id="patch_3">
    <path d="M 44.78 175.96 
L 44.78 25.44 
" style="fill:none;stroke:#262626;stroke-linecap:square;stroke-linejoin:miter;stroke-width:0.8;"/>
   </g>
   <g id="patch_4">
    <path d="M 44.78 175.96 
L 203.52 175.96 
" style="fill:none;stroke:#262626;stroke-linecap:square;stroke-linejoin:miter;stroke-width:0.8;"/>
   </g>
   <g id="text_11">
    <!-- Epik-micro SM01 -->
    <defs>
     <path d="M 7.90625 0 
L 7.90625 71.578125 
L 59.671875 71.578125 
L 59.671875 63.140625 
L 17.390625 63.140625 
L 17.390625 41.21875 
L 56.984375 41.21875 
L 56.984375 32.8125 
L 17.390625 32.8125 
L 17.390625 8.453125 
L 61.328125 8.453125 
L 61.328125 0 
z
" id="ArialMT-45"/>
     <path d="M 6.640625 61.46875 
L 6.640625 71.578125 
L 15.4375 71.578125 
L 15.4375 61.46875 
z
M 6.640625 0 
L 6.640625 51.859375 
L 15.4375 51.859375 
L 15.4375 0 
z
" id="ArialMT-69"/>
     <path d="M 6.640625 0 
L 6.640625 71.578125 
L 15.4375 71.578125 
L 15.4375 30.765625 
L 36.234375 51.859375 
L 47.609375 51.859375 
L 27.78125 32.625 
L 49.609375 0 
L 38.765625 0 
L 21.625 26.515625 
L 15.4375 20.5625 
L 15.4375 0 
z
" id="ArialMT-6b"/>
     <path d="M 3.171875 21.484375 
L 3.171875 30.328125 
L 30.171875 30.328125 
L 30.171875 21.484375 
z
" id="ArialMT-2d"/>
     <path d="M 6.59375 0 
L 6.59375 51.859375 
L 14.453125 51.859375 
L 14.453125 44.578125 
Q 16.890625 48.390625 20.9375 50.703125 
Q 25 53.03125 30.171875 53.03125 
Q 35.9375 53.03125 39.625 50.640625 
Q 43.3125 48.25 44.828125 43.953125 
Q 50.984375 53.03125 60.84375 53.03125 
Q 68.5625 53.03125 72.703125 48.75 
Q 76.859375 44.484375 76.859375 35.59375 
L 76.859375 0 
L 68.109375 0 
L 68.109375 32.671875 
Q 68.109375 37.9375 67.25 40.25 
Q 66.40625 42.578125 64.15625 43.984375 
Q 61.921875 45.40625 58.890625 45.40625 
Q 53.421875 45.40625 49.796875 41.765625 
Q 46.1875 38.140625 46.1875 30.125 
L 46.1875 0 
L 37.40625 0 
L 37.40625 33.6875 
Q 37.40625 39.546875 35.25 42.46875 
Q 33.109375 45.40625 28.21875 45.40625 
Q 24.515625 45.40625 21.359375 43.453125 
Q 18.21875 41.5 16.796875 37.734375 
Q 15.375 33.984375 15.375 26.90625 
L 15.375 0 
z
" id="ArialMT-6d"/>
     <path d="M 40.4375 19 
L 49.078125 17.875 
Q 47.65625 8.9375 41.8125 3.875 
Q 35.984375 -1.171875 27.484375 -1.171875 
Q 16.84375 -1.171875 10.375 5.78125 
Q 3.90625 12.75 3.90625 25.734375 
Q 3.90625 34.125 6.6875 40.421875 
Q 9.46875 46.734375 15.15625 49.875 
Q 20.84375 53.03125 27.546875 53.03125 
Q 35.984375 53.03125 41.359375 48.75 
Q 46.734375 44.484375 48.25 36.625 
L 39.703125 35.296875 
Q 38.484375 40.53125 35.375 43.15625 
Q 32.28125 45.796875 27.875 45.796875 
Q 21.234375 45.796875 17.078125 41.03125 
Q 12.9375 36.28125 12.9375 25.984375 
Q 12.9375 15.53125 16.9375 10.796875 
Q 20.953125 6.0625 27.390625 6.0625 
Q 32.5625 6.0625 36.03125 9.234375 
Q 39.5 12.40625 40.4375 19 
z
" id="ArialMT-63"/>
     <path d="M 6.5 0 
L 6.5 51.859375 
L 14.40625 51.859375 
L 14.40625 44 
Q 17.4375 49.515625 20 51.265625 
Q 22.5625 53.03125 25.640625 53.03125 
Q 30.078125 53.03125 34.671875 50.203125 
L 31.640625 42.046875 
Q 28.421875 43.953125 25.203125 43.953125 
Q 22.3125 43.953125 20.015625 42.21875 
Q 17.71875 40.484375 16.75 37.40625 
Q 15.28125 32.71875 15.28125 27.15625 
L 15.28125 0 
z
" id="ArialMT-72"/>
     <path d="M 3.328125 25.921875 
Q 3.328125 40.328125 11.328125 47.265625 
Q 18.015625 53.03125 27.640625 53.03125 
Q 38.328125 53.03125 45.109375 46.015625 
Q 51.90625 39.015625 51.90625 26.65625 
Q 51.90625 16.65625 48.90625 10.90625 
Q 45.90625 5.171875 40.15625 2 
Q 34.421875 -1.171875 27.640625 -1.171875 
Q 16.75 -1.171875 10.03125 5.8125 
Q 3.328125 12.796875 3.328125 25.921875 
z
M 12.359375 25.921875 
Q 12.359375 15.96875 16.703125 11.015625 
Q 21.046875 6.0625 27.640625 6.0625 
Q 34.1875 6.0625 38.53125 11.03125 
Q 42.875 16.015625 42.875 26.21875 
Q 42.875 35.84375 38.5 40.796875 
Q 34.125 45.75 27.640625 45.75 
Q 21.046875 45.75 16.703125 40.8125 
Q 12.359375 35.890625 12.359375 25.921875 
z
" id="ArialMT-6f"/>
     <path id="ArialMT-20"/>
     <path d="M 4.5 23 
L 13.421875 23.78125 
Q 14.0625 18.40625 16.375 14.96875 
Q 18.703125 11.53125 23.578125 9.40625 
Q 28.46875 7.28125 34.578125 7.28125 
Q 39.984375 7.28125 44.140625 8.890625 
Q 48.296875 10.5 50.3125 13.296875 
Q 52.34375 16.109375 52.34375 19.4375 
Q 52.34375 22.796875 50.390625 25.3125 
Q 48.4375 27.828125 43.953125 29.546875 
Q 41.0625 30.671875 31.203125 33.03125 
Q 21.34375 35.40625 17.390625 37.5 
Q 12.25 40.1875 9.734375 44.15625 
Q 7.234375 48.140625 7.234375 53.078125 
Q 7.234375 58.5 10.296875 63.203125 
Q 13.375 67.921875 19.28125 70.359375 
Q 25.203125 72.796875 32.421875 72.796875 
Q 40.375 72.796875 46.453125 70.234375 
Q 52.546875 67.671875 55.8125 62.6875 
Q 59.078125 57.71875 59.328125 51.421875 
L 50.25 50.734375 
Q 49.515625 57.515625 45.28125 60.984375 
Q 41.0625 64.453125 32.8125 64.453125 
Q 24.21875 64.453125 20.28125 61.296875 
Q 16.359375 58.15625 16.359375 53.71875 
Q 16.359375 49.859375 19.140625 47.359375 
Q 21.875 44.875 33.421875 42.265625 
Q 44.96875 39.65625 49.265625 37.703125 
Q 55.515625 34.8125 58.484375 30.390625 
Q 61.46875 25.984375 61.46875 20.21875 
Q 61.46875 14.5 58.203125 9.4375 
Q 54.9375 4.390625 48.796875 1.578125 
Q 42.671875 -1.21875 35.015625 -1.21875 
Q 25.296875 -1.21875 18.71875 1.609375 
Q 12.15625 4.4375 8.421875 10.125 
Q 4.6875 15.828125 4.5 23 
z
" id="ArialMT-53"/>
     <path d="M 7.421875 0 
L 7.421875 71.578125 
L 21.6875 71.578125 
L 38.625 20.90625 
Q 40.96875 13.8125 42.046875 10.296875 
Q 43.265625 14.203125 45.84375 21.78125 
L 62.984375 71.578125 
L 75.734375 71.578125 
L 75.734375 0 
L 66.609375 0 
L 66.609375 59.90625 
L 45.796875 0 
L 37.25 0 
L 16.546875 60.9375 
L 16.546875 0 
z
" id="ArialMT-4d"/>
    </defs>
    <g style="fill:#262626;" transform="translate(78.475 19.44)scale(0.12 -0.12)">
     <use xlink:href="#ArialMT-45"/>
     <use x="66.699219" xlink:href="#ArialMT-70"/>
     <use x="122.314453" xlink:href="#ArialMT-69"/>
     <use x="144.53125" xlink:href="#ArialMT-6b"/>
     <use x="194.53125" xlink:href="#ArialMT-2d"/>
     <use x="227.832031" xlink:href="#ArialMT-6d"/>
     <use x="311.132812" xlink:href="#ArialMT-69"/>
     <use x="333.349609" xlink:href="#ArialMT-63"/>
     <use x="383.349609" xlink:href="#ArialMT-72"/>
     <use x="416.650391" xlink:href="#ArialMT-6f"/>
     <use x="472.265625" xlink:href="#ArialMT-20"/>
     <use x="500.048828" xlink:href="#ArialMT-53"/>
     <use x="566.748047" xlink:href="#ArialMT-4d"/>
     <use x="650.048828" xlink:href="#ArialMT-30"/>
     <use x="705.664062" xlink:href="#ArialMT-31"/>
    </g>
   </g>
  </g>
 </g>
 <defs>
  <clipPath id="pddfafd15ad">
   <rect height="150.52" width="158.74" x="44.78" y="25.44"/>
  </clipPath>
 </defs>
</svg>
