<?xml version="1.0" encoding="utf-8" standalone="no"?>
<!DOCTYPE svg PUBLIC "-//W3C//DTD SVG 1.1//EN"
  "http://www.w3.org/Graphics/SVG/1.1/DTD/svg11.dtd">
<!-- Created with matplotlib (http://matplotlib.org/) -->
<svg height="144pt" version="1.1" viewBox="0 0 144 144" width="144pt" xmlns="http://www.w3.org/2000/svg" xmlns:xlink="http://www.w3.org/1999/xlink">
 <defs>
  <style type="text/css">
*{stroke-linecap:butt;stroke-linejoin:round;}
  </style>
 </defs>
 <g id="figure_1">
  <g id="patch_1">
   <path d="M 0 144 
L 144 144 
L 144 0 
L 0 0 
z
" style="fill:#ffffff;"/>
  </g>
  <g id="axes_1">
   <g id="patch_2">
    <path d="M 41.96 101.92 
L 130.44 101.92 
L 130.44 27.48 
L 41.96 27.48 
z
" style="fill:#ffffff;"/>
   </g>
   <g id="matplotlib.axis_1">
    <g id="xtick_1">
     <g id="line2d_1">
      <defs>
       <path d="M 0 0 
L 0 3.5 
" id="mee7fd9d077" style="stroke:#262626;stroke-width:0.8;"/>
      </defs>
      <g>
       <use style="fill:#262626;stroke:#262626;stroke-width:0.8;" x="45.981818" xlink:href="#mee7fd9d077" y="101.92"/>
      </g>
     </g>
     <g id="text_1">
      <!-- 2 -->
      <defs>
       <path d="M 50.34375 8.453125 
L 50.34375 0 
L 3.03125 0 
Q 2.9375 3.171875 4.046875 6.109375 
Q 5.859375 10.9375 9.828125 15.625 
Q 13.8125 20.3125 21.34375 26.46875 
Q 33.015625 36.03125 37.109375 41.625 
Q 41.21875 47.21875 41.21875 52.203125 
Q 41.21875 57.421875 37.46875 61 
Q 33.734375 64.59375 27.734375 64.59375 
Q 21.390625 64.59375 17.578125 60.78125 
Q 13.765625 56.984375 13.71875 50.25 
L 4.6875 51.171875 
Q 5.609375 61.28125 11.65625 66.578125 
Q 17.71875 71.875 27.9375 71.875 
Q 38.234375 71.875 44.234375 66.15625 
Q 50.25 60.453125 50.25 52 
Q 50.25 47.703125 48.484375 43.546875 
Q 46.734375 39.40625 42.65625 34.8125 
Q 38.578125 30.21875 29.109375 22.21875 
Q 21.1875 15.578125 18.9375 13.203125 
Q 16.703125 10.84375 15.234375 8.453125 
z
" id="ArialMT-32"/>
      </defs>
      <g style="fill:#262626;" transform="translate(42.923303 116.793594)scale(0.11 -0.11)">
       <use xlink:href="#ArialMT-32"/>
      </g>
     </g>
    </g>
    <g id="xtick_2">
     <g id="line2d_2">
      <g>
       <use style="fill:#262626;stroke:#262626;stroke-width:0.8;" x="62.069091" xlink:href="#mee7fd9d077" y="101.92"/>
      </g>
     </g>
     <g id="text_2">
      <!-- 4 -->
      <defs>
       <path d="M 32.328125 0 
L 32.328125 17.140625 
L 1.265625 17.140625 
L 1.265625 25.203125 
L 33.9375 71.578125 
L 41.109375 71.578125 
L 41.109375 25.203125 
L 50.78125 25.203125 
L 50.78125 17.140625 
L 41.109375 17.140625 
L 41.109375 0 
z
M 32.328125 25.203125 
L 32.328125 57.46875 
L 9.90625 25.203125 
z
" id="ArialMT-34"/>
      </defs>
      <g style="fill:#262626;" transform="translate(59.010575 116.793594)scale(0.11 -0.11)">
       <use xlink:href="#ArialMT-34"/>
      </g>
     </g>
    </g>
    <g id="xtick_3">
     <g id="line2d_3">
      <g>
       <use style="fill:#262626;stroke:#262626;stroke-width:0.8;" x="78.156364" xlink:href="#mee7fd9d077" y="101.92"/>
      </g>
     </g>
     <g id="text_3">
      <!-- 6 -->
      <defs>
       <path d="M 49.75 54.046875 
L 41.015625 53.375 
Q 39.84375 58.546875 37.703125 60.890625 
Q 34.125 64.65625 28.90625 64.65625 
Q 24.703125 64.65625 21.53125 62.3125 
Q 17.390625 59.28125 14.984375 53.46875 
Q 12.59375 47.65625 12.5 36.921875 
Q 15.671875 41.75 20.265625 44.09375 
Q 24.859375 46.4375 29.890625 46.4375 
Q 38.671875 46.4375 44.84375 39.96875 
Q 51.03125 33.5 51.03125 23.25 
Q 51.03125 16.5 48.125 10.71875 
Q 45.21875 4.9375 40.140625 1.859375 
Q 35.0625 -1.21875 28.609375 -1.21875 
Q 17.625 -1.21875 10.6875 6.859375 
Q 3.765625 14.9375 3.765625 33.5 
Q 3.765625 54.25 11.421875 63.671875 
Q 18.109375 71.875 29.4375 71.875 
Q 37.890625 71.875 43.28125 67.140625 
Q 48.6875 62.40625 49.75 54.046875 
z
M 13.875 23.1875 
Q 13.875 18.65625 15.796875 14.5 
Q 17.71875 10.359375 21.1875 8.171875 
Q 24.65625 6 28.46875 6 
Q 34.03125 6 38.03125 10.484375 
Q 42.046875 14.984375 42.046875 22.703125 
Q 42.046875 30.125 38.078125 34.390625 
Q 34.125 38.671875 28.125 38.671875 
Q 22.171875 38.671875 18.015625 34.390625 
Q 13.875 30.125 13.875 23.1875 
z
" id="ArialMT-36"/>
      </defs>
      <g style="fill:#262626;" transform="translate(75.097848 116.793594)scale(0.11 -0.11)">
       <use xlink:href="#ArialMT-36"/>
      </g>
     </g>
    </g>
    <g id="xtick_4">
     <g id="line2d_4">
      <g>
       <use style="fill:#262626;stroke:#262626;stroke-width:0.8;" x="94.243636" xlink:href="#mee7fd9d077" y="101.92"/>
      </g>
     </g>
     <g id="text_4">
      <!-- 8 -->
      <defs>
       <path d="M 17.671875 38.8125 
Q 12.203125 40.828125 9.5625 44.53125 
Q 6.9375 48.25 6.9375 53.421875 
Q 6.9375 61.234375 12.546875 66.546875 
Q 18.171875 71.875 27.484375 71.875 
Q 36.859375 71.875 42.578125 66.421875 
Q 48.296875 60.984375 48.296875 53.171875 
Q 48.296875 48.1875 45.671875 44.5 
Q 43.0625 40.828125 37.75 38.8125 
Q 44.34375 36.671875 47.78125 31.875 
Q 51.21875 27.09375 51.21875 20.453125 
Q 51.21875 11.28125 44.71875 5.03125 
Q 38.234375 -1.21875 27.640625 -1.21875 
Q 17.046875 -1.21875 10.546875 5.046875 
Q 4.046875 11.328125 4.046875 20.703125 
Q 4.046875 27.6875 7.59375 32.390625 
Q 11.140625 37.109375 17.671875 38.8125 
z
M 15.921875 53.71875 
Q 15.921875 48.640625 19.1875 45.40625 
Q 22.46875 42.1875 27.6875 42.1875 
Q 32.765625 42.1875 36.015625 45.375 
Q 39.265625 48.578125 39.265625 53.21875 
Q 39.265625 58.0625 35.90625 61.359375 
Q 32.5625 64.65625 27.59375 64.65625 
Q 22.5625 64.65625 19.234375 61.421875 
Q 15.921875 58.203125 15.921875 53.71875 
z
M 13.09375 20.65625 
Q 13.09375 16.890625 14.875 13.375 
Q 16.65625 9.859375 20.171875 7.921875 
Q 23.6875 6 27.734375 6 
Q 34.03125 6 38.125 10.046875 
Q 42.234375 14.109375 42.234375 20.359375 
Q 42.234375 26.703125 38.015625 30.859375 
Q 33.796875 35.015625 27.4375 35.015625 
Q 21.234375 35.015625 17.15625 30.90625 
Q 13.09375 26.8125 13.09375 20.65625 
z
" id="ArialMT-38"/>
      </defs>
      <g style="fill:#262626;" transform="translate(91.185121 116.793594)scale(0.11 -0.11)">
       <use xlink:href="#ArialMT-38"/>
      </g>
     </g>
    </g>
    <g id="xtick_5">
     <g id="line2d_5">
      <g>
       <use style="fill:#262626;stroke:#262626;stroke-width:0.8;" x="110.330909" xlink:href="#mee7fd9d077" y="101.92"/>
      </g>
     </g>
     <g id="text_5">
      <!-- 10 -->
      <defs>
       <path d="M 37.25 0 
L 28.46875 0 
L 28.46875 56 
Q 25.296875 52.984375 20.140625 49.953125 
Q 14.984375 46.921875 10.890625 45.40625 
L 10.890625 53.90625 
Q 18.265625 57.375 23.78125 62.296875 
Q 29.296875 67.234375 31.59375 71.875 
L 37.25 71.875 
z
" id="ArialMT-31"/>
       <path d="M 4.15625 35.296875 
Q 4.15625 48 6.765625 55.734375 
Q 9.375 63.484375 14.515625 67.671875 
Q 19.671875 71.875 27.484375 71.875 
Q 33.25 71.875 37.59375 69.546875 
Q 41.9375 67.234375 44.765625 62.859375 
Q 47.609375 58.5 49.21875 52.21875 
Q 50.828125 45.953125 50.828125 35.296875 
Q 50.828125 22.703125 48.234375 14.96875 
Q 45.65625 7.234375 40.5 3 
Q 35.359375 -1.21875 27.484375 -1.21875 
Q 17.140625 -1.21875 11.234375 6.203125 
Q 4.15625 15.140625 4.15625 35.296875 
z
M 13.1875 35.296875 
Q 13.1875 17.671875 17.3125 11.828125 
Q 21.4375 6 27.484375 6 
Q 33.546875 6 37.671875 11.859375 
Q 41.796875 17.71875 41.796875 35.296875 
Q 41.796875 52.984375 37.671875 58.78125 
Q 33.546875 64.59375 27.390625 64.59375 
Q 21.34375 64.59375 17.71875 59.46875 
Q 13.1875 52.9375 13.1875 35.296875 
z
" id="ArialMT-30"/>
      </defs>
      <g style="fill:#262626;" transform="translate(104.213878 116.793594)scale(0.11 -0.11)">
       <use xlink:href="#ArialMT-31"/>
       <use x="55.615234" xlink:href="#ArialMT-30"/>
      </g>
     </g>
    </g>
    <g id="xtick_6">
     <g id="line2d_6">
      <g>
       <use style="fill:#262626;stroke:#262626;stroke-width:0.8;" x="126.418182" xlink:href="#mee7fd9d077" y="101.92"/>
      </g>
     </g>
     <g id="text_6">
      <!-- 12 -->
      <g style="fill:#262626;" transform="translate(120.301151 116.793594)scale(0.11 -0.11)">
       <use xlink:href="#ArialMT-31"/>
       <use x="55.615234" xlink:href="#ArialMT-32"/>
      </g>
     </g>
    </g>
    <g id="text_7">
     <!-- pH -->
     <defs>
      <path d="M 6.59375 -19.875 
L 6.59375 51.859375 
L 14.59375 51.859375 
L 14.59375 45.125 
Q 17.4375 49.078125 21 51.046875 
Q 24.5625 53.03125 29.640625 53.03125 
Q 36.28125 53.03125 41.359375 49.609375 
Q 46.4375 46.1875 49.015625 39.953125 
Q 51.609375 33.734375 51.609375 26.3125 
Q 51.609375 18.359375 48.75 11.984375 
Q 45.90625 5.609375 40.453125 2.21875 
Q 35.015625 -1.171875 29 -1.171875 
Q 24.609375 -1.171875 21.109375 0.6875 
Q 17.625 2.546875 15.375 5.375 
L 15.375 -19.875 
z
M 14.546875 25.640625 
Q 14.546875 15.625 18.59375 10.84375 
Q 22.65625 6.0625 28.421875 6.0625 
Q 34.28125 6.0625 38.453125 11.015625 
Q 42.625 15.96875 42.625 26.375 
Q 42.625 36.28125 38.546875 41.203125 
Q 34.46875 46.140625 28.8125 46.140625 
Q 23.1875 46.140625 18.859375 40.890625 
Q 14.546875 35.640625 14.546875 25.640625 
z
" id="ArialMT-70"/>
      <path d="M 8.015625 0 
L 8.015625 71.578125 
L 17.484375 71.578125 
L 17.484375 42.1875 
L 54.6875 42.1875 
L 54.6875 71.578125 
L 64.15625 71.578125 
L 64.15625 0 
L 54.6875 0 
L 54.6875 33.734375 
L 17.484375 33.734375 
L 17.484375 0 
z
" id="ArialMT-48"/>
     </defs>
     <g style="fill:#262626;" transform="translate(79.169453 130.853437)scale(0.11 -0.11)">
      <use xlink:href="#ArialMT-70"/>
      <use x="55.615234" xlink:href="#ArialMT-48"/>
     </g>
    </g>
   </g>
   <g id="matplotlib.axis_2">
    <g id="ytick_1">
     <g id="line2d_7">
      <defs>
       <path d="M 0 0 
L -3.5 0 
" id="m2cd2b60fde" style="stroke:#262626;stroke-width:0.8;"/>
      </defs>
      <g>
       <use style="fill:#262626;stroke:#262626;stroke-width:0.8;" x="41.96" xlink:href="#m2cd2b60fde" y="97.42479"/>
      </g>
     </g>
     <g id="text_8">
      <!-- 0 -->
      <g style="fill:#262626;" transform="translate(28.842969 101.361587)scale(0.11 -0.11)">
       <use xlink:href="#ArialMT-30"/>
      </g>
     </g>
    </g>
    <g id="ytick_2">
     <g id="line2d_8">
      <g>
       <use style="fill:#262626;stroke:#262626;stroke-width:0.8;" x="41.96" xlink:href="#m2cd2b60fde" y="30.85728"/>
      </g>
     </g>
     <g id="text_9">
      <!-- 1 -->
      <g style="fill:#262626;" transform="translate(28.842969 34.794077)scale(0.11 -0.11)">
       <use xlink:href="#ArialMT-31"/>
      </g>
     </g>
    </g>
    <g id="text_10">
     <!-- $\langle q_\mathsf{total} \rangle$ -->
     <defs>
      <path d="M 8.9375 31.34375 
L 22.703125 75.875 
L 31 75.875 
L 17.234375 31.34375 
L 31 -13.1875 
L 22.703125 -13.1875 
z
" id="DejaVuSans-27e8"/>
      <path d="M 41.703125 8.203125 
Q 38.09375 3.46875 33.171875 1.015625 
Q 28.265625 -1.421875 22.3125 -1.421875 
Q 14.015625 -1.421875 9.296875 4.171875 
Q 4.59375 9.765625 4.59375 19.578125 
Q 4.59375 27.484375 7.5 34.859375 
Q 10.40625 42.234375 15.828125 48.09375 
Q 19.34375 51.90625 23.90625 53.953125 
Q 28.46875 56 33.5 56 
Q 39.546875 56 43.453125 53.609375 
Q 47.359375 51.21875 49.125 46.390625 
L 50.6875 54.59375 
L 59.71875 54.59375 
L 45.125 -20.609375 
L 36.078125 -20.609375 
z
M 13.921875 20.90625 
Q 13.921875 13.671875 16.9375 9.890625 
Q 19.96875 6.109375 25.6875 6.109375 
Q 34.1875 6.109375 40.1875 14.234375 
Q 46.1875 22.359375 46.1875 33.984375 
Q 46.1875 41.015625 43.078125 44.75 
Q 39.984375 48.484375 34.1875 48.484375 
Q 29.9375 48.484375 26.3125 46.5 
Q 22.703125 44.53125 20.015625 40.71875 
Q 17.1875 36.71875 15.546875 31.34375 
Q 13.921875 25.984375 13.921875 20.90625 
z
" id="DejaVuSans-Oblique-71"/>
      <path d="M 18.3125 70.21875 
L 18.3125 54.6875 
L 36.8125 54.6875 
L 36.8125 47.703125 
L 18.3125 47.703125 
L 18.3125 18.015625 
Q 18.3125 11.328125 20.140625 9.421875 
Q 21.96875 7.515625 27.59375 7.515625 
L 36.8125 7.515625 
L 36.8125 0 
L 27.59375 0 
Q 17.1875 0 13.234375 3.875 
Q 9.28125 7.765625 9.28125 18.015625 
L 9.28125 47.703125 
L 2.6875 47.703125 
L 2.6875 54.6875 
L 9.28125 54.6875 
L 9.28125 70.21875 
z
" id="DejaVuSans-74"/>
      <path d="M 30.609375 48.390625 
Q 23.390625 48.390625 19.1875 42.75 
Q 14.984375 37.109375 14.984375 27.296875 
Q 14.984375 17.484375 19.15625 11.84375 
Q 23.34375 6.203125 30.609375 6.203125 
Q 37.796875 6.203125 41.984375 11.859375 
Q 46.1875 17.53125 46.1875 27.296875 
Q 46.1875 37.015625 41.984375 42.703125 
Q 37.796875 48.390625 30.609375 48.390625 
z
M 30.609375 56 
Q 42.328125 56 49.015625 48.375 
Q 55.71875 40.765625 55.71875 27.296875 
Q 55.71875 13.875 49.015625 6.21875 
Q 42.328125 -1.421875 30.609375 -1.421875 
Q 18.84375 -1.421875 12.171875 6.21875 
Q 5.515625 13.875 5.515625 27.296875 
Q 5.515625 40.765625 12.171875 48.375 
Q 18.84375 56 30.609375 56 
z
" id="DejaVuSans-6f"/>
      <path d="M 34.28125 27.484375 
Q 23.390625 27.484375 19.1875 25 
Q 14.984375 22.515625 14.984375 16.5 
Q 14.984375 11.71875 18.140625 8.90625 
Q 21.296875 6.109375 26.703125 6.109375 
Q 34.1875 6.109375 38.703125 11.40625 
Q 43.21875 16.703125 43.21875 25.484375 
L 43.21875 27.484375 
z
M 52.203125 31.203125 
L 52.203125 0 
L 43.21875 0 
L 43.21875 8.296875 
Q 40.140625 3.328125 35.546875 0.953125 
Q 30.953125 -1.421875 24.3125 -1.421875 
Q 15.921875 -1.421875 10.953125 3.296875 
Q 6 8.015625 6 15.921875 
Q 6 25.140625 12.171875 29.828125 
Q 18.359375 34.515625 30.609375 34.515625 
L 43.21875 34.515625 
L 43.21875 35.40625 
Q 43.21875 41.609375 39.140625 45 
Q 35.0625 48.390625 27.6875 48.390625 
Q 23 48.390625 18.546875 47.265625 
Q 14.109375 46.140625 10.015625 43.890625 
L 10.015625 52.203125 
Q 14.9375 54.109375 19.578125 55.046875 
Q 24.21875 56 28.609375 56 
Q 40.484375 56 46.34375 49.84375 
Q 52.203125 43.703125 52.203125 31.203125 
z
" id="DejaVuSans-61"/>
      <path d="M 9.421875 75.984375 
L 18.40625 75.984375 
L 18.40625 0 
L 9.421875 0 
z
" id="DejaVuSans-6c"/>
      <path d="M 30.078125 31.34375 
L 16.3125 -13.1875 
L 8.015625 -13.1875 
L 21.78125 31.34375 
L 8.015625 75.875 
L 16.3125 75.875 
z
" id="DejaVuSans-27e9"/>
     </defs>
     <g style="fill:#262626;" transform="translate(22.532969 81.475)rotate(-90)scale(0.11 -0.11)">
      <use transform="translate(0 0.125)" xlink:href="#DejaVuSans-27e8"/>
      <use transform="translate(39.013672 0.125)" xlink:href="#DejaVuSans-Oblique-71"/>
      <use transform="translate(102.490234 -16.28125)scale(0.7)" xlink:href="#DejaVuSans-74"/>
      <use transform="translate(129.936523 -16.28125)scale(0.7)" xlink:href="#DejaVuSans-6f"/>
      <use transform="translate(172.763672 -16.28125)scale(0.7)" xlink:href="#DejaVuSans-74"/>
      <use transform="translate(200.209961 -16.28125)scale(0.7)" xlink:href="#DejaVuSans-61"/>
      <use transform="translate(243.105469 -16.28125)scale(0.7)" xlink:href="#DejaVuSans-6c"/>
      <use transform="translate(265.288086 0.125)" xlink:href="#DejaVuSans-27e9"/>
     </g>
    </g>
   </g>
   <g id="PolyCollection_1">
    <defs>
     <path d="M 45.981818 -113.136364 
L 45.981818 -113.136364 
L 46.786182 -113.134718 
L 47.590545 -113.132646 
L 48.394909 -113.130038 
L 49.199273 -113.126756 
L 50.003636 -113.122623 
L 50.808 -113.117422 
L 51.612364 -113.110874 
L 52.416727 -113.102633 
L 53.221091 -113.092262 
L 54.025455 -113.079209 
L 54.829818 -113.062785 
L 55.634182 -113.042118 
L 56.438545 -113.01612 
L 57.242909 -112.983418 
L 58.047273 -112.942295 
L 58.851636 -112.890596 
L 59.656 -112.825626 
L 60.460364 -112.744014 
L 61.264727 -112.641556 
L 62.069091 -112.513019 
L 62.873455 -112.35191 
L 63.677818 -112.150203 
L 64.482182 -111.89802 
L 65.286545 -111.583285 
L 66.090909 -111.191344 
L 66.895273 -110.704589 
L 67.699636 -110.102131 
L 68.504 -109.359587 
L 69.308364 -108.449105 
L 70.112727 -107.339752 
L 70.917091 -105.998473 
L 71.721455 -104.391822 
L 72.525818 -102.488636 
L 73.330182 -100.263739 
L 74.134545 -97.70252 
L 74.938909 -94.805917 
L 75.743273 -91.594928 
L 76.547636 -88.113453 
L 77.352 -84.428252 
L 78.156364 -80.625217 
L 78.960727 -76.802057 
L 79.765091 -73.058555 
L 80.569455 -69.486382 
L 81.373818 -66.160612 
L 82.178182 -63.134491 
L 82.982545 -60.437972 
L 83.786909 -58.079539 
L 84.591273 -56.050209 
L 85.395636 -54.328442 
L 86.2 -52.884971 
L 87.004364 -51.686884 
L 87.808727 -50.700713 
L 88.613091 -49.894523 
L 89.417455 -49.239154 
L 90.221818 -48.708817 
L 91.026182 -48.281241 
L 91.830545 -47.937539 
L 92.634909 -47.661921 
L 93.439273 -47.441323 
L 94.243636 -47.265034 
L 95.048 -47.124327 
L 95.852364 -47.012131 
L 96.656727 -46.922738 
L 97.461091 -46.851558 
L 98.265455 -46.794908 
L 99.069818 -46.749841 
L 99.874182 -46.713999 
L 100.678545 -46.685502 
L 101.482909 -46.662848 
L 102.287273 -46.644842 
L 103.091636 -46.630533 
L 103.896 -46.619162 
L 104.700364 -46.610127 
L 105.504727 -46.602949 
L 106.309091 -46.597245 
L 107.113455 -46.592715 
L 107.917818 -46.589115 
L 108.722182 -46.586256 
L 109.526545 -46.583984 
L 110.330909 -46.58218 
L 111.135273 -46.580747 
L 111.939636 -46.579608 
L 112.744 -46.578703 
L 113.548364 -46.577985 
L 114.352727 -46.577414 
L 115.157091 -46.576961 
L 115.961455 -46.576601 
L 116.765818 -46.576315 
L 117.570182 -46.576088 
L 118.374545 -46.575907 
L 119.178909 -46.575764 
L 119.983273 -46.57565 
L 120.787636 -46.57556 
L 121.592 -46.575488 
L 122.396364 -46.575431 
L 123.200727 -46.575385 
L 124.005091 -46.575349 
L 124.809455 -46.575321 
L 125.613818 -46.575298 
L 126.418182 -46.57528 
L 126.418182 -46.57528 
L 126.418182 -45.463636 
L 125.613818 -45.689225 
L 124.809455 -45.869531 
L 124.005091 -46.013464 
L 123.200727 -46.128249 
L 122.396364 -46.219716 
L 121.592 -46.29256 
L 120.787636 -46.350547 
L 119.983273 -46.396693 
L 119.178909 -46.433409 
L 118.374545 -46.462624 
L 117.570182 -46.485874 
L 116.765818 -46.504386 
L 115.961455 -46.519139 
L 115.157091 -46.530914 
L 114.352727 -46.540334 
L 113.548364 -46.547901 
L 112.744 -46.554015 
L 111.939636 -46.559002 
L 111.135273 -46.563126 
L 110.330909 -46.566608 
L 109.526545 -46.569631 
L 108.722182 -46.572358 
L 107.917818 -46.574933 
L 107.113455 -46.577493 
L 106.309091 -46.580174 
L 105.504727 -46.58312 
L 104.700364 -46.586487 
L 103.896 -46.590454 
L 103.091636 -46.595232 
L 102.287273 -46.601075 
L 101.482909 -46.608293 
L 100.678545 -46.617271 
L 99.874182 -46.628484 
L 99.069818 -46.642527 
L 98.265455 -46.660143 
L 97.461091 -46.682265 
L 96.656727 -46.71006 
L 95.852364 -46.744991 
L 95.048 -46.788894 
L 94.243636 -46.844064 
L 93.439273 -46.913376 
L 92.634909 -47.000418 
L 91.830545 -47.109664 
L 91.026182 -47.246678 
L 90.221818 -47.418357 
L 89.417455 -47.633216 
L 88.613091 -47.901714 
L 87.808727 -48.236618 
L 87.004364 -48.653377 
L 86.2 -49.170495 
L 85.395636 -49.809832 
L 84.591273 -50.596764 
L 83.786909 -51.560074 
L 82.982545 -52.731419 
L 82.178182 -54.144176 
L 81.373818 -55.831464 
L 80.569455 -57.823176 
L 79.765091 -60.142002 
L 78.960727 -62.798673 
L 78.156364 -65.787002 
L 77.352 -69.079719 
L 76.547636 -72.626323 
L 75.743273 -76.354118 
L 74.938909 -80.173001 
L 74.134545 -83.983634 
L 73.330182 -87.687525 
L 72.525818 -91.196945 
L 71.721455 -94.442606 
L 70.917091 -97.377842 
L 70.112727 -99.979053 
L 69.308364 -102.243148 
L 68.504 -104.183162 
L 67.699636 -105.823275 
L 66.895273 -107.194156 
L 66.090909 -108.329143 
L 65.286545 -109.261441 
L 64.482182 -110.022298 
L 63.677818 -110.63996 
L 62.873455 -111.139226 
L 62.069091 -111.54139 
L 61.264727 -111.864432 
L 60.460364 -112.123336 
L 59.656 -112.330465 
L 58.851636 -112.495935 
L 58.047273 -112.627978 
L 57.242909 -112.733252 
L 56.438545 -112.817128 
L 55.634182 -112.883924 
L 54.829818 -112.937101 
L 54.025455 -112.979431 
L 53.221091 -113.013132 
L 52.416727 -113.039972 
L 51.612364 -113.061367 
L 50.808 -113.078446 
L 50.003636 -113.092112 
L 49.199273 -113.10309 
L 48.394909 -113.111962 
L 47.590545 -113.119198 
L 46.786182 -113.125183 
L 45.981818 -113.130235 
z
" id="m0151f01fba" style="stroke:#ffffff;stroke-opacity:0.7;"/>
    </defs>
    <g clip-path="url(#p15b79737a0)">
     <use style="fill:#b1400d;fill-opacity:0.7;stroke:#ffffff;stroke-opacity:0.7;" x="0" xlink:href="#m0151f01fba" y="144"/>
    </g>
   </g>
   <g id="line2d_9">
    <path clip-path="url(#p15b79737a0)" d="M 45.981818 30.863636 
L 46.786182 30.865282 
L 47.590545 30.867354 
L 48.394909 30.869962 
L 49.199273 30.873244 
L 50.003636 30.877377 
L 50.808 30.882578 
L 51.612364 30.889126 
L 52.416727 30.897367 
L 53.221091 30.907738 
L 54.025455 30.920791 
L 54.829818 30.937215 
L 55.634182 30.957882 
L 56.438545 30.98388 
L 57.242909 31.016582 
L 58.047273 31.057705 
L 58.851636 31.109404 
L 59.656 31.174374 
L 60.460364 31.255986 
L 61.264727 31.358444 
L 62.069091 31.486981 
L 62.873455 31.64809 
L 63.677818 31.849797 
L 64.482182 32.10198 
L 65.286545 32.416715 
L 66.090909 32.808656 
L 66.895273 33.295411 
L 67.699636 33.897869 
L 68.504 34.640413 
L 69.308364 35.550895 
L 70.112727 36.660248 
L 70.917091 38.001527 
L 71.721455 39.608178 
L 72.525818 41.511364 
L 73.330182 43.736261 
L 74.134545 46.29748 
L 74.938909 49.194083 
L 75.743273 52.405072 
L 76.547636 55.886547 
L 77.352 59.571748 
L 78.156364 63.374783 
L 78.960727 67.197943 
L 79.765091 70.941445 
L 80.569455 74.513618 
L 81.373818 77.839388 
L 82.178182 80.865509 
L 82.982545 83.562028 
L 83.786909 85.920461 
L 84.591273 87.949791 
L 85.395636 89.671558 
L 86.2 91.115029 
L 87.004364 92.313116 
L 87.808727 93.299287 
L 88.613091 94.105477 
L 89.417455 94.760846 
L 90.221818 95.291183 
L 91.026182 95.718759 
L 91.830545 96.062461 
L 92.634909 96.338079 
L 93.439273 96.558677 
L 94.243636 96.734966 
L 95.048 96.875673 
L 95.852364 96.987869 
L 96.656727 97.077262 
L 97.461091 97.148442 
L 98.265455 97.205092 
L 99.069818 97.250159 
L 99.874182 97.286001 
L 100.678545 97.314498 
L 101.482909 97.337152 
L 102.287273 97.355158 
L 103.091636 97.369467 
L 103.896 97.380838 
L 104.700364 97.389873 
L 105.504727 97.397051 
L 106.309091 97.402755 
L 107.113455 97.407285 
L 107.917818 97.410885 
L 108.722182 97.413744 
L 109.526545 97.416016 
L 110.330909 97.41782 
L 111.135273 97.419253 
L 111.939636 97.420392 
L 112.744 97.421297 
L 113.548364 97.422015 
L 114.352727 97.422586 
L 115.157091 97.423039 
L 115.961455 97.423399 
L 116.765818 97.423685 
L 117.570182 97.423912 
L 118.374545 97.424093 
L 119.178909 97.424236 
L 119.983273 97.42435 
L 120.787636 97.42444 
L 121.592 97.424512 
L 122.396364 97.424569 
L 123.200727 97.424615 
L 124.005091 97.424651 
L 124.809455 97.424679 
L 125.613818 97.424702 
L 126.418182 97.42472 
" style="fill:none;stroke:#333333;stroke-dasharray:1.5,2.475;stroke-dashoffset:0;stroke-width:1.5;"/>
   </g>
   <g id="line2d_10">
    <path clip-path="url(#p15b79737a0)" d="M 45.981818 30.869765 
L 46.786182 30.874817 
L 47.590545 30.880802 
L 48.394909 30.888038 
L 49.199273 30.89691 
L 50.003636 30.907888 
L 50.808 30.921554 
L 51.612364 30.938633 
L 52.416727 30.960028 
L 53.221091 30.986868 
L 54.025455 31.020569 
L 54.829818 31.062899 
L 55.634182 31.116076 
L 56.438545 31.182872 
L 57.242909 31.266748 
L 58.047273 31.372022 
L 58.851636 31.504065 
L 59.656 31.669535 
L 60.460364 31.876664 
L 61.264727 32.135568 
L 62.069091 32.45861 
L 62.873455 32.860774 
L 63.677818 33.36004 
L 64.482182 33.977702 
L 65.286545 34.738559 
L 66.090909 35.670857 
L 66.895273 36.805844 
L 67.699636 38.176725 
L 68.504 39.816838 
L 69.308364 41.756852 
L 70.112727 44.020947 
L 70.917091 46.622158 
L 71.721455 49.557394 
L 72.525818 52.803055 
L 73.330182 56.312475 
L 74.134545 60.016366 
L 74.938909 63.826999 
L 75.743273 67.645882 
L 76.547636 71.373677 
L 77.352 74.920281 
L 78.156364 78.212998 
L 78.960727 81.201327 
L 79.765091 83.857998 
L 80.569455 86.176824 
L 81.373818 88.168536 
L 82.178182 89.855824 
L 82.982545 91.268581 
L 83.786909 92.439926 
L 84.591273 93.403236 
L 85.395636 94.190168 
L 86.2 94.829505 
L 87.004364 95.346623 
L 87.808727 95.763382 
L 88.613091 96.098286 
L 89.417455 96.366784 
L 90.221818 96.581643 
L 91.026182 96.753322 
L 91.830545 96.890336 
L 92.634909 96.999582 
L 93.439273 97.086624 
L 94.243636 97.155936 
L 95.048 97.211106 
L 95.852364 97.255009 
L 96.656727 97.28994 
L 97.461091 97.317735 
L 98.265455 97.339857 
L 99.069818 97.357473 
L 99.874182 97.371516 
L 100.678545 97.382729 
L 101.482909 97.391707 
L 102.287273 97.398925 
L 103.091636 97.404768 
L 103.896 97.409546 
L 104.700364 97.413513 
L 105.504727 97.41688 
L 106.309091 97.419826 
L 107.113455 97.422507 
L 107.917818 97.425067 
L 108.722182 97.427642 
L 109.526545 97.430369 
L 110.330909 97.433392 
L 111.135273 97.436874 
L 111.939636 97.440998 
L 112.744 97.445985 
L 113.548364 97.452099 
L 114.352727 97.459666 
L 115.157091 97.469086 
L 115.961455 97.480861 
L 116.765818 97.495614 
L 117.570182 97.514126 
L 118.374545 97.537376 
L 119.178909 97.566591 
L 119.983273 97.603307 
L 120.787636 97.649453 
L 121.592 97.70744 
L 122.396364 97.780284 
L 123.200727 97.871751 
L 124.005091 97.986536 
L 124.809455 98.130469 
L 125.613818 98.310775 
L 126.418182 98.536364 
" style="fill:none;stroke:#333333;stroke-linecap:round;stroke-width:1.5;"/>
   </g>
   <g id="patch_3">
    <path d="M 41.96 101.92 
L 41.96 27.48 
" style="fill:none;stroke:#262626;stroke-linecap:square;stroke-linejoin:miter;stroke-width:0.8;"/>
   </g>
   <g id="patch_4">
    <path d="M 41.96 101.92 
L 130.44 101.92 
" style="fill:none;stroke:#262626;stroke-linecap:square;stroke-linejoin:miter;stroke-width:0.8;"/>
   </g>
   <g id="text_11">
    <!-- $\Delta$ area : 0.42 -->
    <defs>
     <path d="M 34.1875 63.1875 
L 14.15625 8.203125 
L 54.25 8.203125 
z
M 0.78125 0 
L 28.609375 72.90625 
L 39.796875 72.90625 
L 67.578125 0 
z
" id="DejaVuSans-394"/>
     <path id="ArialMT-20"/>
     <path d="M 40.4375 6.390625 
Q 35.546875 2.25 31.03125 0.53125 
Q 26.515625 -1.171875 21.34375 -1.171875 
Q 12.796875 -1.171875 8.203125 3 
Q 3.609375 7.171875 3.609375 13.671875 
Q 3.609375 17.484375 5.34375 20.625 
Q 7.078125 23.78125 9.890625 25.6875 
Q 12.703125 27.59375 16.21875 28.5625 
Q 18.796875 29.25 24.03125 29.890625 
Q 34.671875 31.15625 39.703125 32.90625 
Q 39.75 34.71875 39.75 35.203125 
Q 39.75 40.578125 37.25 42.78125 
Q 33.890625 45.75 27.25 45.75 
Q 21.046875 45.75 18.09375 43.578125 
Q 15.140625 41.40625 13.71875 35.890625 
L 5.125 37.0625 
Q 6.296875 42.578125 8.984375 45.96875 
Q 11.671875 49.359375 16.75 51.1875 
Q 21.828125 53.03125 28.515625 53.03125 
Q 35.15625 53.03125 39.296875 51.46875 
Q 43.453125 49.90625 45.40625 47.53125 
Q 47.359375 45.171875 48.140625 41.546875 
Q 48.578125 39.3125 48.578125 33.453125 
L 48.578125 21.734375 
Q 48.578125 9.46875 49.140625 6.21875 
Q 49.703125 2.984375 51.375 0 
L 42.1875 0 
Q 40.828125 2.734375 40.4375 6.390625 
z
M 39.703125 26.03125 
Q 34.90625 24.078125 25.34375 22.703125 
Q 19.921875 21.921875 17.671875 20.9375 
Q 15.4375 19.96875 14.203125 18.09375 
Q 12.984375 16.21875 12.984375 13.921875 
Q 12.984375 10.40625 15.640625 8.0625 
Q 18.3125 5.71875 23.4375 5.71875 
Q 28.515625 5.71875 32.46875 7.9375 
Q 36.421875 10.15625 38.28125 14.015625 
Q 39.703125 17 39.703125 22.796875 
z
" id="ArialMT-61"/>
     <path d="M 6.5 0 
L 6.5 51.859375 
L 14.40625 51.859375 
L 14.40625 44 
Q 17.4375 49.515625 20 51.265625 
Q 22.5625 53.03125 25.640625 53.03125 
Q 30.078125 53.03125 34.671875 50.203125 
L 31.640625 42.046875 
Q 28.421875 43.953125 25.203125 43.953125 
Q 22.3125 43.953125 20.015625 42.21875 
Q 17.71875 40.484375 16.75 37.40625 
Q 15.28125 32.71875 15.28125 27.15625 
L 15.28125 0 
z
" id="ArialMT-72"/>
     <path d="M 42.09375 16.703125 
L 51.171875 15.578125 
Q 49.03125 7.625 43.21875 3.21875 
Q 37.40625 -1.171875 28.375 -1.171875 
Q 17 -1.171875 10.328125 5.828125 
Q 3.65625 12.84375 3.65625 25.484375 
Q 3.65625 38.578125 10.390625 45.796875 
Q 17.140625 53.03125 27.875 53.03125 
Q 38.28125 53.03125 44.875 45.953125 
Q 51.46875 38.875 51.46875 26.03125 
Q 51.46875 25.25 51.421875 23.6875 
L 12.75 23.6875 
Q 13.234375 15.140625 17.578125 10.59375 
Q 21.921875 6.0625 28.421875 6.0625 
Q 33.25 6.0625 36.671875 8.59375 
Q 40.09375 11.140625 42.09375 16.703125 
z
M 13.234375 30.90625 
L 42.1875 30.90625 
Q 41.609375 37.453125 38.875 40.71875 
Q 34.671875 45.796875 27.984375 45.796875 
Q 21.921875 45.796875 17.796875 41.75 
Q 13.671875 37.703125 13.234375 30.90625 
z
" id="ArialMT-65"/>
     <path d="M 9.03125 41.84375 
L 9.03125 51.859375 
L 19.046875 51.859375 
L 19.046875 41.84375 
z
M 9.03125 0 
L 9.03125 10.015625 
L 19.046875 10.015625 
L 19.046875 0 
z
" id="ArialMT-3a"/>
     <path d="M 9.078125 0 
L 9.078125 10.015625 
L 19.09375 10.015625 
L 19.09375 0 
z
" id="ArialMT-2e"/>
    </defs>
    <g style="fill:#262626;" transform="translate(48.25 21.48)scale(0.132 -0.132)">
     <use transform="translate(0 0.09375)" xlink:href="#DejaVuSans-394"/>
     <use transform="translate(68.408203 0.09375)" xlink:href="#ArialMT-20"/>
     <use transform="translate(96.191406 0.09375)" xlink:href="#ArialMT-61"/>
     <use transform="translate(151.806641 0.09375)" xlink:href="#ArialMT-72"/>
     <use transform="translate(185.107422 0.09375)" xlink:href="#ArialMT-65"/>
     <use transform="translate(240.722656 0.09375)" xlink:href="#ArialMT-61"/>
     <use transform="translate(296.337891 0.09375)" xlink:href="#ArialMT-20"/>
     <use transform="translate(324.121094 0.09375)" xlink:href="#ArialMT-3a"/>
     <use transform="translate(351.904297 0.09375)" xlink:href="#ArialMT-20"/>
     <use transform="translate(379.6875 0.09375)" xlink:href="#ArialMT-30"/>
     <use transform="translate(435.302734 0.09375)" xlink:href="#ArialMT-2e"/>
     <use transform="translate(463.085938 0.09375)" xlink:href="#ArialMT-34"/>
     <use transform="translate(518.701172 0.09375)" xlink:href="#ArialMT-32"/>
    </g>
   </g>
  </g>
 </g>
 <defs>
  <clipPath id="p15b79737a0">
   <rect height="74.44" width="88.48" x="41.96" y="27.48"/>
  </clipPath>
 </defs>
</svg>
