<?xml version="1.0" encoding="utf-8" standalone="no"?>
<!DOCTYPE svg PUBLIC "-//W3C//DTD SVG 1.1//EN"
  "http://www.w3.org/Graphics/SVG/1.1/DTD/svg11.dtd">
<!-- Created with matplotlib (http://matplotlib.org/) -->
<svg height="144pt" version="1.1" viewBox="0 0 144 144" width="144pt" xmlns="http://www.w3.org/2000/svg" xmlns:xlink="http://www.w3.org/1999/xlink">
 <defs>
  <style type="text/css">
*{stroke-linecap:butt;stroke-linejoin:round;}
  </style>
 </defs>
 <g id="figure_1">
  <g id="patch_1">
   <path d="M 0 144 
L 144 144 
L 144 0 
L 0 0 
z
" style="fill:#ffffff;"/>
  </g>
  <g id="axes_1">
   <g id="patch_2">
    <path d="M 47.6 101.92 
L 130.44 101.92 
L 130.44 13.56 
L 47.6 13.56 
z
" style="fill:#ffffff;"/>
   </g>
   <g id="matplotlib.axis_1">
    <g id="xtick_1">
     <g id="line2d_1">
      <defs>
       <path d="M 0 0 
L 0 3.5 
" id="m94d93711a0" style="stroke:#262626;stroke-width:0.8;"/>
      </defs>
      <g>
       <use style="fill:#262626;stroke:#262626;stroke-width:0.8;" x="51.365455" xlink:href="#m94d93711a0" y="101.92"/>
      </g>
     </g>
     <g id="text_1">
      <!-- 2 -->
      <defs>
       <path d="M 50.34375 8.453125 
L 50.34375 0 
L 3.03125 0 
Q 2.9375 3.171875 4.046875 6.109375 
Q 5.859375 10.9375 9.828125 15.625 
Q 13.8125 20.3125 21.34375 26.46875 
Q 33.015625 36.03125 37.109375 41.625 
Q 41.21875 47.21875 41.21875 52.203125 
Q 41.21875 57.421875 37.46875 61 
Q 33.734375 64.59375 27.734375 64.59375 
Q 21.390625 64.59375 17.578125 60.78125 
Q 13.765625 56.984375 13.71875 50.25 
L 4.6875 51.171875 
Q 5.609375 61.28125 11.65625 66.578125 
Q 17.71875 71.875 27.9375 71.875 
Q 38.234375 71.875 44.234375 66.15625 
Q 50.25 60.453125 50.25 52 
Q 50.25 47.703125 48.484375 43.546875 
Q 46.734375 39.40625 42.65625 34.8125 
Q 38.578125 30.21875 29.109375 22.21875 
Q 21.1875 15.578125 18.9375 13.203125 
Q 16.703125 10.84375 15.234375 8.453125 
z
" id="ArialMT-32"/>
      </defs>
      <g style="fill:#262626;" transform="translate(48.306939 116.793594)scale(0.11 -0.11)">
       <use xlink:href="#ArialMT-32"/>
      </g>
     </g>
    </g>
    <g id="xtick_2">
     <g id="line2d_2">
      <g>
       <use style="fill:#262626;stroke:#262626;stroke-width:0.8;" x="66.427273" xlink:href="#m94d93711a0" y="101.92"/>
      </g>
     </g>
     <g id="text_2">
      <!-- 4 -->
      <defs>
       <path d="M 32.328125 0 
L 32.328125 17.140625 
L 1.265625 17.140625 
L 1.265625 25.203125 
L 33.9375 71.578125 
L 41.109375 71.578125 
L 41.109375 25.203125 
L 50.78125 25.203125 
L 50.78125 17.140625 
L 41.109375 17.140625 
L 41.109375 0 
z
M 32.328125 25.203125 
L 32.328125 57.46875 
L 9.90625 25.203125 
z
" id="ArialMT-34"/>
      </defs>
      <g style="fill:#262626;" transform="translate(63.368757 116.793594)scale(0.11 -0.11)">
       <use xlink:href="#ArialMT-34"/>
      </g>
     </g>
    </g>
    <g id="xtick_3">
     <g id="line2d_3">
      <g>
       <use style="fill:#262626;stroke:#262626;stroke-width:0.8;" x="81.489091" xlink:href="#m94d93711a0" y="101.92"/>
      </g>
     </g>
     <g id="text_3">
      <!-- 6 -->
      <defs>
       <path d="M 49.75 54.046875 
L 41.015625 53.375 
Q 39.84375 58.546875 37.703125 60.890625 
Q 34.125 64.65625 28.90625 64.65625 
Q 24.703125 64.65625 21.53125 62.3125 
Q 17.390625 59.28125 14.984375 53.46875 
Q 12.59375 47.65625 12.5 36.921875 
Q 15.671875 41.75 20.265625 44.09375 
Q 24.859375 46.4375 29.890625 46.4375 
Q 38.671875 46.4375 44.84375 39.96875 
Q 51.03125 33.5 51.03125 23.25 
Q 51.03125 16.5 48.125 10.71875 
Q 45.21875 4.9375 40.140625 1.859375 
Q 35.0625 -1.21875 28.609375 -1.21875 
Q 17.625 -1.21875 10.6875 6.859375 
Q 3.765625 14.9375 3.765625 33.5 
Q 3.765625 54.25 11.421875 63.671875 
Q 18.109375 71.875 29.4375 71.875 
Q 37.890625 71.875 43.28125 67.140625 
Q 48.6875 62.40625 49.75 54.046875 
z
M 13.875 23.1875 
Q 13.875 18.65625 15.796875 14.5 
Q 17.71875 10.359375 21.1875 8.171875 
Q 24.65625 6 28.46875 6 
Q 34.03125 6 38.03125 10.484375 
Q 42.046875 14.984375 42.046875 22.703125 
Q 42.046875 30.125 38.078125 34.390625 
Q 34.125 38.671875 28.125 38.671875 
Q 22.171875 38.671875 18.015625 34.390625 
Q 13.875 30.125 13.875 23.1875 
z
" id="ArialMT-36"/>
      </defs>
      <g style="fill:#262626;" transform="translate(78.430575 116.793594)scale(0.11 -0.11)">
       <use xlink:href="#ArialMT-36"/>
      </g>
     </g>
    </g>
    <g id="xtick_4">
     <g id="line2d_4">
      <g>
       <use style="fill:#262626;stroke:#262626;stroke-width:0.8;" x="96.550909" xlink:href="#m94d93711a0" y="101.92"/>
      </g>
     </g>
     <g id="text_4">
      <!-- 8 -->
      <defs>
       <path d="M 17.671875 38.8125 
Q 12.203125 40.828125 9.5625 44.53125 
Q 6.9375 48.25 6.9375 53.421875 
Q 6.9375 61.234375 12.546875 66.546875 
Q 18.171875 71.875 27.484375 71.875 
Q 36.859375 71.875 42.578125 66.421875 
Q 48.296875 60.984375 48.296875 53.171875 
Q 48.296875 48.1875 45.671875 44.5 
Q 43.0625 40.828125 37.75 38.8125 
Q 44.34375 36.671875 47.78125 31.875 
Q 51.21875 27.09375 51.21875 20.453125 
Q 51.21875 11.28125 44.71875 5.03125 
Q 38.234375 -1.21875 27.640625 -1.21875 
Q 17.046875 -1.21875 10.546875 5.046875 
Q 4.046875 11.328125 4.046875 20.703125 
Q 4.046875 27.6875 7.59375 32.390625 
Q 11.140625 37.109375 17.671875 38.8125 
z
M 15.921875 53.71875 
Q 15.921875 48.640625 19.1875 45.40625 
Q 22.46875 42.1875 27.6875 42.1875 
Q 32.765625 42.1875 36.015625 45.375 
Q 39.265625 48.578125 39.265625 53.21875 
Q 39.265625 58.0625 35.90625 61.359375 
Q 32.5625 64.65625 27.59375 64.65625 
Q 22.5625 64.65625 19.234375 61.421875 
Q 15.921875 58.203125 15.921875 53.71875 
z
M 13.09375 20.65625 
Q 13.09375 16.890625 14.875 13.375 
Q 16.65625 9.859375 20.171875 7.921875 
Q 23.6875 6 27.734375 6 
Q 34.03125 6 38.125 10.046875 
Q 42.234375 14.109375 42.234375 20.359375 
Q 42.234375 26.703125 38.015625 30.859375 
Q 33.796875 35.015625 27.4375 35.015625 
Q 21.234375 35.015625 17.15625 30.90625 
Q 13.09375 26.8125 13.09375 20.65625 
z
" id="ArialMT-38"/>
      </defs>
      <g style="fill:#262626;" transform="translate(93.492393 116.793594)scale(0.11 -0.11)">
       <use xlink:href="#ArialMT-38"/>
      </g>
     </g>
    </g>
    <g id="xtick_5">
     <g id="line2d_5">
      <g>
       <use style="fill:#262626;stroke:#262626;stroke-width:0.8;" x="111.612727" xlink:href="#m94d93711a0" y="101.92"/>
      </g>
     </g>
     <g id="text_5">
      <!-- 10 -->
      <defs>
       <path d="M 37.25 0 
L 28.46875 0 
L 28.46875 56 
Q 25.296875 52.984375 20.140625 49.953125 
Q 14.984375 46.921875 10.890625 45.40625 
L 10.890625 53.90625 
Q 18.265625 57.375 23.78125 62.296875 
Q 29.296875 67.234375 31.59375 71.875 
L 37.25 71.875 
z
" id="ArialMT-31"/>
       <path d="M 4.15625 35.296875 
Q 4.15625 48 6.765625 55.734375 
Q 9.375 63.484375 14.515625 67.671875 
Q 19.671875 71.875 27.484375 71.875 
Q 33.25 71.875 37.59375 69.546875 
Q 41.9375 67.234375 44.765625 62.859375 
Q 47.609375 58.5 49.21875 52.21875 
Q 50.828125 45.953125 50.828125 35.296875 
Q 50.828125 22.703125 48.234375 14.96875 
Q 45.65625 7.234375 40.5 3 
Q 35.359375 -1.21875 27.484375 -1.21875 
Q 17.140625 -1.21875 11.234375 6.203125 
Q 4.15625 15.140625 4.15625 35.296875 
z
M 13.1875 35.296875 
Q 13.1875 17.671875 17.3125 11.828125 
Q 21.4375 6 27.484375 6 
Q 33.546875 6 37.671875 11.859375 
Q 41.796875 17.71875 41.796875 35.296875 
Q 41.796875 52.984375 37.671875 58.78125 
Q 33.546875 64.59375 27.390625 64.59375 
Q 21.34375 64.59375 17.71875 59.46875 
Q 13.1875 52.9375 13.1875 35.296875 
z
" id="ArialMT-30"/>
      </defs>
      <g style="fill:#262626;" transform="translate(105.495696 116.793594)scale(0.11 -0.11)">
       <use xlink:href="#ArialMT-31"/>
       <use x="55.615234" xlink:href="#ArialMT-30"/>
      </g>
     </g>
    </g>
    <g id="xtick_6">
     <g id="line2d_6">
      <g>
       <use style="fill:#262626;stroke:#262626;stroke-width:0.8;" x="126.674545" xlink:href="#m94d93711a0" y="101.92"/>
      </g>
     </g>
     <g id="text_6">
      <!-- 12 -->
      <g style="fill:#262626;" transform="translate(120.557514 116.793594)scale(0.11 -0.11)">
       <use xlink:href="#ArialMT-31"/>
       <use x="55.615234" xlink:href="#ArialMT-32"/>
      </g>
     </g>
    </g>
    <g id="text_7">
     <!-- pH -->
     <defs>
      <path d="M 6.59375 -19.875 
L 6.59375 51.859375 
L 14.59375 51.859375 
L 14.59375 45.125 
Q 17.4375 49.078125 21 51.046875 
Q 24.5625 53.03125 29.640625 53.03125 
Q 36.28125 53.03125 41.359375 49.609375 
Q 46.4375 46.1875 49.015625 39.953125 
Q 51.609375 33.734375 51.609375 26.3125 
Q 51.609375 18.359375 48.75 11.984375 
Q 45.90625 5.609375 40.453125 2.21875 
Q 35.015625 -1.171875 29 -1.171875 
Q 24.609375 -1.171875 21.109375 0.6875 
Q 17.625 2.546875 15.375 5.375 
L 15.375 -19.875 
z
M 14.546875 25.640625 
Q 14.546875 15.625 18.59375 10.84375 
Q 22.65625 6.0625 28.421875 6.0625 
Q 34.28125 6.0625 38.453125 11.015625 
Q 42.625 15.96875 42.625 26.375 
Q 42.625 36.28125 38.546875 41.203125 
Q 34.46875 46.140625 28.8125 46.140625 
Q 23.1875 46.140625 18.859375 40.890625 
Q 14.546875 35.640625 14.546875 25.640625 
z
" id="ArialMT-70"/>
      <path d="M 8.015625 0 
L 8.015625 71.578125 
L 17.484375 71.578125 
L 17.484375 42.1875 
L 54.6875 42.1875 
L 54.6875 71.578125 
L 64.15625 71.578125 
L 64.15625 0 
L 54.6875 0 
L 54.6875 33.734375 
L 17.484375 33.734375 
L 17.484375 0 
z
" id="ArialMT-48"/>
     </defs>
     <g style="fill:#262626;" transform="translate(81.989453 130.853437)scale(0.11 -0.11)">
      <use xlink:href="#ArialMT-70"/>
      <use x="55.615234" xlink:href="#ArialMT-48"/>
     </g>
    </g>
   </g>
   <g id="matplotlib.axis_2">
    <g id="ytick_1">
     <g id="line2d_7">
      <defs>
       <path d="M 0 0 
L -3.5 0 
" id="md031f0f52d" style="stroke:#262626;stroke-width:0.8;"/>
      </defs>
      <g>
       <use style="fill:#262626;stroke:#262626;stroke-width:0.8;" x="47.6" xlink:href="#md031f0f52d" y="95.408623"/>
      </g>
     </g>
     <g id="text_8">
      <!-- 0 -->
      <g style="fill:#262626;" transform="translate(34.482969 99.345419)scale(0.11 -0.11)">
       <use xlink:href="#ArialMT-30"/>
      </g>
     </g>
    </g>
    <g id="ytick_2">
     <g id="line2d_8">
      <g>
       <use style="fill:#262626;stroke:#262626;stroke-width:0.8;" x="47.6" xlink:href="#md031f0f52d" y="68.980069"/>
      </g>
     </g>
     <g id="text_9">
      <!-- 20 -->
      <g style="fill:#262626;" transform="translate(28.365938 72.916865)scale(0.11 -0.11)">
       <use xlink:href="#ArialMT-32"/>
       <use x="55.615234" xlink:href="#ArialMT-30"/>
      </g>
     </g>
    </g>
    <g id="ytick_3">
     <g id="line2d_9">
      <g>
       <use style="fill:#262626;stroke:#262626;stroke-width:0.8;" x="47.6" xlink:href="#md031f0f52d" y="42.551515"/>
      </g>
     </g>
     <g id="text_10">
      <!-- 40 -->
      <g style="fill:#262626;" transform="translate(28.365938 46.488311)scale(0.11 -0.11)">
       <use xlink:href="#ArialMT-34"/>
       <use x="55.615234" xlink:href="#ArialMT-30"/>
      </g>
     </g>
    </g>
    <g id="ytick_4">
     <g id="line2d_10">
      <g>
       <use style="fill:#262626;stroke:#262626;stroke-width:0.8;" x="47.6" xlink:href="#md031f0f52d" y="16.122961"/>
      </g>
     </g>
     <g id="text_11">
      <!-- 60 -->
      <g style="fill:#262626;" transform="translate(28.365938 20.059757)scale(0.11 -0.11)">
       <use xlink:href="#ArialMT-36"/>
       <use x="55.615234" xlink:href="#ArialMT-30"/>
      </g>
     </g>
    </g>
    <g id="text_12">
     <!-- Free energy ($k_B T$) -->
     <defs>
      <path d="M 8.203125 0 
L 8.203125 71.578125 
L 56.5 71.578125 
L 56.5 63.140625 
L 17.671875 63.140625 
L 17.671875 40.96875 
L 51.265625 40.96875 
L 51.265625 32.515625 
L 17.671875 32.515625 
L 17.671875 0 
z
" id="ArialMT-46"/>
      <path d="M 6.5 0 
L 6.5 51.859375 
L 14.40625 51.859375 
L 14.40625 44 
Q 17.4375 49.515625 20 51.265625 
Q 22.5625 53.03125 25.640625 53.03125 
Q 30.078125 53.03125 34.671875 50.203125 
L 31.640625 42.046875 
Q 28.421875 43.953125 25.203125 43.953125 
Q 22.3125 43.953125 20.015625 42.21875 
Q 17.71875 40.484375 16.75 37.40625 
Q 15.28125 32.71875 15.28125 27.15625 
L 15.28125 0 
z
" id="ArialMT-72"/>
      <path d="M 42.09375 16.703125 
L 51.171875 15.578125 
Q 49.03125 7.625 43.21875 3.21875 
Q 37.40625 -1.171875 28.375 -1.171875 
Q 17 -1.171875 10.328125 5.828125 
Q 3.65625 12.84375 3.65625 25.484375 
Q 3.65625 38.578125 10.390625 45.796875 
Q 17.140625 53.03125 27.875 53.03125 
Q 38.28125 53.03125 44.875 45.953125 
Q 51.46875 38.875 51.46875 26.03125 
Q 51.46875 25.25 51.421875 23.6875 
L 12.75 23.6875 
Q 13.234375 15.140625 17.578125 10.59375 
Q 21.921875 6.0625 28.421875 6.0625 
Q 33.25 6.0625 36.671875 8.59375 
Q 40.09375 11.140625 42.09375 16.703125 
z
M 13.234375 30.90625 
L 42.1875 30.90625 
Q 41.609375 37.453125 38.875 40.71875 
Q 34.671875 45.796875 27.984375 45.796875 
Q 21.921875 45.796875 17.796875 41.75 
Q 13.671875 37.703125 13.234375 30.90625 
z
" id="ArialMT-65"/>
      <path id="ArialMT-20"/>
      <path d="M 6.59375 0 
L 6.59375 51.859375 
L 14.5 51.859375 
L 14.5 44.484375 
Q 20.21875 53.03125 31 53.03125 
Q 35.6875 53.03125 39.625 51.34375 
Q 43.5625 49.65625 45.515625 46.921875 
Q 47.46875 44.1875 48.25 40.4375 
Q 48.734375 37.984375 48.734375 31.890625 
L 48.734375 0 
L 39.9375 0 
L 39.9375 31.546875 
Q 39.9375 36.921875 38.90625 39.578125 
Q 37.890625 42.234375 35.28125 43.8125 
Q 32.671875 45.40625 29.15625 45.40625 
Q 23.53125 45.40625 19.453125 41.84375 
Q 15.375 38.28125 15.375 28.328125 
L 15.375 0 
z
" id="ArialMT-6e"/>
      <path d="M 4.984375 -4.296875 
L 13.53125 -5.5625 
Q 14.0625 -9.515625 16.5 -11.328125 
Q 19.78125 -13.765625 25.4375 -13.765625 
Q 31.546875 -13.765625 34.859375 -11.328125 
Q 38.1875 -8.890625 39.359375 -4.5 
Q 40.046875 -1.8125 39.984375 6.78125 
Q 34.234375 0 25.640625 0 
Q 14.9375 0 9.078125 7.71875 
Q 3.21875 15.4375 3.21875 26.21875 
Q 3.21875 33.640625 5.90625 39.90625 
Q 8.59375 46.1875 13.6875 49.609375 
Q 18.796875 53.03125 25.6875 53.03125 
Q 34.859375 53.03125 40.828125 45.609375 
L 40.828125 51.859375 
L 48.921875 51.859375 
L 48.921875 7.03125 
Q 48.921875 -5.078125 46.453125 -10.125 
Q 44 -15.1875 38.640625 -18.109375 
Q 33.296875 -21.046875 25.484375 -21.046875 
Q 16.21875 -21.046875 10.5 -16.875 
Q 4.78125 -12.703125 4.984375 -4.296875 
z
M 12.25 26.859375 
Q 12.25 16.65625 16.296875 11.96875 
Q 20.359375 7.28125 26.46875 7.28125 
Q 32.515625 7.28125 36.609375 11.9375 
Q 40.71875 16.609375 40.71875 26.5625 
Q 40.71875 36.078125 36.5 40.90625 
Q 32.28125 45.75 26.3125 45.75 
Q 20.453125 45.75 16.34375 40.984375 
Q 12.25 36.234375 12.25 26.859375 
z
" id="ArialMT-67"/>
      <path d="M 6.203125 -19.96875 
L 5.21875 -11.71875 
Q 8.109375 -12.5 10.25 -12.5 
Q 13.1875 -12.5 14.9375 -11.515625 
Q 16.703125 -10.546875 17.828125 -8.796875 
Q 18.65625 -7.46875 20.515625 -2.25 
Q 20.75 -1.515625 21.296875 -0.09375 
L 1.609375 51.859375 
L 11.078125 51.859375 
L 21.875 21.828125 
Q 23.96875 16.109375 25.640625 9.8125 
Q 27.15625 15.875 29.25 21.625 
L 40.328125 51.859375 
L 49.125 51.859375 
L 29.390625 -0.875 
Q 26.21875 -9.421875 24.46875 -12.640625 
Q 22.125 -17 19.09375 -19.015625 
Q 16.0625 -21.046875 11.859375 -21.046875 
Q 9.328125 -21.046875 6.203125 -19.96875 
z
" id="ArialMT-79"/>
      <path d="M 23.390625 -21.046875 
Q 16.109375 -11.859375 11.078125 0.4375 
Q 6.0625 12.75 6.0625 25.921875 
Q 6.0625 37.546875 9.8125 48.1875 
Q 14.203125 60.546875 23.390625 72.796875 
L 29.6875 72.796875 
Q 23.78125 62.640625 21.875 58.296875 
Q 18.890625 51.5625 17.1875 44.234375 
Q 15.09375 35.109375 15.09375 25.875 
Q 15.09375 2.390625 29.6875 -21.046875 
z
" id="ArialMT-28"/>
      <path d="M 18.3125 75.984375 
L 27.296875 75.984375 
L 18.703125 31.6875 
L 49.515625 54.6875 
L 61.1875 54.6875 
L 26.8125 28.515625 
L 51.90625 0 
L 41.015625 0 
L 17.671875 26.703125 
L 12.5 0 
L 3.515625 0 
z
" id="DejaVuSans-Oblique-6b"/>
      <path d="M 16.890625 72.90625 
L 42.09375 72.90625 
Q 52.34375 72.90625 57.421875 69.09375 
Q 62.5 65.28125 62.5 57.625 
Q 62.5 50.59375 58.125 45.484375 
Q 53.765625 40.375 46.6875 39.3125 
Q 52.734375 37.9375 55.765625 34.078125 
Q 58.796875 30.21875 58.796875 23.78125 
Q 58.796875 12.796875 50.65625 6.390625 
Q 42.53125 0 28.421875 0 
L 2.6875 0 
z
M 19.28125 34.8125 
L 14.109375 8.109375 
L 29.984375 8.109375 
Q 38.921875 8.109375 43.75 12.203125 
Q 48.578125 16.3125 48.578125 23.78125 
Q 48.578125 29.546875 45.375 32.171875 
Q 42.1875 34.8125 35.109375 34.8125 
z
M 25.09375 64.796875 
L 20.796875 42.828125 
L 35.5 42.828125 
Q 43.359375 42.828125 47.78125 46.234375 
Q 52.203125 49.65625 52.203125 55.71875 
Q 52.203125 60.453125 49.21875 62.625 
Q 46.234375 64.796875 39.703125 64.796875 
z
" id="DejaVuSans-Oblique-42"/>
      <path d="M 5.90625 72.90625 
L 67.578125 72.90625 
L 66.015625 64.59375 
L 39.984375 64.59375 
L 27.484375 0 
L 17.578125 0 
L 30.078125 64.59375 
L 4.296875 64.59375 
z
" id="DejaVuSans-Oblique-54"/>
      <path d="M 12.359375 -21.046875 
L 6.0625 -21.046875 
Q 20.65625 2.390625 20.65625 25.875 
Q 20.65625 35.0625 18.5625 44.09375 
Q 16.890625 51.421875 13.921875 58.15625 
Q 12.015625 62.546875 6.0625 72.796875 
L 12.359375 72.796875 
Q 21.53125 60.546875 25.921875 48.1875 
Q 29.6875 37.546875 29.6875 25.921875 
Q 29.6875 12.75 24.625 0.4375 
Q 19.578125 -11.859375 12.359375 -21.046875 
z
" id="ArialMT-29"/>
     </defs>
     <g style="fill:#262626;" transform="translate(21.945938 101.96)rotate(-90)scale(0.11 -0.11)">
      <use transform="translate(0 0.015625)" xlink:href="#ArialMT-46"/>
      <use transform="translate(61.083984 0.015625)" xlink:href="#ArialMT-72"/>
      <use transform="translate(94.384766 0.015625)" xlink:href="#ArialMT-65"/>
      <use transform="translate(150 0.015625)" xlink:href="#ArialMT-65"/>
      <use transform="translate(205.615234 0.015625)" xlink:href="#ArialMT-20"/>
      <use transform="translate(233.398438 0.015625)" xlink:href="#ArialMT-65"/>
      <use transform="translate(289.013672 0.015625)" xlink:href="#ArialMT-6e"/>
      <use transform="translate(344.628906 0.015625)" xlink:href="#ArialMT-65"/>
      <use transform="translate(400.244141 0.015625)" xlink:href="#ArialMT-72"/>
      <use transform="translate(433.544922 0.015625)" xlink:href="#ArialMT-67"/>
      <use transform="translate(489.160156 0.015625)" xlink:href="#ArialMT-79"/>
      <use transform="translate(539.160156 0.015625)" xlink:href="#ArialMT-20"/>
      <use transform="translate(566.943359 0.015625)" xlink:href="#ArialMT-28"/>
      <use transform="translate(600.244141 0.015625)" xlink:href="#DejaVuSans-Oblique-6b"/>
      <use transform="translate(658.154297 -16.390625)scale(0.7)" xlink:href="#DejaVuSans-Oblique-42"/>
      <use transform="translate(708.911133 0.015625)" xlink:href="#DejaVuSans-Oblique-54"/>
      <use transform="translate(769.995117 0.015625)" xlink:href="#ArialMT-29"/>
     </g>
    </g>
   </g>
   <g id="patch_3">
    <path d="M 47.6 101.92 
L 47.6 13.56 
" style="fill:none;stroke:#262626;stroke-linecap:square;stroke-linejoin:miter;stroke-width:0.8;"/>
   </g>
   <g id="patch_4">
    <path d="M 47.6 101.92 
L 130.44 101.92 
" style="fill:none;stroke:#262626;stroke-linecap:square;stroke-linejoin:miter;stroke-width:0.8;"/>
   </g>
   <g id="line2d_11">
    <path clip-path="url(#p23158d3da1)" d="M 51.365455 84.424477 
L 52.118545 83.815937 
L 52.871636 83.207397 
L 53.624727 82.598857 
L 54.377818 81.990317 
L 55.130909 81.381777 
L 55.884 80.773237 
L 56.637091 80.164697 
L 57.390182 79.556157 
L 58.143273 78.947617 
L 58.896364 78.339077 
L 59.649455 77.730537 
L 60.402545 77.121997 
L 61.155636 76.513457 
L 61.908727 75.904917 
L 62.661818 75.296377 
L 63.414909 74.687837 
L 64.168 74.079298 
L 64.921091 73.470758 
L 65.674182 72.862218 
L 66.427273 72.253678 
L 67.180364 71.645138 
L 67.933455 71.036598 
L 68.686545 70.428058 
L 69.439636 69.819518 
L 70.192727 69.210978 
L 70.945818 68.602438 
L 71.698909 67.993898 
L 72.452 67.385358 
L 73.205091 66.776818 
L 73.958182 66.168278 
L 74.711273 65.559738 
L 75.464364 64.951198 
L 76.217455 64.342658 
L 76.970545 63.734118 
L 77.723636 63.125579 
L 78.476727 62.517039 
L 79.229818 61.908499 
L 79.982909 61.299959 
L 80.736 60.691419 
L 81.489091 60.082879 
L 82.242182 59.474339 
L 82.995273 58.865799 
L 83.748364 58.257259 
L 84.501455 57.648719 
L 85.254545 57.040179 
L 86.007636 56.431639 
L 86.760727 55.823099 
L 87.513818 55.214559 
L 88.266909 54.606019 
L 89.02 53.997479 
L 89.773091 53.388939 
L 90.526182 52.780399 
L 91.279273 52.17186 
L 92.032364 51.56332 
L 92.785455 50.95478 
L 93.538545 50.34624 
L 94.291636 49.7377 
L 95.044727 49.12916 
L 95.797818 48.52062 
L 96.550909 47.91208 
L 97.304 47.30354 
L 98.057091 46.695 
L 98.810182 46.08646 
L 99.563273 45.47792 
L 100.316364 44.86938 
L 101.069455 44.26084 
L 101.822545 43.6523 
L 102.575636 43.04376 
L 103.328727 42.43522 
L 104.081818 41.82668 
L 104.834909 41.21814 
L 105.588 40.609601 
L 106.341091 40.001061 
L 107.094182 39.392521 
L 107.847273 38.783981 
L 108.600364 38.175441 
L 109.353455 37.566901 
L 110.106545 36.958361 
L 110.859636 36.349821 
L 111.612727 35.741281 
L 112.365818 35.132741 
L 113.118909 34.524201 
L 113.872 33.915661 
L 114.625091 33.307121 
L 115.378182 32.698581 
L 116.131273 32.090041 
L 116.884364 31.481501 
L 117.637455 30.872961 
L 118.390545 30.264421 
L 119.143636 29.655882 
L 119.896727 29.047342 
L 120.649818 28.438802 
L 121.402909 27.830262 
L 122.156 27.221722 
L 122.909091 26.613182 
L 123.662182 26.004642 
L 124.415273 25.396102 
L 125.168364 24.787562 
L 125.921455 24.179022 
L 126.674545 23.570482 
" style="fill:none;stroke:#4393c3;stroke-linecap:round;stroke-width:1.5;"/>
   </g>
   <g id="line2d_12">
    <path clip-path="url(#p23158d3da1)" d="M 51.365455 80.468967 
L 52.118545 79.860427 
L 52.871636 79.251887 
L 53.624727 78.643347 
L 54.377818 78.034807 
L 55.130909 77.426267 
L 55.884 76.817727 
L 56.637091 76.209187 
L 57.390182 75.600647 
L 58.143273 74.992107 
L 58.896364 74.383567 
L 59.649455 73.775028 
L 60.402545 73.166488 
L 61.155636 72.557948 
L 61.908727 71.949408 
L 62.661818 71.340868 
L 63.414909 70.732328 
L 64.168 70.123788 
L 64.921091 69.515248 
L 65.674182 68.906708 
L 66.427273 68.298168 
L 67.180364 67.689628 
L 67.933455 67.081088 
L 68.686545 66.472548 
L 69.439636 65.864008 
L 70.192727 65.255468 
L 70.945818 64.646928 
L 71.698909 64.038388 
L 72.452 63.429848 
L 73.205091 62.821309 
L 73.958182 62.212769 
L 74.711273 61.604229 
L 75.464364 60.995689 
L 76.217455 60.387149 
L 76.970545 59.778609 
L 77.723636 59.170069 
L 78.476727 58.561529 
L 79.229818 57.952989 
L 79.982909 57.344449 
L 80.736 56.735909 
L 81.489091 56.127369 
L 82.242182 55.518829 
L 82.995273 54.910289 
L 83.748364 54.301749 
L 84.501455 53.693209 
L 85.254545 53.084669 
L 86.007636 52.476129 
L 86.760727 51.86759 
L 87.513818 51.25905 
L 88.266909 50.65051 
L 89.02 50.04197 
L 89.773091 49.43343 
L 90.526182 48.82489 
L 91.279273 48.21635 
L 92.032364 47.60781 
L 92.785455 46.99927 
L 93.538545 46.39073 
L 94.291636 45.78219 
L 95.044727 45.17365 
L 95.797818 44.56511 
L 96.550909 43.95657 
L 97.304 43.34803 
L 98.057091 42.73949 
L 98.810182 42.13095 
L 99.563273 41.52241 
L 100.316364 40.913871 
L 101.069455 40.305331 
L 101.822545 39.696791 
L 102.575636 39.088251 
L 103.328727 38.479711 
L 104.081818 37.871171 
L 104.834909 37.262631 
L 105.588 36.654091 
L 106.341091 36.045551 
L 107.094182 35.437011 
L 107.847273 34.828471 
L 108.600364 34.219931 
L 109.353455 33.611391 
L 110.106545 33.002851 
L 110.859636 32.394311 
L 111.612727 31.785771 
L 112.365818 31.177231 
L 113.118909 30.568691 
L 113.872 29.960152 
L 114.625091 29.351612 
L 115.378182 28.743072 
L 116.131273 28.134532 
L 116.884364 27.525992 
L 117.637455 26.917452 
L 118.390545 26.308912 
L 119.143636 25.700372 
L 119.896727 25.091832 
L 120.649818 24.483292 
L 121.402909 23.874752 
L 122.156 23.266212 
L 122.909091 22.657672 
L 123.662182 22.049132 
L 124.415273 21.440592 
L 125.168364 20.832052 
L 125.921455 20.223512 
L 126.674545 19.614972 
" style="fill:none;stroke:#4393c3;stroke-linecap:round;stroke-width:1.5;"/>
   </g>
   <g id="line2d_13">
    <path clip-path="url(#p23158d3da1)" d="M 51.365455 78.430358 
L 52.118545 77.821818 
L 52.871636 77.213278 
L 53.624727 76.604738 
L 54.377818 75.996198 
L 55.130909 75.387658 
L 55.884 74.779118 
L 56.637091 74.170579 
L 57.390182 73.562039 
L 58.143273 72.953499 
L 58.896364 72.344959 
L 59.649455 71.736419 
L 60.402545 71.127879 
L 61.155636 70.519339 
L 61.908727 69.910799 
L 62.661818 69.302259 
L 63.414909 68.693719 
L 64.168 68.085179 
L 64.921091 67.476639 
L 65.674182 66.868099 
L 66.427273 66.259559 
L 67.180364 65.651019 
L 67.933455 65.042479 
L 68.686545 64.433939 
L 69.439636 63.825399 
L 70.192727 63.21686 
L 70.945818 62.60832 
L 71.698909 61.99978 
L 72.452 61.39124 
L 73.205091 60.7827 
L 73.958182 60.17416 
L 74.711273 59.56562 
L 75.464364 58.95708 
L 76.217455 58.34854 
L 76.970545 57.74 
L 77.723636 57.13146 
L 78.476727 56.52292 
L 79.229818 55.91438 
L 79.982909 55.30584 
L 80.736 54.6973 
L 81.489091 54.08876 
L 82.242182 53.48022 
L 82.995273 52.87168 
L 83.748364 52.26314 
L 84.501455 51.654601 
L 85.254545 51.046061 
L 86.007636 50.437521 
L 86.760727 49.828981 
L 87.513818 49.220441 
L 88.266909 48.611901 
L 89.02 48.003361 
L 89.773091 47.394821 
L 90.526182 46.786281 
L 91.279273 46.177741 
L 92.032364 45.569201 
L 92.785455 44.960661 
L 93.538545 44.352121 
L 94.291636 43.743581 
L 95.044727 43.135041 
L 95.797818 42.526501 
L 96.550909 41.917961 
L 97.304 41.309421 
L 98.057091 40.700882 
L 98.810182 40.092342 
L 99.563273 39.483802 
L 100.316364 38.875262 
L 101.069455 38.266722 
L 101.822545 37.658182 
L 102.575636 37.049642 
L 103.328727 36.441102 
L 104.081818 35.832562 
L 104.834909 35.224022 
L 105.588 34.615482 
L 106.341091 34.006942 
L 107.094182 33.398402 
L 107.847273 32.789862 
L 108.600364 32.181322 
L 109.353455 31.572782 
L 110.106545 30.964242 
L 110.859636 30.355702 
L 111.612727 29.747163 
L 112.365818 29.138623 
L 113.118909 28.530083 
L 113.872 27.921543 
L 114.625091 27.313003 
L 115.378182 26.704463 
L 116.131273 26.095923 
L 116.884364 25.487383 
L 117.637455 24.878843 
L 118.390545 24.270303 
L 119.143636 23.661763 
L 119.896727 23.053223 
L 120.649818 22.444683 
L 121.402909 21.836143 
L 122.156 21.227603 
L 122.909091 20.619063 
L 123.662182 20.010523 
L 124.415273 19.401983 
L 125.168364 18.793444 
L 125.921455 18.184904 
L 126.674545 17.576364 
" style="fill:none;stroke:#4393c3;stroke-linecap:round;stroke-width:1.5;"/>
   </g>
   <g id="line2d_14">
    <path clip-path="url(#p23158d3da1)" d="M 51.365455 61.786791 
L 52.118545 62.091061 
L 52.871636 62.395331 
L 53.624727 62.699601 
L 54.377818 63.003871 
L 55.130909 63.30814 
L 55.884 63.61241 
L 56.637091 63.91668 
L 57.390182 64.22095 
L 58.143273 64.52522 
L 58.896364 64.82949 
L 59.649455 65.13376 
L 60.402545 65.43803 
L 61.155636 65.7423 
L 61.908727 66.04657 
L 62.661818 66.35084 
L 63.414909 66.65511 
L 64.168 66.95938 
L 64.921091 67.26365 
L 65.674182 67.56792 
L 66.427273 67.87219 
L 67.180364 68.17646 
L 67.933455 68.48073 
L 68.686545 68.785 
L 69.439636 69.08927 
L 70.192727 69.39354 
L 70.945818 69.69781 
L 71.698909 70.00208 
L 72.452 70.30635 
L 73.205091 70.61062 
L 73.958182 70.91489 
L 74.711273 71.21916 
L 75.464364 71.52343 
L 76.217455 71.8277 
L 76.970545 72.13197 
L 77.723636 72.43624 
L 78.476727 72.74051 
L 79.229818 73.04478 
L 79.982909 73.34905 
L 80.736 73.65332 
L 81.489091 73.95759 
L 82.242182 74.26186 
L 82.995273 74.566129 
L 83.748364 74.870399 
L 84.501455 75.174669 
L 85.254545 75.478939 
L 86.007636 75.783209 
L 86.760727 76.087479 
L 87.513818 76.391749 
L 88.266909 76.696019 
L 89.02 77.000289 
L 89.773091 77.304559 
L 90.526182 77.608829 
L 91.279273 77.913099 
L 92.032364 78.217369 
L 92.785455 78.521639 
L 93.538545 78.825909 
L 94.291636 79.130179 
L 95.044727 79.434449 
L 95.797818 79.738719 
L 96.550909 80.042989 
L 97.304 80.347259 
L 98.057091 80.651529 
L 98.810182 80.955799 
L 99.563273 81.260069 
L 100.316364 81.564339 
L 101.069455 81.868609 
L 101.822545 82.172879 
L 102.575636 82.477149 
L 103.328727 82.781419 
L 104.081818 83.085689 
L 104.834909 83.389959 
L 105.588 83.694229 
L 106.341091 83.998499 
L 107.094182 84.302769 
L 107.847273 84.607039 
L 108.600364 84.911309 
L 109.353455 85.215579 
L 110.106545 85.519848 
L 110.859636 85.824118 
L 111.612727 86.128388 
L 112.365818 86.432658 
L 113.118909 86.736928 
L 113.872 87.041198 
L 114.625091 87.345468 
L 115.378182 87.649738 
L 116.131273 87.954008 
L 116.884364 88.258278 
L 117.637455 88.562548 
L 118.390545 88.866818 
L 119.143636 89.171088 
L 119.896727 89.475358 
L 120.649818 89.779628 
L 121.402909 90.083898 
L 122.156 90.388168 
L 122.909091 90.692438 
L 123.662182 90.996708 
L 124.415273 91.300978 
L 125.168364 91.605248 
L 125.921455 91.909518 
L 126.674545 92.213788 
" style="fill:none;stroke:#f4a582;stroke-linecap:round;stroke-width:1.5;"/>
   </g>
   <g id="line2d_15">
    <path clip-path="url(#p23158d3da1)" d="M 51.365455 97.903636 
L 52.118545 97.599366 
L 52.871636 97.295096 
L 53.624727 96.990826 
L 54.377818 96.686556 
L 55.130909 96.382287 
L 55.884 96.078017 
L 56.637091 95.773747 
L 57.390182 95.469477 
L 58.143273 95.165207 
L 58.896364 94.860937 
L 59.649455 94.556667 
L 60.402545 94.252397 
L 61.155636 93.948127 
L 61.908727 93.643857 
L 62.661818 93.339587 
L 63.414909 93.035317 
L 64.168 92.731047 
L 64.921091 92.426777 
L 65.674182 92.122507 
L 66.427273 91.818237 
L 67.180364 91.513967 
L 67.933455 91.209697 
L 68.686545 90.905427 
L 69.439636 90.601157 
L 70.192727 90.296887 
L 70.945818 89.992617 
L 71.698909 89.688347 
L 72.452 89.384077 
L 73.205091 89.079807 
L 73.958182 88.775537 
L 74.711273 88.471267 
L 75.464364 88.166997 
L 76.217455 87.862727 
L 76.970545 87.558457 
L 77.723636 87.254187 
L 78.476727 86.949917 
L 79.229818 86.645647 
L 79.982909 86.341377 
L 80.736 86.037107 
L 81.489091 85.732837 
L 82.242182 85.428567 
L 82.995273 85.124298 
L 83.748364 84.820028 
L 84.501455 84.515758 
L 85.254545 84.211488 
L 86.007636 83.907218 
L 86.760727 83.602948 
L 87.513818 83.298678 
L 88.266909 82.994408 
L 89.02 82.690138 
L 89.773091 82.385868 
L 90.526182 82.081598 
L 91.279273 81.777328 
L 92.032364 81.473058 
L 92.785455 81.168788 
L 93.538545 80.864518 
L 94.291636 80.560248 
L 95.044727 80.255978 
L 95.797818 79.951708 
L 96.550909 79.647438 
L 97.304 79.343168 
L 98.057091 79.038898 
L 98.810182 78.734628 
L 99.563273 78.430358 
L 100.316364 78.126088 
L 101.069455 77.821818 
L 101.822545 77.517548 
L 102.575636 77.213278 
L 103.328727 76.909008 
L 104.081818 76.604738 
L 104.834909 76.300468 
L 105.588 75.996198 
L 106.341091 75.691928 
L 107.094182 75.387658 
L 107.847273 75.083388 
L 108.600364 74.779118 
L 109.353455 74.474848 
L 110.106545 74.170579 
L 110.859636 73.866309 
L 111.612727 73.562039 
L 112.365818 73.257769 
L 113.118909 72.953499 
L 113.872 72.649229 
L 114.625091 72.344959 
L 115.378182 72.040689 
L 116.131273 71.736419 
L 116.884364 71.432149 
L 117.637455 71.127879 
L 118.390545 70.823609 
L 119.143636 70.519339 
L 119.896727 70.215069 
L 120.649818 69.910799 
L 121.402909 69.606529 
L 122.156 69.302259 
L 122.909091 68.997989 
L 123.662182 68.693719 
L 124.415273 68.389449 
L 125.168364 68.085179 
L 125.921455 67.780909 
L 126.674545 67.476639 
" style="fill:none;stroke:#92c5de;stroke-linecap:round;stroke-width:1.5;"/>
   </g>
   <g id="line2d_16">
    <path clip-path="url(#p23158d3da1)" d="M 51.365455 91.909518 
L 52.118545 91.605248 
L 52.871636 91.300978 
L 53.624727 90.996708 
L 54.377818 90.692438 
L 55.130909 90.388168 
L 55.884 90.083898 
L 56.637091 89.779628 
L 57.390182 89.475358 
L 58.143273 89.171088 
L 58.896364 88.866818 
L 59.649455 88.562548 
L 60.402545 88.258278 
L 61.155636 87.954008 
L 61.908727 87.649738 
L 62.661818 87.345468 
L 63.414909 87.041198 
L 64.168 86.736928 
L 64.921091 86.432658 
L 65.674182 86.128388 
L 66.427273 85.824118 
L 67.180364 85.519848 
L 67.933455 85.215579 
L 68.686545 84.911309 
L 69.439636 84.607039 
L 70.192727 84.302769 
L 70.945818 83.998499 
L 71.698909 83.694229 
L 72.452 83.389959 
L 73.205091 83.085689 
L 73.958182 82.781419 
L 74.711273 82.477149 
L 75.464364 82.172879 
L 76.217455 81.868609 
L 76.970545 81.564339 
L 77.723636 81.260069 
L 78.476727 80.955799 
L 79.229818 80.651529 
L 79.982909 80.347259 
L 80.736 80.042989 
L 81.489091 79.738719 
L 82.242182 79.434449 
L 82.995273 79.130179 
L 83.748364 78.825909 
L 84.501455 78.521639 
L 85.254545 78.217369 
L 86.007636 77.913099 
L 86.760727 77.608829 
L 87.513818 77.304559 
L 88.266909 77.000289 
L 89.02 76.696019 
L 89.773091 76.391749 
L 90.526182 76.087479 
L 91.279273 75.783209 
L 92.032364 75.478939 
L 92.785455 75.174669 
L 93.538545 74.870399 
L 94.291636 74.566129 
L 95.044727 74.26186 
L 95.797818 73.95759 
L 96.550909 73.65332 
L 97.304 73.34905 
L 98.057091 73.04478 
L 98.810182 72.74051 
L 99.563273 72.43624 
L 100.316364 72.13197 
L 101.069455 71.8277 
L 101.822545 71.52343 
L 102.575636 71.21916 
L 103.328727 70.91489 
L 104.081818 70.61062 
L 104.834909 70.30635 
L 105.588 70.00208 
L 106.341091 69.69781 
L 107.094182 69.39354 
L 107.847273 69.08927 
L 108.600364 68.785 
L 109.353455 68.48073 
L 110.106545 68.17646 
L 110.859636 67.87219 
L 111.612727 67.56792 
L 112.365818 67.26365 
L 113.118909 66.95938 
L 113.872 66.65511 
L 114.625091 66.35084 
L 115.378182 66.04657 
L 116.131273 65.7423 
L 116.884364 65.43803 
L 117.637455 65.13376 
L 118.390545 64.82949 
L 119.143636 64.52522 
L 119.896727 64.22095 
L 120.649818 63.91668 
L 121.402909 63.61241 
L 122.156 63.30814 
L 122.909091 63.003871 
L 123.662182 62.699601 
L 124.415273 62.395331 
L 125.168364 62.091061 
L 125.921455 61.786791 
L 126.674545 61.482521 
" style="fill:none;stroke:#92c5de;stroke-linecap:round;stroke-width:1.5;"/>
   </g>
   <g id="line2d_17">
    <path clip-path="url(#p23158d3da1)" d="M 51.365455 81.929463 
L 52.118545 81.625193 
L 52.871636 81.320923 
L 53.624727 81.016653 
L 54.377818 80.712383 
L 55.130909 80.408113 
L 55.884 80.103843 
L 56.637091 79.799573 
L 57.390182 79.495303 
L 58.143273 79.191033 
L 58.896364 78.886763 
L 59.649455 78.582493 
L 60.402545 78.278223 
L 61.155636 77.973953 
L 61.908727 77.669683 
L 62.661818 77.365413 
L 63.414909 77.061143 
L 64.168 76.756873 
L 64.921091 76.452603 
L 65.674182 76.148333 
L 66.427273 75.844063 
L 67.180364 75.539793 
L 67.933455 75.235523 
L 68.686545 74.931253 
L 69.439636 74.626983 
L 70.192727 74.322713 
L 70.945818 74.018444 
L 71.698909 73.714174 
L 72.452 73.409904 
L 73.205091 73.105634 
L 73.958182 72.801364 
L 74.711273 72.497094 
L 75.464364 72.192824 
L 76.217455 71.888554 
L 76.970545 71.584284 
L 77.723636 71.280014 
L 78.476727 70.975744 
L 79.229818 70.671474 
L 79.982909 70.367204 
L 80.736 70.062934 
L 81.489091 69.758664 
L 82.242182 69.454394 
L 82.995273 69.150124 
L 83.748364 68.845854 
L 84.501455 68.541584 
L 85.254545 68.237314 
L 86.007636 67.933044 
L 86.760727 67.628774 
L 87.513818 67.324504 
L 88.266909 67.020234 
L 89.02 66.715964 
L 89.773091 66.411694 
L 90.526182 66.107424 
L 91.279273 65.803154 
L 92.032364 65.498884 
L 92.785455 65.194614 
L 93.538545 64.890344 
L 94.291636 64.586074 
L 95.044727 64.281804 
L 95.797818 63.977534 
L 96.550909 63.673264 
L 97.304 63.368994 
L 98.057091 63.064725 
L 98.810182 62.760455 
L 99.563273 62.456185 
L 100.316364 62.151915 
L 101.069455 61.847645 
L 101.822545 61.543375 
L 102.575636 61.239105 
L 103.328727 60.934835 
L 104.081818 60.630565 
L 104.834909 60.326295 
L 105.588 60.022025 
L 106.341091 59.717755 
L 107.094182 59.413485 
L 107.847273 59.109215 
L 108.600364 58.804945 
L 109.353455 58.500675 
L 110.106545 58.196405 
L 110.859636 57.892135 
L 111.612727 57.587865 
L 112.365818 57.283595 
L 113.118909 56.979325 
L 113.872 56.675055 
L 114.625091 56.370785 
L 115.378182 56.066515 
L 116.131273 55.762245 
L 116.884364 55.457975 
L 117.637455 55.153705 
L 118.390545 54.849435 
L 119.143636 54.545165 
L 119.896727 54.240895 
L 120.649818 53.936625 
L 121.402909 53.632355 
L 122.156 53.328085 
L 122.909091 53.023815 
L 123.662182 52.719545 
L 124.415273 52.415275 
L 125.168364 52.111006 
L 125.921455 51.806736 
L 126.674545 51.502466 
" style="fill:none;stroke:#92c5de;stroke-linecap:round;stroke-width:1.5;"/>
   </g>
   <g id="line2d_18">
    <path clip-path="url(#p23158d3da1)" d="M 51.365455 70.975744 
L 52.118545 70.975744 
L 52.871636 70.975744 
L 53.624727 70.975744 
L 54.377818 70.975744 
L 55.130909 70.975744 
L 55.884 70.975744 
L 56.637091 70.975744 
L 57.390182 70.975744 
L 58.143273 70.975744 
L 58.896364 70.975744 
L 59.649455 70.975744 
L 60.402545 70.975744 
L 61.155636 70.975744 
L 61.908727 70.975744 
L 62.661818 70.975744 
L 63.414909 70.975744 
L 64.168 70.975744 
L 64.921091 70.975744 
L 65.674182 70.975744 
L 66.427273 70.975744 
L 67.180364 70.975744 
L 67.933455 70.975744 
L 68.686545 70.975744 
L 69.439636 70.975744 
L 70.192727 70.975744 
L 70.945818 70.975744 
L 71.698909 70.975744 
L 72.452 70.975744 
L 73.205091 70.975744 
L 73.958182 70.975744 
L 74.711273 70.975744 
L 75.464364 70.975744 
L 76.217455 70.975744 
L 76.970545 70.975744 
L 77.723636 70.975744 
L 78.476727 70.975744 
L 79.229818 70.975744 
L 79.982909 70.975744 
L 80.736 70.975744 
L 81.489091 70.975744 
L 82.242182 70.975744 
L 82.995273 70.975744 
L 83.748364 70.975744 
L 84.501455 70.975744 
L 85.254545 70.975744 
L 86.007636 70.975744 
L 86.760727 70.975744 
L 87.513818 70.975744 
L 88.266909 70.975744 
L 89.02 70.975744 
L 89.773091 70.975744 
L 90.526182 70.975744 
L 91.279273 70.975744 
L 92.032364 70.975744 
L 92.785455 70.975744 
L 93.538545 70.975744 
L 94.291636 70.975744 
L 95.044727 70.975744 
L 95.797818 70.975744 
L 96.550909 70.975744 
L 97.304 70.975744 
L 98.057091 70.975744 
L 98.810182 70.975744 
L 99.563273 70.975744 
L 100.316364 70.975744 
L 101.069455 70.975744 
L 101.822545 70.975744 
L 102.575636 70.975744 
L 103.328727 70.975744 
L 104.081818 70.975744 
L 104.834909 70.975744 
L 105.588 70.975744 
L 106.341091 70.975744 
L 107.094182 70.975744 
L 107.847273 70.975744 
L 108.600364 70.975744 
L 109.353455 70.975744 
L 110.106545 70.975744 
L 110.859636 70.975744 
L 111.612727 70.975744 
L 112.365818 70.975744 
L 113.118909 70.975744 
L 113.872 70.975744 
L 114.625091 70.975744 
L 115.378182 70.975744 
L 116.131273 70.975744 
L 116.884364 70.975744 
L 117.637455 70.975744 
L 118.390545 70.975744 
L 119.143636 70.975744 
L 119.896727 70.975744 
L 120.649818 70.975744 
L 121.402909 70.975744 
L 122.156 70.975744 
L 122.909091 70.975744 
L 123.662182 70.975744 
L 124.415273 70.975744 
L 125.168364 70.975744 
L 125.921455 70.975744 
L 126.674545 70.975744 
" style="fill:none;stroke:#333333;stroke-linecap:round;stroke-width:1.5;"/>
   </g>
   <g id="line2d_19">
    <path clip-path="url(#p23158d3da1)" d="M 51.365455 95.408623 
L 52.118545 95.408623 
L 52.871636 95.408623 
L 53.624727 95.408623 
L 54.377818 95.408623 
L 55.130909 95.408623 
L 55.884 95.408623 
L 56.637091 95.408623 
L 57.390182 95.408623 
L 58.143273 95.408623 
L 58.896364 95.408623 
L 59.649455 95.408623 
L 60.402545 95.408623 
L 61.155636 95.408623 
L 61.908727 95.408623 
L 62.661818 95.408623 
L 63.414909 95.408623 
L 64.168 95.408623 
L 64.921091 95.408623 
L 65.674182 95.408623 
L 66.427273 95.408623 
L 67.180364 95.408623 
L 67.933455 95.408623 
L 68.686545 95.408623 
L 69.439636 95.408623 
L 70.192727 95.408623 
L 70.945818 95.408623 
L 71.698909 95.408623 
L 72.452 95.408623 
L 73.205091 95.408623 
L 73.958182 95.408623 
L 74.711273 95.408623 
L 75.464364 95.408623 
L 76.217455 95.408623 
L 76.970545 95.408623 
L 77.723636 95.408623 
L 78.476727 95.408623 
L 79.229818 95.408623 
L 79.982909 95.408623 
L 80.736 95.408623 
L 81.489091 95.408623 
L 82.242182 95.408623 
L 82.995273 95.408623 
L 83.748364 95.408623 
L 84.501455 95.408623 
L 85.254545 95.408623 
L 86.007636 95.408623 
L 86.760727 95.408623 
L 87.513818 95.408623 
L 88.266909 95.408623 
L 89.02 95.408623 
L 89.773091 95.408623 
L 90.526182 95.408623 
L 91.279273 95.408623 
L 92.032364 95.408623 
L 92.785455 95.408623 
L 93.538545 95.408623 
L 94.291636 95.408623 
L 95.044727 95.408623 
L 95.797818 95.408623 
L 96.550909 95.408623 
L 97.304 95.408623 
L 98.057091 95.408623 
L 98.810182 95.408623 
L 99.563273 95.408623 
L 100.316364 95.408623 
L 101.069455 95.408623 
L 101.822545 95.408623 
L 102.575636 95.408623 
L 103.328727 95.408623 
L 104.081818 95.408623 
L 104.834909 95.408623 
L 105.588 95.408623 
L 106.341091 95.408623 
L 107.094182 95.408623 
L 107.847273 95.408623 
L 108.600364 95.408623 
L 109.353455 95.408623 
L 110.106545 95.408623 
L 110.859636 95.408623 
L 111.612727 95.408623 
L 112.365818 95.408623 
L 113.118909 95.408623 
L 113.872 95.408623 
L 114.625091 95.408623 
L 115.378182 95.408623 
L 116.131273 95.408623 
L 116.884364 95.408623 
L 117.637455 95.408623 
L 118.390545 95.408623 
L 119.143636 95.408623 
L 119.896727 95.408623 
L 120.649818 95.408623 
L 121.402909 95.408623 
L 122.156 95.408623 
L 122.909091 95.408623 
L 123.662182 95.408623 
L 124.415273 95.408623 
L 125.168364 95.408623 
L 125.921455 95.408623 
L 126.674545 95.408623 
" style="fill:none;stroke:#333333;stroke-linecap:round;stroke-width:1.5;"/>
   </g>
   <g id="line2d_20">
    <path clip-path="url(#p23158d3da1)" d="M 51.365455 73.166488 
L 52.118545 73.166488 
L 52.871636 73.166488 
L 53.624727 73.166488 
L 54.377818 73.166488 
L 55.130909 73.166488 
L 55.884 73.166488 
L 56.637091 73.166488 
L 57.390182 73.166488 
L 58.143273 73.166488 
L 58.896364 73.166488 
L 59.649455 73.166488 
L 60.402545 73.166488 
L 61.155636 73.166488 
L 61.908727 73.166488 
L 62.661818 73.166488 
L 63.414909 73.166488 
L 64.168 73.166488 
L 64.921091 73.166488 
L 65.674182 73.166488 
L 66.427273 73.166488 
L 67.180364 73.166488 
L 67.933455 73.166488 
L 68.686545 73.166488 
L 69.439636 73.166488 
L 70.192727 73.166488 
L 70.945818 73.166488 
L 71.698909 73.166488 
L 72.452 73.166488 
L 73.205091 73.166488 
L 73.958182 73.166488 
L 74.711273 73.166488 
L 75.464364 73.166488 
L 76.217455 73.166488 
L 76.970545 73.166488 
L 77.723636 73.166488 
L 78.476727 73.166488 
L 79.229818 73.166488 
L 79.982909 73.166488 
L 80.736 73.166488 
L 81.489091 73.166488 
L 82.242182 73.166488 
L 82.995273 73.166488 
L 83.748364 73.166488 
L 84.501455 73.166488 
L 85.254545 73.166488 
L 86.007636 73.166488 
L 86.760727 73.166488 
L 87.513818 73.166488 
L 88.266909 73.166488 
L 89.02 73.166488 
L 89.773091 73.166488 
L 90.526182 73.166488 
L 91.279273 73.166488 
L 92.032364 73.166488 
L 92.785455 73.166488 
L 93.538545 73.166488 
L 94.291636 73.166488 
L 95.044727 73.166488 
L 95.797818 73.166488 
L 96.550909 73.166488 
L 97.304 73.166488 
L 98.057091 73.166488 
L 98.810182 73.166488 
L 99.563273 73.166488 
L 100.316364 73.166488 
L 101.069455 73.166488 
L 101.822545 73.166488 
L 102.575636 73.166488 
L 103.328727 73.166488 
L 104.081818 73.166488 
L 104.834909 73.166488 
L 105.588 73.166488 
L 106.341091 73.166488 
L 107.094182 73.166488 
L 107.847273 73.166488 
L 108.600364 73.166488 
L 109.353455 73.166488 
L 110.106545 73.166488 
L 110.859636 73.166488 
L 111.612727 73.166488 
L 112.365818 73.166488 
L 113.118909 73.166488 
L 113.872 73.166488 
L 114.625091 73.166488 
L 115.378182 73.166488 
L 116.131273 73.166488 
L 116.884364 73.166488 
L 117.637455 73.166488 
L 118.390545 73.166488 
L 119.143636 73.166488 
L 119.896727 73.166488 
L 120.649818 73.166488 
L 121.402909 73.166488 
L 122.156 73.166488 
L 122.909091 73.166488 
L 123.662182 73.166488 
L 124.415273 73.166488 
L 125.168364 73.166488 
L 125.921455 73.166488 
L 126.674545 73.166488 
" style="fill:none;stroke:#333333;stroke-linecap:round;stroke-width:1.5;"/>
   </g>
  </g>
 </g>
 <defs>
  <clipPath id="p23158d3da1">
   <rect height="88.36" width="82.84" x="47.6" y="13.56"/>
  </clipPath>
 </defs>
</svg>
