<?xml version="1.0" encoding="utf-8" standalone="no"?>
<!DOCTYPE svg PUBLIC "-//W3C//DTD SVG 1.1//EN"
  "http://www.w3.org/Graphics/SVG/1.1/DTD/svg11.dtd">
<!-- Created with matplotlib (http://matplotlib.org/) -->
<svg height="216pt" version="1.1" viewBox="0 0 216 216" width="216pt" xmlns="http://www.w3.org/2000/svg" xmlns:xlink="http://www.w3.org/1999/xlink">
 <defs>
  <style type="text/css">
*{stroke-linecap:butt;stroke-linejoin:round;}
  </style>
 </defs>
 <g id="figure_1">
  <g id="patch_1">
   <path d="M 0 216 
L 216 216 
L 216 0 
L 0 0 
z
" style="fill:#ffffff;"/>
  </g>
  <g id="axes_1">
   <g id="patch_2">
    <path d="M 38.96 175.96 
L 203.52 175.96 
L 203.52 25.44 
L 38.96 25.44 
z
" style="fill:#ffffff;"/>
   </g>
   <g id="matplotlib.axis_1">
    <g id="xtick_1">
     <g id="line2d_1">
      <defs>
       <path d="M 0 0 
L 0 3.5 
" id="m9ead425ee2" style="stroke:#262626;stroke-width:0.8;"/>
      </defs>
      <g>
       <use style="fill:#262626;stroke:#262626;stroke-width:0.8;" x="46.44" xlink:href="#m9ead425ee2" y="175.96"/>
      </g>
     </g>
     <g id="text_1">
      <!-- 2 -->
      <defs>
       <path d="M 50.34375 8.453125 
L 50.34375 0 
L 3.03125 0 
Q 2.9375 3.171875 4.046875 6.109375 
Q 5.859375 10.9375 9.828125 15.625 
Q 13.8125 20.3125 21.34375 26.46875 
Q 33.015625 36.03125 37.109375 41.625 
Q 41.21875 47.21875 41.21875 52.203125 
Q 41.21875 57.421875 37.46875 61 
Q 33.734375 64.59375 27.734375 64.59375 
Q 21.390625 64.59375 17.578125 60.78125 
Q 13.765625 56.984375 13.71875 50.25 
L 4.6875 51.171875 
Q 5.609375 61.28125 11.65625 66.578125 
Q 17.71875 71.875 27.9375 71.875 
Q 38.234375 71.875 44.234375 66.15625 
Q 50.25 60.453125 50.25 52 
Q 50.25 47.703125 48.484375 43.546875 
Q 46.734375 39.40625 42.65625 34.8125 
Q 38.578125 30.21875 29.109375 22.21875 
Q 21.1875 15.578125 18.9375 13.203125 
Q 16.703125 10.84375 15.234375 8.453125 
z
" id="ArialMT-32"/>
      </defs>
      <g style="fill:#262626;" transform="translate(43.659531 190.117812)scale(0.1 -0.1)">
       <use xlink:href="#ArialMT-32"/>
      </g>
     </g>
    </g>
    <g id="xtick_2">
     <g id="line2d_2">
      <g>
       <use style="fill:#262626;stroke:#262626;stroke-width:0.8;" x="76.36" xlink:href="#m9ead425ee2" y="175.96"/>
      </g>
     </g>
     <g id="text_2">
      <!-- 4 -->
      <defs>
       <path d="M 32.328125 0 
L 32.328125 17.140625 
L 1.265625 17.140625 
L 1.265625 25.203125 
L 33.9375 71.578125 
L 41.109375 71.578125 
L 41.109375 25.203125 
L 50.78125 25.203125 
L 50.78125 17.140625 
L 41.109375 17.140625 
L 41.109375 0 
z
M 32.328125 25.203125 
L 32.328125 57.46875 
L 9.90625 25.203125 
z
" id="ArialMT-34"/>
      </defs>
      <g style="fill:#262626;" transform="translate(73.579531 190.117812)scale(0.1 -0.1)">
       <use xlink:href="#ArialMT-34"/>
      </g>
     </g>
    </g>
    <g id="xtick_3">
     <g id="line2d_3">
      <g>
       <use style="fill:#262626;stroke:#262626;stroke-width:0.8;" x="106.28" xlink:href="#m9ead425ee2" y="175.96"/>
      </g>
     </g>
     <g id="text_3">
      <!-- 6 -->
      <defs>
       <path d="M 49.75 54.046875 
L 41.015625 53.375 
Q 39.84375 58.546875 37.703125 60.890625 
Q 34.125 64.65625 28.90625 64.65625 
Q 24.703125 64.65625 21.53125 62.3125 
Q 17.390625 59.28125 14.984375 53.46875 
Q 12.59375 47.65625 12.5 36.921875 
Q 15.671875 41.75 20.265625 44.09375 
Q 24.859375 46.4375 29.890625 46.4375 
Q 38.671875 46.4375 44.84375 39.96875 
Q 51.03125 33.5 51.03125 23.25 
Q 51.03125 16.5 48.125 10.71875 
Q 45.21875 4.9375 40.140625 1.859375 
Q 35.0625 -1.21875 28.609375 -1.21875 
Q 17.625 -1.21875 10.6875 6.859375 
Q 3.765625 14.9375 3.765625 33.5 
Q 3.765625 54.25 11.421875 63.671875 
Q 18.109375 71.875 29.4375 71.875 
Q 37.890625 71.875 43.28125 67.140625 
Q 48.6875 62.40625 49.75 54.046875 
z
M 13.875 23.1875 
Q 13.875 18.65625 15.796875 14.5 
Q 17.71875 10.359375 21.1875 8.171875 
Q 24.65625 6 28.46875 6 
Q 34.03125 6 38.03125 10.484375 
Q 42.046875 14.984375 42.046875 22.703125 
Q 42.046875 30.125 38.078125 34.390625 
Q 34.125 38.671875 28.125 38.671875 
Q 22.171875 38.671875 18.015625 34.390625 
Q 13.875 30.125 13.875 23.1875 
z
" id="ArialMT-36"/>
      </defs>
      <g style="fill:#262626;" transform="translate(103.499531 190.117812)scale(0.1 -0.1)">
       <use xlink:href="#ArialMT-36"/>
      </g>
     </g>
    </g>
    <g id="xtick_4">
     <g id="line2d_4">
      <g>
       <use style="fill:#262626;stroke:#262626;stroke-width:0.8;" x="136.2" xlink:href="#m9ead425ee2" y="175.96"/>
      </g>
     </g>
     <g id="text_4">
      <!-- 8 -->
      <defs>
       <path d="M 17.671875 38.8125 
Q 12.203125 40.828125 9.5625 44.53125 
Q 6.9375 48.25 6.9375 53.421875 
Q 6.9375 61.234375 12.546875 66.546875 
Q 18.171875 71.875 27.484375 71.875 
Q 36.859375 71.875 42.578125 66.421875 
Q 48.296875 60.984375 48.296875 53.171875 
Q 48.296875 48.1875 45.671875 44.5 
Q 43.0625 40.828125 37.75 38.8125 
Q 44.34375 36.671875 47.78125 31.875 
Q 51.21875 27.09375 51.21875 20.453125 
Q 51.21875 11.28125 44.71875 5.03125 
Q 38.234375 -1.21875 27.640625 -1.21875 
Q 17.046875 -1.21875 10.546875 5.046875 
Q 4.046875 11.328125 4.046875 20.703125 
Q 4.046875 27.6875 7.59375 32.390625 
Q 11.140625 37.109375 17.671875 38.8125 
z
M 15.921875 53.71875 
Q 15.921875 48.640625 19.1875 45.40625 
Q 22.46875 42.1875 27.6875 42.1875 
Q 32.765625 42.1875 36.015625 45.375 
Q 39.265625 48.578125 39.265625 53.21875 
Q 39.265625 58.0625 35.90625 61.359375 
Q 32.5625 64.65625 27.59375 64.65625 
Q 22.5625 64.65625 19.234375 61.421875 
Q 15.921875 58.203125 15.921875 53.71875 
z
M 13.09375 20.65625 
Q 13.09375 16.890625 14.875 13.375 
Q 16.65625 9.859375 20.171875 7.921875 
Q 23.6875 6 27.734375 6 
Q 34.03125 6 38.125 10.046875 
Q 42.234375 14.109375 42.234375 20.359375 
Q 42.234375 26.703125 38.015625 30.859375 
Q 33.796875 35.015625 27.4375 35.015625 
Q 21.234375 35.015625 17.15625 30.90625 
Q 13.09375 26.8125 13.09375 20.65625 
z
" id="ArialMT-38"/>
      </defs>
      <g style="fill:#262626;" transform="translate(133.419531 190.117812)scale(0.1 -0.1)">
       <use xlink:href="#ArialMT-38"/>
      </g>
     </g>
    </g>
    <g id="xtick_5">
     <g id="line2d_5">
      <g>
       <use style="fill:#262626;stroke:#262626;stroke-width:0.8;" x="166.12" xlink:href="#m9ead425ee2" y="175.96"/>
      </g>
     </g>
     <g id="text_5">
      <!-- 10 -->
      <defs>
       <path d="M 37.25 0 
L 28.46875 0 
L 28.46875 56 
Q 25.296875 52.984375 20.140625 49.953125 
Q 14.984375 46.921875 10.890625 45.40625 
L 10.890625 53.90625 
Q 18.265625 57.375 23.78125 62.296875 
Q 29.296875 67.234375 31.59375 71.875 
L 37.25 71.875 
z
" id="ArialMT-31"/>
       <path d="M 4.15625 35.296875 
Q 4.15625 48 6.765625 55.734375 
Q 9.375 63.484375 14.515625 67.671875 
Q 19.671875 71.875 27.484375 71.875 
Q 33.25 71.875 37.59375 69.546875 
Q 41.9375 67.234375 44.765625 62.859375 
Q 47.609375 58.5 49.21875 52.21875 
Q 50.828125 45.953125 50.828125 35.296875 
Q 50.828125 22.703125 48.234375 14.96875 
Q 45.65625 7.234375 40.5 3 
Q 35.359375 -1.21875 27.484375 -1.21875 
Q 17.140625 -1.21875 11.234375 6.203125 
Q 4.15625 15.140625 4.15625 35.296875 
z
M 13.1875 35.296875 
Q 13.1875 17.671875 17.3125 11.828125 
Q 21.4375 6 27.484375 6 
Q 33.546875 6 37.671875 11.859375 
Q 41.796875 17.71875 41.796875 35.296875 
Q 41.796875 52.984375 37.671875 58.78125 
Q 33.546875 64.59375 27.390625 64.59375 
Q 21.34375 64.59375 17.71875 59.46875 
Q 13.1875 52.9375 13.1875 35.296875 
z
" id="ArialMT-30"/>
      </defs>
      <g style="fill:#262626;" transform="translate(160.559062 190.117812)scale(0.1 -0.1)">
       <use xlink:href="#ArialMT-31"/>
       <use x="55.615234" xlink:href="#ArialMT-30"/>
      </g>
     </g>
    </g>
    <g id="xtick_6">
     <g id="line2d_6">
      <g>
       <use style="fill:#262626;stroke:#262626;stroke-width:0.8;" x="196.04" xlink:href="#m9ead425ee2" y="175.96"/>
      </g>
     </g>
     <g id="text_6">
      <!-- 12 -->
      <g style="fill:#262626;" transform="translate(190.479062 190.117812)scale(0.1 -0.1)">
       <use xlink:href="#ArialMT-31"/>
       <use x="55.615234" xlink:href="#ArialMT-32"/>
      </g>
     </g>
    </g>
    <g id="text_7">
     <!-- pH -->
     <defs>
      <path d="M 6.59375 -19.875 
L 6.59375 51.859375 
L 14.59375 51.859375 
L 14.59375 45.125 
Q 17.4375 49.078125 21 51.046875 
Q 24.5625 53.03125 29.640625 53.03125 
Q 36.28125 53.03125 41.359375 49.609375 
Q 46.4375 46.1875 49.015625 39.953125 
Q 51.609375 33.734375 51.609375 26.3125 
Q 51.609375 18.359375 48.75 11.984375 
Q 45.90625 5.609375 40.453125 2.21875 
Q 35.015625 -1.171875 29 -1.171875 
Q 24.609375 -1.171875 21.109375 0.6875 
Q 17.625 2.546875 15.375 5.375 
L 15.375 -19.875 
z
M 14.546875 25.640625 
Q 14.546875 15.625 18.59375 10.84375 
Q 22.65625 6.0625 28.421875 6.0625 
Q 34.28125 6.0625 38.453125 11.015625 
Q 42.625 15.96875 42.625 26.375 
Q 42.625 36.28125 38.546875 41.203125 
Q 34.46875 46.140625 28.8125 46.140625 
Q 23.1875 46.140625 18.859375 40.890625 
Q 14.546875 35.640625 14.546875 25.640625 
z
" id="ArialMT-70"/>
      <path d="M 8.015625 0 
L 8.015625 71.578125 
L 17.484375 71.578125 
L 17.484375 42.1875 
L 54.6875 42.1875 
L 54.6875 71.578125 
L 64.15625 71.578125 
L 64.15625 0 
L 54.6875 0 
L 54.6875 33.734375 
L 17.484375 33.734375 
L 17.484375 0 
z
" id="ArialMT-48"/>
     </defs>
     <g style="fill:#262626;" transform="translate(114.848594 203.263125)scale(0.1 -0.1)">
      <use xlink:href="#ArialMT-70"/>
      <use x="55.615234" xlink:href="#ArialMT-48"/>
     </g>
    </g>
   </g>
   <g id="matplotlib.axis_2">
    <g id="ytick_1">
     <g id="line2d_7">
      <defs>
       <path d="M 0 0 
L -3.5 0 
" id="m7b2791ad64" style="stroke:#262626;stroke-width:0.8;"/>
      </defs>
      <g>
       <use style="fill:#262626;stroke:#262626;stroke-width:0.8;" x="38.96" xlink:href="#m7b2791ad64" y="120.642773"/>
      </g>
     </g>
     <g id="text_8">
      <!-- 0 -->
      <g style="fill:#262626;" transform="translate(26.399063 124.221679)scale(0.1 -0.1)">
       <use xlink:href="#ArialMT-30"/>
      </g>
     </g>
    </g>
    <g id="ytick_2">
     <g id="line2d_8">
      <g>
       <use style="fill:#262626;stroke:#262626;stroke-width:0.8;" x="38.96" xlink:href="#m7b2791ad64" y="59.463765"/>
      </g>
     </g>
     <g id="text_9">
      <!-- 1 -->
      <g style="fill:#262626;" transform="translate(26.399063 63.042671)scale(0.1 -0.1)">
       <use xlink:href="#ArialMT-31"/>
      </g>
     </g>
    </g>
    <g id="text_10">
     <!-- $\langle q_\mathsf{total} \rangle$ -->
     <defs>
      <path d="M 8.9375 31.34375 
L 22.703125 75.875 
L 31 75.875 
L 17.234375 31.34375 
L 31 -13.1875 
L 22.703125 -13.1875 
z
" id="DejaVuSans-27e8"/>
      <path d="M 41.703125 8.203125 
Q 38.09375 3.46875 33.171875 1.015625 
Q 28.265625 -1.421875 22.3125 -1.421875 
Q 14.015625 -1.421875 9.296875 4.171875 
Q 4.59375 9.765625 4.59375 19.578125 
Q 4.59375 27.484375 7.5 34.859375 
Q 10.40625 42.234375 15.828125 48.09375 
Q 19.34375 51.90625 23.90625 53.953125 
Q 28.46875 56 33.5 56 
Q 39.546875 56 43.453125 53.609375 
Q 47.359375 51.21875 49.125 46.390625 
L 50.6875 54.59375 
L 59.71875 54.59375 
L 45.125 -20.609375 
L 36.078125 -20.609375 
z
M 13.921875 20.90625 
Q 13.921875 13.671875 16.9375 9.890625 
Q 19.96875 6.109375 25.6875 6.109375 
Q 34.1875 6.109375 40.1875 14.234375 
Q 46.1875 22.359375 46.1875 33.984375 
Q 46.1875 41.015625 43.078125 44.75 
Q 39.984375 48.484375 34.1875 48.484375 
Q 29.9375 48.484375 26.3125 46.5 
Q 22.703125 44.53125 20.015625 40.71875 
Q 17.1875 36.71875 15.546875 31.34375 
Q 13.921875 25.984375 13.921875 20.90625 
z
" id="DejaVuSans-Oblique-71"/>
      <path d="M 18.3125 70.21875 
L 18.3125 54.6875 
L 36.8125 54.6875 
L 36.8125 47.703125 
L 18.3125 47.703125 
L 18.3125 18.015625 
Q 18.3125 11.328125 20.140625 9.421875 
Q 21.96875 7.515625 27.59375 7.515625 
L 36.8125 7.515625 
L 36.8125 0 
L 27.59375 0 
Q 17.1875 0 13.234375 3.875 
Q 9.28125 7.765625 9.28125 18.015625 
L 9.28125 47.703125 
L 2.6875 47.703125 
L 2.6875 54.6875 
L 9.28125 54.6875 
L 9.28125 70.21875 
z
" id="DejaVuSans-74"/>
      <path d="M 30.609375 48.390625 
Q 23.390625 48.390625 19.1875 42.75 
Q 14.984375 37.109375 14.984375 27.296875 
Q 14.984375 17.484375 19.15625 11.84375 
Q 23.34375 6.203125 30.609375 6.203125 
Q 37.796875 6.203125 41.984375 11.859375 
Q 46.1875 17.53125 46.1875 27.296875 
Q 46.1875 37.015625 41.984375 42.703125 
Q 37.796875 48.390625 30.609375 48.390625 
z
M 30.609375 56 
Q 42.328125 56 49.015625 48.375 
Q 55.71875 40.765625 55.71875 27.296875 
Q 55.71875 13.875 49.015625 6.21875 
Q 42.328125 -1.421875 30.609375 -1.421875 
Q 18.84375 -1.421875 12.171875 6.21875 
Q 5.515625 13.875 5.515625 27.296875 
Q 5.515625 40.765625 12.171875 48.375 
Q 18.84375 56 30.609375 56 
z
" id="DejaVuSans-6f"/>
      <path d="M 34.28125 27.484375 
Q 23.390625 27.484375 19.1875 25 
Q 14.984375 22.515625 14.984375 16.5 
Q 14.984375 11.71875 18.140625 8.90625 
Q 21.296875 6.109375 26.703125 6.109375 
Q 34.1875 6.109375 38.703125 11.40625 
Q 43.21875 16.703125 43.21875 25.484375 
L 43.21875 27.484375 
z
M 52.203125 31.203125 
L 52.203125 0 
L 43.21875 0 
L 43.21875 8.296875 
Q 40.140625 3.328125 35.546875 0.953125 
Q 30.953125 -1.421875 24.3125 -1.421875 
Q 15.921875 -1.421875 10.953125 3.296875 
Q 6 8.015625 6 15.921875 
Q 6 25.140625 12.171875 29.828125 
Q 18.359375 34.515625 30.609375 34.515625 
L 43.21875 34.515625 
L 43.21875 35.40625 
Q 43.21875 41.609375 39.140625 45 
Q 35.0625 48.390625 27.6875 48.390625 
Q 23 48.390625 18.546875 47.265625 
Q 14.109375 46.140625 10.015625 43.890625 
L 10.015625 52.203125 
Q 14.9375 54.109375 19.578125 55.046875 
Q 24.21875 56 28.609375 56 
Q 40.484375 56 46.34375 49.84375 
Q 52.203125 43.703125 52.203125 31.203125 
z
" id="DejaVuSans-61"/>
      <path d="M 9.421875 75.984375 
L 18.40625 75.984375 
L 18.40625 0 
L 9.421875 0 
z
" id="DejaVuSans-6c"/>
      <path d="M 30.078125 31.34375 
L 16.3125 -13.1875 
L 8.015625 -13.1875 
L 21.78125 31.34375 
L 8.015625 75.875 
L 16.3125 75.875 
z
" id="DejaVuSans-27e9"/>
     </defs>
     <g style="fill:#262626;" transform="translate(20.299063 115.95)rotate(-90)scale(0.1 -0.1)">
      <use transform="translate(0 0.125)" xlink:href="#DejaVuSans-27e8"/>
      <use transform="translate(39.013672 0.125)" xlink:href="#DejaVuSans-Oblique-71"/>
      <use transform="translate(102.490234 -16.28125)scale(0.7)" xlink:href="#DejaVuSans-74"/>
      <use transform="translate(129.936523 -16.28125)scale(0.7)" xlink:href="#DejaVuSans-6f"/>
      <use transform="translate(172.763672 -16.28125)scale(0.7)" xlink:href="#DejaVuSans-74"/>
      <use transform="translate(200.209961 -16.28125)scale(0.7)" xlink:href="#DejaVuSans-61"/>
      <use transform="translate(243.105469 -16.28125)scale(0.7)" xlink:href="#DejaVuSans-6c"/>
      <use transform="translate(265.288086 0.125)" xlink:href="#DejaVuSans-27e9"/>
     </g>
    </g>
   </g>
   <g id="PolyCollection_1">
    <defs>
     <path d="M 46.44 -170.942878 
L 46.44 -141.309797 
L 47.936 -139.970713 
L 49.432 -138.511358 
L 50.928 -136.931903 
L 52.424 -135.233048 
L 53.92 -133.415878 
L 55.416 -131.48153 
L 56.912 -129.430664 
L 58.408 -127.262812 
L 59.904 -124.97571 
L 61.4 -122.564785 
L 62.896 -120.022955 
L 64.392 -117.340946 
L 65.888 -114.508303 
L 67.384 -111.515223 
L 68.88 -108.355305 
L 70.376 -105.029134 
L 71.872 -101.548422 
L 73.368 -97.940047 
L 74.864 -94.249019 
L 76.36 -90.539249 
L 77.856 -86.891163 
L 79.352 -83.395896 
L 80.848 -80.146777 
L 82.344 -77.22972 
L 83.84 -74.714561 
L 85.336 -72.6491 
L 86.832 -71.056723 
L 88.328 -69.937457 
L 89.824 -69.27155 
L 91.32 -69.02436 
L 92.816 -69.151458 
L 94.312 -69.603192 
L 95.808 -70.32834 
L 97.304 -71.276786 
L 98.8 -72.401295 
L 100.296 -73.658568 
L 101.792 -75.009754 
L 103.288 -76.420576 
L 104.784 -77.861193 
L 106.28 -79.305881 
L 107.776 -80.732566 
L 109.272 -82.122223 
L 110.768 -83.458136 
L 112.264 -84.724986 
L 113.76 -85.907763 
L 115.256 -86.990485 
L 116.752 -87.954852 
L 118.248 -88.77922 
L 119.744 -89.43891 
L 121.24 -89.909559 
L 122.736 -90.174709 
L 124.232 -90.235071 
L 125.728 -90.112272 
L 127.224 -89.842588 
L 128.72 -89.465466 
L 130.216 -89.014812 
L 131.712 -88.515759 
L 133.208 -87.985106 
L 134.704 -87.433124 
L 136.2 -86.865464 
L 137.696 -86.284744 
L 139.192 -85.691724 
L 140.688 -85.086111 
L 142.184 -84.467057 
L 143.68 -83.833413 
L 145.176 -83.183834 
L 146.672 -82.516822 
L 148.168 -81.830766 
L 149.664 -81.124011 
L 151.16 -80.394938 
L 152.656 -79.642033 
L 154.152 -78.863916 
L 155.648 -78.059315 
L 157.144 -77.227012 
L 158.64 -76.365792 
L 160.136 -75.474444 
L 161.632 -74.55183 
L 163.128 -73.597024 
L 164.624 -72.609506 
L 166.12 -71.589366 
L 167.616 -70.537467 
L 169.112 -69.455532 
L 170.608 -68.346121 
L 172.104 -67.212491 
L 173.6 -66.05836 
L 175.096 -64.887598 
L 176.592 -63.70391 
L 178.088 -62.51052 
L 179.584 -61.309898 
L 181.08 -60.1035 
L 182.576 -58.891525 
L 184.072 -57.672678 
L 185.568 -56.443954 
L 187.064 -55.200444 
L 188.56 -53.935196 
L 190.056 -52.639102 
L 191.552 -51.300785 
L 193.048 -49.906471 
L 194.544 -48.439824 
L 196.04 -46.881818 
L 196.04 -136.726279 
L 196.04 -136.726279 
L 194.544 -136.561608 
L 193.048 -136.225968 
L 191.552 -135.745796 
L 190.056 -135.143785 
L 188.56 -134.439102 
L 187.064 -133.64782 
L 185.568 -132.783471 
L 184.072 -131.857631 
L 182.576 -130.880459 
L 181.08 -129.861142 
L 179.584 -128.808215 
L 178.088 -127.729779 
L 176.592 -126.633622 
L 175.096 -125.527282 
L 173.6 -124.418035 
L 172.104 -123.312817 
L 170.608 -122.218074 
L 169.112 -121.139578 
L 167.616 -120.082221 
L 166.12 -119.049866 
L 164.624 -118.045272 
L 163.128 -117.070126 
L 161.632 -116.125176 
L 160.136 -115.210426 
L 158.64 -114.325368 
L 157.144 -113.469198 
L 155.648 -112.640974 
L 154.152 -111.839698 
L 152.656 -111.064328 
L 151.16 -110.31374 
L 149.664 -109.586676 
L 148.168 -108.88173 
L 146.672 -108.197379 
L 145.176 -107.532058 
L 143.68 -106.884246 
L 142.184 -106.25254 
L 140.688 -105.635698 
L 139.192 -105.032688 
L 137.696 -104.442801 
L 136.2 -103.865911 
L 134.704 -103.302983 
L 133.208 -102.756884 
L 131.712 -102.23358 
L 130.216 -101.743732 
L 128.72 -101.304628 
L 127.224 -100.942015 
L 125.728 -100.69057 
L 124.232 -100.590706 
L 122.736 -100.679914 
L 121.24 -100.98135 
L 119.744 -101.49764 
L 118.248 -102.214731 
L 116.752 -103.111283 
L 115.256 -104.166398 
L 113.76 -105.363168 
L 112.264 -106.689218 
L 110.768 -108.135957 
L 109.272 -109.697581 
L 107.776 -111.370199 
L 106.28 -113.151237 
L 104.784 -115.039088 
L 103.288 -117.033005 
L 101.792 -119.133186 
L 100.296 -121.341007 
L 98.8 -123.659329 
L 97.304 -126.092808 
L 95.808 -128.648085 
L 94.312 -131.333745 
L 92.816 -134.159844 
L 91.32 -137.136831 
L 89.824 -140.273669 
L 88.328 -143.575063 
L 86.832 -147.037881 
L 85.336 -150.64714 
L 83.84 -154.37227 
L 82.344 -158.164657 
L 80.848 -161.957551 
L 79.352 -165.669119 
L 77.856 -169.208716 
L 76.36 -172.48549 
L 74.864 -175.417661 
L 73.368 -177.940508 
L 71.872 -180.011537 
L 70.376 -181.612165 
L 68.88 -182.746209 
L 67.384 -183.436125 
L 65.888 -183.718182 
L 64.392 -183.637579 
L 62.896 -183.24419 
L 61.4 -182.589255 
L 59.904 -181.723022 
L 58.408 -180.693187 
L 56.912 -179.543911 
L 55.416 -178.315213 
L 53.92 -177.042618 
L 52.424 -175.756981 
L 50.928 -174.4845 
L 49.432 -173.246882 
L 47.936 -172.061701 
L 46.44 -170.942878 
z
" id="m9236702071" style="stroke:#ffffff;stroke-opacity:0.05;"/>
    </defs>
    <g clip-path="url(#p3e6992e25c)">
     <use style="fill:#b1400d;fill-opacity:0.05;stroke:#ffffff;stroke-opacity:0.05;" x="0" xlink:href="#m9236702071" y="216"/>
    </g>
   </g>
   <g id="line2d_9">
    <path clip-path="url(#p3e6992e25c)" d="M 46.44 59.873663 
L 47.936 59.983793 
L 49.432 60.12088 
L 50.928 60.291798 
L 52.424 60.504985 
L 53.92 60.770752 
L 55.416 61.101628 
L 56.912 61.512712 
L 58.408 62.022001 
L 59.904 62.650634 
L 61.4 63.42298 
L 62.896 64.366428 
L 64.392 65.510738 
L 65.888 66.886758 
L 67.384 68.524326 
L 68.88 70.449243 
L 70.376 72.67935 
L 71.872 75.22002 
L 73.368 78.059723 
L 74.864 81.16666 
L 76.36 84.48763 
L 77.856 87.950061 
L 79.352 91.467493 
L 80.848 94.947836 
L 82.344 98.302811 
L 83.84 101.456584 
L 85.336 104.35188 
L 86.832 106.952698 
L 88.328 109.24374 
L 89.824 111.22739 
L 91.32 112.919404 
L 92.816 114.344349 
L 94.312 115.531532 
L 95.808 116.511787 
L 97.304 117.315203 
L 98.8 117.969688 
L 100.296 118.500213 
L 101.792 118.92853 
L 103.288 119.27321 
L 104.784 119.549859 
L 106.28 119.771441 
L 107.776 119.948618 
L 109.272 120.090098 
L 110.768 120.202953 
L 112.264 120.292898 
L 113.76 120.364534 
L 115.256 120.421559 
L 116.752 120.466933 
L 118.248 120.503024 
L 119.744 120.531725 
L 121.24 120.554546 
L 122.736 120.572688 
L 124.232 120.587112 
L 125.728 120.598579 
L 127.224 120.607698 
L 128.72 120.614953 
L 130.216 120.620728 
L 131.712 120.62533 
L 133.208 120.629005 
L 134.704 120.631947 
L 136.2 120.634312 
L 137.696 120.636227 
L 139.192 120.637794 
L 140.688 120.639096 
L 142.184 120.640202 
L 143.68 120.641171 
L 145.176 120.642054 
L 146.672 120.6429 
L 148.168 120.643752 
L 149.664 120.644656 
L 151.16 120.645661 
L 152.656 120.646819 
L 154.152 120.648193 
L 155.648 120.649856 
L 157.144 120.651895 
L 158.64 120.65442 
L 160.136 120.657565 
L 161.632 120.661497 
L 163.128 120.666425 
L 164.624 120.672611 
L 166.12 120.680384 
L 167.616 120.690156 
L 169.112 120.702445 
L 170.608 120.717903 
L 172.104 120.737346 
L 173.6 120.761802 
L 175.096 120.79256 
L 176.592 120.831234 
L 178.088 120.87985 
L 179.584 120.940943 
L 181.08 121.017679 
L 182.576 121.114008 
L 184.072 121.234845 
L 185.568 121.386287 
L 187.064 121.575868 
L 188.56 121.812851 
L 190.056 122.108556 
L 191.552 122.476709 
L 193.048 122.93378 
L 194.544 123.499284 
L 196.04 124.195952 
" style="fill:none;opacity:0.9;stroke:#b1400d;stroke-linecap:round;stroke-width:1.5;"/>
   </g>
   <g id="line2d_10">
    <path clip-path="url(#p3e6992e25c)" d="M 46.44 59.520807 
L 47.936 59.53556 
L 49.432 59.554122 
L 50.928 59.577474 
L 52.424 59.606847 
L 53.92 59.643786 
L 55.416 59.690225 
L 56.912 59.748589 
L 58.408 59.821905 
L 59.904 59.913954 
L 61.4 60.029442 
L 62.896 60.174209 
L 64.392 60.35548 
L 65.888 60.582146 
L 67.384 60.865091 
L 68.88 61.217528 
L 70.376 61.655355 
L 71.872 62.197458 
L 73.368 62.865919 
L 74.864 63.686027 
L 76.36 64.685959 
L 77.856 65.895955 
L 79.352 67.346815 
L 80.848 69.067526 
L 82.344 71.081955 
L 83.84 73.404707 
L 85.336 76.036549 
L 86.832 78.960179 
L 88.328 82.137406 
L 89.824 85.50888 
L 91.32 88.997165 
L 92.816 92.513169 
L 94.312 95.964946 
L 95.808 99.267111 
L 97.304 102.348867 
L 98.8 105.159157 
L 100.296 107.668343 
L 101.792 109.866796 
L 103.288 111.761366 
L 104.784 113.3709 
L 106.28 114.721771 
L 107.776 115.844034 
L 109.272 116.768498 
L 110.768 117.524715 
L 112.264 118.139775 
L 113.76 118.637699 
L 115.256 119.039277 
L 116.752 119.362168 
L 118.248 119.621154 
L 119.744 119.828475 
L 121.24 119.994178 
L 122.736 120.12645 
L 124.232 120.23193 
L 125.728 120.315977 
L 127.224 120.382904 
L 128.72 120.436172 
L 130.216 120.47855 
L 131.712 120.512254 
L 133.208 120.539052 
L 134.704 120.560356 
L 136.2 120.577289 
L 137.696 120.590745 
L 139.192 120.601439 
L 140.688 120.609936 
L 142.184 120.616686 
L 143.68 120.62205 
L 145.176 120.626311 
L 146.672 120.629696 
L 148.168 120.632385 
L 149.664 120.634521 
L 151.16 120.636218 
L 152.656 120.637566 
L 154.152 120.638637 
L 155.648 120.639488 
L 157.144 120.640163 
L 158.64 120.6407 
L 160.136 120.641126 
L 161.632 120.641465 
L 163.128 120.641734 
L 164.624 120.641948 
L 166.12 120.642117 
L 167.616 120.642252 
L 169.112 120.642359 
L 170.608 120.642444 
L 172.104 120.642512 
L 173.6 120.642566 
L 175.096 120.642608 
L 176.592 120.642642 
L 178.088 120.642669 
L 179.584 120.64269 
L 181.08 120.642707 
L 182.576 120.642721 
L 184.072 120.642732 
L 185.568 120.64274 
L 187.064 120.642747 
L 188.56 120.642752 
L 190.056 120.642756 
L 191.552 120.64276 
L 193.048 120.642763 
L 194.544 120.642765 
L 196.04 120.642766 
" style="fill:none;opacity:0.7;stroke:#000000;stroke-linecap:round;stroke-width:1.5;"/>
   </g>
   <g id="line2d_11">
    <path clip-path="url(#p3e6992e25c)" d="M 46.44 45.057122 
L 47.936 43.938299 
L 49.432 42.753118 
L 50.928 41.5155 
L 52.424 40.243019 
L 53.92 38.957382 
L 55.416 37.684787 
L 56.912 36.456089 
L 58.408 35.306813 
L 59.904 34.276978 
L 61.4 33.410745 
L 62.896 32.75581 
L 64.392 32.362421 
L 65.888 32.281818 
L 67.384 32.563875 
L 68.88 33.253791 
L 70.376 34.387835 
L 71.872 35.988463 
L 73.368 38.059492 
L 74.864 40.582339 
L 76.36 43.51451 
L 77.856 46.791284 
L 79.352 50.330881 
L 80.848 54.042449 
L 82.344 57.835343 
L 83.84 61.62773 
L 85.336 65.35286 
L 86.832 68.962119 
L 88.328 72.424937 
L 89.824 75.726331 
L 91.32 78.863169 
L 92.816 81.840156 
L 94.312 84.666255 
L 95.808 87.351915 
L 97.304 89.907192 
L 98.8 92.340671 
L 100.296 94.658993 
L 101.792 96.866814 
L 103.288 98.966995 
L 104.784 100.960912 
L 106.28 102.848763 
L 107.776 104.629801 
L 109.272 106.302419 
L 110.768 107.864043 
L 112.264 109.310782 
L 113.76 110.636832 
L 115.256 111.833602 
L 116.752 112.888717 
L 118.248 113.785269 
L 119.744 114.50236 
L 121.24 115.01865 
L 122.736 115.320086 
L 124.232 115.409294 
L 125.728 115.30943 
L 127.224 115.057985 
L 128.72 114.695372 
L 130.216 114.256268 
L 131.712 113.76642 
L 133.208 113.243116 
L 134.704 112.697017 
L 136.2 112.134089 
L 137.696 111.557199 
L 139.192 110.967312 
L 140.688 110.364302 
L 142.184 109.74746 
L 143.68 109.115754 
L 145.176 108.467942 
L 146.672 107.802621 
L 148.168 107.11827 
L 149.664 106.413324 
L 151.16 105.68626 
L 152.656 104.935672 
L 154.152 104.160302 
L 155.648 103.359026 
L 157.144 102.530802 
L 158.64 101.674632 
L 160.136 100.789574 
L 161.632 99.874824 
L 163.128 98.929874 
L 164.624 97.954728 
L 166.12 96.950134 
L 167.616 95.917779 
L 169.112 94.860422 
L 170.608 93.781926 
L 172.104 92.687183 
L 173.6 91.581965 
L 175.096 90.472718 
L 176.592 89.366378 
L 178.088 88.270221 
L 179.584 87.191785 
L 181.08 86.138858 
L 182.576 85.119541 
L 184.072 84.142369 
L 185.568 83.216529 
L 187.064 82.35218 
L 188.56 81.560898 
L 190.056 80.856215 
L 191.552 80.254204 
L 193.048 79.774032 
L 194.544 79.438392 
L 196.04 79.273721 
" style="fill:none;opacity:0.45;stroke:#b1400d;stroke-dasharray:2.775,1.2;stroke-dashoffset:0;stroke-width:0.75;"/>
   </g>
   <g id="line2d_12">
    <path clip-path="url(#p3e6992e25c)" d="M 46.44 74.690203 
L 47.936 76.029287 
L 49.432 77.488642 
L 50.928 79.068097 
L 52.424 80.766952 
L 53.92 82.584122 
L 55.416 84.51847 
L 56.912 86.569336 
L 58.408 88.737188 
L 59.904 91.02429 
L 61.4 93.435215 
L 62.896 95.977045 
L 64.392 98.659054 
L 65.888 101.491697 
L 67.384 104.484777 
L 68.88 107.644695 
L 70.376 110.970866 
L 71.872 114.451578 
L 73.368 118.059953 
L 74.864 121.750981 
L 76.36 125.460751 
L 77.856 129.108837 
L 79.352 132.604104 
L 80.848 135.853223 
L 82.344 138.77028 
L 83.84 141.285439 
L 85.336 143.3509 
L 86.832 144.943277 
L 88.328 146.062543 
L 89.824 146.72845 
L 91.32 146.97564 
L 92.816 146.848542 
L 94.312 146.396808 
L 95.808 145.67166 
L 97.304 144.723214 
L 98.8 143.598705 
L 100.296 142.341432 
L 101.792 140.990246 
L 103.288 139.579424 
L 104.784 138.138807 
L 106.28 136.694119 
L 107.776 135.267434 
L 109.272 133.877777 
L 110.768 132.541864 
L 112.264 131.275014 
L 113.76 130.092237 
L 115.256 129.009515 
L 116.752 128.045148 
L 118.248 127.22078 
L 119.744 126.56109 
L 121.24 126.090441 
L 122.736 125.825291 
L 124.232 125.764929 
L 125.728 125.887728 
L 127.224 126.157412 
L 128.72 126.534534 
L 130.216 126.985188 
L 131.712 127.484241 
L 133.208 128.014894 
L 134.704 128.566876 
L 136.2 129.134536 
L 137.696 129.715256 
L 139.192 130.308276 
L 140.688 130.913889 
L 142.184 131.532943 
L 143.68 132.166587 
L 145.176 132.816166 
L 146.672 133.483178 
L 148.168 134.169234 
L 149.664 134.875989 
L 151.16 135.605062 
L 152.656 136.357967 
L 154.152 137.136084 
L 155.648 137.940685 
L 157.144 138.772988 
L 158.64 139.634208 
L 160.136 140.525556 
L 161.632 141.44817 
L 163.128 142.402976 
L 164.624 143.390494 
L 166.12 144.410634 
L 167.616 145.462533 
L 169.112 146.544468 
L 170.608 147.653879 
L 172.104 148.787509 
L 173.6 149.94164 
L 175.096 151.112402 
L 176.592 152.29609 
L 178.088 153.48948 
L 179.584 154.690102 
L 181.08 155.8965 
L 182.576 157.108475 
L 184.072 158.327322 
L 185.568 159.556046 
L 187.064 160.799556 
L 188.56 162.064804 
L 190.056 163.360898 
L 191.552 164.699215 
L 193.048 166.093529 
L 194.544 167.560176 
L 196.04 169.118182 
" style="fill:none;opacity:0.45;stroke:#b1400d;stroke-dasharray:2.775,1.2;stroke-dashoffset:0;stroke-width:0.75;"/>
   </g>
   <g id="patch_3">
    <path d="M 38.96 175.96 
L 38.96 25.44 
" style="fill:none;stroke:#262626;stroke-linecap:square;stroke-linejoin:miter;stroke-width:0.8;"/>
   </g>
   <g id="patch_4">
    <path d="M 38.96 175.96 
L 203.52 175.96 
" style="fill:none;stroke:#262626;stroke-linecap:square;stroke-linejoin:miter;stroke-width:0.8;"/>
   </g>
   <g id="text_11">
    <!-- Epik-macro SM02 -->
    <defs>
     <path d="M 7.90625 0 
L 7.90625 71.578125 
L 59.671875 71.578125 
L 59.671875 63.140625 
L 17.390625 63.140625 
L 17.390625 41.21875 
L 56.984375 41.21875 
L 56.984375 32.8125 
L 17.390625 32.8125 
L 17.390625 8.453125 
L 61.328125 8.453125 
L 61.328125 0 
z
" id="ArialMT-45"/>
     <path d="M 6.640625 61.46875 
L 6.640625 71.578125 
L 15.4375 71.578125 
L 15.4375 61.46875 
z
M 6.640625 0 
L 6.640625 51.859375 
L 15.4375 51.859375 
L 15.4375 0 
z
" id="ArialMT-69"/>
     <path d="M 6.640625 0 
L 6.640625 71.578125 
L 15.4375 71.578125 
L 15.4375 30.765625 
L 36.234375 51.859375 
L 47.609375 51.859375 
L 27.78125 32.625 
L 49.609375 0 
L 38.765625 0 
L 21.625 26.515625 
L 15.4375 20.5625 
L 15.4375 0 
z
" id="ArialMT-6b"/>
     <path d="M 3.171875 21.484375 
L 3.171875 30.328125 
L 30.171875 30.328125 
L 30.171875 21.484375 
z
" id="ArialMT-2d"/>
     <path d="M 6.59375 0 
L 6.59375 51.859375 
L 14.453125 51.859375 
L 14.453125 44.578125 
Q 16.890625 48.390625 20.9375 50.703125 
Q 25 53.03125 30.171875 53.03125 
Q 35.9375 53.03125 39.625 50.640625 
Q 43.3125 48.25 44.828125 43.953125 
Q 50.984375 53.03125 60.84375 53.03125 
Q 68.5625 53.03125 72.703125 48.75 
Q 76.859375 44.484375 76.859375 35.59375 
L 76.859375 0 
L 68.109375 0 
L 68.109375 32.671875 
Q 68.109375 37.9375 67.25 40.25 
Q 66.40625 42.578125 64.15625 43.984375 
Q 61.921875 45.40625 58.890625 45.40625 
Q 53.421875 45.40625 49.796875 41.765625 
Q 46.1875 38.140625 46.1875 30.125 
L 46.1875 0 
L 37.40625 0 
L 37.40625 33.6875 
Q 37.40625 39.546875 35.25 42.46875 
Q 33.109375 45.40625 28.21875 45.40625 
Q 24.515625 45.40625 21.359375 43.453125 
Q 18.21875 41.5 16.796875 37.734375 
Q 15.375 33.984375 15.375 26.90625 
L 15.375 0 
z
" id="ArialMT-6d"/>
     <path d="M 40.4375 6.390625 
Q 35.546875 2.25 31.03125 0.53125 
Q 26.515625 -1.171875 21.34375 -1.171875 
Q 12.796875 -1.171875 8.203125 3 
Q 3.609375 7.171875 3.609375 13.671875 
Q 3.609375 17.484375 5.34375 20.625 
Q 7.078125 23.78125 9.890625 25.6875 
Q 12.703125 27.59375 16.21875 28.5625 
Q 18.796875 29.25 24.03125 29.890625 
Q 34.671875 31.15625 39.703125 32.90625 
Q 39.75 34.71875 39.75 35.203125 
Q 39.75 40.578125 37.25 42.78125 
Q 33.890625 45.75 27.25 45.75 
Q 21.046875 45.75 18.09375 43.578125 
Q 15.140625 41.40625 13.71875 35.890625 
L 5.125 37.0625 
Q 6.296875 42.578125 8.984375 45.96875 
Q 11.671875 49.359375 16.75 51.1875 
Q 21.828125 53.03125 28.515625 53.03125 
Q 35.15625 53.03125 39.296875 51.46875 
Q 43.453125 49.90625 45.40625 47.53125 
Q 47.359375 45.171875 48.140625 41.546875 
Q 48.578125 39.3125 48.578125 33.453125 
L 48.578125 21.734375 
Q 48.578125 9.46875 49.140625 6.21875 
Q 49.703125 2.984375 51.375 0 
L 42.1875 0 
Q 40.828125 2.734375 40.4375 6.390625 
z
M 39.703125 26.03125 
Q 34.90625 24.078125 25.34375 22.703125 
Q 19.921875 21.921875 17.671875 20.9375 
Q 15.4375 19.96875 14.203125 18.09375 
Q 12.984375 16.21875 12.984375 13.921875 
Q 12.984375 10.40625 15.640625 8.0625 
Q 18.3125 5.71875 23.4375 5.71875 
Q 28.515625 5.71875 32.46875 7.9375 
Q 36.421875 10.15625 38.28125 14.015625 
Q 39.703125 17 39.703125 22.796875 
z
" id="ArialMT-61"/>
     <path d="M 40.4375 19 
L 49.078125 17.875 
Q 47.65625 8.9375 41.8125 3.875 
Q 35.984375 -1.171875 27.484375 -1.171875 
Q 16.84375 -1.171875 10.375 5.78125 
Q 3.90625 12.75 3.90625 25.734375 
Q 3.90625 34.125 6.6875 40.421875 
Q 9.46875 46.734375 15.15625 49.875 
Q 20.84375 53.03125 27.546875 53.03125 
Q 35.984375 53.03125 41.359375 48.75 
Q 46.734375 44.484375 48.25 36.625 
L 39.703125 35.296875 
Q 38.484375 40.53125 35.375 43.15625 
Q 32.28125 45.796875 27.875 45.796875 
Q 21.234375 45.796875 17.078125 41.03125 
Q 12.9375 36.28125 12.9375 25.984375 
Q 12.9375 15.53125 16.9375 10.796875 
Q 20.953125 6.0625 27.390625 6.0625 
Q 32.5625 6.0625 36.03125 9.234375 
Q 39.5 12.40625 40.4375 19 
z
" id="ArialMT-63"/>
     <path d="M 6.5 0 
L 6.5 51.859375 
L 14.40625 51.859375 
L 14.40625 44 
Q 17.4375 49.515625 20 51.265625 
Q 22.5625 53.03125 25.640625 53.03125 
Q 30.078125 53.03125 34.671875 50.203125 
L 31.640625 42.046875 
Q 28.421875 43.953125 25.203125 43.953125 
Q 22.3125 43.953125 20.015625 42.21875 
Q 17.71875 40.484375 16.75 37.40625 
Q 15.28125 32.71875 15.28125 27.15625 
L 15.28125 0 
z
" id="ArialMT-72"/>
     <path d="M 3.328125 25.921875 
Q 3.328125 40.328125 11.328125 47.265625 
Q 18.015625 53.03125 27.640625 53.03125 
Q 38.328125 53.03125 45.109375 46.015625 
Q 51.90625 39.015625 51.90625 26.65625 
Q 51.90625 16.65625 48.90625 10.90625 
Q 45.90625 5.171875 40.15625 2 
Q 34.421875 -1.171875 27.640625 -1.171875 
Q 16.75 -1.171875 10.03125 5.8125 
Q 3.328125 12.796875 3.328125 25.921875 
z
M 12.359375 25.921875 
Q 12.359375 15.96875 16.703125 11.015625 
Q 21.046875 6.0625 27.640625 6.0625 
Q 34.1875 6.0625 38.53125 11.03125 
Q 42.875 16.015625 42.875 26.21875 
Q 42.875 35.84375 38.5 40.796875 
Q 34.125 45.75 27.640625 45.75 
Q 21.046875 45.75 16.703125 40.8125 
Q 12.359375 35.890625 12.359375 25.921875 
z
" id="ArialMT-6f"/>
     <path id="ArialMT-20"/>
     <path d="M 4.5 23 
L 13.421875 23.78125 
Q 14.0625 18.40625 16.375 14.96875 
Q 18.703125 11.53125 23.578125 9.40625 
Q 28.46875 7.28125 34.578125 7.28125 
Q 39.984375 7.28125 44.140625 8.890625 
Q 48.296875 10.5 50.3125 13.296875 
Q 52.34375 16.109375 52.34375 19.4375 
Q 52.34375 22.796875 50.390625 25.3125 
Q 48.4375 27.828125 43.953125 29.546875 
Q 41.0625 30.671875 31.203125 33.03125 
Q 21.34375 35.40625 17.390625 37.5 
Q 12.25 40.1875 9.734375 44.15625 
Q 7.234375 48.140625 7.234375 53.078125 
Q 7.234375 58.5 10.296875 63.203125 
Q 13.375 67.921875 19.28125 70.359375 
Q 25.203125 72.796875 32.421875 72.796875 
Q 40.375 72.796875 46.453125 70.234375 
Q 52.546875 67.671875 55.8125 62.6875 
Q 59.078125 57.71875 59.328125 51.421875 
L 50.25 50.734375 
Q 49.515625 57.515625 45.28125 60.984375 
Q 41.0625 64.453125 32.8125 64.453125 
Q 24.21875 64.453125 20.28125 61.296875 
Q 16.359375 58.15625 16.359375 53.71875 
Q 16.359375 49.859375 19.140625 47.359375 
Q 21.875 44.875 33.421875 42.265625 
Q 44.96875 39.65625 49.265625 37.703125 
Q 55.515625 34.8125 58.484375 30.390625 
Q 61.46875 25.984375 61.46875 20.21875 
Q 61.46875 14.5 58.203125 9.4375 
Q 54.9375 4.390625 48.796875 1.578125 
Q 42.671875 -1.21875 35.015625 -1.21875 
Q 25.296875 -1.21875 18.71875 1.609375 
Q 12.15625 4.4375 8.421875 10.125 
Q 4.6875 15.828125 4.5 23 
z
" id="ArialMT-53"/>
     <path d="M 7.421875 0 
L 7.421875 71.578125 
L 21.6875 71.578125 
L 38.625 20.90625 
Q 40.96875 13.8125 42.046875 10.296875 
Q 43.265625 14.203125 45.84375 21.78125 
L 62.984375 71.578125 
L 75.734375 71.578125 
L 75.734375 0 
L 66.609375 0 
L 66.609375 59.90625 
L 45.796875 0 
L 37.25 0 
L 16.546875 60.9375 
L 16.546875 0 
z
" id="ArialMT-4d"/>
    </defs>
    <g style="fill:#262626;" transform="translate(73.561562 19.44)scale(0.12 -0.12)">
     <use xlink:href="#ArialMT-45"/>
     <use x="66.699219" xlink:href="#ArialMT-70"/>
     <use x="122.314453" xlink:href="#ArialMT-69"/>
     <use x="144.53125" xlink:href="#ArialMT-6b"/>
     <use x="194.53125" xlink:href="#ArialMT-2d"/>
     <use x="227.832031" xlink:href="#ArialMT-6d"/>
     <use x="311.132812" xlink:href="#ArialMT-61"/>
     <use x="366.748047" xlink:href="#ArialMT-63"/>
     <use x="416.748047" xlink:href="#ArialMT-72"/>
     <use x="450.048828" xlink:href="#ArialMT-6f"/>
     <use x="505.664062" xlink:href="#ArialMT-20"/>
     <use x="533.447266" xlink:href="#ArialMT-53"/>
     <use x="600.146484" xlink:href="#ArialMT-4d"/>
     <use x="683.447266" xlink:href="#ArialMT-30"/>
     <use x="739.0625" xlink:href="#ArialMT-32"/>
    </g>
   </g>
  </g>
 </g>
 <defs>
  <clipPath id="p3e6992e25c">
   <rect height="150.52" width="164.56" x="38.96" y="25.44"/>
  </clipPath>
 </defs>
</svg>
