<?xml version="1.0" encoding="utf-8" standalone="no"?>
<!DOCTYPE svg PUBLIC "-//W3C//DTD SVG 1.1//EN"
  "http://www.w3.org/Graphics/SVG/1.1/DTD/svg11.dtd">
<!-- Created with matplotlib (http://matplotlib.org/) -->
<svg height="144pt" version="1.1" viewBox="0 0 144 144" width="144pt" xmlns="http://www.w3.org/2000/svg" xmlns:xlink="http://www.w3.org/1999/xlink">
 <defs>
  <style type="text/css">
*{stroke-linecap:butt;stroke-linejoin:round;}
  </style>
 </defs>
 <g id="figure_1">
  <g id="patch_1">
   <path d="M 0 144 
L 144 144 
L 144 0 
L 0 0 
z
" style="fill:#ffffff;"/>
  </g>
  <g id="axes_1">
   <g id="patch_2">
    <path d="M 47.54 101.92 
L 130.44 101.92 
L 130.44 13.56 
L 47.54 13.56 
z
" style="fill:#ffffff;"/>
   </g>
   <g id="matplotlib.axis_1">
    <g id="xtick_1">
     <g id="line2d_1">
      <defs>
       <path d="M 0 0 
L 0 3.5 
" id="mef0a86c242" style="stroke:#262626;stroke-width:0.8;"/>
      </defs>
      <g>
       <use style="fill:#262626;stroke:#262626;stroke-width:0.8;" x="51.308182" xlink:href="#mef0a86c242" y="101.92"/>
      </g>
     </g>
     <g id="text_1">
      <!-- 2 -->
      <defs>
       <path d="M 50.34375 8.453125 
L 50.34375 0 
L 3.03125 0 
Q 2.9375 3.171875 4.046875 6.109375 
Q 5.859375 10.9375 9.828125 15.625 
Q 13.8125 20.3125 21.34375 26.46875 
Q 33.015625 36.03125 37.109375 41.625 
Q 41.21875 47.21875 41.21875 52.203125 
Q 41.21875 57.421875 37.46875 61 
Q 33.734375 64.59375 27.734375 64.59375 
Q 21.390625 64.59375 17.578125 60.78125 
Q 13.765625 56.984375 13.71875 50.25 
L 4.6875 51.171875 
Q 5.609375 61.28125 11.65625 66.578125 
Q 17.71875 71.875 27.9375 71.875 
Q 38.234375 71.875 44.234375 66.15625 
Q 50.25 60.453125 50.25 52 
Q 50.25 47.703125 48.484375 43.546875 
Q 46.734375 39.40625 42.65625 34.8125 
Q 38.578125 30.21875 29.109375 22.21875 
Q 21.1875 15.578125 18.9375 13.203125 
Q 16.703125 10.84375 15.234375 8.453125 
z
" id="ArialMT-32"/>
      </defs>
      <g style="fill:#262626;" transform="translate(48.249666 116.793594)scale(0.11 -0.11)">
       <use xlink:href="#ArialMT-32"/>
      </g>
     </g>
    </g>
    <g id="xtick_2">
     <g id="line2d_2">
      <g>
       <use style="fill:#262626;stroke:#262626;stroke-width:0.8;" x="66.380909" xlink:href="#mef0a86c242" y="101.92"/>
      </g>
     </g>
     <g id="text_2">
      <!-- 4 -->
      <defs>
       <path d="M 32.328125 0 
L 32.328125 17.140625 
L 1.265625 17.140625 
L 1.265625 25.203125 
L 33.9375 71.578125 
L 41.109375 71.578125 
L 41.109375 25.203125 
L 50.78125 25.203125 
L 50.78125 17.140625 
L 41.109375 17.140625 
L 41.109375 0 
z
M 32.328125 25.203125 
L 32.328125 57.46875 
L 9.90625 25.203125 
z
" id="ArialMT-34"/>
      </defs>
      <g style="fill:#262626;" transform="translate(63.322393 116.793594)scale(0.11 -0.11)">
       <use xlink:href="#ArialMT-34"/>
      </g>
     </g>
    </g>
    <g id="xtick_3">
     <g id="line2d_3">
      <g>
       <use style="fill:#262626;stroke:#262626;stroke-width:0.8;" x="81.453636" xlink:href="#mef0a86c242" y="101.92"/>
      </g>
     </g>
     <g id="text_3">
      <!-- 6 -->
      <defs>
       <path d="M 49.75 54.046875 
L 41.015625 53.375 
Q 39.84375 58.546875 37.703125 60.890625 
Q 34.125 64.65625 28.90625 64.65625 
Q 24.703125 64.65625 21.53125 62.3125 
Q 17.390625 59.28125 14.984375 53.46875 
Q 12.59375 47.65625 12.5 36.921875 
Q 15.671875 41.75 20.265625 44.09375 
Q 24.859375 46.4375 29.890625 46.4375 
Q 38.671875 46.4375 44.84375 39.96875 
Q 51.03125 33.5 51.03125 23.25 
Q 51.03125 16.5 48.125 10.71875 
Q 45.21875 4.9375 40.140625 1.859375 
Q 35.0625 -1.21875 28.609375 -1.21875 
Q 17.625 -1.21875 10.6875 6.859375 
Q 3.765625 14.9375 3.765625 33.5 
Q 3.765625 54.25 11.421875 63.671875 
Q 18.109375 71.875 29.4375 71.875 
Q 37.890625 71.875 43.28125 67.140625 
Q 48.6875 62.40625 49.75 54.046875 
z
M 13.875 23.1875 
Q 13.875 18.65625 15.796875 14.5 
Q 17.71875 10.359375 21.1875 8.171875 
Q 24.65625 6 28.46875 6 
Q 34.03125 6 38.03125 10.484375 
Q 42.046875 14.984375 42.046875 22.703125 
Q 42.046875 30.125 38.078125 34.390625 
Q 34.125 38.671875 28.125 38.671875 
Q 22.171875 38.671875 18.015625 34.390625 
Q 13.875 30.125 13.875 23.1875 
z
" id="ArialMT-36"/>
      </defs>
      <g style="fill:#262626;" transform="translate(78.395121 116.793594)scale(0.11 -0.11)">
       <use xlink:href="#ArialMT-36"/>
      </g>
     </g>
    </g>
    <g id="xtick_4">
     <g id="line2d_4">
      <g>
       <use style="fill:#262626;stroke:#262626;stroke-width:0.8;" x="96.526364" xlink:href="#mef0a86c242" y="101.92"/>
      </g>
     </g>
     <g id="text_4">
      <!-- 8 -->
      <defs>
       <path d="M 17.671875 38.8125 
Q 12.203125 40.828125 9.5625 44.53125 
Q 6.9375 48.25 6.9375 53.421875 
Q 6.9375 61.234375 12.546875 66.546875 
Q 18.171875 71.875 27.484375 71.875 
Q 36.859375 71.875 42.578125 66.421875 
Q 48.296875 60.984375 48.296875 53.171875 
Q 48.296875 48.1875 45.671875 44.5 
Q 43.0625 40.828125 37.75 38.8125 
Q 44.34375 36.671875 47.78125 31.875 
Q 51.21875 27.09375 51.21875 20.453125 
Q 51.21875 11.28125 44.71875 5.03125 
Q 38.234375 -1.21875 27.640625 -1.21875 
Q 17.046875 -1.21875 10.546875 5.046875 
Q 4.046875 11.328125 4.046875 20.703125 
Q 4.046875 27.6875 7.59375 32.390625 
Q 11.140625 37.109375 17.671875 38.8125 
z
M 15.921875 53.71875 
Q 15.921875 48.640625 19.1875 45.40625 
Q 22.46875 42.1875 27.6875 42.1875 
Q 32.765625 42.1875 36.015625 45.375 
Q 39.265625 48.578125 39.265625 53.21875 
Q 39.265625 58.0625 35.90625 61.359375 
Q 32.5625 64.65625 27.59375 64.65625 
Q 22.5625 64.65625 19.234375 61.421875 
Q 15.921875 58.203125 15.921875 53.71875 
z
M 13.09375 20.65625 
Q 13.09375 16.890625 14.875 13.375 
Q 16.65625 9.859375 20.171875 7.921875 
Q 23.6875 6 27.734375 6 
Q 34.03125 6 38.125 10.046875 
Q 42.234375 14.109375 42.234375 20.359375 
Q 42.234375 26.703125 38.015625 30.859375 
Q 33.796875 35.015625 27.4375 35.015625 
Q 21.234375 35.015625 17.15625 30.90625 
Q 13.09375 26.8125 13.09375 20.65625 
z
" id="ArialMT-38"/>
      </defs>
      <g style="fill:#262626;" transform="translate(93.467848 116.793594)scale(0.11 -0.11)">
       <use xlink:href="#ArialMT-38"/>
      </g>
     </g>
    </g>
    <g id="xtick_5">
     <g id="line2d_5">
      <g>
       <use style="fill:#262626;stroke:#262626;stroke-width:0.8;" x="111.599091" xlink:href="#mef0a86c242" y="101.92"/>
      </g>
     </g>
     <g id="text_5">
      <!-- 10 -->
      <defs>
       <path d="M 37.25 0 
L 28.46875 0 
L 28.46875 56 
Q 25.296875 52.984375 20.140625 49.953125 
Q 14.984375 46.921875 10.890625 45.40625 
L 10.890625 53.90625 
Q 18.265625 57.375 23.78125 62.296875 
Q 29.296875 67.234375 31.59375 71.875 
L 37.25 71.875 
z
" id="ArialMT-31"/>
       <path d="M 4.15625 35.296875 
Q 4.15625 48 6.765625 55.734375 
Q 9.375 63.484375 14.515625 67.671875 
Q 19.671875 71.875 27.484375 71.875 
Q 33.25 71.875 37.59375 69.546875 
Q 41.9375 67.234375 44.765625 62.859375 
Q 47.609375 58.5 49.21875 52.21875 
Q 50.828125 45.953125 50.828125 35.296875 
Q 50.828125 22.703125 48.234375 14.96875 
Q 45.65625 7.234375 40.5 3 
Q 35.359375 -1.21875 27.484375 -1.21875 
Q 17.140625 -1.21875 11.234375 6.203125 
Q 4.15625 15.140625 4.15625 35.296875 
z
M 13.1875 35.296875 
Q 13.1875 17.671875 17.3125 11.828125 
Q 21.4375 6 27.484375 6 
Q 33.546875 6 37.671875 11.859375 
Q 41.796875 17.71875 41.796875 35.296875 
Q 41.796875 52.984375 37.671875 58.78125 
Q 33.546875 64.59375 27.390625 64.59375 
Q 21.34375 64.59375 17.71875 59.46875 
Q 13.1875 52.9375 13.1875 35.296875 
z
" id="ArialMT-30"/>
      </defs>
      <g style="fill:#262626;" transform="translate(105.48206 116.793594)scale(0.11 -0.11)">
       <use xlink:href="#ArialMT-31"/>
       <use x="55.615234" xlink:href="#ArialMT-30"/>
      </g>
     </g>
    </g>
    <g id="xtick_6">
     <g id="line2d_6">
      <g>
       <use style="fill:#262626;stroke:#262626;stroke-width:0.8;" x="126.671818" xlink:href="#mef0a86c242" y="101.92"/>
      </g>
     </g>
     <g id="text_6">
      <!-- 12 -->
      <g style="fill:#262626;" transform="translate(120.554787 116.793594)scale(0.11 -0.11)">
       <use xlink:href="#ArialMT-31"/>
       <use x="55.615234" xlink:href="#ArialMT-32"/>
      </g>
     </g>
    </g>
    <g id="text_7">
     <!-- pH -->
     <defs>
      <path d="M 6.59375 -19.875 
L 6.59375 51.859375 
L 14.59375 51.859375 
L 14.59375 45.125 
Q 17.4375 49.078125 21 51.046875 
Q 24.5625 53.03125 29.640625 53.03125 
Q 36.28125 53.03125 41.359375 49.609375 
Q 46.4375 46.1875 49.015625 39.953125 
Q 51.609375 33.734375 51.609375 26.3125 
Q 51.609375 18.359375 48.75 11.984375 
Q 45.90625 5.609375 40.453125 2.21875 
Q 35.015625 -1.171875 29 -1.171875 
Q 24.609375 -1.171875 21.109375 0.6875 
Q 17.625 2.546875 15.375 5.375 
L 15.375 -19.875 
z
M 14.546875 25.640625 
Q 14.546875 15.625 18.59375 10.84375 
Q 22.65625 6.0625 28.421875 6.0625 
Q 34.28125 6.0625 38.453125 11.015625 
Q 42.625 15.96875 42.625 26.375 
Q 42.625 36.28125 38.546875 41.203125 
Q 34.46875 46.140625 28.8125 46.140625 
Q 23.1875 46.140625 18.859375 40.890625 
Q 14.546875 35.640625 14.546875 25.640625 
z
" id="ArialMT-70"/>
      <path d="M 8.015625 0 
L 8.015625 71.578125 
L 17.484375 71.578125 
L 17.484375 42.1875 
L 54.6875 42.1875 
L 54.6875 71.578125 
L 64.15625 71.578125 
L 64.15625 0 
L 54.6875 0 
L 54.6875 33.734375 
L 17.484375 33.734375 
L 17.484375 0 
z
" id="ArialMT-48"/>
     </defs>
     <g style="fill:#262626;" transform="translate(81.959453 130.853437)scale(0.11 -0.11)">
      <use xlink:href="#ArialMT-70"/>
      <use x="55.615234" xlink:href="#ArialMT-48"/>
     </g>
    </g>
   </g>
   <g id="matplotlib.axis_2">
    <g id="ytick_1">
     <g id="line2d_7">
      <defs>
       <path d="M 0 0 
L -3.5 0 
" id="md50e873fcc" style="stroke:#262626;stroke-width:0.8;"/>
      </defs>
      <g>
       <use style="fill:#262626;stroke:#262626;stroke-width:0.8;" x="47.54" xlink:href="#md50e873fcc" y="80.966094"/>
      </g>
     </g>
     <g id="text_8">
      <!-- 0 -->
      <g style="fill:#262626;" transform="translate(34.422969 84.902891)scale(0.11 -0.11)">
       <use xlink:href="#ArialMT-30"/>
      </g>
     </g>
    </g>
    <g id="ytick_2">
     <g id="line2d_8">
      <g>
       <use style="fill:#262626;stroke:#262626;stroke-width:0.8;" x="47.54" xlink:href="#md50e873fcc" y="46.079297"/>
      </g>
     </g>
     <g id="text_9">
      <!-- 20 -->
      <g style="fill:#262626;" transform="translate(28.305938 50.016094)scale(0.11 -0.11)">
       <use xlink:href="#ArialMT-32"/>
       <use x="55.615234" xlink:href="#ArialMT-30"/>
      </g>
     </g>
    </g>
    <g id="text_10">
     <!-- Free energy ($k_B T$) -->
     <defs>
      <path d="M 8.203125 0 
L 8.203125 71.578125 
L 56.5 71.578125 
L 56.5 63.140625 
L 17.671875 63.140625 
L 17.671875 40.96875 
L 51.265625 40.96875 
L 51.265625 32.515625 
L 17.671875 32.515625 
L 17.671875 0 
z
" id="ArialMT-46"/>
      <path d="M 6.5 0 
L 6.5 51.859375 
L 14.40625 51.859375 
L 14.40625 44 
Q 17.4375 49.515625 20 51.265625 
Q 22.5625 53.03125 25.640625 53.03125 
Q 30.078125 53.03125 34.671875 50.203125 
L 31.640625 42.046875 
Q 28.421875 43.953125 25.203125 43.953125 
Q 22.3125 43.953125 20.015625 42.21875 
Q 17.71875 40.484375 16.75 37.40625 
Q 15.28125 32.71875 15.28125 27.15625 
L 15.28125 0 
z
" id="ArialMT-72"/>
      <path d="M 42.09375 16.703125 
L 51.171875 15.578125 
Q 49.03125 7.625 43.21875 3.21875 
Q 37.40625 -1.171875 28.375 -1.171875 
Q 17 -1.171875 10.328125 5.828125 
Q 3.65625 12.84375 3.65625 25.484375 
Q 3.65625 38.578125 10.390625 45.796875 
Q 17.140625 53.03125 27.875 53.03125 
Q 38.28125 53.03125 44.875 45.953125 
Q 51.46875 38.875 51.46875 26.03125 
Q 51.46875 25.25 51.421875 23.6875 
L 12.75 23.6875 
Q 13.234375 15.140625 17.578125 10.59375 
Q 21.921875 6.0625 28.421875 6.0625 
Q 33.25 6.0625 36.671875 8.59375 
Q 40.09375 11.140625 42.09375 16.703125 
z
M 13.234375 30.90625 
L 42.1875 30.90625 
Q 41.609375 37.453125 38.875 40.71875 
Q 34.671875 45.796875 27.984375 45.796875 
Q 21.921875 45.796875 17.796875 41.75 
Q 13.671875 37.703125 13.234375 30.90625 
z
" id="ArialMT-65"/>
      <path id="ArialMT-20"/>
      <path d="M 6.59375 0 
L 6.59375 51.859375 
L 14.5 51.859375 
L 14.5 44.484375 
Q 20.21875 53.03125 31 53.03125 
Q 35.6875 53.03125 39.625 51.34375 
Q 43.5625 49.65625 45.515625 46.921875 
Q 47.46875 44.1875 48.25 40.4375 
Q 48.734375 37.984375 48.734375 31.890625 
L 48.734375 0 
L 39.9375 0 
L 39.9375 31.546875 
Q 39.9375 36.921875 38.90625 39.578125 
Q 37.890625 42.234375 35.28125 43.8125 
Q 32.671875 45.40625 29.15625 45.40625 
Q 23.53125 45.40625 19.453125 41.84375 
Q 15.375 38.28125 15.375 28.328125 
L 15.375 0 
z
" id="ArialMT-6e"/>
      <path d="M 4.984375 -4.296875 
L 13.53125 -5.5625 
Q 14.0625 -9.515625 16.5 -11.328125 
Q 19.78125 -13.765625 25.4375 -13.765625 
Q 31.546875 -13.765625 34.859375 -11.328125 
Q 38.1875 -8.890625 39.359375 -4.5 
Q 40.046875 -1.8125 39.984375 6.78125 
Q 34.234375 0 25.640625 0 
Q 14.9375 0 9.078125 7.71875 
Q 3.21875 15.4375 3.21875 26.21875 
Q 3.21875 33.640625 5.90625 39.90625 
Q 8.59375 46.1875 13.6875 49.609375 
Q 18.796875 53.03125 25.6875 53.03125 
Q 34.859375 53.03125 40.828125 45.609375 
L 40.828125 51.859375 
L 48.921875 51.859375 
L 48.921875 7.03125 
Q 48.921875 -5.078125 46.453125 -10.125 
Q 44 -15.1875 38.640625 -18.109375 
Q 33.296875 -21.046875 25.484375 -21.046875 
Q 16.21875 -21.046875 10.5 -16.875 
Q 4.78125 -12.703125 4.984375 -4.296875 
z
M 12.25 26.859375 
Q 12.25 16.65625 16.296875 11.96875 
Q 20.359375 7.28125 26.46875 7.28125 
Q 32.515625 7.28125 36.609375 11.9375 
Q 40.71875 16.609375 40.71875 26.5625 
Q 40.71875 36.078125 36.5 40.90625 
Q 32.28125 45.75 26.3125 45.75 
Q 20.453125 45.75 16.34375 40.984375 
Q 12.25 36.234375 12.25 26.859375 
z
" id="ArialMT-67"/>
      <path d="M 6.203125 -19.96875 
L 5.21875 -11.71875 
Q 8.109375 -12.5 10.25 -12.5 
Q 13.1875 -12.5 14.9375 -11.515625 
Q 16.703125 -10.546875 17.828125 -8.796875 
Q 18.65625 -7.46875 20.515625 -2.25 
Q 20.75 -1.515625 21.296875 -0.09375 
L 1.609375 51.859375 
L 11.078125 51.859375 
L 21.875 21.828125 
Q 23.96875 16.109375 25.640625 9.8125 
Q 27.15625 15.875 29.25 21.625 
L 40.328125 51.859375 
L 49.125 51.859375 
L 29.390625 -0.875 
Q 26.21875 -9.421875 24.46875 -12.640625 
Q 22.125 -17 19.09375 -19.015625 
Q 16.0625 -21.046875 11.859375 -21.046875 
Q 9.328125 -21.046875 6.203125 -19.96875 
z
" id="ArialMT-79"/>
      <path d="M 23.390625 -21.046875 
Q 16.109375 -11.859375 11.078125 0.4375 
Q 6.0625 12.75 6.0625 25.921875 
Q 6.0625 37.546875 9.8125 48.1875 
Q 14.203125 60.546875 23.390625 72.796875 
L 29.6875 72.796875 
Q 23.78125 62.640625 21.875 58.296875 
Q 18.890625 51.5625 17.1875 44.234375 
Q 15.09375 35.109375 15.09375 25.875 
Q 15.09375 2.390625 29.6875 -21.046875 
z
" id="ArialMT-28"/>
      <path d="M 18.3125 75.984375 
L 27.296875 75.984375 
L 18.703125 31.6875 
L 49.515625 54.6875 
L 61.1875 54.6875 
L 26.8125 28.515625 
L 51.90625 0 
L 41.015625 0 
L 17.671875 26.703125 
L 12.5 0 
L 3.515625 0 
z
" id="DejaVuSans-Oblique-6b"/>
      <path d="M 16.890625 72.90625 
L 42.09375 72.90625 
Q 52.34375 72.90625 57.421875 69.09375 
Q 62.5 65.28125 62.5 57.625 
Q 62.5 50.59375 58.125 45.484375 
Q 53.765625 40.375 46.6875 39.3125 
Q 52.734375 37.9375 55.765625 34.078125 
Q 58.796875 30.21875 58.796875 23.78125 
Q 58.796875 12.796875 50.65625 6.390625 
Q 42.53125 0 28.421875 0 
L 2.6875 0 
z
M 19.28125 34.8125 
L 14.109375 8.109375 
L 29.984375 8.109375 
Q 38.921875 8.109375 43.75 12.203125 
Q 48.578125 16.3125 48.578125 23.78125 
Q 48.578125 29.546875 45.375 32.171875 
Q 42.1875 34.8125 35.109375 34.8125 
z
M 25.09375 64.796875 
L 20.796875 42.828125 
L 35.5 42.828125 
Q 43.359375 42.828125 47.78125 46.234375 
Q 52.203125 49.65625 52.203125 55.71875 
Q 52.203125 60.453125 49.21875 62.625 
Q 46.234375 64.796875 39.703125 64.796875 
z
" id="DejaVuSans-Oblique-42"/>
      <path d="M 5.90625 72.90625 
L 67.578125 72.90625 
L 66.015625 64.59375 
L 39.984375 64.59375 
L 27.484375 0 
L 17.578125 0 
L 30.078125 64.59375 
L 4.296875 64.59375 
z
" id="DejaVuSans-Oblique-54"/>
      <path d="M 12.359375 -21.046875 
L 6.0625 -21.046875 
Q 20.65625 2.390625 20.65625 25.875 
Q 20.65625 35.0625 18.5625 44.09375 
Q 16.890625 51.421875 13.921875 58.15625 
Q 12.015625 62.546875 6.0625 72.796875 
L 12.359375 72.796875 
Q 21.53125 60.546875 25.921875 48.1875 
Q 29.6875 37.546875 29.6875 25.921875 
Q 29.6875 12.75 24.625 0.4375 
Q 19.578125 -11.859375 12.359375 -21.046875 
z
" id="ArialMT-29"/>
     </defs>
     <g style="fill:#262626;" transform="translate(21.885938 101.96)rotate(-90)scale(0.11 -0.11)">
      <use transform="translate(0 0.015625)" xlink:href="#ArialMT-46"/>
      <use transform="translate(61.083984 0.015625)" xlink:href="#ArialMT-72"/>
      <use transform="translate(94.384766 0.015625)" xlink:href="#ArialMT-65"/>
      <use transform="translate(150 0.015625)" xlink:href="#ArialMT-65"/>
      <use transform="translate(205.615234 0.015625)" xlink:href="#ArialMT-20"/>
      <use transform="translate(233.398438 0.015625)" xlink:href="#ArialMT-65"/>
      <use transform="translate(289.013672 0.015625)" xlink:href="#ArialMT-6e"/>
      <use transform="translate(344.628906 0.015625)" xlink:href="#ArialMT-65"/>
      <use transform="translate(400.244141 0.015625)" xlink:href="#ArialMT-72"/>
      <use transform="translate(433.544922 0.015625)" xlink:href="#ArialMT-67"/>
      <use transform="translate(489.160156 0.015625)" xlink:href="#ArialMT-79"/>
      <use transform="translate(539.160156 0.015625)" xlink:href="#ArialMT-20"/>
      <use transform="translate(566.943359 0.015625)" xlink:href="#ArialMT-28"/>
      <use transform="translate(600.244141 0.015625)" xlink:href="#DejaVuSans-Oblique-6b"/>
      <use transform="translate(658.154297 -16.390625)scale(0.7)" xlink:href="#DejaVuSans-Oblique-42"/>
      <use transform="translate(708.911133 0.015625)" xlink:href="#DejaVuSans-Oblique-54"/>
      <use transform="translate(769.995117 0.015625)" xlink:href="#ArialMT-29"/>
     </g>
    </g>
   </g>
   <g id="patch_3">
    <path d="M 47.54 101.92 
L 47.54 13.56 
" style="fill:none;stroke:#262626;stroke-linecap:square;stroke-linejoin:miter;stroke-width:0.8;"/>
   </g>
   <g id="patch_4">
    <path d="M 47.54 101.92 
L 130.44 101.92 
" style="fill:none;stroke:#262626;stroke-linecap:square;stroke-linejoin:miter;stroke-width:0.8;"/>
   </g>
   <g id="line2d_9">
    <path clip-path="url(#p2a01c50e3b)" d="M 51.308182 97.903636 
L 52.061818 97.100338 
L 52.815455 96.29704 
L 53.569091 95.493742 
L 54.322727 94.690444 
L 55.076364 93.887145 
L 55.83 93.083847 
L 56.583636 92.280549 
L 57.337273 91.477251 
L 58.090909 90.673953 
L 58.844545 89.870654 
L 59.598182 89.067356 
L 60.351818 88.264058 
L 61.105455 87.46076 
L 61.859091 86.657462 
L 62.612727 85.854164 
L 63.366364 85.050865 
L 64.12 84.247567 
L 64.873636 83.444269 
L 65.627273 82.640971 
L 66.380909 81.837673 
L 67.134545 81.034374 
L 67.888182 80.231076 
L 68.641818 79.427778 
L 69.395455 78.62448 
L 70.149091 77.821182 
L 70.902727 77.017883 
L 71.656364 76.214585 
L 72.41 75.411287 
L 73.163636 74.607989 
L 73.917273 73.804691 
L 74.670909 73.001393 
L 75.424545 72.198094 
L 76.178182 71.394796 
L 76.931818 70.591498 
L 77.685455 69.7882 
L 78.439091 68.984902 
L 79.192727 68.181603 
L 79.946364 67.378305 
L 80.7 66.575007 
L 81.453636 65.771709 
L 82.207273 64.968411 
L 82.960909 64.165112 
L 83.714545 63.361814 
L 84.468182 62.558516 
L 85.221818 61.755218 
L 85.975455 60.95192 
L 86.729091 60.148622 
L 87.482727 59.345323 
L 88.236364 58.542025 
L 88.99 57.738727 
L 89.743636 56.935429 
L 90.497273 56.132131 
L 91.250909 55.328832 
L 92.004545 54.525534 
L 92.758182 53.722236 
L 93.511818 52.918938 
L 94.265455 52.11564 
L 95.019091 51.312341 
L 95.772727 50.509043 
L 96.526364 49.705745 
L 97.28 48.902447 
L 98.033636 48.099149 
L 98.787273 47.295851 
L 99.540909 46.492552 
L 100.294545 45.689254 
L 101.048182 44.885956 
L 101.801818 44.082658 
L 102.555455 43.279359 
L 103.309091 42.476061 
L 104.062727 41.672763 
L 104.816364 40.869465 
L 105.57 40.066164 
L 106.323636 39.262865 
L 107.077273 38.45957 
L 107.830909 37.656266 
L 108.584545 36.852976 
L 109.338182 36.049675 
L 110.091818 35.246381 
L 110.845455 34.443056 
L 111.599091 33.639773 
L 112.352727 32.836332 
L 113.106364 32.033257 
L 113.86 31.230142 
L 114.613636 30.426989 
L 115.367273 29.623848 
L 116.120909 28.821104 
L 116.874545 28.016132 
L 117.628182 27.21275 
L 118.381818 26.406224 
L 119.135455 25.595663 
L 119.889091 24.811418 
L 120.642727 23.995171 
L 121.396364 23.212504 
L 122.15 22.35616 
L 122.903636 21.66513 
L 123.657273 20.736457 
L 124.410909 20.011547 
L 125.164545 19.254492 
L 125.918182 18.348911 
L 126.671818 17.576364 
" style="fill:none;stroke:#4393c3;stroke-linecap:round;stroke-width:1.5;"/>
   </g>
   <g id="line2d_10">
    <path clip-path="url(#p2a01c50e3b)" d="M 51.308182 36.358946 
L 52.061818 36.760595 
L 52.815455 37.162244 
L 53.569091 37.563893 
L 54.322727 37.965542 
L 55.076364 38.367191 
L 55.83 38.76884 
L 56.583636 39.170489 
L 57.337273 39.572138 
L 58.090909 39.973788 
L 58.844545 40.375437 
L 59.598182 40.777086 
L 60.351818 41.178735 
L 61.105455 41.580384 
L 61.859091 41.982033 
L 62.612727 42.383682 
L 63.366364 42.785331 
L 64.12 43.18698 
L 64.873636 43.588629 
L 65.627273 43.990278 
L 66.380909 44.391928 
L 67.134545 44.793577 
L 67.888182 45.195226 
L 68.641818 45.596875 
L 69.395455 45.998524 
L 70.149091 46.400173 
L 70.902727 46.801822 
L 71.656364 47.203471 
L 72.41 47.60512 
L 73.163636 48.006769 
L 73.917273 48.408419 
L 74.670909 48.810068 
L 75.424545 49.211717 
L 76.178182 49.613366 
L 76.931818 50.015015 
L 77.685455 50.416664 
L 78.439091 50.818313 
L 79.192727 51.219962 
L 79.946364 51.621611 
L 80.7 52.02326 
L 81.453636 52.424909 
L 82.207273 52.826559 
L 82.960909 53.228208 
L 83.714545 53.629857 
L 84.468182 54.031506 
L 85.221818 54.433155 
L 85.975455 54.834804 
L 86.729091 55.236453 
L 87.482727 55.638102 
L 88.236364 56.039751 
L 88.99 56.4414 
L 89.743636 56.843049 
L 90.497273 57.244699 
L 91.250909 57.646348 
L 92.004545 58.047997 
L 92.758182 58.449646 
L 93.511818 58.851295 
L 94.265455 59.252944 
L 95.019091 59.654593 
L 95.772727 60.056242 
L 96.526364 60.457891 
L 97.28 60.85954 
L 98.033636 61.26119 
L 98.787273 61.662839 
L 99.540909 62.064488 
L 100.294545 62.466137 
L 101.048182 62.867786 
L 101.801818 63.269435 
L 102.555455 63.671084 
L 103.309091 64.072733 
L 104.062727 64.474382 
L 104.816364 64.876031 
L 105.57 65.27768 
L 106.323636 65.67933 
L 107.077273 66.080979 
L 107.830909 66.482628 
L 108.584545 66.884277 
L 109.338182 67.285926 
L 110.091818 67.687575 
L 110.845455 68.089224 
L 111.599091 68.490873 
L 112.352727 68.892522 
L 113.106364 69.294171 
L 113.86 69.69582 
L 114.613636 70.09747 
L 115.367273 70.499119 
L 116.120909 70.900768 
L 116.874545 71.302417 
L 117.628182 71.704066 
L 118.381818 72.105715 
L 119.135455 72.507364 
L 119.889091 72.909013 
L 120.642727 73.310662 
L 121.396364 73.712311 
L 122.15 74.113961 
L 122.903636 74.51561 
L 123.657273 74.917259 
L 124.410909 75.318908 
L 125.164545 75.720557 
L 125.918182 76.122206 
L 126.671818 76.523855 
" style="fill:none;stroke:#f4a582;stroke-linecap:round;stroke-width:1.5;"/>
   </g>
   <g id="line2d_11">
    <path clip-path="url(#p2a01c50e3b)" d="M 51.308182 90.071479 
L 52.061818 89.66983 
L 52.815455 89.268181 
L 53.569091 88.866532 
L 54.322727 88.464883 
L 55.076364 88.063234 
L 55.83 87.661584 
L 56.583636 87.259935 
L 57.337273 86.858286 
L 58.090909 86.456637 
L 58.844545 86.054988 
L 59.598182 85.653339 
L 60.351818 85.25169 
L 61.105455 84.850041 
L 61.859091 84.448392 
L 62.612727 84.046743 
L 63.366364 83.645094 
L 64.12 83.243444 
L 64.873636 82.841795 
L 65.627273 82.440146 
L 66.380909 82.038497 
L 67.134545 81.636848 
L 67.888182 81.235199 
L 68.641818 80.83355 
L 69.395455 80.431901 
L 70.149091 80.030252 
L 70.902727 79.628603 
L 71.656364 79.226953 
L 72.41 78.825304 
L 73.163636 78.423655 
L 73.917273 78.022006 
L 74.670909 77.620357 
L 75.424545 77.218708 
L 76.178182 76.817059 
L 76.931818 76.41541 
L 77.685455 76.013761 
L 78.439091 75.612112 
L 79.192727 75.210463 
L 79.946364 74.808813 
L 80.7 74.407164 
L 81.453636 74.005515 
L 82.207273 73.603866 
L 82.960909 73.202217 
L 83.714545 72.800568 
L 84.468182 72.398919 
L 85.221818 71.99727 
L 85.975455 71.595621 
L 86.729091 71.193972 
L 87.482727 70.792323 
L 88.236364 70.390673 
L 88.99 69.989024 
L 89.743636 69.587375 
L 90.497273 69.185726 
L 91.250909 68.784077 
L 92.004545 68.382428 
L 92.758182 67.980779 
L 93.511818 67.57913 
L 94.265455 67.177481 
L 95.019091 66.775832 
L 95.772727 66.374182 
L 96.526364 65.972533 
L 97.28 65.570884 
L 98.033636 65.169235 
L 98.787273 64.767586 
L 99.540909 64.365937 
L 100.294545 63.964288 
L 101.048182 63.562639 
L 101.801818 63.16099 
L 102.555455 62.759341 
L 103.309091 62.357692 
L 104.062727 61.956042 
L 104.816364 61.554393 
L 105.57 61.152744 
L 106.323636 60.751095 
L 107.077273 60.349446 
L 107.830909 59.947797 
L 108.584545 59.546148 
L 109.338182 59.144499 
L 110.091818 58.74285 
L 110.845455 58.341201 
L 111.599091 57.939552 
L 112.352727 57.537902 
L 113.106364 57.136253 
L 113.86 56.734604 
L 114.613636 56.332955 
L 115.367273 55.931306 
L 116.120909 55.529657 
L 116.874545 55.128008 
L 117.628182 54.726359 
L 118.381818 54.32471 
L 119.135455 53.923061 
L 119.889091 53.521411 
L 120.642727 53.119762 
L 121.396364 52.718113 
L 122.15 52.316464 
L 122.903636 51.914815 
L 123.657273 51.513166 
L 124.410909 51.111517 
L 125.164545 50.709868 
L 125.918182 50.308219 
L 126.671818 49.90657 
" style="fill:none;stroke:#92c5de;stroke-linecap:round;stroke-width:1.5;"/>
   </g>
   <g id="line2d_12">
    <path clip-path="url(#p2a01c50e3b)" d="M 51.308182 80.966094 
L 52.061818 80.966094 
L 52.815455 80.966094 
L 53.569091 80.966094 
L 54.322727 80.966094 
L 55.076364 80.966094 
L 55.83 80.966094 
L 56.583636 80.966094 
L 57.337273 80.966094 
L 58.090909 80.966094 
L 58.844545 80.966094 
L 59.598182 80.966094 
L 60.351818 80.966094 
L 61.105455 80.966094 
L 61.859091 80.966094 
L 62.612727 80.966094 
L 63.366364 80.966094 
L 64.12 80.966094 
L 64.873636 80.966094 
L 65.627273 80.966094 
L 66.380909 80.966094 
L 67.134545 80.966094 
L 67.888182 80.966094 
L 68.641818 80.966094 
L 69.395455 80.966094 
L 70.149091 80.966094 
L 70.902727 80.966094 
L 71.656364 80.966094 
L 72.41 80.966094 
L 73.163636 80.966094 
L 73.917273 80.966094 
L 74.670909 80.966094 
L 75.424545 80.966094 
L 76.178182 80.966094 
L 76.931818 80.966094 
L 77.685455 80.966094 
L 78.439091 80.966094 
L 79.192727 80.966094 
L 79.946364 80.966094 
L 80.7 80.966094 
L 81.453636 80.966094 
L 82.207273 80.966094 
L 82.960909 80.966094 
L 83.714545 80.966094 
L 84.468182 80.966094 
L 85.221818 80.966094 
L 85.975455 80.966094 
L 86.729091 80.966094 
L 87.482727 80.966094 
L 88.236364 80.966094 
L 88.99 80.966094 
L 89.743636 80.966094 
L 90.497273 80.966094 
L 91.250909 80.966094 
L 92.004545 80.966094 
L 92.758182 80.966094 
L 93.511818 80.966094 
L 94.265455 80.966094 
L 95.019091 80.966094 
L 95.772727 80.966094 
L 96.526364 80.966094 
L 97.28 80.966094 
L 98.033636 80.966094 
L 98.787273 80.966094 
L 99.540909 80.966094 
L 100.294545 80.966094 
L 101.048182 80.966094 
L 101.801818 80.966094 
L 102.555455 80.966094 
L 103.309091 80.966094 
L 104.062727 80.966094 
L 104.816364 80.966094 
L 105.57 80.966094 
L 106.323636 80.966094 
L 107.077273 80.966094 
L 107.830909 80.966094 
L 108.584545 80.966094 
L 109.338182 80.966094 
L 110.091818 80.966094 
L 110.845455 80.966094 
L 111.599091 80.966094 
L 112.352727 80.966094 
L 113.106364 80.966094 
L 113.86 80.966094 
L 114.613636 80.966094 
L 115.367273 80.966094 
L 116.120909 80.966094 
L 116.874545 80.966094 
L 117.628182 80.966094 
L 118.381818 80.966094 
L 119.135455 80.966094 
L 119.889091 80.966094 
L 120.642727 80.966094 
L 121.396364 80.966094 
L 122.15 80.966094 
L 122.903636 80.966094 
L 123.657273 80.966094 
L 124.410909 80.966094 
L 125.164545 80.966094 
L 125.918182 80.966094 
L 126.671818 80.966094 
" style="fill:none;stroke:#333333;stroke-linecap:round;stroke-width:1.5;"/>
   </g>
  </g>
 </g>
 <defs>
  <clipPath id="p2a01c50e3b">
   <rect height="88.36" width="82.9" x="47.54" y="13.56"/>
  </clipPath>
 </defs>
</svg>
