<?xml version="1.0" encoding="utf-8" standalone="no"?>
<!DOCTYPE svg PUBLIC "-//W3C//DTD SVG 1.1//EN"
  "http://www.w3.org/Graphics/SVG/1.1/DTD/svg11.dtd">
<!-- Created with matplotlib (http://matplotlib.org/) -->
<svg height="216pt" version="1.1" viewBox="0 0 216 216" width="216pt" xmlns="http://www.w3.org/2000/svg" xmlns:xlink="http://www.w3.org/1999/xlink">
 <defs>
  <style type="text/css">
*{stroke-linecap:butt;stroke-linejoin:round;}
  </style>
 </defs>
 <g id="figure_1">
  <g id="patch_1">
   <path d="M 0 216 
L 216 216 
L 216 0 
L 0 0 
z
" style="fill:#ffffff;"/>
  </g>
  <g id="axes_1">
   <g id="patch_2">
    <path d="M 44.78 175.96 
L 203.52 175.96 
L 203.52 25.44 
L 44.78 25.44 
z
" style="fill:#ffffff;"/>
   </g>
   <g id="matplotlib.axis_1">
    <g id="xtick_1">
     <g id="line2d_1">
      <defs>
       <path d="M 0 0 
L 0 3.5 
" id="mff666581f8" style="stroke:#262626;stroke-width:0.8;"/>
      </defs>
      <g>
       <use style="fill:#262626;stroke:#262626;stroke-width:0.8;" x="51.995455" xlink:href="#mff666581f8" y="175.96"/>
      </g>
     </g>
     <g id="text_1">
      <!-- 2 -->
      <defs>
       <path d="M 50.34375 8.453125 
L 50.34375 0 
L 3.03125 0 
Q 2.9375 3.171875 4.046875 6.109375 
Q 5.859375 10.9375 9.828125 15.625 
Q 13.8125 20.3125 21.34375 26.46875 
Q 33.015625 36.03125 37.109375 41.625 
Q 41.21875 47.21875 41.21875 52.203125 
Q 41.21875 57.421875 37.46875 61 
Q 33.734375 64.59375 27.734375 64.59375 
Q 21.390625 64.59375 17.578125 60.78125 
Q 13.765625 56.984375 13.71875 50.25 
L 4.6875 51.171875 
Q 5.609375 61.28125 11.65625 66.578125 
Q 17.71875 71.875 27.9375 71.875 
Q 38.234375 71.875 44.234375 66.15625 
Q 50.25 60.453125 50.25 52 
Q 50.25 47.703125 48.484375 43.546875 
Q 46.734375 39.40625 42.65625 34.8125 
Q 38.578125 30.21875 29.109375 22.21875 
Q 21.1875 15.578125 18.9375 13.203125 
Q 16.703125 10.84375 15.234375 8.453125 
z
" id="ArialMT-32"/>
      </defs>
      <g style="fill:#262626;" transform="translate(49.214986 190.117812)scale(0.1 -0.1)">
       <use xlink:href="#ArialMT-32"/>
      </g>
     </g>
    </g>
    <g id="xtick_2">
     <g id="line2d_2">
      <g>
       <use style="fill:#262626;stroke:#262626;stroke-width:0.8;" x="80.857273" xlink:href="#mff666581f8" y="175.96"/>
      </g>
     </g>
     <g id="text_2">
      <!-- 4 -->
      <defs>
       <path d="M 32.328125 0 
L 32.328125 17.140625 
L 1.265625 17.140625 
L 1.265625 25.203125 
L 33.9375 71.578125 
L 41.109375 71.578125 
L 41.109375 25.203125 
L 50.78125 25.203125 
L 50.78125 17.140625 
L 41.109375 17.140625 
L 41.109375 0 
z
M 32.328125 25.203125 
L 32.328125 57.46875 
L 9.90625 25.203125 
z
" id="ArialMT-34"/>
      </defs>
      <g style="fill:#262626;" transform="translate(78.076804 190.117812)scale(0.1 -0.1)">
       <use xlink:href="#ArialMT-34"/>
      </g>
     </g>
    </g>
    <g id="xtick_3">
     <g id="line2d_3">
      <g>
       <use style="fill:#262626;stroke:#262626;stroke-width:0.8;" x="109.719091" xlink:href="#mff666581f8" y="175.96"/>
      </g>
     </g>
     <g id="text_3">
      <!-- 6 -->
      <defs>
       <path d="M 49.75 54.046875 
L 41.015625 53.375 
Q 39.84375 58.546875 37.703125 60.890625 
Q 34.125 64.65625 28.90625 64.65625 
Q 24.703125 64.65625 21.53125 62.3125 
Q 17.390625 59.28125 14.984375 53.46875 
Q 12.59375 47.65625 12.5 36.921875 
Q 15.671875 41.75 20.265625 44.09375 
Q 24.859375 46.4375 29.890625 46.4375 
Q 38.671875 46.4375 44.84375 39.96875 
Q 51.03125 33.5 51.03125 23.25 
Q 51.03125 16.5 48.125 10.71875 
Q 45.21875 4.9375 40.140625 1.859375 
Q 35.0625 -1.21875 28.609375 -1.21875 
Q 17.625 -1.21875 10.6875 6.859375 
Q 3.765625 14.9375 3.765625 33.5 
Q 3.765625 54.25 11.421875 63.671875 
Q 18.109375 71.875 29.4375 71.875 
Q 37.890625 71.875 43.28125 67.140625 
Q 48.6875 62.40625 49.75 54.046875 
z
M 13.875 23.1875 
Q 13.875 18.65625 15.796875 14.5 
Q 17.71875 10.359375 21.1875 8.171875 
Q 24.65625 6 28.46875 6 
Q 34.03125 6 38.03125 10.484375 
Q 42.046875 14.984375 42.046875 22.703125 
Q 42.046875 30.125 38.078125 34.390625 
Q 34.125 38.671875 28.125 38.671875 
Q 22.171875 38.671875 18.015625 34.390625 
Q 13.875 30.125 13.875 23.1875 
z
" id="ArialMT-36"/>
      </defs>
      <g style="fill:#262626;" transform="translate(106.938622 190.117812)scale(0.1 -0.1)">
       <use xlink:href="#ArialMT-36"/>
      </g>
     </g>
    </g>
    <g id="xtick_4">
     <g id="line2d_4">
      <g>
       <use style="fill:#262626;stroke:#262626;stroke-width:0.8;" x="138.580909" xlink:href="#mff666581f8" y="175.96"/>
      </g>
     </g>
     <g id="text_4">
      <!-- 8 -->
      <defs>
       <path d="M 17.671875 38.8125 
Q 12.203125 40.828125 9.5625 44.53125 
Q 6.9375 48.25 6.9375 53.421875 
Q 6.9375 61.234375 12.546875 66.546875 
Q 18.171875 71.875 27.484375 71.875 
Q 36.859375 71.875 42.578125 66.421875 
Q 48.296875 60.984375 48.296875 53.171875 
Q 48.296875 48.1875 45.671875 44.5 
Q 43.0625 40.828125 37.75 38.8125 
Q 44.34375 36.671875 47.78125 31.875 
Q 51.21875 27.09375 51.21875 20.453125 
Q 51.21875 11.28125 44.71875 5.03125 
Q 38.234375 -1.21875 27.640625 -1.21875 
Q 17.046875 -1.21875 10.546875 5.046875 
Q 4.046875 11.328125 4.046875 20.703125 
Q 4.046875 27.6875 7.59375 32.390625 
Q 11.140625 37.109375 17.671875 38.8125 
z
M 15.921875 53.71875 
Q 15.921875 48.640625 19.1875 45.40625 
Q 22.46875 42.1875 27.6875 42.1875 
Q 32.765625 42.1875 36.015625 45.375 
Q 39.265625 48.578125 39.265625 53.21875 
Q 39.265625 58.0625 35.90625 61.359375 
Q 32.5625 64.65625 27.59375 64.65625 
Q 22.5625 64.65625 19.234375 61.421875 
Q 15.921875 58.203125 15.921875 53.71875 
z
M 13.09375 20.65625 
Q 13.09375 16.890625 14.875 13.375 
Q 16.65625 9.859375 20.171875 7.921875 
Q 23.6875 6 27.734375 6 
Q 34.03125 6 38.125 10.046875 
Q 42.234375 14.109375 42.234375 20.359375 
Q 42.234375 26.703125 38.015625 30.859375 
Q 33.796875 35.015625 27.4375 35.015625 
Q 21.234375 35.015625 17.15625 30.90625 
Q 13.09375 26.8125 13.09375 20.65625 
z
" id="ArialMT-38"/>
      </defs>
      <g style="fill:#262626;" transform="translate(135.80044 190.117812)scale(0.1 -0.1)">
       <use xlink:href="#ArialMT-38"/>
      </g>
     </g>
    </g>
    <g id="xtick_5">
     <g id="line2d_5">
      <g>
       <use style="fill:#262626;stroke:#262626;stroke-width:0.8;" x="167.442727" xlink:href="#mff666581f8" y="175.96"/>
      </g>
     </g>
     <g id="text_5">
      <!-- 10 -->
      <defs>
       <path d="M 37.25 0 
L 28.46875 0 
L 28.46875 56 
Q 25.296875 52.984375 20.140625 49.953125 
Q 14.984375 46.921875 10.890625 45.40625 
L 10.890625 53.90625 
Q 18.265625 57.375 23.78125 62.296875 
Q 29.296875 67.234375 31.59375 71.875 
L 37.25 71.875 
z
" id="ArialMT-31"/>
       <path d="M 4.15625 35.296875 
Q 4.15625 48 6.765625 55.734375 
Q 9.375 63.484375 14.515625 67.671875 
Q 19.671875 71.875 27.484375 71.875 
Q 33.25 71.875 37.59375 69.546875 
Q 41.9375 67.234375 44.765625 62.859375 
Q 47.609375 58.5 49.21875 52.21875 
Q 50.828125 45.953125 50.828125 35.296875 
Q 50.828125 22.703125 48.234375 14.96875 
Q 45.65625 7.234375 40.5 3 
Q 35.359375 -1.21875 27.484375 -1.21875 
Q 17.140625 -1.21875 11.234375 6.203125 
Q 4.15625 15.140625 4.15625 35.296875 
z
M 13.1875 35.296875 
Q 13.1875 17.671875 17.3125 11.828125 
Q 21.4375 6 27.484375 6 
Q 33.546875 6 37.671875 11.859375 
Q 41.796875 17.71875 41.796875 35.296875 
Q 41.796875 52.984375 37.671875 58.78125 
Q 33.546875 64.59375 27.390625 64.59375 
Q 21.34375 64.59375 17.71875 59.46875 
Q 13.1875 52.9375 13.1875 35.296875 
z
" id="ArialMT-30"/>
      </defs>
      <g style="fill:#262626;" transform="translate(161.88179 190.117812)scale(0.1 -0.1)">
       <use xlink:href="#ArialMT-31"/>
       <use x="55.615234" xlink:href="#ArialMT-30"/>
      </g>
     </g>
    </g>
    <g id="xtick_6">
     <g id="line2d_6">
      <g>
       <use style="fill:#262626;stroke:#262626;stroke-width:0.8;" x="196.304545" xlink:href="#mff666581f8" y="175.96"/>
      </g>
     </g>
     <g id="text_6">
      <!-- 12 -->
      <g style="fill:#262626;" transform="translate(190.743608 190.117812)scale(0.1 -0.1)">
       <use xlink:href="#ArialMT-31"/>
       <use x="55.615234" xlink:href="#ArialMT-32"/>
      </g>
     </g>
    </g>
    <g id="text_7">
     <!-- pH -->
     <defs>
      <path d="M 6.59375 -19.875 
L 6.59375 51.859375 
L 14.59375 51.859375 
L 14.59375 45.125 
Q 17.4375 49.078125 21 51.046875 
Q 24.5625 53.03125 29.640625 53.03125 
Q 36.28125 53.03125 41.359375 49.609375 
Q 46.4375 46.1875 49.015625 39.953125 
Q 51.609375 33.734375 51.609375 26.3125 
Q 51.609375 18.359375 48.75 11.984375 
Q 45.90625 5.609375 40.453125 2.21875 
Q 35.015625 -1.171875 29 -1.171875 
Q 24.609375 -1.171875 21.109375 0.6875 
Q 17.625 2.546875 15.375 5.375 
L 15.375 -19.875 
z
M 14.546875 25.640625 
Q 14.546875 15.625 18.59375 10.84375 
Q 22.65625 6.0625 28.421875 6.0625 
Q 34.28125 6.0625 38.453125 11.015625 
Q 42.625 15.96875 42.625 26.375 
Q 42.625 36.28125 38.546875 41.203125 
Q 34.46875 46.140625 28.8125 46.140625 
Q 23.1875 46.140625 18.859375 40.890625 
Q 14.546875 35.640625 14.546875 25.640625 
z
" id="ArialMT-70"/>
      <path d="M 8.015625 0 
L 8.015625 71.578125 
L 17.484375 71.578125 
L 17.484375 42.1875 
L 54.6875 42.1875 
L 54.6875 71.578125 
L 64.15625 71.578125 
L 64.15625 0 
L 54.6875 0 
L 54.6875 33.734375 
L 17.484375 33.734375 
L 17.484375 0 
z
" id="ArialMT-48"/>
     </defs>
     <g style="fill:#262626;" transform="translate(117.758594 203.263125)scale(0.1 -0.1)">
      <use xlink:href="#ArialMT-70"/>
      <use x="55.615234" xlink:href="#ArialMT-48"/>
     </g>
    </g>
   </g>
   <g id="matplotlib.axis_2">
    <g id="ytick_1">
     <g id="line2d_7">
      <defs>
       <path d="M 0 0 
L -3.5 0 
" id="mc1294a41d0" style="stroke:#262626;stroke-width:0.8;"/>
      </defs>
      <g>
       <use style="fill:#262626;stroke:#262626;stroke-width:0.8;" x="44.78" xlink:href="#mc1294a41d0" y="147.658062"/>
      </g>
     </g>
     <g id="text_8">
      <!-- −2 -->
      <defs>
       <path d="M 52.828125 31.203125 
L 5.5625 31.203125 
L 5.5625 39.40625 
L 52.828125 39.40625 
z
" id="ArialMT-2212"/>
      </defs>
      <g style="fill:#262626;" transform="translate(26.378438 151.236969)scale(0.1 -0.1)">
       <use xlink:href="#ArialMT-2212"/>
       <use x="58.398438" xlink:href="#ArialMT-32"/>
      </g>
     </g>
    </g>
    <g id="ytick_2">
     <g id="line2d_8">
      <g>
       <use style="fill:#262626;stroke:#262626;stroke-width:0.8;" x="44.78" xlink:href="#mc1294a41d0" y="109.338409"/>
      </g>
     </g>
     <g id="text_9">
      <!-- −1 -->
      <g style="fill:#262626;" transform="translate(26.378438 112.917316)scale(0.1 -0.1)">
       <use xlink:href="#ArialMT-2212"/>
       <use x="58.398438" xlink:href="#ArialMT-31"/>
      </g>
     </g>
    </g>
    <g id="ytick_3">
     <g id="line2d_9">
      <g>
       <use style="fill:#262626;stroke:#262626;stroke-width:0.8;" x="44.78" xlink:href="#mc1294a41d0" y="71.018756"/>
      </g>
     </g>
     <g id="text_10">
      <!-- 0 -->
      <g style="fill:#262626;" transform="translate(32.219063 74.597662)scale(0.1 -0.1)">
       <use xlink:href="#ArialMT-30"/>
      </g>
     </g>
    </g>
    <g id="ytick_4">
     <g id="line2d_10">
      <g>
       <use style="fill:#262626;stroke:#262626;stroke-width:0.8;" x="44.78" xlink:href="#mc1294a41d0" y="32.699103"/>
      </g>
     </g>
     <g id="text_11">
      <!-- 1 -->
      <g style="fill:#262626;" transform="translate(32.219063 36.278009)scale(0.1 -0.1)">
       <use xlink:href="#ArialMT-31"/>
      </g>
     </g>
    </g>
    <g id="text_12">
     <!-- $\langle q_\mathsf{total} \rangle$ -->
     <defs>
      <path d="M 8.9375 31.34375 
L 22.703125 75.875 
L 31 75.875 
L 17.234375 31.34375 
L 31 -13.1875 
L 22.703125 -13.1875 
z
" id="DejaVuSans-27e8"/>
      <path d="M 41.703125 8.203125 
Q 38.09375 3.46875 33.171875 1.015625 
Q 28.265625 -1.421875 22.3125 -1.421875 
Q 14.015625 -1.421875 9.296875 4.171875 
Q 4.59375 9.765625 4.59375 19.578125 
Q 4.59375 27.484375 7.5 34.859375 
Q 10.40625 42.234375 15.828125 48.09375 
Q 19.34375 51.90625 23.90625 53.953125 
Q 28.46875 56 33.5 56 
Q 39.546875 56 43.453125 53.609375 
Q 47.359375 51.21875 49.125 46.390625 
L 50.6875 54.59375 
L 59.71875 54.59375 
L 45.125 -20.609375 
L 36.078125 -20.609375 
z
M 13.921875 20.90625 
Q 13.921875 13.671875 16.9375 9.890625 
Q 19.96875 6.109375 25.6875 6.109375 
Q 34.1875 6.109375 40.1875 14.234375 
Q 46.1875 22.359375 46.1875 33.984375 
Q 46.1875 41.015625 43.078125 44.75 
Q 39.984375 48.484375 34.1875 48.484375 
Q 29.9375 48.484375 26.3125 46.5 
Q 22.703125 44.53125 20.015625 40.71875 
Q 17.1875 36.71875 15.546875 31.34375 
Q 13.921875 25.984375 13.921875 20.90625 
z
" id="DejaVuSans-Oblique-71"/>
      <path d="M 18.3125 70.21875 
L 18.3125 54.6875 
L 36.8125 54.6875 
L 36.8125 47.703125 
L 18.3125 47.703125 
L 18.3125 18.015625 
Q 18.3125 11.328125 20.140625 9.421875 
Q 21.96875 7.515625 27.59375 7.515625 
L 36.8125 7.515625 
L 36.8125 0 
L 27.59375 0 
Q 17.1875 0 13.234375 3.875 
Q 9.28125 7.765625 9.28125 18.015625 
L 9.28125 47.703125 
L 2.6875 47.703125 
L 2.6875 54.6875 
L 9.28125 54.6875 
L 9.28125 70.21875 
z
" id="DejaVuSans-74"/>
      <path d="M 30.609375 48.390625 
Q 23.390625 48.390625 19.1875 42.75 
Q 14.984375 37.109375 14.984375 27.296875 
Q 14.984375 17.484375 19.15625 11.84375 
Q 23.34375 6.203125 30.609375 6.203125 
Q 37.796875 6.203125 41.984375 11.859375 
Q 46.1875 17.53125 46.1875 27.296875 
Q 46.1875 37.015625 41.984375 42.703125 
Q 37.796875 48.390625 30.609375 48.390625 
z
M 30.609375 56 
Q 42.328125 56 49.015625 48.375 
Q 55.71875 40.765625 55.71875 27.296875 
Q 55.71875 13.875 49.015625 6.21875 
Q 42.328125 -1.421875 30.609375 -1.421875 
Q 18.84375 -1.421875 12.171875 6.21875 
Q 5.515625 13.875 5.515625 27.296875 
Q 5.515625 40.765625 12.171875 48.375 
Q 18.84375 56 30.609375 56 
z
" id="DejaVuSans-6f"/>
      <path d="M 34.28125 27.484375 
Q 23.390625 27.484375 19.1875 25 
Q 14.984375 22.515625 14.984375 16.5 
Q 14.984375 11.71875 18.140625 8.90625 
Q 21.296875 6.109375 26.703125 6.109375 
Q 34.1875 6.109375 38.703125 11.40625 
Q 43.21875 16.703125 43.21875 25.484375 
L 43.21875 27.484375 
z
M 52.203125 31.203125 
L 52.203125 0 
L 43.21875 0 
L 43.21875 8.296875 
Q 40.140625 3.328125 35.546875 0.953125 
Q 30.953125 -1.421875 24.3125 -1.421875 
Q 15.921875 -1.421875 10.953125 3.296875 
Q 6 8.015625 6 15.921875 
Q 6 25.140625 12.171875 29.828125 
Q 18.359375 34.515625 30.609375 34.515625 
L 43.21875 34.515625 
L 43.21875 35.40625 
Q 43.21875 41.609375 39.140625 45 
Q 35.0625 48.390625 27.6875 48.390625 
Q 23 48.390625 18.546875 47.265625 
Q 14.109375 46.140625 10.015625 43.890625 
L 10.015625 52.203125 
Q 14.9375 54.109375 19.578125 55.046875 
Q 24.21875 56 28.609375 56 
Q 40.484375 56 46.34375 49.84375 
Q 52.203125 43.703125 52.203125 31.203125 
z
" id="DejaVuSans-61"/>
      <path d="M 9.421875 75.984375 
L 18.40625 75.984375 
L 18.40625 0 
L 9.421875 0 
z
" id="DejaVuSans-6c"/>
      <path d="M 30.078125 31.34375 
L 16.3125 -13.1875 
L 8.015625 -13.1875 
L 21.78125 31.34375 
L 8.015625 75.875 
L 16.3125 75.875 
z
" id="DejaVuSans-27e9"/>
     </defs>
     <g style="fill:#262626;" transform="translate(20.278438 115.95)rotate(-90)scale(0.1 -0.1)">
      <use transform="translate(0 0.125)" xlink:href="#DejaVuSans-27e8"/>
      <use transform="translate(39.013672 0.125)" xlink:href="#DejaVuSans-Oblique-71"/>
      <use transform="translate(102.490234 -16.28125)scale(0.7)" xlink:href="#DejaVuSans-74"/>
      <use transform="translate(129.936523 -16.28125)scale(0.7)" xlink:href="#DejaVuSans-6f"/>
      <use transform="translate(172.763672 -16.28125)scale(0.7)" xlink:href="#DejaVuSans-74"/>
      <use transform="translate(200.209961 -16.28125)scale(0.7)" xlink:href="#DejaVuSans-61"/>
      <use transform="translate(243.105469 -16.28125)scale(0.7)" xlink:href="#DejaVuSans-6c"/>
      <use transform="translate(265.288086 0.125)" xlink:href="#DejaVuSans-27e9"/>
     </g>
    </g>
   </g>
   <g id="PolyCollection_1">
    <defs>
     <path d="M 51.995455 -183.718182 
L 51.995455 -107.187713 
L 53.438545 -107.079774 
L 54.881636 -106.988882 
L 56.324727 -106.90354 
L 57.767818 -106.812642 
L 59.210909 -106.705326 
L 60.654 -106.570661 
L 62.097091 -106.397176 
L 63.540182 -106.172356 
L 64.983273 -105.882243 
L 66.426364 -105.511311 
L 67.869455 -105.04264 
L 69.312545 -104.458439 
L 70.755636 -103.740983 
L 72.198727 -102.874089 
L 73.641818 -101.84524 
L 75.084909 -100.648274 
L 76.528 -99.286284 
L 77.971091 -97.774169 
L 79.414182 -96.140158 
L 80.857273 -94.425637 
L 82.300364 -92.682855 
L 83.743455 -90.970539 
L 85.186545 -89.348109 
L 86.629636 -87.869645 
L 88.072727 -86.578917 
L 89.515818 -85.506369 
L 90.958909 -84.668382 
L 92.402 -84.068461 
L 93.845091 -83.699684 
L 95.288182 -83.547668 
L 96.731273 -83.593456 
L 98.174364 -83.815972 
L 99.617455 -84.193915 
L 101.060545 -84.707079 
L 102.503636 -85.337127 
L 103.946727 -86.067864 
L 105.389818 -86.885098 
L 106.832909 -87.776206 
L 108.276 -88.729519 
L 109.719091 -89.733628 
L 111.162182 -90.776619 
L 112.605273 -91.845229 
L 114.048364 -92.923875 
L 115.491455 -93.993518 
L 116.934545 -95.030345 
L 118.377636 -96.004384 
L 119.820727 -96.878497 
L 121.263818 -97.608837 
L 122.706909 -98.148671 
L 124.15 -98.457334 
L 125.593091 -98.512883 
L 127.036182 -98.321515 
L 128.479273 -97.916104 
L 129.922364 -97.344608 
L 131.365455 -96.656717 
L 132.808545 -95.895307 
L 134.251636 -95.093452 
L 135.694727 -94.274844 
L 137.137818 -93.455537 
L 138.580909 -92.645846 
L 140.024 -91.851933 
L 141.467091 -91.076997 
L 142.910182 -90.322124 
L 144.353273 -89.586873 
L 145.796364 -88.869671 
L 147.239455 -88.168084 
L 148.682545 -87.479064 
L 150.125636 -86.799201 
L 151.568727 -86.12498 
L 153.011818 -85.453022 
L 154.454909 -84.780219 
L 155.898 -84.103774 
L 157.341091 -83.421133 
L 158.784182 -82.729859 
L 160.227273 -82.027478 
L 161.670364 -81.31135 
L 163.113455 -80.57858 
L 164.556545 -79.825979 
L 165.999636 -79.05004 
L 167.442727 -78.246888 
L 168.885818 -77.412168 
L 170.328909 -76.540828 
L 171.772 -75.626822 
L 173.215091 -74.662769 
L 174.658182 -73.639655 
L 176.101273 -72.546666 
L 177.544364 -71.371245 
L 178.987455 -70.09946 
L 180.430545 -68.716797 
L 181.873636 -67.209455 
L 183.316727 -65.566233 
L 184.759818 -63.780937 
L 186.202909 -61.855136 
L 187.646 -59.800799 
L 189.089091 -57.6422 
L 190.532182 -55.416348 
L 191.975273 -53.171392 
L 193.418364 -50.962894 
L 194.861455 -48.848464 
L 196.304545 -46.881818 
L 196.304545 -117.387914 
L 196.304545 -117.387914 
L 194.861455 -119.60323 
L 193.418364 -121.837956 
L 191.975273 -124.036305 
L 190.532182 -126.140467 
L 189.089091 -128.096503 
L 187.646 -129.859576 
L 186.202909 -131.397485 
L 184.759818 -132.692048 
L 183.316727 -133.738451 
L 181.873636 -134.54315 
L 180.430545 -135.121022 
L 178.987455 -135.492433 
L 177.544364 -135.680646 
L 176.101273 -135.709789 
L 174.658182 -135.603415 
L 173.215091 -135.383599 
L 171.772 -135.07042 
L 170.328909 -134.681715 
L 168.885818 -134.232985 
L 167.442727 -133.737394 
L 165.999636 -133.205827 
L 164.556545 -132.647026 
L 163.113455 -132.067811 
L 161.670364 -131.47335 
L 160.227273 -130.867468 
L 158.784182 -130.252916 
L 157.341091 -129.631589 
L 155.898 -129.004648 
L 154.454909 -128.372564 
L 153.011818 -127.735109 
L 151.568727 -127.091347 
L 150.125636 -126.439656 
L 148.682545 -125.777848 
L 147.239455 -125.103365 
L 145.796364 -124.413565 
L 144.353273 -123.706026 
L 142.910182 -122.97883 
L 141.467091 -122.230828 
L 140.024 -121.461946 
L 138.580909 -120.673593 
L 137.137818 -119.869262 
L 135.694727 -119.055402 
L 134.251636 -118.242617 
L 132.808545 -117.447271 
L 131.365455 -116.693401 
L 129.922364 -116.014482 
L 128.479273 -115.453867 
L 127.036182 -115.061824 
L 125.593091 -114.887019 
L 124.15 -114.963204 
L 122.706909 -115.297667 
L 121.263818 -115.869826 
L 119.820727 -116.64072 
L 118.377636 -117.565744 
L 116.934545 -118.603716 
L 115.491455 -119.720827 
L 114.048364 -120.89126 
L 112.605273 -122.096383 
L 111.162182 -123.323597 
L 109.719091 -124.5653 
L 108.276 -125.818082 
L 106.832909 -127.082129 
L 105.389818 -128.360797 
L 103.946727 -129.660285 
L 102.503636 -130.989358 
L 101.060545 -132.359091 
L 99.617455 -133.7826 
L 98.174364 -135.274779 
L 96.731273 -136.85194 
L 95.288182 -138.531248 
L 93.845091 -140.329732 
L 92.402 -142.262739 
L 90.958909 -144.341792 
L 89.515818 -146.571981 
L 88.072727 -148.949233 
L 86.629636 -151.458 
L 85.186545 -154.070054 
L 83.743455 -156.745024 
L 82.300364 -159.433012 
L 80.857273 -162.079093 
L 79.414182 -164.628933 
L 77.971091 -167.034385 
L 76.528 -169.257883 
L 75.084909 -171.274876 
L 73.641818 -173.074097 
L 72.198727 -174.656093 
L 70.755636 -176.030738 
L 69.312545 -177.214434 
L 67.869455 -178.227489 
L 66.426364 -179.091931 
L 64.983273 -179.829857 
L 63.540182 -180.462372 
L 62.097091 -181.009035 
L 60.654 -181.487668 
L 59.210909 -181.914327 
L 57.767818 -182.30333 
L 56.324727 -182.667353 
L 54.881636 -183.01767 
L 53.438545 -183.364608 
L 51.995455 -183.718182 
z
" id="m1660ba27d6" style="stroke:#ffffff;stroke-opacity:0.05;"/>
    </defs>
    <g clip-path="url(#p13463761af)">
     <use style="fill:#b1400d;fill-opacity:0.05;stroke:#ffffff;stroke-opacity:0.05;" x="0" xlink:href="#m1660ba27d6" y="216"/>
    </g>
   </g>
   <g id="line2d_11">
    <path clip-path="url(#p13463761af)" d="M 51.995455 70.547053 
L 53.438545 70.777809 
L 54.881636 70.996724 
L 56.324727 71.214553 
L 57.767818 71.442014 
L 59.210909 71.690173 
L 60.654 71.970836 
L 62.097091 72.296894 
L 63.540182 72.682636 
L 64.983273 73.14395 
L 66.426364 73.698379 
L 67.869455 74.364936 
L 69.312545 75.163564 
L 70.755636 76.114139 
L 72.198727 77.234909 
L 73.641818 78.540332 
L 75.084909 80.038425 
L 76.528 81.727916 
L 77.971091 83.595723 
L 79.414182 85.615454 
L 80.857273 87.747635 
L 82.300364 89.942067 
L 83.743455 92.142219 
L 85.186545 94.290919 
L 86.629636 96.336177 
L 88.072727 98.235925 
L 89.515818 99.960825 
L 90.958909 101.494913 
L 92.402 102.8344 
L 93.845091 103.985292 
L 95.288182 104.960542 
L 96.731273 105.777302 
L 98.174364 106.454625 
L 99.617455 107.011742 
L 101.060545 107.466915 
L 102.503636 107.836757 
L 103.946727 108.135926 
L 105.389818 108.377052 
L 106.832909 108.570833 
L 108.276 108.7262 
L 109.719091 108.850536 
L 111.162182 108.949892 
L 112.605273 109.029194 
L 114.048364 109.092433 
L 115.491455 109.142828 
L 116.934545 109.182969 
L 118.377636 109.214936 
L 119.820727 109.240391 
L 121.263818 109.260668 
L 122.706909 109.276831 
L 124.15 109.289731 
L 125.593091 109.300049 
L 127.036182 109.308331 
L 128.479273 109.315014 
L 129.922364 109.320455 
L 131.365455 109.324941 
L 132.808545 109.328711 
L 134.251636 109.331965 
L 135.694727 109.334877 
L 137.137818 109.3376 
L 138.580909 109.34028 
L 140.024 109.34306 
L 141.467091 109.346088 
L 142.910182 109.349523 
L 144.353273 109.35355 
L 145.796364 109.358382 
L 147.239455 109.364276 
L 148.682545 109.371544 
L 150.125636 109.380571 
L 151.568727 109.391837 
L 153.011818 109.405934 
L 154.454909 109.423609 
L 155.898 109.445789 
L 157.341091 109.473639 
L 158.784182 109.508612 
L 160.227273 109.552527 
L 161.670364 109.60765 
L 163.113455 109.676805 
L 164.556545 109.763497 
L 165.999636 109.872067 
L 167.442727 110.007859 
L 168.885818 110.177423 
L 170.328909 110.388729 
L 171.772 110.651379 
L 173.215091 110.976816 
L 174.658182 111.378465 
L 176.101273 111.871773 
L 177.544364 112.474054 
L 178.987455 113.204053 
L 180.430545 114.081091 
L 181.873636 115.123697 
L 183.316727 116.347658 
L 184.759818 117.763508 
L 186.202909 119.373689 
L 187.646 121.169812 
L 189.089091 123.130648 
L 190.532182 125.221593 
L 191.975273 127.396151 
L 193.418364 129.599575 
L 194.861455 131.774153 
L 196.304545 133.865134 
" style="fill:none;opacity:0.9;stroke:#b1400d;stroke-linecap:round;stroke-width:1.5;"/>
   </g>
   <g id="line2d_12">
    <path clip-path="url(#p13463761af)" d="M 51.995455 71.248272 
L 53.438545 71.307252 
L 54.881636 71.381244 
L 56.324727 71.473987 
L 57.767818 71.5901 
L 59.210909 71.735269 
L 60.654 71.916447 
L 62.097091 72.142068 
L 63.540182 72.422269 
L 64.983273 72.769075 
L 66.426364 73.19652 
L 67.869455 73.72064 
L 69.312545 74.359241 
L 70.755636 75.131349 
L 72.198727 76.056219 
L 73.641818 77.15179 
L 75.084909 78.432554 
L 76.528 79.906923 
L 77.971091 81.574355 
L 79.414182 83.422764 
L 80.857273 85.426878 
L 82.300364 87.548268 
L 83.743455 89.737489 
L 85.186545 91.938295 
L 86.629636 94.093245 
L 88.072727 96.14957 
L 89.515818 98.064053 
L 90.958909 99.806043 
L 92.402 101.358297 
L 93.845091 102.715931 
L 95.288182 103.884117 
L 96.731273 104.875254 
L 98.174364 105.706189 
L 99.617455 106.395869 
L 101.060545 106.96356 
L 102.503636 107.427644 
L 103.946727 107.804907 
L 105.389818 108.110196 
L 106.832909 108.356331 
L 108.276 108.554183 
L 109.719091 108.712843 
L 111.162182 108.83983 
L 112.605273 108.941311 
L 114.048364 109.022309 
L 115.491455 109.086896 
L 116.934545 109.138355 
L 118.377636 109.17933 
L 119.820727 109.21194 
L 121.263818 109.237883 
L 122.706909 109.258515 
L 124.15 109.27492 
L 125.593091 109.287961 
L 127.036182 109.298326 
L 128.479273 109.306563 
L 129.922364 109.313108 
L 131.365455 109.318309 
L 132.808545 109.322442 
L 134.251636 109.325725 
L 135.694727 109.328333 
L 137.137818 109.330405 
L 138.580909 109.332051 
L 140.024 109.333358 
L 141.467091 109.334397 
L 142.910182 109.335222 
L 144.353273 109.335878 
L 145.796364 109.336398 
L 147.239455 109.336812 
L 148.682545 109.33714 
L 150.125636 109.337401 
L 151.568727 109.337609 
L 153.011818 109.337773 
L 154.454909 109.337904 
L 155.898 109.338008 
L 157.341091 109.338091 
L 158.784182 109.338156 
L 160.227273 109.338208 
L 161.670364 109.33825 
L 163.113455 109.338282 
L 164.556545 109.338308 
L 165.999636 109.338329 
L 167.442727 109.338346 
L 168.885818 109.338359 
L 170.328909 109.338369 
L 171.772 109.338377 
L 173.215091 109.338384 
L 174.658182 109.338389 
L 176.101273 109.338393 
L 177.544364 109.338397 
L 178.987455 109.338399 
L 180.430545 109.338401 
L 181.873636 109.338403 
L 183.316727 109.338404 
L 184.759818 109.338405 
L 186.202909 109.338406 
L 187.646 109.338407 
L 189.089091 109.338407 
L 190.532182 109.338408 
L 191.975273 109.338408 
L 193.418364 109.338408 
L 194.861455 109.338408 
L 196.304545 109.338409 
" style="fill:none;opacity:0.7;stroke:#000000;stroke-linecap:round;stroke-width:1.5;"/>
   </g>
   <g id="line2d_13">
    <path clip-path="url(#p13463761af)" d="M 51.995455 32.281818 
L 53.438545 32.635392 
L 54.881636 32.98233 
L 56.324727 33.332647 
L 57.767818 33.69667 
L 59.210909 34.085673 
L 60.654 34.512332 
L 62.097091 34.990965 
L 63.540182 35.537628 
L 64.983273 36.170143 
L 66.426364 36.908069 
L 67.869455 37.772511 
L 69.312545 38.785566 
L 70.755636 39.969262 
L 72.198727 41.343907 
L 73.641818 42.925903 
L 75.084909 44.725124 
L 76.528 46.742117 
L 77.971091 48.965615 
L 79.414182 51.371067 
L 80.857273 53.920907 
L 82.300364 56.566988 
L 83.743455 59.254976 
L 85.186545 61.929946 
L 86.629636 64.542 
L 88.072727 67.050767 
L 89.515818 69.428019 
L 90.958909 71.658208 
L 92.402 73.737261 
L 93.845091 75.670268 
L 95.288182 77.468752 
L 96.731273 79.14806 
L 98.174364 80.725221 
L 99.617455 82.2174 
L 101.060545 83.640909 
L 102.503636 85.010642 
L 103.946727 86.339715 
L 105.389818 87.639203 
L 106.832909 88.917871 
L 108.276 90.181918 
L 109.719091 91.4347 
L 111.162182 92.676403 
L 112.605273 93.903617 
L 114.048364 95.10874 
L 115.491455 96.279173 
L 116.934545 97.396284 
L 118.377636 98.434256 
L 119.820727 99.35928 
L 121.263818 100.130174 
L 122.706909 100.702333 
L 124.15 101.036796 
L 125.593091 101.112981 
L 127.036182 100.938176 
L 128.479273 100.546133 
L 129.922364 99.985518 
L 131.365455 99.306599 
L 132.808545 98.552729 
L 134.251636 97.757383 
L 135.694727 96.944598 
L 137.137818 96.130738 
L 138.580909 95.326407 
L 140.024 94.538054 
L 141.467091 93.769172 
L 142.910182 93.02117 
L 144.353273 92.293974 
L 145.796364 91.586435 
L 147.239455 90.896635 
L 148.682545 90.222152 
L 150.125636 89.560344 
L 151.568727 88.908653 
L 153.011818 88.264891 
L 154.454909 87.627436 
L 155.898 86.995352 
L 157.341091 86.368411 
L 158.784182 85.747084 
L 160.227273 85.132532 
L 161.670364 84.52665 
L 163.113455 83.932189 
L 164.556545 83.352974 
L 165.999636 82.794173 
L 167.442727 82.262606 
L 168.885818 81.767015 
L 170.328909 81.318285 
L 171.772 80.92958 
L 173.215091 80.616401 
L 174.658182 80.396585 
L 176.101273 80.290211 
L 177.544364 80.319354 
L 178.987455 80.507567 
L 180.430545 80.878978 
L 181.873636 81.45685 
L 183.316727 82.261549 
L 184.759818 83.307952 
L 186.202909 84.602515 
L 187.646 86.140424 
L 189.089091 87.903497 
L 190.532182 89.859533 
L 191.975273 91.963695 
L 193.418364 94.162044 
L 194.861455 96.39677 
L 196.304545 98.612086 
" style="fill:none;opacity:0.45;stroke:#b1400d;stroke-dasharray:2.775,1.2;stroke-dashoffset:0;stroke-width:0.75;"/>
   </g>
   <g id="line2d_14">
    <path clip-path="url(#p13463761af)" d="M 51.995455 108.812287 
L 53.438545 108.920226 
L 54.881636 109.011118 
L 56.324727 109.09646 
L 57.767818 109.187358 
L 59.210909 109.294674 
L 60.654 109.429339 
L 62.097091 109.602824 
L 63.540182 109.827644 
L 64.983273 110.117757 
L 66.426364 110.488689 
L 67.869455 110.95736 
L 69.312545 111.541561 
L 70.755636 112.259017 
L 72.198727 113.125911 
L 73.641818 114.15476 
L 75.084909 115.351726 
L 76.528 116.713716 
L 77.971091 118.225831 
L 79.414182 119.859842 
L 80.857273 121.574363 
L 82.300364 123.317145 
L 83.743455 125.029461 
L 85.186545 126.651891 
L 86.629636 128.130355 
L 88.072727 129.421083 
L 89.515818 130.493631 
L 90.958909 131.331618 
L 92.402 131.931539 
L 93.845091 132.300316 
L 95.288182 132.452332 
L 96.731273 132.406544 
L 98.174364 132.184028 
L 99.617455 131.806085 
L 101.060545 131.292921 
L 102.503636 130.662873 
L 103.946727 129.932136 
L 105.389818 129.114902 
L 106.832909 128.223794 
L 108.276 127.270481 
L 109.719091 126.266372 
L 111.162182 125.223381 
L 112.605273 124.154771 
L 114.048364 123.076125 
L 115.491455 122.006482 
L 116.934545 120.969655 
L 118.377636 119.995616 
L 119.820727 119.121503 
L 121.263818 118.391163 
L 122.706909 117.851329 
L 124.15 117.542666 
L 125.593091 117.487117 
L 127.036182 117.678485 
L 128.479273 118.083896 
L 129.922364 118.655392 
L 131.365455 119.343283 
L 132.808545 120.104693 
L 134.251636 120.906548 
L 135.694727 121.725156 
L 137.137818 122.544463 
L 138.580909 123.354154 
L 140.024 124.148067 
L 141.467091 124.923003 
L 142.910182 125.677876 
L 144.353273 126.413127 
L 145.796364 127.130329 
L 147.239455 127.831916 
L 148.682545 128.520936 
L 150.125636 129.200799 
L 151.568727 129.87502 
L 153.011818 130.546978 
L 154.454909 131.219781 
L 155.898 131.896226 
L 157.341091 132.578867 
L 158.784182 133.270141 
L 160.227273 133.972522 
L 161.670364 134.68865 
L 163.113455 135.42142 
L 164.556545 136.174021 
L 165.999636 136.94996 
L 167.442727 137.753112 
L 168.885818 138.587832 
L 170.328909 139.459172 
L 171.772 140.373178 
L 173.215091 141.337231 
L 174.658182 142.360345 
L 176.101273 143.453334 
L 177.544364 144.628755 
L 178.987455 145.90054 
L 180.430545 147.283203 
L 181.873636 148.790545 
L 183.316727 150.433767 
L 184.759818 152.219063 
L 186.202909 154.144864 
L 187.646 156.199201 
L 189.089091 158.3578 
L 190.532182 160.583652 
L 191.975273 162.828608 
L 193.418364 165.037106 
L 194.861455 167.151536 
L 196.304545 169.118182 
" style="fill:none;opacity:0.45;stroke:#b1400d;stroke-dasharray:2.775,1.2;stroke-dashoffset:0;stroke-width:0.75;"/>
   </g>
   <g id="patch_3">
    <path d="M 44.78 175.96 
L 44.78 25.44 
" style="fill:none;stroke:#262626;stroke-linecap:square;stroke-linejoin:miter;stroke-width:0.8;"/>
   </g>
   <g id="patch_4">
    <path d="M 44.78 175.96 
L 203.52 175.96 
" style="fill:none;stroke:#262626;stroke-linecap:square;stroke-linejoin:miter;stroke-width:0.8;"/>
   </g>
   <g id="text_13">
    <!-- Epik-macro SM08 -->
    <defs>
     <path d="M 7.90625 0 
L 7.90625 71.578125 
L 59.671875 71.578125 
L 59.671875 63.140625 
L 17.390625 63.140625 
L 17.390625 41.21875 
L 56.984375 41.21875 
L 56.984375 32.8125 
L 17.390625 32.8125 
L 17.390625 8.453125 
L 61.328125 8.453125 
L 61.328125 0 
z
" id="ArialMT-45"/>
     <path d="M 6.640625 61.46875 
L 6.640625 71.578125 
L 15.4375 71.578125 
L 15.4375 61.46875 
z
M 6.640625 0 
L 6.640625 51.859375 
L 15.4375 51.859375 
L 15.4375 0 
z
" id="ArialMT-69"/>
     <path d="M 6.640625 0 
L 6.640625 71.578125 
L 15.4375 71.578125 
L 15.4375 30.765625 
L 36.234375 51.859375 
L 47.609375 51.859375 
L 27.78125 32.625 
L 49.609375 0 
L 38.765625 0 
L 21.625 26.515625 
L 15.4375 20.5625 
L 15.4375 0 
z
" id="ArialMT-6b"/>
     <path d="M 3.171875 21.484375 
L 3.171875 30.328125 
L 30.171875 30.328125 
L 30.171875 21.484375 
z
" id="ArialMT-2d"/>
     <path d="M 6.59375 0 
L 6.59375 51.859375 
L 14.453125 51.859375 
L 14.453125 44.578125 
Q 16.890625 48.390625 20.9375 50.703125 
Q 25 53.03125 30.171875 53.03125 
Q 35.9375 53.03125 39.625 50.640625 
Q 43.3125 48.25 44.828125 43.953125 
Q 50.984375 53.03125 60.84375 53.03125 
Q 68.5625 53.03125 72.703125 48.75 
Q 76.859375 44.484375 76.859375 35.59375 
L 76.859375 0 
L 68.109375 0 
L 68.109375 32.671875 
Q 68.109375 37.9375 67.25 40.25 
Q 66.40625 42.578125 64.15625 43.984375 
Q 61.921875 45.40625 58.890625 45.40625 
Q 53.421875 45.40625 49.796875 41.765625 
Q 46.1875 38.140625 46.1875 30.125 
L 46.1875 0 
L 37.40625 0 
L 37.40625 33.6875 
Q 37.40625 39.546875 35.25 42.46875 
Q 33.109375 45.40625 28.21875 45.40625 
Q 24.515625 45.40625 21.359375 43.453125 
Q 18.21875 41.5 16.796875 37.734375 
Q 15.375 33.984375 15.375 26.90625 
L 15.375 0 
z
" id="ArialMT-6d"/>
     <path d="M 40.4375 6.390625 
Q 35.546875 2.25 31.03125 0.53125 
Q 26.515625 -1.171875 21.34375 -1.171875 
Q 12.796875 -1.171875 8.203125 3 
Q 3.609375 7.171875 3.609375 13.671875 
Q 3.609375 17.484375 5.34375 20.625 
Q 7.078125 23.78125 9.890625 25.6875 
Q 12.703125 27.59375 16.21875 28.5625 
Q 18.796875 29.25 24.03125 29.890625 
Q 34.671875 31.15625 39.703125 32.90625 
Q 39.75 34.71875 39.75 35.203125 
Q 39.75 40.578125 37.25 42.78125 
Q 33.890625 45.75 27.25 45.75 
Q 21.046875 45.75 18.09375 43.578125 
Q 15.140625 41.40625 13.71875 35.890625 
L 5.125 37.0625 
Q 6.296875 42.578125 8.984375 45.96875 
Q 11.671875 49.359375 16.75 51.1875 
Q 21.828125 53.03125 28.515625 53.03125 
Q 35.15625 53.03125 39.296875 51.46875 
Q 43.453125 49.90625 45.40625 47.53125 
Q 47.359375 45.171875 48.140625 41.546875 
Q 48.578125 39.3125 48.578125 33.453125 
L 48.578125 21.734375 
Q 48.578125 9.46875 49.140625 6.21875 
Q 49.703125 2.984375 51.375 0 
L 42.1875 0 
Q 40.828125 2.734375 40.4375 6.390625 
z
M 39.703125 26.03125 
Q 34.90625 24.078125 25.34375 22.703125 
Q 19.921875 21.921875 17.671875 20.9375 
Q 15.4375 19.96875 14.203125 18.09375 
Q 12.984375 16.21875 12.984375 13.921875 
Q 12.984375 10.40625 15.640625 8.0625 
Q 18.3125 5.71875 23.4375 5.71875 
Q 28.515625 5.71875 32.46875 7.9375 
Q 36.421875 10.15625 38.28125 14.015625 
Q 39.703125 17 39.703125 22.796875 
z
" id="ArialMT-61"/>
     <path d="M 40.4375 19 
L 49.078125 17.875 
Q 47.65625 8.9375 41.8125 3.875 
Q 35.984375 -1.171875 27.484375 -1.171875 
Q 16.84375 -1.171875 10.375 5.78125 
Q 3.90625 12.75 3.90625 25.734375 
Q 3.90625 34.125 6.6875 40.421875 
Q 9.46875 46.734375 15.15625 49.875 
Q 20.84375 53.03125 27.546875 53.03125 
Q 35.984375 53.03125 41.359375 48.75 
Q 46.734375 44.484375 48.25 36.625 
L 39.703125 35.296875 
Q 38.484375 40.53125 35.375 43.15625 
Q 32.28125 45.796875 27.875 45.796875 
Q 21.234375 45.796875 17.078125 41.03125 
Q 12.9375 36.28125 12.9375 25.984375 
Q 12.9375 15.53125 16.9375 10.796875 
Q 20.953125 6.0625 27.390625 6.0625 
Q 32.5625 6.0625 36.03125 9.234375 
Q 39.5 12.40625 40.4375 19 
z
" id="ArialMT-63"/>
     <path d="M 6.5 0 
L 6.5 51.859375 
L 14.40625 51.859375 
L 14.40625 44 
Q 17.4375 49.515625 20 51.265625 
Q 22.5625 53.03125 25.640625 53.03125 
Q 30.078125 53.03125 34.671875 50.203125 
L 31.640625 42.046875 
Q 28.421875 43.953125 25.203125 43.953125 
Q 22.3125 43.953125 20.015625 42.21875 
Q 17.71875 40.484375 16.75 37.40625 
Q 15.28125 32.71875 15.28125 27.15625 
L 15.28125 0 
z
" id="ArialMT-72"/>
     <path d="M 3.328125 25.921875 
Q 3.328125 40.328125 11.328125 47.265625 
Q 18.015625 53.03125 27.640625 53.03125 
Q 38.328125 53.03125 45.109375 46.015625 
Q 51.90625 39.015625 51.90625 26.65625 
Q 51.90625 16.65625 48.90625 10.90625 
Q 45.90625 5.171875 40.15625 2 
Q 34.421875 -1.171875 27.640625 -1.171875 
Q 16.75 -1.171875 10.03125 5.8125 
Q 3.328125 12.796875 3.328125 25.921875 
z
M 12.359375 25.921875 
Q 12.359375 15.96875 16.703125 11.015625 
Q 21.046875 6.0625 27.640625 6.0625 
Q 34.1875 6.0625 38.53125 11.03125 
Q 42.875 16.015625 42.875 26.21875 
Q 42.875 35.84375 38.5 40.796875 
Q 34.125 45.75 27.640625 45.75 
Q 21.046875 45.75 16.703125 40.8125 
Q 12.359375 35.890625 12.359375 25.921875 
z
" id="ArialMT-6f"/>
     <path id="ArialMT-20"/>
     <path d="M 4.5 23 
L 13.421875 23.78125 
Q 14.0625 18.40625 16.375 14.96875 
Q 18.703125 11.53125 23.578125 9.40625 
Q 28.46875 7.28125 34.578125 7.28125 
Q 39.984375 7.28125 44.140625 8.890625 
Q 48.296875 10.5 50.3125 13.296875 
Q 52.34375 16.109375 52.34375 19.4375 
Q 52.34375 22.796875 50.390625 25.3125 
Q 48.4375 27.828125 43.953125 29.546875 
Q 41.0625 30.671875 31.203125 33.03125 
Q 21.34375 35.40625 17.390625 37.5 
Q 12.25 40.1875 9.734375 44.15625 
Q 7.234375 48.140625 7.234375 53.078125 
Q 7.234375 58.5 10.296875 63.203125 
Q 13.375 67.921875 19.28125 70.359375 
Q 25.203125 72.796875 32.421875 72.796875 
Q 40.375 72.796875 46.453125 70.234375 
Q 52.546875 67.671875 55.8125 62.6875 
Q 59.078125 57.71875 59.328125 51.421875 
L 50.25 50.734375 
Q 49.515625 57.515625 45.28125 60.984375 
Q 41.0625 64.453125 32.8125 64.453125 
Q 24.21875 64.453125 20.28125 61.296875 
Q 16.359375 58.15625 16.359375 53.71875 
Q 16.359375 49.859375 19.140625 47.359375 
Q 21.875 44.875 33.421875 42.265625 
Q 44.96875 39.65625 49.265625 37.703125 
Q 55.515625 34.8125 58.484375 30.390625 
Q 61.46875 25.984375 61.46875 20.21875 
Q 61.46875 14.5 58.203125 9.4375 
Q 54.9375 4.390625 48.796875 1.578125 
Q 42.671875 -1.21875 35.015625 -1.21875 
Q 25.296875 -1.21875 18.71875 1.609375 
Q 12.15625 4.4375 8.421875 10.125 
Q 4.6875 15.828125 4.5 23 
z
" id="ArialMT-53"/>
     <path d="M 7.421875 0 
L 7.421875 71.578125 
L 21.6875 71.578125 
L 38.625 20.90625 
Q 40.96875 13.8125 42.046875 10.296875 
Q 43.265625 14.203125 45.84375 21.78125 
L 62.984375 71.578125 
L 75.734375 71.578125 
L 75.734375 0 
L 66.609375 0 
L 66.609375 59.90625 
L 45.796875 0 
L 37.25 0 
L 16.546875 60.9375 
L 16.546875 0 
z
" id="ArialMT-4d"/>
    </defs>
    <g style="fill:#262626;" transform="translate(76.471563 19.44)scale(0.12 -0.12)">
     <use xlink:href="#ArialMT-45"/>
     <use x="66.699219" xlink:href="#ArialMT-70"/>
     <use x="122.314453" xlink:href="#ArialMT-69"/>
     <use x="144.53125" xlink:href="#ArialMT-6b"/>
     <use x="194.53125" xlink:href="#ArialMT-2d"/>
     <use x="227.832031" xlink:href="#ArialMT-6d"/>
     <use x="311.132812" xlink:href="#ArialMT-61"/>
     <use x="366.748047" xlink:href="#ArialMT-63"/>
     <use x="416.748047" xlink:href="#ArialMT-72"/>
     <use x="450.048828" xlink:href="#ArialMT-6f"/>
     <use x="505.664062" xlink:href="#ArialMT-20"/>
     <use x="533.447266" xlink:href="#ArialMT-53"/>
     <use x="600.146484" xlink:href="#ArialMT-4d"/>
     <use x="683.447266" xlink:href="#ArialMT-30"/>
     <use x="739.0625" xlink:href="#ArialMT-38"/>
    </g>
   </g>
  </g>
 </g>
 <defs>
  <clipPath id="p13463761af">
   <rect height="150.52" width="158.74" x="44.78" y="25.44"/>
  </clipPath>
 </defs>
</svg>
