<?xml version="1.0" encoding="utf-8" standalone="no"?>
<!DOCTYPE svg PUBLIC "-//W3C//DTD SVG 1.1//EN"
  "http://www.w3.org/Graphics/SVG/1.1/DTD/svg11.dtd">
<!-- Created with matplotlib (http://matplotlib.org/) -->
<svg height="216pt" version="1.1" viewBox="0 0 216 216" width="216pt" xmlns="http://www.w3.org/2000/svg" xmlns:xlink="http://www.w3.org/1999/xlink">
 <defs>
  <style type="text/css">
*{stroke-linecap:butt;stroke-linejoin:round;}
  </style>
 </defs>
 <g id="figure_1">
  <g id="patch_1">
   <path d="M 0 216 
L 216 216 
L 216 0 
L 0 0 
z
" style="fill:#ffffff;"/>
  </g>
  <g id="axes_1">
   <g id="patch_2">
    <path d="M 44.78 175.96 
L 203.52 175.96 
L 203.52 25.44 
L 44.78 25.44 
z
" style="fill:#ffffff;"/>
   </g>
   <g id="matplotlib.axis_1">
    <g id="xtick_1">
     <g id="line2d_1">
      <defs>
       <path d="M 0 0 
L 0 3.5 
" id="mccf4659e16" style="stroke:#262626;stroke-width:0.8;"/>
      </defs>
      <g>
       <use style="fill:#262626;stroke:#262626;stroke-width:0.8;" x="51.995455" xlink:href="#mccf4659e16" y="175.96"/>
      </g>
     </g>
     <g id="text_1">
      <!-- 2 -->
      <defs>
       <path d="M 50.34375 8.453125 
L 50.34375 0 
L 3.03125 0 
Q 2.9375 3.171875 4.046875 6.109375 
Q 5.859375 10.9375 9.828125 15.625 
Q 13.8125 20.3125 21.34375 26.46875 
Q 33.015625 36.03125 37.109375 41.625 
Q 41.21875 47.21875 41.21875 52.203125 
Q 41.21875 57.421875 37.46875 61 
Q 33.734375 64.59375 27.734375 64.59375 
Q 21.390625 64.59375 17.578125 60.78125 
Q 13.765625 56.984375 13.71875 50.25 
L 4.6875 51.171875 
Q 5.609375 61.28125 11.65625 66.578125 
Q 17.71875 71.875 27.9375 71.875 
Q 38.234375 71.875 44.234375 66.15625 
Q 50.25 60.453125 50.25 52 
Q 50.25 47.703125 48.484375 43.546875 
Q 46.734375 39.40625 42.65625 34.8125 
Q 38.578125 30.21875 29.109375 22.21875 
Q 21.1875 15.578125 18.9375 13.203125 
Q 16.703125 10.84375 15.234375 8.453125 
z
" id="ArialMT-32"/>
      </defs>
      <g style="fill:#262626;" transform="translate(49.214986 190.117812)scale(0.1 -0.1)">
       <use xlink:href="#ArialMT-32"/>
      </g>
     </g>
    </g>
    <g id="xtick_2">
     <g id="line2d_2">
      <g>
       <use style="fill:#262626;stroke:#262626;stroke-width:0.8;" x="80.857273" xlink:href="#mccf4659e16" y="175.96"/>
      </g>
     </g>
     <g id="text_2">
      <!-- 4 -->
      <defs>
       <path d="M 32.328125 0 
L 32.328125 17.140625 
L 1.265625 17.140625 
L 1.265625 25.203125 
L 33.9375 71.578125 
L 41.109375 71.578125 
L 41.109375 25.203125 
L 50.78125 25.203125 
L 50.78125 17.140625 
L 41.109375 17.140625 
L 41.109375 0 
z
M 32.328125 25.203125 
L 32.328125 57.46875 
L 9.90625 25.203125 
z
" id="ArialMT-34"/>
      </defs>
      <g style="fill:#262626;" transform="translate(78.076804 190.117812)scale(0.1 -0.1)">
       <use xlink:href="#ArialMT-34"/>
      </g>
     </g>
    </g>
    <g id="xtick_3">
     <g id="line2d_3">
      <g>
       <use style="fill:#262626;stroke:#262626;stroke-width:0.8;" x="109.719091" xlink:href="#mccf4659e16" y="175.96"/>
      </g>
     </g>
     <g id="text_3">
      <!-- 6 -->
      <defs>
       <path d="M 49.75 54.046875 
L 41.015625 53.375 
Q 39.84375 58.546875 37.703125 60.890625 
Q 34.125 64.65625 28.90625 64.65625 
Q 24.703125 64.65625 21.53125 62.3125 
Q 17.390625 59.28125 14.984375 53.46875 
Q 12.59375 47.65625 12.5 36.921875 
Q 15.671875 41.75 20.265625 44.09375 
Q 24.859375 46.4375 29.890625 46.4375 
Q 38.671875 46.4375 44.84375 39.96875 
Q 51.03125 33.5 51.03125 23.25 
Q 51.03125 16.5 48.125 10.71875 
Q 45.21875 4.9375 40.140625 1.859375 
Q 35.0625 -1.21875 28.609375 -1.21875 
Q 17.625 -1.21875 10.6875 6.859375 
Q 3.765625 14.9375 3.765625 33.5 
Q 3.765625 54.25 11.421875 63.671875 
Q 18.109375 71.875 29.4375 71.875 
Q 37.890625 71.875 43.28125 67.140625 
Q 48.6875 62.40625 49.75 54.046875 
z
M 13.875 23.1875 
Q 13.875 18.65625 15.796875 14.5 
Q 17.71875 10.359375 21.1875 8.171875 
Q 24.65625 6 28.46875 6 
Q 34.03125 6 38.03125 10.484375 
Q 42.046875 14.984375 42.046875 22.703125 
Q 42.046875 30.125 38.078125 34.390625 
Q 34.125 38.671875 28.125 38.671875 
Q 22.171875 38.671875 18.015625 34.390625 
Q 13.875 30.125 13.875 23.1875 
z
" id="ArialMT-36"/>
      </defs>
      <g style="fill:#262626;" transform="translate(106.938622 190.117812)scale(0.1 -0.1)">
       <use xlink:href="#ArialMT-36"/>
      </g>
     </g>
    </g>
    <g id="xtick_4">
     <g id="line2d_4">
      <g>
       <use style="fill:#262626;stroke:#262626;stroke-width:0.8;" x="138.580909" xlink:href="#mccf4659e16" y="175.96"/>
      </g>
     </g>
     <g id="text_4">
      <!-- 8 -->
      <defs>
       <path d="M 17.671875 38.8125 
Q 12.203125 40.828125 9.5625 44.53125 
Q 6.9375 48.25 6.9375 53.421875 
Q 6.9375 61.234375 12.546875 66.546875 
Q 18.171875 71.875 27.484375 71.875 
Q 36.859375 71.875 42.578125 66.421875 
Q 48.296875 60.984375 48.296875 53.171875 
Q 48.296875 48.1875 45.671875 44.5 
Q 43.0625 40.828125 37.75 38.8125 
Q 44.34375 36.671875 47.78125 31.875 
Q 51.21875 27.09375 51.21875 20.453125 
Q 51.21875 11.28125 44.71875 5.03125 
Q 38.234375 -1.21875 27.640625 -1.21875 
Q 17.046875 -1.21875 10.546875 5.046875 
Q 4.046875 11.328125 4.046875 20.703125 
Q 4.046875 27.6875 7.59375 32.390625 
Q 11.140625 37.109375 17.671875 38.8125 
z
M 15.921875 53.71875 
Q 15.921875 48.640625 19.1875 45.40625 
Q 22.46875 42.1875 27.6875 42.1875 
Q 32.765625 42.1875 36.015625 45.375 
Q 39.265625 48.578125 39.265625 53.21875 
Q 39.265625 58.0625 35.90625 61.359375 
Q 32.5625 64.65625 27.59375 64.65625 
Q 22.5625 64.65625 19.234375 61.421875 
Q 15.921875 58.203125 15.921875 53.71875 
z
M 13.09375 20.65625 
Q 13.09375 16.890625 14.875 13.375 
Q 16.65625 9.859375 20.171875 7.921875 
Q 23.6875 6 27.734375 6 
Q 34.03125 6 38.125 10.046875 
Q 42.234375 14.109375 42.234375 20.359375 
Q 42.234375 26.703125 38.015625 30.859375 
Q 33.796875 35.015625 27.4375 35.015625 
Q 21.234375 35.015625 17.15625 30.90625 
Q 13.09375 26.8125 13.09375 20.65625 
z
" id="ArialMT-38"/>
      </defs>
      <g style="fill:#262626;" transform="translate(135.80044 190.117812)scale(0.1 -0.1)">
       <use xlink:href="#ArialMT-38"/>
      </g>
     </g>
    </g>
    <g id="xtick_5">
     <g id="line2d_5">
      <g>
       <use style="fill:#262626;stroke:#262626;stroke-width:0.8;" x="167.442727" xlink:href="#mccf4659e16" y="175.96"/>
      </g>
     </g>
     <g id="text_5">
      <!-- 10 -->
      <defs>
       <path d="M 37.25 0 
L 28.46875 0 
L 28.46875 56 
Q 25.296875 52.984375 20.140625 49.953125 
Q 14.984375 46.921875 10.890625 45.40625 
L 10.890625 53.90625 
Q 18.265625 57.375 23.78125 62.296875 
Q 29.296875 67.234375 31.59375 71.875 
L 37.25 71.875 
z
" id="ArialMT-31"/>
       <path d="M 4.15625 35.296875 
Q 4.15625 48 6.765625 55.734375 
Q 9.375 63.484375 14.515625 67.671875 
Q 19.671875 71.875 27.484375 71.875 
Q 33.25 71.875 37.59375 69.546875 
Q 41.9375 67.234375 44.765625 62.859375 
Q 47.609375 58.5 49.21875 52.21875 
Q 50.828125 45.953125 50.828125 35.296875 
Q 50.828125 22.703125 48.234375 14.96875 
Q 45.65625 7.234375 40.5 3 
Q 35.359375 -1.21875 27.484375 -1.21875 
Q 17.140625 -1.21875 11.234375 6.203125 
Q 4.15625 15.140625 4.15625 35.296875 
z
M 13.1875 35.296875 
Q 13.1875 17.671875 17.3125 11.828125 
Q 21.4375 6 27.484375 6 
Q 33.546875 6 37.671875 11.859375 
Q 41.796875 17.71875 41.796875 35.296875 
Q 41.796875 52.984375 37.671875 58.78125 
Q 33.546875 64.59375 27.390625 64.59375 
Q 21.34375 64.59375 17.71875 59.46875 
Q 13.1875 52.9375 13.1875 35.296875 
z
" id="ArialMT-30"/>
      </defs>
      <g style="fill:#262626;" transform="translate(161.88179 190.117812)scale(0.1 -0.1)">
       <use xlink:href="#ArialMT-31"/>
       <use x="55.615234" xlink:href="#ArialMT-30"/>
      </g>
     </g>
    </g>
    <g id="xtick_6">
     <g id="line2d_6">
      <g>
       <use style="fill:#262626;stroke:#262626;stroke-width:0.8;" x="196.304545" xlink:href="#mccf4659e16" y="175.96"/>
      </g>
     </g>
     <g id="text_6">
      <!-- 12 -->
      <g style="fill:#262626;" transform="translate(190.743608 190.117812)scale(0.1 -0.1)">
       <use xlink:href="#ArialMT-31"/>
       <use x="55.615234" xlink:href="#ArialMT-32"/>
      </g>
     </g>
    </g>
    <g id="text_7">
     <!-- pH -->
     <defs>
      <path d="M 6.59375 -19.875 
L 6.59375 51.859375 
L 14.59375 51.859375 
L 14.59375 45.125 
Q 17.4375 49.078125 21 51.046875 
Q 24.5625 53.03125 29.640625 53.03125 
Q 36.28125 53.03125 41.359375 49.609375 
Q 46.4375 46.1875 49.015625 39.953125 
Q 51.609375 33.734375 51.609375 26.3125 
Q 51.609375 18.359375 48.75 11.984375 
Q 45.90625 5.609375 40.453125 2.21875 
Q 35.015625 -1.171875 29 -1.171875 
Q 24.609375 -1.171875 21.109375 0.6875 
Q 17.625 2.546875 15.375 5.375 
L 15.375 -19.875 
z
M 14.546875 25.640625 
Q 14.546875 15.625 18.59375 10.84375 
Q 22.65625 6.0625 28.421875 6.0625 
Q 34.28125 6.0625 38.453125 11.015625 
Q 42.625 15.96875 42.625 26.375 
Q 42.625 36.28125 38.546875 41.203125 
Q 34.46875 46.140625 28.8125 46.140625 
Q 23.1875 46.140625 18.859375 40.890625 
Q 14.546875 35.640625 14.546875 25.640625 
z
" id="ArialMT-70"/>
      <path d="M 8.015625 0 
L 8.015625 71.578125 
L 17.484375 71.578125 
L 17.484375 42.1875 
L 54.6875 42.1875 
L 54.6875 71.578125 
L 64.15625 71.578125 
L 64.15625 0 
L 54.6875 0 
L 54.6875 33.734375 
L 17.484375 33.734375 
L 17.484375 0 
z
" id="ArialMT-48"/>
     </defs>
     <g style="fill:#262626;" transform="translate(117.758594 203.263125)scale(0.1 -0.1)">
      <use xlink:href="#ArialMT-70"/>
      <use x="55.615234" xlink:href="#ArialMT-48"/>
     </g>
    </g>
   </g>
   <g id="matplotlib.axis_2">
    <g id="ytick_1">
     <g id="line2d_7">
      <defs>
       <path d="M 0 0 
L -3.5 0 
" id="m2396044b50" style="stroke:#262626;stroke-width:0.8;"/>
      </defs>
      <g>
       <use style="fill:#262626;stroke:#262626;stroke-width:0.8;" x="44.78" xlink:href="#m2396044b50" y="151.193604"/>
      </g>
     </g>
     <g id="text_8">
      <!-- −1 -->
      <defs>
       <path d="M 52.828125 31.203125 
L 5.5625 31.203125 
L 5.5625 39.40625 
L 52.828125 39.40625 
z
" id="ArialMT-2212"/>
      </defs>
      <g style="fill:#262626;" transform="translate(26.378438 154.772511)scale(0.1 -0.1)">
       <use xlink:href="#ArialMT-2212"/>
       <use x="58.398438" xlink:href="#ArialMT-31"/>
      </g>
     </g>
    </g>
    <g id="ytick_2">
     <g id="line2d_8">
      <g>
       <use style="fill:#262626;stroke:#262626;stroke-width:0.8;" x="44.78" xlink:href="#m2396044b50" y="99.782865"/>
      </g>
     </g>
     <g id="text_9">
      <!-- 0 -->
      <g style="fill:#262626;" transform="translate(32.219063 103.361772)scale(0.1 -0.1)">
       <use xlink:href="#ArialMT-30"/>
      </g>
     </g>
    </g>
    <g id="ytick_3">
     <g id="line2d_9">
      <g>
       <use style="fill:#262626;stroke:#262626;stroke-width:0.8;" x="44.78" xlink:href="#m2396044b50" y="48.372126"/>
      </g>
     </g>
     <g id="text_10">
      <!-- 1 -->
      <g style="fill:#262626;" transform="translate(32.219063 51.951033)scale(0.1 -0.1)">
       <use xlink:href="#ArialMT-31"/>
      </g>
     </g>
    </g>
    <g id="text_11">
     <!-- $\langle q_\mathsf{total} \rangle$ -->
     <defs>
      <path d="M 8.9375 31.34375 
L 22.703125 75.875 
L 31 75.875 
L 17.234375 31.34375 
L 31 -13.1875 
L 22.703125 -13.1875 
z
" id="DejaVuSans-27e8"/>
      <path d="M 41.703125 8.203125 
Q 38.09375 3.46875 33.171875 1.015625 
Q 28.265625 -1.421875 22.3125 -1.421875 
Q 14.015625 -1.421875 9.296875 4.171875 
Q 4.59375 9.765625 4.59375 19.578125 
Q 4.59375 27.484375 7.5 34.859375 
Q 10.40625 42.234375 15.828125 48.09375 
Q 19.34375 51.90625 23.90625 53.953125 
Q 28.46875 56 33.5 56 
Q 39.546875 56 43.453125 53.609375 
Q 47.359375 51.21875 49.125 46.390625 
L 50.6875 54.59375 
L 59.71875 54.59375 
L 45.125 -20.609375 
L 36.078125 -20.609375 
z
M 13.921875 20.90625 
Q 13.921875 13.671875 16.9375 9.890625 
Q 19.96875 6.109375 25.6875 6.109375 
Q 34.1875 6.109375 40.1875 14.234375 
Q 46.1875 22.359375 46.1875 33.984375 
Q 46.1875 41.015625 43.078125 44.75 
Q 39.984375 48.484375 34.1875 48.484375 
Q 29.9375 48.484375 26.3125 46.5 
Q 22.703125 44.53125 20.015625 40.71875 
Q 17.1875 36.71875 15.546875 31.34375 
Q 13.921875 25.984375 13.921875 20.90625 
z
" id="DejaVuSans-Oblique-71"/>
      <path d="M 18.3125 70.21875 
L 18.3125 54.6875 
L 36.8125 54.6875 
L 36.8125 47.703125 
L 18.3125 47.703125 
L 18.3125 18.015625 
Q 18.3125 11.328125 20.140625 9.421875 
Q 21.96875 7.515625 27.59375 7.515625 
L 36.8125 7.515625 
L 36.8125 0 
L 27.59375 0 
Q 17.1875 0 13.234375 3.875 
Q 9.28125 7.765625 9.28125 18.015625 
L 9.28125 47.703125 
L 2.6875 47.703125 
L 2.6875 54.6875 
L 9.28125 54.6875 
L 9.28125 70.21875 
z
" id="DejaVuSans-74"/>
      <path d="M 30.609375 48.390625 
Q 23.390625 48.390625 19.1875 42.75 
Q 14.984375 37.109375 14.984375 27.296875 
Q 14.984375 17.484375 19.15625 11.84375 
Q 23.34375 6.203125 30.609375 6.203125 
Q 37.796875 6.203125 41.984375 11.859375 
Q 46.1875 17.53125 46.1875 27.296875 
Q 46.1875 37.015625 41.984375 42.703125 
Q 37.796875 48.390625 30.609375 48.390625 
z
M 30.609375 56 
Q 42.328125 56 49.015625 48.375 
Q 55.71875 40.765625 55.71875 27.296875 
Q 55.71875 13.875 49.015625 6.21875 
Q 42.328125 -1.421875 30.609375 -1.421875 
Q 18.84375 -1.421875 12.171875 6.21875 
Q 5.515625 13.875 5.515625 27.296875 
Q 5.515625 40.765625 12.171875 48.375 
Q 18.84375 56 30.609375 56 
z
" id="DejaVuSans-6f"/>
      <path d="M 34.28125 27.484375 
Q 23.390625 27.484375 19.1875 25 
Q 14.984375 22.515625 14.984375 16.5 
Q 14.984375 11.71875 18.140625 8.90625 
Q 21.296875 6.109375 26.703125 6.109375 
Q 34.1875 6.109375 38.703125 11.40625 
Q 43.21875 16.703125 43.21875 25.484375 
L 43.21875 27.484375 
z
M 52.203125 31.203125 
L 52.203125 0 
L 43.21875 0 
L 43.21875 8.296875 
Q 40.140625 3.328125 35.546875 0.953125 
Q 30.953125 -1.421875 24.3125 -1.421875 
Q 15.921875 -1.421875 10.953125 3.296875 
Q 6 8.015625 6 15.921875 
Q 6 25.140625 12.171875 29.828125 
Q 18.359375 34.515625 30.609375 34.515625 
L 43.21875 34.515625 
L 43.21875 35.40625 
Q 43.21875 41.609375 39.140625 45 
Q 35.0625 48.390625 27.6875 48.390625 
Q 23 48.390625 18.546875 47.265625 
Q 14.109375 46.140625 10.015625 43.890625 
L 10.015625 52.203125 
Q 14.9375 54.109375 19.578125 55.046875 
Q 24.21875 56 28.609375 56 
Q 40.484375 56 46.34375 49.84375 
Q 52.203125 43.703125 52.203125 31.203125 
z
" id="DejaVuSans-61"/>
      <path d="M 9.421875 75.984375 
L 18.40625 75.984375 
L 18.40625 0 
L 9.421875 0 
z
" id="DejaVuSans-6c"/>
      <path d="M 30.078125 31.34375 
L 16.3125 -13.1875 
L 8.015625 -13.1875 
L 21.78125 31.34375 
L 8.015625 75.875 
L 16.3125 75.875 
z
" id="DejaVuSans-27e9"/>
     </defs>
     <g style="fill:#262626;" transform="translate(20.278438 115.95)rotate(-90)scale(0.1 -0.1)">
      <use transform="translate(0 0.125)" xlink:href="#DejaVuSans-27e8"/>
      <use transform="translate(39.013672 0.125)" xlink:href="#DejaVuSans-Oblique-71"/>
      <use transform="translate(102.490234 -16.28125)scale(0.7)" xlink:href="#DejaVuSans-74"/>
      <use transform="translate(129.936523 -16.28125)scale(0.7)" xlink:href="#DejaVuSans-6f"/>
      <use transform="translate(172.763672 -16.28125)scale(0.7)" xlink:href="#DejaVuSans-74"/>
      <use transform="translate(200.209961 -16.28125)scale(0.7)" xlink:href="#DejaVuSans-61"/>
      <use transform="translate(243.105469 -16.28125)scale(0.7)" xlink:href="#DejaVuSans-6c"/>
      <use transform="translate(265.288086 0.125)" xlink:href="#DejaVuSans-27e9"/>
     </g>
    </g>
   </g>
   <g id="PolyCollection_1">
    <defs>
     <path d="M 51.995455 -179.078375 
L 51.995455 -153.095017 
L 53.438545 -151.418616 
L 54.881636 -149.569946 
L 56.324727 -147.549005 
L 57.767818 -145.355772 
L 59.210909 -142.990335 
L 60.654 -140.453456 
L 62.097091 -137.747654 
L 63.540182 -134.878847 
L 64.983273 -131.858555 
L 66.426364 -128.706521 
L 67.869455 -125.453395 
L 69.312545 -122.142879 
L 70.755636 -118.832495 
L 72.198727 -115.592162 
L 73.641818 -112.500142 
L 75.084909 -109.636575 
L 76.528 -107.07565 
L 77.971091 -104.878006 
L 79.414182 -103.084959 
L 80.857273 -101.715624 
L 82.300364 -100.767142 
L 83.743455 -100.217451 
L 85.186545 -100.029615 
L 86.629636 -100.156669 
L 88.072727 -100.546189 
L 89.515818 -101.144112 
L 90.958909 -101.897651 
L 92.402 -102.757367 
L 93.845091 -103.678563 
L 95.288182 -104.622187 
L 96.731273 -105.555424 
L 98.174364 -106.452052 
L 99.617455 -107.29261 
L 101.060545 -108.064337 
L 102.503636 -108.760852 
L 103.946727 -109.3815 
L 105.389818 -109.930373 
L 106.832909 -110.415042 
L 108.276 -110.845133 
L 109.719091 -111.230881 
L 111.162182 -111.581814 
L 112.605273 -111.905622 
L 114.048364 -112.207187 
L 115.491455 -112.487693 
L 116.934545 -112.74372 
L 118.377636 -112.966383 
L 119.820727 -113.140928 
L 121.263818 -113.24772 
L 122.706909 -113.265847 
L 124.15 -113.179251 
L 125.593091 -112.982257 
L 127.036182 -112.680408 
L 128.479273 -112.286415 
L 129.922364 -111.814974 
L 131.365455 -111.279382 
L 132.808545 -110.690251 
L 134.251636 -110.055425 
L 135.694727 -109.380361 
L 137.137818 -108.66861 
L 138.580909 -107.922295 
L 140.024 -107.142566 
L 141.467091 -106.330003 
L 142.910182 -105.484956 
L 144.353273 -104.607774 
L 145.796364 -103.698952 
L 147.239455 -102.759199 
L 148.682545 -101.789468 
L 150.125636 -100.790966 
L 151.568727 -99.765139 
L 153.011818 -98.713642 
L 154.454909 -97.638252 
L 155.898 -96.540757 
L 157.341091 -95.42282 
L 158.784182 -94.285863 
L 160.227273 -93.130991 
L 161.670364 -91.958993 
L 163.113455 -90.770365 
L 164.556545 -89.565353 
L 165.999636 -88.34394 
L 167.442727 -87.105751 
L 168.885818 -85.849824 
L 170.328909 -84.57426 
L 171.772 -83.27576 
L 173.215091 -81.949092 
L 174.658182 -80.586564 
L 176.101273 -79.17757 
L 177.544364 -77.708316 
L 178.987455 -76.161785 
L 180.430545 -74.518075 
L 181.873636 -72.755214 
L 183.316727 -70.850601 
L 184.759818 -68.783196 
L 186.202909 -66.536488 
L 187.646 -64.102103 
L 189.089091 -61.483659 
L 190.532182 -58.700175 
L 191.975273 -55.788115 
L 193.418364 -52.801149 
L 194.861455 -49.807043 
L 196.304545 -46.881818 
L 196.304545 -129.055512 
L 196.304545 -129.055512 
L 194.861455 -132.032406 
L 193.418364 -134.918985 
L 191.975273 -137.639684 
L 190.532182 -140.128084 
L 189.089091 -142.332668 
L 187.646 -144.219844 
L 186.202909 -145.774089 
L 184.759818 -146.995833 
L 183.316727 -147.898002 
L 181.873636 -148.502177 
L 180.430545 -148.835059 
L 178.987455 -148.92563 
L 177.544364 -148.803101 
L 176.101273 -148.495607 
L 174.658182 -148.029476 
L 173.215091 -147.428912 
L 171.772 -146.715905 
L 170.328909 -145.910261 
L 168.885818 -145.029651 
L 167.442727 -144.089661 
L 165.999636 -143.10384 
L 164.556545 -142.083791 
L 163.113455 -141.0393 
L 161.670364 -139.978545 
L 160.227273 -138.908357 
L 158.784182 -137.834511 
L 157.341091 -136.762017 
L 155.898 -135.69536 
L 154.454909 -134.638655 
L 153.011818 -133.595713 
L 151.568727 -132.570037 
L 150.125636 -131.56477 
L 148.682545 -130.582654 
L 147.239455 -129.626008 
L 145.796364 -128.69673 
L 144.353273 -127.79633 
L 142.910182 -126.925966 
L 141.467091 -126.086495 
L 140.024 -125.278562 
L 138.580909 -124.502762 
L 137.137818 -123.759887 
L 135.694727 -123.051269 
L 134.251636 -122.379198 
L 132.808545 -121.747383 
L 131.365455 -121.161442 
L 129.922364 -120.629389 
L 128.479273 -120.162025 
L 127.036182 -119.772862 
L 125.593091 -119.476855 
L 124.15 -119.287025 
L 122.706909 -119.209294 
L 121.263818 -119.238462 
L 119.820727 -119.359054 
L 118.377636 -119.550892 
L 116.934545 -119.795258 
L 115.491455 -120.078545 
L 114.048364 -120.393313 
L 112.605273 -120.737947 
L 111.162182 -121.115901 
L 109.719091 -121.5349 
L 108.276 -122.006195 
L 106.832909 -122.543768 
L 105.389818 -123.16342 
L 103.946727 -123.881712 
L 102.503636 -124.714843 
L 101.060545 -125.677599 
L 99.617455 -126.782525 
L 98.174364 -128.039456 
L 96.731273 -129.455416 
L 95.288182 -131.03489 
L 93.845091 -132.780324 
L 92.402 -134.692764 
L 90.958909 -136.772454 
L 89.515818 -139.019241 
L 88.072727 -141.432652 
L 86.629636 -144.01148 
L 85.186545 -146.752772 
L 83.743455 -149.650138 
L 82.300364 -152.691399 
L 80.857273 -155.85579 
L 79.414182 -159.111162 
L 77.971091 -162.411909 
L 76.528 -165.698501 
L 75.084909 -168.8994 
L 73.641818 -171.935693 
L 72.198727 -174.728011 
L 70.755636 -177.204531 
L 69.312545 -179.308425 
L 67.869455 -181.003176 
L 66.426364 -182.274869 
L 64.983273 -183.131367 
L 63.540182 -183.599054 
L 62.097091 -183.718182 
L 60.654 -183.537861 
L 59.210909 -183.111501 
L 57.767818 -182.493144 
L 56.324727 -181.734809 
L 54.881636 -180.884776 
L 53.438545 -179.986563 
L 51.995455 -179.078375 
z
" id="m94d919399e" style="stroke:#ffffff;stroke-opacity:0.05;"/>
    </defs>
    <g clip-path="url(#p495d45a0be)">
     <use style="fill:#591e71;fill-opacity:0.05;stroke:#ffffff;stroke-opacity:0.05;" x="0" xlink:href="#m94d919399e" y="216"/>
    </g>
   </g>
   <g id="line2d_10">
    <path clip-path="url(#p495d45a0be)" d="M 51.995455 49.913304 
L 53.438545 50.29741 
L 54.881636 50.772639 
L 56.324727 51.358093 
L 57.767818 52.075542 
L 59.210909 52.949082 
L 60.654 54.004341 
L 62.097091 55.267082 
L 63.540182 56.761049 
L 64.983273 58.505039 
L 66.426364 60.509305 
L 67.869455 62.771714 
L 69.312545 65.274348 
L 70.755636 67.981487 
L 72.198727 70.839914 
L 73.641818 73.782082 
L 75.084909 76.732013 
L 76.528 79.612924 
L 77.971091 82.355042 
L 79.414182 84.90194 
L 80.857273 87.214293 
L 82.300364 89.27073 
L 83.743455 91.066205 
L 85.186545 92.608806 
L 86.629636 93.915925 
L 88.072727 95.010579 
L 89.515818 95.918324 
L 90.958909 96.664948 
L 92.402 97.274934 
L 93.845091 97.770557 
L 95.288182 98.171462 
L 96.731273 98.49458 
L 98.174364 98.754246 
L 99.617455 98.962432 
L 101.060545 99.129032 
L 102.503636 99.262152 
L 103.946727 99.368394 
L 105.389818 99.453104 
L 106.832909 99.520595 
L 108.276 99.574336 
L 109.719091 99.617109 
L 111.162182 99.651142 
L 112.605273 99.678216 
L 114.048364 99.69975 
L 115.491455 99.716881 
L 116.934545 99.730511 
L 118.377636 99.741362 
L 119.820727 99.750009 
L 121.263818 99.756909 
L 122.706909 99.762429 
L 124.15 99.766862 
L 125.593091 99.770444 
L 127.036182 99.773365 
L 128.479273 99.77578 
L 129.922364 99.777818 
L 131.365455 99.779588 
L 132.808545 99.781183 
L 134.251636 99.782689 
L 135.694727 99.784185 
L 137.137818 99.785751 
L 138.580909 99.787471 
L 140.024 99.789436 
L 141.467091 99.791751 
L 142.910182 99.794539 
L 144.353273 99.797948 
L 145.796364 99.802159 
L 147.239455 99.807397 
L 148.682545 99.813939 
L 150.125636 99.822132 
L 151.568727 99.832412 
L 153.011818 99.845323 
L 154.454909 99.861547 
L 155.898 99.881942 
L 157.341091 99.907581 
L 158.784182 99.939813 
L 160.227273 99.980326 
L 161.670364 100.031231 
L 163.113455 100.095168 
L 164.556545 100.175428 
L 165.999636 100.27611 
L 167.442727 100.402294 
L 168.885818 100.560262 
L 170.328909 100.757739 
L 171.772 101.004167 
L 173.215091 101.310998 
L 174.658182 101.69198 
L 176.101273 102.163412 
L 177.544364 102.744292 
L 178.987455 103.456293 
L 180.430545 104.323433 
L 181.873636 105.371305 
L 183.316727 106.625699 
L 184.759818 108.110485 
L 186.202909 109.844711 
L 187.646 111.839027 
L 189.089091 114.091836 
L 190.532182 116.585871 
L 191.975273 119.2861 
L 193.418364 122.139933 
L 194.861455 125.080275 
L 196.304545 128.031335 
" style="fill:none;opacity:0.9;stroke:#591e71;stroke-linecap:round;stroke-width:1.5;"/>
   </g>
   <g id="line2d_11">
    <path clip-path="url(#p495d45a0be)" d="M 51.995455 48.399093 
L 53.438545 48.406071 
L 54.881636 48.414852 
L 56.324727 48.425904 
L 57.767818 48.43981 
L 59.210909 48.457306 
L 60.654 48.479315 
L 62.097091 48.506996 
L 63.540182 48.541801 
L 64.983273 48.585552 
L 66.426364 48.640525 
L 67.869455 48.709564 
L 69.312545 48.796215 
L 70.755636 48.904884 
L 72.198727 49.041034 
L 73.641818 49.211404 
L 75.084909 49.424267 
L 76.528 49.689711 
L 77.971091 50.019932 
L 79.414182 50.429516 
L 80.857273 50.935664 
L 82.300364 51.558292 
L 83.743455 52.319922 
L 85.186545 53.245216 
L 86.629636 54.360023 
L 88.072727 55.68976 
L 89.515818 57.257032 
L 90.958909 59.078472 
L 92.402 61.161021 
L 93.845091 63.498124 
L 95.288182 66.066648 
L 96.731273 68.825473 
L 98.174364 71.716616 
L 99.617455 74.669279 
L 101.060545 77.606401 
L 102.503636 80.452518 
L 103.946727 83.141295 
L 105.389818 85.621173 
L 106.832909 87.858247 
L 108.276 89.836302 
L 109.719091 91.554612 
L 111.162182 93.024461 
L 112.605273 94.265293 
L 114.048364 95.301176 
L 115.491455 96.157941 
L 116.934545 96.861115 
L 118.377636 97.434588 
L 119.820727 97.899873 
L 121.263818 98.275799 
L 122.706909 98.578498 
L 124.15 98.821571 
L 125.593091 99.016334 
L 127.036182 99.172115 
L 128.479273 99.296541 
L 129.922364 99.395811 
L 131.365455 99.47494 
L 132.808545 99.53797 
L 134.251636 99.588147 
L 135.694727 99.628075 
L 137.137818 99.659835 
L 138.580909 99.685091 
L 140.024 99.70517 
L 141.467091 99.72113 
L 142.910182 99.733815 
L 144.353273 99.743896 
L 145.796364 99.751906 
L 147.239455 99.75827 
L 148.682545 99.763327 
L 150.125636 99.767344 
L 151.568727 99.770536 
L 153.011818 99.773071 
L 154.454909 99.775085 
L 155.898 99.776685 
L 157.341091 99.777956 
L 158.784182 99.778966 
L 160.227273 99.779768 
L 161.670364 99.780405 
L 163.113455 99.780911 
L 164.556545 99.781313 
L 165.999636 99.781632 
L 167.442727 99.781886 
L 168.885818 99.782087 
L 170.328909 99.782247 
L 171.772 99.782374 
L 173.215091 99.782475 
L 174.658182 99.782556 
L 176.101273 99.782619 
L 177.544364 99.78267 
L 178.987455 99.78271 
L 180.430545 99.782742 
L 181.873636 99.782767 
L 183.316727 99.782788 
L 184.759818 99.782804 
L 186.202909 99.782816 
L 187.646 99.782826 
L 189.089091 99.782834 
L 190.532182 99.782841 
L 191.975273 99.782846 
L 193.418364 99.78285 
L 194.861455 99.782853 
L 196.304545 99.782856 
" style="fill:none;opacity:0.7;stroke:#000000;stroke-linecap:round;stroke-width:1.5;"/>
   </g>
   <g id="line2d_12">
    <path clip-path="url(#p495d45a0be)" d="M 51.995455 36.921625 
L 53.438545 36.013437 
L 54.881636 35.115224 
L 56.324727 34.265191 
L 57.767818 33.506856 
L 59.210909 32.888499 
L 60.654 32.462139 
L 62.097091 32.281818 
L 63.540182 32.400946 
L 64.983273 32.868633 
L 66.426364 33.725131 
L 67.869455 34.996824 
L 69.312545 36.691575 
L 70.755636 38.795469 
L 72.198727 41.271989 
L 73.641818 44.064307 
L 75.084909 47.1006 
L 76.528 50.301499 
L 77.971091 53.588091 
L 79.414182 56.888838 
L 80.857273 60.14421 
L 82.300364 63.308601 
L 83.743455 66.349862 
L 85.186545 69.247228 
L 86.629636 71.98852 
L 88.072727 74.567348 
L 89.515818 76.980759 
L 90.958909 79.227546 
L 92.402 81.307236 
L 93.845091 83.219676 
L 95.288182 84.96511 
L 96.731273 86.544584 
L 98.174364 87.960544 
L 99.617455 89.217475 
L 101.060545 90.322401 
L 102.503636 91.285157 
L 103.946727 92.118288 
L 105.389818 92.83658 
L 106.832909 93.456232 
L 108.276 93.993805 
L 109.719091 94.4651 
L 111.162182 94.884099 
L 112.605273 95.262053 
L 114.048364 95.606687 
L 115.491455 95.921455 
L 116.934545 96.204742 
L 118.377636 96.449108 
L 119.820727 96.640946 
L 121.263818 96.761538 
L 122.706909 96.790706 
L 124.15 96.712975 
L 125.593091 96.523145 
L 127.036182 96.227138 
L 128.479273 95.837975 
L 129.922364 95.370611 
L 131.365455 94.838558 
L 132.808545 94.252617 
L 134.251636 93.620802 
L 135.694727 92.948731 
L 137.137818 92.240113 
L 138.580909 91.497238 
L 140.024 90.721438 
L 141.467091 89.913505 
L 142.910182 89.074034 
L 144.353273 88.20367 
L 145.796364 87.30327 
L 147.239455 86.373992 
L 148.682545 85.417346 
L 150.125636 84.43523 
L 151.568727 83.429963 
L 153.011818 82.404287 
L 154.454909 81.361345 
L 155.898 80.30464 
L 157.341091 79.237983 
L 158.784182 78.165489 
L 160.227273 77.091643 
L 161.670364 76.021455 
L 163.113455 74.9607 
L 164.556545 73.916209 
L 165.999636 72.89616 
L 167.442727 71.910339 
L 168.885818 70.970349 
L 170.328909 70.089739 
L 171.772 69.284095 
L 173.215091 68.571088 
L 174.658182 67.970524 
L 176.101273 67.504393 
L 177.544364 67.196899 
L 178.987455 67.07437 
L 180.430545 67.164941 
L 181.873636 67.497823 
L 183.316727 68.101998 
L 184.759818 69.004167 
L 186.202909 70.225911 
L 187.646 71.780156 
L 189.089091 73.667332 
L 190.532182 75.871916 
L 191.975273 78.360316 
L 193.418364 81.081015 
L 194.861455 83.967594 
L 196.304545 86.944488 
" style="fill:none;opacity:0.45;stroke:#591e71;stroke-dasharray:2.775,1.2;stroke-dashoffset:0;stroke-width:0.75;"/>
   </g>
   <g id="line2d_13">
    <path clip-path="url(#p495d45a0be)" d="M 51.995455 62.904983 
L 53.438545 64.581384 
L 54.881636 66.430054 
L 56.324727 68.450995 
L 57.767818 70.644228 
L 59.210909 73.009665 
L 60.654 75.546544 
L 62.097091 78.252346 
L 63.540182 81.121153 
L 64.983273 84.141445 
L 66.426364 87.293479 
L 67.869455 90.546605 
L 69.312545 93.857121 
L 70.755636 97.167505 
L 72.198727 100.407838 
L 73.641818 103.499858 
L 75.084909 106.363425 
L 76.528 108.92435 
L 77.971091 111.121994 
L 79.414182 112.915041 
L 80.857273 114.284376 
L 82.300364 115.232858 
L 83.743455 115.782549 
L 85.186545 115.970385 
L 86.629636 115.843331 
L 88.072727 115.453811 
L 89.515818 114.855888 
L 90.958909 114.102349 
L 92.402 113.242633 
L 93.845091 112.321437 
L 95.288182 111.377813 
L 96.731273 110.444576 
L 98.174364 109.547948 
L 99.617455 108.70739 
L 101.060545 107.935663 
L 102.503636 107.239148 
L 103.946727 106.6185 
L 105.389818 106.069627 
L 106.832909 105.584958 
L 108.276 105.154867 
L 109.719091 104.769119 
L 111.162182 104.418186 
L 112.605273 104.094378 
L 114.048364 103.792813 
L 115.491455 103.512307 
L 116.934545 103.25628 
L 118.377636 103.033617 
L 119.820727 102.859072 
L 121.263818 102.75228 
L 122.706909 102.734153 
L 124.15 102.820749 
L 125.593091 103.017743 
L 127.036182 103.319592 
L 128.479273 103.713585 
L 129.922364 104.185026 
L 131.365455 104.720618 
L 132.808545 105.309749 
L 134.251636 105.944575 
L 135.694727 106.619639 
L 137.137818 107.33139 
L 138.580909 108.077705 
L 140.024 108.857434 
L 141.467091 109.669997 
L 142.910182 110.515044 
L 144.353273 111.392226 
L 145.796364 112.301048 
L 147.239455 113.240801 
L 148.682545 114.210532 
L 150.125636 115.209034 
L 151.568727 116.234861 
L 153.011818 117.286358 
L 154.454909 118.361748 
L 155.898 119.459243 
L 157.341091 120.57718 
L 158.784182 121.714137 
L 160.227273 122.869009 
L 161.670364 124.041007 
L 163.113455 125.229635 
L 164.556545 126.434647 
L 165.999636 127.65606 
L 167.442727 128.894249 
L 168.885818 130.150176 
L 170.328909 131.42574 
L 171.772 132.72424 
L 173.215091 134.050908 
L 174.658182 135.413436 
L 176.101273 136.82243 
L 177.544364 138.291684 
L 178.987455 139.838215 
L 180.430545 141.481925 
L 181.873636 143.244786 
L 183.316727 145.149399 
L 184.759818 147.216804 
L 186.202909 149.463512 
L 187.646 151.897897 
L 189.089091 154.516341 
L 190.532182 157.299825 
L 191.975273 160.211885 
L 193.418364 163.198851 
L 194.861455 166.192957 
L 196.304545 169.118182 
" style="fill:none;opacity:0.45;stroke:#591e71;stroke-dasharray:2.775,1.2;stroke-dashoffset:0;stroke-width:0.75;"/>
   </g>
   <g id="patch_3">
    <path d="M 44.78 175.96 
L 44.78 25.44 
" style="fill:none;stroke:#262626;stroke-linecap:square;stroke-linejoin:miter;stroke-width:0.8;"/>
   </g>
   <g id="patch_4">
    <path d="M 44.78 175.96 
L 203.52 175.96 
" style="fill:none;stroke:#262626;stroke-linecap:square;stroke-linejoin:miter;stroke-width:0.8;"/>
   </g>
   <g id="text_12">
    <!-- Jaguar-macro SM12 -->
    <defs>
     <path d="M 2.875 20.3125 
L 11.421875 21.484375 
Q 11.765625 13.28125 14.5 10.25 
Q 17.234375 7.234375 22.078125 7.234375 
Q 25.640625 7.234375 28.21875 8.859375 
Q 30.8125 10.5 31.78125 13.296875 
Q 32.765625 16.109375 32.765625 22.265625 
L 32.765625 71.578125 
L 42.234375 71.578125 
L 42.234375 22.796875 
Q 42.234375 13.8125 40.0625 8.875 
Q 37.890625 3.953125 33.171875 1.359375 
Q 28.46875 -1.21875 22.125 -1.21875 
Q 12.703125 -1.21875 7.6875 4.203125 
Q 2.6875 9.625 2.875 20.3125 
z
" id="ArialMT-4a"/>
     <path d="M 40.4375 6.390625 
Q 35.546875 2.25 31.03125 0.53125 
Q 26.515625 -1.171875 21.34375 -1.171875 
Q 12.796875 -1.171875 8.203125 3 
Q 3.609375 7.171875 3.609375 13.671875 
Q 3.609375 17.484375 5.34375 20.625 
Q 7.078125 23.78125 9.890625 25.6875 
Q 12.703125 27.59375 16.21875 28.5625 
Q 18.796875 29.25 24.03125 29.890625 
Q 34.671875 31.15625 39.703125 32.90625 
Q 39.75 34.71875 39.75 35.203125 
Q 39.75 40.578125 37.25 42.78125 
Q 33.890625 45.75 27.25 45.75 
Q 21.046875 45.75 18.09375 43.578125 
Q 15.140625 41.40625 13.71875 35.890625 
L 5.125 37.0625 
Q 6.296875 42.578125 8.984375 45.96875 
Q 11.671875 49.359375 16.75 51.1875 
Q 21.828125 53.03125 28.515625 53.03125 
Q 35.15625 53.03125 39.296875 51.46875 
Q 43.453125 49.90625 45.40625 47.53125 
Q 47.359375 45.171875 48.140625 41.546875 
Q 48.578125 39.3125 48.578125 33.453125 
L 48.578125 21.734375 
Q 48.578125 9.46875 49.140625 6.21875 
Q 49.703125 2.984375 51.375 0 
L 42.1875 0 
Q 40.828125 2.734375 40.4375 6.390625 
z
M 39.703125 26.03125 
Q 34.90625 24.078125 25.34375 22.703125 
Q 19.921875 21.921875 17.671875 20.9375 
Q 15.4375 19.96875 14.203125 18.09375 
Q 12.984375 16.21875 12.984375 13.921875 
Q 12.984375 10.40625 15.640625 8.0625 
Q 18.3125 5.71875 23.4375 5.71875 
Q 28.515625 5.71875 32.46875 7.9375 
Q 36.421875 10.15625 38.28125 14.015625 
Q 39.703125 17 39.703125 22.796875 
z
" id="ArialMT-61"/>
     <path d="M 4.984375 -4.296875 
L 13.53125 -5.5625 
Q 14.0625 -9.515625 16.5 -11.328125 
Q 19.78125 -13.765625 25.4375 -13.765625 
Q 31.546875 -13.765625 34.859375 -11.328125 
Q 38.1875 -8.890625 39.359375 -4.5 
Q 40.046875 -1.8125 39.984375 6.78125 
Q 34.234375 0 25.640625 0 
Q 14.9375 0 9.078125 7.71875 
Q 3.21875 15.4375 3.21875 26.21875 
Q 3.21875 33.640625 5.90625 39.90625 
Q 8.59375 46.1875 13.6875 49.609375 
Q 18.796875 53.03125 25.6875 53.03125 
Q 34.859375 53.03125 40.828125 45.609375 
L 40.828125 51.859375 
L 48.921875 51.859375 
L 48.921875 7.03125 
Q 48.921875 -5.078125 46.453125 -10.125 
Q 44 -15.1875 38.640625 -18.109375 
Q 33.296875 -21.046875 25.484375 -21.046875 
Q 16.21875 -21.046875 10.5 -16.875 
Q 4.78125 -12.703125 4.984375 -4.296875 
z
M 12.25 26.859375 
Q 12.25 16.65625 16.296875 11.96875 
Q 20.359375 7.28125 26.46875 7.28125 
Q 32.515625 7.28125 36.609375 11.9375 
Q 40.71875 16.609375 40.71875 26.5625 
Q 40.71875 36.078125 36.5 40.90625 
Q 32.28125 45.75 26.3125 45.75 
Q 20.453125 45.75 16.34375 40.984375 
Q 12.25 36.234375 12.25 26.859375 
z
" id="ArialMT-67"/>
     <path d="M 40.578125 0 
L 40.578125 7.625 
Q 34.515625 -1.171875 24.125 -1.171875 
Q 19.53125 -1.171875 15.546875 0.578125 
Q 11.578125 2.34375 9.640625 5 
Q 7.71875 7.671875 6.9375 11.53125 
Q 6.390625 14.109375 6.390625 19.734375 
L 6.390625 51.859375 
L 15.1875 51.859375 
L 15.1875 23.09375 
Q 15.1875 16.21875 15.71875 13.8125 
Q 16.546875 10.359375 19.234375 8.375 
Q 21.921875 6.390625 25.875 6.390625 
Q 29.828125 6.390625 33.296875 8.421875 
Q 36.765625 10.453125 38.203125 13.9375 
Q 39.65625 17.4375 39.65625 24.078125 
L 39.65625 51.859375 
L 48.4375 51.859375 
L 48.4375 0 
z
" id="ArialMT-75"/>
     <path d="M 6.5 0 
L 6.5 51.859375 
L 14.40625 51.859375 
L 14.40625 44 
Q 17.4375 49.515625 20 51.265625 
Q 22.5625 53.03125 25.640625 53.03125 
Q 30.078125 53.03125 34.671875 50.203125 
L 31.640625 42.046875 
Q 28.421875 43.953125 25.203125 43.953125 
Q 22.3125 43.953125 20.015625 42.21875 
Q 17.71875 40.484375 16.75 37.40625 
Q 15.28125 32.71875 15.28125 27.15625 
L 15.28125 0 
z
" id="ArialMT-72"/>
     <path d="M 3.171875 21.484375 
L 3.171875 30.328125 
L 30.171875 30.328125 
L 30.171875 21.484375 
z
" id="ArialMT-2d"/>
     <path d="M 6.59375 0 
L 6.59375 51.859375 
L 14.453125 51.859375 
L 14.453125 44.578125 
Q 16.890625 48.390625 20.9375 50.703125 
Q 25 53.03125 30.171875 53.03125 
Q 35.9375 53.03125 39.625 50.640625 
Q 43.3125 48.25 44.828125 43.953125 
Q 50.984375 53.03125 60.84375 53.03125 
Q 68.5625 53.03125 72.703125 48.75 
Q 76.859375 44.484375 76.859375 35.59375 
L 76.859375 0 
L 68.109375 0 
L 68.109375 32.671875 
Q 68.109375 37.9375 67.25 40.25 
Q 66.40625 42.578125 64.15625 43.984375 
Q 61.921875 45.40625 58.890625 45.40625 
Q 53.421875 45.40625 49.796875 41.765625 
Q 46.1875 38.140625 46.1875 30.125 
L 46.1875 0 
L 37.40625 0 
L 37.40625 33.6875 
Q 37.40625 39.546875 35.25 42.46875 
Q 33.109375 45.40625 28.21875 45.40625 
Q 24.515625 45.40625 21.359375 43.453125 
Q 18.21875 41.5 16.796875 37.734375 
Q 15.375 33.984375 15.375 26.90625 
L 15.375 0 
z
" id="ArialMT-6d"/>
     <path d="M 40.4375 19 
L 49.078125 17.875 
Q 47.65625 8.9375 41.8125 3.875 
Q 35.984375 -1.171875 27.484375 -1.171875 
Q 16.84375 -1.171875 10.375 5.78125 
Q 3.90625 12.75 3.90625 25.734375 
Q 3.90625 34.125 6.6875 40.421875 
Q 9.46875 46.734375 15.15625 49.875 
Q 20.84375 53.03125 27.546875 53.03125 
Q 35.984375 53.03125 41.359375 48.75 
Q 46.734375 44.484375 48.25 36.625 
L 39.703125 35.296875 
Q 38.484375 40.53125 35.375 43.15625 
Q 32.28125 45.796875 27.875 45.796875 
Q 21.234375 45.796875 17.078125 41.03125 
Q 12.9375 36.28125 12.9375 25.984375 
Q 12.9375 15.53125 16.9375 10.796875 
Q 20.953125 6.0625 27.390625 6.0625 
Q 32.5625 6.0625 36.03125 9.234375 
Q 39.5 12.40625 40.4375 19 
z
" id="ArialMT-63"/>
     <path d="M 3.328125 25.921875 
Q 3.328125 40.328125 11.328125 47.265625 
Q 18.015625 53.03125 27.640625 53.03125 
Q 38.328125 53.03125 45.109375 46.015625 
Q 51.90625 39.015625 51.90625 26.65625 
Q 51.90625 16.65625 48.90625 10.90625 
Q 45.90625 5.171875 40.15625 2 
Q 34.421875 -1.171875 27.640625 -1.171875 
Q 16.75 -1.171875 10.03125 5.8125 
Q 3.328125 12.796875 3.328125 25.921875 
z
M 12.359375 25.921875 
Q 12.359375 15.96875 16.703125 11.015625 
Q 21.046875 6.0625 27.640625 6.0625 
Q 34.1875 6.0625 38.53125 11.03125 
Q 42.875 16.015625 42.875 26.21875 
Q 42.875 35.84375 38.5 40.796875 
Q 34.125 45.75 27.640625 45.75 
Q 21.046875 45.75 16.703125 40.8125 
Q 12.359375 35.890625 12.359375 25.921875 
z
" id="ArialMT-6f"/>
     <path id="ArialMT-20"/>
     <path d="M 4.5 23 
L 13.421875 23.78125 
Q 14.0625 18.40625 16.375 14.96875 
Q 18.703125 11.53125 23.578125 9.40625 
Q 28.46875 7.28125 34.578125 7.28125 
Q 39.984375 7.28125 44.140625 8.890625 
Q 48.296875 10.5 50.3125 13.296875 
Q 52.34375 16.109375 52.34375 19.4375 
Q 52.34375 22.796875 50.390625 25.3125 
Q 48.4375 27.828125 43.953125 29.546875 
Q 41.0625 30.671875 31.203125 33.03125 
Q 21.34375 35.40625 17.390625 37.5 
Q 12.25 40.1875 9.734375 44.15625 
Q 7.234375 48.140625 7.234375 53.078125 
Q 7.234375 58.5 10.296875 63.203125 
Q 13.375 67.921875 19.28125 70.359375 
Q 25.203125 72.796875 32.421875 72.796875 
Q 40.375 72.796875 46.453125 70.234375 
Q 52.546875 67.671875 55.8125 62.6875 
Q 59.078125 57.71875 59.328125 51.421875 
L 50.25 50.734375 
Q 49.515625 57.515625 45.28125 60.984375 
Q 41.0625 64.453125 32.8125 64.453125 
Q 24.21875 64.453125 20.28125 61.296875 
Q 16.359375 58.15625 16.359375 53.71875 
Q 16.359375 49.859375 19.140625 47.359375 
Q 21.875 44.875 33.421875 42.265625 
Q 44.96875 39.65625 49.265625 37.703125 
Q 55.515625 34.8125 58.484375 30.390625 
Q 61.46875 25.984375 61.46875 20.21875 
Q 61.46875 14.5 58.203125 9.4375 
Q 54.9375 4.390625 48.796875 1.578125 
Q 42.671875 -1.21875 35.015625 -1.21875 
Q 25.296875 -1.21875 18.71875 1.609375 
Q 12.15625 4.4375 8.421875 10.125 
Q 4.6875 15.828125 4.5 23 
z
" id="ArialMT-53"/>
     <path d="M 7.421875 0 
L 7.421875 71.578125 
L 21.6875 71.578125 
L 38.625 20.90625 
Q 40.96875 13.8125 42.046875 10.296875 
Q 43.265625 14.203125 45.84375 21.78125 
L 62.984375 71.578125 
L 75.734375 71.578125 
L 75.734375 0 
L 66.609375 0 
L 66.609375 59.90625 
L 45.796875 0 
L 37.25 0 
L 16.546875 60.9375 
L 16.546875 0 
z
" id="ArialMT-4d"/>
    </defs>
    <g style="fill:#262626;" transform="translate(69.799375 19.44)scale(0.12 -0.12)">
     <use xlink:href="#ArialMT-4a"/>
     <use x="50" xlink:href="#ArialMT-61"/>
     <use x="105.615234" xlink:href="#ArialMT-67"/>
     <use x="161.230469" xlink:href="#ArialMT-75"/>
     <use x="216.845703" xlink:href="#ArialMT-61"/>
     <use x="272.460938" xlink:href="#ArialMT-72"/>
     <use x="305.761719" xlink:href="#ArialMT-2d"/>
     <use x="339.0625" xlink:href="#ArialMT-6d"/>
     <use x="422.363281" xlink:href="#ArialMT-61"/>
     <use x="477.978516" xlink:href="#ArialMT-63"/>
     <use x="527.978516" xlink:href="#ArialMT-72"/>
     <use x="561.279297" xlink:href="#ArialMT-6f"/>
     <use x="616.894531" xlink:href="#ArialMT-20"/>
     <use x="644.677734" xlink:href="#ArialMT-53"/>
     <use x="711.376953" xlink:href="#ArialMT-4d"/>
     <use x="794.677734" xlink:href="#ArialMT-31"/>
     <use x="850.292969" xlink:href="#ArialMT-32"/>
    </g>
   </g>
  </g>
 </g>
 <defs>
  <clipPath id="p495d45a0be">
   <rect height="150.52" width="158.74" x="44.78" y="25.44"/>
  </clipPath>
 </defs>
</svg>
