<?xml version="1.0" encoding="utf-8" standalone="no"?>
<!DOCTYPE svg PUBLIC "-//W3C//DTD SVG 1.1//EN"
  "http://www.w3.org/Graphics/SVG/1.1/DTD/svg11.dtd">
<!-- Created with matplotlib (http://matplotlib.org/) -->
<svg height="144pt" version="1.1" viewBox="0 0 144 144" width="144pt" xmlns="http://www.w3.org/2000/svg" xmlns:xlink="http://www.w3.org/1999/xlink">
 <defs>
  <style type="text/css">
*{stroke-linecap:butt;stroke-linejoin:round;}
  </style>
 </defs>
 <g id="figure_1">
  <g id="patch_1">
   <path d="M 0 144 
L 144 144 
L 144 0 
L 0 0 
z
" style="fill:#ffffff;"/>
  </g>
  <g id="axes_1">
   <g id="patch_2">
    <path d="M 53.72 101.92 
L 130.44 101.92 
L 130.44 13.56 
L 53.72 13.56 
z
" style="fill:#ffffff;"/>
   </g>
   <g id="matplotlib.axis_1">
    <g id="xtick_1">
     <g id="line2d_1">
      <defs>
       <path d="M 0 0 
L 0 3.5 
" id="m11fdf7bdc0" style="stroke:#262626;stroke-width:0.8;"/>
      </defs>
      <g>
       <use style="fill:#262626;stroke:#262626;stroke-width:0.8;" x="57.207273" xlink:href="#m11fdf7bdc0" y="101.92"/>
      </g>
     </g>
     <g id="text_1">
      <!-- 2 -->
      <defs>
       <path d="M 50.34375 8.453125 
L 50.34375 0 
L 3.03125 0 
Q 2.9375 3.171875 4.046875 6.109375 
Q 5.859375 10.9375 9.828125 15.625 
Q 13.8125 20.3125 21.34375 26.46875 
Q 33.015625 36.03125 37.109375 41.625 
Q 41.21875 47.21875 41.21875 52.203125 
Q 41.21875 57.421875 37.46875 61 
Q 33.734375 64.59375 27.734375 64.59375 
Q 21.390625 64.59375 17.578125 60.78125 
Q 13.765625 56.984375 13.71875 50.25 
L 4.6875 51.171875 
Q 5.609375 61.28125 11.65625 66.578125 
Q 17.71875 71.875 27.9375 71.875 
Q 38.234375 71.875 44.234375 66.15625 
Q 50.25 60.453125 50.25 52 
Q 50.25 47.703125 48.484375 43.546875 
Q 46.734375 39.40625 42.65625 34.8125 
Q 38.578125 30.21875 29.109375 22.21875 
Q 21.1875 15.578125 18.9375 13.203125 
Q 16.703125 10.84375 15.234375 8.453125 
z
" id="ArialMT-32"/>
      </defs>
      <g style="fill:#262626;" transform="translate(54.148757 116.793594)scale(0.11 -0.11)">
       <use xlink:href="#ArialMT-32"/>
      </g>
     </g>
    </g>
    <g id="xtick_2">
     <g id="line2d_2">
      <g>
       <use style="fill:#262626;stroke:#262626;stroke-width:0.8;" x="71.156364" xlink:href="#m11fdf7bdc0" y="101.92"/>
      </g>
     </g>
     <g id="text_2">
      <!-- 4 -->
      <defs>
       <path d="M 32.328125 0 
L 32.328125 17.140625 
L 1.265625 17.140625 
L 1.265625 25.203125 
L 33.9375 71.578125 
L 41.109375 71.578125 
L 41.109375 25.203125 
L 50.78125 25.203125 
L 50.78125 17.140625 
L 41.109375 17.140625 
L 41.109375 0 
z
M 32.328125 25.203125 
L 32.328125 57.46875 
L 9.90625 25.203125 
z
" id="ArialMT-34"/>
      </defs>
      <g style="fill:#262626;" transform="translate(68.097848 116.793594)scale(0.11 -0.11)">
       <use xlink:href="#ArialMT-34"/>
      </g>
     </g>
    </g>
    <g id="xtick_3">
     <g id="line2d_3">
      <g>
       <use style="fill:#262626;stroke:#262626;stroke-width:0.8;" x="85.105455" xlink:href="#m11fdf7bdc0" y="101.92"/>
      </g>
     </g>
     <g id="text_3">
      <!-- 6 -->
      <defs>
       <path d="M 49.75 54.046875 
L 41.015625 53.375 
Q 39.84375 58.546875 37.703125 60.890625 
Q 34.125 64.65625 28.90625 64.65625 
Q 24.703125 64.65625 21.53125 62.3125 
Q 17.390625 59.28125 14.984375 53.46875 
Q 12.59375 47.65625 12.5 36.921875 
Q 15.671875 41.75 20.265625 44.09375 
Q 24.859375 46.4375 29.890625 46.4375 
Q 38.671875 46.4375 44.84375 39.96875 
Q 51.03125 33.5 51.03125 23.25 
Q 51.03125 16.5 48.125 10.71875 
Q 45.21875 4.9375 40.140625 1.859375 
Q 35.0625 -1.21875 28.609375 -1.21875 
Q 17.625 -1.21875 10.6875 6.859375 
Q 3.765625 14.9375 3.765625 33.5 
Q 3.765625 54.25 11.421875 63.671875 
Q 18.109375 71.875 29.4375 71.875 
Q 37.890625 71.875 43.28125 67.140625 
Q 48.6875 62.40625 49.75 54.046875 
z
M 13.875 23.1875 
Q 13.875 18.65625 15.796875 14.5 
Q 17.71875 10.359375 21.1875 8.171875 
Q 24.65625 6 28.46875 6 
Q 34.03125 6 38.03125 10.484375 
Q 42.046875 14.984375 42.046875 22.703125 
Q 42.046875 30.125 38.078125 34.390625 
Q 34.125 38.671875 28.125 38.671875 
Q 22.171875 38.671875 18.015625 34.390625 
Q 13.875 30.125 13.875 23.1875 
z
" id="ArialMT-36"/>
      </defs>
      <g style="fill:#262626;" transform="translate(82.046939 116.793594)scale(0.11 -0.11)">
       <use xlink:href="#ArialMT-36"/>
      </g>
     </g>
    </g>
    <g id="xtick_4">
     <g id="line2d_4">
      <g>
       <use style="fill:#262626;stroke:#262626;stroke-width:0.8;" x="99.054545" xlink:href="#m11fdf7bdc0" y="101.92"/>
      </g>
     </g>
     <g id="text_4">
      <!-- 8 -->
      <defs>
       <path d="M 17.671875 38.8125 
Q 12.203125 40.828125 9.5625 44.53125 
Q 6.9375 48.25 6.9375 53.421875 
Q 6.9375 61.234375 12.546875 66.546875 
Q 18.171875 71.875 27.484375 71.875 
Q 36.859375 71.875 42.578125 66.421875 
Q 48.296875 60.984375 48.296875 53.171875 
Q 48.296875 48.1875 45.671875 44.5 
Q 43.0625 40.828125 37.75 38.8125 
Q 44.34375 36.671875 47.78125 31.875 
Q 51.21875 27.09375 51.21875 20.453125 
Q 51.21875 11.28125 44.71875 5.03125 
Q 38.234375 -1.21875 27.640625 -1.21875 
Q 17.046875 -1.21875 10.546875 5.046875 
Q 4.046875 11.328125 4.046875 20.703125 
Q 4.046875 27.6875 7.59375 32.390625 
Q 11.140625 37.109375 17.671875 38.8125 
z
M 15.921875 53.71875 
Q 15.921875 48.640625 19.1875 45.40625 
Q 22.46875 42.1875 27.6875 42.1875 
Q 32.765625 42.1875 36.015625 45.375 
Q 39.265625 48.578125 39.265625 53.21875 
Q 39.265625 58.0625 35.90625 61.359375 
Q 32.5625 64.65625 27.59375 64.65625 
Q 22.5625 64.65625 19.234375 61.421875 
Q 15.921875 58.203125 15.921875 53.71875 
z
M 13.09375 20.65625 
Q 13.09375 16.890625 14.875 13.375 
Q 16.65625 9.859375 20.171875 7.921875 
Q 23.6875 6 27.734375 6 
Q 34.03125 6 38.125 10.046875 
Q 42.234375 14.109375 42.234375 20.359375 
Q 42.234375 26.703125 38.015625 30.859375 
Q 33.796875 35.015625 27.4375 35.015625 
Q 21.234375 35.015625 17.15625 30.90625 
Q 13.09375 26.8125 13.09375 20.65625 
z
" id="ArialMT-38"/>
      </defs>
      <g style="fill:#262626;" transform="translate(95.99603 116.793594)scale(0.11 -0.11)">
       <use xlink:href="#ArialMT-38"/>
      </g>
     </g>
    </g>
    <g id="xtick_5">
     <g id="line2d_5">
      <g>
       <use style="fill:#262626;stroke:#262626;stroke-width:0.8;" x="113.003636" xlink:href="#m11fdf7bdc0" y="101.92"/>
      </g>
     </g>
     <g id="text_5">
      <!-- 10 -->
      <defs>
       <path d="M 37.25 0 
L 28.46875 0 
L 28.46875 56 
Q 25.296875 52.984375 20.140625 49.953125 
Q 14.984375 46.921875 10.890625 45.40625 
L 10.890625 53.90625 
Q 18.265625 57.375 23.78125 62.296875 
Q 29.296875 67.234375 31.59375 71.875 
L 37.25 71.875 
z
" id="ArialMT-31"/>
       <path d="M 4.15625 35.296875 
Q 4.15625 48 6.765625 55.734375 
Q 9.375 63.484375 14.515625 67.671875 
Q 19.671875 71.875 27.484375 71.875 
Q 33.25 71.875 37.59375 69.546875 
Q 41.9375 67.234375 44.765625 62.859375 
Q 47.609375 58.5 49.21875 52.21875 
Q 50.828125 45.953125 50.828125 35.296875 
Q 50.828125 22.703125 48.234375 14.96875 
Q 45.65625 7.234375 40.5 3 
Q 35.359375 -1.21875 27.484375 -1.21875 
Q 17.140625 -1.21875 11.234375 6.203125 
Q 4.15625 15.140625 4.15625 35.296875 
z
M 13.1875 35.296875 
Q 13.1875 17.671875 17.3125 11.828125 
Q 21.4375 6 27.484375 6 
Q 33.546875 6 37.671875 11.859375 
Q 41.796875 17.71875 41.796875 35.296875 
Q 41.796875 52.984375 37.671875 58.78125 
Q 33.546875 64.59375 27.390625 64.59375 
Q 21.34375 64.59375 17.71875 59.46875 
Q 13.1875 52.9375 13.1875 35.296875 
z
" id="ArialMT-30"/>
      </defs>
      <g style="fill:#262626;" transform="translate(106.886605 116.793594)scale(0.11 -0.11)">
       <use xlink:href="#ArialMT-31"/>
       <use x="55.615234" xlink:href="#ArialMT-30"/>
      </g>
     </g>
    </g>
    <g id="xtick_6">
     <g id="line2d_6">
      <g>
       <use style="fill:#262626;stroke:#262626;stroke-width:0.8;" x="126.952727" xlink:href="#m11fdf7bdc0" y="101.92"/>
      </g>
     </g>
     <g id="text_6">
      <!-- 12 -->
      <g style="fill:#262626;" transform="translate(120.835696 116.793594)scale(0.11 -0.11)">
       <use xlink:href="#ArialMT-31"/>
       <use x="55.615234" xlink:href="#ArialMT-32"/>
      </g>
     </g>
    </g>
    <g id="text_7">
     <!-- pH -->
     <defs>
      <path d="M 6.59375 -19.875 
L 6.59375 51.859375 
L 14.59375 51.859375 
L 14.59375 45.125 
Q 17.4375 49.078125 21 51.046875 
Q 24.5625 53.03125 29.640625 53.03125 
Q 36.28125 53.03125 41.359375 49.609375 
Q 46.4375 46.1875 49.015625 39.953125 
Q 51.609375 33.734375 51.609375 26.3125 
Q 51.609375 18.359375 48.75 11.984375 
Q 45.90625 5.609375 40.453125 2.21875 
Q 35.015625 -1.171875 29 -1.171875 
Q 24.609375 -1.171875 21.109375 0.6875 
Q 17.625 2.546875 15.375 5.375 
L 15.375 -19.875 
z
M 14.546875 25.640625 
Q 14.546875 15.625 18.59375 10.84375 
Q 22.65625 6.0625 28.421875 6.0625 
Q 34.28125 6.0625 38.453125 11.015625 
Q 42.625 15.96875 42.625 26.375 
Q 42.625 36.28125 38.546875 41.203125 
Q 34.46875 46.140625 28.8125 46.140625 
Q 23.1875 46.140625 18.859375 40.890625 
Q 14.546875 35.640625 14.546875 25.640625 
z
" id="ArialMT-70"/>
      <path d="M 8.015625 0 
L 8.015625 71.578125 
L 17.484375 71.578125 
L 17.484375 42.1875 
L 54.6875 42.1875 
L 54.6875 71.578125 
L 64.15625 71.578125 
L 64.15625 0 
L 54.6875 0 
L 54.6875 33.734375 
L 17.484375 33.734375 
L 17.484375 0 
z
" id="ArialMT-48"/>
     </defs>
     <g style="fill:#262626;" transform="translate(85.049453 130.853437)scale(0.11 -0.11)">
      <use xlink:href="#ArialMT-70"/>
      <use x="55.615234" xlink:href="#ArialMT-48"/>
     </g>
    </g>
   </g>
   <g id="matplotlib.axis_2">
    <g id="ytick_1">
     <g id="line2d_7">
      <defs>
       <path d="M 0 0 
L -3.5 0 
" id="m64b2b4f611" style="stroke:#262626;stroke-width:0.8;"/>
      </defs>
      <g>
       <use style="fill:#262626;stroke:#262626;stroke-width:0.8;" x="53.72" xlink:href="#m64b2b4f611" y="94.878551"/>
      </g>
     </g>
     <g id="text_8">
      <!-- 0 -->
      <g style="fill:#262626;" transform="translate(40.602969 98.815348)scale(0.11 -0.11)">
       <use xlink:href="#ArialMT-30"/>
      </g>
     </g>
    </g>
    <g id="ytick_2">
     <g id="line2d_8">
      <g>
       <use style="fill:#262626;stroke:#262626;stroke-width:0.8;" x="53.72" xlink:href="#m64b2b4f611" y="65.534376"/>
      </g>
     </g>
     <g id="text_9">
      <!-- 50 -->
      <defs>
       <path d="M 4.15625 18.75 
L 13.375 19.53125 
Q 14.40625 12.796875 18.140625 9.390625 
Q 21.875 6 27.15625 6 
Q 33.5 6 37.890625 10.78125 
Q 42.28125 15.578125 42.28125 23.484375 
Q 42.28125 31 38.0625 35.34375 
Q 33.84375 39.703125 27 39.703125 
Q 22.75 39.703125 19.328125 37.765625 
Q 15.921875 35.84375 13.96875 32.765625 
L 5.71875 33.84375 
L 12.640625 70.609375 
L 48.25 70.609375 
L 48.25 62.203125 
L 19.671875 62.203125 
L 15.828125 42.96875 
Q 22.265625 47.46875 29.34375 47.46875 
Q 38.71875 47.46875 45.15625 40.96875 
Q 51.609375 34.46875 51.609375 24.265625 
Q 51.609375 14.546875 45.953125 7.46875 
Q 39.0625 -1.21875 27.15625 -1.21875 
Q 17.390625 -1.21875 11.203125 4.25 
Q 5.03125 9.71875 4.15625 18.75 
z
" id="ArialMT-35"/>
      </defs>
      <g style="fill:#262626;" transform="translate(34.485938 69.471173)scale(0.11 -0.11)">
       <use xlink:href="#ArialMT-35"/>
       <use x="55.615234" xlink:href="#ArialMT-30"/>
      </g>
     </g>
    </g>
    <g id="ytick_3">
     <g id="line2d_9">
      <g>
       <use style="fill:#262626;stroke:#262626;stroke-width:0.8;" x="53.72" xlink:href="#m64b2b4f611" y="36.190201"/>
      </g>
     </g>
     <g id="text_10">
      <!-- 100 -->
      <g style="fill:#262626;" transform="translate(28.368906 40.126998)scale(0.11 -0.11)">
       <use xlink:href="#ArialMT-31"/>
       <use x="55.615234" xlink:href="#ArialMT-30"/>
       <use x="111.230469" xlink:href="#ArialMT-30"/>
      </g>
     </g>
    </g>
    <g id="text_11">
     <!-- Free energy ($k_B T$) -->
     <defs>
      <path d="M 8.203125 0 
L 8.203125 71.578125 
L 56.5 71.578125 
L 56.5 63.140625 
L 17.671875 63.140625 
L 17.671875 40.96875 
L 51.265625 40.96875 
L 51.265625 32.515625 
L 17.671875 32.515625 
L 17.671875 0 
z
" id="ArialMT-46"/>
      <path d="M 6.5 0 
L 6.5 51.859375 
L 14.40625 51.859375 
L 14.40625 44 
Q 17.4375 49.515625 20 51.265625 
Q 22.5625 53.03125 25.640625 53.03125 
Q 30.078125 53.03125 34.671875 50.203125 
L 31.640625 42.046875 
Q 28.421875 43.953125 25.203125 43.953125 
Q 22.3125 43.953125 20.015625 42.21875 
Q 17.71875 40.484375 16.75 37.40625 
Q 15.28125 32.71875 15.28125 27.15625 
L 15.28125 0 
z
" id="ArialMT-72"/>
      <path d="M 42.09375 16.703125 
L 51.171875 15.578125 
Q 49.03125 7.625 43.21875 3.21875 
Q 37.40625 -1.171875 28.375 -1.171875 
Q 17 -1.171875 10.328125 5.828125 
Q 3.65625 12.84375 3.65625 25.484375 
Q 3.65625 38.578125 10.390625 45.796875 
Q 17.140625 53.03125 27.875 53.03125 
Q 38.28125 53.03125 44.875 45.953125 
Q 51.46875 38.875 51.46875 26.03125 
Q 51.46875 25.25 51.421875 23.6875 
L 12.75 23.6875 
Q 13.234375 15.140625 17.578125 10.59375 
Q 21.921875 6.0625 28.421875 6.0625 
Q 33.25 6.0625 36.671875 8.59375 
Q 40.09375 11.140625 42.09375 16.703125 
z
M 13.234375 30.90625 
L 42.1875 30.90625 
Q 41.609375 37.453125 38.875 40.71875 
Q 34.671875 45.796875 27.984375 45.796875 
Q 21.921875 45.796875 17.796875 41.75 
Q 13.671875 37.703125 13.234375 30.90625 
z
" id="ArialMT-65"/>
      <path id="ArialMT-20"/>
      <path d="M 6.59375 0 
L 6.59375 51.859375 
L 14.5 51.859375 
L 14.5 44.484375 
Q 20.21875 53.03125 31 53.03125 
Q 35.6875 53.03125 39.625 51.34375 
Q 43.5625 49.65625 45.515625 46.921875 
Q 47.46875 44.1875 48.25 40.4375 
Q 48.734375 37.984375 48.734375 31.890625 
L 48.734375 0 
L 39.9375 0 
L 39.9375 31.546875 
Q 39.9375 36.921875 38.90625 39.578125 
Q 37.890625 42.234375 35.28125 43.8125 
Q 32.671875 45.40625 29.15625 45.40625 
Q 23.53125 45.40625 19.453125 41.84375 
Q 15.375 38.28125 15.375 28.328125 
L 15.375 0 
z
" id="ArialMT-6e"/>
      <path d="M 4.984375 -4.296875 
L 13.53125 -5.5625 
Q 14.0625 -9.515625 16.5 -11.328125 
Q 19.78125 -13.765625 25.4375 -13.765625 
Q 31.546875 -13.765625 34.859375 -11.328125 
Q 38.1875 -8.890625 39.359375 -4.5 
Q 40.046875 -1.8125 39.984375 6.78125 
Q 34.234375 0 25.640625 0 
Q 14.9375 0 9.078125 7.71875 
Q 3.21875 15.4375 3.21875 26.21875 
Q 3.21875 33.640625 5.90625 39.90625 
Q 8.59375 46.1875 13.6875 49.609375 
Q 18.796875 53.03125 25.6875 53.03125 
Q 34.859375 53.03125 40.828125 45.609375 
L 40.828125 51.859375 
L 48.921875 51.859375 
L 48.921875 7.03125 
Q 48.921875 -5.078125 46.453125 -10.125 
Q 44 -15.1875 38.640625 -18.109375 
Q 33.296875 -21.046875 25.484375 -21.046875 
Q 16.21875 -21.046875 10.5 -16.875 
Q 4.78125 -12.703125 4.984375 -4.296875 
z
M 12.25 26.859375 
Q 12.25 16.65625 16.296875 11.96875 
Q 20.359375 7.28125 26.46875 7.28125 
Q 32.515625 7.28125 36.609375 11.9375 
Q 40.71875 16.609375 40.71875 26.5625 
Q 40.71875 36.078125 36.5 40.90625 
Q 32.28125 45.75 26.3125 45.75 
Q 20.453125 45.75 16.34375 40.984375 
Q 12.25 36.234375 12.25 26.859375 
z
" id="ArialMT-67"/>
      <path d="M 6.203125 -19.96875 
L 5.21875 -11.71875 
Q 8.109375 -12.5 10.25 -12.5 
Q 13.1875 -12.5 14.9375 -11.515625 
Q 16.703125 -10.546875 17.828125 -8.796875 
Q 18.65625 -7.46875 20.515625 -2.25 
Q 20.75 -1.515625 21.296875 -0.09375 
L 1.609375 51.859375 
L 11.078125 51.859375 
L 21.875 21.828125 
Q 23.96875 16.109375 25.640625 9.8125 
Q 27.15625 15.875 29.25 21.625 
L 40.328125 51.859375 
L 49.125 51.859375 
L 29.390625 -0.875 
Q 26.21875 -9.421875 24.46875 -12.640625 
Q 22.125 -17 19.09375 -19.015625 
Q 16.0625 -21.046875 11.859375 -21.046875 
Q 9.328125 -21.046875 6.203125 -19.96875 
z
" id="ArialMT-79"/>
      <path d="M 23.390625 -21.046875 
Q 16.109375 -11.859375 11.078125 0.4375 
Q 6.0625 12.75 6.0625 25.921875 
Q 6.0625 37.546875 9.8125 48.1875 
Q 14.203125 60.546875 23.390625 72.796875 
L 29.6875 72.796875 
Q 23.78125 62.640625 21.875 58.296875 
Q 18.890625 51.5625 17.1875 44.234375 
Q 15.09375 35.109375 15.09375 25.875 
Q 15.09375 2.390625 29.6875 -21.046875 
z
" id="ArialMT-28"/>
      <path d="M 18.3125 75.984375 
L 27.296875 75.984375 
L 18.703125 31.6875 
L 49.515625 54.6875 
L 61.1875 54.6875 
L 26.8125 28.515625 
L 51.90625 0 
L 41.015625 0 
L 17.671875 26.703125 
L 12.5 0 
L 3.515625 0 
z
" id="DejaVuSans-Oblique-6b"/>
      <path d="M 16.890625 72.90625 
L 42.09375 72.90625 
Q 52.34375 72.90625 57.421875 69.09375 
Q 62.5 65.28125 62.5 57.625 
Q 62.5 50.59375 58.125 45.484375 
Q 53.765625 40.375 46.6875 39.3125 
Q 52.734375 37.9375 55.765625 34.078125 
Q 58.796875 30.21875 58.796875 23.78125 
Q 58.796875 12.796875 50.65625 6.390625 
Q 42.53125 0 28.421875 0 
L 2.6875 0 
z
M 19.28125 34.8125 
L 14.109375 8.109375 
L 29.984375 8.109375 
Q 38.921875 8.109375 43.75 12.203125 
Q 48.578125 16.3125 48.578125 23.78125 
Q 48.578125 29.546875 45.375 32.171875 
Q 42.1875 34.8125 35.109375 34.8125 
z
M 25.09375 64.796875 
L 20.796875 42.828125 
L 35.5 42.828125 
Q 43.359375 42.828125 47.78125 46.234375 
Q 52.203125 49.65625 52.203125 55.71875 
Q 52.203125 60.453125 49.21875 62.625 
Q 46.234375 64.796875 39.703125 64.796875 
z
" id="DejaVuSans-Oblique-42"/>
      <path d="M 5.90625 72.90625 
L 67.578125 72.90625 
L 66.015625 64.59375 
L 39.984375 64.59375 
L 27.484375 0 
L 17.578125 0 
L 30.078125 64.59375 
L 4.296875 64.59375 
z
" id="DejaVuSans-Oblique-54"/>
      <path d="M 12.359375 -21.046875 
L 6.0625 -21.046875 
Q 20.65625 2.390625 20.65625 25.875 
Q 20.65625 35.0625 18.5625 44.09375 
Q 16.890625 51.421875 13.921875 58.15625 
Q 12.015625 62.546875 6.0625 72.796875 
L 12.359375 72.796875 
Q 21.53125 60.546875 25.921875 48.1875 
Q 29.6875 37.546875 29.6875 25.921875 
Q 29.6875 12.75 24.625 0.4375 
Q 19.578125 -11.859375 12.359375 -21.046875 
z
" id="ArialMT-29"/>
     </defs>
     <g style="fill:#262626;" transform="translate(21.948906 101.96)rotate(-90)scale(0.11 -0.11)">
      <use transform="translate(0 0.015625)" xlink:href="#ArialMT-46"/>
      <use transform="translate(61.083984 0.015625)" xlink:href="#ArialMT-72"/>
      <use transform="translate(94.384766 0.015625)" xlink:href="#ArialMT-65"/>
      <use transform="translate(150 0.015625)" xlink:href="#ArialMT-65"/>
      <use transform="translate(205.615234 0.015625)" xlink:href="#ArialMT-20"/>
      <use transform="translate(233.398438 0.015625)" xlink:href="#ArialMT-65"/>
      <use transform="translate(289.013672 0.015625)" xlink:href="#ArialMT-6e"/>
      <use transform="translate(344.628906 0.015625)" xlink:href="#ArialMT-65"/>
      <use transform="translate(400.244141 0.015625)" xlink:href="#ArialMT-72"/>
      <use transform="translate(433.544922 0.015625)" xlink:href="#ArialMT-67"/>
      <use transform="translate(489.160156 0.015625)" xlink:href="#ArialMT-79"/>
      <use transform="translate(539.160156 0.015625)" xlink:href="#ArialMT-20"/>
      <use transform="translate(566.943359 0.015625)" xlink:href="#ArialMT-28"/>
      <use transform="translate(600.244141 0.015625)" xlink:href="#DejaVuSans-Oblique-6b"/>
      <use transform="translate(658.154297 -16.390625)scale(0.7)" xlink:href="#DejaVuSans-Oblique-42"/>
      <use transform="translate(708.911133 0.015625)" xlink:href="#DejaVuSans-Oblique-54"/>
      <use transform="translate(769.995117 0.015625)" xlink:href="#ArialMT-29"/>
     </g>
    </g>
   </g>
   <g id="patch_3">
    <path d="M 53.72 101.92 
L 53.72 13.56 
" style="fill:none;stroke:#262626;stroke-linecap:square;stroke-linejoin:miter;stroke-width:0.8;"/>
   </g>
   <g id="patch_4">
    <path d="M 53.72 101.92 
L 130.44 101.92 
" style="fill:none;stroke:#262626;stroke-linecap:square;stroke-linejoin:miter;stroke-width:0.8;"/>
   </g>
   <g id="line2d_10">
    <path clip-path="url(#p9439b533da)" d="M 57.207273 58.116839 
L 57.904727 57.711435 
L 58.602182 57.30603 
L 59.299636 56.900625 
L 59.997091 56.49522 
L 60.694545 56.089816 
L 61.392 55.684411 
L 62.089455 55.279006 
L 62.786909 54.873601 
L 63.484364 54.468197 
L 64.181818 54.062792 
L 64.879273 53.657387 
L 65.576727 53.251982 
L 66.274182 52.846578 
L 66.971636 52.441173 
L 67.669091 52.035768 
L 68.366545 51.630363 
L 69.064 51.224959 
L 69.761455 50.819554 
L 70.458909 50.414149 
L 71.156364 50.008744 
L 71.853818 49.603339 
L 72.551273 49.197935 
L 73.248727 48.79253 
L 73.946182 48.387125 
L 74.643636 47.98172 
L 75.341091 47.576316 
L 76.038545 47.170911 
L 76.736 46.765506 
L 77.433455 46.360101 
L 78.130909 45.954697 
L 78.828364 45.549292 
L 79.525818 45.143887 
L 80.223273 44.738482 
L 80.920727 44.333078 
L 81.618182 43.927673 
L 82.315636 43.522268 
L 83.013091 43.116863 
L 83.710545 42.711459 
L 84.408 42.306054 
L 85.105455 41.900649 
L 85.802909 41.495244 
L 86.500364 41.08984 
L 87.197818 40.684435 
L 87.895273 40.27903 
L 88.592727 39.873625 
L 89.290182 39.468221 
L 89.987636 39.062816 
L 90.685091 38.657411 
L 91.382545 38.252006 
L 92.08 37.846602 
L 92.777455 37.441197 
L 93.474909 37.035792 
L 94.172364 36.630387 
L 94.869818 36.224982 
L 95.567273 35.819578 
L 96.264727 35.414173 
L 96.962182 35.008768 
L 97.659636 34.603363 
L 98.357091 34.197959 
L 99.054545 33.792554 
L 99.752 33.387149 
L 100.449455 32.981744 
L 101.146909 32.57634 
L 101.844364 32.170935 
L 102.541818 31.76553 
L 103.239273 31.360125 
L 103.936727 30.954721 
L 104.634182 30.549316 
L 105.331636 30.143911 
L 106.029091 29.738506 
L 106.726545 29.333102 
L 107.424 28.927697 
L 108.121455 28.522292 
L 108.818909 28.116887 
L 109.516364 27.711483 
L 110.213818 27.306078 
L 110.911273 26.900673 
L 111.608727 26.495268 
L 112.306182 26.089864 
L 113.003636 25.684459 
L 113.701091 25.279054 
L 114.398545 24.873649 
L 115.096 24.468245 
L 115.793455 24.06284 
L 116.490909 23.657435 
L 117.188364 23.25203 
L 117.885818 22.846625 
L 118.583273 22.441221 
L 119.280727 22.035816 
L 119.978182 21.630411 
L 120.675636 21.225006 
L 121.373091 20.819602 
L 122.070545 20.414197 
L 122.768 20.008792 
L 123.465455 19.603387 
L 124.162909 19.197983 
L 124.860364 18.792578 
L 125.557818 18.387173 
L 126.255273 17.981768 
L 126.952727 17.576364 
" style="fill:none;stroke:#2166ac;stroke-linecap:round;stroke-width:1.5;"/>
   </g>
   <g id="line2d_11">
    <path clip-path="url(#p9439b533da)" d="M 57.207273 87.549225 
L 57.904727 87.278955 
L 58.602182 87.008685 
L 59.299636 86.738415 
L 59.997091 86.468145 
L 60.694545 86.197876 
L 61.392 85.927606 
L 62.089455 85.657336 
L 62.786909 85.387066 
L 63.484364 85.116796 
L 64.181818 84.846526 
L 64.879273 84.576257 
L 65.576727 84.305987 
L 66.274182 84.035717 
L 66.971636 83.765447 
L 67.669091 83.495177 
L 68.366545 83.224907 
L 69.064 82.954638 
L 69.761455 82.684368 
L 70.458909 82.414098 
L 71.156364 82.143828 
L 71.853818 81.873558 
L 72.551273 81.603288 
L 73.248727 81.333019 
L 73.946182 81.062749 
L 74.643636 80.792479 
L 75.341091 80.522209 
L 76.038545 80.251939 
L 76.736 79.981669 
L 77.433455 79.711399 
L 78.130909 79.44113 
L 78.828364 79.17086 
L 79.525818 78.90059 
L 80.223273 78.63032 
L 80.920727 78.36005 
L 81.618182 78.08978 
L 82.315636 77.819511 
L 83.013091 77.549241 
L 83.710545 77.278971 
L 84.408 77.008701 
L 85.105455 76.738431 
L 85.802909 76.468161 
L 86.500364 76.197892 
L 87.197818 75.927622 
L 87.895273 75.657352 
L 88.592727 75.387082 
L 89.290182 75.116812 
L 89.987636 74.846542 
L 90.685091 74.576273 
L 91.382545 74.306003 
L 92.08 74.035733 
L 92.777455 73.765463 
L 93.474909 73.495193 
L 94.172364 73.224923 
L 94.869818 72.954654 
L 95.567273 72.684384 
L 96.264727 72.414114 
L 96.962182 72.143844 
L 97.659636 71.873574 
L 98.357091 71.603304 
L 99.054545 71.333035 
L 99.752 71.062765 
L 100.449455 70.792495 
L 101.146909 70.522225 
L 101.844364 70.251955 
L 102.541818 69.981685 
L 103.239273 69.711415 
L 103.936727 69.441146 
L 104.634182 69.170876 
L 105.331636 68.900606 
L 106.029091 68.630336 
L 106.726545 68.360066 
L 107.424 68.089796 
L 108.121455 67.819527 
L 108.818909 67.549257 
L 109.516364 67.278987 
L 110.213818 67.008717 
L 110.911273 66.738447 
L 111.608727 66.468177 
L 112.306182 66.197908 
L 113.003636 65.927638 
L 113.701091 65.657368 
L 114.398545 65.387098 
L 115.096 65.116828 
L 115.793455 64.846558 
L 116.490909 64.576289 
L 117.188364 64.306019 
L 117.885818 64.035749 
L 118.583273 63.765479 
L 119.280727 63.495209 
L 119.978182 63.224939 
L 120.675636 62.95467 
L 121.373091 62.6844 
L 122.070545 62.41413 
L 122.768 62.14386 
L 123.465455 61.87359 
L 124.162909 61.60332 
L 124.860364 61.33305 
L 125.557818 61.062781 
L 126.255273 60.792511 
L 126.952727 60.522241 
" style="fill:none;stroke:#4393c3;stroke-linecap:round;stroke-width:1.5;"/>
   </g>
   <g id="line2d_12">
    <path clip-path="url(#p9439b533da)" d="M 57.207273 81.886846 
L 57.904727 82.021981 
L 58.602182 82.157116 
L 59.299636 82.292251 
L 59.997091 82.427386 
L 60.694545 82.562521 
L 61.392 82.697656 
L 62.089455 82.83279 
L 62.786909 82.967925 
L 63.484364 83.10306 
L 64.181818 83.238195 
L 64.879273 83.37333 
L 65.576727 83.508465 
L 66.274182 83.6436 
L 66.971636 83.778735 
L 67.669091 83.91387 
L 68.366545 84.049005 
L 69.064 84.18414 
L 69.761455 84.319275 
L 70.458909 84.45441 
L 71.156364 84.589544 
L 71.853818 84.724679 
L 72.551273 84.859814 
L 73.248727 84.994949 
L 73.946182 85.130084 
L 74.643636 85.265219 
L 75.341091 85.400354 
L 76.038545 85.535489 
L 76.736 85.670624 
L 77.433455 85.805759 
L 78.130909 85.940894 
L 78.828364 86.076029 
L 79.525818 86.211163 
L 80.223273 86.346298 
L 80.920727 86.481433 
L 81.618182 86.616568 
L 82.315636 86.751703 
L 83.013091 86.886838 
L 83.710545 87.021973 
L 84.408 87.157108 
L 85.105455 87.292243 
L 85.802909 87.427378 
L 86.500364 87.562513 
L 87.197818 87.697648 
L 87.895273 87.832782 
L 88.592727 87.967917 
L 89.290182 88.103052 
L 89.987636 88.238187 
L 90.685091 88.373322 
L 91.382545 88.508457 
L 92.08 88.643592 
L 92.777455 88.778727 
L 93.474909 88.913862 
L 94.172364 89.048997 
L 94.869818 89.184132 
L 95.567273 89.319267 
L 96.264727 89.454402 
L 96.962182 89.589536 
L 97.659636 89.724671 
L 98.357091 89.859806 
L 99.054545 89.994941 
L 99.752 90.130076 
L 100.449455 90.265211 
L 101.146909 90.400346 
L 101.844364 90.535481 
L 102.541818 90.670616 
L 103.239273 90.805751 
L 103.936727 90.940886 
L 104.634182 91.076021 
L 105.331636 91.211155 
L 106.029091 91.34629 
L 106.726545 91.481425 
L 107.424 91.61656 
L 108.121455 91.751695 
L 108.818909 91.88683 
L 109.516364 92.021965 
L 110.213818 92.1571 
L 110.911273 92.292235 
L 111.608727 92.42737 
L 112.306182 92.562505 
L 113.003636 92.69764 
L 113.701091 92.832774 
L 114.398545 92.967909 
L 115.096 93.103044 
L 115.793455 93.238179 
L 116.490909 93.373314 
L 117.188364 93.508449 
L 117.885818 93.643584 
L 118.583273 93.778719 
L 119.280727 93.913854 
L 119.978182 94.048989 
L 120.675636 94.184124 
L 121.373091 94.319259 
L 122.070545 94.454394 
L 122.768 94.589528 
L 123.465455 94.724663 
L 124.162909 94.859798 
L 124.860364 94.994933 
L 125.557818 95.130068 
L 126.255273 95.265203 
L 126.952727 95.400338 
" style="fill:none;stroke:#f4a582;stroke-linecap:round;stroke-width:1.5;"/>
   </g>
   <g id="line2d_13">
    <path clip-path="url(#p9439b533da)" d="M 57.207273 97.903636 
L 57.904727 97.768501 
L 58.602182 97.633367 
L 59.299636 97.498232 
L 59.997091 97.363097 
L 60.694545 97.227962 
L 61.392 97.092827 
L 62.089455 96.957692 
L 62.786909 96.822557 
L 63.484364 96.687422 
L 64.181818 96.552287 
L 64.879273 96.417152 
L 65.576727 96.282017 
L 66.274182 96.146882 
L 66.971636 96.011747 
L 67.669091 95.876613 
L 68.366545 95.741478 
L 69.064 95.606343 
L 69.761455 95.471208 
L 70.458909 95.336073 
L 71.156364 95.200938 
L 71.853818 95.065803 
L 72.551273 94.930668 
L 73.248727 94.795533 
L 73.946182 94.660398 
L 74.643636 94.525263 
L 75.341091 94.390128 
L 76.038545 94.254994 
L 76.736 94.119859 
L 77.433455 93.984724 
L 78.130909 93.849589 
L 78.828364 93.714454 
L 79.525818 93.579319 
L 80.223273 93.444184 
L 80.920727 93.309049 
L 81.618182 93.173914 
L 82.315636 93.038779 
L 83.013091 92.903644 
L 83.710545 92.768509 
L 84.408 92.633375 
L 85.105455 92.49824 
L 85.802909 92.363105 
L 86.500364 92.22797 
L 87.197818 92.092835 
L 87.895273 91.9577 
L 88.592727 91.822565 
L 89.290182 91.68743 
L 89.987636 91.552295 
L 90.685091 91.41716 
L 91.382545 91.282025 
L 92.08 91.14689 
L 92.777455 91.011755 
L 93.474909 90.876621 
L 94.172364 90.741486 
L 94.869818 90.606351 
L 95.567273 90.471216 
L 96.264727 90.336081 
L 96.962182 90.200946 
L 97.659636 90.065811 
L 98.357091 89.930676 
L 99.054545 89.795541 
L 99.752 89.660406 
L 100.449455 89.525271 
L 101.146909 89.390136 
L 101.844364 89.255002 
L 102.541818 89.119867 
L 103.239273 88.984732 
L 103.936727 88.849597 
L 104.634182 88.714462 
L 105.331636 88.579327 
L 106.029091 88.444192 
L 106.726545 88.309057 
L 107.424 88.173922 
L 108.121455 88.038787 
L 108.818909 87.903652 
L 109.516364 87.768517 
L 110.213818 87.633383 
L 110.911273 87.498248 
L 111.608727 87.363113 
L 112.306182 87.227978 
L 113.003636 87.092843 
L 113.701091 86.957708 
L 114.398545 86.822573 
L 115.096 86.687438 
L 115.793455 86.552303 
L 116.490909 86.417168 
L 117.188364 86.282033 
L 117.885818 86.146898 
L 118.583273 86.011763 
L 119.280727 85.876629 
L 119.978182 85.741494 
L 120.675636 85.606359 
L 121.373091 85.471224 
L 122.070545 85.336089 
L 122.768 85.200954 
L 123.465455 85.065819 
L 124.162909 84.930684 
L 124.860364 84.795549 
L 125.557818 84.660414 
L 126.255273 84.525279 
L 126.952727 84.390144 
" style="fill:none;stroke:#92c5de;stroke-linecap:round;stroke-width:1.5;"/>
   </g>
   <g id="line2d_14">
    <path clip-path="url(#p9439b533da)" d="M 57.207273 94.878551 
L 57.904727 94.878551 
L 58.602182 94.878551 
L 59.299636 94.878551 
L 59.997091 94.878551 
L 60.694545 94.878551 
L 61.392 94.878551 
L 62.089455 94.878551 
L 62.786909 94.878551 
L 63.484364 94.878551 
L 64.181818 94.878551 
L 64.879273 94.878551 
L 65.576727 94.878551 
L 66.274182 94.878551 
L 66.971636 94.878551 
L 67.669091 94.878551 
L 68.366545 94.878551 
L 69.064 94.878551 
L 69.761455 94.878551 
L 70.458909 94.878551 
L 71.156364 94.878551 
L 71.853818 94.878551 
L 72.551273 94.878551 
L 73.248727 94.878551 
L 73.946182 94.878551 
L 74.643636 94.878551 
L 75.341091 94.878551 
L 76.038545 94.878551 
L 76.736 94.878551 
L 77.433455 94.878551 
L 78.130909 94.878551 
L 78.828364 94.878551 
L 79.525818 94.878551 
L 80.223273 94.878551 
L 80.920727 94.878551 
L 81.618182 94.878551 
L 82.315636 94.878551 
L 83.013091 94.878551 
L 83.710545 94.878551 
L 84.408 94.878551 
L 85.105455 94.878551 
L 85.802909 94.878551 
L 86.500364 94.878551 
L 87.197818 94.878551 
L 87.895273 94.878551 
L 88.592727 94.878551 
L 89.290182 94.878551 
L 89.987636 94.878551 
L 90.685091 94.878551 
L 91.382545 94.878551 
L 92.08 94.878551 
L 92.777455 94.878551 
L 93.474909 94.878551 
L 94.172364 94.878551 
L 94.869818 94.878551 
L 95.567273 94.878551 
L 96.264727 94.878551 
L 96.962182 94.878551 
L 97.659636 94.878551 
L 98.357091 94.878551 
L 99.054545 94.878551 
L 99.752 94.878551 
L 100.449455 94.878551 
L 101.146909 94.878551 
L 101.844364 94.878551 
L 102.541818 94.878551 
L 103.239273 94.878551 
L 103.936727 94.878551 
L 104.634182 94.878551 
L 105.331636 94.878551 
L 106.029091 94.878551 
L 106.726545 94.878551 
L 107.424 94.878551 
L 108.121455 94.878551 
L 108.818909 94.878551 
L 109.516364 94.878551 
L 110.213818 94.878551 
L 110.911273 94.878551 
L 111.608727 94.878551 
L 112.306182 94.878551 
L 113.003636 94.878551 
L 113.701091 94.878551 
L 114.398545 94.878551 
L 115.096 94.878551 
L 115.793455 94.878551 
L 116.490909 94.878551 
L 117.188364 94.878551 
L 117.885818 94.878551 
L 118.583273 94.878551 
L 119.280727 94.878551 
L 119.978182 94.878551 
L 120.675636 94.878551 
L 121.373091 94.878551 
L 122.070545 94.878551 
L 122.768 94.878551 
L 123.465455 94.878551 
L 124.162909 94.878551 
L 124.860364 94.878551 
L 125.557818 94.878551 
L 126.255273 94.878551 
L 126.952727 94.878551 
" style="fill:none;stroke:#333333;stroke-linecap:round;stroke-width:1.5;"/>
   </g>
  </g>
 </g>
 <defs>
  <clipPath id="p9439b533da">
   <rect height="88.36" width="76.72" x="53.72" y="13.56"/>
  </clipPath>
 </defs>
</svg>
