<?xml version="1.0" encoding="utf-8" standalone="no"?>
<!DOCTYPE svg PUBLIC "-//W3C//DTD SVG 1.1//EN"
  "http://www.w3.org/Graphics/SVG/1.1/DTD/svg11.dtd">
<!-- Created with matplotlib (http://matplotlib.org/) -->
<svg height="216pt" version="1.1" viewBox="0 0 216 216" width="216pt" xmlns="http://www.w3.org/2000/svg" xmlns:xlink="http://www.w3.org/1999/xlink">
 <defs>
  <style type="text/css">
*{stroke-linecap:butt;stroke-linejoin:round;}
  </style>
 </defs>
 <g id="figure_1">
  <g id="patch_1">
   <path d="M 0 216 
L 216 216 
L 216 0 
L 0 0 
z
" style="fill:#ffffff;"/>
  </g>
  <g id="axes_1">
   <g id="patch_2">
    <path d="M 38.96 175.96 
L 203.52 175.96 
L 203.52 25.44 
L 38.96 25.44 
z
" style="fill:#ffffff;"/>
   </g>
   <g id="matplotlib.axis_1">
    <g id="xtick_1">
     <g id="line2d_1">
      <defs>
       <path d="M 0 0 
L 0 3.5 
" id="m41d7814d55" style="stroke:#262626;stroke-width:0.8;"/>
      </defs>
      <g>
       <use style="fill:#262626;stroke:#262626;stroke-width:0.8;" x="46.44" xlink:href="#m41d7814d55" y="175.96"/>
      </g>
     </g>
     <g id="text_1">
      <!-- 2 -->
      <defs>
       <path d="M 50.34375 8.453125 
L 50.34375 0 
L 3.03125 0 
Q 2.9375 3.171875 4.046875 6.109375 
Q 5.859375 10.9375 9.828125 15.625 
Q 13.8125 20.3125 21.34375 26.46875 
Q 33.015625 36.03125 37.109375 41.625 
Q 41.21875 47.21875 41.21875 52.203125 
Q 41.21875 57.421875 37.46875 61 
Q 33.734375 64.59375 27.734375 64.59375 
Q 21.390625 64.59375 17.578125 60.78125 
Q 13.765625 56.984375 13.71875 50.25 
L 4.6875 51.171875 
Q 5.609375 61.28125 11.65625 66.578125 
Q 17.71875 71.875 27.9375 71.875 
Q 38.234375 71.875 44.234375 66.15625 
Q 50.25 60.453125 50.25 52 
Q 50.25 47.703125 48.484375 43.546875 
Q 46.734375 39.40625 42.65625 34.8125 
Q 38.578125 30.21875 29.109375 22.21875 
Q 21.1875 15.578125 18.9375 13.203125 
Q 16.703125 10.84375 15.234375 8.453125 
z
" id="ArialMT-32"/>
      </defs>
      <g style="fill:#262626;" transform="translate(43.659531 190.117812)scale(0.1 -0.1)">
       <use xlink:href="#ArialMT-32"/>
      </g>
     </g>
    </g>
    <g id="xtick_2">
     <g id="line2d_2">
      <g>
       <use style="fill:#262626;stroke:#262626;stroke-width:0.8;" x="76.36" xlink:href="#m41d7814d55" y="175.96"/>
      </g>
     </g>
     <g id="text_2">
      <!-- 4 -->
      <defs>
       <path d="M 32.328125 0 
L 32.328125 17.140625 
L 1.265625 17.140625 
L 1.265625 25.203125 
L 33.9375 71.578125 
L 41.109375 71.578125 
L 41.109375 25.203125 
L 50.78125 25.203125 
L 50.78125 17.140625 
L 41.109375 17.140625 
L 41.109375 0 
z
M 32.328125 25.203125 
L 32.328125 57.46875 
L 9.90625 25.203125 
z
" id="ArialMT-34"/>
      </defs>
      <g style="fill:#262626;" transform="translate(73.579531 190.117812)scale(0.1 -0.1)">
       <use xlink:href="#ArialMT-34"/>
      </g>
     </g>
    </g>
    <g id="xtick_3">
     <g id="line2d_3">
      <g>
       <use style="fill:#262626;stroke:#262626;stroke-width:0.8;" x="106.28" xlink:href="#m41d7814d55" y="175.96"/>
      </g>
     </g>
     <g id="text_3">
      <!-- 6 -->
      <defs>
       <path d="M 49.75 54.046875 
L 41.015625 53.375 
Q 39.84375 58.546875 37.703125 60.890625 
Q 34.125 64.65625 28.90625 64.65625 
Q 24.703125 64.65625 21.53125 62.3125 
Q 17.390625 59.28125 14.984375 53.46875 
Q 12.59375 47.65625 12.5 36.921875 
Q 15.671875 41.75 20.265625 44.09375 
Q 24.859375 46.4375 29.890625 46.4375 
Q 38.671875 46.4375 44.84375 39.96875 
Q 51.03125 33.5 51.03125 23.25 
Q 51.03125 16.5 48.125 10.71875 
Q 45.21875 4.9375 40.140625 1.859375 
Q 35.0625 -1.21875 28.609375 -1.21875 
Q 17.625 -1.21875 10.6875 6.859375 
Q 3.765625 14.9375 3.765625 33.5 
Q 3.765625 54.25 11.421875 63.671875 
Q 18.109375 71.875 29.4375 71.875 
Q 37.890625 71.875 43.28125 67.140625 
Q 48.6875 62.40625 49.75 54.046875 
z
M 13.875 23.1875 
Q 13.875 18.65625 15.796875 14.5 
Q 17.71875 10.359375 21.1875 8.171875 
Q 24.65625 6 28.46875 6 
Q 34.03125 6 38.03125 10.484375 
Q 42.046875 14.984375 42.046875 22.703125 
Q 42.046875 30.125 38.078125 34.390625 
Q 34.125 38.671875 28.125 38.671875 
Q 22.171875 38.671875 18.015625 34.390625 
Q 13.875 30.125 13.875 23.1875 
z
" id="ArialMT-36"/>
      </defs>
      <g style="fill:#262626;" transform="translate(103.499531 190.117812)scale(0.1 -0.1)">
       <use xlink:href="#ArialMT-36"/>
      </g>
     </g>
    </g>
    <g id="xtick_4">
     <g id="line2d_4">
      <g>
       <use style="fill:#262626;stroke:#262626;stroke-width:0.8;" x="136.2" xlink:href="#m41d7814d55" y="175.96"/>
      </g>
     </g>
     <g id="text_4">
      <!-- 8 -->
      <defs>
       <path d="M 17.671875 38.8125 
Q 12.203125 40.828125 9.5625 44.53125 
Q 6.9375 48.25 6.9375 53.421875 
Q 6.9375 61.234375 12.546875 66.546875 
Q 18.171875 71.875 27.484375 71.875 
Q 36.859375 71.875 42.578125 66.421875 
Q 48.296875 60.984375 48.296875 53.171875 
Q 48.296875 48.1875 45.671875 44.5 
Q 43.0625 40.828125 37.75 38.8125 
Q 44.34375 36.671875 47.78125 31.875 
Q 51.21875 27.09375 51.21875 20.453125 
Q 51.21875 11.28125 44.71875 5.03125 
Q 38.234375 -1.21875 27.640625 -1.21875 
Q 17.046875 -1.21875 10.546875 5.046875 
Q 4.046875 11.328125 4.046875 20.703125 
Q 4.046875 27.6875 7.59375 32.390625 
Q 11.140625 37.109375 17.671875 38.8125 
z
M 15.921875 53.71875 
Q 15.921875 48.640625 19.1875 45.40625 
Q 22.46875 42.1875 27.6875 42.1875 
Q 32.765625 42.1875 36.015625 45.375 
Q 39.265625 48.578125 39.265625 53.21875 
Q 39.265625 58.0625 35.90625 61.359375 
Q 32.5625 64.65625 27.59375 64.65625 
Q 22.5625 64.65625 19.234375 61.421875 
Q 15.921875 58.203125 15.921875 53.71875 
z
M 13.09375 20.65625 
Q 13.09375 16.890625 14.875 13.375 
Q 16.65625 9.859375 20.171875 7.921875 
Q 23.6875 6 27.734375 6 
Q 34.03125 6 38.125 10.046875 
Q 42.234375 14.109375 42.234375 20.359375 
Q 42.234375 26.703125 38.015625 30.859375 
Q 33.796875 35.015625 27.4375 35.015625 
Q 21.234375 35.015625 17.15625 30.90625 
Q 13.09375 26.8125 13.09375 20.65625 
z
" id="ArialMT-38"/>
      </defs>
      <g style="fill:#262626;" transform="translate(133.419531 190.117812)scale(0.1 -0.1)">
       <use xlink:href="#ArialMT-38"/>
      </g>
     </g>
    </g>
    <g id="xtick_5">
     <g id="line2d_5">
      <g>
       <use style="fill:#262626;stroke:#262626;stroke-width:0.8;" x="166.12" xlink:href="#m41d7814d55" y="175.96"/>
      </g>
     </g>
     <g id="text_5">
      <!-- 10 -->
      <defs>
       <path d="M 37.25 0 
L 28.46875 0 
L 28.46875 56 
Q 25.296875 52.984375 20.140625 49.953125 
Q 14.984375 46.921875 10.890625 45.40625 
L 10.890625 53.90625 
Q 18.265625 57.375 23.78125 62.296875 
Q 29.296875 67.234375 31.59375 71.875 
L 37.25 71.875 
z
" id="ArialMT-31"/>
       <path d="M 4.15625 35.296875 
Q 4.15625 48 6.765625 55.734375 
Q 9.375 63.484375 14.515625 67.671875 
Q 19.671875 71.875 27.484375 71.875 
Q 33.25 71.875 37.59375 69.546875 
Q 41.9375 67.234375 44.765625 62.859375 
Q 47.609375 58.5 49.21875 52.21875 
Q 50.828125 45.953125 50.828125 35.296875 
Q 50.828125 22.703125 48.234375 14.96875 
Q 45.65625 7.234375 40.5 3 
Q 35.359375 -1.21875 27.484375 -1.21875 
Q 17.140625 -1.21875 11.234375 6.203125 
Q 4.15625 15.140625 4.15625 35.296875 
z
M 13.1875 35.296875 
Q 13.1875 17.671875 17.3125 11.828125 
Q 21.4375 6 27.484375 6 
Q 33.546875 6 37.671875 11.859375 
Q 41.796875 17.71875 41.796875 35.296875 
Q 41.796875 52.984375 37.671875 58.78125 
Q 33.546875 64.59375 27.390625 64.59375 
Q 21.34375 64.59375 17.71875 59.46875 
Q 13.1875 52.9375 13.1875 35.296875 
z
" id="ArialMT-30"/>
      </defs>
      <g style="fill:#262626;" transform="translate(160.559062 190.117812)scale(0.1 -0.1)">
       <use xlink:href="#ArialMT-31"/>
       <use x="55.615234" xlink:href="#ArialMT-30"/>
      </g>
     </g>
    </g>
    <g id="xtick_6">
     <g id="line2d_6">
      <g>
       <use style="fill:#262626;stroke:#262626;stroke-width:0.8;" x="196.04" xlink:href="#m41d7814d55" y="175.96"/>
      </g>
     </g>
     <g id="text_6">
      <!-- 12 -->
      <g style="fill:#262626;" transform="translate(190.479062 190.117812)scale(0.1 -0.1)">
       <use xlink:href="#ArialMT-31"/>
       <use x="55.615234" xlink:href="#ArialMT-32"/>
      </g>
     </g>
    </g>
    <g id="text_7">
     <!-- pH -->
     <defs>
      <path d="M 6.59375 -19.875 
L 6.59375 51.859375 
L 14.59375 51.859375 
L 14.59375 45.125 
Q 17.4375 49.078125 21 51.046875 
Q 24.5625 53.03125 29.640625 53.03125 
Q 36.28125 53.03125 41.359375 49.609375 
Q 46.4375 46.1875 49.015625 39.953125 
Q 51.609375 33.734375 51.609375 26.3125 
Q 51.609375 18.359375 48.75 11.984375 
Q 45.90625 5.609375 40.453125 2.21875 
Q 35.015625 -1.171875 29 -1.171875 
Q 24.609375 -1.171875 21.109375 0.6875 
Q 17.625 2.546875 15.375 5.375 
L 15.375 -19.875 
z
M 14.546875 25.640625 
Q 14.546875 15.625 18.59375 10.84375 
Q 22.65625 6.0625 28.421875 6.0625 
Q 34.28125 6.0625 38.453125 11.015625 
Q 42.625 15.96875 42.625 26.375 
Q 42.625 36.28125 38.546875 41.203125 
Q 34.46875 46.140625 28.8125 46.140625 
Q 23.1875 46.140625 18.859375 40.890625 
Q 14.546875 35.640625 14.546875 25.640625 
z
" id="ArialMT-70"/>
      <path d="M 8.015625 0 
L 8.015625 71.578125 
L 17.484375 71.578125 
L 17.484375 42.1875 
L 54.6875 42.1875 
L 54.6875 71.578125 
L 64.15625 71.578125 
L 64.15625 0 
L 54.6875 0 
L 54.6875 33.734375 
L 17.484375 33.734375 
L 17.484375 0 
z
" id="ArialMT-48"/>
     </defs>
     <g style="fill:#262626;" transform="translate(114.848594 203.263125)scale(0.1 -0.1)">
      <use xlink:href="#ArialMT-70"/>
      <use x="55.615234" xlink:href="#ArialMT-48"/>
     </g>
    </g>
   </g>
   <g id="matplotlib.axis_2">
    <g id="ytick_1">
     <g id="line2d_7">
      <defs>
       <path d="M 0 0 
L -3.5 0 
" id="m084463c062" style="stroke:#262626;stroke-width:0.8;"/>
      </defs>
      <g>
       <use style="fill:#262626;stroke:#262626;stroke-width:0.8;" x="38.96" xlink:href="#m084463c062" y="152.590931"/>
      </g>
     </g>
     <g id="text_8">
      <!-- 0 -->
      <g style="fill:#262626;" transform="translate(26.399063 156.169837)scale(0.1 -0.1)">
       <use xlink:href="#ArialMT-30"/>
      </g>
     </g>
    </g>
    <g id="ytick_2">
     <g id="line2d_8">
      <g>
       <use style="fill:#262626;stroke:#262626;stroke-width:0.8;" x="38.96" xlink:href="#m084463c062" y="48.846082"/>
      </g>
     </g>
     <g id="text_9">
      <!-- 1 -->
      <g style="fill:#262626;" transform="translate(26.399063 52.424988)scale(0.1 -0.1)">
       <use xlink:href="#ArialMT-31"/>
      </g>
     </g>
    </g>
    <g id="text_10">
     <!-- $\langle q_\mathsf{total} \rangle$ -->
     <defs>
      <path d="M 8.9375 31.34375 
L 22.703125 75.875 
L 31 75.875 
L 17.234375 31.34375 
L 31 -13.1875 
L 22.703125 -13.1875 
z
" id="DejaVuSans-27e8"/>
      <path d="M 41.703125 8.203125 
Q 38.09375 3.46875 33.171875 1.015625 
Q 28.265625 -1.421875 22.3125 -1.421875 
Q 14.015625 -1.421875 9.296875 4.171875 
Q 4.59375 9.765625 4.59375 19.578125 
Q 4.59375 27.484375 7.5 34.859375 
Q 10.40625 42.234375 15.828125 48.09375 
Q 19.34375 51.90625 23.90625 53.953125 
Q 28.46875 56 33.5 56 
Q 39.546875 56 43.453125 53.609375 
Q 47.359375 51.21875 49.125 46.390625 
L 50.6875 54.59375 
L 59.71875 54.59375 
L 45.125 -20.609375 
L 36.078125 -20.609375 
z
M 13.921875 20.90625 
Q 13.921875 13.671875 16.9375 9.890625 
Q 19.96875 6.109375 25.6875 6.109375 
Q 34.1875 6.109375 40.1875 14.234375 
Q 46.1875 22.359375 46.1875 33.984375 
Q 46.1875 41.015625 43.078125 44.75 
Q 39.984375 48.484375 34.1875 48.484375 
Q 29.9375 48.484375 26.3125 46.5 
Q 22.703125 44.53125 20.015625 40.71875 
Q 17.1875 36.71875 15.546875 31.34375 
Q 13.921875 25.984375 13.921875 20.90625 
z
" id="DejaVuSans-Oblique-71"/>
      <path d="M 18.3125 70.21875 
L 18.3125 54.6875 
L 36.8125 54.6875 
L 36.8125 47.703125 
L 18.3125 47.703125 
L 18.3125 18.015625 
Q 18.3125 11.328125 20.140625 9.421875 
Q 21.96875 7.515625 27.59375 7.515625 
L 36.8125 7.515625 
L 36.8125 0 
L 27.59375 0 
Q 17.1875 0 13.234375 3.875 
Q 9.28125 7.765625 9.28125 18.015625 
L 9.28125 47.703125 
L 2.6875 47.703125 
L 2.6875 54.6875 
L 9.28125 54.6875 
L 9.28125 70.21875 
z
" id="DejaVuSans-74"/>
      <path d="M 30.609375 48.390625 
Q 23.390625 48.390625 19.1875 42.75 
Q 14.984375 37.109375 14.984375 27.296875 
Q 14.984375 17.484375 19.15625 11.84375 
Q 23.34375 6.203125 30.609375 6.203125 
Q 37.796875 6.203125 41.984375 11.859375 
Q 46.1875 17.53125 46.1875 27.296875 
Q 46.1875 37.015625 41.984375 42.703125 
Q 37.796875 48.390625 30.609375 48.390625 
z
M 30.609375 56 
Q 42.328125 56 49.015625 48.375 
Q 55.71875 40.765625 55.71875 27.296875 
Q 55.71875 13.875 49.015625 6.21875 
Q 42.328125 -1.421875 30.609375 -1.421875 
Q 18.84375 -1.421875 12.171875 6.21875 
Q 5.515625 13.875 5.515625 27.296875 
Q 5.515625 40.765625 12.171875 48.375 
Q 18.84375 56 30.609375 56 
z
" id="DejaVuSans-6f"/>
      <path d="M 34.28125 27.484375 
Q 23.390625 27.484375 19.1875 25 
Q 14.984375 22.515625 14.984375 16.5 
Q 14.984375 11.71875 18.140625 8.90625 
Q 21.296875 6.109375 26.703125 6.109375 
Q 34.1875 6.109375 38.703125 11.40625 
Q 43.21875 16.703125 43.21875 25.484375 
L 43.21875 27.484375 
z
M 52.203125 31.203125 
L 52.203125 0 
L 43.21875 0 
L 43.21875 8.296875 
Q 40.140625 3.328125 35.546875 0.953125 
Q 30.953125 -1.421875 24.3125 -1.421875 
Q 15.921875 -1.421875 10.953125 3.296875 
Q 6 8.015625 6 15.921875 
Q 6 25.140625 12.171875 29.828125 
Q 18.359375 34.515625 30.609375 34.515625 
L 43.21875 34.515625 
L 43.21875 35.40625 
Q 43.21875 41.609375 39.140625 45 
Q 35.0625 48.390625 27.6875 48.390625 
Q 23 48.390625 18.546875 47.265625 
Q 14.109375 46.140625 10.015625 43.890625 
L 10.015625 52.203125 
Q 14.9375 54.109375 19.578125 55.046875 
Q 24.21875 56 28.609375 56 
Q 40.484375 56 46.34375 49.84375 
Q 52.203125 43.703125 52.203125 31.203125 
z
" id="DejaVuSans-61"/>
      <path d="M 9.421875 75.984375 
L 18.40625 75.984375 
L 18.40625 0 
L 9.421875 0 
z
" id="DejaVuSans-6c"/>
      <path d="M 30.078125 31.34375 
L 16.3125 -13.1875 
L 8.015625 -13.1875 
L 21.78125 31.34375 
L 8.015625 75.875 
L 16.3125 75.875 
z
" id="DejaVuSans-27e9"/>
     </defs>
     <g style="fill:#262626;" transform="translate(20.299063 115.95)rotate(-90)scale(0.1 -0.1)">
      <use transform="translate(0 0.125)" xlink:href="#DejaVuSans-27e8"/>
      <use transform="translate(39.013672 0.125)" xlink:href="#DejaVuSans-Oblique-71"/>
      <use transform="translate(102.490234 -16.28125)scale(0.7)" xlink:href="#DejaVuSans-74"/>
      <use transform="translate(129.936523 -16.28125)scale(0.7)" xlink:href="#DejaVuSans-6f"/>
      <use transform="translate(172.763672 -16.28125)scale(0.7)" xlink:href="#DejaVuSans-74"/>
      <use transform="translate(200.209961 -16.28125)scale(0.7)" xlink:href="#DejaVuSans-61"/>
      <use transform="translate(243.105469 -16.28125)scale(0.7)" xlink:href="#DejaVuSans-6c"/>
      <use transform="translate(265.288086 0.125)" xlink:href="#DejaVuSans-27e9"/>
     </g>
    </g>
   </g>
   <g id="PolyCollection_1">
    <defs>
     <path d="M 46.44 -167.620277 
L 46.44 -166.474681 
L 47.936 -166.30284 
L 49.432 -166.088702 
L 50.928 -165.822459 
L 52.424 -165.492319 
L 53.92 -165.084222 
L 55.416 -164.58158 
L 56.912 -163.965035 
L 58.408 -163.212277 
L 59.904 -162.297958 
L 61.4 -161.193731 
L 62.896 -159.868463 
L 64.392 -158.288669 
L 65.888 -156.419204 
L 67.384 -154.224219 
L 68.88 -151.668384 
L 70.376 -148.718321 
L 71.872 -145.344203 
L 73.368 -141.521461 
L 74.864 -137.2326 
L 76.36 -132.469163 
L 77.856 -127.233976 
L 79.352 -121.543774 
L 80.848 -115.432296 
L 82.344 -108.953711 
L 83.84 -102.185983 
L 85.336 -95.233377 
L 86.832 -88.226933 
L 88.328 -81.32157 
L 89.824 -74.688704 
L 91.32 -68.504224 
L 92.816 -62.932977 
L 94.312 -58.112365 
L 95.808 -54.138346 
L 97.304 -51.056773 
L 98.8 -48.861629 
L 100.296 -47.499958 
L 101.792 -46.881818 
L 103.288 -46.892843 
L 104.784 -47.407057 
L 106.28 -48.298132 
L 107.776 -49.448039 
L 109.272 -50.752792 
L 110.768 -52.125516 
L 112.264 -53.497349 
L 113.76 -54.816807 
L 115.256 -56.048163 
L 116.752 -57.169245 
L 118.248 -58.168986 
L 119.744 -59.044925 
L 121.24 -59.800874 
L 122.736 -60.444836 
L 124.232 -60.987295 
L 125.728 -61.439877 
L 127.224 -61.814375 
L 128.72 -62.122092 
L 130.216 -62.373433 
L 131.712 -62.577699 
L 133.208 -62.743009 
L 134.704 -62.876327 
L 136.2 -62.983533 
L 137.696 -63.069537 
L 139.192 -63.1384 
L 140.688 -63.193451 
L 142.184 -63.237404 
L 143.68 -63.272461 
L 145.176 -63.300399 
L 146.672 -63.322649 
L 148.168 -63.340359 
L 149.664 -63.354451 
L 151.16 -63.365658 
L 152.656 -63.374571 
L 154.152 -63.381656 
L 155.648 -63.387287 
L 157.144 -63.391763 
L 158.64 -63.395319 
L 160.136 -63.398145 
L 161.632 -63.40039 
L 163.128 -63.402174 
L 164.624 -63.40359 
L 166.12 -63.404716 
L 167.616 -63.405609 
L 169.112 -63.406318 
L 170.608 -63.406881 
L 172.104 -63.407327 
L 173.6 -63.40768 
L 175.096 -63.407957 
L 176.592 -63.408173 
L 178.088 -63.408337 
L 179.584 -63.408454 
L 181.08 -63.408524 
L 182.576 -63.408543 
L 184.072 -63.408504 
L 185.568 -63.408409 
L 187.064 -63.408258 
L 188.56 -63.408053 
L 190.056 -63.407786 
L 191.552 -63.407448 
L 193.048 -63.407023 
L 194.544 -63.406487 
L 196.04 -63.405813 
L 196.04 -63.411627 
L 196.04 -63.411627 
L 194.544 -63.411106 
L 193.048 -63.410695 
L 191.552 -63.41037 
L 190.056 -63.410117 
L 188.56 -63.409922 
L 187.064 -63.40978 
L 185.568 -63.409688 
L 184.072 -63.409648 
L 182.576 -63.409666 
L 181.08 -63.409744 
L 179.584 -63.409881 
L 178.088 -63.410076 
L 176.592 -63.410332 
L 175.096 -63.41066 
L 173.6 -63.411075 
L 172.104 -63.411598 
L 170.608 -63.412256 
L 169.112 -63.413084 
L 167.616 -63.414125 
L 166.12 -63.415436 
L 164.624 -63.417086 
L 163.128 -63.419162 
L 161.632 -63.421776 
L 160.136 -63.425065 
L 158.64 -63.429206 
L 157.144 -63.434417 
L 155.648 -63.440975 
L 154.152 -63.449228 
L 152.656 -63.459614 
L 151.16 -63.47268 
L 149.664 -63.489118 
L 148.168 -63.509793 
L 146.672 -63.535792 
L 145.176 -63.568475 
L 143.68 -63.609545 
L 142.184 -63.661132 
L 140.688 -63.725892 
L 139.192 -63.807132 
L 137.696 -63.908954 
L 136.2 -64.036438 
L 134.704 -64.19584 
L 133.208 -64.39483 
L 131.712 -64.642759 
L 130.216 -64.950941 
L 128.72 -65.332957 
L 127.224 -65.804949 
L 125.728 -66.385888 
L 124.232 -67.097776 
L 122.736 -67.965759 
L 121.24 -69.018072 
L 119.744 -70.285807 
L 118.248 -71.802434 
L 116.752 -73.60308 
L 115.256 -75.723559 
L 113.76 -78.199211 
L 112.264 -81.063572 
L 110.768 -84.346925 
L 109.272 -88.07471 
L 107.776 -92.265761 
L 106.28 -96.930317 
L 104.784 -102.067772 
L 103.288 -107.664115 
L 101.792 -113.689068 
L 100.296 -120.092944 
L 98.8 -126.803435 
L 97.304 -133.722906 
L 95.808 -140.727186 
L 94.312 -147.667271 
L 92.816 -154.375291 
L 91.32 -160.675357 
L 89.824 -166.398537 
L 88.328 -171.399594 
L 86.832 -175.572131 
L 85.336 -178.85882 
L 83.84 -181.254709 
L 82.344 -182.803449 
L 80.848 -183.587984 
L 79.352 -183.718182 
L 77.856 -183.317931 
L 76.36 -182.513605 
L 74.864 -181.424997 
L 73.368 -180.159059 
L 71.872 -178.806264 
L 70.376 -177.439169 
L 68.88 -176.112672 
L 67.384 -174.865452 
L 65.888 -173.722146 
L 64.392 -172.695885 
L 62.896 -171.790872 
L 61.4 -171.004788 
L 59.904 -170.330877 
L 58.408 -169.759659 
L 56.912 -169.280251 
L 55.416 -168.881352 
L 53.92 -168.551921 
L 52.424 -168.281618 
L 50.928 -168.061061 
L 49.432 -167.881946 
L 47.936 -167.737069 
L 46.44 -167.620277 
z
" id="m6616704fb6" style="stroke:#ffffff;stroke-opacity:0.05;"/>
    </defs>
    <g clip-path="url(#p18551a09ea)">
     <use style="fill:#591e71;fill-opacity:0.05;stroke:#ffffff;stroke-opacity:0.05;" x="0" xlink:href="#m6616704fb6" y="216"/>
    </g>
   </g>
   <g id="line2d_9">
    <path clip-path="url(#p18551a09ea)" d="M 46.44 48.952521 
L 47.936 48.980046 
L 49.432 49.014676 
L 50.928 49.05824 
L 52.424 49.113032 
L 53.92 49.181928 
L 55.416 49.268534 
L 56.912 49.377357 
L 58.408 49.514032 
L 59.904 49.685582 
L 61.4 49.90074 
L 62.896 50.170333 
L 64.392 50.507723 
L 65.888 50.929325 
L 67.384 51.455164 
L 68.88 52.109472 
L 70.376 52.921255 
L 71.872 53.924767 
L 73.368 55.15974 
L 74.864 56.671201 
L 76.36 58.508616 
L 77.856 60.724047 
L 79.352 63.369022 
L 80.848 66.48986 
L 82.344 70.12142 
L 83.84 74.279654 
L 85.336 78.953902 
L 86.832 84.100468 
L 88.328 89.639418 
L 89.824 95.456379 
L 91.32 101.410209 
L 92.816 107.345866 
L 94.312 113.110182 
L 95.808 118.567234 
L 97.304 123.61016 
L 98.8 128.167468 
L 100.296 132.203549 
L 101.792 135.714557 
L 103.288 138.721521 
L 104.784 141.262585 
L 106.28 143.385775 
L 107.776 145.1431 
L 109.272 146.586249 
L 110.768 147.763779 
L 112.264 148.71954 
L 113.76 149.491991 
L 115.256 150.114139 
L 116.752 150.613838 
L 118.248 151.01429 
L 119.744 151.334634 
L 121.24 151.590527 
L 122.736 151.794703 
L 124.232 151.957464 
L 125.728 152.087118 
L 127.224 152.190338 
L 128.72 152.272476 
L 130.216 152.337813 
L 131.712 152.389771 
L 133.208 152.43108 
L 134.704 152.463917 
L 136.2 152.490015 
L 137.696 152.510754 
L 139.192 152.527234 
L 140.688 152.540328 
L 142.184 152.550732 
L 143.68 152.558997 
L 145.176 152.565563 
L 146.672 152.57078 
L 148.168 152.574924 
L 149.664 152.578216 
L 151.16 152.580831 
L 152.656 152.582908 
L 154.152 152.584558 
L 155.648 152.585869 
L 157.144 152.58691 
L 158.64 152.587738 
L 160.136 152.588395 
L 161.632 152.588917 
L 163.128 152.589332 
L 164.624 152.589662 
L 166.12 152.589924 
L 167.616 152.590133 
L 169.112 152.590299 
L 170.608 152.590432 
L 172.104 152.590538 
L 173.6 152.590623 
L 175.096 152.590691 
L 176.592 152.590747 
L 178.088 152.590793 
L 179.584 152.590832 
L 181.08 152.590866 
L 182.576 152.590896 
L 184.072 152.590924 
L 185.568 152.590952 
L 187.064 152.590981 
L 188.56 152.591012 
L 190.056 152.591048 
L 191.552 152.591091 
L 193.048 152.591141 
L 194.544 152.591203 
L 196.04 152.59128 
" style="fill:none;opacity:0.9;stroke:#591e71;stroke-linecap:round;stroke-width:1.5;"/>
   </g>
   <g id="line2d_10">
    <path clip-path="url(#p18551a09ea)" d="M 46.44 49.112063 
L 47.936 49.18071 
L 49.432 49.267003 
L 50.928 49.375434 
L 52.424 49.511617 
L 53.92 49.682552 
L 55.416 49.896942 
L 56.912 50.165576 
L 58.408 50.501774 
L 59.904 50.921897 
L 61.4 51.445909 
L 62.896 52.09797 
L 64.392 52.907008 
L 65.888 53.90719 
L 67.384 55.138161 
L 68.88 56.64487 
L 70.376 58.476723 
L 71.872 60.685761 
L 73.368 63.323555 
L 74.864 66.436549 
L 76.36 70.059839 
L 77.856 74.209738 
L 79.352 78.876064 
L 80.848 84.01568 
L 82.344 89.549225 
L 83.84 95.362829 
L 85.336 101.315683 
L 86.832 107.252847 
L 88.328 113.020998 
L 89.824 118.483834 
L 91.32 123.53397 
L 92.816 128.099334 
L 94.312 132.143772 
L 95.808 135.662984 
L 97.304 138.677666 
L 98.8 141.225749 
L 100.296 143.355153 
L 101.792 145.117862 
L 103.288 146.565594 
L 104.784 147.746974 
L 106.28 148.705932 
L 107.776 149.481014 
L 109.272 150.105311 
L 110.768 150.606756 
L 112.264 151.00862 
L 113.76 151.330102 
L 115.256 151.586909 
L 116.752 151.791817 
L 118.248 151.955165 
L 119.744 152.085287 
L 121.24 152.188881 
L 122.736 152.271316 
L 124.232 152.336891 
L 125.728 152.389038 
L 127.224 152.430497 
L 128.72 152.463454 
L 130.216 152.489646 
L 131.712 152.510462 
L 133.208 152.527002 
L 134.704 152.540144 
L 136.2 152.550585 
L 137.696 152.55888 
L 139.192 152.565471 
L 140.688 152.570706 
L 142.184 152.574865 
L 143.68 152.578169 
L 145.176 152.580793 
L 146.672 152.582878 
L 148.168 152.584534 
L 149.664 152.58585 
L 151.16 152.586895 
L 152.656 152.587725 
L 154.152 152.588384 
L 155.648 152.588908 
L 157.144 152.589324 
L 158.64 152.589654 
L 160.136 152.589917 
L 161.632 152.590125 
L 163.128 152.590291 
L 164.624 152.590423 
L 166.12 152.590527 
L 167.616 152.59061 
L 169.112 152.590676 
L 170.608 152.590728 
L 172.104 152.59077 
L 173.6 152.590803 
L 175.096 152.590829 
L 176.592 152.59085 
L 178.088 152.590867 
L 179.584 152.59088 
L 181.08 152.59089 
L 182.576 152.590899 
L 184.072 152.590905 
L 185.568 152.59091 
L 187.064 152.590915 
L 188.56 152.590918 
L 190.056 152.590921 
L 191.552 152.590923 
L 193.048 152.590924 
L 194.544 152.590926 
L 196.04 152.590927 
" style="fill:none;opacity:0.7;stroke:#000000;stroke-linecap:round;stroke-width:1.5;"/>
   </g>
   <g id="line2d_11">
    <path clip-path="url(#p18551a09ea)" d="M 46.44 48.379723 
L 47.936 48.262931 
L 49.432 48.118054 
L 50.928 47.938939 
L 52.424 47.718382 
L 53.92 47.448079 
L 55.416 47.118648 
L 56.912 46.719749 
L 58.408 46.240341 
L 59.904 45.669123 
L 61.4 44.995212 
L 62.896 44.209128 
L 64.392 43.304115 
L 65.888 42.277854 
L 67.384 41.134548 
L 68.88 39.887328 
L 70.376 38.560831 
L 71.872 37.193736 
L 73.368 35.840941 
L 74.864 34.575003 
L 76.36 33.486395 
L 77.856 32.682069 
L 79.352 32.281818 
L 80.848 32.412016 
L 82.344 33.196551 
L 83.84 34.745291 
L 85.336 37.14118 
L 86.832 40.427869 
L 88.328 44.600406 
L 89.824 49.601463 
L 91.32 55.324643 
L 92.816 61.624709 
L 94.312 68.332729 
L 95.808 75.272814 
L 97.304 82.277094 
L 98.8 89.196565 
L 100.296 95.907056 
L 101.792 102.310932 
L 103.288 108.335885 
L 104.784 113.932228 
L 106.28 119.069683 
L 107.776 123.734239 
L 109.272 127.92529 
L 110.768 131.653075 
L 112.264 134.936428 
L 113.76 137.800789 
L 115.256 140.276441 
L 116.752 142.39692 
L 118.248 144.197566 
L 119.744 145.714193 
L 121.24 146.981928 
L 122.736 148.034241 
L 124.232 148.902224 
L 125.728 149.614112 
L 127.224 150.195051 
L 128.72 150.667043 
L 130.216 151.049059 
L 131.712 151.357241 
L 133.208 151.60517 
L 134.704 151.80416 
L 136.2 151.963562 
L 137.696 152.091046 
L 139.192 152.192868 
L 140.688 152.274108 
L 142.184 152.338868 
L 143.68 152.390455 
L 145.176 152.431525 
L 146.672 152.464208 
L 148.168 152.490207 
L 149.664 152.510882 
L 151.16 152.52732 
L 152.656 152.540386 
L 154.152 152.550772 
L 155.648 152.559025 
L 157.144 152.565583 
L 158.64 152.570794 
L 160.136 152.574935 
L 161.632 152.578224 
L 163.128 152.580838 
L 164.624 152.582914 
L 166.12 152.584564 
L 167.616 152.585875 
L 169.112 152.586916 
L 170.608 152.587744 
L 172.104 152.588402 
L 173.6 152.588925 
L 175.096 152.58934 
L 176.592 152.589668 
L 178.088 152.589924 
L 179.584 152.590119 
L 181.08 152.590256 
L 182.576 152.590334 
L 184.072 152.590352 
L 185.568 152.590312 
L 187.064 152.59022 
L 188.56 152.590078 
L 190.056 152.589883 
L 191.552 152.58963 
L 193.048 152.589305 
L 194.544 152.588894 
L 196.04 152.588373 
" style="fill:none;opacity:0.45;stroke:#591e71;stroke-dasharray:2.775,1.2;stroke-dashoffset:0;stroke-width:0.75;"/>
   </g>
   <g id="line2d_12">
    <path clip-path="url(#p18551a09ea)" d="M 46.44 49.525319 
L 47.936 49.69716 
L 49.432 49.911298 
L 50.928 50.177541 
L 52.424 50.507681 
L 53.92 50.915778 
L 55.416 51.41842 
L 56.912 52.034965 
L 58.408 52.787723 
L 59.904 53.702042 
L 61.4 54.806269 
L 62.896 56.131537 
L 64.392 57.711331 
L 65.888 59.580796 
L 67.384 61.775781 
L 68.88 64.331616 
L 70.376 67.281679 
L 71.872 70.655797 
L 73.368 74.478539 
L 74.864 78.7674 
L 76.36 83.530837 
L 77.856 88.766024 
L 79.352 94.456226 
L 80.848 100.567704 
L 82.344 107.046289 
L 83.84 113.814017 
L 85.336 120.766623 
L 86.832 127.773067 
L 88.328 134.67843 
L 89.824 141.311296 
L 91.32 147.495776 
L 92.816 153.067023 
L 94.312 157.887635 
L 95.808 161.861654 
L 97.304 164.943227 
L 98.8 167.138371 
L 100.296 168.500042 
L 101.792 169.118182 
L 103.288 169.107157 
L 104.784 168.592943 
L 106.28 167.701868 
L 107.776 166.551961 
L 109.272 165.247208 
L 110.768 163.874484 
L 112.264 162.502651 
L 113.76 161.183193 
L 115.256 159.951837 
L 116.752 158.830755 
L 118.248 157.831014 
L 119.744 156.955075 
L 121.24 156.199126 
L 122.736 155.555164 
L 124.232 155.012705 
L 125.728 154.560123 
L 127.224 154.185625 
L 128.72 153.877908 
L 130.216 153.626567 
L 131.712 153.422301 
L 133.208 153.256991 
L 134.704 153.123673 
L 136.2 153.016467 
L 137.696 152.930463 
L 139.192 152.8616 
L 140.688 152.806549 
L 142.184 152.762596 
L 143.68 152.727539 
L 145.176 152.699601 
L 146.672 152.677351 
L 148.168 152.659641 
L 149.664 152.645549 
L 151.16 152.634342 
L 152.656 152.625429 
L 154.152 152.618344 
L 155.648 152.612713 
L 157.144 152.608237 
L 158.64 152.604681 
L 160.136 152.601855 
L 161.632 152.59961 
L 163.128 152.597826 
L 164.624 152.59641 
L 166.12 152.595284 
L 167.616 152.594391 
L 169.112 152.593682 
L 170.608 152.593119 
L 172.104 152.592673 
L 173.6 152.59232 
L 175.096 152.592043 
L 176.592 152.591827 
L 178.088 152.591663 
L 179.584 152.591546 
L 181.08 152.591476 
L 182.576 152.591457 
L 184.072 152.591496 
L 185.568 152.591591 
L 187.064 152.591742 
L 188.56 152.591947 
L 190.056 152.592214 
L 191.552 152.592552 
L 193.048 152.592977 
L 194.544 152.593513 
L 196.04 152.594187 
" style="fill:none;opacity:0.45;stroke:#591e71;stroke-dasharray:2.775,1.2;stroke-dashoffset:0;stroke-width:0.75;"/>
   </g>
   <g id="patch_3">
    <path d="M 38.96 175.96 
L 38.96 25.44 
" style="fill:none;stroke:#262626;stroke-linecap:square;stroke-linejoin:miter;stroke-width:0.8;"/>
   </g>
   <g id="patch_4">
    <path d="M 38.96 175.96 
L 203.52 175.96 
" style="fill:none;stroke:#262626;stroke-linecap:square;stroke-linejoin:miter;stroke-width:0.8;"/>
   </g>
   <g id="text_11">
    <!-- Jaguar-macro SM05 -->
    <defs>
     <path d="M 2.875 20.3125 
L 11.421875 21.484375 
Q 11.765625 13.28125 14.5 10.25 
Q 17.234375 7.234375 22.078125 7.234375 
Q 25.640625 7.234375 28.21875 8.859375 
Q 30.8125 10.5 31.78125 13.296875 
Q 32.765625 16.109375 32.765625 22.265625 
L 32.765625 71.578125 
L 42.234375 71.578125 
L 42.234375 22.796875 
Q 42.234375 13.8125 40.0625 8.875 
Q 37.890625 3.953125 33.171875 1.359375 
Q 28.46875 -1.21875 22.125 -1.21875 
Q 12.703125 -1.21875 7.6875 4.203125 
Q 2.6875 9.625 2.875 20.3125 
z
" id="ArialMT-4a"/>
     <path d="M 40.4375 6.390625 
Q 35.546875 2.25 31.03125 0.53125 
Q 26.515625 -1.171875 21.34375 -1.171875 
Q 12.796875 -1.171875 8.203125 3 
Q 3.609375 7.171875 3.609375 13.671875 
Q 3.609375 17.484375 5.34375 20.625 
Q 7.078125 23.78125 9.890625 25.6875 
Q 12.703125 27.59375 16.21875 28.5625 
Q 18.796875 29.25 24.03125 29.890625 
Q 34.671875 31.15625 39.703125 32.90625 
Q 39.75 34.71875 39.75 35.203125 
Q 39.75 40.578125 37.25 42.78125 
Q 33.890625 45.75 27.25 45.75 
Q 21.046875 45.75 18.09375 43.578125 
Q 15.140625 41.40625 13.71875 35.890625 
L 5.125 37.0625 
Q 6.296875 42.578125 8.984375 45.96875 
Q 11.671875 49.359375 16.75 51.1875 
Q 21.828125 53.03125 28.515625 53.03125 
Q 35.15625 53.03125 39.296875 51.46875 
Q 43.453125 49.90625 45.40625 47.53125 
Q 47.359375 45.171875 48.140625 41.546875 
Q 48.578125 39.3125 48.578125 33.453125 
L 48.578125 21.734375 
Q 48.578125 9.46875 49.140625 6.21875 
Q 49.703125 2.984375 51.375 0 
L 42.1875 0 
Q 40.828125 2.734375 40.4375 6.390625 
z
M 39.703125 26.03125 
Q 34.90625 24.078125 25.34375 22.703125 
Q 19.921875 21.921875 17.671875 20.9375 
Q 15.4375 19.96875 14.203125 18.09375 
Q 12.984375 16.21875 12.984375 13.921875 
Q 12.984375 10.40625 15.640625 8.0625 
Q 18.3125 5.71875 23.4375 5.71875 
Q 28.515625 5.71875 32.46875 7.9375 
Q 36.421875 10.15625 38.28125 14.015625 
Q 39.703125 17 39.703125 22.796875 
z
" id="ArialMT-61"/>
     <path d="M 4.984375 -4.296875 
L 13.53125 -5.5625 
Q 14.0625 -9.515625 16.5 -11.328125 
Q 19.78125 -13.765625 25.4375 -13.765625 
Q 31.546875 -13.765625 34.859375 -11.328125 
Q 38.1875 -8.890625 39.359375 -4.5 
Q 40.046875 -1.8125 39.984375 6.78125 
Q 34.234375 0 25.640625 0 
Q 14.9375 0 9.078125 7.71875 
Q 3.21875 15.4375 3.21875 26.21875 
Q 3.21875 33.640625 5.90625 39.90625 
Q 8.59375 46.1875 13.6875 49.609375 
Q 18.796875 53.03125 25.6875 53.03125 
Q 34.859375 53.03125 40.828125 45.609375 
L 40.828125 51.859375 
L 48.921875 51.859375 
L 48.921875 7.03125 
Q 48.921875 -5.078125 46.453125 -10.125 
Q 44 -15.1875 38.640625 -18.109375 
Q 33.296875 -21.046875 25.484375 -21.046875 
Q 16.21875 -21.046875 10.5 -16.875 
Q 4.78125 -12.703125 4.984375 -4.296875 
z
M 12.25 26.859375 
Q 12.25 16.65625 16.296875 11.96875 
Q 20.359375 7.28125 26.46875 7.28125 
Q 32.515625 7.28125 36.609375 11.9375 
Q 40.71875 16.609375 40.71875 26.5625 
Q 40.71875 36.078125 36.5 40.90625 
Q 32.28125 45.75 26.3125 45.75 
Q 20.453125 45.75 16.34375 40.984375 
Q 12.25 36.234375 12.25 26.859375 
z
" id="ArialMT-67"/>
     <path d="M 40.578125 0 
L 40.578125 7.625 
Q 34.515625 -1.171875 24.125 -1.171875 
Q 19.53125 -1.171875 15.546875 0.578125 
Q 11.578125 2.34375 9.640625 5 
Q 7.71875 7.671875 6.9375 11.53125 
Q 6.390625 14.109375 6.390625 19.734375 
L 6.390625 51.859375 
L 15.1875 51.859375 
L 15.1875 23.09375 
Q 15.1875 16.21875 15.71875 13.8125 
Q 16.546875 10.359375 19.234375 8.375 
Q 21.921875 6.390625 25.875 6.390625 
Q 29.828125 6.390625 33.296875 8.421875 
Q 36.765625 10.453125 38.203125 13.9375 
Q 39.65625 17.4375 39.65625 24.078125 
L 39.65625 51.859375 
L 48.4375 51.859375 
L 48.4375 0 
z
" id="ArialMT-75"/>
     <path d="M 6.5 0 
L 6.5 51.859375 
L 14.40625 51.859375 
L 14.40625 44 
Q 17.4375 49.515625 20 51.265625 
Q 22.5625 53.03125 25.640625 53.03125 
Q 30.078125 53.03125 34.671875 50.203125 
L 31.640625 42.046875 
Q 28.421875 43.953125 25.203125 43.953125 
Q 22.3125 43.953125 20.015625 42.21875 
Q 17.71875 40.484375 16.75 37.40625 
Q 15.28125 32.71875 15.28125 27.15625 
L 15.28125 0 
z
" id="ArialMT-72"/>
     <path d="M 3.171875 21.484375 
L 3.171875 30.328125 
L 30.171875 30.328125 
L 30.171875 21.484375 
z
" id="ArialMT-2d"/>
     <path d="M 6.59375 0 
L 6.59375 51.859375 
L 14.453125 51.859375 
L 14.453125 44.578125 
Q 16.890625 48.390625 20.9375 50.703125 
Q 25 53.03125 30.171875 53.03125 
Q 35.9375 53.03125 39.625 50.640625 
Q 43.3125 48.25 44.828125 43.953125 
Q 50.984375 53.03125 60.84375 53.03125 
Q 68.5625 53.03125 72.703125 48.75 
Q 76.859375 44.484375 76.859375 35.59375 
L 76.859375 0 
L 68.109375 0 
L 68.109375 32.671875 
Q 68.109375 37.9375 67.25 40.25 
Q 66.40625 42.578125 64.15625 43.984375 
Q 61.921875 45.40625 58.890625 45.40625 
Q 53.421875 45.40625 49.796875 41.765625 
Q 46.1875 38.140625 46.1875 30.125 
L 46.1875 0 
L 37.40625 0 
L 37.40625 33.6875 
Q 37.40625 39.546875 35.25 42.46875 
Q 33.109375 45.40625 28.21875 45.40625 
Q 24.515625 45.40625 21.359375 43.453125 
Q 18.21875 41.5 16.796875 37.734375 
Q 15.375 33.984375 15.375 26.90625 
L 15.375 0 
z
" id="ArialMT-6d"/>
     <path d="M 40.4375 19 
L 49.078125 17.875 
Q 47.65625 8.9375 41.8125 3.875 
Q 35.984375 -1.171875 27.484375 -1.171875 
Q 16.84375 -1.171875 10.375 5.78125 
Q 3.90625 12.75 3.90625 25.734375 
Q 3.90625 34.125 6.6875 40.421875 
Q 9.46875 46.734375 15.15625 49.875 
Q 20.84375 53.03125 27.546875 53.03125 
Q 35.984375 53.03125 41.359375 48.75 
Q 46.734375 44.484375 48.25 36.625 
L 39.703125 35.296875 
Q 38.484375 40.53125 35.375 43.15625 
Q 32.28125 45.796875 27.875 45.796875 
Q 21.234375 45.796875 17.078125 41.03125 
Q 12.9375 36.28125 12.9375 25.984375 
Q 12.9375 15.53125 16.9375 10.796875 
Q 20.953125 6.0625 27.390625 6.0625 
Q 32.5625 6.0625 36.03125 9.234375 
Q 39.5 12.40625 40.4375 19 
z
" id="ArialMT-63"/>
     <path d="M 3.328125 25.921875 
Q 3.328125 40.328125 11.328125 47.265625 
Q 18.015625 53.03125 27.640625 53.03125 
Q 38.328125 53.03125 45.109375 46.015625 
Q 51.90625 39.015625 51.90625 26.65625 
Q 51.90625 16.65625 48.90625 10.90625 
Q 45.90625 5.171875 40.15625 2 
Q 34.421875 -1.171875 27.640625 -1.171875 
Q 16.75 -1.171875 10.03125 5.8125 
Q 3.328125 12.796875 3.328125 25.921875 
z
M 12.359375 25.921875 
Q 12.359375 15.96875 16.703125 11.015625 
Q 21.046875 6.0625 27.640625 6.0625 
Q 34.1875 6.0625 38.53125 11.03125 
Q 42.875 16.015625 42.875 26.21875 
Q 42.875 35.84375 38.5 40.796875 
Q 34.125 45.75 27.640625 45.75 
Q 21.046875 45.75 16.703125 40.8125 
Q 12.359375 35.890625 12.359375 25.921875 
z
" id="ArialMT-6f"/>
     <path id="ArialMT-20"/>
     <path d="M 4.5 23 
L 13.421875 23.78125 
Q 14.0625 18.40625 16.375 14.96875 
Q 18.703125 11.53125 23.578125 9.40625 
Q 28.46875 7.28125 34.578125 7.28125 
Q 39.984375 7.28125 44.140625 8.890625 
Q 48.296875 10.5 50.3125 13.296875 
Q 52.34375 16.109375 52.34375 19.4375 
Q 52.34375 22.796875 50.390625 25.3125 
Q 48.4375 27.828125 43.953125 29.546875 
Q 41.0625 30.671875 31.203125 33.03125 
Q 21.34375 35.40625 17.390625 37.5 
Q 12.25 40.1875 9.734375 44.15625 
Q 7.234375 48.140625 7.234375 53.078125 
Q 7.234375 58.5 10.296875 63.203125 
Q 13.375 67.921875 19.28125 70.359375 
Q 25.203125 72.796875 32.421875 72.796875 
Q 40.375 72.796875 46.453125 70.234375 
Q 52.546875 67.671875 55.8125 62.6875 
Q 59.078125 57.71875 59.328125 51.421875 
L 50.25 50.734375 
Q 49.515625 57.515625 45.28125 60.984375 
Q 41.0625 64.453125 32.8125 64.453125 
Q 24.21875 64.453125 20.28125 61.296875 
Q 16.359375 58.15625 16.359375 53.71875 
Q 16.359375 49.859375 19.140625 47.359375 
Q 21.875 44.875 33.421875 42.265625 
Q 44.96875 39.65625 49.265625 37.703125 
Q 55.515625 34.8125 58.484375 30.390625 
Q 61.46875 25.984375 61.46875 20.21875 
Q 61.46875 14.5 58.203125 9.4375 
Q 54.9375 4.390625 48.796875 1.578125 
Q 42.671875 -1.21875 35.015625 -1.21875 
Q 25.296875 -1.21875 18.71875 1.609375 
Q 12.15625 4.4375 8.421875 10.125 
Q 4.6875 15.828125 4.5 23 
z
" id="ArialMT-53"/>
     <path d="M 7.421875 0 
L 7.421875 71.578125 
L 21.6875 71.578125 
L 38.625 20.90625 
Q 40.96875 13.8125 42.046875 10.296875 
Q 43.265625 14.203125 45.84375 21.78125 
L 62.984375 71.578125 
L 75.734375 71.578125 
L 75.734375 0 
L 66.609375 0 
L 66.609375 59.90625 
L 45.796875 0 
L 37.25 0 
L 16.546875 60.9375 
L 16.546875 0 
z
" id="ArialMT-4d"/>
     <path d="M 4.15625 18.75 
L 13.375 19.53125 
Q 14.40625 12.796875 18.140625 9.390625 
Q 21.875 6 27.15625 6 
Q 33.5 6 37.890625 10.78125 
Q 42.28125 15.578125 42.28125 23.484375 
Q 42.28125 31 38.0625 35.34375 
Q 33.84375 39.703125 27 39.703125 
Q 22.75 39.703125 19.328125 37.765625 
Q 15.921875 35.84375 13.96875 32.765625 
L 5.71875 33.84375 
L 12.640625 70.609375 
L 48.25 70.609375 
L 48.25 62.203125 
L 19.671875 62.203125 
L 15.828125 42.96875 
Q 22.265625 47.46875 29.34375 47.46875 
Q 38.71875 47.46875 45.15625 40.96875 
Q 51.609375 34.46875 51.609375 24.265625 
Q 51.609375 14.546875 45.953125 7.46875 
Q 39.0625 -1.21875 27.15625 -1.21875 
Q 17.390625 -1.21875 11.203125 4.25 
Q 5.03125 9.71875 4.15625 18.75 
z
" id="ArialMT-35"/>
    </defs>
    <g style="fill:#262626;" transform="translate(66.889375 19.44)scale(0.12 -0.12)">
     <use xlink:href="#ArialMT-4a"/>
     <use x="50" xlink:href="#ArialMT-61"/>
     <use x="105.615234" xlink:href="#ArialMT-67"/>
     <use x="161.230469" xlink:href="#ArialMT-75"/>
     <use x="216.845703" xlink:href="#ArialMT-61"/>
     <use x="272.460938" xlink:href="#ArialMT-72"/>
     <use x="305.761719" xlink:href="#ArialMT-2d"/>
     <use x="339.0625" xlink:href="#ArialMT-6d"/>
     <use x="422.363281" xlink:href="#ArialMT-61"/>
     <use x="477.978516" xlink:href="#ArialMT-63"/>
     <use x="527.978516" xlink:href="#ArialMT-72"/>
     <use x="561.279297" xlink:href="#ArialMT-6f"/>
     <use x="616.894531" xlink:href="#ArialMT-20"/>
     <use x="644.677734" xlink:href="#ArialMT-53"/>
     <use x="711.376953" xlink:href="#ArialMT-4d"/>
     <use x="794.677734" xlink:href="#ArialMT-30"/>
     <use x="850.292969" xlink:href="#ArialMT-35"/>
    </g>
   </g>
  </g>
 </g>
 <defs>
  <clipPath id="p18551a09ea">
   <rect height="150.52" width="164.56" x="38.96" y="25.44"/>
  </clipPath>
 </defs>
</svg>
