<?xml version="1.0" encoding="utf-8" standalone="no"?>
<!DOCTYPE svg PUBLIC "-//W3C//DTD SVG 1.1//EN"
  "http://www.w3.org/Graphics/SVG/1.1/DTD/svg11.dtd">
<!-- Created with matplotlib (http://matplotlib.org/) -->
<svg height="216pt" version="1.1" viewBox="0 0 216 216" width="216pt" xmlns="http://www.w3.org/2000/svg" xmlns:xlink="http://www.w3.org/1999/xlink">
 <defs>
  <style type="text/css">
*{stroke-linecap:butt;stroke-linejoin:round;}
  </style>
 </defs>
 <g id="figure_1">
  <g id="patch_1">
   <path d="M 0 216 
L 216 216 
L 216 0 
L 0 0 
z
" style="fill:#ffffff;"/>
  </g>
  <g id="axes_1">
   <g id="patch_2">
    <path d="M 44.78 175.96 
L 203.52 175.96 
L 203.52 25.44 
L 44.78 25.44 
z
" style="fill:#ffffff;"/>
   </g>
   <g id="matplotlib.axis_1">
    <g id="xtick_1">
     <g id="line2d_1">
      <defs>
       <path d="M 0 0 
L 0 3.5 
" id="mabc844b40d" style="stroke:#262626;stroke-width:0.8;"/>
      </defs>
      <g>
       <use style="fill:#262626;stroke:#262626;stroke-width:0.8;" x="51.995455" xlink:href="#mabc844b40d" y="175.96"/>
      </g>
     </g>
     <g id="text_1">
      <!-- 2 -->
      <defs>
       <path d="M 50.34375 8.453125 
L 50.34375 0 
L 3.03125 0 
Q 2.9375 3.171875 4.046875 6.109375 
Q 5.859375 10.9375 9.828125 15.625 
Q 13.8125 20.3125 21.34375 26.46875 
Q 33.015625 36.03125 37.109375 41.625 
Q 41.21875 47.21875 41.21875 52.203125 
Q 41.21875 57.421875 37.46875 61 
Q 33.734375 64.59375 27.734375 64.59375 
Q 21.390625 64.59375 17.578125 60.78125 
Q 13.765625 56.984375 13.71875 50.25 
L 4.6875 51.171875 
Q 5.609375 61.28125 11.65625 66.578125 
Q 17.71875 71.875 27.9375 71.875 
Q 38.234375 71.875 44.234375 66.15625 
Q 50.25 60.453125 50.25 52 
Q 50.25 47.703125 48.484375 43.546875 
Q 46.734375 39.40625 42.65625 34.8125 
Q 38.578125 30.21875 29.109375 22.21875 
Q 21.1875 15.578125 18.9375 13.203125 
Q 16.703125 10.84375 15.234375 8.453125 
z
" id="ArialMT-32"/>
      </defs>
      <g style="fill:#262626;" transform="translate(49.214986 190.117812)scale(0.1 -0.1)">
       <use xlink:href="#ArialMT-32"/>
      </g>
     </g>
    </g>
    <g id="xtick_2">
     <g id="line2d_2">
      <g>
       <use style="fill:#262626;stroke:#262626;stroke-width:0.8;" x="80.857273" xlink:href="#mabc844b40d" y="175.96"/>
      </g>
     </g>
     <g id="text_2">
      <!-- 4 -->
      <defs>
       <path d="M 32.328125 0 
L 32.328125 17.140625 
L 1.265625 17.140625 
L 1.265625 25.203125 
L 33.9375 71.578125 
L 41.109375 71.578125 
L 41.109375 25.203125 
L 50.78125 25.203125 
L 50.78125 17.140625 
L 41.109375 17.140625 
L 41.109375 0 
z
M 32.328125 25.203125 
L 32.328125 57.46875 
L 9.90625 25.203125 
z
" id="ArialMT-34"/>
      </defs>
      <g style="fill:#262626;" transform="translate(78.076804 190.117812)scale(0.1 -0.1)">
       <use xlink:href="#ArialMT-34"/>
      </g>
     </g>
    </g>
    <g id="xtick_3">
     <g id="line2d_3">
      <g>
       <use style="fill:#262626;stroke:#262626;stroke-width:0.8;" x="109.719091" xlink:href="#mabc844b40d" y="175.96"/>
      </g>
     </g>
     <g id="text_3">
      <!-- 6 -->
      <defs>
       <path d="M 49.75 54.046875 
L 41.015625 53.375 
Q 39.84375 58.546875 37.703125 60.890625 
Q 34.125 64.65625 28.90625 64.65625 
Q 24.703125 64.65625 21.53125 62.3125 
Q 17.390625 59.28125 14.984375 53.46875 
Q 12.59375 47.65625 12.5 36.921875 
Q 15.671875 41.75 20.265625 44.09375 
Q 24.859375 46.4375 29.890625 46.4375 
Q 38.671875 46.4375 44.84375 39.96875 
Q 51.03125 33.5 51.03125 23.25 
Q 51.03125 16.5 48.125 10.71875 
Q 45.21875 4.9375 40.140625 1.859375 
Q 35.0625 -1.21875 28.609375 -1.21875 
Q 17.625 -1.21875 10.6875 6.859375 
Q 3.765625 14.9375 3.765625 33.5 
Q 3.765625 54.25 11.421875 63.671875 
Q 18.109375 71.875 29.4375 71.875 
Q 37.890625 71.875 43.28125 67.140625 
Q 48.6875 62.40625 49.75 54.046875 
z
M 13.875 23.1875 
Q 13.875 18.65625 15.796875 14.5 
Q 17.71875 10.359375 21.1875 8.171875 
Q 24.65625 6 28.46875 6 
Q 34.03125 6 38.03125 10.484375 
Q 42.046875 14.984375 42.046875 22.703125 
Q 42.046875 30.125 38.078125 34.390625 
Q 34.125 38.671875 28.125 38.671875 
Q 22.171875 38.671875 18.015625 34.390625 
Q 13.875 30.125 13.875 23.1875 
z
" id="ArialMT-36"/>
      </defs>
      <g style="fill:#262626;" transform="translate(106.938622 190.117812)scale(0.1 -0.1)">
       <use xlink:href="#ArialMT-36"/>
      </g>
     </g>
    </g>
    <g id="xtick_4">
     <g id="line2d_4">
      <g>
       <use style="fill:#262626;stroke:#262626;stroke-width:0.8;" x="138.580909" xlink:href="#mabc844b40d" y="175.96"/>
      </g>
     </g>
     <g id="text_4">
      <!-- 8 -->
      <defs>
       <path d="M 17.671875 38.8125 
Q 12.203125 40.828125 9.5625 44.53125 
Q 6.9375 48.25 6.9375 53.421875 
Q 6.9375 61.234375 12.546875 66.546875 
Q 18.171875 71.875 27.484375 71.875 
Q 36.859375 71.875 42.578125 66.421875 
Q 48.296875 60.984375 48.296875 53.171875 
Q 48.296875 48.1875 45.671875 44.5 
Q 43.0625 40.828125 37.75 38.8125 
Q 44.34375 36.671875 47.78125 31.875 
Q 51.21875 27.09375 51.21875 20.453125 
Q 51.21875 11.28125 44.71875 5.03125 
Q 38.234375 -1.21875 27.640625 -1.21875 
Q 17.046875 -1.21875 10.546875 5.046875 
Q 4.046875 11.328125 4.046875 20.703125 
Q 4.046875 27.6875 7.59375 32.390625 
Q 11.140625 37.109375 17.671875 38.8125 
z
M 15.921875 53.71875 
Q 15.921875 48.640625 19.1875 45.40625 
Q 22.46875 42.1875 27.6875 42.1875 
Q 32.765625 42.1875 36.015625 45.375 
Q 39.265625 48.578125 39.265625 53.21875 
Q 39.265625 58.0625 35.90625 61.359375 
Q 32.5625 64.65625 27.59375 64.65625 
Q 22.5625 64.65625 19.234375 61.421875 
Q 15.921875 58.203125 15.921875 53.71875 
z
M 13.09375 20.65625 
Q 13.09375 16.890625 14.875 13.375 
Q 16.65625 9.859375 20.171875 7.921875 
Q 23.6875 6 27.734375 6 
Q 34.03125 6 38.125 10.046875 
Q 42.234375 14.109375 42.234375 20.359375 
Q 42.234375 26.703125 38.015625 30.859375 
Q 33.796875 35.015625 27.4375 35.015625 
Q 21.234375 35.015625 17.15625 30.90625 
Q 13.09375 26.8125 13.09375 20.65625 
z
" id="ArialMT-38"/>
      </defs>
      <g style="fill:#262626;" transform="translate(135.80044 190.117812)scale(0.1 -0.1)">
       <use xlink:href="#ArialMT-38"/>
      </g>
     </g>
    </g>
    <g id="xtick_5">
     <g id="line2d_5">
      <g>
       <use style="fill:#262626;stroke:#262626;stroke-width:0.8;" x="167.442727" xlink:href="#mabc844b40d" y="175.96"/>
      </g>
     </g>
     <g id="text_5">
      <!-- 10 -->
      <defs>
       <path d="M 37.25 0 
L 28.46875 0 
L 28.46875 56 
Q 25.296875 52.984375 20.140625 49.953125 
Q 14.984375 46.921875 10.890625 45.40625 
L 10.890625 53.90625 
Q 18.265625 57.375 23.78125 62.296875 
Q 29.296875 67.234375 31.59375 71.875 
L 37.25 71.875 
z
" id="ArialMT-31"/>
       <path d="M 4.15625 35.296875 
Q 4.15625 48 6.765625 55.734375 
Q 9.375 63.484375 14.515625 67.671875 
Q 19.671875 71.875 27.484375 71.875 
Q 33.25 71.875 37.59375 69.546875 
Q 41.9375 67.234375 44.765625 62.859375 
Q 47.609375 58.5 49.21875 52.21875 
Q 50.828125 45.953125 50.828125 35.296875 
Q 50.828125 22.703125 48.234375 14.96875 
Q 45.65625 7.234375 40.5 3 
Q 35.359375 -1.21875 27.484375 -1.21875 
Q 17.140625 -1.21875 11.234375 6.203125 
Q 4.15625 15.140625 4.15625 35.296875 
z
M 13.1875 35.296875 
Q 13.1875 17.671875 17.3125 11.828125 
Q 21.4375 6 27.484375 6 
Q 33.546875 6 37.671875 11.859375 
Q 41.796875 17.71875 41.796875 35.296875 
Q 41.796875 52.984375 37.671875 58.78125 
Q 33.546875 64.59375 27.390625 64.59375 
Q 21.34375 64.59375 17.71875 59.46875 
Q 13.1875 52.9375 13.1875 35.296875 
z
" id="ArialMT-30"/>
      </defs>
      <g style="fill:#262626;" transform="translate(161.88179 190.117812)scale(0.1 -0.1)">
       <use xlink:href="#ArialMT-31"/>
       <use x="55.615234" xlink:href="#ArialMT-30"/>
      </g>
     </g>
    </g>
    <g id="xtick_6">
     <g id="line2d_6">
      <g>
       <use style="fill:#262626;stroke:#262626;stroke-width:0.8;" x="196.304545" xlink:href="#mabc844b40d" y="175.96"/>
      </g>
     </g>
     <g id="text_6">
      <!-- 12 -->
      <g style="fill:#262626;" transform="translate(190.743608 190.117812)scale(0.1 -0.1)">
       <use xlink:href="#ArialMT-31"/>
       <use x="55.615234" xlink:href="#ArialMT-32"/>
      </g>
     </g>
    </g>
    <g id="text_7">
     <!-- pH -->
     <defs>
      <path d="M 6.59375 -19.875 
L 6.59375 51.859375 
L 14.59375 51.859375 
L 14.59375 45.125 
Q 17.4375 49.078125 21 51.046875 
Q 24.5625 53.03125 29.640625 53.03125 
Q 36.28125 53.03125 41.359375 49.609375 
Q 46.4375 46.1875 49.015625 39.953125 
Q 51.609375 33.734375 51.609375 26.3125 
Q 51.609375 18.359375 48.75 11.984375 
Q 45.90625 5.609375 40.453125 2.21875 
Q 35.015625 -1.171875 29 -1.171875 
Q 24.609375 -1.171875 21.109375 0.6875 
Q 17.625 2.546875 15.375 5.375 
L 15.375 -19.875 
z
M 14.546875 25.640625 
Q 14.546875 15.625 18.59375 10.84375 
Q 22.65625 6.0625 28.421875 6.0625 
Q 34.28125 6.0625 38.453125 11.015625 
Q 42.625 15.96875 42.625 26.375 
Q 42.625 36.28125 38.546875 41.203125 
Q 34.46875 46.140625 28.8125 46.140625 
Q 23.1875 46.140625 18.859375 40.890625 
Q 14.546875 35.640625 14.546875 25.640625 
z
" id="ArialMT-70"/>
      <path d="M 8.015625 0 
L 8.015625 71.578125 
L 17.484375 71.578125 
L 17.484375 42.1875 
L 54.6875 42.1875 
L 54.6875 71.578125 
L 64.15625 71.578125 
L 64.15625 0 
L 54.6875 0 
L 54.6875 33.734375 
L 17.484375 33.734375 
L 17.484375 0 
z
" id="ArialMT-48"/>
     </defs>
     <g style="fill:#262626;" transform="translate(117.758594 203.263125)scale(0.1 -0.1)">
      <use xlink:href="#ArialMT-70"/>
      <use x="55.615234" xlink:href="#ArialMT-48"/>
     </g>
    </g>
   </g>
   <g id="matplotlib.axis_2">
    <g id="ytick_1">
     <g id="line2d_7">
      <defs>
       <path d="M 0 0 
L -3.5 0 
" id="m885ea72f02" style="stroke:#262626;stroke-width:0.8;"/>
      </defs>
      <g>
       <use style="fill:#262626;stroke:#262626;stroke-width:0.8;" x="44.78" xlink:href="#m885ea72f02" y="134.190343"/>
      </g>
     </g>
     <g id="text_8">
      <!-- −1 -->
      <defs>
       <path d="M 52.828125 31.203125 
L 5.5625 31.203125 
L 5.5625 39.40625 
L 52.828125 39.40625 
z
" id="ArialMT-2212"/>
      </defs>
      <g style="fill:#262626;" transform="translate(26.378438 137.769249)scale(0.1 -0.1)">
       <use xlink:href="#ArialMT-2212"/>
       <use x="58.398438" xlink:href="#ArialMT-31"/>
      </g>
     </g>
    </g>
    <g id="ytick_2">
     <g id="line2d_8">
      <g>
       <use style="fill:#262626;stroke:#262626;stroke-width:0.8;" x="44.78" xlink:href="#m885ea72f02" y="81.012034"/>
      </g>
     </g>
     <g id="text_9">
      <!-- 0 -->
      <g style="fill:#262626;" transform="translate(32.219063 84.59094)scale(0.1 -0.1)">
       <use xlink:href="#ArialMT-30"/>
      </g>
     </g>
    </g>
    <g id="ytick_3">
     <g id="line2d_9">
      <g>
       <use style="fill:#262626;stroke:#262626;stroke-width:0.8;" x="44.78" xlink:href="#m885ea72f02" y="27.833724"/>
      </g>
     </g>
     <g id="text_10">
      <!-- 1 -->
      <g style="fill:#262626;" transform="translate(32.219063 31.41263)scale(0.1 -0.1)">
       <use xlink:href="#ArialMT-31"/>
      </g>
     </g>
    </g>
    <g id="text_11">
     <!-- $\langle q_\mathsf{total} \rangle$ -->
     <defs>
      <path d="M 8.9375 31.34375 
L 22.703125 75.875 
L 31 75.875 
L 17.234375 31.34375 
L 31 -13.1875 
L 22.703125 -13.1875 
z
" id="DejaVuSans-27e8"/>
      <path d="M 41.703125 8.203125 
Q 38.09375 3.46875 33.171875 1.015625 
Q 28.265625 -1.421875 22.3125 -1.421875 
Q 14.015625 -1.421875 9.296875 4.171875 
Q 4.59375 9.765625 4.59375 19.578125 
Q 4.59375 27.484375 7.5 34.859375 
Q 10.40625 42.234375 15.828125 48.09375 
Q 19.34375 51.90625 23.90625 53.953125 
Q 28.46875 56 33.5 56 
Q 39.546875 56 43.453125 53.609375 
Q 47.359375 51.21875 49.125 46.390625 
L 50.6875 54.59375 
L 59.71875 54.59375 
L 45.125 -20.609375 
L 36.078125 -20.609375 
z
M 13.921875 20.90625 
Q 13.921875 13.671875 16.9375 9.890625 
Q 19.96875 6.109375 25.6875 6.109375 
Q 34.1875 6.109375 40.1875 14.234375 
Q 46.1875 22.359375 46.1875 33.984375 
Q 46.1875 41.015625 43.078125 44.75 
Q 39.984375 48.484375 34.1875 48.484375 
Q 29.9375 48.484375 26.3125 46.5 
Q 22.703125 44.53125 20.015625 40.71875 
Q 17.1875 36.71875 15.546875 31.34375 
Q 13.921875 25.984375 13.921875 20.90625 
z
" id="DejaVuSans-Oblique-71"/>
      <path d="M 18.3125 70.21875 
L 18.3125 54.6875 
L 36.8125 54.6875 
L 36.8125 47.703125 
L 18.3125 47.703125 
L 18.3125 18.015625 
Q 18.3125 11.328125 20.140625 9.421875 
Q 21.96875 7.515625 27.59375 7.515625 
L 36.8125 7.515625 
L 36.8125 0 
L 27.59375 0 
Q 17.1875 0 13.234375 3.875 
Q 9.28125 7.765625 9.28125 18.015625 
L 9.28125 47.703125 
L 2.6875 47.703125 
L 2.6875 54.6875 
L 9.28125 54.6875 
L 9.28125 70.21875 
z
" id="DejaVuSans-74"/>
      <path d="M 30.609375 48.390625 
Q 23.390625 48.390625 19.1875 42.75 
Q 14.984375 37.109375 14.984375 27.296875 
Q 14.984375 17.484375 19.15625 11.84375 
Q 23.34375 6.203125 30.609375 6.203125 
Q 37.796875 6.203125 41.984375 11.859375 
Q 46.1875 17.53125 46.1875 27.296875 
Q 46.1875 37.015625 41.984375 42.703125 
Q 37.796875 48.390625 30.609375 48.390625 
z
M 30.609375 56 
Q 42.328125 56 49.015625 48.375 
Q 55.71875 40.765625 55.71875 27.296875 
Q 55.71875 13.875 49.015625 6.21875 
Q 42.328125 -1.421875 30.609375 -1.421875 
Q 18.84375 -1.421875 12.171875 6.21875 
Q 5.515625 13.875 5.515625 27.296875 
Q 5.515625 40.765625 12.171875 48.375 
Q 18.84375 56 30.609375 56 
z
" id="DejaVuSans-6f"/>
      <path d="M 34.28125 27.484375 
Q 23.390625 27.484375 19.1875 25 
Q 14.984375 22.515625 14.984375 16.5 
Q 14.984375 11.71875 18.140625 8.90625 
Q 21.296875 6.109375 26.703125 6.109375 
Q 34.1875 6.109375 38.703125 11.40625 
Q 43.21875 16.703125 43.21875 25.484375 
L 43.21875 27.484375 
z
M 52.203125 31.203125 
L 52.203125 0 
L 43.21875 0 
L 43.21875 8.296875 
Q 40.140625 3.328125 35.546875 0.953125 
Q 30.953125 -1.421875 24.3125 -1.421875 
Q 15.921875 -1.421875 10.953125 3.296875 
Q 6 8.015625 6 15.921875 
Q 6 25.140625 12.171875 29.828125 
Q 18.359375 34.515625 30.609375 34.515625 
L 43.21875 34.515625 
L 43.21875 35.40625 
Q 43.21875 41.609375 39.140625 45 
Q 35.0625 48.390625 27.6875 48.390625 
Q 23 48.390625 18.546875 47.265625 
Q 14.109375 46.140625 10.015625 43.890625 
L 10.015625 52.203125 
Q 14.9375 54.109375 19.578125 55.046875 
Q 24.21875 56 28.609375 56 
Q 40.484375 56 46.34375 49.84375 
Q 52.203125 43.703125 52.203125 31.203125 
z
" id="DejaVuSans-61"/>
      <path d="M 9.421875 75.984375 
L 18.40625 75.984375 
L 18.40625 0 
L 9.421875 0 
z
" id="DejaVuSans-6c"/>
      <path d="M 30.078125 31.34375 
L 16.3125 -13.1875 
L 8.015625 -13.1875 
L 21.78125 31.34375 
L 8.015625 75.875 
L 16.3125 75.875 
z
" id="DejaVuSans-27e9"/>
     </defs>
     <g style="fill:#262626;" transform="translate(20.278438 115.95)rotate(-90)scale(0.1 -0.1)">
      <use transform="translate(0 0.125)" xlink:href="#DejaVuSans-27e8"/>
      <use transform="translate(39.013672 0.125)" xlink:href="#DejaVuSans-Oblique-71"/>
      <use transform="translate(102.490234 -16.28125)scale(0.7)" xlink:href="#DejaVuSans-74"/>
      <use transform="translate(129.936523 -16.28125)scale(0.7)" xlink:href="#DejaVuSans-6f"/>
      <use transform="translate(172.763672 -16.28125)scale(0.7)" xlink:href="#DejaVuSans-74"/>
      <use transform="translate(200.209961 -16.28125)scale(0.7)" xlink:href="#DejaVuSans-61"/>
      <use transform="translate(243.105469 -16.28125)scale(0.7)" xlink:href="#DejaVuSans-6c"/>
      <use transform="translate(265.288086 0.125)" xlink:href="#DejaVuSans-27e9"/>
     </g>
    </g>
   </g>
   <g id="PolyCollection_1">
    <defs>
     <path d="M 51.995455 -183.718182 
L 51.995455 -94.939378 
L 53.438545 -94.942076 
L 54.881636 -95.119543 
L 56.324727 -95.436449 
L 57.767818 -95.860474 
L 59.210909 -96.362866 
L 60.654 -96.918635 
L 62.097091 -97.506493 
L 63.540182 -98.108646 
L 64.983273 -98.710498 
L 66.426364 -99.300337 
L 67.869455 -99.869029 
L 69.312545 -100.409748 
L 70.755636 -100.917736 
L 72.198727 -101.390089 
L 73.641818 -101.82557 
L 75.084909 -102.22443 
L 76.528 -102.588238 
L 77.971091 -102.919696 
L 79.414182 -103.222456 
L 80.857273 -103.500919 
L 82.300364 -103.760032 
L 83.743455 -104.00509 
L 85.186545 -104.241566 
L 86.629636 -104.474984 
L 88.072727 -104.710832 
L 89.515818 -104.954531 
L 90.958909 -105.211436 
L 92.402 -105.486867 
L 93.845091 -105.786154 
L 95.288182 -106.114676 
L 96.731273 -106.477888 
L 98.174364 -106.881313 
L 99.617455 -107.330485 
L 101.060545 -107.830827 
L 102.503636 -108.387468 
L 103.946727 -109.004987 
L 105.389818 -109.687084 
L 106.832909 -110.436135 
L 108.276 -111.25257 
L 109.719091 -112.13396 
L 111.162182 -113.073719 
L 112.605273 -114.059297 
L 114.048364 -115.069851 
L 115.491455 -116.073458 
L 116.934545 -117.024268 
L 118.377636 -117.860487 
L 119.820727 -118.505075 
L 121.263818 -118.871909 
L 122.706909 -118.879522 
L 124.15 -118.470018 
L 125.593091 -117.624132 
L 127.036182 -116.362602 
L 128.479273 -114.733404 
L 129.922364 -112.793965 
L 131.365455 -110.597232 
L 132.808545 -108.18448 
L 134.251636 -105.583453 
L 135.694727 -102.809639 
L 137.137818 -99.869166 
L 138.580909 -96.762615 
L 140.024 -93.489443 
L 141.467091 -90.052817 
L 142.910182 -86.464478 
L 144.353273 -82.749007 
L 145.796364 -78.946603 
L 147.239455 -75.113471 
L 148.682545 -71.319188 
L 150.125636 -67.641133 
L 151.568727 -64.156882 
L 153.011818 -60.936158 
L 154.454909 -58.034064 
L 155.898 -55.486903 
L 157.341091 -53.311049 
L 158.784182 -51.504511 
L 160.227273 -50.050318 
L 161.670364 -48.920701 
L 163.113455 -48.081247 
L 164.556545 -47.494482 
L 165.999636 -47.12263 
L 167.442727 -46.929533 
L 168.885818 -46.881818 
L 170.328909 -46.949477 
L 171.772 -47.106024 
L 173.215091 -47.328389 
L 174.658182 -47.596694 
L 176.101273 -47.893992 
L 177.544364 -48.20605 
L 178.987455 -48.521173 
L 180.430545 -48.830046 
L 181.873636 -49.125587 
L 183.316727 -49.402744 
L 184.759818 -49.658257 
L 186.202909 -49.890374 
L 187.646 -50.098543 
L 189.089091 -50.283106 
L 190.532182 -50.445027 
L 191.975273 -50.585657 
L 193.418364 -50.706561 
L 194.861455 -50.809401 
L 196.304545 -50.895861 
L 196.304545 -112.779244 
L 196.304545 -112.779244 
L 194.861455 -112.880496 
L 193.418364 -113.001878 
L 191.975273 -113.14606 
L 190.532182 -113.315933 
L 189.089091 -113.51461 
L 187.646 -113.745381 
L 186.202909 -114.011642 
L 184.759818 -114.316784 
L 183.316727 -114.664073 
L 181.873636 -115.05653 
L 180.430545 -115.496861 
L 178.987455 -115.987445 
L 177.544364 -116.530434 
L 176.101273 -117.127959 
L 174.658182 -117.78244 
L 173.215091 -118.496966 
L 171.772 -119.275705 
L 170.328909 -120.124286 
L 168.885818 -121.050127 
L 167.442727 -122.062655 
L 165.999636 -123.173402 
L 164.556545 -124.395883 
L 163.113455 -125.745176 
L 161.670364 -127.237034 
L 160.227273 -128.886374 
L 158.784182 -130.705007 
L 157.341091 -132.698607 
L 155.898 -134.863109 
L 154.454909 -137.181077 
L 153.011818 -139.618849 
L 151.568727 -142.125455 
L 150.125636 -144.634177 
L 148.682545 -147.067079 
L 147.239455 -149.342046 
L 145.796364 -151.381056 
L 144.353273 -153.117999 
L 142.910182 -154.504483 
L 141.467091 -155.512801 
L 140.024 -156.136057 
L 138.580909 -156.386191 
L 137.137818 -156.290939 
L 135.694727 -155.890748 
L 134.251636 -155.236356 
L 132.808545 -154.387397 
L 131.365455 -153.41203 
L 129.922364 -152.387162 
L 128.479273 -151.398251 
L 127.036182 -150.536864 
L 125.593091 -149.893478 
L 124.15 -149.543907 
L 122.706909 -149.53204 
L 121.263818 -149.857684 
L 119.820727 -150.478533 
L 118.377636 -151.325785 
L 116.934545 -152.323566 
L 115.491455 -153.403089 
L 114.048364 -154.509197 
L 112.605273 -155.601356 
L 111.162182 -156.651902 
L 109.719091 -157.643395 
L 108.276 -158.566005 
L 106.832909 -159.415318 
L 105.389818 -160.190643 
L 103.946727 -160.8938 
L 102.503636 -161.528279 
L 101.060545 -162.09868 
L 99.617455 -162.610315 
L 98.174364 -163.068912 
L 96.731273 -163.480394 
L 95.288182 -163.850724 
L 93.845091 -164.185802 
L 92.402 -164.491435 
L 90.958909 -164.773337 
L 89.515818 -165.037184 
L 88.072727 -165.288665 
L 86.629636 -165.533549 
L 85.186545 -165.777736 
L 83.743455 -166.027288 
L 82.300364 -166.288421 
L 80.857273 -166.567464 
L 79.414182 -166.870766 
L 77.971091 -167.20459 
L 76.528 -167.574977 
L 75.084909 -167.987634 
L 73.641818 -168.447833 
L 72.198727 -168.960357 
L 70.755636 -169.529484 
L 69.312545 -170.159004 
L 67.869455 -170.85229 
L 66.426364 -171.612398 
L 64.983273 -172.442206 
L 63.540182 -173.344595 
L 62.097091 -174.322653 
L 60.654 -175.379922 
L 59.210909 -176.520672 
L 57.767818 -177.750217 
L 56.324727 -179.07526 
L 54.881636 -180.504244 
L 53.438545 -182.047662 
L 51.995455 -183.718182 
z
" id="m8d5cd062b1" style="stroke:#ffffff;stroke-opacity:0.05;"/>
    </defs>
    <g clip-path="url(#pbefc25aab0)">
     <use style="fill:#591e71;fill-opacity:0.05;stroke:#ffffff;stroke-opacity:0.05;" x="0" xlink:href="#m8d5cd062b1" y="216"/>
    </g>
   </g>
   <g id="line2d_10">
    <path clip-path="url(#pbefc25aab0)" d="M 51.995455 76.67122 
L 53.438545 77.505131 
L 54.881636 78.188106 
L 56.324727 78.744146 
L 57.767818 79.194654 
L 59.210909 79.558231 
L 60.654 79.850722 
L 62.097091 80.085427 
L 63.540182 80.27338 
L 64.983273 80.423648 
L 66.426364 80.543633 
L 67.869455 80.63934 
L 69.312545 80.715624 
L 70.755636 80.77639 
L 72.198727 80.824777 
L 73.641818 80.863299 
L 75.084909 80.893968 
L 76.528 80.918392 
L 77.971091 80.937857 
L 79.414182 80.953389 
L 80.857273 80.965808 
L 82.300364 80.975773 
L 83.743455 80.983811 
L 85.186545 80.990349 
L 86.629636 80.995734 
L 88.072727 81.000251 
L 89.515818 81.004142 
L 90.958909 81.007613 
L 92.402 81.010849 
L 93.845091 81.014022 
L 95.288182 81.0173 
L 96.731273 81.020859 
L 98.174364 81.024888 
L 99.617455 81.0296 
L 101.060545 81.035246 
L 102.503636 81.042127 
L 103.946727 81.050607 
L 105.389818 81.061137 
L 106.832909 81.074273 
L 108.276 81.090712 
L 109.719091 81.111322 
L 111.162182 81.137189 
L 112.605273 81.169673 
L 114.048364 81.210476 
L 115.491455 81.261726 
L 116.934545 81.326083 
L 118.377636 81.406864 
L 119.820727 81.508196 
L 121.263818 81.635204 
L 122.706909 81.794219 
L 124.15 81.993038 
L 125.593091 82.241195 
L 127.036182 82.550267 
L 128.479273 82.934172 
L 129.922364 83.409436 
L 131.365455 83.995369 
L 132.808545 84.714062 
L 134.251636 85.590095 
L 135.694727 86.649807 
L 137.137818 87.919948 
L 138.580909 89.425597 
L 140.024 91.18725 
L 141.467091 93.217191 
L 142.910182 95.515519 
L 144.353273 98.066497 
L 145.796364 100.83617 
L 147.239455 103.772241 
L 148.682545 106.806866 
L 150.125636 109.862345 
L 151.568727 112.858831 
L 153.011818 115.722496 
L 154.454909 118.392429 
L 155.898 120.824994 
L 157.341091 122.995172 
L 158.784182 124.895241 
L 160.227273 126.531654 
L 161.670364 127.921133 
L 163.113455 129.086788 
L 164.556545 130.054818 
L 165.999636 130.851984 
L 167.442727 131.503906 
L 168.885818 132.034028 
L 170.328909 132.463118 
L 171.772 132.809136 
L 173.215091 133.087322 
L 174.658182 133.310433 
L 176.101273 133.489025 
L 177.544364 133.631758 
L 178.987455 133.745691 
L 180.430545 133.836546 
L 181.873636 133.908941 
L 183.316727 133.966592 
L 184.759818 134.01248 
L 186.202909 134.048992 
L 187.646 134.078038 
L 189.089091 134.101142 
L 190.532182 134.11952 
L 191.975273 134.134142 
L 193.418364 134.14578 
L 194.861455 134.155052 
L 196.304545 134.162448 
" style="fill:none;opacity:0.9;stroke:#591e71;stroke-linecap:round;stroke-width:1.5;"/>
   </g>
   <g id="line2d_11">
    <path clip-path="url(#pbefc25aab0)" d="M 51.995455 81.012035 
L 53.438545 81.012035 
L 54.881636 81.012036 
L 56.324727 81.012036 
L 57.767818 81.012037 
L 59.210909 81.012038 
L 60.654 81.012039 
L 62.097091 81.012041 
L 63.540182 81.012043 
L 64.983273 81.012045 
L 66.426364 81.012048 
L 67.869455 81.012052 
L 69.312545 81.012057 
L 70.755636 81.012063 
L 72.198727 81.01207 
L 73.641818 81.01208 
L 75.084909 81.012092 
L 76.528 81.012107 
L 77.971091 81.012126 
L 79.414182 81.01215 
L 80.857273 81.01218 
L 82.300364 81.012218 
L 83.743455 81.012266 
L 85.186545 81.012326 
L 86.629636 81.012401 
L 88.072727 81.012497 
L 89.515818 81.012617 
L 90.958909 81.012768 
L 92.402 81.012958 
L 93.845091 81.013197 
L 95.288182 81.013498 
L 96.731273 81.013877 
L 98.174364 81.014355 
L 99.617455 81.014956 
L 101.060545 81.015712 
L 102.503636 81.016665 
L 103.946727 81.017864 
L 105.389818 81.019373 
L 106.832909 81.021273 
L 108.276 81.023665 
L 109.719091 81.026676 
L 111.162182 81.030466 
L 112.605273 81.035237 
L 114.048364 81.041241 
L 115.491455 81.048799 
L 116.934545 81.05831 
L 118.377636 81.070279 
L 119.820727 81.085339 
L 121.263818 81.104287 
L 122.706909 81.128121 
L 124.15 81.158096 
L 125.593091 81.195785 
L 127.036182 81.243156 
L 128.479273 81.302673 
L 129.922364 81.37741 
L 131.365455 81.471198 
L 132.808545 81.588798 
L 134.251636 81.736104 
L 135.694727 81.920381 
L 137.137818 82.15054 
L 138.580909 82.437427 
L 140.024 82.79413 
L 141.467091 83.23626 
L 142.910182 83.782169 
L 144.353273 84.453016 
L 145.796364 85.272592 
L 147.239455 86.266751 
L 148.682545 87.462299 
L 150.125636 88.88517 
L 151.568727 90.557795 
L 153.011818 92.495694 
L 154.454909 94.703557 
L 155.898 97.171392 
L 157.341091 99.871591 
L 158.784182 102.757942 
L 160.227273 105.76739 
L 161.670364 108.824799 
L 163.113455 111.850122 
L 164.556545 114.766611 
L 165.999636 117.508321 
L 167.442727 120.025434 
L 168.885818 122.286622 
L 170.328909 124.278555 
L 171.772 126.003282 
L 173.215091 127.474477 
L 174.658182 128.713484 
L 176.101273 129.745773 
L 177.544364 130.598147 
L 178.987455 131.296759 
L 180.430545 131.865874 
L 181.873636 132.327202 
L 183.316727 132.699656 
L 184.759818 132.999382 
L 186.202909 133.239951 
L 187.646 133.432635 
L 189.089091 133.586705 
L 190.532182 133.709734 
L 191.975273 133.807871 
L 193.418364 133.886085 
L 194.861455 133.948377 
L 196.304545 133.997963 
" style="fill:none;opacity:0.7;stroke:#000000;stroke-linecap:round;stroke-width:1.5;"/>
   </g>
   <g id="line2d_12">
    <path clip-path="url(#pbefc25aab0)" d="M 51.995455 32.281818 
L 53.438545 33.952338 
L 54.881636 35.495756 
L 56.324727 36.92474 
L 57.767818 38.249783 
L 59.210909 39.479328 
L 60.654 40.620078 
L 62.097091 41.677347 
L 63.540182 42.655405 
L 64.983273 43.557794 
L 66.426364 44.387602 
L 67.869455 45.14771 
L 69.312545 45.840996 
L 70.755636 46.470516 
L 72.198727 47.039643 
L 73.641818 47.552167 
L 75.084909 48.012366 
L 76.528 48.425023 
L 77.971091 48.79541 
L 79.414182 49.129234 
L 80.857273 49.432536 
L 82.300364 49.711579 
L 83.743455 49.972712 
L 85.186545 50.222264 
L 86.629636 50.466451 
L 88.072727 50.711335 
L 89.515818 50.962816 
L 90.958909 51.226663 
L 92.402 51.508565 
L 93.845091 51.814198 
L 95.288182 52.149276 
L 96.731273 52.519606 
L 98.174364 52.931088 
L 99.617455 53.389685 
L 101.060545 53.90132 
L 102.503636 54.471721 
L 103.946727 55.1062 
L 105.389818 55.809357 
L 106.832909 56.584682 
L 108.276 57.433995 
L 109.719091 58.356605 
L 111.162182 59.348098 
L 112.605273 60.398644 
L 114.048364 61.490803 
L 115.491455 62.596911 
L 116.934545 63.676434 
L 118.377636 64.674215 
L 119.820727 65.521467 
L 121.263818 66.142316 
L 122.706909 66.46796 
L 124.15 66.456093 
L 125.593091 66.106522 
L 127.036182 65.463136 
L 128.479273 64.601749 
L 129.922364 63.612838 
L 131.365455 62.58797 
L 132.808545 61.612603 
L 134.251636 60.763644 
L 135.694727 60.109252 
L 137.137818 59.709061 
L 138.580909 59.613809 
L 140.024 59.863943 
L 141.467091 60.487199 
L 142.910182 61.495517 
L 144.353273 62.882001 
L 145.796364 64.618944 
L 147.239455 66.657954 
L 148.682545 68.932921 
L 150.125636 71.365823 
L 151.568727 73.874545 
L 153.011818 76.381151 
L 154.454909 78.818923 
L 155.898 81.136891 
L 157.341091 83.301393 
L 158.784182 85.294993 
L 160.227273 87.113626 
L 161.670364 88.762966 
L 163.113455 90.254824 
L 164.556545 91.604117 
L 165.999636 92.826598 
L 167.442727 93.937345 
L 168.885818 94.949873 
L 170.328909 95.875714 
L 171.772 96.724295 
L 173.215091 97.503034 
L 174.658182 98.21756 
L 176.101273 98.872041 
L 177.544364 99.469566 
L 178.987455 100.012555 
L 180.430545 100.503139 
L 181.873636 100.94347 
L 183.316727 101.335927 
L 184.759818 101.683216 
L 186.202909 101.988358 
L 187.646 102.254619 
L 189.089091 102.48539 
L 190.532182 102.684067 
L 191.975273 102.85394 
L 193.418364 102.998122 
L 194.861455 103.119504 
L 196.304545 103.220756 
" style="fill:none;opacity:0.45;stroke:#591e71;stroke-dasharray:2.775,1.2;stroke-dashoffset:0;stroke-width:0.75;"/>
   </g>
   <g id="line2d_13">
    <path clip-path="url(#pbefc25aab0)" d="M 51.995455 121.060622 
L 53.438545 121.057924 
L 54.881636 120.880457 
L 56.324727 120.563551 
L 57.767818 120.139526 
L 59.210909 119.637134 
L 60.654 119.081365 
L 62.097091 118.493507 
L 63.540182 117.891354 
L 64.983273 117.289502 
L 66.426364 116.699663 
L 67.869455 116.130971 
L 69.312545 115.590252 
L 70.755636 115.082264 
L 72.198727 114.609911 
L 73.641818 114.17443 
L 75.084909 113.77557 
L 76.528 113.411762 
L 77.971091 113.080304 
L 79.414182 112.777544 
L 80.857273 112.499081 
L 82.300364 112.239968 
L 83.743455 111.99491 
L 85.186545 111.758434 
L 86.629636 111.525016 
L 88.072727 111.289168 
L 89.515818 111.045469 
L 90.958909 110.788564 
L 92.402 110.513133 
L 93.845091 110.213846 
L 95.288182 109.885324 
L 96.731273 109.522112 
L 98.174364 109.118687 
L 99.617455 108.669515 
L 101.060545 108.169173 
L 102.503636 107.612532 
L 103.946727 106.995013 
L 105.389818 106.312916 
L 106.832909 105.563865 
L 108.276 104.74743 
L 109.719091 103.86604 
L 111.162182 102.926281 
L 112.605273 101.940703 
L 114.048364 100.930149 
L 115.491455 99.926542 
L 116.934545 98.975732 
L 118.377636 98.139513 
L 119.820727 97.494925 
L 121.263818 97.128091 
L 122.706909 97.120478 
L 124.15 97.529982 
L 125.593091 98.375868 
L 127.036182 99.637398 
L 128.479273 101.266596 
L 129.922364 103.206035 
L 131.365455 105.402768 
L 132.808545 107.81552 
L 134.251636 110.416547 
L 135.694727 113.190361 
L 137.137818 116.130834 
L 138.580909 119.237385 
L 140.024 122.510557 
L 141.467091 125.947183 
L 142.910182 129.535522 
L 144.353273 133.250993 
L 145.796364 137.053397 
L 147.239455 140.886529 
L 148.682545 144.680812 
L 150.125636 148.358867 
L 151.568727 151.843118 
L 153.011818 155.063842 
L 154.454909 157.965936 
L 155.898 160.513097 
L 157.341091 162.688951 
L 158.784182 164.495489 
L 160.227273 165.949682 
L 161.670364 167.079299 
L 163.113455 167.918753 
L 164.556545 168.505518 
L 165.999636 168.87737 
L 167.442727 169.070467 
L 168.885818 169.118182 
L 170.328909 169.050523 
L 171.772 168.893976 
L 173.215091 168.671611 
L 174.658182 168.403306 
L 176.101273 168.106008 
L 177.544364 167.79395 
L 178.987455 167.478827 
L 180.430545 167.169954 
L 181.873636 166.874413 
L 183.316727 166.597256 
L 184.759818 166.341743 
L 186.202909 166.109626 
L 187.646 165.901457 
L 189.089091 165.716894 
L 190.532182 165.554973 
L 191.975273 165.414343 
L 193.418364 165.293439 
L 194.861455 165.190599 
L 196.304545 165.104139 
" style="fill:none;opacity:0.45;stroke:#591e71;stroke-dasharray:2.775,1.2;stroke-dashoffset:0;stroke-width:0.75;"/>
   </g>
   <g id="patch_3">
    <path d="M 44.78 175.96 
L 44.78 25.44 
" style="fill:none;stroke:#262626;stroke-linecap:square;stroke-linejoin:miter;stroke-width:0.8;"/>
   </g>
   <g id="patch_4">
    <path d="M 44.78 175.96 
L 203.52 175.96 
" style="fill:none;stroke:#262626;stroke-linecap:square;stroke-linejoin:miter;stroke-width:0.8;"/>
   </g>
   <g id="text_12">
    <!-- Jaguar-macro SM19 -->
    <defs>
     <path d="M 2.875 20.3125 
L 11.421875 21.484375 
Q 11.765625 13.28125 14.5 10.25 
Q 17.234375 7.234375 22.078125 7.234375 
Q 25.640625 7.234375 28.21875 8.859375 
Q 30.8125 10.5 31.78125 13.296875 
Q 32.765625 16.109375 32.765625 22.265625 
L 32.765625 71.578125 
L 42.234375 71.578125 
L 42.234375 22.796875 
Q 42.234375 13.8125 40.0625 8.875 
Q 37.890625 3.953125 33.171875 1.359375 
Q 28.46875 -1.21875 22.125 -1.21875 
Q 12.703125 -1.21875 7.6875 4.203125 
Q 2.6875 9.625 2.875 20.3125 
z
" id="ArialMT-4a"/>
     <path d="M 40.4375 6.390625 
Q 35.546875 2.25 31.03125 0.53125 
Q 26.515625 -1.171875 21.34375 -1.171875 
Q 12.796875 -1.171875 8.203125 3 
Q 3.609375 7.171875 3.609375 13.671875 
Q 3.609375 17.484375 5.34375 20.625 
Q 7.078125 23.78125 9.890625 25.6875 
Q 12.703125 27.59375 16.21875 28.5625 
Q 18.796875 29.25 24.03125 29.890625 
Q 34.671875 31.15625 39.703125 32.90625 
Q 39.75 34.71875 39.75 35.203125 
Q 39.75 40.578125 37.25 42.78125 
Q 33.890625 45.75 27.25 45.75 
Q 21.046875 45.75 18.09375 43.578125 
Q 15.140625 41.40625 13.71875 35.890625 
L 5.125 37.0625 
Q 6.296875 42.578125 8.984375 45.96875 
Q 11.671875 49.359375 16.75 51.1875 
Q 21.828125 53.03125 28.515625 53.03125 
Q 35.15625 53.03125 39.296875 51.46875 
Q 43.453125 49.90625 45.40625 47.53125 
Q 47.359375 45.171875 48.140625 41.546875 
Q 48.578125 39.3125 48.578125 33.453125 
L 48.578125 21.734375 
Q 48.578125 9.46875 49.140625 6.21875 
Q 49.703125 2.984375 51.375 0 
L 42.1875 0 
Q 40.828125 2.734375 40.4375 6.390625 
z
M 39.703125 26.03125 
Q 34.90625 24.078125 25.34375 22.703125 
Q 19.921875 21.921875 17.671875 20.9375 
Q 15.4375 19.96875 14.203125 18.09375 
Q 12.984375 16.21875 12.984375 13.921875 
Q 12.984375 10.40625 15.640625 8.0625 
Q 18.3125 5.71875 23.4375 5.71875 
Q 28.515625 5.71875 32.46875 7.9375 
Q 36.421875 10.15625 38.28125 14.015625 
Q 39.703125 17 39.703125 22.796875 
z
" id="ArialMT-61"/>
     <path d="M 4.984375 -4.296875 
L 13.53125 -5.5625 
Q 14.0625 -9.515625 16.5 -11.328125 
Q 19.78125 -13.765625 25.4375 -13.765625 
Q 31.546875 -13.765625 34.859375 -11.328125 
Q 38.1875 -8.890625 39.359375 -4.5 
Q 40.046875 -1.8125 39.984375 6.78125 
Q 34.234375 0 25.640625 0 
Q 14.9375 0 9.078125 7.71875 
Q 3.21875 15.4375 3.21875 26.21875 
Q 3.21875 33.640625 5.90625 39.90625 
Q 8.59375 46.1875 13.6875 49.609375 
Q 18.796875 53.03125 25.6875 53.03125 
Q 34.859375 53.03125 40.828125 45.609375 
L 40.828125 51.859375 
L 48.921875 51.859375 
L 48.921875 7.03125 
Q 48.921875 -5.078125 46.453125 -10.125 
Q 44 -15.1875 38.640625 -18.109375 
Q 33.296875 -21.046875 25.484375 -21.046875 
Q 16.21875 -21.046875 10.5 -16.875 
Q 4.78125 -12.703125 4.984375 -4.296875 
z
M 12.25 26.859375 
Q 12.25 16.65625 16.296875 11.96875 
Q 20.359375 7.28125 26.46875 7.28125 
Q 32.515625 7.28125 36.609375 11.9375 
Q 40.71875 16.609375 40.71875 26.5625 
Q 40.71875 36.078125 36.5 40.90625 
Q 32.28125 45.75 26.3125 45.75 
Q 20.453125 45.75 16.34375 40.984375 
Q 12.25 36.234375 12.25 26.859375 
z
" id="ArialMT-67"/>
     <path d="M 40.578125 0 
L 40.578125 7.625 
Q 34.515625 -1.171875 24.125 -1.171875 
Q 19.53125 -1.171875 15.546875 0.578125 
Q 11.578125 2.34375 9.640625 5 
Q 7.71875 7.671875 6.9375 11.53125 
Q 6.390625 14.109375 6.390625 19.734375 
L 6.390625 51.859375 
L 15.1875 51.859375 
L 15.1875 23.09375 
Q 15.1875 16.21875 15.71875 13.8125 
Q 16.546875 10.359375 19.234375 8.375 
Q 21.921875 6.390625 25.875 6.390625 
Q 29.828125 6.390625 33.296875 8.421875 
Q 36.765625 10.453125 38.203125 13.9375 
Q 39.65625 17.4375 39.65625 24.078125 
L 39.65625 51.859375 
L 48.4375 51.859375 
L 48.4375 0 
z
" id="ArialMT-75"/>
     <path d="M 6.5 0 
L 6.5 51.859375 
L 14.40625 51.859375 
L 14.40625 44 
Q 17.4375 49.515625 20 51.265625 
Q 22.5625 53.03125 25.640625 53.03125 
Q 30.078125 53.03125 34.671875 50.203125 
L 31.640625 42.046875 
Q 28.421875 43.953125 25.203125 43.953125 
Q 22.3125 43.953125 20.015625 42.21875 
Q 17.71875 40.484375 16.75 37.40625 
Q 15.28125 32.71875 15.28125 27.15625 
L 15.28125 0 
z
" id="ArialMT-72"/>
     <path d="M 3.171875 21.484375 
L 3.171875 30.328125 
L 30.171875 30.328125 
L 30.171875 21.484375 
z
" id="ArialMT-2d"/>
     <path d="M 6.59375 0 
L 6.59375 51.859375 
L 14.453125 51.859375 
L 14.453125 44.578125 
Q 16.890625 48.390625 20.9375 50.703125 
Q 25 53.03125 30.171875 53.03125 
Q 35.9375 53.03125 39.625 50.640625 
Q 43.3125 48.25 44.828125 43.953125 
Q 50.984375 53.03125 60.84375 53.03125 
Q 68.5625 53.03125 72.703125 48.75 
Q 76.859375 44.484375 76.859375 35.59375 
L 76.859375 0 
L 68.109375 0 
L 68.109375 32.671875 
Q 68.109375 37.9375 67.25 40.25 
Q 66.40625 42.578125 64.15625 43.984375 
Q 61.921875 45.40625 58.890625 45.40625 
Q 53.421875 45.40625 49.796875 41.765625 
Q 46.1875 38.140625 46.1875 30.125 
L 46.1875 0 
L 37.40625 0 
L 37.40625 33.6875 
Q 37.40625 39.546875 35.25 42.46875 
Q 33.109375 45.40625 28.21875 45.40625 
Q 24.515625 45.40625 21.359375 43.453125 
Q 18.21875 41.5 16.796875 37.734375 
Q 15.375 33.984375 15.375 26.90625 
L 15.375 0 
z
" id="ArialMT-6d"/>
     <path d="M 40.4375 19 
L 49.078125 17.875 
Q 47.65625 8.9375 41.8125 3.875 
Q 35.984375 -1.171875 27.484375 -1.171875 
Q 16.84375 -1.171875 10.375 5.78125 
Q 3.90625 12.75 3.90625 25.734375 
Q 3.90625 34.125 6.6875 40.421875 
Q 9.46875 46.734375 15.15625 49.875 
Q 20.84375 53.03125 27.546875 53.03125 
Q 35.984375 53.03125 41.359375 48.75 
Q 46.734375 44.484375 48.25 36.625 
L 39.703125 35.296875 
Q 38.484375 40.53125 35.375 43.15625 
Q 32.28125 45.796875 27.875 45.796875 
Q 21.234375 45.796875 17.078125 41.03125 
Q 12.9375 36.28125 12.9375 25.984375 
Q 12.9375 15.53125 16.9375 10.796875 
Q 20.953125 6.0625 27.390625 6.0625 
Q 32.5625 6.0625 36.03125 9.234375 
Q 39.5 12.40625 40.4375 19 
z
" id="ArialMT-63"/>
     <path d="M 3.328125 25.921875 
Q 3.328125 40.328125 11.328125 47.265625 
Q 18.015625 53.03125 27.640625 53.03125 
Q 38.328125 53.03125 45.109375 46.015625 
Q 51.90625 39.015625 51.90625 26.65625 
Q 51.90625 16.65625 48.90625 10.90625 
Q 45.90625 5.171875 40.15625 2 
Q 34.421875 -1.171875 27.640625 -1.171875 
Q 16.75 -1.171875 10.03125 5.8125 
Q 3.328125 12.796875 3.328125 25.921875 
z
M 12.359375 25.921875 
Q 12.359375 15.96875 16.703125 11.015625 
Q 21.046875 6.0625 27.640625 6.0625 
Q 34.1875 6.0625 38.53125 11.03125 
Q 42.875 16.015625 42.875 26.21875 
Q 42.875 35.84375 38.5 40.796875 
Q 34.125 45.75 27.640625 45.75 
Q 21.046875 45.75 16.703125 40.8125 
Q 12.359375 35.890625 12.359375 25.921875 
z
" id="ArialMT-6f"/>
     <path id="ArialMT-20"/>
     <path d="M 4.5 23 
L 13.421875 23.78125 
Q 14.0625 18.40625 16.375 14.96875 
Q 18.703125 11.53125 23.578125 9.40625 
Q 28.46875 7.28125 34.578125 7.28125 
Q 39.984375 7.28125 44.140625 8.890625 
Q 48.296875 10.5 50.3125 13.296875 
Q 52.34375 16.109375 52.34375 19.4375 
Q 52.34375 22.796875 50.390625 25.3125 
Q 48.4375 27.828125 43.953125 29.546875 
Q 41.0625 30.671875 31.203125 33.03125 
Q 21.34375 35.40625 17.390625 37.5 
Q 12.25 40.1875 9.734375 44.15625 
Q 7.234375 48.140625 7.234375 53.078125 
Q 7.234375 58.5 10.296875 63.203125 
Q 13.375 67.921875 19.28125 70.359375 
Q 25.203125 72.796875 32.421875 72.796875 
Q 40.375 72.796875 46.453125 70.234375 
Q 52.546875 67.671875 55.8125 62.6875 
Q 59.078125 57.71875 59.328125 51.421875 
L 50.25 50.734375 
Q 49.515625 57.515625 45.28125 60.984375 
Q 41.0625 64.453125 32.8125 64.453125 
Q 24.21875 64.453125 20.28125 61.296875 
Q 16.359375 58.15625 16.359375 53.71875 
Q 16.359375 49.859375 19.140625 47.359375 
Q 21.875 44.875 33.421875 42.265625 
Q 44.96875 39.65625 49.265625 37.703125 
Q 55.515625 34.8125 58.484375 30.390625 
Q 61.46875 25.984375 61.46875 20.21875 
Q 61.46875 14.5 58.203125 9.4375 
Q 54.9375 4.390625 48.796875 1.578125 
Q 42.671875 -1.21875 35.015625 -1.21875 
Q 25.296875 -1.21875 18.71875 1.609375 
Q 12.15625 4.4375 8.421875 10.125 
Q 4.6875 15.828125 4.5 23 
z
" id="ArialMT-53"/>
     <path d="M 7.421875 0 
L 7.421875 71.578125 
L 21.6875 71.578125 
L 38.625 20.90625 
Q 40.96875 13.8125 42.046875 10.296875 
Q 43.265625 14.203125 45.84375 21.78125 
L 62.984375 71.578125 
L 75.734375 71.578125 
L 75.734375 0 
L 66.609375 0 
L 66.609375 59.90625 
L 45.796875 0 
L 37.25 0 
L 16.546875 60.9375 
L 16.546875 0 
z
" id="ArialMT-4d"/>
     <path d="M 5.46875 16.546875 
L 13.921875 17.328125 
Q 14.984375 11.375 18.015625 8.6875 
Q 21.046875 6 25.78125 6 
Q 29.828125 6 32.875 7.859375 
Q 35.9375 9.71875 37.890625 12.8125 
Q 39.84375 15.921875 41.15625 21.1875 
Q 42.484375 26.46875 42.484375 31.9375 
Q 42.484375 32.515625 42.4375 33.6875 
Q 39.796875 29.5 35.234375 26.875 
Q 30.671875 24.265625 25.34375 24.265625 
Q 16.453125 24.265625 10.296875 30.703125 
Q 4.15625 37.15625 4.15625 47.703125 
Q 4.15625 58.59375 10.578125 65.234375 
Q 17 71.875 26.65625 71.875 
Q 33.640625 71.875 39.421875 68.109375 
Q 45.21875 64.359375 48.21875 57.390625 
Q 51.21875 50.4375 51.21875 37.25 
Q 51.21875 23.53125 48.234375 15.40625 
Q 45.265625 7.28125 39.375 3.03125 
Q 33.5 -1.21875 25.59375 -1.21875 
Q 17.1875 -1.21875 11.859375 3.4375 
Q 6.546875 8.109375 5.46875 16.546875 
z
M 41.453125 48.140625 
Q 41.453125 55.71875 37.421875 60.15625 
Q 33.40625 64.59375 27.734375 64.59375 
Q 21.875 64.59375 17.53125 59.8125 
Q 13.1875 55.03125 13.1875 47.40625 
Q 13.1875 40.578125 17.3125 36.296875 
Q 21.4375 32.03125 27.484375 32.03125 
Q 33.59375 32.03125 37.515625 36.296875 
Q 41.453125 40.578125 41.453125 48.140625 
z
" id="ArialMT-39"/>
    </defs>
    <g style="fill:#262626;" transform="translate(69.799375 19.44)scale(0.12 -0.12)">
     <use xlink:href="#ArialMT-4a"/>
     <use x="50" xlink:href="#ArialMT-61"/>
     <use x="105.615234" xlink:href="#ArialMT-67"/>
     <use x="161.230469" xlink:href="#ArialMT-75"/>
     <use x="216.845703" xlink:href="#ArialMT-61"/>
     <use x="272.460938" xlink:href="#ArialMT-72"/>
     <use x="305.761719" xlink:href="#ArialMT-2d"/>
     <use x="339.0625" xlink:href="#ArialMT-6d"/>
     <use x="422.363281" xlink:href="#ArialMT-61"/>
     <use x="477.978516" xlink:href="#ArialMT-63"/>
     <use x="527.978516" xlink:href="#ArialMT-72"/>
     <use x="561.279297" xlink:href="#ArialMT-6f"/>
     <use x="616.894531" xlink:href="#ArialMT-20"/>
     <use x="644.677734" xlink:href="#ArialMT-53"/>
     <use x="711.376953" xlink:href="#ArialMT-4d"/>
     <use x="794.677734" xlink:href="#ArialMT-31"/>
     <use x="850.292969" xlink:href="#ArialMT-39"/>
    </g>
   </g>
  </g>
 </g>
 <defs>
  <clipPath id="pbefc25aab0">
   <rect height="150.52" width="158.74" x="44.78" y="25.44"/>
  </clipPath>
 </defs>
</svg>
