<?xml version="1.0" encoding="utf-8" standalone="no"?>
<!DOCTYPE svg PUBLIC "-//W3C//DTD SVG 1.1//EN"
  "http://www.w3.org/Graphics/SVG/1.1/DTD/svg11.dtd">
<!-- Created with matplotlib (http://matplotlib.org/) -->
<svg height="144pt" version="1.1" viewBox="0 0 144 144" width="144pt" xmlns="http://www.w3.org/2000/svg" xmlns:xlink="http://www.w3.org/1999/xlink">
 <defs>
  <style type="text/css">
*{stroke-linecap:butt;stroke-linejoin:round;}
  </style>
 </defs>
 <g id="figure_1">
  <g id="patch_1">
   <path d="M 0 144 
L 144 144 
L 144 0 
L 0 0 
z
" style="fill:#ffffff;"/>
  </g>
  <g id="axes_1">
   <g id="patch_2">
    <path d="M 41.96 101.92 
L 130.44 101.92 
L 130.44 27.48 
L 41.96 27.48 
z
" style="fill:#ffffff;"/>
   </g>
   <g id="matplotlib.axis_1">
    <g id="xtick_1">
     <g id="line2d_1">
      <defs>
       <path d="M 0 0 
L 0 3.5 
" id="m4e6ee84c92" style="stroke:#262626;stroke-width:0.8;"/>
      </defs>
      <g>
       <use style="fill:#262626;stroke:#262626;stroke-width:0.8;" x="45.981818" xlink:href="#m4e6ee84c92" y="101.92"/>
      </g>
     </g>
     <g id="text_1">
      <!-- 2 -->
      <defs>
       <path d="M 50.34375 8.453125 
L 50.34375 0 
L 3.03125 0 
Q 2.9375 3.171875 4.046875 6.109375 
Q 5.859375 10.9375 9.828125 15.625 
Q 13.8125 20.3125 21.34375 26.46875 
Q 33.015625 36.03125 37.109375 41.625 
Q 41.21875 47.21875 41.21875 52.203125 
Q 41.21875 57.421875 37.46875 61 
Q 33.734375 64.59375 27.734375 64.59375 
Q 21.390625 64.59375 17.578125 60.78125 
Q 13.765625 56.984375 13.71875 50.25 
L 4.6875 51.171875 
Q 5.609375 61.28125 11.65625 66.578125 
Q 17.71875 71.875 27.9375 71.875 
Q 38.234375 71.875 44.234375 66.15625 
Q 50.25 60.453125 50.25 52 
Q 50.25 47.703125 48.484375 43.546875 
Q 46.734375 39.40625 42.65625 34.8125 
Q 38.578125 30.21875 29.109375 22.21875 
Q 21.1875 15.578125 18.9375 13.203125 
Q 16.703125 10.84375 15.234375 8.453125 
z
" id="ArialMT-32"/>
      </defs>
      <g style="fill:#262626;" transform="translate(42.923303 116.793594)scale(0.11 -0.11)">
       <use xlink:href="#ArialMT-32"/>
      </g>
     </g>
    </g>
    <g id="xtick_2">
     <g id="line2d_2">
      <g>
       <use style="fill:#262626;stroke:#262626;stroke-width:0.8;" x="62.069091" xlink:href="#m4e6ee84c92" y="101.92"/>
      </g>
     </g>
     <g id="text_2">
      <!-- 4 -->
      <defs>
       <path d="M 32.328125 0 
L 32.328125 17.140625 
L 1.265625 17.140625 
L 1.265625 25.203125 
L 33.9375 71.578125 
L 41.109375 71.578125 
L 41.109375 25.203125 
L 50.78125 25.203125 
L 50.78125 17.140625 
L 41.109375 17.140625 
L 41.109375 0 
z
M 32.328125 25.203125 
L 32.328125 57.46875 
L 9.90625 25.203125 
z
" id="ArialMT-34"/>
      </defs>
      <g style="fill:#262626;" transform="translate(59.010575 116.793594)scale(0.11 -0.11)">
       <use xlink:href="#ArialMT-34"/>
      </g>
     </g>
    </g>
    <g id="xtick_3">
     <g id="line2d_3">
      <g>
       <use style="fill:#262626;stroke:#262626;stroke-width:0.8;" x="78.156364" xlink:href="#m4e6ee84c92" y="101.92"/>
      </g>
     </g>
     <g id="text_3">
      <!-- 6 -->
      <defs>
       <path d="M 49.75 54.046875 
L 41.015625 53.375 
Q 39.84375 58.546875 37.703125 60.890625 
Q 34.125 64.65625 28.90625 64.65625 
Q 24.703125 64.65625 21.53125 62.3125 
Q 17.390625 59.28125 14.984375 53.46875 
Q 12.59375 47.65625 12.5 36.921875 
Q 15.671875 41.75 20.265625 44.09375 
Q 24.859375 46.4375 29.890625 46.4375 
Q 38.671875 46.4375 44.84375 39.96875 
Q 51.03125 33.5 51.03125 23.25 
Q 51.03125 16.5 48.125 10.71875 
Q 45.21875 4.9375 40.140625 1.859375 
Q 35.0625 -1.21875 28.609375 -1.21875 
Q 17.625 -1.21875 10.6875 6.859375 
Q 3.765625 14.9375 3.765625 33.5 
Q 3.765625 54.25 11.421875 63.671875 
Q 18.109375 71.875 29.4375 71.875 
Q 37.890625 71.875 43.28125 67.140625 
Q 48.6875 62.40625 49.75 54.046875 
z
M 13.875 23.1875 
Q 13.875 18.65625 15.796875 14.5 
Q 17.71875 10.359375 21.1875 8.171875 
Q 24.65625 6 28.46875 6 
Q 34.03125 6 38.03125 10.484375 
Q 42.046875 14.984375 42.046875 22.703125 
Q 42.046875 30.125 38.078125 34.390625 
Q 34.125 38.671875 28.125 38.671875 
Q 22.171875 38.671875 18.015625 34.390625 
Q 13.875 30.125 13.875 23.1875 
z
" id="ArialMT-36"/>
      </defs>
      <g style="fill:#262626;" transform="translate(75.097848 116.793594)scale(0.11 -0.11)">
       <use xlink:href="#ArialMT-36"/>
      </g>
     </g>
    </g>
    <g id="xtick_4">
     <g id="line2d_4">
      <g>
       <use style="fill:#262626;stroke:#262626;stroke-width:0.8;" x="94.243636" xlink:href="#m4e6ee84c92" y="101.92"/>
      </g>
     </g>
     <g id="text_4">
      <!-- 8 -->
      <defs>
       <path d="M 17.671875 38.8125 
Q 12.203125 40.828125 9.5625 44.53125 
Q 6.9375 48.25 6.9375 53.421875 
Q 6.9375 61.234375 12.546875 66.546875 
Q 18.171875 71.875 27.484375 71.875 
Q 36.859375 71.875 42.578125 66.421875 
Q 48.296875 60.984375 48.296875 53.171875 
Q 48.296875 48.1875 45.671875 44.5 
Q 43.0625 40.828125 37.75 38.8125 
Q 44.34375 36.671875 47.78125 31.875 
Q 51.21875 27.09375 51.21875 20.453125 
Q 51.21875 11.28125 44.71875 5.03125 
Q 38.234375 -1.21875 27.640625 -1.21875 
Q 17.046875 -1.21875 10.546875 5.046875 
Q 4.046875 11.328125 4.046875 20.703125 
Q 4.046875 27.6875 7.59375 32.390625 
Q 11.140625 37.109375 17.671875 38.8125 
z
M 15.921875 53.71875 
Q 15.921875 48.640625 19.1875 45.40625 
Q 22.46875 42.1875 27.6875 42.1875 
Q 32.765625 42.1875 36.015625 45.375 
Q 39.265625 48.578125 39.265625 53.21875 
Q 39.265625 58.0625 35.90625 61.359375 
Q 32.5625 64.65625 27.59375 64.65625 
Q 22.5625 64.65625 19.234375 61.421875 
Q 15.921875 58.203125 15.921875 53.71875 
z
M 13.09375 20.65625 
Q 13.09375 16.890625 14.875 13.375 
Q 16.65625 9.859375 20.171875 7.921875 
Q 23.6875 6 27.734375 6 
Q 34.03125 6 38.125 10.046875 
Q 42.234375 14.109375 42.234375 20.359375 
Q 42.234375 26.703125 38.015625 30.859375 
Q 33.796875 35.015625 27.4375 35.015625 
Q 21.234375 35.015625 17.15625 30.90625 
Q 13.09375 26.8125 13.09375 20.65625 
z
" id="ArialMT-38"/>
      </defs>
      <g style="fill:#262626;" transform="translate(91.185121 116.793594)scale(0.11 -0.11)">
       <use xlink:href="#ArialMT-38"/>
      </g>
     </g>
    </g>
    <g id="xtick_5">
     <g id="line2d_5">
      <g>
       <use style="fill:#262626;stroke:#262626;stroke-width:0.8;" x="110.330909" xlink:href="#m4e6ee84c92" y="101.92"/>
      </g>
     </g>
     <g id="text_5">
      <!-- 10 -->
      <defs>
       <path d="M 37.25 0 
L 28.46875 0 
L 28.46875 56 
Q 25.296875 52.984375 20.140625 49.953125 
Q 14.984375 46.921875 10.890625 45.40625 
L 10.890625 53.90625 
Q 18.265625 57.375 23.78125 62.296875 
Q 29.296875 67.234375 31.59375 71.875 
L 37.25 71.875 
z
" id="ArialMT-31"/>
       <path d="M 4.15625 35.296875 
Q 4.15625 48 6.765625 55.734375 
Q 9.375 63.484375 14.515625 67.671875 
Q 19.671875 71.875 27.484375 71.875 
Q 33.25 71.875 37.59375 69.546875 
Q 41.9375 67.234375 44.765625 62.859375 
Q 47.609375 58.5 49.21875 52.21875 
Q 50.828125 45.953125 50.828125 35.296875 
Q 50.828125 22.703125 48.234375 14.96875 
Q 45.65625 7.234375 40.5 3 
Q 35.359375 -1.21875 27.484375 -1.21875 
Q 17.140625 -1.21875 11.234375 6.203125 
Q 4.15625 15.140625 4.15625 35.296875 
z
M 13.1875 35.296875 
Q 13.1875 17.671875 17.3125 11.828125 
Q 21.4375 6 27.484375 6 
Q 33.546875 6 37.671875 11.859375 
Q 41.796875 17.71875 41.796875 35.296875 
Q 41.796875 52.984375 37.671875 58.78125 
Q 33.546875 64.59375 27.390625 64.59375 
Q 21.34375 64.59375 17.71875 59.46875 
Q 13.1875 52.9375 13.1875 35.296875 
z
" id="ArialMT-30"/>
      </defs>
      <g style="fill:#262626;" transform="translate(104.213878 116.793594)scale(0.11 -0.11)">
       <use xlink:href="#ArialMT-31"/>
       <use x="55.615234" xlink:href="#ArialMT-30"/>
      </g>
     </g>
    </g>
    <g id="xtick_6">
     <g id="line2d_6">
      <g>
       <use style="fill:#262626;stroke:#262626;stroke-width:0.8;" x="126.418182" xlink:href="#m4e6ee84c92" y="101.92"/>
      </g>
     </g>
     <g id="text_6">
      <!-- 12 -->
      <g style="fill:#262626;" transform="translate(120.301151 116.793594)scale(0.11 -0.11)">
       <use xlink:href="#ArialMT-31"/>
       <use x="55.615234" xlink:href="#ArialMT-32"/>
      </g>
     </g>
    </g>
    <g id="text_7">
     <!-- pH -->
     <defs>
      <path d="M 6.59375 -19.875 
L 6.59375 51.859375 
L 14.59375 51.859375 
L 14.59375 45.125 
Q 17.4375 49.078125 21 51.046875 
Q 24.5625 53.03125 29.640625 53.03125 
Q 36.28125 53.03125 41.359375 49.609375 
Q 46.4375 46.1875 49.015625 39.953125 
Q 51.609375 33.734375 51.609375 26.3125 
Q 51.609375 18.359375 48.75 11.984375 
Q 45.90625 5.609375 40.453125 2.21875 
Q 35.015625 -1.171875 29 -1.171875 
Q 24.609375 -1.171875 21.109375 0.6875 
Q 17.625 2.546875 15.375 5.375 
L 15.375 -19.875 
z
M 14.546875 25.640625 
Q 14.546875 15.625 18.59375 10.84375 
Q 22.65625 6.0625 28.421875 6.0625 
Q 34.28125 6.0625 38.453125 11.015625 
Q 42.625 15.96875 42.625 26.375 
Q 42.625 36.28125 38.546875 41.203125 
Q 34.46875 46.140625 28.8125 46.140625 
Q 23.1875 46.140625 18.859375 40.890625 
Q 14.546875 35.640625 14.546875 25.640625 
z
" id="ArialMT-70"/>
      <path d="M 8.015625 0 
L 8.015625 71.578125 
L 17.484375 71.578125 
L 17.484375 42.1875 
L 54.6875 42.1875 
L 54.6875 71.578125 
L 64.15625 71.578125 
L 64.15625 0 
L 54.6875 0 
L 54.6875 33.734375 
L 17.484375 33.734375 
L 17.484375 0 
z
" id="ArialMT-48"/>
     </defs>
     <g style="fill:#262626;" transform="translate(79.169453 130.853437)scale(0.11 -0.11)">
      <use xlink:href="#ArialMT-70"/>
      <use x="55.615234" xlink:href="#ArialMT-48"/>
     </g>
    </g>
   </g>
   <g id="matplotlib.axis_2">
    <g id="ytick_1">
     <g id="line2d_7">
      <defs>
       <path d="M 0 0 
L -3.5 0 
" id="md74dfa5078" style="stroke:#262626;stroke-width:0.8;"/>
      </defs>
      <g>
       <use style="fill:#262626;stroke:#262626;stroke-width:0.8;" x="41.96" xlink:href="#md74dfa5078" y="98.351044"/>
      </g>
     </g>
     <g id="text_8">
      <!-- 0 -->
      <g style="fill:#262626;" transform="translate(28.842969 102.287841)scale(0.11 -0.11)">
       <use xlink:href="#ArialMT-30"/>
      </g>
     </g>
    </g>
    <g id="ytick_2">
     <g id="line2d_8">
      <g>
       <use style="fill:#262626;stroke:#262626;stroke-width:0.8;" x="41.96" xlink:href="#md74dfa5078" y="30.858023"/>
      </g>
     </g>
     <g id="text_9">
      <!-- 1 -->
      <g style="fill:#262626;" transform="translate(28.842969 34.79482)scale(0.11 -0.11)">
       <use xlink:href="#ArialMT-31"/>
      </g>
     </g>
    </g>
    <g id="text_10">
     <!-- $\langle q_\mathsf{total} \rangle$ -->
     <defs>
      <path d="M 8.9375 31.34375 
L 22.703125 75.875 
L 31 75.875 
L 17.234375 31.34375 
L 31 -13.1875 
L 22.703125 -13.1875 
z
" id="DejaVuSans-27e8"/>
      <path d="M 41.703125 8.203125 
Q 38.09375 3.46875 33.171875 1.015625 
Q 28.265625 -1.421875 22.3125 -1.421875 
Q 14.015625 -1.421875 9.296875 4.171875 
Q 4.59375 9.765625 4.59375 19.578125 
Q 4.59375 27.484375 7.5 34.859375 
Q 10.40625 42.234375 15.828125 48.09375 
Q 19.34375 51.90625 23.90625 53.953125 
Q 28.46875 56 33.5 56 
Q 39.546875 56 43.453125 53.609375 
Q 47.359375 51.21875 49.125 46.390625 
L 50.6875 54.59375 
L 59.71875 54.59375 
L 45.125 -20.609375 
L 36.078125 -20.609375 
z
M 13.921875 20.90625 
Q 13.921875 13.671875 16.9375 9.890625 
Q 19.96875 6.109375 25.6875 6.109375 
Q 34.1875 6.109375 40.1875 14.234375 
Q 46.1875 22.359375 46.1875 33.984375 
Q 46.1875 41.015625 43.078125 44.75 
Q 39.984375 48.484375 34.1875 48.484375 
Q 29.9375 48.484375 26.3125 46.5 
Q 22.703125 44.53125 20.015625 40.71875 
Q 17.1875 36.71875 15.546875 31.34375 
Q 13.921875 25.984375 13.921875 20.90625 
z
" id="DejaVuSans-Oblique-71"/>
      <path d="M 18.3125 70.21875 
L 18.3125 54.6875 
L 36.8125 54.6875 
L 36.8125 47.703125 
L 18.3125 47.703125 
L 18.3125 18.015625 
Q 18.3125 11.328125 20.140625 9.421875 
Q 21.96875 7.515625 27.59375 7.515625 
L 36.8125 7.515625 
L 36.8125 0 
L 27.59375 0 
Q 17.1875 0 13.234375 3.875 
Q 9.28125 7.765625 9.28125 18.015625 
L 9.28125 47.703125 
L 2.6875 47.703125 
L 2.6875 54.6875 
L 9.28125 54.6875 
L 9.28125 70.21875 
z
" id="DejaVuSans-74"/>
      <path d="M 30.609375 48.390625 
Q 23.390625 48.390625 19.1875 42.75 
Q 14.984375 37.109375 14.984375 27.296875 
Q 14.984375 17.484375 19.15625 11.84375 
Q 23.34375 6.203125 30.609375 6.203125 
Q 37.796875 6.203125 41.984375 11.859375 
Q 46.1875 17.53125 46.1875 27.296875 
Q 46.1875 37.015625 41.984375 42.703125 
Q 37.796875 48.390625 30.609375 48.390625 
z
M 30.609375 56 
Q 42.328125 56 49.015625 48.375 
Q 55.71875 40.765625 55.71875 27.296875 
Q 55.71875 13.875 49.015625 6.21875 
Q 42.328125 -1.421875 30.609375 -1.421875 
Q 18.84375 -1.421875 12.171875 6.21875 
Q 5.515625 13.875 5.515625 27.296875 
Q 5.515625 40.765625 12.171875 48.375 
Q 18.84375 56 30.609375 56 
z
" id="DejaVuSans-6f"/>
      <path d="M 34.28125 27.484375 
Q 23.390625 27.484375 19.1875 25 
Q 14.984375 22.515625 14.984375 16.5 
Q 14.984375 11.71875 18.140625 8.90625 
Q 21.296875 6.109375 26.703125 6.109375 
Q 34.1875 6.109375 38.703125 11.40625 
Q 43.21875 16.703125 43.21875 25.484375 
L 43.21875 27.484375 
z
M 52.203125 31.203125 
L 52.203125 0 
L 43.21875 0 
L 43.21875 8.296875 
Q 40.140625 3.328125 35.546875 0.953125 
Q 30.953125 -1.421875 24.3125 -1.421875 
Q 15.921875 -1.421875 10.953125 3.296875 
Q 6 8.015625 6 15.921875 
Q 6 25.140625 12.171875 29.828125 
Q 18.359375 34.515625 30.609375 34.515625 
L 43.21875 34.515625 
L 43.21875 35.40625 
Q 43.21875 41.609375 39.140625 45 
Q 35.0625 48.390625 27.6875 48.390625 
Q 23 48.390625 18.546875 47.265625 
Q 14.109375 46.140625 10.015625 43.890625 
L 10.015625 52.203125 
Q 14.9375 54.109375 19.578125 55.046875 
Q 24.21875 56 28.609375 56 
Q 40.484375 56 46.34375 49.84375 
Q 52.203125 43.703125 52.203125 31.203125 
z
" id="DejaVuSans-61"/>
      <path d="M 9.421875 75.984375 
L 18.40625 75.984375 
L 18.40625 0 
L 9.421875 0 
z
" id="DejaVuSans-6c"/>
      <path d="M 30.078125 31.34375 
L 16.3125 -13.1875 
L 8.015625 -13.1875 
L 21.78125 31.34375 
L 8.015625 75.875 
L 16.3125 75.875 
z
" id="DejaVuSans-27e9"/>
     </defs>
     <g style="fill:#262626;" transform="translate(22.532969 81.475)rotate(-90)scale(0.11 -0.11)">
      <use transform="translate(0 0.125)" xlink:href="#DejaVuSans-27e8"/>
      <use transform="translate(39.013672 0.125)" xlink:href="#DejaVuSans-Oblique-71"/>
      <use transform="translate(102.490234 -16.28125)scale(0.7)" xlink:href="#DejaVuSans-74"/>
      <use transform="translate(129.936523 -16.28125)scale(0.7)" xlink:href="#DejaVuSans-6f"/>
      <use transform="translate(172.763672 -16.28125)scale(0.7)" xlink:href="#DejaVuSans-74"/>
      <use transform="translate(200.209961 -16.28125)scale(0.7)" xlink:href="#DejaVuSans-61"/>
      <use transform="translate(243.105469 -16.28125)scale(0.7)" xlink:href="#DejaVuSans-6c"/>
      <use transform="translate(265.288086 0.125)" xlink:href="#DejaVuSans-27e9"/>
     </g>
    </g>
   </g>
   <g id="PolyCollection_1">
    <defs>
     <path d="M 45.981818 -113.136364 
L 45.981818 -113.136364 
L 46.786182 -113.13491 
L 47.590545 -113.133081 
L 48.394909 -113.130778 
L 49.199273 -113.127879 
L 50.003636 -113.124229 
L 50.808 -113.119635 
L 51.612364 -113.113853 
L 52.416727 -113.106575 
L 53.221091 -113.097414 
L 54.025455 -113.085885 
L 54.829818 -113.071377 
L 55.634182 -113.053121 
L 56.438545 -113.030152 
L 57.242909 -113.001258 
L 58.047273 -112.964918 
L 58.851636 -112.919224 
L 59.656 -112.861787 
L 60.460364 -112.789618 
L 61.264727 -112.698982 
L 62.069091 -112.585225 
L 62.873455 -112.442562 
L 63.677818 -112.263822 
L 64.482182 -112.040157 
L 65.286545 -111.760707 
L 66.090909 -111.412227 
L 66.895273 -110.978706 
L 67.699636 -110.440995 
L 68.504 -109.776515 
L 69.308364 -108.959116 
L 70.112727 -107.959234 
L 70.917091 -106.744489 
L 71.721455 -105.280949 
L 72.525818 -103.535244 
L 73.330182 -101.477699 
L 74.134545 -99.086477 
L 74.938909 -96.352467 
L 75.743273 -93.284272 
L 76.547636 -89.912263 
L 77.352 -86.290425 
L 78.156364 -82.494876 
L 78.960727 -78.618562 
L 79.765091 -74.762652 
L 80.569455 -71.026213 
L 81.373818 -67.496334 
L 82.178182 -64.240702 
L 82.982545 -61.303827 
L 83.786909 -58.706998 
L 84.591273 -56.451167 
L 85.395636 -54.521521 
L 86.2 -52.892533 
L 87.004364 -51.532606 
L 87.808727 -50.407828 
L 88.613091 -49.484687 
L 89.417455 -48.73182 
L 90.221818 -48.120985 
L 91.026182 -47.627463 
L 91.830545 -47.230073 
L 92.634909 -46.910962 
L 93.439273 -46.655273 
L 94.243636 -46.450761 
L 95.048 -46.287412 
L 95.852364 -46.157089 
L 96.656727 -46.053206 
L 97.461091 -45.970459 
L 98.265455 -45.904586 
L 99.069818 -45.852168 
L 99.874182 -45.810473 
L 100.678545 -45.777317 
L 101.482909 -45.750957 
L 102.287273 -45.730003 
L 103.091636 -45.71335 
L 103.896 -45.700116 
L 104.700364 -45.6896 
L 105.504727 -45.681245 
L 106.309091 -45.674607 
L 107.113455 -45.669333 
L 107.917818 -45.665143 
L 108.722182 -45.661814 
L 109.526545 -45.65917 
L 110.330909 -45.65707 
L 111.135273 -45.655401 
L 111.939636 -45.654076 
L 112.744 -45.653023 
L 113.548364 -45.652186 
L 114.352727 -45.651522 
L 115.157091 -45.650994 
L 115.961455 -45.650575 
L 116.765818 -45.650242 
L 117.570182 -45.649978 
L 118.374545 -45.649768 
L 119.178909 -45.649601 
L 119.983273 -45.649468 
L 120.787636 -45.649363 
L 121.592 -45.649279 
L 122.396364 -45.649213 
L 123.200727 -45.64916 
L 124.005091 -45.649118 
L 124.809455 -45.649085 
L 125.613818 -45.649058 
L 126.418182 -45.649037 
L 126.418182 -45.649037 
L 126.418182 -45.463636 
L 125.613818 -45.501677 
L 124.809455 -45.531926 
L 124.005091 -45.555976 
L 123.200727 -45.575095 
L 122.396364 -45.590294 
L 121.592 -45.602378 
L 120.787636 -45.611986 
L 119.983273 -45.619629 
L 119.178909 -45.625711 
L 118.374545 -45.630558 
L 117.570182 -45.634425 
L 116.765818 -45.63752 
L 115.961455 -45.640005 
L 115.157091 -45.642014 
L 114.352727 -45.643653 
L 113.548364 -45.64501 
L 112.744 -45.646157 
L 111.939636 -45.647155 
L 111.135273 -45.648057 
L 110.330909 -45.648912 
L 109.526545 -45.649763 
L 108.722182 -45.650658 
L 107.917818 -45.651644 
L 107.113455 -45.652772 
L 106.309091 -45.654104 
L 105.504727 -45.65571 
L 104.700364 -45.657675 
L 103.896 -45.660104 
L 103.091636 -45.663127 
L 102.287273 -45.666904 
L 101.482909 -45.671635 
L 100.678545 -45.677574 
L 99.874182 -45.685034 
L 99.069818 -45.694413 
L 98.265455 -45.706207 
L 97.461091 -45.721042 
L 96.656727 -45.739703 
L 95.852364 -45.763177 
L 95.048 -45.792703 
L 94.243636 -45.829833 
L 93.439273 -45.876518 
L 92.634909 -45.935196 
L 91.830545 -46.008921 
L 91.026182 -46.101504 
L 90.221818 -46.217696 
L 89.417455 -46.363402 
L 88.613091 -46.545933 
L 87.808727 -46.774313 
L 87.004364 -47.059607 
L 86.2 -47.415303 
L 85.395636 -47.857689 
L 84.591273 -48.406223 
L 83.786909 -49.083816 
L 82.982545 -49.916949 
L 82.178182 -50.935482 
L 81.373818 -52.172006 
L 80.569455 -53.660504 
L 79.765091 -55.43415 
L 78.960727 -57.522077 
L 78.156364 -59.94515 
L 77.352 -62.71103 
L 76.547636 -65.80923 
L 75.743273 -69.207208 
L 74.938909 -72.848793 
L 74.134545 -76.656013 
L 73.330182 -80.534749 
L 72.525818 -84.383582 
L 71.721455 -88.104169 
L 70.917091 -91.61097 
L 70.112727 -94.838362 
L 69.308364 -97.744054 
L 68.504 -100.308812 
L 67.699636 -102.533366 
L 66.895273 -104.433741 
L 66.090909 -106.036216 
L 65.286545 -107.372747 
L 64.482182 -108.477307 
L 63.677818 -109.38327 
L 62.873455 -110.121736 
L 62.069091 -110.72063 
L 61.264727 -111.204336 
L 60.460364 -111.593713 
L 59.656 -111.906318 
L 58.851636 -112.156749 
L 58.047273 -112.357027 
L 57.242909 -112.516975 
L 56.438545 -112.644575 
L 55.634182 -112.746279 
L 54.829818 -112.827286 
L 54.025455 -112.891773 
L 53.221091 -112.943085 
L 52.416727 -112.983901 
L 51.612364 -113.01636 
L 50.808 -113.042166 
L 50.003636 -113.062681 
L 49.199273 -113.078989 
L 48.394909 -113.091951 
L 47.590545 -113.102256 
L 46.786182 -113.110449 
L 45.981818 -113.116966 
z
" id="m7483a58230" style="stroke:#ffffff;stroke-opacity:0.7;"/>
    </defs>
    <g clip-path="url(#pd1e11f7b78)">
     <use style="fill:#591e71;fill-opacity:0.7;stroke:#ffffff;stroke-opacity:0.7;" x="0" xlink:href="#m7483a58230" y="144"/>
    </g>
   </g>
   <g id="line2d_9">
    <path clip-path="url(#pd1e11f7b78)" d="M 45.981818 30.863636 
L 46.786182 30.86509 
L 47.590545 30.866919 
L 48.394909 30.869222 
L 49.199273 30.872121 
L 50.003636 30.875771 
L 50.808 30.880365 
L 51.612364 30.886147 
L 52.416727 30.893425 
L 53.221091 30.902586 
L 54.025455 30.914115 
L 54.829818 30.928623 
L 55.634182 30.946879 
L 56.438545 30.969848 
L 57.242909 30.998742 
L 58.047273 31.035082 
L 58.851636 31.080776 
L 59.656 31.138213 
L 60.460364 31.210382 
L 61.264727 31.301018 
L 62.069091 31.414775 
L 62.873455 31.557438 
L 63.677818 31.736178 
L 64.482182 31.959843 
L 65.286545 32.239293 
L 66.090909 32.587773 
L 66.895273 33.021294 
L 67.699636 33.559005 
L 68.504 34.223485 
L 69.308364 35.040884 
L 70.112727 36.040766 
L 70.917091 37.255511 
L 71.721455 38.719051 
L 72.525818 40.464756 
L 73.330182 42.522301 
L 74.134545 44.913523 
L 74.938909 47.647533 
L 75.743273 50.715728 
L 76.547636 54.087737 
L 77.352 57.709575 
L 78.156364 61.505124 
L 78.960727 65.381438 
L 79.765091 69.237348 
L 80.569455 72.973787 
L 81.373818 76.503666 
L 82.178182 79.759298 
L 82.982545 82.696173 
L 83.786909 85.293002 
L 84.591273 87.548833 
L 85.395636 89.478479 
L 86.2 91.107467 
L 87.004364 92.467394 
L 87.808727 93.592172 
L 88.613091 94.515313 
L 89.417455 95.26818 
L 90.221818 95.879015 
L 91.026182 96.372537 
L 91.830545 96.769927 
L 92.634909 97.089038 
L 93.439273 97.344727 
L 94.243636 97.549239 
L 95.048 97.712588 
L 95.852364 97.842911 
L 96.656727 97.946794 
L 97.461091 98.029541 
L 98.265455 98.095414 
L 99.069818 98.147832 
L 99.874182 98.189527 
L 100.678545 98.222683 
L 101.482909 98.249043 
L 102.287273 98.269997 
L 103.091636 98.28665 
L 103.896 98.299884 
L 104.700364 98.3104 
L 105.504727 98.318755 
L 106.309091 98.325393 
L 107.113455 98.330667 
L 107.917818 98.334857 
L 108.722182 98.338186 
L 109.526545 98.34083 
L 110.330909 98.34293 
L 111.135273 98.344599 
L 111.939636 98.345924 
L 112.744 98.346977 
L 113.548364 98.347814 
L 114.352727 98.348478 
L 115.157091 98.349006 
L 115.961455 98.349425 
L 116.765818 98.349758 
L 117.570182 98.350022 
L 118.374545 98.350232 
L 119.178909 98.350399 
L 119.983273 98.350532 
L 120.787636 98.350637 
L 121.592 98.350721 
L 122.396364 98.350787 
L 123.200727 98.35084 
L 124.005091 98.350882 
L 124.809455 98.350915 
L 125.613818 98.350942 
L 126.418182 98.350963 
" style="fill:none;stroke:#333333;stroke-dasharray:1.5,2.475;stroke-dashoffset:0;stroke-width:1.5;"/>
   </g>
   <g id="line2d_10">
    <path clip-path="url(#pd1e11f7b78)" d="M 45.981818 30.883034 
L 46.786182 30.889551 
L 47.590545 30.897744 
L 48.394909 30.908049 
L 49.199273 30.921011 
L 50.003636 30.937319 
L 50.808 30.957834 
L 51.612364 30.98364 
L 52.416727 31.016099 
L 53.221091 31.056915 
L 54.025455 31.108227 
L 54.829818 31.172714 
L 55.634182 31.253721 
L 56.438545 31.355425 
L 57.242909 31.483025 
L 58.047273 31.642973 
L 58.851636 31.843251 
L 59.656 32.093682 
L 60.460364 32.406287 
L 61.264727 32.795664 
L 62.069091 33.27937 
L 62.873455 33.878264 
L 63.677818 34.61673 
L 64.482182 35.522693 
L 65.286545 36.627253 
L 66.090909 37.963784 
L 66.895273 39.566259 
L 67.699636 41.466634 
L 68.504 43.691188 
L 69.308364 46.255946 
L 70.112727 49.161638 
L 70.917091 52.38903 
L 71.721455 55.895831 
L 72.525818 59.616418 
L 73.330182 63.465251 
L 74.134545 67.343987 
L 74.938909 71.151207 
L 75.743273 74.792792 
L 76.547636 78.19077 
L 77.352 81.28897 
L 78.156364 84.05485 
L 78.960727 86.477923 
L 79.765091 88.56585 
L 80.569455 90.339496 
L 81.373818 91.827994 
L 82.178182 93.064518 
L 82.982545 94.083051 
L 83.786909 94.916184 
L 84.591273 95.593777 
L 85.395636 96.142311 
L 86.2 96.584697 
L 87.004364 96.940393 
L 87.808727 97.225687 
L 88.613091 97.454067 
L 89.417455 97.636598 
L 90.221818 97.782304 
L 91.026182 97.898496 
L 91.830545 97.991079 
L 92.634909 98.064804 
L 93.439273 98.123482 
L 94.243636 98.170167 
L 95.048 98.207297 
L 95.852364 98.236823 
L 96.656727 98.260297 
L 97.461091 98.278958 
L 98.265455 98.293793 
L 99.069818 98.305587 
L 99.874182 98.314966 
L 100.678545 98.322426 
L 101.482909 98.328365 
L 102.287273 98.333096 
L 103.091636 98.336873 
L 103.896 98.339896 
L 104.700364 98.342325 
L 105.504727 98.34429 
L 106.309091 98.345896 
L 107.113455 98.347228 
L 107.917818 98.348356 
L 108.722182 98.349342 
L 109.526545 98.350237 
L 110.330909 98.351088 
L 111.135273 98.351943 
L 111.939636 98.352845 
L 112.744 98.353843 
L 113.548364 98.35499 
L 114.352727 98.356347 
L 115.157091 98.357986 
L 115.961455 98.359995 
L 116.765818 98.36248 
L 117.570182 98.365575 
L 118.374545 98.369442 
L 119.178909 98.374289 
L 119.983273 98.380371 
L 120.787636 98.388014 
L 121.592 98.397622 
L 122.396364 98.409706 
L 123.200727 98.424905 
L 124.005091 98.444024 
L 124.809455 98.468074 
L 125.613818 98.498323 
L 126.418182 98.536364 
" style="fill:none;stroke:#333333;stroke-linecap:round;stroke-width:1.5;"/>
   </g>
   <g id="patch_3">
    <path d="M 41.96 101.92 
L 41.96 27.48 
" style="fill:none;stroke:#262626;stroke-linecap:square;stroke-linejoin:miter;stroke-width:0.8;"/>
   </g>
   <g id="patch_4">
    <path d="M 41.96 101.92 
L 130.44 101.92 
" style="fill:none;stroke:#262626;stroke-linecap:square;stroke-linejoin:miter;stroke-width:0.8;"/>
   </g>
   <g id="text_11">
    <!-- $\Delta$ area : 0.65 -->
    <defs>
     <path d="M 34.1875 63.1875 
L 14.15625 8.203125 
L 54.25 8.203125 
z
M 0.78125 0 
L 28.609375 72.90625 
L 39.796875 72.90625 
L 67.578125 0 
z
" id="DejaVuSans-394"/>
     <path id="ArialMT-20"/>
     <path d="M 40.4375 6.390625 
Q 35.546875 2.25 31.03125 0.53125 
Q 26.515625 -1.171875 21.34375 -1.171875 
Q 12.796875 -1.171875 8.203125 3 
Q 3.609375 7.171875 3.609375 13.671875 
Q 3.609375 17.484375 5.34375 20.625 
Q 7.078125 23.78125 9.890625 25.6875 
Q 12.703125 27.59375 16.21875 28.5625 
Q 18.796875 29.25 24.03125 29.890625 
Q 34.671875 31.15625 39.703125 32.90625 
Q 39.75 34.71875 39.75 35.203125 
Q 39.75 40.578125 37.25 42.78125 
Q 33.890625 45.75 27.25 45.75 
Q 21.046875 45.75 18.09375 43.578125 
Q 15.140625 41.40625 13.71875 35.890625 
L 5.125 37.0625 
Q 6.296875 42.578125 8.984375 45.96875 
Q 11.671875 49.359375 16.75 51.1875 
Q 21.828125 53.03125 28.515625 53.03125 
Q 35.15625 53.03125 39.296875 51.46875 
Q 43.453125 49.90625 45.40625 47.53125 
Q 47.359375 45.171875 48.140625 41.546875 
Q 48.578125 39.3125 48.578125 33.453125 
L 48.578125 21.734375 
Q 48.578125 9.46875 49.140625 6.21875 
Q 49.703125 2.984375 51.375 0 
L 42.1875 0 
Q 40.828125 2.734375 40.4375 6.390625 
z
M 39.703125 26.03125 
Q 34.90625 24.078125 25.34375 22.703125 
Q 19.921875 21.921875 17.671875 20.9375 
Q 15.4375 19.96875 14.203125 18.09375 
Q 12.984375 16.21875 12.984375 13.921875 
Q 12.984375 10.40625 15.640625 8.0625 
Q 18.3125 5.71875 23.4375 5.71875 
Q 28.515625 5.71875 32.46875 7.9375 
Q 36.421875 10.15625 38.28125 14.015625 
Q 39.703125 17 39.703125 22.796875 
z
" id="ArialMT-61"/>
     <path d="M 6.5 0 
L 6.5 51.859375 
L 14.40625 51.859375 
L 14.40625 44 
Q 17.4375 49.515625 20 51.265625 
Q 22.5625 53.03125 25.640625 53.03125 
Q 30.078125 53.03125 34.671875 50.203125 
L 31.640625 42.046875 
Q 28.421875 43.953125 25.203125 43.953125 
Q 22.3125 43.953125 20.015625 42.21875 
Q 17.71875 40.484375 16.75 37.40625 
Q 15.28125 32.71875 15.28125 27.15625 
L 15.28125 0 
z
" id="ArialMT-72"/>
     <path d="M 42.09375 16.703125 
L 51.171875 15.578125 
Q 49.03125 7.625 43.21875 3.21875 
Q 37.40625 -1.171875 28.375 -1.171875 
Q 17 -1.171875 10.328125 5.828125 
Q 3.65625 12.84375 3.65625 25.484375 
Q 3.65625 38.578125 10.390625 45.796875 
Q 17.140625 53.03125 27.875 53.03125 
Q 38.28125 53.03125 44.875 45.953125 
Q 51.46875 38.875 51.46875 26.03125 
Q 51.46875 25.25 51.421875 23.6875 
L 12.75 23.6875 
Q 13.234375 15.140625 17.578125 10.59375 
Q 21.921875 6.0625 28.421875 6.0625 
Q 33.25 6.0625 36.671875 8.59375 
Q 40.09375 11.140625 42.09375 16.703125 
z
M 13.234375 30.90625 
L 42.1875 30.90625 
Q 41.609375 37.453125 38.875 40.71875 
Q 34.671875 45.796875 27.984375 45.796875 
Q 21.921875 45.796875 17.796875 41.75 
Q 13.671875 37.703125 13.234375 30.90625 
z
" id="ArialMT-65"/>
     <path d="M 9.03125 41.84375 
L 9.03125 51.859375 
L 19.046875 51.859375 
L 19.046875 41.84375 
z
M 9.03125 0 
L 9.03125 10.015625 
L 19.046875 10.015625 
L 19.046875 0 
z
" id="ArialMT-3a"/>
     <path d="M 9.078125 0 
L 9.078125 10.015625 
L 19.09375 10.015625 
L 19.09375 0 
z
" id="ArialMT-2e"/>
     <path d="M 4.15625 18.75 
L 13.375 19.53125 
Q 14.40625 12.796875 18.140625 9.390625 
Q 21.875 6 27.15625 6 
Q 33.5 6 37.890625 10.78125 
Q 42.28125 15.578125 42.28125 23.484375 
Q 42.28125 31 38.0625 35.34375 
Q 33.84375 39.703125 27 39.703125 
Q 22.75 39.703125 19.328125 37.765625 
Q 15.921875 35.84375 13.96875 32.765625 
L 5.71875 33.84375 
L 12.640625 70.609375 
L 48.25 70.609375 
L 48.25 62.203125 
L 19.671875 62.203125 
L 15.828125 42.96875 
Q 22.265625 47.46875 29.34375 47.46875 
Q 38.71875 47.46875 45.15625 40.96875 
Q 51.609375 34.46875 51.609375 24.265625 
Q 51.609375 14.546875 45.953125 7.46875 
Q 39.0625 -1.21875 27.15625 -1.21875 
Q 17.390625 -1.21875 11.203125 4.25 
Q 5.03125 9.71875 4.15625 18.75 
z
" id="ArialMT-35"/>
    </defs>
    <g style="fill:#262626;" transform="translate(48.25 21.48)scale(0.132 -0.132)">
     <use transform="translate(0 0.09375)" xlink:href="#DejaVuSans-394"/>
     <use transform="translate(68.408203 0.09375)" xlink:href="#ArialMT-20"/>
     <use transform="translate(96.191406 0.09375)" xlink:href="#ArialMT-61"/>
     <use transform="translate(151.806641 0.09375)" xlink:href="#ArialMT-72"/>
     <use transform="translate(185.107422 0.09375)" xlink:href="#ArialMT-65"/>
     <use transform="translate(240.722656 0.09375)" xlink:href="#ArialMT-61"/>
     <use transform="translate(296.337891 0.09375)" xlink:href="#ArialMT-20"/>
     <use transform="translate(324.121094 0.09375)" xlink:href="#ArialMT-3a"/>
     <use transform="translate(351.904297 0.09375)" xlink:href="#ArialMT-20"/>
     <use transform="translate(379.6875 0.09375)" xlink:href="#ArialMT-30"/>
     <use transform="translate(435.302734 0.09375)" xlink:href="#ArialMT-2e"/>
     <use transform="translate(463.085938 0.09375)" xlink:href="#ArialMT-36"/>
     <use transform="translate(518.701172 0.09375)" xlink:href="#ArialMT-35"/>
    </g>
   </g>
  </g>
 </g>
 <defs>
  <clipPath id="pd1e11f7b78">
   <rect height="74.44" width="88.48" x="41.96" y="27.48"/>
  </clipPath>
 </defs>
</svg>
