<?xml version="1.0" encoding="utf-8" standalone="no"?>
<!DOCTYPE svg PUBLIC "-//W3C//DTD SVG 1.1//EN"
  "http://www.w3.org/Graphics/SVG/1.1/DTD/svg11.dtd">
<!-- Created with matplotlib (http://matplotlib.org/) -->
<svg height="144pt" version="1.1" viewBox="0 0 144 144" width="144pt" xmlns="http://www.w3.org/2000/svg" xmlns:xlink="http://www.w3.org/1999/xlink">
 <defs>
  <style type="text/css">
*{stroke-linecap:butt;stroke-linejoin:round;}
  </style>
 </defs>
 <g id="figure_1">
  <g id="patch_1">
   <path d="M 0 144 
L 144 144 
L 144 0 
L 0 0 
z
" style="fill:#ffffff;"/>
  </g>
  <g id="axes_1">
   <g id="patch_2">
    <path d="M 53.72 101.92 
L 130.44 101.92 
L 130.44 13.56 
L 53.72 13.56 
z
" style="fill:#ffffff;"/>
   </g>
   <g id="matplotlib.axis_1">
    <g id="xtick_1">
     <g id="line2d_1">
      <defs>
       <path d="M 0 0 
L 0 3.5 
" id="m14fd2dec07" style="stroke:#262626;stroke-width:0.8;"/>
      </defs>
      <g>
       <use style="fill:#262626;stroke:#262626;stroke-width:0.8;" x="57.207273" xlink:href="#m14fd2dec07" y="101.92"/>
      </g>
     </g>
     <g id="text_1">
      <!-- 2 -->
      <defs>
       <path d="M 50.34375 8.453125 
L 50.34375 0 
L 3.03125 0 
Q 2.9375 3.171875 4.046875 6.109375 
Q 5.859375 10.9375 9.828125 15.625 
Q 13.8125 20.3125 21.34375 26.46875 
Q 33.015625 36.03125 37.109375 41.625 
Q 41.21875 47.21875 41.21875 52.203125 
Q 41.21875 57.421875 37.46875 61 
Q 33.734375 64.59375 27.734375 64.59375 
Q 21.390625 64.59375 17.578125 60.78125 
Q 13.765625 56.984375 13.71875 50.25 
L 4.6875 51.171875 
Q 5.609375 61.28125 11.65625 66.578125 
Q 17.71875 71.875 27.9375 71.875 
Q 38.234375 71.875 44.234375 66.15625 
Q 50.25 60.453125 50.25 52 
Q 50.25 47.703125 48.484375 43.546875 
Q 46.734375 39.40625 42.65625 34.8125 
Q 38.578125 30.21875 29.109375 22.21875 
Q 21.1875 15.578125 18.9375 13.203125 
Q 16.703125 10.84375 15.234375 8.453125 
z
" id="ArialMT-32"/>
      </defs>
      <g style="fill:#262626;" transform="translate(54.148757 116.793594)scale(0.11 -0.11)">
       <use xlink:href="#ArialMT-32"/>
      </g>
     </g>
    </g>
    <g id="xtick_2">
     <g id="line2d_2">
      <g>
       <use style="fill:#262626;stroke:#262626;stroke-width:0.8;" x="71.156364" xlink:href="#m14fd2dec07" y="101.92"/>
      </g>
     </g>
     <g id="text_2">
      <!-- 4 -->
      <defs>
       <path d="M 32.328125 0 
L 32.328125 17.140625 
L 1.265625 17.140625 
L 1.265625 25.203125 
L 33.9375 71.578125 
L 41.109375 71.578125 
L 41.109375 25.203125 
L 50.78125 25.203125 
L 50.78125 17.140625 
L 41.109375 17.140625 
L 41.109375 0 
z
M 32.328125 25.203125 
L 32.328125 57.46875 
L 9.90625 25.203125 
z
" id="ArialMT-34"/>
      </defs>
      <g style="fill:#262626;" transform="translate(68.097848 116.793594)scale(0.11 -0.11)">
       <use xlink:href="#ArialMT-34"/>
      </g>
     </g>
    </g>
    <g id="xtick_3">
     <g id="line2d_3">
      <g>
       <use style="fill:#262626;stroke:#262626;stroke-width:0.8;" x="85.105455" xlink:href="#m14fd2dec07" y="101.92"/>
      </g>
     </g>
     <g id="text_3">
      <!-- 6 -->
      <defs>
       <path d="M 49.75 54.046875 
L 41.015625 53.375 
Q 39.84375 58.546875 37.703125 60.890625 
Q 34.125 64.65625 28.90625 64.65625 
Q 24.703125 64.65625 21.53125 62.3125 
Q 17.390625 59.28125 14.984375 53.46875 
Q 12.59375 47.65625 12.5 36.921875 
Q 15.671875 41.75 20.265625 44.09375 
Q 24.859375 46.4375 29.890625 46.4375 
Q 38.671875 46.4375 44.84375 39.96875 
Q 51.03125 33.5 51.03125 23.25 
Q 51.03125 16.5 48.125 10.71875 
Q 45.21875 4.9375 40.140625 1.859375 
Q 35.0625 -1.21875 28.609375 -1.21875 
Q 17.625 -1.21875 10.6875 6.859375 
Q 3.765625 14.9375 3.765625 33.5 
Q 3.765625 54.25 11.421875 63.671875 
Q 18.109375 71.875 29.4375 71.875 
Q 37.890625 71.875 43.28125 67.140625 
Q 48.6875 62.40625 49.75 54.046875 
z
M 13.875 23.1875 
Q 13.875 18.65625 15.796875 14.5 
Q 17.71875 10.359375 21.1875 8.171875 
Q 24.65625 6 28.46875 6 
Q 34.03125 6 38.03125 10.484375 
Q 42.046875 14.984375 42.046875 22.703125 
Q 42.046875 30.125 38.078125 34.390625 
Q 34.125 38.671875 28.125 38.671875 
Q 22.171875 38.671875 18.015625 34.390625 
Q 13.875 30.125 13.875 23.1875 
z
" id="ArialMT-36"/>
      </defs>
      <g style="fill:#262626;" transform="translate(82.046939 116.793594)scale(0.11 -0.11)">
       <use xlink:href="#ArialMT-36"/>
      </g>
     </g>
    </g>
    <g id="xtick_4">
     <g id="line2d_4">
      <g>
       <use style="fill:#262626;stroke:#262626;stroke-width:0.8;" x="99.054545" xlink:href="#m14fd2dec07" y="101.92"/>
      </g>
     </g>
     <g id="text_4">
      <!-- 8 -->
      <defs>
       <path d="M 17.671875 38.8125 
Q 12.203125 40.828125 9.5625 44.53125 
Q 6.9375 48.25 6.9375 53.421875 
Q 6.9375 61.234375 12.546875 66.546875 
Q 18.171875 71.875 27.484375 71.875 
Q 36.859375 71.875 42.578125 66.421875 
Q 48.296875 60.984375 48.296875 53.171875 
Q 48.296875 48.1875 45.671875 44.5 
Q 43.0625 40.828125 37.75 38.8125 
Q 44.34375 36.671875 47.78125 31.875 
Q 51.21875 27.09375 51.21875 20.453125 
Q 51.21875 11.28125 44.71875 5.03125 
Q 38.234375 -1.21875 27.640625 -1.21875 
Q 17.046875 -1.21875 10.546875 5.046875 
Q 4.046875 11.328125 4.046875 20.703125 
Q 4.046875 27.6875 7.59375 32.390625 
Q 11.140625 37.109375 17.671875 38.8125 
z
M 15.921875 53.71875 
Q 15.921875 48.640625 19.1875 45.40625 
Q 22.46875 42.1875 27.6875 42.1875 
Q 32.765625 42.1875 36.015625 45.375 
Q 39.265625 48.578125 39.265625 53.21875 
Q 39.265625 58.0625 35.90625 61.359375 
Q 32.5625 64.65625 27.59375 64.65625 
Q 22.5625 64.65625 19.234375 61.421875 
Q 15.921875 58.203125 15.921875 53.71875 
z
M 13.09375 20.65625 
Q 13.09375 16.890625 14.875 13.375 
Q 16.65625 9.859375 20.171875 7.921875 
Q 23.6875 6 27.734375 6 
Q 34.03125 6 38.125 10.046875 
Q 42.234375 14.109375 42.234375 20.359375 
Q 42.234375 26.703125 38.015625 30.859375 
Q 33.796875 35.015625 27.4375 35.015625 
Q 21.234375 35.015625 17.15625 30.90625 
Q 13.09375 26.8125 13.09375 20.65625 
z
" id="ArialMT-38"/>
      </defs>
      <g style="fill:#262626;" transform="translate(95.99603 116.793594)scale(0.11 -0.11)">
       <use xlink:href="#ArialMT-38"/>
      </g>
     </g>
    </g>
    <g id="xtick_5">
     <g id="line2d_5">
      <g>
       <use style="fill:#262626;stroke:#262626;stroke-width:0.8;" x="113.003636" xlink:href="#m14fd2dec07" y="101.92"/>
      </g>
     </g>
     <g id="text_5">
      <!-- 10 -->
      <defs>
       <path d="M 37.25 0 
L 28.46875 0 
L 28.46875 56 
Q 25.296875 52.984375 20.140625 49.953125 
Q 14.984375 46.921875 10.890625 45.40625 
L 10.890625 53.90625 
Q 18.265625 57.375 23.78125 62.296875 
Q 29.296875 67.234375 31.59375 71.875 
L 37.25 71.875 
z
" id="ArialMT-31"/>
       <path d="M 4.15625 35.296875 
Q 4.15625 48 6.765625 55.734375 
Q 9.375 63.484375 14.515625 67.671875 
Q 19.671875 71.875 27.484375 71.875 
Q 33.25 71.875 37.59375 69.546875 
Q 41.9375 67.234375 44.765625 62.859375 
Q 47.609375 58.5 49.21875 52.21875 
Q 50.828125 45.953125 50.828125 35.296875 
Q 50.828125 22.703125 48.234375 14.96875 
Q 45.65625 7.234375 40.5 3 
Q 35.359375 -1.21875 27.484375 -1.21875 
Q 17.140625 -1.21875 11.234375 6.203125 
Q 4.15625 15.140625 4.15625 35.296875 
z
M 13.1875 35.296875 
Q 13.1875 17.671875 17.3125 11.828125 
Q 21.4375 6 27.484375 6 
Q 33.546875 6 37.671875 11.859375 
Q 41.796875 17.71875 41.796875 35.296875 
Q 41.796875 52.984375 37.671875 58.78125 
Q 33.546875 64.59375 27.390625 64.59375 
Q 21.34375 64.59375 17.71875 59.46875 
Q 13.1875 52.9375 13.1875 35.296875 
z
" id="ArialMT-30"/>
      </defs>
      <g style="fill:#262626;" transform="translate(106.886605 116.793594)scale(0.11 -0.11)">
       <use xlink:href="#ArialMT-31"/>
       <use x="55.615234" xlink:href="#ArialMT-30"/>
      </g>
     </g>
    </g>
    <g id="xtick_6">
     <g id="line2d_6">
      <g>
       <use style="fill:#262626;stroke:#262626;stroke-width:0.8;" x="126.952727" xlink:href="#m14fd2dec07" y="101.92"/>
      </g>
     </g>
     <g id="text_6">
      <!-- 12 -->
      <g style="fill:#262626;" transform="translate(120.835696 116.793594)scale(0.11 -0.11)">
       <use xlink:href="#ArialMT-31"/>
       <use x="55.615234" xlink:href="#ArialMT-32"/>
      </g>
     </g>
    </g>
    <g id="text_7">
     <!-- pH -->
     <defs>
      <path d="M 6.59375 -19.875 
L 6.59375 51.859375 
L 14.59375 51.859375 
L 14.59375 45.125 
Q 17.4375 49.078125 21 51.046875 
Q 24.5625 53.03125 29.640625 53.03125 
Q 36.28125 53.03125 41.359375 49.609375 
Q 46.4375 46.1875 49.015625 39.953125 
Q 51.609375 33.734375 51.609375 26.3125 
Q 51.609375 18.359375 48.75 11.984375 
Q 45.90625 5.609375 40.453125 2.21875 
Q 35.015625 -1.171875 29 -1.171875 
Q 24.609375 -1.171875 21.109375 0.6875 
Q 17.625 2.546875 15.375 5.375 
L 15.375 -19.875 
z
M 14.546875 25.640625 
Q 14.546875 15.625 18.59375 10.84375 
Q 22.65625 6.0625 28.421875 6.0625 
Q 34.28125 6.0625 38.453125 11.015625 
Q 42.625 15.96875 42.625 26.375 
Q 42.625 36.28125 38.546875 41.203125 
Q 34.46875 46.140625 28.8125 46.140625 
Q 23.1875 46.140625 18.859375 40.890625 
Q 14.546875 35.640625 14.546875 25.640625 
z
" id="ArialMT-70"/>
      <path d="M 8.015625 0 
L 8.015625 71.578125 
L 17.484375 71.578125 
L 17.484375 42.1875 
L 54.6875 42.1875 
L 54.6875 71.578125 
L 64.15625 71.578125 
L 64.15625 0 
L 54.6875 0 
L 54.6875 33.734375 
L 17.484375 33.734375 
L 17.484375 0 
z
" id="ArialMT-48"/>
     </defs>
     <g style="fill:#262626;" transform="translate(85.049453 130.853437)scale(0.11 -0.11)">
      <use xlink:href="#ArialMT-70"/>
      <use x="55.615234" xlink:href="#ArialMT-48"/>
     </g>
    </g>
   </g>
   <g id="matplotlib.axis_2">
    <g id="ytick_1">
     <g id="line2d_7">
      <defs>
       <path d="M 0 0 
L -3.5 0 
" id="m16bbc9a597" style="stroke:#262626;stroke-width:0.8;"/>
      </defs>
      <g>
       <use style="fill:#262626;stroke:#262626;stroke-width:0.8;" x="53.72" xlink:href="#m16bbc9a597" y="92.496844"/>
      </g>
     </g>
     <g id="text_8">
      <!-- 0 -->
      <g style="fill:#262626;" transform="translate(40.602969 96.433641)scale(0.11 -0.11)">
       <use xlink:href="#ArialMT-30"/>
      </g>
     </g>
    </g>
    <g id="ytick_2">
     <g id="line2d_8">
      <g>
       <use style="fill:#262626;stroke:#262626;stroke-width:0.8;" x="53.72" xlink:href="#m16bbc9a597" y="55.91893"/>
      </g>
     </g>
     <g id="text_9">
      <!-- 50 -->
      <defs>
       <path d="M 4.15625 18.75 
L 13.375 19.53125 
Q 14.40625 12.796875 18.140625 9.390625 
Q 21.875 6 27.15625 6 
Q 33.5 6 37.890625 10.78125 
Q 42.28125 15.578125 42.28125 23.484375 
Q 42.28125 31 38.0625 35.34375 
Q 33.84375 39.703125 27 39.703125 
Q 22.75 39.703125 19.328125 37.765625 
Q 15.921875 35.84375 13.96875 32.765625 
L 5.71875 33.84375 
L 12.640625 70.609375 
L 48.25 70.609375 
L 48.25 62.203125 
L 19.671875 62.203125 
L 15.828125 42.96875 
Q 22.265625 47.46875 29.34375 47.46875 
Q 38.71875 47.46875 45.15625 40.96875 
Q 51.609375 34.46875 51.609375 24.265625 
Q 51.609375 14.546875 45.953125 7.46875 
Q 39.0625 -1.21875 27.15625 -1.21875 
Q 17.390625 -1.21875 11.203125 4.25 
Q 5.03125 9.71875 4.15625 18.75 
z
" id="ArialMT-35"/>
      </defs>
      <g style="fill:#262626;" transform="translate(34.485938 59.855727)scale(0.11 -0.11)">
       <use xlink:href="#ArialMT-35"/>
       <use x="55.615234" xlink:href="#ArialMT-30"/>
      </g>
     </g>
    </g>
    <g id="ytick_3">
     <g id="line2d_9">
      <g>
       <use style="fill:#262626;stroke:#262626;stroke-width:0.8;" x="53.72" xlink:href="#m16bbc9a597" y="19.341015"/>
      </g>
     </g>
     <g id="text_10">
      <!-- 100 -->
      <g style="fill:#262626;" transform="translate(28.368906 23.277812)scale(0.11 -0.11)">
       <use xlink:href="#ArialMT-31"/>
       <use x="55.615234" xlink:href="#ArialMT-30"/>
       <use x="111.230469" xlink:href="#ArialMT-30"/>
      </g>
     </g>
    </g>
    <g id="text_11">
     <!-- Free energy ($k_B T$) -->
     <defs>
      <path d="M 8.203125 0 
L 8.203125 71.578125 
L 56.5 71.578125 
L 56.5 63.140625 
L 17.671875 63.140625 
L 17.671875 40.96875 
L 51.265625 40.96875 
L 51.265625 32.515625 
L 17.671875 32.515625 
L 17.671875 0 
z
" id="ArialMT-46"/>
      <path d="M 6.5 0 
L 6.5 51.859375 
L 14.40625 51.859375 
L 14.40625 44 
Q 17.4375 49.515625 20 51.265625 
Q 22.5625 53.03125 25.640625 53.03125 
Q 30.078125 53.03125 34.671875 50.203125 
L 31.640625 42.046875 
Q 28.421875 43.953125 25.203125 43.953125 
Q 22.3125 43.953125 20.015625 42.21875 
Q 17.71875 40.484375 16.75 37.40625 
Q 15.28125 32.71875 15.28125 27.15625 
L 15.28125 0 
z
" id="ArialMT-72"/>
      <path d="M 42.09375 16.703125 
L 51.171875 15.578125 
Q 49.03125 7.625 43.21875 3.21875 
Q 37.40625 -1.171875 28.375 -1.171875 
Q 17 -1.171875 10.328125 5.828125 
Q 3.65625 12.84375 3.65625 25.484375 
Q 3.65625 38.578125 10.390625 45.796875 
Q 17.140625 53.03125 27.875 53.03125 
Q 38.28125 53.03125 44.875 45.953125 
Q 51.46875 38.875 51.46875 26.03125 
Q 51.46875 25.25 51.421875 23.6875 
L 12.75 23.6875 
Q 13.234375 15.140625 17.578125 10.59375 
Q 21.921875 6.0625 28.421875 6.0625 
Q 33.25 6.0625 36.671875 8.59375 
Q 40.09375 11.140625 42.09375 16.703125 
z
M 13.234375 30.90625 
L 42.1875 30.90625 
Q 41.609375 37.453125 38.875 40.71875 
Q 34.671875 45.796875 27.984375 45.796875 
Q 21.921875 45.796875 17.796875 41.75 
Q 13.671875 37.703125 13.234375 30.90625 
z
" id="ArialMT-65"/>
      <path id="ArialMT-20"/>
      <path d="M 6.59375 0 
L 6.59375 51.859375 
L 14.5 51.859375 
L 14.5 44.484375 
Q 20.21875 53.03125 31 53.03125 
Q 35.6875 53.03125 39.625 51.34375 
Q 43.5625 49.65625 45.515625 46.921875 
Q 47.46875 44.1875 48.25 40.4375 
Q 48.734375 37.984375 48.734375 31.890625 
L 48.734375 0 
L 39.9375 0 
L 39.9375 31.546875 
Q 39.9375 36.921875 38.90625 39.578125 
Q 37.890625 42.234375 35.28125 43.8125 
Q 32.671875 45.40625 29.15625 45.40625 
Q 23.53125 45.40625 19.453125 41.84375 
Q 15.375 38.28125 15.375 28.328125 
L 15.375 0 
z
" id="ArialMT-6e"/>
      <path d="M 4.984375 -4.296875 
L 13.53125 -5.5625 
Q 14.0625 -9.515625 16.5 -11.328125 
Q 19.78125 -13.765625 25.4375 -13.765625 
Q 31.546875 -13.765625 34.859375 -11.328125 
Q 38.1875 -8.890625 39.359375 -4.5 
Q 40.046875 -1.8125 39.984375 6.78125 
Q 34.234375 0 25.640625 0 
Q 14.9375 0 9.078125 7.71875 
Q 3.21875 15.4375 3.21875 26.21875 
Q 3.21875 33.640625 5.90625 39.90625 
Q 8.59375 46.1875 13.6875 49.609375 
Q 18.796875 53.03125 25.6875 53.03125 
Q 34.859375 53.03125 40.828125 45.609375 
L 40.828125 51.859375 
L 48.921875 51.859375 
L 48.921875 7.03125 
Q 48.921875 -5.078125 46.453125 -10.125 
Q 44 -15.1875 38.640625 -18.109375 
Q 33.296875 -21.046875 25.484375 -21.046875 
Q 16.21875 -21.046875 10.5 -16.875 
Q 4.78125 -12.703125 4.984375 -4.296875 
z
M 12.25 26.859375 
Q 12.25 16.65625 16.296875 11.96875 
Q 20.359375 7.28125 26.46875 7.28125 
Q 32.515625 7.28125 36.609375 11.9375 
Q 40.71875 16.609375 40.71875 26.5625 
Q 40.71875 36.078125 36.5 40.90625 
Q 32.28125 45.75 26.3125 45.75 
Q 20.453125 45.75 16.34375 40.984375 
Q 12.25 36.234375 12.25 26.859375 
z
" id="ArialMT-67"/>
      <path d="M 6.203125 -19.96875 
L 5.21875 -11.71875 
Q 8.109375 -12.5 10.25 -12.5 
Q 13.1875 -12.5 14.9375 -11.515625 
Q 16.703125 -10.546875 17.828125 -8.796875 
Q 18.65625 -7.46875 20.515625 -2.25 
Q 20.75 -1.515625 21.296875 -0.09375 
L 1.609375 51.859375 
L 11.078125 51.859375 
L 21.875 21.828125 
Q 23.96875 16.109375 25.640625 9.8125 
Q 27.15625 15.875 29.25 21.625 
L 40.328125 51.859375 
L 49.125 51.859375 
L 29.390625 -0.875 
Q 26.21875 -9.421875 24.46875 -12.640625 
Q 22.125 -17 19.09375 -19.015625 
Q 16.0625 -21.046875 11.859375 -21.046875 
Q 9.328125 -21.046875 6.203125 -19.96875 
z
" id="ArialMT-79"/>
      <path d="M 23.390625 -21.046875 
Q 16.109375 -11.859375 11.078125 0.4375 
Q 6.0625 12.75 6.0625 25.921875 
Q 6.0625 37.546875 9.8125 48.1875 
Q 14.203125 60.546875 23.390625 72.796875 
L 29.6875 72.796875 
Q 23.78125 62.640625 21.875 58.296875 
Q 18.890625 51.5625 17.1875 44.234375 
Q 15.09375 35.109375 15.09375 25.875 
Q 15.09375 2.390625 29.6875 -21.046875 
z
" id="ArialMT-28"/>
      <path d="M 18.3125 75.984375 
L 27.296875 75.984375 
L 18.703125 31.6875 
L 49.515625 54.6875 
L 61.1875 54.6875 
L 26.8125 28.515625 
L 51.90625 0 
L 41.015625 0 
L 17.671875 26.703125 
L 12.5 0 
L 3.515625 0 
z
" id="DejaVuSans-Oblique-6b"/>
      <path d="M 16.890625 72.90625 
L 42.09375 72.90625 
Q 52.34375 72.90625 57.421875 69.09375 
Q 62.5 65.28125 62.5 57.625 
Q 62.5 50.59375 58.125 45.484375 
Q 53.765625 40.375 46.6875 39.3125 
Q 52.734375 37.9375 55.765625 34.078125 
Q 58.796875 30.21875 58.796875 23.78125 
Q 58.796875 12.796875 50.65625 6.390625 
Q 42.53125 0 28.421875 0 
L 2.6875 0 
z
M 19.28125 34.8125 
L 14.109375 8.109375 
L 29.984375 8.109375 
Q 38.921875 8.109375 43.75 12.203125 
Q 48.578125 16.3125 48.578125 23.78125 
Q 48.578125 29.546875 45.375 32.171875 
Q 42.1875 34.8125 35.109375 34.8125 
z
M 25.09375 64.796875 
L 20.796875 42.828125 
L 35.5 42.828125 
Q 43.359375 42.828125 47.78125 46.234375 
Q 52.203125 49.65625 52.203125 55.71875 
Q 52.203125 60.453125 49.21875 62.625 
Q 46.234375 64.796875 39.703125 64.796875 
z
" id="DejaVuSans-Oblique-42"/>
      <path d="M 5.90625 72.90625 
L 67.578125 72.90625 
L 66.015625 64.59375 
L 39.984375 64.59375 
L 27.484375 0 
L 17.578125 0 
L 30.078125 64.59375 
L 4.296875 64.59375 
z
" id="DejaVuSans-Oblique-54"/>
      <path d="M 12.359375 -21.046875 
L 6.0625 -21.046875 
Q 20.65625 2.390625 20.65625 25.875 
Q 20.65625 35.0625 18.5625 44.09375 
Q 16.890625 51.421875 13.921875 58.15625 
Q 12.015625 62.546875 6.0625 72.796875 
L 12.359375 72.796875 
Q 21.53125 60.546875 25.921875 48.1875 
Q 29.6875 37.546875 29.6875 25.921875 
Q 29.6875 12.75 24.625 0.4375 
Q 19.578125 -11.859375 12.359375 -21.046875 
z
" id="ArialMT-29"/>
     </defs>
     <g style="fill:#262626;" transform="translate(21.948906 101.96)rotate(-90)scale(0.11 -0.11)">
      <use transform="translate(0 0.015625)" xlink:href="#ArialMT-46"/>
      <use transform="translate(61.083984 0.015625)" xlink:href="#ArialMT-72"/>
      <use transform="translate(94.384766 0.015625)" xlink:href="#ArialMT-65"/>
      <use transform="translate(150 0.015625)" xlink:href="#ArialMT-65"/>
      <use transform="translate(205.615234 0.015625)" xlink:href="#ArialMT-20"/>
      <use transform="translate(233.398438 0.015625)" xlink:href="#ArialMT-65"/>
      <use transform="translate(289.013672 0.015625)" xlink:href="#ArialMT-6e"/>
      <use transform="translate(344.628906 0.015625)" xlink:href="#ArialMT-65"/>
      <use transform="translate(400.244141 0.015625)" xlink:href="#ArialMT-72"/>
      <use transform="translate(433.544922 0.015625)" xlink:href="#ArialMT-67"/>
      <use transform="translate(489.160156 0.015625)" xlink:href="#ArialMT-79"/>
      <use transform="translate(539.160156 0.015625)" xlink:href="#ArialMT-20"/>
      <use transform="translate(566.943359 0.015625)" xlink:href="#ArialMT-28"/>
      <use transform="translate(600.244141 0.015625)" xlink:href="#DejaVuSans-Oblique-6b"/>
      <use transform="translate(658.154297 -16.390625)scale(0.7)" xlink:href="#DejaVuSans-Oblique-42"/>
      <use transform="translate(708.911133 0.015625)" xlink:href="#DejaVuSans-Oblique-54"/>
      <use transform="translate(769.995117 0.015625)" xlink:href="#ArialMT-29"/>
     </g>
    </g>
   </g>
   <g id="patch_3">
    <path d="M 53.72 101.92 
L 53.72 13.56 
" style="fill:none;stroke:#262626;stroke-linecap:square;stroke-linejoin:miter;stroke-width:0.8;"/>
   </g>
   <g id="patch_4">
    <path d="M 53.72 101.92 
L 130.44 101.92 
" style="fill:none;stroke:#262626;stroke-linecap:square;stroke-linejoin:miter;stroke-width:0.8;"/>
   </g>
   <g id="line2d_10">
    <path clip-path="url(#pc807365eed)" d="M 57.207273 68.11062 
L 57.904727 67.605277 
L 58.602182 67.099935 
L 59.299636 66.594592 
L 59.997091 66.08925 
L 60.694545 65.583907 
L 61.392 65.078564 
L 62.089455 64.573222 
L 62.786909 64.067879 
L 63.484364 63.562537 
L 64.181818 63.057194 
L 64.879273 62.551852 
L 65.576727 62.046509 
L 66.274182 61.541167 
L 66.971636 61.035824 
L 67.669091 60.530481 
L 68.366545 60.025139 
L 69.064 59.519796 
L 69.761455 59.014454 
L 70.458909 58.509111 
L 71.156364 58.003769 
L 71.853818 57.498426 
L 72.551273 56.993083 
L 73.248727 56.487741 
L 73.946182 55.982398 
L 74.643636 55.477056 
L 75.341091 54.971713 
L 76.038545 54.466371 
L 76.736 53.961028 
L 77.433455 53.455686 
L 78.130909 52.950343 
L 78.828364 52.445 
L 79.525818 51.939658 
L 80.223273 51.434315 
L 80.920727 50.928973 
L 81.618182 50.42363 
L 82.315636 49.918288 
L 83.013091 49.412945 
L 83.710545 48.907602 
L 84.408 48.40226 
L 85.105455 47.896917 
L 85.802909 47.391575 
L 86.500364 46.886232 
L 87.197818 46.38089 
L 87.895273 45.875547 
L 88.592727 45.370205 
L 89.290182 44.864862 
L 89.987636 44.359519 
L 90.685091 43.854177 
L 91.382545 43.348834 
L 92.08 42.843492 
L 92.777455 42.338149 
L 93.474909 41.832807 
L 94.172364 41.327464 
L 94.869818 40.822121 
L 95.567273 40.316779 
L 96.264727 39.811436 
L 96.962182 39.306094 
L 97.659636 38.800751 
L 98.357091 38.295409 
L 99.054545 37.790066 
L 99.752 37.284724 
L 100.449455 36.779381 
L 101.146909 36.274038 
L 101.844364 35.768696 
L 102.541818 35.263353 
L 103.239273 34.758011 
L 103.936727 34.252668 
L 104.634182 33.747326 
L 105.331636 33.241983 
L 106.029091 32.73664 
L 106.726545 32.231298 
L 107.424 31.725955 
L 108.121455 31.220613 
L 108.818909 30.71527 
L 109.516364 30.209928 
L 110.213818 29.704585 
L 110.911273 29.199243 
L 111.608727 28.6939 
L 112.306182 28.188557 
L 113.003636 27.683215 
L 113.701091 27.177872 
L 114.398545 26.67253 
L 115.096 26.167187 
L 115.793455 25.661845 
L 116.490909 25.156502 
L 117.188364 24.65116 
L 117.885818 24.145817 
L 118.583273 23.640474 
L 119.280727 23.135132 
L 119.978182 22.629789 
L 120.675636 22.124447 
L 121.373091 21.619104 
L 122.070545 21.113762 
L 122.768 20.608419 
L 123.465455 20.103076 
L 124.162909 19.597734 
L 124.860364 19.092391 
L 125.557818 18.587049 
L 126.255273 18.081706 
L 126.952727 17.576364 
" style="fill:none;stroke:#2166ac;stroke-linecap:round;stroke-width:1.5;"/>
   </g>
   <g id="line2d_11">
    <path clip-path="url(#pc807365eed)" d="M 57.207273 87.835825 
L 57.904727 87.49893 
L 58.602182 87.162034 
L 59.299636 86.825139 
L 59.997091 86.488244 
L 60.694545 86.151349 
L 61.392 85.814454 
L 62.089455 85.477559 
L 62.786909 85.140664 
L 63.484364 84.803769 
L 64.181818 84.466874 
L 64.879273 84.129979 
L 65.576727 83.793084 
L 66.274182 83.456189 
L 66.971636 83.119294 
L 67.669091 82.782399 
L 68.366545 82.445504 
L 69.064 82.108609 
L 69.761455 81.771714 
L 70.458909 81.434819 
L 71.156364 81.097924 
L 71.853818 80.761029 
L 72.551273 80.424134 
L 73.248727 80.087239 
L 73.946182 79.750344 
L 74.643636 79.413449 
L 75.341091 79.076554 
L 76.038545 78.739658 
L 76.736 78.402763 
L 77.433455 78.065868 
L 78.130909 77.728973 
L 78.828364 77.392078 
L 79.525818 77.055183 
L 80.223273 76.718288 
L 80.920727 76.381393 
L 81.618182 76.044498 
L 82.315636 75.707603 
L 83.013091 75.370708 
L 83.710545 75.033813 
L 84.408 74.696918 
L 85.105455 74.360023 
L 85.802909 74.023128 
L 86.500364 73.686233 
L 87.197818 73.349338 
L 87.895273 73.012443 
L 88.592727 72.675548 
L 89.290182 72.338653 
L 89.987636 72.001758 
L 90.685091 71.664863 
L 91.382545 71.327968 
L 92.08 70.991073 
L 92.777455 70.654177 
L 93.474909 70.317282 
L 94.172364 69.980387 
L 94.869818 69.643492 
L 95.567273 69.306597 
L 96.264727 68.969702 
L 96.962182 68.632807 
L 97.659636 68.295912 
L 98.357091 67.959017 
L 99.054545 67.622122 
L 99.752 67.285227 
L 100.449455 66.948332 
L 101.146909 66.611437 
L 101.844364 66.274542 
L 102.541818 65.937647 
L 103.239273 65.600752 
L 103.936727 65.263857 
L 104.634182 64.926962 
L 105.331636 64.590067 
L 106.029091 64.253172 
L 106.726545 63.916277 
L 107.424 63.579382 
L 108.121455 63.242487 
L 108.818909 62.905592 
L 109.516364 62.568696 
L 110.213818 62.231801 
L 110.911273 61.894906 
L 111.608727 61.558011 
L 112.306182 61.221116 
L 113.003636 60.884221 
L 113.701091 60.547326 
L 114.398545 60.210431 
L 115.096 59.873536 
L 115.793455 59.536641 
L 116.490909 59.199746 
L 117.188364 58.862851 
L 117.885818 58.525956 
L 118.583273 58.189061 
L 119.280727 57.852166 
L 119.978182 57.515271 
L 120.675636 57.178376 
L 121.373091 56.841481 
L 122.070545 56.504586 
L 122.768 56.167691 
L 123.465455 55.830796 
L 124.162909 55.493901 
L 124.860364 55.157006 
L 125.557818 54.820111 
L 126.255273 54.483215 
L 126.952727 54.14632 
" style="fill:none;stroke:#4393c3;stroke-linecap:round;stroke-width:1.5;"/>
   </g>
   <g id="line2d_12">
    <path clip-path="url(#pc807365eed)" d="M 57.207273 71.558638 
L 57.904727 71.727086 
L 58.602182 71.895533 
L 59.299636 72.063981 
L 59.997091 72.232428 
L 60.694545 72.400876 
L 61.392 72.569323 
L 62.089455 72.737771 
L 62.786909 72.906218 
L 63.484364 73.074666 
L 64.181818 73.243114 
L 64.879273 73.411561 
L 65.576727 73.580009 
L 66.274182 73.748456 
L 66.971636 73.916904 
L 67.669091 74.085351 
L 68.366545 74.253799 
L 69.064 74.422246 
L 69.761455 74.590694 
L 70.458909 74.759141 
L 71.156364 74.927589 
L 71.853818 75.096036 
L 72.551273 75.264484 
L 73.248727 75.432931 
L 73.946182 75.601379 
L 74.643636 75.769826 
L 75.341091 75.938274 
L 76.038545 76.106721 
L 76.736 76.275169 
L 77.433455 76.443616 
L 78.130909 76.612064 
L 78.828364 76.780511 
L 79.525818 76.948959 
L 80.223273 77.117406 
L 80.920727 77.285854 
L 81.618182 77.454302 
L 82.315636 77.622749 
L 83.013091 77.791197 
L 83.710545 77.959644 
L 84.408 78.128092 
L 85.105455 78.296539 
L 85.802909 78.464987 
L 86.500364 78.633434 
L 87.197818 78.801882 
L 87.895273 78.970329 
L 88.592727 79.138777 
L 89.290182 79.307224 
L 89.987636 79.475672 
L 90.685091 79.644119 
L 91.382545 79.812567 
L 92.08 79.981014 
L 92.777455 80.149462 
L 93.474909 80.317909 
L 94.172364 80.486357 
L 94.869818 80.654804 
L 95.567273 80.823252 
L 96.264727 80.991699 
L 96.962182 81.160147 
L 97.659636 81.328594 
L 98.357091 81.497042 
L 99.054545 81.66549 
L 99.752 81.833937 
L 100.449455 82.002385 
L 101.146909 82.170832 
L 101.844364 82.33928 
L 102.541818 82.507727 
L 103.239273 82.676175 
L 103.936727 82.844622 
L 104.634182 83.01307 
L 105.331636 83.181517 
L 106.029091 83.349965 
L 106.726545 83.518412 
L 107.424 83.68686 
L 108.121455 83.855307 
L 108.818909 84.023755 
L 109.516364 84.192202 
L 110.213818 84.36065 
L 110.911273 84.529097 
L 111.608727 84.697545 
L 112.306182 84.865992 
L 113.003636 85.03444 
L 113.701091 85.202887 
L 114.398545 85.371335 
L 115.096 85.539783 
L 115.793455 85.70823 
L 116.490909 85.876678 
L 117.188364 86.045125 
L 117.885818 86.213573 
L 118.583273 86.38202 
L 119.280727 86.550468 
L 119.978182 86.718915 
L 120.675636 86.887363 
L 121.373091 87.05581 
L 122.070545 87.224258 
L 122.768 87.392705 
L 123.465455 87.561153 
L 124.162909 87.7296 
L 124.860364 87.898048 
L 125.557818 88.066495 
L 126.255273 88.234943 
L 126.952727 88.40339 
" style="fill:none;stroke:#f4a582;stroke-linecap:round;stroke-width:1.5;"/>
   </g>
   <g id="line2d_13">
    <path clip-path="url(#pc807365eed)" d="M 57.207273 97.903636 
L 57.904727 97.735189 
L 58.602182 97.566741 
L 59.299636 97.398294 
L 59.997091 97.229846 
L 60.694545 97.061399 
L 61.392 96.892951 
L 62.089455 96.724504 
L 62.786909 96.556056 
L 63.484364 96.387609 
L 64.181818 96.219161 
L 64.879273 96.050714 
L 65.576727 95.882266 
L 66.274182 95.713819 
L 66.971636 95.545371 
L 67.669091 95.376924 
L 68.366545 95.208476 
L 69.064 95.040029 
L 69.761455 94.871581 
L 70.458909 94.703133 
L 71.156364 94.534686 
L 71.853818 94.366238 
L 72.551273 94.197791 
L 73.248727 94.029343 
L 73.946182 93.860896 
L 74.643636 93.692448 
L 75.341091 93.524001 
L 76.038545 93.355553 
L 76.736 93.187106 
L 77.433455 93.018658 
L 78.130909 92.850211 
L 78.828364 92.681763 
L 79.525818 92.513316 
L 80.223273 92.344868 
L 80.920727 92.176421 
L 81.618182 92.007973 
L 82.315636 91.839526 
L 83.013091 91.671078 
L 83.710545 91.502631 
L 84.408 91.334183 
L 85.105455 91.165736 
L 85.802909 90.997288 
L 86.500364 90.82884 
L 87.197818 90.660393 
L 87.895273 90.491945 
L 88.592727 90.323498 
L 89.290182 90.15505 
L 89.987636 89.986603 
L 90.685091 89.818155 
L 91.382545 89.649708 
L 92.08 89.48126 
L 92.777455 89.312813 
L 93.474909 89.144365 
L 94.172364 88.975918 
L 94.869818 88.80747 
L 95.567273 88.639023 
L 96.264727 88.470575 
L 96.962182 88.302128 
L 97.659636 88.13368 
L 98.357091 87.965233 
L 99.054545 87.796785 
L 99.752 87.628338 
L 100.449455 87.45989 
L 101.146909 87.291443 
L 101.844364 87.122995 
L 102.541818 86.954548 
L 103.239273 86.7861 
L 103.936727 86.617652 
L 104.634182 86.449205 
L 105.331636 86.280757 
L 106.029091 86.11231 
L 106.726545 85.943862 
L 107.424 85.775415 
L 108.121455 85.606967 
L 108.818909 85.43852 
L 109.516364 85.270072 
L 110.213818 85.101625 
L 110.911273 84.933177 
L 111.608727 84.76473 
L 112.306182 84.596282 
L 113.003636 84.427835 
L 113.701091 84.259387 
L 114.398545 84.09094 
L 115.096 83.922492 
L 115.793455 83.754045 
L 116.490909 83.585597 
L 117.188364 83.41715 
L 117.885818 83.248702 
L 118.583273 83.080255 
L 119.280727 82.911807 
L 119.978182 82.74336 
L 120.675636 82.574912 
L 121.373091 82.406464 
L 122.070545 82.238017 
L 122.768 82.069569 
L 123.465455 81.901122 
L 124.162909 81.732674 
L 124.860364 81.564227 
L 125.557818 81.395779 
L 126.255273 81.227332 
L 126.952727 81.058884 
" style="fill:none;stroke:#92c5de;stroke-linecap:round;stroke-width:1.5;"/>
   </g>
   <g id="line2d_14">
    <path clip-path="url(#pc807365eed)" d="M 57.207273 92.496844 
L 57.904727 92.496844 
L 58.602182 92.496844 
L 59.299636 92.496844 
L 59.997091 92.496844 
L 60.694545 92.496844 
L 61.392 92.496844 
L 62.089455 92.496844 
L 62.786909 92.496844 
L 63.484364 92.496844 
L 64.181818 92.496844 
L 64.879273 92.496844 
L 65.576727 92.496844 
L 66.274182 92.496844 
L 66.971636 92.496844 
L 67.669091 92.496844 
L 68.366545 92.496844 
L 69.064 92.496844 
L 69.761455 92.496844 
L 70.458909 92.496844 
L 71.156364 92.496844 
L 71.853818 92.496844 
L 72.551273 92.496844 
L 73.248727 92.496844 
L 73.946182 92.496844 
L 74.643636 92.496844 
L 75.341091 92.496844 
L 76.038545 92.496844 
L 76.736 92.496844 
L 77.433455 92.496844 
L 78.130909 92.496844 
L 78.828364 92.496844 
L 79.525818 92.496844 
L 80.223273 92.496844 
L 80.920727 92.496844 
L 81.618182 92.496844 
L 82.315636 92.496844 
L 83.013091 92.496844 
L 83.710545 92.496844 
L 84.408 92.496844 
L 85.105455 92.496844 
L 85.802909 92.496844 
L 86.500364 92.496844 
L 87.197818 92.496844 
L 87.895273 92.496844 
L 88.592727 92.496844 
L 89.290182 92.496844 
L 89.987636 92.496844 
L 90.685091 92.496844 
L 91.382545 92.496844 
L 92.08 92.496844 
L 92.777455 92.496844 
L 93.474909 92.496844 
L 94.172364 92.496844 
L 94.869818 92.496844 
L 95.567273 92.496844 
L 96.264727 92.496844 
L 96.962182 92.496844 
L 97.659636 92.496844 
L 98.357091 92.496844 
L 99.054545 92.496844 
L 99.752 92.496844 
L 100.449455 92.496844 
L 101.146909 92.496844 
L 101.844364 92.496844 
L 102.541818 92.496844 
L 103.239273 92.496844 
L 103.936727 92.496844 
L 104.634182 92.496844 
L 105.331636 92.496844 
L 106.029091 92.496844 
L 106.726545 92.496844 
L 107.424 92.496844 
L 108.121455 92.496844 
L 108.818909 92.496844 
L 109.516364 92.496844 
L 110.213818 92.496844 
L 110.911273 92.496844 
L 111.608727 92.496844 
L 112.306182 92.496844 
L 113.003636 92.496844 
L 113.701091 92.496844 
L 114.398545 92.496844 
L 115.096 92.496844 
L 115.793455 92.496844 
L 116.490909 92.496844 
L 117.188364 92.496844 
L 117.885818 92.496844 
L 118.583273 92.496844 
L 119.280727 92.496844 
L 119.978182 92.496844 
L 120.675636 92.496844 
L 121.373091 92.496844 
L 122.070545 92.496844 
L 122.768 92.496844 
L 123.465455 92.496844 
L 124.162909 92.496844 
L 124.860364 92.496844 
L 125.557818 92.496844 
L 126.255273 92.496844 
L 126.952727 92.496844 
" style="fill:none;stroke:#333333;stroke-linecap:round;stroke-width:1.5;"/>
   </g>
  </g>
 </g>
 <defs>
  <clipPath id="pc807365eed">
   <rect height="88.36" width="76.72" x="53.72" y="13.56"/>
  </clipPath>
 </defs>
</svg>
