<?xml version="1.0" encoding="utf-8" standalone="no"?>
<!DOCTYPE svg PUBLIC "-//W3C//DTD SVG 1.1//EN"
  "http://www.w3.org/Graphics/SVG/1.1/DTD/svg11.dtd">
<!-- Created with matplotlib (http://matplotlib.org/) -->
<svg height="144pt" version="1.1" viewBox="0 0 144 144" width="144pt" xmlns="http://www.w3.org/2000/svg" xmlns:xlink="http://www.w3.org/1999/xlink">
 <defs>
  <style type="text/css">
*{stroke-linecap:butt;stroke-linejoin:round;}
  </style>
 </defs>
 <g id="figure_1">
  <g id="patch_1">
   <path d="M 0 144 
L 144 144 
L 144 0 
L 0 0 
z
" style="fill:#ffffff;"/>
  </g>
  <g id="axes_1">
   <g id="patch_2">
    <path d="M 41.96 101.92 
L 130.44 101.92 
L 130.44 27.48 
L 41.96 27.48 
z
" style="fill:#ffffff;"/>
   </g>
   <g id="matplotlib.axis_1">
    <g id="xtick_1">
     <g id="line2d_1">
      <defs>
       <path d="M 0 0 
L 0 3.5 
" id="meb41c705f4" style="stroke:#262626;stroke-width:0.8;"/>
      </defs>
      <g>
       <use style="fill:#262626;stroke:#262626;stroke-width:0.8;" x="45.981818" xlink:href="#meb41c705f4" y="101.92"/>
      </g>
     </g>
     <g id="text_1">
      <!-- 2 -->
      <defs>
       <path d="M 50.34375 8.453125 
L 50.34375 0 
L 3.03125 0 
Q 2.9375 3.171875 4.046875 6.109375 
Q 5.859375 10.9375 9.828125 15.625 
Q 13.8125 20.3125 21.34375 26.46875 
Q 33.015625 36.03125 37.109375 41.625 
Q 41.21875 47.21875 41.21875 52.203125 
Q 41.21875 57.421875 37.46875 61 
Q 33.734375 64.59375 27.734375 64.59375 
Q 21.390625 64.59375 17.578125 60.78125 
Q 13.765625 56.984375 13.71875 50.25 
L 4.6875 51.171875 
Q 5.609375 61.28125 11.65625 66.578125 
Q 17.71875 71.875 27.9375 71.875 
Q 38.234375 71.875 44.234375 66.15625 
Q 50.25 60.453125 50.25 52 
Q 50.25 47.703125 48.484375 43.546875 
Q 46.734375 39.40625 42.65625 34.8125 
Q 38.578125 30.21875 29.109375 22.21875 
Q 21.1875 15.578125 18.9375 13.203125 
Q 16.703125 10.84375 15.234375 8.453125 
z
" id="ArialMT-32"/>
      </defs>
      <g style="fill:#262626;" transform="translate(42.923303 116.793594)scale(0.11 -0.11)">
       <use xlink:href="#ArialMT-32"/>
      </g>
     </g>
    </g>
    <g id="xtick_2">
     <g id="line2d_2">
      <g>
       <use style="fill:#262626;stroke:#262626;stroke-width:0.8;" x="62.069091" xlink:href="#meb41c705f4" y="101.92"/>
      </g>
     </g>
     <g id="text_2">
      <!-- 4 -->
      <defs>
       <path d="M 32.328125 0 
L 32.328125 17.140625 
L 1.265625 17.140625 
L 1.265625 25.203125 
L 33.9375 71.578125 
L 41.109375 71.578125 
L 41.109375 25.203125 
L 50.78125 25.203125 
L 50.78125 17.140625 
L 41.109375 17.140625 
L 41.109375 0 
z
M 32.328125 25.203125 
L 32.328125 57.46875 
L 9.90625 25.203125 
z
" id="ArialMT-34"/>
      </defs>
      <g style="fill:#262626;" transform="translate(59.010575 116.793594)scale(0.11 -0.11)">
       <use xlink:href="#ArialMT-34"/>
      </g>
     </g>
    </g>
    <g id="xtick_3">
     <g id="line2d_3">
      <g>
       <use style="fill:#262626;stroke:#262626;stroke-width:0.8;" x="78.156364" xlink:href="#meb41c705f4" y="101.92"/>
      </g>
     </g>
     <g id="text_3">
      <!-- 6 -->
      <defs>
       <path d="M 49.75 54.046875 
L 41.015625 53.375 
Q 39.84375 58.546875 37.703125 60.890625 
Q 34.125 64.65625 28.90625 64.65625 
Q 24.703125 64.65625 21.53125 62.3125 
Q 17.390625 59.28125 14.984375 53.46875 
Q 12.59375 47.65625 12.5 36.921875 
Q 15.671875 41.75 20.265625 44.09375 
Q 24.859375 46.4375 29.890625 46.4375 
Q 38.671875 46.4375 44.84375 39.96875 
Q 51.03125 33.5 51.03125 23.25 
Q 51.03125 16.5 48.125 10.71875 
Q 45.21875 4.9375 40.140625 1.859375 
Q 35.0625 -1.21875 28.609375 -1.21875 
Q 17.625 -1.21875 10.6875 6.859375 
Q 3.765625 14.9375 3.765625 33.5 
Q 3.765625 54.25 11.421875 63.671875 
Q 18.109375 71.875 29.4375 71.875 
Q 37.890625 71.875 43.28125 67.140625 
Q 48.6875 62.40625 49.75 54.046875 
z
M 13.875 23.1875 
Q 13.875 18.65625 15.796875 14.5 
Q 17.71875 10.359375 21.1875 8.171875 
Q 24.65625 6 28.46875 6 
Q 34.03125 6 38.03125 10.484375 
Q 42.046875 14.984375 42.046875 22.703125 
Q 42.046875 30.125 38.078125 34.390625 
Q 34.125 38.671875 28.125 38.671875 
Q 22.171875 38.671875 18.015625 34.390625 
Q 13.875 30.125 13.875 23.1875 
z
" id="ArialMT-36"/>
      </defs>
      <g style="fill:#262626;" transform="translate(75.097848 116.793594)scale(0.11 -0.11)">
       <use xlink:href="#ArialMT-36"/>
      </g>
     </g>
    </g>
    <g id="xtick_4">
     <g id="line2d_4">
      <g>
       <use style="fill:#262626;stroke:#262626;stroke-width:0.8;" x="94.243636" xlink:href="#meb41c705f4" y="101.92"/>
      </g>
     </g>
     <g id="text_4">
      <!-- 8 -->
      <defs>
       <path d="M 17.671875 38.8125 
Q 12.203125 40.828125 9.5625 44.53125 
Q 6.9375 48.25 6.9375 53.421875 
Q 6.9375 61.234375 12.546875 66.546875 
Q 18.171875 71.875 27.484375 71.875 
Q 36.859375 71.875 42.578125 66.421875 
Q 48.296875 60.984375 48.296875 53.171875 
Q 48.296875 48.1875 45.671875 44.5 
Q 43.0625 40.828125 37.75 38.8125 
Q 44.34375 36.671875 47.78125 31.875 
Q 51.21875 27.09375 51.21875 20.453125 
Q 51.21875 11.28125 44.71875 5.03125 
Q 38.234375 -1.21875 27.640625 -1.21875 
Q 17.046875 -1.21875 10.546875 5.046875 
Q 4.046875 11.328125 4.046875 20.703125 
Q 4.046875 27.6875 7.59375 32.390625 
Q 11.140625 37.109375 17.671875 38.8125 
z
M 15.921875 53.71875 
Q 15.921875 48.640625 19.1875 45.40625 
Q 22.46875 42.1875 27.6875 42.1875 
Q 32.765625 42.1875 36.015625 45.375 
Q 39.265625 48.578125 39.265625 53.21875 
Q 39.265625 58.0625 35.90625 61.359375 
Q 32.5625 64.65625 27.59375 64.65625 
Q 22.5625 64.65625 19.234375 61.421875 
Q 15.921875 58.203125 15.921875 53.71875 
z
M 13.09375 20.65625 
Q 13.09375 16.890625 14.875 13.375 
Q 16.65625 9.859375 20.171875 7.921875 
Q 23.6875 6 27.734375 6 
Q 34.03125 6 38.125 10.046875 
Q 42.234375 14.109375 42.234375 20.359375 
Q 42.234375 26.703125 38.015625 30.859375 
Q 33.796875 35.015625 27.4375 35.015625 
Q 21.234375 35.015625 17.15625 30.90625 
Q 13.09375 26.8125 13.09375 20.65625 
z
" id="ArialMT-38"/>
      </defs>
      <g style="fill:#262626;" transform="translate(91.185121 116.793594)scale(0.11 -0.11)">
       <use xlink:href="#ArialMT-38"/>
      </g>
     </g>
    </g>
    <g id="xtick_5">
     <g id="line2d_5">
      <g>
       <use style="fill:#262626;stroke:#262626;stroke-width:0.8;" x="110.330909" xlink:href="#meb41c705f4" y="101.92"/>
      </g>
     </g>
     <g id="text_5">
      <!-- 10 -->
      <defs>
       <path d="M 37.25 0 
L 28.46875 0 
L 28.46875 56 
Q 25.296875 52.984375 20.140625 49.953125 
Q 14.984375 46.921875 10.890625 45.40625 
L 10.890625 53.90625 
Q 18.265625 57.375 23.78125 62.296875 
Q 29.296875 67.234375 31.59375 71.875 
L 37.25 71.875 
z
" id="ArialMT-31"/>
       <path d="M 4.15625 35.296875 
Q 4.15625 48 6.765625 55.734375 
Q 9.375 63.484375 14.515625 67.671875 
Q 19.671875 71.875 27.484375 71.875 
Q 33.25 71.875 37.59375 69.546875 
Q 41.9375 67.234375 44.765625 62.859375 
Q 47.609375 58.5 49.21875 52.21875 
Q 50.828125 45.953125 50.828125 35.296875 
Q 50.828125 22.703125 48.234375 14.96875 
Q 45.65625 7.234375 40.5 3 
Q 35.359375 -1.21875 27.484375 -1.21875 
Q 17.140625 -1.21875 11.234375 6.203125 
Q 4.15625 15.140625 4.15625 35.296875 
z
M 13.1875 35.296875 
Q 13.1875 17.671875 17.3125 11.828125 
Q 21.4375 6 27.484375 6 
Q 33.546875 6 37.671875 11.859375 
Q 41.796875 17.71875 41.796875 35.296875 
Q 41.796875 52.984375 37.671875 58.78125 
Q 33.546875 64.59375 27.390625 64.59375 
Q 21.34375 64.59375 17.71875 59.46875 
Q 13.1875 52.9375 13.1875 35.296875 
z
" id="ArialMT-30"/>
      </defs>
      <g style="fill:#262626;" transform="translate(104.213878 116.793594)scale(0.11 -0.11)">
       <use xlink:href="#ArialMT-31"/>
       <use x="55.615234" xlink:href="#ArialMT-30"/>
      </g>
     </g>
    </g>
    <g id="xtick_6">
     <g id="line2d_6">
      <g>
       <use style="fill:#262626;stroke:#262626;stroke-width:0.8;" x="126.418182" xlink:href="#meb41c705f4" y="101.92"/>
      </g>
     </g>
     <g id="text_6">
      <!-- 12 -->
      <g style="fill:#262626;" transform="translate(120.301151 116.793594)scale(0.11 -0.11)">
       <use xlink:href="#ArialMT-31"/>
       <use x="55.615234" xlink:href="#ArialMT-32"/>
      </g>
     </g>
    </g>
    <g id="text_7">
     <!-- pH -->
     <defs>
      <path d="M 6.59375 -19.875 
L 6.59375 51.859375 
L 14.59375 51.859375 
L 14.59375 45.125 
Q 17.4375 49.078125 21 51.046875 
Q 24.5625 53.03125 29.640625 53.03125 
Q 36.28125 53.03125 41.359375 49.609375 
Q 46.4375 46.1875 49.015625 39.953125 
Q 51.609375 33.734375 51.609375 26.3125 
Q 51.609375 18.359375 48.75 11.984375 
Q 45.90625 5.609375 40.453125 2.21875 
Q 35.015625 -1.171875 29 -1.171875 
Q 24.609375 -1.171875 21.109375 0.6875 
Q 17.625 2.546875 15.375 5.375 
L 15.375 -19.875 
z
M 14.546875 25.640625 
Q 14.546875 15.625 18.59375 10.84375 
Q 22.65625 6.0625 28.421875 6.0625 
Q 34.28125 6.0625 38.453125 11.015625 
Q 42.625 15.96875 42.625 26.375 
Q 42.625 36.28125 38.546875 41.203125 
Q 34.46875 46.140625 28.8125 46.140625 
Q 23.1875 46.140625 18.859375 40.890625 
Q 14.546875 35.640625 14.546875 25.640625 
z
" id="ArialMT-70"/>
      <path d="M 8.015625 0 
L 8.015625 71.578125 
L 17.484375 71.578125 
L 17.484375 42.1875 
L 54.6875 42.1875 
L 54.6875 71.578125 
L 64.15625 71.578125 
L 64.15625 0 
L 54.6875 0 
L 54.6875 33.734375 
L 17.484375 33.734375 
L 17.484375 0 
z
" id="ArialMT-48"/>
     </defs>
     <g style="fill:#262626;" transform="translate(79.169453 130.853437)scale(0.11 -0.11)">
      <use xlink:href="#ArialMT-70"/>
      <use x="55.615234" xlink:href="#ArialMT-48"/>
     </g>
    </g>
   </g>
   <g id="matplotlib.axis_2">
    <g id="ytick_1">
     <g id="line2d_7">
      <defs>
       <path d="M 0 0 
L -3.5 0 
" id="m16f5a5c288" style="stroke:#262626;stroke-width:0.8;"/>
      </defs>
      <g>
       <use style="fill:#262626;stroke:#262626;stroke-width:0.8;" x="41.96" xlink:href="#m16f5a5c288" y="98.536364"/>
      </g>
     </g>
     <g id="text_8">
      <!-- 0 -->
      <g style="fill:#262626;" transform="translate(28.842969 102.473161)scale(0.11 -0.11)">
       <use xlink:href="#ArialMT-30"/>
      </g>
     </g>
    </g>
    <g id="ytick_2">
     <g id="line2d_8">
      <g>
       <use style="fill:#262626;stroke:#262626;stroke-width:0.8;" x="41.96" xlink:href="#m16f5a5c288" y="30.863636"/>
      </g>
     </g>
     <g id="text_9">
      <!-- 1 -->
      <g style="fill:#262626;" transform="translate(28.842969 34.800433)scale(0.11 -0.11)">
       <use xlink:href="#ArialMT-31"/>
      </g>
     </g>
    </g>
    <g id="text_10">
     <!-- $\langle q_\mathsf{total} \rangle$ -->
     <defs>
      <path d="M 8.9375 31.34375 
L 22.703125 75.875 
L 31 75.875 
L 17.234375 31.34375 
L 31 -13.1875 
L 22.703125 -13.1875 
z
" id="DejaVuSans-27e8"/>
      <path d="M 41.703125 8.203125 
Q 38.09375 3.46875 33.171875 1.015625 
Q 28.265625 -1.421875 22.3125 -1.421875 
Q 14.015625 -1.421875 9.296875 4.171875 
Q 4.59375 9.765625 4.59375 19.578125 
Q 4.59375 27.484375 7.5 34.859375 
Q 10.40625 42.234375 15.828125 48.09375 
Q 19.34375 51.90625 23.90625 53.953125 
Q 28.46875 56 33.5 56 
Q 39.546875 56 43.453125 53.609375 
Q 47.359375 51.21875 49.125 46.390625 
L 50.6875 54.59375 
L 59.71875 54.59375 
L 45.125 -20.609375 
L 36.078125 -20.609375 
z
M 13.921875 20.90625 
Q 13.921875 13.671875 16.9375 9.890625 
Q 19.96875 6.109375 25.6875 6.109375 
Q 34.1875 6.109375 40.1875 14.234375 
Q 46.1875 22.359375 46.1875 33.984375 
Q 46.1875 41.015625 43.078125 44.75 
Q 39.984375 48.484375 34.1875 48.484375 
Q 29.9375 48.484375 26.3125 46.5 
Q 22.703125 44.53125 20.015625 40.71875 
Q 17.1875 36.71875 15.546875 31.34375 
Q 13.921875 25.984375 13.921875 20.90625 
z
" id="DejaVuSans-Oblique-71"/>
      <path d="M 18.3125 70.21875 
L 18.3125 54.6875 
L 36.8125 54.6875 
L 36.8125 47.703125 
L 18.3125 47.703125 
L 18.3125 18.015625 
Q 18.3125 11.328125 20.140625 9.421875 
Q 21.96875 7.515625 27.59375 7.515625 
L 36.8125 7.515625 
L 36.8125 0 
L 27.59375 0 
Q 17.1875 0 13.234375 3.875 
Q 9.28125 7.765625 9.28125 18.015625 
L 9.28125 47.703125 
L 2.6875 47.703125 
L 2.6875 54.6875 
L 9.28125 54.6875 
L 9.28125 70.21875 
z
" id="DejaVuSans-74"/>
      <path d="M 30.609375 48.390625 
Q 23.390625 48.390625 19.1875 42.75 
Q 14.984375 37.109375 14.984375 27.296875 
Q 14.984375 17.484375 19.15625 11.84375 
Q 23.34375 6.203125 30.609375 6.203125 
Q 37.796875 6.203125 41.984375 11.859375 
Q 46.1875 17.53125 46.1875 27.296875 
Q 46.1875 37.015625 41.984375 42.703125 
Q 37.796875 48.390625 30.609375 48.390625 
z
M 30.609375 56 
Q 42.328125 56 49.015625 48.375 
Q 55.71875 40.765625 55.71875 27.296875 
Q 55.71875 13.875 49.015625 6.21875 
Q 42.328125 -1.421875 30.609375 -1.421875 
Q 18.84375 -1.421875 12.171875 6.21875 
Q 5.515625 13.875 5.515625 27.296875 
Q 5.515625 40.765625 12.171875 48.375 
Q 18.84375 56 30.609375 56 
z
" id="DejaVuSans-6f"/>
      <path d="M 34.28125 27.484375 
Q 23.390625 27.484375 19.1875 25 
Q 14.984375 22.515625 14.984375 16.5 
Q 14.984375 11.71875 18.140625 8.90625 
Q 21.296875 6.109375 26.703125 6.109375 
Q 34.1875 6.109375 38.703125 11.40625 
Q 43.21875 16.703125 43.21875 25.484375 
L 43.21875 27.484375 
z
M 52.203125 31.203125 
L 52.203125 0 
L 43.21875 0 
L 43.21875 8.296875 
Q 40.140625 3.328125 35.546875 0.953125 
Q 30.953125 -1.421875 24.3125 -1.421875 
Q 15.921875 -1.421875 10.953125 3.296875 
Q 6 8.015625 6 15.921875 
Q 6 25.140625 12.171875 29.828125 
Q 18.359375 34.515625 30.609375 34.515625 
L 43.21875 34.515625 
L 43.21875 35.40625 
Q 43.21875 41.609375 39.140625 45 
Q 35.0625 48.390625 27.6875 48.390625 
Q 23 48.390625 18.546875 47.265625 
Q 14.109375 46.140625 10.015625 43.890625 
L 10.015625 52.203125 
Q 14.9375 54.109375 19.578125 55.046875 
Q 24.21875 56 28.609375 56 
Q 40.484375 56 46.34375 49.84375 
Q 52.203125 43.703125 52.203125 31.203125 
z
" id="DejaVuSans-61"/>
      <path d="M 9.421875 75.984375 
L 18.40625 75.984375 
L 18.40625 0 
L 9.421875 0 
z
" id="DejaVuSans-6c"/>
      <path d="M 30.078125 31.34375 
L 16.3125 -13.1875 
L 8.015625 -13.1875 
L 21.78125 31.34375 
L 8.015625 75.875 
L 16.3125 75.875 
z
" id="DejaVuSans-27e9"/>
     </defs>
     <g style="fill:#262626;" transform="translate(22.532969 81.475)rotate(-90)scale(0.11 -0.11)">
      <use transform="translate(0 0.125)" xlink:href="#DejaVuSans-27e8"/>
      <use transform="translate(39.013672 0.125)" xlink:href="#DejaVuSans-Oblique-71"/>
      <use transform="translate(102.490234 -16.28125)scale(0.7)" xlink:href="#DejaVuSans-74"/>
      <use transform="translate(129.936523 -16.28125)scale(0.7)" xlink:href="#DejaVuSans-6f"/>
      <use transform="translate(172.763672 -16.28125)scale(0.7)" xlink:href="#DejaVuSans-74"/>
      <use transform="translate(200.209961 -16.28125)scale(0.7)" xlink:href="#DejaVuSans-61"/>
      <use transform="translate(243.105469 -16.28125)scale(0.7)" xlink:href="#DejaVuSans-6c"/>
      <use transform="translate(265.288086 0.125)" xlink:href="#DejaVuSans-27e9"/>
     </g>
    </g>
   </g>
   <g id="PolyCollection_1">
    <defs>
     <path d="M 45.981818 -108.757498 
L 45.981818 -108.757498 
L 46.786182 -107.714537 
L 47.590545 -106.449407 
L 48.394909 -104.927997 
L 49.199273 -103.117304 
L 50.003636 -100.988785 
L 50.808 -98.522687 
L 51.612364 -95.713043 
L 52.416727 -92.572569 
L 53.221091 -89.136397 
L 54.025455 -85.463334 
L 54.829818 -81.633623 
L 55.634182 -77.742878 
L 56.438545 -73.892965 
L 57.242909 -70.181551 
L 58.047273 -66.692553 
L 58.851636 -63.48937 
L 59.656 -60.611867 
L 60.460364 -58.077006 
L 61.264727 -55.882184 
L 62.069091 -54.009997 
L 62.873455 -52.433283 
L 63.677818 -51.11963 
L 64.482182 -50.034931 
L 65.286545 -49.145903 
L 66.090909 -48.421669 
L 66.895273 -47.8346 
L 67.699636 -47.360629 
L 68.504 -46.979209 
L 69.308364 -46.673069 
L 70.112727 -46.427867 
L 70.917091 -46.231803 
L 71.721455 -46.075241 
L 72.525818 -45.950356 
L 73.330182 -45.850824 
L 74.134545 -45.771553 
L 74.938909 -45.708452 
L 75.743273 -45.658245 
L 76.547636 -45.618311 
L 77.352 -45.586557 
L 78.156364 -45.561312 
L 78.960727 -45.541246 
L 79.765091 -45.525298 
L 80.569455 -45.512625 
L 81.373818 -45.502556 
L 82.178182 -45.494555 
L 82.982545 -45.488198 
L 83.786909 -45.483148 
L 84.591273 -45.479136 
L 85.395636 -45.475949 
L 86.2 -45.473417 
L 87.004364 -45.471405 
L 87.808727 -45.469808 
L 88.613091 -45.468538 
L 89.417455 -45.46753 
L 90.221818 -45.466729 
L 91.026182 -45.466093 
L 91.830545 -45.465588 
L 92.634909 -45.465187 
L 93.439273 -45.464868 
L 94.243636 -45.464615 
L 95.048 -45.464413 
L 95.852364 -45.464254 
L 96.656727 -45.464127 
L 97.461091 -45.464026 
L 98.265455 -45.463946 
L 99.069818 -45.463882 
L 99.874182 -45.463832 
L 100.678545 -45.463791 
L 101.482909 -45.46376 
L 102.287273 -45.463734 
L 103.091636 -45.463714 
L 103.896 -45.463698 
L 104.700364 -45.463685 
L 105.504727 -45.463675 
L 106.309091 -45.463667 
L 107.113455 -45.463661 
L 107.917818 -45.463656 
L 108.722182 -45.463652 
L 109.526545 -45.463649 
L 110.330909 -45.463646 
L 111.135273 -45.463644 
L 111.939636 -45.463643 
L 112.744 -45.463641 
L 113.548364 -45.46364 
L 114.352727 -45.463639 
L 115.157091 -45.463639 
L 115.961455 -45.463638 
L 116.765818 -45.463638 
L 117.570182 -45.463638 
L 118.374545 -45.463637 
L 119.178909 -45.463637 
L 119.983273 -45.463637 
L 120.787636 -45.463637 
L 121.592 -45.463637 
L 122.396364 -45.463637 
L 123.200727 -45.463637 
L 124.005091 -45.463637 
L 124.809455 -45.463637 
L 125.613818 -45.463636 
L 126.418182 -45.463636 
L 126.418182 -45.463636 
L 126.418182 -45.463636 
L 125.613818 -45.463637 
L 124.809455 -45.463637 
L 124.005091 -45.463637 
L 123.200727 -45.463637 
L 122.396364 -45.463637 
L 121.592 -45.463637 
L 120.787636 -45.463637 
L 119.983273 -45.463637 
L 119.178909 -45.463637 
L 118.374545 -45.463638 
L 117.570182 -45.463638 
L 116.765818 -45.463638 
L 115.961455 -45.463639 
L 115.157091 -45.463639 
L 114.352727 -45.46364 
L 113.548364 -45.463641 
L 112.744 -45.463642 
L 111.939636 -45.463644 
L 111.135273 -45.463646 
L 110.330909 -45.463648 
L 109.526545 -45.463651 
L 108.722182 -45.463655 
L 107.917818 -45.46366 
L 107.113455 -45.463666 
L 106.309091 -45.463674 
L 105.504727 -45.463683 
L 104.700364 -45.463695 
L 103.896 -45.463711 
L 103.091636 -45.46373 
L 102.287273 -45.463754 
L 101.482909 -45.463784 
L 100.678545 -45.463823 
L 99.874182 -45.463871 
L 99.069818 -45.463932 
L 98.265455 -45.464008 
L 97.461091 -45.464105 
L 96.656727 -45.464226 
L 95.852364 -45.464379 
L 95.048 -45.464571 
L 94.243636 -45.464813 
L 93.439273 -45.465117 
L 92.634909 -45.465501 
L 91.830545 -45.465983 
L 91.026182 -45.466591 
L 90.221818 -45.467356 
L 89.417455 -45.468319 
L 88.613091 -45.469532 
L 87.808727 -45.471058 
L 87.004364 -45.472979 
L 86.2 -45.475398 
L 85.395636 -45.478443 
L 84.591273 -45.482276 
L 83.786909 -45.4871 
L 82.982545 -45.493173 
L 82.178182 -45.500816 
L 81.373818 -45.510437 
L 80.569455 -45.522544 
L 79.765091 -45.53778 
L 78.960727 -45.556951 
L 78.156364 -45.581071 
L 77.352 -45.611411 
L 76.547636 -45.649568 
L 75.743273 -45.697545 
L 74.938909 -45.757846 
L 74.134545 -45.833608 
L 73.330182 -45.928745 
L 72.525818 -46.048133 
L 71.721455 -46.197832 
L 70.917091 -46.385345 
L 70.112727 -46.619921 
L 69.308364 -46.912901 
L 68.504 -47.278092 
L 67.699636 -47.732152 
L 66.895273 -48.294954 
L 66.090909 -48.989855 
L 65.286545 -49.843789 
L 64.482182 -50.887033 
L 63.677818 -52.152494 
L 62.873455 -53.674285 
L 62.069091 -55.485406 
L 61.264727 -57.614395 
L 60.460364 -60.080991 
L 59.656 -62.891145 
L 58.851636 -66.032115 
L 58.047273 -69.468745 
L 57.242909 -73.142202 
L 56.438545 -76.972228 
L 55.634182 -80.863201 
L 54.829818 -84.713268 
L 54.025455 -88.424787 
L 53.221091 -91.913881 
L 52.416727 -95.117205 
L 51.612364 -97.994953 
L 50.808 -100.530227 
L 50.003636 -102.725699 
L 49.199273 -104.598846 
L 48.394909 -106.176911 
L 47.590545 -107.492402 
L 46.786182 -108.579541 
L 45.981818 -109.471754 
z
" id="m90ab3085d0" style="stroke:#ffffff;stroke-opacity:0.7;"/>
    </defs>
    <g clip-path="url(#pfe6fe4ee7b)">
     <use style="fill:#8c0800;fill-opacity:0.7;stroke:#ffffff;stroke-opacity:0.7;" x="0" xlink:href="#m90ab3085d0" y="144"/>
    </g>
   </g>
   <g id="line2d_9">
    <path clip-path="url(#pfe6fe4ee7b)" d="M 45.981818 35.242502 
L 46.786182 36.285463 
L 47.590545 37.550593 
L 48.394909 39.072003 
L 49.199273 40.882696 
L 50.003636 43.011215 
L 50.808 45.477313 
L 51.612364 48.286957 
L 52.416727 51.427431 
L 53.221091 54.863603 
L 54.025455 58.536666 
L 54.829818 62.366377 
L 55.634182 66.257122 
L 56.438545 70.107035 
L 57.242909 73.818449 
L 58.047273 77.307447 
L 58.851636 80.51063 
L 59.656 83.388133 
L 60.460364 85.922994 
L 61.264727 88.117816 
L 62.069091 89.990003 
L 62.873455 91.566717 
L 63.677818 92.88037 
L 64.482182 93.965069 
L 65.286545 94.854097 
L 66.090909 95.578331 
L 66.895273 96.1654 
L 67.699636 96.639371 
L 68.504 97.020791 
L 69.308364 97.326931 
L 70.112727 97.572133 
L 70.917091 97.768197 
L 71.721455 97.924759 
L 72.525818 98.049644 
L 73.330182 98.149176 
L 74.134545 98.228447 
L 74.938909 98.291548 
L 75.743273 98.341755 
L 76.547636 98.381689 
L 77.352 98.413443 
L 78.156364 98.438688 
L 78.960727 98.458754 
L 79.765091 98.474702 
L 80.569455 98.487375 
L 81.373818 98.497444 
L 82.178182 98.505445 
L 82.982545 98.511802 
L 83.786909 98.516852 
L 84.591273 98.520864 
L 85.395636 98.524051 
L 86.2 98.526583 
L 87.004364 98.528595 
L 87.808727 98.530192 
L 88.613091 98.531462 
L 89.417455 98.53247 
L 90.221818 98.533271 
L 91.026182 98.533907 
L 91.830545 98.534412 
L 92.634909 98.534813 
L 93.439273 98.535132 
L 94.243636 98.535385 
L 95.048 98.535587 
L 95.852364 98.535746 
L 96.656727 98.535873 
L 97.461091 98.535974 
L 98.265455 98.536054 
L 99.069818 98.536118 
L 99.874182 98.536168 
L 100.678545 98.536209 
L 101.482909 98.53624 
L 102.287273 98.536266 
L 103.091636 98.536286 
L 103.896 98.536302 
L 104.700364 98.536315 
L 105.504727 98.536325 
L 106.309091 98.536333 
L 107.113455 98.536339 
L 107.917818 98.536344 
L 108.722182 98.536348 
L 109.526545 98.536351 
L 110.330909 98.536354 
L 111.135273 98.536356 
L 111.939636 98.536357 
L 112.744 98.536359 
L 113.548364 98.53636 
L 114.352727 98.536361 
L 115.157091 98.536361 
L 115.961455 98.536362 
L 116.765818 98.536362 
L 117.570182 98.536362 
L 118.374545 98.536363 
L 119.178909 98.536363 
L 119.983273 98.536363 
L 120.787636 98.536363 
L 121.592 98.536363 
L 122.396364 98.536363 
L 123.200727 98.536363 
L 124.005091 98.536363 
L 124.809455 98.536363 
L 125.613818 98.536364 
L 126.418182 98.536364 
" style="fill:none;stroke:#333333;stroke-dasharray:1.5,2.475;stroke-dashoffset:0;stroke-width:1.5;"/>
   </g>
   <g id="line2d_10">
    <path clip-path="url(#pfe6fe4ee7b)" d="M 45.981818 34.528246 
L 46.786182 35.420459 
L 47.590545 36.507598 
L 48.394909 37.823089 
L 49.199273 39.401154 
L 50.003636 41.274301 
L 50.808 43.469773 
L 51.612364 46.005047 
L 52.416727 48.882795 
L 53.221091 52.086119 
L 54.025455 55.575213 
L 54.829818 59.286732 
L 55.634182 63.136799 
L 56.438545 67.027772 
L 57.242909 70.857798 
L 58.047273 74.531255 
L 58.851636 77.967885 
L 59.656 81.108855 
L 60.460364 83.919009 
L 61.264727 86.385605 
L 62.069091 88.514594 
L 62.873455 90.325715 
L 63.677818 91.847506 
L 64.482182 93.112967 
L 65.286545 94.156211 
L 66.090909 95.010145 
L 66.895273 95.705046 
L 67.699636 96.267848 
L 68.504 96.721908 
L 69.308364 97.087099 
L 70.112727 97.380079 
L 70.917091 97.614655 
L 71.721455 97.802168 
L 72.525818 97.951867 
L 73.330182 98.071255 
L 74.134545 98.166392 
L 74.938909 98.242154 
L 75.743273 98.302455 
L 76.547636 98.350432 
L 77.352 98.388589 
L 78.156364 98.418929 
L 78.960727 98.443049 
L 79.765091 98.46222 
L 80.569455 98.477456 
L 81.373818 98.489563 
L 82.178182 98.499184 
L 82.982545 98.506827 
L 83.786909 98.5129 
L 84.591273 98.517724 
L 85.395636 98.521557 
L 86.2 98.524602 
L 87.004364 98.527021 
L 87.808727 98.528942 
L 88.613091 98.530468 
L 89.417455 98.531681 
L 90.221818 98.532644 
L 91.026182 98.533409 
L 91.830545 98.534017 
L 92.634909 98.534499 
L 93.439273 98.534883 
L 94.243636 98.535187 
L 95.048 98.535429 
L 95.852364 98.535621 
L 96.656727 98.535774 
L 97.461091 98.535895 
L 98.265455 98.535992 
L 99.069818 98.536068 
L 99.874182 98.536129 
L 100.678545 98.536177 
L 101.482909 98.536216 
L 102.287273 98.536246 
L 103.091636 98.53627 
L 103.896 98.536289 
L 104.700364 98.536305 
L 105.504727 98.536317 
L 106.309091 98.536326 
L 107.113455 98.536334 
L 107.917818 98.53634 
L 108.722182 98.536345 
L 109.526545 98.536349 
L 110.330909 98.536352 
L 111.135273 98.536354 
L 111.939636 98.536356 
L 112.744 98.536358 
L 113.548364 98.536359 
L 114.352727 98.53636 
L 115.157091 98.536361 
L 115.961455 98.536361 
L 116.765818 98.536362 
L 117.570182 98.536362 
L 118.374545 98.536362 
L 119.178909 98.536363 
L 119.983273 98.536363 
L 120.787636 98.536363 
L 121.592 98.536363 
L 122.396364 98.536363 
L 123.200727 98.536363 
L 124.005091 98.536363 
L 124.809455 98.536363 
L 125.613818 98.536363 
L 126.418182 98.536364 
" style="fill:none;stroke:#333333;stroke-linecap:round;stroke-width:1.5;"/>
   </g>
   <g id="patch_3">
    <path d="M 41.96 101.92 
L 41.96 27.48 
" style="fill:none;stroke:#262626;stroke-linecap:square;stroke-linejoin:miter;stroke-width:0.8;"/>
   </g>
   <g id="patch_4">
    <path d="M 41.96 101.92 
L 130.44 101.92 
" style="fill:none;stroke:#262626;stroke-linecap:square;stroke-linejoin:miter;stroke-width:0.8;"/>
   </g>
   <g id="text_11">
    <!-- $\Delta$ area : 0.08 -->
    <defs>
     <path d="M 34.1875 63.1875 
L 14.15625 8.203125 
L 54.25 8.203125 
z
M 0.78125 0 
L 28.609375 72.90625 
L 39.796875 72.90625 
L 67.578125 0 
z
" id="DejaVuSans-394"/>
     <path id="ArialMT-20"/>
     <path d="M 40.4375 6.390625 
Q 35.546875 2.25 31.03125 0.53125 
Q 26.515625 -1.171875 21.34375 -1.171875 
Q 12.796875 -1.171875 8.203125 3 
Q 3.609375 7.171875 3.609375 13.671875 
Q 3.609375 17.484375 5.34375 20.625 
Q 7.078125 23.78125 9.890625 25.6875 
Q 12.703125 27.59375 16.21875 28.5625 
Q 18.796875 29.25 24.03125 29.890625 
Q 34.671875 31.15625 39.703125 32.90625 
Q 39.75 34.71875 39.75 35.203125 
Q 39.75 40.578125 37.25 42.78125 
Q 33.890625 45.75 27.25 45.75 
Q 21.046875 45.75 18.09375 43.578125 
Q 15.140625 41.40625 13.71875 35.890625 
L 5.125 37.0625 
Q 6.296875 42.578125 8.984375 45.96875 
Q 11.671875 49.359375 16.75 51.1875 
Q 21.828125 53.03125 28.515625 53.03125 
Q 35.15625 53.03125 39.296875 51.46875 
Q 43.453125 49.90625 45.40625 47.53125 
Q 47.359375 45.171875 48.140625 41.546875 
Q 48.578125 39.3125 48.578125 33.453125 
L 48.578125 21.734375 
Q 48.578125 9.46875 49.140625 6.21875 
Q 49.703125 2.984375 51.375 0 
L 42.1875 0 
Q 40.828125 2.734375 40.4375 6.390625 
z
M 39.703125 26.03125 
Q 34.90625 24.078125 25.34375 22.703125 
Q 19.921875 21.921875 17.671875 20.9375 
Q 15.4375 19.96875 14.203125 18.09375 
Q 12.984375 16.21875 12.984375 13.921875 
Q 12.984375 10.40625 15.640625 8.0625 
Q 18.3125 5.71875 23.4375 5.71875 
Q 28.515625 5.71875 32.46875 7.9375 
Q 36.421875 10.15625 38.28125 14.015625 
Q 39.703125 17 39.703125 22.796875 
z
" id="ArialMT-61"/>
     <path d="M 6.5 0 
L 6.5 51.859375 
L 14.40625 51.859375 
L 14.40625 44 
Q 17.4375 49.515625 20 51.265625 
Q 22.5625 53.03125 25.640625 53.03125 
Q 30.078125 53.03125 34.671875 50.203125 
L 31.640625 42.046875 
Q 28.421875 43.953125 25.203125 43.953125 
Q 22.3125 43.953125 20.015625 42.21875 
Q 17.71875 40.484375 16.75 37.40625 
Q 15.28125 32.71875 15.28125 27.15625 
L 15.28125 0 
z
" id="ArialMT-72"/>
     <path d="M 42.09375 16.703125 
L 51.171875 15.578125 
Q 49.03125 7.625 43.21875 3.21875 
Q 37.40625 -1.171875 28.375 -1.171875 
Q 17 -1.171875 10.328125 5.828125 
Q 3.65625 12.84375 3.65625 25.484375 
Q 3.65625 38.578125 10.390625 45.796875 
Q 17.140625 53.03125 27.875 53.03125 
Q 38.28125 53.03125 44.875 45.953125 
Q 51.46875 38.875 51.46875 26.03125 
Q 51.46875 25.25 51.421875 23.6875 
L 12.75 23.6875 
Q 13.234375 15.140625 17.578125 10.59375 
Q 21.921875 6.0625 28.421875 6.0625 
Q 33.25 6.0625 36.671875 8.59375 
Q 40.09375 11.140625 42.09375 16.703125 
z
M 13.234375 30.90625 
L 42.1875 30.90625 
Q 41.609375 37.453125 38.875 40.71875 
Q 34.671875 45.796875 27.984375 45.796875 
Q 21.921875 45.796875 17.796875 41.75 
Q 13.671875 37.703125 13.234375 30.90625 
z
" id="ArialMT-65"/>
     <path d="M 9.03125 41.84375 
L 9.03125 51.859375 
L 19.046875 51.859375 
L 19.046875 41.84375 
z
M 9.03125 0 
L 9.03125 10.015625 
L 19.046875 10.015625 
L 19.046875 0 
z
" id="ArialMT-3a"/>
     <path d="M 9.078125 0 
L 9.078125 10.015625 
L 19.09375 10.015625 
L 19.09375 0 
z
" id="ArialMT-2e"/>
    </defs>
    <g style="fill:#262626;" transform="translate(48.25 21.48)scale(0.132 -0.132)">
     <use transform="translate(0 0.09375)" xlink:href="#DejaVuSans-394"/>
     <use transform="translate(68.408203 0.09375)" xlink:href="#ArialMT-20"/>
     <use transform="translate(96.191406 0.09375)" xlink:href="#ArialMT-61"/>
     <use transform="translate(151.806641 0.09375)" xlink:href="#ArialMT-72"/>
     <use transform="translate(185.107422 0.09375)" xlink:href="#ArialMT-65"/>
     <use transform="translate(240.722656 0.09375)" xlink:href="#ArialMT-61"/>
     <use transform="translate(296.337891 0.09375)" xlink:href="#ArialMT-20"/>
     <use transform="translate(324.121094 0.09375)" xlink:href="#ArialMT-3a"/>
     <use transform="translate(351.904297 0.09375)" xlink:href="#ArialMT-20"/>
     <use transform="translate(379.6875 0.09375)" xlink:href="#ArialMT-30"/>
     <use transform="translate(435.302734 0.09375)" xlink:href="#ArialMT-2e"/>
     <use transform="translate(463.085938 0.09375)" xlink:href="#ArialMT-30"/>
     <use transform="translate(518.701172 0.09375)" xlink:href="#ArialMT-38"/>
    </g>
   </g>
  </g>
 </g>
 <defs>
  <clipPath id="pfe6fe4ee7b">
   <rect height="74.44" width="88.48" x="41.96" y="27.48"/>
  </clipPath>
 </defs>
</svg>
