<?xml version="1.0" encoding="utf-8" standalone="no"?>
<!DOCTYPE svg PUBLIC "-//W3C//DTD SVG 1.1//EN"
  "http://www.w3.org/Graphics/SVG/1.1/DTD/svg11.dtd">
<!-- Created with matplotlib (http://matplotlib.org/) -->
<svg height="216pt" version="1.1" viewBox="0 0 216 216" width="216pt" xmlns="http://www.w3.org/2000/svg" xmlns:xlink="http://www.w3.org/1999/xlink">
 <defs>
  <style type="text/css">
*{stroke-linecap:butt;stroke-linejoin:round;}
  </style>
 </defs>
 <g id="figure_1">
  <g id="patch_1">
   <path d="M 0 216 
L 216 216 
L 216 0 
L 0 0 
z
" style="fill:#ffffff;"/>
  </g>
  <g id="axes_1">
   <g id="patch_2">
    <path d="M 44.78 175.96 
L 203.52 175.96 
L 203.52 25.44 
L 44.78 25.44 
z
" style="fill:#ffffff;"/>
   </g>
   <g id="matplotlib.axis_1">
    <g id="xtick_1">
     <g id="line2d_1">
      <defs>
       <path d="M 0 0 
L 0 3.5 
" id="mfd0cd29602" style="stroke:#262626;stroke-width:0.8;"/>
      </defs>
      <g>
       <use style="fill:#262626;stroke:#262626;stroke-width:0.8;" x="51.995455" xlink:href="#mfd0cd29602" y="175.96"/>
      </g>
     </g>
     <g id="text_1">
      <!-- 2 -->
      <defs>
       <path d="M 50.34375 8.453125 
L 50.34375 0 
L 3.03125 0 
Q 2.9375 3.171875 4.046875 6.109375 
Q 5.859375 10.9375 9.828125 15.625 
Q 13.8125 20.3125 21.34375 26.46875 
Q 33.015625 36.03125 37.109375 41.625 
Q 41.21875 47.21875 41.21875 52.203125 
Q 41.21875 57.421875 37.46875 61 
Q 33.734375 64.59375 27.734375 64.59375 
Q 21.390625 64.59375 17.578125 60.78125 
Q 13.765625 56.984375 13.71875 50.25 
L 4.6875 51.171875 
Q 5.609375 61.28125 11.65625 66.578125 
Q 17.71875 71.875 27.9375 71.875 
Q 38.234375 71.875 44.234375 66.15625 
Q 50.25 60.453125 50.25 52 
Q 50.25 47.703125 48.484375 43.546875 
Q 46.734375 39.40625 42.65625 34.8125 
Q 38.578125 30.21875 29.109375 22.21875 
Q 21.1875 15.578125 18.9375 13.203125 
Q 16.703125 10.84375 15.234375 8.453125 
z
" id="ArialMT-32"/>
      </defs>
      <g style="fill:#262626;" transform="translate(49.214986 190.117812)scale(0.1 -0.1)">
       <use xlink:href="#ArialMT-32"/>
      </g>
     </g>
    </g>
    <g id="xtick_2">
     <g id="line2d_2">
      <g>
       <use style="fill:#262626;stroke:#262626;stroke-width:0.8;" x="80.857273" xlink:href="#mfd0cd29602" y="175.96"/>
      </g>
     </g>
     <g id="text_2">
      <!-- 4 -->
      <defs>
       <path d="M 32.328125 0 
L 32.328125 17.140625 
L 1.265625 17.140625 
L 1.265625 25.203125 
L 33.9375 71.578125 
L 41.109375 71.578125 
L 41.109375 25.203125 
L 50.78125 25.203125 
L 50.78125 17.140625 
L 41.109375 17.140625 
L 41.109375 0 
z
M 32.328125 25.203125 
L 32.328125 57.46875 
L 9.90625 25.203125 
z
" id="ArialMT-34"/>
      </defs>
      <g style="fill:#262626;" transform="translate(78.076804 190.117812)scale(0.1 -0.1)">
       <use xlink:href="#ArialMT-34"/>
      </g>
     </g>
    </g>
    <g id="xtick_3">
     <g id="line2d_3">
      <g>
       <use style="fill:#262626;stroke:#262626;stroke-width:0.8;" x="109.719091" xlink:href="#mfd0cd29602" y="175.96"/>
      </g>
     </g>
     <g id="text_3">
      <!-- 6 -->
      <defs>
       <path d="M 49.75 54.046875 
L 41.015625 53.375 
Q 39.84375 58.546875 37.703125 60.890625 
Q 34.125 64.65625 28.90625 64.65625 
Q 24.703125 64.65625 21.53125 62.3125 
Q 17.390625 59.28125 14.984375 53.46875 
Q 12.59375 47.65625 12.5 36.921875 
Q 15.671875 41.75 20.265625 44.09375 
Q 24.859375 46.4375 29.890625 46.4375 
Q 38.671875 46.4375 44.84375 39.96875 
Q 51.03125 33.5 51.03125 23.25 
Q 51.03125 16.5 48.125 10.71875 
Q 45.21875 4.9375 40.140625 1.859375 
Q 35.0625 -1.21875 28.609375 -1.21875 
Q 17.625 -1.21875 10.6875 6.859375 
Q 3.765625 14.9375 3.765625 33.5 
Q 3.765625 54.25 11.421875 63.671875 
Q 18.109375 71.875 29.4375 71.875 
Q 37.890625 71.875 43.28125 67.140625 
Q 48.6875 62.40625 49.75 54.046875 
z
M 13.875 23.1875 
Q 13.875 18.65625 15.796875 14.5 
Q 17.71875 10.359375 21.1875 8.171875 
Q 24.65625 6 28.46875 6 
Q 34.03125 6 38.03125 10.484375 
Q 42.046875 14.984375 42.046875 22.703125 
Q 42.046875 30.125 38.078125 34.390625 
Q 34.125 38.671875 28.125 38.671875 
Q 22.171875 38.671875 18.015625 34.390625 
Q 13.875 30.125 13.875 23.1875 
z
" id="ArialMT-36"/>
      </defs>
      <g style="fill:#262626;" transform="translate(106.938622 190.117812)scale(0.1 -0.1)">
       <use xlink:href="#ArialMT-36"/>
      </g>
     </g>
    </g>
    <g id="xtick_4">
     <g id="line2d_4">
      <g>
       <use style="fill:#262626;stroke:#262626;stroke-width:0.8;" x="138.580909" xlink:href="#mfd0cd29602" y="175.96"/>
      </g>
     </g>
     <g id="text_4">
      <!-- 8 -->
      <defs>
       <path d="M 17.671875 38.8125 
Q 12.203125 40.828125 9.5625 44.53125 
Q 6.9375 48.25 6.9375 53.421875 
Q 6.9375 61.234375 12.546875 66.546875 
Q 18.171875 71.875 27.484375 71.875 
Q 36.859375 71.875 42.578125 66.421875 
Q 48.296875 60.984375 48.296875 53.171875 
Q 48.296875 48.1875 45.671875 44.5 
Q 43.0625 40.828125 37.75 38.8125 
Q 44.34375 36.671875 47.78125 31.875 
Q 51.21875 27.09375 51.21875 20.453125 
Q 51.21875 11.28125 44.71875 5.03125 
Q 38.234375 -1.21875 27.640625 -1.21875 
Q 17.046875 -1.21875 10.546875 5.046875 
Q 4.046875 11.328125 4.046875 20.703125 
Q 4.046875 27.6875 7.59375 32.390625 
Q 11.140625 37.109375 17.671875 38.8125 
z
M 15.921875 53.71875 
Q 15.921875 48.640625 19.1875 45.40625 
Q 22.46875 42.1875 27.6875 42.1875 
Q 32.765625 42.1875 36.015625 45.375 
Q 39.265625 48.578125 39.265625 53.21875 
Q 39.265625 58.0625 35.90625 61.359375 
Q 32.5625 64.65625 27.59375 64.65625 
Q 22.5625 64.65625 19.234375 61.421875 
Q 15.921875 58.203125 15.921875 53.71875 
z
M 13.09375 20.65625 
Q 13.09375 16.890625 14.875 13.375 
Q 16.65625 9.859375 20.171875 7.921875 
Q 23.6875 6 27.734375 6 
Q 34.03125 6 38.125 10.046875 
Q 42.234375 14.109375 42.234375 20.359375 
Q 42.234375 26.703125 38.015625 30.859375 
Q 33.796875 35.015625 27.4375 35.015625 
Q 21.234375 35.015625 17.15625 30.90625 
Q 13.09375 26.8125 13.09375 20.65625 
z
" id="ArialMT-38"/>
      </defs>
      <g style="fill:#262626;" transform="translate(135.80044 190.117812)scale(0.1 -0.1)">
       <use xlink:href="#ArialMT-38"/>
      </g>
     </g>
    </g>
    <g id="xtick_5">
     <g id="line2d_5">
      <g>
       <use style="fill:#262626;stroke:#262626;stroke-width:0.8;" x="167.442727" xlink:href="#mfd0cd29602" y="175.96"/>
      </g>
     </g>
     <g id="text_5">
      <!-- 10 -->
      <defs>
       <path d="M 37.25 0 
L 28.46875 0 
L 28.46875 56 
Q 25.296875 52.984375 20.140625 49.953125 
Q 14.984375 46.921875 10.890625 45.40625 
L 10.890625 53.90625 
Q 18.265625 57.375 23.78125 62.296875 
Q 29.296875 67.234375 31.59375 71.875 
L 37.25 71.875 
z
" id="ArialMT-31"/>
       <path d="M 4.15625 35.296875 
Q 4.15625 48 6.765625 55.734375 
Q 9.375 63.484375 14.515625 67.671875 
Q 19.671875 71.875 27.484375 71.875 
Q 33.25 71.875 37.59375 69.546875 
Q 41.9375 67.234375 44.765625 62.859375 
Q 47.609375 58.5 49.21875 52.21875 
Q 50.828125 45.953125 50.828125 35.296875 
Q 50.828125 22.703125 48.234375 14.96875 
Q 45.65625 7.234375 40.5 3 
Q 35.359375 -1.21875 27.484375 -1.21875 
Q 17.140625 -1.21875 11.234375 6.203125 
Q 4.15625 15.140625 4.15625 35.296875 
z
M 13.1875 35.296875 
Q 13.1875 17.671875 17.3125 11.828125 
Q 21.4375 6 27.484375 6 
Q 33.546875 6 37.671875 11.859375 
Q 41.796875 17.71875 41.796875 35.296875 
Q 41.796875 52.984375 37.671875 58.78125 
Q 33.546875 64.59375 27.390625 64.59375 
Q 21.34375 64.59375 17.71875 59.46875 
Q 13.1875 52.9375 13.1875 35.296875 
z
" id="ArialMT-30"/>
      </defs>
      <g style="fill:#262626;" transform="translate(161.88179 190.117812)scale(0.1 -0.1)">
       <use xlink:href="#ArialMT-31"/>
       <use x="55.615234" xlink:href="#ArialMT-30"/>
      </g>
     </g>
    </g>
    <g id="xtick_6">
     <g id="line2d_6">
      <g>
       <use style="fill:#262626;stroke:#262626;stroke-width:0.8;" x="196.304545" xlink:href="#mfd0cd29602" y="175.96"/>
      </g>
     </g>
     <g id="text_6">
      <!-- 12 -->
      <g style="fill:#262626;" transform="translate(190.743608 190.117812)scale(0.1 -0.1)">
       <use xlink:href="#ArialMT-31"/>
       <use x="55.615234" xlink:href="#ArialMT-32"/>
      </g>
     </g>
    </g>
    <g id="text_7">
     <!-- pH -->
     <defs>
      <path d="M 6.59375 -19.875 
L 6.59375 51.859375 
L 14.59375 51.859375 
L 14.59375 45.125 
Q 17.4375 49.078125 21 51.046875 
Q 24.5625 53.03125 29.640625 53.03125 
Q 36.28125 53.03125 41.359375 49.609375 
Q 46.4375 46.1875 49.015625 39.953125 
Q 51.609375 33.734375 51.609375 26.3125 
Q 51.609375 18.359375 48.75 11.984375 
Q 45.90625 5.609375 40.453125 2.21875 
Q 35.015625 -1.171875 29 -1.171875 
Q 24.609375 -1.171875 21.109375 0.6875 
Q 17.625 2.546875 15.375 5.375 
L 15.375 -19.875 
z
M 14.546875 25.640625 
Q 14.546875 15.625 18.59375 10.84375 
Q 22.65625 6.0625 28.421875 6.0625 
Q 34.28125 6.0625 38.453125 11.015625 
Q 42.625 15.96875 42.625 26.375 
Q 42.625 36.28125 38.546875 41.203125 
Q 34.46875 46.140625 28.8125 46.140625 
Q 23.1875 46.140625 18.859375 40.890625 
Q 14.546875 35.640625 14.546875 25.640625 
z
" id="ArialMT-70"/>
      <path d="M 8.015625 0 
L 8.015625 71.578125 
L 17.484375 71.578125 
L 17.484375 42.1875 
L 54.6875 42.1875 
L 54.6875 71.578125 
L 64.15625 71.578125 
L 64.15625 0 
L 54.6875 0 
L 54.6875 33.734375 
L 17.484375 33.734375 
L 17.484375 0 
z
" id="ArialMT-48"/>
     </defs>
     <g style="fill:#262626;" transform="translate(117.758594 203.263125)scale(0.1 -0.1)">
      <use xlink:href="#ArialMT-70"/>
      <use x="55.615234" xlink:href="#ArialMT-48"/>
     </g>
    </g>
   </g>
   <g id="matplotlib.axis_2">
    <g id="ytick_1">
     <g id="line2d_7">
      <defs>
       <path d="M 0 0 
L -3.5 0 
" id="md9540e19d3" style="stroke:#262626;stroke-width:0.8;"/>
      </defs>
      <g>
       <use style="fill:#262626;stroke:#262626;stroke-width:0.8;" x="44.78" xlink:href="#md9540e19d3" y="170.637279"/>
      </g>
     </g>
     <g id="text_8">
      <!-- −2 -->
      <defs>
       <path d="M 52.828125 31.203125 
L 5.5625 31.203125 
L 5.5625 39.40625 
L 52.828125 39.40625 
z
" id="ArialMT-2212"/>
      </defs>
      <g style="fill:#262626;" transform="translate(26.378438 174.216185)scale(0.1 -0.1)">
       <use xlink:href="#ArialMT-2212"/>
       <use x="58.398438" xlink:href="#ArialMT-32"/>
      </g>
     </g>
    </g>
    <g id="ytick_2">
     <g id="line2d_8">
      <g>
       <use style="fill:#262626;stroke:#262626;stroke-width:0.8;" x="44.78" xlink:href="#md9540e19d3" y="124.015023"/>
      </g>
     </g>
     <g id="text_9">
      <!-- −1 -->
      <g style="fill:#262626;" transform="translate(26.378438 127.593929)scale(0.1 -0.1)">
       <use xlink:href="#ArialMT-2212"/>
       <use x="58.398438" xlink:href="#ArialMT-31"/>
      </g>
     </g>
    </g>
    <g id="ytick_3">
     <g id="line2d_9">
      <g>
       <use style="fill:#262626;stroke:#262626;stroke-width:0.8;" x="44.78" xlink:href="#md9540e19d3" y="77.392766"/>
      </g>
     </g>
     <g id="text_10">
      <!-- 0 -->
      <g style="fill:#262626;" transform="translate(32.219063 80.971672)scale(0.1 -0.1)">
       <use xlink:href="#ArialMT-30"/>
      </g>
     </g>
    </g>
    <g id="ytick_4">
     <g id="line2d_10">
      <g>
       <use style="fill:#262626;stroke:#262626;stroke-width:0.8;" x="44.78" xlink:href="#md9540e19d3" y="30.770509"/>
      </g>
     </g>
     <g id="text_11">
      <!-- 1 -->
      <g style="fill:#262626;" transform="translate(32.219063 34.349416)scale(0.1 -0.1)">
       <use xlink:href="#ArialMT-31"/>
      </g>
     </g>
    </g>
    <g id="text_12">
     <!-- $\langle q_\mathsf{total} \rangle$ -->
     <defs>
      <path d="M 8.9375 31.34375 
L 22.703125 75.875 
L 31 75.875 
L 17.234375 31.34375 
L 31 -13.1875 
L 22.703125 -13.1875 
z
" id="DejaVuSans-27e8"/>
      <path d="M 41.703125 8.203125 
Q 38.09375 3.46875 33.171875 1.015625 
Q 28.265625 -1.421875 22.3125 -1.421875 
Q 14.015625 -1.421875 9.296875 4.171875 
Q 4.59375 9.765625 4.59375 19.578125 
Q 4.59375 27.484375 7.5 34.859375 
Q 10.40625 42.234375 15.828125 48.09375 
Q 19.34375 51.90625 23.90625 53.953125 
Q 28.46875 56 33.5 56 
Q 39.546875 56 43.453125 53.609375 
Q 47.359375 51.21875 49.125 46.390625 
L 50.6875 54.59375 
L 59.71875 54.59375 
L 45.125 -20.609375 
L 36.078125 -20.609375 
z
M 13.921875 20.90625 
Q 13.921875 13.671875 16.9375 9.890625 
Q 19.96875 6.109375 25.6875 6.109375 
Q 34.1875 6.109375 40.1875 14.234375 
Q 46.1875 22.359375 46.1875 33.984375 
Q 46.1875 41.015625 43.078125 44.75 
Q 39.984375 48.484375 34.1875 48.484375 
Q 29.9375 48.484375 26.3125 46.5 
Q 22.703125 44.53125 20.015625 40.71875 
Q 17.1875 36.71875 15.546875 31.34375 
Q 13.921875 25.984375 13.921875 20.90625 
z
" id="DejaVuSans-Oblique-71"/>
      <path d="M 18.3125 70.21875 
L 18.3125 54.6875 
L 36.8125 54.6875 
L 36.8125 47.703125 
L 18.3125 47.703125 
L 18.3125 18.015625 
Q 18.3125 11.328125 20.140625 9.421875 
Q 21.96875 7.515625 27.59375 7.515625 
L 36.8125 7.515625 
L 36.8125 0 
L 27.59375 0 
Q 17.1875 0 13.234375 3.875 
Q 9.28125 7.765625 9.28125 18.015625 
L 9.28125 47.703125 
L 2.6875 47.703125 
L 2.6875 54.6875 
L 9.28125 54.6875 
L 9.28125 70.21875 
z
" id="DejaVuSans-74"/>
      <path d="M 30.609375 48.390625 
Q 23.390625 48.390625 19.1875 42.75 
Q 14.984375 37.109375 14.984375 27.296875 
Q 14.984375 17.484375 19.15625 11.84375 
Q 23.34375 6.203125 30.609375 6.203125 
Q 37.796875 6.203125 41.984375 11.859375 
Q 46.1875 17.53125 46.1875 27.296875 
Q 46.1875 37.015625 41.984375 42.703125 
Q 37.796875 48.390625 30.609375 48.390625 
z
M 30.609375 56 
Q 42.328125 56 49.015625 48.375 
Q 55.71875 40.765625 55.71875 27.296875 
Q 55.71875 13.875 49.015625 6.21875 
Q 42.328125 -1.421875 30.609375 -1.421875 
Q 18.84375 -1.421875 12.171875 6.21875 
Q 5.515625 13.875 5.515625 27.296875 
Q 5.515625 40.765625 12.171875 48.375 
Q 18.84375 56 30.609375 56 
z
" id="DejaVuSans-6f"/>
      <path d="M 34.28125 27.484375 
Q 23.390625 27.484375 19.1875 25 
Q 14.984375 22.515625 14.984375 16.5 
Q 14.984375 11.71875 18.140625 8.90625 
Q 21.296875 6.109375 26.703125 6.109375 
Q 34.1875 6.109375 38.703125 11.40625 
Q 43.21875 16.703125 43.21875 25.484375 
L 43.21875 27.484375 
z
M 52.203125 31.203125 
L 52.203125 0 
L 43.21875 0 
L 43.21875 8.296875 
Q 40.140625 3.328125 35.546875 0.953125 
Q 30.953125 -1.421875 24.3125 -1.421875 
Q 15.921875 -1.421875 10.953125 3.296875 
Q 6 8.015625 6 15.921875 
Q 6 25.140625 12.171875 29.828125 
Q 18.359375 34.515625 30.609375 34.515625 
L 43.21875 34.515625 
L 43.21875 35.40625 
Q 43.21875 41.609375 39.140625 45 
Q 35.0625 48.390625 27.6875 48.390625 
Q 23 48.390625 18.546875 47.265625 
Q 14.109375 46.140625 10.015625 43.890625 
L 10.015625 52.203125 
Q 14.9375 54.109375 19.578125 55.046875 
Q 24.21875 56 28.609375 56 
Q 40.484375 56 46.34375 49.84375 
Q 52.203125 43.703125 52.203125 31.203125 
z
" id="DejaVuSans-61"/>
      <path d="M 9.421875 75.984375 
L 18.40625 75.984375 
L 18.40625 0 
L 9.421875 0 
z
" id="DejaVuSans-6c"/>
      <path d="M 30.078125 31.34375 
L 16.3125 -13.1875 
L 8.015625 -13.1875 
L 21.78125 31.34375 
L 8.015625 75.875 
L 16.3125 75.875 
z
" id="DejaVuSans-27e9"/>
     </defs>
     <g style="fill:#262626;" transform="translate(20.278438 115.95)rotate(-90)scale(0.1 -0.1)">
      <use transform="translate(0 0.125)" xlink:href="#DejaVuSans-27e8"/>
      <use transform="translate(39.013672 0.125)" xlink:href="#DejaVuSans-Oblique-71"/>
      <use transform="translate(102.490234 -16.28125)scale(0.7)" xlink:href="#DejaVuSans-74"/>
      <use transform="translate(129.936523 -16.28125)scale(0.7)" xlink:href="#DejaVuSans-6f"/>
      <use transform="translate(172.763672 -16.28125)scale(0.7)" xlink:href="#DejaVuSans-74"/>
      <use transform="translate(200.209961 -16.28125)scale(0.7)" xlink:href="#DejaVuSans-61"/>
      <use transform="translate(243.105469 -16.28125)scale(0.7)" xlink:href="#DejaVuSans-6c"/>
      <use transform="translate(265.288086 0.125)" xlink:href="#DejaVuSans-27e9"/>
     </g>
    </g>
   </g>
   <g id="PolyCollection_1">
    <defs>
     <path d="M 51.995455 -183.718182 
L 51.995455 -93.495829 
L 53.438545 -93.497198 
L 54.881636 -93.498916 
L 56.324727 -93.501071 
L 57.767818 -93.503774 
L 59.210909 -93.507159 
L 60.654 -93.511394 
L 62.097091 -93.516685 
L 63.540182 -93.523282 
L 64.983273 -93.531492 
L 66.426364 -93.541685 
L 67.869455 -93.554303 
L 69.312545 -93.569876 
L 70.755636 -93.589031 
L 72.198727 -93.612506 
L 73.641818 -93.641168 
L 75.084909 -93.676033 
L 76.528 -93.71829 
L 77.971091 -93.769332 
L 79.414182 -93.830788 
L 80.857273 -93.904559 
L 82.300364 -93.992845 
L 83.743455 -94.09817 
L 85.186545 -94.223389 
L 86.629636 -94.371674 
L 88.072727 -94.546487 
L 89.515818 -94.751525 
L 90.958909 -94.990641 
L 92.402 -95.267742 
L 93.845091 -95.586668 
L 95.288182 -95.951039 
L 96.731273 -96.36409 
L 98.174364 -96.828478 
L 99.617455 -97.346049 
L 101.060545 -97.91756 
L 102.503636 -98.542307 
L 103.946727 -99.217632 
L 105.389818 -99.938257 
L 106.832909 -100.695405 
L 108.276 -101.475684 
L 109.719091 -102.259745 
L 111.162182 -103.020749 
L 112.605273 -103.722766 
L 114.048364 -104.319281 
L 115.491455 -104.752141 
L 116.934545 -104.951508 
L 118.377636 -104.837704 
L 119.820727 -104.32617 
L 121.263818 -103.336699 
L 122.706909 -101.807132 
L 124.15 -99.70925 
L 125.593091 -97.061604 
L 127.036182 -93.933169 
L 128.479273 -90.43514 
L 129.922364 -86.703824 
L 131.365455 -82.880889 
L 132.808545 -79.096482 
L 134.251636 -75.45799 
L 135.694727 -72.044754 
L 137.137818 -68.907726 
L 138.580909 -66.072525 
L 140.024 -63.544339 
L 141.467091 -61.313387 
L 142.910182 -59.360044 
L 144.353273 -57.659139 
L 145.796364 -56.183245 
L 147.239455 -54.905007 
L 148.682545 -53.798627 
L 150.125636 -52.84071 
L 151.568727 -52.010622 
L 153.011818 -51.290526 
L 154.454909 -50.66522 
L 155.898 -50.121867 
L 157.341091 -49.649673 
L 158.784182 -49.239568 
L 160.227273 -48.883893 
L 161.670364 -48.576116 
L 163.113455 -48.310584 
L 164.556545 -48.082317 
L 165.999636 -47.886862 
L 167.442727 -47.720191 
L 168.885818 -47.578643 
L 170.328909 -47.458896 
L 171.772 -47.357955 
L 173.215091 -47.273145 
L 174.658182 -47.202102 
L 176.101273 -47.142758 
L 177.544364 -47.093323 
L 178.987455 -47.052258 
L 180.430545 -47.018247 
L 181.873636 -46.990168 
L 183.316727 -46.967065 
L 184.759818 -46.948125 
L 186.202909 -46.932652 
L 187.646 -46.920059 
L 189.089091 -46.909842 
L 190.532182 -46.901581 
L 191.975273 -46.89492 
L 193.418364 -46.889562 
L 194.861455 -46.885263 
L 196.304545 -46.881818 
L 196.304545 -137.09004 
L 196.304545 -137.09004 
L 194.861455 -137.087089 
L 193.418364 -137.08341 
L 191.975273 -137.078833 
L 190.532182 -137.073155 
L 189.089091 -137.066132 
L 187.646 -137.057475 
L 186.202909 -137.046843 
L 184.759818 -137.033841 
L 183.316727 -137.01801 
L 181.873636 -136.998821 
L 180.430545 -136.975669 
L 178.987455 -136.947861 
L 177.544364 -136.914603 
L 176.101273 -136.874994 
L 174.658182 -136.828018 
L 173.215091 -136.772541 
L 171.772 -136.707319 
L 170.328909 -136.631027 
L 168.885818 -136.542292 
L 167.442727 -136.439757 
L 165.999636 -136.322155 
L 164.556545 -136.188399 
L 163.113455 -136.037691 
L 161.670364 -135.869615 
L 160.227273 -135.684239 
L 158.784182 -135.482199 
L 157.341091 -135.264785 
L 155.898 -135.034036 
L 154.454909 -134.792854 
L 153.011818 -134.545151 
L 151.568727 -134.296032 
L 150.125636 -134.052009 
L 148.682545 -133.821247 
L 147.239455 -133.613821 
L 145.796364 -133.441966 
L 144.353273 -133.320287 
L 142.910182 -133.265832 
L 141.467091 -133.29795 
L 140.024 -133.437818 
L 138.580909 -133.707557 
L 137.137818 -134.128928 
L 135.694727 -134.721783 
L 134.251636 -135.502587 
L 132.808545 -136.48352 
L 131.365455 -137.672596 
L 129.922364 -139.074854 
L 128.479273 -140.693887 
L 127.036182 -142.532102 
L 125.593091 -144.588002 
L 124.15 -146.850277 
L 122.706909 -149.291385 
L 121.263818 -151.8651 
L 119.820727 -154.51071 
L 118.377636 -157.162191 
L 116.934545 -159.757937 
L 115.491455 -162.247481 
L 114.048364 -164.594217 
L 112.605273 -166.775027 
L 111.162182 -168.778243 
L 109.719091 -170.601053 
L 108.276 -172.247009 
L 106.832909 -173.72392 
L 105.389818 -175.042176 
L 103.946727 -176.213491 
L 102.503636 -177.250006 
L 101.060545 -178.163695 
L 99.617455 -178.966021 
L 98.174364 -179.66776 
L 96.731273 -180.278962 
L 95.288182 -180.808964 
L 93.845091 -181.266444 
L 92.402 -181.659461 
L 90.958909 -181.9955 
L 89.515818 -182.281485 
L 88.072727 -182.523786 
L 86.629636 -182.72822 
L 85.186545 -182.900046 
L 83.743455 -183.043973 
L 82.300364 -183.164165 
L 80.857273 -183.264263 
L 79.414182 -183.347418 
L 77.971091 -183.41633 
L 76.528 -183.473295 
L 75.084909 -183.520257 
L 73.641818 -183.55886 
L 72.198727 -183.590492 
L 70.755636 -183.616325 
L 69.312545 -183.637354 
L 67.869455 -183.654416 
L 66.426364 -183.668217 
L 64.983273 -183.679348 
L 63.540182 -183.688304 
L 62.097091 -183.695494 
L 60.654 -183.701256 
L 59.210909 -183.705865 
L 57.767818 -183.709547 
L 56.324727 -183.712485 
L 54.881636 -183.714829 
L 53.438545 -183.716695 
L 51.995455 -183.718182 
z
" id="m55e28cacde" style="stroke:#ffffff;stroke-opacity:0.05;"/>
    </defs>
    <g clip-path="url(#pfa97ed871b)">
     <use style="fill:#591e71;fill-opacity:0.05;stroke:#ffffff;stroke-opacity:0.05;" x="0" xlink:href="#m55e28cacde" y="216"/>
    </g>
   </g>
   <g id="line2d_11">
    <path clip-path="url(#pfa97ed871b)" d="M 51.995455 77.392994 
L 53.438545 77.393053 
L 54.881636 77.393128 
L 56.324727 77.393222 
L 57.767818 77.39334 
L 59.210909 77.393488 
L 60.654 77.393675 
L 62.097091 77.39391 
L 63.540182 77.394207 
L 64.983273 77.39458 
L 66.426364 77.395049 
L 67.869455 77.395641 
L 69.312545 77.396385 
L 70.755636 77.397322 
L 72.198727 77.398501 
L 73.641818 77.399986 
L 75.084909 77.401855 
L 76.528 77.404208 
L 77.971091 77.407169 
L 79.414182 77.410897 
L 80.857273 77.415589 
L 82.300364 77.421495 
L 83.743455 77.428928 
L 85.186545 77.438282 
L 86.629636 77.450053 
L 88.072727 77.464863 
L 89.515818 77.483495 
L 90.958909 77.506929 
L 92.402 77.536398 
L 93.845091 77.573444 
L 95.288182 77.619998 
L 96.731273 77.678474 
L 98.174364 77.751881 
L 99.617455 77.843965 
L 101.060545 77.959372 
L 102.503636 78.103844 
L 103.946727 78.284438 
L 105.389818 78.509783 
L 106.832909 78.790338 
L 108.276 79.138653 
L 109.719091 79.569601 
L 111.162182 80.100504 
L 112.605273 80.751104 
L 114.048364 81.543251 
L 115.491455 82.500189 
L 116.934545 83.645278 
L 118.377636 85.000053 
L 119.820727 86.58156 
L 121.263818 88.3991 
L 122.706909 90.450742 
L 124.15 92.720237 
L 125.593091 95.175197 
L 127.036182 97.767365 
L 128.479273 100.435487 
L 129.922364 103.110661 
L 131.365455 105.723258 
L 132.808545 108.209999 
L 134.251636 110.519712 
L 135.694727 112.616731 
L 137.137818 114.481673 
L 138.580909 116.109959 
L 140.024 117.508922 
L 141.467091 118.694332 
L 142.910182 119.687062 
L 144.353273 120.510287 
L 145.796364 121.187394 
L 147.239455 121.740586 
L 148.682545 122.190063 
L 150.125636 122.55364 
L 151.568727 122.846673 
L 153.011818 123.082162 
L 154.454909 123.270963 
L 155.898 123.422049 
L 157.341091 123.542771 
L 158.784182 123.639117 
L 160.227273 123.715934 
L 161.670364 123.777134 
L 163.113455 123.825863 
L 164.556545 123.864642 
L 165.999636 123.895492 
L 167.442727 123.920026 
L 168.885818 123.939532 
L 170.328909 123.955039 
L 171.772 123.967363 
L 173.215091 123.977157 
L 174.658182 123.98494 
L 176.101273 123.991124 
L 177.544364 123.996037 
L 178.987455 123.999941 
L 180.430545 124.003042 
L 181.873636 124.005505 
L 183.316727 124.007463 
L 184.759818 124.009017 
L 186.202909 124.010252 
L 187.646 124.011233 
L 189.089091 124.012013 
L 190.532182 124.012632 
L 191.975273 124.013123 
L 193.418364 124.013514 
L 194.861455 124.013824 
L 196.304545 124.014071 
" style="fill:none;opacity:0.9;stroke:#591e71;stroke-linecap:round;stroke-width:1.5;"/>
   </g>
   <g id="line2d_12">
    <path clip-path="url(#pfa97ed871b)" d="M 51.995455 77.402067 
L 53.438545 77.404474 
L 54.881636 77.407505 
L 56.324727 77.411319 
L 57.767818 77.416121 
L 59.210909 77.422164 
L 60.654 77.42977 
L 62.097091 77.439342 
L 63.540182 77.451386 
L 64.983273 77.46654 
L 66.426364 77.485604 
L 67.869455 77.509582 
L 69.312545 77.539734 
L 70.755636 77.577637 
L 72.198727 77.625266 
L 73.641818 77.685088 
L 75.084909 77.760181 
L 76.528 77.854373 
L 77.971091 77.972408 
L 79.414182 78.120151 
L 80.857273 78.304805 
L 82.300364 78.535168 
L 83.743455 78.821898 
L 85.186545 79.177769 
L 86.629636 79.617893 
L 88.072727 80.159841 
L 89.515818 80.823584 
L 90.958909 81.631153 
L 92.402 82.60587 
L 93.845091 83.771012 
L 95.288182 85.147797 
L 96.731273 86.752651 
L 98.174364 88.593906 
L 99.617455 90.668325 
L 101.060545 92.958099 
L 102.503636 95.4292 
L 103.946727 98.031897 
L 105.389818 100.703894 
L 106.832909 103.375892 
L 108.276 105.978588 
L 109.719091 108.449689 
L 111.162182 110.739463 
L 112.605273 112.813882 
L 114.048364 114.655138 
L 115.491455 116.259992 
L 116.934545 117.636777 
L 118.377636 118.801919 
L 119.820727 119.776636 
L 121.263818 120.584205 
L 122.706909 121.247948 
L 124.15 121.789895 
L 125.593091 122.230019 
L 127.036182 122.585891 
L 128.479273 122.87262 
L 129.922364 123.102984 
L 131.365455 123.287638 
L 132.808545 123.43538 
L 134.251636 123.553416 
L 135.694727 123.647607 
L 137.137818 123.7227 
L 138.580909 123.782523 
L 140.024 123.830152 
L 141.467091 123.868055 
L 142.910182 123.898206 
L 144.353273 123.922184 
L 145.796364 123.941248 
L 147.239455 123.956402 
L 148.682545 123.968447 
L 150.125636 123.978019 
L 151.568727 123.985624 
L 153.011818 123.991668 
L 154.454909 123.996469 
L 155.898 124.000284 
L 157.341091 124.003315 
L 158.784182 124.005722 
L 160.227273 124.007635 
L 161.670364 124.009154 
L 163.113455 124.010361 
L 164.556545 124.01132 
L 165.999636 124.012081 
L 167.442727 124.012686 
L 168.885818 124.013167 
L 170.328909 124.013548 
L 171.772 124.013852 
L 173.215091 124.014092 
L 174.658182 124.014284 
L 176.101273 124.014436 
L 177.544364 124.014556 
L 178.987455 124.014652 
L 180.430545 124.014728 
L 181.873636 124.014789 
L 183.316727 124.014837 
L 184.759818 124.014875 
L 186.202909 124.014905 
L 187.646 124.01493 
L 189.089091 124.014949 
L 190.532182 124.014964 
L 191.975273 124.014976 
L 193.418364 124.014986 
L 194.861455 124.014993 
L 196.304545 124.014999 
" style="fill:none;opacity:0.7;stroke:#000000;stroke-linecap:round;stroke-width:1.5;"/>
   </g>
   <g id="line2d_13">
    <path clip-path="url(#pfa97ed871b)" d="M 51.995455 32.281818 
L 53.438545 32.283305 
L 54.881636 32.285171 
L 56.324727 32.287515 
L 57.767818 32.290453 
L 59.210909 32.294135 
L 60.654 32.298744 
L 62.097091 32.304506 
L 63.540182 32.311696 
L 64.983273 32.320652 
L 66.426364 32.331783 
L 67.869455 32.345584 
L 69.312545 32.362646 
L 70.755636 32.383675 
L 72.198727 32.409508 
L 73.641818 32.44114 
L 75.084909 32.479743 
L 76.528 32.526705 
L 77.971091 32.58367 
L 79.414182 32.652582 
L 80.857273 32.735737 
L 82.300364 32.835835 
L 83.743455 32.956027 
L 85.186545 33.099954 
L 86.629636 33.27178 
L 88.072727 33.476214 
L 89.515818 33.718515 
L 90.958909 34.0045 
L 92.402 34.340539 
L 93.845091 34.733556 
L 95.288182 35.191036 
L 96.731273 35.721038 
L 98.174364 36.33224 
L 99.617455 37.033979 
L 101.060545 37.836305 
L 102.503636 38.749994 
L 103.946727 39.786509 
L 105.389818 40.957824 
L 106.832909 42.27608 
L 108.276 43.752991 
L 109.719091 45.398947 
L 111.162182 47.221757 
L 112.605273 49.224973 
L 114.048364 51.405783 
L 115.491455 53.752519 
L 116.934545 56.242063 
L 118.377636 58.837809 
L 119.820727 61.48929 
L 121.263818 64.1349 
L 122.706909 66.708615 
L 124.15 69.149723 
L 125.593091 71.411998 
L 127.036182 73.467898 
L 128.479273 75.306113 
L 129.922364 76.925146 
L 131.365455 78.327404 
L 132.808545 79.51648 
L 134.251636 80.497413 
L 135.694727 81.278217 
L 137.137818 81.871072 
L 138.580909 82.292443 
L 140.024 82.562182 
L 141.467091 82.70205 
L 142.910182 82.734168 
L 144.353273 82.679713 
L 145.796364 82.558034 
L 147.239455 82.386179 
L 148.682545 82.178753 
L 150.125636 81.947991 
L 151.568727 81.703968 
L 153.011818 81.454849 
L 154.454909 81.207146 
L 155.898 80.965964 
L 157.341091 80.735215 
L 158.784182 80.517801 
L 160.227273 80.315761 
L 161.670364 80.130385 
L 163.113455 79.962309 
L 164.556545 79.811601 
L 165.999636 79.677845 
L 167.442727 79.560243 
L 168.885818 79.457708 
L 170.328909 79.368973 
L 171.772 79.292681 
L 173.215091 79.227459 
L 174.658182 79.171982 
L 176.101273 79.125006 
L 177.544364 79.085397 
L 178.987455 79.052139 
L 180.430545 79.024331 
L 181.873636 79.001179 
L 183.316727 78.98199 
L 184.759818 78.966159 
L 186.202909 78.953157 
L 187.646 78.942525 
L 189.089091 78.933868 
L 190.532182 78.926845 
L 191.975273 78.921167 
L 193.418364 78.91659 
L 194.861455 78.912911 
L 196.304545 78.90996 
" style="fill:none;opacity:0.45;stroke:#591e71;stroke-dasharray:2.775,1.2;stroke-dashoffset:0;stroke-width:0.75;"/>
   </g>
   <g id="line2d_14">
    <path clip-path="url(#pfa97ed871b)" d="M 51.995455 122.504171 
L 53.438545 122.502802 
L 54.881636 122.501084 
L 56.324727 122.498929 
L 57.767818 122.496226 
L 59.210909 122.492841 
L 60.654 122.488606 
L 62.097091 122.483315 
L 63.540182 122.476718 
L 64.983273 122.468508 
L 66.426364 122.458315 
L 67.869455 122.445697 
L 69.312545 122.430124 
L 70.755636 122.410969 
L 72.198727 122.387494 
L 73.641818 122.358832 
L 75.084909 122.323967 
L 76.528 122.28171 
L 77.971091 122.230668 
L 79.414182 122.169212 
L 80.857273 122.095441 
L 82.300364 122.007155 
L 83.743455 121.90183 
L 85.186545 121.776611 
L 86.629636 121.628326 
L 88.072727 121.453513 
L 89.515818 121.248475 
L 90.958909 121.009359 
L 92.402 120.732258 
L 93.845091 120.413332 
L 95.288182 120.048961 
L 96.731273 119.63591 
L 98.174364 119.171522 
L 99.617455 118.653951 
L 101.060545 118.08244 
L 102.503636 117.457693 
L 103.946727 116.782368 
L 105.389818 116.061743 
L 106.832909 115.304595 
L 108.276 114.524316 
L 109.719091 113.740255 
L 111.162182 112.979251 
L 112.605273 112.277234 
L 114.048364 111.680719 
L 115.491455 111.247859 
L 116.934545 111.048492 
L 118.377636 111.162296 
L 119.820727 111.67383 
L 121.263818 112.663301 
L 122.706909 114.192868 
L 124.15 116.29075 
L 125.593091 118.938396 
L 127.036182 122.066831 
L 128.479273 125.56486 
L 129.922364 129.296176 
L 131.365455 133.119111 
L 132.808545 136.903518 
L 134.251636 140.54201 
L 135.694727 143.955246 
L 137.137818 147.092274 
L 138.580909 149.927475 
L 140.024 152.455661 
L 141.467091 154.686613 
L 142.910182 156.639956 
L 144.353273 158.340861 
L 145.796364 159.816755 
L 147.239455 161.094993 
L 148.682545 162.201373 
L 150.125636 163.15929 
L 151.568727 163.989378 
L 153.011818 164.709474 
L 154.454909 165.33478 
L 155.898 165.878133 
L 157.341091 166.350327 
L 158.784182 166.760432 
L 160.227273 167.116107 
L 161.670364 167.423884 
L 163.113455 167.689416 
L 164.556545 167.917683 
L 165.999636 168.113138 
L 167.442727 168.279809 
L 168.885818 168.421357 
L 170.328909 168.541104 
L 171.772 168.642045 
L 173.215091 168.726855 
L 174.658182 168.797898 
L 176.101273 168.857242 
L 177.544364 168.906677 
L 178.987455 168.947742 
L 180.430545 168.981753 
L 181.873636 169.009832 
L 183.316727 169.032935 
L 184.759818 169.051875 
L 186.202909 169.067348 
L 187.646 169.079941 
L 189.089091 169.090158 
L 190.532182 169.098419 
L 191.975273 169.10508 
L 193.418364 169.110438 
L 194.861455 169.114737 
L 196.304545 169.118182 
" style="fill:none;opacity:0.45;stroke:#591e71;stroke-dasharray:2.775,1.2;stroke-dashoffset:0;stroke-width:0.75;"/>
   </g>
   <g id="patch_3">
    <path d="M 44.78 175.96 
L 44.78 25.44 
" style="fill:none;stroke:#262626;stroke-linecap:square;stroke-linejoin:miter;stroke-width:0.8;"/>
   </g>
   <g id="patch_4">
    <path d="M 44.78 175.96 
L 203.52 175.96 
" style="fill:none;stroke:#262626;stroke-linecap:square;stroke-linejoin:miter;stroke-width:0.8;"/>
   </g>
   <g id="text_13">
    <!-- Jaguar-macro SM20 -->
    <defs>
     <path d="M 2.875 20.3125 
L 11.421875 21.484375 
Q 11.765625 13.28125 14.5 10.25 
Q 17.234375 7.234375 22.078125 7.234375 
Q 25.640625 7.234375 28.21875 8.859375 
Q 30.8125 10.5 31.78125 13.296875 
Q 32.765625 16.109375 32.765625 22.265625 
L 32.765625 71.578125 
L 42.234375 71.578125 
L 42.234375 22.796875 
Q 42.234375 13.8125 40.0625 8.875 
Q 37.890625 3.953125 33.171875 1.359375 
Q 28.46875 -1.21875 22.125 -1.21875 
Q 12.703125 -1.21875 7.6875 4.203125 
Q 2.6875 9.625 2.875 20.3125 
z
" id="ArialMT-4a"/>
     <path d="M 40.4375 6.390625 
Q 35.546875 2.25 31.03125 0.53125 
Q 26.515625 -1.171875 21.34375 -1.171875 
Q 12.796875 -1.171875 8.203125 3 
Q 3.609375 7.171875 3.609375 13.671875 
Q 3.609375 17.484375 5.34375 20.625 
Q 7.078125 23.78125 9.890625 25.6875 
Q 12.703125 27.59375 16.21875 28.5625 
Q 18.796875 29.25 24.03125 29.890625 
Q 34.671875 31.15625 39.703125 32.90625 
Q 39.75 34.71875 39.75 35.203125 
Q 39.75 40.578125 37.25 42.78125 
Q 33.890625 45.75 27.25 45.75 
Q 21.046875 45.75 18.09375 43.578125 
Q 15.140625 41.40625 13.71875 35.890625 
L 5.125 37.0625 
Q 6.296875 42.578125 8.984375 45.96875 
Q 11.671875 49.359375 16.75 51.1875 
Q 21.828125 53.03125 28.515625 53.03125 
Q 35.15625 53.03125 39.296875 51.46875 
Q 43.453125 49.90625 45.40625 47.53125 
Q 47.359375 45.171875 48.140625 41.546875 
Q 48.578125 39.3125 48.578125 33.453125 
L 48.578125 21.734375 
Q 48.578125 9.46875 49.140625 6.21875 
Q 49.703125 2.984375 51.375 0 
L 42.1875 0 
Q 40.828125 2.734375 40.4375 6.390625 
z
M 39.703125 26.03125 
Q 34.90625 24.078125 25.34375 22.703125 
Q 19.921875 21.921875 17.671875 20.9375 
Q 15.4375 19.96875 14.203125 18.09375 
Q 12.984375 16.21875 12.984375 13.921875 
Q 12.984375 10.40625 15.640625 8.0625 
Q 18.3125 5.71875 23.4375 5.71875 
Q 28.515625 5.71875 32.46875 7.9375 
Q 36.421875 10.15625 38.28125 14.015625 
Q 39.703125 17 39.703125 22.796875 
z
" id="ArialMT-61"/>
     <path d="M 4.984375 -4.296875 
L 13.53125 -5.5625 
Q 14.0625 -9.515625 16.5 -11.328125 
Q 19.78125 -13.765625 25.4375 -13.765625 
Q 31.546875 -13.765625 34.859375 -11.328125 
Q 38.1875 -8.890625 39.359375 -4.5 
Q 40.046875 -1.8125 39.984375 6.78125 
Q 34.234375 0 25.640625 0 
Q 14.9375 0 9.078125 7.71875 
Q 3.21875 15.4375 3.21875 26.21875 
Q 3.21875 33.640625 5.90625 39.90625 
Q 8.59375 46.1875 13.6875 49.609375 
Q 18.796875 53.03125 25.6875 53.03125 
Q 34.859375 53.03125 40.828125 45.609375 
L 40.828125 51.859375 
L 48.921875 51.859375 
L 48.921875 7.03125 
Q 48.921875 -5.078125 46.453125 -10.125 
Q 44 -15.1875 38.640625 -18.109375 
Q 33.296875 -21.046875 25.484375 -21.046875 
Q 16.21875 -21.046875 10.5 -16.875 
Q 4.78125 -12.703125 4.984375 -4.296875 
z
M 12.25 26.859375 
Q 12.25 16.65625 16.296875 11.96875 
Q 20.359375 7.28125 26.46875 7.28125 
Q 32.515625 7.28125 36.609375 11.9375 
Q 40.71875 16.609375 40.71875 26.5625 
Q 40.71875 36.078125 36.5 40.90625 
Q 32.28125 45.75 26.3125 45.75 
Q 20.453125 45.75 16.34375 40.984375 
Q 12.25 36.234375 12.25 26.859375 
z
" id="ArialMT-67"/>
     <path d="M 40.578125 0 
L 40.578125 7.625 
Q 34.515625 -1.171875 24.125 -1.171875 
Q 19.53125 -1.171875 15.546875 0.578125 
Q 11.578125 2.34375 9.640625 5 
Q 7.71875 7.671875 6.9375 11.53125 
Q 6.390625 14.109375 6.390625 19.734375 
L 6.390625 51.859375 
L 15.1875 51.859375 
L 15.1875 23.09375 
Q 15.1875 16.21875 15.71875 13.8125 
Q 16.546875 10.359375 19.234375 8.375 
Q 21.921875 6.390625 25.875 6.390625 
Q 29.828125 6.390625 33.296875 8.421875 
Q 36.765625 10.453125 38.203125 13.9375 
Q 39.65625 17.4375 39.65625 24.078125 
L 39.65625 51.859375 
L 48.4375 51.859375 
L 48.4375 0 
z
" id="ArialMT-75"/>
     <path d="M 6.5 0 
L 6.5 51.859375 
L 14.40625 51.859375 
L 14.40625 44 
Q 17.4375 49.515625 20 51.265625 
Q 22.5625 53.03125 25.640625 53.03125 
Q 30.078125 53.03125 34.671875 50.203125 
L 31.640625 42.046875 
Q 28.421875 43.953125 25.203125 43.953125 
Q 22.3125 43.953125 20.015625 42.21875 
Q 17.71875 40.484375 16.75 37.40625 
Q 15.28125 32.71875 15.28125 27.15625 
L 15.28125 0 
z
" id="ArialMT-72"/>
     <path d="M 3.171875 21.484375 
L 3.171875 30.328125 
L 30.171875 30.328125 
L 30.171875 21.484375 
z
" id="ArialMT-2d"/>
     <path d="M 6.59375 0 
L 6.59375 51.859375 
L 14.453125 51.859375 
L 14.453125 44.578125 
Q 16.890625 48.390625 20.9375 50.703125 
Q 25 53.03125 30.171875 53.03125 
Q 35.9375 53.03125 39.625 50.640625 
Q 43.3125 48.25 44.828125 43.953125 
Q 50.984375 53.03125 60.84375 53.03125 
Q 68.5625 53.03125 72.703125 48.75 
Q 76.859375 44.484375 76.859375 35.59375 
L 76.859375 0 
L 68.109375 0 
L 68.109375 32.671875 
Q 68.109375 37.9375 67.25 40.25 
Q 66.40625 42.578125 64.15625 43.984375 
Q 61.921875 45.40625 58.890625 45.40625 
Q 53.421875 45.40625 49.796875 41.765625 
Q 46.1875 38.140625 46.1875 30.125 
L 46.1875 0 
L 37.40625 0 
L 37.40625 33.6875 
Q 37.40625 39.546875 35.25 42.46875 
Q 33.109375 45.40625 28.21875 45.40625 
Q 24.515625 45.40625 21.359375 43.453125 
Q 18.21875 41.5 16.796875 37.734375 
Q 15.375 33.984375 15.375 26.90625 
L 15.375 0 
z
" id="ArialMT-6d"/>
     <path d="M 40.4375 19 
L 49.078125 17.875 
Q 47.65625 8.9375 41.8125 3.875 
Q 35.984375 -1.171875 27.484375 -1.171875 
Q 16.84375 -1.171875 10.375 5.78125 
Q 3.90625 12.75 3.90625 25.734375 
Q 3.90625 34.125 6.6875 40.421875 
Q 9.46875 46.734375 15.15625 49.875 
Q 20.84375 53.03125 27.546875 53.03125 
Q 35.984375 53.03125 41.359375 48.75 
Q 46.734375 44.484375 48.25 36.625 
L 39.703125 35.296875 
Q 38.484375 40.53125 35.375 43.15625 
Q 32.28125 45.796875 27.875 45.796875 
Q 21.234375 45.796875 17.078125 41.03125 
Q 12.9375 36.28125 12.9375 25.984375 
Q 12.9375 15.53125 16.9375 10.796875 
Q 20.953125 6.0625 27.390625 6.0625 
Q 32.5625 6.0625 36.03125 9.234375 
Q 39.5 12.40625 40.4375 19 
z
" id="ArialMT-63"/>
     <path d="M 3.328125 25.921875 
Q 3.328125 40.328125 11.328125 47.265625 
Q 18.015625 53.03125 27.640625 53.03125 
Q 38.328125 53.03125 45.109375 46.015625 
Q 51.90625 39.015625 51.90625 26.65625 
Q 51.90625 16.65625 48.90625 10.90625 
Q 45.90625 5.171875 40.15625 2 
Q 34.421875 -1.171875 27.640625 -1.171875 
Q 16.75 -1.171875 10.03125 5.8125 
Q 3.328125 12.796875 3.328125 25.921875 
z
M 12.359375 25.921875 
Q 12.359375 15.96875 16.703125 11.015625 
Q 21.046875 6.0625 27.640625 6.0625 
Q 34.1875 6.0625 38.53125 11.03125 
Q 42.875 16.015625 42.875 26.21875 
Q 42.875 35.84375 38.5 40.796875 
Q 34.125 45.75 27.640625 45.75 
Q 21.046875 45.75 16.703125 40.8125 
Q 12.359375 35.890625 12.359375 25.921875 
z
" id="ArialMT-6f"/>
     <path id="ArialMT-20"/>
     <path d="M 4.5 23 
L 13.421875 23.78125 
Q 14.0625 18.40625 16.375 14.96875 
Q 18.703125 11.53125 23.578125 9.40625 
Q 28.46875 7.28125 34.578125 7.28125 
Q 39.984375 7.28125 44.140625 8.890625 
Q 48.296875 10.5 50.3125 13.296875 
Q 52.34375 16.109375 52.34375 19.4375 
Q 52.34375 22.796875 50.390625 25.3125 
Q 48.4375 27.828125 43.953125 29.546875 
Q 41.0625 30.671875 31.203125 33.03125 
Q 21.34375 35.40625 17.390625 37.5 
Q 12.25 40.1875 9.734375 44.15625 
Q 7.234375 48.140625 7.234375 53.078125 
Q 7.234375 58.5 10.296875 63.203125 
Q 13.375 67.921875 19.28125 70.359375 
Q 25.203125 72.796875 32.421875 72.796875 
Q 40.375 72.796875 46.453125 70.234375 
Q 52.546875 67.671875 55.8125 62.6875 
Q 59.078125 57.71875 59.328125 51.421875 
L 50.25 50.734375 
Q 49.515625 57.515625 45.28125 60.984375 
Q 41.0625 64.453125 32.8125 64.453125 
Q 24.21875 64.453125 20.28125 61.296875 
Q 16.359375 58.15625 16.359375 53.71875 
Q 16.359375 49.859375 19.140625 47.359375 
Q 21.875 44.875 33.421875 42.265625 
Q 44.96875 39.65625 49.265625 37.703125 
Q 55.515625 34.8125 58.484375 30.390625 
Q 61.46875 25.984375 61.46875 20.21875 
Q 61.46875 14.5 58.203125 9.4375 
Q 54.9375 4.390625 48.796875 1.578125 
Q 42.671875 -1.21875 35.015625 -1.21875 
Q 25.296875 -1.21875 18.71875 1.609375 
Q 12.15625 4.4375 8.421875 10.125 
Q 4.6875 15.828125 4.5 23 
z
" id="ArialMT-53"/>
     <path d="M 7.421875 0 
L 7.421875 71.578125 
L 21.6875 71.578125 
L 38.625 20.90625 
Q 40.96875 13.8125 42.046875 10.296875 
Q 43.265625 14.203125 45.84375 21.78125 
L 62.984375 71.578125 
L 75.734375 71.578125 
L 75.734375 0 
L 66.609375 0 
L 66.609375 59.90625 
L 45.796875 0 
L 37.25 0 
L 16.546875 60.9375 
L 16.546875 0 
z
" id="ArialMT-4d"/>
    </defs>
    <g style="fill:#262626;" transform="translate(69.799375 19.44)scale(0.12 -0.12)">
     <use xlink:href="#ArialMT-4a"/>
     <use x="50" xlink:href="#ArialMT-61"/>
     <use x="105.615234" xlink:href="#ArialMT-67"/>
     <use x="161.230469" xlink:href="#ArialMT-75"/>
     <use x="216.845703" xlink:href="#ArialMT-61"/>
     <use x="272.460938" xlink:href="#ArialMT-72"/>
     <use x="305.761719" xlink:href="#ArialMT-2d"/>
     <use x="339.0625" xlink:href="#ArialMT-6d"/>
     <use x="422.363281" xlink:href="#ArialMT-61"/>
     <use x="477.978516" xlink:href="#ArialMT-63"/>
     <use x="527.978516" xlink:href="#ArialMT-72"/>
     <use x="561.279297" xlink:href="#ArialMT-6f"/>
     <use x="616.894531" xlink:href="#ArialMT-20"/>
     <use x="644.677734" xlink:href="#ArialMT-53"/>
     <use x="711.376953" xlink:href="#ArialMT-4d"/>
     <use x="794.677734" xlink:href="#ArialMT-32"/>
     <use x="850.292969" xlink:href="#ArialMT-30"/>
    </g>
   </g>
  </g>
 </g>
 <defs>
  <clipPath id="pfa97ed871b">
   <rect height="150.52" width="158.74" x="44.78" y="25.44"/>
  </clipPath>
 </defs>
</svg>
