<?xml version="1.0" encoding="utf-8" standalone="no"?>
<!DOCTYPE svg PUBLIC "-//W3C//DTD SVG 1.1//EN"
  "http://www.w3.org/Graphics/SVG/1.1/DTD/svg11.dtd">
<!-- Created with matplotlib (http://matplotlib.org/) -->
<svg height="144pt" version="1.1" viewBox="0 0 144 144" width="144pt" xmlns="http://www.w3.org/2000/svg" xmlns:xlink="http://www.w3.org/1999/xlink">
 <defs>
  <style type="text/css">
*{stroke-linecap:butt;stroke-linejoin:round;}
  </style>
 </defs>
 <g id="figure_1">
  <g id="patch_1">
   <path d="M 0 144 
L 144 144 
L 144 0 
L 0 0 
z
" style="fill:#ffffff;"/>
  </g>
  <g id="axes_1">
   <g id="patch_2">
    <path d="M 32.525 101.92 
L 130.44 101.92 
L 130.44 13.56 
L 32.525 13.56 
z
" style="fill:#ffffff;"/>
   </g>
   <g id="matplotlib.axis_1">
    <g id="xtick_1">
     <g id="line2d_1">
      <defs>
       <path d="M 0 0 
L 0 3.5 
" id="m0a4329a64c" style="stroke:#262626;stroke-width:0.8;"/>
      </defs>
      <g>
       <use style="fill:#262626;stroke:#262626;stroke-width:0.8;" x="36.975682" xlink:href="#m0a4329a64c" y="101.92"/>
      </g>
     </g>
     <g id="text_1">
      <!-- 2 -->
      <defs>
       <path d="M 50.34375 8.453125 
L 50.34375 0 
L 3.03125 0 
Q 2.9375 3.171875 4.046875 6.109375 
Q 5.859375 10.9375 9.828125 15.625 
Q 13.8125 20.3125 21.34375 26.46875 
Q 33.015625 36.03125 37.109375 41.625 
Q 41.21875 47.21875 41.21875 52.203125 
Q 41.21875 57.421875 37.46875 61 
Q 33.734375 64.59375 27.734375 64.59375 
Q 21.390625 64.59375 17.578125 60.78125 
Q 13.765625 56.984375 13.71875 50.25 
L 4.6875 51.171875 
Q 5.609375 61.28125 11.65625 66.578125 
Q 17.71875 71.875 27.9375 71.875 
Q 38.234375 71.875 44.234375 66.15625 
Q 50.25 60.453125 50.25 52 
Q 50.25 47.703125 48.484375 43.546875 
Q 46.734375 39.40625 42.65625 34.8125 
Q 38.578125 30.21875 29.109375 22.21875 
Q 21.1875 15.578125 18.9375 13.203125 
Q 16.703125 10.84375 15.234375 8.453125 
z
" id="ArialMT-32"/>
      </defs>
      <g style="fill:#262626;" transform="translate(33.917166 116.793594)scale(0.11 -0.11)">
       <use xlink:href="#ArialMT-32"/>
      </g>
     </g>
    </g>
    <g id="xtick_2">
     <g id="line2d_2">
      <g>
       <use style="fill:#262626;stroke:#262626;stroke-width:0.8;" x="54.778409" xlink:href="#m0a4329a64c" y="101.92"/>
      </g>
     </g>
     <g id="text_2">
      <!-- 4 -->
      <defs>
       <path d="M 32.328125 0 
L 32.328125 17.140625 
L 1.265625 17.140625 
L 1.265625 25.203125 
L 33.9375 71.578125 
L 41.109375 71.578125 
L 41.109375 25.203125 
L 50.78125 25.203125 
L 50.78125 17.140625 
L 41.109375 17.140625 
L 41.109375 0 
z
M 32.328125 25.203125 
L 32.328125 57.46875 
L 9.90625 25.203125 
z
" id="ArialMT-34"/>
      </defs>
      <g style="fill:#262626;" transform="translate(51.719893 116.793594)scale(0.11 -0.11)">
       <use xlink:href="#ArialMT-34"/>
      </g>
     </g>
    </g>
    <g id="xtick_3">
     <g id="line2d_3">
      <g>
       <use style="fill:#262626;stroke:#262626;stroke-width:0.8;" x="72.581136" xlink:href="#m0a4329a64c" y="101.92"/>
      </g>
     </g>
     <g id="text_3">
      <!-- 6 -->
      <defs>
       <path d="M 49.75 54.046875 
L 41.015625 53.375 
Q 39.84375 58.546875 37.703125 60.890625 
Q 34.125 64.65625 28.90625 64.65625 
Q 24.703125 64.65625 21.53125 62.3125 
Q 17.390625 59.28125 14.984375 53.46875 
Q 12.59375 47.65625 12.5 36.921875 
Q 15.671875 41.75 20.265625 44.09375 
Q 24.859375 46.4375 29.890625 46.4375 
Q 38.671875 46.4375 44.84375 39.96875 
Q 51.03125 33.5 51.03125 23.25 
Q 51.03125 16.5 48.125 10.71875 
Q 45.21875 4.9375 40.140625 1.859375 
Q 35.0625 -1.21875 28.609375 -1.21875 
Q 17.625 -1.21875 10.6875 6.859375 
Q 3.765625 14.9375 3.765625 33.5 
Q 3.765625 54.25 11.421875 63.671875 
Q 18.109375 71.875 29.4375 71.875 
Q 37.890625 71.875 43.28125 67.140625 
Q 48.6875 62.40625 49.75 54.046875 
z
M 13.875 23.1875 
Q 13.875 18.65625 15.796875 14.5 
Q 17.71875 10.359375 21.1875 8.171875 
Q 24.65625 6 28.46875 6 
Q 34.03125 6 38.03125 10.484375 
Q 42.046875 14.984375 42.046875 22.703125 
Q 42.046875 30.125 38.078125 34.390625 
Q 34.125 38.671875 28.125 38.671875 
Q 22.171875 38.671875 18.015625 34.390625 
Q 13.875 30.125 13.875 23.1875 
z
" id="ArialMT-36"/>
      </defs>
      <g style="fill:#262626;" transform="translate(69.522621 116.793594)scale(0.11 -0.11)">
       <use xlink:href="#ArialMT-36"/>
      </g>
     </g>
    </g>
    <g id="xtick_4">
     <g id="line2d_4">
      <g>
       <use style="fill:#262626;stroke:#262626;stroke-width:0.8;" x="90.383864" xlink:href="#m0a4329a64c" y="101.92"/>
      </g>
     </g>
     <g id="text_4">
      <!-- 8 -->
      <defs>
       <path d="M 17.671875 38.8125 
Q 12.203125 40.828125 9.5625 44.53125 
Q 6.9375 48.25 6.9375 53.421875 
Q 6.9375 61.234375 12.546875 66.546875 
Q 18.171875 71.875 27.484375 71.875 
Q 36.859375 71.875 42.578125 66.421875 
Q 48.296875 60.984375 48.296875 53.171875 
Q 48.296875 48.1875 45.671875 44.5 
Q 43.0625 40.828125 37.75 38.8125 
Q 44.34375 36.671875 47.78125 31.875 
Q 51.21875 27.09375 51.21875 20.453125 
Q 51.21875 11.28125 44.71875 5.03125 
Q 38.234375 -1.21875 27.640625 -1.21875 
Q 17.046875 -1.21875 10.546875 5.046875 
Q 4.046875 11.328125 4.046875 20.703125 
Q 4.046875 27.6875 7.59375 32.390625 
Q 11.140625 37.109375 17.671875 38.8125 
z
M 15.921875 53.71875 
Q 15.921875 48.640625 19.1875 45.40625 
Q 22.46875 42.1875 27.6875 42.1875 
Q 32.765625 42.1875 36.015625 45.375 
Q 39.265625 48.578125 39.265625 53.21875 
Q 39.265625 58.0625 35.90625 61.359375 
Q 32.5625 64.65625 27.59375 64.65625 
Q 22.5625 64.65625 19.234375 61.421875 
Q 15.921875 58.203125 15.921875 53.71875 
z
M 13.09375 20.65625 
Q 13.09375 16.890625 14.875 13.375 
Q 16.65625 9.859375 20.171875 7.921875 
Q 23.6875 6 27.734375 6 
Q 34.03125 6 38.125 10.046875 
Q 42.234375 14.109375 42.234375 20.359375 
Q 42.234375 26.703125 38.015625 30.859375 
Q 33.796875 35.015625 27.4375 35.015625 
Q 21.234375 35.015625 17.15625 30.90625 
Q 13.09375 26.8125 13.09375 20.65625 
z
" id="ArialMT-38"/>
      </defs>
      <g style="fill:#262626;" transform="translate(87.325348 116.793594)scale(0.11 -0.11)">
       <use xlink:href="#ArialMT-38"/>
      </g>
     </g>
    </g>
    <g id="xtick_5">
     <g id="line2d_5">
      <g>
       <use style="fill:#262626;stroke:#262626;stroke-width:0.8;" x="108.186591" xlink:href="#m0a4329a64c" y="101.92"/>
      </g>
     </g>
     <g id="text_5">
      <!-- 10 -->
      <defs>
       <path d="M 37.25 0 
L 28.46875 0 
L 28.46875 56 
Q 25.296875 52.984375 20.140625 49.953125 
Q 14.984375 46.921875 10.890625 45.40625 
L 10.890625 53.90625 
Q 18.265625 57.375 23.78125 62.296875 
Q 29.296875 67.234375 31.59375 71.875 
L 37.25 71.875 
z
" id="ArialMT-31"/>
       <path d="M 4.15625 35.296875 
Q 4.15625 48 6.765625 55.734375 
Q 9.375 63.484375 14.515625 67.671875 
Q 19.671875 71.875 27.484375 71.875 
Q 33.25 71.875 37.59375 69.546875 
Q 41.9375 67.234375 44.765625 62.859375 
Q 47.609375 58.5 49.21875 52.21875 
Q 50.828125 45.953125 50.828125 35.296875 
Q 50.828125 22.703125 48.234375 14.96875 
Q 45.65625 7.234375 40.5 3 
Q 35.359375 -1.21875 27.484375 -1.21875 
Q 17.140625 -1.21875 11.234375 6.203125 
Q 4.15625 15.140625 4.15625 35.296875 
z
M 13.1875 35.296875 
Q 13.1875 17.671875 17.3125 11.828125 
Q 21.4375 6 27.484375 6 
Q 33.546875 6 37.671875 11.859375 
Q 41.796875 17.71875 41.796875 35.296875 
Q 41.796875 52.984375 37.671875 58.78125 
Q 33.546875 64.59375 27.390625 64.59375 
Q 21.34375 64.59375 17.71875 59.46875 
Q 13.1875 52.9375 13.1875 35.296875 
z
" id="ArialMT-30"/>
      </defs>
      <g style="fill:#262626;" transform="translate(102.06956 116.793594)scale(0.11 -0.11)">
       <use xlink:href="#ArialMT-31"/>
       <use x="55.615234" xlink:href="#ArialMT-30"/>
      </g>
     </g>
    </g>
    <g id="xtick_6">
     <g id="line2d_6">
      <g>
       <use style="fill:#262626;stroke:#262626;stroke-width:0.8;" x="125.989318" xlink:href="#m0a4329a64c" y="101.92"/>
      </g>
     </g>
     <g id="text_6">
      <!-- 12 -->
      <g style="fill:#262626;" transform="translate(119.872287 116.793594)scale(0.11 -0.11)">
       <use xlink:href="#ArialMT-31"/>
       <use x="55.615234" xlink:href="#ArialMT-32"/>
      </g>
     </g>
    </g>
    <g id="text_7">
     <!-- pH -->
     <defs>
      <path d="M 6.59375 -19.875 
L 6.59375 51.859375 
L 14.59375 51.859375 
L 14.59375 45.125 
Q 17.4375 49.078125 21 51.046875 
Q 24.5625 53.03125 29.640625 53.03125 
Q 36.28125 53.03125 41.359375 49.609375 
Q 46.4375 46.1875 49.015625 39.953125 
Q 51.609375 33.734375 51.609375 26.3125 
Q 51.609375 18.359375 48.75 11.984375 
Q 45.90625 5.609375 40.453125 2.21875 
Q 35.015625 -1.171875 29 -1.171875 
Q 24.609375 -1.171875 21.109375 0.6875 
Q 17.625 2.546875 15.375 5.375 
L 15.375 -19.875 
z
M 14.546875 25.640625 
Q 14.546875 15.625 18.59375 10.84375 
Q 22.65625 6.0625 28.421875 6.0625 
Q 34.28125 6.0625 38.453125 11.015625 
Q 42.625 15.96875 42.625 26.375 
Q 42.625 36.28125 38.546875 41.203125 
Q 34.46875 46.140625 28.8125 46.140625 
Q 23.1875 46.140625 18.859375 40.890625 
Q 14.546875 35.640625 14.546875 25.640625 
z
" id="ArialMT-70"/>
      <path d="M 8.015625 0 
L 8.015625 71.578125 
L 17.484375 71.578125 
L 17.484375 42.1875 
L 54.6875 42.1875 
L 54.6875 71.578125 
L 64.15625 71.578125 
L 64.15625 0 
L 54.6875 0 
L 54.6875 33.734375 
L 17.484375 33.734375 
L 17.484375 0 
z
" id="ArialMT-48"/>
     </defs>
     <g style="fill:#262626;" transform="translate(74.451953 130.853437)scale(0.11 -0.11)">
      <use xlink:href="#ArialMT-70"/>
      <use x="55.615234" xlink:href="#ArialMT-48"/>
     </g>
    </g>
   </g>
   <g id="matplotlib.axis_2">
    <g id="ytick_1">
     <g id="line2d_7">
      <defs>
       <path d="M 0 0 
L -3.5 0 
" id="mf61c6dbc79" style="stroke:#262626;stroke-width:0.8;"/>
      </defs>
      <g>
       <use style="fill:#262626;stroke:#262626;stroke-width:0.8;" x="32.525" xlink:href="#mf61c6dbc79" y="97.903636"/>
      </g>
     </g>
    </g>
    <g id="ytick_2">
     <g id="line2d_8">
      <g>
       <use style="fill:#262626;stroke:#262626;stroke-width:0.8;" x="32.525" xlink:href="#mf61c6dbc79" y="17.576364"/>
      </g>
     </g>
    </g>
    <g id="text_8">
     <!-- Population -->
     <defs>
      <path d="M 7.71875 0 
L 7.71875 71.578125 
L 34.71875 71.578125 
Q 41.84375 71.578125 45.609375 70.90625 
Q 50.875 70.015625 54.4375 67.546875 
Q 58.015625 65.09375 60.1875 60.640625 
Q 62.359375 56.203125 62.359375 50.875 
Q 62.359375 41.75 56.546875 35.421875 
Q 50.734375 29.109375 35.546875 29.109375 
L 17.1875 29.109375 
L 17.1875 0 
z
M 17.1875 37.546875 
L 35.6875 37.546875 
Q 44.875 37.546875 48.734375 40.96875 
Q 52.59375 44.390625 52.59375 50.59375 
Q 52.59375 55.078125 50.3125 58.265625 
Q 48.046875 61.46875 44.34375 62.5 
Q 41.9375 63.140625 35.5 63.140625 
L 17.1875 63.140625 
z
" id="ArialMT-50"/>
      <path d="M 3.328125 25.921875 
Q 3.328125 40.328125 11.328125 47.265625 
Q 18.015625 53.03125 27.640625 53.03125 
Q 38.328125 53.03125 45.109375 46.015625 
Q 51.90625 39.015625 51.90625 26.65625 
Q 51.90625 16.65625 48.90625 10.90625 
Q 45.90625 5.171875 40.15625 2 
Q 34.421875 -1.171875 27.640625 -1.171875 
Q 16.75 -1.171875 10.03125 5.8125 
Q 3.328125 12.796875 3.328125 25.921875 
z
M 12.359375 25.921875 
Q 12.359375 15.96875 16.703125 11.015625 
Q 21.046875 6.0625 27.640625 6.0625 
Q 34.1875 6.0625 38.53125 11.03125 
Q 42.875 16.015625 42.875 26.21875 
Q 42.875 35.84375 38.5 40.796875 
Q 34.125 45.75 27.640625 45.75 
Q 21.046875 45.75 16.703125 40.8125 
Q 12.359375 35.890625 12.359375 25.921875 
z
" id="ArialMT-6f"/>
      <path d="M 40.578125 0 
L 40.578125 7.625 
Q 34.515625 -1.171875 24.125 -1.171875 
Q 19.53125 -1.171875 15.546875 0.578125 
Q 11.578125 2.34375 9.640625 5 
Q 7.71875 7.671875 6.9375 11.53125 
Q 6.390625 14.109375 6.390625 19.734375 
L 6.390625 51.859375 
L 15.1875 51.859375 
L 15.1875 23.09375 
Q 15.1875 16.21875 15.71875 13.8125 
Q 16.546875 10.359375 19.234375 8.375 
Q 21.921875 6.390625 25.875 6.390625 
Q 29.828125 6.390625 33.296875 8.421875 
Q 36.765625 10.453125 38.203125 13.9375 
Q 39.65625 17.4375 39.65625 24.078125 
L 39.65625 51.859375 
L 48.4375 51.859375 
L 48.4375 0 
z
" id="ArialMT-75"/>
      <path d="M 6.390625 0 
L 6.390625 71.578125 
L 15.1875 71.578125 
L 15.1875 0 
z
" id="ArialMT-6c"/>
      <path d="M 40.4375 6.390625 
Q 35.546875 2.25 31.03125 0.53125 
Q 26.515625 -1.171875 21.34375 -1.171875 
Q 12.796875 -1.171875 8.203125 3 
Q 3.609375 7.171875 3.609375 13.671875 
Q 3.609375 17.484375 5.34375 20.625 
Q 7.078125 23.78125 9.890625 25.6875 
Q 12.703125 27.59375 16.21875 28.5625 
Q 18.796875 29.25 24.03125 29.890625 
Q 34.671875 31.15625 39.703125 32.90625 
Q 39.75 34.71875 39.75 35.203125 
Q 39.75 40.578125 37.25 42.78125 
Q 33.890625 45.75 27.25 45.75 
Q 21.046875 45.75 18.09375 43.578125 
Q 15.140625 41.40625 13.71875 35.890625 
L 5.125 37.0625 
Q 6.296875 42.578125 8.984375 45.96875 
Q 11.671875 49.359375 16.75 51.1875 
Q 21.828125 53.03125 28.515625 53.03125 
Q 35.15625 53.03125 39.296875 51.46875 
Q 43.453125 49.90625 45.40625 47.53125 
Q 47.359375 45.171875 48.140625 41.546875 
Q 48.578125 39.3125 48.578125 33.453125 
L 48.578125 21.734375 
Q 48.578125 9.46875 49.140625 6.21875 
Q 49.703125 2.984375 51.375 0 
L 42.1875 0 
Q 40.828125 2.734375 40.4375 6.390625 
z
M 39.703125 26.03125 
Q 34.90625 24.078125 25.34375 22.703125 
Q 19.921875 21.921875 17.671875 20.9375 
Q 15.4375 19.96875 14.203125 18.09375 
Q 12.984375 16.21875 12.984375 13.921875 
Q 12.984375 10.40625 15.640625 8.0625 
Q 18.3125 5.71875 23.4375 5.71875 
Q 28.515625 5.71875 32.46875 7.9375 
Q 36.421875 10.15625 38.28125 14.015625 
Q 39.703125 17 39.703125 22.796875 
z
" id="ArialMT-61"/>
      <path d="M 25.78125 7.859375 
L 27.046875 0.09375 
Q 23.34375 -0.6875 20.40625 -0.6875 
Q 15.625 -0.6875 12.984375 0.828125 
Q 10.359375 2.34375 9.28125 4.8125 
Q 8.203125 7.28125 8.203125 15.1875 
L 8.203125 45.015625 
L 1.765625 45.015625 
L 1.765625 51.859375 
L 8.203125 51.859375 
L 8.203125 64.703125 
L 16.9375 69.96875 
L 16.9375 51.859375 
L 25.78125 51.859375 
L 25.78125 45.015625 
L 16.9375 45.015625 
L 16.9375 14.703125 
Q 16.9375 10.9375 17.40625 9.859375 
Q 17.875 8.796875 18.921875 8.15625 
Q 19.96875 7.515625 21.921875 7.515625 
Q 23.390625 7.515625 25.78125 7.859375 
z
" id="ArialMT-74"/>
      <path d="M 6.640625 61.46875 
L 6.640625 71.578125 
L 15.4375 71.578125 
L 15.4375 61.46875 
z
M 6.640625 0 
L 6.640625 51.859375 
L 15.4375 51.859375 
L 15.4375 0 
z
" id="ArialMT-69"/>
      <path d="M 6.59375 0 
L 6.59375 51.859375 
L 14.5 51.859375 
L 14.5 44.484375 
Q 20.21875 53.03125 31 53.03125 
Q 35.6875 53.03125 39.625 51.34375 
Q 43.5625 49.65625 45.515625 46.921875 
Q 47.46875 44.1875 48.25 40.4375 
Q 48.734375 37.984375 48.734375 31.890625 
L 48.734375 0 
L 39.9375 0 
L 39.9375 31.546875 
Q 39.9375 36.921875 38.90625 39.578125 
Q 37.890625 42.234375 35.28125 43.8125 
Q 32.671875 45.40625 29.15625 45.40625 
Q 23.53125 45.40625 19.453125 41.84375 
Q 15.375 38.28125 15.375 28.328125 
L 15.375 0 
z
" id="ArialMT-6e"/>
     </defs>
     <g style="fill:#262626;" transform="translate(19.33875 83.731797)rotate(-90)scale(0.11 -0.11)">
      <use xlink:href="#ArialMT-50"/>
      <use x="66.699219" xlink:href="#ArialMT-6f"/>
      <use x="122.314453" xlink:href="#ArialMT-70"/>
      <use x="177.929688" xlink:href="#ArialMT-75"/>
      <use x="233.544922" xlink:href="#ArialMT-6c"/>
      <use x="255.761719" xlink:href="#ArialMT-61"/>
      <use x="311.376953" xlink:href="#ArialMT-74"/>
      <use x="339.160156" xlink:href="#ArialMT-69"/>
      <use x="361.376953" xlink:href="#ArialMT-6f"/>
      <use x="416.992188" xlink:href="#ArialMT-6e"/>
     </g>
    </g>
   </g>
   <g id="patch_3">
    <path d="M 32.525 101.92 
L 32.525 13.56 
" style="fill:none;stroke:#262626;stroke-linecap:square;stroke-linejoin:miter;stroke-width:0.8;"/>
   </g>
   <g id="patch_4">
    <path d="M 32.525 101.92 
L 130.44 101.92 
" style="fill:none;stroke:#262626;stroke-linecap:square;stroke-linejoin:miter;stroke-width:0.8;"/>
   </g>
   <g id="line2d_9">
    <path clip-path="url(#p8405bf9c20)" d="M 36.975682 97.903636 
L 37.865818 97.903636 
L 38.755955 97.903636 
L 39.646091 97.903636 
L 40.536227 97.903636 
L 41.426364 97.903636 
L 42.3165 97.903636 
L 43.206636 97.903636 
L 44.096773 97.903636 
L 44.986909 97.903636 
L 45.877045 97.903636 
L 46.767182 97.903636 
L 47.657318 97.903636 
L 48.547455 97.903636 
L 49.437591 97.903636 
L 50.327727 97.903636 
L 51.217864 97.903636 
L 52.108 97.903636 
L 52.998136 97.903636 
L 53.888273 97.903636 
L 54.778409 97.903636 
L 55.668545 97.903636 
L 56.558682 97.903636 
L 57.448818 97.903636 
L 58.338955 97.903636 
L 59.229091 97.903636 
L 60.119227 97.903636 
L 61.009364 97.903635 
L 61.8995 97.903634 
L 62.789636 97.903633 
L 63.679773 97.903631 
L 64.569909 97.903628 
L 65.460045 97.903624 
L 66.350182 97.903616 
L 67.240318 97.903605 
L 68.130455 97.903586 
L 69.020591 97.903558 
L 69.910727 97.903513 
L 70.800864 97.903443 
L 71.691 97.903335 
L 72.581136 97.903167 
L 73.471273 97.902911 
L 74.361409 97.902519 
L 75.251545 97.901927 
L 76.141682 97.901041 
L 77.031818 97.89973 
L 77.921955 97.897813 
L 78.812091 97.895049 
L 79.702227 97.891124 
L 80.592364 97.885633 
L 81.4825 97.87807 
L 82.372636 97.867807 
L 83.262773 97.854077 
L 84.152909 97.83594 
L 85.043045 97.812246 
L 85.933182 97.781583 
L 86.823318 97.742202 
L 87.713455 97.69193 
L 88.603591 97.628059 
L 89.493727 97.547201 
L 90.383864 97.44513 
L 91.274 97.316565 
L 92.164136 97.154937 
L 93.054273 96.952088 
L 93.944409 96.697937 
L 94.834545 96.380086 
L 95.724682 95.983386 
L 96.614818 95.489487 
L 97.504955 94.87638 
L 98.395091 94.118029 
L 99.285227 93.184159 
L 100.175364 92.04035 
L 101.0655 90.648631 
L 101.955636 88.968802 
L 102.845773 86.960732 
L 103.735909 84.587835 
L 104.626045 81.821777 
L 105.516182 78.648164 
L 106.406318 75.072541 
L 107.296455 71.125566 
L 108.186591 66.865855 
L 109.076727 62.379105 
L 109.966864 57.772681 
L 110.857 53.166049 
L 111.747136 48.678695 
L 112.637273 44.418045 
L 113.527409 40.469879 
L 114.417545 36.892909 
L 115.307682 33.717884 
L 116.197818 30.950426 
L 117.087955 28.576197 
L 117.978091 26.566896 
L 118.868227 24.885957 
L 119.758364 23.49325 
L 120.6485 22.348567 
L 121.538636 21.413921 
L 122.428773 20.654874 
L 123.318909 20.041127 
L 124.209045 19.546621 
L 125.099182 19.149325 
L 125.989318 18.830861 
" style="fill:none;stroke:#d6604d;stroke-linecap:round;stroke-width:1.5;"/>
   </g>
   <g id="line2d_10">
    <path clip-path="url(#p8405bf9c20)" d="M 36.975682 97.902818 
L 37.865818 97.902606 
L 38.755955 97.902338 
L 39.646091 97.902002 
L 40.536227 97.901578 
L 41.426364 97.901045 
L 42.3165 97.900374 
L 43.206636 97.899529 
L 44.096773 97.898465 
L 44.986909 97.897126 
L 45.877045 97.89544 
L 46.767182 97.893318 
L 47.657318 97.890646 
L 48.547455 97.887283 
L 49.437591 97.883049 
L 50.327727 97.87772 
L 51.217864 97.871012 
L 52.108 97.862568 
L 52.998136 97.851941 
L 53.888273 97.838566 
L 54.778409 97.821735 
L 55.668545 97.800555 
L 56.558682 97.773908 
L 57.448818 97.740385 
L 58.338955 97.698223 
L 59.229091 97.645207 
L 60.119227 97.578564 
L 61.009364 97.494822 
L 61.8995 97.389647 
L 62.789636 97.257632 
L 63.679773 97.092055 
L 64.569909 96.884581 
L 65.460045 96.624922 
L 66.350182 96.300438 
L 67.240318 95.895706 
L 68.130455 95.392058 
L 69.020591 94.76714 
L 69.910727 93.994544 
L 70.800864 93.043624 
L 71.691 91.879621 
L 72.581136 90.464321 
L 73.471273 88.757447 
L 74.361409 86.719065 
L 75.251545 84.313171 
L 76.141682 81.512508 
L 77.031818 78.304326 
L 77.921955 74.696369 
L 78.812091 70.721922 
L 79.702227 66.442393 
L 80.592364 61.946067 
L 81.4825 57.342314 
L 82.372636 52.75173 
L 83.262773 48.293976 
L 84.152909 44.075846 
L 85.043045 40.182044 
L 85.933182 36.670214 
L 86.823318 33.570489 
L 87.713455 30.888684 
L 88.603591 28.611703 
L 89.493727 26.71369 
L 90.383864 25.161826 
L 91.274 23.921134 
L 92.164136 22.958099 
L 93.054273 22.243169 
L 93.944409 21.752342 
L 94.834545 21.468098 
L 95.724682 21.379899 
L 96.614818 21.484417 
L 97.504955 21.785593 
L 98.395091 22.294567 
L 99.285227 23.029428 
L 100.175364 24.014692 
L 101.0655 25.280317 
L 101.955636 26.860052 
L 102.845773 28.78885 
L 103.735909 31.099143 
L 104.626045 33.815945 
L 105.516182 36.950991 
L 106.406318 40.496601 
L 107.296455 44.420403 
L 108.186591 48.662389 
L 109.076727 53.135735 
L 109.966864 57.732152 
L 110.857 62.331419 
L 111.747136 66.813432 
L 112.637273 71.070269 
L 113.527409 75.015754 
L 114.417545 78.590866 
L 115.307682 81.764622 
L 116.197818 84.531223 
L 117.087955 86.904881 
L 117.978091 88.913803 
L 118.868227 90.594494 
L 119.758364 91.98704 
L 120.6485 93.131619 
L 121.538636 94.066198 
L 122.428773 94.825202 
L 123.318909 95.438921 
L 124.209045 95.933409 
L 125.099182 96.330694 
L 125.989318 96.649152 
" style="fill:none;stroke:#f4a582;stroke-linecap:round;stroke-width:1.5;"/>
   </g>
   <g id="line2d_11">
    <path clip-path="url(#p8405bf9c20)" d="M 36.975682 97.764291 
L 37.865818 97.792911 
L 38.755955 97.815659 
L 39.646091 97.833738 
L 40.536227 97.848105 
L 41.426364 97.85952 
L 42.3165 97.86859 
L 43.206636 97.875796 
L 44.096773 97.88152 
L 44.986909 97.886068 
L 45.877045 97.889681 
L 46.767182 97.892551 
L 47.657318 97.894831 
L 48.547455 97.896642 
L 49.437591 97.898081 
L 50.327727 97.899224 
L 51.217864 97.900132 
L 52.108 97.900853 
L 52.998136 97.901426 
L 53.888273 97.90188 
L 54.778409 97.902242 
L 55.668545 97.902529 
L 56.558682 97.902757 
L 57.448818 97.902938 
L 58.338955 97.903082 
L 59.229091 97.903196 
L 60.119227 97.903287 
L 61.009364 97.903359 
L 61.8995 97.903417 
L 62.789636 97.903462 
L 63.679773 97.903498 
L 64.569909 97.903527 
L 65.460045 97.90355 
L 66.350182 97.903568 
L 67.240318 97.903582 
L 68.130455 97.903594 
L 69.020591 97.903603 
L 69.910727 97.90361 
L 70.800864 97.903616 
L 71.691 97.90362 
L 72.581136 97.903624 
L 73.471273 97.903627 
L 74.361409 97.903629 
L 75.251545 97.903631 
L 76.141682 97.903632 
L 77.031818 97.903633 
L 77.921955 97.903634 
L 78.812091 97.903635 
L 79.702227 97.903635 
L 80.592364 97.903635 
L 81.4825 97.903636 
L 82.372636 97.903636 
L 83.262773 97.903636 
L 84.152909 97.903636 
L 85.043045 97.903636 
L 85.933182 97.903636 
L 86.823318 97.903636 
L 87.713455 97.903636 
L 88.603591 97.903636 
L 89.493727 97.903636 
L 90.383864 97.903636 
L 91.274 97.903636 
L 92.164136 97.903636 
L 93.054273 97.903636 
L 93.944409 97.903636 
L 94.834545 97.903636 
L 95.724682 97.903636 
L 96.614818 97.903636 
L 97.504955 97.903636 
L 98.395091 97.903636 
L 99.285227 97.903636 
L 100.175364 97.903636 
L 101.0655 97.903636 
L 101.955636 97.903636 
L 102.845773 97.903636 
L 103.735909 97.903636 
L 104.626045 97.903636 
L 105.516182 97.903636 
L 106.406318 97.903636 
L 107.296455 97.903636 
L 108.186591 97.903636 
L 109.076727 97.903636 
L 109.966864 97.903636 
L 110.857 97.903636 
L 111.747136 97.903636 
L 112.637273 97.903636 
L 113.527409 97.903636 
L 114.417545 97.903636 
L 115.307682 97.903636 
L 116.197818 97.903636 
L 117.087955 97.903636 
L 117.978091 97.903636 
L 118.868227 97.903636 
L 119.758364 97.903636 
L 120.6485 97.903636 
L 121.538636 97.903636 
L 122.428773 97.903636 
L 123.318909 97.903636 
L 124.209045 97.903636 
L 125.099182 97.903636 
L 125.989318 97.903636 
" style="fill:none;stroke:#92c5de;stroke-linecap:round;stroke-width:1.5;"/>
   </g>
   <g id="line2d_12">
    <path clip-path="url(#p8405bf9c20)" d="M 36.975682 17.716528 
L 37.865818 17.68812 
L 38.755955 17.665639 
L 39.646091 17.647896 
L 40.536227 17.633953 
L 41.426364 17.623071 
L 42.3165 17.614673 
L 43.206636 17.608312 
L 44.096773 17.603651 
L 44.986909 17.600442 
L 45.877045 17.598515 
L 46.767182 17.597767 
L 47.657318 17.598159 
L 48.547455 17.599711 
L 49.437591 17.602506 
L 50.327727 17.606693 
L 51.217864 17.612493 
L 52.108 17.620216 
L 52.998136 17.63027 
L 53.888273 17.64319 
L 54.778409 17.65966 
L 55.668545 17.680552 
L 56.558682 17.706972 
L 57.448818 17.740313 
L 58.338955 17.782331 
L 59.229091 17.835233 
L 60.119227 17.901786 
L 61.009364 17.985456 
L 61.8995 18.090575 
L 62.789636 18.222545 
L 63.679773 18.388088 
L 64.569909 18.595536 
L 65.460045 18.855177 
L 66.350182 19.17965 
L 67.240318 19.58438 
L 68.130455 20.088035 
L 69.020591 20.712973 
L 69.910727 21.485606 
L 70.800864 22.43659 
L 71.691 23.600697 
L 72.581136 25.016161 
L 73.471273 26.723288 
L 74.361409 28.76206 
L 75.251545 31.168544 
L 76.141682 33.970091 
L 77.031818 37.179584 
L 77.921955 40.789457 
L 78.812091 44.766667 
L 79.702227 49.050121 
L 80.592364 53.551937 
L 81.4825 58.163253 
L 82.372636 62.7641 
L 83.262773 67.235584 
L 84.152909 71.471851 
L 85.043045 75.389347 
L 85.933182 78.931839 
L 86.823318 82.070945 
L 87.713455 84.803022 
L 88.603591 87.143875 
L 89.493727 89.122745 
L 90.383864 90.776681 
L 91.274 92.145937 
L 92.164136 93.2706 
L 93.054273 94.188379 
L 93.944409 94.933357 
L 94.834545 95.535453 
L 95.724682 96.020351 
L 96.614818 96.409733 
L 97.504955 96.721663 
L 98.395091 96.97104 
L 99.285227 97.170048 
L 100.175364 97.328595 
L 101.0655 97.454688 
L 101.955636 97.554781 
L 102.845773 97.634054 
L 103.735909 97.696658 
L 104.626045 97.745914 
L 105.516182 97.784481 
L 106.406318 97.814494 
L 107.296455 97.837668 
L 108.186591 97.855392 
L 109.076727 97.868796 
L 109.966864 97.878803 
L 110.857 97.886169 
L 111.747136 97.89151 
L 112.637273 97.895323 
L 113.527409 97.898004 
L 114.417545 97.899861 
L 115.307682 97.90113 
L 116.197818 97.901987 
L 117.087955 97.902559 
L 117.978091 97.902937 
L 118.868227 97.903185 
L 119.758364 97.903346 
L 120.6485 97.90345 
L 121.538636 97.903517 
L 122.428773 97.903561 
L 123.318909 97.903588 
L 124.209045 97.903606 
L 125.099182 97.903617 
L 125.989318 97.903624 
" style="fill:none;stroke:#333333;stroke-linecap:round;stroke-width:1.5;"/>
   </g>
  </g>
 </g>
 <defs>
  <clipPath id="p8405bf9c20">
   <rect height="88.36" width="97.915" x="32.525" y="13.56"/>
  </clipPath>
 </defs>
</svg>
