<?xml version="1.0" encoding="utf-8" standalone="no"?>
<!DOCTYPE svg PUBLIC "-//W3C//DTD SVG 1.1//EN"
  "http://www.w3.org/Graphics/SVG/1.1/DTD/svg11.dtd">
<!-- Created with matplotlib (http://matplotlib.org/) -->
<svg height="216pt" version="1.1" viewBox="0 0 216 216" width="216pt" xmlns="http://www.w3.org/2000/svg" xmlns:xlink="http://www.w3.org/1999/xlink">
 <defs>
  <style type="text/css">
*{stroke-linecap:butt;stroke-linejoin:round;}
  </style>
 </defs>
 <g id="figure_1">
  <g id="patch_1">
   <path d="M 0 216 
L 216 216 
L 216 0 
L 0 0 
z
" style="fill:#ffffff;"/>
  </g>
  <g id="axes_1">
   <g id="patch_2">
    <path d="M 44.78 175.96 
L 203.52 175.96 
L 203.52 25.44 
L 44.78 25.44 
z
" style="fill:#ffffff;"/>
   </g>
   <g id="matplotlib.axis_1">
    <g id="xtick_1">
     <g id="line2d_1">
      <defs>
       <path d="M 0 0 
L 0 3.5 
" id="m084b695601" style="stroke:#262626;stroke-width:0.8;"/>
      </defs>
      <g>
       <use style="fill:#262626;stroke:#262626;stroke-width:0.8;" x="51.995455" xlink:href="#m084b695601" y="175.96"/>
      </g>
     </g>
     <g id="text_1">
      <!-- 2 -->
      <defs>
       <path d="M 50.34375 8.453125 
L 50.34375 0 
L 3.03125 0 
Q 2.9375 3.171875 4.046875 6.109375 
Q 5.859375 10.9375 9.828125 15.625 
Q 13.8125 20.3125 21.34375 26.46875 
Q 33.015625 36.03125 37.109375 41.625 
Q 41.21875 47.21875 41.21875 52.203125 
Q 41.21875 57.421875 37.46875 61 
Q 33.734375 64.59375 27.734375 64.59375 
Q 21.390625 64.59375 17.578125 60.78125 
Q 13.765625 56.984375 13.71875 50.25 
L 4.6875 51.171875 
Q 5.609375 61.28125 11.65625 66.578125 
Q 17.71875 71.875 27.9375 71.875 
Q 38.234375 71.875 44.234375 66.15625 
Q 50.25 60.453125 50.25 52 
Q 50.25 47.703125 48.484375 43.546875 
Q 46.734375 39.40625 42.65625 34.8125 
Q 38.578125 30.21875 29.109375 22.21875 
Q 21.1875 15.578125 18.9375 13.203125 
Q 16.703125 10.84375 15.234375 8.453125 
z
" id="ArialMT-32"/>
      </defs>
      <g style="fill:#262626;" transform="translate(49.214986 190.117812)scale(0.1 -0.1)">
       <use xlink:href="#ArialMT-32"/>
      </g>
     </g>
    </g>
    <g id="xtick_2">
     <g id="line2d_2">
      <g>
       <use style="fill:#262626;stroke:#262626;stroke-width:0.8;" x="80.857273" xlink:href="#m084b695601" y="175.96"/>
      </g>
     </g>
     <g id="text_2">
      <!-- 4 -->
      <defs>
       <path d="M 32.328125 0 
L 32.328125 17.140625 
L 1.265625 17.140625 
L 1.265625 25.203125 
L 33.9375 71.578125 
L 41.109375 71.578125 
L 41.109375 25.203125 
L 50.78125 25.203125 
L 50.78125 17.140625 
L 41.109375 17.140625 
L 41.109375 0 
z
M 32.328125 25.203125 
L 32.328125 57.46875 
L 9.90625 25.203125 
z
" id="ArialMT-34"/>
      </defs>
      <g style="fill:#262626;" transform="translate(78.076804 190.117812)scale(0.1 -0.1)">
       <use xlink:href="#ArialMT-34"/>
      </g>
     </g>
    </g>
    <g id="xtick_3">
     <g id="line2d_3">
      <g>
       <use style="fill:#262626;stroke:#262626;stroke-width:0.8;" x="109.719091" xlink:href="#m084b695601" y="175.96"/>
      </g>
     </g>
     <g id="text_3">
      <!-- 6 -->
      <defs>
       <path d="M 49.75 54.046875 
L 41.015625 53.375 
Q 39.84375 58.546875 37.703125 60.890625 
Q 34.125 64.65625 28.90625 64.65625 
Q 24.703125 64.65625 21.53125 62.3125 
Q 17.390625 59.28125 14.984375 53.46875 
Q 12.59375 47.65625 12.5 36.921875 
Q 15.671875 41.75 20.265625 44.09375 
Q 24.859375 46.4375 29.890625 46.4375 
Q 38.671875 46.4375 44.84375 39.96875 
Q 51.03125 33.5 51.03125 23.25 
Q 51.03125 16.5 48.125 10.71875 
Q 45.21875 4.9375 40.140625 1.859375 
Q 35.0625 -1.21875 28.609375 -1.21875 
Q 17.625 -1.21875 10.6875 6.859375 
Q 3.765625 14.9375 3.765625 33.5 
Q 3.765625 54.25 11.421875 63.671875 
Q 18.109375 71.875 29.4375 71.875 
Q 37.890625 71.875 43.28125 67.140625 
Q 48.6875 62.40625 49.75 54.046875 
z
M 13.875 23.1875 
Q 13.875 18.65625 15.796875 14.5 
Q 17.71875 10.359375 21.1875 8.171875 
Q 24.65625 6 28.46875 6 
Q 34.03125 6 38.03125 10.484375 
Q 42.046875 14.984375 42.046875 22.703125 
Q 42.046875 30.125 38.078125 34.390625 
Q 34.125 38.671875 28.125 38.671875 
Q 22.171875 38.671875 18.015625 34.390625 
Q 13.875 30.125 13.875 23.1875 
z
" id="ArialMT-36"/>
      </defs>
      <g style="fill:#262626;" transform="translate(106.938622 190.117812)scale(0.1 -0.1)">
       <use xlink:href="#ArialMT-36"/>
      </g>
     </g>
    </g>
    <g id="xtick_4">
     <g id="line2d_4">
      <g>
       <use style="fill:#262626;stroke:#262626;stroke-width:0.8;" x="138.580909" xlink:href="#m084b695601" y="175.96"/>
      </g>
     </g>
     <g id="text_4">
      <!-- 8 -->
      <defs>
       <path d="M 17.671875 38.8125 
Q 12.203125 40.828125 9.5625 44.53125 
Q 6.9375 48.25 6.9375 53.421875 
Q 6.9375 61.234375 12.546875 66.546875 
Q 18.171875 71.875 27.484375 71.875 
Q 36.859375 71.875 42.578125 66.421875 
Q 48.296875 60.984375 48.296875 53.171875 
Q 48.296875 48.1875 45.671875 44.5 
Q 43.0625 40.828125 37.75 38.8125 
Q 44.34375 36.671875 47.78125 31.875 
Q 51.21875 27.09375 51.21875 20.453125 
Q 51.21875 11.28125 44.71875 5.03125 
Q 38.234375 -1.21875 27.640625 -1.21875 
Q 17.046875 -1.21875 10.546875 5.046875 
Q 4.046875 11.328125 4.046875 20.703125 
Q 4.046875 27.6875 7.59375 32.390625 
Q 11.140625 37.109375 17.671875 38.8125 
z
M 15.921875 53.71875 
Q 15.921875 48.640625 19.1875 45.40625 
Q 22.46875 42.1875 27.6875 42.1875 
Q 32.765625 42.1875 36.015625 45.375 
Q 39.265625 48.578125 39.265625 53.21875 
Q 39.265625 58.0625 35.90625 61.359375 
Q 32.5625 64.65625 27.59375 64.65625 
Q 22.5625 64.65625 19.234375 61.421875 
Q 15.921875 58.203125 15.921875 53.71875 
z
M 13.09375 20.65625 
Q 13.09375 16.890625 14.875 13.375 
Q 16.65625 9.859375 20.171875 7.921875 
Q 23.6875 6 27.734375 6 
Q 34.03125 6 38.125 10.046875 
Q 42.234375 14.109375 42.234375 20.359375 
Q 42.234375 26.703125 38.015625 30.859375 
Q 33.796875 35.015625 27.4375 35.015625 
Q 21.234375 35.015625 17.15625 30.90625 
Q 13.09375 26.8125 13.09375 20.65625 
z
" id="ArialMT-38"/>
      </defs>
      <g style="fill:#262626;" transform="translate(135.80044 190.117812)scale(0.1 -0.1)">
       <use xlink:href="#ArialMT-38"/>
      </g>
     </g>
    </g>
    <g id="xtick_5">
     <g id="line2d_5">
      <g>
       <use style="fill:#262626;stroke:#262626;stroke-width:0.8;" x="167.442727" xlink:href="#m084b695601" y="175.96"/>
      </g>
     </g>
     <g id="text_5">
      <!-- 10 -->
      <defs>
       <path d="M 37.25 0 
L 28.46875 0 
L 28.46875 56 
Q 25.296875 52.984375 20.140625 49.953125 
Q 14.984375 46.921875 10.890625 45.40625 
L 10.890625 53.90625 
Q 18.265625 57.375 23.78125 62.296875 
Q 29.296875 67.234375 31.59375 71.875 
L 37.25 71.875 
z
" id="ArialMT-31"/>
       <path d="M 4.15625 35.296875 
Q 4.15625 48 6.765625 55.734375 
Q 9.375 63.484375 14.515625 67.671875 
Q 19.671875 71.875 27.484375 71.875 
Q 33.25 71.875 37.59375 69.546875 
Q 41.9375 67.234375 44.765625 62.859375 
Q 47.609375 58.5 49.21875 52.21875 
Q 50.828125 45.953125 50.828125 35.296875 
Q 50.828125 22.703125 48.234375 14.96875 
Q 45.65625 7.234375 40.5 3 
Q 35.359375 -1.21875 27.484375 -1.21875 
Q 17.140625 -1.21875 11.234375 6.203125 
Q 4.15625 15.140625 4.15625 35.296875 
z
M 13.1875 35.296875 
Q 13.1875 17.671875 17.3125 11.828125 
Q 21.4375 6 27.484375 6 
Q 33.546875 6 37.671875 11.859375 
Q 41.796875 17.71875 41.796875 35.296875 
Q 41.796875 52.984375 37.671875 58.78125 
Q 33.546875 64.59375 27.390625 64.59375 
Q 21.34375 64.59375 17.71875 59.46875 
Q 13.1875 52.9375 13.1875 35.296875 
z
" id="ArialMT-30"/>
      </defs>
      <g style="fill:#262626;" transform="translate(161.88179 190.117812)scale(0.1 -0.1)">
       <use xlink:href="#ArialMT-31"/>
       <use x="55.615234" xlink:href="#ArialMT-30"/>
      </g>
     </g>
    </g>
    <g id="xtick_6">
     <g id="line2d_6">
      <g>
       <use style="fill:#262626;stroke:#262626;stroke-width:0.8;" x="196.304545" xlink:href="#m084b695601" y="175.96"/>
      </g>
     </g>
     <g id="text_6">
      <!-- 12 -->
      <g style="fill:#262626;" transform="translate(190.743608 190.117812)scale(0.1 -0.1)">
       <use xlink:href="#ArialMT-31"/>
       <use x="55.615234" xlink:href="#ArialMT-32"/>
      </g>
     </g>
    </g>
    <g id="text_7">
     <!-- pH -->
     <defs>
      <path d="M 6.59375 -19.875 
L 6.59375 51.859375 
L 14.59375 51.859375 
L 14.59375 45.125 
Q 17.4375 49.078125 21 51.046875 
Q 24.5625 53.03125 29.640625 53.03125 
Q 36.28125 53.03125 41.359375 49.609375 
Q 46.4375 46.1875 49.015625 39.953125 
Q 51.609375 33.734375 51.609375 26.3125 
Q 51.609375 18.359375 48.75 11.984375 
Q 45.90625 5.609375 40.453125 2.21875 
Q 35.015625 -1.171875 29 -1.171875 
Q 24.609375 -1.171875 21.109375 0.6875 
Q 17.625 2.546875 15.375 5.375 
L 15.375 -19.875 
z
M 14.546875 25.640625 
Q 14.546875 15.625 18.59375 10.84375 
Q 22.65625 6.0625 28.421875 6.0625 
Q 34.28125 6.0625 38.453125 11.015625 
Q 42.625 15.96875 42.625 26.375 
Q 42.625 36.28125 38.546875 41.203125 
Q 34.46875 46.140625 28.8125 46.140625 
Q 23.1875 46.140625 18.859375 40.890625 
Q 14.546875 35.640625 14.546875 25.640625 
z
" id="ArialMT-70"/>
      <path d="M 8.015625 0 
L 8.015625 71.578125 
L 17.484375 71.578125 
L 17.484375 42.1875 
L 54.6875 42.1875 
L 54.6875 71.578125 
L 64.15625 71.578125 
L 64.15625 0 
L 54.6875 0 
L 54.6875 33.734375 
L 17.484375 33.734375 
L 17.484375 0 
z
" id="ArialMT-48"/>
     </defs>
     <g style="fill:#262626;" transform="translate(117.758594 203.263125)scale(0.1 -0.1)">
      <use xlink:href="#ArialMT-70"/>
      <use x="55.615234" xlink:href="#ArialMT-48"/>
     </g>
    </g>
   </g>
   <g id="matplotlib.axis_2">
    <g id="ytick_1">
     <g id="line2d_7">
      <defs>
       <path d="M 0 0 
L -3.5 0 
" id="m1894912de8" style="stroke:#262626;stroke-width:0.8;"/>
      </defs>
      <g>
       <use style="fill:#262626;stroke:#262626;stroke-width:0.8;" x="44.78" xlink:href="#m1894912de8" y="153.544325"/>
      </g>
     </g>
     <g id="text_8">
      <!-- −1 -->
      <defs>
       <path d="M 52.828125 31.203125 
L 5.5625 31.203125 
L 5.5625 39.40625 
L 52.828125 39.40625 
z
" id="ArialMT-2212"/>
      </defs>
      <g style="fill:#262626;" transform="translate(26.378438 157.123231)scale(0.1 -0.1)">
       <use xlink:href="#ArialMT-2212"/>
       <use x="58.398438" xlink:href="#ArialMT-31"/>
      </g>
     </g>
    </g>
    <g id="ytick_2">
     <g id="line2d_8">
      <g>
       <use style="fill:#262626;stroke:#262626;stroke-width:0.8;" x="44.78" xlink:href="#m1894912de8" y="102.227029"/>
      </g>
     </g>
     <g id="text_9">
      <!-- 0 -->
      <g style="fill:#262626;" transform="translate(32.219063 105.805935)scale(0.1 -0.1)">
       <use xlink:href="#ArialMT-30"/>
      </g>
     </g>
    </g>
    <g id="ytick_3">
     <g id="line2d_9">
      <g>
       <use style="fill:#262626;stroke:#262626;stroke-width:0.8;" x="44.78" xlink:href="#m1894912de8" y="50.909732"/>
      </g>
     </g>
     <g id="text_10">
      <!-- 1 -->
      <g style="fill:#262626;" transform="translate(32.219063 54.488639)scale(0.1 -0.1)">
       <use xlink:href="#ArialMT-31"/>
      </g>
     </g>
    </g>
    <g id="text_11">
     <!-- $\langle q_\mathsf{total} \rangle$ -->
     <defs>
      <path d="M 8.9375 31.34375 
L 22.703125 75.875 
L 31 75.875 
L 17.234375 31.34375 
L 31 -13.1875 
L 22.703125 -13.1875 
z
" id="DejaVuSans-27e8"/>
      <path d="M 41.703125 8.203125 
Q 38.09375 3.46875 33.171875 1.015625 
Q 28.265625 -1.421875 22.3125 -1.421875 
Q 14.015625 -1.421875 9.296875 4.171875 
Q 4.59375 9.765625 4.59375 19.578125 
Q 4.59375 27.484375 7.5 34.859375 
Q 10.40625 42.234375 15.828125 48.09375 
Q 19.34375 51.90625 23.90625 53.953125 
Q 28.46875 56 33.5 56 
Q 39.546875 56 43.453125 53.609375 
Q 47.359375 51.21875 49.125 46.390625 
L 50.6875 54.59375 
L 59.71875 54.59375 
L 45.125 -20.609375 
L 36.078125 -20.609375 
z
M 13.921875 20.90625 
Q 13.921875 13.671875 16.9375 9.890625 
Q 19.96875 6.109375 25.6875 6.109375 
Q 34.1875 6.109375 40.1875 14.234375 
Q 46.1875 22.359375 46.1875 33.984375 
Q 46.1875 41.015625 43.078125 44.75 
Q 39.984375 48.484375 34.1875 48.484375 
Q 29.9375 48.484375 26.3125 46.5 
Q 22.703125 44.53125 20.015625 40.71875 
Q 17.1875 36.71875 15.546875 31.34375 
Q 13.921875 25.984375 13.921875 20.90625 
z
" id="DejaVuSans-Oblique-71"/>
      <path d="M 18.3125 70.21875 
L 18.3125 54.6875 
L 36.8125 54.6875 
L 36.8125 47.703125 
L 18.3125 47.703125 
L 18.3125 18.015625 
Q 18.3125 11.328125 20.140625 9.421875 
Q 21.96875 7.515625 27.59375 7.515625 
L 36.8125 7.515625 
L 36.8125 0 
L 27.59375 0 
Q 17.1875 0 13.234375 3.875 
Q 9.28125 7.765625 9.28125 18.015625 
L 9.28125 47.703125 
L 2.6875 47.703125 
L 2.6875 54.6875 
L 9.28125 54.6875 
L 9.28125 70.21875 
z
" id="DejaVuSans-74"/>
      <path d="M 30.609375 48.390625 
Q 23.390625 48.390625 19.1875 42.75 
Q 14.984375 37.109375 14.984375 27.296875 
Q 14.984375 17.484375 19.15625 11.84375 
Q 23.34375 6.203125 30.609375 6.203125 
Q 37.796875 6.203125 41.984375 11.859375 
Q 46.1875 17.53125 46.1875 27.296875 
Q 46.1875 37.015625 41.984375 42.703125 
Q 37.796875 48.390625 30.609375 48.390625 
z
M 30.609375 56 
Q 42.328125 56 49.015625 48.375 
Q 55.71875 40.765625 55.71875 27.296875 
Q 55.71875 13.875 49.015625 6.21875 
Q 42.328125 -1.421875 30.609375 -1.421875 
Q 18.84375 -1.421875 12.171875 6.21875 
Q 5.515625 13.875 5.515625 27.296875 
Q 5.515625 40.765625 12.171875 48.375 
Q 18.84375 56 30.609375 56 
z
" id="DejaVuSans-6f"/>
      <path d="M 34.28125 27.484375 
Q 23.390625 27.484375 19.1875 25 
Q 14.984375 22.515625 14.984375 16.5 
Q 14.984375 11.71875 18.140625 8.90625 
Q 21.296875 6.109375 26.703125 6.109375 
Q 34.1875 6.109375 38.703125 11.40625 
Q 43.21875 16.703125 43.21875 25.484375 
L 43.21875 27.484375 
z
M 52.203125 31.203125 
L 52.203125 0 
L 43.21875 0 
L 43.21875 8.296875 
Q 40.140625 3.328125 35.546875 0.953125 
Q 30.953125 -1.421875 24.3125 -1.421875 
Q 15.921875 -1.421875 10.953125 3.296875 
Q 6 8.015625 6 15.921875 
Q 6 25.140625 12.171875 29.828125 
Q 18.359375 34.515625 30.609375 34.515625 
L 43.21875 34.515625 
L 43.21875 35.40625 
Q 43.21875 41.609375 39.140625 45 
Q 35.0625 48.390625 27.6875 48.390625 
Q 23 48.390625 18.546875 47.265625 
Q 14.109375 46.140625 10.015625 43.890625 
L 10.015625 52.203125 
Q 14.9375 54.109375 19.578125 55.046875 
Q 24.21875 56 28.609375 56 
Q 40.484375 56 46.34375 49.84375 
Q 52.203125 43.703125 52.203125 31.203125 
z
" id="DejaVuSans-61"/>
      <path d="M 9.421875 75.984375 
L 18.40625 75.984375 
L 18.40625 0 
L 9.421875 0 
z
" id="DejaVuSans-6c"/>
      <path d="M 30.078125 31.34375 
L 16.3125 -13.1875 
L 8.015625 -13.1875 
L 21.78125 31.34375 
L 8.015625 75.875 
L 16.3125 75.875 
z
" id="DejaVuSans-27e9"/>
     </defs>
     <g style="fill:#262626;" transform="translate(20.278438 115.95)rotate(-90)scale(0.1 -0.1)">
      <use transform="translate(0 0.125)" xlink:href="#DejaVuSans-27e8"/>
      <use transform="translate(39.013672 0.125)" xlink:href="#DejaVuSans-Oblique-71"/>
      <use transform="translate(102.490234 -16.28125)scale(0.7)" xlink:href="#DejaVuSans-74"/>
      <use transform="translate(129.936523 -16.28125)scale(0.7)" xlink:href="#DejaVuSans-6f"/>
      <use transform="translate(172.763672 -16.28125)scale(0.7)" xlink:href="#DejaVuSans-74"/>
      <use transform="translate(200.209961 -16.28125)scale(0.7)" xlink:href="#DejaVuSans-61"/>
      <use transform="translate(243.105469 -16.28125)scale(0.7)" xlink:href="#DejaVuSans-6c"/>
      <use transform="translate(265.288086 0.125)" xlink:href="#DejaVuSans-27e9"/>
     </g>
    </g>
   </g>
   <g id="PolyCollection_1">
    <defs>
     <path d="M 51.995455 -173.687027 
L 51.995455 -156.348737 
L 53.438545 -156.22247 
L 54.881636 -156.054626 
L 56.324727 -155.834304 
L 57.767818 -155.549172 
L 59.210909 -155.185878 
L 60.654 -154.730633 
L 62.097091 -154.169897 
L 63.540182 -153.491033 
L 64.983273 -152.682848 
L 66.426364 -151.735951 
L 67.869455 -150.642901 
L 69.312545 -149.398203 
L 70.755636 -147.99814 
L 72.198727 -146.440503 
L 73.641818 -144.724219 
L 75.084909 -142.848933 
L 76.528 -140.814606 
L 77.971091 -138.621268 
L 79.414182 -136.269061 
L 80.857273 -133.758738 
L 82.300364 -131.092778 
L 83.743455 -128.277211 
L 85.186545 -125.324104 
L 86.629636 -122.254504 
L 88.072727 -119.101282 
L 89.515818 -115.911103 
L 90.958909 -112.744572 
L 92.402 -109.673837 
L 93.845091 -106.77747 
L 95.288182 -104.133259 
L 96.731273 -101.810294 
L 98.174364 -99.862001 
L 99.617455 -98.321526 
L 101.060545 -97.200129 
L 102.503636 -96.488432 
L 103.946727 -96.159759 
L 105.389818 -96.174565 
L 106.832909 -96.485026 
L 108.276 -97.039121 
L 109.719091 -97.783802 
L 111.162182 -98.667032 
L 112.605273 -99.638605 
L 114.048364 -100.649661 
L 115.491455 -101.650852 
L 116.934545 -102.589193 
L 118.377636 -103.404104 
L 119.820727 -104.024396 
L 121.263818 -104.370248 
L 122.706909 -104.365479 
L 124.15 -103.959533 
L 125.593091 -103.144874 
L 127.036182 -101.9533 
L 128.479273 -100.435211 
L 129.922364 -98.639896 
L 131.365455 -96.60622 
L 132.808545 -94.361545 
L 134.251636 -91.924191 
L 135.694727 -89.306676 
L 137.137818 -86.518801 
L 138.580909 -83.570513 
L 140.024 -80.474756 
L 141.467091 -77.250444 
L 142.910182 -73.925478 
L 144.353273 -70.539392 
L 145.796364 -67.14491 
L 147.239455 -63.80754 
L 148.682545 -60.602566 
L 150.125636 -57.60939 
L 151.568727 -54.903964 
L 153.011818 -52.550784 
L 154.454909 -50.596145 
L 155.898 -49.064005 
L 157.341091 -47.955063 
L 158.784182 -47.248789 
L 160.227273 -46.907559 
L 161.670364 -46.881818 
L 163.113455 -47.115282 
L 164.556545 -47.549519 
L 165.999636 -48.127567 
L 167.442727 -48.796556 
L 168.885818 -49.509435 
L 170.328909 -50.226031 
L 171.772 -50.913621 
L 173.215091 -51.547212 
L 174.658182 -52.109572 
L 176.101273 -52.591012 
L 177.544364 -52.988804 
L 178.987455 -53.306122 
L 180.430545 -53.55057 
L 181.873636 -53.732449 
L 183.316727 -53.863096 
L 184.759818 -53.953543 
L 186.202909 -54.013642 
L 187.646 -54.051635 
L 189.089091 -54.074074 
L 190.532182 -54.085956 
L 191.975273 -54.090957 
L 193.418364 -54.091692 
L 194.861455 -54.089963 
L 196.304545 -54.086966 
L 196.304545 -70.880755 
L 196.304545 -70.880755 
L 194.861455 -70.892344 
L 193.418364 -70.908972 
L 191.975273 -70.932807 
L 190.532182 -70.966875 
L 189.089091 -71.015326 
L 187.646 -71.083767 
L 186.202909 -71.179613 
L 184.759818 -71.312452 
L 183.316727 -71.494327 
L 181.873636 -71.739843 
L 180.430545 -72.065966 
L 178.987455 -72.491428 
L 177.544364 -73.035719 
L 176.101273 -73.717815 
L 174.658182 -74.554919 
L 173.215091 -75.561496 
L 171.772 -76.748792 
L 170.328909 -78.124838 
L 168.885818 -79.694772 
L 167.442727 -81.461296 
L 165.999636 -83.425076 
L 164.556545 -85.584986 
L 163.113455 -87.938067 
L 161.670364 -90.479108 
L 160.227273 -93.199752 
L 158.784182 -96.087036 
L 157.341091 -99.121399 
L 155.898 -102.274326 
L 154.454909 -105.506064 
L 153.011818 -108.764112 
L 151.568727 -111.983337 
L 150.125636 -115.088453 
L 148.682545 -117.999076 
L 147.239455 -120.636827 
L 145.796364 -122.933174 
L 144.353273 -124.836368 
L 142.910182 -126.316063 
L 141.467091 -127.364899 
L 140.024 -127.997169 
L 138.580909 -128.24534 
L 137.137818 -128.155503 
L 135.694727 -127.782783 
L 134.251636 -127.187536 
L 132.808545 -126.432862 
L 131.365455 -125.583731 
L 129.922364 -124.707772 
L 128.479273 -123.877355 
L 127.036182 -123.171737 
L 125.593091 -122.676234 
L 124.15 -122.473508 
L 122.706909 -122.624672 
L 121.263818 -123.149473 
L 119.820727 -124.023594 
L 118.377636 -125.197039 
L 116.934545 -126.617125 
L 115.491455 -128.241729 
L 114.048364 -130.042201 
L 112.605273 -132.001174 
L 111.162182 -134.109238 
L 109.719091 -136.362083 
L 108.276 -138.758416 
L 106.832909 -141.298421 
L 105.389818 -143.982406 
L 103.946727 -146.809263 
L 102.503636 -149.774454 
L 101.060545 -152.867448 
L 99.617455 -156.068739 
L 98.174364 -159.346964 
L 96.731273 -162.656907 
L 95.288182 -165.939328 
L 93.845091 -169.123361 
L 92.402 -172.131649 
L 90.958909 -174.887574 
L 89.515818 -177.3232 
L 88.072727 -179.386261 
L 86.629636 -181.044772 
L 85.186545 -182.288619 
L 83.743455 -183.128262 
L 82.300364 -183.591341 
L 80.857273 -183.718182 
L 79.414182 -183.557118 
L 77.971091 -183.160286 
L 76.528 -182.580204 
L 75.084909 -181.867225 
L 73.641818 -181.067764 
L 72.198727 -180.223162 
L 70.755636 -179.369023 
L 69.312545 -178.534924 
L 67.869455 -177.74438 
L 66.426364 -177.015017 
L 64.983273 -176.358879 
L 63.540182 -175.782847 
L 62.097091 -175.289146 
L 60.654 -174.875971 
L 59.210909 -174.538243 
L 57.767818 -174.268488 
L 56.324727 -174.05778 
L 54.881636 -173.896652 
L 53.438545 -173.775876 
L 51.995455 -173.687027 
z
" id="m947f70f87b" style="stroke:#ffffff;stroke-opacity:0.05;"/>
    </defs>
    <g clip-path="url(#pa26af6daf6)">
     <use style="fill:#591e71;fill-opacity:0.05;stroke:#ffffff;stroke-opacity:0.05;" x="0" xlink:href="#m947f70f87b" y="216"/>
    </g>
   </g>
   <g id="line2d_10">
    <path clip-path="url(#pa26af6daf6)" d="M 51.995455 50.982118 
L 53.438545 51.000827 
L 54.881636 51.024361 
L 56.324727 51.053958 
L 57.767818 51.09117 
L 59.210909 51.13794 
L 60.654 51.196698 
L 62.097091 51.270479 
L 63.540182 51.36306 
L 64.983273 51.479136 
L 66.426364 51.624516 
L 67.869455 51.806359 
L 69.312545 52.033436 
L 70.755636 52.316418 
L 72.198727 52.668168 
L 73.641818 53.104009 
L 75.084909 53.641921 
L 76.528 54.302595 
L 77.971091 55.109223 
L 79.414182 56.08691 
L 80.857273 57.26154 
L 82.300364 58.65794 
L 83.743455 60.297264 
L 85.186545 62.193639 
L 86.629636 64.350362 
L 88.072727 66.756228 
L 89.515818 69.382848 
L 90.958909 72.183927 
L 92.402 75.097257 
L 93.845091 78.049585 
L 95.288182 80.963707 
L 96.731273 83.7664 
L 98.174364 86.395517 
L 99.617455 88.804867 
L 101.060545 90.966212 
L 102.503636 92.868557 
L 103.946727 94.515489 
L 105.389818 95.921514 
L 106.832909 97.108277 
L 108.276 98.101232 
L 109.719091 98.927057 
L 111.162182 99.611865 
L 112.605273 100.18011 
L 114.048364 100.654069 
L 115.491455 101.053709 
L 116.934545 101.396841 
L 118.377636 101.699428 
L 119.820727 101.976005 
L 121.263818 102.240139 
L 122.706909 102.504925 
L 124.15 102.783479 
L 125.593091 103.089446 
L 127.036182 103.437481 
L 128.479273 103.843717 
L 129.922364 104.326166 
L 131.365455 104.905024 
L 132.808545 105.602797 
L 134.251636 106.444136 
L 135.694727 107.45527 
L 137.137818 108.662848 
L 138.580909 110.092074 
L 140.024 111.764037 
L 141.467091 113.692328 
L 142.910182 115.87923 
L 144.353273 118.31212 
L 145.796364 120.960958 
L 147.239455 123.777817 
L 148.682545 126.699179 
L 150.125636 129.651078 
L 151.568727 132.556349 
L 153.011818 135.342552 
L 154.454909 137.948896 
L 155.898 140.330834 
L 157.341091 142.461769 
L 158.784182 144.332088 
L 160.227273 145.946345 
L 161.670364 147.319537 
L 163.113455 148.473325 
L 164.556545 149.432748 
L 165.999636 150.223679 
L 167.442727 150.871074 
L 168.885818 151.397896 
L 170.328909 151.824566 
L 171.772 152.168793 
L 173.215091 152.445646 
L 174.658182 152.667754 
L 176.101273 152.845586 
L 177.544364 152.987739 
L 178.987455 153.101225 
L 180.430545 153.191732 
L 181.873636 153.263854 
L 183.316727 153.321289 
L 184.759818 153.367002 
L 186.202909 153.403373 
L 187.646 153.432299 
L 189.089091 153.4553 
L 190.532182 153.473585 
L 191.975273 153.488118 
L 193.418364 153.499668 
L 194.861455 153.508847 
L 196.304545 153.51614 
" style="fill:none;opacity:0.9;stroke:#591e71;stroke-linecap:round;stroke-width:1.5;"/>
   </g>
   <g id="line2d_11">
    <path clip-path="url(#pa26af6daf6)" d="M 51.995455 51.01192 
L 53.438545 51.038313 
L 54.881636 51.0715 
L 56.324727 51.11322 
L 57.767818 51.165646 
L 59.210909 51.231493 
L 60.654 51.314148 
L 62.097091 51.417825 
L 63.540182 51.547748 
L 64.983273 51.710369 
L 66.426364 51.913619 
L 67.869455 52.167183 
L 69.312545 52.482789 
L 70.755636 52.874501 
L 72.198727 53.358952 
L 73.641818 53.955484 
L 75.084909 54.68608 
L 76.528 55.574992 
L 77.971091 56.647894 
L 79.414182 57.930411 
L 80.857273 59.445904 
L 82.300364 61.212461 
L 83.743455 63.239265 
L 85.186545 65.522766 
L 86.629636 68.043378 
L 88.072727 70.763668 
L 89.515818 73.62892 
L 90.958909 76.570595 
L 92.402 79.512448 
L 93.845091 82.378236 
L 95.288182 85.099442 
L 96.731273 87.621385 
L 98.174364 89.906689 
L 99.617455 91.935848 
L 101.060545 93.705424 
L 102.503636 95.224747 
L 103.946727 96.5121 
L 105.389818 97.591091 
L 106.832909 98.487664 
L 108.276 99.227896 
L 109.719091 99.836544 
L 111.162182 100.336233 
L 112.605273 100.747108 
L 114.048364 101.086811 
L 115.491455 101.370671 
L 116.934545 101.612007 
L 118.377636 101.82249 
L 119.820727 102.012535 
L 121.263818 102.191699 
L 122.706909 102.369066 
L 124.15 102.553647 
L 125.593091 102.754763 
L 127.036182 102.982436 
L 128.479273 103.247789 
L 129.922364 103.563435 
L 131.365455 103.943859 
L 132.808545 104.405748 
L 134.251636 104.968233 
L 135.694727 105.652967 
L 137.137818 106.483923 
L 138.580909 107.486786 
L 140.024 108.687772 
L 141.467091 110.111739 
L 142.910182 111.779506 
L 144.353273 113.704446 
L 145.796364 115.888672 
L 147.239455 118.319427 
L 148.682545 120.966567 
L 150.125636 123.782081 
L 151.568727 126.702386 
L 153.011818 129.653463 
L 154.454909 132.558101 
L 155.898 135.343825 
L 157.341091 137.949811 
L 158.784182 140.331487 
L 160.227273 142.462231 
L 161.670364 144.332413 
L 163.113455 145.946574 
L 164.556545 147.319698 
L 165.999636 148.47344 
L 167.442727 149.432829 
L 168.885818 150.223737 
L 170.328909 150.871116 
L 171.772 151.397927 
L 173.215091 151.824588 
L 174.658182 152.16881 
L 176.101273 152.445659 
L 177.544364 152.667764 
L 178.987455 152.845593 
L 180.430545 152.987744 
L 181.873636 153.101229 
L 183.316727 153.191735 
L 184.759818 153.263857 
L 186.202909 153.321291 
L 187.646 153.367004 
L 189.089091 153.403374 
L 190.532182 153.4323 
L 191.975273 153.455301 
L 193.418364 153.473585 
L 194.861455 153.488119 
L 196.304545 153.499669 
" style="fill:none;opacity:0.7;stroke:#000000;stroke-linecap:round;stroke-width:1.5;"/>
   </g>
   <g id="line2d_12">
    <path clip-path="url(#pa26af6daf6)" d="M 51.995455 42.312973 
L 53.438545 42.224124 
L 54.881636 42.103348 
L 56.324727 41.94222 
L 57.767818 41.731512 
L 59.210909 41.461757 
L 60.654 41.124029 
L 62.097091 40.710854 
L 63.540182 40.217153 
L 64.983273 39.641121 
L 66.426364 38.984983 
L 67.869455 38.25562 
L 69.312545 37.465076 
L 70.755636 36.630977 
L 72.198727 35.776838 
L 73.641818 34.932236 
L 75.084909 34.132775 
L 76.528 33.419796 
L 77.971091 32.839714 
L 79.414182 32.442882 
L 80.857273 32.281818 
L 82.300364 32.408659 
L 83.743455 32.871738 
L 85.186545 33.711381 
L 86.629636 34.955228 
L 88.072727 36.613739 
L 89.515818 38.6768 
L 90.958909 41.112426 
L 92.402 43.868351 
L 93.845091 46.876639 
L 95.288182 50.060672 
L 96.731273 53.343093 
L 98.174364 56.653036 
L 99.617455 59.931261 
L 101.060545 63.132552 
L 102.503636 66.225546 
L 103.946727 69.190737 
L 105.389818 72.017594 
L 106.832909 74.701579 
L 108.276 77.241584 
L 109.719091 79.637917 
L 111.162182 81.890762 
L 112.605273 83.998826 
L 114.048364 85.957799 
L 115.491455 87.758271 
L 116.934545 89.382875 
L 118.377636 90.802961 
L 119.820727 91.976406 
L 121.263818 92.850527 
L 122.706909 93.375328 
L 124.15 93.526492 
L 125.593091 93.323766 
L 127.036182 92.828263 
L 128.479273 92.122645 
L 129.922364 91.292228 
L 131.365455 90.416269 
L 132.808545 89.567138 
L 134.251636 88.812464 
L 135.694727 88.217217 
L 137.137818 87.844497 
L 138.580909 87.75466 
L 140.024 88.002831 
L 141.467091 88.635101 
L 142.910182 89.683937 
L 144.353273 91.163632 
L 145.796364 93.066826 
L 147.239455 95.363173 
L 148.682545 98.000924 
L 150.125636 100.911547 
L 151.568727 104.016663 
L 153.011818 107.235888 
L 154.454909 110.493936 
L 155.898 113.725674 
L 157.341091 116.878601 
L 158.784182 119.912964 
L 160.227273 122.800248 
L 161.670364 125.520892 
L 163.113455 128.061933 
L 164.556545 130.415014 
L 165.999636 132.574924 
L 167.442727 134.538704 
L 168.885818 136.305228 
L 170.328909 137.875162 
L 171.772 139.251208 
L 173.215091 140.438504 
L 174.658182 141.445081 
L 176.101273 142.282185 
L 177.544364 142.964281 
L 178.987455 143.508572 
L 180.430545 143.934034 
L 181.873636 144.260157 
L 183.316727 144.505673 
L 184.759818 144.687548 
L 186.202909 144.820387 
L 187.646 144.916233 
L 189.089091 144.984674 
L 190.532182 145.033125 
L 191.975273 145.067193 
L 193.418364 145.091028 
L 194.861455 145.107656 
L 196.304545 145.119245 
" style="fill:none;opacity:0.45;stroke:#591e71;stroke-dasharray:2.775,1.2;stroke-dashoffset:0;stroke-width:0.75;"/>
   </g>
   <g id="line2d_13">
    <path clip-path="url(#pa26af6daf6)" d="M 51.995455 59.651263 
L 53.438545 59.77753 
L 54.881636 59.945374 
L 56.324727 60.165696 
L 57.767818 60.450828 
L 59.210909 60.814122 
L 60.654 61.269367 
L 62.097091 61.830103 
L 63.540182 62.508967 
L 64.983273 63.317152 
L 66.426364 64.264049 
L 67.869455 65.357099 
L 69.312545 66.601797 
L 70.755636 68.00186 
L 72.198727 69.559497 
L 73.641818 71.275781 
L 75.084909 73.151067 
L 76.528 75.185394 
L 77.971091 77.378732 
L 79.414182 79.730939 
L 80.857273 82.241262 
L 82.300364 84.907222 
L 83.743455 87.722789 
L 85.186545 90.675896 
L 86.629636 93.745496 
L 88.072727 96.898718 
L 89.515818 100.088897 
L 90.958909 103.255428 
L 92.402 106.326163 
L 93.845091 109.22253 
L 95.288182 111.866741 
L 96.731273 114.189706 
L 98.174364 116.137999 
L 99.617455 117.678474 
L 101.060545 118.799871 
L 102.503636 119.511568 
L 103.946727 119.840241 
L 105.389818 119.825435 
L 106.832909 119.514974 
L 108.276 118.960879 
L 109.719091 118.216198 
L 111.162182 117.332968 
L 112.605273 116.361395 
L 114.048364 115.350339 
L 115.491455 114.349148 
L 116.934545 113.410807 
L 118.377636 112.595896 
L 119.820727 111.975604 
L 121.263818 111.629752 
L 122.706909 111.634521 
L 124.15 112.040467 
L 125.593091 112.855126 
L 127.036182 114.0467 
L 128.479273 115.564789 
L 129.922364 117.360104 
L 131.365455 119.39378 
L 132.808545 121.638455 
L 134.251636 124.075809 
L 135.694727 126.693324 
L 137.137818 129.481199 
L 138.580909 132.429487 
L 140.024 135.525244 
L 141.467091 138.749556 
L 142.910182 142.074522 
L 144.353273 145.460608 
L 145.796364 148.85509 
L 147.239455 152.19246 
L 148.682545 155.397434 
L 150.125636 158.39061 
L 151.568727 161.096036 
L 153.011818 163.449216 
L 154.454909 165.403855 
L 155.898 166.935995 
L 157.341091 168.044937 
L 158.784182 168.751211 
L 160.227273 169.092441 
L 161.670364 169.118182 
L 163.113455 168.884718 
L 164.556545 168.450481 
L 165.999636 167.872433 
L 167.442727 167.203444 
L 168.885818 166.490565 
L 170.328909 165.773969 
L 171.772 165.086379 
L 173.215091 164.452788 
L 174.658182 163.890428 
L 176.101273 163.408988 
L 177.544364 163.011196 
L 178.987455 162.693878 
L 180.430545 162.44943 
L 181.873636 162.267551 
L 183.316727 162.136904 
L 184.759818 162.046457 
L 186.202909 161.986358 
L 187.646 161.948365 
L 189.089091 161.925926 
L 190.532182 161.914044 
L 191.975273 161.909043 
L 193.418364 161.908308 
L 194.861455 161.910037 
L 196.304545 161.913034 
" style="fill:none;opacity:0.45;stroke:#591e71;stroke-dasharray:2.775,1.2;stroke-dashoffset:0;stroke-width:0.75;"/>
   </g>
   <g id="patch_3">
    <path d="M 44.78 175.96 
L 44.78 25.44 
" style="fill:none;stroke:#262626;stroke-linecap:square;stroke-linejoin:miter;stroke-width:0.8;"/>
   </g>
   <g id="patch_4">
    <path d="M 44.78 175.96 
L 203.52 175.96 
" style="fill:none;stroke:#262626;stroke-linecap:square;stroke-linejoin:miter;stroke-width:0.8;"/>
   </g>
   <g id="text_12">
    <!-- Jaguar-macro SM15 -->
    <defs>
     <path d="M 2.875 20.3125 
L 11.421875 21.484375 
Q 11.765625 13.28125 14.5 10.25 
Q 17.234375 7.234375 22.078125 7.234375 
Q 25.640625 7.234375 28.21875 8.859375 
Q 30.8125 10.5 31.78125 13.296875 
Q 32.765625 16.109375 32.765625 22.265625 
L 32.765625 71.578125 
L 42.234375 71.578125 
L 42.234375 22.796875 
Q 42.234375 13.8125 40.0625 8.875 
Q 37.890625 3.953125 33.171875 1.359375 
Q 28.46875 -1.21875 22.125 -1.21875 
Q 12.703125 -1.21875 7.6875 4.203125 
Q 2.6875 9.625 2.875 20.3125 
z
" id="ArialMT-4a"/>
     <path d="M 40.4375 6.390625 
Q 35.546875 2.25 31.03125 0.53125 
Q 26.515625 -1.171875 21.34375 -1.171875 
Q 12.796875 -1.171875 8.203125 3 
Q 3.609375 7.171875 3.609375 13.671875 
Q 3.609375 17.484375 5.34375 20.625 
Q 7.078125 23.78125 9.890625 25.6875 
Q 12.703125 27.59375 16.21875 28.5625 
Q 18.796875 29.25 24.03125 29.890625 
Q 34.671875 31.15625 39.703125 32.90625 
Q 39.75 34.71875 39.75 35.203125 
Q 39.75 40.578125 37.25 42.78125 
Q 33.890625 45.75 27.25 45.75 
Q 21.046875 45.75 18.09375 43.578125 
Q 15.140625 41.40625 13.71875 35.890625 
L 5.125 37.0625 
Q 6.296875 42.578125 8.984375 45.96875 
Q 11.671875 49.359375 16.75 51.1875 
Q 21.828125 53.03125 28.515625 53.03125 
Q 35.15625 53.03125 39.296875 51.46875 
Q 43.453125 49.90625 45.40625 47.53125 
Q 47.359375 45.171875 48.140625 41.546875 
Q 48.578125 39.3125 48.578125 33.453125 
L 48.578125 21.734375 
Q 48.578125 9.46875 49.140625 6.21875 
Q 49.703125 2.984375 51.375 0 
L 42.1875 0 
Q 40.828125 2.734375 40.4375 6.390625 
z
M 39.703125 26.03125 
Q 34.90625 24.078125 25.34375 22.703125 
Q 19.921875 21.921875 17.671875 20.9375 
Q 15.4375 19.96875 14.203125 18.09375 
Q 12.984375 16.21875 12.984375 13.921875 
Q 12.984375 10.40625 15.640625 8.0625 
Q 18.3125 5.71875 23.4375 5.71875 
Q 28.515625 5.71875 32.46875 7.9375 
Q 36.421875 10.15625 38.28125 14.015625 
Q 39.703125 17 39.703125 22.796875 
z
" id="ArialMT-61"/>
     <path d="M 4.984375 -4.296875 
L 13.53125 -5.5625 
Q 14.0625 -9.515625 16.5 -11.328125 
Q 19.78125 -13.765625 25.4375 -13.765625 
Q 31.546875 -13.765625 34.859375 -11.328125 
Q 38.1875 -8.890625 39.359375 -4.5 
Q 40.046875 -1.8125 39.984375 6.78125 
Q 34.234375 0 25.640625 0 
Q 14.9375 0 9.078125 7.71875 
Q 3.21875 15.4375 3.21875 26.21875 
Q 3.21875 33.640625 5.90625 39.90625 
Q 8.59375 46.1875 13.6875 49.609375 
Q 18.796875 53.03125 25.6875 53.03125 
Q 34.859375 53.03125 40.828125 45.609375 
L 40.828125 51.859375 
L 48.921875 51.859375 
L 48.921875 7.03125 
Q 48.921875 -5.078125 46.453125 -10.125 
Q 44 -15.1875 38.640625 -18.109375 
Q 33.296875 -21.046875 25.484375 -21.046875 
Q 16.21875 -21.046875 10.5 -16.875 
Q 4.78125 -12.703125 4.984375 -4.296875 
z
M 12.25 26.859375 
Q 12.25 16.65625 16.296875 11.96875 
Q 20.359375 7.28125 26.46875 7.28125 
Q 32.515625 7.28125 36.609375 11.9375 
Q 40.71875 16.609375 40.71875 26.5625 
Q 40.71875 36.078125 36.5 40.90625 
Q 32.28125 45.75 26.3125 45.75 
Q 20.453125 45.75 16.34375 40.984375 
Q 12.25 36.234375 12.25 26.859375 
z
" id="ArialMT-67"/>
     <path d="M 40.578125 0 
L 40.578125 7.625 
Q 34.515625 -1.171875 24.125 -1.171875 
Q 19.53125 -1.171875 15.546875 0.578125 
Q 11.578125 2.34375 9.640625 5 
Q 7.71875 7.671875 6.9375 11.53125 
Q 6.390625 14.109375 6.390625 19.734375 
L 6.390625 51.859375 
L 15.1875 51.859375 
L 15.1875 23.09375 
Q 15.1875 16.21875 15.71875 13.8125 
Q 16.546875 10.359375 19.234375 8.375 
Q 21.921875 6.390625 25.875 6.390625 
Q 29.828125 6.390625 33.296875 8.421875 
Q 36.765625 10.453125 38.203125 13.9375 
Q 39.65625 17.4375 39.65625 24.078125 
L 39.65625 51.859375 
L 48.4375 51.859375 
L 48.4375 0 
z
" id="ArialMT-75"/>
     <path d="M 6.5 0 
L 6.5 51.859375 
L 14.40625 51.859375 
L 14.40625 44 
Q 17.4375 49.515625 20 51.265625 
Q 22.5625 53.03125 25.640625 53.03125 
Q 30.078125 53.03125 34.671875 50.203125 
L 31.640625 42.046875 
Q 28.421875 43.953125 25.203125 43.953125 
Q 22.3125 43.953125 20.015625 42.21875 
Q 17.71875 40.484375 16.75 37.40625 
Q 15.28125 32.71875 15.28125 27.15625 
L 15.28125 0 
z
" id="ArialMT-72"/>
     <path d="M 3.171875 21.484375 
L 3.171875 30.328125 
L 30.171875 30.328125 
L 30.171875 21.484375 
z
" id="ArialMT-2d"/>
     <path d="M 6.59375 0 
L 6.59375 51.859375 
L 14.453125 51.859375 
L 14.453125 44.578125 
Q 16.890625 48.390625 20.9375 50.703125 
Q 25 53.03125 30.171875 53.03125 
Q 35.9375 53.03125 39.625 50.640625 
Q 43.3125 48.25 44.828125 43.953125 
Q 50.984375 53.03125 60.84375 53.03125 
Q 68.5625 53.03125 72.703125 48.75 
Q 76.859375 44.484375 76.859375 35.59375 
L 76.859375 0 
L 68.109375 0 
L 68.109375 32.671875 
Q 68.109375 37.9375 67.25 40.25 
Q 66.40625 42.578125 64.15625 43.984375 
Q 61.921875 45.40625 58.890625 45.40625 
Q 53.421875 45.40625 49.796875 41.765625 
Q 46.1875 38.140625 46.1875 30.125 
L 46.1875 0 
L 37.40625 0 
L 37.40625 33.6875 
Q 37.40625 39.546875 35.25 42.46875 
Q 33.109375 45.40625 28.21875 45.40625 
Q 24.515625 45.40625 21.359375 43.453125 
Q 18.21875 41.5 16.796875 37.734375 
Q 15.375 33.984375 15.375 26.90625 
L 15.375 0 
z
" id="ArialMT-6d"/>
     <path d="M 40.4375 19 
L 49.078125 17.875 
Q 47.65625 8.9375 41.8125 3.875 
Q 35.984375 -1.171875 27.484375 -1.171875 
Q 16.84375 -1.171875 10.375 5.78125 
Q 3.90625 12.75 3.90625 25.734375 
Q 3.90625 34.125 6.6875 40.421875 
Q 9.46875 46.734375 15.15625 49.875 
Q 20.84375 53.03125 27.546875 53.03125 
Q 35.984375 53.03125 41.359375 48.75 
Q 46.734375 44.484375 48.25 36.625 
L 39.703125 35.296875 
Q 38.484375 40.53125 35.375 43.15625 
Q 32.28125 45.796875 27.875 45.796875 
Q 21.234375 45.796875 17.078125 41.03125 
Q 12.9375 36.28125 12.9375 25.984375 
Q 12.9375 15.53125 16.9375 10.796875 
Q 20.953125 6.0625 27.390625 6.0625 
Q 32.5625 6.0625 36.03125 9.234375 
Q 39.5 12.40625 40.4375 19 
z
" id="ArialMT-63"/>
     <path d="M 3.328125 25.921875 
Q 3.328125 40.328125 11.328125 47.265625 
Q 18.015625 53.03125 27.640625 53.03125 
Q 38.328125 53.03125 45.109375 46.015625 
Q 51.90625 39.015625 51.90625 26.65625 
Q 51.90625 16.65625 48.90625 10.90625 
Q 45.90625 5.171875 40.15625 2 
Q 34.421875 -1.171875 27.640625 -1.171875 
Q 16.75 -1.171875 10.03125 5.8125 
Q 3.328125 12.796875 3.328125 25.921875 
z
M 12.359375 25.921875 
Q 12.359375 15.96875 16.703125 11.015625 
Q 21.046875 6.0625 27.640625 6.0625 
Q 34.1875 6.0625 38.53125 11.03125 
Q 42.875 16.015625 42.875 26.21875 
Q 42.875 35.84375 38.5 40.796875 
Q 34.125 45.75 27.640625 45.75 
Q 21.046875 45.75 16.703125 40.8125 
Q 12.359375 35.890625 12.359375 25.921875 
z
" id="ArialMT-6f"/>
     <path id="ArialMT-20"/>
     <path d="M 4.5 23 
L 13.421875 23.78125 
Q 14.0625 18.40625 16.375 14.96875 
Q 18.703125 11.53125 23.578125 9.40625 
Q 28.46875 7.28125 34.578125 7.28125 
Q 39.984375 7.28125 44.140625 8.890625 
Q 48.296875 10.5 50.3125 13.296875 
Q 52.34375 16.109375 52.34375 19.4375 
Q 52.34375 22.796875 50.390625 25.3125 
Q 48.4375 27.828125 43.953125 29.546875 
Q 41.0625 30.671875 31.203125 33.03125 
Q 21.34375 35.40625 17.390625 37.5 
Q 12.25 40.1875 9.734375 44.15625 
Q 7.234375 48.140625 7.234375 53.078125 
Q 7.234375 58.5 10.296875 63.203125 
Q 13.375 67.921875 19.28125 70.359375 
Q 25.203125 72.796875 32.421875 72.796875 
Q 40.375 72.796875 46.453125 70.234375 
Q 52.546875 67.671875 55.8125 62.6875 
Q 59.078125 57.71875 59.328125 51.421875 
L 50.25 50.734375 
Q 49.515625 57.515625 45.28125 60.984375 
Q 41.0625 64.453125 32.8125 64.453125 
Q 24.21875 64.453125 20.28125 61.296875 
Q 16.359375 58.15625 16.359375 53.71875 
Q 16.359375 49.859375 19.140625 47.359375 
Q 21.875 44.875 33.421875 42.265625 
Q 44.96875 39.65625 49.265625 37.703125 
Q 55.515625 34.8125 58.484375 30.390625 
Q 61.46875 25.984375 61.46875 20.21875 
Q 61.46875 14.5 58.203125 9.4375 
Q 54.9375 4.390625 48.796875 1.578125 
Q 42.671875 -1.21875 35.015625 -1.21875 
Q 25.296875 -1.21875 18.71875 1.609375 
Q 12.15625 4.4375 8.421875 10.125 
Q 4.6875 15.828125 4.5 23 
z
" id="ArialMT-53"/>
     <path d="M 7.421875 0 
L 7.421875 71.578125 
L 21.6875 71.578125 
L 38.625 20.90625 
Q 40.96875 13.8125 42.046875 10.296875 
Q 43.265625 14.203125 45.84375 21.78125 
L 62.984375 71.578125 
L 75.734375 71.578125 
L 75.734375 0 
L 66.609375 0 
L 66.609375 59.90625 
L 45.796875 0 
L 37.25 0 
L 16.546875 60.9375 
L 16.546875 0 
z
" id="ArialMT-4d"/>
     <path d="M 4.15625 18.75 
L 13.375 19.53125 
Q 14.40625 12.796875 18.140625 9.390625 
Q 21.875 6 27.15625 6 
Q 33.5 6 37.890625 10.78125 
Q 42.28125 15.578125 42.28125 23.484375 
Q 42.28125 31 38.0625 35.34375 
Q 33.84375 39.703125 27 39.703125 
Q 22.75 39.703125 19.328125 37.765625 
Q 15.921875 35.84375 13.96875 32.765625 
L 5.71875 33.84375 
L 12.640625 70.609375 
L 48.25 70.609375 
L 48.25 62.203125 
L 19.671875 62.203125 
L 15.828125 42.96875 
Q 22.265625 47.46875 29.34375 47.46875 
Q 38.71875 47.46875 45.15625 40.96875 
Q 51.609375 34.46875 51.609375 24.265625 
Q 51.609375 14.546875 45.953125 7.46875 
Q 39.0625 -1.21875 27.15625 -1.21875 
Q 17.390625 -1.21875 11.203125 4.25 
Q 5.03125 9.71875 4.15625 18.75 
z
" id="ArialMT-35"/>
    </defs>
    <g style="fill:#262626;" transform="translate(69.799375 19.44)scale(0.12 -0.12)">
     <use xlink:href="#ArialMT-4a"/>
     <use x="50" xlink:href="#ArialMT-61"/>
     <use x="105.615234" xlink:href="#ArialMT-67"/>
     <use x="161.230469" xlink:href="#ArialMT-75"/>
     <use x="216.845703" xlink:href="#ArialMT-61"/>
     <use x="272.460938" xlink:href="#ArialMT-72"/>
     <use x="305.761719" xlink:href="#ArialMT-2d"/>
     <use x="339.0625" xlink:href="#ArialMT-6d"/>
     <use x="422.363281" xlink:href="#ArialMT-61"/>
     <use x="477.978516" xlink:href="#ArialMT-63"/>
     <use x="527.978516" xlink:href="#ArialMT-72"/>
     <use x="561.279297" xlink:href="#ArialMT-6f"/>
     <use x="616.894531" xlink:href="#ArialMT-20"/>
     <use x="644.677734" xlink:href="#ArialMT-53"/>
     <use x="711.376953" xlink:href="#ArialMT-4d"/>
     <use x="794.677734" xlink:href="#ArialMT-31"/>
     <use x="850.292969" xlink:href="#ArialMT-35"/>
    </g>
   </g>
  </g>
 </g>
 <defs>
  <clipPath id="pa26af6daf6">
   <rect height="150.52" width="158.74" x="44.78" y="25.44"/>
  </clipPath>
 </defs>
</svg>
