<?xml version="1.0" encoding="utf-8" standalone="no"?>
<!DOCTYPE svg PUBLIC "-//W3C//DTD SVG 1.1//EN"
  "http://www.w3.org/Graphics/SVG/1.1/DTD/svg11.dtd">
<!-- Created with matplotlib (http://matplotlib.org/) -->
<svg height="144pt" version="1.1" viewBox="0 0 144 144" width="144pt" xmlns="http://www.w3.org/2000/svg" xmlns:xlink="http://www.w3.org/1999/xlink">
 <defs>
  <style type="text/css">
*{stroke-linecap:butt;stroke-linejoin:round;}
  </style>
 </defs>
 <g id="figure_1">
  <g id="patch_1">
   <path d="M 0 144 
L 144 144 
L 144 0 
L 0 0 
z
" style="fill:#ffffff;"/>
  </g>
  <g id="axes_1">
   <g id="patch_2">
    <path d="M 47.6 101.92 
L 130.44 101.92 
L 130.44 13.56 
L 47.6 13.56 
z
" style="fill:#ffffff;"/>
   </g>
   <g id="matplotlib.axis_1">
    <g id="xtick_1">
     <g id="line2d_1">
      <defs>
       <path d="M 0 0 
L 0 3.5 
" id="ma2e1bb25b3" style="stroke:#262626;stroke-width:0.8;"/>
      </defs>
      <g>
       <use style="fill:#262626;stroke:#262626;stroke-width:0.8;" x="51.365455" xlink:href="#ma2e1bb25b3" y="101.92"/>
      </g>
     </g>
     <g id="text_1">
      <!-- 2 -->
      <defs>
       <path d="M 50.34375 8.453125 
L 50.34375 0 
L 3.03125 0 
Q 2.9375 3.171875 4.046875 6.109375 
Q 5.859375 10.9375 9.828125 15.625 
Q 13.8125 20.3125 21.34375 26.46875 
Q 33.015625 36.03125 37.109375 41.625 
Q 41.21875 47.21875 41.21875 52.203125 
Q 41.21875 57.421875 37.46875 61 
Q 33.734375 64.59375 27.734375 64.59375 
Q 21.390625 64.59375 17.578125 60.78125 
Q 13.765625 56.984375 13.71875 50.25 
L 4.6875 51.171875 
Q 5.609375 61.28125 11.65625 66.578125 
Q 17.71875 71.875 27.9375 71.875 
Q 38.234375 71.875 44.234375 66.15625 
Q 50.25 60.453125 50.25 52 
Q 50.25 47.703125 48.484375 43.546875 
Q 46.734375 39.40625 42.65625 34.8125 
Q 38.578125 30.21875 29.109375 22.21875 
Q 21.1875 15.578125 18.9375 13.203125 
Q 16.703125 10.84375 15.234375 8.453125 
z
" id="ArialMT-32"/>
      </defs>
      <g style="fill:#262626;" transform="translate(48.306939 116.793594)scale(0.11 -0.11)">
       <use xlink:href="#ArialMT-32"/>
      </g>
     </g>
    </g>
    <g id="xtick_2">
     <g id="line2d_2">
      <g>
       <use style="fill:#262626;stroke:#262626;stroke-width:0.8;" x="66.427273" xlink:href="#ma2e1bb25b3" y="101.92"/>
      </g>
     </g>
     <g id="text_2">
      <!-- 4 -->
      <defs>
       <path d="M 32.328125 0 
L 32.328125 17.140625 
L 1.265625 17.140625 
L 1.265625 25.203125 
L 33.9375 71.578125 
L 41.109375 71.578125 
L 41.109375 25.203125 
L 50.78125 25.203125 
L 50.78125 17.140625 
L 41.109375 17.140625 
L 41.109375 0 
z
M 32.328125 25.203125 
L 32.328125 57.46875 
L 9.90625 25.203125 
z
" id="ArialMT-34"/>
      </defs>
      <g style="fill:#262626;" transform="translate(63.368757 116.793594)scale(0.11 -0.11)">
       <use xlink:href="#ArialMT-34"/>
      </g>
     </g>
    </g>
    <g id="xtick_3">
     <g id="line2d_3">
      <g>
       <use style="fill:#262626;stroke:#262626;stroke-width:0.8;" x="81.489091" xlink:href="#ma2e1bb25b3" y="101.92"/>
      </g>
     </g>
     <g id="text_3">
      <!-- 6 -->
      <defs>
       <path d="M 49.75 54.046875 
L 41.015625 53.375 
Q 39.84375 58.546875 37.703125 60.890625 
Q 34.125 64.65625 28.90625 64.65625 
Q 24.703125 64.65625 21.53125 62.3125 
Q 17.390625 59.28125 14.984375 53.46875 
Q 12.59375 47.65625 12.5 36.921875 
Q 15.671875 41.75 20.265625 44.09375 
Q 24.859375 46.4375 29.890625 46.4375 
Q 38.671875 46.4375 44.84375 39.96875 
Q 51.03125 33.5 51.03125 23.25 
Q 51.03125 16.5 48.125 10.71875 
Q 45.21875 4.9375 40.140625 1.859375 
Q 35.0625 -1.21875 28.609375 -1.21875 
Q 17.625 -1.21875 10.6875 6.859375 
Q 3.765625 14.9375 3.765625 33.5 
Q 3.765625 54.25 11.421875 63.671875 
Q 18.109375 71.875 29.4375 71.875 
Q 37.890625 71.875 43.28125 67.140625 
Q 48.6875 62.40625 49.75 54.046875 
z
M 13.875 23.1875 
Q 13.875 18.65625 15.796875 14.5 
Q 17.71875 10.359375 21.1875 8.171875 
Q 24.65625 6 28.46875 6 
Q 34.03125 6 38.03125 10.484375 
Q 42.046875 14.984375 42.046875 22.703125 
Q 42.046875 30.125 38.078125 34.390625 
Q 34.125 38.671875 28.125 38.671875 
Q 22.171875 38.671875 18.015625 34.390625 
Q 13.875 30.125 13.875 23.1875 
z
" id="ArialMT-36"/>
      </defs>
      <g style="fill:#262626;" transform="translate(78.430575 116.793594)scale(0.11 -0.11)">
       <use xlink:href="#ArialMT-36"/>
      </g>
     </g>
    </g>
    <g id="xtick_4">
     <g id="line2d_4">
      <g>
       <use style="fill:#262626;stroke:#262626;stroke-width:0.8;" x="96.550909" xlink:href="#ma2e1bb25b3" y="101.92"/>
      </g>
     </g>
     <g id="text_4">
      <!-- 8 -->
      <defs>
       <path d="M 17.671875 38.8125 
Q 12.203125 40.828125 9.5625 44.53125 
Q 6.9375 48.25 6.9375 53.421875 
Q 6.9375 61.234375 12.546875 66.546875 
Q 18.171875 71.875 27.484375 71.875 
Q 36.859375 71.875 42.578125 66.421875 
Q 48.296875 60.984375 48.296875 53.171875 
Q 48.296875 48.1875 45.671875 44.5 
Q 43.0625 40.828125 37.75 38.8125 
Q 44.34375 36.671875 47.78125 31.875 
Q 51.21875 27.09375 51.21875 20.453125 
Q 51.21875 11.28125 44.71875 5.03125 
Q 38.234375 -1.21875 27.640625 -1.21875 
Q 17.046875 -1.21875 10.546875 5.046875 
Q 4.046875 11.328125 4.046875 20.703125 
Q 4.046875 27.6875 7.59375 32.390625 
Q 11.140625 37.109375 17.671875 38.8125 
z
M 15.921875 53.71875 
Q 15.921875 48.640625 19.1875 45.40625 
Q 22.46875 42.1875 27.6875 42.1875 
Q 32.765625 42.1875 36.015625 45.375 
Q 39.265625 48.578125 39.265625 53.21875 
Q 39.265625 58.0625 35.90625 61.359375 
Q 32.5625 64.65625 27.59375 64.65625 
Q 22.5625 64.65625 19.234375 61.421875 
Q 15.921875 58.203125 15.921875 53.71875 
z
M 13.09375 20.65625 
Q 13.09375 16.890625 14.875 13.375 
Q 16.65625 9.859375 20.171875 7.921875 
Q 23.6875 6 27.734375 6 
Q 34.03125 6 38.125 10.046875 
Q 42.234375 14.109375 42.234375 20.359375 
Q 42.234375 26.703125 38.015625 30.859375 
Q 33.796875 35.015625 27.4375 35.015625 
Q 21.234375 35.015625 17.15625 30.90625 
Q 13.09375 26.8125 13.09375 20.65625 
z
" id="ArialMT-38"/>
      </defs>
      <g style="fill:#262626;" transform="translate(93.492393 116.793594)scale(0.11 -0.11)">
       <use xlink:href="#ArialMT-38"/>
      </g>
     </g>
    </g>
    <g id="xtick_5">
     <g id="line2d_5">
      <g>
       <use style="fill:#262626;stroke:#262626;stroke-width:0.8;" x="111.612727" xlink:href="#ma2e1bb25b3" y="101.92"/>
      </g>
     </g>
     <g id="text_5">
      <!-- 10 -->
      <defs>
       <path d="M 37.25 0 
L 28.46875 0 
L 28.46875 56 
Q 25.296875 52.984375 20.140625 49.953125 
Q 14.984375 46.921875 10.890625 45.40625 
L 10.890625 53.90625 
Q 18.265625 57.375 23.78125 62.296875 
Q 29.296875 67.234375 31.59375 71.875 
L 37.25 71.875 
z
" id="ArialMT-31"/>
       <path d="M 4.15625 35.296875 
Q 4.15625 48 6.765625 55.734375 
Q 9.375 63.484375 14.515625 67.671875 
Q 19.671875 71.875 27.484375 71.875 
Q 33.25 71.875 37.59375 69.546875 
Q 41.9375 67.234375 44.765625 62.859375 
Q 47.609375 58.5 49.21875 52.21875 
Q 50.828125 45.953125 50.828125 35.296875 
Q 50.828125 22.703125 48.234375 14.96875 
Q 45.65625 7.234375 40.5 3 
Q 35.359375 -1.21875 27.484375 -1.21875 
Q 17.140625 -1.21875 11.234375 6.203125 
Q 4.15625 15.140625 4.15625 35.296875 
z
M 13.1875 35.296875 
Q 13.1875 17.671875 17.3125 11.828125 
Q 21.4375 6 27.484375 6 
Q 33.546875 6 37.671875 11.859375 
Q 41.796875 17.71875 41.796875 35.296875 
Q 41.796875 52.984375 37.671875 58.78125 
Q 33.546875 64.59375 27.390625 64.59375 
Q 21.34375 64.59375 17.71875 59.46875 
Q 13.1875 52.9375 13.1875 35.296875 
z
" id="ArialMT-30"/>
      </defs>
      <g style="fill:#262626;" transform="translate(105.495696 116.793594)scale(0.11 -0.11)">
       <use xlink:href="#ArialMT-31"/>
       <use x="55.615234" xlink:href="#ArialMT-30"/>
      </g>
     </g>
    </g>
    <g id="xtick_6">
     <g id="line2d_6">
      <g>
       <use style="fill:#262626;stroke:#262626;stroke-width:0.8;" x="126.674545" xlink:href="#ma2e1bb25b3" y="101.92"/>
      </g>
     </g>
     <g id="text_6">
      <!-- 12 -->
      <g style="fill:#262626;" transform="translate(120.557514 116.793594)scale(0.11 -0.11)">
       <use xlink:href="#ArialMT-31"/>
       <use x="55.615234" xlink:href="#ArialMT-32"/>
      </g>
     </g>
    </g>
    <g id="text_7">
     <!-- pH -->
     <defs>
      <path d="M 6.59375 -19.875 
L 6.59375 51.859375 
L 14.59375 51.859375 
L 14.59375 45.125 
Q 17.4375 49.078125 21 51.046875 
Q 24.5625 53.03125 29.640625 53.03125 
Q 36.28125 53.03125 41.359375 49.609375 
Q 46.4375 46.1875 49.015625 39.953125 
Q 51.609375 33.734375 51.609375 26.3125 
Q 51.609375 18.359375 48.75 11.984375 
Q 45.90625 5.609375 40.453125 2.21875 
Q 35.015625 -1.171875 29 -1.171875 
Q 24.609375 -1.171875 21.109375 0.6875 
Q 17.625 2.546875 15.375 5.375 
L 15.375 -19.875 
z
M 14.546875 25.640625 
Q 14.546875 15.625 18.59375 10.84375 
Q 22.65625 6.0625 28.421875 6.0625 
Q 34.28125 6.0625 38.453125 11.015625 
Q 42.625 15.96875 42.625 26.375 
Q 42.625 36.28125 38.546875 41.203125 
Q 34.46875 46.140625 28.8125 46.140625 
Q 23.1875 46.140625 18.859375 40.890625 
Q 14.546875 35.640625 14.546875 25.640625 
z
" id="ArialMT-70"/>
      <path d="M 8.015625 0 
L 8.015625 71.578125 
L 17.484375 71.578125 
L 17.484375 42.1875 
L 54.6875 42.1875 
L 54.6875 71.578125 
L 64.15625 71.578125 
L 64.15625 0 
L 54.6875 0 
L 54.6875 33.734375 
L 17.484375 33.734375 
L 17.484375 0 
z
" id="ArialMT-48"/>
     </defs>
     <g style="fill:#262626;" transform="translate(81.989453 130.853437)scale(0.11 -0.11)">
      <use xlink:href="#ArialMT-70"/>
      <use x="55.615234" xlink:href="#ArialMT-48"/>
     </g>
    </g>
   </g>
   <g id="matplotlib.axis_2">
    <g id="ytick_1">
     <g id="line2d_7">
      <defs>
       <path d="M 0 0 
L -3.5 0 
" id="maeca04bd15" style="stroke:#262626;stroke-width:0.8;"/>
      </defs>
      <g>
       <use style="fill:#262626;stroke:#262626;stroke-width:0.8;" x="47.6" xlink:href="#maeca04bd15" y="85.613392"/>
      </g>
     </g>
     <g id="text_8">
      <!-- 0 -->
      <g style="fill:#262626;" transform="translate(34.482969 89.550189)scale(0.11 -0.11)">
       <use xlink:href="#ArialMT-30"/>
      </g>
     </g>
    </g>
    <g id="ytick_2">
     <g id="line2d_8">
      <g>
       <use style="fill:#262626;stroke:#262626;stroke-width:0.8;" x="47.6" xlink:href="#maeca04bd15" y="59.031793"/>
      </g>
     </g>
     <g id="text_9">
      <!-- 25 -->
      <defs>
       <path d="M 4.15625 18.75 
L 13.375 19.53125 
Q 14.40625 12.796875 18.140625 9.390625 
Q 21.875 6 27.15625 6 
Q 33.5 6 37.890625 10.78125 
Q 42.28125 15.578125 42.28125 23.484375 
Q 42.28125 31 38.0625 35.34375 
Q 33.84375 39.703125 27 39.703125 
Q 22.75 39.703125 19.328125 37.765625 
Q 15.921875 35.84375 13.96875 32.765625 
L 5.71875 33.84375 
L 12.640625 70.609375 
L 48.25 70.609375 
L 48.25 62.203125 
L 19.671875 62.203125 
L 15.828125 42.96875 
Q 22.265625 47.46875 29.34375 47.46875 
Q 38.71875 47.46875 45.15625 40.96875 
Q 51.609375 34.46875 51.609375 24.265625 
Q 51.609375 14.546875 45.953125 7.46875 
Q 39.0625 -1.21875 27.15625 -1.21875 
Q 17.390625 -1.21875 11.203125 4.25 
Q 5.03125 9.71875 4.15625 18.75 
z
" id="ArialMT-35"/>
      </defs>
      <g style="fill:#262626;" transform="translate(28.365938 62.96859)scale(0.11 -0.11)">
       <use xlink:href="#ArialMT-32"/>
       <use x="55.615234" xlink:href="#ArialMT-35"/>
      </g>
     </g>
    </g>
    <g id="ytick_3">
     <g id="line2d_9">
      <g>
       <use style="fill:#262626;stroke:#262626;stroke-width:0.8;" x="47.6" xlink:href="#maeca04bd15" y="32.450193"/>
      </g>
     </g>
     <g id="text_10">
      <!-- 50 -->
      <g style="fill:#262626;" transform="translate(28.365938 36.38699)scale(0.11 -0.11)">
       <use xlink:href="#ArialMT-35"/>
       <use x="55.615234" xlink:href="#ArialMT-30"/>
      </g>
     </g>
    </g>
    <g id="text_11">
     <!-- Free energy ($k_B T$) -->
     <defs>
      <path d="M 8.203125 0 
L 8.203125 71.578125 
L 56.5 71.578125 
L 56.5 63.140625 
L 17.671875 63.140625 
L 17.671875 40.96875 
L 51.265625 40.96875 
L 51.265625 32.515625 
L 17.671875 32.515625 
L 17.671875 0 
z
" id="ArialMT-46"/>
      <path d="M 6.5 0 
L 6.5 51.859375 
L 14.40625 51.859375 
L 14.40625 44 
Q 17.4375 49.515625 20 51.265625 
Q 22.5625 53.03125 25.640625 53.03125 
Q 30.078125 53.03125 34.671875 50.203125 
L 31.640625 42.046875 
Q 28.421875 43.953125 25.203125 43.953125 
Q 22.3125 43.953125 20.015625 42.21875 
Q 17.71875 40.484375 16.75 37.40625 
Q 15.28125 32.71875 15.28125 27.15625 
L 15.28125 0 
z
" id="ArialMT-72"/>
      <path d="M 42.09375 16.703125 
L 51.171875 15.578125 
Q 49.03125 7.625 43.21875 3.21875 
Q 37.40625 -1.171875 28.375 -1.171875 
Q 17 -1.171875 10.328125 5.828125 
Q 3.65625 12.84375 3.65625 25.484375 
Q 3.65625 38.578125 10.390625 45.796875 
Q 17.140625 53.03125 27.875 53.03125 
Q 38.28125 53.03125 44.875 45.953125 
Q 51.46875 38.875 51.46875 26.03125 
Q 51.46875 25.25 51.421875 23.6875 
L 12.75 23.6875 
Q 13.234375 15.140625 17.578125 10.59375 
Q 21.921875 6.0625 28.421875 6.0625 
Q 33.25 6.0625 36.671875 8.59375 
Q 40.09375 11.140625 42.09375 16.703125 
z
M 13.234375 30.90625 
L 42.1875 30.90625 
Q 41.609375 37.453125 38.875 40.71875 
Q 34.671875 45.796875 27.984375 45.796875 
Q 21.921875 45.796875 17.796875 41.75 
Q 13.671875 37.703125 13.234375 30.90625 
z
" id="ArialMT-65"/>
      <path id="ArialMT-20"/>
      <path d="M 6.59375 0 
L 6.59375 51.859375 
L 14.5 51.859375 
L 14.5 44.484375 
Q 20.21875 53.03125 31 53.03125 
Q 35.6875 53.03125 39.625 51.34375 
Q 43.5625 49.65625 45.515625 46.921875 
Q 47.46875 44.1875 48.25 40.4375 
Q 48.734375 37.984375 48.734375 31.890625 
L 48.734375 0 
L 39.9375 0 
L 39.9375 31.546875 
Q 39.9375 36.921875 38.90625 39.578125 
Q 37.890625 42.234375 35.28125 43.8125 
Q 32.671875 45.40625 29.15625 45.40625 
Q 23.53125 45.40625 19.453125 41.84375 
Q 15.375 38.28125 15.375 28.328125 
L 15.375 0 
z
" id="ArialMT-6e"/>
      <path d="M 4.984375 -4.296875 
L 13.53125 -5.5625 
Q 14.0625 -9.515625 16.5 -11.328125 
Q 19.78125 -13.765625 25.4375 -13.765625 
Q 31.546875 -13.765625 34.859375 -11.328125 
Q 38.1875 -8.890625 39.359375 -4.5 
Q 40.046875 -1.8125 39.984375 6.78125 
Q 34.234375 0 25.640625 0 
Q 14.9375 0 9.078125 7.71875 
Q 3.21875 15.4375 3.21875 26.21875 
Q 3.21875 33.640625 5.90625 39.90625 
Q 8.59375 46.1875 13.6875 49.609375 
Q 18.796875 53.03125 25.6875 53.03125 
Q 34.859375 53.03125 40.828125 45.609375 
L 40.828125 51.859375 
L 48.921875 51.859375 
L 48.921875 7.03125 
Q 48.921875 -5.078125 46.453125 -10.125 
Q 44 -15.1875 38.640625 -18.109375 
Q 33.296875 -21.046875 25.484375 -21.046875 
Q 16.21875 -21.046875 10.5 -16.875 
Q 4.78125 -12.703125 4.984375 -4.296875 
z
M 12.25 26.859375 
Q 12.25 16.65625 16.296875 11.96875 
Q 20.359375 7.28125 26.46875 7.28125 
Q 32.515625 7.28125 36.609375 11.9375 
Q 40.71875 16.609375 40.71875 26.5625 
Q 40.71875 36.078125 36.5 40.90625 
Q 32.28125 45.75 26.3125 45.75 
Q 20.453125 45.75 16.34375 40.984375 
Q 12.25 36.234375 12.25 26.859375 
z
" id="ArialMT-67"/>
      <path d="M 6.203125 -19.96875 
L 5.21875 -11.71875 
Q 8.109375 -12.5 10.25 -12.5 
Q 13.1875 -12.5 14.9375 -11.515625 
Q 16.703125 -10.546875 17.828125 -8.796875 
Q 18.65625 -7.46875 20.515625 -2.25 
Q 20.75 -1.515625 21.296875 -0.09375 
L 1.609375 51.859375 
L 11.078125 51.859375 
L 21.875 21.828125 
Q 23.96875 16.109375 25.640625 9.8125 
Q 27.15625 15.875 29.25 21.625 
L 40.328125 51.859375 
L 49.125 51.859375 
L 29.390625 -0.875 
Q 26.21875 -9.421875 24.46875 -12.640625 
Q 22.125 -17 19.09375 -19.015625 
Q 16.0625 -21.046875 11.859375 -21.046875 
Q 9.328125 -21.046875 6.203125 -19.96875 
z
" id="ArialMT-79"/>
      <path d="M 23.390625 -21.046875 
Q 16.109375 -11.859375 11.078125 0.4375 
Q 6.0625 12.75 6.0625 25.921875 
Q 6.0625 37.546875 9.8125 48.1875 
Q 14.203125 60.546875 23.390625 72.796875 
L 29.6875 72.796875 
Q 23.78125 62.640625 21.875 58.296875 
Q 18.890625 51.5625 17.1875 44.234375 
Q 15.09375 35.109375 15.09375 25.875 
Q 15.09375 2.390625 29.6875 -21.046875 
z
" id="ArialMT-28"/>
      <path d="M 18.3125 75.984375 
L 27.296875 75.984375 
L 18.703125 31.6875 
L 49.515625 54.6875 
L 61.1875 54.6875 
L 26.8125 28.515625 
L 51.90625 0 
L 41.015625 0 
L 17.671875 26.703125 
L 12.5 0 
L 3.515625 0 
z
" id="DejaVuSans-Oblique-6b"/>
      <path d="M 16.890625 72.90625 
L 42.09375 72.90625 
Q 52.34375 72.90625 57.421875 69.09375 
Q 62.5 65.28125 62.5 57.625 
Q 62.5 50.59375 58.125 45.484375 
Q 53.765625 40.375 46.6875 39.3125 
Q 52.734375 37.9375 55.765625 34.078125 
Q 58.796875 30.21875 58.796875 23.78125 
Q 58.796875 12.796875 50.65625 6.390625 
Q 42.53125 0 28.421875 0 
L 2.6875 0 
z
M 19.28125 34.8125 
L 14.109375 8.109375 
L 29.984375 8.109375 
Q 38.921875 8.109375 43.75 12.203125 
Q 48.578125 16.3125 48.578125 23.78125 
Q 48.578125 29.546875 45.375 32.171875 
Q 42.1875 34.8125 35.109375 34.8125 
z
M 25.09375 64.796875 
L 20.796875 42.828125 
L 35.5 42.828125 
Q 43.359375 42.828125 47.78125 46.234375 
Q 52.203125 49.65625 52.203125 55.71875 
Q 52.203125 60.453125 49.21875 62.625 
Q 46.234375 64.796875 39.703125 64.796875 
z
" id="DejaVuSans-Oblique-42"/>
      <path d="M 5.90625 72.90625 
L 67.578125 72.90625 
L 66.015625 64.59375 
L 39.984375 64.59375 
L 27.484375 0 
L 17.578125 0 
L 30.078125 64.59375 
L 4.296875 64.59375 
z
" id="DejaVuSans-Oblique-54"/>
      <path d="M 12.359375 -21.046875 
L 6.0625 -21.046875 
Q 20.65625 2.390625 20.65625 25.875 
Q 20.65625 35.0625 18.5625 44.09375 
Q 16.890625 51.421875 13.921875 58.15625 
Q 12.015625 62.546875 6.0625 72.796875 
L 12.359375 72.796875 
Q 21.53125 60.546875 25.921875 48.1875 
Q 29.6875 37.546875 29.6875 25.921875 
Q 29.6875 12.75 24.625 0.4375 
Q 19.578125 -11.859375 12.359375 -21.046875 
z
" id="ArialMT-29"/>
     </defs>
     <g style="fill:#262626;" transform="translate(21.945938 101.96)rotate(-90)scale(0.11 -0.11)">
      <use transform="translate(0 0.015625)" xlink:href="#ArialMT-46"/>
      <use transform="translate(61.083984 0.015625)" xlink:href="#ArialMT-72"/>
      <use transform="translate(94.384766 0.015625)" xlink:href="#ArialMT-65"/>
      <use transform="translate(150 0.015625)" xlink:href="#ArialMT-65"/>
      <use transform="translate(205.615234 0.015625)" xlink:href="#ArialMT-20"/>
      <use transform="translate(233.398438 0.015625)" xlink:href="#ArialMT-65"/>
      <use transform="translate(289.013672 0.015625)" xlink:href="#ArialMT-6e"/>
      <use transform="translate(344.628906 0.015625)" xlink:href="#ArialMT-65"/>
      <use transform="translate(400.244141 0.015625)" xlink:href="#ArialMT-72"/>
      <use transform="translate(433.544922 0.015625)" xlink:href="#ArialMT-67"/>
      <use transform="translate(489.160156 0.015625)" xlink:href="#ArialMT-79"/>
      <use transform="translate(539.160156 0.015625)" xlink:href="#ArialMT-20"/>
      <use transform="translate(566.943359 0.015625)" xlink:href="#ArialMT-28"/>
      <use transform="translate(600.244141 0.015625)" xlink:href="#DejaVuSans-Oblique-6b"/>
      <use transform="translate(658.154297 -16.390625)scale(0.7)" xlink:href="#DejaVuSans-Oblique-42"/>
      <use transform="translate(708.911133 0.015625)" xlink:href="#DejaVuSans-Oblique-54"/>
      <use transform="translate(769.995117 0.015625)" xlink:href="#ArialMT-29"/>
     </g>
    </g>
   </g>
   <g id="patch_3">
    <path d="M 47.6 101.92 
L 47.6 13.56 
" style="fill:none;stroke:#262626;stroke-linecap:square;stroke-linejoin:miter;stroke-width:0.8;"/>
   </g>
   <g id="patch_4">
    <path d="M 47.6 101.92 
L 130.44 101.92 
" style="fill:none;stroke:#262626;stroke-linecap:square;stroke-linejoin:miter;stroke-width:0.8;"/>
   </g>
   <g id="line2d_10">
    <path clip-path="url(#p9a4d867f15)" d="M 51.365455 36.036212 
L 52.118545 36.525864 
L 52.871636 37.015515 
L 53.624727 37.505166 
L 54.377818 37.994817 
L 55.130909 38.484468 
L 55.884 38.974119 
L 56.637091 39.46377 
L 57.390182 39.953422 
L 58.143273 40.443073 
L 58.896364 40.932724 
L 59.649455 41.422375 
L 60.402545 41.912026 
L 61.155636 42.401677 
L 61.908727 42.891329 
L 62.661818 43.38098 
L 63.414909 43.870631 
L 64.168 44.360282 
L 64.921091 44.849933 
L 65.674182 45.339584 
L 66.427273 45.829236 
L 67.180364 46.318887 
L 67.933455 46.808538 
L 68.686545 47.298189 
L 69.439636 47.78784 
L 70.192727 48.277491 
L 70.945818 48.767143 
L 71.698909 49.256794 
L 72.452 49.746445 
L 73.205091 50.236096 
L 73.958182 50.725747 
L 74.711273 51.215398 
L 75.464364 51.705049 
L 76.217455 52.194701 
L 76.970545 52.684352 
L 77.723636 53.174003 
L 78.476727 53.663654 
L 79.229818 54.153305 
L 79.982909 54.642956 
L 80.736 55.132608 
L 81.489091 55.622259 
L 82.242182 56.11191 
L 82.995273 56.601561 
L 83.748364 57.091212 
L 84.501455 57.580863 
L 85.254545 58.070515 
L 86.007636 58.560166 
L 86.760727 59.049817 
L 87.513818 59.539468 
L 88.266909 60.029119 
L 89.02 60.51877 
L 89.773091 61.008421 
L 90.526182 61.498073 
L 91.279273 61.987724 
L 92.032364 62.477375 
L 92.785455 62.967026 
L 93.538545 63.456677 
L 94.291636 63.946328 
L 95.044727 64.43598 
L 95.797818 64.925631 
L 96.550909 65.415282 
L 97.304 65.904933 
L 98.057091 66.394584 
L 98.810182 66.884235 
L 99.563273 67.373887 
L 100.316364 67.863538 
L 101.069455 68.353189 
L 101.822545 68.84284 
L 102.575636 69.332491 
L 103.328727 69.822142 
L 104.081818 70.311794 
L 104.834909 70.801445 
L 105.588 71.291096 
L 106.341091 71.780747 
L 107.094182 72.270398 
L 107.847273 72.760049 
L 108.600364 73.2497 
L 109.353455 73.739352 
L 110.106545 74.229003 
L 110.859636 74.718654 
L 111.612727 75.208305 
L 112.365818 75.697956 
L 113.118909 76.187607 
L 113.872 76.677259 
L 114.625091 77.16691 
L 115.378182 77.656561 
L 116.131273 78.146212 
L 116.884364 78.635863 
L 117.637455 79.125514 
L 118.390545 79.615166 
L 119.143636 80.104817 
L 119.896727 80.594468 
L 120.649818 81.084119 
L 121.402909 81.57377 
L 122.156 82.063421 
L 122.909091 82.553073 
L 123.662182 83.042724 
L 124.415273 83.532375 
L 125.168364 84.022026 
L 125.921455 84.511677 
L 126.674545 85.001328 
" style="fill:none;stroke:#d6604d;stroke-linecap:round;stroke-width:1.5;"/>
   </g>
   <g id="line2d_11">
    <path clip-path="url(#p9a4d867f15)" d="M 51.365455 66.54148 
L 52.118545 66.051828 
L 52.871636 65.562177 
L 53.624727 65.072526 
L 54.377818 64.582875 
L 55.130909 64.093224 
L 55.884 63.603573 
L 56.637091 63.113921 
L 57.390182 62.62427 
L 58.143273 62.134619 
L 58.896364 61.644968 
L 59.649455 61.155317 
L 60.402545 60.665666 
L 61.155636 60.176015 
L 61.908727 59.686363 
L 62.661818 59.196712 
L 63.414909 58.707061 
L 64.168 58.21741 
L 64.921091 57.727759 
L 65.674182 57.238108 
L 66.427273 56.748456 
L 67.180364 56.258805 
L 67.933455 55.769154 
L 68.686545 55.279503 
L 69.439636 54.789852 
L 70.192727 54.300201 
L 70.945818 53.810549 
L 71.698909 53.320898 
L 72.452 52.831247 
L 73.205091 52.341596 
L 73.958182 51.851945 
L 74.711273 51.362294 
L 75.464364 50.872642 
L 76.217455 50.382991 
L 76.970545 49.89334 
L 77.723636 49.403689 
L 78.476727 48.914038 
L 79.229818 48.424387 
L 79.982909 47.934736 
L 80.736 47.445084 
L 81.489091 46.955433 
L 82.242182 46.465782 
L 82.995273 45.976131 
L 83.748364 45.48648 
L 84.501455 44.996829 
L 85.254545 44.507177 
L 86.007636 44.017526 
L 86.760727 43.527875 
L 87.513818 43.038224 
L 88.266909 42.548573 
L 89.02 42.058922 
L 89.773091 41.56927 
L 90.526182 41.079619 
L 91.279273 40.589968 
L 92.032364 40.100317 
L 92.785455 39.610666 
L 93.538545 39.121015 
L 94.291636 38.631363 
L 95.044727 38.141712 
L 95.797818 37.652061 
L 96.550909 37.16241 
L 97.304 36.672759 
L 98.057091 36.183108 
L 98.810182 35.693457 
L 99.563273 35.203805 
L 100.316364 34.714154 
L 101.069455 34.224503 
L 101.822545 33.734852 
L 102.575636 33.245201 
L 103.328727 32.75555 
L 104.081818 32.265898 
L 104.834909 31.776247 
L 105.588 31.286596 
L 106.341091 30.796945 
L 107.094182 30.307294 
L 107.847273 29.817643 
L 108.600364 29.327991 
L 109.353455 28.83834 
L 110.106545 28.348689 
L 110.859636 27.859038 
L 111.612727 27.369387 
L 112.365818 26.879736 
L 113.118909 26.390085 
L 113.872 25.900433 
L 114.625091 25.410782 
L 115.378182 24.921131 
L 116.131273 24.43148 
L 116.884364 23.941829 
L 117.637455 23.452178 
L 118.390545 22.962526 
L 119.143636 22.472875 
L 119.896727 21.983224 
L 120.649818 21.493573 
L 121.402909 21.003922 
L 122.156 20.514271 
L 122.909091 20.024619 
L 123.662182 19.534968 
L 124.415273 19.045317 
L 125.168364 18.555666 
L 125.921455 18.066015 
L 126.674545 17.576364 
" style="fill:none;stroke:#4393c3;stroke-linecap:round;stroke-width:1.5;"/>
   </g>
   <g id="line2d_12">
    <path clip-path="url(#p9a4d867f15)" d="M 51.365455 83.752718 
L 52.118545 83.507892 
L 52.871636 83.263067 
L 53.624727 83.018241 
L 54.377818 82.773416 
L 55.130909 82.52859 
L 55.884 82.283764 
L 56.637091 82.038939 
L 57.390182 81.794113 
L 58.143273 81.549288 
L 58.896364 81.304462 
L 59.649455 81.059636 
L 60.402545 80.814811 
L 61.155636 80.569985 
L 61.908727 80.32516 
L 62.661818 80.080334 
L 63.414909 79.835509 
L 64.168 79.590683 
L 64.921091 79.345857 
L 65.674182 79.101032 
L 66.427273 78.856206 
L 67.180364 78.611381 
L 67.933455 78.366555 
L 68.686545 78.12173 
L 69.439636 77.876904 
L 70.192727 77.632078 
L 70.945818 77.387253 
L 71.698909 77.142427 
L 72.452 76.897602 
L 73.205091 76.652776 
L 73.958182 76.40795 
L 74.711273 76.163125 
L 75.464364 75.918299 
L 76.217455 75.673474 
L 76.970545 75.428648 
L 77.723636 75.183823 
L 78.476727 74.938997 
L 79.229818 74.694171 
L 79.982909 74.449346 
L 80.736 74.20452 
L 81.489091 73.959695 
L 82.242182 73.714869 
L 82.995273 73.470044 
L 83.748364 73.225218 
L 84.501455 72.980392 
L 85.254545 72.735567 
L 86.007636 72.490741 
L 86.760727 72.245916 
L 87.513818 72.00109 
L 88.266909 71.756264 
L 89.02 71.511439 
L 89.773091 71.266613 
L 90.526182 71.021788 
L 91.279273 70.776962 
L 92.032364 70.532137 
L 92.785455 70.287311 
L 93.538545 70.042485 
L 94.291636 69.79766 
L 95.044727 69.552834 
L 95.797818 69.308009 
L 96.550909 69.063183 
L 97.304 68.818357 
L 98.057091 68.573532 
L 98.810182 68.328706 
L 99.563273 68.083881 
L 100.316364 67.839055 
L 101.069455 67.59423 
L 101.822545 67.349404 
L 102.575636 67.104578 
L 103.328727 66.859753 
L 104.081818 66.614927 
L 104.834909 66.370102 
L 105.588 66.125276 
L 106.341091 65.880451 
L 107.094182 65.635625 
L 107.847273 65.390799 
L 108.600364 65.145974 
L 109.353455 64.901148 
L 110.106545 64.656323 
L 110.859636 64.411497 
L 111.612727 64.166671 
L 112.365818 63.921846 
L 113.118909 63.67702 
L 113.872 63.432195 
L 114.625091 63.187369 
L 115.378182 62.942544 
L 116.131273 62.697718 
L 116.884364 62.452892 
L 117.637455 62.208067 
L 118.390545 61.963241 
L 119.143636 61.718416 
L 119.896727 61.47359 
L 120.649818 61.228765 
L 121.402909 60.983939 
L 122.156 60.739113 
L 122.909091 60.494288 
L 123.662182 60.249462 
L 124.415273 60.004637 
L 125.168364 59.759811 
L 125.921455 59.514985 
L 126.674545 59.27016 
" style="fill:none;stroke:#92c5de;stroke-linecap:round;stroke-width:1.5;"/>
   </g>
   <g id="line2d_13">
    <path clip-path="url(#p9a4d867f15)" d="M 51.365455 73.421078 
L 52.118545 73.665904 
L 52.871636 73.91073 
L 53.624727 74.155555 
L 54.377818 74.400381 
L 55.130909 74.645206 
L 55.884 74.890032 
L 56.637091 75.134857 
L 57.390182 75.379683 
L 58.143273 75.624509 
L 58.896364 75.869334 
L 59.649455 76.11416 
L 60.402545 76.358985 
L 61.155636 76.603811 
L 61.908727 76.848637 
L 62.661818 77.093462 
L 63.414909 77.338288 
L 64.168 77.583113 
L 64.921091 77.827939 
L 65.674182 78.072764 
L 66.427273 78.31759 
L 67.180364 78.562416 
L 67.933455 78.807241 
L 68.686545 79.052067 
L 69.439636 79.296892 
L 70.192727 79.541718 
L 70.945818 79.786543 
L 71.698909 80.031369 
L 72.452 80.276195 
L 73.205091 80.52102 
L 73.958182 80.765846 
L 74.711273 81.010671 
L 75.464364 81.255497 
L 76.217455 81.500323 
L 76.970545 81.745148 
L 77.723636 81.989974 
L 78.476727 82.234799 
L 79.229818 82.479625 
L 79.982909 82.72445 
L 80.736 82.969276 
L 81.489091 83.214102 
L 82.242182 83.458927 
L 82.995273 83.703753 
L 83.748364 83.948578 
L 84.501455 84.193404 
L 85.254545 84.438229 
L 86.007636 84.683055 
L 86.760727 84.927881 
L 87.513818 85.172706 
L 88.266909 85.417532 
L 89.02 85.662357 
L 89.773091 85.907183 
L 90.526182 86.152009 
L 91.279273 86.396834 
L 92.032364 86.64166 
L 92.785455 86.886485 
L 93.538545 87.131311 
L 94.291636 87.376136 
L 95.044727 87.620962 
L 95.797818 87.865788 
L 96.550909 88.110613 
L 97.304 88.355439 
L 98.057091 88.600264 
L 98.810182 88.84509 
L 99.563273 89.089915 
L 100.316364 89.334741 
L 101.069455 89.579567 
L 101.822545 89.824392 
L 102.575636 90.069218 
L 103.328727 90.314043 
L 104.081818 90.558869 
L 104.834909 90.803695 
L 105.588 91.04852 
L 106.341091 91.293346 
L 107.094182 91.538171 
L 107.847273 91.782997 
L 108.600364 92.027822 
L 109.353455 92.272648 
L 110.106545 92.517474 
L 110.859636 92.762299 
L 111.612727 93.007125 
L 112.365818 93.25195 
L 113.118909 93.496776 
L 113.872 93.741602 
L 114.625091 93.986427 
L 115.378182 94.231253 
L 116.131273 94.476078 
L 116.884364 94.720904 
L 117.637455 94.965729 
L 118.390545 95.210555 
L 119.143636 95.455381 
L 119.896727 95.700206 
L 120.649818 95.945032 
L 121.402909 96.189857 
L 122.156 96.434683 
L 122.909091 96.679508 
L 123.662182 96.924334 
L 124.415273 97.16916 
L 125.168364 97.413985 
L 125.921455 97.658811 
L 126.674545 97.903636 
" style="fill:none;stroke:#f4a582;stroke-linecap:round;stroke-width:1.5;"/>
   </g>
   <g id="line2d_14">
    <path clip-path="url(#p9a4d867f15)" d="M 51.365455 80.031369 
L 52.118545 79.786543 
L 52.871636 79.541718 
L 53.624727 79.296892 
L 54.377818 79.052067 
L 55.130909 78.807241 
L 55.884 78.562416 
L 56.637091 78.31759 
L 57.390182 78.072764 
L 58.143273 77.827939 
L 58.896364 77.583113 
L 59.649455 77.338288 
L 60.402545 77.093462 
L 61.155636 76.848637 
L 61.908727 76.603811 
L 62.661818 76.358985 
L 63.414909 76.11416 
L 64.168 75.869334 
L 64.921091 75.624509 
L 65.674182 75.379683 
L 66.427273 75.134857 
L 67.180364 74.890032 
L 67.933455 74.645206 
L 68.686545 74.400381 
L 69.439636 74.155555 
L 70.192727 73.91073 
L 70.945818 73.665904 
L 71.698909 73.421078 
L 72.452 73.176253 
L 73.205091 72.931427 
L 73.958182 72.686602 
L 74.711273 72.441776 
L 75.464364 72.19695 
L 76.217455 71.952125 
L 76.970545 71.707299 
L 77.723636 71.462474 
L 78.476727 71.217648 
L 79.229818 70.972823 
L 79.982909 70.727997 
L 80.736 70.483171 
L 81.489091 70.238346 
L 82.242182 69.99352 
L 82.995273 69.748695 
L 83.748364 69.503869 
L 84.501455 69.259044 
L 85.254545 69.014218 
L 86.007636 68.769392 
L 86.760727 68.524567 
L 87.513818 68.279741 
L 88.266909 68.034916 
L 89.02 67.79009 
L 89.773091 67.545264 
L 90.526182 67.300439 
L 91.279273 67.055613 
L 92.032364 66.810788 
L 92.785455 66.565962 
L 93.538545 66.321137 
L 94.291636 66.076311 
L 95.044727 65.831485 
L 95.797818 65.58666 
L 96.550909 65.341834 
L 97.304 65.097009 
L 98.057091 64.852183 
L 98.810182 64.607358 
L 99.563273 64.362532 
L 100.316364 64.117706 
L 101.069455 63.872881 
L 101.822545 63.628055 
L 102.575636 63.38323 
L 103.328727 63.138404 
L 104.081818 62.893578 
L 104.834909 62.648753 
L 105.588 62.403927 
L 106.341091 62.159102 
L 107.094182 61.914276 
L 107.847273 61.669451 
L 108.600364 61.424625 
L 109.353455 61.179799 
L 110.106545 60.934974 
L 110.859636 60.690148 
L 111.612727 60.445323 
L 112.365818 60.200497 
L 113.118909 59.955671 
L 113.872 59.710846 
L 114.625091 59.46602 
L 115.378182 59.221195 
L 116.131273 58.976369 
L 116.884364 58.731544 
L 117.637455 58.486718 
L 118.390545 58.241892 
L 119.143636 57.997067 
L 119.896727 57.752241 
L 120.649818 57.507416 
L 121.402909 57.26259 
L 122.156 57.017765 
L 122.909091 56.772939 
L 123.662182 56.528113 
L 124.415273 56.283288 
L 125.168364 56.038462 
L 125.921455 55.793637 
L 126.674545 55.548811 
" style="fill:none;stroke:#92c5de;stroke-linecap:round;stroke-width:1.5;"/>
   </g>
   <g id="line2d_15">
    <path clip-path="url(#p9a4d867f15)" d="M 51.365455 71.291096 
L 52.118545 71.04627 
L 52.871636 70.801445 
L 53.624727 70.556619 
L 54.377818 70.311794 
L 55.130909 70.066968 
L 55.884 69.822142 
L 56.637091 69.577317 
L 57.390182 69.332491 
L 58.143273 69.087666 
L 58.896364 68.84284 
L 59.649455 68.598014 
L 60.402545 68.353189 
L 61.155636 68.108363 
L 61.908727 67.863538 
L 62.661818 67.618712 
L 63.414909 67.373887 
L 64.168 67.129061 
L 64.921091 66.884235 
L 65.674182 66.63941 
L 66.427273 66.394584 
L 67.180364 66.149759 
L 67.933455 65.904933 
L 68.686545 65.660108 
L 69.439636 65.415282 
L 70.192727 65.170456 
L 70.945818 64.925631 
L 71.698909 64.680805 
L 72.452 64.43598 
L 73.205091 64.191154 
L 73.958182 63.946328 
L 74.711273 63.701503 
L 75.464364 63.456677 
L 76.217455 63.211852 
L 76.970545 62.967026 
L 77.723636 62.722201 
L 78.476727 62.477375 
L 79.229818 62.232549 
L 79.982909 61.987724 
L 80.736 61.742898 
L 81.489091 61.498073 
L 82.242182 61.253247 
L 82.995273 61.008421 
L 83.748364 60.763596 
L 84.501455 60.51877 
L 85.254545 60.273945 
L 86.007636 60.029119 
L 86.760727 59.784294 
L 87.513818 59.539468 
L 88.266909 59.294642 
L 89.02 59.049817 
L 89.773091 58.804991 
L 90.526182 58.560166 
L 91.279273 58.31534 
L 92.032364 58.070515 
L 92.785455 57.825689 
L 93.538545 57.580863 
L 94.291636 57.336038 
L 95.044727 57.091212 
L 95.797818 56.846387 
L 96.550909 56.601561 
L 97.304 56.356735 
L 98.057091 56.11191 
L 98.810182 55.867084 
L 99.563273 55.622259 
L 100.316364 55.377433 
L 101.069455 55.132608 
L 101.822545 54.887782 
L 102.575636 54.642956 
L 103.328727 54.398131 
L 104.081818 54.153305 
L 104.834909 53.90848 
L 105.588 53.663654 
L 106.341091 53.418829 
L 107.094182 53.174003 
L 107.847273 52.929177 
L 108.600364 52.684352 
L 109.353455 52.439526 
L 110.106545 52.194701 
L 110.859636 51.949875 
L 111.612727 51.705049 
L 112.365818 51.460224 
L 113.118909 51.215398 
L 113.872 50.970573 
L 114.625091 50.725747 
L 115.378182 50.480922 
L 116.131273 50.236096 
L 116.884364 49.99127 
L 117.637455 49.746445 
L 118.390545 49.501619 
L 119.143636 49.256794 
L 119.896727 49.011968 
L 120.649818 48.767143 
L 121.402909 48.522317 
L 122.156 48.277491 
L 122.909091 48.032666 
L 123.662182 47.78784 
L 124.415273 47.543015 
L 125.168364 47.298189 
L 125.921455 47.053363 
L 126.674545 46.808538 
" style="fill:none;stroke:#92c5de;stroke-linecap:round;stroke-width:1.5;"/>
   </g>
   <g id="line2d_16">
    <path clip-path="url(#p9a4d867f15)" d="M 51.365455 83.48341 
L 52.118545 83.238584 
L 52.871636 82.993759 
L 53.624727 82.748933 
L 54.377818 82.504107 
L 55.130909 82.259282 
L 55.884 82.014456 
L 56.637091 81.769631 
L 57.390182 81.524805 
L 58.143273 81.279979 
L 58.896364 81.035154 
L 59.649455 80.790328 
L 60.402545 80.545503 
L 61.155636 80.300677 
L 61.908727 80.055852 
L 62.661818 79.811026 
L 63.414909 79.5662 
L 64.168 79.321375 
L 64.921091 79.076549 
L 65.674182 78.831724 
L 66.427273 78.586898 
L 67.180364 78.342073 
L 67.933455 78.097247 
L 68.686545 77.852421 
L 69.439636 77.607596 
L 70.192727 77.36277 
L 70.945818 77.117945 
L 71.698909 76.873119 
L 72.452 76.628293 
L 73.205091 76.383468 
L 73.958182 76.138642 
L 74.711273 75.893817 
L 75.464364 75.648991 
L 76.217455 75.404166 
L 76.970545 75.15934 
L 77.723636 74.914514 
L 78.476727 74.669689 
L 79.229818 74.424863 
L 79.982909 74.180038 
L 80.736 73.935212 
L 81.489091 73.690387 
L 82.242182 73.445561 
L 82.995273 73.200735 
L 83.748364 72.95591 
L 84.501455 72.711084 
L 85.254545 72.466259 
L 86.007636 72.221433 
L 86.760727 71.976607 
L 87.513818 71.731782 
L 88.266909 71.486956 
L 89.02 71.242131 
L 89.773091 70.997305 
L 90.526182 70.75248 
L 91.279273 70.507654 
L 92.032364 70.262828 
L 92.785455 70.018003 
L 93.538545 69.773177 
L 94.291636 69.528352 
L 95.044727 69.283526 
L 95.797818 69.038701 
L 96.550909 68.793875 
L 97.304 68.549049 
L 98.057091 68.304224 
L 98.810182 68.059398 
L 99.563273 67.814573 
L 100.316364 67.569747 
L 101.069455 67.324921 
L 101.822545 67.080096 
L 102.575636 66.83527 
L 103.328727 66.590445 
L 104.081818 66.345619 
L 104.834909 66.100794 
L 105.588 65.855968 
L 106.341091 65.611142 
L 107.094182 65.366317 
L 107.847273 65.121491 
L 108.600364 64.876666 
L 109.353455 64.63184 
L 110.106545 64.387014 
L 110.859636 64.142189 
L 111.612727 63.897363 
L 112.365818 63.652538 
L 113.118909 63.407712 
L 113.872 63.162887 
L 114.625091 62.918061 
L 115.378182 62.673235 
L 116.131273 62.42841 
L 116.884364 62.183584 
L 117.637455 61.938759 
L 118.390545 61.693933 
L 119.143636 61.449108 
L 119.896727 61.204282 
L 120.649818 60.959456 
L 121.402909 60.714631 
L 122.156 60.469805 
L 122.909091 60.22498 
L 123.662182 59.980154 
L 124.415273 59.735328 
L 125.168364 59.490503 
L 125.921455 59.245677 
L 126.674545 59.000852 
" style="fill:none;stroke:#92c5de;stroke-linecap:round;stroke-width:1.5;"/>
   </g>
   <g id="line2d_17">
    <path clip-path="url(#p9a4d867f15)" d="M 51.365455 85.711322 
L 52.118545 85.466497 
L 52.871636 85.221671 
L 53.624727 84.976846 
L 54.377818 84.73202 
L 55.130909 84.487195 
L 55.884 84.242369 
L 56.637091 83.997543 
L 57.390182 83.752718 
L 58.143273 83.507892 
L 58.896364 83.263067 
L 59.649455 83.018241 
L 60.402545 82.773416 
L 61.155636 82.52859 
L 61.908727 82.283764 
L 62.661818 82.038939 
L 63.414909 81.794113 
L 64.168 81.549288 
L 64.921091 81.304462 
L 65.674182 81.059636 
L 66.427273 80.814811 
L 67.180364 80.569985 
L 67.933455 80.32516 
L 68.686545 80.080334 
L 69.439636 79.835509 
L 70.192727 79.590683 
L 70.945818 79.345857 
L 71.698909 79.101032 
L 72.452 78.856206 
L 73.205091 78.611381 
L 73.958182 78.366555 
L 74.711273 78.12173 
L 75.464364 77.876904 
L 76.217455 77.632078 
L 76.970545 77.387253 
L 77.723636 77.142427 
L 78.476727 76.897602 
L 79.229818 76.652776 
L 79.982909 76.40795 
L 80.736 76.163125 
L 81.489091 75.918299 
L 82.242182 75.673474 
L 82.995273 75.428648 
L 83.748364 75.183823 
L 84.501455 74.938997 
L 85.254545 74.694171 
L 86.007636 74.449346 
L 86.760727 74.20452 
L 87.513818 73.959695 
L 88.266909 73.714869 
L 89.02 73.470044 
L 89.773091 73.225218 
L 90.526182 72.980392 
L 91.279273 72.735567 
L 92.032364 72.490741 
L 92.785455 72.245916 
L 93.538545 72.00109 
L 94.291636 71.756264 
L 95.044727 71.511439 
L 95.797818 71.266613 
L 96.550909 71.021788 
L 97.304 70.776962 
L 98.057091 70.532137 
L 98.810182 70.287311 
L 99.563273 70.042485 
L 100.316364 69.79766 
L 101.069455 69.552834 
L 101.822545 69.308009 
L 102.575636 69.063183 
L 103.328727 68.818357 
L 104.081818 68.573532 
L 104.834909 68.328706 
L 105.588 68.083881 
L 106.341091 67.839055 
L 107.094182 67.59423 
L 107.847273 67.349404 
L 108.600364 67.104578 
L 109.353455 66.859753 
L 110.106545 66.614927 
L 110.859636 66.370102 
L 111.612727 66.125276 
L 112.365818 65.880451 
L 113.118909 65.635625 
L 113.872 65.390799 
L 114.625091 65.145974 
L 115.378182 64.901148 
L 116.131273 64.656323 
L 116.884364 64.411497 
L 117.637455 64.166671 
L 118.390545 63.921846 
L 119.143636 63.67702 
L 119.896727 63.432195 
L 120.649818 63.187369 
L 121.402909 62.942544 
L 122.156 62.697718 
L 122.909091 62.452892 
L 123.662182 62.208067 
L 124.415273 61.963241 
L 125.168364 61.718416 
L 125.921455 61.47359 
L 126.674545 61.228765 
" style="fill:none;stroke:#92c5de;stroke-linecap:round;stroke-width:1.5;"/>
   </g>
   <g id="line2d_18">
    <path clip-path="url(#p9a4d867f15)" d="M 51.365455 55.450881 
L 52.118545 55.695706 
L 52.871636 55.940532 
L 53.624727 56.185358 
L 54.377818 56.430183 
L 55.130909 56.675009 
L 55.884 56.919834 
L 56.637091 57.16466 
L 57.390182 57.409485 
L 58.143273 57.654311 
L 58.896364 57.899137 
L 59.649455 58.143962 
L 60.402545 58.388788 
L 61.155636 58.633613 
L 61.908727 58.878439 
L 62.661818 59.123265 
L 63.414909 59.36809 
L 64.168 59.612916 
L 64.921091 59.857741 
L 65.674182 60.102567 
L 66.427273 60.347392 
L 67.180364 60.592218 
L 67.933455 60.837044 
L 68.686545 61.081869 
L 69.439636 61.326695 
L 70.192727 61.57152 
L 70.945818 61.816346 
L 71.698909 62.061171 
L 72.452 62.305997 
L 73.205091 62.550823 
L 73.958182 62.795648 
L 74.711273 63.040474 
L 75.464364 63.285299 
L 76.217455 63.530125 
L 76.970545 63.774951 
L 77.723636 64.019776 
L 78.476727 64.264602 
L 79.229818 64.509427 
L 79.982909 64.754253 
L 80.736 64.999078 
L 81.489091 65.243904 
L 82.242182 65.48873 
L 82.995273 65.733555 
L 83.748364 65.978381 
L 84.501455 66.223206 
L 85.254545 66.468032 
L 86.007636 66.712857 
L 86.760727 66.957683 
L 87.513818 67.202509 
L 88.266909 67.447334 
L 89.02 67.69216 
L 89.773091 67.936985 
L 90.526182 68.181811 
L 91.279273 68.426637 
L 92.032364 68.671462 
L 92.785455 68.916288 
L 93.538545 69.161113 
L 94.291636 69.405939 
L 95.044727 69.650764 
L 95.797818 69.89559 
L 96.550909 70.140416 
L 97.304 70.385241 
L 98.057091 70.630067 
L 98.810182 70.874892 
L 99.563273 71.119718 
L 100.316364 71.364544 
L 101.069455 71.609369 
L 101.822545 71.854195 
L 102.575636 72.09902 
L 103.328727 72.343846 
L 104.081818 72.588671 
L 104.834909 72.833497 
L 105.588 73.078323 
L 106.341091 73.323148 
L 107.094182 73.567974 
L 107.847273 73.812799 
L 108.600364 74.057625 
L 109.353455 74.30245 
L 110.106545 74.547276 
L 110.859636 74.792102 
L 111.612727 75.036927 
L 112.365818 75.281753 
L 113.118909 75.526578 
L 113.872 75.771404 
L 114.625091 76.01623 
L 115.378182 76.261055 
L 116.131273 76.505881 
L 116.884364 76.750706 
L 117.637455 76.995532 
L 118.390545 77.240357 
L 119.143636 77.485183 
L 119.896727 77.730009 
L 120.649818 77.974834 
L 121.402909 78.21966 
L 122.156 78.464485 
L 122.909091 78.709311 
L 123.662182 78.954136 
L 124.415273 79.198962 
L 125.168364 79.443788 
L 125.921455 79.688613 
L 126.674545 79.933439 
" style="fill:none;stroke:#f4a582;stroke-linecap:round;stroke-width:1.5;"/>
   </g>
   <g id="line2d_19">
    <path clip-path="url(#p9a4d867f15)" d="M 51.365455 85.613392 
L 52.118545 85.368567 
L 52.871636 85.123741 
L 53.624727 84.878916 
L 54.377818 84.63409 
L 55.130909 84.389264 
L 55.884 84.144439 
L 56.637091 83.899613 
L 57.390182 83.654788 
L 58.143273 83.409962 
L 58.896364 83.165136 
L 59.649455 82.920311 
L 60.402545 82.675485 
L 61.155636 82.43066 
L 61.908727 82.185834 
L 62.661818 81.941009 
L 63.414909 81.696183 
L 64.168 81.451357 
L 64.921091 81.206532 
L 65.674182 80.961706 
L 66.427273 80.716881 
L 67.180364 80.472055 
L 67.933455 80.22723 
L 68.686545 79.982404 
L 69.439636 79.737578 
L 70.192727 79.492753 
L 70.945818 79.247927 
L 71.698909 79.003102 
L 72.452 78.758276 
L 73.205091 78.51345 
L 73.958182 78.268625 
L 74.711273 78.023799 
L 75.464364 77.778974 
L 76.217455 77.534148 
L 76.970545 77.289323 
L 77.723636 77.044497 
L 78.476727 76.799671 
L 79.229818 76.554846 
L 79.982909 76.31002 
L 80.736 76.065195 
L 81.489091 75.820369 
L 82.242182 75.575543 
L 82.995273 75.330718 
L 83.748364 75.085892 
L 84.501455 74.841067 
L 85.254545 74.596241 
L 86.007636 74.351416 
L 86.760727 74.10659 
L 87.513818 73.861764 
L 88.266909 73.616939 
L 89.02 73.372113 
L 89.773091 73.127288 
L 90.526182 72.882462 
L 91.279273 72.637637 
L 92.032364 72.392811 
L 92.785455 72.147985 
L 93.538545 71.90316 
L 94.291636 71.658334 
L 95.044727 71.413509 
L 95.797818 71.168683 
L 96.550909 70.923857 
L 97.304 70.679032 
L 98.057091 70.434206 
L 98.810182 70.189381 
L 99.563273 69.944555 
L 100.316364 69.69973 
L 101.069455 69.454904 
L 101.822545 69.210078 
L 102.575636 68.965253 
L 103.328727 68.720427 
L 104.081818 68.475602 
L 104.834909 68.230776 
L 105.588 67.985951 
L 106.341091 67.741125 
L 107.094182 67.496299 
L 107.847273 67.251474 
L 108.600364 67.006648 
L 109.353455 66.761823 
L 110.106545 66.516997 
L 110.859636 66.272171 
L 111.612727 66.027346 
L 112.365818 65.78252 
L 113.118909 65.537695 
L 113.872 65.292869 
L 114.625091 65.048044 
L 115.378182 64.803218 
L 116.131273 64.558392 
L 116.884364 64.313567 
L 117.637455 64.068741 
L 118.390545 63.823916 
L 119.143636 63.57909 
L 119.896727 63.334264 
L 120.649818 63.089439 
L 121.402909 62.844613 
L 122.156 62.599788 
L 122.909091 62.354962 
L 123.662182 62.110137 
L 124.415273 61.865311 
L 125.168364 61.620485 
L 125.921455 61.37566 
L 126.674545 61.130834 
" style="fill:none;stroke:#92c5de;stroke-linecap:round;stroke-width:1.5;"/>
   </g>
   <g id="line2d_20">
    <path clip-path="url(#p9a4d867f15)" d="M 51.365455 56.895352 
L 52.118545 56.650526 
L 52.871636 56.405701 
L 53.624727 56.160875 
L 54.377818 55.916049 
L 55.130909 55.671224 
L 55.884 55.426398 
L 56.637091 55.181573 
L 57.390182 54.936747 
L 58.143273 54.691922 
L 58.896364 54.447096 
L 59.649455 54.20227 
L 60.402545 53.957445 
L 61.155636 53.712619 
L 61.908727 53.467794 
L 62.661818 53.222968 
L 63.414909 52.978142 
L 64.168 52.733317 
L 64.921091 52.488491 
L 65.674182 52.243666 
L 66.427273 51.99884 
L 67.180364 51.754015 
L 67.933455 51.509189 
L 68.686545 51.264363 
L 69.439636 51.019538 
L 70.192727 50.774712 
L 70.945818 50.529887 
L 71.698909 50.285061 
L 72.452 50.040236 
L 73.205091 49.79541 
L 73.958182 49.550584 
L 74.711273 49.305759 
L 75.464364 49.060933 
L 76.217455 48.816108 
L 76.970545 48.571282 
L 77.723636 48.326456 
L 78.476727 48.081631 
L 79.229818 47.836805 
L 79.982909 47.59198 
L 80.736 47.347154 
L 81.489091 47.102329 
L 82.242182 46.857503 
L 82.995273 46.612677 
L 83.748364 46.367852 
L 84.501455 46.123026 
L 85.254545 45.878201 
L 86.007636 45.633375 
L 86.760727 45.388549 
L 87.513818 45.143724 
L 88.266909 44.898898 
L 89.02 44.654073 
L 89.773091 44.409247 
L 90.526182 44.164422 
L 91.279273 43.919596 
L 92.032364 43.67477 
L 92.785455 43.429945 
L 93.538545 43.185119 
L 94.291636 42.940294 
L 95.044727 42.695468 
L 95.797818 42.450643 
L 96.550909 42.205817 
L 97.304 41.960991 
L 98.057091 41.716166 
L 98.810182 41.47134 
L 99.563273 41.226515 
L 100.316364 40.981689 
L 101.069455 40.736863 
L 101.822545 40.492038 
L 102.575636 40.247212 
L 103.328727 40.002387 
L 104.081818 39.757561 
L 104.834909 39.512736 
L 105.588 39.26791 
L 106.341091 39.023084 
L 107.094182 38.778259 
L 107.847273 38.533433 
L 108.600364 38.288608 
L 109.353455 38.043782 
L 110.106545 37.798957 
L 110.859636 37.554131 
L 111.612727 37.309305 
L 112.365818 37.06448 
L 113.118909 36.819654 
L 113.872 36.574829 
L 114.625091 36.330003 
L 115.378182 36.085177 
L 116.131273 35.840352 
L 116.884364 35.595526 
L 117.637455 35.350701 
L 118.390545 35.105875 
L 119.143636 34.86105 
L 119.896727 34.616224 
L 120.649818 34.371398 
L 121.402909 34.126573 
L 122.156 33.881747 
L 122.909091 33.636922 
L 123.662182 33.392096 
L 124.415273 33.147271 
L 125.168364 32.902445 
L 125.921455 32.657619 
L 126.674545 32.412794 
" style="fill:none;stroke:#92c5de;stroke-linecap:round;stroke-width:1.5;"/>
   </g>
   <g id="line2d_21">
    <path clip-path="url(#p9a4d867f15)" d="M 51.365455 77.509666 
L 52.118545 77.509666 
L 52.871636 77.509666 
L 53.624727 77.509666 
L 54.377818 77.509666 
L 55.130909 77.509666 
L 55.884 77.509666 
L 56.637091 77.509666 
L 57.390182 77.509666 
L 58.143273 77.509666 
L 58.896364 77.509666 
L 59.649455 77.509666 
L 60.402545 77.509666 
L 61.155636 77.509666 
L 61.908727 77.509666 
L 62.661818 77.509666 
L 63.414909 77.509666 
L 64.168 77.509666 
L 64.921091 77.509666 
L 65.674182 77.509666 
L 66.427273 77.509666 
L 67.180364 77.509666 
L 67.933455 77.509666 
L 68.686545 77.509666 
L 69.439636 77.509666 
L 70.192727 77.509666 
L 70.945818 77.509666 
L 71.698909 77.509666 
L 72.452 77.509666 
L 73.205091 77.509666 
L 73.958182 77.509666 
L 74.711273 77.509666 
L 75.464364 77.509666 
L 76.217455 77.509666 
L 76.970545 77.509666 
L 77.723636 77.509666 
L 78.476727 77.509666 
L 79.229818 77.509666 
L 79.982909 77.509666 
L 80.736 77.509666 
L 81.489091 77.509666 
L 82.242182 77.509666 
L 82.995273 77.509666 
L 83.748364 77.509666 
L 84.501455 77.509666 
L 85.254545 77.509666 
L 86.007636 77.509666 
L 86.760727 77.509666 
L 87.513818 77.509666 
L 88.266909 77.509666 
L 89.02 77.509666 
L 89.773091 77.509666 
L 90.526182 77.509666 
L 91.279273 77.509666 
L 92.032364 77.509666 
L 92.785455 77.509666 
L 93.538545 77.509666 
L 94.291636 77.509666 
L 95.044727 77.509666 
L 95.797818 77.509666 
L 96.550909 77.509666 
L 97.304 77.509666 
L 98.057091 77.509666 
L 98.810182 77.509666 
L 99.563273 77.509666 
L 100.316364 77.509666 
L 101.069455 77.509666 
L 101.822545 77.509666 
L 102.575636 77.509666 
L 103.328727 77.509666 
L 104.081818 77.509666 
L 104.834909 77.509666 
L 105.588 77.509666 
L 106.341091 77.509666 
L 107.094182 77.509666 
L 107.847273 77.509666 
L 108.600364 77.509666 
L 109.353455 77.509666 
L 110.106545 77.509666 
L 110.859636 77.509666 
L 111.612727 77.509666 
L 112.365818 77.509666 
L 113.118909 77.509666 
L 113.872 77.509666 
L 114.625091 77.509666 
L 115.378182 77.509666 
L 116.131273 77.509666 
L 116.884364 77.509666 
L 117.637455 77.509666 
L 118.390545 77.509666 
L 119.143636 77.509666 
L 119.896727 77.509666 
L 120.649818 77.509666 
L 121.402909 77.509666 
L 122.156 77.509666 
L 122.909091 77.509666 
L 123.662182 77.509666 
L 124.415273 77.509666 
L 125.168364 77.509666 
L 125.921455 77.509666 
L 126.674545 77.509666 
" style="fill:none;stroke:#333333;stroke-linecap:round;stroke-width:1.5;"/>
   </g>
   <g id="line2d_22">
    <path clip-path="url(#p9a4d867f15)" d="M 51.365455 85.613392 
L 52.118545 85.613392 
L 52.871636 85.613392 
L 53.624727 85.613392 
L 54.377818 85.613392 
L 55.130909 85.613392 
L 55.884 85.613392 
L 56.637091 85.613392 
L 57.390182 85.613392 
L 58.143273 85.613392 
L 58.896364 85.613392 
L 59.649455 85.613392 
L 60.402545 85.613392 
L 61.155636 85.613392 
L 61.908727 85.613392 
L 62.661818 85.613392 
L 63.414909 85.613392 
L 64.168 85.613392 
L 64.921091 85.613392 
L 65.674182 85.613392 
L 66.427273 85.613392 
L 67.180364 85.613392 
L 67.933455 85.613392 
L 68.686545 85.613392 
L 69.439636 85.613392 
L 70.192727 85.613392 
L 70.945818 85.613392 
L 71.698909 85.613392 
L 72.452 85.613392 
L 73.205091 85.613392 
L 73.958182 85.613392 
L 74.711273 85.613392 
L 75.464364 85.613392 
L 76.217455 85.613392 
L 76.970545 85.613392 
L 77.723636 85.613392 
L 78.476727 85.613392 
L 79.229818 85.613392 
L 79.982909 85.613392 
L 80.736 85.613392 
L 81.489091 85.613392 
L 82.242182 85.613392 
L 82.995273 85.613392 
L 83.748364 85.613392 
L 84.501455 85.613392 
L 85.254545 85.613392 
L 86.007636 85.613392 
L 86.760727 85.613392 
L 87.513818 85.613392 
L 88.266909 85.613392 
L 89.02 85.613392 
L 89.773091 85.613392 
L 90.526182 85.613392 
L 91.279273 85.613392 
L 92.032364 85.613392 
L 92.785455 85.613392 
L 93.538545 85.613392 
L 94.291636 85.613392 
L 95.044727 85.613392 
L 95.797818 85.613392 
L 96.550909 85.613392 
L 97.304 85.613392 
L 98.057091 85.613392 
L 98.810182 85.613392 
L 99.563273 85.613392 
L 100.316364 85.613392 
L 101.069455 85.613392 
L 101.822545 85.613392 
L 102.575636 85.613392 
L 103.328727 85.613392 
L 104.081818 85.613392 
L 104.834909 85.613392 
L 105.588 85.613392 
L 106.341091 85.613392 
L 107.094182 85.613392 
L 107.847273 85.613392 
L 108.600364 85.613392 
L 109.353455 85.613392 
L 110.106545 85.613392 
L 110.859636 85.613392 
L 111.612727 85.613392 
L 112.365818 85.613392 
L 113.118909 85.613392 
L 113.872 85.613392 
L 114.625091 85.613392 
L 115.378182 85.613392 
L 116.131273 85.613392 
L 116.884364 85.613392 
L 117.637455 85.613392 
L 118.390545 85.613392 
L 119.143636 85.613392 
L 119.896727 85.613392 
L 120.649818 85.613392 
L 121.402909 85.613392 
L 122.156 85.613392 
L 122.909091 85.613392 
L 123.662182 85.613392 
L 124.415273 85.613392 
L 125.168364 85.613392 
L 125.921455 85.613392 
L 126.674545 85.613392 
" style="fill:none;stroke:#333333;stroke-linecap:round;stroke-width:1.5;"/>
   </g>
   <g id="line2d_23">
    <path clip-path="url(#p9a4d867f15)" d="M 51.365455 79.713096 
L 52.118545 79.713096 
L 52.871636 79.713096 
L 53.624727 79.713096 
L 54.377818 79.713096 
L 55.130909 79.713096 
L 55.884 79.713096 
L 56.637091 79.713096 
L 57.390182 79.713096 
L 58.143273 79.713096 
L 58.896364 79.713096 
L 59.649455 79.713096 
L 60.402545 79.713096 
L 61.155636 79.713096 
L 61.908727 79.713096 
L 62.661818 79.713096 
L 63.414909 79.713096 
L 64.168 79.713096 
L 64.921091 79.713096 
L 65.674182 79.713096 
L 66.427273 79.713096 
L 67.180364 79.713096 
L 67.933455 79.713096 
L 68.686545 79.713096 
L 69.439636 79.713096 
L 70.192727 79.713096 
L 70.945818 79.713096 
L 71.698909 79.713096 
L 72.452 79.713096 
L 73.205091 79.713096 
L 73.958182 79.713096 
L 74.711273 79.713096 
L 75.464364 79.713096 
L 76.217455 79.713096 
L 76.970545 79.713096 
L 77.723636 79.713096 
L 78.476727 79.713096 
L 79.229818 79.713096 
L 79.982909 79.713096 
L 80.736 79.713096 
L 81.489091 79.713096 
L 82.242182 79.713096 
L 82.995273 79.713096 
L 83.748364 79.713096 
L 84.501455 79.713096 
L 85.254545 79.713096 
L 86.007636 79.713096 
L 86.760727 79.713096 
L 87.513818 79.713096 
L 88.266909 79.713096 
L 89.02 79.713096 
L 89.773091 79.713096 
L 90.526182 79.713096 
L 91.279273 79.713096 
L 92.032364 79.713096 
L 92.785455 79.713096 
L 93.538545 79.713096 
L 94.291636 79.713096 
L 95.044727 79.713096 
L 95.797818 79.713096 
L 96.550909 79.713096 
L 97.304 79.713096 
L 98.057091 79.713096 
L 98.810182 79.713096 
L 99.563273 79.713096 
L 100.316364 79.713096 
L 101.069455 79.713096 
L 101.822545 79.713096 
L 102.575636 79.713096 
L 103.328727 79.713096 
L 104.081818 79.713096 
L 104.834909 79.713096 
L 105.588 79.713096 
L 106.341091 79.713096 
L 107.094182 79.713096 
L 107.847273 79.713096 
L 108.600364 79.713096 
L 109.353455 79.713096 
L 110.106545 79.713096 
L 110.859636 79.713096 
L 111.612727 79.713096 
L 112.365818 79.713096 
L 113.118909 79.713096 
L 113.872 79.713096 
L 114.625091 79.713096 
L 115.378182 79.713096 
L 116.131273 79.713096 
L 116.884364 79.713096 
L 117.637455 79.713096 
L 118.390545 79.713096 
L 119.143636 79.713096 
L 119.896727 79.713096 
L 120.649818 79.713096 
L 121.402909 79.713096 
L 122.156 79.713096 
L 122.909091 79.713096 
L 123.662182 79.713096 
L 124.415273 79.713096 
L 125.168364 79.713096 
L 125.921455 79.713096 
L 126.674545 79.713096 
" style="fill:none;stroke:#333333;stroke-linecap:round;stroke-width:1.5;"/>
   </g>
   <g id="line2d_24">
    <path clip-path="url(#p9a4d867f15)" d="M 51.365455 84.707538 
L 52.118545 84.707538 
L 52.871636 84.707538 
L 53.624727 84.707538 
L 54.377818 84.707538 
L 55.130909 84.707538 
L 55.884 84.707538 
L 56.637091 84.707538 
L 57.390182 84.707538 
L 58.143273 84.707538 
L 58.896364 84.707538 
L 59.649455 84.707538 
L 60.402545 84.707538 
L 61.155636 84.707538 
L 61.908727 84.707538 
L 62.661818 84.707538 
L 63.414909 84.707538 
L 64.168 84.707538 
L 64.921091 84.707538 
L 65.674182 84.707538 
L 66.427273 84.707538 
L 67.180364 84.707538 
L 67.933455 84.707538 
L 68.686545 84.707538 
L 69.439636 84.707538 
L 70.192727 84.707538 
L 70.945818 84.707538 
L 71.698909 84.707538 
L 72.452 84.707538 
L 73.205091 84.707538 
L 73.958182 84.707538 
L 74.711273 84.707538 
L 75.464364 84.707538 
L 76.217455 84.707538 
L 76.970545 84.707538 
L 77.723636 84.707538 
L 78.476727 84.707538 
L 79.229818 84.707538 
L 79.982909 84.707538 
L 80.736 84.707538 
L 81.489091 84.707538 
L 82.242182 84.707538 
L 82.995273 84.707538 
L 83.748364 84.707538 
L 84.501455 84.707538 
L 85.254545 84.707538 
L 86.007636 84.707538 
L 86.760727 84.707538 
L 87.513818 84.707538 
L 88.266909 84.707538 
L 89.02 84.707538 
L 89.773091 84.707538 
L 90.526182 84.707538 
L 91.279273 84.707538 
L 92.032364 84.707538 
L 92.785455 84.707538 
L 93.538545 84.707538 
L 94.291636 84.707538 
L 95.044727 84.707538 
L 95.797818 84.707538 
L 96.550909 84.707538 
L 97.304 84.707538 
L 98.057091 84.707538 
L 98.810182 84.707538 
L 99.563273 84.707538 
L 100.316364 84.707538 
L 101.069455 84.707538 
L 101.822545 84.707538 
L 102.575636 84.707538 
L 103.328727 84.707538 
L 104.081818 84.707538 
L 104.834909 84.707538 
L 105.588 84.707538 
L 106.341091 84.707538 
L 107.094182 84.707538 
L 107.847273 84.707538 
L 108.600364 84.707538 
L 109.353455 84.707538 
L 110.106545 84.707538 
L 110.859636 84.707538 
L 111.612727 84.707538 
L 112.365818 84.707538 
L 113.118909 84.707538 
L 113.872 84.707538 
L 114.625091 84.707538 
L 115.378182 84.707538 
L 116.131273 84.707538 
L 116.884364 84.707538 
L 117.637455 84.707538 
L 118.390545 84.707538 
L 119.143636 84.707538 
L 119.896727 84.707538 
L 120.649818 84.707538 
L 121.402909 84.707538 
L 122.156 84.707538 
L 122.909091 84.707538 
L 123.662182 84.707538 
L 124.415273 84.707538 
L 125.168364 84.707538 
L 125.921455 84.707538 
L 126.674545 84.707538 
" style="fill:none;stroke:#333333;stroke-linecap:round;stroke-width:1.5;"/>
   </g>
  </g>
 </g>
 <defs>
  <clipPath id="p9a4d867f15">
   <rect height="88.36" width="82.84" x="47.6" y="13.56"/>
  </clipPath>
 </defs>
</svg>
