<?xml version="1.0" encoding="utf-8" standalone="no"?>
<!DOCTYPE svg PUBLIC "-//W3C//DTD SVG 1.1//EN"
  "http://www.w3.org/Graphics/SVG/1.1/DTD/svg11.dtd">
<!-- Created with matplotlib (http://matplotlib.org/) -->
<svg height="144pt" version="1.1" viewBox="0 0 144 144" width="144pt" xmlns="http://www.w3.org/2000/svg" xmlns:xlink="http://www.w3.org/1999/xlink">
 <defs>
  <style type="text/css">
*{stroke-linecap:butt;stroke-linejoin:round;}
  </style>
 </defs>
 <g id="figure_1">
  <g id="patch_1">
   <path d="M 0 144 
L 144 144 
L 144 0 
L 0 0 
z
" style="fill:#ffffff;"/>
  </g>
  <g id="axes_1">
   <g id="patch_2">
    <path d="M 48.38 101.92 
L 130.44 101.92 
L 130.44 27.48 
L 48.38 27.48 
z
" style="fill:#ffffff;"/>
   </g>
   <g id="matplotlib.axis_1">
    <g id="xtick_1">
     <g id="line2d_1">
      <defs>
       <path d="M 0 0 
L 0 3.5 
" id="m9739666f44" style="stroke:#262626;stroke-width:0.8;"/>
      </defs>
      <g>
       <use style="fill:#262626;stroke:#262626;stroke-width:0.8;" x="52.11" xlink:href="#m9739666f44" y="101.92"/>
      </g>
     </g>
     <g id="text_1">
      <!-- 2 -->
      <defs>
       <path d="M 50.34375 8.453125 
L 50.34375 0 
L 3.03125 0 
Q 2.9375 3.171875 4.046875 6.109375 
Q 5.859375 10.9375 9.828125 15.625 
Q 13.8125 20.3125 21.34375 26.46875 
Q 33.015625 36.03125 37.109375 41.625 
Q 41.21875 47.21875 41.21875 52.203125 
Q 41.21875 57.421875 37.46875 61 
Q 33.734375 64.59375 27.734375 64.59375 
Q 21.390625 64.59375 17.578125 60.78125 
Q 13.765625 56.984375 13.71875 50.25 
L 4.6875 51.171875 
Q 5.609375 61.28125 11.65625 66.578125 
Q 17.71875 71.875 27.9375 71.875 
Q 38.234375 71.875 44.234375 66.15625 
Q 50.25 60.453125 50.25 52 
Q 50.25 47.703125 48.484375 43.546875 
Q 46.734375 39.40625 42.65625 34.8125 
Q 38.578125 30.21875 29.109375 22.21875 
Q 21.1875 15.578125 18.9375 13.203125 
Q 16.703125 10.84375 15.234375 8.453125 
z
" id="ArialMT-32"/>
      </defs>
      <g style="fill:#262626;" transform="translate(49.051484 116.793594)scale(0.11 -0.11)">
       <use xlink:href="#ArialMT-32"/>
      </g>
     </g>
    </g>
    <g id="xtick_2">
     <g id="line2d_2">
      <g>
       <use style="fill:#262626;stroke:#262626;stroke-width:0.8;" x="67.03" xlink:href="#m9739666f44" y="101.92"/>
      </g>
     </g>
     <g id="text_2">
      <!-- 4 -->
      <defs>
       <path d="M 32.328125 0 
L 32.328125 17.140625 
L 1.265625 17.140625 
L 1.265625 25.203125 
L 33.9375 71.578125 
L 41.109375 71.578125 
L 41.109375 25.203125 
L 50.78125 25.203125 
L 50.78125 17.140625 
L 41.109375 17.140625 
L 41.109375 0 
z
M 32.328125 25.203125 
L 32.328125 57.46875 
L 9.90625 25.203125 
z
" id="ArialMT-34"/>
      </defs>
      <g style="fill:#262626;" transform="translate(63.971484 116.793594)scale(0.11 -0.11)">
       <use xlink:href="#ArialMT-34"/>
      </g>
     </g>
    </g>
    <g id="xtick_3">
     <g id="line2d_3">
      <g>
       <use style="fill:#262626;stroke:#262626;stroke-width:0.8;" x="81.95" xlink:href="#m9739666f44" y="101.92"/>
      </g>
     </g>
     <g id="text_3">
      <!-- 6 -->
      <defs>
       <path d="M 49.75 54.046875 
L 41.015625 53.375 
Q 39.84375 58.546875 37.703125 60.890625 
Q 34.125 64.65625 28.90625 64.65625 
Q 24.703125 64.65625 21.53125 62.3125 
Q 17.390625 59.28125 14.984375 53.46875 
Q 12.59375 47.65625 12.5 36.921875 
Q 15.671875 41.75 20.265625 44.09375 
Q 24.859375 46.4375 29.890625 46.4375 
Q 38.671875 46.4375 44.84375 39.96875 
Q 51.03125 33.5 51.03125 23.25 
Q 51.03125 16.5 48.125 10.71875 
Q 45.21875 4.9375 40.140625 1.859375 
Q 35.0625 -1.21875 28.609375 -1.21875 
Q 17.625 -1.21875 10.6875 6.859375 
Q 3.765625 14.9375 3.765625 33.5 
Q 3.765625 54.25 11.421875 63.671875 
Q 18.109375 71.875 29.4375 71.875 
Q 37.890625 71.875 43.28125 67.140625 
Q 48.6875 62.40625 49.75 54.046875 
z
M 13.875 23.1875 
Q 13.875 18.65625 15.796875 14.5 
Q 17.71875 10.359375 21.1875 8.171875 
Q 24.65625 6 28.46875 6 
Q 34.03125 6 38.03125 10.484375 
Q 42.046875 14.984375 42.046875 22.703125 
Q 42.046875 30.125 38.078125 34.390625 
Q 34.125 38.671875 28.125 38.671875 
Q 22.171875 38.671875 18.015625 34.390625 
Q 13.875 30.125 13.875 23.1875 
z
" id="ArialMT-36"/>
      </defs>
      <g style="fill:#262626;" transform="translate(78.891484 116.793594)scale(0.11 -0.11)">
       <use xlink:href="#ArialMT-36"/>
      </g>
     </g>
    </g>
    <g id="xtick_4">
     <g id="line2d_4">
      <g>
       <use style="fill:#262626;stroke:#262626;stroke-width:0.8;" x="96.87" xlink:href="#m9739666f44" y="101.92"/>
      </g>
     </g>
     <g id="text_4">
      <!-- 8 -->
      <defs>
       <path d="M 17.671875 38.8125 
Q 12.203125 40.828125 9.5625 44.53125 
Q 6.9375 48.25 6.9375 53.421875 
Q 6.9375 61.234375 12.546875 66.546875 
Q 18.171875 71.875 27.484375 71.875 
Q 36.859375 71.875 42.578125 66.421875 
Q 48.296875 60.984375 48.296875 53.171875 
Q 48.296875 48.1875 45.671875 44.5 
Q 43.0625 40.828125 37.75 38.8125 
Q 44.34375 36.671875 47.78125 31.875 
Q 51.21875 27.09375 51.21875 20.453125 
Q 51.21875 11.28125 44.71875 5.03125 
Q 38.234375 -1.21875 27.640625 -1.21875 
Q 17.046875 -1.21875 10.546875 5.046875 
Q 4.046875 11.328125 4.046875 20.703125 
Q 4.046875 27.6875 7.59375 32.390625 
Q 11.140625 37.109375 17.671875 38.8125 
z
M 15.921875 53.71875 
Q 15.921875 48.640625 19.1875 45.40625 
Q 22.46875 42.1875 27.6875 42.1875 
Q 32.765625 42.1875 36.015625 45.375 
Q 39.265625 48.578125 39.265625 53.21875 
Q 39.265625 58.0625 35.90625 61.359375 
Q 32.5625 64.65625 27.59375 64.65625 
Q 22.5625 64.65625 19.234375 61.421875 
Q 15.921875 58.203125 15.921875 53.71875 
z
M 13.09375 20.65625 
Q 13.09375 16.890625 14.875 13.375 
Q 16.65625 9.859375 20.171875 7.921875 
Q 23.6875 6 27.734375 6 
Q 34.03125 6 38.125 10.046875 
Q 42.234375 14.109375 42.234375 20.359375 
Q 42.234375 26.703125 38.015625 30.859375 
Q 33.796875 35.015625 27.4375 35.015625 
Q 21.234375 35.015625 17.15625 30.90625 
Q 13.09375 26.8125 13.09375 20.65625 
z
" id="ArialMT-38"/>
      </defs>
      <g style="fill:#262626;" transform="translate(93.811484 116.793594)scale(0.11 -0.11)">
       <use xlink:href="#ArialMT-38"/>
      </g>
     </g>
    </g>
    <g id="xtick_5">
     <g id="line2d_5">
      <g>
       <use style="fill:#262626;stroke:#262626;stroke-width:0.8;" x="111.79" xlink:href="#m9739666f44" y="101.92"/>
      </g>
     </g>
     <g id="text_5">
      <!-- 10 -->
      <defs>
       <path d="M 37.25 0 
L 28.46875 0 
L 28.46875 56 
Q 25.296875 52.984375 20.140625 49.953125 
Q 14.984375 46.921875 10.890625 45.40625 
L 10.890625 53.90625 
Q 18.265625 57.375 23.78125 62.296875 
Q 29.296875 67.234375 31.59375 71.875 
L 37.25 71.875 
z
" id="ArialMT-31"/>
       <path d="M 4.15625 35.296875 
Q 4.15625 48 6.765625 55.734375 
Q 9.375 63.484375 14.515625 67.671875 
Q 19.671875 71.875 27.484375 71.875 
Q 33.25 71.875 37.59375 69.546875 
Q 41.9375 67.234375 44.765625 62.859375 
Q 47.609375 58.5 49.21875 52.21875 
Q 50.828125 45.953125 50.828125 35.296875 
Q 50.828125 22.703125 48.234375 14.96875 
Q 45.65625 7.234375 40.5 3 
Q 35.359375 -1.21875 27.484375 -1.21875 
Q 17.140625 -1.21875 11.234375 6.203125 
Q 4.15625 15.140625 4.15625 35.296875 
z
M 13.1875 35.296875 
Q 13.1875 17.671875 17.3125 11.828125 
Q 21.4375 6 27.484375 6 
Q 33.546875 6 37.671875 11.859375 
Q 41.796875 17.71875 41.796875 35.296875 
Q 41.796875 52.984375 37.671875 58.78125 
Q 33.546875 64.59375 27.390625 64.59375 
Q 21.34375 64.59375 17.71875 59.46875 
Q 13.1875 52.9375 13.1875 35.296875 
z
" id="ArialMT-30"/>
      </defs>
      <g style="fill:#262626;" transform="translate(105.672969 116.793594)scale(0.11 -0.11)">
       <use xlink:href="#ArialMT-31"/>
       <use x="55.615234" xlink:href="#ArialMT-30"/>
      </g>
     </g>
    </g>
    <g id="xtick_6">
     <g id="line2d_6">
      <g>
       <use style="fill:#262626;stroke:#262626;stroke-width:0.8;" x="126.71" xlink:href="#m9739666f44" y="101.92"/>
      </g>
     </g>
     <g id="text_6">
      <!-- 12 -->
      <g style="fill:#262626;" transform="translate(120.592969 116.793594)scale(0.11 -0.11)">
       <use xlink:href="#ArialMT-31"/>
       <use x="55.615234" xlink:href="#ArialMT-32"/>
      </g>
     </g>
    </g>
    <g id="text_7">
     <!-- pH -->
     <defs>
      <path d="M 6.59375 -19.875 
L 6.59375 51.859375 
L 14.59375 51.859375 
L 14.59375 45.125 
Q 17.4375 49.078125 21 51.046875 
Q 24.5625 53.03125 29.640625 53.03125 
Q 36.28125 53.03125 41.359375 49.609375 
Q 46.4375 46.1875 49.015625 39.953125 
Q 51.609375 33.734375 51.609375 26.3125 
Q 51.609375 18.359375 48.75 11.984375 
Q 45.90625 5.609375 40.453125 2.21875 
Q 35.015625 -1.171875 29 -1.171875 
Q 24.609375 -1.171875 21.109375 0.6875 
Q 17.625 2.546875 15.375 5.375 
L 15.375 -19.875 
z
M 14.546875 25.640625 
Q 14.546875 15.625 18.59375 10.84375 
Q 22.65625 6.0625 28.421875 6.0625 
Q 34.28125 6.0625 38.453125 11.015625 
Q 42.625 15.96875 42.625 26.375 
Q 42.625 36.28125 38.546875 41.203125 
Q 34.46875 46.140625 28.8125 46.140625 
Q 23.1875 46.140625 18.859375 40.890625 
Q 14.546875 35.640625 14.546875 25.640625 
z
" id="ArialMT-70"/>
      <path d="M 8.015625 0 
L 8.015625 71.578125 
L 17.484375 71.578125 
L 17.484375 42.1875 
L 54.6875 42.1875 
L 54.6875 71.578125 
L 64.15625 71.578125 
L 64.15625 0 
L 54.6875 0 
L 54.6875 33.734375 
L 17.484375 33.734375 
L 17.484375 0 
z
" id="ArialMT-48"/>
     </defs>
     <g style="fill:#262626;" transform="translate(82.379453 130.853437)scale(0.11 -0.11)">
      <use xlink:href="#ArialMT-70"/>
      <use x="55.615234" xlink:href="#ArialMT-48"/>
     </g>
    </g>
   </g>
   <g id="matplotlib.axis_2">
    <g id="ytick_1">
     <g id="line2d_7">
      <defs>
       <path d="M 0 0 
L -3.5 0 
" id="mdf2d0d0f73" style="stroke:#262626;stroke-width:0.8;"/>
      </defs>
      <g>
       <use style="fill:#262626;stroke:#262626;stroke-width:0.8;" x="48.38" xlink:href="#mdf2d0d0f73" y="98.593057"/>
      </g>
     </g>
     <g id="text_8">
      <!-- −1 -->
      <defs>
       <path d="M 52.828125 31.203125 
L 5.5625 31.203125 
L 5.5625 39.40625 
L 52.828125 39.40625 
z
" id="ArialMT-2212"/>
      </defs>
      <g style="fill:#262626;" transform="translate(28.838281 102.529854)scale(0.11 -0.11)">
       <use xlink:href="#ArialMT-2212"/>
       <use x="58.398438" xlink:href="#ArialMT-31"/>
      </g>
     </g>
    </g>
    <g id="ytick_2">
     <g id="line2d_8">
      <g>
       <use style="fill:#262626;stroke:#262626;stroke-width:0.8;" x="48.38" xlink:href="#mdf2d0d0f73" y="64.727675"/>
      </g>
     </g>
     <g id="text_9">
      <!-- 0 -->
      <g style="fill:#262626;" transform="translate(35.262969 68.664471)scale(0.11 -0.11)">
       <use xlink:href="#ArialMT-30"/>
      </g>
     </g>
    </g>
    <g id="ytick_3">
     <g id="line2d_9">
      <g>
       <use style="fill:#262626;stroke:#262626;stroke-width:0.8;" x="48.38" xlink:href="#mdf2d0d0f73" y="30.862292"/>
      </g>
     </g>
     <g id="text_10">
      <!-- 1 -->
      <g style="fill:#262626;" transform="translate(35.262969 34.799089)scale(0.11 -0.11)">
       <use xlink:href="#ArialMT-31"/>
      </g>
     </g>
    </g>
    <g id="text_11">
     <!-- $\langle q_\mathsf{total} \rangle$ -->
     <defs>
      <path d="M 8.9375 31.34375 
L 22.703125 75.875 
L 31 75.875 
L 17.234375 31.34375 
L 31 -13.1875 
L 22.703125 -13.1875 
z
" id="DejaVuSans-27e8"/>
      <path d="M 41.703125 8.203125 
Q 38.09375 3.46875 33.171875 1.015625 
Q 28.265625 -1.421875 22.3125 -1.421875 
Q 14.015625 -1.421875 9.296875 4.171875 
Q 4.59375 9.765625 4.59375 19.578125 
Q 4.59375 27.484375 7.5 34.859375 
Q 10.40625 42.234375 15.828125 48.09375 
Q 19.34375 51.90625 23.90625 53.953125 
Q 28.46875 56 33.5 56 
Q 39.546875 56 43.453125 53.609375 
Q 47.359375 51.21875 49.125 46.390625 
L 50.6875 54.59375 
L 59.71875 54.59375 
L 45.125 -20.609375 
L 36.078125 -20.609375 
z
M 13.921875 20.90625 
Q 13.921875 13.671875 16.9375 9.890625 
Q 19.96875 6.109375 25.6875 6.109375 
Q 34.1875 6.109375 40.1875 14.234375 
Q 46.1875 22.359375 46.1875 33.984375 
Q 46.1875 41.015625 43.078125 44.75 
Q 39.984375 48.484375 34.1875 48.484375 
Q 29.9375 48.484375 26.3125 46.5 
Q 22.703125 44.53125 20.015625 40.71875 
Q 17.1875 36.71875 15.546875 31.34375 
Q 13.921875 25.984375 13.921875 20.90625 
z
" id="DejaVuSans-Oblique-71"/>
      <path d="M 18.3125 70.21875 
L 18.3125 54.6875 
L 36.8125 54.6875 
L 36.8125 47.703125 
L 18.3125 47.703125 
L 18.3125 18.015625 
Q 18.3125 11.328125 20.140625 9.421875 
Q 21.96875 7.515625 27.59375 7.515625 
L 36.8125 7.515625 
L 36.8125 0 
L 27.59375 0 
Q 17.1875 0 13.234375 3.875 
Q 9.28125 7.765625 9.28125 18.015625 
L 9.28125 47.703125 
L 2.6875 47.703125 
L 2.6875 54.6875 
L 9.28125 54.6875 
L 9.28125 70.21875 
z
" id="DejaVuSans-74"/>
      <path d="M 30.609375 48.390625 
Q 23.390625 48.390625 19.1875 42.75 
Q 14.984375 37.109375 14.984375 27.296875 
Q 14.984375 17.484375 19.15625 11.84375 
Q 23.34375 6.203125 30.609375 6.203125 
Q 37.796875 6.203125 41.984375 11.859375 
Q 46.1875 17.53125 46.1875 27.296875 
Q 46.1875 37.015625 41.984375 42.703125 
Q 37.796875 48.390625 30.609375 48.390625 
z
M 30.609375 56 
Q 42.328125 56 49.015625 48.375 
Q 55.71875 40.765625 55.71875 27.296875 
Q 55.71875 13.875 49.015625 6.21875 
Q 42.328125 -1.421875 30.609375 -1.421875 
Q 18.84375 -1.421875 12.171875 6.21875 
Q 5.515625 13.875 5.515625 27.296875 
Q 5.515625 40.765625 12.171875 48.375 
Q 18.84375 56 30.609375 56 
z
" id="DejaVuSans-6f"/>
      <path d="M 34.28125 27.484375 
Q 23.390625 27.484375 19.1875 25 
Q 14.984375 22.515625 14.984375 16.5 
Q 14.984375 11.71875 18.140625 8.90625 
Q 21.296875 6.109375 26.703125 6.109375 
Q 34.1875 6.109375 38.703125 11.40625 
Q 43.21875 16.703125 43.21875 25.484375 
L 43.21875 27.484375 
z
M 52.203125 31.203125 
L 52.203125 0 
L 43.21875 0 
L 43.21875 8.296875 
Q 40.140625 3.328125 35.546875 0.953125 
Q 30.953125 -1.421875 24.3125 -1.421875 
Q 15.921875 -1.421875 10.953125 3.296875 
Q 6 8.015625 6 15.921875 
Q 6 25.140625 12.171875 29.828125 
Q 18.359375 34.515625 30.609375 34.515625 
L 43.21875 34.515625 
L 43.21875 35.40625 
Q 43.21875 41.609375 39.140625 45 
Q 35.0625 48.390625 27.6875 48.390625 
Q 23 48.390625 18.546875 47.265625 
Q 14.109375 46.140625 10.015625 43.890625 
L 10.015625 52.203125 
Q 14.9375 54.109375 19.578125 55.046875 
Q 24.21875 56 28.609375 56 
Q 40.484375 56 46.34375 49.84375 
Q 52.203125 43.703125 52.203125 31.203125 
z
" id="DejaVuSans-61"/>
      <path d="M 9.421875 75.984375 
L 18.40625 75.984375 
L 18.40625 0 
L 9.421875 0 
z
" id="DejaVuSans-6c"/>
      <path d="M 30.078125 31.34375 
L 16.3125 -13.1875 
L 8.015625 -13.1875 
L 21.78125 31.34375 
L 8.015625 75.875 
L 16.3125 75.875 
z
" id="DejaVuSans-27e9"/>
     </defs>
     <g style="fill:#262626;" transform="translate(22.528281 81.475)rotate(-90)scale(0.11 -0.11)">
      <use transform="translate(0 0.125)" xlink:href="#DejaVuSans-27e8"/>
      <use transform="translate(39.013672 0.125)" xlink:href="#DejaVuSans-Oblique-71"/>
      <use transform="translate(102.490234 -16.28125)scale(0.7)" xlink:href="#DejaVuSans-74"/>
      <use transform="translate(129.936523 -16.28125)scale(0.7)" xlink:href="#DejaVuSans-6f"/>
      <use transform="translate(172.763672 -16.28125)scale(0.7)" xlink:href="#DejaVuSans-74"/>
      <use transform="translate(200.209961 -16.28125)scale(0.7)" xlink:href="#DejaVuSans-61"/>
      <use transform="translate(243.105469 -16.28125)scale(0.7)" xlink:href="#DejaVuSans-6c"/>
      <use transform="translate(265.288086 0.125)" xlink:href="#DejaVuSans-27e9"/>
     </g>
    </g>
   </g>
   <g id="PolyCollection_1">
    <defs>
     <path d="M 52.11 -113.125696 
L 52.11 -113.125696 
L 52.856 -113.122587 
L 53.602 -113.118675 
L 54.348 -113.11375 
L 55.094 -113.107552 
L 55.84 -113.099753 
L 56.586 -113.089939 
L 57.332 -113.077593 
L 58.078 -113.062062 
L 58.824 -113.04253 
L 59.57 -113.017974 
L 60.316 -112.987109 
L 61.062 -112.948334 
L 61.808 -112.899645 
L 62.554 -112.838548 
L 63.3 -112.761948 
L 64.046 -112.666009 
L 64.792 -112.546009 
L 65.538 -112.396158 
L 66.284 -112.209414 
L 67.03 -111.977292 
L 67.776 -111.689678 
L 68.522 -111.334707 
L 69.268 -110.89873 
L 70.014 -110.366442 
L 70.76 -109.721279 
L 71.506 -108.946166 
L 72.252 -108.024727 
L 72.998 -106.943013 
L 73.744 -105.691713 
L 74.49 -104.26867 
L 75.236 -102.681302 
L 75.982 -100.948371 
L 76.728 -99.100462 
L 77.474 -97.178665 
L 78.22 -95.231368 
L 78.966 -93.309571 
L 79.712 -91.461662 
L 80.458 -89.728731 
L 81.204 -88.141363 
L 81.95 -86.71832 
L 82.696 -85.467021 
L 83.442 -84.385306 
L 84.188 -83.463867 
L 84.934 -82.688754 
L 85.68 -82.043592 
L 86.426 -81.511303 
L 87.172 -81.075326 
L 87.918 -80.720355 
L 88.664 -80.432741 
L 89.41 -80.200619 
L 90.156 -80.013876 
L 90.902 -79.864025 
L 91.648 -79.744024 
L 92.394 -79.648085 
L 93.14 -79.571485 
L 93.886 -79.510389 
L 94.632 -79.4617 
L 95.378 -79.422924 
L 96.124 -79.39206 
L 96.87 -79.367503 
L 97.616 -79.347971 
L 98.362 -79.332441 
L 99.108 -79.320094 
L 99.854 -79.31028 
L 100.6 -79.302481 
L 101.346 -79.296283 
L 102.092 -79.291359 
L 102.838 -79.287446 
L 103.584 -79.284337 
L 104.33 -79.281867 
L 105.076 -79.279905 
L 105.822 -79.278347 
L 106.568 -79.277108 
L 107.314 -79.276125 
L 108.06 -79.275343 
L 108.806 -79.274723 
L 109.552 -79.27423 
L 110.298 -79.273838 
L 111.044 -79.273527 
L 111.79 -79.27328 
L 112.536 -79.273084 
L 113.282 -79.272928 
L 114.028 -79.272804 
L 114.774 -79.272705 
L 115.52 -79.272627 
L 116.266 -79.272565 
L 117.012 -79.272516 
L 117.758 -79.272477 
L 118.504 -79.272446 
L 119.25 -79.272421 
L 119.996 -79.272401 
L 120.742 -79.272386 
L 121.488 -79.272373 
L 122.234 -79.272363 
L 122.98 -79.272356 
L 123.726 -79.272349 
L 124.472 -79.272345 
L 125.218 -79.272341 
L 125.964 -79.272338 
L 126.71 -79.272335 
L 126.71 -79.272335 
L 126.71 -45.463636 
L 125.964 -45.478285 
L 125.218 -45.496708 
L 124.472 -45.519873 
L 123.726 -45.548991 
L 122.98 -45.585578 
L 122.234 -45.631525 
L 121.488 -45.689192 
L 120.742 -45.76151 
L 119.996 -45.852113 
L 119.25 -45.965483 
L 118.504 -46.107121 
L 117.758 -46.283734 
L 117.012 -46.503428 
L 116.266 -46.775893 
L 115.52 -47.112548 
L 114.774 -47.526612 
L 114.028 -48.033016 
L 113.282 -48.648094 
L 112.536 -49.388938 
L 111.79 -50.272322 
L 111.044 -51.31311 
L 110.298 -52.522165 
L 109.552 -53.903896 
L 108.806 -55.453764 
L 108.06 -57.156293 
L 107.314 -58.984207 
L 106.568 -60.899263 
L 105.822 -62.855002 
L 105.076 -64.801143 
L 104.33 -66.6888 
L 103.584 -68.475444 
L 102.838 -70.128605 
L 102.092 -71.627746 
L 101.346 -72.964282 
L 100.6 -74.140165 
L 99.854 -75.16567 
L 99.108 -76.056976 
L 98.362 -76.833983 
L 97.616 -77.518608 
L 96.87 -78.133622 
L 96.124 -78.701974 
L 95.378 -79.246512 
L 94.632 -79.789966 
L 93.886 -80.355057 
L 93.14 -80.96462 
L 92.394 -81.641602 
L 91.648 -82.408813 
L 90.902 -83.288292 
L 90.156 -84.300199 
L 89.41 -85.461155 
L 88.664 -86.782103 
L 87.918 -88.265895 
L 87.172 -89.90503 
L 86.426 -91.68014 
L 85.68 -93.559845 
L 84.934 -95.502444 
L 84.188 -97.459457 
L 83.442 -99.380507 
L 82.696 -101.218558 
L 81.95 -102.934433 
L 81.204 -104.499744 
L 80.458 -105.8979 
L 79.712 -107.123391 
L 78.966 -108.179873 
L 78.22 -109.077704 
L 77.474 -109.831462 
L 76.728 -110.457816 
L 75.982 -110.973882 
L 75.236 -111.3961 
L 74.49 -111.739554 
L 73.744 -112.017631 
L 72.998 -112.241923 
L 72.252 -112.42228 
L 71.506 -112.56695 
L 70.76 -112.682767 
L 70.014 -112.775337 
L 69.268 -112.849233 
L 68.522 -112.908164 
L 67.776 -112.955121 
L 67.03 -112.992514 
L 66.284 -113.022275 
L 65.538 -113.045953 
L 64.792 -113.064785 
L 64.046 -113.079758 
L 63.3 -113.091662 
L 62.554 -113.101124 
L 61.808 -113.108644 
L 61.062 -113.11462 
L 60.316 -113.119369 
L 59.57 -113.123144 
L 58.824 -113.126143 
L 58.078 -113.128528 
L 57.332 -113.130424 
L 56.586 -113.131932 
L 55.84 -113.133133 
L 55.094 -113.134091 
L 54.348 -113.134856 
L 53.602 -113.135469 
L 52.856 -113.135963 
L 52.11 -113.136364 
z
" id="md6f86aca7e" style="stroke:#ffffff;stroke-opacity:0.7;"/>
    </defs>
    <g clip-path="url(#p9b12f2fed2)">
     <use style="fill:#591e71;fill-opacity:0.7;stroke:#ffffff;stroke-opacity:0.7;" x="0" xlink:href="#md6f86aca7e" y="144"/>
    </g>
   </g>
   <g id="line2d_10">
    <path clip-path="url(#p9b12f2fed2)" d="M 52.11 30.874304 
L 52.856 30.877413 
L 53.602 30.881325 
L 54.348 30.88625 
L 55.094 30.892448 
L 55.84 30.900247 
L 56.586 30.910061 
L 57.332 30.922407 
L 58.078 30.937938 
L 58.824 30.95747 
L 59.57 30.982026 
L 60.316 31.012891 
L 61.062 31.051666 
L 61.808 31.100355 
L 62.554 31.161452 
L 63.3 31.238052 
L 64.046 31.333991 
L 64.792 31.453991 
L 65.538 31.603842 
L 66.284 31.790586 
L 67.03 32.022708 
L 67.776 32.310322 
L 68.522 32.665293 
L 69.268 33.10127 
L 70.014 33.633558 
L 70.76 34.278721 
L 71.506 35.053834 
L 72.252 35.975273 
L 72.998 37.056987 
L 73.744 38.308287 
L 74.49 39.73133 
L 75.236 41.318698 
L 75.982 43.051629 
L 76.728 44.899538 
L 77.474 46.821335 
L 78.22 48.768632 
L 78.966 50.690429 
L 79.712 52.538338 
L 80.458 54.271269 
L 81.204 55.858637 
L 81.95 57.28168 
L 82.696 58.532979 
L 83.442 59.614694 
L 84.188 60.536133 
L 84.934 61.311246 
L 85.68 61.956408 
L 86.426 62.488697 
L 87.172 62.924674 
L 87.918 63.279645 
L 88.664 63.567259 
L 89.41 63.799381 
L 90.156 63.986124 
L 90.902 64.135975 
L 91.648 64.255976 
L 92.394 64.351915 
L 93.14 64.428515 
L 93.886 64.489611 
L 94.632 64.5383 
L 95.378 64.577076 
L 96.124 64.60794 
L 96.87 64.632497 
L 97.616 64.652029 
L 98.362 64.667559 
L 99.108 64.679906 
L 99.854 64.68972 
L 100.6 64.697519 
L 101.346 64.703717 
L 102.092 64.708641 
L 102.838 64.712554 
L 103.584 64.715663 
L 104.33 64.718133 
L 105.076 64.720095 
L 105.822 64.721653 
L 106.568 64.722892 
L 107.314 64.723875 
L 108.06 64.724657 
L 108.806 64.725277 
L 109.552 64.72577 
L 110.298 64.726162 
L 111.044 64.726473 
L 111.79 64.72672 
L 112.536 64.726916 
L 113.282 64.727072 
L 114.028 64.727196 
L 114.774 64.727295 
L 115.52 64.727373 
L 116.266 64.727435 
L 117.012 64.727484 
L 117.758 64.727523 
L 118.504 64.727554 
L 119.25 64.727579 
L 119.996 64.727599 
L 120.742 64.727614 
L 121.488 64.727627 
L 122.234 64.727637 
L 122.98 64.727644 
L 123.726 64.727651 
L 124.472 64.727655 
L 125.218 64.727659 
L 125.964 64.727662 
L 126.71 64.727665 
" style="fill:none;stroke:#333333;stroke-dasharray:1.5,2.475;stroke-dashoffset:0;stroke-width:1.5;"/>
   </g>
   <g id="line2d_11">
    <path clip-path="url(#p9b12f2fed2)" d="M 52.11 30.863636 
L 52.856 30.864037 
L 53.602 30.864531 
L 54.348 30.865144 
L 55.094 30.865909 
L 55.84 30.866867 
L 56.586 30.868068 
L 57.332 30.869576 
L 58.078 30.871472 
L 58.824 30.873857 
L 59.57 30.876856 
L 60.316 30.880631 
L 61.062 30.88538 
L 61.808 30.891356 
L 62.554 30.898876 
L 63.3 30.908338 
L 64.046 30.920242 
L 64.792 30.935215 
L 65.538 30.954047 
L 66.284 30.977725 
L 67.03 31.007486 
L 67.776 31.044879 
L 68.522 31.091836 
L 69.268 31.150767 
L 70.014 31.224663 
L 70.76 31.317233 
L 71.506 31.43305 
L 72.252 31.57772 
L 72.998 31.758077 
L 73.744 31.982369 
L 74.49 32.260446 
L 75.236 32.6039 
L 75.982 33.026118 
L 76.728 33.542184 
L 77.474 34.168538 
L 78.22 34.922296 
L 78.966 35.820127 
L 79.712 36.876609 
L 80.458 38.1021 
L 81.204 39.500256 
L 81.95 41.065567 
L 82.696 42.781442 
L 83.442 44.619493 
L 84.188 46.540543 
L 84.934 48.497556 
L 85.68 50.440155 
L 86.426 52.31986 
L 87.172 54.09497 
L 87.918 55.734105 
L 88.664 57.217897 
L 89.41 58.538845 
L 90.156 59.699801 
L 90.902 60.711708 
L 91.648 61.591187 
L 92.394 62.358398 
L 93.14 63.03538 
L 93.886 63.644943 
L 94.632 64.210034 
L 95.378 64.753488 
L 96.124 65.298026 
L 96.87 65.866378 
L 97.616 66.481392 
L 98.362 67.166017 
L 99.108 67.943024 
L 99.854 68.83433 
L 100.6 69.859835 
L 101.346 71.035718 
L 102.092 72.372254 
L 102.838 73.871395 
L 103.584 75.524556 
L 104.33 77.3112 
L 105.076 79.198857 
L 105.822 81.144998 
L 106.568 83.100737 
L 107.314 85.015793 
L 108.06 86.843707 
L 108.806 88.546236 
L 109.552 90.096104 
L 110.298 91.477835 
L 111.044 92.68689 
L 111.79 93.727678 
L 112.536 94.611062 
L 113.282 95.351906 
L 114.028 95.966984 
L 114.774 96.473388 
L 115.52 96.887452 
L 116.266 97.224107 
L 117.012 97.496572 
L 117.758 97.716266 
L 118.504 97.892879 
L 119.25 98.034517 
L 119.996 98.147887 
L 120.742 98.23849 
L 121.488 98.310808 
L 122.234 98.368475 
L 122.98 98.414422 
L 123.726 98.451009 
L 124.472 98.480127 
L 125.218 98.503292 
L 125.964 98.521715 
L 126.71 98.536364 
" style="fill:none;stroke:#333333;stroke-linecap:round;stroke-width:1.5;"/>
   </g>
   <g id="patch_3">
    <path d="M 48.38 101.92 
L 48.38 27.48 
" style="fill:none;stroke:#262626;stroke-linecap:square;stroke-linejoin:miter;stroke-width:0.8;"/>
   </g>
   <g id="patch_4">
    <path d="M 48.38 101.92 
L 130.44 101.92 
" style="fill:none;stroke:#262626;stroke-linecap:square;stroke-linejoin:miter;stroke-width:0.8;"/>
   </g>
   <g id="text_12">
    <!-- $\Delta$ area : 3.68 -->
    <defs>
     <path d="M 34.1875 63.1875 
L 14.15625 8.203125 
L 54.25 8.203125 
z
M 0.78125 0 
L 28.609375 72.90625 
L 39.796875 72.90625 
L 67.578125 0 
z
" id="DejaVuSans-394"/>
     <path id="ArialMT-20"/>
     <path d="M 40.4375 6.390625 
Q 35.546875 2.25 31.03125 0.53125 
Q 26.515625 -1.171875 21.34375 -1.171875 
Q 12.796875 -1.171875 8.203125 3 
Q 3.609375 7.171875 3.609375 13.671875 
Q 3.609375 17.484375 5.34375 20.625 
Q 7.078125 23.78125 9.890625 25.6875 
Q 12.703125 27.59375 16.21875 28.5625 
Q 18.796875 29.25 24.03125 29.890625 
Q 34.671875 31.15625 39.703125 32.90625 
Q 39.75 34.71875 39.75 35.203125 
Q 39.75 40.578125 37.25 42.78125 
Q 33.890625 45.75 27.25 45.75 
Q 21.046875 45.75 18.09375 43.578125 
Q 15.140625 41.40625 13.71875 35.890625 
L 5.125 37.0625 
Q 6.296875 42.578125 8.984375 45.96875 
Q 11.671875 49.359375 16.75 51.1875 
Q 21.828125 53.03125 28.515625 53.03125 
Q 35.15625 53.03125 39.296875 51.46875 
Q 43.453125 49.90625 45.40625 47.53125 
Q 47.359375 45.171875 48.140625 41.546875 
Q 48.578125 39.3125 48.578125 33.453125 
L 48.578125 21.734375 
Q 48.578125 9.46875 49.140625 6.21875 
Q 49.703125 2.984375 51.375 0 
L 42.1875 0 
Q 40.828125 2.734375 40.4375 6.390625 
z
M 39.703125 26.03125 
Q 34.90625 24.078125 25.34375 22.703125 
Q 19.921875 21.921875 17.671875 20.9375 
Q 15.4375 19.96875 14.203125 18.09375 
Q 12.984375 16.21875 12.984375 13.921875 
Q 12.984375 10.40625 15.640625 8.0625 
Q 18.3125 5.71875 23.4375 5.71875 
Q 28.515625 5.71875 32.46875 7.9375 
Q 36.421875 10.15625 38.28125 14.015625 
Q 39.703125 17 39.703125 22.796875 
z
" id="ArialMT-61"/>
     <path d="M 6.5 0 
L 6.5 51.859375 
L 14.40625 51.859375 
L 14.40625 44 
Q 17.4375 49.515625 20 51.265625 
Q 22.5625 53.03125 25.640625 53.03125 
Q 30.078125 53.03125 34.671875 50.203125 
L 31.640625 42.046875 
Q 28.421875 43.953125 25.203125 43.953125 
Q 22.3125 43.953125 20.015625 42.21875 
Q 17.71875 40.484375 16.75 37.40625 
Q 15.28125 32.71875 15.28125 27.15625 
L 15.28125 0 
z
" id="ArialMT-72"/>
     <path d="M 42.09375 16.703125 
L 51.171875 15.578125 
Q 49.03125 7.625 43.21875 3.21875 
Q 37.40625 -1.171875 28.375 -1.171875 
Q 17 -1.171875 10.328125 5.828125 
Q 3.65625 12.84375 3.65625 25.484375 
Q 3.65625 38.578125 10.390625 45.796875 
Q 17.140625 53.03125 27.875 53.03125 
Q 38.28125 53.03125 44.875 45.953125 
Q 51.46875 38.875 51.46875 26.03125 
Q 51.46875 25.25 51.421875 23.6875 
L 12.75 23.6875 
Q 13.234375 15.140625 17.578125 10.59375 
Q 21.921875 6.0625 28.421875 6.0625 
Q 33.25 6.0625 36.671875 8.59375 
Q 40.09375 11.140625 42.09375 16.703125 
z
M 13.234375 30.90625 
L 42.1875 30.90625 
Q 41.609375 37.453125 38.875 40.71875 
Q 34.671875 45.796875 27.984375 45.796875 
Q 21.921875 45.796875 17.796875 41.75 
Q 13.671875 37.703125 13.234375 30.90625 
z
" id="ArialMT-65"/>
     <path d="M 9.03125 41.84375 
L 9.03125 51.859375 
L 19.046875 51.859375 
L 19.046875 41.84375 
z
M 9.03125 0 
L 9.03125 10.015625 
L 19.046875 10.015625 
L 19.046875 0 
z
" id="ArialMT-3a"/>
     <path d="M 4.203125 18.890625 
L 12.984375 20.0625 
Q 14.5 12.59375 18.140625 9.296875 
Q 21.78125 6 27 6 
Q 33.203125 6 37.46875 10.296875 
Q 41.75 14.59375 41.75 20.953125 
Q 41.75 27 37.796875 30.921875 
Q 33.84375 34.859375 27.734375 34.859375 
Q 25.25 34.859375 21.53125 33.890625 
L 22.515625 41.609375 
Q 23.390625 41.5 23.921875 41.5 
Q 29.546875 41.5 34.03125 44.421875 
Q 38.53125 47.359375 38.53125 53.46875 
Q 38.53125 58.296875 35.25 61.46875 
Q 31.984375 64.65625 26.8125 64.65625 
Q 21.6875 64.65625 18.265625 61.421875 
Q 14.84375 58.203125 13.875 51.765625 
L 5.078125 53.328125 
Q 6.6875 62.15625 12.390625 67.015625 
Q 18.109375 71.875 26.609375 71.875 
Q 32.46875 71.875 37.390625 69.359375 
Q 42.328125 66.84375 44.9375 62.5 
Q 47.5625 58.15625 47.5625 53.265625 
Q 47.5625 48.640625 45.0625 44.828125 
Q 42.578125 41.015625 37.703125 38.765625 
Q 44.046875 37.3125 47.5625 32.6875 
Q 51.078125 28.078125 51.078125 21.140625 
Q 51.078125 11.765625 44.234375 5.25 
Q 37.40625 -1.265625 26.953125 -1.265625 
Q 17.53125 -1.265625 11.296875 4.34375 
Q 5.078125 9.96875 4.203125 18.890625 
z
" id="ArialMT-33"/>
     <path d="M 9.078125 0 
L 9.078125 10.015625 
L 19.09375 10.015625 
L 19.09375 0 
z
" id="ArialMT-2e"/>
    </defs>
    <g style="fill:#262626;" transform="translate(51.46 21.48)scale(0.132 -0.132)">
     <use transform="translate(0 0.09375)" xlink:href="#DejaVuSans-394"/>
     <use transform="translate(68.408203 0.09375)" xlink:href="#ArialMT-20"/>
     <use transform="translate(96.191406 0.09375)" xlink:href="#ArialMT-61"/>
     <use transform="translate(151.806641 0.09375)" xlink:href="#ArialMT-72"/>
     <use transform="translate(185.107422 0.09375)" xlink:href="#ArialMT-65"/>
     <use transform="translate(240.722656 0.09375)" xlink:href="#ArialMT-61"/>
     <use transform="translate(296.337891 0.09375)" xlink:href="#ArialMT-20"/>
     <use transform="translate(324.121094 0.09375)" xlink:href="#ArialMT-3a"/>
     <use transform="translate(351.904297 0.09375)" xlink:href="#ArialMT-20"/>
     <use transform="translate(379.6875 0.09375)" xlink:href="#ArialMT-33"/>
     <use transform="translate(435.302734 0.09375)" xlink:href="#ArialMT-2e"/>
     <use transform="translate(463.085938 0.09375)" xlink:href="#ArialMT-36"/>
     <use transform="translate(518.701172 0.09375)" xlink:href="#ArialMT-38"/>
    </g>
   </g>
  </g>
 </g>
 <defs>
  <clipPath id="p9b12f2fed2">
   <rect height="74.44" width="82.06" x="48.38" y="27.48"/>
  </clipPath>
 </defs>
</svg>
