<?xml version="1.0" encoding="utf-8" standalone="no"?>
<!DOCTYPE svg PUBLIC "-//W3C//DTD SVG 1.1//EN"
  "http://www.w3.org/Graphics/SVG/1.1/DTD/svg11.dtd">
<!-- Created with matplotlib (http://matplotlib.org/) -->
<svg height="216pt" version="1.1" viewBox="0 0 216 216" width="216pt" xmlns="http://www.w3.org/2000/svg" xmlns:xlink="http://www.w3.org/1999/xlink">
 <defs>
  <style type="text/css">
*{stroke-linecap:butt;stroke-linejoin:round;}
  </style>
 </defs>
 <g id="figure_1">
  <g id="patch_1">
   <path d="M 0 216 
L 216 216 
L 216 0 
L 0 0 
z
" style="fill:#ffffff;"/>
  </g>
  <g id="axes_1">
   <g id="patch_2">
    <path d="M 38.96 175.96 
L 203.52 175.96 
L 203.52 25.44 
L 38.96 25.44 
z
" style="fill:#ffffff;"/>
   </g>
   <g id="matplotlib.axis_1">
    <g id="xtick_1">
     <g id="line2d_1">
      <defs>
       <path d="M 0 0 
L 0 3.5 
" id="mb2d7567342" style="stroke:#262626;stroke-width:0.8;"/>
      </defs>
      <g>
       <use style="fill:#262626;stroke:#262626;stroke-width:0.8;" x="46.44" xlink:href="#mb2d7567342" y="175.96"/>
      </g>
     </g>
     <g id="text_1">
      <!-- 2 -->
      <defs>
       <path d="M 50.34375 8.453125 
L 50.34375 0 
L 3.03125 0 
Q 2.9375 3.171875 4.046875 6.109375 
Q 5.859375 10.9375 9.828125 15.625 
Q 13.8125 20.3125 21.34375 26.46875 
Q 33.015625 36.03125 37.109375 41.625 
Q 41.21875 47.21875 41.21875 52.203125 
Q 41.21875 57.421875 37.46875 61 
Q 33.734375 64.59375 27.734375 64.59375 
Q 21.390625 64.59375 17.578125 60.78125 
Q 13.765625 56.984375 13.71875 50.25 
L 4.6875 51.171875 
Q 5.609375 61.28125 11.65625 66.578125 
Q 17.71875 71.875 27.9375 71.875 
Q 38.234375 71.875 44.234375 66.15625 
Q 50.25 60.453125 50.25 52 
Q 50.25 47.703125 48.484375 43.546875 
Q 46.734375 39.40625 42.65625 34.8125 
Q 38.578125 30.21875 29.109375 22.21875 
Q 21.1875 15.578125 18.9375 13.203125 
Q 16.703125 10.84375 15.234375 8.453125 
z
" id="ArialMT-32"/>
      </defs>
      <g style="fill:#262626;" transform="translate(43.659531 190.117812)scale(0.1 -0.1)">
       <use xlink:href="#ArialMT-32"/>
      </g>
     </g>
    </g>
    <g id="xtick_2">
     <g id="line2d_2">
      <g>
       <use style="fill:#262626;stroke:#262626;stroke-width:0.8;" x="76.36" xlink:href="#mb2d7567342" y="175.96"/>
      </g>
     </g>
     <g id="text_2">
      <!-- 4 -->
      <defs>
       <path d="M 32.328125 0 
L 32.328125 17.140625 
L 1.265625 17.140625 
L 1.265625 25.203125 
L 33.9375 71.578125 
L 41.109375 71.578125 
L 41.109375 25.203125 
L 50.78125 25.203125 
L 50.78125 17.140625 
L 41.109375 17.140625 
L 41.109375 0 
z
M 32.328125 25.203125 
L 32.328125 57.46875 
L 9.90625 25.203125 
z
" id="ArialMT-34"/>
      </defs>
      <g style="fill:#262626;" transform="translate(73.579531 190.117812)scale(0.1 -0.1)">
       <use xlink:href="#ArialMT-34"/>
      </g>
     </g>
    </g>
    <g id="xtick_3">
     <g id="line2d_3">
      <g>
       <use style="fill:#262626;stroke:#262626;stroke-width:0.8;" x="106.28" xlink:href="#mb2d7567342" y="175.96"/>
      </g>
     </g>
     <g id="text_3">
      <!-- 6 -->
      <defs>
       <path d="M 49.75 54.046875 
L 41.015625 53.375 
Q 39.84375 58.546875 37.703125 60.890625 
Q 34.125 64.65625 28.90625 64.65625 
Q 24.703125 64.65625 21.53125 62.3125 
Q 17.390625 59.28125 14.984375 53.46875 
Q 12.59375 47.65625 12.5 36.921875 
Q 15.671875 41.75 20.265625 44.09375 
Q 24.859375 46.4375 29.890625 46.4375 
Q 38.671875 46.4375 44.84375 39.96875 
Q 51.03125 33.5 51.03125 23.25 
Q 51.03125 16.5 48.125 10.71875 
Q 45.21875 4.9375 40.140625 1.859375 
Q 35.0625 -1.21875 28.609375 -1.21875 
Q 17.625 -1.21875 10.6875 6.859375 
Q 3.765625 14.9375 3.765625 33.5 
Q 3.765625 54.25 11.421875 63.671875 
Q 18.109375 71.875 29.4375 71.875 
Q 37.890625 71.875 43.28125 67.140625 
Q 48.6875 62.40625 49.75 54.046875 
z
M 13.875 23.1875 
Q 13.875 18.65625 15.796875 14.5 
Q 17.71875 10.359375 21.1875 8.171875 
Q 24.65625 6 28.46875 6 
Q 34.03125 6 38.03125 10.484375 
Q 42.046875 14.984375 42.046875 22.703125 
Q 42.046875 30.125 38.078125 34.390625 
Q 34.125 38.671875 28.125 38.671875 
Q 22.171875 38.671875 18.015625 34.390625 
Q 13.875 30.125 13.875 23.1875 
z
" id="ArialMT-36"/>
      </defs>
      <g style="fill:#262626;" transform="translate(103.499531 190.117812)scale(0.1 -0.1)">
       <use xlink:href="#ArialMT-36"/>
      </g>
     </g>
    </g>
    <g id="xtick_4">
     <g id="line2d_4">
      <g>
       <use style="fill:#262626;stroke:#262626;stroke-width:0.8;" x="136.2" xlink:href="#mb2d7567342" y="175.96"/>
      </g>
     </g>
     <g id="text_4">
      <!-- 8 -->
      <defs>
       <path d="M 17.671875 38.8125 
Q 12.203125 40.828125 9.5625 44.53125 
Q 6.9375 48.25 6.9375 53.421875 
Q 6.9375 61.234375 12.546875 66.546875 
Q 18.171875 71.875 27.484375 71.875 
Q 36.859375 71.875 42.578125 66.421875 
Q 48.296875 60.984375 48.296875 53.171875 
Q 48.296875 48.1875 45.671875 44.5 
Q 43.0625 40.828125 37.75 38.8125 
Q 44.34375 36.671875 47.78125 31.875 
Q 51.21875 27.09375 51.21875 20.453125 
Q 51.21875 11.28125 44.71875 5.03125 
Q 38.234375 -1.21875 27.640625 -1.21875 
Q 17.046875 -1.21875 10.546875 5.046875 
Q 4.046875 11.328125 4.046875 20.703125 
Q 4.046875 27.6875 7.59375 32.390625 
Q 11.140625 37.109375 17.671875 38.8125 
z
M 15.921875 53.71875 
Q 15.921875 48.640625 19.1875 45.40625 
Q 22.46875 42.1875 27.6875 42.1875 
Q 32.765625 42.1875 36.015625 45.375 
Q 39.265625 48.578125 39.265625 53.21875 
Q 39.265625 58.0625 35.90625 61.359375 
Q 32.5625 64.65625 27.59375 64.65625 
Q 22.5625 64.65625 19.234375 61.421875 
Q 15.921875 58.203125 15.921875 53.71875 
z
M 13.09375 20.65625 
Q 13.09375 16.890625 14.875 13.375 
Q 16.65625 9.859375 20.171875 7.921875 
Q 23.6875 6 27.734375 6 
Q 34.03125 6 38.125 10.046875 
Q 42.234375 14.109375 42.234375 20.359375 
Q 42.234375 26.703125 38.015625 30.859375 
Q 33.796875 35.015625 27.4375 35.015625 
Q 21.234375 35.015625 17.15625 30.90625 
Q 13.09375 26.8125 13.09375 20.65625 
z
" id="ArialMT-38"/>
      </defs>
      <g style="fill:#262626;" transform="translate(133.419531 190.117812)scale(0.1 -0.1)">
       <use xlink:href="#ArialMT-38"/>
      </g>
     </g>
    </g>
    <g id="xtick_5">
     <g id="line2d_5">
      <g>
       <use style="fill:#262626;stroke:#262626;stroke-width:0.8;" x="166.12" xlink:href="#mb2d7567342" y="175.96"/>
      </g>
     </g>
     <g id="text_5">
      <!-- 10 -->
      <defs>
       <path d="M 37.25 0 
L 28.46875 0 
L 28.46875 56 
Q 25.296875 52.984375 20.140625 49.953125 
Q 14.984375 46.921875 10.890625 45.40625 
L 10.890625 53.90625 
Q 18.265625 57.375 23.78125 62.296875 
Q 29.296875 67.234375 31.59375 71.875 
L 37.25 71.875 
z
" id="ArialMT-31"/>
       <path d="M 4.15625 35.296875 
Q 4.15625 48 6.765625 55.734375 
Q 9.375 63.484375 14.515625 67.671875 
Q 19.671875 71.875 27.484375 71.875 
Q 33.25 71.875 37.59375 69.546875 
Q 41.9375 67.234375 44.765625 62.859375 
Q 47.609375 58.5 49.21875 52.21875 
Q 50.828125 45.953125 50.828125 35.296875 
Q 50.828125 22.703125 48.234375 14.96875 
Q 45.65625 7.234375 40.5 3 
Q 35.359375 -1.21875 27.484375 -1.21875 
Q 17.140625 -1.21875 11.234375 6.203125 
Q 4.15625 15.140625 4.15625 35.296875 
z
M 13.1875 35.296875 
Q 13.1875 17.671875 17.3125 11.828125 
Q 21.4375 6 27.484375 6 
Q 33.546875 6 37.671875 11.859375 
Q 41.796875 17.71875 41.796875 35.296875 
Q 41.796875 52.984375 37.671875 58.78125 
Q 33.546875 64.59375 27.390625 64.59375 
Q 21.34375 64.59375 17.71875 59.46875 
Q 13.1875 52.9375 13.1875 35.296875 
z
" id="ArialMT-30"/>
      </defs>
      <g style="fill:#262626;" transform="translate(160.559062 190.117812)scale(0.1 -0.1)">
       <use xlink:href="#ArialMT-31"/>
       <use x="55.615234" xlink:href="#ArialMT-30"/>
      </g>
     </g>
    </g>
    <g id="xtick_6">
     <g id="line2d_6">
      <g>
       <use style="fill:#262626;stroke:#262626;stroke-width:0.8;" x="196.04" xlink:href="#mb2d7567342" y="175.96"/>
      </g>
     </g>
     <g id="text_6">
      <!-- 12 -->
      <g style="fill:#262626;" transform="translate(190.479062 190.117812)scale(0.1 -0.1)">
       <use xlink:href="#ArialMT-31"/>
       <use x="55.615234" xlink:href="#ArialMT-32"/>
      </g>
     </g>
    </g>
    <g id="text_7">
     <!-- pH -->
     <defs>
      <path d="M 6.59375 -19.875 
L 6.59375 51.859375 
L 14.59375 51.859375 
L 14.59375 45.125 
Q 17.4375 49.078125 21 51.046875 
Q 24.5625 53.03125 29.640625 53.03125 
Q 36.28125 53.03125 41.359375 49.609375 
Q 46.4375 46.1875 49.015625 39.953125 
Q 51.609375 33.734375 51.609375 26.3125 
Q 51.609375 18.359375 48.75 11.984375 
Q 45.90625 5.609375 40.453125 2.21875 
Q 35.015625 -1.171875 29 -1.171875 
Q 24.609375 -1.171875 21.109375 0.6875 
Q 17.625 2.546875 15.375 5.375 
L 15.375 -19.875 
z
M 14.546875 25.640625 
Q 14.546875 15.625 18.59375 10.84375 
Q 22.65625 6.0625 28.421875 6.0625 
Q 34.28125 6.0625 38.453125 11.015625 
Q 42.625 15.96875 42.625 26.375 
Q 42.625 36.28125 38.546875 41.203125 
Q 34.46875 46.140625 28.8125 46.140625 
Q 23.1875 46.140625 18.859375 40.890625 
Q 14.546875 35.640625 14.546875 25.640625 
z
" id="ArialMT-70"/>
      <path d="M 8.015625 0 
L 8.015625 71.578125 
L 17.484375 71.578125 
L 17.484375 42.1875 
L 54.6875 42.1875 
L 54.6875 71.578125 
L 64.15625 71.578125 
L 64.15625 0 
L 54.6875 0 
L 54.6875 33.734375 
L 17.484375 33.734375 
L 17.484375 0 
z
" id="ArialMT-48"/>
     </defs>
     <g style="fill:#262626;" transform="translate(114.848594 203.263125)scale(0.1 -0.1)">
      <use xlink:href="#ArialMT-70"/>
      <use x="55.615234" xlink:href="#ArialMT-48"/>
     </g>
    </g>
   </g>
   <g id="matplotlib.axis_2">
    <g id="ytick_1">
     <g id="line2d_7">
      <defs>
       <path d="M 0 0 
L -3.5 0 
" id="mdebba098c2" style="stroke:#262626;stroke-width:0.8;"/>
      </defs>
      <g>
       <use style="fill:#262626;stroke:#262626;stroke-width:0.8;" x="38.96" xlink:href="#mdebba098c2" y="120.060269"/>
      </g>
     </g>
     <g id="text_8">
      <!-- 0 -->
      <g style="fill:#262626;" transform="translate(26.399063 123.639175)scale(0.1 -0.1)">
       <use xlink:href="#ArialMT-30"/>
      </g>
     </g>
    </g>
    <g id="ytick_2">
     <g id="line2d_8">
      <g>
       <use style="fill:#262626;stroke:#262626;stroke-width:0.8;" x="38.96" xlink:href="#mdebba098c2" y="51.373817"/>
      </g>
     </g>
     <g id="text_9">
      <!-- 1 -->
      <g style="fill:#262626;" transform="translate(26.399063 54.952723)scale(0.1 -0.1)">
       <use xlink:href="#ArialMT-31"/>
      </g>
     </g>
    </g>
    <g id="text_10">
     <!-- $\langle q_\mathsf{total} \rangle$ -->
     <defs>
      <path d="M 8.9375 31.34375 
L 22.703125 75.875 
L 31 75.875 
L 17.234375 31.34375 
L 31 -13.1875 
L 22.703125 -13.1875 
z
" id="DejaVuSans-27e8"/>
      <path d="M 41.703125 8.203125 
Q 38.09375 3.46875 33.171875 1.015625 
Q 28.265625 -1.421875 22.3125 -1.421875 
Q 14.015625 -1.421875 9.296875 4.171875 
Q 4.59375 9.765625 4.59375 19.578125 
Q 4.59375 27.484375 7.5 34.859375 
Q 10.40625 42.234375 15.828125 48.09375 
Q 19.34375 51.90625 23.90625 53.953125 
Q 28.46875 56 33.5 56 
Q 39.546875 56 43.453125 53.609375 
Q 47.359375 51.21875 49.125 46.390625 
L 50.6875 54.59375 
L 59.71875 54.59375 
L 45.125 -20.609375 
L 36.078125 -20.609375 
z
M 13.921875 20.90625 
Q 13.921875 13.671875 16.9375 9.890625 
Q 19.96875 6.109375 25.6875 6.109375 
Q 34.1875 6.109375 40.1875 14.234375 
Q 46.1875 22.359375 46.1875 33.984375 
Q 46.1875 41.015625 43.078125 44.75 
Q 39.984375 48.484375 34.1875 48.484375 
Q 29.9375 48.484375 26.3125 46.5 
Q 22.703125 44.53125 20.015625 40.71875 
Q 17.1875 36.71875 15.546875 31.34375 
Q 13.921875 25.984375 13.921875 20.90625 
z
" id="DejaVuSans-Oblique-71"/>
      <path d="M 18.3125 70.21875 
L 18.3125 54.6875 
L 36.8125 54.6875 
L 36.8125 47.703125 
L 18.3125 47.703125 
L 18.3125 18.015625 
Q 18.3125 11.328125 20.140625 9.421875 
Q 21.96875 7.515625 27.59375 7.515625 
L 36.8125 7.515625 
L 36.8125 0 
L 27.59375 0 
Q 17.1875 0 13.234375 3.875 
Q 9.28125 7.765625 9.28125 18.015625 
L 9.28125 47.703125 
L 2.6875 47.703125 
L 2.6875 54.6875 
L 9.28125 54.6875 
L 9.28125 70.21875 
z
" id="DejaVuSans-74"/>
      <path d="M 30.609375 48.390625 
Q 23.390625 48.390625 19.1875 42.75 
Q 14.984375 37.109375 14.984375 27.296875 
Q 14.984375 17.484375 19.15625 11.84375 
Q 23.34375 6.203125 30.609375 6.203125 
Q 37.796875 6.203125 41.984375 11.859375 
Q 46.1875 17.53125 46.1875 27.296875 
Q 46.1875 37.015625 41.984375 42.703125 
Q 37.796875 48.390625 30.609375 48.390625 
z
M 30.609375 56 
Q 42.328125 56 49.015625 48.375 
Q 55.71875 40.765625 55.71875 27.296875 
Q 55.71875 13.875 49.015625 6.21875 
Q 42.328125 -1.421875 30.609375 -1.421875 
Q 18.84375 -1.421875 12.171875 6.21875 
Q 5.515625 13.875 5.515625 27.296875 
Q 5.515625 40.765625 12.171875 48.375 
Q 18.84375 56 30.609375 56 
z
" id="DejaVuSans-6f"/>
      <path d="M 34.28125 27.484375 
Q 23.390625 27.484375 19.1875 25 
Q 14.984375 22.515625 14.984375 16.5 
Q 14.984375 11.71875 18.140625 8.90625 
Q 21.296875 6.109375 26.703125 6.109375 
Q 34.1875 6.109375 38.703125 11.40625 
Q 43.21875 16.703125 43.21875 25.484375 
L 43.21875 27.484375 
z
M 52.203125 31.203125 
L 52.203125 0 
L 43.21875 0 
L 43.21875 8.296875 
Q 40.140625 3.328125 35.546875 0.953125 
Q 30.953125 -1.421875 24.3125 -1.421875 
Q 15.921875 -1.421875 10.953125 3.296875 
Q 6 8.015625 6 15.921875 
Q 6 25.140625 12.171875 29.828125 
Q 18.359375 34.515625 30.609375 34.515625 
L 43.21875 34.515625 
L 43.21875 35.40625 
Q 43.21875 41.609375 39.140625 45 
Q 35.0625 48.390625 27.6875 48.390625 
Q 23 48.390625 18.546875 47.265625 
Q 14.109375 46.140625 10.015625 43.890625 
L 10.015625 52.203125 
Q 14.9375 54.109375 19.578125 55.046875 
Q 24.21875 56 28.609375 56 
Q 40.484375 56 46.34375 49.84375 
Q 52.203125 43.703125 52.203125 31.203125 
z
" id="DejaVuSans-61"/>
      <path d="M 9.421875 75.984375 
L 18.40625 75.984375 
L 18.40625 0 
L 9.421875 0 
z
" id="DejaVuSans-6c"/>
      <path d="M 30.078125 31.34375 
L 16.3125 -13.1875 
L 8.015625 -13.1875 
L 21.78125 31.34375 
L 8.015625 75.875 
L 16.3125 75.875 
z
" id="DejaVuSans-27e9"/>
     </defs>
     <g style="fill:#262626;" transform="translate(20.299063 115.95)rotate(-90)scale(0.1 -0.1)">
      <use transform="translate(0 0.125)" xlink:href="#DejaVuSans-27e8"/>
      <use transform="translate(39.013672 0.125)" xlink:href="#DejaVuSans-Oblique-71"/>
      <use transform="translate(102.490234 -16.28125)scale(0.7)" xlink:href="#DejaVuSans-74"/>
      <use transform="translate(129.936523 -16.28125)scale(0.7)" xlink:href="#DejaVuSans-6f"/>
      <use transform="translate(172.763672 -16.28125)scale(0.7)" xlink:href="#DejaVuSans-74"/>
      <use transform="translate(200.209961 -16.28125)scale(0.7)" xlink:href="#DejaVuSans-61"/>
      <use transform="translate(243.105469 -16.28125)scale(0.7)" xlink:href="#DejaVuSans-6c"/>
      <use transform="translate(265.288086 0.125)" xlink:href="#DejaVuSans-27e9"/>
     </g>
    </g>
   </g>
   <g id="PolyCollection_1">
    <defs>
     <path d="M 46.44 -175.786447 
L 46.44 -153.419662 
L 47.936 -153.430705 
L 49.432 -153.435102 
L 50.928 -153.432571 
L 52.424 -153.422215 
L 53.92 -153.402343 
L 55.416 -153.37022 
L 56.912 -153.321761 
L 58.408 -153.251144 
L 59.904 -153.15039 
L 61.4 -153.008918 
L 62.896 -152.813152 
L 64.392 -152.546249 
L 65.888 -152.188072 
L 67.384 -151.715482 
L 68.88 -151.103038 
L 70.376 -150.324074 
L 71.872 -149.352063 
L 73.368 -148.162085 
L 74.864 -146.73216 
L 76.36 -145.044301 
L 77.856 -143.085153 
L 79.352 -140.846241 
L 80.848 -138.323887 
L 82.344 -135.518945 
L 83.84 -132.436573 
L 85.336 -129.086294 
L 86.832 -125.482638 
L 88.328 -121.646602 
L 89.824 -117.60799 
L 91.32 -113.408409 
L 92.816 -109.104278 
L 94.312 -104.768821 
L 95.808 -100.49183 
L 97.304 -96.376211 
L 98.8 -92.531027 
L 100.296 -89.061821 
L 101.792 -86.059973 
L 103.288 -83.593294 
L 104.784 -81.699797 
L 106.28 -80.385587 
L 107.776 -79.626761 
L 109.272 -79.374261 
L 110.768 -79.560312 
L 112.264 -80.105073 
L 113.76 -80.922512 
L 115.256 -81.924945 
L 116.752 -83.026126 
L 118.248 -84.143146 
L 119.744 -85.197893 
L 121.24 -86.119251 
L 122.736 -86.847618 
L 124.232 -87.342526 
L 125.728 -87.591261 
L 127.224 -87.612516 
L 128.72 -87.449943 
L 130.216 -87.157969 
L 131.712 -86.787998 
L 133.208 -86.380639 
L 134.704 -85.963894 
L 136.2 -85.554666 
L 137.696 -85.161248 
L 139.192 -84.785688 
L 140.688 -84.425652 
L 142.184 -84.075827 
L 143.68 -83.728976 
L 145.176 -83.376759 
L 146.672 -83.010409 
L 148.168 -82.621294 
L 149.664 -82.201371 
L 151.16 -81.743531 
L 152.656 -81.241825 
L 154.152 -80.691579 
L 155.648 -80.089406 
L 157.144 -79.433113 
L 158.64 -78.721529 
L 160.136 -77.954271 
L 161.632 -77.131502 
L 163.128 -76.253747 
L 164.624 -75.321832 
L 166.12 -74.33693 
L 167.616 -73.300695 
L 169.112 -72.215385 
L 170.608 -71.083889 
L 172.104 -69.909624 
L 173.6 -68.696315 
L 175.096 -67.447691 
L 176.592 -66.167189 
L 178.088 -64.857698 
L 179.584 -63.521397 
L 181.08 -62.159682 
L 182.576 -60.773171 
L 184.072 -59.361742 
L 185.568 -57.924565 
L 187.064 -56.460086 
L 188.56 -54.965937 
L 190.056 -53.438768 
L 191.552 -51.873982 
L 193.048 -50.265405 
L 194.544 -48.604883 
L 196.04 -46.881818 
L 196.04 -139.989888 
L 196.04 -139.989888 
L 194.544 -139.266746 
L 193.048 -138.411327 
L 191.552 -137.449233 
L 190.056 -136.402431 
L 188.56 -135.289565 
L 187.064 -134.126334 
L 185.568 -132.925879 
L 184.072 -131.699173 
L 182.576 -130.455416 
L 181.08 -129.202416 
L 179.584 -127.946976 
L 178.088 -126.695257 
L 176.592 -125.453088 
L 175.096 -124.226186 
L 173.6 -123.020264 
L 172.104 -121.841013 
L 170.608 -120.693968 
L 169.112 -119.584292 
L 167.616 -118.516562 
L 166.12 -117.4946 
L 164.624 -116.521421 
L 163.128 -115.599302 
L 161.632 -114.729939 
L 160.136 -113.914602 
L 158.64 -113.154213 
L 157.144 -112.449301 
L 155.648 -111.799835 
L 154.152 -111.205011 
L 152.656 -110.663025 
L 151.16 -110.17093 
L 149.664 -109.724563 
L 148.168 -109.318584 
L 146.672 -108.946626 
L 145.176 -108.601556 
L 143.68 -108.275872 
L 142.184 -107.962212 
L 140.688 -107.653993 
L 139.192 -107.346175 
L 137.696 -107.036198 
L 136.2 -106.725178 
L 134.704 -106.419479 
L 133.208 -106.132799 
L 131.712 -105.88879 
L 130.216 -105.723882 
L 128.72 -105.689167 
L 127.224 -105.849068 
L 125.728 -106.274113 
L 124.232 -107.027774 
L 122.736 -108.153007 
L 121.24 -109.666571 
L 119.744 -111.563465 
L 118.248 -113.82624 
L 116.752 -116.433106 
L 115.256 -119.362485 
L 113.76 -122.594526 
L 112.264 -126.110768 
L 110.768 -129.89272 
L 109.272 -133.9197 
L 107.776 -138.166027 
L 106.28 -142.597639 
L 104.784 -147.168498 
L 103.288 -151.817442 
L 101.792 -156.46656 
L 100.296 -161.022232 
L 98.8 -165.379647 
L 97.304 -169.430752 
L 95.808 -173.074494 
L 94.312 -176.227336 
L 92.816 -178.831793 
L 91.32 -180.861306 
L 89.824 -182.32084 
L 88.328 -183.243695 
L 86.832 -183.685696 
L 85.336 -183.718182 
L 83.84 -183.420916 
L 82.344 -182.875747 
L 80.848 -182.161407 
L 79.352 -181.34957 
L 77.856 -180.502143 
L 76.36 -179.66965 
L 74.864 -178.890554 
L 73.368 -178.191397 
L 71.872 -177.587605 
L 70.376 -177.084874 
L 68.88 -176.681004 
L 67.384 -176.367993 
L 65.888 -176.134196 
L 64.392 -175.966299 
L 62.896 -175.850924 
L 61.4 -175.775764 
L 59.904 -175.730252 
L 58.408 -175.705826 
L 56.912 -175.695909 
L 55.416 -175.695715 
L 53.92 -175.701972 
L 52.424 -175.71262 
L 50.928 -175.726543 
L 49.432 -175.743335 
L 47.936 -175.763125 
L 46.44 -175.786447 
z
" id="m454d3e2fc9" style="stroke:#ffffff;stroke-opacity:0.05;"/>
    </defs>
    <g clip-path="url(#p9a3d0effa0)">
     <use style="fill:#591e71;fill-opacity:0.05;stroke:#ffffff;stroke-opacity:0.05;" x="0" xlink:href="#m454d3e2fc9" y="216"/>
    </g>
   </g>
   <g id="line2d_9">
    <path clip-path="url(#p9a3d0effa0)" d="M 46.44 51.396946 
L 47.936 51.403085 
L 49.432 51.410782 
L 50.928 51.420443 
L 52.424 51.432582 
L 53.92 51.447843 
L 55.416 51.467032 
L 56.912 51.491165 
L 58.408 51.521515 
L 59.904 51.559679 
L 61.4 51.607659 
L 62.896 51.667962 
L 64.392 51.743726 
L 65.888 51.838866 
L 67.384 51.958262 
L 68.88 52.107979 
L 70.376 52.295526 
L 71.872 52.530166 
L 73.368 52.823259 
L 74.864 53.188643 
L 76.36 53.643025 
L 77.856 54.206352 
L 79.352 54.902094 
L 80.848 55.757353 
L 82.344 56.802654 
L 83.84 58.071256 
L 85.336 59.597762 
L 86.832 61.415833 
L 88.328 63.554852 
L 89.824 66.035585 
L 91.32 68.865143 
L 92.816 72.031965 
L 94.312 75.501921 
L 95.808 79.216838 
L 97.304 83.096518 
L 98.8 87.044663 
L 100.296 90.957973 
L 101.792 94.736734 
L 103.288 98.294632 
L 104.784 101.565853 
L 106.28 104.508387 
L 107.776 107.103606 
L 109.272 109.35302 
L 110.768 111.273484 
L 112.264 112.892079 
L 113.76 114.241481 
L 115.256 115.356285 
L 116.752 116.270384 
L 118.248 117.015307 
L 119.744 117.619321 
L 121.24 118.107089 
L 122.736 118.499687 
L 124.232 118.81485 
L 125.728 119.067313 
L 127.224 119.269208 
L 128.72 119.430445 
L 130.216 119.559075 
L 131.712 119.661606 
L 133.208 119.743281 
L 134.704 119.808313 
L 136.2 119.860078 
L 137.696 119.901277 
L 139.192 119.934069 
L 140.688 119.960178 
L 142.184 119.98098 
L 143.68 119.997576 
L 145.176 120.010842 
L 146.672 120.021483 
L 148.168 120.030061 
L 149.664 120.037033 
L 151.16 120.04277 
L 152.656 120.047575 
L 154.152 120.051705 
L 155.648 120.055379 
L 157.144 120.058793 
L 158.64 120.062129 
L 160.136 120.065563 
L 161.632 120.06928 
L 163.128 120.073475 
L 164.624 120.078374 
L 166.12 120.084235 
L 167.616 120.091371 
L 169.112 120.100161 
L 170.608 120.111072 
L 172.104 120.124681 
L 173.6 120.141711 
L 175.096 120.163062 
L 176.592 120.189861 
L 178.088 120.223522 
L 179.584 120.265814 
L 181.08 120.318951 
L 182.576 120.385706 
L 184.072 120.469542 
L 185.568 120.574778 
L 187.064 120.70679 
L 188.56 120.872249 
L 190.056 121.079401 
L 191.552 121.338392 
L 193.048 121.661634 
L 194.544 122.064185 
L 196.04 122.564147 
" style="fill:none;opacity:0.9;stroke:#591e71;stroke-linecap:round;stroke-width:1.5;"/>
   </g>
   <g id="line2d_10">
    <path clip-path="url(#p9a3d0effa0)" d="M 46.44 51.385479 
L 47.936 51.388498 
L 49.432 51.392299 
L 50.928 51.397083 
L 52.424 51.403104 
L 53.92 51.410684 
L 55.416 51.420223 
L 56.912 51.432229 
L 58.408 51.447337 
L 59.904 51.466347 
L 61.4 51.490265 
L 62.896 51.520352 
L 64.392 51.558192 
L 65.888 51.605771 
L 67.384 51.665574 
L 68.88 51.740714 
L 70.376 51.835076 
L 71.872 51.953499 
L 73.368 52.102003 
L 74.864 52.288039 
L 76.36 52.520801 
L 77.856 52.811568 
L 79.352 53.174082 
L 80.848 53.624939 
L 82.344 54.183965 
L 83.84 54.8745 
L 85.336 55.723515 
L 86.832 56.761422 
L 88.328 58.021401 
L 89.824 59.538041 
L 91.32 61.345085 
L 92.816 63.472143 
L 94.312 65.940375 
L 95.808 68.75747 
L 97.304 71.912618 
L 98.8 75.372545 
L 100.296 79.079928 
L 101.792 82.955282 
L 103.288 86.902744 
L 104.784 90.819087 
L 106.28 94.604283 
L 107.776 98.171396 
L 109.272 101.453793 
L 110.768 104.408596 
L 112.264 107.016379 
L 113.76 109.278005 
L 115.256 111.209868 
L 116.752 112.838767 
L 118.248 114.197245 
L 119.744 115.319882 
L 121.24 116.240628 
L 122.736 116.991117 
L 124.232 117.599743 
L 125.728 118.091297 
L 127.224 118.486983 
L 128.72 118.804648 
L 130.216 119.05913 
L 131.712 119.262645 
L 133.208 119.425177 
L 134.704 119.554836 
L 136.2 119.658181 
L 137.696 119.740494 
L 139.192 119.806019 
L 140.688 119.858157 
L 142.184 119.899629 
L 143.68 119.932607 
L 145.176 119.958824 
L 146.672 119.979664 
L 148.168 119.996227 
L 149.664 120.009389 
L 151.16 120.019847 
L 152.656 120.028157 
L 154.152 120.034759 
L 155.648 120.040004 
L 157.144 120.044171 
L 158.64 120.047481 
L 160.136 120.050111 
L 161.632 120.0522 
L 163.128 120.053859 
L 164.624 120.055178 
L 166.12 120.056225 
L 167.616 120.057056 
L 169.112 120.057717 
L 170.608 120.058242 
L 172.104 120.058659 
L 173.6 120.05899 
L 175.096 120.059253 
L 176.592 120.059462 
L 178.088 120.059628 
L 179.584 120.05976 
L 181.08 120.059865 
L 182.576 120.059948 
L 184.072 120.060014 
L 185.568 120.060066 
L 187.064 120.060108 
L 188.56 120.060141 
L 190.056 120.060167 
L 191.552 120.060188 
L 193.048 120.060205 
L 194.544 120.060218 
L 196.04 120.060229 
" style="fill:none;opacity:0.7;stroke:#000000;stroke-linecap:round;stroke-width:1.5;"/>
   </g>
   <g id="line2d_11">
    <path clip-path="url(#p9a3d0effa0)" d="M 46.44 40.213553 
L 47.936 40.236875 
L 49.432 40.256665 
L 50.928 40.273457 
L 52.424 40.28738 
L 53.92 40.298028 
L 55.416 40.304285 
L 56.912 40.304091 
L 58.408 40.294174 
L 59.904 40.269748 
L 61.4 40.224236 
L 62.896 40.149076 
L 64.392 40.033701 
L 65.888 39.865804 
L 67.384 39.632007 
L 68.88 39.318996 
L 70.376 38.915126 
L 71.872 38.412395 
L 73.368 37.808603 
L 74.864 37.109446 
L 76.36 36.33035 
L 77.856 35.497857 
L 79.352 34.65043 
L 80.848 33.838593 
L 82.344 33.124253 
L 83.84 32.579084 
L 85.336 32.281818 
L 86.832 32.314304 
L 88.328 32.756305 
L 89.824 33.67916 
L 91.32 35.138694 
L 92.816 37.168207 
L 94.312 39.772664 
L 95.808 42.925506 
L 97.304 46.569248 
L 98.8 50.620353 
L 100.296 54.977768 
L 101.792 59.53344 
L 103.288 64.182558 
L 104.784 68.831502 
L 106.28 73.402361 
L 107.776 77.833973 
L 109.272 82.0803 
L 110.768 86.10728 
L 112.264 89.889232 
L 113.76 93.405474 
L 115.256 96.637515 
L 116.752 99.566894 
L 118.248 102.17376 
L 119.744 104.436535 
L 121.24 106.333429 
L 122.736 107.846993 
L 124.232 108.972226 
L 125.728 109.725887 
L 127.224 110.150932 
L 128.72 110.310833 
L 130.216 110.276118 
L 131.712 110.11121 
L 133.208 109.867201 
L 134.704 109.580521 
L 136.2 109.274822 
L 137.696 108.963802 
L 139.192 108.653825 
L 140.688 108.346007 
L 142.184 108.037788 
L 143.68 107.724128 
L 145.176 107.398444 
L 146.672 107.053374 
L 148.168 106.681416 
L 149.664 106.275437 
L 151.16 105.82907 
L 152.656 105.336975 
L 154.152 104.794989 
L 155.648 104.200165 
L 157.144 103.550699 
L 158.64 102.845787 
L 160.136 102.085398 
L 161.632 101.270061 
L 163.128 100.400698 
L 164.624 99.478579 
L 166.12 98.5054 
L 167.616 97.483438 
L 169.112 96.415708 
L 170.608 95.306032 
L 172.104 94.158987 
L 173.6 92.979736 
L 175.096 91.773814 
L 176.592 90.546912 
L 178.088 89.304743 
L 179.584 88.053024 
L 181.08 86.797584 
L 182.576 85.544584 
L 184.072 84.300827 
L 185.568 83.074121 
L 187.064 81.873666 
L 188.56 80.710435 
L 190.056 79.597569 
L 191.552 78.550767 
L 193.048 77.588673 
L 194.544 76.733254 
L 196.04 76.010112 
" style="fill:none;opacity:0.45;stroke:#591e71;stroke-dasharray:2.775,1.2;stroke-dashoffset:0;stroke-width:0.75;"/>
   </g>
   <g id="line2d_12">
    <path clip-path="url(#p9a3d0effa0)" d="M 46.44 62.580338 
L 47.936 62.569295 
L 49.432 62.564898 
L 50.928 62.567429 
L 52.424 62.577785 
L 53.92 62.597657 
L 55.416 62.62978 
L 56.912 62.678239 
L 58.408 62.748856 
L 59.904 62.84961 
L 61.4 62.991082 
L 62.896 63.186848 
L 64.392 63.453751 
L 65.888 63.811928 
L 67.384 64.284518 
L 68.88 64.896962 
L 70.376 65.675926 
L 71.872 66.647937 
L 73.368 67.837915 
L 74.864 69.26784 
L 76.36 70.955699 
L 77.856 72.914847 
L 79.352 75.153759 
L 80.848 77.676113 
L 82.344 80.481055 
L 83.84 83.563427 
L 85.336 86.913706 
L 86.832 90.517362 
L 88.328 94.353398 
L 89.824 98.39201 
L 91.32 102.591591 
L 92.816 106.895722 
L 94.312 111.231179 
L 95.808 115.50817 
L 97.304 119.623789 
L 98.8 123.468973 
L 100.296 126.938179 
L 101.792 129.940027 
L 103.288 132.406706 
L 104.784 134.300203 
L 106.28 135.614413 
L 107.776 136.373239 
L 109.272 136.625739 
L 110.768 136.439688 
L 112.264 135.894927 
L 113.76 135.077488 
L 115.256 134.075055 
L 116.752 132.973874 
L 118.248 131.856854 
L 119.744 130.802107 
L 121.24 129.880749 
L 122.736 129.152382 
L 124.232 128.657474 
L 125.728 128.408739 
L 127.224 128.387484 
L 128.72 128.550057 
L 130.216 128.842031 
L 131.712 129.212002 
L 133.208 129.619361 
L 134.704 130.036106 
L 136.2 130.445334 
L 137.696 130.838752 
L 139.192 131.214312 
L 140.688 131.574348 
L 142.184 131.924173 
L 143.68 132.271024 
L 145.176 132.623241 
L 146.672 132.989591 
L 148.168 133.378706 
L 149.664 133.798629 
L 151.16 134.256469 
L 152.656 134.758175 
L 154.152 135.308421 
L 155.648 135.910594 
L 157.144 136.566887 
L 158.64 137.278471 
L 160.136 138.045729 
L 161.632 138.868498 
L 163.128 139.746253 
L 164.624 140.678168 
L 166.12 141.66307 
L 167.616 142.699305 
L 169.112 143.784615 
L 170.608 144.916111 
L 172.104 146.090376 
L 173.6 147.303685 
L 175.096 148.552309 
L 176.592 149.832811 
L 178.088 151.142302 
L 179.584 152.478603 
L 181.08 153.840318 
L 182.576 155.226829 
L 184.072 156.638258 
L 185.568 158.075435 
L 187.064 159.539914 
L 188.56 161.034063 
L 190.056 162.561232 
L 191.552 164.126018 
L 193.048 165.734595 
L 194.544 167.395117 
L 196.04 169.118182 
" style="fill:none;opacity:0.45;stroke:#591e71;stroke-dasharray:2.775,1.2;stroke-dashoffset:0;stroke-width:0.75;"/>
   </g>
   <g id="patch_3">
    <path d="M 38.96 175.96 
L 38.96 25.44 
" style="fill:none;stroke:#262626;stroke-linecap:square;stroke-linejoin:miter;stroke-width:0.8;"/>
   </g>
   <g id="patch_4">
    <path d="M 38.96 175.96 
L 203.52 175.96 
" style="fill:none;stroke:#262626;stroke-linecap:square;stroke-linejoin:miter;stroke-width:0.8;"/>
   </g>
   <g id="text_11">
    <!-- Jaguar-macro SM13 -->
    <defs>
     <path d="M 2.875 20.3125 
L 11.421875 21.484375 
Q 11.765625 13.28125 14.5 10.25 
Q 17.234375 7.234375 22.078125 7.234375 
Q 25.640625 7.234375 28.21875 8.859375 
Q 30.8125 10.5 31.78125 13.296875 
Q 32.765625 16.109375 32.765625 22.265625 
L 32.765625 71.578125 
L 42.234375 71.578125 
L 42.234375 22.796875 
Q 42.234375 13.8125 40.0625 8.875 
Q 37.890625 3.953125 33.171875 1.359375 
Q 28.46875 -1.21875 22.125 -1.21875 
Q 12.703125 -1.21875 7.6875 4.203125 
Q 2.6875 9.625 2.875 20.3125 
z
" id="ArialMT-4a"/>
     <path d="M 40.4375 6.390625 
Q 35.546875 2.25 31.03125 0.53125 
Q 26.515625 -1.171875 21.34375 -1.171875 
Q 12.796875 -1.171875 8.203125 3 
Q 3.609375 7.171875 3.609375 13.671875 
Q 3.609375 17.484375 5.34375 20.625 
Q 7.078125 23.78125 9.890625 25.6875 
Q 12.703125 27.59375 16.21875 28.5625 
Q 18.796875 29.25 24.03125 29.890625 
Q 34.671875 31.15625 39.703125 32.90625 
Q 39.75 34.71875 39.75 35.203125 
Q 39.75 40.578125 37.25 42.78125 
Q 33.890625 45.75 27.25 45.75 
Q 21.046875 45.75 18.09375 43.578125 
Q 15.140625 41.40625 13.71875 35.890625 
L 5.125 37.0625 
Q 6.296875 42.578125 8.984375 45.96875 
Q 11.671875 49.359375 16.75 51.1875 
Q 21.828125 53.03125 28.515625 53.03125 
Q 35.15625 53.03125 39.296875 51.46875 
Q 43.453125 49.90625 45.40625 47.53125 
Q 47.359375 45.171875 48.140625 41.546875 
Q 48.578125 39.3125 48.578125 33.453125 
L 48.578125 21.734375 
Q 48.578125 9.46875 49.140625 6.21875 
Q 49.703125 2.984375 51.375 0 
L 42.1875 0 
Q 40.828125 2.734375 40.4375 6.390625 
z
M 39.703125 26.03125 
Q 34.90625 24.078125 25.34375 22.703125 
Q 19.921875 21.921875 17.671875 20.9375 
Q 15.4375 19.96875 14.203125 18.09375 
Q 12.984375 16.21875 12.984375 13.921875 
Q 12.984375 10.40625 15.640625 8.0625 
Q 18.3125 5.71875 23.4375 5.71875 
Q 28.515625 5.71875 32.46875 7.9375 
Q 36.421875 10.15625 38.28125 14.015625 
Q 39.703125 17 39.703125 22.796875 
z
" id="ArialMT-61"/>
     <path d="M 4.984375 -4.296875 
L 13.53125 -5.5625 
Q 14.0625 -9.515625 16.5 -11.328125 
Q 19.78125 -13.765625 25.4375 -13.765625 
Q 31.546875 -13.765625 34.859375 -11.328125 
Q 38.1875 -8.890625 39.359375 -4.5 
Q 40.046875 -1.8125 39.984375 6.78125 
Q 34.234375 0 25.640625 0 
Q 14.9375 0 9.078125 7.71875 
Q 3.21875 15.4375 3.21875 26.21875 
Q 3.21875 33.640625 5.90625 39.90625 
Q 8.59375 46.1875 13.6875 49.609375 
Q 18.796875 53.03125 25.6875 53.03125 
Q 34.859375 53.03125 40.828125 45.609375 
L 40.828125 51.859375 
L 48.921875 51.859375 
L 48.921875 7.03125 
Q 48.921875 -5.078125 46.453125 -10.125 
Q 44 -15.1875 38.640625 -18.109375 
Q 33.296875 -21.046875 25.484375 -21.046875 
Q 16.21875 -21.046875 10.5 -16.875 
Q 4.78125 -12.703125 4.984375 -4.296875 
z
M 12.25 26.859375 
Q 12.25 16.65625 16.296875 11.96875 
Q 20.359375 7.28125 26.46875 7.28125 
Q 32.515625 7.28125 36.609375 11.9375 
Q 40.71875 16.609375 40.71875 26.5625 
Q 40.71875 36.078125 36.5 40.90625 
Q 32.28125 45.75 26.3125 45.75 
Q 20.453125 45.75 16.34375 40.984375 
Q 12.25 36.234375 12.25 26.859375 
z
" id="ArialMT-67"/>
     <path d="M 40.578125 0 
L 40.578125 7.625 
Q 34.515625 -1.171875 24.125 -1.171875 
Q 19.53125 -1.171875 15.546875 0.578125 
Q 11.578125 2.34375 9.640625 5 
Q 7.71875 7.671875 6.9375 11.53125 
Q 6.390625 14.109375 6.390625 19.734375 
L 6.390625 51.859375 
L 15.1875 51.859375 
L 15.1875 23.09375 
Q 15.1875 16.21875 15.71875 13.8125 
Q 16.546875 10.359375 19.234375 8.375 
Q 21.921875 6.390625 25.875 6.390625 
Q 29.828125 6.390625 33.296875 8.421875 
Q 36.765625 10.453125 38.203125 13.9375 
Q 39.65625 17.4375 39.65625 24.078125 
L 39.65625 51.859375 
L 48.4375 51.859375 
L 48.4375 0 
z
" id="ArialMT-75"/>
     <path d="M 6.5 0 
L 6.5 51.859375 
L 14.40625 51.859375 
L 14.40625 44 
Q 17.4375 49.515625 20 51.265625 
Q 22.5625 53.03125 25.640625 53.03125 
Q 30.078125 53.03125 34.671875 50.203125 
L 31.640625 42.046875 
Q 28.421875 43.953125 25.203125 43.953125 
Q 22.3125 43.953125 20.015625 42.21875 
Q 17.71875 40.484375 16.75 37.40625 
Q 15.28125 32.71875 15.28125 27.15625 
L 15.28125 0 
z
" id="ArialMT-72"/>
     <path d="M 3.171875 21.484375 
L 3.171875 30.328125 
L 30.171875 30.328125 
L 30.171875 21.484375 
z
" id="ArialMT-2d"/>
     <path d="M 6.59375 0 
L 6.59375 51.859375 
L 14.453125 51.859375 
L 14.453125 44.578125 
Q 16.890625 48.390625 20.9375 50.703125 
Q 25 53.03125 30.171875 53.03125 
Q 35.9375 53.03125 39.625 50.640625 
Q 43.3125 48.25 44.828125 43.953125 
Q 50.984375 53.03125 60.84375 53.03125 
Q 68.5625 53.03125 72.703125 48.75 
Q 76.859375 44.484375 76.859375 35.59375 
L 76.859375 0 
L 68.109375 0 
L 68.109375 32.671875 
Q 68.109375 37.9375 67.25 40.25 
Q 66.40625 42.578125 64.15625 43.984375 
Q 61.921875 45.40625 58.890625 45.40625 
Q 53.421875 45.40625 49.796875 41.765625 
Q 46.1875 38.140625 46.1875 30.125 
L 46.1875 0 
L 37.40625 0 
L 37.40625 33.6875 
Q 37.40625 39.546875 35.25 42.46875 
Q 33.109375 45.40625 28.21875 45.40625 
Q 24.515625 45.40625 21.359375 43.453125 
Q 18.21875 41.5 16.796875 37.734375 
Q 15.375 33.984375 15.375 26.90625 
L 15.375 0 
z
" id="ArialMT-6d"/>
     <path d="M 40.4375 19 
L 49.078125 17.875 
Q 47.65625 8.9375 41.8125 3.875 
Q 35.984375 -1.171875 27.484375 -1.171875 
Q 16.84375 -1.171875 10.375 5.78125 
Q 3.90625 12.75 3.90625 25.734375 
Q 3.90625 34.125 6.6875 40.421875 
Q 9.46875 46.734375 15.15625 49.875 
Q 20.84375 53.03125 27.546875 53.03125 
Q 35.984375 53.03125 41.359375 48.75 
Q 46.734375 44.484375 48.25 36.625 
L 39.703125 35.296875 
Q 38.484375 40.53125 35.375 43.15625 
Q 32.28125 45.796875 27.875 45.796875 
Q 21.234375 45.796875 17.078125 41.03125 
Q 12.9375 36.28125 12.9375 25.984375 
Q 12.9375 15.53125 16.9375 10.796875 
Q 20.953125 6.0625 27.390625 6.0625 
Q 32.5625 6.0625 36.03125 9.234375 
Q 39.5 12.40625 40.4375 19 
z
" id="ArialMT-63"/>
     <path d="M 3.328125 25.921875 
Q 3.328125 40.328125 11.328125 47.265625 
Q 18.015625 53.03125 27.640625 53.03125 
Q 38.328125 53.03125 45.109375 46.015625 
Q 51.90625 39.015625 51.90625 26.65625 
Q 51.90625 16.65625 48.90625 10.90625 
Q 45.90625 5.171875 40.15625 2 
Q 34.421875 -1.171875 27.640625 -1.171875 
Q 16.75 -1.171875 10.03125 5.8125 
Q 3.328125 12.796875 3.328125 25.921875 
z
M 12.359375 25.921875 
Q 12.359375 15.96875 16.703125 11.015625 
Q 21.046875 6.0625 27.640625 6.0625 
Q 34.1875 6.0625 38.53125 11.03125 
Q 42.875 16.015625 42.875 26.21875 
Q 42.875 35.84375 38.5 40.796875 
Q 34.125 45.75 27.640625 45.75 
Q 21.046875 45.75 16.703125 40.8125 
Q 12.359375 35.890625 12.359375 25.921875 
z
" id="ArialMT-6f"/>
     <path id="ArialMT-20"/>
     <path d="M 4.5 23 
L 13.421875 23.78125 
Q 14.0625 18.40625 16.375 14.96875 
Q 18.703125 11.53125 23.578125 9.40625 
Q 28.46875 7.28125 34.578125 7.28125 
Q 39.984375 7.28125 44.140625 8.890625 
Q 48.296875 10.5 50.3125 13.296875 
Q 52.34375 16.109375 52.34375 19.4375 
Q 52.34375 22.796875 50.390625 25.3125 
Q 48.4375 27.828125 43.953125 29.546875 
Q 41.0625 30.671875 31.203125 33.03125 
Q 21.34375 35.40625 17.390625 37.5 
Q 12.25 40.1875 9.734375 44.15625 
Q 7.234375 48.140625 7.234375 53.078125 
Q 7.234375 58.5 10.296875 63.203125 
Q 13.375 67.921875 19.28125 70.359375 
Q 25.203125 72.796875 32.421875 72.796875 
Q 40.375 72.796875 46.453125 70.234375 
Q 52.546875 67.671875 55.8125 62.6875 
Q 59.078125 57.71875 59.328125 51.421875 
L 50.25 50.734375 
Q 49.515625 57.515625 45.28125 60.984375 
Q 41.0625 64.453125 32.8125 64.453125 
Q 24.21875 64.453125 20.28125 61.296875 
Q 16.359375 58.15625 16.359375 53.71875 
Q 16.359375 49.859375 19.140625 47.359375 
Q 21.875 44.875 33.421875 42.265625 
Q 44.96875 39.65625 49.265625 37.703125 
Q 55.515625 34.8125 58.484375 30.390625 
Q 61.46875 25.984375 61.46875 20.21875 
Q 61.46875 14.5 58.203125 9.4375 
Q 54.9375 4.390625 48.796875 1.578125 
Q 42.671875 -1.21875 35.015625 -1.21875 
Q 25.296875 -1.21875 18.71875 1.609375 
Q 12.15625 4.4375 8.421875 10.125 
Q 4.6875 15.828125 4.5 23 
z
" id="ArialMT-53"/>
     <path d="M 7.421875 0 
L 7.421875 71.578125 
L 21.6875 71.578125 
L 38.625 20.90625 
Q 40.96875 13.8125 42.046875 10.296875 
Q 43.265625 14.203125 45.84375 21.78125 
L 62.984375 71.578125 
L 75.734375 71.578125 
L 75.734375 0 
L 66.609375 0 
L 66.609375 59.90625 
L 45.796875 0 
L 37.25 0 
L 16.546875 60.9375 
L 16.546875 0 
z
" id="ArialMT-4d"/>
     <path d="M 4.203125 18.890625 
L 12.984375 20.0625 
Q 14.5 12.59375 18.140625 9.296875 
Q 21.78125 6 27 6 
Q 33.203125 6 37.46875 10.296875 
Q 41.75 14.59375 41.75 20.953125 
Q 41.75 27 37.796875 30.921875 
Q 33.84375 34.859375 27.734375 34.859375 
Q 25.25 34.859375 21.53125 33.890625 
L 22.515625 41.609375 
Q 23.390625 41.5 23.921875 41.5 
Q 29.546875 41.5 34.03125 44.421875 
Q 38.53125 47.359375 38.53125 53.46875 
Q 38.53125 58.296875 35.25 61.46875 
Q 31.984375 64.65625 26.8125 64.65625 
Q 21.6875 64.65625 18.265625 61.421875 
Q 14.84375 58.203125 13.875 51.765625 
L 5.078125 53.328125 
Q 6.6875 62.15625 12.390625 67.015625 
Q 18.109375 71.875 26.609375 71.875 
Q 32.46875 71.875 37.390625 69.359375 
Q 42.328125 66.84375 44.9375 62.5 
Q 47.5625 58.15625 47.5625 53.265625 
Q 47.5625 48.640625 45.0625 44.828125 
Q 42.578125 41.015625 37.703125 38.765625 
Q 44.046875 37.3125 47.5625 32.6875 
Q 51.078125 28.078125 51.078125 21.140625 
Q 51.078125 11.765625 44.234375 5.25 
Q 37.40625 -1.265625 26.953125 -1.265625 
Q 17.53125 -1.265625 11.296875 4.34375 
Q 5.078125 9.96875 4.203125 18.890625 
z
" id="ArialMT-33"/>
    </defs>
    <g style="fill:#262626;" transform="translate(66.889375 19.44)scale(0.12 -0.12)">
     <use xlink:href="#ArialMT-4a"/>
     <use x="50" xlink:href="#ArialMT-61"/>
     <use x="105.615234" xlink:href="#ArialMT-67"/>
     <use x="161.230469" xlink:href="#ArialMT-75"/>
     <use x="216.845703" xlink:href="#ArialMT-61"/>
     <use x="272.460938" xlink:href="#ArialMT-72"/>
     <use x="305.761719" xlink:href="#ArialMT-2d"/>
     <use x="339.0625" xlink:href="#ArialMT-6d"/>
     <use x="422.363281" xlink:href="#ArialMT-61"/>
     <use x="477.978516" xlink:href="#ArialMT-63"/>
     <use x="527.978516" xlink:href="#ArialMT-72"/>
     <use x="561.279297" xlink:href="#ArialMT-6f"/>
     <use x="616.894531" xlink:href="#ArialMT-20"/>
     <use x="644.677734" xlink:href="#ArialMT-53"/>
     <use x="711.376953" xlink:href="#ArialMT-4d"/>
     <use x="794.677734" xlink:href="#ArialMT-31"/>
     <use x="850.292969" xlink:href="#ArialMT-33"/>
    </g>
   </g>
  </g>
 </g>
 <defs>
  <clipPath id="p9a3d0effa0">
   <rect height="150.52" width="164.56" x="38.96" y="25.44"/>
  </clipPath>
 </defs>
</svg>
