<?xml version="1.0" encoding="utf-8" standalone="no"?>
<!DOCTYPE svg PUBLIC "-//W3C//DTD SVG 1.1//EN"
  "http://www.w3.org/Graphics/SVG/1.1/DTD/svg11.dtd">
<!-- Created with matplotlib (http://matplotlib.org/) -->
<svg height="216pt" version="1.1" viewBox="0 0 216 216" width="216pt" xmlns="http://www.w3.org/2000/svg" xmlns:xlink="http://www.w3.org/1999/xlink">
 <defs>
  <style type="text/css">
*{stroke-linecap:butt;stroke-linejoin:round;}
  </style>
 </defs>
 <g id="figure_1">
  <g id="patch_1">
   <path d="M 0 216 
L 216 216 
L 216 0 
L 0 0 
z
" style="fill:#ffffff;"/>
  </g>
  <g id="axes_1">
   <g id="patch_2">
    <path d="M 38.96 175.96 
L 203.52 175.96 
L 203.52 25.44 
L 38.96 25.44 
z
" style="fill:#ffffff;"/>
   </g>
   <g id="matplotlib.axis_1">
    <g id="xtick_1">
     <g id="line2d_1">
      <defs>
       <path d="M 0 0 
L 0 3.5 
" id="mbae7fa1183" style="stroke:#262626;stroke-width:0.8;"/>
      </defs>
      <g>
       <use style="fill:#262626;stroke:#262626;stroke-width:0.8;" x="46.44" xlink:href="#mbae7fa1183" y="175.96"/>
      </g>
     </g>
     <g id="text_1">
      <!-- 2 -->
      <defs>
       <path d="M 50.34375 8.453125 
L 50.34375 0 
L 3.03125 0 
Q 2.9375 3.171875 4.046875 6.109375 
Q 5.859375 10.9375 9.828125 15.625 
Q 13.8125 20.3125 21.34375 26.46875 
Q 33.015625 36.03125 37.109375 41.625 
Q 41.21875 47.21875 41.21875 52.203125 
Q 41.21875 57.421875 37.46875 61 
Q 33.734375 64.59375 27.734375 64.59375 
Q 21.390625 64.59375 17.578125 60.78125 
Q 13.765625 56.984375 13.71875 50.25 
L 4.6875 51.171875 
Q 5.609375 61.28125 11.65625 66.578125 
Q 17.71875 71.875 27.9375 71.875 
Q 38.234375 71.875 44.234375 66.15625 
Q 50.25 60.453125 50.25 52 
Q 50.25 47.703125 48.484375 43.546875 
Q 46.734375 39.40625 42.65625 34.8125 
Q 38.578125 30.21875 29.109375 22.21875 
Q 21.1875 15.578125 18.9375 13.203125 
Q 16.703125 10.84375 15.234375 8.453125 
z
" id="ArialMT-32"/>
      </defs>
      <g style="fill:#262626;" transform="translate(43.659531 190.117812)scale(0.1 -0.1)">
       <use xlink:href="#ArialMT-32"/>
      </g>
     </g>
    </g>
    <g id="xtick_2">
     <g id="line2d_2">
      <g>
       <use style="fill:#262626;stroke:#262626;stroke-width:0.8;" x="76.36" xlink:href="#mbae7fa1183" y="175.96"/>
      </g>
     </g>
     <g id="text_2">
      <!-- 4 -->
      <defs>
       <path d="M 32.328125 0 
L 32.328125 17.140625 
L 1.265625 17.140625 
L 1.265625 25.203125 
L 33.9375 71.578125 
L 41.109375 71.578125 
L 41.109375 25.203125 
L 50.78125 25.203125 
L 50.78125 17.140625 
L 41.109375 17.140625 
L 41.109375 0 
z
M 32.328125 25.203125 
L 32.328125 57.46875 
L 9.90625 25.203125 
z
" id="ArialMT-34"/>
      </defs>
      <g style="fill:#262626;" transform="translate(73.579531 190.117812)scale(0.1 -0.1)">
       <use xlink:href="#ArialMT-34"/>
      </g>
     </g>
    </g>
    <g id="xtick_3">
     <g id="line2d_3">
      <g>
       <use style="fill:#262626;stroke:#262626;stroke-width:0.8;" x="106.28" xlink:href="#mbae7fa1183" y="175.96"/>
      </g>
     </g>
     <g id="text_3">
      <!-- 6 -->
      <defs>
       <path d="M 49.75 54.046875 
L 41.015625 53.375 
Q 39.84375 58.546875 37.703125 60.890625 
Q 34.125 64.65625 28.90625 64.65625 
Q 24.703125 64.65625 21.53125 62.3125 
Q 17.390625 59.28125 14.984375 53.46875 
Q 12.59375 47.65625 12.5 36.921875 
Q 15.671875 41.75 20.265625 44.09375 
Q 24.859375 46.4375 29.890625 46.4375 
Q 38.671875 46.4375 44.84375 39.96875 
Q 51.03125 33.5 51.03125 23.25 
Q 51.03125 16.5 48.125 10.71875 
Q 45.21875 4.9375 40.140625 1.859375 
Q 35.0625 -1.21875 28.609375 -1.21875 
Q 17.625 -1.21875 10.6875 6.859375 
Q 3.765625 14.9375 3.765625 33.5 
Q 3.765625 54.25 11.421875 63.671875 
Q 18.109375 71.875 29.4375 71.875 
Q 37.890625 71.875 43.28125 67.140625 
Q 48.6875 62.40625 49.75 54.046875 
z
M 13.875 23.1875 
Q 13.875 18.65625 15.796875 14.5 
Q 17.71875 10.359375 21.1875 8.171875 
Q 24.65625 6 28.46875 6 
Q 34.03125 6 38.03125 10.484375 
Q 42.046875 14.984375 42.046875 22.703125 
Q 42.046875 30.125 38.078125 34.390625 
Q 34.125 38.671875 28.125 38.671875 
Q 22.171875 38.671875 18.015625 34.390625 
Q 13.875 30.125 13.875 23.1875 
z
" id="ArialMT-36"/>
      </defs>
      <g style="fill:#262626;" transform="translate(103.499531 190.117812)scale(0.1 -0.1)">
       <use xlink:href="#ArialMT-36"/>
      </g>
     </g>
    </g>
    <g id="xtick_4">
     <g id="line2d_4">
      <g>
       <use style="fill:#262626;stroke:#262626;stroke-width:0.8;" x="136.2" xlink:href="#mbae7fa1183" y="175.96"/>
      </g>
     </g>
     <g id="text_4">
      <!-- 8 -->
      <defs>
       <path d="M 17.671875 38.8125 
Q 12.203125 40.828125 9.5625 44.53125 
Q 6.9375 48.25 6.9375 53.421875 
Q 6.9375 61.234375 12.546875 66.546875 
Q 18.171875 71.875 27.484375 71.875 
Q 36.859375 71.875 42.578125 66.421875 
Q 48.296875 60.984375 48.296875 53.171875 
Q 48.296875 48.1875 45.671875 44.5 
Q 43.0625 40.828125 37.75 38.8125 
Q 44.34375 36.671875 47.78125 31.875 
Q 51.21875 27.09375 51.21875 20.453125 
Q 51.21875 11.28125 44.71875 5.03125 
Q 38.234375 -1.21875 27.640625 -1.21875 
Q 17.046875 -1.21875 10.546875 5.046875 
Q 4.046875 11.328125 4.046875 20.703125 
Q 4.046875 27.6875 7.59375 32.390625 
Q 11.140625 37.109375 17.671875 38.8125 
z
M 15.921875 53.71875 
Q 15.921875 48.640625 19.1875 45.40625 
Q 22.46875 42.1875 27.6875 42.1875 
Q 32.765625 42.1875 36.015625 45.375 
Q 39.265625 48.578125 39.265625 53.21875 
Q 39.265625 58.0625 35.90625 61.359375 
Q 32.5625 64.65625 27.59375 64.65625 
Q 22.5625 64.65625 19.234375 61.421875 
Q 15.921875 58.203125 15.921875 53.71875 
z
M 13.09375 20.65625 
Q 13.09375 16.890625 14.875 13.375 
Q 16.65625 9.859375 20.171875 7.921875 
Q 23.6875 6 27.734375 6 
Q 34.03125 6 38.125 10.046875 
Q 42.234375 14.109375 42.234375 20.359375 
Q 42.234375 26.703125 38.015625 30.859375 
Q 33.796875 35.015625 27.4375 35.015625 
Q 21.234375 35.015625 17.15625 30.90625 
Q 13.09375 26.8125 13.09375 20.65625 
z
" id="ArialMT-38"/>
      </defs>
      <g style="fill:#262626;" transform="translate(133.419531 190.117812)scale(0.1 -0.1)">
       <use xlink:href="#ArialMT-38"/>
      </g>
     </g>
    </g>
    <g id="xtick_5">
     <g id="line2d_5">
      <g>
       <use style="fill:#262626;stroke:#262626;stroke-width:0.8;" x="166.12" xlink:href="#mbae7fa1183" y="175.96"/>
      </g>
     </g>
     <g id="text_5">
      <!-- 10 -->
      <defs>
       <path d="M 37.25 0 
L 28.46875 0 
L 28.46875 56 
Q 25.296875 52.984375 20.140625 49.953125 
Q 14.984375 46.921875 10.890625 45.40625 
L 10.890625 53.90625 
Q 18.265625 57.375 23.78125 62.296875 
Q 29.296875 67.234375 31.59375 71.875 
L 37.25 71.875 
z
" id="ArialMT-31"/>
       <path d="M 4.15625 35.296875 
Q 4.15625 48 6.765625 55.734375 
Q 9.375 63.484375 14.515625 67.671875 
Q 19.671875 71.875 27.484375 71.875 
Q 33.25 71.875 37.59375 69.546875 
Q 41.9375 67.234375 44.765625 62.859375 
Q 47.609375 58.5 49.21875 52.21875 
Q 50.828125 45.953125 50.828125 35.296875 
Q 50.828125 22.703125 48.234375 14.96875 
Q 45.65625 7.234375 40.5 3 
Q 35.359375 -1.21875 27.484375 -1.21875 
Q 17.140625 -1.21875 11.234375 6.203125 
Q 4.15625 15.140625 4.15625 35.296875 
z
M 13.1875 35.296875 
Q 13.1875 17.671875 17.3125 11.828125 
Q 21.4375 6 27.484375 6 
Q 33.546875 6 37.671875 11.859375 
Q 41.796875 17.71875 41.796875 35.296875 
Q 41.796875 52.984375 37.671875 58.78125 
Q 33.546875 64.59375 27.390625 64.59375 
Q 21.34375 64.59375 17.71875 59.46875 
Q 13.1875 52.9375 13.1875 35.296875 
z
" id="ArialMT-30"/>
      </defs>
      <g style="fill:#262626;" transform="translate(160.559062 190.117812)scale(0.1 -0.1)">
       <use xlink:href="#ArialMT-31"/>
       <use x="55.615234" xlink:href="#ArialMT-30"/>
      </g>
     </g>
    </g>
    <g id="xtick_6">
     <g id="line2d_6">
      <g>
       <use style="fill:#262626;stroke:#262626;stroke-width:0.8;" x="196.04" xlink:href="#mbae7fa1183" y="175.96"/>
      </g>
     </g>
     <g id="text_6">
      <!-- 12 -->
      <g style="fill:#262626;" transform="translate(190.479062 190.117812)scale(0.1 -0.1)">
       <use xlink:href="#ArialMT-31"/>
       <use x="55.615234" xlink:href="#ArialMT-32"/>
      </g>
     </g>
    </g>
    <g id="text_7">
     <!-- pH -->
     <defs>
      <path d="M 6.59375 -19.875 
L 6.59375 51.859375 
L 14.59375 51.859375 
L 14.59375 45.125 
Q 17.4375 49.078125 21 51.046875 
Q 24.5625 53.03125 29.640625 53.03125 
Q 36.28125 53.03125 41.359375 49.609375 
Q 46.4375 46.1875 49.015625 39.953125 
Q 51.609375 33.734375 51.609375 26.3125 
Q 51.609375 18.359375 48.75 11.984375 
Q 45.90625 5.609375 40.453125 2.21875 
Q 35.015625 -1.171875 29 -1.171875 
Q 24.609375 -1.171875 21.109375 0.6875 
Q 17.625 2.546875 15.375 5.375 
L 15.375 -19.875 
z
M 14.546875 25.640625 
Q 14.546875 15.625 18.59375 10.84375 
Q 22.65625 6.0625 28.421875 6.0625 
Q 34.28125 6.0625 38.453125 11.015625 
Q 42.625 15.96875 42.625 26.375 
Q 42.625 36.28125 38.546875 41.203125 
Q 34.46875 46.140625 28.8125 46.140625 
Q 23.1875 46.140625 18.859375 40.890625 
Q 14.546875 35.640625 14.546875 25.640625 
z
" id="ArialMT-70"/>
      <path d="M 8.015625 0 
L 8.015625 71.578125 
L 17.484375 71.578125 
L 17.484375 42.1875 
L 54.6875 42.1875 
L 54.6875 71.578125 
L 64.15625 71.578125 
L 64.15625 0 
L 54.6875 0 
L 54.6875 33.734375 
L 17.484375 33.734375 
L 17.484375 0 
z
" id="ArialMT-48"/>
     </defs>
     <g style="fill:#262626;" transform="translate(114.848594 203.263125)scale(0.1 -0.1)">
      <use xlink:href="#ArialMT-70"/>
      <use x="55.615234" xlink:href="#ArialMT-48"/>
     </g>
    </g>
   </g>
   <g id="matplotlib.axis_2">
    <g id="ytick_1">
     <g id="line2d_7">
      <defs>
       <path d="M 0 0 
L -3.5 0 
" id="md4402ba0be" style="stroke:#262626;stroke-width:0.8;"/>
      </defs>
      <g>
       <use style="fill:#262626;stroke:#262626;stroke-width:0.8;" x="38.96" xlink:href="#md4402ba0be" y="147.649815"/>
      </g>
     </g>
     <g id="text_8">
      <!-- 0 -->
      <g style="fill:#262626;" transform="translate(26.399063 151.228721)scale(0.1 -0.1)">
       <use xlink:href="#ArialMT-30"/>
      </g>
     </g>
    </g>
    <g id="ytick_2">
     <g id="line2d_8">
      <g>
       <use style="fill:#262626;stroke:#262626;stroke-width:0.8;" x="38.96" xlink:href="#md4402ba0be" y="63.179232"/>
      </g>
     </g>
     <g id="text_9">
      <!-- 1 -->
      <g style="fill:#262626;" transform="translate(26.399063 66.758138)scale(0.1 -0.1)">
       <use xlink:href="#ArialMT-31"/>
      </g>
     </g>
    </g>
    <g id="text_10">
     <!-- $\langle q_\mathsf{total} \rangle$ -->
     <defs>
      <path d="M 8.9375 31.34375 
L 22.703125 75.875 
L 31 75.875 
L 17.234375 31.34375 
L 31 -13.1875 
L 22.703125 -13.1875 
z
" id="DejaVuSans-27e8"/>
      <path d="M 41.703125 8.203125 
Q 38.09375 3.46875 33.171875 1.015625 
Q 28.265625 -1.421875 22.3125 -1.421875 
Q 14.015625 -1.421875 9.296875 4.171875 
Q 4.59375 9.765625 4.59375 19.578125 
Q 4.59375 27.484375 7.5 34.859375 
Q 10.40625 42.234375 15.828125 48.09375 
Q 19.34375 51.90625 23.90625 53.953125 
Q 28.46875 56 33.5 56 
Q 39.546875 56 43.453125 53.609375 
Q 47.359375 51.21875 49.125 46.390625 
L 50.6875 54.59375 
L 59.71875 54.59375 
L 45.125 -20.609375 
L 36.078125 -20.609375 
z
M 13.921875 20.90625 
Q 13.921875 13.671875 16.9375 9.890625 
Q 19.96875 6.109375 25.6875 6.109375 
Q 34.1875 6.109375 40.1875 14.234375 
Q 46.1875 22.359375 46.1875 33.984375 
Q 46.1875 41.015625 43.078125 44.75 
Q 39.984375 48.484375 34.1875 48.484375 
Q 29.9375 48.484375 26.3125 46.5 
Q 22.703125 44.53125 20.015625 40.71875 
Q 17.1875 36.71875 15.546875 31.34375 
Q 13.921875 25.984375 13.921875 20.90625 
z
" id="DejaVuSans-Oblique-71"/>
      <path d="M 18.3125 70.21875 
L 18.3125 54.6875 
L 36.8125 54.6875 
L 36.8125 47.703125 
L 18.3125 47.703125 
L 18.3125 18.015625 
Q 18.3125 11.328125 20.140625 9.421875 
Q 21.96875 7.515625 27.59375 7.515625 
L 36.8125 7.515625 
L 36.8125 0 
L 27.59375 0 
Q 17.1875 0 13.234375 3.875 
Q 9.28125 7.765625 9.28125 18.015625 
L 9.28125 47.703125 
L 2.6875 47.703125 
L 2.6875 54.6875 
L 9.28125 54.6875 
L 9.28125 70.21875 
z
" id="DejaVuSans-74"/>
      <path d="M 30.609375 48.390625 
Q 23.390625 48.390625 19.1875 42.75 
Q 14.984375 37.109375 14.984375 27.296875 
Q 14.984375 17.484375 19.15625 11.84375 
Q 23.34375 6.203125 30.609375 6.203125 
Q 37.796875 6.203125 41.984375 11.859375 
Q 46.1875 17.53125 46.1875 27.296875 
Q 46.1875 37.015625 41.984375 42.703125 
Q 37.796875 48.390625 30.609375 48.390625 
z
M 30.609375 56 
Q 42.328125 56 49.015625 48.375 
Q 55.71875 40.765625 55.71875 27.296875 
Q 55.71875 13.875 49.015625 6.21875 
Q 42.328125 -1.421875 30.609375 -1.421875 
Q 18.84375 -1.421875 12.171875 6.21875 
Q 5.515625 13.875 5.515625 27.296875 
Q 5.515625 40.765625 12.171875 48.375 
Q 18.84375 56 30.609375 56 
z
" id="DejaVuSans-6f"/>
      <path d="M 34.28125 27.484375 
Q 23.390625 27.484375 19.1875 25 
Q 14.984375 22.515625 14.984375 16.5 
Q 14.984375 11.71875 18.140625 8.90625 
Q 21.296875 6.109375 26.703125 6.109375 
Q 34.1875 6.109375 38.703125 11.40625 
Q 43.21875 16.703125 43.21875 25.484375 
L 43.21875 27.484375 
z
M 52.203125 31.203125 
L 52.203125 0 
L 43.21875 0 
L 43.21875 8.296875 
Q 40.140625 3.328125 35.546875 0.953125 
Q 30.953125 -1.421875 24.3125 -1.421875 
Q 15.921875 -1.421875 10.953125 3.296875 
Q 6 8.015625 6 15.921875 
Q 6 25.140625 12.171875 29.828125 
Q 18.359375 34.515625 30.609375 34.515625 
L 43.21875 34.515625 
L 43.21875 35.40625 
Q 43.21875 41.609375 39.140625 45 
Q 35.0625 48.390625 27.6875 48.390625 
Q 23 48.390625 18.546875 47.265625 
Q 14.109375 46.140625 10.015625 43.890625 
L 10.015625 52.203125 
Q 14.9375 54.109375 19.578125 55.046875 
Q 24.21875 56 28.609375 56 
Q 40.484375 56 46.34375 49.84375 
Q 52.203125 43.703125 52.203125 31.203125 
z
" id="DejaVuSans-61"/>
      <path d="M 9.421875 75.984375 
L 18.40625 75.984375 
L 18.40625 0 
L 9.421875 0 
z
" id="DejaVuSans-6c"/>
      <path d="M 30.078125 31.34375 
L 16.3125 -13.1875 
L 8.015625 -13.1875 
L 21.78125 31.34375 
L 8.015625 75.875 
L 16.3125 75.875 
z
" id="DejaVuSans-27e9"/>
     </defs>
     <g style="fill:#262626;" transform="translate(20.299063 115.95)rotate(-90)scale(0.1 -0.1)">
      <use transform="translate(0 0.125)" xlink:href="#DejaVuSans-27e8"/>
      <use transform="translate(39.013672 0.125)" xlink:href="#DejaVuSans-Oblique-71"/>
      <use transform="translate(102.490234 -16.28125)scale(0.7)" xlink:href="#DejaVuSans-74"/>
      <use transform="translate(129.936523 -16.28125)scale(0.7)" xlink:href="#DejaVuSans-6f"/>
      <use transform="translate(172.763672 -16.28125)scale(0.7)" xlink:href="#DejaVuSans-74"/>
      <use transform="translate(200.209961 -16.28125)scale(0.7)" xlink:href="#DejaVuSans-61"/>
      <use transform="translate(243.105469 -16.28125)scale(0.7)" xlink:href="#DejaVuSans-6c"/>
      <use transform="translate(265.288086 0.125)" xlink:href="#DejaVuSans-27e9"/>
     </g>
    </g>
   </g>
   <g id="PolyCollection_1">
    <defs>
     <path d="M 46.44 -183.718182 
L 46.44 -112.774862 
L 47.936 -111.839874 
L 49.432 -110.269826 
L 50.928 -108.048072 
L 52.424 -105.186909 
L 53.92 -101.723752 
L 55.416 -97.716662 
L 56.912 -93.241776 
L 58.408 -88.392889 
L 59.904 -83.282046 
L 61.4 -78.039727 
L 62.896 -72.812889 
L 64.392 -67.758852 
L 65.888 -63.034201 
L 67.384 -58.780597 
L 68.88 -55.111482 
L 70.376 -52.103382 
L 71.872 -49.793112 
L 73.368 -48.179718 
L 74.864 -47.229351 
L 76.36 -46.881818 
L 77.856 -47.057895 
L 79.352 -47.666754 
L 80.848 -48.613258 
L 82.344 -49.804449 
L 83.84 -51.154278 
L 85.336 -52.586509 
L 86.832 -54.036735 
L 88.328 -55.453868 
L 89.824 -56.800376 
L 91.32 -58.050949 
L 92.816 -59.190412 
L 94.312 -60.211816 
L 95.808 -61.114972 
L 97.304 -61.905182 
L 98.8 -62.591953 
L 100.296 -63.187589 
L 101.792 -63.705702 
L 103.288 -64.159831 
L 104.784 -64.562328 
L 106.28 -64.923676 
L 107.776 -65.252237 
L 109.272 -65.554343 
L 110.768 -65.834588 
L 112.264 -66.096161 
L 113.76 -66.341142 
L 115.256 -66.570724 
L 116.752 -66.785393 
L 118.248 -66.985097 
L 119.744 -67.169433 
L 121.24 -67.337868 
L 122.736 -67.489947 
L 124.232 -67.625479 
L 125.728 -67.744644 
L 127.224 -67.848032 
L 128.72 -67.936603 
L 130.216 -68.011602 
L 131.712 -68.074448 
L 133.208 -68.126631 
L 134.704 -68.169621 
L 136.2 -68.204801 
L 137.696 -68.233431 
L 139.192 -68.256622 
L 140.688 -68.275337 
L 142.184 -68.290392 
L 143.68 -68.302473 
L 145.176 -68.312148 
L 146.672 -68.319884 
L 148.168 -68.32606 
L 149.664 -68.330987 
L 151.16 -68.334913 
L 152.656 -68.33804 
L 154.152 -68.340529 
L 155.648 -68.342509 
L 157.144 -68.344084 
L 158.64 -68.345337 
L 160.136 -68.346332 
L 161.632 -68.347124 
L 163.128 -68.347753 
L 164.624 -68.348253 
L 166.12 -68.34865 
L 167.616 -68.348965 
L 169.112 -68.349216 
L 170.608 -68.349415 
L 172.104 -68.349574 
L 173.6 -68.349699 
L 175.096 -68.349799 
L 176.592 -68.349879 
L 178.088 -68.349942 
L 179.584 -68.349992 
L 181.08 -68.350031 
L 182.576 -68.350063 
L 184.072 -68.350088 
L 185.568 -68.350108 
L 187.064 -68.350124 
L 188.56 -68.350136 
L 190.056 -68.350146 
L 191.552 -68.350154 
L 193.048 -68.350161 
L 194.544 -68.350166 
L 196.04 -68.35017 
L 196.04 -68.350201 
L 196.04 -68.350201 
L 194.544 -68.350205 
L 193.048 -68.35021 
L 191.552 -68.350216 
L 190.056 -68.350224 
L 188.56 -68.350234 
L 187.064 -68.350247 
L 185.568 -68.350263 
L 184.072 -68.350284 
L 182.576 -68.350309 
L 181.08 -68.350341 
L 179.584 -68.350382 
L 178.088 -68.350433 
L 176.592 -68.350497 
L 175.096 -68.350578 
L 173.6 -68.35068 
L 172.104 -68.350808 
L 170.608 -68.350969 
L 169.112 -68.351172 
L 167.616 -68.351428 
L 166.12 -68.351749 
L 164.624 -68.352154 
L 163.128 -68.352664 
L 161.632 -68.353305 
L 160.136 -68.354111 
L 158.64 -68.355126 
L 157.144 -68.356403 
L 155.648 -68.358008 
L 154.152 -68.360027 
L 152.656 -68.362563 
L 151.16 -68.365751 
L 149.664 -68.369753 
L 148.168 -68.374775 
L 146.672 -68.381072 
L 145.176 -68.388959 
L 143.68 -68.398825 
L 142.184 -68.411147 
L 140.688 -68.426505 
L 139.192 -68.445601 
L 137.696 -68.469272 
L 136.2 -68.498505 
L 134.704 -68.534446 
L 133.208 -68.578393 
L 131.712 -68.631782 
L 130.216 -68.696145 
L 128.72 -68.773053 
L 127.224 -68.864029 
L 125.728 -68.970444 
L 124.232 -69.093419 
L 122.736 -69.233747 
L 121.24 -69.391865 
L 119.744 -69.567901 
L 118.248 -69.761805 
L 116.752 -69.973553 
L 115.256 -70.203382 
L 113.76 -70.452046 
L 112.264 -70.721044 
L 110.768 -71.012842 
L 109.272 -71.331122 
L 107.776 -71.681088 
L 106.28 -72.069862 
L 104.784 -72.506953 
L 103.288 -73.004708 
L 101.792 -73.578607 
L 100.296 -74.247259 
L 98.8 -75.03203 
L 97.304 -75.956305 
L 95.808 -77.044561 
L 94.312 -78.321432 
L 92.816 -79.810952 
L 91.32 -81.536021 
L 89.824 -83.518002 
L 88.328 -85.776187 
L 86.832 -88.326856 
L 85.336 -91.182086 
L 83.84 -94.3491 
L 82.344 -97.830725 
L 80.848 -101.626318 
L 79.352 -105.731974 
L 77.856 -110.139898 
L 76.36 -114.837337 
L 74.864 -119.804707 
L 73.368 -125.012057 
L 71.872 -130.414055 
L 70.376 -135.945041 
L 68.88 -141.516295 
L 67.384 -147.017761 
L 65.888 -152.325601 
L 64.392 -157.314546 
L 62.896 -161.871985 
L 61.4 -165.910744 
L 59.904 -169.378753 
L 58.408 -172.264829 
L 56.912 -174.600079 
L 55.416 -176.454362 
L 53.92 -177.928143 
L 52.424 -179.141193 
L 50.928 -180.219581 
L 49.432 -181.281876 
L 47.936 -182.42581 
L 46.44 -183.718182 
z
" id="mba18f4fd51" style="stroke:#ffffff;stroke-opacity:0.05;"/>
    </defs>
    <g clip-path="url(#p928f26e18f)">
     <use style="fill:#8c0800;fill-opacity:0.05;stroke:#ffffff;stroke-opacity:0.05;" x="0" xlink:href="#mba18f4fd51" y="216"/>
    </g>
   </g>
   <g id="line2d_9">
    <path clip-path="url(#p928f26e18f)" d="M 46.44 67.753478 
L 47.936 68.867158 
L 49.432 70.224149 
L 50.928 71.866174 
L 52.424 73.835949 
L 53.92 76.174052 
L 55.416 78.914488 
L 56.912 82.079072 
L 58.408 85.671141 
L 59.904 89.6696 
L 61.4 94.024764 
L 62.896 98.657563 
L 64.392 103.463301 
L 65.888 108.320099 
L 67.384 113.100821 
L 68.88 117.686112 
L 70.376 121.975788 
L 71.872 125.896417 
L 73.368 129.404112 
L 74.864 132.482971 
L 76.36 135.140422 
L 77.856 137.401103 
L 79.352 139.300636 
L 80.848 140.880212 
L 82.344 142.182413 
L 83.84 143.248311 
L 85.336 144.115703 
L 86.832 144.818204 
L 88.328 145.384972 
L 89.824 145.840811 
L 91.32 146.206515 
L 92.816 146.499318 
L 94.312 146.733376 
L 95.808 146.920234 
L 97.304 147.069257 
L 98.8 147.188008 
L 100.296 147.282576 
L 101.792 147.357846 
L 103.288 147.41773 
L 104.784 147.465359 
L 106.28 147.503231 
L 107.776 147.533338 
L 109.272 147.557267 
L 110.768 147.576285 
L 112.264 147.591398 
L 113.76 147.603406 
L 115.256 147.612947 
L 116.752 147.620527 
L 118.248 147.626549 
L 119.744 147.631333 
L 121.24 147.635134 
L 122.736 147.638153 
L 124.232 147.640551 
L 125.728 147.642456 
L 127.224 147.64397 
L 128.72 147.645172 
L 130.216 147.646127 
L 131.712 147.646885 
L 133.208 147.647488 
L 134.704 147.647966 
L 136.2 147.648347 
L 137.696 147.648649 
L 139.192 147.648889 
L 140.688 147.649079 
L 142.184 147.64923 
L 143.68 147.649351 
L 145.176 147.649446 
L 146.672 147.649522 
L 148.168 147.649582 
L 149.664 147.64963 
L 151.16 147.649668 
L 152.656 147.649698 
L 154.152 147.649722 
L 155.648 147.649741 
L 157.144 147.649757 
L 158.64 147.649769 
L 160.136 147.649778 
L 161.632 147.649786 
L 163.128 147.649792 
L 164.624 147.649797 
L 166.12 147.6498 
L 167.616 147.649803 
L 169.112 147.649806 
L 170.608 147.649808 
L 172.104 147.649809 
L 173.6 147.64981 
L 175.096 147.649811 
L 176.592 147.649812 
L 178.088 147.649813 
L 179.584 147.649813 
L 181.08 147.649814 
L 182.576 147.649814 
L 184.072 147.649814 
L 185.568 147.649814 
L 187.064 147.649814 
L 188.56 147.649815 
L 190.056 147.649815 
L 191.552 147.649815 
L 193.048 147.649815 
L 194.544 147.649815 
L 196.04 147.649815 
" style="fill:none;opacity:0.9;stroke:#8c0800;stroke-linecap:round;stroke-width:1.5;"/>
   </g>
   <g id="line2d_10">
    <path clip-path="url(#p928f26e18f)" d="M 46.44 68.645028 
L 47.936 69.946875 
L 49.432 71.526038 
L 50.928 73.425095 
L 52.424 75.685241 
L 53.92 78.342106 
L 55.416 81.420343 
L 56.912 84.927403 
L 58.408 88.847412 
L 59.904 93.136517 
L 61.4 97.721315 
L 62.896 102.501644 
L 64.392 107.358157 
L 65.888 112.163703 
L 67.384 116.796371 
L 68.88 121.151415 
L 70.376 125.149698 
L 71.872 128.741461 
L 73.368 131.90553 
L 74.864 134.645155 
L 76.36 136.982061 
L 77.856 138.95015 
L 79.352 140.58988 
L 80.848 141.943825 
L 82.344 143.053529 
L 83.84 143.957534 
L 85.336 144.690326 
L 86.832 145.281947 
L 88.328 145.758044 
L 89.824 146.140174 
L 91.32 146.446241 
L 92.816 146.690972 
L 94.312 146.886397 
L 95.808 147.042281 
L 97.304 147.166519 
L 98.8 147.265467 
L 100.296 147.34423 
L 101.792 147.4069 
L 103.288 147.456746 
L 104.784 147.496383 
L 106.28 147.527894 
L 107.776 147.552941 
L 109.272 147.572847 
L 110.768 147.588666 
L 112.264 147.601235 
L 113.76 147.611222 
L 115.256 147.619157 
L 116.752 147.62546 
L 118.248 147.630468 
L 119.744 147.634447 
L 121.24 147.637607 
L 122.736 147.640118 
L 124.232 147.642112 
L 125.728 147.643696 
L 127.224 147.644955 
L 128.72 147.645954 
L 130.216 147.646748 
L 131.712 147.647379 
L 133.208 147.64788 
L 134.704 147.648278 
L 136.2 147.648594 
L 137.696 147.648845 
L 139.192 147.649045 
L 140.688 147.649203 
L 142.184 147.649329 
L 143.68 147.649429 
L 145.176 147.649508 
L 146.672 147.649571 
L 148.168 147.649622 
L 149.664 147.649661 
L 151.16 147.649693 
L 152.656 147.649718 
L 154.152 147.649738 
L 155.648 147.649754 
L 157.144 147.649766 
L 158.64 147.649776 
L 160.136 147.649784 
L 161.632 147.649791 
L 163.128 147.649796 
L 164.624 147.6498 
L 166.12 147.649803 
L 167.616 147.649805 
L 169.112 147.649807 
L 170.608 147.649809 
L 172.104 147.64981 
L 173.6 147.649811 
L 175.096 147.649812 
L 176.592 147.649813 
L 178.088 147.649813 
L 179.584 147.649813 
L 181.08 147.649814 
L 182.576 147.649814 
L 184.072 147.649814 
L 185.568 147.649814 
L 187.064 147.649815 
L 188.56 147.649815 
L 190.056 147.649815 
L 191.552 147.649815 
L 193.048 147.649815 
L 194.544 147.649815 
L 196.04 147.649815 
" style="fill:none;opacity:0.7;stroke:#000000;stroke-linecap:round;stroke-width:1.5;"/>
   </g>
   <g id="line2d_11">
    <path clip-path="url(#p928f26e18f)" d="M 46.44 32.281818 
L 47.936 33.57419 
L 49.432 34.718124 
L 50.928 35.780419 
L 52.424 36.858807 
L 53.92 38.071857 
L 55.416 39.545638 
L 56.912 41.399921 
L 58.408 43.735171 
L 59.904 46.621247 
L 61.4 50.089256 
L 62.896 54.128015 
L 64.392 58.685454 
L 65.888 63.674399 
L 67.384 68.982239 
L 68.88 74.483705 
L 70.376 80.054959 
L 71.872 85.585945 
L 73.368 90.987943 
L 74.864 96.195293 
L 76.36 101.162663 
L 77.856 105.860102 
L 79.352 110.268026 
L 80.848 114.373682 
L 82.344 118.169275 
L 83.84 121.6509 
L 85.336 124.817914 
L 86.832 127.673144 
L 88.328 130.223813 
L 89.824 132.481998 
L 91.32 134.463979 
L 92.816 136.189048 
L 94.312 137.678568 
L 95.808 138.955439 
L 97.304 140.043695 
L 98.8 140.96797 
L 100.296 141.752741 
L 101.792 142.421393 
L 103.288 142.995292 
L 104.784 143.493047 
L 106.28 143.930138 
L 107.776 144.318912 
L 109.272 144.668878 
L 110.768 144.987158 
L 112.264 145.278956 
L 113.76 145.547954 
L 115.256 145.796618 
L 116.752 146.026447 
L 118.248 146.238195 
L 119.744 146.432099 
L 121.24 146.608135 
L 122.736 146.766253 
L 124.232 146.906581 
L 125.728 147.029556 
L 127.224 147.135971 
L 128.72 147.226947 
L 130.216 147.303855 
L 131.712 147.368218 
L 133.208 147.421607 
L 134.704 147.465554 
L 136.2 147.501495 
L 137.696 147.530728 
L 139.192 147.554399 
L 140.688 147.573495 
L 142.184 147.588853 
L 143.68 147.601175 
L 145.176 147.611041 
L 146.672 147.618928 
L 148.168 147.625225 
L 149.664 147.630247 
L 151.16 147.634249 
L 152.656 147.637437 
L 154.152 147.639973 
L 155.648 147.641992 
L 157.144 147.643597 
L 158.64 147.644874 
L 160.136 147.645889 
L 161.632 147.646695 
L 163.128 147.647336 
L 164.624 147.647846 
L 166.12 147.648251 
L 167.616 147.648572 
L 169.112 147.648828 
L 170.608 147.649031 
L 172.104 147.649192 
L 173.6 147.64932 
L 175.096 147.649422 
L 176.592 147.649503 
L 178.088 147.649567 
L 179.584 147.649618 
L 181.08 147.649659 
L 182.576 147.649691 
L 184.072 147.649716 
L 185.568 147.649737 
L 187.064 147.649753 
L 188.56 147.649766 
L 190.056 147.649776 
L 191.552 147.649784 
L 193.048 147.64979 
L 194.544 147.649795 
L 196.04 147.649799 
" style="fill:none;opacity:0.45;stroke:#8c0800;stroke-dasharray:2.775,1.2;stroke-dashoffset:0;stroke-width:0.75;"/>
   </g>
   <g id="line2d_12">
    <path clip-path="url(#p928f26e18f)" d="M 46.44 103.225138 
L 47.936 104.160126 
L 49.432 105.730174 
L 50.928 107.951928 
L 52.424 110.813091 
L 53.92 114.276248 
L 55.416 118.283338 
L 56.912 122.758224 
L 58.408 127.607111 
L 59.904 132.717954 
L 61.4 137.960273 
L 62.896 143.187111 
L 64.392 148.241148 
L 65.888 152.965799 
L 67.384 157.219403 
L 68.88 160.888518 
L 70.376 163.896618 
L 71.872 166.206888 
L 73.368 167.820282 
L 74.864 168.770649 
L 76.36 169.118182 
L 77.856 168.942105 
L 79.352 168.333246 
L 80.848 167.386742 
L 82.344 166.195551 
L 83.84 164.845722 
L 85.336 163.413491 
L 86.832 161.963265 
L 88.328 160.546132 
L 89.824 159.199624 
L 91.32 157.949051 
L 92.816 156.809588 
L 94.312 155.788184 
L 95.808 154.885028 
L 97.304 154.094818 
L 98.8 153.408047 
L 100.296 152.812411 
L 101.792 152.294298 
L 103.288 151.840169 
L 104.784 151.437672 
L 106.28 151.076324 
L 107.776 150.747763 
L 109.272 150.445657 
L 110.768 150.165412 
L 112.264 149.903839 
L 113.76 149.658858 
L 115.256 149.429276 
L 116.752 149.214607 
L 118.248 149.014903 
L 119.744 148.830567 
L 121.24 148.662132 
L 122.736 148.510053 
L 124.232 148.374521 
L 125.728 148.255356 
L 127.224 148.151968 
L 128.72 148.063397 
L 130.216 147.988398 
L 131.712 147.925552 
L 133.208 147.873369 
L 134.704 147.830379 
L 136.2 147.795199 
L 137.696 147.766569 
L 139.192 147.743378 
L 140.688 147.724663 
L 142.184 147.709608 
L 143.68 147.697527 
L 145.176 147.687852 
L 146.672 147.680116 
L 148.168 147.67394 
L 149.664 147.669013 
L 151.16 147.665087 
L 152.656 147.66196 
L 154.152 147.659471 
L 155.648 147.657491 
L 157.144 147.655916 
L 158.64 147.654663 
L 160.136 147.653668 
L 161.632 147.652876 
L 163.128 147.652247 
L 164.624 147.651747 
L 166.12 147.65135 
L 167.616 147.651035 
L 169.112 147.650784 
L 170.608 147.650585 
L 172.104 147.650426 
L 173.6 147.650301 
L 175.096 147.650201 
L 176.592 147.650121 
L 178.088 147.650058 
L 179.584 147.650008 
L 181.08 147.649969 
L 182.576 147.649937 
L 184.072 147.649912 
L 185.568 147.649892 
L 187.064 147.649876 
L 188.56 147.649864 
L 190.056 147.649854 
L 191.552 147.649846 
L 193.048 147.649839 
L 194.544 147.649834 
L 196.04 147.64983 
" style="fill:none;opacity:0.45;stroke:#8c0800;stroke-dasharray:2.775,1.2;stroke-dashoffset:0;stroke-width:0.75;"/>
   </g>
   <g id="patch_3">
    <path d="M 38.96 175.96 
L 38.96 25.44 
" style="fill:none;stroke:#262626;stroke-linecap:square;stroke-linejoin:miter;stroke-width:0.8;"/>
   </g>
   <g id="patch_4">
    <path d="M 38.96 175.96 
L 203.52 175.96 
" style="fill:none;stroke:#262626;stroke-linecap:square;stroke-linejoin:miter;stroke-width:0.8;"/>
   </g>
   <g id="text_11">
    <!-- Jaguar-micro SM17 -->
    <defs>
     <path d="M 2.875 20.3125 
L 11.421875 21.484375 
Q 11.765625 13.28125 14.5 10.25 
Q 17.234375 7.234375 22.078125 7.234375 
Q 25.640625 7.234375 28.21875 8.859375 
Q 30.8125 10.5 31.78125 13.296875 
Q 32.765625 16.109375 32.765625 22.265625 
L 32.765625 71.578125 
L 42.234375 71.578125 
L 42.234375 22.796875 
Q 42.234375 13.8125 40.0625 8.875 
Q 37.890625 3.953125 33.171875 1.359375 
Q 28.46875 -1.21875 22.125 -1.21875 
Q 12.703125 -1.21875 7.6875 4.203125 
Q 2.6875 9.625 2.875 20.3125 
z
" id="ArialMT-4a"/>
     <path d="M 40.4375 6.390625 
Q 35.546875 2.25 31.03125 0.53125 
Q 26.515625 -1.171875 21.34375 -1.171875 
Q 12.796875 -1.171875 8.203125 3 
Q 3.609375 7.171875 3.609375 13.671875 
Q 3.609375 17.484375 5.34375 20.625 
Q 7.078125 23.78125 9.890625 25.6875 
Q 12.703125 27.59375 16.21875 28.5625 
Q 18.796875 29.25 24.03125 29.890625 
Q 34.671875 31.15625 39.703125 32.90625 
Q 39.75 34.71875 39.75 35.203125 
Q 39.75 40.578125 37.25 42.78125 
Q 33.890625 45.75 27.25 45.75 
Q 21.046875 45.75 18.09375 43.578125 
Q 15.140625 41.40625 13.71875 35.890625 
L 5.125 37.0625 
Q 6.296875 42.578125 8.984375 45.96875 
Q 11.671875 49.359375 16.75 51.1875 
Q 21.828125 53.03125 28.515625 53.03125 
Q 35.15625 53.03125 39.296875 51.46875 
Q 43.453125 49.90625 45.40625 47.53125 
Q 47.359375 45.171875 48.140625 41.546875 
Q 48.578125 39.3125 48.578125 33.453125 
L 48.578125 21.734375 
Q 48.578125 9.46875 49.140625 6.21875 
Q 49.703125 2.984375 51.375 0 
L 42.1875 0 
Q 40.828125 2.734375 40.4375 6.390625 
z
M 39.703125 26.03125 
Q 34.90625 24.078125 25.34375 22.703125 
Q 19.921875 21.921875 17.671875 20.9375 
Q 15.4375 19.96875 14.203125 18.09375 
Q 12.984375 16.21875 12.984375 13.921875 
Q 12.984375 10.40625 15.640625 8.0625 
Q 18.3125 5.71875 23.4375 5.71875 
Q 28.515625 5.71875 32.46875 7.9375 
Q 36.421875 10.15625 38.28125 14.015625 
Q 39.703125 17 39.703125 22.796875 
z
" id="ArialMT-61"/>
     <path d="M 4.984375 -4.296875 
L 13.53125 -5.5625 
Q 14.0625 -9.515625 16.5 -11.328125 
Q 19.78125 -13.765625 25.4375 -13.765625 
Q 31.546875 -13.765625 34.859375 -11.328125 
Q 38.1875 -8.890625 39.359375 -4.5 
Q 40.046875 -1.8125 39.984375 6.78125 
Q 34.234375 0 25.640625 0 
Q 14.9375 0 9.078125 7.71875 
Q 3.21875 15.4375 3.21875 26.21875 
Q 3.21875 33.640625 5.90625 39.90625 
Q 8.59375 46.1875 13.6875 49.609375 
Q 18.796875 53.03125 25.6875 53.03125 
Q 34.859375 53.03125 40.828125 45.609375 
L 40.828125 51.859375 
L 48.921875 51.859375 
L 48.921875 7.03125 
Q 48.921875 -5.078125 46.453125 -10.125 
Q 44 -15.1875 38.640625 -18.109375 
Q 33.296875 -21.046875 25.484375 -21.046875 
Q 16.21875 -21.046875 10.5 -16.875 
Q 4.78125 -12.703125 4.984375 -4.296875 
z
M 12.25 26.859375 
Q 12.25 16.65625 16.296875 11.96875 
Q 20.359375 7.28125 26.46875 7.28125 
Q 32.515625 7.28125 36.609375 11.9375 
Q 40.71875 16.609375 40.71875 26.5625 
Q 40.71875 36.078125 36.5 40.90625 
Q 32.28125 45.75 26.3125 45.75 
Q 20.453125 45.75 16.34375 40.984375 
Q 12.25 36.234375 12.25 26.859375 
z
" id="ArialMT-67"/>
     <path d="M 40.578125 0 
L 40.578125 7.625 
Q 34.515625 -1.171875 24.125 -1.171875 
Q 19.53125 -1.171875 15.546875 0.578125 
Q 11.578125 2.34375 9.640625 5 
Q 7.71875 7.671875 6.9375 11.53125 
Q 6.390625 14.109375 6.390625 19.734375 
L 6.390625 51.859375 
L 15.1875 51.859375 
L 15.1875 23.09375 
Q 15.1875 16.21875 15.71875 13.8125 
Q 16.546875 10.359375 19.234375 8.375 
Q 21.921875 6.390625 25.875 6.390625 
Q 29.828125 6.390625 33.296875 8.421875 
Q 36.765625 10.453125 38.203125 13.9375 
Q 39.65625 17.4375 39.65625 24.078125 
L 39.65625 51.859375 
L 48.4375 51.859375 
L 48.4375 0 
z
" id="ArialMT-75"/>
     <path d="M 6.5 0 
L 6.5 51.859375 
L 14.40625 51.859375 
L 14.40625 44 
Q 17.4375 49.515625 20 51.265625 
Q 22.5625 53.03125 25.640625 53.03125 
Q 30.078125 53.03125 34.671875 50.203125 
L 31.640625 42.046875 
Q 28.421875 43.953125 25.203125 43.953125 
Q 22.3125 43.953125 20.015625 42.21875 
Q 17.71875 40.484375 16.75 37.40625 
Q 15.28125 32.71875 15.28125 27.15625 
L 15.28125 0 
z
" id="ArialMT-72"/>
     <path d="M 3.171875 21.484375 
L 3.171875 30.328125 
L 30.171875 30.328125 
L 30.171875 21.484375 
z
" id="ArialMT-2d"/>
     <path d="M 6.59375 0 
L 6.59375 51.859375 
L 14.453125 51.859375 
L 14.453125 44.578125 
Q 16.890625 48.390625 20.9375 50.703125 
Q 25 53.03125 30.171875 53.03125 
Q 35.9375 53.03125 39.625 50.640625 
Q 43.3125 48.25 44.828125 43.953125 
Q 50.984375 53.03125 60.84375 53.03125 
Q 68.5625 53.03125 72.703125 48.75 
Q 76.859375 44.484375 76.859375 35.59375 
L 76.859375 0 
L 68.109375 0 
L 68.109375 32.671875 
Q 68.109375 37.9375 67.25 40.25 
Q 66.40625 42.578125 64.15625 43.984375 
Q 61.921875 45.40625 58.890625 45.40625 
Q 53.421875 45.40625 49.796875 41.765625 
Q 46.1875 38.140625 46.1875 30.125 
L 46.1875 0 
L 37.40625 0 
L 37.40625 33.6875 
Q 37.40625 39.546875 35.25 42.46875 
Q 33.109375 45.40625 28.21875 45.40625 
Q 24.515625 45.40625 21.359375 43.453125 
Q 18.21875 41.5 16.796875 37.734375 
Q 15.375 33.984375 15.375 26.90625 
L 15.375 0 
z
" id="ArialMT-6d"/>
     <path d="M 6.640625 61.46875 
L 6.640625 71.578125 
L 15.4375 71.578125 
L 15.4375 61.46875 
z
M 6.640625 0 
L 6.640625 51.859375 
L 15.4375 51.859375 
L 15.4375 0 
z
" id="ArialMT-69"/>
     <path d="M 40.4375 19 
L 49.078125 17.875 
Q 47.65625 8.9375 41.8125 3.875 
Q 35.984375 -1.171875 27.484375 -1.171875 
Q 16.84375 -1.171875 10.375 5.78125 
Q 3.90625 12.75 3.90625 25.734375 
Q 3.90625 34.125 6.6875 40.421875 
Q 9.46875 46.734375 15.15625 49.875 
Q 20.84375 53.03125 27.546875 53.03125 
Q 35.984375 53.03125 41.359375 48.75 
Q 46.734375 44.484375 48.25 36.625 
L 39.703125 35.296875 
Q 38.484375 40.53125 35.375 43.15625 
Q 32.28125 45.796875 27.875 45.796875 
Q 21.234375 45.796875 17.078125 41.03125 
Q 12.9375 36.28125 12.9375 25.984375 
Q 12.9375 15.53125 16.9375 10.796875 
Q 20.953125 6.0625 27.390625 6.0625 
Q 32.5625 6.0625 36.03125 9.234375 
Q 39.5 12.40625 40.4375 19 
z
" id="ArialMT-63"/>
     <path d="M 3.328125 25.921875 
Q 3.328125 40.328125 11.328125 47.265625 
Q 18.015625 53.03125 27.640625 53.03125 
Q 38.328125 53.03125 45.109375 46.015625 
Q 51.90625 39.015625 51.90625 26.65625 
Q 51.90625 16.65625 48.90625 10.90625 
Q 45.90625 5.171875 40.15625 2 
Q 34.421875 -1.171875 27.640625 -1.171875 
Q 16.75 -1.171875 10.03125 5.8125 
Q 3.328125 12.796875 3.328125 25.921875 
z
M 12.359375 25.921875 
Q 12.359375 15.96875 16.703125 11.015625 
Q 21.046875 6.0625 27.640625 6.0625 
Q 34.1875 6.0625 38.53125 11.03125 
Q 42.875 16.015625 42.875 26.21875 
Q 42.875 35.84375 38.5 40.796875 
Q 34.125 45.75 27.640625 45.75 
Q 21.046875 45.75 16.703125 40.8125 
Q 12.359375 35.890625 12.359375 25.921875 
z
" id="ArialMT-6f"/>
     <path id="ArialMT-20"/>
     <path d="M 4.5 23 
L 13.421875 23.78125 
Q 14.0625 18.40625 16.375 14.96875 
Q 18.703125 11.53125 23.578125 9.40625 
Q 28.46875 7.28125 34.578125 7.28125 
Q 39.984375 7.28125 44.140625 8.890625 
Q 48.296875 10.5 50.3125 13.296875 
Q 52.34375 16.109375 52.34375 19.4375 
Q 52.34375 22.796875 50.390625 25.3125 
Q 48.4375 27.828125 43.953125 29.546875 
Q 41.0625 30.671875 31.203125 33.03125 
Q 21.34375 35.40625 17.390625 37.5 
Q 12.25 40.1875 9.734375 44.15625 
Q 7.234375 48.140625 7.234375 53.078125 
Q 7.234375 58.5 10.296875 63.203125 
Q 13.375 67.921875 19.28125 70.359375 
Q 25.203125 72.796875 32.421875 72.796875 
Q 40.375 72.796875 46.453125 70.234375 
Q 52.546875 67.671875 55.8125 62.6875 
Q 59.078125 57.71875 59.328125 51.421875 
L 50.25 50.734375 
Q 49.515625 57.515625 45.28125 60.984375 
Q 41.0625 64.453125 32.8125 64.453125 
Q 24.21875 64.453125 20.28125 61.296875 
Q 16.359375 58.15625 16.359375 53.71875 
Q 16.359375 49.859375 19.140625 47.359375 
Q 21.875 44.875 33.421875 42.265625 
Q 44.96875 39.65625 49.265625 37.703125 
Q 55.515625 34.8125 58.484375 30.390625 
Q 61.46875 25.984375 61.46875 20.21875 
Q 61.46875 14.5 58.203125 9.4375 
Q 54.9375 4.390625 48.796875 1.578125 
Q 42.671875 -1.21875 35.015625 -1.21875 
Q 25.296875 -1.21875 18.71875 1.609375 
Q 12.15625 4.4375 8.421875 10.125 
Q 4.6875 15.828125 4.5 23 
z
" id="ArialMT-53"/>
     <path d="M 7.421875 0 
L 7.421875 71.578125 
L 21.6875 71.578125 
L 38.625 20.90625 
Q 40.96875 13.8125 42.046875 10.296875 
Q 43.265625 14.203125 45.84375 21.78125 
L 62.984375 71.578125 
L 75.734375 71.578125 
L 75.734375 0 
L 66.609375 0 
L 66.609375 59.90625 
L 45.796875 0 
L 37.25 0 
L 16.546875 60.9375 
L 16.546875 0 
z
" id="ArialMT-4d"/>
     <path d="M 4.734375 62.203125 
L 4.734375 70.65625 
L 51.078125 70.65625 
L 51.078125 63.8125 
Q 44.234375 56.546875 37.515625 44.484375 
Q 30.8125 32.421875 27.15625 19.671875 
Q 24.515625 10.6875 23.78125 0 
L 14.75 0 
Q 14.890625 8.453125 18.0625 20.40625 
Q 21.234375 32.375 27.171875 43.484375 
Q 33.109375 54.59375 39.796875 62.203125 
z
" id="ArialMT-37"/>
    </defs>
    <g style="fill:#262626;" transform="translate(68.892812 19.44)scale(0.12 -0.12)">
     <use xlink:href="#ArialMT-4a"/>
     <use x="50" xlink:href="#ArialMT-61"/>
     <use x="105.615234" xlink:href="#ArialMT-67"/>
     <use x="161.230469" xlink:href="#ArialMT-75"/>
     <use x="216.845703" xlink:href="#ArialMT-61"/>
     <use x="272.460938" xlink:href="#ArialMT-72"/>
     <use x="305.761719" xlink:href="#ArialMT-2d"/>
     <use x="339.0625" xlink:href="#ArialMT-6d"/>
     <use x="422.363281" xlink:href="#ArialMT-69"/>
     <use x="444.580078" xlink:href="#ArialMT-63"/>
     <use x="494.580078" xlink:href="#ArialMT-72"/>
     <use x="527.880859" xlink:href="#ArialMT-6f"/>
     <use x="583.496094" xlink:href="#ArialMT-20"/>
     <use x="611.279297" xlink:href="#ArialMT-53"/>
     <use x="677.978516" xlink:href="#ArialMT-4d"/>
     <use x="761.279297" xlink:href="#ArialMT-31"/>
     <use x="816.894531" xlink:href="#ArialMT-37"/>
    </g>
   </g>
  </g>
 </g>
 <defs>
  <clipPath id="p928f26e18f">
   <rect height="150.52" width="164.56" x="38.96" y="25.44"/>
  </clipPath>
 </defs>
</svg>
