<?xml version="1.0" encoding="utf-8" standalone="no"?>
<!DOCTYPE svg PUBLIC "-//W3C//DTD SVG 1.1//EN"
  "http://www.w3.org/Graphics/SVG/1.1/DTD/svg11.dtd">
<!-- Created with matplotlib (http://matplotlib.org/) -->
<svg height="216pt" version="1.1" viewBox="0 0 216 216" width="216pt" xmlns="http://www.w3.org/2000/svg" xmlns:xlink="http://www.w3.org/1999/xlink">
 <defs>
  <style type="text/css">
*{stroke-linecap:butt;stroke-linejoin:round;}
  </style>
 </defs>
 <g id="figure_1">
  <g id="patch_1">
   <path d="M 0 216 
L 216 216 
L 216 0 
L 0 0 
z
" style="fill:#ffffff;"/>
  </g>
  <g id="axes_1">
   <g id="patch_2">
    <path d="M 44.78 175.96 
L 203.52 175.96 
L 203.52 25.44 
L 44.78 25.44 
z
" style="fill:#ffffff;"/>
   </g>
   <g id="matplotlib.axis_1">
    <g id="xtick_1">
     <g id="line2d_1">
      <defs>
       <path d="M 0 0 
L 0 3.5 
" id="m96a54aa09b" style="stroke:#262626;stroke-width:0.8;"/>
      </defs>
      <g>
       <use style="fill:#262626;stroke:#262626;stroke-width:0.8;" x="51.995455" xlink:href="#m96a54aa09b" y="175.96"/>
      </g>
     </g>
     <g id="text_1">
      <!-- 2 -->
      <defs>
       <path d="M 50.34375 8.453125 
L 50.34375 0 
L 3.03125 0 
Q 2.9375 3.171875 4.046875 6.109375 
Q 5.859375 10.9375 9.828125 15.625 
Q 13.8125 20.3125 21.34375 26.46875 
Q 33.015625 36.03125 37.109375 41.625 
Q 41.21875 47.21875 41.21875 52.203125 
Q 41.21875 57.421875 37.46875 61 
Q 33.734375 64.59375 27.734375 64.59375 
Q 21.390625 64.59375 17.578125 60.78125 
Q 13.765625 56.984375 13.71875 50.25 
L 4.6875 51.171875 
Q 5.609375 61.28125 11.65625 66.578125 
Q 17.71875 71.875 27.9375 71.875 
Q 38.234375 71.875 44.234375 66.15625 
Q 50.25 60.453125 50.25 52 
Q 50.25 47.703125 48.484375 43.546875 
Q 46.734375 39.40625 42.65625 34.8125 
Q 38.578125 30.21875 29.109375 22.21875 
Q 21.1875 15.578125 18.9375 13.203125 
Q 16.703125 10.84375 15.234375 8.453125 
z
" id="ArialMT-32"/>
      </defs>
      <g style="fill:#262626;" transform="translate(49.214986 190.117812)scale(0.1 -0.1)">
       <use xlink:href="#ArialMT-32"/>
      </g>
     </g>
    </g>
    <g id="xtick_2">
     <g id="line2d_2">
      <g>
       <use style="fill:#262626;stroke:#262626;stroke-width:0.8;" x="80.857273" xlink:href="#m96a54aa09b" y="175.96"/>
      </g>
     </g>
     <g id="text_2">
      <!-- 4 -->
      <defs>
       <path d="M 32.328125 0 
L 32.328125 17.140625 
L 1.265625 17.140625 
L 1.265625 25.203125 
L 33.9375 71.578125 
L 41.109375 71.578125 
L 41.109375 25.203125 
L 50.78125 25.203125 
L 50.78125 17.140625 
L 41.109375 17.140625 
L 41.109375 0 
z
M 32.328125 25.203125 
L 32.328125 57.46875 
L 9.90625 25.203125 
z
" id="ArialMT-34"/>
      </defs>
      <g style="fill:#262626;" transform="translate(78.076804 190.117812)scale(0.1 -0.1)">
       <use xlink:href="#ArialMT-34"/>
      </g>
     </g>
    </g>
    <g id="xtick_3">
     <g id="line2d_3">
      <g>
       <use style="fill:#262626;stroke:#262626;stroke-width:0.8;" x="109.719091" xlink:href="#m96a54aa09b" y="175.96"/>
      </g>
     </g>
     <g id="text_3">
      <!-- 6 -->
      <defs>
       <path d="M 49.75 54.046875 
L 41.015625 53.375 
Q 39.84375 58.546875 37.703125 60.890625 
Q 34.125 64.65625 28.90625 64.65625 
Q 24.703125 64.65625 21.53125 62.3125 
Q 17.390625 59.28125 14.984375 53.46875 
Q 12.59375 47.65625 12.5 36.921875 
Q 15.671875 41.75 20.265625 44.09375 
Q 24.859375 46.4375 29.890625 46.4375 
Q 38.671875 46.4375 44.84375 39.96875 
Q 51.03125 33.5 51.03125 23.25 
Q 51.03125 16.5 48.125 10.71875 
Q 45.21875 4.9375 40.140625 1.859375 
Q 35.0625 -1.21875 28.609375 -1.21875 
Q 17.625 -1.21875 10.6875 6.859375 
Q 3.765625 14.9375 3.765625 33.5 
Q 3.765625 54.25 11.421875 63.671875 
Q 18.109375 71.875 29.4375 71.875 
Q 37.890625 71.875 43.28125 67.140625 
Q 48.6875 62.40625 49.75 54.046875 
z
M 13.875 23.1875 
Q 13.875 18.65625 15.796875 14.5 
Q 17.71875 10.359375 21.1875 8.171875 
Q 24.65625 6 28.46875 6 
Q 34.03125 6 38.03125 10.484375 
Q 42.046875 14.984375 42.046875 22.703125 
Q 42.046875 30.125 38.078125 34.390625 
Q 34.125 38.671875 28.125 38.671875 
Q 22.171875 38.671875 18.015625 34.390625 
Q 13.875 30.125 13.875 23.1875 
z
" id="ArialMT-36"/>
      </defs>
      <g style="fill:#262626;" transform="translate(106.938622 190.117812)scale(0.1 -0.1)">
       <use xlink:href="#ArialMT-36"/>
      </g>
     </g>
    </g>
    <g id="xtick_4">
     <g id="line2d_4">
      <g>
       <use style="fill:#262626;stroke:#262626;stroke-width:0.8;" x="138.580909" xlink:href="#m96a54aa09b" y="175.96"/>
      </g>
     </g>
     <g id="text_4">
      <!-- 8 -->
      <defs>
       <path d="M 17.671875 38.8125 
Q 12.203125 40.828125 9.5625 44.53125 
Q 6.9375 48.25 6.9375 53.421875 
Q 6.9375 61.234375 12.546875 66.546875 
Q 18.171875 71.875 27.484375 71.875 
Q 36.859375 71.875 42.578125 66.421875 
Q 48.296875 60.984375 48.296875 53.171875 
Q 48.296875 48.1875 45.671875 44.5 
Q 43.0625 40.828125 37.75 38.8125 
Q 44.34375 36.671875 47.78125 31.875 
Q 51.21875 27.09375 51.21875 20.453125 
Q 51.21875 11.28125 44.71875 5.03125 
Q 38.234375 -1.21875 27.640625 -1.21875 
Q 17.046875 -1.21875 10.546875 5.046875 
Q 4.046875 11.328125 4.046875 20.703125 
Q 4.046875 27.6875 7.59375 32.390625 
Q 11.140625 37.109375 17.671875 38.8125 
z
M 15.921875 53.71875 
Q 15.921875 48.640625 19.1875 45.40625 
Q 22.46875 42.1875 27.6875 42.1875 
Q 32.765625 42.1875 36.015625 45.375 
Q 39.265625 48.578125 39.265625 53.21875 
Q 39.265625 58.0625 35.90625 61.359375 
Q 32.5625 64.65625 27.59375 64.65625 
Q 22.5625 64.65625 19.234375 61.421875 
Q 15.921875 58.203125 15.921875 53.71875 
z
M 13.09375 20.65625 
Q 13.09375 16.890625 14.875 13.375 
Q 16.65625 9.859375 20.171875 7.921875 
Q 23.6875 6 27.734375 6 
Q 34.03125 6 38.125 10.046875 
Q 42.234375 14.109375 42.234375 20.359375 
Q 42.234375 26.703125 38.015625 30.859375 
Q 33.796875 35.015625 27.4375 35.015625 
Q 21.234375 35.015625 17.15625 30.90625 
Q 13.09375 26.8125 13.09375 20.65625 
z
" id="ArialMT-38"/>
      </defs>
      <g style="fill:#262626;" transform="translate(135.80044 190.117812)scale(0.1 -0.1)">
       <use xlink:href="#ArialMT-38"/>
      </g>
     </g>
    </g>
    <g id="xtick_5">
     <g id="line2d_5">
      <g>
       <use style="fill:#262626;stroke:#262626;stroke-width:0.8;" x="167.442727" xlink:href="#m96a54aa09b" y="175.96"/>
      </g>
     </g>
     <g id="text_5">
      <!-- 10 -->
      <defs>
       <path d="M 37.25 0 
L 28.46875 0 
L 28.46875 56 
Q 25.296875 52.984375 20.140625 49.953125 
Q 14.984375 46.921875 10.890625 45.40625 
L 10.890625 53.90625 
Q 18.265625 57.375 23.78125 62.296875 
Q 29.296875 67.234375 31.59375 71.875 
L 37.25 71.875 
z
" id="ArialMT-31"/>
       <path d="M 4.15625 35.296875 
Q 4.15625 48 6.765625 55.734375 
Q 9.375 63.484375 14.515625 67.671875 
Q 19.671875 71.875 27.484375 71.875 
Q 33.25 71.875 37.59375 69.546875 
Q 41.9375 67.234375 44.765625 62.859375 
Q 47.609375 58.5 49.21875 52.21875 
Q 50.828125 45.953125 50.828125 35.296875 
Q 50.828125 22.703125 48.234375 14.96875 
Q 45.65625 7.234375 40.5 3 
Q 35.359375 -1.21875 27.484375 -1.21875 
Q 17.140625 -1.21875 11.234375 6.203125 
Q 4.15625 15.140625 4.15625 35.296875 
z
M 13.1875 35.296875 
Q 13.1875 17.671875 17.3125 11.828125 
Q 21.4375 6 27.484375 6 
Q 33.546875 6 37.671875 11.859375 
Q 41.796875 17.71875 41.796875 35.296875 
Q 41.796875 52.984375 37.671875 58.78125 
Q 33.546875 64.59375 27.390625 64.59375 
Q 21.34375 64.59375 17.71875 59.46875 
Q 13.1875 52.9375 13.1875 35.296875 
z
" id="ArialMT-30"/>
      </defs>
      <g style="fill:#262626;" transform="translate(161.88179 190.117812)scale(0.1 -0.1)">
       <use xlink:href="#ArialMT-31"/>
       <use x="55.615234" xlink:href="#ArialMT-30"/>
      </g>
     </g>
    </g>
    <g id="xtick_6">
     <g id="line2d_6">
      <g>
       <use style="fill:#262626;stroke:#262626;stroke-width:0.8;" x="196.304545" xlink:href="#m96a54aa09b" y="175.96"/>
      </g>
     </g>
     <g id="text_6">
      <!-- 12 -->
      <g style="fill:#262626;" transform="translate(190.743608 190.117812)scale(0.1 -0.1)">
       <use xlink:href="#ArialMT-31"/>
       <use x="55.615234" xlink:href="#ArialMT-32"/>
      </g>
     </g>
    </g>
    <g id="text_7">
     <!-- pH -->
     <defs>
      <path d="M 6.59375 -19.875 
L 6.59375 51.859375 
L 14.59375 51.859375 
L 14.59375 45.125 
Q 17.4375 49.078125 21 51.046875 
Q 24.5625 53.03125 29.640625 53.03125 
Q 36.28125 53.03125 41.359375 49.609375 
Q 46.4375 46.1875 49.015625 39.953125 
Q 51.609375 33.734375 51.609375 26.3125 
Q 51.609375 18.359375 48.75 11.984375 
Q 45.90625 5.609375 40.453125 2.21875 
Q 35.015625 -1.171875 29 -1.171875 
Q 24.609375 -1.171875 21.109375 0.6875 
Q 17.625 2.546875 15.375 5.375 
L 15.375 -19.875 
z
M 14.546875 25.640625 
Q 14.546875 15.625 18.59375 10.84375 
Q 22.65625 6.0625 28.421875 6.0625 
Q 34.28125 6.0625 38.453125 11.015625 
Q 42.625 15.96875 42.625 26.375 
Q 42.625 36.28125 38.546875 41.203125 
Q 34.46875 46.140625 28.8125 46.140625 
Q 23.1875 46.140625 18.859375 40.890625 
Q 14.546875 35.640625 14.546875 25.640625 
z
" id="ArialMT-70"/>
      <path d="M 8.015625 0 
L 8.015625 71.578125 
L 17.484375 71.578125 
L 17.484375 42.1875 
L 54.6875 42.1875 
L 54.6875 71.578125 
L 64.15625 71.578125 
L 64.15625 0 
L 54.6875 0 
L 54.6875 33.734375 
L 17.484375 33.734375 
L 17.484375 0 
z
" id="ArialMT-48"/>
     </defs>
     <g style="fill:#262626;" transform="translate(117.758594 203.263125)scale(0.1 -0.1)">
      <use xlink:href="#ArialMT-70"/>
      <use x="55.615234" xlink:href="#ArialMT-48"/>
     </g>
    </g>
   </g>
   <g id="matplotlib.axis_2">
    <g id="ytick_1">
     <g id="line2d_7">
      <defs>
       <path d="M 0 0 
L -3.5 0 
" id="m8677e83ba3" style="stroke:#262626;stroke-width:0.8;"/>
      </defs>
      <g>
       <use style="fill:#262626;stroke:#262626;stroke-width:0.8;" x="44.78" xlink:href="#m8677e83ba3" y="171.406497"/>
      </g>
     </g>
     <g id="text_8">
      <!-- −2 -->
      <defs>
       <path d="M 52.828125 31.203125 
L 5.5625 31.203125 
L 5.5625 39.40625 
L 52.828125 39.40625 
z
" id="ArialMT-2212"/>
      </defs>
      <g style="fill:#262626;" transform="translate(26.378438 174.985403)scale(0.1 -0.1)">
       <use xlink:href="#ArialMT-2212"/>
       <use x="58.398438" xlink:href="#ArialMT-32"/>
      </g>
     </g>
    </g>
    <g id="ytick_2">
     <g id="line2d_8">
      <g>
       <use style="fill:#262626;stroke:#262626;stroke-width:0.8;" x="44.78" xlink:href="#m8677e83ba3" y="130.030248"/>
      </g>
     </g>
     <g id="text_9">
      <!-- −1 -->
      <g style="fill:#262626;" transform="translate(26.378438 133.609154)scale(0.1 -0.1)">
       <use xlink:href="#ArialMT-2212"/>
       <use x="58.398438" xlink:href="#ArialMT-31"/>
      </g>
     </g>
    </g>
    <g id="ytick_3">
     <g id="line2d_9">
      <g>
       <use style="fill:#262626;stroke:#262626;stroke-width:0.8;" x="44.78" xlink:href="#m8677e83ba3" y="88.653999"/>
      </g>
     </g>
     <g id="text_10">
      <!-- 0 -->
      <g style="fill:#262626;" transform="translate(32.219063 92.232905)scale(0.1 -0.1)">
       <use xlink:href="#ArialMT-30"/>
      </g>
     </g>
    </g>
    <g id="ytick_4">
     <g id="line2d_10">
      <g>
       <use style="fill:#262626;stroke:#262626;stroke-width:0.8;" x="44.78" xlink:href="#m8677e83ba3" y="47.27775"/>
      </g>
     </g>
     <g id="text_11">
      <!-- 1 -->
      <g style="fill:#262626;" transform="translate(32.219063 50.856656)scale(0.1 -0.1)">
       <use xlink:href="#ArialMT-31"/>
      </g>
     </g>
    </g>
    <g id="text_12">
     <!-- $\langle q_\mathsf{total} \rangle$ -->
     <defs>
      <path d="M 8.9375 31.34375 
L 22.703125 75.875 
L 31 75.875 
L 17.234375 31.34375 
L 31 -13.1875 
L 22.703125 -13.1875 
z
" id="DejaVuSans-27e8"/>
      <path d="M 41.703125 8.203125 
Q 38.09375 3.46875 33.171875 1.015625 
Q 28.265625 -1.421875 22.3125 -1.421875 
Q 14.015625 -1.421875 9.296875 4.171875 
Q 4.59375 9.765625 4.59375 19.578125 
Q 4.59375 27.484375 7.5 34.859375 
Q 10.40625 42.234375 15.828125 48.09375 
Q 19.34375 51.90625 23.90625 53.953125 
Q 28.46875 56 33.5 56 
Q 39.546875 56 43.453125 53.609375 
Q 47.359375 51.21875 49.125 46.390625 
L 50.6875 54.59375 
L 59.71875 54.59375 
L 45.125 -20.609375 
L 36.078125 -20.609375 
z
M 13.921875 20.90625 
Q 13.921875 13.671875 16.9375 9.890625 
Q 19.96875 6.109375 25.6875 6.109375 
Q 34.1875 6.109375 40.1875 14.234375 
Q 46.1875 22.359375 46.1875 33.984375 
Q 46.1875 41.015625 43.078125 44.75 
Q 39.984375 48.484375 34.1875 48.484375 
Q 29.9375 48.484375 26.3125 46.5 
Q 22.703125 44.53125 20.015625 40.71875 
Q 17.1875 36.71875 15.546875 31.34375 
Q 13.921875 25.984375 13.921875 20.90625 
z
" id="DejaVuSans-Oblique-71"/>
      <path d="M 18.3125 70.21875 
L 18.3125 54.6875 
L 36.8125 54.6875 
L 36.8125 47.703125 
L 18.3125 47.703125 
L 18.3125 18.015625 
Q 18.3125 11.328125 20.140625 9.421875 
Q 21.96875 7.515625 27.59375 7.515625 
L 36.8125 7.515625 
L 36.8125 0 
L 27.59375 0 
Q 17.1875 0 13.234375 3.875 
Q 9.28125 7.765625 9.28125 18.015625 
L 9.28125 47.703125 
L 2.6875 47.703125 
L 2.6875 54.6875 
L 9.28125 54.6875 
L 9.28125 70.21875 
z
" id="DejaVuSans-74"/>
      <path d="M 30.609375 48.390625 
Q 23.390625 48.390625 19.1875 42.75 
Q 14.984375 37.109375 14.984375 27.296875 
Q 14.984375 17.484375 19.15625 11.84375 
Q 23.34375 6.203125 30.609375 6.203125 
Q 37.796875 6.203125 41.984375 11.859375 
Q 46.1875 17.53125 46.1875 27.296875 
Q 46.1875 37.015625 41.984375 42.703125 
Q 37.796875 48.390625 30.609375 48.390625 
z
M 30.609375 56 
Q 42.328125 56 49.015625 48.375 
Q 55.71875 40.765625 55.71875 27.296875 
Q 55.71875 13.875 49.015625 6.21875 
Q 42.328125 -1.421875 30.609375 -1.421875 
Q 18.84375 -1.421875 12.171875 6.21875 
Q 5.515625 13.875 5.515625 27.296875 
Q 5.515625 40.765625 12.171875 48.375 
Q 18.84375 56 30.609375 56 
z
" id="DejaVuSans-6f"/>
      <path d="M 34.28125 27.484375 
Q 23.390625 27.484375 19.1875 25 
Q 14.984375 22.515625 14.984375 16.5 
Q 14.984375 11.71875 18.140625 8.90625 
Q 21.296875 6.109375 26.703125 6.109375 
Q 34.1875 6.109375 38.703125 11.40625 
Q 43.21875 16.703125 43.21875 25.484375 
L 43.21875 27.484375 
z
M 52.203125 31.203125 
L 52.203125 0 
L 43.21875 0 
L 43.21875 8.296875 
Q 40.140625 3.328125 35.546875 0.953125 
Q 30.953125 -1.421875 24.3125 -1.421875 
Q 15.921875 -1.421875 10.953125 3.296875 
Q 6 8.015625 6 15.921875 
Q 6 25.140625 12.171875 29.828125 
Q 18.359375 34.515625 30.609375 34.515625 
L 43.21875 34.515625 
L 43.21875 35.40625 
Q 43.21875 41.609375 39.140625 45 
Q 35.0625 48.390625 27.6875 48.390625 
Q 23 48.390625 18.546875 47.265625 
Q 14.109375 46.140625 10.015625 43.890625 
L 10.015625 52.203125 
Q 14.9375 54.109375 19.578125 55.046875 
Q 24.21875 56 28.609375 56 
Q 40.484375 56 46.34375 49.84375 
Q 52.203125 43.703125 52.203125 31.203125 
z
" id="DejaVuSans-61"/>
      <path d="M 9.421875 75.984375 
L 18.40625 75.984375 
L 18.40625 0 
L 9.421875 0 
z
" id="DejaVuSans-6c"/>
      <path d="M 30.078125 31.34375 
L 16.3125 -13.1875 
L 8.015625 -13.1875 
L 21.78125 31.34375 
L 8.015625 75.875 
L 16.3125 75.875 
z
" id="DejaVuSans-27e9"/>
     </defs>
     <g style="fill:#262626;" transform="translate(20.278438 115.95)rotate(-90)scale(0.1 -0.1)">
      <use transform="translate(0 0.125)" xlink:href="#DejaVuSans-27e8"/>
      <use transform="translate(39.013672 0.125)" xlink:href="#DejaVuSans-Oblique-71"/>
      <use transform="translate(102.490234 -16.28125)scale(0.7)" xlink:href="#DejaVuSans-74"/>
      <use transform="translate(129.936523 -16.28125)scale(0.7)" xlink:href="#DejaVuSans-6f"/>
      <use transform="translate(172.763672 -16.28125)scale(0.7)" xlink:href="#DejaVuSans-74"/>
      <use transform="translate(200.209961 -16.28125)scale(0.7)" xlink:href="#DejaVuSans-61"/>
      <use transform="translate(243.105469 -16.28125)scale(0.7)" xlink:href="#DejaVuSans-6c"/>
      <use transform="translate(265.288086 0.125)" xlink:href="#DejaVuSans-27e9"/>
     </g>
    </g>
   </g>
   <g id="PolyCollection_1">
    <defs>
     <path d="M 51.995455 -183.718182 
L 51.995455 -97.619668 
L 53.438545 -95.972624 
L 54.881636 -94.56978 
L 56.324727 -93.402606 
L 57.767818 -92.451084 
L 59.210909 -91.688283 
L 60.654 -91.084711 
L 62.097091 -90.611792 
L 63.540182 -90.24416 
L 64.983273 -89.960794 
L 66.426364 -89.745232 
L 67.869455 -89.585177 
L 69.312545 -89.471794 
L 70.755636 -89.398947 
L 72.198727 -89.362495 
L 73.641818 -89.359722 
L 75.084909 -89.388922 
L 76.528 -89.449098 
L 77.971091 -89.539775 
L 79.414182 -89.660874 
L 80.857273 -89.812643 
L 82.300364 -89.99561 
L 83.743455 -90.210559 
L 85.186545 -90.458508 
L 86.629636 -90.740694 
L 88.072727 -91.058553 
L 89.515818 -91.413688 
L 90.958909 -91.807837 
L 92.402 -92.242838 
L 93.845091 -92.720578 
L 95.288182 -93.242944 
L 96.731273 -93.811754 
L 98.174364 -94.428661 
L 99.617455 -95.095018 
L 101.060545 -95.81168 
L 102.503636 -96.578744 
L 103.946727 -97.395195 
L 105.389818 -98.258464 
L 106.832909 -99.163847 
L 108.276 -100.103762 
L 109.719091 -101.066784 
L 111.162182 -102.036392 
L 112.605273 -102.9894 
L 114.048364 -103.894091 
L 115.491455 -104.708174 
L 116.934545 -105.376917 
L 118.377636 -105.832174 
L 119.820727 -105.993617 
L 121.263818 -105.774084 
L 122.706909 -105.090669 
L 124.15 -103.880763 
L 125.593091 -102.11787 
L 127.036182 -99.819561 
L 128.479273 -97.043961 
L 129.922364 -93.878374 
L 131.365455 -90.426614 
L 132.808545 -86.798735 
L 134.251636 -83.103318 
L 135.694727 -79.44119 
L 137.137818 -75.900065 
L 138.580909 -72.550403 
L 140.024 -69.443092 
L 141.467091 -66.609281 
L 142.910182 -64.0622 
L 144.353273 -61.800338 
L 145.796364 -59.811264 
L 147.239455 -58.075373 
L 148.682545 -56.569137 
L 150.125636 -55.26761 
L 151.568727 -54.146185 
L 153.011818 -53.181675 
L 154.454909 -52.352886 
L 155.898 -51.640836 
L 157.341091 -51.028762 
L 158.784182 -50.502017 
L 160.227273 -50.047914 
L 161.670364 -49.655562 
L 163.113455 -49.315679 
L 164.556545 -49.020411 
L 165.999636 -48.763144 
L 167.442727 -48.538327 
L 168.885818 -48.341307 
L 170.328909 -48.168173 
L 171.772 -48.01563 
L 173.215091 -47.880879 
L 174.658182 -47.761524 
L 176.101273 -47.65549 
L 177.544364 -47.560962 
L 178.987455 -47.476339 
L 180.430545 -47.400209 
L 181.873636 -47.331335 
L 183.316727 -47.268652 
L 184.759818 -47.211262 
L 186.202909 -47.158429 
L 187.646 -47.109569 
L 189.089091 -47.064229 
L 190.532182 -47.022077 
L 191.975273 -46.982879 
L 193.418364 -46.946487 
L 194.861455 -46.912816 
L 196.304545 -46.881818 
L 196.304545 -125.061385 
L 196.304545 -125.061385 
L 194.861455 -125.031344 
L 193.418364 -124.998879 
L 191.975273 -124.964005 
L 190.532182 -124.926718 
L 189.089091 -124.88697 
L 187.646 -124.844658 
L 186.202909 -124.799609 
L 184.759818 -124.751575 
L 183.316727 -124.700224 
L 181.873636 -124.645142 
L 180.430545 -124.585835 
L 178.987455 -124.521748 
L 177.544364 -124.45228 
L 176.101273 -124.376823 
L 174.658182 -124.294786 
L 173.215091 -124.205621 
L 171.772 -124.108845 
L 170.328909 -124.004062 
L 168.885818 -123.890975 
L 167.442727 -123.769424 
L 165.999636 -123.639423 
L 164.556545 -123.501211 
L 163.113455 -123.355335 
L 161.670364 -123.202755 
L 160.227273 -123.044991 
L 158.784182 -122.884312 
L 157.341091 -122.723978 
L 155.898 -122.568519 
L 154.454909 -122.424039 
L 153.011818 -122.298496 
L 151.568727 -122.201914 
L 150.125636 -122.14647 
L 148.682545 -122.146381 
L 147.239455 -122.217522 
L 145.796364 -122.376674 
L 144.353273 -122.640313 
L 142.910182 -123.022898 
L 141.467091 -123.534701 
L 140.024 -124.179427 
L 138.580909 -124.9521 
L 137.137818 -125.83794 
L 135.694727 -126.813018 
L 134.251636 -127.847318 
L 132.808545 -128.910283 
L 131.365455 -129.978113 
L 129.922364 -131.041193 
L 128.479273 -132.109236 
L 127.036182 -133.211405 
L 125.593091 -134.389245 
L 124.15 -135.682835 
L 122.706909 -137.115085 
L 121.263818 -138.682293 
L 119.820727 -140.35597 
L 118.377636 -142.093243 
L 116.934545 -143.848688 
L 115.491455 -145.58246 
L 114.048364 -147.263812 
L 112.605273 -148.871378 
L 111.162182 -150.391876 
L 109.719091 -151.818318 
L 108.276 -153.148291 
L 106.832909 -154.382525 
L 105.389818 -155.523798 
L 103.946727 -156.576152 
L 102.503636 -157.544352 
L 101.060545 -158.433528 
L 99.617455 -159.248927 
L 98.174364 -159.995749 
L 96.731273 -160.679039 
L 95.288182 -161.30362 
L 93.845091 -161.874075 
L 92.402 -162.394758 
L 90.958909 -162.869823 
L 89.515818 -163.303278 
L 88.072727 -163.699039 
L 86.629636 -164.060994 
L 85.186545 -164.393074 
L 83.743455 -164.699342 
L 82.300364 -164.984095 
L 80.857273 -165.251999 
L 79.414182 -165.508251 
L 77.971091 -165.758769 
L 76.528 -166.010418 
L 75.084909 -166.271263 
L 73.641818 -166.550836 
L 72.198727 -166.860415 
L 70.755636 -167.213271 
L 69.312545 -167.62484 
L 67.869455 -168.112779 
L 66.426364 -168.696809 
L 64.983273 -169.398282 
L 63.540182 -170.239406 
L 62.097091 -171.242074 
L 60.654 -172.426308 
L 59.210909 -173.808363 
L 57.767818 -175.398572 
L 56.324727 -177.19909 
L 54.881636 -179.201698 
L 53.438545 -181.385966 
L 51.995455 -183.718182 
z
" id="ma8d505a74d" style="stroke:#ffffff;stroke-opacity:0.05;"/>
    </defs>
    <g clip-path="url(#pfc16613f51)">
     <use style="fill:#591e71;fill-opacity:0.05;stroke:#ffffff;stroke-opacity:0.05;" x="0" xlink:href="#ma8d505a74d" y="216"/>
    </g>
   </g>
   <g id="line2d_11">
    <path clip-path="url(#pfc16613f51)" d="M 51.995455 75.331075 
L 53.438545 77.320705 
L 54.881636 79.114261 
L 56.324727 80.699152 
L 57.767818 82.075172 
L 59.210909 83.251677 
L 60.654 84.24449 
L 62.097091 85.073067 
L 63.540182 85.758217 
L 64.983273 86.320462 
L 66.426364 86.77898 
L 67.869455 87.151022 
L 69.312545 87.451683 
L 70.755636 87.693891 
L 72.198727 87.888545 
L 73.641818 88.044721 
L 75.084909 88.169908 
L 76.528 88.270242 
L 77.971091 88.350728 
L 79.414182 88.415437 
L 80.857273 88.467679 
L 82.300364 88.510147 
L 83.743455 88.54505 
L 85.186545 88.574209 
L 86.629636 88.599156 
L 88.072727 88.621204 
L 89.515818 88.641517 
L 90.958909 88.66117 
L 92.402 88.681202 
L 93.845091 88.702674 
L 95.288182 88.726718 
L 96.731273 88.754604 
L 98.174364 88.787795 
L 99.617455 88.828028 
L 101.060545 88.877396 
L 102.503636 88.938452 
L 103.946727 89.014327 
L 105.389818 89.108869 
L 106.832909 89.226814 
L 108.276 89.373973 
L 109.719091 89.557449 
L 111.162182 89.785866 
L 112.605273 90.069611 
L 114.048364 90.421049 
L 115.491455 90.854683 
L 116.934545 91.387197 
L 118.377636 92.037291 
L 119.820727 92.825207 
L 121.263818 93.771811 
L 122.706909 94.897123 
L 124.15 96.218201 
L 125.593091 97.746443 
L 127.036182 99.484517 
L 128.479273 101.423402 
L 129.922364 103.540216 
L 131.365455 105.797637 
L 132.808545 108.145491 
L 134.251636 110.524682 
L 135.694727 112.872896 
L 137.137818 115.130997 
L 138.580909 117.248748 
L 140.024 119.188741 
L 141.467091 120.928009 
L 142.910182 122.457451 
L 144.353273 123.779674 
L 145.796364 124.906031 
L 147.239455 125.853552 
L 148.682545 126.642241 
L 150.125636 127.29296 
L 151.568727 127.82595 
L 153.011818 128.259914 
L 154.454909 128.611537 
L 155.898 128.895323 
L 157.341091 129.12363 
L 158.784182 129.306836 
L 160.227273 129.453547 
L 161.670364 129.570841 
L 163.113455 129.664493 
L 164.556545 129.739189 
L 165.999636 129.798717 
L 167.442727 129.846124 
L 168.885818 129.883859 
L 170.328909 129.913883 
L 171.772 129.937762 
L 173.215091 129.95675 
L 174.658182 129.971845 
L 176.101273 129.983843 
L 177.544364 129.993379 
L 178.987455 130.000957 
L 180.430545 130.006978 
L 181.873636 130.011761 
L 183.316727 130.015562 
L 184.759818 130.018582 
L 186.202909 130.020981 
L 187.646 130.022886 
L 189.089091 130.0244 
L 190.532182 130.025603 
L 191.975273 130.026558 
L 193.418364 130.027317 
L 194.861455 130.02792 
L 196.304545 130.028398 
" style="fill:none;opacity:0.9;stroke:#591e71;stroke-linecap:round;stroke-width:1.5;"/>
   </g>
   <g id="line2d_12">
    <path clip-path="url(#pfc16613f51)" d="M 51.995455 59.059598 
L 53.438545 61.091756 
L 54.881636 63.284849 
L 56.324727 65.594745 
L 57.767818 67.966164 
L 59.210909 70.337606 
L 60.654 72.647572 
L 62.097091 74.840785 
L 63.540182 76.873117 
L 64.983273 78.714379 
L 66.426364 80.348778 
L 67.869455 81.773458 
L 69.312545 82.995834 
L 70.755636 84.03051 
L 72.198727 84.896351 
L 73.641818 85.614056 
L 75.084909 86.204377 
L 76.528 86.686932 
L 77.971091 87.07953 
L 79.414182 87.397871 
L 80.857273 87.655499 
L 82.300364 87.863921 
L 83.743455 88.032805 
L 85.186545 88.170224 
L 86.629636 88.282908 
L 88.072727 88.376479 
L 89.515818 88.455677 
L 90.958909 88.524562 
L 92.402 88.586698 
L 93.845091 88.645319 
L 95.288182 88.703486 
L 96.731273 88.764238 
L 98.174364 88.830743 
L 99.617455 88.906446 
L 101.060545 88.995242 
L 102.503636 89.101646 
L 103.946727 89.230993 
L 105.389818 89.389656 
L 106.832909 89.585279 
L 108.276 89.827025 
L 109.719091 90.125826 
L 111.162182 90.494597 
L 112.605273 90.948388 
L 114.048364 91.504392 
L 115.491455 92.181737 
L 116.934545 93.000932 
L 118.377636 93.982852 
L 119.820727 95.147139 
L 121.263818 96.509961 
L 122.706909 98.081219 
L 124.15 99.861449 
L 125.593091 101.838964 
L 127.036182 103.987945 
L 128.479273 106.268261 
L 129.922364 108.627548 
L 131.365455 111.005556 
L 132.808545 113.340108 
L 134.251636 115.573458 
L 135.694727 117.65773 
L 137.137818 119.558396 
L 138.580909 121.255414 
L 140.024 122.742272 
L 141.467091 124.023606 
L 142.910182 125.112164 
L 144.353273 126.025781 
L 145.796364 126.784786 
L 147.239455 127.410016 
L 148.682545 127.921458 
L 150.125636 128.337432 
L 151.568727 128.674186 
L 153.011818 128.94578 
L 154.454909 129.164156 
L 155.898 129.339312 
L 157.341091 129.479526 
L 158.784182 129.591594 
L 160.227273 129.681051 
L 161.670364 129.752389 
L 163.113455 129.809231 
L 164.556545 129.854495 
L 165.999636 129.89052 
L 167.442727 129.919181 
L 168.885818 129.941976 
L 170.328909 129.9601 
L 171.772 129.974508 
L 173.215091 129.98596 
L 174.658182 129.995061 
L 176.101273 130.002293 
L 177.544364 130.008039 
L 178.987455 130.012605 
L 180.430545 130.016232 
L 181.873636 130.019114 
L 183.316727 130.021404 
L 184.759818 130.023222 
L 186.202909 130.024667 
L 187.646 130.025815 
L 189.089091 130.026726 
L 190.532182 130.027451 
L 191.975273 130.028026 
L 193.418364 130.028483 
L 194.861455 130.028846 
L 196.304545 130.029134 
" style="fill:none;opacity:0.7;stroke:#000000;stroke-linecap:round;stroke-width:1.5;"/>
   </g>
   <g id="line2d_13">
    <path clip-path="url(#pfc16613f51)" d="M 51.995455 32.281818 
L 53.438545 34.614034 
L 54.881636 36.798302 
L 56.324727 38.80091 
L 57.767818 40.601428 
L 59.210909 42.191637 
L 60.654 43.573692 
L 62.097091 44.757926 
L 63.540182 45.760594 
L 64.983273 46.601718 
L 66.426364 47.303191 
L 67.869455 47.887221 
L 69.312545 48.37516 
L 70.755636 48.786729 
L 72.198727 49.139585 
L 73.641818 49.449164 
L 75.084909 49.728737 
L 76.528 49.989582 
L 77.971091 50.241231 
L 79.414182 50.491749 
L 80.857273 50.748001 
L 82.300364 51.015905 
L 83.743455 51.300658 
L 85.186545 51.606926 
L 86.629636 51.939006 
L 88.072727 52.300961 
L 89.515818 52.696722 
L 90.958909 53.130177 
L 92.402 53.605242 
L 93.845091 54.125925 
L 95.288182 54.69638 
L 96.731273 55.320961 
L 98.174364 56.004251 
L 99.617455 56.751073 
L 101.060545 57.566472 
L 102.503636 58.455648 
L 103.946727 59.423848 
L 105.389818 60.476202 
L 106.832909 61.617475 
L 108.276 62.851709 
L 109.719091 64.181682 
L 111.162182 65.608124 
L 112.605273 67.128622 
L 114.048364 68.736188 
L 115.491455 70.41754 
L 116.934545 72.151312 
L 118.377636 73.906757 
L 119.820727 75.64403 
L 121.263818 77.317707 
L 122.706909 78.884915 
L 124.15 80.317165 
L 125.593091 81.610755 
L 127.036182 82.788595 
L 128.479273 83.890764 
L 129.922364 84.958807 
L 131.365455 86.021887 
L 132.808545 87.089717 
L 134.251636 88.152682 
L 135.694727 89.186982 
L 137.137818 90.16206 
L 138.580909 91.0479 
L 140.024 91.820573 
L 141.467091 92.465299 
L 142.910182 92.977102 
L 144.353273 93.359687 
L 145.796364 93.623326 
L 147.239455 93.782478 
L 148.682545 93.853619 
L 150.125636 93.85353 
L 151.568727 93.798086 
L 153.011818 93.701504 
L 154.454909 93.575961 
L 155.898 93.431481 
L 157.341091 93.276022 
L 158.784182 93.115688 
L 160.227273 92.955009 
L 161.670364 92.797245 
L 163.113455 92.644665 
L 164.556545 92.498789 
L 165.999636 92.360577 
L 167.442727 92.230576 
L 168.885818 92.109025 
L 170.328909 91.995938 
L 171.772 91.891155 
L 173.215091 91.794379 
L 174.658182 91.705214 
L 176.101273 91.623177 
L 177.544364 91.54772 
L 178.987455 91.478252 
L 180.430545 91.414165 
L 181.873636 91.354858 
L 183.316727 91.299776 
L 184.759818 91.248425 
L 186.202909 91.200391 
L 187.646 91.155342 
L 189.089091 91.11303 
L 190.532182 91.073282 
L 191.975273 91.035995 
L 193.418364 91.001121 
L 194.861455 90.968656 
L 196.304545 90.938615 
" style="fill:none;opacity:0.45;stroke:#591e71;stroke-dasharray:2.775,1.2;stroke-dashoffset:0;stroke-width:0.75;"/>
   </g>
   <g id="line2d_14">
    <path clip-path="url(#pfc16613f51)" d="M 51.995455 118.380332 
L 53.438545 120.027376 
L 54.881636 121.43022 
L 56.324727 122.597394 
L 57.767818 123.548916 
L 59.210909 124.311717 
L 60.654 124.915289 
L 62.097091 125.388208 
L 63.540182 125.75584 
L 64.983273 126.039206 
L 66.426364 126.254768 
L 67.869455 126.414823 
L 69.312545 126.528206 
L 70.755636 126.601053 
L 72.198727 126.637505 
L 73.641818 126.640278 
L 75.084909 126.611078 
L 76.528 126.550902 
L 77.971091 126.460225 
L 79.414182 126.339126 
L 80.857273 126.187357 
L 82.300364 126.00439 
L 83.743455 125.789441 
L 85.186545 125.541492 
L 86.629636 125.259306 
L 88.072727 124.941447 
L 89.515818 124.586312 
L 90.958909 124.192163 
L 92.402 123.757162 
L 93.845091 123.279422 
L 95.288182 122.757056 
L 96.731273 122.188246 
L 98.174364 121.571339 
L 99.617455 120.904982 
L 101.060545 120.18832 
L 102.503636 119.421256 
L 103.946727 118.604805 
L 105.389818 117.741536 
L 106.832909 116.836153 
L 108.276 115.896238 
L 109.719091 114.933216 
L 111.162182 113.963608 
L 112.605273 113.0106 
L 114.048364 112.105909 
L 115.491455 111.291826 
L 116.934545 110.623083 
L 118.377636 110.167826 
L 119.820727 110.006383 
L 121.263818 110.225916 
L 122.706909 110.909331 
L 124.15 112.119237 
L 125.593091 113.88213 
L 127.036182 116.180439 
L 128.479273 118.956039 
L 129.922364 122.121626 
L 131.365455 125.573386 
L 132.808545 129.201265 
L 134.251636 132.896682 
L 135.694727 136.55881 
L 137.137818 140.099935 
L 138.580909 143.449597 
L 140.024 146.556908 
L 141.467091 149.390719 
L 142.910182 151.9378 
L 144.353273 154.199662 
L 145.796364 156.188736 
L 147.239455 157.924627 
L 148.682545 159.430863 
L 150.125636 160.73239 
L 151.568727 161.853815 
L 153.011818 162.818325 
L 154.454909 163.647114 
L 155.898 164.359164 
L 157.341091 164.971238 
L 158.784182 165.497983 
L 160.227273 165.952086 
L 161.670364 166.344438 
L 163.113455 166.684321 
L 164.556545 166.979589 
L 165.999636 167.236856 
L 167.442727 167.461673 
L 168.885818 167.658693 
L 170.328909 167.831827 
L 171.772 167.98437 
L 173.215091 168.119121 
L 174.658182 168.238476 
L 176.101273 168.34451 
L 177.544364 168.439038 
L 178.987455 168.523661 
L 180.430545 168.599791 
L 181.873636 168.668665 
L 183.316727 168.731348 
L 184.759818 168.788738 
L 186.202909 168.841571 
L 187.646 168.890431 
L 189.089091 168.935771 
L 190.532182 168.977923 
L 191.975273 169.017121 
L 193.418364 169.053513 
L 194.861455 169.087184 
L 196.304545 169.118182 
" style="fill:none;opacity:0.45;stroke:#591e71;stroke-dasharray:2.775,1.2;stroke-dashoffset:0;stroke-width:0.75;"/>
   </g>
   <g id="patch_3">
    <path d="M 44.78 175.96 
L 44.78 25.44 
" style="fill:none;stroke:#262626;stroke-linecap:square;stroke-linejoin:miter;stroke-width:0.8;"/>
   </g>
   <g id="patch_4">
    <path d="M 44.78 175.96 
L 203.52 175.96 
" style="fill:none;stroke:#262626;stroke-linecap:square;stroke-linejoin:miter;stroke-width:0.8;"/>
   </g>
   <g id="text_13">
    <!-- Jaguar-macro SM22 -->
    <defs>
     <path d="M 2.875 20.3125 
L 11.421875 21.484375 
Q 11.765625 13.28125 14.5 10.25 
Q 17.234375 7.234375 22.078125 7.234375 
Q 25.640625 7.234375 28.21875 8.859375 
Q 30.8125 10.5 31.78125 13.296875 
Q 32.765625 16.109375 32.765625 22.265625 
L 32.765625 71.578125 
L 42.234375 71.578125 
L 42.234375 22.796875 
Q 42.234375 13.8125 40.0625 8.875 
Q 37.890625 3.953125 33.171875 1.359375 
Q 28.46875 -1.21875 22.125 -1.21875 
Q 12.703125 -1.21875 7.6875 4.203125 
Q 2.6875 9.625 2.875 20.3125 
z
" id="ArialMT-4a"/>
     <path d="M 40.4375 6.390625 
Q 35.546875 2.25 31.03125 0.53125 
Q 26.515625 -1.171875 21.34375 -1.171875 
Q 12.796875 -1.171875 8.203125 3 
Q 3.609375 7.171875 3.609375 13.671875 
Q 3.609375 17.484375 5.34375 20.625 
Q 7.078125 23.78125 9.890625 25.6875 
Q 12.703125 27.59375 16.21875 28.5625 
Q 18.796875 29.25 24.03125 29.890625 
Q 34.671875 31.15625 39.703125 32.90625 
Q 39.75 34.71875 39.75 35.203125 
Q 39.75 40.578125 37.25 42.78125 
Q 33.890625 45.75 27.25 45.75 
Q 21.046875 45.75 18.09375 43.578125 
Q 15.140625 41.40625 13.71875 35.890625 
L 5.125 37.0625 
Q 6.296875 42.578125 8.984375 45.96875 
Q 11.671875 49.359375 16.75 51.1875 
Q 21.828125 53.03125 28.515625 53.03125 
Q 35.15625 53.03125 39.296875 51.46875 
Q 43.453125 49.90625 45.40625 47.53125 
Q 47.359375 45.171875 48.140625 41.546875 
Q 48.578125 39.3125 48.578125 33.453125 
L 48.578125 21.734375 
Q 48.578125 9.46875 49.140625 6.21875 
Q 49.703125 2.984375 51.375 0 
L 42.1875 0 
Q 40.828125 2.734375 40.4375 6.390625 
z
M 39.703125 26.03125 
Q 34.90625 24.078125 25.34375 22.703125 
Q 19.921875 21.921875 17.671875 20.9375 
Q 15.4375 19.96875 14.203125 18.09375 
Q 12.984375 16.21875 12.984375 13.921875 
Q 12.984375 10.40625 15.640625 8.0625 
Q 18.3125 5.71875 23.4375 5.71875 
Q 28.515625 5.71875 32.46875 7.9375 
Q 36.421875 10.15625 38.28125 14.015625 
Q 39.703125 17 39.703125 22.796875 
z
" id="ArialMT-61"/>
     <path d="M 4.984375 -4.296875 
L 13.53125 -5.5625 
Q 14.0625 -9.515625 16.5 -11.328125 
Q 19.78125 -13.765625 25.4375 -13.765625 
Q 31.546875 -13.765625 34.859375 -11.328125 
Q 38.1875 -8.890625 39.359375 -4.5 
Q 40.046875 -1.8125 39.984375 6.78125 
Q 34.234375 0 25.640625 0 
Q 14.9375 0 9.078125 7.71875 
Q 3.21875 15.4375 3.21875 26.21875 
Q 3.21875 33.640625 5.90625 39.90625 
Q 8.59375 46.1875 13.6875 49.609375 
Q 18.796875 53.03125 25.6875 53.03125 
Q 34.859375 53.03125 40.828125 45.609375 
L 40.828125 51.859375 
L 48.921875 51.859375 
L 48.921875 7.03125 
Q 48.921875 -5.078125 46.453125 -10.125 
Q 44 -15.1875 38.640625 -18.109375 
Q 33.296875 -21.046875 25.484375 -21.046875 
Q 16.21875 -21.046875 10.5 -16.875 
Q 4.78125 -12.703125 4.984375 -4.296875 
z
M 12.25 26.859375 
Q 12.25 16.65625 16.296875 11.96875 
Q 20.359375 7.28125 26.46875 7.28125 
Q 32.515625 7.28125 36.609375 11.9375 
Q 40.71875 16.609375 40.71875 26.5625 
Q 40.71875 36.078125 36.5 40.90625 
Q 32.28125 45.75 26.3125 45.75 
Q 20.453125 45.75 16.34375 40.984375 
Q 12.25 36.234375 12.25 26.859375 
z
" id="ArialMT-67"/>
     <path d="M 40.578125 0 
L 40.578125 7.625 
Q 34.515625 -1.171875 24.125 -1.171875 
Q 19.53125 -1.171875 15.546875 0.578125 
Q 11.578125 2.34375 9.640625 5 
Q 7.71875 7.671875 6.9375 11.53125 
Q 6.390625 14.109375 6.390625 19.734375 
L 6.390625 51.859375 
L 15.1875 51.859375 
L 15.1875 23.09375 
Q 15.1875 16.21875 15.71875 13.8125 
Q 16.546875 10.359375 19.234375 8.375 
Q 21.921875 6.390625 25.875 6.390625 
Q 29.828125 6.390625 33.296875 8.421875 
Q 36.765625 10.453125 38.203125 13.9375 
Q 39.65625 17.4375 39.65625 24.078125 
L 39.65625 51.859375 
L 48.4375 51.859375 
L 48.4375 0 
z
" id="ArialMT-75"/>
     <path d="M 6.5 0 
L 6.5 51.859375 
L 14.40625 51.859375 
L 14.40625 44 
Q 17.4375 49.515625 20 51.265625 
Q 22.5625 53.03125 25.640625 53.03125 
Q 30.078125 53.03125 34.671875 50.203125 
L 31.640625 42.046875 
Q 28.421875 43.953125 25.203125 43.953125 
Q 22.3125 43.953125 20.015625 42.21875 
Q 17.71875 40.484375 16.75 37.40625 
Q 15.28125 32.71875 15.28125 27.15625 
L 15.28125 0 
z
" id="ArialMT-72"/>
     <path d="M 3.171875 21.484375 
L 3.171875 30.328125 
L 30.171875 30.328125 
L 30.171875 21.484375 
z
" id="ArialMT-2d"/>
     <path d="M 6.59375 0 
L 6.59375 51.859375 
L 14.453125 51.859375 
L 14.453125 44.578125 
Q 16.890625 48.390625 20.9375 50.703125 
Q 25 53.03125 30.171875 53.03125 
Q 35.9375 53.03125 39.625 50.640625 
Q 43.3125 48.25 44.828125 43.953125 
Q 50.984375 53.03125 60.84375 53.03125 
Q 68.5625 53.03125 72.703125 48.75 
Q 76.859375 44.484375 76.859375 35.59375 
L 76.859375 0 
L 68.109375 0 
L 68.109375 32.671875 
Q 68.109375 37.9375 67.25 40.25 
Q 66.40625 42.578125 64.15625 43.984375 
Q 61.921875 45.40625 58.890625 45.40625 
Q 53.421875 45.40625 49.796875 41.765625 
Q 46.1875 38.140625 46.1875 30.125 
L 46.1875 0 
L 37.40625 0 
L 37.40625 33.6875 
Q 37.40625 39.546875 35.25 42.46875 
Q 33.109375 45.40625 28.21875 45.40625 
Q 24.515625 45.40625 21.359375 43.453125 
Q 18.21875 41.5 16.796875 37.734375 
Q 15.375 33.984375 15.375 26.90625 
L 15.375 0 
z
" id="ArialMT-6d"/>
     <path d="M 40.4375 19 
L 49.078125 17.875 
Q 47.65625 8.9375 41.8125 3.875 
Q 35.984375 -1.171875 27.484375 -1.171875 
Q 16.84375 -1.171875 10.375 5.78125 
Q 3.90625 12.75 3.90625 25.734375 
Q 3.90625 34.125 6.6875 40.421875 
Q 9.46875 46.734375 15.15625 49.875 
Q 20.84375 53.03125 27.546875 53.03125 
Q 35.984375 53.03125 41.359375 48.75 
Q 46.734375 44.484375 48.25 36.625 
L 39.703125 35.296875 
Q 38.484375 40.53125 35.375 43.15625 
Q 32.28125 45.796875 27.875 45.796875 
Q 21.234375 45.796875 17.078125 41.03125 
Q 12.9375 36.28125 12.9375 25.984375 
Q 12.9375 15.53125 16.9375 10.796875 
Q 20.953125 6.0625 27.390625 6.0625 
Q 32.5625 6.0625 36.03125 9.234375 
Q 39.5 12.40625 40.4375 19 
z
" id="ArialMT-63"/>
     <path d="M 3.328125 25.921875 
Q 3.328125 40.328125 11.328125 47.265625 
Q 18.015625 53.03125 27.640625 53.03125 
Q 38.328125 53.03125 45.109375 46.015625 
Q 51.90625 39.015625 51.90625 26.65625 
Q 51.90625 16.65625 48.90625 10.90625 
Q 45.90625 5.171875 40.15625 2 
Q 34.421875 -1.171875 27.640625 -1.171875 
Q 16.75 -1.171875 10.03125 5.8125 
Q 3.328125 12.796875 3.328125 25.921875 
z
M 12.359375 25.921875 
Q 12.359375 15.96875 16.703125 11.015625 
Q 21.046875 6.0625 27.640625 6.0625 
Q 34.1875 6.0625 38.53125 11.03125 
Q 42.875 16.015625 42.875 26.21875 
Q 42.875 35.84375 38.5 40.796875 
Q 34.125 45.75 27.640625 45.75 
Q 21.046875 45.75 16.703125 40.8125 
Q 12.359375 35.890625 12.359375 25.921875 
z
" id="ArialMT-6f"/>
     <path id="ArialMT-20"/>
     <path d="M 4.5 23 
L 13.421875 23.78125 
Q 14.0625 18.40625 16.375 14.96875 
Q 18.703125 11.53125 23.578125 9.40625 
Q 28.46875 7.28125 34.578125 7.28125 
Q 39.984375 7.28125 44.140625 8.890625 
Q 48.296875 10.5 50.3125 13.296875 
Q 52.34375 16.109375 52.34375 19.4375 
Q 52.34375 22.796875 50.390625 25.3125 
Q 48.4375 27.828125 43.953125 29.546875 
Q 41.0625 30.671875 31.203125 33.03125 
Q 21.34375 35.40625 17.390625 37.5 
Q 12.25 40.1875 9.734375 44.15625 
Q 7.234375 48.140625 7.234375 53.078125 
Q 7.234375 58.5 10.296875 63.203125 
Q 13.375 67.921875 19.28125 70.359375 
Q 25.203125 72.796875 32.421875 72.796875 
Q 40.375 72.796875 46.453125 70.234375 
Q 52.546875 67.671875 55.8125 62.6875 
Q 59.078125 57.71875 59.328125 51.421875 
L 50.25 50.734375 
Q 49.515625 57.515625 45.28125 60.984375 
Q 41.0625 64.453125 32.8125 64.453125 
Q 24.21875 64.453125 20.28125 61.296875 
Q 16.359375 58.15625 16.359375 53.71875 
Q 16.359375 49.859375 19.140625 47.359375 
Q 21.875 44.875 33.421875 42.265625 
Q 44.96875 39.65625 49.265625 37.703125 
Q 55.515625 34.8125 58.484375 30.390625 
Q 61.46875 25.984375 61.46875 20.21875 
Q 61.46875 14.5 58.203125 9.4375 
Q 54.9375 4.390625 48.796875 1.578125 
Q 42.671875 -1.21875 35.015625 -1.21875 
Q 25.296875 -1.21875 18.71875 1.609375 
Q 12.15625 4.4375 8.421875 10.125 
Q 4.6875 15.828125 4.5 23 
z
" id="ArialMT-53"/>
     <path d="M 7.421875 0 
L 7.421875 71.578125 
L 21.6875 71.578125 
L 38.625 20.90625 
Q 40.96875 13.8125 42.046875 10.296875 
Q 43.265625 14.203125 45.84375 21.78125 
L 62.984375 71.578125 
L 75.734375 71.578125 
L 75.734375 0 
L 66.609375 0 
L 66.609375 59.90625 
L 45.796875 0 
L 37.25 0 
L 16.546875 60.9375 
L 16.546875 0 
z
" id="ArialMT-4d"/>
    </defs>
    <g style="fill:#262626;" transform="translate(69.799375 19.44)scale(0.12 -0.12)">
     <use xlink:href="#ArialMT-4a"/>
     <use x="50" xlink:href="#ArialMT-61"/>
     <use x="105.615234" xlink:href="#ArialMT-67"/>
     <use x="161.230469" xlink:href="#ArialMT-75"/>
     <use x="216.845703" xlink:href="#ArialMT-61"/>
     <use x="272.460938" xlink:href="#ArialMT-72"/>
     <use x="305.761719" xlink:href="#ArialMT-2d"/>
     <use x="339.0625" xlink:href="#ArialMT-6d"/>
     <use x="422.363281" xlink:href="#ArialMT-61"/>
     <use x="477.978516" xlink:href="#ArialMT-63"/>
     <use x="527.978516" xlink:href="#ArialMT-72"/>
     <use x="561.279297" xlink:href="#ArialMT-6f"/>
     <use x="616.894531" xlink:href="#ArialMT-20"/>
     <use x="644.677734" xlink:href="#ArialMT-53"/>
     <use x="711.376953" xlink:href="#ArialMT-4d"/>
     <use x="794.677734" xlink:href="#ArialMT-32"/>
     <use x="850.292969" xlink:href="#ArialMT-32"/>
    </g>
   </g>
  </g>
 </g>
 <defs>
  <clipPath id="pfc16613f51">
   <rect height="150.52" width="158.74" x="44.78" y="25.44"/>
  </clipPath>
 </defs>
</svg>
