<?xml version="1.0" encoding="utf-8" standalone="no"?>
<!DOCTYPE svg PUBLIC "-//W3C//DTD SVG 1.1//EN"
  "http://www.w3.org/Graphics/SVG/1.1/DTD/svg11.dtd">
<!-- Created with matplotlib (http://matplotlib.org/) -->
<svg height="144pt" version="1.1" viewBox="0 0 144 144" width="144pt" xmlns="http://www.w3.org/2000/svg" xmlns:xlink="http://www.w3.org/1999/xlink">
 <defs>
  <style type="text/css">
*{stroke-linecap:butt;stroke-linejoin:round;}
  </style>
 </defs>
 <g id="figure_1">
  <g id="patch_1">
   <path d="M 0 144 
L 144 144 
L 144 0 
L 0 0 
z
" style="fill:#ffffff;"/>
  </g>
  <g id="axes_1">
   <g id="patch_2">
    <path d="M 47.6 101.92 
L 130.44 101.92 
L 130.44 13.56 
L 47.6 13.56 
z
" style="fill:#ffffff;"/>
   </g>
   <g id="matplotlib.axis_1">
    <g id="xtick_1">
     <g id="line2d_1">
      <defs>
       <path d="M 0 0 
L 0 3.5 
" id="m861757070a" style="stroke:#262626;stroke-width:0.8;"/>
      </defs>
      <g>
       <use style="fill:#262626;stroke:#262626;stroke-width:0.8;" x="51.365455" xlink:href="#m861757070a" y="101.92"/>
      </g>
     </g>
     <g id="text_1">
      <!-- 2 -->
      <defs>
       <path d="M 50.34375 8.453125 
L 50.34375 0 
L 3.03125 0 
Q 2.9375 3.171875 4.046875 6.109375 
Q 5.859375 10.9375 9.828125 15.625 
Q 13.8125 20.3125 21.34375 26.46875 
Q 33.015625 36.03125 37.109375 41.625 
Q 41.21875 47.21875 41.21875 52.203125 
Q 41.21875 57.421875 37.46875 61 
Q 33.734375 64.59375 27.734375 64.59375 
Q 21.390625 64.59375 17.578125 60.78125 
Q 13.765625 56.984375 13.71875 50.25 
L 4.6875 51.171875 
Q 5.609375 61.28125 11.65625 66.578125 
Q 17.71875 71.875 27.9375 71.875 
Q 38.234375 71.875 44.234375 66.15625 
Q 50.25 60.453125 50.25 52 
Q 50.25 47.703125 48.484375 43.546875 
Q 46.734375 39.40625 42.65625 34.8125 
Q 38.578125 30.21875 29.109375 22.21875 
Q 21.1875 15.578125 18.9375 13.203125 
Q 16.703125 10.84375 15.234375 8.453125 
z
" id="ArialMT-32"/>
      </defs>
      <g style="fill:#262626;" transform="translate(48.306939 116.793594)scale(0.11 -0.11)">
       <use xlink:href="#ArialMT-32"/>
      </g>
     </g>
    </g>
    <g id="xtick_2">
     <g id="line2d_2">
      <g>
       <use style="fill:#262626;stroke:#262626;stroke-width:0.8;" x="66.427273" xlink:href="#m861757070a" y="101.92"/>
      </g>
     </g>
     <g id="text_2">
      <!-- 4 -->
      <defs>
       <path d="M 32.328125 0 
L 32.328125 17.140625 
L 1.265625 17.140625 
L 1.265625 25.203125 
L 33.9375 71.578125 
L 41.109375 71.578125 
L 41.109375 25.203125 
L 50.78125 25.203125 
L 50.78125 17.140625 
L 41.109375 17.140625 
L 41.109375 0 
z
M 32.328125 25.203125 
L 32.328125 57.46875 
L 9.90625 25.203125 
z
" id="ArialMT-34"/>
      </defs>
      <g style="fill:#262626;" transform="translate(63.368757 116.793594)scale(0.11 -0.11)">
       <use xlink:href="#ArialMT-34"/>
      </g>
     </g>
    </g>
    <g id="xtick_3">
     <g id="line2d_3">
      <g>
       <use style="fill:#262626;stroke:#262626;stroke-width:0.8;" x="81.489091" xlink:href="#m861757070a" y="101.92"/>
      </g>
     </g>
     <g id="text_3">
      <!-- 6 -->
      <defs>
       <path d="M 49.75 54.046875 
L 41.015625 53.375 
Q 39.84375 58.546875 37.703125 60.890625 
Q 34.125 64.65625 28.90625 64.65625 
Q 24.703125 64.65625 21.53125 62.3125 
Q 17.390625 59.28125 14.984375 53.46875 
Q 12.59375 47.65625 12.5 36.921875 
Q 15.671875 41.75 20.265625 44.09375 
Q 24.859375 46.4375 29.890625 46.4375 
Q 38.671875 46.4375 44.84375 39.96875 
Q 51.03125 33.5 51.03125 23.25 
Q 51.03125 16.5 48.125 10.71875 
Q 45.21875 4.9375 40.140625 1.859375 
Q 35.0625 -1.21875 28.609375 -1.21875 
Q 17.625 -1.21875 10.6875 6.859375 
Q 3.765625 14.9375 3.765625 33.5 
Q 3.765625 54.25 11.421875 63.671875 
Q 18.109375 71.875 29.4375 71.875 
Q 37.890625 71.875 43.28125 67.140625 
Q 48.6875 62.40625 49.75 54.046875 
z
M 13.875 23.1875 
Q 13.875 18.65625 15.796875 14.5 
Q 17.71875 10.359375 21.1875 8.171875 
Q 24.65625 6 28.46875 6 
Q 34.03125 6 38.03125 10.484375 
Q 42.046875 14.984375 42.046875 22.703125 
Q 42.046875 30.125 38.078125 34.390625 
Q 34.125 38.671875 28.125 38.671875 
Q 22.171875 38.671875 18.015625 34.390625 
Q 13.875 30.125 13.875 23.1875 
z
" id="ArialMT-36"/>
      </defs>
      <g style="fill:#262626;" transform="translate(78.430575 116.793594)scale(0.11 -0.11)">
       <use xlink:href="#ArialMT-36"/>
      </g>
     </g>
    </g>
    <g id="xtick_4">
     <g id="line2d_4">
      <g>
       <use style="fill:#262626;stroke:#262626;stroke-width:0.8;" x="96.550909" xlink:href="#m861757070a" y="101.92"/>
      </g>
     </g>
     <g id="text_4">
      <!-- 8 -->
      <defs>
       <path d="M 17.671875 38.8125 
Q 12.203125 40.828125 9.5625 44.53125 
Q 6.9375 48.25 6.9375 53.421875 
Q 6.9375 61.234375 12.546875 66.546875 
Q 18.171875 71.875 27.484375 71.875 
Q 36.859375 71.875 42.578125 66.421875 
Q 48.296875 60.984375 48.296875 53.171875 
Q 48.296875 48.1875 45.671875 44.5 
Q 43.0625 40.828125 37.75 38.8125 
Q 44.34375 36.671875 47.78125 31.875 
Q 51.21875 27.09375 51.21875 20.453125 
Q 51.21875 11.28125 44.71875 5.03125 
Q 38.234375 -1.21875 27.640625 -1.21875 
Q 17.046875 -1.21875 10.546875 5.046875 
Q 4.046875 11.328125 4.046875 20.703125 
Q 4.046875 27.6875 7.59375 32.390625 
Q 11.140625 37.109375 17.671875 38.8125 
z
M 15.921875 53.71875 
Q 15.921875 48.640625 19.1875 45.40625 
Q 22.46875 42.1875 27.6875 42.1875 
Q 32.765625 42.1875 36.015625 45.375 
Q 39.265625 48.578125 39.265625 53.21875 
Q 39.265625 58.0625 35.90625 61.359375 
Q 32.5625 64.65625 27.59375 64.65625 
Q 22.5625 64.65625 19.234375 61.421875 
Q 15.921875 58.203125 15.921875 53.71875 
z
M 13.09375 20.65625 
Q 13.09375 16.890625 14.875 13.375 
Q 16.65625 9.859375 20.171875 7.921875 
Q 23.6875 6 27.734375 6 
Q 34.03125 6 38.125 10.046875 
Q 42.234375 14.109375 42.234375 20.359375 
Q 42.234375 26.703125 38.015625 30.859375 
Q 33.796875 35.015625 27.4375 35.015625 
Q 21.234375 35.015625 17.15625 30.90625 
Q 13.09375 26.8125 13.09375 20.65625 
z
" id="ArialMT-38"/>
      </defs>
      <g style="fill:#262626;" transform="translate(93.492393 116.793594)scale(0.11 -0.11)">
       <use xlink:href="#ArialMT-38"/>
      </g>
     </g>
    </g>
    <g id="xtick_5">
     <g id="line2d_5">
      <g>
       <use style="fill:#262626;stroke:#262626;stroke-width:0.8;" x="111.612727" xlink:href="#m861757070a" y="101.92"/>
      </g>
     </g>
     <g id="text_5">
      <!-- 10 -->
      <defs>
       <path d="M 37.25 0 
L 28.46875 0 
L 28.46875 56 
Q 25.296875 52.984375 20.140625 49.953125 
Q 14.984375 46.921875 10.890625 45.40625 
L 10.890625 53.90625 
Q 18.265625 57.375 23.78125 62.296875 
Q 29.296875 67.234375 31.59375 71.875 
L 37.25 71.875 
z
" id="ArialMT-31"/>
       <path d="M 4.15625 35.296875 
Q 4.15625 48 6.765625 55.734375 
Q 9.375 63.484375 14.515625 67.671875 
Q 19.671875 71.875 27.484375 71.875 
Q 33.25 71.875 37.59375 69.546875 
Q 41.9375 67.234375 44.765625 62.859375 
Q 47.609375 58.5 49.21875 52.21875 
Q 50.828125 45.953125 50.828125 35.296875 
Q 50.828125 22.703125 48.234375 14.96875 
Q 45.65625 7.234375 40.5 3 
Q 35.359375 -1.21875 27.484375 -1.21875 
Q 17.140625 -1.21875 11.234375 6.203125 
Q 4.15625 15.140625 4.15625 35.296875 
z
M 13.1875 35.296875 
Q 13.1875 17.671875 17.3125 11.828125 
Q 21.4375 6 27.484375 6 
Q 33.546875 6 37.671875 11.859375 
Q 41.796875 17.71875 41.796875 35.296875 
Q 41.796875 52.984375 37.671875 58.78125 
Q 33.546875 64.59375 27.390625 64.59375 
Q 21.34375 64.59375 17.71875 59.46875 
Q 13.1875 52.9375 13.1875 35.296875 
z
" id="ArialMT-30"/>
      </defs>
      <g style="fill:#262626;" transform="translate(105.495696 116.793594)scale(0.11 -0.11)">
       <use xlink:href="#ArialMT-31"/>
       <use x="55.615234" xlink:href="#ArialMT-30"/>
      </g>
     </g>
    </g>
    <g id="xtick_6">
     <g id="line2d_6">
      <g>
       <use style="fill:#262626;stroke:#262626;stroke-width:0.8;" x="126.674545" xlink:href="#m861757070a" y="101.92"/>
      </g>
     </g>
     <g id="text_6">
      <!-- 12 -->
      <g style="fill:#262626;" transform="translate(120.557514 116.793594)scale(0.11 -0.11)">
       <use xlink:href="#ArialMT-31"/>
       <use x="55.615234" xlink:href="#ArialMT-32"/>
      </g>
     </g>
    </g>
    <g id="text_7">
     <!-- pH -->
     <defs>
      <path d="M 6.59375 -19.875 
L 6.59375 51.859375 
L 14.59375 51.859375 
L 14.59375 45.125 
Q 17.4375 49.078125 21 51.046875 
Q 24.5625 53.03125 29.640625 53.03125 
Q 36.28125 53.03125 41.359375 49.609375 
Q 46.4375 46.1875 49.015625 39.953125 
Q 51.609375 33.734375 51.609375 26.3125 
Q 51.609375 18.359375 48.75 11.984375 
Q 45.90625 5.609375 40.453125 2.21875 
Q 35.015625 -1.171875 29 -1.171875 
Q 24.609375 -1.171875 21.109375 0.6875 
Q 17.625 2.546875 15.375 5.375 
L 15.375 -19.875 
z
M 14.546875 25.640625 
Q 14.546875 15.625 18.59375 10.84375 
Q 22.65625 6.0625 28.421875 6.0625 
Q 34.28125 6.0625 38.453125 11.015625 
Q 42.625 15.96875 42.625 26.375 
Q 42.625 36.28125 38.546875 41.203125 
Q 34.46875 46.140625 28.8125 46.140625 
Q 23.1875 46.140625 18.859375 40.890625 
Q 14.546875 35.640625 14.546875 25.640625 
z
" id="ArialMT-70"/>
      <path d="M 8.015625 0 
L 8.015625 71.578125 
L 17.484375 71.578125 
L 17.484375 42.1875 
L 54.6875 42.1875 
L 54.6875 71.578125 
L 64.15625 71.578125 
L 64.15625 0 
L 54.6875 0 
L 54.6875 33.734375 
L 17.484375 33.734375 
L 17.484375 0 
z
" id="ArialMT-48"/>
     </defs>
     <g style="fill:#262626;" transform="translate(81.989453 130.853437)scale(0.11 -0.11)">
      <use xlink:href="#ArialMT-70"/>
      <use x="55.615234" xlink:href="#ArialMT-48"/>
     </g>
    </g>
   </g>
   <g id="matplotlib.axis_2">
    <g id="ytick_1">
     <g id="line2d_7">
      <defs>
       <path d="M 0 0 
L -3.5 0 
" id="m5ca211487b" style="stroke:#262626;stroke-width:0.8;"/>
      </defs>
      <g>
       <use style="fill:#262626;stroke:#262626;stroke-width:0.8;" x="47.6" xlink:href="#m5ca211487b" y="78.107558"/>
      </g>
     </g>
     <g id="text_8">
      <!-- 0 -->
      <g style="fill:#262626;" transform="translate(34.482969 82.044355)scale(0.11 -0.11)">
       <use xlink:href="#ArialMT-30"/>
      </g>
     </g>
    </g>
    <g id="ytick_2">
     <g id="line2d_8">
      <g>
       <use style="fill:#262626;stroke:#262626;stroke-width:0.8;" x="47.6" xlink:href="#m5ca211487b" y="53.288484"/>
      </g>
     </g>
     <g id="text_9">
      <!-- 25 -->
      <defs>
       <path d="M 4.15625 18.75 
L 13.375 19.53125 
Q 14.40625 12.796875 18.140625 9.390625 
Q 21.875 6 27.15625 6 
Q 33.5 6 37.890625 10.78125 
Q 42.28125 15.578125 42.28125 23.484375 
Q 42.28125 31 38.0625 35.34375 
Q 33.84375 39.703125 27 39.703125 
Q 22.75 39.703125 19.328125 37.765625 
Q 15.921875 35.84375 13.96875 32.765625 
L 5.71875 33.84375 
L 12.640625 70.609375 
L 48.25 70.609375 
L 48.25 62.203125 
L 19.671875 62.203125 
L 15.828125 42.96875 
Q 22.265625 47.46875 29.34375 47.46875 
Q 38.71875 47.46875 45.15625 40.96875 
Q 51.609375 34.46875 51.609375 24.265625 
Q 51.609375 14.546875 45.953125 7.46875 
Q 39.0625 -1.21875 27.15625 -1.21875 
Q 17.390625 -1.21875 11.203125 4.25 
Q 5.03125 9.71875 4.15625 18.75 
z
" id="ArialMT-35"/>
      </defs>
      <g style="fill:#262626;" transform="translate(28.365938 57.225281)scale(0.11 -0.11)">
       <use xlink:href="#ArialMT-32"/>
       <use x="55.615234" xlink:href="#ArialMT-35"/>
      </g>
     </g>
    </g>
    <g id="ytick_3">
     <g id="line2d_9">
      <g>
       <use style="fill:#262626;stroke:#262626;stroke-width:0.8;" x="47.6" xlink:href="#m5ca211487b" y="28.469409"/>
      </g>
     </g>
     <g id="text_10">
      <!-- 50 -->
      <g style="fill:#262626;" transform="translate(28.365938 32.406206)scale(0.11 -0.11)">
       <use xlink:href="#ArialMT-35"/>
       <use x="55.615234" xlink:href="#ArialMT-30"/>
      </g>
     </g>
    </g>
    <g id="text_11">
     <!-- Free energy ($k_B T$) -->
     <defs>
      <path d="M 8.203125 0 
L 8.203125 71.578125 
L 56.5 71.578125 
L 56.5 63.140625 
L 17.671875 63.140625 
L 17.671875 40.96875 
L 51.265625 40.96875 
L 51.265625 32.515625 
L 17.671875 32.515625 
L 17.671875 0 
z
" id="ArialMT-46"/>
      <path d="M 6.5 0 
L 6.5 51.859375 
L 14.40625 51.859375 
L 14.40625 44 
Q 17.4375 49.515625 20 51.265625 
Q 22.5625 53.03125 25.640625 53.03125 
Q 30.078125 53.03125 34.671875 50.203125 
L 31.640625 42.046875 
Q 28.421875 43.953125 25.203125 43.953125 
Q 22.3125 43.953125 20.015625 42.21875 
Q 17.71875 40.484375 16.75 37.40625 
Q 15.28125 32.71875 15.28125 27.15625 
L 15.28125 0 
z
" id="ArialMT-72"/>
      <path d="M 42.09375 16.703125 
L 51.171875 15.578125 
Q 49.03125 7.625 43.21875 3.21875 
Q 37.40625 -1.171875 28.375 -1.171875 
Q 17 -1.171875 10.328125 5.828125 
Q 3.65625 12.84375 3.65625 25.484375 
Q 3.65625 38.578125 10.390625 45.796875 
Q 17.140625 53.03125 27.875 53.03125 
Q 38.28125 53.03125 44.875 45.953125 
Q 51.46875 38.875 51.46875 26.03125 
Q 51.46875 25.25 51.421875 23.6875 
L 12.75 23.6875 
Q 13.234375 15.140625 17.578125 10.59375 
Q 21.921875 6.0625 28.421875 6.0625 
Q 33.25 6.0625 36.671875 8.59375 
Q 40.09375 11.140625 42.09375 16.703125 
z
M 13.234375 30.90625 
L 42.1875 30.90625 
Q 41.609375 37.453125 38.875 40.71875 
Q 34.671875 45.796875 27.984375 45.796875 
Q 21.921875 45.796875 17.796875 41.75 
Q 13.671875 37.703125 13.234375 30.90625 
z
" id="ArialMT-65"/>
      <path id="ArialMT-20"/>
      <path d="M 6.59375 0 
L 6.59375 51.859375 
L 14.5 51.859375 
L 14.5 44.484375 
Q 20.21875 53.03125 31 53.03125 
Q 35.6875 53.03125 39.625 51.34375 
Q 43.5625 49.65625 45.515625 46.921875 
Q 47.46875 44.1875 48.25 40.4375 
Q 48.734375 37.984375 48.734375 31.890625 
L 48.734375 0 
L 39.9375 0 
L 39.9375 31.546875 
Q 39.9375 36.921875 38.90625 39.578125 
Q 37.890625 42.234375 35.28125 43.8125 
Q 32.671875 45.40625 29.15625 45.40625 
Q 23.53125 45.40625 19.453125 41.84375 
Q 15.375 38.28125 15.375 28.328125 
L 15.375 0 
z
" id="ArialMT-6e"/>
      <path d="M 4.984375 -4.296875 
L 13.53125 -5.5625 
Q 14.0625 -9.515625 16.5 -11.328125 
Q 19.78125 -13.765625 25.4375 -13.765625 
Q 31.546875 -13.765625 34.859375 -11.328125 
Q 38.1875 -8.890625 39.359375 -4.5 
Q 40.046875 -1.8125 39.984375 6.78125 
Q 34.234375 0 25.640625 0 
Q 14.9375 0 9.078125 7.71875 
Q 3.21875 15.4375 3.21875 26.21875 
Q 3.21875 33.640625 5.90625 39.90625 
Q 8.59375 46.1875 13.6875 49.609375 
Q 18.796875 53.03125 25.6875 53.03125 
Q 34.859375 53.03125 40.828125 45.609375 
L 40.828125 51.859375 
L 48.921875 51.859375 
L 48.921875 7.03125 
Q 48.921875 -5.078125 46.453125 -10.125 
Q 44 -15.1875 38.640625 -18.109375 
Q 33.296875 -21.046875 25.484375 -21.046875 
Q 16.21875 -21.046875 10.5 -16.875 
Q 4.78125 -12.703125 4.984375 -4.296875 
z
M 12.25 26.859375 
Q 12.25 16.65625 16.296875 11.96875 
Q 20.359375 7.28125 26.46875 7.28125 
Q 32.515625 7.28125 36.609375 11.9375 
Q 40.71875 16.609375 40.71875 26.5625 
Q 40.71875 36.078125 36.5 40.90625 
Q 32.28125 45.75 26.3125 45.75 
Q 20.453125 45.75 16.34375 40.984375 
Q 12.25 36.234375 12.25 26.859375 
z
" id="ArialMT-67"/>
      <path d="M 6.203125 -19.96875 
L 5.21875 -11.71875 
Q 8.109375 -12.5 10.25 -12.5 
Q 13.1875 -12.5 14.9375 -11.515625 
Q 16.703125 -10.546875 17.828125 -8.796875 
Q 18.65625 -7.46875 20.515625 -2.25 
Q 20.75 -1.515625 21.296875 -0.09375 
L 1.609375 51.859375 
L 11.078125 51.859375 
L 21.875 21.828125 
Q 23.96875 16.109375 25.640625 9.8125 
Q 27.15625 15.875 29.25 21.625 
L 40.328125 51.859375 
L 49.125 51.859375 
L 29.390625 -0.875 
Q 26.21875 -9.421875 24.46875 -12.640625 
Q 22.125 -17 19.09375 -19.015625 
Q 16.0625 -21.046875 11.859375 -21.046875 
Q 9.328125 -21.046875 6.203125 -19.96875 
z
" id="ArialMT-79"/>
      <path d="M 23.390625 -21.046875 
Q 16.109375 -11.859375 11.078125 0.4375 
Q 6.0625 12.75 6.0625 25.921875 
Q 6.0625 37.546875 9.8125 48.1875 
Q 14.203125 60.546875 23.390625 72.796875 
L 29.6875 72.796875 
Q 23.78125 62.640625 21.875 58.296875 
Q 18.890625 51.5625 17.1875 44.234375 
Q 15.09375 35.109375 15.09375 25.875 
Q 15.09375 2.390625 29.6875 -21.046875 
z
" id="ArialMT-28"/>
      <path d="M 18.3125 75.984375 
L 27.296875 75.984375 
L 18.703125 31.6875 
L 49.515625 54.6875 
L 61.1875 54.6875 
L 26.8125 28.515625 
L 51.90625 0 
L 41.015625 0 
L 17.671875 26.703125 
L 12.5 0 
L 3.515625 0 
z
" id="DejaVuSans-Oblique-6b"/>
      <path d="M 16.890625 72.90625 
L 42.09375 72.90625 
Q 52.34375 72.90625 57.421875 69.09375 
Q 62.5 65.28125 62.5 57.625 
Q 62.5 50.59375 58.125 45.484375 
Q 53.765625 40.375 46.6875 39.3125 
Q 52.734375 37.9375 55.765625 34.078125 
Q 58.796875 30.21875 58.796875 23.78125 
Q 58.796875 12.796875 50.65625 6.390625 
Q 42.53125 0 28.421875 0 
L 2.6875 0 
z
M 19.28125 34.8125 
L 14.109375 8.109375 
L 29.984375 8.109375 
Q 38.921875 8.109375 43.75 12.203125 
Q 48.578125 16.3125 48.578125 23.78125 
Q 48.578125 29.546875 45.375 32.171875 
Q 42.1875 34.8125 35.109375 34.8125 
z
M 25.09375 64.796875 
L 20.796875 42.828125 
L 35.5 42.828125 
Q 43.359375 42.828125 47.78125 46.234375 
Q 52.203125 49.65625 52.203125 55.71875 
Q 52.203125 60.453125 49.21875 62.625 
Q 46.234375 64.796875 39.703125 64.796875 
z
" id="DejaVuSans-Oblique-42"/>
      <path d="M 5.90625 72.90625 
L 67.578125 72.90625 
L 66.015625 64.59375 
L 39.984375 64.59375 
L 27.484375 0 
L 17.578125 0 
L 30.078125 64.59375 
L 4.296875 64.59375 
z
" id="DejaVuSans-Oblique-54"/>
      <path d="M 12.359375 -21.046875 
L 6.0625 -21.046875 
Q 20.65625 2.390625 20.65625 25.875 
Q 20.65625 35.0625 18.5625 44.09375 
Q 16.890625 51.421875 13.921875 58.15625 
Q 12.015625 62.546875 6.0625 72.796875 
L 12.359375 72.796875 
Q 21.53125 60.546875 25.921875 48.1875 
Q 29.6875 37.546875 29.6875 25.921875 
Q 29.6875 12.75 24.625 0.4375 
Q 19.578125 -11.859375 12.359375 -21.046875 
z
" id="ArialMT-29"/>
     </defs>
     <g style="fill:#262626;" transform="translate(21.945938 101.96)rotate(-90)scale(0.11 -0.11)">
      <use transform="translate(0 0.015625)" xlink:href="#ArialMT-46"/>
      <use transform="translate(61.083984 0.015625)" xlink:href="#ArialMT-72"/>
      <use transform="translate(94.384766 0.015625)" xlink:href="#ArialMT-65"/>
      <use transform="translate(150 0.015625)" xlink:href="#ArialMT-65"/>
      <use transform="translate(205.615234 0.015625)" xlink:href="#ArialMT-20"/>
      <use transform="translate(233.398438 0.015625)" xlink:href="#ArialMT-65"/>
      <use transform="translate(289.013672 0.015625)" xlink:href="#ArialMT-6e"/>
      <use transform="translate(344.628906 0.015625)" xlink:href="#ArialMT-65"/>
      <use transform="translate(400.244141 0.015625)" xlink:href="#ArialMT-72"/>
      <use transform="translate(433.544922 0.015625)" xlink:href="#ArialMT-67"/>
      <use transform="translate(489.160156 0.015625)" xlink:href="#ArialMT-79"/>
      <use transform="translate(539.160156 0.015625)" xlink:href="#ArialMT-20"/>
      <use transform="translate(566.943359 0.015625)" xlink:href="#ArialMT-28"/>
      <use transform="translate(600.244141 0.015625)" xlink:href="#DejaVuSans-Oblique-6b"/>
      <use transform="translate(658.154297 -16.390625)scale(0.7)" xlink:href="#DejaVuSans-Oblique-42"/>
      <use transform="translate(708.911133 0.015625)" xlink:href="#DejaVuSans-Oblique-54"/>
      <use transform="translate(769.995117 0.015625)" xlink:href="#ArialMT-29"/>
     </g>
    </g>
   </g>
   <g id="patch_3">
    <path d="M 47.6 101.92 
L 47.6 13.56 
" style="fill:none;stroke:#262626;stroke-linecap:square;stroke-linejoin:miter;stroke-width:0.8;"/>
   </g>
   <g id="patch_4">
    <path d="M 47.6 101.92 
L 130.44 101.92 
" style="fill:none;stroke:#262626;stroke-linecap:square;stroke-linejoin:miter;stroke-width:0.8;"/>
   </g>
   <g id="line2d_10">
    <path clip-path="url(#pe4ed3866c1)" d="M 51.365455 17.576364 
L 52.118545 18.26214 
L 52.871636 18.947916 
L 53.624727 19.633693 
L 54.377818 20.319469 
L 55.130909 21.005246 
L 55.884 21.691022 
L 56.637091 22.376798 
L 57.390182 23.062575 
L 58.143273 23.748351 
L 58.896364 24.434127 
L 59.649455 25.119904 
L 60.402545 25.80568 
L 61.155636 26.491457 
L 61.908727 27.177233 
L 62.661818 27.863009 
L 63.414909 28.548786 
L 64.168 29.234562 
L 64.921091 29.920338 
L 65.674182 30.606115 
L 66.427273 31.291891 
L 67.180364 31.977668 
L 67.933455 32.663444 
L 68.686545 33.34922 
L 69.439636 34.034997 
L 70.192727 34.720773 
L 70.945818 35.406549 
L 71.698909 36.092326 
L 72.452 36.778102 
L 73.205091 37.463879 
L 73.958182 38.149655 
L 74.711273 38.835431 
L 75.464364 39.521208 
L 76.217455 40.206984 
L 76.970545 40.89276 
L 77.723636 41.578537 
L 78.476727 42.264313 
L 79.229818 42.95009 
L 79.982909 43.635866 
L 80.736 44.321642 
L 81.489091 45.007419 
L 82.242182 45.693195 
L 82.995273 46.378971 
L 83.748364 47.064748 
L 84.501455 47.750524 
L 85.254545 48.436301 
L 86.007636 49.122077 
L 86.760727 49.807853 
L 87.513818 50.49363 
L 88.266909 51.179406 
L 89.02 51.865182 
L 89.773091 52.550959 
L 90.526182 53.236735 
L 91.279273 53.922512 
L 92.032364 54.608288 
L 92.785455 55.294064 
L 93.538545 55.979841 
L 94.291636 56.665617 
L 95.044727 57.351393 
L 95.797818 58.03717 
L 96.550909 58.722946 
L 97.304 59.408723 
L 98.057091 60.094499 
L 98.810182 60.780275 
L 99.563273 61.466052 
L 100.316364 62.151828 
L 101.069455 62.837604 
L 101.822545 63.523381 
L 102.575636 64.209157 
L 103.328727 64.894934 
L 104.081818 65.58071 
L 104.834909 66.266486 
L 105.588 66.952263 
L 106.341091 67.638039 
L 107.094182 68.323815 
L 107.847273 69.009592 
L 108.600364 69.695368 
L 109.353455 70.381145 
L 110.106545 71.066921 
L 110.859636 71.752697 
L 111.612727 72.438474 
L 112.365818 73.12425 
L 113.118909 73.810026 
L 113.872 74.495803 
L 114.625091 75.181579 
L 115.378182 75.867356 
L 116.131273 76.553132 
L 116.884364 77.238908 
L 117.637455 77.924685 
L 118.390545 78.610461 
L 119.143636 79.296237 
L 119.896727 79.982014 
L 120.649818 80.66779 
L 121.402909 81.353567 
L 122.156 82.039343 
L 122.909091 82.725119 
L 123.662182 83.410896 
L 124.415273 84.096672 
L 125.168364 84.782448 
L 125.921455 85.468225 
L 126.674545 86.154001 
" style="fill:none;stroke:#d6604d;stroke-linecap:round;stroke-width:1.5;"/>
   </g>
   <g id="line2d_11">
    <path clip-path="url(#pe4ed3866c1)" d="M 51.365455 56.459884 
L 52.118545 56.459884 
L 52.871636 56.459884 
L 53.624727 56.459884 
L 54.377818 56.459884 
L 55.130909 56.459884 
L 55.884 56.459884 
L 56.637091 56.459884 
L 57.390182 56.459884 
L 58.143273 56.459884 
L 58.896364 56.459884 
L 59.649455 56.459884 
L 60.402545 56.459884 
L 61.155636 56.459884 
L 61.908727 56.459884 
L 62.661818 56.459884 
L 63.414909 56.459884 
L 64.168 56.459884 
L 64.921091 56.459884 
L 65.674182 56.459884 
L 66.427273 56.459884 
L 67.180364 56.459884 
L 67.933455 56.459884 
L 68.686545 56.459884 
L 69.439636 56.459884 
L 70.192727 56.459884 
L 70.945818 56.459884 
L 71.698909 56.459884 
L 72.452 56.459884 
L 73.205091 56.459884 
L 73.958182 56.459884 
L 74.711273 56.459884 
L 75.464364 56.459884 
L 76.217455 56.459884 
L 76.970545 56.459884 
L 77.723636 56.459884 
L 78.476727 56.459884 
L 79.229818 56.459884 
L 79.982909 56.459884 
L 80.736 56.459884 
L 81.489091 56.459884 
L 82.242182 56.459884 
L 82.995273 56.459884 
L 83.748364 56.459884 
L 84.501455 56.459884 
L 85.254545 56.459884 
L 86.007636 56.459884 
L 86.760727 56.459884 
L 87.513818 56.459884 
L 88.266909 56.459884 
L 89.02 56.459884 
L 89.773091 56.459884 
L 90.526182 56.459884 
L 91.279273 56.459884 
L 92.032364 56.459884 
L 92.785455 56.459884 
L 93.538545 56.459884 
L 94.291636 56.459884 
L 95.044727 56.459884 
L 95.797818 56.459884 
L 96.550909 56.459884 
L 97.304 56.459884 
L 98.057091 56.459884 
L 98.810182 56.459884 
L 99.563273 56.459884 
L 100.316364 56.459884 
L 101.069455 56.459884 
L 101.822545 56.459884 
L 102.575636 56.459884 
L 103.328727 56.459884 
L 104.081818 56.459884 
L 104.834909 56.459884 
L 105.588 56.459884 
L 106.341091 56.459884 
L 107.094182 56.459884 
L 107.847273 56.459884 
L 108.600364 56.459884 
L 109.353455 56.459884 
L 110.106545 56.459884 
L 110.859636 56.459884 
L 111.612727 56.459884 
L 112.365818 56.459884 
L 113.118909 56.459884 
L 113.872 56.459884 
L 114.625091 56.459884 
L 115.378182 56.459884 
L 116.131273 56.459884 
L 116.884364 56.459884 
L 117.637455 56.459884 
L 118.390545 56.459884 
L 119.143636 56.459884 
L 119.896727 56.459884 
L 120.649818 56.459884 
L 121.402909 56.459884 
L 122.156 56.459884 
L 122.909091 56.459884 
L 123.662182 56.459884 
L 124.415273 56.459884 
L 125.168364 56.459884 
L 125.921455 56.459884 
L 126.674545 56.459884 
" style="fill:none;stroke:#92c5de;stroke-linecap:round;stroke-width:1.5;"/>
   </g>
   <g id="line2d_12">
    <path clip-path="url(#pe4ed3866c1)" d="M 51.365455 59.363004 
L 52.118545 59.363004 
L 52.871636 59.363004 
L 53.624727 59.363004 
L 54.377818 59.363004 
L 55.130909 59.363004 
L 55.884 59.363004 
L 56.637091 59.363004 
L 57.390182 59.363004 
L 58.143273 59.363004 
L 58.896364 59.363004 
L 59.649455 59.363004 
L 60.402545 59.363004 
L 61.155636 59.363004 
L 61.908727 59.363004 
L 62.661818 59.363004 
L 63.414909 59.363004 
L 64.168 59.363004 
L 64.921091 59.363004 
L 65.674182 59.363004 
L 66.427273 59.363004 
L 67.180364 59.363004 
L 67.933455 59.363004 
L 68.686545 59.363004 
L 69.439636 59.363004 
L 70.192727 59.363004 
L 70.945818 59.363004 
L 71.698909 59.363004 
L 72.452 59.363004 
L 73.205091 59.363004 
L 73.958182 59.363004 
L 74.711273 59.363004 
L 75.464364 59.363004 
L 76.217455 59.363004 
L 76.970545 59.363004 
L 77.723636 59.363004 
L 78.476727 59.363004 
L 79.229818 59.363004 
L 79.982909 59.363004 
L 80.736 59.363004 
L 81.489091 59.363004 
L 82.242182 59.363004 
L 82.995273 59.363004 
L 83.748364 59.363004 
L 84.501455 59.363004 
L 85.254545 59.363004 
L 86.007636 59.363004 
L 86.760727 59.363004 
L 87.513818 59.363004 
L 88.266909 59.363004 
L 89.02 59.363004 
L 89.773091 59.363004 
L 90.526182 59.363004 
L 91.279273 59.363004 
L 92.032364 59.363004 
L 92.785455 59.363004 
L 93.538545 59.363004 
L 94.291636 59.363004 
L 95.044727 59.363004 
L 95.797818 59.363004 
L 96.550909 59.363004 
L 97.304 59.363004 
L 98.057091 59.363004 
L 98.810182 59.363004 
L 99.563273 59.363004 
L 100.316364 59.363004 
L 101.069455 59.363004 
L 101.822545 59.363004 
L 102.575636 59.363004 
L 103.328727 59.363004 
L 104.081818 59.363004 
L 104.834909 59.363004 
L 105.588 59.363004 
L 106.341091 59.363004 
L 107.094182 59.363004 
L 107.847273 59.363004 
L 108.600364 59.363004 
L 109.353455 59.363004 
L 110.106545 59.363004 
L 110.859636 59.363004 
L 111.612727 59.363004 
L 112.365818 59.363004 
L 113.118909 59.363004 
L 113.872 59.363004 
L 114.625091 59.363004 
L 115.378182 59.363004 
L 116.131273 59.363004 
L 116.884364 59.363004 
L 117.637455 59.363004 
L 118.390545 59.363004 
L 119.143636 59.363004 
L 119.896727 59.363004 
L 120.649818 59.363004 
L 121.402909 59.363004 
L 122.156 59.363004 
L 122.909091 59.363004 
L 123.662182 59.363004 
L 124.415273 59.363004 
L 125.168364 59.363004 
L 125.921455 59.363004 
L 126.674545 59.363004 
" style="fill:none;stroke:#92c5de;stroke-linecap:round;stroke-width:1.5;"/>
   </g>
   <g id="line2d_13">
    <path clip-path="url(#pe4ed3866c1)" d="M 51.365455 72.781362 
L 52.118545 72.781362 
L 52.871636 72.781362 
L 53.624727 72.781362 
L 54.377818 72.781362 
L 55.130909 72.781362 
L 55.884 72.781362 
L 56.637091 72.781362 
L 57.390182 72.781362 
L 58.143273 72.781362 
L 58.896364 72.781362 
L 59.649455 72.781362 
L 60.402545 72.781362 
L 61.155636 72.781362 
L 61.908727 72.781362 
L 62.661818 72.781362 
L 63.414909 72.781362 
L 64.168 72.781362 
L 64.921091 72.781362 
L 65.674182 72.781362 
L 66.427273 72.781362 
L 67.180364 72.781362 
L 67.933455 72.781362 
L 68.686545 72.781362 
L 69.439636 72.781362 
L 70.192727 72.781362 
L 70.945818 72.781362 
L 71.698909 72.781362 
L 72.452 72.781362 
L 73.205091 72.781362 
L 73.958182 72.781362 
L 74.711273 72.781362 
L 75.464364 72.781362 
L 76.217455 72.781362 
L 76.970545 72.781362 
L 77.723636 72.781362 
L 78.476727 72.781362 
L 79.229818 72.781362 
L 79.982909 72.781362 
L 80.736 72.781362 
L 81.489091 72.781362 
L 82.242182 72.781362 
L 82.995273 72.781362 
L 83.748364 72.781362 
L 84.501455 72.781362 
L 85.254545 72.781362 
L 86.007636 72.781362 
L 86.760727 72.781362 
L 87.513818 72.781362 
L 88.266909 72.781362 
L 89.02 72.781362 
L 89.773091 72.781362 
L 90.526182 72.781362 
L 91.279273 72.781362 
L 92.032364 72.781362 
L 92.785455 72.781362 
L 93.538545 72.781362 
L 94.291636 72.781362 
L 95.044727 72.781362 
L 95.797818 72.781362 
L 96.550909 72.781362 
L 97.304 72.781362 
L 98.057091 72.781362 
L 98.810182 72.781362 
L 99.563273 72.781362 
L 100.316364 72.781362 
L 101.069455 72.781362 
L 101.822545 72.781362 
L 102.575636 72.781362 
L 103.328727 72.781362 
L 104.081818 72.781362 
L 104.834909 72.781362 
L 105.588 72.781362 
L 106.341091 72.781362 
L 107.094182 72.781362 
L 107.847273 72.781362 
L 108.600364 72.781362 
L 109.353455 72.781362 
L 110.106545 72.781362 
L 110.859636 72.781362 
L 111.612727 72.781362 
L 112.365818 72.781362 
L 113.118909 72.781362 
L 113.872 72.781362 
L 114.625091 72.781362 
L 115.378182 72.781362 
L 116.131273 72.781362 
L 116.884364 72.781362 
L 117.637455 72.781362 
L 118.390545 72.781362 
L 119.143636 72.781362 
L 119.896727 72.781362 
L 120.649818 72.781362 
L 121.402909 72.781362 
L 122.156 72.781362 
L 122.909091 72.781362 
L 123.662182 72.781362 
L 124.415273 72.781362 
L 125.168364 72.781362 
L 125.921455 72.781362 
L 126.674545 72.781362 
" style="fill:none;stroke:#92c5de;stroke-linecap:round;stroke-width:1.5;"/>
   </g>
   <g id="line2d_14">
    <path clip-path="url(#pe4ed3866c1)" d="M 51.365455 37.921063 
L 52.118545 38.378247 
L 52.871636 38.835431 
L 53.624727 39.292616 
L 54.377818 39.7498 
L 55.130909 40.206984 
L 55.884 40.664168 
L 56.637091 41.121353 
L 57.390182 41.578537 
L 58.143273 42.035721 
L 58.896364 42.492905 
L 59.649455 42.95009 
L 60.402545 43.407274 
L 61.155636 43.864458 
L 61.908727 44.321642 
L 62.661818 44.778827 
L 63.414909 45.236011 
L 64.168 45.693195 
L 64.921091 46.150379 
L 65.674182 46.607564 
L 66.427273 47.064748 
L 67.180364 47.521932 
L 67.933455 47.979116 
L 68.686545 48.436301 
L 69.439636 48.893485 
L 70.192727 49.350669 
L 70.945818 49.807853 
L 71.698909 50.265038 
L 72.452 50.722222 
L 73.205091 51.179406 
L 73.958182 51.63659 
L 74.711273 52.093775 
L 75.464364 52.550959 
L 76.217455 53.008143 
L 76.970545 53.465327 
L 77.723636 53.922512 
L 78.476727 54.379696 
L 79.229818 54.83688 
L 79.982909 55.294064 
L 80.736 55.751249 
L 81.489091 56.208433 
L 82.242182 56.665617 
L 82.995273 57.122801 
L 83.748364 57.579986 
L 84.501455 58.03717 
L 85.254545 58.494354 
L 86.007636 58.951538 
L 86.760727 59.408723 
L 87.513818 59.865907 
L 88.266909 60.323091 
L 89.02 60.780275 
L 89.773091 61.23746 
L 90.526182 61.694644 
L 91.279273 62.151828 
L 92.032364 62.609012 
L 92.785455 63.066197 
L 93.538545 63.523381 
L 94.291636 63.980565 
L 95.044727 64.437749 
L 95.797818 64.894934 
L 96.550909 65.352118 
L 97.304 65.809302 
L 98.057091 66.266486 
L 98.810182 66.723671 
L 99.563273 67.180855 
L 100.316364 67.638039 
L 101.069455 68.095223 
L 101.822545 68.552408 
L 102.575636 69.009592 
L 103.328727 69.466776 
L 104.081818 69.92396 
L 104.834909 70.381145 
L 105.588 70.838329 
L 106.341091 71.295513 
L 107.094182 71.752697 
L 107.847273 72.209882 
L 108.600364 72.667066 
L 109.353455 73.12425 
L 110.106545 73.581434 
L 110.859636 74.038619 
L 111.612727 74.495803 
L 112.365818 74.952987 
L 113.118909 75.410171 
L 113.872 75.867356 
L 114.625091 76.32454 
L 115.378182 76.781724 
L 116.131273 77.238908 
L 116.884364 77.696093 
L 117.637455 78.153277 
L 118.390545 78.610461 
L 119.143636 79.067645 
L 119.896727 79.52483 
L 120.649818 79.982014 
L 121.402909 80.439198 
L 122.156 80.896382 
L 122.909091 81.353567 
L 123.662182 81.810751 
L 124.415273 82.267935 
L 125.168364 82.725119 
L 125.921455 83.182304 
L 126.674545 83.639488 
" style="fill:none;stroke:#f4a582;stroke-linecap:round;stroke-width:1.5;"/>
   </g>
   <g id="line2d_15">
    <path clip-path="url(#pe4ed3866c1)" d="M 51.365455 52.185211 
L 52.118545 52.642396 
L 52.871636 53.09958 
L 53.624727 53.556764 
L 54.377818 54.013948 
L 55.130909 54.471133 
L 55.884 54.928317 
L 56.637091 55.385501 
L 57.390182 55.842685 
L 58.143273 56.29987 
L 58.896364 56.757054 
L 59.649455 57.214238 
L 60.402545 57.671422 
L 61.155636 58.128607 
L 61.908727 58.585791 
L 62.661818 59.042975 
L 63.414909 59.500159 
L 64.168 59.957344 
L 64.921091 60.414528 
L 65.674182 60.871712 
L 66.427273 61.328896 
L 67.180364 61.786081 
L 67.933455 62.243265 
L 68.686545 62.700449 
L 69.439636 63.157633 
L 70.192727 63.614818 
L 70.945818 64.072002 
L 71.698909 64.529186 
L 72.452 64.98637 
L 73.205091 65.443555 
L 73.958182 65.900739 
L 74.711273 66.357923 
L 75.464364 66.815107 
L 76.217455 67.272292 
L 76.970545 67.729476 
L 77.723636 68.18666 
L 78.476727 68.643844 
L 79.229818 69.101029 
L 79.982909 69.558213 
L 80.736 70.015397 
L 81.489091 70.472581 
L 82.242182 70.929766 
L 82.995273 71.38695 
L 83.748364 71.844134 
L 84.501455 72.301318 
L 85.254545 72.758503 
L 86.007636 73.215687 
L 86.760727 73.672871 
L 87.513818 74.130055 
L 88.266909 74.58724 
L 89.02 75.044424 
L 89.773091 75.501608 
L 90.526182 75.958792 
L 91.279273 76.415977 
L 92.032364 76.873161 
L 92.785455 77.330345 
L 93.538545 77.787529 
L 94.291636 78.244714 
L 95.044727 78.701898 
L 95.797818 79.159082 
L 96.550909 79.616266 
L 97.304 80.073451 
L 98.057091 80.530635 
L 98.810182 80.987819 
L 99.563273 81.445003 
L 100.316364 81.902188 
L 101.069455 82.359372 
L 101.822545 82.816556 
L 102.575636 83.27374 
L 103.328727 83.730925 
L 104.081818 84.188109 
L 104.834909 84.645293 
L 105.588 85.102477 
L 106.341091 85.559662 
L 107.094182 86.016846 
L 107.847273 86.47403 
L 108.600364 86.931214 
L 109.353455 87.388399 
L 110.106545 87.845583 
L 110.859636 88.302767 
L 111.612727 88.759951 
L 112.365818 89.217136 
L 113.118909 89.67432 
L 113.872 90.131504 
L 114.625091 90.588688 
L 115.378182 91.045873 
L 116.131273 91.503057 
L 116.884364 91.960241 
L 117.637455 92.417425 
L 118.390545 92.87461 
L 119.143636 93.331794 
L 119.896727 93.788978 
L 120.649818 94.246162 
L 121.402909 94.703347 
L 122.156 95.160531 
L 122.909091 95.617715 
L 123.662182 96.074899 
L 124.415273 96.532084 
L 125.168364 96.989268 
L 125.921455 97.446452 
L 126.674545 97.903636 
" style="fill:none;stroke:#f4a582;stroke-linecap:round;stroke-width:1.5;"/>
   </g>
   <g id="line2d_16">
    <path clip-path="url(#pe4ed3866c1)" d="M 51.365455 36.046607 
L 52.118545 36.503792 
L 52.871636 36.960976 
L 53.624727 37.41816 
L 54.377818 37.875344 
L 55.130909 38.332529 
L 55.884 38.789713 
L 56.637091 39.246897 
L 57.390182 39.704081 
L 58.143273 40.161266 
L 58.896364 40.61845 
L 59.649455 41.075634 
L 60.402545 41.532818 
L 61.155636 41.990003 
L 61.908727 42.447187 
L 62.661818 42.904371 
L 63.414909 43.361555 
L 64.168 43.81874 
L 64.921091 44.275924 
L 65.674182 44.733108 
L 66.427273 45.190292 
L 67.180364 45.647477 
L 67.933455 46.104661 
L 68.686545 46.561845 
L 69.439636 47.019029 
L 70.192727 47.476214 
L 70.945818 47.933398 
L 71.698909 48.390582 
L 72.452 48.847766 
L 73.205091 49.304951 
L 73.958182 49.762135 
L 74.711273 50.219319 
L 75.464364 50.676503 
L 76.217455 51.133688 
L 76.970545 51.590872 
L 77.723636 52.048056 
L 78.476727 52.50524 
L 79.229818 52.962425 
L 79.982909 53.419609 
L 80.736 53.876793 
L 81.489091 54.333977 
L 82.242182 54.791162 
L 82.995273 55.248346 
L 83.748364 55.70553 
L 84.501455 56.162714 
L 85.254545 56.619899 
L 86.007636 57.077083 
L 86.760727 57.534267 
L 87.513818 57.991451 
L 88.266909 58.448636 
L 89.02 58.90582 
L 89.773091 59.363004 
L 90.526182 59.820188 
L 91.279273 60.277373 
L 92.032364 60.734557 
L 92.785455 61.191741 
L 93.538545 61.648925 
L 94.291636 62.10611 
L 95.044727 62.563294 
L 95.797818 63.020478 
L 96.550909 63.477662 
L 97.304 63.934847 
L 98.057091 64.392031 
L 98.810182 64.849215 
L 99.563273 65.306399 
L 100.316364 65.763584 
L 101.069455 66.220768 
L 101.822545 66.677952 
L 102.575636 67.135136 
L 103.328727 67.592321 
L 104.081818 68.049505 
L 104.834909 68.506689 
L 105.588 68.963873 
L 106.341091 69.421058 
L 107.094182 69.878242 
L 107.847273 70.335426 
L 108.600364 70.79261 
L 109.353455 71.249795 
L 110.106545 71.706979 
L 110.859636 72.164163 
L 111.612727 72.621347 
L 112.365818 73.078532 
L 113.118909 73.535716 
L 113.872 73.9929 
L 114.625091 74.450084 
L 115.378182 74.907269 
L 116.131273 75.364453 
L 116.884364 75.821637 
L 117.637455 76.278821 
L 118.390545 76.736006 
L 119.143636 77.19319 
L 119.896727 77.650374 
L 120.649818 78.107558 
L 121.402909 78.564743 
L 122.156 79.021927 
L 122.909091 79.479111 
L 123.662182 79.936295 
L 124.415273 80.39348 
L 125.168364 80.850664 
L 125.921455 81.307848 
L 126.674545 81.765032 
" style="fill:none;stroke:#f4a582;stroke-linecap:round;stroke-width:1.5;"/>
   </g>
   <g id="line2d_17">
    <path clip-path="url(#pe4ed3866c1)" d="M 51.365455 46.767578 
L 52.118545 47.224762 
L 52.871636 47.681946 
L 53.624727 48.139131 
L 54.377818 48.596315 
L 55.130909 49.053499 
L 55.884 49.510683 
L 56.637091 49.967868 
L 57.390182 50.425052 
L 58.143273 50.882236 
L 58.896364 51.33942 
L 59.649455 51.796605 
L 60.402545 52.253789 
L 61.155636 52.710973 
L 61.908727 53.168157 
L 62.661818 53.625342 
L 63.414909 54.082526 
L 64.168 54.53971 
L 64.921091 54.996894 
L 65.674182 55.454079 
L 66.427273 55.911263 
L 67.180364 56.368447 
L 67.933455 56.825631 
L 68.686545 57.282816 
L 69.439636 57.74 
L 70.192727 58.197184 
L 70.945818 58.654369 
L 71.698909 59.111553 
L 72.452 59.568737 
L 73.205091 60.025921 
L 73.958182 60.483106 
L 74.711273 60.94029 
L 75.464364 61.397474 
L 76.217455 61.854658 
L 76.970545 62.311843 
L 77.723636 62.769027 
L 78.476727 63.226211 
L 79.229818 63.683395 
L 79.982909 64.14058 
L 80.736 64.597764 
L 81.489091 65.054948 
L 82.242182 65.512132 
L 82.995273 65.969317 
L 83.748364 66.426501 
L 84.501455 66.883685 
L 85.254545 67.340869 
L 86.007636 67.798054 
L 86.760727 68.255238 
L 87.513818 68.712422 
L 88.266909 69.169606 
L 89.02 69.626791 
L 89.773091 70.083975 
L 90.526182 70.541159 
L 91.279273 70.998343 
L 92.032364 71.455528 
L 92.785455 71.912712 
L 93.538545 72.369896 
L 94.291636 72.82708 
L 95.044727 73.284265 
L 95.797818 73.741449 
L 96.550909 74.198633 
L 97.304 74.655817 
L 98.057091 75.113002 
L 98.810182 75.570186 
L 99.563273 76.02737 
L 100.316364 76.484554 
L 101.069455 76.941739 
L 101.822545 77.398923 
L 102.575636 77.856107 
L 103.328727 78.313291 
L 104.081818 78.770476 
L 104.834909 79.22766 
L 105.588 79.684844 
L 106.341091 80.142028 
L 107.094182 80.599213 
L 107.847273 81.056397 
L 108.600364 81.513581 
L 109.353455 81.970765 
L 110.106545 82.42795 
L 110.859636 82.885134 
L 111.612727 83.342318 
L 112.365818 83.799502 
L 113.118909 84.256687 
L 113.872 84.713871 
L 114.625091 85.171055 
L 115.378182 85.628239 
L 116.131273 86.085424 
L 116.884364 86.542608 
L 117.637455 86.999792 
L 118.390545 87.456976 
L 119.143636 87.914161 
L 119.896727 88.371345 
L 120.649818 88.828529 
L 121.402909 89.285713 
L 122.156 89.742898 
L 122.909091 90.200082 
L 123.662182 90.657266 
L 124.415273 91.11445 
L 125.168364 91.571635 
L 125.921455 92.028819 
L 126.674545 92.486003 
" style="fill:none;stroke:#f4a582;stroke-linecap:round;stroke-width:1.5;"/>
   </g>
   <g id="line2d_18">
    <path clip-path="url(#pe4ed3866c1)" d="M 51.365455 66.243627 
L 52.118545 66.243627 
L 52.871636 66.243627 
L 53.624727 66.243627 
L 54.377818 66.243627 
L 55.130909 66.243627 
L 55.884 66.243627 
L 56.637091 66.243627 
L 57.390182 66.243627 
L 58.143273 66.243627 
L 58.896364 66.243627 
L 59.649455 66.243627 
L 60.402545 66.243627 
L 61.155636 66.243627 
L 61.908727 66.243627 
L 62.661818 66.243627 
L 63.414909 66.243627 
L 64.168 66.243627 
L 64.921091 66.243627 
L 65.674182 66.243627 
L 66.427273 66.243627 
L 67.180364 66.243627 
L 67.933455 66.243627 
L 68.686545 66.243627 
L 69.439636 66.243627 
L 70.192727 66.243627 
L 70.945818 66.243627 
L 71.698909 66.243627 
L 72.452 66.243627 
L 73.205091 66.243627 
L 73.958182 66.243627 
L 74.711273 66.243627 
L 75.464364 66.243627 
L 76.217455 66.243627 
L 76.970545 66.243627 
L 77.723636 66.243627 
L 78.476727 66.243627 
L 79.229818 66.243627 
L 79.982909 66.243627 
L 80.736 66.243627 
L 81.489091 66.243627 
L 82.242182 66.243627 
L 82.995273 66.243627 
L 83.748364 66.243627 
L 84.501455 66.243627 
L 85.254545 66.243627 
L 86.007636 66.243627 
L 86.760727 66.243627 
L 87.513818 66.243627 
L 88.266909 66.243627 
L 89.02 66.243627 
L 89.773091 66.243627 
L 90.526182 66.243627 
L 91.279273 66.243627 
L 92.032364 66.243627 
L 92.785455 66.243627 
L 93.538545 66.243627 
L 94.291636 66.243627 
L 95.044727 66.243627 
L 95.797818 66.243627 
L 96.550909 66.243627 
L 97.304 66.243627 
L 98.057091 66.243627 
L 98.810182 66.243627 
L 99.563273 66.243627 
L 100.316364 66.243627 
L 101.069455 66.243627 
L 101.822545 66.243627 
L 102.575636 66.243627 
L 103.328727 66.243627 
L 104.081818 66.243627 
L 104.834909 66.243627 
L 105.588 66.243627 
L 106.341091 66.243627 
L 107.094182 66.243627 
L 107.847273 66.243627 
L 108.600364 66.243627 
L 109.353455 66.243627 
L 110.106545 66.243627 
L 110.859636 66.243627 
L 111.612727 66.243627 
L 112.365818 66.243627 
L 113.118909 66.243627 
L 113.872 66.243627 
L 114.625091 66.243627 
L 115.378182 66.243627 
L 116.131273 66.243627 
L 116.884364 66.243627 
L 117.637455 66.243627 
L 118.390545 66.243627 
L 119.143636 66.243627 
L 119.896727 66.243627 
L 120.649818 66.243627 
L 121.402909 66.243627 
L 122.156 66.243627 
L 122.909091 66.243627 
L 123.662182 66.243627 
L 124.415273 66.243627 
L 125.168364 66.243627 
L 125.921455 66.243627 
L 126.674545 66.243627 
" style="fill:none;stroke:#92c5de;stroke-linecap:round;stroke-width:1.5;"/>
   </g>
   <g id="line2d_19">
    <path clip-path="url(#pe4ed3866c1)" d="M 51.365455 50.836518 
L 52.118545 51.06511 
L 52.871636 51.293702 
L 53.624727 51.522294 
L 54.377818 51.750886 
L 55.130909 51.979478 
L 55.884 52.208071 
L 56.637091 52.436663 
L 57.390182 52.665255 
L 58.143273 52.893847 
L 58.896364 53.122439 
L 59.649455 53.351031 
L 60.402545 53.579623 
L 61.155636 53.808215 
L 61.908727 54.036808 
L 62.661818 54.2654 
L 63.414909 54.493992 
L 64.168 54.722584 
L 64.921091 54.951176 
L 65.674182 55.179768 
L 66.427273 55.40836 
L 67.180364 55.636952 
L 67.933455 55.865545 
L 68.686545 56.094137 
L 69.439636 56.322729 
L 70.192727 56.551321 
L 70.945818 56.779913 
L 71.698909 57.008505 
L 72.452 57.237097 
L 73.205091 57.465689 
L 73.958182 57.694282 
L 74.711273 57.922874 
L 75.464364 58.151466 
L 76.217455 58.380058 
L 76.970545 58.60865 
L 77.723636 58.837242 
L 78.476727 59.065834 
L 79.229818 59.294426 
L 79.982909 59.523019 
L 80.736 59.751611 
L 81.489091 59.980203 
L 82.242182 60.208795 
L 82.995273 60.437387 
L 83.748364 60.665979 
L 84.501455 60.894571 
L 85.254545 61.123163 
L 86.007636 61.351756 
L 86.760727 61.580348 
L 87.513818 61.80894 
L 88.266909 62.037532 
L 89.02 62.266124 
L 89.773091 62.494716 
L 90.526182 62.723308 
L 91.279273 62.9519 
L 92.032364 63.180493 
L 92.785455 63.409085 
L 93.538545 63.637677 
L 94.291636 63.866269 
L 95.044727 64.094861 
L 95.797818 64.323453 
L 96.550909 64.552045 
L 97.304 64.780637 
L 98.057091 65.00923 
L 98.810182 65.237822 
L 99.563273 65.466414 
L 100.316364 65.695006 
L 101.069455 65.923598 
L 101.822545 66.15219 
L 102.575636 66.380782 
L 103.328727 66.609374 
L 104.081818 66.837967 
L 104.834909 67.066559 
L 105.588 67.295151 
L 106.341091 67.523743 
L 107.094182 67.752335 
L 107.847273 67.980927 
L 108.600364 68.209519 
L 109.353455 68.438111 
L 110.106545 68.666704 
L 110.859636 68.895296 
L 111.612727 69.123888 
L 112.365818 69.35248 
L 113.118909 69.581072 
L 113.872 69.809664 
L 114.625091 70.038256 
L 115.378182 70.266848 
L 116.131273 70.495441 
L 116.884364 70.724033 
L 117.637455 70.952625 
L 118.390545 71.181217 
L 119.143636 71.409809 
L 119.896727 71.638401 
L 120.649818 71.866993 
L 121.402909 72.095585 
L 122.156 72.324178 
L 122.909091 72.55277 
L 123.662182 72.781362 
L 124.415273 73.009954 
L 125.168364 73.238546 
L 125.921455 73.467138 
L 126.674545 73.69573 
" style="fill:none;stroke:#333333;stroke-linecap:round;stroke-width:1.5;"/>
   </g>
   <g id="line2d_20">
    <path clip-path="url(#pe4ed3866c1)" d="M 51.365455 52.322367 
L 52.118545 52.550959 
L 52.871636 52.779551 
L 53.624727 53.008143 
L 54.377818 53.236735 
L 55.130909 53.465327 
L 55.884 53.693919 
L 56.637091 53.922512 
L 57.390182 54.151104 
L 58.143273 54.379696 
L 58.896364 54.608288 
L 59.649455 54.83688 
L 60.402545 55.065472 
L 61.155636 55.294064 
L 61.908727 55.522656 
L 62.661818 55.751249 
L 63.414909 55.979841 
L 64.168 56.208433 
L 64.921091 56.437025 
L 65.674182 56.665617 
L 66.427273 56.894209 
L 67.180364 57.122801 
L 67.933455 57.351393 
L 68.686545 57.579986 
L 69.439636 57.808578 
L 70.192727 58.03717 
L 70.945818 58.265762 
L 71.698909 58.494354 
L 72.452 58.722946 
L 73.205091 58.951538 
L 73.958182 59.18013 
L 74.711273 59.408723 
L 75.464364 59.637315 
L 76.217455 59.865907 
L 76.970545 60.094499 
L 77.723636 60.323091 
L 78.476727 60.551683 
L 79.229818 60.780275 
L 79.982909 61.008867 
L 80.736 61.23746 
L 81.489091 61.466052 
L 82.242182 61.694644 
L 82.995273 61.923236 
L 83.748364 62.151828 
L 84.501455 62.38042 
L 85.254545 62.609012 
L 86.007636 62.837604 
L 86.760727 63.066197 
L 87.513818 63.294789 
L 88.266909 63.523381 
L 89.02 63.751973 
L 89.773091 63.980565 
L 90.526182 64.209157 
L 91.279273 64.437749 
L 92.032364 64.666341 
L 92.785455 64.894934 
L 93.538545 65.123526 
L 94.291636 65.352118 
L 95.044727 65.58071 
L 95.797818 65.809302 
L 96.550909 66.037894 
L 97.304 66.266486 
L 98.057091 66.495078 
L 98.810182 66.723671 
L 99.563273 66.952263 
L 100.316364 67.180855 
L 101.069455 67.409447 
L 101.822545 67.638039 
L 102.575636 67.866631 
L 103.328727 68.095223 
L 104.081818 68.323815 
L 104.834909 68.552408 
L 105.588 68.781 
L 106.341091 69.009592 
L 107.094182 69.238184 
L 107.847273 69.466776 
L 108.600364 69.695368 
L 109.353455 69.92396 
L 110.106545 70.152552 
L 110.859636 70.381145 
L 111.612727 70.609737 
L 112.365818 70.838329 
L 113.118909 71.066921 
L 113.872 71.295513 
L 114.625091 71.524105 
L 115.378182 71.752697 
L 116.131273 71.981289 
L 116.884364 72.209882 
L 117.637455 72.438474 
L 118.390545 72.667066 
L 119.143636 72.895658 
L 119.896727 73.12425 
L 120.649818 73.352842 
L 121.402909 73.581434 
L 122.156 73.810026 
L 122.909091 74.038619 
L 123.662182 74.267211 
L 124.415273 74.495803 
L 125.168364 74.724395 
L 125.921455 74.952987 
L 126.674545 75.181579 
" style="fill:none;stroke:#333333;stroke-linecap:round;stroke-width:1.5;"/>
   </g>
   <g id="line2d_21">
    <path clip-path="url(#pe4ed3866c1)" d="M 51.365455 49.190655 
L 52.118545 49.419247 
L 52.871636 49.647839 
L 53.624727 49.876431 
L 54.377818 50.105023 
L 55.130909 50.333615 
L 55.884 50.562207 
L 56.637091 50.790799 
L 57.390182 51.019392 
L 58.143273 51.247984 
L 58.896364 51.476576 
L 59.649455 51.705168 
L 60.402545 51.93376 
L 61.155636 52.162352 
L 61.908727 52.390944 
L 62.661818 52.619536 
L 63.414909 52.848129 
L 64.168 53.076721 
L 64.921091 53.305313 
L 65.674182 53.533905 
L 66.427273 53.762497 
L 67.180364 53.991089 
L 67.933455 54.219681 
L 68.686545 54.448273 
L 69.439636 54.676866 
L 70.192727 54.905458 
L 70.945818 55.13405 
L 71.698909 55.362642 
L 72.452 55.591234 
L 73.205091 55.819826 
L 73.958182 56.048418 
L 74.711273 56.27701 
L 75.464364 56.505603 
L 76.217455 56.734195 
L 76.970545 56.962787 
L 77.723636 57.191379 
L 78.476727 57.419971 
L 79.229818 57.648563 
L 79.982909 57.877155 
L 80.736 58.105747 
L 81.489091 58.33434 
L 82.242182 58.562932 
L 82.995273 58.791524 
L 83.748364 59.020116 
L 84.501455 59.248708 
L 85.254545 59.4773 
L 86.007636 59.705892 
L 86.760727 59.934484 
L 87.513818 60.163077 
L 88.266909 60.391669 
L 89.02 60.620261 
L 89.773091 60.848853 
L 90.526182 61.077445 
L 91.279273 61.306037 
L 92.032364 61.534629 
L 92.785455 61.763221 
L 93.538545 61.991814 
L 94.291636 62.220406 
L 95.044727 62.448998 
L 95.797818 62.67759 
L 96.550909 62.906182 
L 97.304 63.134774 
L 98.057091 63.363366 
L 98.810182 63.591958 
L 99.563273 63.820551 
L 100.316364 64.049143 
L 101.069455 64.277735 
L 101.822545 64.506327 
L 102.575636 64.734919 
L 103.328727 64.963511 
L 104.081818 65.192103 
L 104.834909 65.420695 
L 105.588 65.649288 
L 106.341091 65.87788 
L 107.094182 66.106472 
L 107.847273 66.335064 
L 108.600364 66.563656 
L 109.353455 66.792248 
L 110.106545 67.02084 
L 110.859636 67.249432 
L 111.612727 67.478025 
L 112.365818 67.706617 
L 113.118909 67.935209 
L 113.872 68.163801 
L 114.625091 68.392393 
L 115.378182 68.620985 
L 116.131273 68.849577 
L 116.884364 69.078169 
L 117.637455 69.306762 
L 118.390545 69.535354 
L 119.143636 69.763946 
L 119.896727 69.992538 
L 120.649818 70.22113 
L 121.402909 70.449722 
L 122.156 70.678314 
L 122.909091 70.906906 
L 123.662182 71.135499 
L 124.415273 71.364091 
L 125.168364 71.592683 
L 125.921455 71.821275 
L 126.674545 72.049867 
" style="fill:none;stroke:#333333;stroke-linecap:round;stroke-width:1.5;"/>
   </g>
   <g id="line2d_22">
    <path clip-path="url(#pe4ed3866c1)" d="M 51.365455 64.072002 
L 52.118545 64.300594 
L 52.871636 64.529186 
L 53.624727 64.757778 
L 54.377818 64.98637 
L 55.130909 65.214962 
L 55.884 65.443555 
L 56.637091 65.672147 
L 57.390182 65.900739 
L 58.143273 66.129331 
L 58.896364 66.357923 
L 59.649455 66.586515 
L 60.402545 66.815107 
L 61.155636 67.043699 
L 61.908727 67.272292 
L 62.661818 67.500884 
L 63.414909 67.729476 
L 64.168 67.958068 
L 64.921091 68.18666 
L 65.674182 68.415252 
L 66.427273 68.643844 
L 67.180364 68.872436 
L 67.933455 69.101029 
L 68.686545 69.329621 
L 69.439636 69.558213 
L 70.192727 69.786805 
L 70.945818 70.015397 
L 71.698909 70.243989 
L 72.452 70.472581 
L 73.205091 70.701173 
L 73.958182 70.929766 
L 74.711273 71.158358 
L 75.464364 71.38695 
L 76.217455 71.615542 
L 76.970545 71.844134 
L 77.723636 72.072726 
L 78.476727 72.301318 
L 79.229818 72.52991 
L 79.982909 72.758503 
L 80.736 72.987095 
L 81.489091 73.215687 
L 82.242182 73.444279 
L 82.995273 73.672871 
L 83.748364 73.901463 
L 84.501455 74.130055 
L 85.254545 74.358647 
L 86.007636 74.58724 
L 86.760727 74.815832 
L 87.513818 75.044424 
L 88.266909 75.273016 
L 89.02 75.501608 
L 89.773091 75.7302 
L 90.526182 75.958792 
L 91.279273 76.187384 
L 92.032364 76.415977 
L 92.785455 76.644569 
L 93.538545 76.873161 
L 94.291636 77.101753 
L 95.044727 77.330345 
L 95.797818 77.558937 
L 96.550909 77.787529 
L 97.304 78.016121 
L 98.057091 78.244714 
L 98.810182 78.473306 
L 99.563273 78.701898 
L 100.316364 78.93049 
L 101.069455 79.159082 
L 101.822545 79.387674 
L 102.575636 79.616266 
L 103.328727 79.844858 
L 104.081818 80.073451 
L 104.834909 80.302043 
L 105.588 80.530635 
L 106.341091 80.759227 
L 107.094182 80.987819 
L 107.847273 81.216411 
L 108.600364 81.445003 
L 109.353455 81.673595 
L 110.106545 81.902188 
L 110.859636 82.13078 
L 111.612727 82.359372 
L 112.365818 82.587964 
L 113.118909 82.816556 
L 113.872 83.045148 
L 114.625091 83.27374 
L 115.378182 83.502332 
L 116.131273 83.730925 
L 116.884364 83.959517 
L 117.637455 84.188109 
L 118.390545 84.416701 
L 119.143636 84.645293 
L 119.896727 84.873885 
L 120.649818 85.102477 
L 121.402909 85.331069 
L 122.156 85.559662 
L 122.909091 85.788254 
L 123.662182 86.016846 
L 124.415273 86.245438 
L 125.168364 86.47403 
L 125.921455 86.702622 
L 126.674545 86.931214 
" style="fill:none;stroke:#333333;stroke-linecap:round;stroke-width:1.5;"/>
   </g>
   <g id="line2d_23">
    <path clip-path="url(#pe4ed3866c1)" d="M 51.365455 62.929041 
L 52.118545 63.157633 
L 52.871636 63.386225 
L 53.624727 63.614818 
L 54.377818 63.84341 
L 55.130909 64.072002 
L 55.884 64.300594 
L 56.637091 64.529186 
L 57.390182 64.757778 
L 58.143273 64.98637 
L 58.896364 65.214962 
L 59.649455 65.443555 
L 60.402545 65.672147 
L 61.155636 65.900739 
L 61.908727 66.129331 
L 62.661818 66.357923 
L 63.414909 66.586515 
L 64.168 66.815107 
L 64.921091 67.043699 
L 65.674182 67.272292 
L 66.427273 67.500884 
L 67.180364 67.729476 
L 67.933455 67.958068 
L 68.686545 68.18666 
L 69.439636 68.415252 
L 70.192727 68.643844 
L 70.945818 68.872436 
L 71.698909 69.101029 
L 72.452 69.329621 
L 73.205091 69.558213 
L 73.958182 69.786805 
L 74.711273 70.015397 
L 75.464364 70.243989 
L 76.217455 70.472581 
L 76.970545 70.701173 
L 77.723636 70.929766 
L 78.476727 71.158358 
L 79.229818 71.38695 
L 79.982909 71.615542 
L 80.736 71.844134 
L 81.489091 72.072726 
L 82.242182 72.301318 
L 82.995273 72.52991 
L 83.748364 72.758503 
L 84.501455 72.987095 
L 85.254545 73.215687 
L 86.007636 73.444279 
L 86.760727 73.672871 
L 87.513818 73.901463 
L 88.266909 74.130055 
L 89.02 74.358647 
L 89.773091 74.58724 
L 90.526182 74.815832 
L 91.279273 75.044424 
L 92.032364 75.273016 
L 92.785455 75.501608 
L 93.538545 75.7302 
L 94.291636 75.958792 
L 95.044727 76.187384 
L 95.797818 76.415977 
L 96.550909 76.644569 
L 97.304 76.873161 
L 98.057091 77.101753 
L 98.810182 77.330345 
L 99.563273 77.558937 
L 100.316364 77.787529 
L 101.069455 78.016121 
L 101.822545 78.244714 
L 102.575636 78.473306 
L 103.328727 78.701898 
L 104.081818 78.93049 
L 104.834909 79.159082 
L 105.588 79.387674 
L 106.341091 79.616266 
L 107.094182 79.844858 
L 107.847273 80.073451 
L 108.600364 80.302043 
L 109.353455 80.530635 
L 110.106545 80.759227 
L 110.859636 80.987819 
L 111.612727 81.216411 
L 112.365818 81.445003 
L 113.118909 81.673595 
L 113.872 81.902188 
L 114.625091 82.13078 
L 115.378182 82.359372 
L 116.131273 82.587964 
L 116.884364 82.816556 
L 117.637455 83.045148 
L 118.390545 83.27374 
L 119.143636 83.502332 
L 119.896727 83.730925 
L 120.649818 83.959517 
L 121.402909 84.188109 
L 122.156 84.416701 
L 122.909091 84.645293 
L 123.662182 84.873885 
L 124.415273 85.102477 
L 125.168364 85.331069 
L 125.921455 85.559662 
L 126.674545 85.788254 
" style="fill:none;stroke:#333333;stroke-linecap:round;stroke-width:1.5;"/>
   </g>
   <g id="line2d_24">
    <path clip-path="url(#pe4ed3866c1)" d="M 51.365455 78.107558 
L 52.118545 78.107558 
L 52.871636 78.107558 
L 53.624727 78.107558 
L 54.377818 78.107558 
L 55.130909 78.107558 
L 55.884 78.107558 
L 56.637091 78.107558 
L 57.390182 78.107558 
L 58.143273 78.107558 
L 58.896364 78.107558 
L 59.649455 78.107558 
L 60.402545 78.107558 
L 61.155636 78.107558 
L 61.908727 78.107558 
L 62.661818 78.107558 
L 63.414909 78.107558 
L 64.168 78.107558 
L 64.921091 78.107558 
L 65.674182 78.107558 
L 66.427273 78.107558 
L 67.180364 78.107558 
L 67.933455 78.107558 
L 68.686545 78.107558 
L 69.439636 78.107558 
L 70.192727 78.107558 
L 70.945818 78.107558 
L 71.698909 78.107558 
L 72.452 78.107558 
L 73.205091 78.107558 
L 73.958182 78.107558 
L 74.711273 78.107558 
L 75.464364 78.107558 
L 76.217455 78.107558 
L 76.970545 78.107558 
L 77.723636 78.107558 
L 78.476727 78.107558 
L 79.229818 78.107558 
L 79.982909 78.107558 
L 80.736 78.107558 
L 81.489091 78.107558 
L 82.242182 78.107558 
L 82.995273 78.107558 
L 83.748364 78.107558 
L 84.501455 78.107558 
L 85.254545 78.107558 
L 86.007636 78.107558 
L 86.760727 78.107558 
L 87.513818 78.107558 
L 88.266909 78.107558 
L 89.02 78.107558 
L 89.773091 78.107558 
L 90.526182 78.107558 
L 91.279273 78.107558 
L 92.032364 78.107558 
L 92.785455 78.107558 
L 93.538545 78.107558 
L 94.291636 78.107558 
L 95.044727 78.107558 
L 95.797818 78.107558 
L 96.550909 78.107558 
L 97.304 78.107558 
L 98.057091 78.107558 
L 98.810182 78.107558 
L 99.563273 78.107558 
L 100.316364 78.107558 
L 101.069455 78.107558 
L 101.822545 78.107558 
L 102.575636 78.107558 
L 103.328727 78.107558 
L 104.081818 78.107558 
L 104.834909 78.107558 
L 105.588 78.107558 
L 106.341091 78.107558 
L 107.094182 78.107558 
L 107.847273 78.107558 
L 108.600364 78.107558 
L 109.353455 78.107558 
L 110.106545 78.107558 
L 110.859636 78.107558 
L 111.612727 78.107558 
L 112.365818 78.107558 
L 113.118909 78.107558 
L 113.872 78.107558 
L 114.625091 78.107558 
L 115.378182 78.107558 
L 116.131273 78.107558 
L 116.884364 78.107558 
L 117.637455 78.107558 
L 118.390545 78.107558 
L 119.143636 78.107558 
L 119.896727 78.107558 
L 120.649818 78.107558 
L 121.402909 78.107558 
L 122.156 78.107558 
L 122.909091 78.107558 
L 123.662182 78.107558 
L 124.415273 78.107558 
L 125.168364 78.107558 
L 125.921455 78.107558 
L 126.674545 78.107558 
" style="fill:none;stroke:#333333;stroke-linecap:round;stroke-width:1.5;"/>
   </g>
  </g>
 </g>
 <defs>
  <clipPath id="pe4ed3866c1">
   <rect height="88.36" width="82.84" x="47.6" y="13.56"/>
  </clipPath>
 </defs>
</svg>
