<?xml version="1.0" encoding="utf-8" standalone="no"?>
<!DOCTYPE svg PUBLIC "-//W3C//DTD SVG 1.1//EN"
  "http://www.w3.org/Graphics/SVG/1.1/DTD/svg11.dtd">
<!-- Created with matplotlib (http://matplotlib.org/) -->
<svg height="144pt" version="1.1" viewBox="0 0 144 144" width="144pt" xmlns="http://www.w3.org/2000/svg" xmlns:xlink="http://www.w3.org/1999/xlink">
 <defs>
  <style type="text/css">
*{stroke-linecap:butt;stroke-linejoin:round;}
  </style>
 </defs>
 <g id="figure_1">
  <g id="patch_1">
   <path d="M 0 144 
L 144 144 
L 144 0 
L 0 0 
z
" style="fill:#ffffff;"/>
  </g>
  <g id="axes_1">
   <g id="patch_2">
    <path d="M 18 126 
L 129.6 126 
L 129.6 17.28 
L 18 17.28 
z
" style="fill:#ffffff;"/>
   </g>
   <g id="matplotlib.axis_1">
    <g id="xtick_1">
     <g id="line2d_1">
      <defs>
       <path d="M 0 0 
L 0 3.5 
" id="m0a3ce3f040" style="stroke:#262626;stroke-width:0.8;"/>
      </defs>
      <g>
       <use style="fill:#262626;stroke:#262626;stroke-width:0.8;" x="19.835092" xlink:href="#m0a3ce3f040" y="126"/>
      </g>
     </g>
     <g id="text_1">
      <!-- −5 -->
      <defs>
       <path d="M 52.828125 31.203125 
L 5.5625 31.203125 
L 5.5625 39.40625 
L 52.828125 39.40625 
z
" id="ArialMT-2212"/>
       <path d="M 4.15625 18.75 
L 13.375 19.53125 
Q 14.40625 12.796875 18.140625 9.390625 
Q 21.875 6 27.15625 6 
Q 33.5 6 37.890625 10.78125 
Q 42.28125 15.578125 42.28125 23.484375 
Q 42.28125 31 38.0625 35.34375 
Q 33.84375 39.703125 27 39.703125 
Q 22.75 39.703125 19.328125 37.765625 
Q 15.921875 35.84375 13.96875 32.765625 
L 5.71875 33.84375 
L 12.640625 70.609375 
L 48.25 70.609375 
L 48.25 62.203125 
L 19.671875 62.203125 
L 15.828125 42.96875 
Q 22.265625 47.46875 29.34375 47.46875 
Q 38.71875 47.46875 45.15625 40.96875 
Q 51.609375 34.46875 51.609375 24.265625 
Q 51.609375 14.546875 45.953125 7.46875 
Q 39.0625 -1.21875 27.15625 -1.21875 
Q 17.390625 -1.21875 11.203125 4.25 
Q 5.03125 9.71875 4.15625 18.75 
z
" id="ArialMT-35"/>
      </defs>
      <g style="fill:#262626;" transform="translate(14.134311 140.157813)scale(0.1 -0.1)">
       <use xlink:href="#ArialMT-2212"/>
       <use x="58.398438" xlink:href="#ArialMT-35"/>
      </g>
     </g>
    </g>
    <g id="xtick_2">
     <g id="line2d_2">
      <g>
       <use style="fill:#262626;stroke:#262626;stroke-width:0.8;" x="32.714606" xlink:href="#m0a3ce3f040" y="126"/>
      </g>
     </g>
     <g id="text_2">
      <!-- −4 -->
      <defs>
       <path d="M 32.328125 0 
L 32.328125 17.140625 
L 1.265625 17.140625 
L 1.265625 25.203125 
L 33.9375 71.578125 
L 41.109375 71.578125 
L 41.109375 25.203125 
L 50.78125 25.203125 
L 50.78125 17.140625 
L 41.109375 17.140625 
L 41.109375 0 
z
M 32.328125 25.203125 
L 32.328125 57.46875 
L 9.90625 25.203125 
z
" id="ArialMT-34"/>
      </defs>
      <g style="fill:#262626;" transform="translate(27.013825 140.157813)scale(0.1 -0.1)">
       <use xlink:href="#ArialMT-2212"/>
       <use x="58.398438" xlink:href="#ArialMT-34"/>
      </g>
     </g>
    </g>
    <g id="xtick_3">
     <g id="line2d_3">
      <g>
       <use style="fill:#262626;stroke:#262626;stroke-width:0.8;" x="45.59412" xlink:href="#m0a3ce3f040" y="126"/>
      </g>
     </g>
     <g id="text_3">
      <!-- −3 -->
      <defs>
       <path d="M 4.203125 18.890625 
L 12.984375 20.0625 
Q 14.5 12.59375 18.140625 9.296875 
Q 21.78125 6 27 6 
Q 33.203125 6 37.46875 10.296875 
Q 41.75 14.59375 41.75 20.953125 
Q 41.75 27 37.796875 30.921875 
Q 33.84375 34.859375 27.734375 34.859375 
Q 25.25 34.859375 21.53125 33.890625 
L 22.515625 41.609375 
Q 23.390625 41.5 23.921875 41.5 
Q 29.546875 41.5 34.03125 44.421875 
Q 38.53125 47.359375 38.53125 53.46875 
Q 38.53125 58.296875 35.25 61.46875 
Q 31.984375 64.65625 26.8125 64.65625 
Q 21.6875 64.65625 18.265625 61.421875 
Q 14.84375 58.203125 13.875 51.765625 
L 5.078125 53.328125 
Q 6.6875 62.15625 12.390625 67.015625 
Q 18.109375 71.875 26.609375 71.875 
Q 32.46875 71.875 37.390625 69.359375 
Q 42.328125 66.84375 44.9375 62.5 
Q 47.5625 58.15625 47.5625 53.265625 
Q 47.5625 48.640625 45.0625 44.828125 
Q 42.578125 41.015625 37.703125 38.765625 
Q 44.046875 37.3125 47.5625 32.6875 
Q 51.078125 28.078125 51.078125 21.140625 
Q 51.078125 11.765625 44.234375 5.25 
Q 37.40625 -1.265625 26.953125 -1.265625 
Q 17.53125 -1.265625 11.296875 4.34375 
Q 5.078125 9.96875 4.203125 18.890625 
z
" id="ArialMT-33"/>
      </defs>
      <g style="fill:#262626;" transform="translate(39.893339 140.157813)scale(0.1 -0.1)">
       <use xlink:href="#ArialMT-2212"/>
       <use x="58.398438" xlink:href="#ArialMT-33"/>
      </g>
     </g>
    </g>
    <g id="xtick_4">
     <g id="line2d_4">
      <g>
       <use style="fill:#262626;stroke:#262626;stroke-width:0.8;" x="58.473635" xlink:href="#m0a3ce3f040" y="126"/>
      </g>
     </g>
     <g id="text_4">
      <!-- −2 -->
      <defs>
       <path d="M 50.34375 8.453125 
L 50.34375 0 
L 3.03125 0 
Q 2.9375 3.171875 4.046875 6.109375 
Q 5.859375 10.9375 9.828125 15.625 
Q 13.8125 20.3125 21.34375 26.46875 
Q 33.015625 36.03125 37.109375 41.625 
Q 41.21875 47.21875 41.21875 52.203125 
Q 41.21875 57.421875 37.46875 61 
Q 33.734375 64.59375 27.734375 64.59375 
Q 21.390625 64.59375 17.578125 60.78125 
Q 13.765625 56.984375 13.71875 50.25 
L 4.6875 51.171875 
Q 5.609375 61.28125 11.65625 66.578125 
Q 17.71875 71.875 27.9375 71.875 
Q 38.234375 71.875 44.234375 66.15625 
Q 50.25 60.453125 50.25 52 
Q 50.25 47.703125 48.484375 43.546875 
Q 46.734375 39.40625 42.65625 34.8125 
Q 38.578125 30.21875 29.109375 22.21875 
Q 21.1875 15.578125 18.9375 13.203125 
Q 16.703125 10.84375 15.234375 8.453125 
z
" id="ArialMT-32"/>
      </defs>
      <g style="fill:#262626;" transform="translate(52.772853 140.157813)scale(0.1 -0.1)">
       <use xlink:href="#ArialMT-2212"/>
       <use x="58.398438" xlink:href="#ArialMT-32"/>
      </g>
     </g>
    </g>
    <g id="xtick_5">
     <g id="line2d_5">
      <g>
       <use style="fill:#262626;stroke:#262626;stroke-width:0.8;" x="71.353149" xlink:href="#m0a3ce3f040" y="126"/>
      </g>
     </g>
     <g id="text_5">
      <!-- −1 -->
      <defs>
       <path d="M 37.25 0 
L 28.46875 0 
L 28.46875 56 
Q 25.296875 52.984375 20.140625 49.953125 
Q 14.984375 46.921875 10.890625 45.40625 
L 10.890625 53.90625 
Q 18.265625 57.375 23.78125 62.296875 
Q 29.296875 67.234375 31.59375 71.875 
L 37.25 71.875 
z
" id="ArialMT-31"/>
      </defs>
      <g style="fill:#262626;" transform="translate(65.652368 140.157813)scale(0.1 -0.1)">
       <use xlink:href="#ArialMT-2212"/>
       <use x="58.398438" xlink:href="#ArialMT-31"/>
      </g>
     </g>
    </g>
    <g id="xtick_6">
     <g id="line2d_6">
      <g>
       <use style="fill:#262626;stroke:#262626;stroke-width:0.8;" x="84.232663" xlink:href="#m0a3ce3f040" y="126"/>
      </g>
     </g>
     <g id="text_6">
      <!-- 0 -->
      <defs>
       <path d="M 4.15625 35.296875 
Q 4.15625 48 6.765625 55.734375 
Q 9.375 63.484375 14.515625 67.671875 
Q 19.671875 71.875 27.484375 71.875 
Q 33.25 71.875 37.59375 69.546875 
Q 41.9375 67.234375 44.765625 62.859375 
Q 47.609375 58.5 49.21875 52.21875 
Q 50.828125 45.953125 50.828125 35.296875 
Q 50.828125 22.703125 48.234375 14.96875 
Q 45.65625 7.234375 40.5 3 
Q 35.359375 -1.21875 27.484375 -1.21875 
Q 17.140625 -1.21875 11.234375 6.203125 
Q 4.15625 15.140625 4.15625 35.296875 
z
M 13.1875 35.296875 
Q 13.1875 17.671875 17.3125 11.828125 
Q 21.4375 6 27.484375 6 
Q 33.546875 6 37.671875 11.859375 
Q 41.796875 17.71875 41.796875 35.296875 
Q 41.796875 52.984375 37.671875 58.78125 
Q 33.546875 64.59375 27.390625 64.59375 
Q 21.34375 64.59375 17.71875 59.46875 
Q 13.1875 52.9375 13.1875 35.296875 
z
" id="ArialMT-30"/>
      </defs>
      <g style="fill:#262626;" transform="translate(81.452194 140.157813)scale(0.1 -0.1)">
       <use xlink:href="#ArialMT-30"/>
      </g>
     </g>
    </g>
    <g id="xtick_7">
     <g id="line2d_7">
      <g>
       <use style="fill:#262626;stroke:#262626;stroke-width:0.8;" x="97.112177" xlink:href="#m0a3ce3f040" y="126"/>
      </g>
     </g>
     <g id="text_7">
      <!-- 1 -->
      <g style="fill:#262626;" transform="translate(94.331708 140.157813)scale(0.1 -0.1)">
       <use xlink:href="#ArialMT-31"/>
      </g>
     </g>
    </g>
    <g id="xtick_8">
     <g id="line2d_8">
      <g>
       <use style="fill:#262626;stroke:#262626;stroke-width:0.8;" x="109.991691" xlink:href="#m0a3ce3f040" y="126"/>
      </g>
     </g>
     <g id="text_8">
      <!-- 2 -->
      <g style="fill:#262626;" transform="translate(107.211223 140.157813)scale(0.1 -0.1)">
       <use xlink:href="#ArialMT-32"/>
      </g>
     </g>
    </g>
    <g id="xtick_9">
     <g id="line2d_9">
      <g>
       <use style="fill:#262626;stroke:#262626;stroke-width:0.8;" x="122.871206" xlink:href="#m0a3ce3f040" y="126"/>
      </g>
     </g>
     <g id="text_9">
      <!-- 3 -->
      <g style="fill:#262626;" transform="translate(120.090737 140.157813)scale(0.1 -0.1)">
       <use xlink:href="#ArialMT-33"/>
      </g>
     </g>
    </g>
    <g id="text_10">
     <!-- $pKa$ Experiment - $pKa$ Jaguar macro -->
     <defs>
      <path d="M 49.609375 33.6875 
Q 49.609375 40.875 46.484375 44.671875 
Q 43.359375 48.484375 37.5 48.484375 
Q 33.5 48.484375 29.859375 46.4375 
Q 26.21875 44.390625 23.390625 40.484375 
Q 20.609375 36.625 18.9375 31.15625 
Q 17.28125 25.6875 17.28125 20.3125 
Q 17.28125 13.484375 20.40625 9.796875 
Q 23.53125 6.109375 29.296875 6.109375 
Q 33.546875 6.109375 37.1875 8.109375 
Q 40.828125 10.109375 43.40625 13.921875 
Q 46.1875 17.921875 47.890625 23.34375 
Q 49.609375 28.765625 49.609375 33.6875 
z
M 21.78125 46.390625 
Q 25.390625 51.125 30.296875 53.5625 
Q 35.203125 56 41.21875 56 
Q 49.609375 56 54.25 50.5 
Q 58.890625 45.015625 58.890625 35.109375 
Q 58.890625 27 56 19.65625 
Q 53.125 12.3125 47.703125 6.5 
Q 44.09375 2.640625 39.546875 0.609375 
Q 35.015625 -1.421875 29.984375 -1.421875 
Q 24.171875 -1.421875 20.21875 1 
Q 16.265625 3.421875 14.3125 8.203125 
L 8.6875 -20.796875 
L -0.296875 -20.796875 
L 14.40625 54.6875 
L 23.390625 54.6875 
z
" id="DejaVuSans-Oblique-70"/>
      <path d="M 16.890625 72.90625 
L 26.8125 72.90625 
L 20.796875 42.1875 
L 59.078125 72.90625 
L 72.21875 72.90625 
L 28.90625 38.09375 
L 60.59375 0 
L 48.578125 0 
L 19.484375 35.5 
L 12.59375 0 
L 2.6875 0 
z
" id="DejaVuSans-Oblique-4b"/>
      <path d="M 53.71875 31.203125 
L 47.609375 0 
L 38.625 0 
L 40.28125 8.296875 
Q 36.328125 3.421875 31.265625 1 
Q 26.21875 -1.421875 20.015625 -1.421875 
Q 13.03125 -1.421875 8.5625 2.84375 
Q 4.109375 7.125 4.109375 13.8125 
Q 4.109375 23.390625 11.75 28.953125 
Q 19.390625 34.515625 32.8125 34.515625 
L 45.3125 34.515625 
L 45.796875 36.921875 
Q 45.90625 37.3125 45.953125 37.765625 
Q 46 38.234375 46 39.203125 
Q 46 43.5625 42.453125 45.96875 
Q 38.921875 48.390625 32.515625 48.390625 
Q 28.125 48.390625 23.5 47.265625 
Q 18.890625 46.140625 14.015625 43.890625 
L 15.578125 52.203125 
Q 20.65625 54.109375 25.515625 55.046875 
Q 30.375 56 34.90625 56 
Q 44.578125 56 49.625 51.796875 
Q 54.6875 47.609375 54.6875 39.59375 
Q 54.6875 37.984375 54.4375 35.8125 
Q 54.203125 33.640625 53.71875 31.203125 
z
M 44 27.484375 
L 35.015625 27.484375 
Q 23.96875 27.484375 18.671875 24.53125 
Q 13.375 21.578125 13.375 15.375 
Q 13.375 11.078125 16.078125 8.640625 
Q 18.796875 6.203125 23.578125 6.203125 
Q 30.90625 6.203125 36.375 11.453125 
Q 41.84375 16.703125 43.609375 25.484375 
z
" id="DejaVuSans-Oblique-61"/>
      <path id="ArialMT-20"/>
      <path d="M 7.90625 0 
L 7.90625 71.578125 
L 59.671875 71.578125 
L 59.671875 63.140625 
L 17.390625 63.140625 
L 17.390625 41.21875 
L 56.984375 41.21875 
L 56.984375 32.8125 
L 17.390625 32.8125 
L 17.390625 8.453125 
L 61.328125 8.453125 
L 61.328125 0 
z
" id="ArialMT-45"/>
      <path d="M 0.734375 0 
L 19.671875 26.953125 
L 2.15625 51.859375 
L 13.140625 51.859375 
L 21.09375 39.703125 
Q 23.34375 36.234375 24.703125 33.890625 
Q 26.859375 37.109375 28.65625 39.59375 
L 37.40625 51.859375 
L 47.90625 51.859375 
L 29.984375 27.4375 
L 49.265625 0 
L 38.484375 0 
L 27.828125 16.109375 
L 25 20.453125 
L 11.375 0 
z
" id="ArialMT-78"/>
      <path d="M 6.59375 -19.875 
L 6.59375 51.859375 
L 14.59375 51.859375 
L 14.59375 45.125 
Q 17.4375 49.078125 21 51.046875 
Q 24.5625 53.03125 29.640625 53.03125 
Q 36.28125 53.03125 41.359375 49.609375 
Q 46.4375 46.1875 49.015625 39.953125 
Q 51.609375 33.734375 51.609375 26.3125 
Q 51.609375 18.359375 48.75 11.984375 
Q 45.90625 5.609375 40.453125 2.21875 
Q 35.015625 -1.171875 29 -1.171875 
Q 24.609375 -1.171875 21.109375 0.6875 
Q 17.625 2.546875 15.375 5.375 
L 15.375 -19.875 
z
M 14.546875 25.640625 
Q 14.546875 15.625 18.59375 10.84375 
Q 22.65625 6.0625 28.421875 6.0625 
Q 34.28125 6.0625 38.453125 11.015625 
Q 42.625 15.96875 42.625 26.375 
Q 42.625 36.28125 38.546875 41.203125 
Q 34.46875 46.140625 28.8125 46.140625 
Q 23.1875 46.140625 18.859375 40.890625 
Q 14.546875 35.640625 14.546875 25.640625 
z
" id="ArialMT-70"/>
      <path d="M 42.09375 16.703125 
L 51.171875 15.578125 
Q 49.03125 7.625 43.21875 3.21875 
Q 37.40625 -1.171875 28.375 -1.171875 
Q 17 -1.171875 10.328125 5.828125 
Q 3.65625 12.84375 3.65625 25.484375 
Q 3.65625 38.578125 10.390625 45.796875 
Q 17.140625 53.03125 27.875 53.03125 
Q 38.28125 53.03125 44.875 45.953125 
Q 51.46875 38.875 51.46875 26.03125 
Q 51.46875 25.25 51.421875 23.6875 
L 12.75 23.6875 
Q 13.234375 15.140625 17.578125 10.59375 
Q 21.921875 6.0625 28.421875 6.0625 
Q 33.25 6.0625 36.671875 8.59375 
Q 40.09375 11.140625 42.09375 16.703125 
z
M 13.234375 30.90625 
L 42.1875 30.90625 
Q 41.609375 37.453125 38.875 40.71875 
Q 34.671875 45.796875 27.984375 45.796875 
Q 21.921875 45.796875 17.796875 41.75 
Q 13.671875 37.703125 13.234375 30.90625 
z
" id="ArialMT-65"/>
      <path d="M 6.5 0 
L 6.5 51.859375 
L 14.40625 51.859375 
L 14.40625 44 
Q 17.4375 49.515625 20 51.265625 
Q 22.5625 53.03125 25.640625 53.03125 
Q 30.078125 53.03125 34.671875 50.203125 
L 31.640625 42.046875 
Q 28.421875 43.953125 25.203125 43.953125 
Q 22.3125 43.953125 20.015625 42.21875 
Q 17.71875 40.484375 16.75 37.40625 
Q 15.28125 32.71875 15.28125 27.15625 
L 15.28125 0 
z
" id="ArialMT-72"/>
      <path d="M 6.640625 61.46875 
L 6.640625 71.578125 
L 15.4375 71.578125 
L 15.4375 61.46875 
z
M 6.640625 0 
L 6.640625 51.859375 
L 15.4375 51.859375 
L 15.4375 0 
z
" id="ArialMT-69"/>
      <path d="M 6.59375 0 
L 6.59375 51.859375 
L 14.453125 51.859375 
L 14.453125 44.578125 
Q 16.890625 48.390625 20.9375 50.703125 
Q 25 53.03125 30.171875 53.03125 
Q 35.9375 53.03125 39.625 50.640625 
Q 43.3125 48.25 44.828125 43.953125 
Q 50.984375 53.03125 60.84375 53.03125 
Q 68.5625 53.03125 72.703125 48.75 
Q 76.859375 44.484375 76.859375 35.59375 
L 76.859375 0 
L 68.109375 0 
L 68.109375 32.671875 
Q 68.109375 37.9375 67.25 40.25 
Q 66.40625 42.578125 64.15625 43.984375 
Q 61.921875 45.40625 58.890625 45.40625 
Q 53.421875 45.40625 49.796875 41.765625 
Q 46.1875 38.140625 46.1875 30.125 
L 46.1875 0 
L 37.40625 0 
L 37.40625 33.6875 
Q 37.40625 39.546875 35.25 42.46875 
Q 33.109375 45.40625 28.21875 45.40625 
Q 24.515625 45.40625 21.359375 43.453125 
Q 18.21875 41.5 16.796875 37.734375 
Q 15.375 33.984375 15.375 26.90625 
L 15.375 0 
z
" id="ArialMT-6d"/>
      <path d="M 6.59375 0 
L 6.59375 51.859375 
L 14.5 51.859375 
L 14.5 44.484375 
Q 20.21875 53.03125 31 53.03125 
Q 35.6875 53.03125 39.625 51.34375 
Q 43.5625 49.65625 45.515625 46.921875 
Q 47.46875 44.1875 48.25 40.4375 
Q 48.734375 37.984375 48.734375 31.890625 
L 48.734375 0 
L 39.9375 0 
L 39.9375 31.546875 
Q 39.9375 36.921875 38.90625 39.578125 
Q 37.890625 42.234375 35.28125 43.8125 
Q 32.671875 45.40625 29.15625 45.40625 
Q 23.53125 45.40625 19.453125 41.84375 
Q 15.375 38.28125 15.375 28.328125 
L 15.375 0 
z
" id="ArialMT-6e"/>
      <path d="M 25.78125 7.859375 
L 27.046875 0.09375 
Q 23.34375 -0.6875 20.40625 -0.6875 
Q 15.625 -0.6875 12.984375 0.828125 
Q 10.359375 2.34375 9.28125 4.8125 
Q 8.203125 7.28125 8.203125 15.1875 
L 8.203125 45.015625 
L 1.765625 45.015625 
L 1.765625 51.859375 
L 8.203125 51.859375 
L 8.203125 64.703125 
L 16.9375 69.96875 
L 16.9375 51.859375 
L 25.78125 51.859375 
L 25.78125 45.015625 
L 16.9375 45.015625 
L 16.9375 14.703125 
Q 16.9375 10.9375 17.40625 9.859375 
Q 17.875 8.796875 18.921875 8.15625 
Q 19.96875 7.515625 21.921875 7.515625 
Q 23.390625 7.515625 25.78125 7.859375 
z
" id="ArialMT-74"/>
      <path d="M 3.171875 21.484375 
L 3.171875 30.328125 
L 30.171875 30.328125 
L 30.171875 21.484375 
z
" id="ArialMT-2d"/>
      <path d="M 2.875 20.3125 
L 11.421875 21.484375 
Q 11.765625 13.28125 14.5 10.25 
Q 17.234375 7.234375 22.078125 7.234375 
Q 25.640625 7.234375 28.21875 8.859375 
Q 30.8125 10.5 31.78125 13.296875 
Q 32.765625 16.109375 32.765625 22.265625 
L 32.765625 71.578125 
L 42.234375 71.578125 
L 42.234375 22.796875 
Q 42.234375 13.8125 40.0625 8.875 
Q 37.890625 3.953125 33.171875 1.359375 
Q 28.46875 -1.21875 22.125 -1.21875 
Q 12.703125 -1.21875 7.6875 4.203125 
Q 2.6875 9.625 2.875 20.3125 
z
" id="ArialMT-4a"/>
      <path d="M 40.4375 6.390625 
Q 35.546875 2.25 31.03125 0.53125 
Q 26.515625 -1.171875 21.34375 -1.171875 
Q 12.796875 -1.171875 8.203125 3 
Q 3.609375 7.171875 3.609375 13.671875 
Q 3.609375 17.484375 5.34375 20.625 
Q 7.078125 23.78125 9.890625 25.6875 
Q 12.703125 27.59375 16.21875 28.5625 
Q 18.796875 29.25 24.03125 29.890625 
Q 34.671875 31.15625 39.703125 32.90625 
Q 39.75 34.71875 39.75 35.203125 
Q 39.75 40.578125 37.25 42.78125 
Q 33.890625 45.75 27.25 45.75 
Q 21.046875 45.75 18.09375 43.578125 
Q 15.140625 41.40625 13.71875 35.890625 
L 5.125 37.0625 
Q 6.296875 42.578125 8.984375 45.96875 
Q 11.671875 49.359375 16.75 51.1875 
Q 21.828125 53.03125 28.515625 53.03125 
Q 35.15625 53.03125 39.296875 51.46875 
Q 43.453125 49.90625 45.40625 47.53125 
Q 47.359375 45.171875 48.140625 41.546875 
Q 48.578125 39.3125 48.578125 33.453125 
L 48.578125 21.734375 
Q 48.578125 9.46875 49.140625 6.21875 
Q 49.703125 2.984375 51.375 0 
L 42.1875 0 
Q 40.828125 2.734375 40.4375 6.390625 
z
M 39.703125 26.03125 
Q 34.90625 24.078125 25.34375 22.703125 
Q 19.921875 21.921875 17.671875 20.9375 
Q 15.4375 19.96875 14.203125 18.09375 
Q 12.984375 16.21875 12.984375 13.921875 
Q 12.984375 10.40625 15.640625 8.0625 
Q 18.3125 5.71875 23.4375 5.71875 
Q 28.515625 5.71875 32.46875 7.9375 
Q 36.421875 10.15625 38.28125 14.015625 
Q 39.703125 17 39.703125 22.796875 
z
" id="ArialMT-61"/>
      <path d="M 4.984375 -4.296875 
L 13.53125 -5.5625 
Q 14.0625 -9.515625 16.5 -11.328125 
Q 19.78125 -13.765625 25.4375 -13.765625 
Q 31.546875 -13.765625 34.859375 -11.328125 
Q 38.1875 -8.890625 39.359375 -4.5 
Q 40.046875 -1.8125 39.984375 6.78125 
Q 34.234375 0 25.640625 0 
Q 14.9375 0 9.078125 7.71875 
Q 3.21875 15.4375 3.21875 26.21875 
Q 3.21875 33.640625 5.90625 39.90625 
Q 8.59375 46.1875 13.6875 49.609375 
Q 18.796875 53.03125 25.6875 53.03125 
Q 34.859375 53.03125 40.828125 45.609375 
L 40.828125 51.859375 
L 48.921875 51.859375 
L 48.921875 7.03125 
Q 48.921875 -5.078125 46.453125 -10.125 
Q 44 -15.1875 38.640625 -18.109375 
Q 33.296875 -21.046875 25.484375 -21.046875 
Q 16.21875 -21.046875 10.5 -16.875 
Q 4.78125 -12.703125 4.984375 -4.296875 
z
M 12.25 26.859375 
Q 12.25 16.65625 16.296875 11.96875 
Q 20.359375 7.28125 26.46875 7.28125 
Q 32.515625 7.28125 36.609375 11.9375 
Q 40.71875 16.609375 40.71875 26.5625 
Q 40.71875 36.078125 36.5 40.90625 
Q 32.28125 45.75 26.3125 45.75 
Q 20.453125 45.75 16.34375 40.984375 
Q 12.25 36.234375 12.25 26.859375 
z
" id="ArialMT-67"/>
      <path d="M 40.578125 0 
L 40.578125 7.625 
Q 34.515625 -1.171875 24.125 -1.171875 
Q 19.53125 -1.171875 15.546875 0.578125 
Q 11.578125 2.34375 9.640625 5 
Q 7.71875 7.671875 6.9375 11.53125 
Q 6.390625 14.109375 6.390625 19.734375 
L 6.390625 51.859375 
L 15.1875 51.859375 
L 15.1875 23.09375 
Q 15.1875 16.21875 15.71875 13.8125 
Q 16.546875 10.359375 19.234375 8.375 
Q 21.921875 6.390625 25.875 6.390625 
Q 29.828125 6.390625 33.296875 8.421875 
Q 36.765625 10.453125 38.203125 13.9375 
Q 39.65625 17.4375 39.65625 24.078125 
L 39.65625 51.859375 
L 48.4375 51.859375 
L 48.4375 0 
z
" id="ArialMT-75"/>
      <path d="M 40.4375 19 
L 49.078125 17.875 
Q 47.65625 8.9375 41.8125 3.875 
Q 35.984375 -1.171875 27.484375 -1.171875 
Q 16.84375 -1.171875 10.375 5.78125 
Q 3.90625 12.75 3.90625 25.734375 
Q 3.90625 34.125 6.6875 40.421875 
Q 9.46875 46.734375 15.15625 49.875 
Q 20.84375 53.03125 27.546875 53.03125 
Q 35.984375 53.03125 41.359375 48.75 
Q 46.734375 44.484375 48.25 36.625 
L 39.703125 35.296875 
Q 38.484375 40.53125 35.375 43.15625 
Q 32.28125 45.796875 27.875 45.796875 
Q 21.234375 45.796875 17.078125 41.03125 
Q 12.9375 36.28125 12.9375 25.984375 
Q 12.9375 15.53125 16.9375 10.796875 
Q 20.953125 6.0625 27.390625 6.0625 
Q 32.5625 6.0625 36.03125 9.234375 
Q 39.5 12.40625 40.4375 19 
z
" id="ArialMT-63"/>
      <path d="M 3.328125 25.921875 
Q 3.328125 40.328125 11.328125 47.265625 
Q 18.015625 53.03125 27.640625 53.03125 
Q 38.328125 53.03125 45.109375 46.015625 
Q 51.90625 39.015625 51.90625 26.65625 
Q 51.90625 16.65625 48.90625 10.90625 
Q 45.90625 5.171875 40.15625 2 
Q 34.421875 -1.171875 27.640625 -1.171875 
Q 16.75 -1.171875 10.03125 5.8125 
Q 3.328125 12.796875 3.328125 25.921875 
z
M 12.359375 25.921875 
Q 12.359375 15.96875 16.703125 11.015625 
Q 21.046875 6.0625 27.640625 6.0625 
Q 34.1875 6.0625 38.53125 11.03125 
Q 42.875 16.015625 42.875 26.21875 
Q 42.875 35.84375 38.5 40.796875 
Q 34.125 45.75 27.640625 45.75 
Q 21.046875 45.75 16.703125 40.8125 
Q 12.359375 35.890625 12.359375 25.921875 
z
" id="ArialMT-6f"/>
     </defs>
     <g style="fill:#262626;" transform="translate(-8.35 153.445312)scale(0.1 -0.1)">
      <use transform="translate(0 0.09375)" xlink:href="#DejaVuSans-Oblique-70"/>
      <use transform="translate(63.476562 0.09375)" xlink:href="#DejaVuSans-Oblique-4b"/>
      <use transform="translate(129.052734 0.09375)" xlink:href="#DejaVuSans-Oblique-61"/>
      <use transform="translate(190.332031 0.09375)" xlink:href="#ArialMT-20"/>
      <use transform="translate(218.115234 0.09375)" xlink:href="#ArialMT-45"/>
      <use transform="translate(284.814453 0.09375)" xlink:href="#ArialMT-78"/>
      <use transform="translate(334.814453 0.09375)" xlink:href="#ArialMT-70"/>
      <use transform="translate(390.429688 0.09375)" xlink:href="#ArialMT-65"/>
      <use transform="translate(446.044922 0.09375)" xlink:href="#ArialMT-72"/>
      <use transform="translate(479.345703 0.09375)" xlink:href="#ArialMT-69"/>
      <use transform="translate(501.5625 0.09375)" xlink:href="#ArialMT-6d"/>
      <use transform="translate(584.863281 0.09375)" xlink:href="#ArialMT-65"/>
      <use transform="translate(640.478516 0.09375)" xlink:href="#ArialMT-6e"/>
      <use transform="translate(696.09375 0.09375)" xlink:href="#ArialMT-74"/>
      <use transform="translate(723.876953 0.09375)" xlink:href="#ArialMT-20"/>
      <use transform="translate(751.660156 0.09375)" xlink:href="#ArialMT-2d"/>
      <use transform="translate(784.960938 0.09375)" xlink:href="#ArialMT-20"/>
      <use transform="translate(812.744141 0.09375)" xlink:href="#DejaVuSans-Oblique-70"/>
      <use transform="translate(876.220703 0.09375)" xlink:href="#DejaVuSans-Oblique-4b"/>
      <use transform="translate(941.796875 0.09375)" xlink:href="#DejaVuSans-Oblique-61"/>
      <use transform="translate(1003.076172 0.09375)" xlink:href="#ArialMT-20"/>
      <use transform="translate(1030.859375 0.09375)" xlink:href="#ArialMT-4a"/>
      <use transform="translate(1080.859375 0.09375)" xlink:href="#ArialMT-61"/>
      <use transform="translate(1136.474609 0.09375)" xlink:href="#ArialMT-67"/>
      <use transform="translate(1192.089844 0.09375)" xlink:href="#ArialMT-75"/>
      <use transform="translate(1247.705078 0.09375)" xlink:href="#ArialMT-61"/>
      <use transform="translate(1303.320312 0.09375)" xlink:href="#ArialMT-72"/>
      <use transform="translate(1336.621094 0.09375)" xlink:href="#ArialMT-20"/>
      <use transform="translate(1364.404297 0.09375)" xlink:href="#ArialMT-6d"/>
      <use transform="translate(1447.705078 0.09375)" xlink:href="#ArialMT-61"/>
      <use transform="translate(1503.320312 0.09375)" xlink:href="#ArialMT-63"/>
      <use transform="translate(1553.320312 0.09375)" xlink:href="#ArialMT-72"/>
      <use transform="translate(1586.621094 0.09375)" xlink:href="#ArialMT-6f"/>
     </g>
    </g>
   </g>
   <g id="matplotlib.axis_2"/>
   <g id="PolyCollection_1">
    <defs>
     <path d="M 23.072727 -18.139561 
L 23.072727 -18 
L 23.871582 -18 
L 24.670437 -18 
L 25.469291 -18 
L 26.268146 -18 
L 27.067001 -18 
L 27.865855 -18 
L 28.66471 -18 
L 29.463565 -18 
L 30.262419 -18 
L 31.061274 -18 
L 31.860129 -18 
L 32.658984 -18 
L 33.457838 -18 
L 34.256693 -18 
L 35.055548 -18 
L 35.854402 -18 
L 36.653257 -18 
L 37.452112 -18 
L 38.250966 -18 
L 39.049821 -18 
L 39.848676 -18 
L 40.64753 -18 
L 41.446385 -18 
L 42.24524 -18 
L 43.044094 -18 
L 43.842949 -18 
L 44.641804 -18 
L 45.440659 -18 
L 46.239513 -18 
L 47.038368 -18 
L 47.837223 -18 
L 48.636077 -18 
L 49.434932 -18 
L 50.233787 -18 
L 51.032641 -18 
L 51.831496 -18 
L 52.630351 -18 
L 53.429205 -18 
L 54.22806 -18 
L 55.026915 -18 
L 55.82577 -18 
L 56.624624 -18 
L 57.423479 -18 
L 58.222334 -18 
L 59.021188 -18 
L 59.820043 -18 
L 60.618898 -18 
L 61.417752 -18 
L 62.216607 -18 
L 63.015462 -18 
L 63.814316 -18 
L 64.613171 -18 
L 65.412026 -18 
L 66.21088 -18 
L 67.009735 -18 
L 67.80859 -18 
L 68.607445 -18 
L 69.406299 -18 
L 70.205154 -18 
L 71.004009 -18 
L 71.802863 -18 
L 72.601718 -18 
L 73.400573 -18 
L 74.199427 -18 
L 74.998282 -18 
L 75.797137 -18 
L 76.595991 -18 
L 77.394846 -18 
L 78.193701 -18 
L 78.992555 -18 
L 79.79141 -18 
L 80.590265 -18 
L 81.38912 -18 
L 82.187974 -18 
L 82.986829 -18 
L 83.785684 -18 
L 84.584538 -18 
L 85.383393 -18 
L 86.182248 -18 
L 86.981102 -18 
L 87.779957 -18 
L 88.578812 -18 
L 89.377666 -18 
L 90.176521 -18 
L 90.975376 -18 
L 91.77423 -18 
L 92.573085 -18 
L 93.37194 -18 
L 94.170795 -18 
L 94.969649 -18 
L 95.768504 -18 
L 96.567359 -18 
L 97.366213 -18 
L 98.165068 -18 
L 98.963923 -18 
L 99.762777 -18 
L 100.561632 -18 
L 101.360487 -18 
L 102.159341 -18 
L 102.958196 -18 
L 103.757051 -18 
L 104.555906 -18 
L 105.35476 -18 
L 106.153615 -18 
L 106.95247 -18 
L 107.751324 -18 
L 108.550179 -18 
L 109.349034 -18 
L 110.147888 -18 
L 110.946743 -18 
L 111.745598 -18 
L 112.544452 -18 
L 113.343307 -18 
L 114.142162 -18 
L 114.941016 -18 
L 115.739871 -18 
L 116.538726 -18 
L 117.337581 -18 
L 118.136435 -18 
L 118.93529 -18 
L 119.734145 -18 
L 120.532999 -18 
L 121.331854 -18 
L 122.130709 -18 
L 122.929563 -18 
L 123.728418 -18 
L 124.527273 -18 
L 124.527273 -18.139358 
L 124.527273 -18.139358 
L 123.728418 -18.160519 
L 122.929563 -18.204582 
L 122.130709 -18.274597 
L 121.331854 -18.374979 
L 120.532999 -18.511266 
L 119.734145 -18.689788 
L 118.93529 -18.917236 
L 118.136435 -19.200156 
L 117.337581 -19.544408 
L 116.538726 -19.954659 
L 115.739871 -20.434009 
L 114.941016 -20.983877 
L 114.142162 -21.604251 
L 113.343307 -22.294438 
L 112.544452 -23.054338 
L 111.745598 -23.886258 
L 110.946743 -24.797149 
L 110.147888 -25.80104 
L 109.349034 -26.921349 
L 108.550179 -28.192651 
L 107.751324 -29.661454 
L 106.95247 -31.38555 
L 106.153615 -33.431597 
L 105.35476 -35.870789 
L 104.555906 -38.772692 
L 103.757051 -42.197635 
L 102.958196 -46.188318 
L 102.159341 -50.761578 
L 101.360487 -55.901372 
L 100.561632 -61.554108 
L 99.762777 -67.627273 
L 98.963923 -73.991995 
L 98.165068 -80.489751 
L 97.366213 -86.942834 
L 96.567359 -93.167669 
L 95.768504 -98.989531 
L 94.969649 -104.256959 
L 94.170795 -108.854005 
L 93.37194 -112.708696 
L 92.573085 -115.796518 
L 91.77423 -118.138399 
L 90.975376 -119.793429 
L 90.176521 -120.847352 
L 89.377666 -121.398449 
L 88.578812 -121.542857 
L 87.779957 -121.361397 
L 86.981102 -120.909759 
L 86.182248 -120.213332 
L 85.383393 -119.267206 
L 84.584538 -118.041113 
L 83.785684 -116.488296 
L 82.986829 -114.556763 
L 82.187974 -112.201111 
L 81.38912 -109.393134 
L 80.590265 -106.129738 
L 79.79141 -102.437192 
L 78.992555 -98.371385 
L 78.193701 -94.014337 
L 77.394846 -89.467738 
L 76.595991 -84.844565 
L 75.797137 -80.259986 
L 74.998282 -75.822618 
L 74.199427 -71.627038 
L 73.400573 -67.7481 
L 72.601718 -64.237338 
L 71.802863 -61.12144 
L 71.004009 -58.402623 
L 70.205154 -56.060627 
L 69.406299 -54.056003 
L 68.607445 -52.334391 
L 67.80859 -50.831493 
L 67.009735 -49.478446 
L 66.21088 -48.207288 
L 65.412026 -46.956176 
L 64.613171 -45.674005 
L 63.814316 -44.324056 
L 63.015462 -42.88636 
L 62.216607 -41.358553 
L 61.417752 -39.755134 
L 60.618898 -38.105197 
L 59.820043 -36.448893 
L 59.021188 -34.832985 
L 58.222334 -33.30601 
L 57.423479 -31.913524 
L 56.624624 -30.693949 
L 55.82577 -29.675376 
L 55.026915 -28.873599 
L 54.22806 -28.291466 
L 53.429205 -27.919482 
L 52.630351 -27.737472 
L 51.831496 -27.716995 
L 51.032641 -27.82417 
L 50.233787 -28.022553 
L 49.434932 -28.275756 
L 48.636077 -28.549573 
L 47.837223 -28.813495 
L 47.038368 -29.041561 
L 46.239513 -29.212662 
L 45.440659 -29.310395 
L 44.641804 -29.32268 
L 43.842949 -29.241304 
L 43.044094 -29.061535 
L 42.24524 -28.781883 
L 41.446385 -28.404024 
L 40.64753 -27.932834 
L 39.848676 -27.376431 
L 39.049821 -26.746117 
L 38.250966 -26.056123 
L 37.452112 -25.323102 
L 36.653257 -24.565356 
L 35.854402 -23.801861 
L 35.055548 -23.05118 
L 34.256693 -22.330385 
L 33.457838 -21.654113 
L 32.658984 -21.033861 
L 31.860129 -20.477579 
L 31.061274 -19.989588 
L 30.262419 -19.570806 
L 29.463565 -19.219208 
L 28.66471 -18.93047 
L 27.865855 -18.698677 
L 27.067001 -18.517056 
L 26.268146 -18.378638 
L 25.469291 -18.276831 
L 24.670437 -18.205876 
L 23.871582 -18.161183 
L 23.072727 -18.139561 
z
" id="mab4c671730" style="stroke:#ffffff;stroke-opacity:0.25;"/>
    </defs>
    <g clip-path="url(#p8b78c7b399)">
     <use style="fill:#591e71;fill-opacity:0.25;stroke:#ffffff;stroke-opacity:0.25;" x="0" xlink:href="#mab4c671730" y="144"/>
    </g>
   </g>
   <g id="LineCollection_1">
    <path clip-path="url(#p8b78c7b399)" d="M 82.300739 126 
L 82.300739 120.564 
" style="fill:none;stroke:#591e71;"/>
    <path clip-path="url(#p8b78c7b399)" d="M 94.425936 126 
L 94.425936 120.564 
" style="fill:none;stroke:#591e71;"/>
    <path clip-path="url(#p8b78c7b399)" d="M 82.743438 126 
L 82.743438 120.564 
" style="fill:none;stroke:#591e71;"/>
    <path clip-path="url(#p8b78c7b399)" d="M 94.667922 126 
L 94.667922 120.564 
" style="fill:none;stroke:#591e71;"/>
    <path clip-path="url(#p8b78c7b399)" d="M 79.101246 126 
L 79.101246 120.564 
" style="fill:none;stroke:#591e71;"/>
    <path clip-path="url(#p8b78c7b399)" d="M 62.977812 126 
L 62.977812 120.564 
" style="fill:none;stroke:#591e71;"/>
    <path clip-path="url(#p8b78c7b399)" d="M 40.570372 126 
L 40.570372 120.564 
" style="fill:none;stroke:#591e71;"/>
    <path clip-path="url(#p8b78c7b399)" d="M 92.612916 126 
L 92.612916 120.564 
" style="fill:none;stroke:#591e71;"/>
    <path clip-path="url(#p8b78c7b399)" d="M 48.541984 126 
L 48.541984 120.564 
" style="fill:none;stroke:#591e71;"/>
    <path clip-path="url(#p8b78c7b399)" d="M 92.339985 126 
L 92.339985 120.564 
" style="fill:none;stroke:#591e71;"/>
    <path clip-path="url(#p8b78c7b399)" d="M 82.093224 126 
L 82.093224 120.564 
" style="fill:none;stroke:#591e71;"/>
    <path clip-path="url(#p8b78c7b399)" d="M 94.758154 126 
L 94.758154 120.564 
" style="fill:none;stroke:#591e71;"/>
    <path clip-path="url(#p8b78c7b399)" d="M 107.029628 126 
L 107.029628 120.564 
" style="fill:none;stroke:#591e71;"/>
    <path clip-path="url(#p8b78c7b399)" d="M 88.142808 126 
L 88.142808 120.564 
" style="fill:none;stroke:#591e71;"/>
    <path clip-path="url(#p8b78c7b399)" d="M 82.295413 126 
L 82.295413 120.564 
" style="fill:none;stroke:#591e71;"/>
    <path clip-path="url(#p8b78c7b399)" d="M 82.199847 126 
L 82.199847 120.564 
" style="fill:none;stroke:#591e71;"/>
    <path clip-path="url(#p8b78c7b399)" d="M 82.30075 126 
L 82.30075 120.564 
" style="fill:none;stroke:#591e71;"/>
    <path clip-path="url(#p8b78c7b399)" d="M 86.808518 126 
L 86.808518 120.564 
" style="fill:none;stroke:#591e71;"/>
    <path clip-path="url(#p8b78c7b399)" d="M 91.156486 126 
L 91.156486 120.564 
" style="fill:none;stroke:#591e71;"/>
    <path clip-path="url(#p8b78c7b399)" d="M 77.017836 126 
L 77.017836 120.564 
" style="fill:none;stroke:#591e71;"/>
    <path clip-path="url(#p8b78c7b399)" d="M 83.200556 126 
L 83.200556 120.564 
" style="fill:none;stroke:#591e71;"/>
    <path clip-path="url(#p8b78c7b399)" d="M 93.037065 126 
L 93.037065 120.564 
" style="fill:none;stroke:#591e71;"/>
    <path clip-path="url(#p8b78c7b399)" d="M 95.288554 126 
L 95.288554 120.564 
" style="fill:none;stroke:#591e71;"/>
    <path clip-path="url(#p8b78c7b399)" d="M 66.046818 126 
L 66.046818 120.564 
" style="fill:none;stroke:#591e71;"/>
    <path clip-path="url(#p8b78c7b399)" d="M 94.974746 126 
L 94.974746 120.564 
" style="fill:none;stroke:#591e71;"/>
    <path clip-path="url(#p8b78c7b399)" d="M 63.496626 126 
L 63.496626 120.564 
" style="fill:none;stroke:#591e71;"/>
    <path clip-path="url(#p8b78c7b399)" d="M 91.368383 126 
L 91.368383 120.564 
" style="fill:none;stroke:#591e71;"/>
    <path clip-path="url(#p8b78c7b399)" d="M 81.39537 126 
L 81.39537 120.564 
" style="fill:none;stroke:#591e71;"/>
    <path clip-path="url(#p8b78c7b399)" d="M 93.549456 126 
L 93.549456 120.564 
" style="fill:none;stroke:#591e71;"/>
    <path clip-path="url(#p8b78c7b399)" d="M 72.435761 126 
L 72.435761 120.564 
" style="fill:none;stroke:#591e71;"/>
    <path clip-path="url(#p8b78c7b399)" d="M 73.419803 126 
L 73.419803 120.564 
" style="fill:none;stroke:#591e71;"/>
   </g>
   <g id="line2d_10">
    <path clip-path="url(#p8b78c7b399)" d="M 23.072727 125.860439 
L 25.469291 125.723169 
L 27.067001 125.482944 
L 28.66471 125.06953 
L 30.262419 124.429194 
L 31.860129 123.522421 
L 33.457838 122.345887 
L 35.854402 120.198139 
L 39.049821 117.253883 
L 40.64753 116.067166 
L 42.24524 115.218117 
L 43.842949 114.758696 
L 45.440659 114.689605 
L 47.038368 114.958439 
L 51.831496 116.283005 
L 52.630351 116.262528 
L 53.429205 116.080518 
L 54.22806 115.708534 
L 55.026915 115.126401 
L 55.82577 114.324624 
L 56.624624 113.306051 
L 58.222334 110.69399 
L 60.618898 105.894803 
L 63.015462 101.11364 
L 64.613171 98.325995 
L 67.80859 93.168507 
L 69.406299 89.943997 
L 70.205154 87.939373 
L 71.004009 85.597377 
L 71.802863 82.87856 
L 73.400573 76.2519 
L 74.998282 68.177382 
L 79.79141 41.562808 
L 81.38912 34.606866 
L 82.187974 31.798889 
L 82.986829 29.443237 
L 83.785684 27.511704 
L 84.584538 25.958887 
L 85.383393 24.732794 
L 86.182248 23.786668 
L 86.981102 23.090241 
L 87.779957 22.638603 
L 88.578812 22.457143 
L 89.377666 22.601551 
L 90.176521 23.152648 
L 90.975376 24.206571 
L 91.77423 25.861601 
L 92.573085 28.203482 
L 93.37194 31.291304 
L 94.170795 35.145995 
L 94.969649 39.743041 
L 96.567359 50.832331 
L 101.360487 88.098628 
L 102.958196 97.811682 
L 104.555906 105.227308 
L 105.35476 108.129211 
L 106.153615 110.568403 
L 106.95247 112.61445 
L 108.550179 115.807349 
L 110.147888 118.19896 
L 111.745598 120.113742 
L 113.343307 121.705562 
L 114.941016 123.016123 
L 116.538726 124.045341 
L 118.136435 124.799844 
L 119.734145 125.310212 
L 121.331854 125.625021 
L 123.728418 125.839481 
L 124.527273 125.860642 
L 124.527273 125.860642 
" style="fill:none;stroke:#591e71;stroke-linecap:round;stroke-width:1.5;"/>
   </g>
   <g id="line2d_11">
    <path clip-path="url(#p8b78c7b399)" d="M 82.743438 126 
L 82.743438 17.28 
" style="fill:none;stroke:#000000;stroke-linecap:round;"/>
   </g>
   <g id="patch_3">
    <path d="M 18 126 
L 129.6 126 
" style="fill:none;stroke:#262626;stroke-linecap:square;stroke-linejoin:miter;stroke-width:0.8;"/>
   </g>
  </g>
 </g>
 <defs>
  <clipPath id="p8b78c7b399">
   <rect height="108.72" width="111.6" x="18" y="17.28"/>
  </clipPath>
 </defs>
</svg>
