<?xml version="1.0" encoding="utf-8" standalone="no"?>
<!DOCTYPE svg PUBLIC "-//W3C//DTD SVG 1.1//EN"
  "http://www.w3.org/Graphics/SVG/1.1/DTD/svg11.dtd">
<!-- Created with matplotlib (http://matplotlib.org/) -->
<svg height="216pt" version="1.1" viewBox="0 0 216 216" width="216pt" xmlns="http://www.w3.org/2000/svg" xmlns:xlink="http://www.w3.org/1999/xlink">
 <defs>
  <style type="text/css">
*{stroke-linecap:butt;stroke-linejoin:round;}
  </style>
 </defs>
 <g id="figure_1">
  <g id="patch_1">
   <path d="M 0 216 
L 216 216 
L 216 0 
L 0 0 
z
" style="fill:#ffffff;"/>
  </g>
  <g id="axes_1">
   <g id="patch_2">
    <path d="M 44.78 175.96 
L 203.52 175.96 
L 203.52 25.44 
L 44.78 25.44 
z
" style="fill:#ffffff;"/>
   </g>
   <g id="matplotlib.axis_1">
    <g id="xtick_1">
     <g id="line2d_1">
      <defs>
       <path d="M 0 0 
L 0 3.5 
" id="m19bd828222" style="stroke:#262626;stroke-width:0.8;"/>
      </defs>
      <g>
       <use style="fill:#262626;stroke:#262626;stroke-width:0.8;" x="51.995455" xlink:href="#m19bd828222" y="175.96"/>
      </g>
     </g>
     <g id="text_1">
      <!-- 2 -->
      <defs>
       <path d="M 50.34375 8.453125 
L 50.34375 0 
L 3.03125 0 
Q 2.9375 3.171875 4.046875 6.109375 
Q 5.859375 10.9375 9.828125 15.625 
Q 13.8125 20.3125 21.34375 26.46875 
Q 33.015625 36.03125 37.109375 41.625 
Q 41.21875 47.21875 41.21875 52.203125 
Q 41.21875 57.421875 37.46875 61 
Q 33.734375 64.59375 27.734375 64.59375 
Q 21.390625 64.59375 17.578125 60.78125 
Q 13.765625 56.984375 13.71875 50.25 
L 4.6875 51.171875 
Q 5.609375 61.28125 11.65625 66.578125 
Q 17.71875 71.875 27.9375 71.875 
Q 38.234375 71.875 44.234375 66.15625 
Q 50.25 60.453125 50.25 52 
Q 50.25 47.703125 48.484375 43.546875 
Q 46.734375 39.40625 42.65625 34.8125 
Q 38.578125 30.21875 29.109375 22.21875 
Q 21.1875 15.578125 18.9375 13.203125 
Q 16.703125 10.84375 15.234375 8.453125 
z
" id="ArialMT-32"/>
      </defs>
      <g style="fill:#262626;" transform="translate(49.214986 190.117812)scale(0.1 -0.1)">
       <use xlink:href="#ArialMT-32"/>
      </g>
     </g>
    </g>
    <g id="xtick_2">
     <g id="line2d_2">
      <g>
       <use style="fill:#262626;stroke:#262626;stroke-width:0.8;" x="80.857273" xlink:href="#m19bd828222" y="175.96"/>
      </g>
     </g>
     <g id="text_2">
      <!-- 4 -->
      <defs>
       <path d="M 32.328125 0 
L 32.328125 17.140625 
L 1.265625 17.140625 
L 1.265625 25.203125 
L 33.9375 71.578125 
L 41.109375 71.578125 
L 41.109375 25.203125 
L 50.78125 25.203125 
L 50.78125 17.140625 
L 41.109375 17.140625 
L 41.109375 0 
z
M 32.328125 25.203125 
L 32.328125 57.46875 
L 9.90625 25.203125 
z
" id="ArialMT-34"/>
      </defs>
      <g style="fill:#262626;" transform="translate(78.076804 190.117812)scale(0.1 -0.1)">
       <use xlink:href="#ArialMT-34"/>
      </g>
     </g>
    </g>
    <g id="xtick_3">
     <g id="line2d_3">
      <g>
       <use style="fill:#262626;stroke:#262626;stroke-width:0.8;" x="109.719091" xlink:href="#m19bd828222" y="175.96"/>
      </g>
     </g>
     <g id="text_3">
      <!-- 6 -->
      <defs>
       <path d="M 49.75 54.046875 
L 41.015625 53.375 
Q 39.84375 58.546875 37.703125 60.890625 
Q 34.125 64.65625 28.90625 64.65625 
Q 24.703125 64.65625 21.53125 62.3125 
Q 17.390625 59.28125 14.984375 53.46875 
Q 12.59375 47.65625 12.5 36.921875 
Q 15.671875 41.75 20.265625 44.09375 
Q 24.859375 46.4375 29.890625 46.4375 
Q 38.671875 46.4375 44.84375 39.96875 
Q 51.03125 33.5 51.03125 23.25 
Q 51.03125 16.5 48.125 10.71875 
Q 45.21875 4.9375 40.140625 1.859375 
Q 35.0625 -1.21875 28.609375 -1.21875 
Q 17.625 -1.21875 10.6875 6.859375 
Q 3.765625 14.9375 3.765625 33.5 
Q 3.765625 54.25 11.421875 63.671875 
Q 18.109375 71.875 29.4375 71.875 
Q 37.890625 71.875 43.28125 67.140625 
Q 48.6875 62.40625 49.75 54.046875 
z
M 13.875 23.1875 
Q 13.875 18.65625 15.796875 14.5 
Q 17.71875 10.359375 21.1875 8.171875 
Q 24.65625 6 28.46875 6 
Q 34.03125 6 38.03125 10.484375 
Q 42.046875 14.984375 42.046875 22.703125 
Q 42.046875 30.125 38.078125 34.390625 
Q 34.125 38.671875 28.125 38.671875 
Q 22.171875 38.671875 18.015625 34.390625 
Q 13.875 30.125 13.875 23.1875 
z
" id="ArialMT-36"/>
      </defs>
      <g style="fill:#262626;" transform="translate(106.938622 190.117812)scale(0.1 -0.1)">
       <use xlink:href="#ArialMT-36"/>
      </g>
     </g>
    </g>
    <g id="xtick_4">
     <g id="line2d_4">
      <g>
       <use style="fill:#262626;stroke:#262626;stroke-width:0.8;" x="138.580909" xlink:href="#m19bd828222" y="175.96"/>
      </g>
     </g>
     <g id="text_4">
      <!-- 8 -->
      <defs>
       <path d="M 17.671875 38.8125 
Q 12.203125 40.828125 9.5625 44.53125 
Q 6.9375 48.25 6.9375 53.421875 
Q 6.9375 61.234375 12.546875 66.546875 
Q 18.171875 71.875 27.484375 71.875 
Q 36.859375 71.875 42.578125 66.421875 
Q 48.296875 60.984375 48.296875 53.171875 
Q 48.296875 48.1875 45.671875 44.5 
Q 43.0625 40.828125 37.75 38.8125 
Q 44.34375 36.671875 47.78125 31.875 
Q 51.21875 27.09375 51.21875 20.453125 
Q 51.21875 11.28125 44.71875 5.03125 
Q 38.234375 -1.21875 27.640625 -1.21875 
Q 17.046875 -1.21875 10.546875 5.046875 
Q 4.046875 11.328125 4.046875 20.703125 
Q 4.046875 27.6875 7.59375 32.390625 
Q 11.140625 37.109375 17.671875 38.8125 
z
M 15.921875 53.71875 
Q 15.921875 48.640625 19.1875 45.40625 
Q 22.46875 42.1875 27.6875 42.1875 
Q 32.765625 42.1875 36.015625 45.375 
Q 39.265625 48.578125 39.265625 53.21875 
Q 39.265625 58.0625 35.90625 61.359375 
Q 32.5625 64.65625 27.59375 64.65625 
Q 22.5625 64.65625 19.234375 61.421875 
Q 15.921875 58.203125 15.921875 53.71875 
z
M 13.09375 20.65625 
Q 13.09375 16.890625 14.875 13.375 
Q 16.65625 9.859375 20.171875 7.921875 
Q 23.6875 6 27.734375 6 
Q 34.03125 6 38.125 10.046875 
Q 42.234375 14.109375 42.234375 20.359375 
Q 42.234375 26.703125 38.015625 30.859375 
Q 33.796875 35.015625 27.4375 35.015625 
Q 21.234375 35.015625 17.15625 30.90625 
Q 13.09375 26.8125 13.09375 20.65625 
z
" id="ArialMT-38"/>
      </defs>
      <g style="fill:#262626;" transform="translate(135.80044 190.117812)scale(0.1 -0.1)">
       <use xlink:href="#ArialMT-38"/>
      </g>
     </g>
    </g>
    <g id="xtick_5">
     <g id="line2d_5">
      <g>
       <use style="fill:#262626;stroke:#262626;stroke-width:0.8;" x="167.442727" xlink:href="#m19bd828222" y="175.96"/>
      </g>
     </g>
     <g id="text_5">
      <!-- 10 -->
      <defs>
       <path d="M 37.25 0 
L 28.46875 0 
L 28.46875 56 
Q 25.296875 52.984375 20.140625 49.953125 
Q 14.984375 46.921875 10.890625 45.40625 
L 10.890625 53.90625 
Q 18.265625 57.375 23.78125 62.296875 
Q 29.296875 67.234375 31.59375 71.875 
L 37.25 71.875 
z
" id="ArialMT-31"/>
       <path d="M 4.15625 35.296875 
Q 4.15625 48 6.765625 55.734375 
Q 9.375 63.484375 14.515625 67.671875 
Q 19.671875 71.875 27.484375 71.875 
Q 33.25 71.875 37.59375 69.546875 
Q 41.9375 67.234375 44.765625 62.859375 
Q 47.609375 58.5 49.21875 52.21875 
Q 50.828125 45.953125 50.828125 35.296875 
Q 50.828125 22.703125 48.234375 14.96875 
Q 45.65625 7.234375 40.5 3 
Q 35.359375 -1.21875 27.484375 -1.21875 
Q 17.140625 -1.21875 11.234375 6.203125 
Q 4.15625 15.140625 4.15625 35.296875 
z
M 13.1875 35.296875 
Q 13.1875 17.671875 17.3125 11.828125 
Q 21.4375 6 27.484375 6 
Q 33.546875 6 37.671875 11.859375 
Q 41.796875 17.71875 41.796875 35.296875 
Q 41.796875 52.984375 37.671875 58.78125 
Q 33.546875 64.59375 27.390625 64.59375 
Q 21.34375 64.59375 17.71875 59.46875 
Q 13.1875 52.9375 13.1875 35.296875 
z
" id="ArialMT-30"/>
      </defs>
      <g style="fill:#262626;" transform="translate(161.88179 190.117812)scale(0.1 -0.1)">
       <use xlink:href="#ArialMT-31"/>
       <use x="55.615234" xlink:href="#ArialMT-30"/>
      </g>
     </g>
    </g>
    <g id="xtick_6">
     <g id="line2d_6">
      <g>
       <use style="fill:#262626;stroke:#262626;stroke-width:0.8;" x="196.304545" xlink:href="#m19bd828222" y="175.96"/>
      </g>
     </g>
     <g id="text_6">
      <!-- 12 -->
      <g style="fill:#262626;" transform="translate(190.743608 190.117812)scale(0.1 -0.1)">
       <use xlink:href="#ArialMT-31"/>
       <use x="55.615234" xlink:href="#ArialMT-32"/>
      </g>
     </g>
    </g>
    <g id="text_7">
     <!-- pH -->
     <defs>
      <path d="M 6.59375 -19.875 
L 6.59375 51.859375 
L 14.59375 51.859375 
L 14.59375 45.125 
Q 17.4375 49.078125 21 51.046875 
Q 24.5625 53.03125 29.640625 53.03125 
Q 36.28125 53.03125 41.359375 49.609375 
Q 46.4375 46.1875 49.015625 39.953125 
Q 51.609375 33.734375 51.609375 26.3125 
Q 51.609375 18.359375 48.75 11.984375 
Q 45.90625 5.609375 40.453125 2.21875 
Q 35.015625 -1.171875 29 -1.171875 
Q 24.609375 -1.171875 21.109375 0.6875 
Q 17.625 2.546875 15.375 5.375 
L 15.375 -19.875 
z
M 14.546875 25.640625 
Q 14.546875 15.625 18.59375 10.84375 
Q 22.65625 6.0625 28.421875 6.0625 
Q 34.28125 6.0625 38.453125 11.015625 
Q 42.625 15.96875 42.625 26.375 
Q 42.625 36.28125 38.546875 41.203125 
Q 34.46875 46.140625 28.8125 46.140625 
Q 23.1875 46.140625 18.859375 40.890625 
Q 14.546875 35.640625 14.546875 25.640625 
z
" id="ArialMT-70"/>
      <path d="M 8.015625 0 
L 8.015625 71.578125 
L 17.484375 71.578125 
L 17.484375 42.1875 
L 54.6875 42.1875 
L 54.6875 71.578125 
L 64.15625 71.578125 
L 64.15625 0 
L 54.6875 0 
L 54.6875 33.734375 
L 17.484375 33.734375 
L 17.484375 0 
z
" id="ArialMT-48"/>
     </defs>
     <g style="fill:#262626;" transform="translate(117.758594 203.263125)scale(0.1 -0.1)">
      <use xlink:href="#ArialMT-70"/>
      <use x="55.615234" xlink:href="#ArialMT-48"/>
     </g>
    </g>
   </g>
   <g id="matplotlib.axis_2">
    <g id="ytick_1">
     <g id="line2d_7">
      <defs>
       <path d="M 0 0 
L -3.5 0 
" id="m9af20840e9" style="stroke:#262626;stroke-width:0.8;"/>
      </defs>
      <g>
       <use style="fill:#262626;stroke:#262626;stroke-width:0.8;" x="44.78" xlink:href="#m9af20840e9" y="157.397398"/>
      </g>
     </g>
     <g id="text_8">
      <!-- −1 -->
      <defs>
       <path d="M 52.828125 31.203125 
L 5.5625 31.203125 
L 5.5625 39.40625 
L 52.828125 39.40625 
z
" id="ArialMT-2212"/>
      </defs>
      <g style="fill:#262626;" transform="translate(26.378438 160.976304)scale(0.1 -0.1)">
       <use xlink:href="#ArialMT-2212"/>
       <use x="58.398438" xlink:href="#ArialMT-31"/>
      </g>
     </g>
    </g>
    <g id="ytick_2">
     <g id="line2d_8">
      <g>
       <use style="fill:#262626;stroke:#262626;stroke-width:0.8;" x="44.78" xlink:href="#m9af20840e9" y="100.754244"/>
      </g>
     </g>
     <g id="text_9">
      <!-- 0 -->
      <g style="fill:#262626;" transform="translate(32.219063 104.33315)scale(0.1 -0.1)">
       <use xlink:href="#ArialMT-30"/>
      </g>
     </g>
    </g>
    <g id="ytick_3">
     <g id="line2d_9">
      <g>
       <use style="fill:#262626;stroke:#262626;stroke-width:0.8;" x="44.78" xlink:href="#m9af20840e9" y="44.11109"/>
      </g>
     </g>
     <g id="text_10">
      <!-- 1 -->
      <g style="fill:#262626;" transform="translate(32.219063 47.689996)scale(0.1 -0.1)">
       <use xlink:href="#ArialMT-31"/>
      </g>
     </g>
    </g>
    <g id="text_11">
     <!-- $\langle q_\mathsf{total} \rangle$ -->
     <defs>
      <path d="M 8.9375 31.34375 
L 22.703125 75.875 
L 31 75.875 
L 17.234375 31.34375 
L 31 -13.1875 
L 22.703125 -13.1875 
z
" id="DejaVuSans-27e8"/>
      <path d="M 41.703125 8.203125 
Q 38.09375 3.46875 33.171875 1.015625 
Q 28.265625 -1.421875 22.3125 -1.421875 
Q 14.015625 -1.421875 9.296875 4.171875 
Q 4.59375 9.765625 4.59375 19.578125 
Q 4.59375 27.484375 7.5 34.859375 
Q 10.40625 42.234375 15.828125 48.09375 
Q 19.34375 51.90625 23.90625 53.953125 
Q 28.46875 56 33.5 56 
Q 39.546875 56 43.453125 53.609375 
Q 47.359375 51.21875 49.125 46.390625 
L 50.6875 54.59375 
L 59.71875 54.59375 
L 45.125 -20.609375 
L 36.078125 -20.609375 
z
M 13.921875 20.90625 
Q 13.921875 13.671875 16.9375 9.890625 
Q 19.96875 6.109375 25.6875 6.109375 
Q 34.1875 6.109375 40.1875 14.234375 
Q 46.1875 22.359375 46.1875 33.984375 
Q 46.1875 41.015625 43.078125 44.75 
Q 39.984375 48.484375 34.1875 48.484375 
Q 29.9375 48.484375 26.3125 46.5 
Q 22.703125 44.53125 20.015625 40.71875 
Q 17.1875 36.71875 15.546875 31.34375 
Q 13.921875 25.984375 13.921875 20.90625 
z
" id="DejaVuSans-Oblique-71"/>
      <path d="M 18.3125 70.21875 
L 18.3125 54.6875 
L 36.8125 54.6875 
L 36.8125 47.703125 
L 18.3125 47.703125 
L 18.3125 18.015625 
Q 18.3125 11.328125 20.140625 9.421875 
Q 21.96875 7.515625 27.59375 7.515625 
L 36.8125 7.515625 
L 36.8125 0 
L 27.59375 0 
Q 17.1875 0 13.234375 3.875 
Q 9.28125 7.765625 9.28125 18.015625 
L 9.28125 47.703125 
L 2.6875 47.703125 
L 2.6875 54.6875 
L 9.28125 54.6875 
L 9.28125 70.21875 
z
" id="DejaVuSans-74"/>
      <path d="M 30.609375 48.390625 
Q 23.390625 48.390625 19.1875 42.75 
Q 14.984375 37.109375 14.984375 27.296875 
Q 14.984375 17.484375 19.15625 11.84375 
Q 23.34375 6.203125 30.609375 6.203125 
Q 37.796875 6.203125 41.984375 11.859375 
Q 46.1875 17.53125 46.1875 27.296875 
Q 46.1875 37.015625 41.984375 42.703125 
Q 37.796875 48.390625 30.609375 48.390625 
z
M 30.609375 56 
Q 42.328125 56 49.015625 48.375 
Q 55.71875 40.765625 55.71875 27.296875 
Q 55.71875 13.875 49.015625 6.21875 
Q 42.328125 -1.421875 30.609375 -1.421875 
Q 18.84375 -1.421875 12.171875 6.21875 
Q 5.515625 13.875 5.515625 27.296875 
Q 5.515625 40.765625 12.171875 48.375 
Q 18.84375 56 30.609375 56 
z
" id="DejaVuSans-6f"/>
      <path d="M 34.28125 27.484375 
Q 23.390625 27.484375 19.1875 25 
Q 14.984375 22.515625 14.984375 16.5 
Q 14.984375 11.71875 18.140625 8.90625 
Q 21.296875 6.109375 26.703125 6.109375 
Q 34.1875 6.109375 38.703125 11.40625 
Q 43.21875 16.703125 43.21875 25.484375 
L 43.21875 27.484375 
z
M 52.203125 31.203125 
L 52.203125 0 
L 43.21875 0 
L 43.21875 8.296875 
Q 40.140625 3.328125 35.546875 0.953125 
Q 30.953125 -1.421875 24.3125 -1.421875 
Q 15.921875 -1.421875 10.953125 3.296875 
Q 6 8.015625 6 15.921875 
Q 6 25.140625 12.171875 29.828125 
Q 18.359375 34.515625 30.609375 34.515625 
L 43.21875 34.515625 
L 43.21875 35.40625 
Q 43.21875 41.609375 39.140625 45 
Q 35.0625 48.390625 27.6875 48.390625 
Q 23 48.390625 18.546875 47.265625 
Q 14.109375 46.140625 10.015625 43.890625 
L 10.015625 52.203125 
Q 14.9375 54.109375 19.578125 55.046875 
Q 24.21875 56 28.609375 56 
Q 40.484375 56 46.34375 49.84375 
Q 52.203125 43.703125 52.203125 31.203125 
z
" id="DejaVuSans-61"/>
      <path d="M 9.421875 75.984375 
L 18.40625 75.984375 
L 18.40625 0 
L 9.421875 0 
z
" id="DejaVuSans-6c"/>
      <path d="M 30.078125 31.34375 
L 16.3125 -13.1875 
L 8.015625 -13.1875 
L 21.78125 31.34375 
L 8.015625 75.875 
L 16.3125 75.875 
z
" id="DejaVuSans-27e9"/>
     </defs>
     <g style="fill:#262626;" transform="translate(20.278438 115.95)rotate(-90)scale(0.1 -0.1)">
      <use transform="translate(0 0.125)" xlink:href="#DejaVuSans-27e8"/>
      <use transform="translate(39.013672 0.125)" xlink:href="#DejaVuSans-Oblique-71"/>
      <use transform="translate(102.490234 -16.28125)scale(0.7)" xlink:href="#DejaVuSans-74"/>
      <use transform="translate(129.936523 -16.28125)scale(0.7)" xlink:href="#DejaVuSans-6f"/>
      <use transform="translate(172.763672 -16.28125)scale(0.7)" xlink:href="#DejaVuSans-74"/>
      <use transform="translate(200.209961 -16.28125)scale(0.7)" xlink:href="#DejaVuSans-61"/>
      <use transform="translate(243.105469 -16.28125)scale(0.7)" xlink:href="#DejaVuSans-6c"/>
      <use transform="translate(265.288086 0.125)" xlink:href="#DejaVuSans-27e9"/>
     </g>
    </g>
   </g>
   <g id="PolyCollection_1">
    <defs>
     <path d="M 51.995455 -183.718182 
L 51.995455 -160.055142 
L 53.438545 -160.059057 
L 54.881636 -160.061786 
L 56.324727 -160.063501 
L 57.767818 -160.064342 
L 59.210909 -160.064412 
L 60.654 -160.063775 
L 62.097091 -160.062451 
L 63.540182 -160.060412 
L 64.983273 -160.057585 
L 66.426364 -160.053844 
L 67.869455 -160.049005 
L 69.312545 -160.042819 
L 70.755636 -160.034957 
L 72.198727 -160.024991 
L 73.641818 -160.012371 
L 75.084909 -159.996391 
L 76.528 -159.976143 
L 77.971091 -159.95046 
L 79.414182 -159.917831 
L 80.857273 -159.8763 
L 82.300364 -159.823315 
L 83.743455 -159.755534 
L 85.186545 -159.668559 
L 86.629636 -159.556578 
L 88.072727 -159.41189 
L 89.515818 -159.224288 
L 90.958909 -158.980284 
L 92.402 -158.6622 
L 93.845091 -158.247199 
L 95.288182 -157.70646 
L 96.731273 -157.004852 
L 98.174364 -156.101618 
L 99.617455 -154.952645 
L 101.060545 -153.514689 
L 102.503636 -151.751342 
L 103.946727 -149.639814 
L 105.389818 -147.177095 
L 106.832909 -144.384197 
L 108.276 -141.307725 
L 109.719091 -138.018605 
L 111.162182 -134.608002 
L 112.605273 -131.180541 
L 114.048364 -127.845062 
L 115.491455 -124.703674 
L 116.934545 -121.840518 
L 118.377636 -119.312151 
L 119.820727 -117.14149 
L 121.263818 -115.316606 
L 122.706909 -113.794735 
L 124.15 -112.51086 
L 125.593091 -111.38953 
L 127.036182 -110.357833 
L 128.479273 -109.356536 
L 129.922364 -108.345885 
L 131.365455 -107.303982 
L 132.808545 -106.219075 
L 134.251636 -105.080049 
L 135.694727 -103.869159 
L 137.137818 -102.558775 
L 138.580909 -101.111832 
L 140.024 -99.485029 
L 141.467091 -97.633825 
L 142.910182 -95.518394 
L 144.353273 -93.109714 
L 145.796364 -90.394966 
L 147.239455 -87.381619 
L 148.682545 -84.099825 
L 150.125636 -80.602918 
L 151.568727 -76.965795 
L 153.011818 -73.280915 
L 154.454909 -69.651738 
L 155.898 -66.183793 
L 157.341091 -62.974278 
L 158.784182 -60.101736 
L 160.227273 -57.617791 
L 161.670364 -55.54269 
L 163.113455 -53.865557 
L 164.556545 -52.549188 
L 165.999636 -51.538172 
L 167.442727 -50.76857 
L 168.885818 -50.177261 
L 170.328909 -49.709344 
L 171.772 -49.322533 
L 173.215091 -48.988253 
L 174.658182 -48.689973 
L 176.101273 -48.419937 
L 177.544364 -48.175602 
L 178.987455 -47.956718 
L 180.430545 -47.763443 
L 181.873636 -47.595409 
L 183.316727 -47.451467 
L 184.759818 -47.329784 
L 186.202909 -47.228084 
L 187.646 -47.143895 
L 189.089091 -47.074754 
L 190.532182 -47.01834 
L 191.975273 -46.972553 
L 193.418364 -46.935551 
L 194.861455 -46.905751 
L 196.304545 -46.881818 
L 196.304545 -70.513036 
L 196.304545 -70.513036 
L 194.861455 -70.538105 
L 193.418364 -70.569935 
L 191.975273 -70.610424 
L 190.532182 -70.662043 
L 189.089091 -70.728018 
L 187.646 -70.812579 
L 186.202909 -70.921296 
L 184.759818 -71.061514 
L 183.316727 -71.242916 
L 181.873636 -71.478219 
L 180.430545 -71.783993 
L 178.987455 -72.181523 
L 177.544364 -72.697559 
L 176.101273 -73.364671 
L 174.658182 -74.220814 
L 173.215091 -75.307658 
L 171.772 -76.667397 
L 170.328909 -78.338141 
L 168.885818 -80.348493 
L 167.442727 -82.712275 
L 165.999636 -85.42431 
L 164.556545 -88.457822 
L 163.113455 -91.763612 
L 161.670364 -95.27109 
L 160.227273 -98.891279 
L 158.784182 -102.522063 
L 157.341091 -106.055756 
L 155.898 -109.388571 
L 154.454909 -112.430848 
L 153.011818 -115.11625 
L 151.568727 -117.408043 
L 150.125636 -119.301066 
L 148.682545 -120.819079 
L 147.239455 -122.008257 
L 145.796364 -122.928468 
L 144.353273 -123.644235 
L 142.910182 -124.217147 
L 141.467091 -124.700955 
L 140.024 -125.139956 
L 138.580909 -125.570494 
L 137.137818 -126.024798 
L 135.694727 -126.536003 
L 134.251636 -127.143073 
L 132.808545 -127.894386 
L 131.365455 -128.848586 
L 129.922364 -130.07132 
L 128.479273 -131.627137 
L 127.036182 -133.567869 
L 125.593091 -135.921199 
L 124.15 -138.683494 
L 122.706909 -141.818448 
L 121.263818 -145.26015 
L 119.820727 -148.918493 
L 118.377636 -152.68592 
L 116.934545 -156.445533 
L 115.491455 -160.080748 
L 114.048364 -163.485952 
L 112.605273 -166.576758 
L 111.162182 -169.297936 
L 109.719091 -171.627273 
L 108.276 -173.574422 
L 106.832909 -175.175055 
L 105.389818 -176.481663 
L 103.946727 -177.553083 
L 102.503636 -178.444972 
L 101.060545 -179.203094 
L 99.617455 -179.860414 
L 98.174364 -180.437781 
L 96.731273 -180.946949 
L 95.288182 -181.394262 
L 93.845091 -181.783746 
L 92.402 -182.119045 
L 90.958909 -182.404289 
L 89.515818 -182.644237 
L 88.072727 -182.844062 
L 86.629636 -183.00904 
L 85.186545 -183.144258 
L 83.743455 -183.254416 
L 82.300364 -183.343716 
L 80.857273 -183.415817 
L 79.414182 -183.473844 
L 77.971091 -183.520422 
L 76.528 -183.557734 
L 75.084909 -183.587576 
L 73.641818 -183.611417 
L 72.198727 -183.630448 
L 70.755636 -183.645638 
L 69.312545 -183.657767 
L 67.869455 -183.667469 
L 66.426364 -183.675256 
L 64.983273 -183.681549 
L 63.540182 -183.686699 
L 62.097091 -183.691003 
L 60.654 -183.694724 
L 59.210909 -183.698105 
L 57.767818 -183.701378 
L 56.324727 -183.704778 
L 54.881636 -183.708544 
L 53.438545 -183.712925 
L 51.995455 -183.718182 
z
" id="md7388c5b45" style="stroke:#ffffff;stroke-opacity:0.05;"/>
    </defs>
    <g clip-path="url(#pd9cb60ecd8)">
     <use style="fill:#591e71;fill-opacity:0.05;stroke:#ffffff;stroke-opacity:0.05;" x="0" xlink:href="#md7388c5b45" y="216"/>
    </g>
   </g>
   <g id="line2d_10">
    <path clip-path="url(#pd9cb60ecd8)" d="M 51.995455 44.113338 
L 53.438545 44.114009 
L 54.881636 44.114835 
L 56.324727 44.11586 
L 57.767818 44.11714 
L 59.210909 44.118741 
L 60.654 44.12075 
L 62.097091 44.123273 
L 63.540182 44.126445 
L 64.983273 44.130433 
L 66.426364 44.13545 
L 67.869455 44.141763 
L 69.312545 44.149707 
L 70.755636 44.159703 
L 72.198727 44.17228 
L 73.641818 44.188106 
L 75.084909 44.208016 
L 76.528 44.233061 
L 77.971091 44.264559 
L 79.414182 44.304163 
L 80.857273 44.353941 
L 82.300364 44.416484 
L 83.743455 44.495025 
L 85.186545 44.593592 
L 86.629636 44.717191 
L 88.072727 44.872024 
L 89.515818 45.065738 
L 90.958909 45.307713 
L 92.402 45.609377 
L 93.845091 45.984528 
L 95.288182 46.449639 
L 96.731273 47.0241 
L 98.174364 47.7303 
L 99.617455 48.593471 
L 101.060545 49.641108 
L 102.503636 50.901843 
L 103.946727 52.403552 
L 105.389818 54.170621 
L 106.832909 56.220374 
L 108.276 58.558926 
L 109.719091 61.177061 
L 111.162182 64.047031 
L 112.605273 67.121351 
L 114.048364 70.334493 
L 115.491455 73.607789 
L 116.934545 76.856975 
L 118.377636 80.000964 
L 119.820727 82.970008 
L 121.263818 85.711622 
L 122.706909 88.193409 
L 124.15 90.402823 
L 125.593091 92.344636 
L 127.036182 94.037149 
L 128.479273 95.508163 
L 129.922364 96.791397 
L 131.365455 97.923716 
L 132.808545 98.943269 
L 134.251636 99.888439 
L 135.694727 100.797419 
L 137.137818 101.708213 
L 138.580909 102.658837 
L 140.024 103.687507 
L 141.467091 104.83261 
L 142.910182 106.13223 
L 144.353273 107.623025 
L 145.796364 109.338283 
L 147.239455 111.305062 
L 148.682545 113.540548 
L 150.125636 116.048008 
L 151.568727 118.813081 
L 153.011818 121.801417 
L 154.454909 124.958707 
L 155.898 128.213818 
L 157.341091 131.484983 
L 158.784182 134.688101 
L 160.227273 137.745465 
L 161.670364 140.59311 
L 163.113455 143.185415 
L 164.556545 145.496495 
L 165.999636 147.518759 
L 167.442727 149.259578 
L 168.885818 150.737123 
L 170.328909 151.976258 
L 171.772 153.005035 
L 173.215091 153.852045 
L 174.658182 154.544607 
L 176.101273 155.107696 
L 177.544364 155.563419 
L 178.987455 155.930879 
L 180.430545 156.226282 
L 181.873636 156.463186 
L 183.316727 156.652808 
L 184.759818 156.804351 
L 186.202909 156.92531 
L 187.646 157.021763 
L 189.089091 157.098614 
L 190.532182 157.159808 
L 191.975273 157.208511 
L 193.418364 157.247257 
L 194.861455 157.278072 
L 196.304545 157.302573 
" style="fill:none;opacity:0.9;stroke:#591e71;stroke-linecap:round;stroke-width:1.5;"/>
   </g>
   <g id="line2d_11">
    <path clip-path="url(#pd9cb60ecd8)" d="M 51.995455 44.131181 
L 53.438545 44.13638 
L 54.881636 44.142925 
L 56.324727 44.151162 
L 57.767818 44.161528 
L 59.210909 44.174574 
L 60.654 44.190988 
L 62.097091 44.211639 
L 63.540182 44.237615 
L 64.983273 44.270284 
L 66.426364 44.311357 
L 67.869455 44.362981 
L 69.312545 44.427837 
L 70.755636 44.509274 
L 72.198727 44.611463 
L 73.641818 44.739585 
L 75.084909 44.900052 
L 76.528 45.100765 
L 77.971091 45.351405 
L 79.414182 45.663751 
L 80.857273 46.051999 
L 82.300364 46.533061 
L 83.743455 47.126784 
L 85.186545 47.855999 
L 86.629636 48.746303 
L 88.072727 49.8254 
L 89.515818 51.121852 
L 90.958909 52.663048 
L 92.402 54.472322 
L 93.845091 56.565243 
L 95.288182 58.94542 
L 96.731273 61.600448 
L 98.174364 64.498944 
L 99.617455 67.589752 
L 101.060545 70.804144 
L 102.503636 74.06119 
L 103.946727 77.275582 
L 105.389818 80.36639 
L 106.832909 83.264886 
L 108.276 85.919914 
L 109.719091 88.300091 
L 111.162182 90.393012 
L 112.605273 92.202286 
L 114.048364 93.743482 
L 115.491455 95.039934 
L 116.934545 96.119031 
L 118.377636 97.009335 
L 119.820727 97.73855 
L 121.263818 98.332273 
L 122.706909 98.813335 
L 124.15 99.201583 
L 125.593091 99.513929 
L 127.036182 99.76457 
L 128.479273 99.965283 
L 129.922364 100.125749 
L 131.365455 100.253871 
L 132.808545 100.35606 
L 134.251636 100.437497 
L 135.694727 100.502353 
L 137.137818 100.553977 
L 138.580909 100.595051 
L 140.024 100.627719 
L 141.467091 100.653695 
L 142.910182 100.674346 
L 144.353273 100.690761 
L 145.796364 100.703806 
L 147.239455 100.714172 
L 148.682545 100.722409 
L 150.125636 100.728954 
L 151.568727 100.734153 
L 153.011818 100.738284 
L 154.454909 100.741566 
L 155.898 100.744173 
L 157.341091 100.746244 
L 158.784182 100.747889 
L 160.227273 100.749196 
L 161.670364 100.750234 
L 163.113455 100.751059 
L 164.556545 100.751714 
L 165.999636 100.752234 
L 167.442727 100.752648 
L 168.885818 100.752976 
L 170.328909 100.753237 
L 171.772 100.753444 
L 173.215091 100.753608 
L 174.658182 100.753739 
L 176.101273 100.753843 
L 177.544364 100.753925 
L 178.987455 100.753991 
L 180.430545 100.754043 
L 181.873636 100.754084 
L 183.316727 100.754117 
L 184.759818 100.754143 
L 186.202909 100.754164 
L 187.646 100.75418 
L 189.089091 100.754193 
L 190.532182 100.754204 
L 191.975273 100.754212 
L 193.418364 100.754219 
L 194.861455 100.754224 
L 196.304545 100.754228 
" style="fill:none;opacity:0.7;stroke:#000000;stroke-linecap:round;stroke-width:1.5;"/>
   </g>
   <g id="line2d_12">
    <path clip-path="url(#pd9cb60ecd8)" d="M 51.995455 32.281818 
L 53.438545 32.287075 
L 54.881636 32.291456 
L 56.324727 32.295222 
L 57.767818 32.298622 
L 59.210909 32.301895 
L 60.654 32.305276 
L 62.097091 32.308997 
L 63.540182 32.313301 
L 64.983273 32.318451 
L 66.426364 32.324744 
L 67.869455 32.332531 
L 69.312545 32.342233 
L 70.755636 32.354362 
L 72.198727 32.369552 
L 73.641818 32.388583 
L 75.084909 32.412424 
L 76.528 32.442266 
L 77.971091 32.479578 
L 79.414182 32.526156 
L 80.857273 32.584183 
L 82.300364 32.656284 
L 83.743455 32.745584 
L 85.186545 32.855742 
L 86.629636 32.99096 
L 88.072727 33.155938 
L 89.515818 33.355763 
L 90.958909 33.595711 
L 92.402 33.880955 
L 93.845091 34.216254 
L 95.288182 34.605738 
L 96.731273 35.053051 
L 98.174364 35.562219 
L 99.617455 36.139586 
L 101.060545 36.796906 
L 102.503636 37.555028 
L 103.946727 38.446917 
L 105.389818 39.518337 
L 106.832909 40.824945 
L 108.276 42.425578 
L 109.719091 44.372727 
L 111.162182 46.702064 
L 112.605273 49.423242 
L 114.048364 52.514048 
L 115.491455 55.919252 
L 116.934545 59.554467 
L 118.377636 63.31408 
L 119.820727 67.081507 
L 121.263818 70.73985 
L 122.706909 74.181552 
L 124.15 77.316506 
L 125.593091 80.078801 
L 127.036182 82.432131 
L 128.479273 84.372863 
L 129.922364 85.92868 
L 131.365455 87.151414 
L 132.808545 88.105614 
L 134.251636 88.856927 
L 135.694727 89.463997 
L 137.137818 89.975202 
L 138.580909 90.429506 
L 140.024 90.860044 
L 141.467091 91.299045 
L 142.910182 91.782853 
L 144.353273 92.355765 
L 145.796364 93.071532 
L 147.239455 93.991743 
L 148.682545 95.180921 
L 150.125636 96.698934 
L 151.568727 98.591957 
L 153.011818 100.88375 
L 154.454909 103.569152 
L 155.898 106.611429 
L 157.341091 109.944244 
L 158.784182 113.477937 
L 160.227273 117.108721 
L 161.670364 120.72891 
L 163.113455 124.236388 
L 164.556545 127.542178 
L 165.999636 130.57569 
L 167.442727 133.287725 
L 168.885818 135.651507 
L 170.328909 137.661859 
L 171.772 139.332603 
L 173.215091 140.692342 
L 174.658182 141.779186 
L 176.101273 142.635329 
L 177.544364 143.302441 
L 178.987455 143.818477 
L 180.430545 144.216007 
L 181.873636 144.521781 
L 183.316727 144.757084 
L 184.759818 144.938486 
L 186.202909 145.078704 
L 187.646 145.187421 
L 189.089091 145.271982 
L 190.532182 145.337957 
L 191.975273 145.389576 
L 193.418364 145.430065 
L 194.861455 145.461895 
L 196.304545 145.486964 
" style="fill:none;opacity:0.45;stroke:#591e71;stroke-dasharray:2.775,1.2;stroke-dashoffset:0;stroke-width:0.75;"/>
   </g>
   <g id="line2d_13">
    <path clip-path="url(#pd9cb60ecd8)" d="M 51.995455 55.944858 
L 53.438545 55.940943 
L 54.881636 55.938214 
L 56.324727 55.936499 
L 57.767818 55.935658 
L 59.210909 55.935588 
L 60.654 55.936225 
L 62.097091 55.937549 
L 63.540182 55.939588 
L 64.983273 55.942415 
L 66.426364 55.946156 
L 67.869455 55.950995 
L 69.312545 55.957181 
L 70.755636 55.965043 
L 72.198727 55.975009 
L 73.641818 55.987629 
L 75.084909 56.003609 
L 76.528 56.023857 
L 77.971091 56.04954 
L 79.414182 56.082169 
L 80.857273 56.1237 
L 82.300364 56.176685 
L 83.743455 56.244466 
L 85.186545 56.331441 
L 86.629636 56.443422 
L 88.072727 56.58811 
L 89.515818 56.775712 
L 90.958909 57.019716 
L 92.402 57.3378 
L 93.845091 57.752801 
L 95.288182 58.29354 
L 96.731273 58.995148 
L 98.174364 59.898382 
L 99.617455 61.047355 
L 101.060545 62.485311 
L 102.503636 64.248658 
L 103.946727 66.360186 
L 105.389818 68.822905 
L 106.832909 71.615803 
L 108.276 74.692275 
L 109.719091 77.981395 
L 111.162182 81.391998 
L 112.605273 84.819459 
L 114.048364 88.154938 
L 115.491455 91.296326 
L 116.934545 94.159482 
L 118.377636 96.687849 
L 119.820727 98.85851 
L 121.263818 100.683394 
L 122.706909 102.205265 
L 124.15 103.48914 
L 125.593091 104.61047 
L 127.036182 105.642167 
L 128.479273 106.643464 
L 129.922364 107.654115 
L 131.365455 108.696018 
L 132.808545 109.780925 
L 134.251636 110.919951 
L 135.694727 112.130841 
L 137.137818 113.441225 
L 138.580909 114.888168 
L 140.024 116.514971 
L 141.467091 118.366175 
L 142.910182 120.481606 
L 144.353273 122.890286 
L 145.796364 125.605034 
L 147.239455 128.618381 
L 148.682545 131.900175 
L 150.125636 135.397082 
L 151.568727 139.034205 
L 153.011818 142.719085 
L 154.454909 146.348262 
L 155.898 149.816207 
L 157.341091 153.025722 
L 158.784182 155.898264 
L 160.227273 158.382209 
L 161.670364 160.45731 
L 163.113455 162.134443 
L 164.556545 163.450812 
L 165.999636 164.461828 
L 167.442727 165.23143 
L 168.885818 165.822739 
L 170.328909 166.290656 
L 171.772 166.677467 
L 173.215091 167.011747 
L 174.658182 167.310027 
L 176.101273 167.580063 
L 177.544364 167.824398 
L 178.987455 168.043282 
L 180.430545 168.236557 
L 181.873636 168.404591 
L 183.316727 168.548533 
L 184.759818 168.670216 
L 186.202909 168.771916 
L 187.646 168.856105 
L 189.089091 168.925246 
L 190.532182 168.98166 
L 191.975273 169.027447 
L 193.418364 169.064449 
L 194.861455 169.094249 
L 196.304545 169.118182 
" style="fill:none;opacity:0.45;stroke:#591e71;stroke-dasharray:2.775,1.2;stroke-dashoffset:0;stroke-width:0.75;"/>
   </g>
   <g id="patch_3">
    <path d="M 44.78 175.96 
L 44.78 25.44 
" style="fill:none;stroke:#262626;stroke-linecap:square;stroke-linejoin:miter;stroke-width:0.8;"/>
   </g>
   <g id="patch_4">
    <path d="M 44.78 175.96 
L 203.52 175.96 
" style="fill:none;stroke:#262626;stroke-linecap:square;stroke-linejoin:miter;stroke-width:0.8;"/>
   </g>
   <g id="text_12">
    <!-- Jaguar-macro SM23 -->
    <defs>
     <path d="M 2.875 20.3125 
L 11.421875 21.484375 
Q 11.765625 13.28125 14.5 10.25 
Q 17.234375 7.234375 22.078125 7.234375 
Q 25.640625 7.234375 28.21875 8.859375 
Q 30.8125 10.5 31.78125 13.296875 
Q 32.765625 16.109375 32.765625 22.265625 
L 32.765625 71.578125 
L 42.234375 71.578125 
L 42.234375 22.796875 
Q 42.234375 13.8125 40.0625 8.875 
Q 37.890625 3.953125 33.171875 1.359375 
Q 28.46875 -1.21875 22.125 -1.21875 
Q 12.703125 -1.21875 7.6875 4.203125 
Q 2.6875 9.625 2.875 20.3125 
z
" id="ArialMT-4a"/>
     <path d="M 40.4375 6.390625 
Q 35.546875 2.25 31.03125 0.53125 
Q 26.515625 -1.171875 21.34375 -1.171875 
Q 12.796875 -1.171875 8.203125 3 
Q 3.609375 7.171875 3.609375 13.671875 
Q 3.609375 17.484375 5.34375 20.625 
Q 7.078125 23.78125 9.890625 25.6875 
Q 12.703125 27.59375 16.21875 28.5625 
Q 18.796875 29.25 24.03125 29.890625 
Q 34.671875 31.15625 39.703125 32.90625 
Q 39.75 34.71875 39.75 35.203125 
Q 39.75 40.578125 37.25 42.78125 
Q 33.890625 45.75 27.25 45.75 
Q 21.046875 45.75 18.09375 43.578125 
Q 15.140625 41.40625 13.71875 35.890625 
L 5.125 37.0625 
Q 6.296875 42.578125 8.984375 45.96875 
Q 11.671875 49.359375 16.75 51.1875 
Q 21.828125 53.03125 28.515625 53.03125 
Q 35.15625 53.03125 39.296875 51.46875 
Q 43.453125 49.90625 45.40625 47.53125 
Q 47.359375 45.171875 48.140625 41.546875 
Q 48.578125 39.3125 48.578125 33.453125 
L 48.578125 21.734375 
Q 48.578125 9.46875 49.140625 6.21875 
Q 49.703125 2.984375 51.375 0 
L 42.1875 0 
Q 40.828125 2.734375 40.4375 6.390625 
z
M 39.703125 26.03125 
Q 34.90625 24.078125 25.34375 22.703125 
Q 19.921875 21.921875 17.671875 20.9375 
Q 15.4375 19.96875 14.203125 18.09375 
Q 12.984375 16.21875 12.984375 13.921875 
Q 12.984375 10.40625 15.640625 8.0625 
Q 18.3125 5.71875 23.4375 5.71875 
Q 28.515625 5.71875 32.46875 7.9375 
Q 36.421875 10.15625 38.28125 14.015625 
Q 39.703125 17 39.703125 22.796875 
z
" id="ArialMT-61"/>
     <path d="M 4.984375 -4.296875 
L 13.53125 -5.5625 
Q 14.0625 -9.515625 16.5 -11.328125 
Q 19.78125 -13.765625 25.4375 -13.765625 
Q 31.546875 -13.765625 34.859375 -11.328125 
Q 38.1875 -8.890625 39.359375 -4.5 
Q 40.046875 -1.8125 39.984375 6.78125 
Q 34.234375 0 25.640625 0 
Q 14.9375 0 9.078125 7.71875 
Q 3.21875 15.4375 3.21875 26.21875 
Q 3.21875 33.640625 5.90625 39.90625 
Q 8.59375 46.1875 13.6875 49.609375 
Q 18.796875 53.03125 25.6875 53.03125 
Q 34.859375 53.03125 40.828125 45.609375 
L 40.828125 51.859375 
L 48.921875 51.859375 
L 48.921875 7.03125 
Q 48.921875 -5.078125 46.453125 -10.125 
Q 44 -15.1875 38.640625 -18.109375 
Q 33.296875 -21.046875 25.484375 -21.046875 
Q 16.21875 -21.046875 10.5 -16.875 
Q 4.78125 -12.703125 4.984375 -4.296875 
z
M 12.25 26.859375 
Q 12.25 16.65625 16.296875 11.96875 
Q 20.359375 7.28125 26.46875 7.28125 
Q 32.515625 7.28125 36.609375 11.9375 
Q 40.71875 16.609375 40.71875 26.5625 
Q 40.71875 36.078125 36.5 40.90625 
Q 32.28125 45.75 26.3125 45.75 
Q 20.453125 45.75 16.34375 40.984375 
Q 12.25 36.234375 12.25 26.859375 
z
" id="ArialMT-67"/>
     <path d="M 40.578125 0 
L 40.578125 7.625 
Q 34.515625 -1.171875 24.125 -1.171875 
Q 19.53125 -1.171875 15.546875 0.578125 
Q 11.578125 2.34375 9.640625 5 
Q 7.71875 7.671875 6.9375 11.53125 
Q 6.390625 14.109375 6.390625 19.734375 
L 6.390625 51.859375 
L 15.1875 51.859375 
L 15.1875 23.09375 
Q 15.1875 16.21875 15.71875 13.8125 
Q 16.546875 10.359375 19.234375 8.375 
Q 21.921875 6.390625 25.875 6.390625 
Q 29.828125 6.390625 33.296875 8.421875 
Q 36.765625 10.453125 38.203125 13.9375 
Q 39.65625 17.4375 39.65625 24.078125 
L 39.65625 51.859375 
L 48.4375 51.859375 
L 48.4375 0 
z
" id="ArialMT-75"/>
     <path d="M 6.5 0 
L 6.5 51.859375 
L 14.40625 51.859375 
L 14.40625 44 
Q 17.4375 49.515625 20 51.265625 
Q 22.5625 53.03125 25.640625 53.03125 
Q 30.078125 53.03125 34.671875 50.203125 
L 31.640625 42.046875 
Q 28.421875 43.953125 25.203125 43.953125 
Q 22.3125 43.953125 20.015625 42.21875 
Q 17.71875 40.484375 16.75 37.40625 
Q 15.28125 32.71875 15.28125 27.15625 
L 15.28125 0 
z
" id="ArialMT-72"/>
     <path d="M 3.171875 21.484375 
L 3.171875 30.328125 
L 30.171875 30.328125 
L 30.171875 21.484375 
z
" id="ArialMT-2d"/>
     <path d="M 6.59375 0 
L 6.59375 51.859375 
L 14.453125 51.859375 
L 14.453125 44.578125 
Q 16.890625 48.390625 20.9375 50.703125 
Q 25 53.03125 30.171875 53.03125 
Q 35.9375 53.03125 39.625 50.640625 
Q 43.3125 48.25 44.828125 43.953125 
Q 50.984375 53.03125 60.84375 53.03125 
Q 68.5625 53.03125 72.703125 48.75 
Q 76.859375 44.484375 76.859375 35.59375 
L 76.859375 0 
L 68.109375 0 
L 68.109375 32.671875 
Q 68.109375 37.9375 67.25 40.25 
Q 66.40625 42.578125 64.15625 43.984375 
Q 61.921875 45.40625 58.890625 45.40625 
Q 53.421875 45.40625 49.796875 41.765625 
Q 46.1875 38.140625 46.1875 30.125 
L 46.1875 0 
L 37.40625 0 
L 37.40625 33.6875 
Q 37.40625 39.546875 35.25 42.46875 
Q 33.109375 45.40625 28.21875 45.40625 
Q 24.515625 45.40625 21.359375 43.453125 
Q 18.21875 41.5 16.796875 37.734375 
Q 15.375 33.984375 15.375 26.90625 
L 15.375 0 
z
" id="ArialMT-6d"/>
     <path d="M 40.4375 19 
L 49.078125 17.875 
Q 47.65625 8.9375 41.8125 3.875 
Q 35.984375 -1.171875 27.484375 -1.171875 
Q 16.84375 -1.171875 10.375 5.78125 
Q 3.90625 12.75 3.90625 25.734375 
Q 3.90625 34.125 6.6875 40.421875 
Q 9.46875 46.734375 15.15625 49.875 
Q 20.84375 53.03125 27.546875 53.03125 
Q 35.984375 53.03125 41.359375 48.75 
Q 46.734375 44.484375 48.25 36.625 
L 39.703125 35.296875 
Q 38.484375 40.53125 35.375 43.15625 
Q 32.28125 45.796875 27.875 45.796875 
Q 21.234375 45.796875 17.078125 41.03125 
Q 12.9375 36.28125 12.9375 25.984375 
Q 12.9375 15.53125 16.9375 10.796875 
Q 20.953125 6.0625 27.390625 6.0625 
Q 32.5625 6.0625 36.03125 9.234375 
Q 39.5 12.40625 40.4375 19 
z
" id="ArialMT-63"/>
     <path d="M 3.328125 25.921875 
Q 3.328125 40.328125 11.328125 47.265625 
Q 18.015625 53.03125 27.640625 53.03125 
Q 38.328125 53.03125 45.109375 46.015625 
Q 51.90625 39.015625 51.90625 26.65625 
Q 51.90625 16.65625 48.90625 10.90625 
Q 45.90625 5.171875 40.15625 2 
Q 34.421875 -1.171875 27.640625 -1.171875 
Q 16.75 -1.171875 10.03125 5.8125 
Q 3.328125 12.796875 3.328125 25.921875 
z
M 12.359375 25.921875 
Q 12.359375 15.96875 16.703125 11.015625 
Q 21.046875 6.0625 27.640625 6.0625 
Q 34.1875 6.0625 38.53125 11.03125 
Q 42.875 16.015625 42.875 26.21875 
Q 42.875 35.84375 38.5 40.796875 
Q 34.125 45.75 27.640625 45.75 
Q 21.046875 45.75 16.703125 40.8125 
Q 12.359375 35.890625 12.359375 25.921875 
z
" id="ArialMT-6f"/>
     <path id="ArialMT-20"/>
     <path d="M 4.5 23 
L 13.421875 23.78125 
Q 14.0625 18.40625 16.375 14.96875 
Q 18.703125 11.53125 23.578125 9.40625 
Q 28.46875 7.28125 34.578125 7.28125 
Q 39.984375 7.28125 44.140625 8.890625 
Q 48.296875 10.5 50.3125 13.296875 
Q 52.34375 16.109375 52.34375 19.4375 
Q 52.34375 22.796875 50.390625 25.3125 
Q 48.4375 27.828125 43.953125 29.546875 
Q 41.0625 30.671875 31.203125 33.03125 
Q 21.34375 35.40625 17.390625 37.5 
Q 12.25 40.1875 9.734375 44.15625 
Q 7.234375 48.140625 7.234375 53.078125 
Q 7.234375 58.5 10.296875 63.203125 
Q 13.375 67.921875 19.28125 70.359375 
Q 25.203125 72.796875 32.421875 72.796875 
Q 40.375 72.796875 46.453125 70.234375 
Q 52.546875 67.671875 55.8125 62.6875 
Q 59.078125 57.71875 59.328125 51.421875 
L 50.25 50.734375 
Q 49.515625 57.515625 45.28125 60.984375 
Q 41.0625 64.453125 32.8125 64.453125 
Q 24.21875 64.453125 20.28125 61.296875 
Q 16.359375 58.15625 16.359375 53.71875 
Q 16.359375 49.859375 19.140625 47.359375 
Q 21.875 44.875 33.421875 42.265625 
Q 44.96875 39.65625 49.265625 37.703125 
Q 55.515625 34.8125 58.484375 30.390625 
Q 61.46875 25.984375 61.46875 20.21875 
Q 61.46875 14.5 58.203125 9.4375 
Q 54.9375 4.390625 48.796875 1.578125 
Q 42.671875 -1.21875 35.015625 -1.21875 
Q 25.296875 -1.21875 18.71875 1.609375 
Q 12.15625 4.4375 8.421875 10.125 
Q 4.6875 15.828125 4.5 23 
z
" id="ArialMT-53"/>
     <path d="M 7.421875 0 
L 7.421875 71.578125 
L 21.6875 71.578125 
L 38.625 20.90625 
Q 40.96875 13.8125 42.046875 10.296875 
Q 43.265625 14.203125 45.84375 21.78125 
L 62.984375 71.578125 
L 75.734375 71.578125 
L 75.734375 0 
L 66.609375 0 
L 66.609375 59.90625 
L 45.796875 0 
L 37.25 0 
L 16.546875 60.9375 
L 16.546875 0 
z
" id="ArialMT-4d"/>
     <path d="M 4.203125 18.890625 
L 12.984375 20.0625 
Q 14.5 12.59375 18.140625 9.296875 
Q 21.78125 6 27 6 
Q 33.203125 6 37.46875 10.296875 
Q 41.75 14.59375 41.75 20.953125 
Q 41.75 27 37.796875 30.921875 
Q 33.84375 34.859375 27.734375 34.859375 
Q 25.25 34.859375 21.53125 33.890625 
L 22.515625 41.609375 
Q 23.390625 41.5 23.921875 41.5 
Q 29.546875 41.5 34.03125 44.421875 
Q 38.53125 47.359375 38.53125 53.46875 
Q 38.53125 58.296875 35.25 61.46875 
Q 31.984375 64.65625 26.8125 64.65625 
Q 21.6875 64.65625 18.265625 61.421875 
Q 14.84375 58.203125 13.875 51.765625 
L 5.078125 53.328125 
Q 6.6875 62.15625 12.390625 67.015625 
Q 18.109375 71.875 26.609375 71.875 
Q 32.46875 71.875 37.390625 69.359375 
Q 42.328125 66.84375 44.9375 62.5 
Q 47.5625 58.15625 47.5625 53.265625 
Q 47.5625 48.640625 45.0625 44.828125 
Q 42.578125 41.015625 37.703125 38.765625 
Q 44.046875 37.3125 47.5625 32.6875 
Q 51.078125 28.078125 51.078125 21.140625 
Q 51.078125 11.765625 44.234375 5.25 
Q 37.40625 -1.265625 26.953125 -1.265625 
Q 17.53125 -1.265625 11.296875 4.34375 
Q 5.078125 9.96875 4.203125 18.890625 
z
" id="ArialMT-33"/>
    </defs>
    <g style="fill:#262626;" transform="translate(69.799375 19.44)scale(0.12 -0.12)">
     <use xlink:href="#ArialMT-4a"/>
     <use x="50" xlink:href="#ArialMT-61"/>
     <use x="105.615234" xlink:href="#ArialMT-67"/>
     <use x="161.230469" xlink:href="#ArialMT-75"/>
     <use x="216.845703" xlink:href="#ArialMT-61"/>
     <use x="272.460938" xlink:href="#ArialMT-72"/>
     <use x="305.761719" xlink:href="#ArialMT-2d"/>
     <use x="339.0625" xlink:href="#ArialMT-6d"/>
     <use x="422.363281" xlink:href="#ArialMT-61"/>
     <use x="477.978516" xlink:href="#ArialMT-63"/>
     <use x="527.978516" xlink:href="#ArialMT-72"/>
     <use x="561.279297" xlink:href="#ArialMT-6f"/>
     <use x="616.894531" xlink:href="#ArialMT-20"/>
     <use x="644.677734" xlink:href="#ArialMT-53"/>
     <use x="711.376953" xlink:href="#ArialMT-4d"/>
     <use x="794.677734" xlink:href="#ArialMT-32"/>
     <use x="850.292969" xlink:href="#ArialMT-33"/>
    </g>
   </g>
  </g>
 </g>
 <defs>
  <clipPath id="pd9cb60ecd8">
   <rect height="150.52" width="158.74" x="44.78" y="25.44"/>
  </clipPath>
 </defs>
</svg>
