<?xml version="1.0" encoding="utf-8" standalone="no"?>
<!DOCTYPE svg PUBLIC "-//W3C//DTD SVG 1.1//EN"
  "http://www.w3.org/Graphics/SVG/1.1/DTD/svg11.dtd">
<!-- Created with matplotlib (http://matplotlib.org/) -->
<svg height="144pt" version="1.1" viewBox="0 0 144 144" width="144pt" xmlns="http://www.w3.org/2000/svg" xmlns:xlink="http://www.w3.org/1999/xlink">
 <defs>
  <style type="text/css">
*{stroke-linecap:butt;stroke-linejoin:round;}
  </style>
 </defs>
 <g id="figure_1">
  <g id="patch_1">
   <path d="M 0 144 
L 144 144 
L 144 0 
L 0 0 
z
" style="fill:#ffffff;"/>
  </g>
  <g id="axes_1">
   <g id="patch_2">
    <path d="M 18 126 
L 129.6 126 
L 129.6 17.28 
L 18 17.28 
z
" style="fill:#ffffff;"/>
   </g>
   <g id="matplotlib.axis_1">
    <g id="xtick_1">
     <g id="line2d_1">
      <defs>
       <path d="M 0 0 
L 0 3.5 
" id="m1daa44642b" style="stroke:#262626;stroke-width:0.8;"/>
      </defs>
      <g>
       <use style="fill:#262626;stroke:#262626;stroke-width:0.8;" x="18.624395" xlink:href="#m1daa44642b" y="126"/>
      </g>
     </g>
     <g id="text_1">
      <!-- −12 -->
      <defs>
       <path d="M 52.828125 31.203125 
L 5.5625 31.203125 
L 5.5625 39.40625 
L 52.828125 39.40625 
z
" id="ArialMT-2212"/>
       <path d="M 37.25 0 
L 28.46875 0 
L 28.46875 56 
Q 25.296875 52.984375 20.140625 49.953125 
Q 14.984375 46.921875 10.890625 45.40625 
L 10.890625 53.90625 
Q 18.265625 57.375 23.78125 62.296875 
Q 29.296875 67.234375 31.59375 71.875 
L 37.25 71.875 
z
" id="ArialMT-31"/>
       <path d="M 50.34375 8.453125 
L 50.34375 0 
L 3.03125 0 
Q 2.9375 3.171875 4.046875 6.109375 
Q 5.859375 10.9375 9.828125 15.625 
Q 13.8125 20.3125 21.34375 26.46875 
Q 33.015625 36.03125 37.109375 41.625 
Q 41.21875 47.21875 41.21875 52.203125 
Q 41.21875 57.421875 37.46875 61 
Q 33.734375 64.59375 27.734375 64.59375 
Q 21.390625 64.59375 17.578125 60.78125 
Q 13.765625 56.984375 13.71875 50.25 
L 4.6875 51.171875 
Q 5.609375 61.28125 11.65625 66.578125 
Q 17.71875 71.875 27.9375 71.875 
Q 38.234375 71.875 44.234375 66.15625 
Q 50.25 60.453125 50.25 52 
Q 50.25 47.703125 48.484375 43.546875 
Q 46.734375 39.40625 42.65625 34.8125 
Q 38.578125 30.21875 29.109375 22.21875 
Q 21.1875 15.578125 18.9375 13.203125 
Q 16.703125 10.84375 15.234375 8.453125 
z
" id="ArialMT-32"/>
      </defs>
      <g style="fill:#262626;" transform="translate(10.143145 140.157813)scale(0.1 -0.1)">
       <use xlink:href="#ArialMT-2212"/>
       <use x="58.398438" xlink:href="#ArialMT-31"/>
       <use x="114.013672" xlink:href="#ArialMT-32"/>
      </g>
     </g>
    </g>
    <g id="xtick_2">
     <g id="line2d_2">
      <g>
       <use style="fill:#262626;stroke:#262626;stroke-width:0.8;" x="21.252611" xlink:href="#m1daa44642b" y="126"/>
      </g>
     </g>
     <g id="text_2">
      <!-- −11 -->
      <g style="fill:#262626;" transform="translate(12.77683 140.157813)scale(0.1 -0.1)">
       <use xlink:href="#ArialMT-2212"/>
       <use x="58.398438" xlink:href="#ArialMT-31"/>
       <use x="113.904297" xlink:href="#ArialMT-31"/>
      </g>
     </g>
    </g>
    <g id="xtick_3">
     <g id="line2d_3">
      <g>
       <use style="fill:#262626;stroke:#262626;stroke-width:0.8;" x="23.880828" xlink:href="#m1daa44642b" y="126"/>
      </g>
     </g>
     <g id="text_3">
      <!-- −10 -->
      <defs>
       <path d="M 4.15625 35.296875 
Q 4.15625 48 6.765625 55.734375 
Q 9.375 63.484375 14.515625 67.671875 
Q 19.671875 71.875 27.484375 71.875 
Q 33.25 71.875 37.59375 69.546875 
Q 41.9375 67.234375 44.765625 62.859375 
Q 47.609375 58.5 49.21875 52.21875 
Q 50.828125 45.953125 50.828125 35.296875 
Q 50.828125 22.703125 48.234375 14.96875 
Q 45.65625 7.234375 40.5 3 
Q 35.359375 -1.21875 27.484375 -1.21875 
Q 17.140625 -1.21875 11.234375 6.203125 
Q 4.15625 15.140625 4.15625 35.296875 
z
M 13.1875 35.296875 
Q 13.1875 17.671875 17.3125 11.828125 
Q 21.4375 6 27.484375 6 
Q 33.546875 6 37.671875 11.859375 
Q 41.796875 17.71875 41.796875 35.296875 
Q 41.796875 52.984375 37.671875 58.78125 
Q 33.546875 64.59375 27.390625 64.59375 
Q 21.34375 64.59375 17.71875 59.46875 
Q 13.1875 52.9375 13.1875 35.296875 
z
" id="ArialMT-30"/>
      </defs>
      <g style="fill:#262626;" transform="translate(15.399578 140.157813)scale(0.1 -0.1)">
       <use xlink:href="#ArialMT-2212"/>
       <use x="58.398438" xlink:href="#ArialMT-31"/>
       <use x="114.013672" xlink:href="#ArialMT-30"/>
      </g>
     </g>
    </g>
    <g id="xtick_4">
     <g id="line2d_4">
      <g>
       <use style="fill:#262626;stroke:#262626;stroke-width:0.8;" x="26.509044" xlink:href="#m1daa44642b" y="126"/>
      </g>
     </g>
     <g id="text_4">
      <!-- −9 -->
      <defs>
       <path d="M 5.46875 16.546875 
L 13.921875 17.328125 
Q 14.984375 11.375 18.015625 8.6875 
Q 21.046875 6 25.78125 6 
Q 29.828125 6 32.875 7.859375 
Q 35.9375 9.71875 37.890625 12.8125 
Q 39.84375 15.921875 41.15625 21.1875 
Q 42.484375 26.46875 42.484375 31.9375 
Q 42.484375 32.515625 42.4375 33.6875 
Q 39.796875 29.5 35.234375 26.875 
Q 30.671875 24.265625 25.34375 24.265625 
Q 16.453125 24.265625 10.296875 30.703125 
Q 4.15625 37.15625 4.15625 47.703125 
Q 4.15625 58.59375 10.578125 65.234375 
Q 17 71.875 26.65625 71.875 
Q 33.640625 71.875 39.421875 68.109375 
Q 45.21875 64.359375 48.21875 57.390625 
Q 51.21875 50.4375 51.21875 37.25 
Q 51.21875 23.53125 48.234375 15.40625 
Q 45.265625 7.28125 39.375 3.03125 
Q 33.5 -1.21875 25.59375 -1.21875 
Q 17.1875 -1.21875 11.859375 3.4375 
Q 6.546875 8.109375 5.46875 16.546875 
z
M 41.453125 48.140625 
Q 41.453125 55.71875 37.421875 60.15625 
Q 33.40625 64.59375 27.734375 64.59375 
Q 21.875 64.59375 17.53125 59.8125 
Q 13.1875 55.03125 13.1875 47.40625 
Q 13.1875 40.578125 17.3125 36.296875 
Q 21.4375 32.03125 27.484375 32.03125 
Q 33.59375 32.03125 37.515625 36.296875 
Q 41.453125 40.578125 41.453125 48.140625 
z
" id="ArialMT-39"/>
      </defs>
      <g style="fill:#262626;" transform="translate(20.808262 140.157813)scale(0.1 -0.1)">
       <use xlink:href="#ArialMT-2212"/>
       <use x="58.398438" xlink:href="#ArialMT-39"/>
      </g>
     </g>
    </g>
    <g id="xtick_5">
     <g id="line2d_5">
      <g>
       <use style="fill:#262626;stroke:#262626;stroke-width:0.8;" x="29.13726" xlink:href="#m1daa44642b" y="126"/>
      </g>
     </g>
     <g id="text_5">
      <!-- −8 -->
      <defs>
       <path d="M 17.671875 38.8125 
Q 12.203125 40.828125 9.5625 44.53125 
Q 6.9375 48.25 6.9375 53.421875 
Q 6.9375 61.234375 12.546875 66.546875 
Q 18.171875 71.875 27.484375 71.875 
Q 36.859375 71.875 42.578125 66.421875 
Q 48.296875 60.984375 48.296875 53.171875 
Q 48.296875 48.1875 45.671875 44.5 
Q 43.0625 40.828125 37.75 38.8125 
Q 44.34375 36.671875 47.78125 31.875 
Q 51.21875 27.09375 51.21875 20.453125 
Q 51.21875 11.28125 44.71875 5.03125 
Q 38.234375 -1.21875 27.640625 -1.21875 
Q 17.046875 -1.21875 10.546875 5.046875 
Q 4.046875 11.328125 4.046875 20.703125 
Q 4.046875 27.6875 7.59375 32.390625 
Q 11.140625 37.109375 17.671875 38.8125 
z
M 15.921875 53.71875 
Q 15.921875 48.640625 19.1875 45.40625 
Q 22.46875 42.1875 27.6875 42.1875 
Q 32.765625 42.1875 36.015625 45.375 
Q 39.265625 48.578125 39.265625 53.21875 
Q 39.265625 58.0625 35.90625 61.359375 
Q 32.5625 64.65625 27.59375 64.65625 
Q 22.5625 64.65625 19.234375 61.421875 
Q 15.921875 58.203125 15.921875 53.71875 
z
M 13.09375 20.65625 
Q 13.09375 16.890625 14.875 13.375 
Q 16.65625 9.859375 20.171875 7.921875 
Q 23.6875 6 27.734375 6 
Q 34.03125 6 38.125 10.046875 
Q 42.234375 14.109375 42.234375 20.359375 
Q 42.234375 26.703125 38.015625 30.859375 
Q 33.796875 35.015625 27.4375 35.015625 
Q 21.234375 35.015625 17.15625 30.90625 
Q 13.09375 26.8125 13.09375 20.65625 
z
" id="ArialMT-38"/>
      </defs>
      <g style="fill:#262626;" transform="translate(23.436478 140.157813)scale(0.1 -0.1)">
       <use xlink:href="#ArialMT-2212"/>
       <use x="58.398438" xlink:href="#ArialMT-38"/>
      </g>
     </g>
    </g>
    <g id="xtick_6">
     <g id="line2d_6">
      <g>
       <use style="fill:#262626;stroke:#262626;stroke-width:0.8;" x="31.765476" xlink:href="#m1daa44642b" y="126"/>
      </g>
     </g>
     <g id="text_6">
      <!-- −7 -->
      <defs>
       <path d="M 4.734375 62.203125 
L 4.734375 70.65625 
L 51.078125 70.65625 
L 51.078125 63.8125 
Q 44.234375 56.546875 37.515625 44.484375 
Q 30.8125 32.421875 27.15625 19.671875 
Q 24.515625 10.6875 23.78125 0 
L 14.75 0 
Q 14.890625 8.453125 18.0625 20.40625 
Q 21.234375 32.375 27.171875 43.484375 
Q 33.109375 54.59375 39.796875 62.203125 
z
" id="ArialMT-37"/>
      </defs>
      <g style="fill:#262626;" transform="translate(26.064695 140.157813)scale(0.1 -0.1)">
       <use xlink:href="#ArialMT-2212"/>
       <use x="58.398438" xlink:href="#ArialMT-37"/>
      </g>
     </g>
    </g>
    <g id="xtick_7">
     <g id="line2d_7">
      <g>
       <use style="fill:#262626;stroke:#262626;stroke-width:0.8;" x="34.393692" xlink:href="#m1daa44642b" y="126"/>
      </g>
     </g>
     <g id="text_7">
      <!-- −6 -->
      <defs>
       <path d="M 49.75 54.046875 
L 41.015625 53.375 
Q 39.84375 58.546875 37.703125 60.890625 
Q 34.125 64.65625 28.90625 64.65625 
Q 24.703125 64.65625 21.53125 62.3125 
Q 17.390625 59.28125 14.984375 53.46875 
Q 12.59375 47.65625 12.5 36.921875 
Q 15.671875 41.75 20.265625 44.09375 
Q 24.859375 46.4375 29.890625 46.4375 
Q 38.671875 46.4375 44.84375 39.96875 
Q 51.03125 33.5 51.03125 23.25 
Q 51.03125 16.5 48.125 10.71875 
Q 45.21875 4.9375 40.140625 1.859375 
Q 35.0625 -1.21875 28.609375 -1.21875 
Q 17.625 -1.21875 10.6875 6.859375 
Q 3.765625 14.9375 3.765625 33.5 
Q 3.765625 54.25 11.421875 63.671875 
Q 18.109375 71.875 29.4375 71.875 
Q 37.890625 71.875 43.28125 67.140625 
Q 48.6875 62.40625 49.75 54.046875 
z
M 13.875 23.1875 
Q 13.875 18.65625 15.796875 14.5 
Q 17.71875 10.359375 21.1875 8.171875 
Q 24.65625 6 28.46875 6 
Q 34.03125 6 38.03125 10.484375 
Q 42.046875 14.984375 42.046875 22.703125 
Q 42.046875 30.125 38.078125 34.390625 
Q 34.125 38.671875 28.125 38.671875 
Q 22.171875 38.671875 18.015625 34.390625 
Q 13.875 30.125 13.875 23.1875 
z
" id="ArialMT-36"/>
      </defs>
      <g style="fill:#262626;" transform="translate(28.692911 140.157813)scale(0.1 -0.1)">
       <use xlink:href="#ArialMT-2212"/>
       <use x="58.398438" xlink:href="#ArialMT-36"/>
      </g>
     </g>
    </g>
    <g id="xtick_8">
     <g id="line2d_8">
      <g>
       <use style="fill:#262626;stroke:#262626;stroke-width:0.8;" x="37.021908" xlink:href="#m1daa44642b" y="126"/>
      </g>
     </g>
     <g id="text_8">
      <!-- −5 -->
      <defs>
       <path d="M 4.15625 18.75 
L 13.375 19.53125 
Q 14.40625 12.796875 18.140625 9.390625 
Q 21.875 6 27.15625 6 
Q 33.5 6 37.890625 10.78125 
Q 42.28125 15.578125 42.28125 23.484375 
Q 42.28125 31 38.0625 35.34375 
Q 33.84375 39.703125 27 39.703125 
Q 22.75 39.703125 19.328125 37.765625 
Q 15.921875 35.84375 13.96875 32.765625 
L 5.71875 33.84375 
L 12.640625 70.609375 
L 48.25 70.609375 
L 48.25 62.203125 
L 19.671875 62.203125 
L 15.828125 42.96875 
Q 22.265625 47.46875 29.34375 47.46875 
Q 38.71875 47.46875 45.15625 40.96875 
Q 51.609375 34.46875 51.609375 24.265625 
Q 51.609375 14.546875 45.953125 7.46875 
Q 39.0625 -1.21875 27.15625 -1.21875 
Q 17.390625 -1.21875 11.203125 4.25 
Q 5.03125 9.71875 4.15625 18.75 
z
" id="ArialMT-35"/>
      </defs>
      <g style="fill:#262626;" transform="translate(31.321127 140.157813)scale(0.1 -0.1)">
       <use xlink:href="#ArialMT-2212"/>
       <use x="58.398438" xlink:href="#ArialMT-35"/>
      </g>
     </g>
    </g>
    <g id="xtick_9">
     <g id="line2d_9">
      <g>
       <use style="fill:#262626;stroke:#262626;stroke-width:0.8;" x="39.650124" xlink:href="#m1daa44642b" y="126"/>
      </g>
     </g>
     <g id="text_9">
      <!-- −4 -->
      <defs>
       <path d="M 32.328125 0 
L 32.328125 17.140625 
L 1.265625 17.140625 
L 1.265625 25.203125 
L 33.9375 71.578125 
L 41.109375 71.578125 
L 41.109375 25.203125 
L 50.78125 25.203125 
L 50.78125 17.140625 
L 41.109375 17.140625 
L 41.109375 0 
z
M 32.328125 25.203125 
L 32.328125 57.46875 
L 9.90625 25.203125 
z
" id="ArialMT-34"/>
      </defs>
      <g style="fill:#262626;" transform="translate(33.949343 140.157813)scale(0.1 -0.1)">
       <use xlink:href="#ArialMT-2212"/>
       <use x="58.398438" xlink:href="#ArialMT-34"/>
      </g>
     </g>
    </g>
    <g id="xtick_10">
     <g id="line2d_10">
      <g>
       <use style="fill:#262626;stroke:#262626;stroke-width:0.8;" x="42.27834" xlink:href="#m1daa44642b" y="126"/>
      </g>
     </g>
     <g id="text_10">
      <!-- −3 -->
      <defs>
       <path d="M 4.203125 18.890625 
L 12.984375 20.0625 
Q 14.5 12.59375 18.140625 9.296875 
Q 21.78125 6 27 6 
Q 33.203125 6 37.46875 10.296875 
Q 41.75 14.59375 41.75 20.953125 
Q 41.75 27 37.796875 30.921875 
Q 33.84375 34.859375 27.734375 34.859375 
Q 25.25 34.859375 21.53125 33.890625 
L 22.515625 41.609375 
Q 23.390625 41.5 23.921875 41.5 
Q 29.546875 41.5 34.03125 44.421875 
Q 38.53125 47.359375 38.53125 53.46875 
Q 38.53125 58.296875 35.25 61.46875 
Q 31.984375 64.65625 26.8125 64.65625 
Q 21.6875 64.65625 18.265625 61.421875 
Q 14.84375 58.203125 13.875 51.765625 
L 5.078125 53.328125 
Q 6.6875 62.15625 12.390625 67.015625 
Q 18.109375 71.875 26.609375 71.875 
Q 32.46875 71.875 37.390625 69.359375 
Q 42.328125 66.84375 44.9375 62.5 
Q 47.5625 58.15625 47.5625 53.265625 
Q 47.5625 48.640625 45.0625 44.828125 
Q 42.578125 41.015625 37.703125 38.765625 
Q 44.046875 37.3125 47.5625 32.6875 
Q 51.078125 28.078125 51.078125 21.140625 
Q 51.078125 11.765625 44.234375 5.25 
Q 37.40625 -1.265625 26.953125 -1.265625 
Q 17.53125 -1.265625 11.296875 4.34375 
Q 5.078125 9.96875 4.203125 18.890625 
z
" id="ArialMT-33"/>
      </defs>
      <g style="fill:#262626;" transform="translate(36.577559 140.157813)scale(0.1 -0.1)">
       <use xlink:href="#ArialMT-2212"/>
       <use x="58.398438" xlink:href="#ArialMT-33"/>
      </g>
     </g>
    </g>
    <g id="xtick_11">
     <g id="line2d_11">
      <g>
       <use style="fill:#262626;stroke:#262626;stroke-width:0.8;" x="44.906556" xlink:href="#m1daa44642b" y="126"/>
      </g>
     </g>
     <g id="text_11">
      <!-- −2 -->
      <g style="fill:#262626;" transform="translate(39.205775 140.157813)scale(0.1 -0.1)">
       <use xlink:href="#ArialMT-2212"/>
       <use x="58.398438" xlink:href="#ArialMT-32"/>
      </g>
     </g>
    </g>
    <g id="xtick_12">
     <g id="line2d_12">
      <g>
       <use style="fill:#262626;stroke:#262626;stroke-width:0.8;" x="47.534772" xlink:href="#m1daa44642b" y="126"/>
      </g>
     </g>
     <g id="text_12">
      <!-- −1 -->
      <g style="fill:#262626;" transform="translate(41.833991 140.157813)scale(0.1 -0.1)">
       <use xlink:href="#ArialMT-2212"/>
       <use x="58.398438" xlink:href="#ArialMT-31"/>
      </g>
     </g>
    </g>
    <g id="xtick_13">
     <g id="line2d_13">
      <g>
       <use style="fill:#262626;stroke:#262626;stroke-width:0.8;" x="50.162988" xlink:href="#m1daa44642b" y="126"/>
      </g>
     </g>
     <g id="text_13">
      <!-- 0 -->
      <g style="fill:#262626;" transform="translate(47.38252 140.157813)scale(0.1 -0.1)">
       <use xlink:href="#ArialMT-30"/>
      </g>
     </g>
    </g>
    <g id="xtick_14">
     <g id="line2d_14">
      <g>
       <use style="fill:#262626;stroke:#262626;stroke-width:0.8;" x="52.791204" xlink:href="#m1daa44642b" y="126"/>
      </g>
     </g>
     <g id="text_14">
      <!-- 1 -->
      <g style="fill:#262626;" transform="translate(50.010736 140.157813)scale(0.1 -0.1)">
       <use xlink:href="#ArialMT-31"/>
      </g>
     </g>
    </g>
    <g id="xtick_15">
     <g id="line2d_15">
      <g>
       <use style="fill:#262626;stroke:#262626;stroke-width:0.8;" x="55.41942" xlink:href="#m1daa44642b" y="126"/>
      </g>
     </g>
     <g id="text_15">
      <!-- 2 -->
      <g style="fill:#262626;" transform="translate(52.638952 140.157813)scale(0.1 -0.1)">
       <use xlink:href="#ArialMT-32"/>
      </g>
     </g>
    </g>
    <g id="xtick_16">
     <g id="line2d_16">
      <g>
       <use style="fill:#262626;stroke:#262626;stroke-width:0.8;" x="58.047637" xlink:href="#m1daa44642b" y="126"/>
      </g>
     </g>
     <g id="text_16">
      <!-- 3 -->
      <g style="fill:#262626;" transform="translate(55.267168 140.157813)scale(0.1 -0.1)">
       <use xlink:href="#ArialMT-33"/>
      </g>
     </g>
    </g>
    <g id="xtick_17">
     <g id="line2d_17">
      <g>
       <use style="fill:#262626;stroke:#262626;stroke-width:0.8;" x="60.675853" xlink:href="#m1daa44642b" y="126"/>
      </g>
     </g>
     <g id="text_17">
      <!-- 4 -->
      <g style="fill:#262626;" transform="translate(57.895384 140.157813)scale(0.1 -0.1)">
       <use xlink:href="#ArialMT-34"/>
      </g>
     </g>
    </g>
    <g id="xtick_18">
     <g id="line2d_18">
      <g>
       <use style="fill:#262626;stroke:#262626;stroke-width:0.8;" x="63.304069" xlink:href="#m1daa44642b" y="126"/>
      </g>
     </g>
     <g id="text_18">
      <!-- 5 -->
      <g style="fill:#262626;" transform="translate(60.5236 140.157813)scale(0.1 -0.1)">
       <use xlink:href="#ArialMT-35"/>
      </g>
     </g>
    </g>
    <g id="xtick_19">
     <g id="line2d_19">
      <g>
       <use style="fill:#262626;stroke:#262626;stroke-width:0.8;" x="65.932285" xlink:href="#m1daa44642b" y="126"/>
      </g>
     </g>
     <g id="text_19">
      <!-- 6 -->
      <g style="fill:#262626;" transform="translate(63.151816 140.157813)scale(0.1 -0.1)">
       <use xlink:href="#ArialMT-36"/>
      </g>
     </g>
    </g>
    <g id="xtick_20">
     <g id="line2d_20">
      <g>
       <use style="fill:#262626;stroke:#262626;stroke-width:0.8;" x="68.560501" xlink:href="#m1daa44642b" y="126"/>
      </g>
     </g>
     <g id="text_20">
      <!-- 7 -->
      <g style="fill:#262626;" transform="translate(65.780032 140.157813)scale(0.1 -0.1)">
       <use xlink:href="#ArialMT-37"/>
      </g>
     </g>
    </g>
    <g id="xtick_21">
     <g id="line2d_21">
      <g>
       <use style="fill:#262626;stroke:#262626;stroke-width:0.8;" x="71.188717" xlink:href="#m1daa44642b" y="126"/>
      </g>
     </g>
     <g id="text_21">
      <!-- 8 -->
      <g style="fill:#262626;" transform="translate(68.408248 140.157813)scale(0.1 -0.1)">
       <use xlink:href="#ArialMT-38"/>
      </g>
     </g>
    </g>
    <g id="xtick_22">
     <g id="line2d_22">
      <g>
       <use style="fill:#262626;stroke:#262626;stroke-width:0.8;" x="73.816933" xlink:href="#m1daa44642b" y="126"/>
      </g>
     </g>
     <g id="text_22">
      <!-- 9 -->
      <g style="fill:#262626;" transform="translate(71.036464 140.157813)scale(0.1 -0.1)">
       <use xlink:href="#ArialMT-39"/>
      </g>
     </g>
    </g>
    <g id="xtick_23">
     <g id="line2d_23">
      <g>
       <use style="fill:#262626;stroke:#262626;stroke-width:0.8;" x="76.445149" xlink:href="#m1daa44642b" y="126"/>
      </g>
     </g>
     <g id="text_23">
      <!-- 10 -->
      <g style="fill:#262626;" transform="translate(70.884212 140.157813)scale(0.1 -0.1)">
       <use xlink:href="#ArialMT-31"/>
       <use x="55.615234" xlink:href="#ArialMT-30"/>
      </g>
     </g>
    </g>
    <g id="xtick_24">
     <g id="line2d_24">
      <g>
       <use style="fill:#262626;stroke:#262626;stroke-width:0.8;" x="79.073365" xlink:href="#m1daa44642b" y="126"/>
      </g>
     </g>
     <g id="text_24">
      <!-- 11 -->
      <g style="fill:#262626;" transform="translate(73.517896 140.157813)scale(0.1 -0.1)">
       <use xlink:href="#ArialMT-31"/>
       <use x="55.505859" xlink:href="#ArialMT-31"/>
      </g>
     </g>
    </g>
    <g id="xtick_25">
     <g id="line2d_25">
      <g>
       <use style="fill:#262626;stroke:#262626;stroke-width:0.8;" x="81.701581" xlink:href="#m1daa44642b" y="126"/>
      </g>
     </g>
     <g id="text_25">
      <!-- 12 -->
      <g style="fill:#262626;" transform="translate(76.140644 140.157813)scale(0.1 -0.1)">
       <use xlink:href="#ArialMT-31"/>
       <use x="55.615234" xlink:href="#ArialMT-32"/>
      </g>
     </g>
    </g>
    <g id="xtick_26">
     <g id="line2d_26">
      <g>
       <use style="fill:#262626;stroke:#262626;stroke-width:0.8;" x="84.329797" xlink:href="#m1daa44642b" y="126"/>
      </g>
     </g>
     <g id="text_26">
      <!-- 13 -->
      <g style="fill:#262626;" transform="translate(78.76886 140.157813)scale(0.1 -0.1)">
       <use xlink:href="#ArialMT-31"/>
       <use x="55.615234" xlink:href="#ArialMT-33"/>
      </g>
     </g>
    </g>
    <g id="xtick_27">
     <g id="line2d_27">
      <g>
       <use style="fill:#262626;stroke:#262626;stroke-width:0.8;" x="86.958013" xlink:href="#m1daa44642b" y="126"/>
      </g>
     </g>
     <g id="text_27">
      <!-- 14 -->
      <g style="fill:#262626;" transform="translate(81.397076 140.157813)scale(0.1 -0.1)">
       <use xlink:href="#ArialMT-31"/>
       <use x="55.615234" xlink:href="#ArialMT-34"/>
      </g>
     </g>
    </g>
    <g id="xtick_28">
     <g id="line2d_28">
      <g>
       <use style="fill:#262626;stroke:#262626;stroke-width:0.8;" x="89.586229" xlink:href="#m1daa44642b" y="126"/>
      </g>
     </g>
     <g id="text_28">
      <!-- 15 -->
      <g style="fill:#262626;" transform="translate(84.025292 140.157813)scale(0.1 -0.1)">
       <use xlink:href="#ArialMT-31"/>
       <use x="55.615234" xlink:href="#ArialMT-35"/>
      </g>
     </g>
    </g>
    <g id="xtick_29">
     <g id="line2d_29">
      <g>
       <use style="fill:#262626;stroke:#262626;stroke-width:0.8;" x="92.214446" xlink:href="#m1daa44642b" y="126"/>
      </g>
     </g>
     <g id="text_29">
      <!-- 16 -->
      <g style="fill:#262626;" transform="translate(86.653508 140.157813)scale(0.1 -0.1)">
       <use xlink:href="#ArialMT-31"/>
       <use x="55.615234" xlink:href="#ArialMT-36"/>
      </g>
     </g>
    </g>
    <g id="xtick_30">
     <g id="line2d_30">
      <g>
       <use style="fill:#262626;stroke:#262626;stroke-width:0.8;" x="94.842662" xlink:href="#m1daa44642b" y="126"/>
      </g>
     </g>
     <g id="text_30">
      <!-- 17 -->
      <g style="fill:#262626;" transform="translate(89.281724 140.157813)scale(0.1 -0.1)">
       <use xlink:href="#ArialMT-31"/>
       <use x="55.615234" xlink:href="#ArialMT-37"/>
      </g>
     </g>
    </g>
    <g id="xtick_31">
     <g id="line2d_31">
      <g>
       <use style="fill:#262626;stroke:#262626;stroke-width:0.8;" x="97.470878" xlink:href="#m1daa44642b" y="126"/>
      </g>
     </g>
     <g id="text_31">
      <!-- 18 -->
      <g style="fill:#262626;" transform="translate(91.90994 140.157813)scale(0.1 -0.1)">
       <use xlink:href="#ArialMT-31"/>
       <use x="55.615234" xlink:href="#ArialMT-38"/>
      </g>
     </g>
    </g>
    <g id="xtick_32">
     <g id="line2d_32">
      <g>
       <use style="fill:#262626;stroke:#262626;stroke-width:0.8;" x="100.099094" xlink:href="#m1daa44642b" y="126"/>
      </g>
     </g>
     <g id="text_32">
      <!-- 19 -->
      <g style="fill:#262626;" transform="translate(94.538156 140.157813)scale(0.1 -0.1)">
       <use xlink:href="#ArialMT-31"/>
       <use x="55.615234" xlink:href="#ArialMT-39"/>
      </g>
     </g>
    </g>
    <g id="xtick_33">
     <g id="line2d_33">
      <g>
       <use style="fill:#262626;stroke:#262626;stroke-width:0.8;" x="102.72731" xlink:href="#m1daa44642b" y="126"/>
      </g>
     </g>
     <g id="text_33">
      <!-- 20 -->
      <g style="fill:#262626;" transform="translate(97.166372 140.157813)scale(0.1 -0.1)">
       <use xlink:href="#ArialMT-32"/>
       <use x="55.615234" xlink:href="#ArialMT-30"/>
      </g>
     </g>
    </g>
    <g id="xtick_34">
     <g id="line2d_34">
      <g>
       <use style="fill:#262626;stroke:#262626;stroke-width:0.8;" x="105.355526" xlink:href="#m1daa44642b" y="126"/>
      </g>
     </g>
     <g id="text_34">
      <!-- 21 -->
      <g style="fill:#262626;" transform="translate(99.794588 140.157813)scale(0.1 -0.1)">
       <use xlink:href="#ArialMT-32"/>
       <use x="55.615234" xlink:href="#ArialMT-31"/>
      </g>
     </g>
    </g>
    <g id="xtick_35">
     <g id="line2d_35">
      <g>
       <use style="fill:#262626;stroke:#262626;stroke-width:0.8;" x="107.983742" xlink:href="#m1daa44642b" y="126"/>
      </g>
     </g>
     <g id="text_35">
      <!-- 22 -->
      <g style="fill:#262626;" transform="translate(102.422805 140.157813)scale(0.1 -0.1)">
       <use xlink:href="#ArialMT-32"/>
       <use x="55.615234" xlink:href="#ArialMT-32"/>
      </g>
     </g>
    </g>
    <g id="xtick_36">
     <g id="line2d_36">
      <g>
       <use style="fill:#262626;stroke:#262626;stroke-width:0.8;" x="110.611958" xlink:href="#m1daa44642b" y="126"/>
      </g>
     </g>
     <g id="text_36">
      <!-- 23 -->
      <g style="fill:#262626;" transform="translate(105.051021 140.157813)scale(0.1 -0.1)">
       <use xlink:href="#ArialMT-32"/>
       <use x="55.615234" xlink:href="#ArialMT-33"/>
      </g>
     </g>
    </g>
    <g id="xtick_37">
     <g id="line2d_37">
      <g>
       <use style="fill:#262626;stroke:#262626;stroke-width:0.8;" x="113.240174" xlink:href="#m1daa44642b" y="126"/>
      </g>
     </g>
     <g id="text_37">
      <!-- 24 -->
      <g style="fill:#262626;" transform="translate(107.679237 140.157813)scale(0.1 -0.1)">
       <use xlink:href="#ArialMT-32"/>
       <use x="55.615234" xlink:href="#ArialMT-34"/>
      </g>
     </g>
    </g>
    <g id="xtick_38">
     <g id="line2d_38">
      <g>
       <use style="fill:#262626;stroke:#262626;stroke-width:0.8;" x="115.86839" xlink:href="#m1daa44642b" y="126"/>
      </g>
     </g>
     <g id="text_38">
      <!-- 25 -->
      <g style="fill:#262626;" transform="translate(110.307453 140.157813)scale(0.1 -0.1)">
       <use xlink:href="#ArialMT-32"/>
       <use x="55.615234" xlink:href="#ArialMT-35"/>
      </g>
     </g>
    </g>
    <g id="xtick_39">
     <g id="line2d_39">
      <g>
       <use style="fill:#262626;stroke:#262626;stroke-width:0.8;" x="118.496606" xlink:href="#m1daa44642b" y="126"/>
      </g>
     </g>
     <g id="text_39">
      <!-- 26 -->
      <g style="fill:#262626;" transform="translate(112.935669 140.157813)scale(0.1 -0.1)">
       <use xlink:href="#ArialMT-32"/>
       <use x="55.615234" xlink:href="#ArialMT-36"/>
      </g>
     </g>
    </g>
    <g id="xtick_40">
     <g id="line2d_40">
      <g>
       <use style="fill:#262626;stroke:#262626;stroke-width:0.8;" x="121.124822" xlink:href="#m1daa44642b" y="126"/>
      </g>
     </g>
     <g id="text_40">
      <!-- 27 -->
      <g style="fill:#262626;" transform="translate(115.563885 140.157813)scale(0.1 -0.1)">
       <use xlink:href="#ArialMT-32"/>
       <use x="55.615234" xlink:href="#ArialMT-37"/>
      </g>
     </g>
    </g>
    <g id="xtick_41">
     <g id="line2d_41">
      <g>
       <use style="fill:#262626;stroke:#262626;stroke-width:0.8;" x="123.753038" xlink:href="#m1daa44642b" y="126"/>
      </g>
     </g>
     <g id="text_41">
      <!-- 28 -->
      <g style="fill:#262626;" transform="translate(118.192101 140.157813)scale(0.1 -0.1)">
       <use xlink:href="#ArialMT-32"/>
       <use x="55.615234" xlink:href="#ArialMT-38"/>
      </g>
     </g>
    </g>
    <g id="xtick_42">
     <g id="line2d_42">
      <g>
       <use style="fill:#262626;stroke:#262626;stroke-width:0.8;" x="126.381255" xlink:href="#m1daa44642b" y="126"/>
      </g>
     </g>
     <g id="text_42">
      <!-- 29 -->
      <g style="fill:#262626;" transform="translate(120.820317 140.157813)scale(0.1 -0.1)">
       <use xlink:href="#ArialMT-32"/>
       <use x="55.615234" xlink:href="#ArialMT-39"/>
      </g>
     </g>
    </g>
    <g id="xtick_43">
     <g id="line2d_43">
      <g>
       <use style="fill:#262626;stroke:#262626;stroke-width:0.8;" x="129.009471" xlink:href="#m1daa44642b" y="126"/>
      </g>
     </g>
     <g id="text_43">
      <!-- 30 -->
      <g style="fill:#262626;" transform="translate(123.448533 140.157813)scale(0.1 -0.1)">
       <use xlink:href="#ArialMT-33"/>
       <use x="55.615234" xlink:href="#ArialMT-30"/>
      </g>
     </g>
    </g>
    <g id="text_44">
     <!-- $pKa$ Epik scan - $pKa$ Jaguar macro -->
     <defs>
      <path d="M 49.609375 33.6875 
Q 49.609375 40.875 46.484375 44.671875 
Q 43.359375 48.484375 37.5 48.484375 
Q 33.5 48.484375 29.859375 46.4375 
Q 26.21875 44.390625 23.390625 40.484375 
Q 20.609375 36.625 18.9375 31.15625 
Q 17.28125 25.6875 17.28125 20.3125 
Q 17.28125 13.484375 20.40625 9.796875 
Q 23.53125 6.109375 29.296875 6.109375 
Q 33.546875 6.109375 37.1875 8.109375 
Q 40.828125 10.109375 43.40625 13.921875 
Q 46.1875 17.921875 47.890625 23.34375 
Q 49.609375 28.765625 49.609375 33.6875 
z
M 21.78125 46.390625 
Q 25.390625 51.125 30.296875 53.5625 
Q 35.203125 56 41.21875 56 
Q 49.609375 56 54.25 50.5 
Q 58.890625 45.015625 58.890625 35.109375 
Q 58.890625 27 56 19.65625 
Q 53.125 12.3125 47.703125 6.5 
Q 44.09375 2.640625 39.546875 0.609375 
Q 35.015625 -1.421875 29.984375 -1.421875 
Q 24.171875 -1.421875 20.21875 1 
Q 16.265625 3.421875 14.3125 8.203125 
L 8.6875 -20.796875 
L -0.296875 -20.796875 
L 14.40625 54.6875 
L 23.390625 54.6875 
z
" id="DejaVuSans-Oblique-70"/>
      <path d="M 16.890625 72.90625 
L 26.8125 72.90625 
L 20.796875 42.1875 
L 59.078125 72.90625 
L 72.21875 72.90625 
L 28.90625 38.09375 
L 60.59375 0 
L 48.578125 0 
L 19.484375 35.5 
L 12.59375 0 
L 2.6875 0 
z
" id="DejaVuSans-Oblique-4b"/>
      <path d="M 53.71875 31.203125 
L 47.609375 0 
L 38.625 0 
L 40.28125 8.296875 
Q 36.328125 3.421875 31.265625 1 
Q 26.21875 -1.421875 20.015625 -1.421875 
Q 13.03125 -1.421875 8.5625 2.84375 
Q 4.109375 7.125 4.109375 13.8125 
Q 4.109375 23.390625 11.75 28.953125 
Q 19.390625 34.515625 32.8125 34.515625 
L 45.3125 34.515625 
L 45.796875 36.921875 
Q 45.90625 37.3125 45.953125 37.765625 
Q 46 38.234375 46 39.203125 
Q 46 43.5625 42.453125 45.96875 
Q 38.921875 48.390625 32.515625 48.390625 
Q 28.125 48.390625 23.5 47.265625 
Q 18.890625 46.140625 14.015625 43.890625 
L 15.578125 52.203125 
Q 20.65625 54.109375 25.515625 55.046875 
Q 30.375 56 34.90625 56 
Q 44.578125 56 49.625 51.796875 
Q 54.6875 47.609375 54.6875 39.59375 
Q 54.6875 37.984375 54.4375 35.8125 
Q 54.203125 33.640625 53.71875 31.203125 
z
M 44 27.484375 
L 35.015625 27.484375 
Q 23.96875 27.484375 18.671875 24.53125 
Q 13.375 21.578125 13.375 15.375 
Q 13.375 11.078125 16.078125 8.640625 
Q 18.796875 6.203125 23.578125 6.203125 
Q 30.90625 6.203125 36.375 11.453125 
Q 41.84375 16.703125 43.609375 25.484375 
z
" id="DejaVuSans-Oblique-61"/>
      <path id="ArialMT-20"/>
      <path d="M 7.90625 0 
L 7.90625 71.578125 
L 59.671875 71.578125 
L 59.671875 63.140625 
L 17.390625 63.140625 
L 17.390625 41.21875 
L 56.984375 41.21875 
L 56.984375 32.8125 
L 17.390625 32.8125 
L 17.390625 8.453125 
L 61.328125 8.453125 
L 61.328125 0 
z
" id="ArialMT-45"/>
      <path d="M 6.59375 -19.875 
L 6.59375 51.859375 
L 14.59375 51.859375 
L 14.59375 45.125 
Q 17.4375 49.078125 21 51.046875 
Q 24.5625 53.03125 29.640625 53.03125 
Q 36.28125 53.03125 41.359375 49.609375 
Q 46.4375 46.1875 49.015625 39.953125 
Q 51.609375 33.734375 51.609375 26.3125 
Q 51.609375 18.359375 48.75 11.984375 
Q 45.90625 5.609375 40.453125 2.21875 
Q 35.015625 -1.171875 29 -1.171875 
Q 24.609375 -1.171875 21.109375 0.6875 
Q 17.625 2.546875 15.375 5.375 
L 15.375 -19.875 
z
M 14.546875 25.640625 
Q 14.546875 15.625 18.59375 10.84375 
Q 22.65625 6.0625 28.421875 6.0625 
Q 34.28125 6.0625 38.453125 11.015625 
Q 42.625 15.96875 42.625 26.375 
Q 42.625 36.28125 38.546875 41.203125 
Q 34.46875 46.140625 28.8125 46.140625 
Q 23.1875 46.140625 18.859375 40.890625 
Q 14.546875 35.640625 14.546875 25.640625 
z
" id="ArialMT-70"/>
      <path d="M 6.640625 61.46875 
L 6.640625 71.578125 
L 15.4375 71.578125 
L 15.4375 61.46875 
z
M 6.640625 0 
L 6.640625 51.859375 
L 15.4375 51.859375 
L 15.4375 0 
z
" id="ArialMT-69"/>
      <path d="M 6.640625 0 
L 6.640625 71.578125 
L 15.4375 71.578125 
L 15.4375 30.765625 
L 36.234375 51.859375 
L 47.609375 51.859375 
L 27.78125 32.625 
L 49.609375 0 
L 38.765625 0 
L 21.625 26.515625 
L 15.4375 20.5625 
L 15.4375 0 
z
" id="ArialMT-6b"/>
      <path d="M 3.078125 15.484375 
L 11.765625 16.84375 
Q 12.5 11.625 15.84375 8.84375 
Q 19.1875 6.0625 25.203125 6.0625 
Q 31.25 6.0625 34.171875 8.515625 
Q 37.109375 10.984375 37.109375 14.3125 
Q 37.109375 17.28125 34.515625 19 
Q 32.71875 20.171875 25.53125 21.96875 
Q 15.875 24.421875 12.140625 26.203125 
Q 8.40625 27.984375 6.46875 31.125 
Q 4.546875 34.28125 4.546875 38.09375 
Q 4.546875 41.546875 6.125 44.5 
Q 7.71875 47.46875 10.453125 49.421875 
Q 12.5 50.921875 16.03125 51.96875 
Q 19.578125 53.03125 23.640625 53.03125 
Q 29.734375 53.03125 34.34375 51.265625 
Q 38.96875 49.515625 41.15625 46.5 
Q 43.359375 43.5 44.1875 38.484375 
L 35.59375 37.3125 
Q 35.015625 41.3125 32.203125 43.546875 
Q 29.390625 45.796875 24.265625 45.796875 
Q 18.21875 45.796875 15.625 43.796875 
Q 13.03125 41.796875 13.03125 39.109375 
Q 13.03125 37.40625 14.109375 36.03125 
Q 15.1875 34.625 17.484375 33.6875 
Q 18.796875 33.203125 25.25 31.453125 
Q 34.578125 28.953125 38.25 27.359375 
Q 41.9375 25.78125 44.03125 22.75 
Q 46.140625 19.734375 46.140625 15.234375 
Q 46.140625 10.84375 43.578125 6.953125 
Q 41.015625 3.078125 36.171875 0.953125 
Q 31.34375 -1.171875 25.25 -1.171875 
Q 15.140625 -1.171875 9.84375 3.03125 
Q 4.546875 7.234375 3.078125 15.484375 
z
" id="ArialMT-73"/>
      <path d="M 40.4375 19 
L 49.078125 17.875 
Q 47.65625 8.9375 41.8125 3.875 
Q 35.984375 -1.171875 27.484375 -1.171875 
Q 16.84375 -1.171875 10.375 5.78125 
Q 3.90625 12.75 3.90625 25.734375 
Q 3.90625 34.125 6.6875 40.421875 
Q 9.46875 46.734375 15.15625 49.875 
Q 20.84375 53.03125 27.546875 53.03125 
Q 35.984375 53.03125 41.359375 48.75 
Q 46.734375 44.484375 48.25 36.625 
L 39.703125 35.296875 
Q 38.484375 40.53125 35.375 43.15625 
Q 32.28125 45.796875 27.875 45.796875 
Q 21.234375 45.796875 17.078125 41.03125 
Q 12.9375 36.28125 12.9375 25.984375 
Q 12.9375 15.53125 16.9375 10.796875 
Q 20.953125 6.0625 27.390625 6.0625 
Q 32.5625 6.0625 36.03125 9.234375 
Q 39.5 12.40625 40.4375 19 
z
" id="ArialMT-63"/>
      <path d="M 40.4375 6.390625 
Q 35.546875 2.25 31.03125 0.53125 
Q 26.515625 -1.171875 21.34375 -1.171875 
Q 12.796875 -1.171875 8.203125 3 
Q 3.609375 7.171875 3.609375 13.671875 
Q 3.609375 17.484375 5.34375 20.625 
Q 7.078125 23.78125 9.890625 25.6875 
Q 12.703125 27.59375 16.21875 28.5625 
Q 18.796875 29.25 24.03125 29.890625 
Q 34.671875 31.15625 39.703125 32.90625 
Q 39.75 34.71875 39.75 35.203125 
Q 39.75 40.578125 37.25 42.78125 
Q 33.890625 45.75 27.25 45.75 
Q 21.046875 45.75 18.09375 43.578125 
Q 15.140625 41.40625 13.71875 35.890625 
L 5.125 37.0625 
Q 6.296875 42.578125 8.984375 45.96875 
Q 11.671875 49.359375 16.75 51.1875 
Q 21.828125 53.03125 28.515625 53.03125 
Q 35.15625 53.03125 39.296875 51.46875 
Q 43.453125 49.90625 45.40625 47.53125 
Q 47.359375 45.171875 48.140625 41.546875 
Q 48.578125 39.3125 48.578125 33.453125 
L 48.578125 21.734375 
Q 48.578125 9.46875 49.140625 6.21875 
Q 49.703125 2.984375 51.375 0 
L 42.1875 0 
Q 40.828125 2.734375 40.4375 6.390625 
z
M 39.703125 26.03125 
Q 34.90625 24.078125 25.34375 22.703125 
Q 19.921875 21.921875 17.671875 20.9375 
Q 15.4375 19.96875 14.203125 18.09375 
Q 12.984375 16.21875 12.984375 13.921875 
Q 12.984375 10.40625 15.640625 8.0625 
Q 18.3125 5.71875 23.4375 5.71875 
Q 28.515625 5.71875 32.46875 7.9375 
Q 36.421875 10.15625 38.28125 14.015625 
Q 39.703125 17 39.703125 22.796875 
z
" id="ArialMT-61"/>
      <path d="M 6.59375 0 
L 6.59375 51.859375 
L 14.5 51.859375 
L 14.5 44.484375 
Q 20.21875 53.03125 31 53.03125 
Q 35.6875 53.03125 39.625 51.34375 
Q 43.5625 49.65625 45.515625 46.921875 
Q 47.46875 44.1875 48.25 40.4375 
Q 48.734375 37.984375 48.734375 31.890625 
L 48.734375 0 
L 39.9375 0 
L 39.9375 31.546875 
Q 39.9375 36.921875 38.90625 39.578125 
Q 37.890625 42.234375 35.28125 43.8125 
Q 32.671875 45.40625 29.15625 45.40625 
Q 23.53125 45.40625 19.453125 41.84375 
Q 15.375 38.28125 15.375 28.328125 
L 15.375 0 
z
" id="ArialMT-6e"/>
      <path d="M 3.171875 21.484375 
L 3.171875 30.328125 
L 30.171875 30.328125 
L 30.171875 21.484375 
z
" id="ArialMT-2d"/>
      <path d="M 2.875 20.3125 
L 11.421875 21.484375 
Q 11.765625 13.28125 14.5 10.25 
Q 17.234375 7.234375 22.078125 7.234375 
Q 25.640625 7.234375 28.21875 8.859375 
Q 30.8125 10.5 31.78125 13.296875 
Q 32.765625 16.109375 32.765625 22.265625 
L 32.765625 71.578125 
L 42.234375 71.578125 
L 42.234375 22.796875 
Q 42.234375 13.8125 40.0625 8.875 
Q 37.890625 3.953125 33.171875 1.359375 
Q 28.46875 -1.21875 22.125 -1.21875 
Q 12.703125 -1.21875 7.6875 4.203125 
Q 2.6875 9.625 2.875 20.3125 
z
" id="ArialMT-4a"/>
      <path d="M 4.984375 -4.296875 
L 13.53125 -5.5625 
Q 14.0625 -9.515625 16.5 -11.328125 
Q 19.78125 -13.765625 25.4375 -13.765625 
Q 31.546875 -13.765625 34.859375 -11.328125 
Q 38.1875 -8.890625 39.359375 -4.5 
Q 40.046875 -1.8125 39.984375 6.78125 
Q 34.234375 0 25.640625 0 
Q 14.9375 0 9.078125 7.71875 
Q 3.21875 15.4375 3.21875 26.21875 
Q 3.21875 33.640625 5.90625 39.90625 
Q 8.59375 46.1875 13.6875 49.609375 
Q 18.796875 53.03125 25.6875 53.03125 
Q 34.859375 53.03125 40.828125 45.609375 
L 40.828125 51.859375 
L 48.921875 51.859375 
L 48.921875 7.03125 
Q 48.921875 -5.078125 46.453125 -10.125 
Q 44 -15.1875 38.640625 -18.109375 
Q 33.296875 -21.046875 25.484375 -21.046875 
Q 16.21875 -21.046875 10.5 -16.875 
Q 4.78125 -12.703125 4.984375 -4.296875 
z
M 12.25 26.859375 
Q 12.25 16.65625 16.296875 11.96875 
Q 20.359375 7.28125 26.46875 7.28125 
Q 32.515625 7.28125 36.609375 11.9375 
Q 40.71875 16.609375 40.71875 26.5625 
Q 40.71875 36.078125 36.5 40.90625 
Q 32.28125 45.75 26.3125 45.75 
Q 20.453125 45.75 16.34375 40.984375 
Q 12.25 36.234375 12.25 26.859375 
z
" id="ArialMT-67"/>
      <path d="M 40.578125 0 
L 40.578125 7.625 
Q 34.515625 -1.171875 24.125 -1.171875 
Q 19.53125 -1.171875 15.546875 0.578125 
Q 11.578125 2.34375 9.640625 5 
Q 7.71875 7.671875 6.9375 11.53125 
Q 6.390625 14.109375 6.390625 19.734375 
L 6.390625 51.859375 
L 15.1875 51.859375 
L 15.1875 23.09375 
Q 15.1875 16.21875 15.71875 13.8125 
Q 16.546875 10.359375 19.234375 8.375 
Q 21.921875 6.390625 25.875 6.390625 
Q 29.828125 6.390625 33.296875 8.421875 
Q 36.765625 10.453125 38.203125 13.9375 
Q 39.65625 17.4375 39.65625 24.078125 
L 39.65625 51.859375 
L 48.4375 51.859375 
L 48.4375 0 
z
" id="ArialMT-75"/>
      <path d="M 6.5 0 
L 6.5 51.859375 
L 14.40625 51.859375 
L 14.40625 44 
Q 17.4375 49.515625 20 51.265625 
Q 22.5625 53.03125 25.640625 53.03125 
Q 30.078125 53.03125 34.671875 50.203125 
L 31.640625 42.046875 
Q 28.421875 43.953125 25.203125 43.953125 
Q 22.3125 43.953125 20.015625 42.21875 
Q 17.71875 40.484375 16.75 37.40625 
Q 15.28125 32.71875 15.28125 27.15625 
L 15.28125 0 
z
" id="ArialMT-72"/>
      <path d="M 6.59375 0 
L 6.59375 51.859375 
L 14.453125 51.859375 
L 14.453125 44.578125 
Q 16.890625 48.390625 20.9375 50.703125 
Q 25 53.03125 30.171875 53.03125 
Q 35.9375 53.03125 39.625 50.640625 
Q 43.3125 48.25 44.828125 43.953125 
Q 50.984375 53.03125 60.84375 53.03125 
Q 68.5625 53.03125 72.703125 48.75 
Q 76.859375 44.484375 76.859375 35.59375 
L 76.859375 0 
L 68.109375 0 
L 68.109375 32.671875 
Q 68.109375 37.9375 67.25 40.25 
Q 66.40625 42.578125 64.15625 43.984375 
Q 61.921875 45.40625 58.890625 45.40625 
Q 53.421875 45.40625 49.796875 41.765625 
Q 46.1875 38.140625 46.1875 30.125 
L 46.1875 0 
L 37.40625 0 
L 37.40625 33.6875 
Q 37.40625 39.546875 35.25 42.46875 
Q 33.109375 45.40625 28.21875 45.40625 
Q 24.515625 45.40625 21.359375 43.453125 
Q 18.21875 41.5 16.796875 37.734375 
Q 15.375 33.984375 15.375 26.90625 
L 15.375 0 
z
" id="ArialMT-6d"/>
      <path d="M 3.328125 25.921875 
Q 3.328125 40.328125 11.328125 47.265625 
Q 18.015625 53.03125 27.640625 53.03125 
Q 38.328125 53.03125 45.109375 46.015625 
Q 51.90625 39.015625 51.90625 26.65625 
Q 51.90625 16.65625 48.90625 10.90625 
Q 45.90625 5.171875 40.15625 2 
Q 34.421875 -1.171875 27.640625 -1.171875 
Q 16.75 -1.171875 10.03125 5.8125 
Q 3.328125 12.796875 3.328125 25.921875 
z
M 12.359375 25.921875 
Q 12.359375 15.96875 16.703125 11.015625 
Q 21.046875 6.0625 27.640625 6.0625 
Q 34.1875 6.0625 38.53125 11.03125 
Q 42.875 16.015625 42.875 26.21875 
Q 42.875 35.84375 38.5 40.796875 
Q 34.125 45.75 27.640625 45.75 
Q 21.046875 45.75 16.703125 40.8125 
Q 12.359375 35.890625 12.359375 25.921875 
z
" id="ArialMT-6f"/>
     </defs>
     <g style="fill:#262626;" transform="translate(-4.75 153.445312)scale(0.1 -0.1)">
      <use transform="translate(0 0.09375)" xlink:href="#DejaVuSans-Oblique-70"/>
      <use transform="translate(63.476562 0.09375)" xlink:href="#DejaVuSans-Oblique-4b"/>
      <use transform="translate(129.052734 0.09375)" xlink:href="#DejaVuSans-Oblique-61"/>
      <use transform="translate(190.332031 0.09375)" xlink:href="#ArialMT-20"/>
      <use transform="translate(218.115234 0.09375)" xlink:href="#ArialMT-45"/>
      <use transform="translate(284.814453 0.09375)" xlink:href="#ArialMT-70"/>
      <use transform="translate(340.429688 0.09375)" xlink:href="#ArialMT-69"/>
      <use transform="translate(362.646484 0.09375)" xlink:href="#ArialMT-6b"/>
      <use transform="translate(412.646484 0.09375)" xlink:href="#ArialMT-20"/>
      <use transform="translate(440.429688 0.09375)" xlink:href="#ArialMT-73"/>
      <use transform="translate(490.429688 0.09375)" xlink:href="#ArialMT-63"/>
      <use transform="translate(540.429688 0.09375)" xlink:href="#ArialMT-61"/>
      <use transform="translate(596.044922 0.09375)" xlink:href="#ArialMT-6e"/>
      <use transform="translate(651.660156 0.09375)" xlink:href="#ArialMT-20"/>
      <use transform="translate(679.443359 0.09375)" xlink:href="#ArialMT-2d"/>
      <use transform="translate(712.744141 0.09375)" xlink:href="#ArialMT-20"/>
      <use transform="translate(740.527344 0.09375)" xlink:href="#DejaVuSans-Oblique-70"/>
      <use transform="translate(804.003906 0.09375)" xlink:href="#DejaVuSans-Oblique-4b"/>
      <use transform="translate(869.580078 0.09375)" xlink:href="#DejaVuSans-Oblique-61"/>
      <use transform="translate(930.859375 0.09375)" xlink:href="#ArialMT-20"/>
      <use transform="translate(958.642578 0.09375)" xlink:href="#ArialMT-4a"/>
      <use transform="translate(1008.642578 0.09375)" xlink:href="#ArialMT-61"/>
      <use transform="translate(1064.257812 0.09375)" xlink:href="#ArialMT-67"/>
      <use transform="translate(1119.873047 0.09375)" xlink:href="#ArialMT-75"/>
      <use transform="translate(1175.488281 0.09375)" xlink:href="#ArialMT-61"/>
      <use transform="translate(1231.103516 0.09375)" xlink:href="#ArialMT-72"/>
      <use transform="translate(1264.404297 0.09375)" xlink:href="#ArialMT-20"/>
      <use transform="translate(1292.1875 0.09375)" xlink:href="#ArialMT-6d"/>
      <use transform="translate(1375.488281 0.09375)" xlink:href="#ArialMT-61"/>
      <use transform="translate(1431.103516 0.09375)" xlink:href="#ArialMT-63"/>
      <use transform="translate(1481.103516 0.09375)" xlink:href="#ArialMT-72"/>
      <use transform="translate(1514.404297 0.09375)" xlink:href="#ArialMT-6f"/>
     </g>
    </g>
   </g>
   <g id="matplotlib.axis_2"/>
   <g id="PolyCollection_1">
    <defs>
     <path d="M 23.072727 -18.086704 
L 23.072727 -18 
L 23.871582 -18 
L 24.670437 -18 
L 25.469291 -18 
L 26.268146 -18 
L 27.067001 -18 
L 27.865855 -18 
L 28.66471 -18 
L 29.463565 -18 
L 30.262419 -18 
L 31.061274 -18 
L 31.860129 -18 
L 32.658984 -18 
L 33.457838 -18 
L 34.256693 -18 
L 35.055548 -18 
L 35.854402 -18 
L 36.653257 -18 
L 37.452112 -18 
L 38.250966 -18 
L 39.049821 -18 
L 39.848676 -18 
L 40.64753 -18 
L 41.446385 -18 
L 42.24524 -18 
L 43.044094 -18 
L 43.842949 -18 
L 44.641804 -18 
L 45.440659 -18 
L 46.239513 -18 
L 47.038368 -18 
L 47.837223 -18 
L 48.636077 -18 
L 49.434932 -18 
L 50.233787 -18 
L 51.032641 -18 
L 51.831496 -18 
L 52.630351 -18 
L 53.429205 -18 
L 54.22806 -18 
L 55.026915 -18 
L 55.82577 -18 
L 56.624624 -18 
L 57.423479 -18 
L 58.222334 -18 
L 59.021188 -18 
L 59.820043 -18 
L 60.618898 -18 
L 61.417752 -18 
L 62.216607 -18 
L 63.015462 -18 
L 63.814316 -18 
L 64.613171 -18 
L 65.412026 -18 
L 66.21088 -18 
L 67.009735 -18 
L 67.80859 -18 
L 68.607445 -18 
L 69.406299 -18 
L 70.205154 -18 
L 71.004009 -18 
L 71.802863 -18 
L 72.601718 -18 
L 73.400573 -18 
L 74.199427 -18 
L 74.998282 -18 
L 75.797137 -18 
L 76.595991 -18 
L 77.394846 -18 
L 78.193701 -18 
L 78.992555 -18 
L 79.79141 -18 
L 80.590265 -18 
L 81.38912 -18 
L 82.187974 -18 
L 82.986829 -18 
L 83.785684 -18 
L 84.584538 -18 
L 85.383393 -18 
L 86.182248 -18 
L 86.981102 -18 
L 87.779957 -18 
L 88.578812 -18 
L 89.377666 -18 
L 90.176521 -18 
L 90.975376 -18 
L 91.77423 -18 
L 92.573085 -18 
L 93.37194 -18 
L 94.170795 -18 
L 94.969649 -18 
L 95.768504 -18 
L 96.567359 -18 
L 97.366213 -18 
L 98.165068 -18 
L 98.963923 -18 
L 99.762777 -18 
L 100.561632 -18 
L 101.360487 -18 
L 102.159341 -18 
L 102.958196 -18 
L 103.757051 -18 
L 104.555906 -18 
L 105.35476 -18 
L 106.153615 -18 
L 106.95247 -18 
L 107.751324 -18 
L 108.550179 -18 
L 109.349034 -18 
L 110.147888 -18 
L 110.946743 -18 
L 111.745598 -18 
L 112.544452 -18 
L 113.343307 -18 
L 114.142162 -18 
L 114.941016 -18 
L 115.739871 -18 
L 116.538726 -18 
L 117.337581 -18 
L 118.136435 -18 
L 118.93529 -18 
L 119.734145 -18 
L 120.532999 -18 
L 121.331854 -18 
L 122.130709 -18 
L 122.929563 -18 
L 123.728418 -18 
L 124.527273 -18 
L 124.527273 -18.073786 
L 124.527273 -18.073786 
L 123.728418 -18.079174 
L 122.929563 -18.102563 
L 122.130709 -18.145749 
L 121.331854 -18.212266 
L 120.532999 -18.306934 
L 119.734145 -18.435267 
L 118.93529 -18.60275 
L 118.136435 -18.813991 
L 117.337581 -19.071808 
L 116.538726 -19.376359 
L 115.739871 -19.724439 
L 114.941016 -20.109091 
L 114.142162 -20.51961 
L 113.343307 -20.942002 
L 112.544452 -21.359836 
L 111.745598 -21.755401 
L 110.946743 -22.111005 
L 110.147888 -22.410238 
L 109.349034 -22.639078 
L 108.550179 -22.786747 
L 107.751324 -22.846298 
L 106.95247 -22.814952 
L 106.153615 -22.694219 
L 105.35476 -22.48982 
L 104.555906 -22.211413 
L 103.757051 -21.872079 
L 102.958196 -21.487556 
L 102.159341 -21.07521 
L 101.360487 -20.652822 
L 100.561632 -20.2373 
L 99.762777 -19.843466 
L 98.963923 -19.483104 
L 98.165068 -19.164366 
L 97.366213 -18.891624 
L 96.567359 -18.665736 
L 95.768504 -18.484661 
L 94.969649 -18.344281 
L 94.170795 -18.239316 
L 93.37194 -18.16422 
L 92.573085 -18.113973 
L 91.77423 -18.084777 
L 90.975376 -18.074652 
L 90.176521 -18.083993 
L 89.377666 -18.116135 
L 88.578812 -18.177949 
L 87.779957 -18.280451 
L 86.981102 -18.439357 
L 86.182248 -18.675433 
L 85.383393 -19.014461 
L 84.584538 -19.486596 
L 83.785684 -20.124919 
L 82.986829 -20.963072 
L 82.187974 -22.031978 
L 81.38912 -23.355848 
L 80.590265 -24.947874 
L 79.79141 -26.806139 
L 78.992555 -28.91043 
L 78.193701 -31.220569 
L 77.394846 -33.676776 
L 76.595991 -36.202309 
L 75.797137 -38.708303 
L 74.998282 -41.10037 
L 74.199427 -43.28626 
L 73.400573 -45.183657 
L 72.601718 -46.72719 
L 71.802863 -47.873839 
L 71.004009 -48.606219 
L 70.205154 -48.933589 
L 69.406299 -48.89084 
L 68.607445 -48.536039 
L 67.80859 -47.94733 
L 67.009735 -47.219947 
L 66.21088 -46.463864 
L 65.412026 -45.802187 
L 64.613171 -45.369898 
L 63.814316 -45.31207 
L 63.015462 -45.780429 
L 62.216607 -46.927166 
L 61.417752 -48.895239 
L 60.618898 -51.805106 
L 59.820043 -55.738668 
L 59.021188 -60.722084 
L 58.222334 -66.709847 
L 57.423479 -73.572928 
L 56.624624 -81.093735 
L 55.82577 -88.970104 
L 55.026915 -96.829526 
L 54.22806 -104.253432 
L 53.429205 -110.809788 
L 52.630351 -116.09079 
L 51.831496 -119.751261 
L 51.032641 -121.542857 
L 50.233787 -121.339361 
L 49.434932 -119.149408 
L 48.636077 -115.11467 
L 47.837223 -109.493636 
L 47.038368 -102.633265 
L 46.239513 -94.932513 
L 45.440659 -86.802819 
L 44.641804 -78.630758 
L 43.842949 -70.747421 
L 43.044094 -63.407646 
L 42.24524 -56.780505 
L 41.446385 -50.95066 
L 40.64753 -45.928703 
L 39.848676 -41.667637 
L 39.049821 -38.082245 
L 38.250966 -35.068304 
L 37.452112 -32.519172 
L 36.653257 -30.338181 
L 35.854402 -28.446173 
L 35.055548 -26.784394 
L 34.256693 -25.313557 
L 33.457838 -24.010306 
L 32.658984 -22.862354 
L 31.860129 -21.863489 
L 31.061274 -21.009317 
L 30.262419 -20.294247 
L 29.463565 -19.709871 
L 28.66471 -19.244601 
L 27.865855 -18.884233 
L 27.067001 -18.613057 
L 26.268146 -18.415129 
L 25.469291 -18.275449 
L 24.670437 -18.18086 
L 23.871582 -18.120626 
L 23.072727 -18.086704 
z
" id="ma0afe1d8f7" style="stroke:#ffffff;stroke-opacity:0.25;"/>
    </defs>
    <g clip-path="url(#pf3ad7f758f)">
     <use style="fill-opacity:0.25;stroke:#ffffff;stroke-opacity:0.25;" x="0" xlink:href="#ma0afe1d8f7" y="144"/>
    </g>
   </g>
   <g id="LineCollection_1">
    <path clip-path="url(#pf3ad7f758f)" d="M 48.68856 126 
L 48.68856 120.564 
" style="fill:none;stroke:#000000;"/>
    <path clip-path="url(#pf3ad7f758f)" d="M 37.237422 126 
L 37.237422 120.564 
" style="fill:none;stroke:#000000;"/>
    <path clip-path="url(#pf3ad7f758f)" d="M 49.667393 126 
L 49.667393 120.564 
" style="fill:none;stroke:#000000;"/>
    <path clip-path="url(#pf3ad7f758f)" d="M 54.352689 126 
L 54.352689 120.564 
" style="fill:none;stroke:#000000;"/>
    <path clip-path="url(#pf3ad7f758f)" d="M 74.269714 126 
L 74.269714 120.564 
" style="fill:none;stroke:#000000;"/>
    <path clip-path="url(#pf3ad7f758f)" d="M 50.121916 126 
L 50.121916 120.564 
" style="fill:none;stroke:#000000;"/>
    <path clip-path="url(#pf3ad7f758f)" d="M 51.185947 126 
L 51.185947 120.564 
" style="fill:none;stroke:#000000;"/>
    <path clip-path="url(#pf3ad7f758f)" d="M 48.417574 126 
L 48.417574 120.564 
" style="fill:none;stroke:#000000;"/>
    <path clip-path="url(#pf3ad7f758f)" d="M 70.812419 126 
L 70.812419 120.564 
" style="fill:none;stroke:#000000;"/>
    <path clip-path="url(#pf3ad7f758f)" d="M 51.102794 126 
L 51.102794 120.564 
" style="fill:none;stroke:#000000;"/>
    <path clip-path="url(#pf3ad7f758f)" d="M 74.460505 126 
L 74.460505 120.564 
" style="fill:none;stroke:#000000;"/>
    <path clip-path="url(#pf3ad7f758f)" d="M 48.377684 126 
L 48.377684 120.564 
" style="fill:none;stroke:#000000;"/>
    <path clip-path="url(#pf3ad7f758f)" d="M 37.542144 126 
L 37.542144 120.564 
" style="fill:none;stroke:#000000;"/>
    <path clip-path="url(#pf3ad7f758f)" d="M 64.447343 126 
L 64.447343 120.564 
" style="fill:none;stroke:#000000;"/>
    <path clip-path="url(#pf3ad7f758f)" d="M 50.608905 126 
L 50.608905 120.564 
" style="fill:none;stroke:#000000;"/>
    <path clip-path="url(#pf3ad7f758f)" d="M 48.075922 126 
L 48.075922 120.564 
" style="fill:none;stroke:#000000;"/>
    <path clip-path="url(#pf3ad7f758f)" d="M 70.494574 126 
L 70.494574 120.564 
" style="fill:none;stroke:#000000;"/>
    <path clip-path="url(#pf3ad7f758f)" d="M 54.225058 126 
L 54.225058 120.564 
" style="fill:none;stroke:#000000;"/>
    <path clip-path="url(#pf3ad7f758f)" d="M 55.261756 126 
L 55.261756 120.564 
" style="fill:none;stroke:#000000;"/>
    <path clip-path="url(#pf3ad7f758f)" d="M 42.588154 126 
L 42.588154 120.564 
" style="fill:none;stroke:#000000;"/>
    <path clip-path="url(#pf3ad7f758f)" d="M 50.917221 126 
L 50.917221 120.564 
" style="fill:none;stroke:#000000;"/>
    <path clip-path="url(#pf3ad7f758f)" d="M 48.348137 126 
L 48.348137 120.564 
" style="fill:none;stroke:#000000;"/>
    <path clip-path="url(#pf3ad7f758f)" d="M 70.599963 126 
L 70.599963 120.564 
" style="fill:none;stroke:#000000;"/>
    <path clip-path="url(#pf3ad7f758f)" d="M 48.811791 126 
L 48.811791 120.564 
" style="fill:none;stroke:#000000;"/>
    <path clip-path="url(#pf3ad7f758f)" d="M 40.663477 126 
L 40.663477 120.564 
" style="fill:none;stroke:#000000;"/>
    <path clip-path="url(#pf3ad7f758f)" d="M 66.393852 126 
L 66.393852 120.564 
" style="fill:none;stroke:#000000;"/>
    <path clip-path="url(#pf3ad7f758f)" d="M 52.255646 126 
L 52.255646 120.564 
" style="fill:none;stroke:#000000;"/>
    <path clip-path="url(#pf3ad7f758f)" d="M 55.144037 126 
L 55.144037 120.564 
" style="fill:none;stroke:#000000;"/>
    <path clip-path="url(#pf3ad7f758f)" d="M 64.329786 126 
L 64.329786 120.564 
" style="fill:none;stroke:#000000;"/>
    <path clip-path="url(#pf3ad7f758f)" d="M 110.362578 126 
L 110.362578 120.564 
" style="fill:none;stroke:#000000;"/>
    <path clip-path="url(#pf3ad7f758f)" d="M 50.163034 126 
L 50.163034 120.564 
" style="fill:none;stroke:#000000;"/>
    <path clip-path="url(#pf3ad7f758f)" d="M 52.423816 126 
L 52.423816 120.564 
" style="fill:none;stroke:#000000;"/>
    <path clip-path="url(#pf3ad7f758f)" d="M 75.370153 126 
L 75.370153 120.564 
" style="fill:none;stroke:#000000;"/>
    <path clip-path="url(#pf3ad7f758f)" d="M 49.332139 126 
L 49.332139 120.564 
" style="fill:none;stroke:#000000;"/>
    <path clip-path="url(#pf3ad7f758f)" d="M 47.010691 126 
L 47.010691 120.564 
" style="fill:none;stroke:#000000;"/>
    <path clip-path="url(#pf3ad7f758f)" d="M 69.264568 126 
L 69.264568 120.564 
" style="fill:none;stroke:#000000;"/>
    <path clip-path="url(#pf3ad7f758f)" d="M 51.833448 126 
L 51.833448 120.564 
" style="fill:none;stroke:#000000;"/>
    <path clip-path="url(#pf3ad7f758f)" d="M 52.502539 126 
L 52.502539 120.564 
" style="fill:none;stroke:#000000;"/>
    <path clip-path="url(#pf3ad7f758f)" d="M 50.081504 126 
L 50.081504 120.564 
" style="fill:none;stroke:#000000;"/>
    <path clip-path="url(#pf3ad7f758f)" d="M 52.712361 126 
L 52.712361 120.564 
" style="fill:none;stroke:#000000;"/>
    <path clip-path="url(#pf3ad7f758f)" d="M 49.851766 126 
L 49.851766 120.564 
" style="fill:none;stroke:#000000;"/>
    <path clip-path="url(#pf3ad7f758f)" d="M 46.580261 126 
L 46.580261 120.564 
" style="fill:none;stroke:#000000;"/>
    <path clip-path="url(#pf3ad7f758f)" d="M 54.530727 126 
L 54.530727 120.564 
" style="fill:none;stroke:#000000;"/>
    <path clip-path="url(#pf3ad7f758f)" d="M 50.440026 126 
L 50.440026 120.564 
" style="fill:none;stroke:#000000;"/>
    <path clip-path="url(#pf3ad7f758f)" d="M 51.436615 126 
L 51.436615 120.564 
" style="fill:none;stroke:#000000;"/>
    <path clip-path="url(#pf3ad7f758f)" d="M 45.074768 126 
L 45.074768 120.564 
" style="fill:none;stroke:#000000;"/>
    <path clip-path="url(#pf3ad7f758f)" d="M 63.589945 126 
L 63.589945 120.564 
" style="fill:none;stroke:#000000;"/>
    <path clip-path="url(#pf3ad7f758f)" d="M 51.322148 126 
L 51.322148 120.564 
" style="fill:none;stroke:#000000;"/>
    <path clip-path="url(#pf3ad7f758f)" d="M 53.022964 126 
L 53.022964 120.564 
" style="fill:none;stroke:#000000;"/>
    <path clip-path="url(#pf3ad7f758f)" d="M 52.107864 126 
L 52.107864 120.564 
" style="fill:none;stroke:#000000;"/>
    <path clip-path="url(#pf3ad7f758f)" d="M 51.072447 126 
L 51.072447 120.564 
" style="fill:none;stroke:#000000;"/>
    <path clip-path="url(#pf3ad7f758f)" d="M 56.947182 126 
L 56.947182 120.564 
" style="fill:none;stroke:#000000;"/>
    <path clip-path="url(#pf3ad7f758f)" d="M 69.229224 126 
L 69.229224 120.564 
" style="fill:none;stroke:#000000;"/>
    <path clip-path="url(#pf3ad7f758f)" d="M 47.91246 126 
L 47.91246 120.564 
" style="fill:none;stroke:#000000;"/>
    <path clip-path="url(#pf3ad7f758f)" d="M 55.115548 126 
L 55.115548 120.564 
" style="fill:none;stroke:#000000;"/>
    <path clip-path="url(#pf3ad7f758f)" d="M 49.164416 126 
L 49.164416 120.564 
" style="fill:none;stroke:#000000;"/>
    <path clip-path="url(#pf3ad7f758f)" d="M 60.976783 126 
L 60.976783 120.564 
" style="fill:none;stroke:#000000;"/>
    <path clip-path="url(#pf3ad7f758f)" d="M 71.295796 126 
L 71.295796 120.564 
" style="fill:none;stroke:#000000;"/>
    <path clip-path="url(#pf3ad7f758f)" d="M 51.62023 126 
L 51.62023 120.564 
" style="fill:none;stroke:#000000;"/>
    <path clip-path="url(#pf3ad7f758f)" d="M 46.240266 126 
L 46.240266 120.564 
" style="fill:none;stroke:#000000;"/>
    <path clip-path="url(#pf3ad7f758f)" d="M 74.216437 126 
L 74.216437 120.564 
" style="fill:none;stroke:#000000;"/>
    <path clip-path="url(#pf3ad7f758f)" d="M 104.885076 126 
L 104.885076 120.564 
" style="fill:none;stroke:#000000;"/>
   </g>
   <g id="line2d_44">
    <path clip-path="url(#pf3ad7f758f)" d="M 23.072727 125.913296 
L 25.469291 125.724551 
L 27.067001 125.386943 
L 28.66471 124.755399 
L 30.262419 123.705753 
L 31.860129 122.136511 
L 33.457838 119.989694 
L 35.055548 117.215606 
L 36.653257 113.661819 
L 37.452112 111.480828 
L 38.250966 108.931696 
L 39.049821 105.917755 
L 39.848676 102.332363 
L 40.64753 98.071297 
L 41.446385 93.04934 
L 43.044094 80.592354 
L 44.641804 65.369242 
L 47.038368 41.366735 
L 47.837223 34.506364 
L 48.636077 28.88533 
L 49.434932 24.850592 
L 50.233787 22.660639 
L 51.032641 22.457143 
L 51.831496 24.248739 
L 52.630351 27.90921 
L 53.429205 33.190212 
L 55.026915 47.170474 
L 57.423479 70.427072 
L 59.021188 83.277916 
L 59.820043 88.261332 
L 60.618898 92.194894 
L 61.417752 95.104761 
L 62.216607 97.072834 
L 63.015462 98.219571 
L 63.814316 98.68793 
L 64.613171 98.630102 
L 65.412026 98.197813 
L 67.009735 96.780053 
L 68.607445 95.463961 
L 69.406299 95.10916 
L 70.205154 95.066411 
L 71.004009 95.393781 
L 71.802863 96.126161 
L 72.601718 97.27281 
L 73.400573 98.816343 
L 74.199427 100.71374 
L 75.797137 105.291697 
L 78.992555 115.08957 
L 80.590265 119.052126 
L 81.38912 120.644152 
L 82.187974 121.968022 
L 82.986829 123.036928 
L 83.785684 123.875081 
L 84.584538 124.513404 
L 85.383393 124.985539 
L 86.981102 125.560643 
L 88.578812 125.822051 
L 90.975376 125.925348 
L 93.37194 125.83578 
L 95.768504 125.515339 
L 97.366213 125.108376 
L 98.963923 124.516896 
L 101.360487 123.347178 
L 103.757051 122.127921 
L 105.35476 121.51018 
L 106.95247 121.185048 
L 108.550179 121.213253 
L 110.147888 121.589762 
L 111.745598 122.244599 
L 117.337581 124.928192 
L 118.93529 125.39725 
L 121.331854 125.787734 
L 123.728418 125.920826 
L 124.527273 125.926214 
L 124.527273 125.926214 
" style="fill:none;stroke:#000000;stroke-linecap:round;stroke-width:1.5;"/>
   </g>
   <g id="line2d_45">
    <path clip-path="url(#pf3ad7f758f)" d="M 51.726839 126 
L 51.726839 17.28 
" style="fill:none;stroke:#000000;stroke-linecap:round;"/>
   </g>
   <g id="patch_3">
    <path d="M 18 126 
L 129.6 126 
" style="fill:none;stroke:#262626;stroke-linecap:square;stroke-linejoin:miter;stroke-width:0.8;"/>
   </g>
  </g>
 </g>
 <defs>
  <clipPath id="pf3ad7f758f">
   <rect height="108.72" width="111.6" x="18" y="17.28"/>
  </clipPath>
 </defs>
</svg>
