<?xml version="1.0" encoding="utf-8" standalone="no"?>
<!DOCTYPE svg PUBLIC "-//W3C//DTD SVG 1.1//EN"
  "http://www.w3.org/Graphics/SVG/1.1/DTD/svg11.dtd">
<!-- Created with matplotlib (http://matplotlib.org/) -->
<svg height="216pt" version="1.1" viewBox="0 0 216 216" width="216pt" xmlns="http://www.w3.org/2000/svg" xmlns:xlink="http://www.w3.org/1999/xlink">
 <defs>
  <style type="text/css">
*{stroke-linecap:butt;stroke-linejoin:round;}
  </style>
 </defs>
 <g id="figure_1">
  <g id="patch_1">
   <path d="M 0 216 
L 216 216 
L 216 0 
L 0 0 
z
" style="fill:#ffffff;"/>
  </g>
  <g id="axes_1">
   <g id="patch_2">
    <path d="M 44.78 175.96 
L 203.52 175.96 
L 203.52 25.44 
L 44.78 25.44 
z
" style="fill:#ffffff;"/>
   </g>
   <g id="matplotlib.axis_1">
    <g id="xtick_1">
     <g id="line2d_1">
      <defs>
       <path d="M 0 0 
L 0 3.5 
" id="m4b8202fa2e" style="stroke:#262626;stroke-width:0.8;"/>
      </defs>
      <g>
       <use style="fill:#262626;stroke:#262626;stroke-width:0.8;" x="51.995455" xlink:href="#m4b8202fa2e" y="175.96"/>
      </g>
     </g>
     <g id="text_1">
      <!-- 2 -->
      <defs>
       <path d="M 50.34375 8.453125 
L 50.34375 0 
L 3.03125 0 
Q 2.9375 3.171875 4.046875 6.109375 
Q 5.859375 10.9375 9.828125 15.625 
Q 13.8125 20.3125 21.34375 26.46875 
Q 33.015625 36.03125 37.109375 41.625 
Q 41.21875 47.21875 41.21875 52.203125 
Q 41.21875 57.421875 37.46875 61 
Q 33.734375 64.59375 27.734375 64.59375 
Q 21.390625 64.59375 17.578125 60.78125 
Q 13.765625 56.984375 13.71875 50.25 
L 4.6875 51.171875 
Q 5.609375 61.28125 11.65625 66.578125 
Q 17.71875 71.875 27.9375 71.875 
Q 38.234375 71.875 44.234375 66.15625 
Q 50.25 60.453125 50.25 52 
Q 50.25 47.703125 48.484375 43.546875 
Q 46.734375 39.40625 42.65625 34.8125 
Q 38.578125 30.21875 29.109375 22.21875 
Q 21.1875 15.578125 18.9375 13.203125 
Q 16.703125 10.84375 15.234375 8.453125 
z
" id="ArialMT-32"/>
      </defs>
      <g style="fill:#262626;" transform="translate(49.214986 190.117812)scale(0.1 -0.1)">
       <use xlink:href="#ArialMT-32"/>
      </g>
     </g>
    </g>
    <g id="xtick_2">
     <g id="line2d_2">
      <g>
       <use style="fill:#262626;stroke:#262626;stroke-width:0.8;" x="80.857273" xlink:href="#m4b8202fa2e" y="175.96"/>
      </g>
     </g>
     <g id="text_2">
      <!-- 4 -->
      <defs>
       <path d="M 32.328125 0 
L 32.328125 17.140625 
L 1.265625 17.140625 
L 1.265625 25.203125 
L 33.9375 71.578125 
L 41.109375 71.578125 
L 41.109375 25.203125 
L 50.78125 25.203125 
L 50.78125 17.140625 
L 41.109375 17.140625 
L 41.109375 0 
z
M 32.328125 25.203125 
L 32.328125 57.46875 
L 9.90625 25.203125 
z
" id="ArialMT-34"/>
      </defs>
      <g style="fill:#262626;" transform="translate(78.076804 190.117812)scale(0.1 -0.1)">
       <use xlink:href="#ArialMT-34"/>
      </g>
     </g>
    </g>
    <g id="xtick_3">
     <g id="line2d_3">
      <g>
       <use style="fill:#262626;stroke:#262626;stroke-width:0.8;" x="109.719091" xlink:href="#m4b8202fa2e" y="175.96"/>
      </g>
     </g>
     <g id="text_3">
      <!-- 6 -->
      <defs>
       <path d="M 49.75 54.046875 
L 41.015625 53.375 
Q 39.84375 58.546875 37.703125 60.890625 
Q 34.125 64.65625 28.90625 64.65625 
Q 24.703125 64.65625 21.53125 62.3125 
Q 17.390625 59.28125 14.984375 53.46875 
Q 12.59375 47.65625 12.5 36.921875 
Q 15.671875 41.75 20.265625 44.09375 
Q 24.859375 46.4375 29.890625 46.4375 
Q 38.671875 46.4375 44.84375 39.96875 
Q 51.03125 33.5 51.03125 23.25 
Q 51.03125 16.5 48.125 10.71875 
Q 45.21875 4.9375 40.140625 1.859375 
Q 35.0625 -1.21875 28.609375 -1.21875 
Q 17.625 -1.21875 10.6875 6.859375 
Q 3.765625 14.9375 3.765625 33.5 
Q 3.765625 54.25 11.421875 63.671875 
Q 18.109375 71.875 29.4375 71.875 
Q 37.890625 71.875 43.28125 67.140625 
Q 48.6875 62.40625 49.75 54.046875 
z
M 13.875 23.1875 
Q 13.875 18.65625 15.796875 14.5 
Q 17.71875 10.359375 21.1875 8.171875 
Q 24.65625 6 28.46875 6 
Q 34.03125 6 38.03125 10.484375 
Q 42.046875 14.984375 42.046875 22.703125 
Q 42.046875 30.125 38.078125 34.390625 
Q 34.125 38.671875 28.125 38.671875 
Q 22.171875 38.671875 18.015625 34.390625 
Q 13.875 30.125 13.875 23.1875 
z
" id="ArialMT-36"/>
      </defs>
      <g style="fill:#262626;" transform="translate(106.938622 190.117812)scale(0.1 -0.1)">
       <use xlink:href="#ArialMT-36"/>
      </g>
     </g>
    </g>
    <g id="xtick_4">
     <g id="line2d_4">
      <g>
       <use style="fill:#262626;stroke:#262626;stroke-width:0.8;" x="138.580909" xlink:href="#m4b8202fa2e" y="175.96"/>
      </g>
     </g>
     <g id="text_4">
      <!-- 8 -->
      <defs>
       <path d="M 17.671875 38.8125 
Q 12.203125 40.828125 9.5625 44.53125 
Q 6.9375 48.25 6.9375 53.421875 
Q 6.9375 61.234375 12.546875 66.546875 
Q 18.171875 71.875 27.484375 71.875 
Q 36.859375 71.875 42.578125 66.421875 
Q 48.296875 60.984375 48.296875 53.171875 
Q 48.296875 48.1875 45.671875 44.5 
Q 43.0625 40.828125 37.75 38.8125 
Q 44.34375 36.671875 47.78125 31.875 
Q 51.21875 27.09375 51.21875 20.453125 
Q 51.21875 11.28125 44.71875 5.03125 
Q 38.234375 -1.21875 27.640625 -1.21875 
Q 17.046875 -1.21875 10.546875 5.046875 
Q 4.046875 11.328125 4.046875 20.703125 
Q 4.046875 27.6875 7.59375 32.390625 
Q 11.140625 37.109375 17.671875 38.8125 
z
M 15.921875 53.71875 
Q 15.921875 48.640625 19.1875 45.40625 
Q 22.46875 42.1875 27.6875 42.1875 
Q 32.765625 42.1875 36.015625 45.375 
Q 39.265625 48.578125 39.265625 53.21875 
Q 39.265625 58.0625 35.90625 61.359375 
Q 32.5625 64.65625 27.59375 64.65625 
Q 22.5625 64.65625 19.234375 61.421875 
Q 15.921875 58.203125 15.921875 53.71875 
z
M 13.09375 20.65625 
Q 13.09375 16.890625 14.875 13.375 
Q 16.65625 9.859375 20.171875 7.921875 
Q 23.6875 6 27.734375 6 
Q 34.03125 6 38.125 10.046875 
Q 42.234375 14.109375 42.234375 20.359375 
Q 42.234375 26.703125 38.015625 30.859375 
Q 33.796875 35.015625 27.4375 35.015625 
Q 21.234375 35.015625 17.15625 30.90625 
Q 13.09375 26.8125 13.09375 20.65625 
z
" id="ArialMT-38"/>
      </defs>
      <g style="fill:#262626;" transform="translate(135.80044 190.117812)scale(0.1 -0.1)">
       <use xlink:href="#ArialMT-38"/>
      </g>
     </g>
    </g>
    <g id="xtick_5">
     <g id="line2d_5">
      <g>
       <use style="fill:#262626;stroke:#262626;stroke-width:0.8;" x="167.442727" xlink:href="#m4b8202fa2e" y="175.96"/>
      </g>
     </g>
     <g id="text_5">
      <!-- 10 -->
      <defs>
       <path d="M 37.25 0 
L 28.46875 0 
L 28.46875 56 
Q 25.296875 52.984375 20.140625 49.953125 
Q 14.984375 46.921875 10.890625 45.40625 
L 10.890625 53.90625 
Q 18.265625 57.375 23.78125 62.296875 
Q 29.296875 67.234375 31.59375 71.875 
L 37.25 71.875 
z
" id="ArialMT-31"/>
       <path d="M 4.15625 35.296875 
Q 4.15625 48 6.765625 55.734375 
Q 9.375 63.484375 14.515625 67.671875 
Q 19.671875 71.875 27.484375 71.875 
Q 33.25 71.875 37.59375 69.546875 
Q 41.9375 67.234375 44.765625 62.859375 
Q 47.609375 58.5 49.21875 52.21875 
Q 50.828125 45.953125 50.828125 35.296875 
Q 50.828125 22.703125 48.234375 14.96875 
Q 45.65625 7.234375 40.5 3 
Q 35.359375 -1.21875 27.484375 -1.21875 
Q 17.140625 -1.21875 11.234375 6.203125 
Q 4.15625 15.140625 4.15625 35.296875 
z
M 13.1875 35.296875 
Q 13.1875 17.671875 17.3125 11.828125 
Q 21.4375 6 27.484375 6 
Q 33.546875 6 37.671875 11.859375 
Q 41.796875 17.71875 41.796875 35.296875 
Q 41.796875 52.984375 37.671875 58.78125 
Q 33.546875 64.59375 27.390625 64.59375 
Q 21.34375 64.59375 17.71875 59.46875 
Q 13.1875 52.9375 13.1875 35.296875 
z
" id="ArialMT-30"/>
      </defs>
      <g style="fill:#262626;" transform="translate(161.88179 190.117812)scale(0.1 -0.1)">
       <use xlink:href="#ArialMT-31"/>
       <use x="55.615234" xlink:href="#ArialMT-30"/>
      </g>
     </g>
    </g>
    <g id="xtick_6">
     <g id="line2d_6">
      <g>
       <use style="fill:#262626;stroke:#262626;stroke-width:0.8;" x="196.304545" xlink:href="#m4b8202fa2e" y="175.96"/>
      </g>
     </g>
     <g id="text_6">
      <!-- 12 -->
      <g style="fill:#262626;" transform="translate(190.743608 190.117812)scale(0.1 -0.1)">
       <use xlink:href="#ArialMT-31"/>
       <use x="55.615234" xlink:href="#ArialMT-32"/>
      </g>
     </g>
    </g>
    <g id="text_7">
     <!-- pH -->
     <defs>
      <path d="M 6.59375 -19.875 
L 6.59375 51.859375 
L 14.59375 51.859375 
L 14.59375 45.125 
Q 17.4375 49.078125 21 51.046875 
Q 24.5625 53.03125 29.640625 53.03125 
Q 36.28125 53.03125 41.359375 49.609375 
Q 46.4375 46.1875 49.015625 39.953125 
Q 51.609375 33.734375 51.609375 26.3125 
Q 51.609375 18.359375 48.75 11.984375 
Q 45.90625 5.609375 40.453125 2.21875 
Q 35.015625 -1.171875 29 -1.171875 
Q 24.609375 -1.171875 21.109375 0.6875 
Q 17.625 2.546875 15.375 5.375 
L 15.375 -19.875 
z
M 14.546875 25.640625 
Q 14.546875 15.625 18.59375 10.84375 
Q 22.65625 6.0625 28.421875 6.0625 
Q 34.28125 6.0625 38.453125 11.015625 
Q 42.625 15.96875 42.625 26.375 
Q 42.625 36.28125 38.546875 41.203125 
Q 34.46875 46.140625 28.8125 46.140625 
Q 23.1875 46.140625 18.859375 40.890625 
Q 14.546875 35.640625 14.546875 25.640625 
z
" id="ArialMT-70"/>
      <path d="M 8.015625 0 
L 8.015625 71.578125 
L 17.484375 71.578125 
L 17.484375 42.1875 
L 54.6875 42.1875 
L 54.6875 71.578125 
L 64.15625 71.578125 
L 64.15625 0 
L 54.6875 0 
L 54.6875 33.734375 
L 17.484375 33.734375 
L 17.484375 0 
z
" id="ArialMT-48"/>
     </defs>
     <g style="fill:#262626;" transform="translate(117.758594 203.263125)scale(0.1 -0.1)">
      <use xlink:href="#ArialMT-70"/>
      <use x="55.615234" xlink:href="#ArialMT-48"/>
     </g>
    </g>
   </g>
   <g id="matplotlib.axis_2">
    <g id="ytick_1">
     <g id="line2d_7">
      <defs>
       <path d="M 0 0 
L -3.5 0 
" id="m61b03b329a" style="stroke:#262626;stroke-width:0.8;"/>
      </defs>
      <g>
       <use style="fill:#262626;stroke:#262626;stroke-width:0.8;" x="44.78" xlink:href="#m61b03b329a" y="147.221288"/>
      </g>
     </g>
     <g id="text_8">
      <!-- −1 -->
      <defs>
       <path d="M 52.828125 31.203125 
L 5.5625 31.203125 
L 5.5625 39.40625 
L 52.828125 39.40625 
z
" id="ArialMT-2212"/>
      </defs>
      <g style="fill:#262626;" transform="translate(26.378438 150.800194)scale(0.1 -0.1)">
       <use xlink:href="#ArialMT-2212"/>
       <use x="58.398438" xlink:href="#ArialMT-31"/>
      </g>
     </g>
    </g>
    <g id="ytick_2">
     <g id="line2d_8">
      <g>
       <use style="fill:#262626;stroke:#262626;stroke-width:0.8;" x="44.78" xlink:href="#m61b03b329a" y="112.112507"/>
      </g>
     </g>
     <g id="text_9">
      <!-- 0 -->
      <g style="fill:#262626;" transform="translate(32.219063 115.691413)scale(0.1 -0.1)">
       <use xlink:href="#ArialMT-30"/>
      </g>
     </g>
    </g>
    <g id="ytick_3">
     <g id="line2d_9">
      <g>
       <use style="fill:#262626;stroke:#262626;stroke-width:0.8;" x="44.78" xlink:href="#m61b03b329a" y="77.003726"/>
      </g>
     </g>
     <g id="text_10">
      <!-- 1 -->
      <g style="fill:#262626;" transform="translate(32.219063 80.582632)scale(0.1 -0.1)">
       <use xlink:href="#ArialMT-31"/>
      </g>
     </g>
    </g>
    <g id="ytick_4">
     <g id="line2d_10">
      <g>
       <use style="fill:#262626;stroke:#262626;stroke-width:0.8;" x="44.78" xlink:href="#m61b03b329a" y="41.894945"/>
      </g>
     </g>
     <g id="text_11">
      <!-- 2 -->
      <g style="fill:#262626;" transform="translate(32.219063 45.473852)scale(0.1 -0.1)">
       <use xlink:href="#ArialMT-32"/>
      </g>
     </g>
    </g>
    <g id="text_12">
     <!-- $\langle q_\mathsf{total} \rangle$ -->
     <defs>
      <path d="M 8.9375 31.34375 
L 22.703125 75.875 
L 31 75.875 
L 17.234375 31.34375 
L 31 -13.1875 
L 22.703125 -13.1875 
z
" id="DejaVuSans-27e8"/>
      <path d="M 41.703125 8.203125 
Q 38.09375 3.46875 33.171875 1.015625 
Q 28.265625 -1.421875 22.3125 -1.421875 
Q 14.015625 -1.421875 9.296875 4.171875 
Q 4.59375 9.765625 4.59375 19.578125 
Q 4.59375 27.484375 7.5 34.859375 
Q 10.40625 42.234375 15.828125 48.09375 
Q 19.34375 51.90625 23.90625 53.953125 
Q 28.46875 56 33.5 56 
Q 39.546875 56 43.453125 53.609375 
Q 47.359375 51.21875 49.125 46.390625 
L 50.6875 54.59375 
L 59.71875 54.59375 
L 45.125 -20.609375 
L 36.078125 -20.609375 
z
M 13.921875 20.90625 
Q 13.921875 13.671875 16.9375 9.890625 
Q 19.96875 6.109375 25.6875 6.109375 
Q 34.1875 6.109375 40.1875 14.234375 
Q 46.1875 22.359375 46.1875 33.984375 
Q 46.1875 41.015625 43.078125 44.75 
Q 39.984375 48.484375 34.1875 48.484375 
Q 29.9375 48.484375 26.3125 46.5 
Q 22.703125 44.53125 20.015625 40.71875 
Q 17.1875 36.71875 15.546875 31.34375 
Q 13.921875 25.984375 13.921875 20.90625 
z
" id="DejaVuSans-Oblique-71"/>
      <path d="M 18.3125 70.21875 
L 18.3125 54.6875 
L 36.8125 54.6875 
L 36.8125 47.703125 
L 18.3125 47.703125 
L 18.3125 18.015625 
Q 18.3125 11.328125 20.140625 9.421875 
Q 21.96875 7.515625 27.59375 7.515625 
L 36.8125 7.515625 
L 36.8125 0 
L 27.59375 0 
Q 17.1875 0 13.234375 3.875 
Q 9.28125 7.765625 9.28125 18.015625 
L 9.28125 47.703125 
L 2.6875 47.703125 
L 2.6875 54.6875 
L 9.28125 54.6875 
L 9.28125 70.21875 
z
" id="DejaVuSans-74"/>
      <path d="M 30.609375 48.390625 
Q 23.390625 48.390625 19.1875 42.75 
Q 14.984375 37.109375 14.984375 27.296875 
Q 14.984375 17.484375 19.15625 11.84375 
Q 23.34375 6.203125 30.609375 6.203125 
Q 37.796875 6.203125 41.984375 11.859375 
Q 46.1875 17.53125 46.1875 27.296875 
Q 46.1875 37.015625 41.984375 42.703125 
Q 37.796875 48.390625 30.609375 48.390625 
z
M 30.609375 56 
Q 42.328125 56 49.015625 48.375 
Q 55.71875 40.765625 55.71875 27.296875 
Q 55.71875 13.875 49.015625 6.21875 
Q 42.328125 -1.421875 30.609375 -1.421875 
Q 18.84375 -1.421875 12.171875 6.21875 
Q 5.515625 13.875 5.515625 27.296875 
Q 5.515625 40.765625 12.171875 48.375 
Q 18.84375 56 30.609375 56 
z
" id="DejaVuSans-6f"/>
      <path d="M 34.28125 27.484375 
Q 23.390625 27.484375 19.1875 25 
Q 14.984375 22.515625 14.984375 16.5 
Q 14.984375 11.71875 18.140625 8.90625 
Q 21.296875 6.109375 26.703125 6.109375 
Q 34.1875 6.109375 38.703125 11.40625 
Q 43.21875 16.703125 43.21875 25.484375 
L 43.21875 27.484375 
z
M 52.203125 31.203125 
L 52.203125 0 
L 43.21875 0 
L 43.21875 8.296875 
Q 40.140625 3.328125 35.546875 0.953125 
Q 30.953125 -1.421875 24.3125 -1.421875 
Q 15.921875 -1.421875 10.953125 3.296875 
Q 6 8.015625 6 15.921875 
Q 6 25.140625 12.171875 29.828125 
Q 18.359375 34.515625 30.609375 34.515625 
L 43.21875 34.515625 
L 43.21875 35.40625 
Q 43.21875 41.609375 39.140625 45 
Q 35.0625 48.390625 27.6875 48.390625 
Q 23 48.390625 18.546875 47.265625 
Q 14.109375 46.140625 10.015625 43.890625 
L 10.015625 52.203125 
Q 14.9375 54.109375 19.578125 55.046875 
Q 24.21875 56 28.609375 56 
Q 40.484375 56 46.34375 49.84375 
Q 52.203125 43.703125 52.203125 31.203125 
z
" id="DejaVuSans-61"/>
      <path d="M 9.421875 75.984375 
L 18.40625 75.984375 
L 18.40625 0 
L 9.421875 0 
z
" id="DejaVuSans-6c"/>
      <path d="M 30.078125 31.34375 
L 16.3125 -13.1875 
L 8.015625 -13.1875 
L 21.78125 31.34375 
L 8.015625 75.875 
L 16.3125 75.875 
z
" id="DejaVuSans-27e9"/>
     </defs>
     <g style="fill:#262626;" transform="translate(20.278438 115.95)rotate(-90)scale(0.1 -0.1)">
      <use transform="translate(0 0.125)" xlink:href="#DejaVuSans-27e8"/>
      <use transform="translate(39.013672 0.125)" xlink:href="#DejaVuSans-Oblique-71"/>
      <use transform="translate(102.490234 -16.28125)scale(0.7)" xlink:href="#DejaVuSans-74"/>
      <use transform="translate(129.936523 -16.28125)scale(0.7)" xlink:href="#DejaVuSans-6f"/>
      <use transform="translate(172.763672 -16.28125)scale(0.7)" xlink:href="#DejaVuSans-74"/>
      <use transform="translate(200.209961 -16.28125)scale(0.7)" xlink:href="#DejaVuSans-61"/>
      <use transform="translate(243.105469 -16.28125)scale(0.7)" xlink:href="#DejaVuSans-6c"/>
      <use transform="translate(265.288086 0.125)" xlink:href="#DejaVuSans-27e9"/>
     </g>
    </g>
   </g>
   <g id="line2d_11">
    <path clip-path="url(#pc2632254d6)" d="M 51.995455 107.95313 
L 53.438545 108.727735 
L 54.881636 109.370559 
L 56.324727 109.899624 
L 57.767818 110.3321 
L 59.210909 110.68365 
L 60.654 110.96812 
L 62.097091 111.197465 
L 63.540182 111.381816 
L 64.983273 111.529648 
L 66.426364 111.647968 
L 67.869455 111.742522 
L 69.312545 111.81799 
L 70.755636 111.878167 
L 72.198727 111.926113 
L 73.641818 111.96429 
L 75.084909 111.994673 
L 76.528 112.018845 
L 77.971091 112.038068 
L 79.414182 112.053353 
L 80.857273 112.065503 
L 82.300364 112.075161 
L 83.743455 112.082835 
L 85.186545 112.088934 
L 86.629636 112.09378 
L 88.072727 112.09763 
L 89.515818 112.100689 
L 90.958909 112.103119 
L 92.402 112.105049 
L 93.845091 112.106583 
L 95.288182 112.107801 
L 96.731273 112.108769 
L 98.174364 112.109538 
L 99.617455 112.110149 
L 101.060545 112.110634 
L 102.503636 112.11102 
L 103.946727 112.111326 
L 105.389818 112.111569 
L 106.832909 112.111763 
L 108.276 112.111917 
L 109.719091 112.112039 
L 111.162182 112.112137 
L 112.605273 112.112215 
L 114.048364 112.112277 
L 115.491455 112.112327 
L 116.934545 112.112367 
L 118.377636 112.1124 
L 119.820727 112.112427 
L 121.263818 112.11245 
L 122.706909 112.11247 
L 124.15 112.112487 
L 125.593091 112.112504 
L 127.036182 112.112521 
L 128.479273 112.112538 
L 129.922364 112.112557 
L 131.365455 112.112578 
L 132.808545 112.112604 
L 134.251636 112.112634 
L 135.694727 112.112672 
L 137.137818 112.112718 
L 138.580909 112.112775 
L 140.024 112.112847 
L 141.467091 112.112936 
L 142.910182 112.113049 
L 144.353273 112.11319 
L 145.796364 112.113367 
L 147.239455 112.113591 
L 148.682545 112.113872 
L 150.125636 112.114226 
L 151.568727 112.114671 
L 153.011818 112.115232 
L 154.454909 112.115937 
L 155.898 112.116826 
L 157.341091 112.117944 
L 158.784182 112.119351 
L 160.227273 112.121123 
L 161.670364 112.123353 
L 163.113455 112.126161 
L 164.556545 112.129694 
L 165.999636 112.134142 
L 167.442727 112.139739 
L 168.885818 112.146783 
L 170.328909 112.155647 
L 171.772 112.1668 
L 173.215091 112.180831 
L 174.658182 112.198478 
L 176.101273 112.220669 
L 177.544364 112.248567 
L 178.987455 112.283624 
L 180.430545 112.32766 
L 181.873636 112.382939 
L 183.316727 112.452283 
L 184.759818 112.53919 
L 186.202909 112.647984 
L 187.646 112.783981 
L 189.089091 112.953677 
L 190.532182 113.164949 
L 191.975273 113.427248 
L 193.418364 113.751773 
L 194.861455 114.151569 
L 196.304545 114.641504 
" style="fill:none;opacity:0.9;stroke:#001c7f;stroke-linecap:round;stroke-width:1.5;"/>
   </g>
   <g id="line2d_12">
    <path clip-path="url(#pc2632254d6)" d="M 51.995455 77.450262 
L 53.438545 77.564037 
L 54.881636 77.706213 
L 56.324727 77.883546 
L 57.767818 78.104213 
L 59.210909 78.378003 
L 60.654 78.71648 
L 62.097091 79.133058 
L 63.540182 79.642951 
L 64.983273 80.262877 
L 66.426364 81.010448 
L 67.869455 81.903116 
L 69.312545 82.956599 
L 70.755636 84.182773 
L 72.198727 85.58716 
L 73.641818 87.166314 
L 75.084909 88.905635 
L 76.528 90.778268 
L 77.971091 92.745677 
L 79.414182 94.76021 
L 80.857273 96.769434 
L 82.300364 98.721461 
L 83.743455 100.570165 
L 85.186545 102.279205 
L 86.629636 103.824191 
L 88.072727 105.192888 
L 89.515818 106.383841 
L 90.958909 107.404054 
L 92.402 108.266363 
L 93.845091 108.986984 
L 95.288182 109.583511 
L 96.731273 110.073445 
L 98.174364 110.473241 
L 99.617455 110.797766 
L 101.060545 111.060066 
L 102.503636 111.271337 
L 103.946727 111.441033 
L 105.389818 111.57703 
L 106.832909 111.685824 
L 108.276 111.772731 
L 109.719091 111.842075 
L 111.162182 111.897355 
L 112.605273 111.94139 
L 114.048364 111.976447 
L 115.491455 112.004345 
L 116.934545 112.026536 
L 118.377636 112.044184 
L 119.820727 112.058214 
L 121.263818 112.069367 
L 122.706909 112.078231 
L 124.15 112.085275 
L 125.593091 112.090873 
L 127.036182 112.09532 
L 128.479273 112.098854 
L 129.922364 112.101661 
L 131.365455 112.103891 
L 132.808545 112.105663 
L 134.251636 112.10707 
L 135.694727 112.108188 
L 137.137818 112.109077 
L 138.580909 112.109782 
L 140.024 112.110342 
L 141.467091 112.110788 
L 142.910182 112.111141 
L 144.353273 112.111422 
L 145.796364 112.111645 
L 147.239455 112.111823 
L 148.682545 112.111963 
L 150.125636 112.112075 
L 151.568727 112.112164 
L 153.011818 112.112235 
L 154.454909 112.112291 
L 155.898 112.112335 
L 157.341091 112.112371 
L 158.784182 112.112399 
L 160.227273 112.112421 
L 161.670364 112.112439 
L 163.113455 112.112453 
L 164.556545 112.112464 
L 165.999636 112.112473 
L 167.442727 112.11248 
L 168.885818 112.112486 
L 170.328909 112.11249 
L 171.772 112.112493 
L 173.215091 112.112496 
L 174.658182 112.112499 
L 176.101273 112.1125 
L 177.544364 112.112502 
L 178.987455 112.112503 
L 180.430545 112.112504 
L 181.873636 112.112504 
L 183.316727 112.112505 
L 184.759818 112.112505 
L 186.202909 112.112506 
L 187.646 112.112506 
L 189.089091 112.112506 
L 190.532182 112.112506 
L 191.975273 112.112507 
L 193.418364 112.112507 
L 194.861455 112.112507 
L 196.304545 112.112507 
" style="fill:none;opacity:0.7;stroke:#000000;stroke-linecap:round;stroke-width:1.5;"/>
   </g>
   <g id="line2d_13">
    <path clip-path="url(#pc2632254d6)" d="M 51.995455 73.991786 
L 53.438545 74.793865 
L 54.881636 75.483305 
L 56.324727 76.075763 
L 57.767818 76.586526 
L 59.210909 77.0318 
L 60.654 77.428337 
L 62.097091 77.791633 
L 63.540182 78.134463 
L 64.983273 78.466773 
L 66.426364 78.796213 
L 67.869455 79.128216 
L 69.312545 79.465815 
L 70.755636 79.809995 
L 72.198727 80.16058 
L 73.641818 80.517043 
L 75.084909 80.879079 
L 76.528 81.247076 
L 77.971091 81.622476 
L 79.414182 82.007731 
L 80.857273 82.405576 
L 82.300364 82.817899 
L 83.743455 83.245187 
L 85.186545 83.687087 
L 86.629636 84.143543 
L 88.072727 84.615511 
L 89.515818 85.104584 
L 90.958909 85.611765 
L 92.402 86.136554 
L 93.845091 86.677366 
L 95.288182 87.232866 
L 96.731273 87.802775 
L 98.174364 88.3876 
L 99.617455 88.98784 
L 101.060545 89.603157 
L 102.503636 90.231821 
L 103.946727 90.870964 
L 105.389818 91.517779 
L 106.832909 92.170684 
L 108.276 92.829461 
L 109.719091 93.494496 
L 111.162182 94.165851 
L 112.605273 94.842758 
L 114.048364 95.52368 
L 115.491455 96.206635 
L 116.934545 96.889437 
L 118.377636 97.569868 
L 119.820727 98.245906 
L 121.263818 98.915827 
L 122.706909 99.578068 
L 124.15 100.231019 
L 125.593091 100.872923 
L 127.036182 101.501884 
L 128.479273 102.115912 
L 129.922364 102.712909 
L 131.365455 103.290646 
L 132.808545 103.846772 
L 134.251636 104.37891 
L 135.694727 104.884842 
L 137.137818 105.362758 
L 138.580909 105.811508 
L 140.024 106.230628 
L 141.467091 106.62002 
L 142.910182 106.979561 
L 144.353273 107.309171 
L 145.796364 107.609491 
L 147.239455 107.882529 
L 148.682545 108.131241 
L 150.125636 108.358045 
L 151.568727 108.563579 
L 153.011818 108.746919 
L 154.454909 108.907351 
L 155.898 109.046279 
L 157.341091 109.167417 
L 158.784182 109.275103 
L 160.227273 109.372455 
L 161.670364 109.460716 
L 163.113455 109.53958 
L 164.556545 109.607766 
L 165.999636 109.663385 
L 167.442727 109.704033 
L 168.885818 109.726682 
L 170.328909 109.727481 
L 171.772 109.701598 
L 173.215091 109.643198 
L 174.658182 109.545671 
L 176.101273 109.402103 
L 177.544364 109.205918 
L 178.987455 108.951519 
L 180.430545 108.634789 
L 181.873636 108.253425 
L 183.316727 107.807176 
L 184.759818 107.29809 
L 186.202909 106.730818 
L 187.646 106.112963 
L 189.089091 105.455416 
L 190.532182 104.772608 
L 191.975273 104.08266 
L 193.418364 103.407438 
L 194.861455 102.772524 
L 196.304545 102.207092 
" style="fill:none;opacity:0.45;stroke:#001c7f;stroke-dasharray:2.775,1.2;stroke-dashoffset:0;stroke-width:0.75;"/>
   </g>
   <g id="line2d_14">
    <path clip-path="url(#pc2632254d6)" d="M 51.995455 141.914474 
L 53.438545 142.661606 
L 54.881636 143.257814 
L 56.324727 143.723485 
L 57.767818 144.077673 
L 59.210909 144.335499 
L 60.654 144.507904 
L 62.097091 144.603296 
L 63.540182 144.629169 
L 64.983273 144.592523 
L 66.426364 144.499723 
L 67.869455 144.356827 
L 69.312545 144.170166 
L 70.755636 143.946338 
L 72.198727 143.691646 
L 73.641818 143.411537 
L 75.084909 143.110268 
L 76.528 142.790613 
L 77.971091 142.453661 
L 79.414182 142.098975 
L 80.857273 141.725431 
L 82.300364 141.332423 
L 83.743455 140.920484 
L 85.186545 140.490782 
L 86.629636 140.044017 
L 88.072727 139.579749 
L 89.515818 139.096794 
L 90.958909 138.594472 
L 92.402 138.073545 
L 93.845091 137.5358 
L 95.288182 136.982736 
L 96.731273 136.414763 
L 98.174364 135.831476 
L 99.617455 135.232458 
L 101.060545 134.618112 
L 102.503636 133.990219 
L 103.946727 133.351688 
L 105.389818 132.70536 
L 106.832909 132.052842 
L 108.276 131.394372 
L 109.719091 130.729582 
L 111.162182 130.058422 
L 112.605273 129.381671 
L 114.048364 128.700873 
L 115.491455 128.018018 
L 116.934545 127.335297 
L 118.377636 126.654932 
L 119.820727 125.978948 
L 121.263818 125.309073 
L 122.706909 124.646871 
L 124.15 123.993955 
L 125.593091 123.352086 
L 127.036182 122.723157 
L 128.479273 122.109164 
L 129.922364 121.512205 
L 131.365455 120.934511 
L 132.808545 120.378436 
L 134.251636 119.846359 
L 135.694727 119.340501 
L 137.137818 118.862677 
L 138.580909 118.414042 
L 140.024 117.995065 
L 141.467091 117.605853 
L 142.910182 117.246536 
L 144.353273 116.917208 
L 145.796364 116.617244 
L 147.239455 116.344653 
L 148.682545 116.096504 
L 150.125636 115.870407 
L 151.568727 115.665763 
L 153.011818 115.483544 
L 154.454909 115.324524 
L 155.898 115.187373 
L 157.341091 115.06847 
L 158.784182 114.9636 
L 160.227273 114.869791 
L 161.670364 114.785991 
L 163.113455 114.712741 
L 164.556545 114.651622 
L 165.999636 114.604898 
L 167.442727 114.575445 
L 168.885818 114.566885 
L 170.328909 114.583814 
L 171.772 114.632002 
L 173.215091 114.718463 
L 174.658182 114.851285 
L 176.101273 115.039236 
L 177.544364 115.291216 
L 178.987455 115.61573 
L 180.430545 116.02053 
L 181.873636 116.512453 
L 183.316727 117.09739 
L 184.759818 117.78029 
L 186.202909 118.565151 
L 187.646 119.454999 
L 189.089091 120.451939 
L 190.532182 121.557289 
L 191.975273 122.771836 
L 193.418364 124.096108 
L 194.861455 125.530615 
L 196.304545 127.075915 
" style="fill:none;opacity:0.45;stroke:#001c7f;stroke-dasharray:2.775,1.2;stroke-dashoffset:0;stroke-width:0.75;"/>
   </g>
   <g id="line2d_15">
    <path clip-path="url(#pc2632254d6)" d="M 51.995455 77.450592 
L 53.438545 77.573076 
L 54.881636 77.724319 
L 56.324727 77.911489 
L 57.767818 78.143178 
L 59.210909 78.429598 
L 60.654 78.782736 
L 62.097091 79.216417 
L 63.540182 79.746214 
L 64.983273 80.389113 
L 66.426364 81.162822 
L 67.869455 82.084632 
L 69.312545 83.169743 
L 70.755636 84.429068 
L 72.198727 85.866667 
L 73.641818 87.477177 
L 75.084909 89.243771 
L 76.528 91.137331 
L 77.971091 93.11738 
L 79.414182 95.135011 
L 80.857273 97.137481 
L 82.300364 99.073602 
L 83.743455 100.898814 
L 85.186545 102.578892 
L 86.629636 104.091743 
L 88.072727 105.427277 
L 89.515818 106.585802 
L 90.958909 107.575604 
L 92.402 108.410323 
L 93.845091 109.106566 
L 95.288182 109.682005 
L 96.731273 110.154006 
L 98.174364 110.538759 
L 99.617455 110.850803 
L 101.060545 111.102837 
L 102.503636 111.305726 
L 103.946727 111.468616 
L 105.389818 111.59911 
L 106.832909 111.703472 
L 108.276 111.786819 
L 109.719091 111.85331 
L 111.162182 111.906308 
L 112.605273 111.948521 
L 114.048364 111.982125 
L 115.491455 112.008864 
L 116.934545 112.030134 
L 118.377636 112.047048 
L 119.820727 112.060496 
L 121.263818 112.071187 
L 122.706909 112.079686 
L 124.15 112.086441 
L 125.593091 112.091812 
L 127.036182 112.096082 
L 128.479273 112.099479 
L 129.922364 112.102183 
L 131.365455 112.104338 
L 132.808545 112.106058 
L 134.251636 112.107434 
L 135.694727 112.108541 
L 137.137818 112.109437 
L 138.580909 112.110169 
L 140.024 112.110776 
L 141.467091 112.111292 
L 142.910182 112.111742 
L 144.353273 112.112152 
L 145.796364 112.112543 
L 147.239455 112.112936 
L 148.682545 112.113352 
L 150.125636 112.113813 
L 151.568727 112.114343 
L 153.011818 112.114971 
L 154.454909 112.11573 
L 155.898 112.116661 
L 157.341091 112.117813 
L 158.784182 112.119248 
L 160.227273 112.121041 
L 161.670364 112.123288 
L 163.113455 112.126109 
L 164.556545 112.129653 
L 165.999636 112.134109 
L 167.442727 112.139713 
L 168.885818 112.146763 
L 170.328909 112.155631 
L 171.772 112.166787 
L 173.215091 112.18082 
L 174.658182 112.19847 
L 176.101273 112.220663 
L 177.544364 112.248562 
L 178.987455 112.28362 
L 180.430545 112.327656 
L 181.873636 112.382936 
L 183.316727 112.452281 
L 184.759818 112.539189 
L 186.202909 112.647983 
L 187.646 112.78398 
L 189.089091 112.953676 
L 190.532182 113.164948 
L 191.975273 113.427247 
L 193.418364 113.751773 
L 194.861455 114.151569 
L 196.304545 114.641503 
" style="fill:none;opacity:0.9;stroke:#b1400d;stroke-linecap:round;stroke-width:1.5;"/>
   </g>
   <g id="line2d_16">
    <path clip-path="url(#pc2632254d6)" d="M 51.995455 77.450262 
L 53.438545 77.564037 
L 54.881636 77.706213 
L 56.324727 77.883546 
L 57.767818 78.104213 
L 59.210909 78.378003 
L 60.654 78.71648 
L 62.097091 79.133058 
L 63.540182 79.642951 
L 64.983273 80.262877 
L 66.426364 81.010448 
L 67.869455 81.903116 
L 69.312545 82.956599 
L 70.755636 84.182773 
L 72.198727 85.58716 
L 73.641818 87.166314 
L 75.084909 88.905635 
L 76.528 90.778268 
L 77.971091 92.745677 
L 79.414182 94.76021 
L 80.857273 96.769434 
L 82.300364 98.721461 
L 83.743455 100.570165 
L 85.186545 102.279205 
L 86.629636 103.824191 
L 88.072727 105.192888 
L 89.515818 106.383841 
L 90.958909 107.404054 
L 92.402 108.266363 
L 93.845091 108.986984 
L 95.288182 109.583511 
L 96.731273 110.073445 
L 98.174364 110.473241 
L 99.617455 110.797766 
L 101.060545 111.060066 
L 102.503636 111.271337 
L 103.946727 111.441033 
L 105.389818 111.57703 
L 106.832909 111.685824 
L 108.276 111.772731 
L 109.719091 111.842075 
L 111.162182 111.897355 
L 112.605273 111.94139 
L 114.048364 111.976447 
L 115.491455 112.004345 
L 116.934545 112.026536 
L 118.377636 112.044184 
L 119.820727 112.058214 
L 121.263818 112.069367 
L 122.706909 112.078231 
L 124.15 112.085275 
L 125.593091 112.090873 
L 127.036182 112.09532 
L 128.479273 112.098854 
L 129.922364 112.101661 
L 131.365455 112.103891 
L 132.808545 112.105663 
L 134.251636 112.10707 
L 135.694727 112.108188 
L 137.137818 112.109077 
L 138.580909 112.109782 
L 140.024 112.110342 
L 141.467091 112.110788 
L 142.910182 112.111141 
L 144.353273 112.111422 
L 145.796364 112.111645 
L 147.239455 112.111823 
L 148.682545 112.111963 
L 150.125636 112.112075 
L 151.568727 112.112164 
L 153.011818 112.112235 
L 154.454909 112.112291 
L 155.898 112.112335 
L 157.341091 112.112371 
L 158.784182 112.112399 
L 160.227273 112.112421 
L 161.670364 112.112439 
L 163.113455 112.112453 
L 164.556545 112.112464 
L 165.999636 112.112473 
L 167.442727 112.11248 
L 168.885818 112.112486 
L 170.328909 112.11249 
L 171.772 112.112493 
L 173.215091 112.112496 
L 174.658182 112.112499 
L 176.101273 112.1125 
L 177.544364 112.112502 
L 178.987455 112.112503 
L 180.430545 112.112504 
L 181.873636 112.112504 
L 183.316727 112.112505 
L 184.759818 112.112505 
L 186.202909 112.112506 
L 187.646 112.112506 
L 189.089091 112.112506 
L 190.532182 112.112506 
L 191.975273 112.112507 
L 193.418364 112.112507 
L 194.861455 112.112507 
L 196.304545 112.112507 
" style="fill:none;opacity:0.7;stroke:#000000;stroke-linecap:round;stroke-width:1.5;"/>
   </g>
   <g id="line2d_17">
    <path clip-path="url(#pc2632254d6)" d="M 51.995455 55.212204 
L 53.438545 54.806739 
L 54.881636 54.437374 
L 56.324727 54.114593 
L 57.767818 53.850328 
L 59.210909 53.658219 
L 60.654 53.553805 
L 62.097091 53.554591 
L 63.540182 53.679907 
L 64.983273 53.95049 
L 66.426364 54.387692 
L 67.869455 55.012233 
L 69.312545 55.842463 
L 70.755636 56.892136 
L 72.198727 58.167852 
L 73.641818 59.666519 
L 75.084909 61.373344 
L 76.528 63.261012 
L 77.971091 65.290603 
L 79.414182 67.41448 
L 80.857273 69.580814 
L 82.300364 71.738936 
L 83.743455 73.844363 
L 85.186545 75.862515 
L 86.629636 77.770523 
L 88.072727 79.557133 
L 89.515818 81.221137 
L 90.958909 82.768986 
L 92.402 84.212204 
L 93.845091 85.565056 
L 95.288182 86.842704 
L 96.731273 88.059904 
L 98.174364 89.230191 
L 99.617455 90.365426 
L 101.060545 91.475594 
L 102.503636 92.568734 
L 103.946727 93.650941 
L 105.389818 94.726383 
L 106.832909 95.79731 
L 108.276 96.864055 
L 109.719091 97.925006 
L 111.162182 98.976526 
L 112.605273 100.012775 
L 114.048364 101.025392 
L 115.491455 102.002981 
L 116.934545 102.930405 
L 118.377636 103.787989 
L 119.820727 104.550983 
L 121.263818 105.190097 
L 122.706909 105.674493 
L 124.15 105.978447 
L 125.593091 106.090535 
L 127.036182 106.020185 
L 128.479273 105.796103 
L 129.922364 105.457347 
L 131.365455 105.043403 
L 132.808545 104.588027 
L 134.251636 104.117249 
L 135.694727 103.649797 
L 137.137818 103.198421 
L 138.580909 102.771304 
L 140.024 102.373271 
L 141.467091 102.006746 
L 142.910182 101.672465 
L 144.353273 101.370003 
L 145.796364 101.098143 
L 147.239455 100.855134 
L 148.682545 100.638872 
L 150.125636 100.447034 
L 151.568727 100.277171 
L 153.011818 100.126783 
L 154.454909 99.99336 
L 155.898 99.874397 
L 157.341091 99.76738 
L 158.784182 99.669759 
L 160.227273 99.578897 
L 161.670364 99.49204 
L 163.113455 99.406276 
L 164.556545 99.318529 
L 165.999636 99.22556 
L 167.442727 99.123983 
L 168.885818 99.010291 
L 170.328909 98.880887 
L 171.772 98.732127 
L 173.215091 98.560378 
L 174.658182 98.362122 
L 176.101273 98.13409 
L 177.544364 97.873451 
L 178.987455 97.57802 
L 180.430545 97.246512 
L 181.873636 96.878811 
L 183.316727 96.476275 
L 184.759818 96.042058 
L 186.202909 95.581436 
L 187.646 95.102118 
L 189.089091 94.614511 
L 190.532182 94.131922 
L 191.975273 93.670696 
L 193.418364 93.250278 
L 194.861455 92.89316 
L 196.304545 92.624685 
" style="fill:none;opacity:0.45;stroke:#b1400d;stroke-dasharray:2.775,1.2;stroke-dashoffset:0;stroke-width:0.75;"/>
   </g>
   <g id="line2d_18">
    <path clip-path="url(#pc2632254d6)" d="M 51.995455 99.688981 
L 53.438545 100.339414 
L 54.881636 101.011264 
L 56.324727 101.708384 
L 57.767818 102.436027 
L 59.210909 103.200977 
L 60.654 104.011667 
L 62.097091 104.878243 
L 63.540182 105.812522 
L 64.983273 106.827735 
L 66.426364 107.937951 
L 67.869455 109.157031 
L 69.312545 110.497023 
L 70.755636 111.966 
L 72.198727 113.565482 
L 73.641818 115.287834 
L 75.084909 117.114198 
L 76.528 119.01365 
L 77.971091 120.944156 
L 79.414182 122.855543 
L 80.857273 124.694147 
L 82.300364 126.408269 
L 83.743455 127.953265 
L 85.186545 129.295269 
L 86.629636 130.412963 
L 88.072727 131.297421 
L 89.515818 131.950467 
L 90.958909 132.382222 
L 92.402 132.608442 
L 93.845091 132.648076 
L 95.288182 132.521306 
L 96.731273 132.248108 
L 98.174364 131.847327 
L 99.617455 131.336179 
L 101.060545 130.730081 
L 102.503636 130.042719 
L 103.946727 129.28629 
L 105.389818 128.471837 
L 106.832909 127.609633 
L 108.276 126.709583 
L 109.719091 125.781615 
L 111.162182 124.83609 
L 112.605273 123.884267 
L 114.048364 122.938858 
L 115.491455 122.014747 
L 116.934545 121.129863 
L 118.377636 120.306107 
L 119.820727 119.570009 
L 121.263818 118.952277 
L 122.706909 118.484878 
L 124.15 118.194435 
L 125.593091 118.093088 
L 127.036182 118.171979 
L 128.479273 118.402855 
L 129.922364 118.747019 
L 131.365455 119.165273 
L 132.808545 119.624088 
L 134.251636 120.09762 
L 135.694727 120.567285 
L 137.137818 121.020452 
L 138.580909 121.449033 
L 140.024 121.848281 
L 141.467091 122.215837 
L 142.910182 122.55102 
L 144.353273 122.854302 
L 145.796364 123.126944 
L 147.239455 123.370739 
L 148.682545 123.587832 
L 150.125636 123.780591 
L 151.568727 123.951515 
L 153.011818 124.103159 
L 154.454909 124.238101 
L 155.898 124.358926 
L 157.341091 124.468246 
L 158.784182 124.568736 
L 160.227273 124.663184 
L 161.670364 124.754536 
L 163.113455 124.845941 
L 164.556545 124.940777 
L 165.999636 125.042658 
L 167.442727 125.155443 
L 168.885818 125.283234 
L 170.328909 125.430374 
L 171.772 125.601447 
L 173.215091 125.801262 
L 174.658182 126.034818 
L 176.101273 126.307235 
L 177.544364 126.623673 
L 178.987455 126.989221 
L 180.430545 127.408801 
L 181.873636 127.887061 
L 183.316727 128.428286 
L 184.759818 129.036319 
L 186.202909 129.71453 
L 187.646 130.465842 
L 189.089091 131.292842 
L 190.532182 132.197974 
L 191.975273 133.183799 
L 193.418364 134.253267 
L 194.861455 135.409978 
L 196.304545 136.658322 
" style="fill:none;opacity:0.45;stroke:#b1400d;stroke-dasharray:2.775,1.2;stroke-dashoffset:0;stroke-width:0.75;"/>
   </g>
   <g id="line2d_19">
    <path clip-path="url(#pc2632254d6)" d="M 51.995455 70.496809 
L 53.438545 71.815222 
L 54.881636 72.992244 
L 56.324727 74.047564 
L 57.767818 75.005817 
L 59.210909 75.894744 
L 60.654 76.743853 
L 62.097091 77.58349 
L 63.540182 78.444184 
L 64.983273 79.356052 
L 66.426364 80.348056 
L 67.869455 81.446943 
L 69.312545 82.675712 
L 70.755636 84.051594 
L 72.198727 85.583683 
L 73.641818 87.270555 
L 75.084909 89.098434 
L 76.528 91.040571 
L 77.971091 93.058378 
L 79.414182 95.104535 
L 80.857273 97.127722 
L 82.300364 99.078093 
L 83.743455 100.912365 
L 85.186545 102.59751 
L 86.629636 104.112511 
L 88.072727 105.448192 
L 89.515818 106.605595 
L 90.958909 107.593564 
L 92.402 108.426132 
L 93.845091 109.120172 
L 95.288182 109.693514 
L 96.731273 110.163612 
L 98.174364 110.546694 
L 99.617455 110.857304 
L 101.060545 111.10813 
L 102.503636 111.310013 
L 103.946727 111.472074 
L 105.389818 111.60189 
L 106.832909 111.705702 
L 108.276 111.788604 
L 109.719091 111.854737 
L 111.162182 111.907447 
L 112.605273 111.949429 
L 114.048364 111.982849 
L 115.491455 112.00944 
L 116.934545 112.030592 
L 118.377636 112.047413 
L 119.820727 112.060786 
L 121.263818 112.071418 
L 122.706909 112.079869 
L 124.15 112.086587 
L 125.593091 112.091928 
L 127.036182 112.096174 
L 128.479273 112.099553 
L 129.922364 112.102242 
L 131.365455 112.104384 
L 132.808545 112.106095 
L 134.251636 112.107464 
L 135.694727 112.108565 
L 137.137818 112.109456 
L 138.580909 112.110185 
L 140.024 112.11079 
L 141.467091 112.111304 
L 142.910182 112.111753 
L 144.353273 112.112163 
L 145.796364 112.112554 
L 147.239455 112.112947 
L 148.682545 112.113364 
L 150.125636 112.113827 
L 151.568727 112.11436 
L 153.011818 112.114992 
L 154.454909 112.115756 
L 155.898 112.116693 
L 157.341091 112.117853 
L 158.784182 112.119298 
L 160.227273 112.121105 
L 161.670364 112.12337 
L 163.113455 112.126214 
L 164.556545 112.129789 
L 165.999636 112.134286 
L 167.442727 112.139945 
L 168.885818 112.147068 
L 170.328909 112.156037 
L 171.772 112.167333 
L 173.215091 112.181563 
L 174.658182 112.199492 
L 176.101273 112.222087 
L 177.544364 112.250572 
L 178.987455 112.286496 
L 180.430545 112.33182 
L 181.873636 112.389036 
L 183.316727 112.461312 
L 184.759818 112.552687 
L 186.202909 112.668321 
L 187.646 112.814826 
L 189.089091 113.000701 
L 190.532182 113.236905 
L 191.975273 113.537608 
L 193.418364 113.921166 
L 194.861455 114.411384 
L 196.304545 115.039068 
" style="fill:none;opacity:0.9;stroke:#12711c;stroke-linecap:round;stroke-width:1.5;"/>
   </g>
   <g id="line2d_20">
    <path clip-path="url(#pc2632254d6)" d="M 51.995455 77.450262 
L 53.438545 77.564037 
L 54.881636 77.706213 
L 56.324727 77.883546 
L 57.767818 78.104213 
L 59.210909 78.378003 
L 60.654 78.71648 
L 62.097091 79.133058 
L 63.540182 79.642951 
L 64.983273 80.262877 
L 66.426364 81.010448 
L 67.869455 81.903116 
L 69.312545 82.956599 
L 70.755636 84.182773 
L 72.198727 85.58716 
L 73.641818 87.166314 
L 75.084909 88.905635 
L 76.528 90.778268 
L 77.971091 92.745677 
L 79.414182 94.76021 
L 80.857273 96.769434 
L 82.300364 98.721461 
L 83.743455 100.570165 
L 85.186545 102.279205 
L 86.629636 103.824191 
L 88.072727 105.192888 
L 89.515818 106.383841 
L 90.958909 107.404054 
L 92.402 108.266363 
L 93.845091 108.986984 
L 95.288182 109.583511 
L 96.731273 110.073445 
L 98.174364 110.473241 
L 99.617455 110.797766 
L 101.060545 111.060066 
L 102.503636 111.271337 
L 103.946727 111.441033 
L 105.389818 111.57703 
L 106.832909 111.685824 
L 108.276 111.772731 
L 109.719091 111.842075 
L 111.162182 111.897355 
L 112.605273 111.94139 
L 114.048364 111.976447 
L 115.491455 112.004345 
L 116.934545 112.026536 
L 118.377636 112.044184 
L 119.820727 112.058214 
L 121.263818 112.069367 
L 122.706909 112.078231 
L 124.15 112.085275 
L 125.593091 112.090873 
L 127.036182 112.09532 
L 128.479273 112.098854 
L 129.922364 112.101661 
L 131.365455 112.103891 
L 132.808545 112.105663 
L 134.251636 112.10707 
L 135.694727 112.108188 
L 137.137818 112.109077 
L 138.580909 112.109782 
L 140.024 112.110342 
L 141.467091 112.110788 
L 142.910182 112.111141 
L 144.353273 112.111422 
L 145.796364 112.111645 
L 147.239455 112.111823 
L 148.682545 112.111963 
L 150.125636 112.112075 
L 151.568727 112.112164 
L 153.011818 112.112235 
L 154.454909 112.112291 
L 155.898 112.112335 
L 157.341091 112.112371 
L 158.784182 112.112399 
L 160.227273 112.112421 
L 161.670364 112.112439 
L 163.113455 112.112453 
L 164.556545 112.112464 
L 165.999636 112.112473 
L 167.442727 112.11248 
L 168.885818 112.112486 
L 170.328909 112.11249 
L 171.772 112.112493 
L 173.215091 112.112496 
L 174.658182 112.112499 
L 176.101273 112.1125 
L 177.544364 112.112502 
L 178.987455 112.112503 
L 180.430545 112.112504 
L 181.873636 112.112504 
L 183.316727 112.112505 
L 184.759818 112.112505 
L 186.202909 112.112506 
L 187.646 112.112506 
L 189.089091 112.112506 
L 190.532182 112.112506 
L 191.975273 112.112507 
L 193.418364 112.112507 
L 194.861455 112.112507 
L 196.304545 112.112507 
" style="fill:none;opacity:0.7;stroke:#000000;stroke-linecap:round;stroke-width:1.5;"/>
   </g>
   <g id="line2d_21">
    <path clip-path="url(#pc2632254d6)" d="M 51.995455 32.281818 
L 53.438545 33.523326 
L 54.881636 34.654742 
L 56.324727 35.697429 
L 57.767818 36.67731 
L 59.210909 37.622978 
L 60.654 38.564489 
L 62.097091 39.532602 
L 63.540182 40.558194 
L 64.983273 41.67162 
L 66.426364 42.901862 
L 67.869455 44.275377 
L 69.312545 45.814568 
L 70.755636 47.535846 
L 72.198727 49.447389 
L 73.641818 51.546889 
L 75.084909 53.819791 
L 76.528 56.238702 
L 77.971091 58.764561 
L 79.414182 61.349798 
L 80.857273 63.943109 
L 82.300364 66.494897 
L 83.743455 68.962238 
L 85.186545 71.312394 
L 86.629636 73.524404 
L 88.072727 75.588787 
L 89.515818 77.505842 
L 90.958909 79.283233 
L 92.402 80.933484 
L 93.845091 82.471843 
L 95.288182 83.914694 
L 96.731273 85.278488 
L 98.174364 86.579035 
L 99.617455 87.831001 
L 101.060545 89.047494 
L 102.503636 90.239702 
L 103.946727 91.416586 
L 105.389818 92.584629 
L 106.832909 93.747711 
L 108.276 94.907115 
L 109.719091 96.06164 
L 111.162182 97.207689 
L 112.605273 98.339199 
L 114.048364 99.447308 
L 115.491455 100.519714 
L 116.934545 101.539725 
L 118.377636 102.48516 
L 119.820727 103.327552 
L 121.263818 104.03266 
L 122.706909 104.563893 
L 124.15 104.89003 
L 125.593091 104.995898 
L 127.036182 104.890155 
L 128.479273 104.60387 
L 129.922364 104.180603 
L 131.365455 103.665062 
L 132.808545 103.095871 
L 134.251636 102.50306 
L 135.694727 101.908421 
L 137.137818 101.326983 
L 138.580909 100.768642 
L 140.024 100.239573 
L 141.467091 99.743335 
L 142.910182 99.281666 
L 144.353273 98.855048 
L 145.796364 98.463077 
L 147.239455 98.104722 
L 148.682545 97.778511 
L 150.125636 97.482664 
L 151.568727 97.215219 
L 153.011818 96.974125 
L 154.454909 96.757319 
L 155.898 96.562786 
L 157.341091 96.388593 
L 158.784182 96.232903 
L 160.227273 96.093984 
L 161.670364 95.970203 
L 163.113455 95.860006 
L 164.556545 95.761897 
L 165.999636 95.674394 
L 167.442727 95.595974 
L 168.885818 95.525005 
L 170.328909 95.459654 
L 171.772 95.397777 
L 173.215091 95.336792 
L 174.658182 95.273524 
L 176.101273 95.204038 
L 177.544364 95.123477 
L 178.987455 95.02594 
L 180.430545 94.904428 
L 181.873636 94.750943 
L 183.316727 94.556771 
L 184.759818 94.31304 
L 186.202909 94.011571 
L 187.646 93.646073 
L 189.089091 93.213664 
L 190.532182 92.716677 
L 191.975273 92.164648 
L 193.418364 91.576379 
L 194.861455 90.98197 
L 196.304545 90.424782 
" style="fill:none;opacity:0.45;stroke:#12711c;stroke-dasharray:2.775,1.2;stroke-dashoffset:0;stroke-width:0.75;"/>
   </g>
   <g id="line2d_22">
    <path clip-path="url(#pc2632254d6)" d="M 51.995455 108.7118 
L 53.438545 110.107118 
L 54.881636 111.329746 
L 56.324727 112.397698 
L 57.767818 113.334323 
L 59.210909 114.166511 
L 60.654 114.923217 
L 62.097091 115.634379 
L 63.540182 116.330175 
L 64.983273 117.040483 
L 66.426364 117.794249 
L 67.869455 118.618509 
L 69.312545 119.536856 
L 70.755636 120.567343 
L 72.198727 121.719977 
L 73.641818 122.994221 
L 75.084909 124.377078 
L 76.528 125.842441 
L 77.971091 127.352195 
L 79.414182 128.859272 
L 80.857273 130.312336 
L 82.300364 131.66129 
L 83.743455 132.862492 
L 85.186545 133.882627 
L 86.629636 134.700619 
L 88.072727 135.307597 
L 89.515818 135.705347 
L 90.958909 135.903894 
L 92.402 135.918781 
L 93.845091 135.768501 
L 95.288182 135.472334 
L 96.731273 135.048737 
L 98.174364 134.514353 
L 99.617455 133.883607 
L 101.060545 133.168766 
L 102.503636 132.380324 
L 103.946727 131.527561 
L 105.389818 130.619152 
L 106.832909 129.663693 
L 108.276 128.670094 
L 109.719091 127.647835 
L 111.162182 126.607205 
L 112.605273 125.559659 
L 114.048364 124.518389 
L 115.491455 123.499167 
L 116.934545 122.521459 
L 118.377636 121.609666 
L 119.820727 120.794021 
L 121.263818 120.110176 
L 122.706909 119.595845 
L 124.15 119.283144 
L 125.593091 119.187958 
L 127.036182 119.302194 
L 128.479273 119.595235 
L 129.922364 120.023881 
L 131.365455 120.543707 
L 132.808545 121.116319 
L 134.251636 121.711869 
L 135.694727 122.30871 
L 137.137818 122.89193 
L 138.580909 123.451729 
L 140.024 123.982007 
L 141.467091 124.479273 
L 142.910182 124.94184 
L 144.353273 125.369277 
L 145.796364 125.762031 
L 147.239455 126.121172 
L 148.682545 126.448218 
L 150.125636 126.74499 
L 151.568727 127.013501 
L 153.011818 127.255859 
L 154.454909 127.474193 
L 155.898 127.6706 
L 157.341091 127.847114 
L 158.784182 128.005694 
L 160.227273 128.148226 
L 161.670364 128.276538 
L 163.113455 128.392423 
L 164.556545 128.497682 
L 165.999636 128.594178 
L 167.442727 128.683915 
L 168.885818 128.76913 
L 170.328909 128.852421 
L 171.772 128.93689 
L 173.215091 129.026334 
L 174.658182 129.125459 
L 176.101273 129.240136 
L 177.544364 129.377667 
L 178.987455 129.547052 
L 180.430545 129.759212 
L 181.873636 130.02713 
L 183.316727 130.365853 
L 184.759818 130.792334 
L 186.202909 131.32507 
L 187.646 131.983578 
L 189.089091 132.787738 
L 190.532182 133.757134 
L 191.975273 134.910567 
L 193.418364 136.265952 
L 194.861455 137.840798 
L 196.304545 139.653353 
" style="fill:none;opacity:0.45;stroke:#12711c;stroke-dasharray:2.775,1.2;stroke-dashoffset:0;stroke-width:0.75;"/>
   </g>
   <g id="line2d_23">
    <path clip-path="url(#pc2632254d6)" d="M 51.995455 77.003942 
L 53.438545 77.004061 
L 54.881636 77.004198 
L 56.324727 77.00436 
L 57.767818 77.004556 
L 59.210909 77.004796 
L 60.654 77.005092 
L 62.097091 77.005462 
L 63.540182 77.005924 
L 64.983273 77.006503 
L 66.426364 77.00723 
L 67.869455 77.008144 
L 69.312545 77.009293 
L 70.755636 77.010738 
L 72.198727 77.012556 
L 73.641818 77.014844 
L 75.084909 77.017723 
L 76.528 77.021347 
L 77.971091 77.025908 
L 79.414182 77.031648 
L 80.857273 77.038872 
L 82.300364 77.047961 
L 83.743455 77.059397 
L 85.186545 77.073783 
L 86.629636 77.091877 
L 88.072727 77.11463 
L 89.515818 77.143232 
L 90.958909 77.179173 
L 92.402 77.224315 
L 93.845091 77.280981 
L 95.288182 77.352057 
L 96.731273 77.441125 
L 98.174364 77.552608 
L 99.617455 77.691942 
L 101.060545 77.865764 
L 102.503636 78.082113 
L 103.946727 78.350624 
L 105.389818 78.682695 
L 106.832909 79.091573 
L 108.276 79.592317 
L 109.719091 80.201529 
L 111.162182 80.936778 
L 112.605273 81.815591 
L 114.048364 82.853928 
L 115.491455 84.064119 
L 116.934545 85.452382 
L 118.377636 87.016197 
L 119.820727 88.742058 
L 121.263818 90.604246 
L 122.706909 92.565227 
L 124.15 94.578043 
L 125.593091 96.590507 
L 127.036182 98.550486 
L 128.479273 100.411174 
L 129.922364 102.135264 
L 131.365455 103.697299 
L 132.808545 105.084048 
L 134.251636 106.293252 
L 135.694727 107.331371 
L 137.137818 108.210963 
L 138.580909 108.948217 
L 140.024 109.560902 
L 141.467091 110.066871 
L 142.910182 110.483074 
L 144.353273 110.825004 
L 145.796364 111.106461 
L 147.239455 111.339547 
L 148.682545 111.534788 
L 150.125636 111.701356 
L 151.568727 111.847312 
L 153.011818 111.979883 
L 154.454909 112.105732 
L 155.898 112.231237 
L 157.341091 112.362761 
L 158.784182 112.506924 
L 160.227273 112.670877 
L 161.670364 112.862579 
L 163.113455 113.091065 
L 164.556545 113.366706 
L 165.999636 113.701422 
L 167.442727 114.108828 
L 168.885818 114.604238 
L 170.328909 115.204463 
L 171.772 115.927298 
L 173.215091 116.790585 
L 174.658182 117.810772 
L 176.101273 119.000929 
L 177.544364 120.368303 
L 178.987455 121.911708 
L 180.430545 123.619187 
L 181.873636 125.46663 
L 183.316727 127.41794 
L 184.759818 129.42717 
L 186.202909 131.442523 
L 187.646 133.411551 
L 189.089091 135.286495 
L 190.532182 137.028649 
L 191.975273 138.610952 
L 193.418364 140.018606 
L 194.861455 141.247993 
L 196.304545 142.304507 
" style="fill:none;opacity:0.9;stroke:#8c0800;stroke-linecap:round;stroke-width:1.5;"/>
   </g>
   <g id="line2d_24">
    <path clip-path="url(#pc2632254d6)" d="M 51.995455 77.450262 
L 53.438545 77.564037 
L 54.881636 77.706213 
L 56.324727 77.883546 
L 57.767818 78.104213 
L 59.210909 78.378003 
L 60.654 78.71648 
L 62.097091 79.133058 
L 63.540182 79.642951 
L 64.983273 80.262877 
L 66.426364 81.010448 
L 67.869455 81.903116 
L 69.312545 82.956599 
L 70.755636 84.182773 
L 72.198727 85.58716 
L 73.641818 87.166314 
L 75.084909 88.905635 
L 76.528 90.778268 
L 77.971091 92.745677 
L 79.414182 94.76021 
L 80.857273 96.769434 
L 82.300364 98.721461 
L 83.743455 100.570165 
L 85.186545 102.279205 
L 86.629636 103.824191 
L 88.072727 105.192888 
L 89.515818 106.383841 
L 90.958909 107.404054 
L 92.402 108.266363 
L 93.845091 108.986984 
L 95.288182 109.583511 
L 96.731273 110.073445 
L 98.174364 110.473241 
L 99.617455 110.797766 
L 101.060545 111.060066 
L 102.503636 111.271337 
L 103.946727 111.441033 
L 105.389818 111.57703 
L 106.832909 111.685824 
L 108.276 111.772731 
L 109.719091 111.842075 
L 111.162182 111.897355 
L 112.605273 111.94139 
L 114.048364 111.976447 
L 115.491455 112.004345 
L 116.934545 112.026536 
L 118.377636 112.044184 
L 119.820727 112.058214 
L 121.263818 112.069367 
L 122.706909 112.078231 
L 124.15 112.085275 
L 125.593091 112.090873 
L 127.036182 112.09532 
L 128.479273 112.098854 
L 129.922364 112.101661 
L 131.365455 112.103891 
L 132.808545 112.105663 
L 134.251636 112.10707 
L 135.694727 112.108188 
L 137.137818 112.109077 
L 138.580909 112.109782 
L 140.024 112.110342 
L 141.467091 112.110788 
L 142.910182 112.111141 
L 144.353273 112.111422 
L 145.796364 112.111645 
L 147.239455 112.111823 
L 148.682545 112.111963 
L 150.125636 112.112075 
L 151.568727 112.112164 
L 153.011818 112.112235 
L 154.454909 112.112291 
L 155.898 112.112335 
L 157.341091 112.112371 
L 158.784182 112.112399 
L 160.227273 112.112421 
L 161.670364 112.112439 
L 163.113455 112.112453 
L 164.556545 112.112464 
L 165.999636 112.112473 
L 167.442727 112.11248 
L 168.885818 112.112486 
L 170.328909 112.11249 
L 171.772 112.112493 
L 173.215091 112.112496 
L 174.658182 112.112499 
L 176.101273 112.1125 
L 177.544364 112.112502 
L 178.987455 112.112503 
L 180.430545 112.112504 
L 181.873636 112.112504 
L 183.316727 112.112505 
L 184.759818 112.112505 
L 186.202909 112.112506 
L 187.646 112.112506 
L 189.089091 112.112506 
L 190.532182 112.112506 
L 191.975273 112.112507 
L 193.418364 112.112507 
L 194.861455 112.112507 
L 196.304545 112.112507 
" style="fill:none;opacity:0.7;stroke:#000000;stroke-linecap:round;stroke-width:1.5;"/>
   </g>
   <g id="line2d_25">
    <path clip-path="url(#pc2632254d6)" d="M 51.995455 64.712806 
L 53.438545 64.310349 
L 54.881636 63.890042 
L 56.324727 63.455965 
L 57.767818 63.01121 
L 59.210909 62.558051 
L 60.654 62.098153 
L 62.097091 61.632779 
L 63.540182 61.162926 
L 64.983273 60.689405 
L 66.426364 60.212874 
L 67.869455 59.733868 
L 69.312545 59.252837 
L 70.755636 58.770209 
L 72.198727 58.28647 
L 73.641818 57.802229 
L 75.084909 57.318263 
L 76.528 56.835509 
L 77.971091 56.355037 
L 79.414182 55.878001 
L 80.857273 55.405617 
L 82.300364 54.939163 
L 83.743455 54.48001 
L 85.186545 54.029664 
L 86.629636 53.589797 
L 88.072727 53.16228 
L 89.515818 52.749208 
L 90.958909 52.352943 
L 92.402 51.976181 
L 93.845091 51.622044 
L 95.288182 51.294206 
L 96.731273 50.997036 
L 98.174364 50.735768 
L 99.617455 50.516686 
L 101.060545 50.34733 
L 102.503636 50.236705 
L 103.946727 50.195487 
L 105.389818 50.236181 
L 106.832909 50.373214 
L 108.276 50.622897 
L 109.719091 51.00318 
L 111.162182 51.533068 
L 112.605273 52.23159 
L 114.048364 53.116216 
L 115.491455 54.200744 
L 116.934545 55.492752 
L 118.377636 56.990948 
L 119.820727 58.682907 
L 121.263818 60.543865 
L 122.706909 62.53719 
L 124.15 64.616854 
L 125.593091 66.731705 
L 127.036182 68.83079 
L 128.479273 70.868629 
L 129.922364 72.809333 
L 131.365455 74.628863 
L 132.808545 76.315273 
L 134.251636 77.867259 
L 135.694727 79.291549 
L 137.137818 80.599841 
L 138.580909 81.806033 
L 140.024 82.924281 
L 141.467091 83.968028 
L 142.910182 84.949791 
L 144.353273 85.881075 
L 145.796364 86.771676 
L 147.239455 87.628013 
L 148.682545 88.451002 
L 150.125636 89.234899 
L 151.568727 89.968417 
L 153.011818 90.637695 
L 154.454909 91.229377 
L 155.898 91.732519 
L 157.341091 92.139585 
L 158.784182 92.44737 
L 160.227273 92.658107 
L 161.670364 92.780387 
L 163.113455 92.829562 
L 164.556545 92.827375 
L 165.999636 92.800707 
L 167.442727 92.779737 
L 168.885818 92.796241 
L 170.328909 92.882526 
L 171.772 93.070753 
L 173.215091 93.392039 
L 174.658182 93.874929 
L 176.101273 94.543219 
L 177.544364 95.413329 
L 178.987455 96.491752 
L 180.430545 97.773125 
L 181.873636 99.239292 
L 183.316727 100.859654 
L 184.759818 102.593145 
L 186.202909 104.391866 
L 187.646 106.206007 
L 189.089091 107.989228 
L 190.532182 109.703318 
L 191.975273 111.32103 
L 193.418364 112.826758 
L 194.861455 114.215496 
L 196.304545 115.490832 
" style="fill:none;opacity:0.45;stroke:#8c0800;stroke-dasharray:2.775,1.2;stroke-dashoffset:0;stroke-width:0.75;"/>
   </g>
   <g id="line2d_26">
    <path clip-path="url(#pc2632254d6)" d="M 51.995455 89.295077 
L 53.438545 89.697772 
L 54.881636 90.118354 
L 56.324727 90.552755 
L 57.767818 90.997901 
L 59.210909 91.45154 
L 60.654 91.912032 
L 62.097091 92.378146 
L 63.540182 92.848923 
L 64.983273 93.323602 
L 66.426364 93.801587 
L 67.869455 94.28242 
L 69.312545 94.765748 
L 70.755636 95.251266 
L 72.198727 95.738642 
L 73.641818 96.227458 
L 75.084909 96.717184 
L 76.528 97.207186 
L 77.971091 97.69678 
L 79.414182 98.185296 
L 80.857273 98.672127 
L 82.300364 99.156759 
L 83.743455 99.638784 
L 85.186545 100.117902 
L 86.629636 100.593957 
L 88.072727 101.06698 
L 89.515818 101.537256 
L 90.958909 102.005403 
L 92.402 102.47245 
L 93.845091 102.939917 
L 95.288182 103.409908 
L 96.731273 103.885214 
L 98.174364 104.369449 
L 99.617455 104.867199 
L 101.060545 105.384199 
L 102.503636 105.927521 
L 103.946727 106.505762 
L 105.389818 107.129209 
L 106.832909 107.809933 
L 108.276 108.561736 
L 109.719091 109.399877 
L 111.162182 110.340488 
L 112.605273 111.399593 
L 114.048364 112.591639 
L 115.491455 113.927495 
L 116.934545 115.412012 
L 118.377636 117.041445 
L 119.820727 118.801209 
L 121.263818 120.664626 
L 122.706909 122.593263 
L 124.15 124.539232 
L 125.593091 126.44931 
L 127.036182 128.270182 
L 128.479273 129.953719 
L 129.922364 131.461194 
L 131.365455 132.765736 
L 132.808545 133.852823 
L 134.251636 134.719245 
L 135.694727 135.371192 
L 137.137818 135.822086 
L 138.580909 136.0904 
L 140.024 136.197523 
L 141.467091 136.165714 
L 142.910182 136.016357 
L 144.353273 135.768933 
L 145.796364 135.441247 
L 147.239455 135.05108 
L 148.682545 134.618575 
L 150.125636 134.167813 
L 151.568727 133.726208 
L 153.011818 133.32207 
L 154.454909 132.982087 
L 155.898 132.729955 
L 157.341091 132.585938 
L 158.784182 132.566478 
L 160.227273 132.683648 
L 161.670364 132.944771 
L 163.113455 133.352568 
L 164.556545 133.906037 
L 165.999636 134.602138 
L 167.442727 135.437919 
L 168.885818 136.412234 
L 170.328909 137.5264 
L 171.772 138.783842 
L 173.215091 140.189131 
L 174.658182 141.746616 
L 176.101273 143.458638 
L 177.544364 145.323277 
L 178.987455 147.331664 
L 180.430545 149.46525 
L 181.873636 151.693969 
L 183.316727 153.976226 
L 184.759818 156.261195 
L 186.202909 158.49318 
L 187.646 160.617095 
L 189.089091 162.583762 
L 190.532182 164.35398 
L 191.975273 165.900874 
L 193.418364 167.210453 
L 194.861455 168.280491 
L 196.304545 169.118182 
" style="fill:none;opacity:0.45;stroke:#8c0800;stroke-dasharray:2.775,1.2;stroke-dashoffset:0;stroke-width:0.75;"/>
   </g>
   <g id="line2d_27">
    <path clip-path="url(#pc2632254d6)" d="M 51.995455 79.741383 
L 53.438545 80.382039 
L 54.881636 81.153393 
L 56.324727 82.072727 
L 57.767818 83.15526 
L 59.210909 84.411963 
L 60.654 85.846992 
L 62.097091 87.455116 
L 63.540182 89.219663 
L 64.983273 91.11167 
L 66.426364 93.090792 
L 67.869455 95.108205 
L 69.312545 97.111177 
L 70.755636 99.048463 
L 72.198727 100.875381 
L 73.641818 102.557553 
L 75.084909 104.072717 
L 76.528 105.410629 
L 77.971091 106.571473 
L 79.414182 107.563445 
L 80.857273 108.400128 
L 82.300364 109.098105 
L 83.743455 109.675041 
L 85.186545 110.148313 
L 86.629636 110.534133 
L 88.072727 110.847062 
L 89.515818 111.099824 
L 90.958909 111.303308 
L 92.402 111.466681 
L 93.845091 111.597567 
L 95.288182 111.702246 
L 96.731273 111.78585 
L 98.174364 111.852549 
L 99.617455 111.905716 
L 101.060545 111.948068 
L 102.503636 111.981787 
L 103.946727 112.008625 
L 105.389818 112.02998 
L 106.832909 112.046972 
L 108.276 112.060494 
L 109.719091 112.071258 
L 111.162182 112.079834 
L 112.605273 112.086675 
L 114.048364 112.092144 
L 115.491455 112.09653 
L 116.934545 112.100066 
L 118.377636 112.102941 
L 119.820727 112.105307 
L 121.263818 112.107289 
L 122.706909 112.108994 
L 124.15 112.110512 
L 125.593091 112.111924 
L 127.036182 112.113305 
L 128.479273 112.114728 
L 129.922364 112.116269 
L 131.365455 112.118011 
L 132.808545 112.120045 
L 134.251636 112.122481 
L 135.694727 112.125447 
L 137.137818 112.129101 
L 138.580909 112.133638 
L 140.024 112.139298 
L 141.467091 112.146381 
L 142.910182 112.155263 
L 144.353273 112.166413 
L 145.796364 112.18042 
L 147.239455 112.198023 
L 148.682545 112.220146 
L 150.125636 112.247947 
L 151.568727 112.282876 
L 153.011818 112.326744 
L 154.454909 112.381808 
L 155.898 112.450881 
L 157.341091 112.537446 
L 158.784182 112.645811 
L 160.227273 112.781274 
L 161.670364 112.950309 
L 163.113455 113.160765 
L 164.556545 113.422065 
L 165.999636 113.745376 
L 167.442727 114.143709 
L 168.885818 114.6319 
L 170.328909 115.22638 
L 171.772 115.944638 
L 173.215091 116.804277 
L 174.658182 117.821555 
L 176.101273 119.009387 
L 177.544364 120.374905 
L 178.987455 121.916826 
L 180.430545 123.623123 
L 181.873636 125.469626 
L 183.316727 127.420193 
L 184.759818 129.428843 
L 186.202909 131.443746 
L 187.646 133.412432 
L 189.089091 135.28712 
L 190.532182 137.029086 
L 191.975273 138.611252 
L 193.418364 140.01881 
L 194.861455 141.248131 
L 196.304545 142.304598 
" style="fill:none;opacity:0.9;stroke:#591e71;stroke-linecap:round;stroke-width:1.5;"/>
   </g>
   <g id="line2d_28">
    <path clip-path="url(#pc2632254d6)" d="M 51.995455 77.450262 
L 53.438545 77.564037 
L 54.881636 77.706213 
L 56.324727 77.883546 
L 57.767818 78.104213 
L 59.210909 78.378003 
L 60.654 78.71648 
L 62.097091 79.133058 
L 63.540182 79.642951 
L 64.983273 80.262877 
L 66.426364 81.010448 
L 67.869455 81.903116 
L 69.312545 82.956599 
L 70.755636 84.182773 
L 72.198727 85.58716 
L 73.641818 87.166314 
L 75.084909 88.905635 
L 76.528 90.778268 
L 77.971091 92.745677 
L 79.414182 94.76021 
L 80.857273 96.769434 
L 82.300364 98.721461 
L 83.743455 100.570165 
L 85.186545 102.279205 
L 86.629636 103.824191 
L 88.072727 105.192888 
L 89.515818 106.383841 
L 90.958909 107.404054 
L 92.402 108.266363 
L 93.845091 108.986984 
L 95.288182 109.583511 
L 96.731273 110.073445 
L 98.174364 110.473241 
L 99.617455 110.797766 
L 101.060545 111.060066 
L 102.503636 111.271337 
L 103.946727 111.441033 
L 105.389818 111.57703 
L 106.832909 111.685824 
L 108.276 111.772731 
L 109.719091 111.842075 
L 111.162182 111.897355 
L 112.605273 111.94139 
L 114.048364 111.976447 
L 115.491455 112.004345 
L 116.934545 112.026536 
L 118.377636 112.044184 
L 119.820727 112.058214 
L 121.263818 112.069367 
L 122.706909 112.078231 
L 124.15 112.085275 
L 125.593091 112.090873 
L 127.036182 112.09532 
L 128.479273 112.098854 
L 129.922364 112.101661 
L 131.365455 112.103891 
L 132.808545 112.105663 
L 134.251636 112.10707 
L 135.694727 112.108188 
L 137.137818 112.109077 
L 138.580909 112.109782 
L 140.024 112.110342 
L 141.467091 112.110788 
L 142.910182 112.111141 
L 144.353273 112.111422 
L 145.796364 112.111645 
L 147.239455 112.111823 
L 148.682545 112.111963 
L 150.125636 112.112075 
L 151.568727 112.112164 
L 153.011818 112.112235 
L 154.454909 112.112291 
L 155.898 112.112335 
L 157.341091 112.112371 
L 158.784182 112.112399 
L 160.227273 112.112421 
L 161.670364 112.112439 
L 163.113455 112.112453 
L 164.556545 112.112464 
L 165.999636 112.112473 
L 167.442727 112.11248 
L 168.885818 112.112486 
L 170.328909 112.11249 
L 171.772 112.112493 
L 173.215091 112.112496 
L 174.658182 112.112499 
L 176.101273 112.1125 
L 177.544364 112.112502 
L 178.987455 112.112503 
L 180.430545 112.112504 
L 181.873636 112.112504 
L 183.316727 112.112505 
L 184.759818 112.112505 
L 186.202909 112.112506 
L 187.646 112.112506 
L 189.089091 112.112506 
L 190.532182 112.112506 
L 191.975273 112.112507 
L 193.418364 112.112507 
L 194.861455 112.112507 
L 196.304545 112.112507 
" style="fill:none;opacity:0.7;stroke:#000000;stroke-linecap:round;stroke-width:1.5;"/>
   </g>
   <g id="line2d_29">
    <path clip-path="url(#pc2632254d6)" d="M 51.995455 67.935658 
L 53.438545 67.657478 
L 54.881636 67.488318 
L 56.324727 67.469132 
L 57.767818 67.640985 
L 59.210909 68.041809 
L 60.654 68.702599 
L 62.097091 69.643491 
L 63.540182 70.870366 
L 64.983273 72.372778 
L 66.426364 74.123849 
L 67.869455 76.082464 
L 69.312545 78.197495 
L 70.755636 80.413221 
L 72.198727 82.674793 
L 73.641818 84.932662 
L 75.084909 87.145323 
L 76.528 89.280269 
L 77.971091 91.313506 
L 79.414182 93.228196 
L 80.857273 95.012999 
L 82.300364 96.660538 
L 83.743455 98.166245 
L 85.186545 99.527687 
L 86.629636 100.744348 
L 88.072727 101.817772 
L 89.515818 102.751896 
L 90.958909 103.553404 
L 92.402 104.23189 
L 93.845091 104.799701 
L 95.288182 105.271382 
L 96.731273 105.662809 
L 98.174364 105.990149 
L 99.617455 106.268876 
L 101.060545 106.512993 
L 102.503636 106.73455 
L 103.946727 106.943435 
L 105.389818 107.147384 
L 106.832909 107.352081 
L 108.276 107.561292 
L 109.719091 107.776904 
L 111.162182 107.99882 
L 112.605273 108.224655 
L 114.048364 108.44917 
L 115.491455 108.663488 
L 116.934545 108.854209 
L 118.377636 109.00292 
L 119.820727 109.08712 
L 121.263818 109.083813 
L 122.706909 108.975613 
L 124.15 108.756212 
L 125.593091 108.431163 
L 127.036182 108.013917 
L 128.479273 107.520709 
L 129.922364 106.967117 
L 131.365455 106.36658 
L 132.808545 105.730088 
L 134.251636 105.066349 
L 135.694727 104.38209 
L 137.137818 103.682388 
L 138.580909 102.970984 
L 140.024 102.250596 
L 141.467091 101.523202 
L 142.910182 100.79029 
L 144.353273 100.053082 
L 145.796364 99.312719 
L 147.239455 98.570437 
L 148.682545 97.827737 
L 150.125636 97.086555 
L 151.568727 96.349435 
L 153.011818 95.619692 
L 154.454909 94.901552 
L 155.898 94.200265 
L 157.341091 93.522188 
L 158.784182 92.874863 
L 160.227273 92.267089 
L 161.670364 91.709005 
L 163.113455 91.212184 
L 164.556545 90.789734 
L 165.999636 90.456378 
L 167.442727 90.228502 
L 168.885818 90.124094 
L 170.328909 90.162516 
L 171.772 90.363987 
L 173.215091 90.748656 
L 174.658182 91.335156 
L 176.101273 92.138606 
L 177.544364 93.168137 
L 178.987455 94.424236 
L 180.430545 95.896383 
L 181.873636 97.561628 
L 183.316727 99.384741 
L 184.759818 101.320321 
L 186.202909 103.316763 
L 187.646 105.321435 
L 189.089091 107.286 
L 190.532182 109.170781 
L 191.975273 110.947401 
L 193.418364 112.599456 
L 194.861455 114.121512 
L 196.304545 115.517 
" style="fill:none;opacity:0.45;stroke:#591e71;stroke-dasharray:2.775,1.2;stroke-dashoffset:0;stroke-width:0.75;"/>
   </g>
   <g id="line2d_30">
    <path clip-path="url(#pc2632254d6)" d="M 51.995455 91.547108 
L 53.438545 93.1066 
L 54.881636 94.818468 
L 56.324727 96.676322 
L 57.767818 98.669535 
L 59.210909 100.782116 
L 60.654 102.991385 
L 62.097091 105.266742 
L 63.540182 107.568961 
L 64.983273 109.850562 
L 66.426364 112.057736 
L 67.869455 114.133946 
L 69.312545 116.02486 
L 70.755636 117.683705 
L 72.198727 119.07597 
L 73.641818 120.182444 
L 75.084909 121.000111 
L 76.528 121.540989 
L 77.971091 121.82944 
L 79.414182 121.898694 
L 80.857273 121.787258 
L 82.300364 121.535672 
L 83.743455 121.183836 
L 85.186545 120.76894 
L 86.629636 120.323918 
L 88.072727 119.876352 
L 89.515818 119.447752 
L 90.958909 119.053212 
L 92.402 118.701471 
L 93.845091 118.395433 
L 95.288182 118.13311 
L 96.731273 117.908891 
L 98.174364 117.714949 
L 99.617455 117.542556 
L 101.060545 117.383142 
L 102.503636 117.229025 
L 103.946727 117.073814 
L 105.389818 116.912576 
L 106.832909 116.741863 
L 108.276 116.559695 
L 109.719091 116.365613 
L 111.162182 116.160848 
L 112.605273 115.948696 
L 114.048364 115.735117 
L 115.491455 115.529571 
L 116.934545 115.345923 
L 118.377636 115.202962 
L 119.820727 115.123493 
L 121.263818 115.130766 
L 122.706909 115.242375 
L 124.15 115.464813 
L 125.593091 115.792684 
L 127.036182 116.212692 
L 128.479273 116.708746 
L 129.922364 117.265421 
L 131.365455 117.869442 
L 132.808545 118.510003 
L 134.251636 119.178613 
L 135.694727 119.868804 
L 137.137818 120.575815 
L 138.580909 121.296292 
L 140.024 122.028 
L 141.467091 122.769561 
L 142.910182 123.520236 
L 144.353273 124.279744 
L 145.796364 125.048122 
L 147.239455 125.825609 
L 148.682545 126.612554 
L 150.125636 127.409339 
L 151.568727 128.216317 
L 153.011818 129.033795 
L 154.454909 129.862064 
L 155.898 130.701496 
L 157.341091 131.552704 
L 158.784182 132.41676 
L 160.227273 133.29546 
L 161.670364 134.191613 
L 163.113455 135.109346 
L 164.556545 136.054397 
L 165.999636 137.034374 
L 167.442727 138.058916 
L 168.885818 139.139707 
L 170.328909 140.290243 
L 171.772 141.525289 
L 173.215091 142.859899 
L 174.658182 144.307953 
L 176.101273 145.880168 
L 177.544364 147.581673 
L 178.987455 149.409416 
L 180.430545 151.349864 
L 181.873636 153.377624 
L 183.316727 155.455646 
L 184.759818 157.537365 
L 186.202909 159.57073 
L 187.646 161.503429 
L 189.089091 163.288241 
L 190.532182 164.88739 
L 191.975273 166.275104 
L 193.418364 167.438164 
L 194.861455 168.37475 
L 196.304545 169.092196 
" style="fill:none;opacity:0.45;stroke:#591e71;stroke-dasharray:2.775,1.2;stroke-dashoffset:0;stroke-width:0.75;"/>
   </g>
   <g id="patch_3">
    <path d="M 44.78 175.96 
L 44.78 25.44 
" style="fill:none;stroke:#262626;stroke-linecap:square;stroke-linejoin:miter;stroke-width:0.8;"/>
   </g>
   <g id="patch_4">
    <path d="M 44.78 175.96 
L 203.52 175.96 
" style="fill:none;stroke:#262626;stroke-linecap:square;stroke-linejoin:miter;stroke-width:0.8;"/>
   </g>
   <g id="text_13">
    <!-- SM11 -->
    <defs>
     <path d="M 4.5 23 
L 13.421875 23.78125 
Q 14.0625 18.40625 16.375 14.96875 
Q 18.703125 11.53125 23.578125 9.40625 
Q 28.46875 7.28125 34.578125 7.28125 
Q 39.984375 7.28125 44.140625 8.890625 
Q 48.296875 10.5 50.3125 13.296875 
Q 52.34375 16.109375 52.34375 19.4375 
Q 52.34375 22.796875 50.390625 25.3125 
Q 48.4375 27.828125 43.953125 29.546875 
Q 41.0625 30.671875 31.203125 33.03125 
Q 21.34375 35.40625 17.390625 37.5 
Q 12.25 40.1875 9.734375 44.15625 
Q 7.234375 48.140625 7.234375 53.078125 
Q 7.234375 58.5 10.296875 63.203125 
Q 13.375 67.921875 19.28125 70.359375 
Q 25.203125 72.796875 32.421875 72.796875 
Q 40.375 72.796875 46.453125 70.234375 
Q 52.546875 67.671875 55.8125 62.6875 
Q 59.078125 57.71875 59.328125 51.421875 
L 50.25 50.734375 
Q 49.515625 57.515625 45.28125 60.984375 
Q 41.0625 64.453125 32.8125 64.453125 
Q 24.21875 64.453125 20.28125 61.296875 
Q 16.359375 58.15625 16.359375 53.71875 
Q 16.359375 49.859375 19.140625 47.359375 
Q 21.875 44.875 33.421875 42.265625 
Q 44.96875 39.65625 49.265625 37.703125 
Q 55.515625 34.8125 58.484375 30.390625 
Q 61.46875 25.984375 61.46875 20.21875 
Q 61.46875 14.5 58.203125 9.4375 
Q 54.9375 4.390625 48.796875 1.578125 
Q 42.671875 -1.21875 35.015625 -1.21875 
Q 25.296875 -1.21875 18.71875 1.609375 
Q 12.15625 4.4375 8.421875 10.125 
Q 4.6875 15.828125 4.5 23 
z
" id="ArialMT-53"/>
     <path d="M 7.421875 0 
L 7.421875 71.578125 
L 21.6875 71.578125 
L 38.625 20.90625 
Q 40.96875 13.8125 42.046875 10.296875 
Q 43.265625 14.203125 45.84375 21.78125 
L 62.984375 71.578125 
L 75.734375 71.578125 
L 75.734375 0 
L 66.609375 0 
L 66.609375 59.90625 
L 45.796875 0 
L 37.25 0 
L 16.546875 60.9375 
L 16.546875 0 
z
" id="ArialMT-4d"/>
    </defs>
    <g style="fill:#262626;" transform="translate(108.483438 19.44)scale(0.12 -0.12)">
     <use xlink:href="#ArialMT-53"/>
     <use x="66.699219" xlink:href="#ArialMT-4d"/>
     <use x="150" xlink:href="#ArialMT-31"/>
     <use x="205.505859" xlink:href="#ArialMT-31"/>
    </g>
   </g>
  </g>
 </g>
 <defs>
  <clipPath id="pc2632254d6">
   <rect height="150.52" width="158.74" x="44.78" y="25.44"/>
  </clipPath>
 </defs>
</svg>
