<?xml version="1.0" encoding="utf-8" standalone="no"?>
<!DOCTYPE svg PUBLIC "-//W3C//DTD SVG 1.1//EN"
  "http://www.w3.org/Graphics/SVG/1.1/DTD/svg11.dtd">
<!-- Created with matplotlib (http://matplotlib.org/) -->
<svg height="216pt" version="1.1" viewBox="0 0 216 216" width="216pt" xmlns="http://www.w3.org/2000/svg" xmlns:xlink="http://www.w3.org/1999/xlink">
 <defs>
  <style type="text/css">
*{stroke-linecap:butt;stroke-linejoin:round;}
  </style>
 </defs>
 <g id="figure_1">
  <g id="patch_1">
   <path d="M 0 216 
L 216 216 
L 216 0 
L 0 0 
z
" style="fill:#ffffff;"/>
  </g>
  <g id="axes_1">
   <g id="patch_2">
    <path d="M 44.78 175.96 
L 203.52 175.96 
L 203.52 25.44 
L 44.78 25.44 
z
" style="fill:#ffffff;"/>
   </g>
   <g id="matplotlib.axis_1">
    <g id="xtick_1">
     <g id="line2d_1">
      <defs>
       <path d="M 0 0 
L 0 3.5 
" id="m21b8212dba" style="stroke:#262626;stroke-width:0.8;"/>
      </defs>
      <g>
       <use style="fill:#262626;stroke:#262626;stroke-width:0.8;" x="51.995455" xlink:href="#m21b8212dba" y="175.96"/>
      </g>
     </g>
     <g id="text_1">
      <!-- 2 -->
      <defs>
       <path d="M 50.34375 8.453125 
L 50.34375 0 
L 3.03125 0 
Q 2.9375 3.171875 4.046875 6.109375 
Q 5.859375 10.9375 9.828125 15.625 
Q 13.8125 20.3125 21.34375 26.46875 
Q 33.015625 36.03125 37.109375 41.625 
Q 41.21875 47.21875 41.21875 52.203125 
Q 41.21875 57.421875 37.46875 61 
Q 33.734375 64.59375 27.734375 64.59375 
Q 21.390625 64.59375 17.578125 60.78125 
Q 13.765625 56.984375 13.71875 50.25 
L 4.6875 51.171875 
Q 5.609375 61.28125 11.65625 66.578125 
Q 17.71875 71.875 27.9375 71.875 
Q 38.234375 71.875 44.234375 66.15625 
Q 50.25 60.453125 50.25 52 
Q 50.25 47.703125 48.484375 43.546875 
Q 46.734375 39.40625 42.65625 34.8125 
Q 38.578125 30.21875 29.109375 22.21875 
Q 21.1875 15.578125 18.9375 13.203125 
Q 16.703125 10.84375 15.234375 8.453125 
z
" id="ArialMT-32"/>
      </defs>
      <g style="fill:#262626;" transform="translate(49.214986 190.117812)scale(0.1 -0.1)">
       <use xlink:href="#ArialMT-32"/>
      </g>
     </g>
    </g>
    <g id="xtick_2">
     <g id="line2d_2">
      <g>
       <use style="fill:#262626;stroke:#262626;stroke-width:0.8;" x="80.857273" xlink:href="#m21b8212dba" y="175.96"/>
      </g>
     </g>
     <g id="text_2">
      <!-- 4 -->
      <defs>
       <path d="M 32.328125 0 
L 32.328125 17.140625 
L 1.265625 17.140625 
L 1.265625 25.203125 
L 33.9375 71.578125 
L 41.109375 71.578125 
L 41.109375 25.203125 
L 50.78125 25.203125 
L 50.78125 17.140625 
L 41.109375 17.140625 
L 41.109375 0 
z
M 32.328125 25.203125 
L 32.328125 57.46875 
L 9.90625 25.203125 
z
" id="ArialMT-34"/>
      </defs>
      <g style="fill:#262626;" transform="translate(78.076804 190.117812)scale(0.1 -0.1)">
       <use xlink:href="#ArialMT-34"/>
      </g>
     </g>
    </g>
    <g id="xtick_3">
     <g id="line2d_3">
      <g>
       <use style="fill:#262626;stroke:#262626;stroke-width:0.8;" x="109.719091" xlink:href="#m21b8212dba" y="175.96"/>
      </g>
     </g>
     <g id="text_3">
      <!-- 6 -->
      <defs>
       <path d="M 49.75 54.046875 
L 41.015625 53.375 
Q 39.84375 58.546875 37.703125 60.890625 
Q 34.125 64.65625 28.90625 64.65625 
Q 24.703125 64.65625 21.53125 62.3125 
Q 17.390625 59.28125 14.984375 53.46875 
Q 12.59375 47.65625 12.5 36.921875 
Q 15.671875 41.75 20.265625 44.09375 
Q 24.859375 46.4375 29.890625 46.4375 
Q 38.671875 46.4375 44.84375 39.96875 
Q 51.03125 33.5 51.03125 23.25 
Q 51.03125 16.5 48.125 10.71875 
Q 45.21875 4.9375 40.140625 1.859375 
Q 35.0625 -1.21875 28.609375 -1.21875 
Q 17.625 -1.21875 10.6875 6.859375 
Q 3.765625 14.9375 3.765625 33.5 
Q 3.765625 54.25 11.421875 63.671875 
Q 18.109375 71.875 29.4375 71.875 
Q 37.890625 71.875 43.28125 67.140625 
Q 48.6875 62.40625 49.75 54.046875 
z
M 13.875 23.1875 
Q 13.875 18.65625 15.796875 14.5 
Q 17.71875 10.359375 21.1875 8.171875 
Q 24.65625 6 28.46875 6 
Q 34.03125 6 38.03125 10.484375 
Q 42.046875 14.984375 42.046875 22.703125 
Q 42.046875 30.125 38.078125 34.390625 
Q 34.125 38.671875 28.125 38.671875 
Q 22.171875 38.671875 18.015625 34.390625 
Q 13.875 30.125 13.875 23.1875 
z
" id="ArialMT-36"/>
      </defs>
      <g style="fill:#262626;" transform="translate(106.938622 190.117812)scale(0.1 -0.1)">
       <use xlink:href="#ArialMT-36"/>
      </g>
     </g>
    </g>
    <g id="xtick_4">
     <g id="line2d_4">
      <g>
       <use style="fill:#262626;stroke:#262626;stroke-width:0.8;" x="138.580909" xlink:href="#m21b8212dba" y="175.96"/>
      </g>
     </g>
     <g id="text_4">
      <!-- 8 -->
      <defs>
       <path d="M 17.671875 38.8125 
Q 12.203125 40.828125 9.5625 44.53125 
Q 6.9375 48.25 6.9375 53.421875 
Q 6.9375 61.234375 12.546875 66.546875 
Q 18.171875 71.875 27.484375 71.875 
Q 36.859375 71.875 42.578125 66.421875 
Q 48.296875 60.984375 48.296875 53.171875 
Q 48.296875 48.1875 45.671875 44.5 
Q 43.0625 40.828125 37.75 38.8125 
Q 44.34375 36.671875 47.78125 31.875 
Q 51.21875 27.09375 51.21875 20.453125 
Q 51.21875 11.28125 44.71875 5.03125 
Q 38.234375 -1.21875 27.640625 -1.21875 
Q 17.046875 -1.21875 10.546875 5.046875 
Q 4.046875 11.328125 4.046875 20.703125 
Q 4.046875 27.6875 7.59375 32.390625 
Q 11.140625 37.109375 17.671875 38.8125 
z
M 15.921875 53.71875 
Q 15.921875 48.640625 19.1875 45.40625 
Q 22.46875 42.1875 27.6875 42.1875 
Q 32.765625 42.1875 36.015625 45.375 
Q 39.265625 48.578125 39.265625 53.21875 
Q 39.265625 58.0625 35.90625 61.359375 
Q 32.5625 64.65625 27.59375 64.65625 
Q 22.5625 64.65625 19.234375 61.421875 
Q 15.921875 58.203125 15.921875 53.71875 
z
M 13.09375 20.65625 
Q 13.09375 16.890625 14.875 13.375 
Q 16.65625 9.859375 20.171875 7.921875 
Q 23.6875 6 27.734375 6 
Q 34.03125 6 38.125 10.046875 
Q 42.234375 14.109375 42.234375 20.359375 
Q 42.234375 26.703125 38.015625 30.859375 
Q 33.796875 35.015625 27.4375 35.015625 
Q 21.234375 35.015625 17.15625 30.90625 
Q 13.09375 26.8125 13.09375 20.65625 
z
" id="ArialMT-38"/>
      </defs>
      <g style="fill:#262626;" transform="translate(135.80044 190.117812)scale(0.1 -0.1)">
       <use xlink:href="#ArialMT-38"/>
      </g>
     </g>
    </g>
    <g id="xtick_5">
     <g id="line2d_5">
      <g>
       <use style="fill:#262626;stroke:#262626;stroke-width:0.8;" x="167.442727" xlink:href="#m21b8212dba" y="175.96"/>
      </g>
     </g>
     <g id="text_5">
      <!-- 10 -->
      <defs>
       <path d="M 37.25 0 
L 28.46875 0 
L 28.46875 56 
Q 25.296875 52.984375 20.140625 49.953125 
Q 14.984375 46.921875 10.890625 45.40625 
L 10.890625 53.90625 
Q 18.265625 57.375 23.78125 62.296875 
Q 29.296875 67.234375 31.59375 71.875 
L 37.25 71.875 
z
" id="ArialMT-31"/>
       <path d="M 4.15625 35.296875 
Q 4.15625 48 6.765625 55.734375 
Q 9.375 63.484375 14.515625 67.671875 
Q 19.671875 71.875 27.484375 71.875 
Q 33.25 71.875 37.59375 69.546875 
Q 41.9375 67.234375 44.765625 62.859375 
Q 47.609375 58.5 49.21875 52.21875 
Q 50.828125 45.953125 50.828125 35.296875 
Q 50.828125 22.703125 48.234375 14.96875 
Q 45.65625 7.234375 40.5 3 
Q 35.359375 -1.21875 27.484375 -1.21875 
Q 17.140625 -1.21875 11.234375 6.203125 
Q 4.15625 15.140625 4.15625 35.296875 
z
M 13.1875 35.296875 
Q 13.1875 17.671875 17.3125 11.828125 
Q 21.4375 6 27.484375 6 
Q 33.546875 6 37.671875 11.859375 
Q 41.796875 17.71875 41.796875 35.296875 
Q 41.796875 52.984375 37.671875 58.78125 
Q 33.546875 64.59375 27.390625 64.59375 
Q 21.34375 64.59375 17.71875 59.46875 
Q 13.1875 52.9375 13.1875 35.296875 
z
" id="ArialMT-30"/>
      </defs>
      <g style="fill:#262626;" transform="translate(161.88179 190.117812)scale(0.1 -0.1)">
       <use xlink:href="#ArialMT-31"/>
       <use x="55.615234" xlink:href="#ArialMT-30"/>
      </g>
     </g>
    </g>
    <g id="xtick_6">
     <g id="line2d_6">
      <g>
       <use style="fill:#262626;stroke:#262626;stroke-width:0.8;" x="196.304545" xlink:href="#m21b8212dba" y="175.96"/>
      </g>
     </g>
     <g id="text_6">
      <!-- 12 -->
      <g style="fill:#262626;" transform="translate(190.743608 190.117812)scale(0.1 -0.1)">
       <use xlink:href="#ArialMT-31"/>
       <use x="55.615234" xlink:href="#ArialMT-32"/>
      </g>
     </g>
    </g>
    <g id="text_7">
     <!-- pH -->
     <defs>
      <path d="M 6.59375 -19.875 
L 6.59375 51.859375 
L 14.59375 51.859375 
L 14.59375 45.125 
Q 17.4375 49.078125 21 51.046875 
Q 24.5625 53.03125 29.640625 53.03125 
Q 36.28125 53.03125 41.359375 49.609375 
Q 46.4375 46.1875 49.015625 39.953125 
Q 51.609375 33.734375 51.609375 26.3125 
Q 51.609375 18.359375 48.75 11.984375 
Q 45.90625 5.609375 40.453125 2.21875 
Q 35.015625 -1.171875 29 -1.171875 
Q 24.609375 -1.171875 21.109375 0.6875 
Q 17.625 2.546875 15.375 5.375 
L 15.375 -19.875 
z
M 14.546875 25.640625 
Q 14.546875 15.625 18.59375 10.84375 
Q 22.65625 6.0625 28.421875 6.0625 
Q 34.28125 6.0625 38.453125 11.015625 
Q 42.625 15.96875 42.625 26.375 
Q 42.625 36.28125 38.546875 41.203125 
Q 34.46875 46.140625 28.8125 46.140625 
Q 23.1875 46.140625 18.859375 40.890625 
Q 14.546875 35.640625 14.546875 25.640625 
z
" id="ArialMT-70"/>
      <path d="M 8.015625 0 
L 8.015625 71.578125 
L 17.484375 71.578125 
L 17.484375 42.1875 
L 54.6875 42.1875 
L 54.6875 71.578125 
L 64.15625 71.578125 
L 64.15625 0 
L 54.6875 0 
L 54.6875 33.734375 
L 17.484375 33.734375 
L 17.484375 0 
z
" id="ArialMT-48"/>
     </defs>
     <g style="fill:#262626;" transform="translate(117.758594 203.263125)scale(0.1 -0.1)">
      <use xlink:href="#ArialMT-70"/>
      <use x="55.615234" xlink:href="#ArialMT-48"/>
     </g>
    </g>
   </g>
   <g id="matplotlib.axis_2">
    <g id="ytick_1">
     <g id="line2d_7">
      <defs>
       <path d="M 0 0 
L -3.5 0 
" id="m6c09b819c6" style="stroke:#262626;stroke-width:0.8;"/>
      </defs>
      <g>
       <use style="fill:#262626;stroke:#262626;stroke-width:0.8;" x="44.78" xlink:href="#m6c09b819c6" y="172.209347"/>
      </g>
     </g>
     <g id="text_8">
      <!-- −1 -->
      <defs>
       <path d="M 52.828125 31.203125 
L 5.5625 31.203125 
L 5.5625 39.40625 
L 52.828125 39.40625 
z
" id="ArialMT-2212"/>
      </defs>
      <g style="fill:#262626;" transform="translate(26.378438 175.788253)scale(0.1 -0.1)">
       <use xlink:href="#ArialMT-2212"/>
       <use x="58.398438" xlink:href="#ArialMT-31"/>
      </g>
     </g>
    </g>
    <g id="ytick_2">
     <g id="line2d_8">
      <g>
       <use style="fill:#262626;stroke:#262626;stroke-width:0.8;" x="44.78" xlink:href="#m6c09b819c6" y="137.141045"/>
      </g>
     </g>
     <g id="text_9">
      <!-- 0 -->
      <g style="fill:#262626;" transform="translate(32.219063 140.719951)scale(0.1 -0.1)">
       <use xlink:href="#ArialMT-30"/>
      </g>
     </g>
    </g>
    <g id="ytick_3">
     <g id="line2d_9">
      <g>
       <use style="fill:#262626;stroke:#262626;stroke-width:0.8;" x="44.78" xlink:href="#m6c09b819c6" y="102.072743"/>
      </g>
     </g>
     <g id="text_10">
      <!-- 1 -->
      <g style="fill:#262626;" transform="translate(32.219063 105.651649)scale(0.1 -0.1)">
       <use xlink:href="#ArialMT-31"/>
      </g>
     </g>
    </g>
    <g id="ytick_4">
     <g id="line2d_10">
      <g>
       <use style="fill:#262626;stroke:#262626;stroke-width:0.8;" x="44.78" xlink:href="#m6c09b819c6" y="67.004441"/>
      </g>
     </g>
     <g id="text_11">
      <!-- 2 -->
      <g style="fill:#262626;" transform="translate(32.219063 70.583347)scale(0.1 -0.1)">
       <use xlink:href="#ArialMT-32"/>
      </g>
     </g>
    </g>
    <g id="ytick_5">
     <g id="line2d_11">
      <g>
       <use style="fill:#262626;stroke:#262626;stroke-width:0.8;" x="44.78" xlink:href="#m6c09b819c6" y="31.936139"/>
      </g>
     </g>
     <g id="text_12">
      <!-- 3 -->
      <defs>
       <path d="M 4.203125 18.890625 
L 12.984375 20.0625 
Q 14.5 12.59375 18.140625 9.296875 
Q 21.78125 6 27 6 
Q 33.203125 6 37.46875 10.296875 
Q 41.75 14.59375 41.75 20.953125 
Q 41.75 27 37.796875 30.921875 
Q 33.84375 34.859375 27.734375 34.859375 
Q 25.25 34.859375 21.53125 33.890625 
L 22.515625 41.609375 
Q 23.390625 41.5 23.921875 41.5 
Q 29.546875 41.5 34.03125 44.421875 
Q 38.53125 47.359375 38.53125 53.46875 
Q 38.53125 58.296875 35.25 61.46875 
Q 31.984375 64.65625 26.8125 64.65625 
Q 21.6875 64.65625 18.265625 61.421875 
Q 14.84375 58.203125 13.875 51.765625 
L 5.078125 53.328125 
Q 6.6875 62.15625 12.390625 67.015625 
Q 18.109375 71.875 26.609375 71.875 
Q 32.46875 71.875 37.390625 69.359375 
Q 42.328125 66.84375 44.9375 62.5 
Q 47.5625 58.15625 47.5625 53.265625 
Q 47.5625 48.640625 45.0625 44.828125 
Q 42.578125 41.015625 37.703125 38.765625 
Q 44.046875 37.3125 47.5625 32.6875 
Q 51.078125 28.078125 51.078125 21.140625 
Q 51.078125 11.765625 44.234375 5.25 
Q 37.40625 -1.265625 26.953125 -1.265625 
Q 17.53125 -1.265625 11.296875 4.34375 
Q 5.078125 9.96875 4.203125 18.890625 
z
" id="ArialMT-33"/>
      </defs>
      <g style="fill:#262626;" transform="translate(32.219063 35.515046)scale(0.1 -0.1)">
       <use xlink:href="#ArialMT-33"/>
      </g>
     </g>
    </g>
    <g id="text_13">
     <!-- $\langle q_\mathsf{total} \rangle$ -->
     <defs>
      <path d="M 8.9375 31.34375 
L 22.703125 75.875 
L 31 75.875 
L 17.234375 31.34375 
L 31 -13.1875 
L 22.703125 -13.1875 
z
" id="DejaVuSans-27e8"/>
      <path d="M 41.703125 8.203125 
Q 38.09375 3.46875 33.171875 1.015625 
Q 28.265625 -1.421875 22.3125 -1.421875 
Q 14.015625 -1.421875 9.296875 4.171875 
Q 4.59375 9.765625 4.59375 19.578125 
Q 4.59375 27.484375 7.5 34.859375 
Q 10.40625 42.234375 15.828125 48.09375 
Q 19.34375 51.90625 23.90625 53.953125 
Q 28.46875 56 33.5 56 
Q 39.546875 56 43.453125 53.609375 
Q 47.359375 51.21875 49.125 46.390625 
L 50.6875 54.59375 
L 59.71875 54.59375 
L 45.125 -20.609375 
L 36.078125 -20.609375 
z
M 13.921875 20.90625 
Q 13.921875 13.671875 16.9375 9.890625 
Q 19.96875 6.109375 25.6875 6.109375 
Q 34.1875 6.109375 40.1875 14.234375 
Q 46.1875 22.359375 46.1875 33.984375 
Q 46.1875 41.015625 43.078125 44.75 
Q 39.984375 48.484375 34.1875 48.484375 
Q 29.9375 48.484375 26.3125 46.5 
Q 22.703125 44.53125 20.015625 40.71875 
Q 17.1875 36.71875 15.546875 31.34375 
Q 13.921875 25.984375 13.921875 20.90625 
z
" id="DejaVuSans-Oblique-71"/>
      <path d="M 18.3125 70.21875 
L 18.3125 54.6875 
L 36.8125 54.6875 
L 36.8125 47.703125 
L 18.3125 47.703125 
L 18.3125 18.015625 
Q 18.3125 11.328125 20.140625 9.421875 
Q 21.96875 7.515625 27.59375 7.515625 
L 36.8125 7.515625 
L 36.8125 0 
L 27.59375 0 
Q 17.1875 0 13.234375 3.875 
Q 9.28125 7.765625 9.28125 18.015625 
L 9.28125 47.703125 
L 2.6875 47.703125 
L 2.6875 54.6875 
L 9.28125 54.6875 
L 9.28125 70.21875 
z
" id="DejaVuSans-74"/>
      <path d="M 30.609375 48.390625 
Q 23.390625 48.390625 19.1875 42.75 
Q 14.984375 37.109375 14.984375 27.296875 
Q 14.984375 17.484375 19.15625 11.84375 
Q 23.34375 6.203125 30.609375 6.203125 
Q 37.796875 6.203125 41.984375 11.859375 
Q 46.1875 17.53125 46.1875 27.296875 
Q 46.1875 37.015625 41.984375 42.703125 
Q 37.796875 48.390625 30.609375 48.390625 
z
M 30.609375 56 
Q 42.328125 56 49.015625 48.375 
Q 55.71875 40.765625 55.71875 27.296875 
Q 55.71875 13.875 49.015625 6.21875 
Q 42.328125 -1.421875 30.609375 -1.421875 
Q 18.84375 -1.421875 12.171875 6.21875 
Q 5.515625 13.875 5.515625 27.296875 
Q 5.515625 40.765625 12.171875 48.375 
Q 18.84375 56 30.609375 56 
z
" id="DejaVuSans-6f"/>
      <path d="M 34.28125 27.484375 
Q 23.390625 27.484375 19.1875 25 
Q 14.984375 22.515625 14.984375 16.5 
Q 14.984375 11.71875 18.140625 8.90625 
Q 21.296875 6.109375 26.703125 6.109375 
Q 34.1875 6.109375 38.703125 11.40625 
Q 43.21875 16.703125 43.21875 25.484375 
L 43.21875 27.484375 
z
M 52.203125 31.203125 
L 52.203125 0 
L 43.21875 0 
L 43.21875 8.296875 
Q 40.140625 3.328125 35.546875 0.953125 
Q 30.953125 -1.421875 24.3125 -1.421875 
Q 15.921875 -1.421875 10.953125 3.296875 
Q 6 8.015625 6 15.921875 
Q 6 25.140625 12.171875 29.828125 
Q 18.359375 34.515625 30.609375 34.515625 
L 43.21875 34.515625 
L 43.21875 35.40625 
Q 43.21875 41.609375 39.140625 45 
Q 35.0625 48.390625 27.6875 48.390625 
Q 23 48.390625 18.546875 47.265625 
Q 14.109375 46.140625 10.015625 43.890625 
L 10.015625 52.203125 
Q 14.9375 54.109375 19.578125 55.046875 
Q 24.21875 56 28.609375 56 
Q 40.484375 56 46.34375 49.84375 
Q 52.203125 43.703125 52.203125 31.203125 
z
" id="DejaVuSans-61"/>
      <path d="M 9.421875 75.984375 
L 18.40625 75.984375 
L 18.40625 0 
L 9.421875 0 
z
" id="DejaVuSans-6c"/>
      <path d="M 30.078125 31.34375 
L 16.3125 -13.1875 
L 8.015625 -13.1875 
L 21.78125 31.34375 
L 8.015625 75.875 
L 16.3125 75.875 
z
" id="DejaVuSans-27e9"/>
     </defs>
     <g style="fill:#262626;" transform="translate(20.278438 115.95)rotate(-90)scale(0.1 -0.1)">
      <use transform="translate(0 0.125)" xlink:href="#DejaVuSans-27e8"/>
      <use transform="translate(39.013672 0.125)" xlink:href="#DejaVuSans-Oblique-71"/>
      <use transform="translate(102.490234 -16.28125)scale(0.7)" xlink:href="#DejaVuSans-74"/>
      <use transform="translate(129.936523 -16.28125)scale(0.7)" xlink:href="#DejaVuSans-6f"/>
      <use transform="translate(172.763672 -16.28125)scale(0.7)" xlink:href="#DejaVuSans-74"/>
      <use transform="translate(200.209961 -16.28125)scale(0.7)" xlink:href="#DejaVuSans-61"/>
      <use transform="translate(243.105469 -16.28125)scale(0.7)" xlink:href="#DejaVuSans-6c"/>
      <use transform="translate(265.288086 0.125)" xlink:href="#DejaVuSans-27e9"/>
     </g>
    </g>
   </g>
   <g id="line2d_12">
    <path clip-path="url(#p09748e7a48)" d="M 51.995455 103.247871 
L 53.438545 103.540144 
L 54.881636 103.900862 
L 56.324727 104.344004 
L 57.767818 104.88528 
L 59.210909 105.541755 
L 60.654 106.331114 
L 62.097091 107.270456 
L 63.540182 108.374558 
L 64.983273 109.653622 
L 66.426364 111.110695 
L 67.869455 112.739123 
L 69.312545 114.52063 
L 70.755636 116.42467 
L 72.198727 118.409604 
L 73.641818 120.425849 
L 75.084909 122.420616 
L 76.528 124.343324 
L 77.971091 126.150541 
L 79.414182 127.809486 
L 80.857273 129.299573 
L 82.300364 130.612081 
L 83.743455 131.748412 
L 85.186545 132.717625 
L 86.629636 133.533816 
L 88.072727 134.213792 
L 89.515818 134.775229 
L 90.958909 135.235369 
L 92.402 135.610203 
L 93.845091 135.914038 
L 95.288182 136.159334 
L 96.731273 136.356729 
L 98.174364 136.515161 
L 99.617455 136.642056 
L 101.060545 136.743521 
L 102.503636 136.824543 
L 103.946727 136.889171 
L 105.389818 136.940678 
L 106.832909 136.981701 
L 108.276 137.014355 
L 109.719091 137.040337 
L 111.162182 137.061003 
L 112.605273 137.077436 
L 114.048364 137.0905 
L 115.491455 137.100884 
L 116.934545 137.109137 
L 118.377636 137.115696 
L 119.820727 137.120908 
L 121.263818 137.125049 
L 122.706909 137.128339 
L 124.15 137.130954 
L 125.593091 137.133032 
L 127.036182 137.134683 
L 128.479273 137.135996 
L 129.922364 137.13704 
L 131.365455 137.13787 
L 132.808545 137.138532 
L 134.251636 137.13906 
L 135.694727 137.139482 
L 137.137818 137.139821 
L 138.580909 137.140095 
L 140.024 137.140318 
L 141.467091 137.140502 
L 142.910182 137.140658 
L 144.353273 137.140792 
L 145.796364 137.140914 
L 147.239455 137.141028 
L 148.682545 137.141142 
L 150.125636 137.141261 
L 151.568727 137.141391 
L 153.011818 137.14154 
L 154.454909 137.141714 
L 155.898 137.141925 
L 157.341091 137.142183 
L 158.784182 137.142501 
L 160.227273 137.142896 
L 161.670364 137.14339 
L 163.113455 137.144009 
L 164.556545 137.144786 
L 165.999636 137.145762 
L 167.442727 137.146989 
L 168.885818 137.148533 
L 170.328909 137.150475 
L 171.772 137.152919 
L 173.215091 137.155994 
L 174.658182 137.159864 
L 176.101273 137.164735 
L 177.544364 137.170866 
L 178.987455 137.17858 
L 180.430545 137.188286 
L 181.873636 137.200498 
L 183.316727 137.215859 
L 184.759818 137.235179 
L 186.202909 137.25947 
L 187.646 137.290003 
L 189.089091 137.328367 
L 190.532182 137.376543 
L 191.975273 137.437005 
L 193.418364 137.512825 
L 194.861455 137.607807 
L 196.304545 137.726645 
" style="fill:none;opacity:0.9;stroke:#001c7f;stroke-linecap:round;stroke-width:1.5;"/>
   </g>
   <g id="line2d_13">
    <path clip-path="url(#p09748e7a48)" d="M 51.995455 102.076092 
L 53.438545 102.076959 
L 54.881636 102.07805 
L 56.324727 102.079424 
L 57.767818 102.081153 
L 59.210909 102.08333 
L 60.654 102.086071 
L 62.097091 102.08952 
L 63.540182 102.093861 
L 64.983273 102.099325 
L 66.426364 102.106201 
L 67.869455 102.114854 
L 69.312545 102.125741 
L 70.755636 102.139437 
L 72.198727 102.156665 
L 73.641818 102.178329 
L 75.084909 102.205564 
L 76.528 102.239791 
L 77.971091 102.282785 
L 79.414182 102.336761 
L 80.857273 102.404475 
L 82.300364 102.489348 
L 83.743455 102.595609 
L 85.186545 102.728461 
L 86.629636 102.894266 
L 88.072727 103.100744 
L 89.515818 103.35717 
L 90.958909 103.67455 
L 92.402 104.065728 
L 93.845091 104.545377 
L 95.288182 105.129794 
L 96.731273 105.83639 
L 98.174364 106.682787 
L 99.617455 107.6854 
L 101.060545 108.857494 
L 102.503636 110.206765 
L 103.946727 111.732719 
L 105.389818 113.424294 
L 106.832909 115.258363 
L 108.276 117.199757 
L 109.719091 119.203227 
L 111.162182 121.217298 
L 112.605273 123.189405 
L 114.048364 125.071255 
L 115.491455 126.823297 
L 116.934545 128.417482 
L 118.377636 129.83803 
L 119.820727 131.080471 
L 121.263818 132.149539 
L 122.706909 133.05658 
L 124.15 133.817012 
L 125.593091 134.448174 
L 127.036182 134.967697 
L 128.479273 135.392404 
L 129.922364 135.737658 
L 131.365455 136.017044 
L 132.808545 136.242294 
L 134.251636 136.423359 
L 135.694727 136.568557 
L 137.137818 136.68477 
L 138.580909 136.77764 
L 140.024 136.851766 
L 141.467091 136.910872 
L 142.910182 136.957965 
L 144.353273 136.995463 
L 145.796364 137.025306 
L 147.239455 137.049048 
L 148.682545 137.06793 
L 150.125636 137.082943 
L 151.568727 137.094877 
L 153.011818 137.104362 
L 154.454909 137.111901 
L 155.898 137.117891 
L 157.341091 137.122651 
L 158.784182 137.126432 
L 160.227273 137.129437 
L 161.670364 137.131823 
L 163.113455 137.13372 
L 164.556545 137.135226 
L 165.999636 137.136423 
L 167.442727 137.137373 
L 168.885818 137.138128 
L 170.328909 137.138728 
L 171.772 137.139205 
L 173.215091 137.139583 
L 174.658182 137.139884 
L 176.101273 137.140123 
L 177.544364 137.140312 
L 178.987455 137.140463 
L 180.430545 137.140583 
L 181.873636 137.140678 
L 183.316727 137.140753 
L 184.759818 137.140813 
L 186.202909 137.140861 
L 187.646 137.140899 
L 189.089091 137.140929 
L 190.532182 137.140953 
L 191.975273 137.140972 
L 193.418364 137.140987 
L 194.861455 137.140999 
L 196.304545 137.141008 
" style="fill:none;opacity:0.7;stroke:#000000;stroke-linecap:round;stroke-width:1.5;"/>
   </g>
   <g id="line2d_14">
    <path clip-path="url(#p09748e7a48)" d="M 51.995455 84.371886 
L 53.438545 84.125686 
L 54.881636 83.934249 
L 56.324727 83.815242 
L 57.767818 83.788313 
L 59.210909 83.874585 
L 60.654 84.095677 
L 62.097091 84.472267 
L 63.540182 85.02223 
L 64.983273 85.758474 
L 66.426364 86.686551 
L 67.869455 87.802219 
L 69.312545 89.089473 
L 70.755636 90.519792 
L 72.198727 92.053293 
L 73.641818 93.641968 
L 75.084909 95.234532 
L 76.528 96.781937 
L 77.971091 98.242358 
L 79.414182 99.584691 
L 80.857273 100.79006 
L 82.300364 101.851415 
L 83.743455 102.771741 
L 85.186545 103.561544 
L 86.629636 104.236261 
L 88.072727 104.813967 
L 89.515818 105.313586 
L 90.958909 105.753595 
L 92.402 106.151199 
L 93.845091 106.521867 
L 95.288182 106.879149 
L 96.731273 107.234677 
L 98.174364 107.59827 
L 99.617455 107.978075 
L 101.060545 108.380732 
L 102.503636 108.811522 
L 103.946727 109.274503 
L 105.389818 109.772647 
L 106.832909 110.307937 
L 108.276 110.881468 
L 109.719091 111.493512 
L 111.162182 112.143561 
L 112.605273 112.830364 
L 114.048364 113.551943 
L 115.491455 114.305615 
L 116.934545 115.088016 
L 118.377636 115.895136 
L 119.820727 116.722376 
L 121.263818 117.564641 
L 122.706909 118.416476 
L 124.15 119.272244 
L 125.593091 120.126336 
L 127.036182 120.973374 
L 128.479273 121.808373 
L 129.922364 122.62689 
L 131.365455 123.4252 
L 132.808545 124.200506 
L 134.251636 124.951035 
L 135.694727 125.675831 
L 137.137818 126.374342 
L 138.580909 127.046268 
L 140.024 127.691733 
L 141.467091 128.311241 
L 142.910182 128.904891 
L 144.353273 129.471239 
L 145.796364 130.006807 
L 147.239455 130.507085 
L 148.682545 130.968846 
L 150.125636 131.392047 
L 151.568727 131.779582 
L 153.011818 132.135169 
L 154.454909 132.461355 
L 155.898 132.758936 
L 157.341091 133.027667 
L 158.784182 133.267404 
L 160.227273 133.478616 
L 161.670364 133.661748 
L 163.113455 133.816473 
L 164.556545 133.942481 
L 165.999636 134.041456 
L 167.442727 134.117842 
L 168.885818 134.177337 
L 170.328909 134.224777 
L 171.772 134.263105 
L 173.215091 134.293411 
L 174.658182 134.315329 
L 176.101273 134.327317 
L 177.544364 134.326751 
L 178.987455 134.309906 
L 180.430545 134.271936 
L 181.873636 134.206939 
L 183.316727 134.108208 
L 184.759818 133.968702 
L 186.202909 133.781694 
L 187.646 133.541475 
L 189.089091 133.243952 
L 190.532182 132.887002 
L 191.975273 132.470612 
L 193.418364 131.996852 
L 194.861455 131.469842 
L 196.304545 130.895793 
" style="fill:none;opacity:0.45;stroke:#001c7f;stroke-dasharray:2.775,1.2;stroke-dashoffset:0;stroke-width:0.75;"/>
   </g>
   <g id="line2d_15">
    <path clip-path="url(#p09748e7a48)" d="M 51.995455 122.123857 
L 53.438545 122.954602 
L 54.881636 123.867474 
L 56.324727 124.872766 
L 57.767818 125.982247 
L 59.210909 127.208926 
L 60.654 128.566551 
L 62.097091 130.068646 
L 63.540182 131.726886 
L 64.983273 133.54877 
L 66.426364 135.53484 
L 67.869455 137.676027 
L 69.312545 139.951787 
L 70.755636 142.329548 
L 72.198727 144.765914 
L 73.641818 147.20973 
L 75.084909 149.606701 
L 76.528 151.904711 
L 77.971091 154.058724 
L 79.414182 156.03428 
L 80.857273 157.809087 
L 82.300364 159.372746 
L 83.743455 160.725084 
L 85.186545 161.873705 
L 86.629636 162.831371 
L 88.072727 163.613617 
L 89.515818 164.236873 
L 90.958909 164.717143 
L 92.402 165.069208 
L 93.845091 165.306209 
L 95.288182 165.43952 
L 96.731273 165.47878 
L 98.174364 165.432053 
L 99.617455 165.306038 
L 101.060545 165.106309 
L 102.503636 164.837564 
L 103.946727 164.503838 
L 105.389818 164.10871 
L 106.832909 163.655465 
L 108.276 163.147242 
L 109.719091 162.587163 
L 111.162182 161.978445 
L 112.605273 161.324508 
L 114.048364 160.629057 
L 115.491455 159.896154 
L 116.934545 159.130259 
L 118.377636 158.336256 
L 119.820727 157.519439 
L 121.263818 156.685456 
L 122.706909 155.840203 
L 124.15 154.989664 
L 125.593091 154.139727 
L 127.036182 153.295992 
L 128.479273 152.463619 
L 129.922364 151.647189 
L 131.365455 150.85054 
L 132.808545 150.076558 
L 134.251636 149.327084 
L 135.694727 148.603133 
L 137.137818 147.9053 
L 138.580909 147.233921 
L 140.024 146.588902 
L 141.467091 145.969763 
L 142.910182 145.376425 
L 144.353273 144.810346 
L 145.796364 144.275021 
L 147.239455 143.774972 
L 148.682545 143.313438 
L 150.125636 142.890475 
L 151.568727 142.5032 
L 153.011818 142.14791 
L 154.454909 141.822074 
L 155.898 141.524914 
L 157.341091 141.256698 
L 158.784182 141.017597 
L 160.227273 140.807176 
L 161.670364 140.625032 
L 163.113455 140.471545 
L 164.556545 140.347092 
L 165.999636 140.250069 
L 167.442727 140.176137 
L 168.885818 140.119729 
L 170.328909 140.076173 
L 171.772 140.042733 
L 173.215091 140.018577 
L 174.658182 140.0044 
L 176.101273 140.002154 
L 177.544364 140.01498 
L 178.987455 140.047253 
L 180.430545 140.104636 
L 181.873636 140.194056 
L 183.316727 140.32351 
L 184.759818 140.501655 
L 186.202909 140.737247 
L 187.646 141.038531 
L 189.089091 141.412782 
L 190.532182 141.866085 
L 191.975273 142.403399 
L 193.418364 143.028797 
L 194.861455 143.745771 
L 196.304545 144.557497 
" style="fill:none;opacity:0.45;stroke:#001c7f;stroke-dasharray:2.775,1.2;stroke-dashoffset:0;stroke-width:0.75;"/>
   </g>
   <g id="line2d_16">
    <path clip-path="url(#p09748e7a48)" d="M 51.995455 102.07932 
L 53.438545 102.081982 
L 54.881636 102.085135 
L 56.324727 102.088947 
L 57.767818 102.093621 
L 59.210909 102.099404 
L 60.654 102.106603 
L 62.097091 102.115601 
L 63.540182 102.126872 
L 64.983273 102.141011 
L 66.426364 102.158765 
L 67.869455 102.181065 
L 69.312545 102.209079 
L 70.755636 102.244268 
L 72.198727 102.288454 
L 73.641818 102.343914 
L 75.084909 102.413474 
L 76.528 102.500646 
L 77.971091 102.609763 
L 79.414182 102.746156 
L 80.857273 102.916337 
L 82.300364 103.1282 
L 83.743455 103.391217 
L 85.186545 103.716607 
L 86.629636 104.117432 
L 88.072727 104.608574 
L 89.515818 105.206495 
L 90.958909 105.928686 
L 92.402 106.792711 
L 93.845091 107.814726 
L 95.288182 109.007469 
L 96.731273 110.377808 
L 98.174364 111.924114 
L 99.617455 113.633955 
L 101.060545 115.482745 
L 102.503636 117.433985 
L 103.946727 119.441457 
L 105.389818 121.453276 
L 106.832909 123.417108 
L 108.276 125.285488 
L 109.719091 127.020118 
L 111.162182 128.594394 
L 112.605273 129.993949 
L 114.048364 131.215526 
L 115.491455 132.264776 
L 116.934545 133.153653 
L 118.377636 133.897905 
L 119.820727 134.514978 
L 121.263818 135.022458 
L 122.706909 135.43702 
L 124.15 135.773828 
L 125.593091 136.04625 
L 127.036182 136.265802 
L 128.479273 136.442232 
L 129.922364 136.583679 
L 131.365455 136.696868 
L 132.808545 136.78731 
L 134.251636 136.85949 
L 135.694727 136.917042 
L 137.137818 136.962896 
L 138.580909 136.99941 
L 140.024 137.028475 
L 141.467091 137.051603 
L 142.910182 137.070005 
L 144.353273 137.084648 
L 145.796364 137.096302 
L 147.239455 137.105582 
L 148.682545 137.11298 
L 150.125636 137.118887 
L 151.568727 137.123617 
L 153.011818 137.127419 
L 154.454909 137.130498 
L 155.898 137.133015 
L 157.341091 137.135104 
L 158.784182 137.136878 
L 160.227273 137.13843 
L 161.670364 137.139842 
L 163.113455 137.141191 
L 164.556545 137.142548 
L 165.999636 137.143984 
L 167.442727 137.145577 
L 168.885818 137.147411 
L 170.328909 137.149584 
L 171.772 137.152211 
L 173.215091 137.155432 
L 174.658182 137.159418 
L 176.101273 137.164381 
L 177.544364 137.170584 
L 178.987455 137.178356 
L 180.430545 137.188108 
L 181.873636 137.200356 
L 183.316727 137.215747 
L 184.759818 137.235089 
L 186.202909 137.259399 
L 187.646 137.289947 
L 189.089091 137.328322 
L 190.532182 137.376508 
L 191.975273 137.436977 
L 193.418364 137.512802 
L 194.861455 137.607789 
L 196.304545 137.726631 
" style="fill:none;opacity:0.9;stroke:#b1400d;stroke-linecap:round;stroke-width:1.5;"/>
   </g>
   <g id="line2d_17">
    <path clip-path="url(#p09748e7a48)" d="M 51.995455 102.076092 
L 53.438545 102.076959 
L 54.881636 102.07805 
L 56.324727 102.079424 
L 57.767818 102.081153 
L 59.210909 102.08333 
L 60.654 102.086071 
L 62.097091 102.08952 
L 63.540182 102.093861 
L 64.983273 102.099325 
L 66.426364 102.106201 
L 67.869455 102.114854 
L 69.312545 102.125741 
L 70.755636 102.139437 
L 72.198727 102.156665 
L 73.641818 102.178329 
L 75.084909 102.205564 
L 76.528 102.239791 
L 77.971091 102.282785 
L 79.414182 102.336761 
L 80.857273 102.404475 
L 82.300364 102.489348 
L 83.743455 102.595609 
L 85.186545 102.728461 
L 86.629636 102.894266 
L 88.072727 103.100744 
L 89.515818 103.35717 
L 90.958909 103.67455 
L 92.402 104.065728 
L 93.845091 104.545377 
L 95.288182 105.129794 
L 96.731273 105.83639 
L 98.174364 106.682787 
L 99.617455 107.6854 
L 101.060545 108.857494 
L 102.503636 110.206765 
L 103.946727 111.732719 
L 105.389818 113.424294 
L 106.832909 115.258363 
L 108.276 117.199757 
L 109.719091 119.203227 
L 111.162182 121.217298 
L 112.605273 123.189405 
L 114.048364 125.071255 
L 115.491455 126.823297 
L 116.934545 128.417482 
L 118.377636 129.83803 
L 119.820727 131.080471 
L 121.263818 132.149539 
L 122.706909 133.05658 
L 124.15 133.817012 
L 125.593091 134.448174 
L 127.036182 134.967697 
L 128.479273 135.392404 
L 129.922364 135.737658 
L 131.365455 136.017044 
L 132.808545 136.242294 
L 134.251636 136.423359 
L 135.694727 136.568557 
L 137.137818 136.68477 
L 138.580909 136.77764 
L 140.024 136.851766 
L 141.467091 136.910872 
L 142.910182 136.957965 
L 144.353273 136.995463 
L 145.796364 137.025306 
L 147.239455 137.049048 
L 148.682545 137.06793 
L 150.125636 137.082943 
L 151.568727 137.094877 
L 153.011818 137.104362 
L 154.454909 137.111901 
L 155.898 137.117891 
L 157.341091 137.122651 
L 158.784182 137.126432 
L 160.227273 137.129437 
L 161.670364 137.131823 
L 163.113455 137.13372 
L 164.556545 137.135226 
L 165.999636 137.136423 
L 167.442727 137.137373 
L 168.885818 137.138128 
L 170.328909 137.138728 
L 171.772 137.139205 
L 173.215091 137.139583 
L 174.658182 137.139884 
L 176.101273 137.140123 
L 177.544364 137.140312 
L 178.987455 137.140463 
L 180.430545 137.140583 
L 181.873636 137.140678 
L 183.316727 137.140753 
L 184.759818 137.140813 
L 186.202909 137.140861 
L 187.646 137.140899 
L 189.089091 137.140929 
L 190.532182 137.140953 
L 191.975273 137.140972 
L 193.418364 137.140987 
L 194.861455 137.140999 
L 196.304545 137.141008 
" style="fill:none;opacity:0.7;stroke:#000000;stroke-linecap:round;stroke-width:1.5;"/>
   </g>
   <g id="line2d_18">
    <path clip-path="url(#p09748e7a48)" d="M 51.995455 80.271053 
L 53.438545 80.274528 
L 54.881636 80.277141 
L 56.324727 80.278358 
L 57.767818 80.277448 
L 59.210909 80.27347 
L 60.654 80.265268 
L 62.097091 80.251507 
L 63.540182 80.230734 
L 64.983273 80.201479 
L 66.426364 80.162384 
L 67.869455 80.112357 
L 69.312545 80.050736 
L 70.755636 79.977458 
L 72.198727 79.893222 
L 73.641818 79.799662 
L 75.084909 79.699524 
L 76.528 79.596865 
L 77.971091 79.497294 
L 79.414182 79.408233 
L 80.857273 79.339203 
L 82.300364 79.302102 
L 83.743455 79.311447 
L 85.186545 79.384531 
L 86.629636 79.54147 
L 88.072727 79.805046 
L 89.515818 80.200309 
L 90.958909 80.75382 
L 92.402 81.492458 
L 93.845091 82.441728 
L 95.288182 83.623523 
L 96.731273 85.053461 
L 98.174364 86.738038 
L 99.617455 88.672094 
L 101.060545 90.837221 
L 102.503636 93.201736 
L 103.946727 95.722624 
L 105.389818 98.349291 
L 106.832909 101.028489 
L 108.276 103.709271 
L 109.719091 106.346884 
L 111.162182 108.90478 
L 112.605273 111.354518 
L 114.048364 113.673821 
L 115.491455 115.843411 
L 116.934545 117.843348 
L 118.377636 119.649682 
L 119.820727 121.232387 
L 121.263818 122.555859 
L 122.706909 123.583525 
L 124.15 124.287142 
L 125.593091 124.658319 
L 127.036182 124.716097 
L 128.479273 124.505061 
L 129.922364 124.084873 
L 131.365455 123.517701 
L 132.808545 122.859187 
L 134.251636 122.154363 
L 135.694727 121.437152 
L 137.137818 120.731642 
L 138.580909 120.053935 
L 140.024 119.413978 
L 141.467091 118.817152 
L 142.910182 118.265564 
L 144.353273 117.759024 
L 145.796364 117.295779 
L 147.239455 116.873031 
L 148.682545 116.487329 
L 150.125636 116.134845 
L 151.568727 115.811585 
L 153.011818 115.513538 
L 154.454909 115.236763 
L 155.898 114.97744 
L 157.341091 114.731889 
L 158.784182 114.496577 
L 160.227273 114.268123 
L 161.670364 114.043316 
L 163.113455 113.819134 
L 164.556545 113.592778 
L 165.999636 113.361699 
L 167.442727 113.123619 
L 168.885818 112.87655 
L 170.328909 112.618785 
L 171.772 112.348901 
L 173.215091 112.065749 
L 174.658182 111.768465 
L 176.101273 111.456509 
L 177.544364 111.129715 
L 178.987455 110.788361 
L 180.430545 110.433225 
L 181.873636 110.065623 
L 183.316727 109.687399 
L 184.759818 109.300893 
L 186.202909 108.908886 
L 187.646 108.514554 
L 189.089091 108.121462 
L 190.532182 107.733597 
L 191.975273 107.355458 
L 193.418364 106.992189 
L 194.861455 106.649746 
L 196.304545 106.33508 
" style="fill:none;opacity:0.45;stroke:#b1400d;stroke-dasharray:2.775,1.2;stroke-dashoffset:0;stroke-width:0.75;"/>
   </g>
   <g id="line2d_19">
    <path clip-path="url(#p09748e7a48)" d="M 51.995455 123.887588 
L 53.438545 123.889435 
L 54.881636 123.893129 
L 56.324727 123.899536 
L 57.767818 123.909793 
L 59.210909 123.925337 
L 60.654 123.947938 
L 62.097091 123.979694 
L 63.540182 124.023009 
L 64.983273 124.080544 
L 66.426364 124.155146 
L 67.869455 124.249773 
L 69.312545 124.367422 
L 70.755636 124.511078 
L 72.198727 124.683687 
L 73.641818 124.888165 
L 75.084909 125.127425 
L 76.528 125.404427 
L 77.971091 125.722232 
L 79.414182 126.084079 
L 80.857273 126.493471 
L 82.300364 126.954298 
L 83.743455 127.470988 
L 85.186545 128.048682 
L 86.629636 128.693395 
L 88.072727 129.412103 
L 89.515818 130.21268 
L 90.958909 131.103552 
L 92.402 132.092964 
L 93.845091 133.187723 
L 95.288182 134.391415 
L 96.731273 135.702156 
L 98.174364 137.110191 
L 99.617455 138.595815 
L 101.060545 140.12827 
L 102.503636 141.666234 
L 103.946727 143.160291 
L 105.389818 144.55726 
L 106.832909 145.805727 
L 108.276 146.861705 
L 109.719091 147.693352 
L 111.162182 148.284008 
L 112.605273 148.633381 
L 114.048364 148.757231 
L 115.491455 148.68614 
L 116.934545 148.463957 
L 118.377636 148.146127 
L 119.820727 147.79757 
L 121.263818 147.489057 
L 122.706909 147.290515 
L 124.15 147.260514 
L 125.593091 147.434181 
L 127.036182 147.815508 
L 128.479273 148.379403 
L 129.922364 149.082485 
L 131.365455 149.876036 
L 132.808545 150.715434 
L 134.251636 151.564617 
L 135.694727 152.396932 
L 137.137818 153.19415 
L 138.580909 153.944885 
L 140.024 154.642972 
L 141.467091 155.286053 
L 142.910182 155.874446 
L 144.353273 156.410271 
L 145.796364 156.896825 
L 147.239455 157.338133 
L 148.682545 157.738631 
L 150.125636 158.102929 
L 151.568727 158.435648 
L 153.011818 158.741301 
L 154.454909 159.024232 
L 155.898 159.288589 
L 157.341091 159.538319 
L 158.784182 159.777179 
L 160.227273 160.008736 
L 161.670364 160.236369 
L 163.113455 160.463248 
L 164.556545 160.692317 
L 165.999636 160.926269 
L 167.442727 161.167534 
L 168.885818 161.418272 
L 170.328909 161.680382 
L 171.772 161.95552 
L 173.215091 162.245115 
L 174.658182 162.55037 
L 176.101273 162.872252 
L 177.544364 163.211452 
L 178.987455 163.568351 
L 180.430545 163.942991 
L 181.873636 164.33509 
L 183.316727 164.744094 
L 184.759818 165.169286 
L 186.202909 165.609913 
L 187.646 166.06534 
L 189.089091 166.535182 
L 190.532182 167.019419 
L 191.975273 167.518496 
L 193.418364 168.033416 
L 194.861455 168.565832 
L 196.304545 169.118182 
" style="fill:none;opacity:0.45;stroke:#b1400d;stroke-dasharray:2.775,1.2;stroke-dashoffset:0;stroke-width:0.75;"/>
   </g>
   <g id="line2d_20">
    <path clip-path="url(#p09748e7a48)" d="M 51.995455 67.460945 
L 53.438545 67.577289 
L 54.881636 67.722694 
L 56.324727 67.904083 
L 57.767818 68.129841 
L 59.210909 68.410018 
L 60.654 68.7565 
L 62.097091 69.183104 
L 63.540182 69.705538 
L 64.983273 70.341137 
L 66.426364 71.10827 
L 67.869455 72.025324 
L 69.312545 73.109171 
L 70.755636 74.373119 
L 72.198727 75.824466 
L 73.641818 77.461984 
L 75.084909 79.273858 
L 76.528 81.236725 
L 77.971091 83.316438 
L 79.414182 85.470821 
L 80.857273 87.65421 
L 82.300364 89.822987 
L 83.743455 91.940967 
L 85.186545 93.983555 
L 86.629636 95.939961 
L 88.072727 97.813321 
L 89.515818 99.619016 
L 90.958909 101.381737 
L 92.402 103.131805 
L 93.845091 104.901165 
L 95.288182 106.719282 
L 96.731273 108.609178 
L 98.174364 110.583873 
L 99.617455 112.643665 
L 101.060545 114.774788 
L 102.503636 116.949957 
L 103.946727 119.131027 
L 105.389818 121.27348 
L 106.832909 123.331943 
L 108.276 125.265601 
L 109.719091 127.04241 
L 111.162182 128.641435 
L 112.605273 130.053209 
L 114.048364 131.278491 
L 115.491455 132.326055 
L 116.934545 133.210148 
L 118.377636 133.948115 
L 119.820727 134.558449 
L 121.263818 135.05937 
L 122.706909 135.467907 
L 124.15 135.799385 
L 125.593091 136.067213 
L 127.036182 136.28288 
L 128.479273 136.456072 
L 129.922364 136.594848 
L 131.365455 136.705852 
L 132.808545 136.794517 
L 134.251636 136.86526 
L 135.694727 136.921654 
L 137.137818 136.966578 
L 138.580909 137.002347 
L 140.024 137.030815 
L 141.467091 137.053467 
L 142.910182 137.071489 
L 144.353273 137.085828 
L 145.796364 137.097241 
L 147.239455 137.10633 
L 148.682545 137.113576 
L 150.125636 137.119362 
L 151.568727 137.123995 
L 153.011818 137.127723 
L 154.454909 137.130741 
L 155.898 137.133211 
L 157.341091 137.135265 
L 158.784182 137.13701 
L 160.227273 137.138541 
L 161.670364 137.139939 
L 163.113455 137.141278 
L 164.556545 137.14263 
L 165.999636 137.144065 
L 167.442727 137.145662 
L 168.885818 137.147504 
L 170.328909 137.14969 
L 171.772 137.152335 
L 173.215091 137.155582 
L 174.658182 137.159601 
L 176.101273 137.164607 
L 177.544364 137.170865 
L 178.987455 137.178707 
L 180.430545 137.188548 
L 181.873636 137.200908 
L 183.316727 137.21644 
L 184.759818 137.23596 
L 186.202909 137.260493 
L 187.646 137.291321 
L 189.089091 137.330047 
L 190.532182 137.378673 
L 191.975273 137.439693 
L 193.418364 137.516206 
L 194.861455 137.61205 
L 196.304545 137.731959 
" style="fill:none;opacity:0.9;stroke:#12711c;stroke-linecap:round;stroke-width:1.5;"/>
   </g>
   <g id="line2d_21">
    <path clip-path="url(#p09748e7a48)" d="M 51.995455 102.076092 
L 53.438545 102.076959 
L 54.881636 102.07805 
L 56.324727 102.079424 
L 57.767818 102.081153 
L 59.210909 102.08333 
L 60.654 102.086071 
L 62.097091 102.08952 
L 63.540182 102.093861 
L 64.983273 102.099325 
L 66.426364 102.106201 
L 67.869455 102.114854 
L 69.312545 102.125741 
L 70.755636 102.139437 
L 72.198727 102.156665 
L 73.641818 102.178329 
L 75.084909 102.205564 
L 76.528 102.239791 
L 77.971091 102.282785 
L 79.414182 102.336761 
L 80.857273 102.404475 
L 82.300364 102.489348 
L 83.743455 102.595609 
L 85.186545 102.728461 
L 86.629636 102.894266 
L 88.072727 103.100744 
L 89.515818 103.35717 
L 90.958909 103.67455 
L 92.402 104.065728 
L 93.845091 104.545377 
L 95.288182 105.129794 
L 96.731273 105.83639 
L 98.174364 106.682787 
L 99.617455 107.6854 
L 101.060545 108.857494 
L 102.503636 110.206765 
L 103.946727 111.732719 
L 105.389818 113.424294 
L 106.832909 115.258363 
L 108.276 117.199757 
L 109.719091 119.203227 
L 111.162182 121.217298 
L 112.605273 123.189405 
L 114.048364 125.071255 
L 115.491455 126.823297 
L 116.934545 128.417482 
L 118.377636 129.83803 
L 119.820727 131.080471 
L 121.263818 132.149539 
L 122.706909 133.05658 
L 124.15 133.817012 
L 125.593091 134.448174 
L 127.036182 134.967697 
L 128.479273 135.392404 
L 129.922364 135.737658 
L 131.365455 136.017044 
L 132.808545 136.242294 
L 134.251636 136.423359 
L 135.694727 136.568557 
L 137.137818 136.68477 
L 138.580909 136.77764 
L 140.024 136.851766 
L 141.467091 136.910872 
L 142.910182 136.957965 
L 144.353273 136.995463 
L 145.796364 137.025306 
L 147.239455 137.049048 
L 148.682545 137.06793 
L 150.125636 137.082943 
L 151.568727 137.094877 
L 153.011818 137.104362 
L 154.454909 137.111901 
L 155.898 137.117891 
L 157.341091 137.122651 
L 158.784182 137.126432 
L 160.227273 137.129437 
L 161.670364 137.131823 
L 163.113455 137.13372 
L 164.556545 137.135226 
L 165.999636 137.136423 
L 167.442727 137.137373 
L 168.885818 137.138128 
L 170.328909 137.138728 
L 171.772 137.139205 
L 173.215091 137.139583 
L 174.658182 137.139884 
L 176.101273 137.140123 
L 177.544364 137.140312 
L 178.987455 137.140463 
L 180.430545 137.140583 
L 181.873636 137.140678 
L 183.316727 137.140753 
L 184.759818 137.140813 
L 186.202909 137.140861 
L 187.646 137.140899 
L 189.089091 137.140929 
L 190.532182 137.140953 
L 191.975273 137.140972 
L 193.418364 137.140987 
L 194.861455 137.140999 
L 196.304545 137.141008 
" style="fill:none;opacity:0.7;stroke:#000000;stroke-linecap:round;stroke-width:1.5;"/>
   </g>
   <g id="line2d_22">
    <path clip-path="url(#p09748e7a48)" d="M 51.995455 32.522845 
L 53.438545 32.402293 
L 54.881636 32.319146 
L 56.324727 32.281818 
L 57.767818 32.300069 
L 59.210909 32.385177 
L 60.654 32.550054 
L 62.097091 32.80927 
L 63.540182 33.178926 
L 64.983273 33.676332 
L 66.426364 34.319392 
L 67.869455 35.125621 
L 69.312545 36.110701 
L 70.755636 37.286596 
L 72.198727 38.659342 
L 73.641818 40.226782 
L 75.084909 41.976713 
L 76.528 43.886068 
L 77.971091 45.921742 
L 79.414182 48.043412 
L 80.857273 50.208122 
L 82.300364 52.375843 
L 83.743455 54.514828 
L 85.186545 56.605659 
L 86.629636 58.643319 
L 88.072727 60.637177 
L 89.515818 62.609232 
L 90.958909 64.591149 
L 92.402 66.620577 
L 93.845091 68.737096 
L 95.288182 70.977994 
L 96.731273 73.374078 
L 98.174364 75.945827 
L 99.617455 78.700307 
L 101.060545 81.629364 
L 102.503636 84.709585 
L 103.946727 87.904332 
L 105.389818 91.167758 
L 106.832909 94.450208 
L 108.276 97.703834 
L 109.719091 100.887056 
L 111.162182 103.966701 
L 112.605273 106.917423 
L 114.048364 109.718725 
L 115.491455 112.350519 
L 116.934545 114.788272 
L 118.377636 116.998805 
L 119.820727 118.937948 
L 121.263818 120.551817 
L 122.706909 121.784184 
L 124.15 122.591348 
L 125.593091 122.960615 
L 127.036182 122.921492 
L 128.479273 122.540307 
L 129.922364 121.901767 
L 131.365455 121.089855 
L 132.808545 120.176339 
L 134.251636 119.217123 
L 135.694727 118.253126 
L 137.137818 117.312841 
L 138.580909 116.415105 
L 140.024 115.571521 
L 141.467091 114.788447 
L 142.910182 114.068537 
L 144.353273 113.411895 
L 145.796364 112.816899 
L 147.239455 112.28078 
L 148.682545 111.800017 
L 150.125636 111.370635 
L 151.568727 110.988434 
L 153.011818 110.649174 
L 154.454909 110.348719 
L 155.898 110.083138 
L 157.341091 109.848763 
L 158.784182 109.642222 
L 160.227273 109.460448 
L 161.670364 109.30067 
L 163.113455 109.160406 
L 164.556545 109.037442 
L 165.999636 108.92982 
L 167.442727 108.835816 
L 168.885818 108.753926 
L 170.328909 108.682847 
L 171.772 108.621453 
L 173.215091 108.568772 
L 174.658182 108.523955 
L 176.101273 108.486251 
L 177.544364 108.454978 
L 178.987455 108.429497 
L 180.430545 108.40919 
L 181.873636 108.393433 
L 183.316727 108.38157 
L 184.759818 108.37288 
L 186.202909 108.366552 
L 187.646 108.361662 
L 189.089091 108.35716 
L 190.532182 108.351894 
L 191.975273 108.344683 
L 193.418364 108.334456 
L 194.861455 108.320488 
L 196.304545 108.302742 
" style="fill:none;opacity:0.45;stroke:#12711c;stroke-dasharray:2.775,1.2;stroke-dashoffset:0;stroke-width:0.75;"/>
   </g>
   <g id="line2d_23">
    <path clip-path="url(#p09748e7a48)" d="M 51.995455 102.399045 
L 53.438545 102.752286 
L 54.881636 103.126242 
L 56.324727 103.526348 
L 57.767818 103.959614 
L 59.210909 104.43486 
L 60.654 104.962945 
L 62.097091 105.556937 
L 63.540182 106.23215 
L 64.983273 107.005942 
L 66.426364 107.897147 
L 67.869455 108.925026 
L 69.312545 110.107642 
L 70.755636 111.459643 
L 72.198727 112.989591 
L 73.641818 114.697187 
L 75.084909 116.571003 
L 76.528 118.587383 
L 77.971091 120.711134 
L 79.414182 122.898229 
L 80.857273 125.100298 
L 82.300364 127.270131 
L 83.743455 129.367106 
L 85.186545 131.361451 
L 86.629636 133.236604 
L 88.072727 134.989465 
L 89.515818 136.6288 
L 90.958909 138.172325 
L 92.402 139.643034 
L 93.845091 141.065234 
L 95.288182 142.460569 
L 96.731273 143.844277 
L 98.174364 145.221919 
L 99.617455 146.587024 
L 101.060545 147.920212 
L 102.503636 149.19033 
L 103.946727 150.357722 
L 105.389818 151.379201 
L 106.832909 152.213678 
L 108.276 152.827368 
L 109.719091 153.197765 
L 111.162182 153.316168 
L 112.605273 153.188995 
L 114.048364 152.838258 
L 115.491455 152.30159 
L 116.934545 151.632024 
L 118.377636 150.897425 
L 119.820727 150.17895 
L 121.263818 149.566923 
L 122.706909 149.15163 
L 124.15 149.007422 
L 125.593091 149.173811 
L 127.036182 149.644269 
L 128.479273 150.371837 
L 129.922364 151.287929 
L 131.365455 152.321849 
L 132.808545 153.412696 
L 134.251636 154.513398 
L 135.694727 155.590183 
L 137.137818 156.620315 
L 138.580909 157.589589 
L 140.024 158.490109 
L 141.467091 159.318486 
L 142.910182 160.07444 
L 144.353273 160.759762 
L 145.796364 161.377584 
L 147.239455 161.93188 
L 148.682545 162.427134 
L 150.125636 162.868088 
L 151.568727 163.259557 
L 153.011818 163.606271 
L 154.454909 163.912763 
L 155.898 164.183284 
L 157.341091 164.421766 
L 158.784182 164.631798 
L 160.227273 164.816635 
L 161.670364 164.979209 
L 163.113455 165.122151 
L 164.556545 165.247817 
L 165.999636 165.35831 
L 167.442727 165.455508 
L 168.885818 165.541082 
L 170.328909 165.616532 
L 171.772 165.683218 
L 173.215091 165.742391 
L 174.658182 165.795247 
L 176.101273 165.842963 
L 177.544364 165.886753 
L 178.987455 165.927918 
L 180.430545 165.967907 
L 181.873636 166.008384 
L 183.316727 166.05131 
L 184.759818 166.09904 
L 186.202909 166.154433 
L 187.646 166.220979 
L 189.089091 166.302934 
L 190.532182 166.405452 
L 191.975273 166.534703 
L 193.418364 166.697956 
L 194.861455 166.903613 
L 196.304545 167.161175 
" style="fill:none;opacity:0.45;stroke:#12711c;stroke-dasharray:2.775,1.2;stroke-dashoffset:0;stroke-width:0.75;"/>
   </g>
   <g id="line2d_24">
    <path clip-path="url(#p09748e7a48)" d="M 51.995455 102.110843 
L 53.438545 102.120846 
L 54.881636 102.1334 
L 56.324727 102.149167 
L 57.767818 102.168977 
L 59.210909 102.193869 
L 60.654 102.225143 
L 62.097091 102.264426 
L 63.540182 102.313747 
L 64.983273 102.375634 
L 66.426364 102.453228 
L 67.869455 102.550418 
L 69.312545 102.671999 
L 70.755636 102.823847 
L 72.198727 103.01312 
L 73.641818 103.24845 
L 75.084909 103.540136 
L 76.528 103.900285 
L 77.971091 104.342853 
L 79.414182 104.883532 
L 80.857273 105.539374 
L 82.300364 106.328057 
L 83.743455 107.266679 
L 85.186545 108.370026 
L 86.629636 109.648321 
L 88.072727 111.104641 
L 89.515818 112.732374 
L 90.958909 114.513291 
L 92.402 116.416893 
L 93.845091 118.40158 
L 95.288182 120.417791 
L 96.731273 122.412739 
L 98.174364 124.335822 
L 99.617455 126.143571 
L 101.060545 127.803156 
L 102.503636 129.293945 
L 103.946727 130.607167 
L 105.389818 131.744191 
L 106.832909 132.714048 
L 108.276 133.530821 
L 109.719091 134.21131 
L 111.162182 134.773188 
L 112.605273 135.233701 
L 114.048364 135.608848 
L 115.491455 135.912942 
L 116.934545 136.158451 
L 118.377636 136.356019 
L 119.820727 136.514593 
L 121.263818 136.641602 
L 122.706909 136.743158 
L 124.15 136.824253 
L 125.593091 136.888941 
L 127.036182 136.940496 
L 128.479273 136.981556 
L 129.922364 137.014241 
L 131.365455 137.040248 
L 132.808545 137.060933 
L 134.251636 137.077383 
L 135.694727 137.09046 
L 137.137818 137.100856 
L 138.580909 137.109119 
L 140.024 137.115687 
L 141.467091 137.120907 
L 142.910182 137.125056 
L 144.353273 137.128356 
L 145.796364 137.13098 
L 147.239455 137.133069 
L 148.682545 137.134733 
L 150.125636 137.136061 
L 151.568727 137.137124 
L 153.011818 137.137979 
L 154.454909 137.13867 
L 155.898 137.139234 
L 157.341091 137.139703 
L 158.784182 137.1401 
L 160.227273 137.140446 
L 161.670364 137.140761 
L 163.113455 137.14106 
L 164.556545 137.14136 
L 165.999636 137.141677 
L 167.442727 137.142028 
L 168.885818 137.142431 
L 170.328909 137.142908 
L 171.772 137.143484 
L 173.215091 137.144189 
L 174.658182 137.145063 
L 176.101273 137.14615 
L 177.544364 137.147508 
L 178.987455 137.149211 
L 180.430545 137.151349 
L 181.873636 137.154034 
L 183.316727 137.157411 
L 184.759818 137.161657 
L 186.202909 137.167 
L 187.646 137.173721 
L 189.089091 137.182178 
L 190.532182 137.192818 
L 191.975273 137.206202 
L 193.418364 137.223036 
L 194.861455 137.244205 
L 196.304545 137.270819 
" style="fill:none;opacity:0.9;stroke:#8c0800;stroke-linecap:round;stroke-width:1.5;"/>
   </g>
   <g id="line2d_25">
    <path clip-path="url(#p09748e7a48)" d="M 51.995455 102.076092 
L 53.438545 102.076959 
L 54.881636 102.07805 
L 56.324727 102.079424 
L 57.767818 102.081153 
L 59.210909 102.08333 
L 60.654 102.086071 
L 62.097091 102.08952 
L 63.540182 102.093861 
L 64.983273 102.099325 
L 66.426364 102.106201 
L 67.869455 102.114854 
L 69.312545 102.125741 
L 70.755636 102.139437 
L 72.198727 102.156665 
L 73.641818 102.178329 
L 75.084909 102.205564 
L 76.528 102.239791 
L 77.971091 102.282785 
L 79.414182 102.336761 
L 80.857273 102.404475 
L 82.300364 102.489348 
L 83.743455 102.595609 
L 85.186545 102.728461 
L 86.629636 102.894266 
L 88.072727 103.100744 
L 89.515818 103.35717 
L 90.958909 103.67455 
L 92.402 104.065728 
L 93.845091 104.545377 
L 95.288182 105.129794 
L 96.731273 105.83639 
L 98.174364 106.682787 
L 99.617455 107.6854 
L 101.060545 108.857494 
L 102.503636 110.206765 
L 103.946727 111.732719 
L 105.389818 113.424294 
L 106.832909 115.258363 
L 108.276 117.199757 
L 109.719091 119.203227 
L 111.162182 121.217298 
L 112.605273 123.189405 
L 114.048364 125.071255 
L 115.491455 126.823297 
L 116.934545 128.417482 
L 118.377636 129.83803 
L 119.820727 131.080471 
L 121.263818 132.149539 
L 122.706909 133.05658 
L 124.15 133.817012 
L 125.593091 134.448174 
L 127.036182 134.967697 
L 128.479273 135.392404 
L 129.922364 135.737658 
L 131.365455 136.017044 
L 132.808545 136.242294 
L 134.251636 136.423359 
L 135.694727 136.568557 
L 137.137818 136.68477 
L 138.580909 136.77764 
L 140.024 136.851766 
L 141.467091 136.910872 
L 142.910182 136.957965 
L 144.353273 136.995463 
L 145.796364 137.025306 
L 147.239455 137.049048 
L 148.682545 137.06793 
L 150.125636 137.082943 
L 151.568727 137.094877 
L 153.011818 137.104362 
L 154.454909 137.111901 
L 155.898 137.117891 
L 157.341091 137.122651 
L 158.784182 137.126432 
L 160.227273 137.129437 
L 161.670364 137.131823 
L 163.113455 137.13372 
L 164.556545 137.135226 
L 165.999636 137.136423 
L 167.442727 137.137373 
L 168.885818 137.138128 
L 170.328909 137.138728 
L 171.772 137.139205 
L 173.215091 137.139583 
L 174.658182 137.139884 
L 176.101273 137.140123 
L 177.544364 137.140312 
L 178.987455 137.140463 
L 180.430545 137.140583 
L 181.873636 137.140678 
L 183.316727 137.140753 
L 184.759818 137.140813 
L 186.202909 137.140861 
L 187.646 137.140899 
L 189.089091 137.140929 
L 190.532182 137.140953 
L 191.975273 137.140972 
L 193.418364 137.140987 
L 194.861455 137.140999 
L 196.304545 137.141008 
" style="fill:none;opacity:0.7;stroke:#000000;stroke-linecap:round;stroke-width:1.5;"/>
   </g>
   <g id="line2d_26">
    <path clip-path="url(#p09748e7a48)" d="M 51.995455 84.457716 
L 53.438545 83.942978 
L 54.881636 83.42995 
L 56.324727 82.920436 
L 57.767818 82.416436 
L 59.210909 81.920255 
L 60.654 81.434609 
L 62.097091 80.962697 
L 63.540182 80.508234 
L 64.983273 80.075442 
L 66.426364 79.669036 
L 67.869455 79.294239 
L 69.312545 78.956859 
L 70.755636 78.663443 
L 72.198727 78.421491 
L 73.641818 78.239713 
L 75.084909 78.128282 
L 76.528 78.099056 
L 77.971091 78.165696 
L 79.414182 78.343637 
L 80.857273 78.649807 
L 82.300364 79.101982 
L 83.743455 79.71765 
L 85.186545 80.5123 
L 86.629636 81.497147 
L 88.072727 82.676474 
L 89.515818 84.044984 
L 90.958909 85.585759 
L 92.402 87.269525 
L 93.845091 89.055774 
L 95.288182 90.895937 
L 96.731273 92.738182 
L 98.174364 94.532918 
L 99.617455 96.237814 
L 101.060545 97.821322 
L 102.503636 99.264207 
L 103.946727 100.559138 
L 105.389818 101.708872 
L 106.832909 102.7237 
L 108.276 103.618793 
L 109.719091 104.411851 
L 111.162182 105.121262 
L 112.605273 105.764808 
L 114.048364 106.358833 
L 115.491455 106.917775 
L 116.934545 107.453958 
L 118.377636 107.977572 
L 119.820727 108.496779 
L 121.263818 109.017902 
L 122.706909 109.545652 
L 124.15 110.083366 
L 125.593091 110.633241 
L 127.036182 111.19655 
L 128.479273 111.773837 
L 129.922364 112.365079 
L 131.365455 112.969816 
L 132.808545 113.587255 
L 134.251636 114.216358 
L 135.694727 114.855928 
L 137.137818 115.504718 
L 138.580909 116.16154 
L 140.024 116.825365 
L 141.467091 117.495338 
L 142.910182 118.170677 
L 144.353273 118.850504 
L 145.796364 119.533712 
L 147.239455 120.218951 
L 148.682545 120.904734 
L 150.125636 121.58957 
L 151.568727 122.27187 
L 153.011818 122.949476 
L 154.454909 123.619159 
L 155.898 124.276664 
L 157.341091 124.91735 
L 158.784182 125.5367 
L 160.227273 126.130208 
L 161.670364 126.693267 
L 163.113455 127.221672 
L 164.556545 127.712198 
L 165.999636 128.162581 
L 167.442727 128.570948 
L 168.885818 128.934884 
L 170.328909 129.250389 
L 171.772 129.511369 
L 173.215091 129.710034 
L 174.658182 129.837922 
L 176.101273 129.88725 
L 177.544364 129.852576 
L 178.987455 129.732468 
L 180.430545 129.530131 
L 181.873636 129.25224 
L 183.316727 128.906747 
L 184.759818 128.501162 
L 186.202909 128.042052 
L 187.646 127.535407 
L 189.089091 126.987053 
L 190.532182 126.402692 
L 191.975273 125.787759 
L 193.418364 125.147327 
L 194.861455 124.486121 
L 196.304545 123.808576 
" style="fill:none;opacity:0.45;stroke:#8c0800;stroke-dasharray:2.775,1.2;stroke-dashoffset:0;stroke-width:0.75;"/>
   </g>
   <g id="line2d_27">
    <path clip-path="url(#p09748e7a48)" d="M 51.995455 119.763969 
L 53.438545 120.298714 
L 54.881636 120.83685 
L 56.324727 121.377898 
L 57.767818 121.921519 
L 59.210909 122.467483 
L 60.654 123.015678 
L 62.097091 123.566155 
L 63.540182 124.119259 
L 64.983273 124.675825 
L 66.426364 125.23742 
L 67.869455 125.806597 
L 69.312545 126.387138 
L 70.755636 126.984251 
L 72.198727 127.604748 
L 73.641818 128.257187 
L 75.084909 128.951991 
L 76.528 129.701514 
L 77.971091 130.52001 
L 79.414182 131.423428 
L 80.857273 132.428942 
L 82.300364 133.554132 
L 83.743455 134.815708 
L 85.186545 136.227751 
L 86.629636 137.799495 
L 88.072727 139.532808 
L 89.515818 141.419764 
L 90.958909 143.440822 
L 92.402 145.564262 
L 93.845091 147.747386 
L 95.288182 149.939645 
L 96.731273 152.087296 
L 98.174364 154.138725 
L 99.617455 156.049328 
L 101.060545 157.784991 
L 102.503636 159.323682 
L 103.946727 160.655195 
L 105.389818 161.779511 
L 106.832909 162.704397 
L 108.276 163.442849 
L 109.719091 164.010768 
L 111.162182 164.425113 
L 112.605273 164.702595 
L 114.048364 164.858864 
L 115.491455 164.908109 
L 116.934545 164.862944 
L 118.377636 164.734466 
L 119.820727 164.532406 
L 121.263818 164.265301 
L 122.706909 163.940664 
L 124.15 163.565141 
L 125.593091 163.14464 
L 127.036182 162.684441 
L 128.479273 162.189276 
L 129.922364 161.663404 
L 131.365455 161.11068 
L 132.808545 160.534612 
L 134.251636 159.938407 
L 135.694727 159.324992 
L 137.137818 158.696994 
L 138.580909 158.056698 
L 140.024 157.406009 
L 141.467091 156.746476 
L 142.910182 156.079436 
L 144.353273 155.406207 
L 145.796364 154.728247 
L 147.239455 154.047186 
L 148.682545 153.364732 
L 150.125636 152.682552 
L 151.568727 152.002379 
L 153.011818 151.326482 
L 154.454909 150.65818 
L 155.898 150.001805 
L 157.341091 149.362055 
L 158.784182 148.743499 
L 160.227273 148.150684 
L 161.670364 147.588254 
L 163.113455 147.060448 
L 164.556545 146.570522 
L 165.999636 146.120773 
L 167.442727 145.713108 
L 168.885818 145.349978 
L 170.328909 145.035426 
L 171.772 144.775598 
L 173.215091 144.578345 
L 174.658182 144.452204 
L 176.101273 144.405049 
L 177.544364 144.442441 
L 178.987455 144.565954 
L 180.430545 144.772566 
L 181.873636 145.055828 
L 183.316727 145.408074 
L 184.759818 145.822152 
L 186.202909 146.291947 
L 187.646 146.812035 
L 189.089091 147.377304 
L 190.532182 147.982943 
L 191.975273 148.624644 
L 193.418364 149.298744 
L 194.861455 150.00229 
L 196.304545 150.733062 
" style="fill:none;opacity:0.45;stroke:#8c0800;stroke-dasharray:2.775,1.2;stroke-dashoffset:0;stroke-width:0.75;"/>
   </g>
   <g id="line2d_28">
    <path clip-path="url(#p09748e7a48)" d="M 51.995455 102.094327 
L 53.438545 102.099928 
L 54.881636 102.106974 
L 56.324727 102.115837 
L 57.767818 102.126986 
L 59.210909 102.141011 
L 60.654 102.158649 
L 62.097091 102.180828 
L 63.540182 102.208709 
L 64.983273 102.243745 
L 66.426364 102.287753 
L 67.869455 102.342997 
L 69.312545 102.412296 
L 70.755636 102.499147 
L 72.198727 102.60787 
L 73.641818 102.743777 
L 75.084909 102.913361 
L 76.528 103.124491 
L 77.971091 103.386612 
L 79.414182 103.710915 
L 80.857273 104.110433 
L 82.300364 104.600019 
L 83.743455 105.196113 
L 85.186545 105.916198 
L 86.629636 106.777845 
L 88.072727 107.797247 
L 89.515818 108.987215 
L 90.958909 110.354729 
L 92.402 111.898315 
L 93.845091 113.605725 
L 95.288182 115.45257 
L 96.731273 117.402527 
L 98.174364 119.409504 
L 99.617455 121.421668 
L 101.060545 123.386649 
L 102.503636 125.256866 
L 103.946727 126.993853 
L 105.389818 128.570811 
L 106.832909 129.973184 
L 108.276 131.197554 
L 109.719091 132.249452 
L 111.162182 133.140751 
L 112.605273 133.887158 
L 114.048364 134.506107 
L 115.491455 135.015187 
L 116.934545 135.431097 
L 118.377636 135.769025 
L 119.820727 136.042371 
L 121.263818 136.262677 
L 122.706909 136.43972 
L 124.15 136.581663 
L 125.593091 136.69525 
L 127.036182 136.78601 
L 128.479273 136.858443 
L 129.922364 136.916195 
L 131.365455 136.962206 
L 132.808545 136.998841 
L 134.251636 137.027996 
L 135.694727 137.051191 
L 137.137818 137.069637 
L 138.580909 137.084305 
L 140.024 137.095966 
L 141.467091 137.105235 
L 142.910182 137.112604 
L 144.353273 137.118462 
L 145.796364 137.123119 
L 147.239455 137.126824 
L 148.682545 137.129772 
L 150.125636 137.13212 
L 151.568727 137.133994 
L 153.011818 137.135492 
L 154.454909 137.136694 
L 155.898 137.137665 
L 157.341091 137.138456 
L 158.784182 137.139109 
L 160.227273 137.139659 
L 161.670364 137.140136 
L 163.113455 137.140564 
L 164.556545 137.140966 
L 165.999636 137.141364 
L 167.442727 137.141779 
L 168.885818 137.142233 
L 170.328909 137.142751 
L 171.772 137.143359 
L 173.215091 137.14409 
L 174.658182 137.144984 
L 176.101273 137.146087 
L 177.544364 137.147459 
L 178.987455 137.149172 
L 180.430545 137.151317 
L 181.873636 137.154009 
L 183.316727 137.157391 
L 184.759818 137.161642 
L 186.202909 137.166987 
L 187.646 137.173711 
L 189.089091 137.18217 
L 190.532182 137.192811 
L 191.975273 137.206197 
L 193.418364 137.223032 
L 194.861455 137.244202 
L 196.304545 137.270816 
" style="fill:none;opacity:0.9;stroke:#591e71;stroke-linecap:round;stroke-width:1.5;"/>
   </g>
   <g id="line2d_29">
    <path clip-path="url(#p09748e7a48)" d="M 51.995455 102.076092 
L 53.438545 102.076959 
L 54.881636 102.07805 
L 56.324727 102.079424 
L 57.767818 102.081153 
L 59.210909 102.08333 
L 60.654 102.086071 
L 62.097091 102.08952 
L 63.540182 102.093861 
L 64.983273 102.099325 
L 66.426364 102.106201 
L 67.869455 102.114854 
L 69.312545 102.125741 
L 70.755636 102.139437 
L 72.198727 102.156665 
L 73.641818 102.178329 
L 75.084909 102.205564 
L 76.528 102.239791 
L 77.971091 102.282785 
L 79.414182 102.336761 
L 80.857273 102.404475 
L 82.300364 102.489348 
L 83.743455 102.595609 
L 85.186545 102.728461 
L 86.629636 102.894266 
L 88.072727 103.100744 
L 89.515818 103.35717 
L 90.958909 103.67455 
L 92.402 104.065728 
L 93.845091 104.545377 
L 95.288182 105.129794 
L 96.731273 105.83639 
L 98.174364 106.682787 
L 99.617455 107.6854 
L 101.060545 108.857494 
L 102.503636 110.206765 
L 103.946727 111.732719 
L 105.389818 113.424294 
L 106.832909 115.258363 
L 108.276 117.199757 
L 109.719091 119.203227 
L 111.162182 121.217298 
L 112.605273 123.189405 
L 114.048364 125.071255 
L 115.491455 126.823297 
L 116.934545 128.417482 
L 118.377636 129.83803 
L 119.820727 131.080471 
L 121.263818 132.149539 
L 122.706909 133.05658 
L 124.15 133.817012 
L 125.593091 134.448174 
L 127.036182 134.967697 
L 128.479273 135.392404 
L 129.922364 135.737658 
L 131.365455 136.017044 
L 132.808545 136.242294 
L 134.251636 136.423359 
L 135.694727 136.568557 
L 137.137818 136.68477 
L 138.580909 136.77764 
L 140.024 136.851766 
L 141.467091 136.910872 
L 142.910182 136.957965 
L 144.353273 136.995463 
L 145.796364 137.025306 
L 147.239455 137.049048 
L 148.682545 137.06793 
L 150.125636 137.082943 
L 151.568727 137.094877 
L 153.011818 137.104362 
L 154.454909 137.111901 
L 155.898 137.117891 
L 157.341091 137.122651 
L 158.784182 137.126432 
L 160.227273 137.129437 
L 161.670364 137.131823 
L 163.113455 137.13372 
L 164.556545 137.135226 
L 165.999636 137.136423 
L 167.442727 137.137373 
L 168.885818 137.138128 
L 170.328909 137.138728 
L 171.772 137.139205 
L 173.215091 137.139583 
L 174.658182 137.139884 
L 176.101273 137.140123 
L 177.544364 137.140312 
L 178.987455 137.140463 
L 180.430545 137.140583 
L 181.873636 137.140678 
L 183.316727 137.140753 
L 184.759818 137.140813 
L 186.202909 137.140861 
L 187.646 137.140899 
L 189.089091 137.140929 
L 190.532182 137.140953 
L 191.975273 137.140972 
L 193.418364 137.140987 
L 194.861455 137.140999 
L 196.304545 137.141008 
" style="fill:none;opacity:0.7;stroke:#000000;stroke-linecap:round;stroke-width:1.5;"/>
   </g>
   <g id="line2d_30">
    <path clip-path="url(#p09748e7a48)" d="M 51.995455 97.248013 
L 53.438545 97.256994 
L 54.881636 97.263406 
L 56.324727 97.2663 
L 57.767818 97.263993 
L 59.210909 97.25391 
L 60.654 97.232414 
L 62.097091 97.194671 
L 63.540182 97.134608 
L 64.983273 97.045028 
L 66.426364 96.917966 
L 67.869455 96.745324 
L 69.312545 96.519772 
L 70.755636 96.23581 
L 72.198727 95.890832 
L 73.641818 95.486045 
L 75.084909 95.027147 
L 76.528 94.524752 
L 77.971091 93.994596 
L 79.414182 93.457587 
L 80.857273 92.93967 
L 82.300364 92.471508 
L 83.743455 92.087872 
L 85.186545 91.826652 
L 86.629636 91.727363 
L 88.072727 91.829045 
L 89.515818 92.167545 
L 90.958909 92.772266 
L 92.402 93.662709 
L 93.845091 94.845315 
L 95.288182 96.311323 
L 96.731273 98.036335 
L 98.174364 99.981992 
L 99.617455 102.099714 
L 101.060545 104.335805 
L 102.503636 106.636868 
L 103.946727 108.954387 
L 105.389818 111.247715 
L 106.832909 113.485206 
L 108.276 115.643791 
L 109.719091 117.707557 
L 111.162182 119.665917 
L 112.605273 121.511851 
L 114.048364 123.240443 
L 115.491455 124.847782 
L 116.934545 126.330164 
L 118.377636 127.683491 
L 119.820727 128.9028 
L 121.263818 129.9819 
L 122.706909 130.913288 
L 124.15 131.688728 
L 125.593091 132.301128 
L 127.036182 132.748177 
L 128.479273 133.036849 
L 129.922364 133.185852 
L 131.365455 133.223233 
L 132.808545 133.180111 
L 134.251636 133.084566 
L 135.694727 132.958449 
L 137.137818 132.816978 
L 138.580909 132.669771 
L 140.024 132.522235 
L 141.467091 132.376803 
L 142.910182 132.233892 
L 144.353273 132.092612 
L 145.796364 131.951274 
L 147.239455 131.807762 
L 148.682545 131.659804 
L 150.125636 131.505148 
L 151.568727 131.341666 
L 153.011818 131.167393 
L 154.454909 130.980519 
L 155.898 130.779361 
L 157.341091 130.562348 
L 158.784182 130.328035 
L 160.227273 130.07514 
L 161.670364 129.802611 
L 163.113455 129.509681 
L 164.556545 129.195908 
L 165.999636 128.861179 
L 167.442727 128.50567 
L 168.885818 128.129782 
L 170.328909 127.734075 
L 171.772 127.319197 
L 173.215091 126.885839 
L 174.658182 126.434697 
L 176.101273 125.966432 
L 177.544364 125.481633 
L 178.987455 124.980788 
L 180.430545 124.46428 
L 181.873636 123.932429 
L 183.316727 123.385567 
L 184.759818 122.824148 
L 186.202909 122.24887 
L 187.646 121.660789 
L 189.089091 121.061405 
L 190.532182 120.452707 
L 191.975273 119.83717 
L 193.418364 119.217722 
L 194.861455 118.597686 
L 196.304545 117.980741 
" style="fill:none;opacity:0.45;stroke:#591e71;stroke-dasharray:2.775,1.2;stroke-dashoffset:0;stroke-width:0.75;"/>
   </g>
   <g id="line2d_31">
    <path clip-path="url(#p09748e7a48)" d="M 51.995455 106.94064 
L 53.438545 106.942863 
L 54.881636 106.950541 
L 56.324727 106.965374 
L 57.767818 106.98998 
L 59.210909 107.028112 
L 60.654 107.084884 
L 62.097091 107.166985 
L 63.540182 107.28281 
L 64.983273 107.442462 
L 66.426364 107.65754 
L 67.869455 107.94067 
L 69.312545 108.30482 
L 70.755636 108.762484 
L 72.198727 109.324908 
L 73.641818 110.00151 
L 75.084909 110.799574 
L 76.528 111.72423 
L 77.971091 112.778628 
L 79.414182 113.964242 
L 80.857273 115.281195 
L 82.300364 116.72853 
L 83.743455 118.304354 
L 85.186545 120.005744 
L 86.629636 121.828327 
L 88.072727 123.765448 
L 89.515818 125.806884 
L 90.958909 127.937192 
L 92.402 130.13392 
L 93.845091 132.366135 
L 95.288182 134.593817 
L 96.731273 136.76872 
L 98.174364 138.837017 
L 99.617455 140.743622 
L 101.060545 142.437492 
L 102.503636 143.876865 
L 103.946727 145.033319 
L 105.389818 145.893906 
L 106.832909 146.461163 
L 108.276 146.751317 
L 109.719091 146.791346 
L 111.162182 146.615585 
L 112.605273 146.262465 
L 114.048364 145.77177 
L 115.491455 145.182592 
L 116.934545 144.53203 
L 118.377636 143.854559 
L 119.820727 143.181941 
L 121.263818 142.543455 
L 122.706909 141.966152 
L 124.15 141.474597 
L 125.593091 141.089372 
L 127.036182 140.823843 
L 128.479273 140.680037 
L 129.922364 140.646538 
L 131.365455 140.701178 
L 132.808545 140.81757 
L 134.251636 140.971426 
L 135.694727 141.143932 
L 137.137818 141.322296 
L 138.580909 141.498838 
L 140.024 141.669696 
L 141.467091 141.833668 
L 142.910182 141.991316 
L 144.353273 142.144311 
L 145.796364 142.294965 
L 147.239455 142.445885 
L 148.682545 142.59974 
L 150.125636 142.759093 
L 151.568727 142.926321 
L 153.011818 143.10359 
L 154.454909 143.292869 
L 155.898 143.495969 
L 157.341091 143.714564 
L 158.784182 143.950183 
L 160.227273 144.204178 
L 161.670364 144.477661 
L 163.113455 144.771447 
L 164.556545 145.086023 
L 165.999636 145.421549 
L 167.442727 145.777889 
L 168.885818 146.154685 
L 170.328909 146.551427 
L 171.772 146.967521 
L 173.215091 147.402342 
L 174.658182 147.855271 
L 176.101273 148.325742 
L 177.544364 148.813284 
L 178.987455 149.317556 
L 180.430545 149.838354 
L 181.873636 150.375589 
L 183.316727 150.929214 
L 184.759818 151.499135 
L 186.202909 152.085104 
L 187.646 152.686634 
L 189.089091 153.302935 
L 190.532182 153.932916 
L 191.975273 154.575223 
L 193.418364 155.228341 
L 194.861455 155.890718 
L 196.304545 156.560892 
" style="fill:none;opacity:0.45;stroke:#591e71;stroke-dasharray:2.775,1.2;stroke-dashoffset:0;stroke-width:0.75;"/>
   </g>
   <g id="patch_3">
    <path d="M 44.78 175.96 
L 44.78 25.44 
" style="fill:none;stroke:#262626;stroke-linecap:square;stroke-linejoin:miter;stroke-width:0.8;"/>
   </g>
   <g id="patch_4">
    <path d="M 44.78 175.96 
L 203.52 175.96 
" style="fill:none;stroke:#262626;stroke-linecap:square;stroke-linejoin:miter;stroke-width:0.8;"/>
   </g>
   <g id="text_14">
    <!-- SM04 -->
    <defs>
     <path d="M 4.5 23 
L 13.421875 23.78125 
Q 14.0625 18.40625 16.375 14.96875 
Q 18.703125 11.53125 23.578125 9.40625 
Q 28.46875 7.28125 34.578125 7.28125 
Q 39.984375 7.28125 44.140625 8.890625 
Q 48.296875 10.5 50.3125 13.296875 
Q 52.34375 16.109375 52.34375 19.4375 
Q 52.34375 22.796875 50.390625 25.3125 
Q 48.4375 27.828125 43.953125 29.546875 
Q 41.0625 30.671875 31.203125 33.03125 
Q 21.34375 35.40625 17.390625 37.5 
Q 12.25 40.1875 9.734375 44.15625 
Q 7.234375 48.140625 7.234375 53.078125 
Q 7.234375 58.5 10.296875 63.203125 
Q 13.375 67.921875 19.28125 70.359375 
Q 25.203125 72.796875 32.421875 72.796875 
Q 40.375 72.796875 46.453125 70.234375 
Q 52.546875 67.671875 55.8125 62.6875 
Q 59.078125 57.71875 59.328125 51.421875 
L 50.25 50.734375 
Q 49.515625 57.515625 45.28125 60.984375 
Q 41.0625 64.453125 32.8125 64.453125 
Q 24.21875 64.453125 20.28125 61.296875 
Q 16.359375 58.15625 16.359375 53.71875 
Q 16.359375 49.859375 19.140625 47.359375 
Q 21.875 44.875 33.421875 42.265625 
Q 44.96875 39.65625 49.265625 37.703125 
Q 55.515625 34.8125 58.484375 30.390625 
Q 61.46875 25.984375 61.46875 20.21875 
Q 61.46875 14.5 58.203125 9.4375 
Q 54.9375 4.390625 48.796875 1.578125 
Q 42.671875 -1.21875 35.015625 -1.21875 
Q 25.296875 -1.21875 18.71875 1.609375 
Q 12.15625 4.4375 8.421875 10.125 
Q 4.6875 15.828125 4.5 23 
z
" id="ArialMT-53"/>
     <path d="M 7.421875 0 
L 7.421875 71.578125 
L 21.6875 71.578125 
L 38.625 20.90625 
Q 40.96875 13.8125 42.046875 10.296875 
Q 43.265625 14.203125 45.84375 21.78125 
L 62.984375 71.578125 
L 75.734375 71.578125 
L 75.734375 0 
L 66.609375 0 
L 66.609375 59.90625 
L 45.796875 0 
L 37.25 0 
L 16.546875 60.9375 
L 16.546875 0 
z
" id="ArialMT-4d"/>
    </defs>
    <g style="fill:#262626;" transform="translate(108.476875 19.44)scale(0.12 -0.12)">
     <use xlink:href="#ArialMT-53"/>
     <use x="66.699219" xlink:href="#ArialMT-4d"/>
     <use x="150" xlink:href="#ArialMT-30"/>
     <use x="205.615234" xlink:href="#ArialMT-34"/>
    </g>
   </g>
  </g>
 </g>
 <defs>
  <clipPath id="p09748e7a48">
   <rect height="150.52" width="158.74" x="44.78" y="25.44"/>
  </clipPath>
 </defs>
</svg>
