<?xml version="1.0" encoding="utf-8" standalone="no"?>
<!DOCTYPE svg PUBLIC "-//W3C//DTD SVG 1.1//EN"
  "http://www.w3.org/Graphics/SVG/1.1/DTD/svg11.dtd">
<!-- Created with matplotlib (http://matplotlib.org/) -->
<svg height="216pt" version="1.1" viewBox="0 0 216 216" width="216pt" xmlns="http://www.w3.org/2000/svg" xmlns:xlink="http://www.w3.org/1999/xlink">
 <defs>
  <style type="text/css">
*{stroke-linecap:butt;stroke-linejoin:round;}
  </style>
 </defs>
 <g id="figure_1">
  <g id="patch_1">
   <path d="M 0 216 
L 216 216 
L 216 0 
L 0 0 
z
" style="fill:#ffffff;"/>
  </g>
  <g id="axes_1">
   <g id="patch_2">
    <path d="M 44.78 175.96 
L 203.52 175.96 
L 203.52 25.44 
L 44.78 25.44 
z
" style="fill:#ffffff;"/>
   </g>
   <g id="matplotlib.axis_1">
    <g id="xtick_1">
     <g id="line2d_1">
      <defs>
       <path d="M 0 0 
L 0 3.5 
" id="m3708fa9760" style="stroke:#262626;stroke-width:0.8;"/>
      </defs>
      <g>
       <use style="fill:#262626;stroke:#262626;stroke-width:0.8;" x="51.995455" xlink:href="#m3708fa9760" y="175.96"/>
      </g>
     </g>
     <g id="text_1">
      <!-- 2 -->
      <defs>
       <path d="M 50.34375 8.453125 
L 50.34375 0 
L 3.03125 0 
Q 2.9375 3.171875 4.046875 6.109375 
Q 5.859375 10.9375 9.828125 15.625 
Q 13.8125 20.3125 21.34375 26.46875 
Q 33.015625 36.03125 37.109375 41.625 
Q 41.21875 47.21875 41.21875 52.203125 
Q 41.21875 57.421875 37.46875 61 
Q 33.734375 64.59375 27.734375 64.59375 
Q 21.390625 64.59375 17.578125 60.78125 
Q 13.765625 56.984375 13.71875 50.25 
L 4.6875 51.171875 
Q 5.609375 61.28125 11.65625 66.578125 
Q 17.71875 71.875 27.9375 71.875 
Q 38.234375 71.875 44.234375 66.15625 
Q 50.25 60.453125 50.25 52 
Q 50.25 47.703125 48.484375 43.546875 
Q 46.734375 39.40625 42.65625 34.8125 
Q 38.578125 30.21875 29.109375 22.21875 
Q 21.1875 15.578125 18.9375 13.203125 
Q 16.703125 10.84375 15.234375 8.453125 
z
" id="ArialMT-32"/>
      </defs>
      <g style="fill:#262626;" transform="translate(49.214986 190.117812)scale(0.1 -0.1)">
       <use xlink:href="#ArialMT-32"/>
      </g>
     </g>
    </g>
    <g id="xtick_2">
     <g id="line2d_2">
      <g>
       <use style="fill:#262626;stroke:#262626;stroke-width:0.8;" x="80.857273" xlink:href="#m3708fa9760" y="175.96"/>
      </g>
     </g>
     <g id="text_2">
      <!-- 4 -->
      <defs>
       <path d="M 32.328125 0 
L 32.328125 17.140625 
L 1.265625 17.140625 
L 1.265625 25.203125 
L 33.9375 71.578125 
L 41.109375 71.578125 
L 41.109375 25.203125 
L 50.78125 25.203125 
L 50.78125 17.140625 
L 41.109375 17.140625 
L 41.109375 0 
z
M 32.328125 25.203125 
L 32.328125 57.46875 
L 9.90625 25.203125 
z
" id="ArialMT-34"/>
      </defs>
      <g style="fill:#262626;" transform="translate(78.076804 190.117812)scale(0.1 -0.1)">
       <use xlink:href="#ArialMT-34"/>
      </g>
     </g>
    </g>
    <g id="xtick_3">
     <g id="line2d_3">
      <g>
       <use style="fill:#262626;stroke:#262626;stroke-width:0.8;" x="109.719091" xlink:href="#m3708fa9760" y="175.96"/>
      </g>
     </g>
     <g id="text_3">
      <!-- 6 -->
      <defs>
       <path d="M 49.75 54.046875 
L 41.015625 53.375 
Q 39.84375 58.546875 37.703125 60.890625 
Q 34.125 64.65625 28.90625 64.65625 
Q 24.703125 64.65625 21.53125 62.3125 
Q 17.390625 59.28125 14.984375 53.46875 
Q 12.59375 47.65625 12.5 36.921875 
Q 15.671875 41.75 20.265625 44.09375 
Q 24.859375 46.4375 29.890625 46.4375 
Q 38.671875 46.4375 44.84375 39.96875 
Q 51.03125 33.5 51.03125 23.25 
Q 51.03125 16.5 48.125 10.71875 
Q 45.21875 4.9375 40.140625 1.859375 
Q 35.0625 -1.21875 28.609375 -1.21875 
Q 17.625 -1.21875 10.6875 6.859375 
Q 3.765625 14.9375 3.765625 33.5 
Q 3.765625 54.25 11.421875 63.671875 
Q 18.109375 71.875 29.4375 71.875 
Q 37.890625 71.875 43.28125 67.140625 
Q 48.6875 62.40625 49.75 54.046875 
z
M 13.875 23.1875 
Q 13.875 18.65625 15.796875 14.5 
Q 17.71875 10.359375 21.1875 8.171875 
Q 24.65625 6 28.46875 6 
Q 34.03125 6 38.03125 10.484375 
Q 42.046875 14.984375 42.046875 22.703125 
Q 42.046875 30.125 38.078125 34.390625 
Q 34.125 38.671875 28.125 38.671875 
Q 22.171875 38.671875 18.015625 34.390625 
Q 13.875 30.125 13.875 23.1875 
z
" id="ArialMT-36"/>
      </defs>
      <g style="fill:#262626;" transform="translate(106.938622 190.117812)scale(0.1 -0.1)">
       <use xlink:href="#ArialMT-36"/>
      </g>
     </g>
    </g>
    <g id="xtick_4">
     <g id="line2d_4">
      <g>
       <use style="fill:#262626;stroke:#262626;stroke-width:0.8;" x="138.580909" xlink:href="#m3708fa9760" y="175.96"/>
      </g>
     </g>
     <g id="text_4">
      <!-- 8 -->
      <defs>
       <path d="M 17.671875 38.8125 
Q 12.203125 40.828125 9.5625 44.53125 
Q 6.9375 48.25 6.9375 53.421875 
Q 6.9375 61.234375 12.546875 66.546875 
Q 18.171875 71.875 27.484375 71.875 
Q 36.859375 71.875 42.578125 66.421875 
Q 48.296875 60.984375 48.296875 53.171875 
Q 48.296875 48.1875 45.671875 44.5 
Q 43.0625 40.828125 37.75 38.8125 
Q 44.34375 36.671875 47.78125 31.875 
Q 51.21875 27.09375 51.21875 20.453125 
Q 51.21875 11.28125 44.71875 5.03125 
Q 38.234375 -1.21875 27.640625 -1.21875 
Q 17.046875 -1.21875 10.546875 5.046875 
Q 4.046875 11.328125 4.046875 20.703125 
Q 4.046875 27.6875 7.59375 32.390625 
Q 11.140625 37.109375 17.671875 38.8125 
z
M 15.921875 53.71875 
Q 15.921875 48.640625 19.1875 45.40625 
Q 22.46875 42.1875 27.6875 42.1875 
Q 32.765625 42.1875 36.015625 45.375 
Q 39.265625 48.578125 39.265625 53.21875 
Q 39.265625 58.0625 35.90625 61.359375 
Q 32.5625 64.65625 27.59375 64.65625 
Q 22.5625 64.65625 19.234375 61.421875 
Q 15.921875 58.203125 15.921875 53.71875 
z
M 13.09375 20.65625 
Q 13.09375 16.890625 14.875 13.375 
Q 16.65625 9.859375 20.171875 7.921875 
Q 23.6875 6 27.734375 6 
Q 34.03125 6 38.125 10.046875 
Q 42.234375 14.109375 42.234375 20.359375 
Q 42.234375 26.703125 38.015625 30.859375 
Q 33.796875 35.015625 27.4375 35.015625 
Q 21.234375 35.015625 17.15625 30.90625 
Q 13.09375 26.8125 13.09375 20.65625 
z
" id="ArialMT-38"/>
      </defs>
      <g style="fill:#262626;" transform="translate(135.80044 190.117812)scale(0.1 -0.1)">
       <use xlink:href="#ArialMT-38"/>
      </g>
     </g>
    </g>
    <g id="xtick_5">
     <g id="line2d_5">
      <g>
       <use style="fill:#262626;stroke:#262626;stroke-width:0.8;" x="167.442727" xlink:href="#m3708fa9760" y="175.96"/>
      </g>
     </g>
     <g id="text_5">
      <!-- 10 -->
      <defs>
       <path d="M 37.25 0 
L 28.46875 0 
L 28.46875 56 
Q 25.296875 52.984375 20.140625 49.953125 
Q 14.984375 46.921875 10.890625 45.40625 
L 10.890625 53.90625 
Q 18.265625 57.375 23.78125 62.296875 
Q 29.296875 67.234375 31.59375 71.875 
L 37.25 71.875 
z
" id="ArialMT-31"/>
       <path d="M 4.15625 35.296875 
Q 4.15625 48 6.765625 55.734375 
Q 9.375 63.484375 14.515625 67.671875 
Q 19.671875 71.875 27.484375 71.875 
Q 33.25 71.875 37.59375 69.546875 
Q 41.9375 67.234375 44.765625 62.859375 
Q 47.609375 58.5 49.21875 52.21875 
Q 50.828125 45.953125 50.828125 35.296875 
Q 50.828125 22.703125 48.234375 14.96875 
Q 45.65625 7.234375 40.5 3 
Q 35.359375 -1.21875 27.484375 -1.21875 
Q 17.140625 -1.21875 11.234375 6.203125 
Q 4.15625 15.140625 4.15625 35.296875 
z
M 13.1875 35.296875 
Q 13.1875 17.671875 17.3125 11.828125 
Q 21.4375 6 27.484375 6 
Q 33.546875 6 37.671875 11.859375 
Q 41.796875 17.71875 41.796875 35.296875 
Q 41.796875 52.984375 37.671875 58.78125 
Q 33.546875 64.59375 27.390625 64.59375 
Q 21.34375 64.59375 17.71875 59.46875 
Q 13.1875 52.9375 13.1875 35.296875 
z
" id="ArialMT-30"/>
      </defs>
      <g style="fill:#262626;" transform="translate(161.88179 190.117812)scale(0.1 -0.1)">
       <use xlink:href="#ArialMT-31"/>
       <use x="55.615234" xlink:href="#ArialMT-30"/>
      </g>
     </g>
    </g>
    <g id="xtick_6">
     <g id="line2d_6">
      <g>
       <use style="fill:#262626;stroke:#262626;stroke-width:0.8;" x="196.304545" xlink:href="#m3708fa9760" y="175.96"/>
      </g>
     </g>
     <g id="text_6">
      <!-- 12 -->
      <g style="fill:#262626;" transform="translate(190.743608 190.117812)scale(0.1 -0.1)">
       <use xlink:href="#ArialMT-31"/>
       <use x="55.615234" xlink:href="#ArialMT-32"/>
      </g>
     </g>
    </g>
    <g id="text_7">
     <!-- pH -->
     <defs>
      <path d="M 6.59375 -19.875 
L 6.59375 51.859375 
L 14.59375 51.859375 
L 14.59375 45.125 
Q 17.4375 49.078125 21 51.046875 
Q 24.5625 53.03125 29.640625 53.03125 
Q 36.28125 53.03125 41.359375 49.609375 
Q 46.4375 46.1875 49.015625 39.953125 
Q 51.609375 33.734375 51.609375 26.3125 
Q 51.609375 18.359375 48.75 11.984375 
Q 45.90625 5.609375 40.453125 2.21875 
Q 35.015625 -1.171875 29 -1.171875 
Q 24.609375 -1.171875 21.109375 0.6875 
Q 17.625 2.546875 15.375 5.375 
L 15.375 -19.875 
z
M 14.546875 25.640625 
Q 14.546875 15.625 18.59375 10.84375 
Q 22.65625 6.0625 28.421875 6.0625 
Q 34.28125 6.0625 38.453125 11.015625 
Q 42.625 15.96875 42.625 26.375 
Q 42.625 36.28125 38.546875 41.203125 
Q 34.46875 46.140625 28.8125 46.140625 
Q 23.1875 46.140625 18.859375 40.890625 
Q 14.546875 35.640625 14.546875 25.640625 
z
" id="ArialMT-70"/>
      <path d="M 8.015625 0 
L 8.015625 71.578125 
L 17.484375 71.578125 
L 17.484375 42.1875 
L 54.6875 42.1875 
L 54.6875 71.578125 
L 64.15625 71.578125 
L 64.15625 0 
L 54.6875 0 
L 54.6875 33.734375 
L 17.484375 33.734375 
L 17.484375 0 
z
" id="ArialMT-48"/>
     </defs>
     <g style="fill:#262626;" transform="translate(117.758594 203.263125)scale(0.1 -0.1)">
      <use xlink:href="#ArialMT-70"/>
      <use x="55.615234" xlink:href="#ArialMT-48"/>
     </g>
    </g>
   </g>
   <g id="matplotlib.axis_2">
    <g id="ytick_1">
     <g id="line2d_7">
      <defs>
       <path d="M 0 0 
L -3.5 0 
" id="me1dae5be78" style="stroke:#262626;stroke-width:0.8;"/>
      </defs>
      <g>
       <use style="fill:#262626;stroke:#262626;stroke-width:0.8;" x="44.78" xlink:href="#me1dae5be78" y="175.949056"/>
      </g>
     </g>
     <g id="text_8">
      <!-- −2 -->
      <defs>
       <path d="M 52.828125 31.203125 
L 5.5625 31.203125 
L 5.5625 39.40625 
L 52.828125 39.40625 
z
" id="ArialMT-2212"/>
      </defs>
      <g style="fill:#262626;" transform="translate(26.378438 179.527962)scale(0.1 -0.1)">
       <use xlink:href="#ArialMT-2212"/>
       <use x="58.398438" xlink:href="#ArialMT-32"/>
      </g>
     </g>
    </g>
    <g id="ytick_2">
     <g id="line2d_8">
      <g>
       <use style="fill:#262626;stroke:#262626;stroke-width:0.8;" x="44.78" xlink:href="#me1dae5be78" y="144.528873"/>
      </g>
     </g>
     <g id="text_9">
      <!-- −1 -->
      <g style="fill:#262626;" transform="translate(26.378438 148.10778)scale(0.1 -0.1)">
       <use xlink:href="#ArialMT-2212"/>
       <use x="58.398438" xlink:href="#ArialMT-31"/>
      </g>
     </g>
    </g>
    <g id="ytick_3">
     <g id="line2d_9">
      <g>
       <use style="fill:#262626;stroke:#262626;stroke-width:0.8;" x="44.78" xlink:href="#me1dae5be78" y="113.108691"/>
      </g>
     </g>
     <g id="text_10">
      <!-- 0 -->
      <g style="fill:#262626;" transform="translate(32.219063 116.687597)scale(0.1 -0.1)">
       <use xlink:href="#ArialMT-30"/>
      </g>
     </g>
    </g>
    <g id="ytick_4">
     <g id="line2d_10">
      <g>
       <use style="fill:#262626;stroke:#262626;stroke-width:0.8;" x="44.78" xlink:href="#me1dae5be78" y="81.688509"/>
      </g>
     </g>
     <g id="text_11">
      <!-- 1 -->
      <g style="fill:#262626;" transform="translate(32.219063 85.267415)scale(0.1 -0.1)">
       <use xlink:href="#ArialMT-31"/>
      </g>
     </g>
    </g>
    <g id="ytick_5">
     <g id="line2d_11">
      <g>
       <use style="fill:#262626;stroke:#262626;stroke-width:0.8;" x="44.78" xlink:href="#me1dae5be78" y="50.268326"/>
      </g>
     </g>
     <g id="text_12">
      <!-- 2 -->
      <g style="fill:#262626;" transform="translate(32.219063 53.847233)scale(0.1 -0.1)">
       <use xlink:href="#ArialMT-32"/>
      </g>
     </g>
    </g>
    <g id="text_13">
     <!-- $\langle q_\mathsf{total} \rangle$ -->
     <defs>
      <path d="M 8.9375 31.34375 
L 22.703125 75.875 
L 31 75.875 
L 17.234375 31.34375 
L 31 -13.1875 
L 22.703125 -13.1875 
z
" id="DejaVuSans-27e8"/>
      <path d="M 41.703125 8.203125 
Q 38.09375 3.46875 33.171875 1.015625 
Q 28.265625 -1.421875 22.3125 -1.421875 
Q 14.015625 -1.421875 9.296875 4.171875 
Q 4.59375 9.765625 4.59375 19.578125 
Q 4.59375 27.484375 7.5 34.859375 
Q 10.40625 42.234375 15.828125 48.09375 
Q 19.34375 51.90625 23.90625 53.953125 
Q 28.46875 56 33.5 56 
Q 39.546875 56 43.453125 53.609375 
Q 47.359375 51.21875 49.125 46.390625 
L 50.6875 54.59375 
L 59.71875 54.59375 
L 45.125 -20.609375 
L 36.078125 -20.609375 
z
M 13.921875 20.90625 
Q 13.921875 13.671875 16.9375 9.890625 
Q 19.96875 6.109375 25.6875 6.109375 
Q 34.1875 6.109375 40.1875 14.234375 
Q 46.1875 22.359375 46.1875 33.984375 
Q 46.1875 41.015625 43.078125 44.75 
Q 39.984375 48.484375 34.1875 48.484375 
Q 29.9375 48.484375 26.3125 46.5 
Q 22.703125 44.53125 20.015625 40.71875 
Q 17.1875 36.71875 15.546875 31.34375 
Q 13.921875 25.984375 13.921875 20.90625 
z
" id="DejaVuSans-Oblique-71"/>
      <path d="M 18.3125 70.21875 
L 18.3125 54.6875 
L 36.8125 54.6875 
L 36.8125 47.703125 
L 18.3125 47.703125 
L 18.3125 18.015625 
Q 18.3125 11.328125 20.140625 9.421875 
Q 21.96875 7.515625 27.59375 7.515625 
L 36.8125 7.515625 
L 36.8125 0 
L 27.59375 0 
Q 17.1875 0 13.234375 3.875 
Q 9.28125 7.765625 9.28125 18.015625 
L 9.28125 47.703125 
L 2.6875 47.703125 
L 2.6875 54.6875 
L 9.28125 54.6875 
L 9.28125 70.21875 
z
" id="DejaVuSans-74"/>
      <path d="M 30.609375 48.390625 
Q 23.390625 48.390625 19.1875 42.75 
Q 14.984375 37.109375 14.984375 27.296875 
Q 14.984375 17.484375 19.15625 11.84375 
Q 23.34375 6.203125 30.609375 6.203125 
Q 37.796875 6.203125 41.984375 11.859375 
Q 46.1875 17.53125 46.1875 27.296875 
Q 46.1875 37.015625 41.984375 42.703125 
Q 37.796875 48.390625 30.609375 48.390625 
z
M 30.609375 56 
Q 42.328125 56 49.015625 48.375 
Q 55.71875 40.765625 55.71875 27.296875 
Q 55.71875 13.875 49.015625 6.21875 
Q 42.328125 -1.421875 30.609375 -1.421875 
Q 18.84375 -1.421875 12.171875 6.21875 
Q 5.515625 13.875 5.515625 27.296875 
Q 5.515625 40.765625 12.171875 48.375 
Q 18.84375 56 30.609375 56 
z
" id="DejaVuSans-6f"/>
      <path d="M 34.28125 27.484375 
Q 23.390625 27.484375 19.1875 25 
Q 14.984375 22.515625 14.984375 16.5 
Q 14.984375 11.71875 18.140625 8.90625 
Q 21.296875 6.109375 26.703125 6.109375 
Q 34.1875 6.109375 38.703125 11.40625 
Q 43.21875 16.703125 43.21875 25.484375 
L 43.21875 27.484375 
z
M 52.203125 31.203125 
L 52.203125 0 
L 43.21875 0 
L 43.21875 8.296875 
Q 40.140625 3.328125 35.546875 0.953125 
Q 30.953125 -1.421875 24.3125 -1.421875 
Q 15.921875 -1.421875 10.953125 3.296875 
Q 6 8.015625 6 15.921875 
Q 6 25.140625 12.171875 29.828125 
Q 18.359375 34.515625 30.609375 34.515625 
L 43.21875 34.515625 
L 43.21875 35.40625 
Q 43.21875 41.609375 39.140625 45 
Q 35.0625 48.390625 27.6875 48.390625 
Q 23 48.390625 18.546875 47.265625 
Q 14.109375 46.140625 10.015625 43.890625 
L 10.015625 52.203125 
Q 14.9375 54.109375 19.578125 55.046875 
Q 24.21875 56 28.609375 56 
Q 40.484375 56 46.34375 49.84375 
Q 52.203125 43.703125 52.203125 31.203125 
z
" id="DejaVuSans-61"/>
      <path d="M 9.421875 75.984375 
L 18.40625 75.984375 
L 18.40625 0 
L 9.421875 0 
z
" id="DejaVuSans-6c"/>
      <path d="M 30.078125 31.34375 
L 16.3125 -13.1875 
L 8.015625 -13.1875 
L 21.78125 31.34375 
L 8.015625 75.875 
L 16.3125 75.875 
z
" id="DejaVuSans-27e9"/>
     </defs>
     <g style="fill:#262626;" transform="translate(20.278438 115.95)rotate(-90)scale(0.1 -0.1)">
      <use transform="translate(0 0.125)" xlink:href="#DejaVuSans-27e8"/>
      <use transform="translate(39.013672 0.125)" xlink:href="#DejaVuSans-Oblique-71"/>
      <use transform="translate(102.490234 -16.28125)scale(0.7)" xlink:href="#DejaVuSans-74"/>
      <use transform="translate(129.936523 -16.28125)scale(0.7)" xlink:href="#DejaVuSans-6f"/>
      <use transform="translate(172.763672 -16.28125)scale(0.7)" xlink:href="#DejaVuSans-74"/>
      <use transform="translate(200.209961 -16.28125)scale(0.7)" xlink:href="#DejaVuSans-61"/>
      <use transform="translate(243.105469 -16.28125)scale(0.7)" xlink:href="#DejaVuSans-6c"/>
      <use transform="translate(265.288086 0.125)" xlink:href="#DejaVuSans-27e9"/>
     </g>
    </g>
   </g>
   <g id="line2d_12">
    <path clip-path="url(#p40a6295a41)" d="M 51.995455 79.702743 
L 53.438545 80.22996 
L 54.881636 80.695793 
L 56.324727 81.118631 
L 57.767818 81.516335 
L 59.210909 81.906379 
L 60.654 82.30611 
L 62.097091 82.733037 
L 63.540182 83.205077 
L 64.983273 83.740682 
L 66.426364 84.358755 
L 67.869455 85.078243 
L 69.312545 85.917336 
L 70.755636 86.892164 
L 72.198727 88.015014 
L 73.641818 89.292148 
L 75.084909 90.72154 
L 76.528 92.290968 
L 77.971091 93.977068 
L 79.414182 95.745887 
L 80.857273 97.555204 
L 82.300364 99.358436 
L 83.743455 101.109418 
L 85.186545 102.767089 
L 86.629636 104.299099 
L 88.072727 105.683761 
L 89.515818 106.910238 
L 90.958909 107.977317 
L 92.402 108.891336 
L 93.845091 109.663841 
L 95.288182 110.309388 
L 96.731273 110.843759 
L 98.174364 111.282646 
L 99.617455 111.640799 
L 101.060545 111.931541 
L 102.503636 112.166566 
L 103.946727 112.35591 
L 105.389818 112.508047 
L 106.832909 112.63004 
L 108.276 112.727718 
L 109.719091 112.805856 
L 111.162182 112.868341 
L 112.605273 112.918329 
L 114.048364 112.95837 
L 115.491455 112.990527 
L 116.934545 113.016467 
L 118.377636 113.037545 
L 119.820727 113.054864 
L 121.263818 113.069336 
L 122.706909 113.081723 
L 124.15 113.092682 
L 125.593091 113.102791 
L 127.036182 113.112588 
L 128.479273 113.122592 
L 129.922364 113.133332 
L 131.365455 113.145379 
L 132.808545 113.159369 
L 134.251636 113.17604 
L 135.694727 113.19627 
L 137.137818 113.22112 
L 138.580909 113.251888 
L 140.024 113.29017 
L 141.467091 113.337944 
L 142.910182 113.39765 
L 144.353273 113.472311 
L 145.796364 113.565653 
L 147.239455 113.682256 
L 148.682545 113.827719 
L 150.125636 114.008838 
L 151.568727 114.233782 
L 153.011818 114.512255 
L 154.454909 114.855604 
L 155.898 115.276818 
L 157.341091 115.790371 
L 158.784182 116.411796 
L 160.227273 117.156911 
L 161.670364 118.040606 
L 163.113455 119.075142 
L 164.556545 120.268021 
L 165.999636 121.61964 
L 167.442727 123.121117 
L 168.885818 124.752842 
L 170.328909 126.484337 
L 171.772 128.275836 
L 173.215091 130.081583 
L 174.658182 131.854359 
L 176.101273 133.550308 
L 177.544364 135.13307 
L 178.987455 136.576418 
L 180.430545 137.865129 
L 181.873636 138.994254 
L 183.316727 139.967309 
L 184.759818 140.793973 
L 186.202909 141.487788 
L 187.646 142.06419 
L 189.089091 142.539002 
L 190.532182 142.927403 
L 191.975273 143.243303 
L 193.418364 143.499043 
L 194.861455 143.705298 
L 196.304545 143.871138 
" style="fill:none;opacity:0.9;stroke:#001c7f;stroke-linecap:round;stroke-width:1.5;"/>
   </g>
   <g id="line2d_13">
    <path clip-path="url(#p40a6295a41)" d="M 51.995455 84.370512 
L 53.438545 84.991939 
L 54.881636 85.737068 
L 56.324727 86.620787 
L 57.767818 87.655353 
L 59.210909 88.848267 
L 60.654 90.199923 
L 62.097091 91.701435 
L 63.540182 93.333188 
L 64.983273 95.064702 
L 66.426364 96.856208 
L 67.869455 98.66195 
L 69.312545 100.434706 
L 70.755636 102.130625 
L 72.198727 103.713346 
L 73.641818 105.156649 
L 75.084909 106.445312 
L 76.528 107.574388 
L 77.971091 108.547398 
L 79.414182 109.374019 
L 80.857273 110.067796 
L 82.300364 110.644166 
L 83.743455 111.11895 
L 85.186545 111.507327 
L 86.629636 111.823208 
L 88.072727 112.078931 
L 89.515818 112.285173 
L 90.958909 112.451003 
L 92.402 112.584014 
L 93.845091 112.69049 
L 95.288182 112.775593 
L 96.731273 112.843526 
L 98.174364 112.8977 
L 99.617455 112.940867 
L 101.060545 112.975243 
L 102.503636 113.002603 
L 103.946727 113.024372 
L 105.389818 113.041688 
L 106.832909 113.055458 
L 108.276 113.066409 
L 109.719091 113.075117 
L 111.162182 113.082043 
L 112.605273 113.087553 
L 114.048364 113.09194 
L 115.491455 113.095437 
L 116.934545 113.098229 
L 118.377636 113.100464 
L 119.820727 113.102261 
L 121.263818 113.103717 
L 122.706909 113.104907 
L 124.15 113.105896 
L 125.593091 113.106737 
L 127.036182 113.107473 
L 128.479273 113.108144 
L 129.922364 113.108787 
L 131.365455 113.109434 
L 132.808545 113.110121 
L 134.251636 113.110885 
L 135.694727 113.111764 
L 137.137818 113.112808 
L 138.580909 113.114071 
L 140.024 113.11562 
L 141.467091 113.117538 
L 142.910182 113.119926 
L 144.353273 113.122912 
L 145.796364 113.126655 
L 147.239455 113.131352 
L 148.682545 113.137253 
L 150.125636 113.144671 
L 151.568727 113.153999 
L 153.011818 113.165729 
L 154.454909 113.180479 
L 155.898 113.199026 
L 157.341091 113.222341 
L 158.784182 113.251642 
L 160.227273 113.28845 
L 161.670364 113.334665 
L 163.113455 113.39265 
L 164.556545 113.465343 
L 165.999636 113.556375 
L 167.442727 113.670223 
L 168.885818 113.812363 
L 170.328909 113.989455 
L 171.772 114.209518 
L 173.215091 114.482092 
L 174.658182 114.818352 
L 176.101273 115.231124 
L 177.544364 115.734746 
L 178.987455 116.34467 
L 180.430545 117.076732 
L 181.873636 117.945982 
L 183.316727 118.965029 
L 184.759818 120.141955 
L 186.202909 121.477968 
L 187.646 122.965194 
L 189.089091 124.585122 
L 190.532182 126.308317 
L 191.975273 128.095817 
L 193.418364 129.902274 
L 194.861455 131.680394 
L 196.304545 133.385783 
" style="fill:none;opacity:0.7;stroke:#000000;stroke-linecap:round;stroke-width:1.5;"/>
   </g>
   <g id="line2d_14">
    <path clip-path="url(#p40a6295a41)" d="M 51.995455 44.396685 
L 53.438545 44.031792 
L 54.881636 43.675229 
L 56.324727 43.35239 
L 57.767818 43.087156 
L 59.210909 42.900387 
L 60.654 42.809047 
L 62.097091 42.826732 
L 63.540182 42.965724 
L 64.983273 43.239329 
L 66.426364 43.663068 
L 67.869455 44.254467 
L 69.312545 45.031764 
L 70.755636 46.011595 
L 72.198727 47.206065 
L 73.641818 48.620092 
L 75.084909 50.249592 
L 76.528 52.080338 
L 77.971091 54.087232 
L 79.414182 56.234362 
L 80.857273 58.476566 
L 82.300364 60.762916 
L 83.743455 63.041823 
L 85.186545 65.266818 
L 86.629636 67.401185 
L 88.072727 69.419573 
L 89.515818 71.307032 
L 90.958909 73.057872 
L 92.402 74.675359 
L 93.845091 76.170967 
L 95.288182 77.561602 
L 96.731273 78.864831 
L 98.174364 80.094443 
L 99.617455 81.259146 
L 101.060545 82.364484 
L 102.503636 83.415488 
L 103.946727 84.418096 
L 105.389818 85.378979 
L 106.832909 86.304108 
L 108.276 87.19692 
L 109.719091 88.056359 
L 111.162182 88.875098 
L 112.605273 89.64163 
L 114.048364 90.347818 
L 115.491455 90.993388 
L 116.934545 91.58236 
L 118.377636 92.118742 
L 119.820727 92.605343 
L 121.263818 93.042529 
L 122.706909 93.427222 
L 124.15 93.754349 
L 125.593091 94.0193 
L 127.036182 94.219799 
L 128.479273 94.355958 
L 129.922364 94.426955 
L 131.365455 94.429696 
L 132.808545 94.363934 
L 134.251636 94.236707 
L 135.694727 94.058878 
L 137.137818 93.839824 
L 138.580909 93.587591 
L 140.024 93.31038 
L 141.467091 93.015476 
L 142.910182 92.709211 
L 144.353273 92.398656 
L 145.796364 92.09246 
L 147.239455 91.800121 
L 148.682545 91.531222 
L 150.125636 91.296218 
L 151.568727 91.108101 
L 153.011818 90.982833 
L 154.454909 90.937888 
L 155.898 90.990439 
L 157.341091 91.157677 
L 158.784182 91.458635 
L 160.227273 91.913471 
L 161.670364 92.540464 
L 163.113455 93.353596 
L 164.556545 94.360801 
L 165.999636 95.562114 
L 167.442727 96.947875 
L 168.885818 98.497583 
L 170.328909 100.179973 
L 171.772 101.954713 
L 173.215091 103.775708 
L 174.658182 105.595516 
L 176.101273 107.370059 
L 177.544364 109.062652 
L 178.987455 110.646625 
L 180.430545 112.106195 
L 181.873636 113.435762 
L 183.316727 114.638106 
L 184.759818 115.722083 
L 186.202909 116.700322 
L 187.646 117.587247 
L 189.089091 118.39757 
L 190.532182 119.145275 
L 191.975273 119.843028 
L 193.418364 120.501909 
L 194.861455 121.131367 
L 196.304545 121.739306 
" style="fill:none;opacity:0.45;stroke:#001c7f;stroke-dasharray:2.775,1.2;stroke-dashoffset:0;stroke-width:0.75;"/>
   </g>
   <g id="line2d_15">
    <path clip-path="url(#p40a6295a41)" d="M 51.995455 115.0088 
L 53.438545 116.428129 
L 54.881636 117.716357 
L 56.324727 118.884872 
L 57.767818 119.945513 
L 59.210909 120.912371 
L 60.654 121.803174 
L 62.097091 122.639342 
L 63.540182 123.444429 
L 64.983273 124.242036 
L 66.426364 125.054442 
L 67.869455 125.902019 
L 69.312545 126.802907 
L 70.755636 127.772733 
L 72.198727 128.823962 
L 73.641818 129.964204 
L 75.084909 131.193489 
L 76.528 132.501599 
L 77.971091 133.866904 
L 79.414182 135.257411 
L 80.857273 136.633843 
L 82.300364 137.953957 
L 83.743455 139.177014 
L 85.186545 140.26736 
L 86.629636 141.197013 
L 88.072727 141.947949 
L 89.515818 142.513445 
L 90.958909 142.896762 
L 92.402 143.107313 
L 93.845091 143.156714 
L 95.288182 143.057175 
L 96.731273 142.822687 
L 98.174364 142.470849 
L 99.617455 142.022452 
L 101.060545 141.498598 
L 102.503636 140.917645 
L 103.946727 140.293724 
L 105.389818 139.637115 
L 106.832909 138.955971 
L 108.276 138.258515 
L 109.719091 137.555352 
L 111.162182 136.861585 
L 112.605273 136.195028 
L 114.048364 135.568922 
L 115.491455 134.987665 
L 116.934545 134.450575 
L 118.377636 133.956348 
L 119.820727 133.504385 
L 121.263818 133.096143 
L 122.706909 132.736224 
L 124.15 132.431014 
L 125.593091 132.186283 
L 127.036182 132.005377 
L 128.479273 131.889226 
L 129.922364 131.83971 
L 131.365455 131.861062 
L 132.808545 131.954804 
L 134.251636 132.115373 
L 135.694727 132.333662 
L 137.137818 132.602416 
L 138.580909 132.916184 
L 140.024 133.269961 
L 141.467091 133.660411 
L 142.910182 134.086089 
L 144.353273 134.545966 
L 145.796364 135.038846 
L 147.239455 135.564391 
L 148.682545 136.124217 
L 150.125636 136.721458 
L 151.568727 137.359462 
L 153.011818 138.041678 
L 154.454909 138.77332 
L 155.898 139.563198 
L 157.341091 140.423065 
L 158.784182 141.364957 
L 160.227273 142.400351 
L 161.670364 143.540749 
L 163.113455 144.796688 
L 164.556545 146.175241 
L 165.999636 147.677166 
L 167.442727 149.294359 
L 168.885818 151.008101 
L 170.328909 152.788701 
L 171.772 154.596958 
L 173.215091 156.387459 
L 174.658182 158.113201 
L 176.101273 159.730557 
L 177.544364 161.203487 
L 178.987455 162.506211 
L 180.430545 163.624063 
L 181.873636 164.552745 
L 183.316727 165.296512 
L 184.759818 165.865862 
L 186.202909 166.275253 
L 187.646 166.541133 
L 189.089091 166.680435 
L 190.532182 166.709531 
L 191.975273 166.643579 
L 193.418364 166.496176 
L 194.861455 166.279229 
L 196.304545 166.00297 
" style="fill:none;opacity:0.45;stroke:#001c7f;stroke-dasharray:2.775,1.2;stroke-dashoffset:0;stroke-width:0.75;"/>
   </g>
   <g id="line2d_16">
    <path clip-path="url(#p40a6295a41)" d="M 51.995455 63.101653 
L 53.438545 64.948887 
L 54.881636 66.853148 
L 56.324727 68.772173 
L 57.767818 70.665814 
L 59.210909 72.500806 
L 60.654 74.254375 
L 62.097091 75.916124 
L 63.540182 77.48811 
L 64.983273 78.983456 
L 66.426364 80.423983 
L 67.869455 81.837338 
L 69.312545 83.253943 
L 70.755636 84.703892 
L 72.198727 86.213856 
L 73.641818 87.804044 
L 75.084909 89.485416 
L 76.528 91.257473 
L 77.971091 93.10714 
L 79.414182 95.00921 
L 80.857273 96.928612 
L 82.300364 98.824331 
L 83.743455 100.654309 
L 85.186545 102.380332 
L 86.629636 103.971926 
L 88.072727 105.408604 
L 89.515818 106.680327 
L 90.958909 107.786485 
L 92.402 108.733953 
L 93.845091 109.53481 
L 95.288182 110.204159 
L 96.731273 110.758336 
L 98.174364 111.213573 
L 99.617455 111.585131 
L 101.060545 111.886801 
L 102.503636 112.130689 
L 103.946727 112.327194 
L 105.389818 112.485097 
L 106.832909 112.611721 
L 108.276 112.71311 
L 109.719091 112.794216 
L 111.162182 112.859072 
L 112.605273 112.910952 
L 114.048364 112.952501 
L 115.491455 112.985859 
L 116.934545 113.012756 
L 118.377636 113.034594 
L 119.820727 113.052519 
L 121.263818 113.067472 
L 122.706909 113.080242 
L 124.15 113.091505 
L 125.593091 113.101856 
L 127.036182 113.111845 
L 128.479273 113.122002 
L 129.922364 113.132864 
L 131.365455 113.145007 
L 132.808545 113.159073 
L 134.251636 113.175805 
L 135.694727 113.196083 
L 137.137818 113.220972 
L 138.580909 113.25177 
L 140.024 113.290077 
L 141.467091 113.337869 
L 142.910182 113.397591 
L 144.353273 113.472264 
L 145.796364 113.565616 
L 147.239455 113.682227 
L 148.682545 113.827696 
L 150.125636 114.008819 
L 151.568727 114.233767 
L 153.011818 114.512244 
L 154.454909 114.855595 
L 155.898 115.276811 
L 157.341091 115.790365 
L 158.784182 116.411791 
L 160.227273 117.156907 
L 161.670364 118.040604 
L 163.113455 119.07514 
L 164.556545 120.268019 
L 165.999636 121.619639 
L 167.442727 123.121116 
L 168.885818 124.752841 
L 170.328909 126.484337 
L 171.772 128.275835 
L 173.215091 130.081583 
L 174.658182 131.854359 
L 176.101273 133.550308 
L 177.544364 135.13307 
L 178.987455 136.576418 
L 180.430545 137.865129 
L 181.873636 138.994254 
L 183.316727 139.967309 
L 184.759818 140.793973 
L 186.202909 141.487788 
L 187.646 142.06419 
L 189.089091 142.539002 
L 190.532182 142.927403 
L 191.975273 143.243303 
L 193.418364 143.499043 
L 194.861455 143.705298 
L 196.304545 143.871138 
" style="fill:none;opacity:0.9;stroke:#b1400d;stroke-linecap:round;stroke-width:1.5;"/>
   </g>
   <g id="line2d_17">
    <path clip-path="url(#p40a6295a41)" d="M 51.995455 84.370512 
L 53.438545 84.991939 
L 54.881636 85.737068 
L 56.324727 86.620787 
L 57.767818 87.655353 
L 59.210909 88.848267 
L 60.654 90.199923 
L 62.097091 91.701435 
L 63.540182 93.333188 
L 64.983273 95.064702 
L 66.426364 96.856208 
L 67.869455 98.66195 
L 69.312545 100.434706 
L 70.755636 102.130625 
L 72.198727 103.713346 
L 73.641818 105.156649 
L 75.084909 106.445312 
L 76.528 107.574388 
L 77.971091 108.547398 
L 79.414182 109.374019 
L 80.857273 110.067796 
L 82.300364 110.644166 
L 83.743455 111.11895 
L 85.186545 111.507327 
L 86.629636 111.823208 
L 88.072727 112.078931 
L 89.515818 112.285173 
L 90.958909 112.451003 
L 92.402 112.584014 
L 93.845091 112.69049 
L 95.288182 112.775593 
L 96.731273 112.843526 
L 98.174364 112.8977 
L 99.617455 112.940867 
L 101.060545 112.975243 
L 102.503636 113.002603 
L 103.946727 113.024372 
L 105.389818 113.041688 
L 106.832909 113.055458 
L 108.276 113.066409 
L 109.719091 113.075117 
L 111.162182 113.082043 
L 112.605273 113.087553 
L 114.048364 113.09194 
L 115.491455 113.095437 
L 116.934545 113.098229 
L 118.377636 113.100464 
L 119.820727 113.102261 
L 121.263818 113.103717 
L 122.706909 113.104907 
L 124.15 113.105896 
L 125.593091 113.106737 
L 127.036182 113.107473 
L 128.479273 113.108144 
L 129.922364 113.108787 
L 131.365455 113.109434 
L 132.808545 113.110121 
L 134.251636 113.110885 
L 135.694727 113.111764 
L 137.137818 113.112808 
L 138.580909 113.114071 
L 140.024 113.11562 
L 141.467091 113.117538 
L 142.910182 113.119926 
L 144.353273 113.122912 
L 145.796364 113.126655 
L 147.239455 113.131352 
L 148.682545 113.137253 
L 150.125636 113.144671 
L 151.568727 113.153999 
L 153.011818 113.165729 
L 154.454909 113.180479 
L 155.898 113.199026 
L 157.341091 113.222341 
L 158.784182 113.251642 
L 160.227273 113.28845 
L 161.670364 113.334665 
L 163.113455 113.39265 
L 164.556545 113.465343 
L 165.999636 113.556375 
L 167.442727 113.670223 
L 168.885818 113.812363 
L 170.328909 113.989455 
L 171.772 114.209518 
L 173.215091 114.482092 
L 174.658182 114.818352 
L 176.101273 115.231124 
L 177.544364 115.734746 
L 178.987455 116.34467 
L 180.430545 117.076732 
L 181.873636 117.945982 
L 183.316727 118.965029 
L 184.759818 120.141955 
L 186.202909 121.477968 
L 187.646 122.965194 
L 189.089091 124.585122 
L 190.532182 126.308317 
L 191.975273 128.095817 
L 193.418364 129.902274 
L 194.861455 131.680394 
L 196.304545 133.385783 
" style="fill:none;opacity:0.7;stroke:#000000;stroke-linecap:round;stroke-width:1.5;"/>
   </g>
   <g id="line2d_18">
    <path clip-path="url(#p40a6295a41)" d="M 51.995455 36.384869 
L 53.438545 38.140494 
L 54.881636 39.964346 
L 56.324727 41.809709 
L 57.767818 43.631786 
L 59.210909 45.392791 
L 60.654 47.065956 
L 62.097091 48.637902 
L 63.540182 50.109278 
L 64.983273 51.493939 
L 66.426364 52.817052 
L 67.869455 54.112481 
L 69.312545 55.419646 
L 70.755636 56.779966 
L 72.198727 58.233076 
L 73.641818 59.813003 
L 75.084909 61.544579 
L 76.528 63.440489 
L 77.971091 65.499464 
L 79.414182 67.706108 
L 80.857273 70.032553 
L 82.300364 72.441759 
L 83.743455 74.891925 
L 85.186545 77.3412 
L 86.629636 79.751748 
L 88.072727 82.092452 
L 89.515818 84.339986 
L 90.958909 86.478496 
L 92.402 88.498427 
L 93.845091 90.395005 
L 95.288182 92.166828 
L 96.731273 93.814849 
L 98.174364 95.341865 
L 99.617455 96.752371 
L 101.060545 98.05252 
L 102.503636 99.249936 
L 103.946727 100.353322 
L 105.389818 101.371955 
L 106.832909 102.315176 
L 108.276 103.191927 
L 109.719091 104.010352 
L 111.162182 104.777383 
L 112.605273 105.498264 
L 114.048364 106.175942 
L 115.491455 106.810296 
L 116.934545 107.397213 
L 118.377636 107.927569 
L 119.820727 108.386409 
L 121.263818 108.753014 
L 122.706909 109.003259 
L 124.15 109.115494 
L 125.593091 109.078724 
L 127.036182 108.897835 
L 128.479273 108.591299 
L 129.922364 108.183574 
L 131.365455 107.698076 
L 132.808545 107.153695 
L 134.251636 106.564234 
L 135.694727 105.939223 
L 137.137818 105.285147 
L 138.580909 104.606657 
L 140.024 103.907655 
L 141.467091 103.192204 
L 142.910182 102.465218 
L 144.353273 101.732899 
L 145.796364 101.002938 
L 147.239455 100.284569 
L 148.682545 99.588585 
L 150.125636 98.927414 
L 151.568727 98.315238 
L 153.011818 97.768125 
L 154.454909 97.304104 
L 155.898 96.943123 
L 157.341091 96.706823 
L 158.784182 96.618035 
L 160.227273 96.699894 
L 161.670364 96.974471 
L 163.113455 97.460869 
L 164.556545 98.172873 
L 165.999636 99.116379 
L 167.442727 100.287046 
L 168.885818 101.668737 
L 170.328909 103.23334 
L 171.772 104.942359 
L 173.215091 106.750267 
L 174.658182 108.609094 
L 176.101273 110.473326 
L 177.544364 112.30409 
L 178.987455 114.071838 
L 180.430545 115.757243 
L 181.873636 117.350484 
L 183.316727 118.849462 
L 184.759818 120.257512 
L 186.202909 121.581154 
L 187.646 122.828181 
L 189.089091 124.006249 
L 190.532182 125.121961 
L 191.975273 126.18039 
L 193.418364 127.184928 
L 194.861455 128.137371 
L 196.304545 129.038156 
" style="fill:none;opacity:0.45;stroke:#b1400d;stroke-dasharray:2.775,1.2;stroke-dashoffset:0;stroke-width:0.75;"/>
   </g>
   <g id="line2d_19">
    <path clip-path="url(#p40a6295a41)" d="M 51.995455 89.818437 
L 53.438545 91.75728 
L 54.881636 93.741949 
L 56.324727 95.734637 
L 57.767818 97.699843 
L 59.210909 99.608821 
L 60.654 101.442795 
L 62.097091 103.194345 
L 63.540182 104.866942 
L 64.983273 106.472974 
L 66.426364 108.030914 
L 67.869455 109.562194 
L 69.312545 111.08824 
L 70.755636 112.627819 
L 72.198727 114.194635 
L 73.641818 115.795085 
L 75.084909 117.426252 
L 76.528 119.074457 
L 77.971091 120.714817 
L 79.414182 122.312312 
L 80.857273 123.82467 
L 82.300364 125.206903 
L 83.743455 126.416692 
L 85.186545 127.419464 
L 86.629636 128.192104 
L 88.072727 128.724756 
L 89.515818 129.020669 
L 90.958909 129.094474 
L 92.402 128.969479 
L 93.845091 128.674614 
L 95.288182 128.241491 
L 96.731273 127.701823 
L 98.174364 127.085282 
L 99.617455 126.417891 
L 101.060545 125.721082 
L 102.503636 125.011443 
L 103.946727 124.301066 
L 105.389818 123.598239 
L 106.832909 122.908266 
L 108.276 122.234292 
L 109.719091 121.578079 
L 111.162182 120.940761 
L 112.605273 120.323639 
L 114.048364 119.72906 
L 115.491455 119.161421 
L 116.934545 118.628298 
L 118.377636 118.141619 
L 119.820727 117.718629 
L 121.263818 117.381929 
L 122.706909 117.157225 
L 124.15 117.067516 
L 125.593091 117.124988 
L 127.036182 117.325856 
L 128.479273 117.652705 
L 129.922364 118.082153 
L 131.365455 118.591938 
L 132.808545 119.164451 
L 134.251636 119.787376 
L 135.694727 120.452944 
L 137.137818 121.156797 
L 138.580909 121.896883 
L 140.024 122.672499 
L 141.467091 123.483534 
L 142.910182 124.329964 
L 144.353273 125.21163 
L 145.796364 126.128293 
L 147.239455 127.079885 
L 148.682545 128.066807 
L 150.125636 129.090225 
L 151.568727 130.152296 
L 153.011818 131.256362 
L 154.454909 132.407085 
L 155.898 133.610499 
L 157.341091 134.873908 
L 158.784182 136.205548 
L 160.227273 137.61392 
L 161.670364 139.106736 
L 163.113455 140.689411 
L 164.556545 142.363165 
L 165.999636 144.122898 
L 167.442727 145.955186 
L 168.885818 147.836945 
L 170.328909 149.735333 
L 171.772 151.609312 
L 173.215091 153.412899 
L 174.658182 155.099623 
L 176.101273 156.62729 
L 177.544364 157.962049 
L 178.987455 159.080997 
L 180.430545 159.973015 
L 181.873636 160.638023 
L 183.316727 161.085156 
L 184.759818 161.330433 
L 186.202909 161.394421 
L 187.646 161.300198 
L 189.089091 161.071755 
L 190.532182 160.732844 
L 191.975273 160.306217 
L 193.418364 159.813157 
L 194.861455 159.273225 
L 196.304545 158.70412 
" style="fill:none;opacity:0.45;stroke:#b1400d;stroke-dasharray:2.775,1.2;stroke-dashoffset:0;stroke-width:0.75;"/>
   </g>
   <g id="line2d_20">
    <path clip-path="url(#p40a6295a41)" d="M 51.995455 61.849688 
L 53.438545 63.987581 
L 54.881636 66.123567 
L 56.324727 68.225168 
L 57.767818 70.260973 
L 59.210909 72.205489 
L 60.654 74.042764 
L 62.097091 75.768269 
L 63.540182 77.388975 
L 64.983273 78.921999 
L 66.426364 80.3923 
L 67.869455 81.829913 
L 69.312545 83.266984 
L 70.755636 84.734776 
L 72.198727 86.260646 
L 73.641818 87.865095 
L 75.084909 89.559044 
L 76.528 91.341724 
L 77.971091 93.199667 
L 79.414182 95.107275 
L 80.857273 97.029216 
L 82.300364 98.924433 
L 83.743455 100.751086 
L 85.186545 102.471414 
L 86.629636 104.055555 
L 88.072727 105.48369 
L 89.515818 106.746416 
L 90.958909 107.843651 
L 92.402 108.782667 
L 93.845091 109.575796 
L 95.288182 110.238279 
L 96.731273 110.786488 
L 98.174364 111.236632 
L 99.617455 111.603906 
L 101.060545 111.902014 
L 102.503636 112.142967 
L 103.946727 112.337073 
L 105.389818 112.493025 
L 106.832909 112.618071 
L 108.276 112.718188 
L 109.719091 112.798273 
L 111.162182 112.862312 
L 112.605273 112.913537 
L 114.048364 112.954565 
L 115.491455 112.987508 
L 116.934545 113.014076 
L 118.377636 113.035654 
L 119.820727 113.053374 
L 121.263818 113.068168 
L 122.706909 113.080816 
L 124.15 113.091986 
L 125.593091 113.102271 
L 127.036182 113.112215 
L 128.479273 113.122346 
L 129.922364 113.133201 
L 131.365455 113.145354 
L 132.808545 113.15945 
L 134.251636 113.176231 
L 135.694727 113.196581 
L 137.137818 113.221567 
L 138.580909 113.252493 
L 140.024 113.290966 
L 141.467091 113.338971 
L 142.910182 113.39896 
L 144.353273 113.47397 
L 145.796364 113.567743 
L 147.239455 113.684878 
L 148.682545 113.830998 
L 150.125636 114.012924 
L 151.568727 114.238856 
L 153.011818 114.51853 
L 154.454909 114.863327 
L 155.898 115.286269 
L 157.341091 115.801856 
L 158.784182 116.425636 
L 160.227273 117.173422 
L 161.670364 118.060071 
L 163.113455 119.097767 
L 164.556545 120.293893 
L 165.999636 121.648677 
L 167.442727 123.153032 
L 168.885818 124.78712 
L 170.328909 126.520256 
L 171.772 128.312512 
L 173.215091 130.118056 
L 174.658182 131.889689 
L 176.101273 133.583671 
L 177.544364 135.163827 
L 178.987455 136.60415 
L 180.430545 137.889638 
L 181.873636 139.015535 
L 183.316727 139.985506 
L 184.759818 140.809328 
L 186.202909 141.500603 
L 187.646 142.074786 
L 189.089091 142.547697 
L 190.532182 142.934492 
L 191.975273 143.249054 
L 193.418364 143.503689 
L 194.861455 143.709038 
L 196.304545 143.874142 
" style="fill:none;opacity:0.9;stroke:#12711c;stroke-linecap:round;stroke-width:1.5;"/>
   </g>
   <g id="line2d_21">
    <path clip-path="url(#p40a6295a41)" d="M 51.995455 84.370512 
L 53.438545 84.991939 
L 54.881636 85.737068 
L 56.324727 86.620787 
L 57.767818 87.655353 
L 59.210909 88.848267 
L 60.654 90.199923 
L 62.097091 91.701435 
L 63.540182 93.333188 
L 64.983273 95.064702 
L 66.426364 96.856208 
L 67.869455 98.66195 
L 69.312545 100.434706 
L 70.755636 102.130625 
L 72.198727 103.713346 
L 73.641818 105.156649 
L 75.084909 106.445312 
L 76.528 107.574388 
L 77.971091 108.547398 
L 79.414182 109.374019 
L 80.857273 110.067796 
L 82.300364 110.644166 
L 83.743455 111.11895 
L 85.186545 111.507327 
L 86.629636 111.823208 
L 88.072727 112.078931 
L 89.515818 112.285173 
L 90.958909 112.451003 
L 92.402 112.584014 
L 93.845091 112.69049 
L 95.288182 112.775593 
L 96.731273 112.843526 
L 98.174364 112.8977 
L 99.617455 112.940867 
L 101.060545 112.975243 
L 102.503636 113.002603 
L 103.946727 113.024372 
L 105.389818 113.041688 
L 106.832909 113.055458 
L 108.276 113.066409 
L 109.719091 113.075117 
L 111.162182 113.082043 
L 112.605273 113.087553 
L 114.048364 113.09194 
L 115.491455 113.095437 
L 116.934545 113.098229 
L 118.377636 113.100464 
L 119.820727 113.102261 
L 121.263818 113.103717 
L 122.706909 113.104907 
L 124.15 113.105896 
L 125.593091 113.106737 
L 127.036182 113.107473 
L 128.479273 113.108144 
L 129.922364 113.108787 
L 131.365455 113.109434 
L 132.808545 113.110121 
L 134.251636 113.110885 
L 135.694727 113.111764 
L 137.137818 113.112808 
L 138.580909 113.114071 
L 140.024 113.11562 
L 141.467091 113.117538 
L 142.910182 113.119926 
L 144.353273 113.122912 
L 145.796364 113.126655 
L 147.239455 113.131352 
L 148.682545 113.137253 
L 150.125636 113.144671 
L 151.568727 113.153999 
L 153.011818 113.165729 
L 154.454909 113.180479 
L 155.898 113.199026 
L 157.341091 113.222341 
L 158.784182 113.251642 
L 160.227273 113.28845 
L 161.670364 113.334665 
L 163.113455 113.39265 
L 164.556545 113.465343 
L 165.999636 113.556375 
L 167.442727 113.670223 
L 168.885818 113.812363 
L 170.328909 113.989455 
L 171.772 114.209518 
L 173.215091 114.482092 
L 174.658182 114.818352 
L 176.101273 115.231124 
L 177.544364 115.734746 
L 178.987455 116.34467 
L 180.430545 117.076732 
L 181.873636 117.945982 
L 183.316727 118.965029 
L 184.759818 120.141955 
L 186.202909 121.477968 
L 187.646 122.965194 
L 189.089091 124.585122 
L 190.532182 126.308317 
L 191.975273 128.095817 
L 193.418364 129.902274 
L 194.861455 131.680394 
L 196.304545 133.385783 
" style="fill:none;opacity:0.7;stroke:#000000;stroke-linecap:round;stroke-width:1.5;"/>
   </g>
   <g id="line2d_22">
    <path clip-path="url(#p40a6295a41)" d="M 51.995455 32.281818 
L 53.438545 34.315112 
L 54.881636 36.353308 
L 56.324727 38.366416 
L 57.767818 40.325752 
L 59.210909 42.208562 
L 60.654 44.001298 
L 62.097091 45.701252 
L 63.540182 47.316631 
L 64.983273 48.86537 
L 66.426364 50.373118 
L 67.869455 51.87077 
L 69.312545 53.391732 
L 70.755636 54.968947 
L 72.198727 56.631749 
L 73.641818 58.402709 
L 75.084909 60.294792 
L 76.528 62.309199 
L 77.971091 64.434373 
L 79.414182 66.646573 
L 80.857273 68.912209 
L 82.300364 71.191725 
L 83.743455 73.444377 
L 85.186545 75.63301 
L 86.629636 77.727872 
L 88.072727 79.708834 
L 89.515818 81.565865 
L 90.958909 83.298063 
L 92.402 84.911743 
L 93.845091 86.418142 
L 95.288182 87.831163 
L 96.731273 89.165456 
L 98.174364 90.434976 
L 99.617455 91.652036 
L 101.060545 92.826845 
L 102.503636 93.967435 
L 103.946727 95.079856 
L 105.389818 96.168471 
L 106.832909 97.236189 
L 108.276 98.28453 
L 109.719091 99.313509 
L 111.162182 100.321341 
L 112.605273 101.30398 
L 114.048364 102.254436 
L 115.491455 103.161801 
L 116.934545 104.00994 
L 118.377636 104.776009 
L 119.820727 105.429482 
L 121.263818 105.933199 
L 122.706909 106.24868 
L 124.15 106.34662 
L 125.593091 106.21857 
L 127.036182 105.881495 
L 128.479273 105.371272 
L 129.922364 104.730725 
L 131.365455 104.000052 
L 132.808545 103.212399 
L 134.251636 102.393223 
L 135.694727 101.561378 
L 137.137818 100.730645 
L 138.580909 99.911171 
L 140.024 99.110652 
L 141.467091 98.335263 
L 142.910182 97.590385 
L 144.353273 96.881165 
L 145.796364 96.212938 
L 147.239455 95.591557 
L 148.682545 95.023657 
L 150.125636 94.516895 
L 151.568727 94.080185 
L 153.011818 93.723939 
L 154.454909 93.460262 
L 155.898 93.303042 
L 157.341091 93.26782 
L 158.784182 93.371348 
L 160.227273 93.630721 
L 161.670364 94.062041 
L 163.113455 94.678598 
L 164.556545 95.488653 
L 165.999636 96.493061 
L 167.442727 97.683103 
L 168.885818 99.03908 
L 170.328909 100.530224 
L 171.772 102.116321 
L 173.215091 103.751046 
L 174.658182 105.386504 
L 176.101273 106.978059 
L 177.544364 108.488458 
L 178.987455 109.890474 
L 180.430545 111.167796 
L 181.873636 112.314362 
L 183.316727 113.332613 
L 184.759818 114.231263 
L 186.202909 115.023032 
L 187.646 115.722666 
L 189.089091 116.345358 
L 190.532182 116.905607 
L 191.975273 117.41648 
L 193.418364 117.889195 
L 194.861455 118.332978 
L 196.304545 118.755105 
" style="fill:none;opacity:0.45;stroke:#12711c;stroke-dasharray:2.775,1.2;stroke-dashoffset:0;stroke-width:0.75;"/>
   </g>
   <g id="line2d_23">
    <path clip-path="url(#p40a6295a41)" d="M 51.995455 91.417559 
L 53.438545 93.660051 
L 54.881636 95.893826 
L 56.324727 98.083919 
L 57.767818 100.196195 
L 59.210909 102.202417 
L 60.654 104.084231 
L 62.097091 105.835285 
L 63.540182 107.461319 
L 64.983273 108.978627 
L 66.426364 110.411483 
L 67.869455 111.789056 
L 69.312545 113.142237 
L 70.755636 114.500604 
L 72.198727 115.889544 
L 73.641818 117.327481 
L 75.084909 118.823296 
L 76.528 120.374249 
L 77.971091 121.964961 
L 79.414182 123.567978 
L 80.857273 125.146223 
L 82.300364 126.657142 
L 83.743455 128.057795 
L 85.186545 129.309818 
L 86.629636 130.383237 
L 88.072727 131.258547 
L 89.515818 131.926966 
L 90.958909 132.38924 
L 92.402 132.653592 
L 93.845091 132.733451 
L 95.288182 132.645395 
L 96.731273 132.407519 
L 98.174364 132.038288 
L 99.617455 131.555776 
L 101.060545 130.977182 
L 102.503636 130.3185 
L 103.946727 129.59429 
L 105.389818 128.817579 
L 106.832909 127.999953 
L 108.276 127.151847 
L 109.719091 126.283037 
L 111.162182 125.403282 
L 112.605273 124.523094 
L 114.048364 123.654694 
L 115.491455 122.813215 
L 116.934545 122.018212 
L 118.377636 121.2953 
L 119.820727 120.677267 
L 121.263818 120.203137 
L 122.706909 119.912951 
L 124.15 119.837352 
L 125.593091 119.985972 
L 127.036182 120.342935 
L 128.479273 120.87342 
L 129.922364 121.535676 
L 131.365455 122.290657 
L 132.808545 123.106501 
L 134.251636 123.959238 
L 135.694727 124.831783 
L 137.137818 125.712488 
L 138.580909 126.593815 
L 140.024 127.471281 
L 141.467091 128.342678 
L 142.910182 129.207535 
L 144.353273 130.066775 
L 145.796364 130.922548 
L 147.239455 131.7782 
L 148.682545 132.638339 
L 150.125636 133.508953 
L 151.568727 134.397526 
L 153.011818 135.313122 
L 154.454909 136.266392 
L 155.898 137.269496 
L 157.341091 138.335891 
L 158.784182 139.479923 
L 160.227273 140.716124 
L 161.670364 142.058101 
L 163.113455 143.516936 
L 164.556545 145.099132 
L 165.999636 146.804294 
L 167.442727 148.62296 
L 168.885818 150.535161 
L 170.328909 152.510288 
L 171.772 154.508703 
L 173.215091 156.485067 
L 174.658182 158.392874 
L 176.101273 160.189283 
L 177.544364 161.839195 
L 178.987455 163.317827 
L 180.430545 164.611481 
L 181.873636 165.716709 
L 183.316727 166.638398 
L 184.759818 167.387394 
L 186.202909 167.978173 
L 187.646 168.426906 
L 189.089091 168.750036 
L 190.532182 168.963378 
L 191.975273 169.081629 
L 193.418364 169.118182 
L 194.861455 169.085098 
L 196.304545 168.993179 
" style="fill:none;opacity:0.45;stroke:#12711c;stroke-dasharray:2.775,1.2;stroke-dashoffset:0;stroke-width:0.75;"/>
   </g>
   <g id="line2d_24">
    <path clip-path="url(#p40a6295a41)" d="M 51.995455 82.011294 
L 53.438545 82.115301 
L 54.881636 82.24094 
L 56.324727 82.394273 
L 57.767818 82.582486 
L 59.210909 82.814088 
L 60.654 83.099079 
L 62.097091 83.44906 
L 63.540182 83.877244 
L 64.983273 84.398281 
L 66.426364 85.027828 
L 67.869455 85.781749 
L 69.312545 86.67488 
L 70.755636 87.719301 
L 72.198727 88.922189 
L 73.641818 90.283469 
L 75.084909 91.793671 
L 76.528 93.432539 
L 77.971091 95.168993 
L 79.414182 96.962811 
L 80.857273 98.768025 
L 82.300364 100.537487 
L 83.743455 102.227691 
L 85.186545 103.802827 
L 86.629636 105.237321 
L 88.072727 106.516599 
L 89.515818 107.636277 
L 90.958909 108.600308 
L 92.402 109.418662 
L 93.845091 110.105049 
L 95.288182 110.674965 
L 96.731273 111.144219 
L 98.174364 111.527929 
L 99.617455 111.839919 
L 101.060545 112.09243 
L 102.503636 112.29604 
L 103.946727 112.459727 
L 105.389818 112.591002 
L 106.832909 112.696078 
L 108.276 112.780053 
L 109.719091 112.847082 
L 111.162182 112.900531 
L 112.605273 112.943118 
L 114.048364 112.977029 
L 115.491455 113.004018 
L 116.934545 113.025489 
L 118.377636 113.042566 
L 119.820727 113.056143 
L 121.263818 113.066936 
L 122.706909 113.075515 
L 124.15 113.082333 
L 125.593091 113.08775 
L 127.036182 113.092055 
L 128.479273 113.095475 
L 129.922364 113.098193 
L 131.365455 113.100352 
L 132.808545 113.102067 
L 134.251636 113.103429 
L 135.694727 113.104512 
L 137.137818 113.105372 
L 138.580909 113.106055 
L 140.024 113.106599 
L 141.467091 113.10703 
L 142.910182 113.107374 
L 144.353273 113.107647 
L 145.796364 113.107864 
L 147.239455 113.108038 
L 148.682545 113.108176 
L 150.125636 113.108288 
L 151.568727 113.108377 
L 153.011818 113.10845 
L 154.454909 113.108511 
L 155.898 113.108561 
L 157.341091 113.108605 
L 158.784182 113.108644 
L 160.227273 113.108681 
L 161.670364 113.108717 
L 163.113455 113.108755 
L 164.556545 113.108796 
L 165.999636 113.108843 
L 167.442727 113.108897 
L 168.885818 113.108963 
L 170.328909 113.109043 
L 171.772 113.109142 
L 173.215091 113.109265 
L 174.658182 113.109419 
L 176.101273 113.109611 
L 177.544364 113.109853 
L 178.987455 113.110156 
L 180.430545 113.110537 
L 181.873636 113.111017 
L 183.316727 113.111621 
L 184.759818 113.11238 
L 186.202909 113.113336 
L 187.646 113.114539 
L 189.089091 113.116053 
L 190.532182 113.117959 
L 191.975273 113.120358 
L 193.418364 113.123378 
L 194.861455 113.127179 
L 196.304545 113.131962 
" style="fill:none;opacity:0.9;stroke:#8c0800;stroke-linecap:round;stroke-width:1.5;"/>
   </g>
   <g id="line2d_25">
    <path clip-path="url(#p40a6295a41)" d="M 51.995455 84.370512 
L 53.438545 84.991939 
L 54.881636 85.737068 
L 56.324727 86.620787 
L 57.767818 87.655353 
L 59.210909 88.848267 
L 60.654 90.199923 
L 62.097091 91.701435 
L 63.540182 93.333188 
L 64.983273 95.064702 
L 66.426364 96.856208 
L 67.869455 98.66195 
L 69.312545 100.434706 
L 70.755636 102.130625 
L 72.198727 103.713346 
L 73.641818 105.156649 
L 75.084909 106.445312 
L 76.528 107.574388 
L 77.971091 108.547398 
L 79.414182 109.374019 
L 80.857273 110.067796 
L 82.300364 110.644166 
L 83.743455 111.11895 
L 85.186545 111.507327 
L 86.629636 111.823208 
L 88.072727 112.078931 
L 89.515818 112.285173 
L 90.958909 112.451003 
L 92.402 112.584014 
L 93.845091 112.69049 
L 95.288182 112.775593 
L 96.731273 112.843526 
L 98.174364 112.8977 
L 99.617455 112.940867 
L 101.060545 112.975243 
L 102.503636 113.002603 
L 103.946727 113.024372 
L 105.389818 113.041688 
L 106.832909 113.055458 
L 108.276 113.066409 
L 109.719091 113.075117 
L 111.162182 113.082043 
L 112.605273 113.087553 
L 114.048364 113.09194 
L 115.491455 113.095437 
L 116.934545 113.098229 
L 118.377636 113.100464 
L 119.820727 113.102261 
L 121.263818 113.103717 
L 122.706909 113.104907 
L 124.15 113.105896 
L 125.593091 113.106737 
L 127.036182 113.107473 
L 128.479273 113.108144 
L 129.922364 113.108787 
L 131.365455 113.109434 
L 132.808545 113.110121 
L 134.251636 113.110885 
L 135.694727 113.111764 
L 137.137818 113.112808 
L 138.580909 113.114071 
L 140.024 113.11562 
L 141.467091 113.117538 
L 142.910182 113.119926 
L 144.353273 113.122912 
L 145.796364 113.126655 
L 147.239455 113.131352 
L 148.682545 113.137253 
L 150.125636 113.144671 
L 151.568727 113.153999 
L 153.011818 113.165729 
L 154.454909 113.180479 
L 155.898 113.199026 
L 157.341091 113.222341 
L 158.784182 113.251642 
L 160.227273 113.28845 
L 161.670364 113.334665 
L 163.113455 113.39265 
L 164.556545 113.465343 
L 165.999636 113.556375 
L 167.442727 113.670223 
L 168.885818 113.812363 
L 170.328909 113.989455 
L 171.772 114.209518 
L 173.215091 114.482092 
L 174.658182 114.818352 
L 176.101273 115.231124 
L 177.544364 115.734746 
L 178.987455 116.34467 
L 180.430545 117.076732 
L 181.873636 117.945982 
L 183.316727 118.965029 
L 184.759818 120.141955 
L 186.202909 121.477968 
L 187.646 122.965194 
L 189.089091 124.585122 
L 190.532182 126.308317 
L 191.975273 128.095817 
L 193.418364 129.902274 
L 194.861455 131.680394 
L 196.304545 133.385783 
" style="fill:none;opacity:0.7;stroke:#000000;stroke-linecap:round;stroke-width:1.5;"/>
   </g>
   <g id="line2d_26">
    <path clip-path="url(#p40a6295a41)" d="M 51.995455 62.608816 
L 53.438545 62.403421 
L 54.881636 62.16634 
L 56.324727 61.913058 
L 57.767818 61.659682 
L 59.210909 61.423612 
L 60.654 61.223984 
L 62.097091 61.081702 
L 63.540182 61.019106 
L 64.983273 61.05944 
L 66.426364 61.226008 
L 67.869455 61.540936 
L 69.312545 62.02375 
L 70.755636 62.689885 
L 72.198727 63.548829 
L 73.641818 64.601771 
L 75.084909 65.839307 
L 76.528 67.240264 
L 77.971091 68.772243 
L 79.414182 70.393887 
L 80.857273 72.05856 
L 82.300364 73.718872 
L 83.743455 75.331168 
L 85.186545 76.859183 
L 86.629636 78.276394 
L 88.072727 79.566864 
L 89.515818 80.72464 
L 90.958909 81.752078 
L 92.402 82.657643 
L 93.845091 83.453685 
L 95.288182 84.154513 
L 96.731273 84.774929 
L 98.174364 85.329227 
L 99.617455 85.830584 
L 101.060545 86.290753 
L 102.503636 86.719952 
L 103.946727 87.126873 
L 105.389818 87.518765 
L 106.832909 87.901551 
L 108.276 88.279956 
L 109.719091 88.657663 
L 111.162182 89.037458 
L 112.605273 89.421398 
L 114.048364 89.810963 
L 115.491455 90.207214 
L 116.934545 90.610917 
L 118.377636 91.022643 
L 119.820727 91.44283 
L 121.263818 91.871817 
L 122.706909 92.309857 
L 124.15 92.757131 
L 125.593091 93.213752 
L 127.036182 93.679766 
L 128.479273 94.155128 
L 129.922364 94.639662 
L 131.365455 95.132986 
L 132.808545 95.634444 
L 134.251636 96.143051 
L 135.694727 96.657482 
L 137.137818 97.176104 
L 138.580909 97.697051 
L 140.024 98.218357 
L 141.467091 98.73815 
L 142.910182 99.254857 
L 144.353273 99.767305 
L 145.796364 100.274589 
L 147.239455 100.775598 
L 148.682545 101.268304 
L 150.125636 101.74933 
L 151.568727 102.214632 
L 153.011818 102.661409 
L 154.454909 103.089796 
L 155.898 103.502597 
L 157.341091 103.903173 
L 158.784182 104.29334 
L 160.227273 104.672648 
L 161.670364 105.039019 
L 163.113455 105.389969 
L 164.556545 105.723753 
L 165.999636 106.039948 
L 167.442727 106.339282 
L 168.885818 106.62299 
L 170.328909 106.892205 
L 171.772 107.147661 
L 173.215091 107.389689 
L 174.658182 107.618363 
L 176.101273 107.833678 
L 177.544364 108.035682 
L 178.987455 108.224546 
L 180.430545 108.400543 
L 181.873636 108.563959 
L 183.316727 108.714961 
L 184.759818 108.853453 
L 186.202909 108.978956 
L 187.646 109.09054 
L 189.089091 109.186822 
L 190.532182 109.266001 
L 191.975273 109.325914 
L 193.418364 109.364087 
L 194.861455 109.377751 
L 196.304545 109.363856 
" style="fill:none;opacity:0.45;stroke:#8c0800;stroke-dasharray:2.775,1.2;stroke-dashoffset:0;stroke-width:0.75;"/>
   </g>
   <g id="line2d_27">
    <path clip-path="url(#p40a6295a41)" d="M 51.995455 101.413773 
L 53.438545 101.827181 
L 54.881636 102.31554 
L 56.324727 102.875488 
L 57.767818 103.50529 
L 59.210909 104.204565 
L 60.654 104.974174 
L 62.097091 105.816417 
L 63.540182 106.735381 
L 64.983273 107.737122 
L 66.426364 108.829647 
L 67.869455 110.022562 
L 69.312545 111.32601 
L 70.755636 112.748717 
L 72.198727 114.295548 
L 73.641818 115.965167 
L 75.084909 117.748034 
L 76.528 119.624813 
L 77.971091 121.565742 
L 79.414182 123.531735 
L 80.857273 125.47749 
L 82.300364 127.356102 
L 83.743455 129.124214 
L 85.186545 130.74647 
L 86.629636 132.198248 
L 88.072727 133.466334 
L 89.515818 134.547914 
L 90.958909 135.448538 
L 92.402 136.179681 
L 93.845091 136.756413 
L 95.288182 137.195417 
L 96.731273 137.513509 
L 98.174364 137.726631 
L 99.617455 137.849254 
L 101.060545 137.894106 
L 102.503636 137.872129 
L 103.946727 137.792582 
L 105.389818 137.663238 
L 106.832909 137.490605 
L 108.276 137.28015 
L 109.719091 137.036501 
L 111.162182 136.763603 
L 112.605273 136.464838 
L 114.048364 136.143095 
L 115.491455 135.800822 
L 116.934545 135.440062 
L 118.377636 135.062488 
L 119.820727 134.669456 
L 121.263818 134.262056 
L 122.706909 133.841173 
L 124.15 133.407534 
L 125.593091 132.961748 
L 127.036182 132.504345 
L 128.479273 132.035823 
L 129.922364 131.556724 
L 131.365455 131.067718 
L 132.808545 130.56969 
L 134.251636 130.063808 
L 135.694727 129.551542 
L 137.137818 129.03464 
L 138.580909 128.51506 
L 140.024 127.99484 
L 141.467091 127.47591 
L 142.910182 126.95989 
L 144.353273 126.447988 
L 145.796364 125.941139 
L 147.239455 125.440477 
L 148.682545 124.948048 
L 150.125636 124.467245 
L 151.568727 124.002123 
L 153.011818 123.555492 
L 154.454909 123.127225 
L 155.898 122.714526 
L 157.341091 122.314038 
L 158.784182 121.923949 
L 160.227273 121.544714 
L 161.670364 121.178416 
L 163.113455 120.827541 
L 164.556545 120.493839 
L 165.999636 120.177738 
L 167.442727 119.878513 
L 168.885818 119.594936 
L 170.328909 119.325882 
L 171.772 119.070624 
L 173.215091 118.828842 
L 174.658182 118.600475 
L 176.101273 118.385545 
L 177.544364 118.184024 
L 178.987455 117.995767 
L 180.430545 117.820532 
L 181.873636 117.658075 
L 183.316727 117.50828 
L 184.759818 117.371307 
L 186.202909 117.247716 
L 187.646 117.138538 
L 189.089091 117.045284 
L 190.532182 116.969918 
L 191.975273 116.914802 
L 193.418364 116.88267 
L 194.861455 116.876607 
L 196.304545 116.900069 
" style="fill:none;opacity:0.45;stroke:#8c0800;stroke-dasharray:2.775,1.2;stroke-dashoffset:0;stroke-width:0.75;"/>
   </g>
   <g id="line2d_28">
    <path clip-path="url(#p40a6295a41)" d="M 51.995455 81.75397 
L 53.438545 81.770877 
L 54.881636 81.792136 
L 56.324727 81.818859 
L 57.767818 81.852435 
L 59.210909 81.894602 
L 60.654 81.947525 
L 62.097091 82.013897 
L 63.540182 82.097054 
L 64.983273 82.201111 
L 66.426364 82.331123 
L 67.869455 82.493251 
L 69.312545 82.694945 
L 70.755636 82.945115 
L 72.198727 83.254268 
L 73.641818 83.634573 
L 75.084909 84.099789 
L 76.528 84.664986 
L 77.971091 85.34596 
L 79.414182 86.158249 
L 80.857273 87.115674 
L 82.300364 88.228416 
L 83.743455 89.500735 
L 85.186545 90.928652 
L 86.629636 92.49806 
L 88.072727 94.183859 
L 89.515818 95.950639 
L 90.958909 97.755147 
L 92.402 99.550292 
L 93.845091 101.289943 
L 95.288182 102.933538 
L 96.731273 104.449537 
L 98.174364 105.817187 
L 99.617455 107.026548 
L 101.060545 108.077154 
L 102.503636 108.975882 
L 103.946727 109.734606 
L 105.389818 110.368029 
L 106.832909 110.891937 
L 108.276 111.321934 
L 109.719091 111.672624 
L 111.162182 111.957157 
L 112.605273 112.187048 
L 114.048364 112.372161 
L 115.491455 112.52081 
L 116.934545 112.639917 
L 118.377636 112.735184 
L 119.820727 112.811277 
L 121.263818 112.871986 
L 122.706909 112.920378 
L 124.15 112.958924 
L 125.593091 112.98961 
L 127.036182 113.014028 
L 128.479273 113.033451 
L 129.922364 113.048897 
L 131.365455 113.061176 
L 132.808545 113.070937 
L 134.251636 113.078695 
L 135.694727 113.08486 
L 137.137818 113.089759 
L 138.580909 113.093652 
L 140.024 113.096745 
L 141.467091 113.099203 
L 142.910182 113.101155 
L 144.353273 113.102707 
L 145.796364 113.10394 
L 147.239455 113.104921 
L 148.682545 113.1057 
L 150.125636 113.106321 
L 151.568727 113.106815 
L 153.011818 113.107209 
L 154.454909 113.107525 
L 155.898 113.107778 
L 157.341091 113.107983 
L 158.784182 113.10815 
L 160.227273 113.108289 
L 161.670364 113.108406 
L 163.113455 113.108507 
L 164.556545 113.108599 
L 165.999636 113.108687 
L 167.442727 113.108773 
L 168.885818 113.108865 
L 170.328909 113.108965 
L 171.772 113.10908 
L 173.215091 113.109216 
L 174.658182 113.10938 
L 176.101273 113.10958 
L 177.544364 113.109828 
L 178.987455 113.110136 
L 180.430545 113.110522 
L 181.873636 113.111005 
L 183.316727 113.111611 
L 184.759818 113.112372 
L 186.202909 113.11333 
L 187.646 113.114534 
L 189.089091 113.116049 
L 190.532182 113.117956 
L 191.975273 113.120356 
L 193.418364 113.123376 
L 194.861455 113.127177 
L 196.304545 113.131961 
" style="fill:none;opacity:0.9;stroke:#591e71;stroke-linecap:round;stroke-width:1.5;"/>
   </g>
   <g id="line2d_29">
    <path clip-path="url(#p40a6295a41)" d="M 51.995455 84.370512 
L 53.438545 84.991939 
L 54.881636 85.737068 
L 56.324727 86.620787 
L 57.767818 87.655353 
L 59.210909 88.848267 
L 60.654 90.199923 
L 62.097091 91.701435 
L 63.540182 93.333188 
L 64.983273 95.064702 
L 66.426364 96.856208 
L 67.869455 98.66195 
L 69.312545 100.434706 
L 70.755636 102.130625 
L 72.198727 103.713346 
L 73.641818 105.156649 
L 75.084909 106.445312 
L 76.528 107.574388 
L 77.971091 108.547398 
L 79.414182 109.374019 
L 80.857273 110.067796 
L 82.300364 110.644166 
L 83.743455 111.11895 
L 85.186545 111.507327 
L 86.629636 111.823208 
L 88.072727 112.078931 
L 89.515818 112.285173 
L 90.958909 112.451003 
L 92.402 112.584014 
L 93.845091 112.69049 
L 95.288182 112.775593 
L 96.731273 112.843526 
L 98.174364 112.8977 
L 99.617455 112.940867 
L 101.060545 112.975243 
L 102.503636 113.002603 
L 103.946727 113.024372 
L 105.389818 113.041688 
L 106.832909 113.055458 
L 108.276 113.066409 
L 109.719091 113.075117 
L 111.162182 113.082043 
L 112.605273 113.087553 
L 114.048364 113.09194 
L 115.491455 113.095437 
L 116.934545 113.098229 
L 118.377636 113.100464 
L 119.820727 113.102261 
L 121.263818 113.103717 
L 122.706909 113.104907 
L 124.15 113.105896 
L 125.593091 113.106737 
L 127.036182 113.107473 
L 128.479273 113.108144 
L 129.922364 113.108787 
L 131.365455 113.109434 
L 132.808545 113.110121 
L 134.251636 113.110885 
L 135.694727 113.111764 
L 137.137818 113.112808 
L 138.580909 113.114071 
L 140.024 113.11562 
L 141.467091 113.117538 
L 142.910182 113.119926 
L 144.353273 113.122912 
L 145.796364 113.126655 
L 147.239455 113.131352 
L 148.682545 113.137253 
L 150.125636 113.144671 
L 151.568727 113.153999 
L 153.011818 113.165729 
L 154.454909 113.180479 
L 155.898 113.199026 
L 157.341091 113.222341 
L 158.784182 113.251642 
L 160.227273 113.28845 
L 161.670364 113.334665 
L 163.113455 113.39265 
L 164.556545 113.465343 
L 165.999636 113.556375 
L 167.442727 113.670223 
L 168.885818 113.812363 
L 170.328909 113.989455 
L 171.772 114.209518 
L 173.215091 114.482092 
L 174.658182 114.818352 
L 176.101273 115.231124 
L 177.544364 115.734746 
L 178.987455 116.34467 
L 180.430545 117.076732 
L 181.873636 117.945982 
L 183.316727 118.965029 
L 184.759818 120.141955 
L 186.202909 121.477968 
L 187.646 122.965194 
L 189.089091 124.585122 
L 190.532182 126.308317 
L 191.975273 128.095817 
L 193.418364 129.902274 
L 194.861455 131.680394 
L 196.304545 133.385783 
" style="fill:none;opacity:0.7;stroke:#000000;stroke-linecap:round;stroke-width:1.5;"/>
   </g>
   <g id="line2d_30">
    <path clip-path="url(#p40a6295a41)" d="M 51.995455 81.397233 
L 53.438545 81.328836 
L 54.881636 81.245953 
L 56.324727 81.146114 
L 57.767818 81.026618 
L 59.210909 80.884571 
L 60.654 80.71696 
L 62.097091 80.520794 
L 63.540182 80.293326 
L 64.983273 80.03241 
L 66.426364 79.736989 
L 67.869455 79.407741 
L 69.312545 79.047866 
L 70.755636 78.663959 
L 72.198727 78.266914 
L 73.641818 77.872728 
L 75.084909 77.503065 
L 76.528 77.185403 
L 77.971091 76.952598 
L 79.414182 76.841671 
L 80.857273 76.891727 
L 82.300364 77.140985 
L 83.743455 77.62307 
L 85.186545 78.362976 
L 86.629636 79.373306 
L 88.072727 80.651573 
L 89.515818 82.179257 
L 90.958909 83.923036 
L 92.402 85.838066 
L 93.845091 87.872656 
L 95.288182 89.973346 
L 96.731273 92.089389 
L 98.174364 94.175969 
L 99.617455 96.195942 
L 101.060545 98.120303 
L 102.503636 99.927767 
L 103.946727 101.603908 
L 105.389818 103.140146 
L 106.832909 104.532787 
L 108.276 105.782155 
L 109.719091 106.89183 
L 111.162182 107.867963 
L 112.605273 108.718652 
L 114.048364 109.453368 
L 115.491455 110.082442 
L 116.934545 110.616604 
L 118.377636 111.066602 
L 119.820727 111.44288 
L 121.263818 111.755338 
L 122.706909 112.013149 
L 124.15 112.224645 
L 125.593091 112.397255 
L 127.036182 112.537494 
L 128.479273 112.650987 
L 129.922364 112.74253 
L 131.365455 112.816161 
L 132.808545 112.875246 
L 134.251636 112.922566 
L 135.694727 112.960404 
L 137.137818 112.99062 
L 138.580909 113.014725 
L 140.024 113.033938 
L 141.467091 113.049241 
L 142.910182 113.061424 
L 144.353273 113.071119 
L 145.796364 113.078831 
L 147.239455 113.084964 
L 148.682545 113.089841 
L 150.125636 113.093719 
L 151.568727 113.096802 
L 153.011818 113.099253 
L 154.454909 113.101203 
L 155.898 113.102754 
L 157.341091 113.103986 
L 158.784182 113.104965 
L 160.227273 113.105738 
L 161.670364 113.106338 
L 163.113455 113.106784 
L 164.556545 113.10708 
L 165.999636 113.107222 
L 167.442727 113.107208 
L 168.885818 113.107053 
L 170.328909 113.106768 
L 171.772 113.106357 
L 173.215091 113.105809 
L 174.658182 113.105102 
L 176.101273 113.1042 
L 177.544364 113.103059 
L 178.987455 113.101619 
L 180.430545 113.099803 
L 181.873636 113.097517 
L 183.316727 113.094642 
L 184.759818 113.091026 
L 186.202909 113.086482 
L 187.646 113.080776 
L 189.089091 113.073616 
L 190.532182 113.064638 
L 191.975273 113.053394 
L 193.418364 113.039329 
L 194.861455 113.021763 
L 196.304545 112.999869 
" style="fill:none;opacity:0.45;stroke:#591e71;stroke-dasharray:2.775,1.2;stroke-dashoffset:0;stroke-width:0.75;"/>
   </g>
   <g id="line2d_31">
    <path clip-path="url(#p40a6295a41)" d="M 51.995455 82.110707 
L 53.438545 82.212918 
L 54.881636 82.33832 
L 56.324727 82.491603 
L 57.767818 82.678251 
L 59.210909 82.904633 
L 60.654 83.178091 
L 62.097091 83.507001 
L 63.540182 83.900782 
L 64.983273 84.369812 
L 66.426364 84.925257 
L 67.869455 85.57876 
L 69.312545 86.342023 
L 70.755636 87.22627 
L 72.198727 88.241622 
L 73.641818 89.396417 
L 75.084909 90.696513 
L 76.528 92.144568 
L 77.971091 93.739322 
L 79.414182 95.474827 
L 80.857273 97.339622 
L 82.300364 99.315847 
L 83.743455 101.378399 
L 85.186545 103.494328 
L 86.629636 105.622815 
L 88.072727 107.716145 
L 89.515818 109.722021 
L 90.958909 111.587259 
L 92.402 113.262518 
L 93.845091 114.707231 
L 95.288182 115.893731 
L 96.731273 116.809685 
L 98.174364 117.458405 
L 99.617455 117.857155 
L 101.060545 118.034005 
L 102.503636 118.023997 
L 103.946727 117.865304 
L 105.389818 117.595912 
L 106.832909 117.251087 
L 108.276 116.861713 
L 109.719091 116.453417 
L 111.162182 116.046352 
L 112.605273 115.655445 
L 114.048364 115.290953 
L 115.491455 114.959178 
L 116.934545 114.663229 
L 118.377636 114.403766 
L 119.820727 114.179673 
L 121.263818 113.988633 
L 122.706909 113.827606 
L 124.15 113.693202 
L 125.593091 113.581965 
L 127.036182 113.490562 
L 128.479273 113.415915 
L 129.922364 113.355263 
L 131.365455 113.306191 
L 132.808545 113.266629 
L 134.251636 113.234824 
L 135.694727 113.209317 
L 137.137818 113.188898 
L 138.580909 113.172579 
L 140.024 113.159552 
L 141.467091 113.149164 
L 142.910182 113.140886 
L 144.353273 113.134295 
L 145.796364 113.12905 
L 147.239455 113.124877 
L 148.682545 113.12156 
L 150.125636 113.118923 
L 151.568727 113.116828 
L 153.011818 113.115166 
L 154.454909 113.113847 
L 155.898 113.112803 
L 157.341091 113.11198 
L 158.784182 113.111336 
L 160.227273 113.11084 
L 161.670364 113.110474 
L 163.113455 113.110231 
L 164.556545 113.110119 
L 165.999636 113.110151 
L 167.442727 113.110338 
L 168.885818 113.110677 
L 170.328909 113.111163 
L 171.772 113.111804 
L 173.215091 113.112623 
L 174.658182 113.113658 
L 176.101273 113.11496 
L 177.544364 113.116597 
L 178.987455 113.118654 
L 180.430545 113.12124 
L 181.873636 113.124492 
L 183.316727 113.12858 
L 184.759818 113.133718 
L 186.202909 113.140177 
L 187.646 113.148291 
L 189.089091 113.158482 
L 190.532182 113.171274 
L 191.975273 113.187318 
L 193.418364 113.207424 
L 194.861455 113.232592 
L 196.304545 113.264054 
" style="fill:none;opacity:0.45;stroke:#591e71;stroke-dasharray:2.775,1.2;stroke-dashoffset:0;stroke-width:0.75;"/>
   </g>
   <g id="patch_3">
    <path d="M 44.78 175.96 
L 44.78 25.44 
" style="fill:none;stroke:#262626;stroke-linecap:square;stroke-linejoin:miter;stroke-width:0.8;"/>
   </g>
   <g id="patch_4">
    <path d="M 44.78 175.96 
L 203.52 175.96 
" style="fill:none;stroke:#262626;stroke-linecap:square;stroke-linejoin:miter;stroke-width:0.8;"/>
   </g>
   <g id="text_14">
    <!-- SM06 -->
    <defs>
     <path d="M 4.5 23 
L 13.421875 23.78125 
Q 14.0625 18.40625 16.375 14.96875 
Q 18.703125 11.53125 23.578125 9.40625 
Q 28.46875 7.28125 34.578125 7.28125 
Q 39.984375 7.28125 44.140625 8.890625 
Q 48.296875 10.5 50.3125 13.296875 
Q 52.34375 16.109375 52.34375 19.4375 
Q 52.34375 22.796875 50.390625 25.3125 
Q 48.4375 27.828125 43.953125 29.546875 
Q 41.0625 30.671875 31.203125 33.03125 
Q 21.34375 35.40625 17.390625 37.5 
Q 12.25 40.1875 9.734375 44.15625 
Q 7.234375 48.140625 7.234375 53.078125 
Q 7.234375 58.5 10.296875 63.203125 
Q 13.375 67.921875 19.28125 70.359375 
Q 25.203125 72.796875 32.421875 72.796875 
Q 40.375 72.796875 46.453125 70.234375 
Q 52.546875 67.671875 55.8125 62.6875 
Q 59.078125 57.71875 59.328125 51.421875 
L 50.25 50.734375 
Q 49.515625 57.515625 45.28125 60.984375 
Q 41.0625 64.453125 32.8125 64.453125 
Q 24.21875 64.453125 20.28125 61.296875 
Q 16.359375 58.15625 16.359375 53.71875 
Q 16.359375 49.859375 19.140625 47.359375 
Q 21.875 44.875 33.421875 42.265625 
Q 44.96875 39.65625 49.265625 37.703125 
Q 55.515625 34.8125 58.484375 30.390625 
Q 61.46875 25.984375 61.46875 20.21875 
Q 61.46875 14.5 58.203125 9.4375 
Q 54.9375 4.390625 48.796875 1.578125 
Q 42.671875 -1.21875 35.015625 -1.21875 
Q 25.296875 -1.21875 18.71875 1.609375 
Q 12.15625 4.4375 8.421875 10.125 
Q 4.6875 15.828125 4.5 23 
z
" id="ArialMT-53"/>
     <path d="M 7.421875 0 
L 7.421875 71.578125 
L 21.6875 71.578125 
L 38.625 20.90625 
Q 40.96875 13.8125 42.046875 10.296875 
Q 43.265625 14.203125 45.84375 21.78125 
L 62.984375 71.578125 
L 75.734375 71.578125 
L 75.734375 0 
L 66.609375 0 
L 66.609375 59.90625 
L 45.796875 0 
L 37.25 0 
L 16.546875 60.9375 
L 16.546875 0 
z
" id="ArialMT-4d"/>
    </defs>
    <g style="fill:#262626;" transform="translate(108.476875 19.44)scale(0.12 -0.12)">
     <use xlink:href="#ArialMT-53"/>
     <use x="66.699219" xlink:href="#ArialMT-4d"/>
     <use x="150" xlink:href="#ArialMT-30"/>
     <use x="205.615234" xlink:href="#ArialMT-36"/>
    </g>
   </g>
  </g>
 </g>
 <defs>
  <clipPath id="p40a6295a41">
   <rect height="150.52" width="158.74" x="44.78" y="25.44"/>
  </clipPath>
 </defs>
</svg>
