<?xml version="1.0" encoding="utf-8" standalone="no"?>
<!DOCTYPE svg PUBLIC "-//W3C//DTD SVG 1.1//EN"
  "http://www.w3.org/Graphics/SVG/1.1/DTD/svg11.dtd">
<!-- Created with matplotlib (http://matplotlib.org/) -->
<svg height="159.84pt" version="1.1" viewBox="0 0 230.4 159.84" width="230.4pt" xmlns="http://www.w3.org/2000/svg" xmlns:xlink="http://www.w3.org/1999/xlink">
 <defs>
  <style type="text/css">
*{stroke-linecap:butt;stroke-linejoin:round;}
  </style>
 </defs>
 <g id="figure_1">
  <g id="patch_1">
   <path d="M 0 159.84 
L 230.4 159.84 
L 230.4 0 
L 0 0 
z
" style="fill:#ffffff;"/>
  </g>
  <g id="axes_1">
   <g id="patch_2">
    <path d="M 45.425 120.04 
L 217.35 120.04 
L 217.35 25.8 
L 45.425 25.8 
z
" style="fill:#ffffff;"/>
   </g>
   <g id="matplotlib.axis_1">
    <g id="xtick_1">
     <g id="line2d_1">
      <defs>
       <path d="M 0 0 
L 0 3.5 
" id="m01fb3f76a3" style="stroke:#262626;stroke-width:0.8;"/>
      </defs>
      <g>
       <use style="fill:#262626;stroke:#262626;stroke-width:0.8;" x="53.548699" xlink:href="#m01fb3f76a3" y="120.04"/>
      </g>
     </g>
     <g id="text_1">
      <!-- 2 -->
      <defs>
       <path d="M 50.34375 8.453125 
L 50.34375 0 
L 3.03125 0 
Q 2.9375 3.171875 4.046875 6.109375 
Q 5.859375 10.9375 9.828125 15.625 
Q 13.8125 20.3125 21.34375 26.46875 
Q 33.015625 36.03125 37.109375 41.625 
Q 41.21875 47.21875 41.21875 52.203125 
Q 41.21875 57.421875 37.46875 61 
Q 33.734375 64.59375 27.734375 64.59375 
Q 21.390625 64.59375 17.578125 60.78125 
Q 13.765625 56.984375 13.71875 50.25 
L 4.6875 51.171875 
Q 5.609375 61.28125 11.65625 66.578125 
Q 17.71875 71.875 27.9375 71.875 
Q 38.234375 71.875 44.234375 66.15625 
Q 50.25 60.453125 50.25 52 
Q 50.25 47.703125 48.484375 43.546875 
Q 46.734375 39.40625 42.65625 34.8125 
Q 38.578125 30.21875 29.109375 22.21875 
Q 21.1875 15.578125 18.9375 13.203125 
Q 16.703125 10.84375 15.234375 8.453125 
z
" id="ArialMT-32"/>
      </defs>
      <g style="fill:#262626;" transform="translate(50.76823 134.197812)scale(0.1 -0.1)">
       <use xlink:href="#ArialMT-32"/>
      </g>
     </g>
    </g>
    <g id="xtick_2">
     <g id="line2d_2">
      <g>
       <use style="fill:#262626;stroke:#262626;stroke-width:0.8;" x="84.684108" xlink:href="#m01fb3f76a3" y="120.04"/>
      </g>
     </g>
     <g id="text_2">
      <!-- 4 -->
      <defs>
       <path d="M 32.328125 0 
L 32.328125 17.140625 
L 1.265625 17.140625 
L 1.265625 25.203125 
L 33.9375 71.578125 
L 41.109375 71.578125 
L 41.109375 25.203125 
L 50.78125 25.203125 
L 50.78125 17.140625 
L 41.109375 17.140625 
L 41.109375 0 
z
M 32.328125 25.203125 
L 32.328125 57.46875 
L 9.90625 25.203125 
z
" id="ArialMT-34"/>
      </defs>
      <g style="fill:#262626;" transform="translate(81.903639 134.197812)scale(0.1 -0.1)">
       <use xlink:href="#ArialMT-34"/>
      </g>
     </g>
    </g>
    <g id="xtick_3">
     <g id="line2d_3">
      <g>
       <use style="fill:#262626;stroke:#262626;stroke-width:0.8;" x="115.819517" xlink:href="#m01fb3f76a3" y="120.04"/>
      </g>
     </g>
     <g id="text_3">
      <!-- 6 -->
      <defs>
       <path d="M 49.75 54.046875 
L 41.015625 53.375 
Q 39.84375 58.546875 37.703125 60.890625 
Q 34.125 64.65625 28.90625 64.65625 
Q 24.703125 64.65625 21.53125 62.3125 
Q 17.390625 59.28125 14.984375 53.46875 
Q 12.59375 47.65625 12.5 36.921875 
Q 15.671875 41.75 20.265625 44.09375 
Q 24.859375 46.4375 29.890625 46.4375 
Q 38.671875 46.4375 44.84375 39.96875 
Q 51.03125 33.5 51.03125 23.25 
Q 51.03125 16.5 48.125 10.71875 
Q 45.21875 4.9375 40.140625 1.859375 
Q 35.0625 -1.21875 28.609375 -1.21875 
Q 17.625 -1.21875 10.6875 6.859375 
Q 3.765625 14.9375 3.765625 33.5 
Q 3.765625 54.25 11.421875 63.671875 
Q 18.109375 71.875 29.4375 71.875 
Q 37.890625 71.875 43.28125 67.140625 
Q 48.6875 62.40625 49.75 54.046875 
z
M 13.875 23.1875 
Q 13.875 18.65625 15.796875 14.5 
Q 17.71875 10.359375 21.1875 8.171875 
Q 24.65625 6 28.46875 6 
Q 34.03125 6 38.03125 10.484375 
Q 42.046875 14.984375 42.046875 22.703125 
Q 42.046875 30.125 38.078125 34.390625 
Q 34.125 38.671875 28.125 38.671875 
Q 22.171875 38.671875 18.015625 34.390625 
Q 13.875 30.125 13.875 23.1875 
z
" id="ArialMT-36"/>
      </defs>
      <g style="fill:#262626;" transform="translate(113.039048 134.197812)scale(0.1 -0.1)">
       <use xlink:href="#ArialMT-36"/>
      </g>
     </g>
    </g>
    <g id="xtick_4">
     <g id="line2d_4">
      <g>
       <use style="fill:#262626;stroke:#262626;stroke-width:0.8;" x="146.954926" xlink:href="#m01fb3f76a3" y="120.04"/>
      </g>
     </g>
     <g id="text_4">
      <!-- 8 -->
      <defs>
       <path d="M 17.671875 38.8125 
Q 12.203125 40.828125 9.5625 44.53125 
Q 6.9375 48.25 6.9375 53.421875 
Q 6.9375 61.234375 12.546875 66.546875 
Q 18.171875 71.875 27.484375 71.875 
Q 36.859375 71.875 42.578125 66.421875 
Q 48.296875 60.984375 48.296875 53.171875 
Q 48.296875 48.1875 45.671875 44.5 
Q 43.0625 40.828125 37.75 38.8125 
Q 44.34375 36.671875 47.78125 31.875 
Q 51.21875 27.09375 51.21875 20.453125 
Q 51.21875 11.28125 44.71875 5.03125 
Q 38.234375 -1.21875 27.640625 -1.21875 
Q 17.046875 -1.21875 10.546875 5.046875 
Q 4.046875 11.328125 4.046875 20.703125 
Q 4.046875 27.6875 7.59375 32.390625 
Q 11.140625 37.109375 17.671875 38.8125 
z
M 15.921875 53.71875 
Q 15.921875 48.640625 19.1875 45.40625 
Q 22.46875 42.1875 27.6875 42.1875 
Q 32.765625 42.1875 36.015625 45.375 
Q 39.265625 48.578125 39.265625 53.21875 
Q 39.265625 58.0625 35.90625 61.359375 
Q 32.5625 64.65625 27.59375 64.65625 
Q 22.5625 64.65625 19.234375 61.421875 
Q 15.921875 58.203125 15.921875 53.71875 
z
M 13.09375 20.65625 
Q 13.09375 16.890625 14.875 13.375 
Q 16.65625 9.859375 20.171875 7.921875 
Q 23.6875 6 27.734375 6 
Q 34.03125 6 38.125 10.046875 
Q 42.234375 14.109375 42.234375 20.359375 
Q 42.234375 26.703125 38.015625 30.859375 
Q 33.796875 35.015625 27.4375 35.015625 
Q 21.234375 35.015625 17.15625 30.90625 
Q 13.09375 26.8125 13.09375 20.65625 
z
" id="ArialMT-38"/>
      </defs>
      <g style="fill:#262626;" transform="translate(144.174457 134.197812)scale(0.1 -0.1)">
       <use xlink:href="#ArialMT-38"/>
      </g>
     </g>
    </g>
    <g id="xtick_5">
     <g id="line2d_5">
      <g>
       <use style="fill:#262626;stroke:#262626;stroke-width:0.8;" x="178.090335" xlink:href="#m01fb3f76a3" y="120.04"/>
      </g>
     </g>
     <g id="text_5">
      <!-- 10 -->
      <defs>
       <path d="M 37.25 0 
L 28.46875 0 
L 28.46875 56 
Q 25.296875 52.984375 20.140625 49.953125 
Q 14.984375 46.921875 10.890625 45.40625 
L 10.890625 53.90625 
Q 18.265625 57.375 23.78125 62.296875 
Q 29.296875 67.234375 31.59375 71.875 
L 37.25 71.875 
z
" id="ArialMT-31"/>
       <path d="M 4.15625 35.296875 
Q 4.15625 48 6.765625 55.734375 
Q 9.375 63.484375 14.515625 67.671875 
Q 19.671875 71.875 27.484375 71.875 
Q 33.25 71.875 37.59375 69.546875 
Q 41.9375 67.234375 44.765625 62.859375 
Q 47.609375 58.5 49.21875 52.21875 
Q 50.828125 45.953125 50.828125 35.296875 
Q 50.828125 22.703125 48.234375 14.96875 
Q 45.65625 7.234375 40.5 3 
Q 35.359375 -1.21875 27.484375 -1.21875 
Q 17.140625 -1.21875 11.234375 6.203125 
Q 4.15625 15.140625 4.15625 35.296875 
z
M 13.1875 35.296875 
Q 13.1875 17.671875 17.3125 11.828125 
Q 21.4375 6 27.484375 6 
Q 33.546875 6 37.671875 11.859375 
Q 41.796875 17.71875 41.796875 35.296875 
Q 41.796875 52.984375 37.671875 58.78125 
Q 33.546875 64.59375 27.390625 64.59375 
Q 21.34375 64.59375 17.71875 59.46875 
Q 13.1875 52.9375 13.1875 35.296875 
z
" id="ArialMT-30"/>
      </defs>
      <g style="fill:#262626;" transform="translate(172.529397 134.197812)scale(0.1 -0.1)">
       <use xlink:href="#ArialMT-31"/>
       <use x="55.615234" xlink:href="#ArialMT-30"/>
      </g>
     </g>
    </g>
    <g id="xtick_6">
     <g id="line2d_6">
      <g>
       <use style="fill:#262626;stroke:#262626;stroke-width:0.8;" x="209.225744" xlink:href="#m01fb3f76a3" y="120.04"/>
      </g>
     </g>
     <g id="text_6">
      <!-- 12 -->
      <g style="fill:#262626;" transform="translate(203.664806 134.197812)scale(0.1 -0.1)">
       <use xlink:href="#ArialMT-31"/>
       <use x="55.615234" xlink:href="#ArialMT-32"/>
      </g>
     </g>
    </g>
    <g id="text_7">
     <!-- pH -->
     <defs>
      <path d="M 6.59375 -19.875 
L 6.59375 51.859375 
L 14.59375 51.859375 
L 14.59375 45.125 
Q 17.4375 49.078125 21 51.046875 
Q 24.5625 53.03125 29.640625 53.03125 
Q 36.28125 53.03125 41.359375 49.609375 
Q 46.4375 46.1875 49.015625 39.953125 
Q 51.609375 33.734375 51.609375 26.3125 
Q 51.609375 18.359375 48.75 11.984375 
Q 45.90625 5.609375 40.453125 2.21875 
Q 35.015625 -1.171875 29 -1.171875 
Q 24.609375 -1.171875 21.109375 0.6875 
Q 17.625 2.546875 15.375 5.375 
L 15.375 -19.875 
z
M 14.546875 25.640625 
Q 14.546875 15.625 18.59375 10.84375 
Q 22.65625 6.0625 28.421875 6.0625 
Q 34.28125 6.0625 38.453125 11.015625 
Q 42.625 15.96875 42.625 26.375 
Q 42.625 36.28125 38.546875 41.203125 
Q 34.46875 46.140625 28.8125 46.140625 
Q 23.1875 46.140625 18.859375 40.890625 
Q 14.546875 35.640625 14.546875 25.640625 
z
" id="ArialMT-70"/>
      <path d="M 8.015625 0 
L 8.015625 71.578125 
L 17.484375 71.578125 
L 17.484375 42.1875 
L 54.6875 42.1875 
L 54.6875 71.578125 
L 64.15625 71.578125 
L 64.15625 0 
L 54.6875 0 
L 54.6875 33.734375 
L 17.484375 33.734375 
L 17.484375 0 
z
" id="ArialMT-48"/>
     </defs>
     <g style="fill:#262626;" transform="translate(124.996094 147.343125)scale(0.1 -0.1)">
      <use xlink:href="#ArialMT-70"/>
      <use x="55.615234" xlink:href="#ArialMT-48"/>
     </g>
    </g>
   </g>
   <g id="matplotlib.axis_2">
    <g id="ytick_1">
     <g id="line2d_7">
      <defs>
       <path d="M 0 0 
L -3.5 0 
" id="m636a69369e" style="stroke:#262626;stroke-width:0.8;"/>
      </defs>
      <g>
       <use style="fill:#262626;stroke:#262626;stroke-width:0.8;" x="45.425" xlink:href="#m636a69369e" y="104.893366"/>
      </g>
     </g>
     <g id="text_8">
      <!-- −5 -->
      <defs>
       <path d="M 52.828125 31.203125 
L 5.5625 31.203125 
L 5.5625 39.40625 
L 52.828125 39.40625 
z
" id="ArialMT-2212"/>
       <path d="M 4.15625 18.75 
L 13.375 19.53125 
Q 14.40625 12.796875 18.140625 9.390625 
Q 21.875 6 27.15625 6 
Q 33.5 6 37.890625 10.78125 
Q 42.28125 15.578125 42.28125 23.484375 
Q 42.28125 31 38.0625 35.34375 
Q 33.84375 39.703125 27 39.703125 
Q 22.75 39.703125 19.328125 37.765625 
Q 15.921875 35.84375 13.96875 32.765625 
L 5.71875 33.84375 
L 12.640625 70.609375 
L 48.25 70.609375 
L 48.25 62.203125 
L 19.671875 62.203125 
L 15.828125 42.96875 
Q 22.265625 47.46875 29.34375 47.46875 
Q 38.71875 47.46875 45.15625 40.96875 
Q 51.609375 34.46875 51.609375 24.265625 
Q 51.609375 14.546875 45.953125 7.46875 
Q 39.0625 -1.21875 27.15625 -1.21875 
Q 17.390625 -1.21875 11.203125 4.25 
Q 5.03125 9.71875 4.15625 18.75 
z
" id="ArialMT-35"/>
      </defs>
      <g style="fill:#262626;" transform="translate(27.023437 108.472272)scale(0.1 -0.1)">
       <use xlink:href="#ArialMT-2212"/>
       <use x="58.398438" xlink:href="#ArialMT-35"/>
      </g>
     </g>
    </g>
    <g id="ytick_2">
     <g id="line2d_8">
      <g>
       <use style="fill:#262626;stroke:#262626;stroke-width:0.8;" x="45.425" xlink:href="#m636a69369e" y="79.81511"/>
      </g>
     </g>
     <g id="text_9">
      <!-- 0 -->
      <g style="fill:#262626;" transform="translate(32.864062 83.394017)scale(0.1 -0.1)">
       <use xlink:href="#ArialMT-30"/>
      </g>
     </g>
    </g>
    <g id="ytick_3">
     <g id="line2d_9">
      <g>
       <use style="fill:#262626;stroke:#262626;stroke-width:0.8;" x="45.425" xlink:href="#m636a69369e" y="54.736855"/>
      </g>
     </g>
     <g id="text_10">
      <!-- 5 -->
      <g style="fill:#262626;" transform="translate(32.864062 58.315761)scale(0.1 -0.1)">
       <use xlink:href="#ArialMT-35"/>
      </g>
     </g>
    </g>
    <g id="ytick_4">
     <g id="line2d_10">
      <g>
       <use style="fill:#262626;stroke:#262626;stroke-width:0.8;" x="45.425" xlink:href="#m636a69369e" y="29.6586"/>
      </g>
     </g>
     <g id="text_11">
      <!-- 10 -->
      <g style="fill:#262626;" transform="translate(27.303125 33.237506)scale(0.1 -0.1)">
       <use xlink:href="#ArialMT-31"/>
       <use x="55.615234" xlink:href="#ArialMT-30"/>
      </g>
     </g>
    </g>
    <g id="text_12">
     <!-- Free Energy($k_BT$) -->
     <defs>
      <path d="M 8.203125 0 
L 8.203125 71.578125 
L 56.5 71.578125 
L 56.5 63.140625 
L 17.671875 63.140625 
L 17.671875 40.96875 
L 51.265625 40.96875 
L 51.265625 32.515625 
L 17.671875 32.515625 
L 17.671875 0 
z
" id="ArialMT-46"/>
      <path d="M 6.5 0 
L 6.5 51.859375 
L 14.40625 51.859375 
L 14.40625 44 
Q 17.4375 49.515625 20 51.265625 
Q 22.5625 53.03125 25.640625 53.03125 
Q 30.078125 53.03125 34.671875 50.203125 
L 31.640625 42.046875 
Q 28.421875 43.953125 25.203125 43.953125 
Q 22.3125 43.953125 20.015625 42.21875 
Q 17.71875 40.484375 16.75 37.40625 
Q 15.28125 32.71875 15.28125 27.15625 
L 15.28125 0 
z
" id="ArialMT-72"/>
      <path d="M 42.09375 16.703125 
L 51.171875 15.578125 
Q 49.03125 7.625 43.21875 3.21875 
Q 37.40625 -1.171875 28.375 -1.171875 
Q 17 -1.171875 10.328125 5.828125 
Q 3.65625 12.84375 3.65625 25.484375 
Q 3.65625 38.578125 10.390625 45.796875 
Q 17.140625 53.03125 27.875 53.03125 
Q 38.28125 53.03125 44.875 45.953125 
Q 51.46875 38.875 51.46875 26.03125 
Q 51.46875 25.25 51.421875 23.6875 
L 12.75 23.6875 
Q 13.234375 15.140625 17.578125 10.59375 
Q 21.921875 6.0625 28.421875 6.0625 
Q 33.25 6.0625 36.671875 8.59375 
Q 40.09375 11.140625 42.09375 16.703125 
z
M 13.234375 30.90625 
L 42.1875 30.90625 
Q 41.609375 37.453125 38.875 40.71875 
Q 34.671875 45.796875 27.984375 45.796875 
Q 21.921875 45.796875 17.796875 41.75 
Q 13.671875 37.703125 13.234375 30.90625 
z
" id="ArialMT-65"/>
      <path id="ArialMT-20"/>
      <path d="M 7.90625 0 
L 7.90625 71.578125 
L 59.671875 71.578125 
L 59.671875 63.140625 
L 17.390625 63.140625 
L 17.390625 41.21875 
L 56.984375 41.21875 
L 56.984375 32.8125 
L 17.390625 32.8125 
L 17.390625 8.453125 
L 61.328125 8.453125 
L 61.328125 0 
z
" id="ArialMT-45"/>
      <path d="M 6.59375 0 
L 6.59375 51.859375 
L 14.5 51.859375 
L 14.5 44.484375 
Q 20.21875 53.03125 31 53.03125 
Q 35.6875 53.03125 39.625 51.34375 
Q 43.5625 49.65625 45.515625 46.921875 
Q 47.46875 44.1875 48.25 40.4375 
Q 48.734375 37.984375 48.734375 31.890625 
L 48.734375 0 
L 39.9375 0 
L 39.9375 31.546875 
Q 39.9375 36.921875 38.90625 39.578125 
Q 37.890625 42.234375 35.28125 43.8125 
Q 32.671875 45.40625 29.15625 45.40625 
Q 23.53125 45.40625 19.453125 41.84375 
Q 15.375 38.28125 15.375 28.328125 
L 15.375 0 
z
" id="ArialMT-6e"/>
      <path d="M 4.984375 -4.296875 
L 13.53125 -5.5625 
Q 14.0625 -9.515625 16.5 -11.328125 
Q 19.78125 -13.765625 25.4375 -13.765625 
Q 31.546875 -13.765625 34.859375 -11.328125 
Q 38.1875 -8.890625 39.359375 -4.5 
Q 40.046875 -1.8125 39.984375 6.78125 
Q 34.234375 0 25.640625 0 
Q 14.9375 0 9.078125 7.71875 
Q 3.21875 15.4375 3.21875 26.21875 
Q 3.21875 33.640625 5.90625 39.90625 
Q 8.59375 46.1875 13.6875 49.609375 
Q 18.796875 53.03125 25.6875 53.03125 
Q 34.859375 53.03125 40.828125 45.609375 
L 40.828125 51.859375 
L 48.921875 51.859375 
L 48.921875 7.03125 
Q 48.921875 -5.078125 46.453125 -10.125 
Q 44 -15.1875 38.640625 -18.109375 
Q 33.296875 -21.046875 25.484375 -21.046875 
Q 16.21875 -21.046875 10.5 -16.875 
Q 4.78125 -12.703125 4.984375 -4.296875 
z
M 12.25 26.859375 
Q 12.25 16.65625 16.296875 11.96875 
Q 20.359375 7.28125 26.46875 7.28125 
Q 32.515625 7.28125 36.609375 11.9375 
Q 40.71875 16.609375 40.71875 26.5625 
Q 40.71875 36.078125 36.5 40.90625 
Q 32.28125 45.75 26.3125 45.75 
Q 20.453125 45.75 16.34375 40.984375 
Q 12.25 36.234375 12.25 26.859375 
z
" id="ArialMT-67"/>
      <path d="M 6.203125 -19.96875 
L 5.21875 -11.71875 
Q 8.109375 -12.5 10.25 -12.5 
Q 13.1875 -12.5 14.9375 -11.515625 
Q 16.703125 -10.546875 17.828125 -8.796875 
Q 18.65625 -7.46875 20.515625 -2.25 
Q 20.75 -1.515625 21.296875 -0.09375 
L 1.609375 51.859375 
L 11.078125 51.859375 
L 21.875 21.828125 
Q 23.96875 16.109375 25.640625 9.8125 
Q 27.15625 15.875 29.25 21.625 
L 40.328125 51.859375 
L 49.125 51.859375 
L 29.390625 -0.875 
Q 26.21875 -9.421875 24.46875 -12.640625 
Q 22.125 -17 19.09375 -19.015625 
Q 16.0625 -21.046875 11.859375 -21.046875 
Q 9.328125 -21.046875 6.203125 -19.96875 
z
" id="ArialMT-79"/>
      <path d="M 23.390625 -21.046875 
Q 16.109375 -11.859375 11.078125 0.4375 
Q 6.0625 12.75 6.0625 25.921875 
Q 6.0625 37.546875 9.8125 48.1875 
Q 14.203125 60.546875 23.390625 72.796875 
L 29.6875 72.796875 
Q 23.78125 62.640625 21.875 58.296875 
Q 18.890625 51.5625 17.1875 44.234375 
Q 15.09375 35.109375 15.09375 25.875 
Q 15.09375 2.390625 29.6875 -21.046875 
z
" id="ArialMT-28"/>
      <path d="M 18.3125 75.984375 
L 27.296875 75.984375 
L 18.703125 31.6875 
L 49.515625 54.6875 
L 61.1875 54.6875 
L 26.8125 28.515625 
L 51.90625 0 
L 41.015625 0 
L 17.671875 26.703125 
L 12.5 0 
L 3.515625 0 
z
" id="DejaVuSans-Oblique-6b"/>
      <path d="M 16.890625 72.90625 
L 42.09375 72.90625 
Q 52.34375 72.90625 57.421875 69.09375 
Q 62.5 65.28125 62.5 57.625 
Q 62.5 50.59375 58.125 45.484375 
Q 53.765625 40.375 46.6875 39.3125 
Q 52.734375 37.9375 55.765625 34.078125 
Q 58.796875 30.21875 58.796875 23.78125 
Q 58.796875 12.796875 50.65625 6.390625 
Q 42.53125 0 28.421875 0 
L 2.6875 0 
z
M 19.28125 34.8125 
L 14.109375 8.109375 
L 29.984375 8.109375 
Q 38.921875 8.109375 43.75 12.203125 
Q 48.578125 16.3125 48.578125 23.78125 
Q 48.578125 29.546875 45.375 32.171875 
Q 42.1875 34.8125 35.109375 34.8125 
z
M 25.09375 64.796875 
L 20.796875 42.828125 
L 35.5 42.828125 
Q 43.359375 42.828125 47.78125 46.234375 
Q 52.203125 49.65625 52.203125 55.71875 
Q 52.203125 60.453125 49.21875 62.625 
Q 46.234375 64.796875 39.703125 64.796875 
z
" id="DejaVuSans-Oblique-42"/>
      <path d="M 5.90625 72.90625 
L 67.578125 72.90625 
L 66.015625 64.59375 
L 39.984375 64.59375 
L 27.484375 0 
L 17.578125 0 
L 30.078125 64.59375 
L 4.296875 64.59375 
z
" id="DejaVuSans-Oblique-54"/>
      <path d="M 12.359375 -21.046875 
L 6.0625 -21.046875 
Q 20.65625 2.390625 20.65625 25.875 
Q 20.65625 35.0625 18.5625 44.09375 
Q 16.890625 51.421875 13.921875 58.15625 
Q 12.015625 62.546875 6.0625 72.796875 
L 12.359375 72.796875 
Q 21.53125 60.546875 25.921875 48.1875 
Q 29.6875 37.546875 29.6875 25.921875 
Q 29.6875 12.75 24.625 0.4375 
Q 19.578125 -11.859375 12.359375 -21.046875 
z
" id="ArialMT-29"/>
     </defs>
     <g style="fill:#262626;" transform="translate(20.823437 112.27)rotate(-90)scale(0.1 -0.1)">
      <use transform="translate(0 0.015625)" xlink:href="#ArialMT-46"/>
      <use transform="translate(61.083984 0.015625)" xlink:href="#ArialMT-72"/>
      <use transform="translate(94.384766 0.015625)" xlink:href="#ArialMT-65"/>
      <use transform="translate(150 0.015625)" xlink:href="#ArialMT-65"/>
      <use transform="translate(205.615234 0.015625)" xlink:href="#ArialMT-20"/>
      <use transform="translate(233.398438 0.015625)" xlink:href="#ArialMT-45"/>
      <use transform="translate(300.097656 0.015625)" xlink:href="#ArialMT-6e"/>
      <use transform="translate(355.712891 0.015625)" xlink:href="#ArialMT-65"/>
      <use transform="translate(411.328125 0.015625)" xlink:href="#ArialMT-72"/>
      <use transform="translate(444.628906 0.015625)" xlink:href="#ArialMT-67"/>
      <use transform="translate(500.244141 0.015625)" xlink:href="#ArialMT-79"/>
      <use transform="translate(550.244141 0.015625)" xlink:href="#ArialMT-28"/>
      <use transform="translate(583.544922 0.015625)" xlink:href="#DejaVuSans-Oblique-6b"/>
      <use transform="translate(641.455078 -16.390625)scale(0.7)" xlink:href="#DejaVuSans-Oblique-42"/>
      <use transform="translate(692.211914 0.015625)" xlink:href="#DejaVuSans-Oblique-54"/>
      <use transform="translate(753.295898 0.015625)" xlink:href="#ArialMT-29"/>
     </g>
    </g>
   </g>
   <g id="PathCollection_1">
    <defs>
     <path d="M 0 0.5 
C 0.132602 0.5 0.25979 0.447317 0.353553 0.353553 
C 0.447317 0.25979 0.5 0.132602 0.5 0 
C 0.5 -0.132602 0.447317 -0.25979 0.353553 -0.353553 
C 0.25979 -0.447317 0.132602 -0.5 0 -0.5 
C -0.132602 -0.5 -0.25979 -0.447317 -0.353553 -0.353553 
C -0.447317 -0.25979 -0.5 -0.132602 -0.5 0 
C -0.5 0.132602 -0.447317 0.25979 -0.353553 0.353553 
C -0.25979 0.447317 -0.132602 0.5 0 0.5 
z
" id="m1a64162158" style="stroke:#92c5de;"/>
    </defs>
    <g clip-path="url(#pb0a4db9040)">
     <use style="fill:#92c5de;stroke:#92c5de;" x="53.548699" xlink:href="#m1a64162158" y="49.25229"/>
     <use style="fill:#92c5de;stroke:#92c5de;" x="55.10547" xlink:href="#m1a64162158" y="48.01972"/>
     <use style="fill:#92c5de;stroke:#92c5de;" x="56.66224" xlink:href="#m1a64162158" y="46.787151"/>
     <use style="fill:#92c5de;stroke:#92c5de;" x="58.219011" xlink:href="#m1a64162158" y="45.554581"/>
     <use style="fill:#92c5de;stroke:#92c5de;" x="59.775781" xlink:href="#m1a64162158" y="44.322858"/>
     <use style="fill:#92c5de;stroke:#92c5de;" x="61.332551" xlink:href="#m1a64162158" y="43.090288"/>
     <use style="fill:#92c5de;stroke:#92c5de;" x="62.889322" xlink:href="#m1a64162158" y="41.857718"/>
     <use style="fill:#92c5de;stroke:#92c5de;" x="64.446092" xlink:href="#m1a64162158" y="40.625148"/>
     <use style="fill:#92c5de;stroke:#92c5de;" x="66.002863" xlink:href="#m1a64162158" y="39.393425"/>
     <use style="fill:#92c5de;stroke:#92c5de;" x="67.559633" xlink:href="#m1a64162158" y="38.160855"/>
     <use style="fill:#92c5de;stroke:#92c5de;" x="69.116404" xlink:href="#m1a64162158" y="36.928285"/>
     <use style="fill:#92c5de;stroke:#92c5de;" x="70.673174" xlink:href="#m1a64162158" y="35.696562"/>
     <use style="fill:#92c5de;stroke:#92c5de;" x="72.229945" xlink:href="#m1a64162158" y="34.463992"/>
     <use style="fill:#92c5de;stroke:#92c5de;" x="73.786715" xlink:href="#m1a64162158" y="33.231423"/>
     <use style="fill:#92c5de;stroke:#92c5de;" x="75.343485" xlink:href="#m1a64162158" y="31.998853"/>
     <use style="fill:#92c5de;stroke:#92c5de;" x="76.900256" xlink:href="#m1a64162158" y="30.766283"/>
    </g>
   </g>
   <g id="PathCollection_2">
    <defs>
     <path d="M 0 0.5 
C 0.132602 0.5 0.25979 0.447317 0.353553 0.353553 
C 0.447317 0.25979 0.5 0.132602 0.5 0 
C 0.5 -0.132602 0.447317 -0.25979 0.353553 -0.353553 
C 0.25979 -0.447317 0.132602 -0.5 0 -0.5 
C -0.132602 -0.5 -0.25979 -0.447317 -0.353553 -0.353553 
C -0.447317 -0.25979 -0.5 -0.132602 -0.5 0 
C -0.5 0.132602 -0.447317 0.25979 -0.353553 0.353553 
C -0.25979 0.447317 -0.132602 0.5 0 0.5 
z
" id="mdb5c3a87f7" style="stroke:#d6604d;"/>
    </defs>
    <g clip-path="url(#pb0a4db9040)">
     <use style="fill:#d6604d;stroke:#d6604d;" x="168.749712" xlink:href="#mdb5c3a87f7" y="35.785449"/>
     <use style="fill:#d6604d;stroke:#d6604d;" x="170.306482" xlink:href="#mdb5c3a87f7" y="38.249742"/>
     <use style="fill:#d6604d;stroke:#d6604d;" x="171.863253" xlink:href="#mdb5c3a87f7" y="40.714882"/>
     <use style="fill:#d6604d;stroke:#d6604d;" x="173.420023" xlink:href="#mdb5c3a87f7" y="43.179175"/>
     <use style="fill:#d6604d;stroke:#d6604d;" x="174.976794" xlink:href="#mdb5c3a87f7" y="45.644315"/>
     <use style="fill:#d6604d;stroke:#d6604d;" x="176.533564" xlink:href="#mdb5c3a87f7" y="48.108608"/>
     <use style="fill:#d6604d;stroke:#d6604d;" x="178.090335" xlink:href="#mdb5c3a87f7" y="50.573747"/>
     <use style="fill:#d6604d;stroke:#d6604d;" x="179.647105" xlink:href="#mdb5c3a87f7" y="53.03804"/>
     <use style="fill:#d6604d;stroke:#d6604d;" x="181.203876" xlink:href="#mdb5c3a87f7" y="55.50318"/>
     <use style="fill:#d6604d;stroke:#d6604d;" x="182.760646" xlink:href="#mdb5c3a87f7" y="57.967473"/>
     <use style="fill:#d6604d;stroke:#d6604d;" x="184.317416" xlink:href="#mdb5c3a87f7" y="60.432612"/>
     <use style="fill:#d6604d;stroke:#d6604d;" x="185.874187" xlink:href="#mdb5c3a87f7" y="62.896905"/>
     <use style="fill:#d6604d;stroke:#d6604d;" x="187.430957" xlink:href="#mdb5c3a87f7" y="65.362045"/>
     <use style="fill:#d6604d;stroke:#d6604d;" x="188.987728" xlink:href="#mdb5c3a87f7" y="67.826338"/>
     <use style="fill:#d6604d;stroke:#d6604d;" x="190.544498" xlink:href="#mdb5c3a87f7" y="70.291477"/>
     <use style="fill:#d6604d;stroke:#d6604d;" x="192.101269" xlink:href="#mdb5c3a87f7" y="72.756617"/>
     <use style="fill:#d6604d;stroke:#d6604d;" x="193.658039" xlink:href="#mdb5c3a87f7" y="75.22091"/>
     <use style="fill:#d6604d;stroke:#d6604d;" x="195.21481" xlink:href="#mdb5c3a87f7" y="77.685203"/>
     <use style="fill:#d6604d;stroke:#d6604d;" x="196.77158" xlink:href="#mdb5c3a87f7" y="80.150342"/>
     <use style="fill:#d6604d;stroke:#d6604d;" x="198.32835" xlink:href="#mdb5c3a87f7" y="82.615482"/>
     <use style="fill:#d6604d;stroke:#d6604d;" x="199.885121" xlink:href="#mdb5c3a87f7" y="85.080621"/>
     <use style="fill:#d6604d;stroke:#d6604d;" x="201.441891" xlink:href="#mdb5c3a87f7" y="87.544068"/>
     <use style="fill:#d6604d;stroke:#d6604d;" x="202.998662" xlink:href="#mdb5c3a87f7" y="90.009207"/>
     <use style="fill:#d6604d;stroke:#d6604d;" x="204.555432" xlink:href="#mdb5c3a87f7" y="92.474347"/>
     <use style="fill:#d6604d;stroke:#d6604d;" x="206.112203" xlink:href="#mdb5c3a87f7" y="94.93864"/>
     <use style="fill:#d6604d;stroke:#d6604d;" x="207.668973" xlink:href="#mdb5c3a87f7" y="97.402933"/>
     <use style="fill:#d6604d;stroke:#d6604d;" x="209.225744" xlink:href="#mdb5c3a87f7" y="99.868072"/>
    </g>
   </g>
   <g id="PathCollection_3">
    <defs>
     <path d="M 0 0.5 
C 0.132602 0.5 0.25979 0.447317 0.353553 0.353553 
C 0.447317 0.25979 0.5 0.132602 0.5 0 
C 0.5 -0.132602 0.447317 -0.25979 0.353553 -0.353553 
C 0.25979 -0.447317 0.132602 -0.5 0 -0.5 
C -0.132602 -0.5 -0.25979 -0.447317 -0.353553 -0.353553 
C -0.447317 -0.25979 -0.5 -0.132602 -0.5 0 
C -0.5 0.132602 -0.447317 0.25979 -0.353553 0.353553 
C -0.25979 0.447317 -0.132602 0.5 0 0.5 
z
" id="mc54e7a26be" style="stroke:#f4a582;"/>
    </defs>
    <g clip-path="url(#pb0a4db9040)">
     <use style="fill:#f4a582;stroke:#f4a582;" x="101.808583" xlink:href="#mc54e7a26be" y="30.286292"/>
     <use style="fill:#f4a582;stroke:#f4a582;" x="103.365353" xlink:href="#mc54e7a26be" y="31.518862"/>
     <use style="fill:#f4a582;stroke:#f4a582;" x="104.922124" xlink:href="#mc54e7a26be" y="32.750585"/>
     <use style="fill:#f4a582;stroke:#f4a582;" x="106.478894" xlink:href="#mc54e7a26be" y="33.984001"/>
     <use style="fill:#f4a582;stroke:#f4a582;" x="108.035665" xlink:href="#mc54e7a26be" y="35.216571"/>
     <use style="fill:#f4a582;stroke:#f4a582;" x="109.592435" xlink:href="#mc54e7a26be" y="36.448294"/>
     <use style="fill:#f4a582;stroke:#f4a582;" x="111.149206" xlink:href="#mc54e7a26be" y="37.680864"/>
     <use style="fill:#f4a582;stroke:#f4a582;" x="112.705976" xlink:href="#mc54e7a26be" y="38.913434"/>
     <use style="fill:#f4a582;stroke:#f4a582;" x="114.262746" xlink:href="#mc54e7a26be" y="40.145157"/>
     <use style="fill:#f4a582;stroke:#f4a582;" x="115.819517" xlink:href="#mc54e7a26be" y="41.377727"/>
     <use style="fill:#f4a582;stroke:#f4a582;" x="117.376287" xlink:href="#mc54e7a26be" y="42.610297"/>
     <use style="fill:#f4a582;stroke:#f4a582;" x="118.933058" xlink:href="#mc54e7a26be" y="43.842866"/>
     <use style="fill:#f4a582;stroke:#f4a582;" x="120.489828" xlink:href="#mc54e7a26be" y="45.075436"/>
     <use style="fill:#f4a582;stroke:#f4a582;" x="122.046599" xlink:href="#mc54e7a26be" y="46.307159"/>
     <use style="fill:#f4a582;stroke:#f4a582;" x="123.603369" xlink:href="#mc54e7a26be" y="47.539729"/>
     <use style="fill:#f4a582;stroke:#f4a582;" x="125.16014" xlink:href="#mc54e7a26be" y="48.772299"/>
     <use style="fill:#f4a582;stroke:#f4a582;" x="126.71691" xlink:href="#mc54e7a26be" y="50.004869"/>
     <use style="fill:#f4a582;stroke:#f4a582;" x="128.27368" xlink:href="#mc54e7a26be" y="51.236592"/>
     <use style="fill:#f4a582;stroke:#f4a582;" x="129.830451" xlink:href="#mc54e7a26be" y="52.469162"/>
     <use style="fill:#f4a582;stroke:#f4a582;" x="131.387221" xlink:href="#mc54e7a26be" y="53.700885"/>
     <use style="fill:#f4a582;stroke:#f4a582;" x="132.943992" xlink:href="#mc54e7a26be" y="54.933455"/>
     <use style="fill:#f4a582;stroke:#f4a582;" x="134.500762" xlink:href="#mc54e7a26be" y="56.166871"/>
     <use style="fill:#f4a582;stroke:#f4a582;" x="136.057533" xlink:href="#mc54e7a26be" y="57.398594"/>
     <use style="fill:#f4a582;stroke:#f4a582;" x="137.614303" xlink:href="#mc54e7a26be" y="58.631164"/>
     <use style="fill:#f4a582;stroke:#f4a582;" x="139.171074" xlink:href="#mc54e7a26be" y="59.863734"/>
     <use style="fill:#f4a582;stroke:#f4a582;" x="140.727844" xlink:href="#mc54e7a26be" y="61.095457"/>
     <use style="fill:#f4a582;stroke:#f4a582;" x="142.284614" xlink:href="#mc54e7a26be" y="62.328873"/>
     <use style="fill:#f4a582;stroke:#f4a582;" x="143.841385" xlink:href="#mc54e7a26be" y="63.560597"/>
     <use style="fill:#f4a582;stroke:#f4a582;" x="145.398155" xlink:href="#mc54e7a26be" y="64.79232"/>
     <use style="fill:#f4a582;stroke:#f4a582;" x="146.954926" xlink:href="#mc54e7a26be" y="66.02489"/>
     <use style="fill:#f4a582;stroke:#f4a582;" x="148.511696" xlink:href="#mc54e7a26be" y="67.257459"/>
     <use style="fill:#f4a582;stroke:#f4a582;" x="150.068467" xlink:href="#mc54e7a26be" y="68.490029"/>
     <use style="fill:#f4a582;stroke:#f4a582;" x="151.625237" xlink:href="#mc54e7a26be" y="69.721752"/>
     <use style="fill:#f4a582;stroke:#f4a582;" x="153.182008" xlink:href="#mc54e7a26be" y="70.955169"/>
     <use style="fill:#f4a582;stroke:#f4a582;" x="154.738778" xlink:href="#mc54e7a26be" y="72.421385"/>
     <use style="fill:#f4a582;stroke:#f4a582;" x="156.295548" xlink:href="#mc54e7a26be" y="73.653108"/>
     <use style="fill:#f4a582;stroke:#f4a582;" x="157.852319" xlink:href="#mc54e7a26be" y="74.885678"/>
     <use style="fill:#f4a582;stroke:#f4a582;" x="159.409089" xlink:href="#mc54e7a26be" y="76.118248"/>
     <use style="fill:#f4a582;stroke:#f4a582;" x="160.96586" xlink:href="#mc54e7a26be" y="77.349971"/>
     <use style="fill:#f4a582;stroke:#f4a582;" x="162.52263" xlink:href="#mc54e7a26be" y="78.582541"/>
     <use style="fill:#f4a582;stroke:#f4a582;" x="164.079401" xlink:href="#mc54e7a26be" y="79.81511"/>
     <use style="fill:#f4a582;stroke:#f4a582;" x="165.636171" xlink:href="#mc54e7a26be" y="81.04768"/>
     <use style="fill:#f4a582;stroke:#f4a582;" x="167.192942" xlink:href="#mc54e7a26be" y="82.279403"/>
     <use style="fill:#f4a582;stroke:#f4a582;" x="168.749712" xlink:href="#mc54e7a26be" y="83.51282"/>
     <use style="fill:#f4a582;stroke:#f4a582;" x="170.306482" xlink:href="#mc54e7a26be" y="84.744543"/>
     <use style="fill:#f4a582;stroke:#f4a582;" x="171.863253" xlink:href="#mc54e7a26be" y="85.977113"/>
     <use style="fill:#f4a582;stroke:#f4a582;" x="173.420023" xlink:href="#mc54e7a26be" y="87.208836"/>
     <use style="fill:#f4a582;stroke:#f4a582;" x="174.976794" xlink:href="#mc54e7a26be" y="88.442252"/>
     <use style="fill:#f4a582;stroke:#f4a582;" x="176.533564" xlink:href="#mc54e7a26be" y="89.673976"/>
     <use style="fill:#f4a582;stroke:#f4a582;" x="178.090335" xlink:href="#mc54e7a26be" y="90.906545"/>
     <use style="fill:#f4a582;stroke:#f4a582;" x="179.647105" xlink:href="#mc54e7a26be" y="92.138269"/>
     <use style="fill:#f4a582;stroke:#f4a582;" x="181.203876" xlink:href="#mc54e7a26be" y="93.370838"/>
     <use style="fill:#f4a582;stroke:#f4a582;" x="182.760646" xlink:href="#mc54e7a26be" y="94.603408"/>
     <use style="fill:#f4a582;stroke:#f4a582;" x="184.317416" xlink:href="#mc54e7a26be" y="95.835978"/>
     <use style="fill:#f4a582;stroke:#f4a582;" x="185.874187" xlink:href="#mc54e7a26be" y="97.067701"/>
     <use style="fill:#f4a582;stroke:#f4a582;" x="187.430957" xlink:href="#mc54e7a26be" y="98.301117"/>
     <use style="fill:#f4a582;stroke:#f4a582;" x="188.987728" xlink:href="#mc54e7a26be" y="99.532841"/>
     <use style="fill:#f4a582;stroke:#f4a582;" x="190.544498" xlink:href="#mc54e7a26be" y="100.76541"/>
     <use style="fill:#f4a582;stroke:#f4a582;" x="192.101269" xlink:href="#mc54e7a26be" y="101.99798"/>
     <use style="fill:#f4a582;stroke:#f4a582;" x="193.658039" xlink:href="#mc54e7a26be" y="103.229703"/>
     <use style="fill:#f4a582;stroke:#f4a582;" x="195.21481" xlink:href="#mc54e7a26be" y="104.462273"/>
     <use style="fill:#f4a582;stroke:#f4a582;" x="196.77158" xlink:href="#mc54e7a26be" y="105.694843"/>
     <use style="fill:#f4a582;stroke:#f4a582;" x="198.32835" xlink:href="#mc54e7a26be" y="106.927413"/>
     <use style="fill:#f4a582;stroke:#f4a582;" x="199.885121" xlink:href="#mc54e7a26be" y="108.159982"/>
     <use style="fill:#f4a582;stroke:#f4a582;" x="201.441891" xlink:href="#mc54e7a26be" y="109.391706"/>
     <use style="fill:#f4a582;stroke:#f4a582;" x="202.998662" xlink:href="#mc54e7a26be" y="110.624275"/>
     <use style="fill:#f4a582;stroke:#f4a582;" x="204.555432" xlink:href="#mc54e7a26be" y="111.856845"/>
     <use style="fill:#f4a582;stroke:#f4a582;" x="206.112203" xlink:href="#mc54e7a26be" y="113.088568"/>
     <use style="fill:#f4a582;stroke:#f4a582;" x="207.668973" xlink:href="#mc54e7a26be" y="114.321138"/>
     <use style="fill:#f4a582;stroke:#f4a582;" x="209.225744" xlink:href="#mc54e7a26be" y="115.553708"/>
    </g>
   </g>
   <g id="PathCollection_4">
    <defs>
     <path d="M 0 0.5 
C 0.132602 0.5 0.25979 0.447317 0.353553 0.353553 
C 0.447317 0.25979 0.5 0.132602 0.5 0 
C 0.5 -0.132602 0.447317 -0.25979 0.353553 -0.353553 
C 0.25979 -0.447317 0.132602 -0.5 0 -0.5 
C -0.132602 -0.5 -0.25979 -0.447317 -0.353553 -0.353553 
C -0.447317 -0.25979 -0.5 -0.132602 -0.5 0 
C -0.5 0.132602 -0.447317 0.25979 -0.353553 0.353553 
C -0.25979 0.447317 -0.132602 0.5 0 0.5 
z
" id="m7660a85473" style="stroke:#333333;"/>
    </defs>
    <g clip-path="url(#pb0a4db9040)">
     <use style="fill:#333333;stroke:#333333;" x="53.548699" xlink:href="#m7660a85473" y="79.81511"/>
     <use style="fill:#333333;stroke:#333333;" x="55.10547" xlink:href="#m7660a85473" y="79.81511"/>
     <use style="fill:#333333;stroke:#333333;" x="56.66224" xlink:href="#m7660a85473" y="79.81511"/>
     <use style="fill:#333333;stroke:#333333;" x="58.219011" xlink:href="#m7660a85473" y="79.81511"/>
     <use style="fill:#333333;stroke:#333333;" x="59.775781" xlink:href="#m7660a85473" y="79.81511"/>
     <use style="fill:#333333;stroke:#333333;" x="61.332551" xlink:href="#m7660a85473" y="79.81511"/>
     <use style="fill:#333333;stroke:#333333;" x="62.889322" xlink:href="#m7660a85473" y="79.81511"/>
     <use style="fill:#333333;stroke:#333333;" x="64.446092" xlink:href="#m7660a85473" y="79.81511"/>
     <use style="fill:#333333;stroke:#333333;" x="66.002863" xlink:href="#m7660a85473" y="79.81511"/>
     <use style="fill:#333333;stroke:#333333;" x="67.559633" xlink:href="#m7660a85473" y="79.81511"/>
     <use style="fill:#333333;stroke:#333333;" x="69.116404" xlink:href="#m7660a85473" y="79.81511"/>
     <use style="fill:#333333;stroke:#333333;" x="70.673174" xlink:href="#m7660a85473" y="79.81511"/>
     <use style="fill:#333333;stroke:#333333;" x="72.229945" xlink:href="#m7660a85473" y="79.81511"/>
     <use style="fill:#333333;stroke:#333333;" x="73.786715" xlink:href="#m7660a85473" y="79.81511"/>
     <use style="fill:#333333;stroke:#333333;" x="75.343485" xlink:href="#m7660a85473" y="79.81511"/>
     <use style="fill:#333333;stroke:#333333;" x="76.900256" xlink:href="#m7660a85473" y="79.81511"/>
     <use style="fill:#333333;stroke:#333333;" x="78.457026" xlink:href="#m7660a85473" y="79.81511"/>
     <use style="fill:#333333;stroke:#333333;" x="80.013797" xlink:href="#m7660a85473" y="79.81511"/>
     <use style="fill:#333333;stroke:#333333;" x="81.570567" xlink:href="#m7660a85473" y="79.81511"/>
     <use style="fill:#333333;stroke:#333333;" x="83.127338" xlink:href="#m7660a85473" y="79.81511"/>
     <use style="fill:#333333;stroke:#333333;" x="84.684108" xlink:href="#m7660a85473" y="79.81511"/>
     <use style="fill:#333333;stroke:#333333;" x="86.240879" xlink:href="#m7660a85473" y="79.81511"/>
     <use style="fill:#333333;stroke:#333333;" x="87.797649" xlink:href="#m7660a85473" y="79.81511"/>
     <use style="fill:#333333;stroke:#333333;" x="89.354419" xlink:href="#m7660a85473" y="79.81511"/>
     <use style="fill:#333333;stroke:#333333;" x="90.91119" xlink:href="#m7660a85473" y="79.81511"/>
     <use style="fill:#333333;stroke:#333333;" x="92.46796" xlink:href="#m7660a85473" y="79.81511"/>
     <use style="fill:#333333;stroke:#333333;" x="94.024731" xlink:href="#m7660a85473" y="79.81511"/>
     <use style="fill:#333333;stroke:#333333;" x="95.581501" xlink:href="#m7660a85473" y="79.81511"/>
     <use style="fill:#333333;stroke:#333333;" x="97.138272" xlink:href="#m7660a85473" y="79.81511"/>
     <use style="fill:#333333;stroke:#333333;" x="98.695042" xlink:href="#m7660a85473" y="79.81511"/>
     <use style="fill:#333333;stroke:#333333;" x="100.251812" xlink:href="#m7660a85473" y="79.81511"/>
     <use style="fill:#333333;stroke:#333333;" x="101.808583" xlink:href="#m7660a85473" y="79.81511"/>
     <use style="fill:#333333;stroke:#333333;" x="103.365353" xlink:href="#m7660a85473" y="79.81511"/>
     <use style="fill:#333333;stroke:#333333;" x="104.922124" xlink:href="#m7660a85473" y="79.81511"/>
     <use style="fill:#333333;stroke:#333333;" x="106.478894" xlink:href="#m7660a85473" y="79.81511"/>
     <use style="fill:#333333;stroke:#333333;" x="108.035665" xlink:href="#m7660a85473" y="79.81511"/>
     <use style="fill:#333333;stroke:#333333;" x="109.592435" xlink:href="#m7660a85473" y="79.81511"/>
     <use style="fill:#333333;stroke:#333333;" x="111.149206" xlink:href="#m7660a85473" y="79.81511"/>
     <use style="fill:#333333;stroke:#333333;" x="112.705976" xlink:href="#m7660a85473" y="79.81511"/>
     <use style="fill:#333333;stroke:#333333;" x="114.262746" xlink:href="#m7660a85473" y="79.81511"/>
     <use style="fill:#333333;stroke:#333333;" x="115.819517" xlink:href="#m7660a85473" y="79.81511"/>
     <use style="fill:#333333;stroke:#333333;" x="117.376287" xlink:href="#m7660a85473" y="79.81511"/>
     <use style="fill:#333333;stroke:#333333;" x="118.933058" xlink:href="#m7660a85473" y="79.81511"/>
     <use style="fill:#333333;stroke:#333333;" x="120.489828" xlink:href="#m7660a85473" y="79.81511"/>
     <use style="fill:#333333;stroke:#333333;" x="122.046599" xlink:href="#m7660a85473" y="79.81511"/>
     <use style="fill:#333333;stroke:#333333;" x="123.603369" xlink:href="#m7660a85473" y="79.81511"/>
     <use style="fill:#333333;stroke:#333333;" x="125.16014" xlink:href="#m7660a85473" y="79.81511"/>
     <use style="fill:#333333;stroke:#333333;" x="126.71691" xlink:href="#m7660a85473" y="79.81511"/>
     <use style="fill:#333333;stroke:#333333;" x="128.27368" xlink:href="#m7660a85473" y="79.81511"/>
     <use style="fill:#333333;stroke:#333333;" x="129.830451" xlink:href="#m7660a85473" y="79.81511"/>
     <use style="fill:#333333;stroke:#333333;" x="131.387221" xlink:href="#m7660a85473" y="79.81511"/>
     <use style="fill:#333333;stroke:#333333;" x="132.943992" xlink:href="#m7660a85473" y="79.81511"/>
     <use style="fill:#333333;stroke:#333333;" x="134.500762" xlink:href="#m7660a85473" y="79.81511"/>
     <use style="fill:#333333;stroke:#333333;" x="136.057533" xlink:href="#m7660a85473" y="79.81511"/>
     <use style="fill:#333333;stroke:#333333;" x="137.614303" xlink:href="#m7660a85473" y="79.81511"/>
     <use style="fill:#333333;stroke:#333333;" x="139.171074" xlink:href="#m7660a85473" y="79.81511"/>
     <use style="fill:#333333;stroke:#333333;" x="140.727844" xlink:href="#m7660a85473" y="79.81511"/>
     <use style="fill:#333333;stroke:#333333;" x="142.284614" xlink:href="#m7660a85473" y="79.81511"/>
     <use style="fill:#333333;stroke:#333333;" x="143.841385" xlink:href="#m7660a85473" y="79.81511"/>
     <use style="fill:#333333;stroke:#333333;" x="145.398155" xlink:href="#m7660a85473" y="79.81511"/>
     <use style="fill:#333333;stroke:#333333;" x="146.954926" xlink:href="#m7660a85473" y="79.81511"/>
     <use style="fill:#333333;stroke:#333333;" x="148.511696" xlink:href="#m7660a85473" y="79.81511"/>
     <use style="fill:#333333;stroke:#333333;" x="150.068467" xlink:href="#m7660a85473" y="79.81511"/>
     <use style="fill:#333333;stroke:#333333;" x="151.625237" xlink:href="#m7660a85473" y="79.81511"/>
     <use style="fill:#333333;stroke:#333333;" x="153.182008" xlink:href="#m7660a85473" y="79.81511"/>
     <use style="fill:#333333;stroke:#333333;" x="154.738778" xlink:href="#m7660a85473" y="79.81511"/>
     <use style="fill:#333333;stroke:#333333;" x="156.295548" xlink:href="#m7660a85473" y="79.81511"/>
     <use style="fill:#333333;stroke:#333333;" x="157.852319" xlink:href="#m7660a85473" y="79.81511"/>
     <use style="fill:#333333;stroke:#333333;" x="159.409089" xlink:href="#m7660a85473" y="79.81511"/>
     <use style="fill:#333333;stroke:#333333;" x="160.96586" xlink:href="#m7660a85473" y="79.81511"/>
     <use style="fill:#333333;stroke:#333333;" x="162.52263" xlink:href="#m7660a85473" y="79.81511"/>
     <use style="fill:#333333;stroke:#333333;" x="164.079401" xlink:href="#m7660a85473" y="79.81511"/>
     <use style="fill:#333333;stroke:#333333;" x="165.636171" xlink:href="#m7660a85473" y="79.81511"/>
     <use style="fill:#333333;stroke:#333333;" x="167.192942" xlink:href="#m7660a85473" y="79.81511"/>
     <use style="fill:#333333;stroke:#333333;" x="168.749712" xlink:href="#m7660a85473" y="79.81511"/>
     <use style="fill:#333333;stroke:#333333;" x="170.306482" xlink:href="#m7660a85473" y="79.81511"/>
     <use style="fill:#333333;stroke:#333333;" x="171.863253" xlink:href="#m7660a85473" y="79.81511"/>
     <use style="fill:#333333;stroke:#333333;" x="173.420023" xlink:href="#m7660a85473" y="79.81511"/>
     <use style="fill:#333333;stroke:#333333;" x="174.976794" xlink:href="#m7660a85473" y="79.81511"/>
     <use style="fill:#333333;stroke:#333333;" x="176.533564" xlink:href="#m7660a85473" y="79.81511"/>
     <use style="fill:#333333;stroke:#333333;" x="178.090335" xlink:href="#m7660a85473" y="79.81511"/>
     <use style="fill:#333333;stroke:#333333;" x="179.647105" xlink:href="#m7660a85473" y="79.81511"/>
     <use style="fill:#333333;stroke:#333333;" x="181.203876" xlink:href="#m7660a85473" y="79.81511"/>
     <use style="fill:#333333;stroke:#333333;" x="182.760646" xlink:href="#m7660a85473" y="79.81511"/>
     <use style="fill:#333333;stroke:#333333;" x="184.317416" xlink:href="#m7660a85473" y="79.81511"/>
     <use style="fill:#333333;stroke:#333333;" x="185.874187" xlink:href="#m7660a85473" y="79.81511"/>
     <use style="fill:#333333;stroke:#333333;" x="187.430957" xlink:href="#m7660a85473" y="79.81511"/>
     <use style="fill:#333333;stroke:#333333;" x="188.987728" xlink:href="#m7660a85473" y="79.81511"/>
     <use style="fill:#333333;stroke:#333333;" x="190.544498" xlink:href="#m7660a85473" y="79.81511"/>
     <use style="fill:#333333;stroke:#333333;" x="192.101269" xlink:href="#m7660a85473" y="79.81511"/>
     <use style="fill:#333333;stroke:#333333;" x="193.658039" xlink:href="#m7660a85473" y="79.81511"/>
     <use style="fill:#333333;stroke:#333333;" x="195.21481" xlink:href="#m7660a85473" y="79.81511"/>
     <use style="fill:#333333;stroke:#333333;" x="196.77158" xlink:href="#m7660a85473" y="79.81511"/>
     <use style="fill:#333333;stroke:#333333;" x="198.32835" xlink:href="#m7660a85473" y="79.81511"/>
     <use style="fill:#333333;stroke:#333333;" x="199.885121" xlink:href="#m7660a85473" y="79.81511"/>
     <use style="fill:#333333;stroke:#333333;" x="201.441891" xlink:href="#m7660a85473" y="79.81511"/>
     <use style="fill:#333333;stroke:#333333;" x="202.998662" xlink:href="#m7660a85473" y="79.81511"/>
     <use style="fill:#333333;stroke:#333333;" x="204.555432" xlink:href="#m7660a85473" y="79.81511"/>
     <use style="fill:#333333;stroke:#333333;" x="206.112203" xlink:href="#m7660a85473" y="79.81511"/>
     <use style="fill:#333333;stroke:#333333;" x="207.668973" xlink:href="#m7660a85473" y="79.81511"/>
     <use style="fill:#333333;stroke:#333333;" x="209.225744" xlink:href="#m7660a85473" y="79.81511"/>
    </g>
   </g>
   <g id="PathCollection_5">
    <g clip-path="url(#pb0a4db9040)">
     <use style="fill:#f4a582;stroke:#f4a582;" x="167.192942" xlink:href="#mc54e7a26be" y="34.824621"/>
     <use style="fill:#f4a582;stroke:#f4a582;" x="168.749712" xlink:href="#mc54e7a26be" y="36.05719"/>
     <use style="fill:#f4a582;stroke:#f4a582;" x="170.306482" xlink:href="#mc54e7a26be" y="37.28976"/>
     <use style="fill:#f4a582;stroke:#f4a582;" x="171.863253" xlink:href="#mc54e7a26be" y="38.52233"/>
     <use style="fill:#f4a582;stroke:#f4a582;" x="173.420023" xlink:href="#mc54e7a26be" y="39.754053"/>
     <use style="fill:#f4a582;stroke:#f4a582;" x="174.976794" xlink:href="#mc54e7a26be" y="40.986623"/>
     <use style="fill:#f4a582;stroke:#f4a582;" x="176.533564" xlink:href="#mc54e7a26be" y="42.218346"/>
     <use style="fill:#f4a582;stroke:#f4a582;" x="178.090335" xlink:href="#mc54e7a26be" y="43.451763"/>
     <use style="fill:#f4a582;stroke:#f4a582;" x="179.647105" xlink:href="#mc54e7a26be" y="44.683486"/>
     <use style="fill:#f4a582;stroke:#f4a582;" x="181.203876" xlink:href="#mc54e7a26be" y="45.916056"/>
     <use style="fill:#f4a582;stroke:#f4a582;" x="182.760646" xlink:href="#mc54e7a26be" y="47.148625"/>
     <use style="fill:#f4a582;stroke:#f4a582;" x="184.317416" xlink:href="#mc54e7a26be" y="48.380349"/>
     <use style="fill:#f4a582;stroke:#f4a582;" x="185.874187" xlink:href="#mc54e7a26be" y="49.612918"/>
     <use style="fill:#f4a582;stroke:#f4a582;" x="187.430957" xlink:href="#mc54e7a26be" y="50.845488"/>
     <use style="fill:#f4a582;stroke:#f4a582;" x="188.987728" xlink:href="#mc54e7a26be" y="52.078058"/>
     <use style="fill:#f4a582;stroke:#f4a582;" x="190.544498" xlink:href="#mc54e7a26be" y="53.310628"/>
     <use style="fill:#f4a582;stroke:#f4a582;" x="192.101269" xlink:href="#mc54e7a26be" y="54.543197"/>
     <use style="fill:#f4a582;stroke:#f4a582;" x="193.658039" xlink:href="#mc54e7a26be" y="55.774921"/>
     <use style="fill:#f4a582;stroke:#f4a582;" x="195.21481" xlink:href="#mc54e7a26be" y="57.00749"/>
     <use style="fill:#f4a582;stroke:#f4a582;" x="196.77158" xlink:href="#mc54e7a26be" y="58.239214"/>
     <use style="fill:#f4a582;stroke:#f4a582;" x="198.32835" xlink:href="#mc54e7a26be" y="59.47263"/>
     <use style="fill:#f4a582;stroke:#f4a582;" x="199.885121" xlink:href="#mc54e7a26be" y="60.7052"/>
     <use style="fill:#f4a582;stroke:#f4a582;" x="201.441891" xlink:href="#mc54e7a26be" y="61.936923"/>
     <use style="fill:#f4a582;stroke:#f4a582;" x="202.998662" xlink:href="#mc54e7a26be" y="63.168646"/>
     <use style="fill:#f4a582;stroke:#f4a582;" x="204.555432" xlink:href="#mc54e7a26be" y="64.402062"/>
     <use style="fill:#f4a582;stroke:#f4a582;" x="206.112203" xlink:href="#mc54e7a26be" y="65.633786"/>
     <use style="fill:#f4a582;stroke:#f4a582;" x="207.668973" xlink:href="#mc54e7a26be" y="66.866355"/>
     <use style="fill:#f4a582;stroke:#f4a582;" x="209.225744" xlink:href="#mc54e7a26be" y="68.098925"/>
    </g>
   </g>
   <g id="line2d_11">
    <path clip-path="url(#pb0a4db9040)" d="M 53.548699 49.25229 
L 55.10547 48.01972 
L 56.66224 46.787151 
L 58.219011 45.554581 
L 59.775781 44.322858 
L 61.332551 43.090288 
L 62.889322 41.857718 
L 64.446092 40.625148 
L 66.002863 39.393425 
L 67.559633 38.160855 
L 69.116404 36.928285 
L 70.673174 35.696562 
L 72.229945 34.463992 
L 73.786715 33.231423 
L 75.343485 31.998853 
L 76.900256 30.766283 
" style="fill:none;stroke:#92c5de;stroke-linecap:round;stroke-width:1.5;"/>
   </g>
   <g id="line2d_12">
    <path clip-path="url(#pb0a4db9040)" d="M 168.749712 35.785449 
L 170.306482 38.249742 
L 171.863253 40.714882 
L 173.420023 43.179175 
L 174.976794 45.644315 
L 176.533564 48.108608 
L 178.090335 50.573747 
L 179.647105 53.03804 
L 181.203876 55.50318 
L 182.760646 57.967473 
L 184.317416 60.432612 
L 185.874187 62.896905 
L 187.430957 65.362045 
L 188.987728 67.826338 
L 190.544498 70.291477 
L 192.101269 72.756617 
L 193.658039 75.22091 
L 195.21481 77.685203 
L 196.77158 80.150342 
L 198.32835 82.615482 
L 199.885121 85.080621 
L 201.441891 87.544068 
L 202.998662 90.009207 
L 204.555432 92.474347 
L 206.112203 94.93864 
L 207.668973 97.402933 
L 209.225744 99.868072 
" style="fill:none;stroke:#d6604d;stroke-linecap:round;stroke-width:1.5;"/>
   </g>
   <g id="line2d_13">
    <path clip-path="url(#pb0a4db9040)" d="M 101.808583 30.286292 
L 103.365353 31.518862 
L 104.922124 32.750585 
L 106.478894 33.984001 
L 108.035665 35.216571 
L 109.592435 36.448294 
L 111.149206 37.680864 
L 112.705976 38.913434 
L 114.262746 40.145157 
L 115.819517 41.377727 
L 117.376287 42.610297 
L 118.933058 43.842866 
L 120.489828 45.075436 
L 122.046599 46.307159 
L 123.603369 47.539729 
L 125.16014 48.772299 
L 126.71691 50.004869 
L 128.27368 51.236592 
L 129.830451 52.469162 
L 131.387221 53.700885 
L 132.943992 54.933455 
L 134.500762 56.166871 
L 136.057533 57.398594 
L 137.614303 58.631164 
L 139.171074 59.863734 
L 140.727844 61.095457 
L 142.284614 62.328873 
L 143.841385 63.560597 
L 145.398155 64.79232 
L 146.954926 66.02489 
L 148.511696 67.257459 
L 150.068467 68.490029 
L 151.625237 69.721752 
L 153.182008 70.955169 
L 154.738778 72.421385 
L 156.295548 73.653108 
L 157.852319 74.885678 
L 159.409089 76.118248 
L 160.96586 77.349971 
L 162.52263 78.582541 
L 164.079401 79.81511 
L 165.636171 81.04768 
L 167.192942 82.279403 
L 168.749712 83.51282 
L 170.306482 84.744543 
L 171.863253 85.977113 
L 173.420023 87.208836 
L 174.976794 88.442252 
L 176.533564 89.673976 
L 178.090335 90.906545 
L 179.647105 92.138269 
L 181.203876 93.370838 
L 182.760646 94.603408 
L 184.317416 95.835978 
L 185.874187 97.067701 
L 187.430957 98.301117 
L 188.987728 99.532841 
L 190.544498 100.76541 
L 192.101269 101.99798 
L 193.658039 103.229703 
L 195.21481 104.462273 
L 196.77158 105.694843 
L 198.32835 106.927413 
L 199.885121 108.159982 
L 201.441891 109.391706 
L 202.998662 110.624275 
L 204.555432 111.856845 
L 206.112203 113.088568 
L 207.668973 114.321138 
L 209.225744 115.553708 
" style="fill:none;stroke:#f4a582;stroke-linecap:round;stroke-width:1.5;"/>
   </g>
   <g id="line2d_14">
    <path clip-path="url(#pb0a4db9040)" d="M 53.548699 79.81511 
L 55.10547 79.81511 
L 56.66224 79.81511 
L 58.219011 79.81511 
L 59.775781 79.81511 
L 61.332551 79.81511 
L 62.889322 79.81511 
L 64.446092 79.81511 
L 66.002863 79.81511 
L 67.559633 79.81511 
L 69.116404 79.81511 
L 70.673174 79.81511 
L 72.229945 79.81511 
L 73.786715 79.81511 
L 75.343485 79.81511 
L 76.900256 79.81511 
L 78.457026 79.81511 
L 80.013797 79.81511 
L 81.570567 79.81511 
L 83.127338 79.81511 
L 84.684108 79.81511 
L 86.240879 79.81511 
L 87.797649 79.81511 
L 89.354419 79.81511 
L 90.91119 79.81511 
L 92.46796 79.81511 
L 94.024731 79.81511 
L 95.581501 79.81511 
L 97.138272 79.81511 
L 98.695042 79.81511 
L 100.251812 79.81511 
L 101.808583 79.81511 
L 103.365353 79.81511 
L 104.922124 79.81511 
L 106.478894 79.81511 
L 108.035665 79.81511 
L 109.592435 79.81511 
L 111.149206 79.81511 
L 112.705976 79.81511 
L 114.262746 79.81511 
L 115.819517 79.81511 
L 117.376287 79.81511 
L 118.933058 79.81511 
L 120.489828 79.81511 
L 122.046599 79.81511 
L 123.603369 79.81511 
L 125.16014 79.81511 
L 126.71691 79.81511 
L 128.27368 79.81511 
L 129.830451 79.81511 
L 131.387221 79.81511 
L 132.943992 79.81511 
L 134.500762 79.81511 
L 136.057533 79.81511 
L 137.614303 79.81511 
L 139.171074 79.81511 
L 140.727844 79.81511 
L 142.284614 79.81511 
L 143.841385 79.81511 
L 145.398155 79.81511 
L 146.954926 79.81511 
L 148.511696 79.81511 
L 150.068467 79.81511 
L 151.625237 79.81511 
L 153.182008 79.81511 
L 154.738778 79.81511 
L 156.295548 79.81511 
L 157.852319 79.81511 
L 159.409089 79.81511 
L 160.96586 79.81511 
L 162.52263 79.81511 
L 164.079401 79.81511 
L 165.636171 79.81511 
L 167.192942 79.81511 
L 168.749712 79.81511 
L 170.306482 79.81511 
L 171.863253 79.81511 
L 173.420023 79.81511 
L 174.976794 79.81511 
L 176.533564 79.81511 
L 178.090335 79.81511 
L 179.647105 79.81511 
L 181.203876 79.81511 
L 182.760646 79.81511 
L 184.317416 79.81511 
L 185.874187 79.81511 
L 187.430957 79.81511 
L 188.987728 79.81511 
L 190.544498 79.81511 
L 192.101269 79.81511 
L 193.658039 79.81511 
L 195.21481 79.81511 
L 196.77158 79.81511 
L 198.32835 79.81511 
L 199.885121 79.81511 
L 201.441891 79.81511 
L 202.998662 79.81511 
L 204.555432 79.81511 
L 206.112203 79.81511 
L 207.668973 79.81511 
L 209.225744 79.81511 
" style="fill:none;stroke:#333333;stroke-linecap:round;stroke-width:1.5;"/>
   </g>
   <g id="line2d_15">
    <path clip-path="url(#pb0a4db9040)" d="M 167.192942 34.824621 
L 168.749712 36.05719 
L 170.306482 37.28976 
L 171.863253 38.52233 
L 173.420023 39.754053 
L 174.976794 40.986623 
L 176.533564 42.218346 
L 178.090335 43.451763 
L 179.647105 44.683486 
L 181.203876 45.916056 
L 182.760646 47.148625 
L 184.317416 48.380349 
L 185.874187 49.612918 
L 187.430957 50.845488 
L 188.987728 52.078058 
L 190.544498 53.310628 
L 192.101269 54.543197 
L 193.658039 55.774921 
L 195.21481 57.00749 
L 196.77158 58.239214 
L 198.32835 59.47263 
L 199.885121 60.7052 
L 201.441891 61.936923 
L 202.998662 63.168646 
L 204.555432 64.402062 
L 206.112203 65.633786 
L 207.668973 66.866355 
L 209.225744 68.098925 
" style="fill:none;stroke:#f4a582;stroke-linecap:round;stroke-width:1.5;"/>
   </g>
   <g id="patch_3">
    <path d="M 45.425 120.04 
L 45.425 25.8 
" style="fill:none;stroke:#262626;stroke-linecap:square;stroke-linejoin:miter;stroke-width:0.8;"/>
   </g>
   <g id="patch_4">
    <path d="M 45.425 120.04 
L 217.35 120.04 
" style="fill:none;stroke:#262626;stroke-linecap:square;stroke-linejoin:miter;stroke-width:0.8;"/>
   </g>
   <g id="text_13">
    <!-- SM01 -->
    <defs>
     <path d="M 4.5 23 
L 13.421875 23.78125 
Q 14.0625 18.40625 16.375 14.96875 
Q 18.703125 11.53125 23.578125 9.40625 
Q 28.46875 7.28125 34.578125 7.28125 
Q 39.984375 7.28125 44.140625 8.890625 
Q 48.296875 10.5 50.3125 13.296875 
Q 52.34375 16.109375 52.34375 19.4375 
Q 52.34375 22.796875 50.390625 25.3125 
Q 48.4375 27.828125 43.953125 29.546875 
Q 41.0625 30.671875 31.203125 33.03125 
Q 21.34375 35.40625 17.390625 37.5 
Q 12.25 40.1875 9.734375 44.15625 
Q 7.234375 48.140625 7.234375 53.078125 
Q 7.234375 58.5 10.296875 63.203125 
Q 13.375 67.921875 19.28125 70.359375 
Q 25.203125 72.796875 32.421875 72.796875 
Q 40.375 72.796875 46.453125 70.234375 
Q 52.546875 67.671875 55.8125 62.6875 
Q 59.078125 57.71875 59.328125 51.421875 
L 50.25 50.734375 
Q 49.515625 57.515625 45.28125 60.984375 
Q 41.0625 64.453125 32.8125 64.453125 
Q 24.21875 64.453125 20.28125 61.296875 
Q 16.359375 58.15625 16.359375 53.71875 
Q 16.359375 49.859375 19.140625 47.359375 
Q 21.875 44.875 33.421875 42.265625 
Q 44.96875 39.65625 49.265625 37.703125 
Q 55.515625 34.8125 58.484375 30.390625 
Q 61.46875 25.984375 61.46875 20.21875 
Q 61.46875 14.5 58.203125 9.4375 
Q 54.9375 4.390625 48.796875 1.578125 
Q 42.671875 -1.21875 35.015625 -1.21875 
Q 25.296875 -1.21875 18.71875 1.609375 
Q 12.15625 4.4375 8.421875 10.125 
Q 4.6875 15.828125 4.5 23 
z
" id="ArialMT-53"/>
     <path d="M 7.421875 0 
L 7.421875 71.578125 
L 21.6875 71.578125 
L 38.625 20.90625 
Q 40.96875 13.8125 42.046875 10.296875 
Q 43.265625 14.203125 45.84375 21.78125 
L 62.984375 71.578125 
L 75.734375 71.578125 
L 75.734375 0 
L 66.609375 0 
L 66.609375 59.90625 
L 45.796875 0 
L 37.25 0 
L 16.546875 60.9375 
L 16.546875 0 
z
" id="ArialMT-4d"/>
    </defs>
    <g style="fill:#262626;" transform="translate(115.714375 19.8)scale(0.12 -0.12)">
     <use xlink:href="#ArialMT-53"/>
     <use x="66.699219" xlink:href="#ArialMT-4d"/>
     <use x="150" xlink:href="#ArialMT-30"/>
     <use x="205.615234" xlink:href="#ArialMT-31"/>
    </g>
   </g>
  </g>
 </g>
 <defs>
  <clipPath id="pb0a4db9040">
   <rect height="94.24" width="171.925" x="45.425" y="25.8"/>
  </clipPath>
 </defs>
</svg>
