<?xml version="1.0" encoding="utf-8" standalone="no"?>
<!DOCTYPE svg PUBLIC "-//W3C//DTD SVG 1.1//EN"
  "http://www.w3.org/Graphics/SVG/1.1/DTD/svg11.dtd">
<!-- Created with matplotlib (http://matplotlib.org/) -->
<svg height="159.84pt" version="1.1" viewBox="0 0 230.4 159.84" width="230.4pt" xmlns="http://www.w3.org/2000/svg" xmlns:xlink="http://www.w3.org/1999/xlink">
 <defs>
  <style type="text/css">
*{stroke-linecap:butt;stroke-linejoin:round;}
  </style>
 </defs>
 <g id="figure_1">
  <g id="patch_1">
   <path d="M 0 159.84 
L 230.4 159.84 
L 230.4 0 
L 0 0 
z
" style="fill:#ffffff;"/>
  </g>
  <g id="axes_1">
   <g id="patch_2">
    <path d="M 51.05 120.04 
L 217.35 120.04 
L 217.35 25.8 
L 51.05 25.8 
z
" style="fill:#ffffff;"/>
   </g>
   <g id="matplotlib.axis_1">
    <g id="xtick_1">
     <g id="line2d_1">
      <defs>
       <path d="M 0 0 
L 0 3.5 
" id="m8a853eb0a8" style="stroke:#262626;stroke-width:0.8;"/>
      </defs>
      <g>
       <use style="fill:#262626;stroke:#262626;stroke-width:0.8;" x="58.908307" xlink:href="#m8a853eb0a8" y="120.04"/>
      </g>
     </g>
     <g id="text_1">
      <!-- 2 -->
      <defs>
       <path d="M 50.34375 8.453125 
L 50.34375 0 
L 3.03125 0 
Q 2.9375 3.171875 4.046875 6.109375 
Q 5.859375 10.9375 9.828125 15.625 
Q 13.8125 20.3125 21.34375 26.46875 
Q 33.015625 36.03125 37.109375 41.625 
Q 41.21875 47.21875 41.21875 52.203125 
Q 41.21875 57.421875 37.46875 61 
Q 33.734375 64.59375 27.734375 64.59375 
Q 21.390625 64.59375 17.578125 60.78125 
Q 13.765625 56.984375 13.71875 50.25 
L 4.6875 51.171875 
Q 5.609375 61.28125 11.65625 66.578125 
Q 17.71875 71.875 27.9375 71.875 
Q 38.234375 71.875 44.234375 66.15625 
Q 50.25 60.453125 50.25 52 
Q 50.25 47.703125 48.484375 43.546875 
Q 46.734375 39.40625 42.65625 34.8125 
Q 38.578125 30.21875 29.109375 22.21875 
Q 21.1875 15.578125 18.9375 13.203125 
Q 16.703125 10.84375 15.234375 8.453125 
z
" id="ArialMT-32"/>
      </defs>
      <g style="fill:#262626;" transform="translate(56.127838 134.197812)scale(0.1 -0.1)">
       <use xlink:href="#ArialMT-32"/>
      </g>
     </g>
    </g>
    <g id="xtick_2">
     <g id="line2d_2">
      <g>
       <use style="fill:#262626;stroke:#262626;stroke-width:0.8;" x="89.025013" xlink:href="#m8a853eb0a8" y="120.04"/>
      </g>
     </g>
     <g id="text_2">
      <!-- 4 -->
      <defs>
       <path d="M 32.328125 0 
L 32.328125 17.140625 
L 1.265625 17.140625 
L 1.265625 25.203125 
L 33.9375 71.578125 
L 41.109375 71.578125 
L 41.109375 25.203125 
L 50.78125 25.203125 
L 50.78125 17.140625 
L 41.109375 17.140625 
L 41.109375 0 
z
M 32.328125 25.203125 
L 32.328125 57.46875 
L 9.90625 25.203125 
z
" id="ArialMT-34"/>
      </defs>
      <g style="fill:#262626;" transform="translate(86.244544 134.197812)scale(0.1 -0.1)">
       <use xlink:href="#ArialMT-34"/>
      </g>
     </g>
    </g>
    <g id="xtick_3">
     <g id="line2d_3">
      <g>
       <use style="fill:#262626;stroke:#262626;stroke-width:0.8;" x="119.141719" xlink:href="#m8a853eb0a8" y="120.04"/>
      </g>
     </g>
     <g id="text_3">
      <!-- 6 -->
      <defs>
       <path d="M 49.75 54.046875 
L 41.015625 53.375 
Q 39.84375 58.546875 37.703125 60.890625 
Q 34.125 64.65625 28.90625 64.65625 
Q 24.703125 64.65625 21.53125 62.3125 
Q 17.390625 59.28125 14.984375 53.46875 
Q 12.59375 47.65625 12.5 36.921875 
Q 15.671875 41.75 20.265625 44.09375 
Q 24.859375 46.4375 29.890625 46.4375 
Q 38.671875 46.4375 44.84375 39.96875 
Q 51.03125 33.5 51.03125 23.25 
Q 51.03125 16.5 48.125 10.71875 
Q 45.21875 4.9375 40.140625 1.859375 
Q 35.0625 -1.21875 28.609375 -1.21875 
Q 17.625 -1.21875 10.6875 6.859375 
Q 3.765625 14.9375 3.765625 33.5 
Q 3.765625 54.25 11.421875 63.671875 
Q 18.109375 71.875 29.4375 71.875 
Q 37.890625 71.875 43.28125 67.140625 
Q 48.6875 62.40625 49.75 54.046875 
z
M 13.875 23.1875 
Q 13.875 18.65625 15.796875 14.5 
Q 17.71875 10.359375 21.1875 8.171875 
Q 24.65625 6 28.46875 6 
Q 34.03125 6 38.03125 10.484375 
Q 42.046875 14.984375 42.046875 22.703125 
Q 42.046875 30.125 38.078125 34.390625 
Q 34.125 38.671875 28.125 38.671875 
Q 22.171875 38.671875 18.015625 34.390625 
Q 13.875 30.125 13.875 23.1875 
z
" id="ArialMT-36"/>
      </defs>
      <g style="fill:#262626;" transform="translate(116.36125 134.197812)scale(0.1 -0.1)">
       <use xlink:href="#ArialMT-36"/>
      </g>
     </g>
    </g>
    <g id="xtick_4">
     <g id="line2d_4">
      <g>
       <use style="fill:#262626;stroke:#262626;stroke-width:0.8;" x="149.258425" xlink:href="#m8a853eb0a8" y="120.04"/>
      </g>
     </g>
     <g id="text_4">
      <!-- 8 -->
      <defs>
       <path d="M 17.671875 38.8125 
Q 12.203125 40.828125 9.5625 44.53125 
Q 6.9375 48.25 6.9375 53.421875 
Q 6.9375 61.234375 12.546875 66.546875 
Q 18.171875 71.875 27.484375 71.875 
Q 36.859375 71.875 42.578125 66.421875 
Q 48.296875 60.984375 48.296875 53.171875 
Q 48.296875 48.1875 45.671875 44.5 
Q 43.0625 40.828125 37.75 38.8125 
Q 44.34375 36.671875 47.78125 31.875 
Q 51.21875 27.09375 51.21875 20.453125 
Q 51.21875 11.28125 44.71875 5.03125 
Q 38.234375 -1.21875 27.640625 -1.21875 
Q 17.046875 -1.21875 10.546875 5.046875 
Q 4.046875 11.328125 4.046875 20.703125 
Q 4.046875 27.6875 7.59375 32.390625 
Q 11.140625 37.109375 17.671875 38.8125 
z
M 15.921875 53.71875 
Q 15.921875 48.640625 19.1875 45.40625 
Q 22.46875 42.1875 27.6875 42.1875 
Q 32.765625 42.1875 36.015625 45.375 
Q 39.265625 48.578125 39.265625 53.21875 
Q 39.265625 58.0625 35.90625 61.359375 
Q 32.5625 64.65625 27.59375 64.65625 
Q 22.5625 64.65625 19.234375 61.421875 
Q 15.921875 58.203125 15.921875 53.71875 
z
M 13.09375 20.65625 
Q 13.09375 16.890625 14.875 13.375 
Q 16.65625 9.859375 20.171875 7.921875 
Q 23.6875 6 27.734375 6 
Q 34.03125 6 38.125 10.046875 
Q 42.234375 14.109375 42.234375 20.359375 
Q 42.234375 26.703125 38.015625 30.859375 
Q 33.796875 35.015625 27.4375 35.015625 
Q 21.234375 35.015625 17.15625 30.90625 
Q 13.09375 26.8125 13.09375 20.65625 
z
" id="ArialMT-38"/>
      </defs>
      <g style="fill:#262626;" transform="translate(146.477956 134.197812)scale(0.1 -0.1)">
       <use xlink:href="#ArialMT-38"/>
      </g>
     </g>
    </g>
    <g id="xtick_5">
     <g id="line2d_5">
      <g>
       <use style="fill:#262626;stroke:#262626;stroke-width:0.8;" x="179.375131" xlink:href="#m8a853eb0a8" y="120.04"/>
      </g>
     </g>
     <g id="text_5">
      <!-- 10 -->
      <defs>
       <path d="M 37.25 0 
L 28.46875 0 
L 28.46875 56 
Q 25.296875 52.984375 20.140625 49.953125 
Q 14.984375 46.921875 10.890625 45.40625 
L 10.890625 53.90625 
Q 18.265625 57.375 23.78125 62.296875 
Q 29.296875 67.234375 31.59375 71.875 
L 37.25 71.875 
z
" id="ArialMT-31"/>
       <path d="M 4.15625 35.296875 
Q 4.15625 48 6.765625 55.734375 
Q 9.375 63.484375 14.515625 67.671875 
Q 19.671875 71.875 27.484375 71.875 
Q 33.25 71.875 37.59375 69.546875 
Q 41.9375 67.234375 44.765625 62.859375 
Q 47.609375 58.5 49.21875 52.21875 
Q 50.828125 45.953125 50.828125 35.296875 
Q 50.828125 22.703125 48.234375 14.96875 
Q 45.65625 7.234375 40.5 3 
Q 35.359375 -1.21875 27.484375 -1.21875 
Q 17.140625 -1.21875 11.234375 6.203125 
Q 4.15625 15.140625 4.15625 35.296875 
z
M 13.1875 35.296875 
Q 13.1875 17.671875 17.3125 11.828125 
Q 21.4375 6 27.484375 6 
Q 33.546875 6 37.671875 11.859375 
Q 41.796875 17.71875 41.796875 35.296875 
Q 41.796875 52.984375 37.671875 58.78125 
Q 33.546875 64.59375 27.390625 64.59375 
Q 21.34375 64.59375 17.71875 59.46875 
Q 13.1875 52.9375 13.1875 35.296875 
z
" id="ArialMT-30"/>
      </defs>
      <g style="fill:#262626;" transform="translate(173.814193 134.197812)scale(0.1 -0.1)">
       <use xlink:href="#ArialMT-31"/>
       <use x="55.615234" xlink:href="#ArialMT-30"/>
      </g>
     </g>
    </g>
    <g id="xtick_6">
     <g id="line2d_6">
      <g>
       <use style="fill:#262626;stroke:#262626;stroke-width:0.8;" x="209.491837" xlink:href="#m8a853eb0a8" y="120.04"/>
      </g>
     </g>
     <g id="text_6">
      <!-- 12 -->
      <g style="fill:#262626;" transform="translate(203.930899 134.197812)scale(0.1 -0.1)">
       <use xlink:href="#ArialMT-31"/>
       <use x="55.615234" xlink:href="#ArialMT-32"/>
      </g>
     </g>
    </g>
    <g id="text_7">
     <!-- pH -->
     <defs>
      <path d="M 6.59375 -19.875 
L 6.59375 51.859375 
L 14.59375 51.859375 
L 14.59375 45.125 
Q 17.4375 49.078125 21 51.046875 
Q 24.5625 53.03125 29.640625 53.03125 
Q 36.28125 53.03125 41.359375 49.609375 
Q 46.4375 46.1875 49.015625 39.953125 
Q 51.609375 33.734375 51.609375 26.3125 
Q 51.609375 18.359375 48.75 11.984375 
Q 45.90625 5.609375 40.453125 2.21875 
Q 35.015625 -1.171875 29 -1.171875 
Q 24.609375 -1.171875 21.109375 0.6875 
Q 17.625 2.546875 15.375 5.375 
L 15.375 -19.875 
z
M 14.546875 25.640625 
Q 14.546875 15.625 18.59375 10.84375 
Q 22.65625 6.0625 28.421875 6.0625 
Q 34.28125 6.0625 38.453125 11.015625 
Q 42.625 15.96875 42.625 26.375 
Q 42.625 36.28125 38.546875 41.203125 
Q 34.46875 46.140625 28.8125 46.140625 
Q 23.1875 46.140625 18.859375 40.890625 
Q 14.546875 35.640625 14.546875 25.640625 
z
" id="ArialMT-70"/>
      <path d="M 8.015625 0 
L 8.015625 71.578125 
L 17.484375 71.578125 
L 17.484375 42.1875 
L 54.6875 42.1875 
L 54.6875 71.578125 
L 64.15625 71.578125 
L 64.15625 0 
L 54.6875 0 
L 54.6875 33.734375 
L 17.484375 33.734375 
L 17.484375 0 
z
" id="ArialMT-48"/>
     </defs>
     <g style="fill:#262626;" transform="translate(127.808594 147.343125)scale(0.1 -0.1)">
      <use xlink:href="#ArialMT-70"/>
      <use x="55.615234" xlink:href="#ArialMT-48"/>
     </g>
    </g>
   </g>
   <g id="matplotlib.axis_2">
    <g id="ytick_1">
     <g id="line2d_7">
      <defs>
       <path d="M 0 0 
L -3.5 0 
" id="mb05af59e03" style="stroke:#262626;stroke-width:0.8;"/>
      </defs>
      <g>
       <use style="fill:#262626;stroke:#262626;stroke-width:0.8;" x="51.05" xlink:href="#mb05af59e03" y="119.193888"/>
      </g>
     </g>
     <g id="text_8">
      <!-- −10 -->
      <defs>
       <path d="M 52.828125 31.203125 
L 5.5625 31.203125 
L 5.5625 39.40625 
L 52.828125 39.40625 
z
" id="ArialMT-2212"/>
      </defs>
      <g style="fill:#262626;" transform="translate(27.0875 122.772794)scale(0.1 -0.1)">
       <use xlink:href="#ArialMT-2212"/>
       <use x="58.398438" xlink:href="#ArialMT-31"/>
       <use x="114.013672" xlink:href="#ArialMT-30"/>
      </g>
     </g>
    </g>
    <g id="ytick_2">
     <g id="line2d_8">
      <g>
       <use style="fill:#262626;stroke:#262626;stroke-width:0.8;" x="51.05" xlink:href="#mb05af59e03" y="74.741325"/>
      </g>
     </g>
     <g id="text_9">
      <!-- 0 -->
      <g style="fill:#262626;" transform="translate(38.489062 78.320232)scale(0.1 -0.1)">
       <use xlink:href="#ArialMT-30"/>
      </g>
     </g>
    </g>
    <g id="ytick_3">
     <g id="line2d_9">
      <g>
       <use style="fill:#262626;stroke:#262626;stroke-width:0.8;" x="51.05" xlink:href="#mb05af59e03" y="30.288763"/>
      </g>
     </g>
     <g id="text_10">
      <!-- 10 -->
      <g style="fill:#262626;" transform="translate(32.928125 33.867669)scale(0.1 -0.1)">
       <use xlink:href="#ArialMT-31"/>
       <use x="55.615234" xlink:href="#ArialMT-30"/>
      </g>
     </g>
    </g>
    <g id="text_11">
     <!-- Free Energy($k_BT$) -->
     <defs>
      <path d="M 8.203125 0 
L 8.203125 71.578125 
L 56.5 71.578125 
L 56.5 63.140625 
L 17.671875 63.140625 
L 17.671875 40.96875 
L 51.265625 40.96875 
L 51.265625 32.515625 
L 17.671875 32.515625 
L 17.671875 0 
z
" id="ArialMT-46"/>
      <path d="M 6.5 0 
L 6.5 51.859375 
L 14.40625 51.859375 
L 14.40625 44 
Q 17.4375 49.515625 20 51.265625 
Q 22.5625 53.03125 25.640625 53.03125 
Q 30.078125 53.03125 34.671875 50.203125 
L 31.640625 42.046875 
Q 28.421875 43.953125 25.203125 43.953125 
Q 22.3125 43.953125 20.015625 42.21875 
Q 17.71875 40.484375 16.75 37.40625 
Q 15.28125 32.71875 15.28125 27.15625 
L 15.28125 0 
z
" id="ArialMT-72"/>
      <path d="M 42.09375 16.703125 
L 51.171875 15.578125 
Q 49.03125 7.625 43.21875 3.21875 
Q 37.40625 -1.171875 28.375 -1.171875 
Q 17 -1.171875 10.328125 5.828125 
Q 3.65625 12.84375 3.65625 25.484375 
Q 3.65625 38.578125 10.390625 45.796875 
Q 17.140625 53.03125 27.875 53.03125 
Q 38.28125 53.03125 44.875 45.953125 
Q 51.46875 38.875 51.46875 26.03125 
Q 51.46875 25.25 51.421875 23.6875 
L 12.75 23.6875 
Q 13.234375 15.140625 17.578125 10.59375 
Q 21.921875 6.0625 28.421875 6.0625 
Q 33.25 6.0625 36.671875 8.59375 
Q 40.09375 11.140625 42.09375 16.703125 
z
M 13.234375 30.90625 
L 42.1875 30.90625 
Q 41.609375 37.453125 38.875 40.71875 
Q 34.671875 45.796875 27.984375 45.796875 
Q 21.921875 45.796875 17.796875 41.75 
Q 13.671875 37.703125 13.234375 30.90625 
z
" id="ArialMT-65"/>
      <path id="ArialMT-20"/>
      <path d="M 7.90625 0 
L 7.90625 71.578125 
L 59.671875 71.578125 
L 59.671875 63.140625 
L 17.390625 63.140625 
L 17.390625 41.21875 
L 56.984375 41.21875 
L 56.984375 32.8125 
L 17.390625 32.8125 
L 17.390625 8.453125 
L 61.328125 8.453125 
L 61.328125 0 
z
" id="ArialMT-45"/>
      <path d="M 6.59375 0 
L 6.59375 51.859375 
L 14.5 51.859375 
L 14.5 44.484375 
Q 20.21875 53.03125 31 53.03125 
Q 35.6875 53.03125 39.625 51.34375 
Q 43.5625 49.65625 45.515625 46.921875 
Q 47.46875 44.1875 48.25 40.4375 
Q 48.734375 37.984375 48.734375 31.890625 
L 48.734375 0 
L 39.9375 0 
L 39.9375 31.546875 
Q 39.9375 36.921875 38.90625 39.578125 
Q 37.890625 42.234375 35.28125 43.8125 
Q 32.671875 45.40625 29.15625 45.40625 
Q 23.53125 45.40625 19.453125 41.84375 
Q 15.375 38.28125 15.375 28.328125 
L 15.375 0 
z
" id="ArialMT-6e"/>
      <path d="M 4.984375 -4.296875 
L 13.53125 -5.5625 
Q 14.0625 -9.515625 16.5 -11.328125 
Q 19.78125 -13.765625 25.4375 -13.765625 
Q 31.546875 -13.765625 34.859375 -11.328125 
Q 38.1875 -8.890625 39.359375 -4.5 
Q 40.046875 -1.8125 39.984375 6.78125 
Q 34.234375 0 25.640625 0 
Q 14.9375 0 9.078125 7.71875 
Q 3.21875 15.4375 3.21875 26.21875 
Q 3.21875 33.640625 5.90625 39.90625 
Q 8.59375 46.1875 13.6875 49.609375 
Q 18.796875 53.03125 25.6875 53.03125 
Q 34.859375 53.03125 40.828125 45.609375 
L 40.828125 51.859375 
L 48.921875 51.859375 
L 48.921875 7.03125 
Q 48.921875 -5.078125 46.453125 -10.125 
Q 44 -15.1875 38.640625 -18.109375 
Q 33.296875 -21.046875 25.484375 -21.046875 
Q 16.21875 -21.046875 10.5 -16.875 
Q 4.78125 -12.703125 4.984375 -4.296875 
z
M 12.25 26.859375 
Q 12.25 16.65625 16.296875 11.96875 
Q 20.359375 7.28125 26.46875 7.28125 
Q 32.515625 7.28125 36.609375 11.9375 
Q 40.71875 16.609375 40.71875 26.5625 
Q 40.71875 36.078125 36.5 40.90625 
Q 32.28125 45.75 26.3125 45.75 
Q 20.453125 45.75 16.34375 40.984375 
Q 12.25 36.234375 12.25 26.859375 
z
" id="ArialMT-67"/>
      <path d="M 6.203125 -19.96875 
L 5.21875 -11.71875 
Q 8.109375 -12.5 10.25 -12.5 
Q 13.1875 -12.5 14.9375 -11.515625 
Q 16.703125 -10.546875 17.828125 -8.796875 
Q 18.65625 -7.46875 20.515625 -2.25 
Q 20.75 -1.515625 21.296875 -0.09375 
L 1.609375 51.859375 
L 11.078125 51.859375 
L 21.875 21.828125 
Q 23.96875 16.109375 25.640625 9.8125 
Q 27.15625 15.875 29.25 21.625 
L 40.328125 51.859375 
L 49.125 51.859375 
L 29.390625 -0.875 
Q 26.21875 -9.421875 24.46875 -12.640625 
Q 22.125 -17 19.09375 -19.015625 
Q 16.0625 -21.046875 11.859375 -21.046875 
Q 9.328125 -21.046875 6.203125 -19.96875 
z
" id="ArialMT-79"/>
      <path d="M 23.390625 -21.046875 
Q 16.109375 -11.859375 11.078125 0.4375 
Q 6.0625 12.75 6.0625 25.921875 
Q 6.0625 37.546875 9.8125 48.1875 
Q 14.203125 60.546875 23.390625 72.796875 
L 29.6875 72.796875 
Q 23.78125 62.640625 21.875 58.296875 
Q 18.890625 51.5625 17.1875 44.234375 
Q 15.09375 35.109375 15.09375 25.875 
Q 15.09375 2.390625 29.6875 -21.046875 
z
" id="ArialMT-28"/>
      <path d="M 18.3125 75.984375 
L 27.296875 75.984375 
L 18.703125 31.6875 
L 49.515625 54.6875 
L 61.1875 54.6875 
L 26.8125 28.515625 
L 51.90625 0 
L 41.015625 0 
L 17.671875 26.703125 
L 12.5 0 
L 3.515625 0 
z
" id="DejaVuSans-Oblique-6b"/>
      <path d="M 16.890625 72.90625 
L 42.09375 72.90625 
Q 52.34375 72.90625 57.421875 69.09375 
Q 62.5 65.28125 62.5 57.625 
Q 62.5 50.59375 58.125 45.484375 
Q 53.765625 40.375 46.6875 39.3125 
Q 52.734375 37.9375 55.765625 34.078125 
Q 58.796875 30.21875 58.796875 23.78125 
Q 58.796875 12.796875 50.65625 6.390625 
Q 42.53125 0 28.421875 0 
L 2.6875 0 
z
M 19.28125 34.8125 
L 14.109375 8.109375 
L 29.984375 8.109375 
Q 38.921875 8.109375 43.75 12.203125 
Q 48.578125 16.3125 48.578125 23.78125 
Q 48.578125 29.546875 45.375 32.171875 
Q 42.1875 34.8125 35.109375 34.8125 
z
M 25.09375 64.796875 
L 20.796875 42.828125 
L 35.5 42.828125 
Q 43.359375 42.828125 47.78125 46.234375 
Q 52.203125 49.65625 52.203125 55.71875 
Q 52.203125 60.453125 49.21875 62.625 
Q 46.234375 64.796875 39.703125 64.796875 
z
" id="DejaVuSans-Oblique-42"/>
      <path d="M 5.90625 72.90625 
L 67.578125 72.90625 
L 66.015625 64.59375 
L 39.984375 64.59375 
L 27.484375 0 
L 17.578125 0 
L 30.078125 64.59375 
L 4.296875 64.59375 
z
" id="DejaVuSans-Oblique-54"/>
      <path d="M 12.359375 -21.046875 
L 6.0625 -21.046875 
Q 20.65625 2.390625 20.65625 25.875 
Q 20.65625 35.0625 18.5625 44.09375 
Q 16.890625 51.421875 13.921875 58.15625 
Q 12.015625 62.546875 6.0625 72.796875 
L 12.359375 72.796875 
Q 21.53125 60.546875 25.921875 48.1875 
Q 29.6875 37.546875 29.6875 25.921875 
Q 29.6875 12.75 24.625 0.4375 
Q 19.578125 -11.859375 12.359375 -21.046875 
z
" id="ArialMT-29"/>
     </defs>
     <g style="fill:#262626;" transform="translate(20.8875 112.27)rotate(-90)scale(0.1 -0.1)">
      <use transform="translate(0 0.015625)" xlink:href="#ArialMT-46"/>
      <use transform="translate(61.083984 0.015625)" xlink:href="#ArialMT-72"/>
      <use transform="translate(94.384766 0.015625)" xlink:href="#ArialMT-65"/>
      <use transform="translate(150 0.015625)" xlink:href="#ArialMT-65"/>
      <use transform="translate(205.615234 0.015625)" xlink:href="#ArialMT-20"/>
      <use transform="translate(233.398438 0.015625)" xlink:href="#ArialMT-45"/>
      <use transform="translate(300.097656 0.015625)" xlink:href="#ArialMT-6e"/>
      <use transform="translate(355.712891 0.015625)" xlink:href="#ArialMT-65"/>
      <use transform="translate(411.328125 0.015625)" xlink:href="#ArialMT-72"/>
      <use transform="translate(444.628906 0.015625)" xlink:href="#ArialMT-67"/>
      <use transform="translate(500.244141 0.015625)" xlink:href="#ArialMT-79"/>
      <use transform="translate(550.244141 0.015625)" xlink:href="#ArialMT-28"/>
      <use transform="translate(583.544922 0.015625)" xlink:href="#DejaVuSans-Oblique-6b"/>
      <use transform="translate(641.455078 -16.390625)scale(0.7)" xlink:href="#DejaVuSans-Oblique-42"/>
      <use transform="translate(692.211914 0.015625)" xlink:href="#DejaVuSans-Oblique-54"/>
      <use transform="translate(753.295898 0.015625)" xlink:href="#ArialMT-29"/>
     </g>
    </g>
   </g>
   <g id="PathCollection_1">
    <defs>
     <path d="M 0 0.5 
C 0.132602 0.5 0.25979 0.447317 0.353553 0.353553 
C 0.447317 0.25979 0.5 0.132602 0.5 0 
C 0.5 -0.132602 0.447317 -0.25979 0.353553 -0.353553 
C 0.25979 -0.447317 0.132602 -0.5 0 -0.5 
C -0.132602 -0.5 -0.25979 -0.447317 -0.353553 -0.353553 
C -0.447317 -0.25979 -0.5 -0.132602 -0.5 0 
C -0.5 0.132602 -0.447317 0.25979 -0.353553 0.353553 
C -0.25979 0.447317 -0.132602 0.5 0 0.5 
z
" id="m88a0ec0afc" style="stroke:#92c5de;"/>
    </defs>
    <g clip-path="url(#p5332b31052)">
     <use style="fill:#92c5de;stroke:#92c5de;" x="58.908307" xlink:href="#m88a0ec0afc" y="115.744524"/>
     <use style="fill:#92c5de;stroke:#92c5de;" x="60.414142" xlink:href="#m88a0ec0afc" y="114.652876"/>
     <use style="fill:#92c5de;stroke:#92c5de;" x="61.919977" xlink:href="#m88a0ec0afc" y="113.560477"/>
     <use style="fill:#92c5de;stroke:#92c5de;" x="63.425812" xlink:href="#m88a0ec0afc" y="112.468079"/>
     <use style="fill:#92c5de;stroke:#92c5de;" x="64.931648" xlink:href="#m88a0ec0afc" y="111.375681"/>
     <use style="fill:#92c5de;stroke:#92c5de;" x="66.437483" xlink:href="#m88a0ec0afc" y="110.284033"/>
     <use style="fill:#92c5de;stroke:#92c5de;" x="67.943318" xlink:href="#m88a0ec0afc" y="109.191635"/>
     <use style="fill:#92c5de;stroke:#92c5de;" x="69.449154" xlink:href="#m88a0ec0afc" y="108.099237"/>
     <use style="fill:#92c5de;stroke:#92c5de;" x="70.954989" xlink:href="#m88a0ec0afc" y="107.007589"/>
     <use style="fill:#92c5de;stroke:#92c5de;" x="72.460824" xlink:href="#m88a0ec0afc" y="105.91444"/>
     <use style="fill:#92c5de;stroke:#92c5de;" x="73.96666" xlink:href="#m88a0ec0afc" y="104.822792"/>
     <use style="fill:#92c5de;stroke:#92c5de;" x="75.472495" xlink:href="#m88a0ec0afc" y="103.730394"/>
     <use style="fill:#92c5de;stroke:#92c5de;" x="76.97833" xlink:href="#m88a0ec0afc" y="102.638746"/>
     <use style="fill:#92c5de;stroke:#92c5de;" x="78.484165" xlink:href="#m88a0ec0afc" y="101.546348"/>
     <use style="fill:#92c5de;stroke:#92c5de;" x="79.990001" xlink:href="#m88a0ec0afc" y="100.453949"/>
     <use style="fill:#92c5de;stroke:#92c5de;" x="81.495836" xlink:href="#m88a0ec0afc" y="99.361551"/>
     <use style="fill:#92c5de;stroke:#92c5de;" x="83.001671" xlink:href="#m88a0ec0afc" y="98.269153"/>
     <use style="fill:#92c5de;stroke:#92c5de;" x="84.507507" xlink:href="#m88a0ec0afc" y="97.176755"/>
     <use style="fill:#92c5de;stroke:#92c5de;" x="86.013342" xlink:href="#m88a0ec0afc" y="96.084356"/>
     <use style="fill:#92c5de;stroke:#92c5de;" x="87.519177" xlink:href="#m88a0ec0afc" y="94.992708"/>
     <use style="fill:#92c5de;stroke:#92c5de;" x="89.025013" xlink:href="#m88a0ec0afc" y="93.90031"/>
     <use style="fill:#92c5de;stroke:#92c5de;" x="90.530848" xlink:href="#m88a0ec0afc" y="92.807912"/>
     <use style="fill:#92c5de;stroke:#92c5de;" x="92.036683" xlink:href="#m88a0ec0afc" y="91.716264"/>
     <use style="fill:#92c5de;stroke:#92c5de;" x="93.542518" xlink:href="#m88a0ec0afc" y="90.623866"/>
     <use style="fill:#92c5de;stroke:#92c5de;" x="95.048354" xlink:href="#m88a0ec0afc" y="89.531467"/>
     <use style="fill:#92c5de;stroke:#92c5de;" x="96.554189" xlink:href="#m88a0ec0afc" y="88.439819"/>
     <use style="fill:#92c5de;stroke:#92c5de;" x="98.060024" xlink:href="#m88a0ec0afc" y="87.346671"/>
     <use style="fill:#92c5de;stroke:#92c5de;" x="99.56586" xlink:href="#m88a0ec0afc" y="86.255023"/>
     <use style="fill:#92c5de;stroke:#92c5de;" x="101.071695" xlink:href="#m88a0ec0afc" y="85.162625"/>
     <use style="fill:#92c5de;stroke:#92c5de;" x="102.57753" xlink:href="#m88a0ec0afc" y="84.070226"/>
     <use style="fill:#92c5de;stroke:#92c5de;" x="104.083366" xlink:href="#m88a0ec0afc" y="82.977828"/>
     <use style="fill:#92c5de;stroke:#92c5de;" x="105.589201" xlink:href="#m88a0ec0afc" y="81.88618"/>
     <use style="fill:#92c5de;stroke:#92c5de;" x="107.095036" xlink:href="#m88a0ec0afc" y="80.793782"/>
     <use style="fill:#92c5de;stroke:#92c5de;" x="108.600871" xlink:href="#m88a0ec0afc" y="79.701384"/>
     <use style="fill:#92c5de;stroke:#92c5de;" x="110.106707" xlink:href="#m88a0ec0afc" y="78.609736"/>
     <use style="fill:#92c5de;stroke:#92c5de;" x="111.612542" xlink:href="#m88a0ec0afc" y="77.517337"/>
     <use style="fill:#92c5de;stroke:#92c5de;" x="113.118377" xlink:href="#m88a0ec0afc" y="76.424939"/>
     <use style="fill:#92c5de;stroke:#92c5de;" x="114.624213" xlink:href="#m88a0ec0afc" y="75.333291"/>
     <use style="fill:#92c5de;stroke:#92c5de;" x="116.130048" xlink:href="#m88a0ec0afc" y="74.240143"/>
     <use style="fill:#92c5de;stroke:#92c5de;" x="117.635883" xlink:href="#m88a0ec0afc" y="73.147744"/>
     <use style="fill:#92c5de;stroke:#92c5de;" x="119.141719" xlink:href="#m88a0ec0afc" y="72.056096"/>
     <use style="fill:#92c5de;stroke:#92c5de;" x="120.647554" xlink:href="#m88a0ec0afc" y="70.963698"/>
     <use style="fill:#92c5de;stroke:#92c5de;" x="122.153389" xlink:href="#m88a0ec0afc" y="69.8713"/>
     <use style="fill:#92c5de;stroke:#92c5de;" x="123.659225" xlink:href="#m88a0ec0afc" y="68.779652"/>
     <use style="fill:#92c5de;stroke:#92c5de;" x="125.16506" xlink:href="#m88a0ec0afc" y="67.687254"/>
     <use style="fill:#92c5de;stroke:#92c5de;" x="126.670895" xlink:href="#m88a0ec0afc" y="66.594855"/>
     <use style="fill:#92c5de;stroke:#92c5de;" x="128.17673" xlink:href="#m88a0ec0afc" y="65.502457"/>
     <use style="fill:#92c5de;stroke:#92c5de;" x="129.682566" xlink:href="#m88a0ec0afc" y="64.410809"/>
     <use style="fill:#92c5de;stroke:#92c5de;" x="131.188401" xlink:href="#m88a0ec0afc" y="63.318411"/>
     <use style="fill:#92c5de;stroke:#92c5de;" x="132.694236" xlink:href="#m88a0ec0afc" y="62.226013"/>
     <use style="fill:#92c5de;stroke:#92c5de;" x="134.200072" xlink:href="#m88a0ec0afc" y="61.133615"/>
     <use style="fill:#92c5de;stroke:#92c5de;" x="135.705907" xlink:href="#m88a0ec0afc" y="60.041967"/>
     <use style="fill:#92c5de;stroke:#92c5de;" x="137.211742" xlink:href="#m88a0ec0afc" y="58.948818"/>
     <use style="fill:#92c5de;stroke:#92c5de;" x="138.717578" xlink:href="#m88a0ec0afc" y="57.85717"/>
     <use style="fill:#92c5de;stroke:#92c5de;" x="140.223413" xlink:href="#m88a0ec0afc" y="56.764772"/>
     <use style="fill:#92c5de;stroke:#92c5de;" x="141.729248" xlink:href="#m88a0ec0afc" y="55.672374"/>
     <use style="fill:#92c5de;stroke:#92c5de;" x="143.235083" xlink:href="#m88a0ec0afc" y="54.580726"/>
     <use style="fill:#92c5de;stroke:#92c5de;" x="144.740919" xlink:href="#m88a0ec0afc" y="53.488327"/>
     <use style="fill:#92c5de;stroke:#92c5de;" x="146.246754" xlink:href="#m88a0ec0afc" y="52.395929"/>
     <use style="fill:#92c5de;stroke:#92c5de;" x="147.752589" xlink:href="#m88a0ec0afc" y="51.304281"/>
     <use style="fill:#92c5de;stroke:#92c5de;" x="149.258425" xlink:href="#m88a0ec0afc" y="50.211883"/>
     <use style="fill:#92c5de;stroke:#92c5de;" x="150.76426" xlink:href="#m88a0ec0afc" y="49.119485"/>
     <use style="fill:#92c5de;stroke:#92c5de;" x="152.270095" xlink:href="#m88a0ec0afc" y="48.027086"/>
     <use style="fill:#92c5de;stroke:#92c5de;" x="153.775931" xlink:href="#m88a0ec0afc" y="45.236069"/>
     <use style="fill:#92c5de;stroke:#92c5de;" x="155.281766" xlink:href="#m88a0ec0afc" y="44.143671"/>
     <use style="fill:#92c5de;stroke:#92c5de;" x="156.787601" xlink:href="#m88a0ec0afc" y="43.051272"/>
     <use style="fill:#92c5de;stroke:#92c5de;" x="158.293436" xlink:href="#m88a0ec0afc" y="41.959624"/>
     <use style="fill:#92c5de;stroke:#92c5de;" x="159.799272" xlink:href="#m88a0ec0afc" y="40.867226"/>
     <use style="fill:#92c5de;stroke:#92c5de;" x="161.305107" xlink:href="#m88a0ec0afc" y="39.774828"/>
     <use style="fill:#92c5de;stroke:#92c5de;" x="162.810942" xlink:href="#m88a0ec0afc" y="38.68243"/>
     <use style="fill:#92c5de;stroke:#92c5de;" x="164.316778" xlink:href="#m88a0ec0afc" y="37.590031"/>
     <use style="fill:#92c5de;stroke:#92c5de;" x="165.822613" xlink:href="#m88a0ec0afc" y="36.497633"/>
     <use style="fill:#92c5de;stroke:#92c5de;" x="167.328448" xlink:href="#m88a0ec0afc" y="35.405985"/>
     <use style="fill:#92c5de;stroke:#92c5de;" x="168.834284" xlink:href="#m88a0ec0afc" y="34.313587"/>
     <use style="fill:#92c5de;stroke:#92c5de;" x="170.340119" xlink:href="#m88a0ec0afc" y="33.221939"/>
     <use style="fill:#92c5de;stroke:#92c5de;" x="171.845954" xlink:href="#m88a0ec0afc" y="32.129541"/>
     <use style="fill:#92c5de;stroke:#92c5de;" x="173.351789" xlink:href="#m88a0ec0afc" y="31.037142"/>
    </g>
   </g>
   <g id="PathCollection_2">
    <defs>
     <path d="M 0 0.5 
C 0.132602 0.5 0.25979 0.447317 0.353553 0.353553 
C 0.447317 0.25979 0.5 0.132602 0.5 0 
C 0.5 -0.132602 0.447317 -0.25979 0.353553 -0.353553 
C 0.25979 -0.447317 0.132602 -0.5 0 -0.5 
C -0.132602 -0.5 -0.25979 -0.447317 -0.353553 -0.353553 
C -0.447317 -0.25979 -0.5 -0.132602 -0.5 0 
C -0.5 0.132602 -0.447317 0.25979 -0.353553 0.353553 
C -0.25979 0.447317 -0.132602 0.5 0 0.5 
z
" id="mb38dcd0b1a" style="stroke:#333333;"/>
    </defs>
    <g clip-path="url(#p5332b31052)">
     <use style="fill:#333333;stroke:#333333;" x="58.908307" xlink:href="#mb38dcd0b1a" y="74.741325"/>
     <use style="fill:#333333;stroke:#333333;" x="60.414142" xlink:href="#mb38dcd0b1a" y="74.741325"/>
     <use style="fill:#333333;stroke:#333333;" x="61.919977" xlink:href="#mb38dcd0b1a" y="74.741325"/>
     <use style="fill:#333333;stroke:#333333;" x="63.425812" xlink:href="#mb38dcd0b1a" y="74.741325"/>
     <use style="fill:#333333;stroke:#333333;" x="64.931648" xlink:href="#mb38dcd0b1a" y="74.741325"/>
     <use style="fill:#333333;stroke:#333333;" x="66.437483" xlink:href="#mb38dcd0b1a" y="74.741325"/>
     <use style="fill:#333333;stroke:#333333;" x="67.943318" xlink:href="#mb38dcd0b1a" y="74.741325"/>
     <use style="fill:#333333;stroke:#333333;" x="69.449154" xlink:href="#mb38dcd0b1a" y="74.741325"/>
     <use style="fill:#333333;stroke:#333333;" x="70.954989" xlink:href="#mb38dcd0b1a" y="74.741325"/>
     <use style="fill:#333333;stroke:#333333;" x="72.460824" xlink:href="#mb38dcd0b1a" y="74.741325"/>
     <use style="fill:#333333;stroke:#333333;" x="73.96666" xlink:href="#mb38dcd0b1a" y="74.741325"/>
     <use style="fill:#333333;stroke:#333333;" x="75.472495" xlink:href="#mb38dcd0b1a" y="74.741325"/>
     <use style="fill:#333333;stroke:#333333;" x="76.97833" xlink:href="#mb38dcd0b1a" y="74.741325"/>
     <use style="fill:#333333;stroke:#333333;" x="78.484165" xlink:href="#mb38dcd0b1a" y="74.741325"/>
     <use style="fill:#333333;stroke:#333333;" x="79.990001" xlink:href="#mb38dcd0b1a" y="74.741325"/>
     <use style="fill:#333333;stroke:#333333;" x="81.495836" xlink:href="#mb38dcd0b1a" y="74.741325"/>
     <use style="fill:#333333;stroke:#333333;" x="83.001671" xlink:href="#mb38dcd0b1a" y="74.741325"/>
     <use style="fill:#333333;stroke:#333333;" x="84.507507" xlink:href="#mb38dcd0b1a" y="74.741325"/>
     <use style="fill:#333333;stroke:#333333;" x="86.013342" xlink:href="#mb38dcd0b1a" y="74.741325"/>
     <use style="fill:#333333;stroke:#333333;" x="87.519177" xlink:href="#mb38dcd0b1a" y="74.741325"/>
     <use style="fill:#333333;stroke:#333333;" x="89.025013" xlink:href="#mb38dcd0b1a" y="74.741325"/>
     <use style="fill:#333333;stroke:#333333;" x="90.530848" xlink:href="#mb38dcd0b1a" y="74.741325"/>
     <use style="fill:#333333;stroke:#333333;" x="92.036683" xlink:href="#mb38dcd0b1a" y="74.741325"/>
     <use style="fill:#333333;stroke:#333333;" x="93.542518" xlink:href="#mb38dcd0b1a" y="74.741325"/>
     <use style="fill:#333333;stroke:#333333;" x="95.048354" xlink:href="#mb38dcd0b1a" y="74.741325"/>
     <use style="fill:#333333;stroke:#333333;" x="96.554189" xlink:href="#mb38dcd0b1a" y="74.741325"/>
     <use style="fill:#333333;stroke:#333333;" x="98.060024" xlink:href="#mb38dcd0b1a" y="74.741325"/>
     <use style="fill:#333333;stroke:#333333;" x="99.56586" xlink:href="#mb38dcd0b1a" y="74.741325"/>
     <use style="fill:#333333;stroke:#333333;" x="101.071695" xlink:href="#mb38dcd0b1a" y="74.741325"/>
     <use style="fill:#333333;stroke:#333333;" x="102.57753" xlink:href="#mb38dcd0b1a" y="74.741325"/>
     <use style="fill:#333333;stroke:#333333;" x="104.083366" xlink:href="#mb38dcd0b1a" y="74.741325"/>
     <use style="fill:#333333;stroke:#333333;" x="105.589201" xlink:href="#mb38dcd0b1a" y="74.741325"/>
     <use style="fill:#333333;stroke:#333333;" x="107.095036" xlink:href="#mb38dcd0b1a" y="74.741325"/>
     <use style="fill:#333333;stroke:#333333;" x="108.600871" xlink:href="#mb38dcd0b1a" y="74.741325"/>
     <use style="fill:#333333;stroke:#333333;" x="110.106707" xlink:href="#mb38dcd0b1a" y="74.741325"/>
     <use style="fill:#333333;stroke:#333333;" x="111.612542" xlink:href="#mb38dcd0b1a" y="74.741325"/>
     <use style="fill:#333333;stroke:#333333;" x="113.118377" xlink:href="#mb38dcd0b1a" y="74.741325"/>
     <use style="fill:#333333;stroke:#333333;" x="114.624213" xlink:href="#mb38dcd0b1a" y="74.741325"/>
     <use style="fill:#333333;stroke:#333333;" x="116.130048" xlink:href="#mb38dcd0b1a" y="74.741325"/>
     <use style="fill:#333333;stroke:#333333;" x="117.635883" xlink:href="#mb38dcd0b1a" y="74.741325"/>
     <use style="fill:#333333;stroke:#333333;" x="119.141719" xlink:href="#mb38dcd0b1a" y="74.741325"/>
     <use style="fill:#333333;stroke:#333333;" x="120.647554" xlink:href="#mb38dcd0b1a" y="74.741325"/>
     <use style="fill:#333333;stroke:#333333;" x="122.153389" xlink:href="#mb38dcd0b1a" y="74.741325"/>
     <use style="fill:#333333;stroke:#333333;" x="123.659225" xlink:href="#mb38dcd0b1a" y="74.741325"/>
     <use style="fill:#333333;stroke:#333333;" x="125.16506" xlink:href="#mb38dcd0b1a" y="74.741325"/>
     <use style="fill:#333333;stroke:#333333;" x="126.670895" xlink:href="#mb38dcd0b1a" y="74.741325"/>
     <use style="fill:#333333;stroke:#333333;" x="128.17673" xlink:href="#mb38dcd0b1a" y="74.741325"/>
     <use style="fill:#333333;stroke:#333333;" x="129.682566" xlink:href="#mb38dcd0b1a" y="74.741325"/>
     <use style="fill:#333333;stroke:#333333;" x="131.188401" xlink:href="#mb38dcd0b1a" y="74.741325"/>
     <use style="fill:#333333;stroke:#333333;" x="132.694236" xlink:href="#mb38dcd0b1a" y="74.741325"/>
     <use style="fill:#333333;stroke:#333333;" x="134.200072" xlink:href="#mb38dcd0b1a" y="74.741325"/>
     <use style="fill:#333333;stroke:#333333;" x="135.705907" xlink:href="#mb38dcd0b1a" y="74.741325"/>
     <use style="fill:#333333;stroke:#333333;" x="137.211742" xlink:href="#mb38dcd0b1a" y="74.741325"/>
     <use style="fill:#333333;stroke:#333333;" x="138.717578" xlink:href="#mb38dcd0b1a" y="74.741325"/>
     <use style="fill:#333333;stroke:#333333;" x="140.223413" xlink:href="#mb38dcd0b1a" y="74.741325"/>
     <use style="fill:#333333;stroke:#333333;" x="141.729248" xlink:href="#mb38dcd0b1a" y="74.741325"/>
     <use style="fill:#333333;stroke:#333333;" x="143.235083" xlink:href="#mb38dcd0b1a" y="74.741325"/>
     <use style="fill:#333333;stroke:#333333;" x="144.740919" xlink:href="#mb38dcd0b1a" y="74.741325"/>
     <use style="fill:#333333;stroke:#333333;" x="146.246754" xlink:href="#mb38dcd0b1a" y="74.741325"/>
     <use style="fill:#333333;stroke:#333333;" x="147.752589" xlink:href="#mb38dcd0b1a" y="74.741325"/>
     <use style="fill:#333333;stroke:#333333;" x="149.258425" xlink:href="#mb38dcd0b1a" y="74.741325"/>
     <use style="fill:#333333;stroke:#333333;" x="150.76426" xlink:href="#mb38dcd0b1a" y="74.741325"/>
     <use style="fill:#333333;stroke:#333333;" x="152.270095" xlink:href="#mb38dcd0b1a" y="74.741325"/>
     <use style="fill:#333333;stroke:#333333;" x="153.775931" xlink:href="#mb38dcd0b1a" y="74.741325"/>
     <use style="fill:#333333;stroke:#333333;" x="155.281766" xlink:href="#mb38dcd0b1a" y="74.741325"/>
     <use style="fill:#333333;stroke:#333333;" x="156.787601" xlink:href="#mb38dcd0b1a" y="74.741325"/>
     <use style="fill:#333333;stroke:#333333;" x="158.293436" xlink:href="#mb38dcd0b1a" y="74.741325"/>
     <use style="fill:#333333;stroke:#333333;" x="159.799272" xlink:href="#mb38dcd0b1a" y="74.741325"/>
     <use style="fill:#333333;stroke:#333333;" x="161.305107" xlink:href="#mb38dcd0b1a" y="74.741325"/>
     <use style="fill:#333333;stroke:#333333;" x="162.810942" xlink:href="#mb38dcd0b1a" y="74.741325"/>
     <use style="fill:#333333;stroke:#333333;" x="164.316778" xlink:href="#mb38dcd0b1a" y="74.741325"/>
     <use style="fill:#333333;stroke:#333333;" x="165.822613" xlink:href="#mb38dcd0b1a" y="74.741325"/>
     <use style="fill:#333333;stroke:#333333;" x="167.328448" xlink:href="#mb38dcd0b1a" y="74.741325"/>
     <use style="fill:#333333;stroke:#333333;" x="168.834284" xlink:href="#mb38dcd0b1a" y="74.741325"/>
     <use style="fill:#333333;stroke:#333333;" x="170.340119" xlink:href="#mb38dcd0b1a" y="74.741325"/>
     <use style="fill:#333333;stroke:#333333;" x="171.845954" xlink:href="#mb38dcd0b1a" y="74.741325"/>
     <use style="fill:#333333;stroke:#333333;" x="173.351789" xlink:href="#mb38dcd0b1a" y="74.741325"/>
     <use style="fill:#333333;stroke:#333333;" x="174.857625" xlink:href="#mb38dcd0b1a" y="74.741325"/>
     <use style="fill:#333333;stroke:#333333;" x="176.36346" xlink:href="#mb38dcd0b1a" y="74.741325"/>
     <use style="fill:#333333;stroke:#333333;" x="177.869295" xlink:href="#mb38dcd0b1a" y="74.741325"/>
     <use style="fill:#333333;stroke:#333333;" x="179.375131" xlink:href="#mb38dcd0b1a" y="74.741325"/>
     <use style="fill:#333333;stroke:#333333;" x="180.880966" xlink:href="#mb38dcd0b1a" y="74.741325"/>
     <use style="fill:#333333;stroke:#333333;" x="182.386801" xlink:href="#mb38dcd0b1a" y="74.741325"/>
     <use style="fill:#333333;stroke:#333333;" x="183.892637" xlink:href="#mb38dcd0b1a" y="74.741325"/>
     <use style="fill:#333333;stroke:#333333;" x="185.398472" xlink:href="#mb38dcd0b1a" y="74.741325"/>
     <use style="fill:#333333;stroke:#333333;" x="186.904307" xlink:href="#mb38dcd0b1a" y="74.741325"/>
     <use style="fill:#333333;stroke:#333333;" x="188.410143" xlink:href="#mb38dcd0b1a" y="74.741325"/>
     <use style="fill:#333333;stroke:#333333;" x="189.915978" xlink:href="#mb38dcd0b1a" y="74.741325"/>
     <use style="fill:#333333;stroke:#333333;" x="191.421813" xlink:href="#mb38dcd0b1a" y="74.741325"/>
     <use style="fill:#333333;stroke:#333333;" x="192.927648" xlink:href="#mb38dcd0b1a" y="74.741325"/>
     <use style="fill:#333333;stroke:#333333;" x="194.433484" xlink:href="#mb38dcd0b1a" y="74.741325"/>
     <use style="fill:#333333;stroke:#333333;" x="195.939319" xlink:href="#mb38dcd0b1a" y="74.741325"/>
     <use style="fill:#333333;stroke:#333333;" x="197.445154" xlink:href="#mb38dcd0b1a" y="74.741325"/>
     <use style="fill:#333333;stroke:#333333;" x="198.95099" xlink:href="#mb38dcd0b1a" y="74.741325"/>
     <use style="fill:#333333;stroke:#333333;" x="200.456825" xlink:href="#mb38dcd0b1a" y="74.741325"/>
     <use style="fill:#333333;stroke:#333333;" x="201.96266" xlink:href="#mb38dcd0b1a" y="74.741325"/>
     <use style="fill:#333333;stroke:#333333;" x="203.468496" xlink:href="#mb38dcd0b1a" y="74.741325"/>
     <use style="fill:#333333;stroke:#333333;" x="204.974331" xlink:href="#mb38dcd0b1a" y="74.741325"/>
     <use style="fill:#333333;stroke:#333333;" x="206.480166" xlink:href="#mb38dcd0b1a" y="74.741325"/>
     <use style="fill:#333333;stroke:#333333;" x="207.986001" xlink:href="#mb38dcd0b1a" y="74.741325"/>
     <use style="fill:#333333;stroke:#333333;" x="209.491837" xlink:href="#mb38dcd0b1a" y="74.741325"/>
    </g>
   </g>
   <g id="PathCollection_3">
    <defs>
     <path d="M 0 0.5 
C 0.132602 0.5 0.25979 0.447317 0.353553 0.353553 
C 0.447317 0.25979 0.5 0.132602 0.5 0 
C 0.5 -0.132602 0.447317 -0.25979 0.353553 -0.353553 
C 0.25979 -0.447317 0.132602 -0.5 0 -0.5 
C -0.132602 -0.5 -0.25979 -0.447317 -0.353553 -0.353553 
C -0.447317 -0.25979 -0.5 -0.132602 -0.5 0 
C -0.5 0.132602 -0.447317 0.25979 -0.353553 0.353553 
C -0.25979 0.447317 -0.132602 0.5 0 0.5 
z
" id="m4c5afe5492" style="stroke:#f4a582;"/>
    </defs>
    <g clip-path="url(#p5332b31052)">
     <use style="fill:#f4a582;stroke:#f4a582;" x="174.857625" xlink:href="#m4c5afe5492" y="30.331885"/>
     <use style="fill:#f4a582;stroke:#f4a582;" x="176.36346" xlink:href="#m4c5afe5492" y="31.424284"/>
     <use style="fill:#f4a582;stroke:#f4a582;" x="177.869295" xlink:href="#m4c5afe5492" y="32.516682"/>
     <use style="fill:#f4a582;stroke:#f4a582;" x="179.375131" xlink:href="#m4c5afe5492" y="33.60833"/>
     <use style="fill:#f4a582;stroke:#f4a582;" x="180.880966" xlink:href="#m4c5afe5492" y="34.700728"/>
     <use style="fill:#f4a582;stroke:#f4a582;" x="182.386801" xlink:href="#m4c5afe5492" y="35.793126"/>
     <use style="fill:#f4a582;stroke:#f4a582;" x="183.892637" xlink:href="#m4c5afe5492" y="36.884774"/>
     <use style="fill:#f4a582;stroke:#f4a582;" x="185.398472" xlink:href="#m4c5afe5492" y="37.977172"/>
     <use style="fill:#f4a582;stroke:#f4a582;" x="186.904307" xlink:href="#m4c5afe5492" y="39.069571"/>
     <use style="fill:#f4a582;stroke:#f4a582;" x="188.410143" xlink:href="#m4c5afe5492" y="40.161219"/>
     <use style="fill:#f4a582;stroke:#f4a582;" x="189.915978" xlink:href="#m4c5afe5492" y="41.253617"/>
     <use style="fill:#f4a582;stroke:#f4a582;" x="191.421813" xlink:href="#m4c5afe5492" y="42.346015"/>
     <use style="fill:#f4a582;stroke:#f4a582;" x="192.927648" xlink:href="#m4c5afe5492" y="43.438413"/>
     <use style="fill:#f4a582;stroke:#f4a582;" x="194.433484" xlink:href="#m4c5afe5492" y="44.530812"/>
     <use style="fill:#f4a582;stroke:#f4a582;" x="195.939319" xlink:href="#m4c5afe5492" y="45.62246"/>
     <use style="fill:#f4a582;stroke:#f4a582;" x="197.445154" xlink:href="#m4c5afe5492" y="46.714858"/>
     <use style="fill:#f4a582;stroke:#f4a582;" x="198.95099" xlink:href="#m4c5afe5492" y="47.807256"/>
     <use style="fill:#f4a582;stroke:#f4a582;" x="200.456825" xlink:href="#m4c5afe5492" y="48.899654"/>
     <use style="fill:#f4a582;stroke:#f4a582;" x="201.96266" xlink:href="#m4c5afe5492" y="49.992053"/>
     <use style="fill:#f4a582;stroke:#f4a582;" x="203.468496" xlink:href="#m4c5afe5492" y="51.083701"/>
     <use style="fill:#f4a582;stroke:#f4a582;" x="204.974331" xlink:href="#m4c5afe5492" y="52.176099"/>
     <use style="fill:#f4a582;stroke:#f4a582;" x="206.480166" xlink:href="#m4c5afe5492" y="53.268497"/>
     <use style="fill:#f4a582;stroke:#f4a582;" x="207.986001" xlink:href="#m4c5afe5492" y="54.360145"/>
     <use style="fill:#f4a582;stroke:#f4a582;" x="209.491837" xlink:href="#m4c5afe5492" y="55.452543"/>
    </g>
   </g>
   <g id="PathCollection_4">
    <g clip-path="url(#p5332b31052)">
     <use style="fill:#92c5de;stroke:#92c5de;" x="58.908307" xlink:href="#m88a0ec0afc" y="93.580694"/>
     <use style="fill:#92c5de;stroke:#92c5de;" x="60.414142" xlink:href="#m88a0ec0afc" y="92.489046"/>
     <use style="fill:#92c5de;stroke:#92c5de;" x="61.919977" xlink:href="#m88a0ec0afc" y="91.396647"/>
     <use style="fill:#92c5de;stroke:#92c5de;" x="63.425812" xlink:href="#m88a0ec0afc" y="90.304999"/>
     <use style="fill:#92c5de;stroke:#92c5de;" x="64.931648" xlink:href="#m88a0ec0afc" y="89.211851"/>
     <use style="fill:#92c5de;stroke:#92c5de;" x="66.437483" xlink:href="#m88a0ec0afc" y="88.120203"/>
     <use style="fill:#92c5de;stroke:#92c5de;" x="67.943318" xlink:href="#m88a0ec0afc" y="87.027805"/>
     <use style="fill:#92c5de;stroke:#92c5de;" x="69.449154" xlink:href="#m88a0ec0afc" y="85.936157"/>
     <use style="fill:#92c5de;stroke:#92c5de;" x="70.954989" xlink:href="#m88a0ec0afc" y="84.843758"/>
     <use style="fill:#92c5de;stroke:#92c5de;" x="72.460824" xlink:href="#m88a0ec0afc" y="83.75136"/>
     <use style="fill:#92c5de;stroke:#92c5de;" x="73.96666" xlink:href="#m88a0ec0afc" y="82.658962"/>
     <use style="fill:#92c5de;stroke:#92c5de;" x="75.472495" xlink:href="#m88a0ec0afc" y="81.566564"/>
     <use style="fill:#92c5de;stroke:#92c5de;" x="76.97833" xlink:href="#m88a0ec0afc" y="80.474916"/>
     <use style="fill:#92c5de;stroke:#92c5de;" x="78.484165" xlink:href="#m88a0ec0afc" y="79.382517"/>
     <use style="fill:#92c5de;stroke:#92c5de;" x="79.990001" xlink:href="#m88a0ec0afc" y="78.290119"/>
     <use style="fill:#92c5de;stroke:#92c5de;" x="81.495836" xlink:href="#m88a0ec0afc" y="77.197721"/>
     <use style="fill:#92c5de;stroke:#92c5de;" x="83.001671" xlink:href="#m88a0ec0afc" y="76.105323"/>
     <use style="fill:#92c5de;stroke:#92c5de;" x="84.507507" xlink:href="#m88a0ec0afc" y="75.012924"/>
     <use style="fill:#92c5de;stroke:#92c5de;" x="86.013342" xlink:href="#m88a0ec0afc" y="73.921276"/>
     <use style="fill:#92c5de;stroke:#92c5de;" x="87.519177" xlink:href="#m88a0ec0afc" y="72.828878"/>
     <use style="fill:#92c5de;stroke:#92c5de;" x="89.025013" xlink:href="#m88a0ec0afc" y="71.73648"/>
     <use style="fill:#92c5de;stroke:#92c5de;" x="90.530848" xlink:href="#m88a0ec0afc" y="70.644832"/>
     <use style="fill:#92c5de;stroke:#92c5de;" x="92.036683" xlink:href="#m88a0ec0afc" y="69.552434"/>
     <use style="fill:#92c5de;stroke:#92c5de;" x="93.542518" xlink:href="#m88a0ec0afc" y="68.460035"/>
     <use style="fill:#92c5de;stroke:#92c5de;" x="95.048354" xlink:href="#m88a0ec0afc" y="67.367637"/>
     <use style="fill:#92c5de;stroke:#92c5de;" x="96.554189" xlink:href="#m88a0ec0afc" y="66.275989"/>
     <use style="fill:#92c5de;stroke:#92c5de;" x="98.060024" xlink:href="#m88a0ec0afc" y="65.182841"/>
     <use style="fill:#92c5de;stroke:#92c5de;" x="99.56586" xlink:href="#m88a0ec0afc" y="64.091193"/>
     <use style="fill:#92c5de;stroke:#92c5de;" x="101.071695" xlink:href="#m88a0ec0afc" y="62.998794"/>
     <use style="fill:#92c5de;stroke:#92c5de;" x="102.57753" xlink:href="#m88a0ec0afc" y="61.906396"/>
     <use style="fill:#92c5de;stroke:#92c5de;" x="104.083366" xlink:href="#m88a0ec0afc" y="60.813998"/>
     <use style="fill:#92c5de;stroke:#92c5de;" x="105.589201" xlink:href="#m88a0ec0afc" y="59.72235"/>
     <use style="fill:#92c5de;stroke:#92c5de;" x="107.095036" xlink:href="#m88a0ec0afc" y="58.629952"/>
     <use style="fill:#92c5de;stroke:#92c5de;" x="108.600871" xlink:href="#m88a0ec0afc" y="57.538304"/>
     <use style="fill:#92c5de;stroke:#92c5de;" x="110.106707" xlink:href="#m88a0ec0afc" y="56.445906"/>
     <use style="fill:#92c5de;stroke:#92c5de;" x="111.612542" xlink:href="#m88a0ec0afc" y="55.353507"/>
     <use style="fill:#92c5de;stroke:#92c5de;" x="113.118377" xlink:href="#m88a0ec0afc" y="54.261109"/>
     <use style="fill:#92c5de;stroke:#92c5de;" x="114.624213" xlink:href="#m88a0ec0afc" y="53.169461"/>
     <use style="fill:#92c5de;stroke:#92c5de;" x="116.130048" xlink:href="#m88a0ec0afc" y="52.076313"/>
     <use style="fill:#92c5de;stroke:#92c5de;" x="117.635883" xlink:href="#m88a0ec0afc" y="50.983914"/>
     <use style="fill:#92c5de;stroke:#92c5de;" x="119.141719" xlink:href="#m88a0ec0afc" y="49.892266"/>
     <use style="fill:#92c5de;stroke:#92c5de;" x="120.647554" xlink:href="#m88a0ec0afc" y="48.799868"/>
     <use style="fill:#92c5de;stroke:#92c5de;" x="122.153389" xlink:href="#m88a0ec0afc" y="47.70747"/>
     <use style="fill:#92c5de;stroke:#92c5de;" x="123.659225" xlink:href="#m88a0ec0afc" y="46.615822"/>
     <use style="fill:#92c5de;stroke:#92c5de;" x="125.16506" xlink:href="#m88a0ec0afc" y="45.523424"/>
     <use style="fill:#92c5de;stroke:#92c5de;" x="126.670895" xlink:href="#m88a0ec0afc" y="44.431025"/>
     <use style="fill:#92c5de;stroke:#92c5de;" x="128.17673" xlink:href="#m88a0ec0afc" y="43.338627"/>
     <use style="fill:#92c5de;stroke:#92c5de;" x="129.682566" xlink:href="#m88a0ec0afc" y="42.246979"/>
     <use style="fill:#92c5de;stroke:#92c5de;" x="131.188401" xlink:href="#m88a0ec0afc" y="41.154581"/>
     <use style="fill:#92c5de;stroke:#92c5de;" x="132.694236" xlink:href="#m88a0ec0afc" y="40.062183"/>
     <use style="fill:#92c5de;stroke:#92c5de;" x="134.200072" xlink:href="#m88a0ec0afc" y="38.969784"/>
     <use style="fill:#92c5de;stroke:#92c5de;" x="135.705907" xlink:href="#m88a0ec0afc" y="37.878136"/>
     <use style="fill:#92c5de;stroke:#92c5de;" x="137.211742" xlink:href="#m88a0ec0afc" y="36.784988"/>
     <use style="fill:#92c5de;stroke:#92c5de;" x="138.717578" xlink:href="#m88a0ec0afc" y="35.69334"/>
     <use style="fill:#92c5de;stroke:#92c5de;" x="140.223413" xlink:href="#m88a0ec0afc" y="34.601692"/>
     <use style="fill:#92c5de;stroke:#92c5de;" x="141.729248" xlink:href="#m88a0ec0afc" y="33.508543"/>
     <use style="fill:#92c5de;stroke:#92c5de;" x="143.235083" xlink:href="#m88a0ec0afc" y="32.416895"/>
     <use style="fill:#92c5de;stroke:#92c5de;" x="144.740919" xlink:href="#m88a0ec0afc" y="31.324497"/>
    </g>
   </g>
   <g id="line2d_10">
    <path clip-path="url(#p5332b31052)" d="M 58.908307 115.744524 
L 60.414142 114.652876 
L 61.919977 113.560477 
L 63.425812 112.468079 
L 64.931648 111.375681 
L 66.437483 110.284033 
L 67.943318 109.191635 
L 69.449154 108.099237 
L 70.954989 107.007589 
L 72.460824 105.91444 
L 73.96666 104.822792 
L 75.472495 103.730394 
L 76.97833 102.638746 
L 78.484165 101.546348 
L 79.990001 100.453949 
L 81.495836 99.361551 
L 83.001671 98.269153 
L 84.507507 97.176755 
L 86.013342 96.084356 
L 87.519177 94.992708 
L 89.025013 93.90031 
L 90.530848 92.807912 
L 92.036683 91.716264 
L 93.542518 90.623866 
L 95.048354 89.531467 
L 96.554189 88.439819 
L 98.060024 87.346671 
L 99.56586 86.255023 
L 101.071695 85.162625 
L 102.57753 84.070226 
L 104.083366 82.977828 
L 105.589201 81.88618 
L 107.095036 80.793782 
L 108.600871 79.701384 
L 110.106707 78.609736 
L 111.612542 77.517337 
L 113.118377 76.424939 
L 114.624213 75.333291 
L 116.130048 74.240143 
L 117.635883 73.147744 
L 119.141719 72.056096 
L 120.647554 70.963698 
L 122.153389 69.8713 
L 123.659225 68.779652 
L 125.16506 67.687254 
L 126.670895 66.594855 
L 128.17673 65.502457 
L 129.682566 64.410809 
L 131.188401 63.318411 
L 132.694236 62.226013 
L 134.200072 61.133615 
L 135.705907 60.041967 
L 137.211742 58.948818 
L 138.717578 57.85717 
L 140.223413 56.764772 
L 141.729248 55.672374 
L 143.235083 54.580726 
L 144.740919 53.488327 
L 146.246754 52.395929 
L 147.752589 51.304281 
L 149.258425 50.211883 
L 150.76426 49.119485 
L 152.270095 48.027086 
L 153.775931 45.236069 
L 155.281766 44.143671 
L 156.787601 43.051272 
L 158.293436 41.959624 
L 159.799272 40.867226 
L 161.305107 39.774828 
L 162.810942 38.68243 
L 164.316778 37.590031 
L 165.822613 36.497633 
L 167.328448 35.405985 
L 168.834284 34.313587 
L 170.340119 33.221939 
L 171.845954 32.129541 
L 173.351789 31.037142 
" style="fill:none;stroke:#92c5de;stroke-linecap:round;stroke-width:1.5;"/>
   </g>
   <g id="line2d_11">
    <path clip-path="url(#p5332b31052)" d="M 58.908307 74.741325 
L 60.414142 74.741325 
L 61.919977 74.741325 
L 63.425812 74.741325 
L 64.931648 74.741325 
L 66.437483 74.741325 
L 67.943318 74.741325 
L 69.449154 74.741325 
L 70.954989 74.741325 
L 72.460824 74.741325 
L 73.96666 74.741325 
L 75.472495 74.741325 
L 76.97833 74.741325 
L 78.484165 74.741325 
L 79.990001 74.741325 
L 81.495836 74.741325 
L 83.001671 74.741325 
L 84.507507 74.741325 
L 86.013342 74.741325 
L 87.519177 74.741325 
L 89.025013 74.741325 
L 90.530848 74.741325 
L 92.036683 74.741325 
L 93.542518 74.741325 
L 95.048354 74.741325 
L 96.554189 74.741325 
L 98.060024 74.741325 
L 99.56586 74.741325 
L 101.071695 74.741325 
L 102.57753 74.741325 
L 104.083366 74.741325 
L 105.589201 74.741325 
L 107.095036 74.741325 
L 108.600871 74.741325 
L 110.106707 74.741325 
L 111.612542 74.741325 
L 113.118377 74.741325 
L 114.624213 74.741325 
L 116.130048 74.741325 
L 117.635883 74.741325 
L 119.141719 74.741325 
L 120.647554 74.741325 
L 122.153389 74.741325 
L 123.659225 74.741325 
L 125.16506 74.741325 
L 126.670895 74.741325 
L 128.17673 74.741325 
L 129.682566 74.741325 
L 131.188401 74.741325 
L 132.694236 74.741325 
L 134.200072 74.741325 
L 135.705907 74.741325 
L 137.211742 74.741325 
L 138.717578 74.741325 
L 140.223413 74.741325 
L 141.729248 74.741325 
L 143.235083 74.741325 
L 144.740919 74.741325 
L 146.246754 74.741325 
L 147.752589 74.741325 
L 149.258425 74.741325 
L 150.76426 74.741325 
L 152.270095 74.741325 
L 153.775931 74.741325 
L 155.281766 74.741325 
L 156.787601 74.741325 
L 158.293436 74.741325 
L 159.799272 74.741325 
L 161.305107 74.741325 
L 162.810942 74.741325 
L 164.316778 74.741325 
L 165.822613 74.741325 
L 167.328448 74.741325 
L 168.834284 74.741325 
L 170.340119 74.741325 
L 171.845954 74.741325 
L 173.351789 74.741325 
L 174.857625 74.741325 
L 176.36346 74.741325 
L 177.869295 74.741325 
L 179.375131 74.741325 
L 180.880966 74.741325 
L 182.386801 74.741325 
L 183.892637 74.741325 
L 185.398472 74.741325 
L 186.904307 74.741325 
L 188.410143 74.741325 
L 189.915978 74.741325 
L 191.421813 74.741325 
L 192.927648 74.741325 
L 194.433484 74.741325 
L 195.939319 74.741325 
L 197.445154 74.741325 
L 198.95099 74.741325 
L 200.456825 74.741325 
L 201.96266 74.741325 
L 203.468496 74.741325 
L 204.974331 74.741325 
L 206.480166 74.741325 
L 207.986001 74.741325 
L 209.491837 74.741325 
" style="fill:none;stroke:#333333;stroke-linecap:round;stroke-width:1.5;"/>
   </g>
   <g id="line2d_12">
    <path clip-path="url(#p5332b31052)" d="M 174.857625 30.331885 
L 176.36346 31.424284 
L 177.869295 32.516682 
L 179.375131 33.60833 
L 180.880966 34.700728 
L 182.386801 35.793126 
L 183.892637 36.884774 
L 185.398472 37.977172 
L 186.904307 39.069571 
L 188.410143 40.161219 
L 189.915978 41.253617 
L 191.421813 42.346015 
L 192.927648 43.438413 
L 194.433484 44.530812 
L 195.939319 45.62246 
L 197.445154 46.714858 
L 198.95099 47.807256 
L 200.456825 48.899654 
L 201.96266 49.992053 
L 203.468496 51.083701 
L 204.974331 52.176099 
L 206.480166 53.268497 
L 207.986001 54.360145 
L 209.491837 55.452543 
" style="fill:none;stroke:#f4a582;stroke-linecap:round;stroke-width:1.5;"/>
   </g>
   <g id="line2d_13">
    <path clip-path="url(#p5332b31052)" d="M 58.908307 93.580694 
L 60.414142 92.489046 
L 61.919977 91.396647 
L 63.425812 90.304999 
L 64.931648 89.211851 
L 66.437483 88.120203 
L 67.943318 87.027805 
L 69.449154 85.936157 
L 70.954989 84.843758 
L 72.460824 83.75136 
L 73.96666 82.658962 
L 75.472495 81.566564 
L 76.97833 80.474916 
L 78.484165 79.382517 
L 79.990001 78.290119 
L 81.495836 77.197721 
L 83.001671 76.105323 
L 84.507507 75.012924 
L 86.013342 73.921276 
L 87.519177 72.828878 
L 89.025013 71.73648 
L 90.530848 70.644832 
L 92.036683 69.552434 
L 93.542518 68.460035 
L 95.048354 67.367637 
L 96.554189 66.275989 
L 98.060024 65.182841 
L 99.56586 64.091193 
L 101.071695 62.998794 
L 102.57753 61.906396 
L 104.083366 60.813998 
L 105.589201 59.72235 
L 107.095036 58.629952 
L 108.600871 57.538304 
L 110.106707 56.445906 
L 111.612542 55.353507 
L 113.118377 54.261109 
L 114.624213 53.169461 
L 116.130048 52.076313 
L 117.635883 50.983914 
L 119.141719 49.892266 
L 120.647554 48.799868 
L 122.153389 47.70747 
L 123.659225 46.615822 
L 125.16506 45.523424 
L 126.670895 44.431025 
L 128.17673 43.338627 
L 129.682566 42.246979 
L 131.188401 41.154581 
L 132.694236 40.062183 
L 134.200072 38.969784 
L 135.705907 37.878136 
L 137.211742 36.784988 
L 138.717578 35.69334 
L 140.223413 34.601692 
L 141.729248 33.508543 
L 143.235083 32.416895 
L 144.740919 31.324497 
" style="fill:none;stroke:#92c5de;stroke-linecap:round;stroke-width:1.5;"/>
   </g>
   <g id="patch_3">
    <path d="M 51.05 120.04 
L 51.05 25.8 
" style="fill:none;stroke:#262626;stroke-linecap:square;stroke-linejoin:miter;stroke-width:0.8;"/>
   </g>
   <g id="patch_4">
    <path d="M 51.05 120.04 
L 217.35 120.04 
" style="fill:none;stroke:#262626;stroke-linecap:square;stroke-linejoin:miter;stroke-width:0.8;"/>
   </g>
   <g id="text_12">
    <!-- SM04 -->
    <defs>
     <path d="M 4.5 23 
L 13.421875 23.78125 
Q 14.0625 18.40625 16.375 14.96875 
Q 18.703125 11.53125 23.578125 9.40625 
Q 28.46875 7.28125 34.578125 7.28125 
Q 39.984375 7.28125 44.140625 8.890625 
Q 48.296875 10.5 50.3125 13.296875 
Q 52.34375 16.109375 52.34375 19.4375 
Q 52.34375 22.796875 50.390625 25.3125 
Q 48.4375 27.828125 43.953125 29.546875 
Q 41.0625 30.671875 31.203125 33.03125 
Q 21.34375 35.40625 17.390625 37.5 
Q 12.25 40.1875 9.734375 44.15625 
Q 7.234375 48.140625 7.234375 53.078125 
Q 7.234375 58.5 10.296875 63.203125 
Q 13.375 67.921875 19.28125 70.359375 
Q 25.203125 72.796875 32.421875 72.796875 
Q 40.375 72.796875 46.453125 70.234375 
Q 52.546875 67.671875 55.8125 62.6875 
Q 59.078125 57.71875 59.328125 51.421875 
L 50.25 50.734375 
Q 49.515625 57.515625 45.28125 60.984375 
Q 41.0625 64.453125 32.8125 64.453125 
Q 24.21875 64.453125 20.28125 61.296875 
Q 16.359375 58.15625 16.359375 53.71875 
Q 16.359375 49.859375 19.140625 47.359375 
Q 21.875 44.875 33.421875 42.265625 
Q 44.96875 39.65625 49.265625 37.703125 
Q 55.515625 34.8125 58.484375 30.390625 
Q 61.46875 25.984375 61.46875 20.21875 
Q 61.46875 14.5 58.203125 9.4375 
Q 54.9375 4.390625 48.796875 1.578125 
Q 42.671875 -1.21875 35.015625 -1.21875 
Q 25.296875 -1.21875 18.71875 1.609375 
Q 12.15625 4.4375 8.421875 10.125 
Q 4.6875 15.828125 4.5 23 
z
" id="ArialMT-53"/>
     <path d="M 7.421875 0 
L 7.421875 71.578125 
L 21.6875 71.578125 
L 38.625 20.90625 
Q 40.96875 13.8125 42.046875 10.296875 
Q 43.265625 14.203125 45.84375 21.78125 
L 62.984375 71.578125 
L 75.734375 71.578125 
L 75.734375 0 
L 66.609375 0 
L 66.609375 59.90625 
L 45.796875 0 
L 37.25 0 
L 16.546875 60.9375 
L 16.546875 0 
z
" id="ArialMT-4d"/>
    </defs>
    <g style="fill:#262626;" transform="translate(118.526875 19.8)scale(0.12 -0.12)">
     <use xlink:href="#ArialMT-53"/>
     <use x="66.699219" xlink:href="#ArialMT-4d"/>
     <use x="150" xlink:href="#ArialMT-30"/>
     <use x="205.615234" xlink:href="#ArialMT-34"/>
    </g>
   </g>
  </g>
 </g>
 <defs>
  <clipPath id="p5332b31052">
   <rect height="94.24" width="166.3" x="51.05" y="25.8"/>
  </clipPath>
 </defs>
</svg>
