<?xml version="1.0" encoding="utf-8" standalone="no"?>
<!DOCTYPE svg PUBLIC "-//W3C//DTD SVG 1.1//EN"
  "http://www.w3.org/Graphics/SVG/1.1/DTD/svg11.dtd">
<!-- Created with matplotlib (http://matplotlib.org/) -->
<svg height="159.84pt" version="1.1" viewBox="0 0 230.4 159.84" width="230.4pt" xmlns="http://www.w3.org/2000/svg" xmlns:xlink="http://www.w3.org/1999/xlink">
 <defs>
  <style type="text/css">
*{stroke-linecap:butt;stroke-linejoin:round;}
  </style>
 </defs>
 <g id="figure_1">
  <g id="patch_1">
   <path d="M 0 159.84 
L 230.4 159.84 
L 230.4 0 
L 0 0 
z
" style="fill:#ffffff;"/>
  </g>
  <g id="axes_1">
   <g id="patch_2">
    <path d="M 45.425 120.04 
L 217.35 120.04 
L 217.35 25.8 
L 45.425 25.8 
z
" style="fill:#ffffff;"/>
   </g>
   <g id="matplotlib.axis_1">
    <g id="xtick_1">
     <g id="line2d_1">
      <defs>
       <path d="M 0 0 
L 0 3.5 
" id="mab71b8b2e4" style="stroke:#262626;stroke-width:0.8;"/>
      </defs>
      <g>
       <use style="fill:#262626;stroke:#262626;stroke-width:0.8;" x="53.548701" xlink:href="#mab71b8b2e4" y="120.04"/>
      </g>
     </g>
     <g id="text_1">
      <!-- 2 -->
      <defs>
       <path d="M 50.34375 8.453125 
L 50.34375 0 
L 3.03125 0 
Q 2.9375 3.171875 4.046875 6.109375 
Q 5.859375 10.9375 9.828125 15.625 
Q 13.8125 20.3125 21.34375 26.46875 
Q 33.015625 36.03125 37.109375 41.625 
Q 41.21875 47.21875 41.21875 52.203125 
Q 41.21875 57.421875 37.46875 61 
Q 33.734375 64.59375 27.734375 64.59375 
Q 21.390625 64.59375 17.578125 60.78125 
Q 13.765625 56.984375 13.71875 50.25 
L 4.6875 51.171875 
Q 5.609375 61.28125 11.65625 66.578125 
Q 17.71875 71.875 27.9375 71.875 
Q 38.234375 71.875 44.234375 66.15625 
Q 50.25 60.453125 50.25 52 
Q 50.25 47.703125 48.484375 43.546875 
Q 46.734375 39.40625 42.65625 34.8125 
Q 38.578125 30.21875 29.109375 22.21875 
Q 21.1875 15.578125 18.9375 13.203125 
Q 16.703125 10.84375 15.234375 8.453125 
z
" id="ArialMT-32"/>
      </defs>
      <g style="fill:#262626;" transform="translate(50.768233 134.197812)scale(0.1 -0.1)">
       <use xlink:href="#ArialMT-32"/>
      </g>
     </g>
    </g>
    <g id="xtick_2">
     <g id="line2d_2">
      <g>
       <use style="fill:#262626;stroke:#262626;stroke-width:0.8;" x="84.684221" xlink:href="#mab71b8b2e4" y="120.04"/>
      </g>
     </g>
     <g id="text_2">
      <!-- 4 -->
      <defs>
       <path d="M 32.328125 0 
L 32.328125 17.140625 
L 1.265625 17.140625 
L 1.265625 25.203125 
L 33.9375 71.578125 
L 41.109375 71.578125 
L 41.109375 25.203125 
L 50.78125 25.203125 
L 50.78125 17.140625 
L 41.109375 17.140625 
L 41.109375 0 
z
M 32.328125 25.203125 
L 32.328125 57.46875 
L 9.90625 25.203125 
z
" id="ArialMT-34"/>
      </defs>
      <g style="fill:#262626;" transform="translate(81.903752 134.197812)scale(0.1 -0.1)">
       <use xlink:href="#ArialMT-34"/>
      </g>
     </g>
    </g>
    <g id="xtick_3">
     <g id="line2d_3">
      <g>
       <use style="fill:#262626;stroke:#262626;stroke-width:0.8;" x="115.81974" xlink:href="#mab71b8b2e4" y="120.04"/>
      </g>
     </g>
     <g id="text_3">
      <!-- 6 -->
      <defs>
       <path d="M 49.75 54.046875 
L 41.015625 53.375 
Q 39.84375 58.546875 37.703125 60.890625 
Q 34.125 64.65625 28.90625 64.65625 
Q 24.703125 64.65625 21.53125 62.3125 
Q 17.390625 59.28125 14.984375 53.46875 
Q 12.59375 47.65625 12.5 36.921875 
Q 15.671875 41.75 20.265625 44.09375 
Q 24.859375 46.4375 29.890625 46.4375 
Q 38.671875 46.4375 44.84375 39.96875 
Q 51.03125 33.5 51.03125 23.25 
Q 51.03125 16.5 48.125 10.71875 
Q 45.21875 4.9375 40.140625 1.859375 
Q 35.0625 -1.21875 28.609375 -1.21875 
Q 17.625 -1.21875 10.6875 6.859375 
Q 3.765625 14.9375 3.765625 33.5 
Q 3.765625 54.25 11.421875 63.671875 
Q 18.109375 71.875 29.4375 71.875 
Q 37.890625 71.875 43.28125 67.140625 
Q 48.6875 62.40625 49.75 54.046875 
z
M 13.875 23.1875 
Q 13.875 18.65625 15.796875 14.5 
Q 17.71875 10.359375 21.1875 8.171875 
Q 24.65625 6 28.46875 6 
Q 34.03125 6 38.03125 10.484375 
Q 42.046875 14.984375 42.046875 22.703125 
Q 42.046875 30.125 38.078125 34.390625 
Q 34.125 38.671875 28.125 38.671875 
Q 22.171875 38.671875 18.015625 34.390625 
Q 13.875 30.125 13.875 23.1875 
z
" id="ArialMT-36"/>
      </defs>
      <g style="fill:#262626;" transform="translate(113.039272 134.197812)scale(0.1 -0.1)">
       <use xlink:href="#ArialMT-36"/>
      </g>
     </g>
    </g>
    <g id="xtick_4">
     <g id="line2d_4">
      <g>
       <use style="fill:#262626;stroke:#262626;stroke-width:0.8;" x="146.95526" xlink:href="#mab71b8b2e4" y="120.04"/>
      </g>
     </g>
     <g id="text_4">
      <!-- 8 -->
      <defs>
       <path d="M 17.671875 38.8125 
Q 12.203125 40.828125 9.5625 44.53125 
Q 6.9375 48.25 6.9375 53.421875 
Q 6.9375 61.234375 12.546875 66.546875 
Q 18.171875 71.875 27.484375 71.875 
Q 36.859375 71.875 42.578125 66.421875 
Q 48.296875 60.984375 48.296875 53.171875 
Q 48.296875 48.1875 45.671875 44.5 
Q 43.0625 40.828125 37.75 38.8125 
Q 44.34375 36.671875 47.78125 31.875 
Q 51.21875 27.09375 51.21875 20.453125 
Q 51.21875 11.28125 44.71875 5.03125 
Q 38.234375 -1.21875 27.640625 -1.21875 
Q 17.046875 -1.21875 10.546875 5.046875 
Q 4.046875 11.328125 4.046875 20.703125 
Q 4.046875 27.6875 7.59375 32.390625 
Q 11.140625 37.109375 17.671875 38.8125 
z
M 15.921875 53.71875 
Q 15.921875 48.640625 19.1875 45.40625 
Q 22.46875 42.1875 27.6875 42.1875 
Q 32.765625 42.1875 36.015625 45.375 
Q 39.265625 48.578125 39.265625 53.21875 
Q 39.265625 58.0625 35.90625 61.359375 
Q 32.5625 64.65625 27.59375 64.65625 
Q 22.5625 64.65625 19.234375 61.421875 
Q 15.921875 58.203125 15.921875 53.71875 
z
M 13.09375 20.65625 
Q 13.09375 16.890625 14.875 13.375 
Q 16.65625 9.859375 20.171875 7.921875 
Q 23.6875 6 27.734375 6 
Q 34.03125 6 38.125 10.046875 
Q 42.234375 14.109375 42.234375 20.359375 
Q 42.234375 26.703125 38.015625 30.859375 
Q 33.796875 35.015625 27.4375 35.015625 
Q 21.234375 35.015625 17.15625 30.90625 
Q 13.09375 26.8125 13.09375 20.65625 
z
" id="ArialMT-38"/>
      </defs>
      <g style="fill:#262626;" transform="translate(144.174791 134.197812)scale(0.1 -0.1)">
       <use xlink:href="#ArialMT-38"/>
      </g>
     </g>
    </g>
    <g id="xtick_5">
     <g id="line2d_5">
      <g>
       <use style="fill:#262626;stroke:#262626;stroke-width:0.8;" x="178.090779" xlink:href="#mab71b8b2e4" y="120.04"/>
      </g>
     </g>
     <g id="text_5">
      <!-- 10 -->
      <defs>
       <path d="M 37.25 0 
L 28.46875 0 
L 28.46875 56 
Q 25.296875 52.984375 20.140625 49.953125 
Q 14.984375 46.921875 10.890625 45.40625 
L 10.890625 53.90625 
Q 18.265625 57.375 23.78125 62.296875 
Q 29.296875 67.234375 31.59375 71.875 
L 37.25 71.875 
z
" id="ArialMT-31"/>
       <path d="M 4.15625 35.296875 
Q 4.15625 48 6.765625 55.734375 
Q 9.375 63.484375 14.515625 67.671875 
Q 19.671875 71.875 27.484375 71.875 
Q 33.25 71.875 37.59375 69.546875 
Q 41.9375 67.234375 44.765625 62.859375 
Q 47.609375 58.5 49.21875 52.21875 
Q 50.828125 45.953125 50.828125 35.296875 
Q 50.828125 22.703125 48.234375 14.96875 
Q 45.65625 7.234375 40.5 3 
Q 35.359375 -1.21875 27.484375 -1.21875 
Q 17.140625 -1.21875 11.234375 6.203125 
Q 4.15625 15.140625 4.15625 35.296875 
z
M 13.1875 35.296875 
Q 13.1875 17.671875 17.3125 11.828125 
Q 21.4375 6 27.484375 6 
Q 33.546875 6 37.671875 11.859375 
Q 41.796875 17.71875 41.796875 35.296875 
Q 41.796875 52.984375 37.671875 58.78125 
Q 33.546875 64.59375 27.390625 64.59375 
Q 21.34375 64.59375 17.71875 59.46875 
Q 13.1875 52.9375 13.1875 35.296875 
z
" id="ArialMT-30"/>
      </defs>
      <g style="fill:#262626;" transform="translate(172.529842 134.197812)scale(0.1 -0.1)">
       <use xlink:href="#ArialMT-31"/>
       <use x="55.615234" xlink:href="#ArialMT-30"/>
      </g>
     </g>
    </g>
    <g id="xtick_6">
     <g id="line2d_6">
      <g>
       <use style="fill:#262626;stroke:#262626;stroke-width:0.8;" x="209.226299" xlink:href="#mab71b8b2e4" y="120.04"/>
      </g>
     </g>
     <g id="text_6">
      <!-- 12 -->
      <g style="fill:#262626;" transform="translate(203.665361 134.197812)scale(0.1 -0.1)">
       <use xlink:href="#ArialMT-31"/>
       <use x="55.615234" xlink:href="#ArialMT-32"/>
      </g>
     </g>
    </g>
    <g id="text_7">
     <!-- pH -->
     <defs>
      <path d="M 6.59375 -19.875 
L 6.59375 51.859375 
L 14.59375 51.859375 
L 14.59375 45.125 
Q 17.4375 49.078125 21 51.046875 
Q 24.5625 53.03125 29.640625 53.03125 
Q 36.28125 53.03125 41.359375 49.609375 
Q 46.4375 46.1875 49.015625 39.953125 
Q 51.609375 33.734375 51.609375 26.3125 
Q 51.609375 18.359375 48.75 11.984375 
Q 45.90625 5.609375 40.453125 2.21875 
Q 35.015625 -1.171875 29 -1.171875 
Q 24.609375 -1.171875 21.109375 0.6875 
Q 17.625 2.546875 15.375 5.375 
L 15.375 -19.875 
z
M 14.546875 25.640625 
Q 14.546875 15.625 18.59375 10.84375 
Q 22.65625 6.0625 28.421875 6.0625 
Q 34.28125 6.0625 38.453125 11.015625 
Q 42.625 15.96875 42.625 26.375 
Q 42.625 36.28125 38.546875 41.203125 
Q 34.46875 46.140625 28.8125 46.140625 
Q 23.1875 46.140625 18.859375 40.890625 
Q 14.546875 35.640625 14.546875 25.640625 
z
" id="ArialMT-70"/>
      <path d="M 8.015625 0 
L 8.015625 71.578125 
L 17.484375 71.578125 
L 17.484375 42.1875 
L 54.6875 42.1875 
L 54.6875 71.578125 
L 64.15625 71.578125 
L 64.15625 0 
L 54.6875 0 
L 54.6875 33.734375 
L 17.484375 33.734375 
L 17.484375 0 
z
" id="ArialMT-48"/>
     </defs>
     <g style="fill:#262626;" transform="translate(124.996094 147.343125)scale(0.1 -0.1)">
      <use xlink:href="#ArialMT-70"/>
      <use x="55.615234" xlink:href="#ArialMT-48"/>
     </g>
    </g>
   </g>
   <g id="matplotlib.axis_2">
    <g id="ytick_1">
     <g id="line2d_7">
      <defs>
       <path d="M 0 0 
L -3.5 0 
" id="m2bc5272508" style="stroke:#262626;stroke-width:0.8;"/>
      </defs>
      <g>
       <use style="fill:#262626;stroke:#262626;stroke-width:0.8;" x="45.425" xlink:href="#m2bc5272508" y="108.26957"/>
      </g>
     </g>
     <g id="text_8">
      <!-- −5 -->
      <defs>
       <path d="M 52.828125 31.203125 
L 5.5625 31.203125 
L 5.5625 39.40625 
L 52.828125 39.40625 
z
" id="ArialMT-2212"/>
       <path d="M 4.15625 18.75 
L 13.375 19.53125 
Q 14.40625 12.796875 18.140625 9.390625 
Q 21.875 6 27.15625 6 
Q 33.5 6 37.890625 10.78125 
Q 42.28125 15.578125 42.28125 23.484375 
Q 42.28125 31 38.0625 35.34375 
Q 33.84375 39.703125 27 39.703125 
Q 22.75 39.703125 19.328125 37.765625 
Q 15.921875 35.84375 13.96875 32.765625 
L 5.71875 33.84375 
L 12.640625 70.609375 
L 48.25 70.609375 
L 48.25 62.203125 
L 19.671875 62.203125 
L 15.828125 42.96875 
Q 22.265625 47.46875 29.34375 47.46875 
Q 38.71875 47.46875 45.15625 40.96875 
Q 51.609375 34.46875 51.609375 24.265625 
Q 51.609375 14.546875 45.953125 7.46875 
Q 39.0625 -1.21875 27.15625 -1.21875 
Q 17.390625 -1.21875 11.203125 4.25 
Q 5.03125 9.71875 4.15625 18.75 
z
" id="ArialMT-35"/>
      </defs>
      <g style="fill:#262626;" transform="translate(27.023437 111.848476)scale(0.1 -0.1)">
       <use xlink:href="#ArialMT-2212"/>
       <use x="58.398438" xlink:href="#ArialMT-35"/>
      </g>
     </g>
    </g>
    <g id="ytick_2">
     <g id="line2d_8">
      <g>
       <use style="fill:#262626;stroke:#262626;stroke-width:0.8;" x="45.425" xlink:href="#m2bc5272508" y="82.10532"/>
      </g>
     </g>
     <g id="text_9">
      <!-- 0 -->
      <g style="fill:#262626;" transform="translate(32.864062 85.684226)scale(0.1 -0.1)">
       <use xlink:href="#ArialMT-30"/>
      </g>
     </g>
    </g>
    <g id="ytick_3">
     <g id="line2d_9">
      <g>
       <use style="fill:#262626;stroke:#262626;stroke-width:0.8;" x="45.425" xlink:href="#m2bc5272508" y="55.94107"/>
      </g>
     </g>
     <g id="text_10">
      <!-- 5 -->
      <g style="fill:#262626;" transform="translate(32.864062 59.519976)scale(0.1 -0.1)">
       <use xlink:href="#ArialMT-35"/>
      </g>
     </g>
    </g>
    <g id="ytick_4">
     <g id="line2d_10">
      <g>
       <use style="fill:#262626;stroke:#262626;stroke-width:0.8;" x="45.425" xlink:href="#m2bc5272508" y="29.77682"/>
      </g>
     </g>
     <g id="text_11">
      <!-- 10 -->
      <g style="fill:#262626;" transform="translate(27.303125 33.355726)scale(0.1 -0.1)">
       <use xlink:href="#ArialMT-31"/>
       <use x="55.615234" xlink:href="#ArialMT-30"/>
      </g>
     </g>
    </g>
    <g id="text_12">
     <!-- Free Energy($k_BT$) -->
     <defs>
      <path d="M 8.203125 0 
L 8.203125 71.578125 
L 56.5 71.578125 
L 56.5 63.140625 
L 17.671875 63.140625 
L 17.671875 40.96875 
L 51.265625 40.96875 
L 51.265625 32.515625 
L 17.671875 32.515625 
L 17.671875 0 
z
" id="ArialMT-46"/>
      <path d="M 6.5 0 
L 6.5 51.859375 
L 14.40625 51.859375 
L 14.40625 44 
Q 17.4375 49.515625 20 51.265625 
Q 22.5625 53.03125 25.640625 53.03125 
Q 30.078125 53.03125 34.671875 50.203125 
L 31.640625 42.046875 
Q 28.421875 43.953125 25.203125 43.953125 
Q 22.3125 43.953125 20.015625 42.21875 
Q 17.71875 40.484375 16.75 37.40625 
Q 15.28125 32.71875 15.28125 27.15625 
L 15.28125 0 
z
" id="ArialMT-72"/>
      <path d="M 42.09375 16.703125 
L 51.171875 15.578125 
Q 49.03125 7.625 43.21875 3.21875 
Q 37.40625 -1.171875 28.375 -1.171875 
Q 17 -1.171875 10.328125 5.828125 
Q 3.65625 12.84375 3.65625 25.484375 
Q 3.65625 38.578125 10.390625 45.796875 
Q 17.140625 53.03125 27.875 53.03125 
Q 38.28125 53.03125 44.875 45.953125 
Q 51.46875 38.875 51.46875 26.03125 
Q 51.46875 25.25 51.421875 23.6875 
L 12.75 23.6875 
Q 13.234375 15.140625 17.578125 10.59375 
Q 21.921875 6.0625 28.421875 6.0625 
Q 33.25 6.0625 36.671875 8.59375 
Q 40.09375 11.140625 42.09375 16.703125 
z
M 13.234375 30.90625 
L 42.1875 30.90625 
Q 41.609375 37.453125 38.875 40.71875 
Q 34.671875 45.796875 27.984375 45.796875 
Q 21.921875 45.796875 17.796875 41.75 
Q 13.671875 37.703125 13.234375 30.90625 
z
" id="ArialMT-65"/>
      <path id="ArialMT-20"/>
      <path d="M 7.90625 0 
L 7.90625 71.578125 
L 59.671875 71.578125 
L 59.671875 63.140625 
L 17.390625 63.140625 
L 17.390625 41.21875 
L 56.984375 41.21875 
L 56.984375 32.8125 
L 17.390625 32.8125 
L 17.390625 8.453125 
L 61.328125 8.453125 
L 61.328125 0 
z
" id="ArialMT-45"/>
      <path d="M 6.59375 0 
L 6.59375 51.859375 
L 14.5 51.859375 
L 14.5 44.484375 
Q 20.21875 53.03125 31 53.03125 
Q 35.6875 53.03125 39.625 51.34375 
Q 43.5625 49.65625 45.515625 46.921875 
Q 47.46875 44.1875 48.25 40.4375 
Q 48.734375 37.984375 48.734375 31.890625 
L 48.734375 0 
L 39.9375 0 
L 39.9375 31.546875 
Q 39.9375 36.921875 38.90625 39.578125 
Q 37.890625 42.234375 35.28125 43.8125 
Q 32.671875 45.40625 29.15625 45.40625 
Q 23.53125 45.40625 19.453125 41.84375 
Q 15.375 38.28125 15.375 28.328125 
L 15.375 0 
z
" id="ArialMT-6e"/>
      <path d="M 4.984375 -4.296875 
L 13.53125 -5.5625 
Q 14.0625 -9.515625 16.5 -11.328125 
Q 19.78125 -13.765625 25.4375 -13.765625 
Q 31.546875 -13.765625 34.859375 -11.328125 
Q 38.1875 -8.890625 39.359375 -4.5 
Q 40.046875 -1.8125 39.984375 6.78125 
Q 34.234375 0 25.640625 0 
Q 14.9375 0 9.078125 7.71875 
Q 3.21875 15.4375 3.21875 26.21875 
Q 3.21875 33.640625 5.90625 39.90625 
Q 8.59375 46.1875 13.6875 49.609375 
Q 18.796875 53.03125 25.6875 53.03125 
Q 34.859375 53.03125 40.828125 45.609375 
L 40.828125 51.859375 
L 48.921875 51.859375 
L 48.921875 7.03125 
Q 48.921875 -5.078125 46.453125 -10.125 
Q 44 -15.1875 38.640625 -18.109375 
Q 33.296875 -21.046875 25.484375 -21.046875 
Q 16.21875 -21.046875 10.5 -16.875 
Q 4.78125 -12.703125 4.984375 -4.296875 
z
M 12.25 26.859375 
Q 12.25 16.65625 16.296875 11.96875 
Q 20.359375 7.28125 26.46875 7.28125 
Q 32.515625 7.28125 36.609375 11.9375 
Q 40.71875 16.609375 40.71875 26.5625 
Q 40.71875 36.078125 36.5 40.90625 
Q 32.28125 45.75 26.3125 45.75 
Q 20.453125 45.75 16.34375 40.984375 
Q 12.25 36.234375 12.25 26.859375 
z
" id="ArialMT-67"/>
      <path d="M 6.203125 -19.96875 
L 5.21875 -11.71875 
Q 8.109375 -12.5 10.25 -12.5 
Q 13.1875 -12.5 14.9375 -11.515625 
Q 16.703125 -10.546875 17.828125 -8.796875 
Q 18.65625 -7.46875 20.515625 -2.25 
Q 20.75 -1.515625 21.296875 -0.09375 
L 1.609375 51.859375 
L 11.078125 51.859375 
L 21.875 21.828125 
Q 23.96875 16.109375 25.640625 9.8125 
Q 27.15625 15.875 29.25 21.625 
L 40.328125 51.859375 
L 49.125 51.859375 
L 29.390625 -0.875 
Q 26.21875 -9.421875 24.46875 -12.640625 
Q 22.125 -17 19.09375 -19.015625 
Q 16.0625 -21.046875 11.859375 -21.046875 
Q 9.328125 -21.046875 6.203125 -19.96875 
z
" id="ArialMT-79"/>
      <path d="M 23.390625 -21.046875 
Q 16.109375 -11.859375 11.078125 0.4375 
Q 6.0625 12.75 6.0625 25.921875 
Q 6.0625 37.546875 9.8125 48.1875 
Q 14.203125 60.546875 23.390625 72.796875 
L 29.6875 72.796875 
Q 23.78125 62.640625 21.875 58.296875 
Q 18.890625 51.5625 17.1875 44.234375 
Q 15.09375 35.109375 15.09375 25.875 
Q 15.09375 2.390625 29.6875 -21.046875 
z
" id="ArialMT-28"/>
      <path d="M 18.3125 75.984375 
L 27.296875 75.984375 
L 18.703125 31.6875 
L 49.515625 54.6875 
L 61.1875 54.6875 
L 26.8125 28.515625 
L 51.90625 0 
L 41.015625 0 
L 17.671875 26.703125 
L 12.5 0 
L 3.515625 0 
z
" id="DejaVuSans-Oblique-6b"/>
      <path d="M 16.890625 72.90625 
L 42.09375 72.90625 
Q 52.34375 72.90625 57.421875 69.09375 
Q 62.5 65.28125 62.5 57.625 
Q 62.5 50.59375 58.125 45.484375 
Q 53.765625 40.375 46.6875 39.3125 
Q 52.734375 37.9375 55.765625 34.078125 
Q 58.796875 30.21875 58.796875 23.78125 
Q 58.796875 12.796875 50.65625 6.390625 
Q 42.53125 0 28.421875 0 
L 2.6875 0 
z
M 19.28125 34.8125 
L 14.109375 8.109375 
L 29.984375 8.109375 
Q 38.921875 8.109375 43.75 12.203125 
Q 48.578125 16.3125 48.578125 23.78125 
Q 48.578125 29.546875 45.375 32.171875 
Q 42.1875 34.8125 35.109375 34.8125 
z
M 25.09375 64.796875 
L 20.796875 42.828125 
L 35.5 42.828125 
Q 43.359375 42.828125 47.78125 46.234375 
Q 52.203125 49.65625 52.203125 55.71875 
Q 52.203125 60.453125 49.21875 62.625 
Q 46.234375 64.796875 39.703125 64.796875 
z
" id="DejaVuSans-Oblique-42"/>
      <path d="M 5.90625 72.90625 
L 67.578125 72.90625 
L 66.015625 64.59375 
L 39.984375 64.59375 
L 27.484375 0 
L 17.578125 0 
L 30.078125 64.59375 
L 4.296875 64.59375 
z
" id="DejaVuSans-Oblique-54"/>
      <path d="M 12.359375 -21.046875 
L 6.0625 -21.046875 
Q 20.65625 2.390625 20.65625 25.875 
Q 20.65625 35.0625 18.5625 44.09375 
Q 16.890625 51.421875 13.921875 58.15625 
Q 12.015625 62.546875 6.0625 72.796875 
L 12.359375 72.796875 
Q 21.53125 60.546875 25.921875 48.1875 
Q 29.6875 37.546875 29.6875 25.921875 
Q 29.6875 12.75 24.625 0.4375 
Q 19.578125 -11.859375 12.359375 -21.046875 
z
" id="ArialMT-29"/>
     </defs>
     <g style="fill:#262626;" transform="translate(20.823437 112.27)rotate(-90)scale(0.1 -0.1)">
      <use transform="translate(0 0.015625)" xlink:href="#ArialMT-46"/>
      <use transform="translate(61.083984 0.015625)" xlink:href="#ArialMT-72"/>
      <use transform="translate(94.384766 0.015625)" xlink:href="#ArialMT-65"/>
      <use transform="translate(150 0.015625)" xlink:href="#ArialMT-65"/>
      <use transform="translate(205.615234 0.015625)" xlink:href="#ArialMT-20"/>
      <use transform="translate(233.398438 0.015625)" xlink:href="#ArialMT-45"/>
      <use transform="translate(300.097656 0.015625)" xlink:href="#ArialMT-6e"/>
      <use transform="translate(355.712891 0.015625)" xlink:href="#ArialMT-65"/>
      <use transform="translate(411.328125 0.015625)" xlink:href="#ArialMT-72"/>
      <use transform="translate(444.628906 0.015625)" xlink:href="#ArialMT-67"/>
      <use transform="translate(500.244141 0.015625)" xlink:href="#ArialMT-79"/>
      <use transform="translate(550.244141 0.015625)" xlink:href="#ArialMT-28"/>
      <use transform="translate(583.544922 0.015625)" xlink:href="#DejaVuSans-Oblique-6b"/>
      <use transform="translate(641.455078 -16.390625)scale(0.7)" xlink:href="#DejaVuSans-Oblique-42"/>
      <use transform="translate(692.211914 0.015625)" xlink:href="#DejaVuSans-Oblique-54"/>
      <use transform="translate(753.295898 0.015625)" xlink:href="#ArialMT-29"/>
     </g>
    </g>
   </g>
   <g id="PathCollection_1">
    <defs>
     <path d="M 0 0.5 
C 0.132602 0.5 0.25979 0.447317 0.353553 0.353553 
C 0.447317 0.25979 0.5 0.132602 0.5 0 
C 0.5 -0.132602 0.447317 -0.25979 0.353553 -0.353553 
C 0.25979 -0.447317 0.132602 -0.5 0 -0.5 
C -0.132602 -0.5 -0.25979 -0.447317 -0.353553 -0.353553 
C -0.447317 -0.25979 -0.5 -0.132602 -0.5 0 
C -0.5 0.132602 -0.447317 0.25979 -0.353553 0.353553 
C -0.25979 0.447317 -0.132602 0.5 0 0.5 
z
" id="m996d65b0a2" style="stroke:#333333;"/>
    </defs>
    <g clip-path="url(#p89bde7c237)">
     <use style="fill:#333333;stroke:#333333;" x="53.548701" xlink:href="#m996d65b0a2" y="82.10532"/>
     <use style="fill:#333333;stroke:#333333;" x="55.105477" xlink:href="#m996d65b0a2" y="82.10532"/>
     <use style="fill:#333333;stroke:#333333;" x="56.662253" xlink:href="#m996d65b0a2" y="82.10532"/>
     <use style="fill:#333333;stroke:#333333;" x="58.219029" xlink:href="#m996d65b0a2" y="82.10532"/>
     <use style="fill:#333333;stroke:#333333;" x="59.775805" xlink:href="#m996d65b0a2" y="82.10532"/>
     <use style="fill:#333333;stroke:#333333;" x="61.332581" xlink:href="#m996d65b0a2" y="82.10532"/>
     <use style="fill:#333333;stroke:#333333;" x="62.889357" xlink:href="#m996d65b0a2" y="82.10532"/>
     <use style="fill:#333333;stroke:#333333;" x="64.446133" xlink:href="#m996d65b0a2" y="82.10532"/>
     <use style="fill:#333333;stroke:#333333;" x="66.002909" xlink:href="#m996d65b0a2" y="82.10532"/>
     <use style="fill:#333333;stroke:#333333;" x="67.559685" xlink:href="#m996d65b0a2" y="82.10532"/>
     <use style="fill:#333333;stroke:#333333;" x="69.116461" xlink:href="#m996d65b0a2" y="82.10532"/>
     <use style="fill:#333333;stroke:#333333;" x="70.673237" xlink:href="#m996d65b0a2" y="82.10532"/>
     <use style="fill:#333333;stroke:#333333;" x="72.230013" xlink:href="#m996d65b0a2" y="82.10532"/>
     <use style="fill:#333333;stroke:#333333;" x="73.786789" xlink:href="#m996d65b0a2" y="82.10532"/>
     <use style="fill:#333333;stroke:#333333;" x="75.343565" xlink:href="#m996d65b0a2" y="82.10532"/>
     <use style="fill:#333333;stroke:#333333;" x="76.900341" xlink:href="#m996d65b0a2" y="82.10532"/>
     <use style="fill:#333333;stroke:#333333;" x="78.457117" xlink:href="#m996d65b0a2" y="82.10532"/>
     <use style="fill:#333333;stroke:#333333;" x="80.013893" xlink:href="#m996d65b0a2" y="82.10532"/>
     <use style="fill:#333333;stroke:#333333;" x="81.570669" xlink:href="#m996d65b0a2" y="82.10532"/>
     <use style="fill:#333333;stroke:#333333;" x="83.127445" xlink:href="#m996d65b0a2" y="82.10532"/>
     <use style="fill:#333333;stroke:#333333;" x="84.684221" xlink:href="#m996d65b0a2" y="82.10532"/>
     <use style="fill:#333333;stroke:#333333;" x="86.240997" xlink:href="#m996d65b0a2" y="82.10532"/>
     <use style="fill:#333333;stroke:#333333;" x="87.797773" xlink:href="#m996d65b0a2" y="82.10532"/>
     <use style="fill:#333333;stroke:#333333;" x="89.354549" xlink:href="#m996d65b0a2" y="82.10532"/>
     <use style="fill:#333333;stroke:#333333;" x="90.911325" xlink:href="#m996d65b0a2" y="82.10532"/>
     <use style="fill:#333333;stroke:#333333;" x="92.468101" xlink:href="#m996d65b0a2" y="82.10532"/>
     <use style="fill:#333333;stroke:#333333;" x="94.024877" xlink:href="#m996d65b0a2" y="82.10532"/>
     <use style="fill:#333333;stroke:#333333;" x="95.581653" xlink:href="#m996d65b0a2" y="82.10532"/>
     <use style="fill:#333333;stroke:#333333;" x="97.138429" xlink:href="#m996d65b0a2" y="82.10532"/>
     <use style="fill:#333333;stroke:#333333;" x="98.695205" xlink:href="#m996d65b0a2" y="82.10532"/>
     <use style="fill:#333333;stroke:#333333;" x="100.251981" xlink:href="#m996d65b0a2" y="82.10532"/>
     <use style="fill:#333333;stroke:#333333;" x="101.808756" xlink:href="#m996d65b0a2" y="82.10532"/>
     <use style="fill:#333333;stroke:#333333;" x="103.365532" xlink:href="#m996d65b0a2" y="82.10532"/>
     <use style="fill:#333333;stroke:#333333;" x="104.922308" xlink:href="#m996d65b0a2" y="82.10532"/>
     <use style="fill:#333333;stroke:#333333;" x="106.479084" xlink:href="#m996d65b0a2" y="82.10532"/>
     <use style="fill:#333333;stroke:#333333;" x="108.03586" xlink:href="#m996d65b0a2" y="82.10532"/>
     <use style="fill:#333333;stroke:#333333;" x="109.592636" xlink:href="#m996d65b0a2" y="82.10532"/>
     <use style="fill:#333333;stroke:#333333;" x="111.149412" xlink:href="#m996d65b0a2" y="82.10532"/>
     <use style="fill:#333333;stroke:#333333;" x="112.706188" xlink:href="#m996d65b0a2" y="82.10532"/>
     <use style="fill:#333333;stroke:#333333;" x="114.262964" xlink:href="#m996d65b0a2" y="82.10532"/>
     <use style="fill:#333333;stroke:#333333;" x="115.81974" xlink:href="#m996d65b0a2" y="82.10532"/>
     <use style="fill:#333333;stroke:#333333;" x="117.376516" xlink:href="#m996d65b0a2" y="82.10532"/>
     <use style="fill:#333333;stroke:#333333;" x="118.933292" xlink:href="#m996d65b0a2" y="82.10532"/>
     <use style="fill:#333333;stroke:#333333;" x="120.490068" xlink:href="#m996d65b0a2" y="82.10532"/>
     <use style="fill:#333333;stroke:#333333;" x="122.046844" xlink:href="#m996d65b0a2" y="82.10532"/>
     <use style="fill:#333333;stroke:#333333;" x="123.60362" xlink:href="#m996d65b0a2" y="82.10532"/>
     <use style="fill:#333333;stroke:#333333;" x="125.160396" xlink:href="#m996d65b0a2" y="82.10532"/>
     <use style="fill:#333333;stroke:#333333;" x="126.717172" xlink:href="#m996d65b0a2" y="82.10532"/>
     <use style="fill:#333333;stroke:#333333;" x="128.273948" xlink:href="#m996d65b0a2" y="82.10532"/>
     <use style="fill:#333333;stroke:#333333;" x="129.830724" xlink:href="#m996d65b0a2" y="82.10532"/>
     <use style="fill:#333333;stroke:#333333;" x="131.3875" xlink:href="#m996d65b0a2" y="82.10532"/>
     <use style="fill:#333333;stroke:#333333;" x="132.944276" xlink:href="#m996d65b0a2" y="82.10532"/>
     <use style="fill:#333333;stroke:#333333;" x="134.501052" xlink:href="#m996d65b0a2" y="82.10532"/>
     <use style="fill:#333333;stroke:#333333;" x="136.057828" xlink:href="#m996d65b0a2" y="82.10532"/>
     <use style="fill:#333333;stroke:#333333;" x="137.614604" xlink:href="#m996d65b0a2" y="82.10532"/>
     <use style="fill:#333333;stroke:#333333;" x="139.17138" xlink:href="#m996d65b0a2" y="82.10532"/>
     <use style="fill:#333333;stroke:#333333;" x="140.728156" xlink:href="#m996d65b0a2" y="82.10532"/>
     <use style="fill:#333333;stroke:#333333;" x="142.284932" xlink:href="#m996d65b0a2" y="82.10532"/>
     <use style="fill:#333333;stroke:#333333;" x="143.841708" xlink:href="#m996d65b0a2" y="82.10532"/>
     <use style="fill:#333333;stroke:#333333;" x="145.398484" xlink:href="#m996d65b0a2" y="82.10532"/>
     <use style="fill:#333333;stroke:#333333;" x="146.95526" xlink:href="#m996d65b0a2" y="82.10532"/>
     <use style="fill:#333333;stroke:#333333;" x="148.512036" xlink:href="#m996d65b0a2" y="82.10532"/>
     <use style="fill:#333333;stroke:#333333;" x="150.068812" xlink:href="#m996d65b0a2" y="82.10532"/>
     <use style="fill:#333333;stroke:#333333;" x="151.625588" xlink:href="#m996d65b0a2" y="82.10532"/>
     <use style="fill:#333333;stroke:#333333;" x="153.182364" xlink:href="#m996d65b0a2" y="82.10532"/>
     <use style="fill:#333333;stroke:#333333;" x="154.73914" xlink:href="#m996d65b0a2" y="82.10532"/>
     <use style="fill:#333333;stroke:#333333;" x="156.295916" xlink:href="#m996d65b0a2" y="82.10532"/>
     <use style="fill:#333333;stroke:#333333;" x="157.852692" xlink:href="#m996d65b0a2" y="82.10532"/>
     <use style="fill:#333333;stroke:#333333;" x="159.409468" xlink:href="#m996d65b0a2" y="82.10532"/>
     <use style="fill:#333333;stroke:#333333;" x="160.966244" xlink:href="#m996d65b0a2" y="82.10532"/>
     <use style="fill:#333333;stroke:#333333;" x="162.523019" xlink:href="#m996d65b0a2" y="82.10532"/>
     <use style="fill:#333333;stroke:#333333;" x="164.079795" xlink:href="#m996d65b0a2" y="82.10532"/>
     <use style="fill:#333333;stroke:#333333;" x="165.636571" xlink:href="#m996d65b0a2" y="82.10532"/>
     <use style="fill:#333333;stroke:#333333;" x="167.193347" xlink:href="#m996d65b0a2" y="82.10532"/>
     <use style="fill:#333333;stroke:#333333;" x="168.750123" xlink:href="#m996d65b0a2" y="82.10532"/>
     <use style="fill:#333333;stroke:#333333;" x="170.306899" xlink:href="#m996d65b0a2" y="82.10532"/>
     <use style="fill:#333333;stroke:#333333;" x="171.863675" xlink:href="#m996d65b0a2" y="82.10532"/>
     <use style="fill:#333333;stroke:#333333;" x="173.420451" xlink:href="#m996d65b0a2" y="82.10532"/>
     <use style="fill:#333333;stroke:#333333;" x="174.977227" xlink:href="#m996d65b0a2" y="82.10532"/>
     <use style="fill:#333333;stroke:#333333;" x="176.534003" xlink:href="#m996d65b0a2" y="82.10532"/>
     <use style="fill:#333333;stroke:#333333;" x="178.090779" xlink:href="#m996d65b0a2" y="82.10532"/>
     <use style="fill:#333333;stroke:#333333;" x="179.647555" xlink:href="#m996d65b0a2" y="82.10532"/>
     <use style="fill:#333333;stroke:#333333;" x="181.204331" xlink:href="#m996d65b0a2" y="82.10532"/>
     <use style="fill:#333333;stroke:#333333;" x="182.761107" xlink:href="#m996d65b0a2" y="82.10532"/>
     <use style="fill:#333333;stroke:#333333;" x="184.317883" xlink:href="#m996d65b0a2" y="82.10532"/>
     <use style="fill:#333333;stroke:#333333;" x="185.874659" xlink:href="#m996d65b0a2" y="82.10532"/>
     <use style="fill:#333333;stroke:#333333;" x="187.431435" xlink:href="#m996d65b0a2" y="82.10532"/>
     <use style="fill:#333333;stroke:#333333;" x="188.988211" xlink:href="#m996d65b0a2" y="82.10532"/>
     <use style="fill:#333333;stroke:#333333;" x="190.544987" xlink:href="#m996d65b0a2" y="82.10532"/>
     <use style="fill:#333333;stroke:#333333;" x="192.101763" xlink:href="#m996d65b0a2" y="82.10532"/>
     <use style="fill:#333333;stroke:#333333;" x="193.658539" xlink:href="#m996d65b0a2" y="82.10532"/>
     <use style="fill:#333333;stroke:#333333;" x="195.215315" xlink:href="#m996d65b0a2" y="82.10532"/>
     <use style="fill:#333333;stroke:#333333;" x="196.772091" xlink:href="#m996d65b0a2" y="82.10532"/>
     <use style="fill:#333333;stroke:#333333;" x="198.328867" xlink:href="#m996d65b0a2" y="82.10532"/>
     <use style="fill:#333333;stroke:#333333;" x="199.885643" xlink:href="#m996d65b0a2" y="82.10532"/>
     <use style="fill:#333333;stroke:#333333;" x="201.442419" xlink:href="#m996d65b0a2" y="82.10532"/>
     <use style="fill:#333333;stroke:#333333;" x="202.999195" xlink:href="#m996d65b0a2" y="82.10532"/>
     <use style="fill:#333333;stroke:#333333;" x="204.555971" xlink:href="#m996d65b0a2" y="82.10532"/>
     <use style="fill:#333333;stroke:#333333;" x="206.112747" xlink:href="#m996d65b0a2" y="82.10532"/>
     <use style="fill:#333333;stroke:#333333;" x="207.669523" xlink:href="#m996d65b0a2" y="82.10532"/>
     <use style="fill:#333333;stroke:#333333;" x="209.226299" xlink:href="#m996d65b0a2" y="82.10532"/>
    </g>
   </g>
   <g id="PathCollection_2">
    <defs>
     <path d="M 0 0.5 
C 0.132602 0.5 0.25979 0.447317 0.353553 0.353553 
C 0.447317 0.25979 0.5 0.132602 0.5 0 
C 0.5 -0.132602 0.447317 -0.25979 0.353553 -0.353553 
C 0.25979 -0.447317 0.132602 -0.5 0 -0.5 
C -0.132602 -0.5 -0.25979 -0.447317 -0.353553 -0.353553 
C -0.447317 -0.25979 -0.5 -0.132602 -0.5 0 
C -0.5 0.132602 -0.447317 0.25979 -0.353553 0.353553 
C -0.25979 0.447317 -0.132602 0.5 0 0.5 
z
" id="mf75cf31b6f" style="stroke:#4393c3;"/>
    </defs>
    <g clip-path="url(#p89bde7c237)">
     <use style="fill:#4393c3;stroke:#4393c3;" x="53.548701" xlink:href="#mf75cf31b6f" y="115.756282"/>
     <use style="fill:#4393c3;stroke:#4393c3;" x="55.105477" xlink:href="#mf75cf31b6f" y="113.184391"/>
     <use style="fill:#4393c3;stroke:#4393c3;" x="56.662253" xlink:href="#mf75cf31b6f" y="102.981617"/>
     <use style="fill:#4393c3;stroke:#4393c3;" x="58.219029" xlink:href="#mf75cf31b6f" y="100.41061"/>
     <use style="fill:#4393c3;stroke:#4393c3;" x="59.775805" xlink:href="#mf75cf31b6f" y="94.98597"/>
     <use style="fill:#4393c3;stroke:#4393c3;" x="61.332581" xlink:href="#mf75cf31b6f" y="92.414079"/>
     <use style="fill:#4393c3;stroke:#4393c3;" x="62.889357" xlink:href="#mf75cf31b6f" y="92.695821"/>
     <use style="fill:#4393c3;stroke:#4393c3;" x="64.446133" xlink:href="#mf75cf31b6f" y="90.123931"/>
     <use style="fill:#4393c3;stroke:#4393c3;" x="66.002909" xlink:href="#mf75cf31b6f" y="87.552923"/>
     <use style="fill:#4393c3;stroke:#4393c3;" x="67.559685" xlink:href="#mf75cf31b6f" y="84.981033"/>
     <use style="fill:#4393c3;stroke:#4393c3;" x="69.116461" xlink:href="#mf75cf31b6f" y="82.410025"/>
     <use style="fill:#4393c3;stroke:#4393c3;" x="70.673237" xlink:href="#mf75cf31b6f" y="79.839018"/>
     <use style="fill:#4393c3;stroke:#4393c3;" x="72.230013" xlink:href="#mf75cf31b6f" y="77.267128"/>
     <use style="fill:#4393c3;stroke:#4393c3;" x="73.786789" xlink:href="#mf75cf31b6f" y="74.695237"/>
     <use style="fill:#4393c3;stroke:#4393c3;" x="75.343565" xlink:href="#mf75cf31b6f" y="72.12423"/>
     <use style="fill:#4393c3;stroke:#4393c3;" x="76.900341" xlink:href="#mf75cf31b6f" y="69.552339"/>
     <use style="fill:#4393c3;stroke:#4393c3;" x="78.457117" xlink:href="#mf75cf31b6f" y="66.980449"/>
     <use style="fill:#4393c3;stroke:#4393c3;" x="80.013893" xlink:href="#mf75cf31b6f" y="64.409441"/>
     <use style="fill:#4393c3;stroke:#4393c3;" x="81.570669" xlink:href="#mf75cf31b6f" y="70.414346"/>
     <use style="fill:#4393c3;stroke:#4393c3;" x="83.127445" xlink:href="#mf75cf31b6f" y="67.842456"/>
     <use style="fill:#4393c3;stroke:#4393c3;" x="84.684221" xlink:href="#mf75cf31b6f" y="65.271449"/>
     <use style="fill:#4393c3;stroke:#4393c3;" x="86.240997" xlink:href="#mf75cf31b6f" y="62.699558"/>
     <use style="fill:#4393c3;stroke:#4393c3;" x="87.797773" xlink:href="#mf75cf31b6f" y="54.748954"/>
     <use style="fill:#4393c3;stroke:#4393c3;" x="89.354549" xlink:href="#mf75cf31b6f" y="46.127998"/>
     <use style="fill:#4393c3;stroke:#4393c3;" x="90.911325" xlink:href="#mf75cf31b6f" y="46.408857"/>
     <use style="fill:#4393c3;stroke:#4393c3;" x="92.468101" xlink:href="#mf75cf31b6f" y="43.806938"/>
     <use style="fill:#4393c3;stroke:#4393c3;" x="94.024877" xlink:href="#mf75cf31b6f" y="41.23593"/>
     <use style="fill:#4393c3;stroke:#4393c3;" x="95.581653" xlink:href="#mf75cf31b6f" y="38.66404"/>
     <use style="fill:#4393c3;stroke:#4393c3;" x="97.138429" xlink:href="#mf75cf31b6f" y="36.093033"/>
     <use style="fill:#4393c3;stroke:#4393c3;" x="98.695205" xlink:href="#mf75cf31b6f" y="33.521142"/>
     <use style="fill:#4393c3;stroke:#4393c3;" x="100.251981" xlink:href="#mf75cf31b6f" y="30.950135"/>
    </g>
   </g>
   <g id="PathCollection_3">
    <defs>
     <path d="M 0 0.5 
C 0.132602 0.5 0.25979 0.447317 0.353553 0.353553 
C 0.447317 0.25979 0.5 0.132602 0.5 0 
C 0.5 -0.132602 0.447317 -0.25979 0.353553 -0.353553 
C 0.25979 -0.447317 0.132602 -0.5 0 -0.5 
C -0.132602 -0.5 -0.25979 -0.447317 -0.353553 -0.353553 
C -0.447317 -0.25979 -0.5 -0.132602 -0.5 0 
C -0.5 0.132602 -0.447317 0.25979 -0.353553 0.353553 
C -0.25979 0.447317 -0.132602 0.5 0 0.5 
z
" id="meb1132a937" style="stroke:#92c5de;"/>
    </defs>
    <g clip-path="url(#p89bde7c237)">
     <use style="fill:#92c5de;stroke:#92c5de;" x="53.548701" xlink:href="#meb1132a937" y="64.635542"/>
     <use style="fill:#92c5de;stroke:#92c5de;" x="55.105477" xlink:href="#meb1132a937" y="63.349596"/>
     <use style="fill:#92c5de;stroke:#92c5de;" x="62.889357" xlink:href="#meb1132a937" y="49.288986"/>
     <use style="fill:#92c5de;stroke:#92c5de;" x="64.446133" xlink:href="#meb1132a937" y="48.003041"/>
     <use style="fill:#92c5de;stroke:#92c5de;" x="66.002909" xlink:href="#meb1132a937" y="46.717979"/>
     <use style="fill:#92c5de;stroke:#92c5de;" x="67.559685" xlink:href="#meb1132a937" y="45.432033"/>
     <use style="fill:#92c5de;stroke:#92c5de;" x="69.116461" xlink:href="#meb1132a937" y="44.146088"/>
     <use style="fill:#92c5de;stroke:#92c5de;" x="70.673237" xlink:href="#meb1132a937" y="42.861026"/>
     <use style="fill:#92c5de;stroke:#92c5de;" x="72.230013" xlink:href="#meb1132a937" y="41.575081"/>
     <use style="fill:#92c5de;stroke:#92c5de;" x="73.786789" xlink:href="#meb1132a937" y="40.289136"/>
     <use style="fill:#92c5de;stroke:#92c5de;" x="75.343565" xlink:href="#meb1132a937" y="39.004073"/>
     <use style="fill:#92c5de;stroke:#92c5de;" x="76.900341" xlink:href="#meb1132a937" y="37.718128"/>
     <use style="fill:#92c5de;stroke:#92c5de;" x="78.457117" xlink:href="#meb1132a937" y="36.4313"/>
     <use style="fill:#92c5de;stroke:#92c5de;" x="81.570669" xlink:href="#meb1132a937" y="42.436205"/>
     <use style="fill:#92c5de;stroke:#92c5de;" x="83.127445" xlink:href="#meb1132a937" y="41.15026"/>
     <use style="fill:#92c5de;stroke:#92c5de;" x="84.684221" xlink:href="#meb1132a937" y="39.865198"/>
     <use style="fill:#92c5de;stroke:#92c5de;" x="86.240997" xlink:href="#meb1132a937" y="38.579252"/>
    </g>
   </g>
   <g id="PathCollection_4">
    <g clip-path="url(#p89bde7c237)">
     <use style="fill:#92c5de;stroke:#92c5de;" x="53.548701" xlink:href="#meb1132a937" y="89.198333"/>
     <use style="fill:#92c5de;stroke:#92c5de;" x="55.105477" xlink:href="#meb1132a937" y="87.912387"/>
     <use style="fill:#92c5de;stroke:#92c5de;" x="56.662253" xlink:href="#meb1132a937" y="82.810117"/>
     <use style="fill:#92c5de;stroke:#92c5de;" x="58.219029" xlink:href="#meb1132a937" y="81.525055"/>
     <use style="fill:#92c5de;stroke:#92c5de;" x="59.775805" xlink:href="#meb1132a937" y="78.812735"/>
     <use style="fill:#92c5de;stroke:#92c5de;" x="61.332581" xlink:href="#meb1132a937" y="77.52679"/>
     <use style="fill:#92c5de;stroke:#92c5de;" x="62.889357" xlink:href="#meb1132a937" y="77.667219"/>
     <use style="fill:#92c5de;stroke:#92c5de;" x="64.446133" xlink:href="#meb1132a937" y="76.382157"/>
     <use style="fill:#92c5de;stroke:#92c5de;" x="66.002909" xlink:href="#meb1132a937" y="75.096212"/>
     <use style="fill:#92c5de;stroke:#92c5de;" x="67.559685" xlink:href="#meb1132a937" y="73.810266"/>
     <use style="fill:#92c5de;stroke:#92c5de;" x="69.116461" xlink:href="#meb1132a937" y="72.524321"/>
     <use style="fill:#92c5de;stroke:#92c5de;" x="70.673237" xlink:href="#meb1132a937" y="71.239259"/>
     <use style="fill:#92c5de;stroke:#92c5de;" x="72.230013" xlink:href="#meb1132a937" y="69.953314"/>
     <use style="fill:#92c5de;stroke:#92c5de;" x="73.786789" xlink:href="#meb1132a937" y="68.667369"/>
     <use style="fill:#92c5de;stroke:#92c5de;" x="75.343565" xlink:href="#meb1132a937" y="67.382307"/>
     <use style="fill:#92c5de;stroke:#92c5de;" x="76.900341" xlink:href="#meb1132a937" y="66.096361"/>
     <use style="fill:#92c5de;stroke:#92c5de;" x="78.457117" xlink:href="#meb1132a937" y="64.810416"/>
     <use style="fill:#92c5de;stroke:#92c5de;" x="80.013893" xlink:href="#meb1132a937" y="63.524471"/>
     <use style="fill:#92c5de;stroke:#92c5de;" x="81.570669" xlink:href="#meb1132a937" y="70.937203"/>
     <use style="fill:#92c5de;stroke:#92c5de;" x="83.127445" xlink:href="#meb1132a937" y="69.651258"/>
     <use style="fill:#92c5de;stroke:#92c5de;" x="84.684221" xlink:href="#meb1132a937" y="68.366196"/>
     <use style="fill:#92c5de;stroke:#92c5de;" x="86.240997" xlink:href="#meb1132a937" y="67.080251"/>
     <use style="fill:#92c5de;stroke:#92c5de;" x="87.797773" xlink:href="#meb1132a937" y="63.946642"/>
     <use style="fill:#92c5de;stroke:#92c5de;" x="89.354549" xlink:href="#meb1132a937" y="54.383308"/>
     <use style="fill:#92c5de;stroke:#92c5de;" x="90.911325" xlink:href="#meb1132a937" y="54.52462"/>
     <use style="fill:#92c5de;stroke:#92c5de;" x="92.468101" xlink:href="#meb1132a937" y="53.223661"/>
     <use style="fill:#92c5de;stroke:#92c5de;" x="94.024877" xlink:href="#meb1132a937" y="51.937715"/>
     <use style="fill:#92c5de;stroke:#92c5de;" x="95.581653" xlink:href="#meb1132a937" y="50.65177"/>
     <use style="fill:#92c5de;stroke:#92c5de;" x="97.138429" xlink:href="#meb1132a937" y="49.365825"/>
     <use style="fill:#92c5de;stroke:#92c5de;" x="98.695205" xlink:href="#meb1132a937" y="48.080763"/>
     <use style="fill:#92c5de;stroke:#92c5de;" x="100.251981" xlink:href="#meb1132a937" y="46.794817"/>
     <use style="fill:#92c5de;stroke:#92c5de;" x="101.808756" xlink:href="#meb1132a937" y="45.508872"/>
     <use style="fill:#92c5de;stroke:#92c5de;" x="103.365532" xlink:href="#meb1132a937" y="44.222927"/>
     <use style="fill:#92c5de;stroke:#92c5de;" x="104.922308" xlink:href="#meb1132a937" y="41.938961"/>
     <use style="fill:#92c5de;stroke:#92c5de;" x="106.479084" xlink:href="#meb1132a937" y="40.653899"/>
     <use style="fill:#92c5de;stroke:#92c5de;" x="108.03586" xlink:href="#meb1132a937" y="39.367954"/>
     <use style="fill:#92c5de;stroke:#92c5de;" x="109.592636" xlink:href="#meb1132a937" y="38.082008"/>
     <use style="fill:#92c5de;stroke:#92c5de;" x="111.149412" xlink:href="#meb1132a937" y="36.796063"/>
     <use style="fill:#92c5de;stroke:#92c5de;" x="112.706188" xlink:href="#meb1132a937" y="35.510118"/>
     <use style="fill:#92c5de;stroke:#92c5de;" x="114.262964" xlink:href="#meb1132a937" y="34.224173"/>
     <use style="fill:#92c5de;stroke:#92c5de;" x="115.81974" xlink:href="#meb1132a937" y="32.93911"/>
     <use style="fill:#92c5de;stroke:#92c5de;" x="117.376516" xlink:href="#meb1132a937" y="31.653165"/>
     <use style="fill:#92c5de;stroke:#92c5de;" x="118.933292" xlink:href="#meb1132a937" y="30.36722"/>
    </g>
   </g>
   <g id="PathCollection_5">
    <g clip-path="url(#p89bde7c237)">
     <use style="fill:#92c5de;stroke:#92c5de;" x="53.548701" xlink:href="#meb1132a937" y="107.352594"/>
     <use style="fill:#92c5de;stroke:#92c5de;" x="55.105477" xlink:href="#meb1132a937" y="106.066649"/>
     <use style="fill:#92c5de;stroke:#92c5de;" x="56.662253" xlink:href="#meb1132a937" y="104.303774"/>
     <use style="fill:#92c5de;stroke:#92c5de;" x="58.219029" xlink:href="#meb1132a937" y="103.018711"/>
     <use style="fill:#92c5de;stroke:#92c5de;" x="59.775805" xlink:href="#meb1132a937" y="102.921559"/>
     <use style="fill:#92c5de;stroke:#92c5de;" x="61.332581" xlink:href="#meb1132a937" y="101.635614"/>
     <use style="fill:#92c5de;stroke:#92c5de;" x="62.889357" xlink:href="#meb1132a937" y="99.160876"/>
     <use style="fill:#92c5de;stroke:#92c5de;" x="64.446133" xlink:href="#meb1132a937" y="97.87493"/>
     <use style="fill:#92c5de;stroke:#92c5de;" x="66.002909" xlink:href="#meb1132a937" y="96.589868"/>
     <use style="fill:#92c5de;stroke:#92c5de;" x="67.559685" xlink:href="#meb1132a937" y="95.303923"/>
     <use style="fill:#92c5de;stroke:#92c5de;" x="69.116461" xlink:href="#meb1132a937" y="94.017978"/>
     <use style="fill:#92c5de;stroke:#92c5de;" x="70.673237" xlink:href="#meb1132a937" y="92.732916"/>
     <use style="fill:#92c5de;stroke:#92c5de;" x="72.230013" xlink:href="#meb1132a937" y="91.44697"/>
     <use style="fill:#92c5de;stroke:#92c5de;" x="73.786789" xlink:href="#meb1132a937" y="90.161025"/>
     <use style="fill:#92c5de;stroke:#92c5de;" x="75.343565" xlink:href="#meb1132a937" y="88.875963"/>
     <use style="fill:#92c5de;stroke:#92c5de;" x="76.900341" xlink:href="#meb1132a937" y="87.590018"/>
     <use style="fill:#92c5de;stroke:#92c5de;" x="78.457117" xlink:href="#meb1132a937" y="86.303189"/>
     <use style="fill:#92c5de;stroke:#92c5de;" x="80.013893" xlink:href="#meb1132a937" y="85.018127"/>
     <use style="fill:#92c5de;stroke:#92c5de;" x="81.570669" xlink:href="#meb1132a937" y="83.578505"/>
     <use style="fill:#92c5de;stroke:#92c5de;" x="83.127445" xlink:href="#meb1132a937" y="82.293442"/>
     <use style="fill:#92c5de;stroke:#92c5de;" x="84.684221" xlink:href="#meb1132a937" y="81.007497"/>
     <use style="fill:#92c5de;stroke:#92c5de;" x="86.240997" xlink:href="#meb1132a937" y="79.721552"/>
     <use style="fill:#92c5de;stroke:#92c5de;" x="87.797773" xlink:href="#meb1132a937" y="78.133551"/>
     <use style="fill:#92c5de;stroke:#92c5de;" x="89.354549" xlink:href="#meb1132a937" y="78.492132"/>
     <use style="fill:#92c5de;stroke:#92c5de;" x="90.911325" xlink:href="#meb1132a937" y="76.018277"/>
     <use style="fill:#92c5de;stroke:#92c5de;" x="92.468101" xlink:href="#meb1132a937" y="74.686405"/>
     <use style="fill:#92c5de;stroke:#92c5de;" x="94.024877" xlink:href="#meb1132a937" y="73.40046"/>
     <use style="fill:#92c5de;stroke:#92c5de;" x="95.581653" xlink:href="#meb1132a937" y="72.114514"/>
     <use style="fill:#92c5de;stroke:#92c5de;" x="97.138429" xlink:href="#meb1132a937" y="70.828569"/>
     <use style="fill:#92c5de;stroke:#92c5de;" x="98.695205" xlink:href="#meb1132a937" y="69.542624"/>
     <use style="fill:#92c5de;stroke:#92c5de;" x="100.251981" xlink:href="#meb1132a937" y="68.257562"/>
     <use style="fill:#92c5de;stroke:#92c5de;" x="101.808756" xlink:href="#meb1132a937" y="66.971617"/>
     <use style="fill:#92c5de;stroke:#92c5de;" x="103.365532" xlink:href="#meb1132a937" y="65.685671"/>
     <use style="fill:#92c5de;stroke:#92c5de;" x="104.922308" xlink:href="#meb1132a937" y="65.39863"/>
     <use style="fill:#92c5de;stroke:#92c5de;" x="106.479084" xlink:href="#meb1132a937" y="64.112685"/>
     <use style="fill:#92c5de;stroke:#92c5de;" x="108.03586" xlink:href="#meb1132a937" y="62.826739"/>
     <use style="fill:#92c5de;stroke:#92c5de;" x="109.592636" xlink:href="#meb1132a937" y="61.541677"/>
     <use style="fill:#92c5de;stroke:#92c5de;" x="111.149412" xlink:href="#meb1132a937" y="60.255732"/>
     <use style="fill:#92c5de;stroke:#92c5de;" x="112.706188" xlink:href="#meb1132a937" y="58.969787"/>
     <use style="fill:#92c5de;stroke:#92c5de;" x="114.262964" xlink:href="#meb1132a937" y="57.683842"/>
     <use style="fill:#92c5de;stroke:#92c5de;" x="115.81974" xlink:href="#meb1132a937" y="56.379349"/>
     <use style="fill:#92c5de;stroke:#92c5de;" x="117.376516" xlink:href="#meb1132a937" y="55.093404"/>
     <use style="fill:#92c5de;stroke:#92c5de;" x="118.933292" xlink:href="#meb1132a937" y="53.807458"/>
     <use style="fill:#92c5de;stroke:#92c5de;" x="120.490068" xlink:href="#meb1132a937" y="52.521513"/>
     <use style="fill:#92c5de;stroke:#92c5de;" x="122.046844" xlink:href="#meb1132a937" y="51.236451"/>
     <use style="fill:#92c5de;stroke:#92c5de;" x="123.60362" xlink:href="#meb1132a937" y="49.950506"/>
     <use style="fill:#92c5de;stroke:#92c5de;" x="125.160396" xlink:href="#meb1132a937" y="48.664561"/>
     <use style="fill:#92c5de;stroke:#92c5de;" x="126.717172" xlink:href="#meb1132a937" y="47.379499"/>
     <use style="fill:#92c5de;stroke:#92c5de;" x="128.273948" xlink:href="#meb1132a937" y="46.09267"/>
     <use style="fill:#92c5de;stroke:#92c5de;" x="129.830724" xlink:href="#meb1132a937" y="44.806725"/>
     <use style="fill:#92c5de;stroke:#92c5de;" x="131.3875" xlink:href="#meb1132a937" y="43.521663"/>
     <use style="fill:#92c5de;stroke:#92c5de;" x="132.944276" xlink:href="#meb1132a937" y="42.235718"/>
     <use style="fill:#92c5de;stroke:#92c5de;" x="134.501052" xlink:href="#meb1132a937" y="40.949772"/>
     <use style="fill:#92c5de;stroke:#92c5de;" x="136.057828" xlink:href="#meb1132a937" y="39.663827"/>
     <use style="fill:#92c5de;stroke:#92c5de;" x="137.614604" xlink:href="#meb1132a937" y="38.378765"/>
     <use style="fill:#92c5de;stroke:#92c5de;" x="139.17138" xlink:href="#meb1132a937" y="37.09282"/>
     <use style="fill:#92c5de;stroke:#92c5de;" x="140.728156" xlink:href="#meb1132a937" y="35.806874"/>
     <use style="fill:#92c5de;stroke:#92c5de;" x="142.284932" xlink:href="#meb1132a937" y="34.520929"/>
     <use style="fill:#92c5de;stroke:#92c5de;" x="143.841708" xlink:href="#meb1132a937" y="33.235867"/>
     <use style="fill:#92c5de;stroke:#92c5de;" x="145.398484" xlink:href="#meb1132a937" y="31.949922"/>
     <use style="fill:#92c5de;stroke:#92c5de;" x="146.95526" xlink:href="#meb1132a937" y="30.663977"/>
    </g>
   </g>
   <g id="PathCollection_6">
    <defs>
     <path d="M 0 0.5 
C 0.132602 0.5 0.25979 0.447317 0.353553 0.353553 
C 0.447317 0.25979 0.5 0.132602 0.5 0 
C 0.5 -0.132602 0.447317 -0.25979 0.353553 -0.353553 
C 0.25979 -0.447317 0.132602 -0.5 0 -0.5 
C -0.132602 -0.5 -0.25979 -0.447317 -0.353553 -0.353553 
C -0.447317 -0.25979 -0.5 -0.132602 -0.5 0 
C -0.5 0.132602 -0.447317 0.25979 -0.353553 0.353553 
C -0.25979 0.447317 -0.132602 0.5 0 0.5 
z
" id="m7981842c3c" style="stroke:#f4a582;"/>
    </defs>
    <g clip-path="url(#p89bde7c237)">
     <use style="fill:#f4a582;stroke:#f4a582;" x="120.490068" xlink:href="#m7981842c3c" y="30.334541"/>
     <use style="fill:#f4a582;stroke:#f4a582;" x="122.046844" xlink:href="#m7981842c3c" y="31.620487"/>
     <use style="fill:#f4a582;stroke:#f4a582;" x="123.60362" xlink:href="#m7981842c3c" y="32.907315"/>
     <use style="fill:#f4a582;stroke:#f4a582;" x="125.160396" xlink:href="#m7981842c3c" y="34.192377"/>
     <use style="fill:#f4a582;stroke:#f4a582;" x="126.717172" xlink:href="#m7981842c3c" y="35.478322"/>
     <use style="fill:#f4a582;stroke:#f4a582;" x="128.273948" xlink:href="#m7981842c3c" y="36.763384"/>
     <use style="fill:#f4a582;stroke:#f4a582;" x="129.830724" xlink:href="#m7981842c3c" y="38.04933"/>
     <use style="fill:#f4a582;stroke:#f4a582;" x="131.3875" xlink:href="#m7981842c3c" y="39.335275"/>
     <use style="fill:#f4a582;stroke:#f4a582;" x="132.944276" xlink:href="#m7981842c3c" y="40.62122"/>
     <use style="fill:#f4a582;stroke:#f4a582;" x="134.501052" xlink:href="#m7981842c3c" y="41.906282"/>
     <use style="fill:#f4a582;stroke:#f4a582;" x="136.057828" xlink:href="#m7981842c3c" y="43.192228"/>
     <use style="fill:#f4a582;stroke:#f4a582;" x="137.614604" xlink:href="#m7981842c3c" y="44.478173"/>
     <use style="fill:#f4a582;stroke:#f4a582;" x="139.17138" xlink:href="#m7981842c3c" y="45.764118"/>
     <use style="fill:#f4a582;stroke:#f4a582;" x="140.728156" xlink:href="#m7981842c3c" y="47.04918"/>
     <use style="fill:#f4a582;stroke:#f4a582;" x="142.284932" xlink:href="#m7981842c3c" y="48.335125"/>
     <use style="fill:#f4a582;stroke:#f4a582;" x="143.841708" xlink:href="#m7981842c3c" y="49.621071"/>
     <use style="fill:#f4a582;stroke:#f4a582;" x="145.398484" xlink:href="#m7981842c3c" y="50.907016"/>
     <use style="fill:#f4a582;stroke:#f4a582;" x="146.95526" xlink:href="#m7981842c3c" y="52.192961"/>
     <use style="fill:#f4a582;stroke:#f4a582;" x="148.512036" xlink:href="#m7981842c3c" y="53.478023"/>
     <use style="fill:#f4a582;stroke:#f4a582;" x="150.068812" xlink:href="#m7981842c3c" y="54.763969"/>
     <use style="fill:#f4a582;stroke:#f4a582;" x="151.625588" xlink:href="#m7981842c3c" y="56.049914"/>
     <use style="fill:#f4a582;stroke:#f4a582;" x="153.182364" xlink:href="#m7981842c3c" y="57.335859"/>
     <use style="fill:#f4a582;stroke:#f4a582;" x="154.73914" xlink:href="#m7981842c3c" y="58.621804"/>
     <use style="fill:#f4a582;stroke:#f4a582;" x="156.295916" xlink:href="#m7981842c3c" y="59.906866"/>
     <use style="fill:#f4a582;stroke:#f4a582;" x="157.852692" xlink:href="#m7981842c3c" y="61.192812"/>
     <use style="fill:#f4a582;stroke:#f4a582;" x="159.409468" xlink:href="#m7981842c3c" y="62.478757"/>
     <use style="fill:#f4a582;stroke:#f4a582;" x="160.966244" xlink:href="#m7981842c3c" y="63.764702"/>
     <use style="fill:#f4a582;stroke:#f4a582;" x="162.523019" xlink:href="#m7981842c3c" y="65.050648"/>
     <use style="fill:#f4a582;stroke:#f4a582;" x="164.079795" xlink:href="#m7981842c3c" y="66.33571"/>
     <use style="fill:#f4a582;stroke:#f4a582;" x="165.636571" xlink:href="#m7981842c3c" y="67.621655"/>
     <use style="fill:#f4a582;stroke:#f4a582;" x="167.193347" xlink:href="#m7981842c3c" y="68.9076"/>
     <use style="fill:#f4a582;stroke:#f4a582;" x="168.750123" xlink:href="#m7981842c3c" y="70.192662"/>
     <use style="fill:#f4a582;stroke:#f4a582;" x="170.306899" xlink:href="#m7981842c3c" y="71.478607"/>
     <use style="fill:#f4a582;stroke:#f4a582;" x="171.863675" xlink:href="#m7981842c3c" y="72.745122"/>
     <use style="fill:#f4a582;stroke:#f4a582;" x="173.420451" xlink:href="#m7981842c3c" y="74.031068"/>
     <use style="fill:#f4a582;stroke:#f4a582;" x="174.977227" xlink:href="#m7981842c3c" y="75.317013"/>
     <use style="fill:#f4a582;stroke:#f4a582;" x="176.534003" xlink:href="#m7981842c3c" y="76.602075"/>
     <use style="fill:#f4a582;stroke:#f4a582;" x="178.090779" xlink:href="#m7981842c3c" y="77.88802"/>
     <use style="fill:#f4a582;stroke:#f4a582;" x="179.647555" xlink:href="#m7981842c3c" y="79.173965"/>
     <use style="fill:#f4a582;stroke:#f4a582;" x="181.204331" xlink:href="#m7981842c3c" y="80.459911"/>
     <use style="fill:#f4a582;stroke:#f4a582;" x="182.761107" xlink:href="#m7981842c3c" y="81.744973"/>
     <use style="fill:#f4a582;stroke:#f4a582;" x="184.317883" xlink:href="#m7981842c3c" y="83.030918"/>
     <use style="fill:#f4a582;stroke:#f4a582;" x="185.874659" xlink:href="#m7981842c3c" y="84.316863"/>
     <use style="fill:#f4a582;stroke:#f4a582;" x="187.431435" xlink:href="#m7981842c3c" y="85.601925"/>
     <use style="fill:#f4a582;stroke:#f4a582;" x="188.988211" xlink:href="#m7981842c3c" y="86.888754"/>
     <use style="fill:#f4a582;stroke:#f4a582;" x="190.544987" xlink:href="#m7981842c3c" y="88.173816"/>
     <use style="fill:#f4a582;stroke:#f4a582;" x="192.101763" xlink:href="#m7981842c3c" y="89.459761"/>
     <use style="fill:#f4a582;stroke:#f4a582;" x="193.658539" xlink:href="#m7981842c3c" y="90.744823"/>
     <use style="fill:#f4a582;stroke:#f4a582;" x="195.215315" xlink:href="#m7981842c3c" y="92.031652"/>
     <use style="fill:#f4a582;stroke:#f4a582;" x="196.772091" xlink:href="#m7981842c3c" y="93.317597"/>
     <use style="fill:#f4a582;stroke:#f4a582;" x="198.328867" xlink:href="#m7981842c3c" y="94.602659"/>
     <use style="fill:#f4a582;stroke:#f4a582;" x="199.885643" xlink:href="#m7981842c3c" y="95.888604"/>
     <use style="fill:#f4a582;stroke:#f4a582;" x="201.442419" xlink:href="#m7981842c3c" y="97.173666"/>
     <use style="fill:#f4a582;stroke:#f4a582;" x="202.999195" xlink:href="#m7981842c3c" y="98.459612"/>
     <use style="fill:#f4a582;stroke:#f4a582;" x="204.555971" xlink:href="#m7981842c3c" y="99.745557"/>
     <use style="fill:#f4a582;stroke:#f4a582;" x="206.112747" xlink:href="#m7981842c3c" y="101.031502"/>
     <use style="fill:#f4a582;stroke:#f4a582;" x="207.669523" xlink:href="#m7981842c3c" y="102.317447"/>
     <use style="fill:#f4a582;stroke:#f4a582;" x="209.226299" xlink:href="#m7981842c3c" y="103.602509"/>
    </g>
   </g>
   <g id="PathCollection_7">
    <g clip-path="url(#p89bde7c237)">
     <use style="fill:#333333;stroke:#333333;" x="89.354549" xlink:href="#m996d65b0a2" y="34.434375"/>
    </g>
   </g>
   <g id="PathCollection_8">
    <g clip-path="url(#p89bde7c237)">
     <use style="fill:#4393c3;stroke:#4393c3;" x="56.662253" xlink:href="#mf75cf31b6f" y="57.043519"/>
     <use style="fill:#4393c3;stroke:#4393c3;" x="58.219029" xlink:href="#mf75cf31b6f" y="54.472511"/>
     <use style="fill:#4393c3;stroke:#4393c3;" x="59.775805" xlink:href="#mf75cf31b6f" y="52.61425"/>
    </g>
   </g>
   <g id="line2d_11">
    <path clip-path="url(#p89bde7c237)" d="M 53.548701 82.10532 
L 55.105477 82.10532 
L 56.662253 82.10532 
L 58.219029 82.10532 
L 59.775805 82.10532 
L 61.332581 82.10532 
L 62.889357 82.10532 
L 64.446133 82.10532 
L 66.002909 82.10532 
L 67.559685 82.10532 
L 69.116461 82.10532 
L 70.673237 82.10532 
L 72.230013 82.10532 
L 73.786789 82.10532 
L 75.343565 82.10532 
L 76.900341 82.10532 
L 78.457117 82.10532 
L 80.013893 82.10532 
L 81.570669 82.10532 
L 83.127445 82.10532 
L 84.684221 82.10532 
L 86.240997 82.10532 
L 87.797773 82.10532 
L 89.354549 82.10532 
L 90.911325 82.10532 
L 92.468101 82.10532 
L 94.024877 82.10532 
L 95.581653 82.10532 
L 97.138429 82.10532 
L 98.695205 82.10532 
L 100.251981 82.10532 
L 101.808756 82.10532 
L 103.365532 82.10532 
L 104.922308 82.10532 
L 106.479084 82.10532 
L 108.03586 82.10532 
L 109.592636 82.10532 
L 111.149412 82.10532 
L 112.706188 82.10532 
L 114.262964 82.10532 
L 115.81974 82.10532 
L 117.376516 82.10532 
L 118.933292 82.10532 
L 120.490068 82.10532 
L 122.046844 82.10532 
L 123.60362 82.10532 
L 125.160396 82.10532 
L 126.717172 82.10532 
L 128.273948 82.10532 
L 129.830724 82.10532 
L 131.3875 82.10532 
L 132.944276 82.10532 
L 134.501052 82.10532 
L 136.057828 82.10532 
L 137.614604 82.10532 
L 139.17138 82.10532 
L 140.728156 82.10532 
L 142.284932 82.10532 
L 143.841708 82.10532 
L 145.398484 82.10532 
L 146.95526 82.10532 
L 148.512036 82.10532 
L 150.068812 82.10532 
L 151.625588 82.10532 
L 153.182364 82.10532 
L 154.73914 82.10532 
L 156.295916 82.10532 
L 157.852692 82.10532 
L 159.409468 82.10532 
L 160.966244 82.10532 
L 162.523019 82.10532 
L 164.079795 82.10532 
L 165.636571 82.10532 
L 167.193347 82.10532 
L 168.750123 82.10532 
L 170.306899 82.10532 
L 171.863675 82.10532 
L 173.420451 82.10532 
L 174.977227 82.10532 
L 176.534003 82.10532 
L 178.090779 82.10532 
L 179.647555 82.10532 
L 181.204331 82.10532 
L 182.761107 82.10532 
L 184.317883 82.10532 
L 185.874659 82.10532 
L 187.431435 82.10532 
L 188.988211 82.10532 
L 190.544987 82.10532 
L 192.101763 82.10532 
L 193.658539 82.10532 
L 195.215315 82.10532 
L 196.772091 82.10532 
L 198.328867 82.10532 
L 199.885643 82.10532 
L 201.442419 82.10532 
L 202.999195 82.10532 
L 204.555971 82.10532 
L 206.112747 82.10532 
L 207.669523 82.10532 
L 209.226299 82.10532 
" style="fill:none;stroke:#333333;stroke-linecap:round;stroke-width:1.5;"/>
   </g>
   <g id="line2d_12">
    <path clip-path="url(#p89bde7c237)" d="M 53.548701 115.756282 
L 55.105477 113.184391 
L 56.662253 102.981617 
L 58.219029 100.41061 
L 59.775805 94.98597 
L 61.332581 92.414079 
L 62.889357 92.695821 
L 64.446133 90.123931 
L 66.002909 87.552923 
L 67.559685 84.981033 
L 69.116461 82.410025 
L 70.673237 79.839018 
L 72.230013 77.267128 
L 73.786789 74.695237 
L 75.343565 72.12423 
L 76.900341 69.552339 
L 78.457117 66.980449 
L 80.013893 64.409441 
L 81.570669 70.414346 
L 83.127445 67.842456 
L 84.684221 65.271449 
L 86.240997 62.699558 
L 87.797773 54.748954 
L 89.354549 46.127998 
L 90.911325 46.408857 
L 92.468101 43.806938 
L 94.024877 41.23593 
L 95.581653 38.66404 
L 97.138429 36.093033 
L 98.695205 33.521142 
L 100.251981 30.950135 
" style="fill:none;stroke:#4393c3;stroke-linecap:round;stroke-width:1.5;"/>
   </g>
   <g id="line2d_13">
    <path clip-path="url(#p89bde7c237)" d="M 53.548701 64.635542 
L 55.105477 63.349596 
M 62.889357 49.288986 
L 64.446133 48.003041 
L 66.002909 46.717979 
L 67.559685 45.432033 
L 69.116461 44.146088 
L 70.673237 42.861026 
L 72.230013 41.575081 
L 73.786789 40.289136 
L 75.343565 39.004073 
L 76.900341 37.718128 
L 78.457117 36.4313 
M 81.570669 42.436205 
L 83.127445 41.15026 
L 84.684221 39.865198 
L 86.240997 38.579252 
" style="fill:none;stroke:#92c5de;stroke-linecap:round;stroke-width:1.5;"/>
   </g>
   <g id="line2d_14">
    <path clip-path="url(#p89bde7c237)" d="M 53.548701 89.198333 
L 55.105477 87.912387 
L 56.662253 82.810117 
L 58.219029 81.525055 
L 59.775805 78.812735 
L 61.332581 77.52679 
L 62.889357 77.667219 
L 64.446133 76.382157 
L 66.002909 75.096212 
L 67.559685 73.810266 
L 69.116461 72.524321 
L 70.673237 71.239259 
L 72.230013 69.953314 
L 73.786789 68.667369 
L 75.343565 67.382307 
L 76.900341 66.096361 
L 78.457117 64.810416 
L 80.013893 63.524471 
L 81.570669 70.937203 
L 83.127445 69.651258 
L 84.684221 68.366196 
L 86.240997 67.080251 
L 87.797773 63.946642 
L 89.354549 54.383308 
L 90.911325 54.52462 
L 92.468101 53.223661 
L 94.024877 51.937715 
L 95.581653 50.65177 
L 97.138429 49.365825 
L 98.695205 48.080763 
L 100.251981 46.794817 
L 101.808756 45.508872 
L 103.365532 44.222927 
L 104.922308 41.938961 
L 106.479084 40.653899 
L 108.03586 39.367954 
L 109.592636 38.082008 
L 111.149412 36.796063 
L 112.706188 35.510118 
L 114.262964 34.224173 
L 115.81974 32.93911 
L 117.376516 31.653165 
L 118.933292 30.36722 
" style="fill:none;stroke:#92c5de;stroke-linecap:round;stroke-width:1.5;"/>
   </g>
   <g id="line2d_15">
    <path clip-path="url(#p89bde7c237)" d="M 53.548701 107.352594 
L 55.105477 106.066649 
L 56.662253 104.303774 
L 58.219029 103.018711 
L 59.775805 102.921559 
L 61.332581 101.635614 
L 62.889357 99.160876 
L 64.446133 97.87493 
L 66.002909 96.589868 
L 67.559685 95.303923 
L 69.116461 94.017978 
L 70.673237 92.732916 
L 72.230013 91.44697 
L 73.786789 90.161025 
L 75.343565 88.875963 
L 76.900341 87.590018 
L 78.457117 86.303189 
L 80.013893 85.018127 
L 81.570669 83.578505 
L 83.127445 82.293442 
L 84.684221 81.007497 
L 86.240997 79.721552 
L 87.797773 78.133551 
L 89.354549 78.492132 
L 90.911325 76.018277 
L 92.468101 74.686405 
L 94.024877 73.40046 
L 95.581653 72.114514 
L 97.138429 70.828569 
L 98.695205 69.542624 
L 100.251981 68.257562 
L 101.808756 66.971617 
L 103.365532 65.685671 
L 104.922308 65.39863 
L 106.479084 64.112685 
L 108.03586 62.826739 
L 109.592636 61.541677 
L 111.149412 60.255732 
L 112.706188 58.969787 
L 114.262964 57.683842 
L 115.81974 56.379349 
L 117.376516 55.093404 
L 118.933292 53.807458 
L 120.490068 52.521513 
L 122.046844 51.236451 
L 123.60362 49.950506 
L 125.160396 48.664561 
L 126.717172 47.379499 
L 128.273948 46.09267 
L 129.830724 44.806725 
L 131.3875 43.521663 
L 132.944276 42.235718 
L 134.501052 40.949772 
L 136.057828 39.663827 
L 137.614604 38.378765 
L 139.17138 37.09282 
L 140.728156 35.806874 
L 142.284932 34.520929 
L 143.841708 33.235867 
L 145.398484 31.949922 
L 146.95526 30.663977 
" style="fill:none;stroke:#92c5de;stroke-linecap:round;stroke-width:1.5;"/>
   </g>
   <g id="line2d_16">
    <path clip-path="url(#p89bde7c237)" d="M 120.490068 30.334541 
L 122.046844 31.620487 
L 123.60362 32.907315 
L 125.160396 34.192377 
L 126.717172 35.478322 
L 128.273948 36.763384 
L 129.830724 38.04933 
L 131.3875 39.335275 
L 132.944276 40.62122 
L 134.501052 41.906282 
L 136.057828 43.192228 
L 137.614604 44.478173 
L 139.17138 45.764118 
L 140.728156 47.04918 
L 142.284932 48.335125 
L 143.841708 49.621071 
L 145.398484 50.907016 
L 146.95526 52.192961 
L 148.512036 53.478023 
L 150.068812 54.763969 
L 151.625588 56.049914 
L 153.182364 57.335859 
L 154.73914 58.621804 
L 156.295916 59.906866 
L 157.852692 61.192812 
L 159.409468 62.478757 
L 160.966244 63.764702 
L 162.523019 65.050648 
L 164.079795 66.33571 
L 165.636571 67.621655 
L 167.193347 68.9076 
L 168.750123 70.192662 
L 170.306899 71.478607 
L 171.863675 72.745122 
L 173.420451 74.031068 
L 174.977227 75.317013 
L 176.534003 76.602075 
L 178.090779 77.88802 
L 179.647555 79.173965 
L 181.204331 80.459911 
L 182.761107 81.744973 
L 184.317883 83.030918 
L 185.874659 84.316863 
L 187.431435 85.601925 
L 188.988211 86.888754 
L 190.544987 88.173816 
L 192.101763 89.459761 
L 193.658539 90.744823 
L 195.215315 92.031652 
L 196.772091 93.317597 
L 198.328867 94.602659 
L 199.885643 95.888604 
L 201.442419 97.173666 
L 202.999195 98.459612 
L 204.555971 99.745557 
L 206.112747 101.031502 
L 207.669523 102.317447 
L 209.226299 103.602509 
" style="fill:none;stroke:#f4a582;stroke-linecap:round;stroke-width:1.5;"/>
   </g>
   <g id="line2d_17">
    <path clip-path="url(#p89bde7c237)" d="M 89.354549 34.434375 
" style="fill:none;stroke:#333333;stroke-linecap:round;stroke-width:1.5;"/>
   </g>
   <g id="line2d_18">
    <path clip-path="url(#p89bde7c237)" d="M 56.662253 57.043519 
L 58.219029 54.472511 
L 59.775805 52.61425 
" style="fill:none;stroke:#4393c3;stroke-linecap:round;stroke-width:1.5;"/>
   </g>
   <g id="patch_3">
    <path d="M 45.425 120.04 
L 45.425 25.8 
" style="fill:none;stroke:#262626;stroke-linecap:square;stroke-linejoin:miter;stroke-width:0.8;"/>
   </g>
   <g id="patch_4">
    <path d="M 45.425 120.04 
L 217.35 120.04 
" style="fill:none;stroke:#262626;stroke-linecap:square;stroke-linejoin:miter;stroke-width:0.8;"/>
   </g>
   <g id="text_13">
    <!-- SM06 -->
    <defs>
     <path d="M 4.5 23 
L 13.421875 23.78125 
Q 14.0625 18.40625 16.375 14.96875 
Q 18.703125 11.53125 23.578125 9.40625 
Q 28.46875 7.28125 34.578125 7.28125 
Q 39.984375 7.28125 44.140625 8.890625 
Q 48.296875 10.5 50.3125 13.296875 
Q 52.34375 16.109375 52.34375 19.4375 
Q 52.34375 22.796875 50.390625 25.3125 
Q 48.4375 27.828125 43.953125 29.546875 
Q 41.0625 30.671875 31.203125 33.03125 
Q 21.34375 35.40625 17.390625 37.5 
Q 12.25 40.1875 9.734375 44.15625 
Q 7.234375 48.140625 7.234375 53.078125 
Q 7.234375 58.5 10.296875 63.203125 
Q 13.375 67.921875 19.28125 70.359375 
Q 25.203125 72.796875 32.421875 72.796875 
Q 40.375 72.796875 46.453125 70.234375 
Q 52.546875 67.671875 55.8125 62.6875 
Q 59.078125 57.71875 59.328125 51.421875 
L 50.25 50.734375 
Q 49.515625 57.515625 45.28125 60.984375 
Q 41.0625 64.453125 32.8125 64.453125 
Q 24.21875 64.453125 20.28125 61.296875 
Q 16.359375 58.15625 16.359375 53.71875 
Q 16.359375 49.859375 19.140625 47.359375 
Q 21.875 44.875 33.421875 42.265625 
Q 44.96875 39.65625 49.265625 37.703125 
Q 55.515625 34.8125 58.484375 30.390625 
Q 61.46875 25.984375 61.46875 20.21875 
Q 61.46875 14.5 58.203125 9.4375 
Q 54.9375 4.390625 48.796875 1.578125 
Q 42.671875 -1.21875 35.015625 -1.21875 
Q 25.296875 -1.21875 18.71875 1.609375 
Q 12.15625 4.4375 8.421875 10.125 
Q 4.6875 15.828125 4.5 23 
z
" id="ArialMT-53"/>
     <path d="M 7.421875 0 
L 7.421875 71.578125 
L 21.6875 71.578125 
L 38.625 20.90625 
Q 40.96875 13.8125 42.046875 10.296875 
Q 43.265625 14.203125 45.84375 21.78125 
L 62.984375 71.578125 
L 75.734375 71.578125 
L 75.734375 0 
L 66.609375 0 
L 66.609375 59.90625 
L 45.796875 0 
L 37.25 0 
L 16.546875 60.9375 
L 16.546875 0 
z
" id="ArialMT-4d"/>
    </defs>
    <g style="fill:#262626;" transform="translate(115.714375 19.8)scale(0.12 -0.12)">
     <use xlink:href="#ArialMT-53"/>
     <use x="66.699219" xlink:href="#ArialMT-4d"/>
     <use x="150" xlink:href="#ArialMT-30"/>
     <use x="205.615234" xlink:href="#ArialMT-36"/>
    </g>
   </g>
  </g>
 </g>
 <defs>
  <clipPath id="p89bde7c237">
   <rect height="94.24" width="171.925" x="45.425" y="25.8"/>
  </clipPath>
 </defs>
</svg>
