<?xml version="1.0" encoding="utf-8" standalone="no"?>
<!DOCTYPE svg PUBLIC "-//W3C//DTD SVG 1.1//EN"
  "http://www.w3.org/Graphics/SVG/1.1/DTD/svg11.dtd">
<!-- Created with matplotlib (http://matplotlib.org/) -->
<svg height="159.84pt" version="1.1" viewBox="0 0 230.4 159.84" width="230.4pt" xmlns="http://www.w3.org/2000/svg" xmlns:xlink="http://www.w3.org/1999/xlink">
 <defs>
  <style type="text/css">
*{stroke-linecap:butt;stroke-linejoin:round;}
  </style>
 </defs>
 <g id="figure_1">
  <g id="patch_1">
   <path d="M 0 159.84 
L 230.4 159.84 
L 230.4 0 
L 0 0 
z
" style="fill:#ffffff;"/>
  </g>
  <g id="axes_1">
   <g id="patch_2">
    <path d="M 51.05 120.04 
L 217.35 120.04 
L 217.35 25.8 
L 51.05 25.8 
z
" style="fill:#ffffff;"/>
   </g>
   <g id="matplotlib.axis_1">
    <g id="xtick_1">
     <g id="line2d_1">
      <defs>
       <path d="M 0 0 
L 0 3.5 
" id="m457f650bbe" style="stroke:#262626;stroke-width:0.8;"/>
      </defs>
      <g>
       <use style="fill:#262626;stroke:#262626;stroke-width:0.8;" x="58.907911" xlink:href="#m457f650bbe" y="120.04"/>
      </g>
     </g>
     <g id="text_1">
      <!-- 2 -->
      <defs>
       <path d="M 50.34375 8.453125 
L 50.34375 0 
L 3.03125 0 
Q 2.9375 3.171875 4.046875 6.109375 
Q 5.859375 10.9375 9.828125 15.625 
Q 13.8125 20.3125 21.34375 26.46875 
Q 33.015625 36.03125 37.109375 41.625 
Q 41.21875 47.21875 41.21875 52.203125 
Q 41.21875 57.421875 37.46875 61 
Q 33.734375 64.59375 27.734375 64.59375 
Q 21.390625 64.59375 17.578125 60.78125 
Q 13.765625 56.984375 13.71875 50.25 
L 4.6875 51.171875 
Q 5.609375 61.28125 11.65625 66.578125 
Q 17.71875 71.875 27.9375 71.875 
Q 38.234375 71.875 44.234375 66.15625 
Q 50.25 60.453125 50.25 52 
Q 50.25 47.703125 48.484375 43.546875 
Q 46.734375 39.40625 42.65625 34.8125 
Q 38.578125 30.21875 29.109375 22.21875 
Q 21.1875 15.578125 18.9375 13.203125 
Q 16.703125 10.84375 15.234375 8.453125 
z
" id="ArialMT-32"/>
      </defs>
      <g style="fill:#262626;" transform="translate(56.127442 134.197812)scale(0.1 -0.1)">
       <use xlink:href="#ArialMT-32"/>
      </g>
     </g>
    </g>
    <g id="xtick_2">
     <g id="line2d_2">
      <g>
       <use style="fill:#262626;stroke:#262626;stroke-width:0.8;" x="89.024746" xlink:href="#m457f650bbe" y="120.04"/>
      </g>
     </g>
     <g id="text_2">
      <!-- 4 -->
      <defs>
       <path d="M 32.328125 0 
L 32.328125 17.140625 
L 1.265625 17.140625 
L 1.265625 25.203125 
L 33.9375 71.578125 
L 41.109375 71.578125 
L 41.109375 25.203125 
L 50.78125 25.203125 
L 50.78125 17.140625 
L 41.109375 17.140625 
L 41.109375 0 
z
M 32.328125 25.203125 
L 32.328125 57.46875 
L 9.90625 25.203125 
z
" id="ArialMT-34"/>
      </defs>
      <g style="fill:#262626;" transform="translate(86.244278 134.197812)scale(0.1 -0.1)">
       <use xlink:href="#ArialMT-34"/>
      </g>
     </g>
    </g>
    <g id="xtick_3">
     <g id="line2d_3">
      <g>
       <use style="fill:#262626;stroke:#262626;stroke-width:0.8;" x="119.141582" xlink:href="#m457f650bbe" y="120.04"/>
      </g>
     </g>
     <g id="text_3">
      <!-- 6 -->
      <defs>
       <path d="M 49.75 54.046875 
L 41.015625 53.375 
Q 39.84375 58.546875 37.703125 60.890625 
Q 34.125 64.65625 28.90625 64.65625 
Q 24.703125 64.65625 21.53125 62.3125 
Q 17.390625 59.28125 14.984375 53.46875 
Q 12.59375 47.65625 12.5 36.921875 
Q 15.671875 41.75 20.265625 44.09375 
Q 24.859375 46.4375 29.890625 46.4375 
Q 38.671875 46.4375 44.84375 39.96875 
Q 51.03125 33.5 51.03125 23.25 
Q 51.03125 16.5 48.125 10.71875 
Q 45.21875 4.9375 40.140625 1.859375 
Q 35.0625 -1.21875 28.609375 -1.21875 
Q 17.625 -1.21875 10.6875 6.859375 
Q 3.765625 14.9375 3.765625 33.5 
Q 3.765625 54.25 11.421875 63.671875 
Q 18.109375 71.875 29.4375 71.875 
Q 37.890625 71.875 43.28125 67.140625 
Q 48.6875 62.40625 49.75 54.046875 
z
M 13.875 23.1875 
Q 13.875 18.65625 15.796875 14.5 
Q 17.71875 10.359375 21.1875 8.171875 
Q 24.65625 6 28.46875 6 
Q 34.03125 6 38.03125 10.484375 
Q 42.046875 14.984375 42.046875 22.703125 
Q 42.046875 30.125 38.078125 34.390625 
Q 34.125 38.671875 28.125 38.671875 
Q 22.171875 38.671875 18.015625 34.390625 
Q 13.875 30.125 13.875 23.1875 
z
" id="ArialMT-36"/>
      </defs>
      <g style="fill:#262626;" transform="translate(116.361113 134.197812)scale(0.1 -0.1)">
       <use xlink:href="#ArialMT-36"/>
      </g>
     </g>
    </g>
    <g id="xtick_4">
     <g id="line2d_4">
      <g>
       <use style="fill:#262626;stroke:#262626;stroke-width:0.8;" x="149.258417" xlink:href="#m457f650bbe" y="120.04"/>
      </g>
     </g>
     <g id="text_4">
      <!-- 8 -->
      <defs>
       <path d="M 17.671875 38.8125 
Q 12.203125 40.828125 9.5625 44.53125 
Q 6.9375 48.25 6.9375 53.421875 
Q 6.9375 61.234375 12.546875 66.546875 
Q 18.171875 71.875 27.484375 71.875 
Q 36.859375 71.875 42.578125 66.421875 
Q 48.296875 60.984375 48.296875 53.171875 
Q 48.296875 48.1875 45.671875 44.5 
Q 43.0625 40.828125 37.75 38.8125 
Q 44.34375 36.671875 47.78125 31.875 
Q 51.21875 27.09375 51.21875 20.453125 
Q 51.21875 11.28125 44.71875 5.03125 
Q 38.234375 -1.21875 27.640625 -1.21875 
Q 17.046875 -1.21875 10.546875 5.046875 
Q 4.046875 11.328125 4.046875 20.703125 
Q 4.046875 27.6875 7.59375 32.390625 
Q 11.140625 37.109375 17.671875 38.8125 
z
M 15.921875 53.71875 
Q 15.921875 48.640625 19.1875 45.40625 
Q 22.46875 42.1875 27.6875 42.1875 
Q 32.765625 42.1875 36.015625 45.375 
Q 39.265625 48.578125 39.265625 53.21875 
Q 39.265625 58.0625 35.90625 61.359375 
Q 32.5625 64.65625 27.59375 64.65625 
Q 22.5625 64.65625 19.234375 61.421875 
Q 15.921875 58.203125 15.921875 53.71875 
z
M 13.09375 20.65625 
Q 13.09375 16.890625 14.875 13.375 
Q 16.65625 9.859375 20.171875 7.921875 
Q 23.6875 6 27.734375 6 
Q 34.03125 6 38.125 10.046875 
Q 42.234375 14.109375 42.234375 20.359375 
Q 42.234375 26.703125 38.015625 30.859375 
Q 33.796875 35.015625 27.4375 35.015625 
Q 21.234375 35.015625 17.15625 30.90625 
Q 13.09375 26.8125 13.09375 20.65625 
z
" id="ArialMT-38"/>
      </defs>
      <g style="fill:#262626;" transform="translate(146.477948 134.197812)scale(0.1 -0.1)">
       <use xlink:href="#ArialMT-38"/>
      </g>
     </g>
    </g>
    <g id="xtick_5">
     <g id="line2d_5">
      <g>
       <use style="fill:#262626;stroke:#262626;stroke-width:0.8;" x="179.375253" xlink:href="#m457f650bbe" y="120.04"/>
      </g>
     </g>
     <g id="text_5">
      <!-- 10 -->
      <defs>
       <path d="M 37.25 0 
L 28.46875 0 
L 28.46875 56 
Q 25.296875 52.984375 20.140625 49.953125 
Q 14.984375 46.921875 10.890625 45.40625 
L 10.890625 53.90625 
Q 18.265625 57.375 23.78125 62.296875 
Q 29.296875 67.234375 31.59375 71.875 
L 37.25 71.875 
z
" id="ArialMT-31"/>
       <path d="M 4.15625 35.296875 
Q 4.15625 48 6.765625 55.734375 
Q 9.375 63.484375 14.515625 67.671875 
Q 19.671875 71.875 27.484375 71.875 
Q 33.25 71.875 37.59375 69.546875 
Q 41.9375 67.234375 44.765625 62.859375 
Q 47.609375 58.5 49.21875 52.21875 
Q 50.828125 45.953125 50.828125 35.296875 
Q 50.828125 22.703125 48.234375 14.96875 
Q 45.65625 7.234375 40.5 3 
Q 35.359375 -1.21875 27.484375 -1.21875 
Q 17.140625 -1.21875 11.234375 6.203125 
Q 4.15625 15.140625 4.15625 35.296875 
z
M 13.1875 35.296875 
Q 13.1875 17.671875 17.3125 11.828125 
Q 21.4375 6 27.484375 6 
Q 33.546875 6 37.671875 11.859375 
Q 41.796875 17.71875 41.796875 35.296875 
Q 41.796875 52.984375 37.671875 58.78125 
Q 33.546875 64.59375 27.390625 64.59375 
Q 21.34375 64.59375 17.71875 59.46875 
Q 13.1875 52.9375 13.1875 35.296875 
z
" id="ArialMT-30"/>
      </defs>
      <g style="fill:#262626;" transform="translate(173.814315 134.197812)scale(0.1 -0.1)">
       <use xlink:href="#ArialMT-31"/>
       <use x="55.615234" xlink:href="#ArialMT-30"/>
      </g>
     </g>
    </g>
    <g id="xtick_6">
     <g id="line2d_6">
      <g>
       <use style="fill:#262626;stroke:#262626;stroke-width:0.8;" x="209.492088" xlink:href="#m457f650bbe" y="120.04"/>
      </g>
     </g>
     <g id="text_6">
      <!-- 12 -->
      <g style="fill:#262626;" transform="translate(203.93115 134.197812)scale(0.1 -0.1)">
       <use xlink:href="#ArialMT-31"/>
       <use x="55.615234" xlink:href="#ArialMT-32"/>
      </g>
     </g>
    </g>
    <g id="text_7">
     <!-- pH -->
     <defs>
      <path d="M 6.59375 -19.875 
L 6.59375 51.859375 
L 14.59375 51.859375 
L 14.59375 45.125 
Q 17.4375 49.078125 21 51.046875 
Q 24.5625 53.03125 29.640625 53.03125 
Q 36.28125 53.03125 41.359375 49.609375 
Q 46.4375 46.1875 49.015625 39.953125 
Q 51.609375 33.734375 51.609375 26.3125 
Q 51.609375 18.359375 48.75 11.984375 
Q 45.90625 5.609375 40.453125 2.21875 
Q 35.015625 -1.171875 29 -1.171875 
Q 24.609375 -1.171875 21.109375 0.6875 
Q 17.625 2.546875 15.375 5.375 
L 15.375 -19.875 
z
M 14.546875 25.640625 
Q 14.546875 15.625 18.59375 10.84375 
Q 22.65625 6.0625 28.421875 6.0625 
Q 34.28125 6.0625 38.453125 11.015625 
Q 42.625 15.96875 42.625 26.375 
Q 42.625 36.28125 38.546875 41.203125 
Q 34.46875 46.140625 28.8125 46.140625 
Q 23.1875 46.140625 18.859375 40.890625 
Q 14.546875 35.640625 14.546875 25.640625 
z
" id="ArialMT-70"/>
      <path d="M 8.015625 0 
L 8.015625 71.578125 
L 17.484375 71.578125 
L 17.484375 42.1875 
L 54.6875 42.1875 
L 54.6875 71.578125 
L 64.15625 71.578125 
L 64.15625 0 
L 54.6875 0 
L 54.6875 33.734375 
L 17.484375 33.734375 
L 17.484375 0 
z
" id="ArialMT-48"/>
     </defs>
     <g style="fill:#262626;" transform="translate(127.808594 147.343125)scale(0.1 -0.1)">
      <use xlink:href="#ArialMT-70"/>
      <use x="55.615234" xlink:href="#ArialMT-48"/>
     </g>
    </g>
   </g>
   <g id="matplotlib.axis_2">
    <g id="ytick_1">
     <g id="line2d_7">
      <defs>
       <path d="M 0 0 
L -3.5 0 
" id="m9ef364e36e" style="stroke:#262626;stroke-width:0.8;"/>
      </defs>
      <g>
       <use style="fill:#262626;stroke:#262626;stroke-width:0.8;" x="51.05" xlink:href="#m9ef364e36e" y="119.206135"/>
      </g>
     </g>
     <g id="text_8">
      <!-- −10 -->
      <defs>
       <path d="M 52.828125 31.203125 
L 5.5625 31.203125 
L 5.5625 39.40625 
L 52.828125 39.40625 
z
" id="ArialMT-2212"/>
      </defs>
      <g style="fill:#262626;" transform="translate(27.0875 122.785041)scale(0.1 -0.1)">
       <use xlink:href="#ArialMT-2212"/>
       <use x="58.398438" xlink:href="#ArialMT-31"/>
       <use x="114.013672" xlink:href="#ArialMT-30"/>
      </g>
     </g>
    </g>
    <g id="ytick_2">
     <g id="line2d_8">
      <g>
       <use style="fill:#262626;stroke:#262626;stroke-width:0.8;" x="51.05" xlink:href="#m9ef364e36e" y="74.747429"/>
      </g>
     </g>
     <g id="text_9">
      <!-- 0 -->
      <g style="fill:#262626;" transform="translate(38.489062 78.326335)scale(0.1 -0.1)">
       <use xlink:href="#ArialMT-30"/>
      </g>
     </g>
    </g>
    <g id="ytick_3">
     <g id="line2d_9">
      <g>
       <use style="fill:#262626;stroke:#262626;stroke-width:0.8;" x="51.05" xlink:href="#m9ef364e36e" y="30.288722"/>
      </g>
     </g>
     <g id="text_10">
      <!-- 10 -->
      <g style="fill:#262626;" transform="translate(32.928125 33.867629)scale(0.1 -0.1)">
       <use xlink:href="#ArialMT-31"/>
       <use x="55.615234" xlink:href="#ArialMT-30"/>
      </g>
     </g>
    </g>
    <g id="text_11">
     <!-- Free Energy($k_BT$) -->
     <defs>
      <path d="M 8.203125 0 
L 8.203125 71.578125 
L 56.5 71.578125 
L 56.5 63.140625 
L 17.671875 63.140625 
L 17.671875 40.96875 
L 51.265625 40.96875 
L 51.265625 32.515625 
L 17.671875 32.515625 
L 17.671875 0 
z
" id="ArialMT-46"/>
      <path d="M 6.5 0 
L 6.5 51.859375 
L 14.40625 51.859375 
L 14.40625 44 
Q 17.4375 49.515625 20 51.265625 
Q 22.5625 53.03125 25.640625 53.03125 
Q 30.078125 53.03125 34.671875 50.203125 
L 31.640625 42.046875 
Q 28.421875 43.953125 25.203125 43.953125 
Q 22.3125 43.953125 20.015625 42.21875 
Q 17.71875 40.484375 16.75 37.40625 
Q 15.28125 32.71875 15.28125 27.15625 
L 15.28125 0 
z
" id="ArialMT-72"/>
      <path d="M 42.09375 16.703125 
L 51.171875 15.578125 
Q 49.03125 7.625 43.21875 3.21875 
Q 37.40625 -1.171875 28.375 -1.171875 
Q 17 -1.171875 10.328125 5.828125 
Q 3.65625 12.84375 3.65625 25.484375 
Q 3.65625 38.578125 10.390625 45.796875 
Q 17.140625 53.03125 27.875 53.03125 
Q 38.28125 53.03125 44.875 45.953125 
Q 51.46875 38.875 51.46875 26.03125 
Q 51.46875 25.25 51.421875 23.6875 
L 12.75 23.6875 
Q 13.234375 15.140625 17.578125 10.59375 
Q 21.921875 6.0625 28.421875 6.0625 
Q 33.25 6.0625 36.671875 8.59375 
Q 40.09375 11.140625 42.09375 16.703125 
z
M 13.234375 30.90625 
L 42.1875 30.90625 
Q 41.609375 37.453125 38.875 40.71875 
Q 34.671875 45.796875 27.984375 45.796875 
Q 21.921875 45.796875 17.796875 41.75 
Q 13.671875 37.703125 13.234375 30.90625 
z
" id="ArialMT-65"/>
      <path id="ArialMT-20"/>
      <path d="M 7.90625 0 
L 7.90625 71.578125 
L 59.671875 71.578125 
L 59.671875 63.140625 
L 17.390625 63.140625 
L 17.390625 41.21875 
L 56.984375 41.21875 
L 56.984375 32.8125 
L 17.390625 32.8125 
L 17.390625 8.453125 
L 61.328125 8.453125 
L 61.328125 0 
z
" id="ArialMT-45"/>
      <path d="M 6.59375 0 
L 6.59375 51.859375 
L 14.5 51.859375 
L 14.5 44.484375 
Q 20.21875 53.03125 31 53.03125 
Q 35.6875 53.03125 39.625 51.34375 
Q 43.5625 49.65625 45.515625 46.921875 
Q 47.46875 44.1875 48.25 40.4375 
Q 48.734375 37.984375 48.734375 31.890625 
L 48.734375 0 
L 39.9375 0 
L 39.9375 31.546875 
Q 39.9375 36.921875 38.90625 39.578125 
Q 37.890625 42.234375 35.28125 43.8125 
Q 32.671875 45.40625 29.15625 45.40625 
Q 23.53125 45.40625 19.453125 41.84375 
Q 15.375 38.28125 15.375 28.328125 
L 15.375 0 
z
" id="ArialMT-6e"/>
      <path d="M 4.984375 -4.296875 
L 13.53125 -5.5625 
Q 14.0625 -9.515625 16.5 -11.328125 
Q 19.78125 -13.765625 25.4375 -13.765625 
Q 31.546875 -13.765625 34.859375 -11.328125 
Q 38.1875 -8.890625 39.359375 -4.5 
Q 40.046875 -1.8125 39.984375 6.78125 
Q 34.234375 0 25.640625 0 
Q 14.9375 0 9.078125 7.71875 
Q 3.21875 15.4375 3.21875 26.21875 
Q 3.21875 33.640625 5.90625 39.90625 
Q 8.59375 46.1875 13.6875 49.609375 
Q 18.796875 53.03125 25.6875 53.03125 
Q 34.859375 53.03125 40.828125 45.609375 
L 40.828125 51.859375 
L 48.921875 51.859375 
L 48.921875 7.03125 
Q 48.921875 -5.078125 46.453125 -10.125 
Q 44 -15.1875 38.640625 -18.109375 
Q 33.296875 -21.046875 25.484375 -21.046875 
Q 16.21875 -21.046875 10.5 -16.875 
Q 4.78125 -12.703125 4.984375 -4.296875 
z
M 12.25 26.859375 
Q 12.25 16.65625 16.296875 11.96875 
Q 20.359375 7.28125 26.46875 7.28125 
Q 32.515625 7.28125 36.609375 11.9375 
Q 40.71875 16.609375 40.71875 26.5625 
Q 40.71875 36.078125 36.5 40.90625 
Q 32.28125 45.75 26.3125 45.75 
Q 20.453125 45.75 16.34375 40.984375 
Q 12.25 36.234375 12.25 26.859375 
z
" id="ArialMT-67"/>
      <path d="M 6.203125 -19.96875 
L 5.21875 -11.71875 
Q 8.109375 -12.5 10.25 -12.5 
Q 13.1875 -12.5 14.9375 -11.515625 
Q 16.703125 -10.546875 17.828125 -8.796875 
Q 18.65625 -7.46875 20.515625 -2.25 
Q 20.75 -1.515625 21.296875 -0.09375 
L 1.609375 51.859375 
L 11.078125 51.859375 
L 21.875 21.828125 
Q 23.96875 16.109375 25.640625 9.8125 
Q 27.15625 15.875 29.25 21.625 
L 40.328125 51.859375 
L 49.125 51.859375 
L 29.390625 -0.875 
Q 26.21875 -9.421875 24.46875 -12.640625 
Q 22.125 -17 19.09375 -19.015625 
Q 16.0625 -21.046875 11.859375 -21.046875 
Q 9.328125 -21.046875 6.203125 -19.96875 
z
" id="ArialMT-79"/>
      <path d="M 23.390625 -21.046875 
Q 16.109375 -11.859375 11.078125 0.4375 
Q 6.0625 12.75 6.0625 25.921875 
Q 6.0625 37.546875 9.8125 48.1875 
Q 14.203125 60.546875 23.390625 72.796875 
L 29.6875 72.796875 
Q 23.78125 62.640625 21.875 58.296875 
Q 18.890625 51.5625 17.1875 44.234375 
Q 15.09375 35.109375 15.09375 25.875 
Q 15.09375 2.390625 29.6875 -21.046875 
z
" id="ArialMT-28"/>
      <path d="M 18.3125 75.984375 
L 27.296875 75.984375 
L 18.703125 31.6875 
L 49.515625 54.6875 
L 61.1875 54.6875 
L 26.8125 28.515625 
L 51.90625 0 
L 41.015625 0 
L 17.671875 26.703125 
L 12.5 0 
L 3.515625 0 
z
" id="DejaVuSans-Oblique-6b"/>
      <path d="M 16.890625 72.90625 
L 42.09375 72.90625 
Q 52.34375 72.90625 57.421875 69.09375 
Q 62.5 65.28125 62.5 57.625 
Q 62.5 50.59375 58.125 45.484375 
Q 53.765625 40.375 46.6875 39.3125 
Q 52.734375 37.9375 55.765625 34.078125 
Q 58.796875 30.21875 58.796875 23.78125 
Q 58.796875 12.796875 50.65625 6.390625 
Q 42.53125 0 28.421875 0 
L 2.6875 0 
z
M 19.28125 34.8125 
L 14.109375 8.109375 
L 29.984375 8.109375 
Q 38.921875 8.109375 43.75 12.203125 
Q 48.578125 16.3125 48.578125 23.78125 
Q 48.578125 29.546875 45.375 32.171875 
Q 42.1875 34.8125 35.109375 34.8125 
z
M 25.09375 64.796875 
L 20.796875 42.828125 
L 35.5 42.828125 
Q 43.359375 42.828125 47.78125 46.234375 
Q 52.203125 49.65625 52.203125 55.71875 
Q 52.203125 60.453125 49.21875 62.625 
Q 46.234375 64.796875 39.703125 64.796875 
z
" id="DejaVuSans-Oblique-42"/>
      <path d="M 5.90625 72.90625 
L 67.578125 72.90625 
L 66.015625 64.59375 
L 39.984375 64.59375 
L 27.484375 0 
L 17.578125 0 
L 30.078125 64.59375 
L 4.296875 64.59375 
z
" id="DejaVuSans-Oblique-54"/>
      <path d="M 12.359375 -21.046875 
L 6.0625 -21.046875 
Q 20.65625 2.390625 20.65625 25.875 
Q 20.65625 35.0625 18.5625 44.09375 
Q 16.890625 51.421875 13.921875 58.15625 
Q 12.015625 62.546875 6.0625 72.796875 
L 12.359375 72.796875 
Q 21.53125 60.546875 25.921875 48.1875 
Q 29.6875 37.546875 29.6875 25.921875 
Q 29.6875 12.75 24.625 0.4375 
Q 19.578125 -11.859375 12.359375 -21.046875 
z
" id="ArialMT-29"/>
     </defs>
     <g style="fill:#262626;" transform="translate(20.8875 112.27)rotate(-90)scale(0.1 -0.1)">
      <use transform="translate(0 0.015625)" xlink:href="#ArialMT-46"/>
      <use transform="translate(61.083984 0.015625)" xlink:href="#ArialMT-72"/>
      <use transform="translate(94.384766 0.015625)" xlink:href="#ArialMT-65"/>
      <use transform="translate(150 0.015625)" xlink:href="#ArialMT-65"/>
      <use transform="translate(205.615234 0.015625)" xlink:href="#ArialMT-20"/>
      <use transform="translate(233.398438 0.015625)" xlink:href="#ArialMT-45"/>
      <use transform="translate(300.097656 0.015625)" xlink:href="#ArialMT-6e"/>
      <use transform="translate(355.712891 0.015625)" xlink:href="#ArialMT-65"/>
      <use transform="translate(411.328125 0.015625)" xlink:href="#ArialMT-72"/>
      <use transform="translate(444.628906 0.015625)" xlink:href="#ArialMT-67"/>
      <use transform="translate(500.244141 0.015625)" xlink:href="#ArialMT-79"/>
      <use transform="translate(550.244141 0.015625)" xlink:href="#ArialMT-28"/>
      <use transform="translate(583.544922 0.015625)" xlink:href="#DejaVuSans-Oblique-6b"/>
      <use transform="translate(641.455078 -16.390625)scale(0.7)" xlink:href="#DejaVuSans-Oblique-42"/>
      <use transform="translate(692.211914 0.015625)" xlink:href="#DejaVuSans-Oblique-54"/>
      <use transform="translate(753.295898 0.015625)" xlink:href="#ArialMT-29"/>
     </g>
    </g>
   </g>
   <g id="PathCollection_1">
    <defs>
     <path d="M 0 0.5 
C 0.132602 0.5 0.25979 0.447317 0.353553 0.353553 
C 0.447317 0.25979 0.5 0.132602 0.5 0 
C 0.5 -0.132602 0.447317 -0.25979 0.353553 -0.353553 
C 0.25979 -0.447317 0.132602 -0.5 0 -0.5 
C -0.132602 -0.5 -0.25979 -0.447317 -0.353553 -0.353553 
C -0.447317 -0.25979 -0.5 -0.132602 -0.5 0 
C -0.5 0.132602 -0.447317 0.25979 -0.353553 0.353553 
C -0.25979 0.447317 -0.132602 0.5 0 0.5 
z
" id="mf98e026b60" style="stroke:#333333;"/>
    </defs>
    <g clip-path="url(#pdb04770e28)">
     <use style="fill:#333333;stroke:#333333;" x="58.907911" xlink:href="#mf98e026b60" y="74.747429"/>
     <use style="fill:#333333;stroke:#333333;" x="60.413753" xlink:href="#mf98e026b60" y="74.747429"/>
     <use style="fill:#333333;stroke:#333333;" x="61.919595" xlink:href="#mf98e026b60" y="74.747429"/>
     <use style="fill:#333333;stroke:#333333;" x="63.425436" xlink:href="#mf98e026b60" y="74.747429"/>
     <use style="fill:#333333;stroke:#333333;" x="64.931278" xlink:href="#mf98e026b60" y="74.747429"/>
     <use style="fill:#333333;stroke:#333333;" x="66.43712" xlink:href="#mf98e026b60" y="74.747429"/>
     <use style="fill:#333333;stroke:#333333;" x="67.942962" xlink:href="#mf98e026b60" y="74.747429"/>
     <use style="fill:#333333;stroke:#333333;" x="69.448803" xlink:href="#mf98e026b60" y="74.747429"/>
     <use style="fill:#333333;stroke:#333333;" x="70.954645" xlink:href="#mf98e026b60" y="74.747429"/>
     <use style="fill:#333333;stroke:#333333;" x="72.460487" xlink:href="#mf98e026b60" y="74.747429"/>
     <use style="fill:#333333;stroke:#333333;" x="73.966329" xlink:href="#mf98e026b60" y="74.747429"/>
     <use style="fill:#333333;stroke:#333333;" x="75.47217" xlink:href="#mf98e026b60" y="74.747429"/>
     <use style="fill:#333333;stroke:#333333;" x="76.978012" xlink:href="#mf98e026b60" y="74.747429"/>
     <use style="fill:#333333;stroke:#333333;" x="78.483854" xlink:href="#mf98e026b60" y="74.747429"/>
     <use style="fill:#333333;stroke:#333333;" x="79.989696" xlink:href="#mf98e026b60" y="74.747429"/>
     <use style="fill:#333333;stroke:#333333;" x="81.495538" xlink:href="#mf98e026b60" y="74.747429"/>
     <use style="fill:#333333;stroke:#333333;" x="83.001379" xlink:href="#mf98e026b60" y="74.747429"/>
     <use style="fill:#333333;stroke:#333333;" x="84.507221" xlink:href="#mf98e026b60" y="74.747429"/>
     <use style="fill:#333333;stroke:#333333;" x="86.013063" xlink:href="#mf98e026b60" y="74.747429"/>
     <use style="fill:#333333;stroke:#333333;" x="87.518905" xlink:href="#mf98e026b60" y="74.747429"/>
     <use style="fill:#333333;stroke:#333333;" x="89.024746" xlink:href="#mf98e026b60" y="74.747429"/>
     <use style="fill:#333333;stroke:#333333;" x="90.530588" xlink:href="#mf98e026b60" y="74.747429"/>
     <use style="fill:#333333;stroke:#333333;" x="92.03643" xlink:href="#mf98e026b60" y="74.747429"/>
     <use style="fill:#333333;stroke:#333333;" x="93.542272" xlink:href="#mf98e026b60" y="74.747429"/>
     <use style="fill:#333333;stroke:#333333;" x="95.048113" xlink:href="#mf98e026b60" y="74.747429"/>
     <use style="fill:#333333;stroke:#333333;" x="96.553955" xlink:href="#mf98e026b60" y="74.747429"/>
     <use style="fill:#333333;stroke:#333333;" x="98.059797" xlink:href="#mf98e026b60" y="74.747429"/>
     <use style="fill:#333333;stroke:#333333;" x="99.565639" xlink:href="#mf98e026b60" y="74.747429"/>
     <use style="fill:#333333;stroke:#333333;" x="101.071481" xlink:href="#mf98e026b60" y="74.747429"/>
     <use style="fill:#333333;stroke:#333333;" x="102.577322" xlink:href="#mf98e026b60" y="74.747429"/>
     <use style="fill:#333333;stroke:#333333;" x="104.083164" xlink:href="#mf98e026b60" y="74.747429"/>
     <use style="fill:#333333;stroke:#333333;" x="105.589006" xlink:href="#mf98e026b60" y="74.747429"/>
     <use style="fill:#333333;stroke:#333333;" x="107.094848" xlink:href="#mf98e026b60" y="74.747429"/>
     <use style="fill:#333333;stroke:#333333;" x="108.600689" xlink:href="#mf98e026b60" y="74.747429"/>
     <use style="fill:#333333;stroke:#333333;" x="110.106531" xlink:href="#mf98e026b60" y="74.747429"/>
     <use style="fill:#333333;stroke:#333333;" x="111.612373" xlink:href="#mf98e026b60" y="74.747429"/>
     <use style="fill:#333333;stroke:#333333;" x="113.118215" xlink:href="#mf98e026b60" y="74.747429"/>
     <use style="fill:#333333;stroke:#333333;" x="114.624056" xlink:href="#mf98e026b60" y="74.747429"/>
     <use style="fill:#333333;stroke:#333333;" x="116.129898" xlink:href="#mf98e026b60" y="74.747429"/>
     <use style="fill:#333333;stroke:#333333;" x="117.63574" xlink:href="#mf98e026b60" y="74.747429"/>
     <use style="fill:#333333;stroke:#333333;" x="119.141582" xlink:href="#mf98e026b60" y="74.747429"/>
     <use style="fill:#333333;stroke:#333333;" x="120.647424" xlink:href="#mf98e026b60" y="74.747429"/>
     <use style="fill:#333333;stroke:#333333;" x="122.153265" xlink:href="#mf98e026b60" y="74.747429"/>
     <use style="fill:#333333;stroke:#333333;" x="123.659107" xlink:href="#mf98e026b60" y="74.747429"/>
     <use style="fill:#333333;stroke:#333333;" x="125.164949" xlink:href="#mf98e026b60" y="74.747429"/>
     <use style="fill:#333333;stroke:#333333;" x="126.670791" xlink:href="#mf98e026b60" y="74.747429"/>
     <use style="fill:#333333;stroke:#333333;" x="128.176632" xlink:href="#mf98e026b60" y="74.747429"/>
     <use style="fill:#333333;stroke:#333333;" x="129.682474" xlink:href="#mf98e026b60" y="74.747429"/>
     <use style="fill:#333333;stroke:#333333;" x="131.188316" xlink:href="#mf98e026b60" y="74.747429"/>
     <use style="fill:#333333;stroke:#333333;" x="132.694158" xlink:href="#mf98e026b60" y="74.747429"/>
     <use style="fill:#333333;stroke:#333333;" x="134.199999" xlink:href="#mf98e026b60" y="74.747429"/>
     <use style="fill:#333333;stroke:#333333;" x="135.705841" xlink:href="#mf98e026b60" y="74.747429"/>
     <use style="fill:#333333;stroke:#333333;" x="137.211683" xlink:href="#mf98e026b60" y="74.747429"/>
     <use style="fill:#333333;stroke:#333333;" x="138.717525" xlink:href="#mf98e026b60" y="74.747429"/>
     <use style="fill:#333333;stroke:#333333;" x="140.223367" xlink:href="#mf98e026b60" y="74.747429"/>
     <use style="fill:#333333;stroke:#333333;" x="141.729208" xlink:href="#mf98e026b60" y="74.747429"/>
     <use style="fill:#333333;stroke:#333333;" x="143.23505" xlink:href="#mf98e026b60" y="74.747429"/>
     <use style="fill:#333333;stroke:#333333;" x="144.740892" xlink:href="#mf98e026b60" y="74.747429"/>
     <use style="fill:#333333;stroke:#333333;" x="146.246734" xlink:href="#mf98e026b60" y="74.747429"/>
     <use style="fill:#333333;stroke:#333333;" x="147.752575" xlink:href="#mf98e026b60" y="74.747429"/>
     <use style="fill:#333333;stroke:#333333;" x="149.258417" xlink:href="#mf98e026b60" y="74.747429"/>
     <use style="fill:#333333;stroke:#333333;" x="150.764259" xlink:href="#mf98e026b60" y="74.747429"/>
     <use style="fill:#333333;stroke:#333333;" x="152.270101" xlink:href="#mf98e026b60" y="74.747429"/>
     <use style="fill:#333333;stroke:#333333;" x="153.775942" xlink:href="#mf98e026b60" y="74.747429"/>
     <use style="fill:#333333;stroke:#333333;" x="155.281784" xlink:href="#mf98e026b60" y="74.747429"/>
     <use style="fill:#333333;stroke:#333333;" x="156.787626" xlink:href="#mf98e026b60" y="74.747429"/>
     <use style="fill:#333333;stroke:#333333;" x="158.293468" xlink:href="#mf98e026b60" y="74.747429"/>
     <use style="fill:#333333;stroke:#333333;" x="159.79931" xlink:href="#mf98e026b60" y="74.747429"/>
     <use style="fill:#333333;stroke:#333333;" x="161.305151" xlink:href="#mf98e026b60" y="74.747429"/>
     <use style="fill:#333333;stroke:#333333;" x="162.810993" xlink:href="#mf98e026b60" y="74.747429"/>
     <use style="fill:#333333;stroke:#333333;" x="164.316835" xlink:href="#mf98e026b60" y="74.747429"/>
     <use style="fill:#333333;stroke:#333333;" x="165.822677" xlink:href="#mf98e026b60" y="74.747429"/>
     <use style="fill:#333333;stroke:#333333;" x="167.328518" xlink:href="#mf98e026b60" y="74.747429"/>
     <use style="fill:#333333;stroke:#333333;" x="168.83436" xlink:href="#mf98e026b60" y="74.747429"/>
     <use style="fill:#333333;stroke:#333333;" x="170.340202" xlink:href="#mf98e026b60" y="74.747429"/>
     <use style="fill:#333333;stroke:#333333;" x="171.846044" xlink:href="#mf98e026b60" y="74.747429"/>
     <use style="fill:#333333;stroke:#333333;" x="173.351885" xlink:href="#mf98e026b60" y="74.747429"/>
     <use style="fill:#333333;stroke:#333333;" x="174.857727" xlink:href="#mf98e026b60" y="74.747429"/>
     <use style="fill:#333333;stroke:#333333;" x="176.363569" xlink:href="#mf98e026b60" y="74.747429"/>
     <use style="fill:#333333;stroke:#333333;" x="177.869411" xlink:href="#mf98e026b60" y="74.747429"/>
     <use style="fill:#333333;stroke:#333333;" x="179.375253" xlink:href="#mf98e026b60" y="74.747429"/>
     <use style="fill:#333333;stroke:#333333;" x="180.881094" xlink:href="#mf98e026b60" y="74.747429"/>
     <use style="fill:#333333;stroke:#333333;" x="182.386936" xlink:href="#mf98e026b60" y="74.747429"/>
     <use style="fill:#333333;stroke:#333333;" x="183.892778" xlink:href="#mf98e026b60" y="74.747429"/>
     <use style="fill:#333333;stroke:#333333;" x="185.39862" xlink:href="#mf98e026b60" y="74.747429"/>
     <use style="fill:#333333;stroke:#333333;" x="186.904461" xlink:href="#mf98e026b60" y="74.747429"/>
     <use style="fill:#333333;stroke:#333333;" x="188.410303" xlink:href="#mf98e026b60" y="74.747429"/>
     <use style="fill:#333333;stroke:#333333;" x="189.916145" xlink:href="#mf98e026b60" y="74.747429"/>
     <use style="fill:#333333;stroke:#333333;" x="191.421987" xlink:href="#mf98e026b60" y="74.747429"/>
     <use style="fill:#333333;stroke:#333333;" x="192.927828" xlink:href="#mf98e026b60" y="74.747429"/>
     <use style="fill:#333333;stroke:#333333;" x="194.43367" xlink:href="#mf98e026b60" y="74.747429"/>
     <use style="fill:#333333;stroke:#333333;" x="195.939512" xlink:href="#mf98e026b60" y="74.747429"/>
     <use style="fill:#333333;stroke:#333333;" x="197.445354" xlink:href="#mf98e026b60" y="74.747429"/>
     <use style="fill:#333333;stroke:#333333;" x="198.951196" xlink:href="#mf98e026b60" y="74.747429"/>
     <use style="fill:#333333;stroke:#333333;" x="200.457037" xlink:href="#mf98e026b60" y="74.747429"/>
     <use style="fill:#333333;stroke:#333333;" x="201.962879" xlink:href="#mf98e026b60" y="74.747429"/>
     <use style="fill:#333333;stroke:#333333;" x="203.468721" xlink:href="#mf98e026b60" y="74.747429"/>
     <use style="fill:#333333;stroke:#333333;" x="204.974563" xlink:href="#mf98e026b60" y="74.747429"/>
     <use style="fill:#333333;stroke:#333333;" x="206.480404" xlink:href="#mf98e026b60" y="74.747429"/>
     <use style="fill:#333333;stroke:#333333;" x="207.986246" xlink:href="#mf98e026b60" y="74.747429"/>
     <use style="fill:#333333;stroke:#333333;" x="209.492088" xlink:href="#mf98e026b60" y="74.747429"/>
    </g>
   </g>
   <g id="PathCollection_2">
    <defs>
     <path d="M 0 0.5 
C 0.132602 0.5 0.25979 0.447317 0.353553 0.353553 
C 0.447317 0.25979 0.5 0.132602 0.5 0 
C 0.5 -0.132602 0.447317 -0.25979 0.353553 -0.353553 
C 0.25979 -0.447317 0.132602 -0.5 0 -0.5 
C -0.132602 -0.5 -0.25979 -0.447317 -0.353553 -0.353553 
C -0.447317 -0.25979 -0.5 -0.132602 -0.5 0 
C -0.5 0.132602 -0.447317 0.25979 -0.353553 0.353553 
C -0.25979 0.447317 -0.132602 0.5 0 0.5 
z
" id="m9be037f702" style="stroke:#92c5de;"/>
    </defs>
    <g clip-path="url(#pdb04770e28)">
     <use style="fill:#92c5de;stroke:#92c5de;" x="58.907911" xlink:href="#m9be037f702" y="115.756294"/>
     <use style="fill:#92c5de;stroke:#92c5de;" x="60.413753" xlink:href="#m9be037f702" y="114.664495"/>
     <use style="fill:#92c5de;stroke:#92c5de;" x="61.919595" xlink:href="#m9be037f702" y="113.571946"/>
     <use style="fill:#92c5de;stroke:#92c5de;" x="63.425436" xlink:href="#m9be037f702" y="112.479397"/>
     <use style="fill:#92c5de;stroke:#92c5de;" x="64.931278" xlink:href="#m9be037f702" y="111.386848"/>
     <use style="fill:#92c5de;stroke:#92c5de;" x="66.43712" xlink:href="#m9be037f702" y="110.295049"/>
     <use style="fill:#92c5de;stroke:#92c5de;" x="67.942962" xlink:href="#m9be037f702" y="109.2025"/>
     <use style="fill:#92c5de;stroke:#92c5de;" x="69.448803" xlink:href="#m9be037f702" y="108.10995"/>
     <use style="fill:#92c5de;stroke:#92c5de;" x="70.954645" xlink:href="#m9be037f702" y="107.018152"/>
     <use style="fill:#92c5de;stroke:#92c5de;" x="72.460487" xlink:href="#m9be037f702" y="105.924852"/>
     <use style="fill:#92c5de;stroke:#92c5de;" x="73.966329" xlink:href="#m9be037f702" y="104.833053"/>
     <use style="fill:#92c5de;stroke:#92c5de;" x="75.47217" xlink:href="#m9be037f702" y="103.740504"/>
     <use style="fill:#92c5de;stroke:#92c5de;" x="76.978012" xlink:href="#m9be037f702" y="102.648705"/>
     <use style="fill:#92c5de;stroke:#92c5de;" x="78.483854" xlink:href="#m9be037f702" y="101.556156"/>
     <use style="fill:#92c5de;stroke:#92c5de;" x="79.989696" xlink:href="#m9be037f702" y="100.463606"/>
     <use style="fill:#92c5de;stroke:#92c5de;" x="81.495538" xlink:href="#m9be037f702" y="99.371057"/>
     <use style="fill:#92c5de;stroke:#92c5de;" x="83.001379" xlink:href="#m9be037f702" y="98.278508"/>
     <use style="fill:#92c5de;stroke:#92c5de;" x="84.507221" xlink:href="#m9be037f702" y="97.185959"/>
     <use style="fill:#92c5de;stroke:#92c5de;" x="86.013063" xlink:href="#m9be037f702" y="96.09341"/>
     <use style="fill:#92c5de;stroke:#92c5de;" x="87.518905" xlink:href="#m9be037f702" y="95.001611"/>
     <use style="fill:#92c5de;stroke:#92c5de;" x="89.024746" xlink:href="#m9be037f702" y="93.909061"/>
     <use style="fill:#92c5de;stroke:#92c5de;" x="90.530588" xlink:href="#m9be037f702" y="92.816512"/>
     <use style="fill:#92c5de;stroke:#92c5de;" x="92.03643" xlink:href="#m9be037f702" y="91.724713"/>
     <use style="fill:#92c5de;stroke:#92c5de;" x="93.542272" xlink:href="#m9be037f702" y="90.632164"/>
     <use style="fill:#92c5de;stroke:#92c5de;" x="95.048113" xlink:href="#m9be037f702" y="89.539615"/>
     <use style="fill:#92c5de;stroke:#92c5de;" x="96.553955" xlink:href="#m9be037f702" y="88.447816"/>
     <use style="fill:#92c5de;stroke:#92c5de;" x="98.059797" xlink:href="#m9be037f702" y="87.354516"/>
     <use style="fill:#92c5de;stroke:#92c5de;" x="99.565639" xlink:href="#m9be037f702" y="86.262718"/>
     <use style="fill:#92c5de;stroke:#92c5de;" x="101.071481" xlink:href="#m9be037f702" y="85.170168"/>
     <use style="fill:#92c5de;stroke:#92c5de;" x="102.577322" xlink:href="#m9be037f702" y="84.077619"/>
     <use style="fill:#92c5de;stroke:#92c5de;" x="104.083164" xlink:href="#m9be037f702" y="82.98507"/>
     <use style="fill:#92c5de;stroke:#92c5de;" x="105.589006" xlink:href="#m9be037f702" y="81.893271"/>
     <use style="fill:#92c5de;stroke:#92c5de;" x="107.094848" xlink:href="#m9be037f702" y="80.800722"/>
     <use style="fill:#92c5de;stroke:#92c5de;" x="108.600689" xlink:href="#m9be037f702" y="79.708173"/>
     <use style="fill:#92c5de;stroke:#92c5de;" x="110.106531" xlink:href="#m9be037f702" y="78.616374"/>
     <use style="fill:#92c5de;stroke:#92c5de;" x="111.612373" xlink:href="#m9be037f702" y="77.523824"/>
     <use style="fill:#92c5de;stroke:#92c5de;" x="113.118215" xlink:href="#m9be037f702" y="76.431275"/>
     <use style="fill:#92c5de;stroke:#92c5de;" x="114.624056" xlink:href="#m9be037f702" y="75.339476"/>
     <use style="fill:#92c5de;stroke:#92c5de;" x="116.129898" xlink:href="#m9be037f702" y="74.246177"/>
     <use style="fill:#92c5de;stroke:#92c5de;" x="117.63574" xlink:href="#m9be037f702" y="73.153628"/>
     <use style="fill:#92c5de;stroke:#92c5de;" x="119.141582" xlink:href="#m9be037f702" y="72.061829"/>
     <use style="fill:#92c5de;stroke:#92c5de;" x="120.647424" xlink:href="#m9be037f702" y="70.969279"/>
     <use style="fill:#92c5de;stroke:#92c5de;" x="122.153265" xlink:href="#m9be037f702" y="69.87673"/>
     <use style="fill:#92c5de;stroke:#92c5de;" x="123.659107" xlink:href="#m9be037f702" y="68.784931"/>
     <use style="fill:#92c5de;stroke:#92c5de;" x="125.164949" xlink:href="#m9be037f702" y="67.692382"/>
     <use style="fill:#92c5de;stroke:#92c5de;" x="126.670791" xlink:href="#m9be037f702" y="66.599833"/>
     <use style="fill:#92c5de;stroke:#92c5de;" x="128.176632" xlink:href="#m9be037f702" y="65.507284"/>
     <use style="fill:#92c5de;stroke:#92c5de;" x="129.682474" xlink:href="#m9be037f702" y="64.415485"/>
     <use style="fill:#92c5de;stroke:#92c5de;" x="131.188316" xlink:href="#m9be037f702" y="63.322936"/>
     <use style="fill:#92c5de;stroke:#92c5de;" x="132.694158" xlink:href="#m9be037f702" y="62.230386"/>
     <use style="fill:#92c5de;stroke:#92c5de;" x="134.199999" xlink:href="#m9be037f702" y="61.137837"/>
     <use style="fill:#92c5de;stroke:#92c5de;" x="135.705841" xlink:href="#m9be037f702" y="60.046038"/>
     <use style="fill:#92c5de;stroke:#92c5de;" x="137.211683" xlink:href="#m9be037f702" y="58.952739"/>
     <use style="fill:#92c5de;stroke:#92c5de;" x="138.717525" xlink:href="#m9be037f702" y="57.86094"/>
     <use style="fill:#92c5de;stroke:#92c5de;" x="140.223367" xlink:href="#m9be037f702" y="56.768391"/>
     <use style="fill:#92c5de;stroke:#92c5de;" x="141.729208" xlink:href="#m9be037f702" y="55.675841"/>
     <use style="fill:#92c5de;stroke:#92c5de;" x="143.23505" xlink:href="#m9be037f702" y="54.584042"/>
     <use style="fill:#92c5de;stroke:#92c5de;" x="144.740892" xlink:href="#m9be037f702" y="53.491493"/>
     <use style="fill:#92c5de;stroke:#92c5de;" x="146.246734" xlink:href="#m9be037f702" y="52.398944"/>
     <use style="fill:#92c5de;stroke:#92c5de;" x="147.752575" xlink:href="#m9be037f702" y="51.307145"/>
     <use style="fill:#92c5de;stroke:#92c5de;" x="149.258417" xlink:href="#m9be037f702" y="50.214596"/>
     <use style="fill:#92c5de;stroke:#92c5de;" x="150.764259" xlink:href="#m9be037f702" y="49.122047"/>
     <use style="fill:#92c5de;stroke:#92c5de;" x="152.270101" xlink:href="#m9be037f702" y="48.029497"/>
     <use style="fill:#92c5de;stroke:#92c5de;" x="153.775942" xlink:href="#m9be037f702" y="45.238094"/>
     <use style="fill:#92c5de;stroke:#92c5de;" x="155.281784" xlink:href="#m9be037f702" y="44.145545"/>
     <use style="fill:#92c5de;stroke:#92c5de;" x="156.787626" xlink:href="#m9be037f702" y="43.052996"/>
     <use style="fill:#92c5de;stroke:#92c5de;" x="158.293468" xlink:href="#m9be037f702" y="41.961197"/>
     <use style="fill:#92c5de;stroke:#92c5de;" x="159.79931" xlink:href="#m9be037f702" y="40.868648"/>
     <use style="fill:#92c5de;stroke:#92c5de;" x="161.305151" xlink:href="#m9be037f702" y="39.776098"/>
     <use style="fill:#92c5de;stroke:#92c5de;" x="162.810993" xlink:href="#m9be037f702" y="38.683549"/>
     <use style="fill:#92c5de;stroke:#92c5de;" x="164.316835" xlink:href="#m9be037f702" y="37.591"/>
     <use style="fill:#92c5de;stroke:#92c5de;" x="165.822677" xlink:href="#m9be037f702" y="36.498451"/>
     <use style="fill:#92c5de;stroke:#92c5de;" x="167.328518" xlink:href="#m9be037f702" y="35.406652"/>
     <use style="fill:#92c5de;stroke:#92c5de;" x="168.83436" xlink:href="#m9be037f702" y="34.314103"/>
     <use style="fill:#92c5de;stroke:#92c5de;" x="170.340202" xlink:href="#m9be037f702" y="33.222304"/>
     <use style="fill:#92c5de;stroke:#92c5de;" x="171.846044" xlink:href="#m9be037f702" y="32.129754"/>
     <use style="fill:#92c5de;stroke:#92c5de;" x="173.351885" xlink:href="#m9be037f702" y="31.037205"/>
    </g>
   </g>
   <g id="PathCollection_3">
    <g clip-path="url(#pdb04770e28)">
     <use style="fill:#92c5de;stroke:#92c5de;" x="58.907911" xlink:href="#m9be037f702" y="93.589401"/>
     <use style="fill:#92c5de;stroke:#92c5de;" x="60.413753" xlink:href="#m9be037f702" y="92.497602"/>
     <use style="fill:#92c5de;stroke:#92c5de;" x="61.919595" xlink:href="#m9be037f702" y="91.405053"/>
     <use style="fill:#92c5de;stroke:#92c5de;" x="63.425436" xlink:href="#m9be037f702" y="90.313254"/>
     <use style="fill:#92c5de;stroke:#92c5de;" x="64.931278" xlink:href="#m9be037f702" y="89.219954"/>
     <use style="fill:#92c5de;stroke:#92c5de;" x="66.43712" xlink:href="#m9be037f702" y="88.128155"/>
     <use style="fill:#92c5de;stroke:#92c5de;" x="67.942962" xlink:href="#m9be037f702" y="87.035606"/>
     <use style="fill:#92c5de;stroke:#92c5de;" x="69.448803" xlink:href="#m9be037f702" y="85.943807"/>
     <use style="fill:#92c5de;stroke:#92c5de;" x="70.954645" xlink:href="#m9be037f702" y="84.851258"/>
     <use style="fill:#92c5de;stroke:#92c5de;" x="72.460487" xlink:href="#m9be037f702" y="83.758709"/>
     <use style="fill:#92c5de;stroke:#92c5de;" x="73.966329" xlink:href="#m9be037f702" y="82.66616"/>
     <use style="fill:#92c5de;stroke:#92c5de;" x="75.47217" xlink:href="#m9be037f702" y="81.57361"/>
     <use style="fill:#92c5de;stroke:#92c5de;" x="76.978012" xlink:href="#m9be037f702" y="80.481811"/>
     <use style="fill:#92c5de;stroke:#92c5de;" x="78.483854" xlink:href="#m9be037f702" y="79.389262"/>
     <use style="fill:#92c5de;stroke:#92c5de;" x="79.989696" xlink:href="#m9be037f702" y="78.296713"/>
     <use style="fill:#92c5de;stroke:#92c5de;" x="81.495538" xlink:href="#m9be037f702" y="77.204164"/>
     <use style="fill:#92c5de;stroke:#92c5de;" x="83.001379" xlink:href="#m9be037f702" y="76.111615"/>
     <use style="fill:#92c5de;stroke:#92c5de;" x="84.507221" xlink:href="#m9be037f702" y="75.019065"/>
     <use style="fill:#92c5de;stroke:#92c5de;" x="86.013063" xlink:href="#m9be037f702" y="73.927266"/>
     <use style="fill:#92c5de;stroke:#92c5de;" x="87.518905" xlink:href="#m9be037f702" y="72.834717"/>
     <use style="fill:#92c5de;stroke:#92c5de;" x="89.024746" xlink:href="#m9be037f702" y="71.742168"/>
     <use style="fill:#92c5de;stroke:#92c5de;" x="90.530588" xlink:href="#m9be037f702" y="70.650369"/>
     <use style="fill:#92c5de;stroke:#92c5de;" x="92.03643" xlink:href="#m9be037f702" y="69.55782"/>
     <use style="fill:#92c5de;stroke:#92c5de;" x="93.542272" xlink:href="#m9be037f702" y="68.465271"/>
     <use style="fill:#92c5de;stroke:#92c5de;" x="95.048113" xlink:href="#m9be037f702" y="67.372721"/>
     <use style="fill:#92c5de;stroke:#92c5de;" x="96.553955" xlink:href="#m9be037f702" y="66.280923"/>
     <use style="fill:#92c5de;stroke:#92c5de;" x="98.059797" xlink:href="#m9be037f702" y="65.187623"/>
     <use style="fill:#92c5de;stroke:#92c5de;" x="99.565639" xlink:href="#m9be037f702" y="64.095824"/>
     <use style="fill:#92c5de;stroke:#92c5de;" x="101.071481" xlink:href="#m9be037f702" y="63.003275"/>
     <use style="fill:#92c5de;stroke:#92c5de;" x="102.577322" xlink:href="#m9be037f702" y="61.910726"/>
     <use style="fill:#92c5de;stroke:#92c5de;" x="104.083164" xlink:href="#m9be037f702" y="60.818176"/>
     <use style="fill:#92c5de;stroke:#92c5de;" x="105.589006" xlink:href="#m9be037f702" y="59.726378"/>
     <use style="fill:#92c5de;stroke:#92c5de;" x="107.094848" xlink:href="#m9be037f702" y="58.633828"/>
     <use style="fill:#92c5de;stroke:#92c5de;" x="108.600689" xlink:href="#m9be037f702" y="57.542029"/>
     <use style="fill:#92c5de;stroke:#92c5de;" x="110.106531" xlink:href="#m9be037f702" y="56.44948"/>
     <use style="fill:#92c5de;stroke:#92c5de;" x="111.612373" xlink:href="#m9be037f702" y="55.356931"/>
     <use style="fill:#92c5de;stroke:#92c5de;" x="113.118215" xlink:href="#m9be037f702" y="54.264382"/>
     <use style="fill:#92c5de;stroke:#92c5de;" x="114.624056" xlink:href="#m9be037f702" y="53.172583"/>
     <use style="fill:#92c5de;stroke:#92c5de;" x="116.129898" xlink:href="#m9be037f702" y="52.079283"/>
     <use style="fill:#92c5de;stroke:#92c5de;" x="117.63574" xlink:href="#m9be037f702" y="50.986734"/>
     <use style="fill:#92c5de;stroke:#92c5de;" x="119.141582" xlink:href="#m9be037f702" y="49.894935"/>
     <use style="fill:#92c5de;stroke:#92c5de;" x="120.647424" xlink:href="#m9be037f702" y="48.802386"/>
     <use style="fill:#92c5de;stroke:#92c5de;" x="122.153265" xlink:href="#m9be037f702" y="47.709837"/>
     <use style="fill:#92c5de;stroke:#92c5de;" x="123.659107" xlink:href="#m9be037f702" y="46.618038"/>
     <use style="fill:#92c5de;stroke:#92c5de;" x="125.164949" xlink:href="#m9be037f702" y="45.525489"/>
     <use style="fill:#92c5de;stroke:#92c5de;" x="126.670791" xlink:href="#m9be037f702" y="44.432939"/>
     <use style="fill:#92c5de;stroke:#92c5de;" x="128.176632" xlink:href="#m9be037f702" y="43.34039"/>
     <use style="fill:#92c5de;stroke:#92c5de;" x="129.682474" xlink:href="#m9be037f702" y="42.248591"/>
     <use style="fill:#92c5de;stroke:#92c5de;" x="131.188316" xlink:href="#m9be037f702" y="41.156042"/>
     <use style="fill:#92c5de;stroke:#92c5de;" x="132.694158" xlink:href="#m9be037f702" y="40.063493"/>
     <use style="fill:#92c5de;stroke:#92c5de;" x="134.199999" xlink:href="#m9be037f702" y="38.970944"/>
     <use style="fill:#92c5de;stroke:#92c5de;" x="135.705841" xlink:href="#m9be037f702" y="37.879145"/>
     <use style="fill:#92c5de;stroke:#92c5de;" x="137.211683" xlink:href="#m9be037f702" y="36.785845"/>
     <use style="fill:#92c5de;stroke:#92c5de;" x="138.717525" xlink:href="#m9be037f702" y="35.694046"/>
     <use style="fill:#92c5de;stroke:#92c5de;" x="140.223367" xlink:href="#m9be037f702" y="34.602247"/>
     <use style="fill:#92c5de;stroke:#92c5de;" x="141.729208" xlink:href="#m9be037f702" y="33.508948"/>
     <use style="fill:#92c5de;stroke:#92c5de;" x="143.23505" xlink:href="#m9be037f702" y="32.417149"/>
     <use style="fill:#92c5de;stroke:#92c5de;" x="144.740892" xlink:href="#m9be037f702" y="31.3246"/>
    </g>
   </g>
   <g id="PathCollection_4">
    <defs>
     <path d="M 0 0.5 
C 0.132602 0.5 0.25979 0.447317 0.353553 0.353553 
C 0.447317 0.25979 0.5 0.132602 0.5 0 
C 0.5 -0.132602 0.447317 -0.25979 0.353553 -0.353553 
C 0.25979 -0.447317 0.132602 -0.5 0 -0.5 
C -0.132602 -0.5 -0.25979 -0.447317 -0.353553 -0.353553 
C -0.447317 -0.25979 -0.5 -0.132602 -0.5 0 
C -0.5 0.132602 -0.447317 0.25979 -0.353553 0.353553 
C -0.25979 0.447317 -0.132602 0.5 0 0.5 
z
" id="mb116ee2df8" style="stroke:#f4a582;"/>
    </defs>
    <g clip-path="url(#pdb04770e28)">
     <use style="fill:#f4a582;stroke:#f4a582;" x="174.857727" xlink:href="#mb116ee2df8" y="30.331851"/>
     <use style="fill:#f4a582;stroke:#f4a582;" x="176.363569" xlink:href="#mb116ee2df8" y="31.4244"/>
     <use style="fill:#f4a582;stroke:#f4a582;" x="177.869411" xlink:href="#mb116ee2df8" y="32.516949"/>
     <use style="fill:#f4a582;stroke:#f4a582;" x="179.375253" xlink:href="#mb116ee2df8" y="33.608748"/>
     <use style="fill:#f4a582;stroke:#f4a582;" x="180.881094" xlink:href="#mb116ee2df8" y="34.701297"/>
     <use style="fill:#f4a582;stroke:#f4a582;" x="182.386936" xlink:href="#mb116ee2df8" y="35.793846"/>
     <use style="fill:#f4a582;stroke:#f4a582;" x="183.892778" xlink:href="#mb116ee2df8" y="36.885645"/>
     <use style="fill:#f4a582;stroke:#f4a582;" x="185.39862" xlink:href="#mb116ee2df8" y="37.978195"/>
     <use style="fill:#f4a582;stroke:#f4a582;" x="186.904461" xlink:href="#mb116ee2df8" y="39.070744"/>
     <use style="fill:#f4a582;stroke:#f4a582;" x="188.410303" xlink:href="#mb116ee2df8" y="40.162543"/>
     <use style="fill:#f4a582;stroke:#f4a582;" x="189.916145" xlink:href="#mb116ee2df8" y="41.255092"/>
     <use style="fill:#f4a582;stroke:#f4a582;" x="191.421987" xlink:href="#mb116ee2df8" y="42.347641"/>
     <use style="fill:#f4a582;stroke:#f4a582;" x="192.927828" xlink:href="#mb116ee2df8" y="43.44019"/>
     <use style="fill:#f4a582;stroke:#f4a582;" x="194.43367" xlink:href="#mb116ee2df8" y="44.53274"/>
     <use style="fill:#f4a582;stroke:#f4a582;" x="195.939512" xlink:href="#mb116ee2df8" y="45.624538"/>
     <use style="fill:#f4a582;stroke:#f4a582;" x="197.445354" xlink:href="#mb116ee2df8" y="46.717088"/>
     <use style="fill:#f4a582;stroke:#f4a582;" x="198.951196" xlink:href="#mb116ee2df8" y="47.809637"/>
     <use style="fill:#f4a582;stroke:#f4a582;" x="200.457037" xlink:href="#mb116ee2df8" y="48.902186"/>
     <use style="fill:#f4a582;stroke:#f4a582;" x="201.962879" xlink:href="#mb116ee2df8" y="49.994735"/>
     <use style="fill:#f4a582;stroke:#f4a582;" x="203.468721" xlink:href="#mb116ee2df8" y="51.086534"/>
     <use style="fill:#f4a582;stroke:#f4a582;" x="204.974563" xlink:href="#mb116ee2df8" y="52.179083"/>
     <use style="fill:#f4a582;stroke:#f4a582;" x="206.480404" xlink:href="#mb116ee2df8" y="53.271633"/>
     <use style="fill:#f4a582;stroke:#f4a582;" x="207.986246" xlink:href="#mb116ee2df8" y="54.363432"/>
     <use style="fill:#f4a582;stroke:#f4a582;" x="209.492088" xlink:href="#mb116ee2df8" y="55.455981"/>
    </g>
   </g>
   <g id="line2d_10">
    <path clip-path="url(#pdb04770e28)" d="M 58.907911 74.747429 
L 60.413753 74.747429 
L 61.919595 74.747429 
L 63.425436 74.747429 
L 64.931278 74.747429 
L 66.43712 74.747429 
L 67.942962 74.747429 
L 69.448803 74.747429 
L 70.954645 74.747429 
L 72.460487 74.747429 
L 73.966329 74.747429 
L 75.47217 74.747429 
L 76.978012 74.747429 
L 78.483854 74.747429 
L 79.989696 74.747429 
L 81.495538 74.747429 
L 83.001379 74.747429 
L 84.507221 74.747429 
L 86.013063 74.747429 
L 87.518905 74.747429 
L 89.024746 74.747429 
L 90.530588 74.747429 
L 92.03643 74.747429 
L 93.542272 74.747429 
L 95.048113 74.747429 
L 96.553955 74.747429 
L 98.059797 74.747429 
L 99.565639 74.747429 
L 101.071481 74.747429 
L 102.577322 74.747429 
L 104.083164 74.747429 
L 105.589006 74.747429 
L 107.094848 74.747429 
L 108.600689 74.747429 
L 110.106531 74.747429 
L 111.612373 74.747429 
L 113.118215 74.747429 
L 114.624056 74.747429 
L 116.129898 74.747429 
L 117.63574 74.747429 
L 119.141582 74.747429 
L 120.647424 74.747429 
L 122.153265 74.747429 
L 123.659107 74.747429 
L 125.164949 74.747429 
L 126.670791 74.747429 
L 128.176632 74.747429 
L 129.682474 74.747429 
L 131.188316 74.747429 
L 132.694158 74.747429 
L 134.199999 74.747429 
L 135.705841 74.747429 
L 137.211683 74.747429 
L 138.717525 74.747429 
L 140.223367 74.747429 
L 141.729208 74.747429 
L 143.23505 74.747429 
L 144.740892 74.747429 
L 146.246734 74.747429 
L 147.752575 74.747429 
L 149.258417 74.747429 
L 150.764259 74.747429 
L 152.270101 74.747429 
L 153.775942 74.747429 
L 155.281784 74.747429 
L 156.787626 74.747429 
L 158.293468 74.747429 
L 159.79931 74.747429 
L 161.305151 74.747429 
L 162.810993 74.747429 
L 164.316835 74.747429 
L 165.822677 74.747429 
L 167.328518 74.747429 
L 168.83436 74.747429 
L 170.340202 74.747429 
L 171.846044 74.747429 
L 173.351885 74.747429 
L 174.857727 74.747429 
L 176.363569 74.747429 
L 177.869411 74.747429 
L 179.375253 74.747429 
L 180.881094 74.747429 
L 182.386936 74.747429 
L 183.892778 74.747429 
L 185.39862 74.747429 
L 186.904461 74.747429 
L 188.410303 74.747429 
L 189.916145 74.747429 
L 191.421987 74.747429 
L 192.927828 74.747429 
L 194.43367 74.747429 
L 195.939512 74.747429 
L 197.445354 74.747429 
L 198.951196 74.747429 
L 200.457037 74.747429 
L 201.962879 74.747429 
L 203.468721 74.747429 
L 204.974563 74.747429 
L 206.480404 74.747429 
L 207.986246 74.747429 
L 209.492088 74.747429 
" style="fill:none;stroke:#333333;stroke-linecap:round;stroke-width:1.5;"/>
   </g>
   <g id="line2d_11">
    <path clip-path="url(#pdb04770e28)" d="M 58.907911 115.756294 
L 60.413753 114.664495 
L 61.919595 113.571946 
L 63.425436 112.479397 
L 64.931278 111.386848 
L 66.43712 110.295049 
L 67.942962 109.2025 
L 69.448803 108.10995 
L 70.954645 107.018152 
L 72.460487 105.924852 
L 73.966329 104.833053 
L 75.47217 103.740504 
L 76.978012 102.648705 
L 78.483854 101.556156 
L 79.989696 100.463606 
L 81.495538 99.371057 
L 83.001379 98.278508 
L 84.507221 97.185959 
L 86.013063 96.09341 
L 87.518905 95.001611 
L 89.024746 93.909061 
L 90.530588 92.816512 
L 92.03643 91.724713 
L 93.542272 90.632164 
L 95.048113 89.539615 
L 96.553955 88.447816 
L 98.059797 87.354516 
L 99.565639 86.262718 
L 101.071481 85.170168 
L 102.577322 84.077619 
L 104.083164 82.98507 
L 105.589006 81.893271 
L 107.094848 80.800722 
L 108.600689 79.708173 
L 110.106531 78.616374 
L 111.612373 77.523824 
L 113.118215 76.431275 
L 114.624056 75.339476 
L 116.129898 74.246177 
L 117.63574 73.153628 
L 119.141582 72.061829 
L 120.647424 70.969279 
L 122.153265 69.87673 
L 123.659107 68.784931 
L 125.164949 67.692382 
L 126.670791 66.599833 
L 128.176632 65.507284 
L 129.682474 64.415485 
L 131.188316 63.322936 
L 132.694158 62.230386 
L 134.199999 61.137837 
L 135.705841 60.046038 
L 137.211683 58.952739 
L 138.717525 57.86094 
L 140.223367 56.768391 
L 141.729208 55.675841 
L 143.23505 54.584042 
L 144.740892 53.491493 
L 146.246734 52.398944 
L 147.752575 51.307145 
L 149.258417 50.214596 
L 150.764259 49.122047 
L 152.270101 48.029497 
L 153.775942 45.238094 
L 155.281784 44.145545 
L 156.787626 43.052996 
L 158.293468 41.961197 
L 159.79931 40.868648 
L 161.305151 39.776098 
L 162.810993 38.683549 
L 164.316835 37.591 
L 165.822677 36.498451 
L 167.328518 35.406652 
L 168.83436 34.314103 
L 170.340202 33.222304 
L 171.846044 32.129754 
L 173.351885 31.037205 
" style="fill:none;stroke:#92c5de;stroke-linecap:round;stroke-width:1.5;"/>
   </g>
   <g id="line2d_12">
    <path clip-path="url(#pdb04770e28)" d="M 58.907911 93.589401 
L 60.413753 92.497602 
L 61.919595 91.405053 
L 63.425436 90.313254 
L 64.931278 89.219954 
L 66.43712 88.128155 
L 67.942962 87.035606 
L 69.448803 85.943807 
L 70.954645 84.851258 
L 72.460487 83.758709 
L 73.966329 82.66616 
L 75.47217 81.57361 
L 76.978012 80.481811 
L 78.483854 79.389262 
L 79.989696 78.296713 
L 81.495538 77.204164 
L 83.001379 76.111615 
L 84.507221 75.019065 
L 86.013063 73.927266 
L 87.518905 72.834717 
L 89.024746 71.742168 
L 90.530588 70.650369 
L 92.03643 69.55782 
L 93.542272 68.465271 
L 95.048113 67.372721 
L 96.553955 66.280923 
L 98.059797 65.187623 
L 99.565639 64.095824 
L 101.071481 63.003275 
L 102.577322 61.910726 
L 104.083164 60.818176 
L 105.589006 59.726378 
L 107.094848 58.633828 
L 108.600689 57.542029 
L 110.106531 56.44948 
L 111.612373 55.356931 
L 113.118215 54.264382 
L 114.624056 53.172583 
L 116.129898 52.079283 
L 117.63574 50.986734 
L 119.141582 49.894935 
L 120.647424 48.802386 
L 122.153265 47.709837 
L 123.659107 46.618038 
L 125.164949 45.525489 
L 126.670791 44.432939 
L 128.176632 43.34039 
L 129.682474 42.248591 
L 131.188316 41.156042 
L 132.694158 40.063493 
L 134.199999 38.970944 
L 135.705841 37.879145 
L 137.211683 36.785845 
L 138.717525 35.694046 
L 140.223367 34.602247 
L 141.729208 33.508948 
L 143.23505 32.417149 
L 144.740892 31.3246 
" style="fill:none;stroke:#92c5de;stroke-linecap:round;stroke-width:1.5;"/>
   </g>
   <g id="line2d_13">
    <path clip-path="url(#pdb04770e28)" d="M 174.857727 30.331851 
L 176.363569 31.4244 
L 177.869411 32.516949 
L 179.375253 33.608748 
L 180.881094 34.701297 
L 182.386936 35.793846 
L 183.892778 36.885645 
L 185.39862 37.978195 
L 186.904461 39.070744 
L 188.410303 40.162543 
L 189.916145 41.255092 
L 191.421987 42.347641 
L 192.927828 43.44019 
L 194.43367 44.53274 
L 195.939512 45.624538 
L 197.445354 46.717088 
L 198.951196 47.809637 
L 200.457037 48.902186 
L 201.962879 49.994735 
L 203.468721 51.086534 
L 204.974563 52.179083 
L 206.480404 53.271633 
L 207.986246 54.363432 
L 209.492088 55.455981 
" style="fill:none;stroke:#f4a582;stroke-linecap:round;stroke-width:1.5;"/>
   </g>
   <g id="patch_3">
    <path d="M 51.05 120.04 
L 51.05 25.8 
" style="fill:none;stroke:#262626;stroke-linecap:square;stroke-linejoin:miter;stroke-width:0.8;"/>
   </g>
   <g id="patch_4">
    <path d="M 51.05 120.04 
L 217.35 120.04 
" style="fill:none;stroke:#262626;stroke-linecap:square;stroke-linejoin:miter;stroke-width:0.8;"/>
   </g>
   <g id="text_12">
    <!-- SM07 -->
    <defs>
     <path d="M 4.5 23 
L 13.421875 23.78125 
Q 14.0625 18.40625 16.375 14.96875 
Q 18.703125 11.53125 23.578125 9.40625 
Q 28.46875 7.28125 34.578125 7.28125 
Q 39.984375 7.28125 44.140625 8.890625 
Q 48.296875 10.5 50.3125 13.296875 
Q 52.34375 16.109375 52.34375 19.4375 
Q 52.34375 22.796875 50.390625 25.3125 
Q 48.4375 27.828125 43.953125 29.546875 
Q 41.0625 30.671875 31.203125 33.03125 
Q 21.34375 35.40625 17.390625 37.5 
Q 12.25 40.1875 9.734375 44.15625 
Q 7.234375 48.140625 7.234375 53.078125 
Q 7.234375 58.5 10.296875 63.203125 
Q 13.375 67.921875 19.28125 70.359375 
Q 25.203125 72.796875 32.421875 72.796875 
Q 40.375 72.796875 46.453125 70.234375 
Q 52.546875 67.671875 55.8125 62.6875 
Q 59.078125 57.71875 59.328125 51.421875 
L 50.25 50.734375 
Q 49.515625 57.515625 45.28125 60.984375 
Q 41.0625 64.453125 32.8125 64.453125 
Q 24.21875 64.453125 20.28125 61.296875 
Q 16.359375 58.15625 16.359375 53.71875 
Q 16.359375 49.859375 19.140625 47.359375 
Q 21.875 44.875 33.421875 42.265625 
Q 44.96875 39.65625 49.265625 37.703125 
Q 55.515625 34.8125 58.484375 30.390625 
Q 61.46875 25.984375 61.46875 20.21875 
Q 61.46875 14.5 58.203125 9.4375 
Q 54.9375 4.390625 48.796875 1.578125 
Q 42.671875 -1.21875 35.015625 -1.21875 
Q 25.296875 -1.21875 18.71875 1.609375 
Q 12.15625 4.4375 8.421875 10.125 
Q 4.6875 15.828125 4.5 23 
z
" id="ArialMT-53"/>
     <path d="M 7.421875 0 
L 7.421875 71.578125 
L 21.6875 71.578125 
L 38.625 20.90625 
Q 40.96875 13.8125 42.046875 10.296875 
Q 43.265625 14.203125 45.84375 21.78125 
L 62.984375 71.578125 
L 75.734375 71.578125 
L 75.734375 0 
L 66.609375 0 
L 66.609375 59.90625 
L 45.796875 0 
L 37.25 0 
L 16.546875 60.9375 
L 16.546875 0 
z
" id="ArialMT-4d"/>
     <path d="M 4.734375 62.203125 
L 4.734375 70.65625 
L 51.078125 70.65625 
L 51.078125 63.8125 
Q 44.234375 56.546875 37.515625 44.484375 
Q 30.8125 32.421875 27.15625 19.671875 
Q 24.515625 10.6875 23.78125 0 
L 14.75 0 
Q 14.890625 8.453125 18.0625 20.40625 
Q 21.234375 32.375 27.171875 43.484375 
Q 33.109375 54.59375 39.796875 62.203125 
z
" id="ArialMT-37"/>
    </defs>
    <g style="fill:#262626;" transform="translate(118.526875 19.8)scale(0.12 -0.12)">
     <use xlink:href="#ArialMT-53"/>
     <use x="66.699219" xlink:href="#ArialMT-4d"/>
     <use x="150" xlink:href="#ArialMT-30"/>
     <use x="205.615234" xlink:href="#ArialMT-37"/>
    </g>
   </g>
  </g>
 </g>
 <defs>
  <clipPath id="pdb04770e28">
   <rect height="94.24" width="166.3" x="51.05" y="25.8"/>
  </clipPath>
 </defs>
</svg>
