<?xml version="1.0" encoding="utf-8" standalone="no"?>
<!DOCTYPE svg PUBLIC "-//W3C//DTD SVG 1.1//EN"
  "http://www.w3.org/Graphics/SVG/1.1/DTD/svg11.dtd">
<!-- Created with matplotlib (http://matplotlib.org/) -->
<svg height="159.84pt" version="1.1" viewBox="0 0 230.4 159.84" width="230.4pt" xmlns="http://www.w3.org/2000/svg" xmlns:xlink="http://www.w3.org/1999/xlink">
 <defs>
  <style type="text/css">
*{stroke-linecap:butt;stroke-linejoin:round;}
  </style>
 </defs>
 <g id="figure_1">
  <g id="patch_1">
   <path d="M 0 159.84 
L 230.4 159.84 
L 230.4 0 
L 0 0 
z
" style="fill:#ffffff;"/>
  </g>
  <g id="axes_1">
   <g id="patch_2">
    <path d="M 45.425 120.04 
L 217.35 120.04 
L 217.35 25.8 
L 45.425 25.8 
z
" style="fill:#ffffff;"/>
   </g>
   <g id="matplotlib.axis_1">
    <g id="xtick_1">
     <g id="line2d_1">
      <defs>
       <path d="M 0 0 
L 0 3.5 
" id="m9eaf96ee07" style="stroke:#262626;stroke-width:0.8;"/>
      </defs>
      <g>
       <use style="fill:#262626;stroke:#262626;stroke-width:0.8;" x="53.549017" xlink:href="#m9eaf96ee07" y="120.04"/>
      </g>
     </g>
     <g id="text_1">
      <!-- 2 -->
      <defs>
       <path d="M 50.34375 8.453125 
L 50.34375 0 
L 3.03125 0 
Q 2.9375 3.171875 4.046875 6.109375 
Q 5.859375 10.9375 9.828125 15.625 
Q 13.8125 20.3125 21.34375 26.46875 
Q 33.015625 36.03125 37.109375 41.625 
Q 41.21875 47.21875 41.21875 52.203125 
Q 41.21875 57.421875 37.46875 61 
Q 33.734375 64.59375 27.734375 64.59375 
Q 21.390625 64.59375 17.578125 60.78125 
Q 13.765625 56.984375 13.71875 50.25 
L 4.6875 51.171875 
Q 5.609375 61.28125 11.65625 66.578125 
Q 17.71875 71.875 27.9375 71.875 
Q 38.234375 71.875 44.234375 66.15625 
Q 50.25 60.453125 50.25 52 
Q 50.25 47.703125 48.484375 43.546875 
Q 46.734375 39.40625 42.65625 34.8125 
Q 38.578125 30.21875 29.109375 22.21875 
Q 21.1875 15.578125 18.9375 13.203125 
Q 16.703125 10.84375 15.234375 8.453125 
z
" id="ArialMT-32"/>
      </defs>
      <g style="fill:#262626;" transform="translate(50.768549 134.197812)scale(0.1 -0.1)">
       <use xlink:href="#ArialMT-32"/>
      </g>
     </g>
    </g>
    <g id="xtick_2">
     <g id="line2d_2">
      <g>
       <use style="fill:#262626;stroke:#262626;stroke-width:0.8;" x="84.68441" xlink:href="#m9eaf96ee07" y="120.04"/>
      </g>
     </g>
     <g id="text_2">
      <!-- 4 -->
      <defs>
       <path d="M 32.328125 0 
L 32.328125 17.140625 
L 1.265625 17.140625 
L 1.265625 25.203125 
L 33.9375 71.578125 
L 41.109375 71.578125 
L 41.109375 25.203125 
L 50.78125 25.203125 
L 50.78125 17.140625 
L 41.109375 17.140625 
L 41.109375 0 
z
M 32.328125 25.203125 
L 32.328125 57.46875 
L 9.90625 25.203125 
z
" id="ArialMT-34"/>
      </defs>
      <g style="fill:#262626;" transform="translate(81.903942 134.197812)scale(0.1 -0.1)">
       <use xlink:href="#ArialMT-34"/>
      </g>
     </g>
    </g>
    <g id="xtick_3">
     <g id="line2d_3">
      <g>
       <use style="fill:#262626;stroke:#262626;stroke-width:0.8;" x="115.819803" xlink:href="#m9eaf96ee07" y="120.04"/>
      </g>
     </g>
     <g id="text_3">
      <!-- 6 -->
      <defs>
       <path d="M 49.75 54.046875 
L 41.015625 53.375 
Q 39.84375 58.546875 37.703125 60.890625 
Q 34.125 64.65625 28.90625 64.65625 
Q 24.703125 64.65625 21.53125 62.3125 
Q 17.390625 59.28125 14.984375 53.46875 
Q 12.59375 47.65625 12.5 36.921875 
Q 15.671875 41.75 20.265625 44.09375 
Q 24.859375 46.4375 29.890625 46.4375 
Q 38.671875 46.4375 44.84375 39.96875 
Q 51.03125 33.5 51.03125 23.25 
Q 51.03125 16.5 48.125 10.71875 
Q 45.21875 4.9375 40.140625 1.859375 
Q 35.0625 -1.21875 28.609375 -1.21875 
Q 17.625 -1.21875 10.6875 6.859375 
Q 3.765625 14.9375 3.765625 33.5 
Q 3.765625 54.25 11.421875 63.671875 
Q 18.109375 71.875 29.4375 71.875 
Q 37.890625 71.875 43.28125 67.140625 
Q 48.6875 62.40625 49.75 54.046875 
z
M 13.875 23.1875 
Q 13.875 18.65625 15.796875 14.5 
Q 17.71875 10.359375 21.1875 8.171875 
Q 24.65625 6 28.46875 6 
Q 34.03125 6 38.03125 10.484375 
Q 42.046875 14.984375 42.046875 22.703125 
Q 42.046875 30.125 38.078125 34.390625 
Q 34.125 38.671875 28.125 38.671875 
Q 22.171875 38.671875 18.015625 34.390625 
Q 13.875 30.125 13.875 23.1875 
z
" id="ArialMT-36"/>
      </defs>
      <g style="fill:#262626;" transform="translate(113.039335 134.197812)scale(0.1 -0.1)">
       <use xlink:href="#ArialMT-36"/>
      </g>
     </g>
    </g>
    <g id="xtick_4">
     <g id="line2d_4">
      <g>
       <use style="fill:#262626;stroke:#262626;stroke-width:0.8;" x="146.955196" xlink:href="#m9eaf96ee07" y="120.04"/>
      </g>
     </g>
     <g id="text_4">
      <!-- 8 -->
      <defs>
       <path d="M 17.671875 38.8125 
Q 12.203125 40.828125 9.5625 44.53125 
Q 6.9375 48.25 6.9375 53.421875 
Q 6.9375 61.234375 12.546875 66.546875 
Q 18.171875 71.875 27.484375 71.875 
Q 36.859375 71.875 42.578125 66.421875 
Q 48.296875 60.984375 48.296875 53.171875 
Q 48.296875 48.1875 45.671875 44.5 
Q 43.0625 40.828125 37.75 38.8125 
Q 44.34375 36.671875 47.78125 31.875 
Q 51.21875 27.09375 51.21875 20.453125 
Q 51.21875 11.28125 44.71875 5.03125 
Q 38.234375 -1.21875 27.640625 -1.21875 
Q 17.046875 -1.21875 10.546875 5.046875 
Q 4.046875 11.328125 4.046875 20.703125 
Q 4.046875 27.6875 7.59375 32.390625 
Q 11.140625 37.109375 17.671875 38.8125 
z
M 15.921875 53.71875 
Q 15.921875 48.640625 19.1875 45.40625 
Q 22.46875 42.1875 27.6875 42.1875 
Q 32.765625 42.1875 36.015625 45.375 
Q 39.265625 48.578125 39.265625 53.21875 
Q 39.265625 58.0625 35.90625 61.359375 
Q 32.5625 64.65625 27.59375 64.65625 
Q 22.5625 64.65625 19.234375 61.421875 
Q 15.921875 58.203125 15.921875 53.71875 
z
M 13.09375 20.65625 
Q 13.09375 16.890625 14.875 13.375 
Q 16.65625 9.859375 20.171875 7.921875 
Q 23.6875 6 27.734375 6 
Q 34.03125 6 38.125 10.046875 
Q 42.234375 14.109375 42.234375 20.359375 
Q 42.234375 26.703125 38.015625 30.859375 
Q 33.796875 35.015625 27.4375 35.015625 
Q 21.234375 35.015625 17.15625 30.90625 
Q 13.09375 26.8125 13.09375 20.65625 
z
" id="ArialMT-38"/>
      </defs>
      <g style="fill:#262626;" transform="translate(144.174728 134.197812)scale(0.1 -0.1)">
       <use xlink:href="#ArialMT-38"/>
      </g>
     </g>
    </g>
    <g id="xtick_5">
     <g id="line2d_5">
      <g>
       <use style="fill:#262626;stroke:#262626;stroke-width:0.8;" x="178.090589" xlink:href="#m9eaf96ee07" y="120.04"/>
      </g>
     </g>
     <g id="text_5">
      <!-- 10 -->
      <defs>
       <path d="M 37.25 0 
L 28.46875 0 
L 28.46875 56 
Q 25.296875 52.984375 20.140625 49.953125 
Q 14.984375 46.921875 10.890625 45.40625 
L 10.890625 53.90625 
Q 18.265625 57.375 23.78125 62.296875 
Q 29.296875 67.234375 31.59375 71.875 
L 37.25 71.875 
z
" id="ArialMT-31"/>
       <path d="M 4.15625 35.296875 
Q 4.15625 48 6.765625 55.734375 
Q 9.375 63.484375 14.515625 67.671875 
Q 19.671875 71.875 27.484375 71.875 
Q 33.25 71.875 37.59375 69.546875 
Q 41.9375 67.234375 44.765625 62.859375 
Q 47.609375 58.5 49.21875 52.21875 
Q 50.828125 45.953125 50.828125 35.296875 
Q 50.828125 22.703125 48.234375 14.96875 
Q 45.65625 7.234375 40.5 3 
Q 35.359375 -1.21875 27.484375 -1.21875 
Q 17.140625 -1.21875 11.234375 6.203125 
Q 4.15625 15.140625 4.15625 35.296875 
z
M 13.1875 35.296875 
Q 13.1875 17.671875 17.3125 11.828125 
Q 21.4375 6 27.484375 6 
Q 33.546875 6 37.671875 11.859375 
Q 41.796875 17.71875 41.796875 35.296875 
Q 41.796875 52.984375 37.671875 58.78125 
Q 33.546875 64.59375 27.390625 64.59375 
Q 21.34375 64.59375 17.71875 59.46875 
Q 13.1875 52.9375 13.1875 35.296875 
z
" id="ArialMT-30"/>
      </defs>
      <g style="fill:#262626;" transform="translate(172.529652 134.197812)scale(0.1 -0.1)">
       <use xlink:href="#ArialMT-31"/>
       <use x="55.615234" xlink:href="#ArialMT-30"/>
      </g>
     </g>
    </g>
    <g id="xtick_6">
     <g id="line2d_6">
      <g>
       <use style="fill:#262626;stroke:#262626;stroke-width:0.8;" x="209.225982" xlink:href="#m9eaf96ee07" y="120.04"/>
      </g>
     </g>
     <g id="text_6">
      <!-- 12 -->
      <g style="fill:#262626;" transform="translate(203.665045 134.197812)scale(0.1 -0.1)">
       <use xlink:href="#ArialMT-31"/>
       <use x="55.615234" xlink:href="#ArialMT-32"/>
      </g>
     </g>
    </g>
    <g id="text_7">
     <!-- pH -->
     <defs>
      <path d="M 6.59375 -19.875 
L 6.59375 51.859375 
L 14.59375 51.859375 
L 14.59375 45.125 
Q 17.4375 49.078125 21 51.046875 
Q 24.5625 53.03125 29.640625 53.03125 
Q 36.28125 53.03125 41.359375 49.609375 
Q 46.4375 46.1875 49.015625 39.953125 
Q 51.609375 33.734375 51.609375 26.3125 
Q 51.609375 18.359375 48.75 11.984375 
Q 45.90625 5.609375 40.453125 2.21875 
Q 35.015625 -1.171875 29 -1.171875 
Q 24.609375 -1.171875 21.109375 0.6875 
Q 17.625 2.546875 15.375 5.375 
L 15.375 -19.875 
z
M 14.546875 25.640625 
Q 14.546875 15.625 18.59375 10.84375 
Q 22.65625 6.0625 28.421875 6.0625 
Q 34.28125 6.0625 38.453125 11.015625 
Q 42.625 15.96875 42.625 26.375 
Q 42.625 36.28125 38.546875 41.203125 
Q 34.46875 46.140625 28.8125 46.140625 
Q 23.1875 46.140625 18.859375 40.890625 
Q 14.546875 35.640625 14.546875 25.640625 
z
" id="ArialMT-70"/>
      <path d="M 8.015625 0 
L 8.015625 71.578125 
L 17.484375 71.578125 
L 17.484375 42.1875 
L 54.6875 42.1875 
L 54.6875 71.578125 
L 64.15625 71.578125 
L 64.15625 0 
L 54.6875 0 
L 54.6875 33.734375 
L 17.484375 33.734375 
L 17.484375 0 
z
" id="ArialMT-48"/>
     </defs>
     <g style="fill:#262626;" transform="translate(124.996094 147.343125)scale(0.1 -0.1)">
      <use xlink:href="#ArialMT-70"/>
      <use x="55.615234" xlink:href="#ArialMT-48"/>
     </g>
    </g>
   </g>
   <g id="matplotlib.axis_2">
    <g id="ytick_1">
     <g id="line2d_7">
      <defs>
       <path d="M 0 0 
L -3.5 0 
" id="m3cb414a301" style="stroke:#262626;stroke-width:0.8;"/>
      </defs>
      <g>
       <use style="fill:#262626;stroke:#262626;stroke-width:0.8;" x="45.425" xlink:href="#m3cb414a301" y="102.307949"/>
      </g>
     </g>
     <g id="text_8">
      <!-- −5 -->
      <defs>
       <path d="M 52.828125 31.203125 
L 5.5625 31.203125 
L 5.5625 39.40625 
L 52.828125 39.40625 
z
" id="ArialMT-2212"/>
       <path d="M 4.15625 18.75 
L 13.375 19.53125 
Q 14.40625 12.796875 18.140625 9.390625 
Q 21.875 6 27.15625 6 
Q 33.5 6 37.890625 10.78125 
Q 42.28125 15.578125 42.28125 23.484375 
Q 42.28125 31 38.0625 35.34375 
Q 33.84375 39.703125 27 39.703125 
Q 22.75 39.703125 19.328125 37.765625 
Q 15.921875 35.84375 13.96875 32.765625 
L 5.71875 33.84375 
L 12.640625 70.609375 
L 48.25 70.609375 
L 48.25 62.203125 
L 19.671875 62.203125 
L 15.828125 42.96875 
Q 22.265625 47.46875 29.34375 47.46875 
Q 38.71875 47.46875 45.15625 40.96875 
Q 51.609375 34.46875 51.609375 24.265625 
Q 51.609375 14.546875 45.953125 7.46875 
Q 39.0625 -1.21875 27.15625 -1.21875 
Q 17.390625 -1.21875 11.203125 4.25 
Q 5.03125 9.71875 4.15625 18.75 
z
" id="ArialMT-35"/>
      </defs>
      <g style="fill:#262626;" transform="translate(27.023437 105.886855)scale(0.1 -0.1)">
       <use xlink:href="#ArialMT-2212"/>
       <use x="58.398438" xlink:href="#ArialMT-35"/>
      </g>
     </g>
    </g>
    <g id="ytick_2">
     <g id="line2d_8">
      <g>
       <use style="fill:#262626;stroke:#262626;stroke-width:0.8;" x="45.425" xlink:href="#m3cb414a301" y="78.242106"/>
      </g>
     </g>
     <g id="text_9">
      <!-- 0 -->
      <g style="fill:#262626;" transform="translate(32.864062 81.821012)scale(0.1 -0.1)">
       <use xlink:href="#ArialMT-30"/>
      </g>
     </g>
    </g>
    <g id="ytick_3">
     <g id="line2d_9">
      <g>
       <use style="fill:#262626;stroke:#262626;stroke-width:0.8;" x="45.425" xlink:href="#m3cb414a301" y="54.176263"/>
      </g>
     </g>
     <g id="text_10">
      <!-- 5 -->
      <g style="fill:#262626;" transform="translate(32.864062 57.755169)scale(0.1 -0.1)">
       <use xlink:href="#ArialMT-35"/>
      </g>
     </g>
    </g>
    <g id="ytick_4">
     <g id="line2d_10">
      <g>
       <use style="fill:#262626;stroke:#262626;stroke-width:0.8;" x="45.425" xlink:href="#m3cb414a301" y="30.11042"/>
      </g>
     </g>
     <g id="text_11">
      <!-- 10 -->
      <g style="fill:#262626;" transform="translate(27.303125 33.689326)scale(0.1 -0.1)">
       <use xlink:href="#ArialMT-31"/>
       <use x="55.615234" xlink:href="#ArialMT-30"/>
      </g>
     </g>
    </g>
    <g id="text_12">
     <!-- Free Energy($k_BT$) -->
     <defs>
      <path d="M 8.203125 0 
L 8.203125 71.578125 
L 56.5 71.578125 
L 56.5 63.140625 
L 17.671875 63.140625 
L 17.671875 40.96875 
L 51.265625 40.96875 
L 51.265625 32.515625 
L 17.671875 32.515625 
L 17.671875 0 
z
" id="ArialMT-46"/>
      <path d="M 6.5 0 
L 6.5 51.859375 
L 14.40625 51.859375 
L 14.40625 44 
Q 17.4375 49.515625 20 51.265625 
Q 22.5625 53.03125 25.640625 53.03125 
Q 30.078125 53.03125 34.671875 50.203125 
L 31.640625 42.046875 
Q 28.421875 43.953125 25.203125 43.953125 
Q 22.3125 43.953125 20.015625 42.21875 
Q 17.71875 40.484375 16.75 37.40625 
Q 15.28125 32.71875 15.28125 27.15625 
L 15.28125 0 
z
" id="ArialMT-72"/>
      <path d="M 42.09375 16.703125 
L 51.171875 15.578125 
Q 49.03125 7.625 43.21875 3.21875 
Q 37.40625 -1.171875 28.375 -1.171875 
Q 17 -1.171875 10.328125 5.828125 
Q 3.65625 12.84375 3.65625 25.484375 
Q 3.65625 38.578125 10.390625 45.796875 
Q 17.140625 53.03125 27.875 53.03125 
Q 38.28125 53.03125 44.875 45.953125 
Q 51.46875 38.875 51.46875 26.03125 
Q 51.46875 25.25 51.421875 23.6875 
L 12.75 23.6875 
Q 13.234375 15.140625 17.578125 10.59375 
Q 21.921875 6.0625 28.421875 6.0625 
Q 33.25 6.0625 36.671875 8.59375 
Q 40.09375 11.140625 42.09375 16.703125 
z
M 13.234375 30.90625 
L 42.1875 30.90625 
Q 41.609375 37.453125 38.875 40.71875 
Q 34.671875 45.796875 27.984375 45.796875 
Q 21.921875 45.796875 17.796875 41.75 
Q 13.671875 37.703125 13.234375 30.90625 
z
" id="ArialMT-65"/>
      <path id="ArialMT-20"/>
      <path d="M 7.90625 0 
L 7.90625 71.578125 
L 59.671875 71.578125 
L 59.671875 63.140625 
L 17.390625 63.140625 
L 17.390625 41.21875 
L 56.984375 41.21875 
L 56.984375 32.8125 
L 17.390625 32.8125 
L 17.390625 8.453125 
L 61.328125 8.453125 
L 61.328125 0 
z
" id="ArialMT-45"/>
      <path d="M 6.59375 0 
L 6.59375 51.859375 
L 14.5 51.859375 
L 14.5 44.484375 
Q 20.21875 53.03125 31 53.03125 
Q 35.6875 53.03125 39.625 51.34375 
Q 43.5625 49.65625 45.515625 46.921875 
Q 47.46875 44.1875 48.25 40.4375 
Q 48.734375 37.984375 48.734375 31.890625 
L 48.734375 0 
L 39.9375 0 
L 39.9375 31.546875 
Q 39.9375 36.921875 38.90625 39.578125 
Q 37.890625 42.234375 35.28125 43.8125 
Q 32.671875 45.40625 29.15625 45.40625 
Q 23.53125 45.40625 19.453125 41.84375 
Q 15.375 38.28125 15.375 28.328125 
L 15.375 0 
z
" id="ArialMT-6e"/>
      <path d="M 4.984375 -4.296875 
L 13.53125 -5.5625 
Q 14.0625 -9.515625 16.5 -11.328125 
Q 19.78125 -13.765625 25.4375 -13.765625 
Q 31.546875 -13.765625 34.859375 -11.328125 
Q 38.1875 -8.890625 39.359375 -4.5 
Q 40.046875 -1.8125 39.984375 6.78125 
Q 34.234375 0 25.640625 0 
Q 14.9375 0 9.078125 7.71875 
Q 3.21875 15.4375 3.21875 26.21875 
Q 3.21875 33.640625 5.90625 39.90625 
Q 8.59375 46.1875 13.6875 49.609375 
Q 18.796875 53.03125 25.6875 53.03125 
Q 34.859375 53.03125 40.828125 45.609375 
L 40.828125 51.859375 
L 48.921875 51.859375 
L 48.921875 7.03125 
Q 48.921875 -5.078125 46.453125 -10.125 
Q 44 -15.1875 38.640625 -18.109375 
Q 33.296875 -21.046875 25.484375 -21.046875 
Q 16.21875 -21.046875 10.5 -16.875 
Q 4.78125 -12.703125 4.984375 -4.296875 
z
M 12.25 26.859375 
Q 12.25 16.65625 16.296875 11.96875 
Q 20.359375 7.28125 26.46875 7.28125 
Q 32.515625 7.28125 36.609375 11.9375 
Q 40.71875 16.609375 40.71875 26.5625 
Q 40.71875 36.078125 36.5 40.90625 
Q 32.28125 45.75 26.3125 45.75 
Q 20.453125 45.75 16.34375 40.984375 
Q 12.25 36.234375 12.25 26.859375 
z
" id="ArialMT-67"/>
      <path d="M 6.203125 -19.96875 
L 5.21875 -11.71875 
Q 8.109375 -12.5 10.25 -12.5 
Q 13.1875 -12.5 14.9375 -11.515625 
Q 16.703125 -10.546875 17.828125 -8.796875 
Q 18.65625 -7.46875 20.515625 -2.25 
Q 20.75 -1.515625 21.296875 -0.09375 
L 1.609375 51.859375 
L 11.078125 51.859375 
L 21.875 21.828125 
Q 23.96875 16.109375 25.640625 9.8125 
Q 27.15625 15.875 29.25 21.625 
L 40.328125 51.859375 
L 49.125 51.859375 
L 29.390625 -0.875 
Q 26.21875 -9.421875 24.46875 -12.640625 
Q 22.125 -17 19.09375 -19.015625 
Q 16.0625 -21.046875 11.859375 -21.046875 
Q 9.328125 -21.046875 6.203125 -19.96875 
z
" id="ArialMT-79"/>
      <path d="M 23.390625 -21.046875 
Q 16.109375 -11.859375 11.078125 0.4375 
Q 6.0625 12.75 6.0625 25.921875 
Q 6.0625 37.546875 9.8125 48.1875 
Q 14.203125 60.546875 23.390625 72.796875 
L 29.6875 72.796875 
Q 23.78125 62.640625 21.875 58.296875 
Q 18.890625 51.5625 17.1875 44.234375 
Q 15.09375 35.109375 15.09375 25.875 
Q 15.09375 2.390625 29.6875 -21.046875 
z
" id="ArialMT-28"/>
      <path d="M 18.3125 75.984375 
L 27.296875 75.984375 
L 18.703125 31.6875 
L 49.515625 54.6875 
L 61.1875 54.6875 
L 26.8125 28.515625 
L 51.90625 0 
L 41.015625 0 
L 17.671875 26.703125 
L 12.5 0 
L 3.515625 0 
z
" id="DejaVuSans-Oblique-6b"/>
      <path d="M 16.890625 72.90625 
L 42.09375 72.90625 
Q 52.34375 72.90625 57.421875 69.09375 
Q 62.5 65.28125 62.5 57.625 
Q 62.5 50.59375 58.125 45.484375 
Q 53.765625 40.375 46.6875 39.3125 
Q 52.734375 37.9375 55.765625 34.078125 
Q 58.796875 30.21875 58.796875 23.78125 
Q 58.796875 12.796875 50.65625 6.390625 
Q 42.53125 0 28.421875 0 
L 2.6875 0 
z
M 19.28125 34.8125 
L 14.109375 8.109375 
L 29.984375 8.109375 
Q 38.921875 8.109375 43.75 12.203125 
Q 48.578125 16.3125 48.578125 23.78125 
Q 48.578125 29.546875 45.375 32.171875 
Q 42.1875 34.8125 35.109375 34.8125 
z
M 25.09375 64.796875 
L 20.796875 42.828125 
L 35.5 42.828125 
Q 43.359375 42.828125 47.78125 46.234375 
Q 52.203125 49.65625 52.203125 55.71875 
Q 52.203125 60.453125 49.21875 62.625 
Q 46.234375 64.796875 39.703125 64.796875 
z
" id="DejaVuSans-Oblique-42"/>
      <path d="M 5.90625 72.90625 
L 67.578125 72.90625 
L 66.015625 64.59375 
L 39.984375 64.59375 
L 27.484375 0 
L 17.578125 0 
L 30.078125 64.59375 
L 4.296875 64.59375 
z
" id="DejaVuSans-Oblique-54"/>
      <path d="M 12.359375 -21.046875 
L 6.0625 -21.046875 
Q 20.65625 2.390625 20.65625 25.875 
Q 20.65625 35.0625 18.5625 44.09375 
Q 16.890625 51.421875 13.921875 58.15625 
Q 12.015625 62.546875 6.0625 72.796875 
L 12.359375 72.796875 
Q 21.53125 60.546875 25.921875 48.1875 
Q 29.6875 37.546875 29.6875 25.921875 
Q 29.6875 12.75 24.625 0.4375 
Q 19.578125 -11.859375 12.359375 -21.046875 
z
" id="ArialMT-29"/>
     </defs>
     <g style="fill:#262626;" transform="translate(20.823437 112.27)rotate(-90)scale(0.1 -0.1)">
      <use transform="translate(0 0.015625)" xlink:href="#ArialMT-46"/>
      <use transform="translate(61.083984 0.015625)" xlink:href="#ArialMT-72"/>
      <use transform="translate(94.384766 0.015625)" xlink:href="#ArialMT-65"/>
      <use transform="translate(150 0.015625)" xlink:href="#ArialMT-65"/>
      <use transform="translate(205.615234 0.015625)" xlink:href="#ArialMT-20"/>
      <use transform="translate(233.398438 0.015625)" xlink:href="#ArialMT-45"/>
      <use transform="translate(300.097656 0.015625)" xlink:href="#ArialMT-6e"/>
      <use transform="translate(355.712891 0.015625)" xlink:href="#ArialMT-65"/>
      <use transform="translate(411.328125 0.015625)" xlink:href="#ArialMT-72"/>
      <use transform="translate(444.628906 0.015625)" xlink:href="#ArialMT-67"/>
      <use transform="translate(500.244141 0.015625)" xlink:href="#ArialMT-79"/>
      <use transform="translate(550.244141 0.015625)" xlink:href="#ArialMT-28"/>
      <use transform="translate(583.544922 0.015625)" xlink:href="#DejaVuSans-Oblique-6b"/>
      <use transform="translate(641.455078 -16.390625)scale(0.7)" xlink:href="#DejaVuSans-Oblique-42"/>
      <use transform="translate(692.211914 0.015625)" xlink:href="#DejaVuSans-Oblique-54"/>
      <use transform="translate(753.295898 0.015625)" xlink:href="#ArialMT-29"/>
     </g>
    </g>
   </g>
   <g id="PathCollection_1">
    <defs>
     <path d="M 0 0.5 
C 0.132602 0.5 0.25979 0.447317 0.353553 0.353553 
C 0.447317 0.25979 0.5 0.132602 0.5 0 
C 0.5 -0.132602 0.447317 -0.25979 0.353553 -0.353553 
C 0.25979 -0.447317 0.132602 -0.5 0 -0.5 
C -0.132602 -0.5 -0.25979 -0.447317 -0.353553 -0.353553 
C -0.447317 -0.25979 -0.5 -0.132602 -0.5 0 
C -0.5 0.132602 -0.447317 0.25979 -0.353553 0.353553 
C -0.25979 0.447317 -0.132602 0.5 0 0.5 
z
" id="m3ce6b140f8" style="stroke:#92c5de;"/>
    </defs>
    <g clip-path="url(#paef20d407f)">
     <use style="fill:#92c5de;stroke:#92c5de;" x="53.549017" xlink:href="#m3ce6b140f8" y="115.743544"/>
     <use style="fill:#92c5de;stroke:#92c5de;" x="55.105787" xlink:href="#m3ce6b140f8" y="114.561545"/>
     <use style="fill:#92c5de;stroke:#92c5de;" x="56.662557" xlink:href="#m3ce6b140f8" y="113.378735"/>
     <use style="fill:#92c5de;stroke:#92c5de;" x="58.219326" xlink:href="#m3ce6b140f8" y="112.195924"/>
     <use style="fill:#92c5de;stroke:#92c5de;" x="59.776096" xlink:href="#m3ce6b140f8" y="111.013925"/>
     <use style="fill:#92c5de;stroke:#92c5de;" x="61.332866" xlink:href="#m3ce6b140f8" y="109.831115"/>
     <use style="fill:#92c5de;stroke:#92c5de;" x="62.889635" xlink:href="#m3ce6b140f8" y="108.648304"/>
     <use style="fill:#92c5de;stroke:#92c5de;" x="64.446405" xlink:href="#m3ce6b140f8" y="107.465493"/>
     <use style="fill:#92c5de;stroke:#92c5de;" x="66.003174" xlink:href="#m3ce6b140f8" y="106.282682"/>
     <use style="fill:#92c5de;stroke:#92c5de;" x="67.559944" xlink:href="#m3ce6b140f8" y="105.100684"/>
     <use style="fill:#92c5de;stroke:#92c5de;" x="69.116714" xlink:href="#m3ce6b140f8" y="103.917873"/>
     <use style="fill:#92c5de;stroke:#92c5de;" x="70.673483" xlink:href="#m3ce6b140f8" y="102.735062"/>
     <use style="fill:#92c5de;stroke:#92c5de;" x="72.230253" xlink:href="#m3ce6b140f8" y="94.774648"/>
     <use style="fill:#92c5de;stroke:#92c5de;" x="73.787023" xlink:href="#m3ce6b140f8" y="93.591838"/>
     <use style="fill:#92c5de;stroke:#92c5de;" x="75.343792" xlink:href="#m3ce6b140f8" y="92.409027"/>
     <use style="fill:#92c5de;stroke:#92c5de;" x="76.900562" xlink:href="#m3ce6b140f8" y="91.226216"/>
     <use style="fill:#92c5de;stroke:#92c5de;" x="78.457332" xlink:href="#m3ce6b140f8" y="90.043405"/>
     <use style="fill:#92c5de;stroke:#92c5de;" x="80.014101" xlink:href="#m3ce6b140f8" y="88.861407"/>
     <use style="fill:#92c5de;stroke:#92c5de;" x="81.570871" xlink:href="#m3ce6b140f8" y="87.678596"/>
     <use style="fill:#92c5de;stroke:#92c5de;" x="83.127641" xlink:href="#m3ce6b140f8" y="86.495785"/>
     <use style="fill:#92c5de;stroke:#92c5de;" x="84.68441" xlink:href="#m3ce6b140f8" y="85.312975"/>
     <use style="fill:#92c5de;stroke:#92c5de;" x="86.24118" xlink:href="#m3ce6b140f8" y="84.130164"/>
     <use style="fill:#92c5de;stroke:#92c5de;" x="87.79795" xlink:href="#m3ce6b140f8" y="82.948165"/>
     <use style="fill:#92c5de;stroke:#92c5de;" x="89.354719" xlink:href="#m3ce6b140f8" y="81.765355"/>
     <use style="fill:#92c5de;stroke:#92c5de;" x="90.911489" xlink:href="#m3ce6b140f8" y="80.582544"/>
     <use style="fill:#92c5de;stroke:#92c5de;" x="92.468259" xlink:href="#m3ce6b140f8" y="79.400546"/>
     <use style="fill:#92c5de;stroke:#92c5de;" x="94.025028" xlink:href="#m3ce6b140f8" y="78.217735"/>
     <use style="fill:#92c5de;stroke:#92c5de;" x="95.581798" xlink:href="#m3ce6b140f8" y="77.035736"/>
     <use style="fill:#92c5de;stroke:#92c5de;" x="97.138567" xlink:href="#m3ce6b140f8" y="75.852926"/>
     <use style="fill:#92c5de;stroke:#92c5de;" x="98.695337" xlink:href="#m3ce6b140f8" y="74.669302"/>
     <use style="fill:#92c5de;stroke:#92c5de;" x="100.252107" xlink:href="#m3ce6b140f8" y="73.487304"/>
     <use style="fill:#92c5de;stroke:#92c5de;" x="101.808876" xlink:href="#m3ce6b140f8" y="72.304493"/>
     <use style="fill:#92c5de;stroke:#92c5de;" x="103.365646" xlink:href="#m3ce6b140f8" y="71.122495"/>
     <use style="fill:#92c5de;stroke:#92c5de;" x="104.922416" xlink:href="#m3ce6b140f8" y="69.939684"/>
     <use style="fill:#92c5de;stroke:#92c5de;" x="106.479185" xlink:href="#m3ce6b140f8" y="68.756873"/>
     <use style="fill:#92c5de;stroke:#92c5de;" x="108.035955" xlink:href="#m3ce6b140f8" y="67.574063"/>
     <use style="fill:#92c5de;stroke:#92c5de;" x="109.592725" xlink:href="#m3ce6b140f8" y="66.391252"/>
     <use style="fill:#92c5de;stroke:#92c5de;" x="111.149494" xlink:href="#m3ce6b140f8" y="65.208441"/>
     <use style="fill:#92c5de;stroke:#92c5de;" x="112.706264" xlink:href="#m3ce6b140f8" y="64.02563"/>
     <use style="fill:#92c5de;stroke:#92c5de;" x="114.263034" xlink:href="#m3ce6b140f8" y="62.843632"/>
     <use style="fill:#92c5de;stroke:#92c5de;" x="115.819803" xlink:href="#m3ce6b140f8" y="61.660821"/>
     <use style="fill:#92c5de;stroke:#92c5de;" x="117.376573" xlink:href="#m3ce6b140f8" y="60.478823"/>
     <use style="fill:#92c5de;stroke:#92c5de;" x="118.933343" xlink:href="#m3ce6b140f8" y="59.296012"/>
     <use style="fill:#92c5de;stroke:#92c5de;" x="120.490112" xlink:href="#m3ce6b140f8" y="58.113201"/>
     <use style="fill:#92c5de;stroke:#92c5de;" x="122.046882" xlink:href="#m3ce6b140f8" y="56.931203"/>
     <use style="fill:#92c5de;stroke:#92c5de;" x="123.603652" xlink:href="#m3ce6b140f8" y="55.74758"/>
     <use style="fill:#92c5de;stroke:#92c5de;" x="125.160421" xlink:href="#m3ce6b140f8" y="54.565581"/>
     <use style="fill:#92c5de;stroke:#92c5de;" x="126.717191" xlink:href="#m3ce6b140f8" y="53.38277"/>
     <use style="fill:#92c5de;stroke:#92c5de;" x="128.27396" xlink:href="#m3ce6b140f8" y="52.19996"/>
     <use style="fill:#92c5de;stroke:#92c5de;" x="129.83073" xlink:href="#m3ce6b140f8" y="51.017149"/>
     <use style="fill:#92c5de;stroke:#92c5de;" x="131.3875" xlink:href="#m3ce6b140f8" y="49.834338"/>
     <use style="fill:#92c5de;stroke:#92c5de;" x="132.944269" xlink:href="#m3ce6b140f8" y="48.65234"/>
     <use style="fill:#92c5de;stroke:#92c5de;" x="134.501039" xlink:href="#m3ce6b140f8" y="47.469529"/>
     <use style="fill:#92c5de;stroke:#92c5de;" x="136.057809" xlink:href="#m3ce6b140f8" y="46.286718"/>
     <use style="fill:#92c5de;stroke:#92c5de;" x="137.614578" xlink:href="#m3ce6b140f8" y="45.103907"/>
     <use style="fill:#92c5de;stroke:#92c5de;" x="139.171348" xlink:href="#m3ce6b140f8" y="43.921909"/>
     <use style="fill:#92c5de;stroke:#92c5de;" x="140.728118" xlink:href="#m3ce6b140f8" y="42.739098"/>
     <use style="fill:#92c5de;stroke:#92c5de;" x="142.284887" xlink:href="#m3ce6b140f8" y="41.556288"/>
     <use style="fill:#92c5de;stroke:#92c5de;" x="143.841657" xlink:href="#m3ce6b140f8" y="40.373477"/>
     <use style="fill:#92c5de;stroke:#92c5de;" x="145.398427" xlink:href="#m3ce6b140f8" y="32.704704"/>
     <use style="fill:#92c5de;stroke:#92c5de;" x="146.955196" xlink:href="#m3ce6b140f8" y="31.522705"/>
     <use style="fill:#92c5de;stroke:#92c5de;" x="148.511966" xlink:href="#m3ce6b140f8" y="30.339894"/>
    </g>
   </g>
   <g id="PathCollection_2">
    <defs>
     <path d="M 0 0.5 
C 0.132602 0.5 0.25979 0.447317 0.353553 0.353553 
C 0.447317 0.25979 0.5 0.132602 0.5 0 
C 0.5 -0.132602 0.447317 -0.25979 0.353553 -0.353553 
C 0.25979 -0.447317 0.132602 -0.5 0 -0.5 
C -0.132602 -0.5 -0.25979 -0.447317 -0.353553 -0.353553 
C -0.447317 -0.25979 -0.5 -0.132602 -0.5 0 
C -0.5 0.132602 -0.447317 0.25979 -0.353553 0.353553 
C -0.25979 0.447317 -0.132602 0.5 0 0.5 
z
" id="m3d87e48a0e" style="stroke:#333333;"/>
    </defs>
    <g clip-path="url(#paef20d407f)">
     <use style="fill:#333333;stroke:#333333;" x="53.549017" xlink:href="#m3d87e48a0e" y="78.242106"/>
     <use style="fill:#333333;stroke:#333333;" x="55.105787" xlink:href="#m3d87e48a0e" y="78.242106"/>
     <use style="fill:#333333;stroke:#333333;" x="56.662557" xlink:href="#m3d87e48a0e" y="78.242106"/>
     <use style="fill:#333333;stroke:#333333;" x="58.219326" xlink:href="#m3d87e48a0e" y="78.242106"/>
     <use style="fill:#333333;stroke:#333333;" x="59.776096" xlink:href="#m3d87e48a0e" y="78.242106"/>
     <use style="fill:#333333;stroke:#333333;" x="61.332866" xlink:href="#m3d87e48a0e" y="78.242106"/>
     <use style="fill:#333333;stroke:#333333;" x="62.889635" xlink:href="#m3d87e48a0e" y="78.242106"/>
     <use style="fill:#333333;stroke:#333333;" x="64.446405" xlink:href="#m3d87e48a0e" y="78.242106"/>
     <use style="fill:#333333;stroke:#333333;" x="66.003174" xlink:href="#m3d87e48a0e" y="78.242106"/>
     <use style="fill:#333333;stroke:#333333;" x="67.559944" xlink:href="#m3d87e48a0e" y="78.242106"/>
     <use style="fill:#333333;stroke:#333333;" x="69.116714" xlink:href="#m3d87e48a0e" y="78.242106"/>
     <use style="fill:#333333;stroke:#333333;" x="70.673483" xlink:href="#m3d87e48a0e" y="78.242106"/>
     <use style="fill:#333333;stroke:#333333;" x="72.230253" xlink:href="#m3d87e48a0e" y="78.242106"/>
     <use style="fill:#333333;stroke:#333333;" x="73.787023" xlink:href="#m3d87e48a0e" y="78.242106"/>
     <use style="fill:#333333;stroke:#333333;" x="75.343792" xlink:href="#m3d87e48a0e" y="78.242106"/>
     <use style="fill:#333333;stroke:#333333;" x="76.900562" xlink:href="#m3d87e48a0e" y="78.242106"/>
     <use style="fill:#333333;stroke:#333333;" x="78.457332" xlink:href="#m3d87e48a0e" y="78.242106"/>
     <use style="fill:#333333;stroke:#333333;" x="80.014101" xlink:href="#m3d87e48a0e" y="78.242106"/>
     <use style="fill:#333333;stroke:#333333;" x="81.570871" xlink:href="#m3d87e48a0e" y="78.242106"/>
     <use style="fill:#333333;stroke:#333333;" x="83.127641" xlink:href="#m3d87e48a0e" y="78.242106"/>
     <use style="fill:#333333;stroke:#333333;" x="84.68441" xlink:href="#m3d87e48a0e" y="78.242106"/>
     <use style="fill:#333333;stroke:#333333;" x="86.24118" xlink:href="#m3d87e48a0e" y="78.242106"/>
     <use style="fill:#333333;stroke:#333333;" x="87.79795" xlink:href="#m3d87e48a0e" y="78.242106"/>
     <use style="fill:#333333;stroke:#333333;" x="89.354719" xlink:href="#m3d87e48a0e" y="78.242106"/>
     <use style="fill:#333333;stroke:#333333;" x="90.911489" xlink:href="#m3d87e48a0e" y="78.242106"/>
     <use style="fill:#333333;stroke:#333333;" x="92.468259" xlink:href="#m3d87e48a0e" y="78.242106"/>
     <use style="fill:#333333;stroke:#333333;" x="94.025028" xlink:href="#m3d87e48a0e" y="78.242106"/>
     <use style="fill:#333333;stroke:#333333;" x="95.581798" xlink:href="#m3d87e48a0e" y="78.242106"/>
     <use style="fill:#333333;stroke:#333333;" x="97.138567" xlink:href="#m3d87e48a0e" y="78.242106"/>
     <use style="fill:#333333;stroke:#333333;" x="98.695337" xlink:href="#m3d87e48a0e" y="78.242106"/>
     <use style="fill:#333333;stroke:#333333;" x="100.252107" xlink:href="#m3d87e48a0e" y="78.242106"/>
     <use style="fill:#333333;stroke:#333333;" x="101.808876" xlink:href="#m3d87e48a0e" y="78.242106"/>
     <use style="fill:#333333;stroke:#333333;" x="103.365646" xlink:href="#m3d87e48a0e" y="78.242106"/>
     <use style="fill:#333333;stroke:#333333;" x="104.922416" xlink:href="#m3d87e48a0e" y="78.242106"/>
     <use style="fill:#333333;stroke:#333333;" x="106.479185" xlink:href="#m3d87e48a0e" y="78.242106"/>
     <use style="fill:#333333;stroke:#333333;" x="108.035955" xlink:href="#m3d87e48a0e" y="78.242106"/>
     <use style="fill:#333333;stroke:#333333;" x="109.592725" xlink:href="#m3d87e48a0e" y="78.242106"/>
     <use style="fill:#333333;stroke:#333333;" x="111.149494" xlink:href="#m3d87e48a0e" y="78.242106"/>
     <use style="fill:#333333;stroke:#333333;" x="112.706264" xlink:href="#m3d87e48a0e" y="78.242106"/>
     <use style="fill:#333333;stroke:#333333;" x="114.263034" xlink:href="#m3d87e48a0e" y="78.242106"/>
     <use style="fill:#333333;stroke:#333333;" x="115.819803" xlink:href="#m3d87e48a0e" y="78.242106"/>
     <use style="fill:#333333;stroke:#333333;" x="117.376573" xlink:href="#m3d87e48a0e" y="78.242106"/>
     <use style="fill:#333333;stroke:#333333;" x="118.933343" xlink:href="#m3d87e48a0e" y="78.242106"/>
     <use style="fill:#333333;stroke:#333333;" x="120.490112" xlink:href="#m3d87e48a0e" y="78.242106"/>
     <use style="fill:#333333;stroke:#333333;" x="122.046882" xlink:href="#m3d87e48a0e" y="78.242106"/>
     <use style="fill:#333333;stroke:#333333;" x="123.603652" xlink:href="#m3d87e48a0e" y="78.242106"/>
     <use style="fill:#333333;stroke:#333333;" x="125.160421" xlink:href="#m3d87e48a0e" y="78.242106"/>
     <use style="fill:#333333;stroke:#333333;" x="126.717191" xlink:href="#m3d87e48a0e" y="78.242106"/>
     <use style="fill:#333333;stroke:#333333;" x="128.27396" xlink:href="#m3d87e48a0e" y="78.242106"/>
     <use style="fill:#333333;stroke:#333333;" x="129.83073" xlink:href="#m3d87e48a0e" y="78.242106"/>
     <use style="fill:#333333;stroke:#333333;" x="131.3875" xlink:href="#m3d87e48a0e" y="78.242106"/>
     <use style="fill:#333333;stroke:#333333;" x="132.944269" xlink:href="#m3d87e48a0e" y="78.242106"/>
     <use style="fill:#333333;stroke:#333333;" x="134.501039" xlink:href="#m3d87e48a0e" y="78.242106"/>
     <use style="fill:#333333;stroke:#333333;" x="136.057809" xlink:href="#m3d87e48a0e" y="78.242106"/>
     <use style="fill:#333333;stroke:#333333;" x="137.614578" xlink:href="#m3d87e48a0e" y="78.242106"/>
     <use style="fill:#333333;stroke:#333333;" x="139.171348" xlink:href="#m3d87e48a0e" y="78.242106"/>
     <use style="fill:#333333;stroke:#333333;" x="140.728118" xlink:href="#m3d87e48a0e" y="78.242106"/>
     <use style="fill:#333333;stroke:#333333;" x="142.284887" xlink:href="#m3d87e48a0e" y="78.242106"/>
     <use style="fill:#333333;stroke:#333333;" x="143.841657" xlink:href="#m3d87e48a0e" y="78.242106"/>
     <use style="fill:#333333;stroke:#333333;" x="145.398427" xlink:href="#m3d87e48a0e" y="78.242106"/>
     <use style="fill:#333333;stroke:#333333;" x="146.955196" xlink:href="#m3d87e48a0e" y="78.242106"/>
     <use style="fill:#333333;stroke:#333333;" x="148.511966" xlink:href="#m3d87e48a0e" y="78.242106"/>
     <use style="fill:#333333;stroke:#333333;" x="150.068736" xlink:href="#m3d87e48a0e" y="78.242106"/>
     <use style="fill:#333333;stroke:#333333;" x="151.625505" xlink:href="#m3d87e48a0e" y="78.242106"/>
     <use style="fill:#333333;stroke:#333333;" x="153.182275" xlink:href="#m3d87e48a0e" y="78.242106"/>
     <use style="fill:#333333;stroke:#333333;" x="154.739045" xlink:href="#m3d87e48a0e" y="78.242106"/>
     <use style="fill:#333333;stroke:#333333;" x="156.295814" xlink:href="#m3d87e48a0e" y="78.242106"/>
     <use style="fill:#333333;stroke:#333333;" x="157.852584" xlink:href="#m3d87e48a0e" y="78.242106"/>
     <use style="fill:#333333;stroke:#333333;" x="159.409353" xlink:href="#m3d87e48a0e" y="78.242106"/>
     <use style="fill:#333333;stroke:#333333;" x="160.966123" xlink:href="#m3d87e48a0e" y="78.242106"/>
     <use style="fill:#333333;stroke:#333333;" x="162.522893" xlink:href="#m3d87e48a0e" y="78.242106"/>
     <use style="fill:#333333;stroke:#333333;" x="164.079662" xlink:href="#m3d87e48a0e" y="78.242106"/>
     <use style="fill:#333333;stroke:#333333;" x="165.636432" xlink:href="#m3d87e48a0e" y="78.242106"/>
     <use style="fill:#333333;stroke:#333333;" x="167.193202" xlink:href="#m3d87e48a0e" y="78.242106"/>
     <use style="fill:#333333;stroke:#333333;" x="168.749971" xlink:href="#m3d87e48a0e" y="78.242106"/>
     <use style="fill:#333333;stroke:#333333;" x="170.306741" xlink:href="#m3d87e48a0e" y="78.242106"/>
     <use style="fill:#333333;stroke:#333333;" x="171.863511" xlink:href="#m3d87e48a0e" y="78.242106"/>
     <use style="fill:#333333;stroke:#333333;" x="173.42028" xlink:href="#m3d87e48a0e" y="78.242106"/>
     <use style="fill:#333333;stroke:#333333;" x="174.97705" xlink:href="#m3d87e48a0e" y="78.242106"/>
     <use style="fill:#333333;stroke:#333333;" x="176.53382" xlink:href="#m3d87e48a0e" y="78.242106"/>
     <use style="fill:#333333;stroke:#333333;" x="178.090589" xlink:href="#m3d87e48a0e" y="78.242106"/>
     <use style="fill:#333333;stroke:#333333;" x="179.647359" xlink:href="#m3d87e48a0e" y="78.242106"/>
     <use style="fill:#333333;stroke:#333333;" x="181.204129" xlink:href="#m3d87e48a0e" y="78.242106"/>
     <use style="fill:#333333;stroke:#333333;" x="182.760898" xlink:href="#m3d87e48a0e" y="78.242106"/>
     <use style="fill:#333333;stroke:#333333;" x="184.317668" xlink:href="#m3d87e48a0e" y="78.242106"/>
     <use style="fill:#333333;stroke:#333333;" x="185.874438" xlink:href="#m3d87e48a0e" y="78.242106"/>
     <use style="fill:#333333;stroke:#333333;" x="187.431207" xlink:href="#m3d87e48a0e" y="78.242106"/>
     <use style="fill:#333333;stroke:#333333;" x="188.987977" xlink:href="#m3d87e48a0e" y="78.242106"/>
     <use style="fill:#333333;stroke:#333333;" x="190.544746" xlink:href="#m3d87e48a0e" y="78.242106"/>
     <use style="fill:#333333;stroke:#333333;" x="192.101516" xlink:href="#m3d87e48a0e" y="78.242106"/>
     <use style="fill:#333333;stroke:#333333;" x="193.658286" xlink:href="#m3d87e48a0e" y="78.242106"/>
     <use style="fill:#333333;stroke:#333333;" x="195.215055" xlink:href="#m3d87e48a0e" y="78.242106"/>
     <use style="fill:#333333;stroke:#333333;" x="196.771825" xlink:href="#m3d87e48a0e" y="78.242106"/>
     <use style="fill:#333333;stroke:#333333;" x="198.328595" xlink:href="#m3d87e48a0e" y="78.242106"/>
     <use style="fill:#333333;stroke:#333333;" x="199.885364" xlink:href="#m3d87e48a0e" y="78.242106"/>
     <use style="fill:#333333;stroke:#333333;" x="201.442134" xlink:href="#m3d87e48a0e" y="78.242106"/>
     <use style="fill:#333333;stroke:#333333;" x="202.998904" xlink:href="#m3d87e48a0e" y="78.242106"/>
     <use style="fill:#333333;stroke:#333333;" x="204.555673" xlink:href="#m3d87e48a0e" y="78.242106"/>
     <use style="fill:#333333;stroke:#333333;" x="206.112443" xlink:href="#m3d87e48a0e" y="78.242106"/>
     <use style="fill:#333333;stroke:#333333;" x="207.669213" xlink:href="#m3d87e48a0e" y="78.242106"/>
     <use style="fill:#333333;stroke:#333333;" x="209.225982" xlink:href="#m3d87e48a0e" y="78.242106"/>
    </g>
   </g>
   <g id="PathCollection_3">
    <g clip-path="url(#paef20d407f)">
     <use style="fill:#92c5de;stroke:#92c5de;" x="53.549017" xlink:href="#m3ce6b140f8" y="82.835246"/>
     <use style="fill:#92c5de;stroke:#92c5de;" x="55.105787" xlink:href="#m3ce6b140f8" y="81.652435"/>
     <use style="fill:#92c5de;stroke:#92c5de;" x="56.662557" xlink:href="#m3ce6b140f8" y="80.470437"/>
     <use style="fill:#92c5de;stroke:#92c5de;" x="58.219326" xlink:href="#m3ce6b140f8" y="79.287626"/>
     <use style="fill:#92c5de;stroke:#92c5de;" x="59.776096" xlink:href="#m3ce6b140f8" y="78.104815"/>
     <use style="fill:#92c5de;stroke:#92c5de;" x="61.332866" xlink:href="#m3ce6b140f8" y="76.922817"/>
     <use style="fill:#92c5de;stroke:#92c5de;" x="62.889635" xlink:href="#m3ce6b140f8" y="75.739194"/>
     <use style="fill:#92c5de;stroke:#92c5de;" x="64.446405" xlink:href="#m3ce6b140f8" y="74.556383"/>
     <use style="fill:#92c5de;stroke:#92c5de;" x="66.003174" xlink:href="#m3ce6b140f8" y="73.374385"/>
     <use style="fill:#92c5de;stroke:#92c5de;" x="67.559944" xlink:href="#m3ce6b140f8" y="72.192386"/>
     <use style="fill:#92c5de;stroke:#92c5de;" x="69.116714" xlink:href="#m3ce6b140f8" y="71.009575"/>
     <use style="fill:#92c5de;stroke:#92c5de;" x="70.673483" xlink:href="#m3ce6b140f8" y="69.826765"/>
     <use style="fill:#92c5de;stroke:#92c5de;" x="72.230253" xlink:href="#m3ce6b140f8" y="75.422369"/>
     <use style="fill:#92c5de;stroke:#92c5de;" x="73.787023" xlink:href="#m3ce6b140f8" y="74.239559"/>
     <use style="fill:#92c5de;stroke:#92c5de;" x="75.343792" xlink:href="#m3ce6b140f8" y="73.056748"/>
     <use style="fill:#92c5de;stroke:#92c5de;" x="76.900562" xlink:href="#m3ce6b140f8" y="71.873937"/>
     <use style="fill:#92c5de;stroke:#92c5de;" x="78.457332" xlink:href="#m3ce6b140f8" y="70.691939"/>
     <use style="fill:#92c5de;stroke:#92c5de;" x="80.014101" xlink:href="#m3ce6b140f8" y="69.50994"/>
     <use style="fill:#92c5de;stroke:#92c5de;" x="81.570871" xlink:href="#m3ce6b140f8" y="68.32713"/>
     <use style="fill:#92c5de;stroke:#92c5de;" x="83.127641" xlink:href="#m3ce6b140f8" y="67.143506"/>
     <use style="fill:#92c5de;stroke:#92c5de;" x="84.68441" xlink:href="#m3ce6b140f8" y="65.961508"/>
     <use style="fill:#92c5de;stroke:#92c5de;" x="86.24118" xlink:href="#m3ce6b140f8" y="64.778697"/>
     <use style="fill:#92c5de;stroke:#92c5de;" x="87.79795" xlink:href="#m3ce6b140f8" y="63.596699"/>
     <use style="fill:#92c5de;stroke:#92c5de;" x="89.354719" xlink:href="#m3ce6b140f8" y="62.413888"/>
     <use style="fill:#92c5de;stroke:#92c5de;" x="90.911489" xlink:href="#m3ce6b140f8" y="61.230265"/>
     <use style="fill:#92c5de;stroke:#92c5de;" x="92.468259" xlink:href="#m3ce6b140f8" y="60.048267"/>
     <use style="fill:#92c5de;stroke:#92c5de;" x="94.025028" xlink:href="#m3ce6b140f8" y="58.866268"/>
     <use style="fill:#92c5de;stroke:#92c5de;" x="95.581798" xlink:href="#m3ce6b140f8" y="57.683457"/>
     <use style="fill:#92c5de;stroke:#92c5de;" x="97.138567" xlink:href="#m3ce6b140f8" y="56.500647"/>
     <use style="fill:#92c5de;stroke:#92c5de;" x="98.695337" xlink:href="#m3ce6b140f8" y="55.317836"/>
     <use style="fill:#92c5de;stroke:#92c5de;" x="100.252107" xlink:href="#m3ce6b140f8" y="54.135025"/>
     <use style="fill:#92c5de;stroke:#92c5de;" x="101.808876" xlink:href="#m3ce6b140f8" y="52.952214"/>
     <use style="fill:#92c5de;stroke:#92c5de;" x="103.365646" xlink:href="#m3ce6b140f8" y="51.770216"/>
     <use style="fill:#92c5de;stroke:#92c5de;" x="104.922416" xlink:href="#m3ce6b140f8" y="50.587405"/>
     <use style="fill:#92c5de;stroke:#92c5de;" x="106.479185" xlink:href="#m3ce6b140f8" y="49.404594"/>
     <use style="fill:#92c5de;stroke:#92c5de;" x="108.035955" xlink:href="#m3ce6b140f8" y="48.221784"/>
     <use style="fill:#92c5de;stroke:#92c5de;" x="109.592725" xlink:href="#m3ce6b140f8" y="47.039785"/>
     <use style="fill:#92c5de;stroke:#92c5de;" x="111.149494" xlink:href="#m3ce6b140f8" y="45.856974"/>
     <use style="fill:#92c5de;stroke:#92c5de;" x="112.706264" xlink:href="#m3ce6b140f8" y="44.674164"/>
     <use style="fill:#92c5de;stroke:#92c5de;" x="114.263034" xlink:href="#m3ce6b140f8" y="43.491353"/>
     <use style="fill:#92c5de;stroke:#92c5de;" x="115.819803" xlink:href="#m3ce6b140f8" y="42.308542"/>
     <use style="fill:#92c5de;stroke:#92c5de;" x="117.376573" xlink:href="#m3ce6b140f8" y="41.126544"/>
     <use style="fill:#92c5de;stroke:#92c5de;" x="118.933343" xlink:href="#m3ce6b140f8" y="39.944545"/>
     <use style="fill:#92c5de;stroke:#92c5de;" x="120.490112" xlink:href="#m3ce6b140f8" y="38.760922"/>
     <use style="fill:#92c5de;stroke:#92c5de;" x="122.046882" xlink:href="#m3ce6b140f8" y="37.578924"/>
     <use style="fill:#92c5de;stroke:#92c5de;" x="123.603652" xlink:href="#m3ce6b140f8" y="36.396113"/>
     <use style="fill:#92c5de;stroke:#92c5de;" x="125.160421" xlink:href="#m3ce6b140f8" y="35.213302"/>
     <use style="fill:#92c5de;stroke:#92c5de;" x="126.717191" xlink:href="#m3ce6b140f8" y="34.030492"/>
     <use style="fill:#92c5de;stroke:#92c5de;" x="128.27396" xlink:href="#m3ce6b140f8" y="32.848493"/>
     <use style="fill:#92c5de;stroke:#92c5de;" x="129.83073" xlink:href="#m3ce6b140f8" y="31.665682"/>
     <use style="fill:#92c5de;stroke:#92c5de;" x="131.3875" xlink:href="#m3ce6b140f8" y="30.482872"/>
    </g>
   </g>
   <g id="PathCollection_4">
    <defs>
     <path d="M 0 0.5 
C 0.132602 0.5 0.25979 0.447317 0.353553 0.353553 
C 0.447317 0.25979 0.5 0.132602 0.5 0 
C 0.5 -0.132602 0.447317 -0.25979 0.353553 -0.353553 
C 0.25979 -0.447317 0.132602 -0.5 0 -0.5 
C -0.132602 -0.5 -0.25979 -0.447317 -0.353553 -0.353553 
C -0.447317 -0.25979 -0.5 -0.132602 -0.5 0 
C -0.5 0.132602 -0.447317 0.25979 -0.353553 0.353553 
C -0.25979 0.447317 -0.132602 0.5 0 0.5 
z
" id="mae997e529c" style="stroke:#4393c3;"/>
    </defs>
    <g clip-path="url(#paef20d407f)">
     <use style="fill:#4393c3;stroke:#4393c3;" x="53.549017" xlink:href="#mae997e529c" y="73.654652"/>
     <use style="fill:#4393c3;stroke:#4393c3;" x="55.105787" xlink:href="#mae997e529c" y="71.289843"/>
     <use style="fill:#4393c3;stroke:#4393c3;" x="56.662557" xlink:href="#mae997e529c" y="68.924222"/>
     <use style="fill:#4393c3;stroke:#4393c3;" x="58.219326" xlink:href="#mae997e529c" y="66.5586"/>
     <use style="fill:#4393c3;stroke:#4393c3;" x="59.776096" xlink:href="#mae997e529c" y="64.193791"/>
     <use style="fill:#4393c3;stroke:#4393c3;" x="61.332866" xlink:href="#mae997e529c" y="61.828982"/>
    </g>
   </g>
   <g id="PathCollection_5">
    <defs>
     <path d="M 0 0.5 
C 0.132602 0.5 0.25979 0.447317 0.353553 0.353553 
C 0.447317 0.25979 0.5 0.132602 0.5 0 
C 0.5 -0.132602 0.447317 -0.25979 0.353553 -0.353553 
C 0.25979 -0.447317 0.132602 -0.5 0 -0.5 
C -0.132602 -0.5 -0.25979 -0.447317 -0.353553 -0.353553 
C -0.447317 -0.25979 -0.5 -0.132602 -0.5 0 
C -0.5 0.132602 -0.447317 0.25979 -0.353553 0.353553 
C -0.25979 0.447317 -0.132602 0.5 0 0.5 
z
" id="mfb7c3c49a3" style="stroke:#f4a582;"/>
    </defs>
    <g clip-path="url(#paef20d407f)">
     <use style="fill:#f4a582;stroke:#f4a582;" x="162.522893" xlink:href="#mfb7c3c49a3" y="30.334208"/>
     <use style="fill:#f4a582;stroke:#f4a582;" x="164.079662" xlink:href="#mfb7c3c49a3" y="31.516206"/>
     <use style="fill:#f4a582;stroke:#f4a582;" x="165.636432" xlink:href="#mfb7c3c49a3" y="32.699017"/>
     <use style="fill:#f4a582;stroke:#f4a582;" x="167.193202" xlink:href="#mfb7c3c49a3" y="33.88264"/>
     <use style="fill:#f4a582;stroke:#f4a582;" x="168.749971" xlink:href="#mfb7c3c49a3" y="35.064639"/>
     <use style="fill:#f4a582;stroke:#f4a582;" x="170.306741" xlink:href="#mfb7c3c49a3" y="36.247449"/>
     <use style="fill:#f4a582;stroke:#f4a582;" x="171.863511" xlink:href="#mfb7c3c49a3" y="37.429448"/>
     <use style="fill:#f4a582;stroke:#f4a582;" x="173.42028" xlink:href="#mfb7c3c49a3" y="38.613071"/>
     <use style="fill:#f4a582;stroke:#f4a582;" x="174.97705" xlink:href="#mfb7c3c49a3" y="39.795069"/>
     <use style="fill:#f4a582;stroke:#f4a582;" x="176.53382" xlink:href="#mfb7c3c49a3" y="40.97788"/>
     <use style="fill:#f4a582;stroke:#f4a582;" x="178.090589" xlink:href="#mfb7c3c49a3" y="42.159878"/>
     <use style="fill:#f4a582;stroke:#f4a582;" x="179.647359" xlink:href="#mfb7c3c49a3" y="43.342689"/>
     <use style="fill:#f4a582;stroke:#f4a582;" x="181.204129" xlink:href="#mfb7c3c49a3" y="44.5255"/>
     <use style="fill:#f4a582;stroke:#f4a582;" x="182.760898" xlink:href="#mfb7c3c49a3" y="45.708311"/>
     <use style="fill:#f4a582;stroke:#f4a582;" x="184.317668" xlink:href="#mfb7c3c49a3" y="46.891122"/>
     <use style="fill:#f4a582;stroke:#f4a582;" x="185.874438" xlink:href="#mfb7c3c49a3" y="48.07312"/>
     <use style="fill:#f4a582;stroke:#f4a582;" x="187.431207" xlink:href="#mfb7c3c49a3" y="49.255931"/>
     <use style="fill:#f4a582;stroke:#f4a582;" x="188.987977" xlink:href="#mfb7c3c49a3" y="50.438741"/>
     <use style="fill:#f4a582;stroke:#f4a582;" x="190.544746" xlink:href="#mfb7c3c49a3" y="51.62074"/>
     <use style="fill:#f4a582;stroke:#f4a582;" x="192.101516" xlink:href="#mfb7c3c49a3" y="52.804363"/>
     <use style="fill:#f4a582;stroke:#f4a582;" x="193.658286" xlink:href="#mfb7c3c49a3" y="53.986361"/>
     <use style="fill:#f4a582;stroke:#f4a582;" x="195.215055" xlink:href="#mfb7c3c49a3" y="55.169172"/>
     <use style="fill:#f4a582;stroke:#f4a582;" x="196.771825" xlink:href="#mfb7c3c49a3" y="56.351171"/>
     <use style="fill:#f4a582;stroke:#f4a582;" x="198.328595" xlink:href="#mfb7c3c49a3" y="57.534794"/>
     <use style="fill:#f4a582;stroke:#f4a582;" x="199.885364" xlink:href="#mfb7c3c49a3" y="58.717604"/>
     <use style="fill:#f4a582;stroke:#f4a582;" x="201.442134" xlink:href="#mfb7c3c49a3" y="59.899603"/>
     <use style="fill:#f4a582;stroke:#f4a582;" x="202.998904" xlink:href="#mfb7c3c49a3" y="61.082414"/>
     <use style="fill:#f4a582;stroke:#f4a582;" x="204.555673" xlink:href="#mfb7c3c49a3" y="62.265224"/>
     <use style="fill:#f4a582;stroke:#f4a582;" x="206.112443" xlink:href="#mfb7c3c49a3" y="63.448035"/>
     <use style="fill:#f4a582;stroke:#f4a582;" x="207.669213" xlink:href="#mfb7c3c49a3" y="64.630034"/>
     <use style="fill:#f4a582;stroke:#f4a582;" x="209.225982" xlink:href="#mfb7c3c49a3" y="65.812844"/>
    </g>
   </g>
   <g id="line2d_11">
    <path clip-path="url(#paef20d407f)" d="M 53.549017 115.743544 
L 55.105787 114.561545 
L 56.662557 113.378735 
L 58.219326 112.195924 
L 59.776096 111.013925 
L 61.332866 109.831115 
L 62.889635 108.648304 
L 64.446405 107.465493 
L 66.003174 106.282682 
L 67.559944 105.100684 
L 69.116714 103.917873 
L 70.673483 102.735062 
L 72.230253 94.774648 
L 73.787023 93.591838 
L 75.343792 92.409027 
L 76.900562 91.226216 
L 78.457332 90.043405 
L 80.014101 88.861407 
L 81.570871 87.678596 
L 83.127641 86.495785 
L 84.68441 85.312975 
L 86.24118 84.130164 
L 87.79795 82.948165 
L 89.354719 81.765355 
L 90.911489 80.582544 
L 92.468259 79.400546 
L 94.025028 78.217735 
L 95.581798 77.035736 
L 97.138567 75.852926 
L 98.695337 74.669302 
L 100.252107 73.487304 
L 101.808876 72.304493 
L 103.365646 71.122495 
L 104.922416 69.939684 
L 106.479185 68.756873 
L 108.035955 67.574063 
L 109.592725 66.391252 
L 111.149494 65.208441 
L 112.706264 64.02563 
L 114.263034 62.843632 
L 115.819803 61.660821 
L 117.376573 60.478823 
L 118.933343 59.296012 
L 120.490112 58.113201 
L 122.046882 56.931203 
L 123.603652 55.74758 
L 125.160421 54.565581 
L 126.717191 53.38277 
L 128.27396 52.19996 
L 129.83073 51.017149 
L 131.3875 49.834338 
L 132.944269 48.65234 
L 134.501039 47.469529 
L 136.057809 46.286718 
L 137.614578 45.103907 
L 139.171348 43.921909 
L 140.728118 42.739098 
L 142.284887 41.556288 
L 143.841657 40.373477 
L 145.398427 32.704704 
L 146.955196 31.522705 
L 148.511966 30.339894 
" style="fill:none;stroke:#92c5de;stroke-linecap:round;stroke-width:1.5;"/>
   </g>
   <g id="line2d_12">
    <path clip-path="url(#paef20d407f)" d="M 53.549017 78.242106 
L 55.105787 78.242106 
L 56.662557 78.242106 
L 58.219326 78.242106 
L 59.776096 78.242106 
L 61.332866 78.242106 
L 62.889635 78.242106 
L 64.446405 78.242106 
L 66.003174 78.242106 
L 67.559944 78.242106 
L 69.116714 78.242106 
L 70.673483 78.242106 
L 72.230253 78.242106 
L 73.787023 78.242106 
L 75.343792 78.242106 
L 76.900562 78.242106 
L 78.457332 78.242106 
L 80.014101 78.242106 
L 81.570871 78.242106 
L 83.127641 78.242106 
L 84.68441 78.242106 
L 86.24118 78.242106 
L 87.79795 78.242106 
L 89.354719 78.242106 
L 90.911489 78.242106 
L 92.468259 78.242106 
L 94.025028 78.242106 
L 95.581798 78.242106 
L 97.138567 78.242106 
L 98.695337 78.242106 
L 100.252107 78.242106 
L 101.808876 78.242106 
L 103.365646 78.242106 
L 104.922416 78.242106 
L 106.479185 78.242106 
L 108.035955 78.242106 
L 109.592725 78.242106 
L 111.149494 78.242106 
L 112.706264 78.242106 
L 114.263034 78.242106 
L 115.819803 78.242106 
L 117.376573 78.242106 
L 118.933343 78.242106 
L 120.490112 78.242106 
L 122.046882 78.242106 
L 123.603652 78.242106 
L 125.160421 78.242106 
L 126.717191 78.242106 
L 128.27396 78.242106 
L 129.83073 78.242106 
L 131.3875 78.242106 
L 132.944269 78.242106 
L 134.501039 78.242106 
L 136.057809 78.242106 
L 137.614578 78.242106 
L 139.171348 78.242106 
L 140.728118 78.242106 
L 142.284887 78.242106 
L 143.841657 78.242106 
L 145.398427 78.242106 
L 146.955196 78.242106 
L 148.511966 78.242106 
L 150.068736 78.242106 
L 151.625505 78.242106 
L 153.182275 78.242106 
L 154.739045 78.242106 
L 156.295814 78.242106 
L 157.852584 78.242106 
L 159.409353 78.242106 
L 160.966123 78.242106 
L 162.522893 78.242106 
L 164.079662 78.242106 
L 165.636432 78.242106 
L 167.193202 78.242106 
L 168.749971 78.242106 
L 170.306741 78.242106 
L 171.863511 78.242106 
L 173.42028 78.242106 
L 174.97705 78.242106 
L 176.53382 78.242106 
L 178.090589 78.242106 
L 179.647359 78.242106 
L 181.204129 78.242106 
L 182.760898 78.242106 
L 184.317668 78.242106 
L 185.874438 78.242106 
L 187.431207 78.242106 
L 188.987977 78.242106 
L 190.544746 78.242106 
L 192.101516 78.242106 
L 193.658286 78.242106 
L 195.215055 78.242106 
L 196.771825 78.242106 
L 198.328595 78.242106 
L 199.885364 78.242106 
L 201.442134 78.242106 
L 202.998904 78.242106 
L 204.555673 78.242106 
L 206.112443 78.242106 
L 207.669213 78.242106 
L 209.225982 78.242106 
" style="fill:none;stroke:#333333;stroke-linecap:round;stroke-width:1.5;"/>
   </g>
   <g id="line2d_13">
    <path clip-path="url(#paef20d407f)" d="M 53.549017 82.835246 
L 55.105787 81.652435 
L 56.662557 80.470437 
L 58.219326 79.287626 
L 59.776096 78.104815 
L 61.332866 76.922817 
L 62.889635 75.739194 
L 64.446405 74.556383 
L 66.003174 73.374385 
L 67.559944 72.192386 
L 69.116714 71.009575 
L 70.673483 69.826765 
L 72.230253 75.422369 
L 73.787023 74.239559 
L 75.343792 73.056748 
L 76.900562 71.873937 
L 78.457332 70.691939 
L 80.014101 69.50994 
L 81.570871 68.32713 
L 83.127641 67.143506 
L 84.68441 65.961508 
L 86.24118 64.778697 
L 87.79795 63.596699 
L 89.354719 62.413888 
L 90.911489 61.230265 
L 92.468259 60.048267 
L 94.025028 58.866268 
L 95.581798 57.683457 
L 97.138567 56.500647 
L 98.695337 55.317836 
L 100.252107 54.135025 
L 101.808876 52.952214 
L 103.365646 51.770216 
L 104.922416 50.587405 
L 106.479185 49.404594 
L 108.035955 48.221784 
L 109.592725 47.039785 
L 111.149494 45.856974 
L 112.706264 44.674164 
L 114.263034 43.491353 
L 115.819803 42.308542 
L 117.376573 41.126544 
L 118.933343 39.944545 
L 120.490112 38.760922 
L 122.046882 37.578924 
L 123.603652 36.396113 
L 125.160421 35.213302 
L 126.717191 34.030492 
L 128.27396 32.848493 
L 129.83073 31.665682 
L 131.3875 30.482872 
" style="fill:none;stroke:#92c5de;stroke-linecap:round;stroke-width:1.5;"/>
   </g>
   <g id="line2d_14">
    <path clip-path="url(#paef20d407f)" d="M 53.549017 73.654652 
L 55.105787 71.289843 
L 56.662557 68.924222 
L 58.219326 66.5586 
L 59.776096 64.193791 
L 61.332866 61.828982 
" style="fill:none;stroke:#4393c3;stroke-linecap:round;stroke-width:1.5;"/>
   </g>
   <g id="line2d_15">
    <path clip-path="url(#paef20d407f)" d="M 162.522893 30.334208 
L 164.079662 31.516206 
L 165.636432 32.699017 
L 167.193202 33.88264 
L 168.749971 35.064639 
L 170.306741 36.247449 
L 171.863511 37.429448 
L 173.42028 38.613071 
L 174.97705 39.795069 
L 176.53382 40.97788 
L 178.090589 42.159878 
L 179.647359 43.342689 
L 181.204129 44.5255 
L 182.760898 45.708311 
L 184.317668 46.891122 
L 185.874438 48.07312 
L 187.431207 49.255931 
L 188.987977 50.438741 
L 190.544746 51.62074 
L 192.101516 52.804363 
L 193.658286 53.986361 
L 195.215055 55.169172 
L 196.771825 56.351171 
L 198.328595 57.534794 
L 199.885364 58.717604 
L 201.442134 59.899603 
L 202.998904 61.082414 
L 204.555673 62.265224 
L 206.112443 63.448035 
L 207.669213 64.630034 
L 209.225982 65.812844 
" style="fill:none;stroke:#f4a582;stroke-linecap:round;stroke-width:1.5;"/>
   </g>
   <g id="patch_3">
    <path d="M 45.425 120.04 
L 45.425 25.8 
" style="fill:none;stroke:#262626;stroke-linecap:square;stroke-linejoin:miter;stroke-width:0.8;"/>
   </g>
   <g id="patch_4">
    <path d="M 45.425 120.04 
L 217.35 120.04 
" style="fill:none;stroke:#262626;stroke-linecap:square;stroke-linejoin:miter;stroke-width:0.8;"/>
   </g>
   <g id="text_13">
    <!-- SM09 -->
    <defs>
     <path d="M 4.5 23 
L 13.421875 23.78125 
Q 14.0625 18.40625 16.375 14.96875 
Q 18.703125 11.53125 23.578125 9.40625 
Q 28.46875 7.28125 34.578125 7.28125 
Q 39.984375 7.28125 44.140625 8.890625 
Q 48.296875 10.5 50.3125 13.296875 
Q 52.34375 16.109375 52.34375 19.4375 
Q 52.34375 22.796875 50.390625 25.3125 
Q 48.4375 27.828125 43.953125 29.546875 
Q 41.0625 30.671875 31.203125 33.03125 
Q 21.34375 35.40625 17.390625 37.5 
Q 12.25 40.1875 9.734375 44.15625 
Q 7.234375 48.140625 7.234375 53.078125 
Q 7.234375 58.5 10.296875 63.203125 
Q 13.375 67.921875 19.28125 70.359375 
Q 25.203125 72.796875 32.421875 72.796875 
Q 40.375 72.796875 46.453125 70.234375 
Q 52.546875 67.671875 55.8125 62.6875 
Q 59.078125 57.71875 59.328125 51.421875 
L 50.25 50.734375 
Q 49.515625 57.515625 45.28125 60.984375 
Q 41.0625 64.453125 32.8125 64.453125 
Q 24.21875 64.453125 20.28125 61.296875 
Q 16.359375 58.15625 16.359375 53.71875 
Q 16.359375 49.859375 19.140625 47.359375 
Q 21.875 44.875 33.421875 42.265625 
Q 44.96875 39.65625 49.265625 37.703125 
Q 55.515625 34.8125 58.484375 30.390625 
Q 61.46875 25.984375 61.46875 20.21875 
Q 61.46875 14.5 58.203125 9.4375 
Q 54.9375 4.390625 48.796875 1.578125 
Q 42.671875 -1.21875 35.015625 -1.21875 
Q 25.296875 -1.21875 18.71875 1.609375 
Q 12.15625 4.4375 8.421875 10.125 
Q 4.6875 15.828125 4.5 23 
z
" id="ArialMT-53"/>
     <path d="M 7.421875 0 
L 7.421875 71.578125 
L 21.6875 71.578125 
L 38.625 20.90625 
Q 40.96875 13.8125 42.046875 10.296875 
Q 43.265625 14.203125 45.84375 21.78125 
L 62.984375 71.578125 
L 75.734375 71.578125 
L 75.734375 0 
L 66.609375 0 
L 66.609375 59.90625 
L 45.796875 0 
L 37.25 0 
L 16.546875 60.9375 
L 16.546875 0 
z
" id="ArialMT-4d"/>
     <path d="M 5.46875 16.546875 
L 13.921875 17.328125 
Q 14.984375 11.375 18.015625 8.6875 
Q 21.046875 6 25.78125 6 
Q 29.828125 6 32.875 7.859375 
Q 35.9375 9.71875 37.890625 12.8125 
Q 39.84375 15.921875 41.15625 21.1875 
Q 42.484375 26.46875 42.484375 31.9375 
Q 42.484375 32.515625 42.4375 33.6875 
Q 39.796875 29.5 35.234375 26.875 
Q 30.671875 24.265625 25.34375 24.265625 
Q 16.453125 24.265625 10.296875 30.703125 
Q 4.15625 37.15625 4.15625 47.703125 
Q 4.15625 58.59375 10.578125 65.234375 
Q 17 71.875 26.65625 71.875 
Q 33.640625 71.875 39.421875 68.109375 
Q 45.21875 64.359375 48.21875 57.390625 
Q 51.21875 50.4375 51.21875 37.25 
Q 51.21875 23.53125 48.234375 15.40625 
Q 45.265625 7.28125 39.375 3.03125 
Q 33.5 -1.21875 25.59375 -1.21875 
Q 17.1875 -1.21875 11.859375 3.4375 
Q 6.546875 8.109375 5.46875 16.546875 
z
M 41.453125 48.140625 
Q 41.453125 55.71875 37.421875 60.15625 
Q 33.40625 64.59375 27.734375 64.59375 
Q 21.875 64.59375 17.53125 59.8125 
Q 13.1875 55.03125 13.1875 47.40625 
Q 13.1875 40.578125 17.3125 36.296875 
Q 21.4375 32.03125 27.484375 32.03125 
Q 33.59375 32.03125 37.515625 36.296875 
Q 41.453125 40.578125 41.453125 48.140625 
z
" id="ArialMT-39"/>
    </defs>
    <g style="fill:#262626;" transform="translate(115.714375 19.8)scale(0.12 -0.12)">
     <use xlink:href="#ArialMT-53"/>
     <use x="66.699219" xlink:href="#ArialMT-4d"/>
     <use x="150" xlink:href="#ArialMT-30"/>
     <use x="205.615234" xlink:href="#ArialMT-39"/>
    </g>
   </g>
  </g>
 </g>
 <defs>
  <clipPath id="paef20d407f">
   <rect height="94.24" width="171.925" x="45.425" y="25.8"/>
  </clipPath>
 </defs>
</svg>
