<?xml version="1.0" encoding="utf-8" standalone="no"?>
<!DOCTYPE svg PUBLIC "-//W3C//DTD SVG 1.1//EN"
  "http://www.w3.org/Graphics/SVG/1.1/DTD/svg11.dtd">
<!-- Created with matplotlib (http://matplotlib.org/) -->
<svg height="159.84pt" version="1.1" viewBox="0 0 230.4 159.84" width="230.4pt" xmlns="http://www.w3.org/2000/svg" xmlns:xlink="http://www.w3.org/1999/xlink">
 <defs>
  <style type="text/css">
*{stroke-linecap:butt;stroke-linejoin:round;}
  </style>
 </defs>
 <g id="figure_1">
  <g id="patch_1">
   <path d="M 0 159.84 
L 230.4 159.84 
L 230.4 0 
L 0 0 
z
" style="fill:#ffffff;"/>
  </g>
  <g id="axes_1">
   <g id="patch_2">
    <path d="M 45.425 120.04 
L 217.35 120.04 
L 217.35 25.8 
L 45.425 25.8 
z
" style="fill:#ffffff;"/>
   </g>
   <g id="matplotlib.axis_1">
    <g id="xtick_1">
     <g id="line2d_1">
      <defs>
       <path d="M 0 0 
L 0 3.5 
" id="m17317f62bc" style="stroke:#262626;stroke-width:0.8;"/>
      </defs>
      <g>
       <use style="fill:#262626;stroke:#262626;stroke-width:0.8;" x="53.549257" xlink:href="#m17317f62bc" y="120.04"/>
      </g>
     </g>
     <g id="text_1">
      <!-- 2 -->
      <defs>
       <path d="M 50.34375 8.453125 
L 50.34375 0 
L 3.03125 0 
Q 2.9375 3.171875 4.046875 6.109375 
Q 5.859375 10.9375 9.828125 15.625 
Q 13.8125 20.3125 21.34375 26.46875 
Q 33.015625 36.03125 37.109375 41.625 
Q 41.21875 47.21875 41.21875 52.203125 
Q 41.21875 57.421875 37.46875 61 
Q 33.734375 64.59375 27.734375 64.59375 
Q 21.390625 64.59375 17.578125 60.78125 
Q 13.765625 56.984375 13.71875 50.25 
L 4.6875 51.171875 
Q 5.609375 61.28125 11.65625 66.578125 
Q 17.71875 71.875 27.9375 71.875 
Q 38.234375 71.875 44.234375 66.15625 
Q 50.25 60.453125 50.25 52 
Q 50.25 47.703125 48.484375 43.546875 
Q 46.734375 39.40625 42.65625 34.8125 
Q 38.578125 30.21875 29.109375 22.21875 
Q 21.1875 15.578125 18.9375 13.203125 
Q 16.703125 10.84375 15.234375 8.453125 
z
" id="ArialMT-32"/>
      </defs>
      <g style="fill:#262626;" transform="translate(50.768788 134.197812)scale(0.1 -0.1)">
       <use xlink:href="#ArialMT-32"/>
      </g>
     </g>
    </g>
    <g id="xtick_2">
     <g id="line2d_2">
      <g>
       <use style="fill:#262626;stroke:#262626;stroke-width:0.8;" x="84.684645" xlink:href="#m17317f62bc" y="120.04"/>
      </g>
     </g>
     <g id="text_2">
      <!-- 4 -->
      <defs>
       <path d="M 32.328125 0 
L 32.328125 17.140625 
L 1.265625 17.140625 
L 1.265625 25.203125 
L 33.9375 71.578125 
L 41.109375 71.578125 
L 41.109375 25.203125 
L 50.78125 25.203125 
L 50.78125 17.140625 
L 41.109375 17.140625 
L 41.109375 0 
z
M 32.328125 25.203125 
L 32.328125 57.46875 
L 9.90625 25.203125 
z
" id="ArialMT-34"/>
      </defs>
      <g style="fill:#262626;" transform="translate(81.904176 134.197812)scale(0.1 -0.1)">
       <use xlink:href="#ArialMT-34"/>
      </g>
     </g>
    </g>
    <g id="xtick_3">
     <g id="line2d_3">
      <g>
       <use style="fill:#262626;stroke:#262626;stroke-width:0.8;" x="115.820033" xlink:href="#m17317f62bc" y="120.04"/>
      </g>
     </g>
     <g id="text_3">
      <!-- 6 -->
      <defs>
       <path d="M 49.75 54.046875 
L 41.015625 53.375 
Q 39.84375 58.546875 37.703125 60.890625 
Q 34.125 64.65625 28.90625 64.65625 
Q 24.703125 64.65625 21.53125 62.3125 
Q 17.390625 59.28125 14.984375 53.46875 
Q 12.59375 47.65625 12.5 36.921875 
Q 15.671875 41.75 20.265625 44.09375 
Q 24.859375 46.4375 29.890625 46.4375 
Q 38.671875 46.4375 44.84375 39.96875 
Q 51.03125 33.5 51.03125 23.25 
Q 51.03125 16.5 48.125 10.71875 
Q 45.21875 4.9375 40.140625 1.859375 
Q 35.0625 -1.21875 28.609375 -1.21875 
Q 17.625 -1.21875 10.6875 6.859375 
Q 3.765625 14.9375 3.765625 33.5 
Q 3.765625 54.25 11.421875 63.671875 
Q 18.109375 71.875 29.4375 71.875 
Q 37.890625 71.875 43.28125 67.140625 
Q 48.6875 62.40625 49.75 54.046875 
z
M 13.875 23.1875 
Q 13.875 18.65625 15.796875 14.5 
Q 17.71875 10.359375 21.1875 8.171875 
Q 24.65625 6 28.46875 6 
Q 34.03125 6 38.03125 10.484375 
Q 42.046875 14.984375 42.046875 22.703125 
Q 42.046875 30.125 38.078125 34.390625 
Q 34.125 38.671875 28.125 38.671875 
Q 22.171875 38.671875 18.015625 34.390625 
Q 13.875 30.125 13.875 23.1875 
z
" id="ArialMT-36"/>
      </defs>
      <g style="fill:#262626;" transform="translate(113.039564 134.197812)scale(0.1 -0.1)">
       <use xlink:href="#ArialMT-36"/>
      </g>
     </g>
    </g>
    <g id="xtick_4">
     <g id="line2d_4">
      <g>
       <use style="fill:#262626;stroke:#262626;stroke-width:0.8;" x="146.955421" xlink:href="#m17317f62bc" y="120.04"/>
      </g>
     </g>
     <g id="text_4">
      <!-- 8 -->
      <defs>
       <path d="M 17.671875 38.8125 
Q 12.203125 40.828125 9.5625 44.53125 
Q 6.9375 48.25 6.9375 53.421875 
Q 6.9375 61.234375 12.546875 66.546875 
Q 18.171875 71.875 27.484375 71.875 
Q 36.859375 71.875 42.578125 66.421875 
Q 48.296875 60.984375 48.296875 53.171875 
Q 48.296875 48.1875 45.671875 44.5 
Q 43.0625 40.828125 37.75 38.8125 
Q 44.34375 36.671875 47.78125 31.875 
Q 51.21875 27.09375 51.21875 20.453125 
Q 51.21875 11.28125 44.71875 5.03125 
Q 38.234375 -1.21875 27.640625 -1.21875 
Q 17.046875 -1.21875 10.546875 5.046875 
Q 4.046875 11.328125 4.046875 20.703125 
Q 4.046875 27.6875 7.59375 32.390625 
Q 11.140625 37.109375 17.671875 38.8125 
z
M 15.921875 53.71875 
Q 15.921875 48.640625 19.1875 45.40625 
Q 22.46875 42.1875 27.6875 42.1875 
Q 32.765625 42.1875 36.015625 45.375 
Q 39.265625 48.578125 39.265625 53.21875 
Q 39.265625 58.0625 35.90625 61.359375 
Q 32.5625 64.65625 27.59375 64.65625 
Q 22.5625 64.65625 19.234375 61.421875 
Q 15.921875 58.203125 15.921875 53.71875 
z
M 13.09375 20.65625 
Q 13.09375 16.890625 14.875 13.375 
Q 16.65625 9.859375 20.171875 7.921875 
Q 23.6875 6 27.734375 6 
Q 34.03125 6 38.125 10.046875 
Q 42.234375 14.109375 42.234375 20.359375 
Q 42.234375 26.703125 38.015625 30.859375 
Q 33.796875 35.015625 27.4375 35.015625 
Q 21.234375 35.015625 17.15625 30.90625 
Q 13.09375 26.8125 13.09375 20.65625 
z
" id="ArialMT-38"/>
      </defs>
      <g style="fill:#262626;" transform="translate(144.174952 134.197812)scale(0.1 -0.1)">
       <use xlink:href="#ArialMT-38"/>
      </g>
     </g>
    </g>
    <g id="xtick_5">
     <g id="line2d_5">
      <g>
       <use style="fill:#262626;stroke:#262626;stroke-width:0.8;" x="178.090809" xlink:href="#m17317f62bc" y="120.04"/>
      </g>
     </g>
     <g id="text_5">
      <!-- 10 -->
      <defs>
       <path d="M 37.25 0 
L 28.46875 0 
L 28.46875 56 
Q 25.296875 52.984375 20.140625 49.953125 
Q 14.984375 46.921875 10.890625 45.40625 
L 10.890625 53.90625 
Q 18.265625 57.375 23.78125 62.296875 
Q 29.296875 67.234375 31.59375 71.875 
L 37.25 71.875 
z
" id="ArialMT-31"/>
       <path d="M 4.15625 35.296875 
Q 4.15625 48 6.765625 55.734375 
Q 9.375 63.484375 14.515625 67.671875 
Q 19.671875 71.875 27.484375 71.875 
Q 33.25 71.875 37.59375 69.546875 
Q 41.9375 67.234375 44.765625 62.859375 
Q 47.609375 58.5 49.21875 52.21875 
Q 50.828125 45.953125 50.828125 35.296875 
Q 50.828125 22.703125 48.234375 14.96875 
Q 45.65625 7.234375 40.5 3 
Q 35.359375 -1.21875 27.484375 -1.21875 
Q 17.140625 -1.21875 11.234375 6.203125 
Q 4.15625 15.140625 4.15625 35.296875 
z
M 13.1875 35.296875 
Q 13.1875 17.671875 17.3125 11.828125 
Q 21.4375 6 27.484375 6 
Q 33.546875 6 37.671875 11.859375 
Q 41.796875 17.71875 41.796875 35.296875 
Q 41.796875 52.984375 37.671875 58.78125 
Q 33.546875 64.59375 27.390625 64.59375 
Q 21.34375 64.59375 17.71875 59.46875 
Q 13.1875 52.9375 13.1875 35.296875 
z
" id="ArialMT-30"/>
      </defs>
      <g style="fill:#262626;" transform="translate(172.529871 134.197812)scale(0.1 -0.1)">
       <use xlink:href="#ArialMT-31"/>
       <use x="55.615234" xlink:href="#ArialMT-30"/>
      </g>
     </g>
    </g>
    <g id="xtick_6">
     <g id="line2d_6">
      <g>
       <use style="fill:#262626;stroke:#262626;stroke-width:0.8;" x="209.226197" xlink:href="#m17317f62bc" y="120.04"/>
      </g>
     </g>
     <g id="text_6">
      <!-- 12 -->
      <g style="fill:#262626;" transform="translate(203.66526 134.197812)scale(0.1 -0.1)">
       <use xlink:href="#ArialMT-31"/>
       <use x="55.615234" xlink:href="#ArialMT-32"/>
      </g>
     </g>
    </g>
    <g id="text_7">
     <!-- pH -->
     <defs>
      <path d="M 6.59375 -19.875 
L 6.59375 51.859375 
L 14.59375 51.859375 
L 14.59375 45.125 
Q 17.4375 49.078125 21 51.046875 
Q 24.5625 53.03125 29.640625 53.03125 
Q 36.28125 53.03125 41.359375 49.609375 
Q 46.4375 46.1875 49.015625 39.953125 
Q 51.609375 33.734375 51.609375 26.3125 
Q 51.609375 18.359375 48.75 11.984375 
Q 45.90625 5.609375 40.453125 2.21875 
Q 35.015625 -1.171875 29 -1.171875 
Q 24.609375 -1.171875 21.109375 0.6875 
Q 17.625 2.546875 15.375 5.375 
L 15.375 -19.875 
z
M 14.546875 25.640625 
Q 14.546875 15.625 18.59375 10.84375 
Q 22.65625 6.0625 28.421875 6.0625 
Q 34.28125 6.0625 38.453125 11.015625 
Q 42.625 15.96875 42.625 26.375 
Q 42.625 36.28125 38.546875 41.203125 
Q 34.46875 46.140625 28.8125 46.140625 
Q 23.1875 46.140625 18.859375 40.890625 
Q 14.546875 35.640625 14.546875 25.640625 
z
" id="ArialMT-70"/>
      <path d="M 8.015625 0 
L 8.015625 71.578125 
L 17.484375 71.578125 
L 17.484375 42.1875 
L 54.6875 42.1875 
L 54.6875 71.578125 
L 64.15625 71.578125 
L 64.15625 0 
L 54.6875 0 
L 54.6875 33.734375 
L 17.484375 33.734375 
L 17.484375 0 
z
" id="ArialMT-48"/>
     </defs>
     <g style="fill:#262626;" transform="translate(124.996094 147.343125)scale(0.1 -0.1)">
      <use xlink:href="#ArialMT-70"/>
      <use x="55.615234" xlink:href="#ArialMT-48"/>
     </g>
    </g>
   </g>
   <g id="matplotlib.axis_2">
    <g id="ytick_1">
     <g id="line2d_7">
      <defs>
       <path d="M 0 0 
L -3.5 0 
" id="m7689d06d0a" style="stroke:#262626;stroke-width:0.8;"/>
      </defs>
      <g>
       <use style="fill:#262626;stroke:#262626;stroke-width:0.8;" x="45.425" xlink:href="#m7689d06d0a" y="76.182693"/>
      </g>
     </g>
     <g id="text_8">
      <!-- 0 -->
      <g style="fill:#262626;" transform="translate(32.864062 79.761599)scale(0.1 -0.1)">
       <use xlink:href="#ArialMT-30"/>
      </g>
     </g>
    </g>
    <g id="ytick_2">
     <g id="line2d_8">
      <g>
       <use style="fill:#262626;stroke:#262626;stroke-width:0.8;" x="45.425" xlink:href="#m7689d06d0a" y="29.674911"/>
      </g>
     </g>
     <g id="text_9">
      <!-- 10 -->
      <g style="fill:#262626;" transform="translate(27.303125 33.253817)scale(0.1 -0.1)">
       <use xlink:href="#ArialMT-31"/>
       <use x="55.615234" xlink:href="#ArialMT-30"/>
      </g>
     </g>
    </g>
    <g id="text_10">
     <!-- Free Energy($k_BT$) -->
     <defs>
      <path d="M 8.203125 0 
L 8.203125 71.578125 
L 56.5 71.578125 
L 56.5 63.140625 
L 17.671875 63.140625 
L 17.671875 40.96875 
L 51.265625 40.96875 
L 51.265625 32.515625 
L 17.671875 32.515625 
L 17.671875 0 
z
" id="ArialMT-46"/>
      <path d="M 6.5 0 
L 6.5 51.859375 
L 14.40625 51.859375 
L 14.40625 44 
Q 17.4375 49.515625 20 51.265625 
Q 22.5625 53.03125 25.640625 53.03125 
Q 30.078125 53.03125 34.671875 50.203125 
L 31.640625 42.046875 
Q 28.421875 43.953125 25.203125 43.953125 
Q 22.3125 43.953125 20.015625 42.21875 
Q 17.71875 40.484375 16.75 37.40625 
Q 15.28125 32.71875 15.28125 27.15625 
L 15.28125 0 
z
" id="ArialMT-72"/>
      <path d="M 42.09375 16.703125 
L 51.171875 15.578125 
Q 49.03125 7.625 43.21875 3.21875 
Q 37.40625 -1.171875 28.375 -1.171875 
Q 17 -1.171875 10.328125 5.828125 
Q 3.65625 12.84375 3.65625 25.484375 
Q 3.65625 38.578125 10.390625 45.796875 
Q 17.140625 53.03125 27.875 53.03125 
Q 38.28125 53.03125 44.875 45.953125 
Q 51.46875 38.875 51.46875 26.03125 
Q 51.46875 25.25 51.421875 23.6875 
L 12.75 23.6875 
Q 13.234375 15.140625 17.578125 10.59375 
Q 21.921875 6.0625 28.421875 6.0625 
Q 33.25 6.0625 36.671875 8.59375 
Q 40.09375 11.140625 42.09375 16.703125 
z
M 13.234375 30.90625 
L 42.1875 30.90625 
Q 41.609375 37.453125 38.875 40.71875 
Q 34.671875 45.796875 27.984375 45.796875 
Q 21.921875 45.796875 17.796875 41.75 
Q 13.671875 37.703125 13.234375 30.90625 
z
" id="ArialMT-65"/>
      <path id="ArialMT-20"/>
      <path d="M 7.90625 0 
L 7.90625 71.578125 
L 59.671875 71.578125 
L 59.671875 63.140625 
L 17.390625 63.140625 
L 17.390625 41.21875 
L 56.984375 41.21875 
L 56.984375 32.8125 
L 17.390625 32.8125 
L 17.390625 8.453125 
L 61.328125 8.453125 
L 61.328125 0 
z
" id="ArialMT-45"/>
      <path d="M 6.59375 0 
L 6.59375 51.859375 
L 14.5 51.859375 
L 14.5 44.484375 
Q 20.21875 53.03125 31 53.03125 
Q 35.6875 53.03125 39.625 51.34375 
Q 43.5625 49.65625 45.515625 46.921875 
Q 47.46875 44.1875 48.25 40.4375 
Q 48.734375 37.984375 48.734375 31.890625 
L 48.734375 0 
L 39.9375 0 
L 39.9375 31.546875 
Q 39.9375 36.921875 38.90625 39.578125 
Q 37.890625 42.234375 35.28125 43.8125 
Q 32.671875 45.40625 29.15625 45.40625 
Q 23.53125 45.40625 19.453125 41.84375 
Q 15.375 38.28125 15.375 28.328125 
L 15.375 0 
z
" id="ArialMT-6e"/>
      <path d="M 4.984375 -4.296875 
L 13.53125 -5.5625 
Q 14.0625 -9.515625 16.5 -11.328125 
Q 19.78125 -13.765625 25.4375 -13.765625 
Q 31.546875 -13.765625 34.859375 -11.328125 
Q 38.1875 -8.890625 39.359375 -4.5 
Q 40.046875 -1.8125 39.984375 6.78125 
Q 34.234375 0 25.640625 0 
Q 14.9375 0 9.078125 7.71875 
Q 3.21875 15.4375 3.21875 26.21875 
Q 3.21875 33.640625 5.90625 39.90625 
Q 8.59375 46.1875 13.6875 49.609375 
Q 18.796875 53.03125 25.6875 53.03125 
Q 34.859375 53.03125 40.828125 45.609375 
L 40.828125 51.859375 
L 48.921875 51.859375 
L 48.921875 7.03125 
Q 48.921875 -5.078125 46.453125 -10.125 
Q 44 -15.1875 38.640625 -18.109375 
Q 33.296875 -21.046875 25.484375 -21.046875 
Q 16.21875 -21.046875 10.5 -16.875 
Q 4.78125 -12.703125 4.984375 -4.296875 
z
M 12.25 26.859375 
Q 12.25 16.65625 16.296875 11.96875 
Q 20.359375 7.28125 26.46875 7.28125 
Q 32.515625 7.28125 36.609375 11.9375 
Q 40.71875 16.609375 40.71875 26.5625 
Q 40.71875 36.078125 36.5 40.90625 
Q 32.28125 45.75 26.3125 45.75 
Q 20.453125 45.75 16.34375 40.984375 
Q 12.25 36.234375 12.25 26.859375 
z
" id="ArialMT-67"/>
      <path d="M 6.203125 -19.96875 
L 5.21875 -11.71875 
Q 8.109375 -12.5 10.25 -12.5 
Q 13.1875 -12.5 14.9375 -11.515625 
Q 16.703125 -10.546875 17.828125 -8.796875 
Q 18.65625 -7.46875 20.515625 -2.25 
Q 20.75 -1.515625 21.296875 -0.09375 
L 1.609375 51.859375 
L 11.078125 51.859375 
L 21.875 21.828125 
Q 23.96875 16.109375 25.640625 9.8125 
Q 27.15625 15.875 29.25 21.625 
L 40.328125 51.859375 
L 49.125 51.859375 
L 29.390625 -0.875 
Q 26.21875 -9.421875 24.46875 -12.640625 
Q 22.125 -17 19.09375 -19.015625 
Q 16.0625 -21.046875 11.859375 -21.046875 
Q 9.328125 -21.046875 6.203125 -19.96875 
z
" id="ArialMT-79"/>
      <path d="M 23.390625 -21.046875 
Q 16.109375 -11.859375 11.078125 0.4375 
Q 6.0625 12.75 6.0625 25.921875 
Q 6.0625 37.546875 9.8125 48.1875 
Q 14.203125 60.546875 23.390625 72.796875 
L 29.6875 72.796875 
Q 23.78125 62.640625 21.875 58.296875 
Q 18.890625 51.5625 17.1875 44.234375 
Q 15.09375 35.109375 15.09375 25.875 
Q 15.09375 2.390625 29.6875 -21.046875 
z
" id="ArialMT-28"/>
      <path d="M 18.3125 75.984375 
L 27.296875 75.984375 
L 18.703125 31.6875 
L 49.515625 54.6875 
L 61.1875 54.6875 
L 26.8125 28.515625 
L 51.90625 0 
L 41.015625 0 
L 17.671875 26.703125 
L 12.5 0 
L 3.515625 0 
z
" id="DejaVuSans-Oblique-6b"/>
      <path d="M 16.890625 72.90625 
L 42.09375 72.90625 
Q 52.34375 72.90625 57.421875 69.09375 
Q 62.5 65.28125 62.5 57.625 
Q 62.5 50.59375 58.125 45.484375 
Q 53.765625 40.375 46.6875 39.3125 
Q 52.734375 37.9375 55.765625 34.078125 
Q 58.796875 30.21875 58.796875 23.78125 
Q 58.796875 12.796875 50.65625 6.390625 
Q 42.53125 0 28.421875 0 
L 2.6875 0 
z
M 19.28125 34.8125 
L 14.109375 8.109375 
L 29.984375 8.109375 
Q 38.921875 8.109375 43.75 12.203125 
Q 48.578125 16.3125 48.578125 23.78125 
Q 48.578125 29.546875 45.375 32.171875 
Q 42.1875 34.8125 35.109375 34.8125 
z
M 25.09375 64.796875 
L 20.796875 42.828125 
L 35.5 42.828125 
Q 43.359375 42.828125 47.78125 46.234375 
Q 52.203125 49.65625 52.203125 55.71875 
Q 52.203125 60.453125 49.21875 62.625 
Q 46.234375 64.796875 39.703125 64.796875 
z
" id="DejaVuSans-Oblique-42"/>
      <path d="M 5.90625 72.90625 
L 67.578125 72.90625 
L 66.015625 64.59375 
L 39.984375 64.59375 
L 27.484375 0 
L 17.578125 0 
L 30.078125 64.59375 
L 4.296875 64.59375 
z
" id="DejaVuSans-Oblique-54"/>
      <path d="M 12.359375 -21.046875 
L 6.0625 -21.046875 
Q 20.65625 2.390625 20.65625 25.875 
Q 20.65625 35.0625 18.5625 44.09375 
Q 16.890625 51.421875 13.921875 58.15625 
Q 12.015625 62.546875 6.0625 72.796875 
L 12.359375 72.796875 
Q 21.53125 60.546875 25.921875 48.1875 
Q 29.6875 37.546875 29.6875 25.921875 
Q 29.6875 12.75 24.625 0.4375 
Q 19.578125 -11.859375 12.359375 -21.046875 
z
" id="ArialMT-29"/>
     </defs>
     <g style="fill:#262626;" transform="translate(21.103125 112.27)rotate(-90)scale(0.1 -0.1)">
      <use transform="translate(0 0.015625)" xlink:href="#ArialMT-46"/>
      <use transform="translate(61.083984 0.015625)" xlink:href="#ArialMT-72"/>
      <use transform="translate(94.384766 0.015625)" xlink:href="#ArialMT-65"/>
      <use transform="translate(150 0.015625)" xlink:href="#ArialMT-65"/>
      <use transform="translate(205.615234 0.015625)" xlink:href="#ArialMT-20"/>
      <use transform="translate(233.398438 0.015625)" xlink:href="#ArialMT-45"/>
      <use transform="translate(300.097656 0.015625)" xlink:href="#ArialMT-6e"/>
      <use transform="translate(355.712891 0.015625)" xlink:href="#ArialMT-65"/>
      <use transform="translate(411.328125 0.015625)" xlink:href="#ArialMT-72"/>
      <use transform="translate(444.628906 0.015625)" xlink:href="#ArialMT-67"/>
      <use transform="translate(500.244141 0.015625)" xlink:href="#ArialMT-79"/>
      <use transform="translate(550.244141 0.015625)" xlink:href="#ArialMT-28"/>
      <use transform="translate(583.544922 0.015625)" xlink:href="#DejaVuSans-Oblique-6b"/>
      <use transform="translate(641.455078 -16.390625)scale(0.7)" xlink:href="#DejaVuSans-Oblique-42"/>
      <use transform="translate(692.211914 0.015625)" xlink:href="#DejaVuSans-Oblique-54"/>
      <use transform="translate(753.295898 0.015625)" xlink:href="#ArialMT-29"/>
     </g>
    </g>
   </g>
   <g id="PathCollection_1">
    <defs>
     <path d="M 0 0.5 
C 0.132602 0.5 0.25979 0.447317 0.353553 0.353553 
C 0.447317 0.25979 0.5 0.132602 0.5 0 
C 0.5 -0.132602 0.447317 -0.25979 0.353553 -0.353553 
C 0.25979 -0.447317 0.132602 -0.5 0 -0.5 
C -0.132602 -0.5 -0.25979 -0.447317 -0.353553 -0.353553 
C -0.447317 -0.25979 -0.5 -0.132602 -0.5 0 
C -0.5 0.132602 -0.447317 0.25979 -0.353553 0.353553 
C -0.25979 0.447317 -0.132602 0.5 0 0.5 
z
" id="md278ec5224" style="stroke:#92c5de;"/>
    </defs>
    <g clip-path="url(#pd17bab6877)">
     <use style="fill:#92c5de;stroke:#92c5de;" x="53.549257" xlink:href="#md278ec5224" y="115.743976"/>
     <use style="fill:#92c5de;stroke:#92c5de;" x="55.106026" xlink:href="#md278ec5224" y="114.601072"/>
     <use style="fill:#92c5de;stroke:#92c5de;" x="56.662795" xlink:href="#md278ec5224" y="113.458168"/>
     <use style="fill:#92c5de;stroke:#92c5de;" x="58.219565" xlink:href="#md278ec5224" y="112.315264"/>
     <use style="fill:#92c5de;stroke:#92c5de;" x="59.776334" xlink:href="#md278ec5224" y="111.17236"/>
     <use style="fill:#92c5de;stroke:#92c5de;" x="61.333104" xlink:href="#md278ec5224" y="110.03024"/>
     <use style="fill:#92c5de;stroke:#92c5de;" x="62.889873" xlink:href="#md278ec5224" y="108.887336"/>
     <use style="fill:#92c5de;stroke:#92c5de;" x="64.446642" xlink:href="#md278ec5224" y="107.744432"/>
     <use style="fill:#92c5de;stroke:#92c5de;" x="66.003412" xlink:href="#md278ec5224" y="106.601528"/>
     <use style="fill:#92c5de;stroke:#92c5de;" x="67.560181" xlink:href="#md278ec5224" y="105.458624"/>
     <use style="fill:#92c5de;stroke:#92c5de;" x="69.116951" xlink:href="#md278ec5224" y="104.316504"/>
     <use style="fill:#92c5de;stroke:#92c5de;" x="70.67372" xlink:href="#md278ec5224" y="103.1736"/>
     <use style="fill:#92c5de;stroke:#92c5de;" x="72.230489" xlink:href="#md278ec5224" y="102.030696"/>
     <use style="fill:#92c5de;stroke:#92c5de;" x="73.787259" xlink:href="#md278ec5224" y="100.887792"/>
     <use style="fill:#92c5de;stroke:#92c5de;" x="75.344028" xlink:href="#md278ec5224" y="98.8673"/>
     <use style="fill:#92c5de;stroke:#92c5de;" x="76.900798" xlink:href="#md278ec5224" y="97.725181"/>
     <use style="fill:#92c5de;stroke:#92c5de;" x="78.457567" xlink:href="#md278ec5224" y="96.582277"/>
     <use style="fill:#92c5de;stroke:#92c5de;" x="80.014337" xlink:href="#md278ec5224" y="89.776659"/>
     <use style="fill:#92c5de;stroke:#92c5de;" x="81.571106" xlink:href="#md278ec5224" y="88.633755"/>
     <use style="fill:#92c5de;stroke:#92c5de;" x="83.127875" xlink:href="#md278ec5224" y="87.491636"/>
     <use style="fill:#92c5de;stroke:#92c5de;" x="84.684645" xlink:href="#md278ec5224" y="86.347947"/>
     <use style="fill:#92c5de;stroke:#92c5de;" x="86.241414" xlink:href="#md278ec5224" y="85.205828"/>
     <use style="fill:#92c5de;stroke:#92c5de;" x="87.798184" xlink:href="#md278ec5224" y="84.062923"/>
     <use style="fill:#92c5de;stroke:#92c5de;" x="89.354953" xlink:href="#md278ec5224" y="82.920804"/>
     <use style="fill:#92c5de;stroke:#92c5de;" x="90.911722" xlink:href="#md278ec5224" y="81.7779"/>
     <use style="fill:#92c5de;stroke:#92c5de;" x="92.468492" xlink:href="#md278ec5224" y="80.634211"/>
     <use style="fill:#92c5de;stroke:#92c5de;" x="94.025261" xlink:href="#md278ec5224" y="79.492092"/>
     <use style="fill:#92c5de;stroke:#92c5de;" x="95.582031" xlink:href="#md278ec5224" y="78.349187"/>
     <use style="fill:#92c5de;stroke:#92c5de;" x="97.1388" xlink:href="#md278ec5224" y="77.206283"/>
     <use style="fill:#92c5de;stroke:#92c5de;" x="98.695569" xlink:href="#md278ec5224" y="76.063379"/>
     <use style="fill:#92c5de;stroke:#92c5de;" x="100.252339" xlink:href="#md278ec5224" y="74.92126"/>
     <use style="fill:#92c5de;stroke:#92c5de;" x="101.809108" xlink:href="#md278ec5224" y="73.779141"/>
     <use style="fill:#92c5de;stroke:#92c5de;" x="103.365878" xlink:href="#md278ec5224" y="72.636236"/>
     <use style="fill:#92c5de;stroke:#92c5de;" x="104.922647" xlink:href="#md278ec5224" y="71.493332"/>
     <use style="fill:#92c5de;stroke:#92c5de;" x="106.479416" xlink:href="#md278ec5224" y="70.350428"/>
     <use style="fill:#92c5de;stroke:#92c5de;" x="108.036186" xlink:href="#md278ec5224" y="69.207524"/>
     <use style="fill:#92c5de;stroke:#92c5de;" x="109.592955" xlink:href="#md278ec5224" y="68.06462"/>
     <use style="fill:#92c5de;stroke:#92c5de;" x="111.149725" xlink:href="#md278ec5224" y="66.9225"/>
     <use style="fill:#92c5de;stroke:#92c5de;" x="112.706494" xlink:href="#md278ec5224" y="65.778811"/>
     <use style="fill:#92c5de;stroke:#92c5de;" x="114.263263" xlink:href="#md278ec5224" y="64.636692"/>
     <use style="fill:#92c5de;stroke:#92c5de;" x="115.820033" xlink:href="#md278ec5224" y="63.494573"/>
     <use style="fill:#92c5de;stroke:#92c5de;" x="117.376802" xlink:href="#md278ec5224" y="62.350884"/>
     <use style="fill:#92c5de;stroke:#92c5de;" x="118.933572" xlink:href="#md278ec5224" y="61.208764"/>
     <use style="fill:#92c5de;stroke:#92c5de;" x="120.490341" xlink:href="#md278ec5224" y="60.06586"/>
     <use style="fill:#92c5de;stroke:#92c5de;" x="122.04711" xlink:href="#md278ec5224" y="58.922956"/>
     <use style="fill:#92c5de;stroke:#92c5de;" x="123.60388" xlink:href="#md278ec5224" y="57.780837"/>
     <use style="fill:#92c5de;stroke:#92c5de;" x="125.160649" xlink:href="#md278ec5224" y="56.637933"/>
     <use style="fill:#92c5de;stroke:#92c5de;" x="126.717419" xlink:href="#md278ec5224" y="55.495028"/>
     <use style="fill:#92c5de;stroke:#92c5de;" x="128.274188" xlink:href="#md278ec5224" y="54.352124"/>
     <use style="fill:#92c5de;stroke:#92c5de;" x="129.830957" xlink:href="#md278ec5224" y="53.20922"/>
     <use style="fill:#92c5de;stroke:#92c5de;" x="131.387727" xlink:href="#md278ec5224" y="52.067101"/>
     <use style="fill:#92c5de;stroke:#92c5de;" x="132.944496" xlink:href="#md278ec5224" y="50.924197"/>
     <use style="fill:#92c5de;stroke:#92c5de;" x="134.501266" xlink:href="#md278ec5224" y="49.782077"/>
     <use style="fill:#92c5de;stroke:#92c5de;" x="136.058035" xlink:href="#md278ec5224" y="48.638388"/>
     <use style="fill:#92c5de;stroke:#92c5de;" x="137.614804" xlink:href="#md278ec5224" y="47.496269"/>
     <use style="fill:#92c5de;stroke:#92c5de;" x="139.171574" xlink:href="#md278ec5224" y="46.353365"/>
     <use style="fill:#92c5de;stroke:#92c5de;" x="140.728343" xlink:href="#md278ec5224" y="45.210461"/>
     <use style="fill:#92c5de;stroke:#92c5de;" x="142.285113" xlink:href="#md278ec5224" y="44.067556"/>
     <use style="fill:#92c5de;stroke:#92c5de;" x="143.841882" xlink:href="#md278ec5224" y="42.925437"/>
     <use style="fill:#92c5de;stroke:#92c5de;" x="145.398651" xlink:href="#md278ec5224" y="41.782533"/>
     <use style="fill:#92c5de;stroke:#92c5de;" x="146.955421" xlink:href="#md278ec5224" y="40.639629"/>
     <use style="fill:#92c5de;stroke:#92c5de;" x="148.51219" xlink:href="#md278ec5224" y="39.496725"/>
     <use style="fill:#92c5de;stroke:#92c5de;" x="150.06896" xlink:href="#md278ec5224" y="38.354605"/>
     <use style="fill:#92c5de;stroke:#92c5de;" x="151.625729" xlink:href="#md278ec5224" y="30.096024"/>
    </g>
   </g>
   <g id="PathCollection_2">
    <defs>
     <path d="M 0 0.5 
C 0.132602 0.5 0.25979 0.447317 0.353553 0.353553 
C 0.447317 0.25979 0.5 0.132602 0.5 0 
C 0.5 -0.132602 0.447317 -0.25979 0.353553 -0.353553 
C 0.25979 -0.447317 0.132602 -0.5 0 -0.5 
C -0.132602 -0.5 -0.25979 -0.447317 -0.353553 -0.353553 
C -0.447317 -0.25979 -0.5 -0.132602 -0.5 0 
C -0.5 0.132602 -0.447317 0.25979 -0.353553 0.353553 
C -0.25979 0.447317 -0.132602 0.5 0 0.5 
z
" id="mfea701a79c" style="stroke:#4393c3;"/>
    </defs>
    <g clip-path="url(#pd17bab6877)">
     <use style="fill:#4393c3;stroke:#4393c3;" x="53.549257" xlink:href="#mfea701a79c" y="79.231484"/>
     <use style="fill:#4393c3;stroke:#4393c3;" x="55.106026" xlink:href="#mfea701a79c" y="76.945676"/>
     <use style="fill:#4393c3;stroke:#4393c3;" x="56.662795" xlink:href="#mfea701a79c" y="74.659868"/>
     <use style="fill:#4393c3;stroke:#4393c3;" x="58.219565" xlink:href="#mfea701a79c" y="72.374059"/>
     <use style="fill:#4393c3;stroke:#4393c3;" x="59.776334" xlink:href="#mfea701a79c" y="70.089036"/>
     <use style="fill:#4393c3;stroke:#4393c3;" x="61.333104" xlink:href="#mfea701a79c" y="67.804012"/>
     <use style="fill:#4393c3;stroke:#4393c3;" x="62.889873" xlink:href="#mfea701a79c" y="65.518204"/>
     <use style="fill:#4393c3;stroke:#4393c3;" x="64.446642" xlink:href="#mfea701a79c" y="63.233181"/>
     <use style="fill:#4393c3;stroke:#4393c3;" x="66.003412" xlink:href="#mfea701a79c" y="60.947372"/>
    </g>
   </g>
   <g id="PathCollection_3">
    <defs>
     <path d="M 0 0.5 
C 0.132602 0.5 0.25979 0.447317 0.353553 0.353553 
C 0.447317 0.25979 0.5 0.132602 0.5 0 
C 0.5 -0.132602 0.447317 -0.25979 0.353553 -0.353553 
C 0.25979 -0.447317 0.132602 -0.5 0 -0.5 
C -0.132602 -0.5 -0.25979 -0.447317 -0.353553 -0.353553 
C -0.447317 -0.25979 -0.5 -0.132602 -0.5 0 
C -0.5 0.132602 -0.447317 0.25979 -0.353553 0.353553 
C -0.25979 0.447317 -0.132602 0.5 0 0.5 
z
" id="m6211270163" style="stroke:#f4a582;"/>
    </defs>
    <g clip-path="url(#pd17bab6877)">
     <use style="fill:#f4a582;stroke:#f4a582;" x="164.079884" xlink:href="#m6211270163" y="30.410008"/>
     <use style="fill:#f4a582;stroke:#f4a582;" x="165.636654" xlink:href="#m6211270163" y="31.552128"/>
     <use style="fill:#f4a582;stroke:#f4a582;" x="167.193423" xlink:href="#m6211270163" y="32.695817"/>
     <use style="fill:#f4a582;stroke:#f4a582;" x="168.750193" xlink:href="#m6211270163" y="33.838721"/>
     <use style="fill:#f4a582;stroke:#f4a582;" x="170.306962" xlink:href="#m6211270163" y="34.98084"/>
     <use style="fill:#f4a582;stroke:#f4a582;" x="171.863731" xlink:href="#m6211270163" y="36.123744"/>
     <use style="fill:#f4a582;stroke:#f4a582;" x="173.420501" xlink:href="#m6211270163" y="37.265864"/>
     <use style="fill:#f4a582;stroke:#f4a582;" x="174.97727" xlink:href="#m6211270163" y="38.409553"/>
     <use style="fill:#f4a582;stroke:#f4a582;" x="176.53404" xlink:href="#m6211270163" y="39.551672"/>
     <use style="fill:#f4a582;stroke:#f4a582;" x="178.090809" xlink:href="#m6211270163" y="40.694576"/>
     <use style="fill:#f4a582;stroke:#f4a582;" x="179.647578" xlink:href="#m6211270163" y="41.83748"/>
     <use style="fill:#f4a582;stroke:#f4a582;" x="181.204348" xlink:href="#m6211270163" y="42.980385"/>
     <use style="fill:#f4a582;stroke:#f4a582;" x="182.761117" xlink:href="#m6211270163" y="44.122504"/>
     <use style="fill:#f4a582;stroke:#f4a582;" x="184.317887" xlink:href="#m6211270163" y="45.265408"/>
     <use style="fill:#f4a582;stroke:#f4a582;" x="185.874656" xlink:href="#m6211270163" y="46.408312"/>
     <use style="fill:#f4a582;stroke:#f4a582;" x="187.431425" xlink:href="#m6211270163" y="47.551216"/>
     <use style="fill:#f4a582;stroke:#f4a582;" x="188.988195" xlink:href="#m6211270163" y="48.693336"/>
     <use style="fill:#f4a582;stroke:#f4a582;" x="190.544964" xlink:href="#m6211270163" y="49.83624"/>
     <use style="fill:#f4a582;stroke:#f4a582;" x="192.101734" xlink:href="#m6211270163" y="50.979144"/>
     <use style="fill:#f4a582;stroke:#f4a582;" x="193.658503" xlink:href="#m6211270163" y="52.121263"/>
     <use style="fill:#f4a582;stroke:#f4a582;" x="195.215272" xlink:href="#m6211270163" y="53.264952"/>
     <use style="fill:#f4a582;stroke:#f4a582;" x="196.772042" xlink:href="#m6211270163" y="54.407072"/>
     <use style="fill:#f4a582;stroke:#f4a582;" x="198.328811" xlink:href="#m6211270163" y="55.549976"/>
     <use style="fill:#f4a582;stroke:#f4a582;" x="199.885581" xlink:href="#m6211270163" y="56.69288"/>
     <use style="fill:#f4a582;stroke:#f4a582;" x="201.44235" xlink:href="#m6211270163" y="57.835784"/>
     <use style="fill:#f4a582;stroke:#f4a582;" x="202.999119" xlink:href="#m6211270163" y="58.977903"/>
     <use style="fill:#f4a582;stroke:#f4a582;" x="204.555889" xlink:href="#m6211270163" y="60.120808"/>
     <use style="fill:#f4a582;stroke:#f4a582;" x="206.112658" xlink:href="#m6211270163" y="61.263712"/>
     <use style="fill:#f4a582;stroke:#f4a582;" x="207.669428" xlink:href="#m6211270163" y="62.406616"/>
     <use style="fill:#f4a582;stroke:#f4a582;" x="209.226197" xlink:href="#m6211270163" y="63.548735"/>
    </g>
   </g>
   <g id="PathCollection_4">
    <defs>
     <path d="M 0 0.5 
C 0.132602 0.5 0.25979 0.447317 0.353553 0.353553 
C 0.447317 0.25979 0.5 0.132602 0.5 0 
C 0.5 -0.132602 0.447317 -0.25979 0.353553 -0.353553 
C 0.25979 -0.447317 0.132602 -0.5 0 -0.5 
C -0.132602 -0.5 -0.25979 -0.447317 -0.353553 -0.353553 
C -0.447317 -0.25979 -0.5 -0.132602 -0.5 0 
C -0.5 0.132602 -0.447317 0.25979 -0.353553 0.353553 
C -0.25979 0.447317 -0.132602 0.5 0 0.5 
z
" id="m784ffe1903" style="stroke:#333333;"/>
    </defs>
    <g clip-path="url(#pd17bab6877)">
     <use style="fill:#333333;stroke:#333333;" x="53.549257" xlink:href="#m784ffe1903" y="76.182693"/>
     <use style="fill:#333333;stroke:#333333;" x="55.106026" xlink:href="#m784ffe1903" y="76.182693"/>
     <use style="fill:#333333;stroke:#333333;" x="56.662795" xlink:href="#m784ffe1903" y="76.182693"/>
     <use style="fill:#333333;stroke:#333333;" x="58.219565" xlink:href="#m784ffe1903" y="76.182693"/>
     <use style="fill:#333333;stroke:#333333;" x="59.776334" xlink:href="#m784ffe1903" y="76.182693"/>
     <use style="fill:#333333;stroke:#333333;" x="61.333104" xlink:href="#m784ffe1903" y="76.182693"/>
     <use style="fill:#333333;stroke:#333333;" x="62.889873" xlink:href="#m784ffe1903" y="76.182693"/>
     <use style="fill:#333333;stroke:#333333;" x="64.446642" xlink:href="#m784ffe1903" y="76.182693"/>
     <use style="fill:#333333;stroke:#333333;" x="66.003412" xlink:href="#m784ffe1903" y="76.182693"/>
     <use style="fill:#333333;stroke:#333333;" x="67.560181" xlink:href="#m784ffe1903" y="76.182693"/>
     <use style="fill:#333333;stroke:#333333;" x="69.116951" xlink:href="#m784ffe1903" y="76.182693"/>
     <use style="fill:#333333;stroke:#333333;" x="70.67372" xlink:href="#m784ffe1903" y="76.182693"/>
     <use style="fill:#333333;stroke:#333333;" x="72.230489" xlink:href="#m784ffe1903" y="76.182693"/>
     <use style="fill:#333333;stroke:#333333;" x="73.787259" xlink:href="#m784ffe1903" y="76.182693"/>
     <use style="fill:#333333;stroke:#333333;" x="75.344028" xlink:href="#m784ffe1903" y="76.182693"/>
     <use style="fill:#333333;stroke:#333333;" x="76.900798" xlink:href="#m784ffe1903" y="76.182693"/>
     <use style="fill:#333333;stroke:#333333;" x="78.457567" xlink:href="#m784ffe1903" y="76.182693"/>
     <use style="fill:#333333;stroke:#333333;" x="80.014337" xlink:href="#m784ffe1903" y="76.182693"/>
     <use style="fill:#333333;stroke:#333333;" x="81.571106" xlink:href="#m784ffe1903" y="76.182693"/>
     <use style="fill:#333333;stroke:#333333;" x="83.127875" xlink:href="#m784ffe1903" y="76.182693"/>
     <use style="fill:#333333;stroke:#333333;" x="84.684645" xlink:href="#m784ffe1903" y="76.182693"/>
     <use style="fill:#333333;stroke:#333333;" x="86.241414" xlink:href="#m784ffe1903" y="76.182693"/>
     <use style="fill:#333333;stroke:#333333;" x="87.798184" xlink:href="#m784ffe1903" y="76.182693"/>
     <use style="fill:#333333;stroke:#333333;" x="89.354953" xlink:href="#m784ffe1903" y="76.182693"/>
     <use style="fill:#333333;stroke:#333333;" x="90.911722" xlink:href="#m784ffe1903" y="76.182693"/>
     <use style="fill:#333333;stroke:#333333;" x="92.468492" xlink:href="#m784ffe1903" y="76.182693"/>
     <use style="fill:#333333;stroke:#333333;" x="94.025261" xlink:href="#m784ffe1903" y="76.182693"/>
     <use style="fill:#333333;stroke:#333333;" x="95.582031" xlink:href="#m784ffe1903" y="76.182693"/>
     <use style="fill:#333333;stroke:#333333;" x="97.1388" xlink:href="#m784ffe1903" y="76.182693"/>
     <use style="fill:#333333;stroke:#333333;" x="98.695569" xlink:href="#m784ffe1903" y="76.182693"/>
     <use style="fill:#333333;stroke:#333333;" x="100.252339" xlink:href="#m784ffe1903" y="76.182693"/>
     <use style="fill:#333333;stroke:#333333;" x="101.809108" xlink:href="#m784ffe1903" y="76.182693"/>
     <use style="fill:#333333;stroke:#333333;" x="103.365878" xlink:href="#m784ffe1903" y="76.182693"/>
     <use style="fill:#333333;stroke:#333333;" x="104.922647" xlink:href="#m784ffe1903" y="76.182693"/>
     <use style="fill:#333333;stroke:#333333;" x="106.479416" xlink:href="#m784ffe1903" y="76.182693"/>
     <use style="fill:#333333;stroke:#333333;" x="108.036186" xlink:href="#m784ffe1903" y="76.182693"/>
     <use style="fill:#333333;stroke:#333333;" x="109.592955" xlink:href="#m784ffe1903" y="76.182693"/>
     <use style="fill:#333333;stroke:#333333;" x="111.149725" xlink:href="#m784ffe1903" y="76.182693"/>
     <use style="fill:#333333;stroke:#333333;" x="112.706494" xlink:href="#m784ffe1903" y="76.182693"/>
     <use style="fill:#333333;stroke:#333333;" x="114.263263" xlink:href="#m784ffe1903" y="76.182693"/>
     <use style="fill:#333333;stroke:#333333;" x="115.820033" xlink:href="#m784ffe1903" y="76.182693"/>
     <use style="fill:#333333;stroke:#333333;" x="117.376802" xlink:href="#m784ffe1903" y="76.182693"/>
     <use style="fill:#333333;stroke:#333333;" x="118.933572" xlink:href="#m784ffe1903" y="76.182693"/>
     <use style="fill:#333333;stroke:#333333;" x="120.490341" xlink:href="#m784ffe1903" y="76.182693"/>
     <use style="fill:#333333;stroke:#333333;" x="122.04711" xlink:href="#m784ffe1903" y="76.182693"/>
     <use style="fill:#333333;stroke:#333333;" x="123.60388" xlink:href="#m784ffe1903" y="76.182693"/>
     <use style="fill:#333333;stroke:#333333;" x="125.160649" xlink:href="#m784ffe1903" y="76.182693"/>
     <use style="fill:#333333;stroke:#333333;" x="126.717419" xlink:href="#m784ffe1903" y="76.182693"/>
     <use style="fill:#333333;stroke:#333333;" x="128.274188" xlink:href="#m784ffe1903" y="76.182693"/>
     <use style="fill:#333333;stroke:#333333;" x="129.830957" xlink:href="#m784ffe1903" y="76.182693"/>
     <use style="fill:#333333;stroke:#333333;" x="131.387727" xlink:href="#m784ffe1903" y="76.182693"/>
     <use style="fill:#333333;stroke:#333333;" x="132.944496" xlink:href="#m784ffe1903" y="76.182693"/>
     <use style="fill:#333333;stroke:#333333;" x="134.501266" xlink:href="#m784ffe1903" y="76.182693"/>
     <use style="fill:#333333;stroke:#333333;" x="136.058035" xlink:href="#m784ffe1903" y="76.182693"/>
     <use style="fill:#333333;stroke:#333333;" x="137.614804" xlink:href="#m784ffe1903" y="76.182693"/>
     <use style="fill:#333333;stroke:#333333;" x="139.171574" xlink:href="#m784ffe1903" y="76.182693"/>
     <use style="fill:#333333;stroke:#333333;" x="140.728343" xlink:href="#m784ffe1903" y="76.182693"/>
     <use style="fill:#333333;stroke:#333333;" x="142.285113" xlink:href="#m784ffe1903" y="76.182693"/>
     <use style="fill:#333333;stroke:#333333;" x="143.841882" xlink:href="#m784ffe1903" y="76.182693"/>
     <use style="fill:#333333;stroke:#333333;" x="145.398651" xlink:href="#m784ffe1903" y="76.182693"/>
     <use style="fill:#333333;stroke:#333333;" x="146.955421" xlink:href="#m784ffe1903" y="76.182693"/>
     <use style="fill:#333333;stroke:#333333;" x="148.51219" xlink:href="#m784ffe1903" y="76.182693"/>
     <use style="fill:#333333;stroke:#333333;" x="150.06896" xlink:href="#m784ffe1903" y="76.182693"/>
     <use style="fill:#333333;stroke:#333333;" x="151.625729" xlink:href="#m784ffe1903" y="76.182693"/>
     <use style="fill:#333333;stroke:#333333;" x="153.182498" xlink:href="#m784ffe1903" y="76.182693"/>
     <use style="fill:#333333;stroke:#333333;" x="154.739268" xlink:href="#m784ffe1903" y="76.182693"/>
     <use style="fill:#333333;stroke:#333333;" x="156.296037" xlink:href="#m784ffe1903" y="76.182693"/>
     <use style="fill:#333333;stroke:#333333;" x="157.852807" xlink:href="#m784ffe1903" y="76.182693"/>
     <use style="fill:#333333;stroke:#333333;" x="159.409576" xlink:href="#m784ffe1903" y="76.182693"/>
     <use style="fill:#333333;stroke:#333333;" x="160.966345" xlink:href="#m784ffe1903" y="76.182693"/>
     <use style="fill:#333333;stroke:#333333;" x="162.523115" xlink:href="#m784ffe1903" y="76.182693"/>
     <use style="fill:#333333;stroke:#333333;" x="164.079884" xlink:href="#m784ffe1903" y="76.182693"/>
     <use style="fill:#333333;stroke:#333333;" x="165.636654" xlink:href="#m784ffe1903" y="76.182693"/>
     <use style="fill:#333333;stroke:#333333;" x="167.193423" xlink:href="#m784ffe1903" y="76.182693"/>
     <use style="fill:#333333;stroke:#333333;" x="168.750193" xlink:href="#m784ffe1903" y="76.182693"/>
     <use style="fill:#333333;stroke:#333333;" x="170.306962" xlink:href="#m784ffe1903" y="76.182693"/>
     <use style="fill:#333333;stroke:#333333;" x="171.863731" xlink:href="#m784ffe1903" y="76.182693"/>
     <use style="fill:#333333;stroke:#333333;" x="173.420501" xlink:href="#m784ffe1903" y="76.182693"/>
     <use style="fill:#333333;stroke:#333333;" x="174.97727" xlink:href="#m784ffe1903" y="76.182693"/>
     <use style="fill:#333333;stroke:#333333;" x="176.53404" xlink:href="#m784ffe1903" y="76.182693"/>
     <use style="fill:#333333;stroke:#333333;" x="178.090809" xlink:href="#m784ffe1903" y="76.182693"/>
     <use style="fill:#333333;stroke:#333333;" x="179.647578" xlink:href="#m784ffe1903" y="76.182693"/>
     <use style="fill:#333333;stroke:#333333;" x="181.204348" xlink:href="#m784ffe1903" y="76.182693"/>
     <use style="fill:#333333;stroke:#333333;" x="182.761117" xlink:href="#m784ffe1903" y="76.182693"/>
     <use style="fill:#333333;stroke:#333333;" x="184.317887" xlink:href="#m784ffe1903" y="76.182693"/>
     <use style="fill:#333333;stroke:#333333;" x="185.874656" xlink:href="#m784ffe1903" y="76.182693"/>
     <use style="fill:#333333;stroke:#333333;" x="187.431425" xlink:href="#m784ffe1903" y="76.182693"/>
     <use style="fill:#333333;stroke:#333333;" x="188.988195" xlink:href="#m784ffe1903" y="76.182693"/>
     <use style="fill:#333333;stroke:#333333;" x="190.544964" xlink:href="#m784ffe1903" y="76.182693"/>
     <use style="fill:#333333;stroke:#333333;" x="192.101734" xlink:href="#m784ffe1903" y="76.182693"/>
     <use style="fill:#333333;stroke:#333333;" x="193.658503" xlink:href="#m784ffe1903" y="76.182693"/>
     <use style="fill:#333333;stroke:#333333;" x="195.215272" xlink:href="#m784ffe1903" y="76.182693"/>
     <use style="fill:#333333;stroke:#333333;" x="196.772042" xlink:href="#m784ffe1903" y="76.182693"/>
     <use style="fill:#333333;stroke:#333333;" x="198.328811" xlink:href="#m784ffe1903" y="76.182693"/>
     <use style="fill:#333333;stroke:#333333;" x="199.885581" xlink:href="#m784ffe1903" y="76.182693"/>
     <use style="fill:#333333;stroke:#333333;" x="201.44235" xlink:href="#m784ffe1903" y="76.182693"/>
     <use style="fill:#333333;stroke:#333333;" x="202.999119" xlink:href="#m784ffe1903" y="76.182693"/>
     <use style="fill:#333333;stroke:#333333;" x="204.555889" xlink:href="#m784ffe1903" y="76.182693"/>
     <use style="fill:#333333;stroke:#333333;" x="206.112658" xlink:href="#m784ffe1903" y="76.182693"/>
     <use style="fill:#333333;stroke:#333333;" x="207.669428" xlink:href="#m784ffe1903" y="76.182693"/>
     <use style="fill:#333333;stroke:#333333;" x="209.226197" xlink:href="#m784ffe1903" y="76.182693"/>
    </g>
   </g>
   <g id="PathCollection_5">
    <g clip-path="url(#pd17bab6877)">
     <use style="fill:#92c5de;stroke:#92c5de;" x="53.549257" xlink:href="#md278ec5224" y="84.811777"/>
     <use style="fill:#92c5de;stroke:#92c5de;" x="55.106026" xlink:href="#md278ec5224" y="83.668873"/>
     <use style="fill:#92c5de;stroke:#92c5de;" x="56.662795" xlink:href="#md278ec5224" y="82.525968"/>
     <use style="fill:#92c5de;stroke:#92c5de;" x="58.219565" xlink:href="#md278ec5224" y="81.383064"/>
     <use style="fill:#92c5de;stroke:#92c5de;" x="59.776334" xlink:href="#md278ec5224" y="80.240945"/>
     <use style="fill:#92c5de;stroke:#92c5de;" x="61.333104" xlink:href="#md278ec5224" y="79.098041"/>
     <use style="fill:#92c5de;stroke:#92c5de;" x="62.889873" xlink:href="#md278ec5224" y="77.955137"/>
     <use style="fill:#92c5de;stroke:#92c5de;" x="64.446642" xlink:href="#md278ec5224" y="76.813017"/>
     <use style="fill:#92c5de;stroke:#92c5de;" x="66.003412" xlink:href="#md278ec5224" y="75.670113"/>
     <use style="fill:#92c5de;stroke:#92c5de;" x="67.560181" xlink:href="#md278ec5224" y="74.526424"/>
     <use style="fill:#92c5de;stroke:#92c5de;" x="69.116951" xlink:href="#md278ec5224" y="73.384305"/>
     <use style="fill:#92c5de;stroke:#92c5de;" x="70.67372" xlink:href="#md278ec5224" y="72.242186"/>
     <use style="fill:#92c5de;stroke:#92c5de;" x="72.230489" xlink:href="#md278ec5224" y="71.099281"/>
     <use style="fill:#92c5de;stroke:#92c5de;" x="73.787259" xlink:href="#md278ec5224" y="69.955592"/>
     <use style="fill:#92c5de;stroke:#92c5de;" x="75.344028" xlink:href="#md278ec5224" y="74.006779"/>
     <use style="fill:#92c5de;stroke:#92c5de;" x="76.900798" xlink:href="#md278ec5224" y="72.863875"/>
     <use style="fill:#92c5de;stroke:#92c5de;" x="78.457567" xlink:href="#md278ec5224" y="71.720971"/>
     <use style="fill:#92c5de;stroke:#92c5de;" x="80.014337" xlink:href="#md278ec5224" y="71.925846"/>
     <use style="fill:#92c5de;stroke:#92c5de;" x="81.571106" xlink:href="#md278ec5224" y="70.782942"/>
     <use style="fill:#92c5de;stroke:#92c5de;" x="83.127875" xlink:href="#md278ec5224" y="69.640823"/>
     <use style="fill:#92c5de;stroke:#92c5de;" x="84.684645" xlink:href="#md278ec5224" y="68.497918"/>
     <use style="fill:#92c5de;stroke:#92c5de;" x="86.241414" xlink:href="#md278ec5224" y="67.355014"/>
     <use style="fill:#92c5de;stroke:#92c5de;" x="87.798184" xlink:href="#md278ec5224" y="66.21211"/>
     <use style="fill:#92c5de;stroke:#92c5de;" x="89.354953" xlink:href="#md278ec5224" y="65.069991"/>
     <use style="fill:#92c5de;stroke:#92c5de;" x="90.911722" xlink:href="#md278ec5224" y="63.927087"/>
     <use style="fill:#92c5de;stroke:#92c5de;" x="92.468492" xlink:href="#md278ec5224" y="62.784182"/>
     <use style="fill:#92c5de;stroke:#92c5de;" x="94.025261" xlink:href="#md278ec5224" y="61.641278"/>
     <use style="fill:#92c5de;stroke:#92c5de;" x="95.582031" xlink:href="#md278ec5224" y="60.499159"/>
     <use style="fill:#92c5de;stroke:#92c5de;" x="97.1388" xlink:href="#md278ec5224" y="59.356255"/>
     <use style="fill:#92c5de;stroke:#92c5de;" x="98.695569" xlink:href="#md278ec5224" y="58.213351"/>
     <use style="fill:#92c5de;stroke:#92c5de;" x="100.252339" xlink:href="#md278ec5224" y="57.071231"/>
     <use style="fill:#92c5de;stroke:#92c5de;" x="101.809108" xlink:href="#md278ec5224" y="55.928327"/>
     <use style="fill:#92c5de;stroke:#92c5de;" x="103.365878" xlink:href="#md278ec5224" y="54.785423"/>
     <use style="fill:#92c5de;stroke:#92c5de;" x="104.922647" xlink:href="#md278ec5224" y="53.642519"/>
     <use style="fill:#92c5de;stroke:#92c5de;" x="106.479416" xlink:href="#md278ec5224" y="52.5004"/>
     <use style="fill:#92c5de;stroke:#92c5de;" x="108.036186" xlink:href="#md278ec5224" y="51.357495"/>
     <use style="fill:#92c5de;stroke:#92c5de;" x="109.592955" xlink:href="#md278ec5224" y="50.214591"/>
     <use style="fill:#92c5de;stroke:#92c5de;" x="111.149725" xlink:href="#md278ec5224" y="49.071687"/>
     <use style="fill:#92c5de;stroke:#92c5de;" x="112.706494" xlink:href="#md278ec5224" y="47.928783"/>
     <use style="fill:#92c5de;stroke:#92c5de;" x="114.263263" xlink:href="#md278ec5224" y="46.785879"/>
     <use style="fill:#92c5de;stroke:#92c5de;" x="115.820033" xlink:href="#md278ec5224" y="45.643759"/>
     <use style="fill:#92c5de;stroke:#92c5de;" x="117.376802" xlink:href="#md278ec5224" y="44.50007"/>
     <use style="fill:#92c5de;stroke:#92c5de;" x="118.933572" xlink:href="#md278ec5224" y="43.357951"/>
     <use style="fill:#92c5de;stroke:#92c5de;" x="120.490341" xlink:href="#md278ec5224" y="42.215047"/>
     <use style="fill:#92c5de;stroke:#92c5de;" x="122.04711" xlink:href="#md278ec5224" y="41.072928"/>
     <use style="fill:#92c5de;stroke:#92c5de;" x="123.60388" xlink:href="#md278ec5224" y="39.930023"/>
     <use style="fill:#92c5de;stroke:#92c5de;" x="125.160649" xlink:href="#md278ec5224" y="38.787119"/>
     <use style="fill:#92c5de;stroke:#92c5de;" x="126.717419" xlink:href="#md278ec5224" y="37.644215"/>
     <use style="fill:#92c5de;stroke:#92c5de;" x="128.274188" xlink:href="#md278ec5224" y="36.501311"/>
     <use style="fill:#92c5de;stroke:#92c5de;" x="129.830957" xlink:href="#md278ec5224" y="35.359192"/>
     <use style="fill:#92c5de;stroke:#92c5de;" x="131.387727" xlink:href="#md278ec5224" y="34.216287"/>
     <use style="fill:#92c5de;stroke:#92c5de;" x="132.944496" xlink:href="#md278ec5224" y="33.073383"/>
     <use style="fill:#92c5de;stroke:#92c5de;" x="134.501266" xlink:href="#md278ec5224" y="31.931264"/>
     <use style="fill:#92c5de;stroke:#92c5de;" x="136.058035" xlink:href="#md278ec5224" y="30.78836"/>
    </g>
   </g>
   <g id="line2d_9">
    <path clip-path="url(#pd17bab6877)" d="M 53.549257 115.743976 
L 55.106026 114.601072 
L 56.662795 113.458168 
L 58.219565 112.315264 
L 59.776334 111.17236 
L 61.333104 110.03024 
L 62.889873 108.887336 
L 64.446642 107.744432 
L 66.003412 106.601528 
L 67.560181 105.458624 
L 69.116951 104.316504 
L 70.67372 103.1736 
L 72.230489 102.030696 
L 73.787259 100.887792 
L 75.344028 98.8673 
L 76.900798 97.725181 
L 78.457567 96.582277 
L 80.014337 89.776659 
L 81.571106 88.633755 
L 83.127875 87.491636 
L 84.684645 86.347947 
L 86.241414 85.205828 
L 87.798184 84.062923 
L 89.354953 82.920804 
L 90.911722 81.7779 
L 92.468492 80.634211 
L 94.025261 79.492092 
L 95.582031 78.349187 
L 97.1388 77.206283 
L 98.695569 76.063379 
L 100.252339 74.92126 
L 101.809108 73.779141 
L 103.365878 72.636236 
L 104.922647 71.493332 
L 106.479416 70.350428 
L 108.036186 69.207524 
L 109.592955 68.06462 
L 111.149725 66.9225 
L 112.706494 65.778811 
L 114.263263 64.636692 
L 115.820033 63.494573 
L 117.376802 62.350884 
L 118.933572 61.208764 
L 120.490341 60.06586 
L 122.04711 58.922956 
L 123.60388 57.780837 
L 125.160649 56.637933 
L 126.717419 55.495028 
L 128.274188 54.352124 
L 129.830957 53.20922 
L 131.387727 52.067101 
L 132.944496 50.924197 
L 134.501266 49.782077 
L 136.058035 48.638388 
L 137.614804 47.496269 
L 139.171574 46.353365 
L 140.728343 45.210461 
L 142.285113 44.067556 
L 143.841882 42.925437 
L 145.398651 41.782533 
L 146.955421 40.639629 
L 148.51219 39.496725 
L 150.06896 38.354605 
L 151.625729 30.096024 
" style="fill:none;stroke:#92c5de;stroke-linecap:round;stroke-width:1.5;"/>
   </g>
   <g id="line2d_10">
    <path clip-path="url(#pd17bab6877)" d="M 53.549257 79.231484 
L 55.106026 76.945676 
L 56.662795 74.659868 
L 58.219565 72.374059 
L 59.776334 70.089036 
L 61.333104 67.804012 
L 62.889873 65.518204 
L 64.446642 63.233181 
L 66.003412 60.947372 
" style="fill:none;stroke:#4393c3;stroke-linecap:round;stroke-width:1.5;"/>
   </g>
   <g id="line2d_11">
    <path clip-path="url(#pd17bab6877)" d="M 164.079884 30.410008 
L 165.636654 31.552128 
L 167.193423 32.695817 
L 168.750193 33.838721 
L 170.306962 34.98084 
L 171.863731 36.123744 
L 173.420501 37.265864 
L 174.97727 38.409553 
L 176.53404 39.551672 
L 178.090809 40.694576 
L 179.647578 41.83748 
L 181.204348 42.980385 
L 182.761117 44.122504 
L 184.317887 45.265408 
L 185.874656 46.408312 
L 187.431425 47.551216 
L 188.988195 48.693336 
L 190.544964 49.83624 
L 192.101734 50.979144 
L 193.658503 52.121263 
L 195.215272 53.264952 
L 196.772042 54.407072 
L 198.328811 55.549976 
L 199.885581 56.69288 
L 201.44235 57.835784 
L 202.999119 58.977903 
L 204.555889 60.120808 
L 206.112658 61.263712 
L 207.669428 62.406616 
L 209.226197 63.548735 
" style="fill:none;stroke:#f4a582;stroke-linecap:round;stroke-width:1.5;"/>
   </g>
   <g id="line2d_12">
    <path clip-path="url(#pd17bab6877)" d="M 53.549257 76.182693 
L 55.106026 76.182693 
L 56.662795 76.182693 
L 58.219565 76.182693 
L 59.776334 76.182693 
L 61.333104 76.182693 
L 62.889873 76.182693 
L 64.446642 76.182693 
L 66.003412 76.182693 
L 67.560181 76.182693 
L 69.116951 76.182693 
L 70.67372 76.182693 
L 72.230489 76.182693 
L 73.787259 76.182693 
L 75.344028 76.182693 
L 76.900798 76.182693 
L 78.457567 76.182693 
L 80.014337 76.182693 
L 81.571106 76.182693 
L 83.127875 76.182693 
L 84.684645 76.182693 
L 86.241414 76.182693 
L 87.798184 76.182693 
L 89.354953 76.182693 
L 90.911722 76.182693 
L 92.468492 76.182693 
L 94.025261 76.182693 
L 95.582031 76.182693 
L 97.1388 76.182693 
L 98.695569 76.182693 
L 100.252339 76.182693 
L 101.809108 76.182693 
L 103.365878 76.182693 
L 104.922647 76.182693 
L 106.479416 76.182693 
L 108.036186 76.182693 
L 109.592955 76.182693 
L 111.149725 76.182693 
L 112.706494 76.182693 
L 114.263263 76.182693 
L 115.820033 76.182693 
L 117.376802 76.182693 
L 118.933572 76.182693 
L 120.490341 76.182693 
L 122.04711 76.182693 
L 123.60388 76.182693 
L 125.160649 76.182693 
L 126.717419 76.182693 
L 128.274188 76.182693 
L 129.830957 76.182693 
L 131.387727 76.182693 
L 132.944496 76.182693 
L 134.501266 76.182693 
L 136.058035 76.182693 
L 137.614804 76.182693 
L 139.171574 76.182693 
L 140.728343 76.182693 
L 142.285113 76.182693 
L 143.841882 76.182693 
L 145.398651 76.182693 
L 146.955421 76.182693 
L 148.51219 76.182693 
L 150.06896 76.182693 
L 151.625729 76.182693 
L 153.182498 76.182693 
L 154.739268 76.182693 
L 156.296037 76.182693 
L 157.852807 76.182693 
L 159.409576 76.182693 
L 160.966345 76.182693 
L 162.523115 76.182693 
L 164.079884 76.182693 
L 165.636654 76.182693 
L 167.193423 76.182693 
L 168.750193 76.182693 
L 170.306962 76.182693 
L 171.863731 76.182693 
L 173.420501 76.182693 
L 174.97727 76.182693 
L 176.53404 76.182693 
L 178.090809 76.182693 
L 179.647578 76.182693 
L 181.204348 76.182693 
L 182.761117 76.182693 
L 184.317887 76.182693 
L 185.874656 76.182693 
L 187.431425 76.182693 
L 188.988195 76.182693 
L 190.544964 76.182693 
L 192.101734 76.182693 
L 193.658503 76.182693 
L 195.215272 76.182693 
L 196.772042 76.182693 
L 198.328811 76.182693 
L 199.885581 76.182693 
L 201.44235 76.182693 
L 202.999119 76.182693 
L 204.555889 76.182693 
L 206.112658 76.182693 
L 207.669428 76.182693 
L 209.226197 76.182693 
" style="fill:none;stroke:#333333;stroke-linecap:round;stroke-width:1.5;"/>
   </g>
   <g id="line2d_13">
    <path clip-path="url(#pd17bab6877)" d="M 53.549257 84.811777 
L 55.106026 83.668873 
L 56.662795 82.525968 
L 58.219565 81.383064 
L 59.776334 80.240945 
L 61.333104 79.098041 
L 62.889873 77.955137 
L 64.446642 76.813017 
L 66.003412 75.670113 
L 67.560181 74.526424 
L 69.116951 73.384305 
L 70.67372 72.242186 
L 72.230489 71.099281 
L 73.787259 69.955592 
L 75.344028 74.006779 
L 76.900798 72.863875 
L 78.457567 71.720971 
L 80.014337 71.925846 
L 81.571106 70.782942 
L 83.127875 69.640823 
L 84.684645 68.497918 
L 86.241414 67.355014 
L 87.798184 66.21211 
L 89.354953 65.069991 
L 90.911722 63.927087 
L 92.468492 62.784182 
L 94.025261 61.641278 
L 95.582031 60.499159 
L 97.1388 59.356255 
L 98.695569 58.213351 
L 100.252339 57.071231 
L 101.809108 55.928327 
L 103.365878 54.785423 
L 104.922647 53.642519 
L 106.479416 52.5004 
L 108.036186 51.357495 
L 109.592955 50.214591 
L 111.149725 49.071687 
L 112.706494 47.928783 
L 114.263263 46.785879 
L 115.820033 45.643759 
L 117.376802 44.50007 
L 118.933572 43.357951 
L 120.490341 42.215047 
L 122.04711 41.072928 
L 123.60388 39.930023 
L 125.160649 38.787119 
L 126.717419 37.644215 
L 128.274188 36.501311 
L 129.830957 35.359192 
L 131.387727 34.216287 
L 132.944496 33.073383 
L 134.501266 31.931264 
L 136.058035 30.78836 
" style="fill:none;stroke:#92c5de;stroke-linecap:round;stroke-width:1.5;"/>
   </g>
   <g id="patch_3">
    <path d="M 45.425 120.04 
L 45.425 25.8 
" style="fill:none;stroke:#262626;stroke-linecap:square;stroke-linejoin:miter;stroke-width:0.8;"/>
   </g>
   <g id="patch_4">
    <path d="M 45.425 120.04 
L 217.35 120.04 
" style="fill:none;stroke:#262626;stroke-linecap:square;stroke-linejoin:miter;stroke-width:0.8;"/>
   </g>
   <g id="text_11">
    <!-- SM13 -->
    <defs>
     <path d="M 4.5 23 
L 13.421875 23.78125 
Q 14.0625 18.40625 16.375 14.96875 
Q 18.703125 11.53125 23.578125 9.40625 
Q 28.46875 7.28125 34.578125 7.28125 
Q 39.984375 7.28125 44.140625 8.890625 
Q 48.296875 10.5 50.3125 13.296875 
Q 52.34375 16.109375 52.34375 19.4375 
Q 52.34375 22.796875 50.390625 25.3125 
Q 48.4375 27.828125 43.953125 29.546875 
Q 41.0625 30.671875 31.203125 33.03125 
Q 21.34375 35.40625 17.390625 37.5 
Q 12.25 40.1875 9.734375 44.15625 
Q 7.234375 48.140625 7.234375 53.078125 
Q 7.234375 58.5 10.296875 63.203125 
Q 13.375 67.921875 19.28125 70.359375 
Q 25.203125 72.796875 32.421875 72.796875 
Q 40.375 72.796875 46.453125 70.234375 
Q 52.546875 67.671875 55.8125 62.6875 
Q 59.078125 57.71875 59.328125 51.421875 
L 50.25 50.734375 
Q 49.515625 57.515625 45.28125 60.984375 
Q 41.0625 64.453125 32.8125 64.453125 
Q 24.21875 64.453125 20.28125 61.296875 
Q 16.359375 58.15625 16.359375 53.71875 
Q 16.359375 49.859375 19.140625 47.359375 
Q 21.875 44.875 33.421875 42.265625 
Q 44.96875 39.65625 49.265625 37.703125 
Q 55.515625 34.8125 58.484375 30.390625 
Q 61.46875 25.984375 61.46875 20.21875 
Q 61.46875 14.5 58.203125 9.4375 
Q 54.9375 4.390625 48.796875 1.578125 
Q 42.671875 -1.21875 35.015625 -1.21875 
Q 25.296875 -1.21875 18.71875 1.609375 
Q 12.15625 4.4375 8.421875 10.125 
Q 4.6875 15.828125 4.5 23 
z
" id="ArialMT-53"/>
     <path d="M 7.421875 0 
L 7.421875 71.578125 
L 21.6875 71.578125 
L 38.625 20.90625 
Q 40.96875 13.8125 42.046875 10.296875 
Q 43.265625 14.203125 45.84375 21.78125 
L 62.984375 71.578125 
L 75.734375 71.578125 
L 75.734375 0 
L 66.609375 0 
L 66.609375 59.90625 
L 45.796875 0 
L 37.25 0 
L 16.546875 60.9375 
L 16.546875 0 
z
" id="ArialMT-4d"/>
     <path d="M 4.203125 18.890625 
L 12.984375 20.0625 
Q 14.5 12.59375 18.140625 9.296875 
Q 21.78125 6 27 6 
Q 33.203125 6 37.46875 10.296875 
Q 41.75 14.59375 41.75 20.953125 
Q 41.75 27 37.796875 30.921875 
Q 33.84375 34.859375 27.734375 34.859375 
Q 25.25 34.859375 21.53125 33.890625 
L 22.515625 41.609375 
Q 23.390625 41.5 23.921875 41.5 
Q 29.546875 41.5 34.03125 44.421875 
Q 38.53125 47.359375 38.53125 53.46875 
Q 38.53125 58.296875 35.25 61.46875 
Q 31.984375 64.65625 26.8125 64.65625 
Q 21.6875 64.65625 18.265625 61.421875 
Q 14.84375 58.203125 13.875 51.765625 
L 5.078125 53.328125 
Q 6.6875 62.15625 12.390625 67.015625 
Q 18.109375 71.875 26.609375 71.875 
Q 32.46875 71.875 37.390625 69.359375 
Q 42.328125 66.84375 44.9375 62.5 
Q 47.5625 58.15625 47.5625 53.265625 
Q 47.5625 48.640625 45.0625 44.828125 
Q 42.578125 41.015625 37.703125 38.765625 
Q 44.046875 37.3125 47.5625 32.6875 
Q 51.078125 28.078125 51.078125 21.140625 
Q 51.078125 11.765625 44.234375 5.25 
Q 37.40625 -1.265625 26.953125 -1.265625 
Q 17.53125 -1.265625 11.296875 4.34375 
Q 5.078125 9.96875 4.203125 18.890625 
z
" id="ArialMT-33"/>
    </defs>
    <g style="fill:#262626;" transform="translate(115.714375 19.8)scale(0.12 -0.12)">
     <use xlink:href="#ArialMT-53"/>
     <use x="66.699219" xlink:href="#ArialMT-4d"/>
     <use x="150" xlink:href="#ArialMT-31"/>
     <use x="205.615234" xlink:href="#ArialMT-33"/>
    </g>
   </g>
  </g>
 </g>
 <defs>
  <clipPath id="pd17bab6877">
   <rect height="94.24" width="171.925" x="45.425" y="25.8"/>
  </clipPath>
 </defs>
</svg>
