<?xml version="1.0" encoding="utf-8" standalone="no"?>
<!DOCTYPE svg PUBLIC "-//W3C//DTD SVG 1.1//EN"
  "http://www.w3.org/Graphics/SVG/1.1/DTD/svg11.dtd">
<!-- Created with matplotlib (http://matplotlib.org/) -->
<svg height="159.84pt" version="1.1" viewBox="0 0 230.4 159.84" width="230.4pt" xmlns="http://www.w3.org/2000/svg" xmlns:xlink="http://www.w3.org/1999/xlink">
 <defs>
  <style type="text/css">
*{stroke-linecap:butt;stroke-linejoin:round;}
  </style>
 </defs>
 <g id="figure_1">
  <g id="patch_1">
   <path d="M 0 159.84 
L 230.4 159.84 
L 230.4 0 
L 0 0 
z
" style="fill:#ffffff;"/>
  </g>
  <g id="axes_1">
   <g id="patch_2">
    <path d="M 45.183929 120.04 
L 217.35 120.04 
L 217.35 25.8 
L 45.183929 25.8 
z
" style="fill:#ffffff;"/>
   </g>
   <g id="matplotlib.axis_1">
    <g id="xtick_1">
     <g id="line2d_1">
      <defs>
       <path d="M 0 0 
L 0 3.5 
" id="m0c62609a8c" style="stroke:#262626;stroke-width:0.8;"/>
      </defs>
      <g>
       <use style="fill:#262626;stroke:#262626;stroke-width:0.8;" x="53.319021" xlink:href="#m0c62609a8c" y="120.04"/>
      </g>
     </g>
     <g id="text_1">
      <!-- 2 -->
      <defs>
       <path d="M 50.34375 8.453125 
L 50.34375 0 
L 3.03125 0 
Q 2.9375 3.171875 4.046875 6.109375 
Q 5.859375 10.9375 9.828125 15.625 
Q 13.8125 20.3125 21.34375 26.46875 
Q 33.015625 36.03125 37.109375 41.625 
Q 41.21875 47.21875 41.21875 52.203125 
Q 41.21875 57.421875 37.46875 61 
Q 33.734375 64.59375 27.734375 64.59375 
Q 21.390625 64.59375 17.578125 60.78125 
Q 13.765625 56.984375 13.71875 50.25 
L 4.6875 51.171875 
Q 5.609375 61.28125 11.65625 66.578125 
Q 17.71875 71.875 27.9375 71.875 
Q 38.234375 71.875 44.234375 66.15625 
Q 50.25 60.453125 50.25 52 
Q 50.25 47.703125 48.484375 43.546875 
Q 46.734375 39.40625 42.65625 34.8125 
Q 38.578125 30.21875 29.109375 22.21875 
Q 21.1875 15.578125 18.9375 13.203125 
Q 16.703125 10.84375 15.234375 8.453125 
z
" id="ArialMT-32"/>
      </defs>
      <g style="fill:#262626;" transform="translate(50.538552 134.197812)scale(0.1 -0.1)">
       <use xlink:href="#ArialMT-32"/>
      </g>
     </g>
    </g>
    <g id="xtick_2">
     <g id="line2d_2">
      <g>
       <use style="fill:#262626;stroke:#262626;stroke-width:0.8;" x="84.498198" xlink:href="#m0c62609a8c" y="120.04"/>
      </g>
     </g>
     <g id="text_2">
      <!-- 4 -->
      <defs>
       <path d="M 32.328125 0 
L 32.328125 17.140625 
L 1.265625 17.140625 
L 1.265625 25.203125 
L 33.9375 71.578125 
L 41.109375 71.578125 
L 41.109375 25.203125 
L 50.78125 25.203125 
L 50.78125 17.140625 
L 41.109375 17.140625 
L 41.109375 0 
z
M 32.328125 25.203125 
L 32.328125 57.46875 
L 9.90625 25.203125 
z
" id="ArialMT-34"/>
      </defs>
      <g style="fill:#262626;" transform="translate(81.717729 134.197812)scale(0.1 -0.1)">
       <use xlink:href="#ArialMT-34"/>
      </g>
     </g>
    </g>
    <g id="xtick_3">
     <g id="line2d_3">
      <g>
       <use style="fill:#262626;stroke:#262626;stroke-width:0.8;" x="115.677376" xlink:href="#m0c62609a8c" y="120.04"/>
      </g>
     </g>
     <g id="text_3">
      <!-- 6 -->
      <defs>
       <path d="M 49.75 54.046875 
L 41.015625 53.375 
Q 39.84375 58.546875 37.703125 60.890625 
Q 34.125 64.65625 28.90625 64.65625 
Q 24.703125 64.65625 21.53125 62.3125 
Q 17.390625 59.28125 14.984375 53.46875 
Q 12.59375 47.65625 12.5 36.921875 
Q 15.671875 41.75 20.265625 44.09375 
Q 24.859375 46.4375 29.890625 46.4375 
Q 38.671875 46.4375 44.84375 39.96875 
Q 51.03125 33.5 51.03125 23.25 
Q 51.03125 16.5 48.125 10.71875 
Q 45.21875 4.9375 40.140625 1.859375 
Q 35.0625 -1.21875 28.609375 -1.21875 
Q 17.625 -1.21875 10.6875 6.859375 
Q 3.765625 14.9375 3.765625 33.5 
Q 3.765625 54.25 11.421875 63.671875 
Q 18.109375 71.875 29.4375 71.875 
Q 37.890625 71.875 43.28125 67.140625 
Q 48.6875 62.40625 49.75 54.046875 
z
M 13.875 23.1875 
Q 13.875 18.65625 15.796875 14.5 
Q 17.71875 10.359375 21.1875 8.171875 
Q 24.65625 6 28.46875 6 
Q 34.03125 6 38.03125 10.484375 
Q 42.046875 14.984375 42.046875 22.703125 
Q 42.046875 30.125 38.078125 34.390625 
Q 34.125 38.671875 28.125 38.671875 
Q 22.171875 38.671875 18.015625 34.390625 
Q 13.875 30.125 13.875 23.1875 
z
" id="ArialMT-36"/>
      </defs>
      <g style="fill:#262626;" transform="translate(112.896907 134.197812)scale(0.1 -0.1)">
       <use xlink:href="#ArialMT-36"/>
      </g>
     </g>
    </g>
    <g id="xtick_4">
     <g id="line2d_4">
      <g>
       <use style="fill:#262626;stroke:#262626;stroke-width:0.8;" x="146.856553" xlink:href="#m0c62609a8c" y="120.04"/>
      </g>
     </g>
     <g id="text_4">
      <!-- 8 -->
      <defs>
       <path d="M 17.671875 38.8125 
Q 12.203125 40.828125 9.5625 44.53125 
Q 6.9375 48.25 6.9375 53.421875 
Q 6.9375 61.234375 12.546875 66.546875 
Q 18.171875 71.875 27.484375 71.875 
Q 36.859375 71.875 42.578125 66.421875 
Q 48.296875 60.984375 48.296875 53.171875 
Q 48.296875 48.1875 45.671875 44.5 
Q 43.0625 40.828125 37.75 38.8125 
Q 44.34375 36.671875 47.78125 31.875 
Q 51.21875 27.09375 51.21875 20.453125 
Q 51.21875 11.28125 44.71875 5.03125 
Q 38.234375 -1.21875 27.640625 -1.21875 
Q 17.046875 -1.21875 10.546875 5.046875 
Q 4.046875 11.328125 4.046875 20.703125 
Q 4.046875 27.6875 7.59375 32.390625 
Q 11.140625 37.109375 17.671875 38.8125 
z
M 15.921875 53.71875 
Q 15.921875 48.640625 19.1875 45.40625 
Q 22.46875 42.1875 27.6875 42.1875 
Q 32.765625 42.1875 36.015625 45.375 
Q 39.265625 48.578125 39.265625 53.21875 
Q 39.265625 58.0625 35.90625 61.359375 
Q 32.5625 64.65625 27.59375 64.65625 
Q 22.5625 64.65625 19.234375 61.421875 
Q 15.921875 58.203125 15.921875 53.71875 
z
M 13.09375 20.65625 
Q 13.09375 16.890625 14.875 13.375 
Q 16.65625 9.859375 20.171875 7.921875 
Q 23.6875 6 27.734375 6 
Q 34.03125 6 38.125 10.046875 
Q 42.234375 14.109375 42.234375 20.359375 
Q 42.234375 26.703125 38.015625 30.859375 
Q 33.796875 35.015625 27.4375 35.015625 
Q 21.234375 35.015625 17.15625 30.90625 
Q 13.09375 26.8125 13.09375 20.65625 
z
" id="ArialMT-38"/>
      </defs>
      <g style="fill:#262626;" transform="translate(144.076084 134.197812)scale(0.1 -0.1)">
       <use xlink:href="#ArialMT-38"/>
      </g>
     </g>
    </g>
    <g id="xtick_5">
     <g id="line2d_5">
      <g>
       <use style="fill:#262626;stroke:#262626;stroke-width:0.8;" x="178.03573" xlink:href="#m0c62609a8c" y="120.04"/>
      </g>
     </g>
     <g id="text_5">
      <!-- 10 -->
      <defs>
       <path d="M 37.25 0 
L 28.46875 0 
L 28.46875 56 
Q 25.296875 52.984375 20.140625 49.953125 
Q 14.984375 46.921875 10.890625 45.40625 
L 10.890625 53.90625 
Q 18.265625 57.375 23.78125 62.296875 
Q 29.296875 67.234375 31.59375 71.875 
L 37.25 71.875 
z
" id="ArialMT-31"/>
       <path d="M 4.15625 35.296875 
Q 4.15625 48 6.765625 55.734375 
Q 9.375 63.484375 14.515625 67.671875 
Q 19.671875 71.875 27.484375 71.875 
Q 33.25 71.875 37.59375 69.546875 
Q 41.9375 67.234375 44.765625 62.859375 
Q 47.609375 58.5 49.21875 52.21875 
Q 50.828125 45.953125 50.828125 35.296875 
Q 50.828125 22.703125 48.234375 14.96875 
Q 45.65625 7.234375 40.5 3 
Q 35.359375 -1.21875 27.484375 -1.21875 
Q 17.140625 -1.21875 11.234375 6.203125 
Q 4.15625 15.140625 4.15625 35.296875 
z
M 13.1875 35.296875 
Q 13.1875 17.671875 17.3125 11.828125 
Q 21.4375 6 27.484375 6 
Q 33.546875 6 37.671875 11.859375 
Q 41.796875 17.71875 41.796875 35.296875 
Q 41.796875 52.984375 37.671875 58.78125 
Q 33.546875 64.59375 27.390625 64.59375 
Q 21.34375 64.59375 17.71875 59.46875 
Q 13.1875 52.9375 13.1875 35.296875 
z
" id="ArialMT-30"/>
      </defs>
      <g style="fill:#262626;" transform="translate(172.474793 134.197812)scale(0.1 -0.1)">
       <use xlink:href="#ArialMT-31"/>
       <use x="55.615234" xlink:href="#ArialMT-30"/>
      </g>
     </g>
    </g>
    <g id="xtick_6">
     <g id="line2d_6">
      <g>
       <use style="fill:#262626;stroke:#262626;stroke-width:0.8;" x="209.214908" xlink:href="#m0c62609a8c" y="120.04"/>
      </g>
     </g>
     <g id="text_6">
      <!-- 12 -->
      <g style="fill:#262626;" transform="translate(203.65397 134.197812)scale(0.1 -0.1)">
       <use xlink:href="#ArialMT-31"/>
       <use x="55.615234" xlink:href="#ArialMT-32"/>
      </g>
     </g>
    </g>
    <g id="text_7">
     <!-- pH -->
     <defs>
      <path d="M 6.59375 -19.875 
L 6.59375 51.859375 
L 14.59375 51.859375 
L 14.59375 45.125 
Q 17.4375 49.078125 21 51.046875 
Q 24.5625 53.03125 29.640625 53.03125 
Q 36.28125 53.03125 41.359375 49.609375 
Q 46.4375 46.1875 49.015625 39.953125 
Q 51.609375 33.734375 51.609375 26.3125 
Q 51.609375 18.359375 48.75 11.984375 
Q 45.90625 5.609375 40.453125 2.21875 
Q 35.015625 -1.171875 29 -1.171875 
Q 24.609375 -1.171875 21.109375 0.6875 
Q 17.625 2.546875 15.375 5.375 
L 15.375 -19.875 
z
M 14.546875 25.640625 
Q 14.546875 15.625 18.59375 10.84375 
Q 22.65625 6.0625 28.421875 6.0625 
Q 34.28125 6.0625 38.453125 11.015625 
Q 42.625 15.96875 42.625 26.375 
Q 42.625 36.28125 38.546875 41.203125 
Q 34.46875 46.140625 28.8125 46.140625 
Q 23.1875 46.140625 18.859375 40.890625 
Q 14.546875 35.640625 14.546875 25.640625 
z
" id="ArialMT-70"/>
      <path d="M 8.015625 0 
L 8.015625 71.578125 
L 17.484375 71.578125 
L 17.484375 42.1875 
L 54.6875 42.1875 
L 54.6875 71.578125 
L 64.15625 71.578125 
L 64.15625 0 
L 54.6875 0 
L 54.6875 33.734375 
L 17.484375 33.734375 
L 17.484375 0 
z
" id="ArialMT-48"/>
     </defs>
     <g style="fill:#262626;" transform="translate(124.875558 147.343125)scale(0.1 -0.1)">
      <use xlink:href="#ArialMT-70"/>
      <use x="55.615234" xlink:href="#ArialMT-48"/>
     </g>
    </g>
   </g>
   <g id="matplotlib.axis_2">
    <g id="ytick_1">
     <g id="line2d_7">
      <defs>
       <path d="M 0 0 
L -3.5 0 
" id="m054249b9fc" style="stroke:#262626;stroke-width:0.8;"/>
      </defs>
      <g>
       <use style="fill:#262626;stroke:#262626;stroke-width:0.8;" x="45.183929" xlink:href="#m054249b9fc" y="115.548397"/>
      </g>
     </g>
     <g id="text_8">
      <!-- 0 -->
      <g style="fill:#262626;" transform="translate(32.622991 119.127303)scale(0.1 -0.1)">
       <use xlink:href="#ArialMT-30"/>
      </g>
     </g>
    </g>
    <g id="ytick_2">
     <g id="line2d_8">
      <g>
       <use style="fill:#262626;stroke:#262626;stroke-width:0.8;" x="45.183929" xlink:href="#m054249b9fc" y="72.748578"/>
      </g>
     </g>
     <g id="text_9">
      <!-- 5 -->
      <defs>
       <path d="M 4.15625 18.75 
L 13.375 19.53125 
Q 14.40625 12.796875 18.140625 9.390625 
Q 21.875 6 27.15625 6 
Q 33.5 6 37.890625 10.78125 
Q 42.28125 15.578125 42.28125 23.484375 
Q 42.28125 31 38.0625 35.34375 
Q 33.84375 39.703125 27 39.703125 
Q 22.75 39.703125 19.328125 37.765625 
Q 15.921875 35.84375 13.96875 32.765625 
L 5.71875 33.84375 
L 12.640625 70.609375 
L 48.25 70.609375 
L 48.25 62.203125 
L 19.671875 62.203125 
L 15.828125 42.96875 
Q 22.265625 47.46875 29.34375 47.46875 
Q 38.71875 47.46875 45.15625 40.96875 
Q 51.609375 34.46875 51.609375 24.265625 
Q 51.609375 14.546875 45.953125 7.46875 
Q 39.0625 -1.21875 27.15625 -1.21875 
Q 17.390625 -1.21875 11.203125 4.25 
Q 5.03125 9.71875 4.15625 18.75 
z
" id="ArialMT-35"/>
      </defs>
      <g style="fill:#262626;" transform="translate(32.622991 76.327484)scale(0.1 -0.1)">
       <use xlink:href="#ArialMT-35"/>
      </g>
     </g>
    </g>
    <g id="ytick_3">
     <g id="line2d_9">
      <g>
       <use style="fill:#262626;stroke:#262626;stroke-width:0.8;" x="45.183929" xlink:href="#m054249b9fc" y="29.948759"/>
      </g>
     </g>
     <g id="text_10">
      <!-- 10 -->
      <g style="fill:#262626;" transform="translate(27.062054 33.527665)scale(0.1 -0.1)">
       <use xlink:href="#ArialMT-31"/>
       <use x="55.615234" xlink:href="#ArialMT-30"/>
      </g>
     </g>
    </g>
    <g id="text_11">
     <!-- Free Energy($k_BT$) -->
     <defs>
      <path d="M 8.203125 0 
L 8.203125 71.578125 
L 56.5 71.578125 
L 56.5 63.140625 
L 17.671875 63.140625 
L 17.671875 40.96875 
L 51.265625 40.96875 
L 51.265625 32.515625 
L 17.671875 32.515625 
L 17.671875 0 
z
" id="ArialMT-46"/>
      <path d="M 6.5 0 
L 6.5 51.859375 
L 14.40625 51.859375 
L 14.40625 44 
Q 17.4375 49.515625 20 51.265625 
Q 22.5625 53.03125 25.640625 53.03125 
Q 30.078125 53.03125 34.671875 50.203125 
L 31.640625 42.046875 
Q 28.421875 43.953125 25.203125 43.953125 
Q 22.3125 43.953125 20.015625 42.21875 
Q 17.71875 40.484375 16.75 37.40625 
Q 15.28125 32.71875 15.28125 27.15625 
L 15.28125 0 
z
" id="ArialMT-72"/>
      <path d="M 42.09375 16.703125 
L 51.171875 15.578125 
Q 49.03125 7.625 43.21875 3.21875 
Q 37.40625 -1.171875 28.375 -1.171875 
Q 17 -1.171875 10.328125 5.828125 
Q 3.65625 12.84375 3.65625 25.484375 
Q 3.65625 38.578125 10.390625 45.796875 
Q 17.140625 53.03125 27.875 53.03125 
Q 38.28125 53.03125 44.875 45.953125 
Q 51.46875 38.875 51.46875 26.03125 
Q 51.46875 25.25 51.421875 23.6875 
L 12.75 23.6875 
Q 13.234375 15.140625 17.578125 10.59375 
Q 21.921875 6.0625 28.421875 6.0625 
Q 33.25 6.0625 36.671875 8.59375 
Q 40.09375 11.140625 42.09375 16.703125 
z
M 13.234375 30.90625 
L 42.1875 30.90625 
Q 41.609375 37.453125 38.875 40.71875 
Q 34.671875 45.796875 27.984375 45.796875 
Q 21.921875 45.796875 17.796875 41.75 
Q 13.671875 37.703125 13.234375 30.90625 
z
" id="ArialMT-65"/>
      <path id="ArialMT-20"/>
      <path d="M 7.90625 0 
L 7.90625 71.578125 
L 59.671875 71.578125 
L 59.671875 63.140625 
L 17.390625 63.140625 
L 17.390625 41.21875 
L 56.984375 41.21875 
L 56.984375 32.8125 
L 17.390625 32.8125 
L 17.390625 8.453125 
L 61.328125 8.453125 
L 61.328125 0 
z
" id="ArialMT-45"/>
      <path d="M 6.59375 0 
L 6.59375 51.859375 
L 14.5 51.859375 
L 14.5 44.484375 
Q 20.21875 53.03125 31 53.03125 
Q 35.6875 53.03125 39.625 51.34375 
Q 43.5625 49.65625 45.515625 46.921875 
Q 47.46875 44.1875 48.25 40.4375 
Q 48.734375 37.984375 48.734375 31.890625 
L 48.734375 0 
L 39.9375 0 
L 39.9375 31.546875 
Q 39.9375 36.921875 38.90625 39.578125 
Q 37.890625 42.234375 35.28125 43.8125 
Q 32.671875 45.40625 29.15625 45.40625 
Q 23.53125 45.40625 19.453125 41.84375 
Q 15.375 38.28125 15.375 28.328125 
L 15.375 0 
z
" id="ArialMT-6e"/>
      <path d="M 4.984375 -4.296875 
L 13.53125 -5.5625 
Q 14.0625 -9.515625 16.5 -11.328125 
Q 19.78125 -13.765625 25.4375 -13.765625 
Q 31.546875 -13.765625 34.859375 -11.328125 
Q 38.1875 -8.890625 39.359375 -4.5 
Q 40.046875 -1.8125 39.984375 6.78125 
Q 34.234375 0 25.640625 0 
Q 14.9375 0 9.078125 7.71875 
Q 3.21875 15.4375 3.21875 26.21875 
Q 3.21875 33.640625 5.90625 39.90625 
Q 8.59375 46.1875 13.6875 49.609375 
Q 18.796875 53.03125 25.6875 53.03125 
Q 34.859375 53.03125 40.828125 45.609375 
L 40.828125 51.859375 
L 48.921875 51.859375 
L 48.921875 7.03125 
Q 48.921875 -5.078125 46.453125 -10.125 
Q 44 -15.1875 38.640625 -18.109375 
Q 33.296875 -21.046875 25.484375 -21.046875 
Q 16.21875 -21.046875 10.5 -16.875 
Q 4.78125 -12.703125 4.984375 -4.296875 
z
M 12.25 26.859375 
Q 12.25 16.65625 16.296875 11.96875 
Q 20.359375 7.28125 26.46875 7.28125 
Q 32.515625 7.28125 36.609375 11.9375 
Q 40.71875 16.609375 40.71875 26.5625 
Q 40.71875 36.078125 36.5 40.90625 
Q 32.28125 45.75 26.3125 45.75 
Q 20.453125 45.75 16.34375 40.984375 
Q 12.25 36.234375 12.25 26.859375 
z
" id="ArialMT-67"/>
      <path d="M 6.203125 -19.96875 
L 5.21875 -11.71875 
Q 8.109375 -12.5 10.25 -12.5 
Q 13.1875 -12.5 14.9375 -11.515625 
Q 16.703125 -10.546875 17.828125 -8.796875 
Q 18.65625 -7.46875 20.515625 -2.25 
Q 20.75 -1.515625 21.296875 -0.09375 
L 1.609375 51.859375 
L 11.078125 51.859375 
L 21.875 21.828125 
Q 23.96875 16.109375 25.640625 9.8125 
Q 27.15625 15.875 29.25 21.625 
L 40.328125 51.859375 
L 49.125 51.859375 
L 29.390625 -0.875 
Q 26.21875 -9.421875 24.46875 -12.640625 
Q 22.125 -17 19.09375 -19.015625 
Q 16.0625 -21.046875 11.859375 -21.046875 
Q 9.328125 -21.046875 6.203125 -19.96875 
z
" id="ArialMT-79"/>
      <path d="M 23.390625 -21.046875 
Q 16.109375 -11.859375 11.078125 0.4375 
Q 6.0625 12.75 6.0625 25.921875 
Q 6.0625 37.546875 9.8125 48.1875 
Q 14.203125 60.546875 23.390625 72.796875 
L 29.6875 72.796875 
Q 23.78125 62.640625 21.875 58.296875 
Q 18.890625 51.5625 17.1875 44.234375 
Q 15.09375 35.109375 15.09375 25.875 
Q 15.09375 2.390625 29.6875 -21.046875 
z
" id="ArialMT-28"/>
      <path d="M 18.3125 75.984375 
L 27.296875 75.984375 
L 18.703125 31.6875 
L 49.515625 54.6875 
L 61.1875 54.6875 
L 26.8125 28.515625 
L 51.90625 0 
L 41.015625 0 
L 17.671875 26.703125 
L 12.5 0 
L 3.515625 0 
z
" id="DejaVuSans-Oblique-6b"/>
      <path d="M 16.890625 72.90625 
L 42.09375 72.90625 
Q 52.34375 72.90625 57.421875 69.09375 
Q 62.5 65.28125 62.5 57.625 
Q 62.5 50.59375 58.125 45.484375 
Q 53.765625 40.375 46.6875 39.3125 
Q 52.734375 37.9375 55.765625 34.078125 
Q 58.796875 30.21875 58.796875 23.78125 
Q 58.796875 12.796875 50.65625 6.390625 
Q 42.53125 0 28.421875 0 
L 2.6875 0 
z
M 19.28125 34.8125 
L 14.109375 8.109375 
L 29.984375 8.109375 
Q 38.921875 8.109375 43.75 12.203125 
Q 48.578125 16.3125 48.578125 23.78125 
Q 48.578125 29.546875 45.375 32.171875 
Q 42.1875 34.8125 35.109375 34.8125 
z
M 25.09375 64.796875 
L 20.796875 42.828125 
L 35.5 42.828125 
Q 43.359375 42.828125 47.78125 46.234375 
Q 52.203125 49.65625 52.203125 55.71875 
Q 52.203125 60.453125 49.21875 62.625 
Q 46.234375 64.796875 39.703125 64.796875 
z
" id="DejaVuSans-Oblique-42"/>
      <path d="M 5.90625 72.90625 
L 67.578125 72.90625 
L 66.015625 64.59375 
L 39.984375 64.59375 
L 27.484375 0 
L 17.578125 0 
L 30.078125 64.59375 
L 4.296875 64.59375 
z
" id="DejaVuSans-Oblique-54"/>
      <path d="M 12.359375 -21.046875 
L 6.0625 -21.046875 
Q 20.65625 2.390625 20.65625 25.875 
Q 20.65625 35.0625 18.5625 44.09375 
Q 16.890625 51.421875 13.921875 58.15625 
Q 12.015625 62.546875 6.0625 72.796875 
L 12.359375 72.796875 
Q 21.53125 60.546875 25.921875 48.1875 
Q 29.6875 37.546875 29.6875 25.921875 
Q 29.6875 12.75 24.625 0.4375 
Q 19.578125 -11.859375 12.359375 -21.046875 
z
" id="ArialMT-29"/>
     </defs>
     <g style="fill:#262626;" transform="translate(20.862054 112.27)rotate(-90)scale(0.1 -0.1)">
      <use transform="translate(0 0.015625)" xlink:href="#ArialMT-46"/>
      <use transform="translate(61.083984 0.015625)" xlink:href="#ArialMT-72"/>
      <use transform="translate(94.384766 0.015625)" xlink:href="#ArialMT-65"/>
      <use transform="translate(150 0.015625)" xlink:href="#ArialMT-65"/>
      <use transform="translate(205.615234 0.015625)" xlink:href="#ArialMT-20"/>
      <use transform="translate(233.398438 0.015625)" xlink:href="#ArialMT-45"/>
      <use transform="translate(300.097656 0.015625)" xlink:href="#ArialMT-6e"/>
      <use transform="translate(355.712891 0.015625)" xlink:href="#ArialMT-65"/>
      <use transform="translate(411.328125 0.015625)" xlink:href="#ArialMT-72"/>
      <use transform="translate(444.628906 0.015625)" xlink:href="#ArialMT-67"/>
      <use transform="translate(500.244141 0.015625)" xlink:href="#ArialMT-79"/>
      <use transform="translate(550.244141 0.015625)" xlink:href="#ArialMT-28"/>
      <use transform="translate(583.544922 0.015625)" xlink:href="#DejaVuSans-Oblique-6b"/>
      <use transform="translate(641.455078 -16.390625)scale(0.7)" xlink:href="#DejaVuSans-Oblique-42"/>
      <use transform="translate(692.211914 0.015625)" xlink:href="#DejaVuSans-Oblique-54"/>
      <use transform="translate(753.295898 0.015625)" xlink:href="#ArialMT-29"/>
     </g>
    </g>
   </g>
   <g id="PathCollection_1">
    <defs>
     <path d="M 0 0.5 
C 0.132602 0.5 0.25979 0.447317 0.353553 0.353553 
C 0.447317 0.25979 0.5 0.132602 0.5 0 
C 0.5 -0.132602 0.447317 -0.25979 0.353553 -0.353553 
C 0.25979 -0.447317 0.132602 -0.5 0 -0.5 
C -0.132602 -0.5 -0.25979 -0.447317 -0.353553 -0.353553 
C -0.447317 -0.25979 -0.5 -0.132602 -0.5 0 
C -0.5 0.132602 -0.447317 0.25979 -0.353553 0.353553 
C -0.25979 0.447317 -0.132602 0.5 0 0.5 
z
" id="m7d2d6d3bc2" style="stroke:#333333;"/>
    </defs>
    <g clip-path="url(#p849bce4bf9)">
     <use style="fill:#333333;stroke:#333333;" x="62.672774" xlink:href="#m7d2d6d3bc2" y="30.85809"/>
     <use style="fill:#333333;stroke:#333333;" x="64.231733" xlink:href="#m7d2d6d3bc2" y="33.111416"/>
     <use style="fill:#333333;stroke:#333333;" x="65.790692" xlink:href="#m7d2d6d3bc2" y="35.33507"/>
     <use style="fill:#333333;stroke:#333333;" x="67.349651" xlink:href="#m7d2d6d3bc2" y="37.533611"/>
     <use style="fill:#333333;stroke:#333333;" x="68.908609" xlink:href="#m7d2d6d3bc2" y="39.71211"/>
     <use style="fill:#333333;stroke:#333333;" x="70.467568" xlink:href="#m7d2d6d3bc2" y="41.874657"/>
     <use style="fill:#333333;stroke:#333333;" x="72.026527" xlink:href="#m7d2d6d3bc2" y="44.023023"/>
     <use style="fill:#333333;stroke:#333333;" x="73.585486" xlink:href="#m7d2d6d3bc2" y="46.162715"/>
     <use style="fill:#333333;stroke:#333333;" x="75.144445" xlink:href="#m7d2d6d3bc2" y="48.292917"/>
     <use style="fill:#333333;stroke:#333333;" x="76.703404" xlink:href="#m7d2d6d3bc2" y="50.418151"/>
     <use style="fill:#333333;stroke:#333333;" x="78.262363" xlink:href="#m7d2d6d3bc2" y="52.538231"/>
     <use style="fill:#333333;stroke:#333333;" x="79.821322" xlink:href="#m7d2d6d3bc2" y="54.654166"/>
     <use style="fill:#333333;stroke:#333333;" x="81.38028" xlink:href="#m7d2d6d3bc2" y="56.766648"/>
     <use style="fill:#333333;stroke:#333333;" x="82.939239" xlink:href="#m7d2d6d3bc2" y="58.876236"/>
     <use style="fill:#333333;stroke:#333333;" x="84.498198" xlink:href="#m7d2d6d3bc2" y="60.983276"/>
     <use style="fill:#333333;stroke:#333333;" x="86.057157" xlink:href="#m7d2d6d3bc2" y="63.086544"/>
     <use style="fill:#333333;stroke:#333333;" x="87.616116" xlink:href="#m7d2d6d3bc2" y="65.188988"/>
     <use style="fill:#333333;stroke:#333333;" x="89.175075" xlink:href="#m7d2d6d3bc2" y="67.289097"/>
     <use style="fill:#333333;stroke:#333333;" x="90.734034" xlink:href="#m7d2d6d3bc2" y="69.385227"/>
     <use style="fill:#333333;stroke:#333333;" x="92.292993" xlink:href="#m7d2d6d3bc2" y="71.479897"/>
     <use style="fill:#333333;stroke:#333333;" x="93.851951" xlink:href="#m7d2d6d3bc2" y="73.571138"/>
     <use style="fill:#333333;stroke:#333333;" x="95.41091" xlink:href="#m7d2d6d3bc2" y="75.65679"/>
     <use style="fill:#333333;stroke:#333333;" x="96.969869" xlink:href="#m7d2d6d3bc2" y="77.738742"/>
     <use style="fill:#333333;stroke:#333333;" x="98.528828" xlink:href="#m7d2d6d3bc2" y="79.815718"/>
     <use style="fill:#333333;stroke:#333333;" x="100.087787" xlink:href="#m7d2d6d3bc2" y="81.881822"/>
     <use style="fill:#333333;stroke:#333333;" x="101.646746" xlink:href="#m7d2d6d3bc2" y="83.939251"/>
     <use style="fill:#333333;stroke:#333333;" x="103.205705" xlink:href="#m7d2d6d3bc2" y="85.982575"/>
     <use style="fill:#333333;stroke:#333333;" x="104.764663" xlink:href="#m7d2d6d3bc2" y="88.011333"/>
     <use style="fill:#333333;stroke:#333333;" x="106.323622" xlink:href="#m7d2d6d3bc2" y="90.020067"/>
     <use style="fill:#333333;stroke:#333333;" x="107.882581" xlink:href="#m7d2d6d3bc2" y="92.003793"/>
     <use style="fill:#333333;stroke:#333333;" x="109.44154" xlink:href="#m7d2d6d3bc2" y="93.956462"/>
     <use style="fill:#333333;stroke:#333333;" x="111.000499" xlink:href="#m7d2d6d3bc2" y="95.869865"/>
     <use style="fill:#333333;stroke:#333333;" x="112.559458" xlink:href="#m7d2d6d3bc2" y="97.737378"/>
     <use style="fill:#333333;stroke:#333333;" x="114.118417" xlink:href="#m7d2d6d3bc2" y="103.655251"/>
     <use style="fill:#333333;stroke:#333333;" x="115.677376" xlink:href="#m7d2d6d3bc2" y="101.291744"/>
     <use style="fill:#333333;stroke:#333333;" x="117.236334" xlink:href="#m7d2d6d3bc2" y="102.95476"/>
     <use style="fill:#333333;stroke:#333333;" x="118.795293" xlink:href="#m7d2d6d3bc2" y="104.527525"/>
     <use style="fill:#333333;stroke:#333333;" x="120.354252" xlink:href="#m7d2d6d3bc2" y="105.997106"/>
     <use style="fill:#333333;stroke:#333333;" x="121.913211" xlink:href="#m7d2d6d3bc2" y="107.352101"/>
     <use style="fill:#333333;stroke:#333333;" x="123.47217" xlink:href="#m7d2d6d3bc2" y="108.586064"/>
     <use style="fill:#333333;stroke:#333333;" x="125.031129" xlink:href="#m7d2d6d3bc2" y="109.692758"/>
     <use style="fill:#333333;stroke:#333333;" x="126.590088" xlink:href="#m7d2d6d3bc2" y="110.670551"/>
     <use style="fill:#333333;stroke:#333333;" x="128.149047" xlink:href="#m7d2d6d3bc2" y="111.521636"/>
     <use style="fill:#333333;stroke:#333333;" x="129.708005" xlink:href="#m7d2d6d3bc2" y="112.251316"/>
     <use style="fill:#333333;stroke:#333333;" x="131.266964" xlink:href="#m7d2d6d3bc2" y="112.869674"/>
     <use style="fill:#333333;stroke:#333333;" x="132.825923" xlink:href="#m7d2d6d3bc2" y="114.293317"/>
     <use style="fill:#333333;stroke:#333333;" x="134.384882" xlink:href="#m7d2d6d3bc2" y="114.551524"/>
     <use style="fill:#333333;stroke:#333333;" x="135.943841" xlink:href="#m7d2d6d3bc2" y="114.759046"/>
     <use style="fill:#333333;stroke:#333333;" x="137.5028" xlink:href="#m7d2d6d3bc2" y="114.924833"/>
     <use style="fill:#333333;stroke:#333333;" x="139.061759" xlink:href="#m7d2d6d3bc2" y="115.056957"/>
     <use style="fill:#333333;stroke:#333333;" x="140.620717" xlink:href="#m7d2d6d3bc2" y="115.161589"/>
     <use style="fill:#333333;stroke:#333333;" x="142.179676" xlink:href="#m7d2d6d3bc2" y="115.24472"/>
     <use style="fill:#333333;stroke:#333333;" x="143.738635" xlink:href="#m7d2d6d3bc2" y="115.309973"/>
     <use style="fill:#333333;stroke:#333333;" x="145.297594" xlink:href="#m7d2d6d3bc2" y="115.361358"/>
     <use style="fill:#333333;stroke:#333333;" x="146.856553" xlink:href="#m7d2d6d3bc2" y="115.401738"/>
     <use style="fill:#333333;stroke:#333333;" x="148.415512" xlink:href="#m7d2d6d3bc2" y="115.433478"/>
     <use style="fill:#333333;stroke:#333333;" x="149.974471" xlink:href="#m7d2d6d3bc2" y="115.458385"/>
     <use style="fill:#333333;stroke:#333333;" x="151.53343" xlink:href="#m7d2d6d3bc2" y="115.477905"/>
     <use style="fill:#333333;stroke:#333333;" x="153.092388" xlink:href="#m7d2d6d3bc2" y="115.493223"/>
     <use style="fill:#333333;stroke:#333333;" x="154.651347" xlink:href="#m7d2d6d3bc2" y="115.505207"/>
     <use style="fill:#333333;stroke:#333333;" x="156.210306" xlink:href="#m7d2d6d3bc2" y="115.514598"/>
     <use style="fill:#333333;stroke:#333333;" x="157.769265" xlink:href="#m7d2d6d3bc2" y="115.521951"/>
     <use style="fill:#333333;stroke:#333333;" x="159.328224" xlink:href="#m7d2d6d3bc2" y="115.527706"/>
     <use style="fill:#333333;stroke:#333333;" x="160.887183" xlink:href="#m7d2d6d3bc2" y="115.532207"/>
     <use style="fill:#333333;stroke:#333333;" x="162.446142" xlink:href="#m7d2d6d3bc2" y="115.535732"/>
     <use style="fill:#333333;stroke:#333333;" x="164.005101" xlink:href="#m7d2d6d3bc2" y="115.53849"/>
     <use style="fill:#333333;stroke:#333333;" x="165.564059" xlink:href="#m7d2d6d3bc2" y="115.540647"/>
     <use style="fill:#333333;stroke:#333333;" x="167.123018" xlink:href="#m7d2d6d3bc2" y="115.542334"/>
     <use style="fill:#333333;stroke:#333333;" x="168.681977" xlink:href="#m7d2d6d3bc2" y="115.543655"/>
     <use style="fill:#333333;stroke:#333333;" x="170.240936" xlink:href="#m7d2d6d3bc2" y="115.544687"/>
     <use style="fill:#333333;stroke:#333333;" x="171.799895" xlink:href="#m7d2d6d3bc2" y="115.545496"/>
     <use style="fill:#333333;stroke:#333333;" x="173.358854" xlink:href="#m7d2d6d3bc2" y="115.546127"/>
     <use style="fill:#333333;stroke:#333333;" x="174.917813" xlink:href="#m7d2d6d3bc2" y="115.546622"/>
     <use style="fill:#333333;stroke:#333333;" x="176.476771" xlink:href="#m7d2d6d3bc2" y="115.547008"/>
     <use style="fill:#333333;stroke:#333333;" x="178.03573" xlink:href="#m7d2d6d3bc2" y="115.547311"/>
     <use style="fill:#333333;stroke:#333333;" x="179.594689" xlink:href="#m7d2d6d3bc2" y="115.547547"/>
     <use style="fill:#333333;stroke:#333333;" x="181.153648" xlink:href="#m7d2d6d3bc2" y="115.547733"/>
     <use style="fill:#333333;stroke:#333333;" x="182.712607" xlink:href="#m7d2d6d3bc2" y="115.547877"/>
     <use style="fill:#333333;stroke:#333333;" x="184.271566" xlink:href="#m7d2d6d3bc2" y="115.54799"/>
     <use style="fill:#333333;stroke:#333333;" x="185.830525" xlink:href="#m7d2d6d3bc2" y="115.548397"/>
     <use style="fill:#333333;stroke:#333333;" x="187.389484" xlink:href="#m7d2d6d3bc2" y="115.548397"/>
     <use style="fill:#333333;stroke:#333333;" x="188.948442" xlink:href="#m7d2d6d3bc2" y="115.548397"/>
     <use style="fill:#333333;stroke:#333333;" x="190.507401" xlink:href="#m7d2d6d3bc2" y="115.548397"/>
     <use style="fill:#333333;stroke:#333333;" x="192.06636" xlink:href="#m7d2d6d3bc2" y="115.548397"/>
     <use style="fill:#333333;stroke:#333333;" x="193.625319" xlink:href="#m7d2d6d3bc2" y="115.548397"/>
     <use style="fill:#333333;stroke:#333333;" x="195.184278" xlink:href="#m7d2d6d3bc2" y="115.548397"/>
     <use style="fill:#333333;stroke:#333333;" x="196.743237" xlink:href="#m7d2d6d3bc2" y="115.548397"/>
     <use style="fill:#333333;stroke:#333333;" x="198.302196" xlink:href="#m7d2d6d3bc2" y="115.547947"/>
     <use style="fill:#333333;stroke:#333333;" x="199.861155" xlink:href="#m7d2d6d3bc2" y="115.547821"/>
     <use style="fill:#333333;stroke:#333333;" x="201.420113" xlink:href="#m7d2d6d3bc2" y="115.547661"/>
     <use style="fill:#333333;stroke:#333333;" x="202.979072" xlink:href="#m7d2d6d3bc2" y="115.547456"/>
     <use style="fill:#333333;stroke:#333333;" x="204.538031" xlink:href="#m7d2d6d3bc2" y="115.547194"/>
     <use style="fill:#333333;stroke:#333333;" x="206.09699" xlink:href="#m7d2d6d3bc2" y="115.546859"/>
     <use style="fill:#333333;stroke:#333333;" x="207.655949" xlink:href="#m7d2d6d3bc2" y="115.54643"/>
     <use style="fill:#333333;stroke:#333333;" x="209.214908" xlink:href="#m7d2d6d3bc2" y="115.545882"/>
    </g>
   </g>
   <g id="PathCollection_2">
    <defs>
     <path d="M 0 0.5 
C 0.132602 0.5 0.25979 0.447317 0.353553 0.353553 
C 0.447317 0.25979 0.5 0.132602 0.5 0 
C 0.5 -0.132602 0.447317 -0.25979 0.353553 -0.353553 
C 0.25979 -0.447317 0.132602 -0.5 0 -0.5 
C -0.132602 -0.5 -0.25979 -0.447317 -0.353553 -0.353553 
C -0.447317 -0.25979 -0.5 -0.132602 -0.5 0 
C -0.5 0.132602 -0.447317 0.25979 -0.353553 0.353553 
C -0.25979 0.447317 -0.132602 0.5 0 0.5 
z
" id="m2ed34945c4" style="stroke:#92c5de;"/>
    </defs>
    <g clip-path="url(#p849bce4bf9)">
     <use style="fill:#92c5de;stroke:#92c5de;" x="53.319021" xlink:href="#m2ed34945c4" y="112.775834"/>
     <use style="fill:#92c5de;stroke:#92c5de;" x="54.87798" xlink:href="#m2ed34945c4" y="113.307572"/>
     <use style="fill:#92c5de;stroke:#92c5de;" x="56.436939" xlink:href="#m2ed34945c4" y="113.747772"/>
     <use style="fill:#92c5de;stroke:#92c5de;" x="57.995897" xlink:href="#m2ed34945c4" y="114.108343"/>
     <use style="fill:#92c5de;stroke:#92c5de;" x="59.554856" xlink:href="#m2ed34945c4" y="114.401565"/>
     <use style="fill:#92c5de;stroke:#92c5de;" x="61.113815" xlink:href="#m2ed34945c4" y="114.638113"/>
     <use style="fill:#92c5de;stroke:#92c5de;" x="62.672774" xlink:href="#m2ed34945c4" y="114.827356"/>
     <use style="fill:#92c5de;stroke:#92c5de;" x="64.231733" xlink:href="#m2ed34945c4" y="114.97856"/>
     <use style="fill:#92c5de;stroke:#92c5de;" x="65.790692" xlink:href="#m2ed34945c4" y="115.098649"/>
     <use style="fill:#92c5de;stroke:#92c5de;" x="67.349651" xlink:href="#m2ed34945c4" y="115.193624"/>
     <use style="fill:#92c5de;stroke:#92c5de;" x="68.908609" xlink:href="#m2ed34945c4" y="115.268557"/>
     <use style="fill:#92c5de;stroke:#92c5de;" x="70.467568" xlink:href="#m2ed34945c4" y="115.327538"/>
     <use style="fill:#92c5de;stroke:#92c5de;" x="72.026527" xlink:href="#m2ed34945c4" y="115.373783"/>
     <use style="fill:#92c5de;stroke:#92c5de;" x="73.585486" xlink:href="#m2ed34945c4" y="115.409909"/>
     <use style="fill:#92c5de;stroke:#92c5de;" x="75.144445" xlink:href="#m2ed34945c4" y="115.43799"/>
     <use style="fill:#92c5de;stroke:#92c5de;" x="76.703404" xlink:href="#m2ed34945c4" y="115.459658"/>
     <use style="fill:#92c5de;stroke:#92c5de;" x="78.262363" xlink:href="#m2ed34945c4" y="115.476172"/>
     <use style="fill:#92c5de;stroke:#92c5de;" x="79.821322" xlink:href="#m2ed34945c4" y="115.488541"/>
     <use style="fill:#92c5de;stroke:#92c5de;" x="81.38028" xlink:href="#m2ed34945c4" y="115.497457"/>
     <use style="fill:#92c5de;stroke:#92c5de;" x="82.939239" xlink:href="#m2ed34945c4" y="115.503479"/>
     <use style="fill:#92c5de;stroke:#92c5de;" x="84.498198" xlink:href="#m2ed34945c4" y="115.506954"/>
     <use style="fill:#92c5de;stroke:#92c5de;" x="86.057157" xlink:href="#m2ed34945c4" y="115.508101"/>
     <use style="fill:#92c5de;stroke:#92c5de;" x="87.616116" xlink:href="#m2ed34945c4" y="115.506978"/>
     <use style="fill:#92c5de;stroke:#92c5de;" x="89.175075" xlink:href="#m2ed34945c4" y="115.503521"/>
     <use style="fill:#92c5de;stroke:#92c5de;" x="90.734034" xlink:href="#m2ed34945c4" y="115.49753"/>
     <use style="fill:#92c5de;stroke:#92c5de;" x="92.292993" xlink:href="#m2ed34945c4" y="115.488635"/>
     <use style="fill:#92c5de;stroke:#92c5de;" x="93.851951" xlink:href="#m2ed34945c4" y="115.47631"/>
     <use style="fill:#92c5de;stroke:#92c5de;" x="95.41091" xlink:href="#m2ed34945c4" y="115.45984"/>
     <use style="fill:#92c5de;stroke:#92c5de;" x="96.969869" xlink:href="#m2ed34945c4" y="115.438227"/>
     <use style="fill:#92c5de;stroke:#92c5de;" x="98.528828" xlink:href="#m2ed34945c4" y="115.410192"/>
     <use style="fill:#92c5de;stroke:#92c5de;" x="100.087787" xlink:href="#m2ed34945c4" y="115.374175"/>
     <use style="fill:#92c5de;stroke:#92c5de;" x="101.646746" xlink:href="#m2ed34945c4" y="115.328038"/>
     <use style="fill:#92c5de;stroke:#92c5de;" x="103.205705" xlink:href="#m2ed34945c4" y="115.26924"/>
     <use style="fill:#92c5de;stroke:#92c5de;" x="104.764663" xlink:href="#m2ed34945c4" y="115.194433"/>
     <use style="fill:#92c5de;stroke:#92c5de;" x="106.323622" xlink:href="#m2ed34945c4" y="115.0996"/>
     <use style="fill:#92c5de;stroke:#92c5de;" x="107.882581" xlink:href="#m2ed34945c4" y="114.97976"/>
     <use style="fill:#92c5de;stroke:#92c5de;" x="109.44154" xlink:href="#m2ed34945c4" y="114.828864"/>
     <use style="fill:#92c5de;stroke:#92c5de;" x="111.000499" xlink:href="#m2ed34945c4" y="114.640145"/>
     <use style="fill:#92c5de;stroke:#92c5de;" x="112.559458" xlink:href="#m2ed34945c4" y="114.404093"/>
     <use style="fill:#92c5de;stroke:#92c5de;" x="114.118417" xlink:href="#m2ed34945c4" y="113.085179"/>
     <use style="fill:#92c5de;stroke:#92c5de;" x="115.677376" xlink:href="#m2ed34945c4" y="113.751326"/>
     <use style="fill:#92c5de;stroke:#92c5de;" x="117.236334" xlink:href="#m2ed34945c4" y="113.312221"/>
     <use style="fill:#92c5de;stroke:#92c5de;" x="118.795293" xlink:href="#m2ed34945c4" y="112.781421"/>
     <use style="fill:#92c5de;stroke:#92c5de;" x="120.354252" xlink:href="#m2ed34945c4" y="112.147436"/>
     <use style="fill:#92c5de;stroke:#92c5de;" x="121.913211" xlink:href="#m2ed34945c4" y="111.40031"/>
     <use style="fill:#92c5de;stroke:#92c5de;" x="123.47217" xlink:href="#m2ed34945c4" y="110.530707"/>
     <use style="fill:#92c5de;stroke:#92c5de;" x="125.031129" xlink:href="#m2ed34945c4" y="109.533834"/>
     <use style="fill:#92c5de;stroke:#92c5de;" x="126.590088" xlink:href="#m2ed34945c4" y="108.408061"/>
     <use style="fill:#92c5de;stroke:#92c5de;" x="128.149047" xlink:href="#m2ed34945c4" y="107.155581"/>
     <use style="fill:#92c5de;stroke:#92c5de;" x="129.708005" xlink:href="#m2ed34945c4" y="105.783139"/>
     <use style="fill:#92c5de;stroke:#92c5de;" x="131.266964" xlink:href="#m2ed34945c4" y="104.296487"/>
     <use style="fill:#92c5de;stroke:#92c5de;" x="132.825923" xlink:href="#m2ed34945c4" y="98.484788"/>
     <use style="fill:#92c5de;stroke:#92c5de;" x="134.384882" xlink:href="#m2ed34945c4" y="96.639429"/>
     <use style="fill:#92c5de;stroke:#92c5de;" x="135.943841" xlink:href="#m2ed34945c4" y="94.743385"/>
     <use style="fill:#92c5de;stroke:#92c5de;" x="137.5028" xlink:href="#m2ed34945c4" y="92.807051"/>
     <use style="fill:#92c5de;stroke:#92c5de;" x="139.061759" xlink:href="#m2ed34945c4" y="90.834164"/>
     <use style="fill:#92c5de;stroke:#92c5de;" x="140.620717" xlink:href="#m2ed34945c4" y="88.836675"/>
     <use style="fill:#92c5de;stroke:#92c5de;" x="142.179676" xlink:href="#m2ed34945c4" y="86.816241"/>
     <use style="fill:#92c5de;stroke:#92c5de;" x="143.738635" xlink:href="#m2ed34945c4" y="84.777927"/>
     <use style="fill:#92c5de;stroke:#92c5de;" x="145.297594" xlink:href="#m2ed34945c4" y="82.725746"/>
     <use style="fill:#92c5de;stroke:#92c5de;" x="146.856553" xlink:href="#m2ed34945c4" y="80.664005"/>
     <use style="fill:#92c5de;stroke:#92c5de;" x="148.415512" xlink:href="#m2ed34945c4" y="78.59218"/>
     <use style="fill:#92c5de;stroke:#92c5de;" x="149.974471" xlink:href="#m2ed34945c4" y="76.513521"/>
     <use style="fill:#92c5de;stroke:#92c5de;" x="151.53343" xlink:href="#m2ed34945c4" y="74.430919"/>
     <use style="fill:#92c5de;stroke:#92c5de;" x="153.092388" xlink:href="#m2ed34945c4" y="72.341227"/>
     <use style="fill:#92c5de;stroke:#92c5de;" x="154.651347" xlink:href="#m2ed34945c4" y="70.251089"/>
     <use style="fill:#92c5de;stroke:#92c5de;" x="156.210306" xlink:href="#m2ed34945c4" y="68.156915"/>
     <use style="fill:#92c5de;stroke:#92c5de;" x="157.769265" xlink:href="#m2ed34945c4" y="66.060702"/>
     <use style="fill:#92c5de;stroke:#92c5de;" x="159.328224" xlink:href="#m2ed34945c4" y="63.962891"/>
     <use style="fill:#92c5de;stroke:#92c5de;" x="160.887183" xlink:href="#m2ed34945c4" y="61.865271"/>
     <use style="fill:#92c5de;stroke:#92c5de;" x="162.446142" xlink:href="#m2ed34945c4" y="59.765229"/>
     <use style="fill:#92c5de;stroke:#92c5de;" x="164.005101" xlink:href="#m2ed34945c4" y="57.664421"/>
     <use style="fill:#92c5de;stroke:#92c5de;" x="165.564059" xlink:href="#m2ed34945c4" y="55.563013"/>
     <use style="fill:#92c5de;stroke:#92c5de;" x="167.123018" xlink:href="#m2ed34945c4" y="53.462579"/>
     <use style="fill:#92c5de;stroke:#92c5de;" x="168.681977" xlink:href="#m2ed34945c4" y="51.360333"/>
     <use style="fill:#92c5de;stroke:#92c5de;" x="170.240936" xlink:href="#m2ed34945c4" y="49.259245"/>
     <use style="fill:#92c5de;stroke:#92c5de;" x="171.799895" xlink:href="#m2ed34945c4" y="47.155043"/>
     <use style="fill:#92c5de;stroke:#92c5de;" x="173.358854" xlink:href="#m2ed34945c4" y="45.053553"/>
     <use style="fill:#92c5de;stroke:#92c5de;" x="174.917813" xlink:href="#m2ed34945c4" y="42.950482"/>
     <use style="fill:#92c5de;stroke:#92c5de;" x="176.476771" xlink:href="#m2ed34945c4" y="40.847302"/>
     <use style="fill:#92c5de;stroke:#92c5de;" x="178.03573" xlink:href="#m2ed34945c4" y="38.745483"/>
     <use style="fill:#92c5de;stroke:#92c5de;" x="179.594689" xlink:href="#m2ed34945c4" y="36.642154"/>
     <use style="fill:#92c5de;stroke:#92c5de;" x="181.153648" xlink:href="#m2ed34945c4" y="34.537329"/>
     <use style="fill:#92c5de;stroke:#92c5de;" x="182.712607" xlink:href="#m2ed34945c4" y="32.435352"/>
     <use style="fill:#92c5de;stroke:#92c5de;" x="184.271566" xlink:href="#m2ed34945c4" y="30.331899"/>
    </g>
   </g>
   <g id="PathCollection_3">
    <defs>
     <path d="M 0 0.5 
C 0.132602 0.5 0.25979 0.447317 0.353553 0.353553 
C 0.447317 0.25979 0.5 0.132602 0.5 0 
C 0.5 -0.132602 0.447317 -0.25979 0.353553 -0.353553 
C 0.25979 -0.447317 0.132602 -0.5 0 -0.5 
C -0.132602 -0.5 -0.25979 -0.447317 -0.353553 -0.353553 
C -0.447317 -0.25979 -0.5 -0.132602 -0.5 0 
C -0.5 0.132602 -0.447317 0.25979 -0.353553 0.353553 
C -0.25979 0.447317 -0.132602 0.5 0 0.5 
z
" id="m71482c6295" style="stroke:#4393c3;"/>
    </defs>
    <g clip-path="url(#p849bce4bf9)">
     <use style="fill:#4393c3;stroke:#4393c3;" x="53.319021" xlink:href="#m71482c6295" y="104.542165"/>
     <use style="fill:#4393c3;stroke:#4393c3;" x="54.87798" xlink:href="#m71482c6295" y="102.970337"/>
     <use style="fill:#4393c3;stroke:#4393c3;" x="56.436939" xlink:href="#m71482c6295" y="101.306971"/>
     <use style="fill:#4393c3;stroke:#4393c3;" x="57.995897" xlink:href="#m71482c6295" y="99.565421"/>
     <use style="fill:#4393c3;stroke:#4393c3;" x="59.554856" xlink:href="#m71482c6295" y="97.755077"/>
     <use style="fill:#4393c3;stroke:#4393c3;" x="61.113815" xlink:href="#m71482c6295" y="95.888059"/>
     <use style="fill:#4393c3;stroke:#4393c3;" x="62.672774" xlink:href="#m71482c6295" y="93.973736"/>
     <use style="fill:#4393c3;stroke:#4393c3;" x="64.231733" xlink:href="#m71482c6295" y="92.021375"/>
     <use style="fill:#4393c3;stroke:#4393c3;" x="65.790692" xlink:href="#m71482c6295" y="90.037897"/>
     <use style="fill:#4393c3;stroke:#4393c3;" x="67.349651" xlink:href="#m71482c6295" y="88.030751"/>
     <use style="fill:#4393c3;stroke:#4393c3;" x="68.908609" xlink:href="#m71482c6295" y="86.003563"/>
     <use style="fill:#4393c3;stroke:#4393c3;" x="70.467568" xlink:href="#m71482c6295" y="83.958978"/>
     <use style="fill:#4393c3;stroke:#4393c3;" x="72.026527" xlink:href="#m71482c6295" y="81.901657"/>
     <use style="fill:#4393c3;stroke:#4393c3;" x="73.585486" xlink:href="#m71482c6295" y="79.834217"/>
     <use style="fill:#4393c3;stroke:#4393c3;" x="75.144445" xlink:href="#m71482c6295" y="77.758732"/>
     <use style="fill:#4393c3;stroke:#4393c3;" x="76.703404" xlink:href="#m71482c6295" y="75.676835"/>
     <use style="fill:#4393c3;stroke:#4393c3;" x="78.262363" xlink:href="#m71482c6295" y="73.591228"/>
     <use style="fill:#4393c3;stroke:#4393c3;" x="79.821322" xlink:href="#m71482c6295" y="71.498585"/>
     <use style="fill:#4393c3;stroke:#4393c3;" x="81.38028" xlink:href="#m71482c6295" y="69.405381"/>
     <use style="fill:#4393c3;stroke:#4393c3;" x="82.939239" xlink:href="#m71482c6295" y="67.307837"/>
     <use style="fill:#4393c3;stroke:#4393c3;" x="84.498198" xlink:href="#m71482c6295" y="65.20919"/>
     <use style="fill:#4393c3;stroke:#4393c3;" x="86.057157" xlink:href="#m71482c6295" y="63.106771"/>
     <use style="fill:#4393c3;stroke:#4393c3;" x="87.616116" xlink:href="#m71482c6295" y="61.002083"/>
     <use style="fill:#4393c3;stroke:#4393c3;" x="89.175075" xlink:href="#m71482c6295" y="58.89506"/>
     <use style="fill:#4393c3;stroke:#4393c3;" x="90.734034" xlink:href="#m71482c6295" y="56.785503"/>
     <use style="fill:#4393c3;stroke:#4393c3;" x="92.292993" xlink:href="#m71482c6295" y="54.673041"/>
     <use style="fill:#4393c3;stroke:#4393c3;" x="93.851951" xlink:href="#m71482c6295" y="52.558595"/>
     <use style="fill:#4393c3;stroke:#4393c3;" x="95.41091" xlink:href="#m71482c6295" y="50.438559"/>
     <use style="fill:#4393c3;stroke:#4393c3;" x="96.969869" xlink:href="#m71482c6295" y="48.313381"/>
     <use style="fill:#4393c3;stroke:#4393c3;" x="98.528828" xlink:href="#m71482c6295" y="46.183224"/>
     <use style="fill:#4393c3;stroke:#4393c3;" x="100.087787" xlink:href="#m71482c6295" y="44.043641"/>
     <use style="fill:#4393c3;stroke:#4393c3;" x="101.646746" xlink:href="#m71482c6295" y="41.895383"/>
     <use style="fill:#4393c3;stroke:#4393c3;" x="103.205705" xlink:href="#m71482c6295" y="39.731575"/>
     <use style="fill:#4393c3;stroke:#4393c3;" x="104.764663" xlink:href="#m71482c6295" y="37.554647"/>
     <use style="fill:#4393c3;stroke:#4393c3;" x="106.323622" xlink:href="#m71482c6295" y="35.356248"/>
     <use style="fill:#4393c3;stroke:#4393c3;" x="107.882581" xlink:href="#m71482c6295" y="33.134287"/>
     <use style="fill:#4393c3;stroke:#4393c3;" x="109.44154" xlink:href="#m71482c6295" y="30.87838"/>
    </g>
   </g>
   <g id="PathCollection_4">
    <g clip-path="url(#p849bce4bf9)">
     <use style="fill:#92c5de;stroke:#92c5de;" x="53.319021" xlink:href="#m2ed34945c4" y="44.265466"/>
     <use style="fill:#92c5de;stroke:#92c5de;" x="54.87798" xlink:href="#m2ed34945c4" y="44.797204"/>
     <use style="fill:#92c5de;stroke:#92c5de;" x="56.436939" xlink:href="#m2ed34945c4" y="45.237404"/>
     <use style="fill:#92c5de;stroke:#92c5de;" x="57.995897" xlink:href="#m2ed34945c4" y="45.597975"/>
     <use style="fill:#92c5de;stroke:#92c5de;" x="59.554856" xlink:href="#m2ed34945c4" y="45.891197"/>
     <use style="fill:#92c5de;stroke:#92c5de;" x="61.113815" xlink:href="#m2ed34945c4" y="46.127745"/>
     <use style="fill:#92c5de;stroke:#92c5de;" x="62.672774" xlink:href="#m2ed34945c4" y="46.316988"/>
     <use style="fill:#92c5de;stroke:#92c5de;" x="64.231733" xlink:href="#m2ed34945c4" y="46.468192"/>
     <use style="fill:#92c5de;stroke:#92c5de;" x="65.790692" xlink:href="#m2ed34945c4" y="46.588281"/>
     <use style="fill:#92c5de;stroke:#92c5de;" x="67.349651" xlink:href="#m2ed34945c4" y="46.683256"/>
     <use style="fill:#92c5de;stroke:#92c5de;" x="68.908609" xlink:href="#m2ed34945c4" y="46.758189"/>
     <use style="fill:#92c5de;stroke:#92c5de;" x="70.467568" xlink:href="#m2ed34945c4" y="46.81717"/>
     <use style="fill:#92c5de;stroke:#92c5de;" x="72.026527" xlink:href="#m2ed34945c4" y="46.863415"/>
     <use style="fill:#92c5de;stroke:#92c5de;" x="73.585486" xlink:href="#m2ed34945c4" y="46.899541"/>
     <use style="fill:#92c5de;stroke:#92c5de;" x="75.144445" xlink:href="#m2ed34945c4" y="46.927622"/>
     <use style="fill:#92c5de;stroke:#92c5de;" x="76.703404" xlink:href="#m2ed34945c4" y="46.94929"/>
     <use style="fill:#92c5de;stroke:#92c5de;" x="78.262363" xlink:href="#m2ed34945c4" y="46.965804"/>
     <use style="fill:#92c5de;stroke:#92c5de;" x="79.821322" xlink:href="#m2ed34945c4" y="46.978173"/>
     <use style="fill:#92c5de;stroke:#92c5de;" x="81.38028" xlink:href="#m2ed34945c4" y="46.987089"/>
     <use style="fill:#92c5de;stroke:#92c5de;" x="82.939239" xlink:href="#m2ed34945c4" y="46.993111"/>
     <use style="fill:#92c5de;stroke:#92c5de;" x="84.498198" xlink:href="#m2ed34945c4" y="46.996586"/>
     <use style="fill:#92c5de;stroke:#92c5de;" x="86.057157" xlink:href="#m2ed34945c4" y="46.997733"/>
     <use style="fill:#92c5de;stroke:#92c5de;" x="87.616116" xlink:href="#m2ed34945c4" y="46.99661"/>
     <use style="fill:#92c5de;stroke:#92c5de;" x="89.175075" xlink:href="#m2ed34945c4" y="46.993153"/>
     <use style="fill:#92c5de;stroke:#92c5de;" x="90.734034" xlink:href="#m2ed34945c4" y="46.987162"/>
     <use style="fill:#92c5de;stroke:#92c5de;" x="92.292993" xlink:href="#m2ed34945c4" y="46.978267"/>
     <use style="fill:#92c5de;stroke:#92c5de;" x="93.851951" xlink:href="#m2ed34945c4" y="46.965942"/>
     <use style="fill:#92c5de;stroke:#92c5de;" x="95.41091" xlink:href="#m2ed34945c4" y="46.949472"/>
     <use style="fill:#92c5de;stroke:#92c5de;" x="96.969869" xlink:href="#m2ed34945c4" y="46.927859"/>
     <use style="fill:#92c5de;stroke:#92c5de;" x="98.528828" xlink:href="#m2ed34945c4" y="46.899824"/>
     <use style="fill:#92c5de;stroke:#92c5de;" x="100.087787" xlink:href="#m2ed34945c4" y="46.863807"/>
     <use style="fill:#92c5de;stroke:#92c5de;" x="101.646746" xlink:href="#m2ed34945c4" y="46.819115"/>
     <use style="fill:#92c5de;stroke:#92c5de;" x="103.205705" xlink:href="#m2ed34945c4" y="46.758872"/>
     <use style="fill:#92c5de;stroke:#92c5de;" x="104.764663" xlink:href="#m2ed34945c4" y="46.684065"/>
     <use style="fill:#92c5de;stroke:#92c5de;" x="106.323622" xlink:href="#m2ed34945c4" y="46.589232"/>
     <use style="fill:#92c5de;stroke:#92c5de;" x="107.882581" xlink:href="#m2ed34945c4" y="46.469392"/>
     <use style="fill:#92c5de;stroke:#92c5de;" x="109.44154" xlink:href="#m2ed34945c4" y="46.318496"/>
     <use style="fill:#92c5de;stroke:#92c5de;" x="111.000499" xlink:href="#m2ed34945c4" y="46.129777"/>
     <use style="fill:#92c5de;stroke:#92c5de;" x="112.559458" xlink:href="#m2ed34945c4" y="45.893725"/>
     <use style="fill:#92c5de;stroke:#92c5de;" x="114.118417" xlink:href="#m2ed34945c4" y="54.842698"/>
     <use style="fill:#92c5de;stroke:#92c5de;" x="115.677376" xlink:href="#m2ed34945c4" y="45.240959"/>
     <use style="fill:#92c5de;stroke:#92c5de;" x="117.236334" xlink:href="#m2ed34945c4" y="44.801853"/>
     <use style="fill:#92c5de;stroke:#92c5de;" x="118.795293" xlink:href="#m2ed34945c4" y="44.271053"/>
     <use style="fill:#92c5de;stroke:#92c5de;" x="120.354252" xlink:href="#m2ed34945c4" y="43.637068"/>
     <use style="fill:#92c5de;stroke:#92c5de;" x="121.913211" xlink:href="#m2ed34945c4" y="42.889942"/>
     <use style="fill:#92c5de;stroke:#92c5de;" x="123.47217" xlink:href="#m2ed34945c4" y="42.020339"/>
     <use style="fill:#92c5de;stroke:#92c5de;" x="125.031129" xlink:href="#m2ed34945c4" y="41.023466"/>
     <use style="fill:#92c5de;stroke:#92c5de;" x="126.590088" xlink:href="#m2ed34945c4" y="39.897694"/>
     <use style="fill:#92c5de;stroke:#92c5de;" x="128.149047" xlink:href="#m2ed34945c4" y="38.645213"/>
     <use style="fill:#92c5de;stroke:#92c5de;" x="129.708005" xlink:href="#m2ed34945c4" y="37.272772"/>
     <use style="fill:#92c5de;stroke:#92c5de;" x="131.266964" xlink:href="#m2ed34945c4" y="35.786119"/>
     <use style="fill:#92c5de;stroke:#92c5de;" x="132.825923" xlink:href="#m2ed34945c4" y="40.242306"/>
     <use style="fill:#92c5de;stroke:#92c5de;" x="134.384882" xlink:href="#m2ed34945c4" y="38.396948"/>
     <use style="fill:#92c5de;stroke:#92c5de;" x="135.943841" xlink:href="#m2ed34945c4" y="36.500904"/>
     <use style="fill:#92c5de;stroke:#92c5de;" x="137.5028" xlink:href="#m2ed34945c4" y="34.564569"/>
     <use style="fill:#92c5de;stroke:#92c5de;" x="139.061759" xlink:href="#m2ed34945c4" y="32.591683"/>
     <use style="fill:#92c5de;stroke:#92c5de;" x="140.620717" xlink:href="#m2ed34945c4" y="30.594194"/>
    </g>
   </g>
   <g id="PathCollection_5">
    <defs>
     <path d="M 0 0.5 
C 0.132602 0.5 0.25979 0.447317 0.353553 0.353553 
C 0.447317 0.25979 0.5 0.132602 0.5 0 
C 0.5 -0.132602 0.447317 -0.25979 0.353553 -0.353553 
C 0.25979 -0.447317 0.132602 -0.5 0 -0.5 
C -0.132602 -0.5 -0.25979 -0.447317 -0.353553 -0.353553 
C -0.447317 -0.25979 -0.5 -0.132602 -0.5 0 
C -0.5 0.132602 -0.447317 0.25979 -0.353553 0.353553 
C -0.25979 0.447317 -0.132602 0.5 0 0.5 
z
" id="m902950d207" style="stroke:#f4a582;"/>
    </defs>
    <g clip-path="url(#p849bce4bf9)">
     <use style="fill:#f4a582;stroke:#f4a582;" x="198.302196" xlink:href="#m902950d207" y="31.208823"/>
     <use style="fill:#f4a582;stroke:#f4a582;" x="199.861155" xlink:href="#m902950d207" y="33.312264"/>
     <use style="fill:#f4a582;stroke:#f4a582;" x="201.420113" xlink:href="#m902950d207" y="35.417114"/>
     <use style="fill:#f4a582;stroke:#f4a582;" x="202.979072" xlink:href="#m902950d207" y="37.51903"/>
     <use style="fill:#f4a582;stroke:#f4a582;" x="204.538031" xlink:href="#m902950d207" y="39.622334"/>
     <use style="fill:#f4a582;stroke:#f4a582;" x="206.09699" xlink:href="#m902950d207" y="41.72412"/>
     <use style="fill:#f4a582;stroke:#f4a582;" x="207.655949" xlink:href="#m902950d207" y="43.827257"/>
     <use style="fill:#f4a582;stroke:#f4a582;" x="209.214908" xlink:href="#m902950d207" y="45.930276"/>
    </g>
   </g>
   <g id="line2d_10">
    <path clip-path="url(#p849bce4bf9)" d="M 62.672774 30.85809 
L 64.231733 33.111416 
L 65.790692 35.33507 
L 67.349651 37.533611 
L 68.908609 39.71211 
L 70.467568 41.874657 
L 72.026527 44.023023 
L 73.585486 46.162715 
L 75.144445 48.292917 
L 76.703404 50.418151 
L 78.262363 52.538231 
L 79.821322 54.654166 
L 81.38028 56.766648 
L 82.939239 58.876236 
L 84.498198 60.983276 
L 86.057157 63.086544 
L 87.616116 65.188988 
L 89.175075 67.289097 
L 90.734034 69.385227 
L 92.292993 71.479897 
L 93.851951 73.571138 
L 95.41091 75.65679 
L 96.969869 77.738742 
L 98.528828 79.815718 
L 100.087787 81.881822 
L 101.646746 83.939251 
L 103.205705 85.982575 
L 104.764663 88.011333 
L 106.323622 90.020067 
L 107.882581 92.003793 
L 109.44154 93.956462 
L 111.000499 95.869865 
L 112.559458 97.737378 
L 114.118417 103.655251 
L 115.677376 101.291744 
L 117.236334 102.95476 
L 118.795293 104.527525 
L 120.354252 105.997106 
L 121.913211 107.352101 
L 123.47217 108.586064 
L 125.031129 109.692758 
L 126.590088 110.670551 
L 128.149047 111.521636 
L 129.708005 112.251316 
L 131.266964 112.869674 
L 132.825923 114.293317 
L 134.384882 114.551524 
L 135.943841 114.759046 
L 137.5028 114.924833 
L 139.061759 115.056957 
L 140.620717 115.161589 
L 142.179676 115.24472 
L 143.738635 115.309973 
L 145.297594 115.361358 
L 146.856553 115.401738 
L 148.415512 115.433478 
L 149.974471 115.458385 
L 151.53343 115.477905 
L 153.092388 115.493223 
L 154.651347 115.505207 
L 156.210306 115.514598 
L 157.769265 115.521951 
L 159.328224 115.527706 
L 160.887183 115.532207 
L 162.446142 115.535732 
L 164.005101 115.53849 
L 165.564059 115.540647 
L 167.123018 115.542334 
L 168.681977 115.543655 
L 170.240936 115.544687 
L 171.799895 115.545496 
L 173.358854 115.546127 
L 174.917813 115.546622 
L 176.476771 115.547008 
L 178.03573 115.547311 
L 179.594689 115.547547 
L 181.153648 115.547733 
L 182.712607 115.547877 
L 184.271566 115.54799 
L 185.830525 115.548397 
L 187.389484 115.548397 
L 188.948442 115.548397 
L 190.507401 115.548397 
L 192.06636 115.548397 
L 193.625319 115.548397 
L 195.184278 115.548397 
L 196.743237 115.548397 
L 198.302196 115.547947 
L 199.861155 115.547821 
L 201.420113 115.547661 
L 202.979072 115.547456 
L 204.538031 115.547194 
L 206.09699 115.546859 
L 207.655949 115.54643 
L 209.214908 115.545882 
" style="fill:none;stroke:#333333;stroke-linecap:round;stroke-width:1.5;"/>
   </g>
   <g id="line2d_11">
    <path clip-path="url(#p849bce4bf9)" d="M 53.319021 112.775834 
L 54.87798 113.307572 
L 56.436939 113.747772 
L 57.995897 114.108343 
L 59.554856 114.401565 
L 61.113815 114.638113 
L 62.672774 114.827356 
L 64.231733 114.97856 
L 65.790692 115.098649 
L 67.349651 115.193624 
L 68.908609 115.268557 
L 70.467568 115.327538 
L 72.026527 115.373783 
L 73.585486 115.409909 
L 75.144445 115.43799 
L 76.703404 115.459658 
L 78.262363 115.476172 
L 79.821322 115.488541 
L 81.38028 115.497457 
L 82.939239 115.503479 
L 84.498198 115.506954 
L 86.057157 115.508101 
L 87.616116 115.506978 
L 89.175075 115.503521 
L 90.734034 115.49753 
L 92.292993 115.488635 
L 93.851951 115.47631 
L 95.41091 115.45984 
L 96.969869 115.438227 
L 98.528828 115.410192 
L 100.087787 115.374175 
L 101.646746 115.328038 
L 103.205705 115.26924 
L 104.764663 115.194433 
L 106.323622 115.0996 
L 107.882581 114.97976 
L 109.44154 114.828864 
L 111.000499 114.640145 
L 112.559458 114.404093 
L 114.118417 113.085179 
L 115.677376 113.751326 
L 117.236334 113.312221 
L 118.795293 112.781421 
L 120.354252 112.147436 
L 121.913211 111.40031 
L 123.47217 110.530707 
L 125.031129 109.533834 
L 126.590088 108.408061 
L 128.149047 107.155581 
L 129.708005 105.783139 
L 131.266964 104.296487 
L 132.825923 98.484788 
L 134.384882 96.639429 
L 135.943841 94.743385 
L 137.5028 92.807051 
L 139.061759 90.834164 
L 140.620717 88.836675 
L 142.179676 86.816241 
L 143.738635 84.777927 
L 145.297594 82.725746 
L 146.856553 80.664005 
L 148.415512 78.59218 
L 149.974471 76.513521 
L 151.53343 74.430919 
L 153.092388 72.341227 
L 154.651347 70.251089 
L 156.210306 68.156915 
L 157.769265 66.060702 
L 159.328224 63.962891 
L 160.887183 61.865271 
L 162.446142 59.765229 
L 164.005101 57.664421 
L 165.564059 55.563013 
L 167.123018 53.462579 
L 168.681977 51.360333 
L 170.240936 49.259245 
L 171.799895 47.155043 
L 173.358854 45.053553 
L 174.917813 42.950482 
L 176.476771 40.847302 
L 178.03573 38.745483 
L 179.594689 36.642154 
L 181.153648 34.537329 
L 182.712607 32.435352 
L 184.271566 30.331899 
" style="fill:none;stroke:#92c5de;stroke-linecap:round;stroke-width:1.5;"/>
   </g>
   <g id="line2d_12">
    <path clip-path="url(#p849bce4bf9)" d="M 53.319021 104.542165 
L 54.87798 102.970337 
L 56.436939 101.306971 
L 57.995897 99.565421 
L 59.554856 97.755077 
L 61.113815 95.888059 
L 62.672774 93.973736 
L 64.231733 92.021375 
L 65.790692 90.037897 
L 67.349651 88.030751 
L 68.908609 86.003563 
L 70.467568 83.958978 
L 72.026527 81.901657 
L 73.585486 79.834217 
L 75.144445 77.758732 
L 76.703404 75.676835 
L 78.262363 73.591228 
L 79.821322 71.498585 
L 81.38028 69.405381 
L 82.939239 67.307837 
L 84.498198 65.20919 
L 86.057157 63.106771 
L 87.616116 61.002083 
L 89.175075 58.89506 
L 90.734034 56.785503 
L 92.292993 54.673041 
L 93.851951 52.558595 
L 95.41091 50.438559 
L 96.969869 48.313381 
L 98.528828 46.183224 
L 100.087787 44.043641 
L 101.646746 41.895383 
L 103.205705 39.731575 
L 104.764663 37.554647 
L 106.323622 35.356248 
L 107.882581 33.134287 
L 109.44154 30.87838 
" style="fill:none;stroke:#4393c3;stroke-linecap:round;stroke-width:1.5;"/>
   </g>
   <g id="line2d_13">
    <path clip-path="url(#p849bce4bf9)" d="M 53.319021 44.265466 
L 54.87798 44.797204 
L 56.436939 45.237404 
L 57.995897 45.597975 
L 59.554856 45.891197 
L 61.113815 46.127745 
L 62.672774 46.316988 
L 64.231733 46.468192 
L 65.790692 46.588281 
L 67.349651 46.683256 
L 68.908609 46.758189 
L 70.467568 46.81717 
L 72.026527 46.863415 
L 73.585486 46.899541 
L 75.144445 46.927622 
L 76.703404 46.94929 
L 78.262363 46.965804 
L 79.821322 46.978173 
L 81.38028 46.987089 
L 82.939239 46.993111 
L 84.498198 46.996586 
L 86.057157 46.997733 
L 87.616116 46.99661 
L 89.175075 46.993153 
L 90.734034 46.987162 
L 92.292993 46.978267 
L 93.851951 46.965942 
L 95.41091 46.949472 
L 96.969869 46.927859 
L 98.528828 46.899824 
L 100.087787 46.863807 
L 101.646746 46.819115 
L 103.205705 46.758872 
L 104.764663 46.684065 
L 106.323622 46.589232 
L 107.882581 46.469392 
L 109.44154 46.318496 
L 111.000499 46.129777 
L 112.559458 45.893725 
L 114.118417 54.842698 
L 115.677376 45.240959 
L 117.236334 44.801853 
L 118.795293 44.271053 
L 120.354252 43.637068 
L 121.913211 42.889942 
L 123.47217 42.020339 
L 125.031129 41.023466 
L 126.590088 39.897694 
L 128.149047 38.645213 
L 129.708005 37.272772 
L 131.266964 35.786119 
L 132.825923 40.242306 
L 134.384882 38.396948 
L 135.943841 36.500904 
L 137.5028 34.564569 
L 139.061759 32.591683 
L 140.620717 30.594194 
" style="fill:none;stroke:#92c5de;stroke-linecap:round;stroke-width:1.5;"/>
   </g>
   <g id="line2d_14">
    <path clip-path="url(#p849bce4bf9)" d="M 198.302196 31.208823 
L 199.861155 33.312264 
L 201.420113 35.417114 
L 202.979072 37.51903 
L 204.538031 39.622334 
L 206.09699 41.72412 
L 207.655949 43.827257 
L 209.214908 45.930276 
" style="fill:none;stroke:#f4a582;stroke-linecap:round;stroke-width:1.5;"/>
   </g>
   <g id="patch_3">
    <path d="M 45.183929 120.04 
L 45.183929 25.8 
" style="fill:none;stroke:#262626;stroke-linecap:square;stroke-linejoin:miter;stroke-width:0.8;"/>
   </g>
   <g id="patch_4">
    <path d="M 45.183929 120.04 
L 217.35 120.04 
" style="fill:none;stroke:#262626;stroke-linecap:square;stroke-linejoin:miter;stroke-width:0.8;"/>
   </g>
   <g id="text_12">
    <!-- SM14 -->
    <defs>
     <path d="M 4.5 23 
L 13.421875 23.78125 
Q 14.0625 18.40625 16.375 14.96875 
Q 18.703125 11.53125 23.578125 9.40625 
Q 28.46875 7.28125 34.578125 7.28125 
Q 39.984375 7.28125 44.140625 8.890625 
Q 48.296875 10.5 50.3125 13.296875 
Q 52.34375 16.109375 52.34375 19.4375 
Q 52.34375 22.796875 50.390625 25.3125 
Q 48.4375 27.828125 43.953125 29.546875 
Q 41.0625 30.671875 31.203125 33.03125 
Q 21.34375 35.40625 17.390625 37.5 
Q 12.25 40.1875 9.734375 44.15625 
Q 7.234375 48.140625 7.234375 53.078125 
Q 7.234375 58.5 10.296875 63.203125 
Q 13.375 67.921875 19.28125 70.359375 
Q 25.203125 72.796875 32.421875 72.796875 
Q 40.375 72.796875 46.453125 70.234375 
Q 52.546875 67.671875 55.8125 62.6875 
Q 59.078125 57.71875 59.328125 51.421875 
L 50.25 50.734375 
Q 49.515625 57.515625 45.28125 60.984375 
Q 41.0625 64.453125 32.8125 64.453125 
Q 24.21875 64.453125 20.28125 61.296875 
Q 16.359375 58.15625 16.359375 53.71875 
Q 16.359375 49.859375 19.140625 47.359375 
Q 21.875 44.875 33.421875 42.265625 
Q 44.96875 39.65625 49.265625 37.703125 
Q 55.515625 34.8125 58.484375 30.390625 
Q 61.46875 25.984375 61.46875 20.21875 
Q 61.46875 14.5 58.203125 9.4375 
Q 54.9375 4.390625 48.796875 1.578125 
Q 42.671875 -1.21875 35.015625 -1.21875 
Q 25.296875 -1.21875 18.71875 1.609375 
Q 12.15625 4.4375 8.421875 10.125 
Q 4.6875 15.828125 4.5 23 
z
" id="ArialMT-53"/>
     <path d="M 7.421875 0 
L 7.421875 71.578125 
L 21.6875 71.578125 
L 38.625 20.90625 
Q 40.96875 13.8125 42.046875 10.296875 
Q 43.265625 14.203125 45.84375 21.78125 
L 62.984375 71.578125 
L 75.734375 71.578125 
L 75.734375 0 
L 66.609375 0 
L 66.609375 59.90625 
L 45.796875 0 
L 37.25 0 
L 16.546875 60.9375 
L 16.546875 0 
z
" id="ArialMT-4d"/>
    </defs>
    <g style="fill:#262626;" transform="translate(115.593839 19.8)scale(0.12 -0.12)">
     <use xlink:href="#ArialMT-53"/>
     <use x="66.699219" xlink:href="#ArialMT-4d"/>
     <use x="150" xlink:href="#ArialMT-31"/>
     <use x="205.615234" xlink:href="#ArialMT-34"/>
    </g>
   </g>
  </g>
 </g>
 <defs>
  <clipPath id="p849bce4bf9">
   <rect height="94.24" width="172.166071" x="45.183929" y="25.8"/>
  </clipPath>
 </defs>
</svg>
