<?xml version="1.0" encoding="utf-8" standalone="no"?>
<!DOCTYPE svg PUBLIC "-//W3C//DTD SVG 1.1//EN"
  "http://www.w3.org/Graphics/SVG/1.1/DTD/svg11.dtd">
<!-- Created with matplotlib (http://matplotlib.org/) -->
<svg height="159.84pt" version="1.1" viewBox="0 0 230.4 159.84" width="230.4pt" xmlns="http://www.w3.org/2000/svg" xmlns:xlink="http://www.w3.org/1999/xlink">
 <defs>
  <style type="text/css">
*{stroke-linecap:butt;stroke-linejoin:round;}
  </style>
 </defs>
 <g id="figure_1">
  <g id="patch_1">
   <path d="M 0 159.84 
L 230.4 159.84 
L 230.4 0 
L 0 0 
z
" style="fill:#ffffff;"/>
  </g>
  <g id="axes_1">
   <g id="patch_2">
    <path d="M 45.425 120.04 
L 217.35 120.04 
L 217.35 25.8 
L 45.425 25.8 
z
" style="fill:#ffffff;"/>
   </g>
   <g id="matplotlib.axis_1">
    <g id="xtick_1">
     <g id="line2d_1">
      <defs>
       <path d="M 0 0 
L 0 3.5 
" id="mbae7560d08" style="stroke:#262626;stroke-width:0.8;"/>
      </defs>
      <g>
       <use style="fill:#262626;stroke:#262626;stroke-width:0.8;" x="53.548701" xlink:href="#mbae7560d08" y="120.04"/>
      </g>
     </g>
     <g id="text_1">
      <!-- 2 -->
      <defs>
       <path d="M 50.34375 8.453125 
L 50.34375 0 
L 3.03125 0 
Q 2.9375 3.171875 4.046875 6.109375 
Q 5.859375 10.9375 9.828125 15.625 
Q 13.8125 20.3125 21.34375 26.46875 
Q 33.015625 36.03125 37.109375 41.625 
Q 41.21875 47.21875 41.21875 52.203125 
Q 41.21875 57.421875 37.46875 61 
Q 33.734375 64.59375 27.734375 64.59375 
Q 21.390625 64.59375 17.578125 60.78125 
Q 13.765625 56.984375 13.71875 50.25 
L 4.6875 51.171875 
Q 5.609375 61.28125 11.65625 66.578125 
Q 17.71875 71.875 27.9375 71.875 
Q 38.234375 71.875 44.234375 66.15625 
Q 50.25 60.453125 50.25 52 
Q 50.25 47.703125 48.484375 43.546875 
Q 46.734375 39.40625 42.65625 34.8125 
Q 38.578125 30.21875 29.109375 22.21875 
Q 21.1875 15.578125 18.9375 13.203125 
Q 16.703125 10.84375 15.234375 8.453125 
z
" id="ArialMT-32"/>
      </defs>
      <g style="fill:#262626;" transform="translate(50.768233 134.197812)scale(0.1 -0.1)">
       <use xlink:href="#ArialMT-32"/>
      </g>
     </g>
    </g>
    <g id="xtick_2">
     <g id="line2d_2">
      <g>
       <use style="fill:#262626;stroke:#262626;stroke-width:0.8;" x="84.740392" xlink:href="#mbae7560d08" y="120.04"/>
      </g>
     </g>
     <g id="text_2">
      <!-- 4 -->
      <defs>
       <path d="M 32.328125 0 
L 32.328125 17.140625 
L 1.265625 17.140625 
L 1.265625 25.203125 
L 33.9375 71.578125 
L 41.109375 71.578125 
L 41.109375 25.203125 
L 50.78125 25.203125 
L 50.78125 17.140625 
L 41.109375 17.140625 
L 41.109375 0 
z
M 32.328125 25.203125 
L 32.328125 57.46875 
L 9.90625 25.203125 
z
" id="ArialMT-34"/>
      </defs>
      <g style="fill:#262626;" transform="translate(81.959923 134.197812)scale(0.1 -0.1)">
       <use xlink:href="#ArialMT-34"/>
      </g>
     </g>
    </g>
    <g id="xtick_3">
     <g id="line2d_3">
      <g>
       <use style="fill:#262626;stroke:#262626;stroke-width:0.8;" x="115.932082" xlink:href="#mbae7560d08" y="120.04"/>
      </g>
     </g>
     <g id="text_3">
      <!-- 6 -->
      <defs>
       <path d="M 49.75 54.046875 
L 41.015625 53.375 
Q 39.84375 58.546875 37.703125 60.890625 
Q 34.125 64.65625 28.90625 64.65625 
Q 24.703125 64.65625 21.53125 62.3125 
Q 17.390625 59.28125 14.984375 53.46875 
Q 12.59375 47.65625 12.5 36.921875 
Q 15.671875 41.75 20.265625 44.09375 
Q 24.859375 46.4375 29.890625 46.4375 
Q 38.671875 46.4375 44.84375 39.96875 
Q 51.03125 33.5 51.03125 23.25 
Q 51.03125 16.5 48.125 10.71875 
Q 45.21875 4.9375 40.140625 1.859375 
Q 35.0625 -1.21875 28.609375 -1.21875 
Q 17.625 -1.21875 10.6875 6.859375 
Q 3.765625 14.9375 3.765625 33.5 
Q 3.765625 54.25 11.421875 63.671875 
Q 18.109375 71.875 29.4375 71.875 
Q 37.890625 71.875 43.28125 67.140625 
Q 48.6875 62.40625 49.75 54.046875 
z
M 13.875 23.1875 
Q 13.875 18.65625 15.796875 14.5 
Q 17.71875 10.359375 21.1875 8.171875 
Q 24.65625 6 28.46875 6 
Q 34.03125 6 38.03125 10.484375 
Q 42.046875 14.984375 42.046875 22.703125 
Q 42.046875 30.125 38.078125 34.390625 
Q 34.125 38.671875 28.125 38.671875 
Q 22.171875 38.671875 18.015625 34.390625 
Q 13.875 30.125 13.875 23.1875 
z
" id="ArialMT-36"/>
      </defs>
      <g style="fill:#262626;" transform="translate(113.151613 134.197812)scale(0.1 -0.1)">
       <use xlink:href="#ArialMT-36"/>
      </g>
     </g>
    </g>
    <g id="xtick_4">
     <g id="line2d_4">
      <g>
       <use style="fill:#262626;stroke:#262626;stroke-width:0.8;" x="147.123772" xlink:href="#mbae7560d08" y="120.04"/>
      </g>
     </g>
     <g id="text_4">
      <!-- 8 -->
      <defs>
       <path d="M 17.671875 38.8125 
Q 12.203125 40.828125 9.5625 44.53125 
Q 6.9375 48.25 6.9375 53.421875 
Q 6.9375 61.234375 12.546875 66.546875 
Q 18.171875 71.875 27.484375 71.875 
Q 36.859375 71.875 42.578125 66.421875 
Q 48.296875 60.984375 48.296875 53.171875 
Q 48.296875 48.1875 45.671875 44.5 
Q 43.0625 40.828125 37.75 38.8125 
Q 44.34375 36.671875 47.78125 31.875 
Q 51.21875 27.09375 51.21875 20.453125 
Q 51.21875 11.28125 44.71875 5.03125 
Q 38.234375 -1.21875 27.640625 -1.21875 
Q 17.046875 -1.21875 10.546875 5.046875 
Q 4.046875 11.328125 4.046875 20.703125 
Q 4.046875 27.6875 7.59375 32.390625 
Q 11.140625 37.109375 17.671875 38.8125 
z
M 15.921875 53.71875 
Q 15.921875 48.640625 19.1875 45.40625 
Q 22.46875 42.1875 27.6875 42.1875 
Q 32.765625 42.1875 36.015625 45.375 
Q 39.265625 48.578125 39.265625 53.21875 
Q 39.265625 58.0625 35.90625 61.359375 
Q 32.5625 64.65625 27.59375 64.65625 
Q 22.5625 64.65625 19.234375 61.421875 
Q 15.921875 58.203125 15.921875 53.71875 
z
M 13.09375 20.65625 
Q 13.09375 16.890625 14.875 13.375 
Q 16.65625 9.859375 20.171875 7.921875 
Q 23.6875 6 27.734375 6 
Q 34.03125 6 38.125 10.046875 
Q 42.234375 14.109375 42.234375 20.359375 
Q 42.234375 26.703125 38.015625 30.859375 
Q 33.796875 35.015625 27.4375 35.015625 
Q 21.234375 35.015625 17.15625 30.90625 
Q 13.09375 26.8125 13.09375 20.65625 
z
" id="ArialMT-38"/>
      </defs>
      <g style="fill:#262626;" transform="translate(144.343304 134.197812)scale(0.1 -0.1)">
       <use xlink:href="#ArialMT-38"/>
      </g>
     </g>
    </g>
    <g id="xtick_5">
     <g id="line2d_5">
      <g>
       <use style="fill:#262626;stroke:#262626;stroke-width:0.8;" x="178.315463" xlink:href="#mbae7560d08" y="120.04"/>
      </g>
     </g>
     <g id="text_5">
      <!-- 10 -->
      <defs>
       <path d="M 37.25 0 
L 28.46875 0 
L 28.46875 56 
Q 25.296875 52.984375 20.140625 49.953125 
Q 14.984375 46.921875 10.890625 45.40625 
L 10.890625 53.90625 
Q 18.265625 57.375 23.78125 62.296875 
Q 29.296875 67.234375 31.59375 71.875 
L 37.25 71.875 
z
" id="ArialMT-31"/>
       <path d="M 4.15625 35.296875 
Q 4.15625 48 6.765625 55.734375 
Q 9.375 63.484375 14.515625 67.671875 
Q 19.671875 71.875 27.484375 71.875 
Q 33.25 71.875 37.59375 69.546875 
Q 41.9375 67.234375 44.765625 62.859375 
Q 47.609375 58.5 49.21875 52.21875 
Q 50.828125 45.953125 50.828125 35.296875 
Q 50.828125 22.703125 48.234375 14.96875 
Q 45.65625 7.234375 40.5 3 
Q 35.359375 -1.21875 27.484375 -1.21875 
Q 17.140625 -1.21875 11.234375 6.203125 
Q 4.15625 15.140625 4.15625 35.296875 
z
M 13.1875 35.296875 
Q 13.1875 17.671875 17.3125 11.828125 
Q 21.4375 6 27.484375 6 
Q 33.546875 6 37.671875 11.859375 
Q 41.796875 17.71875 41.796875 35.296875 
Q 41.796875 52.984375 37.671875 58.78125 
Q 33.546875 64.59375 27.390625 64.59375 
Q 21.34375 64.59375 17.71875 59.46875 
Q 13.1875 52.9375 13.1875 35.296875 
z
" id="ArialMT-30"/>
      </defs>
      <g style="fill:#262626;" transform="translate(172.754525 134.197812)scale(0.1 -0.1)">
       <use xlink:href="#ArialMT-31"/>
       <use x="55.615234" xlink:href="#ArialMT-30"/>
      </g>
     </g>
    </g>
    <g id="xtick_6">
     <g id="line2d_6">
      <g>
       <use style="fill:#262626;stroke:#262626;stroke-width:0.8;" x="209.507153" xlink:href="#mbae7560d08" y="120.04"/>
      </g>
     </g>
     <g id="text_6">
      <!-- 12 -->
      <g style="fill:#262626;" transform="translate(203.946215 134.197812)scale(0.1 -0.1)">
       <use xlink:href="#ArialMT-31"/>
       <use x="55.615234" xlink:href="#ArialMT-32"/>
      </g>
     </g>
    </g>
    <g id="text_7">
     <!-- pH -->
     <defs>
      <path d="M 6.59375 -19.875 
L 6.59375 51.859375 
L 14.59375 51.859375 
L 14.59375 45.125 
Q 17.4375 49.078125 21 51.046875 
Q 24.5625 53.03125 29.640625 53.03125 
Q 36.28125 53.03125 41.359375 49.609375 
Q 46.4375 46.1875 49.015625 39.953125 
Q 51.609375 33.734375 51.609375 26.3125 
Q 51.609375 18.359375 48.75 11.984375 
Q 45.90625 5.609375 40.453125 2.21875 
Q 35.015625 -1.171875 29 -1.171875 
Q 24.609375 -1.171875 21.109375 0.6875 
Q 17.625 2.546875 15.375 5.375 
L 15.375 -19.875 
z
M 14.546875 25.640625 
Q 14.546875 15.625 18.59375 10.84375 
Q 22.65625 6.0625 28.421875 6.0625 
Q 34.28125 6.0625 38.453125 11.015625 
Q 42.625 15.96875 42.625 26.375 
Q 42.625 36.28125 38.546875 41.203125 
Q 34.46875 46.140625 28.8125 46.140625 
Q 23.1875 46.140625 18.859375 40.890625 
Q 14.546875 35.640625 14.546875 25.640625 
z
" id="ArialMT-70"/>
      <path d="M 8.015625 0 
L 8.015625 71.578125 
L 17.484375 71.578125 
L 17.484375 42.1875 
L 54.6875 42.1875 
L 54.6875 71.578125 
L 64.15625 71.578125 
L 64.15625 0 
L 54.6875 0 
L 54.6875 33.734375 
L 17.484375 33.734375 
L 17.484375 0 
z
" id="ArialMT-48"/>
     </defs>
     <g style="fill:#262626;" transform="translate(124.996094 147.343125)scale(0.1 -0.1)">
      <use xlink:href="#ArialMT-70"/>
      <use x="55.615234" xlink:href="#ArialMT-48"/>
     </g>
    </g>
   </g>
   <g id="matplotlib.axis_2">
    <g id="ytick_1">
     <g id="line2d_7">
      <defs>
       <path d="M 0 0 
L -3.5 0 
" id="m6a476137eb" style="stroke:#262626;stroke-width:0.8;"/>
      </defs>
      <g>
       <use style="fill:#262626;stroke:#262626;stroke-width:0.8;" x="45.425" xlink:href="#m6a476137eb" y="104.991125"/>
      </g>
     </g>
     <g id="text_8">
      <!-- −5 -->
      <defs>
       <path d="M 52.828125 31.203125 
L 5.5625 31.203125 
L 5.5625 39.40625 
L 52.828125 39.40625 
z
" id="ArialMT-2212"/>
       <path d="M 4.15625 18.75 
L 13.375 19.53125 
Q 14.40625 12.796875 18.140625 9.390625 
Q 21.875 6 27.15625 6 
Q 33.5 6 37.890625 10.78125 
Q 42.28125 15.578125 42.28125 23.484375 
Q 42.28125 31 38.0625 35.34375 
Q 33.84375 39.703125 27 39.703125 
Q 22.75 39.703125 19.328125 37.765625 
Q 15.921875 35.84375 13.96875 32.765625 
L 5.71875 33.84375 
L 12.640625 70.609375 
L 48.25 70.609375 
L 48.25 62.203125 
L 19.671875 62.203125 
L 15.828125 42.96875 
Q 22.265625 47.46875 29.34375 47.46875 
Q 38.71875 47.46875 45.15625 40.96875 
Q 51.609375 34.46875 51.609375 24.265625 
Q 51.609375 14.546875 45.953125 7.46875 
Q 39.0625 -1.21875 27.15625 -1.21875 
Q 17.390625 -1.21875 11.203125 4.25 
Q 5.03125 9.71875 4.15625 18.75 
z
" id="ArialMT-35"/>
      </defs>
      <g style="fill:#262626;" transform="translate(27.023437 108.570031)scale(0.1 -0.1)">
       <use xlink:href="#ArialMT-2212"/>
       <use x="58.398438" xlink:href="#ArialMT-35"/>
      </g>
     </g>
    </g>
    <g id="ytick_2">
     <g id="line2d_8">
      <g>
       <use style="fill:#262626;stroke:#262626;stroke-width:0.8;" x="45.425" xlink:href="#m6a476137eb" y="79.724474"/>
      </g>
     </g>
     <g id="text_9">
      <!-- 0 -->
      <g style="fill:#262626;" transform="translate(32.864062 83.30338)scale(0.1 -0.1)">
       <use xlink:href="#ArialMT-30"/>
      </g>
     </g>
    </g>
    <g id="ytick_3">
     <g id="line2d_9">
      <g>
       <use style="fill:#262626;stroke:#262626;stroke-width:0.8;" x="45.425" xlink:href="#m6a476137eb" y="54.457823"/>
      </g>
     </g>
     <g id="text_10">
      <!-- 5 -->
      <g style="fill:#262626;" transform="translate(32.864062 58.036729)scale(0.1 -0.1)">
       <use xlink:href="#ArialMT-35"/>
      </g>
     </g>
    </g>
    <g id="ytick_4">
     <g id="line2d_10">
      <g>
       <use style="fill:#262626;stroke:#262626;stroke-width:0.8;" x="45.425" xlink:href="#m6a476137eb" y="29.191172"/>
      </g>
     </g>
     <g id="text_11">
      <!-- 10 -->
      <g style="fill:#262626;" transform="translate(27.303125 32.770078)scale(0.1 -0.1)">
       <use xlink:href="#ArialMT-31"/>
       <use x="55.615234" xlink:href="#ArialMT-30"/>
      </g>
     </g>
    </g>
    <g id="text_12">
     <!-- Free Energy($k_BT$) -->
     <defs>
      <path d="M 8.203125 0 
L 8.203125 71.578125 
L 56.5 71.578125 
L 56.5 63.140625 
L 17.671875 63.140625 
L 17.671875 40.96875 
L 51.265625 40.96875 
L 51.265625 32.515625 
L 17.671875 32.515625 
L 17.671875 0 
z
" id="ArialMT-46"/>
      <path d="M 6.5 0 
L 6.5 51.859375 
L 14.40625 51.859375 
L 14.40625 44 
Q 17.4375 49.515625 20 51.265625 
Q 22.5625 53.03125 25.640625 53.03125 
Q 30.078125 53.03125 34.671875 50.203125 
L 31.640625 42.046875 
Q 28.421875 43.953125 25.203125 43.953125 
Q 22.3125 43.953125 20.015625 42.21875 
Q 17.71875 40.484375 16.75 37.40625 
Q 15.28125 32.71875 15.28125 27.15625 
L 15.28125 0 
z
" id="ArialMT-72"/>
      <path d="M 42.09375 16.703125 
L 51.171875 15.578125 
Q 49.03125 7.625 43.21875 3.21875 
Q 37.40625 -1.171875 28.375 -1.171875 
Q 17 -1.171875 10.328125 5.828125 
Q 3.65625 12.84375 3.65625 25.484375 
Q 3.65625 38.578125 10.390625 45.796875 
Q 17.140625 53.03125 27.875 53.03125 
Q 38.28125 53.03125 44.875 45.953125 
Q 51.46875 38.875 51.46875 26.03125 
Q 51.46875 25.25 51.421875 23.6875 
L 12.75 23.6875 
Q 13.234375 15.140625 17.578125 10.59375 
Q 21.921875 6.0625 28.421875 6.0625 
Q 33.25 6.0625 36.671875 8.59375 
Q 40.09375 11.140625 42.09375 16.703125 
z
M 13.234375 30.90625 
L 42.1875 30.90625 
Q 41.609375 37.453125 38.875 40.71875 
Q 34.671875 45.796875 27.984375 45.796875 
Q 21.921875 45.796875 17.796875 41.75 
Q 13.671875 37.703125 13.234375 30.90625 
z
" id="ArialMT-65"/>
      <path id="ArialMT-20"/>
      <path d="M 7.90625 0 
L 7.90625 71.578125 
L 59.671875 71.578125 
L 59.671875 63.140625 
L 17.390625 63.140625 
L 17.390625 41.21875 
L 56.984375 41.21875 
L 56.984375 32.8125 
L 17.390625 32.8125 
L 17.390625 8.453125 
L 61.328125 8.453125 
L 61.328125 0 
z
" id="ArialMT-45"/>
      <path d="M 6.59375 0 
L 6.59375 51.859375 
L 14.5 51.859375 
L 14.5 44.484375 
Q 20.21875 53.03125 31 53.03125 
Q 35.6875 53.03125 39.625 51.34375 
Q 43.5625 49.65625 45.515625 46.921875 
Q 47.46875 44.1875 48.25 40.4375 
Q 48.734375 37.984375 48.734375 31.890625 
L 48.734375 0 
L 39.9375 0 
L 39.9375 31.546875 
Q 39.9375 36.921875 38.90625 39.578125 
Q 37.890625 42.234375 35.28125 43.8125 
Q 32.671875 45.40625 29.15625 45.40625 
Q 23.53125 45.40625 19.453125 41.84375 
Q 15.375 38.28125 15.375 28.328125 
L 15.375 0 
z
" id="ArialMT-6e"/>
      <path d="M 4.984375 -4.296875 
L 13.53125 -5.5625 
Q 14.0625 -9.515625 16.5 -11.328125 
Q 19.78125 -13.765625 25.4375 -13.765625 
Q 31.546875 -13.765625 34.859375 -11.328125 
Q 38.1875 -8.890625 39.359375 -4.5 
Q 40.046875 -1.8125 39.984375 6.78125 
Q 34.234375 0 25.640625 0 
Q 14.9375 0 9.078125 7.71875 
Q 3.21875 15.4375 3.21875 26.21875 
Q 3.21875 33.640625 5.90625 39.90625 
Q 8.59375 46.1875 13.6875 49.609375 
Q 18.796875 53.03125 25.6875 53.03125 
Q 34.859375 53.03125 40.828125 45.609375 
L 40.828125 51.859375 
L 48.921875 51.859375 
L 48.921875 7.03125 
Q 48.921875 -5.078125 46.453125 -10.125 
Q 44 -15.1875 38.640625 -18.109375 
Q 33.296875 -21.046875 25.484375 -21.046875 
Q 16.21875 -21.046875 10.5 -16.875 
Q 4.78125 -12.703125 4.984375 -4.296875 
z
M 12.25 26.859375 
Q 12.25 16.65625 16.296875 11.96875 
Q 20.359375 7.28125 26.46875 7.28125 
Q 32.515625 7.28125 36.609375 11.9375 
Q 40.71875 16.609375 40.71875 26.5625 
Q 40.71875 36.078125 36.5 40.90625 
Q 32.28125 45.75 26.3125 45.75 
Q 20.453125 45.75 16.34375 40.984375 
Q 12.25 36.234375 12.25 26.859375 
z
" id="ArialMT-67"/>
      <path d="M 6.203125 -19.96875 
L 5.21875 -11.71875 
Q 8.109375 -12.5 10.25 -12.5 
Q 13.1875 -12.5 14.9375 -11.515625 
Q 16.703125 -10.546875 17.828125 -8.796875 
Q 18.65625 -7.46875 20.515625 -2.25 
Q 20.75 -1.515625 21.296875 -0.09375 
L 1.609375 51.859375 
L 11.078125 51.859375 
L 21.875 21.828125 
Q 23.96875 16.109375 25.640625 9.8125 
Q 27.15625 15.875 29.25 21.625 
L 40.328125 51.859375 
L 49.125 51.859375 
L 29.390625 -0.875 
Q 26.21875 -9.421875 24.46875 -12.640625 
Q 22.125 -17 19.09375 -19.015625 
Q 16.0625 -21.046875 11.859375 -21.046875 
Q 9.328125 -21.046875 6.203125 -19.96875 
z
" id="ArialMT-79"/>
      <path d="M 23.390625 -21.046875 
Q 16.109375 -11.859375 11.078125 0.4375 
Q 6.0625 12.75 6.0625 25.921875 
Q 6.0625 37.546875 9.8125 48.1875 
Q 14.203125 60.546875 23.390625 72.796875 
L 29.6875 72.796875 
Q 23.78125 62.640625 21.875 58.296875 
Q 18.890625 51.5625 17.1875 44.234375 
Q 15.09375 35.109375 15.09375 25.875 
Q 15.09375 2.390625 29.6875 -21.046875 
z
" id="ArialMT-28"/>
      <path d="M 18.3125 75.984375 
L 27.296875 75.984375 
L 18.703125 31.6875 
L 49.515625 54.6875 
L 61.1875 54.6875 
L 26.8125 28.515625 
L 51.90625 0 
L 41.015625 0 
L 17.671875 26.703125 
L 12.5 0 
L 3.515625 0 
z
" id="DejaVuSans-Oblique-6b"/>
      <path d="M 16.890625 72.90625 
L 42.09375 72.90625 
Q 52.34375 72.90625 57.421875 69.09375 
Q 62.5 65.28125 62.5 57.625 
Q 62.5 50.59375 58.125 45.484375 
Q 53.765625 40.375 46.6875 39.3125 
Q 52.734375 37.9375 55.765625 34.078125 
Q 58.796875 30.21875 58.796875 23.78125 
Q 58.796875 12.796875 50.65625 6.390625 
Q 42.53125 0 28.421875 0 
L 2.6875 0 
z
M 19.28125 34.8125 
L 14.109375 8.109375 
L 29.984375 8.109375 
Q 38.921875 8.109375 43.75 12.203125 
Q 48.578125 16.3125 48.578125 23.78125 
Q 48.578125 29.546875 45.375 32.171875 
Q 42.1875 34.8125 35.109375 34.8125 
z
M 25.09375 64.796875 
L 20.796875 42.828125 
L 35.5 42.828125 
Q 43.359375 42.828125 47.78125 46.234375 
Q 52.203125 49.65625 52.203125 55.71875 
Q 52.203125 60.453125 49.21875 62.625 
Q 46.234375 64.796875 39.703125 64.796875 
z
" id="DejaVuSans-Oblique-42"/>
      <path d="M 5.90625 72.90625 
L 67.578125 72.90625 
L 66.015625 64.59375 
L 39.984375 64.59375 
L 27.484375 0 
L 17.578125 0 
L 30.078125 64.59375 
L 4.296875 64.59375 
z
" id="DejaVuSans-Oblique-54"/>
      <path d="M 12.359375 -21.046875 
L 6.0625 -21.046875 
Q 20.65625 2.390625 20.65625 25.875 
Q 20.65625 35.0625 18.5625 44.09375 
Q 16.890625 51.421875 13.921875 58.15625 
Q 12.015625 62.546875 6.0625 72.796875 
L 12.359375 72.796875 
Q 21.53125 60.546875 25.921875 48.1875 
Q 29.6875 37.546875 29.6875 25.921875 
Q 29.6875 12.75 24.625 0.4375 
Q 19.578125 -11.859375 12.359375 -21.046875 
z
" id="ArialMT-29"/>
     </defs>
     <g style="fill:#262626;" transform="translate(20.823437 112.27)rotate(-90)scale(0.1 -0.1)">
      <use transform="translate(0 0.015625)" xlink:href="#ArialMT-46"/>
      <use transform="translate(61.083984 0.015625)" xlink:href="#ArialMT-72"/>
      <use transform="translate(94.384766 0.015625)" xlink:href="#ArialMT-65"/>
      <use transform="translate(150 0.015625)" xlink:href="#ArialMT-65"/>
      <use transform="translate(205.615234 0.015625)" xlink:href="#ArialMT-20"/>
      <use transform="translate(233.398438 0.015625)" xlink:href="#ArialMT-45"/>
      <use transform="translate(300.097656 0.015625)" xlink:href="#ArialMT-6e"/>
      <use transform="translate(355.712891 0.015625)" xlink:href="#ArialMT-65"/>
      <use transform="translate(411.328125 0.015625)" xlink:href="#ArialMT-72"/>
      <use transform="translate(444.628906 0.015625)" xlink:href="#ArialMT-67"/>
      <use transform="translate(500.244141 0.015625)" xlink:href="#ArialMT-79"/>
      <use transform="translate(550.244141 0.015625)" xlink:href="#ArialMT-28"/>
      <use transform="translate(583.544922 0.015625)" xlink:href="#DejaVuSans-Oblique-6b"/>
      <use transform="translate(641.455078 -16.390625)scale(0.7)" xlink:href="#DejaVuSans-Oblique-42"/>
      <use transform="translate(692.211914 0.015625)" xlink:href="#DejaVuSans-Oblique-54"/>
      <use transform="translate(753.295898 0.015625)" xlink:href="#ArialMT-29"/>
     </g>
    </g>
   </g>
   <g id="PathCollection_1">
    <defs>
     <path d="M 0 0.5 
C 0.132602 0.5 0.25979 0.447317 0.353553 0.353553 
C 0.447317 0.25979 0.5 0.132602 0.5 0 
C 0.5 -0.132602 0.447317 -0.25979 0.353553 -0.353553 
C 0.25979 -0.447317 0.132602 -0.5 0 -0.5 
C -0.132602 -0.5 -0.25979 -0.447317 -0.353553 -0.353553 
C -0.447317 -0.25979 -0.5 -0.132602 -0.5 0 
C -0.5 0.132602 -0.447317 0.25979 -0.353553 0.353553 
C -0.25979 0.447317 -0.132602 0.5 0 0.5 
z
" id="ma1ef8b6a67" style="stroke:#333333;"/>
    </defs>
    <g clip-path="url(#paff4424b75)">
     <use style="fill:#333333;stroke:#333333;" x="53.548701" xlink:href="#ma1ef8b6a67" y="79.724474"/>
     <use style="fill:#333333;stroke:#333333;" x="55.108286" xlink:href="#ma1ef8b6a67" y="79.724474"/>
     <use style="fill:#333333;stroke:#333333;" x="56.66787" xlink:href="#ma1ef8b6a67" y="79.724474"/>
     <use style="fill:#333333;stroke:#333333;" x="58.227455" xlink:href="#ma1ef8b6a67" y="79.724474"/>
     <use style="fill:#333333;stroke:#333333;" x="59.787039" xlink:href="#ma1ef8b6a67" y="79.724474"/>
     <use style="fill:#333333;stroke:#333333;" x="61.346624" xlink:href="#ma1ef8b6a67" y="79.724474"/>
     <use style="fill:#333333;stroke:#333333;" x="62.906208" xlink:href="#ma1ef8b6a67" y="79.724474"/>
     <use style="fill:#333333;stroke:#333333;" x="64.465793" xlink:href="#ma1ef8b6a67" y="79.724474"/>
     <use style="fill:#333333;stroke:#333333;" x="66.025378" xlink:href="#ma1ef8b6a67" y="79.724474"/>
     <use style="fill:#333333;stroke:#333333;" x="67.584962" xlink:href="#ma1ef8b6a67" y="79.724474"/>
     <use style="fill:#333333;stroke:#333333;" x="69.144547" xlink:href="#ma1ef8b6a67" y="79.724474"/>
     <use style="fill:#333333;stroke:#333333;" x="70.704131" xlink:href="#ma1ef8b6a67" y="79.724474"/>
     <use style="fill:#333333;stroke:#333333;" x="72.263716" xlink:href="#ma1ef8b6a67" y="79.724474"/>
     <use style="fill:#333333;stroke:#333333;" x="73.8233" xlink:href="#ma1ef8b6a67" y="79.724474"/>
     <use style="fill:#333333;stroke:#333333;" x="75.382885" xlink:href="#ma1ef8b6a67" y="79.724474"/>
     <use style="fill:#333333;stroke:#333333;" x="76.942469" xlink:href="#ma1ef8b6a67" y="79.724474"/>
     <use style="fill:#333333;stroke:#333333;" x="78.502054" xlink:href="#ma1ef8b6a67" y="79.724474"/>
     <use style="fill:#333333;stroke:#333333;" x="80.061638" xlink:href="#ma1ef8b6a67" y="79.724474"/>
     <use style="fill:#333333;stroke:#333333;" x="81.621223" xlink:href="#ma1ef8b6a67" y="79.724474"/>
     <use style="fill:#333333;stroke:#333333;" x="83.180807" xlink:href="#ma1ef8b6a67" y="79.724474"/>
     <use style="fill:#333333;stroke:#333333;" x="84.740392" xlink:href="#ma1ef8b6a67" y="79.724474"/>
     <use style="fill:#333333;stroke:#333333;" x="86.299976" xlink:href="#ma1ef8b6a67" y="79.724474"/>
     <use style="fill:#333333;stroke:#333333;" x="87.859561" xlink:href="#ma1ef8b6a67" y="79.724474"/>
     <use style="fill:#333333;stroke:#333333;" x="89.419145" xlink:href="#ma1ef8b6a67" y="79.724474"/>
     <use style="fill:#333333;stroke:#333333;" x="90.97873" xlink:href="#ma1ef8b6a67" y="79.724474"/>
     <use style="fill:#333333;stroke:#333333;" x="92.538314" xlink:href="#ma1ef8b6a67" y="79.724474"/>
     <use style="fill:#333333;stroke:#333333;" x="94.097899" xlink:href="#ma1ef8b6a67" y="79.724474"/>
     <use style="fill:#333333;stroke:#333333;" x="95.657483" xlink:href="#ma1ef8b6a67" y="79.724474"/>
     <use style="fill:#333333;stroke:#333333;" x="97.217068" xlink:href="#ma1ef8b6a67" y="79.724474"/>
     <use style="fill:#333333;stroke:#333333;" x="98.776652" xlink:href="#ma1ef8b6a67" y="79.724474"/>
     <use style="fill:#333333;stroke:#333333;" x="100.336237" xlink:href="#ma1ef8b6a67" y="79.724474"/>
     <use style="fill:#333333;stroke:#333333;" x="101.895821" xlink:href="#ma1ef8b6a67" y="79.724474"/>
     <use style="fill:#333333;stroke:#333333;" x="103.455406" xlink:href="#ma1ef8b6a67" y="79.724474"/>
     <use style="fill:#333333;stroke:#333333;" x="105.01499" xlink:href="#ma1ef8b6a67" y="79.724474"/>
     <use style="fill:#333333;stroke:#333333;" x="106.574575" xlink:href="#ma1ef8b6a67" y="79.724474"/>
     <use style="fill:#333333;stroke:#333333;" x="108.134159" xlink:href="#ma1ef8b6a67" y="79.724474"/>
     <use style="fill:#333333;stroke:#333333;" x="109.693744" xlink:href="#ma1ef8b6a67" y="79.724474"/>
     <use style="fill:#333333;stroke:#333333;" x="111.253328" xlink:href="#ma1ef8b6a67" y="79.724474"/>
     <use style="fill:#333333;stroke:#333333;" x="112.812913" xlink:href="#ma1ef8b6a67" y="79.724474"/>
     <use style="fill:#333333;stroke:#333333;" x="114.372498" xlink:href="#ma1ef8b6a67" y="79.724474"/>
     <use style="fill:#333333;stroke:#333333;" x="115.932082" xlink:href="#ma1ef8b6a67" y="79.724474"/>
     <use style="fill:#333333;stroke:#333333;" x="117.491667" xlink:href="#ma1ef8b6a67" y="79.724474"/>
     <use style="fill:#333333;stroke:#333333;" x="119.051251" xlink:href="#ma1ef8b6a67" y="79.724474"/>
     <use style="fill:#333333;stroke:#333333;" x="120.610836" xlink:href="#ma1ef8b6a67" y="79.724474"/>
     <use style="fill:#333333;stroke:#333333;" x="122.17042" xlink:href="#ma1ef8b6a67" y="79.724474"/>
     <use style="fill:#333333;stroke:#333333;" x="123.730005" xlink:href="#ma1ef8b6a67" y="79.724474"/>
     <use style="fill:#333333;stroke:#333333;" x="125.289589" xlink:href="#ma1ef8b6a67" y="79.724474"/>
     <use style="fill:#333333;stroke:#333333;" x="126.849174" xlink:href="#ma1ef8b6a67" y="79.724474"/>
     <use style="fill:#333333;stroke:#333333;" x="128.408758" xlink:href="#ma1ef8b6a67" y="79.724474"/>
     <use style="fill:#333333;stroke:#333333;" x="129.968343" xlink:href="#ma1ef8b6a67" y="79.724474"/>
     <use style="fill:#333333;stroke:#333333;" x="131.527927" xlink:href="#ma1ef8b6a67" y="79.724474"/>
     <use style="fill:#333333;stroke:#333333;" x="133.087512" xlink:href="#ma1ef8b6a67" y="79.724474"/>
     <use style="fill:#333333;stroke:#333333;" x="134.647096" xlink:href="#ma1ef8b6a67" y="79.724474"/>
     <use style="fill:#333333;stroke:#333333;" x="136.206681" xlink:href="#ma1ef8b6a67" y="79.724474"/>
     <use style="fill:#333333;stroke:#333333;" x="137.766265" xlink:href="#ma1ef8b6a67" y="79.724474"/>
     <use style="fill:#333333;stroke:#333333;" x="139.32585" xlink:href="#ma1ef8b6a67" y="79.724474"/>
     <use style="fill:#333333;stroke:#333333;" x="140.885434" xlink:href="#ma1ef8b6a67" y="79.724474"/>
     <use style="fill:#333333;stroke:#333333;" x="142.445019" xlink:href="#ma1ef8b6a67" y="79.724474"/>
     <use style="fill:#333333;stroke:#333333;" x="144.004603" xlink:href="#ma1ef8b6a67" y="79.724474"/>
     <use style="fill:#333333;stroke:#333333;" x="145.564188" xlink:href="#ma1ef8b6a67" y="79.724474"/>
     <use style="fill:#333333;stroke:#333333;" x="147.123772" xlink:href="#ma1ef8b6a67" y="79.724474"/>
     <use style="fill:#333333;stroke:#333333;" x="148.683357" xlink:href="#ma1ef8b6a67" y="79.724474"/>
     <use style="fill:#333333;stroke:#333333;" x="150.242941" xlink:href="#ma1ef8b6a67" y="79.724474"/>
     <use style="fill:#333333;stroke:#333333;" x="151.802526" xlink:href="#ma1ef8b6a67" y="79.724474"/>
     <use style="fill:#333333;stroke:#333333;" x="153.36211" xlink:href="#ma1ef8b6a67" y="79.724474"/>
     <use style="fill:#333333;stroke:#333333;" x="154.921695" xlink:href="#ma1ef8b6a67" y="79.724474"/>
     <use style="fill:#333333;stroke:#333333;" x="156.481279" xlink:href="#ma1ef8b6a67" y="79.724474"/>
     <use style="fill:#333333;stroke:#333333;" x="158.040864" xlink:href="#ma1ef8b6a67" y="79.724474"/>
     <use style="fill:#333333;stroke:#333333;" x="159.600448" xlink:href="#ma1ef8b6a67" y="79.724474"/>
     <use style="fill:#333333;stroke:#333333;" x="161.160033" xlink:href="#ma1ef8b6a67" y="79.724474"/>
     <use style="fill:#333333;stroke:#333333;" x="162.719617" xlink:href="#ma1ef8b6a67" y="79.724474"/>
     <use style="fill:#333333;stroke:#333333;" x="164.279202" xlink:href="#ma1ef8b6a67" y="79.724474"/>
     <use style="fill:#333333;stroke:#333333;" x="165.838787" xlink:href="#ma1ef8b6a67" y="79.724474"/>
     <use style="fill:#333333;stroke:#333333;" x="167.398371" xlink:href="#ma1ef8b6a67" y="79.724474"/>
     <use style="fill:#333333;stroke:#333333;" x="168.957956" xlink:href="#ma1ef8b6a67" y="79.724474"/>
     <use style="fill:#333333;stroke:#333333;" x="170.51754" xlink:href="#ma1ef8b6a67" y="79.724474"/>
     <use style="fill:#333333;stroke:#333333;" x="172.077125" xlink:href="#ma1ef8b6a67" y="79.724474"/>
     <use style="fill:#333333;stroke:#333333;" x="173.636709" xlink:href="#ma1ef8b6a67" y="79.724474"/>
     <use style="fill:#333333;stroke:#333333;" x="175.196294" xlink:href="#ma1ef8b6a67" y="79.724474"/>
     <use style="fill:#333333;stroke:#333333;" x="176.755878" xlink:href="#ma1ef8b6a67" y="79.724474"/>
     <use style="fill:#333333;stroke:#333333;" x="178.315463" xlink:href="#ma1ef8b6a67" y="79.724474"/>
     <use style="fill:#333333;stroke:#333333;" x="179.875047" xlink:href="#ma1ef8b6a67" y="79.724474"/>
     <use style="fill:#333333;stroke:#333333;" x="181.434632" xlink:href="#ma1ef8b6a67" y="79.724474"/>
     <use style="fill:#333333;stroke:#333333;" x="182.994216" xlink:href="#ma1ef8b6a67" y="79.724474"/>
     <use style="fill:#333333;stroke:#333333;" x="184.553801" xlink:href="#ma1ef8b6a67" y="79.724474"/>
     <use style="fill:#333333;stroke:#333333;" x="186.113385" xlink:href="#ma1ef8b6a67" y="79.724474"/>
     <use style="fill:#333333;stroke:#333333;" x="187.67297" xlink:href="#ma1ef8b6a67" y="79.724474"/>
     <use style="fill:#333333;stroke:#333333;" x="189.232554" xlink:href="#ma1ef8b6a67" y="79.724474"/>
     <use style="fill:#333333;stroke:#333333;" x="190.792139" xlink:href="#ma1ef8b6a67" y="79.724474"/>
     <use style="fill:#333333;stroke:#333333;" x="192.351723" xlink:href="#ma1ef8b6a67" y="79.724474"/>
     <use style="fill:#333333;stroke:#333333;" x="193.911308" xlink:href="#ma1ef8b6a67" y="79.724474"/>
     <use style="fill:#333333;stroke:#333333;" x="195.470892" xlink:href="#ma1ef8b6a67" y="79.724474"/>
     <use style="fill:#333333;stroke:#333333;" x="197.030477" xlink:href="#ma1ef8b6a67" y="79.724474"/>
     <use style="fill:#333333;stroke:#333333;" x="198.590061" xlink:href="#ma1ef8b6a67" y="79.724474"/>
     <use style="fill:#333333;stroke:#333333;" x="200.149646" xlink:href="#ma1ef8b6a67" y="79.724474"/>
     <use style="fill:#333333;stroke:#333333;" x="201.70923" xlink:href="#ma1ef8b6a67" y="79.724474"/>
     <use style="fill:#333333;stroke:#333333;" x="203.268815" xlink:href="#ma1ef8b6a67" y="79.724474"/>
     <use style="fill:#333333;stroke:#333333;" x="204.828399" xlink:href="#ma1ef8b6a67" y="79.724474"/>
     <use style="fill:#333333;stroke:#333333;" x="206.387984" xlink:href="#ma1ef8b6a67" y="79.724474"/>
     <use style="fill:#333333;stroke:#333333;" x="207.947568" xlink:href="#ma1ef8b6a67" y="79.724474"/>
     <use style="fill:#333333;stroke:#333333;" x="209.507153" xlink:href="#ma1ef8b6a67" y="79.724474"/>
    </g>
   </g>
   <g id="PathCollection_2">
    <defs>
     <path d="M 0 0.5 
C 0.132602 0.5 0.25979 0.447317 0.353553 0.353553 
C 0.447317 0.25979 0.5 0.132602 0.5 0 
C 0.5 -0.132602 0.447317 -0.25979 0.353553 -0.353553 
C 0.25979 -0.447317 0.132602 -0.5 0 -0.5 
C -0.132602 -0.5 -0.25979 -0.447317 -0.353553 -0.353553 
C -0.447317 -0.25979 -0.5 -0.132602 -0.5 0 
C -0.5 0.132602 -0.447317 0.25979 -0.353553 0.353553 
C -0.25979 0.447317 -0.132602 0.5 0 0.5 
z
" id="m7b1fc44960" style="stroke:#92c5de;"/>
    </defs>
    <g clip-path="url(#paff4424b75)">
     <use style="fill:#92c5de;stroke:#92c5de;" x="53.548701" xlink:href="#m7b1fc44960" y="115.756285"/>
     <use style="fill:#92c5de;stroke:#92c5de;" x="55.108286" xlink:href="#m7b1fc44960" y="114.515308"/>
     <use style="fill:#92c5de;stroke:#92c5de;" x="56.66787" xlink:href="#m7b1fc44960" y="113.272626"/>
     <use style="fill:#92c5de;stroke:#92c5de;" x="58.227455" xlink:href="#m7b1fc44960" y="112.03165"/>
     <use style="fill:#92c5de;stroke:#92c5de;" x="59.787039" xlink:href="#m7b1fc44960" y="110.789821"/>
     <use style="fill:#92c5de;stroke:#92c5de;" x="61.346624" xlink:href="#m7b1fc44960" y="109.548844"/>
     <use style="fill:#92c5de;stroke:#92c5de;" x="62.906208" xlink:href="#m7b1fc44960" y="108.306162"/>
     <use style="fill:#92c5de;stroke:#92c5de;" x="64.465793" xlink:href="#m7b1fc44960" y="107.065186"/>
     <use style="fill:#92c5de;stroke:#92c5de;" x="66.025378" xlink:href="#m7b1fc44960" y="105.823357"/>
     <use style="fill:#92c5de;stroke:#92c5de;" x="67.584962" xlink:href="#m7b1fc44960" y="104.582381"/>
     <use style="fill:#92c5de;stroke:#92c5de;" x="69.144547" xlink:href="#m7b1fc44960" y="103.340551"/>
     <use style="fill:#92c5de;stroke:#92c5de;" x="70.704131" xlink:href="#m7b1fc44960" y="102.098722"/>
     <use style="fill:#92c5de;stroke:#92c5de;" x="72.263716" xlink:href="#m7b1fc44960" y="100.856893"/>
     <use style="fill:#92c5de;stroke:#92c5de;" x="73.8233" xlink:href="#m7b1fc44960" y="99.615064"/>
     <use style="fill:#92c5de;stroke:#92c5de;" x="75.382885" xlink:href="#m7b1fc44960" y="98.374087"/>
     <use style="fill:#92c5de;stroke:#92c5de;" x="76.942469" xlink:href="#m7b1fc44960" y="97.132258"/>
     <use style="fill:#92c5de;stroke:#92c5de;" x="78.502054" xlink:href="#m7b1fc44960" y="95.890429"/>
     <use style="fill:#92c5de;stroke:#92c5de;" x="80.061638" xlink:href="#m7b1fc44960" y="94.649453"/>
     <use style="fill:#92c5de;stroke:#92c5de;" x="81.621223" xlink:href="#m7b1fc44960" y="93.40677"/>
     <use style="fill:#92c5de;stroke:#92c5de;" x="83.180807" xlink:href="#m7b1fc44960" y="92.165794"/>
     <use style="fill:#92c5de;stroke:#92c5de;" x="84.740392" xlink:href="#m7b1fc44960" y="90.923965"/>
     <use style="fill:#92c5de;stroke:#92c5de;" x="86.299976" xlink:href="#m7b1fc44960" y="89.682136"/>
     <use style="fill:#92c5de;stroke:#92c5de;" x="87.859561" xlink:href="#m7b1fc44960" y="88.440307"/>
     <use style="fill:#92c5de;stroke:#92c5de;" x="89.419145" xlink:href="#m7b1fc44960" y="87.19933"/>
     <use style="fill:#92c5de;stroke:#92c5de;" x="90.97873" xlink:href="#m7b1fc44960" y="85.957501"/>
     <use style="fill:#92c5de;stroke:#92c5de;" x="92.538314" xlink:href="#m7b1fc44960" y="84.715672"/>
     <use style="fill:#92c5de;stroke:#92c5de;" x="94.097899" xlink:href="#m7b1fc44960" y="83.474695"/>
     <use style="fill:#92c5de;stroke:#92c5de;" x="95.657483" xlink:href="#m7b1fc44960" y="82.232866"/>
     <use style="fill:#92c5de;stroke:#92c5de;" x="97.217068" xlink:href="#m7b1fc44960" y="80.991037"/>
     <use style="fill:#92c5de;stroke:#92c5de;" x="98.776652" xlink:href="#m7b1fc44960" y="79.749208"/>
     <use style="fill:#92c5de;stroke:#92c5de;" x="100.336237" xlink:href="#m7b1fc44960" y="78.507379"/>
     <use style="fill:#92c5de;stroke:#92c5de;" x="101.895821" xlink:href="#m7b1fc44960" y="77.265549"/>
     <use style="fill:#92c5de;stroke:#92c5de;" x="103.455406" xlink:href="#m7b1fc44960" y="76.024573"/>
     <use style="fill:#92c5de;stroke:#92c5de;" x="105.01499" xlink:href="#m7b1fc44960" y="74.783597"/>
     <use style="fill:#92c5de;stroke:#92c5de;" x="106.574575" xlink:href="#m7b1fc44960" y="73.540915"/>
     <use style="fill:#92c5de;stroke:#92c5de;" x="108.134159" xlink:href="#m7b1fc44960" y="72.299938"/>
     <use style="fill:#92c5de;stroke:#92c5de;" x="109.693744" xlink:href="#m7b1fc44960" y="71.057256"/>
     <use style="fill:#92c5de;stroke:#92c5de;" x="111.253328" xlink:href="#m7b1fc44960" y="69.81628"/>
     <use style="fill:#92c5de;stroke:#92c5de;" x="112.812913" xlink:href="#m7b1fc44960" y="68.574451"/>
     <use style="fill:#92c5de;stroke:#92c5de;" x="114.372498" xlink:href="#m7b1fc44960" y="67.332621"/>
     <use style="fill:#92c5de;stroke:#92c5de;" x="115.932082" xlink:href="#m7b1fc44960" y="66.091645"/>
     <use style="fill:#92c5de;stroke:#92c5de;" x="117.491667" xlink:href="#m7b1fc44960" y="64.849816"/>
     <use style="fill:#92c5de;stroke:#92c5de;" x="119.051251" xlink:href="#m7b1fc44960" y="63.607987"/>
     <use style="fill:#92c5de;stroke:#92c5de;" x="120.610836" xlink:href="#m7b1fc44960" y="62.36701"/>
     <use style="fill:#92c5de;stroke:#92c5de;" x="122.17042" xlink:href="#m7b1fc44960" y="61.124328"/>
     <use style="fill:#92c5de;stroke:#92c5de;" x="123.730005" xlink:href="#m7b1fc44960" y="59.883352"/>
     <use style="fill:#92c5de;stroke:#92c5de;" x="125.289589" xlink:href="#m7b1fc44960" y="58.641523"/>
     <use style="fill:#92c5de;stroke:#92c5de;" x="126.849174" xlink:href="#m7b1fc44960" y="57.399693"/>
     <use style="fill:#92c5de;stroke:#92c5de;" x="128.408758" xlink:href="#m7b1fc44960" y="56.158717"/>
     <use style="fill:#92c5de;stroke:#92c5de;" x="129.968343" xlink:href="#m7b1fc44960" y="54.916888"/>
     <use style="fill:#92c5de;stroke:#92c5de;" x="131.527927" xlink:href="#m7b1fc44960" y="53.675059"/>
     <use style="fill:#92c5de;stroke:#92c5de;" x="133.087512" xlink:href="#m7b1fc44960" y="52.434082"/>
     <use style="fill:#92c5de;stroke:#92c5de;" x="134.647096" xlink:href="#m7b1fc44960" y="51.192253"/>
     <use style="fill:#92c5de;stroke:#92c5de;" x="136.206681" xlink:href="#m7b1fc44960" y="49.949571"/>
     <use style="fill:#92c5de;stroke:#92c5de;" x="137.766265" xlink:href="#m7b1fc44960" y="48.708595"/>
     <use style="fill:#92c5de;stroke:#92c5de;" x="139.32585" xlink:href="#m7b1fc44960" y="47.466766"/>
     <use style="fill:#92c5de;stroke:#92c5de;" x="140.885434" xlink:href="#m7b1fc44960" y="46.225789"/>
     <use style="fill:#92c5de;stroke:#92c5de;" x="142.445019" xlink:href="#m7b1fc44960" y="44.98396"/>
     <use style="fill:#92c5de;stroke:#92c5de;" x="144.004603" xlink:href="#m7b1fc44960" y="43.742131"/>
     <use style="fill:#92c5de;stroke:#92c5de;" x="145.564188" xlink:href="#m7b1fc44960" y="42.500302"/>
     <use style="fill:#92c5de;stroke:#92c5de;" x="147.123772" xlink:href="#m7b1fc44960" y="41.259325"/>
     <use style="fill:#92c5de;stroke:#92c5de;" x="148.683357" xlink:href="#m7b1fc44960" y="40.016643"/>
     <use style="fill:#92c5de;stroke:#92c5de;" x="150.242941" xlink:href="#m7b1fc44960" y="38.775667"/>
     <use style="fill:#92c5de;stroke:#92c5de;" x="151.802526" xlink:href="#m7b1fc44960" y="37.533838"/>
     <use style="fill:#92c5de;stroke:#92c5de;" x="153.36211" xlink:href="#m7b1fc44960" y="36.292008"/>
     <use style="fill:#92c5de;stroke:#92c5de;" x="154.921695" xlink:href="#m7b1fc44960" y="35.051032"/>
     <use style="fill:#92c5de;stroke:#92c5de;" x="156.481279" xlink:href="#m7b1fc44960" y="33.809203"/>
     <use style="fill:#92c5de;stroke:#92c5de;" x="158.040864" xlink:href="#m7b1fc44960" y="32.568227"/>
     <use style="fill:#92c5de;stroke:#92c5de;" x="159.600448" xlink:href="#m7b1fc44960" y="31.325544"/>
     <use style="fill:#92c5de;stroke:#92c5de;" x="161.160033" xlink:href="#m7b1fc44960" y="30.083715"/>
    </g>
   </g>
   <g id="line2d_11">
    <path clip-path="url(#paff4424b75)" d="M 53.548701 79.724474 
L 55.108286 79.724474 
L 56.66787 79.724474 
L 58.227455 79.724474 
L 59.787039 79.724474 
L 61.346624 79.724474 
L 62.906208 79.724474 
L 64.465793 79.724474 
L 66.025378 79.724474 
L 67.584962 79.724474 
L 69.144547 79.724474 
L 70.704131 79.724474 
L 72.263716 79.724474 
L 73.8233 79.724474 
L 75.382885 79.724474 
L 76.942469 79.724474 
L 78.502054 79.724474 
L 80.061638 79.724474 
L 81.621223 79.724474 
L 83.180807 79.724474 
L 84.740392 79.724474 
L 86.299976 79.724474 
L 87.859561 79.724474 
L 89.419145 79.724474 
L 90.97873 79.724474 
L 92.538314 79.724474 
L 94.097899 79.724474 
L 95.657483 79.724474 
L 97.217068 79.724474 
L 98.776652 79.724474 
L 100.336237 79.724474 
L 101.895821 79.724474 
L 103.455406 79.724474 
L 105.01499 79.724474 
L 106.574575 79.724474 
L 108.134159 79.724474 
L 109.693744 79.724474 
L 111.253328 79.724474 
L 112.812913 79.724474 
L 114.372498 79.724474 
L 115.932082 79.724474 
L 117.491667 79.724474 
L 119.051251 79.724474 
L 120.610836 79.724474 
L 122.17042 79.724474 
L 123.730005 79.724474 
L 125.289589 79.724474 
L 126.849174 79.724474 
L 128.408758 79.724474 
L 129.968343 79.724474 
L 131.527927 79.724474 
L 133.087512 79.724474 
L 134.647096 79.724474 
L 136.206681 79.724474 
L 137.766265 79.724474 
L 139.32585 79.724474 
L 140.885434 79.724474 
L 142.445019 79.724474 
L 144.004603 79.724474 
L 145.564188 79.724474 
L 147.123772 79.724474 
L 148.683357 79.724474 
L 150.242941 79.724474 
L 151.802526 79.724474 
L 153.36211 79.724474 
L 154.921695 79.724474 
L 156.481279 79.724474 
L 158.040864 79.724474 
L 159.600448 79.724474 
L 161.160033 79.724474 
L 162.719617 79.724474 
L 164.279202 79.724474 
L 165.838787 79.724474 
L 167.398371 79.724474 
L 168.957956 79.724474 
L 170.51754 79.724474 
L 172.077125 79.724474 
L 173.636709 79.724474 
L 175.196294 79.724474 
L 176.755878 79.724474 
L 178.315463 79.724474 
L 179.875047 79.724474 
L 181.434632 79.724474 
L 182.994216 79.724474 
L 184.553801 79.724474 
L 186.113385 79.724474 
L 187.67297 79.724474 
L 189.232554 79.724474 
L 190.792139 79.724474 
L 192.351723 79.724474 
L 193.911308 79.724474 
L 195.470892 79.724474 
L 197.030477 79.724474 
L 198.590061 79.724474 
L 200.149646 79.724474 
L 201.70923 79.724474 
L 203.268815 79.724474 
L 204.828399 79.724474 
L 206.387984 79.724474 
L 207.947568 79.724474 
L 209.507153 79.724474 
" style="fill:none;stroke:#333333;stroke-linecap:round;stroke-width:1.5;"/>
   </g>
   <g id="line2d_12">
    <path clip-path="url(#paff4424b75)" d="M 53.548701 115.756285 
L 55.108286 114.515308 
L 56.66787 113.272626 
L 58.227455 112.03165 
L 59.787039 110.789821 
L 61.346624 109.548844 
L 62.906208 108.306162 
L 64.465793 107.065186 
L 66.025378 105.823357 
L 67.584962 104.582381 
L 69.144547 103.340551 
L 70.704131 102.098722 
L 72.263716 100.856893 
L 73.8233 99.615064 
L 75.382885 98.374087 
L 76.942469 97.132258 
L 78.502054 95.890429 
L 80.061638 94.649453 
L 81.621223 93.40677 
L 83.180807 92.165794 
L 84.740392 90.923965 
L 86.299976 89.682136 
L 87.859561 88.440307 
L 89.419145 87.19933 
L 90.97873 85.957501 
L 92.538314 84.715672 
L 94.097899 83.474695 
L 95.657483 82.232866 
L 97.217068 80.991037 
L 98.776652 79.749208 
L 100.336237 78.507379 
L 101.895821 77.265549 
L 103.455406 76.024573 
L 105.01499 74.783597 
L 106.574575 73.540915 
L 108.134159 72.299938 
L 109.693744 71.057256 
L 111.253328 69.81628 
L 112.812913 68.574451 
L 114.372498 67.332621 
L 115.932082 66.091645 
L 117.491667 64.849816 
L 119.051251 63.607987 
L 120.610836 62.36701 
L 122.17042 61.124328 
L 123.730005 59.883352 
L 125.289589 58.641523 
L 126.849174 57.399693 
L 128.408758 56.158717 
L 129.968343 54.916888 
L 131.527927 53.675059 
L 133.087512 52.434082 
L 134.647096 51.192253 
L 136.206681 49.949571 
L 137.766265 48.708595 
L 139.32585 47.466766 
L 140.885434 46.225789 
L 142.445019 44.98396 
L 144.004603 43.742131 
L 145.564188 42.500302 
L 147.123772 41.259325 
L 148.683357 40.016643 
L 150.242941 38.775667 
L 151.802526 37.533838 
L 153.36211 36.292008 
L 154.921695 35.051032 
L 156.481279 33.809203 
L 158.040864 32.568227 
L 159.600448 31.325544 
L 161.160033 30.083715 
" style="fill:none;stroke:#92c5de;stroke-linecap:round;stroke-width:1.5;"/>
   </g>
   <g id="patch_3">
    <path d="M 45.425 120.04 
L 45.425 25.8 
" style="fill:none;stroke:#262626;stroke-linecap:square;stroke-linejoin:miter;stroke-width:0.8;"/>
   </g>
   <g id="patch_4">
    <path d="M 45.425 120.04 
L 217.35 120.04 
" style="fill:none;stroke:#262626;stroke-linecap:square;stroke-linejoin:miter;stroke-width:0.8;"/>
   </g>
   <g id="text_13">
    <!-- SM17 -->
    <defs>
     <path d="M 4.5 23 
L 13.421875 23.78125 
Q 14.0625 18.40625 16.375 14.96875 
Q 18.703125 11.53125 23.578125 9.40625 
Q 28.46875 7.28125 34.578125 7.28125 
Q 39.984375 7.28125 44.140625 8.890625 
Q 48.296875 10.5 50.3125 13.296875 
Q 52.34375 16.109375 52.34375 19.4375 
Q 52.34375 22.796875 50.390625 25.3125 
Q 48.4375 27.828125 43.953125 29.546875 
Q 41.0625 30.671875 31.203125 33.03125 
Q 21.34375 35.40625 17.390625 37.5 
Q 12.25 40.1875 9.734375 44.15625 
Q 7.234375 48.140625 7.234375 53.078125 
Q 7.234375 58.5 10.296875 63.203125 
Q 13.375 67.921875 19.28125 70.359375 
Q 25.203125 72.796875 32.421875 72.796875 
Q 40.375 72.796875 46.453125 70.234375 
Q 52.546875 67.671875 55.8125 62.6875 
Q 59.078125 57.71875 59.328125 51.421875 
L 50.25 50.734375 
Q 49.515625 57.515625 45.28125 60.984375 
Q 41.0625 64.453125 32.8125 64.453125 
Q 24.21875 64.453125 20.28125 61.296875 
Q 16.359375 58.15625 16.359375 53.71875 
Q 16.359375 49.859375 19.140625 47.359375 
Q 21.875 44.875 33.421875 42.265625 
Q 44.96875 39.65625 49.265625 37.703125 
Q 55.515625 34.8125 58.484375 30.390625 
Q 61.46875 25.984375 61.46875 20.21875 
Q 61.46875 14.5 58.203125 9.4375 
Q 54.9375 4.390625 48.796875 1.578125 
Q 42.671875 -1.21875 35.015625 -1.21875 
Q 25.296875 -1.21875 18.71875 1.609375 
Q 12.15625 4.4375 8.421875 10.125 
Q 4.6875 15.828125 4.5 23 
z
" id="ArialMT-53"/>
     <path d="M 7.421875 0 
L 7.421875 71.578125 
L 21.6875 71.578125 
L 38.625 20.90625 
Q 40.96875 13.8125 42.046875 10.296875 
Q 43.265625 14.203125 45.84375 21.78125 
L 62.984375 71.578125 
L 75.734375 71.578125 
L 75.734375 0 
L 66.609375 0 
L 66.609375 59.90625 
L 45.796875 0 
L 37.25 0 
L 16.546875 60.9375 
L 16.546875 0 
z
" id="ArialMT-4d"/>
     <path d="M 4.734375 62.203125 
L 4.734375 70.65625 
L 51.078125 70.65625 
L 51.078125 63.8125 
Q 44.234375 56.546875 37.515625 44.484375 
Q 30.8125 32.421875 27.15625 19.671875 
Q 24.515625 10.6875 23.78125 0 
L 14.75 0 
Q 14.890625 8.453125 18.0625 20.40625 
Q 21.234375 32.375 27.171875 43.484375 
Q 33.109375 54.59375 39.796875 62.203125 
z
" id="ArialMT-37"/>
    </defs>
    <g style="fill:#262626;" transform="translate(115.714375 19.8)scale(0.12 -0.12)">
     <use xlink:href="#ArialMT-53"/>
     <use x="66.699219" xlink:href="#ArialMT-4d"/>
     <use x="150" xlink:href="#ArialMT-31"/>
     <use x="205.615234" xlink:href="#ArialMT-37"/>
    </g>
   </g>
  </g>
 </g>
 <defs>
  <clipPath id="paff4424b75">
   <rect height="94.24" width="171.925" x="45.425" y="25.8"/>
  </clipPath>
 </defs>
</svg>
