<?xml version="1.0" encoding="utf-8" standalone="no"?>
<!DOCTYPE svg PUBLIC "-//W3C//DTD SVG 1.1//EN"
  "http://www.w3.org/Graphics/SVG/1.1/DTD/svg11.dtd">
<!-- Created with matplotlib (http://matplotlib.org/) -->
<svg height="159.84pt" version="1.1" viewBox="0 0 230.4 159.84" width="230.4pt" xmlns="http://www.w3.org/2000/svg" xmlns:xlink="http://www.w3.org/1999/xlink">
 <defs>
  <style type="text/css">
*{stroke-linecap:butt;stroke-linejoin:round;}
  </style>
 </defs>
 <g id="figure_1">
  <g id="patch_1">
   <path d="M 0 159.84 
L 230.4 159.84 
L 230.4 0 
L 0 0 
z
" style="fill:#ffffff;"/>
  </g>
  <g id="axes_1">
   <g id="patch_2">
    <path d="M 45.425 120.04 
L 217.35 120.04 
L 217.35 25.8 
L 45.425 25.8 
z
" style="fill:#ffffff;"/>
   </g>
   <g id="matplotlib.axis_1">
    <g id="xtick_1">
     <g id="line2d_1">
      <defs>
       <path d="M 0 0 
L 0 3.5 
" id="m4f746c22e1" style="stroke:#262626;stroke-width:0.8;"/>
      </defs>
      <g>
       <use style="fill:#262626;stroke:#262626;stroke-width:0.8;" x="53.502447" xlink:href="#m4f746c22e1" y="120.04"/>
      </g>
     </g>
     <g id="text_1">
      <!-- 2 -->
      <defs>
       <path d="M 50.34375 8.453125 
L 50.34375 0 
L 3.03125 0 
Q 2.9375 3.171875 4.046875 6.109375 
Q 5.859375 10.9375 9.828125 15.625 
Q 13.8125 20.3125 21.34375 26.46875 
Q 33.015625 36.03125 37.109375 41.625 
Q 41.21875 47.21875 41.21875 52.203125 
Q 41.21875 57.421875 37.46875 61 
Q 33.734375 64.59375 27.734375 64.59375 
Q 21.390625 64.59375 17.578125 60.78125 
Q 13.765625 56.984375 13.71875 50.25 
L 4.6875 51.171875 
Q 5.609375 61.28125 11.65625 66.578125 
Q 17.71875 71.875 27.9375 71.875 
Q 38.234375 71.875 44.234375 66.15625 
Q 50.25 60.453125 50.25 52 
Q 50.25 47.703125 48.484375 43.546875 
Q 46.734375 39.40625 42.65625 34.8125 
Q 38.578125 30.21875 29.109375 22.21875 
Q 21.1875 15.578125 18.9375 13.203125 
Q 16.703125 10.84375 15.234375 8.453125 
z
" id="ArialMT-32"/>
      </defs>
      <g style="fill:#262626;" transform="translate(50.721978 134.197812)scale(0.1 -0.1)">
       <use xlink:href="#ArialMT-32"/>
      </g>
     </g>
    </g>
    <g id="xtick_2">
     <g id="line2d_2">
      <g>
       <use style="fill:#262626;stroke:#262626;stroke-width:0.8;" x="84.647124" xlink:href="#m4f746c22e1" y="120.04"/>
      </g>
     </g>
     <g id="text_2">
      <!-- 4 -->
      <defs>
       <path d="M 32.328125 0 
L 32.328125 17.140625 
L 1.265625 17.140625 
L 1.265625 25.203125 
L 33.9375 71.578125 
L 41.109375 71.578125 
L 41.109375 25.203125 
L 50.78125 25.203125 
L 50.78125 17.140625 
L 41.109375 17.140625 
L 41.109375 0 
z
M 32.328125 25.203125 
L 32.328125 57.46875 
L 9.90625 25.203125 
z
" id="ArialMT-34"/>
      </defs>
      <g style="fill:#262626;" transform="translate(81.866656 134.197812)scale(0.1 -0.1)">
       <use xlink:href="#ArialMT-34"/>
      </g>
     </g>
    </g>
    <g id="xtick_3">
     <g id="line2d_3">
      <g>
       <use style="fill:#262626;stroke:#262626;stroke-width:0.8;" x="115.791802" xlink:href="#m4f746c22e1" y="120.04"/>
      </g>
     </g>
     <g id="text_3">
      <!-- 6 -->
      <defs>
       <path d="M 49.75 54.046875 
L 41.015625 53.375 
Q 39.84375 58.546875 37.703125 60.890625 
Q 34.125 64.65625 28.90625 64.65625 
Q 24.703125 64.65625 21.53125 62.3125 
Q 17.390625 59.28125 14.984375 53.46875 
Q 12.59375 47.65625 12.5 36.921875 
Q 15.671875 41.75 20.265625 44.09375 
Q 24.859375 46.4375 29.890625 46.4375 
Q 38.671875 46.4375 44.84375 39.96875 
Q 51.03125 33.5 51.03125 23.25 
Q 51.03125 16.5 48.125 10.71875 
Q 45.21875 4.9375 40.140625 1.859375 
Q 35.0625 -1.21875 28.609375 -1.21875 
Q 17.625 -1.21875 10.6875 6.859375 
Q 3.765625 14.9375 3.765625 33.5 
Q 3.765625 54.25 11.421875 63.671875 
Q 18.109375 71.875 29.4375 71.875 
Q 37.890625 71.875 43.28125 67.140625 
Q 48.6875 62.40625 49.75 54.046875 
z
M 13.875 23.1875 
Q 13.875 18.65625 15.796875 14.5 
Q 17.71875 10.359375 21.1875 8.171875 
Q 24.65625 6 28.46875 6 
Q 34.03125 6 38.03125 10.484375 
Q 42.046875 14.984375 42.046875 22.703125 
Q 42.046875 30.125 38.078125 34.390625 
Q 34.125 38.671875 28.125 38.671875 
Q 22.171875 38.671875 18.015625 34.390625 
Q 13.875 30.125 13.875 23.1875 
z
" id="ArialMT-36"/>
      </defs>
      <g style="fill:#262626;" transform="translate(113.011333 134.197812)scale(0.1 -0.1)">
       <use xlink:href="#ArialMT-36"/>
      </g>
     </g>
    </g>
    <g id="xtick_4">
     <g id="line2d_4">
      <g>
       <use style="fill:#262626;stroke:#262626;stroke-width:0.8;" x="146.93648" xlink:href="#m4f746c22e1" y="120.04"/>
      </g>
     </g>
     <g id="text_4">
      <!-- 8 -->
      <defs>
       <path d="M 17.671875 38.8125 
Q 12.203125 40.828125 9.5625 44.53125 
Q 6.9375 48.25 6.9375 53.421875 
Q 6.9375 61.234375 12.546875 66.546875 
Q 18.171875 71.875 27.484375 71.875 
Q 36.859375 71.875 42.578125 66.421875 
Q 48.296875 60.984375 48.296875 53.171875 
Q 48.296875 48.1875 45.671875 44.5 
Q 43.0625 40.828125 37.75 38.8125 
Q 44.34375 36.671875 47.78125 31.875 
Q 51.21875 27.09375 51.21875 20.453125 
Q 51.21875 11.28125 44.71875 5.03125 
Q 38.234375 -1.21875 27.640625 -1.21875 
Q 17.046875 -1.21875 10.546875 5.046875 
Q 4.046875 11.328125 4.046875 20.703125 
Q 4.046875 27.6875 7.59375 32.390625 
Q 11.140625 37.109375 17.671875 38.8125 
z
M 15.921875 53.71875 
Q 15.921875 48.640625 19.1875 45.40625 
Q 22.46875 42.1875 27.6875 42.1875 
Q 32.765625 42.1875 36.015625 45.375 
Q 39.265625 48.578125 39.265625 53.21875 
Q 39.265625 58.0625 35.90625 61.359375 
Q 32.5625 64.65625 27.59375 64.65625 
Q 22.5625 64.65625 19.234375 61.421875 
Q 15.921875 58.203125 15.921875 53.71875 
z
M 13.09375 20.65625 
Q 13.09375 16.890625 14.875 13.375 
Q 16.65625 9.859375 20.171875 7.921875 
Q 23.6875 6 27.734375 6 
Q 34.03125 6 38.125 10.046875 
Q 42.234375 14.109375 42.234375 20.359375 
Q 42.234375 26.703125 38.015625 30.859375 
Q 33.796875 35.015625 27.4375 35.015625 
Q 21.234375 35.015625 17.15625 30.90625 
Q 13.09375 26.8125 13.09375 20.65625 
z
" id="ArialMT-38"/>
      </defs>
      <g style="fill:#262626;" transform="translate(144.156011 134.197812)scale(0.1 -0.1)">
       <use xlink:href="#ArialMT-38"/>
      </g>
     </g>
    </g>
    <g id="xtick_5">
     <g id="line2d_5">
      <g>
       <use style="fill:#262626;stroke:#262626;stroke-width:0.8;" x="178.081157" xlink:href="#m4f746c22e1" y="120.04"/>
      </g>
     </g>
     <g id="text_5">
      <!-- 10 -->
      <defs>
       <path d="M 37.25 0 
L 28.46875 0 
L 28.46875 56 
Q 25.296875 52.984375 20.140625 49.953125 
Q 14.984375 46.921875 10.890625 45.40625 
L 10.890625 53.90625 
Q 18.265625 57.375 23.78125 62.296875 
Q 29.296875 67.234375 31.59375 71.875 
L 37.25 71.875 
z
" id="ArialMT-31"/>
       <path d="M 4.15625 35.296875 
Q 4.15625 48 6.765625 55.734375 
Q 9.375 63.484375 14.515625 67.671875 
Q 19.671875 71.875 27.484375 71.875 
Q 33.25 71.875 37.59375 69.546875 
Q 41.9375 67.234375 44.765625 62.859375 
Q 47.609375 58.5 49.21875 52.21875 
Q 50.828125 45.953125 50.828125 35.296875 
Q 50.828125 22.703125 48.234375 14.96875 
Q 45.65625 7.234375 40.5 3 
Q 35.359375 -1.21875 27.484375 -1.21875 
Q 17.140625 -1.21875 11.234375 6.203125 
Q 4.15625 15.140625 4.15625 35.296875 
z
M 13.1875 35.296875 
Q 13.1875 17.671875 17.3125 11.828125 
Q 21.4375 6 27.484375 6 
Q 33.546875 6 37.671875 11.859375 
Q 41.796875 17.71875 41.796875 35.296875 
Q 41.796875 52.984375 37.671875 58.78125 
Q 33.546875 64.59375 27.390625 64.59375 
Q 21.34375 64.59375 17.71875 59.46875 
Q 13.1875 52.9375 13.1875 35.296875 
z
" id="ArialMT-30"/>
      </defs>
      <g style="fill:#262626;" transform="translate(172.52022 134.197812)scale(0.1 -0.1)">
       <use xlink:href="#ArialMT-31"/>
       <use x="55.615234" xlink:href="#ArialMT-30"/>
      </g>
     </g>
    </g>
    <g id="xtick_6">
     <g id="line2d_6">
      <g>
       <use style="fill:#262626;stroke:#262626;stroke-width:0.8;" x="209.225835" xlink:href="#m4f746c22e1" y="120.04"/>
      </g>
     </g>
     <g id="text_6">
      <!-- 12 -->
      <g style="fill:#262626;" transform="translate(203.664897 134.197812)scale(0.1 -0.1)">
       <use xlink:href="#ArialMT-31"/>
       <use x="55.615234" xlink:href="#ArialMT-32"/>
      </g>
     </g>
    </g>
    <g id="text_7">
     <!-- pH -->
     <defs>
      <path d="M 6.59375 -19.875 
L 6.59375 51.859375 
L 14.59375 51.859375 
L 14.59375 45.125 
Q 17.4375 49.078125 21 51.046875 
Q 24.5625 53.03125 29.640625 53.03125 
Q 36.28125 53.03125 41.359375 49.609375 
Q 46.4375 46.1875 49.015625 39.953125 
Q 51.609375 33.734375 51.609375 26.3125 
Q 51.609375 18.359375 48.75 11.984375 
Q 45.90625 5.609375 40.453125 2.21875 
Q 35.015625 -1.171875 29 -1.171875 
Q 24.609375 -1.171875 21.109375 0.6875 
Q 17.625 2.546875 15.375 5.375 
L 15.375 -19.875 
z
M 14.546875 25.640625 
Q 14.546875 15.625 18.59375 10.84375 
Q 22.65625 6.0625 28.421875 6.0625 
Q 34.28125 6.0625 38.453125 11.015625 
Q 42.625 15.96875 42.625 26.375 
Q 42.625 36.28125 38.546875 41.203125 
Q 34.46875 46.140625 28.8125 46.140625 
Q 23.1875 46.140625 18.859375 40.890625 
Q 14.546875 35.640625 14.546875 25.640625 
z
" id="ArialMT-70"/>
      <path d="M 8.015625 0 
L 8.015625 71.578125 
L 17.484375 71.578125 
L 17.484375 42.1875 
L 54.6875 42.1875 
L 54.6875 71.578125 
L 64.15625 71.578125 
L 64.15625 0 
L 54.6875 0 
L 54.6875 33.734375 
L 17.484375 33.734375 
L 17.484375 0 
z
" id="ArialMT-48"/>
     </defs>
     <g style="fill:#262626;" transform="translate(124.996094 147.343125)scale(0.1 -0.1)">
      <use xlink:href="#ArialMT-70"/>
      <use x="55.615234" xlink:href="#ArialMT-48"/>
     </g>
    </g>
   </g>
   <g id="matplotlib.axis_2">
    <g id="ytick_1">
     <g id="line2d_7">
      <defs>
       <path d="M 0 0 
L -3.5 0 
" id="m35a3b9f7e4" style="stroke:#262626;stroke-width:0.8;"/>
      </defs>
      <g>
       <use style="fill:#262626;stroke:#262626;stroke-width:0.8;" x="45.425" xlink:href="#m35a3b9f7e4" y="105.702171"/>
      </g>
     </g>
     <g id="text_8">
      <!-- −5 -->
      <defs>
       <path d="M 52.828125 31.203125 
L 5.5625 31.203125 
L 5.5625 39.40625 
L 52.828125 39.40625 
z
" id="ArialMT-2212"/>
       <path d="M 4.15625 18.75 
L 13.375 19.53125 
Q 14.40625 12.796875 18.140625 9.390625 
Q 21.875 6 27.15625 6 
Q 33.5 6 37.890625 10.78125 
Q 42.28125 15.578125 42.28125 23.484375 
Q 42.28125 31 38.0625 35.34375 
Q 33.84375 39.703125 27 39.703125 
Q 22.75 39.703125 19.328125 37.765625 
Q 15.921875 35.84375 13.96875 32.765625 
L 5.71875 33.84375 
L 12.640625 70.609375 
L 48.25 70.609375 
L 48.25 62.203125 
L 19.671875 62.203125 
L 15.828125 42.96875 
Q 22.265625 47.46875 29.34375 47.46875 
Q 38.71875 47.46875 45.15625 40.96875 
Q 51.609375 34.46875 51.609375 24.265625 
Q 51.609375 14.546875 45.953125 7.46875 
Q 39.0625 -1.21875 27.15625 -1.21875 
Q 17.390625 -1.21875 11.203125 4.25 
Q 5.03125 9.71875 4.15625 18.75 
z
" id="ArialMT-35"/>
      </defs>
      <g style="fill:#262626;" transform="translate(27.023437 109.281078)scale(0.1 -0.1)">
       <use xlink:href="#ArialMT-2212"/>
       <use x="58.398438" xlink:href="#ArialMT-35"/>
      </g>
     </g>
    </g>
    <g id="ytick_2">
     <g id="line2d_8">
      <g>
       <use style="fill:#262626;stroke:#262626;stroke-width:0.8;" x="45.425" xlink:href="#m35a3b9f7e4" y="80.549598"/>
      </g>
     </g>
     <g id="text_9">
      <!-- 0 -->
      <g style="fill:#262626;" transform="translate(32.864062 84.128504)scale(0.1 -0.1)">
       <use xlink:href="#ArialMT-30"/>
      </g>
     </g>
    </g>
    <g id="ytick_3">
     <g id="line2d_9">
      <g>
       <use style="fill:#262626;stroke:#262626;stroke-width:0.8;" x="45.425" xlink:href="#m35a3b9f7e4" y="55.397025"/>
      </g>
     </g>
     <g id="text_10">
      <!-- 5 -->
      <g style="fill:#262626;" transform="translate(32.864062 58.975931)scale(0.1 -0.1)">
       <use xlink:href="#ArialMT-35"/>
      </g>
     </g>
    </g>
    <g id="ytick_4">
     <g id="line2d_10">
      <g>
       <use style="fill:#262626;stroke:#262626;stroke-width:0.8;" x="45.425" xlink:href="#m35a3b9f7e4" y="30.244451"/>
      </g>
     </g>
     <g id="text_11">
      <!-- 10 -->
      <g style="fill:#262626;" transform="translate(27.303125 33.823357)scale(0.1 -0.1)">
       <use xlink:href="#ArialMT-31"/>
       <use x="55.615234" xlink:href="#ArialMT-30"/>
      </g>
     </g>
    </g>
    <g id="text_12">
     <!-- Free Energy($k_BT$) -->
     <defs>
      <path d="M 8.203125 0 
L 8.203125 71.578125 
L 56.5 71.578125 
L 56.5 63.140625 
L 17.671875 63.140625 
L 17.671875 40.96875 
L 51.265625 40.96875 
L 51.265625 32.515625 
L 17.671875 32.515625 
L 17.671875 0 
z
" id="ArialMT-46"/>
      <path d="M 6.5 0 
L 6.5 51.859375 
L 14.40625 51.859375 
L 14.40625 44 
Q 17.4375 49.515625 20 51.265625 
Q 22.5625 53.03125 25.640625 53.03125 
Q 30.078125 53.03125 34.671875 50.203125 
L 31.640625 42.046875 
Q 28.421875 43.953125 25.203125 43.953125 
Q 22.3125 43.953125 20.015625 42.21875 
Q 17.71875 40.484375 16.75 37.40625 
Q 15.28125 32.71875 15.28125 27.15625 
L 15.28125 0 
z
" id="ArialMT-72"/>
      <path d="M 42.09375 16.703125 
L 51.171875 15.578125 
Q 49.03125 7.625 43.21875 3.21875 
Q 37.40625 -1.171875 28.375 -1.171875 
Q 17 -1.171875 10.328125 5.828125 
Q 3.65625 12.84375 3.65625 25.484375 
Q 3.65625 38.578125 10.390625 45.796875 
Q 17.140625 53.03125 27.875 53.03125 
Q 38.28125 53.03125 44.875 45.953125 
Q 51.46875 38.875 51.46875 26.03125 
Q 51.46875 25.25 51.421875 23.6875 
L 12.75 23.6875 
Q 13.234375 15.140625 17.578125 10.59375 
Q 21.921875 6.0625 28.421875 6.0625 
Q 33.25 6.0625 36.671875 8.59375 
Q 40.09375 11.140625 42.09375 16.703125 
z
M 13.234375 30.90625 
L 42.1875 30.90625 
Q 41.609375 37.453125 38.875 40.71875 
Q 34.671875 45.796875 27.984375 45.796875 
Q 21.921875 45.796875 17.796875 41.75 
Q 13.671875 37.703125 13.234375 30.90625 
z
" id="ArialMT-65"/>
      <path id="ArialMT-20"/>
      <path d="M 7.90625 0 
L 7.90625 71.578125 
L 59.671875 71.578125 
L 59.671875 63.140625 
L 17.390625 63.140625 
L 17.390625 41.21875 
L 56.984375 41.21875 
L 56.984375 32.8125 
L 17.390625 32.8125 
L 17.390625 8.453125 
L 61.328125 8.453125 
L 61.328125 0 
z
" id="ArialMT-45"/>
      <path d="M 6.59375 0 
L 6.59375 51.859375 
L 14.5 51.859375 
L 14.5 44.484375 
Q 20.21875 53.03125 31 53.03125 
Q 35.6875 53.03125 39.625 51.34375 
Q 43.5625 49.65625 45.515625 46.921875 
Q 47.46875 44.1875 48.25 40.4375 
Q 48.734375 37.984375 48.734375 31.890625 
L 48.734375 0 
L 39.9375 0 
L 39.9375 31.546875 
Q 39.9375 36.921875 38.90625 39.578125 
Q 37.890625 42.234375 35.28125 43.8125 
Q 32.671875 45.40625 29.15625 45.40625 
Q 23.53125 45.40625 19.453125 41.84375 
Q 15.375 38.28125 15.375 28.328125 
L 15.375 0 
z
" id="ArialMT-6e"/>
      <path d="M 4.984375 -4.296875 
L 13.53125 -5.5625 
Q 14.0625 -9.515625 16.5 -11.328125 
Q 19.78125 -13.765625 25.4375 -13.765625 
Q 31.546875 -13.765625 34.859375 -11.328125 
Q 38.1875 -8.890625 39.359375 -4.5 
Q 40.046875 -1.8125 39.984375 6.78125 
Q 34.234375 0 25.640625 0 
Q 14.9375 0 9.078125 7.71875 
Q 3.21875 15.4375 3.21875 26.21875 
Q 3.21875 33.640625 5.90625 39.90625 
Q 8.59375 46.1875 13.6875 49.609375 
Q 18.796875 53.03125 25.6875 53.03125 
Q 34.859375 53.03125 40.828125 45.609375 
L 40.828125 51.859375 
L 48.921875 51.859375 
L 48.921875 7.03125 
Q 48.921875 -5.078125 46.453125 -10.125 
Q 44 -15.1875 38.640625 -18.109375 
Q 33.296875 -21.046875 25.484375 -21.046875 
Q 16.21875 -21.046875 10.5 -16.875 
Q 4.78125 -12.703125 4.984375 -4.296875 
z
M 12.25 26.859375 
Q 12.25 16.65625 16.296875 11.96875 
Q 20.359375 7.28125 26.46875 7.28125 
Q 32.515625 7.28125 36.609375 11.9375 
Q 40.71875 16.609375 40.71875 26.5625 
Q 40.71875 36.078125 36.5 40.90625 
Q 32.28125 45.75 26.3125 45.75 
Q 20.453125 45.75 16.34375 40.984375 
Q 12.25 36.234375 12.25 26.859375 
z
" id="ArialMT-67"/>
      <path d="M 6.203125 -19.96875 
L 5.21875 -11.71875 
Q 8.109375 -12.5 10.25 -12.5 
Q 13.1875 -12.5 14.9375 -11.515625 
Q 16.703125 -10.546875 17.828125 -8.796875 
Q 18.65625 -7.46875 20.515625 -2.25 
Q 20.75 -1.515625 21.296875 -0.09375 
L 1.609375 51.859375 
L 11.078125 51.859375 
L 21.875 21.828125 
Q 23.96875 16.109375 25.640625 9.8125 
Q 27.15625 15.875 29.25 21.625 
L 40.328125 51.859375 
L 49.125 51.859375 
L 29.390625 -0.875 
Q 26.21875 -9.421875 24.46875 -12.640625 
Q 22.125 -17 19.09375 -19.015625 
Q 16.0625 -21.046875 11.859375 -21.046875 
Q 9.328125 -21.046875 6.203125 -19.96875 
z
" id="ArialMT-79"/>
      <path d="M 23.390625 -21.046875 
Q 16.109375 -11.859375 11.078125 0.4375 
Q 6.0625 12.75 6.0625 25.921875 
Q 6.0625 37.546875 9.8125 48.1875 
Q 14.203125 60.546875 23.390625 72.796875 
L 29.6875 72.796875 
Q 23.78125 62.640625 21.875 58.296875 
Q 18.890625 51.5625 17.1875 44.234375 
Q 15.09375 35.109375 15.09375 25.875 
Q 15.09375 2.390625 29.6875 -21.046875 
z
" id="ArialMT-28"/>
      <path d="M 18.3125 75.984375 
L 27.296875 75.984375 
L 18.703125 31.6875 
L 49.515625 54.6875 
L 61.1875 54.6875 
L 26.8125 28.515625 
L 51.90625 0 
L 41.015625 0 
L 17.671875 26.703125 
L 12.5 0 
L 3.515625 0 
z
" id="DejaVuSans-Oblique-6b"/>
      <path d="M 16.890625 72.90625 
L 42.09375 72.90625 
Q 52.34375 72.90625 57.421875 69.09375 
Q 62.5 65.28125 62.5 57.625 
Q 62.5 50.59375 58.125 45.484375 
Q 53.765625 40.375 46.6875 39.3125 
Q 52.734375 37.9375 55.765625 34.078125 
Q 58.796875 30.21875 58.796875 23.78125 
Q 58.796875 12.796875 50.65625 6.390625 
Q 42.53125 0 28.421875 0 
L 2.6875 0 
z
M 19.28125 34.8125 
L 14.109375 8.109375 
L 29.984375 8.109375 
Q 38.921875 8.109375 43.75 12.203125 
Q 48.578125 16.3125 48.578125 23.78125 
Q 48.578125 29.546875 45.375 32.171875 
Q 42.1875 34.8125 35.109375 34.8125 
z
M 25.09375 64.796875 
L 20.796875 42.828125 
L 35.5 42.828125 
Q 43.359375 42.828125 47.78125 46.234375 
Q 52.203125 49.65625 52.203125 55.71875 
Q 52.203125 60.453125 49.21875 62.625 
Q 46.234375 64.796875 39.703125 64.796875 
z
" id="DejaVuSans-Oblique-42"/>
      <path d="M 5.90625 72.90625 
L 67.578125 72.90625 
L 66.015625 64.59375 
L 39.984375 64.59375 
L 27.484375 0 
L 17.578125 0 
L 30.078125 64.59375 
L 4.296875 64.59375 
z
" id="DejaVuSans-Oblique-54"/>
      <path d="M 12.359375 -21.046875 
L 6.0625 -21.046875 
Q 20.65625 2.390625 20.65625 25.875 
Q 20.65625 35.0625 18.5625 44.09375 
Q 16.890625 51.421875 13.921875 58.15625 
Q 12.015625 62.546875 6.0625 72.796875 
L 12.359375 72.796875 
Q 21.53125 60.546875 25.921875 48.1875 
Q 29.6875 37.546875 29.6875 25.921875 
Q 29.6875 12.75 24.625 0.4375 
Q 19.578125 -11.859375 12.359375 -21.046875 
z
" id="ArialMT-29"/>
     </defs>
     <g style="fill:#262626;" transform="translate(20.823437 112.27)rotate(-90)scale(0.1 -0.1)">
      <use transform="translate(0 0.015625)" xlink:href="#ArialMT-46"/>
      <use transform="translate(61.083984 0.015625)" xlink:href="#ArialMT-72"/>
      <use transform="translate(94.384766 0.015625)" xlink:href="#ArialMT-65"/>
      <use transform="translate(150 0.015625)" xlink:href="#ArialMT-65"/>
      <use transform="translate(205.615234 0.015625)" xlink:href="#ArialMT-20"/>
      <use transform="translate(233.398438 0.015625)" xlink:href="#ArialMT-45"/>
      <use transform="translate(300.097656 0.015625)" xlink:href="#ArialMT-6e"/>
      <use transform="translate(355.712891 0.015625)" xlink:href="#ArialMT-65"/>
      <use transform="translate(411.328125 0.015625)" xlink:href="#ArialMT-72"/>
      <use transform="translate(444.628906 0.015625)" xlink:href="#ArialMT-67"/>
      <use transform="translate(500.244141 0.015625)" xlink:href="#ArialMT-79"/>
      <use transform="translate(550.244141 0.015625)" xlink:href="#ArialMT-28"/>
      <use transform="translate(583.544922 0.015625)" xlink:href="#DejaVuSans-Oblique-6b"/>
      <use transform="translate(641.455078 -16.390625)scale(0.7)" xlink:href="#DejaVuSans-Oblique-42"/>
      <use transform="translate(692.211914 0.015625)" xlink:href="#DejaVuSans-Oblique-54"/>
      <use transform="translate(753.295898 0.015625)" xlink:href="#ArialMT-29"/>
     </g>
    </g>
   </g>
   <g id="PathCollection_1">
    <defs>
     <path d="M 0 0.5 
C 0.132602 0.5 0.25979 0.447317 0.353553 0.353553 
C 0.447317 0.25979 0.5 0.132602 0.5 0 
C 0.5 -0.132602 0.447317 -0.25979 0.353553 -0.353553 
C 0.25979 -0.447317 0.132602 -0.5 0 -0.5 
C -0.132602 -0.5 -0.25979 -0.447317 -0.353553 -0.353553 
C -0.447317 -0.25979 -0.5 -0.132602 -0.5 0 
C -0.5 0.132602 -0.447317 0.25979 -0.353553 0.353553 
C -0.25979 0.447317 -0.132602 0.5 0 0.5 
z
" id="m0e9535359d" style="stroke:#333333;"/>
    </defs>
    <g clip-path="url(#pfe8e1afcc8)">
     <use style="fill:#333333;stroke:#333333;" x="53.502447" xlink:href="#m0e9535359d" y="105.256216"/>
     <use style="fill:#333333;stroke:#333333;" x="55.059681" xlink:href="#m0e9535359d" y="105.257065"/>
     <use style="fill:#333333;stroke:#333333;" x="56.616914" xlink:href="#m0e9535359d" y="105.257065"/>
     <use style="fill:#333333;stroke:#333333;" x="58.174148" xlink:href="#m0e9535359d" y="105.257065"/>
     <use style="fill:#333333;stroke:#333333;" x="59.731382" xlink:href="#m0e9535359d" y="105.257065"/>
     <use style="fill:#333333;stroke:#333333;" x="61.288616" xlink:href="#m0e9535359d" y="105.257065"/>
     <use style="fill:#333333;stroke:#333333;" x="62.84585" xlink:href="#m0e9535359d" y="105.257065"/>
     <use style="fill:#333333;stroke:#333333;" x="64.403084" xlink:href="#m0e9535359d" y="105.257065"/>
     <use style="fill:#333333;stroke:#333333;" x="65.960318" xlink:href="#m0e9535359d" y="105.257065"/>
     <use style="fill:#333333;stroke:#333333;" x="67.517552" xlink:href="#m0e9535359d" y="105.256216"/>
     <use style="fill:#333333;stroke:#333333;" x="69.074786" xlink:href="#m0e9535359d" y="105.256216"/>
     <use style="fill:#333333;stroke:#333333;" x="70.632019" xlink:href="#m0e9535359d" y="76.612535"/>
     <use style="fill:#333333;stroke:#333333;" x="72.189253" xlink:href="#m0e9535359d" y="76.611686"/>
     <use style="fill:#333333;stroke:#333333;" x="73.746487" xlink:href="#m0e9535359d" y="76.611686"/>
     <use style="fill:#333333;stroke:#333333;" x="75.303721" xlink:href="#m0e9535359d" y="76.611686"/>
     <use style="fill:#333333;stroke:#333333;" x="76.860955" xlink:href="#m0e9535359d" y="76.611686"/>
     <use style="fill:#333333;stroke:#333333;" x="78.418189" xlink:href="#m0e9535359d" y="76.612535"/>
     <use style="fill:#333333;stroke:#333333;" x="79.975423" xlink:href="#m0e9535359d" y="76.612535"/>
     <use style="fill:#333333;stroke:#333333;" x="81.532657" xlink:href="#m0e9535359d" y="76.612535"/>
     <use style="fill:#333333;stroke:#333333;" x="83.08989" xlink:href="#m0e9535359d" y="76.611686"/>
     <use style="fill:#333333;stroke:#333333;" x="84.647124" xlink:href="#m0e9535359d" y="76.612535"/>
     <use style="fill:#333333;stroke:#333333;" x="86.204358" xlink:href="#m0e9535359d" y="76.611686"/>
     <use style="fill:#333333;stroke:#333333;" x="87.761592" xlink:href="#m0e9535359d" y="76.611686"/>
     <use style="fill:#333333;stroke:#333333;" x="89.318826" xlink:href="#m0e9535359d" y="47.967156"/>
     <use style="fill:#333333;stroke:#333333;" x="90.87606" xlink:href="#m0e9535359d" y="47.967156"/>
     <use style="fill:#333333;stroke:#333333;" x="92.433294" xlink:href="#m0e9535359d" y="47.967156"/>
     <use style="fill:#333333;stroke:#333333;" x="93.990528" xlink:href="#m0e9535359d" y="47.967156"/>
     <use style="fill:#333333;stroke:#333333;" x="95.547762" xlink:href="#m0e9535359d" y="47.967156"/>
     <use style="fill:#333333;stroke:#333333;" x="97.104995" xlink:href="#m0e9535359d" y="47.967156"/>
     <use style="fill:#333333;stroke:#333333;" x="98.662229" xlink:href="#m0e9535359d" y="47.967156"/>
     <use style="fill:#333333;stroke:#333333;" x="100.219463" xlink:href="#m0e9535359d" y="47.967156"/>
     <use style="fill:#333333;stroke:#333333;" x="101.776697" xlink:href="#m0e9535359d" y="47.967156"/>
     <use style="fill:#333333;stroke:#333333;" x="103.333931" xlink:href="#m0e9535359d" y="47.967156"/>
     <use style="fill:#333333;stroke:#333333;" x="104.891165" xlink:href="#m0e9535359d" y="47.968005"/>
     <use style="fill:#333333;stroke:#333333;" x="106.448399" xlink:href="#m0e9535359d" y="47.967156"/>
     <use style="fill:#333333;stroke:#333333;" x="108.005633" xlink:href="#m0e9535359d" y="47.967156"/>
     <use style="fill:#333333;stroke:#333333;" x="109.562866" xlink:href="#m0e9535359d" y="105.348763"/>
     <use style="fill:#333333;stroke:#333333;" x="111.1201" xlink:href="#m0e9535359d" y="47.967156"/>
     <use style="fill:#333333;stroke:#333333;" x="112.677334" xlink:href="#m0e9535359d" y="47.968005"/>
     <use style="fill:#333333;stroke:#333333;" x="114.234568" xlink:href="#m0e9535359d" y="47.967156"/>
     <use style="fill:#333333;stroke:#333333;" x="115.791802" xlink:href="#m0e9535359d" y="47.968005"/>
     <use style="fill:#333333;stroke:#333333;" x="117.349036" xlink:href="#m0e9535359d" y="47.967156"/>
     <use style="fill:#333333;stroke:#333333;" x="118.90627" xlink:href="#m0e9535359d" y="47.967156"/>
     <use style="fill:#333333;stroke:#333333;" x="120.463504" xlink:href="#m0e9535359d" y="47.967156"/>
     <use style="fill:#333333;stroke:#333333;" x="122.020738" xlink:href="#m0e9535359d" y="47.967156"/>
     <use style="fill:#333333;stroke:#333333;" x="123.577971" xlink:href="#m0e9535359d" y="47.968005"/>
     <use style="fill:#333333;stroke:#333333;" x="125.135205" xlink:href="#m0e9535359d" y="47.967156"/>
     <use style="fill:#333333;stroke:#333333;" x="126.692439" xlink:href="#m0e9535359d" y="47.967156"/>
     <use style="fill:#333333;stroke:#333333;" x="128.249673" xlink:href="#m0e9535359d" y="47.967156"/>
     <use style="fill:#333333;stroke:#333333;" x="129.806907" xlink:href="#m0e9535359d" y="47.968005"/>
     <use style="fill:#333333;stroke:#333333;" x="131.364141" xlink:href="#m0e9535359d" y="47.967156"/>
     <use style="fill:#333333;stroke:#333333;" x="132.921375" xlink:href="#m0e9535359d" y="47.967156"/>
     <use style="fill:#333333;stroke:#333333;" x="134.478609" xlink:href="#m0e9535359d" y="47.967156"/>
     <use style="fill:#333333;stroke:#333333;" x="136.035842" xlink:href="#m0e9535359d" y="47.967156"/>
     <use style="fill:#333333;stroke:#333333;" x="137.593076" xlink:href="#m0e9535359d" y="47.968005"/>
     <use style="fill:#333333;stroke:#333333;" x="139.15031" xlink:href="#m0e9535359d" y="47.967156"/>
     <use style="fill:#333333;stroke:#333333;" x="140.707544" xlink:href="#m0e9535359d" y="47.968005"/>
     <use style="fill:#333333;stroke:#333333;" x="142.264778" xlink:href="#m0e9535359d" y="47.967156"/>
     <use style="fill:#333333;stroke:#333333;" x="143.822012" xlink:href="#m0e9535359d" y="47.967156"/>
     <use style="fill:#333333;stroke:#333333;" x="145.379246" xlink:href="#m0e9535359d" y="47.967156"/>
     <use style="fill:#333333;stroke:#333333;" x="146.93648" xlink:href="#m0e9535359d" y="47.967156"/>
     <use style="fill:#333333;stroke:#333333;" x="148.493714" xlink:href="#m0e9535359d" y="47.967156"/>
     <use style="fill:#333333;stroke:#333333;" x="150.050947" xlink:href="#m0e9535359d" y="47.968005"/>
     <use style="fill:#333333;stroke:#333333;" x="151.608181" xlink:href="#m0e9535359d" y="47.967156"/>
     <use style="fill:#333333;stroke:#333333;" x="153.165415" xlink:href="#m0e9535359d" y="47.967156"/>
     <use style="fill:#333333;stroke:#333333;" x="154.722649" xlink:href="#m0e9535359d" y="47.968005"/>
     <use style="fill:#333333;stroke:#333333;" x="156.279883" xlink:href="#m0e9535359d" y="47.968005"/>
     <use style="fill:#333333;stroke:#333333;" x="157.837117" xlink:href="#m0e9535359d" y="47.968005"/>
     <use style="fill:#333333;stroke:#333333;" x="159.394351" xlink:href="#m0e9535359d" y="47.967156"/>
     <use style="fill:#333333;stroke:#333333;" x="160.951585" xlink:href="#m0e9535359d" y="47.967156"/>
     <use style="fill:#333333;stroke:#333333;" x="162.508818" xlink:href="#m0e9535359d" y="47.967156"/>
     <use style="fill:#333333;stroke:#333333;" x="164.066052" xlink:href="#m0e9535359d" y="47.967156"/>
     <use style="fill:#333333;stroke:#333333;" x="165.623286" xlink:href="#m0e9535359d" y="47.967156"/>
     <use style="fill:#333333;stroke:#333333;" x="167.18052" xlink:href="#m0e9535359d" y="47.967156"/>
     <use style="fill:#333333;stroke:#333333;" x="168.737754" xlink:href="#m0e9535359d" y="47.967156"/>
     <use style="fill:#333333;stroke:#333333;" x="170.294988" xlink:href="#m0e9535359d" y="47.968005"/>
     <use style="fill:#333333;stroke:#333333;" x="171.852222" xlink:href="#m0e9535359d" y="47.967156"/>
     <use style="fill:#333333;stroke:#333333;" x="173.409456" xlink:href="#m0e9535359d" y="47.967156"/>
     <use style="fill:#333333;stroke:#333333;" x="174.96669" xlink:href="#m0e9535359d" y="47.968005"/>
     <use style="fill:#333333;stroke:#333333;" x="176.523923" xlink:href="#m0e9535359d" y="47.968005"/>
     <use style="fill:#333333;stroke:#333333;" x="178.081157" xlink:href="#m0e9535359d" y="47.967156"/>
     <use style="fill:#333333;stroke:#333333;" x="179.638391" xlink:href="#m0e9535359d" y="47.967156"/>
     <use style="fill:#333333;stroke:#333333;" x="181.195625" xlink:href="#m0e9535359d" y="47.967156"/>
     <use style="fill:#333333;stroke:#333333;" x="182.752859" xlink:href="#m0e9535359d" y="47.967156"/>
     <use style="fill:#333333;stroke:#333333;" x="184.310093" xlink:href="#m0e9535359d" y="47.967156"/>
     <use style="fill:#333333;stroke:#333333;" x="185.867327" xlink:href="#m0e9535359d" y="47.967156"/>
    </g>
   </g>
   <g id="PathCollection_2">
    <defs>
     <path d="M 0 0.5 
C 0.132602 0.5 0.25979 0.447317 0.353553 0.353553 
C 0.447317 0.25979 0.5 0.132602 0.5 0 
C 0.5 -0.132602 0.447317 -0.25979 0.353553 -0.353553 
C 0.25979 -0.447317 0.132602 -0.5 0 -0.5 
C -0.132602 -0.5 -0.25979 -0.447317 -0.353553 -0.353553 
C -0.447317 -0.25979 -0.5 -0.132602 -0.5 0 
C -0.5 0.132602 -0.447317 0.25979 -0.353553 0.353553 
C -0.25979 0.447317 -0.132602 0.5 0 0.5 
z
" id="mc58881a799" style="stroke:#92c5de;"/>
    </defs>
    <g clip-path="url(#pfe8e1afcc8)">
     <use style="fill:#92c5de;stroke:#92c5de;" x="53.502447" xlink:href="#mc58881a799" y="81.006389"/>
     <use style="fill:#92c5de;stroke:#92c5de;" x="55.059681" xlink:href="#mc58881a799" y="79.771016"/>
     <use style="fill:#92c5de;stroke:#92c5de;" x="56.616914" xlink:href="#mc58881a799" y="78.534793"/>
     <use style="fill:#92c5de;stroke:#92c5de;" x="58.174148" xlink:href="#mc58881a799" y="77.29942"/>
     <use style="fill:#92c5de;stroke:#92c5de;" x="59.731382" xlink:href="#mc58881a799" y="76.063197"/>
     <use style="fill:#92c5de;stroke:#92c5de;" x="61.288616" xlink:href="#mc58881a799" y="74.826975"/>
     <use style="fill:#92c5de;stroke:#92c5de;" x="62.84585" xlink:href="#mc58881a799" y="73.590753"/>
     <use style="fill:#92c5de;stroke:#92c5de;" x="64.403084" xlink:href="#mc58881a799" y="72.355379"/>
     <use style="fill:#92c5de;stroke:#92c5de;" x="65.960318" xlink:href="#mc58881a799" y="71.119157"/>
     <use style="fill:#92c5de;stroke:#92c5de;" x="67.517552" xlink:href="#mc58881a799" y="69.882085"/>
     <use style="fill:#92c5de;stroke:#92c5de;" x="69.074786" xlink:href="#mc58881a799" y="68.646712"/>
     <use style="fill:#92c5de;stroke:#92c5de;" x="70.632019" xlink:href="#mc58881a799" y="53.088649"/>
     <use style="fill:#92c5de;stroke:#92c5de;" x="72.189253" xlink:href="#mc58881a799" y="51.852427"/>
     <use style="fill:#92c5de;stroke:#92c5de;" x="73.746487" xlink:href="#mc58881a799" y="50.616204"/>
     <use style="fill:#92c5de;stroke:#92c5de;" x="75.303721" xlink:href="#mc58881a799" y="49.379982"/>
     <use style="fill:#92c5de;stroke:#92c5de;" x="76.860955" xlink:href="#mc58881a799" y="48.143759"/>
     <use style="fill:#92c5de;stroke:#92c5de;" x="78.418189" xlink:href="#mc58881a799" y="46.908386"/>
     <use style="fill:#92c5de;stroke:#92c5de;" x="79.975423" xlink:href="#mc58881a799" y="45.672163"/>
     <use style="fill:#92c5de;stroke:#92c5de;" x="81.532657" xlink:href="#mc58881a799" y="44.435941"/>
     <use style="fill:#92c5de;stroke:#92c5de;" x="83.08989" xlink:href="#mc58881a799" y="43.199719"/>
     <use style="fill:#92c5de;stroke:#92c5de;" x="84.647124" xlink:href="#mc58881a799" y="41.964345"/>
     <use style="fill:#92c5de;stroke:#92c5de;" x="86.204358" xlink:href="#mc58881a799" y="40.728123"/>
     <use style="fill:#92c5de;stroke:#92c5de;" x="87.761592" xlink:href="#mc58881a799" y="39.4919"/>
    </g>
   </g>
   <g id="PathCollection_3">
    <g clip-path="url(#pfe8e1afcc8)">
     <use style="fill:#333333;stroke:#333333;" x="53.502447" xlink:href="#m0e9535359d" y="80.549598"/>
     <use style="fill:#333333;stroke:#333333;" x="55.059681" xlink:href="#m0e9535359d" y="80.549598"/>
     <use style="fill:#333333;stroke:#333333;" x="56.616914" xlink:href="#m0e9535359d" y="80.549598"/>
     <use style="fill:#333333;stroke:#333333;" x="58.174148" xlink:href="#m0e9535359d" y="80.549598"/>
     <use style="fill:#333333;stroke:#333333;" x="59.731382" xlink:href="#m0e9535359d" y="80.549598"/>
     <use style="fill:#333333;stroke:#333333;" x="61.288616" xlink:href="#m0e9535359d" y="80.549598"/>
     <use style="fill:#333333;stroke:#333333;" x="62.84585" xlink:href="#m0e9535359d" y="80.549598"/>
     <use style="fill:#333333;stroke:#333333;" x="64.403084" xlink:href="#m0e9535359d" y="80.549598"/>
     <use style="fill:#333333;stroke:#333333;" x="65.960318" xlink:href="#m0e9535359d" y="80.549598"/>
     <use style="fill:#333333;stroke:#333333;" x="67.517552" xlink:href="#m0e9535359d" y="80.549598"/>
     <use style="fill:#333333;stroke:#333333;" x="69.074786" xlink:href="#m0e9535359d" y="80.549598"/>
     <use style="fill:#333333;stroke:#333333;" x="70.632019" xlink:href="#m0e9535359d" y="80.549598"/>
     <use style="fill:#333333;stroke:#333333;" x="72.189253" xlink:href="#m0e9535359d" y="80.549598"/>
     <use style="fill:#333333;stroke:#333333;" x="73.746487" xlink:href="#m0e9535359d" y="80.549598"/>
     <use style="fill:#333333;stroke:#333333;" x="75.303721" xlink:href="#m0e9535359d" y="80.549598"/>
     <use style="fill:#333333;stroke:#333333;" x="76.860955" xlink:href="#m0e9535359d" y="80.549598"/>
     <use style="fill:#333333;stroke:#333333;" x="78.418189" xlink:href="#m0e9535359d" y="80.549598"/>
     <use style="fill:#333333;stroke:#333333;" x="79.975423" xlink:href="#m0e9535359d" y="80.549598"/>
     <use style="fill:#333333;stroke:#333333;" x="81.532657" xlink:href="#m0e9535359d" y="80.549598"/>
     <use style="fill:#333333;stroke:#333333;" x="83.08989" xlink:href="#m0e9535359d" y="80.549598"/>
     <use style="fill:#333333;stroke:#333333;" x="84.647124" xlink:href="#m0e9535359d" y="80.549598"/>
     <use style="fill:#333333;stroke:#333333;" x="86.204358" xlink:href="#m0e9535359d" y="80.549598"/>
     <use style="fill:#333333;stroke:#333333;" x="87.761592" xlink:href="#m0e9535359d" y="80.549598"/>
     <use style="fill:#333333;stroke:#333333;" x="89.318826" xlink:href="#m0e9535359d" y="80.549598"/>
     <use style="fill:#333333;stroke:#333333;" x="90.87606" xlink:href="#m0e9535359d" y="80.549598"/>
     <use style="fill:#333333;stroke:#333333;" x="92.433294" xlink:href="#m0e9535359d" y="80.549598"/>
     <use style="fill:#333333;stroke:#333333;" x="93.990528" xlink:href="#m0e9535359d" y="80.549598"/>
     <use style="fill:#333333;stroke:#333333;" x="95.547762" xlink:href="#m0e9535359d" y="80.549598"/>
     <use style="fill:#333333;stroke:#333333;" x="97.104995" xlink:href="#m0e9535359d" y="80.549598"/>
     <use style="fill:#333333;stroke:#333333;" x="98.662229" xlink:href="#m0e9535359d" y="80.549598"/>
     <use style="fill:#333333;stroke:#333333;" x="100.219463" xlink:href="#m0e9535359d" y="80.549598"/>
     <use style="fill:#333333;stroke:#333333;" x="101.776697" xlink:href="#m0e9535359d" y="80.549598"/>
     <use style="fill:#333333;stroke:#333333;" x="103.333931" xlink:href="#m0e9535359d" y="80.549598"/>
     <use style="fill:#333333;stroke:#333333;" x="104.891165" xlink:href="#m0e9535359d" y="80.549598"/>
     <use style="fill:#333333;stroke:#333333;" x="106.448399" xlink:href="#m0e9535359d" y="80.549598"/>
     <use style="fill:#333333;stroke:#333333;" x="108.005633" xlink:href="#m0e9535359d" y="80.549598"/>
     <use style="fill:#333333;stroke:#333333;" x="109.562866" xlink:href="#m0e9535359d" y="80.549598"/>
     <use style="fill:#333333;stroke:#333333;" x="111.1201" xlink:href="#m0e9535359d" y="80.549598"/>
     <use style="fill:#333333;stroke:#333333;" x="112.677334" xlink:href="#m0e9535359d" y="80.549598"/>
     <use style="fill:#333333;stroke:#333333;" x="114.234568" xlink:href="#m0e9535359d" y="80.549598"/>
     <use style="fill:#333333;stroke:#333333;" x="115.791802" xlink:href="#m0e9535359d" y="80.549598"/>
     <use style="fill:#333333;stroke:#333333;" x="117.349036" xlink:href="#m0e9535359d" y="80.549598"/>
     <use style="fill:#333333;stroke:#333333;" x="118.90627" xlink:href="#m0e9535359d" y="80.549598"/>
     <use style="fill:#333333;stroke:#333333;" x="120.463504" xlink:href="#m0e9535359d" y="80.549598"/>
     <use style="fill:#333333;stroke:#333333;" x="122.020738" xlink:href="#m0e9535359d" y="80.549598"/>
     <use style="fill:#333333;stroke:#333333;" x="123.577971" xlink:href="#m0e9535359d" y="80.549598"/>
     <use style="fill:#333333;stroke:#333333;" x="125.135205" xlink:href="#m0e9535359d" y="80.549598"/>
     <use style="fill:#333333;stroke:#333333;" x="126.692439" xlink:href="#m0e9535359d" y="80.549598"/>
     <use style="fill:#333333;stroke:#333333;" x="128.249673" xlink:href="#m0e9535359d" y="80.549598"/>
     <use style="fill:#333333;stroke:#333333;" x="129.806907" xlink:href="#m0e9535359d" y="80.549598"/>
     <use style="fill:#333333;stroke:#333333;" x="131.364141" xlink:href="#m0e9535359d" y="80.549598"/>
     <use style="fill:#333333;stroke:#333333;" x="132.921375" xlink:href="#m0e9535359d" y="80.549598"/>
     <use style="fill:#333333;stroke:#333333;" x="134.478609" xlink:href="#m0e9535359d" y="80.549598"/>
     <use style="fill:#333333;stroke:#333333;" x="136.035842" xlink:href="#m0e9535359d" y="80.549598"/>
     <use style="fill:#333333;stroke:#333333;" x="137.593076" xlink:href="#m0e9535359d" y="80.549598"/>
     <use style="fill:#333333;stroke:#333333;" x="139.15031" xlink:href="#m0e9535359d" y="80.549598"/>
     <use style="fill:#333333;stroke:#333333;" x="140.707544" xlink:href="#m0e9535359d" y="80.549598"/>
     <use style="fill:#333333;stroke:#333333;" x="142.264778" xlink:href="#m0e9535359d" y="80.549598"/>
     <use style="fill:#333333;stroke:#333333;" x="143.822012" xlink:href="#m0e9535359d" y="80.549598"/>
     <use style="fill:#333333;stroke:#333333;" x="145.379246" xlink:href="#m0e9535359d" y="80.549598"/>
     <use style="fill:#333333;stroke:#333333;" x="146.93648" xlink:href="#m0e9535359d" y="80.549598"/>
     <use style="fill:#333333;stroke:#333333;" x="148.493714" xlink:href="#m0e9535359d" y="80.549598"/>
     <use style="fill:#333333;stroke:#333333;" x="150.050947" xlink:href="#m0e9535359d" y="80.549598"/>
     <use style="fill:#333333;stroke:#333333;" x="151.608181" xlink:href="#m0e9535359d" y="80.549598"/>
     <use style="fill:#333333;stroke:#333333;" x="153.165415" xlink:href="#m0e9535359d" y="80.549598"/>
     <use style="fill:#333333;stroke:#333333;" x="154.722649" xlink:href="#m0e9535359d" y="80.549598"/>
     <use style="fill:#333333;stroke:#333333;" x="156.279883" xlink:href="#m0e9535359d" y="80.549598"/>
     <use style="fill:#333333;stroke:#333333;" x="157.837117" xlink:href="#m0e9535359d" y="80.549598"/>
     <use style="fill:#333333;stroke:#333333;" x="159.394351" xlink:href="#m0e9535359d" y="80.549598"/>
     <use style="fill:#333333;stroke:#333333;" x="160.951585" xlink:href="#m0e9535359d" y="80.549598"/>
     <use style="fill:#333333;stroke:#333333;" x="162.508818" xlink:href="#m0e9535359d" y="80.549598"/>
     <use style="fill:#333333;stroke:#333333;" x="164.066052" xlink:href="#m0e9535359d" y="80.549598"/>
     <use style="fill:#333333;stroke:#333333;" x="165.623286" xlink:href="#m0e9535359d" y="80.549598"/>
     <use style="fill:#333333;stroke:#333333;" x="167.18052" xlink:href="#m0e9535359d" y="80.549598"/>
     <use style="fill:#333333;stroke:#333333;" x="168.737754" xlink:href="#m0e9535359d" y="80.549598"/>
     <use style="fill:#333333;stroke:#333333;" x="170.294988" xlink:href="#m0e9535359d" y="80.549598"/>
     <use style="fill:#333333;stroke:#333333;" x="171.852222" xlink:href="#m0e9535359d" y="80.549598"/>
     <use style="fill:#333333;stroke:#333333;" x="173.409456" xlink:href="#m0e9535359d" y="80.549598"/>
     <use style="fill:#333333;stroke:#333333;" x="174.96669" xlink:href="#m0e9535359d" y="80.549598"/>
     <use style="fill:#333333;stroke:#333333;" x="176.523923" xlink:href="#m0e9535359d" y="80.549598"/>
     <use style="fill:#333333;stroke:#333333;" x="178.081157" xlink:href="#m0e9535359d" y="80.549598"/>
     <use style="fill:#333333;stroke:#333333;" x="179.638391" xlink:href="#m0e9535359d" y="80.549598"/>
     <use style="fill:#333333;stroke:#333333;" x="181.195625" xlink:href="#m0e9535359d" y="80.549598"/>
     <use style="fill:#333333;stroke:#333333;" x="182.752859" xlink:href="#m0e9535359d" y="80.549598"/>
     <use style="fill:#333333;stroke:#333333;" x="184.310093" xlink:href="#m0e9535359d" y="80.549598"/>
     <use style="fill:#333333;stroke:#333333;" x="185.867327" xlink:href="#m0e9535359d" y="80.549598"/>
     <use style="fill:#333333;stroke:#333333;" x="187.424561" xlink:href="#m0e9535359d" y="80.549598"/>
     <use style="fill:#333333;stroke:#333333;" x="188.981794" xlink:href="#m0e9535359d" y="80.549598"/>
     <use style="fill:#333333;stroke:#333333;" x="190.539028" xlink:href="#m0e9535359d" y="80.549598"/>
     <use style="fill:#333333;stroke:#333333;" x="192.096262" xlink:href="#m0e9535359d" y="80.549598"/>
     <use style="fill:#333333;stroke:#333333;" x="193.653496" xlink:href="#m0e9535359d" y="80.549598"/>
     <use style="fill:#333333;stroke:#333333;" x="195.21073" xlink:href="#m0e9535359d" y="80.549598"/>
     <use style="fill:#333333;stroke:#333333;" x="196.767964" xlink:href="#m0e9535359d" y="80.549598"/>
     <use style="fill:#333333;stroke:#333333;" x="198.325198" xlink:href="#m0e9535359d" y="80.549598"/>
     <use style="fill:#333333;stroke:#333333;" x="199.882432" xlink:href="#m0e9535359d" y="80.549598"/>
     <use style="fill:#333333;stroke:#333333;" x="201.439666" xlink:href="#m0e9535359d" y="80.549598"/>
     <use style="fill:#333333;stroke:#333333;" x="202.996899" xlink:href="#m0e9535359d" y="80.549598"/>
     <use style="fill:#333333;stroke:#333333;" x="204.554133" xlink:href="#m0e9535359d" y="80.549598"/>
     <use style="fill:#333333;stroke:#333333;" x="206.111367" xlink:href="#m0e9535359d" y="80.549598"/>
     <use style="fill:#333333;stroke:#333333;" x="207.668601" xlink:href="#m0e9535359d" y="80.549598"/>
     <use style="fill:#333333;stroke:#333333;" x="209.225835" xlink:href="#m0e9535359d" y="80.549598"/>
    </g>
   </g>
   <g id="PathCollection_4">
    <defs>
     <path d="M 0 0.5 
C 0.132602 0.5 0.25979 0.447317 0.353553 0.353553 
C 0.447317 0.25979 0.5 0.132602 0.5 0 
C 0.5 -0.132602 0.447317 -0.25979 0.353553 -0.353553 
C 0.25979 -0.447317 0.132602 -0.5 0 -0.5 
C -0.132602 -0.5 -0.25979 -0.447317 -0.353553 -0.353553 
C -0.447317 -0.25979 -0.5 -0.132602 -0.5 0 
C -0.5 0.132602 -0.447317 0.25979 -0.353553 0.353553 
C -0.25979 0.447317 -0.132602 0.5 0 0.5 
z
" id="mf423d9c958" style="stroke:#f4a582;"/>
    </defs>
    <g clip-path="url(#pfe8e1afcc8)">
     <use style="fill:#f4a582;stroke:#f4a582;" x="86.204358" xlink:href="#mf423d9c958" y="32.239282"/>
     <use style="fill:#f4a582;stroke:#f4a582;" x="87.761592" xlink:href="#mf423d9c958" y="33.475505"/>
     <use style="fill:#f4a582;stroke:#f4a582;" x="101.776697" xlink:href="#mf423d9c958" y="30.277119"/>
     <use style="fill:#f4a582;stroke:#f4a582;" x="103.333931" xlink:href="#mf423d9c958" y="31.513341"/>
     <use style="fill:#f4a582;stroke:#f4a582;" x="104.891165" xlink:href="#mf423d9c958" y="32.750413"/>
     <use style="fill:#f4a582;stroke:#f4a582;" x="106.448399" xlink:href="#mf423d9c958" y="33.985786"/>
     <use style="fill:#f4a582;stroke:#f4a582;" x="108.005633" xlink:href="#mf423d9c958" y="35.222009"/>
     <use style="fill:#f4a582;stroke:#f4a582;" x="111.1201" xlink:href="#mf423d9c958" y="37.693604"/>
     <use style="fill:#f4a582;stroke:#f4a582;" x="112.677334" xlink:href="#mf423d9c958" y="38.929827"/>
     <use style="fill:#f4a582;stroke:#f4a582;" x="114.234568" xlink:href="#mf423d9c958" y="40.166049"/>
     <use style="fill:#f4a582;stroke:#f4a582;" x="115.791802" xlink:href="#mf423d9c958" y="41.402272"/>
     <use style="fill:#f4a582;stroke:#f4a582;" x="117.349036" xlink:href="#mf423d9c958" y="42.637645"/>
     <use style="fill:#f4a582;stroke:#f4a582;" x="118.90627" xlink:href="#mf423d9c958" y="43.873867"/>
     <use style="fill:#f4a582;stroke:#f4a582;" x="120.463504" xlink:href="#mf423d9c958" y="45.11009"/>
     <use style="fill:#f4a582;stroke:#f4a582;" x="122.020738" xlink:href="#mf423d9c958" y="46.346312"/>
     <use style="fill:#f4a582;stroke:#f4a582;" x="123.577971" xlink:href="#mf423d9c958" y="47.582535"/>
     <use style="fill:#f4a582;stroke:#f4a582;" x="125.135205" xlink:href="#mf423d9c958" y="48.817908"/>
     <use style="fill:#f4a582;stroke:#f4a582;" x="126.692439" xlink:href="#mf423d9c958" y="50.05413"/>
     <use style="fill:#f4a582;stroke:#f4a582;" x="128.249673" xlink:href="#mf423d9c958" y="51.290353"/>
     <use style="fill:#f4a582;stroke:#f4a582;" x="129.806907" xlink:href="#mf423d9c958" y="52.526575"/>
     <use style="fill:#f4a582;stroke:#f4a582;" x="131.364141" xlink:href="#mf423d9c958" y="53.761949"/>
     <use style="fill:#f4a582;stroke:#f4a582;" x="132.921375" xlink:href="#mf423d9c958" y="54.998171"/>
     <use style="fill:#f4a582;stroke:#f4a582;" x="134.478609" xlink:href="#mf423d9c958" y="56.234394"/>
     <use style="fill:#f4a582;stroke:#f4a582;" x="136.035842" xlink:href="#mf423d9c958" y="57.469767"/>
     <use style="fill:#f4a582;stroke:#f4a582;" x="137.593076" xlink:href="#mf423d9c958" y="58.706838"/>
     <use style="fill:#f4a582;stroke:#f4a582;" x="139.15031" xlink:href="#mf423d9c958" y="59.942212"/>
     <use style="fill:#f4a582;stroke:#f4a582;" x="140.707544" xlink:href="#mf423d9c958" y="61.178434"/>
     <use style="fill:#f4a582;stroke:#f4a582;" x="142.264778" xlink:href="#mf423d9c958" y="62.414657"/>
     <use style="fill:#f4a582;stroke:#f4a582;" x="143.822012" xlink:href="#mf423d9c958" y="63.65003"/>
     <use style="fill:#f4a582;stroke:#f4a582;" x="145.379246" xlink:href="#mf423d9c958" y="64.886252"/>
     <use style="fill:#f4a582;stroke:#f4a582;" x="146.93648" xlink:href="#mf423d9c958" y="66.122475"/>
     <use style="fill:#f4a582;stroke:#f4a582;" x="148.493714" xlink:href="#mf423d9c958" y="67.358697"/>
     <use style="fill:#f4a582;stroke:#f4a582;" x="150.050947" xlink:href="#mf423d9c958" y="68.59492"/>
     <use style="fill:#f4a582;stroke:#f4a582;" x="151.608181" xlink:href="#mf423d9c958" y="69.830293"/>
     <use style="fill:#f4a582;stroke:#f4a582;" x="153.165415" xlink:href="#mf423d9c958" y="71.066515"/>
     <use style="fill:#f4a582;stroke:#f4a582;" x="154.722649" xlink:href="#mf423d9c958" y="72.302738"/>
     <use style="fill:#f4a582;stroke:#f4a582;" x="156.279883" xlink:href="#mf423d9c958" y="73.53896"/>
     <use style="fill:#f4a582;stroke:#f4a582;" x="157.837117" xlink:href="#mf423d9c958" y="74.775183"/>
     <use style="fill:#f4a582;stroke:#f4a582;" x="159.394351" xlink:href="#mf423d9c958" y="76.010556"/>
     <use style="fill:#f4a582;stroke:#f4a582;" x="160.951585" xlink:href="#mf423d9c958" y="77.245929"/>
     <use style="fill:#f4a582;stroke:#f4a582;" x="162.508818" xlink:href="#mf423d9c958" y="78.482152"/>
     <use style="fill:#f4a582;stroke:#f4a582;" x="164.066052" xlink:href="#mf423d9c958" y="79.718374"/>
     <use style="fill:#f4a582;stroke:#f4a582;" x="165.623286" xlink:href="#mf423d9c958" y="80.953748"/>
     <use style="fill:#f4a582;stroke:#f4a582;" x="167.18052" xlink:href="#mf423d9c958" y="82.18997"/>
     <use style="fill:#f4a582;stroke:#f4a582;" x="168.737754" xlink:href="#mf423d9c958" y="83.426192"/>
     <use style="fill:#f4a582;stroke:#f4a582;" x="170.294988" xlink:href="#mf423d9c958" y="84.663264"/>
     <use style="fill:#f4a582;stroke:#f4a582;" x="171.852222" xlink:href="#mf423d9c958" y="85.898637"/>
     <use style="fill:#f4a582;stroke:#f4a582;" x="173.409456" xlink:href="#mf423d9c958" y="87.13486"/>
     <use style="fill:#f4a582;stroke:#f4a582;" x="174.96669" xlink:href="#mf423d9c958" y="88.371082"/>
     <use style="fill:#f4a582;stroke:#f4a582;" x="176.523923" xlink:href="#mf423d9c958" y="89.607305"/>
     <use style="fill:#f4a582;stroke:#f4a582;" x="178.081157" xlink:href="#mf423d9c958" y="90.842678"/>
     <use style="fill:#f4a582;stroke:#f4a582;" x="179.638391" xlink:href="#mf423d9c958" y="92.0789"/>
     <use style="fill:#f4a582;stroke:#f4a582;" x="181.195625" xlink:href="#mf423d9c958" y="93.315123"/>
     <use style="fill:#f4a582;stroke:#f4a582;" x="182.752859" xlink:href="#mf423d9c958" y="94.550496"/>
     <use style="fill:#f4a582;stroke:#f4a582;" x="184.310093" xlink:href="#mf423d9c958" y="95.786719"/>
     <use style="fill:#f4a582;stroke:#f4a582;" x="185.867327" xlink:href="#mf423d9c958" y="97.022941"/>
     <use style="fill:#f4a582;stroke:#f4a582;" x="187.424561" xlink:href="#mf423d9c958" y="98.259163"/>
     <use style="fill:#f4a582;stroke:#f4a582;" x="188.981794" xlink:href="#mf423d9c958" y="99.494537"/>
     <use style="fill:#f4a582;stroke:#f4a582;" x="190.539028" xlink:href="#mf423d9c958" y="100.731608"/>
     <use style="fill:#f4a582;stroke:#f4a582;" x="192.096262" xlink:href="#mf423d9c958" y="101.966982"/>
     <use style="fill:#f4a582;stroke:#f4a582;" x="193.653496" xlink:href="#mf423d9c958" y="103.203204"/>
     <use style="fill:#f4a582;stroke:#f4a582;" x="195.21073" xlink:href="#mf423d9c958" y="104.439427"/>
     <use style="fill:#f4a582;stroke:#f4a582;" x="196.767964" xlink:href="#mf423d9c958" y="105.6748"/>
     <use style="fill:#f4a582;stroke:#f4a582;" x="198.325198" xlink:href="#mf423d9c958" y="106.911022"/>
     <use style="fill:#f4a582;stroke:#f4a582;" x="199.882432" xlink:href="#mf423d9c958" y="108.146396"/>
     <use style="fill:#f4a582;stroke:#f4a582;" x="201.439666" xlink:href="#mf423d9c958" y="109.383467"/>
     <use style="fill:#f4a582;stroke:#f4a582;" x="202.996899" xlink:href="#mf423d9c958" y="110.618841"/>
     <use style="fill:#f4a582;stroke:#f4a582;" x="204.554133" xlink:href="#mf423d9c958" y="111.855063"/>
     <use style="fill:#f4a582;stroke:#f4a582;" x="206.111367" xlink:href="#mf423d9c958" y="113.091285"/>
     <use style="fill:#f4a582;stroke:#f4a582;" x="207.668601" xlink:href="#mf423d9c958" y="114.327508"/>
     <use style="fill:#f4a582;stroke:#f4a582;" x="209.225835" xlink:href="#mf423d9c958" y="115.562881"/>
    </g>
   </g>
   <g id="line2d_11">
    <path clip-path="url(#pfe8e1afcc8)" d="M 53.502447 105.256216 
L 55.059681 105.257065 
L 56.616914 105.257065 
L 58.174148 105.257065 
L 59.731382 105.257065 
L 61.288616 105.257065 
L 62.84585 105.257065 
L 64.403084 105.257065 
L 65.960318 105.257065 
L 67.517552 105.256216 
L 69.074786 105.256216 
L 70.632019 76.612535 
L 72.189253 76.611686 
L 73.746487 76.611686 
L 75.303721 76.611686 
L 76.860955 76.611686 
L 78.418189 76.612535 
L 79.975423 76.612535 
L 81.532657 76.612535 
L 83.08989 76.611686 
L 84.647124 76.612535 
L 86.204358 76.611686 
L 87.761592 76.611686 
L 89.318826 47.967156 
L 90.87606 47.967156 
L 92.433294 47.967156 
L 93.990528 47.967156 
L 95.547762 47.967156 
L 97.104995 47.967156 
L 98.662229 47.967156 
L 100.219463 47.967156 
L 101.776697 47.967156 
L 103.333931 47.967156 
L 104.891165 47.968005 
L 106.448399 47.967156 
L 108.005633 47.967156 
L 109.562866 105.348763 
L 111.1201 47.967156 
L 112.677334 47.968005 
L 114.234568 47.967156 
L 115.791802 47.968005 
L 117.349036 47.967156 
L 118.90627 47.967156 
L 120.463504 47.967156 
L 122.020738 47.967156 
L 123.577971 47.968005 
L 125.135205 47.967156 
L 126.692439 47.967156 
L 128.249673 47.967156 
L 129.806907 47.968005 
L 131.364141 47.967156 
L 132.921375 47.967156 
L 134.478609 47.967156 
L 136.035842 47.967156 
L 137.593076 47.968005 
L 139.15031 47.967156 
L 140.707544 47.968005 
L 142.264778 47.967156 
L 143.822012 47.967156 
L 145.379246 47.967156 
L 146.93648 47.967156 
L 148.493714 47.967156 
L 150.050947 47.968005 
L 151.608181 47.967156 
L 153.165415 47.967156 
L 154.722649 47.968005 
L 156.279883 47.968005 
L 157.837117 47.968005 
L 159.394351 47.967156 
L 160.951585 47.967156 
L 162.508818 47.967156 
L 164.066052 47.967156 
L 165.623286 47.967156 
L 167.18052 47.967156 
L 168.737754 47.967156 
L 170.294988 47.968005 
L 171.852222 47.967156 
L 173.409456 47.967156 
L 174.96669 47.968005 
L 176.523923 47.968005 
L 178.081157 47.967156 
L 179.638391 47.967156 
L 181.195625 47.967156 
L 182.752859 47.967156 
L 184.310093 47.967156 
L 185.867327 47.967156 
" style="fill:none;stroke:#333333;stroke-linecap:round;stroke-width:1.5;"/>
   </g>
   <g id="line2d_12">
    <path clip-path="url(#pfe8e1afcc8)" d="M 53.502447 81.006389 
L 55.059681 79.771016 
L 56.616914 78.534793 
L 58.174148 77.29942 
L 59.731382 76.063197 
L 61.288616 74.826975 
L 62.84585 73.590753 
L 64.403084 72.355379 
L 65.960318 71.119157 
L 67.517552 69.882085 
L 69.074786 68.646712 
L 70.632019 53.088649 
L 72.189253 51.852427 
L 73.746487 50.616204 
L 75.303721 49.379982 
L 76.860955 48.143759 
L 78.418189 46.908386 
L 79.975423 45.672163 
L 81.532657 44.435941 
L 83.08989 43.199719 
L 84.647124 41.964345 
L 86.204358 40.728123 
L 87.761592 39.4919 
" style="fill:none;stroke:#92c5de;stroke-linecap:round;stroke-width:1.5;"/>
   </g>
   <g id="line2d_13">
    <path clip-path="url(#pfe8e1afcc8)" d="M 53.502447 80.549598 
L 55.059681 80.549598 
L 56.616914 80.549598 
L 58.174148 80.549598 
L 59.731382 80.549598 
L 61.288616 80.549598 
L 62.84585 80.549598 
L 64.403084 80.549598 
L 65.960318 80.549598 
L 67.517552 80.549598 
L 69.074786 80.549598 
L 70.632019 80.549598 
L 72.189253 80.549598 
L 73.746487 80.549598 
L 75.303721 80.549598 
L 76.860955 80.549598 
L 78.418189 80.549598 
L 79.975423 80.549598 
L 81.532657 80.549598 
L 83.08989 80.549598 
L 84.647124 80.549598 
L 86.204358 80.549598 
L 87.761592 80.549598 
L 89.318826 80.549598 
L 90.87606 80.549598 
L 92.433294 80.549598 
L 93.990528 80.549598 
L 95.547762 80.549598 
L 97.104995 80.549598 
L 98.662229 80.549598 
L 100.219463 80.549598 
L 101.776697 80.549598 
L 103.333931 80.549598 
L 104.891165 80.549598 
L 106.448399 80.549598 
L 108.005633 80.549598 
L 109.562866 80.549598 
L 111.1201 80.549598 
L 112.677334 80.549598 
L 114.234568 80.549598 
L 115.791802 80.549598 
L 117.349036 80.549598 
L 118.90627 80.549598 
L 120.463504 80.549598 
L 122.020738 80.549598 
L 123.577971 80.549598 
L 125.135205 80.549598 
L 126.692439 80.549598 
L 128.249673 80.549598 
L 129.806907 80.549598 
L 131.364141 80.549598 
L 132.921375 80.549598 
L 134.478609 80.549598 
L 136.035842 80.549598 
L 137.593076 80.549598 
L 139.15031 80.549598 
L 140.707544 80.549598 
L 142.264778 80.549598 
L 143.822012 80.549598 
L 145.379246 80.549598 
L 146.93648 80.549598 
L 148.493714 80.549598 
L 150.050947 80.549598 
L 151.608181 80.549598 
L 153.165415 80.549598 
L 154.722649 80.549598 
L 156.279883 80.549598 
L 157.837117 80.549598 
L 159.394351 80.549598 
L 160.951585 80.549598 
L 162.508818 80.549598 
L 164.066052 80.549598 
L 165.623286 80.549598 
L 167.18052 80.549598 
L 168.737754 80.549598 
L 170.294988 80.549598 
L 171.852222 80.549598 
L 173.409456 80.549598 
L 174.96669 80.549598 
L 176.523923 80.549598 
L 178.081157 80.549598 
L 179.638391 80.549598 
L 181.195625 80.549598 
L 182.752859 80.549598 
L 184.310093 80.549598 
L 185.867327 80.549598 
L 187.424561 80.549598 
L 188.981794 80.549598 
L 190.539028 80.549598 
L 192.096262 80.549598 
L 193.653496 80.549598 
L 195.21073 80.549598 
L 196.767964 80.549598 
L 198.325198 80.549598 
L 199.882432 80.549598 
L 201.439666 80.549598 
L 202.996899 80.549598 
L 204.554133 80.549598 
L 206.111367 80.549598 
L 207.668601 80.549598 
L 209.225835 80.549598 
" style="fill:none;stroke:#333333;stroke-linecap:round;stroke-width:1.5;"/>
   </g>
   <g id="line2d_14">
    <path clip-path="url(#pfe8e1afcc8)" d="M 86.204358 32.239282 
L 87.761592 33.475505 
M 101.776697 30.277119 
L 103.333931 31.513341 
L 104.891165 32.750413 
L 106.448399 33.985786 
L 108.005633 35.222009 
M 111.1201 37.693604 
L 112.677334 38.929827 
L 114.234568 40.166049 
L 115.791802 41.402272 
L 117.349036 42.637645 
L 118.90627 43.873867 
L 120.463504 45.11009 
L 122.020738 46.346312 
L 123.577971 47.582535 
L 125.135205 48.817908 
L 126.692439 50.05413 
L 128.249673 51.290353 
L 129.806907 52.526575 
L 131.364141 53.761949 
L 132.921375 54.998171 
L 134.478609 56.234394 
L 136.035842 57.469767 
L 137.593076 58.706838 
L 139.15031 59.942212 
L 140.707544 61.178434 
L 142.264778 62.414657 
L 143.822012 63.65003 
L 145.379246 64.886252 
L 146.93648 66.122475 
L 148.493714 67.358697 
L 150.050947 68.59492 
L 151.608181 69.830293 
L 153.165415 71.066515 
L 154.722649 72.302738 
L 156.279883 73.53896 
L 157.837117 74.775183 
L 159.394351 76.010556 
L 160.951585 77.245929 
L 162.508818 78.482152 
L 164.066052 79.718374 
L 165.623286 80.953748 
L 167.18052 82.18997 
L 168.737754 83.426192 
L 170.294988 84.663264 
L 171.852222 85.898637 
L 173.409456 87.13486 
L 174.96669 88.371082 
L 176.523923 89.607305 
L 178.081157 90.842678 
L 179.638391 92.0789 
L 181.195625 93.315123 
L 182.752859 94.550496 
L 184.310093 95.786719 
L 185.867327 97.022941 
L 187.424561 98.259163 
L 188.981794 99.494537 
L 190.539028 100.731608 
L 192.096262 101.966982 
L 193.653496 103.203204 
L 195.21073 104.439427 
L 196.767964 105.6748 
L 198.325198 106.911022 
L 199.882432 108.146396 
L 201.439666 109.383467 
L 202.996899 110.618841 
L 204.554133 111.855063 
L 206.111367 113.091285 
L 207.668601 114.327508 
L 209.225835 115.562881 
" style="fill:none;stroke:#f4a582;stroke-linecap:round;stroke-width:1.5;"/>
   </g>
   <g id="patch_3">
    <path d="M 45.425 120.04 
L 45.425 25.8 
" style="fill:none;stroke:#262626;stroke-linecap:square;stroke-linejoin:miter;stroke-width:0.8;"/>
   </g>
   <g id="patch_4">
    <path d="M 45.425 120.04 
L 217.35 120.04 
" style="fill:none;stroke:#262626;stroke-linecap:square;stroke-linejoin:miter;stroke-width:0.8;"/>
   </g>
   <g id="text_13">
    <!-- SM19 -->
    <defs>
     <path d="M 4.5 23 
L 13.421875 23.78125 
Q 14.0625 18.40625 16.375 14.96875 
Q 18.703125 11.53125 23.578125 9.40625 
Q 28.46875 7.28125 34.578125 7.28125 
Q 39.984375 7.28125 44.140625 8.890625 
Q 48.296875 10.5 50.3125 13.296875 
Q 52.34375 16.109375 52.34375 19.4375 
Q 52.34375 22.796875 50.390625 25.3125 
Q 48.4375 27.828125 43.953125 29.546875 
Q 41.0625 30.671875 31.203125 33.03125 
Q 21.34375 35.40625 17.390625 37.5 
Q 12.25 40.1875 9.734375 44.15625 
Q 7.234375 48.140625 7.234375 53.078125 
Q 7.234375 58.5 10.296875 63.203125 
Q 13.375 67.921875 19.28125 70.359375 
Q 25.203125 72.796875 32.421875 72.796875 
Q 40.375 72.796875 46.453125 70.234375 
Q 52.546875 67.671875 55.8125 62.6875 
Q 59.078125 57.71875 59.328125 51.421875 
L 50.25 50.734375 
Q 49.515625 57.515625 45.28125 60.984375 
Q 41.0625 64.453125 32.8125 64.453125 
Q 24.21875 64.453125 20.28125 61.296875 
Q 16.359375 58.15625 16.359375 53.71875 
Q 16.359375 49.859375 19.140625 47.359375 
Q 21.875 44.875 33.421875 42.265625 
Q 44.96875 39.65625 49.265625 37.703125 
Q 55.515625 34.8125 58.484375 30.390625 
Q 61.46875 25.984375 61.46875 20.21875 
Q 61.46875 14.5 58.203125 9.4375 
Q 54.9375 4.390625 48.796875 1.578125 
Q 42.671875 -1.21875 35.015625 -1.21875 
Q 25.296875 -1.21875 18.71875 1.609375 
Q 12.15625 4.4375 8.421875 10.125 
Q 4.6875 15.828125 4.5 23 
z
" id="ArialMT-53"/>
     <path d="M 7.421875 0 
L 7.421875 71.578125 
L 21.6875 71.578125 
L 38.625 20.90625 
Q 40.96875 13.8125 42.046875 10.296875 
Q 43.265625 14.203125 45.84375 21.78125 
L 62.984375 71.578125 
L 75.734375 71.578125 
L 75.734375 0 
L 66.609375 0 
L 66.609375 59.90625 
L 45.796875 0 
L 37.25 0 
L 16.546875 60.9375 
L 16.546875 0 
z
" id="ArialMT-4d"/>
     <path d="M 5.46875 16.546875 
L 13.921875 17.328125 
Q 14.984375 11.375 18.015625 8.6875 
Q 21.046875 6 25.78125 6 
Q 29.828125 6 32.875 7.859375 
Q 35.9375 9.71875 37.890625 12.8125 
Q 39.84375 15.921875 41.15625 21.1875 
Q 42.484375 26.46875 42.484375 31.9375 
Q 42.484375 32.515625 42.4375 33.6875 
Q 39.796875 29.5 35.234375 26.875 
Q 30.671875 24.265625 25.34375 24.265625 
Q 16.453125 24.265625 10.296875 30.703125 
Q 4.15625 37.15625 4.15625 47.703125 
Q 4.15625 58.59375 10.578125 65.234375 
Q 17 71.875 26.65625 71.875 
Q 33.640625 71.875 39.421875 68.109375 
Q 45.21875 64.359375 48.21875 57.390625 
Q 51.21875 50.4375 51.21875 37.25 
Q 51.21875 23.53125 48.234375 15.40625 
Q 45.265625 7.28125 39.375 3.03125 
Q 33.5 -1.21875 25.59375 -1.21875 
Q 17.1875 -1.21875 11.859375 3.4375 
Q 6.546875 8.109375 5.46875 16.546875 
z
M 41.453125 48.140625 
Q 41.453125 55.71875 37.421875 60.15625 
Q 33.40625 64.59375 27.734375 64.59375 
Q 21.875 64.59375 17.53125 59.8125 
Q 13.1875 55.03125 13.1875 47.40625 
Q 13.1875 40.578125 17.3125 36.296875 
Q 21.4375 32.03125 27.484375 32.03125 
Q 33.59375 32.03125 37.515625 36.296875 
Q 41.453125 40.578125 41.453125 48.140625 
z
" id="ArialMT-39"/>
    </defs>
    <g style="fill:#262626;" transform="translate(115.714375 19.8)scale(0.12 -0.12)">
     <use xlink:href="#ArialMT-53"/>
     <use x="66.699219" xlink:href="#ArialMT-4d"/>
     <use x="150" xlink:href="#ArialMT-31"/>
     <use x="205.615234" xlink:href="#ArialMT-39"/>
    </g>
   </g>
  </g>
 </g>
 <defs>
  <clipPath id="pfe8e1afcc8">
   <rect height="94.24" width="171.925" x="45.425" y="25.8"/>
  </clipPath>
 </defs>
</svg>
