<?xml version="1.0" encoding="utf-8" standalone="no"?>
<!DOCTYPE svg PUBLIC "-//W3C//DTD SVG 1.1//EN"
  "http://www.w3.org/Graphics/SVG/1.1/DTD/svg11.dtd">
<!-- Created with matplotlib (http://matplotlib.org/) -->
<svg height="159.84pt" version="1.1" viewBox="0 0 230.4 159.84" width="230.4pt" xmlns="http://www.w3.org/2000/svg" xmlns:xlink="http://www.w3.org/1999/xlink">
 <defs>
  <style type="text/css">
*{stroke-linecap:butt;stroke-linejoin:round;}
  </style>
 </defs>
 <g id="figure_1">
  <g id="patch_1">
   <path d="M 0 159.84 
L 230.4 159.84 
L 230.4 0 
L 0 0 
z
" style="fill:#ffffff;"/>
  </g>
  <g id="axes_1">
   <g id="patch_2">
    <path d="M 45.183929 120.04 
L 217.35 120.04 
L 217.35 25.8 
L 45.183929 25.8 
z
" style="fill:#ffffff;"/>
   </g>
   <g id="matplotlib.axis_1">
    <g id="xtick_1">
     <g id="line2d_1">
      <defs>
       <path d="M 0 0 
L 0 3.5 
" id="mc1975024de" style="stroke:#262626;stroke-width:0.8;"/>
      </defs>
      <g>
       <use style="fill:#262626;stroke:#262626;stroke-width:0.8;" x="53.282032" xlink:href="#mc1975024de" y="120.04"/>
      </g>
     </g>
     <g id="text_1">
      <!-- 2 -->
      <defs>
       <path d="M 50.34375 8.453125 
L 50.34375 0 
L 3.03125 0 
Q 2.9375 3.171875 4.046875 6.109375 
Q 5.859375 10.9375 9.828125 15.625 
Q 13.8125 20.3125 21.34375 26.46875 
Q 33.015625 36.03125 37.109375 41.625 
Q 41.21875 47.21875 41.21875 52.203125 
Q 41.21875 57.421875 37.46875 61 
Q 33.734375 64.59375 27.734375 64.59375 
Q 21.390625 64.59375 17.578125 60.78125 
Q 13.765625 56.984375 13.71875 50.25 
L 4.6875 51.171875 
Q 5.609375 61.28125 11.65625 66.578125 
Q 17.71875 71.875 27.9375 71.875 
Q 38.234375 71.875 44.234375 66.15625 
Q 50.25 60.453125 50.25 52 
Q 50.25 47.703125 48.484375 43.546875 
Q 46.734375 39.40625 42.65625 34.8125 
Q 38.578125 30.21875 29.109375 22.21875 
Q 21.1875 15.578125 18.9375 13.203125 
Q 16.703125 10.84375 15.234375 8.453125 
z
" id="ArialMT-32"/>
      </defs>
      <g style="fill:#262626;" transform="translate(50.501564 134.197812)scale(0.1 -0.1)">
       <use xlink:href="#ArialMT-32"/>
      </g>
     </g>
    </g>
    <g id="xtick_2">
     <g id="line2d_2">
      <g>
       <use style="fill:#262626;stroke:#262626;stroke-width:0.8;" x="84.476005" xlink:href="#mc1975024de" y="120.04"/>
      </g>
     </g>
     <g id="text_2">
      <!-- 4 -->
      <defs>
       <path d="M 32.328125 0 
L 32.328125 17.140625 
L 1.265625 17.140625 
L 1.265625 25.203125 
L 33.9375 71.578125 
L 41.109375 71.578125 
L 41.109375 25.203125 
L 50.78125 25.203125 
L 50.78125 17.140625 
L 41.109375 17.140625 
L 41.109375 0 
z
M 32.328125 25.203125 
L 32.328125 57.46875 
L 9.90625 25.203125 
z
" id="ArialMT-34"/>
      </defs>
      <g style="fill:#262626;" transform="translate(81.695536 134.197812)scale(0.1 -0.1)">
       <use xlink:href="#ArialMT-34"/>
      </g>
     </g>
    </g>
    <g id="xtick_3">
     <g id="line2d_3">
      <g>
       <use style="fill:#262626;stroke:#262626;stroke-width:0.8;" x="115.669978" xlink:href="#mc1975024de" y="120.04"/>
      </g>
     </g>
     <g id="text_3">
      <!-- 6 -->
      <defs>
       <path d="M 49.75 54.046875 
L 41.015625 53.375 
Q 39.84375 58.546875 37.703125 60.890625 
Q 34.125 64.65625 28.90625 64.65625 
Q 24.703125 64.65625 21.53125 62.3125 
Q 17.390625 59.28125 14.984375 53.46875 
Q 12.59375 47.65625 12.5 36.921875 
Q 15.671875 41.75 20.265625 44.09375 
Q 24.859375 46.4375 29.890625 46.4375 
Q 38.671875 46.4375 44.84375 39.96875 
Q 51.03125 33.5 51.03125 23.25 
Q 51.03125 16.5 48.125 10.71875 
Q 45.21875 4.9375 40.140625 1.859375 
Q 35.0625 -1.21875 28.609375 -1.21875 
Q 17.625 -1.21875 10.6875 6.859375 
Q 3.765625 14.9375 3.765625 33.5 
Q 3.765625 54.25 11.421875 63.671875 
Q 18.109375 71.875 29.4375 71.875 
Q 37.890625 71.875 43.28125 67.140625 
Q 48.6875 62.40625 49.75 54.046875 
z
M 13.875 23.1875 
Q 13.875 18.65625 15.796875 14.5 
Q 17.71875 10.359375 21.1875 8.171875 
Q 24.65625 6 28.46875 6 
Q 34.03125 6 38.03125 10.484375 
Q 42.046875 14.984375 42.046875 22.703125 
Q 42.046875 30.125 38.078125 34.390625 
Q 34.125 38.671875 28.125 38.671875 
Q 22.171875 38.671875 18.015625 34.390625 
Q 13.875 30.125 13.875 23.1875 
z
" id="ArialMT-36"/>
      </defs>
      <g style="fill:#262626;" transform="translate(112.889509 134.197812)scale(0.1 -0.1)">
       <use xlink:href="#ArialMT-36"/>
      </g>
     </g>
    </g>
    <g id="xtick_4">
     <g id="line2d_4">
      <g>
       <use style="fill:#262626;stroke:#262626;stroke-width:0.8;" x="146.86395" xlink:href="#mc1975024de" y="120.04"/>
      </g>
     </g>
     <g id="text_4">
      <!-- 8 -->
      <defs>
       <path d="M 17.671875 38.8125 
Q 12.203125 40.828125 9.5625 44.53125 
Q 6.9375 48.25 6.9375 53.421875 
Q 6.9375 61.234375 12.546875 66.546875 
Q 18.171875 71.875 27.484375 71.875 
Q 36.859375 71.875 42.578125 66.421875 
Q 48.296875 60.984375 48.296875 53.171875 
Q 48.296875 48.1875 45.671875 44.5 
Q 43.0625 40.828125 37.75 38.8125 
Q 44.34375 36.671875 47.78125 31.875 
Q 51.21875 27.09375 51.21875 20.453125 
Q 51.21875 11.28125 44.71875 5.03125 
Q 38.234375 -1.21875 27.640625 -1.21875 
Q 17.046875 -1.21875 10.546875 5.046875 
Q 4.046875 11.328125 4.046875 20.703125 
Q 4.046875 27.6875 7.59375 32.390625 
Q 11.140625 37.109375 17.671875 38.8125 
z
M 15.921875 53.71875 
Q 15.921875 48.640625 19.1875 45.40625 
Q 22.46875 42.1875 27.6875 42.1875 
Q 32.765625 42.1875 36.015625 45.375 
Q 39.265625 48.578125 39.265625 53.21875 
Q 39.265625 58.0625 35.90625 61.359375 
Q 32.5625 64.65625 27.59375 64.65625 
Q 22.5625 64.65625 19.234375 61.421875 
Q 15.921875 58.203125 15.921875 53.71875 
z
M 13.09375 20.65625 
Q 13.09375 16.890625 14.875 13.375 
Q 16.65625 9.859375 20.171875 7.921875 
Q 23.6875 6 27.734375 6 
Q 34.03125 6 38.125 10.046875 
Q 42.234375 14.109375 42.234375 20.359375 
Q 42.234375 26.703125 38.015625 30.859375 
Q 33.796875 35.015625 27.4375 35.015625 
Q 21.234375 35.015625 17.15625 30.90625 
Q 13.09375 26.8125 13.09375 20.65625 
z
" id="ArialMT-38"/>
      </defs>
      <g style="fill:#262626;" transform="translate(144.083481 134.197812)scale(0.1 -0.1)">
       <use xlink:href="#ArialMT-38"/>
      </g>
     </g>
    </g>
    <g id="xtick_5">
     <g id="line2d_5">
      <g>
       <use style="fill:#262626;stroke:#262626;stroke-width:0.8;" x="178.057923" xlink:href="#mc1975024de" y="120.04"/>
      </g>
     </g>
     <g id="text_5">
      <!-- 10 -->
      <defs>
       <path d="M 37.25 0 
L 28.46875 0 
L 28.46875 56 
Q 25.296875 52.984375 20.140625 49.953125 
Q 14.984375 46.921875 10.890625 45.40625 
L 10.890625 53.90625 
Q 18.265625 57.375 23.78125 62.296875 
Q 29.296875 67.234375 31.59375 71.875 
L 37.25 71.875 
z
" id="ArialMT-31"/>
       <path d="M 4.15625 35.296875 
Q 4.15625 48 6.765625 55.734375 
Q 9.375 63.484375 14.515625 67.671875 
Q 19.671875 71.875 27.484375 71.875 
Q 33.25 71.875 37.59375 69.546875 
Q 41.9375 67.234375 44.765625 62.859375 
Q 47.609375 58.5 49.21875 52.21875 
Q 50.828125 45.953125 50.828125 35.296875 
Q 50.828125 22.703125 48.234375 14.96875 
Q 45.65625 7.234375 40.5 3 
Q 35.359375 -1.21875 27.484375 -1.21875 
Q 17.140625 -1.21875 11.234375 6.203125 
Q 4.15625 15.140625 4.15625 35.296875 
z
M 13.1875 35.296875 
Q 13.1875 17.671875 17.3125 11.828125 
Q 21.4375 6 27.484375 6 
Q 33.546875 6 37.671875 11.859375 
Q 41.796875 17.71875 41.796875 35.296875 
Q 41.796875 52.984375 37.671875 58.78125 
Q 33.546875 64.59375 27.390625 64.59375 
Q 21.34375 64.59375 17.71875 59.46875 
Q 13.1875 52.9375 13.1875 35.296875 
z
" id="ArialMT-30"/>
      </defs>
      <g style="fill:#262626;" transform="translate(172.496985 134.197812)scale(0.1 -0.1)">
       <use xlink:href="#ArialMT-31"/>
       <use x="55.615234" xlink:href="#ArialMT-30"/>
      </g>
     </g>
    </g>
    <g id="xtick_6">
     <g id="line2d_6">
      <g>
       <use style="fill:#262626;stroke:#262626;stroke-width:0.8;" x="209.251895" xlink:href="#mc1975024de" y="120.04"/>
      </g>
     </g>
     <g id="text_6">
      <!-- 12 -->
      <g style="fill:#262626;" transform="translate(203.690958 134.197812)scale(0.1 -0.1)">
       <use xlink:href="#ArialMT-31"/>
       <use x="55.615234" xlink:href="#ArialMT-32"/>
      </g>
     </g>
    </g>
    <g id="text_7">
     <!-- pH -->
     <defs>
      <path d="M 6.59375 -19.875 
L 6.59375 51.859375 
L 14.59375 51.859375 
L 14.59375 45.125 
Q 17.4375 49.078125 21 51.046875 
Q 24.5625 53.03125 29.640625 53.03125 
Q 36.28125 53.03125 41.359375 49.609375 
Q 46.4375 46.1875 49.015625 39.953125 
Q 51.609375 33.734375 51.609375 26.3125 
Q 51.609375 18.359375 48.75 11.984375 
Q 45.90625 5.609375 40.453125 2.21875 
Q 35.015625 -1.171875 29 -1.171875 
Q 24.609375 -1.171875 21.109375 0.6875 
Q 17.625 2.546875 15.375 5.375 
L 15.375 -19.875 
z
M 14.546875 25.640625 
Q 14.546875 15.625 18.59375 10.84375 
Q 22.65625 6.0625 28.421875 6.0625 
Q 34.28125 6.0625 38.453125 11.015625 
Q 42.625 15.96875 42.625 26.375 
Q 42.625 36.28125 38.546875 41.203125 
Q 34.46875 46.140625 28.8125 46.140625 
Q 23.1875 46.140625 18.859375 40.890625 
Q 14.546875 35.640625 14.546875 25.640625 
z
" id="ArialMT-70"/>
      <path d="M 8.015625 0 
L 8.015625 71.578125 
L 17.484375 71.578125 
L 17.484375 42.1875 
L 54.6875 42.1875 
L 54.6875 71.578125 
L 64.15625 71.578125 
L 64.15625 0 
L 54.6875 0 
L 54.6875 33.734375 
L 17.484375 33.734375 
L 17.484375 0 
z
" id="ArialMT-48"/>
     </defs>
     <g style="fill:#262626;" transform="translate(124.875558 147.343125)scale(0.1 -0.1)">
      <use xlink:href="#ArialMT-70"/>
      <use x="55.615234" xlink:href="#ArialMT-48"/>
     </g>
    </g>
   </g>
   <g id="matplotlib.axis_2">
    <g id="ytick_1">
     <g id="line2d_7">
      <defs>
       <path d="M 0 0 
L -3.5 0 
" id="m181e9f44ce" style="stroke:#262626;stroke-width:0.8;"/>
      </defs>
      <g>
       <use style="fill:#262626;stroke:#262626;stroke-width:0.8;" x="45.183929" xlink:href="#m181e9f44ce" y="115.505985"/>
      </g>
     </g>
     <g id="text_8">
      <!-- 0 -->
      <g style="fill:#262626;" transform="translate(32.622991 119.084891)scale(0.1 -0.1)">
       <use xlink:href="#ArialMT-30"/>
      </g>
     </g>
    </g>
    <g id="ytick_2">
     <g id="line2d_8">
      <g>
       <use style="fill:#262626;stroke:#262626;stroke-width:0.8;" x="45.183929" xlink:href="#m181e9f44ce" y="72.839031"/>
      </g>
     </g>
     <g id="text_9">
      <!-- 5 -->
      <defs>
       <path d="M 4.15625 18.75 
L 13.375 19.53125 
Q 14.40625 12.796875 18.140625 9.390625 
Q 21.875 6 27.15625 6 
Q 33.5 6 37.890625 10.78125 
Q 42.28125 15.578125 42.28125 23.484375 
Q 42.28125 31 38.0625 35.34375 
Q 33.84375 39.703125 27 39.703125 
Q 22.75 39.703125 19.328125 37.765625 
Q 15.921875 35.84375 13.96875 32.765625 
L 5.71875 33.84375 
L 12.640625 70.609375 
L 48.25 70.609375 
L 48.25 62.203125 
L 19.671875 62.203125 
L 15.828125 42.96875 
Q 22.265625 47.46875 29.34375 47.46875 
Q 38.71875 47.46875 45.15625 40.96875 
Q 51.609375 34.46875 51.609375 24.265625 
Q 51.609375 14.546875 45.953125 7.46875 
Q 39.0625 -1.21875 27.15625 -1.21875 
Q 17.390625 -1.21875 11.203125 4.25 
Q 5.03125 9.71875 4.15625 18.75 
z
" id="ArialMT-35"/>
      </defs>
      <g style="fill:#262626;" transform="translate(32.622991 76.417937)scale(0.1 -0.1)">
       <use xlink:href="#ArialMT-35"/>
      </g>
     </g>
    </g>
    <g id="ytick_3">
     <g id="line2d_9">
      <g>
       <use style="fill:#262626;stroke:#262626;stroke-width:0.8;" x="45.183929" xlink:href="#m181e9f44ce" y="30.172076"/>
      </g>
     </g>
     <g id="text_10">
      <!-- 10 -->
      <g style="fill:#262626;" transform="translate(27.062054 33.750983)scale(0.1 -0.1)">
       <use xlink:href="#ArialMT-31"/>
       <use x="55.615234" xlink:href="#ArialMT-30"/>
      </g>
     </g>
    </g>
    <g id="text_11">
     <!-- Free Energy($k_BT$) -->
     <defs>
      <path d="M 8.203125 0 
L 8.203125 71.578125 
L 56.5 71.578125 
L 56.5 63.140625 
L 17.671875 63.140625 
L 17.671875 40.96875 
L 51.265625 40.96875 
L 51.265625 32.515625 
L 17.671875 32.515625 
L 17.671875 0 
z
" id="ArialMT-46"/>
      <path d="M 6.5 0 
L 6.5 51.859375 
L 14.40625 51.859375 
L 14.40625 44 
Q 17.4375 49.515625 20 51.265625 
Q 22.5625 53.03125 25.640625 53.03125 
Q 30.078125 53.03125 34.671875 50.203125 
L 31.640625 42.046875 
Q 28.421875 43.953125 25.203125 43.953125 
Q 22.3125 43.953125 20.015625 42.21875 
Q 17.71875 40.484375 16.75 37.40625 
Q 15.28125 32.71875 15.28125 27.15625 
L 15.28125 0 
z
" id="ArialMT-72"/>
      <path d="M 42.09375 16.703125 
L 51.171875 15.578125 
Q 49.03125 7.625 43.21875 3.21875 
Q 37.40625 -1.171875 28.375 -1.171875 
Q 17 -1.171875 10.328125 5.828125 
Q 3.65625 12.84375 3.65625 25.484375 
Q 3.65625 38.578125 10.390625 45.796875 
Q 17.140625 53.03125 27.875 53.03125 
Q 38.28125 53.03125 44.875 45.953125 
Q 51.46875 38.875 51.46875 26.03125 
Q 51.46875 25.25 51.421875 23.6875 
L 12.75 23.6875 
Q 13.234375 15.140625 17.578125 10.59375 
Q 21.921875 6.0625 28.421875 6.0625 
Q 33.25 6.0625 36.671875 8.59375 
Q 40.09375 11.140625 42.09375 16.703125 
z
M 13.234375 30.90625 
L 42.1875 30.90625 
Q 41.609375 37.453125 38.875 40.71875 
Q 34.671875 45.796875 27.984375 45.796875 
Q 21.921875 45.796875 17.796875 41.75 
Q 13.671875 37.703125 13.234375 30.90625 
z
" id="ArialMT-65"/>
      <path id="ArialMT-20"/>
      <path d="M 7.90625 0 
L 7.90625 71.578125 
L 59.671875 71.578125 
L 59.671875 63.140625 
L 17.390625 63.140625 
L 17.390625 41.21875 
L 56.984375 41.21875 
L 56.984375 32.8125 
L 17.390625 32.8125 
L 17.390625 8.453125 
L 61.328125 8.453125 
L 61.328125 0 
z
" id="ArialMT-45"/>
      <path d="M 6.59375 0 
L 6.59375 51.859375 
L 14.5 51.859375 
L 14.5 44.484375 
Q 20.21875 53.03125 31 53.03125 
Q 35.6875 53.03125 39.625 51.34375 
Q 43.5625 49.65625 45.515625 46.921875 
Q 47.46875 44.1875 48.25 40.4375 
Q 48.734375 37.984375 48.734375 31.890625 
L 48.734375 0 
L 39.9375 0 
L 39.9375 31.546875 
Q 39.9375 36.921875 38.90625 39.578125 
Q 37.890625 42.234375 35.28125 43.8125 
Q 32.671875 45.40625 29.15625 45.40625 
Q 23.53125 45.40625 19.453125 41.84375 
Q 15.375 38.28125 15.375 28.328125 
L 15.375 0 
z
" id="ArialMT-6e"/>
      <path d="M 4.984375 -4.296875 
L 13.53125 -5.5625 
Q 14.0625 -9.515625 16.5 -11.328125 
Q 19.78125 -13.765625 25.4375 -13.765625 
Q 31.546875 -13.765625 34.859375 -11.328125 
Q 38.1875 -8.890625 39.359375 -4.5 
Q 40.046875 -1.8125 39.984375 6.78125 
Q 34.234375 0 25.640625 0 
Q 14.9375 0 9.078125 7.71875 
Q 3.21875 15.4375 3.21875 26.21875 
Q 3.21875 33.640625 5.90625 39.90625 
Q 8.59375 46.1875 13.6875 49.609375 
Q 18.796875 53.03125 25.6875 53.03125 
Q 34.859375 53.03125 40.828125 45.609375 
L 40.828125 51.859375 
L 48.921875 51.859375 
L 48.921875 7.03125 
Q 48.921875 -5.078125 46.453125 -10.125 
Q 44 -15.1875 38.640625 -18.109375 
Q 33.296875 -21.046875 25.484375 -21.046875 
Q 16.21875 -21.046875 10.5 -16.875 
Q 4.78125 -12.703125 4.984375 -4.296875 
z
M 12.25 26.859375 
Q 12.25 16.65625 16.296875 11.96875 
Q 20.359375 7.28125 26.46875 7.28125 
Q 32.515625 7.28125 36.609375 11.9375 
Q 40.71875 16.609375 40.71875 26.5625 
Q 40.71875 36.078125 36.5 40.90625 
Q 32.28125 45.75 26.3125 45.75 
Q 20.453125 45.75 16.34375 40.984375 
Q 12.25 36.234375 12.25 26.859375 
z
" id="ArialMT-67"/>
      <path d="M 6.203125 -19.96875 
L 5.21875 -11.71875 
Q 8.109375 -12.5 10.25 -12.5 
Q 13.1875 -12.5 14.9375 -11.515625 
Q 16.703125 -10.546875 17.828125 -8.796875 
Q 18.65625 -7.46875 20.515625 -2.25 
Q 20.75 -1.515625 21.296875 -0.09375 
L 1.609375 51.859375 
L 11.078125 51.859375 
L 21.875 21.828125 
Q 23.96875 16.109375 25.640625 9.8125 
Q 27.15625 15.875 29.25 21.625 
L 40.328125 51.859375 
L 49.125 51.859375 
L 29.390625 -0.875 
Q 26.21875 -9.421875 24.46875 -12.640625 
Q 22.125 -17 19.09375 -19.015625 
Q 16.0625 -21.046875 11.859375 -21.046875 
Q 9.328125 -21.046875 6.203125 -19.96875 
z
" id="ArialMT-79"/>
      <path d="M 23.390625 -21.046875 
Q 16.109375 -11.859375 11.078125 0.4375 
Q 6.0625 12.75 6.0625 25.921875 
Q 6.0625 37.546875 9.8125 48.1875 
Q 14.203125 60.546875 23.390625 72.796875 
L 29.6875 72.796875 
Q 23.78125 62.640625 21.875 58.296875 
Q 18.890625 51.5625 17.1875 44.234375 
Q 15.09375 35.109375 15.09375 25.875 
Q 15.09375 2.390625 29.6875 -21.046875 
z
" id="ArialMT-28"/>
      <path d="M 18.3125 75.984375 
L 27.296875 75.984375 
L 18.703125 31.6875 
L 49.515625 54.6875 
L 61.1875 54.6875 
L 26.8125 28.515625 
L 51.90625 0 
L 41.015625 0 
L 17.671875 26.703125 
L 12.5 0 
L 3.515625 0 
z
" id="DejaVuSans-Oblique-6b"/>
      <path d="M 16.890625 72.90625 
L 42.09375 72.90625 
Q 52.34375 72.90625 57.421875 69.09375 
Q 62.5 65.28125 62.5 57.625 
Q 62.5 50.59375 58.125 45.484375 
Q 53.765625 40.375 46.6875 39.3125 
Q 52.734375 37.9375 55.765625 34.078125 
Q 58.796875 30.21875 58.796875 23.78125 
Q 58.796875 12.796875 50.65625 6.390625 
Q 42.53125 0 28.421875 0 
L 2.6875 0 
z
M 19.28125 34.8125 
L 14.109375 8.109375 
L 29.984375 8.109375 
Q 38.921875 8.109375 43.75 12.203125 
Q 48.578125 16.3125 48.578125 23.78125 
Q 48.578125 29.546875 45.375 32.171875 
Q 42.1875 34.8125 35.109375 34.8125 
z
M 25.09375 64.796875 
L 20.796875 42.828125 
L 35.5 42.828125 
Q 43.359375 42.828125 47.78125 46.234375 
Q 52.203125 49.65625 52.203125 55.71875 
Q 52.203125 60.453125 49.21875 62.625 
Q 46.234375 64.796875 39.703125 64.796875 
z
" id="DejaVuSans-Oblique-42"/>
      <path d="M 5.90625 72.90625 
L 67.578125 72.90625 
L 66.015625 64.59375 
L 39.984375 64.59375 
L 27.484375 0 
L 17.578125 0 
L 30.078125 64.59375 
L 4.296875 64.59375 
z
" id="DejaVuSans-Oblique-54"/>
      <path d="M 12.359375 -21.046875 
L 6.0625 -21.046875 
Q 20.65625 2.390625 20.65625 25.875 
Q 20.65625 35.0625 18.5625 44.09375 
Q 16.890625 51.421875 13.921875 58.15625 
Q 12.015625 62.546875 6.0625 72.796875 
L 12.359375 72.796875 
Q 21.53125 60.546875 25.921875 48.1875 
Q 29.6875 37.546875 29.6875 25.921875 
Q 29.6875 12.75 24.625 0.4375 
Q 19.578125 -11.859375 12.359375 -21.046875 
z
" id="ArialMT-29"/>
     </defs>
     <g style="fill:#262626;" transform="translate(20.862054 112.27)rotate(-90)scale(0.1 -0.1)">
      <use transform="translate(0 0.015625)" xlink:href="#ArialMT-46"/>
      <use transform="translate(61.083984 0.015625)" xlink:href="#ArialMT-72"/>
      <use transform="translate(94.384766 0.015625)" xlink:href="#ArialMT-65"/>
      <use transform="translate(150 0.015625)" xlink:href="#ArialMT-65"/>
      <use transform="translate(205.615234 0.015625)" xlink:href="#ArialMT-20"/>
      <use transform="translate(233.398438 0.015625)" xlink:href="#ArialMT-45"/>
      <use transform="translate(300.097656 0.015625)" xlink:href="#ArialMT-6e"/>
      <use transform="translate(355.712891 0.015625)" xlink:href="#ArialMT-65"/>
      <use transform="translate(411.328125 0.015625)" xlink:href="#ArialMT-72"/>
      <use transform="translate(444.628906 0.015625)" xlink:href="#ArialMT-67"/>
      <use transform="translate(500.244141 0.015625)" xlink:href="#ArialMT-79"/>
      <use transform="translate(550.244141 0.015625)" xlink:href="#ArialMT-28"/>
      <use transform="translate(583.544922 0.015625)" xlink:href="#DejaVuSans-Oblique-6b"/>
      <use transform="translate(641.455078 -16.390625)scale(0.7)" xlink:href="#DejaVuSans-Oblique-42"/>
      <use transform="translate(692.211914 0.015625)" xlink:href="#DejaVuSans-Oblique-54"/>
      <use transform="translate(753.295898 0.015625)" xlink:href="#ArialMT-29"/>
     </g>
    </g>
   </g>
   <g id="PathCollection_1">
    <defs>
     <path d="M 0 0.5 
C 0.132602 0.5 0.25979 0.447317 0.353553 0.353553 
C 0.447317 0.25979 0.5 0.132602 0.5 0 
C 0.5 -0.132602 0.447317 -0.25979 0.353553 -0.353553 
C 0.25979 -0.447317 0.132602 -0.5 0 -0.5 
C -0.132602 -0.5 -0.25979 -0.447317 -0.353553 -0.353553 
C -0.447317 -0.25979 -0.5 -0.132602 -0.5 0 
C -0.5 0.132602 -0.447317 0.25979 -0.353553 0.353553 
C -0.25979 0.447317 -0.132602 0.5 0 0.5 
z
" id="mf9411df102" style="stroke:#333333;"/>
    </defs>
    <g clip-path="url(#p7711f65dd4)">
     <use style="fill:#333333;stroke:#333333;" x="53.282032" xlink:href="#mf9411df102" y="83.613201"/>
     <use style="fill:#333333;stroke:#333333;" x="54.841731" xlink:href="#mf9411df102" y="85.651334"/>
     <use style="fill:#333333;stroke:#333333;" x="56.40143" xlink:href="#mf9411df102" y="87.675415"/>
     <use style="fill:#333333;stroke:#333333;" x="57.961128" xlink:href="#mf9411df102" y="89.678702"/>
     <use style="fill:#333333;stroke:#333333;" x="59.520827" xlink:href="#mf9411df102" y="99.329987"/>
     <use style="fill:#333333;stroke:#333333;" x="61.080525" xlink:href="#mf9411df102" y="101.076284"/>
     <use style="fill:#333333;stroke:#333333;" x="62.640224" xlink:href="#mf9411df102" y="102.743786"/>
     <use style="fill:#333333;stroke:#333333;" x="64.199923" xlink:href="#mf9411df102" y="104.322704"/>
     <use style="fill:#333333;stroke:#333333;" x="65.759621" xlink:href="#mf9411df102" y="105.799648"/>
     <use style="fill:#333333;stroke:#333333;" x="67.31932" xlink:href="#mf9411df102" y="107.16366"/>
     <use style="fill:#333333;stroke:#333333;" x="68.879019" xlink:href="#mf9411df102" y="108.408557"/>
     <use style="fill:#333333;stroke:#333333;" x="70.438717" xlink:href="#mf9411df102" y="109.525986"/>
     <use style="fill:#333333;stroke:#333333;" x="71.998416" xlink:href="#mf9411df102" y="110.514108"/>
     <use style="fill:#333333;stroke:#333333;" x="73.558115" xlink:href="#mf9411df102" y="111.375443"/>
     <use style="fill:#333333;stroke:#333333;" x="75.117813" xlink:href="#mf9411df102" y="112.11575"/>
     <use style="fill:#333333;stroke:#333333;" x="76.677512" xlink:href="#mf9411df102" y="112.742693"/>
     <use style="fill:#333333;stroke:#333333;" x="78.23721" xlink:href="#mf9411df102" y="113.266713"/>
     <use style="fill:#333333;stroke:#333333;" x="79.796909" xlink:href="#mf9411df102" y="113.699444"/>
     <use style="fill:#333333;stroke:#333333;" x="81.356608" xlink:href="#mf9411df102" y="114.052606"/>
     <use style="fill:#333333;stroke:#333333;" x="82.916306" xlink:href="#mf9411df102" y="114.338217"/>
     <use style="fill:#333333;stroke:#333333;" x="84.476005" xlink:href="#mf9411df102" y="114.566632"/>
     <use style="fill:#333333;stroke:#333333;" x="86.035704" xlink:href="#mf9411df102" y="114.747249"/>
     <use style="fill:#333333;stroke:#333333;" x="87.595402" xlink:href="#mf9411df102" y="114.888122"/>
     <use style="fill:#333333;stroke:#333333;" x="89.155101" xlink:href="#mf9411df102" y="114.995851"/>
     <use style="fill:#333333;stroke:#333333;" x="90.714799" xlink:href="#mf9411df102" y="115.075948"/>
     <use style="fill:#333333;stroke:#333333;" x="92.274498" xlink:href="#mf9411df102" y="115.132453"/>
     <use style="fill:#333333;stroke:#333333;" x="93.834197" xlink:href="#mf9411df102" y="115.168326"/>
     <use style="fill:#333333;stroke:#333333;" x="95.393895" xlink:href="#mf9411df102" y="115.185462"/>
     <use style="fill:#333333;stroke:#333333;" x="96.953594" xlink:href="#mf9411df102" y="115.184862"/>
     <use style="fill:#333333;stroke:#333333;" x="98.513293" xlink:href="#mf9411df102" y="115.166456"/>
     <use style="fill:#333333;stroke:#333333;" x="100.072991" xlink:href="#mf9411df102" y="115.129234"/>
     <use style="fill:#333333;stroke:#333333;" x="101.63269" xlink:href="#mf9411df102" y="115.07129"/>
     <use style="fill:#333333;stroke:#333333;" x="103.192388" xlink:href="#mf9411df102" y="114.989452"/>
     <use style="fill:#333333;stroke:#333333;" x="104.752087" xlink:href="#mf9411df102" y="114.879659"/>
     <use style="fill:#333333;stroke:#333333;" x="106.311786" xlink:href="#mf9411df102" y="114.736311"/>
     <use style="fill:#333333;stroke:#333333;" x="107.871484" xlink:href="#mf9411df102" y="114.552711"/>
     <use style="fill:#333333;stroke:#333333;" x="109.431183" xlink:href="#mf9411df102" y="114.320723"/>
     <use style="fill:#333333;stroke:#333333;" x="110.990882" xlink:href="#mf9411df102" y="114.031073"/>
     <use style="fill:#333333;stroke:#333333;" x="112.55058" xlink:href="#mf9411df102" y="113.672669"/>
     <use style="fill:#333333;stroke:#333333;" x="114.110279" xlink:href="#mf9411df102" y="113.234111"/>
     <use style="fill:#333333;stroke:#333333;" x="115.669978" xlink:href="#mf9411df102" y="112.703452"/>
     <use style="fill:#333333;stroke:#333333;" x="117.229676" xlink:href="#mf9411df102" y="112.069587"/>
     <use style="fill:#333333;stroke:#333333;" x="118.789375" xlink:href="#mf9411df102" y="111.320766"/>
     <use style="fill:#333333;stroke:#333333;" x="120.349073" xlink:href="#mf9411df102" y="110.450934"/>
     <use style="fill:#333333;stroke:#333333;" x="121.908772" xlink:href="#mf9411df102" y="109.454079"/>
     <use style="fill:#333333;stroke:#333333;" x="123.468471" xlink:href="#mf9411df102" y="108.327937"/>
     <use style="fill:#333333;stroke:#333333;" x="125.028169" xlink:href="#mf9411df102" y="107.074596"/>
     <use style="fill:#333333;stroke:#333333;" x="126.587868" xlink:href="#mf9411df102" y="105.702652"/>
     <use style="fill:#333333;stroke:#333333;" x="128.147567" xlink:href="#mf9411df102" y="104.218435"/>
     <use style="fill:#333333;stroke:#333333;" x="129.707265" xlink:href="#mf9411df102" y="102.633032"/>
     <use style="fill:#333333;stroke:#333333;" x="131.266964" xlink:href="#mf9411df102" y="100.959871"/>
     <use style="fill:#333333;stroke:#333333;" x="132.826662" xlink:href="#mf9411df102" y="99.207497"/>
     <use style="fill:#333333;stroke:#333333;" x="134.386361" xlink:href="#mf9411df102" y="97.393605"/>
     <use style="fill:#333333;stroke:#333333;" x="135.94606" xlink:href="#mf9411df102" y="95.522724"/>
     <use style="fill:#333333;stroke:#333333;" x="137.505758" xlink:href="#mf9411df102" y="93.606844"/>
     <use style="fill:#333333;stroke:#333333;" x="139.065457" xlink:href="#mf9411df102" y="91.654223"/>
     <use style="fill:#333333;stroke:#333333;" x="140.625156" xlink:href="#mf9411df102" y="89.671865"/>
     <use style="fill:#333333;stroke:#333333;" x="142.184854" xlink:href="#mf9411df102" y="87.665609"/>
     <use style="fill:#333333;stroke:#333333;" x="143.744553" xlink:href="#mf9411df102" y="85.640252"/>
     <use style="fill:#333333;stroke:#333333;" x="145.304251" xlink:href="#mf9411df102" y="83.601107"/>
     <use style="fill:#333333;stroke:#333333;" x="146.86395" xlink:href="#mf9411df102" y="89.794874"/>
     <use style="fill:#333333;stroke:#333333;" x="148.423649" xlink:href="#mf9411df102" y="87.789701"/>
     <use style="fill:#333333;stroke:#333333;" x="149.983347" xlink:href="#mf9411df102" y="85.763813"/>
     <use style="fill:#333333;stroke:#333333;" x="151.543046" xlink:href="#mf9411df102" y="83.725345"/>
     <use style="fill:#333333;stroke:#333333;" x="153.102745" xlink:href="#mf9411df102" y="81.673292"/>
     <use style="fill:#333333;stroke:#333333;" x="154.662443" xlink:href="#mf9411df102" y="79.613023"/>
     <use style="fill:#333333;stroke:#333333;" x="156.222142" xlink:href="#mf9411df102" y="77.543741"/>
     <use style="fill:#333333;stroke:#333333;" x="157.781841" xlink:href="#mf9411df102" y="75.468476"/>
     <use style="fill:#333333;stroke:#333333;" x="159.341539" xlink:href="#mf9411df102" y="73.388505"/>
     <use style="fill:#333333;stroke:#333333;" x="160.901238" xlink:href="#mf9411df102" y="71.304841"/>
     <use style="fill:#333333;stroke:#333333;" x="162.460936" xlink:href="#mf9411df102" y="69.218277"/>
     <use style="fill:#333333;stroke:#333333;" x="164.020635" xlink:href="#mf9411df102" y="67.129441"/>
     <use style="fill:#333333;stroke:#333333;" x="165.580334" xlink:href="#mf9411df102" y="65.040261"/>
     <use style="fill:#333333;stroke:#333333;" x="167.140032" xlink:href="#mf9411df102" y="62.949687"/>
     <use style="fill:#333333;stroke:#333333;" x="168.699731" xlink:href="#mf9411df102" y="60.856583"/>
     <use style="fill:#333333;stroke:#333333;" x="170.25943" xlink:href="#mf9411df102" y="58.762624"/>
     <use style="fill:#333333;stroke:#333333;" x="171.819128" xlink:href="#mf9411df102" y="56.667996"/>
     <use style="fill:#333333;stroke:#333333;" x="173.378827" xlink:href="#mf9411df102" y="54.574282"/>
     <use style="fill:#333333;stroke:#333333;" x="174.938525" xlink:href="#mf9411df102" y="52.47872"/>
     <use style="fill:#333333;stroke:#333333;" x="176.498224" xlink:href="#mf9411df102" y="50.382837"/>
     <use style="fill:#333333;stroke:#333333;" x="178.057923" xlink:href="#mf9411df102" y="48.286703"/>
     <use style="fill:#333333;stroke:#333333;" x="179.617621" xlink:href="#mf9411df102" y="46.191812"/>
     <use style="fill:#333333;stroke:#333333;" x="181.17732" xlink:href="#mf9411df102" y="44.093888"/>
     <use style="fill:#333333;stroke:#333333;" x="182.737019" xlink:href="#mf9411df102" y="41.998724"/>
     <use style="fill:#333333;stroke:#333333;" x="184.296717" xlink:href="#mf9411df102" y="39.902026"/>
     <use style="fill:#333333;stroke:#333333;" x="185.856416" xlink:href="#mf9411df102" y="37.806694"/>
     <use style="fill:#333333;stroke:#333333;" x="187.416114" xlink:href="#mf9411df102" y="35.709865"/>
     <use style="fill:#333333;stroke:#333333;" x="188.975813" xlink:href="#mf9411df102" y="33.61155"/>
     <use style="fill:#333333;stroke:#333333;" x="190.535512" xlink:href="#mf9411df102" y="31.516081"/>
    </g>
   </g>
   <g id="PathCollection_2">
    <defs>
     <path d="M 0 0.5 
C 0.132602 0.5 0.25979 0.447317 0.353553 0.353553 
C 0.447317 0.25979 0.5 0.132602 0.5 0 
C 0.5 -0.132602 0.447317 -0.25979 0.353553 -0.353553 
C 0.25979 -0.447317 0.132602 -0.5 0 -0.5 
C -0.132602 -0.5 -0.25979 -0.447317 -0.353553 -0.353553 
C -0.447317 -0.25979 -0.5 -0.132602 -0.5 0 
C -0.5 0.132602 -0.447317 0.25979 -0.353553 0.353553 
C -0.25979 0.447317 -0.132602 0.5 0 0.5 
z
" id="m125e5cab4a" style="stroke:#92c5de;"/>
    </defs>
    <g clip-path="url(#p7711f65dd4)">
     <use style="fill:#92c5de;stroke:#92c5de;" x="53.282032" xlink:href="#m125e5cab4a" y="115.2963"/>
     <use style="fill:#92c5de;stroke:#92c5de;" x="54.841731" xlink:href="#m125e5cab4a" y="115.238838"/>
     <use style="fill:#92c5de;stroke:#92c5de;" x="56.40143" xlink:href="#m125e5cab4a" y="115.165883"/>
     <use style="fill:#92c5de;stroke:#92c5de;" x="57.961128" xlink:href="#m125e5cab4a" y="115.073575"/>
     <use style="fill:#92c5de;stroke:#92c5de;" x="59.520827" xlink:href="#m125e5cab4a" y="114.112937"/>
     <use style="fill:#92c5de;stroke:#92c5de;" x="61.080525" xlink:href="#m125e5cab4a" y="113.762198"/>
     <use style="fill:#92c5de;stroke:#92c5de;" x="62.640224" xlink:href="#m125e5cab4a" y="113.334104"/>
     <use style="fill:#92c5de;stroke:#92c5de;" x="64.199923" xlink:href="#m125e5cab4a" y="112.815987"/>
     <use style="fill:#92c5de;stroke:#92c5de;" x="65.759621" xlink:href="#m125e5cab4a" y="112.195895"/>
     <use style="fill:#92c5de;stroke:#92c5de;" x="67.31932" xlink:href="#m125e5cab4a" y="111.464312"/>
     <use style="fill:#92c5de;stroke:#92c5de;" x="68.879019" xlink:href="#m125e5cab4a" y="110.610732"/>
     <use style="fill:#92c5de;stroke:#92c5de;" x="70.438717" xlink:href="#m125e5cab4a" y="109.631126"/>
     <use style="fill:#92c5de;stroke:#92c5de;" x="71.998416" xlink:href="#m125e5cab4a" y="108.523652"/>
     <use style="fill:#92c5de;stroke:#92c5de;" x="73.558115" xlink:href="#m125e5cab4a" y="107.289392"/>
     <use style="fill:#92c5de;stroke:#92c5de;" x="75.117813" xlink:href="#m125e5cab4a" y="105.932663"/>
     <use style="fill:#92c5de;stroke:#92c5de;" x="76.677512" xlink:href="#m125e5cab4a" y="104.46257"/>
     <use style="fill:#92c5de;stroke:#92c5de;" x="78.23721" xlink:href="#m125e5cab4a" y="102.889554"/>
     <use style="fill:#92c5de;stroke:#92c5de;" x="79.796909" xlink:href="#m125e5cab4a" y="101.22525"/>
     <use style="fill:#92c5de;stroke:#92c5de;" x="81.356608" xlink:href="#m125e5cab4a" y="99.482817"/>
     <use style="fill:#92c5de;stroke:#92c5de;" x="82.916306" xlink:href="#m125e5cab4a" y="97.671392"/>
     <use style="fill:#92c5de;stroke:#92c5de;" x="84.476005" xlink:href="#m125e5cab4a" y="95.802771"/>
     <use style="fill:#92c5de;stroke:#92c5de;" x="86.035704" xlink:href="#m125e5cab4a" y="93.886353"/>
     <use style="fill:#92c5de;stroke:#92c5de;" x="87.595402" xlink:href="#m125e5cab4a" y="91.930189"/>
     <use style="fill:#92c5de;stroke:#92c5de;" x="89.155101" xlink:href="#m125e5cab4a" y="89.942323"/>
     <use style="fill:#92c5de;stroke:#92c5de;" x="90.714799" xlink:href="#m125e5cab4a" y="87.925384"/>
     <use style="fill:#92c5de;stroke:#92c5de;" x="92.274498" xlink:href="#m125e5cab4a" y="85.884854"/>
     <use style="fill:#92c5de;stroke:#92c5de;" x="93.834197" xlink:href="#m125e5cab4a" y="83.82369"/>
     <use style="fill:#92c5de;stroke:#92c5de;" x="95.393895" xlink:href="#m125e5cab4a" y="81.745231"/>
     <use style="fill:#92c5de;stroke:#92c5de;" x="96.953594" xlink:href="#m125e5cab4a" y="79.647596"/>
     <use style="fill:#92c5de;stroke:#92c5de;" x="98.513293" xlink:href="#m125e5cab4a" y="77.532154"/>
     <use style="fill:#92c5de;stroke:#92c5de;" x="100.072991" xlink:href="#m125e5cab4a" y="75.399337"/>
     <use style="fill:#92c5de;stroke:#92c5de;" x="101.63269" xlink:href="#m125e5cab4a" y="73.244356"/>
     <use style="fill:#92c5de;stroke:#92c5de;" x="103.192388" xlink:href="#m125e5cab4a" y="71.065482"/>
     <use style="fill:#92c5de;stroke:#92c5de;" x="104.752087" xlink:href="#m125e5cab4a" y="68.858654"/>
     <use style="fill:#92c5de;stroke:#92c5de;" x="106.311786" xlink:href="#m125e5cab4a" y="66.61827"/>
     <use style="fill:#92c5de;stroke:#92c5de;" x="107.871484" xlink:href="#m125e5cab4a" y="64.339075"/>
     <use style="fill:#92c5de;stroke:#92c5de;" x="109.431183" xlink:href="#m125e5cab4a" y="62.010051"/>
     <use style="fill:#92c5de;stroke:#92c5de;" x="110.990882" xlink:href="#m125e5cab4a" y="59.623366"/>
     <use style="fill:#92c5de;stroke:#92c5de;" x="112.55058" xlink:href="#m125e5cab4a" y="57.167926"/>
     <use style="fill:#92c5de;stroke:#92c5de;" x="114.110279" xlink:href="#m125e5cab4a" y="54.632331"/>
     <use style="fill:#92c5de;stroke:#92c5de;" x="115.669978" xlink:href="#m125e5cab4a" y="52.006077"/>
     <use style="fill:#92c5de;stroke:#92c5de;" x="117.229676" xlink:href="#m125e5cab4a" y="49.275176"/>
     <use style="fill:#92c5de;stroke:#92c5de;" x="118.789375" xlink:href="#m125e5cab4a" y="46.43076"/>
     <use style="fill:#92c5de;stroke:#92c5de;" x="120.349073" xlink:href="#m125e5cab4a" y="43.463892"/>
     <use style="fill:#92c5de;stroke:#92c5de;" x="121.908772" xlink:href="#m125e5cab4a" y="40.368561"/>
     <use style="fill:#92c5de;stroke:#92c5de;" x="123.468471" xlink:href="#m125e5cab4a" y="37.146823"/>
     <use style="fill:#92c5de;stroke:#92c5de;" x="125.028169" xlink:href="#m125e5cab4a" y="33.797888"/>
     <use style="fill:#92c5de;stroke:#92c5de;" x="126.587868" xlink:href="#m125e5cab4a" y="30.328908"/>
    </g>
   </g>
   <g id="PathCollection_3">
    <g clip-path="url(#p7711f65dd4)">
     <use style="fill:#333333;stroke:#333333;" x="53.282032" xlink:href="#mf9411df102" y="49.880595"/>
     <use style="fill:#333333;stroke:#333333;" x="54.841731" xlink:href="#mf9411df102" y="51.918728"/>
     <use style="fill:#333333;stroke:#333333;" x="56.40143" xlink:href="#mf9411df102" y="53.942809"/>
     <use style="fill:#333333;stroke:#333333;" x="57.961128" xlink:href="#mf9411df102" y="55.947536"/>
     <use style="fill:#333333;stroke:#333333;" x="59.520827" xlink:href="#mf9411df102" y="48.569047"/>
     <use style="fill:#333333;stroke:#333333;" x="61.080525" xlink:href="#mf9411df102" y="50.316784"/>
     <use style="fill:#333333;stroke:#333333;" x="62.640224" xlink:href="#mf9411df102" y="51.984286"/>
     <use style="fill:#333333;stroke:#333333;" x="64.199923" xlink:href="#mf9411df102" y="53.563205"/>
     <use style="fill:#333333;stroke:#333333;" x="65.759621" xlink:href="#mf9411df102" y="55.040148"/>
     <use style="fill:#333333;stroke:#333333;" x="67.31932" xlink:href="#mf9411df102" y="56.404161"/>
     <use style="fill:#333333;stroke:#333333;" x="68.879019" xlink:href="#mf9411df102" y="57.649057"/>
     <use style="fill:#333333;stroke:#333333;" x="70.438717" xlink:href="#mf9411df102" y="58.765046"/>
     <use style="fill:#333333;stroke:#333333;" x="71.998416" xlink:href="#mf9411df102" y="59.754609"/>
     <use style="fill:#333333;stroke:#333333;" x="73.558115" xlink:href="#mf9411df102" y="60.615944"/>
     <use style="fill:#333333;stroke:#333333;" x="75.117813" xlink:href="#mf9411df102" y="61.35625"/>
     <use style="fill:#333333;stroke:#333333;" x="76.677512" xlink:href="#mf9411df102" y="61.983193"/>
     <use style="fill:#333333;stroke:#333333;" x="78.23721" xlink:href="#mf9411df102" y="62.507213"/>
     <use style="fill:#333333;stroke:#333333;" x="79.796909" xlink:href="#mf9411df102" y="62.939945"/>
     <use style="fill:#333333;stroke:#333333;" x="81.356608" xlink:href="#mf9411df102" y="63.293107"/>
     <use style="fill:#333333;stroke:#333333;" x="82.916306" xlink:href="#mf9411df102" y="63.578718"/>
     <use style="fill:#333333;stroke:#333333;" x="84.476005" xlink:href="#mf9411df102" y="63.807133"/>
     <use style="fill:#333333;stroke:#333333;" x="86.035704" xlink:href="#mf9411df102" y="63.98775"/>
     <use style="fill:#333333;stroke:#333333;" x="87.595402" xlink:href="#mf9411df102" y="64.128622"/>
     <use style="fill:#333333;stroke:#333333;" x="89.155101" xlink:href="#mf9411df102" y="64.236352"/>
     <use style="fill:#333333;stroke:#333333;" x="90.714799" xlink:href="#mf9411df102" y="64.316449"/>
     <use style="fill:#333333;stroke:#333333;" x="92.274498" xlink:href="#mf9411df102" y="64.372954"/>
     <use style="fill:#333333;stroke:#333333;" x="93.834197" xlink:href="#mf9411df102" y="64.407386"/>
     <use style="fill:#333333;stroke:#333333;" x="95.393895" xlink:href="#mf9411df102" y="64.425962"/>
     <use style="fill:#333333;stroke:#333333;" x="96.953594" xlink:href="#mf9411df102" y="64.425363"/>
     <use style="fill:#333333;stroke:#333333;" x="98.513293" xlink:href="#mf9411df102" y="64.406957"/>
     <use style="fill:#333333;stroke:#333333;" x="100.072991" xlink:href="#mf9411df102" y="64.369735"/>
     <use style="fill:#333333;stroke:#333333;" x="101.63269" xlink:href="#mf9411df102" y="64.31179"/>
     <use style="fill:#333333;stroke:#333333;" x="103.192388" xlink:href="#mf9411df102" y="64.229952"/>
     <use style="fill:#333333;stroke:#333333;" x="104.752087" xlink:href="#mf9411df102" y="64.12016"/>
     <use style="fill:#333333;stroke:#333333;" x="106.311786" xlink:href="#mf9411df102" y="63.976812"/>
     <use style="fill:#333333;stroke:#333333;" x="107.871484" xlink:href="#mf9411df102" y="63.793212"/>
     <use style="fill:#333333;stroke:#333333;" x="109.431183" xlink:href="#mf9411df102" y="63.561224"/>
     <use style="fill:#333333;stroke:#333333;" x="110.990882" xlink:href="#mf9411df102" y="63.271574"/>
     <use style="fill:#333333;stroke:#333333;" x="112.55058" xlink:href="#mf9411df102" y="62.91317"/>
     <use style="fill:#333333;stroke:#333333;" x="114.110279" xlink:href="#mf9411df102" y="62.474611"/>
     <use style="fill:#333333;stroke:#333333;" x="115.669978" xlink:href="#mf9411df102" y="61.943952"/>
     <use style="fill:#333333;stroke:#333333;" x="117.229676" xlink:href="#mf9411df102" y="61.310087"/>
     <use style="fill:#333333;stroke:#333333;" x="118.789375" xlink:href="#mf9411df102" y="60.561267"/>
     <use style="fill:#333333;stroke:#333333;" x="120.349073" xlink:href="#mf9411df102" y="59.691435"/>
     <use style="fill:#333333;stroke:#333333;" x="121.908772" xlink:href="#mf9411df102" y="58.69458"/>
     <use style="fill:#333333;stroke:#333333;" x="123.468471" xlink:href="#mf9411df102" y="57.568437"/>
     <use style="fill:#333333;stroke:#333333;" x="125.028169" xlink:href="#mf9411df102" y="56.315097"/>
     <use style="fill:#333333;stroke:#333333;" x="126.587868" xlink:href="#mf9411df102" y="54.943153"/>
     <use style="fill:#333333;stroke:#333333;" x="128.147567" xlink:href="#mf9411df102" y="53.458936"/>
     <use style="fill:#333333;stroke:#333333;" x="129.707265" xlink:href="#mf9411df102" y="51.873533"/>
     <use style="fill:#333333;stroke:#333333;" x="131.266964" xlink:href="#mf9411df102" y="50.200372"/>
     <use style="fill:#333333;stroke:#333333;" x="132.826662" xlink:href="#mf9411df102" y="48.447998"/>
     <use style="fill:#333333;stroke:#333333;" x="134.386361" xlink:href="#mf9411df102" y="46.632666"/>
     <use style="fill:#333333;stroke:#333333;" x="135.94606" xlink:href="#mf9411df102" y="44.763225"/>
     <use style="fill:#333333;stroke:#333333;" x="137.505758" xlink:href="#mf9411df102" y="42.847344"/>
     <use style="fill:#333333;stroke:#333333;" x="139.065457" xlink:href="#mf9411df102" y="40.894723"/>
     <use style="fill:#333333;stroke:#333333;" x="140.625156" xlink:href="#mf9411df102" y="38.912366"/>
     <use style="fill:#333333;stroke:#333333;" x="142.184854" xlink:href="#mf9411df102" y="36.906109"/>
     <use style="fill:#333333;stroke:#333333;" x="143.744553" xlink:href="#mf9411df102" y="34.880753"/>
     <use style="fill:#333333;stroke:#333333;" x="145.304251" xlink:href="#mf9411df102" y="32.841608"/>
    </g>
   </g>
   <g id="PathCollection_4">
    <defs>
     <path d="M 0 0.5 
C 0.132602 0.5 0.25979 0.447317 0.353553 0.353553 
C 0.447317 0.25979 0.5 0.132602 0.5 0 
C 0.5 -0.132602 0.447317 -0.25979 0.353553 -0.353553 
C 0.25979 -0.447317 0.132602 -0.5 0 -0.5 
C -0.132602 -0.5 -0.25979 -0.447317 -0.353553 -0.353553 
C -0.447317 -0.25979 -0.5 -0.132602 -0.5 0 
C -0.5 0.132602 -0.447317 0.25979 -0.353553 0.353553 
C -0.25979 0.447317 -0.132602 0.5 0 0.5 
z
" id="m9d59662c55" style="stroke:#f4a582;"/>
    </defs>
    <g clip-path="url(#p7711f65dd4)">
     <use style="fill:#f4a582;stroke:#f4a582;" x="65.759621" xlink:href="#m9d59662c55" y="30.56705"/>
     <use style="fill:#f4a582;stroke:#f4a582;" x="67.31932" xlink:href="#m9d59662c55" y="34.028098"/>
     <use style="fill:#f4a582;stroke:#f4a582;" x="68.879019" xlink:href="#m9d59662c55" y="37.37003"/>
     <use style="fill:#f4a582;stroke:#f4a582;" x="70.438717" xlink:href="#m9d59662c55" y="40.583055"/>
     <use style="fill:#f4a582;stroke:#f4a582;" x="71.998416" xlink:href="#m9d59662c55" y="43.668213"/>
     <use style="fill:#f4a582;stroke:#f4a582;" x="73.558115" xlink:href="#m9d59662c55" y="46.626584"/>
     <use style="fill:#f4a582;stroke:#f4a582;" x="75.117813" xlink:href="#m9d59662c55" y="49.463926"/>
     <use style="fill:#f4a582;stroke:#f4a582;" x="76.677512" xlink:href="#m9d59662c55" y="52.187905"/>
     <use style="fill:#f4a582;stroke:#f4a582;" x="78.23721" xlink:href="#m9d59662c55" y="54.808961"/>
     <use style="fill:#f4a582;stroke:#f4a582;" x="79.796909" xlink:href="#m9d59662c55" y="57.337288"/>
     <use style="fill:#f4a582;stroke:#f4a582;" x="81.356608" xlink:href="#m9d59662c55" y="59.787486"/>
     <use style="fill:#f4a582;stroke:#f4a582;" x="82.916306" xlink:href="#m9d59662c55" y="62.170132"/>
     <use style="fill:#f4a582;stroke:#f4a582;" x="84.476005" xlink:href="#m9d59662c55" y="64.494142"/>
     <use style="fill:#f4a582;stroke:#f4a582;" x="86.035704" xlink:href="#m9d59662c55" y="66.771796"/>
     <use style="fill:#f4a582;stroke:#f4a582;" x="87.595402" xlink:href="#m9d59662c55" y="69.009704"/>
     <use style="fill:#f4a582;stroke:#f4a582;" x="89.155101" xlink:href="#m9d59662c55" y="71.214468"/>
     <use style="fill:#f4a582;stroke:#f4a582;" x="90.714799" xlink:href="#m9d59662c55" y="73.391601"/>
     <use style="fill:#f4a582;stroke:#f4a582;" x="92.274498" xlink:href="#m9d59662c55" y="75.543702"/>
     <use style="fill:#f4a582;stroke:#f4a582;" x="93.834197" xlink:href="#m9d59662c55" y="77.67661"/>
     <use style="fill:#f4a582;stroke:#f4a582;" x="95.393895" xlink:href="#m9d59662c55" y="79.790782"/>
     <use style="fill:#f4a582;stroke:#f4a582;" x="96.953594" xlink:href="#m9d59662c55" y="81.887218"/>
     <use style="fill:#f4a582;stroke:#f4a582;" x="98.513293" xlink:href="#m9d59662c55" y="83.965848"/>
     <use style="fill:#f4a582;stroke:#f4a582;" x="100.072991" xlink:href="#m9d59662c55" y="86.025662"/>
     <use style="fill:#f4a582;stroke:#f4a582;" x="101.63269" xlink:href="#m9d59662c55" y="88.063313"/>
     <use style="fill:#f4a582;stroke:#f4a582;" x="103.192388" xlink:href="#m9d59662c55" y="90.07851"/>
     <use style="fill:#f4a582;stroke:#f4a582;" x="104.752087" xlink:href="#m9d59662c55" y="92.064313"/>
     <use style="fill:#f4a582;stroke:#f4a582;" x="106.311786" xlink:href="#m9d59662c55" y="94.018001"/>
     <use style="fill:#f4a582;stroke:#f4a582;" x="107.871484" xlink:href="#m9d59662c55" y="95.931437"/>
     <use style="fill:#f4a582;stroke:#f4a582;" x="109.431183" xlink:href="#m9d59662c55" y="97.796485"/>
     <use style="fill:#f4a582;stroke:#f4a582;" x="110.990882" xlink:href="#m9d59662c55" y="99.60243"/>
     <use style="fill:#f4a582;stroke:#f4a582;" x="112.55058" xlink:href="#m9d59662c55" y="101.341062"/>
     <use style="fill:#f4a582;stroke:#f4a582;" x="114.110279" xlink:href="#m9d59662c55" y="102.999539"/>
     <use style="fill:#f4a582;stroke:#f4a582;" x="115.669978" xlink:href="#m9d59662c55" y="104.565916"/>
     <use style="fill:#f4a582;stroke:#f4a582;" x="117.229676" xlink:href="#m9d59662c55" y="106.027646"/>
     <use style="fill:#f4a582;stroke:#f4a582;" x="118.789375" xlink:href="#m9d59662c55" y="107.377302"/>
     <use style="fill:#f4a582;stroke:#f4a582;" x="120.349073" xlink:href="#m9d59662c55" y="108.603065"/>
     <use style="fill:#f4a582;stroke:#f4a582;" x="121.908772" xlink:href="#m9d59662c55" y="109.701806"/>
     <use style="fill:#f4a582;stroke:#f4a582;" x="123.468471" xlink:href="#m9d59662c55" y="110.672699"/>
     <use style="fill:#f4a582;stroke:#f4a582;" x="125.028169" xlink:href="#m9d59662c55" y="111.517835"/>
     <use style="fill:#f4a582;stroke:#f4a582;" x="126.587868" xlink:href="#m9d59662c55" y="112.241486"/>
     <use style="fill:#f4a582;stroke:#f4a582;" x="128.147567" xlink:href="#m9d59662c55" y="112.854305"/>
     <use style="fill:#f4a582;stroke:#f4a582;" x="129.707265" xlink:href="#m9d59662c55" y="113.365938"/>
     <use style="fill:#f4a582;stroke:#f4a582;" x="131.266964" xlink:href="#m9d59662c55" y="113.788372"/>
     <use style="fill:#f4a582;stroke:#f4a582;" x="132.826662" xlink:href="#m9d59662c55" y="114.134474"/>
     <use style="fill:#f4a582;stroke:#f4a582;" x="134.386361" xlink:href="#m9d59662c55" y="114.414738"/>
     <use style="fill:#f4a582;stroke:#f4a582;" x="135.94606" xlink:href="#m9d59662c55" y="114.640892"/>
     <use style="fill:#f4a582;stroke:#f4a582;" x="137.505758" xlink:href="#m9d59662c55" y="114.822047"/>
     <use style="fill:#f4a582;stroke:#f4a582;" x="139.065457" xlink:href="#m9d59662c55" y="114.966462"/>
     <use style="fill:#f4a582;stroke:#f4a582;" x="140.625156" xlink:href="#m9d59662c55" y="115.081141"/>
     <use style="fill:#f4a582;stroke:#f4a582;" x="142.184854" xlink:href="#m9d59662c55" y="115.17192"/>
     <use style="fill:#f4a582;stroke:#f4a582;" x="143.744553" xlink:href="#m9d59662c55" y="115.243599"/>
     <use style="fill:#f4a582;stroke:#f4a582;" x="145.304251" xlink:href="#m9d59662c55" y="115.30005"/>
     <use style="fill:#f4a582;stroke:#f4a582;" x="146.86395" xlink:href="#m9d59662c55" y="115.075965"/>
     <use style="fill:#f4a582;stroke:#f4a582;" x="148.423649" xlink:href="#m9d59662c55" y="115.167828"/>
     <use style="fill:#f4a582;stroke:#f4a582;" x="149.983347" xlink:href="#m9d59662c55" y="115.240416"/>
     <use style="fill:#f4a582;stroke:#f4a582;" x="151.543046" xlink:href="#m9d59662c55" y="115.297543"/>
     <use style="fill:#f4a582;stroke:#f4a582;" x="153.102745" xlink:href="#m9d59662c55" y="115.342526"/>
     <use style="fill:#f4a582;stroke:#f4a582;" x="154.662443" xlink:href="#m9d59662c55" y="115.377853"/>
     <use style="fill:#f4a582;stroke:#f4a582;" x="156.222142" xlink:href="#m9d59662c55" y="115.405607"/>
     <use style="fill:#f4a582;stroke:#f4a582;" x="157.781841" xlink:href="#m9d59662c55" y="115.427377"/>
     <use style="fill:#f4a582;stroke:#f4a582;" x="159.341539" xlink:href="#m9d59662c55" y="115.444442"/>
     <use style="fill:#f4a582;stroke:#f4a582;" x="160.901238" xlink:href="#m9d59662c55" y="115.457813"/>
     <use style="fill:#f4a582;stroke:#f4a582;" x="162.460936" xlink:href="#m9d59662c55" y="115.468286"/>
     <use style="fill:#f4a582;stroke:#f4a582;" x="164.020635" xlink:href="#m9d59662c55" y="115.476485"/>
     <use style="fill:#f4a582;stroke:#f4a582;" x="165.580334" xlink:href="#m9d59662c55" y="115.4829"/>
     <use style="fill:#f4a582;stroke:#f4a582;" x="167.140032" xlink:href="#m9d59662c55" y="115.487921"/>
     <use style="fill:#f4a582;stroke:#f4a582;" x="168.699731" xlink:href="#m9d59662c55" y="115.491854"/>
     <use style="fill:#f4a582;stroke:#f4a582;" x="170.25943" xlink:href="#m9d59662c55" y="115.494931"/>
     <use style="fill:#f4a582;stroke:#f4a582;" x="171.819128" xlink:href="#m9d59662c55" y="115.497338"/>
     <use style="fill:#f4a582;stroke:#f4a582;" x="173.378827" xlink:href="#m9d59662c55" y="115.49922"/>
     <use style="fill:#f4a582;stroke:#f4a582;" x="174.938525" xlink:href="#m9d59662c55" y="115.500694"/>
     <use style="fill:#f4a582;stroke:#f4a582;" x="176.498224" xlink:href="#m9d59662c55" y="115.501846"/>
     <use style="fill:#f4a582;stroke:#f4a582;" x="178.057923" xlink:href="#m9d59662c55" y="115.502748"/>
     <use style="fill:#f4a582;stroke:#f4a582;" x="179.617621" xlink:href="#m9d59662c55" y="115.503453"/>
     <use style="fill:#f4a582;stroke:#f4a582;" x="181.17732" xlink:href="#m9d59662c55" y="115.504005"/>
     <use style="fill:#f4a582;stroke:#f4a582;" x="182.737019" xlink:href="#m9d59662c55" y="115.504436"/>
     <use style="fill:#f4a582;stroke:#f4a582;" x="184.296717" xlink:href="#m9d59662c55" y="115.504773"/>
     <use style="fill:#f4a582;stroke:#f4a582;" x="185.856416" xlink:href="#m9d59662c55" y="115.505037"/>
     <use style="fill:#f4a582;stroke:#f4a582;" x="187.416114" xlink:href="#m9d59662c55" y="115.505244"/>
     <use style="fill:#f4a582;stroke:#f4a582;" x="188.975813" xlink:href="#m9d59662c55" y="115.505405"/>
     <use style="fill:#f4a582;stroke:#f4a582;" x="190.535512" xlink:href="#m9d59662c55" y="115.505532"/>
     <use style="fill:#f4a582;stroke:#f4a582;" x="192.09521" xlink:href="#m9d59662c55" y="115.505985"/>
     <use style="fill:#f4a582;stroke:#f4a582;" x="193.654909" xlink:href="#m9d59662c55" y="115.505985"/>
     <use style="fill:#f4a582;stroke:#f4a582;" x="195.214608" xlink:href="#m9d59662c55" y="115.505985"/>
     <use style="fill:#f4a582;stroke:#f4a582;" x="196.774306" xlink:href="#m9d59662c55" y="115.505985"/>
     <use style="fill:#f4a582;stroke:#f4a582;" x="198.334005" xlink:href="#m9d59662c55" y="115.505985"/>
     <use style="fill:#f4a582;stroke:#f4a582;" x="199.893703" xlink:href="#m9d59662c55" y="115.505985"/>
     <use style="fill:#f4a582;stroke:#f4a582;" x="201.453402" xlink:href="#m9d59662c55" y="115.505985"/>
     <use style="fill:#f4a582;stroke:#f4a582;" x="203.013101" xlink:href="#m9d59662c55" y="115.505985"/>
     <use style="fill:#f4a582;stroke:#f4a582;" x="204.572799" xlink:href="#m9d59662c55" y="115.505985"/>
     <use style="fill:#f4a582;stroke:#f4a582;" x="206.132498" xlink:href="#m9d59662c55" y="115.505985"/>
     <use style="fill:#f4a582;stroke:#f4a582;" x="207.692197" xlink:href="#m9d59662c55" y="115.505985"/>
     <use style="fill:#f4a582;stroke:#f4a582;" x="209.251895" xlink:href="#m9d59662c55" y="115.505985"/>
    </g>
   </g>
   <g id="line2d_10">
    <path clip-path="url(#p7711f65dd4)" d="M 53.282032 83.613201 
L 54.841731 85.651334 
L 56.40143 87.675415 
L 57.961128 89.678702 
L 59.520827 99.329987 
L 61.080525 101.076284 
L 62.640224 102.743786 
L 64.199923 104.322704 
L 65.759621 105.799648 
L 67.31932 107.16366 
L 68.879019 108.408557 
L 70.438717 109.525986 
L 71.998416 110.514108 
L 73.558115 111.375443 
L 75.117813 112.11575 
L 76.677512 112.742693 
L 78.23721 113.266713 
L 79.796909 113.699444 
L 81.356608 114.052606 
L 82.916306 114.338217 
L 84.476005 114.566632 
L 86.035704 114.747249 
L 87.595402 114.888122 
L 89.155101 114.995851 
L 90.714799 115.075948 
L 92.274498 115.132453 
L 93.834197 115.168326 
L 95.393895 115.185462 
L 96.953594 115.184862 
L 98.513293 115.166456 
L 100.072991 115.129234 
L 101.63269 115.07129 
L 103.192388 114.989452 
L 104.752087 114.879659 
L 106.311786 114.736311 
L 107.871484 114.552711 
L 109.431183 114.320723 
L 110.990882 114.031073 
L 112.55058 113.672669 
L 114.110279 113.234111 
L 115.669978 112.703452 
L 117.229676 112.069587 
L 118.789375 111.320766 
L 120.349073 110.450934 
L 121.908772 109.454079 
L 123.468471 108.327937 
L 125.028169 107.074596 
L 126.587868 105.702652 
L 128.147567 104.218435 
L 129.707265 102.633032 
L 131.266964 100.959871 
L 132.826662 99.207497 
L 134.386361 97.393605 
L 135.94606 95.522724 
L 137.505758 93.606844 
L 139.065457 91.654223 
L 140.625156 89.671865 
L 142.184854 87.665609 
L 143.744553 85.640252 
L 145.304251 83.601107 
L 146.86395 89.794874 
L 148.423649 87.789701 
L 149.983347 85.763813 
L 151.543046 83.725345 
L 153.102745 81.673292 
L 154.662443 79.613023 
L 156.222142 77.543741 
L 157.781841 75.468476 
L 159.341539 73.388505 
L 160.901238 71.304841 
L 162.460936 69.218277 
L 164.020635 67.129441 
L 165.580334 65.040261 
L 167.140032 62.949687 
L 168.699731 60.856583 
L 170.25943 58.762624 
L 171.819128 56.667996 
L 173.378827 54.574282 
L 174.938525 52.47872 
L 176.498224 50.382837 
L 178.057923 48.286703 
L 179.617621 46.191812 
L 181.17732 44.093888 
L 182.737019 41.998724 
L 184.296717 39.902026 
L 185.856416 37.806694 
L 187.416114 35.709865 
L 188.975813 33.61155 
L 190.535512 31.516081 
" style="fill:none;stroke:#333333;stroke-linecap:round;stroke-width:1.5;"/>
   </g>
   <g id="line2d_11">
    <path clip-path="url(#p7711f65dd4)" d="M 53.282032 115.2963 
L 54.841731 115.238838 
L 56.40143 115.165883 
L 57.961128 115.073575 
L 59.520827 114.112937 
L 61.080525 113.762198 
L 62.640224 113.334104 
L 64.199923 112.815987 
L 65.759621 112.195895 
L 67.31932 111.464312 
L 68.879019 110.610732 
L 70.438717 109.631126 
L 71.998416 108.523652 
L 73.558115 107.289392 
L 75.117813 105.932663 
L 76.677512 104.46257 
L 78.23721 102.889554 
L 79.796909 101.22525 
L 81.356608 99.482817 
L 82.916306 97.671392 
L 84.476005 95.802771 
L 86.035704 93.886353 
L 87.595402 91.930189 
L 89.155101 89.942323 
L 90.714799 87.925384 
L 92.274498 85.884854 
L 93.834197 83.82369 
L 95.393895 81.745231 
L 96.953594 79.647596 
L 98.513293 77.532154 
L 100.072991 75.399337 
L 101.63269 73.244356 
L 103.192388 71.065482 
L 104.752087 68.858654 
L 106.311786 66.61827 
L 107.871484 64.339075 
L 109.431183 62.010051 
L 110.990882 59.623366 
L 112.55058 57.167926 
L 114.110279 54.632331 
L 115.669978 52.006077 
L 117.229676 49.275176 
L 118.789375 46.43076 
L 120.349073 43.463892 
L 121.908772 40.368561 
L 123.468471 37.146823 
L 125.028169 33.797888 
L 126.587868 30.328908 
" style="fill:none;stroke:#92c5de;stroke-linecap:round;stroke-width:1.5;"/>
   </g>
   <g id="line2d_12">
    <path clip-path="url(#p7711f65dd4)" d="M 53.282032 49.880595 
L 54.841731 51.918728 
L 56.40143 53.942809 
L 57.961128 55.947536 
L 59.520827 48.569047 
L 61.080525 50.316784 
L 62.640224 51.984286 
L 64.199923 53.563205 
L 65.759621 55.040148 
L 67.31932 56.404161 
L 68.879019 57.649057 
L 70.438717 58.765046 
L 71.998416 59.754609 
L 73.558115 60.615944 
L 75.117813 61.35625 
L 76.677512 61.983193 
L 78.23721 62.507213 
L 79.796909 62.939945 
L 81.356608 63.293107 
L 82.916306 63.578718 
L 84.476005 63.807133 
L 86.035704 63.98775 
L 87.595402 64.128622 
L 89.155101 64.236352 
L 90.714799 64.316449 
L 92.274498 64.372954 
L 93.834197 64.407386 
L 95.393895 64.425962 
L 96.953594 64.425363 
L 98.513293 64.406957 
L 100.072991 64.369735 
L 101.63269 64.31179 
L 103.192388 64.229952 
L 104.752087 64.12016 
L 106.311786 63.976812 
L 107.871484 63.793212 
L 109.431183 63.561224 
L 110.990882 63.271574 
L 112.55058 62.91317 
L 114.110279 62.474611 
L 115.669978 61.943952 
L 117.229676 61.310087 
L 118.789375 60.561267 
L 120.349073 59.691435 
L 121.908772 58.69458 
L 123.468471 57.568437 
L 125.028169 56.315097 
L 126.587868 54.943153 
L 128.147567 53.458936 
L 129.707265 51.873533 
L 131.266964 50.200372 
L 132.826662 48.447998 
L 134.386361 46.632666 
L 135.94606 44.763225 
L 137.505758 42.847344 
L 139.065457 40.894723 
L 140.625156 38.912366 
L 142.184854 36.906109 
L 143.744553 34.880753 
L 145.304251 32.841608 
" style="fill:none;stroke:#333333;stroke-linecap:round;stroke-width:1.5;"/>
   </g>
   <g id="line2d_13">
    <path clip-path="url(#p7711f65dd4)" d="M 65.759621 30.56705 
L 67.31932 34.028098 
L 68.879019 37.37003 
L 70.438717 40.583055 
L 71.998416 43.668213 
L 73.558115 46.626584 
L 75.117813 49.463926 
L 76.677512 52.187905 
L 78.23721 54.808961 
L 79.796909 57.337288 
L 81.356608 59.787486 
L 82.916306 62.170132 
L 84.476005 64.494142 
L 86.035704 66.771796 
L 87.595402 69.009704 
L 89.155101 71.214468 
L 90.714799 73.391601 
L 92.274498 75.543702 
L 93.834197 77.67661 
L 95.393895 79.790782 
L 96.953594 81.887218 
L 98.513293 83.965848 
L 100.072991 86.025662 
L 101.63269 88.063313 
L 103.192388 90.07851 
L 104.752087 92.064313 
L 106.311786 94.018001 
L 107.871484 95.931437 
L 109.431183 97.796485 
L 110.990882 99.60243 
L 112.55058 101.341062 
L 114.110279 102.999539 
L 115.669978 104.565916 
L 117.229676 106.027646 
L 118.789375 107.377302 
L 120.349073 108.603065 
L 121.908772 109.701806 
L 123.468471 110.672699 
L 125.028169 111.517835 
L 126.587868 112.241486 
L 128.147567 112.854305 
L 129.707265 113.365938 
L 131.266964 113.788372 
L 132.826662 114.134474 
L 134.386361 114.414738 
L 135.94606 114.640892 
L 137.505758 114.822047 
L 139.065457 114.966462 
L 140.625156 115.081141 
L 142.184854 115.17192 
L 143.744553 115.243599 
L 145.304251 115.30005 
L 146.86395 115.075965 
L 148.423649 115.167828 
L 149.983347 115.240416 
L 151.543046 115.297543 
L 153.102745 115.342526 
L 154.662443 115.377853 
L 156.222142 115.405607 
L 157.781841 115.427377 
L 159.341539 115.444442 
L 160.901238 115.457813 
L 162.460936 115.468286 
L 164.020635 115.476485 
L 165.580334 115.4829 
L 167.140032 115.487921 
L 168.699731 115.491854 
L 170.25943 115.494931 
L 171.819128 115.497338 
L 173.378827 115.49922 
L 174.938525 115.500694 
L 176.498224 115.501846 
L 178.057923 115.502748 
L 179.617621 115.503453 
L 181.17732 115.504005 
L 182.737019 115.504436 
L 184.296717 115.504773 
L 185.856416 115.505037 
L 187.416114 115.505244 
L 188.975813 115.505405 
L 190.535512 115.505532 
L 192.09521 115.505985 
L 193.654909 115.505985 
L 195.214608 115.505985 
L 196.774306 115.505985 
L 198.334005 115.505985 
L 199.893703 115.505985 
L 201.453402 115.505985 
L 203.013101 115.505985 
L 204.572799 115.505985 
L 206.132498 115.505985 
L 207.692197 115.505985 
L 209.251895 115.505985 
" style="fill:none;stroke:#f4a582;stroke-linecap:round;stroke-width:1.5;"/>
   </g>
   <g id="patch_3">
    <path d="M 45.183929 120.04 
L 45.183929 25.8 
" style="fill:none;stroke:#262626;stroke-linecap:square;stroke-linejoin:miter;stroke-width:0.8;"/>
   </g>
   <g id="patch_4">
    <path d="M 45.183929 120.04 
L 217.35 120.04 
" style="fill:none;stroke:#262626;stroke-linecap:square;stroke-linejoin:miter;stroke-width:0.8;"/>
   </g>
   <g id="text_12">
    <!-- SM22 -->
    <defs>
     <path d="M 4.5 23 
L 13.421875 23.78125 
Q 14.0625 18.40625 16.375 14.96875 
Q 18.703125 11.53125 23.578125 9.40625 
Q 28.46875 7.28125 34.578125 7.28125 
Q 39.984375 7.28125 44.140625 8.890625 
Q 48.296875 10.5 50.3125 13.296875 
Q 52.34375 16.109375 52.34375 19.4375 
Q 52.34375 22.796875 50.390625 25.3125 
Q 48.4375 27.828125 43.953125 29.546875 
Q 41.0625 30.671875 31.203125 33.03125 
Q 21.34375 35.40625 17.390625 37.5 
Q 12.25 40.1875 9.734375 44.15625 
Q 7.234375 48.140625 7.234375 53.078125 
Q 7.234375 58.5 10.296875 63.203125 
Q 13.375 67.921875 19.28125 70.359375 
Q 25.203125 72.796875 32.421875 72.796875 
Q 40.375 72.796875 46.453125 70.234375 
Q 52.546875 67.671875 55.8125 62.6875 
Q 59.078125 57.71875 59.328125 51.421875 
L 50.25 50.734375 
Q 49.515625 57.515625 45.28125 60.984375 
Q 41.0625 64.453125 32.8125 64.453125 
Q 24.21875 64.453125 20.28125 61.296875 
Q 16.359375 58.15625 16.359375 53.71875 
Q 16.359375 49.859375 19.140625 47.359375 
Q 21.875 44.875 33.421875 42.265625 
Q 44.96875 39.65625 49.265625 37.703125 
Q 55.515625 34.8125 58.484375 30.390625 
Q 61.46875 25.984375 61.46875 20.21875 
Q 61.46875 14.5 58.203125 9.4375 
Q 54.9375 4.390625 48.796875 1.578125 
Q 42.671875 -1.21875 35.015625 -1.21875 
Q 25.296875 -1.21875 18.71875 1.609375 
Q 12.15625 4.4375 8.421875 10.125 
Q 4.6875 15.828125 4.5 23 
z
" id="ArialMT-53"/>
     <path d="M 7.421875 0 
L 7.421875 71.578125 
L 21.6875 71.578125 
L 38.625 20.90625 
Q 40.96875 13.8125 42.046875 10.296875 
Q 43.265625 14.203125 45.84375 21.78125 
L 62.984375 71.578125 
L 75.734375 71.578125 
L 75.734375 0 
L 66.609375 0 
L 66.609375 59.90625 
L 45.796875 0 
L 37.25 0 
L 16.546875 60.9375 
L 16.546875 0 
z
" id="ArialMT-4d"/>
    </defs>
    <g style="fill:#262626;" transform="translate(115.593839 19.8)scale(0.12 -0.12)">
     <use xlink:href="#ArialMT-53"/>
     <use x="66.699219" xlink:href="#ArialMT-4d"/>
     <use x="150" xlink:href="#ArialMT-32"/>
     <use x="205.615234" xlink:href="#ArialMT-32"/>
    </g>
   </g>
  </g>
 </g>
 <defs>
  <clipPath id="p7711f65dd4">
   <rect height="94.24" width="172.166071" x="45.183929" y="25.8"/>
  </clipPath>
 </defs>
</svg>
