<?xml version="1.0" encoding="UTF-8" standalone="no"?>
<!DOCTYPE svg PUBLIC "-//W3C//DTD SVG 1.1//EN"
 "http://www.w3.org/Graphics/SVG/1.1/DTD/svg11.dtd">
<!-- Generated by graphviz version 2.38.0 (20140413.2041)
 -->
<!-- Title: G Pages: 1 -->
<svg width="731pt" height="806pt"
 viewBox="0.00 0.00 730.92 805.76" xmlns="http://www.w3.org/2000/svg" xmlns:xlink="http://www.w3.org/1999/xlink">
<g id="graph0" class="graph" transform="scale(1 1) rotate(0) translate(4 801.761)">
<title>G</title>
<polygon fill="white" stroke="none" points="-4,4 -4,-801.761 726.919,-801.761 726.919,4 -4,4"/>
<!-- SM02_micro002 -->
<g id="node1" class="node"><title>SM02_micro002</title>
<defs>
<radialGradient id="r_0" cx="50%" cy="50%" r="75%" fx="50%" fy="50%">
<stop offset="0" style="stop-color:#ffffff;stop-opacity:1.;"/>
<stop offset="1" style="stop-color:#333333;stop-opacity:1.;"/>
</radialGradient>
</defs>
<polygon fill="url(#r_0)" stroke="#ffffff" points="372.048,-423.758 379.058,-424.202 385.995,-424.867 392.832,-425.751 399.54,-426.852 406.093,-428.166 412.465,-429.69 418.63,-431.419 424.566,-433.35 430.251,-435.476 435.663,-437.792 440.785,-440.291 445.599,-442.967 450.089,-445.812 454.243,-448.819 458.049,-451.979 461.498,-455.283 464.583,-458.723 467.297,-462.289 469.637,-465.972 471.603,-469.76 473.193,-473.645 474.412,-477.615 475.261,-481.658 475.748,-485.766 475.879,-489.925 475.663,-494.125 475.109,-498.353 474.23,-502.6 473.036,-506.852 471.541,-511.098 469.76,-515.327 467.705,-519.527 465.394,-523.686 462.839,-527.793 460.058,-531.837 457.066,-535.807 453.878,-539.691 450.509,-543.48 446.975,-547.162 443.29,-550.728 439.468,-554.168 435.523,-557.473 431.467,-560.633 427.313,-563.64 423.072,-566.485 418.755,-569.161 414.371,-571.66 409.929,-573.976 405.438,-576.102 400.906,-578.032 396.337,-579.762 391.74,-581.286 387.119,-582.6 382.478,-583.7 377.822,-584.584 373.155,-585.249 368.48,-585.694 363.8,-585.916 359.119,-585.916 354.44,-585.694 349.765,-585.249 345.097,-584.584 340.442,-583.7 335.801,-582.6 331.179,-581.286 326.582,-579.762 322.014,-578.032 317.481,-576.102 312.99,-573.976 308.549,-571.66 304.165,-569.161 299.847,-566.485 295.606,-563.64 291.452,-560.633 287.397,-557.473 283.451,-554.168 279.63,-550.728 275.944,-547.162 272.41,-543.48 269.042,-539.691 265.853,-535.807 262.861,-531.837 260.08,-527.793 257.526,-523.686 255.214,-519.527 253.16,-515.327 251.378,-511.098 249.883,-506.852 248.69,-502.6 247.81,-498.353 247.257,-494.125 247.04,-489.925 247.171,-485.766 247.658,-481.658 248.508,-477.615 249.726,-473.645 251.317,-469.76 253.282,-465.972 255.623,-462.289 258.337,-458.723 261.421,-455.283 264.87,-451.979 268.676,-448.819 272.83,-445.812 277.321,-442.967 282.134,-440.291 287.256,-437.792 292.668,-435.476 298.353,-433.35 304.289,-431.419 310.454,-429.69 316.826,-428.166 323.379,-426.852 330.087,-425.751 336.924,-424.867 343.862,-424.202 350.872,-423.758 357.925,-423.535 364.994,-423.535 372.048,-423.758"/>
<image xlink:href="Images\Microstates\SM02_micro002.svg" width="201px" height="151px" preserveAspectRatio="xMinYMin meet" x="260.96" y="-580.226"/>
</g>
<!-- SM02_micro004 -->
<g id="node5" class="node"><title>SM02_micro004</title>
<defs>
<radialGradient id="r_1" cx="50%" cy="50%" r="75%" fx="50%" fy="50%">
<stop offset="0" style="stop-color:#ffffff;stop-opacity:1.;"/>
<stop offset="1" style="stop-color:#92c5de;stop-opacity:1.;"/>
</radialGradient>
</defs>
<polygon fill="url(#r_1)" stroke="#ffffff" points="188.048,-212.067 195.058,-212.512 201.995,-213.177 208.832,-214.061 215.54,-215.162 222.093,-216.476 228.465,-217.999 234.63,-219.729 240.566,-221.659 246.251,-223.785 251.663,-226.101 256.785,-228.601 261.599,-231.276 266.089,-234.122 270.243,-237.128 274.049,-240.288 277.498,-243.593 280.583,-247.033 283.297,-250.599 285.637,-254.281 287.603,-258.07 289.193,-261.955 290.412,-265.924 291.261,-269.968 291.748,-274.075 291.879,-278.235 291.663,-282.434 291.109,-286.663 290.23,-290.909 289.036,-295.162 287.541,-299.408 285.76,-303.637 283.705,-307.836 281.394,-311.996 278.839,-316.103 276.058,-320.147 273.066,-324.116 269.878,-328.001 266.509,-331.79 262.975,-335.472 259.29,-339.038 255.468,-342.478 251.523,-345.783 247.467,-348.943 243.313,-351.949 239.072,-354.794 234.755,-357.47 230.371,-359.97 225.929,-362.286 221.438,-364.412 216.906,-366.342 212.337,-368.072 207.74,-369.595 203.119,-370.909 198.478,-372.01 193.822,-372.894 189.155,-373.559 184.48,-374.004 179.8,-374.226 175.119,-374.226 170.44,-374.004 165.765,-373.559 161.097,-372.894 156.442,-372.01 151.801,-370.909 147.179,-369.595 142.582,-368.072 138.014,-366.342 133.481,-364.412 128.99,-362.286 124.549,-359.97 120.165,-357.47 115.847,-354.794 111.606,-351.949 107.452,-348.943 103.397,-345.783 99.4515,-342.478 95.6295,-339.038 91.9444,-335.472 88.4102,-331.79 85.0416,-328.001 81.8534,-324.116 78.861,-320.147 76.0799,-316.103 73.5257,-311.996 71.2138,-307.836 69.1596,-303.637 67.3779,-299.408 65.8834,-295.162 64.6897,-290.909 63.8101,-286.663 63.2566,-282.434 63.0403,-278.235 63.1713,-274.075 63.658,-269.968 64.5077,-265.924 65.726,-261.955 67.3167,-258.07 69.2822,-254.281 71.6227,-250.599 74.3368,-247.033 77.421,-243.593 80.8699,-240.288 84.6761,-237.128 88.8301,-234.122 93.3207,-231.276 98.1344,-228.601 103.256,-226.101 108.668,-223.785 114.353,-221.659 120.289,-219.729 126.454,-217.999 132.826,-216.476 139.379,-215.162 146.087,-214.061 152.924,-213.177 159.862,-212.512 166.872,-212.067 173.925,-211.845 180.994,-211.845 188.048,-212.067"/>
<image xlink:href="Images\Microstates\SM02_micro004.svg" width="201px" height="151px" preserveAspectRatio="xMinYMin meet" x="76.9597" y="-368.535"/>
</g>
<!-- SM02_micro002&#45;&gt;SM02_micro004 -->
<g id="edge1" class="edge"><title>SM02_micro002&#45;&gt;SM02_micro004</title>
<path fill="none" stroke="black" d="M299.166,-432.734C280.234,-411.159 259.421,-387.441 240.444,-365.814"/>
<polygon fill="black" stroke="black" points="233.814,-358.258 243.792,-362.807 237.112,-362.017 240.41,-365.775 240.41,-365.775 240.41,-365.775 237.112,-362.017 237.028,-368.743 233.814,-358.258 233.814,-358.258"/>
<text text-anchor="middle" x="312.96" y="-395.781" font-family="sans bold" font-size="12.00">4.05+/&#45;1.47</text>
</g>
<!-- SM02_micro005 -->
<g id="node6" class="node"><title>SM02_micro005</title>
<defs>
<radialGradient id="r_2" cx="50%" cy="50%" r="75%" fx="50%" fy="50%">
<stop offset="0" style="stop-color:#ffffff;stop-opacity:1.;"/>
<stop offset="1" style="stop-color:#92c5de;stop-opacity:1.;"/>
</radialGradient>
</defs>
<polygon fill="url(#r_2)" stroke="#ffffff" points="461.048,-212.067 468.058,-212.512 474.995,-213.177 481.832,-214.061 488.54,-215.162 495.093,-216.476 501.465,-217.999 507.63,-219.729 513.566,-221.659 519.251,-223.785 524.663,-226.101 529.785,-228.601 534.599,-231.276 539.089,-234.122 543.243,-237.128 547.049,-240.288 550.498,-243.593 553.583,-247.033 556.297,-250.599 558.637,-254.281 560.603,-258.07 562.193,-261.955 563.412,-265.924 564.261,-269.968 564.748,-274.075 564.879,-278.235 564.663,-282.434 564.109,-286.663 563.23,-290.909 562.036,-295.162 560.541,-299.408 558.76,-303.637 556.705,-307.836 554.394,-311.996 551.839,-316.103 549.058,-320.147 546.066,-324.116 542.878,-328.001 539.509,-331.79 535.975,-335.472 532.29,-339.038 528.468,-342.478 524.523,-345.783 520.467,-348.943 516.313,-351.949 512.072,-354.794 507.755,-357.47 503.371,-359.97 498.929,-362.286 494.438,-364.412 489.906,-366.342 485.337,-368.072 480.74,-369.595 476.119,-370.909 471.478,-372.01 466.822,-372.894 462.155,-373.559 457.48,-374.004 452.8,-374.226 448.119,-374.226 443.44,-374.004 438.765,-373.559 434.097,-372.894 429.442,-372.01 424.801,-370.909 420.179,-369.595 415.582,-368.072 411.014,-366.342 406.481,-364.412 401.99,-362.286 397.549,-359.97 393.165,-357.47 388.847,-354.794 384.606,-351.949 380.452,-348.943 376.397,-345.783 372.451,-342.478 368.63,-339.038 364.944,-335.472 361.41,-331.79 358.042,-328.001 354.853,-324.116 351.861,-320.147 349.08,-316.103 346.526,-311.996 344.214,-307.836 342.16,-303.637 340.378,-299.408 338.883,-295.162 337.69,-290.909 336.81,-286.663 336.257,-282.434 336.04,-278.235 336.171,-274.075 336.658,-269.968 337.508,-265.924 338.726,-261.955 340.317,-258.07 342.282,-254.281 344.623,-250.599 347.337,-247.033 350.421,-243.593 353.87,-240.288 357.676,-237.128 361.83,-234.122 366.321,-231.276 371.134,-228.601 376.256,-226.101 381.668,-223.785 387.353,-221.659 393.289,-219.729 399.454,-217.999 405.826,-216.476 412.379,-215.162 419.087,-214.061 425.924,-213.177 432.862,-212.512 439.872,-212.067 446.925,-211.845 453.994,-211.845 461.048,-212.067"/>
<image xlink:href="Images\Microstates\SM02_micro005.svg" width="201px" height="151px" preserveAspectRatio="xMinYMin meet" x="349.96" y="-368.535"/>
</g>
<!-- SM02_micro002&#45;&gt;SM02_micro005 -->
<g id="edge2" class="edge"><title>SM02_micro002&#45;&gt;SM02_micro005</title>
<path fill="none" stroke="black" d="M394.474,-425.943C400.987,-410.596 407.853,-394.419 414.46,-378.853"/>
<polygon fill="black" stroke="black" points="418.535,-369.253 418.77,-380.217 416.581,-373.856 414.628,-378.458 414.628,-378.458 414.628,-378.458 416.581,-373.856 410.485,-376.7 418.535,-369.253 418.535,-369.253"/>
<text text-anchor="middle" x="446.96" y="-395.781" font-family="sans bold" font-size="12.00">3.51+/&#45;0.86</text>
</g>
<!-- SM02_micro003 -->
<g id="node2" class="node"><title>SM02_micro003</title>
<defs>
<radialGradient id="r_3" cx="50%" cy="50%" r="75%" fx="50%" fy="50%">
<stop offset="0" style="stop-color:#ffffff;stop-opacity:1.;"/>
<stop offset="1" style="stop-color:#333333;stop-opacity:1.;"/>
</radialGradient>
</defs>
<polygon fill="url(#r_3)" stroke="#ffffff" points="619.048,-423.758 626.058,-424.202 632.995,-424.867 639.832,-425.751 646.54,-426.852 653.093,-428.166 659.465,-429.69 665.63,-431.419 671.566,-433.35 677.251,-435.476 682.663,-437.792 687.785,-440.291 692.599,-442.967 697.089,-445.812 701.243,-448.819 705.049,-451.979 708.498,-455.283 711.583,-458.723 714.297,-462.289 716.637,-465.972 718.603,-469.76 720.193,-473.645 721.412,-477.615 722.261,-481.658 722.748,-485.766 722.879,-489.925 722.663,-494.125 722.109,-498.353 721.23,-502.6 720.036,-506.852 718.541,-511.098 716.76,-515.327 714.705,-519.527 712.394,-523.686 709.839,-527.793 707.058,-531.837 704.066,-535.807 700.878,-539.691 697.509,-543.48 693.975,-547.162 690.29,-550.728 686.468,-554.168 682.523,-557.473 678.467,-560.633 674.313,-563.64 670.072,-566.485 665.755,-569.161 661.371,-571.66 656.929,-573.976 652.438,-576.102 647.906,-578.032 643.337,-579.762 638.74,-581.286 634.119,-582.6 629.478,-583.7 624.822,-584.584 620.155,-585.249 615.48,-585.694 610.8,-585.916 606.119,-585.916 601.44,-585.694 596.765,-585.249 592.097,-584.584 587.442,-583.7 582.801,-582.6 578.179,-581.286 573.582,-579.762 569.014,-578.032 564.481,-576.102 559.99,-573.976 555.549,-571.66 551.165,-569.161 546.847,-566.485 542.606,-563.64 538.452,-560.633 534.397,-557.473 530.451,-554.168 526.63,-550.728 522.944,-547.162 519.41,-543.48 516.042,-539.691 512.853,-535.807 509.861,-531.837 507.08,-527.793 504.526,-523.686 502.214,-519.527 500.16,-515.327 498.378,-511.098 496.883,-506.852 495.69,-502.6 494.81,-498.353 494.257,-494.125 494.04,-489.925 494.171,-485.766 494.658,-481.658 495.508,-477.615 496.726,-473.645 498.317,-469.76 500.282,-465.972 502.623,-462.289 505.337,-458.723 508.421,-455.283 511.87,-451.979 515.676,-448.819 519.83,-445.812 524.321,-442.967 529.134,-440.291 534.256,-437.792 539.668,-435.476 545.353,-433.35 551.289,-431.419 557.454,-429.69 563.826,-428.166 570.379,-426.852 577.087,-425.751 583.924,-424.867 590.862,-424.202 597.872,-423.758 604.925,-423.535 611.994,-423.535 619.048,-423.758"/>
<image xlink:href="Images\Microstates\SM02_micro003.svg" width="201px" height="151px" preserveAspectRatio="xMinYMin meet" x="507.96" y="-580.226"/>
</g>
<!-- SM02_micro003&#45;&gt;SM02_micro005 -->
<g id="edge3" class="edge"><title>SM02_micro003&#45;&gt;SM02_micro005</title>
<path fill="none" stroke="black" d="M553.421,-430.681C538.47,-410.839 522.255,-389.319 507.212,-369.354"/>
<polygon fill="black" stroke="black" points="501.067,-361.199 510.679,-366.478 504.076,-365.192 507.085,-369.186 507.085,-369.186 507.085,-369.186 504.076,-365.192 503.491,-371.894 501.067,-361.199 501.067,-361.199"/>
<text text-anchor="middle" x="566.96" y="-395.781" font-family="sans bold" font-size="12.00">7.42+/&#45;2.0</text>
</g>
<!-- SM02_micro007 -->
<g id="node3" class="node"><title>SM02_micro007</title>
<defs>
<radialGradient id="r_4" cx="50%" cy="50%" r="75%" fx="50%" fy="50%">
<stop offset="0" style="stop-color:#ffffff;stop-opacity:1.;"/>
<stop offset="1" style="stop-color:#333333;stop-opacity:1.;"/>
</radialGradient>
</defs>
<polygon fill="url(#r_4)" stroke="#ffffff" points="125.048,-423.758 132.058,-424.202 138.995,-424.867 145.832,-425.751 152.54,-426.852 159.093,-428.166 165.465,-429.69 171.63,-431.419 177.566,-433.35 183.251,-435.476 188.663,-437.792 193.785,-440.291 198.599,-442.967 203.089,-445.812 207.243,-448.819 211.049,-451.979 214.498,-455.283 217.583,-458.723 220.297,-462.289 222.637,-465.972 224.603,-469.76 226.193,-473.645 227.412,-477.615 228.261,-481.658 228.748,-485.766 228.879,-489.925 228.663,-494.125 228.109,-498.353 227.23,-502.6 226.036,-506.852 224.541,-511.098 222.76,-515.327 220.705,-519.527 218.394,-523.686 215.839,-527.793 213.058,-531.837 210.066,-535.807 206.878,-539.691 203.509,-543.48 199.975,-547.162 196.29,-550.728 192.468,-554.168 188.523,-557.473 184.467,-560.633 180.313,-563.64 176.072,-566.485 171.755,-569.161 167.371,-571.66 162.929,-573.976 158.438,-576.102 153.906,-578.032 149.337,-579.762 144.74,-581.286 140.119,-582.6 135.478,-583.7 130.822,-584.584 126.155,-585.249 121.48,-585.694 116.8,-585.916 112.119,-585.916 107.44,-585.694 102.765,-585.249 98.0975,-584.584 93.4416,-583.7 88.8008,-582.6 84.1793,-581.286 79.5819,-579.762 75.0137,-578.032 70.481,-576.102 65.9901,-573.976 61.5487,-571.66 57.1648,-569.161 52.8475,-566.485 48.6065,-563.64 44.4524,-560.633 40.3967,-557.473 36.4515,-554.168 32.6295,-550.728 28.9444,-547.162 25.4102,-543.48 22.0416,-539.691 18.8534,-535.807 15.861,-531.837 13.0799,-527.793 10.5257,-523.686 8.21384,-519.527 6.15959,-515.327 4.37794,-511.098 2.88337,-506.852 1.68971,-502.6 0.810051,-498.353 0.256552,-494.125 0.0403243,-489.925 0.171286,-485.766 0.658036,-481.658 1.50773,-477.615 2.72598,-473.645 4.31673,-469.76 6.28218,-465.972 8.62271,-462.289 11.3368,-458.723 14.421,-455.283 17.8699,-451.979 21.6761,-448.819 25.8301,-445.812 30.3207,-442.967 35.1344,-440.291 40.256,-437.792 45.6684,-435.476 51.3529,-433.35 57.2889,-431.419 63.4544,-429.69 69.826,-428.166 76.3789,-426.852 83.0872,-425.751 89.924,-424.867 96.8616,-424.202 103.872,-423.758 110.925,-423.535 117.994,-423.535 125.048,-423.758"/>
<image xlink:href="Images\Microstates\SM02_micro007.svg" width="201px" height="151px" preserveAspectRatio="xMinYMin meet" x="13.9597" y="-580.226"/>
</g>
<!-- SM02_micro007&#45;&gt;SM02_micro004 -->
<g id="edge4" class="edge"><title>SM02_micro007&#45;&gt;SM02_micro004</title>
<path fill="none" stroke="black" d="M138.187,-424.75C142.438,-410.601 146.891,-395.781 151.208,-381.412"/>
<polygon fill="black" stroke="black" points="154.171,-371.55 155.603,-382.422 152.732,-376.338 151.294,-381.127 151.294,-381.127 151.294,-381.127 152.732,-376.338 146.984,-379.832 154.171,-371.55 154.171,-371.55"/>
<text text-anchor="middle" x="189.46" y="-395.781" font-family="sans bold" font-size="12.00">11.01+/&#45;2.22</text>
</g>
<!-- SM02_micro011 -->
<g id="node4" class="node"><title>SM02_micro011</title>
<defs>
<radialGradient id="r_5" cx="50%" cy="50%" r="75%" fx="50%" fy="50%">
<stop offset="0" style="stop-color:#ffffff;stop-opacity:1.;"/>
<stop offset="1" style="stop-color:#f4a582;stop-opacity:1.;"/>
</radialGradient>
</defs>
<polygon fill="url(#r_5)" stroke="#ffffff" points="372.048,-635.448 379.058,-635.892 385.995,-636.558 392.832,-637.442 399.54,-638.542 406.093,-639.856 412.465,-641.38 418.63,-643.11 424.566,-645.04 430.251,-647.166 435.663,-649.482 440.785,-651.981 445.599,-654.657 450.089,-657.502 454.243,-660.509 458.049,-663.669 461.498,-666.973 464.583,-670.413 467.297,-673.98 469.637,-677.662 471.603,-681.451 473.193,-685.335 474.412,-689.305 475.261,-693.349 475.748,-697.456 475.879,-701.615 475.663,-705.815 475.109,-710.044 474.23,-714.29 473.036,-718.542 471.541,-722.788 469.76,-727.017 467.705,-731.217 465.394,-735.376 462.839,-739.483 460.058,-743.527 457.066,-747.497 453.878,-751.382 450.509,-755.17 446.975,-758.853 443.29,-762.419 439.468,-765.859 435.523,-769.163 431.467,-772.323 427.313,-775.33 423.072,-778.175 418.755,-780.851 414.371,-783.35 409.929,-785.666 405.438,-787.792 400.906,-789.723 396.337,-791.452 391.74,-792.976 387.119,-794.29 382.478,-795.39 377.822,-796.275 373.155,-796.94 368.48,-797.384 363.8,-797.607 359.119,-797.607 354.44,-797.384 349.765,-796.94 345.097,-796.275 340.442,-795.39 335.801,-794.29 331.179,-792.976 326.582,-791.452 322.014,-789.723 317.481,-787.792 312.99,-785.666 308.549,-783.35 304.165,-780.851 299.847,-778.175 295.606,-775.33 291.452,-772.323 287.397,-769.163 283.451,-765.859 279.63,-762.419 275.944,-758.853 272.41,-755.17 269.042,-751.382 265.853,-747.497 262.861,-743.527 260.08,-739.483 257.526,-735.376 255.214,-731.217 253.16,-727.017 251.378,-722.788 249.883,-718.542 248.69,-714.29 247.81,-710.044 247.257,-705.815 247.04,-701.615 247.171,-697.456 247.658,-693.349 248.508,-689.305 249.726,-685.335 251.317,-681.451 253.282,-677.662 255.623,-673.98 258.337,-670.413 261.421,-666.973 264.87,-663.669 268.676,-660.509 272.83,-657.502 277.321,-654.657 282.134,-651.981 287.256,-649.482 292.668,-647.166 298.353,-645.04 304.289,-643.11 310.454,-641.38 316.826,-639.856 323.379,-638.542 330.087,-637.442 336.924,-636.558 343.862,-635.892 350.872,-635.448 357.925,-635.225 364.994,-635.225 372.048,-635.448"/>
<image xlink:href="Images\Microstates\SM02_micro011.svg" width="201px" height="151px" preserveAspectRatio="xMinYMin meet" x="260.96" y="-791.916"/>
</g>
<!-- SM02_micro011&#45;&gt;SM02_micro002 -->
<g id="edge6" class="edge"><title>SM02_micro011&#45;&gt;SM02_micro002</title>
<path fill="none" stroke="black" d="M361.46,-634.944C361.46,-622.277 361.46,-609.106 361.46,-596.23"/>
<polygon fill="black" stroke="black" points="361.46,-585.982 365.96,-595.982 361.46,-590.982 361.46,-595.982 361.46,-595.982 361.46,-595.982 361.46,-590.982 356.96,-595.983 361.46,-585.982 361.46,-585.982"/>
<text text-anchor="middle" x="402.46" y="-607.471" font-family="sans bold" font-size="12.00">13.21+/&#45;0.73</text>
</g>
<!-- SM02_micro011&#45;&gt;SM02_micro003 -->
<g id="edge7" class="edge"><title>SM02_micro011&#45;&gt;SM02_micro003</title>
<path fill="none" stroke="black" d="M437.92,-650.505C468.224,-624.778 502.971,-595.28 533.16,-569.652"/>
<polygon fill="black" stroke="black" points="541.137,-562.879 536.426,-572.781 537.326,-566.115 533.514,-569.351 533.514,-569.351 533.514,-569.351 537.326,-566.115 530.602,-565.92 541.137,-562.879 541.137,-562.879"/>
<text text-anchor="middle" x="525.96" y="-607.471" font-family="sans bold" font-size="12.00">5.9+/&#45;0.86</text>
</g>
<!-- SM02_micro011&#45;&gt;SM02_micro007 -->
<g id="edge8" class="edge"><title>SM02_micro011&#45;&gt;SM02_micro007</title>
<path fill="none" stroke="black" d="M284.999,-650.505C254.695,-624.778 219.948,-595.28 189.76,-569.652"/>
<polygon fill="black" stroke="black" points="181.782,-562.879 192.318,-565.92 185.594,-566.115 189.405,-569.351 189.405,-569.351 189.405,-569.351 185.594,-566.115 186.493,-572.781 181.782,-562.879 181.782,-562.879"/>
<text text-anchor="middle" x="282.96" y="-607.471" font-family="sans bold" font-size="12.00">5.09+/&#45;1.47</text>
</g>
<!-- SM02_micro012 -->
<g id="node7" class="node"><title>SM02_micro012</title>
<defs>
<radialGradient id="r_6" cx="50%" cy="50%" r="75%" fx="50%" fy="50%">
<stop offset="0" style="stop-color:#ffffff;stop-opacity:1.;"/>
<stop offset="1" style="stop-color:#4393c3;stop-opacity:1.;"/>
</radialGradient>
</defs>
<polygon fill="url(#r_6)" stroke="#ffffff" points="461.048,-0.377089 468.058,-0.821554 474.995,-1.48673 481.832,-2.37079 488.54,-3.47132 495.093,-4.78529 501.465,-6.3091 507.63,-8.03859 513.566,-9.969 519.251,-12.0951 524.663,-14.4109 529.785,-16.9102 534.599,-19.5862 539.089,-22.4314 543.243,-25.4381 547.049,-28.598 550.498,-31.9025 553.583,-35.3425 556.297,-38.9086 558.637,-42.5911 560.603,-46.3797 562.193,-50.2642 563.412,-54.2339 564.261,-58.2779 564.748,-62.3851 564.879,-66.5443 564.663,-70.744 564.109,-74.9728 563.23,-79.2191 562.036,-83.4712 560.541,-87.7175 558.76,-91.9463 556.705,-96.146 554.394,-100.305 551.839,-104.412 549.058,-108.456 546.066,-112.426 542.878,-116.311 539.509,-120.099 535.975,-123.782 532.29,-127.348 528.468,-130.788 524.523,-134.092 520.467,-137.252 516.313,-140.259 512.072,-143.104 507.755,-145.78 503.371,-148.279 498.929,-150.595 494.438,-152.721 489.906,-154.652 485.337,-156.381 480.74,-157.905 476.119,-159.219 471.478,-160.32 466.822,-161.204 462.155,-161.869 457.48,-162.313 452.8,-162.536 448.119,-162.536 443.44,-162.313 438.765,-161.869 434.097,-161.204 429.442,-160.32 424.801,-159.219 420.179,-157.905 415.582,-156.381 411.014,-154.652 406.481,-152.721 401.99,-150.595 397.549,-148.279 393.165,-145.78 388.847,-143.104 384.606,-140.259 380.452,-137.252 376.397,-134.092 372.451,-130.788 368.63,-127.348 364.944,-123.782 361.41,-120.099 358.042,-116.311 354.853,-112.426 351.861,-108.456 349.08,-104.412 346.526,-100.305 344.214,-96.146 342.16,-91.9463 340.378,-87.7175 338.883,-83.4712 337.69,-79.2191 336.81,-74.9728 336.257,-70.744 336.04,-66.5443 336.171,-62.3851 336.658,-58.2779 337.508,-54.2339 338.726,-50.2642 340.317,-46.3797 342.282,-42.5911 344.623,-38.9086 347.337,-35.3425 350.421,-31.9025 353.87,-28.598 357.676,-25.4381 361.83,-22.4314 366.321,-19.5862 371.134,-16.9102 376.256,-14.4109 381.668,-12.0951 387.353,-9.969 393.289,-8.03859 399.454,-6.3091 405.826,-4.78529 412.379,-3.47132 419.087,-2.37079 425.924,-1.48673 432.862,-0.821554 439.872,-0.377089 446.925,-0.154551 453.994,-0.154551 461.048,-0.377089"/>
<image xlink:href="Images\Microstates\SM02_micro012.svg" width="201px" height="151px" preserveAspectRatio="xMinYMin meet" x="349.96" y="-156.845"/>
</g>
<!-- SM02_micro005&#45;&gt;SM02_micro012 -->
<g id="edge5" class="edge"><title>SM02_micro005&#45;&gt;SM02_micro012</title>
<path fill="none" stroke="black" d="M450.46,-211.563C450.46,-198.896 450.46,-185.726 450.46,-172.85"/>
<polygon fill="black" stroke="black" points="450.46,-162.602 454.96,-172.602 450.46,-167.602 450.46,-172.602 450.46,-172.602 450.46,-172.602 450.46,-167.602 445.96,-172.602 450.46,-162.602 450.46,-162.602"/>
<text text-anchor="middle" x="486.96" y="-184.09" font-family="sans bold" font-size="12.00">&#45;1.76+/&#45;2.0</text>
</g>
</g>
</svg>
