<?xml version="1.0" encoding="UTF-8" standalone="no"?>
<!DOCTYPE svg PUBLIC "-//W3C//DTD SVG 1.1//EN"
 "http://www.w3.org/Graphics/SVG/1.1/DTD/svg11.dtd">
<!-- Generated by graphviz version 2.38.0 (20140413.2041)
 -->
<!-- Title: G Pages: 1 -->
<svg width="731pt" height="806pt"
 viewBox="0.00 0.00 730.92 805.76" xmlns="http://www.w3.org/2000/svg" xmlns:xlink="http://www.w3.org/1999/xlink">
<g id="graph0" class="graph" transform="scale(1 1) rotate(0) translate(4 801.761)">
<title>G</title>
<polygon fill="white" stroke="none" points="-4,4 -4,-801.761 726.919,-801.761 726.919,4 -4,4"/>
<!-- SM12_micro002 -->
<g id="node1" class="node"><title>SM12_micro002</title>
<defs>
<radialGradient id="r_0" cx="50%" cy="50%" r="75%" fx="50%" fy="50%">
<stop offset="0" style="stop-color:#ffffff;stop-opacity:1.;"/>
<stop offset="1" style="stop-color:#333333;stop-opacity:1.;"/>
</radialGradient>
</defs>
<polygon fill="url(#r_0)" stroke="#ffffff" points="125.048,-423.758 132.058,-424.202 138.995,-424.867 145.832,-425.751 152.54,-426.852 159.093,-428.166 165.465,-429.69 171.63,-431.419 177.566,-433.35 183.251,-435.476 188.663,-437.792 193.785,-440.291 198.599,-442.967 203.089,-445.812 207.243,-448.819 211.049,-451.979 214.498,-455.283 217.583,-458.723 220.297,-462.289 222.637,-465.972 224.603,-469.76 226.193,-473.645 227.412,-477.615 228.261,-481.658 228.748,-485.766 228.879,-489.925 228.663,-494.125 228.109,-498.353 227.23,-502.6 226.036,-506.852 224.541,-511.098 222.76,-515.327 220.705,-519.527 218.394,-523.686 215.839,-527.793 213.058,-531.837 210.066,-535.807 206.878,-539.691 203.509,-543.48 199.975,-547.162 196.29,-550.728 192.468,-554.168 188.523,-557.473 184.467,-560.633 180.313,-563.64 176.072,-566.485 171.755,-569.161 167.371,-571.66 162.929,-573.976 158.438,-576.102 153.906,-578.032 149.337,-579.762 144.74,-581.286 140.119,-582.6 135.478,-583.7 130.822,-584.584 126.155,-585.249 121.48,-585.694 116.8,-585.916 112.119,-585.916 107.44,-585.694 102.765,-585.249 98.0975,-584.584 93.4416,-583.7 88.8008,-582.6 84.1793,-581.286 79.5819,-579.762 75.0137,-578.032 70.481,-576.102 65.9901,-573.976 61.5487,-571.66 57.1648,-569.161 52.8475,-566.485 48.6065,-563.64 44.4524,-560.633 40.3967,-557.473 36.4515,-554.168 32.6295,-550.728 28.9444,-547.162 25.4102,-543.48 22.0416,-539.691 18.8534,-535.807 15.861,-531.837 13.0799,-527.793 10.5257,-523.686 8.21384,-519.527 6.15959,-515.327 4.37794,-511.098 2.88337,-506.852 1.68971,-502.6 0.810051,-498.353 0.256552,-494.125 0.0403243,-489.925 0.171286,-485.766 0.658036,-481.658 1.50773,-477.615 2.72598,-473.645 4.31673,-469.76 6.28218,-465.972 8.62271,-462.289 11.3368,-458.723 14.421,-455.283 17.8699,-451.979 21.6761,-448.819 25.8301,-445.812 30.3207,-442.967 35.1344,-440.291 40.256,-437.792 45.6684,-435.476 51.3529,-433.35 57.2889,-431.419 63.4544,-429.69 69.826,-428.166 76.3789,-426.852 83.0872,-425.751 89.924,-424.867 96.8616,-424.202 103.872,-423.758 110.925,-423.535 117.994,-423.535 125.048,-423.758"/>
<image xlink:href="Images\Microstates\SM12_micro002.svg" width="201px" height="151px" preserveAspectRatio="xMinYMin meet" x="13.9597" y="-580.226"/>
</g>
<!-- SM12_micro001 -->
<g id="node4" class="node"><title>SM12_micro001</title>
<defs>
<radialGradient id="r_1" cx="50%" cy="50%" r="75%" fx="50%" fy="50%">
<stop offset="0" style="stop-color:#ffffff;stop-opacity:1.;"/>
<stop offset="1" style="stop-color:#92c5de;stop-opacity:1.;"/>
</radialGradient>
</defs>
<polygon fill="url(#r_1)" stroke="#ffffff" points="236.048,-212.067 243.058,-212.512 249.995,-213.177 256.832,-214.061 263.54,-215.162 270.093,-216.476 276.465,-217.999 282.63,-219.729 288.566,-221.659 294.251,-223.785 299.663,-226.101 304.785,-228.601 309.599,-231.276 314.089,-234.122 318.243,-237.128 322.049,-240.288 325.498,-243.593 328.583,-247.033 331.297,-250.599 333.637,-254.281 335.603,-258.07 337.193,-261.955 338.412,-265.924 339.261,-269.968 339.748,-274.075 339.879,-278.235 339.663,-282.434 339.109,-286.663 338.23,-290.909 337.036,-295.162 335.541,-299.408 333.76,-303.637 331.705,-307.836 329.394,-311.996 326.839,-316.103 324.058,-320.147 321.066,-324.116 317.878,-328.001 314.509,-331.79 310.975,-335.472 307.29,-339.038 303.468,-342.478 299.523,-345.783 295.467,-348.943 291.313,-351.949 287.072,-354.794 282.755,-357.47 278.371,-359.97 273.929,-362.286 269.438,-364.412 264.906,-366.342 260.337,-368.072 255.74,-369.595 251.119,-370.909 246.478,-372.01 241.822,-372.894 237.155,-373.559 232.48,-374.004 227.8,-374.226 223.119,-374.226 218.44,-374.004 213.765,-373.559 209.097,-372.894 204.442,-372.01 199.801,-370.909 195.179,-369.595 190.582,-368.072 186.014,-366.342 181.481,-364.412 176.99,-362.286 172.549,-359.97 168.165,-357.47 163.847,-354.794 159.606,-351.949 155.452,-348.943 151.397,-345.783 147.451,-342.478 143.63,-339.038 139.944,-335.472 136.41,-331.79 133.042,-328.001 129.853,-324.116 126.861,-320.147 124.08,-316.103 121.526,-311.996 119.214,-307.836 117.16,-303.637 115.378,-299.408 113.883,-295.162 112.69,-290.909 111.81,-286.663 111.257,-282.434 111.04,-278.235 111.171,-274.075 111.658,-269.968 112.508,-265.924 113.726,-261.955 115.317,-258.07 117.282,-254.281 119.623,-250.599 122.337,-247.033 125.421,-243.593 128.87,-240.288 132.676,-237.128 136.83,-234.122 141.321,-231.276 146.134,-228.601 151.256,-226.101 156.668,-223.785 162.353,-221.659 168.289,-219.729 174.454,-217.999 180.826,-216.476 187.379,-215.162 194.087,-214.061 200.924,-213.177 207.862,-212.512 214.872,-212.067 221.925,-211.845 228.994,-211.845 236.048,-212.067"/>
<image xlink:href="Images\Microstates\SM12_micro001.svg" width="201px" height="151px" preserveAspectRatio="xMinYMin meet" x="124.96" y="-368.535"/>
</g>
<!-- SM12_micro002&#45;&gt;SM12_micro001 -->
<g id="edge1" class="edge"><title>SM12_micro002&#45;&gt;SM12_micro001</title>
<path fill="none" stroke="black" d="M155.004,-427.133C163.783,-410.549 173.101,-392.946 181.987,-376.159"/>
<polygon fill="black" stroke="black" points="186.873,-366.929 186.172,-377.872 184.534,-371.348 182.195,-375.767 182.195,-375.767 182.195,-375.767 184.534,-371.348 178.218,-373.662 186.873,-366.929 186.873,-366.929"/>
<text text-anchor="middle" x="206.96" y="-395.781" font-family="sans bold" font-size="12.00">7.59+/&#45;2.0</text>
</g>
<!-- SM12_micro012 -->
<g id="node2" class="node"><title>SM12_micro012</title>
<defs>
<radialGradient id="r_2" cx="50%" cy="50%" r="75%" fx="50%" fy="50%">
<stop offset="0" style="stop-color:#ffffff;stop-opacity:1.;"/>
<stop offset="1" style="stop-color:#333333;stop-opacity:1.;"/>
</radialGradient>
</defs>
<polygon fill="url(#r_2)" stroke="#ffffff" points="372.048,-423.758 379.058,-424.202 385.995,-424.867 392.832,-425.751 399.54,-426.852 406.093,-428.166 412.465,-429.69 418.63,-431.419 424.566,-433.35 430.251,-435.476 435.663,-437.792 440.785,-440.291 445.599,-442.967 450.089,-445.812 454.243,-448.819 458.049,-451.979 461.498,-455.283 464.583,-458.723 467.297,-462.289 469.637,-465.972 471.603,-469.76 473.193,-473.645 474.412,-477.615 475.261,-481.658 475.748,-485.766 475.879,-489.925 475.663,-494.125 475.109,-498.353 474.23,-502.6 473.036,-506.852 471.541,-511.098 469.76,-515.327 467.705,-519.527 465.394,-523.686 462.839,-527.793 460.058,-531.837 457.066,-535.807 453.878,-539.691 450.509,-543.48 446.975,-547.162 443.29,-550.728 439.468,-554.168 435.523,-557.473 431.467,-560.633 427.313,-563.64 423.072,-566.485 418.755,-569.161 414.371,-571.66 409.929,-573.976 405.438,-576.102 400.906,-578.032 396.337,-579.762 391.74,-581.286 387.119,-582.6 382.478,-583.7 377.822,-584.584 373.155,-585.249 368.48,-585.694 363.8,-585.916 359.119,-585.916 354.44,-585.694 349.765,-585.249 345.097,-584.584 340.442,-583.7 335.801,-582.6 331.179,-581.286 326.582,-579.762 322.014,-578.032 317.481,-576.102 312.99,-573.976 308.549,-571.66 304.165,-569.161 299.847,-566.485 295.606,-563.64 291.452,-560.633 287.397,-557.473 283.451,-554.168 279.63,-550.728 275.944,-547.162 272.41,-543.48 269.042,-539.691 265.853,-535.807 262.861,-531.837 260.08,-527.793 257.526,-523.686 255.214,-519.527 253.16,-515.327 251.378,-511.098 249.883,-506.852 248.69,-502.6 247.81,-498.353 247.257,-494.125 247.04,-489.925 247.171,-485.766 247.658,-481.658 248.508,-477.615 249.726,-473.645 251.317,-469.76 253.282,-465.972 255.623,-462.289 258.337,-458.723 261.421,-455.283 264.87,-451.979 268.676,-448.819 272.83,-445.812 277.321,-442.967 282.134,-440.291 287.256,-437.792 292.668,-435.476 298.353,-433.35 304.289,-431.419 310.454,-429.69 316.826,-428.166 323.379,-426.852 330.087,-425.751 336.924,-424.867 343.862,-424.202 350.872,-423.758 357.925,-423.535 364.994,-423.535 372.048,-423.758"/>
<image xlink:href="Images\Microstates\SM12_micro012.svg" width="201px" height="151px" preserveAspectRatio="xMinYMin meet" x="260.96" y="-580.226"/>
</g>
<!-- SM12_micro012&#45;&gt;SM12_micro001 -->
<g id="edge2" class="edge"><title>SM12_micro012&#45;&gt;SM12_micro001</title>
<path fill="none" stroke="black" d="M312.937,-428.911C301.029,-410.552 288.252,-390.85 276.241,-372.332"/>
<polygon fill="black" stroke="black" points="270.783,-363.916 280,-369.857 273.503,-368.111 276.224,-372.306 276.224,-372.306 276.224,-372.306 273.503,-368.111 272.449,-374.755 270.783,-363.916 270.783,-363.916"/>
<text text-anchor="middle" x="335.96" y="-395.781" font-family="sans bold" font-size="12.00">3.51+/&#45;0.86</text>
</g>
<!-- SM12_micro006 -->
<g id="node5" class="node"><title>SM12_micro006</title>
<defs>
<radialGradient id="r_3" cx="50%" cy="50%" r="75%" fx="50%" fy="50%">
<stop offset="0" style="stop-color:#ffffff;stop-opacity:1.;"/>
<stop offset="1" style="stop-color:#92c5de;stop-opacity:1.;"/>
</radialGradient>
</defs>
<polygon fill="url(#r_3)" stroke="#ffffff" points="532.048,-212.067 539.058,-212.512 545.995,-213.177 552.832,-214.061 559.54,-215.162 566.093,-216.476 572.465,-217.999 578.63,-219.729 584.566,-221.659 590.251,-223.785 595.663,-226.101 600.785,-228.601 605.599,-231.276 610.089,-234.122 614.243,-237.128 618.049,-240.288 621.498,-243.593 624.583,-247.033 627.297,-250.599 629.637,-254.281 631.603,-258.07 633.193,-261.955 634.412,-265.924 635.261,-269.968 635.748,-274.075 635.879,-278.235 635.663,-282.434 635.109,-286.663 634.23,-290.909 633.036,-295.162 631.541,-299.408 629.76,-303.637 627.705,-307.836 625.394,-311.996 622.839,-316.103 620.058,-320.147 617.066,-324.116 613.878,-328.001 610.509,-331.79 606.975,-335.472 603.29,-339.038 599.468,-342.478 595.523,-345.783 591.467,-348.943 587.313,-351.949 583.072,-354.794 578.755,-357.47 574.371,-359.97 569.929,-362.286 565.438,-364.412 560.906,-366.342 556.337,-368.072 551.74,-369.595 547.119,-370.909 542.478,-372.01 537.822,-372.894 533.155,-373.559 528.48,-374.004 523.8,-374.226 519.119,-374.226 514.44,-374.004 509.765,-373.559 505.097,-372.894 500.442,-372.01 495.801,-370.909 491.179,-369.595 486.582,-368.072 482.014,-366.342 477.481,-364.412 472.99,-362.286 468.549,-359.97 464.165,-357.47 459.847,-354.794 455.606,-351.949 451.452,-348.943 447.397,-345.783 443.451,-342.478 439.63,-339.038 435.944,-335.472 432.41,-331.79 429.042,-328.001 425.853,-324.116 422.861,-320.147 420.08,-316.103 417.526,-311.996 415.214,-307.836 413.16,-303.637 411.378,-299.408 409.883,-295.162 408.69,-290.909 407.81,-286.663 407.257,-282.434 407.04,-278.235 407.171,-274.075 407.658,-269.968 408.508,-265.924 409.726,-261.955 411.317,-258.07 413.282,-254.281 415.623,-250.599 418.337,-247.033 421.421,-243.593 424.87,-240.288 428.676,-237.128 432.83,-234.122 437.321,-231.276 442.134,-228.601 447.256,-226.101 452.668,-223.785 458.353,-221.659 464.289,-219.729 470.454,-217.999 476.826,-216.476 483.379,-215.162 490.087,-214.061 496.924,-213.177 503.862,-212.512 510.872,-212.067 517.925,-211.845 524.994,-211.845 532.048,-212.067"/>
<image xlink:href="Images\Microstates\SM12_micro006.svg" width="201px" height="151px" preserveAspectRatio="xMinYMin meet" x="420.96" y="-368.535"/>
</g>
<!-- SM12_micro012&#45;&gt;SM12_micro006 -->
<g id="edge3" class="edge"><title>SM12_micro012&#45;&gt;SM12_micro006</title>
<path fill="none" stroke="black" d="M417.195,-430.681C432.335,-410.839 448.756,-389.319 463.989,-369.354"/>
<polygon fill="black" stroke="black" points="470.212,-361.199 467.723,-371.879 467.179,-365.174 464.146,-369.149 464.146,-369.149 464.146,-369.149 467.179,-365.174 460.568,-366.419 470.212,-361.199 470.212,-361.199"/>
<text text-anchor="middle" x="483.96" y="-395.781" font-family="sans bold" font-size="12.00">4.05+/&#45;1.47</text>
</g>
<!-- SM12_micro011 -->
<g id="node3" class="node"><title>SM12_micro011</title>
<defs>
<radialGradient id="r_4" cx="50%" cy="50%" r="75%" fx="50%" fy="50%">
<stop offset="0" style="stop-color:#ffffff;stop-opacity:1.;"/>
<stop offset="1" style="stop-color:#333333;stop-opacity:1.;"/>
</radialGradient>
</defs>
<polygon fill="url(#r_4)" stroke="#ffffff" points="619.048,-423.758 626.058,-424.202 632.995,-424.867 639.832,-425.751 646.54,-426.852 653.093,-428.166 659.465,-429.69 665.63,-431.419 671.566,-433.35 677.251,-435.476 682.663,-437.792 687.785,-440.291 692.599,-442.967 697.089,-445.812 701.243,-448.819 705.049,-451.979 708.498,-455.283 711.583,-458.723 714.297,-462.289 716.637,-465.972 718.603,-469.76 720.193,-473.645 721.412,-477.615 722.261,-481.658 722.748,-485.766 722.879,-489.925 722.663,-494.125 722.109,-498.353 721.23,-502.6 720.036,-506.852 718.541,-511.098 716.76,-515.327 714.705,-519.527 712.394,-523.686 709.839,-527.793 707.058,-531.837 704.066,-535.807 700.878,-539.691 697.509,-543.48 693.975,-547.162 690.29,-550.728 686.468,-554.168 682.523,-557.473 678.467,-560.633 674.313,-563.64 670.072,-566.485 665.755,-569.161 661.371,-571.66 656.929,-573.976 652.438,-576.102 647.906,-578.032 643.337,-579.762 638.74,-581.286 634.119,-582.6 629.478,-583.7 624.822,-584.584 620.155,-585.249 615.48,-585.694 610.8,-585.916 606.119,-585.916 601.44,-585.694 596.765,-585.249 592.097,-584.584 587.442,-583.7 582.801,-582.6 578.179,-581.286 573.582,-579.762 569.014,-578.032 564.481,-576.102 559.99,-573.976 555.549,-571.66 551.165,-569.161 546.847,-566.485 542.606,-563.64 538.452,-560.633 534.397,-557.473 530.451,-554.168 526.63,-550.728 522.944,-547.162 519.41,-543.48 516.042,-539.691 512.853,-535.807 509.861,-531.837 507.08,-527.793 504.526,-523.686 502.214,-519.527 500.16,-515.327 498.378,-511.098 496.883,-506.852 495.69,-502.6 494.81,-498.353 494.257,-494.125 494.04,-489.925 494.171,-485.766 494.658,-481.658 495.508,-477.615 496.726,-473.645 498.317,-469.76 500.282,-465.972 502.623,-462.289 505.337,-458.723 508.421,-455.283 511.87,-451.979 515.676,-448.819 519.83,-445.812 524.321,-442.967 529.134,-440.291 534.256,-437.792 539.668,-435.476 545.353,-433.35 551.289,-431.419 557.454,-429.69 563.826,-428.166 570.379,-426.852 577.087,-425.751 583.924,-424.867 590.862,-424.202 597.872,-423.758 604.925,-423.535 611.994,-423.535 619.048,-423.758"/>
<image xlink:href="Images\Microstates\SM12_micro011.svg" width="201px" height="151px" preserveAspectRatio="xMinYMin meet" x="507.96" y="-580.226"/>
</g>
<!-- SM12_micro011&#45;&gt;SM12_micro006 -->
<g id="edge4" class="edge"><title>SM12_micro011&#45;&gt;SM12_micro006</title>
<path fill="none" stroke="black" d="M576.064,-425.645C569.743,-410.409 563.086,-394.366 556.679,-378.922"/>
<polygon fill="black" stroke="black" points="552.727,-369.396 560.715,-376.908 554.643,-374.014 556.559,-378.633 556.559,-378.633 556.559,-378.633 554.643,-374.014 552.402,-380.357 552.727,-369.396 552.727,-369.396"/>
<text text-anchor="middle" x="608.46" y="-395.781" font-family="sans bold" font-size="12.00">10.57+/&#45;2.22</text>
</g>
<!-- SM12_micro013 -->
<g id="node6" class="node"><title>SM12_micro013</title>
<defs>
<radialGradient id="r_5" cx="50%" cy="50%" r="75%" fx="50%" fy="50%">
<stop offset="0" style="stop-color:#ffffff;stop-opacity:1.;"/>
<stop offset="1" style="stop-color:#4393c3;stop-opacity:1.;"/>
</radialGradient>
</defs>
<polygon fill="url(#r_5)" stroke="#ffffff" points="236.048,-0.377089 243.058,-0.821554 249.995,-1.48673 256.832,-2.37079 263.54,-3.47132 270.093,-4.78529 276.465,-6.3091 282.63,-8.03859 288.566,-9.969 294.251,-12.0951 299.663,-14.4109 304.785,-16.9102 309.599,-19.5862 314.089,-22.4314 318.243,-25.4381 322.049,-28.598 325.498,-31.9025 328.583,-35.3425 331.297,-38.9086 333.637,-42.5911 335.603,-46.3797 337.193,-50.2642 338.412,-54.2339 339.261,-58.2779 339.748,-62.3851 339.879,-66.5443 339.663,-70.744 339.109,-74.9728 338.23,-79.2191 337.036,-83.4712 335.541,-87.7175 333.76,-91.9463 331.705,-96.146 329.394,-100.305 326.839,-104.412 324.058,-108.456 321.066,-112.426 317.878,-116.311 314.509,-120.099 310.975,-123.782 307.29,-127.348 303.468,-130.788 299.523,-134.092 295.467,-137.252 291.313,-140.259 287.072,-143.104 282.755,-145.78 278.371,-148.279 273.929,-150.595 269.438,-152.721 264.906,-154.652 260.337,-156.381 255.74,-157.905 251.119,-159.219 246.478,-160.32 241.822,-161.204 237.155,-161.869 232.48,-162.313 227.8,-162.536 223.119,-162.536 218.44,-162.313 213.765,-161.869 209.097,-161.204 204.442,-160.32 199.801,-159.219 195.179,-157.905 190.582,-156.381 186.014,-154.652 181.481,-152.721 176.99,-150.595 172.549,-148.279 168.165,-145.78 163.847,-143.104 159.606,-140.259 155.452,-137.252 151.397,-134.092 147.451,-130.788 143.63,-127.348 139.944,-123.782 136.41,-120.099 133.042,-116.311 129.853,-112.426 126.861,-108.456 124.08,-104.412 121.526,-100.305 119.214,-96.146 117.16,-91.9463 115.378,-87.7175 113.883,-83.4712 112.69,-79.2191 111.81,-74.9728 111.257,-70.744 111.04,-66.5443 111.171,-62.3851 111.658,-58.2779 112.508,-54.2339 113.726,-50.2642 115.317,-46.3797 117.282,-42.5911 119.623,-38.9086 122.337,-35.3425 125.421,-31.9025 128.87,-28.598 132.676,-25.4381 136.83,-22.4314 141.321,-19.5862 146.134,-16.9102 151.256,-14.4109 156.668,-12.0951 162.353,-9.969 168.289,-8.03859 174.454,-6.3091 180.826,-4.78529 187.379,-3.47132 194.087,-2.37079 200.924,-1.48673 207.862,-0.821554 214.872,-0.377089 221.925,-0.154551 228.994,-0.154551 236.048,-0.377089"/>
<image xlink:href="Images\Microstates\SM12_micro013.svg" width="201px" height="151px" preserveAspectRatio="xMinYMin meet" x="124.96" y="-156.845"/>
</g>
<!-- SM12_micro001&#45;&gt;SM12_micro013 -->
<g id="edge5" class="edge"><title>SM12_micro001&#45;&gt;SM12_micro013</title>
<path fill="none" stroke="black" d="M225.46,-211.563C225.46,-198.896 225.46,-185.726 225.46,-172.85"/>
<polygon fill="black" stroke="black" points="225.46,-162.602 229.96,-172.602 225.46,-167.602 225.46,-172.602 225.46,-172.602 225.46,-172.602 225.46,-167.602 220.96,-172.602 225.46,-162.602 225.46,-162.602"/>
<text text-anchor="middle" x="261.96" y="-184.09" font-family="sans bold" font-size="12.00">&#45;1.76+/&#45;2.0</text>
</g>
<!-- SM12_micro009 -->
<g id="node7" class="node"><title>SM12_micro009</title>
<defs>
<radialGradient id="r_6" cx="50%" cy="50%" r="75%" fx="50%" fy="50%">
<stop offset="0" style="stop-color:#ffffff;stop-opacity:1.;"/>
<stop offset="1" style="stop-color:#f4a582;stop-opacity:1.;"/>
</radialGradient>
</defs>
<polygon fill="url(#r_6)" stroke="#ffffff" points="372.048,-635.448 379.058,-635.892 385.995,-636.558 392.832,-637.442 399.54,-638.542 406.093,-639.856 412.465,-641.38 418.63,-643.11 424.566,-645.04 430.251,-647.166 435.663,-649.482 440.785,-651.981 445.599,-654.657 450.089,-657.502 454.243,-660.509 458.049,-663.669 461.498,-666.973 464.583,-670.413 467.297,-673.98 469.637,-677.662 471.603,-681.451 473.193,-685.335 474.412,-689.305 475.261,-693.349 475.748,-697.456 475.879,-701.615 475.663,-705.815 475.109,-710.044 474.23,-714.29 473.036,-718.542 471.541,-722.788 469.76,-727.017 467.705,-731.217 465.394,-735.376 462.839,-739.483 460.058,-743.527 457.066,-747.497 453.878,-751.382 450.509,-755.17 446.975,-758.853 443.29,-762.419 439.468,-765.859 435.523,-769.163 431.467,-772.323 427.313,-775.33 423.072,-778.175 418.755,-780.851 414.371,-783.35 409.929,-785.666 405.438,-787.792 400.906,-789.723 396.337,-791.452 391.74,-792.976 387.119,-794.29 382.478,-795.39 377.822,-796.275 373.155,-796.94 368.48,-797.384 363.8,-797.607 359.119,-797.607 354.44,-797.384 349.765,-796.94 345.097,-796.275 340.442,-795.39 335.801,-794.29 331.179,-792.976 326.582,-791.452 322.014,-789.723 317.481,-787.792 312.99,-785.666 308.549,-783.35 304.165,-780.851 299.847,-778.175 295.606,-775.33 291.452,-772.323 287.397,-769.163 283.451,-765.859 279.63,-762.419 275.944,-758.853 272.41,-755.17 269.042,-751.382 265.853,-747.497 262.861,-743.527 260.08,-739.483 257.526,-735.376 255.214,-731.217 253.16,-727.017 251.378,-722.788 249.883,-718.542 248.69,-714.29 247.81,-710.044 247.257,-705.815 247.04,-701.615 247.171,-697.456 247.658,-693.349 248.508,-689.305 249.726,-685.335 251.317,-681.451 253.282,-677.662 255.623,-673.98 258.337,-670.413 261.421,-666.973 264.87,-663.669 268.676,-660.509 272.83,-657.502 277.321,-654.657 282.134,-651.981 287.256,-649.482 292.668,-647.166 298.353,-645.04 304.289,-643.11 310.454,-641.38 316.826,-639.856 323.379,-638.542 330.087,-637.442 336.924,-636.558 343.862,-635.892 350.872,-635.448 357.925,-635.225 364.994,-635.225 372.048,-635.448"/>
<image xlink:href="Images\Microstates\SM12_micro009.svg" width="201px" height="151px" preserveAspectRatio="xMinYMin meet" x="260.96" y="-791.916"/>
</g>
<!-- SM12_micro009&#45;&gt;SM12_micro002 -->
<g id="edge6" class="edge"><title>SM12_micro009&#45;&gt;SM12_micro002</title>
<path fill="none" stroke="black" d="M284.999,-650.505C254.695,-624.778 219.948,-595.28 189.76,-569.652"/>
<polygon fill="black" stroke="black" points="181.782,-562.879 192.318,-565.92 185.594,-566.115 189.405,-569.351 189.405,-569.351 189.405,-569.351 185.594,-566.115 186.493,-572.781 181.782,-562.879 181.782,-562.879"/>
<text text-anchor="middle" x="282.96" y="-607.471" font-family="sans bold" font-size="12.00">5.72+/&#45;0.86</text>
</g>
<!-- SM12_micro009&#45;&gt;SM12_micro012 -->
<g id="edge7" class="edge"><title>SM12_micro009&#45;&gt;SM12_micro012</title>
<path fill="none" stroke="black" d="M361.46,-634.944C361.46,-622.277 361.46,-609.106 361.46,-596.23"/>
<polygon fill="black" stroke="black" points="361.46,-585.982 365.96,-595.982 361.46,-590.982 361.46,-595.982 361.46,-595.982 361.46,-595.982 361.46,-590.982 356.96,-595.983 361.46,-585.982 361.46,-585.982"/>
<text text-anchor="middle" x="402.46" y="-607.471" font-family="sans bold" font-size="12.00">12.77+/&#45;1.12</text>
</g>
<!-- SM12_micro009&#45;&gt;SM12_micro011 -->
<g id="edge8" class="edge"><title>SM12_micro009&#45;&gt;SM12_micro011</title>
<path fill="none" stroke="black" d="M437.92,-650.505C468.224,-624.778 502.971,-595.28 533.16,-569.652"/>
<polygon fill="black" stroke="black" points="541.137,-562.879 536.426,-572.781 537.326,-566.115 533.514,-569.351 533.514,-569.351 533.514,-569.351 537.326,-566.115 530.602,-565.92 541.137,-562.879 541.137,-562.879"/>
<text text-anchor="middle" x="529.96" y="-607.471" font-family="sans bold" font-size="12.00">5.01+/&#45;1.47</text>
</g>
</g>
</svg>
