<?xml version="1.0" encoding="UTF-8" standalone="no"?>
<!DOCTYPE svg PUBLIC "-//W3C//DTD SVG 1.1//EN"
 "http://www.w3.org/Graphics/SVG/1.1/DTD/svg11.dtd">
<!-- Generated by graphviz version 2.38.0 (20140413.2041)
 -->
<!-- Title: G Pages: 1 -->
<svg width="731pt" height="806pt"
 viewBox="0.00 0.00 730.92 805.76" xmlns="http://www.w3.org/2000/svg" xmlns:xlink="http://www.w3.org/1999/xlink">
<g id="graph0" class="graph" transform="scale(1 1) rotate(0) translate(4 801.761)">
<title>G</title>
<polygon fill="white" stroke="none" points="-4,4 -4,-801.761 726.919,-801.761 726.919,4 -4,4"/>
<!-- SM17_micro010 -->
<g id="node1" class="node"><title>SM17_micro010</title>
<defs>
<radialGradient id="r_0" cx="50%" cy="50%" r="75%" fx="50%" fy="50%">
<stop offset="0" style="stop-color:#ffffff;stop-opacity:1.;"/>
<stop offset="1" style="stop-color:#333333;stop-opacity:1.;"/>
</radialGradient>
</defs>
<polygon fill="url(#r_0)" stroke="#ffffff" points="372.048,-635.448 379.058,-635.892 385.995,-636.558 392.832,-637.442 399.54,-638.542 406.093,-639.856 412.465,-641.38 418.63,-643.11 424.566,-645.04 430.251,-647.166 435.663,-649.482 440.785,-651.981 445.599,-654.657 450.089,-657.502 454.243,-660.509 458.049,-663.669 461.498,-666.973 464.583,-670.413 467.297,-673.98 469.637,-677.662 471.603,-681.451 473.193,-685.335 474.412,-689.305 475.261,-693.349 475.748,-697.456 475.879,-701.615 475.663,-705.815 475.109,-710.044 474.23,-714.29 473.036,-718.542 471.541,-722.788 469.76,-727.017 467.705,-731.217 465.394,-735.376 462.839,-739.483 460.058,-743.527 457.066,-747.497 453.878,-751.382 450.509,-755.17 446.975,-758.853 443.29,-762.419 439.468,-765.859 435.523,-769.163 431.467,-772.323 427.313,-775.33 423.072,-778.175 418.755,-780.851 414.371,-783.35 409.929,-785.666 405.438,-787.792 400.906,-789.723 396.337,-791.452 391.74,-792.976 387.119,-794.29 382.478,-795.39 377.822,-796.275 373.155,-796.94 368.48,-797.384 363.8,-797.607 359.119,-797.607 354.44,-797.384 349.765,-796.94 345.097,-796.275 340.442,-795.39 335.801,-794.29 331.179,-792.976 326.582,-791.452 322.014,-789.723 317.481,-787.792 312.99,-785.666 308.549,-783.35 304.165,-780.851 299.847,-778.175 295.606,-775.33 291.452,-772.323 287.397,-769.163 283.451,-765.859 279.63,-762.419 275.944,-758.853 272.41,-755.17 269.042,-751.382 265.853,-747.497 262.861,-743.527 260.08,-739.483 257.526,-735.376 255.214,-731.217 253.16,-727.017 251.378,-722.788 249.883,-718.542 248.69,-714.29 247.81,-710.044 247.257,-705.815 247.04,-701.615 247.171,-697.456 247.658,-693.349 248.508,-689.305 249.726,-685.335 251.317,-681.451 253.282,-677.662 255.623,-673.98 258.337,-670.413 261.421,-666.973 264.87,-663.669 268.676,-660.509 272.83,-657.502 277.321,-654.657 282.134,-651.981 287.256,-649.482 292.668,-647.166 298.353,-645.04 304.289,-643.11 310.454,-641.38 316.826,-639.856 323.379,-638.542 330.087,-637.442 336.924,-636.558 343.862,-635.892 350.872,-635.448 357.925,-635.225 364.994,-635.225 372.048,-635.448"/>
<image xlink:href="Images\Microstates\SM17_micro010.svg" width="201px" height="151px" preserveAspectRatio="xMinYMin meet" x="260.96" y="-791.916"/>
</g>
<!-- SM17_micro004 -->
<g id="node6" class="node"><title>SM17_micro004</title>
<defs>
<radialGradient id="r_1" cx="50%" cy="50%" r="75%" fx="50%" fy="50%">
<stop offset="0" style="stop-color:#ffffff;stop-opacity:1.;"/>
<stop offset="1" style="stop-color:#92c5de;stop-opacity:1.;"/>
</radialGradient>
</defs>
<polygon fill="url(#r_1)" stroke="#ffffff" points="125.048,-423.758 132.058,-424.202 138.995,-424.867 145.832,-425.751 152.54,-426.852 159.093,-428.166 165.465,-429.69 171.63,-431.419 177.566,-433.35 183.251,-435.476 188.663,-437.792 193.785,-440.291 198.599,-442.967 203.089,-445.812 207.243,-448.819 211.049,-451.979 214.498,-455.283 217.583,-458.723 220.297,-462.289 222.637,-465.972 224.603,-469.76 226.193,-473.645 227.412,-477.615 228.261,-481.658 228.748,-485.766 228.879,-489.925 228.663,-494.125 228.109,-498.353 227.23,-502.6 226.036,-506.852 224.541,-511.098 222.76,-515.327 220.705,-519.527 218.394,-523.686 215.839,-527.793 213.058,-531.837 210.066,-535.807 206.878,-539.691 203.509,-543.48 199.975,-547.162 196.29,-550.728 192.468,-554.168 188.523,-557.473 184.467,-560.633 180.313,-563.64 176.072,-566.485 171.755,-569.161 167.371,-571.66 162.929,-573.976 158.438,-576.102 153.906,-578.032 149.337,-579.762 144.74,-581.286 140.119,-582.6 135.478,-583.7 130.822,-584.584 126.155,-585.249 121.48,-585.694 116.8,-585.916 112.119,-585.916 107.44,-585.694 102.765,-585.249 98.0975,-584.584 93.4416,-583.7 88.8008,-582.6 84.1793,-581.286 79.5819,-579.762 75.0137,-578.032 70.481,-576.102 65.9901,-573.976 61.5487,-571.66 57.1648,-569.161 52.8475,-566.485 48.6065,-563.64 44.4524,-560.633 40.3967,-557.473 36.4515,-554.168 32.6295,-550.728 28.9444,-547.162 25.4102,-543.48 22.0416,-539.691 18.8534,-535.807 15.861,-531.837 13.0799,-527.793 10.5257,-523.686 8.21384,-519.527 6.15959,-515.327 4.37794,-511.098 2.88337,-506.852 1.68971,-502.6 0.810051,-498.353 0.256552,-494.125 0.0403243,-489.925 0.171286,-485.766 0.658036,-481.658 1.50773,-477.615 2.72598,-473.645 4.31673,-469.76 6.28218,-465.972 8.62271,-462.289 11.3368,-458.723 14.421,-455.283 17.8699,-451.979 21.6761,-448.819 25.8301,-445.812 30.3207,-442.967 35.1344,-440.291 40.256,-437.792 45.6684,-435.476 51.3529,-433.35 57.2889,-431.419 63.4544,-429.69 69.826,-428.166 76.3789,-426.852 83.0872,-425.751 89.924,-424.867 96.8616,-424.202 103.872,-423.758 110.925,-423.535 117.994,-423.535 125.048,-423.758"/>
<image xlink:href="Images\Microstates\SM17_micro004.svg" width="201px" height="151px" preserveAspectRatio="xMinYMin meet" x="13.9597" y="-580.226"/>
</g>
<!-- SM17_micro010&#45;&gt;SM17_micro004 -->
<g id="edge1" class="edge"><title>SM17_micro010&#45;&gt;SM17_micro004</title>
<path fill="none" stroke="black" d="M284.999,-650.505C254.695,-624.778 219.948,-595.28 189.76,-569.652"/>
<polygon fill="black" stroke="black" points="181.782,-562.879 192.318,-565.92 185.594,-566.115 189.405,-569.351 189.405,-569.351 189.405,-569.351 185.594,-566.115 186.493,-572.781 181.782,-562.879 181.782,-562.879"/>
<text text-anchor="middle" x="285.46" y="-607.471" font-family="sans bold" font-size="12.00">&#45;0.27+/&#45;1.89</text>
</g>
<!-- SM17_micro005 -->
<g id="node7" class="node"><title>SM17_micro005</title>
<defs>
<radialGradient id="r_2" cx="50%" cy="50%" r="75%" fx="50%" fy="50%">
<stop offset="0" style="stop-color:#ffffff;stop-opacity:1.;"/>
<stop offset="1" style="stop-color:#92c5de;stop-opacity:1.;"/>
</radialGradient>
</defs>
<polygon fill="url(#r_2)" stroke="#ffffff" points="372.048,-423.758 379.058,-424.202 385.995,-424.867 392.832,-425.751 399.54,-426.852 406.093,-428.166 412.465,-429.69 418.63,-431.419 424.566,-433.35 430.251,-435.476 435.663,-437.792 440.785,-440.291 445.599,-442.967 450.089,-445.812 454.243,-448.819 458.049,-451.979 461.498,-455.283 464.583,-458.723 467.297,-462.289 469.637,-465.972 471.603,-469.76 473.193,-473.645 474.412,-477.615 475.261,-481.658 475.748,-485.766 475.879,-489.925 475.663,-494.125 475.109,-498.353 474.23,-502.6 473.036,-506.852 471.541,-511.098 469.76,-515.327 467.705,-519.527 465.394,-523.686 462.839,-527.793 460.058,-531.837 457.066,-535.807 453.878,-539.691 450.509,-543.48 446.975,-547.162 443.29,-550.728 439.468,-554.168 435.523,-557.473 431.467,-560.633 427.313,-563.64 423.072,-566.485 418.755,-569.161 414.371,-571.66 409.929,-573.976 405.438,-576.102 400.906,-578.032 396.337,-579.762 391.74,-581.286 387.119,-582.6 382.478,-583.7 377.822,-584.584 373.155,-585.249 368.48,-585.694 363.8,-585.916 359.119,-585.916 354.44,-585.694 349.765,-585.249 345.097,-584.584 340.442,-583.7 335.801,-582.6 331.179,-581.286 326.582,-579.762 322.014,-578.032 317.481,-576.102 312.99,-573.976 308.549,-571.66 304.165,-569.161 299.847,-566.485 295.606,-563.64 291.452,-560.633 287.397,-557.473 283.451,-554.168 279.63,-550.728 275.944,-547.162 272.41,-543.48 269.042,-539.691 265.853,-535.807 262.861,-531.837 260.08,-527.793 257.526,-523.686 255.214,-519.527 253.16,-515.327 251.378,-511.098 249.883,-506.852 248.69,-502.6 247.81,-498.353 247.257,-494.125 247.04,-489.925 247.171,-485.766 247.658,-481.658 248.508,-477.615 249.726,-473.645 251.317,-469.76 253.282,-465.972 255.623,-462.289 258.337,-458.723 261.421,-455.283 264.87,-451.979 268.676,-448.819 272.83,-445.812 277.321,-442.967 282.134,-440.291 287.256,-437.792 292.668,-435.476 298.353,-433.35 304.289,-431.419 310.454,-429.69 316.826,-428.166 323.379,-426.852 330.087,-425.751 336.924,-424.867 343.862,-424.202 350.872,-423.758 357.925,-423.535 364.994,-423.535 372.048,-423.758"/>
<image xlink:href="Images\Microstates\SM17_micro005.svg" width="201px" height="151px" preserveAspectRatio="xMinYMin meet" x="260.96" y="-580.226"/>
</g>
<!-- SM17_micro010&#45;&gt;SM17_micro005 -->
<g id="edge2" class="edge"><title>SM17_micro010&#45;&gt;SM17_micro005</title>
<path fill="none" stroke="black" d="M361.46,-634.944C361.46,-622.277 361.46,-609.106 361.46,-596.23"/>
<polygon fill="black" stroke="black" points="361.46,-585.982 365.96,-595.982 361.46,-590.982 361.46,-595.982 361.46,-595.982 361.46,-595.982 361.46,-590.982 356.96,-595.983 361.46,-585.982 361.46,-585.982"/>
<text text-anchor="middle" x="401.46" y="-607.471" font-family="sans bold" font-size="12.00">&#45;2.26+/&#45;1.18</text>
</g>
<!-- SM17_micro011 -->
<g id="node8" class="node"><title>SM17_micro011</title>
<defs>
<radialGradient id="r_3" cx="50%" cy="50%" r="75%" fx="50%" fy="50%">
<stop offset="0" style="stop-color:#ffffff;stop-opacity:1.;"/>
<stop offset="1" style="stop-color:#92c5de;stop-opacity:1.;"/>
</radialGradient>
</defs>
<polygon fill="url(#r_3)" stroke="#ffffff" points="619.048,-423.758 626.058,-424.202 632.995,-424.867 639.832,-425.751 646.54,-426.852 653.093,-428.166 659.465,-429.69 665.63,-431.419 671.566,-433.35 677.251,-435.476 682.663,-437.792 687.785,-440.291 692.599,-442.967 697.089,-445.812 701.243,-448.819 705.049,-451.979 708.498,-455.283 711.583,-458.723 714.297,-462.289 716.637,-465.972 718.603,-469.76 720.193,-473.645 721.412,-477.615 722.261,-481.658 722.748,-485.766 722.879,-489.925 722.663,-494.125 722.109,-498.353 721.23,-502.6 720.036,-506.852 718.541,-511.098 716.76,-515.327 714.705,-519.527 712.394,-523.686 709.839,-527.793 707.058,-531.837 704.066,-535.807 700.878,-539.691 697.509,-543.48 693.975,-547.162 690.29,-550.728 686.468,-554.168 682.523,-557.473 678.467,-560.633 674.313,-563.64 670.072,-566.485 665.755,-569.161 661.371,-571.66 656.929,-573.976 652.438,-576.102 647.906,-578.032 643.337,-579.762 638.74,-581.286 634.119,-582.6 629.478,-583.7 624.822,-584.584 620.155,-585.249 615.48,-585.694 610.8,-585.916 606.119,-585.916 601.44,-585.694 596.765,-585.249 592.097,-584.584 587.442,-583.7 582.801,-582.6 578.179,-581.286 573.582,-579.762 569.014,-578.032 564.481,-576.102 559.99,-573.976 555.549,-571.66 551.165,-569.161 546.847,-566.485 542.606,-563.64 538.452,-560.633 534.397,-557.473 530.451,-554.168 526.63,-550.728 522.944,-547.162 519.41,-543.48 516.042,-539.691 512.853,-535.807 509.861,-531.837 507.08,-527.793 504.526,-523.686 502.214,-519.527 500.16,-515.327 498.378,-511.098 496.883,-506.852 495.69,-502.6 494.81,-498.353 494.257,-494.125 494.04,-489.925 494.171,-485.766 494.658,-481.658 495.508,-477.615 496.726,-473.645 498.317,-469.76 500.282,-465.972 502.623,-462.289 505.337,-458.723 508.421,-455.283 511.87,-451.979 515.676,-448.819 519.83,-445.812 524.321,-442.967 529.134,-440.291 534.256,-437.792 539.668,-435.476 545.353,-433.35 551.289,-431.419 557.454,-429.69 563.826,-428.166 570.379,-426.852 577.087,-425.751 583.924,-424.867 590.862,-424.202 597.872,-423.758 604.925,-423.535 611.994,-423.535 619.048,-423.758"/>
<image xlink:href="Images\Microstates\SM17_micro011.svg" width="201px" height="151px" preserveAspectRatio="xMinYMin meet" x="507.96" y="-580.226"/>
</g>
<!-- SM17_micro010&#45;&gt;SM17_micro011 -->
<g id="edge3" class="edge"><title>SM17_micro010&#45;&gt;SM17_micro011</title>
<path fill="none" stroke="black" d="M437.92,-650.505C468.224,-624.778 502.971,-595.28 533.16,-569.652"/>
<polygon fill="black" stroke="black" points="541.137,-562.879 536.426,-572.781 537.326,-566.115 533.514,-569.351 533.514,-569.351 533.514,-569.351 537.326,-566.115 530.602,-565.92 541.137,-562.879 541.137,-562.879"/>
<text text-anchor="middle" x="529.96" y="-607.471" font-family="sans bold" font-size="12.00">3.24+/&#45;0.58</text>
</g>
<!-- SM17_micro006 -->
<g id="node2" class="node"><title>SM17_micro006</title>
<defs>
<radialGradient id="r_4" cx="50%" cy="50%" r="75%" fx="50%" fy="50%">
<stop offset="0" style="stop-color:#ffffff;stop-opacity:1.;"/>
<stop offset="1" style="stop-color:#4393c3;stop-opacity:1.;"/>
</radialGradient>
</defs>
<polygon fill="url(#r_4)" stroke="#ffffff" points="372.048,-212.067 379.058,-212.512 385.995,-213.177 392.832,-214.061 399.54,-215.162 406.093,-216.476 412.465,-217.999 418.63,-219.729 424.566,-221.659 430.251,-223.785 435.663,-226.101 440.785,-228.601 445.599,-231.276 450.089,-234.122 454.243,-237.128 458.049,-240.288 461.498,-243.593 464.583,-247.033 467.297,-250.599 469.637,-254.281 471.603,-258.07 473.193,-261.955 474.412,-265.924 475.261,-269.968 475.748,-274.075 475.879,-278.235 475.663,-282.434 475.109,-286.663 474.23,-290.909 473.036,-295.162 471.541,-299.408 469.76,-303.637 467.705,-307.836 465.394,-311.996 462.839,-316.103 460.058,-320.147 457.066,-324.116 453.878,-328.001 450.509,-331.79 446.975,-335.472 443.29,-339.038 439.468,-342.478 435.523,-345.783 431.467,-348.943 427.313,-351.949 423.072,-354.794 418.755,-357.47 414.371,-359.97 409.929,-362.286 405.438,-364.412 400.906,-366.342 396.337,-368.072 391.74,-369.595 387.119,-370.909 382.478,-372.01 377.822,-372.894 373.155,-373.559 368.48,-374.004 363.8,-374.226 359.119,-374.226 354.44,-374.004 349.765,-373.559 345.097,-372.894 340.442,-372.01 335.801,-370.909 331.179,-369.595 326.582,-368.072 322.014,-366.342 317.481,-364.412 312.99,-362.286 308.549,-359.97 304.165,-357.47 299.847,-354.794 295.606,-351.949 291.452,-348.943 287.397,-345.783 283.451,-342.478 279.63,-339.038 275.944,-335.472 272.41,-331.79 269.042,-328.001 265.853,-324.116 262.861,-320.147 260.08,-316.103 257.526,-311.996 255.214,-307.836 253.16,-303.637 251.378,-299.408 249.883,-295.162 248.69,-290.909 247.81,-286.663 247.257,-282.434 247.04,-278.235 247.171,-274.075 247.658,-269.968 248.508,-265.924 249.726,-261.955 251.317,-258.07 253.282,-254.281 255.623,-250.599 258.337,-247.033 261.421,-243.593 264.87,-240.288 268.676,-237.128 272.83,-234.122 277.321,-231.276 282.134,-228.601 287.256,-226.101 292.668,-223.785 298.353,-221.659 304.289,-219.729 310.454,-217.999 316.826,-216.476 323.379,-215.162 330.087,-214.061 336.924,-213.177 343.862,-212.512 350.872,-212.067 357.925,-211.845 364.994,-211.845 372.048,-212.067"/>
<image xlink:href="Images\Microstates\SM17_micro006.svg" width="201px" height="151px" preserveAspectRatio="xMinYMin meet" x="260.96" y="-368.535"/>
</g>
<!-- SM17_micro008 -->
<g id="node5" class="node"><title>SM17_micro008</title>
<defs>
<radialGradient id="r_5" cx="50%" cy="50%" r="75%" fx="50%" fy="50%">
<stop offset="0" style="stop-color:#ffffff;stop-opacity:1.;"/>
<stop offset="1" style="stop-color:#2166ac;stop-opacity:1.;"/>
</radialGradient>
</defs>
<polygon fill="url(#r_5)" stroke="#ffffff" points="372.048,-0.377089 379.058,-0.821554 385.995,-1.48673 392.832,-2.37079 399.54,-3.47132 406.093,-4.78529 412.465,-6.3091 418.63,-8.03859 424.566,-9.969 430.251,-12.0951 435.663,-14.4109 440.785,-16.9102 445.599,-19.5862 450.089,-22.4314 454.243,-25.4381 458.049,-28.598 461.498,-31.9025 464.583,-35.3425 467.297,-38.9086 469.637,-42.5911 471.603,-46.3797 473.193,-50.2642 474.412,-54.2339 475.261,-58.2779 475.748,-62.3851 475.879,-66.5443 475.663,-70.744 475.109,-74.9728 474.23,-79.2191 473.036,-83.4712 471.541,-87.7175 469.76,-91.9463 467.705,-96.146 465.394,-100.305 462.839,-104.412 460.058,-108.456 457.066,-112.426 453.878,-116.311 450.509,-120.099 446.975,-123.782 443.29,-127.348 439.468,-130.788 435.523,-134.092 431.467,-137.252 427.313,-140.259 423.072,-143.104 418.755,-145.78 414.371,-148.279 409.929,-150.595 405.438,-152.721 400.906,-154.652 396.337,-156.381 391.74,-157.905 387.119,-159.219 382.478,-160.32 377.822,-161.204 373.155,-161.869 368.48,-162.313 363.8,-162.536 359.119,-162.536 354.44,-162.313 349.765,-161.869 345.097,-161.204 340.442,-160.32 335.801,-159.219 331.179,-157.905 326.582,-156.381 322.014,-154.652 317.481,-152.721 312.99,-150.595 308.549,-148.279 304.165,-145.78 299.847,-143.104 295.606,-140.259 291.452,-137.252 287.397,-134.092 283.451,-130.788 279.63,-127.348 275.944,-123.782 272.41,-120.099 269.042,-116.311 265.853,-112.426 262.861,-108.456 260.08,-104.412 257.526,-100.305 255.214,-96.146 253.16,-91.9463 251.378,-87.7175 249.883,-83.4712 248.69,-79.2191 247.81,-74.9728 247.257,-70.744 247.04,-66.5443 247.171,-62.3851 247.658,-58.2779 248.508,-54.2339 249.726,-50.2642 251.317,-46.3797 253.282,-42.5911 255.623,-38.9086 258.337,-35.3425 261.421,-31.9025 264.87,-28.598 268.676,-25.4381 272.83,-22.4314 277.321,-19.5862 282.134,-16.9102 287.256,-14.4109 292.668,-12.0951 298.353,-9.969 304.289,-8.03859 310.454,-6.3091 316.826,-4.78529 323.379,-3.47132 330.087,-2.37079 336.924,-1.48673 343.862,-0.821554 350.872,-0.377089 357.925,-0.154551 364.994,-0.154551 372.048,-0.377089"/>
<image xlink:href="Images\Microstates\SM17_micro008.svg" width="201px" height="151px" preserveAspectRatio="xMinYMin meet" x="260.96" y="-156.845"/>
</g>
<!-- SM17_micro006&#45;&gt;SM17_micro008 -->
<g id="edge10" class="edge"><title>SM17_micro006&#45;&gt;SM17_micro008</title>
<path fill="none" stroke="black" d="M361.46,-211.563C361.46,-198.896 361.46,-185.726 361.46,-172.85"/>
<polygon fill="black" stroke="black" points="361.46,-162.602 365.96,-172.602 361.46,-167.602 361.46,-172.602 361.46,-172.602 361.46,-172.602 361.46,-167.602 356.96,-172.602 361.46,-162.602 361.46,-162.602"/>
<text text-anchor="middle" x="405.46" y="-184.09" font-family="sans bold" font-size="12.00">&#45;15.71+/&#45;2.26</text>
</g>
<!-- SM17_micro009 -->
<g id="node3" class="node"><title>SM17_micro009</title>
<defs>
<radialGradient id="r_6" cx="50%" cy="50%" r="75%" fx="50%" fy="50%">
<stop offset="0" style="stop-color:#ffffff;stop-opacity:1.;"/>
<stop offset="1" style="stop-color:#4393c3;stop-opacity:1.;"/>
</radialGradient>
</defs>
<polygon fill="url(#r_6)" stroke="#ffffff" points="125.048,-212.067 132.058,-212.512 138.995,-213.177 145.832,-214.061 152.54,-215.162 159.093,-216.476 165.465,-217.999 171.63,-219.729 177.566,-221.659 183.251,-223.785 188.663,-226.101 193.785,-228.601 198.599,-231.276 203.089,-234.122 207.243,-237.128 211.049,-240.288 214.498,-243.593 217.583,-247.033 220.297,-250.599 222.637,-254.281 224.603,-258.07 226.193,-261.955 227.412,-265.924 228.261,-269.968 228.748,-274.075 228.879,-278.235 228.663,-282.434 228.109,-286.663 227.23,-290.909 226.036,-295.162 224.541,-299.408 222.76,-303.637 220.705,-307.836 218.394,-311.996 215.839,-316.103 213.058,-320.147 210.066,-324.116 206.878,-328.001 203.509,-331.79 199.975,-335.472 196.29,-339.038 192.468,-342.478 188.523,-345.783 184.467,-348.943 180.313,-351.949 176.072,-354.794 171.755,-357.47 167.371,-359.97 162.929,-362.286 158.438,-364.412 153.906,-366.342 149.337,-368.072 144.74,-369.595 140.119,-370.909 135.478,-372.01 130.822,-372.894 126.155,-373.559 121.48,-374.004 116.8,-374.226 112.119,-374.226 107.44,-374.004 102.765,-373.559 98.0975,-372.894 93.4416,-372.01 88.8008,-370.909 84.1793,-369.595 79.5819,-368.072 75.0137,-366.342 70.481,-364.412 65.9901,-362.286 61.5487,-359.97 57.1648,-357.47 52.8475,-354.794 48.6065,-351.949 44.4524,-348.943 40.3967,-345.783 36.4515,-342.478 32.6295,-339.038 28.9444,-335.472 25.4102,-331.79 22.0416,-328.001 18.8534,-324.116 15.861,-320.147 13.0799,-316.103 10.5257,-311.996 8.21384,-307.836 6.15959,-303.637 4.37794,-299.408 2.88337,-295.162 1.68971,-290.909 0.810051,-286.663 0.256552,-282.434 0.0403243,-278.235 0.171286,-274.075 0.658036,-269.968 1.50773,-265.924 2.72598,-261.955 4.31673,-258.07 6.28218,-254.281 8.62271,-250.599 11.3368,-247.033 14.421,-243.593 17.8699,-240.288 21.6761,-237.128 25.8301,-234.122 30.3207,-231.276 35.1344,-228.601 40.256,-226.101 45.6684,-223.785 51.3529,-221.659 57.2889,-219.729 63.4544,-217.999 69.826,-216.476 76.3789,-215.162 83.0872,-214.061 89.924,-213.177 96.8616,-212.512 103.872,-212.067 110.925,-211.845 117.994,-211.845 125.048,-212.067"/>
<image xlink:href="Images\Microstates\SM17_micro009.svg" width="201px" height="151px" preserveAspectRatio="xMinYMin meet" x="13.9597" y="-368.535"/>
</g>
<!-- SM17_micro009&#45;&gt;SM17_micro008 -->
<g id="edge11" class="edge"><title>SM17_micro009&#45;&gt;SM17_micro008</title>
<path fill="none" stroke="black" d="M190.92,-227.124C221.224,-201.398 255.971,-171.9 286.16,-146.271"/>
<polygon fill="black" stroke="black" points="294.137,-139.498 289.426,-149.401 290.326,-142.734 286.514,-145.97 286.514,-145.97 286.514,-145.97 290.326,-142.734 283.602,-142.54 294.137,-139.498 294.137,-139.498"/>
<text text-anchor="middle" x="278.96" y="-184.09" font-family="sans bold" font-size="12.00">1.4+/&#45;0.58</text>
</g>
<!-- SM17_micro007 -->
<g id="node4" class="node"><title>SM17_micro007</title>
<defs>
<radialGradient id="r_7" cx="50%" cy="50%" r="75%" fx="50%" fy="50%">
<stop offset="0" style="stop-color:#ffffff;stop-opacity:1.;"/>
<stop offset="1" style="stop-color:#4393c3;stop-opacity:1.;"/>
</radialGradient>
</defs>
<polygon fill="url(#r_7)" stroke="#ffffff" points="619.048,-212.067 626.058,-212.512 632.995,-213.177 639.832,-214.061 646.54,-215.162 653.093,-216.476 659.465,-217.999 665.63,-219.729 671.566,-221.659 677.251,-223.785 682.663,-226.101 687.785,-228.601 692.599,-231.276 697.089,-234.122 701.243,-237.128 705.049,-240.288 708.498,-243.593 711.583,-247.033 714.297,-250.599 716.637,-254.281 718.603,-258.07 720.193,-261.955 721.412,-265.924 722.261,-269.968 722.748,-274.075 722.879,-278.235 722.663,-282.434 722.109,-286.663 721.23,-290.909 720.036,-295.162 718.541,-299.408 716.76,-303.637 714.705,-307.836 712.394,-311.996 709.839,-316.103 707.058,-320.147 704.066,-324.116 700.878,-328.001 697.509,-331.79 693.975,-335.472 690.29,-339.038 686.468,-342.478 682.523,-345.783 678.467,-348.943 674.313,-351.949 670.072,-354.794 665.755,-357.47 661.371,-359.97 656.929,-362.286 652.438,-364.412 647.906,-366.342 643.337,-368.072 638.74,-369.595 634.119,-370.909 629.478,-372.01 624.822,-372.894 620.155,-373.559 615.48,-374.004 610.8,-374.226 606.119,-374.226 601.44,-374.004 596.765,-373.559 592.097,-372.894 587.442,-372.01 582.801,-370.909 578.179,-369.595 573.582,-368.072 569.014,-366.342 564.481,-364.412 559.99,-362.286 555.549,-359.97 551.165,-357.47 546.847,-354.794 542.606,-351.949 538.452,-348.943 534.397,-345.783 530.451,-342.478 526.63,-339.038 522.944,-335.472 519.41,-331.79 516.042,-328.001 512.853,-324.116 509.861,-320.147 507.08,-316.103 504.526,-311.996 502.214,-307.836 500.16,-303.637 498.378,-299.408 496.883,-295.162 495.69,-290.909 494.81,-286.663 494.257,-282.434 494.04,-278.235 494.171,-274.075 494.658,-269.968 495.508,-265.924 496.726,-261.955 498.317,-258.07 500.282,-254.281 502.623,-250.599 505.337,-247.033 508.421,-243.593 511.87,-240.288 515.676,-237.128 519.83,-234.122 524.321,-231.276 529.134,-228.601 534.256,-226.101 539.668,-223.785 545.353,-221.659 551.289,-219.729 557.454,-217.999 563.826,-216.476 570.379,-215.162 577.087,-214.061 583.924,-213.177 590.862,-212.512 597.872,-212.067 604.925,-211.845 611.994,-211.845 619.048,-212.067"/>
<image xlink:href="Images\Microstates\SM17_micro007.svg" width="201px" height="151px" preserveAspectRatio="xMinYMin meet" x="507.96" y="-368.535"/>
</g>
<!-- SM17_micro007&#45;&gt;SM17_micro008 -->
<g id="edge12" class="edge"><title>SM17_micro007&#45;&gt;SM17_micro008</title>
<path fill="none" stroke="black" d="M531.999,-227.124C501.695,-201.398 466.948,-171.9 436.76,-146.271"/>
<polygon fill="black" stroke="black" points="428.782,-139.498 439.318,-142.54 432.594,-142.734 436.405,-145.97 436.405,-145.97 436.405,-145.97 432.594,-142.734 433.493,-149.401 428.782,-139.498 428.782,-139.498"/>
<text text-anchor="middle" x="536.46" y="-184.09" font-family="sans bold" font-size="12.00">&#45;13.97+/&#45;2.26</text>
</g>
<!-- SM17_micro004&#45;&gt;SM17_micro006 -->
<g id="edge4" class="edge"><title>SM17_micro004&#45;&gt;SM17_micro006</title>
<path fill="none" stroke="black" d="M179.106,-433.841C199.801,-411.47 217.46,-392.381 217.46,-392.381 217.46,-392.381 246.159,-372.78 277.934,-351.08"/>
<polygon fill="black" stroke="black" points="286.507,-345.224 280.787,-354.58 282.378,-348.044 278.249,-350.864 278.249,-350.864 278.249,-350.864 282.378,-348.044 275.711,-347.148 286.507,-345.224 286.507,-345.224"/>
<text text-anchor="middle" x="251.96" y="-395.781" font-family="sans bold" font-size="12.00">1.9+/&#45;0.58</text>
</g>
<!-- SM17_micro004&#45;&gt;SM17_micro009 -->
<g id="edge5" class="edge"><title>SM17_micro004&#45;&gt;SM17_micro009</title>
<path fill="none" stroke="black" d="M107.927,-423.419C107.058,-412.734 106.46,-405.381 106.46,-405.381 106.46,-405.381 106.46,-392.381 106.46,-392.381 106.46,-392.381 106.705,-389.363 107.11,-384.385"/>
<polygon fill="black" stroke="black" points="107.927,-374.343 111.601,-384.675 107.522,-379.326 107.116,-384.31 107.116,-384.31 107.116,-384.31 107.522,-379.326 102.631,-383.945 107.927,-374.343 107.927,-374.343"/>
<text text-anchor="middle" x="151.46" y="-395.781" font-family="sans bold" font-size="12.00">&#45;15.34+/&#45;2.26</text>
</g>
<!-- SM17_micro005&#45;&gt;SM17_micro009 -->
<g id="edge6" class="edge"><title>SM17_micro005&#45;&gt;SM17_micro009</title>
<path fill="none" stroke="black" d="M310.1,-429.457C295.975,-409.032 284.46,-392.381 284.46,-392.381 284.46,-392.381 238.46,-374.381 238.46,-374.381 238.46,-374.381 221.268,-363.241 199.686,-349.258"/>
<polygon fill="black" stroke="black" points="191.227,-343.776 202.066,-345.438 195.423,-346.495 199.619,-349.214 199.619,-349.214 199.619,-349.214 195.423,-346.495 197.172,-352.991 191.227,-343.776 191.227,-343.776"/>
<text text-anchor="middle" x="337.46" y="-395.781" font-family="sans bold" font-size="12.00">&#45;14.38+/&#45;2.26</text>
</g>
<!-- SM17_micro005&#45;&gt;SM17_micro007 -->
<g id="edge7" class="edge"><title>SM17_micro005&#45;&gt;SM17_micro007</title>
<path fill="none" stroke="black" d="M400.737,-427.001C410.61,-407.714 418.46,-392.381 418.46,-392.381 418.46,-392.381 484.46,-374.381 484.46,-374.381 484.46,-374.381 501.652,-363.241 523.233,-349.258"/>
<polygon fill="black" stroke="black" points="531.692,-343.776 525.747,-352.991 527.496,-346.495 523.3,-349.214 523.3,-349.214 523.3,-349.214 527.496,-346.495 520.853,-345.438 531.692,-343.776 531.692,-343.776"/>
<text text-anchor="middle" x="457.96" y="-395.781" font-family="sans bold" font-size="12.00">0.89+/&#45;0.58</text>
</g>
<!-- SM17_micro011&#45;&gt;SM17_micro006 -->
<g id="edge8" class="edge"><title>SM17_micro011&#45;&gt;SM17_micro006</title>
<path fill="none" stroke="black" d="M538.251,-435.748C514.308,-412.566 493.46,-392.381 493.46,-392.381 493.46,-392.381 469.433,-374.48 441.882,-353.953"/>
<polygon fill="black" stroke="black" points="433.639,-347.812 444.347,-350.178 437.649,-350.799 441.658,-353.787 441.658,-353.787 441.658,-353.787 437.649,-350.799 438.97,-357.395 433.639,-347.812 433.639,-347.812"/>
<text text-anchor="middle" x="545.46" y="-395.781" font-family="sans bold" font-size="12.00">&#45;1.61+/&#45;1.87</text>
</g>
<!-- SM17_micro011&#45;&gt;SM17_micro007 -->
<g id="edge9" class="edge"><title>SM17_micro011&#45;&gt;SM17_micro007</title>
<path fill="none" stroke="black" d="M608.46,-423.254C608.46,-410.586 608.46,-397.416 608.46,-384.54"/>
<polygon fill="black" stroke="black" points="608.46,-374.292 612.96,-384.292 608.46,-379.292 608.46,-384.292 608.46,-384.292 608.46,-384.292 608.46,-379.292 603.96,-384.292 608.46,-374.292 608.46,-374.292"/>
<text text-anchor="middle" x="648.46" y="-395.781" font-family="sans bold" font-size="12.00">&#45;4.65+/&#45;1.18</text>
</g>
</g>
</svg>
