<?xml version="1.0" encoding="UTF-8" standalone="no"?>
<!DOCTYPE svg PUBLIC "-//W3C//DTD SVG 1.1//EN"
 "http://www.w3.org/Graphics/SVG/1.1/DTD/svg11.dtd">
<!-- Generated by graphviz version 2.38.0 (20140413.2041)
 -->
<!-- Title: G Pages: 1 -->
<svg width="237pt" height="382pt"
 viewBox="0.00 0.00 236.92 382.38" xmlns="http://www.w3.org/2000/svg" xmlns:xlink="http://www.w3.org/1999/xlink">
<g id="graph0" class="graph" transform="scale(1 1) rotate(0) translate(4 378.381)">
<title>G</title>
<polygon fill="white" stroke="none" points="-4,4 -4,-378.381 232.919,-378.381 232.919,4 -4,4"/>
<!-- SM20_micro003 -->
<g id="node1" class="node"><title>SM20_micro003</title>
<defs>
<radialGradient id="r_0" cx="50%" cy="50%" r="75%" fx="50%" fy="50%">
<stop offset="0" style="stop-color:#ffffff;stop-opacity:1.;"/>
<stop offset="1" style="stop-color:#333333;stop-opacity:1.;"/>
</radialGradient>
</defs>
<polygon fill="url(#r_0)" stroke="#ffffff" points="125.048,-0.377089 132.058,-0.821554 138.995,-1.48673 145.832,-2.37079 152.54,-3.47132 159.093,-4.78529 165.465,-6.3091 171.63,-8.03859 177.566,-9.969 183.251,-12.0951 188.663,-14.4109 193.785,-16.9102 198.599,-19.5862 203.089,-22.4314 207.243,-25.4381 211.049,-28.598 214.498,-31.9025 217.583,-35.3425 220.297,-38.9086 222.637,-42.5911 224.603,-46.3797 226.193,-50.2642 227.412,-54.2339 228.261,-58.2779 228.748,-62.3851 228.879,-66.5443 228.663,-70.744 228.109,-74.9728 227.23,-79.2191 226.036,-83.4712 224.541,-87.7175 222.76,-91.9463 220.705,-96.146 218.394,-100.305 215.839,-104.412 213.058,-108.456 210.066,-112.426 206.878,-116.311 203.509,-120.099 199.975,-123.782 196.29,-127.348 192.468,-130.788 188.523,-134.092 184.467,-137.252 180.313,-140.259 176.072,-143.104 171.755,-145.78 167.371,-148.279 162.929,-150.595 158.438,-152.721 153.906,-154.652 149.337,-156.381 144.74,-157.905 140.119,-159.219 135.478,-160.32 130.822,-161.204 126.155,-161.869 121.48,-162.313 116.8,-162.536 112.119,-162.536 107.44,-162.313 102.765,-161.869 98.0975,-161.204 93.4416,-160.32 88.8008,-159.219 84.1793,-157.905 79.5819,-156.381 75.0137,-154.652 70.481,-152.721 65.9901,-150.595 61.5487,-148.279 57.1648,-145.78 52.8475,-143.104 48.6065,-140.259 44.4524,-137.252 40.3967,-134.092 36.4515,-130.788 32.6295,-127.348 28.9444,-123.782 25.4102,-120.099 22.0416,-116.311 18.8534,-112.426 15.861,-108.456 13.0799,-104.412 10.5257,-100.305 8.21384,-96.146 6.15959,-91.9463 4.37794,-87.7175 2.88337,-83.4712 1.68971,-79.2191 0.810051,-74.9728 0.256552,-70.744 0.0403243,-66.5443 0.171286,-62.3851 0.658036,-58.2779 1.50773,-54.2339 2.72598,-50.2642 4.31673,-46.3797 6.28218,-42.5911 8.62271,-38.9086 11.3368,-35.3425 14.421,-31.9025 17.8699,-28.598 21.6761,-25.4381 25.8301,-22.4314 30.3207,-19.5862 35.1344,-16.9102 40.256,-14.4109 45.6684,-12.0951 51.3529,-9.969 57.2889,-8.03859 63.4544,-6.3091 69.826,-4.78529 76.3789,-3.47132 83.0872,-2.37079 89.924,-1.48673 96.8616,-0.821554 103.872,-0.377089 110.925,-0.154551 117.994,-0.154551 125.048,-0.377089"/>
<image xlink:href="Images\Microstates\SM20_micro003.svg" width="201px" height="151px" preserveAspectRatio="xMinYMin meet" x="13.9597" y="-156.845"/>
</g>
<!-- SM20_micro004 -->
<g id="node2" class="node"><title>SM20_micro004</title>
<defs>
<radialGradient id="r_1" cx="50%" cy="50%" r="75%" fx="50%" fy="50%">
<stop offset="0" style="stop-color:#ffffff;stop-opacity:1.;"/>
<stop offset="1" style="stop-color:#f4a582;stop-opacity:1.;"/>
</radialGradient>
</defs>
<polygon fill="url(#r_1)" stroke="#ffffff" points="125.048,-212.067 132.058,-212.512 138.995,-213.177 145.832,-214.061 152.54,-215.162 159.093,-216.476 165.465,-217.999 171.63,-219.729 177.566,-221.659 183.251,-223.785 188.663,-226.101 193.785,-228.601 198.599,-231.276 203.089,-234.122 207.243,-237.128 211.049,-240.288 214.498,-243.593 217.583,-247.033 220.297,-250.599 222.637,-254.281 224.603,-258.07 226.193,-261.955 227.412,-265.924 228.261,-269.968 228.748,-274.075 228.879,-278.235 228.663,-282.434 228.109,-286.663 227.23,-290.909 226.036,-295.162 224.541,-299.408 222.76,-303.637 220.705,-307.836 218.394,-311.996 215.839,-316.103 213.058,-320.147 210.066,-324.116 206.878,-328.001 203.509,-331.79 199.975,-335.472 196.29,-339.038 192.468,-342.478 188.523,-345.783 184.467,-348.943 180.313,-351.949 176.072,-354.794 171.755,-357.47 167.371,-359.97 162.929,-362.286 158.438,-364.412 153.906,-366.342 149.337,-368.072 144.74,-369.595 140.119,-370.909 135.478,-372.01 130.822,-372.894 126.155,-373.559 121.48,-374.004 116.8,-374.226 112.119,-374.226 107.44,-374.004 102.765,-373.559 98.0975,-372.894 93.4416,-372.01 88.8008,-370.909 84.1793,-369.595 79.5819,-368.072 75.0137,-366.342 70.481,-364.412 65.9901,-362.286 61.5487,-359.97 57.1648,-357.47 52.8475,-354.794 48.6065,-351.949 44.4524,-348.943 40.3967,-345.783 36.4515,-342.478 32.6295,-339.038 28.9444,-335.472 25.4102,-331.79 22.0416,-328.001 18.8534,-324.116 15.861,-320.147 13.0799,-316.103 10.5257,-311.996 8.21384,-307.836 6.15959,-303.637 4.37794,-299.408 2.88337,-295.162 1.68971,-290.909 0.810051,-286.663 0.256552,-282.434 0.0403243,-278.235 0.171286,-274.075 0.658036,-269.968 1.50773,-265.924 2.72598,-261.955 4.31673,-258.07 6.28218,-254.281 8.62271,-250.599 11.3368,-247.033 14.421,-243.593 17.8699,-240.288 21.6761,-237.128 25.8301,-234.122 30.3207,-231.276 35.1344,-228.601 40.256,-226.101 45.6684,-223.785 51.3529,-221.659 57.2889,-219.729 63.4544,-217.999 69.826,-216.476 76.3789,-215.162 83.0872,-214.061 89.924,-213.177 96.8616,-212.512 103.872,-212.067 110.925,-211.845 117.994,-211.845 125.048,-212.067"/>
<image xlink:href="Images\Microstates\SM20_micro004.svg" width="201px" height="151px" preserveAspectRatio="xMinYMin meet" x="13.9597" y="-368.535"/>
</g>
<!-- SM20_micro004&#45;&gt;SM20_micro003 -->
<g id="edge1" class="edge"><title>SM20_micro004&#45;&gt;SM20_micro003</title>
<path fill="none" stroke="black" d="M114.46,-211.563C114.46,-198.896 114.46,-185.726 114.46,-172.85"/>
<polygon fill="black" stroke="black" points="114.46,-162.602 118.96,-172.602 114.46,-167.602 114.46,-172.602 114.46,-172.602 114.46,-172.602 114.46,-167.602 109.96,-172.602 114.46,-162.602 114.46,-162.602"/>
<text text-anchor="middle" x="151.96" y="-184.09" font-family="sans bold" font-size="12.00">8.05+/&#45;2.22</text>
</g>
</g>
</svg>
