<?xml version="1.0" encoding="UTF-8" standalone="no"?>
<!DOCTYPE svg PUBLIC "-//W3C//DTD SVG 1.1//EN"
 "http://www.w3.org/Graphics/SVG/1.1/DTD/svg11.dtd">
<!-- Generated by graphviz version 2.38.0 (20140413.2041)
 -->
<!-- Title: G Pages: 1 -->
<svg width="1472pt" height="1441pt"
 viewBox="0.00 0.00 1471.92 1440.83" xmlns="http://www.w3.org/2000/svg" xmlns:xlink="http://www.w3.org/1999/xlink">
<g id="graph0" class="graph" transform="scale(1 1) rotate(0) translate(4 1436.83)">
<title>G</title>
<polygon fill="white" stroke="none" points="-4,4 -4,-1436.83 1467.92,-1436.83 1467.92,4 -4,4"/>
<!-- SM21_micro014 -->
<g id="node1" class="node"><title>SM21_micro014</title>
<defs>
<radialGradient id="r_0" cx="50%" cy="50%" r="75%" fx="50%" fy="50%">
<stop offset="0" style="stop-color:#ffffff;stop-opacity:1.;"/>
<stop offset="1" style="stop-color:#333333;stop-opacity:1.;"/>
</radialGradient>
</defs>
<polygon fill="url(#r_0)" stroke="#ffffff" points="440.048,-847.138 447.058,-847.583 453.995,-848.248 460.832,-849.132 467.54,-850.233 474.093,-851.547 480.465,-853.07 486.63,-854.8 492.566,-856.73 498.251,-858.856 503.663,-861.172 508.785,-863.671 513.599,-866.347 518.089,-869.193 522.243,-872.199 526.049,-875.359 529.498,-878.664 532.583,-882.104 535.297,-885.67 537.637,-889.352 539.603,-893.141 541.193,-897.025 542.412,-900.995 543.261,-905.039 543.748,-909.146 543.879,-913.306 543.663,-917.505 543.109,-921.734 542.23,-925.98 541.036,-930.232 539.541,-934.479 537.76,-938.708 535.705,-942.907 533.394,-947.066 530.839,-951.174 528.058,-955.218 525.066,-959.187 521.878,-963.072 518.509,-966.86 514.975,-970.543 511.29,-974.109 507.468,-977.549 503.523,-980.854 499.467,-984.013 495.313,-987.02 491.072,-989.865 486.755,-992.541 482.371,-995.041 477.929,-997.356 473.438,-999.483 468.906,-1001.41 464.337,-1003.14 459.74,-1004.67 455.119,-1005.98 450.478,-1007.08 445.822,-1007.96 441.155,-1008.63 436.48,-1009.07 431.8,-1009.3 427.119,-1009.3 422.44,-1009.07 417.765,-1008.63 413.097,-1007.96 408.442,-1007.08 403.801,-1005.98 399.179,-1004.67 394.582,-1003.14 390.014,-1001.41 385.481,-999.483 380.99,-997.356 376.549,-995.041 372.165,-992.541 367.847,-989.865 363.606,-987.02 359.452,-984.013 355.397,-980.854 351.451,-977.549 347.63,-974.109 343.944,-970.543 340.41,-966.86 337.042,-963.072 333.853,-959.187 330.861,-955.218 328.08,-951.174 325.526,-947.066 323.214,-942.907 321.16,-938.708 319.378,-934.479 317.883,-930.232 316.69,-925.98 315.81,-921.734 315.257,-917.505 315.04,-913.306 315.171,-909.146 315.658,-905.039 316.508,-900.995 317.726,-897.025 319.317,-893.141 321.282,-889.352 323.623,-885.67 326.337,-882.104 329.421,-878.664 332.87,-875.359 336.676,-872.199 340.83,-869.193 345.321,-866.347 350.134,-863.671 355.256,-861.172 360.668,-858.856 366.353,-856.73 372.289,-854.8 378.454,-853.07 384.826,-851.547 391.379,-850.233 398.087,-849.132 404.924,-848.248 411.862,-847.583 418.872,-847.138 425.925,-846.916 432.994,-846.916 440.048,-847.138"/>
<image xlink:href="Images\Microstates\SM21_micro014.svg" width="201px" height="151px" preserveAspectRatio="xMinYMin meet" x="328.96" y="-1003.61"/>
</g>
<!-- SM21_micro001 -->
<g id="node12" class="node"><title>SM21_micro001</title>
<defs>
<radialGradient id="r_1" cx="50%" cy="50%" r="75%" fx="50%" fy="50%">
<stop offset="0" style="stop-color:#ffffff;stop-opacity:1.;"/>
<stop offset="1" style="stop-color:#92c5de;stop-opacity:1.;"/>
</radialGradient>
</defs>
<polygon fill="url(#r_1)" stroke="#ffffff" points="249.048,-635.448 256.058,-635.892 262.995,-636.558 269.832,-637.442 276.54,-638.542 283.093,-639.856 289.465,-641.38 295.63,-643.11 301.566,-645.04 307.251,-647.166 312.663,-649.482 317.785,-651.981 322.599,-654.657 327.089,-657.502 331.243,-660.509 335.049,-663.669 338.498,-666.973 341.583,-670.413 344.297,-673.98 346.637,-677.662 348.603,-681.451 350.193,-685.335 351.412,-689.305 352.261,-693.349 352.748,-697.456 352.879,-701.615 352.663,-705.815 352.109,-710.044 351.23,-714.29 350.036,-718.542 348.541,-722.788 346.76,-727.017 344.705,-731.217 342.394,-735.376 339.839,-739.483 337.058,-743.527 334.066,-747.497 330.878,-751.382 327.509,-755.17 323.975,-758.853 320.29,-762.419 316.468,-765.859 312.523,-769.163 308.467,-772.323 304.313,-775.33 300.072,-778.175 295.755,-780.851 291.371,-783.35 286.929,-785.666 282.438,-787.792 277.906,-789.723 273.337,-791.452 268.74,-792.976 264.119,-794.29 259.478,-795.39 254.822,-796.275 250.155,-796.94 245.48,-797.384 240.8,-797.607 236.119,-797.607 231.44,-797.384 226.765,-796.94 222.097,-796.275 217.442,-795.39 212.801,-794.29 208.179,-792.976 203.582,-791.452 199.014,-789.723 194.481,-787.792 189.99,-785.666 185.549,-783.35 181.165,-780.851 176.847,-778.175 172.606,-775.33 168.452,-772.323 164.397,-769.163 160.451,-765.859 156.63,-762.419 152.944,-758.853 149.41,-755.17 146.042,-751.382 142.853,-747.497 139.861,-743.527 137.08,-739.483 134.526,-735.376 132.214,-731.217 130.16,-727.017 128.378,-722.788 126.883,-718.542 125.69,-714.29 124.81,-710.044 124.257,-705.815 124.04,-701.615 124.171,-697.456 124.658,-693.349 125.508,-689.305 126.726,-685.335 128.317,-681.451 130.282,-677.662 132.623,-673.98 135.337,-670.413 138.421,-666.973 141.87,-663.669 145.676,-660.509 149.83,-657.502 154.321,-654.657 159.134,-651.981 164.256,-649.482 169.668,-647.166 175.353,-645.04 181.289,-643.11 187.454,-641.38 193.826,-639.856 200.379,-638.542 207.087,-637.442 213.924,-636.558 220.862,-635.892 227.872,-635.448 234.925,-635.225 241.994,-635.225 249.048,-635.448"/>
<image xlink:href="Images\Microstates\SM21_micro001.svg" width="201px" height="151px" preserveAspectRatio="xMinYMin meet" x="137.96" y="-791.916"/>
</g>
<!-- SM21_micro014&#45;&gt;SM21_micro001 -->
<g id="edge1" class="edge"><title>SM21_micro014&#45;&gt;SM21_micro001</title>
<path fill="none" stroke="black" d="M365.594,-856.991C345.425,-834.849 323.134,-810.377 302.924,-788.189"/>
<polygon fill="black" stroke="black" points="296.156,-780.758 306.217,-785.121 299.523,-784.455 302.89,-788.151 302.89,-788.151 302.89,-788.151 299.523,-784.455 299.563,-791.182 296.156,-780.758 296.156,-780.758"/>
<text text-anchor="middle" x="373.96" y="-819.161" font-family="sans bold" font-size="12.00">8.4+/&#45;2.04</text>
</g>
<!-- SM21_micro018 -->
<g id="node2" class="node"><title>SM21_micro018</title>
<defs>
<radialGradient id="r_2" cx="50%" cy="50%" r="75%" fx="50%" fy="50%">
<stop offset="0" style="stop-color:#ffffff;stop-opacity:1.;"/>
<stop offset="1" style="stop-color:#333333;stop-opacity:1.;"/>
</radialGradient>
</defs>
<polygon fill="url(#r_2)" stroke="#ffffff" points="193.048,-847.138 200.058,-847.583 206.995,-848.248 213.832,-849.132 220.54,-850.233 227.093,-851.547 233.465,-853.07 239.63,-854.8 245.566,-856.73 251.251,-858.856 256.663,-861.172 261.785,-863.671 266.599,-866.347 271.089,-869.193 275.243,-872.199 279.049,-875.359 282.498,-878.664 285.583,-882.104 288.297,-885.67 290.637,-889.352 292.603,-893.141 294.193,-897.025 295.412,-900.995 296.261,-905.039 296.748,-909.146 296.879,-913.306 296.663,-917.505 296.109,-921.734 295.23,-925.98 294.036,-930.232 292.541,-934.479 290.76,-938.708 288.705,-942.907 286.394,-947.066 283.839,-951.174 281.058,-955.218 278.066,-959.187 274.878,-963.072 271.509,-966.86 267.975,-970.543 264.29,-974.109 260.468,-977.549 256.523,-980.854 252.467,-984.013 248.313,-987.02 244.072,-989.865 239.755,-992.541 235.371,-995.041 230.929,-997.356 226.438,-999.483 221.906,-1001.41 217.337,-1003.14 212.74,-1004.67 208.119,-1005.98 203.478,-1007.08 198.822,-1007.96 194.155,-1008.63 189.48,-1009.07 184.8,-1009.3 180.119,-1009.3 175.44,-1009.07 170.765,-1008.63 166.097,-1007.96 161.442,-1007.08 156.801,-1005.98 152.179,-1004.67 147.582,-1003.14 143.014,-1001.41 138.481,-999.483 133.99,-997.356 129.549,-995.041 125.165,-992.541 120.847,-989.865 116.606,-987.02 112.452,-984.013 108.397,-980.854 104.451,-977.549 100.63,-974.109 96.9444,-970.543 93.4102,-966.86 90.0416,-963.072 86.8534,-959.187 83.861,-955.218 81.0799,-951.174 78.5257,-947.066 76.2138,-942.907 74.1596,-938.708 72.3779,-934.479 70.8834,-930.232 69.6897,-925.98 68.8101,-921.734 68.2566,-917.505 68.0403,-913.306 68.1713,-909.146 68.658,-905.039 69.5077,-900.995 70.726,-897.025 72.3167,-893.141 74.2822,-889.352 76.6227,-885.67 79.3368,-882.104 82.421,-878.664 85.8699,-875.359 89.6761,-872.199 93.8301,-869.193 98.3207,-866.347 103.134,-863.671 108.256,-861.172 113.668,-858.856 119.353,-856.73 125.289,-854.8 131.454,-853.07 137.826,-851.547 144.379,-850.233 151.087,-849.132 157.924,-848.248 164.862,-847.583 171.872,-847.138 178.925,-846.916 185.994,-846.916 193.048,-847.138"/>
<image xlink:href="Images\Microstates\SM21_micro018.svg" width="201px" height="151px" preserveAspectRatio="xMinYMin meet" x="81.9597" y="-1003.61"/>
</g>
<!-- SM21_micro018&#45;&gt;SM21_micro001 -->
<g id="edge2" class="edge"><title>SM21_micro018&#45;&gt;SM21_micro001</title>
<path fill="none" stroke="black" d="M203.631,-847.831C207.33,-833.979 211.199,-819.493 214.957,-805.422"/>
<polygon fill="black" stroke="black" points="217.537,-795.76 219.304,-806.583 216.247,-800.591 214.957,-805.422 214.957,-805.422 214.957,-805.422 216.247,-800.591 210.609,-804.261 217.537,-795.76 217.537,-795.76"/>
<text text-anchor="middle" x="249.96" y="-819.161" font-family="sans bold" font-size="12.00">7.38+/&#45;1.82</text>
</g>
<!-- SM21_micro020 -->
<g id="node3" class="node"><title>SM21_micro020</title>
<defs>
<radialGradient id="r_3" cx="50%" cy="50%" r="75%" fx="50%" fy="50%">
<stop offset="0" style="stop-color:#ffffff;stop-opacity:1.;"/>
<stop offset="1" style="stop-color:#333333;stop-opacity:1.;"/>
</radialGradient>
</defs>
<polygon fill="url(#r_3)" stroke="#ffffff" points="687.048,-847.138 694.058,-847.583 700.995,-848.248 707.832,-849.132 714.54,-850.233 721.093,-851.547 727.465,-853.07 733.63,-854.8 739.566,-856.73 745.251,-858.856 750.663,-861.172 755.785,-863.671 760.599,-866.347 765.089,-869.193 769.243,-872.199 773.049,-875.359 776.498,-878.664 779.583,-882.104 782.297,-885.67 784.637,-889.352 786.603,-893.141 788.193,-897.025 789.412,-900.995 790.261,-905.039 790.748,-909.146 790.879,-913.306 790.663,-917.505 790.109,-921.734 789.23,-925.98 788.036,-930.232 786.541,-934.479 784.76,-938.708 782.705,-942.907 780.394,-947.066 777.839,-951.174 775.058,-955.218 772.066,-959.187 768.878,-963.072 765.509,-966.86 761.975,-970.543 758.29,-974.109 754.468,-977.549 750.523,-980.854 746.467,-984.013 742.313,-987.02 738.072,-989.865 733.755,-992.541 729.371,-995.041 724.929,-997.356 720.438,-999.483 715.906,-1001.41 711.337,-1003.14 706.74,-1004.67 702.119,-1005.98 697.478,-1007.08 692.822,-1007.96 688.155,-1008.63 683.48,-1009.07 678.8,-1009.3 674.119,-1009.3 669.44,-1009.07 664.765,-1008.63 660.097,-1007.96 655.442,-1007.08 650.801,-1005.98 646.179,-1004.67 641.582,-1003.14 637.014,-1001.41 632.481,-999.483 627.99,-997.356 623.549,-995.041 619.165,-992.541 614.847,-989.865 610.606,-987.02 606.452,-984.013 602.397,-980.854 598.451,-977.549 594.63,-974.109 590.944,-970.543 587.41,-966.86 584.042,-963.072 580.853,-959.187 577.861,-955.218 575.08,-951.174 572.526,-947.066 570.214,-942.907 568.16,-938.708 566.378,-934.479 564.883,-930.232 563.69,-925.98 562.81,-921.734 562.257,-917.505 562.04,-913.306 562.171,-909.146 562.658,-905.039 563.508,-900.995 564.726,-897.025 566.317,-893.141 568.282,-889.352 570.623,-885.67 573.337,-882.104 576.421,-878.664 579.87,-875.359 583.676,-872.199 587.83,-869.193 592.321,-866.347 597.134,-863.671 602.256,-861.172 607.668,-858.856 613.353,-856.73 619.289,-854.8 625.454,-853.07 631.826,-851.547 638.379,-850.233 645.087,-849.132 651.924,-848.248 658.862,-847.583 665.872,-847.138 672.925,-846.916 679.994,-846.916 687.048,-847.138"/>
<image xlink:href="Images\Microstates\SM21_micro020.svg" width="201px" height="151px" preserveAspectRatio="xMinYMin meet" x="575.96" y="-1003.61"/>
</g>
<!-- SM21_micro020&#45;&gt;SM21_micro001 -->
<g id="edge3" class="edge"><title>SM21_micro020&#45;&gt;SM21_micro001</title>
<path fill="none" stroke="black" d="M587.331,-869.356C567.616,-856.582 552.46,-846.761 552.46,-846.761 552.46,-846.761 394.46,-797.761 394.46,-797.761 394.46,-797.761 364.849,-782.511 331.428,-765.298"/>
<polygon fill="black" stroke="black" points="322.396,-760.646 333.347,-761.224 326.841,-762.935 331.286,-765.225 331.286,-765.225 331.286,-765.225 326.841,-762.935 329.226,-769.225 322.396,-760.646 322.396,-760.646"/>
<text text-anchor="middle" x="529.96" y="-819.161" font-family="sans bold" font-size="12.00">3.55+/&#45;2.26</text>
</g>
<!-- SM21_micro002 -->
<g id="node13" class="node"><title>SM21_micro002</title>
<defs>
<radialGradient id="r_4" cx="50%" cy="50%" r="75%" fx="50%" fy="50%">
<stop offset="0" style="stop-color:#ffffff;stop-opacity:1.;"/>
<stop offset="1" style="stop-color:#92c5de;stop-opacity:1.;"/>
</radialGradient>
</defs>
<polygon fill="url(#r_4)" stroke="#ffffff" points="528.048,-635.448 535.058,-635.892 541.995,-636.558 548.832,-637.442 555.54,-638.542 562.093,-639.856 568.465,-641.38 574.63,-643.11 580.566,-645.04 586.251,-647.166 591.663,-649.482 596.785,-651.981 601.599,-654.657 606.089,-657.502 610.243,-660.509 614.049,-663.669 617.498,-666.973 620.583,-670.413 623.297,-673.98 625.637,-677.662 627.603,-681.451 629.193,-685.335 630.412,-689.305 631.261,-693.349 631.748,-697.456 631.879,-701.615 631.663,-705.815 631.109,-710.044 630.23,-714.29 629.036,-718.542 627.541,-722.788 625.76,-727.017 623.705,-731.217 621.394,-735.376 618.839,-739.483 616.058,-743.527 613.066,-747.497 609.878,-751.382 606.509,-755.17 602.975,-758.853 599.29,-762.419 595.468,-765.859 591.523,-769.163 587.467,-772.323 583.313,-775.33 579.072,-778.175 574.755,-780.851 570.371,-783.35 565.929,-785.666 561.438,-787.792 556.906,-789.723 552.337,-791.452 547.74,-792.976 543.119,-794.29 538.478,-795.39 533.822,-796.275 529.155,-796.94 524.48,-797.384 519.8,-797.607 515.119,-797.607 510.44,-797.384 505.765,-796.94 501.097,-796.275 496.442,-795.39 491.801,-794.29 487.179,-792.976 482.582,-791.452 478.014,-789.723 473.481,-787.792 468.99,-785.666 464.549,-783.35 460.165,-780.851 455.847,-778.175 451.606,-775.33 447.452,-772.323 443.397,-769.163 439.451,-765.859 435.63,-762.419 431.944,-758.853 428.41,-755.17 425.042,-751.382 421.853,-747.497 418.861,-743.527 416.08,-739.483 413.526,-735.376 411.214,-731.217 409.16,-727.017 407.378,-722.788 405.883,-718.542 404.69,-714.29 403.81,-710.044 403.257,-705.815 403.04,-701.615 403.171,-697.456 403.658,-693.349 404.508,-689.305 405.726,-685.335 407.317,-681.451 409.282,-677.662 411.623,-673.98 414.337,-670.413 417.421,-666.973 420.87,-663.669 424.676,-660.509 428.83,-657.502 433.321,-654.657 438.134,-651.981 443.256,-649.482 448.668,-647.166 454.353,-645.04 460.289,-643.11 466.454,-641.38 472.826,-639.856 479.379,-638.542 486.087,-637.442 492.924,-636.558 499.862,-635.892 506.872,-635.448 513.925,-635.225 520.994,-635.225 528.048,-635.448"/>
<image xlink:href="Images\Microstates\SM21_micro002.svg" width="201px" height="151px" preserveAspectRatio="xMinYMin meet" x="416.96" y="-791.916"/>
</g>
<!-- SM21_micro020&#45;&gt;SM21_micro002 -->
<g id="edge4" class="edge"><title>SM21_micro020&#45;&gt;SM21_micro002</title>
<path fill="none" stroke="black" d="M621.072,-854.061C606.027,-834.22 589.709,-812.699 574.571,-792.735"/>
<polygon fill="black" stroke="black" points="568.387,-784.58 578.015,-789.829 571.408,-788.564 574.429,-792.548 574.429,-792.548 574.429,-792.548 571.408,-788.564 570.843,-795.267 568.387,-784.58 568.387,-784.58"/>
<text text-anchor="middle" x="642.46" y="-819.161" font-family="sans bold" font-size="12.00">&#45;6.06+/&#45;0.43</text>
</g>
<!-- SM21_micro024 -->
<g id="node14" class="node"><title>SM21_micro024</title>
<defs>
<radialGradient id="r_5" cx="50%" cy="50%" r="75%" fx="50%" fy="50%">
<stop offset="0" style="stop-color:#ffffff;stop-opacity:1.;"/>
<stop offset="1" style="stop-color:#92c5de;stop-opacity:1.;"/>
</radialGradient>
</defs>
<polygon fill="url(#r_5)" stroke="#ffffff" points="1085.05,-635.448 1092.06,-635.892 1099,-636.558 1105.83,-637.442 1112.54,-638.542 1119.09,-639.856 1125.46,-641.38 1131.63,-643.11 1137.57,-645.04 1143.25,-647.166 1148.66,-649.482 1153.78,-651.981 1158.6,-654.657 1163.09,-657.502 1167.24,-660.509 1171.05,-663.669 1174.5,-666.973 1177.58,-670.413 1180.3,-673.98 1182.64,-677.662 1184.6,-681.451 1186.19,-685.335 1187.41,-689.305 1188.26,-693.349 1188.75,-697.456 1188.88,-701.615 1188.66,-705.815 1188.11,-710.044 1187.23,-714.29 1186.04,-718.542 1184.54,-722.788 1182.76,-727.017 1180.71,-731.217 1178.39,-735.376 1175.84,-739.483 1173.06,-743.527 1170.07,-747.497 1166.88,-751.382 1163.51,-755.17 1159.97,-758.853 1156.29,-762.419 1152.47,-765.859 1148.52,-769.163 1144.47,-772.323 1140.31,-775.33 1136.07,-778.175 1131.75,-780.851 1127.37,-783.35 1122.93,-785.666 1118.44,-787.792 1113.91,-789.723 1109.34,-791.452 1104.74,-792.976 1100.12,-794.29 1095.48,-795.39 1090.82,-796.275 1086.15,-796.94 1081.48,-797.384 1076.8,-797.607 1072.12,-797.607 1067.44,-797.384 1062.76,-796.94 1058.1,-796.275 1053.44,-795.39 1048.8,-794.29 1044.18,-792.976 1039.58,-791.452 1035.01,-789.723 1030.48,-787.792 1025.99,-785.666 1021.55,-783.35 1017.16,-780.851 1012.85,-778.175 1008.61,-775.33 1004.45,-772.323 1000.4,-769.163 996.451,-765.859 992.63,-762.419 988.944,-758.853 985.41,-755.17 982.042,-751.382 978.853,-747.497 975.861,-743.527 973.08,-739.483 970.526,-735.376 968.214,-731.217 966.16,-727.017 964.378,-722.788 962.883,-718.542 961.69,-714.29 960.81,-710.044 960.257,-705.815 960.04,-701.615 960.171,-697.456 960.658,-693.349 961.508,-689.305 962.726,-685.335 964.317,-681.451 966.282,-677.662 968.623,-673.98 971.337,-670.413 974.421,-666.973 977.87,-663.669 981.676,-660.509 985.83,-657.502 990.321,-654.657 995.134,-651.981 1000.26,-649.482 1005.67,-647.166 1011.35,-645.04 1017.29,-643.11 1023.45,-641.38 1029.83,-639.856 1036.38,-638.542 1043.09,-637.442 1049.92,-636.558 1056.86,-635.892 1063.87,-635.448 1070.93,-635.225 1077.99,-635.225 1085.05,-635.448"/>
<image xlink:href="Images\Microstates\SM21_micro024.svg" width="201px" height="151px" preserveAspectRatio="xMinYMin meet" x="973.96" y="-791.916"/>
</g>
<!-- SM21_micro020&#45;&gt;SM21_micro024 -->
<g id="edge5" class="edge"><title>SM21_micro020&#45;&gt;SM21_micro024</title>
<path fill="none" stroke="black" d="M765.589,-869.356C785.304,-856.582 800.46,-846.761 800.46,-846.761 800.46,-846.761 900.005,-799.77 979.094,-762.435"/>
<polygon fill="black" stroke="black" points="988.14,-758.164 981.018,-766.502 983.619,-760.299 979.097,-762.433 979.097,-762.433 979.097,-762.433 983.619,-760.299 977.176,-758.364 988.14,-758.164 988.14,-758.164"/>
<text text-anchor="middle" x="907.46" y="-819.161" font-family="sans bold" font-size="12.00">&#45;0.11+/&#45;1.84</text>
</g>
<!-- SM21_micro022 -->
<g id="node15" class="node"><title>SM21_micro022</title>
<defs>
<radialGradient id="r_6" cx="50%" cy="50%" r="75%" fx="50%" fy="50%">
<stop offset="0" style="stop-color:#ffffff;stop-opacity:1.;"/>
<stop offset="1" style="stop-color:#92c5de;stop-opacity:1.;"/>
</radialGradient>
</defs>
<polygon fill="url(#r_6)" stroke="#ffffff" points="775.048,-635.448 782.058,-635.892 788.995,-636.558 795.832,-637.442 802.54,-638.542 809.093,-639.856 815.465,-641.38 821.63,-643.11 827.566,-645.04 833.251,-647.166 838.663,-649.482 843.785,-651.981 848.599,-654.657 853.089,-657.502 857.243,-660.509 861.049,-663.669 864.498,-666.973 867.583,-670.413 870.297,-673.98 872.637,-677.662 874.603,-681.451 876.193,-685.335 877.412,-689.305 878.261,-693.349 878.748,-697.456 878.879,-701.615 878.663,-705.815 878.109,-710.044 877.23,-714.29 876.036,-718.542 874.541,-722.788 872.76,-727.017 870.705,-731.217 868.394,-735.376 865.839,-739.483 863.058,-743.527 860.066,-747.497 856.878,-751.382 853.509,-755.17 849.975,-758.853 846.29,-762.419 842.468,-765.859 838.523,-769.163 834.467,-772.323 830.313,-775.33 826.072,-778.175 821.755,-780.851 817.371,-783.35 812.929,-785.666 808.438,-787.792 803.906,-789.723 799.337,-791.452 794.74,-792.976 790.119,-794.29 785.478,-795.39 780.822,-796.275 776.155,-796.94 771.48,-797.384 766.8,-797.607 762.119,-797.607 757.44,-797.384 752.765,-796.94 748.097,-796.275 743.442,-795.39 738.801,-794.29 734.179,-792.976 729.582,-791.452 725.014,-789.723 720.481,-787.792 715.99,-785.666 711.549,-783.35 707.165,-780.851 702.847,-778.175 698.606,-775.33 694.452,-772.323 690.397,-769.163 686.451,-765.859 682.63,-762.419 678.944,-758.853 675.41,-755.17 672.042,-751.382 668.853,-747.497 665.861,-743.527 663.08,-739.483 660.526,-735.376 658.214,-731.217 656.16,-727.017 654.378,-722.788 652.883,-718.542 651.69,-714.29 650.81,-710.044 650.257,-705.815 650.04,-701.615 650.171,-697.456 650.658,-693.349 651.508,-689.305 652.726,-685.335 654.317,-681.451 656.282,-677.662 658.623,-673.98 661.337,-670.413 664.421,-666.973 667.87,-663.669 671.676,-660.509 675.83,-657.502 680.321,-654.657 685.134,-651.981 690.256,-649.482 695.668,-647.166 701.353,-645.04 707.289,-643.11 713.454,-641.38 719.826,-639.856 726.379,-638.542 733.087,-637.442 739.924,-636.558 746.862,-635.892 753.872,-635.448 760.925,-635.225 767.994,-635.225 775.048,-635.448"/>
<image xlink:href="Images\Microstates\SM21_micro022.svg" width="201px" height="151px" preserveAspectRatio="xMinYMin meet" x="663.96" y="-791.916"/>
</g>
<!-- SM21_micro020&#45;&gt;SM21_micro022 -->
<g id="edge6" class="edge"><title>SM21_micro020&#45;&gt;SM21_micro022</title>
<path fill="none" stroke="black" d="M709.103,-849.323C715.543,-833.977 722.332,-817.799 728.865,-802.234"/>
<polygon fill="black" stroke="black" points="732.893,-792.634 733.173,-803.596 730.958,-797.244 729.024,-801.855 729.024,-801.855 729.024,-801.855 730.958,-797.244 724.874,-800.113 732.893,-792.634 732.893,-792.634"/>
<text text-anchor="middle" x="763.46" y="-819.161" font-family="sans bold" font-size="12.00">&#45;6.18+/&#45;0.34</text>
</g>
<!-- SM21_micro003 -->
<g id="node4" class="node"><title>SM21_micro003</title>
<defs>
<radialGradient id="r_7" cx="50%" cy="50%" r="75%" fx="50%" fy="50%">
<stop offset="0" style="stop-color:#ffffff;stop-opacity:1.;"/>
<stop offset="1" style="stop-color:#333333;stop-opacity:1.;"/>
</radialGradient>
</defs>
<polygon fill="url(#r_7)" stroke="#ffffff" points="1181.05,-847.138 1188.06,-847.583 1195,-848.248 1201.83,-849.132 1208.54,-850.233 1215.09,-851.547 1221.46,-853.07 1227.63,-854.8 1233.57,-856.73 1239.25,-858.856 1244.66,-861.172 1249.78,-863.671 1254.6,-866.347 1259.09,-869.193 1263.24,-872.199 1267.05,-875.359 1270.5,-878.664 1273.58,-882.104 1276.3,-885.67 1278.64,-889.352 1280.6,-893.141 1282.19,-897.025 1283.41,-900.995 1284.26,-905.039 1284.75,-909.146 1284.88,-913.306 1284.66,-917.505 1284.11,-921.734 1283.23,-925.98 1282.04,-930.232 1280.54,-934.479 1278.76,-938.708 1276.71,-942.907 1274.39,-947.066 1271.84,-951.174 1269.06,-955.218 1266.07,-959.187 1262.88,-963.072 1259.51,-966.86 1255.97,-970.543 1252.29,-974.109 1248.47,-977.549 1244.52,-980.854 1240.47,-984.013 1236.31,-987.02 1232.07,-989.865 1227.75,-992.541 1223.37,-995.041 1218.93,-997.356 1214.44,-999.483 1209.91,-1001.41 1205.34,-1003.14 1200.74,-1004.67 1196.12,-1005.98 1191.48,-1007.08 1186.82,-1007.96 1182.15,-1008.63 1177.48,-1009.07 1172.8,-1009.3 1168.12,-1009.3 1163.44,-1009.07 1158.76,-1008.63 1154.1,-1007.96 1149.44,-1007.08 1144.8,-1005.98 1140.18,-1004.67 1135.58,-1003.14 1131.01,-1001.41 1126.48,-999.483 1121.99,-997.356 1117.55,-995.041 1113.16,-992.541 1108.85,-989.865 1104.61,-987.02 1100.45,-984.013 1096.4,-980.854 1092.45,-977.549 1088.63,-974.109 1084.94,-970.543 1081.41,-966.86 1078.04,-963.072 1074.85,-959.187 1071.86,-955.218 1069.08,-951.174 1066.53,-947.066 1064.21,-942.907 1062.16,-938.708 1060.38,-934.479 1058.88,-930.232 1057.69,-925.98 1056.81,-921.734 1056.26,-917.505 1056.04,-913.306 1056.17,-909.146 1056.66,-905.039 1057.51,-900.995 1058.73,-897.025 1060.32,-893.141 1062.28,-889.352 1064.62,-885.67 1067.34,-882.104 1070.42,-878.664 1073.87,-875.359 1077.68,-872.199 1081.83,-869.193 1086.32,-866.347 1091.13,-863.671 1096.26,-861.172 1101.67,-858.856 1107.35,-856.73 1113.29,-854.8 1119.45,-853.07 1125.83,-851.547 1132.38,-850.233 1139.09,-849.132 1145.92,-848.248 1152.86,-847.583 1159.87,-847.138 1166.93,-846.916 1173.99,-846.916 1181.05,-847.138"/>
<image xlink:href="Images\Microstates\SM21_micro003.svg" width="201px" height="151px" preserveAspectRatio="xMinYMin meet" x="1069.96" y="-1003.61"/>
</g>
<!-- SM21_micro003&#45;&gt;SM21_micro024 -->
<g id="edge7" class="edge"><title>SM21_micro003&#45;&gt;SM21_micro024</title>
<path fill="none" stroke="black" d="M1134.99,-849.621C1127.75,-833.822 1120.11,-817.132 1112.78,-801.127"/>
<polygon fill="black" stroke="black" points="1108.51,-791.795 1116.77,-799.014 1110.59,-796.341 1112.67,-800.887 1112.67,-800.887 1112.67,-800.887 1110.59,-796.341 1108.58,-802.76 1108.51,-791.795 1108.51,-791.795"/>
<text text-anchor="middle" x="1162.96" y="-819.161" font-family="sans bold" font-size="12.00">7.76+/&#45;1.89</text>
</g>
<!-- SM21_micro006 -->
<g id="node5" class="node"><title>SM21_micro006</title>
<defs>
<radialGradient id="r_8" cx="50%" cy="50%" r="75%" fx="50%" fy="50%">
<stop offset="0" style="stop-color:#ffffff;stop-opacity:1.;"/>
<stop offset="1" style="stop-color:#333333;stop-opacity:1.;"/>
</radialGradient>
</defs>
<polygon fill="url(#r_8)" stroke="#ffffff" points="934.048,-847.138 941.058,-847.583 947.995,-848.248 954.832,-849.132 961.54,-850.233 968.093,-851.547 974.465,-853.07 980.63,-854.8 986.566,-856.73 992.251,-858.856 997.663,-861.172 1002.78,-863.671 1007.6,-866.347 1012.09,-869.193 1016.24,-872.199 1020.05,-875.359 1023.5,-878.664 1026.58,-882.104 1029.3,-885.67 1031.64,-889.352 1033.6,-893.141 1035.19,-897.025 1036.41,-900.995 1037.26,-905.039 1037.75,-909.146 1037.88,-913.306 1037.66,-917.505 1037.11,-921.734 1036.23,-925.98 1035.04,-930.232 1033.54,-934.479 1031.76,-938.708 1029.71,-942.907 1027.39,-947.066 1024.84,-951.174 1022.06,-955.218 1019.07,-959.187 1015.88,-963.072 1012.51,-966.86 1008.97,-970.543 1005.29,-974.109 1001.47,-977.549 997.523,-980.854 993.467,-984.013 989.313,-987.02 985.072,-989.865 980.755,-992.541 976.371,-995.041 971.929,-997.356 967.438,-999.483 962.906,-1001.41 958.337,-1003.14 953.74,-1004.67 949.119,-1005.98 944.478,-1007.08 939.822,-1007.96 935.155,-1008.63 930.48,-1009.07 925.8,-1009.3 921.119,-1009.3 916.44,-1009.07 911.765,-1008.63 907.097,-1007.96 902.442,-1007.08 897.801,-1005.98 893.179,-1004.67 888.582,-1003.14 884.014,-1001.41 879.481,-999.483 874.99,-997.356 870.549,-995.041 866.165,-992.541 861.847,-989.865 857.606,-987.02 853.452,-984.013 849.397,-980.854 845.451,-977.549 841.63,-974.109 837.944,-970.543 834.41,-966.86 831.042,-963.072 827.853,-959.187 824.861,-955.218 822.08,-951.174 819.526,-947.066 817.214,-942.907 815.16,-938.708 813.378,-934.479 811.883,-930.232 810.69,-925.98 809.81,-921.734 809.257,-917.505 809.04,-913.306 809.171,-909.146 809.658,-905.039 810.508,-900.995 811.726,-897.025 813.317,-893.141 815.282,-889.352 817.623,-885.67 820.337,-882.104 823.421,-878.664 826.87,-875.359 830.676,-872.199 834.83,-869.193 839.321,-866.347 844.134,-863.671 849.256,-861.172 854.668,-858.856 860.353,-856.73 866.289,-854.8 872.454,-853.07 878.826,-851.547 885.379,-850.233 892.087,-849.132 898.924,-848.248 905.862,-847.583 912.872,-847.138 919.925,-846.916 926.994,-846.916 934.048,-847.138"/>
<image xlink:href="Images\Microstates\SM21_micro006.svg" width="201px" height="151px" preserveAspectRatio="xMinYMin meet" x="822.96" y="-1003.61"/>
</g>
<!-- SM21_micro006&#45;&gt;SM21_micro024 -->
<g id="edge8" class="edge"><title>SM21_micro006&#45;&gt;SM21_micro024</title>
<path fill="none" stroke="black" d="M976.484,-853.472C990.389,-834.163 1005.41,-813.3 1019.42,-793.848"/>
<polygon fill="black" stroke="black" points="1025.35,-785.607 1023.16,-796.351 1022.43,-789.664 1019.51,-793.722 1019.51,-793.722 1019.51,-793.722 1022.43,-789.664 1015.86,-791.092 1025.35,-785.607 1025.35,-785.607"/>
<text text-anchor="middle" x="1041.96" y="-819.161" font-family="sans bold" font-size="12.00">5.58+/&#45;2.11</text>
</g>
<!-- SM21_micro026 -->
<g id="node6" class="node"><title>SM21_micro026</title>
<defs>
<radialGradient id="r_9" cx="50%" cy="50%" r="75%" fx="50%" fy="50%">
<stop offset="0" style="stop-color:#ffffff;stop-opacity:1.;"/>
<stop offset="1" style="stop-color:#4393c3;stop-opacity:1.;"/>
</radialGradient>
</defs>
<polygon fill="url(#r_9)" stroke="#ffffff" points="866.048,-423.758 873.058,-424.202 879.995,-424.867 886.832,-425.751 893.54,-426.852 900.093,-428.166 906.465,-429.69 912.63,-431.419 918.566,-433.35 924.251,-435.476 929.663,-437.792 934.785,-440.291 939.599,-442.967 944.089,-445.812 948.243,-448.819 952.049,-451.979 955.498,-455.283 958.583,-458.723 961.297,-462.289 963.637,-465.972 965.603,-469.76 967.193,-473.645 968.412,-477.615 969.261,-481.658 969.748,-485.766 969.879,-489.925 969.663,-494.125 969.109,-498.353 968.23,-502.6 967.036,-506.852 965.541,-511.098 963.76,-515.327 961.705,-519.527 959.394,-523.686 956.839,-527.793 954.058,-531.837 951.066,-535.807 947.878,-539.691 944.509,-543.48 940.975,-547.162 937.29,-550.728 933.468,-554.168 929.523,-557.473 925.467,-560.633 921.313,-563.64 917.072,-566.485 912.755,-569.161 908.371,-571.66 903.929,-573.976 899.438,-576.102 894.906,-578.032 890.337,-579.762 885.74,-581.286 881.119,-582.6 876.478,-583.7 871.822,-584.584 867.155,-585.249 862.48,-585.694 857.8,-585.916 853.119,-585.916 848.44,-585.694 843.765,-585.249 839.097,-584.584 834.442,-583.7 829.801,-582.6 825.179,-581.286 820.582,-579.762 816.014,-578.032 811.481,-576.102 806.99,-573.976 802.549,-571.66 798.165,-569.161 793.847,-566.485 789.606,-563.64 785.452,-560.633 781.397,-557.473 777.451,-554.168 773.63,-550.728 769.944,-547.162 766.41,-543.48 763.042,-539.691 759.853,-535.807 756.861,-531.837 754.08,-527.793 751.526,-523.686 749.214,-519.527 747.16,-515.327 745.378,-511.098 743.883,-506.852 742.69,-502.6 741.81,-498.353 741.257,-494.125 741.04,-489.925 741.171,-485.766 741.658,-481.658 742.508,-477.615 743.726,-473.645 745.317,-469.76 747.282,-465.972 749.623,-462.289 752.337,-458.723 755.421,-455.283 758.87,-451.979 762.676,-448.819 766.83,-445.812 771.321,-442.967 776.134,-440.291 781.256,-437.792 786.668,-435.476 792.353,-433.35 798.289,-431.419 804.454,-429.69 810.826,-428.166 817.379,-426.852 824.087,-425.751 830.924,-424.867 837.862,-424.202 844.872,-423.758 851.925,-423.535 858.994,-423.535 866.048,-423.758"/>
<image xlink:href="Images\Microstates\SM21_micro026.svg" width="201px" height="151px" preserveAspectRatio="xMinYMin meet" x="754.96" y="-580.226"/>
</g>
<!-- SM21_micro032 -->
<g id="node16" class="node"><title>SM21_micro032</title>
<defs>
<radialGradient id="r_10" cx="50%" cy="50%" r="75%" fx="50%" fy="50%">
<stop offset="0" style="stop-color:#ffffff;stop-opacity:1.;"/>
<stop offset="1" style="stop-color:#2166ac;stop-opacity:1.;"/>
</radialGradient>
</defs>
<polygon fill="url(#r_10)" stroke="#ffffff" points="859.048,-212.067 866.058,-212.512 872.995,-213.177 879.832,-214.061 886.54,-215.162 893.093,-216.476 899.465,-217.999 905.63,-219.729 911.566,-221.659 917.251,-223.785 922.663,-226.101 927.785,-228.601 932.599,-231.276 937.089,-234.122 941.243,-237.128 945.049,-240.288 948.498,-243.593 951.583,-247.033 954.297,-250.599 956.637,-254.281 958.603,-258.07 960.193,-261.955 961.412,-265.924 962.261,-269.968 962.748,-274.075 962.879,-278.235 962.663,-282.434 962.109,-286.663 961.23,-290.909 960.036,-295.162 958.541,-299.408 956.76,-303.637 954.705,-307.836 952.394,-311.996 949.839,-316.103 947.058,-320.147 944.066,-324.116 940.878,-328.001 937.509,-331.79 933.975,-335.472 930.29,-339.038 926.468,-342.478 922.523,-345.783 918.467,-348.943 914.313,-351.949 910.072,-354.794 905.755,-357.47 901.371,-359.97 896.929,-362.286 892.438,-364.412 887.906,-366.342 883.337,-368.072 878.74,-369.595 874.119,-370.909 869.478,-372.01 864.822,-372.894 860.155,-373.559 855.48,-374.004 850.8,-374.226 846.119,-374.226 841.44,-374.004 836.765,-373.559 832.097,-372.894 827.442,-372.01 822.801,-370.909 818.179,-369.595 813.582,-368.072 809.014,-366.342 804.481,-364.412 799.99,-362.286 795.549,-359.97 791.165,-357.47 786.847,-354.794 782.606,-351.949 778.452,-348.943 774.397,-345.783 770.451,-342.478 766.63,-339.038 762.944,-335.472 759.41,-331.79 756.042,-328.001 752.853,-324.116 749.861,-320.147 747.08,-316.103 744.526,-311.996 742.214,-307.836 740.16,-303.637 738.378,-299.408 736.883,-295.162 735.69,-290.909 734.81,-286.663 734.257,-282.434 734.04,-278.235 734.171,-274.075 734.658,-269.968 735.508,-265.924 736.726,-261.955 738.317,-258.07 740.282,-254.281 742.623,-250.599 745.337,-247.033 748.421,-243.593 751.87,-240.288 755.676,-237.128 759.83,-234.122 764.321,-231.276 769.134,-228.601 774.256,-226.101 779.668,-223.785 785.353,-221.659 791.289,-219.729 797.454,-217.999 803.826,-216.476 810.379,-215.162 817.087,-214.061 823.924,-213.177 830.862,-212.512 837.872,-212.067 844.925,-211.845 851.994,-211.845 859.048,-212.067"/>
<image xlink:href="Images\Microstates\SM21_micro032.svg" width="201px" height="151px" preserveAspectRatio="xMinYMin meet" x="747.96" y="-368.535"/>
</g>
<!-- SM21_micro026&#45;&gt;SM21_micro032 -->
<g id="edge21" class="edge"><title>SM21_micro026&#45;&gt;SM21_micro032</title>
<path fill="none" stroke="black" d="M840.845,-423.879C838.844,-412.945 837.46,-405.381 837.46,-405.381 837.46,-405.381 837.46,-392.381 837.46,-392.381 837.46,-392.381 837.807,-389.276 838.378,-384.17"/>
<polygon fill="black" stroke="black" points="839.529,-373.883 842.889,-384.321 838.973,-378.852 838.417,-383.821 838.417,-383.821 838.417,-383.821 838.973,-378.852 833.945,-383.32 839.529,-373.883 839.529,-373.883"/>
<text text-anchor="middle" x="882.46" y="-395.781" font-family="sans bold" font-size="12.00">&#45;18.19+/&#45;1.75</text>
</g>
<!-- SM21_micro034 -->
<g id="node17" class="node"><title>SM21_micro034</title>
<defs>
<radialGradient id="r_11" cx="50%" cy="50%" r="75%" fx="50%" fy="50%">
<stop offset="0" style="stop-color:#ffffff;stop-opacity:1.;"/>
<stop offset="1" style="stop-color:#2166ac;stop-opacity:1.;"/>
</radialGradient>
</defs>
<polygon fill="url(#r_11)" stroke="#ffffff" points="612.048,-212.067 619.058,-212.512 625.995,-213.177 632.832,-214.061 639.54,-215.162 646.093,-216.476 652.465,-217.999 658.63,-219.729 664.566,-221.659 670.251,-223.785 675.663,-226.101 680.785,-228.601 685.599,-231.276 690.089,-234.122 694.243,-237.128 698.049,-240.288 701.498,-243.593 704.583,-247.033 707.297,-250.599 709.637,-254.281 711.603,-258.07 713.193,-261.955 714.412,-265.924 715.261,-269.968 715.748,-274.075 715.879,-278.235 715.663,-282.434 715.109,-286.663 714.23,-290.909 713.036,-295.162 711.541,-299.408 709.76,-303.637 707.705,-307.836 705.394,-311.996 702.839,-316.103 700.058,-320.147 697.066,-324.116 693.878,-328.001 690.509,-331.79 686.975,-335.472 683.29,-339.038 679.468,-342.478 675.523,-345.783 671.467,-348.943 667.313,-351.949 663.072,-354.794 658.755,-357.47 654.371,-359.97 649.929,-362.286 645.438,-364.412 640.906,-366.342 636.337,-368.072 631.74,-369.595 627.119,-370.909 622.478,-372.01 617.822,-372.894 613.155,-373.559 608.48,-374.004 603.8,-374.226 599.119,-374.226 594.44,-374.004 589.765,-373.559 585.097,-372.894 580.442,-372.01 575.801,-370.909 571.179,-369.595 566.582,-368.072 562.014,-366.342 557.481,-364.412 552.99,-362.286 548.549,-359.97 544.165,-357.47 539.847,-354.794 535.606,-351.949 531.452,-348.943 527.397,-345.783 523.451,-342.478 519.63,-339.038 515.944,-335.472 512.41,-331.79 509.042,-328.001 505.853,-324.116 502.861,-320.147 500.08,-316.103 497.526,-311.996 495.214,-307.836 493.16,-303.637 491.378,-299.408 489.883,-295.162 488.69,-290.909 487.81,-286.663 487.257,-282.434 487.04,-278.235 487.171,-274.075 487.658,-269.968 488.508,-265.924 489.726,-261.955 491.317,-258.07 493.282,-254.281 495.623,-250.599 498.337,-247.033 501.421,-243.593 504.87,-240.288 508.676,-237.128 512.83,-234.122 517.321,-231.276 522.134,-228.601 527.256,-226.101 532.668,-223.785 538.353,-221.659 544.289,-219.729 550.454,-217.999 556.826,-216.476 563.379,-215.162 570.087,-214.061 576.924,-213.177 583.862,-212.512 590.872,-212.067 597.925,-211.845 604.994,-211.845 612.048,-212.067"/>
<image xlink:href="Images\Microstates\SM21_micro034.svg" width="201px" height="151px" preserveAspectRatio="xMinYMin meet" x="500.96" y="-368.535"/>
</g>
<!-- SM21_micro026&#45;&gt;SM21_micro034 -->
<g id="edge22" class="edge"><title>SM21_micro026&#45;&gt;SM21_micro034</title>
<path fill="none" stroke="black" d="M766.331,-445.975C746.616,-433.201 731.46,-423.381 731.46,-423.381 731.46,-423.381 615.46,-405.381 615.46,-405.381 615.46,-405.381 614.361,-396.642 612.779,-384.06"/>
<polygon fill="black" stroke="black" points="611.485,-373.771 617.198,-383.132 612.109,-378.732 612.733,-383.693 612.733,-383.693 612.733,-383.693 612.109,-378.732 608.268,-384.255 611.485,-373.771 611.485,-373.771"/>
<text text-anchor="middle" x="659.46" y="-395.781" font-family="sans bold" font-size="12.00">&#45;17.85+/&#45;1.77</text>
</g>
<!-- SM21_micro027 -->
<g id="node7" class="node"><title>SM21_micro027</title>
<defs>
<radialGradient id="r_12" cx="50%" cy="50%" r="75%" fx="50%" fy="50%">
<stop offset="0" style="stop-color:#ffffff;stop-opacity:1.;"/>
<stop offset="1" style="stop-color:#4393c3;stop-opacity:1.;"/>
</radialGradient>
</defs>
<polygon fill="url(#r_12)" stroke="#ffffff" points="372.048,-423.758 379.058,-424.202 385.995,-424.867 392.832,-425.751 399.54,-426.852 406.093,-428.166 412.465,-429.69 418.63,-431.419 424.566,-433.35 430.251,-435.476 435.663,-437.792 440.785,-440.291 445.599,-442.967 450.089,-445.812 454.243,-448.819 458.049,-451.979 461.498,-455.283 464.583,-458.723 467.297,-462.289 469.637,-465.972 471.603,-469.76 473.193,-473.645 474.412,-477.615 475.261,-481.658 475.748,-485.766 475.879,-489.925 475.663,-494.125 475.109,-498.353 474.23,-502.6 473.036,-506.852 471.541,-511.098 469.76,-515.327 467.705,-519.527 465.394,-523.686 462.839,-527.793 460.058,-531.837 457.066,-535.807 453.878,-539.691 450.509,-543.48 446.975,-547.162 443.29,-550.728 439.468,-554.168 435.523,-557.473 431.467,-560.633 427.313,-563.64 423.072,-566.485 418.755,-569.161 414.371,-571.66 409.929,-573.976 405.438,-576.102 400.906,-578.032 396.337,-579.762 391.74,-581.286 387.119,-582.6 382.478,-583.7 377.822,-584.584 373.155,-585.249 368.48,-585.694 363.8,-585.916 359.119,-585.916 354.44,-585.694 349.765,-585.249 345.097,-584.584 340.442,-583.7 335.801,-582.6 331.179,-581.286 326.582,-579.762 322.014,-578.032 317.481,-576.102 312.99,-573.976 308.549,-571.66 304.165,-569.161 299.847,-566.485 295.606,-563.64 291.452,-560.633 287.397,-557.473 283.451,-554.168 279.63,-550.728 275.944,-547.162 272.41,-543.48 269.042,-539.691 265.853,-535.807 262.861,-531.837 260.08,-527.793 257.526,-523.686 255.214,-519.527 253.16,-515.327 251.378,-511.098 249.883,-506.852 248.69,-502.6 247.81,-498.353 247.257,-494.125 247.04,-489.925 247.171,-485.766 247.658,-481.658 248.508,-477.615 249.726,-473.645 251.317,-469.76 253.282,-465.972 255.623,-462.289 258.337,-458.723 261.421,-455.283 264.87,-451.979 268.676,-448.819 272.83,-445.812 277.321,-442.967 282.134,-440.291 287.256,-437.792 292.668,-435.476 298.353,-433.35 304.289,-431.419 310.454,-429.69 316.826,-428.166 323.379,-426.852 330.087,-425.751 336.924,-424.867 343.862,-424.202 350.872,-423.758 357.925,-423.535 364.994,-423.535 372.048,-423.758"/>
<image xlink:href="Images\Microstates\SM21_micro027.svg" width="201px" height="151px" preserveAspectRatio="xMinYMin meet" x="260.96" y="-580.226"/>
</g>
<!-- SM21_micro027&#45;&gt;SM21_micro032 -->
<g id="edge23" class="edge"><title>SM21_micro027&#45;&gt;SM21_micro032</title>
<path fill="none" stroke="black" d="M450.589,-445.975C470.304,-433.201 485.46,-423.381 485.46,-423.381 485.46,-423.381 703.46,-405.381 703.46,-405.381 703.46,-405.381 735.507,-380.772 769.469,-354.692"/>
<polygon fill="black" stroke="black" points="777.659,-348.403 772.468,-358.063 773.693,-351.449 769.727,-354.494 769.727,-354.494 769.727,-354.494 773.693,-351.449 766.987,-350.925 777.659,-348.403 777.659,-348.403"/>
<text text-anchor="middle" x="763.46" y="-395.781" font-family="sans bold" font-size="12.00">&#45;12.67+/&#45;2.26</text>
</g>
<!-- SM21_micro035 -->
<g id="node18" class="node"><title>SM21_micro035</title>
<defs>
<radialGradient id="r_13" cx="50%" cy="50%" r="75%" fx="50%" fy="50%">
<stop offset="0" style="stop-color:#ffffff;stop-opacity:1.;"/>
<stop offset="1" style="stop-color:#2166ac;stop-opacity:1.;"/>
</radialGradient>
</defs>
<polygon fill="url(#r_13)" stroke="#ffffff" points="335.048,-212.067 342.058,-212.512 348.995,-213.177 355.832,-214.061 362.54,-215.162 369.093,-216.476 375.465,-217.999 381.63,-219.729 387.566,-221.659 393.251,-223.785 398.663,-226.101 403.785,-228.601 408.599,-231.276 413.089,-234.122 417.243,-237.128 421.049,-240.288 424.498,-243.593 427.583,-247.033 430.297,-250.599 432.637,-254.281 434.603,-258.07 436.193,-261.955 437.412,-265.924 438.261,-269.968 438.748,-274.075 438.879,-278.235 438.663,-282.434 438.109,-286.663 437.23,-290.909 436.036,-295.162 434.541,-299.408 432.76,-303.637 430.705,-307.836 428.394,-311.996 425.839,-316.103 423.058,-320.147 420.066,-324.116 416.878,-328.001 413.509,-331.79 409.975,-335.472 406.29,-339.038 402.468,-342.478 398.523,-345.783 394.467,-348.943 390.313,-351.949 386.072,-354.794 381.755,-357.47 377.371,-359.97 372.929,-362.286 368.438,-364.412 363.906,-366.342 359.337,-368.072 354.74,-369.595 350.119,-370.909 345.478,-372.01 340.822,-372.894 336.155,-373.559 331.48,-374.004 326.8,-374.226 322.119,-374.226 317.44,-374.004 312.765,-373.559 308.097,-372.894 303.442,-372.01 298.801,-370.909 294.179,-369.595 289.582,-368.072 285.014,-366.342 280.481,-364.412 275.99,-362.286 271.549,-359.97 267.165,-357.47 262.847,-354.794 258.606,-351.949 254.452,-348.943 250.397,-345.783 246.451,-342.478 242.63,-339.038 238.944,-335.472 235.41,-331.79 232.042,-328.001 228.853,-324.116 225.861,-320.147 223.08,-316.103 220.526,-311.996 218.214,-307.836 216.16,-303.637 214.378,-299.408 212.883,-295.162 211.69,-290.909 210.81,-286.663 210.257,-282.434 210.04,-278.235 210.171,-274.075 210.658,-269.968 211.508,-265.924 212.726,-261.955 214.317,-258.07 216.282,-254.281 218.623,-250.599 221.337,-247.033 224.421,-243.593 227.87,-240.288 231.676,-237.128 235.83,-234.122 240.321,-231.276 245.134,-228.601 250.256,-226.101 255.668,-223.785 261.353,-221.659 267.289,-219.729 273.454,-217.999 279.826,-216.476 286.379,-215.162 293.087,-214.061 299.924,-213.177 306.862,-212.512 313.872,-212.067 320.925,-211.845 327.994,-211.845 335.048,-212.067"/>
<image xlink:href="Images\Microstates\SM21_micro035.svg" width="201px" height="151px" preserveAspectRatio="xMinYMin meet" x="223.96" y="-368.535"/>
</g>
<!-- SM21_micro027&#45;&gt;SM21_micro035 -->
<g id="edge24" class="edge"><title>SM21_micro027&#45;&gt;SM21_micro035</title>
<path fill="none" stroke="black" d="M303.423,-431.477C291.479,-416.609 282.46,-405.381 282.46,-405.381 282.46,-405.381 282.46,-392.381 282.46,-392.381 282.46,-392.381 284.825,-386.842 288.433,-378.395"/>
<polygon fill="black" stroke="black" points="292.413,-369.074 292.624,-380.038 290.449,-373.672 288.486,-378.271 288.486,-378.271 288.486,-378.271 290.449,-373.672 284.347,-376.503 292.413,-369.074 292.413,-369.074"/>
<text text-anchor="middle" x="327.46" y="-395.781" font-family="sans bold" font-size="12.00">&#45;15.26+/&#45;1.75</text>
</g>
<!-- SM21_micro030 -->
<g id="node8" class="node"><title>SM21_micro030</title>
<defs>
<radialGradient id="r_14" cx="50%" cy="50%" r="75%" fx="50%" fy="50%">
<stop offset="0" style="stop-color:#ffffff;stop-opacity:1.;"/>
<stop offset="1" style="stop-color:#4393c3;stop-opacity:1.;"/>
</radialGradient>
</defs>
<polygon fill="url(#r_14)" stroke="#ffffff" points="125.048,-423.758 132.058,-424.202 138.995,-424.867 145.832,-425.751 152.54,-426.852 159.093,-428.166 165.465,-429.69 171.63,-431.419 177.566,-433.35 183.251,-435.476 188.663,-437.792 193.785,-440.291 198.599,-442.967 203.089,-445.812 207.243,-448.819 211.049,-451.979 214.498,-455.283 217.583,-458.723 220.297,-462.289 222.637,-465.972 224.603,-469.76 226.193,-473.645 227.412,-477.615 228.261,-481.658 228.748,-485.766 228.879,-489.925 228.663,-494.125 228.109,-498.353 227.23,-502.6 226.036,-506.852 224.541,-511.098 222.76,-515.327 220.705,-519.527 218.394,-523.686 215.839,-527.793 213.058,-531.837 210.066,-535.807 206.878,-539.691 203.509,-543.48 199.975,-547.162 196.29,-550.728 192.468,-554.168 188.523,-557.473 184.467,-560.633 180.313,-563.64 176.072,-566.485 171.755,-569.161 167.371,-571.66 162.929,-573.976 158.438,-576.102 153.906,-578.032 149.337,-579.762 144.74,-581.286 140.119,-582.6 135.478,-583.7 130.822,-584.584 126.155,-585.249 121.48,-585.694 116.8,-585.916 112.119,-585.916 107.44,-585.694 102.765,-585.249 98.0975,-584.584 93.4416,-583.7 88.8008,-582.6 84.1793,-581.286 79.5819,-579.762 75.0137,-578.032 70.481,-576.102 65.9901,-573.976 61.5487,-571.66 57.1648,-569.161 52.8475,-566.485 48.6065,-563.64 44.4524,-560.633 40.3967,-557.473 36.4515,-554.168 32.6295,-550.728 28.9444,-547.162 25.4102,-543.48 22.0416,-539.691 18.8534,-535.807 15.861,-531.837 13.0799,-527.793 10.5257,-523.686 8.21384,-519.527 6.15959,-515.327 4.37794,-511.098 2.88337,-506.852 1.68971,-502.6 0.810051,-498.353 0.256552,-494.125 0.0403243,-489.925 0.171286,-485.766 0.658036,-481.658 1.50773,-477.615 2.72598,-473.645 4.31673,-469.76 6.28218,-465.972 8.62271,-462.289 11.3368,-458.723 14.421,-455.283 17.8699,-451.979 21.6761,-448.819 25.8301,-445.812 30.3207,-442.967 35.1344,-440.291 40.256,-437.792 45.6684,-435.476 51.3529,-433.35 57.2889,-431.419 63.4544,-429.69 69.826,-428.166 76.3789,-426.852 83.0872,-425.751 89.924,-424.867 96.8616,-424.202 103.872,-423.758 110.925,-423.535 117.994,-423.535 125.048,-423.758"/>
<image xlink:href="Images\Microstates\SM21_micro030.svg" width="201px" height="151px" preserveAspectRatio="xMinYMin meet" x="13.9597" y="-580.226"/>
</g>
<!-- SM21_micro030&#45;&gt;SM21_micro034 -->
<g id="edge25" class="edge"><title>SM21_micro030&#45;&gt;SM21_micro034</title>
<path fill="none" stroke="black" d="M203.589,-445.975C223.304,-433.201 238.46,-423.381 238.46,-423.381 238.46,-423.381 370.46,-405.381 370.46,-405.381 370.46,-405.381 389.46,-392.381 389.46,-392.381 389.46,-392.381 447.46,-374.381 447.46,-374.381 447.46,-374.381 475.968,-359.507 508.452,-342.559"/>
<polygon fill="black" stroke="black" points="517.7,-337.735 510.915,-346.35 513.267,-340.048 508.834,-342.36 508.834,-342.36 508.834,-342.36 513.267,-340.048 506.752,-338.371 517.7,-337.735 517.7,-337.735"/>
<text text-anchor="middle" x="435.46" y="-395.781" font-family="sans bold" font-size="12.00">&#45;12.64+/&#45;2.26</text>
</g>
<!-- SM21_micro030&#45;&gt;SM21_micro035 -->
<g id="edge26" class="edge"><title>SM21_micro030&#45;&gt;SM21_micro035</title>
<path fill="none" stroke="black" d="M165.153,-429.457C179.094,-409.032 190.46,-392.381 190.46,-392.381 190.46,-392.381 215.472,-374.024 243.883,-353.172"/>
<polygon fill="black" stroke="black" points="251.969,-347.238 246.57,-356.782 247.938,-350.196 243.907,-353.154 243.907,-353.154 243.907,-353.154 247.938,-350.196 241.245,-349.527 251.969,-347.238 251.969,-347.238"/>
<text text-anchor="middle" x="235.46" y="-395.781" font-family="sans bold" font-size="12.00">&#45;17.76+/&#45;0.36</text>
</g>
<!-- SM21_micro029 -->
<g id="node9" class="node"><title>SM21_micro029</title>
<defs>
<radialGradient id="r_15" cx="50%" cy="50%" r="75%" fx="50%" fy="50%">
<stop offset="0" style="stop-color:#ffffff;stop-opacity:1.;"/>
<stop offset="1" style="stop-color:#4393c3;stop-opacity:1.;"/>
</radialGradient>
</defs>
<polygon fill="url(#r_15)" stroke="#ffffff" points="1113.05,-423.758 1120.06,-424.202 1127,-424.867 1133.83,-425.751 1140.54,-426.852 1147.09,-428.166 1153.46,-429.69 1159.63,-431.419 1165.57,-433.35 1171.25,-435.476 1176.66,-437.792 1181.78,-440.291 1186.6,-442.967 1191.09,-445.812 1195.24,-448.819 1199.05,-451.979 1202.5,-455.283 1205.58,-458.723 1208.3,-462.289 1210.64,-465.972 1212.6,-469.76 1214.19,-473.645 1215.41,-477.615 1216.26,-481.658 1216.75,-485.766 1216.88,-489.925 1216.66,-494.125 1216.11,-498.353 1215.23,-502.6 1214.04,-506.852 1212.54,-511.098 1210.76,-515.327 1208.71,-519.527 1206.39,-523.686 1203.84,-527.793 1201.06,-531.837 1198.07,-535.807 1194.88,-539.691 1191.51,-543.48 1187.97,-547.162 1184.29,-550.728 1180.47,-554.168 1176.52,-557.473 1172.47,-560.633 1168.31,-563.64 1164.07,-566.485 1159.75,-569.161 1155.37,-571.66 1150.93,-573.976 1146.44,-576.102 1141.91,-578.032 1137.34,-579.762 1132.74,-581.286 1128.12,-582.6 1123.48,-583.7 1118.82,-584.584 1114.15,-585.249 1109.48,-585.694 1104.8,-585.916 1100.12,-585.916 1095.44,-585.694 1090.76,-585.249 1086.1,-584.584 1081.44,-583.7 1076.8,-582.6 1072.18,-581.286 1067.58,-579.762 1063.01,-578.032 1058.48,-576.102 1053.99,-573.976 1049.55,-571.66 1045.16,-569.161 1040.85,-566.485 1036.61,-563.64 1032.45,-560.633 1028.4,-557.473 1024.45,-554.168 1020.63,-550.728 1016.94,-547.162 1013.41,-543.48 1010.04,-539.691 1006.85,-535.807 1003.86,-531.837 1001.08,-527.793 998.526,-523.686 996.214,-519.527 994.16,-515.327 992.378,-511.098 990.883,-506.852 989.69,-502.6 988.81,-498.353 988.257,-494.125 988.04,-489.925 988.171,-485.766 988.658,-481.658 989.508,-477.615 990.726,-473.645 992.317,-469.76 994.282,-465.972 996.623,-462.289 999.337,-458.723 1002.42,-455.283 1005.87,-451.979 1009.68,-448.819 1013.83,-445.812 1018.32,-442.967 1023.13,-440.291 1028.26,-437.792 1033.67,-435.476 1039.35,-433.35 1045.29,-431.419 1051.45,-429.69 1057.83,-428.166 1064.38,-426.852 1071.09,-425.751 1077.92,-424.867 1084.86,-424.202 1091.87,-423.758 1098.93,-423.535 1105.99,-423.535 1113.05,-423.758"/>
<image xlink:href="Images\Microstates\SM21_micro029.svg" width="201px" height="151px" preserveAspectRatio="xMinYMin meet" x="1001.96" y="-580.226"/>
</g>
<!-- SM21_micro029&#45;&gt;SM21_micro034 -->
<g id="edge27" class="edge"><title>SM21_micro029&#45;&gt;SM21_micro034</title>
<path fill="none" stroke="black" d="M1013.33,-445.975C993.616,-433.201 978.46,-423.381 978.46,-423.381 978.46,-423.381 925.46,-392.381 925.46,-392.381 925.46,-392.381 725.46,-374.381 725.46,-374.381 725.46,-374.381 708.268,-363.241 686.686,-349.258"/>
<polygon fill="black" stroke="black" points="678.227,-343.776 689.066,-345.438 682.423,-346.495 686.619,-349.214 686.619,-349.214 686.619,-349.214 682.423,-346.495 684.172,-352.991 678.227,-343.776 678.227,-343.776"/>
<text text-anchor="middle" x="987.46" y="-395.781" font-family="sans bold" font-size="12.00">&#45;9.83+/&#45;2.26</text>
</g>
<!-- SM21_micro033 -->
<g id="node19" class="node"><title>SM21_micro033</title>
<defs>
<radialGradient id="r_16" cx="50%" cy="50%" r="75%" fx="50%" fy="50%">
<stop offset="0" style="stop-color:#ffffff;stop-opacity:1.;"/>
<stop offset="1" style="stop-color:#2166ac;stop-opacity:1.;"/>
</radialGradient>
</defs>
<polygon fill="url(#r_16)" stroke="#ffffff" points="1145.05,-212.067 1152.06,-212.512 1159,-213.177 1165.83,-214.061 1172.54,-215.162 1179.09,-216.476 1185.46,-217.999 1191.63,-219.729 1197.57,-221.659 1203.25,-223.785 1208.66,-226.101 1213.78,-228.601 1218.6,-231.276 1223.09,-234.122 1227.24,-237.128 1231.05,-240.288 1234.5,-243.593 1237.58,-247.033 1240.3,-250.599 1242.64,-254.281 1244.6,-258.07 1246.19,-261.955 1247.41,-265.924 1248.26,-269.968 1248.75,-274.075 1248.88,-278.235 1248.66,-282.434 1248.11,-286.663 1247.23,-290.909 1246.04,-295.162 1244.54,-299.408 1242.76,-303.637 1240.71,-307.836 1238.39,-311.996 1235.84,-316.103 1233.06,-320.147 1230.07,-324.116 1226.88,-328.001 1223.51,-331.79 1219.97,-335.472 1216.29,-339.038 1212.47,-342.478 1208.52,-345.783 1204.47,-348.943 1200.31,-351.949 1196.07,-354.794 1191.75,-357.47 1187.37,-359.97 1182.93,-362.286 1178.44,-364.412 1173.91,-366.342 1169.34,-368.072 1164.74,-369.595 1160.12,-370.909 1155.48,-372.01 1150.82,-372.894 1146.15,-373.559 1141.48,-374.004 1136.8,-374.226 1132.12,-374.226 1127.44,-374.004 1122.76,-373.559 1118.1,-372.894 1113.44,-372.01 1108.8,-370.909 1104.18,-369.595 1099.58,-368.072 1095.01,-366.342 1090.48,-364.412 1085.99,-362.286 1081.55,-359.97 1077.16,-357.47 1072.85,-354.794 1068.61,-351.949 1064.45,-348.943 1060.4,-345.783 1056.45,-342.478 1052.63,-339.038 1048.94,-335.472 1045.41,-331.79 1042.04,-328.001 1038.85,-324.116 1035.86,-320.147 1033.08,-316.103 1030.53,-311.996 1028.21,-307.836 1026.16,-303.637 1024.38,-299.408 1022.88,-295.162 1021.69,-290.909 1020.81,-286.663 1020.26,-282.434 1020.04,-278.235 1020.17,-274.075 1020.66,-269.968 1021.51,-265.924 1022.73,-261.955 1024.32,-258.07 1026.28,-254.281 1028.62,-250.599 1031.34,-247.033 1034.42,-243.593 1037.87,-240.288 1041.68,-237.128 1045.83,-234.122 1050.32,-231.276 1055.13,-228.601 1060.26,-226.101 1065.67,-223.785 1071.35,-221.659 1077.29,-219.729 1083.45,-217.999 1089.83,-216.476 1096.38,-215.162 1103.09,-214.061 1109.92,-213.177 1116.86,-212.512 1123.87,-212.067 1130.93,-211.845 1137.99,-211.845 1145.05,-212.067"/>
<image xlink:href="Images\Microstates\SM21_micro033.svg" width="201px" height="151px" preserveAspectRatio="xMinYMin meet" x="1033.96" y="-368.535"/>
</g>
<!-- SM21_micro029&#45;&gt;SM21_micro033 -->
<g id="edge28" class="edge"><title>SM21_micro029&#45;&gt;SM21_micro033</title>
<path fill="none" stroke="black" d="M1131.97,-425.282C1136.37,-413.598 1139.46,-405.381 1139.46,-405.381 1139.46,-405.381 1139.46,-392.381 1139.46,-392.381 1139.46,-392.381 1139.31,-389.363 1139.05,-384.385"/>
<polygon fill="black" stroke="black" points="1138.54,-374.343 1143.54,-384.101 1138.8,-379.336 1139.05,-384.33 1139.05,-384.33 1139.05,-384.33 1138.8,-379.336 1134.56,-384.558 1138.54,-374.343 1138.54,-374.343"/>
<text text-anchor="middle" x="1179.46" y="-395.781" font-family="sans bold" font-size="12.00">&#45;18.4+/&#45;0.35</text>
</g>
<!-- SM21_micro031 -->
<g id="node10" class="node"><title>SM21_micro031</title>
<defs>
<radialGradient id="r_17" cx="50%" cy="50%" r="75%" fx="50%" fy="50%">
<stop offset="0" style="stop-color:#ffffff;stop-opacity:1.;"/>
<stop offset="1" style="stop-color:#4393c3;stop-opacity:1.;"/>
</radialGradient>
</defs>
<polygon fill="url(#r_17)" stroke="#ffffff" points="619.048,-423.758 626.058,-424.202 632.995,-424.867 639.832,-425.751 646.54,-426.852 653.093,-428.166 659.465,-429.69 665.63,-431.419 671.566,-433.35 677.251,-435.476 682.663,-437.792 687.785,-440.291 692.599,-442.967 697.089,-445.812 701.243,-448.819 705.049,-451.979 708.498,-455.283 711.583,-458.723 714.297,-462.289 716.637,-465.972 718.603,-469.76 720.193,-473.645 721.412,-477.615 722.261,-481.658 722.748,-485.766 722.879,-489.925 722.663,-494.125 722.109,-498.353 721.23,-502.6 720.036,-506.852 718.541,-511.098 716.76,-515.327 714.705,-519.527 712.394,-523.686 709.839,-527.793 707.058,-531.837 704.066,-535.807 700.878,-539.691 697.509,-543.48 693.975,-547.162 690.29,-550.728 686.468,-554.168 682.523,-557.473 678.467,-560.633 674.313,-563.64 670.072,-566.485 665.755,-569.161 661.371,-571.66 656.929,-573.976 652.438,-576.102 647.906,-578.032 643.337,-579.762 638.74,-581.286 634.119,-582.6 629.478,-583.7 624.822,-584.584 620.155,-585.249 615.48,-585.694 610.8,-585.916 606.119,-585.916 601.44,-585.694 596.765,-585.249 592.097,-584.584 587.442,-583.7 582.801,-582.6 578.179,-581.286 573.582,-579.762 569.014,-578.032 564.481,-576.102 559.99,-573.976 555.549,-571.66 551.165,-569.161 546.847,-566.485 542.606,-563.64 538.452,-560.633 534.397,-557.473 530.451,-554.168 526.63,-550.728 522.944,-547.162 519.41,-543.48 516.042,-539.691 512.853,-535.807 509.861,-531.837 507.08,-527.793 504.526,-523.686 502.214,-519.527 500.16,-515.327 498.378,-511.098 496.883,-506.852 495.69,-502.6 494.81,-498.353 494.257,-494.125 494.04,-489.925 494.171,-485.766 494.658,-481.658 495.508,-477.615 496.726,-473.645 498.317,-469.76 500.282,-465.972 502.623,-462.289 505.337,-458.723 508.421,-455.283 511.87,-451.979 515.676,-448.819 519.83,-445.812 524.321,-442.967 529.134,-440.291 534.256,-437.792 539.668,-435.476 545.353,-433.35 551.289,-431.419 557.454,-429.69 563.826,-428.166 570.379,-426.852 577.087,-425.751 583.924,-424.867 590.862,-424.202 597.872,-423.758 604.925,-423.535 611.994,-423.535 619.048,-423.758"/>
<image xlink:href="Images\Microstates\SM21_micro031.svg" width="201px" height="151px" preserveAspectRatio="xMinYMin meet" x="507.96" y="-580.226"/>
</g>
<!-- SM21_micro031&#45;&gt;SM21_micro035 -->
<g id="edge29" class="edge"><title>SM21_micro031&#45;&gt;SM21_micro035</title>
<path fill="none" stroke="black" d="M533.482,-437.99C505.986,-413.883 481.46,-392.381 481.46,-392.381 481.46,-392.381 447.556,-371.143 411.259,-348.407"/>
<polygon fill="black" stroke="black" points="402.5,-342.92 413.363,-344.415 406.737,-345.574 410.974,-348.229 410.974,-348.229 410.974,-348.229 406.737,-345.574 408.585,-352.042 402.5,-342.92 402.5,-342.92"/>
<text text-anchor="middle" x="539.46" y="-395.781" font-family="sans bold" font-size="12.00">&#45;11.12+/&#45;0.51</text>
</g>
<!-- SM21_micro031&#45;&gt;SM21_micro033 -->
<g id="edge30" class="edge"><title>SM21_micro031&#45;&gt;SM21_micro033</title>
<path fill="none" stroke="black" d="M697.589,-445.975C717.304,-433.201 732.46,-423.381 732.46,-423.381 732.46,-423.381 1028.46,-405.381 1028.46,-405.381 1028.46,-405.381 1046.64,-386.282 1067.95,-363.904"/>
<polygon fill="black" stroke="black" points="1074.95,-356.543 1071.32,-366.889 1071.51,-360.164 1068.06,-363.786 1068.06,-363.786 1068.06,-363.786 1071.51,-360.164 1064.8,-360.683 1074.95,-356.543 1074.95,-356.543"/>
<text text-anchor="middle" x="1084.46" y="-395.781" font-family="sans bold" font-size="12.00">&#45;22.94+/&#45;0.74</text>
</g>
<!-- SM21_micro028 -->
<g id="node11" class="node"><title>SM21_micro028</title>
<defs>
<radialGradient id="r_18" cx="50%" cy="50%" r="75%" fx="50%" fy="50%">
<stop offset="0" style="stop-color:#ffffff;stop-opacity:1.;"/>
<stop offset="1" style="stop-color:#4393c3;stop-opacity:1.;"/>
</radialGradient>
</defs>
<polygon fill="url(#r_18)" stroke="#ffffff" points="1360.05,-423.758 1367.06,-424.202 1374,-424.867 1380.83,-425.751 1387.54,-426.852 1394.09,-428.166 1400.46,-429.69 1406.63,-431.419 1412.57,-433.35 1418.25,-435.476 1423.66,-437.792 1428.78,-440.291 1433.6,-442.967 1438.09,-445.812 1442.24,-448.819 1446.05,-451.979 1449.5,-455.283 1452.58,-458.723 1455.3,-462.289 1457.64,-465.972 1459.6,-469.76 1461.19,-473.645 1462.41,-477.615 1463.26,-481.658 1463.75,-485.766 1463.88,-489.925 1463.66,-494.125 1463.11,-498.353 1462.23,-502.6 1461.04,-506.852 1459.54,-511.098 1457.76,-515.327 1455.71,-519.527 1453.39,-523.686 1450.84,-527.793 1448.06,-531.837 1445.07,-535.807 1441.88,-539.691 1438.51,-543.48 1434.97,-547.162 1431.29,-550.728 1427.47,-554.168 1423.52,-557.473 1419.47,-560.633 1415.31,-563.64 1411.07,-566.485 1406.75,-569.161 1402.37,-571.66 1397.93,-573.976 1393.44,-576.102 1388.91,-578.032 1384.34,-579.762 1379.74,-581.286 1375.12,-582.6 1370.48,-583.7 1365.82,-584.584 1361.15,-585.249 1356.48,-585.694 1351.8,-585.916 1347.12,-585.916 1342.44,-585.694 1337.76,-585.249 1333.1,-584.584 1328.44,-583.7 1323.8,-582.6 1319.18,-581.286 1314.58,-579.762 1310.01,-578.032 1305.48,-576.102 1300.99,-573.976 1296.55,-571.66 1292.16,-569.161 1287.85,-566.485 1283.61,-563.64 1279.45,-560.633 1275.4,-557.473 1271.45,-554.168 1267.63,-550.728 1263.94,-547.162 1260.41,-543.48 1257.04,-539.691 1253.85,-535.807 1250.86,-531.837 1248.08,-527.793 1245.53,-523.686 1243.21,-519.527 1241.16,-515.327 1239.38,-511.098 1237.88,-506.852 1236.69,-502.6 1235.81,-498.353 1235.26,-494.125 1235.04,-489.925 1235.17,-485.766 1235.66,-481.658 1236.51,-477.615 1237.73,-473.645 1239.32,-469.76 1241.28,-465.972 1243.62,-462.289 1246.34,-458.723 1249.42,-455.283 1252.87,-451.979 1256.68,-448.819 1260.83,-445.812 1265.32,-442.967 1270.13,-440.291 1275.26,-437.792 1280.67,-435.476 1286.35,-433.35 1292.29,-431.419 1298.45,-429.69 1304.83,-428.166 1311.38,-426.852 1318.09,-425.751 1324.92,-424.867 1331.86,-424.202 1338.87,-423.758 1345.93,-423.535 1352.99,-423.535 1360.05,-423.758"/>
<image xlink:href="Images\Microstates\SM21_micro028.svg" width="201px" height="151px" preserveAspectRatio="xMinYMin meet" x="1248.96" y="-580.226"/>
</g>
<!-- SM21_micro028&#45;&gt;SM21_micro032 -->
<g id="edge31" class="edge"><title>SM21_micro028&#45;&gt;SM21_micro032</title>
<path fill="none" stroke="black" d="M1274.71,-437.669C1247.58,-413.693 1223.46,-392.381 1223.46,-392.381 1223.46,-392.381 1011.46,-374.381 1011.46,-374.381 1011.46,-374.381 978.959,-358.36 942.982,-340.627"/>
<polygon fill="black" stroke="black" points="933.779,-336.091 944.738,-336.475 938.264,-338.301 942.748,-340.512 942.748,-340.512 942.748,-340.512 938.264,-338.301 940.759,-344.548 933.779,-336.091 933.779,-336.091"/>
<text text-anchor="middle" x="1277.46" y="-395.781" font-family="sans bold" font-size="12.00">&#45;7.48+/&#45;2.26</text>
</g>
<!-- SM21_micro028&#45;&gt;SM21_micro033 -->
<g id="edge32" class="edge"><title>SM21_micro028&#45;&gt;SM21_micro033</title>
<path fill="none" stroke="black" d="M1346.57,-423.396C1345.94,-405.838 1345.46,-392.381 1345.46,-392.381 1345.46,-392.381 1286.18,-364.749 1230.46,-338.779"/>
<polygon fill="black" stroke="black" points="1221.19,-334.462 1232.16,-334.608 1225.73,-336.574 1230.26,-338.687 1230.26,-338.687 1230.26,-338.687 1225.73,-336.574 1228.36,-342.765 1221.19,-334.462 1221.19,-334.462"/>
<text text-anchor="middle" x="1389.46" y="-395.781" font-family="sans bold" font-size="12.00">&#45;14.33+/&#45;1.36</text>
</g>
<!-- SM21_micro001&#45;&gt;SM21_micro026 -->
<g id="edge9" class="edge"><title>SM21_micro001&#45;&gt;SM21_micro026</title>
<path fill="none" stroke="black" d="M330.228,-659.58C375.888,-631.799 421.46,-604.071 421.46,-604.071 421.46,-604.071 731.46,-586.071 731.46,-586.071 731.46,-586.071 748.652,-574.931 770.233,-560.948"/>
<polygon fill="black" stroke="black" points="778.692,-555.467 772.747,-564.681 774.496,-558.186 770.3,-560.904 770.3,-560.904 770.3,-560.904 774.496,-558.186 767.853,-557.128 778.692,-555.467 778.692,-555.467"/>
<text text-anchor="middle" x="462.46" y="-607.471" font-family="sans bold" font-size="12.00">&#45;5.14+/&#45;2.26</text>
</g>
<!-- SM21_micro001&#45;&gt;SM21_micro027 -->
<g id="edge10" class="edge"><title>SM21_micro001&#45;&gt;SM21_micro027</title>
<path fill="none" stroke="black" d="M214.387,-636.501C210.899,-625.068 208.46,-617.071 208.46,-617.071 208.46,-617.071 208.46,-604.071 208.46,-604.071 208.46,-604.071 237.46,-586.071 237.46,-586.071 237.46,-586.071 254.652,-574.931 276.233,-560.948"/>
<polygon fill="black" stroke="black" points="284.692,-555.467 278.747,-564.681 280.496,-558.186 276.3,-560.904 276.3,-560.904 276.3,-560.904 280.496,-558.186 273.853,-557.128 284.692,-555.467 284.692,-555.467"/>
<text text-anchor="middle" x="253.46" y="-607.471" font-family="sans bold" font-size="12.00">&#45;10.33+/&#45;1.75</text>
</g>
<!-- SM21_micro001&#45;&gt;SM21_micro030 -->
<g id="edge11" class="edge"><title>SM21_micro001&#45;&gt;SM21_micro030</title>
<path fill="none" stroke="black" d="M159.472,-651.744C136.018,-632.837 116.46,-617.071 116.46,-617.071 116.46,-617.071 116.306,-608.525 116.084,-596.169"/>
<polygon fill="black" stroke="black" points="115.903,-586.055 120.582,-595.973 115.992,-591.054 116.082,-596.053 116.082,-596.053 116.082,-596.053 115.992,-591.054 111.583,-596.134 115.903,-586.055 115.903,-586.055"/>
<text text-anchor="middle" x="160.46" y="-607.471" font-family="sans bold" font-size="12.00">&#45;10.21+/&#45;1.55</text>
</g>
<!-- SM21_micro002&#45;&gt;SM21_micro030 -->
<g id="edge12" class="edge"><title>SM21_micro002&#45;&gt;SM21_micro030</title>
<path fill="none" stroke="black" d="M419.105,-664.76C387.954,-648.716 361.46,-635.071 361.46,-635.071 361.46,-635.071 319.46,-617.071 319.46,-617.071 319.46,-617.071 296.46,-604.071 296.46,-604.071 296.46,-604.071 238.46,-586.071 238.46,-586.071 238.46,-586.071 221.268,-574.931 199.686,-560.948"/>
<polygon fill="black" stroke="black" points="191.227,-555.467 202.066,-557.128 195.423,-558.186 199.619,-560.904 199.619,-560.904 199.619,-560.904 195.423,-558.186 197.172,-564.681 191.227,-555.467 191.227,-555.467"/>
<text text-anchor="middle" x="359.46" y="-607.471" font-family="sans bold" font-size="12.00">&#45;4.15+/&#45;0.46</text>
</g>
<!-- SM21_micro002&#45;&gt;SM21_micro029 -->
<g id="edge13" class="edge"><title>SM21_micro002&#45;&gt;SM21_micro029</title>
<path fill="none" stroke="black" d="M606.589,-657.665C626.304,-644.891 641.46,-635.071 641.46,-635.071 641.46,-635.071 782.46,-617.071 782.46,-617.071 782.46,-617.071 845.46,-604.071 845.46,-604.071 845.46,-604.071 978.46,-586.071 978.46,-586.071 978.46,-586.071 995.652,-574.931 1017.23,-560.948"/>
<polygon fill="black" stroke="black" points="1025.69,-555.467 1019.75,-564.681 1021.5,-558.186 1017.3,-560.904 1017.3,-560.904 1017.3,-560.904 1021.5,-558.186 1014.85,-557.128 1025.69,-555.467 1025.69,-555.467"/>
<text text-anchor="middle" x="886.46" y="-607.471" font-family="sans bold" font-size="12.00">&#45;6.76+/&#45;1.59</text>
</g>
<!-- SM21_micro002&#45;&gt;SM21_micro031 -->
<g id="edge14" class="edge"><title>SM21_micro002&#45;&gt;SM21_micro031</title>
<path fill="none" stroke="black" d="M580.478,-644.99C594.583,-629.226 605.46,-617.071 605.46,-617.071 605.46,-617.071 605.69,-608.525 606.023,-596.169"/>
<polygon fill="black" stroke="black" points="606.295,-586.055 610.524,-596.173 606.161,-591.053 606.026,-596.051 606.026,-596.051 606.026,-596.051 606.161,-591.053 601.528,-595.93 606.295,-586.055 606.295,-586.055"/>
<text text-anchor="middle" x="646.46" y="-607.471" font-family="sans bold" font-size="12.00">&#45;8.18+/&#45;0.35</text>
</g>
<!-- SM21_micro024&#45;&gt;SM21_micro026 -->
<g id="edge15" class="edge"><title>SM21_micro024&#45;&gt;SM21_micro026</title>
<path fill="none" stroke="black" d="M990.036,-654.812C961.843,-634.574 937.46,-617.071 937.46,-617.071 937.46,-617.071 925.871,-601.335 911.406,-581.694"/>
<polygon fill="black" stroke="black" points="905.286,-573.384 914.84,-578.768 908.251,-577.41 911.216,-581.436 911.216,-581.436 911.216,-581.436 908.251,-577.41 907.593,-584.105 905.286,-573.384 905.286,-573.384"/>
<text text-anchor="middle" x="977.46" y="-607.471" font-family="sans bold" font-size="12.00">&#45;1.82+/&#45;2.26</text>
</g>
<!-- SM21_micro024&#45;&gt;SM21_micro029 -->
<g id="edge16" class="edge"><title>SM21_micro024&#45;&gt;SM21_micro029</title>
<path fill="none" stroke="black" d="M1110.7,-637.927C1116.41,-625.739 1120.46,-617.071 1120.46,-617.071 1120.46,-617.071 1120.46,-604.071 1120.46,-604.071 1120.46,-604.071 1119.85,-600.721 1118.85,-595.257"/>
<polygon fill="black" stroke="black" points="1116.99,-585.109 1123.22,-594.135 1117.89,-590.027 1118.79,-594.946 1118.79,-594.946 1118.79,-594.946 1117.89,-590.027 1114.36,-595.756 1116.99,-585.109 1116.99,-585.109"/>
<text text-anchor="middle" x="1160.46" y="-607.471" font-family="sans bold" font-size="12.00">&#45;9.65+/&#45;1.53</text>
</g>
<!-- SM21_micro024&#45;&gt;SM21_micro028 -->
<g id="edge17" class="edge"><title>SM21_micro024&#45;&gt;SM21_micro028</title>
<path fill="none" stroke="black" d="M1156.42,-653.412C1182.38,-633.773 1204.46,-617.071 1204.46,-617.071 1204.46,-617.071 1236.51,-592.462 1270.47,-566.382"/>
<polygon fill="black" stroke="black" points="1278.66,-560.094 1273.47,-569.753 1274.69,-563.139 1270.73,-566.184 1270.73,-566.184 1270.73,-566.184 1274.69,-563.139 1267.99,-562.615 1278.66,-560.094 1278.66,-560.094"/>
<text text-anchor="middle" x="1264.46" y="-607.471" font-family="sans bold" font-size="12.00">&#45;14.02+/&#45;0.34</text>
</g>
<!-- SM21_micro022&#45;&gt;SM21_micro027 -->
<g id="edge18" class="edge"><title>SM21_micro022&#45;&gt;SM21_micro027</title>
<path fill="none" stroke="black" d="M675.331,-657.665C655.616,-644.891 640.46,-635.071 640.46,-635.071 640.46,-635.071 521.46,-617.071 521.46,-617.071 521.46,-617.071 483.251,-590.481 444.176,-563.289"/>
<polygon fill="black" stroke="black" points="435.839,-557.487 446.617,-559.505 439.943,-560.343 444.047,-563.199 444.047,-563.199 444.047,-563.199 439.943,-560.343 441.476,-566.892 435.839,-557.487 435.839,-557.487"/>
<text text-anchor="middle" x="561.46" y="-607.471" font-family="sans bold" font-size="12.00">&#45;1.23+/&#45;2.26</text>
</g>
<!-- SM21_micro022&#45;&gt;SM21_micro031 -->
<g id="edge19" class="edge"><title>SM21_micro022&#45;&gt;SM21_micro031</title>
<path fill="none" stroke="black" d="M714.895,-640.838C701.415,-620.555 690.46,-604.071 690.46,-604.071 690.46,-604.071 681.477,-593.298 669.457,-578.882"/>
<polygon fill="black" stroke="black" points="662.927,-571.05 672.787,-575.849 666.129,-574.89 669.331,-578.73 669.331,-578.73 669.331,-578.73 666.129,-574.89 665.875,-581.612 662.927,-571.05 662.927,-571.05"/>
<text text-anchor="middle" x="738.46" y="-607.471" font-family="sans bold" font-size="12.00">&#45;6.87+/&#45;0.37</text>
</g>
<!-- SM21_micro022&#45;&gt;SM21_micro028 -->
<g id="edge20" class="edge"><title>SM21_micro022&#45;&gt;SM21_micro028</title>
<path fill="none" stroke="black" d="M868.077,-670.896C911.222,-652.359 951.46,-635.071 951.46,-635.071 951.46,-635.071 1017.46,-617.071 1017.46,-617.071 1017.46,-617.071 1036.46,-604.071 1036.46,-604.071 1036.46,-604.071 1225.46,-586.071 1225.46,-586.071 1225.46,-586.071 1242.65,-574.931 1264.23,-560.948"/>
<polygon fill="black" stroke="black" points="1272.69,-555.467 1266.75,-564.681 1268.5,-558.186 1264.3,-560.904 1264.3,-560.904 1264.3,-560.904 1268.5,-558.186 1261.85,-557.128 1272.69,-555.467 1272.69,-555.467"/>
<text text-anchor="middle" x="1077.46" y="-607.471" font-family="sans bold" font-size="12.00">&#45;7.07+/&#45;1.49</text>
</g>
<!-- SM21_micro036 -->
<g id="node20" class="node"><title>SM21_micro036</title>
<defs>
<radialGradient id="r_19" cx="50%" cy="50%" r="75%" fx="50%" fy="50%">
<stop offset="0" style="stop-color:#ffffff;stop-opacity:1.;"/>
<stop offset="1" style="stop-color:#0d2844;stop-opacity:1.;"/>
</radialGradient>
</defs>
<polygon fill="url(#r_19)" stroke="#ffffff" points="735.048,-0.377089 742.058,-0.821554 748.995,-1.48673 755.832,-2.37079 762.54,-3.47132 769.093,-4.78529 775.465,-6.3091 781.63,-8.03859 787.566,-9.969 793.251,-12.0951 798.663,-14.4109 803.785,-16.9102 808.599,-19.5862 813.089,-22.4314 817.243,-25.4381 821.049,-28.598 824.498,-31.9025 827.583,-35.3425 830.297,-38.9086 832.637,-42.5911 834.603,-46.3797 836.193,-50.2642 837.412,-54.2339 838.261,-58.2779 838.748,-62.3851 838.879,-66.5443 838.663,-70.744 838.109,-74.9728 837.23,-79.2191 836.036,-83.4712 834.541,-87.7175 832.76,-91.9463 830.705,-96.146 828.394,-100.305 825.839,-104.412 823.058,-108.456 820.066,-112.426 816.878,-116.311 813.509,-120.099 809.975,-123.782 806.29,-127.348 802.468,-130.788 798.523,-134.092 794.467,-137.252 790.313,-140.259 786.072,-143.104 781.755,-145.78 777.371,-148.279 772.929,-150.595 768.438,-152.721 763.906,-154.652 759.337,-156.381 754.74,-157.905 750.119,-159.219 745.478,-160.32 740.822,-161.204 736.155,-161.869 731.48,-162.313 726.8,-162.536 722.119,-162.536 717.44,-162.313 712.765,-161.869 708.097,-161.204 703.442,-160.32 698.801,-159.219 694.179,-157.905 689.582,-156.381 685.014,-154.652 680.481,-152.721 675.99,-150.595 671.549,-148.279 667.165,-145.78 662.847,-143.104 658.606,-140.259 654.452,-137.252 650.397,-134.092 646.451,-130.788 642.63,-127.348 638.944,-123.782 635.41,-120.099 632.042,-116.311 628.853,-112.426 625.861,-108.456 623.08,-104.412 620.526,-100.305 618.214,-96.146 616.16,-91.9463 614.378,-87.7175 612.883,-83.4712 611.69,-79.2191 610.81,-74.9728 610.257,-70.744 610.04,-66.5443 610.171,-62.3851 610.658,-58.2779 611.508,-54.2339 612.726,-50.2642 614.317,-46.3797 616.282,-42.5911 618.623,-38.9086 621.337,-35.3425 624.421,-31.9025 627.87,-28.598 631.676,-25.4381 635.83,-22.4314 640.321,-19.5862 645.134,-16.9102 650.256,-14.4109 655.668,-12.0951 661.353,-9.969 667.289,-8.03859 673.454,-6.3091 679.826,-4.78529 686.379,-3.47132 693.087,-2.37079 699.924,-1.48673 706.862,-0.821554 713.872,-0.377089 720.925,-0.154551 727.994,-0.154551 735.048,-0.377089"/>
<image xlink:href="Images\Microstates\SM21_micro036.svg" width="201px" height="151px" preserveAspectRatio="xMinYMin meet" x="623.96" y="-156.845"/>
</g>
<!-- SM21_micro032&#45;&gt;SM21_micro036 -->
<g id="edge33" class="edge"><title>SM21_micro032&#45;&gt;SM21_micro036</title>
<path fill="none" stroke="black" d="M803.693,-216.332C793.32,-198.791 782.247,-180.067 771.769,-162.347"/>
<polygon fill="black" stroke="black" points="766.678,-153.739 775.642,-160.056 769.223,-158.043 771.768,-162.347 771.768,-162.347 771.768,-162.347 769.223,-158.043 767.895,-164.637 766.678,-153.739 766.678,-153.739"/>
<text text-anchor="middle" x="834.46" y="-184.09" font-family="sans bold" font-size="12.00">&#45;27.43+/&#45;0.31</text>
</g>
<!-- SM21_micro034&#45;&gt;SM21_micro036 -->
<g id="edge34" class="edge"><title>SM21_micro034&#45;&gt;SM21_micro036</title>
<path fill="none" stroke="black" d="M645.865,-216.332C656.062,-198.95 666.938,-180.407 677.248,-162.831"/>
<polygon fill="black" stroke="black" points="682.581,-153.739 681.403,-164.642 680.052,-158.052 677.522,-162.365 677.522,-162.365 677.522,-162.365 680.052,-158.052 673.64,-160.088 682.581,-153.739 682.581,-153.739"/>
<text text-anchor="middle" x="711.46" y="-184.09" font-family="sans bold" font-size="12.00">&#45;27.45+/&#45;0.31</text>
</g>
<!-- SM21_micro035&#45;&gt;SM21_micro036 -->
<g id="edge35" class="edge"><title>SM21_micro035&#45;&gt;SM21_micro036</title>
<path fill="none" stroke="black" d="M422.055,-240.874C485.979,-207.363 569.018,-163.832 631.903,-130.866"/>
<polygon fill="black" stroke="black" points="641.03,-126.081 634.262,-134.71 636.601,-128.403 632.173,-130.724 632.173,-130.724 632.173,-130.724 636.601,-128.403 630.084,-126.739 641.03,-126.081 641.03,-126.081"/>
<text text-anchor="middle" x="580.46" y="-184.09" font-family="sans bold" font-size="12.00">&#45;20.83+/&#45;2.26</text>
</g>
<!-- SM21_micro033&#45;&gt;SM21_micro036 -->
<g id="edge36" class="edge"><title>SM21_micro033&#45;&gt;SM21_micro036</title>
<path fill="none" stroke="black" d="M1036.25,-241.809C969.96,-207.904 882.992,-163.425 817.753,-130.059"/>
<polygon fill="black" stroke="black" points="808.696,-125.427 819.648,-125.974 813.147,-127.704 817.599,-129.98 817.599,-129.98 817.599,-129.98 813.147,-127.704 815.55,-133.987 808.696,-125.427 808.696,-125.427"/>
<text text-anchor="middle" x="986.46" y="-184.09" font-family="sans bold" font-size="12.00">&#45;16.99+/&#45;2.26</text>
</g>
<!-- SM21_micro021 -->
<g id="node21" class="node"><title>SM21_micro021</title>
<defs>
<radialGradient id="r_20" cx="50%" cy="50%" r="75%" fx="50%" fy="50%">
<stop offset="0" style="stop-color:#ffffff;stop-opacity:1.;"/>
<stop offset="1" style="stop-color:#d6604d;stop-opacity:1.;"/>
</radialGradient>
</defs>
<polygon fill="url(#r_20)" stroke="#ffffff" points="807.048,-1270.52 814.058,-1270.96 820.995,-1271.63 827.832,-1272.51 834.54,-1273.61 841.093,-1274.93 847.465,-1276.45 853.63,-1278.18 859.566,-1280.11 865.251,-1282.24 870.663,-1284.55 875.785,-1287.05 880.599,-1289.73 885.089,-1292.57 889.243,-1295.58 893.049,-1298.74 896.498,-1302.04 899.583,-1305.48 902.297,-1309.05 904.637,-1312.73 906.603,-1316.52 908.193,-1320.41 909.412,-1324.38 910.261,-1328.42 910.748,-1332.53 910.879,-1336.69 910.663,-1340.89 910.109,-1345.11 909.23,-1349.36 908.036,-1353.61 906.541,-1357.86 904.76,-1362.09 902.705,-1366.29 900.394,-1370.45 897.839,-1374.55 895.058,-1378.6 892.066,-1382.57 888.878,-1386.45 885.509,-1390.24 881.975,-1393.92 878.29,-1397.49 874.468,-1400.93 870.523,-1404.23 866.467,-1407.39 862.313,-1410.4 858.072,-1413.25 853.755,-1415.92 849.371,-1418.42 844.929,-1420.74 840.438,-1422.86 835.906,-1424.79 831.337,-1426.52 826.74,-1428.05 822.119,-1429.36 817.478,-1430.46 812.822,-1431.35 808.155,-1432.01 803.48,-1432.46 798.8,-1432.68 794.119,-1432.68 789.44,-1432.46 784.765,-1432.01 780.097,-1431.35 775.442,-1430.46 770.801,-1429.36 766.179,-1428.05 761.582,-1426.52 757.014,-1424.79 752.481,-1422.86 747.99,-1420.74 743.549,-1418.42 739.165,-1415.92 734.847,-1413.25 730.606,-1410.4 726.452,-1407.39 722.397,-1404.23 718.451,-1400.93 714.63,-1397.49 710.944,-1393.92 707.41,-1390.24 704.042,-1386.45 700.853,-1382.57 697.861,-1378.6 695.08,-1374.55 692.526,-1370.45 690.214,-1366.29 688.16,-1362.09 686.378,-1357.86 684.883,-1353.61 683.69,-1349.36 682.81,-1345.11 682.257,-1340.89 682.04,-1336.69 682.171,-1332.53 682.658,-1328.42 683.508,-1324.38 684.726,-1320.41 686.317,-1316.52 688.282,-1312.73 690.623,-1309.05 693.337,-1305.48 696.421,-1302.04 699.87,-1298.74 703.676,-1295.58 707.83,-1292.57 712.321,-1289.73 717.134,-1287.05 722.256,-1284.55 727.668,-1282.24 733.353,-1280.11 739.289,-1278.18 745.454,-1276.45 751.826,-1274.93 758.379,-1273.61 765.087,-1272.51 771.924,-1271.63 778.862,-1270.96 785.872,-1270.52 792.925,-1270.3 799.994,-1270.3 807.048,-1270.52"/>
<image xlink:href="Images\Microstates\SM21_micro021.svg" width="201px" height="151px" preserveAspectRatio="xMinYMin meet" x="695.96" y="-1426.99"/>
</g>
<!-- SM21_micro005 -->
<g id="node22" class="node"><title>SM21_micro005</title>
<defs>
<radialGradient id="r_21" cx="50%" cy="50%" r="75%" fx="50%" fy="50%">
<stop offset="0" style="stop-color:#ffffff;stop-opacity:1.;"/>
<stop offset="1" style="stop-color:#f4a582;stop-opacity:1.;"/>
</radialGradient>
</defs>
<polygon fill="url(#r_21)" stroke="#ffffff" points="931.048,-1058.83 938.058,-1059.27 944.995,-1059.94 951.832,-1060.82 958.54,-1061.92 965.093,-1063.24 971.465,-1064.76 977.63,-1066.49 983.566,-1068.42 989.251,-1070.55 994.663,-1072.86 999.785,-1075.36 1004.6,-1078.04 1009.09,-1080.88 1013.24,-1083.89 1017.05,-1087.05 1020.5,-1090.35 1023.58,-1093.79 1026.3,-1097.36 1028.64,-1101.04 1030.6,-1104.83 1032.19,-1108.72 1033.41,-1112.69 1034.26,-1116.73 1034.75,-1120.84 1034.88,-1125 1034.66,-1129.2 1034.11,-1133.42 1033.23,-1137.67 1032.04,-1141.92 1030.54,-1146.17 1028.76,-1150.4 1026.71,-1154.6 1024.39,-1158.76 1021.84,-1162.86 1019.06,-1166.91 1016.07,-1170.88 1012.88,-1174.76 1009.51,-1178.55 1005.97,-1182.23 1002.29,-1185.8 998.468,-1189.24 994.523,-1192.54 990.467,-1195.7 986.313,-1198.71 982.072,-1201.56 977.755,-1204.23 973.371,-1206.73 968.929,-1209.05 964.438,-1211.17 959.906,-1213.1 955.337,-1214.83 950.74,-1216.36 946.119,-1217.67 941.478,-1218.77 936.822,-1219.66 932.155,-1220.32 927.48,-1220.76 922.8,-1220.99 918.119,-1220.99 913.44,-1220.76 908.765,-1220.32 904.097,-1219.66 899.442,-1218.77 894.801,-1217.67 890.179,-1216.36 885.582,-1214.83 881.014,-1213.1 876.481,-1211.17 871.99,-1209.05 867.549,-1206.73 863.165,-1204.23 858.847,-1201.56 854.606,-1198.71 850.452,-1195.7 846.397,-1192.54 842.451,-1189.24 838.63,-1185.8 834.944,-1182.23 831.41,-1178.55 828.042,-1174.76 824.853,-1170.88 821.861,-1166.91 819.08,-1162.86 816.526,-1158.76 814.214,-1154.6 812.16,-1150.4 810.378,-1146.17 808.883,-1141.92 807.69,-1137.67 806.81,-1133.42 806.257,-1129.2 806.04,-1125 806.171,-1120.84 806.658,-1116.73 807.508,-1112.69 808.726,-1108.72 810.317,-1104.83 812.282,-1101.04 814.623,-1097.36 817.337,-1093.79 820.421,-1090.35 823.87,-1087.05 827.676,-1083.89 831.83,-1080.88 836.321,-1078.04 841.134,-1075.36 846.256,-1072.86 851.668,-1070.55 857.353,-1068.42 863.289,-1066.49 869.454,-1064.76 875.826,-1063.24 882.379,-1061.92 889.087,-1060.82 895.924,-1059.94 902.862,-1059.27 909.872,-1058.83 916.925,-1058.61 923.994,-1058.61 931.048,-1058.83"/>
<image xlink:href="Images\Microstates\SM21_micro005.svg" width="201px" height="151px" preserveAspectRatio="xMinYMin meet" x="819.96" y="-1215.3"/>
</g>
<!-- SM21_micro021&#45;&gt;SM21_micro005 -->
<g id="edge46" class="edge"><title>SM21_micro021&#45;&gt;SM21_micro005</title>
<path fill="none" stroke="black" d="M841.227,-1274.78C851.6,-1257.24 862.672,-1238.52 873.15,-1220.8"/>
<polygon fill="black" stroke="black" points="878.241,-1212.19 877.024,-1223.09 875.696,-1216.49 873.151,-1220.8 873.151,-1220.8 873.151,-1220.8 875.696,-1216.49 869.277,-1218.51 878.241,-1212.19 878.241,-1212.19"/>
<text text-anchor="middle" x="903.46" y="-1242.54" font-family="sans bold" font-size="12.00">15.87+/&#45;2.16</text>
</g>
<!-- SM21_micro015 -->
<g id="node23" class="node"><title>SM21_micro015</title>
<defs>
<radialGradient id="r_22" cx="50%" cy="50%" r="75%" fx="50%" fy="50%">
<stop offset="0" style="stop-color:#ffffff;stop-opacity:1.;"/>
<stop offset="1" style="stop-color:#f4a582;stop-opacity:1.;"/>
</radialGradient>
</defs>
<polygon fill="url(#r_22)" stroke="#ffffff" points="1178.05,-1058.83 1185.06,-1059.27 1192,-1059.94 1198.83,-1060.82 1205.54,-1061.92 1212.09,-1063.24 1218.46,-1064.76 1224.63,-1066.49 1230.57,-1068.42 1236.25,-1070.55 1241.66,-1072.86 1246.78,-1075.36 1251.6,-1078.04 1256.09,-1080.88 1260.24,-1083.89 1264.05,-1087.05 1267.5,-1090.35 1270.58,-1093.79 1273.3,-1097.36 1275.64,-1101.04 1277.6,-1104.83 1279.19,-1108.72 1280.41,-1112.69 1281.26,-1116.73 1281.75,-1120.84 1281.88,-1125 1281.66,-1129.2 1281.11,-1133.42 1280.23,-1137.67 1279.04,-1141.92 1277.54,-1146.17 1275.76,-1150.4 1273.71,-1154.6 1271.39,-1158.76 1268.84,-1162.86 1266.06,-1166.91 1263.07,-1170.88 1259.88,-1174.76 1256.51,-1178.55 1252.97,-1182.23 1249.29,-1185.8 1245.47,-1189.24 1241.52,-1192.54 1237.47,-1195.7 1233.31,-1198.71 1229.07,-1201.56 1224.75,-1204.23 1220.37,-1206.73 1215.93,-1209.05 1211.44,-1211.17 1206.91,-1213.1 1202.34,-1214.83 1197.74,-1216.36 1193.12,-1217.67 1188.48,-1218.77 1183.82,-1219.66 1179.15,-1220.32 1174.48,-1220.76 1169.8,-1220.99 1165.12,-1220.99 1160.44,-1220.76 1155.76,-1220.32 1151.1,-1219.66 1146.44,-1218.77 1141.8,-1217.67 1137.18,-1216.36 1132.58,-1214.83 1128.01,-1213.1 1123.48,-1211.17 1118.99,-1209.05 1114.55,-1206.73 1110.16,-1204.23 1105.85,-1201.56 1101.61,-1198.71 1097.45,-1195.7 1093.4,-1192.54 1089.45,-1189.24 1085.63,-1185.8 1081.94,-1182.23 1078.41,-1178.55 1075.04,-1174.76 1071.85,-1170.88 1068.86,-1166.91 1066.08,-1162.86 1063.53,-1158.76 1061.21,-1154.6 1059.16,-1150.4 1057.38,-1146.17 1055.88,-1141.92 1054.69,-1137.67 1053.81,-1133.42 1053.26,-1129.2 1053.04,-1125 1053.17,-1120.84 1053.66,-1116.73 1054.51,-1112.69 1055.73,-1108.72 1057.32,-1104.83 1059.28,-1101.04 1061.62,-1097.36 1064.34,-1093.79 1067.42,-1090.35 1070.87,-1087.05 1074.68,-1083.89 1078.83,-1080.88 1083.32,-1078.04 1088.13,-1075.36 1093.26,-1072.86 1098.67,-1070.55 1104.35,-1068.42 1110.29,-1066.49 1116.45,-1064.76 1122.83,-1063.24 1129.38,-1061.92 1136.09,-1060.82 1142.92,-1059.94 1149.86,-1059.27 1156.87,-1058.83 1163.93,-1058.61 1170.99,-1058.61 1178.05,-1058.83"/>
<image xlink:href="Images\Microstates\SM21_micro015.svg" width="201px" height="151px" preserveAspectRatio="xMinYMin meet" x="1066.96" y="-1215.3"/>
</g>
<!-- SM21_micro021&#45;&gt;SM21_micro015 -->
<g id="edge47" class="edge"><title>SM21_micro021&#45;&gt;SM21_micro015</title>
<path fill="none" stroke="black" d="M894.081,-1299.37C963.121,-1263.21 1043.46,-1221.14 1043.46,-1221.14 1043.46,-1221.14 1060.65,-1210 1082.23,-1196.02"/>
<polygon fill="black" stroke="black" points="1090.69,-1190.54 1084.75,-1199.75 1086.5,-1193.26 1082.3,-1195.98 1082.3,-1195.98 1082.3,-1195.98 1086.5,-1193.26 1079.85,-1192.2 1090.69,-1190.54 1090.69,-1190.54"/>
<text text-anchor="middle" x="1049.46" y="-1242.54" font-family="sans bold" font-size="12.00">14.08+/&#45;2.26</text>
</g>
<!-- SM21_micro012 -->
<g id="node24" class="node"><title>SM21_micro012</title>
<defs>
<radialGradient id="r_23" cx="50%" cy="50%" r="75%" fx="50%" fy="50%">
<stop offset="0" style="stop-color:#ffffff;stop-opacity:1.;"/>
<stop offset="1" style="stop-color:#f4a582;stop-opacity:1.;"/>
</radialGradient>
</defs>
<polygon fill="url(#r_23)" stroke="#ffffff" points="684.048,-1058.83 691.058,-1059.27 697.995,-1059.94 704.832,-1060.82 711.54,-1061.92 718.093,-1063.24 724.465,-1064.76 730.63,-1066.49 736.566,-1068.42 742.251,-1070.55 747.663,-1072.86 752.785,-1075.36 757.599,-1078.04 762.089,-1080.88 766.243,-1083.89 770.049,-1087.05 773.498,-1090.35 776.583,-1093.79 779.297,-1097.36 781.637,-1101.04 783.603,-1104.83 785.193,-1108.72 786.412,-1112.69 787.261,-1116.73 787.748,-1120.84 787.879,-1125 787.663,-1129.2 787.109,-1133.42 786.23,-1137.67 785.036,-1141.92 783.541,-1146.17 781.76,-1150.4 779.705,-1154.6 777.394,-1158.76 774.839,-1162.86 772.058,-1166.91 769.066,-1170.88 765.878,-1174.76 762.509,-1178.55 758.975,-1182.23 755.29,-1185.8 751.468,-1189.24 747.523,-1192.54 743.467,-1195.7 739.313,-1198.71 735.072,-1201.56 730.755,-1204.23 726.371,-1206.73 721.929,-1209.05 717.438,-1211.17 712.906,-1213.1 708.337,-1214.83 703.74,-1216.36 699.119,-1217.67 694.478,-1218.77 689.822,-1219.66 685.155,-1220.32 680.48,-1220.76 675.8,-1220.99 671.119,-1220.99 666.44,-1220.76 661.765,-1220.32 657.097,-1219.66 652.442,-1218.77 647.801,-1217.67 643.179,-1216.36 638.582,-1214.83 634.014,-1213.1 629.481,-1211.17 624.99,-1209.05 620.549,-1206.73 616.165,-1204.23 611.847,-1201.56 607.606,-1198.71 603.452,-1195.7 599.397,-1192.54 595.451,-1189.24 591.63,-1185.8 587.944,-1182.23 584.41,-1178.55 581.042,-1174.76 577.853,-1170.88 574.861,-1166.91 572.08,-1162.86 569.526,-1158.76 567.214,-1154.6 565.16,-1150.4 563.378,-1146.17 561.883,-1141.92 560.69,-1137.67 559.81,-1133.42 559.257,-1129.2 559.04,-1125 559.171,-1120.84 559.658,-1116.73 560.508,-1112.69 561.726,-1108.72 563.317,-1104.83 565.282,-1101.04 567.623,-1097.36 570.337,-1093.79 573.421,-1090.35 576.87,-1087.05 580.676,-1083.89 584.83,-1080.88 589.321,-1078.04 594.134,-1075.36 599.256,-1072.86 604.668,-1070.55 610.353,-1068.42 616.289,-1066.49 622.454,-1064.76 628.826,-1063.24 635.379,-1061.92 642.087,-1060.82 648.924,-1059.94 655.862,-1059.27 662.872,-1058.83 669.925,-1058.61 676.994,-1058.61 684.048,-1058.83"/>
<image xlink:href="Images\Microstates\SM21_micro012.svg" width="201px" height="151px" preserveAspectRatio="xMinYMin meet" x="572.96" y="-1215.3"/>
</g>
<!-- SM21_micro021&#45;&gt;SM21_micro012 -->
<g id="edge48" class="edge"><title>SM21_micro021&#45;&gt;SM21_micro012</title>
<path fill="none" stroke="black" d="M752.054,-1274.78C741.858,-1257.4 730.981,-1238.86 720.671,-1221.28"/>
<polygon fill="black" stroke="black" points="715.338,-1212.19 724.279,-1218.54 717.868,-1216.5 720.398,-1220.82 720.398,-1220.82 720.398,-1220.82 717.868,-1216.5 716.516,-1223.09 715.338,-1212.19 715.338,-1212.19"/>
<text text-anchor="middle" x="780.46" y="-1242.54" font-family="sans bold" font-size="12.00">18.39+/&#45;1.81</text>
</g>
<!-- SM21_micro025 -->
<g id="node25" class="node"><title>SM21_micro025</title>
<defs>
<radialGradient id="r_24" cx="50%" cy="50%" r="75%" fx="50%" fy="50%">
<stop offset="0" style="stop-color:#ffffff;stop-opacity:1.;"/>
<stop offset="1" style="stop-color:#f4a582;stop-opacity:1.;"/>
</radialGradient>
</defs>
<polygon fill="url(#r_24)" stroke="#ffffff" points="437.048,-1058.83 444.058,-1059.27 450.995,-1059.94 457.832,-1060.82 464.54,-1061.92 471.093,-1063.24 477.465,-1064.76 483.63,-1066.49 489.566,-1068.42 495.251,-1070.55 500.663,-1072.86 505.785,-1075.36 510.599,-1078.04 515.089,-1080.88 519.243,-1083.89 523.049,-1087.05 526.498,-1090.35 529.583,-1093.79 532.297,-1097.36 534.637,-1101.04 536.603,-1104.83 538.193,-1108.72 539.412,-1112.69 540.261,-1116.73 540.748,-1120.84 540.879,-1125 540.663,-1129.2 540.109,-1133.42 539.23,-1137.67 538.036,-1141.92 536.541,-1146.17 534.76,-1150.4 532.705,-1154.6 530.394,-1158.76 527.839,-1162.86 525.058,-1166.91 522.066,-1170.88 518.878,-1174.76 515.509,-1178.55 511.975,-1182.23 508.29,-1185.8 504.468,-1189.24 500.523,-1192.54 496.467,-1195.7 492.313,-1198.71 488.072,-1201.56 483.755,-1204.23 479.371,-1206.73 474.929,-1209.05 470.438,-1211.17 465.906,-1213.1 461.337,-1214.83 456.74,-1216.36 452.119,-1217.67 447.478,-1218.77 442.822,-1219.66 438.155,-1220.32 433.48,-1220.76 428.8,-1220.99 424.119,-1220.99 419.44,-1220.76 414.765,-1220.32 410.097,-1219.66 405.442,-1218.77 400.801,-1217.67 396.179,-1216.36 391.582,-1214.83 387.014,-1213.1 382.481,-1211.17 377.99,-1209.05 373.549,-1206.73 369.165,-1204.23 364.847,-1201.56 360.606,-1198.71 356.452,-1195.7 352.397,-1192.54 348.451,-1189.24 344.63,-1185.8 340.944,-1182.23 337.41,-1178.55 334.042,-1174.76 330.853,-1170.88 327.861,-1166.91 325.08,-1162.86 322.526,-1158.76 320.214,-1154.6 318.16,-1150.4 316.378,-1146.17 314.883,-1141.92 313.69,-1137.67 312.81,-1133.42 312.257,-1129.2 312.04,-1125 312.171,-1120.84 312.658,-1116.73 313.508,-1112.69 314.726,-1108.72 316.317,-1104.83 318.282,-1101.04 320.623,-1097.36 323.337,-1093.79 326.421,-1090.35 329.87,-1087.05 333.676,-1083.89 337.83,-1080.88 342.321,-1078.04 347.134,-1075.36 352.256,-1072.86 357.668,-1070.55 363.353,-1068.42 369.289,-1066.49 375.454,-1064.76 381.826,-1063.24 388.379,-1061.92 395.087,-1060.82 401.924,-1059.94 408.862,-1059.27 415.872,-1058.83 422.925,-1058.61 429.994,-1058.61 437.048,-1058.83"/>
<image xlink:href="Images\Microstates\SM21_micro025.svg" width="201px" height="151px" preserveAspectRatio="xMinYMin meet" x="325.96" y="-1215.3"/>
</g>
<!-- SM21_micro021&#45;&gt;SM21_micro025 -->
<g id="edge49" class="edge"><title>SM21_micro021&#45;&gt;SM21_micro025</title>
<path fill="none" stroke="black" d="M698.881,-1299.18C630.199,-1263.07 550.46,-1221.14 550.46,-1221.14 550.46,-1221.14 533.268,-1210 511.686,-1196.02"/>
<polygon fill="black" stroke="black" points="503.227,-1190.54 514.066,-1192.2 507.423,-1193.26 511.619,-1195.98 511.619,-1195.98 511.619,-1195.98 507.423,-1193.26 509.172,-1199.75 503.227,-1190.54 503.227,-1190.54"/>
<text text-anchor="middle" x="645.46" y="-1242.54" font-family="sans bold" font-size="12.00">13.05+/&#45;2.26</text>
</g>
<!-- SM21_micro005&#45;&gt;SM21_micro020 -->
<g id="edge37" class="edge"><title>SM21_micro005&#45;&gt;SM21_micro020</title>
<path fill="none" stroke="black" d="M875.524,-1062.99C863.838,-1043.27 854.46,-1027.45 854.46,-1027.45 854.46,-1027.45 800.46,-1009.45 800.46,-1009.45 800.46,-1009.45 783.268,-998.312 761.686,-984.329"/>
<polygon fill="black" stroke="black" points="753.227,-978.847 764.066,-980.509 757.423,-981.566 761.619,-984.285 761.619,-984.285 761.619,-984.285 757.423,-981.566 759.172,-988.062 753.227,-978.847 753.227,-978.847"/>
<text text-anchor="middle" x="898.96" y="-1030.85" font-family="sans bold" font-size="12.00">16.2+/&#45;1.81</text>
</g>
<!-- SM21_micro005&#45;&gt;SM21_micro003 -->
<g id="edge38" class="edge"><title>SM21_micro005&#45;&gt;SM21_micro003</title>
<path fill="none" stroke="black" d="M955.881,-1061.46C964.584,-1042.46 971.46,-1027.45 971.46,-1027.45 971.46,-1027.45 1046.46,-1009.45 1046.46,-1009.45 1046.46,-1009.45 1063.65,-998.312 1085.23,-984.329"/>
<polygon fill="black" stroke="black" points="1093.69,-978.847 1087.75,-988.062 1089.5,-981.566 1085.3,-984.285 1085.3,-984.285 1085.3,-984.285 1089.5,-981.566 1082.85,-980.509 1093.69,-978.847 1093.69,-978.847"/>
<text text-anchor="middle" x="1010.96" y="-1030.85" font-family="sans bold" font-size="12.00">6.83+/&#45;2.26</text>
</g>
<!-- SM21_micro015&#45;&gt;SM21_micro003 -->
<g id="edge39" class="edge"><title>SM21_micro015&#45;&gt;SM21_micro003</title>
<path fill="none" stroke="black" d="M1168.61,-1058.32C1168.79,-1045.66 1168.98,-1032.49 1169.16,-1019.61"/>
<polygon fill="black" stroke="black" points="1169.31,-1009.36 1173.67,-1019.43 1169.24,-1014.36 1169.17,-1019.36 1169.17,-1019.36 1169.17,-1019.36 1169.24,-1014.36 1164.67,-1019.3 1169.31,-1009.36 1169.31,-1009.36"/>
<text text-anchor="middle" x="1206.96" y="-1030.85" font-family="sans bold" font-size="12.00">9.41+/&#45;2.08</text>
</g>
<!-- SM21_micro015&#45;&gt;SM21_micro006 -->
<g id="edge40" class="edge"><title>SM21_micro015&#45;&gt;SM21_micro006</title>
<path fill="none" stroke="black" d="M1096.37,-1071.14C1071.87,-1047.82 1050.46,-1027.45 1050.46,-1027.45 1050.46,-1027.45 1028.11,-1010.15 1002.16,-990.052"/>
<polygon fill="black" stroke="black" points="994.016,-983.743 1004.68,-986.308 997.969,-986.805 1001.92,-989.866 1001.92,-989.866 1001.92,-989.866 997.969,-986.805 999.167,-993.424 994.016,-983.743 994.016,-983.743"/>
<text text-anchor="middle" x="1100.96" y="-1030.85" font-family="sans bold" font-size="12.00">10.0+/&#45;1.82</text>
</g>
<!-- SM21_micro012&#45;&gt;SM21_micro014 -->
<g id="edge41" class="edge"><title>SM21_micro012&#45;&gt;SM21_micro014</title>
<path fill="none" stroke="black" d="M597.594,-1073.6C567.801,-1047.99 533.702,-1018.69 504.035,-993.196"/>
<polygon fill="black" stroke="black" points="496.194,-986.457 506.711,-989.562 499.986,-989.716 503.778,-992.975 503.778,-992.975 503.778,-992.975 499.986,-989.716 500.845,-996.388 496.194,-986.457 496.194,-986.457"/>
<text text-anchor="middle" x="596.96" y="-1030.85" font-family="sans bold" font-size="12.00">7.54+/&#45;2.26</text>
</g>
<!-- SM21_micro012&#45;&gt;SM21_micro020 -->
<g id="edge42" class="edge"><title>SM21_micro012&#45;&gt;SM21_micro020</title>
<path fill="none" stroke="black" d="M674.181,-1058.47C674.339,-1040.91 674.46,-1027.45 674.46,-1027.45 674.46,-1027.45 674.521,-1024.43 674.622,-1019.46"/>
<polygon fill="black" stroke="black" points="674.826,-1009.41 679.122,-1019.5 674.725,-1014.41 674.623,-1019.41 674.623,-1019.41 674.623,-1019.41 674.725,-1014.41 670.124,-1019.32 674.826,-1009.41 674.826,-1009.41"/>
<text text-anchor="middle" x="716.46" y="-1030.85" font-family="sans bold" font-size="12.00">12.16+/&#45;2.16</text>
</g>
<!-- SM21_micro012&#45;&gt;SM21_micro006 -->
<g id="edge43" class="edge"><title>SM21_micro012&#45;&gt;SM21_micro006</title>
<path fill="none" stroke="black" d="M737.768,-1068.6C758.137,-1046.36 775.46,-1027.45 775.46,-1027.45 775.46,-1027.45 805.688,-1007.37 838.822,-985.348"/>
<polygon fill="black" stroke="black" points="847.292,-979.719 841.454,-989.002 843.128,-982.487 838.963,-985.254 838.963,-985.254 838.963,-985.254 843.128,-982.487 836.473,-981.506 847.292,-979.719 847.292,-979.719"/>
<text text-anchor="middle" x="813.96" y="-1030.85" font-family="sans bold" font-size="12.00">7.31+/&#45;2.26</text>
</g>
<!-- SM21_micro025&#45;&gt;SM21_micro014 -->
<g id="edge44" class="edge"><title>SM21_micro025&#45;&gt;SM21_micro014</title>
<path fill="none" stroke="black" d="M427.611,-1058.32C427.792,-1045.66 427.981,-1032.49 428.165,-1019.61"/>
<polygon fill="black" stroke="black" points="428.311,-1009.36 432.668,-1019.43 428.24,-1014.36 428.168,-1019.36 428.168,-1019.36 428.168,-1019.36 428.24,-1014.36 423.669,-1019.3 428.311,-1009.36 428.311,-1009.36"/>
<text text-anchor="middle" x="469.46" y="-1030.85" font-family="sans bold" font-size="12.00">11.81+/&#45;1.82</text>
</g>
<!-- SM21_micro025&#45;&gt;SM21_micro018 -->
<g id="edge45" class="edge"><title>SM21_micro025&#45;&gt;SM21_micro018</title>
<path fill="none" stroke="black" d="M350.594,-1073.6C320.801,-1047.99 286.702,-1018.69 257.035,-993.196"/>
<polygon fill="black" stroke="black" points="249.194,-986.457 259.711,-989.562 252.986,-989.716 256.778,-992.975 256.778,-992.975 256.778,-992.975 252.986,-989.716 253.845,-996.388 249.194,-986.457 249.194,-986.457"/>
<text text-anchor="middle" x="353.46" y="-1030.85" font-family="sans bold" font-size="12.00">12.74+/&#45;2.11</text>
</g>
</g>
</svg>
