<?xml version="1.0" encoding="utf-8" standalone="no"?>
<!DOCTYPE svg PUBLIC "-//W3C//DTD SVG 1.1//EN"
  "http://www.w3.org/Graphics/SVG/1.1/DTD/svg11.dtd">
<!-- Created with matplotlib (http://matplotlib.org/) -->
<svg height="144pt" version="1.1" viewBox="0 0 144 144" width="144pt" xmlns="http://www.w3.org/2000/svg" xmlns:xlink="http://www.w3.org/1999/xlink">
 <defs>
  <style type="text/css">
*{stroke-linecap:butt;stroke-linejoin:round;}
  </style>
 </defs>
 <g id="figure_1">
  <g id="patch_1">
   <path d="M 0 144 
L 144 144 
L 144 0 
L 0 0 
z
" style="fill:#ffffff;"/>
  </g>
  <g id="axes_1">
   <g id="patch_2">
    <path d="M 41.96 101.92 
L 130.44 101.92 
L 130.44 27.48 
L 41.96 27.48 
z
" style="fill:#ffffff;"/>
   </g>
   <g id="matplotlib.axis_1">
    <g id="xtick_1">
     <g id="line2d_1">
      <defs>
       <path d="M 0 0 
L 0 3.5 
" id="m22dd59f3a6" style="stroke:#262626;stroke-width:0.8;"/>
      </defs>
      <g>
       <use style="fill:#262626;stroke:#262626;stroke-width:0.8;" x="45.981818" xlink:href="#m22dd59f3a6" y="101.92"/>
      </g>
     </g>
     <g id="text_1">
      <!-- 2 -->
      <defs>
       <path d="M 50.34375 8.453125 
L 50.34375 0 
L 3.03125 0 
Q 2.9375 3.171875 4.046875 6.109375 
Q 5.859375 10.9375 9.828125 15.625 
Q 13.8125 20.3125 21.34375 26.46875 
Q 33.015625 36.03125 37.109375 41.625 
Q 41.21875 47.21875 41.21875 52.203125 
Q 41.21875 57.421875 37.46875 61 
Q 33.734375 64.59375 27.734375 64.59375 
Q 21.390625 64.59375 17.578125 60.78125 
Q 13.765625 56.984375 13.71875 50.25 
L 4.6875 51.171875 
Q 5.609375 61.28125 11.65625 66.578125 
Q 17.71875 71.875 27.9375 71.875 
Q 38.234375 71.875 44.234375 66.15625 
Q 50.25 60.453125 50.25 52 
Q 50.25 47.703125 48.484375 43.546875 
Q 46.734375 39.40625 42.65625 34.8125 
Q 38.578125 30.21875 29.109375 22.21875 
Q 21.1875 15.578125 18.9375 13.203125 
Q 16.703125 10.84375 15.234375 8.453125 
z
" id="ArialMT-32"/>
      </defs>
      <g style="fill:#262626;" transform="translate(42.923303 116.793594)scale(0.11 -0.11)">
       <use xlink:href="#ArialMT-32"/>
      </g>
     </g>
    </g>
    <g id="xtick_2">
     <g id="line2d_2">
      <g>
       <use style="fill:#262626;stroke:#262626;stroke-width:0.8;" x="62.069091" xlink:href="#m22dd59f3a6" y="101.92"/>
      </g>
     </g>
     <g id="text_2">
      <!-- 4 -->
      <defs>
       <path d="M 32.328125 0 
L 32.328125 17.140625 
L 1.265625 17.140625 
L 1.265625 25.203125 
L 33.9375 71.578125 
L 41.109375 71.578125 
L 41.109375 25.203125 
L 50.78125 25.203125 
L 50.78125 17.140625 
L 41.109375 17.140625 
L 41.109375 0 
z
M 32.328125 25.203125 
L 32.328125 57.46875 
L 9.90625 25.203125 
z
" id="ArialMT-34"/>
      </defs>
      <g style="fill:#262626;" transform="translate(59.010575 116.793594)scale(0.11 -0.11)">
       <use xlink:href="#ArialMT-34"/>
      </g>
     </g>
    </g>
    <g id="xtick_3">
     <g id="line2d_3">
      <g>
       <use style="fill:#262626;stroke:#262626;stroke-width:0.8;" x="78.156364" xlink:href="#m22dd59f3a6" y="101.92"/>
      </g>
     </g>
     <g id="text_3">
      <!-- 6 -->
      <defs>
       <path d="M 49.75 54.046875 
L 41.015625 53.375 
Q 39.84375 58.546875 37.703125 60.890625 
Q 34.125 64.65625 28.90625 64.65625 
Q 24.703125 64.65625 21.53125 62.3125 
Q 17.390625 59.28125 14.984375 53.46875 
Q 12.59375 47.65625 12.5 36.921875 
Q 15.671875 41.75 20.265625 44.09375 
Q 24.859375 46.4375 29.890625 46.4375 
Q 38.671875 46.4375 44.84375 39.96875 
Q 51.03125 33.5 51.03125 23.25 
Q 51.03125 16.5 48.125 10.71875 
Q 45.21875 4.9375 40.140625 1.859375 
Q 35.0625 -1.21875 28.609375 -1.21875 
Q 17.625 -1.21875 10.6875 6.859375 
Q 3.765625 14.9375 3.765625 33.5 
Q 3.765625 54.25 11.421875 63.671875 
Q 18.109375 71.875 29.4375 71.875 
Q 37.890625 71.875 43.28125 67.140625 
Q 48.6875 62.40625 49.75 54.046875 
z
M 13.875 23.1875 
Q 13.875 18.65625 15.796875 14.5 
Q 17.71875 10.359375 21.1875 8.171875 
Q 24.65625 6 28.46875 6 
Q 34.03125 6 38.03125 10.484375 
Q 42.046875 14.984375 42.046875 22.703125 
Q 42.046875 30.125 38.078125 34.390625 
Q 34.125 38.671875 28.125 38.671875 
Q 22.171875 38.671875 18.015625 34.390625 
Q 13.875 30.125 13.875 23.1875 
z
" id="ArialMT-36"/>
      </defs>
      <g style="fill:#262626;" transform="translate(75.097848 116.793594)scale(0.11 -0.11)">
       <use xlink:href="#ArialMT-36"/>
      </g>
     </g>
    </g>
    <g id="xtick_4">
     <g id="line2d_4">
      <g>
       <use style="fill:#262626;stroke:#262626;stroke-width:0.8;" x="94.243636" xlink:href="#m22dd59f3a6" y="101.92"/>
      </g>
     </g>
     <g id="text_4">
      <!-- 8 -->
      <defs>
       <path d="M 17.671875 38.8125 
Q 12.203125 40.828125 9.5625 44.53125 
Q 6.9375 48.25 6.9375 53.421875 
Q 6.9375 61.234375 12.546875 66.546875 
Q 18.171875 71.875 27.484375 71.875 
Q 36.859375 71.875 42.578125 66.421875 
Q 48.296875 60.984375 48.296875 53.171875 
Q 48.296875 48.1875 45.671875 44.5 
Q 43.0625 40.828125 37.75 38.8125 
Q 44.34375 36.671875 47.78125 31.875 
Q 51.21875 27.09375 51.21875 20.453125 
Q 51.21875 11.28125 44.71875 5.03125 
Q 38.234375 -1.21875 27.640625 -1.21875 
Q 17.046875 -1.21875 10.546875 5.046875 
Q 4.046875 11.328125 4.046875 20.703125 
Q 4.046875 27.6875 7.59375 32.390625 
Q 11.140625 37.109375 17.671875 38.8125 
z
M 15.921875 53.71875 
Q 15.921875 48.640625 19.1875 45.40625 
Q 22.46875 42.1875 27.6875 42.1875 
Q 32.765625 42.1875 36.015625 45.375 
Q 39.265625 48.578125 39.265625 53.21875 
Q 39.265625 58.0625 35.90625 61.359375 
Q 32.5625 64.65625 27.59375 64.65625 
Q 22.5625 64.65625 19.234375 61.421875 
Q 15.921875 58.203125 15.921875 53.71875 
z
M 13.09375 20.65625 
Q 13.09375 16.890625 14.875 13.375 
Q 16.65625 9.859375 20.171875 7.921875 
Q 23.6875 6 27.734375 6 
Q 34.03125 6 38.125 10.046875 
Q 42.234375 14.109375 42.234375 20.359375 
Q 42.234375 26.703125 38.015625 30.859375 
Q 33.796875 35.015625 27.4375 35.015625 
Q 21.234375 35.015625 17.15625 30.90625 
Q 13.09375 26.8125 13.09375 20.65625 
z
" id="ArialMT-38"/>
      </defs>
      <g style="fill:#262626;" transform="translate(91.185121 116.793594)scale(0.11 -0.11)">
       <use xlink:href="#ArialMT-38"/>
      </g>
     </g>
    </g>
    <g id="xtick_5">
     <g id="line2d_5">
      <g>
       <use style="fill:#262626;stroke:#262626;stroke-width:0.8;" x="110.330909" xlink:href="#m22dd59f3a6" y="101.92"/>
      </g>
     </g>
     <g id="text_5">
      <!-- 10 -->
      <defs>
       <path d="M 37.25 0 
L 28.46875 0 
L 28.46875 56 
Q 25.296875 52.984375 20.140625 49.953125 
Q 14.984375 46.921875 10.890625 45.40625 
L 10.890625 53.90625 
Q 18.265625 57.375 23.78125 62.296875 
Q 29.296875 67.234375 31.59375 71.875 
L 37.25 71.875 
z
" id="ArialMT-31"/>
       <path d="M 4.15625 35.296875 
Q 4.15625 48 6.765625 55.734375 
Q 9.375 63.484375 14.515625 67.671875 
Q 19.671875 71.875 27.484375 71.875 
Q 33.25 71.875 37.59375 69.546875 
Q 41.9375 67.234375 44.765625 62.859375 
Q 47.609375 58.5 49.21875 52.21875 
Q 50.828125 45.953125 50.828125 35.296875 
Q 50.828125 22.703125 48.234375 14.96875 
Q 45.65625 7.234375 40.5 3 
Q 35.359375 -1.21875 27.484375 -1.21875 
Q 17.140625 -1.21875 11.234375 6.203125 
Q 4.15625 15.140625 4.15625 35.296875 
z
M 13.1875 35.296875 
Q 13.1875 17.671875 17.3125 11.828125 
Q 21.4375 6 27.484375 6 
Q 33.546875 6 37.671875 11.859375 
Q 41.796875 17.71875 41.796875 35.296875 
Q 41.796875 52.984375 37.671875 58.78125 
Q 33.546875 64.59375 27.390625 64.59375 
Q 21.34375 64.59375 17.71875 59.46875 
Q 13.1875 52.9375 13.1875 35.296875 
z
" id="ArialMT-30"/>
      </defs>
      <g style="fill:#262626;" transform="translate(104.213878 116.793594)scale(0.11 -0.11)">
       <use xlink:href="#ArialMT-31"/>
       <use x="55.615234" xlink:href="#ArialMT-30"/>
      </g>
     </g>
    </g>
    <g id="xtick_6">
     <g id="line2d_6">
      <g>
       <use style="fill:#262626;stroke:#262626;stroke-width:0.8;" x="126.418182" xlink:href="#m22dd59f3a6" y="101.92"/>
      </g>
     </g>
     <g id="text_6">
      <!-- 12 -->
      <g style="fill:#262626;" transform="translate(120.301151 116.793594)scale(0.11 -0.11)">
       <use xlink:href="#ArialMT-31"/>
       <use x="55.615234" xlink:href="#ArialMT-32"/>
      </g>
     </g>
    </g>
    <g id="text_7">
     <!-- pH -->
     <defs>
      <path d="M 6.59375 -19.875 
L 6.59375 51.859375 
L 14.59375 51.859375 
L 14.59375 45.125 
Q 17.4375 49.078125 21 51.046875 
Q 24.5625 53.03125 29.640625 53.03125 
Q 36.28125 53.03125 41.359375 49.609375 
Q 46.4375 46.1875 49.015625 39.953125 
Q 51.609375 33.734375 51.609375 26.3125 
Q 51.609375 18.359375 48.75 11.984375 
Q 45.90625 5.609375 40.453125 2.21875 
Q 35.015625 -1.171875 29 -1.171875 
Q 24.609375 -1.171875 21.109375 0.6875 
Q 17.625 2.546875 15.375 5.375 
L 15.375 -19.875 
z
M 14.546875 25.640625 
Q 14.546875 15.625 18.59375 10.84375 
Q 22.65625 6.0625 28.421875 6.0625 
Q 34.28125 6.0625 38.453125 11.015625 
Q 42.625 15.96875 42.625 26.375 
Q 42.625 36.28125 38.546875 41.203125 
Q 34.46875 46.140625 28.8125 46.140625 
Q 23.1875 46.140625 18.859375 40.890625 
Q 14.546875 35.640625 14.546875 25.640625 
z
" id="ArialMT-70"/>
      <path d="M 8.015625 0 
L 8.015625 71.578125 
L 17.484375 71.578125 
L 17.484375 42.1875 
L 54.6875 42.1875 
L 54.6875 71.578125 
L 64.15625 71.578125 
L 64.15625 0 
L 54.6875 0 
L 54.6875 33.734375 
L 17.484375 33.734375 
L 17.484375 0 
z
" id="ArialMT-48"/>
     </defs>
     <g style="fill:#262626;" transform="translate(79.169453 130.853437)scale(0.11 -0.11)">
      <use xlink:href="#ArialMT-70"/>
      <use x="55.615234" xlink:href="#ArialMT-48"/>
     </g>
    </g>
   </g>
   <g id="matplotlib.axis_2">
    <g id="ytick_1">
     <g id="line2d_7">
      <defs>
       <path d="M 0 0 
L -3.5 0 
" id="m2c58badd17" style="stroke:#262626;stroke-width:0.8;"/>
      </defs>
      <g>
       <use style="fill:#262626;stroke:#262626;stroke-width:0.8;" x="41.96" xlink:href="#m2c58badd17" y="95.625554"/>
      </g>
     </g>
     <g id="text_8">
      <!-- 0 -->
      <g style="fill:#262626;" transform="translate(28.842969 99.562351)scale(0.11 -0.11)">
       <use xlink:href="#ArialMT-30"/>
      </g>
     </g>
    </g>
    <g id="ytick_2">
     <g id="line2d_8">
      <g>
       <use style="fill:#262626;stroke:#262626;stroke-width:0.8;" x="41.96" xlink:href="#m2c58badd17" y="30.857141"/>
      </g>
     </g>
     <g id="text_9">
      <!-- 1 -->
      <g style="fill:#262626;" transform="translate(28.842969 34.793938)scale(0.11 -0.11)">
       <use xlink:href="#ArialMT-31"/>
      </g>
     </g>
    </g>
    <g id="text_10">
     <!-- $\langle q_\mathsf{total} \rangle$ -->
     <defs>
      <path d="M 8.9375 31.34375 
L 22.703125 75.875 
L 31 75.875 
L 17.234375 31.34375 
L 31 -13.1875 
L 22.703125 -13.1875 
z
" id="DejaVuSans-27e8"/>
      <path d="M 41.703125 8.203125 
Q 38.09375 3.46875 33.171875 1.015625 
Q 28.265625 -1.421875 22.3125 -1.421875 
Q 14.015625 -1.421875 9.296875 4.171875 
Q 4.59375 9.765625 4.59375 19.578125 
Q 4.59375 27.484375 7.5 34.859375 
Q 10.40625 42.234375 15.828125 48.09375 
Q 19.34375 51.90625 23.90625 53.953125 
Q 28.46875 56 33.5 56 
Q 39.546875 56 43.453125 53.609375 
Q 47.359375 51.21875 49.125 46.390625 
L 50.6875 54.59375 
L 59.71875 54.59375 
L 45.125 -20.609375 
L 36.078125 -20.609375 
z
M 13.921875 20.90625 
Q 13.921875 13.671875 16.9375 9.890625 
Q 19.96875 6.109375 25.6875 6.109375 
Q 34.1875 6.109375 40.1875 14.234375 
Q 46.1875 22.359375 46.1875 33.984375 
Q 46.1875 41.015625 43.078125 44.75 
Q 39.984375 48.484375 34.1875 48.484375 
Q 29.9375 48.484375 26.3125 46.5 
Q 22.703125 44.53125 20.015625 40.71875 
Q 17.1875 36.71875 15.546875 31.34375 
Q 13.921875 25.984375 13.921875 20.90625 
z
" id="DejaVuSans-Oblique-71"/>
      <path d="M 18.3125 70.21875 
L 18.3125 54.6875 
L 36.8125 54.6875 
L 36.8125 47.703125 
L 18.3125 47.703125 
L 18.3125 18.015625 
Q 18.3125 11.328125 20.140625 9.421875 
Q 21.96875 7.515625 27.59375 7.515625 
L 36.8125 7.515625 
L 36.8125 0 
L 27.59375 0 
Q 17.1875 0 13.234375 3.875 
Q 9.28125 7.765625 9.28125 18.015625 
L 9.28125 47.703125 
L 2.6875 47.703125 
L 2.6875 54.6875 
L 9.28125 54.6875 
L 9.28125 70.21875 
z
" id="DejaVuSans-74"/>
      <path d="M 30.609375 48.390625 
Q 23.390625 48.390625 19.1875 42.75 
Q 14.984375 37.109375 14.984375 27.296875 
Q 14.984375 17.484375 19.15625 11.84375 
Q 23.34375 6.203125 30.609375 6.203125 
Q 37.796875 6.203125 41.984375 11.859375 
Q 46.1875 17.53125 46.1875 27.296875 
Q 46.1875 37.015625 41.984375 42.703125 
Q 37.796875 48.390625 30.609375 48.390625 
z
M 30.609375 56 
Q 42.328125 56 49.015625 48.375 
Q 55.71875 40.765625 55.71875 27.296875 
Q 55.71875 13.875 49.015625 6.21875 
Q 42.328125 -1.421875 30.609375 -1.421875 
Q 18.84375 -1.421875 12.171875 6.21875 
Q 5.515625 13.875 5.515625 27.296875 
Q 5.515625 40.765625 12.171875 48.375 
Q 18.84375 56 30.609375 56 
z
" id="DejaVuSans-6f"/>
      <path d="M 34.28125 27.484375 
Q 23.390625 27.484375 19.1875 25 
Q 14.984375 22.515625 14.984375 16.5 
Q 14.984375 11.71875 18.140625 8.90625 
Q 21.296875 6.109375 26.703125 6.109375 
Q 34.1875 6.109375 38.703125 11.40625 
Q 43.21875 16.703125 43.21875 25.484375 
L 43.21875 27.484375 
z
M 52.203125 31.203125 
L 52.203125 0 
L 43.21875 0 
L 43.21875 8.296875 
Q 40.140625 3.328125 35.546875 0.953125 
Q 30.953125 -1.421875 24.3125 -1.421875 
Q 15.921875 -1.421875 10.953125 3.296875 
Q 6 8.015625 6 15.921875 
Q 6 25.140625 12.171875 29.828125 
Q 18.359375 34.515625 30.609375 34.515625 
L 43.21875 34.515625 
L 43.21875 35.40625 
Q 43.21875 41.609375 39.140625 45 
Q 35.0625 48.390625 27.6875 48.390625 
Q 23 48.390625 18.546875 47.265625 
Q 14.109375 46.140625 10.015625 43.890625 
L 10.015625 52.203125 
Q 14.9375 54.109375 19.578125 55.046875 
Q 24.21875 56 28.609375 56 
Q 40.484375 56 46.34375 49.84375 
Q 52.203125 43.703125 52.203125 31.203125 
z
" id="DejaVuSans-61"/>
      <path d="M 9.421875 75.984375 
L 18.40625 75.984375 
L 18.40625 0 
L 9.421875 0 
z
" id="DejaVuSans-6c"/>
      <path d="M 30.078125 31.34375 
L 16.3125 -13.1875 
L 8.015625 -13.1875 
L 21.78125 31.34375 
L 8.015625 75.875 
L 16.3125 75.875 
z
" id="DejaVuSans-27e9"/>
     </defs>
     <g style="fill:#262626;" transform="translate(22.532969 81.475)rotate(-90)scale(0.11 -0.11)">
      <use transform="translate(0 0.125)" xlink:href="#DejaVuSans-27e8"/>
      <use transform="translate(39.013672 0.125)" xlink:href="#DejaVuSans-Oblique-71"/>
      <use transform="translate(102.490234 -16.28125)scale(0.7)" xlink:href="#DejaVuSans-74"/>
      <use transform="translate(129.936523 -16.28125)scale(0.7)" xlink:href="#DejaVuSans-6f"/>
      <use transform="translate(172.763672 -16.28125)scale(0.7)" xlink:href="#DejaVuSans-74"/>
      <use transform="translate(200.209961 -16.28125)scale(0.7)" xlink:href="#DejaVuSans-61"/>
      <use transform="translate(243.105469 -16.28125)scale(0.7)" xlink:href="#DejaVuSans-6c"/>
      <use transform="translate(265.288086 0.125)" xlink:href="#DejaVuSans-27e9"/>
     </g>
    </g>
   </g>
   <g id="PolyCollection_1">
    <defs>
     <path d="M 45.981818 -113.119886 
L 45.981818 -113.119886 
L 46.786182 -113.113941 
L 47.590545 -113.106457 
L 48.394909 -113.097039 
L 49.199273 -113.085185 
L 50.003636 -113.070269 
L 50.808 -113.0515 
L 51.612364 -113.027887 
L 52.416727 -112.998184 
L 53.221091 -112.96083 
L 54.025455 -112.913864 
L 54.829818 -112.854835 
L 55.634182 -112.780676 
L 56.438545 -112.687557 
L 57.242909 -112.570709 
L 58.047273 -112.424209 
L 58.851636 -112.240724 
L 59.656 -112.011219 
L 60.460364 -111.724625 
L 61.264727 -111.367474 
L 62.069091 -110.923533 
L 62.873455 -110.373464 
L 63.677818 -109.694574 
L 64.482182 -108.860756 
L 65.286545 -107.842741 
L 66.090909 -106.608851 
L 66.895273 -105.126428 
L 67.699636 -103.364152 
L 68.504 -101.295345 
L 69.308364 -98.902202 
L 70.112727 -96.180596 
L 70.917091 -93.144714 
L 71.721455 -89.83044 
L 72.525818 -86.296266 
L 73.330182 -82.620781 
L 74.134545 -78.896524 
L 74.938909 -75.221039 
L 75.743273 -71.686865 
L 76.547636 -68.37259 
L 77.352 -65.336708 
L 78.156364 -62.615102 
L 78.960727 -60.221959 
L 79.765091 -58.153152 
L 80.569455 -56.390876 
L 81.373818 -54.908454 
L 82.178182 -53.674563 
L 82.982545 -52.656549 
L 83.786909 -51.82273 
L 84.591273 -51.14384 
L 85.395636 -50.593771 
L 86.2 -50.149831 
L 87.004364 -49.79268 
L 87.808727 -49.506085 
L 88.613091 -49.276581 
L 89.417455 -49.093096 
L 90.221818 -48.946596 
L 91.026182 -48.829748 
L 91.830545 -48.736629 
L 92.634909 -48.662469 
L 93.439273 -48.60344 
L 94.243636 -48.556475 
L 95.048 -48.51912 
L 95.852364 -48.489418 
L 96.656727 -48.465805 
L 97.461091 -48.447036 
L 98.265455 -48.432119 
L 99.069818 -48.420266 
L 99.874182 -48.410847 
L 100.678545 -48.403364 
L 101.482909 -48.397418 
L 102.287273 -48.392695 
L 103.091636 -48.388942 
L 103.896 -48.385961 
L 104.700364 -48.383593 
L 105.504727 -48.381712 
L 106.309091 -48.380218 
L 107.113455 -48.379031 
L 107.917818 -48.378088 
L 108.722182 -48.377339 
L 109.526545 -48.376744 
L 110.330909 -48.376271 
L 111.135273 -48.375896 
L 111.939636 -48.375598 
L 112.744 -48.375361 
L 113.548364 -48.375173 
L 114.352727 -48.375023 
L 115.157091 -48.374904 
L 115.961455 -48.37481 
L 116.765818 -48.374735 
L 117.570182 -48.374676 
L 118.374545 -48.374628 
L 119.178909 -48.374591 
L 119.983273 -48.374561 
L 120.787636 -48.374537 
L 121.592 -48.374518 
L 122.396364 -48.374504 
L 123.200727 -48.374492 
L 124.005091 -48.374482 
L 124.809455 -48.374475 
L 125.613818 -48.374469 
L 126.418182 -48.374464 
L 126.418182 -48.374464 
L 126.418182 -45.463636 
L 125.613818 -46.040766 
L 124.809455 -46.506935 
L 124.005091 -46.882226 
L 123.200727 -47.183549 
L 122.396364 -47.424966 
L 121.592 -47.618061 
L 120.787636 -47.7723 
L 119.983273 -47.895377 
L 119.178909 -47.993517 
L 118.374545 -48.071734 
L 117.570182 -48.134061 
L 116.765818 -48.183732 
L 115.961455 -48.223339 
L 115.157091 -48.254958 
L 114.352727 -48.28025 
L 113.548364 -48.300548 
L 112.744 -48.316927 
L 111.939636 -48.330251 
L 111.135273 -48.341228 
L 110.330909 -48.350439 
L 109.526545 -48.358374 
L 108.722182 -48.365455 
L 107.917818 -48.372057 
L 107.113455 -48.378532 
L 106.309091 -48.385225 
L 105.504727 -48.392491 
L 104.700364 -48.400716 
L 103.896 -48.410337 
L 103.091636 -48.421866 
L 102.287273 -48.435914 
L 101.482909 -48.453225 
L 100.678545 -48.474714 
L 99.874182 -48.501517 
L 99.069818 -48.535045 
L 98.265455 -48.577061 
L 97.461091 -48.629762 
L 96.656727 -48.695896 
L 95.852364 -48.778889 
L 95.048 -48.88301 
L 94.243636 -49.013567 
L 93.439273 -49.177141 
L 92.634909 -49.381858 
L 91.830545 -49.637702 
L 91.026182 -49.956869 
L 90.221818 -50.35413 
L 89.417455 -50.847194 
L 88.613091 -51.457013 
L 87.808727 -52.207954 
L 87.004364 -53.127723 
L 86.2 -54.246893 
L 85.395636 -55.597853 
L 84.591273 -57.212956 
L 83.786909 -59.121736 
L 82.982545 -61.347122 
L 82.178182 -63.900866 
L 81.373818 -66.7787 
L 80.569455 -69.956159 
L 79.765091 -73.386259 
L 78.960727 -77.000168 
L 78.156364 -80.711526 
L 77.352 -84.424121 
L 76.547636 -88.041617 
L 75.743273 -91.477297 
L 74.938909 -94.661816 
L 74.134545 -97.547615 
L 73.330182 -100.10968 
L 72.525818 -102.343277 
L 71.721455 -104.25981 
L 70.917091 -105.881987 
L 70.112727 -107.239224 
L 69.308364 -108.363843 
L 68.504 -109.288255 
L 67.699636 -110.043096 
L 66.895273 -110.656153 
L 66.090909 -111.151876 
L 65.286545 -111.551303 
L 64.482182 -111.872219 
L 63.677818 -112.129465 
L 62.873455 -112.335292 
L 62.069091 -112.499737 
L 61.264727 -112.630963 
L 60.460364 -112.735584 
L 59.656 -112.81893 
L 58.851636 -112.885288 
L 58.047273 -112.938095 
L 57.242909 -112.980104 
L 56.438545 -113.013511 
L 55.634182 -113.040072 
L 54.829818 -113.061186 
L 54.025455 -113.077967 
L 53.221091 -113.091302 
L 52.416727 -113.101899 
L 51.612364 -113.110319 
L 50.808 -113.117009 
L 50.003636 -113.122324 
L 49.199273 -113.126546 
L 48.394909 -113.129901 
L 47.590545 -113.132565 
L 46.786182 -113.134682 
L 45.981818 -113.136364 
z
" id="mdc0128fd72" style="stroke:#ffffff;stroke-opacity:0.7;"/>
    </defs>
    <g clip-path="url(#p2f3579419f)">
     <use style="fill:#b1400d;fill-opacity:0.7;stroke:#ffffff;stroke-opacity:0.7;" x="0" xlink:href="#mdc0128fd72" y="144"/>
    </g>
   </g>
   <g id="line2d_9">
    <path clip-path="url(#p2f3579419f)" d="M 45.981818 30.880114 
L 46.786182 30.886059 
L 47.590545 30.893543 
L 48.394909 30.902961 
L 49.199273 30.914815 
L 50.003636 30.929731 
L 50.808 30.9485 
L 51.612364 30.972113 
L 52.416727 31.001816 
L 53.221091 31.03917 
L 54.025455 31.086136 
L 54.829818 31.145165 
L 55.634182 31.219324 
L 56.438545 31.312443 
L 57.242909 31.429291 
L 58.047273 31.575791 
L 58.851636 31.759276 
L 59.656 31.988781 
L 60.460364 32.275375 
L 61.264727 32.632526 
L 62.069091 33.076467 
L 62.873455 33.626536 
L 63.677818 34.305426 
L 64.482182 35.139244 
L 65.286545 36.157259 
L 66.090909 37.391149 
L 66.895273 38.873572 
L 67.699636 40.635848 
L 68.504 42.704655 
L 69.308364 45.097798 
L 70.112727 47.819404 
L 70.917091 50.855286 
L 71.721455 54.16956 
L 72.525818 57.703734 
L 73.330182 61.379219 
L 74.134545 65.103476 
L 74.938909 68.778961 
L 75.743273 72.313135 
L 76.547636 75.62741 
L 77.352 78.663292 
L 78.156364 81.384898 
L 78.960727 83.778041 
L 79.765091 85.846848 
L 80.569455 87.609124 
L 81.373818 89.091546 
L 82.178182 90.325437 
L 82.982545 91.343451 
L 83.786909 92.17727 
L 84.591273 92.85616 
L 85.395636 93.406229 
L 86.2 93.850169 
L 87.004364 94.20732 
L 87.808727 94.493915 
L 88.613091 94.723419 
L 89.417455 94.906904 
L 90.221818 95.053404 
L 91.026182 95.170252 
L 91.830545 95.263371 
L 92.634909 95.337531 
L 93.439273 95.39656 
L 94.243636 95.443525 
L 95.048 95.48088 
L 95.852364 95.510582 
L 96.656727 95.534195 
L 97.461091 95.552964 
L 98.265455 95.567881 
L 99.069818 95.579734 
L 99.874182 95.589153 
L 100.678545 95.596636 
L 101.482909 95.602582 
L 102.287273 95.607305 
L 103.091636 95.611058 
L 103.896 95.614039 
L 104.700364 95.616407 
L 105.504727 95.618288 
L 106.309091 95.619782 
L 107.113455 95.620969 
L 107.917818 95.621912 
L 108.722182 95.622661 
L 109.526545 95.623256 
L 110.330909 95.623729 
L 111.135273 95.624104 
L 111.939636 95.624402 
L 112.744 95.624639 
L 113.548364 95.624827 
L 114.352727 95.624977 
L 115.157091 95.625096 
L 115.961455 95.62519 
L 116.765818 95.625265 
L 117.570182 95.625324 
L 118.374545 95.625372 
L 119.178909 95.625409 
L 119.983273 95.625439 
L 120.787636 95.625463 
L 121.592 95.625482 
L 122.396364 95.625496 
L 123.200727 95.625508 
L 124.005091 95.625518 
L 124.809455 95.625525 
L 125.613818 95.625531 
L 126.418182 95.625536 
" style="fill:none;stroke:#333333;stroke-dasharray:1.5,2.475;stroke-dashoffset:0;stroke-width:1.5;"/>
   </g>
   <g id="line2d_10">
    <path clip-path="url(#p2f3579419f)" d="M 45.981818 30.863636 
L 46.786182 30.865318 
L 47.590545 30.867435 
L 48.394909 30.870099 
L 49.199273 30.873454 
L 50.003636 30.877676 
L 50.808 30.882991 
L 51.612364 30.889681 
L 52.416727 30.898101 
L 53.221091 30.908698 
L 54.025455 30.922033 
L 54.829818 30.938814 
L 55.634182 30.959928 
L 56.438545 30.986489 
L 57.242909 31.019896 
L 58.047273 31.061905 
L 58.851636 31.114712 
L 59.656 31.18107 
L 60.460364 31.264416 
L 61.264727 31.369037 
L 62.069091 31.500263 
L 62.873455 31.664708 
L 63.677818 31.870535 
L 64.482182 32.127781 
L 65.286545 32.448697 
L 66.090909 32.848124 
L 66.895273 33.343847 
L 67.699636 33.956904 
L 68.504 34.711745 
L 69.308364 35.636157 
L 70.112727 36.760776 
L 70.917091 38.118013 
L 71.721455 39.74019 
L 72.525818 41.656723 
L 73.330182 43.89032 
L 74.134545 46.452385 
L 74.938909 49.338184 
L 75.743273 52.522703 
L 76.547636 55.958383 
L 77.352 59.575879 
L 78.156364 63.288474 
L 78.960727 66.999832 
L 79.765091 70.613741 
L 80.569455 74.043841 
L 81.373818 77.2213 
L 82.178182 80.099134 
L 82.982545 82.652878 
L 83.786909 84.878264 
L 84.591273 86.787044 
L 85.395636 88.402147 
L 86.2 89.753107 
L 87.004364 90.872277 
L 87.808727 91.792046 
L 88.613091 92.542987 
L 89.417455 93.152806 
L 90.221818 93.64587 
L 91.026182 94.043131 
L 91.830545 94.362298 
L 92.634909 94.618142 
L 93.439273 94.822859 
L 94.243636 94.986433 
L 95.048 95.11699 
L 95.852364 95.221111 
L 96.656727 95.304104 
L 97.461091 95.370238 
L 98.265455 95.422939 
L 99.069818 95.464955 
L 99.874182 95.498483 
L 100.678545 95.525286 
L 101.482909 95.546775 
L 102.287273 95.564086 
L 103.091636 95.578134 
L 103.896 95.589663 
L 104.700364 95.599284 
L 105.504727 95.607509 
L 106.309091 95.614775 
L 107.113455 95.621468 
L 107.917818 95.627943 
L 108.722182 95.634545 
L 109.526545 95.641626 
L 110.330909 95.649561 
L 111.135273 95.658772 
L 111.939636 95.669749 
L 112.744 95.683073 
L 113.548364 95.699452 
L 114.352727 95.71975 
L 115.157091 95.745042 
L 115.961455 95.776661 
L 116.765818 95.816268 
L 117.570182 95.865939 
L 118.374545 95.928266 
L 119.178909 96.006483 
L 119.983273 96.104623 
L 120.787636 96.2277 
L 121.592 96.381939 
L 122.396364 96.575034 
L 123.200727 96.816451 
L 124.005091 97.117774 
L 124.809455 97.493065 
L 125.613818 97.959234 
L 126.418182 98.536364 
" style="fill:none;stroke:#333333;stroke-linecap:round;stroke-width:1.5;"/>
   </g>
   <g id="patch_3">
    <path d="M 41.96 101.92 
L 41.96 27.48 
" style="fill:none;stroke:#262626;stroke-linecap:square;stroke-linejoin:miter;stroke-width:0.8;"/>
   </g>
   <g id="patch_4">
    <path d="M 41.96 101.92 
L 130.44 101.92 
" style="fill:none;stroke:#262626;stroke-linecap:square;stroke-linejoin:miter;stroke-width:0.8;"/>
   </g>
   <g id="text_11">
    <!-- $\Delta$ area : 0.57 -->
    <defs>
     <path d="M 34.1875 63.1875 
L 14.15625 8.203125 
L 54.25 8.203125 
z
M 0.78125 0 
L 28.609375 72.90625 
L 39.796875 72.90625 
L 67.578125 0 
z
" id="DejaVuSans-394"/>
     <path id="ArialMT-20"/>
     <path d="M 40.4375 6.390625 
Q 35.546875 2.25 31.03125 0.53125 
Q 26.515625 -1.171875 21.34375 -1.171875 
Q 12.796875 -1.171875 8.203125 3 
Q 3.609375 7.171875 3.609375 13.671875 
Q 3.609375 17.484375 5.34375 20.625 
Q 7.078125 23.78125 9.890625 25.6875 
Q 12.703125 27.59375 16.21875 28.5625 
Q 18.796875 29.25 24.03125 29.890625 
Q 34.671875 31.15625 39.703125 32.90625 
Q 39.75 34.71875 39.75 35.203125 
Q 39.75 40.578125 37.25 42.78125 
Q 33.890625 45.75 27.25 45.75 
Q 21.046875 45.75 18.09375 43.578125 
Q 15.140625 41.40625 13.71875 35.890625 
L 5.125 37.0625 
Q 6.296875 42.578125 8.984375 45.96875 
Q 11.671875 49.359375 16.75 51.1875 
Q 21.828125 53.03125 28.515625 53.03125 
Q 35.15625 53.03125 39.296875 51.46875 
Q 43.453125 49.90625 45.40625 47.53125 
Q 47.359375 45.171875 48.140625 41.546875 
Q 48.578125 39.3125 48.578125 33.453125 
L 48.578125 21.734375 
Q 48.578125 9.46875 49.140625 6.21875 
Q 49.703125 2.984375 51.375 0 
L 42.1875 0 
Q 40.828125 2.734375 40.4375 6.390625 
z
M 39.703125 26.03125 
Q 34.90625 24.078125 25.34375 22.703125 
Q 19.921875 21.921875 17.671875 20.9375 
Q 15.4375 19.96875 14.203125 18.09375 
Q 12.984375 16.21875 12.984375 13.921875 
Q 12.984375 10.40625 15.640625 8.0625 
Q 18.3125 5.71875 23.4375 5.71875 
Q 28.515625 5.71875 32.46875 7.9375 
Q 36.421875 10.15625 38.28125 14.015625 
Q 39.703125 17 39.703125 22.796875 
z
" id="ArialMT-61"/>
     <path d="M 6.5 0 
L 6.5 51.859375 
L 14.40625 51.859375 
L 14.40625 44 
Q 17.4375 49.515625 20 51.265625 
Q 22.5625 53.03125 25.640625 53.03125 
Q 30.078125 53.03125 34.671875 50.203125 
L 31.640625 42.046875 
Q 28.421875 43.953125 25.203125 43.953125 
Q 22.3125 43.953125 20.015625 42.21875 
Q 17.71875 40.484375 16.75 37.40625 
Q 15.28125 32.71875 15.28125 27.15625 
L 15.28125 0 
z
" id="ArialMT-72"/>
     <path d="M 42.09375 16.703125 
L 51.171875 15.578125 
Q 49.03125 7.625 43.21875 3.21875 
Q 37.40625 -1.171875 28.375 -1.171875 
Q 17 -1.171875 10.328125 5.828125 
Q 3.65625 12.84375 3.65625 25.484375 
Q 3.65625 38.578125 10.390625 45.796875 
Q 17.140625 53.03125 27.875 53.03125 
Q 38.28125 53.03125 44.875 45.953125 
Q 51.46875 38.875 51.46875 26.03125 
Q 51.46875 25.25 51.421875 23.6875 
L 12.75 23.6875 
Q 13.234375 15.140625 17.578125 10.59375 
Q 21.921875 6.0625 28.421875 6.0625 
Q 33.25 6.0625 36.671875 8.59375 
Q 40.09375 11.140625 42.09375 16.703125 
z
M 13.234375 30.90625 
L 42.1875 30.90625 
Q 41.609375 37.453125 38.875 40.71875 
Q 34.671875 45.796875 27.984375 45.796875 
Q 21.921875 45.796875 17.796875 41.75 
Q 13.671875 37.703125 13.234375 30.90625 
z
" id="ArialMT-65"/>
     <path d="M 9.03125 41.84375 
L 9.03125 51.859375 
L 19.046875 51.859375 
L 19.046875 41.84375 
z
M 9.03125 0 
L 9.03125 10.015625 
L 19.046875 10.015625 
L 19.046875 0 
z
" id="ArialMT-3a"/>
     <path d="M 9.078125 0 
L 9.078125 10.015625 
L 19.09375 10.015625 
L 19.09375 0 
z
" id="ArialMT-2e"/>
     <path d="M 4.15625 18.75 
L 13.375 19.53125 
Q 14.40625 12.796875 18.140625 9.390625 
Q 21.875 6 27.15625 6 
Q 33.5 6 37.890625 10.78125 
Q 42.28125 15.578125 42.28125 23.484375 
Q 42.28125 31 38.0625 35.34375 
Q 33.84375 39.703125 27 39.703125 
Q 22.75 39.703125 19.328125 37.765625 
Q 15.921875 35.84375 13.96875 32.765625 
L 5.71875 33.84375 
L 12.640625 70.609375 
L 48.25 70.609375 
L 48.25 62.203125 
L 19.671875 62.203125 
L 15.828125 42.96875 
Q 22.265625 47.46875 29.34375 47.46875 
Q 38.71875 47.46875 45.15625 40.96875 
Q 51.609375 34.46875 51.609375 24.265625 
Q 51.609375 14.546875 45.953125 7.46875 
Q 39.0625 -1.21875 27.15625 -1.21875 
Q 17.390625 -1.21875 11.203125 4.25 
Q 5.03125 9.71875 4.15625 18.75 
z
" id="ArialMT-35"/>
     <path d="M 4.734375 62.203125 
L 4.734375 70.65625 
L 51.078125 70.65625 
L 51.078125 63.8125 
Q 44.234375 56.546875 37.515625 44.484375 
Q 30.8125 32.421875 27.15625 19.671875 
Q 24.515625 10.6875 23.78125 0 
L 14.75 0 
Q 14.890625 8.453125 18.0625 20.40625 
Q 21.234375 32.375 27.171875 43.484375 
Q 33.109375 54.59375 39.796875 62.203125 
z
" id="ArialMT-37"/>
    </defs>
    <g style="fill:#262626;" transform="translate(48.25 21.48)scale(0.132 -0.132)">
     <use transform="translate(0 0.09375)" xlink:href="#DejaVuSans-394"/>
     <use transform="translate(68.408203 0.09375)" xlink:href="#ArialMT-20"/>
     <use transform="translate(96.191406 0.09375)" xlink:href="#ArialMT-61"/>
     <use transform="translate(151.806641 0.09375)" xlink:href="#ArialMT-72"/>
     <use transform="translate(185.107422 0.09375)" xlink:href="#ArialMT-65"/>
     <use transform="translate(240.722656 0.09375)" xlink:href="#ArialMT-61"/>
     <use transform="translate(296.337891 0.09375)" xlink:href="#ArialMT-20"/>
     <use transform="translate(324.121094 0.09375)" xlink:href="#ArialMT-3a"/>
     <use transform="translate(351.904297 0.09375)" xlink:href="#ArialMT-20"/>
     <use transform="translate(379.6875 0.09375)" xlink:href="#ArialMT-30"/>
     <use transform="translate(435.302734 0.09375)" xlink:href="#ArialMT-2e"/>
     <use transform="translate(463.085938 0.09375)" xlink:href="#ArialMT-35"/>
     <use transform="translate(518.685547 0.09375)" xlink:href="#ArialMT-37"/>
    </g>
   </g>
  </g>
 </g>
 <defs>
  <clipPath id="p2f3579419f">
   <rect height="74.44" width="88.48" x="41.96" y="27.48"/>
  </clipPath>
 </defs>
</svg>
