<?xml version="1.0" encoding="utf-8" standalone="no"?>
<!DOCTYPE svg PUBLIC "-//W3C//DTD SVG 1.1//EN"
  "http://www.w3.org/Graphics/SVG/1.1/DTD/svg11.dtd">
<!-- Created with matplotlib (http://matplotlib.org/) -->
<svg height="144pt" version="1.1" viewBox="0 0 144 144" width="144pt" xmlns="http://www.w3.org/2000/svg" xmlns:xlink="http://www.w3.org/1999/xlink">
 <defs>
  <style type="text/css">
*{stroke-linecap:butt;stroke-linejoin:round;}
  </style>
 </defs>
 <g id="figure_1">
  <g id="patch_1">
   <path d="M 0 144 
L 144 144 
L 144 0 
L 0 0 
z
" style="fill:#ffffff;"/>
  </g>
  <g id="axes_1">
   <g id="patch_2">
    <path d="M 32.525 101.92 
L 130.44 101.92 
L 130.44 13.56 
L 32.525 13.56 
z
" style="fill:#ffffff;"/>
   </g>
   <g id="matplotlib.axis_1">
    <g id="xtick_1">
     <g id="line2d_1">
      <defs>
       <path d="M 0 0 
L 0 3.5 
" id="m5a85c64cf7" style="stroke:#262626;stroke-width:0.8;"/>
      </defs>
      <g>
       <use style="fill:#262626;stroke:#262626;stroke-width:0.8;" x="36.975682" xlink:href="#m5a85c64cf7" y="101.92"/>
      </g>
     </g>
     <g id="text_1">
      <!-- 2 -->
      <defs>
       <path d="M 50.34375 8.453125 
L 50.34375 0 
L 3.03125 0 
Q 2.9375 3.171875 4.046875 6.109375 
Q 5.859375 10.9375 9.828125 15.625 
Q 13.8125 20.3125 21.34375 26.46875 
Q 33.015625 36.03125 37.109375 41.625 
Q 41.21875 47.21875 41.21875 52.203125 
Q 41.21875 57.421875 37.46875 61 
Q 33.734375 64.59375 27.734375 64.59375 
Q 21.390625 64.59375 17.578125 60.78125 
Q 13.765625 56.984375 13.71875 50.25 
L 4.6875 51.171875 
Q 5.609375 61.28125 11.65625 66.578125 
Q 17.71875 71.875 27.9375 71.875 
Q 38.234375 71.875 44.234375 66.15625 
Q 50.25 60.453125 50.25 52 
Q 50.25 47.703125 48.484375 43.546875 
Q 46.734375 39.40625 42.65625 34.8125 
Q 38.578125 30.21875 29.109375 22.21875 
Q 21.1875 15.578125 18.9375 13.203125 
Q 16.703125 10.84375 15.234375 8.453125 
z
" id="ArialMT-32"/>
      </defs>
      <g style="fill:#262626;" transform="translate(33.917166 116.793594)scale(0.11 -0.11)">
       <use xlink:href="#ArialMT-32"/>
      </g>
     </g>
    </g>
    <g id="xtick_2">
     <g id="line2d_2">
      <g>
       <use style="fill:#262626;stroke:#262626;stroke-width:0.8;" x="54.778409" xlink:href="#m5a85c64cf7" y="101.92"/>
      </g>
     </g>
     <g id="text_2">
      <!-- 4 -->
      <defs>
       <path d="M 32.328125 0 
L 32.328125 17.140625 
L 1.265625 17.140625 
L 1.265625 25.203125 
L 33.9375 71.578125 
L 41.109375 71.578125 
L 41.109375 25.203125 
L 50.78125 25.203125 
L 50.78125 17.140625 
L 41.109375 17.140625 
L 41.109375 0 
z
M 32.328125 25.203125 
L 32.328125 57.46875 
L 9.90625 25.203125 
z
" id="ArialMT-34"/>
      </defs>
      <g style="fill:#262626;" transform="translate(51.719893 116.793594)scale(0.11 -0.11)">
       <use xlink:href="#ArialMT-34"/>
      </g>
     </g>
    </g>
    <g id="xtick_3">
     <g id="line2d_3">
      <g>
       <use style="fill:#262626;stroke:#262626;stroke-width:0.8;" x="72.581136" xlink:href="#m5a85c64cf7" y="101.92"/>
      </g>
     </g>
     <g id="text_3">
      <!-- 6 -->
      <defs>
       <path d="M 49.75 54.046875 
L 41.015625 53.375 
Q 39.84375 58.546875 37.703125 60.890625 
Q 34.125 64.65625 28.90625 64.65625 
Q 24.703125 64.65625 21.53125 62.3125 
Q 17.390625 59.28125 14.984375 53.46875 
Q 12.59375 47.65625 12.5 36.921875 
Q 15.671875 41.75 20.265625 44.09375 
Q 24.859375 46.4375 29.890625 46.4375 
Q 38.671875 46.4375 44.84375 39.96875 
Q 51.03125 33.5 51.03125 23.25 
Q 51.03125 16.5 48.125 10.71875 
Q 45.21875 4.9375 40.140625 1.859375 
Q 35.0625 -1.21875 28.609375 -1.21875 
Q 17.625 -1.21875 10.6875 6.859375 
Q 3.765625 14.9375 3.765625 33.5 
Q 3.765625 54.25 11.421875 63.671875 
Q 18.109375 71.875 29.4375 71.875 
Q 37.890625 71.875 43.28125 67.140625 
Q 48.6875 62.40625 49.75 54.046875 
z
M 13.875 23.1875 
Q 13.875 18.65625 15.796875 14.5 
Q 17.71875 10.359375 21.1875 8.171875 
Q 24.65625 6 28.46875 6 
Q 34.03125 6 38.03125 10.484375 
Q 42.046875 14.984375 42.046875 22.703125 
Q 42.046875 30.125 38.078125 34.390625 
Q 34.125 38.671875 28.125 38.671875 
Q 22.171875 38.671875 18.015625 34.390625 
Q 13.875 30.125 13.875 23.1875 
z
" id="ArialMT-36"/>
      </defs>
      <g style="fill:#262626;" transform="translate(69.522621 116.793594)scale(0.11 -0.11)">
       <use xlink:href="#ArialMT-36"/>
      </g>
     </g>
    </g>
    <g id="xtick_4">
     <g id="line2d_4">
      <g>
       <use style="fill:#262626;stroke:#262626;stroke-width:0.8;" x="90.383864" xlink:href="#m5a85c64cf7" y="101.92"/>
      </g>
     </g>
     <g id="text_4">
      <!-- 8 -->
      <defs>
       <path d="M 17.671875 38.8125 
Q 12.203125 40.828125 9.5625 44.53125 
Q 6.9375 48.25 6.9375 53.421875 
Q 6.9375 61.234375 12.546875 66.546875 
Q 18.171875 71.875 27.484375 71.875 
Q 36.859375 71.875 42.578125 66.421875 
Q 48.296875 60.984375 48.296875 53.171875 
Q 48.296875 48.1875 45.671875 44.5 
Q 43.0625 40.828125 37.75 38.8125 
Q 44.34375 36.671875 47.78125 31.875 
Q 51.21875 27.09375 51.21875 20.453125 
Q 51.21875 11.28125 44.71875 5.03125 
Q 38.234375 -1.21875 27.640625 -1.21875 
Q 17.046875 -1.21875 10.546875 5.046875 
Q 4.046875 11.328125 4.046875 20.703125 
Q 4.046875 27.6875 7.59375 32.390625 
Q 11.140625 37.109375 17.671875 38.8125 
z
M 15.921875 53.71875 
Q 15.921875 48.640625 19.1875 45.40625 
Q 22.46875 42.1875 27.6875 42.1875 
Q 32.765625 42.1875 36.015625 45.375 
Q 39.265625 48.578125 39.265625 53.21875 
Q 39.265625 58.0625 35.90625 61.359375 
Q 32.5625 64.65625 27.59375 64.65625 
Q 22.5625 64.65625 19.234375 61.421875 
Q 15.921875 58.203125 15.921875 53.71875 
z
M 13.09375 20.65625 
Q 13.09375 16.890625 14.875 13.375 
Q 16.65625 9.859375 20.171875 7.921875 
Q 23.6875 6 27.734375 6 
Q 34.03125 6 38.125 10.046875 
Q 42.234375 14.109375 42.234375 20.359375 
Q 42.234375 26.703125 38.015625 30.859375 
Q 33.796875 35.015625 27.4375 35.015625 
Q 21.234375 35.015625 17.15625 30.90625 
Q 13.09375 26.8125 13.09375 20.65625 
z
" id="ArialMT-38"/>
      </defs>
      <g style="fill:#262626;" transform="translate(87.325348 116.793594)scale(0.11 -0.11)">
       <use xlink:href="#ArialMT-38"/>
      </g>
     </g>
    </g>
    <g id="xtick_5">
     <g id="line2d_5">
      <g>
       <use style="fill:#262626;stroke:#262626;stroke-width:0.8;" x="108.186591" xlink:href="#m5a85c64cf7" y="101.92"/>
      </g>
     </g>
     <g id="text_5">
      <!-- 10 -->
      <defs>
       <path d="M 37.25 0 
L 28.46875 0 
L 28.46875 56 
Q 25.296875 52.984375 20.140625 49.953125 
Q 14.984375 46.921875 10.890625 45.40625 
L 10.890625 53.90625 
Q 18.265625 57.375 23.78125 62.296875 
Q 29.296875 67.234375 31.59375 71.875 
L 37.25 71.875 
z
" id="ArialMT-31"/>
       <path d="M 4.15625 35.296875 
Q 4.15625 48 6.765625 55.734375 
Q 9.375 63.484375 14.515625 67.671875 
Q 19.671875 71.875 27.484375 71.875 
Q 33.25 71.875 37.59375 69.546875 
Q 41.9375 67.234375 44.765625 62.859375 
Q 47.609375 58.5 49.21875 52.21875 
Q 50.828125 45.953125 50.828125 35.296875 
Q 50.828125 22.703125 48.234375 14.96875 
Q 45.65625 7.234375 40.5 3 
Q 35.359375 -1.21875 27.484375 -1.21875 
Q 17.140625 -1.21875 11.234375 6.203125 
Q 4.15625 15.140625 4.15625 35.296875 
z
M 13.1875 35.296875 
Q 13.1875 17.671875 17.3125 11.828125 
Q 21.4375 6 27.484375 6 
Q 33.546875 6 37.671875 11.859375 
Q 41.796875 17.71875 41.796875 35.296875 
Q 41.796875 52.984375 37.671875 58.78125 
Q 33.546875 64.59375 27.390625 64.59375 
Q 21.34375 64.59375 17.71875 59.46875 
Q 13.1875 52.9375 13.1875 35.296875 
z
" id="ArialMT-30"/>
      </defs>
      <g style="fill:#262626;" transform="translate(102.06956 116.793594)scale(0.11 -0.11)">
       <use xlink:href="#ArialMT-31"/>
       <use x="55.615234" xlink:href="#ArialMT-30"/>
      </g>
     </g>
    </g>
    <g id="xtick_6">
     <g id="line2d_6">
      <g>
       <use style="fill:#262626;stroke:#262626;stroke-width:0.8;" x="125.989318" xlink:href="#m5a85c64cf7" y="101.92"/>
      </g>
     </g>
     <g id="text_6">
      <!-- 12 -->
      <g style="fill:#262626;" transform="translate(119.872287 116.793594)scale(0.11 -0.11)">
       <use xlink:href="#ArialMT-31"/>
       <use x="55.615234" xlink:href="#ArialMT-32"/>
      </g>
     </g>
    </g>
    <g id="text_7">
     <!-- pH -->
     <defs>
      <path d="M 6.59375 -19.875 
L 6.59375 51.859375 
L 14.59375 51.859375 
L 14.59375 45.125 
Q 17.4375 49.078125 21 51.046875 
Q 24.5625 53.03125 29.640625 53.03125 
Q 36.28125 53.03125 41.359375 49.609375 
Q 46.4375 46.1875 49.015625 39.953125 
Q 51.609375 33.734375 51.609375 26.3125 
Q 51.609375 18.359375 48.75 11.984375 
Q 45.90625 5.609375 40.453125 2.21875 
Q 35.015625 -1.171875 29 -1.171875 
Q 24.609375 -1.171875 21.109375 0.6875 
Q 17.625 2.546875 15.375 5.375 
L 15.375 -19.875 
z
M 14.546875 25.640625 
Q 14.546875 15.625 18.59375 10.84375 
Q 22.65625 6.0625 28.421875 6.0625 
Q 34.28125 6.0625 38.453125 11.015625 
Q 42.625 15.96875 42.625 26.375 
Q 42.625 36.28125 38.546875 41.203125 
Q 34.46875 46.140625 28.8125 46.140625 
Q 23.1875 46.140625 18.859375 40.890625 
Q 14.546875 35.640625 14.546875 25.640625 
z
" id="ArialMT-70"/>
      <path d="M 8.015625 0 
L 8.015625 71.578125 
L 17.484375 71.578125 
L 17.484375 42.1875 
L 54.6875 42.1875 
L 54.6875 71.578125 
L 64.15625 71.578125 
L 64.15625 0 
L 54.6875 0 
L 54.6875 33.734375 
L 17.484375 33.734375 
L 17.484375 0 
z
" id="ArialMT-48"/>
     </defs>
     <g style="fill:#262626;" transform="translate(74.451953 130.853437)scale(0.11 -0.11)">
      <use xlink:href="#ArialMT-70"/>
      <use x="55.615234" xlink:href="#ArialMT-48"/>
     </g>
    </g>
   </g>
   <g id="matplotlib.axis_2">
    <g id="ytick_1">
     <g id="line2d_7">
      <defs>
       <path d="M 0 0 
L -3.5 0 
" id="m4e06b272dc" style="stroke:#262626;stroke-width:0.8;"/>
      </defs>
      <g>
       <use style="fill:#262626;stroke:#262626;stroke-width:0.8;" x="32.525" xlink:href="#m4e06b272dc" y="97.903636"/>
      </g>
     </g>
    </g>
    <g id="ytick_2">
     <g id="line2d_8">
      <g>
       <use style="fill:#262626;stroke:#262626;stroke-width:0.8;" x="32.525" xlink:href="#m4e06b272dc" y="17.576364"/>
      </g>
     </g>
    </g>
    <g id="text_8">
     <!-- Population -->
     <defs>
      <path d="M 7.71875 0 
L 7.71875 71.578125 
L 34.71875 71.578125 
Q 41.84375 71.578125 45.609375 70.90625 
Q 50.875 70.015625 54.4375 67.546875 
Q 58.015625 65.09375 60.1875 60.640625 
Q 62.359375 56.203125 62.359375 50.875 
Q 62.359375 41.75 56.546875 35.421875 
Q 50.734375 29.109375 35.546875 29.109375 
L 17.1875 29.109375 
L 17.1875 0 
z
M 17.1875 37.546875 
L 35.6875 37.546875 
Q 44.875 37.546875 48.734375 40.96875 
Q 52.59375 44.390625 52.59375 50.59375 
Q 52.59375 55.078125 50.3125 58.265625 
Q 48.046875 61.46875 44.34375 62.5 
Q 41.9375 63.140625 35.5 63.140625 
L 17.1875 63.140625 
z
" id="ArialMT-50"/>
      <path d="M 3.328125 25.921875 
Q 3.328125 40.328125 11.328125 47.265625 
Q 18.015625 53.03125 27.640625 53.03125 
Q 38.328125 53.03125 45.109375 46.015625 
Q 51.90625 39.015625 51.90625 26.65625 
Q 51.90625 16.65625 48.90625 10.90625 
Q 45.90625 5.171875 40.15625 2 
Q 34.421875 -1.171875 27.640625 -1.171875 
Q 16.75 -1.171875 10.03125 5.8125 
Q 3.328125 12.796875 3.328125 25.921875 
z
M 12.359375 25.921875 
Q 12.359375 15.96875 16.703125 11.015625 
Q 21.046875 6.0625 27.640625 6.0625 
Q 34.1875 6.0625 38.53125 11.03125 
Q 42.875 16.015625 42.875 26.21875 
Q 42.875 35.84375 38.5 40.796875 
Q 34.125 45.75 27.640625 45.75 
Q 21.046875 45.75 16.703125 40.8125 
Q 12.359375 35.890625 12.359375 25.921875 
z
" id="ArialMT-6f"/>
      <path d="M 40.578125 0 
L 40.578125 7.625 
Q 34.515625 -1.171875 24.125 -1.171875 
Q 19.53125 -1.171875 15.546875 0.578125 
Q 11.578125 2.34375 9.640625 5 
Q 7.71875 7.671875 6.9375 11.53125 
Q 6.390625 14.109375 6.390625 19.734375 
L 6.390625 51.859375 
L 15.1875 51.859375 
L 15.1875 23.09375 
Q 15.1875 16.21875 15.71875 13.8125 
Q 16.546875 10.359375 19.234375 8.375 
Q 21.921875 6.390625 25.875 6.390625 
Q 29.828125 6.390625 33.296875 8.421875 
Q 36.765625 10.453125 38.203125 13.9375 
Q 39.65625 17.4375 39.65625 24.078125 
L 39.65625 51.859375 
L 48.4375 51.859375 
L 48.4375 0 
z
" id="ArialMT-75"/>
      <path d="M 6.390625 0 
L 6.390625 71.578125 
L 15.1875 71.578125 
L 15.1875 0 
z
" id="ArialMT-6c"/>
      <path d="M 40.4375 6.390625 
Q 35.546875 2.25 31.03125 0.53125 
Q 26.515625 -1.171875 21.34375 -1.171875 
Q 12.796875 -1.171875 8.203125 3 
Q 3.609375 7.171875 3.609375 13.671875 
Q 3.609375 17.484375 5.34375 20.625 
Q 7.078125 23.78125 9.890625 25.6875 
Q 12.703125 27.59375 16.21875 28.5625 
Q 18.796875 29.25 24.03125 29.890625 
Q 34.671875 31.15625 39.703125 32.90625 
Q 39.75 34.71875 39.75 35.203125 
Q 39.75 40.578125 37.25 42.78125 
Q 33.890625 45.75 27.25 45.75 
Q 21.046875 45.75 18.09375 43.578125 
Q 15.140625 41.40625 13.71875 35.890625 
L 5.125 37.0625 
Q 6.296875 42.578125 8.984375 45.96875 
Q 11.671875 49.359375 16.75 51.1875 
Q 21.828125 53.03125 28.515625 53.03125 
Q 35.15625 53.03125 39.296875 51.46875 
Q 43.453125 49.90625 45.40625 47.53125 
Q 47.359375 45.171875 48.140625 41.546875 
Q 48.578125 39.3125 48.578125 33.453125 
L 48.578125 21.734375 
Q 48.578125 9.46875 49.140625 6.21875 
Q 49.703125 2.984375 51.375 0 
L 42.1875 0 
Q 40.828125 2.734375 40.4375 6.390625 
z
M 39.703125 26.03125 
Q 34.90625 24.078125 25.34375 22.703125 
Q 19.921875 21.921875 17.671875 20.9375 
Q 15.4375 19.96875 14.203125 18.09375 
Q 12.984375 16.21875 12.984375 13.921875 
Q 12.984375 10.40625 15.640625 8.0625 
Q 18.3125 5.71875 23.4375 5.71875 
Q 28.515625 5.71875 32.46875 7.9375 
Q 36.421875 10.15625 38.28125 14.015625 
Q 39.703125 17 39.703125 22.796875 
z
" id="ArialMT-61"/>
      <path d="M 25.78125 7.859375 
L 27.046875 0.09375 
Q 23.34375 -0.6875 20.40625 -0.6875 
Q 15.625 -0.6875 12.984375 0.828125 
Q 10.359375 2.34375 9.28125 4.8125 
Q 8.203125 7.28125 8.203125 15.1875 
L 8.203125 45.015625 
L 1.765625 45.015625 
L 1.765625 51.859375 
L 8.203125 51.859375 
L 8.203125 64.703125 
L 16.9375 69.96875 
L 16.9375 51.859375 
L 25.78125 51.859375 
L 25.78125 45.015625 
L 16.9375 45.015625 
L 16.9375 14.703125 
Q 16.9375 10.9375 17.40625 9.859375 
Q 17.875 8.796875 18.921875 8.15625 
Q 19.96875 7.515625 21.921875 7.515625 
Q 23.390625 7.515625 25.78125 7.859375 
z
" id="ArialMT-74"/>
      <path d="M 6.640625 61.46875 
L 6.640625 71.578125 
L 15.4375 71.578125 
L 15.4375 61.46875 
z
M 6.640625 0 
L 6.640625 51.859375 
L 15.4375 51.859375 
L 15.4375 0 
z
" id="ArialMT-69"/>
      <path d="M 6.59375 0 
L 6.59375 51.859375 
L 14.5 51.859375 
L 14.5 44.484375 
Q 20.21875 53.03125 31 53.03125 
Q 35.6875 53.03125 39.625 51.34375 
Q 43.5625 49.65625 45.515625 46.921875 
Q 47.46875 44.1875 48.25 40.4375 
Q 48.734375 37.984375 48.734375 31.890625 
L 48.734375 0 
L 39.9375 0 
L 39.9375 31.546875 
Q 39.9375 36.921875 38.90625 39.578125 
Q 37.890625 42.234375 35.28125 43.8125 
Q 32.671875 45.40625 29.15625 45.40625 
Q 23.53125 45.40625 19.453125 41.84375 
Q 15.375 38.28125 15.375 28.328125 
L 15.375 0 
z
" id="ArialMT-6e"/>
     </defs>
     <g style="fill:#262626;" transform="translate(19.33875 83.731797)rotate(-90)scale(0.11 -0.11)">
      <use xlink:href="#ArialMT-50"/>
      <use x="66.699219" xlink:href="#ArialMT-6f"/>
      <use x="122.314453" xlink:href="#ArialMT-70"/>
      <use x="177.929688" xlink:href="#ArialMT-75"/>
      <use x="233.544922" xlink:href="#ArialMT-6c"/>
      <use x="255.761719" xlink:href="#ArialMT-61"/>
      <use x="311.376953" xlink:href="#ArialMT-74"/>
      <use x="339.160156" xlink:href="#ArialMT-69"/>
      <use x="361.376953" xlink:href="#ArialMT-6f"/>
      <use x="416.992188" xlink:href="#ArialMT-6e"/>
     </g>
    </g>
   </g>
   <g id="patch_3">
    <path d="M 32.525 101.92 
L 32.525 13.56 
" style="fill:none;stroke:#262626;stroke-linecap:square;stroke-linejoin:miter;stroke-width:0.8;"/>
   </g>
   <g id="patch_4">
    <path d="M 32.525 101.92 
L 130.44 101.92 
" style="fill:none;stroke:#262626;stroke-linecap:square;stroke-linejoin:miter;stroke-width:0.8;"/>
   </g>
   <g id="line2d_9">
    <path clip-path="url(#p42bc48d3b7)" d="M 36.975682 97.898908 
L 37.865818 97.899881 
L 38.755955 97.900653 
L 39.646091 97.901267 
L 40.536227 97.901755 
L 41.426364 97.902142 
L 42.3165 97.902449 
L 43.206636 97.902694 
L 44.096773 97.902888 
L 44.986909 97.903042 
L 45.877045 97.903165 
L 46.767182 97.903262 
L 47.657318 97.903339 
L 48.547455 97.9034 
L 49.437591 97.903449 
L 50.327727 97.903488 
L 51.217864 97.903519 
L 52.108 97.903543 
L 52.998136 97.903563 
L 53.888273 97.903578 
L 54.778409 97.90359 
L 55.668545 97.9036 
L 56.558682 97.903608 
L 57.448818 97.903614 
L 58.338955 97.903619 
L 59.229091 97.903622 
L 60.119227 97.903626 
L 61.009364 97.903628 
L 61.8995 97.90363 
L 62.789636 97.903631 
L 63.679773 97.903633 
L 64.569909 97.903633 
L 65.460045 97.903634 
L 66.350182 97.903635 
L 67.240318 97.903635 
L 68.130455 97.903636 
L 69.020591 97.903636 
L 69.910727 97.903636 
L 70.800864 97.903636 
L 71.691 97.903636 
L 72.581136 97.903636 
L 73.471273 97.903636 
L 74.361409 97.903636 
L 75.251545 97.903636 
L 76.141682 97.903636 
L 77.031818 97.903636 
L 77.921955 97.903636 
L 78.812091 97.903636 
L 79.702227 97.903636 
L 80.592364 97.903636 
L 81.4825 97.903636 
L 82.372636 97.903636 
L 83.262773 97.903636 
L 84.152909 97.903636 
L 85.043045 97.903636 
L 85.933182 97.903636 
L 86.823318 97.903636 
L 87.713455 97.903636 
L 88.603591 97.903636 
L 89.493727 97.903636 
L 90.383864 97.903636 
L 91.274 97.903636 
L 92.164136 97.903636 
L 93.054273 97.903636 
L 93.944409 97.903636 
L 94.834545 97.903636 
L 95.724682 97.903636 
L 96.614818 97.903636 
L 97.504955 97.903636 
L 98.395091 97.903636 
L 99.285227 97.903636 
L 100.175364 97.903636 
L 101.0655 97.903636 
L 101.955636 97.903636 
L 102.845773 97.903636 
L 103.735909 97.903636 
L 104.626045 97.903636 
L 105.516182 97.903636 
L 106.406318 97.903636 
L 107.296455 97.903636 
L 108.186591 97.903636 
L 109.076727 97.903636 
L 109.966864 97.903636 
L 110.857 97.903636 
L 111.747136 97.903636 
L 112.637273 97.903636 
L 113.527409 97.903636 
L 114.417545 97.903636 
L 115.307682 97.903636 
L 116.197818 97.903636 
L 117.087955 97.903636 
L 117.978091 97.903636 
L 118.868227 97.903636 
L 119.758364 97.903636 
L 120.6485 97.903636 
L 121.538636 97.903636 
L 122.428773 97.903636 
L 123.318909 97.903636 
L 124.209045 97.903636 
L 125.099182 97.903636 
L 125.989318 97.903636 
" style="fill:none;stroke:#4393c3;stroke-linecap:round;stroke-width:1.5;"/>
   </g>
   <g id="line2d_10">
    <path clip-path="url(#p42bc48d3b7)" d="M 36.975682 97.903636 
L 37.865818 97.903636 
L 38.755955 97.903636 
L 39.646091 97.903636 
L 40.536227 97.903636 
L 41.426364 97.903636 
L 42.3165 97.903636 
L 43.206636 97.903636 
L 44.096773 97.903636 
L 44.986909 97.903636 
L 45.877045 97.903636 
L 46.767182 97.903636 
L 47.657318 97.903636 
L 48.547455 97.903636 
L 49.437591 97.903636 
L 50.327727 97.903636 
L 51.217864 97.903636 
L 52.108 97.903636 
L 52.998136 97.903636 
L 53.888273 97.903636 
L 54.778409 97.903636 
L 55.668545 97.903636 
L 56.558682 97.903636 
L 57.448818 97.903636 
L 58.338955 97.903636 
L 59.229091 97.903636 
L 60.119227 97.903636 
L 61.009364 97.903636 
L 61.8995 97.903636 
L 62.789636 97.903636 
L 63.679773 97.903636 
L 64.569909 97.903636 
L 65.460045 97.903636 
L 66.350182 97.903636 
L 67.240318 97.903636 
L 68.130455 97.903636 
L 69.020591 97.903636 
L 69.910727 97.903636 
L 70.800864 97.903636 
L 71.691 97.903636 
L 72.581136 97.903635 
L 73.471273 97.903635 
L 74.361409 97.903635 
L 75.251545 97.903634 
L 76.141682 97.903633 
L 77.031818 97.903633 
L 77.921955 97.903631 
L 78.812091 97.90363 
L 79.702227 97.903628 
L 80.592364 97.903626 
L 81.4825 97.903623 
L 82.372636 97.90362 
L 83.262773 97.903615 
L 84.152909 97.90361 
L 85.043045 97.903603 
L 85.933182 97.903594 
L 86.823318 97.903583 
L 87.713455 97.903569 
L 88.603591 97.903551 
L 89.493727 97.903529 
L 90.383864 97.9035 
L 91.274 97.903465 
L 92.164136 97.903421 
L 93.054273 97.903365 
L 93.944409 97.903294 
L 94.834545 97.903206 
L 95.724682 97.903094 
L 96.614818 97.902953 
L 97.504955 97.902776 
L 98.395091 97.902553 
L 99.285227 97.902273 
L 100.175364 97.90192 
L 101.0655 97.901475 
L 101.955636 97.900915 
L 102.845773 97.90021 
L 103.735909 97.899323 
L 104.626045 97.898206 
L 105.516182 97.896801 
L 106.406318 97.895031 
L 107.296455 97.892803 
L 108.186591 97.889998 
L 109.076727 97.886467 
L 109.966864 97.882022 
L 110.857 97.876428 
L 111.747136 97.869386 
L 112.637273 97.860522 
L 113.527409 97.849366 
L 114.417545 97.835325 
L 115.307682 97.817657 
L 116.197818 97.795424 
L 117.087955 97.767453 
L 117.978091 97.732267 
L 118.868227 97.688014 
L 119.758364 97.632372 
L 120.6485 97.562433 
L 121.538636 97.474558 
L 122.428773 97.364205 
L 123.318909 97.225711 
L 124.209045 97.05204 
L 125.099182 96.834474 
L 125.989318 96.562264 
" style="fill:none;stroke:#f4a582;stroke-linecap:round;stroke-width:1.5;"/>
   </g>
   <g id="line2d_11">
    <path clip-path="url(#p42bc48d3b7)" d="M 36.975682 17.600886 
L 37.865818 17.605037 
L 38.755955 17.610714 
L 39.646091 17.618219 
L 40.536227 17.627949 
L 41.426364 17.640422 
L 42.3165 17.656298 
L 43.206636 17.676418 
L 44.096773 17.701847 
L 44.986909 17.733927 
L 45.877045 17.774349 
L 46.767182 17.825234 
L 47.657318 17.889249 
L 48.547455 17.969729 
L 49.437591 18.070845 
L 50.327727 18.197802 
L 51.217864 18.357077 
L 52.108 18.556702 
L 52.998136 18.806606 
L 53.888273 19.118996 
L 54.778409 19.508788 
L 55.668545 19.994061 
L 56.558682 20.596511 
L 57.448818 21.341834 
L 58.338955 22.259953 
L 59.229091 23.384954 
L 60.119227 24.75454 
L 61.009364 26.408784 
L 61.8995 28.387911 
L 62.789636 30.728929 
L 63.679773 33.461019 
L 64.569909 36.59991 
L 65.460045 40.141868 
L 66.350182 44.058419 
L 67.240318 48.293248 
L 68.130455 52.762748 
L 69.020591 57.361052 
L 69.910727 61.969313 
L 70.800864 66.467657 
L 71.691 70.747358 
L 72.581136 74.720692 
L 73.471273 78.32672 
L 74.361409 81.532534 
L 75.251545 84.330671 
L 76.141682 86.734076 
L 77.031818 88.770132 
L 77.921955 90.474911 
L 78.812091 91.888376 
L 79.702227 93.050804 
L 80.592364 94.000395 
L 81.4825 94.771883 
L 82.372636 95.395888 
L 83.262773 95.898788 
L 84.152909 96.302912 
L 85.043045 96.626903 
L 85.933182 96.886165 
L 86.823318 97.093319 
L 87.713455 97.258641 
L 88.603591 97.390451 
L 89.493727 97.495462 
L 90.383864 97.579073 
L 91.274 97.645612 
L 92.164136 97.698545 
L 93.054273 97.740641 
L 93.944409 97.774111 
L 94.834545 97.800716 
L 95.724682 97.821863 
L 96.614818 97.838668 
L 97.504955 97.852022 
L 98.395091 97.862632 
L 99.285227 97.871062 
L 100.175364 97.87776 
L 101.0655 97.883081 
L 101.955636 97.887308 
L 102.845773 97.890665 
L 103.735909 97.893333 
L 104.626045 97.895452 
L 105.516182 97.897135 
L 106.406318 97.898472 
L 107.296455 97.899535 
L 108.186591 97.900378 
L 109.076727 97.901048 
L 109.966864 97.901581 
L 110.857 97.902004 
L 111.747136 97.90234 
L 112.637273 97.902606 
L 113.527409 97.902818 
L 114.417545 97.902987 
L 115.307682 97.90312 
L 116.197818 97.903227 
L 117.087955 97.903311 
L 117.978091 97.903378 
L 118.868227 97.903431 
L 119.758364 97.903474 
L 120.6485 97.903507 
L 121.538636 97.903534 
L 122.428773 97.903555 
L 123.318909 97.903572 
L 124.209045 97.903585 
L 125.099182 97.903596 
L 125.989318 97.903604 
" style="fill:none;stroke:#92c5de;stroke-linecap:round;stroke-width:1.5;"/>
   </g>
   <g id="line2d_12">
    <path clip-path="url(#p42bc48d3b7)" d="M 36.975682 97.883842 
L 37.865818 97.878718 
L 38.755955 97.872269 
L 39.646091 97.864151 
L 40.536227 97.853933 
L 41.426364 97.841073 
L 42.3165 97.824889 
L 43.206636 97.804524 
L 44.096773 97.778901 
L 44.986909 97.746667 
L 45.877045 97.706123 
L 46.767182 97.65514 
L 47.657318 97.591048 
L 48.547455 97.510507 
L 49.437591 97.409342 
L 50.327727 97.282346 
L 51.217864 97.123041 
L 52.108 96.923391 
L 52.998136 96.673468 
L 53.888273 96.361062 
L 54.778409 95.971259 
L 55.668545 95.485976 
L 56.558682 94.883517 
L 57.448818 94.138188 
L 58.338955 93.220064 
L 59.229091 92.09506 
L 60.119227 90.72547 
L 61.009364 89.071225 
L 61.8995 87.092096 
L 62.789636 84.751076 
L 63.679773 82.018985 
L 64.569909 78.880093 
L 65.460045 75.338134 
L 66.350182 71.421583 
L 67.240318 67.186753 
L 68.130455 62.717253 
L 69.020591 58.118949 
L 69.910727 53.510688 
L 70.800864 49.012344 
L 71.691 44.732643 
L 72.581136 40.759309 
L 73.471273 37.153282 
L 74.361409 33.947467 
L 75.251545 31.149332 
L 76.141682 28.745927 
L 77.031818 26.709872 
L 77.921955 25.005094 
L 78.812091 23.591631 
L 79.702227 22.429205 
L 80.592364 21.479615 
L 81.4825 20.70813 
L 82.372636 20.084129 
L 83.262773 19.581233 
L 84.152909 19.177115 
L 85.043045 18.85313 
L 85.933182 18.593877 
L 86.823318 18.386734 
L 87.713455 18.221427 
L 88.603591 18.089635 
L 89.493727 17.984646 
L 90.383864 17.901063 
L 91.274 17.834559 
L 92.164136 17.781671 
L 93.054273 17.73963 
L 93.944409 17.706231 
L 94.834545 17.679714 
L 95.724682 17.65868 
L 96.614818 17.642015 
L 97.504955 17.628839 
L 98.395091 17.618451 
L 99.285227 17.610302 
L 100.175364 17.603957 
L 101.0655 17.599081 
L 101.955636 17.595414 
L 102.845773 17.59276 
L 103.735909 17.59098 
L 104.626045 17.589978 
L 105.516182 17.589701 
L 106.406318 17.590133 
L 107.296455 17.591299 
L 108.186591 17.59326 
L 109.076727 17.596121 
L 109.966864 17.600033 
L 110.857 17.605205 
L 111.747136 17.611911 
L 112.637273 17.620508 
L 113.527409 17.631452 
L 114.417545 17.645324 
L 115.307682 17.662859 
L 116.197818 17.684985 
L 117.087955 17.712872 
L 117.978091 17.747992 
L 118.868227 17.792191 
L 119.758364 17.847791 
L 120.6485 17.917696 
L 121.538636 18.005544 
L 122.428773 18.115876 
L 123.318909 18.254353 
L 124.209045 18.428011 
L 125.099182 18.645566 
L 125.989318 18.917768 
" style="fill:none;stroke:#333333;stroke-linecap:round;stroke-width:1.5;"/>
   </g>
  </g>
 </g>
 <defs>
  <clipPath id="p42bc48d3b7">
   <rect height="88.36" width="97.915" x="32.525" y="13.56"/>
  </clipPath>
 </defs>
</svg>
