<?xml version="1.0" encoding="utf-8" standalone="no"?>
<!DOCTYPE svg PUBLIC "-//W3C//DTD SVG 1.1//EN"
  "http://www.w3.org/Graphics/SVG/1.1/DTD/svg11.dtd">
<!-- Created with matplotlib (http://matplotlib.org/) -->
<svg height="144pt" version="1.1" viewBox="0 0 144 144" width="144pt" xmlns="http://www.w3.org/2000/svg" xmlns:xlink="http://www.w3.org/1999/xlink">
 <defs>
  <style type="text/css">
*{stroke-linecap:butt;stroke-linejoin:round;}
  </style>
 </defs>
 <g id="figure_1">
  <g id="patch_1">
   <path d="M 0 144 
L 144 144 
L 144 0 
L 0 0 
z
" style="fill:#ffffff;"/>
  </g>
  <g id="axes_1">
   <g id="patch_2">
    <path d="M 47.6 101.92 
L 130.44 101.92 
L 130.44 13.56 
L 47.6 13.56 
z
" style="fill:#ffffff;"/>
   </g>
   <g id="matplotlib.axis_1">
    <g id="xtick_1">
     <g id="line2d_1">
      <defs>
       <path d="M 0 0 
L 0 3.5 
" id="m91c8b5e980" style="stroke:#262626;stroke-width:0.8;"/>
      </defs>
      <g>
       <use style="fill:#262626;stroke:#262626;stroke-width:0.8;" x="51.365455" xlink:href="#m91c8b5e980" y="101.92"/>
      </g>
     </g>
     <g id="text_1">
      <!-- 2 -->
      <defs>
       <path d="M 50.34375 8.453125 
L 50.34375 0 
L 3.03125 0 
Q 2.9375 3.171875 4.046875 6.109375 
Q 5.859375 10.9375 9.828125 15.625 
Q 13.8125 20.3125 21.34375 26.46875 
Q 33.015625 36.03125 37.109375 41.625 
Q 41.21875 47.21875 41.21875 52.203125 
Q 41.21875 57.421875 37.46875 61 
Q 33.734375 64.59375 27.734375 64.59375 
Q 21.390625 64.59375 17.578125 60.78125 
Q 13.765625 56.984375 13.71875 50.25 
L 4.6875 51.171875 
Q 5.609375 61.28125 11.65625 66.578125 
Q 17.71875 71.875 27.9375 71.875 
Q 38.234375 71.875 44.234375 66.15625 
Q 50.25 60.453125 50.25 52 
Q 50.25 47.703125 48.484375 43.546875 
Q 46.734375 39.40625 42.65625 34.8125 
Q 38.578125 30.21875 29.109375 22.21875 
Q 21.1875 15.578125 18.9375 13.203125 
Q 16.703125 10.84375 15.234375 8.453125 
z
" id="ArialMT-32"/>
      </defs>
      <g style="fill:#262626;" transform="translate(48.306939 116.793594)scale(0.11 -0.11)">
       <use xlink:href="#ArialMT-32"/>
      </g>
     </g>
    </g>
    <g id="xtick_2">
     <g id="line2d_2">
      <g>
       <use style="fill:#262626;stroke:#262626;stroke-width:0.8;" x="66.427273" xlink:href="#m91c8b5e980" y="101.92"/>
      </g>
     </g>
     <g id="text_2">
      <!-- 4 -->
      <defs>
       <path d="M 32.328125 0 
L 32.328125 17.140625 
L 1.265625 17.140625 
L 1.265625 25.203125 
L 33.9375 71.578125 
L 41.109375 71.578125 
L 41.109375 25.203125 
L 50.78125 25.203125 
L 50.78125 17.140625 
L 41.109375 17.140625 
L 41.109375 0 
z
M 32.328125 25.203125 
L 32.328125 57.46875 
L 9.90625 25.203125 
z
" id="ArialMT-34"/>
      </defs>
      <g style="fill:#262626;" transform="translate(63.368757 116.793594)scale(0.11 -0.11)">
       <use xlink:href="#ArialMT-34"/>
      </g>
     </g>
    </g>
    <g id="xtick_3">
     <g id="line2d_3">
      <g>
       <use style="fill:#262626;stroke:#262626;stroke-width:0.8;" x="81.489091" xlink:href="#m91c8b5e980" y="101.92"/>
      </g>
     </g>
     <g id="text_3">
      <!-- 6 -->
      <defs>
       <path d="M 49.75 54.046875 
L 41.015625 53.375 
Q 39.84375 58.546875 37.703125 60.890625 
Q 34.125 64.65625 28.90625 64.65625 
Q 24.703125 64.65625 21.53125 62.3125 
Q 17.390625 59.28125 14.984375 53.46875 
Q 12.59375 47.65625 12.5 36.921875 
Q 15.671875 41.75 20.265625 44.09375 
Q 24.859375 46.4375 29.890625 46.4375 
Q 38.671875 46.4375 44.84375 39.96875 
Q 51.03125 33.5 51.03125 23.25 
Q 51.03125 16.5 48.125 10.71875 
Q 45.21875 4.9375 40.140625 1.859375 
Q 35.0625 -1.21875 28.609375 -1.21875 
Q 17.625 -1.21875 10.6875 6.859375 
Q 3.765625 14.9375 3.765625 33.5 
Q 3.765625 54.25 11.421875 63.671875 
Q 18.109375 71.875 29.4375 71.875 
Q 37.890625 71.875 43.28125 67.140625 
Q 48.6875 62.40625 49.75 54.046875 
z
M 13.875 23.1875 
Q 13.875 18.65625 15.796875 14.5 
Q 17.71875 10.359375 21.1875 8.171875 
Q 24.65625 6 28.46875 6 
Q 34.03125 6 38.03125 10.484375 
Q 42.046875 14.984375 42.046875 22.703125 
Q 42.046875 30.125 38.078125 34.390625 
Q 34.125 38.671875 28.125 38.671875 
Q 22.171875 38.671875 18.015625 34.390625 
Q 13.875 30.125 13.875 23.1875 
z
" id="ArialMT-36"/>
      </defs>
      <g style="fill:#262626;" transform="translate(78.430575 116.793594)scale(0.11 -0.11)">
       <use xlink:href="#ArialMT-36"/>
      </g>
     </g>
    </g>
    <g id="xtick_4">
     <g id="line2d_4">
      <g>
       <use style="fill:#262626;stroke:#262626;stroke-width:0.8;" x="96.550909" xlink:href="#m91c8b5e980" y="101.92"/>
      </g>
     </g>
     <g id="text_4">
      <!-- 8 -->
      <defs>
       <path d="M 17.671875 38.8125 
Q 12.203125 40.828125 9.5625 44.53125 
Q 6.9375 48.25 6.9375 53.421875 
Q 6.9375 61.234375 12.546875 66.546875 
Q 18.171875 71.875 27.484375 71.875 
Q 36.859375 71.875 42.578125 66.421875 
Q 48.296875 60.984375 48.296875 53.171875 
Q 48.296875 48.1875 45.671875 44.5 
Q 43.0625 40.828125 37.75 38.8125 
Q 44.34375 36.671875 47.78125 31.875 
Q 51.21875 27.09375 51.21875 20.453125 
Q 51.21875 11.28125 44.71875 5.03125 
Q 38.234375 -1.21875 27.640625 -1.21875 
Q 17.046875 -1.21875 10.546875 5.046875 
Q 4.046875 11.328125 4.046875 20.703125 
Q 4.046875 27.6875 7.59375 32.390625 
Q 11.140625 37.109375 17.671875 38.8125 
z
M 15.921875 53.71875 
Q 15.921875 48.640625 19.1875 45.40625 
Q 22.46875 42.1875 27.6875 42.1875 
Q 32.765625 42.1875 36.015625 45.375 
Q 39.265625 48.578125 39.265625 53.21875 
Q 39.265625 58.0625 35.90625 61.359375 
Q 32.5625 64.65625 27.59375 64.65625 
Q 22.5625 64.65625 19.234375 61.421875 
Q 15.921875 58.203125 15.921875 53.71875 
z
M 13.09375 20.65625 
Q 13.09375 16.890625 14.875 13.375 
Q 16.65625 9.859375 20.171875 7.921875 
Q 23.6875 6 27.734375 6 
Q 34.03125 6 38.125 10.046875 
Q 42.234375 14.109375 42.234375 20.359375 
Q 42.234375 26.703125 38.015625 30.859375 
Q 33.796875 35.015625 27.4375 35.015625 
Q 21.234375 35.015625 17.15625 30.90625 
Q 13.09375 26.8125 13.09375 20.65625 
z
" id="ArialMT-38"/>
      </defs>
      <g style="fill:#262626;" transform="translate(93.492393 116.793594)scale(0.11 -0.11)">
       <use xlink:href="#ArialMT-38"/>
      </g>
     </g>
    </g>
    <g id="xtick_5">
     <g id="line2d_5">
      <g>
       <use style="fill:#262626;stroke:#262626;stroke-width:0.8;" x="111.612727" xlink:href="#m91c8b5e980" y="101.92"/>
      </g>
     </g>
     <g id="text_5">
      <!-- 10 -->
      <defs>
       <path d="M 37.25 0 
L 28.46875 0 
L 28.46875 56 
Q 25.296875 52.984375 20.140625 49.953125 
Q 14.984375 46.921875 10.890625 45.40625 
L 10.890625 53.90625 
Q 18.265625 57.375 23.78125 62.296875 
Q 29.296875 67.234375 31.59375 71.875 
L 37.25 71.875 
z
" id="ArialMT-31"/>
       <path d="M 4.15625 35.296875 
Q 4.15625 48 6.765625 55.734375 
Q 9.375 63.484375 14.515625 67.671875 
Q 19.671875 71.875 27.484375 71.875 
Q 33.25 71.875 37.59375 69.546875 
Q 41.9375 67.234375 44.765625 62.859375 
Q 47.609375 58.5 49.21875 52.21875 
Q 50.828125 45.953125 50.828125 35.296875 
Q 50.828125 22.703125 48.234375 14.96875 
Q 45.65625 7.234375 40.5 3 
Q 35.359375 -1.21875 27.484375 -1.21875 
Q 17.140625 -1.21875 11.234375 6.203125 
Q 4.15625 15.140625 4.15625 35.296875 
z
M 13.1875 35.296875 
Q 13.1875 17.671875 17.3125 11.828125 
Q 21.4375 6 27.484375 6 
Q 33.546875 6 37.671875 11.859375 
Q 41.796875 17.71875 41.796875 35.296875 
Q 41.796875 52.984375 37.671875 58.78125 
Q 33.546875 64.59375 27.390625 64.59375 
Q 21.34375 64.59375 17.71875 59.46875 
Q 13.1875 52.9375 13.1875 35.296875 
z
" id="ArialMT-30"/>
      </defs>
      <g style="fill:#262626;" transform="translate(105.495696 116.793594)scale(0.11 -0.11)">
       <use xlink:href="#ArialMT-31"/>
       <use x="55.615234" xlink:href="#ArialMT-30"/>
      </g>
     </g>
    </g>
    <g id="xtick_6">
     <g id="line2d_6">
      <g>
       <use style="fill:#262626;stroke:#262626;stroke-width:0.8;" x="126.674545" xlink:href="#m91c8b5e980" y="101.92"/>
      </g>
     </g>
     <g id="text_6">
      <!-- 12 -->
      <g style="fill:#262626;" transform="translate(120.557514 116.793594)scale(0.11 -0.11)">
       <use xlink:href="#ArialMT-31"/>
       <use x="55.615234" xlink:href="#ArialMT-32"/>
      </g>
     </g>
    </g>
    <g id="text_7">
     <!-- pH -->
     <defs>
      <path d="M 6.59375 -19.875 
L 6.59375 51.859375 
L 14.59375 51.859375 
L 14.59375 45.125 
Q 17.4375 49.078125 21 51.046875 
Q 24.5625 53.03125 29.640625 53.03125 
Q 36.28125 53.03125 41.359375 49.609375 
Q 46.4375 46.1875 49.015625 39.953125 
Q 51.609375 33.734375 51.609375 26.3125 
Q 51.609375 18.359375 48.75 11.984375 
Q 45.90625 5.609375 40.453125 2.21875 
Q 35.015625 -1.171875 29 -1.171875 
Q 24.609375 -1.171875 21.109375 0.6875 
Q 17.625 2.546875 15.375 5.375 
L 15.375 -19.875 
z
M 14.546875 25.640625 
Q 14.546875 15.625 18.59375 10.84375 
Q 22.65625 6.0625 28.421875 6.0625 
Q 34.28125 6.0625 38.453125 11.015625 
Q 42.625 15.96875 42.625 26.375 
Q 42.625 36.28125 38.546875 41.203125 
Q 34.46875 46.140625 28.8125 46.140625 
Q 23.1875 46.140625 18.859375 40.890625 
Q 14.546875 35.640625 14.546875 25.640625 
z
" id="ArialMT-70"/>
      <path d="M 8.015625 0 
L 8.015625 71.578125 
L 17.484375 71.578125 
L 17.484375 42.1875 
L 54.6875 42.1875 
L 54.6875 71.578125 
L 64.15625 71.578125 
L 64.15625 0 
L 54.6875 0 
L 54.6875 33.734375 
L 17.484375 33.734375 
L 17.484375 0 
z
" id="ArialMT-48"/>
     </defs>
     <g style="fill:#262626;" transform="translate(81.989453 130.853437)scale(0.11 -0.11)">
      <use xlink:href="#ArialMT-70"/>
      <use x="55.615234" xlink:href="#ArialMT-48"/>
     </g>
    </g>
   </g>
   <g id="matplotlib.axis_2">
    <g id="ytick_1">
     <g id="line2d_7">
      <defs>
       <path d="M 0 0 
L -3.5 0 
" id="m9f94dff1b2" style="stroke:#262626;stroke-width:0.8;"/>
      </defs>
      <g>
       <use style="fill:#262626;stroke:#262626;stroke-width:0.8;" x="47.6" xlink:href="#m9f94dff1b2" y="92.743815"/>
      </g>
     </g>
     <g id="text_8">
      <!-- 0 -->
      <g style="fill:#262626;" transform="translate(34.482969 96.680612)scale(0.11 -0.11)">
       <use xlink:href="#ArialMT-30"/>
      </g>
     </g>
    </g>
    <g id="ytick_2">
     <g id="line2d_8">
      <g>
       <use style="fill:#262626;stroke:#262626;stroke-width:0.8;" x="47.6" xlink:href="#m9f94dff1b2" y="70.222387"/>
      </g>
     </g>
     <g id="text_9">
      <!-- 20 -->
      <g style="fill:#262626;" transform="translate(28.365938 74.159184)scale(0.11 -0.11)">
       <use xlink:href="#ArialMT-32"/>
       <use x="55.615234" xlink:href="#ArialMT-30"/>
      </g>
     </g>
    </g>
    <g id="ytick_3">
     <g id="line2d_9">
      <g>
       <use style="fill:#262626;stroke:#262626;stroke-width:0.8;" x="47.6" xlink:href="#m9f94dff1b2" y="47.70096"/>
      </g>
     </g>
     <g id="text_10">
      <!-- 40 -->
      <g style="fill:#262626;" transform="translate(28.365938 51.637757)scale(0.11 -0.11)">
       <use xlink:href="#ArialMT-34"/>
       <use x="55.615234" xlink:href="#ArialMT-30"/>
      </g>
     </g>
    </g>
    <g id="ytick_4">
     <g id="line2d_10">
      <g>
       <use style="fill:#262626;stroke:#262626;stroke-width:0.8;" x="47.6" xlink:href="#m9f94dff1b2" y="25.179532"/>
      </g>
     </g>
     <g id="text_11">
      <!-- 60 -->
      <g style="fill:#262626;" transform="translate(28.365938 29.116329)scale(0.11 -0.11)">
       <use xlink:href="#ArialMT-36"/>
       <use x="55.615234" xlink:href="#ArialMT-30"/>
      </g>
     </g>
    </g>
    <g id="text_12">
     <!-- Free energy ($k_B T$) -->
     <defs>
      <path d="M 8.203125 0 
L 8.203125 71.578125 
L 56.5 71.578125 
L 56.5 63.140625 
L 17.671875 63.140625 
L 17.671875 40.96875 
L 51.265625 40.96875 
L 51.265625 32.515625 
L 17.671875 32.515625 
L 17.671875 0 
z
" id="ArialMT-46"/>
      <path d="M 6.5 0 
L 6.5 51.859375 
L 14.40625 51.859375 
L 14.40625 44 
Q 17.4375 49.515625 20 51.265625 
Q 22.5625 53.03125 25.640625 53.03125 
Q 30.078125 53.03125 34.671875 50.203125 
L 31.640625 42.046875 
Q 28.421875 43.953125 25.203125 43.953125 
Q 22.3125 43.953125 20.015625 42.21875 
Q 17.71875 40.484375 16.75 37.40625 
Q 15.28125 32.71875 15.28125 27.15625 
L 15.28125 0 
z
" id="ArialMT-72"/>
      <path d="M 42.09375 16.703125 
L 51.171875 15.578125 
Q 49.03125 7.625 43.21875 3.21875 
Q 37.40625 -1.171875 28.375 -1.171875 
Q 17 -1.171875 10.328125 5.828125 
Q 3.65625 12.84375 3.65625 25.484375 
Q 3.65625 38.578125 10.390625 45.796875 
Q 17.140625 53.03125 27.875 53.03125 
Q 38.28125 53.03125 44.875 45.953125 
Q 51.46875 38.875 51.46875 26.03125 
Q 51.46875 25.25 51.421875 23.6875 
L 12.75 23.6875 
Q 13.234375 15.140625 17.578125 10.59375 
Q 21.921875 6.0625 28.421875 6.0625 
Q 33.25 6.0625 36.671875 8.59375 
Q 40.09375 11.140625 42.09375 16.703125 
z
M 13.234375 30.90625 
L 42.1875 30.90625 
Q 41.609375 37.453125 38.875 40.71875 
Q 34.671875 45.796875 27.984375 45.796875 
Q 21.921875 45.796875 17.796875 41.75 
Q 13.671875 37.703125 13.234375 30.90625 
z
" id="ArialMT-65"/>
      <path id="ArialMT-20"/>
      <path d="M 6.59375 0 
L 6.59375 51.859375 
L 14.5 51.859375 
L 14.5 44.484375 
Q 20.21875 53.03125 31 53.03125 
Q 35.6875 53.03125 39.625 51.34375 
Q 43.5625 49.65625 45.515625 46.921875 
Q 47.46875 44.1875 48.25 40.4375 
Q 48.734375 37.984375 48.734375 31.890625 
L 48.734375 0 
L 39.9375 0 
L 39.9375 31.546875 
Q 39.9375 36.921875 38.90625 39.578125 
Q 37.890625 42.234375 35.28125 43.8125 
Q 32.671875 45.40625 29.15625 45.40625 
Q 23.53125 45.40625 19.453125 41.84375 
Q 15.375 38.28125 15.375 28.328125 
L 15.375 0 
z
" id="ArialMT-6e"/>
      <path d="M 4.984375 -4.296875 
L 13.53125 -5.5625 
Q 14.0625 -9.515625 16.5 -11.328125 
Q 19.78125 -13.765625 25.4375 -13.765625 
Q 31.546875 -13.765625 34.859375 -11.328125 
Q 38.1875 -8.890625 39.359375 -4.5 
Q 40.046875 -1.8125 39.984375 6.78125 
Q 34.234375 0 25.640625 0 
Q 14.9375 0 9.078125 7.71875 
Q 3.21875 15.4375 3.21875 26.21875 
Q 3.21875 33.640625 5.90625 39.90625 
Q 8.59375 46.1875 13.6875 49.609375 
Q 18.796875 53.03125 25.6875 53.03125 
Q 34.859375 53.03125 40.828125 45.609375 
L 40.828125 51.859375 
L 48.921875 51.859375 
L 48.921875 7.03125 
Q 48.921875 -5.078125 46.453125 -10.125 
Q 44 -15.1875 38.640625 -18.109375 
Q 33.296875 -21.046875 25.484375 -21.046875 
Q 16.21875 -21.046875 10.5 -16.875 
Q 4.78125 -12.703125 4.984375 -4.296875 
z
M 12.25 26.859375 
Q 12.25 16.65625 16.296875 11.96875 
Q 20.359375 7.28125 26.46875 7.28125 
Q 32.515625 7.28125 36.609375 11.9375 
Q 40.71875 16.609375 40.71875 26.5625 
Q 40.71875 36.078125 36.5 40.90625 
Q 32.28125 45.75 26.3125 45.75 
Q 20.453125 45.75 16.34375 40.984375 
Q 12.25 36.234375 12.25 26.859375 
z
" id="ArialMT-67"/>
      <path d="M 6.203125 -19.96875 
L 5.21875 -11.71875 
Q 8.109375 -12.5 10.25 -12.5 
Q 13.1875 -12.5 14.9375 -11.515625 
Q 16.703125 -10.546875 17.828125 -8.796875 
Q 18.65625 -7.46875 20.515625 -2.25 
Q 20.75 -1.515625 21.296875 -0.09375 
L 1.609375 51.859375 
L 11.078125 51.859375 
L 21.875 21.828125 
Q 23.96875 16.109375 25.640625 9.8125 
Q 27.15625 15.875 29.25 21.625 
L 40.328125 51.859375 
L 49.125 51.859375 
L 29.390625 -0.875 
Q 26.21875 -9.421875 24.46875 -12.640625 
Q 22.125 -17 19.09375 -19.015625 
Q 16.0625 -21.046875 11.859375 -21.046875 
Q 9.328125 -21.046875 6.203125 -19.96875 
z
" id="ArialMT-79"/>
      <path d="M 23.390625 -21.046875 
Q 16.109375 -11.859375 11.078125 0.4375 
Q 6.0625 12.75 6.0625 25.921875 
Q 6.0625 37.546875 9.8125 48.1875 
Q 14.203125 60.546875 23.390625 72.796875 
L 29.6875 72.796875 
Q 23.78125 62.640625 21.875 58.296875 
Q 18.890625 51.5625 17.1875 44.234375 
Q 15.09375 35.109375 15.09375 25.875 
Q 15.09375 2.390625 29.6875 -21.046875 
z
" id="ArialMT-28"/>
      <path d="M 18.3125 75.984375 
L 27.296875 75.984375 
L 18.703125 31.6875 
L 49.515625 54.6875 
L 61.1875 54.6875 
L 26.8125 28.515625 
L 51.90625 0 
L 41.015625 0 
L 17.671875 26.703125 
L 12.5 0 
L 3.515625 0 
z
" id="DejaVuSans-Oblique-6b"/>
      <path d="M 16.890625 72.90625 
L 42.09375 72.90625 
Q 52.34375 72.90625 57.421875 69.09375 
Q 62.5 65.28125 62.5 57.625 
Q 62.5 50.59375 58.125 45.484375 
Q 53.765625 40.375 46.6875 39.3125 
Q 52.734375 37.9375 55.765625 34.078125 
Q 58.796875 30.21875 58.796875 23.78125 
Q 58.796875 12.796875 50.65625 6.390625 
Q 42.53125 0 28.421875 0 
L 2.6875 0 
z
M 19.28125 34.8125 
L 14.109375 8.109375 
L 29.984375 8.109375 
Q 38.921875 8.109375 43.75 12.203125 
Q 48.578125 16.3125 48.578125 23.78125 
Q 48.578125 29.546875 45.375 32.171875 
Q 42.1875 34.8125 35.109375 34.8125 
z
M 25.09375 64.796875 
L 20.796875 42.828125 
L 35.5 42.828125 
Q 43.359375 42.828125 47.78125 46.234375 
Q 52.203125 49.65625 52.203125 55.71875 
Q 52.203125 60.453125 49.21875 62.625 
Q 46.234375 64.796875 39.703125 64.796875 
z
" id="DejaVuSans-Oblique-42"/>
      <path d="M 5.90625 72.90625 
L 67.578125 72.90625 
L 66.015625 64.59375 
L 39.984375 64.59375 
L 27.484375 0 
L 17.578125 0 
L 30.078125 64.59375 
L 4.296875 64.59375 
z
" id="DejaVuSans-Oblique-54"/>
      <path d="M 12.359375 -21.046875 
L 6.0625 -21.046875 
Q 20.65625 2.390625 20.65625 25.875 
Q 20.65625 35.0625 18.5625 44.09375 
Q 16.890625 51.421875 13.921875 58.15625 
Q 12.015625 62.546875 6.0625 72.796875 
L 12.359375 72.796875 
Q 21.53125 60.546875 25.921875 48.1875 
Q 29.6875 37.546875 29.6875 25.921875 
Q 29.6875 12.75 24.625 0.4375 
Q 19.578125 -11.859375 12.359375 -21.046875 
z
" id="ArialMT-29"/>
     </defs>
     <g style="fill:#262626;" transform="translate(21.945938 101.96)rotate(-90)scale(0.11 -0.11)">
      <use transform="translate(0 0.015625)" xlink:href="#ArialMT-46"/>
      <use transform="translate(61.083984 0.015625)" xlink:href="#ArialMT-72"/>
      <use transform="translate(94.384766 0.015625)" xlink:href="#ArialMT-65"/>
      <use transform="translate(150 0.015625)" xlink:href="#ArialMT-65"/>
      <use transform="translate(205.615234 0.015625)" xlink:href="#ArialMT-20"/>
      <use transform="translate(233.398438 0.015625)" xlink:href="#ArialMT-65"/>
      <use transform="translate(289.013672 0.015625)" xlink:href="#ArialMT-6e"/>
      <use transform="translate(344.628906 0.015625)" xlink:href="#ArialMT-65"/>
      <use transform="translate(400.244141 0.015625)" xlink:href="#ArialMT-72"/>
      <use transform="translate(433.544922 0.015625)" xlink:href="#ArialMT-67"/>
      <use transform="translate(489.160156 0.015625)" xlink:href="#ArialMT-79"/>
      <use transform="translate(539.160156 0.015625)" xlink:href="#ArialMT-20"/>
      <use transform="translate(566.943359 0.015625)" xlink:href="#ArialMT-28"/>
      <use transform="translate(600.244141 0.015625)" xlink:href="#DejaVuSans-Oblique-6b"/>
      <use transform="translate(658.154297 -16.390625)scale(0.7)" xlink:href="#DejaVuSans-Oblique-42"/>
      <use transform="translate(708.911133 0.015625)" xlink:href="#DejaVuSans-Oblique-54"/>
      <use transform="translate(769.995117 0.015625)" xlink:href="#ArialMT-29"/>
     </g>
    </g>
   </g>
   <g id="patch_3">
    <path d="M 47.6 101.92 
L 47.6 13.56 
" style="fill:none;stroke:#262626;stroke-linecap:square;stroke-linejoin:miter;stroke-width:0.8;"/>
   </g>
   <g id="patch_4">
    <path d="M 47.6 101.92 
L 130.44 101.92 
" style="fill:none;stroke:#262626;stroke-linecap:square;stroke-linejoin:miter;stroke-width:0.8;"/>
   </g>
   <g id="line2d_11">
    <path clip-path="url(#p60dadd17d9)" d="M 51.365455 94.040252 
L 52.118545 93.521677 
L 52.871636 93.003102 
L 53.624727 92.484527 
L 54.377818 91.965952 
L 55.130909 91.447377 
L 55.884 90.928802 
L 56.637091 90.410227 
L 57.390182 89.891652 
L 58.143273 89.373077 
L 58.896364 88.854502 
L 59.649455 88.335927 
L 60.402545 87.817352 
L 61.155636 87.298777 
L 61.908727 86.780202 
L 62.661818 86.261627 
L 63.414909 85.743052 
L 64.168 85.224477 
L 64.921091 84.705902 
L 65.674182 84.187327 
L 66.427273 83.668752 
L 67.180364 83.150177 
L 67.933455 82.631602 
L 68.686545 82.113027 
L 69.439636 81.594452 
L 70.192727 81.075877 
L 70.945818 80.557301 
L 71.698909 80.038726 
L 72.452 79.520151 
L 73.205091 79.001576 
L 73.958182 78.483001 
L 74.711273 77.964426 
L 75.464364 77.445851 
L 76.217455 76.927276 
L 76.970545 76.408701 
L 77.723636 75.890126 
L 78.476727 75.371551 
L 79.229818 74.852976 
L 79.982909 74.334401 
L 80.736 73.815826 
L 81.489091 73.297251 
L 82.242182 72.778676 
L 82.995273 72.260101 
L 83.748364 71.741526 
L 84.501455 71.222951 
L 85.254545 70.704376 
L 86.007636 70.185801 
L 86.760727 69.667226 
L 87.513818 69.148651 
L 88.266909 68.630076 
L 89.02 68.111501 
L 89.773091 67.592926 
L 90.526182 67.074351 
L 91.279273 66.555776 
L 92.032364 66.037201 
L 92.785455 65.518626 
L 93.538545 65.00005 
L 94.291636 64.481475 
L 95.044727 63.9629 
L 95.797818 63.444325 
L 96.550909 62.92575 
L 97.304 62.407175 
L 98.057091 61.8886 
L 98.810182 61.370025 
L 99.563273 60.85145 
L 100.316364 60.332875 
L 101.069455 59.8143 
L 101.822545 59.295725 
L 102.575636 58.77715 
L 103.328727 58.258575 
L 104.081818 57.74 
L 104.834909 57.221425 
L 105.588 56.70285 
L 106.341091 56.184275 
L 107.094182 55.6657 
L 107.847273 55.147125 
L 108.600364 54.62855 
L 109.353455 54.109975 
L 110.106545 53.5914 
L 110.859636 53.072825 
L 111.612727 52.55425 
L 112.365818 52.035675 
L 113.118909 51.5171 
L 113.872 50.998525 
L 114.625091 50.47995 
L 115.378182 49.961374 
L 116.131273 49.442799 
L 116.884364 48.924224 
L 117.637455 48.405649 
L 118.390545 47.887074 
L 119.143636 47.368499 
L 119.896727 46.849924 
L 120.649818 46.331349 
L 121.402909 45.812774 
L 122.156 45.294199 
L 122.909091 44.775624 
L 123.662182 44.257049 
L 124.415273 43.738474 
L 125.168364 43.219899 
L 125.921455 42.701324 
L 126.674545 42.182749 
" style="fill:none;stroke:#4393c3;stroke-linecap:round;stroke-width:1.5;"/>
   </g>
   <g id="line2d_12">
    <path clip-path="url(#p60dadd17d9)" d="M 51.365455 94.455112 
L 52.118545 93.936537 
L 52.871636 93.417962 
L 53.624727 92.899387 
L 54.377818 92.380812 
L 55.130909 91.862237 
L 55.884 91.343662 
L 56.637091 90.825087 
L 57.390182 90.306512 
L 58.143273 89.787937 
L 58.896364 89.269362 
L 59.649455 88.750787 
L 60.402545 88.232212 
L 61.155636 87.713637 
L 61.908727 87.195062 
L 62.661818 86.676487 
L 63.414909 86.157912 
L 64.168 85.639337 
L 64.921091 85.120762 
L 65.674182 84.602187 
L 66.427273 84.083612 
L 67.180364 83.565037 
L 67.933455 83.046462 
L 68.686545 82.527887 
L 69.439636 82.009312 
L 70.192727 81.490737 
L 70.945818 80.972162 
L 71.698909 80.453586 
L 72.452 79.935011 
L 73.205091 79.416436 
L 73.958182 78.897861 
L 74.711273 78.379286 
L 75.464364 77.860711 
L 76.217455 77.342136 
L 76.970545 76.823561 
L 77.723636 76.304986 
L 78.476727 75.786411 
L 79.229818 75.267836 
L 79.982909 74.749261 
L 80.736 74.230686 
L 81.489091 73.712111 
L 82.242182 73.193536 
L 82.995273 72.674961 
L 83.748364 72.156386 
L 84.501455 71.637811 
L 85.254545 71.119236 
L 86.007636 70.600661 
L 86.760727 70.082086 
L 87.513818 69.563511 
L 88.266909 69.044936 
L 89.02 68.526361 
L 89.773091 68.007786 
L 90.526182 67.489211 
L 91.279273 66.970636 
L 92.032364 66.452061 
L 92.785455 65.933486 
L 93.538545 65.41491 
L 94.291636 64.896335 
L 95.044727 64.37776 
L 95.797818 63.859185 
L 96.550909 63.34061 
L 97.304 62.822035 
L 98.057091 62.30346 
L 98.810182 61.784885 
L 99.563273 61.26631 
L 100.316364 60.747735 
L 101.069455 60.22916 
L 101.822545 59.710585 
L 102.575636 59.19201 
L 103.328727 58.673435 
L 104.081818 58.15486 
L 104.834909 57.636285 
L 105.588 57.11771 
L 106.341091 56.599135 
L 107.094182 56.08056 
L 107.847273 55.561985 
L 108.600364 55.04341 
L 109.353455 54.524835 
L 110.106545 54.00626 
L 110.859636 53.487685 
L 111.612727 52.96911 
L 112.365818 52.450535 
L 113.118909 51.93196 
L 113.872 51.413385 
L 114.625091 50.89481 
L 115.378182 50.376235 
L 116.131273 49.857659 
L 116.884364 49.339084 
L 117.637455 48.820509 
L 118.390545 48.301934 
L 119.143636 47.783359 
L 119.896727 47.264784 
L 120.649818 46.746209 
L 121.402909 46.227634 
L 122.156 45.709059 
L 122.909091 45.190484 
L 123.662182 44.671909 
L 124.415273 44.153334 
L 125.168364 43.634759 
L 125.921455 43.116184 
L 126.674545 42.597609 
" style="fill:none;stroke:#4393c3;stroke-linecap:round;stroke-width:1.5;"/>
   </g>
   <g id="line2d_13">
    <path clip-path="url(#p60dadd17d9)" d="M 51.365455 71.145165 
L 52.118545 71.404452 
L 52.871636 71.66374 
L 53.624727 71.923027 
L 54.377818 72.182315 
L 55.130909 72.441602 
L 55.884 72.70089 
L 56.637091 72.960177 
L 57.390182 73.219465 
L 58.143273 73.478752 
L 58.896364 73.73804 
L 59.649455 73.997327 
L 60.402545 74.256615 
L 61.155636 74.515902 
L 61.908727 74.77519 
L 62.661818 75.034477 
L 63.414909 75.293765 
L 64.168 75.553052 
L 64.921091 75.81234 
L 65.674182 76.071627 
L 66.427273 76.330915 
L 67.180364 76.590202 
L 67.933455 76.84949 
L 68.686545 77.108778 
L 69.439636 77.368065 
L 70.192727 77.627353 
L 70.945818 77.88664 
L 71.698909 78.145928 
L 72.452 78.405215 
L 73.205091 78.664503 
L 73.958182 78.92379 
L 74.711273 79.183078 
L 75.464364 79.442365 
L 76.217455 79.701653 
L 76.970545 79.96094 
L 77.723636 80.220228 
L 78.476727 80.479515 
L 79.229818 80.738803 
L 79.982909 80.99809 
L 80.736 81.257378 
L 81.489091 81.516665 
L 82.242182 81.775953 
L 82.995273 82.03524 
L 83.748364 82.294528 
L 84.501455 82.553815 
L 85.254545 82.813103 
L 86.007636 83.07239 
L 86.760727 83.331678 
L 87.513818 83.590965 
L 88.266909 83.850253 
L 89.02 84.10954 
L 89.773091 84.368828 
L 90.526182 84.628115 
L 91.279273 84.887403 
L 92.032364 85.146691 
L 92.785455 85.405978 
L 93.538545 85.665266 
L 94.291636 85.924553 
L 95.044727 86.183841 
L 95.797818 86.443128 
L 96.550909 86.702416 
L 97.304 86.961703 
L 98.057091 87.220991 
L 98.810182 87.480278 
L 99.563273 87.739566 
L 100.316364 87.998853 
L 101.069455 88.258141 
L 101.822545 88.517428 
L 102.575636 88.776716 
L 103.328727 89.036003 
L 104.081818 89.295291 
L 104.834909 89.554578 
L 105.588 89.813866 
L 106.341091 90.073153 
L 107.094182 90.332441 
L 107.847273 90.591728 
L 108.600364 90.851016 
L 109.353455 91.110303 
L 110.106545 91.369591 
L 110.859636 91.628878 
L 111.612727 91.888166 
L 112.365818 92.147453 
L 113.118909 92.406741 
L 113.872 92.666029 
L 114.625091 92.925316 
L 115.378182 93.184604 
L 116.131273 93.443891 
L 116.884364 93.703179 
L 117.637455 93.962466 
L 118.390545 94.221754 
L 119.143636 94.481041 
L 119.896727 94.740329 
L 120.649818 94.999616 
L 121.402909 95.258904 
L 122.156 95.518191 
L 122.909091 95.777479 
L 123.662182 96.036766 
L 124.415273 96.296054 
L 125.168364 96.555341 
L 125.921455 96.814629 
L 126.674545 97.073916 
" style="fill:none;stroke:#f4a582;stroke-linecap:round;stroke-width:1.5;"/>
   </g>
   <g id="line2d_14">
    <path clip-path="url(#p60dadd17d9)" d="M 51.365455 83.720609 
L 52.118545 83.461322 
L 52.871636 83.202034 
L 53.624727 82.942747 
L 54.377818 82.683459 
L 55.130909 82.424172 
L 55.884 82.164884 
L 56.637091 81.905597 
L 57.390182 81.646309 
L 58.143273 81.387022 
L 58.896364 81.127734 
L 59.649455 80.868447 
L 60.402545 80.609159 
L 61.155636 80.349871 
L 61.908727 80.090584 
L 62.661818 79.831296 
L 63.414909 79.572009 
L 64.168 79.312721 
L 64.921091 79.053434 
L 65.674182 78.794146 
L 66.427273 78.534859 
L 67.180364 78.275571 
L 67.933455 78.016284 
L 68.686545 77.756996 
L 69.439636 77.497709 
L 70.192727 77.238421 
L 70.945818 76.979134 
L 71.698909 76.719846 
L 72.452 76.460559 
L 73.205091 76.201271 
L 73.958182 75.941984 
L 74.711273 75.682696 
L 75.464364 75.423409 
L 76.217455 75.164121 
L 76.970545 74.904834 
L 77.723636 74.645546 
L 78.476727 74.386259 
L 79.229818 74.126971 
L 79.982909 73.867684 
L 80.736 73.608396 
L 81.489091 73.349109 
L 82.242182 73.089821 
L 82.995273 72.830533 
L 83.748364 72.571246 
L 84.501455 72.311958 
L 85.254545 72.052671 
L 86.007636 71.793383 
L 86.760727 71.534096 
L 87.513818 71.274808 
L 88.266909 71.015521 
L 89.02 70.756233 
L 89.773091 70.496946 
L 90.526182 70.237658 
L 91.279273 69.978371 
L 92.032364 69.719083 
L 92.785455 69.459796 
L 93.538545 69.200508 
L 94.291636 68.941221 
L 95.044727 68.681933 
L 95.797818 68.422646 
L 96.550909 68.163358 
L 97.304 67.904071 
L 98.057091 67.644783 
L 98.810182 67.385496 
L 99.563273 67.126208 
L 100.316364 66.866921 
L 101.069455 66.607633 
L 101.822545 66.348346 
L 102.575636 66.089058 
L 103.328727 65.829771 
L 104.081818 65.570483 
L 104.834909 65.311195 
L 105.588 65.051908 
L 106.341091 64.79262 
L 107.094182 64.533333 
L 107.847273 64.274045 
L 108.600364 64.014758 
L 109.353455 63.75547 
L 110.106545 63.496183 
L 110.859636 63.236895 
L 111.612727 62.977608 
L 112.365818 62.71832 
L 113.118909 62.459033 
L 113.872 62.199745 
L 114.625091 61.940458 
L 115.378182 61.68117 
L 116.131273 61.421883 
L 116.884364 61.162595 
L 117.637455 60.903308 
L 118.390545 60.64402 
L 119.143636 60.384733 
L 119.896727 60.125445 
L 120.649818 59.866158 
L 121.402909 59.60687 
L 122.156 59.347583 
L 122.909091 59.088295 
L 123.662182 58.829008 
L 124.415273 58.56972 
L 125.168364 58.310433 
L 125.921455 58.051145 
L 126.674545 57.791858 
" style="fill:none;stroke:#92c5de;stroke-linecap:round;stroke-width:1.5;"/>
   </g>
   <g id="line2d_15">
    <path clip-path="url(#p60dadd17d9)" d="M 51.365455 88.854502 
L 52.118545 88.595215 
L 52.871636 88.335927 
L 53.624727 88.076639 
L 54.377818 87.817352 
L 55.130909 87.558064 
L 55.884 87.298777 
L 56.637091 87.039489 
L 57.390182 86.780202 
L 58.143273 86.520914 
L 58.896364 86.261627 
L 59.649455 86.002339 
L 60.402545 85.743052 
L 61.155636 85.483764 
L 61.908727 85.224477 
L 62.661818 84.965189 
L 63.414909 84.705902 
L 64.168 84.446614 
L 64.921091 84.187327 
L 65.674182 83.928039 
L 66.427273 83.668752 
L 67.180364 83.409464 
L 67.933455 83.150177 
L 68.686545 82.890889 
L 69.439636 82.631602 
L 70.192727 82.372314 
L 70.945818 82.113027 
L 71.698909 81.853739 
L 72.452 81.594452 
L 73.205091 81.335164 
L 73.958182 81.075877 
L 74.711273 80.816589 
L 75.464364 80.557301 
L 76.217455 80.298014 
L 76.970545 80.038726 
L 77.723636 79.779439 
L 78.476727 79.520151 
L 79.229818 79.260864 
L 79.982909 79.001576 
L 80.736 78.742289 
L 81.489091 78.483001 
L 82.242182 78.223714 
L 82.995273 77.964426 
L 83.748364 77.705139 
L 84.501455 77.445851 
L 85.254545 77.186564 
L 86.007636 76.927276 
L 86.760727 76.667989 
L 87.513818 76.408701 
L 88.266909 76.149414 
L 89.02 75.890126 
L 89.773091 75.630839 
L 90.526182 75.371551 
L 91.279273 75.112264 
L 92.032364 74.852976 
L 92.785455 74.593689 
L 93.538545 74.334401 
L 94.291636 74.075114 
L 95.044727 73.815826 
L 95.797818 73.556539 
L 96.550909 73.297251 
L 97.304 73.037963 
L 98.057091 72.778676 
L 98.810182 72.519388 
L 99.563273 72.260101 
L 100.316364 72.000813 
L 101.069455 71.741526 
L 101.822545 71.482238 
L 102.575636 71.222951 
L 103.328727 70.963663 
L 104.081818 70.704376 
L 104.834909 70.445088 
L 105.588 70.185801 
L 106.341091 69.926513 
L 107.094182 69.667226 
L 107.847273 69.407938 
L 108.600364 69.148651 
L 109.353455 68.889363 
L 110.106545 68.630076 
L 110.859636 68.370788 
L 111.612727 68.111501 
L 112.365818 67.852213 
L 113.118909 67.592926 
L 113.872 67.333638 
L 114.625091 67.074351 
L 115.378182 66.815063 
L 116.131273 66.555776 
L 116.884364 66.296488 
L 117.637455 66.037201 
L 118.390545 65.777913 
L 119.143636 65.518626 
L 119.896727 65.259338 
L 120.649818 65.00005 
L 121.402909 64.740763 
L 122.156 64.481475 
L 122.909091 64.222188 
L 123.662182 63.9629 
L 124.415273 63.703613 
L 125.168364 63.444325 
L 125.921455 63.185038 
L 126.674545 62.92575 
" style="fill:none;stroke:#92c5de;stroke-linecap:round;stroke-width:1.5;"/>
   </g>
   <g id="line2d_16">
    <path clip-path="url(#p60dadd17d9)" d="M 51.365455 97.903636 
L 52.118545 97.644349 
L 52.871636 97.385061 
L 53.624727 97.125774 
L 54.377818 96.866486 
L 55.130909 96.607199 
L 55.884 96.347911 
L 56.637091 96.088624 
L 57.390182 95.829336 
L 58.143273 95.570049 
L 58.896364 95.310761 
L 59.649455 95.051474 
L 60.402545 94.792186 
L 61.155636 94.532899 
L 61.908727 94.273611 
L 62.661818 94.014324 
L 63.414909 93.755036 
L 64.168 93.495749 
L 64.921091 93.236461 
L 65.674182 92.977174 
L 66.427273 92.717886 
L 67.180364 92.458599 
L 67.933455 92.199311 
L 68.686545 91.940023 
L 69.439636 91.680736 
L 70.192727 91.421448 
L 70.945818 91.162161 
L 71.698909 90.902873 
L 72.452 90.643586 
L 73.205091 90.384298 
L 73.958182 90.125011 
L 74.711273 89.865723 
L 75.464364 89.606436 
L 76.217455 89.347148 
L 76.970545 89.087861 
L 77.723636 88.828573 
L 78.476727 88.569286 
L 79.229818 88.309998 
L 79.982909 88.050711 
L 80.736 87.791423 
L 81.489091 87.532136 
L 82.242182 87.272848 
L 82.995273 87.013561 
L 83.748364 86.754273 
L 84.501455 86.494986 
L 85.254545 86.235698 
L 86.007636 85.976411 
L 86.760727 85.717123 
L 87.513818 85.457836 
L 88.266909 85.198548 
L 89.02 84.939261 
L 89.773091 84.679973 
L 90.526182 84.420685 
L 91.279273 84.161398 
L 92.032364 83.90211 
L 92.785455 83.642823 
L 93.538545 83.383535 
L 94.291636 83.124248 
L 95.044727 82.86496 
L 95.797818 82.605673 
L 96.550909 82.346385 
L 97.304 82.087098 
L 98.057091 81.82781 
L 98.810182 81.568523 
L 99.563273 81.309235 
L 100.316364 81.049948 
L 101.069455 80.79066 
L 101.822545 80.531373 
L 102.575636 80.272085 
L 103.328727 80.012798 
L 104.081818 79.75351 
L 104.834909 79.494223 
L 105.588 79.234935 
L 106.341091 78.975648 
L 107.094182 78.71636 
L 107.847273 78.457073 
L 108.600364 78.197785 
L 109.353455 77.938498 
L 110.106545 77.67921 
L 110.859636 77.419923 
L 111.612727 77.160635 
L 112.365818 76.901347 
L 113.118909 76.64206 
L 113.872 76.382772 
L 114.625091 76.123485 
L 115.378182 75.864197 
L 116.131273 75.60491 
L 116.884364 75.345622 
L 117.637455 75.086335 
L 118.390545 74.827047 
L 119.143636 74.56776 
L 119.896727 74.308472 
L 120.649818 74.049185 
L 121.402909 73.789897 
L 122.156 73.53061 
L 122.909091 73.271322 
L 123.662182 73.012035 
L 124.415273 72.752747 
L 125.168364 72.49346 
L 125.921455 72.234172 
L 126.674545 71.974885 
" style="fill:none;stroke:#92c5de;stroke-linecap:round;stroke-width:1.5;"/>
   </g>
   <g id="line2d_17">
    <path clip-path="url(#p60dadd17d9)" d="M 51.365455 89.295291 
L 52.118545 89.036003 
L 52.871636 88.776716 
L 53.624727 88.517428 
L 54.377818 88.258141 
L 55.130909 87.998853 
L 55.884 87.739566 
L 56.637091 87.480278 
L 57.390182 87.220991 
L 58.143273 86.961703 
L 58.896364 86.702416 
L 59.649455 86.443128 
L 60.402545 86.183841 
L 61.155636 85.924553 
L 61.908727 85.665266 
L 62.661818 85.405978 
L 63.414909 85.146691 
L 64.168 84.887403 
L 64.921091 84.628115 
L 65.674182 84.368828 
L 66.427273 84.10954 
L 67.180364 83.850253 
L 67.933455 83.590965 
L 68.686545 83.331678 
L 69.439636 83.07239 
L 70.192727 82.813103 
L 70.945818 82.553815 
L 71.698909 82.294528 
L 72.452 82.03524 
L 73.205091 81.775953 
L 73.958182 81.516665 
L 74.711273 81.257378 
L 75.464364 80.99809 
L 76.217455 80.738803 
L 76.970545 80.479515 
L 77.723636 80.220228 
L 78.476727 79.96094 
L 79.229818 79.701653 
L 79.982909 79.442365 
L 80.736 79.183078 
L 81.489091 78.92379 
L 82.242182 78.664503 
L 82.995273 78.405215 
L 83.748364 78.145928 
L 84.501455 77.88664 
L 85.254545 77.627353 
L 86.007636 77.368065 
L 86.760727 77.108778 
L 87.513818 76.84949 
L 88.266909 76.590202 
L 89.02 76.330915 
L 89.773091 76.071627 
L 90.526182 75.81234 
L 91.279273 75.553052 
L 92.032364 75.293765 
L 92.785455 75.034477 
L 93.538545 74.77519 
L 94.291636 74.515902 
L 95.044727 74.256615 
L 95.797818 73.997327 
L 96.550909 73.73804 
L 97.304 73.478752 
L 98.057091 73.219465 
L 98.810182 72.960177 
L 99.563273 72.70089 
L 100.316364 72.441602 
L 101.069455 72.182315 
L 101.822545 71.923027 
L 102.575636 71.66374 
L 103.328727 71.404452 
L 104.081818 71.145165 
L 104.834909 70.885877 
L 105.588 70.62659 
L 106.341091 70.367302 
L 107.094182 70.108015 
L 107.847273 69.848727 
L 108.600364 69.58944 
L 109.353455 69.330152 
L 110.106545 69.070864 
L 110.859636 68.811577 
L 111.612727 68.552289 
L 112.365818 68.293002 
L 113.118909 68.033714 
L 113.872 67.774427 
L 114.625091 67.515139 
L 115.378182 67.255852 
L 116.131273 66.996564 
L 116.884364 66.737277 
L 117.637455 66.477989 
L 118.390545 66.218702 
L 119.143636 65.959414 
L 119.896727 65.700127 
L 120.649818 65.440839 
L 121.402909 65.181552 
L 122.156 64.922264 
L 122.909091 64.662977 
L 123.662182 64.403689 
L 124.415273 64.144402 
L 125.168364 63.885114 
L 125.921455 63.625827 
L 126.674545 63.366539 
" style="fill:none;stroke:#92c5de;stroke-linecap:round;stroke-width:1.5;"/>
   </g>
   <g id="line2d_18">
    <path clip-path="url(#p60dadd17d9)" d="M 51.365455 69.433867 
L 52.118545 68.915292 
L 52.871636 68.396717 
L 53.624727 67.878142 
L 54.377818 67.359567 
L 55.130909 66.840992 
L 55.884 66.322417 
L 56.637091 65.803842 
L 57.390182 65.285267 
L 58.143273 64.766692 
L 58.896364 64.248117 
L 59.649455 63.729542 
L 60.402545 63.210967 
L 61.155636 62.692392 
L 61.908727 62.173817 
L 62.661818 61.655242 
L 63.414909 61.136666 
L 64.168 60.618091 
L 64.921091 60.099516 
L 65.674182 59.580941 
L 66.427273 59.062366 
L 67.180364 58.543791 
L 67.933455 58.025216 
L 68.686545 57.506641 
L 69.439636 56.988066 
L 70.192727 56.469491 
L 70.945818 55.950916 
L 71.698909 55.432341 
L 72.452 54.913766 
L 73.205091 54.395191 
L 73.958182 53.876616 
L 74.711273 53.358041 
L 75.464364 52.839466 
L 76.217455 52.320891 
L 76.970545 51.802316 
L 77.723636 51.283741 
L 78.476727 50.765166 
L 79.229818 50.246591 
L 79.982909 49.728016 
L 80.736 49.209441 
L 81.489091 48.690866 
L 82.242182 48.172291 
L 82.995273 47.653716 
L 83.748364 47.135141 
L 84.501455 46.616566 
L 85.254545 46.09799 
L 86.007636 45.579415 
L 86.760727 45.06084 
L 87.513818 44.542265 
L 88.266909 44.02369 
L 89.02 43.505115 
L 89.773091 42.98654 
L 90.526182 42.467965 
L 91.279273 41.94939 
L 92.032364 41.430815 
L 92.785455 40.91224 
L 93.538545 40.393665 
L 94.291636 39.87509 
L 95.044727 39.356515 
L 95.797818 38.83794 
L 96.550909 38.319365 
L 97.304 37.80079 
L 98.057091 37.282215 
L 98.810182 36.76364 
L 99.563273 36.245065 
L 100.316364 35.72649 
L 101.069455 35.207915 
L 101.822545 34.68934 
L 102.575636 34.170765 
L 103.328727 33.65219 
L 104.081818 33.133615 
L 104.834909 32.61504 
L 105.588 32.096465 
L 106.341091 31.57789 
L 107.094182 31.059315 
L 107.847273 30.540739 
L 108.600364 30.022164 
L 109.353455 29.503589 
L 110.106545 28.985014 
L 110.859636 28.466439 
L 111.612727 27.947864 
L 112.365818 27.429289 
L 113.118909 26.910714 
L 113.872 26.392139 
L 114.625091 25.873564 
L 115.378182 25.354989 
L 116.131273 24.836414 
L 116.884364 24.317839 
L 117.637455 23.799264 
L 118.390545 23.280689 
L 119.143636 22.762114 
L 119.896727 22.243539 
L 120.649818 21.724964 
L 121.402909 21.206389 
L 122.156 20.687814 
L 122.909091 20.169239 
L 123.662182 19.650664 
L 124.415273 19.132089 
L 125.168364 18.613514 
L 125.921455 18.094939 
L 126.674545 17.576364 
" style="fill:none;stroke:#92c5de;stroke-linecap:round;stroke-width:1.5;"/>
   </g>
   <g id="line2d_19">
    <path clip-path="url(#p60dadd17d9)" d="M 51.365455 92.743815 
L 52.118545 92.743815 
L 52.871636 92.743815 
L 53.624727 92.743815 
L 54.377818 92.743815 
L 55.130909 92.743815 
L 55.884 92.743815 
L 56.637091 92.743815 
L 57.390182 92.743815 
L 58.143273 92.743815 
L 58.896364 92.743815 
L 59.649455 92.743815 
L 60.402545 92.743815 
L 61.155636 92.743815 
L 61.908727 92.743815 
L 62.661818 92.743815 
L 63.414909 92.743815 
L 64.168 92.743815 
L 64.921091 92.743815 
L 65.674182 92.743815 
L 66.427273 92.743815 
L 67.180364 92.743815 
L 67.933455 92.743815 
L 68.686545 92.743815 
L 69.439636 92.743815 
L 70.192727 92.743815 
L 70.945818 92.743815 
L 71.698909 92.743815 
L 72.452 92.743815 
L 73.205091 92.743815 
L 73.958182 92.743815 
L 74.711273 92.743815 
L 75.464364 92.743815 
L 76.217455 92.743815 
L 76.970545 92.743815 
L 77.723636 92.743815 
L 78.476727 92.743815 
L 79.229818 92.743815 
L 79.982909 92.743815 
L 80.736 92.743815 
L 81.489091 92.743815 
L 82.242182 92.743815 
L 82.995273 92.743815 
L 83.748364 92.743815 
L 84.501455 92.743815 
L 85.254545 92.743815 
L 86.007636 92.743815 
L 86.760727 92.743815 
L 87.513818 92.743815 
L 88.266909 92.743815 
L 89.02 92.743815 
L 89.773091 92.743815 
L 90.526182 92.743815 
L 91.279273 92.743815 
L 92.032364 92.743815 
L 92.785455 92.743815 
L 93.538545 92.743815 
L 94.291636 92.743815 
L 95.044727 92.743815 
L 95.797818 92.743815 
L 96.550909 92.743815 
L 97.304 92.743815 
L 98.057091 92.743815 
L 98.810182 92.743815 
L 99.563273 92.743815 
L 100.316364 92.743815 
L 101.069455 92.743815 
L 101.822545 92.743815 
L 102.575636 92.743815 
L 103.328727 92.743815 
L 104.081818 92.743815 
L 104.834909 92.743815 
L 105.588 92.743815 
L 106.341091 92.743815 
L 107.094182 92.743815 
L 107.847273 92.743815 
L 108.600364 92.743815 
L 109.353455 92.743815 
L 110.106545 92.743815 
L 110.859636 92.743815 
L 111.612727 92.743815 
L 112.365818 92.743815 
L 113.118909 92.743815 
L 113.872 92.743815 
L 114.625091 92.743815 
L 115.378182 92.743815 
L 116.131273 92.743815 
L 116.884364 92.743815 
L 117.637455 92.743815 
L 118.390545 92.743815 
L 119.143636 92.743815 
L 119.896727 92.743815 
L 120.649818 92.743815 
L 121.402909 92.743815 
L 122.156 92.743815 
L 122.909091 92.743815 
L 123.662182 92.743815 
L 124.415273 92.743815 
L 125.168364 92.743815 
L 125.921455 92.743815 
L 126.674545 92.743815 
" style="fill:none;stroke:#333333;stroke-linecap:round;stroke-width:1.5;"/>
   </g>
   <g id="line2d_20">
    <path clip-path="url(#p60dadd17d9)" d="M 51.365455 81.957454 
L 52.118545 81.957454 
L 52.871636 81.957454 
L 53.624727 81.957454 
L 54.377818 81.957454 
L 55.130909 81.957454 
L 55.884 81.957454 
L 56.637091 81.957454 
L 57.390182 81.957454 
L 58.143273 81.957454 
L 58.896364 81.957454 
L 59.649455 81.957454 
L 60.402545 81.957454 
L 61.155636 81.957454 
L 61.908727 81.957454 
L 62.661818 81.957454 
L 63.414909 81.957454 
L 64.168 81.957454 
L 64.921091 81.957454 
L 65.674182 81.957454 
L 66.427273 81.957454 
L 67.180364 81.957454 
L 67.933455 81.957454 
L 68.686545 81.957454 
L 69.439636 81.957454 
L 70.192727 81.957454 
L 70.945818 81.957454 
L 71.698909 81.957454 
L 72.452 81.957454 
L 73.205091 81.957454 
L 73.958182 81.957454 
L 74.711273 81.957454 
L 75.464364 81.957454 
L 76.217455 81.957454 
L 76.970545 81.957454 
L 77.723636 81.957454 
L 78.476727 81.957454 
L 79.229818 81.957454 
L 79.982909 81.957454 
L 80.736 81.957454 
L 81.489091 81.957454 
L 82.242182 81.957454 
L 82.995273 81.957454 
L 83.748364 81.957454 
L 84.501455 81.957454 
L 85.254545 81.957454 
L 86.007636 81.957454 
L 86.760727 81.957454 
L 87.513818 81.957454 
L 88.266909 81.957454 
L 89.02 81.957454 
L 89.773091 81.957454 
L 90.526182 81.957454 
L 91.279273 81.957454 
L 92.032364 81.957454 
L 92.785455 81.957454 
L 93.538545 81.957454 
L 94.291636 81.957454 
L 95.044727 81.957454 
L 95.797818 81.957454 
L 96.550909 81.957454 
L 97.304 81.957454 
L 98.057091 81.957454 
L 98.810182 81.957454 
L 99.563273 81.957454 
L 100.316364 81.957454 
L 101.069455 81.957454 
L 101.822545 81.957454 
L 102.575636 81.957454 
L 103.328727 81.957454 
L 104.081818 81.957454 
L 104.834909 81.957454 
L 105.588 81.957454 
L 106.341091 81.957454 
L 107.094182 81.957454 
L 107.847273 81.957454 
L 108.600364 81.957454 
L 109.353455 81.957454 
L 110.106545 81.957454 
L 110.859636 81.957454 
L 111.612727 81.957454 
L 112.365818 81.957454 
L 113.118909 81.957454 
L 113.872 81.957454 
L 114.625091 81.957454 
L 115.378182 81.957454 
L 116.131273 81.957454 
L 116.884364 81.957454 
L 117.637455 81.957454 
L 118.390545 81.957454 
L 119.143636 81.957454 
L 119.896727 81.957454 
L 120.649818 81.957454 
L 121.402909 81.957454 
L 122.156 81.957454 
L 122.909091 81.957454 
L 123.662182 81.957454 
L 124.415273 81.957454 
L 125.168364 81.957454 
L 125.921455 81.957454 
L 126.674545 81.957454 
" style="fill:none;stroke:#333333;stroke-linecap:round;stroke-width:1.5;"/>
   </g>
   <g id="line2d_21">
    <path clip-path="url(#p60dadd17d9)" d="M 51.365455 72.90832 
L 52.118545 72.90832 
L 52.871636 72.90832 
L 53.624727 72.90832 
L 54.377818 72.90832 
L 55.130909 72.90832 
L 55.884 72.90832 
L 56.637091 72.90832 
L 57.390182 72.90832 
L 58.143273 72.90832 
L 58.896364 72.90832 
L 59.649455 72.90832 
L 60.402545 72.90832 
L 61.155636 72.90832 
L 61.908727 72.90832 
L 62.661818 72.90832 
L 63.414909 72.90832 
L 64.168 72.90832 
L 64.921091 72.90832 
L 65.674182 72.90832 
L 66.427273 72.90832 
L 67.180364 72.90832 
L 67.933455 72.90832 
L 68.686545 72.90832 
L 69.439636 72.90832 
L 70.192727 72.90832 
L 70.945818 72.90832 
L 71.698909 72.90832 
L 72.452 72.90832 
L 73.205091 72.90832 
L 73.958182 72.90832 
L 74.711273 72.90832 
L 75.464364 72.90832 
L 76.217455 72.90832 
L 76.970545 72.90832 
L 77.723636 72.90832 
L 78.476727 72.90832 
L 79.229818 72.90832 
L 79.982909 72.90832 
L 80.736 72.90832 
L 81.489091 72.90832 
L 82.242182 72.90832 
L 82.995273 72.90832 
L 83.748364 72.90832 
L 84.501455 72.90832 
L 85.254545 72.90832 
L 86.007636 72.90832 
L 86.760727 72.90832 
L 87.513818 72.90832 
L 88.266909 72.90832 
L 89.02 72.90832 
L 89.773091 72.90832 
L 90.526182 72.90832 
L 91.279273 72.90832 
L 92.032364 72.90832 
L 92.785455 72.90832 
L 93.538545 72.90832 
L 94.291636 72.90832 
L 95.044727 72.90832 
L 95.797818 72.90832 
L 96.550909 72.90832 
L 97.304 72.90832 
L 98.057091 72.90832 
L 98.810182 72.90832 
L 99.563273 72.90832 
L 100.316364 72.90832 
L 101.069455 72.90832 
L 101.822545 72.90832 
L 102.575636 72.90832 
L 103.328727 72.90832 
L 104.081818 72.90832 
L 104.834909 72.90832 
L 105.588 72.90832 
L 106.341091 72.90832 
L 107.094182 72.90832 
L 107.847273 72.90832 
L 108.600364 72.90832 
L 109.353455 72.90832 
L 110.106545 72.90832 
L 110.859636 72.90832 
L 111.612727 72.90832 
L 112.365818 72.90832 
L 113.118909 72.90832 
L 113.872 72.90832 
L 114.625091 72.90832 
L 115.378182 72.90832 
L 116.131273 72.90832 
L 116.884364 72.90832 
L 117.637455 72.90832 
L 118.390545 72.90832 
L 119.143636 72.90832 
L 119.896727 72.90832 
L 120.649818 72.90832 
L 121.402909 72.90832 
L 122.156 72.90832 
L 122.909091 72.90832 
L 123.662182 72.90832 
L 124.415273 72.90832 
L 125.168364 72.90832 
L 125.921455 72.90832 
L 126.674545 72.90832 
" style="fill:none;stroke:#333333;stroke-linecap:round;stroke-width:1.5;"/>
   </g>
  </g>
 </g>
 <defs>
  <clipPath id="p60dadd17d9">
   <rect height="88.36" width="82.84" x="47.6" y="13.56"/>
  </clipPath>
 </defs>
</svg>
