<?xml version="1.0" encoding="utf-8" standalone="no"?>
<!DOCTYPE svg PUBLIC "-//W3C//DTD SVG 1.1//EN"
  "http://www.w3.org/Graphics/SVG/1.1/DTD/svg11.dtd">
<!-- Created with matplotlib (http://matplotlib.org/) -->
<svg height="144pt" version="1.1" viewBox="0 0 144 144" width="144pt" xmlns="http://www.w3.org/2000/svg" xmlns:xlink="http://www.w3.org/1999/xlink">
 <defs>
  <style type="text/css">
*{stroke-linecap:butt;stroke-linejoin:round;}
  </style>
 </defs>
 <g id="figure_1">
  <g id="patch_1">
   <path d="M 0 144 
L 144 144 
L 144 0 
L 0 0 
z
" style="fill:#ffffff;"/>
  </g>
  <g id="axes_1">
   <g id="patch_2">
    <path d="M 48.38 101.92 
L 130.44 101.92 
L 130.44 27.48 
L 48.38 27.48 
z
" style="fill:#ffffff;"/>
   </g>
   <g id="matplotlib.axis_1">
    <g id="xtick_1">
     <g id="line2d_1">
      <defs>
       <path d="M 0 0 
L 0 3.5 
" id="m48309372ae" style="stroke:#262626;stroke-width:0.8;"/>
      </defs>
      <g>
       <use style="fill:#262626;stroke:#262626;stroke-width:0.8;" x="52.11" xlink:href="#m48309372ae" y="101.92"/>
      </g>
     </g>
     <g id="text_1">
      <!-- 2 -->
      <defs>
       <path d="M 50.34375 8.453125 
L 50.34375 0 
L 3.03125 0 
Q 2.9375 3.171875 4.046875 6.109375 
Q 5.859375 10.9375 9.828125 15.625 
Q 13.8125 20.3125 21.34375 26.46875 
Q 33.015625 36.03125 37.109375 41.625 
Q 41.21875 47.21875 41.21875 52.203125 
Q 41.21875 57.421875 37.46875 61 
Q 33.734375 64.59375 27.734375 64.59375 
Q 21.390625 64.59375 17.578125 60.78125 
Q 13.765625 56.984375 13.71875 50.25 
L 4.6875 51.171875 
Q 5.609375 61.28125 11.65625 66.578125 
Q 17.71875 71.875 27.9375 71.875 
Q 38.234375 71.875 44.234375 66.15625 
Q 50.25 60.453125 50.25 52 
Q 50.25 47.703125 48.484375 43.546875 
Q 46.734375 39.40625 42.65625 34.8125 
Q 38.578125 30.21875 29.109375 22.21875 
Q 21.1875 15.578125 18.9375 13.203125 
Q 16.703125 10.84375 15.234375 8.453125 
z
" id="ArialMT-32"/>
      </defs>
      <g style="fill:#262626;" transform="translate(49.051484 116.793594)scale(0.11 -0.11)">
       <use xlink:href="#ArialMT-32"/>
      </g>
     </g>
    </g>
    <g id="xtick_2">
     <g id="line2d_2">
      <g>
       <use style="fill:#262626;stroke:#262626;stroke-width:0.8;" x="67.03" xlink:href="#m48309372ae" y="101.92"/>
      </g>
     </g>
     <g id="text_2">
      <!-- 4 -->
      <defs>
       <path d="M 32.328125 0 
L 32.328125 17.140625 
L 1.265625 17.140625 
L 1.265625 25.203125 
L 33.9375 71.578125 
L 41.109375 71.578125 
L 41.109375 25.203125 
L 50.78125 25.203125 
L 50.78125 17.140625 
L 41.109375 17.140625 
L 41.109375 0 
z
M 32.328125 25.203125 
L 32.328125 57.46875 
L 9.90625 25.203125 
z
" id="ArialMT-34"/>
      </defs>
      <g style="fill:#262626;" transform="translate(63.971484 116.793594)scale(0.11 -0.11)">
       <use xlink:href="#ArialMT-34"/>
      </g>
     </g>
    </g>
    <g id="xtick_3">
     <g id="line2d_3">
      <g>
       <use style="fill:#262626;stroke:#262626;stroke-width:0.8;" x="81.95" xlink:href="#m48309372ae" y="101.92"/>
      </g>
     </g>
     <g id="text_3">
      <!-- 6 -->
      <defs>
       <path d="M 49.75 54.046875 
L 41.015625 53.375 
Q 39.84375 58.546875 37.703125 60.890625 
Q 34.125 64.65625 28.90625 64.65625 
Q 24.703125 64.65625 21.53125 62.3125 
Q 17.390625 59.28125 14.984375 53.46875 
Q 12.59375 47.65625 12.5 36.921875 
Q 15.671875 41.75 20.265625 44.09375 
Q 24.859375 46.4375 29.890625 46.4375 
Q 38.671875 46.4375 44.84375 39.96875 
Q 51.03125 33.5 51.03125 23.25 
Q 51.03125 16.5 48.125 10.71875 
Q 45.21875 4.9375 40.140625 1.859375 
Q 35.0625 -1.21875 28.609375 -1.21875 
Q 17.625 -1.21875 10.6875 6.859375 
Q 3.765625 14.9375 3.765625 33.5 
Q 3.765625 54.25 11.421875 63.671875 
Q 18.109375 71.875 29.4375 71.875 
Q 37.890625 71.875 43.28125 67.140625 
Q 48.6875 62.40625 49.75 54.046875 
z
M 13.875 23.1875 
Q 13.875 18.65625 15.796875 14.5 
Q 17.71875 10.359375 21.1875 8.171875 
Q 24.65625 6 28.46875 6 
Q 34.03125 6 38.03125 10.484375 
Q 42.046875 14.984375 42.046875 22.703125 
Q 42.046875 30.125 38.078125 34.390625 
Q 34.125 38.671875 28.125 38.671875 
Q 22.171875 38.671875 18.015625 34.390625 
Q 13.875 30.125 13.875 23.1875 
z
" id="ArialMT-36"/>
      </defs>
      <g style="fill:#262626;" transform="translate(78.891484 116.793594)scale(0.11 -0.11)">
       <use xlink:href="#ArialMT-36"/>
      </g>
     </g>
    </g>
    <g id="xtick_4">
     <g id="line2d_4">
      <g>
       <use style="fill:#262626;stroke:#262626;stroke-width:0.8;" x="96.87" xlink:href="#m48309372ae" y="101.92"/>
      </g>
     </g>
     <g id="text_4">
      <!-- 8 -->
      <defs>
       <path d="M 17.671875 38.8125 
Q 12.203125 40.828125 9.5625 44.53125 
Q 6.9375 48.25 6.9375 53.421875 
Q 6.9375 61.234375 12.546875 66.546875 
Q 18.171875 71.875 27.484375 71.875 
Q 36.859375 71.875 42.578125 66.421875 
Q 48.296875 60.984375 48.296875 53.171875 
Q 48.296875 48.1875 45.671875 44.5 
Q 43.0625 40.828125 37.75 38.8125 
Q 44.34375 36.671875 47.78125 31.875 
Q 51.21875 27.09375 51.21875 20.453125 
Q 51.21875 11.28125 44.71875 5.03125 
Q 38.234375 -1.21875 27.640625 -1.21875 
Q 17.046875 -1.21875 10.546875 5.046875 
Q 4.046875 11.328125 4.046875 20.703125 
Q 4.046875 27.6875 7.59375 32.390625 
Q 11.140625 37.109375 17.671875 38.8125 
z
M 15.921875 53.71875 
Q 15.921875 48.640625 19.1875 45.40625 
Q 22.46875 42.1875 27.6875 42.1875 
Q 32.765625 42.1875 36.015625 45.375 
Q 39.265625 48.578125 39.265625 53.21875 
Q 39.265625 58.0625 35.90625 61.359375 
Q 32.5625 64.65625 27.59375 64.65625 
Q 22.5625 64.65625 19.234375 61.421875 
Q 15.921875 58.203125 15.921875 53.71875 
z
M 13.09375 20.65625 
Q 13.09375 16.890625 14.875 13.375 
Q 16.65625 9.859375 20.171875 7.921875 
Q 23.6875 6 27.734375 6 
Q 34.03125 6 38.125 10.046875 
Q 42.234375 14.109375 42.234375 20.359375 
Q 42.234375 26.703125 38.015625 30.859375 
Q 33.796875 35.015625 27.4375 35.015625 
Q 21.234375 35.015625 17.15625 30.90625 
Q 13.09375 26.8125 13.09375 20.65625 
z
" id="ArialMT-38"/>
      </defs>
      <g style="fill:#262626;" transform="translate(93.811484 116.793594)scale(0.11 -0.11)">
       <use xlink:href="#ArialMT-38"/>
      </g>
     </g>
    </g>
    <g id="xtick_5">
     <g id="line2d_5">
      <g>
       <use style="fill:#262626;stroke:#262626;stroke-width:0.8;" x="111.79" xlink:href="#m48309372ae" y="101.92"/>
      </g>
     </g>
     <g id="text_5">
      <!-- 10 -->
      <defs>
       <path d="M 37.25 0 
L 28.46875 0 
L 28.46875 56 
Q 25.296875 52.984375 20.140625 49.953125 
Q 14.984375 46.921875 10.890625 45.40625 
L 10.890625 53.90625 
Q 18.265625 57.375 23.78125 62.296875 
Q 29.296875 67.234375 31.59375 71.875 
L 37.25 71.875 
z
" id="ArialMT-31"/>
       <path d="M 4.15625 35.296875 
Q 4.15625 48 6.765625 55.734375 
Q 9.375 63.484375 14.515625 67.671875 
Q 19.671875 71.875 27.484375 71.875 
Q 33.25 71.875 37.59375 69.546875 
Q 41.9375 67.234375 44.765625 62.859375 
Q 47.609375 58.5 49.21875 52.21875 
Q 50.828125 45.953125 50.828125 35.296875 
Q 50.828125 22.703125 48.234375 14.96875 
Q 45.65625 7.234375 40.5 3 
Q 35.359375 -1.21875 27.484375 -1.21875 
Q 17.140625 -1.21875 11.234375 6.203125 
Q 4.15625 15.140625 4.15625 35.296875 
z
M 13.1875 35.296875 
Q 13.1875 17.671875 17.3125 11.828125 
Q 21.4375 6 27.484375 6 
Q 33.546875 6 37.671875 11.859375 
Q 41.796875 17.71875 41.796875 35.296875 
Q 41.796875 52.984375 37.671875 58.78125 
Q 33.546875 64.59375 27.390625 64.59375 
Q 21.34375 64.59375 17.71875 59.46875 
Q 13.1875 52.9375 13.1875 35.296875 
z
" id="ArialMT-30"/>
      </defs>
      <g style="fill:#262626;" transform="translate(105.672969 116.793594)scale(0.11 -0.11)">
       <use xlink:href="#ArialMT-31"/>
       <use x="55.615234" xlink:href="#ArialMT-30"/>
      </g>
     </g>
    </g>
    <g id="xtick_6">
     <g id="line2d_6">
      <g>
       <use style="fill:#262626;stroke:#262626;stroke-width:0.8;" x="126.71" xlink:href="#m48309372ae" y="101.92"/>
      </g>
     </g>
     <g id="text_6">
      <!-- 12 -->
      <g style="fill:#262626;" transform="translate(120.592969 116.793594)scale(0.11 -0.11)">
       <use xlink:href="#ArialMT-31"/>
       <use x="55.615234" xlink:href="#ArialMT-32"/>
      </g>
     </g>
    </g>
    <g id="text_7">
     <!-- pH -->
     <defs>
      <path d="M 6.59375 -19.875 
L 6.59375 51.859375 
L 14.59375 51.859375 
L 14.59375 45.125 
Q 17.4375 49.078125 21 51.046875 
Q 24.5625 53.03125 29.640625 53.03125 
Q 36.28125 53.03125 41.359375 49.609375 
Q 46.4375 46.1875 49.015625 39.953125 
Q 51.609375 33.734375 51.609375 26.3125 
Q 51.609375 18.359375 48.75 11.984375 
Q 45.90625 5.609375 40.453125 2.21875 
Q 35.015625 -1.171875 29 -1.171875 
Q 24.609375 -1.171875 21.109375 0.6875 
Q 17.625 2.546875 15.375 5.375 
L 15.375 -19.875 
z
M 14.546875 25.640625 
Q 14.546875 15.625 18.59375 10.84375 
Q 22.65625 6.0625 28.421875 6.0625 
Q 34.28125 6.0625 38.453125 11.015625 
Q 42.625 15.96875 42.625 26.375 
Q 42.625 36.28125 38.546875 41.203125 
Q 34.46875 46.140625 28.8125 46.140625 
Q 23.1875 46.140625 18.859375 40.890625 
Q 14.546875 35.640625 14.546875 25.640625 
z
" id="ArialMT-70"/>
      <path d="M 8.015625 0 
L 8.015625 71.578125 
L 17.484375 71.578125 
L 17.484375 42.1875 
L 54.6875 42.1875 
L 54.6875 71.578125 
L 64.15625 71.578125 
L 64.15625 0 
L 54.6875 0 
L 54.6875 33.734375 
L 17.484375 33.734375 
L 17.484375 0 
z
" id="ArialMT-48"/>
     </defs>
     <g style="fill:#262626;" transform="translate(82.379453 130.853437)scale(0.11 -0.11)">
      <use xlink:href="#ArialMT-70"/>
      <use x="55.615234" xlink:href="#ArialMT-48"/>
     </g>
    </g>
   </g>
   <g id="matplotlib.axis_2">
    <g id="ytick_1">
     <g id="line2d_7">
      <defs>
       <path d="M 0 0 
L -3.5 0 
" id="m0ac82f6b25" style="stroke:#262626;stroke-width:0.8;"/>
      </defs>
      <g>
       <use style="fill:#262626;stroke:#262626;stroke-width:0.8;" x="48.38" xlink:href="#m0ac82f6b25" y="95.465898"/>
      </g>
     </g>
     <g id="text_8">
      <!-- −1 -->
      <defs>
       <path d="M 52.828125 31.203125 
L 5.5625 31.203125 
L 5.5625 39.40625 
L 52.828125 39.40625 
z
" id="ArialMT-2212"/>
      </defs>
      <g style="fill:#262626;" transform="translate(28.838281 99.402695)scale(0.11 -0.11)">
       <use xlink:href="#ArialMT-2212"/>
       <use x="58.398438" xlink:href="#ArialMT-31"/>
      </g>
     </g>
    </g>
    <g id="ytick_2">
     <g id="line2d_8">
      <g>
       <use style="fill:#262626;stroke:#262626;stroke-width:0.8;" x="48.38" xlink:href="#m0ac82f6b25" y="31.076141"/>
      </g>
     </g>
     <g id="text_9">
      <!-- 0 -->
      <g style="fill:#262626;" transform="translate(35.262969 35.012938)scale(0.11 -0.11)">
       <use xlink:href="#ArialMT-30"/>
      </g>
     </g>
    </g>
    <g id="text_10">
     <!-- $\langle q_\mathsf{total} \rangle$ -->
     <defs>
      <path d="M 8.9375 31.34375 
L 22.703125 75.875 
L 31 75.875 
L 17.234375 31.34375 
L 31 -13.1875 
L 22.703125 -13.1875 
z
" id="DejaVuSans-27e8"/>
      <path d="M 41.703125 8.203125 
Q 38.09375 3.46875 33.171875 1.015625 
Q 28.265625 -1.421875 22.3125 -1.421875 
Q 14.015625 -1.421875 9.296875 4.171875 
Q 4.59375 9.765625 4.59375 19.578125 
Q 4.59375 27.484375 7.5 34.859375 
Q 10.40625 42.234375 15.828125 48.09375 
Q 19.34375 51.90625 23.90625 53.953125 
Q 28.46875 56 33.5 56 
Q 39.546875 56 43.453125 53.609375 
Q 47.359375 51.21875 49.125 46.390625 
L 50.6875 54.59375 
L 59.71875 54.59375 
L 45.125 -20.609375 
L 36.078125 -20.609375 
z
M 13.921875 20.90625 
Q 13.921875 13.671875 16.9375 9.890625 
Q 19.96875 6.109375 25.6875 6.109375 
Q 34.1875 6.109375 40.1875 14.234375 
Q 46.1875 22.359375 46.1875 33.984375 
Q 46.1875 41.015625 43.078125 44.75 
Q 39.984375 48.484375 34.1875 48.484375 
Q 29.9375 48.484375 26.3125 46.5 
Q 22.703125 44.53125 20.015625 40.71875 
Q 17.1875 36.71875 15.546875 31.34375 
Q 13.921875 25.984375 13.921875 20.90625 
z
" id="DejaVuSans-Oblique-71"/>
      <path d="M 18.3125 70.21875 
L 18.3125 54.6875 
L 36.8125 54.6875 
L 36.8125 47.703125 
L 18.3125 47.703125 
L 18.3125 18.015625 
Q 18.3125 11.328125 20.140625 9.421875 
Q 21.96875 7.515625 27.59375 7.515625 
L 36.8125 7.515625 
L 36.8125 0 
L 27.59375 0 
Q 17.1875 0 13.234375 3.875 
Q 9.28125 7.765625 9.28125 18.015625 
L 9.28125 47.703125 
L 2.6875 47.703125 
L 2.6875 54.6875 
L 9.28125 54.6875 
L 9.28125 70.21875 
z
" id="DejaVuSans-74"/>
      <path d="M 30.609375 48.390625 
Q 23.390625 48.390625 19.1875 42.75 
Q 14.984375 37.109375 14.984375 27.296875 
Q 14.984375 17.484375 19.15625 11.84375 
Q 23.34375 6.203125 30.609375 6.203125 
Q 37.796875 6.203125 41.984375 11.859375 
Q 46.1875 17.53125 46.1875 27.296875 
Q 46.1875 37.015625 41.984375 42.703125 
Q 37.796875 48.390625 30.609375 48.390625 
z
M 30.609375 56 
Q 42.328125 56 49.015625 48.375 
Q 55.71875 40.765625 55.71875 27.296875 
Q 55.71875 13.875 49.015625 6.21875 
Q 42.328125 -1.421875 30.609375 -1.421875 
Q 18.84375 -1.421875 12.171875 6.21875 
Q 5.515625 13.875 5.515625 27.296875 
Q 5.515625 40.765625 12.171875 48.375 
Q 18.84375 56 30.609375 56 
z
" id="DejaVuSans-6f"/>
      <path d="M 34.28125 27.484375 
Q 23.390625 27.484375 19.1875 25 
Q 14.984375 22.515625 14.984375 16.5 
Q 14.984375 11.71875 18.140625 8.90625 
Q 21.296875 6.109375 26.703125 6.109375 
Q 34.1875 6.109375 38.703125 11.40625 
Q 43.21875 16.703125 43.21875 25.484375 
L 43.21875 27.484375 
z
M 52.203125 31.203125 
L 52.203125 0 
L 43.21875 0 
L 43.21875 8.296875 
Q 40.140625 3.328125 35.546875 0.953125 
Q 30.953125 -1.421875 24.3125 -1.421875 
Q 15.921875 -1.421875 10.953125 3.296875 
Q 6 8.015625 6 15.921875 
Q 6 25.140625 12.171875 29.828125 
Q 18.359375 34.515625 30.609375 34.515625 
L 43.21875 34.515625 
L 43.21875 35.40625 
Q 43.21875 41.609375 39.140625 45 
Q 35.0625 48.390625 27.6875 48.390625 
Q 23 48.390625 18.546875 47.265625 
Q 14.109375 46.140625 10.015625 43.890625 
L 10.015625 52.203125 
Q 14.9375 54.109375 19.578125 55.046875 
Q 24.21875 56 28.609375 56 
Q 40.484375 56 46.34375 49.84375 
Q 52.203125 43.703125 52.203125 31.203125 
z
" id="DejaVuSans-61"/>
      <path d="M 9.421875 75.984375 
L 18.40625 75.984375 
L 18.40625 0 
L 9.421875 0 
z
" id="DejaVuSans-6c"/>
      <path d="M 30.078125 31.34375 
L 16.3125 -13.1875 
L 8.015625 -13.1875 
L 21.78125 31.34375 
L 8.015625 75.875 
L 16.3125 75.875 
z
" id="DejaVuSans-27e9"/>
     </defs>
     <g style="fill:#262626;" transform="translate(22.528281 81.475)rotate(-90)scale(0.11 -0.11)">
      <use transform="translate(0 0.125)" xlink:href="#DejaVuSans-27e8"/>
      <use transform="translate(39.013672 0.125)" xlink:href="#DejaVuSans-Oblique-71"/>
      <use transform="translate(102.490234 -16.28125)scale(0.7)" xlink:href="#DejaVuSans-74"/>
      <use transform="translate(129.936523 -16.28125)scale(0.7)" xlink:href="#DejaVuSans-6f"/>
      <use transform="translate(172.763672 -16.28125)scale(0.7)" xlink:href="#DejaVuSans-74"/>
      <use transform="translate(200.209961 -16.28125)scale(0.7)" xlink:href="#DejaVuSans-61"/>
      <use transform="translate(243.105469 -16.28125)scale(0.7)" xlink:href="#DejaVuSans-6c"/>
      <use transform="translate(265.288086 0.125)" xlink:href="#DejaVuSans-27e9"/>
     </g>
    </g>
   </g>
   <g id="PolyCollection_1">
    <defs>
     <path d="M 52.11 -112.923857 
L 52.11 -112.923857 
L 52.856 -112.923856 
L 53.602 -112.923856 
L 54.348 -112.923855 
L 55.094 -112.923854 
L 55.84 -112.923853 
L 56.586 -112.923851 
L 57.332 -112.923849 
L 58.078 -112.923847 
L 58.824 -112.923844 
L 59.57 -112.92384 
L 60.316 -112.923835 
L 61.062 -112.923829 
L 61.808 -112.923821 
L 62.554 -112.923811 
L 63.3 -112.923799 
L 64.046 -112.923783 
L 64.792 -112.923763 
L 65.538 -112.923739 
L 66.284 -112.923708 
L 67.03 -112.923669 
L 67.776 -112.923619 
L 68.522 -112.923558 
L 69.268 -112.92348 
L 70.014 -112.923381 
L 70.76 -112.923258 
L 71.506 -112.923102 
L 72.252 -112.922906 
L 72.998 -112.92266 
L 73.744 -112.922349 
L 74.49 -112.921958 
L 75.236 -112.921466 
L 75.982 -112.920847 
L 76.728 -112.920067 
L 77.474 -112.919086 
L 78.22 -112.91785 
L 78.966 -112.916294 
L 79.712 -112.914336 
L 80.458 -112.911871 
L 81.204 -112.908768 
L 81.95 -112.904862 
L 82.696 -112.899944 
L 83.442 -112.893755 
L 84.188 -112.885965 
L 84.934 -112.876161 
L 85.68 -112.863823 
L 86.426 -112.848296 
L 87.172 -112.82876 
L 87.918 -112.804182 
L 88.664 -112.773267 
L 89.41 -112.73439 
L 90.156 -112.685514 
L 90.902 -112.624087 
L 91.648 -112.546923 
L 92.394 -112.450043 
L 93.14 -112.328495 
L 93.886 -112.17613 
L 94.632 -111.985346 
L 95.378 -111.746783 
L 96.124 -111.44899 
L 96.87 -111.078056 
L 97.616 -110.617251 
L 98.362 -110.046698 
L 99.108 -109.343156 
L 99.854 -108.480007 
L 100.6 -107.427598 
L 101.346 -106.154099 
L 102.092 -104.627097 
L 102.838 -102.816081 
L 103.584 -100.695932 
L 104.33 -98.251279 
L 105.076 -95.481315 
L 105.822 -92.404249 
L 106.568 -89.060277 
L 107.314 -85.511864 
L 108.06 -81.84051 
L 108.806 -78.139982 
L 109.552 -74.507051 
L 110.298 -71.031585 
L 111.044 -67.788094 
L 111.79 -64.830317 
L 112.536 -62.189446 
L 113.282 -59.875615 
L 114.028 -57.881616 
L 114.774 -56.187611 
L 115.52 -54.765845 
L 116.266 -53.584685 
L 117.012 -52.611704 
L 117.758 -51.815799 
L 118.504 -51.168461 
L 119.25 -50.644405 
L 119.996 -50.221751 
L 120.742 -49.881915 
L 121.488 -49.609337 
L 122.234 -49.391135 
L 122.98 -49.216736 
L 123.726 -49.077522 
L 124.472 -48.966507 
L 125.218 -48.878048 
L 125.964 -48.807609 
L 126.71 -48.751546 
L 126.71 -48.751546 
L 126.71 -45.463636 
L 125.964 -46.102597 
L 125.218 -46.627637 
L 124.472 -47.061172 
L 123.726 -47.422673 
L 122.98 -47.729037 
L 122.234 -47.99504 
L 121.488 -48.233816 
L 120.742 -48.457355 
L 119.996 -48.676992 
L 119.25 -48.903892 
L 118.504 -49.149535 
L 117.758 -49.426202 
L 117.012 -49.747468 
L 116.266 -50.128696 
L 115.52 -50.58751 
L 114.774 -51.144232 
L 114.028 -51.822209 
L 113.282 -52.647963 
L 112.536 -53.651014 
L 111.79 -54.863238 
L 111.044 -56.317544 
L 110.298 -58.045694 
L 109.552 -60.075138 
L 108.806 -62.424898 
L 108.06 -65.100841 
L 107.314 -68.091014 
L 106.568 -71.362114 
L 105.822 -74.858282 
L 105.076 -78.503248 
L 104.33 -82.206094 
L 103.584 -85.869945 
L 102.838 -89.401904 
L 102.092 -92.722147 
L 101.346 -95.77037 
L 100.6 -98.50865 
L 99.854 -100.920856 
L 99.108 -103.009473 
L 98.362 -104.791064 
L 97.616 -106.29148 
L 96.87 -107.541563 
L 96.124 -108.573772 
L 95.378 -109.419779 
L 94.632 -110.108967 
L 93.886 -110.667627 
L 93.14 -111.118662 
L 92.394 -111.481626 
L 91.648 -111.772951 
L 90.902 -112.006288 
L 90.156 -112.192865 
L 89.41 -112.341852 
L 88.664 -112.460694 
L 87.918 -112.55541 
L 87.172 -112.630846 
L 86.426 -112.690895 
L 85.68 -112.738674 
L 84.934 -112.776677 
L 84.188 -112.806897 
L 83.442 -112.830923 
L 82.696 -112.850022 
L 81.95 -112.865202 
L 81.204 -112.877267 
L 80.458 -112.886857 
L 79.712 -112.894479 
L 78.966 -112.900539 
L 78.22 -112.905359 
L 77.474 -112.909194 
L 76.728 -112.912249 
L 75.982 -112.914686 
L 75.236 -112.916635 
L 74.49 -112.918199 
L 73.744 -112.919462 
L 72.998 -112.920491 
L 72.252 -112.921341 
L 71.506 -112.922056 
L 70.76 -112.922676 
L 70.014 -112.923232 
L 69.268 -112.923755 
L 68.522 -112.924273 
L 67.776 -112.924813 
L 67.03 -112.925403 
L 66.284 -112.926076 
L 65.538 -112.926867 
L 64.792 -112.927818 
L 64.046 -112.92898 
L 63.3 -112.930415 
L 62.554 -112.932198 
L 61.808 -112.934426 
L 61.062 -112.937216 
L 60.316 -112.940717 
L 59.57 -112.945114 
L 58.824 -112.950643 
L 58.078 -112.957596 
L 57.332 -112.966343 
L 56.586 -112.977348 
L 55.84 -112.991194 
L 55.094 -113.008614 
L 54.348 -113.03053 
L 53.602 -113.058098 
L 52.856 -113.092769 
L 52.11 -113.136364 
z
" id="m21b2868f8d" style="stroke:#ffffff;stroke-opacity:0.7;"/>
    </defs>
    <g clip-path="url(#p9e48968875)">
     <use style="fill:#001c7f;fill-opacity:0.7;stroke:#ffffff;stroke-opacity:0.7;" x="0" xlink:href="#m21b2868f8d" y="144"/>
    </g>
   </g>
   <g id="line2d_9">
    <path clip-path="url(#p9e48968875)" d="M 52.11 31.076143 
L 52.856 31.076144 
L 53.602 31.076144 
L 54.348 31.076145 
L 55.094 31.076146 
L 55.84 31.076147 
L 56.586 31.076149 
L 57.332 31.076151 
L 58.078 31.076153 
L 58.824 31.076156 
L 59.57 31.07616 
L 60.316 31.076165 
L 61.062 31.076171 
L 61.808 31.076179 
L 62.554 31.076189 
L 63.3 31.076201 
L 64.046 31.076217 
L 64.792 31.076237 
L 65.538 31.076261 
L 66.284 31.076292 
L 67.03 31.076331 
L 67.776 31.076381 
L 68.522 31.076442 
L 69.268 31.07652 
L 70.014 31.076619 
L 70.76 31.076742 
L 71.506 31.076898 
L 72.252 31.077094 
L 72.998 31.07734 
L 73.744 31.077651 
L 74.49 31.078042 
L 75.236 31.078534 
L 75.982 31.079153 
L 76.728 31.079933 
L 77.474 31.080914 
L 78.22 31.08215 
L 78.966 31.083706 
L 79.712 31.085664 
L 80.458 31.088129 
L 81.204 31.091232 
L 81.95 31.095138 
L 82.696 31.100056 
L 83.442 31.106245 
L 84.188 31.114035 
L 84.934 31.123839 
L 85.68 31.136177 
L 86.426 31.151704 
L 87.172 31.17124 
L 87.918 31.195818 
L 88.664 31.226733 
L 89.41 31.26561 
L 90.156 31.314486 
L 90.902 31.375913 
L 91.648 31.453077 
L 92.394 31.549957 
L 93.14 31.671505 
L 93.886 31.82387 
L 94.632 32.014654 
L 95.378 32.253217 
L 96.124 32.55101 
L 96.87 32.921944 
L 97.616 33.382749 
L 98.362 33.953302 
L 99.108 34.656844 
L 99.854 35.519993 
L 100.6 36.572402 
L 101.346 37.845901 
L 102.092 39.372903 
L 102.838 41.183919 
L 103.584 43.304068 
L 104.33 45.748721 
L 105.076 48.518685 
L 105.822 51.595751 
L 106.568 54.939723 
L 107.314 58.488136 
L 108.06 62.15949 
L 108.806 65.860018 
L 109.552 69.492949 
L 110.298 72.968415 
L 111.044 76.211906 
L 111.79 79.169683 
L 112.536 81.810554 
L 113.282 84.124385 
L 114.028 86.118384 
L 114.774 87.812389 
L 115.52 89.234155 
L 116.266 90.415315 
L 117.012 91.388296 
L 117.758 92.184201 
L 118.504 92.831539 
L 119.25 93.355595 
L 119.996 93.778249 
L 120.742 94.118085 
L 121.488 94.390663 
L 122.234 94.608865 
L 122.98 94.783264 
L 123.726 94.922478 
L 124.472 95.033493 
L 125.218 95.121952 
L 125.964 95.192391 
L 126.71 95.248454 
" style="fill:none;stroke:#333333;stroke-dasharray:1.5,2.475;stroke-dashoffset:0;stroke-width:1.5;"/>
   </g>
   <g id="line2d_10">
    <path clip-path="url(#p9e48968875)" d="M 52.11 30.863636 
L 52.856 30.907231 
L 53.602 30.941902 
L 54.348 30.96947 
L 55.094 30.991386 
L 55.84 31.008806 
L 56.586 31.022652 
L 57.332 31.033657 
L 58.078 31.042404 
L 58.824 31.049357 
L 59.57 31.054886 
L 60.316 31.059283 
L 61.062 31.062784 
L 61.808 31.065574 
L 62.554 31.067802 
L 63.3 31.069585 
L 64.046 31.07102 
L 64.792 31.072182 
L 65.538 31.073133 
L 66.284 31.073924 
L 67.03 31.074597 
L 67.776 31.075187 
L 68.522 31.075727 
L 69.268 31.076245 
L 70.014 31.076768 
L 70.76 31.077324 
L 71.506 31.077944 
L 72.252 31.078659 
L 72.998 31.079509 
L 73.744 31.080538 
L 74.49 31.081801 
L 75.236 31.083365 
L 75.982 31.085314 
L 76.728 31.087751 
L 77.474 31.090806 
L 78.22 31.094641 
L 78.966 31.099461 
L 79.712 31.105521 
L 80.458 31.113143 
L 81.204 31.122733 
L 81.95 31.134798 
L 82.696 31.149978 
L 83.442 31.169077 
L 84.188 31.193103 
L 84.934 31.223323 
L 85.68 31.261326 
L 86.426 31.309105 
L 87.172 31.369154 
L 87.918 31.44459 
L 88.664 31.539306 
L 89.41 31.658148 
L 90.156 31.807135 
L 90.902 31.993712 
L 91.648 32.227049 
L 92.394 32.518374 
L 93.14 32.881338 
L 93.886 33.332373 
L 94.632 33.891033 
L 95.378 34.580221 
L 96.124 35.426228 
L 96.87 36.458437 
L 97.616 37.70852 
L 98.362 39.208936 
L 99.108 40.990527 
L 99.854 43.079144 
L 100.6 45.49135 
L 101.346 48.22963 
L 102.092 51.277853 
L 102.838 54.598096 
L 103.584 58.130055 
L 104.33 61.793906 
L 105.076 65.496752 
L 105.822 69.141718 
L 106.568 72.637886 
L 107.314 75.908986 
L 108.06 78.899159 
L 108.806 81.575102 
L 109.552 83.924862 
L 110.298 85.954306 
L 111.044 87.682456 
L 111.79 89.136762 
L 112.536 90.348986 
L 113.282 91.352037 
L 114.028 92.177791 
L 114.774 92.855768 
L 115.52 93.41249 
L 116.266 93.871304 
L 117.012 94.252532 
L 117.758 94.573798 
L 118.504 94.850465 
L 119.25 95.096108 
L 119.996 95.323008 
L 120.742 95.542645 
L 121.488 95.766184 
L 122.234 96.00496 
L 122.98 96.270963 
L 123.726 96.577327 
L 124.472 96.938828 
L 125.218 97.372363 
L 125.964 97.897403 
L 126.71 98.536364 
" style="fill:none;stroke:#333333;stroke-linecap:round;stroke-width:1.5;"/>
   </g>
   <g id="patch_3">
    <path d="M 48.38 101.92 
L 48.38 27.48 
" style="fill:none;stroke:#262626;stroke-linecap:square;stroke-linejoin:miter;stroke-width:0.8;"/>
   </g>
   <g id="patch_4">
    <path d="M 48.38 101.92 
L 130.44 101.92 
" style="fill:none;stroke:#262626;stroke-linecap:square;stroke-linejoin:miter;stroke-width:0.8;"/>
   </g>
   <g id="text_11">
    <!-- $\Delta$ area : 0.51 -->
    <defs>
     <path d="M 34.1875 63.1875 
L 14.15625 8.203125 
L 54.25 8.203125 
z
M 0.78125 0 
L 28.609375 72.90625 
L 39.796875 72.90625 
L 67.578125 0 
z
" id="DejaVuSans-394"/>
     <path id="ArialMT-20"/>
     <path d="M 40.4375 6.390625 
Q 35.546875 2.25 31.03125 0.53125 
Q 26.515625 -1.171875 21.34375 -1.171875 
Q 12.796875 -1.171875 8.203125 3 
Q 3.609375 7.171875 3.609375 13.671875 
Q 3.609375 17.484375 5.34375 20.625 
Q 7.078125 23.78125 9.890625 25.6875 
Q 12.703125 27.59375 16.21875 28.5625 
Q 18.796875 29.25 24.03125 29.890625 
Q 34.671875 31.15625 39.703125 32.90625 
Q 39.75 34.71875 39.75 35.203125 
Q 39.75 40.578125 37.25 42.78125 
Q 33.890625 45.75 27.25 45.75 
Q 21.046875 45.75 18.09375 43.578125 
Q 15.140625 41.40625 13.71875 35.890625 
L 5.125 37.0625 
Q 6.296875 42.578125 8.984375 45.96875 
Q 11.671875 49.359375 16.75 51.1875 
Q 21.828125 53.03125 28.515625 53.03125 
Q 35.15625 53.03125 39.296875 51.46875 
Q 43.453125 49.90625 45.40625 47.53125 
Q 47.359375 45.171875 48.140625 41.546875 
Q 48.578125 39.3125 48.578125 33.453125 
L 48.578125 21.734375 
Q 48.578125 9.46875 49.140625 6.21875 
Q 49.703125 2.984375 51.375 0 
L 42.1875 0 
Q 40.828125 2.734375 40.4375 6.390625 
z
M 39.703125 26.03125 
Q 34.90625 24.078125 25.34375 22.703125 
Q 19.921875 21.921875 17.671875 20.9375 
Q 15.4375 19.96875 14.203125 18.09375 
Q 12.984375 16.21875 12.984375 13.921875 
Q 12.984375 10.40625 15.640625 8.0625 
Q 18.3125 5.71875 23.4375 5.71875 
Q 28.515625 5.71875 32.46875 7.9375 
Q 36.421875 10.15625 38.28125 14.015625 
Q 39.703125 17 39.703125 22.796875 
z
" id="ArialMT-61"/>
     <path d="M 6.5 0 
L 6.5 51.859375 
L 14.40625 51.859375 
L 14.40625 44 
Q 17.4375 49.515625 20 51.265625 
Q 22.5625 53.03125 25.640625 53.03125 
Q 30.078125 53.03125 34.671875 50.203125 
L 31.640625 42.046875 
Q 28.421875 43.953125 25.203125 43.953125 
Q 22.3125 43.953125 20.015625 42.21875 
Q 17.71875 40.484375 16.75 37.40625 
Q 15.28125 32.71875 15.28125 27.15625 
L 15.28125 0 
z
" id="ArialMT-72"/>
     <path d="M 42.09375 16.703125 
L 51.171875 15.578125 
Q 49.03125 7.625 43.21875 3.21875 
Q 37.40625 -1.171875 28.375 -1.171875 
Q 17 -1.171875 10.328125 5.828125 
Q 3.65625 12.84375 3.65625 25.484375 
Q 3.65625 38.578125 10.390625 45.796875 
Q 17.140625 53.03125 27.875 53.03125 
Q 38.28125 53.03125 44.875 45.953125 
Q 51.46875 38.875 51.46875 26.03125 
Q 51.46875 25.25 51.421875 23.6875 
L 12.75 23.6875 
Q 13.234375 15.140625 17.578125 10.59375 
Q 21.921875 6.0625 28.421875 6.0625 
Q 33.25 6.0625 36.671875 8.59375 
Q 40.09375 11.140625 42.09375 16.703125 
z
M 13.234375 30.90625 
L 42.1875 30.90625 
Q 41.609375 37.453125 38.875 40.71875 
Q 34.671875 45.796875 27.984375 45.796875 
Q 21.921875 45.796875 17.796875 41.75 
Q 13.671875 37.703125 13.234375 30.90625 
z
" id="ArialMT-65"/>
     <path d="M 9.03125 41.84375 
L 9.03125 51.859375 
L 19.046875 51.859375 
L 19.046875 41.84375 
z
M 9.03125 0 
L 9.03125 10.015625 
L 19.046875 10.015625 
L 19.046875 0 
z
" id="ArialMT-3a"/>
     <path d="M 9.078125 0 
L 9.078125 10.015625 
L 19.09375 10.015625 
L 19.09375 0 
z
" id="ArialMT-2e"/>
     <path d="M 4.15625 18.75 
L 13.375 19.53125 
Q 14.40625 12.796875 18.140625 9.390625 
Q 21.875 6 27.15625 6 
Q 33.5 6 37.890625 10.78125 
Q 42.28125 15.578125 42.28125 23.484375 
Q 42.28125 31 38.0625 35.34375 
Q 33.84375 39.703125 27 39.703125 
Q 22.75 39.703125 19.328125 37.765625 
Q 15.921875 35.84375 13.96875 32.765625 
L 5.71875 33.84375 
L 12.640625 70.609375 
L 48.25 70.609375 
L 48.25 62.203125 
L 19.671875 62.203125 
L 15.828125 42.96875 
Q 22.265625 47.46875 29.34375 47.46875 
Q 38.71875 47.46875 45.15625 40.96875 
Q 51.609375 34.46875 51.609375 24.265625 
Q 51.609375 14.546875 45.953125 7.46875 
Q 39.0625 -1.21875 27.15625 -1.21875 
Q 17.390625 -1.21875 11.203125 4.25 
Q 5.03125 9.71875 4.15625 18.75 
z
" id="ArialMT-35"/>
    </defs>
    <g style="fill:#262626;" transform="translate(51.46 21.48)scale(0.132 -0.132)">
     <use transform="translate(0 0.09375)" xlink:href="#DejaVuSans-394"/>
     <use transform="translate(68.408203 0.09375)" xlink:href="#ArialMT-20"/>
     <use transform="translate(96.191406 0.09375)" xlink:href="#ArialMT-61"/>
     <use transform="translate(151.806641 0.09375)" xlink:href="#ArialMT-72"/>
     <use transform="translate(185.107422 0.09375)" xlink:href="#ArialMT-65"/>
     <use transform="translate(240.722656 0.09375)" xlink:href="#ArialMT-61"/>
     <use transform="translate(296.337891 0.09375)" xlink:href="#ArialMT-20"/>
     <use transform="translate(324.121094 0.09375)" xlink:href="#ArialMT-3a"/>
     <use transform="translate(351.904297 0.09375)" xlink:href="#ArialMT-20"/>
     <use transform="translate(379.6875 0.09375)" xlink:href="#ArialMT-30"/>
     <use transform="translate(435.302734 0.09375)" xlink:href="#ArialMT-2e"/>
     <use transform="translate(463.085938 0.09375)" xlink:href="#ArialMT-35"/>
     <use transform="translate(518.701172 0.09375)" xlink:href="#ArialMT-31"/>
    </g>
   </g>
  </g>
 </g>
 <defs>
  <clipPath id="p9e48968875">
   <rect height="74.44" width="82.06" x="48.38" y="27.48"/>
  </clipPath>
 </defs>
</svg>
