<?xml version="1.0" encoding="utf-8" standalone="no"?>
<!DOCTYPE svg PUBLIC "-//W3C//DTD SVG 1.1//EN"
  "http://www.w3.org/Graphics/SVG/1.1/DTD/svg11.dtd">
<!-- Created with matplotlib (http://matplotlib.org/) -->
<svg height="216pt" version="1.1" viewBox="0 0 216 216" width="216pt" xmlns="http://www.w3.org/2000/svg" xmlns:xlink="http://www.w3.org/1999/xlink">
 <defs>
  <style type="text/css">
*{stroke-linecap:butt;stroke-linejoin:round;}
  </style>
 </defs>
 <g id="figure_1">
  <g id="patch_1">
   <path d="M 0 216 
L 216 216 
L 216 0 
L 0 0 
z
" style="fill:#ffffff;"/>
  </g>
  <g id="axes_1">
   <g id="patch_2">
    <path d="M 38.96 175.96 
L 203.52 175.96 
L 203.52 25.44 
L 38.96 25.44 
z
" style="fill:#ffffff;"/>
   </g>
   <g id="matplotlib.axis_1">
    <g id="xtick_1">
     <g id="line2d_1">
      <defs>
       <path d="M 0 0 
L 0 3.5 
" id="m9f0fe97639" style="stroke:#262626;stroke-width:0.8;"/>
      </defs>
      <g>
       <use style="fill:#262626;stroke:#262626;stroke-width:0.8;" x="46.44" xlink:href="#m9f0fe97639" y="175.96"/>
      </g>
     </g>
     <g id="text_1">
      <!-- 2 -->
      <defs>
       <path d="M 50.34375 8.453125 
L 50.34375 0 
L 3.03125 0 
Q 2.9375 3.171875 4.046875 6.109375 
Q 5.859375 10.9375 9.828125 15.625 
Q 13.8125 20.3125 21.34375 26.46875 
Q 33.015625 36.03125 37.109375 41.625 
Q 41.21875 47.21875 41.21875 52.203125 
Q 41.21875 57.421875 37.46875 61 
Q 33.734375 64.59375 27.734375 64.59375 
Q 21.390625 64.59375 17.578125 60.78125 
Q 13.765625 56.984375 13.71875 50.25 
L 4.6875 51.171875 
Q 5.609375 61.28125 11.65625 66.578125 
Q 17.71875 71.875 27.9375 71.875 
Q 38.234375 71.875 44.234375 66.15625 
Q 50.25 60.453125 50.25 52 
Q 50.25 47.703125 48.484375 43.546875 
Q 46.734375 39.40625 42.65625 34.8125 
Q 38.578125 30.21875 29.109375 22.21875 
Q 21.1875 15.578125 18.9375 13.203125 
Q 16.703125 10.84375 15.234375 8.453125 
z
" id="ArialMT-32"/>
      </defs>
      <g style="fill:#262626;" transform="translate(43.659531 190.117812)scale(0.1 -0.1)">
       <use xlink:href="#ArialMT-32"/>
      </g>
     </g>
    </g>
    <g id="xtick_2">
     <g id="line2d_2">
      <g>
       <use style="fill:#262626;stroke:#262626;stroke-width:0.8;" x="76.36" xlink:href="#m9f0fe97639" y="175.96"/>
      </g>
     </g>
     <g id="text_2">
      <!-- 4 -->
      <defs>
       <path d="M 32.328125 0 
L 32.328125 17.140625 
L 1.265625 17.140625 
L 1.265625 25.203125 
L 33.9375 71.578125 
L 41.109375 71.578125 
L 41.109375 25.203125 
L 50.78125 25.203125 
L 50.78125 17.140625 
L 41.109375 17.140625 
L 41.109375 0 
z
M 32.328125 25.203125 
L 32.328125 57.46875 
L 9.90625 25.203125 
z
" id="ArialMT-34"/>
      </defs>
      <g style="fill:#262626;" transform="translate(73.579531 190.117812)scale(0.1 -0.1)">
       <use xlink:href="#ArialMT-34"/>
      </g>
     </g>
    </g>
    <g id="xtick_3">
     <g id="line2d_3">
      <g>
       <use style="fill:#262626;stroke:#262626;stroke-width:0.8;" x="106.28" xlink:href="#m9f0fe97639" y="175.96"/>
      </g>
     </g>
     <g id="text_3">
      <!-- 6 -->
      <defs>
       <path d="M 49.75 54.046875 
L 41.015625 53.375 
Q 39.84375 58.546875 37.703125 60.890625 
Q 34.125 64.65625 28.90625 64.65625 
Q 24.703125 64.65625 21.53125 62.3125 
Q 17.390625 59.28125 14.984375 53.46875 
Q 12.59375 47.65625 12.5 36.921875 
Q 15.671875 41.75 20.265625 44.09375 
Q 24.859375 46.4375 29.890625 46.4375 
Q 38.671875 46.4375 44.84375 39.96875 
Q 51.03125 33.5 51.03125 23.25 
Q 51.03125 16.5 48.125 10.71875 
Q 45.21875 4.9375 40.140625 1.859375 
Q 35.0625 -1.21875 28.609375 -1.21875 
Q 17.625 -1.21875 10.6875 6.859375 
Q 3.765625 14.9375 3.765625 33.5 
Q 3.765625 54.25 11.421875 63.671875 
Q 18.109375 71.875 29.4375 71.875 
Q 37.890625 71.875 43.28125 67.140625 
Q 48.6875 62.40625 49.75 54.046875 
z
M 13.875 23.1875 
Q 13.875 18.65625 15.796875 14.5 
Q 17.71875 10.359375 21.1875 8.171875 
Q 24.65625 6 28.46875 6 
Q 34.03125 6 38.03125 10.484375 
Q 42.046875 14.984375 42.046875 22.703125 
Q 42.046875 30.125 38.078125 34.390625 
Q 34.125 38.671875 28.125 38.671875 
Q 22.171875 38.671875 18.015625 34.390625 
Q 13.875 30.125 13.875 23.1875 
z
" id="ArialMT-36"/>
      </defs>
      <g style="fill:#262626;" transform="translate(103.499531 190.117812)scale(0.1 -0.1)">
       <use xlink:href="#ArialMT-36"/>
      </g>
     </g>
    </g>
    <g id="xtick_4">
     <g id="line2d_4">
      <g>
       <use style="fill:#262626;stroke:#262626;stroke-width:0.8;" x="136.2" xlink:href="#m9f0fe97639" y="175.96"/>
      </g>
     </g>
     <g id="text_4">
      <!-- 8 -->
      <defs>
       <path d="M 17.671875 38.8125 
Q 12.203125 40.828125 9.5625 44.53125 
Q 6.9375 48.25 6.9375 53.421875 
Q 6.9375 61.234375 12.546875 66.546875 
Q 18.171875 71.875 27.484375 71.875 
Q 36.859375 71.875 42.578125 66.421875 
Q 48.296875 60.984375 48.296875 53.171875 
Q 48.296875 48.1875 45.671875 44.5 
Q 43.0625 40.828125 37.75 38.8125 
Q 44.34375 36.671875 47.78125 31.875 
Q 51.21875 27.09375 51.21875 20.453125 
Q 51.21875 11.28125 44.71875 5.03125 
Q 38.234375 -1.21875 27.640625 -1.21875 
Q 17.046875 -1.21875 10.546875 5.046875 
Q 4.046875 11.328125 4.046875 20.703125 
Q 4.046875 27.6875 7.59375 32.390625 
Q 11.140625 37.109375 17.671875 38.8125 
z
M 15.921875 53.71875 
Q 15.921875 48.640625 19.1875 45.40625 
Q 22.46875 42.1875 27.6875 42.1875 
Q 32.765625 42.1875 36.015625 45.375 
Q 39.265625 48.578125 39.265625 53.21875 
Q 39.265625 58.0625 35.90625 61.359375 
Q 32.5625 64.65625 27.59375 64.65625 
Q 22.5625 64.65625 19.234375 61.421875 
Q 15.921875 58.203125 15.921875 53.71875 
z
M 13.09375 20.65625 
Q 13.09375 16.890625 14.875 13.375 
Q 16.65625 9.859375 20.171875 7.921875 
Q 23.6875 6 27.734375 6 
Q 34.03125 6 38.125 10.046875 
Q 42.234375 14.109375 42.234375 20.359375 
Q 42.234375 26.703125 38.015625 30.859375 
Q 33.796875 35.015625 27.4375 35.015625 
Q 21.234375 35.015625 17.15625 30.90625 
Q 13.09375 26.8125 13.09375 20.65625 
z
" id="ArialMT-38"/>
      </defs>
      <g style="fill:#262626;" transform="translate(133.419531 190.117812)scale(0.1 -0.1)">
       <use xlink:href="#ArialMT-38"/>
      </g>
     </g>
    </g>
    <g id="xtick_5">
     <g id="line2d_5">
      <g>
       <use style="fill:#262626;stroke:#262626;stroke-width:0.8;" x="166.12" xlink:href="#m9f0fe97639" y="175.96"/>
      </g>
     </g>
     <g id="text_5">
      <!-- 10 -->
      <defs>
       <path d="M 37.25 0 
L 28.46875 0 
L 28.46875 56 
Q 25.296875 52.984375 20.140625 49.953125 
Q 14.984375 46.921875 10.890625 45.40625 
L 10.890625 53.90625 
Q 18.265625 57.375 23.78125 62.296875 
Q 29.296875 67.234375 31.59375 71.875 
L 37.25 71.875 
z
" id="ArialMT-31"/>
       <path d="M 4.15625 35.296875 
Q 4.15625 48 6.765625 55.734375 
Q 9.375 63.484375 14.515625 67.671875 
Q 19.671875 71.875 27.484375 71.875 
Q 33.25 71.875 37.59375 69.546875 
Q 41.9375 67.234375 44.765625 62.859375 
Q 47.609375 58.5 49.21875 52.21875 
Q 50.828125 45.953125 50.828125 35.296875 
Q 50.828125 22.703125 48.234375 14.96875 
Q 45.65625 7.234375 40.5 3 
Q 35.359375 -1.21875 27.484375 -1.21875 
Q 17.140625 -1.21875 11.234375 6.203125 
Q 4.15625 15.140625 4.15625 35.296875 
z
M 13.1875 35.296875 
Q 13.1875 17.671875 17.3125 11.828125 
Q 21.4375 6 27.484375 6 
Q 33.546875 6 37.671875 11.859375 
Q 41.796875 17.71875 41.796875 35.296875 
Q 41.796875 52.984375 37.671875 58.78125 
Q 33.546875 64.59375 27.390625 64.59375 
Q 21.34375 64.59375 17.71875 59.46875 
Q 13.1875 52.9375 13.1875 35.296875 
z
" id="ArialMT-30"/>
      </defs>
      <g style="fill:#262626;" transform="translate(160.559062 190.117812)scale(0.1 -0.1)">
       <use xlink:href="#ArialMT-31"/>
       <use x="55.615234" xlink:href="#ArialMT-30"/>
      </g>
     </g>
    </g>
    <g id="xtick_6">
     <g id="line2d_6">
      <g>
       <use style="fill:#262626;stroke:#262626;stroke-width:0.8;" x="196.04" xlink:href="#m9f0fe97639" y="175.96"/>
      </g>
     </g>
     <g id="text_6">
      <!-- 12 -->
      <g style="fill:#262626;" transform="translate(190.479062 190.117812)scale(0.1 -0.1)">
       <use xlink:href="#ArialMT-31"/>
       <use x="55.615234" xlink:href="#ArialMT-32"/>
      </g>
     </g>
    </g>
    <g id="text_7">
     <!-- pH -->
     <defs>
      <path d="M 6.59375 -19.875 
L 6.59375 51.859375 
L 14.59375 51.859375 
L 14.59375 45.125 
Q 17.4375 49.078125 21 51.046875 
Q 24.5625 53.03125 29.640625 53.03125 
Q 36.28125 53.03125 41.359375 49.609375 
Q 46.4375 46.1875 49.015625 39.953125 
Q 51.609375 33.734375 51.609375 26.3125 
Q 51.609375 18.359375 48.75 11.984375 
Q 45.90625 5.609375 40.453125 2.21875 
Q 35.015625 -1.171875 29 -1.171875 
Q 24.609375 -1.171875 21.109375 0.6875 
Q 17.625 2.546875 15.375 5.375 
L 15.375 -19.875 
z
M 14.546875 25.640625 
Q 14.546875 15.625 18.59375 10.84375 
Q 22.65625 6.0625 28.421875 6.0625 
Q 34.28125 6.0625 38.453125 11.015625 
Q 42.625 15.96875 42.625 26.375 
Q 42.625 36.28125 38.546875 41.203125 
Q 34.46875 46.140625 28.8125 46.140625 
Q 23.1875 46.140625 18.859375 40.890625 
Q 14.546875 35.640625 14.546875 25.640625 
z
" id="ArialMT-70"/>
      <path d="M 8.015625 0 
L 8.015625 71.578125 
L 17.484375 71.578125 
L 17.484375 42.1875 
L 54.6875 42.1875 
L 54.6875 71.578125 
L 64.15625 71.578125 
L 64.15625 0 
L 54.6875 0 
L 54.6875 33.734375 
L 17.484375 33.734375 
L 17.484375 0 
z
" id="ArialMT-48"/>
     </defs>
     <g style="fill:#262626;" transform="translate(114.848594 203.263125)scale(0.1 -0.1)">
      <use xlink:href="#ArialMT-70"/>
      <use x="55.615234" xlink:href="#ArialMT-48"/>
     </g>
    </g>
   </g>
   <g id="matplotlib.axis_2">
    <g id="ytick_1">
     <g id="line2d_7">
      <defs>
       <path d="M 0 0 
L -3.5 0 
" id="m813c12e6b0" style="stroke:#262626;stroke-width:0.8;"/>
      </defs>
      <g>
       <use style="fill:#262626;stroke:#262626;stroke-width:0.8;" x="38.96" xlink:href="#m813c12e6b0" y="125.907023"/>
      </g>
     </g>
     <g id="text_8">
      <!-- 0 -->
      <g style="fill:#262626;" transform="translate(26.399063 129.485929)scale(0.1 -0.1)">
       <use xlink:href="#ArialMT-30"/>
      </g>
     </g>
    </g>
    <g id="ytick_2">
     <g id="line2d_8">
      <g>
       <use style="fill:#262626;stroke:#262626;stroke-width:0.8;" x="38.96" xlink:href="#m813c12e6b0" y="69.748505"/>
      </g>
     </g>
     <g id="text_9">
      <!-- 1 -->
      <g style="fill:#262626;" transform="translate(26.399063 73.327411)scale(0.1 -0.1)">
       <use xlink:href="#ArialMT-31"/>
      </g>
     </g>
    </g>
    <g id="text_10">
     <!-- $\langle q_\mathsf{total} \rangle$ -->
     <defs>
      <path d="M 8.9375 31.34375 
L 22.703125 75.875 
L 31 75.875 
L 17.234375 31.34375 
L 31 -13.1875 
L 22.703125 -13.1875 
z
" id="DejaVuSans-27e8"/>
      <path d="M 41.703125 8.203125 
Q 38.09375 3.46875 33.171875 1.015625 
Q 28.265625 -1.421875 22.3125 -1.421875 
Q 14.015625 -1.421875 9.296875 4.171875 
Q 4.59375 9.765625 4.59375 19.578125 
Q 4.59375 27.484375 7.5 34.859375 
Q 10.40625 42.234375 15.828125 48.09375 
Q 19.34375 51.90625 23.90625 53.953125 
Q 28.46875 56 33.5 56 
Q 39.546875 56 43.453125 53.609375 
Q 47.359375 51.21875 49.125 46.390625 
L 50.6875 54.59375 
L 59.71875 54.59375 
L 45.125 -20.609375 
L 36.078125 -20.609375 
z
M 13.921875 20.90625 
Q 13.921875 13.671875 16.9375 9.890625 
Q 19.96875 6.109375 25.6875 6.109375 
Q 34.1875 6.109375 40.1875 14.234375 
Q 46.1875 22.359375 46.1875 33.984375 
Q 46.1875 41.015625 43.078125 44.75 
Q 39.984375 48.484375 34.1875 48.484375 
Q 29.9375 48.484375 26.3125 46.5 
Q 22.703125 44.53125 20.015625 40.71875 
Q 17.1875 36.71875 15.546875 31.34375 
Q 13.921875 25.984375 13.921875 20.90625 
z
" id="DejaVuSans-Oblique-71"/>
      <path d="M 18.3125 70.21875 
L 18.3125 54.6875 
L 36.8125 54.6875 
L 36.8125 47.703125 
L 18.3125 47.703125 
L 18.3125 18.015625 
Q 18.3125 11.328125 20.140625 9.421875 
Q 21.96875 7.515625 27.59375 7.515625 
L 36.8125 7.515625 
L 36.8125 0 
L 27.59375 0 
Q 17.1875 0 13.234375 3.875 
Q 9.28125 7.765625 9.28125 18.015625 
L 9.28125 47.703125 
L 2.6875 47.703125 
L 2.6875 54.6875 
L 9.28125 54.6875 
L 9.28125 70.21875 
z
" id="DejaVuSans-74"/>
      <path d="M 30.609375 48.390625 
Q 23.390625 48.390625 19.1875 42.75 
Q 14.984375 37.109375 14.984375 27.296875 
Q 14.984375 17.484375 19.15625 11.84375 
Q 23.34375 6.203125 30.609375 6.203125 
Q 37.796875 6.203125 41.984375 11.859375 
Q 46.1875 17.53125 46.1875 27.296875 
Q 46.1875 37.015625 41.984375 42.703125 
Q 37.796875 48.390625 30.609375 48.390625 
z
M 30.609375 56 
Q 42.328125 56 49.015625 48.375 
Q 55.71875 40.765625 55.71875 27.296875 
Q 55.71875 13.875 49.015625 6.21875 
Q 42.328125 -1.421875 30.609375 -1.421875 
Q 18.84375 -1.421875 12.171875 6.21875 
Q 5.515625 13.875 5.515625 27.296875 
Q 5.515625 40.765625 12.171875 48.375 
Q 18.84375 56 30.609375 56 
z
" id="DejaVuSans-6f"/>
      <path d="M 34.28125 27.484375 
Q 23.390625 27.484375 19.1875 25 
Q 14.984375 22.515625 14.984375 16.5 
Q 14.984375 11.71875 18.140625 8.90625 
Q 21.296875 6.109375 26.703125 6.109375 
Q 34.1875 6.109375 38.703125 11.40625 
Q 43.21875 16.703125 43.21875 25.484375 
L 43.21875 27.484375 
z
M 52.203125 31.203125 
L 52.203125 0 
L 43.21875 0 
L 43.21875 8.296875 
Q 40.140625 3.328125 35.546875 0.953125 
Q 30.953125 -1.421875 24.3125 -1.421875 
Q 15.921875 -1.421875 10.953125 3.296875 
Q 6 8.015625 6 15.921875 
Q 6 25.140625 12.171875 29.828125 
Q 18.359375 34.515625 30.609375 34.515625 
L 43.21875 34.515625 
L 43.21875 35.40625 
Q 43.21875 41.609375 39.140625 45 
Q 35.0625 48.390625 27.6875 48.390625 
Q 23 48.390625 18.546875 47.265625 
Q 14.109375 46.140625 10.015625 43.890625 
L 10.015625 52.203125 
Q 14.9375 54.109375 19.578125 55.046875 
Q 24.21875 56 28.609375 56 
Q 40.484375 56 46.34375 49.84375 
Q 52.203125 43.703125 52.203125 31.203125 
z
" id="DejaVuSans-61"/>
      <path d="M 9.421875 75.984375 
L 18.40625 75.984375 
L 18.40625 0 
L 9.421875 0 
z
" id="DejaVuSans-6c"/>
      <path d="M 30.078125 31.34375 
L 16.3125 -13.1875 
L 8.015625 -13.1875 
L 21.78125 31.34375 
L 8.015625 75.875 
L 16.3125 75.875 
z
" id="DejaVuSans-27e9"/>
     </defs>
     <g style="fill:#262626;" transform="translate(20.299063 115.95)rotate(-90)scale(0.1 -0.1)">
      <use transform="translate(0 0.125)" xlink:href="#DejaVuSans-27e8"/>
      <use transform="translate(39.013672 0.125)" xlink:href="#DejaVuSans-Oblique-71"/>
      <use transform="translate(102.490234 -16.28125)scale(0.7)" xlink:href="#DejaVuSans-74"/>
      <use transform="translate(129.936523 -16.28125)scale(0.7)" xlink:href="#DejaVuSans-6f"/>
      <use transform="translate(172.763672 -16.28125)scale(0.7)" xlink:href="#DejaVuSans-74"/>
      <use transform="translate(200.209961 -16.28125)scale(0.7)" xlink:href="#DejaVuSans-61"/>
      <use transform="translate(243.105469 -16.28125)scale(0.7)" xlink:href="#DejaVuSans-6c"/>
      <use transform="translate(265.288086 0.125)" xlink:href="#DejaVuSans-27e9"/>
     </g>
    </g>
   </g>
   <g id="PolyCollection_1">
    <defs>
     <path d="M 46.44 -183.718182 
L 46.44 -95.985693 
L 47.936 -94.015925 
L 49.432 -91.817168 
L 50.928 -89.372871 
L 52.424 -86.677186 
L 53.92 -83.738963 
L 55.416 -80.584829 
L 56.912 -77.260559 
L 58.408 -73.829993 
L 59.904 -70.371075 
L 61.4 -66.969204 
L 62.896 -63.70891 
L 64.392 -60.665471 
L 65.888 -57.898333 
L 67.384 -55.447588 
L 68.88 -53.333602 
L 70.376 -51.559063 
L 71.872 -50.112516 
L 73.368 -48.972535 
L 74.864 -48.111812 
L 76.36 -47.500661 
L 77.856 -47.10969 
L 79.352 -46.911543 
L 80.848 -46.881818 
L 82.344 -46.999377 
L 83.84 -47.246237 
L 85.336 -47.60718 
L 86.832 -48.069199 
L 88.328 -48.62091 
L 89.824 -49.252081 
L 91.32 -49.953328 
L 92.816 -50.715971 
L 94.312 -51.531996 
L 95.808 -52.394052 
L 97.304 -53.295462 
L 98.8 -54.23019 
L 100.296 -55.192791 
L 101.792 -56.178334 
L 103.288 -57.182312 
L 104.784 -58.20055 
L 106.28 -59.22913 
L 107.776 -60.26432 
L 109.272 -61.302526 
L 110.768 -62.340247 
L 112.264 -63.374063 
L 113.76 -64.400622 
L 115.256 -65.416671 
L 116.752 -66.4191 
L 118.248 -67.405016 
L 119.744 -68.371847 
L 121.24 -69.317453 
L 122.736 -70.240225 
L 124.232 -71.139137 
L 125.728 -72.013702 
L 127.224 -72.863847 
L 128.72 -73.689727 
L 130.216 -74.491523 
L 131.712 -75.269299 
L 133.208 -76.022927 
L 134.704 -76.7521 
L 136.2 -77.456413 
L 137.696 -78.135461 
L 139.192 -78.788927 
L 140.688 -79.416628 
L 142.184 -80.018508 
L 143.68 -80.594615 
L 145.176 -81.145084 
L 146.672 -81.670172 
L 148.168 -82.170322 
L 149.664 -82.646234 
L 151.16 -83.098888 
L 152.656 -83.529492 
L 154.152 -83.939354 
L 155.648 -84.329735 
L 157.144 -84.701695 
L 158.64 -85.055968 
L 160.136 -85.392846 
L 161.632 -85.711992 
L 163.128 -86.012131 
L 164.624 -86.290532 
L 166.12 -86.542245 
L 167.616 -86.759128 
L 169.112 -86.92882 
L 170.608 -87.034166 
L 172.104 -87.054028 
L 173.6 -86.966384 
L 175.096 -86.753103 
L 176.592 -86.403476 
L 178.088 -85.913942 
L 179.584 -85.284832 
L 181.08 -84.517005 
L 182.576 -83.609989 
L 184.072 -82.561549 
L 185.568 -81.368018 
L 187.064 -80.024884 
L 188.56 -78.527358 
L 190.056 -76.87084 
L 191.552 -75.051246 
L 193.048 -73.065199 
L 194.544 -70.910088 
L 196.04 -68.584049 
L 196.04 -105.07871 
L 196.04 -105.07871 
L 194.544 -104.031666 
L 193.048 -102.914748 
L 191.552 -101.767826 
L 190.056 -100.624114 
L 188.56 -99.510474 
L 187.064 -98.448017 
L 185.568 -97.452928 
L 184.072 -96.537424 
L 182.576 -95.710823 
L 181.08 -94.980653 
L 179.584 -94.3537 
L 178.088 -93.836743 
L 176.592 -93.436456 
L 175.096 -93.157823 
L 173.6 -93.000999 
L 172.104 -92.958241 
L 170.608 -93.013782 
L 169.112 -93.147486 
L 167.616 -93.339714 
L 166.12 -93.574506 
L 164.624 -93.84045 
L 163.128 -94.130157 
L 161.632 -94.439281 
L 160.136 -94.765566 
L 158.64 -95.108118 
L 157.144 -95.466901 
L 155.648 -95.842446 
L 154.152 -96.23568 
L 152.656 -96.647814 
L 151.16 -97.080228 
L 149.664 -97.534329 
L 148.168 -98.011401 
L 146.672 -98.512486 
L 145.176 -99.038332 
L 143.68 -99.589425 
L 142.184 -100.166054 
L 140.688 -100.768382 
L 139.192 -101.396481 
L 137.696 -102.050315 
L 136.2 -102.729722 
L 134.704 -103.434403 
L 133.208 -104.163974 
L 131.712 -104.91805 
L 130.216 -105.696349 
L 128.72 -106.49877 
L 127.224 -107.325409 
L 125.728 -108.176491 
L 124.232 -109.052217 
L 122.736 -109.952578 
L 121.24 -110.877165 
L 119.744 -111.825045 
L 118.248 -112.794733 
L 116.752 -113.784241 
L 115.256 -114.791188 
L 113.76 -115.81292 
L 112.264 -116.84663 
L 110.768 -117.889445 
L 109.272 -118.938492 
L 107.776 -119.990952 
L 106.28 -121.04408 
L 104.784 -122.095233 
L 103.288 -123.141877 
L 101.792 -124.181593 
L 100.296 -125.212097 
L 98.8 -126.231248 
L 97.304 -127.237086 
L 95.808 -128.22789 
L 94.312 -129.202285 
L 92.816 -130.159414 
L 91.32 -131.099192 
L 89.824 -132.02264 
L 88.328 -132.93229 
L 86.832 -133.832607 
L 85.336 -134.730393 
L 83.84 -135.635075 
L 82.344 -136.558878 
L 80.848 -137.516861 
L 79.352 -138.526908 
L 77.856 -139.609655 
L 76.36 -140.788302 
L 74.864 -142.088165 
L 73.368 -143.535858 
L 71.872 -145.157963 
L 70.376 -146.978998 
L 68.88 -149.018496 
L 67.384 -151.287246 
L 65.888 -153.783055 
L 64.392 -156.486878 
L 62.896 -159.360496 
L 61.4 -162.346837 
L 59.904 -165.373433 
L 58.408 -168.358746 
L 56.912 -171.220484 
L 55.416 -173.884312 
L 53.92 -176.291039 
L 52.424 -178.400807 
L 50.928 -180.193816 
L 49.432 -181.668126 
L 47.936 -182.835727 
L 46.44 -183.718182 
z
" id="mffc676eb81" style="stroke:#ffffff;stroke-opacity:0.05;"/>
    </defs>
    <g clip-path="url(#pa06054b69a)">
     <use style="fill:#001c7f;fill-opacity:0.05;stroke:#ffffff;stroke-opacity:0.05;" x="0" xlink:href="#mffc676eb81" y="216"/>
    </g>
   </g>
   <g id="line2d_9">
    <path clip-path="url(#pa06054b69a)" d="M 46.44 76.148063 
L 47.936 77.574174 
L 49.432 79.257353 
L 50.928 81.216656 
L 52.424 83.461003 
L 53.92 85.984999 
L 55.416 88.765429 
L 56.912 91.759479 
L 58.408 94.90563 
L 59.904 98.127746 
L 61.4 101.341979 
L 62.896 104.465297 
L 64.392 107.423826 
L 65.888 110.159306 
L 67.384 112.632583 
L 68.88 114.823951 
L 70.376 116.73097 
L 71.872 118.364761 
L 73.368 119.745804 
L 74.864 120.900012 
L 76.36 121.855519 
L 77.856 122.640327 
L 79.352 123.280775 
L 80.848 123.80066 
L 82.344 124.220872 
L 83.84 124.559344 
L 85.336 124.831214 
L 86.832 125.049097 
L 88.328 125.2234 
L 89.824 125.362639 
L 91.32 125.47374 
L 92.816 125.562307 
L 94.312 125.63286 
L 95.808 125.689029 
L 97.304 125.733726 
L 98.8 125.769281 
L 100.296 125.797556 
L 101.792 125.820036 
L 103.288 125.837906 
L 104.784 125.852108 
L 106.28 125.863395 
L 107.776 125.872364 
L 109.272 125.879491 
L 110.768 125.885154 
L 112.264 125.889654 
L 113.76 125.893229 
L 115.256 125.896071 
L 116.752 125.898329 
L 118.248 125.900125 
L 119.744 125.901554 
L 121.24 125.902691 
L 122.736 125.903598 
L 124.232 125.904323 
L 125.728 125.904904 
L 127.224 125.905372 
L 128.72 125.905752 
L 130.216 125.906064 
L 131.712 125.906325 
L 133.208 125.906549 
L 134.704 125.906748 
L 136.2 125.906933 
L 137.696 125.907112 
L 139.192 125.907296 
L 140.688 125.907495 
L 142.184 125.907719 
L 143.68 125.90798 
L 145.176 125.908292 
L 146.672 125.908671 
L 148.168 125.909138 
L 149.664 125.909718 
L 151.16 125.910442 
L 152.656 125.911347 
L 154.152 125.912483 
L 155.648 125.913909 
L 157.144 125.915702 
L 158.64 125.917957 
L 160.136 125.920794 
L 161.632 125.924364 
L 163.128 125.928856 
L 164.624 125.934509 
L 166.12 125.941624 
L 167.616 125.950579 
L 169.112 125.961847 
L 170.608 125.976026 
L 172.104 125.993866 
L 173.6 126.016309 
L 175.096 126.044537 
L 176.592 126.080034 
L 178.088 126.124658 
L 179.584 126.180734 
L 181.08 126.251171 
L 182.576 126.339594 
L 184.072 126.450513 
L 185.568 126.589527 
L 187.064 126.763549 
L 188.56 126.981084 
L 190.056 127.252523 
L 191.552 127.590464 
L 193.048 128.010026 
L 194.544 128.529123 
L 196.04 129.16862 
" style="fill:none;opacity:0.9;stroke:#001c7f;stroke-linecap:round;stroke-width:1.5;"/>
   </g>
   <g id="line2d_10">
    <path clip-path="url(#pa06054b69a)" d="M 46.44 69.800866 
L 47.936 69.814408 
L 49.432 69.831447 
L 50.928 69.852883 
L 52.424 69.879846 
L 53.92 69.913753 
L 55.416 69.956381 
L 56.912 70.009955 
L 58.408 70.077255 
L 59.904 70.16175 
L 61.4 70.267761 
L 62.896 70.400648 
L 64.392 70.567043 
L 65.888 70.775109 
L 67.384 71.034835 
L 68.88 71.358351 
L 70.376 71.760248 
L 71.872 72.257865 
L 73.368 72.87147 
L 74.864 73.624278 
L 76.36 74.542154 
L 77.856 75.652855 
L 79.352 76.984654 
L 80.848 78.564159 
L 82.344 80.41328 
L 83.84 82.545421 
L 85.336 84.961288 
L 86.832 87.644998 
L 88.328 90.561495 
L 89.824 93.656298 
L 91.32 96.858326 
L 92.816 100.085799 
L 94.312 103.254315 
L 95.808 106.285497 
L 97.304 109.114357 
L 98.8 111.694028 
L 100.296 113.997305 
L 101.792 116.015347 
L 103.288 117.754445 
L 104.784 119.231897 
L 106.28 120.471912 
L 107.776 121.502079 
L 109.272 122.35068 
L 110.768 123.04484 
L 112.264 123.609426 
L 113.76 124.06649 
L 115.256 124.435114 
L 116.752 124.731507 
L 118.248 124.96924 
L 119.744 125.159549 
L 121.24 125.311653 
L 122.736 125.43307 
L 124.232 125.529894 
L 125.728 125.607045 
L 127.224 125.66848 
L 128.72 125.717376 
L 130.216 125.756276 
L 131.712 125.787214 
L 133.208 125.811814 
L 134.704 125.831369 
L 136.2 125.846912 
L 137.696 125.859265 
L 139.192 125.869081 
L 140.688 125.87688 
L 142.184 125.883077 
L 143.68 125.888 
L 145.176 125.891912 
L 146.672 125.895019 
L 148.168 125.897488 
L 149.664 125.899448 
L 151.16 125.901006 
L 152.656 125.902244 
L 154.152 125.903226 
L 155.648 125.904007 
L 157.144 125.904627 
L 158.64 125.90512 
L 160.136 125.905511 
L 161.632 125.905822 
L 163.128 125.906069 
L 164.624 125.906265 
L 166.12 125.906421 
L 167.616 125.906545 
L 169.112 125.906643 
L 170.608 125.906721 
L 172.104 125.906783 
L 173.6 125.906833 
L 175.096 125.906872 
L 176.592 125.906903 
L 178.088 125.906928 
L 179.584 125.906947 
L 181.08 125.906963 
L 182.576 125.906975 
L 184.072 125.906985 
L 185.568 125.906993 
L 187.064 125.906999 
L 188.56 125.907004 
L 190.056 125.907008 
L 191.552 125.907011 
L 193.048 125.907013 
L 194.544 125.907015 
L 196.04 125.907017 
" style="fill:none;opacity:0.7;stroke:#000000;stroke-linecap:round;stroke-width:1.5;"/>
   </g>
   <g id="line2d_11">
    <path clip-path="url(#pa06054b69a)" d="M 46.44 32.281818 
L 47.936 33.164273 
L 49.432 34.331874 
L 50.928 35.806184 
L 52.424 37.599193 
L 53.92 39.708961 
L 55.416 42.115688 
L 56.912 44.779516 
L 58.408 47.641254 
L 59.904 50.626567 
L 61.4 53.653163 
L 62.896 56.639504 
L 64.392 59.513122 
L 65.888 62.216945 
L 67.384 64.712754 
L 68.88 66.981504 
L 70.376 69.021002 
L 71.872 70.842037 
L 73.368 72.464142 
L 74.864 73.911835 
L 76.36 75.211698 
L 77.856 76.390345 
L 79.352 77.473092 
L 80.848 78.483139 
L 82.344 79.441122 
L 83.84 80.364925 
L 85.336 81.269607 
L 86.832 82.167393 
L 88.328 83.06771 
L 89.824 83.97736 
L 91.32 84.900808 
L 92.816 85.840586 
L 94.312 86.797715 
L 95.808 87.77211 
L 97.304 88.762914 
L 98.8 89.768752 
L 100.296 90.787903 
L 101.792 91.818407 
L 103.288 92.858123 
L 104.784 93.904767 
L 106.28 94.95592 
L 107.776 96.009048 
L 109.272 97.061508 
L 110.768 98.110555 
L 112.264 99.15337 
L 113.76 100.18708 
L 115.256 101.208812 
L 116.752 102.215759 
L 118.248 103.205267 
L 119.744 104.174955 
L 121.24 105.122835 
L 122.736 106.047422 
L 124.232 106.947783 
L 125.728 107.823509 
L 127.224 108.674591 
L 128.72 109.50123 
L 130.216 110.303651 
L 131.712 111.08195 
L 133.208 111.836026 
L 134.704 112.565597 
L 136.2 113.270278 
L 137.696 113.949685 
L 139.192 114.603519 
L 140.688 115.231618 
L 142.184 115.833946 
L 143.68 116.410575 
L 145.176 116.961668 
L 146.672 117.487514 
L 148.168 117.988599 
L 149.664 118.465671 
L 151.16 118.919772 
L 152.656 119.352186 
L 154.152 119.76432 
L 155.648 120.157554 
L 157.144 120.533099 
L 158.64 120.891882 
L 160.136 121.234434 
L 161.632 121.560719 
L 163.128 121.869843 
L 164.624 122.15955 
L 166.12 122.425494 
L 167.616 122.660286 
L 169.112 122.852514 
L 170.608 122.986218 
L 172.104 123.041759 
L 173.6 122.999001 
L 175.096 122.842177 
L 176.592 122.563544 
L 178.088 122.163257 
L 179.584 121.6463 
L 181.08 121.019347 
L 182.576 120.289177 
L 184.072 119.462576 
L 185.568 118.547072 
L 187.064 117.551983 
L 188.56 116.489526 
L 190.056 115.375886 
L 191.552 114.232174 
L 193.048 113.085252 
L 194.544 111.968334 
L 196.04 110.92129 
" style="fill:none;opacity:0.45;stroke:#001c7f;stroke-dasharray:2.775,1.2;stroke-dashoffset:0;stroke-width:0.75;"/>
   </g>
   <g id="line2d_12">
    <path clip-path="url(#pa06054b69a)" d="M 46.44 120.014307 
L 47.936 121.984075 
L 49.432 124.182832 
L 50.928 126.627129 
L 52.424 129.322814 
L 53.92 132.261037 
L 55.416 135.415171 
L 56.912 138.739441 
L 58.408 142.170007 
L 59.904 145.628925 
L 61.4 149.030796 
L 62.896 152.29109 
L 64.392 155.334529 
L 65.888 158.101667 
L 67.384 160.552412 
L 68.88 162.666398 
L 70.376 164.440937 
L 71.872 165.887484 
L 73.368 167.027465 
L 74.864 167.888188 
L 76.36 168.499339 
L 77.856 168.89031 
L 79.352 169.088457 
L 80.848 169.118182 
L 82.344 169.000623 
L 83.84 168.753763 
L 85.336 168.39282 
L 86.832 167.930801 
L 88.328 167.37909 
L 89.824 166.747919 
L 91.32 166.046672 
L 92.816 165.284029 
L 94.312 164.468004 
L 95.808 163.605948 
L 97.304 162.704538 
L 98.8 161.76981 
L 100.296 160.807209 
L 101.792 159.821666 
L 103.288 158.817688 
L 104.784 157.79945 
L 106.28 156.77087 
L 107.776 155.73568 
L 109.272 154.697474 
L 110.768 153.659753 
L 112.264 152.625937 
L 113.76 151.599378 
L 115.256 150.583329 
L 116.752 149.5809 
L 118.248 148.594984 
L 119.744 147.628153 
L 121.24 146.682547 
L 122.736 145.759775 
L 124.232 144.860863 
L 125.728 143.986298 
L 127.224 143.136153 
L 128.72 142.310273 
L 130.216 141.508477 
L 131.712 140.730701 
L 133.208 139.977073 
L 134.704 139.2479 
L 136.2 138.543587 
L 137.696 137.864539 
L 139.192 137.211073 
L 140.688 136.583372 
L 142.184 135.981492 
L 143.68 135.405385 
L 145.176 134.854916 
L 146.672 134.329828 
L 148.168 133.829678 
L 149.664 133.353766 
L 151.16 132.901112 
L 152.656 132.470508 
L 154.152 132.060646 
L 155.648 131.670265 
L 157.144 131.298305 
L 158.64 130.944032 
L 160.136 130.607154 
L 161.632 130.288008 
L 163.128 129.987869 
L 164.624 129.709468 
L 166.12 129.457755 
L 167.616 129.240872 
L 169.112 129.07118 
L 170.608 128.965834 
L 172.104 128.945972 
L 173.6 129.033616 
L 175.096 129.246897 
L 176.592 129.596524 
L 178.088 130.086058 
L 179.584 130.715168 
L 181.08 131.482995 
L 182.576 132.390011 
L 184.072 133.438451 
L 185.568 134.631982 
L 187.064 135.975116 
L 188.56 137.472642 
L 190.056 139.12916 
L 191.552 140.948754 
L 193.048 142.934801 
L 194.544 145.089912 
L 196.04 147.415951 
" style="fill:none;opacity:0.45;stroke:#001c7f;stroke-dasharray:2.775,1.2;stroke-dashoffset:0;stroke-width:0.75;"/>
   </g>
   <g id="patch_3">
    <path d="M 38.96 175.96 
L 38.96 25.44 
" style="fill:none;stroke:#262626;stroke-linecap:square;stroke-linejoin:miter;stroke-width:0.8;"/>
   </g>
   <g id="patch_4">
    <path d="M 38.96 175.96 
L 203.52 175.96 
" style="fill:none;stroke:#262626;stroke-linecap:square;stroke-linejoin:miter;stroke-width:0.8;"/>
   </g>
   <g id="text_11">
    <!-- Epik-micro SM02 -->
    <defs>
     <path d="M 7.90625 0 
L 7.90625 71.578125 
L 59.671875 71.578125 
L 59.671875 63.140625 
L 17.390625 63.140625 
L 17.390625 41.21875 
L 56.984375 41.21875 
L 56.984375 32.8125 
L 17.390625 32.8125 
L 17.390625 8.453125 
L 61.328125 8.453125 
L 61.328125 0 
z
" id="ArialMT-45"/>
     <path d="M 6.640625 61.46875 
L 6.640625 71.578125 
L 15.4375 71.578125 
L 15.4375 61.46875 
z
M 6.640625 0 
L 6.640625 51.859375 
L 15.4375 51.859375 
L 15.4375 0 
z
" id="ArialMT-69"/>
     <path d="M 6.640625 0 
L 6.640625 71.578125 
L 15.4375 71.578125 
L 15.4375 30.765625 
L 36.234375 51.859375 
L 47.609375 51.859375 
L 27.78125 32.625 
L 49.609375 0 
L 38.765625 0 
L 21.625 26.515625 
L 15.4375 20.5625 
L 15.4375 0 
z
" id="ArialMT-6b"/>
     <path d="M 3.171875 21.484375 
L 3.171875 30.328125 
L 30.171875 30.328125 
L 30.171875 21.484375 
z
" id="ArialMT-2d"/>
     <path d="M 6.59375 0 
L 6.59375 51.859375 
L 14.453125 51.859375 
L 14.453125 44.578125 
Q 16.890625 48.390625 20.9375 50.703125 
Q 25 53.03125 30.171875 53.03125 
Q 35.9375 53.03125 39.625 50.640625 
Q 43.3125 48.25 44.828125 43.953125 
Q 50.984375 53.03125 60.84375 53.03125 
Q 68.5625 53.03125 72.703125 48.75 
Q 76.859375 44.484375 76.859375 35.59375 
L 76.859375 0 
L 68.109375 0 
L 68.109375 32.671875 
Q 68.109375 37.9375 67.25 40.25 
Q 66.40625 42.578125 64.15625 43.984375 
Q 61.921875 45.40625 58.890625 45.40625 
Q 53.421875 45.40625 49.796875 41.765625 
Q 46.1875 38.140625 46.1875 30.125 
L 46.1875 0 
L 37.40625 0 
L 37.40625 33.6875 
Q 37.40625 39.546875 35.25 42.46875 
Q 33.109375 45.40625 28.21875 45.40625 
Q 24.515625 45.40625 21.359375 43.453125 
Q 18.21875 41.5 16.796875 37.734375 
Q 15.375 33.984375 15.375 26.90625 
L 15.375 0 
z
" id="ArialMT-6d"/>
     <path d="M 40.4375 19 
L 49.078125 17.875 
Q 47.65625 8.9375 41.8125 3.875 
Q 35.984375 -1.171875 27.484375 -1.171875 
Q 16.84375 -1.171875 10.375 5.78125 
Q 3.90625 12.75 3.90625 25.734375 
Q 3.90625 34.125 6.6875 40.421875 
Q 9.46875 46.734375 15.15625 49.875 
Q 20.84375 53.03125 27.546875 53.03125 
Q 35.984375 53.03125 41.359375 48.75 
Q 46.734375 44.484375 48.25 36.625 
L 39.703125 35.296875 
Q 38.484375 40.53125 35.375 43.15625 
Q 32.28125 45.796875 27.875 45.796875 
Q 21.234375 45.796875 17.078125 41.03125 
Q 12.9375 36.28125 12.9375 25.984375 
Q 12.9375 15.53125 16.9375 10.796875 
Q 20.953125 6.0625 27.390625 6.0625 
Q 32.5625 6.0625 36.03125 9.234375 
Q 39.5 12.40625 40.4375 19 
z
" id="ArialMT-63"/>
     <path d="M 6.5 0 
L 6.5 51.859375 
L 14.40625 51.859375 
L 14.40625 44 
Q 17.4375 49.515625 20 51.265625 
Q 22.5625 53.03125 25.640625 53.03125 
Q 30.078125 53.03125 34.671875 50.203125 
L 31.640625 42.046875 
Q 28.421875 43.953125 25.203125 43.953125 
Q 22.3125 43.953125 20.015625 42.21875 
Q 17.71875 40.484375 16.75 37.40625 
Q 15.28125 32.71875 15.28125 27.15625 
L 15.28125 0 
z
" id="ArialMT-72"/>
     <path d="M 3.328125 25.921875 
Q 3.328125 40.328125 11.328125 47.265625 
Q 18.015625 53.03125 27.640625 53.03125 
Q 38.328125 53.03125 45.109375 46.015625 
Q 51.90625 39.015625 51.90625 26.65625 
Q 51.90625 16.65625 48.90625 10.90625 
Q 45.90625 5.171875 40.15625 2 
Q 34.421875 -1.171875 27.640625 -1.171875 
Q 16.75 -1.171875 10.03125 5.8125 
Q 3.328125 12.796875 3.328125 25.921875 
z
M 12.359375 25.921875 
Q 12.359375 15.96875 16.703125 11.015625 
Q 21.046875 6.0625 27.640625 6.0625 
Q 34.1875 6.0625 38.53125 11.03125 
Q 42.875 16.015625 42.875 26.21875 
Q 42.875 35.84375 38.5 40.796875 
Q 34.125 45.75 27.640625 45.75 
Q 21.046875 45.75 16.703125 40.8125 
Q 12.359375 35.890625 12.359375 25.921875 
z
" id="ArialMT-6f"/>
     <path id="ArialMT-20"/>
     <path d="M 4.5 23 
L 13.421875 23.78125 
Q 14.0625 18.40625 16.375 14.96875 
Q 18.703125 11.53125 23.578125 9.40625 
Q 28.46875 7.28125 34.578125 7.28125 
Q 39.984375 7.28125 44.140625 8.890625 
Q 48.296875 10.5 50.3125 13.296875 
Q 52.34375 16.109375 52.34375 19.4375 
Q 52.34375 22.796875 50.390625 25.3125 
Q 48.4375 27.828125 43.953125 29.546875 
Q 41.0625 30.671875 31.203125 33.03125 
Q 21.34375 35.40625 17.390625 37.5 
Q 12.25 40.1875 9.734375 44.15625 
Q 7.234375 48.140625 7.234375 53.078125 
Q 7.234375 58.5 10.296875 63.203125 
Q 13.375 67.921875 19.28125 70.359375 
Q 25.203125 72.796875 32.421875 72.796875 
Q 40.375 72.796875 46.453125 70.234375 
Q 52.546875 67.671875 55.8125 62.6875 
Q 59.078125 57.71875 59.328125 51.421875 
L 50.25 50.734375 
Q 49.515625 57.515625 45.28125 60.984375 
Q 41.0625 64.453125 32.8125 64.453125 
Q 24.21875 64.453125 20.28125 61.296875 
Q 16.359375 58.15625 16.359375 53.71875 
Q 16.359375 49.859375 19.140625 47.359375 
Q 21.875 44.875 33.421875 42.265625 
Q 44.96875 39.65625 49.265625 37.703125 
Q 55.515625 34.8125 58.484375 30.390625 
Q 61.46875 25.984375 61.46875 20.21875 
Q 61.46875 14.5 58.203125 9.4375 
Q 54.9375 4.390625 48.796875 1.578125 
Q 42.671875 -1.21875 35.015625 -1.21875 
Q 25.296875 -1.21875 18.71875 1.609375 
Q 12.15625 4.4375 8.421875 10.125 
Q 4.6875 15.828125 4.5 23 
z
" id="ArialMT-53"/>
     <path d="M 7.421875 0 
L 7.421875 71.578125 
L 21.6875 71.578125 
L 38.625 20.90625 
Q 40.96875 13.8125 42.046875 10.296875 
Q 43.265625 14.203125 45.84375 21.78125 
L 62.984375 71.578125 
L 75.734375 71.578125 
L 75.734375 0 
L 66.609375 0 
L 66.609375 59.90625 
L 45.796875 0 
L 37.25 0 
L 16.546875 60.9375 
L 16.546875 0 
z
" id="ArialMT-4d"/>
    </defs>
    <g style="fill:#262626;" transform="translate(75.565 19.44)scale(0.12 -0.12)">
     <use xlink:href="#ArialMT-45"/>
     <use x="66.699219" xlink:href="#ArialMT-70"/>
     <use x="122.314453" xlink:href="#ArialMT-69"/>
     <use x="144.53125" xlink:href="#ArialMT-6b"/>
     <use x="194.53125" xlink:href="#ArialMT-2d"/>
     <use x="227.832031" xlink:href="#ArialMT-6d"/>
     <use x="311.132812" xlink:href="#ArialMT-69"/>
     <use x="333.349609" xlink:href="#ArialMT-63"/>
     <use x="383.349609" xlink:href="#ArialMT-72"/>
     <use x="416.650391" xlink:href="#ArialMT-6f"/>
     <use x="472.265625" xlink:href="#ArialMT-20"/>
     <use x="500.048828" xlink:href="#ArialMT-53"/>
     <use x="566.748047" xlink:href="#ArialMT-4d"/>
     <use x="650.048828" xlink:href="#ArialMT-30"/>
     <use x="705.664062" xlink:href="#ArialMT-32"/>
    </g>
   </g>
  </g>
 </g>
 <defs>
  <clipPath id="pa06054b69a">
   <rect height="150.52" width="164.56" x="38.96" y="25.44"/>
  </clipPath>
 </defs>
</svg>
