<?xml version="1.0" encoding="utf-8" standalone="no"?>
<!DOCTYPE svg PUBLIC "-//W3C//DTD SVG 1.1//EN"
  "http://www.w3.org/Graphics/SVG/1.1/DTD/svg11.dtd">
<!-- Created with matplotlib (http://matplotlib.org/) -->
<svg height="144pt" version="1.1" viewBox="0 0 144 144" width="144pt" xmlns="http://www.w3.org/2000/svg" xmlns:xlink="http://www.w3.org/1999/xlink">
 <defs>
  <style type="text/css">
*{stroke-linecap:butt;stroke-linejoin:round;}
  </style>
 </defs>
 <g id="figure_1">
  <g id="patch_1">
   <path d="M 0 144 
L 144 144 
L 144 0 
L 0 0 
z
" style="fill:#ffffff;"/>
  </g>
  <g id="axes_1">
   <g id="patch_2">
    <path d="M 53.96 101.92 
L 130.44 101.92 
L 130.44 13.56 
L 53.96 13.56 
z
" style="fill:#ffffff;"/>
   </g>
   <g id="matplotlib.axis_1">
    <g id="xtick_1">
     <g id="line2d_1">
      <defs>
       <path d="M 0 0 
L 0 3.5 
" id="m706f70fe9e" style="stroke:#262626;stroke-width:0.8;"/>
      </defs>
      <g>
       <use style="fill:#262626;stroke:#262626;stroke-width:0.8;" x="57.436364" xlink:href="#m706f70fe9e" y="101.92"/>
      </g>
     </g>
     <g id="text_1">
      <!-- 2 -->
      <defs>
       <path d="M 50.34375 8.453125 
L 50.34375 0 
L 3.03125 0 
Q 2.9375 3.171875 4.046875 6.109375 
Q 5.859375 10.9375 9.828125 15.625 
Q 13.8125 20.3125 21.34375 26.46875 
Q 33.015625 36.03125 37.109375 41.625 
Q 41.21875 47.21875 41.21875 52.203125 
Q 41.21875 57.421875 37.46875 61 
Q 33.734375 64.59375 27.734375 64.59375 
Q 21.390625 64.59375 17.578125 60.78125 
Q 13.765625 56.984375 13.71875 50.25 
L 4.6875 51.171875 
Q 5.609375 61.28125 11.65625 66.578125 
Q 17.71875 71.875 27.9375 71.875 
Q 38.234375 71.875 44.234375 66.15625 
Q 50.25 60.453125 50.25 52 
Q 50.25 47.703125 48.484375 43.546875 
Q 46.734375 39.40625 42.65625 34.8125 
Q 38.578125 30.21875 29.109375 22.21875 
Q 21.1875 15.578125 18.9375 13.203125 
Q 16.703125 10.84375 15.234375 8.453125 
z
" id="ArialMT-32"/>
      </defs>
      <g style="fill:#262626;" transform="translate(54.377848 116.793594)scale(0.11 -0.11)">
       <use xlink:href="#ArialMT-32"/>
      </g>
     </g>
    </g>
    <g id="xtick_2">
     <g id="line2d_2">
      <g>
       <use style="fill:#262626;stroke:#262626;stroke-width:0.8;" x="71.341818" xlink:href="#m706f70fe9e" y="101.92"/>
      </g>
     </g>
     <g id="text_2">
      <!-- 4 -->
      <defs>
       <path d="M 32.328125 0 
L 32.328125 17.140625 
L 1.265625 17.140625 
L 1.265625 25.203125 
L 33.9375 71.578125 
L 41.109375 71.578125 
L 41.109375 25.203125 
L 50.78125 25.203125 
L 50.78125 17.140625 
L 41.109375 17.140625 
L 41.109375 0 
z
M 32.328125 25.203125 
L 32.328125 57.46875 
L 9.90625 25.203125 
z
" id="ArialMT-34"/>
      </defs>
      <g style="fill:#262626;" transform="translate(68.283303 116.793594)scale(0.11 -0.11)">
       <use xlink:href="#ArialMT-34"/>
      </g>
     </g>
    </g>
    <g id="xtick_3">
     <g id="line2d_3">
      <g>
       <use style="fill:#262626;stroke:#262626;stroke-width:0.8;" x="85.247273" xlink:href="#m706f70fe9e" y="101.92"/>
      </g>
     </g>
     <g id="text_3">
      <!-- 6 -->
      <defs>
       <path d="M 49.75 54.046875 
L 41.015625 53.375 
Q 39.84375 58.546875 37.703125 60.890625 
Q 34.125 64.65625 28.90625 64.65625 
Q 24.703125 64.65625 21.53125 62.3125 
Q 17.390625 59.28125 14.984375 53.46875 
Q 12.59375 47.65625 12.5 36.921875 
Q 15.671875 41.75 20.265625 44.09375 
Q 24.859375 46.4375 29.890625 46.4375 
Q 38.671875 46.4375 44.84375 39.96875 
Q 51.03125 33.5 51.03125 23.25 
Q 51.03125 16.5 48.125 10.71875 
Q 45.21875 4.9375 40.140625 1.859375 
Q 35.0625 -1.21875 28.609375 -1.21875 
Q 17.625 -1.21875 10.6875 6.859375 
Q 3.765625 14.9375 3.765625 33.5 
Q 3.765625 54.25 11.421875 63.671875 
Q 18.109375 71.875 29.4375 71.875 
Q 37.890625 71.875 43.28125 67.140625 
Q 48.6875 62.40625 49.75 54.046875 
z
M 13.875 23.1875 
Q 13.875 18.65625 15.796875 14.5 
Q 17.71875 10.359375 21.1875 8.171875 
Q 24.65625 6 28.46875 6 
Q 34.03125 6 38.03125 10.484375 
Q 42.046875 14.984375 42.046875 22.703125 
Q 42.046875 30.125 38.078125 34.390625 
Q 34.125 38.671875 28.125 38.671875 
Q 22.171875 38.671875 18.015625 34.390625 
Q 13.875 30.125 13.875 23.1875 
z
" id="ArialMT-36"/>
      </defs>
      <g style="fill:#262626;" transform="translate(82.188757 116.793594)scale(0.11 -0.11)">
       <use xlink:href="#ArialMT-36"/>
      </g>
     </g>
    </g>
    <g id="xtick_4">
     <g id="line2d_4">
      <g>
       <use style="fill:#262626;stroke:#262626;stroke-width:0.8;" x="99.152727" xlink:href="#m706f70fe9e" y="101.92"/>
      </g>
     </g>
     <g id="text_4">
      <!-- 8 -->
      <defs>
       <path d="M 17.671875 38.8125 
Q 12.203125 40.828125 9.5625 44.53125 
Q 6.9375 48.25 6.9375 53.421875 
Q 6.9375 61.234375 12.546875 66.546875 
Q 18.171875 71.875 27.484375 71.875 
Q 36.859375 71.875 42.578125 66.421875 
Q 48.296875 60.984375 48.296875 53.171875 
Q 48.296875 48.1875 45.671875 44.5 
Q 43.0625 40.828125 37.75 38.8125 
Q 44.34375 36.671875 47.78125 31.875 
Q 51.21875 27.09375 51.21875 20.453125 
Q 51.21875 11.28125 44.71875 5.03125 
Q 38.234375 -1.21875 27.640625 -1.21875 
Q 17.046875 -1.21875 10.546875 5.046875 
Q 4.046875 11.328125 4.046875 20.703125 
Q 4.046875 27.6875 7.59375 32.390625 
Q 11.140625 37.109375 17.671875 38.8125 
z
M 15.921875 53.71875 
Q 15.921875 48.640625 19.1875 45.40625 
Q 22.46875 42.1875 27.6875 42.1875 
Q 32.765625 42.1875 36.015625 45.375 
Q 39.265625 48.578125 39.265625 53.21875 
Q 39.265625 58.0625 35.90625 61.359375 
Q 32.5625 64.65625 27.59375 64.65625 
Q 22.5625 64.65625 19.234375 61.421875 
Q 15.921875 58.203125 15.921875 53.71875 
z
M 13.09375 20.65625 
Q 13.09375 16.890625 14.875 13.375 
Q 16.65625 9.859375 20.171875 7.921875 
Q 23.6875 6 27.734375 6 
Q 34.03125 6 38.125 10.046875 
Q 42.234375 14.109375 42.234375 20.359375 
Q 42.234375 26.703125 38.015625 30.859375 
Q 33.796875 35.015625 27.4375 35.015625 
Q 21.234375 35.015625 17.15625 30.90625 
Q 13.09375 26.8125 13.09375 20.65625 
z
" id="ArialMT-38"/>
      </defs>
      <g style="fill:#262626;" transform="translate(96.094212 116.793594)scale(0.11 -0.11)">
       <use xlink:href="#ArialMT-38"/>
      </g>
     </g>
    </g>
    <g id="xtick_5">
     <g id="line2d_5">
      <g>
       <use style="fill:#262626;stroke:#262626;stroke-width:0.8;" x="113.058182" xlink:href="#m706f70fe9e" y="101.92"/>
      </g>
     </g>
     <g id="text_5">
      <!-- 10 -->
      <defs>
       <path d="M 37.25 0 
L 28.46875 0 
L 28.46875 56 
Q 25.296875 52.984375 20.140625 49.953125 
Q 14.984375 46.921875 10.890625 45.40625 
L 10.890625 53.90625 
Q 18.265625 57.375 23.78125 62.296875 
Q 29.296875 67.234375 31.59375 71.875 
L 37.25 71.875 
z
" id="ArialMT-31"/>
       <path d="M 4.15625 35.296875 
Q 4.15625 48 6.765625 55.734375 
Q 9.375 63.484375 14.515625 67.671875 
Q 19.671875 71.875 27.484375 71.875 
Q 33.25 71.875 37.59375 69.546875 
Q 41.9375 67.234375 44.765625 62.859375 
Q 47.609375 58.5 49.21875 52.21875 
Q 50.828125 45.953125 50.828125 35.296875 
Q 50.828125 22.703125 48.234375 14.96875 
Q 45.65625 7.234375 40.5 3 
Q 35.359375 -1.21875 27.484375 -1.21875 
Q 17.140625 -1.21875 11.234375 6.203125 
Q 4.15625 15.140625 4.15625 35.296875 
z
M 13.1875 35.296875 
Q 13.1875 17.671875 17.3125 11.828125 
Q 21.4375 6 27.484375 6 
Q 33.546875 6 37.671875 11.859375 
Q 41.796875 17.71875 41.796875 35.296875 
Q 41.796875 52.984375 37.671875 58.78125 
Q 33.546875 64.59375 27.390625 64.59375 
Q 21.34375 64.59375 17.71875 59.46875 
Q 13.1875 52.9375 13.1875 35.296875 
z
" id="ArialMT-30"/>
      </defs>
      <g style="fill:#262626;" transform="translate(106.941151 116.793594)scale(0.11 -0.11)">
       <use xlink:href="#ArialMT-31"/>
       <use x="55.615234" xlink:href="#ArialMT-30"/>
      </g>
     </g>
    </g>
    <g id="xtick_6">
     <g id="line2d_6">
      <g>
       <use style="fill:#262626;stroke:#262626;stroke-width:0.8;" x="126.963636" xlink:href="#m706f70fe9e" y="101.92"/>
      </g>
     </g>
     <g id="text_6">
      <!-- 12 -->
      <g style="fill:#262626;" transform="translate(120.846605 116.793594)scale(0.11 -0.11)">
       <use xlink:href="#ArialMT-31"/>
       <use x="55.615234" xlink:href="#ArialMT-32"/>
      </g>
     </g>
    </g>
    <g id="text_7">
     <!-- pH -->
     <defs>
      <path d="M 6.59375 -19.875 
L 6.59375 51.859375 
L 14.59375 51.859375 
L 14.59375 45.125 
Q 17.4375 49.078125 21 51.046875 
Q 24.5625 53.03125 29.640625 53.03125 
Q 36.28125 53.03125 41.359375 49.609375 
Q 46.4375 46.1875 49.015625 39.953125 
Q 51.609375 33.734375 51.609375 26.3125 
Q 51.609375 18.359375 48.75 11.984375 
Q 45.90625 5.609375 40.453125 2.21875 
Q 35.015625 -1.171875 29 -1.171875 
Q 24.609375 -1.171875 21.109375 0.6875 
Q 17.625 2.546875 15.375 5.375 
L 15.375 -19.875 
z
M 14.546875 25.640625 
Q 14.546875 15.625 18.59375 10.84375 
Q 22.65625 6.0625 28.421875 6.0625 
Q 34.28125 6.0625 38.453125 11.015625 
Q 42.625 15.96875 42.625 26.375 
Q 42.625 36.28125 38.546875 41.203125 
Q 34.46875 46.140625 28.8125 46.140625 
Q 23.1875 46.140625 18.859375 40.890625 
Q 14.546875 35.640625 14.546875 25.640625 
z
" id="ArialMT-70"/>
      <path d="M 8.015625 0 
L 8.015625 71.578125 
L 17.484375 71.578125 
L 17.484375 42.1875 
L 54.6875 42.1875 
L 54.6875 71.578125 
L 64.15625 71.578125 
L 64.15625 0 
L 54.6875 0 
L 54.6875 33.734375 
L 17.484375 33.734375 
L 17.484375 0 
z
" id="ArialMT-48"/>
     </defs>
     <g style="fill:#262626;" transform="translate(85.169453 130.853437)scale(0.11 -0.11)">
      <use xlink:href="#ArialMT-70"/>
      <use x="55.615234" xlink:href="#ArialMT-48"/>
     </g>
    </g>
   </g>
   <g id="matplotlib.axis_2">
    <g id="ytick_1">
     <g id="line2d_7">
      <defs>
       <path d="M 0 0 
L -3.5 0 
" id="mc763270fab" style="stroke:#262626;stroke-width:0.8;"/>
      </defs>
      <g>
       <use style="fill:#262626;stroke:#262626;stroke-width:0.8;" x="53.96" xlink:href="#mc763270fab" y="100.098243"/>
      </g>
     </g>
     <g id="text_8">
      <!-- −20 -->
      <defs>
       <path d="M 52.828125 31.203125 
L 5.5625 31.203125 
L 5.5625 39.40625 
L 52.828125 39.40625 
z
" id="ArialMT-2212"/>
      </defs>
      <g style="fill:#262626;" transform="translate(28.30125 104.03504)scale(0.11 -0.11)">
       <use xlink:href="#ArialMT-2212"/>
       <use x="58.398438" xlink:href="#ArialMT-32"/>
       <use x="114.013672" xlink:href="#ArialMT-30"/>
      </g>
     </g>
    </g>
    <g id="ytick_2">
     <g id="line2d_8">
      <g>
       <use style="fill:#262626;stroke:#262626;stroke-width:0.8;" x="53.96" xlink:href="#mc763270fab" y="65.212552"/>
      </g>
     </g>
     <g id="text_9">
      <!-- 0 -->
      <g style="fill:#262626;" transform="translate(40.842969 69.149349)scale(0.11 -0.11)">
       <use xlink:href="#ArialMT-30"/>
      </g>
     </g>
    </g>
    <g id="ytick_3">
     <g id="line2d_9">
      <g>
       <use style="fill:#262626;stroke:#262626;stroke-width:0.8;" x="53.96" xlink:href="#mc763270fab" y="30.326861"/>
      </g>
     </g>
     <g id="text_10">
      <!-- 20 -->
      <g style="fill:#262626;" transform="translate(34.725938 34.263658)scale(0.11 -0.11)">
       <use xlink:href="#ArialMT-32"/>
       <use x="55.615234" xlink:href="#ArialMT-30"/>
      </g>
     </g>
    </g>
    <g id="text_11">
     <!-- Free energy ($k_B T$) -->
     <defs>
      <path d="M 8.203125 0 
L 8.203125 71.578125 
L 56.5 71.578125 
L 56.5 63.140625 
L 17.671875 63.140625 
L 17.671875 40.96875 
L 51.265625 40.96875 
L 51.265625 32.515625 
L 17.671875 32.515625 
L 17.671875 0 
z
" id="ArialMT-46"/>
      <path d="M 6.5 0 
L 6.5 51.859375 
L 14.40625 51.859375 
L 14.40625 44 
Q 17.4375 49.515625 20 51.265625 
Q 22.5625 53.03125 25.640625 53.03125 
Q 30.078125 53.03125 34.671875 50.203125 
L 31.640625 42.046875 
Q 28.421875 43.953125 25.203125 43.953125 
Q 22.3125 43.953125 20.015625 42.21875 
Q 17.71875 40.484375 16.75 37.40625 
Q 15.28125 32.71875 15.28125 27.15625 
L 15.28125 0 
z
" id="ArialMT-72"/>
      <path d="M 42.09375 16.703125 
L 51.171875 15.578125 
Q 49.03125 7.625 43.21875 3.21875 
Q 37.40625 -1.171875 28.375 -1.171875 
Q 17 -1.171875 10.328125 5.828125 
Q 3.65625 12.84375 3.65625 25.484375 
Q 3.65625 38.578125 10.390625 45.796875 
Q 17.140625 53.03125 27.875 53.03125 
Q 38.28125 53.03125 44.875 45.953125 
Q 51.46875 38.875 51.46875 26.03125 
Q 51.46875 25.25 51.421875 23.6875 
L 12.75 23.6875 
Q 13.234375 15.140625 17.578125 10.59375 
Q 21.921875 6.0625 28.421875 6.0625 
Q 33.25 6.0625 36.671875 8.59375 
Q 40.09375 11.140625 42.09375 16.703125 
z
M 13.234375 30.90625 
L 42.1875 30.90625 
Q 41.609375 37.453125 38.875 40.71875 
Q 34.671875 45.796875 27.984375 45.796875 
Q 21.921875 45.796875 17.796875 41.75 
Q 13.671875 37.703125 13.234375 30.90625 
z
" id="ArialMT-65"/>
      <path id="ArialMT-20"/>
      <path d="M 6.59375 0 
L 6.59375 51.859375 
L 14.5 51.859375 
L 14.5 44.484375 
Q 20.21875 53.03125 31 53.03125 
Q 35.6875 53.03125 39.625 51.34375 
Q 43.5625 49.65625 45.515625 46.921875 
Q 47.46875 44.1875 48.25 40.4375 
Q 48.734375 37.984375 48.734375 31.890625 
L 48.734375 0 
L 39.9375 0 
L 39.9375 31.546875 
Q 39.9375 36.921875 38.90625 39.578125 
Q 37.890625 42.234375 35.28125 43.8125 
Q 32.671875 45.40625 29.15625 45.40625 
Q 23.53125 45.40625 19.453125 41.84375 
Q 15.375 38.28125 15.375 28.328125 
L 15.375 0 
z
" id="ArialMT-6e"/>
      <path d="M 4.984375 -4.296875 
L 13.53125 -5.5625 
Q 14.0625 -9.515625 16.5 -11.328125 
Q 19.78125 -13.765625 25.4375 -13.765625 
Q 31.546875 -13.765625 34.859375 -11.328125 
Q 38.1875 -8.890625 39.359375 -4.5 
Q 40.046875 -1.8125 39.984375 6.78125 
Q 34.234375 0 25.640625 0 
Q 14.9375 0 9.078125 7.71875 
Q 3.21875 15.4375 3.21875 26.21875 
Q 3.21875 33.640625 5.90625 39.90625 
Q 8.59375 46.1875 13.6875 49.609375 
Q 18.796875 53.03125 25.6875 53.03125 
Q 34.859375 53.03125 40.828125 45.609375 
L 40.828125 51.859375 
L 48.921875 51.859375 
L 48.921875 7.03125 
Q 48.921875 -5.078125 46.453125 -10.125 
Q 44 -15.1875 38.640625 -18.109375 
Q 33.296875 -21.046875 25.484375 -21.046875 
Q 16.21875 -21.046875 10.5 -16.875 
Q 4.78125 -12.703125 4.984375 -4.296875 
z
M 12.25 26.859375 
Q 12.25 16.65625 16.296875 11.96875 
Q 20.359375 7.28125 26.46875 7.28125 
Q 32.515625 7.28125 36.609375 11.9375 
Q 40.71875 16.609375 40.71875 26.5625 
Q 40.71875 36.078125 36.5 40.90625 
Q 32.28125 45.75 26.3125 45.75 
Q 20.453125 45.75 16.34375 40.984375 
Q 12.25 36.234375 12.25 26.859375 
z
" id="ArialMT-67"/>
      <path d="M 6.203125 -19.96875 
L 5.21875 -11.71875 
Q 8.109375 -12.5 10.25 -12.5 
Q 13.1875 -12.5 14.9375 -11.515625 
Q 16.703125 -10.546875 17.828125 -8.796875 
Q 18.65625 -7.46875 20.515625 -2.25 
Q 20.75 -1.515625 21.296875 -0.09375 
L 1.609375 51.859375 
L 11.078125 51.859375 
L 21.875 21.828125 
Q 23.96875 16.109375 25.640625 9.8125 
Q 27.15625 15.875 29.25 21.625 
L 40.328125 51.859375 
L 49.125 51.859375 
L 29.390625 -0.875 
Q 26.21875 -9.421875 24.46875 -12.640625 
Q 22.125 -17 19.09375 -19.015625 
Q 16.0625 -21.046875 11.859375 -21.046875 
Q 9.328125 -21.046875 6.203125 -19.96875 
z
" id="ArialMT-79"/>
      <path d="M 23.390625 -21.046875 
Q 16.109375 -11.859375 11.078125 0.4375 
Q 6.0625 12.75 6.0625 25.921875 
Q 6.0625 37.546875 9.8125 48.1875 
Q 14.203125 60.546875 23.390625 72.796875 
L 29.6875 72.796875 
Q 23.78125 62.640625 21.875 58.296875 
Q 18.890625 51.5625 17.1875 44.234375 
Q 15.09375 35.109375 15.09375 25.875 
Q 15.09375 2.390625 29.6875 -21.046875 
z
" id="ArialMT-28"/>
      <path d="M 18.3125 75.984375 
L 27.296875 75.984375 
L 18.703125 31.6875 
L 49.515625 54.6875 
L 61.1875 54.6875 
L 26.8125 28.515625 
L 51.90625 0 
L 41.015625 0 
L 17.671875 26.703125 
L 12.5 0 
L 3.515625 0 
z
" id="DejaVuSans-Oblique-6b"/>
      <path d="M 16.890625 72.90625 
L 42.09375 72.90625 
Q 52.34375 72.90625 57.421875 69.09375 
Q 62.5 65.28125 62.5 57.625 
Q 62.5 50.59375 58.125 45.484375 
Q 53.765625 40.375 46.6875 39.3125 
Q 52.734375 37.9375 55.765625 34.078125 
Q 58.796875 30.21875 58.796875 23.78125 
Q 58.796875 12.796875 50.65625 6.390625 
Q 42.53125 0 28.421875 0 
L 2.6875 0 
z
M 19.28125 34.8125 
L 14.109375 8.109375 
L 29.984375 8.109375 
Q 38.921875 8.109375 43.75 12.203125 
Q 48.578125 16.3125 48.578125 23.78125 
Q 48.578125 29.546875 45.375 32.171875 
Q 42.1875 34.8125 35.109375 34.8125 
z
M 25.09375 64.796875 
L 20.796875 42.828125 
L 35.5 42.828125 
Q 43.359375 42.828125 47.78125 46.234375 
Q 52.203125 49.65625 52.203125 55.71875 
Q 52.203125 60.453125 49.21875 62.625 
Q 46.234375 64.796875 39.703125 64.796875 
z
" id="DejaVuSans-Oblique-42"/>
      <path d="M 5.90625 72.90625 
L 67.578125 72.90625 
L 66.015625 64.59375 
L 39.984375 64.59375 
L 27.484375 0 
L 17.578125 0 
L 30.078125 64.59375 
L 4.296875 64.59375 
z
" id="DejaVuSans-Oblique-54"/>
      <path d="M 12.359375 -21.046875 
L 6.0625 -21.046875 
Q 20.65625 2.390625 20.65625 25.875 
Q 20.65625 35.0625 18.5625 44.09375 
Q 16.890625 51.421875 13.921875 58.15625 
Q 12.015625 62.546875 6.0625 72.796875 
L 12.359375 72.796875 
Q 21.53125 60.546875 25.921875 48.1875 
Q 29.6875 37.546875 29.6875 25.921875 
Q 29.6875 12.75 24.625 0.4375 
Q 19.578125 -11.859375 12.359375 -21.046875 
z
" id="ArialMT-29"/>
     </defs>
     <g style="fill:#262626;" transform="translate(21.88125 101.96)rotate(-90)scale(0.11 -0.11)">
      <use transform="translate(0 0.015625)" xlink:href="#ArialMT-46"/>
      <use transform="translate(61.083984 0.015625)" xlink:href="#ArialMT-72"/>
      <use transform="translate(94.384766 0.015625)" xlink:href="#ArialMT-65"/>
      <use transform="translate(150 0.015625)" xlink:href="#ArialMT-65"/>
      <use transform="translate(205.615234 0.015625)" xlink:href="#ArialMT-20"/>
      <use transform="translate(233.398438 0.015625)" xlink:href="#ArialMT-65"/>
      <use transform="translate(289.013672 0.015625)" xlink:href="#ArialMT-6e"/>
      <use transform="translate(344.628906 0.015625)" xlink:href="#ArialMT-65"/>
      <use transform="translate(400.244141 0.015625)" xlink:href="#ArialMT-72"/>
      <use transform="translate(433.544922 0.015625)" xlink:href="#ArialMT-67"/>
      <use transform="translate(489.160156 0.015625)" xlink:href="#ArialMT-79"/>
      <use transform="translate(539.160156 0.015625)" xlink:href="#ArialMT-20"/>
      <use transform="translate(566.943359 0.015625)" xlink:href="#ArialMT-28"/>
      <use transform="translate(600.244141 0.015625)" xlink:href="#DejaVuSans-Oblique-6b"/>
      <use transform="translate(658.154297 -16.390625)scale(0.7)" xlink:href="#DejaVuSans-Oblique-42"/>
      <use transform="translate(708.911133 0.015625)" xlink:href="#DejaVuSans-Oblique-54"/>
      <use transform="translate(769.995117 0.015625)" xlink:href="#ArialMT-29"/>
     </g>
    </g>
   </g>
   <g id="patch_3">
    <path d="M 53.96 101.92 
L 53.96 13.56 
" style="fill:none;stroke:#262626;stroke-linecap:square;stroke-linejoin:miter;stroke-width:0.8;"/>
   </g>
   <g id="patch_4">
    <path d="M 53.96 101.92 
L 130.44 101.92 
" style="fill:none;stroke:#262626;stroke-linecap:square;stroke-linejoin:miter;stroke-width:0.8;"/>
   </g>
   <g id="line2d_10">
    <path clip-path="url(#pd131f32952)" d="M 57.436364 17.576364 
L 58.131636 18.379636 
L 58.826909 19.182909 
L 59.522182 19.986182 
L 60.217455 20.789455 
L 60.912727 21.592727 
L 61.608 22.396 
L 62.303273 23.199273 
L 62.998545 24.002545 
L 63.693818 24.805818 
L 64.389091 25.609091 
L 65.084364 26.412364 
L 65.779636 27.215636 
L 66.474909 28.018909 
L 67.170182 28.822182 
L 67.865455 29.625455 
L 68.560727 30.428727 
L 69.256 31.232 
L 69.951273 32.035273 
L 70.646545 32.838545 
L 71.341818 33.641818 
L 72.037091 34.445091 
L 72.732364 35.248364 
L 73.427636 36.051636 
L 74.122909 36.854909 
L 74.818182 37.658182 
L 75.513455 38.461455 
L 76.208727 39.264727 
L 76.904 40.068 
L 77.599273 40.871273 
L 78.294545 41.674545 
L 78.989818 42.477818 
L 79.685091 43.281091 
L 80.380364 44.084364 
L 81.075636 44.887636 
L 81.770909 45.690909 
L 82.466182 46.494182 
L 83.161455 47.297455 
L 83.856727 48.100727 
L 84.552 48.904 
L 85.247273 49.707273 
L 85.942545 50.510545 
L 86.637818 51.313818 
L 87.333091 52.117091 
L 88.028364 52.920364 
L 88.723636 53.723636 
L 89.418909 54.526909 
L 90.114182 55.330182 
L 90.809455 56.133455 
L 91.504727 56.936727 
L 92.2 57.74 
L 92.895273 58.543273 
L 93.590545 59.346545 
L 94.285818 60.149818 
L 94.981091 60.953091 
L 95.676364 61.756364 
L 96.371636 62.559636 
L 97.066909 63.362909 
L 97.762182 64.166182 
L 98.457455 64.969455 
L 99.152727 65.772727 
L 99.848 66.576 
L 100.543273 67.379273 
L 101.238545 68.182545 
L 101.933818 68.985818 
L 102.629091 69.789091 
L 103.324364 70.592364 
L 104.019636 71.395636 
L 104.714909 72.198909 
L 105.410182 73.002182 
L 106.105455 73.805455 
L 106.800727 74.608727 
L 107.496 75.412 
L 108.191273 76.215273 
L 108.886545 77.018545 
L 109.581818 77.821818 
L 110.277091 78.625091 
L 110.972364 79.428364 
L 111.667636 80.231636 
L 112.362909 81.034909 
L 113.058182 81.838182 
L 113.753455 82.641455 
L 114.448727 83.444727 
L 115.144 84.248 
L 115.839273 85.051273 
L 116.534545 85.854545 
L 117.229818 86.657818 
L 117.925091 87.461091 
L 118.620364 88.264364 
L 119.315636 89.067636 
L 120.010909 89.870909 
L 120.706182 90.674182 
L 121.401455 91.477455 
L 122.096727 92.280727 
L 122.792 93.084 
L 123.487273 93.887273 
L 124.182545 94.690545 
L 124.877818 95.493818 
L 125.573091 96.297091 
L 126.268364 97.100364 
L 126.963636 97.903636 
" style="fill:none;stroke:#d6604d;stroke-linecap:round;stroke-width:1.5;"/>
   </g>
   <g id="line2d_11">
    <path clip-path="url(#pd131f32952)" d="M 57.436364 56.735977 
L 58.131636 57.137613 
L 58.826909 57.53925 
L 59.522182 57.940886 
L 60.217455 58.342523 
L 60.912727 58.744159 
L 61.608 59.145795 
L 62.303273 59.547432 
L 62.998545 59.949068 
L 63.693818 60.350704 
L 64.389091 60.752341 
L 65.084364 61.153977 
L 65.779636 61.555613 
L 66.474909 61.95725 
L 67.170182 62.358886 
L 67.865455 62.760523 
L 68.560727 63.162159 
L 69.256 63.563795 
L 69.951273 63.965432 
L 70.646545 64.367068 
L 71.341818 64.768704 
L 72.037091 65.170341 
L 72.732364 65.571977 
L 73.427636 65.973613 
L 74.122909 66.37525 
L 74.818182 66.776886 
L 75.513455 67.178523 
L 76.208727 67.580159 
L 76.904 67.981795 
L 77.599273 68.383432 
L 78.294545 68.785068 
L 78.989818 69.186704 
L 79.685091 69.588341 
L 80.380364 69.989977 
L 81.075636 70.391613 
L 81.770909 70.79325 
L 82.466182 71.194886 
L 83.161455 71.596523 
L 83.856727 71.998159 
L 84.552 72.399795 
L 85.247273 72.801432 
L 85.942545 73.203068 
L 86.637818 73.604704 
L 87.333091 74.006341 
L 88.028364 74.407977 
L 88.723636 74.809613 
L 89.418909 75.21125 
L 90.114182 75.612886 
L 90.809455 76.014523 
L 91.504727 76.416159 
L 92.2 76.817795 
L 92.895273 77.219432 
L 93.590545 77.621068 
L 94.285818 78.022704 
L 94.981091 78.424341 
L 95.676364 78.825977 
L 96.371636 79.227613 
L 97.066909 79.62925 
L 97.762182 80.030886 
L 98.457455 80.432523 
L 99.152727 80.834159 
L 99.848 81.235795 
L 100.543273 81.637432 
L 101.238545 82.039068 
L 101.933818 82.440704 
L 102.629091 82.842341 
L 103.324364 83.243977 
L 104.019636 83.645613 
L 104.714909 84.04725 
L 105.410182 84.448886 
L 106.105455 84.850523 
L 106.800727 85.252159 
L 107.496 85.653795 
L 108.191273 86.055432 
L 108.886545 86.457068 
L 109.581818 86.858704 
L 110.277091 87.260341 
L 110.972364 87.661977 
L 111.667636 88.063613 
L 112.362909 88.46525 
L 113.058182 88.866886 
L 113.753455 89.268523 
L 114.448727 89.670159 
L 115.144 90.071795 
L 115.839273 90.473432 
L 116.534545 90.875068 
L 117.229818 91.276704 
L 117.925091 91.678341 
L 118.620364 92.079977 
L 119.315636 92.481613 
L 120.010909 92.88325 
L 120.706182 93.284886 
L 121.401455 93.686523 
L 122.096727 94.088159 
L 122.792 94.489795 
L 123.487273 94.891432 
L 124.182545 95.293068 
L 124.877818 95.694704 
L 125.573091 96.096341 
L 126.268364 96.497977 
L 126.963636 96.899613 
" style="fill:none;stroke:#f4a582;stroke-linecap:round;stroke-width:1.5;"/>
   </g>
   <g id="line2d_12">
    <path clip-path="url(#pd131f32952)" d="M 57.436364 58.424246 
L 58.131636 58.022609 
L 58.826909 57.620973 
L 59.522182 57.219336 
L 60.217455 56.8177 
L 60.912727 56.416064 
L 61.608 56.014427 
L 62.303273 55.612791 
L 62.998545 55.211155 
L 63.693818 54.809518 
L 64.389091 54.407882 
L 65.084364 54.006246 
L 65.779636 53.604609 
L 66.474909 53.202973 
L 67.170182 52.801336 
L 67.865455 52.3997 
L 68.560727 51.998064 
L 69.256 51.596427 
L 69.951273 51.194791 
L 70.646545 50.793155 
L 71.341818 50.391518 
L 72.037091 49.989882 
L 72.732364 49.588246 
L 73.427636 49.186609 
L 74.122909 48.784973 
L 74.818182 48.383336 
L 75.513455 47.9817 
L 76.208727 47.580064 
L 76.904 47.178427 
L 77.599273 46.776791 
L 78.294545 46.375155 
L 78.989818 45.973518 
L 79.685091 45.571882 
L 80.380364 45.170246 
L 81.075636 44.768609 
L 81.770909 44.366973 
L 82.466182 43.965336 
L 83.161455 43.5637 
L 83.856727 43.162064 
L 84.552 42.760427 
L 85.247273 42.358791 
L 85.942545 41.957155 
L 86.637818 41.555518 
L 87.333091 41.153882 
L 88.028364 40.752245 
L 88.723636 40.350609 
L 89.418909 39.948973 
L 90.114182 39.547336 
L 90.809455 39.1457 
L 91.504727 38.744063 
L 92.2 38.342427 
L 92.895273 37.940792 
L 93.590545 37.539156 
L 94.285818 37.137519 
L 94.981091 36.735881 
L 95.676364 36.334244 
L 96.371636 35.932609 
L 97.066909 35.530963 
L 97.762182 35.129324 
L 98.457455 34.727666 
L 99.152727 34.326014 
L 99.848 33.92435 
L 100.543273 33.52274 
L 101.238545 33.121229 
L 101.933818 32.719281 
L 102.629091 32.317367 
L 103.324364 31.916956 
L 104.019636 31.514662 
L 104.714909 31.113794 
L 105.410182 30.711981 
L 106.105455 30.310097 
L 106.800727 29.903004 
L 107.496 29.493906 
L 108.191273 29.115899 
L 108.886545 28.691587 
L 109.581818 28.280743 
L 110.277091 27.938721 
L 110.972364 27.348701 
L 111.667636 27.181002 
L 112.362909 26.304023 
L 113.058182 26.069656 
L 113.753455 26.440788 
L 114.448727 25.485054 
L 115.144 25.083335 
L 115.839273 24.681616 
L 116.534545 24.279896 
L 117.229818 23.878177 
L 117.925091 23.476458 
L 118.620364 23.074739 
L 119.315636 22.67302 
L 120.010909 22.271301 
L 120.706182 21.869581 
L 121.401455 21.467862 
L 122.096727 21.066143 
L 122.792 20.664424 
L 123.487273 20.262705 
L 124.182545 19.860985 
L 124.877818 19.459266 
L 125.573091 19.057547 
L 126.268364 18.655828 
L 126.963636 18.254109 
" style="fill:none;stroke:#92c5de;stroke-linecap:round;stroke-width:1.5;"/>
   </g>
   <g id="line2d_13">
    <path clip-path="url(#pd131f32952)" d="M 57.436364 65.212552 
L 58.131636 65.212552 
L 58.826909 65.212552 
L 59.522182 65.212552 
L 60.217455 65.212552 
L 60.912727 65.212552 
L 61.608 65.212552 
L 62.303273 65.212552 
L 62.998545 65.212552 
L 63.693818 65.212552 
L 64.389091 65.212552 
L 65.084364 65.212552 
L 65.779636 65.212552 
L 66.474909 65.212552 
L 67.170182 65.212552 
L 67.865455 65.212552 
L 68.560727 65.212552 
L 69.256 65.212552 
L 69.951273 65.212552 
L 70.646545 65.212552 
L 71.341818 65.212552 
L 72.037091 65.212552 
L 72.732364 65.212552 
L 73.427636 65.212552 
L 74.122909 65.212552 
L 74.818182 65.212552 
L 75.513455 65.212552 
L 76.208727 65.212552 
L 76.904 65.212552 
L 77.599273 65.212552 
L 78.294545 65.212552 
L 78.989818 65.212552 
L 79.685091 65.212552 
L 80.380364 65.212552 
L 81.075636 65.212552 
L 81.770909 65.212552 
L 82.466182 65.212552 
L 83.161455 65.212552 
L 83.856727 65.212552 
L 84.552 65.212552 
L 85.247273 65.212552 
L 85.942545 65.212552 
L 86.637818 65.212552 
L 87.333091 65.212552 
L 88.028364 65.212552 
L 88.723636 65.212552 
L 89.418909 65.212552 
L 90.114182 65.212552 
L 90.809455 65.212552 
L 91.504727 65.212552 
L 92.2 65.212552 
L 92.895273 65.212552 
L 93.590545 65.212552 
L 94.285818 65.212552 
L 94.981091 65.212552 
L 95.676364 65.212552 
L 96.371636 65.212552 
L 97.066909 65.212552 
L 97.762182 65.212552 
L 98.457455 65.212552 
L 99.152727 65.212552 
L 99.848 65.212552 
L 100.543273 65.212552 
L 101.238545 65.212552 
L 101.933818 65.212552 
L 102.629091 65.212552 
L 103.324364 65.212552 
L 104.019636 65.212552 
L 104.714909 65.212552 
L 105.410182 65.212552 
L 106.105455 65.212552 
L 106.800727 65.212552 
L 107.496 65.212552 
L 108.191273 65.212552 
L 108.886545 65.212552 
L 109.581818 65.212552 
L 110.277091 65.212552 
L 110.972364 65.212552 
L 111.667636 65.212552 
L 112.362909 65.212552 
L 113.058182 65.212552 
L 113.753455 65.212552 
L 114.448727 65.212552 
L 115.144 65.212552 
L 115.839273 65.212552 
L 116.534545 65.212552 
L 117.229818 65.212552 
L 117.925091 65.212552 
L 118.620364 65.212552 
L 119.315636 65.212552 
L 120.010909 65.212552 
L 120.706182 65.212552 
L 121.401455 65.212552 
L 122.096727 65.212552 
L 122.792 65.212552 
L 123.487273 65.212552 
L 124.182545 65.212552 
L 124.877818 65.212552 
L 125.573091 65.212552 
L 126.268364 65.212552 
L 126.963636 65.212552 
" style="fill:none;stroke:#333333;stroke-linecap:round;stroke-width:1.5;"/>
   </g>
  </g>
 </g>
 <defs>
  <clipPath id="pd131f32952">
   <rect height="88.36" width="76.48" x="53.96" y="13.56"/>
  </clipPath>
 </defs>
</svg>
