<?xml version="1.0" encoding="utf-8" standalone="no"?>
<!DOCTYPE svg PUBLIC "-//W3C//DTD SVG 1.1//EN"
  "http://www.w3.org/Graphics/SVG/1.1/DTD/svg11.dtd">
<!-- Created with matplotlib (http://matplotlib.org/) -->
<svg height="216pt" version="1.1" viewBox="0 0 216 216" width="216pt" xmlns="http://www.w3.org/2000/svg" xmlns:xlink="http://www.w3.org/1999/xlink">
 <defs>
  <style type="text/css">
*{stroke-linecap:butt;stroke-linejoin:round;}
  </style>
 </defs>
 <g id="figure_1">
  <g id="patch_1">
   <path d="M 0 216 
L 216 216 
L 216 0 
L 0 0 
z
" style="fill:#ffffff;"/>
  </g>
  <g id="axes_1">
   <g id="patch_2">
    <path d="M 44.78 175.96 
L 203.52 175.96 
L 203.52 25.44 
L 44.78 25.44 
z
" style="fill:#ffffff;"/>
   </g>
   <g id="matplotlib.axis_1">
    <g id="xtick_1">
     <g id="line2d_1">
      <defs>
       <path d="M 0 0 
L 0 3.5 
" id="mffa78e01da" style="stroke:#262626;stroke-width:0.8;"/>
      </defs>
      <g>
       <use style="fill:#262626;stroke:#262626;stroke-width:0.8;" x="51.995455" xlink:href="#mffa78e01da" y="175.96"/>
      </g>
     </g>
     <g id="text_1">
      <!-- 2 -->
      <defs>
       <path d="M 50.34375 8.453125 
L 50.34375 0 
L 3.03125 0 
Q 2.9375 3.171875 4.046875 6.109375 
Q 5.859375 10.9375 9.828125 15.625 
Q 13.8125 20.3125 21.34375 26.46875 
Q 33.015625 36.03125 37.109375 41.625 
Q 41.21875 47.21875 41.21875 52.203125 
Q 41.21875 57.421875 37.46875 61 
Q 33.734375 64.59375 27.734375 64.59375 
Q 21.390625 64.59375 17.578125 60.78125 
Q 13.765625 56.984375 13.71875 50.25 
L 4.6875 51.171875 
Q 5.609375 61.28125 11.65625 66.578125 
Q 17.71875 71.875 27.9375 71.875 
Q 38.234375 71.875 44.234375 66.15625 
Q 50.25 60.453125 50.25 52 
Q 50.25 47.703125 48.484375 43.546875 
Q 46.734375 39.40625 42.65625 34.8125 
Q 38.578125 30.21875 29.109375 22.21875 
Q 21.1875 15.578125 18.9375 13.203125 
Q 16.703125 10.84375 15.234375 8.453125 
z
" id="ArialMT-32"/>
      </defs>
      <g style="fill:#262626;" transform="translate(49.214986 190.117812)scale(0.1 -0.1)">
       <use xlink:href="#ArialMT-32"/>
      </g>
     </g>
    </g>
    <g id="xtick_2">
     <g id="line2d_2">
      <g>
       <use style="fill:#262626;stroke:#262626;stroke-width:0.8;" x="80.857273" xlink:href="#mffa78e01da" y="175.96"/>
      </g>
     </g>
     <g id="text_2">
      <!-- 4 -->
      <defs>
       <path d="M 32.328125 0 
L 32.328125 17.140625 
L 1.265625 17.140625 
L 1.265625 25.203125 
L 33.9375 71.578125 
L 41.109375 71.578125 
L 41.109375 25.203125 
L 50.78125 25.203125 
L 50.78125 17.140625 
L 41.109375 17.140625 
L 41.109375 0 
z
M 32.328125 25.203125 
L 32.328125 57.46875 
L 9.90625 25.203125 
z
" id="ArialMT-34"/>
      </defs>
      <g style="fill:#262626;" transform="translate(78.076804 190.117812)scale(0.1 -0.1)">
       <use xlink:href="#ArialMT-34"/>
      </g>
     </g>
    </g>
    <g id="xtick_3">
     <g id="line2d_3">
      <g>
       <use style="fill:#262626;stroke:#262626;stroke-width:0.8;" x="109.719091" xlink:href="#mffa78e01da" y="175.96"/>
      </g>
     </g>
     <g id="text_3">
      <!-- 6 -->
      <defs>
       <path d="M 49.75 54.046875 
L 41.015625 53.375 
Q 39.84375 58.546875 37.703125 60.890625 
Q 34.125 64.65625 28.90625 64.65625 
Q 24.703125 64.65625 21.53125 62.3125 
Q 17.390625 59.28125 14.984375 53.46875 
Q 12.59375 47.65625 12.5 36.921875 
Q 15.671875 41.75 20.265625 44.09375 
Q 24.859375 46.4375 29.890625 46.4375 
Q 38.671875 46.4375 44.84375 39.96875 
Q 51.03125 33.5 51.03125 23.25 
Q 51.03125 16.5 48.125 10.71875 
Q 45.21875 4.9375 40.140625 1.859375 
Q 35.0625 -1.21875 28.609375 -1.21875 
Q 17.625 -1.21875 10.6875 6.859375 
Q 3.765625 14.9375 3.765625 33.5 
Q 3.765625 54.25 11.421875 63.671875 
Q 18.109375 71.875 29.4375 71.875 
Q 37.890625 71.875 43.28125 67.140625 
Q 48.6875 62.40625 49.75 54.046875 
z
M 13.875 23.1875 
Q 13.875 18.65625 15.796875 14.5 
Q 17.71875 10.359375 21.1875 8.171875 
Q 24.65625 6 28.46875 6 
Q 34.03125 6 38.03125 10.484375 
Q 42.046875 14.984375 42.046875 22.703125 
Q 42.046875 30.125 38.078125 34.390625 
Q 34.125 38.671875 28.125 38.671875 
Q 22.171875 38.671875 18.015625 34.390625 
Q 13.875 30.125 13.875 23.1875 
z
" id="ArialMT-36"/>
      </defs>
      <g style="fill:#262626;" transform="translate(106.938622 190.117812)scale(0.1 -0.1)">
       <use xlink:href="#ArialMT-36"/>
      </g>
     </g>
    </g>
    <g id="xtick_4">
     <g id="line2d_4">
      <g>
       <use style="fill:#262626;stroke:#262626;stroke-width:0.8;" x="138.580909" xlink:href="#mffa78e01da" y="175.96"/>
      </g>
     </g>
     <g id="text_4">
      <!-- 8 -->
      <defs>
       <path d="M 17.671875 38.8125 
Q 12.203125 40.828125 9.5625 44.53125 
Q 6.9375 48.25 6.9375 53.421875 
Q 6.9375 61.234375 12.546875 66.546875 
Q 18.171875 71.875 27.484375 71.875 
Q 36.859375 71.875 42.578125 66.421875 
Q 48.296875 60.984375 48.296875 53.171875 
Q 48.296875 48.1875 45.671875 44.5 
Q 43.0625 40.828125 37.75 38.8125 
Q 44.34375 36.671875 47.78125 31.875 
Q 51.21875 27.09375 51.21875 20.453125 
Q 51.21875 11.28125 44.71875 5.03125 
Q 38.234375 -1.21875 27.640625 -1.21875 
Q 17.046875 -1.21875 10.546875 5.046875 
Q 4.046875 11.328125 4.046875 20.703125 
Q 4.046875 27.6875 7.59375 32.390625 
Q 11.140625 37.109375 17.671875 38.8125 
z
M 15.921875 53.71875 
Q 15.921875 48.640625 19.1875 45.40625 
Q 22.46875 42.1875 27.6875 42.1875 
Q 32.765625 42.1875 36.015625 45.375 
Q 39.265625 48.578125 39.265625 53.21875 
Q 39.265625 58.0625 35.90625 61.359375 
Q 32.5625 64.65625 27.59375 64.65625 
Q 22.5625 64.65625 19.234375 61.421875 
Q 15.921875 58.203125 15.921875 53.71875 
z
M 13.09375 20.65625 
Q 13.09375 16.890625 14.875 13.375 
Q 16.65625 9.859375 20.171875 7.921875 
Q 23.6875 6 27.734375 6 
Q 34.03125 6 38.125 10.046875 
Q 42.234375 14.109375 42.234375 20.359375 
Q 42.234375 26.703125 38.015625 30.859375 
Q 33.796875 35.015625 27.4375 35.015625 
Q 21.234375 35.015625 17.15625 30.90625 
Q 13.09375 26.8125 13.09375 20.65625 
z
" id="ArialMT-38"/>
      </defs>
      <g style="fill:#262626;" transform="translate(135.80044 190.117812)scale(0.1 -0.1)">
       <use xlink:href="#ArialMT-38"/>
      </g>
     </g>
    </g>
    <g id="xtick_5">
     <g id="line2d_5">
      <g>
       <use style="fill:#262626;stroke:#262626;stroke-width:0.8;" x="167.442727" xlink:href="#mffa78e01da" y="175.96"/>
      </g>
     </g>
     <g id="text_5">
      <!-- 10 -->
      <defs>
       <path d="M 37.25 0 
L 28.46875 0 
L 28.46875 56 
Q 25.296875 52.984375 20.140625 49.953125 
Q 14.984375 46.921875 10.890625 45.40625 
L 10.890625 53.90625 
Q 18.265625 57.375 23.78125 62.296875 
Q 29.296875 67.234375 31.59375 71.875 
L 37.25 71.875 
z
" id="ArialMT-31"/>
       <path d="M 4.15625 35.296875 
Q 4.15625 48 6.765625 55.734375 
Q 9.375 63.484375 14.515625 67.671875 
Q 19.671875 71.875 27.484375 71.875 
Q 33.25 71.875 37.59375 69.546875 
Q 41.9375 67.234375 44.765625 62.859375 
Q 47.609375 58.5 49.21875 52.21875 
Q 50.828125 45.953125 50.828125 35.296875 
Q 50.828125 22.703125 48.234375 14.96875 
Q 45.65625 7.234375 40.5 3 
Q 35.359375 -1.21875 27.484375 -1.21875 
Q 17.140625 -1.21875 11.234375 6.203125 
Q 4.15625 15.140625 4.15625 35.296875 
z
M 13.1875 35.296875 
Q 13.1875 17.671875 17.3125 11.828125 
Q 21.4375 6 27.484375 6 
Q 33.546875 6 37.671875 11.859375 
Q 41.796875 17.71875 41.796875 35.296875 
Q 41.796875 52.984375 37.671875 58.78125 
Q 33.546875 64.59375 27.390625 64.59375 
Q 21.34375 64.59375 17.71875 59.46875 
Q 13.1875 52.9375 13.1875 35.296875 
z
" id="ArialMT-30"/>
      </defs>
      <g style="fill:#262626;" transform="translate(161.88179 190.117812)scale(0.1 -0.1)">
       <use xlink:href="#ArialMT-31"/>
       <use x="55.615234" xlink:href="#ArialMT-30"/>
      </g>
     </g>
    </g>
    <g id="xtick_6">
     <g id="line2d_6">
      <g>
       <use style="fill:#262626;stroke:#262626;stroke-width:0.8;" x="196.304545" xlink:href="#mffa78e01da" y="175.96"/>
      </g>
     </g>
     <g id="text_6">
      <!-- 12 -->
      <g style="fill:#262626;" transform="translate(190.743608 190.117812)scale(0.1 -0.1)">
       <use xlink:href="#ArialMT-31"/>
       <use x="55.615234" xlink:href="#ArialMT-32"/>
      </g>
     </g>
    </g>
    <g id="text_7">
     <!-- pH -->
     <defs>
      <path d="M 6.59375 -19.875 
L 6.59375 51.859375 
L 14.59375 51.859375 
L 14.59375 45.125 
Q 17.4375 49.078125 21 51.046875 
Q 24.5625 53.03125 29.640625 53.03125 
Q 36.28125 53.03125 41.359375 49.609375 
Q 46.4375 46.1875 49.015625 39.953125 
Q 51.609375 33.734375 51.609375 26.3125 
Q 51.609375 18.359375 48.75 11.984375 
Q 45.90625 5.609375 40.453125 2.21875 
Q 35.015625 -1.171875 29 -1.171875 
Q 24.609375 -1.171875 21.109375 0.6875 
Q 17.625 2.546875 15.375 5.375 
L 15.375 -19.875 
z
M 14.546875 25.640625 
Q 14.546875 15.625 18.59375 10.84375 
Q 22.65625 6.0625 28.421875 6.0625 
Q 34.28125 6.0625 38.453125 11.015625 
Q 42.625 15.96875 42.625 26.375 
Q 42.625 36.28125 38.546875 41.203125 
Q 34.46875 46.140625 28.8125 46.140625 
Q 23.1875 46.140625 18.859375 40.890625 
Q 14.546875 35.640625 14.546875 25.640625 
z
" id="ArialMT-70"/>
      <path d="M 8.015625 0 
L 8.015625 71.578125 
L 17.484375 71.578125 
L 17.484375 42.1875 
L 54.6875 42.1875 
L 54.6875 71.578125 
L 64.15625 71.578125 
L 64.15625 0 
L 54.6875 0 
L 54.6875 33.734375 
L 17.484375 33.734375 
L 17.484375 0 
z
" id="ArialMT-48"/>
     </defs>
     <g style="fill:#262626;" transform="translate(117.758594 203.263125)scale(0.1 -0.1)">
      <use xlink:href="#ArialMT-70"/>
      <use x="55.615234" xlink:href="#ArialMT-48"/>
     </g>
    </g>
   </g>
   <g id="matplotlib.axis_2">
    <g id="ytick_1">
     <g id="line2d_7">
      <defs>
       <path d="M 0 0 
L -3.5 0 
" id="m8a6c3ca03f" style="stroke:#262626;stroke-width:0.8;"/>
      </defs>
      <g>
       <use style="fill:#262626;stroke:#262626;stroke-width:0.8;" x="44.78" xlink:href="#m8a6c3ca03f" y="148.861297"/>
      </g>
     </g>
     <g id="text_8">
      <!-- −2 -->
      <defs>
       <path d="M 52.828125 31.203125 
L 5.5625 31.203125 
L 5.5625 39.40625 
L 52.828125 39.40625 
z
" id="ArialMT-2212"/>
      </defs>
      <g style="fill:#262626;" transform="translate(26.378438 152.440203)scale(0.1 -0.1)">
       <use xlink:href="#ArialMT-2212"/>
       <use x="58.398438" xlink:href="#ArialMT-32"/>
      </g>
     </g>
    </g>
    <g id="ytick_2">
     <g id="line2d_8">
      <g>
       <use style="fill:#262626;stroke:#262626;stroke-width:0.8;" x="44.78" xlink:href="#m8a6c3ca03f" y="118.857345"/>
      </g>
     </g>
     <g id="text_9">
      <!-- −1 -->
      <g style="fill:#262626;" transform="translate(26.378438 122.436252)scale(0.1 -0.1)">
       <use xlink:href="#ArialMT-2212"/>
       <use x="58.398438" xlink:href="#ArialMT-31"/>
      </g>
     </g>
    </g>
    <g id="ytick_3">
     <g id="line2d_9">
      <g>
       <use style="fill:#262626;stroke:#262626;stroke-width:0.8;" x="44.78" xlink:href="#m8a6c3ca03f" y="88.853394"/>
      </g>
     </g>
     <g id="text_10">
      <!-- 0 -->
      <g style="fill:#262626;" transform="translate(32.219063 92.4323)scale(0.1 -0.1)">
       <use xlink:href="#ArialMT-30"/>
      </g>
     </g>
    </g>
    <g id="ytick_4">
     <g id="line2d_10">
      <g>
       <use style="fill:#262626;stroke:#262626;stroke-width:0.8;" x="44.78" xlink:href="#m8a6c3ca03f" y="58.849442"/>
      </g>
     </g>
     <g id="text_11">
      <!-- 1 -->
      <g style="fill:#262626;" transform="translate(32.219063 62.428348)scale(0.1 -0.1)">
       <use xlink:href="#ArialMT-31"/>
      </g>
     </g>
    </g>
    <g id="ytick_5">
     <g id="line2d_11">
      <g>
       <use style="fill:#262626;stroke:#262626;stroke-width:0.8;" x="44.78" xlink:href="#m8a6c3ca03f" y="28.84549"/>
      </g>
     </g>
     <g id="text_12">
      <!-- 2 -->
      <g style="fill:#262626;" transform="translate(32.219063 32.424397)scale(0.1 -0.1)">
       <use xlink:href="#ArialMT-32"/>
      </g>
     </g>
    </g>
    <g id="text_13">
     <!-- $\langle q_\mathsf{total} \rangle$ -->
     <defs>
      <path d="M 8.9375 31.34375 
L 22.703125 75.875 
L 31 75.875 
L 17.234375 31.34375 
L 31 -13.1875 
L 22.703125 -13.1875 
z
" id="DejaVuSans-27e8"/>
      <path d="M 41.703125 8.203125 
Q 38.09375 3.46875 33.171875 1.015625 
Q 28.265625 -1.421875 22.3125 -1.421875 
Q 14.015625 -1.421875 9.296875 4.171875 
Q 4.59375 9.765625 4.59375 19.578125 
Q 4.59375 27.484375 7.5 34.859375 
Q 10.40625 42.234375 15.828125 48.09375 
Q 19.34375 51.90625 23.90625 53.953125 
Q 28.46875 56 33.5 56 
Q 39.546875 56 43.453125 53.609375 
Q 47.359375 51.21875 49.125 46.390625 
L 50.6875 54.59375 
L 59.71875 54.59375 
L 45.125 -20.609375 
L 36.078125 -20.609375 
z
M 13.921875 20.90625 
Q 13.921875 13.671875 16.9375 9.890625 
Q 19.96875 6.109375 25.6875 6.109375 
Q 34.1875 6.109375 40.1875 14.234375 
Q 46.1875 22.359375 46.1875 33.984375 
Q 46.1875 41.015625 43.078125 44.75 
Q 39.984375 48.484375 34.1875 48.484375 
Q 29.9375 48.484375 26.3125 46.5 
Q 22.703125 44.53125 20.015625 40.71875 
Q 17.1875 36.71875 15.546875 31.34375 
Q 13.921875 25.984375 13.921875 20.90625 
z
" id="DejaVuSans-Oblique-71"/>
      <path d="M 18.3125 70.21875 
L 18.3125 54.6875 
L 36.8125 54.6875 
L 36.8125 47.703125 
L 18.3125 47.703125 
L 18.3125 18.015625 
Q 18.3125 11.328125 20.140625 9.421875 
Q 21.96875 7.515625 27.59375 7.515625 
L 36.8125 7.515625 
L 36.8125 0 
L 27.59375 0 
Q 17.1875 0 13.234375 3.875 
Q 9.28125 7.765625 9.28125 18.015625 
L 9.28125 47.703125 
L 2.6875 47.703125 
L 2.6875 54.6875 
L 9.28125 54.6875 
L 9.28125 70.21875 
z
" id="DejaVuSans-74"/>
      <path d="M 30.609375 48.390625 
Q 23.390625 48.390625 19.1875 42.75 
Q 14.984375 37.109375 14.984375 27.296875 
Q 14.984375 17.484375 19.15625 11.84375 
Q 23.34375 6.203125 30.609375 6.203125 
Q 37.796875 6.203125 41.984375 11.859375 
Q 46.1875 17.53125 46.1875 27.296875 
Q 46.1875 37.015625 41.984375 42.703125 
Q 37.796875 48.390625 30.609375 48.390625 
z
M 30.609375 56 
Q 42.328125 56 49.015625 48.375 
Q 55.71875 40.765625 55.71875 27.296875 
Q 55.71875 13.875 49.015625 6.21875 
Q 42.328125 -1.421875 30.609375 -1.421875 
Q 18.84375 -1.421875 12.171875 6.21875 
Q 5.515625 13.875 5.515625 27.296875 
Q 5.515625 40.765625 12.171875 48.375 
Q 18.84375 56 30.609375 56 
z
" id="DejaVuSans-6f"/>
      <path d="M 34.28125 27.484375 
Q 23.390625 27.484375 19.1875 25 
Q 14.984375 22.515625 14.984375 16.5 
Q 14.984375 11.71875 18.140625 8.90625 
Q 21.296875 6.109375 26.703125 6.109375 
Q 34.1875 6.109375 38.703125 11.40625 
Q 43.21875 16.703125 43.21875 25.484375 
L 43.21875 27.484375 
z
M 52.203125 31.203125 
L 52.203125 0 
L 43.21875 0 
L 43.21875 8.296875 
Q 40.140625 3.328125 35.546875 0.953125 
Q 30.953125 -1.421875 24.3125 -1.421875 
Q 15.921875 -1.421875 10.953125 3.296875 
Q 6 8.015625 6 15.921875 
Q 6 25.140625 12.171875 29.828125 
Q 18.359375 34.515625 30.609375 34.515625 
L 43.21875 34.515625 
L 43.21875 35.40625 
Q 43.21875 41.609375 39.140625 45 
Q 35.0625 48.390625 27.6875 48.390625 
Q 23 48.390625 18.546875 47.265625 
Q 14.109375 46.140625 10.015625 43.890625 
L 10.015625 52.203125 
Q 14.9375 54.109375 19.578125 55.046875 
Q 24.21875 56 28.609375 56 
Q 40.484375 56 46.34375 49.84375 
Q 52.203125 43.703125 52.203125 31.203125 
z
" id="DejaVuSans-61"/>
      <path d="M 9.421875 75.984375 
L 18.40625 75.984375 
L 18.40625 0 
L 9.421875 0 
z
" id="DejaVuSans-6c"/>
      <path d="M 30.078125 31.34375 
L 16.3125 -13.1875 
L 8.015625 -13.1875 
L 21.78125 31.34375 
L 8.015625 75.875 
L 16.3125 75.875 
z
" id="DejaVuSans-27e9"/>
     </defs>
     <g style="fill:#262626;" transform="translate(20.278438 115.95)rotate(-90)scale(0.1 -0.1)">
      <use transform="translate(0 0.125)" xlink:href="#DejaVuSans-27e8"/>
      <use transform="translate(39.013672 0.125)" xlink:href="#DejaVuSans-Oblique-71"/>
      <use transform="translate(102.490234 -16.28125)scale(0.7)" xlink:href="#DejaVuSans-74"/>
      <use transform="translate(129.936523 -16.28125)scale(0.7)" xlink:href="#DejaVuSans-6f"/>
      <use transform="translate(172.763672 -16.28125)scale(0.7)" xlink:href="#DejaVuSans-74"/>
      <use transform="translate(200.209961 -16.28125)scale(0.7)" xlink:href="#DejaVuSans-61"/>
      <use transform="translate(243.105469 -16.28125)scale(0.7)" xlink:href="#DejaVuSans-6c"/>
      <use transform="translate(265.288086 0.125)" xlink:href="#DejaVuSans-27e9"/>
     </g>
    </g>
   </g>
   <g id="PolyCollection_1">
    <defs>
     <path d="M 51.995455 -183.718182 
L 51.995455 -117.317937 
L 53.438545 -114.808339 
L 54.881636 -112.496594 
L 56.324727 -110.414919 
L 57.767818 -108.590629 
L 59.210909 -107.043413 
L 60.654 -105.783534 
L 62.097091 -104.811287 
L 63.540182 -104.117611 
L 64.983273 -103.685452 
L 66.426364 -103.491549 
L 67.869455 -103.508403 
L 69.312545 -103.706321 
L 70.755636 -104.055323 
L 72.198727 -104.526701 
L 73.641818 -105.094057 
L 75.084909 -105.733793 
L 76.528 -106.425155 
L 77.971091 -107.150003 
L 79.414182 -107.892525 
L 80.857273 -108.639062 
L 82.300364 -109.378076 
L 83.743455 -110.100154 
L 85.186545 -110.797942 
L 86.629636 -111.465999 
L 88.072727 -112.100643 
L 89.515818 -112.699824 
L 90.958909 -113.263014 
L 92.402 -113.791056 
L 93.845091 -114.28594 
L 95.288182 -114.750559 
L 96.731273 -115.188463 
L 98.174364 -115.603677 
L 99.617455 -116.000554 
L 101.060545 -116.383655 
L 102.503636 -116.757614 
L 103.946727 -117.126984 
L 105.389818 -117.496032 
L 106.832909 -117.868486 
L 108.276 -118.2472 
L 109.719091 -118.633697 
L 111.162182 -119.027545 
L 112.605273 -119.425484 
L 114.048364 -119.820243 
L 115.491455 -120.199033 
L 116.934545 -120.541848 
L 118.377636 -120.82016 
L 119.820727 -120.997269 
L 121.263818 -121.032228 
L 122.706909 -120.888287 
L 124.15 -120.543089 
L 125.593091 -119.994316 
L 127.036182 -119.257005 
L 128.479273 -118.355593 
L 129.922364 -117.316265 
L 131.365455 -116.162348 
L 132.808545 -114.912382 
L 134.251636 -113.579671 
L 135.694727 -112.172487 
L 137.137818 -110.694516 
L 138.580909 -109.145442 
L 140.024 -107.521604 
L 141.467091 -105.816784 
L 142.910182 -104.023193 
L 144.353273 -102.132777 
L 145.796364 -100.138847 
L 147.239455 -98.038012 
L 148.682545 -95.832194 
L 150.125636 -93.530471 
L 151.568727 -91.150315 
L 153.011818 -88.71782 
L 154.454909 -86.266514 
L 155.898 -83.834638 
L 157.341091 -81.461122 
L 158.784182 -79.180938 
L 160.227273 -77.020755 
L 161.670364 -74.995781 
L 163.113455 -73.10832 
L 164.556545 -71.348147 
L 165.999636 -69.694496 
L 167.442727 -68.119266 
L 168.885818 -66.590958 
L 170.328909 -65.078849 
L 171.772 -63.557002 
L 173.215091 -62.007816 
L 174.658182 -60.424805 
L 176.101273 -58.814168 
L 177.544364 -57.194689 
L 178.987455 -55.595672 
L 180.430545 -54.053088 
L 181.873636 -52.6047 
L 183.316727 -51.285228 
L 184.759818 -50.122548 
L 186.202909 -49.135491 
L 187.646 -48.33327 
L 189.089091 -47.716231 
L 190.532182 -47.277435 
L 191.975273 -47.004567 
L 193.418364 -46.881818 
L 194.861455 -46.891512 
L 196.304545 -47.015366 
L 196.304545 -90.848238 
L 196.304545 -90.848238 
L 194.861455 -91.835111 
L 193.418364 -92.89637 
L 191.975273 -94.045167 
L 190.532182 -95.295754 
L 189.089091 -96.662325 
L 187.646 -98.157307 
L 186.202909 -99.789184 
L 184.759818 -101.560092 
L 183.316727 -103.463653 
L 181.873636 -105.483652 
L 180.430545 -107.594157 
L 178.987455 -109.761382 
L 177.544364 -111.947155 
L 176.101273 -114.11336 
L 174.658182 -116.226453 
L 173.215091 -118.261191 
L 171.772 -120.202905 
L 170.328909 -122.048033 
L 168.885818 -123.802986 
L 167.442727 -125.481722 
L 165.999636 -127.10255 
L 164.556545 -128.684644 
L 163.113455 -130.244602 
L 161.670364 -131.793226 
L 160.227273 -133.332757 
L 158.784182 -134.854965 
L 157.341091 -136.340644 
L 155.898 -137.760924 
L 154.454909 -139.080422 
L 153.011818 -140.261735 
L 151.568727 -141.270369 
L 150.125636 -142.079042 
L 148.682545 -142.670483 
L 147.239455 -143.038348 
L 145.796364 -143.186439 
L 144.353273 -143.126776 
L 142.910182 -142.877241 
L 141.467091 -142.459352 
L 140.024 -141.896506 
L 138.580909 -141.212804 
L 137.137818 -140.432419 
L 135.694727 -139.579441 
L 134.251636 -138.6781 
L 132.808545 -137.753287 
L 131.365455 -136.831261 
L 129.922364 -135.940378 
L 128.479273 -135.111629 
L 127.036182 -134.378558 
L 125.593091 -133.775678 
L 124.15 -133.334178 
L 122.706909 -133.07455 
L 121.263818 -132.998869 
L 119.820727 -133.088309 
L 118.377636 -133.308955 
L 116.934545 -133.622136 
L 115.491455 -133.992984 
L 114.048364 -134.394446 
L 112.605273 -134.807715 
L 111.162182 -135.220978 
L 109.719091 -135.627778 
L 108.276 -136.02554 
L 106.832909 -136.414432 
L 105.389818 -136.796517 
L 103.946727 -137.175161 
L 102.503636 -137.554602 
L 101.060545 -137.939643 
L 99.617455 -138.335424 
L 98.174364 -138.747254 
L 96.731273 -139.180485 
L 95.288182 -139.640426 
L 93.845091 -140.132266 
L 92.402 -140.660995 
L 90.958909 -141.231285 
L 89.515818 -141.847345 
L 88.072727 -142.512785 
L 86.629636 -143.230525 
L 85.186545 -144.002816 
L 83.743455 -144.831329 
L 82.300364 -145.717275 
L 80.857273 -146.66154 
L 79.414182 -147.664878 
L 77.971091 -148.728233 
L 76.528 -149.853173 
L 75.084909 -151.042306 
L 73.641818 -152.299549 
L 72.198727 -153.630208 
L 70.755636 -155.040958 
L 69.312545 -156.539805 
L 67.869455 -158.136047 
L 66.426364 -159.840144 
L 64.983273 -161.663286 
L 63.540182 -163.616406 
L 62.097091 -165.708465 
L 60.654 -167.944181 
L 59.210909 -170.32171 
L 57.767818 -172.831014 
L 56.324727 -175.453513 
L 54.881636 -178.163237 
L 53.438545 -180.929183 
L 51.995455 -183.718182 
z
" id="mbc039429d4" style="stroke:#ffffff;stroke-opacity:0.05;"/>
    </defs>
    <g clip-path="url(#pc6774c39bf)">
     <use style="fill:#b1400d;fill-opacity:0.05;stroke:#ffffff;stroke-opacity:0.05;" x="0" xlink:href="#mbc039429d4" y="216"/>
    </g>
   </g>
   <g id="line2d_12">
    <path clip-path="url(#pc6774c39bf)" d="M 51.995455 65.481941 
L 53.438545 68.131239 
L 54.881636 70.670084 
L 56.324727 73.065784 
L 57.767818 75.289179 
L 59.210909 77.317439 
L 60.654 79.136143 
L 62.097091 80.740124 
L 63.540182 82.132992 
L 64.983273 83.325631 
L 66.426364 84.334154 
L 67.869455 85.177775 
L 69.312545 85.876937 
L 70.755636 86.451859 
L 72.198727 86.921545 
L 73.641818 87.303197 
L 75.084909 87.61195 
L 76.528 87.860836 
L 77.971091 88.060882 
L 79.414182 88.221298 
L 80.857273 88.349699 
L 82.300364 88.452325 
L 83.743455 88.534259 
L 85.186545 88.599621 
L 86.629636 88.651738 
L 88.072727 88.693286 
L 89.515818 88.726415 
L 90.958909 88.75285 
L 92.402 88.773975 
L 93.845091 88.790897 
L 95.288182 88.804508 
L 96.731273 88.815526 
L 98.174364 88.824535 
L 99.617455 88.832011 
L 101.060545 88.838351 
L 102.503636 88.843892 
L 103.946727 88.848927 
L 105.389818 88.853725 
L 106.832909 88.858541 
L 108.276 88.86363 
L 109.719091 88.869263 
L 111.162182 88.875738 
L 112.605273 88.883401 
L 114.048364 88.892655 
L 115.491455 88.903991 
L 116.934545 88.918008 
L 118.377636 88.935443 
L 119.820727 88.957211 
L 121.263818 88.984451 
L 122.706909 89.018581 
L 124.15 89.061366 
L 125.593091 89.115003 
L 127.036182 89.182218 
L 128.479273 89.266389 
L 129.922364 89.371678 
L 131.365455 89.503195 
L 132.808545 89.667166 
L 134.251636 89.871115 
L 135.694727 90.124036 
L 137.137818 90.436532 
L 138.580909 90.820877 
L 140.024 91.290945 
L 141.467091 91.861932 
L 142.910182 92.549783 
L 144.353273 93.370224 
L 145.796364 94.337357 
L 147.239455 95.46182 
L 148.682545 96.748661 
L 150.125636 98.195243 
L 151.568727 99.789658 
L 153.011818 101.510223 
L 154.454909 103.326532 
L 155.898 105.202219 
L 157.341091 107.099117 
L 158.784182 108.982048 
L 160.227273 110.823244 
L 161.670364 112.605497 
L 163.113455 114.323539 
L 164.556545 115.983604 
L 165.999636 117.601477 
L 167.442727 119.199506 
L 168.885818 120.803028 
L 170.328909 122.436559 
L 171.772 124.120047 
L 173.215091 125.865496 
L 174.658182 127.674371 
L 176.101273 129.536236 
L 177.544364 131.429078 
L 178.987455 133.321473 
L 180.430545 135.176378 
L 181.873636 136.955824 
L 183.316727 138.62556 
L 184.759818 140.15868 
L 186.202909 141.537663 
L 187.646 142.754712 
L 189.089091 143.810722 
L 190.532182 144.713405 
L 191.975273 145.475133 
L 193.418364 146.110906 
L 194.861455 146.636688 
L 196.304545 147.068198 
" style="fill:none;opacity:0.9;stroke:#b1400d;stroke-linecap:round;stroke-width:1.5;"/>
   </g>
   <g id="line2d_13">
    <path clip-path="url(#pc6774c39bf)" d="M 51.995455 71.28612 
L 53.438545 72.988788 
L 54.881636 74.714049 
L 56.324727 76.416717 
L 57.767818 78.053923 
L 59.210909 79.58926 
L 60.654 80.995633 
L 62.097091 82.256417 
L 63.540182 83.365041 
L 64.983273 84.323416 
L 66.426364 85.139792 
L 67.869455 85.826526 
L 69.312545 86.398128 
L 70.755636 86.869726 
L 72.198727 87.255997 
L 73.641818 87.570497 
L 75.084909 87.825323 
L 76.528 88.030987 
L 77.971091 88.196447 
L 79.414182 88.329225 
L 80.857273 88.435559 
L 82.300364 88.520578 
L 83.743455 88.58847 
L 85.186545 88.642633 
L 86.629636 88.685811 
L 88.072727 88.720216 
L 89.515818 88.747626 
L 90.958909 88.769464 
L 92.402 88.786871 
L 93.845091 88.80076 
L 95.288182 88.811861 
L 96.731273 88.82076 
L 98.174364 88.827927 
L 99.617455 88.833742 
L 101.060545 88.838513 
L 102.503636 88.842493 
L 103.946727 88.845893 
L 105.389818 88.848895 
L 106.832909 88.851657 
L 108.276 88.854327 
L 109.719091 88.857046 
L 111.162182 88.85996 
L 112.605273 88.863223 
L 114.048364 88.867008 
L 115.491455 88.871518 
L 116.934545 88.87699 
L 118.377636 88.883717 
L 119.820727 88.892053 
L 121.263818 88.90244 
L 122.706909 88.915426 
L 124.15 88.931696 
L 125.593091 88.952105 
L 127.036182 88.977722 
L 128.479273 89.009882 
L 129.922364 89.050252 
L 131.365455 89.100912 
L 132.808545 89.164447 
L 134.251636 89.244063 
L 135.694727 89.343725 
L 137.137818 89.468305 
L 138.580909 89.62376 
L 140.024 89.817315 
L 141.467091 90.057647 
L 142.910182 90.355044 
L 144.353273 90.721507 
L 145.796364 91.170742 
L 147.239455 91.717972 
L 148.682545 92.379484 
L 150.125636 93.171813 
L 151.568727 94.110509 
L 153.011818 95.208451 
L 154.454909 96.473827 
L 155.898 97.908017 
L 157.341091 99.503833 
L 158.784182 101.244654 
L 160.227273 103.104983 
L 161.670364 105.052691 
L 163.113455 107.05278 
L 164.556545 109.071983 
L 165.999636 111.083234 
L 167.442727 113.068977 
L 168.885818 115.022654 
L 170.328909 116.948138 
L 171.772 118.857345 
L 173.215091 120.766553 
L 174.658182 122.692036 
L 176.101273 124.645713 
L 177.544364 126.631457 
L 178.987455 128.642707 
L 180.430545 130.66191 
L 181.873636 132.661998 
L 183.316727 134.609707 
L 184.759818 136.470035 
L 186.202909 138.210856 
L 187.646 139.806671 
L 189.089091 141.24086 
L 190.532182 142.506235 
L 191.975273 143.604177 
L 193.418364 144.542871 
L 194.861455 145.335198 
L 196.304545 145.996708 
" style="fill:none;opacity:0.7;stroke:#000000;stroke-linecap:round;stroke-width:1.5;"/>
   </g>
   <g id="line2d_14">
    <path clip-path="url(#pc6774c39bf)" d="M 51.995455 32.281818 
L 53.438545 35.070817 
L 54.881636 37.836763 
L 56.324727 40.546487 
L 57.767818 43.168986 
L 59.210909 45.67829 
L 60.654 48.055819 
L 62.097091 50.291535 
L 63.540182 52.383594 
L 64.983273 54.336714 
L 66.426364 56.159856 
L 67.869455 57.863953 
L 69.312545 59.460195 
L 70.755636 60.959042 
L 72.198727 62.369792 
L 73.641818 63.700451 
L 75.084909 64.957694 
L 76.528 66.146827 
L 77.971091 67.271767 
L 79.414182 68.335122 
L 80.857273 69.33846 
L 82.300364 70.282725 
L 83.743455 71.168671 
L 85.186545 71.997184 
L 86.629636 72.769475 
L 88.072727 73.487215 
L 89.515818 74.152655 
L 90.958909 74.768715 
L 92.402 75.339005 
L 93.845091 75.867734 
L 95.288182 76.359574 
L 96.731273 76.819515 
L 98.174364 77.252746 
L 99.617455 77.664576 
L 101.060545 78.060357 
L 102.503636 78.445398 
L 103.946727 78.824839 
L 105.389818 79.203483 
L 106.832909 79.585568 
L 108.276 79.97446 
L 109.719091 80.372222 
L 111.162182 80.779022 
L 112.605273 81.192285 
L 114.048364 81.605554 
L 115.491455 82.007016 
L 116.934545 82.377864 
L 118.377636 82.691045 
L 119.820727 82.911691 
L 121.263818 83.001131 
L 122.706909 82.92545 
L 124.15 82.665822 
L 125.593091 82.224322 
L 127.036182 81.621442 
L 128.479273 80.888371 
L 129.922364 80.059622 
L 131.365455 79.168739 
L 132.808545 78.246713 
L 134.251636 77.3219 
L 135.694727 76.420559 
L 137.137818 75.567581 
L 138.580909 74.787196 
L 140.024 74.103494 
L 141.467091 73.540648 
L 142.910182 73.122759 
L 144.353273 72.873224 
L 145.796364 72.813561 
L 147.239455 72.961652 
L 148.682545 73.329517 
L 150.125636 73.920958 
L 151.568727 74.729631 
L 153.011818 75.738265 
L 154.454909 76.919578 
L 155.898 78.239076 
L 157.341091 79.659356 
L 158.784182 81.145035 
L 160.227273 82.667243 
L 161.670364 84.206774 
L 163.113455 85.755398 
L 164.556545 87.315356 
L 165.999636 88.89745 
L 167.442727 90.518278 
L 168.885818 92.197014 
L 170.328909 93.951967 
L 171.772 95.797095 
L 173.215091 97.738809 
L 174.658182 99.773547 
L 176.101273 101.88664 
L 177.544364 104.052845 
L 178.987455 106.238618 
L 180.430545 108.405843 
L 181.873636 110.516348 
L 183.316727 112.536347 
L 184.759818 114.439908 
L 186.202909 116.210816 
L 187.646 117.842693 
L 189.089091 119.337675 
L 190.532182 120.704246 
L 191.975273 121.954833 
L 193.418364 123.10363 
L 194.861455 124.164889 
L 196.304545 125.151762 
" style="fill:none;opacity:0.45;stroke:#b1400d;stroke-dasharray:2.775,1.2;stroke-dashoffset:0;stroke-width:0.75;"/>
   </g>
   <g id="line2d_15">
    <path clip-path="url(#pc6774c39bf)" d="M 51.995455 98.682063 
L 53.438545 101.191661 
L 54.881636 103.503406 
L 56.324727 105.585081 
L 57.767818 107.409371 
L 59.210909 108.956587 
L 60.654 110.216466 
L 62.097091 111.188713 
L 63.540182 111.882389 
L 64.983273 112.314548 
L 66.426364 112.508451 
L 67.869455 112.491597 
L 69.312545 112.293679 
L 70.755636 111.944677 
L 72.198727 111.473299 
L 73.641818 110.905943 
L 75.084909 110.266207 
L 76.528 109.574845 
L 77.971091 108.849997 
L 79.414182 108.107475 
L 80.857273 107.360938 
L 82.300364 106.621924 
L 83.743455 105.899846 
L 85.186545 105.202058 
L 86.629636 104.534001 
L 88.072727 103.899357 
L 89.515818 103.300176 
L 90.958909 102.736986 
L 92.402 102.208944 
L 93.845091 101.71406 
L 95.288182 101.249441 
L 96.731273 100.811537 
L 98.174364 100.396323 
L 99.617455 99.999446 
L 101.060545 99.616345 
L 102.503636 99.242386 
L 103.946727 98.873016 
L 105.389818 98.503968 
L 106.832909 98.131514 
L 108.276 97.7528 
L 109.719091 97.366303 
L 111.162182 96.972455 
L 112.605273 96.574516 
L 114.048364 96.179757 
L 115.491455 95.800967 
L 116.934545 95.458152 
L 118.377636 95.17984 
L 119.820727 95.002731 
L 121.263818 94.967772 
L 122.706909 95.111713 
L 124.15 95.456911 
L 125.593091 96.005684 
L 127.036182 96.742995 
L 128.479273 97.644407 
L 129.922364 98.683735 
L 131.365455 99.837652 
L 132.808545 101.087618 
L 134.251636 102.420329 
L 135.694727 103.827513 
L 137.137818 105.305484 
L 138.580909 106.854558 
L 140.024 108.478396 
L 141.467091 110.183216 
L 142.910182 111.976807 
L 144.353273 113.867223 
L 145.796364 115.861153 
L 147.239455 117.961988 
L 148.682545 120.167806 
L 150.125636 122.469529 
L 151.568727 124.849685 
L 153.011818 127.28218 
L 154.454909 129.733486 
L 155.898 132.165362 
L 157.341091 134.538878 
L 158.784182 136.819062 
L 160.227273 138.979245 
L 161.670364 141.004219 
L 163.113455 142.89168 
L 164.556545 144.651853 
L 165.999636 146.305504 
L 167.442727 147.880734 
L 168.885818 149.409042 
L 170.328909 150.921151 
L 171.772 152.442998 
L 173.215091 153.992184 
L 174.658182 155.575195 
L 176.101273 157.185832 
L 177.544364 158.805311 
L 178.987455 160.404328 
L 180.430545 161.946912 
L 181.873636 163.3953 
L 183.316727 164.714772 
L 184.759818 165.877452 
L 186.202909 166.864509 
L 187.646 167.66673 
L 189.089091 168.283769 
L 190.532182 168.722565 
L 191.975273 168.995433 
L 193.418364 169.118182 
L 194.861455 169.108488 
L 196.304545 168.984634 
" style="fill:none;opacity:0.45;stroke:#b1400d;stroke-dasharray:2.775,1.2;stroke-dashoffset:0;stroke-width:0.75;"/>
   </g>
   <g id="patch_3">
    <path d="M 44.78 175.96 
L 44.78 25.44 
" style="fill:none;stroke:#262626;stroke-linecap:square;stroke-linejoin:miter;stroke-width:0.8;"/>
   </g>
   <g id="patch_4">
    <path d="M 44.78 175.96 
L 203.52 175.96 
" style="fill:none;stroke:#262626;stroke-linecap:square;stroke-linejoin:miter;stroke-width:0.8;"/>
   </g>
   <g id="text_14">
    <!-- Epik-macro SM18 -->
    <defs>
     <path d="M 7.90625 0 
L 7.90625 71.578125 
L 59.671875 71.578125 
L 59.671875 63.140625 
L 17.390625 63.140625 
L 17.390625 41.21875 
L 56.984375 41.21875 
L 56.984375 32.8125 
L 17.390625 32.8125 
L 17.390625 8.453125 
L 61.328125 8.453125 
L 61.328125 0 
z
" id="ArialMT-45"/>
     <path d="M 6.640625 61.46875 
L 6.640625 71.578125 
L 15.4375 71.578125 
L 15.4375 61.46875 
z
M 6.640625 0 
L 6.640625 51.859375 
L 15.4375 51.859375 
L 15.4375 0 
z
" id="ArialMT-69"/>
     <path d="M 6.640625 0 
L 6.640625 71.578125 
L 15.4375 71.578125 
L 15.4375 30.765625 
L 36.234375 51.859375 
L 47.609375 51.859375 
L 27.78125 32.625 
L 49.609375 0 
L 38.765625 0 
L 21.625 26.515625 
L 15.4375 20.5625 
L 15.4375 0 
z
" id="ArialMT-6b"/>
     <path d="M 3.171875 21.484375 
L 3.171875 30.328125 
L 30.171875 30.328125 
L 30.171875 21.484375 
z
" id="ArialMT-2d"/>
     <path d="M 6.59375 0 
L 6.59375 51.859375 
L 14.453125 51.859375 
L 14.453125 44.578125 
Q 16.890625 48.390625 20.9375 50.703125 
Q 25 53.03125 30.171875 53.03125 
Q 35.9375 53.03125 39.625 50.640625 
Q 43.3125 48.25 44.828125 43.953125 
Q 50.984375 53.03125 60.84375 53.03125 
Q 68.5625 53.03125 72.703125 48.75 
Q 76.859375 44.484375 76.859375 35.59375 
L 76.859375 0 
L 68.109375 0 
L 68.109375 32.671875 
Q 68.109375 37.9375 67.25 40.25 
Q 66.40625 42.578125 64.15625 43.984375 
Q 61.921875 45.40625 58.890625 45.40625 
Q 53.421875 45.40625 49.796875 41.765625 
Q 46.1875 38.140625 46.1875 30.125 
L 46.1875 0 
L 37.40625 0 
L 37.40625 33.6875 
Q 37.40625 39.546875 35.25 42.46875 
Q 33.109375 45.40625 28.21875 45.40625 
Q 24.515625 45.40625 21.359375 43.453125 
Q 18.21875 41.5 16.796875 37.734375 
Q 15.375 33.984375 15.375 26.90625 
L 15.375 0 
z
" id="ArialMT-6d"/>
     <path d="M 40.4375 6.390625 
Q 35.546875 2.25 31.03125 0.53125 
Q 26.515625 -1.171875 21.34375 -1.171875 
Q 12.796875 -1.171875 8.203125 3 
Q 3.609375 7.171875 3.609375 13.671875 
Q 3.609375 17.484375 5.34375 20.625 
Q 7.078125 23.78125 9.890625 25.6875 
Q 12.703125 27.59375 16.21875 28.5625 
Q 18.796875 29.25 24.03125 29.890625 
Q 34.671875 31.15625 39.703125 32.90625 
Q 39.75 34.71875 39.75 35.203125 
Q 39.75 40.578125 37.25 42.78125 
Q 33.890625 45.75 27.25 45.75 
Q 21.046875 45.75 18.09375 43.578125 
Q 15.140625 41.40625 13.71875 35.890625 
L 5.125 37.0625 
Q 6.296875 42.578125 8.984375 45.96875 
Q 11.671875 49.359375 16.75 51.1875 
Q 21.828125 53.03125 28.515625 53.03125 
Q 35.15625 53.03125 39.296875 51.46875 
Q 43.453125 49.90625 45.40625 47.53125 
Q 47.359375 45.171875 48.140625 41.546875 
Q 48.578125 39.3125 48.578125 33.453125 
L 48.578125 21.734375 
Q 48.578125 9.46875 49.140625 6.21875 
Q 49.703125 2.984375 51.375 0 
L 42.1875 0 
Q 40.828125 2.734375 40.4375 6.390625 
z
M 39.703125 26.03125 
Q 34.90625 24.078125 25.34375 22.703125 
Q 19.921875 21.921875 17.671875 20.9375 
Q 15.4375 19.96875 14.203125 18.09375 
Q 12.984375 16.21875 12.984375 13.921875 
Q 12.984375 10.40625 15.640625 8.0625 
Q 18.3125 5.71875 23.4375 5.71875 
Q 28.515625 5.71875 32.46875 7.9375 
Q 36.421875 10.15625 38.28125 14.015625 
Q 39.703125 17 39.703125 22.796875 
z
" id="ArialMT-61"/>
     <path d="M 40.4375 19 
L 49.078125 17.875 
Q 47.65625 8.9375 41.8125 3.875 
Q 35.984375 -1.171875 27.484375 -1.171875 
Q 16.84375 -1.171875 10.375 5.78125 
Q 3.90625 12.75 3.90625 25.734375 
Q 3.90625 34.125 6.6875 40.421875 
Q 9.46875 46.734375 15.15625 49.875 
Q 20.84375 53.03125 27.546875 53.03125 
Q 35.984375 53.03125 41.359375 48.75 
Q 46.734375 44.484375 48.25 36.625 
L 39.703125 35.296875 
Q 38.484375 40.53125 35.375 43.15625 
Q 32.28125 45.796875 27.875 45.796875 
Q 21.234375 45.796875 17.078125 41.03125 
Q 12.9375 36.28125 12.9375 25.984375 
Q 12.9375 15.53125 16.9375 10.796875 
Q 20.953125 6.0625 27.390625 6.0625 
Q 32.5625 6.0625 36.03125 9.234375 
Q 39.5 12.40625 40.4375 19 
z
" id="ArialMT-63"/>
     <path d="M 6.5 0 
L 6.5 51.859375 
L 14.40625 51.859375 
L 14.40625 44 
Q 17.4375 49.515625 20 51.265625 
Q 22.5625 53.03125 25.640625 53.03125 
Q 30.078125 53.03125 34.671875 50.203125 
L 31.640625 42.046875 
Q 28.421875 43.953125 25.203125 43.953125 
Q 22.3125 43.953125 20.015625 42.21875 
Q 17.71875 40.484375 16.75 37.40625 
Q 15.28125 32.71875 15.28125 27.15625 
L 15.28125 0 
z
" id="ArialMT-72"/>
     <path d="M 3.328125 25.921875 
Q 3.328125 40.328125 11.328125 47.265625 
Q 18.015625 53.03125 27.640625 53.03125 
Q 38.328125 53.03125 45.109375 46.015625 
Q 51.90625 39.015625 51.90625 26.65625 
Q 51.90625 16.65625 48.90625 10.90625 
Q 45.90625 5.171875 40.15625 2 
Q 34.421875 -1.171875 27.640625 -1.171875 
Q 16.75 -1.171875 10.03125 5.8125 
Q 3.328125 12.796875 3.328125 25.921875 
z
M 12.359375 25.921875 
Q 12.359375 15.96875 16.703125 11.015625 
Q 21.046875 6.0625 27.640625 6.0625 
Q 34.1875 6.0625 38.53125 11.03125 
Q 42.875 16.015625 42.875 26.21875 
Q 42.875 35.84375 38.5 40.796875 
Q 34.125 45.75 27.640625 45.75 
Q 21.046875 45.75 16.703125 40.8125 
Q 12.359375 35.890625 12.359375 25.921875 
z
" id="ArialMT-6f"/>
     <path id="ArialMT-20"/>
     <path d="M 4.5 23 
L 13.421875 23.78125 
Q 14.0625 18.40625 16.375 14.96875 
Q 18.703125 11.53125 23.578125 9.40625 
Q 28.46875 7.28125 34.578125 7.28125 
Q 39.984375 7.28125 44.140625 8.890625 
Q 48.296875 10.5 50.3125 13.296875 
Q 52.34375 16.109375 52.34375 19.4375 
Q 52.34375 22.796875 50.390625 25.3125 
Q 48.4375 27.828125 43.953125 29.546875 
Q 41.0625 30.671875 31.203125 33.03125 
Q 21.34375 35.40625 17.390625 37.5 
Q 12.25 40.1875 9.734375 44.15625 
Q 7.234375 48.140625 7.234375 53.078125 
Q 7.234375 58.5 10.296875 63.203125 
Q 13.375 67.921875 19.28125 70.359375 
Q 25.203125 72.796875 32.421875 72.796875 
Q 40.375 72.796875 46.453125 70.234375 
Q 52.546875 67.671875 55.8125 62.6875 
Q 59.078125 57.71875 59.328125 51.421875 
L 50.25 50.734375 
Q 49.515625 57.515625 45.28125 60.984375 
Q 41.0625 64.453125 32.8125 64.453125 
Q 24.21875 64.453125 20.28125 61.296875 
Q 16.359375 58.15625 16.359375 53.71875 
Q 16.359375 49.859375 19.140625 47.359375 
Q 21.875 44.875 33.421875 42.265625 
Q 44.96875 39.65625 49.265625 37.703125 
Q 55.515625 34.8125 58.484375 30.390625 
Q 61.46875 25.984375 61.46875 20.21875 
Q 61.46875 14.5 58.203125 9.4375 
Q 54.9375 4.390625 48.796875 1.578125 
Q 42.671875 -1.21875 35.015625 -1.21875 
Q 25.296875 -1.21875 18.71875 1.609375 
Q 12.15625 4.4375 8.421875 10.125 
Q 4.6875 15.828125 4.5 23 
z
" id="ArialMT-53"/>
     <path d="M 7.421875 0 
L 7.421875 71.578125 
L 21.6875 71.578125 
L 38.625 20.90625 
Q 40.96875 13.8125 42.046875 10.296875 
Q 43.265625 14.203125 45.84375 21.78125 
L 62.984375 71.578125 
L 75.734375 71.578125 
L 75.734375 0 
L 66.609375 0 
L 66.609375 59.90625 
L 45.796875 0 
L 37.25 0 
L 16.546875 60.9375 
L 16.546875 0 
z
" id="ArialMT-4d"/>
    </defs>
    <g style="fill:#262626;" transform="translate(76.471563 19.44)scale(0.12 -0.12)">
     <use xlink:href="#ArialMT-45"/>
     <use x="66.699219" xlink:href="#ArialMT-70"/>
     <use x="122.314453" xlink:href="#ArialMT-69"/>
     <use x="144.53125" xlink:href="#ArialMT-6b"/>
     <use x="194.53125" xlink:href="#ArialMT-2d"/>
     <use x="227.832031" xlink:href="#ArialMT-6d"/>
     <use x="311.132812" xlink:href="#ArialMT-61"/>
     <use x="366.748047" xlink:href="#ArialMT-63"/>
     <use x="416.748047" xlink:href="#ArialMT-72"/>
     <use x="450.048828" xlink:href="#ArialMT-6f"/>
     <use x="505.664062" xlink:href="#ArialMT-20"/>
     <use x="533.447266" xlink:href="#ArialMT-53"/>
     <use x="600.146484" xlink:href="#ArialMT-4d"/>
     <use x="683.447266" xlink:href="#ArialMT-31"/>
     <use x="739.0625" xlink:href="#ArialMT-38"/>
    </g>
   </g>
  </g>
 </g>
 <defs>
  <clipPath id="pc6774c39bf">
   <rect height="150.52" width="158.74" x="44.78" y="25.44"/>
  </clipPath>
 </defs>
</svg>
