<?xml version="1.0" encoding="utf-8" standalone="no"?>
<!DOCTYPE svg PUBLIC "-//W3C//DTD SVG 1.1//EN"
  "http://www.w3.org/Graphics/SVG/1.1/DTD/svg11.dtd">
<!-- Created with matplotlib (http://matplotlib.org/) -->
<svg height="216pt" version="1.1" viewBox="0 0 216 216" width="216pt" xmlns="http://www.w3.org/2000/svg" xmlns:xlink="http://www.w3.org/1999/xlink">
 <defs>
  <style type="text/css">
*{stroke-linecap:butt;stroke-linejoin:round;}
  </style>
 </defs>
 <g id="figure_1">
  <g id="patch_1">
   <path d="M 0 216 
L 216 216 
L 216 0 
L 0 0 
z
" style="fill:#ffffff;"/>
  </g>
  <g id="axes_1">
   <g id="patch_2">
    <path d="M 44.78 175.96 
L 203.52 175.96 
L 203.52 25.44 
L 44.78 25.44 
z
" style="fill:#ffffff;"/>
   </g>
   <g id="matplotlib.axis_1">
    <g id="xtick_1">
     <g id="line2d_1">
      <defs>
       <path d="M 0 0 
L 0 3.5 
" id="m854a60ba01" style="stroke:#262626;stroke-width:0.8;"/>
      </defs>
      <g>
       <use style="fill:#262626;stroke:#262626;stroke-width:0.8;" x="51.995455" xlink:href="#m854a60ba01" y="175.96"/>
      </g>
     </g>
     <g id="text_1">
      <!-- 2 -->
      <defs>
       <path d="M 50.34375 8.453125 
L 50.34375 0 
L 3.03125 0 
Q 2.9375 3.171875 4.046875 6.109375 
Q 5.859375 10.9375 9.828125 15.625 
Q 13.8125 20.3125 21.34375 26.46875 
Q 33.015625 36.03125 37.109375 41.625 
Q 41.21875 47.21875 41.21875 52.203125 
Q 41.21875 57.421875 37.46875 61 
Q 33.734375 64.59375 27.734375 64.59375 
Q 21.390625 64.59375 17.578125 60.78125 
Q 13.765625 56.984375 13.71875 50.25 
L 4.6875 51.171875 
Q 5.609375 61.28125 11.65625 66.578125 
Q 17.71875 71.875 27.9375 71.875 
Q 38.234375 71.875 44.234375 66.15625 
Q 50.25 60.453125 50.25 52 
Q 50.25 47.703125 48.484375 43.546875 
Q 46.734375 39.40625 42.65625 34.8125 
Q 38.578125 30.21875 29.109375 22.21875 
Q 21.1875 15.578125 18.9375 13.203125 
Q 16.703125 10.84375 15.234375 8.453125 
z
" id="ArialMT-32"/>
      </defs>
      <g style="fill:#262626;" transform="translate(49.214986 190.117812)scale(0.1 -0.1)">
       <use xlink:href="#ArialMT-32"/>
      </g>
     </g>
    </g>
    <g id="xtick_2">
     <g id="line2d_2">
      <g>
       <use style="fill:#262626;stroke:#262626;stroke-width:0.8;" x="80.857273" xlink:href="#m854a60ba01" y="175.96"/>
      </g>
     </g>
     <g id="text_2">
      <!-- 4 -->
      <defs>
       <path d="M 32.328125 0 
L 32.328125 17.140625 
L 1.265625 17.140625 
L 1.265625 25.203125 
L 33.9375 71.578125 
L 41.109375 71.578125 
L 41.109375 25.203125 
L 50.78125 25.203125 
L 50.78125 17.140625 
L 41.109375 17.140625 
L 41.109375 0 
z
M 32.328125 25.203125 
L 32.328125 57.46875 
L 9.90625 25.203125 
z
" id="ArialMT-34"/>
      </defs>
      <g style="fill:#262626;" transform="translate(78.076804 190.117812)scale(0.1 -0.1)">
       <use xlink:href="#ArialMT-34"/>
      </g>
     </g>
    </g>
    <g id="xtick_3">
     <g id="line2d_3">
      <g>
       <use style="fill:#262626;stroke:#262626;stroke-width:0.8;" x="109.719091" xlink:href="#m854a60ba01" y="175.96"/>
      </g>
     </g>
     <g id="text_3">
      <!-- 6 -->
      <defs>
       <path d="M 49.75 54.046875 
L 41.015625 53.375 
Q 39.84375 58.546875 37.703125 60.890625 
Q 34.125 64.65625 28.90625 64.65625 
Q 24.703125 64.65625 21.53125 62.3125 
Q 17.390625 59.28125 14.984375 53.46875 
Q 12.59375 47.65625 12.5 36.921875 
Q 15.671875 41.75 20.265625 44.09375 
Q 24.859375 46.4375 29.890625 46.4375 
Q 38.671875 46.4375 44.84375 39.96875 
Q 51.03125 33.5 51.03125 23.25 
Q 51.03125 16.5 48.125 10.71875 
Q 45.21875 4.9375 40.140625 1.859375 
Q 35.0625 -1.21875 28.609375 -1.21875 
Q 17.625 -1.21875 10.6875 6.859375 
Q 3.765625 14.9375 3.765625 33.5 
Q 3.765625 54.25 11.421875 63.671875 
Q 18.109375 71.875 29.4375 71.875 
Q 37.890625 71.875 43.28125 67.140625 
Q 48.6875 62.40625 49.75 54.046875 
z
M 13.875 23.1875 
Q 13.875 18.65625 15.796875 14.5 
Q 17.71875 10.359375 21.1875 8.171875 
Q 24.65625 6 28.46875 6 
Q 34.03125 6 38.03125 10.484375 
Q 42.046875 14.984375 42.046875 22.703125 
Q 42.046875 30.125 38.078125 34.390625 
Q 34.125 38.671875 28.125 38.671875 
Q 22.171875 38.671875 18.015625 34.390625 
Q 13.875 30.125 13.875 23.1875 
z
" id="ArialMT-36"/>
      </defs>
      <g style="fill:#262626;" transform="translate(106.938622 190.117812)scale(0.1 -0.1)">
       <use xlink:href="#ArialMT-36"/>
      </g>
     </g>
    </g>
    <g id="xtick_4">
     <g id="line2d_4">
      <g>
       <use style="fill:#262626;stroke:#262626;stroke-width:0.8;" x="138.580909" xlink:href="#m854a60ba01" y="175.96"/>
      </g>
     </g>
     <g id="text_4">
      <!-- 8 -->
      <defs>
       <path d="M 17.671875 38.8125 
Q 12.203125 40.828125 9.5625 44.53125 
Q 6.9375 48.25 6.9375 53.421875 
Q 6.9375 61.234375 12.546875 66.546875 
Q 18.171875 71.875 27.484375 71.875 
Q 36.859375 71.875 42.578125 66.421875 
Q 48.296875 60.984375 48.296875 53.171875 
Q 48.296875 48.1875 45.671875 44.5 
Q 43.0625 40.828125 37.75 38.8125 
Q 44.34375 36.671875 47.78125 31.875 
Q 51.21875 27.09375 51.21875 20.453125 
Q 51.21875 11.28125 44.71875 5.03125 
Q 38.234375 -1.21875 27.640625 -1.21875 
Q 17.046875 -1.21875 10.546875 5.046875 
Q 4.046875 11.328125 4.046875 20.703125 
Q 4.046875 27.6875 7.59375 32.390625 
Q 11.140625 37.109375 17.671875 38.8125 
z
M 15.921875 53.71875 
Q 15.921875 48.640625 19.1875 45.40625 
Q 22.46875 42.1875 27.6875 42.1875 
Q 32.765625 42.1875 36.015625 45.375 
Q 39.265625 48.578125 39.265625 53.21875 
Q 39.265625 58.0625 35.90625 61.359375 
Q 32.5625 64.65625 27.59375 64.65625 
Q 22.5625 64.65625 19.234375 61.421875 
Q 15.921875 58.203125 15.921875 53.71875 
z
M 13.09375 20.65625 
Q 13.09375 16.890625 14.875 13.375 
Q 16.65625 9.859375 20.171875 7.921875 
Q 23.6875 6 27.734375 6 
Q 34.03125 6 38.125 10.046875 
Q 42.234375 14.109375 42.234375 20.359375 
Q 42.234375 26.703125 38.015625 30.859375 
Q 33.796875 35.015625 27.4375 35.015625 
Q 21.234375 35.015625 17.15625 30.90625 
Q 13.09375 26.8125 13.09375 20.65625 
z
" id="ArialMT-38"/>
      </defs>
      <g style="fill:#262626;" transform="translate(135.80044 190.117812)scale(0.1 -0.1)">
       <use xlink:href="#ArialMT-38"/>
      </g>
     </g>
    </g>
    <g id="xtick_5">
     <g id="line2d_5">
      <g>
       <use style="fill:#262626;stroke:#262626;stroke-width:0.8;" x="167.442727" xlink:href="#m854a60ba01" y="175.96"/>
      </g>
     </g>
     <g id="text_5">
      <!-- 10 -->
      <defs>
       <path d="M 37.25 0 
L 28.46875 0 
L 28.46875 56 
Q 25.296875 52.984375 20.140625 49.953125 
Q 14.984375 46.921875 10.890625 45.40625 
L 10.890625 53.90625 
Q 18.265625 57.375 23.78125 62.296875 
Q 29.296875 67.234375 31.59375 71.875 
L 37.25 71.875 
z
" id="ArialMT-31"/>
       <path d="M 4.15625 35.296875 
Q 4.15625 48 6.765625 55.734375 
Q 9.375 63.484375 14.515625 67.671875 
Q 19.671875 71.875 27.484375 71.875 
Q 33.25 71.875 37.59375 69.546875 
Q 41.9375 67.234375 44.765625 62.859375 
Q 47.609375 58.5 49.21875 52.21875 
Q 50.828125 45.953125 50.828125 35.296875 
Q 50.828125 22.703125 48.234375 14.96875 
Q 45.65625 7.234375 40.5 3 
Q 35.359375 -1.21875 27.484375 -1.21875 
Q 17.140625 -1.21875 11.234375 6.203125 
Q 4.15625 15.140625 4.15625 35.296875 
z
M 13.1875 35.296875 
Q 13.1875 17.671875 17.3125 11.828125 
Q 21.4375 6 27.484375 6 
Q 33.546875 6 37.671875 11.859375 
Q 41.796875 17.71875 41.796875 35.296875 
Q 41.796875 52.984375 37.671875 58.78125 
Q 33.546875 64.59375 27.390625 64.59375 
Q 21.34375 64.59375 17.71875 59.46875 
Q 13.1875 52.9375 13.1875 35.296875 
z
" id="ArialMT-30"/>
      </defs>
      <g style="fill:#262626;" transform="translate(161.88179 190.117812)scale(0.1 -0.1)">
       <use xlink:href="#ArialMT-31"/>
       <use x="55.615234" xlink:href="#ArialMT-30"/>
      </g>
     </g>
    </g>
    <g id="xtick_6">
     <g id="line2d_6">
      <g>
       <use style="fill:#262626;stroke:#262626;stroke-width:0.8;" x="196.304545" xlink:href="#m854a60ba01" y="175.96"/>
      </g>
     </g>
     <g id="text_6">
      <!-- 12 -->
      <g style="fill:#262626;" transform="translate(190.743608 190.117812)scale(0.1 -0.1)">
       <use xlink:href="#ArialMT-31"/>
       <use x="55.615234" xlink:href="#ArialMT-32"/>
      </g>
     </g>
    </g>
    <g id="text_7">
     <!-- pH -->
     <defs>
      <path d="M 6.59375 -19.875 
L 6.59375 51.859375 
L 14.59375 51.859375 
L 14.59375 45.125 
Q 17.4375 49.078125 21 51.046875 
Q 24.5625 53.03125 29.640625 53.03125 
Q 36.28125 53.03125 41.359375 49.609375 
Q 46.4375 46.1875 49.015625 39.953125 
Q 51.609375 33.734375 51.609375 26.3125 
Q 51.609375 18.359375 48.75 11.984375 
Q 45.90625 5.609375 40.453125 2.21875 
Q 35.015625 -1.171875 29 -1.171875 
Q 24.609375 -1.171875 21.109375 0.6875 
Q 17.625 2.546875 15.375 5.375 
L 15.375 -19.875 
z
M 14.546875 25.640625 
Q 14.546875 15.625 18.59375 10.84375 
Q 22.65625 6.0625 28.421875 6.0625 
Q 34.28125 6.0625 38.453125 11.015625 
Q 42.625 15.96875 42.625 26.375 
Q 42.625 36.28125 38.546875 41.203125 
Q 34.46875 46.140625 28.8125 46.140625 
Q 23.1875 46.140625 18.859375 40.890625 
Q 14.546875 35.640625 14.546875 25.640625 
z
" id="ArialMT-70"/>
      <path d="M 8.015625 0 
L 8.015625 71.578125 
L 17.484375 71.578125 
L 17.484375 42.1875 
L 54.6875 42.1875 
L 54.6875 71.578125 
L 64.15625 71.578125 
L 64.15625 0 
L 54.6875 0 
L 54.6875 33.734375 
L 17.484375 33.734375 
L 17.484375 0 
z
" id="ArialMT-48"/>
     </defs>
     <g style="fill:#262626;" transform="translate(117.758594 203.263125)scale(0.1 -0.1)">
      <use xlink:href="#ArialMT-70"/>
      <use x="55.615234" xlink:href="#ArialMT-48"/>
     </g>
    </g>
   </g>
   <g id="matplotlib.axis_2">
    <g id="ytick_1">
     <g id="line2d_7">
      <defs>
       <path d="M 0 0 
L -3.5 0 
" id="m81ecf36864" style="stroke:#262626;stroke-width:0.8;"/>
      </defs>
      <g>
       <use style="fill:#262626;stroke:#262626;stroke-width:0.8;" x="44.78" xlink:href="#m81ecf36864" y="175.842258"/>
      </g>
     </g>
     <g id="text_8">
      <!-- −1 -->
      <defs>
       <path d="M 52.828125 31.203125 
L 5.5625 31.203125 
L 5.5625 39.40625 
L 52.828125 39.40625 
z
" id="ArialMT-2212"/>
      </defs>
      <g style="fill:#262626;" transform="translate(26.378438 179.421165)scale(0.1 -0.1)">
       <use xlink:href="#ArialMT-2212"/>
       <use x="58.398438" xlink:href="#ArialMT-31"/>
      </g>
     </g>
    </g>
    <g id="ytick_2">
     <g id="line2d_8">
      <g>
       <use style="fill:#262626;stroke:#262626;stroke-width:0.8;" x="44.78" xlink:href="#m81ecf36864" y="137.061631"/>
      </g>
     </g>
     <g id="text_9">
      <!-- 0 -->
      <g style="fill:#262626;" transform="translate(32.219063 140.640538)scale(0.1 -0.1)">
       <use xlink:href="#ArialMT-30"/>
      </g>
     </g>
    </g>
    <g id="ytick_3">
     <g id="line2d_9">
      <g>
       <use style="fill:#262626;stroke:#262626;stroke-width:0.8;" x="44.78" xlink:href="#m81ecf36864" y="98.281004"/>
      </g>
     </g>
     <g id="text_10">
      <!-- 1 -->
      <g style="fill:#262626;" transform="translate(32.219063 101.859911)scale(0.1 -0.1)">
       <use xlink:href="#ArialMT-31"/>
      </g>
     </g>
    </g>
    <g id="ytick_4">
     <g id="line2d_10">
      <g>
       <use style="fill:#262626;stroke:#262626;stroke-width:0.8;" x="44.78" xlink:href="#m81ecf36864" y="59.500377"/>
      </g>
     </g>
     <g id="text_11">
      <!-- 2 -->
      <g style="fill:#262626;" transform="translate(32.219063 63.079284)scale(0.1 -0.1)">
       <use xlink:href="#ArialMT-32"/>
      </g>
     </g>
    </g>
    <g id="text_12">
     <!-- $\langle q_\mathsf{total} \rangle$ -->
     <defs>
      <path d="M 8.9375 31.34375 
L 22.703125 75.875 
L 31 75.875 
L 17.234375 31.34375 
L 31 -13.1875 
L 22.703125 -13.1875 
z
" id="DejaVuSans-27e8"/>
      <path d="M 41.703125 8.203125 
Q 38.09375 3.46875 33.171875 1.015625 
Q 28.265625 -1.421875 22.3125 -1.421875 
Q 14.015625 -1.421875 9.296875 4.171875 
Q 4.59375 9.765625 4.59375 19.578125 
Q 4.59375 27.484375 7.5 34.859375 
Q 10.40625 42.234375 15.828125 48.09375 
Q 19.34375 51.90625 23.90625 53.953125 
Q 28.46875 56 33.5 56 
Q 39.546875 56 43.453125 53.609375 
Q 47.359375 51.21875 49.125 46.390625 
L 50.6875 54.59375 
L 59.71875 54.59375 
L 45.125 -20.609375 
L 36.078125 -20.609375 
z
M 13.921875 20.90625 
Q 13.921875 13.671875 16.9375 9.890625 
Q 19.96875 6.109375 25.6875 6.109375 
Q 34.1875 6.109375 40.1875 14.234375 
Q 46.1875 22.359375 46.1875 33.984375 
Q 46.1875 41.015625 43.078125 44.75 
Q 39.984375 48.484375 34.1875 48.484375 
Q 29.9375 48.484375 26.3125 46.5 
Q 22.703125 44.53125 20.015625 40.71875 
Q 17.1875 36.71875 15.546875 31.34375 
Q 13.921875 25.984375 13.921875 20.90625 
z
" id="DejaVuSans-Oblique-71"/>
      <path d="M 18.3125 70.21875 
L 18.3125 54.6875 
L 36.8125 54.6875 
L 36.8125 47.703125 
L 18.3125 47.703125 
L 18.3125 18.015625 
Q 18.3125 11.328125 20.140625 9.421875 
Q 21.96875 7.515625 27.59375 7.515625 
L 36.8125 7.515625 
L 36.8125 0 
L 27.59375 0 
Q 17.1875 0 13.234375 3.875 
Q 9.28125 7.765625 9.28125 18.015625 
L 9.28125 47.703125 
L 2.6875 47.703125 
L 2.6875 54.6875 
L 9.28125 54.6875 
L 9.28125 70.21875 
z
" id="DejaVuSans-74"/>
      <path d="M 30.609375 48.390625 
Q 23.390625 48.390625 19.1875 42.75 
Q 14.984375 37.109375 14.984375 27.296875 
Q 14.984375 17.484375 19.15625 11.84375 
Q 23.34375 6.203125 30.609375 6.203125 
Q 37.796875 6.203125 41.984375 11.859375 
Q 46.1875 17.53125 46.1875 27.296875 
Q 46.1875 37.015625 41.984375 42.703125 
Q 37.796875 48.390625 30.609375 48.390625 
z
M 30.609375 56 
Q 42.328125 56 49.015625 48.375 
Q 55.71875 40.765625 55.71875 27.296875 
Q 55.71875 13.875 49.015625 6.21875 
Q 42.328125 -1.421875 30.609375 -1.421875 
Q 18.84375 -1.421875 12.171875 6.21875 
Q 5.515625 13.875 5.515625 27.296875 
Q 5.515625 40.765625 12.171875 48.375 
Q 18.84375 56 30.609375 56 
z
" id="DejaVuSans-6f"/>
      <path d="M 34.28125 27.484375 
Q 23.390625 27.484375 19.1875 25 
Q 14.984375 22.515625 14.984375 16.5 
Q 14.984375 11.71875 18.140625 8.90625 
Q 21.296875 6.109375 26.703125 6.109375 
Q 34.1875 6.109375 38.703125 11.40625 
Q 43.21875 16.703125 43.21875 25.484375 
L 43.21875 27.484375 
z
M 52.203125 31.203125 
L 52.203125 0 
L 43.21875 0 
L 43.21875 8.296875 
Q 40.140625 3.328125 35.546875 0.953125 
Q 30.953125 -1.421875 24.3125 -1.421875 
Q 15.921875 -1.421875 10.953125 3.296875 
Q 6 8.015625 6 15.921875 
Q 6 25.140625 12.171875 29.828125 
Q 18.359375 34.515625 30.609375 34.515625 
L 43.21875 34.515625 
L 43.21875 35.40625 
Q 43.21875 41.609375 39.140625 45 
Q 35.0625 48.390625 27.6875 48.390625 
Q 23 48.390625 18.546875 47.265625 
Q 14.109375 46.140625 10.015625 43.890625 
L 10.015625 52.203125 
Q 14.9375 54.109375 19.578125 55.046875 
Q 24.21875 56 28.609375 56 
Q 40.484375 56 46.34375 49.84375 
Q 52.203125 43.703125 52.203125 31.203125 
z
" id="DejaVuSans-61"/>
      <path d="M 9.421875 75.984375 
L 18.40625 75.984375 
L 18.40625 0 
L 9.421875 0 
z
" id="DejaVuSans-6c"/>
      <path d="M 30.078125 31.34375 
L 16.3125 -13.1875 
L 8.015625 -13.1875 
L 21.78125 31.34375 
L 8.015625 75.875 
L 16.3125 75.875 
z
" id="DejaVuSans-27e9"/>
     </defs>
     <g style="fill:#262626;" transform="translate(20.278438 115.95)rotate(-90)scale(0.1 -0.1)">
      <use transform="translate(0 0.125)" xlink:href="#DejaVuSans-27e8"/>
      <use transform="translate(39.013672 0.125)" xlink:href="#DejaVuSans-Oblique-71"/>
      <use transform="translate(102.490234 -16.28125)scale(0.7)" xlink:href="#DejaVuSans-74"/>
      <use transform="translate(129.936523 -16.28125)scale(0.7)" xlink:href="#DejaVuSans-6f"/>
      <use transform="translate(172.763672 -16.28125)scale(0.7)" xlink:href="#DejaVuSans-74"/>
      <use transform="translate(200.209961 -16.28125)scale(0.7)" xlink:href="#DejaVuSans-61"/>
      <use transform="translate(243.105469 -16.28125)scale(0.7)" xlink:href="#DejaVuSans-6c"/>
      <use transform="translate(265.288086 0.125)" xlink:href="#DejaVuSans-27e9"/>
     </g>
    </g>
   </g>
   <g id="PolyCollection_1">
    <defs>
     <path d="M 51.995455 -178.764932 
L 51.995455 -131.86848 
L 53.438545 -130.294879 
L 54.881636 -128.597837 
L 56.324727 -126.772359 
L 57.767818 -124.8117 
L 59.210909 -122.706986 
L 60.654 -120.446922 
L 62.097091 -118.017506 
L 63.540182 -115.401824 
L 64.983273 -112.580216 
L 66.426364 -109.531354 
L 67.869455 -106.23483 
L 69.312545 -102.675549 
L 70.755636 -98.849768 
L 72.198727 -94.772013 
L 73.641818 -90.481468 
L 75.084909 -86.045831 
L 76.528 -81.56055 
L 77.971091 -77.142172 
L 79.414182 -72.916283 
L 80.857273 -69.002552 
L 82.300364 -65.500583 
L 83.743455 -62.479985 
L 85.186545 -59.976442 
L 86.629636 -57.993524 
L 88.072727 -56.508587 
L 89.515818 -55.480618 
L 90.958909 -54.858155 
L 92.402 -54.585973 
L 93.845091 -54.609888 
L 95.288182 -54.879656 
L 96.731273 -55.350429 
L 98.174364 -55.983287 
L 99.617455 -56.74526 
L 101.060545 -57.608986 
L 102.503636 -58.552039 
L 103.946727 -59.556025 
L 105.389818 -60.605613 
L 106.832909 -61.68769 
L 108.276 -62.790711 
L 109.719091 -63.904204 
L 111.162182 -65.018324 
L 112.605273 -66.123335 
L 114.048364 -67.20893 
L 115.491455 -68.263372 
L 116.934545 -69.272512 
L 118.377636 -70.218776 
L 119.820727 -71.080318 
L 121.263818 -71.830784 
L 122.706909 -72.440683 
L 124.15 -72.881744 
L 125.593091 -73.134849 
L 127.036182 -73.198751 
L 128.479273 -73.093395 
L 129.922364 -72.854351 
L 131.365455 -72.522309 
L 132.808545 -72.134402 
L 134.251636 -71.720192 
L 135.694727 -71.301243 
L 137.137818 -70.892332 
L 138.580909 -70.50302 
L 140.024 -70.139039 
L 141.467091 -69.803364 
L 142.910182 -69.496987 
L 144.353273 -69.219469 
L 145.796364 -68.969338 
L 147.239455 -68.744376 
L 148.682545 -68.541829 
L 150.125636 -68.358563 
L 151.568727 -68.191158 
L 153.011818 -68.035962 
L 154.454909 -67.889107 
L 155.898 -67.746516 
L 157.341091 -67.603888 
L 158.784182 -67.4567 
L 160.227273 -67.300206 
L 161.670364 -67.129444 
L 163.113455 -66.939224 
L 164.556545 -66.724109 
L 165.999636 -66.478362 
L 167.442727 -66.195921 
L 168.885818 -65.870442 
L 170.328909 -65.495491 
L 171.772 -65.064858 
L 173.215091 -64.572962 
L 174.658182 -64.015229 
L 176.101273 -63.388333 
L 177.544364 -62.690255 
L 178.987455 -61.920154 
L 180.430545 -61.078089 
L 181.873636 -60.164676 
L 183.316727 -59.180696 
L 184.759818 -58.126699 
L 186.202909 -57.002591 
L 187.646 -55.807226 
L 189.089091 -54.538043 
L 190.532182 -53.190799 
L 191.975273 -51.759498 
L 193.418364 -50.236583 
L 194.861455 -48.613513 
L 196.304545 -46.881818 
L 196.304545 -99.82365 
L 196.304545 -99.82365 
L 194.861455 -100.118679 
L 193.418364 -100.195868 
L 191.975273 -100.084955 
L 190.532182 -99.816432 
L 189.089091 -99.42011 
L 187.646 -98.924187 
L 186.202909 -98.354715 
L 184.759818 -97.735325 
L 183.316727 -97.087104 
L 181.873636 -96.428564 
L 180.430545 -95.775652 
L 178.987455 -95.141784 
L 177.544364 -94.537869 
L 176.101273 -93.972313 
L 174.658182 -93.45101 
L 173.215091 -92.977362 
L 171.772 -92.552392 
L 170.328909 -92.175007 
L 168.885818 -91.842409 
L 167.442727 -91.550613 
L 165.999636 -91.294955 
L 164.556545 -91.070507 
L 163.113455 -90.872332 
L 161.670364 -90.69559 
L 160.227273 -90.535557 
L 158.784182 -90.387615 
L 157.341091 -90.247254 
L 155.898 -90.110092 
L 154.454909 -89.971895 
L 153.011818 -89.828597 
L 151.568727 -89.676309 
L 150.125636 -89.51132 
L 148.682545 -89.330105 
L 147.239455 -89.129352 
L 145.796364 -88.906024 
L 144.353273 -88.657454 
L 142.910182 -88.381508 
L 141.467091 -88.076795 
L 140.024 -87.742967 
L 138.580909 -87.381114 
L 137.137818 -86.994324 
L 135.694727 -86.588462 
L 134.251636 -86.173253 
L 132.808545 -85.763673 
L 131.365455 -85.381532 
L 129.922364 -85.056697 
L 128.479273 -84.826687 
L 127.036182 -84.732672 
L 125.593091 -84.810824 
L 124.15 -85.081847 
L 122.706909 -85.545444 
L 121.263818 -86.183693 
L 119.820727 -86.969828 
L 118.377636 -87.876246 
L 116.934545 -88.878969 
L 115.491455 -89.959132 
L 114.048364 -91.102904 
L 112.605273 -92.300832 
L 111.162182 -93.547063 
L 109.719091 -94.838655 
L 108.276 -96.175078 
L 106.832909 -97.557974 
L 105.389818 -98.991165 
L 103.946727 -100.480841 
L 102.503636 -102.035814 
L 101.060545 -103.667718 
L 99.617455 -105.391116 
L 98.174364 -107.223539 
L 96.731273 -109.185564 
L 95.288182 -111.300952 
L 93.845091 -113.596727 
L 92.402 -116.102859 
L 90.958909 -118.851243 
L 89.515818 -121.873752 
L 88.072727 -125.199237 
L 86.629636 -128.849381 
L 85.186545 -132.833321 
L 83.743455 -137.141213 
L 82.300364 -141.737657 
L 80.857273 -146.556749 
L 79.414182 -151.501073 
L 77.971091 -156.446493 
L 76.528 -161.25312 
L 75.084909 -165.780638 
L 73.641818 -169.904411 
L 72.198727 -173.528419 
L 70.755636 -176.592347 
L 69.312545 -179.072314 
L 67.869455 -180.976563 
L 66.426364 -182.338352 
L 64.983273 -183.208142 
L 63.540182 -183.646483 
L 62.097091 -183.718182 
L 60.654 -183.487817 
L 59.210909 -183.016496 
L 57.767818 -182.359808 
L 56.324727 -181.566855 
L 54.881636 -180.680138 
L 53.438545 -179.735951 
L 51.995455 -178.764932 
z
" id="m3843d06c04" style="stroke:#ffffff;stroke-opacity:0.05;"/>
    </defs>
    <g clip-path="url(#pc025598843)">
     <use style="fill:#12711c;fill-opacity:0.05;stroke:#ffffff;stroke-opacity:0.05;" x="0" xlink:href="#m3843d06c04" y="216"/>
    </g>
   </g>
   <g id="line2d_11">
    <path clip-path="url(#pc025598843)" d="M 51.995455 60.683294 
L 53.438545 60.984585 
L 54.881636 61.361012 
L 56.324727 61.830393 
L 57.767818 62.414246 
L 59.210909 63.138259 
L 60.654 64.032631 
L 62.097091 65.132156 
L 63.540182 66.475847 
L 64.983273 68.105821 
L 66.426364 70.065147 
L 67.869455 72.394304 
L 69.312545 75.126068 
L 70.755636 78.278942 
L 72.198727 81.849784 
L 73.641818 85.807061 
L 75.084909 90.086766 
L 76.528 94.593165 
L 77.971091 99.205667 
L 79.414182 103.791322 
L 80.857273 108.22035 
L 82.300364 112.38088 
L 83.743455 116.189401 
L 85.186545 119.595119 
L 86.629636 122.578548 
L 88.072727 125.146088 
L 89.515818 127.322815 
L 90.958909 129.145301 
L 92.402 130.655584 
L 93.845091 131.896692 
L 95.288182 132.909696 
L 96.731273 133.732004 
L 98.174364 134.396587 
L 99.617455 134.931812 
L 101.060545 135.361648 
L 102.503636 135.706073 
L 103.946727 135.981567 
L 105.389818 136.201611 
L 106.832909 136.377168 
L 108.276 136.517105 
L 109.719091 136.628571 
L 111.162182 136.717307 
L 112.605273 136.787917 
L 114.048364 136.844083 
L 115.491455 136.888748 
L 116.934545 136.92426 
L 118.377636 136.952489 
L 119.820727 136.974927 
L 121.263818 136.992762 
L 122.706909 137.006937 
L 124.15 137.018205 
L 125.593091 137.027163 
L 127.036182 137.034288 
L 128.479273 137.039959 
L 129.922364 137.044476 
L 131.365455 137.04808 
L 132.808545 137.050963 
L 134.251636 137.053277 
L 135.694727 137.055147 
L 137.137818 137.056672 
L 138.580909 137.057933 
L 140.024 137.058997 
L 141.467091 137.05992 
L 142.910182 137.060753 
L 144.353273 137.061538 
L 145.796364 137.062319 
L 147.239455 137.063136 
L 148.682545 137.064033 
L 150.125636 137.065059 
L 151.568727 137.066266 
L 153.011818 137.067721 
L 154.454909 137.069499 
L 155.898 137.071696 
L 157.341091 137.074429 
L 158.784182 137.077843 
L 160.227273 137.082118 
L 161.670364 137.087483 
L 163.113455 137.094222 
L 164.556545 137.102692 
L 165.999636 137.113341 
L 167.442727 137.126733 
L 168.885818 137.143575 
L 170.328909 137.164751 
L 171.772 137.191375 
L 173.215091 137.224838 
L 174.658182 137.26688 
L 176.101273 137.319677 
L 177.544364 137.385938 
L 178.987455 137.469031 
L 180.430545 137.573129 
L 181.873636 137.70338 
L 183.316727 137.8661 
L 184.759818 138.068988 
L 186.202909 138.321347 
L 187.646 138.634293 
L 189.089091 139.020924 
L 190.532182 139.496384 
L 191.975273 140.077774 
L 193.418364 140.783774 
L 194.861455 141.633904 
L 196.304545 142.647266 
" style="fill:none;opacity:0.9;stroke:#12711c;stroke-linecap:round;stroke-width:1.5;"/>
   </g>
   <g id="line2d_12">
    <path clip-path="url(#pc025598843)" d="M 51.995455 98.301346 
L 53.438545 98.30661 
L 54.881636 98.313234 
L 56.324727 98.32157 
L 57.767818 98.33206 
L 59.210909 98.345258 
L 60.654 98.36186 
L 62.097091 98.38274 
L 63.540182 98.408995 
L 64.983273 98.441998 
L 66.426364 98.483465 
L 67.869455 98.535544 
L 69.312545 98.600907 
L 70.755636 98.682879 
L 72.198727 98.785581 
L 73.641818 98.914096 
L 75.084909 99.074665 
L 76.528 99.274897 
L 77.971091 99.523992 
L 79.414182 99.832954 
L 80.857273 100.214756 
L 82.300364 100.684423 
L 83.743455 101.258942 
L 85.186545 101.956919 
L 86.629636 102.79785 
L 88.072727 103.80091 
L 89.515818 104.983149 
L 90.958909 106.357115 
L 92.402 107.928042 
L 93.845091 109.690988 
L 95.288182 111.628501 
L 96.731273 113.709563 
L 98.174364 115.890437 
L 99.617455 118.117717 
L 101.060545 120.333274 
L 102.503636 122.480184 
L 103.946727 124.508407 
L 105.389818 126.379052 
L 106.832909 128.066543 
L 108.276 129.558647 
L 109.719091 130.854819 
L 111.162182 131.963569 
L 112.605273 132.899565 
L 114.048364 133.680962 
L 115.491455 134.327244 
L 116.934545 134.857669 
L 118.377636 135.290257 
L 119.820727 135.641235 
L 121.263818 135.924807 
L 122.706909 136.153142 
L 124.15 136.336499 
L 125.593091 136.483414 
L 127.036182 136.600925 
L 128.479273 136.694783 
L 129.922364 136.769665 
L 131.365455 136.829355 
L 132.808545 136.8769 
L 134.251636 136.91475 
L 135.694727 136.944868 
L 137.137818 136.968826 
L 138.580909 136.987877 
L 140.024 137.003023 
L 141.467091 137.015063 
L 142.910182 137.024631 
L 144.353273 137.032236 
L 145.796364 137.038278 
L 147.239455 137.043079 
L 148.682545 137.046893 
L 150.125636 137.049923 
L 151.568727 137.052331 
L 153.011818 137.054243 
L 154.454909 137.055763 
L 155.898 137.056969 
L 157.341091 137.057928 
L 158.784182 137.05869 
L 160.227273 137.059295 
L 161.670364 137.059775 
L 163.113455 137.060157 
L 164.556545 137.06046 
L 165.999636 137.060701 
L 167.442727 137.060892 
L 168.885818 137.061044 
L 170.328909 137.061165 
L 171.772 137.061261 
L 173.215091 137.061337 
L 174.658182 137.061398 
L 176.101273 137.061446 
L 177.544364 137.061484 
L 178.987455 137.061514 
L 180.430545 137.061538 
L 181.873636 137.061557 
L 183.316727 137.061573 
L 184.759818 137.061585 
L 186.202909 137.061594 
L 187.646 137.061602 
L 189.089091 137.061608 
L 190.532182 137.061613 
L 191.975273 137.061617 
L 193.418364 137.06162 
L 194.861455 137.061622 
L 196.304545 137.061624 
" style="fill:none;opacity:0.7;stroke:#000000;stroke-linecap:round;stroke-width:1.5;"/>
   </g>
   <g id="line2d_13">
    <path clip-path="url(#pc025598843)" d="M 51.995455 37.235068 
L 53.438545 36.264049 
L 54.881636 35.319862 
L 56.324727 34.433145 
L 57.767818 33.640192 
L 59.210909 32.983504 
L 60.654 32.512183 
L 62.097091 32.281818 
L 63.540182 32.353517 
L 64.983273 32.791858 
L 66.426364 33.661648 
L 67.869455 35.023437 
L 69.312545 36.927686 
L 70.755636 39.407653 
L 72.198727 42.471581 
L 73.641818 46.095589 
L 75.084909 50.219362 
L 76.528 54.74688 
L 77.971091 59.553507 
L 79.414182 64.498927 
L 80.857273 69.443251 
L 82.300364 74.262343 
L 83.743455 78.858787 
L 85.186545 83.166679 
L 86.629636 87.150619 
L 88.072727 90.800763 
L 89.515818 94.126248 
L 90.958909 97.148757 
L 92.402 99.897141 
L 93.845091 102.403273 
L 95.288182 104.699048 
L 96.731273 106.814436 
L 98.174364 108.776461 
L 99.617455 110.608884 
L 101.060545 112.332282 
L 102.503636 113.964186 
L 103.946727 115.519159 
L 105.389818 117.008835 
L 106.832909 118.442026 
L 108.276 119.824922 
L 109.719091 121.161345 
L 111.162182 122.452937 
L 112.605273 123.699168 
L 114.048364 124.897096 
L 115.491455 126.040868 
L 116.934545 127.121031 
L 118.377636 128.123754 
L 119.820727 129.030172 
L 121.263818 129.816307 
L 122.706909 130.454556 
L 124.15 130.918153 
L 125.593091 131.189176 
L 127.036182 131.267328 
L 128.479273 131.173313 
L 129.922364 130.943303 
L 131.365455 130.618468 
L 132.808545 130.236327 
L 134.251636 129.826747 
L 135.694727 129.411538 
L 137.137818 129.005676 
L 138.580909 128.618886 
L 140.024 128.257033 
L 141.467091 127.923205 
L 142.910182 127.618492 
L 144.353273 127.342546 
L 145.796364 127.093976 
L 147.239455 126.870648 
L 148.682545 126.669895 
L 150.125636 126.48868 
L 151.568727 126.323691 
L 153.011818 126.171403 
L 154.454909 126.028105 
L 155.898 125.889908 
L 157.341091 125.752746 
L 158.784182 125.612385 
L 160.227273 125.464443 
L 161.670364 125.30441 
L 163.113455 125.127668 
L 164.556545 124.929493 
L 165.999636 124.705045 
L 167.442727 124.449387 
L 168.885818 124.157591 
L 170.328909 123.824993 
L 171.772 123.447608 
L 173.215091 123.022638 
L 174.658182 122.54899 
L 176.101273 122.027687 
L 177.544364 121.462131 
L 178.987455 120.858216 
L 180.430545 120.224348 
L 181.873636 119.571436 
L 183.316727 118.912896 
L 184.759818 118.264675 
L 186.202909 117.645285 
L 187.646 117.075813 
L 189.089091 116.57989 
L 190.532182 116.183568 
L 191.975273 115.915045 
L 193.418364 115.804132 
L 194.861455 115.881321 
L 196.304545 116.17635 
" style="fill:none;opacity:0.45;stroke:#12711c;stroke-dasharray:2.775,1.2;stroke-dashoffset:0;stroke-width:0.75;"/>
   </g>
   <g id="line2d_14">
    <path clip-path="url(#pc025598843)" d="M 51.995455 84.13152 
L 53.438545 85.705121 
L 54.881636 87.402163 
L 56.324727 89.227641 
L 57.767818 91.1883 
L 59.210909 93.293014 
L 60.654 95.553078 
L 62.097091 97.982494 
L 63.540182 100.598176 
L 64.983273 103.419784 
L 66.426364 106.468646 
L 67.869455 109.76517 
L 69.312545 113.324451 
L 70.755636 117.150232 
L 72.198727 121.227987 
L 73.641818 125.518532 
L 75.084909 129.954169 
L 76.528 134.43945 
L 77.971091 138.857828 
L 79.414182 143.083717 
L 80.857273 146.997448 
L 82.300364 150.499417 
L 83.743455 153.520015 
L 85.186545 156.023558 
L 86.629636 158.006476 
L 88.072727 159.491413 
L 89.515818 160.519382 
L 90.958909 161.141845 
L 92.402 161.414027 
L 93.845091 161.390112 
L 95.288182 161.120344 
L 96.731273 160.649571 
L 98.174364 160.016713 
L 99.617455 159.25474 
L 101.060545 158.391014 
L 102.503636 157.447961 
L 103.946727 156.443975 
L 105.389818 155.394387 
L 106.832909 154.31231 
L 108.276 153.209289 
L 109.719091 152.095796 
L 111.162182 150.981676 
L 112.605273 149.876665 
L 114.048364 148.79107 
L 115.491455 147.736628 
L 116.934545 146.727488 
L 118.377636 145.781224 
L 119.820727 144.919682 
L 121.263818 144.169216 
L 122.706909 143.559317 
L 124.15 143.118256 
L 125.593091 142.865151 
L 127.036182 142.801249 
L 128.479273 142.906605 
L 129.922364 143.145649 
L 131.365455 143.477691 
L 132.808545 143.865598 
L 134.251636 144.279808 
L 135.694727 144.698757 
L 137.137818 145.107668 
L 138.580909 145.49698 
L 140.024 145.860961 
L 141.467091 146.196636 
L 142.910182 146.503013 
L 144.353273 146.780531 
L 145.796364 147.030662 
L 147.239455 147.255624 
L 148.682545 147.458171 
L 150.125636 147.641437 
L 151.568727 147.808842 
L 153.011818 147.964038 
L 154.454909 148.110893 
L 155.898 148.253484 
L 157.341091 148.396112 
L 158.784182 148.5433 
L 160.227273 148.699794 
L 161.670364 148.870556 
L 163.113455 149.060776 
L 164.556545 149.275891 
L 165.999636 149.521638 
L 167.442727 149.804079 
L 168.885818 150.129558 
L 170.328909 150.504509 
L 171.772 150.935142 
L 173.215091 151.427038 
L 174.658182 151.984771 
L 176.101273 152.611667 
L 177.544364 153.309745 
L 178.987455 154.079846 
L 180.430545 154.921911 
L 181.873636 155.835324 
L 183.316727 156.819304 
L 184.759818 157.873301 
L 186.202909 158.997409 
L 187.646 160.192774 
L 189.089091 161.461957 
L 190.532182 162.809201 
L 191.975273 164.240502 
L 193.418364 165.763417 
L 194.861455 167.386487 
L 196.304545 169.118182 
" style="fill:none;opacity:0.45;stroke:#12711c;stroke-dasharray:2.775,1.2;stroke-dashoffset:0;stroke-width:0.75;"/>
   </g>
   <g id="patch_3">
    <path d="M 44.78 175.96 
L 44.78 25.44 
" style="fill:none;stroke:#262626;stroke-linecap:square;stroke-linejoin:miter;stroke-width:0.8;"/>
   </g>
   <g id="patch_4">
    <path d="M 44.78 175.96 
L 203.52 175.96 
" style="fill:none;stroke:#262626;stroke-linecap:square;stroke-linejoin:miter;stroke-width:0.8;"/>
   </g>
   <g id="text_13">
    <!-- Epik-scan SM12 -->
    <defs>
     <path d="M 7.90625 0 
L 7.90625 71.578125 
L 59.671875 71.578125 
L 59.671875 63.140625 
L 17.390625 63.140625 
L 17.390625 41.21875 
L 56.984375 41.21875 
L 56.984375 32.8125 
L 17.390625 32.8125 
L 17.390625 8.453125 
L 61.328125 8.453125 
L 61.328125 0 
z
" id="ArialMT-45"/>
     <path d="M 6.640625 61.46875 
L 6.640625 71.578125 
L 15.4375 71.578125 
L 15.4375 61.46875 
z
M 6.640625 0 
L 6.640625 51.859375 
L 15.4375 51.859375 
L 15.4375 0 
z
" id="ArialMT-69"/>
     <path d="M 6.640625 0 
L 6.640625 71.578125 
L 15.4375 71.578125 
L 15.4375 30.765625 
L 36.234375 51.859375 
L 47.609375 51.859375 
L 27.78125 32.625 
L 49.609375 0 
L 38.765625 0 
L 21.625 26.515625 
L 15.4375 20.5625 
L 15.4375 0 
z
" id="ArialMT-6b"/>
     <path d="M 3.171875 21.484375 
L 3.171875 30.328125 
L 30.171875 30.328125 
L 30.171875 21.484375 
z
" id="ArialMT-2d"/>
     <path d="M 3.078125 15.484375 
L 11.765625 16.84375 
Q 12.5 11.625 15.84375 8.84375 
Q 19.1875 6.0625 25.203125 6.0625 
Q 31.25 6.0625 34.171875 8.515625 
Q 37.109375 10.984375 37.109375 14.3125 
Q 37.109375 17.28125 34.515625 19 
Q 32.71875 20.171875 25.53125 21.96875 
Q 15.875 24.421875 12.140625 26.203125 
Q 8.40625 27.984375 6.46875 31.125 
Q 4.546875 34.28125 4.546875 38.09375 
Q 4.546875 41.546875 6.125 44.5 
Q 7.71875 47.46875 10.453125 49.421875 
Q 12.5 50.921875 16.03125 51.96875 
Q 19.578125 53.03125 23.640625 53.03125 
Q 29.734375 53.03125 34.34375 51.265625 
Q 38.96875 49.515625 41.15625 46.5 
Q 43.359375 43.5 44.1875 38.484375 
L 35.59375 37.3125 
Q 35.015625 41.3125 32.203125 43.546875 
Q 29.390625 45.796875 24.265625 45.796875 
Q 18.21875 45.796875 15.625 43.796875 
Q 13.03125 41.796875 13.03125 39.109375 
Q 13.03125 37.40625 14.109375 36.03125 
Q 15.1875 34.625 17.484375 33.6875 
Q 18.796875 33.203125 25.25 31.453125 
Q 34.578125 28.953125 38.25 27.359375 
Q 41.9375 25.78125 44.03125 22.75 
Q 46.140625 19.734375 46.140625 15.234375 
Q 46.140625 10.84375 43.578125 6.953125 
Q 41.015625 3.078125 36.171875 0.953125 
Q 31.34375 -1.171875 25.25 -1.171875 
Q 15.140625 -1.171875 9.84375 3.03125 
Q 4.546875 7.234375 3.078125 15.484375 
z
" id="ArialMT-73"/>
     <path d="M 40.4375 19 
L 49.078125 17.875 
Q 47.65625 8.9375 41.8125 3.875 
Q 35.984375 -1.171875 27.484375 -1.171875 
Q 16.84375 -1.171875 10.375 5.78125 
Q 3.90625 12.75 3.90625 25.734375 
Q 3.90625 34.125 6.6875 40.421875 
Q 9.46875 46.734375 15.15625 49.875 
Q 20.84375 53.03125 27.546875 53.03125 
Q 35.984375 53.03125 41.359375 48.75 
Q 46.734375 44.484375 48.25 36.625 
L 39.703125 35.296875 
Q 38.484375 40.53125 35.375 43.15625 
Q 32.28125 45.796875 27.875 45.796875 
Q 21.234375 45.796875 17.078125 41.03125 
Q 12.9375 36.28125 12.9375 25.984375 
Q 12.9375 15.53125 16.9375 10.796875 
Q 20.953125 6.0625 27.390625 6.0625 
Q 32.5625 6.0625 36.03125 9.234375 
Q 39.5 12.40625 40.4375 19 
z
" id="ArialMT-63"/>
     <path d="M 40.4375 6.390625 
Q 35.546875 2.25 31.03125 0.53125 
Q 26.515625 -1.171875 21.34375 -1.171875 
Q 12.796875 -1.171875 8.203125 3 
Q 3.609375 7.171875 3.609375 13.671875 
Q 3.609375 17.484375 5.34375 20.625 
Q 7.078125 23.78125 9.890625 25.6875 
Q 12.703125 27.59375 16.21875 28.5625 
Q 18.796875 29.25 24.03125 29.890625 
Q 34.671875 31.15625 39.703125 32.90625 
Q 39.75 34.71875 39.75 35.203125 
Q 39.75 40.578125 37.25 42.78125 
Q 33.890625 45.75 27.25 45.75 
Q 21.046875 45.75 18.09375 43.578125 
Q 15.140625 41.40625 13.71875 35.890625 
L 5.125 37.0625 
Q 6.296875 42.578125 8.984375 45.96875 
Q 11.671875 49.359375 16.75 51.1875 
Q 21.828125 53.03125 28.515625 53.03125 
Q 35.15625 53.03125 39.296875 51.46875 
Q 43.453125 49.90625 45.40625 47.53125 
Q 47.359375 45.171875 48.140625 41.546875 
Q 48.578125 39.3125 48.578125 33.453125 
L 48.578125 21.734375 
Q 48.578125 9.46875 49.140625 6.21875 
Q 49.703125 2.984375 51.375 0 
L 42.1875 0 
Q 40.828125 2.734375 40.4375 6.390625 
z
M 39.703125 26.03125 
Q 34.90625 24.078125 25.34375 22.703125 
Q 19.921875 21.921875 17.671875 20.9375 
Q 15.4375 19.96875 14.203125 18.09375 
Q 12.984375 16.21875 12.984375 13.921875 
Q 12.984375 10.40625 15.640625 8.0625 
Q 18.3125 5.71875 23.4375 5.71875 
Q 28.515625 5.71875 32.46875 7.9375 
Q 36.421875 10.15625 38.28125 14.015625 
Q 39.703125 17 39.703125 22.796875 
z
" id="ArialMT-61"/>
     <path d="M 6.59375 0 
L 6.59375 51.859375 
L 14.5 51.859375 
L 14.5 44.484375 
Q 20.21875 53.03125 31 53.03125 
Q 35.6875 53.03125 39.625 51.34375 
Q 43.5625 49.65625 45.515625 46.921875 
Q 47.46875 44.1875 48.25 40.4375 
Q 48.734375 37.984375 48.734375 31.890625 
L 48.734375 0 
L 39.9375 0 
L 39.9375 31.546875 
Q 39.9375 36.921875 38.90625 39.578125 
Q 37.890625 42.234375 35.28125 43.8125 
Q 32.671875 45.40625 29.15625 45.40625 
Q 23.53125 45.40625 19.453125 41.84375 
Q 15.375 38.28125 15.375 28.328125 
L 15.375 0 
z
" id="ArialMT-6e"/>
     <path id="ArialMT-20"/>
     <path d="M 4.5 23 
L 13.421875 23.78125 
Q 14.0625 18.40625 16.375 14.96875 
Q 18.703125 11.53125 23.578125 9.40625 
Q 28.46875 7.28125 34.578125 7.28125 
Q 39.984375 7.28125 44.140625 8.890625 
Q 48.296875 10.5 50.3125 13.296875 
Q 52.34375 16.109375 52.34375 19.4375 
Q 52.34375 22.796875 50.390625 25.3125 
Q 48.4375 27.828125 43.953125 29.546875 
Q 41.0625 30.671875 31.203125 33.03125 
Q 21.34375 35.40625 17.390625 37.5 
Q 12.25 40.1875 9.734375 44.15625 
Q 7.234375 48.140625 7.234375 53.078125 
Q 7.234375 58.5 10.296875 63.203125 
Q 13.375 67.921875 19.28125 70.359375 
Q 25.203125 72.796875 32.421875 72.796875 
Q 40.375 72.796875 46.453125 70.234375 
Q 52.546875 67.671875 55.8125 62.6875 
Q 59.078125 57.71875 59.328125 51.421875 
L 50.25 50.734375 
Q 49.515625 57.515625 45.28125 60.984375 
Q 41.0625 64.453125 32.8125 64.453125 
Q 24.21875 64.453125 20.28125 61.296875 
Q 16.359375 58.15625 16.359375 53.71875 
Q 16.359375 49.859375 19.140625 47.359375 
Q 21.875 44.875 33.421875 42.265625 
Q 44.96875 39.65625 49.265625 37.703125 
Q 55.515625 34.8125 58.484375 30.390625 
Q 61.46875 25.984375 61.46875 20.21875 
Q 61.46875 14.5 58.203125 9.4375 
Q 54.9375 4.390625 48.796875 1.578125 
Q 42.671875 -1.21875 35.015625 -1.21875 
Q 25.296875 -1.21875 18.71875 1.609375 
Q 12.15625 4.4375 8.421875 10.125 
Q 4.6875 15.828125 4.5 23 
z
" id="ArialMT-53"/>
     <path d="M 7.421875 0 
L 7.421875 71.578125 
L 21.6875 71.578125 
L 38.625 20.90625 
Q 40.96875 13.8125 42.046875 10.296875 
Q 43.265625 14.203125 45.84375 21.78125 
L 62.984375 71.578125 
L 75.734375 71.578125 
L 75.734375 0 
L 66.609375 0 
L 66.609375 59.90625 
L 45.796875 0 
L 37.25 0 
L 16.546875 60.9375 
L 16.546875 0 
z
" id="ArialMT-4d"/>
    </defs>
    <g style="fill:#262626;" transform="translate(80.467188 19.44)scale(0.12 -0.12)">
     <use xlink:href="#ArialMT-45"/>
     <use x="66.699219" xlink:href="#ArialMT-70"/>
     <use x="122.314453" xlink:href="#ArialMT-69"/>
     <use x="144.53125" xlink:href="#ArialMT-6b"/>
     <use x="194.53125" xlink:href="#ArialMT-2d"/>
     <use x="227.832031" xlink:href="#ArialMT-73"/>
     <use x="277.832031" xlink:href="#ArialMT-63"/>
     <use x="327.832031" xlink:href="#ArialMT-61"/>
     <use x="383.447266" xlink:href="#ArialMT-6e"/>
     <use x="439.0625" xlink:href="#ArialMT-20"/>
     <use x="466.845703" xlink:href="#ArialMT-53"/>
     <use x="533.544922" xlink:href="#ArialMT-4d"/>
     <use x="616.845703" xlink:href="#ArialMT-31"/>
     <use x="672.460938" xlink:href="#ArialMT-32"/>
    </g>
   </g>
  </g>
 </g>
 <defs>
  <clipPath id="pc025598843">
   <rect height="150.52" width="158.74" x="44.78" y="25.44"/>
  </clipPath>
 </defs>
</svg>
