<?xml version="1.0" encoding="utf-8" standalone="no"?>
<!DOCTYPE svg PUBLIC "-//W3C//DTD SVG 1.1//EN"
  "http://www.w3.org/Graphics/SVG/1.1/DTD/svg11.dtd">
<!-- Created with matplotlib (http://matplotlib.org/) -->
<svg height="216pt" version="1.1" viewBox="0 0 216 216" width="216pt" xmlns="http://www.w3.org/2000/svg" xmlns:xlink="http://www.w3.org/1999/xlink">
 <defs>
  <style type="text/css">
*{stroke-linecap:butt;stroke-linejoin:round;}
  </style>
 </defs>
 <g id="figure_1">
  <g id="patch_1">
   <path d="M 0 216 
L 216 216 
L 216 0 
L 0 0 
z
" style="fill:#ffffff;"/>
  </g>
  <g id="axes_1">
   <g id="patch_2">
    <path d="M 38.96 175.96 
L 203.52 175.96 
L 203.52 25.44 
L 38.96 25.44 
z
" style="fill:#ffffff;"/>
   </g>
   <g id="matplotlib.axis_1">
    <g id="xtick_1">
     <g id="line2d_1">
      <defs>
       <path d="M 0 0 
L 0 3.5 
" id="m2ff8e40c03" style="stroke:#262626;stroke-width:0.8;"/>
      </defs>
      <g>
       <use style="fill:#262626;stroke:#262626;stroke-width:0.8;" x="46.44" xlink:href="#m2ff8e40c03" y="175.96"/>
      </g>
     </g>
     <g id="text_1">
      <!-- 2 -->
      <defs>
       <path d="M 50.34375 8.453125 
L 50.34375 0 
L 3.03125 0 
Q 2.9375 3.171875 4.046875 6.109375 
Q 5.859375 10.9375 9.828125 15.625 
Q 13.8125 20.3125 21.34375 26.46875 
Q 33.015625 36.03125 37.109375 41.625 
Q 41.21875 47.21875 41.21875 52.203125 
Q 41.21875 57.421875 37.46875 61 
Q 33.734375 64.59375 27.734375 64.59375 
Q 21.390625 64.59375 17.578125 60.78125 
Q 13.765625 56.984375 13.71875 50.25 
L 4.6875 51.171875 
Q 5.609375 61.28125 11.65625 66.578125 
Q 17.71875 71.875 27.9375 71.875 
Q 38.234375 71.875 44.234375 66.15625 
Q 50.25 60.453125 50.25 52 
Q 50.25 47.703125 48.484375 43.546875 
Q 46.734375 39.40625 42.65625 34.8125 
Q 38.578125 30.21875 29.109375 22.21875 
Q 21.1875 15.578125 18.9375 13.203125 
Q 16.703125 10.84375 15.234375 8.453125 
z
" id="ArialMT-32"/>
      </defs>
      <g style="fill:#262626;" transform="translate(43.659531 190.117812)scale(0.1 -0.1)">
       <use xlink:href="#ArialMT-32"/>
      </g>
     </g>
    </g>
    <g id="xtick_2">
     <g id="line2d_2">
      <g>
       <use style="fill:#262626;stroke:#262626;stroke-width:0.8;" x="76.36" xlink:href="#m2ff8e40c03" y="175.96"/>
      </g>
     </g>
     <g id="text_2">
      <!-- 4 -->
      <defs>
       <path d="M 32.328125 0 
L 32.328125 17.140625 
L 1.265625 17.140625 
L 1.265625 25.203125 
L 33.9375 71.578125 
L 41.109375 71.578125 
L 41.109375 25.203125 
L 50.78125 25.203125 
L 50.78125 17.140625 
L 41.109375 17.140625 
L 41.109375 0 
z
M 32.328125 25.203125 
L 32.328125 57.46875 
L 9.90625 25.203125 
z
" id="ArialMT-34"/>
      </defs>
      <g style="fill:#262626;" transform="translate(73.579531 190.117812)scale(0.1 -0.1)">
       <use xlink:href="#ArialMT-34"/>
      </g>
     </g>
    </g>
    <g id="xtick_3">
     <g id="line2d_3">
      <g>
       <use style="fill:#262626;stroke:#262626;stroke-width:0.8;" x="106.28" xlink:href="#m2ff8e40c03" y="175.96"/>
      </g>
     </g>
     <g id="text_3">
      <!-- 6 -->
      <defs>
       <path d="M 49.75 54.046875 
L 41.015625 53.375 
Q 39.84375 58.546875 37.703125 60.890625 
Q 34.125 64.65625 28.90625 64.65625 
Q 24.703125 64.65625 21.53125 62.3125 
Q 17.390625 59.28125 14.984375 53.46875 
Q 12.59375 47.65625 12.5 36.921875 
Q 15.671875 41.75 20.265625 44.09375 
Q 24.859375 46.4375 29.890625 46.4375 
Q 38.671875 46.4375 44.84375 39.96875 
Q 51.03125 33.5 51.03125 23.25 
Q 51.03125 16.5 48.125 10.71875 
Q 45.21875 4.9375 40.140625 1.859375 
Q 35.0625 -1.21875 28.609375 -1.21875 
Q 17.625 -1.21875 10.6875 6.859375 
Q 3.765625 14.9375 3.765625 33.5 
Q 3.765625 54.25 11.421875 63.671875 
Q 18.109375 71.875 29.4375 71.875 
Q 37.890625 71.875 43.28125 67.140625 
Q 48.6875 62.40625 49.75 54.046875 
z
M 13.875 23.1875 
Q 13.875 18.65625 15.796875 14.5 
Q 17.71875 10.359375 21.1875 8.171875 
Q 24.65625 6 28.46875 6 
Q 34.03125 6 38.03125 10.484375 
Q 42.046875 14.984375 42.046875 22.703125 
Q 42.046875 30.125 38.078125 34.390625 
Q 34.125 38.671875 28.125 38.671875 
Q 22.171875 38.671875 18.015625 34.390625 
Q 13.875 30.125 13.875 23.1875 
z
" id="ArialMT-36"/>
      </defs>
      <g style="fill:#262626;" transform="translate(103.499531 190.117812)scale(0.1 -0.1)">
       <use xlink:href="#ArialMT-36"/>
      </g>
     </g>
    </g>
    <g id="xtick_4">
     <g id="line2d_4">
      <g>
       <use style="fill:#262626;stroke:#262626;stroke-width:0.8;" x="136.2" xlink:href="#m2ff8e40c03" y="175.96"/>
      </g>
     </g>
     <g id="text_4">
      <!-- 8 -->
      <defs>
       <path d="M 17.671875 38.8125 
Q 12.203125 40.828125 9.5625 44.53125 
Q 6.9375 48.25 6.9375 53.421875 
Q 6.9375 61.234375 12.546875 66.546875 
Q 18.171875 71.875 27.484375 71.875 
Q 36.859375 71.875 42.578125 66.421875 
Q 48.296875 60.984375 48.296875 53.171875 
Q 48.296875 48.1875 45.671875 44.5 
Q 43.0625 40.828125 37.75 38.8125 
Q 44.34375 36.671875 47.78125 31.875 
Q 51.21875 27.09375 51.21875 20.453125 
Q 51.21875 11.28125 44.71875 5.03125 
Q 38.234375 -1.21875 27.640625 -1.21875 
Q 17.046875 -1.21875 10.546875 5.046875 
Q 4.046875 11.328125 4.046875 20.703125 
Q 4.046875 27.6875 7.59375 32.390625 
Q 11.140625 37.109375 17.671875 38.8125 
z
M 15.921875 53.71875 
Q 15.921875 48.640625 19.1875 45.40625 
Q 22.46875 42.1875 27.6875 42.1875 
Q 32.765625 42.1875 36.015625 45.375 
Q 39.265625 48.578125 39.265625 53.21875 
Q 39.265625 58.0625 35.90625 61.359375 
Q 32.5625 64.65625 27.59375 64.65625 
Q 22.5625 64.65625 19.234375 61.421875 
Q 15.921875 58.203125 15.921875 53.71875 
z
M 13.09375 20.65625 
Q 13.09375 16.890625 14.875 13.375 
Q 16.65625 9.859375 20.171875 7.921875 
Q 23.6875 6 27.734375 6 
Q 34.03125 6 38.125 10.046875 
Q 42.234375 14.109375 42.234375 20.359375 
Q 42.234375 26.703125 38.015625 30.859375 
Q 33.796875 35.015625 27.4375 35.015625 
Q 21.234375 35.015625 17.15625 30.90625 
Q 13.09375 26.8125 13.09375 20.65625 
z
" id="ArialMT-38"/>
      </defs>
      <g style="fill:#262626;" transform="translate(133.419531 190.117812)scale(0.1 -0.1)">
       <use xlink:href="#ArialMT-38"/>
      </g>
     </g>
    </g>
    <g id="xtick_5">
     <g id="line2d_5">
      <g>
       <use style="fill:#262626;stroke:#262626;stroke-width:0.8;" x="166.12" xlink:href="#m2ff8e40c03" y="175.96"/>
      </g>
     </g>
     <g id="text_5">
      <!-- 10 -->
      <defs>
       <path d="M 37.25 0 
L 28.46875 0 
L 28.46875 56 
Q 25.296875 52.984375 20.140625 49.953125 
Q 14.984375 46.921875 10.890625 45.40625 
L 10.890625 53.90625 
Q 18.265625 57.375 23.78125 62.296875 
Q 29.296875 67.234375 31.59375 71.875 
L 37.25 71.875 
z
" id="ArialMT-31"/>
       <path d="M 4.15625 35.296875 
Q 4.15625 48 6.765625 55.734375 
Q 9.375 63.484375 14.515625 67.671875 
Q 19.671875 71.875 27.484375 71.875 
Q 33.25 71.875 37.59375 69.546875 
Q 41.9375 67.234375 44.765625 62.859375 
Q 47.609375 58.5 49.21875 52.21875 
Q 50.828125 45.953125 50.828125 35.296875 
Q 50.828125 22.703125 48.234375 14.96875 
Q 45.65625 7.234375 40.5 3 
Q 35.359375 -1.21875 27.484375 -1.21875 
Q 17.140625 -1.21875 11.234375 6.203125 
Q 4.15625 15.140625 4.15625 35.296875 
z
M 13.1875 35.296875 
Q 13.1875 17.671875 17.3125 11.828125 
Q 21.4375 6 27.484375 6 
Q 33.546875 6 37.671875 11.859375 
Q 41.796875 17.71875 41.796875 35.296875 
Q 41.796875 52.984375 37.671875 58.78125 
Q 33.546875 64.59375 27.390625 64.59375 
Q 21.34375 64.59375 17.71875 59.46875 
Q 13.1875 52.9375 13.1875 35.296875 
z
" id="ArialMT-30"/>
      </defs>
      <g style="fill:#262626;" transform="translate(160.559062 190.117812)scale(0.1 -0.1)">
       <use xlink:href="#ArialMT-31"/>
       <use x="55.615234" xlink:href="#ArialMT-30"/>
      </g>
     </g>
    </g>
    <g id="xtick_6">
     <g id="line2d_6">
      <g>
       <use style="fill:#262626;stroke:#262626;stroke-width:0.8;" x="196.04" xlink:href="#m2ff8e40c03" y="175.96"/>
      </g>
     </g>
     <g id="text_6">
      <!-- 12 -->
      <g style="fill:#262626;" transform="translate(190.479062 190.117812)scale(0.1 -0.1)">
       <use xlink:href="#ArialMT-31"/>
       <use x="55.615234" xlink:href="#ArialMT-32"/>
      </g>
     </g>
    </g>
    <g id="text_7">
     <!-- pH -->
     <defs>
      <path d="M 6.59375 -19.875 
L 6.59375 51.859375 
L 14.59375 51.859375 
L 14.59375 45.125 
Q 17.4375 49.078125 21 51.046875 
Q 24.5625 53.03125 29.640625 53.03125 
Q 36.28125 53.03125 41.359375 49.609375 
Q 46.4375 46.1875 49.015625 39.953125 
Q 51.609375 33.734375 51.609375 26.3125 
Q 51.609375 18.359375 48.75 11.984375 
Q 45.90625 5.609375 40.453125 2.21875 
Q 35.015625 -1.171875 29 -1.171875 
Q 24.609375 -1.171875 21.109375 0.6875 
Q 17.625 2.546875 15.375 5.375 
L 15.375 -19.875 
z
M 14.546875 25.640625 
Q 14.546875 15.625 18.59375 10.84375 
Q 22.65625 6.0625 28.421875 6.0625 
Q 34.28125 6.0625 38.453125 11.015625 
Q 42.625 15.96875 42.625 26.375 
Q 42.625 36.28125 38.546875 41.203125 
Q 34.46875 46.140625 28.8125 46.140625 
Q 23.1875 46.140625 18.859375 40.890625 
Q 14.546875 35.640625 14.546875 25.640625 
z
" id="ArialMT-70"/>
      <path d="M 8.015625 0 
L 8.015625 71.578125 
L 17.484375 71.578125 
L 17.484375 42.1875 
L 54.6875 42.1875 
L 54.6875 71.578125 
L 64.15625 71.578125 
L 64.15625 0 
L 54.6875 0 
L 54.6875 33.734375 
L 17.484375 33.734375 
L 17.484375 0 
z
" id="ArialMT-48"/>
     </defs>
     <g style="fill:#262626;" transform="translate(114.848594 203.263125)scale(0.1 -0.1)">
      <use xlink:href="#ArialMT-70"/>
      <use x="55.615234" xlink:href="#ArialMT-48"/>
     </g>
    </g>
   </g>
   <g id="matplotlib.axis_2">
    <g id="ytick_1">
     <g id="line2d_7">
      <defs>
       <path d="M 0 0 
L -3.5 0 
" id="mc86152a469" style="stroke:#262626;stroke-width:0.8;"/>
      </defs>
      <g>
       <use style="fill:#262626;stroke:#262626;stroke-width:0.8;" x="38.96" xlink:href="#mc86152a469" y="142.508179"/>
      </g>
     </g>
     <g id="text_8">
      <!-- 0 -->
      <g style="fill:#262626;" transform="translate(26.399063 146.087085)scale(0.1 -0.1)">
       <use xlink:href="#ArialMT-30"/>
      </g>
     </g>
    </g>
    <g id="ytick_2">
     <g id="line2d_8">
      <g>
       <use style="fill:#262626;stroke:#262626;stroke-width:0.8;" x="38.96" xlink:href="#mc86152a469" y="59.317292"/>
      </g>
     </g>
     <g id="text_9">
      <!-- 1 -->
      <g style="fill:#262626;" transform="translate(26.399063 62.896199)scale(0.1 -0.1)">
       <use xlink:href="#ArialMT-31"/>
      </g>
     </g>
    </g>
    <g id="text_10">
     <!-- $\langle q_\mathsf{total} \rangle$ -->
     <defs>
      <path d="M 8.9375 31.34375 
L 22.703125 75.875 
L 31 75.875 
L 17.234375 31.34375 
L 31 -13.1875 
L 22.703125 -13.1875 
z
" id="DejaVuSans-27e8"/>
      <path d="M 41.703125 8.203125 
Q 38.09375 3.46875 33.171875 1.015625 
Q 28.265625 -1.421875 22.3125 -1.421875 
Q 14.015625 -1.421875 9.296875 4.171875 
Q 4.59375 9.765625 4.59375 19.578125 
Q 4.59375 27.484375 7.5 34.859375 
Q 10.40625 42.234375 15.828125 48.09375 
Q 19.34375 51.90625 23.90625 53.953125 
Q 28.46875 56 33.5 56 
Q 39.546875 56 43.453125 53.609375 
Q 47.359375 51.21875 49.125 46.390625 
L 50.6875 54.59375 
L 59.71875 54.59375 
L 45.125 -20.609375 
L 36.078125 -20.609375 
z
M 13.921875 20.90625 
Q 13.921875 13.671875 16.9375 9.890625 
Q 19.96875 6.109375 25.6875 6.109375 
Q 34.1875 6.109375 40.1875 14.234375 
Q 46.1875 22.359375 46.1875 33.984375 
Q 46.1875 41.015625 43.078125 44.75 
Q 39.984375 48.484375 34.1875 48.484375 
Q 29.9375 48.484375 26.3125 46.5 
Q 22.703125 44.53125 20.015625 40.71875 
Q 17.1875 36.71875 15.546875 31.34375 
Q 13.921875 25.984375 13.921875 20.90625 
z
" id="DejaVuSans-Oblique-71"/>
      <path d="M 18.3125 70.21875 
L 18.3125 54.6875 
L 36.8125 54.6875 
L 36.8125 47.703125 
L 18.3125 47.703125 
L 18.3125 18.015625 
Q 18.3125 11.328125 20.140625 9.421875 
Q 21.96875 7.515625 27.59375 7.515625 
L 36.8125 7.515625 
L 36.8125 0 
L 27.59375 0 
Q 17.1875 0 13.234375 3.875 
Q 9.28125 7.765625 9.28125 18.015625 
L 9.28125 47.703125 
L 2.6875 47.703125 
L 2.6875 54.6875 
L 9.28125 54.6875 
L 9.28125 70.21875 
z
" id="DejaVuSans-74"/>
      <path d="M 30.609375 48.390625 
Q 23.390625 48.390625 19.1875 42.75 
Q 14.984375 37.109375 14.984375 27.296875 
Q 14.984375 17.484375 19.15625 11.84375 
Q 23.34375 6.203125 30.609375 6.203125 
Q 37.796875 6.203125 41.984375 11.859375 
Q 46.1875 17.53125 46.1875 27.296875 
Q 46.1875 37.015625 41.984375 42.703125 
Q 37.796875 48.390625 30.609375 48.390625 
z
M 30.609375 56 
Q 42.328125 56 49.015625 48.375 
Q 55.71875 40.765625 55.71875 27.296875 
Q 55.71875 13.875 49.015625 6.21875 
Q 42.328125 -1.421875 30.609375 -1.421875 
Q 18.84375 -1.421875 12.171875 6.21875 
Q 5.515625 13.875 5.515625 27.296875 
Q 5.515625 40.765625 12.171875 48.375 
Q 18.84375 56 30.609375 56 
z
" id="DejaVuSans-6f"/>
      <path d="M 34.28125 27.484375 
Q 23.390625 27.484375 19.1875 25 
Q 14.984375 22.515625 14.984375 16.5 
Q 14.984375 11.71875 18.140625 8.90625 
Q 21.296875 6.109375 26.703125 6.109375 
Q 34.1875 6.109375 38.703125 11.40625 
Q 43.21875 16.703125 43.21875 25.484375 
L 43.21875 27.484375 
z
M 52.203125 31.203125 
L 52.203125 0 
L 43.21875 0 
L 43.21875 8.296875 
Q 40.140625 3.328125 35.546875 0.953125 
Q 30.953125 -1.421875 24.3125 -1.421875 
Q 15.921875 -1.421875 10.953125 3.296875 
Q 6 8.015625 6 15.921875 
Q 6 25.140625 12.171875 29.828125 
Q 18.359375 34.515625 30.609375 34.515625 
L 43.21875 34.515625 
L 43.21875 35.40625 
Q 43.21875 41.609375 39.140625 45 
Q 35.0625 48.390625 27.6875 48.390625 
Q 23 48.390625 18.546875 47.265625 
Q 14.109375 46.140625 10.015625 43.890625 
L 10.015625 52.203125 
Q 14.9375 54.109375 19.578125 55.046875 
Q 24.21875 56 28.609375 56 
Q 40.484375 56 46.34375 49.84375 
Q 52.203125 43.703125 52.203125 31.203125 
z
" id="DejaVuSans-61"/>
      <path d="M 9.421875 75.984375 
L 18.40625 75.984375 
L 18.40625 0 
L 9.421875 0 
z
" id="DejaVuSans-6c"/>
      <path d="M 30.078125 31.34375 
L 16.3125 -13.1875 
L 8.015625 -13.1875 
L 21.78125 31.34375 
L 8.015625 75.875 
L 16.3125 75.875 
z
" id="DejaVuSans-27e9"/>
     </defs>
     <g style="fill:#262626;" transform="translate(20.299063 115.95)rotate(-90)scale(0.1 -0.1)">
      <use transform="translate(0 0.125)" xlink:href="#DejaVuSans-27e8"/>
      <use transform="translate(39.013672 0.125)" xlink:href="#DejaVuSans-Oblique-71"/>
      <use transform="translate(102.490234 -16.28125)scale(0.7)" xlink:href="#DejaVuSans-74"/>
      <use transform="translate(129.936523 -16.28125)scale(0.7)" xlink:href="#DejaVuSans-6f"/>
      <use transform="translate(172.763672 -16.28125)scale(0.7)" xlink:href="#DejaVuSans-74"/>
      <use transform="translate(200.209961 -16.28125)scale(0.7)" xlink:href="#DejaVuSans-61"/>
      <use transform="translate(243.105469 -16.28125)scale(0.7)" xlink:href="#DejaVuSans-6c"/>
      <use transform="translate(265.288086 0.125)" xlink:href="#DejaVuSans-27e9"/>
     </g>
    </g>
   </g>
   <g id="PolyCollection_1">
    <defs>
     <path d="M 46.44 -159.426179 
L 46.44 -153.730038 
L 47.936 -153.14185 
L 49.432 -152.46035 
L 50.928 -151.67522 
L 52.424 -150.775136 
L 53.92 -149.747769 
L 55.416 -148.579993 
L 56.912 -147.2583 
L 58.408 -145.769302 
L 59.904 -144.1002 
L 61.4 -142.239132 
L 62.896 -140.175375 
L 64.392 -137.899437 
L 65.888 -135.403082 
L 67.384 -132.67931 
L 68.88 -129.722298 
L 70.376 -126.527286 
L 71.872 -123.090455 
L 73.368 -119.408852 
L 74.864 -115.480529 
L 76.36 -111.305108 
L 77.856 -106.885061 
L 79.352 -102.227951 
L 80.848 -97.349764 
L 82.344 -92.279156 
L 83.84 -87.06203 
L 85.336 -81.765341 
L 86.832 -76.478676 
L 88.328 -71.312205 
L 89.824 -66.390206 
L 91.32 -61.840566 
L 92.816 -57.782008 
L 94.312 -54.311668 
L 95.808 -51.49566 
L 97.304 -49.364363 
L 98.8 -47.912785 
L 100.296 -47.105111 
L 101.792 -46.881818 
L 103.288 -47.167688 
L 104.784 -47.879373 
L 106.28 -48.931742 
L 107.776 -50.242704 
L 109.272 -51.736556 
L 110.768 -53.346066 
L 112.264 -55.013541 
L 113.76 -56.69111 
L 115.256 -58.340408 
L 116.752 -59.931841 
L 118.248 -61.443579 
L 119.744 -62.860417 
L 121.24 -64.172631 
L 122.736 -65.374935 
L 124.232 -66.465585 
L 125.728 -67.445657 
L 127.224 -68.318473 
L 128.72 -69.08913 
L 130.216 -69.764094 
L 131.712 -70.350817 
L 133.208 -70.857349 
L 134.704 -71.291961 
L 136.2 -71.662797 
L 137.696 -71.977595 
L 139.192 -72.243505 
L 140.688 -72.467006 
L 142.184 -72.653901 
L 143.68 -72.809364 
L 145.176 -72.937991 
L 146.672 -73.043857 
L 148.168 -73.130554 
L 149.664 -73.201223 
L 151.16 -73.258588 
L 152.656 -73.304981 
L 154.152 -73.342383 
L 155.648 -73.372454 
L 157.144 -73.396577 
L 158.64 -73.415891 
L 160.136 -73.431333 
L 161.632 -73.443662 
L 163.128 -73.453496 
L 164.624 -73.461333 
L 166.12 -73.467575 
L 167.616 -73.472543 
L 169.112 -73.476497 
L 170.608 -73.479641 
L 172.104 -73.482142 
L 173.6 -73.48413 
L 175.096 -73.48571 
L 176.592 -73.486966 
L 178.088 -73.487964 
L 179.584 -73.488757 
L 181.08 -73.489387 
L 182.576 -73.489887 
L 184.072 -73.490285 
L 185.568 -73.490601 
L 187.064 -73.490852 
L 188.56 -73.491051 
L 190.056 -73.49121 
L 191.552 -73.491335 
L 193.048 -73.491435 
L 194.544 -73.491515 
L 196.04 -73.491578 
L 196.04 -73.492078 
L 196.04 -73.492078 
L 194.544 -73.492145 
L 193.048 -73.492228 
L 191.552 -73.492334 
L 190.056 -73.492466 
L 188.56 -73.492633 
L 187.064 -73.492843 
L 185.568 -73.493108 
L 184.072 -73.493441 
L 182.576 -73.49386 
L 181.08 -73.494388 
L 179.584 -73.495052 
L 178.088 -73.495889 
L 176.592 -73.496941 
L 175.096 -73.498265 
L 173.6 -73.499931 
L 172.104 -73.502027 
L 170.608 -73.504664 
L 169.112 -73.50798 
L 167.616 -73.512149 
L 166.12 -73.517389 
L 164.624 -73.523974 
L 163.128 -73.532242 
L 161.632 -73.542618 
L 160.136 -73.55563 
L 158.64 -73.57193 
L 157.144 -73.592327 
L 155.648 -73.617812 
L 154.152 -73.649598 
L 152.656 -73.689159 
L 151.16 -73.73827 
L 149.664 -73.799056 
L 148.168 -73.874033 
L 146.672 -73.966151 
L 145.176 -74.078842 
L 143.68 -74.216061 
L 142.184 -74.382339 
L 140.688 -74.582848 
L 139.192 -74.823484 
L 137.696 -75.110962 
L 136.2 -75.452903 
L 134.704 -75.857897 
L 133.208 -76.335492 
L 131.712 -76.896105 
L 130.216 -77.550863 
L 128.72 -78.311398 
L 127.224 -79.189656 
L 125.728 -80.197737 
L 124.232 -81.347783 
L 122.736 -82.651924 
L 121.24 -84.122214 
L 119.744 -85.77057 
L 118.248 -87.608644 
L 116.752 -89.647634 
L 115.256 -91.898046 
L 113.76 -94.369446 
L 112.264 -97.070273 
L 110.768 -100.007753 
L 109.272 -103.187944 
L 107.776 -106.615854 
L 106.28 -110.295529 
L 104.784 -114.229886 
L 103.288 -118.420061 
L 101.792 -122.863997 
L 100.296 -127.554065 
L 98.8 -132.473664 
L 97.304 -137.593012 
L 95.808 -142.864735 
L 94.312 -148.220289 
L 92.816 -153.568616 
L 91.32 -158.798352 
L 89.824 -163.784323 
L 88.328 -168.397935 
L 86.832 -172.519758 
L 85.336 -176.05176 
L 83.84 -178.926633 
L 82.344 -181.112527 
L 80.848 -182.612846 
L 79.352 -183.461931 
L 77.856 -183.718182 
L 76.36 -183.456201 
L 74.864 -182.759271 
L 73.368 -181.712935 
L 71.872 -180.400046 
L 70.376 -178.897273 
L 68.88 -177.272941 
L 67.384 -175.585933 
L 65.888 -173.88542 
L 64.392 -172.211168 
L 62.896 -170.594209 
L 61.4 -169.057703 
L 59.904 -167.617872 
L 58.408 -166.284911 
L 56.912 -165.063899 
L 55.416 -163.955697 
L 53.92 -162.957895 
L 52.424 -162.065792 
L 50.928 -161.273311 
L 49.432 -160.573751 
L 47.936 -159.960286 
L 46.44 -159.426179 
z
" id="m915b64c7cb" style="stroke:#ffffff;stroke-opacity:0.05;"/>
    </defs>
    <g clip-path="url(#pd7835ae387)">
     <use style="fill:#001c7f;fill-opacity:0.05;stroke:#ffffff;stroke-opacity:0.05;" x="0" xlink:href="#m915b64c7cb" y="216"/>
    </g>
   </g>
   <g id="line2d_9">
    <path clip-path="url(#pd7835ae387)" d="M 46.44 59.421892 
L 47.936 59.448932 
L 49.432 59.482949 
L 50.928 59.525735 
L 52.424 59.579536 
L 53.92 59.647168 
L 55.416 59.732155 
L 56.912 59.8389 
L 58.408 59.972893 
L 59.904 60.140964 
L 61.4 60.351583 
L 62.896 60.615208 
L 64.392 60.944698 
L 65.888 61.355749 
L 67.384 61.867378 
L 68.88 62.50238 
L 70.376 63.287721 
L 71.872 64.25475 
L 73.368 65.439106 
L 74.864 66.8801 
L 76.36 68.619345 
L 77.856 70.698379 
L 79.352 73.155059 
L 80.848 76.018695 
L 82.344 79.304158 
L 83.84 83.005668 
L 85.336 87.091449 
L 86.832 91.500783 
L 88.328 96.14493 
L 89.824 100.912735 
L 91.32 105.680541 
L 92.816 110.324688 
L 94.312 114.734021 
L 95.808 118.819803 
L 97.304 122.521313 
L 98.8 125.806776 
L 100.296 128.670412 
L 101.792 131.127092 
L 103.288 133.206126 
L 104.784 134.945371 
L 106.28 136.386365 
L 107.776 137.570721 
L 109.272 138.53775 
L 110.768 139.32309 
L 112.264 139.958093 
L 113.76 140.469722 
L 115.256 140.880773 
L 116.752 141.210263 
L 118.248 141.473888 
L 119.744 141.684507 
L 121.24 141.852578 
L 122.736 141.986571 
L 124.232 142.093316 
L 125.728 142.178303 
L 127.224 142.245935 
L 128.72 142.299736 
L 130.216 142.342522 
L 131.712 142.376539 
L 133.208 142.403579 
L 134.704 142.425071 
L 136.2 142.44215 
L 137.696 142.455722 
L 139.192 142.466505 
L 140.688 142.475073 
L 142.184 142.48188 
L 143.68 142.487287 
L 145.176 142.491583 
L 146.672 142.494996 
L 148.168 142.497707 
L 149.664 142.49986 
L 151.16 142.501571 
L 152.656 142.50293 
L 154.152 142.504009 
L 155.648 142.504867 
L 157.144 142.505548 
L 158.64 142.506089 
L 160.136 142.506519 
L 161.632 142.50686 
L 163.128 142.507131 
L 164.624 142.507347 
L 166.12 142.507518 
L 167.616 142.507654 
L 169.112 142.507762 
L 170.608 142.507847 
L 172.104 142.507916 
L 173.6 142.50797 
L 175.096 142.508013 
L 176.592 142.508047 
L 178.088 142.508074 
L 179.584 142.508095 
L 181.08 142.508113 
L 182.576 142.508126 
L 184.072 142.508137 
L 185.568 142.508146 
L 187.064 142.508152 
L 188.56 142.508158 
L 190.056 142.508162 
L 191.552 142.508165 
L 193.048 142.508168 
L 194.544 142.50817 
L 196.04 142.508172 
" style="fill:none;opacity:0.9;stroke:#001c7f;stroke-linecap:round;stroke-width:1.5;"/>
   </g>
   <g id="line2d_10">
    <path clip-path="url(#pd7835ae387)" d="M 46.44 64.700283 
L 47.936 65.982408 
L 49.432 67.537648 
L 50.928 69.407935 
L 52.424 71.633841 
L 53.92 74.250455 
L 55.416 77.282058 
L 56.912 80.735987 
L 58.408 84.596609 
L 59.904 88.820736 
L 61.4 93.336076 
L 62.896 98.043986 
L 64.392 102.826923 
L 65.888 107.559667 
L 67.384 112.122153 
L 68.88 116.411219 
L 70.376 120.34893 
L 71.872 123.886279 
L 73.368 127.002413 
L 74.864 129.700534 
L 76.36 132.002037 
L 77.856 133.94031 
L 79.352 135.555199 
L 80.848 136.888632 
L 82.344 137.981525 
L 83.84 138.871835 
L 85.336 139.593525 
L 86.832 140.176183 
L 88.328 140.645067 
L 89.824 141.021408 
L 91.32 141.322838 
L 92.816 141.563862 
L 94.312 141.756326 
L 95.808 141.909848 
L 97.304 142.032204 
L 98.8 142.129653 
L 100.296 142.207224 
L 101.792 142.268943 
L 103.288 142.318035 
L 104.784 142.357071 
L 106.28 142.388105 
L 107.776 142.412772 
L 109.272 142.432377 
L 110.768 142.447956 
L 112.264 142.460335 
L 113.76 142.47017 
L 115.256 142.477985 
L 116.752 142.484193 
L 118.248 142.489125 
L 119.744 142.493043 
L 121.24 142.496156 
L 122.736 142.498628 
L 124.232 142.500592 
L 125.728 142.502152 
L 127.224 142.503392 
L 128.72 142.504376 
L 130.216 142.505158 
L 131.712 142.505779 
L 133.208 142.506273 
L 134.704 142.506665 
L 136.2 142.506976 
L 137.696 142.507224 
L 139.192 142.50742 
L 140.688 142.507576 
L 142.184 142.5077 
L 143.68 142.507798 
L 145.176 142.507877 
L 146.672 142.507939 
L 148.168 142.507988 
L 149.664 142.508027 
L 151.16 142.508058 
L 152.656 142.508083 
L 154.152 142.508103 
L 155.648 142.508118 
L 157.144 142.508131 
L 158.64 142.508141 
L 160.136 142.508148 
L 161.632 142.508155 
L 163.128 142.50816 
L 164.624 142.508164 
L 166.12 142.508167 
L 167.616 142.508169 
L 169.112 142.508171 
L 170.608 142.508173 
L 172.104 142.508174 
L 173.6 142.508175 
L 175.096 142.508176 
L 176.592 142.508176 
L 178.088 142.508177 
L 179.584 142.508177 
L 181.08 142.508177 
L 182.576 142.508178 
L 184.072 142.508178 
L 185.568 142.508178 
L 187.064 142.508178 
L 188.56 142.508178 
L 190.056 142.508178 
L 191.552 142.508178 
L 193.048 142.508178 
L 194.544 142.508179 
L 196.04 142.508179 
" style="fill:none;opacity:0.7;stroke:#000000;stroke-linecap:round;stroke-width:1.5;"/>
   </g>
   <g id="line2d_11">
    <path clip-path="url(#pd7835ae387)" d="M 46.44 56.573821 
L 47.936 56.039714 
L 49.432 55.426249 
L 50.928 54.726689 
L 52.424 53.934208 
L 53.92 53.042105 
L 55.416 52.044303 
L 56.912 50.936101 
L 58.408 49.715089 
L 59.904 48.382128 
L 61.4 46.942297 
L 62.896 45.405791 
L 64.392 43.788832 
L 65.888 42.11458 
L 67.384 40.414067 
L 68.88 38.727059 
L 70.376 37.102727 
L 71.872 35.599954 
L 73.368 34.287065 
L 74.864 33.240729 
L 76.36 32.543799 
L 77.856 32.281818 
L 79.352 32.538069 
L 80.848 33.387154 
L 82.344 34.887473 
L 83.84 37.073367 
L 85.336 39.94824 
L 86.832 43.480242 
L 88.328 47.602065 
L 89.824 52.215677 
L 91.32 57.201648 
L 92.816 62.431384 
L 94.312 67.779711 
L 95.808 73.135265 
L 97.304 78.406988 
L 98.8 83.526336 
L 100.296 88.445935 
L 101.792 93.136003 
L 103.288 97.579939 
L 104.784 101.770114 
L 106.28 105.704471 
L 107.776 109.384146 
L 109.272 112.812056 
L 110.768 115.992247 
L 112.264 118.929727 
L 113.76 121.630554 
L 115.256 124.101954 
L 116.752 126.352366 
L 118.248 128.391356 
L 119.744 130.22943 
L 121.24 131.877786 
L 122.736 133.348076 
L 124.232 134.652217 
L 125.728 135.802263 
L 127.224 136.810344 
L 128.72 137.688602 
L 130.216 138.449137 
L 131.712 139.103895 
L 133.208 139.664508 
L 134.704 140.142103 
L 136.2 140.547097 
L 137.696 140.889038 
L 139.192 141.176516 
L 140.688 141.417152 
L 142.184 141.617661 
L 143.68 141.783939 
L 145.176 141.921158 
L 146.672 142.033849 
L 148.168 142.125967 
L 149.664 142.200944 
L 151.16 142.26173 
L 152.656 142.310841 
L 154.152 142.350402 
L 155.648 142.382188 
L 157.144 142.407673 
L 158.64 142.42807 
L 160.136 142.44437 
L 161.632 142.457382 
L 163.128 142.467758 
L 164.624 142.476026 
L 166.12 142.482611 
L 167.616 142.487851 
L 169.112 142.49202 
L 170.608 142.495336 
L 172.104 142.497973 
L 173.6 142.500069 
L 175.096 142.501735 
L 176.592 142.503059 
L 178.088 142.504111 
L 179.584 142.504948 
L 181.08 142.505612 
L 182.576 142.50614 
L 184.072 142.506559 
L 185.568 142.506892 
L 187.064 142.507157 
L 188.56 142.507367 
L 190.056 142.507534 
L 191.552 142.507666 
L 193.048 142.507772 
L 194.544 142.507855 
L 196.04 142.507922 
" style="fill:none;opacity:0.45;stroke:#001c7f;stroke-dasharray:2.775,1.2;stroke-dashoffset:0;stroke-width:0.75;"/>
   </g>
   <g id="line2d_12">
    <path clip-path="url(#pd7835ae387)" d="M 46.44 62.269962 
L 47.936 62.85815 
L 49.432 63.53965 
L 50.928 64.32478 
L 52.424 65.224864 
L 53.92 66.252231 
L 55.416 67.420007 
L 56.912 68.7417 
L 58.408 70.230698 
L 59.904 71.8998 
L 61.4 73.760868 
L 62.896 75.824625 
L 64.392 78.100563 
L 65.888 80.596918 
L 67.384 83.32069 
L 68.88 86.277702 
L 70.376 89.472714 
L 71.872 92.909545 
L 73.368 96.591148 
L 74.864 100.519471 
L 76.36 104.694892 
L 77.856 109.114939 
L 79.352 113.772049 
L 80.848 118.650236 
L 82.344 123.720844 
L 83.84 128.93797 
L 85.336 134.234659 
L 86.832 139.521324 
L 88.328 144.687795 
L 89.824 149.609794 
L 91.32 154.159434 
L 92.816 158.217992 
L 94.312 161.688332 
L 95.808 164.50434 
L 97.304 166.635637 
L 98.8 168.087215 
L 100.296 168.894889 
L 101.792 169.118182 
L 103.288 168.832312 
L 104.784 168.120627 
L 106.28 167.068258 
L 107.776 165.757296 
L 109.272 164.263444 
L 110.768 162.653934 
L 112.264 160.986459 
L 113.76 159.30889 
L 115.256 157.659592 
L 116.752 156.068159 
L 118.248 154.556421 
L 119.744 153.139583 
L 121.24 151.827369 
L 122.736 150.625065 
L 124.232 149.534415 
L 125.728 148.554343 
L 127.224 147.681527 
L 128.72 146.91087 
L 130.216 146.235906 
L 131.712 145.649183 
L 133.208 145.142651 
L 134.704 144.708039 
L 136.2 144.337203 
L 137.696 144.022405 
L 139.192 143.756495 
L 140.688 143.532994 
L 142.184 143.346099 
L 143.68 143.190636 
L 145.176 143.062009 
L 146.672 142.956143 
L 148.168 142.869446 
L 149.664 142.798777 
L 151.16 142.741412 
L 152.656 142.695019 
L 154.152 142.657617 
L 155.648 142.627546 
L 157.144 142.603423 
L 158.64 142.584109 
L 160.136 142.568667 
L 161.632 142.556338 
L 163.128 142.546504 
L 164.624 142.538667 
L 166.12 142.532425 
L 167.616 142.527457 
L 169.112 142.523503 
L 170.608 142.520359 
L 172.104 142.517858 
L 173.6 142.51587 
L 175.096 142.51429 
L 176.592 142.513034 
L 178.088 142.512036 
L 179.584 142.511243 
L 181.08 142.510613 
L 182.576 142.510113 
L 184.072 142.509715 
L 185.568 142.509399 
L 187.064 142.509148 
L 188.56 142.508949 
L 190.056 142.50879 
L 191.552 142.508665 
L 193.048 142.508565 
L 194.544 142.508485 
L 196.04 142.508422 
" style="fill:none;opacity:0.45;stroke:#001c7f;stroke-dasharray:2.775,1.2;stroke-dashoffset:0;stroke-width:0.75;"/>
   </g>
   <g id="patch_3">
    <path d="M 38.96 175.96 
L 38.96 25.44 
" style="fill:none;stroke:#262626;stroke-linecap:square;stroke-linejoin:miter;stroke-width:0.8;"/>
   </g>
   <g id="patch_4">
    <path d="M 38.96 175.96 
L 203.52 175.96 
" style="fill:none;stroke:#262626;stroke-linecap:square;stroke-linejoin:miter;stroke-width:0.8;"/>
   </g>
   <g id="text_11">
    <!-- Epik-micro SM17 -->
    <defs>
     <path d="M 7.90625 0 
L 7.90625 71.578125 
L 59.671875 71.578125 
L 59.671875 63.140625 
L 17.390625 63.140625 
L 17.390625 41.21875 
L 56.984375 41.21875 
L 56.984375 32.8125 
L 17.390625 32.8125 
L 17.390625 8.453125 
L 61.328125 8.453125 
L 61.328125 0 
z
" id="ArialMT-45"/>
     <path d="M 6.640625 61.46875 
L 6.640625 71.578125 
L 15.4375 71.578125 
L 15.4375 61.46875 
z
M 6.640625 0 
L 6.640625 51.859375 
L 15.4375 51.859375 
L 15.4375 0 
z
" id="ArialMT-69"/>
     <path d="M 6.640625 0 
L 6.640625 71.578125 
L 15.4375 71.578125 
L 15.4375 30.765625 
L 36.234375 51.859375 
L 47.609375 51.859375 
L 27.78125 32.625 
L 49.609375 0 
L 38.765625 0 
L 21.625 26.515625 
L 15.4375 20.5625 
L 15.4375 0 
z
" id="ArialMT-6b"/>
     <path d="M 3.171875 21.484375 
L 3.171875 30.328125 
L 30.171875 30.328125 
L 30.171875 21.484375 
z
" id="ArialMT-2d"/>
     <path d="M 6.59375 0 
L 6.59375 51.859375 
L 14.453125 51.859375 
L 14.453125 44.578125 
Q 16.890625 48.390625 20.9375 50.703125 
Q 25 53.03125 30.171875 53.03125 
Q 35.9375 53.03125 39.625 50.640625 
Q 43.3125 48.25 44.828125 43.953125 
Q 50.984375 53.03125 60.84375 53.03125 
Q 68.5625 53.03125 72.703125 48.75 
Q 76.859375 44.484375 76.859375 35.59375 
L 76.859375 0 
L 68.109375 0 
L 68.109375 32.671875 
Q 68.109375 37.9375 67.25 40.25 
Q 66.40625 42.578125 64.15625 43.984375 
Q 61.921875 45.40625 58.890625 45.40625 
Q 53.421875 45.40625 49.796875 41.765625 
Q 46.1875 38.140625 46.1875 30.125 
L 46.1875 0 
L 37.40625 0 
L 37.40625 33.6875 
Q 37.40625 39.546875 35.25 42.46875 
Q 33.109375 45.40625 28.21875 45.40625 
Q 24.515625 45.40625 21.359375 43.453125 
Q 18.21875 41.5 16.796875 37.734375 
Q 15.375 33.984375 15.375 26.90625 
L 15.375 0 
z
" id="ArialMT-6d"/>
     <path d="M 40.4375 19 
L 49.078125 17.875 
Q 47.65625 8.9375 41.8125 3.875 
Q 35.984375 -1.171875 27.484375 -1.171875 
Q 16.84375 -1.171875 10.375 5.78125 
Q 3.90625 12.75 3.90625 25.734375 
Q 3.90625 34.125 6.6875 40.421875 
Q 9.46875 46.734375 15.15625 49.875 
Q 20.84375 53.03125 27.546875 53.03125 
Q 35.984375 53.03125 41.359375 48.75 
Q 46.734375 44.484375 48.25 36.625 
L 39.703125 35.296875 
Q 38.484375 40.53125 35.375 43.15625 
Q 32.28125 45.796875 27.875 45.796875 
Q 21.234375 45.796875 17.078125 41.03125 
Q 12.9375 36.28125 12.9375 25.984375 
Q 12.9375 15.53125 16.9375 10.796875 
Q 20.953125 6.0625 27.390625 6.0625 
Q 32.5625 6.0625 36.03125 9.234375 
Q 39.5 12.40625 40.4375 19 
z
" id="ArialMT-63"/>
     <path d="M 6.5 0 
L 6.5 51.859375 
L 14.40625 51.859375 
L 14.40625 44 
Q 17.4375 49.515625 20 51.265625 
Q 22.5625 53.03125 25.640625 53.03125 
Q 30.078125 53.03125 34.671875 50.203125 
L 31.640625 42.046875 
Q 28.421875 43.953125 25.203125 43.953125 
Q 22.3125 43.953125 20.015625 42.21875 
Q 17.71875 40.484375 16.75 37.40625 
Q 15.28125 32.71875 15.28125 27.15625 
L 15.28125 0 
z
" id="ArialMT-72"/>
     <path d="M 3.328125 25.921875 
Q 3.328125 40.328125 11.328125 47.265625 
Q 18.015625 53.03125 27.640625 53.03125 
Q 38.328125 53.03125 45.109375 46.015625 
Q 51.90625 39.015625 51.90625 26.65625 
Q 51.90625 16.65625 48.90625 10.90625 
Q 45.90625 5.171875 40.15625 2 
Q 34.421875 -1.171875 27.640625 -1.171875 
Q 16.75 -1.171875 10.03125 5.8125 
Q 3.328125 12.796875 3.328125 25.921875 
z
M 12.359375 25.921875 
Q 12.359375 15.96875 16.703125 11.015625 
Q 21.046875 6.0625 27.640625 6.0625 
Q 34.1875 6.0625 38.53125 11.03125 
Q 42.875 16.015625 42.875 26.21875 
Q 42.875 35.84375 38.5 40.796875 
Q 34.125 45.75 27.640625 45.75 
Q 21.046875 45.75 16.703125 40.8125 
Q 12.359375 35.890625 12.359375 25.921875 
z
" id="ArialMT-6f"/>
     <path id="ArialMT-20"/>
     <path d="M 4.5 23 
L 13.421875 23.78125 
Q 14.0625 18.40625 16.375 14.96875 
Q 18.703125 11.53125 23.578125 9.40625 
Q 28.46875 7.28125 34.578125 7.28125 
Q 39.984375 7.28125 44.140625 8.890625 
Q 48.296875 10.5 50.3125 13.296875 
Q 52.34375 16.109375 52.34375 19.4375 
Q 52.34375 22.796875 50.390625 25.3125 
Q 48.4375 27.828125 43.953125 29.546875 
Q 41.0625 30.671875 31.203125 33.03125 
Q 21.34375 35.40625 17.390625 37.5 
Q 12.25 40.1875 9.734375 44.15625 
Q 7.234375 48.140625 7.234375 53.078125 
Q 7.234375 58.5 10.296875 63.203125 
Q 13.375 67.921875 19.28125 70.359375 
Q 25.203125 72.796875 32.421875 72.796875 
Q 40.375 72.796875 46.453125 70.234375 
Q 52.546875 67.671875 55.8125 62.6875 
Q 59.078125 57.71875 59.328125 51.421875 
L 50.25 50.734375 
Q 49.515625 57.515625 45.28125 60.984375 
Q 41.0625 64.453125 32.8125 64.453125 
Q 24.21875 64.453125 20.28125 61.296875 
Q 16.359375 58.15625 16.359375 53.71875 
Q 16.359375 49.859375 19.140625 47.359375 
Q 21.875 44.875 33.421875 42.265625 
Q 44.96875 39.65625 49.265625 37.703125 
Q 55.515625 34.8125 58.484375 30.390625 
Q 61.46875 25.984375 61.46875 20.21875 
Q 61.46875 14.5 58.203125 9.4375 
Q 54.9375 4.390625 48.796875 1.578125 
Q 42.671875 -1.21875 35.015625 -1.21875 
Q 25.296875 -1.21875 18.71875 1.609375 
Q 12.15625 4.4375 8.421875 10.125 
Q 4.6875 15.828125 4.5 23 
z
" id="ArialMT-53"/>
     <path d="M 7.421875 0 
L 7.421875 71.578125 
L 21.6875 71.578125 
L 38.625 20.90625 
Q 40.96875 13.8125 42.046875 10.296875 
Q 43.265625 14.203125 45.84375 21.78125 
L 62.984375 71.578125 
L 75.734375 71.578125 
L 75.734375 0 
L 66.609375 0 
L 66.609375 59.90625 
L 45.796875 0 
L 37.25 0 
L 16.546875 60.9375 
L 16.546875 0 
z
" id="ArialMT-4d"/>
     <path d="M 4.734375 62.203125 
L 4.734375 70.65625 
L 51.078125 70.65625 
L 51.078125 63.8125 
Q 44.234375 56.546875 37.515625 44.484375 
Q 30.8125 32.421875 27.15625 19.671875 
Q 24.515625 10.6875 23.78125 0 
L 14.75 0 
Q 14.890625 8.453125 18.0625 20.40625 
Q 21.234375 32.375 27.171875 43.484375 
Q 33.109375 54.59375 39.796875 62.203125 
z
" id="ArialMT-37"/>
    </defs>
    <g style="fill:#262626;" transform="translate(75.565 19.44)scale(0.12 -0.12)">
     <use xlink:href="#ArialMT-45"/>
     <use x="66.699219" xlink:href="#ArialMT-70"/>
     <use x="122.314453" xlink:href="#ArialMT-69"/>
     <use x="144.53125" xlink:href="#ArialMT-6b"/>
     <use x="194.53125" xlink:href="#ArialMT-2d"/>
     <use x="227.832031" xlink:href="#ArialMT-6d"/>
     <use x="311.132812" xlink:href="#ArialMT-69"/>
     <use x="333.349609" xlink:href="#ArialMT-63"/>
     <use x="383.349609" xlink:href="#ArialMT-72"/>
     <use x="416.650391" xlink:href="#ArialMT-6f"/>
     <use x="472.265625" xlink:href="#ArialMT-20"/>
     <use x="500.048828" xlink:href="#ArialMT-53"/>
     <use x="566.748047" xlink:href="#ArialMT-4d"/>
     <use x="650.048828" xlink:href="#ArialMT-31"/>
     <use x="705.664062" xlink:href="#ArialMT-37"/>
    </g>
   </g>
  </g>
 </g>
 <defs>
  <clipPath id="pd7835ae387">
   <rect height="150.52" width="164.56" x="38.96" y="25.44"/>
  </clipPath>
 </defs>
</svg>
