<?xml version="1.0" encoding="utf-8" standalone="no"?>
<!DOCTYPE svg PUBLIC "-//W3C//DTD SVG 1.1//EN"
  "http://www.w3.org/Graphics/SVG/1.1/DTD/svg11.dtd">
<!-- Created with matplotlib (http://matplotlib.org/) -->
<svg height="144pt" version="1.1" viewBox="0 0 144 144" width="144pt" xmlns="http://www.w3.org/2000/svg" xmlns:xlink="http://www.w3.org/1999/xlink">
 <defs>
  <style type="text/css">
*{stroke-linecap:butt;stroke-linejoin:round;}
  </style>
 </defs>
 <g id="figure_1">
  <g id="patch_1">
   <path d="M 0 144 
L 144 144 
L 144 0 
L 0 0 
z
" style="fill:#ffffff;"/>
  </g>
  <g id="axes_1">
   <g id="patch_2">
    <path d="M 47.6 101.92 
L 130.44 101.92 
L 130.44 13.56 
L 47.6 13.56 
z
" style="fill:#ffffff;"/>
   </g>
   <g id="matplotlib.axis_1">
    <g id="xtick_1">
     <g id="line2d_1">
      <defs>
       <path d="M 0 0 
L 0 3.5 
" id="mc48698ba9f" style="stroke:#262626;stroke-width:0.8;"/>
      </defs>
      <g>
       <use style="fill:#262626;stroke:#262626;stroke-width:0.8;" x="51.365455" xlink:href="#mc48698ba9f" y="101.92"/>
      </g>
     </g>
     <g id="text_1">
      <!-- 2 -->
      <defs>
       <path d="M 50.34375 8.453125 
L 50.34375 0 
L 3.03125 0 
Q 2.9375 3.171875 4.046875 6.109375 
Q 5.859375 10.9375 9.828125 15.625 
Q 13.8125 20.3125 21.34375 26.46875 
Q 33.015625 36.03125 37.109375 41.625 
Q 41.21875 47.21875 41.21875 52.203125 
Q 41.21875 57.421875 37.46875 61 
Q 33.734375 64.59375 27.734375 64.59375 
Q 21.390625 64.59375 17.578125 60.78125 
Q 13.765625 56.984375 13.71875 50.25 
L 4.6875 51.171875 
Q 5.609375 61.28125 11.65625 66.578125 
Q 17.71875 71.875 27.9375 71.875 
Q 38.234375 71.875 44.234375 66.15625 
Q 50.25 60.453125 50.25 52 
Q 50.25 47.703125 48.484375 43.546875 
Q 46.734375 39.40625 42.65625 34.8125 
Q 38.578125 30.21875 29.109375 22.21875 
Q 21.1875 15.578125 18.9375 13.203125 
Q 16.703125 10.84375 15.234375 8.453125 
z
" id="ArialMT-32"/>
      </defs>
      <g style="fill:#262626;" transform="translate(48.306939 116.793594)scale(0.11 -0.11)">
       <use xlink:href="#ArialMT-32"/>
      </g>
     </g>
    </g>
    <g id="xtick_2">
     <g id="line2d_2">
      <g>
       <use style="fill:#262626;stroke:#262626;stroke-width:0.8;" x="66.427273" xlink:href="#mc48698ba9f" y="101.92"/>
      </g>
     </g>
     <g id="text_2">
      <!-- 4 -->
      <defs>
       <path d="M 32.328125 0 
L 32.328125 17.140625 
L 1.265625 17.140625 
L 1.265625 25.203125 
L 33.9375 71.578125 
L 41.109375 71.578125 
L 41.109375 25.203125 
L 50.78125 25.203125 
L 50.78125 17.140625 
L 41.109375 17.140625 
L 41.109375 0 
z
M 32.328125 25.203125 
L 32.328125 57.46875 
L 9.90625 25.203125 
z
" id="ArialMT-34"/>
      </defs>
      <g style="fill:#262626;" transform="translate(63.368757 116.793594)scale(0.11 -0.11)">
       <use xlink:href="#ArialMT-34"/>
      </g>
     </g>
    </g>
    <g id="xtick_3">
     <g id="line2d_3">
      <g>
       <use style="fill:#262626;stroke:#262626;stroke-width:0.8;" x="81.489091" xlink:href="#mc48698ba9f" y="101.92"/>
      </g>
     </g>
     <g id="text_3">
      <!-- 6 -->
      <defs>
       <path d="M 49.75 54.046875 
L 41.015625 53.375 
Q 39.84375 58.546875 37.703125 60.890625 
Q 34.125 64.65625 28.90625 64.65625 
Q 24.703125 64.65625 21.53125 62.3125 
Q 17.390625 59.28125 14.984375 53.46875 
Q 12.59375 47.65625 12.5 36.921875 
Q 15.671875 41.75 20.265625 44.09375 
Q 24.859375 46.4375 29.890625 46.4375 
Q 38.671875 46.4375 44.84375 39.96875 
Q 51.03125 33.5 51.03125 23.25 
Q 51.03125 16.5 48.125 10.71875 
Q 45.21875 4.9375 40.140625 1.859375 
Q 35.0625 -1.21875 28.609375 -1.21875 
Q 17.625 -1.21875 10.6875 6.859375 
Q 3.765625 14.9375 3.765625 33.5 
Q 3.765625 54.25 11.421875 63.671875 
Q 18.109375 71.875 29.4375 71.875 
Q 37.890625 71.875 43.28125 67.140625 
Q 48.6875 62.40625 49.75 54.046875 
z
M 13.875 23.1875 
Q 13.875 18.65625 15.796875 14.5 
Q 17.71875 10.359375 21.1875 8.171875 
Q 24.65625 6 28.46875 6 
Q 34.03125 6 38.03125 10.484375 
Q 42.046875 14.984375 42.046875 22.703125 
Q 42.046875 30.125 38.078125 34.390625 
Q 34.125 38.671875 28.125 38.671875 
Q 22.171875 38.671875 18.015625 34.390625 
Q 13.875 30.125 13.875 23.1875 
z
" id="ArialMT-36"/>
      </defs>
      <g style="fill:#262626;" transform="translate(78.430575 116.793594)scale(0.11 -0.11)">
       <use xlink:href="#ArialMT-36"/>
      </g>
     </g>
    </g>
    <g id="xtick_4">
     <g id="line2d_4">
      <g>
       <use style="fill:#262626;stroke:#262626;stroke-width:0.8;" x="96.550909" xlink:href="#mc48698ba9f" y="101.92"/>
      </g>
     </g>
     <g id="text_4">
      <!-- 8 -->
      <defs>
       <path d="M 17.671875 38.8125 
Q 12.203125 40.828125 9.5625 44.53125 
Q 6.9375 48.25 6.9375 53.421875 
Q 6.9375 61.234375 12.546875 66.546875 
Q 18.171875 71.875 27.484375 71.875 
Q 36.859375 71.875 42.578125 66.421875 
Q 48.296875 60.984375 48.296875 53.171875 
Q 48.296875 48.1875 45.671875 44.5 
Q 43.0625 40.828125 37.75 38.8125 
Q 44.34375 36.671875 47.78125 31.875 
Q 51.21875 27.09375 51.21875 20.453125 
Q 51.21875 11.28125 44.71875 5.03125 
Q 38.234375 -1.21875 27.640625 -1.21875 
Q 17.046875 -1.21875 10.546875 5.046875 
Q 4.046875 11.328125 4.046875 20.703125 
Q 4.046875 27.6875 7.59375 32.390625 
Q 11.140625 37.109375 17.671875 38.8125 
z
M 15.921875 53.71875 
Q 15.921875 48.640625 19.1875 45.40625 
Q 22.46875 42.1875 27.6875 42.1875 
Q 32.765625 42.1875 36.015625 45.375 
Q 39.265625 48.578125 39.265625 53.21875 
Q 39.265625 58.0625 35.90625 61.359375 
Q 32.5625 64.65625 27.59375 64.65625 
Q 22.5625 64.65625 19.234375 61.421875 
Q 15.921875 58.203125 15.921875 53.71875 
z
M 13.09375 20.65625 
Q 13.09375 16.890625 14.875 13.375 
Q 16.65625 9.859375 20.171875 7.921875 
Q 23.6875 6 27.734375 6 
Q 34.03125 6 38.125 10.046875 
Q 42.234375 14.109375 42.234375 20.359375 
Q 42.234375 26.703125 38.015625 30.859375 
Q 33.796875 35.015625 27.4375 35.015625 
Q 21.234375 35.015625 17.15625 30.90625 
Q 13.09375 26.8125 13.09375 20.65625 
z
" id="ArialMT-38"/>
      </defs>
      <g style="fill:#262626;" transform="translate(93.492393 116.793594)scale(0.11 -0.11)">
       <use xlink:href="#ArialMT-38"/>
      </g>
     </g>
    </g>
    <g id="xtick_5">
     <g id="line2d_5">
      <g>
       <use style="fill:#262626;stroke:#262626;stroke-width:0.8;" x="111.612727" xlink:href="#mc48698ba9f" y="101.92"/>
      </g>
     </g>
     <g id="text_5">
      <!-- 10 -->
      <defs>
       <path d="M 37.25 0 
L 28.46875 0 
L 28.46875 56 
Q 25.296875 52.984375 20.140625 49.953125 
Q 14.984375 46.921875 10.890625 45.40625 
L 10.890625 53.90625 
Q 18.265625 57.375 23.78125 62.296875 
Q 29.296875 67.234375 31.59375 71.875 
L 37.25 71.875 
z
" id="ArialMT-31"/>
       <path d="M 4.15625 35.296875 
Q 4.15625 48 6.765625 55.734375 
Q 9.375 63.484375 14.515625 67.671875 
Q 19.671875 71.875 27.484375 71.875 
Q 33.25 71.875 37.59375 69.546875 
Q 41.9375 67.234375 44.765625 62.859375 
Q 47.609375 58.5 49.21875 52.21875 
Q 50.828125 45.953125 50.828125 35.296875 
Q 50.828125 22.703125 48.234375 14.96875 
Q 45.65625 7.234375 40.5 3 
Q 35.359375 -1.21875 27.484375 -1.21875 
Q 17.140625 -1.21875 11.234375 6.203125 
Q 4.15625 15.140625 4.15625 35.296875 
z
M 13.1875 35.296875 
Q 13.1875 17.671875 17.3125 11.828125 
Q 21.4375 6 27.484375 6 
Q 33.546875 6 37.671875 11.859375 
Q 41.796875 17.71875 41.796875 35.296875 
Q 41.796875 52.984375 37.671875 58.78125 
Q 33.546875 64.59375 27.390625 64.59375 
Q 21.34375 64.59375 17.71875 59.46875 
Q 13.1875 52.9375 13.1875 35.296875 
z
" id="ArialMT-30"/>
      </defs>
      <g style="fill:#262626;" transform="translate(105.495696 116.793594)scale(0.11 -0.11)">
       <use xlink:href="#ArialMT-31"/>
       <use x="55.615234" xlink:href="#ArialMT-30"/>
      </g>
     </g>
    </g>
    <g id="xtick_6">
     <g id="line2d_6">
      <g>
       <use style="fill:#262626;stroke:#262626;stroke-width:0.8;" x="126.674545" xlink:href="#mc48698ba9f" y="101.92"/>
      </g>
     </g>
     <g id="text_6">
      <!-- 12 -->
      <g style="fill:#262626;" transform="translate(120.557514 116.793594)scale(0.11 -0.11)">
       <use xlink:href="#ArialMT-31"/>
       <use x="55.615234" xlink:href="#ArialMT-32"/>
      </g>
     </g>
    </g>
    <g id="text_7">
     <!-- pH -->
     <defs>
      <path d="M 6.59375 -19.875 
L 6.59375 51.859375 
L 14.59375 51.859375 
L 14.59375 45.125 
Q 17.4375 49.078125 21 51.046875 
Q 24.5625 53.03125 29.640625 53.03125 
Q 36.28125 53.03125 41.359375 49.609375 
Q 46.4375 46.1875 49.015625 39.953125 
Q 51.609375 33.734375 51.609375 26.3125 
Q 51.609375 18.359375 48.75 11.984375 
Q 45.90625 5.609375 40.453125 2.21875 
Q 35.015625 -1.171875 29 -1.171875 
Q 24.609375 -1.171875 21.109375 0.6875 
Q 17.625 2.546875 15.375 5.375 
L 15.375 -19.875 
z
M 14.546875 25.640625 
Q 14.546875 15.625 18.59375 10.84375 
Q 22.65625 6.0625 28.421875 6.0625 
Q 34.28125 6.0625 38.453125 11.015625 
Q 42.625 15.96875 42.625 26.375 
Q 42.625 36.28125 38.546875 41.203125 
Q 34.46875 46.140625 28.8125 46.140625 
Q 23.1875 46.140625 18.859375 40.890625 
Q 14.546875 35.640625 14.546875 25.640625 
z
" id="ArialMT-70"/>
      <path d="M 8.015625 0 
L 8.015625 71.578125 
L 17.484375 71.578125 
L 17.484375 42.1875 
L 54.6875 42.1875 
L 54.6875 71.578125 
L 64.15625 71.578125 
L 64.15625 0 
L 54.6875 0 
L 54.6875 33.734375 
L 17.484375 33.734375 
L 17.484375 0 
z
" id="ArialMT-48"/>
     </defs>
     <g style="fill:#262626;" transform="translate(81.989453 130.853437)scale(0.11 -0.11)">
      <use xlink:href="#ArialMT-70"/>
      <use x="55.615234" xlink:href="#ArialMT-48"/>
     </g>
    </g>
   </g>
   <g id="matplotlib.axis_2">
    <g id="ytick_1">
     <g id="line2d_7">
      <defs>
       <path d="M 0 0 
L -3.5 0 
" id="m0b7b3643d8" style="stroke:#262626;stroke-width:0.8;"/>
      </defs>
      <g>
       <use style="fill:#262626;stroke:#262626;stroke-width:0.8;" x="47.6" xlink:href="#m0b7b3643d8" y="85.816433"/>
      </g>
     </g>
     <g id="text_8">
      <!-- 0 -->
      <g style="fill:#262626;" transform="translate(34.482969 89.75323)scale(0.11 -0.11)">
       <use xlink:href="#ArialMT-30"/>
      </g>
     </g>
    </g>
    <g id="ytick_2">
     <g id="line2d_8">
      <g>
       <use style="fill:#262626;stroke:#262626;stroke-width:0.8;" x="47.6" xlink:href="#m0b7b3643d8" y="54.288469"/>
      </g>
     </g>
     <g id="text_9">
      <!-- 20 -->
      <g style="fill:#262626;" transform="translate(28.365938 58.225266)scale(0.11 -0.11)">
       <use xlink:href="#ArialMT-32"/>
       <use x="55.615234" xlink:href="#ArialMT-30"/>
      </g>
     </g>
    </g>
    <g id="ytick_3">
     <g id="line2d_9">
      <g>
       <use style="fill:#262626;stroke:#262626;stroke-width:0.8;" x="47.6" xlink:href="#m0b7b3643d8" y="22.760506"/>
      </g>
     </g>
     <g id="text_10">
      <!-- 40 -->
      <g style="fill:#262626;" transform="translate(28.365938 26.697303)scale(0.11 -0.11)">
       <use xlink:href="#ArialMT-34"/>
       <use x="55.615234" xlink:href="#ArialMT-30"/>
      </g>
     </g>
    </g>
    <g id="text_11">
     <!-- Free energy ($k_B T$) -->
     <defs>
      <path d="M 8.203125 0 
L 8.203125 71.578125 
L 56.5 71.578125 
L 56.5 63.140625 
L 17.671875 63.140625 
L 17.671875 40.96875 
L 51.265625 40.96875 
L 51.265625 32.515625 
L 17.671875 32.515625 
L 17.671875 0 
z
" id="ArialMT-46"/>
      <path d="M 6.5 0 
L 6.5 51.859375 
L 14.40625 51.859375 
L 14.40625 44 
Q 17.4375 49.515625 20 51.265625 
Q 22.5625 53.03125 25.640625 53.03125 
Q 30.078125 53.03125 34.671875 50.203125 
L 31.640625 42.046875 
Q 28.421875 43.953125 25.203125 43.953125 
Q 22.3125 43.953125 20.015625 42.21875 
Q 17.71875 40.484375 16.75 37.40625 
Q 15.28125 32.71875 15.28125 27.15625 
L 15.28125 0 
z
" id="ArialMT-72"/>
      <path d="M 42.09375 16.703125 
L 51.171875 15.578125 
Q 49.03125 7.625 43.21875 3.21875 
Q 37.40625 -1.171875 28.375 -1.171875 
Q 17 -1.171875 10.328125 5.828125 
Q 3.65625 12.84375 3.65625 25.484375 
Q 3.65625 38.578125 10.390625 45.796875 
Q 17.140625 53.03125 27.875 53.03125 
Q 38.28125 53.03125 44.875 45.953125 
Q 51.46875 38.875 51.46875 26.03125 
Q 51.46875 25.25 51.421875 23.6875 
L 12.75 23.6875 
Q 13.234375 15.140625 17.578125 10.59375 
Q 21.921875 6.0625 28.421875 6.0625 
Q 33.25 6.0625 36.671875 8.59375 
Q 40.09375 11.140625 42.09375 16.703125 
z
M 13.234375 30.90625 
L 42.1875 30.90625 
Q 41.609375 37.453125 38.875 40.71875 
Q 34.671875 45.796875 27.984375 45.796875 
Q 21.921875 45.796875 17.796875 41.75 
Q 13.671875 37.703125 13.234375 30.90625 
z
" id="ArialMT-65"/>
      <path id="ArialMT-20"/>
      <path d="M 6.59375 0 
L 6.59375 51.859375 
L 14.5 51.859375 
L 14.5 44.484375 
Q 20.21875 53.03125 31 53.03125 
Q 35.6875 53.03125 39.625 51.34375 
Q 43.5625 49.65625 45.515625 46.921875 
Q 47.46875 44.1875 48.25 40.4375 
Q 48.734375 37.984375 48.734375 31.890625 
L 48.734375 0 
L 39.9375 0 
L 39.9375 31.546875 
Q 39.9375 36.921875 38.90625 39.578125 
Q 37.890625 42.234375 35.28125 43.8125 
Q 32.671875 45.40625 29.15625 45.40625 
Q 23.53125 45.40625 19.453125 41.84375 
Q 15.375 38.28125 15.375 28.328125 
L 15.375 0 
z
" id="ArialMT-6e"/>
      <path d="M 4.984375 -4.296875 
L 13.53125 -5.5625 
Q 14.0625 -9.515625 16.5 -11.328125 
Q 19.78125 -13.765625 25.4375 -13.765625 
Q 31.546875 -13.765625 34.859375 -11.328125 
Q 38.1875 -8.890625 39.359375 -4.5 
Q 40.046875 -1.8125 39.984375 6.78125 
Q 34.234375 0 25.640625 0 
Q 14.9375 0 9.078125 7.71875 
Q 3.21875 15.4375 3.21875 26.21875 
Q 3.21875 33.640625 5.90625 39.90625 
Q 8.59375 46.1875 13.6875 49.609375 
Q 18.796875 53.03125 25.6875 53.03125 
Q 34.859375 53.03125 40.828125 45.609375 
L 40.828125 51.859375 
L 48.921875 51.859375 
L 48.921875 7.03125 
Q 48.921875 -5.078125 46.453125 -10.125 
Q 44 -15.1875 38.640625 -18.109375 
Q 33.296875 -21.046875 25.484375 -21.046875 
Q 16.21875 -21.046875 10.5 -16.875 
Q 4.78125 -12.703125 4.984375 -4.296875 
z
M 12.25 26.859375 
Q 12.25 16.65625 16.296875 11.96875 
Q 20.359375 7.28125 26.46875 7.28125 
Q 32.515625 7.28125 36.609375 11.9375 
Q 40.71875 16.609375 40.71875 26.5625 
Q 40.71875 36.078125 36.5 40.90625 
Q 32.28125 45.75 26.3125 45.75 
Q 20.453125 45.75 16.34375 40.984375 
Q 12.25 36.234375 12.25 26.859375 
z
" id="ArialMT-67"/>
      <path d="M 6.203125 -19.96875 
L 5.21875 -11.71875 
Q 8.109375 -12.5 10.25 -12.5 
Q 13.1875 -12.5 14.9375 -11.515625 
Q 16.703125 -10.546875 17.828125 -8.796875 
Q 18.65625 -7.46875 20.515625 -2.25 
Q 20.75 -1.515625 21.296875 -0.09375 
L 1.609375 51.859375 
L 11.078125 51.859375 
L 21.875 21.828125 
Q 23.96875 16.109375 25.640625 9.8125 
Q 27.15625 15.875 29.25 21.625 
L 40.328125 51.859375 
L 49.125 51.859375 
L 29.390625 -0.875 
Q 26.21875 -9.421875 24.46875 -12.640625 
Q 22.125 -17 19.09375 -19.015625 
Q 16.0625 -21.046875 11.859375 -21.046875 
Q 9.328125 -21.046875 6.203125 -19.96875 
z
" id="ArialMT-79"/>
      <path d="M 23.390625 -21.046875 
Q 16.109375 -11.859375 11.078125 0.4375 
Q 6.0625 12.75 6.0625 25.921875 
Q 6.0625 37.546875 9.8125 48.1875 
Q 14.203125 60.546875 23.390625 72.796875 
L 29.6875 72.796875 
Q 23.78125 62.640625 21.875 58.296875 
Q 18.890625 51.5625 17.1875 44.234375 
Q 15.09375 35.109375 15.09375 25.875 
Q 15.09375 2.390625 29.6875 -21.046875 
z
" id="ArialMT-28"/>
      <path d="M 18.3125 75.984375 
L 27.296875 75.984375 
L 18.703125 31.6875 
L 49.515625 54.6875 
L 61.1875 54.6875 
L 26.8125 28.515625 
L 51.90625 0 
L 41.015625 0 
L 17.671875 26.703125 
L 12.5 0 
L 3.515625 0 
z
" id="DejaVuSans-Oblique-6b"/>
      <path d="M 16.890625 72.90625 
L 42.09375 72.90625 
Q 52.34375 72.90625 57.421875 69.09375 
Q 62.5 65.28125 62.5 57.625 
Q 62.5 50.59375 58.125 45.484375 
Q 53.765625 40.375 46.6875 39.3125 
Q 52.734375 37.9375 55.765625 34.078125 
Q 58.796875 30.21875 58.796875 23.78125 
Q 58.796875 12.796875 50.65625 6.390625 
Q 42.53125 0 28.421875 0 
L 2.6875 0 
z
M 19.28125 34.8125 
L 14.109375 8.109375 
L 29.984375 8.109375 
Q 38.921875 8.109375 43.75 12.203125 
Q 48.578125 16.3125 48.578125 23.78125 
Q 48.578125 29.546875 45.375 32.171875 
Q 42.1875 34.8125 35.109375 34.8125 
z
M 25.09375 64.796875 
L 20.796875 42.828125 
L 35.5 42.828125 
Q 43.359375 42.828125 47.78125 46.234375 
Q 52.203125 49.65625 52.203125 55.71875 
Q 52.203125 60.453125 49.21875 62.625 
Q 46.234375 64.796875 39.703125 64.796875 
z
" id="DejaVuSans-Oblique-42"/>
      <path d="M 5.90625 72.90625 
L 67.578125 72.90625 
L 66.015625 64.59375 
L 39.984375 64.59375 
L 27.484375 0 
L 17.578125 0 
L 30.078125 64.59375 
L 4.296875 64.59375 
z
" id="DejaVuSans-Oblique-54"/>
      <path d="M 12.359375 -21.046875 
L 6.0625 -21.046875 
Q 20.65625 2.390625 20.65625 25.875 
Q 20.65625 35.0625 18.5625 44.09375 
Q 16.890625 51.421875 13.921875 58.15625 
Q 12.015625 62.546875 6.0625 72.796875 
L 12.359375 72.796875 
Q 21.53125 60.546875 25.921875 48.1875 
Q 29.6875 37.546875 29.6875 25.921875 
Q 29.6875 12.75 24.625 0.4375 
Q 19.578125 -11.859375 12.359375 -21.046875 
z
" id="ArialMT-29"/>
     </defs>
     <g style="fill:#262626;" transform="translate(21.945938 101.96)rotate(-90)scale(0.11 -0.11)">
      <use transform="translate(0 0.015625)" xlink:href="#ArialMT-46"/>
      <use transform="translate(61.083984 0.015625)" xlink:href="#ArialMT-72"/>
      <use transform="translate(94.384766 0.015625)" xlink:href="#ArialMT-65"/>
      <use transform="translate(150 0.015625)" xlink:href="#ArialMT-65"/>
      <use transform="translate(205.615234 0.015625)" xlink:href="#ArialMT-20"/>
      <use transform="translate(233.398438 0.015625)" xlink:href="#ArialMT-65"/>
      <use transform="translate(289.013672 0.015625)" xlink:href="#ArialMT-6e"/>
      <use transform="translate(344.628906 0.015625)" xlink:href="#ArialMT-65"/>
      <use transform="translate(400.244141 0.015625)" xlink:href="#ArialMT-72"/>
      <use transform="translate(433.544922 0.015625)" xlink:href="#ArialMT-67"/>
      <use transform="translate(489.160156 0.015625)" xlink:href="#ArialMT-79"/>
      <use transform="translate(539.160156 0.015625)" xlink:href="#ArialMT-20"/>
      <use transform="translate(566.943359 0.015625)" xlink:href="#ArialMT-28"/>
      <use transform="translate(600.244141 0.015625)" xlink:href="#DejaVuSans-Oblique-6b"/>
      <use transform="translate(658.154297 -16.390625)scale(0.7)" xlink:href="#DejaVuSans-Oblique-42"/>
      <use transform="translate(708.911133 0.015625)" xlink:href="#DejaVuSans-Oblique-54"/>
      <use transform="translate(769.995117 0.015625)" xlink:href="#ArialMT-29"/>
     </g>
    </g>
   </g>
   <g id="patch_3">
    <path d="M 47.6 101.92 
L 47.6 13.56 
" style="fill:none;stroke:#262626;stroke-linecap:square;stroke-linejoin:miter;stroke-width:0.8;"/>
   </g>
   <g id="patch_4">
    <path d="M 47.6 101.92 
L 130.44 101.92 
" style="fill:none;stroke:#262626;stroke-linecap:square;stroke-linejoin:miter;stroke-width:0.8;"/>
   </g>
   <g id="line2d_10">
    <path clip-path="url(#pe252156e8a)" d="M 51.365455 17.576364 
L 52.118545 18.302322 
L 52.871636 19.02828 
L 53.624727 19.754238 
L 54.377818 20.480196 
L 55.130909 21.206155 
L 55.884 21.932113 
L 56.637091 22.658071 
L 57.390182 23.384029 
L 58.143273 24.109987 
L 58.896364 24.835945 
L 59.649455 25.561904 
L 60.402545 26.287862 
L 61.155636 27.01382 
L 61.908727 27.739778 
L 62.661818 28.465736 
L 63.414909 29.191695 
L 64.168 29.917653 
L 64.921091 30.643611 
L 65.674182 31.369569 
L 66.427273 32.095527 
L 67.180364 32.821485 
L 67.933455 33.547444 
L 68.686545 34.273402 
L 69.439636 34.99936 
L 70.192727 35.725318 
L 70.945818 36.451276 
L 71.698909 37.177235 
L 72.452 37.903193 
L 73.205091 38.629151 
L 73.958182 39.355109 
L 74.711273 40.081067 
L 75.464364 40.807025 
L 76.217455 41.532984 
L 76.970545 42.258942 
L 77.723636 42.9849 
L 78.476727 43.710858 
L 79.229818 44.436816 
L 79.982909 45.162775 
L 80.736 45.888733 
L 81.489091 46.614691 
L 82.242182 47.340649 
L 82.995273 48.066607 
L 83.748364 48.792565 
L 84.501455 49.518524 
L 85.254545 50.244482 
L 86.007636 50.97044 
L 86.760727 51.696398 
L 87.513818 52.422356 
L 88.266909 53.148315 
L 89.02 53.874273 
L 89.773091 54.600231 
L 90.526182 55.326189 
L 91.279273 56.052147 
L 92.032364 56.778105 
L 92.785455 57.504064 
L 93.538545 58.230022 
L 94.291636 58.95598 
L 95.044727 59.681938 
L 95.797818 60.407896 
L 96.550909 61.133854 
L 97.304 61.859813 
L 98.057091 62.585771 
L 98.810182 63.311729 
L 99.563273 64.037687 
L 100.316364 64.763645 
L 101.069455 65.489604 
L 101.822545 66.215562 
L 102.575636 66.94152 
L 103.328727 67.667478 
L 104.081818 68.393436 
L 104.834909 69.119394 
L 105.588 69.845353 
L 106.341091 70.571311 
L 107.094182 71.297269 
L 107.847273 72.023227 
L 108.600364 72.749185 
L 109.353455 73.475144 
L 110.106545 74.201102 
L 110.859636 74.92706 
L 111.612727 75.653018 
L 112.365818 76.378976 
L 113.118909 77.104934 
L 113.872 77.830893 
L 114.625091 78.556851 
L 115.378182 79.282809 
L 116.131273 80.008767 
L 116.884364 80.734725 
L 117.637455 81.460684 
L 118.390545 82.186642 
L 119.143636 82.9126 
L 119.896727 83.638558 
L 120.649818 84.364516 
L 121.402909 85.090474 
L 122.156 85.816433 
L 122.909091 86.542391 
L 123.662182 87.268349 
L 124.415273 87.994307 
L 125.168364 88.720265 
L 125.921455 89.446224 
L 126.674545 90.172182 
" style="fill:none;stroke:#d6604d;stroke-linecap:round;stroke-width:1.5;"/>
   </g>
   <g id="line2d_11">
    <path clip-path="url(#pe252156e8a)" d="M 51.365455 68.284543 
L 52.118545 67.921563 
L 52.871636 67.558584 
L 53.624727 67.195605 
L 54.377818 66.832626 
L 55.130909 66.469647 
L 55.884 66.106668 
L 56.637091 65.743689 
L 57.390182 65.38071 
L 58.143273 65.017731 
L 58.896364 64.654752 
L 59.649455 64.291773 
L 60.402545 63.928793 
L 61.155636 63.565814 
L 61.908727 63.202835 
L 62.661818 62.839856 
L 63.414909 62.476877 
L 64.168 62.113898 
L 64.921091 61.750919 
L 65.674182 61.38794 
L 66.427273 61.024961 
L 67.180364 60.661982 
L 67.933455 60.299003 
L 68.686545 59.936023 
L 69.439636 59.573044 
L 70.192727 59.210065 
L 70.945818 58.847086 
L 71.698909 58.484107 
L 72.452 58.121128 
L 73.205091 57.758149 
L 73.958182 57.39517 
L 74.711273 57.032191 
L 75.464364 56.669212 
L 76.217455 56.306233 
L 76.970545 55.943254 
L 77.723636 55.580274 
L 78.476727 55.217295 
L 79.229818 54.854316 
L 79.982909 54.491337 
L 80.736 54.128358 
L 81.489091 53.765379 
L 82.242182 53.4024 
L 82.995273 53.039421 
L 83.748364 52.676442 
L 84.501455 52.313463 
L 85.254545 51.950484 
L 86.007636 51.587504 
L 86.760727 51.224525 
L 87.513818 50.861546 
L 88.266909 50.498567 
L 89.02 50.135588 
L 89.773091 49.772609 
L 90.526182 49.40963 
L 91.279273 49.046651 
L 92.032364 48.683672 
L 92.785455 48.320693 
L 93.538545 47.957714 
L 94.291636 47.594734 
L 95.044727 47.231755 
L 95.797818 46.868776 
L 96.550909 46.505797 
L 97.304 46.142818 
L 98.057091 45.779839 
L 98.810182 45.41686 
L 99.563273 45.053881 
L 100.316364 44.690902 
L 101.069455 44.327923 
L 101.822545 43.964944 
L 102.575636 43.601964 
L 103.328727 43.238985 
L 104.081818 42.876006 
L 104.834909 42.513027 
L 105.588 42.150048 
L 106.341091 41.787069 
L 107.094182 41.42409 
L 107.847273 41.061111 
L 108.600364 40.698132 
L 109.353455 40.335153 
L 110.106545 39.972174 
L 110.859636 39.609194 
L 111.612727 39.246215 
L 112.365818 38.883236 
L 113.118909 38.520257 
L 113.872 38.157278 
L 114.625091 37.794299 
L 115.378182 37.43132 
L 116.131273 37.068341 
L 116.884364 36.705362 
L 117.637455 36.342383 
L 118.390545 35.979404 
L 119.143636 35.616424 
L 119.896727 35.253445 
L 120.649818 34.890466 
L 121.402909 34.527487 
L 122.156 34.164508 
L 122.909091 33.801529 
L 123.662182 33.43855 
L 124.415273 33.075571 
L 125.168364 32.712592 
L 125.921455 32.349613 
L 126.674545 31.986634 
" style="fill:none;stroke:#92c5de;stroke-linecap:round;stroke-width:1.5;"/>
   </g>
   <g id="line2d_12">
    <path clip-path="url(#pe252156e8a)" d="M 51.365455 45.816137 
L 52.118545 46.179116 
L 52.871636 46.542095 
L 53.624727 46.905074 
L 54.377818 47.268053 
L 55.130909 47.631032 
L 55.884 47.994011 
L 56.637091 48.356991 
L 57.390182 48.71997 
L 58.143273 49.082949 
L 58.896364 49.445928 
L 59.649455 49.808907 
L 60.402545 50.171886 
L 61.155636 50.534865 
L 61.908727 50.897844 
L 62.661818 51.260823 
L 63.414909 51.623802 
L 64.168 51.986781 
L 64.921091 52.349761 
L 65.674182 52.71274 
L 66.427273 53.075719 
L 67.180364 53.438698 
L 67.933455 53.801677 
L 68.686545 54.164656 
L 69.439636 54.527635 
L 70.192727 54.890614 
L 70.945818 55.253593 
L 71.698909 55.616572 
L 72.452 55.979551 
L 73.205091 56.342531 
L 73.958182 56.70551 
L 74.711273 57.068489 
L 75.464364 57.431468 
L 76.217455 57.794447 
L 76.970545 58.157426 
L 77.723636 58.520405 
L 78.476727 58.883384 
L 79.229818 59.246363 
L 79.982909 59.609342 
L 80.736 59.972321 
L 81.489091 60.3353 
L 82.242182 60.69828 
L 82.995273 61.061259 
L 83.748364 61.424238 
L 84.501455 61.787217 
L 85.254545 62.150196 
L 86.007636 62.513175 
L 86.760727 62.876154 
L 87.513818 63.239133 
L 88.266909 63.602112 
L 89.02 63.965091 
L 89.773091 64.32807 
L 90.526182 64.69105 
L 91.279273 65.054029 
L 92.032364 65.417008 
L 92.785455 65.779987 
L 93.538545 66.142966 
L 94.291636 66.505945 
L 95.044727 66.868924 
L 95.797818 67.231903 
L 96.550909 67.594882 
L 97.304 67.957861 
L 98.057091 68.32084 
L 98.810182 68.68382 
L 99.563273 69.046799 
L 100.316364 69.409778 
L 101.069455 69.772757 
L 101.822545 70.135736 
L 102.575636 70.498715 
L 103.328727 70.861694 
L 104.081818 71.224673 
L 104.834909 71.587652 
L 105.588 71.950631 
L 106.341091 72.31361 
L 107.094182 72.67659 
L 107.847273 73.039569 
L 108.600364 73.402548 
L 109.353455 73.765527 
L 110.106545 74.128506 
L 110.859636 74.491485 
L 111.612727 74.854464 
L 112.365818 75.217443 
L 113.118909 75.580422 
L 113.872 75.943401 
L 114.625091 76.30638 
L 115.378182 76.66936 
L 116.131273 77.032339 
L 116.884364 77.395318 
L 117.637455 77.758297 
L 118.390545 78.121276 
L 119.143636 78.484255 
L 119.896727 78.847234 
L 120.649818 79.210213 
L 121.402909 79.573192 
L 122.156 79.936171 
L 122.909091 80.29915 
L 123.662182 80.66213 
L 124.415273 81.025109 
L 125.168364 81.388088 
L 125.921455 81.751067 
L 126.674545 82.114046 
" style="fill:none;stroke:#f4a582;stroke-linecap:round;stroke-width:1.5;"/>
   </g>
   <g id="line2d_13">
    <path clip-path="url(#pe252156e8a)" d="M 51.365455 36.487574 
L 52.118545 36.850553 
L 52.871636 37.213532 
L 53.624727 37.576512 
L 54.377818 37.939491 
L 55.130909 38.30247 
L 55.884 38.665449 
L 56.637091 39.028428 
L 57.390182 39.391407 
L 58.143273 39.754386 
L 58.896364 40.117365 
L 59.649455 40.480344 
L 60.402545 40.843323 
L 61.155636 41.206302 
L 61.908727 41.569282 
L 62.661818 41.932261 
L 63.414909 42.29524 
L 64.168 42.658219 
L 64.921091 43.021198 
L 65.674182 43.384177 
L 66.427273 43.747156 
L 67.180364 44.110135 
L 67.933455 44.473114 
L 68.686545 44.836093 
L 69.439636 45.199072 
L 70.192727 45.562052 
L 70.945818 45.925031 
L 71.698909 46.28801 
L 72.452 46.650989 
L 73.205091 47.013968 
L 73.958182 47.376947 
L 74.711273 47.739926 
L 75.464364 48.102905 
L 76.217455 48.465884 
L 76.970545 48.828863 
L 77.723636 49.191842 
L 78.476727 49.554822 
L 79.229818 49.917801 
L 79.982909 50.28078 
L 80.736 50.643759 
L 81.489091 51.006738 
L 82.242182 51.369717 
L 82.995273 51.732696 
L 83.748364 52.095675 
L 84.501455 52.458654 
L 85.254545 52.821633 
L 86.007636 53.184612 
L 86.760727 53.547592 
L 87.513818 53.910571 
L 88.266909 54.27355 
L 89.02 54.636529 
L 89.773091 54.999508 
L 90.526182 55.362487 
L 91.279273 55.725466 
L 92.032364 56.088445 
L 92.785455 56.451424 
L 93.538545 56.814403 
L 94.291636 57.177382 
L 95.044727 57.540362 
L 95.797818 57.903341 
L 96.550909 58.26632 
L 97.304 58.629299 
L 98.057091 58.992278 
L 98.810182 59.355257 
L 99.563273 59.718236 
L 100.316364 60.081215 
L 101.069455 60.444194 
L 101.822545 60.807173 
L 102.575636 61.170152 
L 103.328727 61.533131 
L 104.081818 61.896111 
L 104.834909 62.25909 
L 105.588 62.622069 
L 106.341091 62.985048 
L 107.094182 63.348027 
L 107.847273 63.711006 
L 108.600364 64.073985 
L 109.353455 64.436964 
L 110.106545 64.799943 
L 110.859636 65.162922 
L 111.612727 65.525901 
L 112.365818 65.888881 
L 113.118909 66.25186 
L 113.872 66.614839 
L 114.625091 66.977818 
L 115.378182 67.340797 
L 116.131273 67.703776 
L 116.884364 68.066755 
L 117.637455 68.429734 
L 118.390545 68.792713 
L 119.143636 69.155692 
L 119.896727 69.518671 
L 120.649818 69.881651 
L 121.402909 70.24463 
L 122.156 70.607609 
L 122.909091 70.970588 
L 123.662182 71.333567 
L 124.415273 71.696546 
L 125.168364 72.059525 
L 125.921455 72.422504 
L 126.674545 72.785483 
" style="fill:none;stroke:#f4a582;stroke-linecap:round;stroke-width:1.5;"/>
   </g>
   <g id="line2d_14">
    <path clip-path="url(#pe252156e8a)" d="M 51.365455 61.605727 
L 52.118545 61.968706 
L 52.871636 62.331685 
L 53.624727 62.694665 
L 54.377818 63.057644 
L 55.130909 63.420623 
L 55.884 63.783602 
L 56.637091 64.146581 
L 57.390182 64.50956 
L 58.143273 64.872539 
L 58.896364 65.235518 
L 59.649455 65.598497 
L 60.402545 65.961476 
L 61.155636 66.324455 
L 61.908727 66.687435 
L 62.661818 67.050414 
L 63.414909 67.413393 
L 64.168 67.776372 
L 64.921091 68.139351 
L 65.674182 68.50233 
L 66.427273 68.865309 
L 67.180364 69.228288 
L 67.933455 69.591267 
L 68.686545 69.954246 
L 69.439636 70.317225 
L 70.192727 70.680205 
L 70.945818 71.043184 
L 71.698909 71.406163 
L 72.452 71.769142 
L 73.205091 72.132121 
L 73.958182 72.4951 
L 74.711273 72.858079 
L 75.464364 73.221058 
L 76.217455 73.584037 
L 76.970545 73.947016 
L 77.723636 74.309995 
L 78.476727 74.672975 
L 79.229818 75.035954 
L 79.982909 75.398933 
L 80.736 75.761912 
L 81.489091 76.124891 
L 82.242182 76.48787 
L 82.995273 76.850849 
L 83.748364 77.213828 
L 84.501455 77.576807 
L 85.254545 77.939786 
L 86.007636 78.302765 
L 86.760727 78.665745 
L 87.513818 79.028724 
L 88.266909 79.391703 
L 89.02 79.754682 
L 89.773091 80.117661 
L 90.526182 80.48064 
L 91.279273 80.843619 
L 92.032364 81.206598 
L 92.785455 81.569577 
L 93.538545 81.932556 
L 94.291636 82.295535 
L 95.044727 82.658515 
L 95.797818 83.021494 
L 96.550909 83.384473 
L 97.304 83.747452 
L 98.057091 84.110431 
L 98.810182 84.47341 
L 99.563273 84.836389 
L 100.316364 85.199368 
L 101.069455 85.562347 
L 101.822545 85.925326 
L 102.575636 86.288305 
L 103.328727 86.651285 
L 104.081818 87.014264 
L 104.834909 87.377243 
L 105.588 87.740222 
L 106.341091 88.103201 
L 107.094182 88.46618 
L 107.847273 88.829159 
L 108.600364 89.192138 
L 109.353455 89.555117 
L 110.106545 89.918096 
L 110.859636 90.281075 
L 111.612727 90.644055 
L 112.365818 91.007034 
L 113.118909 91.370013 
L 113.872 91.732992 
L 114.625091 92.095971 
L 115.378182 92.45895 
L 116.131273 92.821929 
L 116.884364 93.184908 
L 117.637455 93.547887 
L 118.390545 93.910866 
L 119.143636 94.273845 
L 119.896727 94.636825 
L 120.649818 94.999804 
L 121.402909 95.362783 
L 122.156 95.725762 
L 122.909091 96.088741 
L 123.662182 96.45172 
L 124.415273 96.814699 
L 125.168364 97.177678 
L 125.921455 97.540657 
L 126.674545 97.903636 
" style="fill:none;stroke:#f4a582;stroke-linecap:round;stroke-width:1.5;"/>
   </g>
   <g id="line2d_15">
    <path clip-path="url(#pe252156e8a)" d="M 51.365455 68.647522 
L 52.118545 68.284543 
L 52.871636 67.921563 
L 53.624727 67.558584 
L 54.377818 67.195605 
L 55.130909 66.832626 
L 55.884 66.469647 
L 56.637091 66.106668 
L 57.390182 65.743689 
L 58.143273 65.38071 
L 58.896364 65.017731 
L 59.649455 64.654752 
L 60.402545 64.291773 
L 61.155636 63.928793 
L 61.908727 63.565814 
L 62.661818 63.202835 
L 63.414909 62.839856 
L 64.168 62.476877 
L 64.921091 62.113898 
L 65.674182 61.750919 
L 66.427273 61.38794 
L 67.180364 61.024961 
L 67.933455 60.661982 
L 68.686545 60.299003 
L 69.439636 59.936023 
L 70.192727 59.573044 
L 70.945818 59.210065 
L 71.698909 58.847086 
L 72.452 58.484107 
L 73.205091 58.121128 
L 73.958182 57.758149 
L 74.711273 57.39517 
L 75.464364 57.032191 
L 76.217455 56.669212 
L 76.970545 56.306233 
L 77.723636 55.943254 
L 78.476727 55.580274 
L 79.229818 55.217295 
L 79.982909 54.854316 
L 80.736 54.491337 
L 81.489091 54.128358 
L 82.242182 53.765379 
L 82.995273 53.4024 
L 83.748364 53.039421 
L 84.501455 52.676442 
L 85.254545 52.313463 
L 86.007636 51.950484 
L 86.760727 51.587504 
L 87.513818 51.224525 
L 88.266909 50.861546 
L 89.02 50.498567 
L 89.773091 50.135588 
L 90.526182 49.772609 
L 91.279273 49.40963 
L 92.032364 49.046651 
L 92.785455 48.683672 
L 93.538545 48.320693 
L 94.291636 47.957714 
L 95.044727 47.594734 
L 95.797818 47.231755 
L 96.550909 46.868776 
L 97.304 46.505797 
L 98.057091 46.142818 
L 98.810182 45.779839 
L 99.563273 45.41686 
L 100.316364 45.053881 
L 101.069455 44.690902 
L 101.822545 44.327923 
L 102.575636 43.964944 
L 103.328727 43.601964 
L 104.081818 43.238985 
L 104.834909 42.876006 
L 105.588 42.513027 
L 106.341091 42.150048 
L 107.094182 41.787069 
L 107.847273 41.42409 
L 108.600364 41.061111 
L 109.353455 40.698132 
L 110.106545 40.335153 
L 110.859636 39.972174 
L 111.612727 39.609194 
L 112.365818 39.246215 
L 113.118909 38.883236 
L 113.872 38.520257 
L 114.625091 38.157278 
L 115.378182 37.794299 
L 116.131273 37.43132 
L 116.884364 37.068341 
L 117.637455 36.705362 
L 118.390545 36.342383 
L 119.143636 35.979404 
L 119.896727 35.616424 
L 120.649818 35.253445 
L 121.402909 34.890466 
L 122.156 34.527487 
L 122.909091 34.164508 
L 123.662182 33.801529 
L 124.415273 33.43855 
L 125.168364 33.075571 
L 125.921455 32.712592 
L 126.674545 32.349613 
" style="fill:none;stroke:#92c5de;stroke-linecap:round;stroke-width:1.5;"/>
   </g>
   <g id="line2d_16">
    <path clip-path="url(#pe252156e8a)" d="M 51.365455 85.235666 
L 52.118545 84.872687 
L 52.871636 84.509708 
L 53.624727 84.146729 
L 54.377818 83.78375 
L 55.130909 83.420771 
L 55.884 83.057792 
L 56.637091 82.694812 
L 57.390182 82.331833 
L 58.143273 81.968854 
L 58.896364 81.605875 
L 59.649455 81.242896 
L 60.402545 80.879917 
L 61.155636 80.516938 
L 61.908727 80.153959 
L 62.661818 79.79098 
L 63.414909 79.428001 
L 64.168 79.065022 
L 64.921091 78.702042 
L 65.674182 78.339063 
L 66.427273 77.976084 
L 67.180364 77.613105 
L 67.933455 77.250126 
L 68.686545 76.887147 
L 69.439636 76.524168 
L 70.192727 76.161189 
L 70.945818 75.79821 
L 71.698909 75.435231 
L 72.452 75.072252 
L 73.205091 74.709272 
L 73.958182 74.346293 
L 74.711273 73.983314 
L 75.464364 73.620335 
L 76.217455 73.257356 
L 76.970545 72.894377 
L 77.723636 72.531398 
L 78.476727 72.168419 
L 79.229818 71.80544 
L 79.982909 71.442461 
L 80.736 71.079482 
L 81.489091 70.716502 
L 82.242182 70.353523 
L 82.995273 69.990544 
L 83.748364 69.627565 
L 84.501455 69.264586 
L 85.254545 68.901607 
L 86.007636 68.538628 
L 86.760727 68.175649 
L 87.513818 67.81267 
L 88.266909 67.449691 
L 89.02 67.086712 
L 89.773091 66.723732 
L 90.526182 66.360753 
L 91.279273 65.997774 
L 92.032364 65.634795 
L 92.785455 65.271816 
L 93.538545 64.908837 
L 94.291636 64.545858 
L 95.044727 64.182879 
L 95.797818 63.8199 
L 96.550909 63.456921 
L 97.304 63.093942 
L 98.057091 62.730962 
L 98.810182 62.367983 
L 99.563273 62.005004 
L 100.316364 61.642025 
L 101.069455 61.279046 
L 101.822545 60.916067 
L 102.575636 60.553088 
L 103.328727 60.190109 
L 104.081818 59.82713 
L 104.834909 59.464151 
L 105.588 59.101172 
L 106.341091 58.738192 
L 107.094182 58.375213 
L 107.847273 58.012234 
L 108.600364 57.649255 
L 109.353455 57.286276 
L 110.106545 56.923297 
L 110.859636 56.560318 
L 111.612727 56.197339 
L 112.365818 55.83436 
L 113.118909 55.471381 
L 113.872 55.108402 
L 114.625091 54.745423 
L 115.378182 54.382443 
L 116.131273 54.019464 
L 116.884364 53.656485 
L 117.637455 53.293506 
L 118.390545 52.930527 
L 119.143636 52.567548 
L 119.896727 52.204569 
L 120.649818 51.84159 
L 121.402909 51.478611 
L 122.156 51.115632 
L 122.909091 50.752653 
L 123.662182 50.389673 
L 124.415273 50.026694 
L 125.168364 49.663715 
L 125.921455 49.300736 
L 126.674545 48.937757 
" style="fill:none;stroke:#92c5de;stroke-linecap:round;stroke-width:1.5;"/>
   </g>
   <g id="line2d_17">
    <path clip-path="url(#pe252156e8a)" d="M 51.365455 73.838123 
L 52.118545 73.475144 
L 52.871636 73.112164 
L 53.624727 72.749185 
L 54.377818 72.386206 
L 55.130909 72.023227 
L 55.884 71.660248 
L 56.637091 71.297269 
L 57.390182 70.93429 
L 58.143273 70.571311 
L 58.896364 70.208332 
L 59.649455 69.845353 
L 60.402545 69.482374 
L 61.155636 69.119394 
L 61.908727 68.756415 
L 62.661818 68.393436 
L 63.414909 68.030457 
L 64.168 67.667478 
L 64.921091 67.304499 
L 65.674182 66.94152 
L 66.427273 66.578541 
L 67.180364 66.215562 
L 67.933455 65.852583 
L 68.686545 65.489604 
L 69.439636 65.126624 
L 70.192727 64.763645 
L 70.945818 64.400666 
L 71.698909 64.037687 
L 72.452 63.674708 
L 73.205091 63.311729 
L 73.958182 62.94875 
L 74.711273 62.585771 
L 75.464364 62.222792 
L 76.217455 61.859813 
L 76.970545 61.496834 
L 77.723636 61.133854 
L 78.476727 60.770875 
L 79.229818 60.407896 
L 79.982909 60.044917 
L 80.736 59.681938 
L 81.489091 59.318959 
L 82.242182 58.95598 
L 82.995273 58.593001 
L 83.748364 58.230022 
L 84.501455 57.867043 
L 85.254545 57.504064 
L 86.007636 57.141085 
L 86.760727 56.778105 
L 87.513818 56.415126 
L 88.266909 56.052147 
L 89.02 55.689168 
L 89.773091 55.326189 
L 90.526182 54.96321 
L 91.279273 54.600231 
L 92.032364 54.237252 
L 92.785455 53.874273 
L 93.538545 53.511294 
L 94.291636 53.148315 
L 95.044727 52.785335 
L 95.797818 52.422356 
L 96.550909 52.059377 
L 97.304 51.696398 
L 98.057091 51.333419 
L 98.810182 50.97044 
L 99.563273 50.607461 
L 100.316364 50.244482 
L 101.069455 49.881503 
L 101.822545 49.518524 
L 102.575636 49.155545 
L 103.328727 48.792565 
L 104.081818 48.429586 
L 104.834909 48.066607 
L 105.588 47.703628 
L 106.341091 47.340649 
L 107.094182 46.97767 
L 107.847273 46.614691 
L 108.600364 46.251712 
L 109.353455 45.888733 
L 110.106545 45.525754 
L 110.859636 45.162775 
L 111.612727 44.799795 
L 112.365818 44.436816 
L 113.118909 44.073837 
L 113.872 43.710858 
L 114.625091 43.347879 
L 115.378182 42.9849 
L 116.131273 42.621921 
L 116.884364 42.258942 
L 117.637455 41.895963 
L 118.390545 41.532984 
L 119.143636 41.170005 
L 119.896727 40.807025 
L 120.649818 40.444046 
L 121.402909 40.081067 
L 122.156 39.718088 
L 122.909091 39.355109 
L 123.662182 38.99213 
L 124.415273 38.629151 
L 125.168364 38.266172 
L 125.921455 37.903193 
L 126.674545 37.540214 
" style="fill:none;stroke:#92c5de;stroke-linecap:round;stroke-width:1.5;"/>
   </g>
   <g id="line2d_18">
    <path clip-path="url(#pe252156e8a)" d="M 51.365455 85.816433 
L 52.118545 85.816433 
L 52.871636 85.816433 
L 53.624727 85.816433 
L 54.377818 85.816433 
L 55.130909 85.816433 
L 55.884 85.816433 
L 56.637091 85.816433 
L 57.390182 85.816433 
L 58.143273 85.816433 
L 58.896364 85.816433 
L 59.649455 85.816433 
L 60.402545 85.816433 
L 61.155636 85.816433 
L 61.908727 85.816433 
L 62.661818 85.816433 
L 63.414909 85.816433 
L 64.168 85.816433 
L 64.921091 85.816433 
L 65.674182 85.816433 
L 66.427273 85.816433 
L 67.180364 85.816433 
L 67.933455 85.816433 
L 68.686545 85.816433 
L 69.439636 85.816433 
L 70.192727 85.816433 
L 70.945818 85.816433 
L 71.698909 85.816433 
L 72.452 85.816433 
L 73.205091 85.816433 
L 73.958182 85.816433 
L 74.711273 85.816433 
L 75.464364 85.816433 
L 76.217455 85.816433 
L 76.970545 85.816433 
L 77.723636 85.816433 
L 78.476727 85.816433 
L 79.229818 85.816433 
L 79.982909 85.816433 
L 80.736 85.816433 
L 81.489091 85.816433 
L 82.242182 85.816433 
L 82.995273 85.816433 
L 83.748364 85.816433 
L 84.501455 85.816433 
L 85.254545 85.816433 
L 86.007636 85.816433 
L 86.760727 85.816433 
L 87.513818 85.816433 
L 88.266909 85.816433 
L 89.02 85.816433 
L 89.773091 85.816433 
L 90.526182 85.816433 
L 91.279273 85.816433 
L 92.032364 85.816433 
L 92.785455 85.816433 
L 93.538545 85.816433 
L 94.291636 85.816433 
L 95.044727 85.816433 
L 95.797818 85.816433 
L 96.550909 85.816433 
L 97.304 85.816433 
L 98.057091 85.816433 
L 98.810182 85.816433 
L 99.563273 85.816433 
L 100.316364 85.816433 
L 101.069455 85.816433 
L 101.822545 85.816433 
L 102.575636 85.816433 
L 103.328727 85.816433 
L 104.081818 85.816433 
L 104.834909 85.816433 
L 105.588 85.816433 
L 106.341091 85.816433 
L 107.094182 85.816433 
L 107.847273 85.816433 
L 108.600364 85.816433 
L 109.353455 85.816433 
L 110.106545 85.816433 
L 110.859636 85.816433 
L 111.612727 85.816433 
L 112.365818 85.816433 
L 113.118909 85.816433 
L 113.872 85.816433 
L 114.625091 85.816433 
L 115.378182 85.816433 
L 116.131273 85.816433 
L 116.884364 85.816433 
L 117.637455 85.816433 
L 118.390545 85.816433 
L 119.143636 85.816433 
L 119.896727 85.816433 
L 120.649818 85.816433 
L 121.402909 85.816433 
L 122.156 85.816433 
L 122.909091 85.816433 
L 123.662182 85.816433 
L 124.415273 85.816433 
L 125.168364 85.816433 
L 125.921455 85.816433 
L 126.674545 85.816433 
" style="fill:none;stroke:#333333;stroke-linecap:round;stroke-width:1.5;"/>
   </g>
   <g id="line2d_19">
    <path clip-path="url(#pe252156e8a)" d="M 51.365455 80.371746 
L 52.118545 80.371746 
L 52.871636 80.371746 
L 53.624727 80.371746 
L 54.377818 80.371746 
L 55.130909 80.371746 
L 55.884 80.371746 
L 56.637091 80.371746 
L 57.390182 80.371746 
L 58.143273 80.371746 
L 58.896364 80.371746 
L 59.649455 80.371746 
L 60.402545 80.371746 
L 61.155636 80.371746 
L 61.908727 80.371746 
L 62.661818 80.371746 
L 63.414909 80.371746 
L 64.168 80.371746 
L 64.921091 80.371746 
L 65.674182 80.371746 
L 66.427273 80.371746 
L 67.180364 80.371746 
L 67.933455 80.371746 
L 68.686545 80.371746 
L 69.439636 80.371746 
L 70.192727 80.371746 
L 70.945818 80.371746 
L 71.698909 80.371746 
L 72.452 80.371746 
L 73.205091 80.371746 
L 73.958182 80.371746 
L 74.711273 80.371746 
L 75.464364 80.371746 
L 76.217455 80.371746 
L 76.970545 80.371746 
L 77.723636 80.371746 
L 78.476727 80.371746 
L 79.229818 80.371746 
L 79.982909 80.371746 
L 80.736 80.371746 
L 81.489091 80.371746 
L 82.242182 80.371746 
L 82.995273 80.371746 
L 83.748364 80.371746 
L 84.501455 80.371746 
L 85.254545 80.371746 
L 86.007636 80.371746 
L 86.760727 80.371746 
L 87.513818 80.371746 
L 88.266909 80.371746 
L 89.02 80.371746 
L 89.773091 80.371746 
L 90.526182 80.371746 
L 91.279273 80.371746 
L 92.032364 80.371746 
L 92.785455 80.371746 
L 93.538545 80.371746 
L 94.291636 80.371746 
L 95.044727 80.371746 
L 95.797818 80.371746 
L 96.550909 80.371746 
L 97.304 80.371746 
L 98.057091 80.371746 
L 98.810182 80.371746 
L 99.563273 80.371746 
L 100.316364 80.371746 
L 101.069455 80.371746 
L 101.822545 80.371746 
L 102.575636 80.371746 
L 103.328727 80.371746 
L 104.081818 80.371746 
L 104.834909 80.371746 
L 105.588 80.371746 
L 106.341091 80.371746 
L 107.094182 80.371746 
L 107.847273 80.371746 
L 108.600364 80.371746 
L 109.353455 80.371746 
L 110.106545 80.371746 
L 110.859636 80.371746 
L 111.612727 80.371746 
L 112.365818 80.371746 
L 113.118909 80.371746 
L 113.872 80.371746 
L 114.625091 80.371746 
L 115.378182 80.371746 
L 116.131273 80.371746 
L 116.884364 80.371746 
L 117.637455 80.371746 
L 118.390545 80.371746 
L 119.143636 80.371746 
L 119.896727 80.371746 
L 120.649818 80.371746 
L 121.402909 80.371746 
L 122.156 80.371746 
L 122.909091 80.371746 
L 123.662182 80.371746 
L 124.415273 80.371746 
L 125.168364 80.371746 
L 125.921455 80.371746 
L 126.674545 80.371746 
" style="fill:none;stroke:#333333;stroke-linecap:round;stroke-width:1.5;"/>
   </g>
   <g id="line2d_20">
    <path clip-path="url(#pe252156e8a)" d="M 51.365455 50.135588 
L 52.118545 50.135588 
L 52.871636 50.135588 
L 53.624727 50.135588 
L 54.377818 50.135588 
L 55.130909 50.135588 
L 55.884 50.135588 
L 56.637091 50.135588 
L 57.390182 50.135588 
L 58.143273 50.135588 
L 58.896364 50.135588 
L 59.649455 50.135588 
L 60.402545 50.135588 
L 61.155636 50.135588 
L 61.908727 50.135588 
L 62.661818 50.135588 
L 63.414909 50.135588 
L 64.168 50.135588 
L 64.921091 50.135588 
L 65.674182 50.135588 
L 66.427273 50.135588 
L 67.180364 50.135588 
L 67.933455 50.135588 
L 68.686545 50.135588 
L 69.439636 50.135588 
L 70.192727 50.135588 
L 70.945818 50.135588 
L 71.698909 50.135588 
L 72.452 50.135588 
L 73.205091 50.135588 
L 73.958182 50.135588 
L 74.711273 50.135588 
L 75.464364 50.135588 
L 76.217455 50.135588 
L 76.970545 50.135588 
L 77.723636 50.135588 
L 78.476727 50.135588 
L 79.229818 50.135588 
L 79.982909 50.135588 
L 80.736 50.135588 
L 81.489091 50.135588 
L 82.242182 50.135588 
L 82.995273 50.135588 
L 83.748364 50.135588 
L 84.501455 50.135588 
L 85.254545 50.135588 
L 86.007636 50.135588 
L 86.760727 50.135588 
L 87.513818 50.135588 
L 88.266909 50.135588 
L 89.02 50.135588 
L 89.773091 50.135588 
L 90.526182 50.135588 
L 91.279273 50.135588 
L 92.032364 50.135588 
L 92.785455 50.135588 
L 93.538545 50.135588 
L 94.291636 50.135588 
L 95.044727 50.135588 
L 95.797818 50.135588 
L 96.550909 50.135588 
L 97.304 50.135588 
L 98.057091 50.135588 
L 98.810182 50.135588 
L 99.563273 50.135588 
L 100.316364 50.135588 
L 101.069455 50.135588 
L 101.822545 50.135588 
L 102.575636 50.135588 
L 103.328727 50.135588 
L 104.081818 50.135588 
L 104.834909 50.135588 
L 105.588 50.135588 
L 106.341091 50.135588 
L 107.094182 50.135588 
L 107.847273 50.135588 
L 108.600364 50.135588 
L 109.353455 50.135588 
L 110.106545 50.135588 
L 110.859636 50.135588 
L 111.612727 50.135588 
L 112.365818 50.135588 
L 113.118909 50.135588 
L 113.872 50.135588 
L 114.625091 50.135588 
L 115.378182 50.135588 
L 116.131273 50.135588 
L 116.884364 50.135588 
L 117.637455 50.135588 
L 118.390545 50.135588 
L 119.143636 50.135588 
L 119.896727 50.135588 
L 120.649818 50.135588 
L 121.402909 50.135588 
L 122.156 50.135588 
L 122.909091 50.135588 
L 123.662182 50.135588 
L 124.415273 50.135588 
L 125.168364 50.135588 
L 125.921455 50.135588 
L 126.674545 50.135588 
" style="fill:none;stroke:#333333;stroke-linecap:round;stroke-width:1.5;"/>
   </g>
  </g>
 </g>
 <defs>
  <clipPath id="pe252156e8a">
   <rect height="88.36" width="82.84" x="47.6" y="13.56"/>
  </clipPath>
 </defs>
</svg>
