<?xml version="1.0" encoding="utf-8" standalone="no"?>
<!DOCTYPE svg PUBLIC "-//W3C//DTD SVG 1.1//EN"
  "http://www.w3.org/Graphics/SVG/1.1/DTD/svg11.dtd">
<!-- Created with matplotlib (http://matplotlib.org/) -->
<svg height="216pt" version="1.1" viewBox="0 0 216 216" width="216pt" xmlns="http://www.w3.org/2000/svg" xmlns:xlink="http://www.w3.org/1999/xlink">
 <defs>
  <style type="text/css">
*{stroke-linecap:butt;stroke-linejoin:round;}
  </style>
 </defs>
 <g id="figure_1">
  <g id="patch_1">
   <path d="M 0 216 
L 216 216 
L 216 0 
L 0 0 
z
" style="fill:#ffffff;"/>
  </g>
  <g id="axes_1">
   <g id="patch_2">
    <path d="M 44.78 175.96 
L 203.52 175.96 
L 203.52 25.44 
L 44.78 25.44 
z
" style="fill:#ffffff;"/>
   </g>
   <g id="matplotlib.axis_1">
    <g id="xtick_1">
     <g id="line2d_1">
      <defs>
       <path d="M 0 0 
L 0 3.5 
" id="me1f1e36621" style="stroke:#262626;stroke-width:0.8;"/>
      </defs>
      <g>
       <use style="fill:#262626;stroke:#262626;stroke-width:0.8;" x="51.995455" xlink:href="#me1f1e36621" y="175.96"/>
      </g>
     </g>
     <g id="text_1">
      <!-- 2 -->
      <defs>
       <path d="M 50.34375 8.453125 
L 50.34375 0 
L 3.03125 0 
Q 2.9375 3.171875 4.046875 6.109375 
Q 5.859375 10.9375 9.828125 15.625 
Q 13.8125 20.3125 21.34375 26.46875 
Q 33.015625 36.03125 37.109375 41.625 
Q 41.21875 47.21875 41.21875 52.203125 
Q 41.21875 57.421875 37.46875 61 
Q 33.734375 64.59375 27.734375 64.59375 
Q 21.390625 64.59375 17.578125 60.78125 
Q 13.765625 56.984375 13.71875 50.25 
L 4.6875 51.171875 
Q 5.609375 61.28125 11.65625 66.578125 
Q 17.71875 71.875 27.9375 71.875 
Q 38.234375 71.875 44.234375 66.15625 
Q 50.25 60.453125 50.25 52 
Q 50.25 47.703125 48.484375 43.546875 
Q 46.734375 39.40625 42.65625 34.8125 
Q 38.578125 30.21875 29.109375 22.21875 
Q 21.1875 15.578125 18.9375 13.203125 
Q 16.703125 10.84375 15.234375 8.453125 
z
" id="ArialMT-32"/>
      </defs>
      <g style="fill:#262626;" transform="translate(49.214986 190.117812)scale(0.1 -0.1)">
       <use xlink:href="#ArialMT-32"/>
      </g>
     </g>
    </g>
    <g id="xtick_2">
     <g id="line2d_2">
      <g>
       <use style="fill:#262626;stroke:#262626;stroke-width:0.8;" x="80.857273" xlink:href="#me1f1e36621" y="175.96"/>
      </g>
     </g>
     <g id="text_2">
      <!-- 4 -->
      <defs>
       <path d="M 32.328125 0 
L 32.328125 17.140625 
L 1.265625 17.140625 
L 1.265625 25.203125 
L 33.9375 71.578125 
L 41.109375 71.578125 
L 41.109375 25.203125 
L 50.78125 25.203125 
L 50.78125 17.140625 
L 41.109375 17.140625 
L 41.109375 0 
z
M 32.328125 25.203125 
L 32.328125 57.46875 
L 9.90625 25.203125 
z
" id="ArialMT-34"/>
      </defs>
      <g style="fill:#262626;" transform="translate(78.076804 190.117812)scale(0.1 -0.1)">
       <use xlink:href="#ArialMT-34"/>
      </g>
     </g>
    </g>
    <g id="xtick_3">
     <g id="line2d_3">
      <g>
       <use style="fill:#262626;stroke:#262626;stroke-width:0.8;" x="109.719091" xlink:href="#me1f1e36621" y="175.96"/>
      </g>
     </g>
     <g id="text_3">
      <!-- 6 -->
      <defs>
       <path d="M 49.75 54.046875 
L 41.015625 53.375 
Q 39.84375 58.546875 37.703125 60.890625 
Q 34.125 64.65625 28.90625 64.65625 
Q 24.703125 64.65625 21.53125 62.3125 
Q 17.390625 59.28125 14.984375 53.46875 
Q 12.59375 47.65625 12.5 36.921875 
Q 15.671875 41.75 20.265625 44.09375 
Q 24.859375 46.4375 29.890625 46.4375 
Q 38.671875 46.4375 44.84375 39.96875 
Q 51.03125 33.5 51.03125 23.25 
Q 51.03125 16.5 48.125 10.71875 
Q 45.21875 4.9375 40.140625 1.859375 
Q 35.0625 -1.21875 28.609375 -1.21875 
Q 17.625 -1.21875 10.6875 6.859375 
Q 3.765625 14.9375 3.765625 33.5 
Q 3.765625 54.25 11.421875 63.671875 
Q 18.109375 71.875 29.4375 71.875 
Q 37.890625 71.875 43.28125 67.140625 
Q 48.6875 62.40625 49.75 54.046875 
z
M 13.875 23.1875 
Q 13.875 18.65625 15.796875 14.5 
Q 17.71875 10.359375 21.1875 8.171875 
Q 24.65625 6 28.46875 6 
Q 34.03125 6 38.03125 10.484375 
Q 42.046875 14.984375 42.046875 22.703125 
Q 42.046875 30.125 38.078125 34.390625 
Q 34.125 38.671875 28.125 38.671875 
Q 22.171875 38.671875 18.015625 34.390625 
Q 13.875 30.125 13.875 23.1875 
z
" id="ArialMT-36"/>
      </defs>
      <g style="fill:#262626;" transform="translate(106.938622 190.117812)scale(0.1 -0.1)">
       <use xlink:href="#ArialMT-36"/>
      </g>
     </g>
    </g>
    <g id="xtick_4">
     <g id="line2d_4">
      <g>
       <use style="fill:#262626;stroke:#262626;stroke-width:0.8;" x="138.580909" xlink:href="#me1f1e36621" y="175.96"/>
      </g>
     </g>
     <g id="text_4">
      <!-- 8 -->
      <defs>
       <path d="M 17.671875 38.8125 
Q 12.203125 40.828125 9.5625 44.53125 
Q 6.9375 48.25 6.9375 53.421875 
Q 6.9375 61.234375 12.546875 66.546875 
Q 18.171875 71.875 27.484375 71.875 
Q 36.859375 71.875 42.578125 66.421875 
Q 48.296875 60.984375 48.296875 53.171875 
Q 48.296875 48.1875 45.671875 44.5 
Q 43.0625 40.828125 37.75 38.8125 
Q 44.34375 36.671875 47.78125 31.875 
Q 51.21875 27.09375 51.21875 20.453125 
Q 51.21875 11.28125 44.71875 5.03125 
Q 38.234375 -1.21875 27.640625 -1.21875 
Q 17.046875 -1.21875 10.546875 5.046875 
Q 4.046875 11.328125 4.046875 20.703125 
Q 4.046875 27.6875 7.59375 32.390625 
Q 11.140625 37.109375 17.671875 38.8125 
z
M 15.921875 53.71875 
Q 15.921875 48.640625 19.1875 45.40625 
Q 22.46875 42.1875 27.6875 42.1875 
Q 32.765625 42.1875 36.015625 45.375 
Q 39.265625 48.578125 39.265625 53.21875 
Q 39.265625 58.0625 35.90625 61.359375 
Q 32.5625 64.65625 27.59375 64.65625 
Q 22.5625 64.65625 19.234375 61.421875 
Q 15.921875 58.203125 15.921875 53.71875 
z
M 13.09375 20.65625 
Q 13.09375 16.890625 14.875 13.375 
Q 16.65625 9.859375 20.171875 7.921875 
Q 23.6875 6 27.734375 6 
Q 34.03125 6 38.125 10.046875 
Q 42.234375 14.109375 42.234375 20.359375 
Q 42.234375 26.703125 38.015625 30.859375 
Q 33.796875 35.015625 27.4375 35.015625 
Q 21.234375 35.015625 17.15625 30.90625 
Q 13.09375 26.8125 13.09375 20.65625 
z
" id="ArialMT-38"/>
      </defs>
      <g style="fill:#262626;" transform="translate(135.80044 190.117812)scale(0.1 -0.1)">
       <use xlink:href="#ArialMT-38"/>
      </g>
     </g>
    </g>
    <g id="xtick_5">
     <g id="line2d_5">
      <g>
       <use style="fill:#262626;stroke:#262626;stroke-width:0.8;" x="167.442727" xlink:href="#me1f1e36621" y="175.96"/>
      </g>
     </g>
     <g id="text_5">
      <!-- 10 -->
      <defs>
       <path d="M 37.25 0 
L 28.46875 0 
L 28.46875 56 
Q 25.296875 52.984375 20.140625 49.953125 
Q 14.984375 46.921875 10.890625 45.40625 
L 10.890625 53.90625 
Q 18.265625 57.375 23.78125 62.296875 
Q 29.296875 67.234375 31.59375 71.875 
L 37.25 71.875 
z
" id="ArialMT-31"/>
       <path d="M 4.15625 35.296875 
Q 4.15625 48 6.765625 55.734375 
Q 9.375 63.484375 14.515625 67.671875 
Q 19.671875 71.875 27.484375 71.875 
Q 33.25 71.875 37.59375 69.546875 
Q 41.9375 67.234375 44.765625 62.859375 
Q 47.609375 58.5 49.21875 52.21875 
Q 50.828125 45.953125 50.828125 35.296875 
Q 50.828125 22.703125 48.234375 14.96875 
Q 45.65625 7.234375 40.5 3 
Q 35.359375 -1.21875 27.484375 -1.21875 
Q 17.140625 -1.21875 11.234375 6.203125 
Q 4.15625 15.140625 4.15625 35.296875 
z
M 13.1875 35.296875 
Q 13.1875 17.671875 17.3125 11.828125 
Q 21.4375 6 27.484375 6 
Q 33.546875 6 37.671875 11.859375 
Q 41.796875 17.71875 41.796875 35.296875 
Q 41.796875 52.984375 37.671875 58.78125 
Q 33.546875 64.59375 27.390625 64.59375 
Q 21.34375 64.59375 17.71875 59.46875 
Q 13.1875 52.9375 13.1875 35.296875 
z
" id="ArialMT-30"/>
      </defs>
      <g style="fill:#262626;" transform="translate(161.88179 190.117812)scale(0.1 -0.1)">
       <use xlink:href="#ArialMT-31"/>
       <use x="55.615234" xlink:href="#ArialMT-30"/>
      </g>
     </g>
    </g>
    <g id="xtick_6">
     <g id="line2d_6">
      <g>
       <use style="fill:#262626;stroke:#262626;stroke-width:0.8;" x="196.304545" xlink:href="#me1f1e36621" y="175.96"/>
      </g>
     </g>
     <g id="text_6">
      <!-- 12 -->
      <g style="fill:#262626;" transform="translate(190.743608 190.117812)scale(0.1 -0.1)">
       <use xlink:href="#ArialMT-31"/>
       <use x="55.615234" xlink:href="#ArialMT-32"/>
      </g>
     </g>
    </g>
    <g id="text_7">
     <!-- pH -->
     <defs>
      <path d="M 6.59375 -19.875 
L 6.59375 51.859375 
L 14.59375 51.859375 
L 14.59375 45.125 
Q 17.4375 49.078125 21 51.046875 
Q 24.5625 53.03125 29.640625 53.03125 
Q 36.28125 53.03125 41.359375 49.609375 
Q 46.4375 46.1875 49.015625 39.953125 
Q 51.609375 33.734375 51.609375 26.3125 
Q 51.609375 18.359375 48.75 11.984375 
Q 45.90625 5.609375 40.453125 2.21875 
Q 35.015625 -1.171875 29 -1.171875 
Q 24.609375 -1.171875 21.109375 0.6875 
Q 17.625 2.546875 15.375 5.375 
L 15.375 -19.875 
z
M 14.546875 25.640625 
Q 14.546875 15.625 18.59375 10.84375 
Q 22.65625 6.0625 28.421875 6.0625 
Q 34.28125 6.0625 38.453125 11.015625 
Q 42.625 15.96875 42.625 26.375 
Q 42.625 36.28125 38.546875 41.203125 
Q 34.46875 46.140625 28.8125 46.140625 
Q 23.1875 46.140625 18.859375 40.890625 
Q 14.546875 35.640625 14.546875 25.640625 
z
" id="ArialMT-70"/>
      <path d="M 8.015625 0 
L 8.015625 71.578125 
L 17.484375 71.578125 
L 17.484375 42.1875 
L 54.6875 42.1875 
L 54.6875 71.578125 
L 64.15625 71.578125 
L 64.15625 0 
L 54.6875 0 
L 54.6875 33.734375 
L 17.484375 33.734375 
L 17.484375 0 
z
" id="ArialMT-48"/>
     </defs>
     <g style="fill:#262626;" transform="translate(117.758594 203.263125)scale(0.1 -0.1)">
      <use xlink:href="#ArialMT-70"/>
      <use x="55.615234" xlink:href="#ArialMT-48"/>
     </g>
    </g>
   </g>
   <g id="matplotlib.axis_2">
    <g id="ytick_1">
     <g id="line2d_7">
      <defs>
       <path d="M 0 0 
L -3.5 0 
" id="m61c3b0e32b" style="stroke:#262626;stroke-width:0.8;"/>
      </defs>
      <g>
       <use style="fill:#262626;stroke:#262626;stroke-width:0.8;" x="44.78" xlink:href="#m61c3b0e32b" y="169.882335"/>
      </g>
     </g>
     <g id="text_8">
      <!-- −1 -->
      <defs>
       <path d="M 52.828125 31.203125 
L 5.5625 31.203125 
L 5.5625 39.40625 
L 52.828125 39.40625 
z
" id="ArialMT-2212"/>
      </defs>
      <g style="fill:#262626;" transform="translate(26.378438 173.461241)scale(0.1 -0.1)">
       <use xlink:href="#ArialMT-2212"/>
       <use x="58.398438" xlink:href="#ArialMT-31"/>
      </g>
     </g>
    </g>
    <g id="ytick_2">
     <g id="line2d_8">
      <g>
       <use style="fill:#262626;stroke:#262626;stroke-width:0.8;" x="44.78" xlink:href="#m61c3b0e32b" y="136.48522"/>
      </g>
     </g>
     <g id="text_9">
      <!-- 0 -->
      <g style="fill:#262626;" transform="translate(32.219063 140.064126)scale(0.1 -0.1)">
       <use xlink:href="#ArialMT-30"/>
      </g>
     </g>
    </g>
    <g id="ytick_3">
     <g id="line2d_9">
      <g>
       <use style="fill:#262626;stroke:#262626;stroke-width:0.8;" x="44.78" xlink:href="#m61c3b0e32b" y="103.088105"/>
      </g>
     </g>
     <g id="text_10">
      <!-- 1 -->
      <g style="fill:#262626;" transform="translate(32.219063 106.667011)scale(0.1 -0.1)">
       <use xlink:href="#ArialMT-31"/>
      </g>
     </g>
    </g>
    <g id="ytick_4">
     <g id="line2d_10">
      <g>
       <use style="fill:#262626;stroke:#262626;stroke-width:0.8;" x="44.78" xlink:href="#m61c3b0e32b" y="69.69099"/>
      </g>
     </g>
     <g id="text_11">
      <!-- 2 -->
      <g style="fill:#262626;" transform="translate(32.219063 73.269896)scale(0.1 -0.1)">
       <use xlink:href="#ArialMT-32"/>
      </g>
     </g>
    </g>
    <g id="ytick_5">
     <g id="line2d_11">
      <g>
       <use style="fill:#262626;stroke:#262626;stroke-width:0.8;" x="44.78" xlink:href="#m61c3b0e32b" y="36.293874"/>
      </g>
     </g>
     <g id="text_12">
      <!-- 3 -->
      <defs>
       <path d="M 4.203125 18.890625 
L 12.984375 20.0625 
Q 14.5 12.59375 18.140625 9.296875 
Q 21.78125 6 27 6 
Q 33.203125 6 37.46875 10.296875 
Q 41.75 14.59375 41.75 20.953125 
Q 41.75 27 37.796875 30.921875 
Q 33.84375 34.859375 27.734375 34.859375 
Q 25.25 34.859375 21.53125 33.890625 
L 22.515625 41.609375 
Q 23.390625 41.5 23.921875 41.5 
Q 29.546875 41.5 34.03125 44.421875 
Q 38.53125 47.359375 38.53125 53.46875 
Q 38.53125 58.296875 35.25 61.46875 
Q 31.984375 64.65625 26.8125 64.65625 
Q 21.6875 64.65625 18.265625 61.421875 
Q 14.84375 58.203125 13.875 51.765625 
L 5.078125 53.328125 
Q 6.6875 62.15625 12.390625 67.015625 
Q 18.109375 71.875 26.609375 71.875 
Q 32.46875 71.875 37.390625 69.359375 
Q 42.328125 66.84375 44.9375 62.5 
Q 47.5625 58.15625 47.5625 53.265625 
Q 47.5625 48.640625 45.0625 44.828125 
Q 42.578125 41.015625 37.703125 38.765625 
Q 44.046875 37.3125 47.5625 32.6875 
Q 51.078125 28.078125 51.078125 21.140625 
Q 51.078125 11.765625 44.234375 5.25 
Q 37.40625 -1.265625 26.953125 -1.265625 
Q 17.53125 -1.265625 11.296875 4.34375 
Q 5.078125 9.96875 4.203125 18.890625 
z
" id="ArialMT-33"/>
      </defs>
      <g style="fill:#262626;" transform="translate(32.219063 39.872781)scale(0.1 -0.1)">
       <use xlink:href="#ArialMT-33"/>
      </g>
     </g>
    </g>
    <g id="text_13">
     <!-- $\langle q_\mathsf{total} \rangle$ -->
     <defs>
      <path d="M 8.9375 31.34375 
L 22.703125 75.875 
L 31 75.875 
L 17.234375 31.34375 
L 31 -13.1875 
L 22.703125 -13.1875 
z
" id="DejaVuSans-27e8"/>
      <path d="M 41.703125 8.203125 
Q 38.09375 3.46875 33.171875 1.015625 
Q 28.265625 -1.421875 22.3125 -1.421875 
Q 14.015625 -1.421875 9.296875 4.171875 
Q 4.59375 9.765625 4.59375 19.578125 
Q 4.59375 27.484375 7.5 34.859375 
Q 10.40625 42.234375 15.828125 48.09375 
Q 19.34375 51.90625 23.90625 53.953125 
Q 28.46875 56 33.5 56 
Q 39.546875 56 43.453125 53.609375 
Q 47.359375 51.21875 49.125 46.390625 
L 50.6875 54.59375 
L 59.71875 54.59375 
L 45.125 -20.609375 
L 36.078125 -20.609375 
z
M 13.921875 20.90625 
Q 13.921875 13.671875 16.9375 9.890625 
Q 19.96875 6.109375 25.6875 6.109375 
Q 34.1875 6.109375 40.1875 14.234375 
Q 46.1875 22.359375 46.1875 33.984375 
Q 46.1875 41.015625 43.078125 44.75 
Q 39.984375 48.484375 34.1875 48.484375 
Q 29.9375 48.484375 26.3125 46.5 
Q 22.703125 44.53125 20.015625 40.71875 
Q 17.1875 36.71875 15.546875 31.34375 
Q 13.921875 25.984375 13.921875 20.90625 
z
" id="DejaVuSans-Oblique-71"/>
      <path d="M 18.3125 70.21875 
L 18.3125 54.6875 
L 36.8125 54.6875 
L 36.8125 47.703125 
L 18.3125 47.703125 
L 18.3125 18.015625 
Q 18.3125 11.328125 20.140625 9.421875 
Q 21.96875 7.515625 27.59375 7.515625 
L 36.8125 7.515625 
L 36.8125 0 
L 27.59375 0 
Q 17.1875 0 13.234375 3.875 
Q 9.28125 7.765625 9.28125 18.015625 
L 9.28125 47.703125 
L 2.6875 47.703125 
L 2.6875 54.6875 
L 9.28125 54.6875 
L 9.28125 70.21875 
z
" id="DejaVuSans-74"/>
      <path d="M 30.609375 48.390625 
Q 23.390625 48.390625 19.1875 42.75 
Q 14.984375 37.109375 14.984375 27.296875 
Q 14.984375 17.484375 19.15625 11.84375 
Q 23.34375 6.203125 30.609375 6.203125 
Q 37.796875 6.203125 41.984375 11.859375 
Q 46.1875 17.53125 46.1875 27.296875 
Q 46.1875 37.015625 41.984375 42.703125 
Q 37.796875 48.390625 30.609375 48.390625 
z
M 30.609375 56 
Q 42.328125 56 49.015625 48.375 
Q 55.71875 40.765625 55.71875 27.296875 
Q 55.71875 13.875 49.015625 6.21875 
Q 42.328125 -1.421875 30.609375 -1.421875 
Q 18.84375 -1.421875 12.171875 6.21875 
Q 5.515625 13.875 5.515625 27.296875 
Q 5.515625 40.765625 12.171875 48.375 
Q 18.84375 56 30.609375 56 
z
" id="DejaVuSans-6f"/>
      <path d="M 34.28125 27.484375 
Q 23.390625 27.484375 19.1875 25 
Q 14.984375 22.515625 14.984375 16.5 
Q 14.984375 11.71875 18.140625 8.90625 
Q 21.296875 6.109375 26.703125 6.109375 
Q 34.1875 6.109375 38.703125 11.40625 
Q 43.21875 16.703125 43.21875 25.484375 
L 43.21875 27.484375 
z
M 52.203125 31.203125 
L 52.203125 0 
L 43.21875 0 
L 43.21875 8.296875 
Q 40.140625 3.328125 35.546875 0.953125 
Q 30.953125 -1.421875 24.3125 -1.421875 
Q 15.921875 -1.421875 10.953125 3.296875 
Q 6 8.015625 6 15.921875 
Q 6 25.140625 12.171875 29.828125 
Q 18.359375 34.515625 30.609375 34.515625 
L 43.21875 34.515625 
L 43.21875 35.40625 
Q 43.21875 41.609375 39.140625 45 
Q 35.0625 48.390625 27.6875 48.390625 
Q 23 48.390625 18.546875 47.265625 
Q 14.109375 46.140625 10.015625 43.890625 
L 10.015625 52.203125 
Q 14.9375 54.109375 19.578125 55.046875 
Q 24.21875 56 28.609375 56 
Q 40.484375 56 46.34375 49.84375 
Q 52.203125 43.703125 52.203125 31.203125 
z
" id="DejaVuSans-61"/>
      <path d="M 9.421875 75.984375 
L 18.40625 75.984375 
L 18.40625 0 
L 9.421875 0 
z
" id="DejaVuSans-6c"/>
      <path d="M 30.078125 31.34375 
L 16.3125 -13.1875 
L 8.015625 -13.1875 
L 21.78125 31.34375 
L 8.015625 75.875 
L 16.3125 75.875 
z
" id="DejaVuSans-27e9"/>
     </defs>
     <g style="fill:#262626;" transform="translate(20.278438 115.95)rotate(-90)scale(0.1 -0.1)">
      <use transform="translate(0 0.125)" xlink:href="#DejaVuSans-27e8"/>
      <use transform="translate(39.013672 0.125)" xlink:href="#DejaVuSans-Oblique-71"/>
      <use transform="translate(102.490234 -16.28125)scale(0.7)" xlink:href="#DejaVuSans-74"/>
      <use transform="translate(129.936523 -16.28125)scale(0.7)" xlink:href="#DejaVuSans-6f"/>
      <use transform="translate(172.763672 -16.28125)scale(0.7)" xlink:href="#DejaVuSans-74"/>
      <use transform="translate(200.209961 -16.28125)scale(0.7)" xlink:href="#DejaVuSans-61"/>
      <use transform="translate(243.105469 -16.28125)scale(0.7)" xlink:href="#DejaVuSans-6c"/>
      <use transform="translate(265.288086 0.125)" xlink:href="#DejaVuSans-27e9"/>
     </g>
    </g>
   </g>
   <g id="PolyCollection_1">
    <defs>
     <path d="M 51.995455 -182.885424 
L 51.995455 -108.983499 
L 53.438545 -108.526726 
L 54.881636 -108.05878 
L 56.324727 -107.575246 
L 57.767818 -107.069853 
L 59.210909 -106.534209 
L 60.654 -105.957436 
L 62.097091 -105.325665 
L 63.540182 -104.62138 
L 64.983273 -103.822662 
L 66.426364 -102.902403 
L 67.869455 -101.827608 
L 69.312545 -100.559014 
L 70.755636 -99.051411 
L 72.198727 -97.25529 
L 73.641818 -95.120704 
L 75.084909 -92.604241 
L 76.528 -89.679449 
L 77.971091 -86.349762 
L 79.414182 -82.660903 
L 80.857273 -78.707792 
L 82.300364 -74.630671 
L 83.743455 -70.598168 
L 85.186545 -66.780815 
L 86.629636 -63.323713 
L 88.072727 -60.327568 
L 89.515818 -57.842841 
L 90.958909 -55.875561 
L 92.402 -54.399594 
L 93.845091 -53.369909 
L 95.288182 -52.733433 
L 96.731273 -52.436391 
L 98.174364 -52.42856 
L 99.617455 -52.665335 
L 101.060545 -53.108441 
L 102.503636 -53.72581 
L 103.946727 -54.490945 
L 105.389818 -55.38199 
L 106.832909 -56.380649 
L 108.276 -57.471023 
L 109.719091 -58.638381 
L 111.162182 -59.867833 
L 112.605273 -61.142861 
L 114.048364 -62.443638 
L 115.491455 -63.745148 
L 116.934545 -65.015174 
L 118.377636 -66.212417 
L 119.820727 -67.28537 
L 121.263818 -68.173556 
L 122.706909 -68.813816 
L 124.15 -69.15379 
L 125.593091 -69.1695 
L 127.036182 -68.876332 
L 128.479273 -68.324016 
L 129.922364 -67.579271 
L 131.365455 -66.708365 
L 132.808545 -65.767125 
L 134.251636 -64.798091 
L 135.694727 -63.831613 
L 137.137818 -62.888301 
L 138.580909 -61.981534 
L 140.024 -61.11952 
L 141.467091 -60.306856 
L 142.910182 -59.545662 
L 144.353273 -58.836409 
L 145.796364 -58.178506 
L 147.239455 -57.570693 
L 148.682545 -57.011267 
L 150.125636 -56.498205 
L 151.568727 -56.02921 
L 153.011818 -55.601743 
L 154.454909 -55.213046 
L 155.898 -54.860205 
L 157.341091 -54.540224 
L 158.784182 -54.250129 
L 160.227273 -53.987049 
L 161.670364 -53.748265 
L 163.113455 -53.531217 
L 164.556545 -53.33348 
L 165.999636 -53.152734 
L 167.442727 -52.986726 
L 168.885818 -52.833245 
L 170.328909 -52.690088 
L 171.772 -52.555005 
L 173.215091 -52.425628 
L 174.658182 -52.299349 
L 176.101273 -52.173184 
L 177.544364 -52.043609 
L 178.987455 -51.9064 
L 180.430545 -51.756494 
L 181.873636 -51.587873 
L 183.316727 -51.393493 
L 184.759818 -51.165256 
L 186.202909 -50.894039 
L 187.646 -50.569791 
L 189.089091 -50.181687 
L 190.532182 -49.718354 
L 191.975273 -49.168134 
L 193.418364 -48.519392 
L 194.861455 -47.760825 
L 196.304545 -46.881818 
L 196.304545 -107.295059 
L 196.304545 -107.295059 
L 194.861455 -107.355642 
L 193.418364 -107.36398 
L 191.975273 -107.337873 
L 190.532182 -107.290981 
L 189.089091 -107.233107 
L 187.646 -107.170707 
L 186.202909 -107.107505 
L 184.759818 -107.045132 
L 183.316727 -106.983734 
L 181.873636 -106.922482 
L 180.430545 -106.859992 
L 178.987455 -106.794633 
L 177.544364 -106.724738 
L 176.101273 -106.648731 
L 174.658182 -106.565182 
L 173.215091 -106.472797 
L 171.772 -106.370371 
L 170.328909 -106.256719 
L 168.885818 -106.130601 
L 167.442727 -105.990671 
L 165.999636 -105.835442 
L 164.556545 -105.663276 
L 163.113455 -105.472374 
L 161.670364 -105.26078 
L 160.227273 -105.026358 
L 158.784182 -104.766782 
L 157.341091 -104.479517 
L 155.898 -104.161843 
L 154.454909 -103.810908 
L 153.011818 -103.42382 
L 151.568727 -102.997749 
L 150.125636 -102.530012 
L 148.682545 -102.018136 
L 147.239455 -101.459888 
L 145.796364 -100.853306 
L 144.353273 -100.196755 
L 142.910182 -99.489045 
L 141.467091 -98.729669 
L 140.024 -97.919193 
L 138.580909 -97.059855 
L 137.137818 -96.156394 
L 135.694727 -95.217194 
L 134.251636 -94.255852 
L 132.808545 -93.293254 
L 131.365455 -92.36009 
L 129.922364 -91.499332 
L 128.479273 -90.767345 
L 127.036182 -90.231079 
L 125.593091 -89.958105 
L 124.15 -89.99923 
L 122.706909 -90.371193 
L 121.263818 -91.051717 
L 119.820727 -91.990586 
L 118.377636 -93.127338 
L 116.934545 -94.404887 
L 115.491455 -95.776001 
L 114.048364 -97.20475 
L 112.605273 -98.665678 
L 111.162182 -100.142265 
L 109.719091 -101.62537 
L 108.276 -103.11189 
L 106.832909 -104.603777 
L 105.389818 -106.107402 
L 103.946727 -107.633259 
L 102.503636 -109.195957 
L 101.060545 -110.814477 
L 99.617455 -112.512659 
L 98.174364 -114.319858 
L 96.731273 -116.271621 
L 95.288182 -118.410077 
L 93.845091 -120.783479 
L 92.402 -123.44408 
L 90.958909 -126.443489 
L 89.515818 -129.824823 
L 88.072727 -133.611646 
L 86.629636 -137.794998 
L 85.186545 -142.321792 
L 83.743455 -147.089641 
L 82.300364 -151.953038 
L 80.857273 -156.742274 
L 79.414182 -161.290581 
L 77.971091 -165.460465 
L 76.528 -169.160554 
L 75.084909 -172.349354 
L 73.641818 -175.028171 
L 72.198727 -177.228581 
L 70.755636 -178.9995 
L 69.312545 -180.396777 
L 67.869455 -181.476121 
L 66.426364 -182.288994 
L 64.983273 -182.880695 
L 63.540182 -183.289876 
L 62.097091 -183.548862 
L 60.654 -183.684342 
L 59.210909 -183.718182 
L 57.767818 -183.668214 
L 56.324727 -183.548974 
L 54.881636 -183.37238 
L 53.438545 -183.148365 
L 51.995455 -182.885424 
z
" id="m57122cc67e" style="stroke:#ffffff;stroke-opacity:0.05;"/>
    </defs>
    <g clip-path="url(#p9503e76ff2)">
     <use style="fill:#12711c;fill-opacity:0.05;stroke:#ffffff;stroke-opacity:0.05;" x="0" xlink:href="#m57122cc67e" y="216"/>
    </g>
   </g>
   <g id="line2d_12">
    <path clip-path="url(#p9503e76ff2)" d="M 51.995455 70.065539 
L 53.438545 70.162454 
L 54.881636 70.28442 
L 56.324727 70.43789 
L 57.767818 70.630967 
L 59.210909 70.873805 
L 60.654 71.179111 
L 62.097091 71.562737 
L 63.540182 72.044372 
L 64.983273 72.648321 
L 66.426364 73.404302 
L 67.869455 74.348136 
L 69.312545 75.522105 
L 70.755636 76.974544 
L 72.198727 78.758065 
L 73.641818 80.925562 
L 75.084909 83.523203 
L 76.528 86.579999 
L 77.971091 90.094887 
L 79.414182 94.024258 
L 80.857273 98.274967 
L 82.300364 102.708145 
L 83.743455 107.156096 
L 85.186545 111.448697 
L 86.629636 115.440644 
L 88.072727 119.030393 
L 89.515818 122.166168 
L 90.958909 124.840475 
L 92.402 127.078163 
L 93.845091 128.923306 
L 95.288182 130.428245 
L 96.731273 131.645994 
L 98.174364 132.625791 
L 99.617455 133.411003 
L 101.060545 134.038541 
L 102.503636 134.539116 
L 103.946727 134.937898 
L 105.389818 135.255304 
L 106.832909 135.507787 
L 108.276 135.708543 
L 109.719091 135.868125 
L 111.162182 135.994951 
L 112.605273 136.095731 
L 114.048364 136.175806 
L 115.491455 136.239426 
L 116.934545 136.289969 
L 118.377636 136.330123 
L 119.820727 136.362022 
L 121.263818 136.387363 
L 122.706909 136.407496 
L 124.15 136.42349 
L 125.593091 136.436197 
L 127.036182 136.446295 
L 128.479273 136.454319 
L 129.922364 136.460699 
L 131.365455 136.465772 
L 132.808545 136.469811 
L 134.251636 136.473028 
L 135.694727 136.475596 
L 137.137818 136.477652 
L 138.580909 136.479305 
L 140.024 136.480643 
L 141.467091 136.481738 
L 142.910182 136.482646 
L 144.353273 136.483418 
L 145.796364 136.484094 
L 147.239455 136.48471 
L 148.682545 136.485299 
L 150.125636 136.485892 
L 151.568727 136.48652 
L 153.011818 136.487218 
L 154.454909 136.488023 
L 155.898 136.488976 
L 157.341091 136.49013 
L 158.784182 136.491545 
L 160.227273 136.493296 
L 161.670364 136.495477 
L 163.113455 136.498204 
L 164.556545 136.501622 
L 165.999636 136.505912 
L 167.442727 136.511302 
L 168.885818 136.518077 
L 170.328909 136.526597 
L 171.772 136.537312 
L 173.215091 136.550788 
L 174.658182 136.567734 
L 176.101273 136.589042 
L 177.544364 136.615827 
L 178.987455 136.649483 
L 180.430545 136.691757 
L 181.873636 136.744822 
L 183.316727 136.811387 
L 184.759818 136.894806 
L 186.202909 136.999228 
L 187.646 137.129751 
L 189.089091 137.292603 
L 190.532182 137.495333 
L 191.975273 137.746996 
L 193.418364 138.058314 
L 194.861455 138.441766 
L 196.304545 138.911561 
" style="fill:none;opacity:0.9;stroke:#12711c;stroke-linecap:round;stroke-width:1.5;"/>
   </g>
   <g id="line2d_13">
    <path clip-path="url(#p9503e76ff2)" d="M 51.995455 103.093775 
L 53.438545 103.095243 
L 54.881636 103.097091 
L 56.324727 103.099417 
L 57.767818 103.102345 
L 59.210909 103.10603 
L 60.654 103.110669 
L 62.097091 103.116506 
L 63.540182 103.123852 
L 64.983273 103.133095 
L 66.426364 103.144725 
L 67.869455 103.159354 
L 69.312545 103.177753 
L 70.755636 103.200887 
L 72.198727 103.229965 
L 73.641818 103.2665 
L 75.084909 103.31238 
L 76.528 103.369961 
L 77.971091 103.442167 
L 79.414182 103.532623 
L 80.857273 103.645798 
L 82.300364 103.787176 
L 83.743455 103.96344 
L 85.186545 104.182658 
L 86.629636 104.454471 
L 88.072727 104.790226 
L 89.515818 105.20304 
L 90.958909 105.707697 
L 92.402 106.320331 
L 93.845091 107.05776 
L 95.288182 107.936391 
L 96.731273 108.970621 
L 98.174364 110.170739 
L 99.617455 111.540483 
L 101.060545 113.074597 
L 102.503636 114.756902 
L 103.946727 116.559526 
L 105.389818 118.443823 
L 106.832909 120.363181 
L 108.276 122.267407 
L 109.719091 124.107866 
L 111.162182 125.842288 
L 112.605273 127.438274 
L 114.048364 128.874975 
L 115.491455 130.142946 
L 116.934545 131.242606 
L 118.377636 132.181928 
L 119.820727 132.97394 
L 121.263818 133.634467 
L 122.706909 134.180322 
L 124.15 134.628012 
L 125.593091 134.992919 
L 127.036182 135.288849 
L 128.479273 135.527855 
L 129.922364 135.720248 
L 131.365455 135.874705 
L 132.808545 135.99844 
L 134.251636 136.097394 
L 135.694727 136.176421 
L 137.137818 136.239465 
L 138.580909 136.289714 
L 140.024 136.329737 
L 141.467091 136.361597 
L 142.910182 136.386948 
L 144.353273 136.407112 
L 145.796364 136.423147 
L 147.239455 136.435895 
L 148.682545 136.446027 
L 150.125636 136.454081 
L 151.568727 136.46048 
L 153.011818 136.465566 
L 154.454909 136.469606 
L 155.898 136.472816 
L 157.341091 136.475366 
L 158.784182 136.477392 
L 160.227273 136.479002 
L 161.670364 136.480281 
L 163.113455 136.481296 
L 164.556545 136.482103 
L 165.999636 136.482744 
L 167.442727 136.483253 
L 168.885818 136.483658 
L 170.328909 136.483979 
L 171.772 136.484234 
L 173.215091 136.484437 
L 174.658182 136.484598 
L 176.101273 136.484726 
L 177.544364 136.484827 
L 178.987455 136.484908 
L 180.430545 136.484972 
L 181.873636 136.485023 
L 183.316727 136.485063 
L 184.759818 136.485096 
L 186.202909 136.485121 
L 187.646 136.485141 
L 189.089091 136.485157 
L 190.532182 136.48517 
L 191.975273 136.48518 
L 193.418364 136.485188 
L 194.861455 136.485195 
L 196.304545 136.4852 
" style="fill:none;opacity:0.7;stroke:#000000;stroke-linecap:round;stroke-width:1.5;"/>
   </g>
   <g id="line2d_14">
    <path clip-path="url(#p9503e76ff2)" d="M 51.995455 33.114576 
L 53.438545 32.851635 
L 54.881636 32.62762 
L 56.324727 32.451026 
L 57.767818 32.331786 
L 59.210909 32.281818 
L 60.654 32.315658 
L 62.097091 32.451138 
L 63.540182 32.710124 
L 64.983273 33.119305 
L 66.426364 33.711006 
L 67.869455 34.523879 
L 69.312545 35.603223 
L 70.755636 37.0005 
L 72.198727 38.771419 
L 73.641818 40.971829 
L 75.084909 43.650646 
L 76.528 46.839446 
L 77.971091 50.539535 
L 79.414182 54.709419 
L 80.857273 59.257726 
L 82.300364 64.046962 
L 83.743455 68.910359 
L 85.186545 73.678208 
L 86.629636 78.205002 
L 88.072727 82.388354 
L 89.515818 86.175177 
L 90.958909 89.556511 
L 92.402 92.55592 
L 93.845091 95.216521 
L 95.288182 97.589923 
L 96.731273 99.728379 
L 98.174364 101.680142 
L 99.617455 103.487341 
L 101.060545 105.185523 
L 102.503636 106.804043 
L 103.946727 108.366741 
L 105.389818 109.892598 
L 106.832909 111.396223 
L 108.276 112.88811 
L 109.719091 114.37463 
L 111.162182 115.857735 
L 112.605273 117.334322 
L 114.048364 118.79525 
L 115.491455 120.223999 
L 116.934545 121.595113 
L 118.377636 122.872662 
L 119.820727 124.009414 
L 121.263818 124.948283 
L 122.706909 125.628807 
L 124.15 126.00077 
L 125.593091 126.041895 
L 127.036182 125.768921 
L 128.479273 125.232655 
L 129.922364 124.500668 
L 131.365455 123.63991 
L 132.808545 122.706746 
L 134.251636 121.744148 
L 135.694727 120.782806 
L 137.137818 119.843606 
L 138.580909 118.940145 
L 140.024 118.080807 
L 141.467091 117.270331 
L 142.910182 116.510955 
L 144.353273 115.803245 
L 145.796364 115.146694 
L 147.239455 114.540112 
L 148.682545 113.981864 
L 150.125636 113.469988 
L 151.568727 113.002251 
L 153.011818 112.57618 
L 154.454909 112.189092 
L 155.898 111.838157 
L 157.341091 111.520483 
L 158.784182 111.233218 
L 160.227273 110.973642 
L 161.670364 110.73922 
L 163.113455 110.527626 
L 164.556545 110.336724 
L 165.999636 110.164558 
L 167.442727 110.009329 
L 168.885818 109.869399 
L 170.328909 109.743281 
L 171.772 109.629629 
L 173.215091 109.527203 
L 174.658182 109.434818 
L 176.101273 109.351269 
L 177.544364 109.275262 
L 178.987455 109.205367 
L 180.430545 109.140008 
L 181.873636 109.077518 
L 183.316727 109.016266 
L 184.759818 108.954868 
L 186.202909 108.892495 
L 187.646 108.829293 
L 189.089091 108.766893 
L 190.532182 108.709019 
L 191.975273 108.662127 
L 193.418364 108.63602 
L 194.861455 108.644358 
L 196.304545 108.704941 
" style="fill:none;opacity:0.45;stroke:#12711c;stroke-dasharray:2.775,1.2;stroke-dashoffset:0;stroke-width:0.75;"/>
   </g>
   <g id="line2d_15">
    <path clip-path="url(#p9503e76ff2)" d="M 51.995455 107.016501 
L 53.438545 107.473274 
L 54.881636 107.94122 
L 56.324727 108.424754 
L 57.767818 108.930147 
L 59.210909 109.465791 
L 60.654 110.042564 
L 62.097091 110.674335 
L 63.540182 111.37862 
L 64.983273 112.177338 
L 66.426364 113.097597 
L 67.869455 114.172392 
L 69.312545 115.440986 
L 70.755636 116.948589 
L 72.198727 118.74471 
L 73.641818 120.879296 
L 75.084909 123.395759 
L 76.528 126.320551 
L 77.971091 129.650238 
L 79.414182 133.339097 
L 80.857273 137.292208 
L 82.300364 141.369329 
L 83.743455 145.401832 
L 85.186545 149.219185 
L 86.629636 152.676287 
L 88.072727 155.672432 
L 89.515818 158.157159 
L 90.958909 160.124439 
L 92.402 161.600406 
L 93.845091 162.630091 
L 95.288182 163.266567 
L 96.731273 163.563609 
L 98.174364 163.57144 
L 99.617455 163.334665 
L 101.060545 162.891559 
L 102.503636 162.27419 
L 103.946727 161.509055 
L 105.389818 160.61801 
L 106.832909 159.619351 
L 108.276 158.528977 
L 109.719091 157.361619 
L 111.162182 156.132167 
L 112.605273 154.857139 
L 114.048364 153.556362 
L 115.491455 152.254852 
L 116.934545 150.984826 
L 118.377636 149.787583 
L 119.820727 148.71463 
L 121.263818 147.826444 
L 122.706909 147.186184 
L 124.15 146.84621 
L 125.593091 146.8305 
L 127.036182 147.123668 
L 128.479273 147.675984 
L 129.922364 148.420729 
L 131.365455 149.291635 
L 132.808545 150.232875 
L 134.251636 151.201909 
L 135.694727 152.168387 
L 137.137818 153.111699 
L 138.580909 154.018466 
L 140.024 154.88048 
L 141.467091 155.693144 
L 142.910182 156.454338 
L 144.353273 157.163591 
L 145.796364 157.821494 
L 147.239455 158.429307 
L 148.682545 158.988733 
L 150.125636 159.501795 
L 151.568727 159.97079 
L 153.011818 160.398257 
L 154.454909 160.786954 
L 155.898 161.139795 
L 157.341091 161.459776 
L 158.784182 161.749871 
L 160.227273 162.012951 
L 161.670364 162.251735 
L 163.113455 162.468783 
L 164.556545 162.66652 
L 165.999636 162.847266 
L 167.442727 163.013274 
L 168.885818 163.166755 
L 170.328909 163.309912 
L 171.772 163.444995 
L 173.215091 163.574372 
L 174.658182 163.700651 
L 176.101273 163.826816 
L 177.544364 163.956391 
L 178.987455 164.0936 
L 180.430545 164.243506 
L 181.873636 164.412127 
L 183.316727 164.606507 
L 184.759818 164.834744 
L 186.202909 165.105961 
L 187.646 165.430209 
L 189.089091 165.818313 
L 190.532182 166.281646 
L 191.975273 166.831866 
L 193.418364 167.480608 
L 194.861455 168.239175 
L 196.304545 169.118182 
" style="fill:none;opacity:0.45;stroke:#12711c;stroke-dasharray:2.775,1.2;stroke-dashoffset:0;stroke-width:0.75;"/>
   </g>
   <g id="patch_3">
    <path d="M 44.78 175.96 
L 44.78 25.44 
" style="fill:none;stroke:#262626;stroke-linecap:square;stroke-linejoin:miter;stroke-width:0.8;"/>
   </g>
   <g id="patch_4">
    <path d="M 44.78 175.96 
L 203.52 175.96 
" style="fill:none;stroke:#262626;stroke-linecap:square;stroke-linejoin:miter;stroke-width:0.8;"/>
   </g>
   <g id="text_14">
    <!-- Epik-scan SM13 -->
    <defs>
     <path d="M 7.90625 0 
L 7.90625 71.578125 
L 59.671875 71.578125 
L 59.671875 63.140625 
L 17.390625 63.140625 
L 17.390625 41.21875 
L 56.984375 41.21875 
L 56.984375 32.8125 
L 17.390625 32.8125 
L 17.390625 8.453125 
L 61.328125 8.453125 
L 61.328125 0 
z
" id="ArialMT-45"/>
     <path d="M 6.640625 61.46875 
L 6.640625 71.578125 
L 15.4375 71.578125 
L 15.4375 61.46875 
z
M 6.640625 0 
L 6.640625 51.859375 
L 15.4375 51.859375 
L 15.4375 0 
z
" id="ArialMT-69"/>
     <path d="M 6.640625 0 
L 6.640625 71.578125 
L 15.4375 71.578125 
L 15.4375 30.765625 
L 36.234375 51.859375 
L 47.609375 51.859375 
L 27.78125 32.625 
L 49.609375 0 
L 38.765625 0 
L 21.625 26.515625 
L 15.4375 20.5625 
L 15.4375 0 
z
" id="ArialMT-6b"/>
     <path d="M 3.171875 21.484375 
L 3.171875 30.328125 
L 30.171875 30.328125 
L 30.171875 21.484375 
z
" id="ArialMT-2d"/>
     <path d="M 3.078125 15.484375 
L 11.765625 16.84375 
Q 12.5 11.625 15.84375 8.84375 
Q 19.1875 6.0625 25.203125 6.0625 
Q 31.25 6.0625 34.171875 8.515625 
Q 37.109375 10.984375 37.109375 14.3125 
Q 37.109375 17.28125 34.515625 19 
Q 32.71875 20.171875 25.53125 21.96875 
Q 15.875 24.421875 12.140625 26.203125 
Q 8.40625 27.984375 6.46875 31.125 
Q 4.546875 34.28125 4.546875 38.09375 
Q 4.546875 41.546875 6.125 44.5 
Q 7.71875 47.46875 10.453125 49.421875 
Q 12.5 50.921875 16.03125 51.96875 
Q 19.578125 53.03125 23.640625 53.03125 
Q 29.734375 53.03125 34.34375 51.265625 
Q 38.96875 49.515625 41.15625 46.5 
Q 43.359375 43.5 44.1875 38.484375 
L 35.59375 37.3125 
Q 35.015625 41.3125 32.203125 43.546875 
Q 29.390625 45.796875 24.265625 45.796875 
Q 18.21875 45.796875 15.625 43.796875 
Q 13.03125 41.796875 13.03125 39.109375 
Q 13.03125 37.40625 14.109375 36.03125 
Q 15.1875 34.625 17.484375 33.6875 
Q 18.796875 33.203125 25.25 31.453125 
Q 34.578125 28.953125 38.25 27.359375 
Q 41.9375 25.78125 44.03125 22.75 
Q 46.140625 19.734375 46.140625 15.234375 
Q 46.140625 10.84375 43.578125 6.953125 
Q 41.015625 3.078125 36.171875 0.953125 
Q 31.34375 -1.171875 25.25 -1.171875 
Q 15.140625 -1.171875 9.84375 3.03125 
Q 4.546875 7.234375 3.078125 15.484375 
z
" id="ArialMT-73"/>
     <path d="M 40.4375 19 
L 49.078125 17.875 
Q 47.65625 8.9375 41.8125 3.875 
Q 35.984375 -1.171875 27.484375 -1.171875 
Q 16.84375 -1.171875 10.375 5.78125 
Q 3.90625 12.75 3.90625 25.734375 
Q 3.90625 34.125 6.6875 40.421875 
Q 9.46875 46.734375 15.15625 49.875 
Q 20.84375 53.03125 27.546875 53.03125 
Q 35.984375 53.03125 41.359375 48.75 
Q 46.734375 44.484375 48.25 36.625 
L 39.703125 35.296875 
Q 38.484375 40.53125 35.375 43.15625 
Q 32.28125 45.796875 27.875 45.796875 
Q 21.234375 45.796875 17.078125 41.03125 
Q 12.9375 36.28125 12.9375 25.984375 
Q 12.9375 15.53125 16.9375 10.796875 
Q 20.953125 6.0625 27.390625 6.0625 
Q 32.5625 6.0625 36.03125 9.234375 
Q 39.5 12.40625 40.4375 19 
z
" id="ArialMT-63"/>
     <path d="M 40.4375 6.390625 
Q 35.546875 2.25 31.03125 0.53125 
Q 26.515625 -1.171875 21.34375 -1.171875 
Q 12.796875 -1.171875 8.203125 3 
Q 3.609375 7.171875 3.609375 13.671875 
Q 3.609375 17.484375 5.34375 20.625 
Q 7.078125 23.78125 9.890625 25.6875 
Q 12.703125 27.59375 16.21875 28.5625 
Q 18.796875 29.25 24.03125 29.890625 
Q 34.671875 31.15625 39.703125 32.90625 
Q 39.75 34.71875 39.75 35.203125 
Q 39.75 40.578125 37.25 42.78125 
Q 33.890625 45.75 27.25 45.75 
Q 21.046875 45.75 18.09375 43.578125 
Q 15.140625 41.40625 13.71875 35.890625 
L 5.125 37.0625 
Q 6.296875 42.578125 8.984375 45.96875 
Q 11.671875 49.359375 16.75 51.1875 
Q 21.828125 53.03125 28.515625 53.03125 
Q 35.15625 53.03125 39.296875 51.46875 
Q 43.453125 49.90625 45.40625 47.53125 
Q 47.359375 45.171875 48.140625 41.546875 
Q 48.578125 39.3125 48.578125 33.453125 
L 48.578125 21.734375 
Q 48.578125 9.46875 49.140625 6.21875 
Q 49.703125 2.984375 51.375 0 
L 42.1875 0 
Q 40.828125 2.734375 40.4375 6.390625 
z
M 39.703125 26.03125 
Q 34.90625 24.078125 25.34375 22.703125 
Q 19.921875 21.921875 17.671875 20.9375 
Q 15.4375 19.96875 14.203125 18.09375 
Q 12.984375 16.21875 12.984375 13.921875 
Q 12.984375 10.40625 15.640625 8.0625 
Q 18.3125 5.71875 23.4375 5.71875 
Q 28.515625 5.71875 32.46875 7.9375 
Q 36.421875 10.15625 38.28125 14.015625 
Q 39.703125 17 39.703125 22.796875 
z
" id="ArialMT-61"/>
     <path d="M 6.59375 0 
L 6.59375 51.859375 
L 14.5 51.859375 
L 14.5 44.484375 
Q 20.21875 53.03125 31 53.03125 
Q 35.6875 53.03125 39.625 51.34375 
Q 43.5625 49.65625 45.515625 46.921875 
Q 47.46875 44.1875 48.25 40.4375 
Q 48.734375 37.984375 48.734375 31.890625 
L 48.734375 0 
L 39.9375 0 
L 39.9375 31.546875 
Q 39.9375 36.921875 38.90625 39.578125 
Q 37.890625 42.234375 35.28125 43.8125 
Q 32.671875 45.40625 29.15625 45.40625 
Q 23.53125 45.40625 19.453125 41.84375 
Q 15.375 38.28125 15.375 28.328125 
L 15.375 0 
z
" id="ArialMT-6e"/>
     <path id="ArialMT-20"/>
     <path d="M 4.5 23 
L 13.421875 23.78125 
Q 14.0625 18.40625 16.375 14.96875 
Q 18.703125 11.53125 23.578125 9.40625 
Q 28.46875 7.28125 34.578125 7.28125 
Q 39.984375 7.28125 44.140625 8.890625 
Q 48.296875 10.5 50.3125 13.296875 
Q 52.34375 16.109375 52.34375 19.4375 
Q 52.34375 22.796875 50.390625 25.3125 
Q 48.4375 27.828125 43.953125 29.546875 
Q 41.0625 30.671875 31.203125 33.03125 
Q 21.34375 35.40625 17.390625 37.5 
Q 12.25 40.1875 9.734375 44.15625 
Q 7.234375 48.140625 7.234375 53.078125 
Q 7.234375 58.5 10.296875 63.203125 
Q 13.375 67.921875 19.28125 70.359375 
Q 25.203125 72.796875 32.421875 72.796875 
Q 40.375 72.796875 46.453125 70.234375 
Q 52.546875 67.671875 55.8125 62.6875 
Q 59.078125 57.71875 59.328125 51.421875 
L 50.25 50.734375 
Q 49.515625 57.515625 45.28125 60.984375 
Q 41.0625 64.453125 32.8125 64.453125 
Q 24.21875 64.453125 20.28125 61.296875 
Q 16.359375 58.15625 16.359375 53.71875 
Q 16.359375 49.859375 19.140625 47.359375 
Q 21.875 44.875 33.421875 42.265625 
Q 44.96875 39.65625 49.265625 37.703125 
Q 55.515625 34.8125 58.484375 30.390625 
Q 61.46875 25.984375 61.46875 20.21875 
Q 61.46875 14.5 58.203125 9.4375 
Q 54.9375 4.390625 48.796875 1.578125 
Q 42.671875 -1.21875 35.015625 -1.21875 
Q 25.296875 -1.21875 18.71875 1.609375 
Q 12.15625 4.4375 8.421875 10.125 
Q 4.6875 15.828125 4.5 23 
z
" id="ArialMT-53"/>
     <path d="M 7.421875 0 
L 7.421875 71.578125 
L 21.6875 71.578125 
L 38.625 20.90625 
Q 40.96875 13.8125 42.046875 10.296875 
Q 43.265625 14.203125 45.84375 21.78125 
L 62.984375 71.578125 
L 75.734375 71.578125 
L 75.734375 0 
L 66.609375 0 
L 66.609375 59.90625 
L 45.796875 0 
L 37.25 0 
L 16.546875 60.9375 
L 16.546875 0 
z
" id="ArialMT-4d"/>
    </defs>
    <g style="fill:#262626;" transform="translate(80.467188 19.44)scale(0.12 -0.12)">
     <use xlink:href="#ArialMT-45"/>
     <use x="66.699219" xlink:href="#ArialMT-70"/>
     <use x="122.314453" xlink:href="#ArialMT-69"/>
     <use x="144.53125" xlink:href="#ArialMT-6b"/>
     <use x="194.53125" xlink:href="#ArialMT-2d"/>
     <use x="227.832031" xlink:href="#ArialMT-73"/>
     <use x="277.832031" xlink:href="#ArialMT-63"/>
     <use x="327.832031" xlink:href="#ArialMT-61"/>
     <use x="383.447266" xlink:href="#ArialMT-6e"/>
     <use x="439.0625" xlink:href="#ArialMT-20"/>
     <use x="466.845703" xlink:href="#ArialMT-53"/>
     <use x="533.544922" xlink:href="#ArialMT-4d"/>
     <use x="616.845703" xlink:href="#ArialMT-31"/>
     <use x="672.460938" xlink:href="#ArialMT-33"/>
    </g>
   </g>
  </g>
 </g>
 <defs>
  <clipPath id="p9503e76ff2">
   <rect height="150.52" width="158.74" x="44.78" y="25.44"/>
  </clipPath>
 </defs>
</svg>
