<?xml version="1.0" encoding="utf-8" standalone="no"?>
<!DOCTYPE svg PUBLIC "-//W3C//DTD SVG 1.1//EN"
  "http://www.w3.org/Graphics/SVG/1.1/DTD/svg11.dtd">
<!-- Created with matplotlib (http://matplotlib.org/) -->
<svg height="144pt" version="1.1" viewBox="0 0 144 144" width="144pt" xmlns="http://www.w3.org/2000/svg" xmlns:xlink="http://www.w3.org/1999/xlink">
 <defs>
  <style type="text/css">
*{stroke-linecap:butt;stroke-linejoin:round;}
  </style>
 </defs>
 <g id="figure_1">
  <g id="patch_1">
   <path d="M 0 144 
L 144 144 
L 144 0 
L 0 0 
z
" style="fill:#ffffff;"/>
  </g>
  <g id="axes_1">
   <g id="patch_2">
    <path d="M 48.38 101.92 
L 130.44 101.92 
L 130.44 27.48 
L 48.38 27.48 
z
" style="fill:#ffffff;"/>
   </g>
   <g id="matplotlib.axis_1">
    <g id="xtick_1">
     <g id="line2d_1">
      <defs>
       <path d="M 0 0 
L 0 3.5 
" id="m271669274b" style="stroke:#262626;stroke-width:0.8;"/>
      </defs>
      <g>
       <use style="fill:#262626;stroke:#262626;stroke-width:0.8;" x="52.11" xlink:href="#m271669274b" y="101.92"/>
      </g>
     </g>
     <g id="text_1">
      <!-- 2 -->
      <defs>
       <path d="M 50.34375 8.453125 
L 50.34375 0 
L 3.03125 0 
Q 2.9375 3.171875 4.046875 6.109375 
Q 5.859375 10.9375 9.828125 15.625 
Q 13.8125 20.3125 21.34375 26.46875 
Q 33.015625 36.03125 37.109375 41.625 
Q 41.21875 47.21875 41.21875 52.203125 
Q 41.21875 57.421875 37.46875 61 
Q 33.734375 64.59375 27.734375 64.59375 
Q 21.390625 64.59375 17.578125 60.78125 
Q 13.765625 56.984375 13.71875 50.25 
L 4.6875 51.171875 
Q 5.609375 61.28125 11.65625 66.578125 
Q 17.71875 71.875 27.9375 71.875 
Q 38.234375 71.875 44.234375 66.15625 
Q 50.25 60.453125 50.25 52 
Q 50.25 47.703125 48.484375 43.546875 
Q 46.734375 39.40625 42.65625 34.8125 
Q 38.578125 30.21875 29.109375 22.21875 
Q 21.1875 15.578125 18.9375 13.203125 
Q 16.703125 10.84375 15.234375 8.453125 
z
" id="ArialMT-32"/>
      </defs>
      <g style="fill:#262626;" transform="translate(49.051484 116.793594)scale(0.11 -0.11)">
       <use xlink:href="#ArialMT-32"/>
      </g>
     </g>
    </g>
    <g id="xtick_2">
     <g id="line2d_2">
      <g>
       <use style="fill:#262626;stroke:#262626;stroke-width:0.8;" x="67.03" xlink:href="#m271669274b" y="101.92"/>
      </g>
     </g>
     <g id="text_2">
      <!-- 4 -->
      <defs>
       <path d="M 32.328125 0 
L 32.328125 17.140625 
L 1.265625 17.140625 
L 1.265625 25.203125 
L 33.9375 71.578125 
L 41.109375 71.578125 
L 41.109375 25.203125 
L 50.78125 25.203125 
L 50.78125 17.140625 
L 41.109375 17.140625 
L 41.109375 0 
z
M 32.328125 25.203125 
L 32.328125 57.46875 
L 9.90625 25.203125 
z
" id="ArialMT-34"/>
      </defs>
      <g style="fill:#262626;" transform="translate(63.971484 116.793594)scale(0.11 -0.11)">
       <use xlink:href="#ArialMT-34"/>
      </g>
     </g>
    </g>
    <g id="xtick_3">
     <g id="line2d_3">
      <g>
       <use style="fill:#262626;stroke:#262626;stroke-width:0.8;" x="81.95" xlink:href="#m271669274b" y="101.92"/>
      </g>
     </g>
     <g id="text_3">
      <!-- 6 -->
      <defs>
       <path d="M 49.75 54.046875 
L 41.015625 53.375 
Q 39.84375 58.546875 37.703125 60.890625 
Q 34.125 64.65625 28.90625 64.65625 
Q 24.703125 64.65625 21.53125 62.3125 
Q 17.390625 59.28125 14.984375 53.46875 
Q 12.59375 47.65625 12.5 36.921875 
Q 15.671875 41.75 20.265625 44.09375 
Q 24.859375 46.4375 29.890625 46.4375 
Q 38.671875 46.4375 44.84375 39.96875 
Q 51.03125 33.5 51.03125 23.25 
Q 51.03125 16.5 48.125 10.71875 
Q 45.21875 4.9375 40.140625 1.859375 
Q 35.0625 -1.21875 28.609375 -1.21875 
Q 17.625 -1.21875 10.6875 6.859375 
Q 3.765625 14.9375 3.765625 33.5 
Q 3.765625 54.25 11.421875 63.671875 
Q 18.109375 71.875 29.4375 71.875 
Q 37.890625 71.875 43.28125 67.140625 
Q 48.6875 62.40625 49.75 54.046875 
z
M 13.875 23.1875 
Q 13.875 18.65625 15.796875 14.5 
Q 17.71875 10.359375 21.1875 8.171875 
Q 24.65625 6 28.46875 6 
Q 34.03125 6 38.03125 10.484375 
Q 42.046875 14.984375 42.046875 22.703125 
Q 42.046875 30.125 38.078125 34.390625 
Q 34.125 38.671875 28.125 38.671875 
Q 22.171875 38.671875 18.015625 34.390625 
Q 13.875 30.125 13.875 23.1875 
z
" id="ArialMT-36"/>
      </defs>
      <g style="fill:#262626;" transform="translate(78.891484 116.793594)scale(0.11 -0.11)">
       <use xlink:href="#ArialMT-36"/>
      </g>
     </g>
    </g>
    <g id="xtick_4">
     <g id="line2d_4">
      <g>
       <use style="fill:#262626;stroke:#262626;stroke-width:0.8;" x="96.87" xlink:href="#m271669274b" y="101.92"/>
      </g>
     </g>
     <g id="text_4">
      <!-- 8 -->
      <defs>
       <path d="M 17.671875 38.8125 
Q 12.203125 40.828125 9.5625 44.53125 
Q 6.9375 48.25 6.9375 53.421875 
Q 6.9375 61.234375 12.546875 66.546875 
Q 18.171875 71.875 27.484375 71.875 
Q 36.859375 71.875 42.578125 66.421875 
Q 48.296875 60.984375 48.296875 53.171875 
Q 48.296875 48.1875 45.671875 44.5 
Q 43.0625 40.828125 37.75 38.8125 
Q 44.34375 36.671875 47.78125 31.875 
Q 51.21875 27.09375 51.21875 20.453125 
Q 51.21875 11.28125 44.71875 5.03125 
Q 38.234375 -1.21875 27.640625 -1.21875 
Q 17.046875 -1.21875 10.546875 5.046875 
Q 4.046875 11.328125 4.046875 20.703125 
Q 4.046875 27.6875 7.59375 32.390625 
Q 11.140625 37.109375 17.671875 38.8125 
z
M 15.921875 53.71875 
Q 15.921875 48.640625 19.1875 45.40625 
Q 22.46875 42.1875 27.6875 42.1875 
Q 32.765625 42.1875 36.015625 45.375 
Q 39.265625 48.578125 39.265625 53.21875 
Q 39.265625 58.0625 35.90625 61.359375 
Q 32.5625 64.65625 27.59375 64.65625 
Q 22.5625 64.65625 19.234375 61.421875 
Q 15.921875 58.203125 15.921875 53.71875 
z
M 13.09375 20.65625 
Q 13.09375 16.890625 14.875 13.375 
Q 16.65625 9.859375 20.171875 7.921875 
Q 23.6875 6 27.734375 6 
Q 34.03125 6 38.125 10.046875 
Q 42.234375 14.109375 42.234375 20.359375 
Q 42.234375 26.703125 38.015625 30.859375 
Q 33.796875 35.015625 27.4375 35.015625 
Q 21.234375 35.015625 17.15625 30.90625 
Q 13.09375 26.8125 13.09375 20.65625 
z
" id="ArialMT-38"/>
      </defs>
      <g style="fill:#262626;" transform="translate(93.811484 116.793594)scale(0.11 -0.11)">
       <use xlink:href="#ArialMT-38"/>
      </g>
     </g>
    </g>
    <g id="xtick_5">
     <g id="line2d_5">
      <g>
       <use style="fill:#262626;stroke:#262626;stroke-width:0.8;" x="111.79" xlink:href="#m271669274b" y="101.92"/>
      </g>
     </g>
     <g id="text_5">
      <!-- 10 -->
      <defs>
       <path d="M 37.25 0 
L 28.46875 0 
L 28.46875 56 
Q 25.296875 52.984375 20.140625 49.953125 
Q 14.984375 46.921875 10.890625 45.40625 
L 10.890625 53.90625 
Q 18.265625 57.375 23.78125 62.296875 
Q 29.296875 67.234375 31.59375 71.875 
L 37.25 71.875 
z
" id="ArialMT-31"/>
       <path d="M 4.15625 35.296875 
Q 4.15625 48 6.765625 55.734375 
Q 9.375 63.484375 14.515625 67.671875 
Q 19.671875 71.875 27.484375 71.875 
Q 33.25 71.875 37.59375 69.546875 
Q 41.9375 67.234375 44.765625 62.859375 
Q 47.609375 58.5 49.21875 52.21875 
Q 50.828125 45.953125 50.828125 35.296875 
Q 50.828125 22.703125 48.234375 14.96875 
Q 45.65625 7.234375 40.5 3 
Q 35.359375 -1.21875 27.484375 -1.21875 
Q 17.140625 -1.21875 11.234375 6.203125 
Q 4.15625 15.140625 4.15625 35.296875 
z
M 13.1875 35.296875 
Q 13.1875 17.671875 17.3125 11.828125 
Q 21.4375 6 27.484375 6 
Q 33.546875 6 37.671875 11.859375 
Q 41.796875 17.71875 41.796875 35.296875 
Q 41.796875 52.984375 37.671875 58.78125 
Q 33.546875 64.59375 27.390625 64.59375 
Q 21.34375 64.59375 17.71875 59.46875 
Q 13.1875 52.9375 13.1875 35.296875 
z
" id="ArialMT-30"/>
      </defs>
      <g style="fill:#262626;" transform="translate(105.672969 116.793594)scale(0.11 -0.11)">
       <use xlink:href="#ArialMT-31"/>
       <use x="55.615234" xlink:href="#ArialMT-30"/>
      </g>
     </g>
    </g>
    <g id="xtick_6">
     <g id="line2d_6">
      <g>
       <use style="fill:#262626;stroke:#262626;stroke-width:0.8;" x="126.71" xlink:href="#m271669274b" y="101.92"/>
      </g>
     </g>
     <g id="text_6">
      <!-- 12 -->
      <g style="fill:#262626;" transform="translate(120.592969 116.793594)scale(0.11 -0.11)">
       <use xlink:href="#ArialMT-31"/>
       <use x="55.615234" xlink:href="#ArialMT-32"/>
      </g>
     </g>
    </g>
    <g id="text_7">
     <!-- pH -->
     <defs>
      <path d="M 6.59375 -19.875 
L 6.59375 51.859375 
L 14.59375 51.859375 
L 14.59375 45.125 
Q 17.4375 49.078125 21 51.046875 
Q 24.5625 53.03125 29.640625 53.03125 
Q 36.28125 53.03125 41.359375 49.609375 
Q 46.4375 46.1875 49.015625 39.953125 
Q 51.609375 33.734375 51.609375 26.3125 
Q 51.609375 18.359375 48.75 11.984375 
Q 45.90625 5.609375 40.453125 2.21875 
Q 35.015625 -1.171875 29 -1.171875 
Q 24.609375 -1.171875 21.109375 0.6875 
Q 17.625 2.546875 15.375 5.375 
L 15.375 -19.875 
z
M 14.546875 25.640625 
Q 14.546875 15.625 18.59375 10.84375 
Q 22.65625 6.0625 28.421875 6.0625 
Q 34.28125 6.0625 38.453125 11.015625 
Q 42.625 15.96875 42.625 26.375 
Q 42.625 36.28125 38.546875 41.203125 
Q 34.46875 46.140625 28.8125 46.140625 
Q 23.1875 46.140625 18.859375 40.890625 
Q 14.546875 35.640625 14.546875 25.640625 
z
" id="ArialMT-70"/>
      <path d="M 8.015625 0 
L 8.015625 71.578125 
L 17.484375 71.578125 
L 17.484375 42.1875 
L 54.6875 42.1875 
L 54.6875 71.578125 
L 64.15625 71.578125 
L 64.15625 0 
L 54.6875 0 
L 54.6875 33.734375 
L 17.484375 33.734375 
L 17.484375 0 
z
" id="ArialMT-48"/>
     </defs>
     <g style="fill:#262626;" transform="translate(82.379453 130.853437)scale(0.11 -0.11)">
      <use xlink:href="#ArialMT-70"/>
      <use x="55.615234" xlink:href="#ArialMT-48"/>
     </g>
    </g>
   </g>
   <g id="matplotlib.axis_2">
    <g id="ytick_1">
     <g id="line2d_7">
      <defs>
       <path d="M 0 0 
L -3.5 0 
" id="mcde5e94b50" style="stroke:#262626;stroke-width:0.8;"/>
      </defs>
      <g>
       <use style="fill:#262626;stroke:#262626;stroke-width:0.8;" x="48.38" xlink:href="#mcde5e94b50" y="98.776685"/>
      </g>
     </g>
     <g id="text_8">
      <!-- −1 -->
      <defs>
       <path d="M 52.828125 31.203125 
L 5.5625 31.203125 
L 5.5625 39.40625 
L 52.828125 39.40625 
z
" id="ArialMT-2212"/>
      </defs>
      <g style="fill:#262626;" transform="translate(28.838281 102.713482)scale(0.11 -0.11)">
       <use xlink:href="#ArialMT-2212"/>
       <use x="58.398438" xlink:href="#ArialMT-31"/>
      </g>
     </g>
    </g>
    <g id="ytick_2">
     <g id="line2d_8">
      <g>
       <use style="fill:#262626;stroke:#262626;stroke-width:0.8;" x="48.38" xlink:href="#mcde5e94b50" y="64.81292"/>
      </g>
     </g>
     <g id="text_9">
      <!-- 0 -->
      <g style="fill:#262626;" transform="translate(35.262969 68.749716)scale(0.11 -0.11)">
       <use xlink:href="#ArialMT-30"/>
      </g>
     </g>
    </g>
    <g id="ytick_3">
     <g id="line2d_9">
      <g>
       <use style="fill:#262626;stroke:#262626;stroke-width:0.8;" x="48.38" xlink:href="#mcde5e94b50" y="30.849154"/>
      </g>
     </g>
     <g id="text_10">
      <!-- 1 -->
      <g style="fill:#262626;" transform="translate(35.262969 34.785951)scale(0.11 -0.11)">
       <use xlink:href="#ArialMT-31"/>
      </g>
     </g>
    </g>
    <g id="text_11">
     <!-- $\langle q_\mathsf{total} \rangle$ -->
     <defs>
      <path d="M 8.9375 31.34375 
L 22.703125 75.875 
L 31 75.875 
L 17.234375 31.34375 
L 31 -13.1875 
L 22.703125 -13.1875 
z
" id="DejaVuSans-27e8"/>
      <path d="M 41.703125 8.203125 
Q 38.09375 3.46875 33.171875 1.015625 
Q 28.265625 -1.421875 22.3125 -1.421875 
Q 14.015625 -1.421875 9.296875 4.171875 
Q 4.59375 9.765625 4.59375 19.578125 
Q 4.59375 27.484375 7.5 34.859375 
Q 10.40625 42.234375 15.828125 48.09375 
Q 19.34375 51.90625 23.90625 53.953125 
Q 28.46875 56 33.5 56 
Q 39.546875 56 43.453125 53.609375 
Q 47.359375 51.21875 49.125 46.390625 
L 50.6875 54.59375 
L 59.71875 54.59375 
L 45.125 -20.609375 
L 36.078125 -20.609375 
z
M 13.921875 20.90625 
Q 13.921875 13.671875 16.9375 9.890625 
Q 19.96875 6.109375 25.6875 6.109375 
Q 34.1875 6.109375 40.1875 14.234375 
Q 46.1875 22.359375 46.1875 33.984375 
Q 46.1875 41.015625 43.078125 44.75 
Q 39.984375 48.484375 34.1875 48.484375 
Q 29.9375 48.484375 26.3125 46.5 
Q 22.703125 44.53125 20.015625 40.71875 
Q 17.1875 36.71875 15.546875 31.34375 
Q 13.921875 25.984375 13.921875 20.90625 
z
" id="DejaVuSans-Oblique-71"/>
      <path d="M 18.3125 70.21875 
L 18.3125 54.6875 
L 36.8125 54.6875 
L 36.8125 47.703125 
L 18.3125 47.703125 
L 18.3125 18.015625 
Q 18.3125 11.328125 20.140625 9.421875 
Q 21.96875 7.515625 27.59375 7.515625 
L 36.8125 7.515625 
L 36.8125 0 
L 27.59375 0 
Q 17.1875 0 13.234375 3.875 
Q 9.28125 7.765625 9.28125 18.015625 
L 9.28125 47.703125 
L 2.6875 47.703125 
L 2.6875 54.6875 
L 9.28125 54.6875 
L 9.28125 70.21875 
z
" id="DejaVuSans-74"/>
      <path d="M 30.609375 48.390625 
Q 23.390625 48.390625 19.1875 42.75 
Q 14.984375 37.109375 14.984375 27.296875 
Q 14.984375 17.484375 19.15625 11.84375 
Q 23.34375 6.203125 30.609375 6.203125 
Q 37.796875 6.203125 41.984375 11.859375 
Q 46.1875 17.53125 46.1875 27.296875 
Q 46.1875 37.015625 41.984375 42.703125 
Q 37.796875 48.390625 30.609375 48.390625 
z
M 30.609375 56 
Q 42.328125 56 49.015625 48.375 
Q 55.71875 40.765625 55.71875 27.296875 
Q 55.71875 13.875 49.015625 6.21875 
Q 42.328125 -1.421875 30.609375 -1.421875 
Q 18.84375 -1.421875 12.171875 6.21875 
Q 5.515625 13.875 5.515625 27.296875 
Q 5.515625 40.765625 12.171875 48.375 
Q 18.84375 56 30.609375 56 
z
" id="DejaVuSans-6f"/>
      <path d="M 34.28125 27.484375 
Q 23.390625 27.484375 19.1875 25 
Q 14.984375 22.515625 14.984375 16.5 
Q 14.984375 11.71875 18.140625 8.90625 
Q 21.296875 6.109375 26.703125 6.109375 
Q 34.1875 6.109375 38.703125 11.40625 
Q 43.21875 16.703125 43.21875 25.484375 
L 43.21875 27.484375 
z
M 52.203125 31.203125 
L 52.203125 0 
L 43.21875 0 
L 43.21875 8.296875 
Q 40.140625 3.328125 35.546875 0.953125 
Q 30.953125 -1.421875 24.3125 -1.421875 
Q 15.921875 -1.421875 10.953125 3.296875 
Q 6 8.015625 6 15.921875 
Q 6 25.140625 12.171875 29.828125 
Q 18.359375 34.515625 30.609375 34.515625 
L 43.21875 34.515625 
L 43.21875 35.40625 
Q 43.21875 41.609375 39.140625 45 
Q 35.0625 48.390625 27.6875 48.390625 
Q 23 48.390625 18.546875 47.265625 
Q 14.109375 46.140625 10.015625 43.890625 
L 10.015625 52.203125 
Q 14.9375 54.109375 19.578125 55.046875 
Q 24.21875 56 28.609375 56 
Q 40.484375 56 46.34375 49.84375 
Q 52.203125 43.703125 52.203125 31.203125 
z
" id="DejaVuSans-61"/>
      <path d="M 9.421875 75.984375 
L 18.40625 75.984375 
L 18.40625 0 
L 9.421875 0 
z
" id="DejaVuSans-6c"/>
      <path d="M 30.078125 31.34375 
L 16.3125 -13.1875 
L 8.015625 -13.1875 
L 21.78125 31.34375 
L 8.015625 75.875 
L 16.3125 75.875 
z
" id="DejaVuSans-27e9"/>
     </defs>
     <g style="fill:#262626;" transform="translate(22.528281 81.475)rotate(-90)scale(0.11 -0.11)">
      <use transform="translate(0 0.125)" xlink:href="#DejaVuSans-27e8"/>
      <use transform="translate(39.013672 0.125)" xlink:href="#DejaVuSans-Oblique-71"/>
      <use transform="translate(102.490234 -16.28125)scale(0.7)" xlink:href="#DejaVuSans-74"/>
      <use transform="translate(129.936523 -16.28125)scale(0.7)" xlink:href="#DejaVuSans-6f"/>
      <use transform="translate(172.763672 -16.28125)scale(0.7)" xlink:href="#DejaVuSans-74"/>
      <use transform="translate(200.209961 -16.28125)scale(0.7)" xlink:href="#DejaVuSans-61"/>
      <use transform="translate(243.105469 -16.28125)scale(0.7)" xlink:href="#DejaVuSans-6c"/>
      <use transform="translate(265.288086 0.125)" xlink:href="#DejaVuSans-27e9"/>
     </g>
    </g>
   </g>
   <g id="PolyCollection_1">
    <defs>
     <path d="M 52.11 -113.136364 
L 52.11 -113.136364 
L 52.856 -113.132616 
L 53.602 -113.127899 
L 54.348 -113.121962 
L 55.094 -113.114492 
L 55.84 -113.105092 
L 56.586 -113.093265 
L 57.332 -113.078387 
L 58.078 -113.059676 
L 58.824 -113.03615 
L 59.57 -113.006579 
L 60.316 -112.969424 
L 61.062 -112.922764 
L 61.808 -112.864207 
L 62.554 -112.790776 
L 63.3 -112.698785 
L 64.046 -112.58369 
L 64.792 -112.439913 
L 65.538 -112.260659 
L 66.284 -112.037721 
L 67.03 -111.761296 
L 67.776 -111.419843 
L 68.522 -111.000025 
L 69.268 -110.486805 
L 70.014 -109.863775 
L 70.76 -109.113832 
L 71.506 -108.22029 
L 72.252 -107.168508 
L 72.998 -105.948022 
L 73.744 -104.555029 
L 74.49 -102.994874 
L 75.236 -101.284008 
L 75.982 -99.450776 
L 76.728 -97.534478 
L 77.474 -95.582516 
L 78.22 -93.645931 
L 78.966 -91.77418 
L 79.712 -90.010248 
L 80.458 -88.387082 
L 81.204 -86.925876 
L 81.95 -85.636231 
L 82.696 -84.517712 
L 83.442 -83.562201 
L 84.188 -82.756436 
L 84.934 -82.084306 
L 85.68 -81.528693 
L 86.426 -81.072782 
L 87.172 -80.700898 
L 87.918 -80.39896 
L 88.664 -80.154655 
L 89.41 -79.957434 
L 90.156 -79.798388 
L 90.902 -79.670075 
L 91.648 -79.566324 
L 92.394 -79.482031 
L 93.14 -79.412978 
L 93.886 -79.355661 
L 94.632 -79.307137 
L 95.378 -79.264894 
L 96.124 -79.22673 
L 96.87 -79.190648 
L 97.616 -79.154752 
L 98.362 -79.11716 
L 99.108 -79.075901 
L 99.854 -79.028823 
L 100.6 -78.973484 
L 101.346 -78.907038 
L 102.092 -78.826106 
L 102.838 -78.726623 
L 103.584 -78.60368 
L 104.33 -78.451332 
L 105.076 -78.262409 
L 105.822 -78.02831 
L 106.568 -77.738827 
L 107.314 -77.382003 
L 108.06 -76.944105 
L 108.806 -76.40975 
L 109.552 -75.762299 
L 110.298 -74.984605 
L 111.044 -74.060226 
L 111.79 -72.975158 
L 112.536 -71.720056 
L 113.282 -70.292745 
L 114.028 -68.700659 
L 114.774 -66.962609 
L 115.52 -65.109263 
L 116.266 -63.181831 
L 117.012 -61.228835 
L 117.758 -59.301424 
L 118.504 -57.448122 
L 119.25 -55.71014 
L 119.996 -54.118147 
L 120.742 -52.690961 
L 121.488 -51.43602 
L 122.234 -50.351158 
L 122.98 -49.427039 
L 123.726 -48.649673 
L 124.472 -48.002635 
L 125.218 -47.468799 
L 125.964 -47.031554 
L 126.71 -46.675553 
L 126.71 -46.675553 
L 126.71 -45.463636 
L 125.964 -45.525308 
L 125.218 -45.602629 
L 124.472 -45.699466 
L 123.726 -45.820585 
L 122.98 -45.971825 
L 122.234 -46.160287 
L 121.488 -46.394527 
L 120.742 -46.684735 
L 119.996 -47.042862 
L 119.25 -47.482649 
L 118.504 -48.019487 
L 117.758 -48.670015 
L 117.012 -49.451358 
L 116.266 -50.379897 
L 115.52 -51.469523 
L 114.774 -52.729403 
L 114.028 -54.16146 
L 113.282 -55.757951 
L 112.536 -57.499719 
L 111.79 -59.355766 
L 111.044 -61.284619 
L 110.298 -63.237609 
L 109.552 -65.163592 
L 108.806 -67.014193 
L 108.06 -68.748471 
L 107.314 -70.33609 
L 106.568 -71.758578 
L 105.822 -73.00881 
L 105.076 -74.089202 
L 104.33 -75.009274 
L 103.584 -75.783131 
L 102.838 -76.427264 
L 102.092 -76.958828 
L 101.346 -77.394445 
L 100.6 -77.749468 
L 99.854 -78.037597 
L 99.108 -78.270756 
L 98.362 -78.459133 
L 97.616 -78.611316 
L 96.87 -78.73448 
L 96.124 -78.834587 
L 95.378 -78.916586 
L 94.632 -78.9846 
L 93.886 -79.042092 
L 93.14 -79.092024 
L 92.394 -79.136987 
L 91.648 -79.179328 
L 90.902 -79.221262 
L 90.156 -79.264986 
L 89.41 -79.312786 
L 88.664 -79.367147 
L 87.918 -79.430878 
L 87.172 -79.50724 
L 86.426 -79.600092 
L 85.68 -79.714055 
L 84.934 -79.854691 
L 84.188 -80.028703 
L 83.442 -80.244129 
L 82.696 -80.510544 
L 81.95 -80.839216 
L 81.204 -81.24319 
L 80.458 -81.737233 
L 79.712 -82.337561 
L 78.966 -83.061245 
L 78.22 -83.925193 
L 77.474 -84.944631 
L 76.728 -86.131065 
L 75.982 -87.489848 
L 75.236 -89.017658 
L 74.49 -90.70038 
L 73.744 -92.51204 
L 72.998 -94.415364 
L 72.252 -96.364259 
L 71.506 -98.308004 
L 70.76 -100.196406 
L 70.014 -101.984847 
L 69.268 -103.638172 
L 68.522 -105.132788 
L 67.776 -106.45686 
L 67.03 -107.608981 
L 66.284 -108.595928 
L 65.538 -109.43012 
L 64.792 -110.127243 
L 64.046 -110.704318 
L 63.3 -111.178276 
L 62.554 -111.565036 
L 61.808 -111.878978 
L 61.062 -112.132724 
L 60.316 -112.337106 
L 59.57 -112.501268 
L 58.824 -112.632831 
L 58.078 -112.738077 
L 57.332 -112.82215 
L 56.586 -112.889233 
L 55.84 -112.942709 
L 55.094 -112.985309 
L 54.348 -113.019223 
L 53.602 -113.046211 
L 52.856 -113.067678 
L 52.11 -113.08475 
z
" id="m9dbc9879d0" style="stroke:#ffffff;stroke-opacity:0.7;"/>
    </defs>
    <g clip-path="url(#p53092dade3)">
     <use style="fill:#b1400d;fill-opacity:0.7;stroke:#ffffff;stroke-opacity:0.7;" x="0" xlink:href="#m9dbc9879d0" y="144"/>
    </g>
   </g>
   <g id="line2d_10">
    <path clip-path="url(#p53092dade3)" d="M 52.11 30.863636 
L 52.856 30.867384 
L 53.602 30.872101 
L 54.348 30.878038 
L 55.094 30.885508 
L 55.84 30.894908 
L 56.586 30.906735 
L 57.332 30.921613 
L 58.078 30.940324 
L 58.824 30.96385 
L 59.57 30.993421 
L 60.316 31.030576 
L 61.062 31.077236 
L 61.808 31.135793 
L 62.554 31.209224 
L 63.3 31.301215 
L 64.046 31.41631 
L 64.792 31.560087 
L 65.538 31.739341 
L 66.284 31.962279 
L 67.03 32.238704 
L 67.776 32.580157 
L 68.522 32.999975 
L 69.268 33.513195 
L 70.014 34.136225 
L 70.76 34.886168 
L 71.506 35.77971 
L 72.252 36.831492 
L 72.998 38.051978 
L 73.744 39.444971 
L 74.49 41.005126 
L 75.236 42.715992 
L 75.982 44.549224 
L 76.728 46.465522 
L 77.474 48.417484 
L 78.22 50.354069 
L 78.966 52.22582 
L 79.712 53.989752 
L 80.458 55.612918 
L 81.204 57.074124 
L 81.95 58.363769 
L 82.696 59.482288 
L 83.442 60.437799 
L 84.188 61.243564 
L 84.934 61.915694 
L 85.68 62.471307 
L 86.426 62.927218 
L 87.172 63.299102 
L 87.918 63.60104 
L 88.664 63.845345 
L 89.41 64.042566 
L 90.156 64.201612 
L 90.902 64.329925 
L 91.648 64.433676 
L 92.394 64.517969 
L 93.14 64.587022 
L 93.886 64.644339 
L 94.632 64.692863 
L 95.378 64.735106 
L 96.124 64.77327 
L 96.87 64.809352 
L 97.616 64.845248 
L 98.362 64.88284 
L 99.108 64.924099 
L 99.854 64.971177 
L 100.6 65.026516 
L 101.346 65.092962 
L 102.092 65.173894 
L 102.838 65.273377 
L 103.584 65.39632 
L 104.33 65.548668 
L 105.076 65.737591 
L 105.822 65.97169 
L 106.568 66.261173 
L 107.314 66.617997 
L 108.06 67.055895 
L 108.806 67.59025 
L 109.552 68.237701 
L 110.298 69.015395 
L 111.044 69.939774 
L 111.79 71.024842 
L 112.536 72.279944 
L 113.282 73.707255 
L 114.028 75.299341 
L 114.774 77.037391 
L 115.52 78.890737 
L 116.266 80.818169 
L 117.012 82.771165 
L 117.758 84.698576 
L 118.504 86.551878 
L 119.25 88.28986 
L 119.996 89.881853 
L 120.742 91.309039 
L 121.488 92.56398 
L 122.234 93.648842 
L 122.98 94.572961 
L 123.726 95.350327 
L 124.472 95.997365 
L 125.218 96.531201 
L 125.964 96.968446 
L 126.71 97.324447 
" style="fill:none;stroke:#333333;stroke-dasharray:1.5,2.475;stroke-dashoffset:0;stroke-width:1.5;"/>
   </g>
   <g id="line2d_11">
    <path clip-path="url(#p53092dade3)" d="M 52.11 30.91525 
L 52.856 30.932322 
L 53.602 30.953789 
L 54.348 30.980777 
L 55.094 31.014691 
L 55.84 31.057291 
L 56.586 31.110767 
L 57.332 31.17785 
L 58.078 31.261923 
L 58.824 31.367169 
L 59.57 31.498732 
L 60.316 31.662894 
L 61.062 31.867276 
L 61.808 32.121022 
L 62.554 32.434964 
L 63.3 32.821724 
L 64.046 33.295682 
L 64.792 33.872757 
L 65.538 34.56988 
L 66.284 35.404072 
L 67.03 36.391019 
L 67.776 37.54314 
L 68.522 38.867212 
L 69.268 40.361828 
L 70.014 42.015153 
L 70.76 43.803594 
L 71.506 45.691996 
L 72.252 47.635741 
L 72.998 49.584636 
L 73.744 51.48796 
L 74.49 53.29962 
L 75.236 54.982342 
L 75.982 56.510152 
L 76.728 57.868935 
L 77.474 59.055369 
L 78.22 60.074807 
L 78.966 60.938755 
L 79.712 61.662439 
L 80.458 62.262767 
L 81.204 62.75681 
L 81.95 63.160784 
L 82.696 63.489456 
L 83.442 63.755871 
L 84.188 63.971297 
L 84.934 64.145309 
L 85.68 64.285945 
L 86.426 64.399908 
L 87.172 64.49276 
L 87.918 64.569122 
L 88.664 64.632853 
L 89.41 64.687214 
L 90.156 64.735014 
L 90.902 64.778738 
L 91.648 64.820672 
L 92.394 64.863013 
L 93.14 64.907976 
L 93.886 64.957908 
L 94.632 65.0154 
L 95.378 65.083414 
L 96.124 65.165413 
L 96.87 65.26552 
L 97.616 65.388684 
L 98.362 65.540867 
L 99.108 65.729244 
L 99.854 65.962403 
L 100.6 66.250532 
L 101.346 66.605555 
L 102.092 67.041172 
L 102.838 67.572736 
L 103.584 68.216869 
L 104.33 68.990726 
L 105.076 69.910798 
L 105.822 70.99119 
L 106.568 72.241422 
L 107.314 73.66391 
L 108.06 75.251529 
L 108.806 76.985807 
L 109.552 78.836408 
L 110.298 80.762391 
L 111.044 82.715381 
L 111.79 84.644234 
L 112.536 86.500281 
L 113.282 88.242049 
L 114.028 89.83854 
L 114.774 91.270597 
L 115.52 92.530477 
L 116.266 93.620103 
L 117.012 94.548642 
L 117.758 95.329985 
L 118.504 95.980513 
L 119.25 96.517351 
L 119.996 96.957138 
L 120.742 97.315265 
L 121.488 97.605473 
L 122.234 97.839713 
L 122.98 98.028175 
L 123.726 98.179415 
L 124.472 98.300534 
L 125.218 98.397371 
L 125.964 98.474692 
L 126.71 98.536364 
" style="fill:none;stroke:#333333;stroke-linecap:round;stroke-width:1.5;"/>
   </g>
   <g id="patch_3">
    <path d="M 48.38 101.92 
L 48.38 27.48 
" style="fill:none;stroke:#262626;stroke-linecap:square;stroke-linejoin:miter;stroke-width:0.8;"/>
   </g>
   <g id="patch_4">
    <path d="M 48.38 101.92 
L 130.44 101.92 
" style="fill:none;stroke:#262626;stroke-linecap:square;stroke-linejoin:miter;stroke-width:0.8;"/>
   </g>
   <g id="text_12">
    <!-- $\Delta$ area : 1.44 -->
    <defs>
     <path d="M 34.1875 63.1875 
L 14.15625 8.203125 
L 54.25 8.203125 
z
M 0.78125 0 
L 28.609375 72.90625 
L 39.796875 72.90625 
L 67.578125 0 
z
" id="DejaVuSans-394"/>
     <path id="ArialMT-20"/>
     <path d="M 40.4375 6.390625 
Q 35.546875 2.25 31.03125 0.53125 
Q 26.515625 -1.171875 21.34375 -1.171875 
Q 12.796875 -1.171875 8.203125 3 
Q 3.609375 7.171875 3.609375 13.671875 
Q 3.609375 17.484375 5.34375 20.625 
Q 7.078125 23.78125 9.890625 25.6875 
Q 12.703125 27.59375 16.21875 28.5625 
Q 18.796875 29.25 24.03125 29.890625 
Q 34.671875 31.15625 39.703125 32.90625 
Q 39.75 34.71875 39.75 35.203125 
Q 39.75 40.578125 37.25 42.78125 
Q 33.890625 45.75 27.25 45.75 
Q 21.046875 45.75 18.09375 43.578125 
Q 15.140625 41.40625 13.71875 35.890625 
L 5.125 37.0625 
Q 6.296875 42.578125 8.984375 45.96875 
Q 11.671875 49.359375 16.75 51.1875 
Q 21.828125 53.03125 28.515625 53.03125 
Q 35.15625 53.03125 39.296875 51.46875 
Q 43.453125 49.90625 45.40625 47.53125 
Q 47.359375 45.171875 48.140625 41.546875 
Q 48.578125 39.3125 48.578125 33.453125 
L 48.578125 21.734375 
Q 48.578125 9.46875 49.140625 6.21875 
Q 49.703125 2.984375 51.375 0 
L 42.1875 0 
Q 40.828125 2.734375 40.4375 6.390625 
z
M 39.703125 26.03125 
Q 34.90625 24.078125 25.34375 22.703125 
Q 19.921875 21.921875 17.671875 20.9375 
Q 15.4375 19.96875 14.203125 18.09375 
Q 12.984375 16.21875 12.984375 13.921875 
Q 12.984375 10.40625 15.640625 8.0625 
Q 18.3125 5.71875 23.4375 5.71875 
Q 28.515625 5.71875 32.46875 7.9375 
Q 36.421875 10.15625 38.28125 14.015625 
Q 39.703125 17 39.703125 22.796875 
z
" id="ArialMT-61"/>
     <path d="M 6.5 0 
L 6.5 51.859375 
L 14.40625 51.859375 
L 14.40625 44 
Q 17.4375 49.515625 20 51.265625 
Q 22.5625 53.03125 25.640625 53.03125 
Q 30.078125 53.03125 34.671875 50.203125 
L 31.640625 42.046875 
Q 28.421875 43.953125 25.203125 43.953125 
Q 22.3125 43.953125 20.015625 42.21875 
Q 17.71875 40.484375 16.75 37.40625 
Q 15.28125 32.71875 15.28125 27.15625 
L 15.28125 0 
z
" id="ArialMT-72"/>
     <path d="M 42.09375 16.703125 
L 51.171875 15.578125 
Q 49.03125 7.625 43.21875 3.21875 
Q 37.40625 -1.171875 28.375 -1.171875 
Q 17 -1.171875 10.328125 5.828125 
Q 3.65625 12.84375 3.65625 25.484375 
Q 3.65625 38.578125 10.390625 45.796875 
Q 17.140625 53.03125 27.875 53.03125 
Q 38.28125 53.03125 44.875 45.953125 
Q 51.46875 38.875 51.46875 26.03125 
Q 51.46875 25.25 51.421875 23.6875 
L 12.75 23.6875 
Q 13.234375 15.140625 17.578125 10.59375 
Q 21.921875 6.0625 28.421875 6.0625 
Q 33.25 6.0625 36.671875 8.59375 
Q 40.09375 11.140625 42.09375 16.703125 
z
M 13.234375 30.90625 
L 42.1875 30.90625 
Q 41.609375 37.453125 38.875 40.71875 
Q 34.671875 45.796875 27.984375 45.796875 
Q 21.921875 45.796875 17.796875 41.75 
Q 13.671875 37.703125 13.234375 30.90625 
z
" id="ArialMT-65"/>
     <path d="M 9.03125 41.84375 
L 9.03125 51.859375 
L 19.046875 51.859375 
L 19.046875 41.84375 
z
M 9.03125 0 
L 9.03125 10.015625 
L 19.046875 10.015625 
L 19.046875 0 
z
" id="ArialMT-3a"/>
     <path d="M 9.078125 0 
L 9.078125 10.015625 
L 19.09375 10.015625 
L 19.09375 0 
z
" id="ArialMT-2e"/>
    </defs>
    <g style="fill:#262626;" transform="translate(51.46 21.48)scale(0.132 -0.132)">
     <use transform="translate(0 0.09375)" xlink:href="#DejaVuSans-394"/>
     <use transform="translate(68.408203 0.09375)" xlink:href="#ArialMT-20"/>
     <use transform="translate(96.191406 0.09375)" xlink:href="#ArialMT-61"/>
     <use transform="translate(151.806641 0.09375)" xlink:href="#ArialMT-72"/>
     <use transform="translate(185.107422 0.09375)" xlink:href="#ArialMT-65"/>
     <use transform="translate(240.722656 0.09375)" xlink:href="#ArialMT-61"/>
     <use transform="translate(296.337891 0.09375)" xlink:href="#ArialMT-20"/>
     <use transform="translate(324.121094 0.09375)" xlink:href="#ArialMT-3a"/>
     <use transform="translate(351.904297 0.09375)" xlink:href="#ArialMT-20"/>
     <use transform="translate(379.6875 0.09375)" xlink:href="#ArialMT-31"/>
     <use transform="translate(435.302734 0.09375)" xlink:href="#ArialMT-2e"/>
     <use transform="translate(463.085938 0.09375)" xlink:href="#ArialMT-34"/>
     <use transform="translate(518.701172 0.09375)" xlink:href="#ArialMT-34"/>
    </g>
   </g>
  </g>
 </g>
 <defs>
  <clipPath id="p53092dade3">
   <rect height="74.44" width="82.06" x="48.38" y="27.48"/>
  </clipPath>
 </defs>
</svg>
