<?xml version="1.0" encoding="utf-8" standalone="no"?>
<!DOCTYPE svg PUBLIC "-//W3C//DTD SVG 1.1//EN"
  "http://www.w3.org/Graphics/SVG/1.1/DTD/svg11.dtd">
<!-- Created with matplotlib (http://matplotlib.org/) -->
<svg height="216pt" version="1.1" viewBox="0 0 216 216" width="216pt" xmlns="http://www.w3.org/2000/svg" xmlns:xlink="http://www.w3.org/1999/xlink">
 <defs>
  <style type="text/css">
*{stroke-linecap:butt;stroke-linejoin:round;}
  </style>
 </defs>
 <g id="figure_1">
  <g id="patch_1">
   <path d="M 0 216 
L 216 216 
L 216 0 
L 0 0 
z
" style="fill:#ffffff;"/>
  </g>
  <g id="axes_1">
   <g id="patch_2">
    <path d="M 44.78 175.96 
L 203.52 175.96 
L 203.52 25.44 
L 44.78 25.44 
z
" style="fill:#ffffff;"/>
   </g>
   <g id="matplotlib.axis_1">
    <g id="xtick_1">
     <g id="line2d_1">
      <defs>
       <path d="M 0 0 
L 0 3.5 
" id="m15d1d2112d" style="stroke:#262626;stroke-width:0.8;"/>
      </defs>
      <g>
       <use style="fill:#262626;stroke:#262626;stroke-width:0.8;" x="51.995455" xlink:href="#m15d1d2112d" y="175.96"/>
      </g>
     </g>
     <g id="text_1">
      <!-- 2 -->
      <defs>
       <path d="M 50.34375 8.453125 
L 50.34375 0 
L 3.03125 0 
Q 2.9375 3.171875 4.046875 6.109375 
Q 5.859375 10.9375 9.828125 15.625 
Q 13.8125 20.3125 21.34375 26.46875 
Q 33.015625 36.03125 37.109375 41.625 
Q 41.21875 47.21875 41.21875 52.203125 
Q 41.21875 57.421875 37.46875 61 
Q 33.734375 64.59375 27.734375 64.59375 
Q 21.390625 64.59375 17.578125 60.78125 
Q 13.765625 56.984375 13.71875 50.25 
L 4.6875 51.171875 
Q 5.609375 61.28125 11.65625 66.578125 
Q 17.71875 71.875 27.9375 71.875 
Q 38.234375 71.875 44.234375 66.15625 
Q 50.25 60.453125 50.25 52 
Q 50.25 47.703125 48.484375 43.546875 
Q 46.734375 39.40625 42.65625 34.8125 
Q 38.578125 30.21875 29.109375 22.21875 
Q 21.1875 15.578125 18.9375 13.203125 
Q 16.703125 10.84375 15.234375 8.453125 
z
" id="ArialMT-32"/>
      </defs>
      <g style="fill:#262626;" transform="translate(49.214986 190.117812)scale(0.1 -0.1)">
       <use xlink:href="#ArialMT-32"/>
      </g>
     </g>
    </g>
    <g id="xtick_2">
     <g id="line2d_2">
      <g>
       <use style="fill:#262626;stroke:#262626;stroke-width:0.8;" x="80.857273" xlink:href="#m15d1d2112d" y="175.96"/>
      </g>
     </g>
     <g id="text_2">
      <!-- 4 -->
      <defs>
       <path d="M 32.328125 0 
L 32.328125 17.140625 
L 1.265625 17.140625 
L 1.265625 25.203125 
L 33.9375 71.578125 
L 41.109375 71.578125 
L 41.109375 25.203125 
L 50.78125 25.203125 
L 50.78125 17.140625 
L 41.109375 17.140625 
L 41.109375 0 
z
M 32.328125 25.203125 
L 32.328125 57.46875 
L 9.90625 25.203125 
z
" id="ArialMT-34"/>
      </defs>
      <g style="fill:#262626;" transform="translate(78.076804 190.117812)scale(0.1 -0.1)">
       <use xlink:href="#ArialMT-34"/>
      </g>
     </g>
    </g>
    <g id="xtick_3">
     <g id="line2d_3">
      <g>
       <use style="fill:#262626;stroke:#262626;stroke-width:0.8;" x="109.719091" xlink:href="#m15d1d2112d" y="175.96"/>
      </g>
     </g>
     <g id="text_3">
      <!-- 6 -->
      <defs>
       <path d="M 49.75 54.046875 
L 41.015625 53.375 
Q 39.84375 58.546875 37.703125 60.890625 
Q 34.125 64.65625 28.90625 64.65625 
Q 24.703125 64.65625 21.53125 62.3125 
Q 17.390625 59.28125 14.984375 53.46875 
Q 12.59375 47.65625 12.5 36.921875 
Q 15.671875 41.75 20.265625 44.09375 
Q 24.859375 46.4375 29.890625 46.4375 
Q 38.671875 46.4375 44.84375 39.96875 
Q 51.03125 33.5 51.03125 23.25 
Q 51.03125 16.5 48.125 10.71875 
Q 45.21875 4.9375 40.140625 1.859375 
Q 35.0625 -1.21875 28.609375 -1.21875 
Q 17.625 -1.21875 10.6875 6.859375 
Q 3.765625 14.9375 3.765625 33.5 
Q 3.765625 54.25 11.421875 63.671875 
Q 18.109375 71.875 29.4375 71.875 
Q 37.890625 71.875 43.28125 67.140625 
Q 48.6875 62.40625 49.75 54.046875 
z
M 13.875 23.1875 
Q 13.875 18.65625 15.796875 14.5 
Q 17.71875 10.359375 21.1875 8.171875 
Q 24.65625 6 28.46875 6 
Q 34.03125 6 38.03125 10.484375 
Q 42.046875 14.984375 42.046875 22.703125 
Q 42.046875 30.125 38.078125 34.390625 
Q 34.125 38.671875 28.125 38.671875 
Q 22.171875 38.671875 18.015625 34.390625 
Q 13.875 30.125 13.875 23.1875 
z
" id="ArialMT-36"/>
      </defs>
      <g style="fill:#262626;" transform="translate(106.938622 190.117812)scale(0.1 -0.1)">
       <use xlink:href="#ArialMT-36"/>
      </g>
     </g>
    </g>
    <g id="xtick_4">
     <g id="line2d_4">
      <g>
       <use style="fill:#262626;stroke:#262626;stroke-width:0.8;" x="138.580909" xlink:href="#m15d1d2112d" y="175.96"/>
      </g>
     </g>
     <g id="text_4">
      <!-- 8 -->
      <defs>
       <path d="M 17.671875 38.8125 
Q 12.203125 40.828125 9.5625 44.53125 
Q 6.9375 48.25 6.9375 53.421875 
Q 6.9375 61.234375 12.546875 66.546875 
Q 18.171875 71.875 27.484375 71.875 
Q 36.859375 71.875 42.578125 66.421875 
Q 48.296875 60.984375 48.296875 53.171875 
Q 48.296875 48.1875 45.671875 44.5 
Q 43.0625 40.828125 37.75 38.8125 
Q 44.34375 36.671875 47.78125 31.875 
Q 51.21875 27.09375 51.21875 20.453125 
Q 51.21875 11.28125 44.71875 5.03125 
Q 38.234375 -1.21875 27.640625 -1.21875 
Q 17.046875 -1.21875 10.546875 5.046875 
Q 4.046875 11.328125 4.046875 20.703125 
Q 4.046875 27.6875 7.59375 32.390625 
Q 11.140625 37.109375 17.671875 38.8125 
z
M 15.921875 53.71875 
Q 15.921875 48.640625 19.1875 45.40625 
Q 22.46875 42.1875 27.6875 42.1875 
Q 32.765625 42.1875 36.015625 45.375 
Q 39.265625 48.578125 39.265625 53.21875 
Q 39.265625 58.0625 35.90625 61.359375 
Q 32.5625 64.65625 27.59375 64.65625 
Q 22.5625 64.65625 19.234375 61.421875 
Q 15.921875 58.203125 15.921875 53.71875 
z
M 13.09375 20.65625 
Q 13.09375 16.890625 14.875 13.375 
Q 16.65625 9.859375 20.171875 7.921875 
Q 23.6875 6 27.734375 6 
Q 34.03125 6 38.125 10.046875 
Q 42.234375 14.109375 42.234375 20.359375 
Q 42.234375 26.703125 38.015625 30.859375 
Q 33.796875 35.015625 27.4375 35.015625 
Q 21.234375 35.015625 17.15625 30.90625 
Q 13.09375 26.8125 13.09375 20.65625 
z
" id="ArialMT-38"/>
      </defs>
      <g style="fill:#262626;" transform="translate(135.80044 190.117812)scale(0.1 -0.1)">
       <use xlink:href="#ArialMT-38"/>
      </g>
     </g>
    </g>
    <g id="xtick_5">
     <g id="line2d_5">
      <g>
       <use style="fill:#262626;stroke:#262626;stroke-width:0.8;" x="167.442727" xlink:href="#m15d1d2112d" y="175.96"/>
      </g>
     </g>
     <g id="text_5">
      <!-- 10 -->
      <defs>
       <path d="M 37.25 0 
L 28.46875 0 
L 28.46875 56 
Q 25.296875 52.984375 20.140625 49.953125 
Q 14.984375 46.921875 10.890625 45.40625 
L 10.890625 53.90625 
Q 18.265625 57.375 23.78125 62.296875 
Q 29.296875 67.234375 31.59375 71.875 
L 37.25 71.875 
z
" id="ArialMT-31"/>
       <path d="M 4.15625 35.296875 
Q 4.15625 48 6.765625 55.734375 
Q 9.375 63.484375 14.515625 67.671875 
Q 19.671875 71.875 27.484375 71.875 
Q 33.25 71.875 37.59375 69.546875 
Q 41.9375 67.234375 44.765625 62.859375 
Q 47.609375 58.5 49.21875 52.21875 
Q 50.828125 45.953125 50.828125 35.296875 
Q 50.828125 22.703125 48.234375 14.96875 
Q 45.65625 7.234375 40.5 3 
Q 35.359375 -1.21875 27.484375 -1.21875 
Q 17.140625 -1.21875 11.234375 6.203125 
Q 4.15625 15.140625 4.15625 35.296875 
z
M 13.1875 35.296875 
Q 13.1875 17.671875 17.3125 11.828125 
Q 21.4375 6 27.484375 6 
Q 33.546875 6 37.671875 11.859375 
Q 41.796875 17.71875 41.796875 35.296875 
Q 41.796875 52.984375 37.671875 58.78125 
Q 33.546875 64.59375 27.390625 64.59375 
Q 21.34375 64.59375 17.71875 59.46875 
Q 13.1875 52.9375 13.1875 35.296875 
z
" id="ArialMT-30"/>
      </defs>
      <g style="fill:#262626;" transform="translate(161.88179 190.117812)scale(0.1 -0.1)">
       <use xlink:href="#ArialMT-31"/>
       <use x="55.615234" xlink:href="#ArialMT-30"/>
      </g>
     </g>
    </g>
    <g id="xtick_6">
     <g id="line2d_6">
      <g>
       <use style="fill:#262626;stroke:#262626;stroke-width:0.8;" x="196.304545" xlink:href="#m15d1d2112d" y="175.96"/>
      </g>
     </g>
     <g id="text_6">
      <!-- 12 -->
      <g style="fill:#262626;" transform="translate(190.743608 190.117812)scale(0.1 -0.1)">
       <use xlink:href="#ArialMT-31"/>
       <use x="55.615234" xlink:href="#ArialMT-32"/>
      </g>
     </g>
    </g>
    <g id="text_7">
     <!-- pH -->
     <defs>
      <path d="M 6.59375 -19.875 
L 6.59375 51.859375 
L 14.59375 51.859375 
L 14.59375 45.125 
Q 17.4375 49.078125 21 51.046875 
Q 24.5625 53.03125 29.640625 53.03125 
Q 36.28125 53.03125 41.359375 49.609375 
Q 46.4375 46.1875 49.015625 39.953125 
Q 51.609375 33.734375 51.609375 26.3125 
Q 51.609375 18.359375 48.75 11.984375 
Q 45.90625 5.609375 40.453125 2.21875 
Q 35.015625 -1.171875 29 -1.171875 
Q 24.609375 -1.171875 21.109375 0.6875 
Q 17.625 2.546875 15.375 5.375 
L 15.375 -19.875 
z
M 14.546875 25.640625 
Q 14.546875 15.625 18.59375 10.84375 
Q 22.65625 6.0625 28.421875 6.0625 
Q 34.28125 6.0625 38.453125 11.015625 
Q 42.625 15.96875 42.625 26.375 
Q 42.625 36.28125 38.546875 41.203125 
Q 34.46875 46.140625 28.8125 46.140625 
Q 23.1875 46.140625 18.859375 40.890625 
Q 14.546875 35.640625 14.546875 25.640625 
z
" id="ArialMT-70"/>
      <path d="M 8.015625 0 
L 8.015625 71.578125 
L 17.484375 71.578125 
L 17.484375 42.1875 
L 54.6875 42.1875 
L 54.6875 71.578125 
L 64.15625 71.578125 
L 64.15625 0 
L 54.6875 0 
L 54.6875 33.734375 
L 17.484375 33.734375 
L 17.484375 0 
z
" id="ArialMT-48"/>
     </defs>
     <g style="fill:#262626;" transform="translate(117.758594 203.263125)scale(0.1 -0.1)">
      <use xlink:href="#ArialMT-70"/>
      <use x="55.615234" xlink:href="#ArialMT-48"/>
     </g>
    </g>
   </g>
   <g id="matplotlib.axis_2">
    <g id="ytick_1">
     <g id="line2d_7">
      <defs>
       <path d="M 0 0 
L -3.5 0 
" id="mc9b19b9d11" style="stroke:#262626;stroke-width:0.8;"/>
      </defs>
      <g>
       <use style="fill:#262626;stroke:#262626;stroke-width:0.8;" x="44.78" xlink:href="#mc9b19b9d11" y="148.626052"/>
      </g>
     </g>
     <g id="text_8">
      <!-- −1 -->
      <defs>
       <path d="M 52.828125 31.203125 
L 5.5625 31.203125 
L 5.5625 39.40625 
L 52.828125 39.40625 
z
" id="ArialMT-2212"/>
      </defs>
      <g style="fill:#262626;" transform="translate(26.378438 152.204958)scale(0.1 -0.1)">
       <use xlink:href="#ArialMT-2212"/>
       <use x="58.398438" xlink:href="#ArialMT-31"/>
      </g>
     </g>
    </g>
    <g id="ytick_2">
     <g id="line2d_8">
      <g>
       <use style="fill:#262626;stroke:#262626;stroke-width:0.8;" x="44.78" xlink:href="#mc9b19b9d11" y="104.776975"/>
      </g>
     </g>
     <g id="text_9">
      <!-- 0 -->
      <g style="fill:#262626;" transform="translate(32.219063 108.355881)scale(0.1 -0.1)">
       <use xlink:href="#ArialMT-30"/>
      </g>
     </g>
    </g>
    <g id="ytick_3">
     <g id="line2d_9">
      <g>
       <use style="fill:#262626;stroke:#262626;stroke-width:0.8;" x="44.78" xlink:href="#mc9b19b9d11" y="60.927898"/>
      </g>
     </g>
     <g id="text_10">
      <!-- 1 -->
      <g style="fill:#262626;" transform="translate(32.219063 64.506804)scale(0.1 -0.1)">
       <use xlink:href="#ArialMT-31"/>
      </g>
     </g>
    </g>
    <g id="text_11">
     <!-- $\langle q_\mathsf{total} \rangle$ -->
     <defs>
      <path d="M 8.9375 31.34375 
L 22.703125 75.875 
L 31 75.875 
L 17.234375 31.34375 
L 31 -13.1875 
L 22.703125 -13.1875 
z
" id="DejaVuSans-27e8"/>
      <path d="M 41.703125 8.203125 
Q 38.09375 3.46875 33.171875 1.015625 
Q 28.265625 -1.421875 22.3125 -1.421875 
Q 14.015625 -1.421875 9.296875 4.171875 
Q 4.59375 9.765625 4.59375 19.578125 
Q 4.59375 27.484375 7.5 34.859375 
Q 10.40625 42.234375 15.828125 48.09375 
Q 19.34375 51.90625 23.90625 53.953125 
Q 28.46875 56 33.5 56 
Q 39.546875 56 43.453125 53.609375 
Q 47.359375 51.21875 49.125 46.390625 
L 50.6875 54.59375 
L 59.71875 54.59375 
L 45.125 -20.609375 
L 36.078125 -20.609375 
z
M 13.921875 20.90625 
Q 13.921875 13.671875 16.9375 9.890625 
Q 19.96875 6.109375 25.6875 6.109375 
Q 34.1875 6.109375 40.1875 14.234375 
Q 46.1875 22.359375 46.1875 33.984375 
Q 46.1875 41.015625 43.078125 44.75 
Q 39.984375 48.484375 34.1875 48.484375 
Q 29.9375 48.484375 26.3125 46.5 
Q 22.703125 44.53125 20.015625 40.71875 
Q 17.1875 36.71875 15.546875 31.34375 
Q 13.921875 25.984375 13.921875 20.90625 
z
" id="DejaVuSans-Oblique-71"/>
      <path d="M 18.3125 70.21875 
L 18.3125 54.6875 
L 36.8125 54.6875 
L 36.8125 47.703125 
L 18.3125 47.703125 
L 18.3125 18.015625 
Q 18.3125 11.328125 20.140625 9.421875 
Q 21.96875 7.515625 27.59375 7.515625 
L 36.8125 7.515625 
L 36.8125 0 
L 27.59375 0 
Q 17.1875 0 13.234375 3.875 
Q 9.28125 7.765625 9.28125 18.015625 
L 9.28125 47.703125 
L 2.6875 47.703125 
L 2.6875 54.6875 
L 9.28125 54.6875 
L 9.28125 70.21875 
z
" id="DejaVuSans-74"/>
      <path d="M 30.609375 48.390625 
Q 23.390625 48.390625 19.1875 42.75 
Q 14.984375 37.109375 14.984375 27.296875 
Q 14.984375 17.484375 19.15625 11.84375 
Q 23.34375 6.203125 30.609375 6.203125 
Q 37.796875 6.203125 41.984375 11.859375 
Q 46.1875 17.53125 46.1875 27.296875 
Q 46.1875 37.015625 41.984375 42.703125 
Q 37.796875 48.390625 30.609375 48.390625 
z
M 30.609375 56 
Q 42.328125 56 49.015625 48.375 
Q 55.71875 40.765625 55.71875 27.296875 
Q 55.71875 13.875 49.015625 6.21875 
Q 42.328125 -1.421875 30.609375 -1.421875 
Q 18.84375 -1.421875 12.171875 6.21875 
Q 5.515625 13.875 5.515625 27.296875 
Q 5.515625 40.765625 12.171875 48.375 
Q 18.84375 56 30.609375 56 
z
" id="DejaVuSans-6f"/>
      <path d="M 34.28125 27.484375 
Q 23.390625 27.484375 19.1875 25 
Q 14.984375 22.515625 14.984375 16.5 
Q 14.984375 11.71875 18.140625 8.90625 
Q 21.296875 6.109375 26.703125 6.109375 
Q 34.1875 6.109375 38.703125 11.40625 
Q 43.21875 16.703125 43.21875 25.484375 
L 43.21875 27.484375 
z
M 52.203125 31.203125 
L 52.203125 0 
L 43.21875 0 
L 43.21875 8.296875 
Q 40.140625 3.328125 35.546875 0.953125 
Q 30.953125 -1.421875 24.3125 -1.421875 
Q 15.921875 -1.421875 10.953125 3.296875 
Q 6 8.015625 6 15.921875 
Q 6 25.140625 12.171875 29.828125 
Q 18.359375 34.515625 30.609375 34.515625 
L 43.21875 34.515625 
L 43.21875 35.40625 
Q 43.21875 41.609375 39.140625 45 
Q 35.0625 48.390625 27.6875 48.390625 
Q 23 48.390625 18.546875 47.265625 
Q 14.109375 46.140625 10.015625 43.890625 
L 10.015625 52.203125 
Q 14.9375 54.109375 19.578125 55.046875 
Q 24.21875 56 28.609375 56 
Q 40.484375 56 46.34375 49.84375 
Q 52.203125 43.703125 52.203125 31.203125 
z
" id="DejaVuSans-61"/>
      <path d="M 9.421875 75.984375 
L 18.40625 75.984375 
L 18.40625 0 
L 9.421875 0 
z
" id="DejaVuSans-6c"/>
      <path d="M 30.078125 31.34375 
L 16.3125 -13.1875 
L 8.015625 -13.1875 
L 21.78125 31.34375 
L 8.015625 75.875 
L 16.3125 75.875 
z
" id="DejaVuSans-27e9"/>
     </defs>
     <g style="fill:#262626;" transform="translate(20.278438 115.95)rotate(-90)scale(0.1 -0.1)">
      <use transform="translate(0 0.125)" xlink:href="#DejaVuSans-27e8"/>
      <use transform="translate(39.013672 0.125)" xlink:href="#DejaVuSans-Oblique-71"/>
      <use transform="translate(102.490234 -16.28125)scale(0.7)" xlink:href="#DejaVuSans-74"/>
      <use transform="translate(129.936523 -16.28125)scale(0.7)" xlink:href="#DejaVuSans-6f"/>
      <use transform="translate(172.763672 -16.28125)scale(0.7)" xlink:href="#DejaVuSans-74"/>
      <use transform="translate(200.209961 -16.28125)scale(0.7)" xlink:href="#DejaVuSans-61"/>
      <use transform="translate(243.105469 -16.28125)scale(0.7)" xlink:href="#DejaVuSans-6c"/>
      <use transform="translate(265.288086 0.125)" xlink:href="#DejaVuSans-27e9"/>
     </g>
    </g>
   </g>
   <g id="PolyCollection_1">
    <defs>
     <path d="M 51.995455 -168.508158 
L 51.995455 -141.612423 
L 53.438545 -140.930598 
L 54.881636 -140.229849 
L 56.324727 -139.510299 
L 57.767818 -138.772144 
L 59.210909 -138.015733 
L 60.654 -137.241658 
L 62.097091 -136.450816 
L 63.540182 -135.644445 
L 64.983273 -134.824094 
L 66.426364 -133.991526 
L 67.869455 -133.148545 
L 69.312545 -132.296785 
L 70.755636 -131.437474 
L 72.198727 -130.571218 
L 73.641818 -129.697809 
L 75.084909 -128.816054 
L 76.528 -127.923618 
L 77.971091 -127.016868 
L 79.414182 -126.090712 
L 80.857273 -125.138426 
L 82.300364 -124.151469 
L 83.743455 -123.1193 
L 85.186545 -122.029215 
L 86.629636 -120.866272 
L 88.072727 -119.613397 
L 89.515818 -118.251778 
L 90.958909 -116.761705 
L 92.402 -115.123974 
L 93.845091 -113.321947 
L 95.288182 -111.344257 
L 96.731273 -109.187946 
L 98.174364 -106.861626 
L 99.617455 -104.387933 
L 101.060545 -101.804488 
L 102.503636 -99.162646 
L 103.946727 -96.52378 
L 105.389818 -93.953539 
L 106.832909 -91.515121 
L 108.276 -89.262924 
L 109.719091 -87.237732 
L 111.162182 -85.464097 
L 112.605273 -83.949947 
L 114.048364 -82.687965 
L 115.491455 -81.658152 
L 116.934545 -80.831112 
L 118.377636 -80.171755 
L 119.820727 -79.642893 
L 121.263818 -79.208138 
L 122.706909 -78.833638 
L 124.15 -78.48854 
L 125.593091 -78.144426 
L 127.036182 -77.774449 
L 128.479273 -77.352841 
L 129.922364 -76.854968 
L 131.365455 -76.257736 
L 132.808545 -75.540124 
L 134.251636 -74.683314 
L 135.694727 -73.669965 
L 137.137818 -72.483729 
L 138.580909 -71.110922 
L 140.024 -69.544531 
L 141.467091 -67.788331 
L 142.910182 -65.859016 
L 144.353273 -63.786237 
L 145.796364 -61.611679 
L 147.239455 -59.387956 
L 148.682545 -57.177358 
L 150.125636 -55.049503 
L 151.568727 -53.076041 
L 153.011818 -51.32205 
L 154.454909 -49.837324 
L 155.898 -48.651806 
L 157.341091 -47.775898 
L 158.784182 -47.203244 
L 160.227273 -46.914404 
L 161.670364 -46.881818 
L 163.113455 -47.075386 
L 164.556545 -47.466016 
L 165.999636 -48.025959 
L 167.442727 -48.727706 
L 168.885818 -49.543591 
L 170.328909 -50.446423 
L 171.772 -51.410554 
L 173.215091 -52.412893 
L 174.658182 -53.433513 
L 176.101273 -54.455659 
L 177.544364 -55.465378 
L 178.987455 -56.451139 
L 180.430545 -57.403571 
L 181.873636 -58.315279 
L 183.316727 -59.180667 
L 184.759818 -59.995757 
L 186.202909 -60.757991 
L 187.646 -61.46603 
L 189.089091 -62.119547 
L 190.532182 -62.719044 
L 191.975273 -63.265697 
L 193.418364 -63.761246 
L 194.861455 -64.207912 
L 196.304545 -64.608316 
L 196.304545 -70.184582 
L 196.304545 -70.184582 
L 194.861455 -70.596631 
L 193.418364 -71.057951 
L 191.975273 -71.571944 
L 190.532182 -72.141805 
L 189.089091 -72.7705 
L 187.646 -73.460749 
L 186.202909 -74.214987 
L 184.759818 -75.035313 
L 183.316727 -75.923426 
L 181.873636 -76.880572 
L 180.430545 -77.907523 
L 178.987455 -79.004606 
L 177.544364 -80.171792 
L 176.101273 -81.408839 
L 174.658182 -82.71549 
L 173.215091 -84.091636 
L 171.772 -85.537419 
L 170.328909 -87.053357 
L 168.885818 -88.640842 
L 167.442727 -90.303143 
L 165.999636 -92.046627 
L 164.556545 -93.881673 
L 163.113455 -95.822599 
L 161.670364 -97.885719 
L 160.227273 -100.085624 
L 158.784182 -102.431574 
L 157.341091 -104.925802 
L 155.898 -107.562805 
L 154.454909 -110.327808 
L 153.011818 -113.194985 
L 151.568727 -116.127502 
L 150.125636 -119.079306 
L 148.682545 -121.996978 
L 147.239455 -124.821895 
L 145.796364 -127.494967 
L 144.353273 -129.964418 
L 142.910182 -132.19353 
L 141.467091 -134.164875 
L 140.024 -135.879801 
L 138.580909 -137.354174 
L 137.137818 -138.612765 
L 135.694727 -139.684983 
L 134.251636 -140.603077 
L 132.808545 -141.401387 
L 131.365455 -142.114659 
L 129.922364 -142.775525 
L 128.479273 -143.412836 
L 127.036182 -144.051669 
L 125.593091 -144.714295 
L 124.15 -145.421331 
L 122.706909 -146.192664 
L 121.263818 -147.047747 
L 119.820727 -148.005245 
L 118.377636 -149.082487 
L 116.934545 -150.295169 
L 115.491455 -151.657295 
L 114.048364 -153.180993 
L 112.605273 -154.875638 
L 111.162182 -156.745818 
L 109.719091 -158.788254 
L 108.276 -160.988429 
L 106.832909 -163.318044 
L 105.389818 -165.734318 
L 103.946727 -168.181852 
L 102.503636 -170.597082 
L 101.060545 -172.914593 
L 99.617455 -175.073926 
L 98.174364 -177.025381 
L 96.731273 -178.733716 
L 95.288182 -180.179337 
L 93.845091 -181.357242 
L 92.402 -182.274454 
L 90.958909 -182.946746 
L 89.515818 -183.395392 
L 88.072727 -183.644361 
L 86.629636 -183.718182 
L 85.186545 -183.64047 
L 83.743455 -183.433032 
L 82.300364 -183.115408 
L 80.857273 -182.704732 
L 79.414182 -182.215804 
L 77.971091 -181.6613 
L 76.528 -181.052061 
L 75.084909 -180.397411 
L 73.641818 -179.705468 
L 72.198727 -178.983423 
L 70.755636 -178.237777 
L 69.312545 -177.474507 
L 67.869455 -176.699186 
L 66.426364 -175.917017 
L 64.983273 -175.132814 
L 63.540182 -174.35092 
L 62.097091 -173.57512 
L 60.654 -172.808576 
L 59.210909 -172.053812 
L 57.767818 -171.312746 
L 56.324727 -170.586783 
L 54.881636 -169.876921 
L 53.438545 -169.183869 
L 51.995455 -168.508158 
z
" id="m925b3d291a" style="stroke:#ffffff;stroke-opacity:0.05;"/>
    </defs>
    <g clip-path="url(#pfa0fcce4f0)">
     <use style="fill:#001c7f;fill-opacity:0.05;stroke:#ffffff;stroke-opacity:0.05;" x="0" xlink:href="#m925b3d291a" y="216"/>
    </g>
   </g>
   <g id="line2d_10">
    <path clip-path="url(#pfa0fcce4f0)" d="M 51.995455 60.939709 
L 53.438545 60.942767 
L 54.881636 60.946615 
L 56.324727 60.951459 
L 57.767818 60.957555 
L 59.210909 60.965228 
L 60.654 60.974883 
L 62.097091 60.987032 
L 63.540182 61.002318 
L 64.983273 61.021546 
L 66.426364 61.045728 
L 67.869455 61.076135 
L 69.312545 61.114354 
L 70.755636 61.162375 
L 72.198727 61.222679 
L 73.641818 61.298362 
L 75.084909 61.393268 
L 76.528 61.512161 
L 77.971091 61.660916 
L 79.414182 61.846742 
L 80.857273 62.078421 
L 82.300364 62.366561 
L 83.743455 62.723834 
L 85.186545 63.165158 
L 86.629636 63.707773 
L 88.072727 64.371121 
L 89.515818 65.176415 
L 90.958909 66.145774 
L 92.402 67.300786 
L 93.845091 68.660405 
L 95.288182 70.238203 
L 96.731273 72.039169 
L 98.174364 74.056497 
L 99.617455 76.269071 
L 101.060545 78.640459 
L 102.503636 81.120136 
L 103.946727 83.647184 
L 105.389818 86.156072 
L 106.832909 88.583418 
L 108.276 90.874323 
L 109.719091 92.987007 
L 111.162182 94.895042 
L 112.605273 96.587208 
L 114.048364 98.065521 
L 115.491455 99.342277 
L 116.934545 100.436859 
L 118.377636 101.372879 
L 119.820727 102.175931 
L 121.263818 102.872058 
L 122.706909 103.486849 
L 124.15 104.045065 
L 125.593091 104.57064 
L 127.036182 105.086941 
L 128.479273 105.617162 
L 129.922364 106.184753 
L 131.365455 106.813802 
L 132.808545 107.529245 
L 134.251636 108.356804 
L 135.694727 109.322526 
L 137.137818 110.451753 
L 138.580909 111.767452 
L 140.024 113.287834 
L 141.467091 115.023397 
L 142.910182 116.973727 
L 144.353273 119.124673 
L 145.796364 121.446677 
L 147.239455 123.895075 
L 148.682545 126.412832 
L 150.125636 128.935596 
L 151.568727 131.398228 
L 153.011818 133.741483 
L 154.454909 135.917434 
L 155.898 137.892695 
L 157.341091 139.64915 
L 158.784182 141.182591 
L 160.227273 142.499986 
L 161.670364 143.616231 
L 163.113455 144.551008 
L 164.556545 145.326155 
L 165.999636 145.963707 
L 167.442727 146.484575 
L 168.885818 146.907784 
L 170.328909 147.25011 
L 171.772 147.526014 
L 173.215091 147.747735 
L 174.658182 147.925499 
L 176.101273 148.067751 
L 177.544364 148.181415 
L 178.987455 148.272127 
L 180.430545 148.344453 
L 181.873636 148.402074 
L 183.316727 148.447954 
L 184.759818 148.484465 
L 186.202909 148.513511 
L 187.646 148.53661 
L 189.089091 148.554976 
L 190.532182 148.569576 
L 191.975273 148.58118 
L 193.418364 148.590401 
L 194.861455 148.597729 
L 196.304545 148.603551 
" style="fill:none;opacity:0.9;stroke:#001c7f;stroke-linecap:round;stroke-width:1.5;"/>
   </g>
   <g id="line2d_11">
    <path clip-path="url(#pfa0fcce4f0)" d="M 51.995455 61.015214 
L 53.438545 61.037766 
L 54.881636 61.066124 
L 56.324727 61.101772 
L 57.767818 61.146568 
L 59.210909 61.202832 
L 60.654 61.273459 
L 62.097091 61.362047 
L 63.540182 61.473062 
L 64.983273 61.612017 
L 66.426364 61.785689 
L 67.869455 62.002351 
L 69.312545 62.272027 
L 70.755636 62.606733 
L 72.198727 63.020682 
L 73.641818 63.5304 
L 75.084909 64.154673 
L 76.528 64.914221 
L 77.971091 65.830983 
L 79.414182 66.926855 
L 80.857273 68.221799 
L 82.300364 69.731268 
L 83.743455 71.463111 
L 85.186545 73.414292 
L 86.629636 75.568079 
L 88.072727 77.892485 
L 89.515818 80.340756 
L 90.958909 82.854329 
L 92.402 85.368053 
L 93.845091 87.816782 
L 95.288182 90.14197 
L 96.731273 92.296894 
L 98.174364 94.249617 
L 99.617455 95.983472 
L 101.060545 97.495521 
L 102.503636 98.793737 
L 103.946727 99.893741 
L 105.389818 100.815706 
L 106.832909 101.581801 
L 108.276 102.214307 
L 109.719091 102.734378 
L 111.162182 103.161347 
L 112.605273 103.512427 
L 114.048364 103.802693 
L 115.491455 104.045243 
L 116.934545 104.251457 
L 118.377636 104.431308 
L 119.820727 104.593697 
L 121.263818 104.746786 
L 122.706909 104.898342 
L 124.15 105.056061 
L 125.593091 105.227907 
L 127.036182 105.422447 
L 128.479273 105.649183 
L 129.922364 105.918894 
L 131.365455 106.243955 
L 132.808545 106.638624 
L 134.251636 107.119251 
L 135.694727 107.704335 
L 137.137818 108.414363 
L 138.580909 109.271278 
L 140.024 110.297484 
L 141.467091 111.514221 
L 142.910182 112.939278 
L 144.353273 114.584081 
L 145.796364 116.450435 
L 147.239455 118.527443 
L 148.682545 120.789343 
L 150.125636 123.195115 
L 151.568727 125.690427 
L 153.011818 128.212033 
L 154.454909 130.693959 
L 155.898 133.074275 
L 157.341091 135.301011 
L 158.784182 137.336081 
L 160.227273 139.156738 
L 161.670364 140.754752 
L 163.113455 142.134003 
L 164.556545 143.307297 
L 165.999636 144.293134 
L 167.442727 145.112903 
L 168.885818 145.78871 
L 170.328909 146.341876 
L 171.772 146.79202 
L 173.215091 147.156589 
L 174.658182 147.450716 
L 176.101273 147.687275 
L 177.544364 147.877057 
L 178.987455 148.029007 
L 180.430545 148.150471 
L 181.873636 148.24744 
L 183.316727 148.324775 
L 184.759818 148.3864 
L 186.202909 148.435476 
L 187.646 148.474537 
L 189.089091 148.505613 
L 190.532182 148.53033 
L 191.975273 148.549983 
L 193.418364 148.565607 
L 194.861455 148.578025 
L 196.304545 148.587894 
" style="fill:none;opacity:0.7;stroke:#000000;stroke-linecap:round;stroke-width:1.5;"/>
   </g>
   <g id="line2d_12">
    <path clip-path="url(#pfa0fcce4f0)" d="M 51.995455 47.491842 
L 53.438545 46.816131 
L 54.881636 46.123079 
L 56.324727 45.413217 
L 57.767818 44.687254 
L 59.210909 43.946188 
L 60.654 43.191424 
L 62.097091 42.42488 
L 63.540182 41.64908 
L 64.983273 40.867186 
L 66.426364 40.082983 
L 67.869455 39.300814 
L 69.312545 38.525493 
L 70.755636 37.762223 
L 72.198727 37.016577 
L 73.641818 36.294532 
L 75.084909 35.602589 
L 76.528 34.947939 
L 77.971091 34.3387 
L 79.414182 33.784196 
L 80.857273 33.295268 
L 82.300364 32.884592 
L 83.743455 32.566968 
L 85.186545 32.35953 
L 86.629636 32.281818 
L 88.072727 32.355639 
L 89.515818 32.604608 
L 90.958909 33.053254 
L 92.402 33.725546 
L 93.845091 34.642758 
L 95.288182 35.820663 
L 96.731273 37.266284 
L 98.174364 38.974619 
L 99.617455 40.926074 
L 101.060545 43.085407 
L 102.503636 45.402918 
L 103.946727 47.818148 
L 105.389818 50.265682 
L 106.832909 52.681956 
L 108.276 55.011571 
L 109.719091 57.211746 
L 111.162182 59.254182 
L 112.605273 61.124362 
L 114.048364 62.819007 
L 115.491455 64.342705 
L 116.934545 65.704831 
L 118.377636 66.917513 
L 119.820727 67.994755 
L 121.263818 68.952253 
L 122.706909 69.807336 
L 124.15 70.578669 
L 125.593091 71.285705 
L 127.036182 71.948331 
L 128.479273 72.587164 
L 129.922364 73.224475 
L 131.365455 73.885341 
L 132.808545 74.598613 
L 134.251636 75.396923 
L 135.694727 76.315017 
L 137.137818 77.387235 
L 138.580909 78.645826 
L 140.024 80.120199 
L 141.467091 81.835125 
L 142.910182 83.80647 
L 144.353273 86.035582 
L 145.796364 88.505033 
L 147.239455 91.178105 
L 148.682545 94.003022 
L 150.125636 96.920694 
L 151.568727 99.872498 
L 153.011818 102.805015 
L 154.454909 105.672192 
L 155.898 108.437195 
L 157.341091 111.074198 
L 158.784182 113.568426 
L 160.227273 115.914376 
L 161.670364 118.114281 
L 163.113455 120.177401 
L 164.556545 122.118327 
L 165.999636 123.953373 
L 167.442727 125.696857 
L 168.885818 127.359158 
L 170.328909 128.946643 
L 171.772 130.462581 
L 173.215091 131.908364 
L 174.658182 133.28451 
L 176.101273 134.591161 
L 177.544364 135.828208 
L 178.987455 136.995394 
L 180.430545 138.092477 
L 181.873636 139.119428 
L 183.316727 140.076574 
L 184.759818 140.964687 
L 186.202909 141.785013 
L 187.646 142.539251 
L 189.089091 143.2295 
L 190.532182 143.858195 
L 191.975273 144.428056 
L 193.418364 144.942049 
L 194.861455 145.403369 
L 196.304545 145.815418 
" style="fill:none;opacity:0.45;stroke:#001c7f;stroke-dasharray:2.775,1.2;stroke-dashoffset:0;stroke-width:0.75;"/>
   </g>
   <g id="line2d_13">
    <path clip-path="url(#pfa0fcce4f0)" d="M 51.995455 74.387577 
L 53.438545 75.069402 
L 54.881636 75.770151 
L 56.324727 76.489701 
L 57.767818 77.227856 
L 59.210909 77.984267 
L 60.654 78.758342 
L 62.097091 79.549184 
L 63.540182 80.355555 
L 64.983273 81.175906 
L 66.426364 82.008474 
L 67.869455 82.851455 
L 69.312545 83.703215 
L 70.755636 84.562526 
L 72.198727 85.428782 
L 73.641818 86.302191 
L 75.084909 87.183946 
L 76.528 88.076382 
L 77.971091 88.983132 
L 79.414182 89.909288 
L 80.857273 90.861574 
L 82.300364 91.848531 
L 83.743455 92.8807 
L 85.186545 93.970785 
L 86.629636 95.133728 
L 88.072727 96.386603 
L 89.515818 97.748222 
L 90.958909 99.238295 
L 92.402 100.876026 
L 93.845091 102.678053 
L 95.288182 104.655743 
L 96.731273 106.812054 
L 98.174364 109.138374 
L 99.617455 111.612067 
L 101.060545 114.195512 
L 102.503636 116.837354 
L 103.946727 119.47622 
L 105.389818 122.046461 
L 106.832909 124.484879 
L 108.276 126.737076 
L 109.719091 128.762268 
L 111.162182 130.535903 
L 112.605273 132.050053 
L 114.048364 133.312035 
L 115.491455 134.341848 
L 116.934545 135.168888 
L 118.377636 135.828245 
L 119.820727 136.357107 
L 121.263818 136.791862 
L 122.706909 137.166362 
L 124.15 137.51146 
L 125.593091 137.855574 
L 127.036182 138.225551 
L 128.479273 138.647159 
L 129.922364 139.145032 
L 131.365455 139.742264 
L 132.808545 140.459876 
L 134.251636 141.316686 
L 135.694727 142.330035 
L 137.137818 143.516271 
L 138.580909 144.889078 
L 140.024 146.455469 
L 141.467091 148.211669 
L 142.910182 150.140984 
L 144.353273 152.213763 
L 145.796364 154.388321 
L 147.239455 156.612044 
L 148.682545 158.822642 
L 150.125636 160.950497 
L 151.568727 162.923959 
L 153.011818 164.67795 
L 154.454909 166.162676 
L 155.898 167.348194 
L 157.341091 168.224102 
L 158.784182 168.796756 
L 160.227273 169.085596 
L 161.670364 169.118182 
L 163.113455 168.924614 
L 164.556545 168.533984 
L 165.999636 167.974041 
L 167.442727 167.272294 
L 168.885818 166.456409 
L 170.328909 165.553577 
L 171.772 164.589446 
L 173.215091 163.587107 
L 174.658182 162.566487 
L 176.101273 161.544341 
L 177.544364 160.534622 
L 178.987455 159.548861 
L 180.430545 158.596429 
L 181.873636 157.684721 
L 183.316727 156.819333 
L 184.759818 156.004243 
L 186.202909 155.242009 
L 187.646 154.53397 
L 189.089091 153.880453 
L 190.532182 153.280956 
L 191.975273 152.734303 
L 193.418364 152.238754 
L 194.861455 151.792088 
L 196.304545 151.391684 
" style="fill:none;opacity:0.45;stroke:#001c7f;stroke-dasharray:2.775,1.2;stroke-dashoffset:0;stroke-width:0.75;"/>
   </g>
   <g id="patch_3">
    <path d="M 44.78 175.96 
L 44.78 25.44 
" style="fill:none;stroke:#262626;stroke-linecap:square;stroke-linejoin:miter;stroke-width:0.8;"/>
   </g>
   <g id="patch_4">
    <path d="M 44.78 175.96 
L 203.52 175.96 
" style="fill:none;stroke:#262626;stroke-linecap:square;stroke-linejoin:miter;stroke-width:0.8;"/>
   </g>
   <g id="text_12">
    <!-- Epik-micro SM15 -->
    <defs>
     <path d="M 7.90625 0 
L 7.90625 71.578125 
L 59.671875 71.578125 
L 59.671875 63.140625 
L 17.390625 63.140625 
L 17.390625 41.21875 
L 56.984375 41.21875 
L 56.984375 32.8125 
L 17.390625 32.8125 
L 17.390625 8.453125 
L 61.328125 8.453125 
L 61.328125 0 
z
" id="ArialMT-45"/>
     <path d="M 6.640625 61.46875 
L 6.640625 71.578125 
L 15.4375 71.578125 
L 15.4375 61.46875 
z
M 6.640625 0 
L 6.640625 51.859375 
L 15.4375 51.859375 
L 15.4375 0 
z
" id="ArialMT-69"/>
     <path d="M 6.640625 0 
L 6.640625 71.578125 
L 15.4375 71.578125 
L 15.4375 30.765625 
L 36.234375 51.859375 
L 47.609375 51.859375 
L 27.78125 32.625 
L 49.609375 0 
L 38.765625 0 
L 21.625 26.515625 
L 15.4375 20.5625 
L 15.4375 0 
z
" id="ArialMT-6b"/>
     <path d="M 3.171875 21.484375 
L 3.171875 30.328125 
L 30.171875 30.328125 
L 30.171875 21.484375 
z
" id="ArialMT-2d"/>
     <path d="M 6.59375 0 
L 6.59375 51.859375 
L 14.453125 51.859375 
L 14.453125 44.578125 
Q 16.890625 48.390625 20.9375 50.703125 
Q 25 53.03125 30.171875 53.03125 
Q 35.9375 53.03125 39.625 50.640625 
Q 43.3125 48.25 44.828125 43.953125 
Q 50.984375 53.03125 60.84375 53.03125 
Q 68.5625 53.03125 72.703125 48.75 
Q 76.859375 44.484375 76.859375 35.59375 
L 76.859375 0 
L 68.109375 0 
L 68.109375 32.671875 
Q 68.109375 37.9375 67.25 40.25 
Q 66.40625 42.578125 64.15625 43.984375 
Q 61.921875 45.40625 58.890625 45.40625 
Q 53.421875 45.40625 49.796875 41.765625 
Q 46.1875 38.140625 46.1875 30.125 
L 46.1875 0 
L 37.40625 0 
L 37.40625 33.6875 
Q 37.40625 39.546875 35.25 42.46875 
Q 33.109375 45.40625 28.21875 45.40625 
Q 24.515625 45.40625 21.359375 43.453125 
Q 18.21875 41.5 16.796875 37.734375 
Q 15.375 33.984375 15.375 26.90625 
L 15.375 0 
z
" id="ArialMT-6d"/>
     <path d="M 40.4375 19 
L 49.078125 17.875 
Q 47.65625 8.9375 41.8125 3.875 
Q 35.984375 -1.171875 27.484375 -1.171875 
Q 16.84375 -1.171875 10.375 5.78125 
Q 3.90625 12.75 3.90625 25.734375 
Q 3.90625 34.125 6.6875 40.421875 
Q 9.46875 46.734375 15.15625 49.875 
Q 20.84375 53.03125 27.546875 53.03125 
Q 35.984375 53.03125 41.359375 48.75 
Q 46.734375 44.484375 48.25 36.625 
L 39.703125 35.296875 
Q 38.484375 40.53125 35.375 43.15625 
Q 32.28125 45.796875 27.875 45.796875 
Q 21.234375 45.796875 17.078125 41.03125 
Q 12.9375 36.28125 12.9375 25.984375 
Q 12.9375 15.53125 16.9375 10.796875 
Q 20.953125 6.0625 27.390625 6.0625 
Q 32.5625 6.0625 36.03125 9.234375 
Q 39.5 12.40625 40.4375 19 
z
" id="ArialMT-63"/>
     <path d="M 6.5 0 
L 6.5 51.859375 
L 14.40625 51.859375 
L 14.40625 44 
Q 17.4375 49.515625 20 51.265625 
Q 22.5625 53.03125 25.640625 53.03125 
Q 30.078125 53.03125 34.671875 50.203125 
L 31.640625 42.046875 
Q 28.421875 43.953125 25.203125 43.953125 
Q 22.3125 43.953125 20.015625 42.21875 
Q 17.71875 40.484375 16.75 37.40625 
Q 15.28125 32.71875 15.28125 27.15625 
L 15.28125 0 
z
" id="ArialMT-72"/>
     <path d="M 3.328125 25.921875 
Q 3.328125 40.328125 11.328125 47.265625 
Q 18.015625 53.03125 27.640625 53.03125 
Q 38.328125 53.03125 45.109375 46.015625 
Q 51.90625 39.015625 51.90625 26.65625 
Q 51.90625 16.65625 48.90625 10.90625 
Q 45.90625 5.171875 40.15625 2 
Q 34.421875 -1.171875 27.640625 -1.171875 
Q 16.75 -1.171875 10.03125 5.8125 
Q 3.328125 12.796875 3.328125 25.921875 
z
M 12.359375 25.921875 
Q 12.359375 15.96875 16.703125 11.015625 
Q 21.046875 6.0625 27.640625 6.0625 
Q 34.1875 6.0625 38.53125 11.03125 
Q 42.875 16.015625 42.875 26.21875 
Q 42.875 35.84375 38.5 40.796875 
Q 34.125 45.75 27.640625 45.75 
Q 21.046875 45.75 16.703125 40.8125 
Q 12.359375 35.890625 12.359375 25.921875 
z
" id="ArialMT-6f"/>
     <path id="ArialMT-20"/>
     <path d="M 4.5 23 
L 13.421875 23.78125 
Q 14.0625 18.40625 16.375 14.96875 
Q 18.703125 11.53125 23.578125 9.40625 
Q 28.46875 7.28125 34.578125 7.28125 
Q 39.984375 7.28125 44.140625 8.890625 
Q 48.296875 10.5 50.3125 13.296875 
Q 52.34375 16.109375 52.34375 19.4375 
Q 52.34375 22.796875 50.390625 25.3125 
Q 48.4375 27.828125 43.953125 29.546875 
Q 41.0625 30.671875 31.203125 33.03125 
Q 21.34375 35.40625 17.390625 37.5 
Q 12.25 40.1875 9.734375 44.15625 
Q 7.234375 48.140625 7.234375 53.078125 
Q 7.234375 58.5 10.296875 63.203125 
Q 13.375 67.921875 19.28125 70.359375 
Q 25.203125 72.796875 32.421875 72.796875 
Q 40.375 72.796875 46.453125 70.234375 
Q 52.546875 67.671875 55.8125 62.6875 
Q 59.078125 57.71875 59.328125 51.421875 
L 50.25 50.734375 
Q 49.515625 57.515625 45.28125 60.984375 
Q 41.0625 64.453125 32.8125 64.453125 
Q 24.21875 64.453125 20.28125 61.296875 
Q 16.359375 58.15625 16.359375 53.71875 
Q 16.359375 49.859375 19.140625 47.359375 
Q 21.875 44.875 33.421875 42.265625 
Q 44.96875 39.65625 49.265625 37.703125 
Q 55.515625 34.8125 58.484375 30.390625 
Q 61.46875 25.984375 61.46875 20.21875 
Q 61.46875 14.5 58.203125 9.4375 
Q 54.9375 4.390625 48.796875 1.578125 
Q 42.671875 -1.21875 35.015625 -1.21875 
Q 25.296875 -1.21875 18.71875 1.609375 
Q 12.15625 4.4375 8.421875 10.125 
Q 4.6875 15.828125 4.5 23 
z
" id="ArialMT-53"/>
     <path d="M 7.421875 0 
L 7.421875 71.578125 
L 21.6875 71.578125 
L 38.625 20.90625 
Q 40.96875 13.8125 42.046875 10.296875 
Q 43.265625 14.203125 45.84375 21.78125 
L 62.984375 71.578125 
L 75.734375 71.578125 
L 75.734375 0 
L 66.609375 0 
L 66.609375 59.90625 
L 45.796875 0 
L 37.25 0 
L 16.546875 60.9375 
L 16.546875 0 
z
" id="ArialMT-4d"/>
     <path d="M 4.15625 18.75 
L 13.375 19.53125 
Q 14.40625 12.796875 18.140625 9.390625 
Q 21.875 6 27.15625 6 
Q 33.5 6 37.890625 10.78125 
Q 42.28125 15.578125 42.28125 23.484375 
Q 42.28125 31 38.0625 35.34375 
Q 33.84375 39.703125 27 39.703125 
Q 22.75 39.703125 19.328125 37.765625 
Q 15.921875 35.84375 13.96875 32.765625 
L 5.71875 33.84375 
L 12.640625 70.609375 
L 48.25 70.609375 
L 48.25 62.203125 
L 19.671875 62.203125 
L 15.828125 42.96875 
Q 22.265625 47.46875 29.34375 47.46875 
Q 38.71875 47.46875 45.15625 40.96875 
Q 51.609375 34.46875 51.609375 24.265625 
Q 51.609375 14.546875 45.953125 7.46875 
Q 39.0625 -1.21875 27.15625 -1.21875 
Q 17.390625 -1.21875 11.203125 4.25 
Q 5.03125 9.71875 4.15625 18.75 
z
" id="ArialMT-35"/>
    </defs>
    <g style="fill:#262626;" transform="translate(78.475 19.44)scale(0.12 -0.12)">
     <use xlink:href="#ArialMT-45"/>
     <use x="66.699219" xlink:href="#ArialMT-70"/>
     <use x="122.314453" xlink:href="#ArialMT-69"/>
     <use x="144.53125" xlink:href="#ArialMT-6b"/>
     <use x="194.53125" xlink:href="#ArialMT-2d"/>
     <use x="227.832031" xlink:href="#ArialMT-6d"/>
     <use x="311.132812" xlink:href="#ArialMT-69"/>
     <use x="333.349609" xlink:href="#ArialMT-63"/>
     <use x="383.349609" xlink:href="#ArialMT-72"/>
     <use x="416.650391" xlink:href="#ArialMT-6f"/>
     <use x="472.265625" xlink:href="#ArialMT-20"/>
     <use x="500.048828" xlink:href="#ArialMT-53"/>
     <use x="566.748047" xlink:href="#ArialMT-4d"/>
     <use x="650.048828" xlink:href="#ArialMT-31"/>
     <use x="705.664062" xlink:href="#ArialMT-35"/>
    </g>
   </g>
  </g>
 </g>
 <defs>
  <clipPath id="pfa0fcce4f0">
   <rect height="150.52" width="158.74" x="44.78" y="25.44"/>
  </clipPath>
 </defs>
</svg>
