<?xml version="1.0" encoding="utf-8" standalone="no"?>
<!DOCTYPE svg PUBLIC "-//W3C//DTD SVG 1.1//EN"
  "http://www.w3.org/Graphics/SVG/1.1/DTD/svg11.dtd">
<!-- Created with matplotlib (http://matplotlib.org/) -->
<svg height="144pt" version="1.1" viewBox="0 0 144 144" width="144pt" xmlns="http://www.w3.org/2000/svg" xmlns:xlink="http://www.w3.org/1999/xlink">
 <defs>
  <style type="text/css">
*{stroke-linecap:butt;stroke-linejoin:round;}
  </style>
 </defs>
 <g id="figure_1">
  <g id="patch_1">
   <path d="M 0 144 
L 144 144 
L 144 0 
L 0 0 
z
" style="fill:#ffffff;"/>
  </g>
  <g id="axes_1">
   <g id="patch_2">
    <path d="M 47.6 101.92 
L 130.44 101.92 
L 130.44 13.56 
L 47.6 13.56 
z
" style="fill:#ffffff;"/>
   </g>
   <g id="matplotlib.axis_1">
    <g id="xtick_1">
     <g id="line2d_1">
      <defs>
       <path d="M 0 0 
L 0 3.5 
" id="mae193caebf" style="stroke:#262626;stroke-width:0.8;"/>
      </defs>
      <g>
       <use style="fill:#262626;stroke:#262626;stroke-width:0.8;" x="51.365455" xlink:href="#mae193caebf" y="101.92"/>
      </g>
     </g>
     <g id="text_1">
      <!-- 2 -->
      <defs>
       <path d="M 50.34375 8.453125 
L 50.34375 0 
L 3.03125 0 
Q 2.9375 3.171875 4.046875 6.109375 
Q 5.859375 10.9375 9.828125 15.625 
Q 13.8125 20.3125 21.34375 26.46875 
Q 33.015625 36.03125 37.109375 41.625 
Q 41.21875 47.21875 41.21875 52.203125 
Q 41.21875 57.421875 37.46875 61 
Q 33.734375 64.59375 27.734375 64.59375 
Q 21.390625 64.59375 17.578125 60.78125 
Q 13.765625 56.984375 13.71875 50.25 
L 4.6875 51.171875 
Q 5.609375 61.28125 11.65625 66.578125 
Q 17.71875 71.875 27.9375 71.875 
Q 38.234375 71.875 44.234375 66.15625 
Q 50.25 60.453125 50.25 52 
Q 50.25 47.703125 48.484375 43.546875 
Q 46.734375 39.40625 42.65625 34.8125 
Q 38.578125 30.21875 29.109375 22.21875 
Q 21.1875 15.578125 18.9375 13.203125 
Q 16.703125 10.84375 15.234375 8.453125 
z
" id="ArialMT-32"/>
      </defs>
      <g style="fill:#262626;" transform="translate(48.306939 116.793594)scale(0.11 -0.11)">
       <use xlink:href="#ArialMT-32"/>
      </g>
     </g>
    </g>
    <g id="xtick_2">
     <g id="line2d_2">
      <g>
       <use style="fill:#262626;stroke:#262626;stroke-width:0.8;" x="66.427273" xlink:href="#mae193caebf" y="101.92"/>
      </g>
     </g>
     <g id="text_2">
      <!-- 4 -->
      <defs>
       <path d="M 32.328125 0 
L 32.328125 17.140625 
L 1.265625 17.140625 
L 1.265625 25.203125 
L 33.9375 71.578125 
L 41.109375 71.578125 
L 41.109375 25.203125 
L 50.78125 25.203125 
L 50.78125 17.140625 
L 41.109375 17.140625 
L 41.109375 0 
z
M 32.328125 25.203125 
L 32.328125 57.46875 
L 9.90625 25.203125 
z
" id="ArialMT-34"/>
      </defs>
      <g style="fill:#262626;" transform="translate(63.368757 116.793594)scale(0.11 -0.11)">
       <use xlink:href="#ArialMT-34"/>
      </g>
     </g>
    </g>
    <g id="xtick_3">
     <g id="line2d_3">
      <g>
       <use style="fill:#262626;stroke:#262626;stroke-width:0.8;" x="81.489091" xlink:href="#mae193caebf" y="101.92"/>
      </g>
     </g>
     <g id="text_3">
      <!-- 6 -->
      <defs>
       <path d="M 49.75 54.046875 
L 41.015625 53.375 
Q 39.84375 58.546875 37.703125 60.890625 
Q 34.125 64.65625 28.90625 64.65625 
Q 24.703125 64.65625 21.53125 62.3125 
Q 17.390625 59.28125 14.984375 53.46875 
Q 12.59375 47.65625 12.5 36.921875 
Q 15.671875 41.75 20.265625 44.09375 
Q 24.859375 46.4375 29.890625 46.4375 
Q 38.671875 46.4375 44.84375 39.96875 
Q 51.03125 33.5 51.03125 23.25 
Q 51.03125 16.5 48.125 10.71875 
Q 45.21875 4.9375 40.140625 1.859375 
Q 35.0625 -1.21875 28.609375 -1.21875 
Q 17.625 -1.21875 10.6875 6.859375 
Q 3.765625 14.9375 3.765625 33.5 
Q 3.765625 54.25 11.421875 63.671875 
Q 18.109375 71.875 29.4375 71.875 
Q 37.890625 71.875 43.28125 67.140625 
Q 48.6875 62.40625 49.75 54.046875 
z
M 13.875 23.1875 
Q 13.875 18.65625 15.796875 14.5 
Q 17.71875 10.359375 21.1875 8.171875 
Q 24.65625 6 28.46875 6 
Q 34.03125 6 38.03125 10.484375 
Q 42.046875 14.984375 42.046875 22.703125 
Q 42.046875 30.125 38.078125 34.390625 
Q 34.125 38.671875 28.125 38.671875 
Q 22.171875 38.671875 18.015625 34.390625 
Q 13.875 30.125 13.875 23.1875 
z
" id="ArialMT-36"/>
      </defs>
      <g style="fill:#262626;" transform="translate(78.430575 116.793594)scale(0.11 -0.11)">
       <use xlink:href="#ArialMT-36"/>
      </g>
     </g>
    </g>
    <g id="xtick_4">
     <g id="line2d_4">
      <g>
       <use style="fill:#262626;stroke:#262626;stroke-width:0.8;" x="96.550909" xlink:href="#mae193caebf" y="101.92"/>
      </g>
     </g>
     <g id="text_4">
      <!-- 8 -->
      <defs>
       <path d="M 17.671875 38.8125 
Q 12.203125 40.828125 9.5625 44.53125 
Q 6.9375 48.25 6.9375 53.421875 
Q 6.9375 61.234375 12.546875 66.546875 
Q 18.171875 71.875 27.484375 71.875 
Q 36.859375 71.875 42.578125 66.421875 
Q 48.296875 60.984375 48.296875 53.171875 
Q 48.296875 48.1875 45.671875 44.5 
Q 43.0625 40.828125 37.75 38.8125 
Q 44.34375 36.671875 47.78125 31.875 
Q 51.21875 27.09375 51.21875 20.453125 
Q 51.21875 11.28125 44.71875 5.03125 
Q 38.234375 -1.21875 27.640625 -1.21875 
Q 17.046875 -1.21875 10.546875 5.046875 
Q 4.046875 11.328125 4.046875 20.703125 
Q 4.046875 27.6875 7.59375 32.390625 
Q 11.140625 37.109375 17.671875 38.8125 
z
M 15.921875 53.71875 
Q 15.921875 48.640625 19.1875 45.40625 
Q 22.46875 42.1875 27.6875 42.1875 
Q 32.765625 42.1875 36.015625 45.375 
Q 39.265625 48.578125 39.265625 53.21875 
Q 39.265625 58.0625 35.90625 61.359375 
Q 32.5625 64.65625 27.59375 64.65625 
Q 22.5625 64.65625 19.234375 61.421875 
Q 15.921875 58.203125 15.921875 53.71875 
z
M 13.09375 20.65625 
Q 13.09375 16.890625 14.875 13.375 
Q 16.65625 9.859375 20.171875 7.921875 
Q 23.6875 6 27.734375 6 
Q 34.03125 6 38.125 10.046875 
Q 42.234375 14.109375 42.234375 20.359375 
Q 42.234375 26.703125 38.015625 30.859375 
Q 33.796875 35.015625 27.4375 35.015625 
Q 21.234375 35.015625 17.15625 30.90625 
Q 13.09375 26.8125 13.09375 20.65625 
z
" id="ArialMT-38"/>
      </defs>
      <g style="fill:#262626;" transform="translate(93.492393 116.793594)scale(0.11 -0.11)">
       <use xlink:href="#ArialMT-38"/>
      </g>
     </g>
    </g>
    <g id="xtick_5">
     <g id="line2d_5">
      <g>
       <use style="fill:#262626;stroke:#262626;stroke-width:0.8;" x="111.612727" xlink:href="#mae193caebf" y="101.92"/>
      </g>
     </g>
     <g id="text_5">
      <!-- 10 -->
      <defs>
       <path d="M 37.25 0 
L 28.46875 0 
L 28.46875 56 
Q 25.296875 52.984375 20.140625 49.953125 
Q 14.984375 46.921875 10.890625 45.40625 
L 10.890625 53.90625 
Q 18.265625 57.375 23.78125 62.296875 
Q 29.296875 67.234375 31.59375 71.875 
L 37.25 71.875 
z
" id="ArialMT-31"/>
       <path d="M 4.15625 35.296875 
Q 4.15625 48 6.765625 55.734375 
Q 9.375 63.484375 14.515625 67.671875 
Q 19.671875 71.875 27.484375 71.875 
Q 33.25 71.875 37.59375 69.546875 
Q 41.9375 67.234375 44.765625 62.859375 
Q 47.609375 58.5 49.21875 52.21875 
Q 50.828125 45.953125 50.828125 35.296875 
Q 50.828125 22.703125 48.234375 14.96875 
Q 45.65625 7.234375 40.5 3 
Q 35.359375 -1.21875 27.484375 -1.21875 
Q 17.140625 -1.21875 11.234375 6.203125 
Q 4.15625 15.140625 4.15625 35.296875 
z
M 13.1875 35.296875 
Q 13.1875 17.671875 17.3125 11.828125 
Q 21.4375 6 27.484375 6 
Q 33.546875 6 37.671875 11.859375 
Q 41.796875 17.71875 41.796875 35.296875 
Q 41.796875 52.984375 37.671875 58.78125 
Q 33.546875 64.59375 27.390625 64.59375 
Q 21.34375 64.59375 17.71875 59.46875 
Q 13.1875 52.9375 13.1875 35.296875 
z
" id="ArialMT-30"/>
      </defs>
      <g style="fill:#262626;" transform="translate(105.495696 116.793594)scale(0.11 -0.11)">
       <use xlink:href="#ArialMT-31"/>
       <use x="55.615234" xlink:href="#ArialMT-30"/>
      </g>
     </g>
    </g>
    <g id="xtick_6">
     <g id="line2d_6">
      <g>
       <use style="fill:#262626;stroke:#262626;stroke-width:0.8;" x="126.674545" xlink:href="#mae193caebf" y="101.92"/>
      </g>
     </g>
     <g id="text_6">
      <!-- 12 -->
      <g style="fill:#262626;" transform="translate(120.557514 116.793594)scale(0.11 -0.11)">
       <use xlink:href="#ArialMT-31"/>
       <use x="55.615234" xlink:href="#ArialMT-32"/>
      </g>
     </g>
    </g>
    <g id="text_7">
     <!-- pH -->
     <defs>
      <path d="M 6.59375 -19.875 
L 6.59375 51.859375 
L 14.59375 51.859375 
L 14.59375 45.125 
Q 17.4375 49.078125 21 51.046875 
Q 24.5625 53.03125 29.640625 53.03125 
Q 36.28125 53.03125 41.359375 49.609375 
Q 46.4375 46.1875 49.015625 39.953125 
Q 51.609375 33.734375 51.609375 26.3125 
Q 51.609375 18.359375 48.75 11.984375 
Q 45.90625 5.609375 40.453125 2.21875 
Q 35.015625 -1.171875 29 -1.171875 
Q 24.609375 -1.171875 21.109375 0.6875 
Q 17.625 2.546875 15.375 5.375 
L 15.375 -19.875 
z
M 14.546875 25.640625 
Q 14.546875 15.625 18.59375 10.84375 
Q 22.65625 6.0625 28.421875 6.0625 
Q 34.28125 6.0625 38.453125 11.015625 
Q 42.625 15.96875 42.625 26.375 
Q 42.625 36.28125 38.546875 41.203125 
Q 34.46875 46.140625 28.8125 46.140625 
Q 23.1875 46.140625 18.859375 40.890625 
Q 14.546875 35.640625 14.546875 25.640625 
z
" id="ArialMT-70"/>
      <path d="M 8.015625 0 
L 8.015625 71.578125 
L 17.484375 71.578125 
L 17.484375 42.1875 
L 54.6875 42.1875 
L 54.6875 71.578125 
L 64.15625 71.578125 
L 64.15625 0 
L 54.6875 0 
L 54.6875 33.734375 
L 17.484375 33.734375 
L 17.484375 0 
z
" id="ArialMT-48"/>
     </defs>
     <g style="fill:#262626;" transform="translate(81.989453 130.853437)scale(0.11 -0.11)">
      <use xlink:href="#ArialMT-70"/>
      <use x="55.615234" xlink:href="#ArialMT-48"/>
     </g>
    </g>
   </g>
   <g id="matplotlib.axis_2">
    <g id="ytick_1">
     <g id="line2d_7">
      <defs>
       <path d="M 0 0 
L -3.5 0 
" id="me49c9e483e" style="stroke:#262626;stroke-width:0.8;"/>
      </defs>
      <g>
       <use style="fill:#262626;stroke:#262626;stroke-width:0.8;" x="47.6" xlink:href="#me49c9e483e" y="95.209918"/>
      </g>
     </g>
     <g id="text_8">
      <!-- 0 -->
      <g style="fill:#262626;" transform="translate(34.482969 99.146715)scale(0.11 -0.11)">
       <use xlink:href="#ArialMT-30"/>
      </g>
     </g>
    </g>
    <g id="ytick_2">
     <g id="line2d_8">
      <g>
       <use style="fill:#262626;stroke:#262626;stroke-width:0.8;" x="47.6" xlink:href="#me49c9e483e" y="68.920777"/>
      </g>
     </g>
     <g id="text_9">
      <!-- 20 -->
      <g style="fill:#262626;" transform="translate(28.365938 72.857573)scale(0.11 -0.11)">
       <use xlink:href="#ArialMT-32"/>
       <use x="55.615234" xlink:href="#ArialMT-30"/>
      </g>
     </g>
    </g>
    <g id="ytick_3">
     <g id="line2d_9">
      <g>
       <use style="fill:#262626;stroke:#262626;stroke-width:0.8;" x="47.6" xlink:href="#me49c9e483e" y="42.631635"/>
      </g>
     </g>
     <g id="text_10">
      <!-- 40 -->
      <g style="fill:#262626;" transform="translate(28.365938 46.568432)scale(0.11 -0.11)">
       <use xlink:href="#ArialMT-34"/>
       <use x="55.615234" xlink:href="#ArialMT-30"/>
      </g>
     </g>
    </g>
    <g id="ytick_4">
     <g id="line2d_10">
      <g>
       <use style="fill:#262626;stroke:#262626;stroke-width:0.8;" x="47.6" xlink:href="#me49c9e483e" y="16.342493"/>
      </g>
     </g>
     <g id="text_11">
      <!-- 60 -->
      <g style="fill:#262626;" transform="translate(28.365938 20.27929)scale(0.11 -0.11)">
       <use xlink:href="#ArialMT-36"/>
       <use x="55.615234" xlink:href="#ArialMT-30"/>
      </g>
     </g>
    </g>
    <g id="text_12">
     <!-- Free energy ($k_B T$) -->
     <defs>
      <path d="M 8.203125 0 
L 8.203125 71.578125 
L 56.5 71.578125 
L 56.5 63.140625 
L 17.671875 63.140625 
L 17.671875 40.96875 
L 51.265625 40.96875 
L 51.265625 32.515625 
L 17.671875 32.515625 
L 17.671875 0 
z
" id="ArialMT-46"/>
      <path d="M 6.5 0 
L 6.5 51.859375 
L 14.40625 51.859375 
L 14.40625 44 
Q 17.4375 49.515625 20 51.265625 
Q 22.5625 53.03125 25.640625 53.03125 
Q 30.078125 53.03125 34.671875 50.203125 
L 31.640625 42.046875 
Q 28.421875 43.953125 25.203125 43.953125 
Q 22.3125 43.953125 20.015625 42.21875 
Q 17.71875 40.484375 16.75 37.40625 
Q 15.28125 32.71875 15.28125 27.15625 
L 15.28125 0 
z
" id="ArialMT-72"/>
      <path d="M 42.09375 16.703125 
L 51.171875 15.578125 
Q 49.03125 7.625 43.21875 3.21875 
Q 37.40625 -1.171875 28.375 -1.171875 
Q 17 -1.171875 10.328125 5.828125 
Q 3.65625 12.84375 3.65625 25.484375 
Q 3.65625 38.578125 10.390625 45.796875 
Q 17.140625 53.03125 27.875 53.03125 
Q 38.28125 53.03125 44.875 45.953125 
Q 51.46875 38.875 51.46875 26.03125 
Q 51.46875 25.25 51.421875 23.6875 
L 12.75 23.6875 
Q 13.234375 15.140625 17.578125 10.59375 
Q 21.921875 6.0625 28.421875 6.0625 
Q 33.25 6.0625 36.671875 8.59375 
Q 40.09375 11.140625 42.09375 16.703125 
z
M 13.234375 30.90625 
L 42.1875 30.90625 
Q 41.609375 37.453125 38.875 40.71875 
Q 34.671875 45.796875 27.984375 45.796875 
Q 21.921875 45.796875 17.796875 41.75 
Q 13.671875 37.703125 13.234375 30.90625 
z
" id="ArialMT-65"/>
      <path id="ArialMT-20"/>
      <path d="M 6.59375 0 
L 6.59375 51.859375 
L 14.5 51.859375 
L 14.5 44.484375 
Q 20.21875 53.03125 31 53.03125 
Q 35.6875 53.03125 39.625 51.34375 
Q 43.5625 49.65625 45.515625 46.921875 
Q 47.46875 44.1875 48.25 40.4375 
Q 48.734375 37.984375 48.734375 31.890625 
L 48.734375 0 
L 39.9375 0 
L 39.9375 31.546875 
Q 39.9375 36.921875 38.90625 39.578125 
Q 37.890625 42.234375 35.28125 43.8125 
Q 32.671875 45.40625 29.15625 45.40625 
Q 23.53125 45.40625 19.453125 41.84375 
Q 15.375 38.28125 15.375 28.328125 
L 15.375 0 
z
" id="ArialMT-6e"/>
      <path d="M 4.984375 -4.296875 
L 13.53125 -5.5625 
Q 14.0625 -9.515625 16.5 -11.328125 
Q 19.78125 -13.765625 25.4375 -13.765625 
Q 31.546875 -13.765625 34.859375 -11.328125 
Q 38.1875 -8.890625 39.359375 -4.5 
Q 40.046875 -1.8125 39.984375 6.78125 
Q 34.234375 0 25.640625 0 
Q 14.9375 0 9.078125 7.71875 
Q 3.21875 15.4375 3.21875 26.21875 
Q 3.21875 33.640625 5.90625 39.90625 
Q 8.59375 46.1875 13.6875 49.609375 
Q 18.796875 53.03125 25.6875 53.03125 
Q 34.859375 53.03125 40.828125 45.609375 
L 40.828125 51.859375 
L 48.921875 51.859375 
L 48.921875 7.03125 
Q 48.921875 -5.078125 46.453125 -10.125 
Q 44 -15.1875 38.640625 -18.109375 
Q 33.296875 -21.046875 25.484375 -21.046875 
Q 16.21875 -21.046875 10.5 -16.875 
Q 4.78125 -12.703125 4.984375 -4.296875 
z
M 12.25 26.859375 
Q 12.25 16.65625 16.296875 11.96875 
Q 20.359375 7.28125 26.46875 7.28125 
Q 32.515625 7.28125 36.609375 11.9375 
Q 40.71875 16.609375 40.71875 26.5625 
Q 40.71875 36.078125 36.5 40.90625 
Q 32.28125 45.75 26.3125 45.75 
Q 20.453125 45.75 16.34375 40.984375 
Q 12.25 36.234375 12.25 26.859375 
z
" id="ArialMT-67"/>
      <path d="M 6.203125 -19.96875 
L 5.21875 -11.71875 
Q 8.109375 -12.5 10.25 -12.5 
Q 13.1875 -12.5 14.9375 -11.515625 
Q 16.703125 -10.546875 17.828125 -8.796875 
Q 18.65625 -7.46875 20.515625 -2.25 
Q 20.75 -1.515625 21.296875 -0.09375 
L 1.609375 51.859375 
L 11.078125 51.859375 
L 21.875 21.828125 
Q 23.96875 16.109375 25.640625 9.8125 
Q 27.15625 15.875 29.25 21.625 
L 40.328125 51.859375 
L 49.125 51.859375 
L 29.390625 -0.875 
Q 26.21875 -9.421875 24.46875 -12.640625 
Q 22.125 -17 19.09375 -19.015625 
Q 16.0625 -21.046875 11.859375 -21.046875 
Q 9.328125 -21.046875 6.203125 -19.96875 
z
" id="ArialMT-79"/>
      <path d="M 23.390625 -21.046875 
Q 16.109375 -11.859375 11.078125 0.4375 
Q 6.0625 12.75 6.0625 25.921875 
Q 6.0625 37.546875 9.8125 48.1875 
Q 14.203125 60.546875 23.390625 72.796875 
L 29.6875 72.796875 
Q 23.78125 62.640625 21.875 58.296875 
Q 18.890625 51.5625 17.1875 44.234375 
Q 15.09375 35.109375 15.09375 25.875 
Q 15.09375 2.390625 29.6875 -21.046875 
z
" id="ArialMT-28"/>
      <path d="M 18.3125 75.984375 
L 27.296875 75.984375 
L 18.703125 31.6875 
L 49.515625 54.6875 
L 61.1875 54.6875 
L 26.8125 28.515625 
L 51.90625 0 
L 41.015625 0 
L 17.671875 26.703125 
L 12.5 0 
L 3.515625 0 
z
" id="DejaVuSans-Oblique-6b"/>
      <path d="M 16.890625 72.90625 
L 42.09375 72.90625 
Q 52.34375 72.90625 57.421875 69.09375 
Q 62.5 65.28125 62.5 57.625 
Q 62.5 50.59375 58.125 45.484375 
Q 53.765625 40.375 46.6875 39.3125 
Q 52.734375 37.9375 55.765625 34.078125 
Q 58.796875 30.21875 58.796875 23.78125 
Q 58.796875 12.796875 50.65625 6.390625 
Q 42.53125 0 28.421875 0 
L 2.6875 0 
z
M 19.28125 34.8125 
L 14.109375 8.109375 
L 29.984375 8.109375 
Q 38.921875 8.109375 43.75 12.203125 
Q 48.578125 16.3125 48.578125 23.78125 
Q 48.578125 29.546875 45.375 32.171875 
Q 42.1875 34.8125 35.109375 34.8125 
z
M 25.09375 64.796875 
L 20.796875 42.828125 
L 35.5 42.828125 
Q 43.359375 42.828125 47.78125 46.234375 
Q 52.203125 49.65625 52.203125 55.71875 
Q 52.203125 60.453125 49.21875 62.625 
Q 46.234375 64.796875 39.703125 64.796875 
z
" id="DejaVuSans-Oblique-42"/>
      <path d="M 5.90625 72.90625 
L 67.578125 72.90625 
L 66.015625 64.59375 
L 39.984375 64.59375 
L 27.484375 0 
L 17.578125 0 
L 30.078125 64.59375 
L 4.296875 64.59375 
z
" id="DejaVuSans-Oblique-54"/>
      <path d="M 12.359375 -21.046875 
L 6.0625 -21.046875 
Q 20.65625 2.390625 20.65625 25.875 
Q 20.65625 35.0625 18.5625 44.09375 
Q 16.890625 51.421875 13.921875 58.15625 
Q 12.015625 62.546875 6.0625 72.796875 
L 12.359375 72.796875 
Q 21.53125 60.546875 25.921875 48.1875 
Q 29.6875 37.546875 29.6875 25.921875 
Q 29.6875 12.75 24.625 0.4375 
Q 19.578125 -11.859375 12.359375 -21.046875 
z
" id="ArialMT-29"/>
     </defs>
     <g style="fill:#262626;" transform="translate(21.945938 101.96)rotate(-90)scale(0.11 -0.11)">
      <use transform="translate(0 0.015625)" xlink:href="#ArialMT-46"/>
      <use transform="translate(61.083984 0.015625)" xlink:href="#ArialMT-72"/>
      <use transform="translate(94.384766 0.015625)" xlink:href="#ArialMT-65"/>
      <use transform="translate(150 0.015625)" xlink:href="#ArialMT-65"/>
      <use transform="translate(205.615234 0.015625)" xlink:href="#ArialMT-20"/>
      <use transform="translate(233.398438 0.015625)" xlink:href="#ArialMT-65"/>
      <use transform="translate(289.013672 0.015625)" xlink:href="#ArialMT-6e"/>
      <use transform="translate(344.628906 0.015625)" xlink:href="#ArialMT-65"/>
      <use transform="translate(400.244141 0.015625)" xlink:href="#ArialMT-72"/>
      <use transform="translate(433.544922 0.015625)" xlink:href="#ArialMT-67"/>
      <use transform="translate(489.160156 0.015625)" xlink:href="#ArialMT-79"/>
      <use transform="translate(539.160156 0.015625)" xlink:href="#ArialMT-20"/>
      <use transform="translate(566.943359 0.015625)" xlink:href="#ArialMT-28"/>
      <use transform="translate(600.244141 0.015625)" xlink:href="#DejaVuSans-Oblique-6b"/>
      <use transform="translate(658.154297 -16.390625)scale(0.7)" xlink:href="#DejaVuSans-Oblique-42"/>
      <use transform="translate(708.911133 0.015625)" xlink:href="#DejaVuSans-Oblique-54"/>
      <use transform="translate(769.995117 0.015625)" xlink:href="#ArialMT-29"/>
     </g>
    </g>
   </g>
   <g id="patch_3">
    <path d="M 47.6 101.92 
L 47.6 13.56 
" style="fill:none;stroke:#262626;stroke-linecap:square;stroke-linejoin:miter;stroke-width:0.8;"/>
   </g>
   <g id="patch_4">
    <path d="M 47.6 101.92 
L 130.44 101.92 
" style="fill:none;stroke:#262626;stroke-linecap:square;stroke-linejoin:miter;stroke-width:0.8;"/>
   </g>
   <g id="line2d_11">
    <path clip-path="url(#pc640677a37)" d="M 51.365455 78.10935 
L 52.118545 77.50402 
L 52.871636 76.89869 
L 53.624727 76.29336 
L 54.377818 75.68803 
L 55.130909 75.082701 
L 55.884 74.477371 
L 56.637091 73.872041 
L 57.390182 73.266711 
L 58.143273 72.661381 
L 58.896364 72.056051 
L 59.649455 71.450721 
L 60.402545 70.845392 
L 61.155636 70.240062 
L 61.908727 69.634732 
L 62.661818 69.029402 
L 63.414909 68.424072 
L 64.168 67.818742 
L 64.921091 67.213412 
L 65.674182 66.608082 
L 66.427273 66.002753 
L 67.180364 65.397423 
L 67.933455 64.792093 
L 68.686545 64.186763 
L 69.439636 63.581433 
L 70.192727 62.976103 
L 70.945818 62.370773 
L 71.698909 61.765444 
L 72.452 61.160114 
L 73.205091 60.554784 
L 73.958182 59.949454 
L 74.711273 59.344124 
L 75.464364 58.738794 
L 76.217455 58.133464 
L 76.970545 57.528135 
L 77.723636 56.922805 
L 78.476727 56.317475 
L 79.229818 55.712145 
L 79.982909 55.106815 
L 80.736 54.501485 
L 81.489091 53.896155 
L 82.242182 53.290826 
L 82.995273 52.685496 
L 83.748364 52.080166 
L 84.501455 51.474836 
L 85.254545 50.869506 
L 86.007636 50.264176 
L 86.760727 49.658846 
L 87.513818 49.053516 
L 88.266909 48.448187 
L 89.02 47.842857 
L 89.773091 47.237527 
L 90.526182 46.632197 
L 91.279273 46.026867 
L 92.032364 45.421537 
L 92.785455 44.816207 
L 93.538545 44.210878 
L 94.291636 43.605548 
L 95.044727 43.000218 
L 95.797818 42.394888 
L 96.550909 41.789558 
L 97.304 41.184228 
L 98.057091 40.578898 
L 98.810182 39.973569 
L 99.563273 39.368239 
L 100.316364 38.762909 
L 101.069455 38.157579 
L 101.822545 37.552249 
L 102.575636 36.946919 
L 103.328727 36.341589 
L 104.081818 35.73626 
L 104.834909 35.13093 
L 105.588 34.5256 
L 106.341091 33.92027 
L 107.094182 33.31494 
L 107.847273 32.70961 
L 108.600364 32.10428 
L 109.353455 31.49895 
L 110.106545 30.893621 
L 110.859636 30.288291 
L 111.612727 29.682961 
L 112.365818 29.077631 
L 113.118909 28.472301 
L 113.872 27.866971 
L 114.625091 27.261641 
L 115.378182 26.656312 
L 116.131273 26.050982 
L 116.884364 25.445652 
L 117.637455 24.840322 
L 118.390545 24.234992 
L 119.143636 23.629662 
L 119.896727 23.024332 
L 120.649818 22.419003 
L 121.402909 21.813673 
L 122.156 21.208343 
L 122.909091 20.603013 
L 123.662182 19.997683 
L 124.415273 19.392353 
L 125.168364 18.787023 
L 125.921455 18.181693 
L 126.674545 17.576364 
" style="fill:none;stroke:#4393c3;stroke-linecap:round;stroke-width:1.5;"/>
   </g>
   <g id="line2d_12">
    <path clip-path="url(#pc640677a37)" d="M 51.365455 61.28118 
L 52.118545 61.583845 
L 52.871636 61.88651 
L 53.624727 62.189174 
L 54.377818 62.491839 
L 55.130909 62.794504 
L 55.884 63.097169 
L 56.637091 63.399834 
L 57.390182 63.702499 
L 58.143273 64.005164 
L 58.896364 64.307829 
L 59.649455 64.610494 
L 60.402545 64.913159 
L 61.155636 65.215824 
L 61.908727 65.518489 
L 62.661818 65.821154 
L 63.414909 66.123819 
L 64.168 66.426484 
L 64.921091 66.729148 
L 65.674182 67.031813 
L 66.427273 67.334478 
L 67.180364 67.637143 
L 67.933455 67.939808 
L 68.686545 68.242473 
L 69.439636 68.545138 
L 70.192727 68.847803 
L 70.945818 69.150468 
L 71.698909 69.453133 
L 72.452 69.755798 
L 73.205091 70.058463 
L 73.958182 70.361128 
L 74.711273 70.663793 
L 75.464364 70.966457 
L 76.217455 71.269122 
L 76.970545 71.571787 
L 77.723636 71.874452 
L 78.476727 72.177117 
L 79.229818 72.479782 
L 79.982909 72.782447 
L 80.736 73.085112 
L 81.489091 73.387777 
L 82.242182 73.690442 
L 82.995273 73.993107 
L 83.748364 74.295772 
L 84.501455 74.598437 
L 85.254545 74.901102 
L 86.007636 75.203767 
L 86.760727 75.506431 
L 87.513818 75.809096 
L 88.266909 76.111761 
L 89.02 76.414426 
L 89.773091 76.717091 
L 90.526182 77.019756 
L 91.279273 77.322421 
L 92.032364 77.625086 
L 92.785455 77.927751 
L 93.538545 78.230416 
L 94.291636 78.533081 
L 95.044727 78.835746 
L 95.797818 79.138411 
L 96.550909 79.441076 
L 97.304 79.74374 
L 98.057091 80.046405 
L 98.810182 80.34907 
L 99.563273 80.651735 
L 100.316364 80.9544 
L 101.069455 81.257065 
L 101.822545 81.55973 
L 102.575636 81.862395 
L 103.328727 82.16506 
L 104.081818 82.467725 
L 104.834909 82.77039 
L 105.588 83.073055 
L 106.341091 83.37572 
L 107.094182 83.678385 
L 107.847273 83.98105 
L 108.600364 84.283714 
L 109.353455 84.586379 
L 110.106545 84.889044 
L 110.859636 85.191709 
L 111.612727 85.494374 
L 112.365818 85.797039 
L 113.118909 86.099704 
L 113.872 86.402369 
L 114.625091 86.705034 
L 115.378182 87.007699 
L 116.131273 87.310364 
L 116.884364 87.613029 
L 117.637455 87.915694 
L 118.390545 88.218359 
L 119.143636 88.521023 
L 119.896727 88.823688 
L 120.649818 89.126353 
L 121.402909 89.429018 
L 122.156 89.731683 
L 122.909091 90.034348 
L 123.662182 90.337013 
L 124.415273 90.639678 
L 125.168364 90.942343 
L 125.921455 91.245008 
L 126.674545 91.547673 
" style="fill:none;stroke:#f4a582;stroke-linecap:round;stroke-width:1.5;"/>
   </g>
   <g id="line2d_13">
    <path clip-path="url(#pc640677a37)" d="M 51.365455 97.903636 
L 52.118545 97.600971 
L 52.871636 97.298307 
L 53.624727 96.995642 
L 54.377818 96.692977 
L 55.130909 96.390312 
L 55.884 96.087647 
L 56.637091 95.784982 
L 57.390182 95.482317 
L 58.143273 95.179652 
L 58.896364 94.876987 
L 59.649455 94.574322 
L 60.402545 94.271657 
L 61.155636 93.968992 
L 61.908727 93.666327 
L 62.661818 93.363662 
L 63.414909 93.060997 
L 64.168 92.758333 
L 64.921091 92.455668 
L 65.674182 92.153003 
L 66.427273 91.850338 
L 67.180364 91.547673 
L 67.933455 91.245008 
L 68.686545 90.942343 
L 69.439636 90.639678 
L 70.192727 90.337013 
L 70.945818 90.034348 
L 71.698909 89.731683 
L 72.452 89.429018 
L 73.205091 89.126353 
L 73.958182 88.823688 
L 74.711273 88.521023 
L 75.464364 88.218359 
L 76.217455 87.915694 
L 76.970545 87.613029 
L 77.723636 87.310364 
L 78.476727 87.007699 
L 79.229818 86.705034 
L 79.982909 86.402369 
L 80.736 86.099704 
L 81.489091 85.797039 
L 82.242182 85.494374 
L 82.995273 85.191709 
L 83.748364 84.889044 
L 84.501455 84.586379 
L 85.254545 84.283714 
L 86.007636 83.98105 
L 86.760727 83.678385 
L 87.513818 83.37572 
L 88.266909 83.073055 
L 89.02 82.77039 
L 89.773091 82.467725 
L 90.526182 82.16506 
L 91.279273 81.862395 
L 92.032364 81.55973 
L 92.785455 81.257065 
L 93.538545 80.9544 
L 94.291636 80.651735 
L 95.044727 80.34907 
L 95.797818 80.046405 
L 96.550909 79.74374 
L 97.304 79.441076 
L 98.057091 79.138411 
L 98.810182 78.835746 
L 99.563273 78.533081 
L 100.316364 78.230416 
L 101.069455 77.927751 
L 101.822545 77.625086 
L 102.575636 77.322421 
L 103.328727 77.019756 
L 104.081818 76.717091 
L 104.834909 76.414426 
L 105.588 76.111761 
L 106.341091 75.809096 
L 107.094182 75.506431 
L 107.847273 75.203767 
L 108.600364 74.901102 
L 109.353455 74.598437 
L 110.106545 74.295772 
L 110.859636 73.993107 
L 111.612727 73.690442 
L 112.365818 73.387777 
L 113.118909 73.085112 
L 113.872 72.782447 
L 114.625091 72.479782 
L 115.378182 72.177117 
L 116.131273 71.874452 
L 116.884364 71.571787 
L 117.637455 71.269122 
L 118.390545 70.966457 
L 119.143636 70.663793 
L 119.896727 70.361128 
L 120.649818 70.058463 
L 121.402909 69.755798 
L 122.156 69.453133 
L 122.909091 69.150468 
L 123.662182 68.847803 
L 124.415273 68.545138 
L 125.168364 68.242473 
L 125.921455 67.939808 
L 126.674545 67.637143 
" style="fill:none;stroke:#92c5de;stroke-linecap:round;stroke-width:1.5;"/>
   </g>
   <g id="line2d_14">
    <path clip-path="url(#pc640677a37)" d="M 51.365455 89.489551 
L 52.118545 89.186886 
L 52.871636 88.884221 
L 53.624727 88.581556 
L 54.377818 88.278892 
L 55.130909 87.976227 
L 55.884 87.673562 
L 56.637091 87.370897 
L 57.390182 87.068232 
L 58.143273 86.765567 
L 58.896364 86.462902 
L 59.649455 86.160237 
L 60.402545 85.857572 
L 61.155636 85.554907 
L 61.908727 85.252242 
L 62.661818 84.949577 
L 63.414909 84.646912 
L 64.168 84.344247 
L 64.921091 84.041583 
L 65.674182 83.738918 
L 66.427273 83.436253 
L 67.180364 83.133588 
L 67.933455 82.830923 
L 68.686545 82.528258 
L 69.439636 82.225593 
L 70.192727 81.922928 
L 70.945818 81.620263 
L 71.698909 81.317598 
L 72.452 81.014933 
L 73.205091 80.712268 
L 73.958182 80.409603 
L 74.711273 80.106938 
L 75.464364 79.804273 
L 76.217455 79.501609 
L 76.970545 79.198944 
L 77.723636 78.896279 
L 78.476727 78.593614 
L 79.229818 78.290949 
L 79.982909 77.988284 
L 80.736 77.685619 
L 81.489091 77.382954 
L 82.242182 77.080289 
L 82.995273 76.777624 
L 83.748364 76.474959 
L 84.501455 76.172294 
L 85.254545 75.869629 
L 86.007636 75.566964 
L 86.760727 75.2643 
L 87.513818 74.961635 
L 88.266909 74.65897 
L 89.02 74.356305 
L 89.773091 74.05364 
L 90.526182 73.750975 
L 91.279273 73.44831 
L 92.032364 73.145645 
L 92.785455 72.84298 
L 93.538545 72.540315 
L 94.291636 72.23765 
L 95.044727 71.934985 
L 95.797818 71.63232 
L 96.550909 71.329655 
L 97.304 71.02699 
L 98.057091 70.724326 
L 98.810182 70.421661 
L 99.563273 70.118996 
L 100.316364 69.816331 
L 101.069455 69.513666 
L 101.822545 69.211001 
L 102.575636 68.908336 
L 103.328727 68.605671 
L 104.081818 68.303006 
L 104.834909 68.000341 
L 105.588 67.697676 
L 106.341091 67.395011 
L 107.094182 67.092346 
L 107.847273 66.789681 
L 108.600364 66.487017 
L 109.353455 66.184352 
L 110.106545 65.881687 
L 110.859636 65.579022 
L 111.612727 65.276357 
L 112.365818 64.973692 
L 113.118909 64.671027 
L 113.872 64.368362 
L 114.625091 64.065697 
L 115.378182 63.763032 
L 116.131273 63.460367 
L 116.884364 63.157702 
L 117.637455 62.855037 
L 118.390545 62.552372 
L 119.143636 62.249707 
L 119.896727 61.947043 
L 120.649818 61.644378 
L 121.402909 61.341713 
L 122.156 61.039048 
L 122.909091 60.736383 
L 123.662182 60.433718 
L 124.415273 60.131053 
L 125.168364 59.828388 
L 125.921455 59.525723 
L 126.674545 59.223058 
" style="fill:none;stroke:#92c5de;stroke-linecap:round;stroke-width:1.5;"/>
   </g>
   <g id="line2d_15">
    <path clip-path="url(#pc640677a37)" d="M 51.365455 95.209918 
L 52.118545 95.209918 
L 52.871636 95.209918 
L 53.624727 95.209918 
L 54.377818 95.209918 
L 55.130909 95.209918 
L 55.884 95.209918 
L 56.637091 95.209918 
L 57.390182 95.209918 
L 58.143273 95.209918 
L 58.896364 95.209918 
L 59.649455 95.209918 
L 60.402545 95.209918 
L 61.155636 95.209918 
L 61.908727 95.209918 
L 62.661818 95.209918 
L 63.414909 95.209918 
L 64.168 95.209918 
L 64.921091 95.209918 
L 65.674182 95.209918 
L 66.427273 95.209918 
L 67.180364 95.209918 
L 67.933455 95.209918 
L 68.686545 95.209918 
L 69.439636 95.209918 
L 70.192727 95.209918 
L 70.945818 95.209918 
L 71.698909 95.209918 
L 72.452 95.209918 
L 73.205091 95.209918 
L 73.958182 95.209918 
L 74.711273 95.209918 
L 75.464364 95.209918 
L 76.217455 95.209918 
L 76.970545 95.209918 
L 77.723636 95.209918 
L 78.476727 95.209918 
L 79.229818 95.209918 
L 79.982909 95.209918 
L 80.736 95.209918 
L 81.489091 95.209918 
L 82.242182 95.209918 
L 82.995273 95.209918 
L 83.748364 95.209918 
L 84.501455 95.209918 
L 85.254545 95.209918 
L 86.007636 95.209918 
L 86.760727 95.209918 
L 87.513818 95.209918 
L 88.266909 95.209918 
L 89.02 95.209918 
L 89.773091 95.209918 
L 90.526182 95.209918 
L 91.279273 95.209918 
L 92.032364 95.209918 
L 92.785455 95.209918 
L 93.538545 95.209918 
L 94.291636 95.209918 
L 95.044727 95.209918 
L 95.797818 95.209918 
L 96.550909 95.209918 
L 97.304 95.209918 
L 98.057091 95.209918 
L 98.810182 95.209918 
L 99.563273 95.209918 
L 100.316364 95.209918 
L 101.069455 95.209918 
L 101.822545 95.209918 
L 102.575636 95.209918 
L 103.328727 95.209918 
L 104.081818 95.209918 
L 104.834909 95.209918 
L 105.588 95.209918 
L 106.341091 95.209918 
L 107.094182 95.209918 
L 107.847273 95.209918 
L 108.600364 95.209918 
L 109.353455 95.209918 
L 110.106545 95.209918 
L 110.859636 95.209918 
L 111.612727 95.209918 
L 112.365818 95.209918 
L 113.118909 95.209918 
L 113.872 95.209918 
L 114.625091 95.209918 
L 115.378182 95.209918 
L 116.131273 95.209918 
L 116.884364 95.209918 
L 117.637455 95.209918 
L 118.390545 95.209918 
L 119.143636 95.209918 
L 119.896727 95.209918 
L 120.649818 95.209918 
L 121.402909 95.209918 
L 122.156 95.209918 
L 122.909091 95.209918 
L 123.662182 95.209918 
L 124.415273 95.209918 
L 125.168364 95.209918 
L 125.921455 95.209918 
L 126.674545 95.209918 
" style="fill:none;stroke:#333333;stroke-linecap:round;stroke-width:1.5;"/>
   </g>
   <g id="line2d_16">
    <path clip-path="url(#pc640677a37)" d="M 51.365455 73.085112 
L 52.118545 73.085112 
L 52.871636 73.085112 
L 53.624727 73.085112 
L 54.377818 73.085112 
L 55.130909 73.085112 
L 55.884 73.085112 
L 56.637091 73.085112 
L 57.390182 73.085112 
L 58.143273 73.085112 
L 58.896364 73.085112 
L 59.649455 73.085112 
L 60.402545 73.085112 
L 61.155636 73.085112 
L 61.908727 73.085112 
L 62.661818 73.085112 
L 63.414909 73.085112 
L 64.168 73.085112 
L 64.921091 73.085112 
L 65.674182 73.085112 
L 66.427273 73.085112 
L 67.180364 73.085112 
L 67.933455 73.085112 
L 68.686545 73.085112 
L 69.439636 73.085112 
L 70.192727 73.085112 
L 70.945818 73.085112 
L 71.698909 73.085112 
L 72.452 73.085112 
L 73.205091 73.085112 
L 73.958182 73.085112 
L 74.711273 73.085112 
L 75.464364 73.085112 
L 76.217455 73.085112 
L 76.970545 73.085112 
L 77.723636 73.085112 
L 78.476727 73.085112 
L 79.229818 73.085112 
L 79.982909 73.085112 
L 80.736 73.085112 
L 81.489091 73.085112 
L 82.242182 73.085112 
L 82.995273 73.085112 
L 83.748364 73.085112 
L 84.501455 73.085112 
L 85.254545 73.085112 
L 86.007636 73.085112 
L 86.760727 73.085112 
L 87.513818 73.085112 
L 88.266909 73.085112 
L 89.02 73.085112 
L 89.773091 73.085112 
L 90.526182 73.085112 
L 91.279273 73.085112 
L 92.032364 73.085112 
L 92.785455 73.085112 
L 93.538545 73.085112 
L 94.291636 73.085112 
L 95.044727 73.085112 
L 95.797818 73.085112 
L 96.550909 73.085112 
L 97.304 73.085112 
L 98.057091 73.085112 
L 98.810182 73.085112 
L 99.563273 73.085112 
L 100.316364 73.085112 
L 101.069455 73.085112 
L 101.822545 73.085112 
L 102.575636 73.085112 
L 103.328727 73.085112 
L 104.081818 73.085112 
L 104.834909 73.085112 
L 105.588 73.085112 
L 106.341091 73.085112 
L 107.094182 73.085112 
L 107.847273 73.085112 
L 108.600364 73.085112 
L 109.353455 73.085112 
L 110.106545 73.085112 
L 110.859636 73.085112 
L 111.612727 73.085112 
L 112.365818 73.085112 
L 113.118909 73.085112 
L 113.872 73.085112 
L 114.625091 73.085112 
L 115.378182 73.085112 
L 116.131273 73.085112 
L 116.884364 73.085112 
L 117.637455 73.085112 
L 118.390545 73.085112 
L 119.143636 73.085112 
L 119.896727 73.085112 
L 120.649818 73.085112 
L 121.402909 73.085112 
L 122.156 73.085112 
L 122.909091 73.085112 
L 123.662182 73.085112 
L 124.415273 73.085112 
L 125.168364 73.085112 
L 125.921455 73.085112 
L 126.674545 73.085112 
" style="fill:none;stroke:#333333;stroke-linecap:round;stroke-width:1.5;"/>
   </g>
   <g id="line2d_17">
    <path clip-path="url(#pc640677a37)" d="M 51.365455 70.633526 
L 52.118545 70.633526 
L 52.871636 70.633526 
L 53.624727 70.633526 
L 54.377818 70.633526 
L 55.130909 70.633526 
L 55.884 70.633526 
L 56.637091 70.633526 
L 57.390182 70.633526 
L 58.143273 70.633526 
L 58.896364 70.633526 
L 59.649455 70.633526 
L 60.402545 70.633526 
L 61.155636 70.633526 
L 61.908727 70.633526 
L 62.661818 70.633526 
L 63.414909 70.633526 
L 64.168 70.633526 
L 64.921091 70.633526 
L 65.674182 70.633526 
L 66.427273 70.633526 
L 67.180364 70.633526 
L 67.933455 70.633526 
L 68.686545 70.633526 
L 69.439636 70.633526 
L 70.192727 70.633526 
L 70.945818 70.633526 
L 71.698909 70.633526 
L 72.452 70.633526 
L 73.205091 70.633526 
L 73.958182 70.633526 
L 74.711273 70.633526 
L 75.464364 70.633526 
L 76.217455 70.633526 
L 76.970545 70.633526 
L 77.723636 70.633526 
L 78.476727 70.633526 
L 79.229818 70.633526 
L 79.982909 70.633526 
L 80.736 70.633526 
L 81.489091 70.633526 
L 82.242182 70.633526 
L 82.995273 70.633526 
L 83.748364 70.633526 
L 84.501455 70.633526 
L 85.254545 70.633526 
L 86.007636 70.633526 
L 86.760727 70.633526 
L 87.513818 70.633526 
L 88.266909 70.633526 
L 89.02 70.633526 
L 89.773091 70.633526 
L 90.526182 70.633526 
L 91.279273 70.633526 
L 92.032364 70.633526 
L 92.785455 70.633526 
L 93.538545 70.633526 
L 94.291636 70.633526 
L 95.044727 70.633526 
L 95.797818 70.633526 
L 96.550909 70.633526 
L 97.304 70.633526 
L 98.057091 70.633526 
L 98.810182 70.633526 
L 99.563273 70.633526 
L 100.316364 70.633526 
L 101.069455 70.633526 
L 101.822545 70.633526 
L 102.575636 70.633526 
L 103.328727 70.633526 
L 104.081818 70.633526 
L 104.834909 70.633526 
L 105.588 70.633526 
L 106.341091 70.633526 
L 107.094182 70.633526 
L 107.847273 70.633526 
L 108.600364 70.633526 
L 109.353455 70.633526 
L 110.106545 70.633526 
L 110.859636 70.633526 
L 111.612727 70.633526 
L 112.365818 70.633526 
L 113.118909 70.633526 
L 113.872 70.633526 
L 114.625091 70.633526 
L 115.378182 70.633526 
L 116.131273 70.633526 
L 116.884364 70.633526 
L 117.637455 70.633526 
L 118.390545 70.633526 
L 119.143636 70.633526 
L 119.896727 70.633526 
L 120.649818 70.633526 
L 121.402909 70.633526 
L 122.156 70.633526 
L 122.909091 70.633526 
L 123.662182 70.633526 
L 124.415273 70.633526 
L 125.168364 70.633526 
L 125.921455 70.633526 
L 126.674545 70.633526 
" style="fill:none;stroke:#333333;stroke-linecap:round;stroke-width:1.5;"/>
   </g>
  </g>
 </g>
 <defs>
  <clipPath id="pc640677a37">
   <rect height="88.36" width="82.84" x="47.6" y="13.56"/>
  </clipPath>
 </defs>
</svg>
