<?xml version="1.0" encoding="utf-8" standalone="no"?>
<!DOCTYPE svg PUBLIC "-//W3C//DTD SVG 1.1//EN"
  "http://www.w3.org/Graphics/SVG/1.1/DTD/svg11.dtd">
<!-- Created with matplotlib (http://matplotlib.org/) -->
<svg height="144pt" version="1.1" viewBox="0 0 144 144" width="144pt" xmlns="http://www.w3.org/2000/svg" xmlns:xlink="http://www.w3.org/1999/xlink">
 <defs>
  <style type="text/css">
*{stroke-linecap:butt;stroke-linejoin:round;}
  </style>
 </defs>
 <g id="figure_1">
  <g id="patch_1">
   <path d="M 0 144 
L 144 144 
L 144 0 
L 0 0 
z
" style="fill:#ffffff;"/>
  </g>
  <g id="axes_1">
   <g id="patch_2">
    <path d="M 32.525 101.92 
L 130.44 101.92 
L 130.44 13.56 
L 32.525 13.56 
z
" style="fill:#ffffff;"/>
   </g>
   <g id="matplotlib.axis_1">
    <g id="xtick_1">
     <g id="line2d_1">
      <defs>
       <path d="M 0 0 
L 0 3.5 
" id="m32d0ccc6ad" style="stroke:#262626;stroke-width:0.8;"/>
      </defs>
      <g>
       <use style="fill:#262626;stroke:#262626;stroke-width:0.8;" x="36.975682" xlink:href="#m32d0ccc6ad" y="101.92"/>
      </g>
     </g>
     <g id="text_1">
      <!-- 2 -->
      <defs>
       <path d="M 50.34375 8.453125 
L 50.34375 0 
L 3.03125 0 
Q 2.9375 3.171875 4.046875 6.109375 
Q 5.859375 10.9375 9.828125 15.625 
Q 13.8125 20.3125 21.34375 26.46875 
Q 33.015625 36.03125 37.109375 41.625 
Q 41.21875 47.21875 41.21875 52.203125 
Q 41.21875 57.421875 37.46875 61 
Q 33.734375 64.59375 27.734375 64.59375 
Q 21.390625 64.59375 17.578125 60.78125 
Q 13.765625 56.984375 13.71875 50.25 
L 4.6875 51.171875 
Q 5.609375 61.28125 11.65625 66.578125 
Q 17.71875 71.875 27.9375 71.875 
Q 38.234375 71.875 44.234375 66.15625 
Q 50.25 60.453125 50.25 52 
Q 50.25 47.703125 48.484375 43.546875 
Q 46.734375 39.40625 42.65625 34.8125 
Q 38.578125 30.21875 29.109375 22.21875 
Q 21.1875 15.578125 18.9375 13.203125 
Q 16.703125 10.84375 15.234375 8.453125 
z
" id="ArialMT-32"/>
      </defs>
      <g style="fill:#262626;" transform="translate(33.917166 116.793594)scale(0.11 -0.11)">
       <use xlink:href="#ArialMT-32"/>
      </g>
     </g>
    </g>
    <g id="xtick_2">
     <g id="line2d_2">
      <g>
       <use style="fill:#262626;stroke:#262626;stroke-width:0.8;" x="54.778409" xlink:href="#m32d0ccc6ad" y="101.92"/>
      </g>
     </g>
     <g id="text_2">
      <!-- 4 -->
      <defs>
       <path d="M 32.328125 0 
L 32.328125 17.140625 
L 1.265625 17.140625 
L 1.265625 25.203125 
L 33.9375 71.578125 
L 41.109375 71.578125 
L 41.109375 25.203125 
L 50.78125 25.203125 
L 50.78125 17.140625 
L 41.109375 17.140625 
L 41.109375 0 
z
M 32.328125 25.203125 
L 32.328125 57.46875 
L 9.90625 25.203125 
z
" id="ArialMT-34"/>
      </defs>
      <g style="fill:#262626;" transform="translate(51.719893 116.793594)scale(0.11 -0.11)">
       <use xlink:href="#ArialMT-34"/>
      </g>
     </g>
    </g>
    <g id="xtick_3">
     <g id="line2d_3">
      <g>
       <use style="fill:#262626;stroke:#262626;stroke-width:0.8;" x="72.581136" xlink:href="#m32d0ccc6ad" y="101.92"/>
      </g>
     </g>
     <g id="text_3">
      <!-- 6 -->
      <defs>
       <path d="M 49.75 54.046875 
L 41.015625 53.375 
Q 39.84375 58.546875 37.703125 60.890625 
Q 34.125 64.65625 28.90625 64.65625 
Q 24.703125 64.65625 21.53125 62.3125 
Q 17.390625 59.28125 14.984375 53.46875 
Q 12.59375 47.65625 12.5 36.921875 
Q 15.671875 41.75 20.265625 44.09375 
Q 24.859375 46.4375 29.890625 46.4375 
Q 38.671875 46.4375 44.84375 39.96875 
Q 51.03125 33.5 51.03125 23.25 
Q 51.03125 16.5 48.125 10.71875 
Q 45.21875 4.9375 40.140625 1.859375 
Q 35.0625 -1.21875 28.609375 -1.21875 
Q 17.625 -1.21875 10.6875 6.859375 
Q 3.765625 14.9375 3.765625 33.5 
Q 3.765625 54.25 11.421875 63.671875 
Q 18.109375 71.875 29.4375 71.875 
Q 37.890625 71.875 43.28125 67.140625 
Q 48.6875 62.40625 49.75 54.046875 
z
M 13.875 23.1875 
Q 13.875 18.65625 15.796875 14.5 
Q 17.71875 10.359375 21.1875 8.171875 
Q 24.65625 6 28.46875 6 
Q 34.03125 6 38.03125 10.484375 
Q 42.046875 14.984375 42.046875 22.703125 
Q 42.046875 30.125 38.078125 34.390625 
Q 34.125 38.671875 28.125 38.671875 
Q 22.171875 38.671875 18.015625 34.390625 
Q 13.875 30.125 13.875 23.1875 
z
" id="ArialMT-36"/>
      </defs>
      <g style="fill:#262626;" transform="translate(69.522621 116.793594)scale(0.11 -0.11)">
       <use xlink:href="#ArialMT-36"/>
      </g>
     </g>
    </g>
    <g id="xtick_4">
     <g id="line2d_4">
      <g>
       <use style="fill:#262626;stroke:#262626;stroke-width:0.8;" x="90.383864" xlink:href="#m32d0ccc6ad" y="101.92"/>
      </g>
     </g>
     <g id="text_4">
      <!-- 8 -->
      <defs>
       <path d="M 17.671875 38.8125 
Q 12.203125 40.828125 9.5625 44.53125 
Q 6.9375 48.25 6.9375 53.421875 
Q 6.9375 61.234375 12.546875 66.546875 
Q 18.171875 71.875 27.484375 71.875 
Q 36.859375 71.875 42.578125 66.421875 
Q 48.296875 60.984375 48.296875 53.171875 
Q 48.296875 48.1875 45.671875 44.5 
Q 43.0625 40.828125 37.75 38.8125 
Q 44.34375 36.671875 47.78125 31.875 
Q 51.21875 27.09375 51.21875 20.453125 
Q 51.21875 11.28125 44.71875 5.03125 
Q 38.234375 -1.21875 27.640625 -1.21875 
Q 17.046875 -1.21875 10.546875 5.046875 
Q 4.046875 11.328125 4.046875 20.703125 
Q 4.046875 27.6875 7.59375 32.390625 
Q 11.140625 37.109375 17.671875 38.8125 
z
M 15.921875 53.71875 
Q 15.921875 48.640625 19.1875 45.40625 
Q 22.46875 42.1875 27.6875 42.1875 
Q 32.765625 42.1875 36.015625 45.375 
Q 39.265625 48.578125 39.265625 53.21875 
Q 39.265625 58.0625 35.90625 61.359375 
Q 32.5625 64.65625 27.59375 64.65625 
Q 22.5625 64.65625 19.234375 61.421875 
Q 15.921875 58.203125 15.921875 53.71875 
z
M 13.09375 20.65625 
Q 13.09375 16.890625 14.875 13.375 
Q 16.65625 9.859375 20.171875 7.921875 
Q 23.6875 6 27.734375 6 
Q 34.03125 6 38.125 10.046875 
Q 42.234375 14.109375 42.234375 20.359375 
Q 42.234375 26.703125 38.015625 30.859375 
Q 33.796875 35.015625 27.4375 35.015625 
Q 21.234375 35.015625 17.15625 30.90625 
Q 13.09375 26.8125 13.09375 20.65625 
z
" id="ArialMT-38"/>
      </defs>
      <g style="fill:#262626;" transform="translate(87.325348 116.793594)scale(0.11 -0.11)">
       <use xlink:href="#ArialMT-38"/>
      </g>
     </g>
    </g>
    <g id="xtick_5">
     <g id="line2d_5">
      <g>
       <use style="fill:#262626;stroke:#262626;stroke-width:0.8;" x="108.186591" xlink:href="#m32d0ccc6ad" y="101.92"/>
      </g>
     </g>
     <g id="text_5">
      <!-- 10 -->
      <defs>
       <path d="M 37.25 0 
L 28.46875 0 
L 28.46875 56 
Q 25.296875 52.984375 20.140625 49.953125 
Q 14.984375 46.921875 10.890625 45.40625 
L 10.890625 53.90625 
Q 18.265625 57.375 23.78125 62.296875 
Q 29.296875 67.234375 31.59375 71.875 
L 37.25 71.875 
z
" id="ArialMT-31"/>
       <path d="M 4.15625 35.296875 
Q 4.15625 48 6.765625 55.734375 
Q 9.375 63.484375 14.515625 67.671875 
Q 19.671875 71.875 27.484375 71.875 
Q 33.25 71.875 37.59375 69.546875 
Q 41.9375 67.234375 44.765625 62.859375 
Q 47.609375 58.5 49.21875 52.21875 
Q 50.828125 45.953125 50.828125 35.296875 
Q 50.828125 22.703125 48.234375 14.96875 
Q 45.65625 7.234375 40.5 3 
Q 35.359375 -1.21875 27.484375 -1.21875 
Q 17.140625 -1.21875 11.234375 6.203125 
Q 4.15625 15.140625 4.15625 35.296875 
z
M 13.1875 35.296875 
Q 13.1875 17.671875 17.3125 11.828125 
Q 21.4375 6 27.484375 6 
Q 33.546875 6 37.671875 11.859375 
Q 41.796875 17.71875 41.796875 35.296875 
Q 41.796875 52.984375 37.671875 58.78125 
Q 33.546875 64.59375 27.390625 64.59375 
Q 21.34375 64.59375 17.71875 59.46875 
Q 13.1875 52.9375 13.1875 35.296875 
z
" id="ArialMT-30"/>
      </defs>
      <g style="fill:#262626;" transform="translate(102.06956 116.793594)scale(0.11 -0.11)">
       <use xlink:href="#ArialMT-31"/>
       <use x="55.615234" xlink:href="#ArialMT-30"/>
      </g>
     </g>
    </g>
    <g id="xtick_6">
     <g id="line2d_6">
      <g>
       <use style="fill:#262626;stroke:#262626;stroke-width:0.8;" x="125.989318" xlink:href="#m32d0ccc6ad" y="101.92"/>
      </g>
     </g>
     <g id="text_6">
      <!-- 12 -->
      <g style="fill:#262626;" transform="translate(119.872287 116.793594)scale(0.11 -0.11)">
       <use xlink:href="#ArialMT-31"/>
       <use x="55.615234" xlink:href="#ArialMT-32"/>
      </g>
     </g>
    </g>
    <g id="text_7">
     <!-- pH -->
     <defs>
      <path d="M 6.59375 -19.875 
L 6.59375 51.859375 
L 14.59375 51.859375 
L 14.59375 45.125 
Q 17.4375 49.078125 21 51.046875 
Q 24.5625 53.03125 29.640625 53.03125 
Q 36.28125 53.03125 41.359375 49.609375 
Q 46.4375 46.1875 49.015625 39.953125 
Q 51.609375 33.734375 51.609375 26.3125 
Q 51.609375 18.359375 48.75 11.984375 
Q 45.90625 5.609375 40.453125 2.21875 
Q 35.015625 -1.171875 29 -1.171875 
Q 24.609375 -1.171875 21.109375 0.6875 
Q 17.625 2.546875 15.375 5.375 
L 15.375 -19.875 
z
M 14.546875 25.640625 
Q 14.546875 15.625 18.59375 10.84375 
Q 22.65625 6.0625 28.421875 6.0625 
Q 34.28125 6.0625 38.453125 11.015625 
Q 42.625 15.96875 42.625 26.375 
Q 42.625 36.28125 38.546875 41.203125 
Q 34.46875 46.140625 28.8125 46.140625 
Q 23.1875 46.140625 18.859375 40.890625 
Q 14.546875 35.640625 14.546875 25.640625 
z
" id="ArialMT-70"/>
      <path d="M 8.015625 0 
L 8.015625 71.578125 
L 17.484375 71.578125 
L 17.484375 42.1875 
L 54.6875 42.1875 
L 54.6875 71.578125 
L 64.15625 71.578125 
L 64.15625 0 
L 54.6875 0 
L 54.6875 33.734375 
L 17.484375 33.734375 
L 17.484375 0 
z
" id="ArialMT-48"/>
     </defs>
     <g style="fill:#262626;" transform="translate(74.451953 130.853437)scale(0.11 -0.11)">
      <use xlink:href="#ArialMT-70"/>
      <use x="55.615234" xlink:href="#ArialMT-48"/>
     </g>
    </g>
   </g>
   <g id="matplotlib.axis_2">
    <g id="ytick_1">
     <g id="line2d_7">
      <defs>
       <path d="M 0 0 
L -3.5 0 
" id="ma50321e70c" style="stroke:#262626;stroke-width:0.8;"/>
      </defs>
      <g>
       <use style="fill:#262626;stroke:#262626;stroke-width:0.8;" x="32.525" xlink:href="#ma50321e70c" y="97.903636"/>
      </g>
     </g>
    </g>
    <g id="ytick_2">
     <g id="line2d_8">
      <g>
       <use style="fill:#262626;stroke:#262626;stroke-width:0.8;" x="32.525" xlink:href="#ma50321e70c" y="17.576364"/>
      </g>
     </g>
    </g>
    <g id="text_8">
     <!-- Population -->
     <defs>
      <path d="M 7.71875 0 
L 7.71875 71.578125 
L 34.71875 71.578125 
Q 41.84375 71.578125 45.609375 70.90625 
Q 50.875 70.015625 54.4375 67.546875 
Q 58.015625 65.09375 60.1875 60.640625 
Q 62.359375 56.203125 62.359375 50.875 
Q 62.359375 41.75 56.546875 35.421875 
Q 50.734375 29.109375 35.546875 29.109375 
L 17.1875 29.109375 
L 17.1875 0 
z
M 17.1875 37.546875 
L 35.6875 37.546875 
Q 44.875 37.546875 48.734375 40.96875 
Q 52.59375 44.390625 52.59375 50.59375 
Q 52.59375 55.078125 50.3125 58.265625 
Q 48.046875 61.46875 44.34375 62.5 
Q 41.9375 63.140625 35.5 63.140625 
L 17.1875 63.140625 
z
" id="ArialMT-50"/>
      <path d="M 3.328125 25.921875 
Q 3.328125 40.328125 11.328125 47.265625 
Q 18.015625 53.03125 27.640625 53.03125 
Q 38.328125 53.03125 45.109375 46.015625 
Q 51.90625 39.015625 51.90625 26.65625 
Q 51.90625 16.65625 48.90625 10.90625 
Q 45.90625 5.171875 40.15625 2 
Q 34.421875 -1.171875 27.640625 -1.171875 
Q 16.75 -1.171875 10.03125 5.8125 
Q 3.328125 12.796875 3.328125 25.921875 
z
M 12.359375 25.921875 
Q 12.359375 15.96875 16.703125 11.015625 
Q 21.046875 6.0625 27.640625 6.0625 
Q 34.1875 6.0625 38.53125 11.03125 
Q 42.875 16.015625 42.875 26.21875 
Q 42.875 35.84375 38.5 40.796875 
Q 34.125 45.75 27.640625 45.75 
Q 21.046875 45.75 16.703125 40.8125 
Q 12.359375 35.890625 12.359375 25.921875 
z
" id="ArialMT-6f"/>
      <path d="M 40.578125 0 
L 40.578125 7.625 
Q 34.515625 -1.171875 24.125 -1.171875 
Q 19.53125 -1.171875 15.546875 0.578125 
Q 11.578125 2.34375 9.640625 5 
Q 7.71875 7.671875 6.9375 11.53125 
Q 6.390625 14.109375 6.390625 19.734375 
L 6.390625 51.859375 
L 15.1875 51.859375 
L 15.1875 23.09375 
Q 15.1875 16.21875 15.71875 13.8125 
Q 16.546875 10.359375 19.234375 8.375 
Q 21.921875 6.390625 25.875 6.390625 
Q 29.828125 6.390625 33.296875 8.421875 
Q 36.765625 10.453125 38.203125 13.9375 
Q 39.65625 17.4375 39.65625 24.078125 
L 39.65625 51.859375 
L 48.4375 51.859375 
L 48.4375 0 
z
" id="ArialMT-75"/>
      <path d="M 6.390625 0 
L 6.390625 71.578125 
L 15.1875 71.578125 
L 15.1875 0 
z
" id="ArialMT-6c"/>
      <path d="M 40.4375 6.390625 
Q 35.546875 2.25 31.03125 0.53125 
Q 26.515625 -1.171875 21.34375 -1.171875 
Q 12.796875 -1.171875 8.203125 3 
Q 3.609375 7.171875 3.609375 13.671875 
Q 3.609375 17.484375 5.34375 20.625 
Q 7.078125 23.78125 9.890625 25.6875 
Q 12.703125 27.59375 16.21875 28.5625 
Q 18.796875 29.25 24.03125 29.890625 
Q 34.671875 31.15625 39.703125 32.90625 
Q 39.75 34.71875 39.75 35.203125 
Q 39.75 40.578125 37.25 42.78125 
Q 33.890625 45.75 27.25 45.75 
Q 21.046875 45.75 18.09375 43.578125 
Q 15.140625 41.40625 13.71875 35.890625 
L 5.125 37.0625 
Q 6.296875 42.578125 8.984375 45.96875 
Q 11.671875 49.359375 16.75 51.1875 
Q 21.828125 53.03125 28.515625 53.03125 
Q 35.15625 53.03125 39.296875 51.46875 
Q 43.453125 49.90625 45.40625 47.53125 
Q 47.359375 45.171875 48.140625 41.546875 
Q 48.578125 39.3125 48.578125 33.453125 
L 48.578125 21.734375 
Q 48.578125 9.46875 49.140625 6.21875 
Q 49.703125 2.984375 51.375 0 
L 42.1875 0 
Q 40.828125 2.734375 40.4375 6.390625 
z
M 39.703125 26.03125 
Q 34.90625 24.078125 25.34375 22.703125 
Q 19.921875 21.921875 17.671875 20.9375 
Q 15.4375 19.96875 14.203125 18.09375 
Q 12.984375 16.21875 12.984375 13.921875 
Q 12.984375 10.40625 15.640625 8.0625 
Q 18.3125 5.71875 23.4375 5.71875 
Q 28.515625 5.71875 32.46875 7.9375 
Q 36.421875 10.15625 38.28125 14.015625 
Q 39.703125 17 39.703125 22.796875 
z
" id="ArialMT-61"/>
      <path d="M 25.78125 7.859375 
L 27.046875 0.09375 
Q 23.34375 -0.6875 20.40625 -0.6875 
Q 15.625 -0.6875 12.984375 0.828125 
Q 10.359375 2.34375 9.28125 4.8125 
Q 8.203125 7.28125 8.203125 15.1875 
L 8.203125 45.015625 
L 1.765625 45.015625 
L 1.765625 51.859375 
L 8.203125 51.859375 
L 8.203125 64.703125 
L 16.9375 69.96875 
L 16.9375 51.859375 
L 25.78125 51.859375 
L 25.78125 45.015625 
L 16.9375 45.015625 
L 16.9375 14.703125 
Q 16.9375 10.9375 17.40625 9.859375 
Q 17.875 8.796875 18.921875 8.15625 
Q 19.96875 7.515625 21.921875 7.515625 
Q 23.390625 7.515625 25.78125 7.859375 
z
" id="ArialMT-74"/>
      <path d="M 6.640625 61.46875 
L 6.640625 71.578125 
L 15.4375 71.578125 
L 15.4375 61.46875 
z
M 6.640625 0 
L 6.640625 51.859375 
L 15.4375 51.859375 
L 15.4375 0 
z
" id="ArialMT-69"/>
      <path d="M 6.59375 0 
L 6.59375 51.859375 
L 14.5 51.859375 
L 14.5 44.484375 
Q 20.21875 53.03125 31 53.03125 
Q 35.6875 53.03125 39.625 51.34375 
Q 43.5625 49.65625 45.515625 46.921875 
Q 47.46875 44.1875 48.25 40.4375 
Q 48.734375 37.984375 48.734375 31.890625 
L 48.734375 0 
L 39.9375 0 
L 39.9375 31.546875 
Q 39.9375 36.921875 38.90625 39.578125 
Q 37.890625 42.234375 35.28125 43.8125 
Q 32.671875 45.40625 29.15625 45.40625 
Q 23.53125 45.40625 19.453125 41.84375 
Q 15.375 38.28125 15.375 28.328125 
L 15.375 0 
z
" id="ArialMT-6e"/>
     </defs>
     <g style="fill:#262626;" transform="translate(19.33875 83.731797)rotate(-90)scale(0.11 -0.11)">
      <use xlink:href="#ArialMT-50"/>
      <use x="66.699219" xlink:href="#ArialMT-6f"/>
      <use x="122.314453" xlink:href="#ArialMT-70"/>
      <use x="177.929688" xlink:href="#ArialMT-75"/>
      <use x="233.544922" xlink:href="#ArialMT-6c"/>
      <use x="255.761719" xlink:href="#ArialMT-61"/>
      <use x="311.376953" xlink:href="#ArialMT-74"/>
      <use x="339.160156" xlink:href="#ArialMT-69"/>
      <use x="361.376953" xlink:href="#ArialMT-6f"/>
      <use x="416.992188" xlink:href="#ArialMT-6e"/>
     </g>
    </g>
   </g>
   <g id="patch_3">
    <path d="M 32.525 101.92 
L 32.525 13.56 
" style="fill:none;stroke:#262626;stroke-linecap:square;stroke-linejoin:miter;stroke-width:0.8;"/>
   </g>
   <g id="patch_4">
    <path d="M 32.525 101.92 
L 130.44 101.92 
" style="fill:none;stroke:#262626;stroke-linecap:square;stroke-linejoin:miter;stroke-width:0.8;"/>
   </g>
   <g id="line2d_9">
    <path clip-path="url(#p1c6bd2d77d)" d="M 36.975682 97.426861 
L 37.865818 97.528388 
L 38.755955 97.609126 
L 39.646091 97.673264 
L 40.536227 97.724151 
L 41.426364 97.76446 
L 42.3165 97.796324 
L 43.206636 97.82144 
L 44.096773 97.841162 
L 44.986909 97.856572 
L 45.877045 97.868535 
L 46.767182 97.877746 
L 47.657318 97.884769 
L 48.547455 97.890061 
L 49.437591 97.893996 
L 50.327727 97.896881 
L 51.217864 97.898963 
L 52.108 97.900443 
L 52.998136 97.90148 
L 53.888273 97.902195 
L 54.778409 97.902682 
L 55.668545 97.90301 
L 56.558682 97.903228 
L 57.448818 97.903372 
L 58.338955 97.903466 
L 59.229091 97.903527 
L 60.119227 97.903566 
L 61.009364 97.903592 
L 61.8995 97.903608 
L 62.789636 97.903618 
L 63.679773 97.903625 
L 64.569909 97.903629 
L 65.460045 97.903632 
L 66.350182 97.903633 
L 67.240318 97.903635 
L 68.130455 97.903635 
L 69.020591 97.903636 
L 69.910727 97.903636 
L 70.800864 97.903636 
L 71.691 97.903636 
L 72.581136 97.903636 
L 73.471273 97.903636 
L 74.361409 97.903636 
L 75.251545 97.903636 
L 76.141682 97.903636 
L 77.031818 97.903636 
L 77.921955 97.903636 
L 78.812091 97.903636 
L 79.702227 97.903636 
L 80.592364 97.903636 
L 81.4825 97.903636 
L 82.372636 97.903636 
L 83.262773 97.903636 
L 84.152909 97.903636 
L 85.043045 97.903636 
L 85.933182 97.903636 
L 86.823318 97.903636 
L 87.713455 97.903636 
L 88.603591 97.903636 
L 89.493727 97.903636 
L 90.383864 97.903636 
L 91.274 97.903636 
L 92.164136 97.903636 
L 93.054273 97.903636 
L 93.944409 97.903636 
L 94.834545 97.903636 
L 95.724682 97.903636 
L 96.614818 97.903636 
L 97.504955 97.903636 
L 98.395091 97.903636 
L 99.285227 97.903636 
L 100.175364 97.903636 
L 101.0655 97.903636 
L 101.955636 97.903636 
L 102.845773 97.903636 
L 103.735909 97.903636 
L 104.626045 97.903636 
L 105.516182 97.903636 
L 106.406318 97.903636 
L 107.296455 97.903636 
L 108.186591 97.903636 
L 109.076727 97.903636 
L 109.966864 97.903636 
L 110.857 97.903636 
L 111.747136 97.903636 
L 112.637273 97.903636 
L 113.527409 97.903636 
L 114.417545 97.903636 
L 115.307682 97.903636 
L 116.197818 97.903636 
L 117.087955 97.903636 
L 117.978091 97.903636 
L 118.868227 97.903636 
L 119.758364 97.903636 
L 120.6485 97.903636 
L 121.538636 97.903636 
L 122.428773 97.903636 
L 123.318909 97.903636 
L 124.209045 97.903636 
L 125.099182 97.903636 
L 125.989318 97.903636 
" style="fill:none;stroke:#4393c3;stroke-linecap:round;stroke-width:1.5;"/>
   </g>
   <g id="line2d_10">
    <path clip-path="url(#p1c6bd2d77d)" d="M 36.975682 97.903612 
L 37.865818 97.903598 
L 38.755955 97.903576 
L 39.646091 97.903543 
L 40.536227 97.90349 
L 41.426364 97.903411 
L 42.3165 97.903289 
L 43.206636 97.903106 
L 44.096773 97.902832 
L 44.986909 97.902427 
L 45.877045 97.901836 
L 46.767182 97.900987 
L 47.657318 97.899784 
L 48.547455 97.898106 
L 49.437591 97.8958 
L 50.327727 97.89268 
L 51.217864 97.888514 
L 52.108 97.883021 
L 52.998136 97.875855 
L 53.888273 97.866592 
L 54.778409 97.854701 
L 55.668545 97.839523 
L 56.558682 97.820233 
L 57.448818 97.795794 
L 58.338955 97.764905 
L 59.229091 97.725929 
L 60.119227 97.676812 
L 61.009364 97.614979 
L 61.8995 97.537201 
L 62.789636 97.439442 
L 63.679773 97.316665 
L 64.569909 97.162596 
L 65.460045 96.96945 
L 66.350182 96.727598 
L 67.240318 96.425193 
L 68.130455 96.047742 
L 69.020591 95.577656 
L 69.910727 94.993791 
L 70.800864 94.271055 
L 71.691 93.380143 
L 72.581136 92.287554 
L 73.471273 90.956048 
L 74.361409 89.345782 
L 75.251545 87.416364 
L 76.141682 85.130048 
L 77.031818 82.456169 
L 77.921955 79.376648 
L 78.812091 75.892 
L 79.702227 72.026819 
L 80.592364 67.833279 
L 81.4825 63.391208 
L 82.372636 58.803718 
L 83.262773 54.188483 
L 84.152909 49.666035 
L 85.043045 45.347449 
L 85.933182 41.324014 
L 86.823318 37.66079 
L 87.713455 34.394714 
L 88.603591 31.536709 
L 89.493727 29.07645 
L 90.383864 26.988293 
L 91.274 25.237104 
L 92.164136 23.783231 
L 93.054273 22.586258 
L 93.944409 21.607565 
L 94.834545 20.81185 
L 95.724682 20.167866 
L 96.614818 19.648615 
L 97.504955 19.23119 
L 98.395091 18.896431 
L 99.285227 18.628486 
L 100.175364 18.414351 
L 101.0655 18.243432 
L 101.955636 18.107141 
L 102.845773 17.998549 
L 103.735909 17.91208 
L 104.626045 17.843262 
L 105.516182 17.788514 
L 106.406318 17.744972 
L 107.296455 17.710352 
L 108.186591 17.682831 
L 109.076727 17.660956 
L 109.966864 17.643573 
L 110.857 17.629759 
L 111.747136 17.618783 
L 112.637273 17.610062 
L 113.527409 17.603134 
L 114.417545 17.597629 
L 115.307682 17.593256 
L 116.197818 17.589783 
L 117.087955 17.587023 
L 117.978091 17.584831 
L 118.868227 17.58309 
L 119.758364 17.581706 
L 120.6485 17.580608 
L 121.538636 17.579735 
L 122.428773 17.579041 
L 123.318909 17.578491 
L 124.209045 17.578053 
L 125.099182 17.577706 
L 125.989318 17.57743 
" style="fill:none;stroke:#f4a582;stroke-linecap:round;stroke-width:1.5;"/>
   </g>
   <g id="line2d_11">
    <path clip-path="url(#p1c6bd2d77d)" d="M 36.975682 44.408574 
L 37.865818 44.898341 
L 38.755955 45.531413 
L 39.646091 46.329635 
L 40.536227 47.31772 
L 41.426364 48.52205 
L 42.3165 49.968762 
L 43.206636 51.681008 
L 44.096773 53.675393 
L 44.986909 55.957835 
L 45.877045 58.519401 
L 46.767182 61.332997 
L 47.657318 64.351973 
L 48.547455 67.511556 
L 49.437591 70.733462 
L 50.327727 73.933194 
L 51.217864 77.028653 
L 52.108 79.94825 
L 52.998136 82.636883 
L 53.888273 85.058844 
L 54.778409 87.197654 
L 55.668545 89.053528 
L 56.558682 90.63951 
L 57.448818 91.977274 
L 58.338955 93.0933 
L 59.229091 94.015815 
L 60.119227 94.77259 
L 61.009364 95.389533 
L 61.8995 95.889924 
L 62.789636 96.294105 
L 63.679773 96.619483 
L 64.569909 96.880716 
L 65.460045 97.089994 
L 66.350182 97.257355 
L 67.240318 97.391005 
L 68.130455 97.497611 
L 69.020591 97.582562 
L 69.910727 97.650199 
L 70.800864 97.704011 
L 71.691 97.74679 
L 72.581136 97.78077 
L 73.471273 97.807733 
L 74.361409 97.829101 
L 75.251545 97.846005 
L 76.141682 97.859346 
L 77.031818 97.869841 
L 77.921955 97.878062 
L 78.812091 97.884465 
L 79.702227 97.889416 
L 80.592364 97.89321 
L 81.4825 97.896086 
L 82.372636 97.898239 
L 83.262773 97.899829 
L 84.152909 97.900986 
L 85.043045 97.901814 
L 85.933182 97.902399 
L 86.823318 97.902805 
L 87.713455 97.903083 
L 88.603591 97.903272 
L 89.493727 97.903398 
L 90.383864 97.903481 
L 91.274 97.903536 
L 92.164136 97.903572 
L 93.054273 97.903595 
L 93.944409 97.90361 
L 94.834545 97.903619 
L 95.724682 97.903626 
L 96.614818 97.90363 
L 97.504955 97.903632 
L 98.395091 97.903634 
L 99.285227 97.903635 
L 100.175364 97.903635 
L 101.0655 97.903636 
L 101.955636 97.903636 
L 102.845773 97.903636 
L 103.735909 97.903636 
L 104.626045 97.903636 
L 105.516182 97.903636 
L 106.406318 97.903636 
L 107.296455 97.903636 
L 108.186591 97.903636 
L 109.076727 97.903636 
L 109.966864 97.903636 
L 110.857 97.903636 
L 111.747136 97.903636 
L 112.637273 97.903636 
L 113.527409 97.903636 
L 114.417545 97.903636 
L 115.307682 97.903636 
L 116.197818 97.903636 
L 117.087955 97.903636 
L 117.978091 97.903636 
L 118.868227 97.903636 
L 119.758364 97.903636 
L 120.6485 97.903636 
L 121.538636 97.903636 
L 122.428773 97.903636 
L 123.318909 97.903636 
L 124.209045 97.903636 
L 125.099182 97.903636 
L 125.989318 97.903636 
" style="fill:none;stroke:#92c5de;stroke-linecap:round;stroke-width:1.5;"/>
   </g>
   <g id="line2d_12">
    <path clip-path="url(#p1c6bd2d77d)" d="M 36.975682 97.903563 
L 37.865818 97.903563 
L 38.755955 97.903564 
L 39.646091 97.903565 
L 40.536227 97.903567 
L 41.426364 97.903568 
L 42.3165 97.90357 
L 43.206636 97.903573 
L 44.096773 97.903575 
L 44.986909 97.903578 
L 45.877045 97.903582 
L 46.767182 97.903586 
L 47.657318 97.90359 
L 48.547455 97.903594 
L 49.437591 97.903599 
L 50.327727 97.903603 
L 51.217864 97.903608 
L 52.108 97.903612 
L 52.998136 97.903615 
L 53.888273 97.903619 
L 54.778409 97.903622 
L 55.668545 97.903624 
L 56.558682 97.903626 
L 57.448818 97.903628 
L 58.338955 97.90363 
L 59.229091 97.903631 
L 60.119227 97.903632 
L 61.009364 97.903633 
L 61.8995 97.903634 
L 62.789636 97.903634 
L 63.679773 97.903635 
L 64.569909 97.903635 
L 65.460045 97.903635 
L 66.350182 97.903635 
L 67.240318 97.903636 
L 68.130455 97.903636 
L 69.020591 97.903636 
L 69.910727 97.903636 
L 70.800864 97.903636 
L 71.691 97.903636 
L 72.581136 97.903636 
L 73.471273 97.903636 
L 74.361409 97.903636 
L 75.251545 97.903636 
L 76.141682 97.903636 
L 77.031818 97.903636 
L 77.921955 97.903636 
L 78.812091 97.903636 
L 79.702227 97.903636 
L 80.592364 97.903636 
L 81.4825 97.903636 
L 82.372636 97.903636 
L 83.262773 97.903636 
L 84.152909 97.903636 
L 85.043045 97.903636 
L 85.933182 97.903636 
L 86.823318 97.903636 
L 87.713455 97.903636 
L 88.603591 97.903636 
L 89.493727 97.903636 
L 90.383864 97.903636 
L 91.274 97.903636 
L 92.164136 97.903636 
L 93.054273 97.903636 
L 93.944409 97.903636 
L 94.834545 97.903636 
L 95.724682 97.903636 
L 96.614818 97.903636 
L 97.504955 97.903636 
L 98.395091 97.903636 
L 99.285227 97.903636 
L 100.175364 97.903636 
L 101.0655 97.903636 
L 101.955636 97.903636 
L 102.845773 97.903636 
L 103.735909 97.903636 
L 104.626045 97.903636 
L 105.516182 97.903636 
L 106.406318 97.903636 
L 107.296455 97.903636 
L 108.186591 97.903636 
L 109.076727 97.903636 
L 109.966864 97.903636 
L 110.857 97.903636 
L 111.747136 97.903636 
L 112.637273 97.903636 
L 113.527409 97.903636 
L 114.417545 97.903636 
L 115.307682 97.903636 
L 116.197818 97.903636 
L 117.087955 97.903636 
L 117.978091 97.903636 
L 118.868227 97.903636 
L 119.758364 97.903636 
L 120.6485 97.903636 
L 121.538636 97.903636 
L 122.428773 97.903636 
L 123.318909 97.903636 
L 124.209045 97.903636 
L 125.099182 97.903636 
L 125.989318 97.903636 
" style="fill:none;stroke:#92c5de;stroke-linecap:round;stroke-width:1.5;"/>
   </g>
   <g id="line2d_13">
    <path clip-path="url(#p1c6bd2d77d)" d="M 36.975682 75.603183 
L 37.865818 75.807352 
L 38.755955 76.07126 
L 39.646091 76.404014 
L 40.536227 76.815916 
L 41.426364 77.317965 
L 42.3165 77.921055 
L 43.206636 78.634838 
L 44.096773 79.466236 
L 44.986909 80.417716 
L 45.877045 81.485555 
L 46.767182 82.658456 
L 47.657318 83.916975 
L 48.547455 85.234108 
L 49.437591 86.577222 
L 50.327727 87.911093 
L 51.217864 89.201495 
L 52.108 90.418586 
L 52.998136 91.539394 
L 53.888273 92.549035 
L 54.778409 93.44064 
L 55.668545 94.214297 
L 56.558682 94.875444 
L 57.448818 95.433117 
L 58.338955 95.898355 
L 59.229091 96.282923 
L 60.119227 96.598399 
L 61.009364 96.855584 
L 61.8995 97.064181 
L 62.789636 97.232672 
L 63.679773 97.368312 
L 64.569909 97.477212 
L 65.460045 97.564454 
L 66.350182 97.634221 
L 67.240318 97.689936 
L 68.130455 97.734377 
L 69.020591 97.76979 
L 69.910727 97.797986 
L 70.800864 97.820419 
L 71.691 97.838252 
L 72.581136 97.852417 
L 73.471273 97.863657 
L 74.361409 97.872565 
L 75.251545 97.879611 
L 76.141682 97.885173 
L 77.031818 97.889548 
L 77.921955 97.892975 
L 78.812091 97.895644 
L 79.702227 97.897708 
L 80.592364 97.89929 
L 81.4825 97.900489 
L 82.372636 97.901386 
L 83.262773 97.902049 
L 84.152909 97.902531 
L 85.043045 97.902877 
L 85.933182 97.90312 
L 86.823318 97.90329 
L 87.713455 97.903406 
L 88.603591 97.903484 
L 89.493727 97.903537 
L 90.383864 97.903572 
L 91.274 97.903595 
L 92.164136 97.903609 
L 93.054273 97.903619 
L 93.944409 97.903625 
L 94.834545 97.903629 
L 95.724682 97.903632 
L 96.614818 97.903634 
L 97.504955 97.903635 
L 98.395091 97.903635 
L 99.285227 97.903636 
L 100.175364 97.903636 
L 101.0655 97.903636 
L 101.955636 97.903636 
L 102.845773 97.903636 
L 103.735909 97.903636 
L 104.626045 97.903636 
L 105.516182 97.903636 
L 106.406318 97.903636 
L 107.296455 97.903636 
L 108.186591 97.903636 
L 109.076727 97.903636 
L 109.966864 97.903636 
L 110.857 97.903636 
L 111.747136 97.903636 
L 112.637273 97.903636 
L 113.527409 97.903636 
L 114.417545 97.903636 
L 115.307682 97.903636 
L 116.197818 97.903636 
L 117.087955 97.903636 
L 117.978091 97.903636 
L 118.868227 97.903636 
L 119.758364 97.903636 
L 120.6485 97.903636 
L 121.538636 97.903636 
L 122.428773 97.903636 
L 123.318909 97.903636 
L 124.209045 97.903636 
L 125.099182 97.903636 
L 125.989318 97.903636 
" style="fill:none;stroke:#92c5de;stroke-linecap:round;stroke-width:1.5;"/>
   </g>
   <g id="line2d_14">
    <path clip-path="url(#p1c6bd2d77d)" d="M 36.975682 97.093956 
L 37.865818 97.101369 
L 38.755955 97.110951 
L 39.646091 97.123032 
L 40.536227 97.137988 
L 41.426364 97.156216 
L 42.3165 97.178113 
L 43.206636 97.204029 
L 44.096773 97.234215 
L 44.986909 97.268761 
L 45.877045 97.307532 
L 46.767182 97.350117 
L 47.657318 97.395811 
L 48.547455 97.443634 
L 49.437591 97.492399 
L 50.327727 97.540829 
L 51.217864 97.587681 
L 52.108 97.631871 
L 52.998136 97.672565 
L 53.888273 97.709223 
L 54.778409 97.741595 
L 55.668545 97.769685 
L 56.558682 97.793689 
L 57.448818 97.813937 
L 58.338955 97.830829 
L 59.229091 97.844792 
L 60.119227 97.856246 
L 61.009364 97.865584 
L 61.8995 97.873158 
L 62.789636 97.879275 
L 63.679773 97.8842 
L 64.569909 97.888154 
L 65.460045 97.891321 
L 66.350182 97.893855 
L 67.240318 97.895877 
L 68.130455 97.897491 
L 69.020591 97.898777 
L 69.910727 97.8998 
L 70.800864 97.900615 
L 71.691 97.901262 
L 72.581136 97.901777 
L 73.471273 97.902185 
L 74.361409 97.902508 
L 75.251545 97.902764 
L 76.141682 97.902966 
L 77.031818 97.903125 
L 77.921955 97.903249 
L 78.812091 97.903346 
L 79.702227 97.903421 
L 80.592364 97.903479 
L 81.4825 97.903522 
L 82.372636 97.903555 
L 83.262773 97.903579 
L 84.152909 97.903596 
L 85.043045 97.903609 
L 85.933182 97.903618 
L 86.823318 97.903624 
L 87.713455 97.903628 
L 88.603591 97.903631 
L 89.493727 97.903633 
L 90.383864 97.903634 
L 91.274 97.903635 
L 92.164136 97.903635 
L 93.054273 97.903636 
L 93.944409 97.903636 
L 94.834545 97.903636 
L 95.724682 97.903636 
L 96.614818 97.903636 
L 97.504955 97.903636 
L 98.395091 97.903636 
L 99.285227 97.903636 
L 100.175364 97.903636 
L 101.0655 97.903636 
L 101.955636 97.903636 
L 102.845773 97.903636 
L 103.735909 97.903636 
L 104.626045 97.903636 
L 105.516182 97.903636 
L 106.406318 97.903636 
L 107.296455 97.903636 
L 108.186591 97.903636 
L 109.076727 97.903636 
L 109.966864 97.903636 
L 110.857 97.903636 
L 111.747136 97.903636 
L 112.637273 97.903636 
L 113.527409 97.903636 
L 114.417545 97.903636 
L 115.307682 97.903636 
L 116.197818 97.903636 
L 117.087955 97.903636 
L 117.978091 97.903636 
L 118.868227 97.903636 
L 119.758364 97.903636 
L 120.6485 97.903636 
L 121.538636 97.903636 
L 122.428773 97.903636 
L 123.318909 97.903636 
L 124.209045 97.903636 
L 125.099182 97.903636 
L 125.989318 97.903636 
" style="fill:none;stroke:#92c5de;stroke-linecap:round;stroke-width:1.5;"/>
   </g>
   <g id="line2d_15">
    <path clip-path="url(#p1c6bd2d77d)" d="M 36.975682 97.903622 
L 37.865818 97.903619 
L 38.755955 97.903615 
L 39.646091 97.903609 
L 40.536227 97.903603 
L 41.426364 97.903595 
L 42.3165 97.903586 
L 43.206636 97.903575 
L 44.096773 97.903563 
L 44.986909 97.903549 
L 45.877045 97.903533 
L 46.767182 97.903515 
L 47.657318 97.903496 
L 48.547455 97.903477 
L 49.437591 97.903457 
L 50.327727 97.903437 
L 51.217864 97.903418 
L 52.108 97.9034 
L 52.998136 97.903383 
L 53.888273 97.903368 
L 54.778409 97.903355 
L 55.668545 97.903343 
L 56.558682 97.903334 
L 57.448818 97.903325 
L 58.338955 97.903319 
L 59.229091 97.903313 
L 60.119227 97.903309 
L 61.009364 97.903305 
L 61.8995 97.903302 
L 62.789636 97.9033 
L 63.679773 97.903299 
L 64.569909 97.903298 
L 65.460045 97.903297 
L 66.350182 97.903297 
L 67.240318 97.903298 
L 68.130455 97.903299 
L 69.020591 97.9033 
L 69.910727 97.903302 
L 70.800864 97.903305 
L 71.691 97.903309 
L 72.581136 97.903313 
L 73.471273 97.903319 
L 74.361409 97.903326 
L 75.251545 97.903334 
L 76.141682 97.903344 
L 77.031818 97.903355 
L 77.921955 97.903369 
L 78.812091 97.903384 
L 79.702227 97.9034 
L 80.592364 97.903419 
L 81.4825 97.903438 
L 82.372636 97.903458 
L 83.262773 97.903478 
L 84.152909 97.903497 
L 85.043045 97.903516 
L 85.933182 97.903533 
L 86.823318 97.903549 
L 87.713455 97.903563 
L 88.603591 97.903576 
L 89.493727 97.903587 
L 90.383864 97.903596 
L 91.274 97.903603 
L 92.164136 97.903609 
L 93.054273 97.903615 
L 93.944409 97.903619 
L 94.834545 97.903622 
L 95.724682 97.903625 
L 96.614818 97.903627 
L 97.504955 97.903629 
L 98.395091 97.903631 
L 99.285227 97.903632 
L 100.175364 97.903633 
L 101.0655 97.903633 
L 101.955636 97.903634 
L 102.845773 97.903635 
L 103.735909 97.903635 
L 104.626045 97.903635 
L 105.516182 97.903635 
L 106.406318 97.903636 
L 107.296455 97.903636 
L 108.186591 97.903636 
L 109.076727 97.903636 
L 109.966864 97.903636 
L 110.857 97.903636 
L 111.747136 97.903636 
L 112.637273 97.903636 
L 113.527409 97.903636 
L 114.417545 97.903636 
L 115.307682 97.903636 
L 116.197818 97.903636 
L 117.087955 97.903636 
L 117.978091 97.903636 
L 118.868227 97.903636 
L 119.758364 97.903636 
L 120.6485 97.903636 
L 121.538636 97.903636 
L 122.428773 97.903636 
L 123.318909 97.903636 
L 124.209045 97.903636 
L 125.099182 97.903636 
L 125.989318 97.903636 
" style="fill:none;stroke:#333333;stroke-linecap:round;stroke-width:1.5;"/>
   </g>
   <g id="line2d_16">
    <path clip-path="url(#p1c6bd2d77d)" d="M 36.975682 94.68024 
L 37.865818 93.882774 
L 38.755955 92.902128 
L 39.646091 91.703078 
L 40.536227 90.247148 
L 41.426364 88.494169 
L 42.3165 86.404861 
L 43.206636 83.944626 
L 44.096773 81.088527 
L 44.986909 77.827114 
L 45.877045 74.172288 
L 46.767182 70.161969 
L 47.657318 65.862047 
L 48.547455 61.364319 
L 49.437591 56.779913 
L 50.327727 52.2289 
L 51.217864 47.82804 
L 52.108 43.679238 
L 52.998136 39.861059 
L 53.888273 36.424593 
L 54.778409 33.393711 
L 55.668545 30.768697 
L 56.558682 28.531765 
L 57.448818 26.653084 
L 58.338955 25.096254 
L 59.229091 23.822737 
L 60.119227 22.795061 
L 61.009364 21.978924 
L 61.8995 21.344415 
L 62.789636 20.866606 
L 63.679773 20.525739 
L 64.569909 20.307195 
L 65.460045 20.201367 
L 66.350182 20.20354 
L 67.240318 20.31381 
L 68.130455 20.53709 
L 69.020591 20.883184 
L 69.910727 21.366918 
L 70.800864 22.008257 
L 71.691 22.832334 
L 72.581136 23.869249 
L 73.471273 25.153455 
L 74.361409 26.722508 
L 75.251545 28.614917 
L 76.141682 30.866893 
L 77.031818 33.507876 
L 77.921955 36.555011 
L 78.812091 40.007134 
L 79.702227 43.839301 
L 80.592364 47.999265 
L 81.4825 52.407395 
L 82.372636 56.960996 
L 83.262773 61.542956 
L 84.152909 66.033369 
L 85.043045 70.321757 
L 85.933182 74.317324 
L 86.823318 77.955355 
L 87.713455 81.199088 
L 88.603591 84.03762 
L 89.493727 86.481167 
L 90.383864 88.555173 
L 91.274 90.294516 
L 92.164136 91.73857 
L 93.054273 92.927466 
L 93.944409 93.899562 
L 94.834545 94.689916 
L 95.724682 95.329563 
L 96.614818 95.84532 
L 97.504955 96.259936 
L 98.395091 96.592443 
L 99.285227 96.858586 
L 100.175364 97.071281 
L 101.0655 97.241052 
L 101.955636 97.376426 
L 102.845773 97.484289 
L 103.735909 97.570176 
L 104.626045 97.638532 
L 105.516182 97.692912 
L 106.406318 97.736161 
L 107.296455 97.770549 
L 108.186591 97.797885 
L 109.076727 97.819612 
L 109.966864 97.836879 
L 110.857 97.8506 
L 111.747136 97.861502 
L 112.637273 97.870164 
L 113.527409 97.877046 
L 114.417545 97.882514 
L 115.307682 97.886857 
L 116.197818 97.890308 
L 117.087955 97.893049 
L 117.978091 97.895226 
L 118.868227 97.896956 
L 119.758364 97.89833 
L 120.6485 97.899421 
L 121.538636 97.900288 
L 122.428773 97.900977 
L 123.318909 97.901524 
L 124.209045 97.901958 
L 125.099182 97.902303 
L 125.989318 97.902577 
" style="fill:none;stroke:#333333;stroke-linecap:round;stroke-width:1.5;"/>
   </g>
   <g id="line2d_17">
    <path clip-path="url(#p1c6bd2d77d)" d="M 36.975682 97.881844 
L 37.865818 97.876452 
L 38.755955 97.869822 
L 39.646091 97.861715 
L 40.536227 97.851872 
L 41.426364 97.840021 
L 42.3165 97.825895 
L 43.206636 97.809262 
L 44.096773 97.789952 
L 44.986909 97.767902 
L 45.877045 97.743193 
L 46.767182 97.71608 
L 47.657318 97.687009 
L 48.547455 97.6566 
L 49.437591 97.625606 
L 50.327727 97.594837 
L 51.217864 97.565084 
L 52.108 97.537034 
L 52.998136 97.51122 
L 53.888273 97.487987 
L 54.778409 97.467496 
L 55.668545 97.449748 
L 56.558682 97.434625 
L 57.448818 97.421924 
L 58.338955 97.411398 
L 59.229091 97.402788 
L 60.119227 97.39584 
L 61.009364 97.390322 
L 61.8995 97.386033 
L 62.789636 97.382802 
L 63.679773 97.380498 
L 64.569909 97.37902 
L 65.460045 97.378305 
L 66.350182 97.378319 
L 67.240318 97.379065 
L 68.130455 97.380574 
L 69.020591 97.382914 
L 69.910727 97.386185 
L 70.800864 97.390521 
L 71.691 97.396092 
L 72.581136 97.403102 
L 73.471273 97.411785 
L 74.361409 97.422393 
L 75.251545 97.435187 
L 76.141682 97.450412 
L 77.031818 97.468268 
L 77.921955 97.488869 
L 78.812091 97.512208 
L 79.702227 97.538117 
L 80.592364 97.566241 
L 81.4825 97.596044 
L 82.372636 97.62683 
L 83.262773 97.657808 
L 84.152909 97.688167 
L 85.043045 97.71716 
L 85.933182 97.744173 
L 86.823318 97.768769 
L 87.713455 97.7907 
L 88.603591 97.809891 
L 89.493727 97.826411 
L 90.383864 97.840433 
L 91.274 97.852192 
L 92.164136 97.861955 
L 93.054273 97.869993 
L 93.944409 97.876565 
L 94.834545 97.881909 
L 95.724682 97.886233 
L 96.614818 97.88972 
L 97.504955 97.892524 
L 98.395091 97.894772 
L 99.285227 97.896571 
L 100.175364 97.898009 
L 101.0655 97.899157 
L 101.955636 97.900072 
L 102.845773 97.900801 
L 103.735909 97.901382 
L 104.626045 97.901844 
L 105.516182 97.902212 
L 106.406318 97.902504 
L 107.296455 97.902737 
L 108.186591 97.902921 
L 109.076727 97.903068 
L 109.966864 97.903185 
L 110.857 97.903278 
L 111.747136 97.903352 
L 112.637273 97.90341 
L 113.527409 97.903457 
L 114.417545 97.903494 
L 115.307682 97.903523 
L 116.197818 97.903546 
L 117.087955 97.903565 
L 117.978091 97.90358 
L 118.868227 97.903591 
L 119.758364 97.9036 
L 120.6485 97.903608 
L 121.538636 97.903614 
L 122.428773 97.903618 
L 123.318909 97.903622 
L 124.209045 97.903625 
L 125.099182 97.903627 
L 125.989318 97.903629 
" style="fill:none;stroke:#333333;stroke-linecap:round;stroke-width:1.5;"/>
   </g>
  </g>
 </g>
 <defs>
  <clipPath id="p1c6bd2d77d">
   <rect height="88.36" width="97.915" x="32.525" y="13.56"/>
  </clipPath>
 </defs>
</svg>
