<?xml version="1.0" encoding="utf-8" standalone="no"?>
<!DOCTYPE svg PUBLIC "-//W3C//DTD SVG 1.1//EN"
  "http://www.w3.org/Graphics/SVG/1.1/DTD/svg11.dtd">
<!-- Created with matplotlib (http://matplotlib.org/) -->
<svg height="216pt" version="1.1" viewBox="0 0 216 216" width="216pt" xmlns="http://www.w3.org/2000/svg" xmlns:xlink="http://www.w3.org/1999/xlink">
 <defs>
  <style type="text/css">
*{stroke-linecap:butt;stroke-linejoin:round;}
  </style>
 </defs>
 <g id="figure_1">
  <g id="patch_1">
   <path d="M 0 216 
L 216 216 
L 216 0 
L 0 0 
z
" style="fill:#ffffff;"/>
  </g>
  <g id="axes_1">
   <g id="patch_2">
    <path d="M 44.78 175.96 
L 203.52 175.96 
L 203.52 25.44 
L 44.78 25.44 
z
" style="fill:#ffffff;"/>
   </g>
   <g id="matplotlib.axis_1">
    <g id="xtick_1">
     <g id="line2d_1">
      <defs>
       <path d="M 0 0 
L 0 3.5 
" id="md612436bd5" style="stroke:#262626;stroke-width:0.8;"/>
      </defs>
      <g>
       <use style="fill:#262626;stroke:#262626;stroke-width:0.8;" x="51.995455" xlink:href="#md612436bd5" y="175.96"/>
      </g>
     </g>
     <g id="text_1">
      <!-- 2 -->
      <defs>
       <path d="M 50.34375 8.453125 
L 50.34375 0 
L 3.03125 0 
Q 2.9375 3.171875 4.046875 6.109375 
Q 5.859375 10.9375 9.828125 15.625 
Q 13.8125 20.3125 21.34375 26.46875 
Q 33.015625 36.03125 37.109375 41.625 
Q 41.21875 47.21875 41.21875 52.203125 
Q 41.21875 57.421875 37.46875 61 
Q 33.734375 64.59375 27.734375 64.59375 
Q 21.390625 64.59375 17.578125 60.78125 
Q 13.765625 56.984375 13.71875 50.25 
L 4.6875 51.171875 
Q 5.609375 61.28125 11.65625 66.578125 
Q 17.71875 71.875 27.9375 71.875 
Q 38.234375 71.875 44.234375 66.15625 
Q 50.25 60.453125 50.25 52 
Q 50.25 47.703125 48.484375 43.546875 
Q 46.734375 39.40625 42.65625 34.8125 
Q 38.578125 30.21875 29.109375 22.21875 
Q 21.1875 15.578125 18.9375 13.203125 
Q 16.703125 10.84375 15.234375 8.453125 
z
" id="ArialMT-32"/>
      </defs>
      <g style="fill:#262626;" transform="translate(49.214986 190.117812)scale(0.1 -0.1)">
       <use xlink:href="#ArialMT-32"/>
      </g>
     </g>
    </g>
    <g id="xtick_2">
     <g id="line2d_2">
      <g>
       <use style="fill:#262626;stroke:#262626;stroke-width:0.8;" x="80.857273" xlink:href="#md612436bd5" y="175.96"/>
      </g>
     </g>
     <g id="text_2">
      <!-- 4 -->
      <defs>
       <path d="M 32.328125 0 
L 32.328125 17.140625 
L 1.265625 17.140625 
L 1.265625 25.203125 
L 33.9375 71.578125 
L 41.109375 71.578125 
L 41.109375 25.203125 
L 50.78125 25.203125 
L 50.78125 17.140625 
L 41.109375 17.140625 
L 41.109375 0 
z
M 32.328125 25.203125 
L 32.328125 57.46875 
L 9.90625 25.203125 
z
" id="ArialMT-34"/>
      </defs>
      <g style="fill:#262626;" transform="translate(78.076804 190.117812)scale(0.1 -0.1)">
       <use xlink:href="#ArialMT-34"/>
      </g>
     </g>
    </g>
    <g id="xtick_3">
     <g id="line2d_3">
      <g>
       <use style="fill:#262626;stroke:#262626;stroke-width:0.8;" x="109.719091" xlink:href="#md612436bd5" y="175.96"/>
      </g>
     </g>
     <g id="text_3">
      <!-- 6 -->
      <defs>
       <path d="M 49.75 54.046875 
L 41.015625 53.375 
Q 39.84375 58.546875 37.703125 60.890625 
Q 34.125 64.65625 28.90625 64.65625 
Q 24.703125 64.65625 21.53125 62.3125 
Q 17.390625 59.28125 14.984375 53.46875 
Q 12.59375 47.65625 12.5 36.921875 
Q 15.671875 41.75 20.265625 44.09375 
Q 24.859375 46.4375 29.890625 46.4375 
Q 38.671875 46.4375 44.84375 39.96875 
Q 51.03125 33.5 51.03125 23.25 
Q 51.03125 16.5 48.125 10.71875 
Q 45.21875 4.9375 40.140625 1.859375 
Q 35.0625 -1.21875 28.609375 -1.21875 
Q 17.625 -1.21875 10.6875 6.859375 
Q 3.765625 14.9375 3.765625 33.5 
Q 3.765625 54.25 11.421875 63.671875 
Q 18.109375 71.875 29.4375 71.875 
Q 37.890625 71.875 43.28125 67.140625 
Q 48.6875 62.40625 49.75 54.046875 
z
M 13.875 23.1875 
Q 13.875 18.65625 15.796875 14.5 
Q 17.71875 10.359375 21.1875 8.171875 
Q 24.65625 6 28.46875 6 
Q 34.03125 6 38.03125 10.484375 
Q 42.046875 14.984375 42.046875 22.703125 
Q 42.046875 30.125 38.078125 34.390625 
Q 34.125 38.671875 28.125 38.671875 
Q 22.171875 38.671875 18.015625 34.390625 
Q 13.875 30.125 13.875 23.1875 
z
" id="ArialMT-36"/>
      </defs>
      <g style="fill:#262626;" transform="translate(106.938622 190.117812)scale(0.1 -0.1)">
       <use xlink:href="#ArialMT-36"/>
      </g>
     </g>
    </g>
    <g id="xtick_4">
     <g id="line2d_4">
      <g>
       <use style="fill:#262626;stroke:#262626;stroke-width:0.8;" x="138.580909" xlink:href="#md612436bd5" y="175.96"/>
      </g>
     </g>
     <g id="text_4">
      <!-- 8 -->
      <defs>
       <path d="M 17.671875 38.8125 
Q 12.203125 40.828125 9.5625 44.53125 
Q 6.9375 48.25 6.9375 53.421875 
Q 6.9375 61.234375 12.546875 66.546875 
Q 18.171875 71.875 27.484375 71.875 
Q 36.859375 71.875 42.578125 66.421875 
Q 48.296875 60.984375 48.296875 53.171875 
Q 48.296875 48.1875 45.671875 44.5 
Q 43.0625 40.828125 37.75 38.8125 
Q 44.34375 36.671875 47.78125 31.875 
Q 51.21875 27.09375 51.21875 20.453125 
Q 51.21875 11.28125 44.71875 5.03125 
Q 38.234375 -1.21875 27.640625 -1.21875 
Q 17.046875 -1.21875 10.546875 5.046875 
Q 4.046875 11.328125 4.046875 20.703125 
Q 4.046875 27.6875 7.59375 32.390625 
Q 11.140625 37.109375 17.671875 38.8125 
z
M 15.921875 53.71875 
Q 15.921875 48.640625 19.1875 45.40625 
Q 22.46875 42.1875 27.6875 42.1875 
Q 32.765625 42.1875 36.015625 45.375 
Q 39.265625 48.578125 39.265625 53.21875 
Q 39.265625 58.0625 35.90625 61.359375 
Q 32.5625 64.65625 27.59375 64.65625 
Q 22.5625 64.65625 19.234375 61.421875 
Q 15.921875 58.203125 15.921875 53.71875 
z
M 13.09375 20.65625 
Q 13.09375 16.890625 14.875 13.375 
Q 16.65625 9.859375 20.171875 7.921875 
Q 23.6875 6 27.734375 6 
Q 34.03125 6 38.125 10.046875 
Q 42.234375 14.109375 42.234375 20.359375 
Q 42.234375 26.703125 38.015625 30.859375 
Q 33.796875 35.015625 27.4375 35.015625 
Q 21.234375 35.015625 17.15625 30.90625 
Q 13.09375 26.8125 13.09375 20.65625 
z
" id="ArialMT-38"/>
      </defs>
      <g style="fill:#262626;" transform="translate(135.80044 190.117812)scale(0.1 -0.1)">
       <use xlink:href="#ArialMT-38"/>
      </g>
     </g>
    </g>
    <g id="xtick_5">
     <g id="line2d_5">
      <g>
       <use style="fill:#262626;stroke:#262626;stroke-width:0.8;" x="167.442727" xlink:href="#md612436bd5" y="175.96"/>
      </g>
     </g>
     <g id="text_5">
      <!-- 10 -->
      <defs>
       <path d="M 37.25 0 
L 28.46875 0 
L 28.46875 56 
Q 25.296875 52.984375 20.140625 49.953125 
Q 14.984375 46.921875 10.890625 45.40625 
L 10.890625 53.90625 
Q 18.265625 57.375 23.78125 62.296875 
Q 29.296875 67.234375 31.59375 71.875 
L 37.25 71.875 
z
" id="ArialMT-31"/>
       <path d="M 4.15625 35.296875 
Q 4.15625 48 6.765625 55.734375 
Q 9.375 63.484375 14.515625 67.671875 
Q 19.671875 71.875 27.484375 71.875 
Q 33.25 71.875 37.59375 69.546875 
Q 41.9375 67.234375 44.765625 62.859375 
Q 47.609375 58.5 49.21875 52.21875 
Q 50.828125 45.953125 50.828125 35.296875 
Q 50.828125 22.703125 48.234375 14.96875 
Q 45.65625 7.234375 40.5 3 
Q 35.359375 -1.21875 27.484375 -1.21875 
Q 17.140625 -1.21875 11.234375 6.203125 
Q 4.15625 15.140625 4.15625 35.296875 
z
M 13.1875 35.296875 
Q 13.1875 17.671875 17.3125 11.828125 
Q 21.4375 6 27.484375 6 
Q 33.546875 6 37.671875 11.859375 
Q 41.796875 17.71875 41.796875 35.296875 
Q 41.796875 52.984375 37.671875 58.78125 
Q 33.546875 64.59375 27.390625 64.59375 
Q 21.34375 64.59375 17.71875 59.46875 
Q 13.1875 52.9375 13.1875 35.296875 
z
" id="ArialMT-30"/>
      </defs>
      <g style="fill:#262626;" transform="translate(161.88179 190.117812)scale(0.1 -0.1)">
       <use xlink:href="#ArialMT-31"/>
       <use x="55.615234" xlink:href="#ArialMT-30"/>
      </g>
     </g>
    </g>
    <g id="xtick_6">
     <g id="line2d_6">
      <g>
       <use style="fill:#262626;stroke:#262626;stroke-width:0.8;" x="196.304545" xlink:href="#md612436bd5" y="175.96"/>
      </g>
     </g>
     <g id="text_6">
      <!-- 12 -->
      <g style="fill:#262626;" transform="translate(190.743608 190.117812)scale(0.1 -0.1)">
       <use xlink:href="#ArialMT-31"/>
       <use x="55.615234" xlink:href="#ArialMT-32"/>
      </g>
     </g>
    </g>
    <g id="text_7">
     <!-- pH -->
     <defs>
      <path d="M 6.59375 -19.875 
L 6.59375 51.859375 
L 14.59375 51.859375 
L 14.59375 45.125 
Q 17.4375 49.078125 21 51.046875 
Q 24.5625 53.03125 29.640625 53.03125 
Q 36.28125 53.03125 41.359375 49.609375 
Q 46.4375 46.1875 49.015625 39.953125 
Q 51.609375 33.734375 51.609375 26.3125 
Q 51.609375 18.359375 48.75 11.984375 
Q 45.90625 5.609375 40.453125 2.21875 
Q 35.015625 -1.171875 29 -1.171875 
Q 24.609375 -1.171875 21.109375 0.6875 
Q 17.625 2.546875 15.375 5.375 
L 15.375 -19.875 
z
M 14.546875 25.640625 
Q 14.546875 15.625 18.59375 10.84375 
Q 22.65625 6.0625 28.421875 6.0625 
Q 34.28125 6.0625 38.453125 11.015625 
Q 42.625 15.96875 42.625 26.375 
Q 42.625 36.28125 38.546875 41.203125 
Q 34.46875 46.140625 28.8125 46.140625 
Q 23.1875 46.140625 18.859375 40.890625 
Q 14.546875 35.640625 14.546875 25.640625 
z
" id="ArialMT-70"/>
      <path d="M 8.015625 0 
L 8.015625 71.578125 
L 17.484375 71.578125 
L 17.484375 42.1875 
L 54.6875 42.1875 
L 54.6875 71.578125 
L 64.15625 71.578125 
L 64.15625 0 
L 54.6875 0 
L 54.6875 33.734375 
L 17.484375 33.734375 
L 17.484375 0 
z
" id="ArialMT-48"/>
     </defs>
     <g style="fill:#262626;" transform="translate(117.758594 203.263125)scale(0.1 -0.1)">
      <use xlink:href="#ArialMT-70"/>
      <use x="55.615234" xlink:href="#ArialMT-48"/>
     </g>
    </g>
   </g>
   <g id="matplotlib.axis_2">
    <g id="ytick_1">
     <g id="line2d_7">
      <defs>
       <path d="M 0 0 
L -3.5 0 
" id="m7eb44b5378" style="stroke:#262626;stroke-width:0.8;"/>
      </defs>
      <g>
       <use style="fill:#262626;stroke:#262626;stroke-width:0.8;" x="44.78" xlink:href="#m7eb44b5378" y="125.875777"/>
      </g>
     </g>
     <g id="text_8">
      <!-- −1 -->
      <defs>
       <path d="M 52.828125 31.203125 
L 5.5625 31.203125 
L 5.5625 39.40625 
L 52.828125 39.40625 
z
" id="ArialMT-2212"/>
      </defs>
      <g style="fill:#262626;" transform="translate(26.378438 129.454683)scale(0.1 -0.1)">
       <use xlink:href="#ArialMT-2212"/>
       <use x="58.398438" xlink:href="#ArialMT-31"/>
      </g>
     </g>
    </g>
    <g id="ytick_2">
     <g id="line2d_8">
      <g>
       <use style="fill:#262626;stroke:#262626;stroke-width:0.8;" x="44.78" xlink:href="#m7eb44b5378" y="74.288832"/>
      </g>
     </g>
     <g id="text_9">
      <!-- 0 -->
      <g style="fill:#262626;" transform="translate(32.219063 77.867738)scale(0.1 -0.1)">
       <use xlink:href="#ArialMT-30"/>
      </g>
     </g>
    </g>
    <g id="text_10">
     <!-- $\langle q_\mathsf{total} \rangle$ -->
     <defs>
      <path d="M 8.9375 31.34375 
L 22.703125 75.875 
L 31 75.875 
L 17.234375 31.34375 
L 31 -13.1875 
L 22.703125 -13.1875 
z
" id="DejaVuSans-27e8"/>
      <path d="M 41.703125 8.203125 
Q 38.09375 3.46875 33.171875 1.015625 
Q 28.265625 -1.421875 22.3125 -1.421875 
Q 14.015625 -1.421875 9.296875 4.171875 
Q 4.59375 9.765625 4.59375 19.578125 
Q 4.59375 27.484375 7.5 34.859375 
Q 10.40625 42.234375 15.828125 48.09375 
Q 19.34375 51.90625 23.90625 53.953125 
Q 28.46875 56 33.5 56 
Q 39.546875 56 43.453125 53.609375 
Q 47.359375 51.21875 49.125 46.390625 
L 50.6875 54.59375 
L 59.71875 54.59375 
L 45.125 -20.609375 
L 36.078125 -20.609375 
z
M 13.921875 20.90625 
Q 13.921875 13.671875 16.9375 9.890625 
Q 19.96875 6.109375 25.6875 6.109375 
Q 34.1875 6.109375 40.1875 14.234375 
Q 46.1875 22.359375 46.1875 33.984375 
Q 46.1875 41.015625 43.078125 44.75 
Q 39.984375 48.484375 34.1875 48.484375 
Q 29.9375 48.484375 26.3125 46.5 
Q 22.703125 44.53125 20.015625 40.71875 
Q 17.1875 36.71875 15.546875 31.34375 
Q 13.921875 25.984375 13.921875 20.90625 
z
" id="DejaVuSans-Oblique-71"/>
      <path d="M 18.3125 70.21875 
L 18.3125 54.6875 
L 36.8125 54.6875 
L 36.8125 47.703125 
L 18.3125 47.703125 
L 18.3125 18.015625 
Q 18.3125 11.328125 20.140625 9.421875 
Q 21.96875 7.515625 27.59375 7.515625 
L 36.8125 7.515625 
L 36.8125 0 
L 27.59375 0 
Q 17.1875 0 13.234375 3.875 
Q 9.28125 7.765625 9.28125 18.015625 
L 9.28125 47.703125 
L 2.6875 47.703125 
L 2.6875 54.6875 
L 9.28125 54.6875 
L 9.28125 70.21875 
z
" id="DejaVuSans-74"/>
      <path d="M 30.609375 48.390625 
Q 23.390625 48.390625 19.1875 42.75 
Q 14.984375 37.109375 14.984375 27.296875 
Q 14.984375 17.484375 19.15625 11.84375 
Q 23.34375 6.203125 30.609375 6.203125 
Q 37.796875 6.203125 41.984375 11.859375 
Q 46.1875 17.53125 46.1875 27.296875 
Q 46.1875 37.015625 41.984375 42.703125 
Q 37.796875 48.390625 30.609375 48.390625 
z
M 30.609375 56 
Q 42.328125 56 49.015625 48.375 
Q 55.71875 40.765625 55.71875 27.296875 
Q 55.71875 13.875 49.015625 6.21875 
Q 42.328125 -1.421875 30.609375 -1.421875 
Q 18.84375 -1.421875 12.171875 6.21875 
Q 5.515625 13.875 5.515625 27.296875 
Q 5.515625 40.765625 12.171875 48.375 
Q 18.84375 56 30.609375 56 
z
" id="DejaVuSans-6f"/>
      <path d="M 34.28125 27.484375 
Q 23.390625 27.484375 19.1875 25 
Q 14.984375 22.515625 14.984375 16.5 
Q 14.984375 11.71875 18.140625 8.90625 
Q 21.296875 6.109375 26.703125 6.109375 
Q 34.1875 6.109375 38.703125 11.40625 
Q 43.21875 16.703125 43.21875 25.484375 
L 43.21875 27.484375 
z
M 52.203125 31.203125 
L 52.203125 0 
L 43.21875 0 
L 43.21875 8.296875 
Q 40.140625 3.328125 35.546875 0.953125 
Q 30.953125 -1.421875 24.3125 -1.421875 
Q 15.921875 -1.421875 10.953125 3.296875 
Q 6 8.015625 6 15.921875 
Q 6 25.140625 12.171875 29.828125 
Q 18.359375 34.515625 30.609375 34.515625 
L 43.21875 34.515625 
L 43.21875 35.40625 
Q 43.21875 41.609375 39.140625 45 
Q 35.0625 48.390625 27.6875 48.390625 
Q 23 48.390625 18.546875 47.265625 
Q 14.109375 46.140625 10.015625 43.890625 
L 10.015625 52.203125 
Q 14.9375 54.109375 19.578125 55.046875 
Q 24.21875 56 28.609375 56 
Q 40.484375 56 46.34375 49.84375 
Q 52.203125 43.703125 52.203125 31.203125 
z
" id="DejaVuSans-61"/>
      <path d="M 9.421875 75.984375 
L 18.40625 75.984375 
L 18.40625 0 
L 9.421875 0 
z
" id="DejaVuSans-6c"/>
      <path d="M 30.078125 31.34375 
L 16.3125 -13.1875 
L 8.015625 -13.1875 
L 21.78125 31.34375 
L 8.015625 75.875 
L 16.3125 75.875 
z
" id="DejaVuSans-27e9"/>
     </defs>
     <g style="fill:#262626;" transform="translate(20.278438 115.95)rotate(-90)scale(0.1 -0.1)">
      <use transform="translate(0 0.125)" xlink:href="#DejaVuSans-27e8"/>
      <use transform="translate(39.013672 0.125)" xlink:href="#DejaVuSans-Oblique-71"/>
      <use transform="translate(102.490234 -16.28125)scale(0.7)" xlink:href="#DejaVuSans-74"/>
      <use transform="translate(129.936523 -16.28125)scale(0.7)" xlink:href="#DejaVuSans-6f"/>
      <use transform="translate(172.763672 -16.28125)scale(0.7)" xlink:href="#DejaVuSans-74"/>
      <use transform="translate(200.209961 -16.28125)scale(0.7)" xlink:href="#DejaVuSans-61"/>
      <use transform="translate(243.105469 -16.28125)scale(0.7)" xlink:href="#DejaVuSans-6c"/>
      <use transform="translate(265.288086 0.125)" xlink:href="#DejaVuSans-27e9"/>
     </g>
    </g>
   </g>
   <g id="PolyCollection_1">
    <defs>
     <path d="M 51.995455 -183.718182 
L 51.995455 -100.027585 
L 53.438545 -100.383126 
L 54.881636 -100.709246 
L 56.324727 -101.006566 
L 57.767818 -101.276451 
L 59.210909 -101.520856 
L 60.654 -101.74218 
L 62.097091 -101.943119 
L 63.540182 -102.126531 
L 64.983273 -102.295332 
L 66.426364 -102.452421 
L 67.869455 -102.600651 
L 69.312545 -102.742833 
L 70.755636 -102.881753 
L 72.198727 -103.020194 
L 73.641818 -103.160945 
L 75.084909 -103.306796 
L 76.528 -103.460514 
L 77.971091 -103.624824 
L 79.414182 -103.802383 
L 80.857273 -103.995768 
L 82.300364 -104.207491 
L 83.743455 -104.440038 
L 85.186545 -104.695936 
L 86.629636 -104.977838 
L 88.072727 -105.28862 
L 89.515818 -105.631454 
L 90.958909 -106.009856 
L 92.402 -106.427707 
L 93.845091 -106.889234 
L 95.288182 -107.398963 
L 96.731273 -107.96164 
L 98.174364 -108.582094 
L 99.617455 -109.265052 
L 101.060545 -110.014894 
L 102.503636 -110.835346 
L 103.946727 -111.729121 
L 105.389818 -112.697515 
L 106.832909 -113.739916 
L 108.276 -114.853212 
L 109.719091 -116.031014 
L 111.162182 -117.262621 
L 112.605273 -118.531639 
L 114.048364 -119.81416 
L 115.491455 -121.076516 
L 116.934545 -122.27281 
L 118.377636 -123.342886 
L 119.820727 -124.212286 
L 121.263818 -124.796731 
L 122.706909 -125.013671 
L 124.15 -124.800124 
L 125.593091 -124.129386 
L 127.036182 -123.015993 
L 128.479273 -121.505404 
L 129.922364 -119.655938 
L 131.365455 -117.523038 
L 132.808545 -115.150409 
L 134.251636 -112.567315 
L 135.694727 -109.789717 
L 137.137818 -106.82348 
L 138.580909 -103.668753 
L 140.024 -100.325044 
L 141.467091 -96.796634 
L 142.910182 -93.097776 
L 144.353273 -89.256862 
L 145.796364 -85.318586 
L 147.239455 -81.343265 
L 148.682545 -77.403006 
L 150.125636 -73.575179 
L 151.568727 -69.934524 
L 153.011818 -66.54561 
L 154.454909 -63.457225 
L 155.898 -60.699626 
L 157.341091 -58.284675 
L 158.784182 -56.208216 
L 160.227273 -54.453709 
L 161.670364 -52.996182 
L 163.113455 -51.80583 
L 164.556545 -50.850902 
L 165.999636 -50.099796 
L 167.442727 -49.522426 
L 168.885818 -49.091007 
L 170.328909 -48.780409 
L 171.772 -48.568225 
L 173.215091 -48.434641 
L 174.658182 -48.362183 
L 176.101273 -48.335383 
L 177.544364 -48.340411 
L 178.987455 -48.364718 
L 180.430545 -48.396773 
L 181.873636 -48.425927 
L 183.316727 -48.442441 
L 184.759818 -48.437606 
L 186.202909 -48.403839 
L 187.646 -48.334662 
L 189.089091 -48.224487 
L 190.532182 -48.068265 
L 191.975273 -47.861099 
L 193.418364 -47.59793 
L 194.861455 -47.273387 
L 196.304545 -46.881818 
L 196.304545 -132.65596 
L 196.304545 -132.65596 
L 194.861455 -132.432173 
L 193.418364 -132.247067 
L 191.975273 -132.102203 
L 190.532182 -131.998371 
L 189.089091 -131.935923 
L 187.646 -131.914888 
L 186.202909 -131.934909 
L 184.759818 -131.995094 
L 183.316727 -132.093898 
L 181.873636 -132.229166 
L 180.430545 -132.398372 
L 178.987455 -132.599018 
L 177.544364 -132.8291 
L 176.101273 -133.087513 
L 174.658182 -133.374376 
L 173.215091 -133.691262 
L 171.772 -134.041411 
L 170.328909 -134.42995 
L 168.885818 -134.86416 
L 167.442727 -135.353745 
L 165.999636 -135.911059 
L 164.556545 -136.55118 
L 163.113455 -137.29171 
L 161.670364 -138.152159 
L 160.227273 -139.152739 
L 158.784182 -140.312421 
L 157.341091 -141.646214 
L 155.898 -143.161743 
L 154.454909 -144.855489 
L 153.011818 -146.709319 
L 151.568727 -148.688192 
L 150.125636 -150.739973 
L 148.682545 -152.798007 
L 147.239455 -154.786483 
L 145.796364 -156.627803 
L 144.353273 -158.25054 
L 142.910182 -159.596365 
L 141.467091 -160.624755 
L 140.024 -161.315007 
L 138.580909 -161.665905 
L 137.137818 -161.693882 
L 135.694727 -161.430631 
L 134.251636 -160.921004 
L 132.808545 -160.221639 
L 131.365455 -159.400435 
L 129.922364 -158.536413 
L 128.479273 -157.71884 
L 127.036182 -157.043539 
L 125.593091 -156.603753 
L 124.15 -156.474596 
L 122.706909 -156.69542 
L 121.263818 -157.260065 
L 119.820727 -158.122404 
L 118.377636 -159.213628 
L 116.934545 -160.460594 
L 115.491455 -161.797834 
L 114.048364 -163.172425 
L 112.605273 -164.544274 
L 111.162182 -165.884361 
L 109.719091 -167.172493 
L 108.276 -168.39524 
L 106.832909 -169.54427 
L 105.389818 -170.615079 
L 103.946727 -171.606054 
L 102.503636 -172.517782 
L 101.060545 -173.352508 
L 99.617455 -174.113704 
L 98.174364 -174.805698 
L 96.731273 -175.433349 
L 95.288182 -176.001769 
L 93.845091 -176.516092 
L 92.402 -176.981307 
L 90.958909 -177.402136 
L 89.515818 -177.782967 
L 88.072727 -178.127807 
L 86.629636 -178.440281 
L 85.186545 -178.72365 
L 83.743455 -178.980869 
L 82.300364 -179.214661 
L 80.857273 -179.42762 
L 79.414182 -179.622296 
L 77.971091 -179.80127 
L 76.528 -179.967196 
L 75.084909 -180.122817 
L 73.641818 -180.270957 
L 72.198727 -180.414507 
L 70.755636 -180.556405 
L 69.312545 -180.699624 
L 67.869455 -180.847176 
L 66.426364 -181.002133 
L 64.983273 -181.167662 
L 63.540182 -181.347066 
L 62.097091 -181.543807 
L 60.654 -181.761508 
L 59.210909 -182.003915 
L 57.767818 -182.274842 
L 56.324727 -182.578091 
L 54.881636 -182.917377 
L 53.438545 -183.296276 
L 51.995455 -183.718182 
z
" id="mcc0d2f9b93" style="stroke:#ffffff;stroke-opacity:0.05;"/>
    </defs>
    <g clip-path="url(#pb1c6524942)">
     <use style="fill:#b1400d;fill-opacity:0.05;stroke:#ffffff;stroke-opacity:0.05;" x="0" xlink:href="#mcc0d2f9b93" y="216"/>
    </g>
   </g>
   <g id="line2d_9">
    <path clip-path="url(#pb1c6524942)" d="M 51.995455 74.127116 
L 53.438545 74.160299 
L 54.881636 74.186689 
L 56.324727 74.207672 
L 57.767818 74.224353 
L 59.210909 74.237614 
L 60.654 74.248156 
L 62.097091 74.256537 
L 63.540182 74.263201 
L 64.983273 74.268503 
L 66.426364 74.272723 
L 67.869455 74.276086 
L 69.312545 74.278771 
L 70.755636 74.280921 
L 72.198727 74.28265 
L 73.641818 74.284049 
L 75.084909 74.285194 
L 76.528 74.286145 
L 77.971091 74.286953 
L 79.414182 74.287661 
L 80.857273 74.288306 
L 82.300364 74.288924 
L 83.743455 74.289546 
L 85.186545 74.290207 
L 86.629636 74.290941 
L 88.072727 74.291787 
L 89.515818 74.29279 
L 90.958909 74.294004 
L 92.402 74.295493 
L 93.845091 74.297337 
L 95.288182 74.299634 
L 96.731273 74.302505 
L 98.174364 74.306104 
L 99.617455 74.310622 
L 101.060545 74.316299 
L 102.503636 74.323436 
L 103.946727 74.332412 
L 105.389818 74.343703 
L 106.832909 74.357907 
L 108.276 74.375774 
L 109.719091 74.398247 
L 111.162182 74.426509 
L 112.605273 74.462043 
L 114.048364 74.506707 
L 115.491455 74.562825 
L 116.934545 74.633298 
L 118.377636 74.721743 
L 119.820727 74.832655 
L 121.263818 74.971602 
L 122.706909 75.145455 
L 124.15 75.36264 
L 125.593091 75.63343 
L 127.036182 75.970234 
L 128.479273 76.387878 
L 129.922364 76.903824 
L 131.365455 77.538263 
L 132.808545 78.313976 
L 134.251636 79.25584 
L 135.694727 80.389826 
L 137.137818 81.741319 
L 138.580909 83.332671 
L 140.024 85.179974 
L 141.467091 87.289305 
L 142.910182 89.652929 
L 144.353273 92.246299 
L 145.796364 95.026805 
L 147.239455 97.935126 
L 148.682545 100.899493 
L 150.125636 103.842424 
L 151.568727 106.688642 
L 153.011818 109.372536 
L 154.454909 111.843643 
L 155.898 114.069315 
L 157.341091 116.034556 
L 158.784182 117.739682 
L 160.227273 119.196776 
L 161.670364 120.425829 
L 163.113455 121.45123 
L 164.556545 122.298959 
L 165.999636 122.994572 
L 167.442727 123.561914 
L 168.885818 124.022417 
L 170.328909 124.39482 
L 171.772 124.695182 
L 173.215091 124.937048 
L 174.658182 125.131721 
L 176.101273 125.288552 
L 177.544364 125.415245 
L 178.987455 125.518132 
L 180.430545 125.602428 
L 181.873636 125.672454 
L 183.316727 125.73183 
L 184.759818 125.78365 
L 186.202909 125.830626 
L 187.646 125.875225 
L 189.089091 125.919795 
L 190.532182 125.966682 
L 191.975273 126.018349 
L 193.418364 126.077502 
L 194.861455 126.14722 
L 196.304545 126.231111 
" style="fill:none;opacity:0.9;stroke:#b1400d;stroke-linecap:round;stroke-width:1.5;"/>
   </g>
   <g id="line2d_10">
    <path clip-path="url(#pb1c6524942)" d="M 51.995455 74.288837 
L 53.438545 74.288838 
L 54.881636 74.28884 
L 56.324727 74.288842 
L 57.767818 74.288844 
L 59.210909 74.288848 
L 60.654 74.288852 
L 62.097091 74.288857 
L 63.540182 74.288863 
L 64.983273 74.288871 
L 66.426364 74.288881 
L 67.869455 74.288894 
L 69.312545 74.28891 
L 70.755636 74.28893 
L 72.198727 74.288956 
L 73.641818 74.288988 
L 75.084909 74.289028 
L 76.528 74.289079 
L 77.971091 74.289143 
L 79.414182 74.289223 
L 80.857273 74.289325 
L 82.300364 74.289452 
L 83.743455 74.289613 
L 85.186545 74.289815 
L 86.629636 74.290069 
L 88.072727 74.29039 
L 89.515818 74.290793 
L 90.958909 74.291301 
L 92.402 74.29194 
L 93.845091 74.292745 
L 95.288182 74.293758 
L 96.731273 74.295033 
L 98.174364 74.296639 
L 99.617455 74.29866 
L 101.060545 74.301204 
L 102.503636 74.304406 
L 103.946727 74.308437 
L 105.389818 74.313511 
L 106.832909 74.319898 
L 108.276 74.327935 
L 109.719091 74.33805 
L 111.162182 74.350779 
L 112.605273 74.366794 
L 114.048364 74.386942 
L 115.491455 74.412284 
L 116.934545 74.444153 
L 118.377636 74.484217 
L 119.820727 74.534566 
L 121.263818 74.597812 
L 122.706909 74.677213 
L 124.15 74.776823 
L 125.593091 74.901676 
L 127.036182 75.05799 
L 128.479273 75.253421 
L 129.922364 75.497327 
L 131.365455 75.801064 
L 132.808545 76.178278 
L 134.251636 76.645158 
L 135.694727 77.220597 
L 137.137818 77.926181 
L 138.580909 78.785882 
L 140.024 79.825315 
L 141.467091 81.0704 
L 142.910182 82.545287 
L 144.353273 84.269486 
L 145.796364 86.25432 
L 147.239455 88.499062 
L 148.682545 90.98744 
L 150.125636 93.685432 
L 151.568727 96.541305 
L 153.011818 99.488493 
L 154.454909 102.451276 
L 155.898 105.352328 
L 157.341091 108.120608 
L 158.784182 110.697936 
L 160.227273 113.043049 
L 161.670364 115.132735 
L 163.113455 116.960419 
L 164.556545 118.533062 
L 165.999636 119.867357 
L 167.442727 120.985985 
L 168.885818 121.91445 
L 170.328909 122.67869 
L 171.772 123.303453 
L 173.215091 123.811335 
L 174.658182 124.222323 
L 176.101273 124.553677 
L 177.544364 124.82003 
L 178.987455 125.033623 
L 180.430545 125.204576 
L 181.873636 125.341193 
L 183.316727 125.450235 
L 184.759818 125.537182 
L 186.202909 125.606458 
L 187.646 125.661619 
L 189.089091 125.70552 
L 190.532182 125.740445 
L 191.975273 125.768221 
L 193.418364 125.790306 
L 194.861455 125.807861 
L 196.304545 125.821815 
" style="fill:none;opacity:0.7;stroke:#000000;stroke-linecap:round;stroke-width:1.5;"/>
   </g>
   <g id="line2d_11">
    <path clip-path="url(#pb1c6524942)" d="M 51.995455 32.281818 
L 53.438545 32.703724 
L 54.881636 33.082623 
L 56.324727 33.421909 
L 57.767818 33.725158 
L 59.210909 33.996085 
L 60.654 34.238492 
L 62.097091 34.456193 
L 63.540182 34.652934 
L 64.983273 34.832338 
L 66.426364 34.997867 
L 67.869455 35.152824 
L 69.312545 35.300376 
L 70.755636 35.443595 
L 72.198727 35.585493 
L 73.641818 35.729043 
L 75.084909 35.877183 
L 76.528 36.032804 
L 77.971091 36.19873 
L 79.414182 36.377704 
L 80.857273 36.57238 
L 82.300364 36.785339 
L 83.743455 37.019131 
L 85.186545 37.27635 
L 86.629636 37.559719 
L 88.072727 37.872193 
L 89.515818 38.217033 
L 90.958909 38.597864 
L 92.402 39.018693 
L 93.845091 39.483908 
L 95.288182 39.998231 
L 96.731273 40.566651 
L 98.174364 41.194302 
L 99.617455 41.886296 
L 101.060545 42.647492 
L 102.503636 43.482218 
L 103.946727 44.393946 
L 105.389818 45.384921 
L 106.832909 46.45573 
L 108.276 47.60476 
L 109.719091 48.827507 
L 111.162182 50.115639 
L 112.605273 51.455726 
L 114.048364 52.827575 
L 115.491455 54.202166 
L 116.934545 55.539406 
L 118.377636 56.786372 
L 119.820727 57.877596 
L 121.263818 58.739935 
L 122.706909 59.30458 
L 124.15 59.525404 
L 125.593091 59.396247 
L 127.036182 58.956461 
L 128.479273 58.28116 
L 129.922364 57.463587 
L 131.365455 56.599565 
L 132.808545 55.778361 
L 134.251636 55.078996 
L 135.694727 54.569369 
L 137.137818 54.306118 
L 138.580909 54.334095 
L 140.024 54.684993 
L 141.467091 55.375245 
L 142.910182 56.403635 
L 144.353273 57.74946 
L 145.796364 59.372197 
L 147.239455 61.213517 
L 148.682545 63.201993 
L 150.125636 65.260027 
L 151.568727 67.311808 
L 153.011818 69.290681 
L 154.454909 71.144511 
L 155.898 72.838257 
L 157.341091 74.353786 
L 158.784182 75.687579 
L 160.227273 76.847261 
L 161.670364 77.847841 
L 163.113455 78.70829 
L 164.556545 79.44882 
L 165.999636 80.088941 
L 167.442727 80.646255 
L 168.885818 81.13584 
L 170.328909 81.57005 
L 171.772 81.958589 
L 173.215091 82.308738 
L 174.658182 82.625624 
L 176.101273 82.912487 
L 177.544364 83.1709 
L 178.987455 83.400982 
L 180.430545 83.601628 
L 181.873636 83.770834 
L 183.316727 83.906102 
L 184.759818 84.004906 
L 186.202909 84.065091 
L 187.646 84.085112 
L 189.089091 84.064077 
L 190.532182 84.001629 
L 191.975273 83.897797 
L 193.418364 83.752933 
L 194.861455 83.567827 
L 196.304545 83.34404 
" style="fill:none;opacity:0.45;stroke:#b1400d;stroke-dasharray:2.775,1.2;stroke-dashoffset:0;stroke-width:0.75;"/>
   </g>
   <g id="line2d_12">
    <path clip-path="url(#pb1c6524942)" d="M 51.995455 115.972415 
L 53.438545 115.616874 
L 54.881636 115.290754 
L 56.324727 114.993434 
L 57.767818 114.723549 
L 59.210909 114.479144 
L 60.654 114.25782 
L 62.097091 114.056881 
L 63.540182 113.873469 
L 64.983273 113.704668 
L 66.426364 113.547579 
L 67.869455 113.399349 
L 69.312545 113.257167 
L 70.755636 113.118247 
L 72.198727 112.979806 
L 73.641818 112.839055 
L 75.084909 112.693204 
L 76.528 112.539486 
L 77.971091 112.375176 
L 79.414182 112.197617 
L 80.857273 112.004232 
L 82.300364 111.792509 
L 83.743455 111.559962 
L 85.186545 111.304064 
L 86.629636 111.022162 
L 88.072727 110.71138 
L 89.515818 110.368546 
L 90.958909 109.990144 
L 92.402 109.572293 
L 93.845091 109.110766 
L 95.288182 108.601037 
L 96.731273 108.03836 
L 98.174364 107.417906 
L 99.617455 106.734948 
L 101.060545 105.985106 
L 102.503636 105.164654 
L 103.946727 104.270879 
L 105.389818 103.302485 
L 106.832909 102.260084 
L 108.276 101.146788 
L 109.719091 99.968986 
L 111.162182 98.737379 
L 112.605273 97.468361 
L 114.048364 96.18584 
L 115.491455 94.923484 
L 116.934545 93.72719 
L 118.377636 92.657114 
L 119.820727 91.787714 
L 121.263818 91.203269 
L 122.706909 90.986329 
L 124.15 91.199876 
L 125.593091 91.870614 
L 127.036182 92.984007 
L 128.479273 94.494596 
L 129.922364 96.344062 
L 131.365455 98.476962 
L 132.808545 100.849591 
L 134.251636 103.432685 
L 135.694727 106.210283 
L 137.137818 109.17652 
L 138.580909 112.331247 
L 140.024 115.674956 
L 141.467091 119.203366 
L 142.910182 122.902224 
L 144.353273 126.743138 
L 145.796364 130.681414 
L 147.239455 134.656735 
L 148.682545 138.596994 
L 150.125636 142.424821 
L 151.568727 146.065476 
L 153.011818 149.45439 
L 154.454909 152.542775 
L 155.898 155.300374 
L 157.341091 157.715325 
L 158.784182 159.791784 
L 160.227273 161.546291 
L 161.670364 163.003818 
L 163.113455 164.19417 
L 164.556545 165.149098 
L 165.999636 165.900204 
L 167.442727 166.477574 
L 168.885818 166.908993 
L 170.328909 167.219591 
L 171.772 167.431775 
L 173.215091 167.565359 
L 174.658182 167.637817 
L 176.101273 167.664617 
L 177.544364 167.659589 
L 178.987455 167.635282 
L 180.430545 167.603227 
L 181.873636 167.574073 
L 183.316727 167.557559 
L 184.759818 167.562394 
L 186.202909 167.596161 
L 187.646 167.665338 
L 189.089091 167.775513 
L 190.532182 167.931735 
L 191.975273 168.138901 
L 193.418364 168.40207 
L 194.861455 168.726613 
L 196.304545 169.118182 
" style="fill:none;opacity:0.45;stroke:#b1400d;stroke-dasharray:2.775,1.2;stroke-dashoffset:0;stroke-width:0.75;"/>
   </g>
   <g id="patch_3">
    <path d="M 44.78 175.96 
L 44.78 25.44 
" style="fill:none;stroke:#262626;stroke-linecap:square;stroke-linejoin:miter;stroke-width:0.8;"/>
   </g>
   <g id="patch_4">
    <path d="M 44.78 175.96 
L 203.52 175.96 
" style="fill:none;stroke:#262626;stroke-linecap:square;stroke-linejoin:miter;stroke-width:0.8;"/>
   </g>
   <g id="text_11">
    <!-- Epik-macro SM10 -->
    <defs>
     <path d="M 7.90625 0 
L 7.90625 71.578125 
L 59.671875 71.578125 
L 59.671875 63.140625 
L 17.390625 63.140625 
L 17.390625 41.21875 
L 56.984375 41.21875 
L 56.984375 32.8125 
L 17.390625 32.8125 
L 17.390625 8.453125 
L 61.328125 8.453125 
L 61.328125 0 
z
" id="ArialMT-45"/>
     <path d="M 6.640625 61.46875 
L 6.640625 71.578125 
L 15.4375 71.578125 
L 15.4375 61.46875 
z
M 6.640625 0 
L 6.640625 51.859375 
L 15.4375 51.859375 
L 15.4375 0 
z
" id="ArialMT-69"/>
     <path d="M 6.640625 0 
L 6.640625 71.578125 
L 15.4375 71.578125 
L 15.4375 30.765625 
L 36.234375 51.859375 
L 47.609375 51.859375 
L 27.78125 32.625 
L 49.609375 0 
L 38.765625 0 
L 21.625 26.515625 
L 15.4375 20.5625 
L 15.4375 0 
z
" id="ArialMT-6b"/>
     <path d="M 3.171875 21.484375 
L 3.171875 30.328125 
L 30.171875 30.328125 
L 30.171875 21.484375 
z
" id="ArialMT-2d"/>
     <path d="M 6.59375 0 
L 6.59375 51.859375 
L 14.453125 51.859375 
L 14.453125 44.578125 
Q 16.890625 48.390625 20.9375 50.703125 
Q 25 53.03125 30.171875 53.03125 
Q 35.9375 53.03125 39.625 50.640625 
Q 43.3125 48.25 44.828125 43.953125 
Q 50.984375 53.03125 60.84375 53.03125 
Q 68.5625 53.03125 72.703125 48.75 
Q 76.859375 44.484375 76.859375 35.59375 
L 76.859375 0 
L 68.109375 0 
L 68.109375 32.671875 
Q 68.109375 37.9375 67.25 40.25 
Q 66.40625 42.578125 64.15625 43.984375 
Q 61.921875 45.40625 58.890625 45.40625 
Q 53.421875 45.40625 49.796875 41.765625 
Q 46.1875 38.140625 46.1875 30.125 
L 46.1875 0 
L 37.40625 0 
L 37.40625 33.6875 
Q 37.40625 39.546875 35.25 42.46875 
Q 33.109375 45.40625 28.21875 45.40625 
Q 24.515625 45.40625 21.359375 43.453125 
Q 18.21875 41.5 16.796875 37.734375 
Q 15.375 33.984375 15.375 26.90625 
L 15.375 0 
z
" id="ArialMT-6d"/>
     <path d="M 40.4375 6.390625 
Q 35.546875 2.25 31.03125 0.53125 
Q 26.515625 -1.171875 21.34375 -1.171875 
Q 12.796875 -1.171875 8.203125 3 
Q 3.609375 7.171875 3.609375 13.671875 
Q 3.609375 17.484375 5.34375 20.625 
Q 7.078125 23.78125 9.890625 25.6875 
Q 12.703125 27.59375 16.21875 28.5625 
Q 18.796875 29.25 24.03125 29.890625 
Q 34.671875 31.15625 39.703125 32.90625 
Q 39.75 34.71875 39.75 35.203125 
Q 39.75 40.578125 37.25 42.78125 
Q 33.890625 45.75 27.25 45.75 
Q 21.046875 45.75 18.09375 43.578125 
Q 15.140625 41.40625 13.71875 35.890625 
L 5.125 37.0625 
Q 6.296875 42.578125 8.984375 45.96875 
Q 11.671875 49.359375 16.75 51.1875 
Q 21.828125 53.03125 28.515625 53.03125 
Q 35.15625 53.03125 39.296875 51.46875 
Q 43.453125 49.90625 45.40625 47.53125 
Q 47.359375 45.171875 48.140625 41.546875 
Q 48.578125 39.3125 48.578125 33.453125 
L 48.578125 21.734375 
Q 48.578125 9.46875 49.140625 6.21875 
Q 49.703125 2.984375 51.375 0 
L 42.1875 0 
Q 40.828125 2.734375 40.4375 6.390625 
z
M 39.703125 26.03125 
Q 34.90625 24.078125 25.34375 22.703125 
Q 19.921875 21.921875 17.671875 20.9375 
Q 15.4375 19.96875 14.203125 18.09375 
Q 12.984375 16.21875 12.984375 13.921875 
Q 12.984375 10.40625 15.640625 8.0625 
Q 18.3125 5.71875 23.4375 5.71875 
Q 28.515625 5.71875 32.46875 7.9375 
Q 36.421875 10.15625 38.28125 14.015625 
Q 39.703125 17 39.703125 22.796875 
z
" id="ArialMT-61"/>
     <path d="M 40.4375 19 
L 49.078125 17.875 
Q 47.65625 8.9375 41.8125 3.875 
Q 35.984375 -1.171875 27.484375 -1.171875 
Q 16.84375 -1.171875 10.375 5.78125 
Q 3.90625 12.75 3.90625 25.734375 
Q 3.90625 34.125 6.6875 40.421875 
Q 9.46875 46.734375 15.15625 49.875 
Q 20.84375 53.03125 27.546875 53.03125 
Q 35.984375 53.03125 41.359375 48.75 
Q 46.734375 44.484375 48.25 36.625 
L 39.703125 35.296875 
Q 38.484375 40.53125 35.375 43.15625 
Q 32.28125 45.796875 27.875 45.796875 
Q 21.234375 45.796875 17.078125 41.03125 
Q 12.9375 36.28125 12.9375 25.984375 
Q 12.9375 15.53125 16.9375 10.796875 
Q 20.953125 6.0625 27.390625 6.0625 
Q 32.5625 6.0625 36.03125 9.234375 
Q 39.5 12.40625 40.4375 19 
z
" id="ArialMT-63"/>
     <path d="M 6.5 0 
L 6.5 51.859375 
L 14.40625 51.859375 
L 14.40625 44 
Q 17.4375 49.515625 20 51.265625 
Q 22.5625 53.03125 25.640625 53.03125 
Q 30.078125 53.03125 34.671875 50.203125 
L 31.640625 42.046875 
Q 28.421875 43.953125 25.203125 43.953125 
Q 22.3125 43.953125 20.015625 42.21875 
Q 17.71875 40.484375 16.75 37.40625 
Q 15.28125 32.71875 15.28125 27.15625 
L 15.28125 0 
z
" id="ArialMT-72"/>
     <path d="M 3.328125 25.921875 
Q 3.328125 40.328125 11.328125 47.265625 
Q 18.015625 53.03125 27.640625 53.03125 
Q 38.328125 53.03125 45.109375 46.015625 
Q 51.90625 39.015625 51.90625 26.65625 
Q 51.90625 16.65625 48.90625 10.90625 
Q 45.90625 5.171875 40.15625 2 
Q 34.421875 -1.171875 27.640625 -1.171875 
Q 16.75 -1.171875 10.03125 5.8125 
Q 3.328125 12.796875 3.328125 25.921875 
z
M 12.359375 25.921875 
Q 12.359375 15.96875 16.703125 11.015625 
Q 21.046875 6.0625 27.640625 6.0625 
Q 34.1875 6.0625 38.53125 11.03125 
Q 42.875 16.015625 42.875 26.21875 
Q 42.875 35.84375 38.5 40.796875 
Q 34.125 45.75 27.640625 45.75 
Q 21.046875 45.75 16.703125 40.8125 
Q 12.359375 35.890625 12.359375 25.921875 
z
" id="ArialMT-6f"/>
     <path id="ArialMT-20"/>
     <path d="M 4.5 23 
L 13.421875 23.78125 
Q 14.0625 18.40625 16.375 14.96875 
Q 18.703125 11.53125 23.578125 9.40625 
Q 28.46875 7.28125 34.578125 7.28125 
Q 39.984375 7.28125 44.140625 8.890625 
Q 48.296875 10.5 50.3125 13.296875 
Q 52.34375 16.109375 52.34375 19.4375 
Q 52.34375 22.796875 50.390625 25.3125 
Q 48.4375 27.828125 43.953125 29.546875 
Q 41.0625 30.671875 31.203125 33.03125 
Q 21.34375 35.40625 17.390625 37.5 
Q 12.25 40.1875 9.734375 44.15625 
Q 7.234375 48.140625 7.234375 53.078125 
Q 7.234375 58.5 10.296875 63.203125 
Q 13.375 67.921875 19.28125 70.359375 
Q 25.203125 72.796875 32.421875 72.796875 
Q 40.375 72.796875 46.453125 70.234375 
Q 52.546875 67.671875 55.8125 62.6875 
Q 59.078125 57.71875 59.328125 51.421875 
L 50.25 50.734375 
Q 49.515625 57.515625 45.28125 60.984375 
Q 41.0625 64.453125 32.8125 64.453125 
Q 24.21875 64.453125 20.28125 61.296875 
Q 16.359375 58.15625 16.359375 53.71875 
Q 16.359375 49.859375 19.140625 47.359375 
Q 21.875 44.875 33.421875 42.265625 
Q 44.96875 39.65625 49.265625 37.703125 
Q 55.515625 34.8125 58.484375 30.390625 
Q 61.46875 25.984375 61.46875 20.21875 
Q 61.46875 14.5 58.203125 9.4375 
Q 54.9375 4.390625 48.796875 1.578125 
Q 42.671875 -1.21875 35.015625 -1.21875 
Q 25.296875 -1.21875 18.71875 1.609375 
Q 12.15625 4.4375 8.421875 10.125 
Q 4.6875 15.828125 4.5 23 
z
" id="ArialMT-53"/>
     <path d="M 7.421875 0 
L 7.421875 71.578125 
L 21.6875 71.578125 
L 38.625 20.90625 
Q 40.96875 13.8125 42.046875 10.296875 
Q 43.265625 14.203125 45.84375 21.78125 
L 62.984375 71.578125 
L 75.734375 71.578125 
L 75.734375 0 
L 66.609375 0 
L 66.609375 59.90625 
L 45.796875 0 
L 37.25 0 
L 16.546875 60.9375 
L 16.546875 0 
z
" id="ArialMT-4d"/>
    </defs>
    <g style="fill:#262626;" transform="translate(76.471563 19.44)scale(0.12 -0.12)">
     <use xlink:href="#ArialMT-45"/>
     <use x="66.699219" xlink:href="#ArialMT-70"/>
     <use x="122.314453" xlink:href="#ArialMT-69"/>
     <use x="144.53125" xlink:href="#ArialMT-6b"/>
     <use x="194.53125" xlink:href="#ArialMT-2d"/>
     <use x="227.832031" xlink:href="#ArialMT-6d"/>
     <use x="311.132812" xlink:href="#ArialMT-61"/>
     <use x="366.748047" xlink:href="#ArialMT-63"/>
     <use x="416.748047" xlink:href="#ArialMT-72"/>
     <use x="450.048828" xlink:href="#ArialMT-6f"/>
     <use x="505.664062" xlink:href="#ArialMT-20"/>
     <use x="533.447266" xlink:href="#ArialMT-53"/>
     <use x="600.146484" xlink:href="#ArialMT-4d"/>
     <use x="683.447266" xlink:href="#ArialMT-31"/>
     <use x="739.0625" xlink:href="#ArialMT-30"/>
    </g>
   </g>
  </g>
 </g>
 <defs>
  <clipPath id="pb1c6524942">
   <rect height="150.52" width="158.74" x="44.78" y="25.44"/>
  </clipPath>
 </defs>
</svg>
