<?xml version="1.0" encoding="utf-8" standalone="no"?>
<!DOCTYPE svg PUBLIC "-//W3C//DTD SVG 1.1//EN"
  "http://www.w3.org/Graphics/SVG/1.1/DTD/svg11.dtd">
<!-- Created with matplotlib (http://matplotlib.org/) -->
<svg height="144pt" version="1.1" viewBox="0 0 144 144" width="144pt" xmlns="http://www.w3.org/2000/svg" xmlns:xlink="http://www.w3.org/1999/xlink">
 <defs>
  <style type="text/css">
*{stroke-linecap:butt;stroke-linejoin:round;}
  </style>
 </defs>
 <g id="figure_1">
  <g id="patch_1">
   <path d="M 0 144 
L 144 144 
L 144 0 
L 0 0 
z
" style="fill:#ffffff;"/>
  </g>
  <g id="axes_1">
   <g id="patch_2">
    <path d="M 47.6 101.92 
L 130.44 101.92 
L 130.44 13.56 
L 47.6 13.56 
z
" style="fill:#ffffff;"/>
   </g>
   <g id="matplotlib.axis_1">
    <g id="xtick_1">
     <g id="line2d_1">
      <defs>
       <path d="M 0 0 
L 0 3.5 
" id="m670ef441cf" style="stroke:#262626;stroke-width:0.8;"/>
      </defs>
      <g>
       <use style="fill:#262626;stroke:#262626;stroke-width:0.8;" x="51.365455" xlink:href="#m670ef441cf" y="101.92"/>
      </g>
     </g>
     <g id="text_1">
      <!-- 2 -->
      <defs>
       <path d="M 50.34375 8.453125 
L 50.34375 0 
L 3.03125 0 
Q 2.9375 3.171875 4.046875 6.109375 
Q 5.859375 10.9375 9.828125 15.625 
Q 13.8125 20.3125 21.34375 26.46875 
Q 33.015625 36.03125 37.109375 41.625 
Q 41.21875 47.21875 41.21875 52.203125 
Q 41.21875 57.421875 37.46875 61 
Q 33.734375 64.59375 27.734375 64.59375 
Q 21.390625 64.59375 17.578125 60.78125 
Q 13.765625 56.984375 13.71875 50.25 
L 4.6875 51.171875 
Q 5.609375 61.28125 11.65625 66.578125 
Q 17.71875 71.875 27.9375 71.875 
Q 38.234375 71.875 44.234375 66.15625 
Q 50.25 60.453125 50.25 52 
Q 50.25 47.703125 48.484375 43.546875 
Q 46.734375 39.40625 42.65625 34.8125 
Q 38.578125 30.21875 29.109375 22.21875 
Q 21.1875 15.578125 18.9375 13.203125 
Q 16.703125 10.84375 15.234375 8.453125 
z
" id="ArialMT-32"/>
      </defs>
      <g style="fill:#262626;" transform="translate(48.306939 116.793594)scale(0.11 -0.11)">
       <use xlink:href="#ArialMT-32"/>
      </g>
     </g>
    </g>
    <g id="xtick_2">
     <g id="line2d_2">
      <g>
       <use style="fill:#262626;stroke:#262626;stroke-width:0.8;" x="66.427273" xlink:href="#m670ef441cf" y="101.92"/>
      </g>
     </g>
     <g id="text_2">
      <!-- 4 -->
      <defs>
       <path d="M 32.328125 0 
L 32.328125 17.140625 
L 1.265625 17.140625 
L 1.265625 25.203125 
L 33.9375 71.578125 
L 41.109375 71.578125 
L 41.109375 25.203125 
L 50.78125 25.203125 
L 50.78125 17.140625 
L 41.109375 17.140625 
L 41.109375 0 
z
M 32.328125 25.203125 
L 32.328125 57.46875 
L 9.90625 25.203125 
z
" id="ArialMT-34"/>
      </defs>
      <g style="fill:#262626;" transform="translate(63.368757 116.793594)scale(0.11 -0.11)">
       <use xlink:href="#ArialMT-34"/>
      </g>
     </g>
    </g>
    <g id="xtick_3">
     <g id="line2d_3">
      <g>
       <use style="fill:#262626;stroke:#262626;stroke-width:0.8;" x="81.489091" xlink:href="#m670ef441cf" y="101.92"/>
      </g>
     </g>
     <g id="text_3">
      <!-- 6 -->
      <defs>
       <path d="M 49.75 54.046875 
L 41.015625 53.375 
Q 39.84375 58.546875 37.703125 60.890625 
Q 34.125 64.65625 28.90625 64.65625 
Q 24.703125 64.65625 21.53125 62.3125 
Q 17.390625 59.28125 14.984375 53.46875 
Q 12.59375 47.65625 12.5 36.921875 
Q 15.671875 41.75 20.265625 44.09375 
Q 24.859375 46.4375 29.890625 46.4375 
Q 38.671875 46.4375 44.84375 39.96875 
Q 51.03125 33.5 51.03125 23.25 
Q 51.03125 16.5 48.125 10.71875 
Q 45.21875 4.9375 40.140625 1.859375 
Q 35.0625 -1.21875 28.609375 -1.21875 
Q 17.625 -1.21875 10.6875 6.859375 
Q 3.765625 14.9375 3.765625 33.5 
Q 3.765625 54.25 11.421875 63.671875 
Q 18.109375 71.875 29.4375 71.875 
Q 37.890625 71.875 43.28125 67.140625 
Q 48.6875 62.40625 49.75 54.046875 
z
M 13.875 23.1875 
Q 13.875 18.65625 15.796875 14.5 
Q 17.71875 10.359375 21.1875 8.171875 
Q 24.65625 6 28.46875 6 
Q 34.03125 6 38.03125 10.484375 
Q 42.046875 14.984375 42.046875 22.703125 
Q 42.046875 30.125 38.078125 34.390625 
Q 34.125 38.671875 28.125 38.671875 
Q 22.171875 38.671875 18.015625 34.390625 
Q 13.875 30.125 13.875 23.1875 
z
" id="ArialMT-36"/>
      </defs>
      <g style="fill:#262626;" transform="translate(78.430575 116.793594)scale(0.11 -0.11)">
       <use xlink:href="#ArialMT-36"/>
      </g>
     </g>
    </g>
    <g id="xtick_4">
     <g id="line2d_4">
      <g>
       <use style="fill:#262626;stroke:#262626;stroke-width:0.8;" x="96.550909" xlink:href="#m670ef441cf" y="101.92"/>
      </g>
     </g>
     <g id="text_4">
      <!-- 8 -->
      <defs>
       <path d="M 17.671875 38.8125 
Q 12.203125 40.828125 9.5625 44.53125 
Q 6.9375 48.25 6.9375 53.421875 
Q 6.9375 61.234375 12.546875 66.546875 
Q 18.171875 71.875 27.484375 71.875 
Q 36.859375 71.875 42.578125 66.421875 
Q 48.296875 60.984375 48.296875 53.171875 
Q 48.296875 48.1875 45.671875 44.5 
Q 43.0625 40.828125 37.75 38.8125 
Q 44.34375 36.671875 47.78125 31.875 
Q 51.21875 27.09375 51.21875 20.453125 
Q 51.21875 11.28125 44.71875 5.03125 
Q 38.234375 -1.21875 27.640625 -1.21875 
Q 17.046875 -1.21875 10.546875 5.046875 
Q 4.046875 11.328125 4.046875 20.703125 
Q 4.046875 27.6875 7.59375 32.390625 
Q 11.140625 37.109375 17.671875 38.8125 
z
M 15.921875 53.71875 
Q 15.921875 48.640625 19.1875 45.40625 
Q 22.46875 42.1875 27.6875 42.1875 
Q 32.765625 42.1875 36.015625 45.375 
Q 39.265625 48.578125 39.265625 53.21875 
Q 39.265625 58.0625 35.90625 61.359375 
Q 32.5625 64.65625 27.59375 64.65625 
Q 22.5625 64.65625 19.234375 61.421875 
Q 15.921875 58.203125 15.921875 53.71875 
z
M 13.09375 20.65625 
Q 13.09375 16.890625 14.875 13.375 
Q 16.65625 9.859375 20.171875 7.921875 
Q 23.6875 6 27.734375 6 
Q 34.03125 6 38.125 10.046875 
Q 42.234375 14.109375 42.234375 20.359375 
Q 42.234375 26.703125 38.015625 30.859375 
Q 33.796875 35.015625 27.4375 35.015625 
Q 21.234375 35.015625 17.15625 30.90625 
Q 13.09375 26.8125 13.09375 20.65625 
z
" id="ArialMT-38"/>
      </defs>
      <g style="fill:#262626;" transform="translate(93.492393 116.793594)scale(0.11 -0.11)">
       <use xlink:href="#ArialMT-38"/>
      </g>
     </g>
    </g>
    <g id="xtick_5">
     <g id="line2d_5">
      <g>
       <use style="fill:#262626;stroke:#262626;stroke-width:0.8;" x="111.612727" xlink:href="#m670ef441cf" y="101.92"/>
      </g>
     </g>
     <g id="text_5">
      <!-- 10 -->
      <defs>
       <path d="M 37.25 0 
L 28.46875 0 
L 28.46875 56 
Q 25.296875 52.984375 20.140625 49.953125 
Q 14.984375 46.921875 10.890625 45.40625 
L 10.890625 53.90625 
Q 18.265625 57.375 23.78125 62.296875 
Q 29.296875 67.234375 31.59375 71.875 
L 37.25 71.875 
z
" id="ArialMT-31"/>
       <path d="M 4.15625 35.296875 
Q 4.15625 48 6.765625 55.734375 
Q 9.375 63.484375 14.515625 67.671875 
Q 19.671875 71.875 27.484375 71.875 
Q 33.25 71.875 37.59375 69.546875 
Q 41.9375 67.234375 44.765625 62.859375 
Q 47.609375 58.5 49.21875 52.21875 
Q 50.828125 45.953125 50.828125 35.296875 
Q 50.828125 22.703125 48.234375 14.96875 
Q 45.65625 7.234375 40.5 3 
Q 35.359375 -1.21875 27.484375 -1.21875 
Q 17.140625 -1.21875 11.234375 6.203125 
Q 4.15625 15.140625 4.15625 35.296875 
z
M 13.1875 35.296875 
Q 13.1875 17.671875 17.3125 11.828125 
Q 21.4375 6 27.484375 6 
Q 33.546875 6 37.671875 11.859375 
Q 41.796875 17.71875 41.796875 35.296875 
Q 41.796875 52.984375 37.671875 58.78125 
Q 33.546875 64.59375 27.390625 64.59375 
Q 21.34375 64.59375 17.71875 59.46875 
Q 13.1875 52.9375 13.1875 35.296875 
z
" id="ArialMT-30"/>
      </defs>
      <g style="fill:#262626;" transform="translate(105.495696 116.793594)scale(0.11 -0.11)">
       <use xlink:href="#ArialMT-31"/>
       <use x="55.615234" xlink:href="#ArialMT-30"/>
      </g>
     </g>
    </g>
    <g id="xtick_6">
     <g id="line2d_6">
      <g>
       <use style="fill:#262626;stroke:#262626;stroke-width:0.8;" x="126.674545" xlink:href="#m670ef441cf" y="101.92"/>
      </g>
     </g>
     <g id="text_6">
      <!-- 12 -->
      <g style="fill:#262626;" transform="translate(120.557514 116.793594)scale(0.11 -0.11)">
       <use xlink:href="#ArialMT-31"/>
       <use x="55.615234" xlink:href="#ArialMT-32"/>
      </g>
     </g>
    </g>
    <g id="text_7">
     <!-- pH -->
     <defs>
      <path d="M 6.59375 -19.875 
L 6.59375 51.859375 
L 14.59375 51.859375 
L 14.59375 45.125 
Q 17.4375 49.078125 21 51.046875 
Q 24.5625 53.03125 29.640625 53.03125 
Q 36.28125 53.03125 41.359375 49.609375 
Q 46.4375 46.1875 49.015625 39.953125 
Q 51.609375 33.734375 51.609375 26.3125 
Q 51.609375 18.359375 48.75 11.984375 
Q 45.90625 5.609375 40.453125 2.21875 
Q 35.015625 -1.171875 29 -1.171875 
Q 24.609375 -1.171875 21.109375 0.6875 
Q 17.625 2.546875 15.375 5.375 
L 15.375 -19.875 
z
M 14.546875 25.640625 
Q 14.546875 15.625 18.59375 10.84375 
Q 22.65625 6.0625 28.421875 6.0625 
Q 34.28125 6.0625 38.453125 11.015625 
Q 42.625 15.96875 42.625 26.375 
Q 42.625 36.28125 38.546875 41.203125 
Q 34.46875 46.140625 28.8125 46.140625 
Q 23.1875 46.140625 18.859375 40.890625 
Q 14.546875 35.640625 14.546875 25.640625 
z
" id="ArialMT-70"/>
      <path d="M 8.015625 0 
L 8.015625 71.578125 
L 17.484375 71.578125 
L 17.484375 42.1875 
L 54.6875 42.1875 
L 54.6875 71.578125 
L 64.15625 71.578125 
L 64.15625 0 
L 54.6875 0 
L 54.6875 33.734375 
L 17.484375 33.734375 
L 17.484375 0 
z
" id="ArialMT-48"/>
     </defs>
     <g style="fill:#262626;" transform="translate(81.989453 130.853437)scale(0.11 -0.11)">
      <use xlink:href="#ArialMT-70"/>
      <use x="55.615234" xlink:href="#ArialMT-48"/>
     </g>
    </g>
   </g>
   <g id="matplotlib.axis_2">
    <g id="ytick_1">
     <g id="line2d_7">
      <defs>
       <path d="M 0 0 
L -3.5 0 
" id="mf84aee86dc" style="stroke:#262626;stroke-width:0.8;"/>
      </defs>
      <g>
       <use style="fill:#262626;stroke:#262626;stroke-width:0.8;" x="47.6" xlink:href="#mf84aee86dc" y="83.312739"/>
      </g>
     </g>
     <g id="text_8">
      <!-- 0 -->
      <g style="fill:#262626;" transform="translate(34.482969 87.249536)scale(0.11 -0.11)">
       <use xlink:href="#ArialMT-30"/>
      </g>
     </g>
    </g>
    <g id="ytick_2">
     <g id="line2d_8">
      <g>
       <use style="fill:#262626;stroke:#262626;stroke-width:0.8;" x="47.6" xlink:href="#mf84aee86dc" y="60.921409"/>
      </g>
     </g>
     <g id="text_9">
      <!-- 10 -->
      <g style="fill:#262626;" transform="translate(28.365938 64.858206)scale(0.11 -0.11)">
       <use xlink:href="#ArialMT-31"/>
       <use x="55.615234" xlink:href="#ArialMT-30"/>
      </g>
     </g>
    </g>
    <g id="ytick_3">
     <g id="line2d_9">
      <g>
       <use style="fill:#262626;stroke:#262626;stroke-width:0.8;" x="47.6" xlink:href="#mf84aee86dc" y="38.53008"/>
      </g>
     </g>
     <g id="text_10">
      <!-- 20 -->
      <g style="fill:#262626;" transform="translate(28.365938 42.466877)scale(0.11 -0.11)">
       <use xlink:href="#ArialMT-32"/>
       <use x="55.615234" xlink:href="#ArialMT-30"/>
      </g>
     </g>
    </g>
    <g id="ytick_4">
     <g id="line2d_10">
      <g>
       <use style="fill:#262626;stroke:#262626;stroke-width:0.8;" x="47.6" xlink:href="#mf84aee86dc" y="16.138751"/>
      </g>
     </g>
     <g id="text_11">
      <!-- 30 -->
      <defs>
       <path d="M 4.203125 18.890625 
L 12.984375 20.0625 
Q 14.5 12.59375 18.140625 9.296875 
Q 21.78125 6 27 6 
Q 33.203125 6 37.46875 10.296875 
Q 41.75 14.59375 41.75 20.953125 
Q 41.75 27 37.796875 30.921875 
Q 33.84375 34.859375 27.734375 34.859375 
Q 25.25 34.859375 21.53125 33.890625 
L 22.515625 41.609375 
Q 23.390625 41.5 23.921875 41.5 
Q 29.546875 41.5 34.03125 44.421875 
Q 38.53125 47.359375 38.53125 53.46875 
Q 38.53125 58.296875 35.25 61.46875 
Q 31.984375 64.65625 26.8125 64.65625 
Q 21.6875 64.65625 18.265625 61.421875 
Q 14.84375 58.203125 13.875 51.765625 
L 5.078125 53.328125 
Q 6.6875 62.15625 12.390625 67.015625 
Q 18.109375 71.875 26.609375 71.875 
Q 32.46875 71.875 37.390625 69.359375 
Q 42.328125 66.84375 44.9375 62.5 
Q 47.5625 58.15625 47.5625 53.265625 
Q 47.5625 48.640625 45.0625 44.828125 
Q 42.578125 41.015625 37.703125 38.765625 
Q 44.046875 37.3125 47.5625 32.6875 
Q 51.078125 28.078125 51.078125 21.140625 
Q 51.078125 11.765625 44.234375 5.25 
Q 37.40625 -1.265625 26.953125 -1.265625 
Q 17.53125 -1.265625 11.296875 4.34375 
Q 5.078125 9.96875 4.203125 18.890625 
z
" id="ArialMT-33"/>
      </defs>
      <g style="fill:#262626;" transform="translate(28.365938 20.075547)scale(0.11 -0.11)">
       <use xlink:href="#ArialMT-33"/>
       <use x="55.615234" xlink:href="#ArialMT-30"/>
      </g>
     </g>
    </g>
    <g id="text_12">
     <!-- Free energy ($k_B T$) -->
     <defs>
      <path d="M 8.203125 0 
L 8.203125 71.578125 
L 56.5 71.578125 
L 56.5 63.140625 
L 17.671875 63.140625 
L 17.671875 40.96875 
L 51.265625 40.96875 
L 51.265625 32.515625 
L 17.671875 32.515625 
L 17.671875 0 
z
" id="ArialMT-46"/>
      <path d="M 6.5 0 
L 6.5 51.859375 
L 14.40625 51.859375 
L 14.40625 44 
Q 17.4375 49.515625 20 51.265625 
Q 22.5625 53.03125 25.640625 53.03125 
Q 30.078125 53.03125 34.671875 50.203125 
L 31.640625 42.046875 
Q 28.421875 43.953125 25.203125 43.953125 
Q 22.3125 43.953125 20.015625 42.21875 
Q 17.71875 40.484375 16.75 37.40625 
Q 15.28125 32.71875 15.28125 27.15625 
L 15.28125 0 
z
" id="ArialMT-72"/>
      <path d="M 42.09375 16.703125 
L 51.171875 15.578125 
Q 49.03125 7.625 43.21875 3.21875 
Q 37.40625 -1.171875 28.375 -1.171875 
Q 17 -1.171875 10.328125 5.828125 
Q 3.65625 12.84375 3.65625 25.484375 
Q 3.65625 38.578125 10.390625 45.796875 
Q 17.140625 53.03125 27.875 53.03125 
Q 38.28125 53.03125 44.875 45.953125 
Q 51.46875 38.875 51.46875 26.03125 
Q 51.46875 25.25 51.421875 23.6875 
L 12.75 23.6875 
Q 13.234375 15.140625 17.578125 10.59375 
Q 21.921875 6.0625 28.421875 6.0625 
Q 33.25 6.0625 36.671875 8.59375 
Q 40.09375 11.140625 42.09375 16.703125 
z
M 13.234375 30.90625 
L 42.1875 30.90625 
Q 41.609375 37.453125 38.875 40.71875 
Q 34.671875 45.796875 27.984375 45.796875 
Q 21.921875 45.796875 17.796875 41.75 
Q 13.671875 37.703125 13.234375 30.90625 
z
" id="ArialMT-65"/>
      <path id="ArialMT-20"/>
      <path d="M 6.59375 0 
L 6.59375 51.859375 
L 14.5 51.859375 
L 14.5 44.484375 
Q 20.21875 53.03125 31 53.03125 
Q 35.6875 53.03125 39.625 51.34375 
Q 43.5625 49.65625 45.515625 46.921875 
Q 47.46875 44.1875 48.25 40.4375 
Q 48.734375 37.984375 48.734375 31.890625 
L 48.734375 0 
L 39.9375 0 
L 39.9375 31.546875 
Q 39.9375 36.921875 38.90625 39.578125 
Q 37.890625 42.234375 35.28125 43.8125 
Q 32.671875 45.40625 29.15625 45.40625 
Q 23.53125 45.40625 19.453125 41.84375 
Q 15.375 38.28125 15.375 28.328125 
L 15.375 0 
z
" id="ArialMT-6e"/>
      <path d="M 4.984375 -4.296875 
L 13.53125 -5.5625 
Q 14.0625 -9.515625 16.5 -11.328125 
Q 19.78125 -13.765625 25.4375 -13.765625 
Q 31.546875 -13.765625 34.859375 -11.328125 
Q 38.1875 -8.890625 39.359375 -4.5 
Q 40.046875 -1.8125 39.984375 6.78125 
Q 34.234375 0 25.640625 0 
Q 14.9375 0 9.078125 7.71875 
Q 3.21875 15.4375 3.21875 26.21875 
Q 3.21875 33.640625 5.90625 39.90625 
Q 8.59375 46.1875 13.6875 49.609375 
Q 18.796875 53.03125 25.6875 53.03125 
Q 34.859375 53.03125 40.828125 45.609375 
L 40.828125 51.859375 
L 48.921875 51.859375 
L 48.921875 7.03125 
Q 48.921875 -5.078125 46.453125 -10.125 
Q 44 -15.1875 38.640625 -18.109375 
Q 33.296875 -21.046875 25.484375 -21.046875 
Q 16.21875 -21.046875 10.5 -16.875 
Q 4.78125 -12.703125 4.984375 -4.296875 
z
M 12.25 26.859375 
Q 12.25 16.65625 16.296875 11.96875 
Q 20.359375 7.28125 26.46875 7.28125 
Q 32.515625 7.28125 36.609375 11.9375 
Q 40.71875 16.609375 40.71875 26.5625 
Q 40.71875 36.078125 36.5 40.90625 
Q 32.28125 45.75 26.3125 45.75 
Q 20.453125 45.75 16.34375 40.984375 
Q 12.25 36.234375 12.25 26.859375 
z
" id="ArialMT-67"/>
      <path d="M 6.203125 -19.96875 
L 5.21875 -11.71875 
Q 8.109375 -12.5 10.25 -12.5 
Q 13.1875 -12.5 14.9375 -11.515625 
Q 16.703125 -10.546875 17.828125 -8.796875 
Q 18.65625 -7.46875 20.515625 -2.25 
Q 20.75 -1.515625 21.296875 -0.09375 
L 1.609375 51.859375 
L 11.078125 51.859375 
L 21.875 21.828125 
Q 23.96875 16.109375 25.640625 9.8125 
Q 27.15625 15.875 29.25 21.625 
L 40.328125 51.859375 
L 49.125 51.859375 
L 29.390625 -0.875 
Q 26.21875 -9.421875 24.46875 -12.640625 
Q 22.125 -17 19.09375 -19.015625 
Q 16.0625 -21.046875 11.859375 -21.046875 
Q 9.328125 -21.046875 6.203125 -19.96875 
z
" id="ArialMT-79"/>
      <path d="M 23.390625 -21.046875 
Q 16.109375 -11.859375 11.078125 0.4375 
Q 6.0625 12.75 6.0625 25.921875 
Q 6.0625 37.546875 9.8125 48.1875 
Q 14.203125 60.546875 23.390625 72.796875 
L 29.6875 72.796875 
Q 23.78125 62.640625 21.875 58.296875 
Q 18.890625 51.5625 17.1875 44.234375 
Q 15.09375 35.109375 15.09375 25.875 
Q 15.09375 2.390625 29.6875 -21.046875 
z
" id="ArialMT-28"/>
      <path d="M 18.3125 75.984375 
L 27.296875 75.984375 
L 18.703125 31.6875 
L 49.515625 54.6875 
L 61.1875 54.6875 
L 26.8125 28.515625 
L 51.90625 0 
L 41.015625 0 
L 17.671875 26.703125 
L 12.5 0 
L 3.515625 0 
z
" id="DejaVuSans-Oblique-6b"/>
      <path d="M 16.890625 72.90625 
L 42.09375 72.90625 
Q 52.34375 72.90625 57.421875 69.09375 
Q 62.5 65.28125 62.5 57.625 
Q 62.5 50.59375 58.125 45.484375 
Q 53.765625 40.375 46.6875 39.3125 
Q 52.734375 37.9375 55.765625 34.078125 
Q 58.796875 30.21875 58.796875 23.78125 
Q 58.796875 12.796875 50.65625 6.390625 
Q 42.53125 0 28.421875 0 
L 2.6875 0 
z
M 19.28125 34.8125 
L 14.109375 8.109375 
L 29.984375 8.109375 
Q 38.921875 8.109375 43.75 12.203125 
Q 48.578125 16.3125 48.578125 23.78125 
Q 48.578125 29.546875 45.375 32.171875 
Q 42.1875 34.8125 35.109375 34.8125 
z
M 25.09375 64.796875 
L 20.796875 42.828125 
L 35.5 42.828125 
Q 43.359375 42.828125 47.78125 46.234375 
Q 52.203125 49.65625 52.203125 55.71875 
Q 52.203125 60.453125 49.21875 62.625 
Q 46.234375 64.796875 39.703125 64.796875 
z
" id="DejaVuSans-Oblique-42"/>
      <path d="M 5.90625 72.90625 
L 67.578125 72.90625 
L 66.015625 64.59375 
L 39.984375 64.59375 
L 27.484375 0 
L 17.578125 0 
L 30.078125 64.59375 
L 4.296875 64.59375 
z
" id="DejaVuSans-Oblique-54"/>
      <path d="M 12.359375 -21.046875 
L 6.0625 -21.046875 
Q 20.65625 2.390625 20.65625 25.875 
Q 20.65625 35.0625 18.5625 44.09375 
Q 16.890625 51.421875 13.921875 58.15625 
Q 12.015625 62.546875 6.0625 72.796875 
L 12.359375 72.796875 
Q 21.53125 60.546875 25.921875 48.1875 
Q 29.6875 37.546875 29.6875 25.921875 
Q 29.6875 12.75 24.625 0.4375 
Q 19.578125 -11.859375 12.359375 -21.046875 
z
" id="ArialMT-29"/>
     </defs>
     <g style="fill:#262626;" transform="translate(21.945938 101.96)rotate(-90)scale(0.11 -0.11)">
      <use transform="translate(0 0.015625)" xlink:href="#ArialMT-46"/>
      <use transform="translate(61.083984 0.015625)" xlink:href="#ArialMT-72"/>
      <use transform="translate(94.384766 0.015625)" xlink:href="#ArialMT-65"/>
      <use transform="translate(150 0.015625)" xlink:href="#ArialMT-65"/>
      <use transform="translate(205.615234 0.015625)" xlink:href="#ArialMT-20"/>
      <use transform="translate(233.398438 0.015625)" xlink:href="#ArialMT-65"/>
      <use transform="translate(289.013672 0.015625)" xlink:href="#ArialMT-6e"/>
      <use transform="translate(344.628906 0.015625)" xlink:href="#ArialMT-65"/>
      <use transform="translate(400.244141 0.015625)" xlink:href="#ArialMT-72"/>
      <use transform="translate(433.544922 0.015625)" xlink:href="#ArialMT-67"/>
      <use transform="translate(489.160156 0.015625)" xlink:href="#ArialMT-79"/>
      <use transform="translate(539.160156 0.015625)" xlink:href="#ArialMT-20"/>
      <use transform="translate(566.943359 0.015625)" xlink:href="#ArialMT-28"/>
      <use transform="translate(600.244141 0.015625)" xlink:href="#DejaVuSans-Oblique-6b"/>
      <use transform="translate(658.154297 -16.390625)scale(0.7)" xlink:href="#DejaVuSans-Oblique-42"/>
      <use transform="translate(708.911133 0.015625)" xlink:href="#DejaVuSans-Oblique-54"/>
      <use transform="translate(769.995117 0.015625)" xlink:href="#ArialMT-29"/>
     </g>
    </g>
   </g>
   <g id="patch_3">
    <path d="M 47.6 101.92 
L 47.6 13.56 
" style="fill:none;stroke:#262626;stroke-linecap:square;stroke-linejoin:miter;stroke-width:0.8;"/>
   </g>
   <g id="patch_4">
    <path d="M 47.6 101.92 
L 130.44 101.92 
" style="fill:none;stroke:#262626;stroke-linecap:square;stroke-linejoin:miter;stroke-width:0.8;"/>
   </g>
   <g id="line2d_11">
    <path clip-path="url(#p3148c688da)" d="M 51.365455 46.345695 
L 52.118545 46.861274 
L 52.871636 47.376854 
L 53.624727 47.892433 
L 54.377818 48.408013 
L 55.130909 48.923592 
L 55.884 49.439171 
L 56.637091 49.954751 
L 57.390182 50.47033 
L 58.143273 50.98591 
L 58.896364 51.501489 
L 59.649455 52.017069 
L 60.402545 52.532648 
L 61.155636 53.048227 
L 61.908727 53.563807 
L 62.661818 54.079386 
L 63.414909 54.594966 
L 64.168 55.110545 
L 64.921091 55.626124 
L 65.674182 56.141704 
L 66.427273 56.657283 
L 67.180364 57.172863 
L 67.933455 57.688442 
L 68.686545 58.204021 
L 69.439636 58.719601 
L 70.192727 59.23518 
L 70.945818 59.75076 
L 71.698909 60.266339 
L 72.452 60.781919 
L 73.205091 61.297498 
L 73.958182 61.813077 
L 74.711273 62.328657 
L 75.464364 62.844236 
L 76.217455 63.359816 
L 76.970545 63.875395 
L 77.723636 64.390974 
L 78.476727 64.906554 
L 79.229818 65.422133 
L 79.982909 65.937713 
L 80.736 66.453292 
L 81.489091 66.968872 
L 82.242182 67.484451 
L 82.995273 68.00003 
L 83.748364 68.51561 
L 84.501455 69.031189 
L 85.254545 69.546769 
L 86.007636 70.062348 
L 86.760727 70.577927 
L 87.513818 71.093507 
L 88.266909 71.609086 
L 89.02 72.124666 
L 89.773091 72.640245 
L 90.526182 73.155824 
L 91.279273 73.671404 
L 92.032364 74.186983 
L 92.785455 74.702563 
L 93.538545 75.218142 
L 94.291636 75.733722 
L 95.044727 76.249301 
L 95.797818 76.76488 
L 96.550909 77.28046 
L 97.304 77.796039 
L 98.057091 78.311619 
L 98.810182 78.827198 
L 99.563273 79.342777 
L 100.316364 79.858357 
L 101.069455 80.373936 
L 101.822545 80.889516 
L 102.575636 81.405095 
L 103.328727 81.920675 
L 104.081818 82.436254 
L 104.834909 82.951833 
L 105.588 83.467413 
L 106.341091 83.982992 
L 107.094182 84.498572 
L 107.847273 85.014151 
L 108.600364 85.52973 
L 109.353455 86.04531 
L 110.106545 86.560889 
L 110.859636 87.076469 
L 111.612727 87.592048 
L 112.365818 88.107627 
L 113.118909 88.623207 
L 113.872 89.138786 
L 114.625091 89.654366 
L 115.378182 90.169945 
L 116.131273 90.685525 
L 116.884364 91.201104 
L 117.637455 91.716683 
L 118.390545 92.232263 
L 119.143636 92.747842 
L 119.896727 93.263422 
L 120.649818 93.779001 
L 121.402909 94.29458 
L 122.156 94.81016 
L 122.909091 95.325739 
L 123.662182 95.841319 
L 124.415273 96.356898 
L 125.168364 96.872478 
L 125.921455 97.388057 
L 126.674545 97.903636 
" style="fill:none;stroke:#f4a582;stroke-linecap:round;stroke-width:1.5;"/>
   </g>
   <g id="line2d_12">
    <path clip-path="url(#p3148c688da)" d="M 51.365455 83.518971 
L 52.118545 83.003391 
L 52.871636 82.487812 
L 53.624727 81.972232 
L 54.377818 81.456653 
L 55.130909 80.941074 
L 55.884 80.425494 
L 56.637091 79.909915 
L 57.390182 79.394335 
L 58.143273 78.878756 
L 58.896364 78.363177 
L 59.649455 77.847597 
L 60.402545 77.332018 
L 61.155636 76.816438 
L 61.908727 76.300859 
L 62.661818 75.785279 
L 63.414909 75.2697 
L 64.168 74.754121 
L 64.921091 74.238541 
L 65.674182 73.722962 
L 66.427273 73.207382 
L 67.180364 72.691803 
L 67.933455 72.176224 
L 68.686545 71.660644 
L 69.439636 71.145065 
L 70.192727 70.629485 
L 70.945818 70.113906 
L 71.698909 69.598327 
L 72.452 69.082747 
L 73.205091 68.567168 
L 73.958182 68.051588 
L 74.711273 67.536009 
L 75.464364 67.020429 
L 76.217455 66.50485 
L 76.970545 65.989271 
L 77.723636 65.473691 
L 78.476727 64.958112 
L 79.229818 64.442532 
L 79.982909 63.926953 
L 80.736 63.411374 
L 81.489091 62.895794 
L 82.242182 62.380215 
L 82.995273 61.864635 
L 83.748364 61.349056 
L 84.501455 60.833476 
L 85.254545 60.317897 
L 86.007636 59.802318 
L 86.760727 59.286738 
L 87.513818 58.771159 
L 88.266909 58.255579 
L 89.02 57.74 
L 89.773091 57.224421 
L 90.526182 56.708841 
L 91.279273 56.193262 
L 92.032364 55.677682 
L 92.785455 55.162103 
L 93.538545 54.646524 
L 94.291636 54.130944 
L 95.044727 53.615365 
L 95.797818 53.099785 
L 96.550909 52.584206 
L 97.304 52.068626 
L 98.057091 51.553047 
L 98.810182 51.037468 
L 99.563273 50.521888 
L 100.316364 50.006309 
L 101.069455 49.490729 
L 101.822545 48.97515 
L 102.575636 48.459571 
L 103.328727 47.943991 
L 104.081818 47.428412 
L 104.834909 46.912832 
L 105.588 46.397253 
L 106.341091 45.881673 
L 107.094182 45.366094 
L 107.847273 44.850515 
L 108.600364 44.334935 
L 109.353455 43.819356 
L 110.106545 43.303776 
L 110.859636 42.788197 
L 111.612727 42.272618 
L 112.365818 41.757038 
L 113.118909 41.241459 
L 113.872 40.725879 
L 114.625091 40.2103 
L 115.378182 39.694721 
L 116.131273 39.179141 
L 116.884364 38.663562 
L 117.637455 38.147982 
L 118.390545 37.632403 
L 119.143636 37.116823 
L 119.896727 36.601244 
L 120.649818 36.085665 
L 121.402909 35.570085 
L 122.156 35.054506 
L 122.909091 34.538926 
L 123.662182 34.023347 
L 124.415273 33.507768 
L 125.168364 32.992188 
L 125.921455 32.476609 
L 126.674545 31.961029 
" style="fill:none;stroke:#92c5de;stroke-linecap:round;stroke-width:1.5;"/>
   </g>
   <g id="line2d_13">
    <path clip-path="url(#p3148c688da)" d="M 51.365455 69.134305 
L 52.118545 68.618726 
L 52.871636 68.103146 
L 53.624727 67.587567 
L 54.377818 67.071987 
L 55.130909 66.556408 
L 55.884 66.040829 
L 56.637091 65.525249 
L 57.390182 65.00967 
L 58.143273 64.49409 
L 58.896364 63.978511 
L 59.649455 63.462931 
L 60.402545 62.947352 
L 61.155636 62.431773 
L 61.908727 61.916193 
L 62.661818 61.400614 
L 63.414909 60.885034 
L 64.168 60.369455 
L 64.921091 59.853876 
L 65.674182 59.338296 
L 66.427273 58.822717 
L 67.180364 58.307137 
L 67.933455 57.791558 
L 68.686545 57.275979 
L 69.439636 56.760399 
L 70.192727 56.24482 
L 70.945818 55.72924 
L 71.698909 55.213661 
L 72.452 54.698081 
L 73.205091 54.182502 
L 73.958182 53.666923 
L 74.711273 53.151343 
L 75.464364 52.635764 
L 76.217455 52.120184 
L 76.970545 51.604605 
L 77.723636 51.089026 
L 78.476727 50.573446 
L 79.229818 50.057867 
L 79.982909 49.542287 
L 80.736 49.026708 
L 81.489091 48.511128 
L 82.242182 47.995549 
L 82.995273 47.47997 
L 83.748364 46.96439 
L 84.501455 46.448811 
L 85.254545 45.933231 
L 86.007636 45.417652 
L 86.760727 44.902073 
L 87.513818 44.386493 
L 88.266909 43.870914 
L 89.02 43.355334 
L 89.773091 42.839755 
L 90.526182 42.324176 
L 91.279273 41.808596 
L 92.032364 41.293017 
L 92.785455 40.777437 
L 93.538545 40.261858 
L 94.291636 39.746278 
L 95.044727 39.230699 
L 95.797818 38.71512 
L 96.550909 38.19954 
L 97.304 37.683961 
L 98.057091 37.168381 
L 98.810182 36.652802 
L 99.563273 36.137223 
L 100.316364 35.621643 
L 101.069455 35.106064 
L 101.822545 34.590484 
L 102.575636 34.074905 
L 103.328727 33.559325 
L 104.081818 33.043746 
L 104.834909 32.528167 
L 105.588 32.012587 
L 106.341091 31.497008 
L 107.094182 30.981428 
L 107.847273 30.465849 
L 108.600364 29.95027 
L 109.353455 29.43469 
L 110.106545 28.919111 
L 110.859636 28.403531 
L 111.612727 27.887952 
L 112.365818 27.372373 
L 113.118909 26.856793 
L 113.872 26.341214 
L 114.625091 25.825634 
L 115.378182 25.310055 
L 116.131273 24.794475 
L 116.884364 24.278896 
L 117.637455 23.763317 
L 118.390545 23.247737 
L 119.143636 22.732158 
L 119.896727 22.216578 
L 120.649818 21.700999 
L 121.402909 21.18542 
L 122.156 20.66984 
L 122.909091 20.154261 
L 123.662182 19.638681 
L 124.415273 19.123102 
L 125.168364 18.607522 
L 125.921455 18.091943 
L 126.674545 17.576364 
" style="fill:none;stroke:#92c5de;stroke-linecap:round;stroke-width:1.5;"/>
   </g>
   <g id="line2d_14">
    <path clip-path="url(#p3148c688da)" d="M 51.365455 69.701442 
L 52.118545 69.701442 
L 52.871636 69.701442 
L 53.624727 69.701442 
L 54.377818 69.701442 
L 55.130909 69.701442 
L 55.884 69.701442 
L 56.637091 69.701442 
L 57.390182 69.701442 
L 58.143273 69.701442 
L 58.896364 69.701442 
L 59.649455 69.701442 
L 60.402545 69.701442 
L 61.155636 69.701442 
L 61.908727 69.701442 
L 62.661818 69.701442 
L 63.414909 69.701442 
L 64.168 69.701442 
L 64.921091 69.701442 
L 65.674182 69.701442 
L 66.427273 69.701442 
L 67.180364 69.701442 
L 67.933455 69.701442 
L 68.686545 69.701442 
L 69.439636 69.701442 
L 70.192727 69.701442 
L 70.945818 69.701442 
L 71.698909 69.701442 
L 72.452 69.701442 
L 73.205091 69.701442 
L 73.958182 69.701442 
L 74.711273 69.701442 
L 75.464364 69.701442 
L 76.217455 69.701442 
L 76.970545 69.701442 
L 77.723636 69.701442 
L 78.476727 69.701442 
L 79.229818 69.701442 
L 79.982909 69.701442 
L 80.736 69.701442 
L 81.489091 69.701442 
L 82.242182 69.701442 
L 82.995273 69.701442 
L 83.748364 69.701442 
L 84.501455 69.701442 
L 85.254545 69.701442 
L 86.007636 69.701442 
L 86.760727 69.701442 
L 87.513818 69.701442 
L 88.266909 69.701442 
L 89.02 69.701442 
L 89.773091 69.701442 
L 90.526182 69.701442 
L 91.279273 69.701442 
L 92.032364 69.701442 
L 92.785455 69.701442 
L 93.538545 69.701442 
L 94.291636 69.701442 
L 95.044727 69.701442 
L 95.797818 69.701442 
L 96.550909 69.701442 
L 97.304 69.701442 
L 98.057091 69.701442 
L 98.810182 69.701442 
L 99.563273 69.701442 
L 100.316364 69.701442 
L 101.069455 69.701442 
L 101.822545 69.701442 
L 102.575636 69.701442 
L 103.328727 69.701442 
L 104.081818 69.701442 
L 104.834909 69.701442 
L 105.588 69.701442 
L 106.341091 69.701442 
L 107.094182 69.701442 
L 107.847273 69.701442 
L 108.600364 69.701442 
L 109.353455 69.701442 
L 110.106545 69.701442 
L 110.859636 69.701442 
L 111.612727 69.701442 
L 112.365818 69.701442 
L 113.118909 69.701442 
L 113.872 69.701442 
L 114.625091 69.701442 
L 115.378182 69.701442 
L 116.131273 69.701442 
L 116.884364 69.701442 
L 117.637455 69.701442 
L 118.390545 69.701442 
L 119.143636 69.701442 
L 119.896727 69.701442 
L 120.649818 69.701442 
L 121.402909 69.701442 
L 122.156 69.701442 
L 122.909091 69.701442 
L 123.662182 69.701442 
L 124.415273 69.701442 
L 125.168364 69.701442 
L 125.921455 69.701442 
L 126.674545 69.701442 
" style="fill:none;stroke:#333333;stroke-linecap:round;stroke-width:1.5;"/>
   </g>
   <g id="line2d_15">
    <path clip-path="url(#p3148c688da)" d="M 51.365455 83.312739 
L 52.118545 83.312739 
L 52.871636 83.312739 
L 53.624727 83.312739 
L 54.377818 83.312739 
L 55.130909 83.312739 
L 55.884 83.312739 
L 56.637091 83.312739 
L 57.390182 83.312739 
L 58.143273 83.312739 
L 58.896364 83.312739 
L 59.649455 83.312739 
L 60.402545 83.312739 
L 61.155636 83.312739 
L 61.908727 83.312739 
L 62.661818 83.312739 
L 63.414909 83.312739 
L 64.168 83.312739 
L 64.921091 83.312739 
L 65.674182 83.312739 
L 66.427273 83.312739 
L 67.180364 83.312739 
L 67.933455 83.312739 
L 68.686545 83.312739 
L 69.439636 83.312739 
L 70.192727 83.312739 
L 70.945818 83.312739 
L 71.698909 83.312739 
L 72.452 83.312739 
L 73.205091 83.312739 
L 73.958182 83.312739 
L 74.711273 83.312739 
L 75.464364 83.312739 
L 76.217455 83.312739 
L 76.970545 83.312739 
L 77.723636 83.312739 
L 78.476727 83.312739 
L 79.229818 83.312739 
L 79.982909 83.312739 
L 80.736 83.312739 
L 81.489091 83.312739 
L 82.242182 83.312739 
L 82.995273 83.312739 
L 83.748364 83.312739 
L 84.501455 83.312739 
L 85.254545 83.312739 
L 86.007636 83.312739 
L 86.760727 83.312739 
L 87.513818 83.312739 
L 88.266909 83.312739 
L 89.02 83.312739 
L 89.773091 83.312739 
L 90.526182 83.312739 
L 91.279273 83.312739 
L 92.032364 83.312739 
L 92.785455 83.312739 
L 93.538545 83.312739 
L 94.291636 83.312739 
L 95.044727 83.312739 
L 95.797818 83.312739 
L 96.550909 83.312739 
L 97.304 83.312739 
L 98.057091 83.312739 
L 98.810182 83.312739 
L 99.563273 83.312739 
L 100.316364 83.312739 
L 101.069455 83.312739 
L 101.822545 83.312739 
L 102.575636 83.312739 
L 103.328727 83.312739 
L 104.081818 83.312739 
L 104.834909 83.312739 
L 105.588 83.312739 
L 106.341091 83.312739 
L 107.094182 83.312739 
L 107.847273 83.312739 
L 108.600364 83.312739 
L 109.353455 83.312739 
L 110.106545 83.312739 
L 110.859636 83.312739 
L 111.612727 83.312739 
L 112.365818 83.312739 
L 113.118909 83.312739 
L 113.872 83.312739 
L 114.625091 83.312739 
L 115.378182 83.312739 
L 116.131273 83.312739 
L 116.884364 83.312739 
L 117.637455 83.312739 
L 118.390545 83.312739 
L 119.143636 83.312739 
L 119.896727 83.312739 
L 120.649818 83.312739 
L 121.402909 83.312739 
L 122.156 83.312739 
L 122.909091 83.312739 
L 123.662182 83.312739 
L 124.415273 83.312739 
L 125.168364 83.312739 
L 125.921455 83.312739 
L 126.674545 83.312739 
" style="fill:none;stroke:#333333;stroke-linecap:round;stroke-width:1.5;"/>
   </g>
  </g>
 </g>
 <defs>
  <clipPath id="p3148c688da">
   <rect height="88.36" width="82.84" x="47.6" y="13.56"/>
  </clipPath>
 </defs>
</svg>
