<?xml version="1.0" encoding="utf-8" standalone="no"?>
<!DOCTYPE svg PUBLIC "-//W3C//DTD SVG 1.1//EN"
  "http://www.w3.org/Graphics/SVG/1.1/DTD/svg11.dtd">
<!-- Created with matplotlib (http://matplotlib.org/) -->
<svg height="216pt" version="1.1" viewBox="0 0 216 216" width="216pt" xmlns="http://www.w3.org/2000/svg" xmlns:xlink="http://www.w3.org/1999/xlink">
 <defs>
  <style type="text/css">
*{stroke-linecap:butt;stroke-linejoin:round;}
  </style>
 </defs>
 <g id="figure_1">
  <g id="patch_1">
   <path d="M 0 216 
L 216 216 
L 216 0 
L 0 0 
z
" style="fill:#ffffff;"/>
  </g>
  <g id="axes_1">
   <g id="patch_2">
    <path d="M 44.78 175.96 
L 203.52 175.96 
L 203.52 25.44 
L 44.78 25.44 
z
" style="fill:#ffffff;"/>
   </g>
   <g id="matplotlib.axis_1">
    <g id="xtick_1">
     <g id="line2d_1">
      <defs>
       <path d="M 0 0 
L 0 3.5 
" id="m16e0c9088c" style="stroke:#262626;stroke-width:0.8;"/>
      </defs>
      <g>
       <use style="fill:#262626;stroke:#262626;stroke-width:0.8;" x="51.995455" xlink:href="#m16e0c9088c" y="175.96"/>
      </g>
     </g>
     <g id="text_1">
      <!-- 2 -->
      <defs>
       <path d="M 50.34375 8.453125 
L 50.34375 0 
L 3.03125 0 
Q 2.9375 3.171875 4.046875 6.109375 
Q 5.859375 10.9375 9.828125 15.625 
Q 13.8125 20.3125 21.34375 26.46875 
Q 33.015625 36.03125 37.109375 41.625 
Q 41.21875 47.21875 41.21875 52.203125 
Q 41.21875 57.421875 37.46875 61 
Q 33.734375 64.59375 27.734375 64.59375 
Q 21.390625 64.59375 17.578125 60.78125 
Q 13.765625 56.984375 13.71875 50.25 
L 4.6875 51.171875 
Q 5.609375 61.28125 11.65625 66.578125 
Q 17.71875 71.875 27.9375 71.875 
Q 38.234375 71.875 44.234375 66.15625 
Q 50.25 60.453125 50.25 52 
Q 50.25 47.703125 48.484375 43.546875 
Q 46.734375 39.40625 42.65625 34.8125 
Q 38.578125 30.21875 29.109375 22.21875 
Q 21.1875 15.578125 18.9375 13.203125 
Q 16.703125 10.84375 15.234375 8.453125 
z
" id="ArialMT-32"/>
      </defs>
      <g style="fill:#262626;" transform="translate(49.214986 190.117812)scale(0.1 -0.1)">
       <use xlink:href="#ArialMT-32"/>
      </g>
     </g>
    </g>
    <g id="xtick_2">
     <g id="line2d_2">
      <g>
       <use style="fill:#262626;stroke:#262626;stroke-width:0.8;" x="80.857273" xlink:href="#m16e0c9088c" y="175.96"/>
      </g>
     </g>
     <g id="text_2">
      <!-- 4 -->
      <defs>
       <path d="M 32.328125 0 
L 32.328125 17.140625 
L 1.265625 17.140625 
L 1.265625 25.203125 
L 33.9375 71.578125 
L 41.109375 71.578125 
L 41.109375 25.203125 
L 50.78125 25.203125 
L 50.78125 17.140625 
L 41.109375 17.140625 
L 41.109375 0 
z
M 32.328125 25.203125 
L 32.328125 57.46875 
L 9.90625 25.203125 
z
" id="ArialMT-34"/>
      </defs>
      <g style="fill:#262626;" transform="translate(78.076804 190.117812)scale(0.1 -0.1)">
       <use xlink:href="#ArialMT-34"/>
      </g>
     </g>
    </g>
    <g id="xtick_3">
     <g id="line2d_3">
      <g>
       <use style="fill:#262626;stroke:#262626;stroke-width:0.8;" x="109.719091" xlink:href="#m16e0c9088c" y="175.96"/>
      </g>
     </g>
     <g id="text_3">
      <!-- 6 -->
      <defs>
       <path d="M 49.75 54.046875 
L 41.015625 53.375 
Q 39.84375 58.546875 37.703125 60.890625 
Q 34.125 64.65625 28.90625 64.65625 
Q 24.703125 64.65625 21.53125 62.3125 
Q 17.390625 59.28125 14.984375 53.46875 
Q 12.59375 47.65625 12.5 36.921875 
Q 15.671875 41.75 20.265625 44.09375 
Q 24.859375 46.4375 29.890625 46.4375 
Q 38.671875 46.4375 44.84375 39.96875 
Q 51.03125 33.5 51.03125 23.25 
Q 51.03125 16.5 48.125 10.71875 
Q 45.21875 4.9375 40.140625 1.859375 
Q 35.0625 -1.21875 28.609375 -1.21875 
Q 17.625 -1.21875 10.6875 6.859375 
Q 3.765625 14.9375 3.765625 33.5 
Q 3.765625 54.25 11.421875 63.671875 
Q 18.109375 71.875 29.4375 71.875 
Q 37.890625 71.875 43.28125 67.140625 
Q 48.6875 62.40625 49.75 54.046875 
z
M 13.875 23.1875 
Q 13.875 18.65625 15.796875 14.5 
Q 17.71875 10.359375 21.1875 8.171875 
Q 24.65625 6 28.46875 6 
Q 34.03125 6 38.03125 10.484375 
Q 42.046875 14.984375 42.046875 22.703125 
Q 42.046875 30.125 38.078125 34.390625 
Q 34.125 38.671875 28.125 38.671875 
Q 22.171875 38.671875 18.015625 34.390625 
Q 13.875 30.125 13.875 23.1875 
z
" id="ArialMT-36"/>
      </defs>
      <g style="fill:#262626;" transform="translate(106.938622 190.117812)scale(0.1 -0.1)">
       <use xlink:href="#ArialMT-36"/>
      </g>
     </g>
    </g>
    <g id="xtick_4">
     <g id="line2d_4">
      <g>
       <use style="fill:#262626;stroke:#262626;stroke-width:0.8;" x="138.580909" xlink:href="#m16e0c9088c" y="175.96"/>
      </g>
     </g>
     <g id="text_4">
      <!-- 8 -->
      <defs>
       <path d="M 17.671875 38.8125 
Q 12.203125 40.828125 9.5625 44.53125 
Q 6.9375 48.25 6.9375 53.421875 
Q 6.9375 61.234375 12.546875 66.546875 
Q 18.171875 71.875 27.484375 71.875 
Q 36.859375 71.875 42.578125 66.421875 
Q 48.296875 60.984375 48.296875 53.171875 
Q 48.296875 48.1875 45.671875 44.5 
Q 43.0625 40.828125 37.75 38.8125 
Q 44.34375 36.671875 47.78125 31.875 
Q 51.21875 27.09375 51.21875 20.453125 
Q 51.21875 11.28125 44.71875 5.03125 
Q 38.234375 -1.21875 27.640625 -1.21875 
Q 17.046875 -1.21875 10.546875 5.046875 
Q 4.046875 11.328125 4.046875 20.703125 
Q 4.046875 27.6875 7.59375 32.390625 
Q 11.140625 37.109375 17.671875 38.8125 
z
M 15.921875 53.71875 
Q 15.921875 48.640625 19.1875 45.40625 
Q 22.46875 42.1875 27.6875 42.1875 
Q 32.765625 42.1875 36.015625 45.375 
Q 39.265625 48.578125 39.265625 53.21875 
Q 39.265625 58.0625 35.90625 61.359375 
Q 32.5625 64.65625 27.59375 64.65625 
Q 22.5625 64.65625 19.234375 61.421875 
Q 15.921875 58.203125 15.921875 53.71875 
z
M 13.09375 20.65625 
Q 13.09375 16.890625 14.875 13.375 
Q 16.65625 9.859375 20.171875 7.921875 
Q 23.6875 6 27.734375 6 
Q 34.03125 6 38.125 10.046875 
Q 42.234375 14.109375 42.234375 20.359375 
Q 42.234375 26.703125 38.015625 30.859375 
Q 33.796875 35.015625 27.4375 35.015625 
Q 21.234375 35.015625 17.15625 30.90625 
Q 13.09375 26.8125 13.09375 20.65625 
z
" id="ArialMT-38"/>
      </defs>
      <g style="fill:#262626;" transform="translate(135.80044 190.117812)scale(0.1 -0.1)">
       <use xlink:href="#ArialMT-38"/>
      </g>
     </g>
    </g>
    <g id="xtick_5">
     <g id="line2d_5">
      <g>
       <use style="fill:#262626;stroke:#262626;stroke-width:0.8;" x="167.442727" xlink:href="#m16e0c9088c" y="175.96"/>
      </g>
     </g>
     <g id="text_5">
      <!-- 10 -->
      <defs>
       <path d="M 37.25 0 
L 28.46875 0 
L 28.46875 56 
Q 25.296875 52.984375 20.140625 49.953125 
Q 14.984375 46.921875 10.890625 45.40625 
L 10.890625 53.90625 
Q 18.265625 57.375 23.78125 62.296875 
Q 29.296875 67.234375 31.59375 71.875 
L 37.25 71.875 
z
" id="ArialMT-31"/>
       <path d="M 4.15625 35.296875 
Q 4.15625 48 6.765625 55.734375 
Q 9.375 63.484375 14.515625 67.671875 
Q 19.671875 71.875 27.484375 71.875 
Q 33.25 71.875 37.59375 69.546875 
Q 41.9375 67.234375 44.765625 62.859375 
Q 47.609375 58.5 49.21875 52.21875 
Q 50.828125 45.953125 50.828125 35.296875 
Q 50.828125 22.703125 48.234375 14.96875 
Q 45.65625 7.234375 40.5 3 
Q 35.359375 -1.21875 27.484375 -1.21875 
Q 17.140625 -1.21875 11.234375 6.203125 
Q 4.15625 15.140625 4.15625 35.296875 
z
M 13.1875 35.296875 
Q 13.1875 17.671875 17.3125 11.828125 
Q 21.4375 6 27.484375 6 
Q 33.546875 6 37.671875 11.859375 
Q 41.796875 17.71875 41.796875 35.296875 
Q 41.796875 52.984375 37.671875 58.78125 
Q 33.546875 64.59375 27.390625 64.59375 
Q 21.34375 64.59375 17.71875 59.46875 
Q 13.1875 52.9375 13.1875 35.296875 
z
" id="ArialMT-30"/>
      </defs>
      <g style="fill:#262626;" transform="translate(161.88179 190.117812)scale(0.1 -0.1)">
       <use xlink:href="#ArialMT-31"/>
       <use x="55.615234" xlink:href="#ArialMT-30"/>
      </g>
     </g>
    </g>
    <g id="xtick_6">
     <g id="line2d_6">
      <g>
       <use style="fill:#262626;stroke:#262626;stroke-width:0.8;" x="196.304545" xlink:href="#m16e0c9088c" y="175.96"/>
      </g>
     </g>
     <g id="text_6">
      <!-- 12 -->
      <g style="fill:#262626;" transform="translate(190.743608 190.117812)scale(0.1 -0.1)">
       <use xlink:href="#ArialMT-31"/>
       <use x="55.615234" xlink:href="#ArialMT-32"/>
      </g>
     </g>
    </g>
    <g id="text_7">
     <!-- pH -->
     <defs>
      <path d="M 6.59375 -19.875 
L 6.59375 51.859375 
L 14.59375 51.859375 
L 14.59375 45.125 
Q 17.4375 49.078125 21 51.046875 
Q 24.5625 53.03125 29.640625 53.03125 
Q 36.28125 53.03125 41.359375 49.609375 
Q 46.4375 46.1875 49.015625 39.953125 
Q 51.609375 33.734375 51.609375 26.3125 
Q 51.609375 18.359375 48.75 11.984375 
Q 45.90625 5.609375 40.453125 2.21875 
Q 35.015625 -1.171875 29 -1.171875 
Q 24.609375 -1.171875 21.109375 0.6875 
Q 17.625 2.546875 15.375 5.375 
L 15.375 -19.875 
z
M 14.546875 25.640625 
Q 14.546875 15.625 18.59375 10.84375 
Q 22.65625 6.0625 28.421875 6.0625 
Q 34.28125 6.0625 38.453125 11.015625 
Q 42.625 15.96875 42.625 26.375 
Q 42.625 36.28125 38.546875 41.203125 
Q 34.46875 46.140625 28.8125 46.140625 
Q 23.1875 46.140625 18.859375 40.890625 
Q 14.546875 35.640625 14.546875 25.640625 
z
" id="ArialMT-70"/>
      <path d="M 8.015625 0 
L 8.015625 71.578125 
L 17.484375 71.578125 
L 17.484375 42.1875 
L 54.6875 42.1875 
L 54.6875 71.578125 
L 64.15625 71.578125 
L 64.15625 0 
L 54.6875 0 
L 54.6875 33.734375 
L 17.484375 33.734375 
L 17.484375 0 
z
" id="ArialMT-48"/>
     </defs>
     <g style="fill:#262626;" transform="translate(117.758594 203.263125)scale(0.1 -0.1)">
      <use xlink:href="#ArialMT-70"/>
      <use x="55.615234" xlink:href="#ArialMT-48"/>
     </g>
    </g>
   </g>
   <g id="matplotlib.axis_2">
    <g id="ytick_1">
     <g id="line2d_7">
      <defs>
       <path d="M 0 0 
L -3.5 0 
" id="m93a6af1210" style="stroke:#262626;stroke-width:0.8;"/>
      </defs>
      <g>
       <use style="fill:#262626;stroke:#262626;stroke-width:0.8;" x="44.78" xlink:href="#m93a6af1210" y="175.969157"/>
      </g>
     </g>
     <g id="text_8">
      <!-- −1 -->
      <defs>
       <path d="M 52.828125 31.203125 
L 5.5625 31.203125 
L 5.5625 39.40625 
L 52.828125 39.40625 
z
" id="ArialMT-2212"/>
      </defs>
      <g style="fill:#262626;" transform="translate(26.378438 179.548063)scale(0.1 -0.1)">
       <use xlink:href="#ArialMT-2212"/>
       <use x="58.398438" xlink:href="#ArialMT-31"/>
      </g>
     </g>
    </g>
    <g id="ytick_2">
     <g id="line2d_8">
      <g>
       <use style="fill:#262626;stroke:#262626;stroke-width:0.8;" x="44.78" xlink:href="#m93a6af1210" y="135.073733"/>
      </g>
     </g>
     <g id="text_9">
      <!-- 0 -->
      <g style="fill:#262626;" transform="translate(32.219063 138.652639)scale(0.1 -0.1)">
       <use xlink:href="#ArialMT-30"/>
      </g>
     </g>
    </g>
    <g id="ytick_3">
     <g id="line2d_9">
      <g>
       <use style="fill:#262626;stroke:#262626;stroke-width:0.8;" x="44.78" xlink:href="#m93a6af1210" y="94.178309"/>
      </g>
     </g>
     <g id="text_10">
      <!-- 1 -->
      <g style="fill:#262626;" transform="translate(32.219063 97.757216)scale(0.1 -0.1)">
       <use xlink:href="#ArialMT-31"/>
      </g>
     </g>
    </g>
    <g id="ytick_4">
     <g id="line2d_10">
      <g>
       <use style="fill:#262626;stroke:#262626;stroke-width:0.8;" x="44.78" xlink:href="#m93a6af1210" y="53.282886"/>
      </g>
     </g>
     <g id="text_11">
      <!-- 2 -->
      <g style="fill:#262626;" transform="translate(32.219063 56.861792)scale(0.1 -0.1)">
       <use xlink:href="#ArialMT-32"/>
      </g>
     </g>
    </g>
    <g id="text_12">
     <!-- $\langle q_\mathsf{total} \rangle$ -->
     <defs>
      <path d="M 8.9375 31.34375 
L 22.703125 75.875 
L 31 75.875 
L 17.234375 31.34375 
L 31 -13.1875 
L 22.703125 -13.1875 
z
" id="DejaVuSans-27e8"/>
      <path d="M 41.703125 8.203125 
Q 38.09375 3.46875 33.171875 1.015625 
Q 28.265625 -1.421875 22.3125 -1.421875 
Q 14.015625 -1.421875 9.296875 4.171875 
Q 4.59375 9.765625 4.59375 19.578125 
Q 4.59375 27.484375 7.5 34.859375 
Q 10.40625 42.234375 15.828125 48.09375 
Q 19.34375 51.90625 23.90625 53.953125 
Q 28.46875 56 33.5 56 
Q 39.546875 56 43.453125 53.609375 
Q 47.359375 51.21875 49.125 46.390625 
L 50.6875 54.59375 
L 59.71875 54.59375 
L 45.125 -20.609375 
L 36.078125 -20.609375 
z
M 13.921875 20.90625 
Q 13.921875 13.671875 16.9375 9.890625 
Q 19.96875 6.109375 25.6875 6.109375 
Q 34.1875 6.109375 40.1875 14.234375 
Q 46.1875 22.359375 46.1875 33.984375 
Q 46.1875 41.015625 43.078125 44.75 
Q 39.984375 48.484375 34.1875 48.484375 
Q 29.9375 48.484375 26.3125 46.5 
Q 22.703125 44.53125 20.015625 40.71875 
Q 17.1875 36.71875 15.546875 31.34375 
Q 13.921875 25.984375 13.921875 20.90625 
z
" id="DejaVuSans-Oblique-71"/>
      <path d="M 18.3125 70.21875 
L 18.3125 54.6875 
L 36.8125 54.6875 
L 36.8125 47.703125 
L 18.3125 47.703125 
L 18.3125 18.015625 
Q 18.3125 11.328125 20.140625 9.421875 
Q 21.96875 7.515625 27.59375 7.515625 
L 36.8125 7.515625 
L 36.8125 0 
L 27.59375 0 
Q 17.1875 0 13.234375 3.875 
Q 9.28125 7.765625 9.28125 18.015625 
L 9.28125 47.703125 
L 2.6875 47.703125 
L 2.6875 54.6875 
L 9.28125 54.6875 
L 9.28125 70.21875 
z
" id="DejaVuSans-74"/>
      <path d="M 30.609375 48.390625 
Q 23.390625 48.390625 19.1875 42.75 
Q 14.984375 37.109375 14.984375 27.296875 
Q 14.984375 17.484375 19.15625 11.84375 
Q 23.34375 6.203125 30.609375 6.203125 
Q 37.796875 6.203125 41.984375 11.859375 
Q 46.1875 17.53125 46.1875 27.296875 
Q 46.1875 37.015625 41.984375 42.703125 
Q 37.796875 48.390625 30.609375 48.390625 
z
M 30.609375 56 
Q 42.328125 56 49.015625 48.375 
Q 55.71875 40.765625 55.71875 27.296875 
Q 55.71875 13.875 49.015625 6.21875 
Q 42.328125 -1.421875 30.609375 -1.421875 
Q 18.84375 -1.421875 12.171875 6.21875 
Q 5.515625 13.875 5.515625 27.296875 
Q 5.515625 40.765625 12.171875 48.375 
Q 18.84375 56 30.609375 56 
z
" id="DejaVuSans-6f"/>
      <path d="M 34.28125 27.484375 
Q 23.390625 27.484375 19.1875 25 
Q 14.984375 22.515625 14.984375 16.5 
Q 14.984375 11.71875 18.140625 8.90625 
Q 21.296875 6.109375 26.703125 6.109375 
Q 34.1875 6.109375 38.703125 11.40625 
Q 43.21875 16.703125 43.21875 25.484375 
L 43.21875 27.484375 
z
M 52.203125 31.203125 
L 52.203125 0 
L 43.21875 0 
L 43.21875 8.296875 
Q 40.140625 3.328125 35.546875 0.953125 
Q 30.953125 -1.421875 24.3125 -1.421875 
Q 15.921875 -1.421875 10.953125 3.296875 
Q 6 8.015625 6 15.921875 
Q 6 25.140625 12.171875 29.828125 
Q 18.359375 34.515625 30.609375 34.515625 
L 43.21875 34.515625 
L 43.21875 35.40625 
Q 43.21875 41.609375 39.140625 45 
Q 35.0625 48.390625 27.6875 48.390625 
Q 23 48.390625 18.546875 47.265625 
Q 14.109375 46.140625 10.015625 43.890625 
L 10.015625 52.203125 
Q 14.9375 54.109375 19.578125 55.046875 
Q 24.21875 56 28.609375 56 
Q 40.484375 56 46.34375 49.84375 
Q 52.203125 43.703125 52.203125 31.203125 
z
" id="DejaVuSans-61"/>
      <path d="M 9.421875 75.984375 
L 18.40625 75.984375 
L 18.40625 0 
L 9.421875 0 
z
" id="DejaVuSans-6c"/>
      <path d="M 30.078125 31.34375 
L 16.3125 -13.1875 
L 8.015625 -13.1875 
L 21.78125 31.34375 
L 8.015625 75.875 
L 16.3125 75.875 
z
" id="DejaVuSans-27e9"/>
     </defs>
     <g style="fill:#262626;" transform="translate(20.278438 115.95)rotate(-90)scale(0.1 -0.1)">
      <use transform="translate(0 0.125)" xlink:href="#DejaVuSans-27e8"/>
      <use transform="translate(39.013672 0.125)" xlink:href="#DejaVuSans-Oblique-71"/>
      <use transform="translate(102.490234 -16.28125)scale(0.7)" xlink:href="#DejaVuSans-74"/>
      <use transform="translate(129.936523 -16.28125)scale(0.7)" xlink:href="#DejaVuSans-6f"/>
      <use transform="translate(172.763672 -16.28125)scale(0.7)" xlink:href="#DejaVuSans-74"/>
      <use transform="translate(200.209961 -16.28125)scale(0.7)" xlink:href="#DejaVuSans-61"/>
      <use transform="translate(243.105469 -16.28125)scale(0.7)" xlink:href="#DejaVuSans-6c"/>
      <use transform="translate(265.288086 0.125)" xlink:href="#DejaVuSans-27e9"/>
     </g>
    </g>
   </g>
   <g id="PolyCollection_1">
    <defs>
     <path d="M 51.995455 -183.718182 
L 51.995455 -100.792975 
L 53.438545 -98.447266 
L 54.881636 -96.273043 
L 56.324727 -94.31581 
L 57.767818 -92.604546 
L 59.210909 -91.149911 
L 60.654 -89.945387 
L 62.097091 -88.970839 
L 63.540182 -88.197355 
L 64.983273 -87.592102 
L 66.426364 -87.122217 
L 67.869455 -86.757366 
L 69.312545 -86.471052 
L 70.755636 -86.241006 
L 72.198727 -86.048951 
L 73.641818 -85.879976 
L 75.084909 -85.721676 
L 76.528 -85.563214 
L 77.971091 -85.394401 
L 79.414182 -85.20486 
L 80.857273 -84.983323 
L 82.300364 -84.7171 
L 83.743455 -84.391782 
L 85.186545 -83.991226 
L 86.629636 -83.4979 
L 88.072727 -82.893709 
L 89.515818 -82.161389 
L 90.958909 -81.286555 
L 92.402 -80.260343 
L 93.845091 -79.08243 
L 95.288182 -77.763933 
L 96.731273 -76.329516 
L 98.174364 -74.81789 
L 99.617455 -73.280105 
L 101.060545 -71.775504 
L 102.503636 -70.36589 
L 103.946727 -69.109011 
L 105.389818 -68.052745 
L 106.832909 -67.231029 
L 108.276 -66.662049 
L 109.719091 -66.34844 
L 111.162182 -66.278853 
L 112.605273 -66.430002 
L 114.048364 -66.768478 
L 115.491455 -67.251845 
L 116.934545 -67.828914 
L 118.377636 -68.439549 
L 119.820727 -69.014961 
L 121.263818 -69.480278 
L 122.706909 -69.761693 
L 124.15 -69.799131 
L 125.593091 -69.560842 
L 127.036182 -69.051462 
L 128.479273 -68.307406 
L 129.922364 -67.382808 
L 131.365455 -66.334918 
L 132.808545 -65.21478 
L 134.251636 -64.063548 
L 135.694727 -62.912315 
L 137.137818 -61.783461 
L 138.580909 -60.692372 
L 140.024 -59.649043 
L 141.467091 -58.659422 
L 142.910182 -57.726491 
L 144.353273 -56.851104 
L 145.796364 -56.032654 
L 147.239455 -55.269573 
L 148.682545 -54.559717 
L 150.125636 -53.900631 
L 151.568727 -53.289732 
L 153.011818 -52.724412 
L 154.454909 -52.202093 
L 155.898 -51.720242 
L 157.341091 -51.276383 
L 158.784182 -50.868099 
L 160.227273 -50.493025 
L 161.670364 -50.148851 
L 163.113455 -49.833312 
L 164.556545 -49.544192 
L 165.999636 -49.279334 
L 167.442727 -49.036668 
L 168.885818 -48.814241 
L 170.328909 -48.610262 
L 171.772 -48.423121 
L 173.215091 -48.251406 
L 174.658182 -48.093893 
L 176.101273 -47.949522 
L 177.544364 -47.817361 
L 178.987455 -47.696576 
L 180.430545 -47.586394 
L 181.873636 -47.486083 
L 183.316727 -47.394937 
L 184.759818 -47.312268 
L 186.202909 -47.237409 
L 187.646 -47.169717 
L 189.089091 -47.108577 
L 190.532182 -47.053406 
L 191.975273 -47.003649 
L 193.418364 -46.958785 
L 194.861455 -46.918324 
L 196.304545 -46.881818 
L 196.304545 -114.970734 
L 196.304545 -114.970734 
L 194.861455 -114.934232 
L 193.418364 -114.893778 
L 191.975273 -114.848921 
L 190.532182 -114.799173 
L 189.089091 -114.744014 
L 187.646 -114.682889 
L 186.202909 -114.615216 
L 184.759818 -114.54038 
L 183.316727 -114.457741 
L 181.873636 -114.366632 
L 180.430545 -114.266368 
L 178.987455 -114.156245 
L 177.544364 -114.035534 
L 176.101273 -113.903468 
L 174.658182 -113.759214 
L 173.215091 -113.60185 
L 171.772 -113.430322 
L 170.328909 -113.243417 
L 168.885818 -113.039733 
L 167.442727 -112.81768 
L 165.999636 -112.575484 
L 164.556545 -112.311218 
L 163.113455 -112.022842 
L 161.670364 -111.70824 
L 160.227273 -111.365245 
L 158.784182 -110.991657 
L 157.341091 -110.585242 
L 155.898 -110.143738 
L 154.454909 -109.66485 
L 153.011818 -109.14626 
L 151.568727 -108.585636 
L 150.125636 -107.980647 
L 148.682545 -107.329 
L 147.239455 -106.628508 
L 145.796364 -105.877212 
L 144.353273 -105.073594 
L 142.910182 -104.216872 
L 141.467091 -103.307425 
L 140.024 -102.347351 
L 138.580909 -101.341189 
L 137.137818 -100.296841 
L 135.694727 -99.226756 
L 134.251636 -98.149389 
L 132.808545 -97.090957 
L 131.365455 -96.087349 
L 129.922364 -95.185688 
L 128.479273 -94.444434 
L 127.036182 -93.930019 
L 125.593091 -93.707896 
L 124.15 -93.828349 
L 122.706909 -94.312891 
L 121.263818 -95.150129 
L 119.820727 -96.304251 
L 118.377636 -97.729943 
L 116.934545 -99.385146 
L 115.491455 -101.237907 
L 114.048364 -103.268031 
L 112.605273 -105.465614 
L 111.162182 -107.827974 
L 109.719091 -110.355807 
L 108.276 -113.048994 
L 106.832909 -115.902354 
L 105.389818 -118.901826 
L 103.946727 -122.021655 
L 102.503636 -125.223308 
L 101.060545 -128.456638 
L 99.617455 -131.663421 
L 98.174364 -134.782739 
L 96.731273 -137.757126 
L 95.288182 -140.538171 
L 93.845091 -143.090449 
L 92.402 -145.393224 
L 90.958909 -147.440023 
L 89.515818 -149.236637 
L 88.072727 -150.798296 
L 86.629636 -152.146721 
L 85.186545 -153.307511 
L 83.743455 -154.308138 
L 82.300364 -155.176572 
L 80.857273 -155.940497 
L 79.414182 -156.626982 
L 77.971091 -157.262465 
L 76.528 -157.872915 
L 75.084909 -158.484052 
L 73.641818 -159.121533 
L 72.198727 -159.811037 
L 70.755636 -160.578188 
L 69.312545 -161.448246 
L 67.869455 -162.445532 
L 66.426364 -163.592508 
L 64.983273 -164.908474 
L 63.540182 -166.40784 
L 62.097091 -168.09808 
L 60.654 -169.97765 
L 59.210909 -172.03422 
L 57.767818 -174.243512 
L 56.324727 -176.568979 
L 54.881636 -178.962534 
L 53.438545 -181.36666 
L 51.995455 -183.718182 
z
" id="m48ee027208" style="stroke:#ffffff;stroke-opacity:0.05;"/>
    </defs>
    <g clip-path="url(#pe44fe38508)">
     <use style="fill:#12711c;fill-opacity:0.05;stroke:#ffffff;stroke-opacity:0.05;" x="0" xlink:href="#m48ee027208" y="216"/>
    </g>
   </g>
   <g id="line2d_11">
    <path clip-path="url(#pe44fe38508)" d="M 51.995455 73.744422 
L 53.438545 76.093037 
L 54.881636 78.382212 
L 56.324727 80.557605 
L 57.767818 82.575971 
L 59.210909 84.407934 
L 60.654 86.038481 
L 62.097091 87.465541 
L 63.540182 88.697403 
L 64.983273 89.749712 
L 66.426364 90.642637 
L 67.869455 91.398551 
L 69.312545 92.040351 
L 70.755636 92.590403 
L 72.198727 93.070006 
L 73.641818 93.499246 
L 75.084909 93.897136 
L 76.528 94.281935 
L 77.971091 94.671567 
L 79.414182 95.084079 
L 80.857273 95.53809 
L 82.300364 96.053164 
L 83.743455 96.65004 
L 85.186545 97.350631 
L 86.629636 98.177689 
L 88.072727 99.153997 
L 89.515818 100.300987 
L 90.958909 101.636711 
L 92.402 103.173217 
L 93.845091 104.913561 
L 95.288182 106.848948 
L 96.731273 108.956679 
L 98.174364 111.199686 
L 99.617455 113.528237 
L 101.060545 115.883929 
L 102.503636 118.205401 
L 103.946727 120.434667 
L 105.389818 122.522715 
L 106.832909 124.433308 
L 108.276 126.144479 
L 109.719091 127.647876 
L 111.162182 128.946587 
L 112.605273 130.052192 
L 114.048364 130.981745 
L 115.491455 131.755124 
L 116.934545 132.39297 
L 118.377636 132.915254 
L 119.820727 133.340394 
L 121.263818 133.684797 
L 122.706909 133.962708 
L 124.15 134.18626 
L 125.593091 134.365631 
L 127.036182 134.509259 
L 128.479273 134.62408 
L 129.922364 134.715752 
L 131.365455 134.788866 
L 132.808545 134.847131 
L 134.251636 134.893532 
L 135.694727 134.930464 
L 137.137818 134.959849 
L 138.580909 134.98322 
L 140.024 135.001803 
L 141.467091 135.016576 
L 142.910182 135.028319 
L 144.353273 135.037651 
L 145.796364 135.045067 
L 147.239455 135.050959 
L 148.682545 135.055641 
L 150.125636 135.059361 
L 151.568727 135.062316 
L 153.011818 135.064664 
L 154.454909 135.066529 
L 155.898 135.06801 
L 157.341091 135.069187 
L 158.784182 135.070122 
L 160.227273 135.070865 
L 161.670364 135.071455 
L 163.113455 135.071923 
L 164.556545 135.072295 
L 165.999636 135.072591 
L 167.442727 135.072826 
L 168.885818 135.073013 
L 170.328909 135.073161 
L 171.772 135.073279 
L 173.215091 135.073372 
L 174.658182 135.073446 
L 176.101273 135.073505 
L 177.544364 135.073552 
L 178.987455 135.073589 
L 180.430545 135.073619 
L 181.873636 135.073642 
L 183.316727 135.073661 
L 184.759818 135.073676 
L 186.202909 135.073688 
L 187.646 135.073697 
L 189.089091 135.073704 
L 190.532182 135.07371 
L 191.975273 135.073715 
L 193.418364 135.073719 
L 194.861455 135.073722 
L 196.304545 135.073724 
" style="fill:none;opacity:0.9;stroke:#12711c;stroke-linecap:round;stroke-width:1.5;"/>
   </g>
   <g id="line2d_12">
    <path clip-path="url(#pe44fe38508)" d="M 51.995455 94.283157 
L 53.438545 94.310218 
L 54.881636 94.344233 
L 56.324727 94.386976 
L 57.767818 94.440659 
L 59.210909 94.50804 
L 60.654 94.592551 
L 62.097091 94.698444 
L 63.540182 94.830971 
L 64.983273 94.99658 
L 66.426364 95.203142 
L 67.869455 95.460179 
L 69.312545 95.779096 
L 70.755636 96.173359 
L 72.198727 96.658599 
L 73.641818 97.252532 
L 75.084909 97.974634 
L 76.528 98.84542 
L 77.971091 99.885218 
L 79.414182 101.112337 
L 80.857273 102.54061 
L 82.300364 104.176468 
L 83.743455 106.015898 
L 85.186545 108.041895 
L 86.629636 110.223176 
L 88.072727 112.514854 
L 89.515818 114.861424 
L 90.958909 117.201808 
L 92.402 119.475569 
L 93.845091 121.628977 
L 95.288182 123.619702 
L 96.731273 125.419334 
L 98.174364 127.01362 
L 99.617455 128.400866 
L 101.060545 129.589231 
L 102.503636 130.593666 
L 103.946727 131.43306 
L 105.389818 132.127907 
L 106.832909 132.698592 
L 108.276 133.164283 
L 109.719091 133.542296 
L 111.162182 133.847828 
L 112.605273 134.093921 
L 114.048364 134.291587 
L 115.491455 134.449999 
L 116.934545 134.576724 
L 118.377636 134.677956 
L 119.820727 134.758729 
L 121.263818 134.823119 
L 122.706909 134.874412 
L 124.15 134.915248 
L 125.593091 134.947744 
L 127.036182 134.973593 
L 128.479273 134.994149 
L 129.922364 135.010492 
L 131.365455 135.023483 
L 132.808545 135.033808 
L 134.251636 135.042013 
L 135.694727 135.048533 
L 137.137818 135.053713 
L 138.580909 135.057829 
L 140.024 135.061099 
L 141.467091 135.063697 
L 142.910182 135.065761 
L 144.353273 135.0674 
L 145.796364 135.068703 
L 147.239455 135.069737 
L 148.682545 135.070559 
L 150.125636 135.071212 
L 151.568727 135.07173 
L 153.011818 135.072142 
L 154.454909 135.072469 
L 155.898 135.072729 
L 157.341091 135.072936 
L 158.784182 135.0731 
L 160.227273 135.07323 
L 161.670364 135.073334 
L 163.113455 135.073416 
L 164.556545 135.073481 
L 165.999636 135.073533 
L 167.442727 135.073574 
L 168.885818 135.073607 
L 170.328909 135.073633 
L 171.772 135.073653 
L 173.215091 135.07367 
L 174.658182 135.073683 
L 176.101273 135.073693 
L 177.544364 135.073701 
L 178.987455 135.073708 
L 180.430545 135.073713 
L 181.873636 135.073717 
L 183.316727 135.073721 
L 184.759818 135.073723 
L 186.202909 135.073725 
L 187.646 135.073727 
L 189.089091 135.073728 
L 190.532182 135.073729 
L 191.975273 135.07373 
L 193.418364 135.073731 
L 194.861455 135.073731 
L 196.304545 135.073732 
" style="fill:none;opacity:0.7;stroke:#000000;stroke-linecap:round;stroke-width:1.5;"/>
   </g>
   <g id="line2d_13">
    <path clip-path="url(#pe44fe38508)" d="M 51.995455 32.281818 
L 53.438545 34.63334 
L 54.881636 37.037466 
L 56.324727 39.431021 
L 57.767818 41.756488 
L 59.210909 43.96578 
L 60.654 46.02235 
L 62.097091 47.90192 
L 63.540182 49.59216 
L 64.983273 51.091526 
L 66.426364 52.407492 
L 67.869455 53.554468 
L 69.312545 54.551754 
L 70.755636 55.421812 
L 72.198727 56.188963 
L 73.641818 56.878467 
L 75.084909 57.515948 
L 76.528 58.127085 
L 77.971091 58.737535 
L 79.414182 59.373018 
L 80.857273 60.059503 
L 82.300364 60.823428 
L 83.743455 61.691862 
L 85.186545 62.692489 
L 86.629636 63.853279 
L 88.072727 65.201704 
L 89.515818 66.763363 
L 90.958909 68.559977 
L 92.402 70.606776 
L 93.845091 72.909551 
L 95.288182 75.461829 
L 96.731273 78.242874 
L 98.174364 81.217261 
L 99.617455 84.336579 
L 101.060545 87.543362 
L 102.503636 90.776692 
L 103.946727 93.978345 
L 105.389818 97.098174 
L 106.832909 100.097646 
L 108.276 102.951006 
L 109.719091 105.644193 
L 111.162182 108.172026 
L 112.605273 110.534386 
L 114.048364 112.731969 
L 115.491455 114.762093 
L 116.934545 116.614854 
L 118.377636 118.270057 
L 119.820727 119.695749 
L 121.263818 120.849871 
L 122.706909 121.687109 
L 124.15 122.171651 
L 125.593091 122.292104 
L 127.036182 122.069981 
L 128.479273 121.555566 
L 129.922364 120.814312 
L 131.365455 119.912651 
L 132.808545 118.909043 
L 134.251636 117.850611 
L 135.694727 116.773244 
L 137.137818 115.703159 
L 138.580909 114.658811 
L 140.024 113.652649 
L 141.467091 112.692575 
L 142.910182 111.783128 
L 144.353273 110.926406 
L 145.796364 110.122788 
L 147.239455 109.371492 
L 148.682545 108.671 
L 150.125636 108.019353 
L 151.568727 107.414364 
L 153.011818 106.85374 
L 154.454909 106.33515 
L 155.898 105.856262 
L 157.341091 105.414758 
L 158.784182 105.008343 
L 160.227273 104.634755 
L 161.670364 104.29176 
L 163.113455 103.977158 
L 164.556545 103.688782 
L 165.999636 103.424516 
L 167.442727 103.18232 
L 168.885818 102.960267 
L 170.328909 102.756583 
L 171.772 102.569678 
L 173.215091 102.39815 
L 174.658182 102.240786 
L 176.101273 102.096532 
L 177.544364 101.964466 
L 178.987455 101.843755 
L 180.430545 101.733632 
L 181.873636 101.633368 
L 183.316727 101.542259 
L 184.759818 101.45962 
L 186.202909 101.384784 
L 187.646 101.317111 
L 189.089091 101.255986 
L 190.532182 101.200827 
L 191.975273 101.151079 
L 193.418364 101.106222 
L 194.861455 101.065768 
L 196.304545 101.029266 
" style="fill:none;opacity:0.45;stroke:#12711c;stroke-dasharray:2.775,1.2;stroke-dashoffset:0;stroke-width:0.75;"/>
   </g>
   <g id="line2d_14">
    <path clip-path="url(#pe44fe38508)" d="M 51.995455 115.207025 
L 53.438545 117.552734 
L 54.881636 119.726957 
L 56.324727 121.68419 
L 57.767818 123.395454 
L 59.210909 124.850089 
L 60.654 126.054613 
L 62.097091 127.029161 
L 63.540182 127.802645 
L 64.983273 128.407898 
L 66.426364 128.877783 
L 67.869455 129.242634 
L 69.312545 129.528948 
L 70.755636 129.758994 
L 72.198727 129.951049 
L 73.641818 130.120024 
L 75.084909 130.278324 
L 76.528 130.436786 
L 77.971091 130.605599 
L 79.414182 130.79514 
L 80.857273 131.016677 
L 82.300364 131.2829 
L 83.743455 131.608218 
L 85.186545 132.008774 
L 86.629636 132.5021 
L 88.072727 133.106291 
L 89.515818 133.838611 
L 90.958909 134.713445 
L 92.402 135.739657 
L 93.845091 136.91757 
L 95.288182 138.236067 
L 96.731273 139.670484 
L 98.174364 141.18211 
L 99.617455 142.719895 
L 101.060545 144.224496 
L 102.503636 145.63411 
L 103.946727 146.890989 
L 105.389818 147.947255 
L 106.832909 148.768971 
L 108.276 149.337951 
L 109.719091 149.65156 
L 111.162182 149.721147 
L 112.605273 149.569998 
L 114.048364 149.231522 
L 115.491455 148.748155 
L 116.934545 148.171086 
L 118.377636 147.560451 
L 119.820727 146.985039 
L 121.263818 146.519722 
L 122.706909 146.238307 
L 124.15 146.200869 
L 125.593091 146.439158 
L 127.036182 146.948538 
L 128.479273 147.692594 
L 129.922364 148.617192 
L 131.365455 149.665082 
L 132.808545 150.78522 
L 134.251636 151.936452 
L 135.694727 153.087685 
L 137.137818 154.216539 
L 138.580909 155.307628 
L 140.024 156.350957 
L 141.467091 157.340578 
L 142.910182 158.273509 
L 144.353273 159.148896 
L 145.796364 159.967346 
L 147.239455 160.730427 
L 148.682545 161.440283 
L 150.125636 162.099369 
L 151.568727 162.710268 
L 153.011818 163.275588 
L 154.454909 163.797907 
L 155.898 164.279758 
L 157.341091 164.723617 
L 158.784182 165.131901 
L 160.227273 165.506975 
L 161.670364 165.851149 
L 163.113455 166.166688 
L 164.556545 166.455808 
L 165.999636 166.720666 
L 167.442727 166.963332 
L 168.885818 167.185759 
L 170.328909 167.389738 
L 171.772 167.576879 
L 173.215091 167.748594 
L 174.658182 167.906107 
L 176.101273 168.050478 
L 177.544364 168.182639 
L 178.987455 168.303424 
L 180.430545 168.413606 
L 181.873636 168.513917 
L 183.316727 168.605063 
L 184.759818 168.687732 
L 186.202909 168.762591 
L 187.646 168.830283 
L 189.089091 168.891423 
L 190.532182 168.946594 
L 191.975273 168.996351 
L 193.418364 169.041215 
L 194.861455 169.081676 
L 196.304545 169.118182 
" style="fill:none;opacity:0.45;stroke:#12711c;stroke-dasharray:2.775,1.2;stroke-dashoffset:0;stroke-width:0.75;"/>
   </g>
   <g id="patch_3">
    <path d="M 44.78 175.96 
L 44.78 25.44 
" style="fill:none;stroke:#262626;stroke-linecap:square;stroke-linejoin:miter;stroke-width:0.8;"/>
   </g>
   <g id="patch_4">
    <path d="M 44.78 175.96 
L 203.52 175.96 
" style="fill:none;stroke:#262626;stroke-linecap:square;stroke-linejoin:miter;stroke-width:0.8;"/>
   </g>
   <g id="text_13">
    <!-- Epik-scan SM05 -->
    <defs>
     <path d="M 7.90625 0 
L 7.90625 71.578125 
L 59.671875 71.578125 
L 59.671875 63.140625 
L 17.390625 63.140625 
L 17.390625 41.21875 
L 56.984375 41.21875 
L 56.984375 32.8125 
L 17.390625 32.8125 
L 17.390625 8.453125 
L 61.328125 8.453125 
L 61.328125 0 
z
" id="ArialMT-45"/>
     <path d="M 6.640625 61.46875 
L 6.640625 71.578125 
L 15.4375 71.578125 
L 15.4375 61.46875 
z
M 6.640625 0 
L 6.640625 51.859375 
L 15.4375 51.859375 
L 15.4375 0 
z
" id="ArialMT-69"/>
     <path d="M 6.640625 0 
L 6.640625 71.578125 
L 15.4375 71.578125 
L 15.4375 30.765625 
L 36.234375 51.859375 
L 47.609375 51.859375 
L 27.78125 32.625 
L 49.609375 0 
L 38.765625 0 
L 21.625 26.515625 
L 15.4375 20.5625 
L 15.4375 0 
z
" id="ArialMT-6b"/>
     <path d="M 3.171875 21.484375 
L 3.171875 30.328125 
L 30.171875 30.328125 
L 30.171875 21.484375 
z
" id="ArialMT-2d"/>
     <path d="M 3.078125 15.484375 
L 11.765625 16.84375 
Q 12.5 11.625 15.84375 8.84375 
Q 19.1875 6.0625 25.203125 6.0625 
Q 31.25 6.0625 34.171875 8.515625 
Q 37.109375 10.984375 37.109375 14.3125 
Q 37.109375 17.28125 34.515625 19 
Q 32.71875 20.171875 25.53125 21.96875 
Q 15.875 24.421875 12.140625 26.203125 
Q 8.40625 27.984375 6.46875 31.125 
Q 4.546875 34.28125 4.546875 38.09375 
Q 4.546875 41.546875 6.125 44.5 
Q 7.71875 47.46875 10.453125 49.421875 
Q 12.5 50.921875 16.03125 51.96875 
Q 19.578125 53.03125 23.640625 53.03125 
Q 29.734375 53.03125 34.34375 51.265625 
Q 38.96875 49.515625 41.15625 46.5 
Q 43.359375 43.5 44.1875 38.484375 
L 35.59375 37.3125 
Q 35.015625 41.3125 32.203125 43.546875 
Q 29.390625 45.796875 24.265625 45.796875 
Q 18.21875 45.796875 15.625 43.796875 
Q 13.03125 41.796875 13.03125 39.109375 
Q 13.03125 37.40625 14.109375 36.03125 
Q 15.1875 34.625 17.484375 33.6875 
Q 18.796875 33.203125 25.25 31.453125 
Q 34.578125 28.953125 38.25 27.359375 
Q 41.9375 25.78125 44.03125 22.75 
Q 46.140625 19.734375 46.140625 15.234375 
Q 46.140625 10.84375 43.578125 6.953125 
Q 41.015625 3.078125 36.171875 0.953125 
Q 31.34375 -1.171875 25.25 -1.171875 
Q 15.140625 -1.171875 9.84375 3.03125 
Q 4.546875 7.234375 3.078125 15.484375 
z
" id="ArialMT-73"/>
     <path d="M 40.4375 19 
L 49.078125 17.875 
Q 47.65625 8.9375 41.8125 3.875 
Q 35.984375 -1.171875 27.484375 -1.171875 
Q 16.84375 -1.171875 10.375 5.78125 
Q 3.90625 12.75 3.90625 25.734375 
Q 3.90625 34.125 6.6875 40.421875 
Q 9.46875 46.734375 15.15625 49.875 
Q 20.84375 53.03125 27.546875 53.03125 
Q 35.984375 53.03125 41.359375 48.75 
Q 46.734375 44.484375 48.25 36.625 
L 39.703125 35.296875 
Q 38.484375 40.53125 35.375 43.15625 
Q 32.28125 45.796875 27.875 45.796875 
Q 21.234375 45.796875 17.078125 41.03125 
Q 12.9375 36.28125 12.9375 25.984375 
Q 12.9375 15.53125 16.9375 10.796875 
Q 20.953125 6.0625 27.390625 6.0625 
Q 32.5625 6.0625 36.03125 9.234375 
Q 39.5 12.40625 40.4375 19 
z
" id="ArialMT-63"/>
     <path d="M 40.4375 6.390625 
Q 35.546875 2.25 31.03125 0.53125 
Q 26.515625 -1.171875 21.34375 -1.171875 
Q 12.796875 -1.171875 8.203125 3 
Q 3.609375 7.171875 3.609375 13.671875 
Q 3.609375 17.484375 5.34375 20.625 
Q 7.078125 23.78125 9.890625 25.6875 
Q 12.703125 27.59375 16.21875 28.5625 
Q 18.796875 29.25 24.03125 29.890625 
Q 34.671875 31.15625 39.703125 32.90625 
Q 39.75 34.71875 39.75 35.203125 
Q 39.75 40.578125 37.25 42.78125 
Q 33.890625 45.75 27.25 45.75 
Q 21.046875 45.75 18.09375 43.578125 
Q 15.140625 41.40625 13.71875 35.890625 
L 5.125 37.0625 
Q 6.296875 42.578125 8.984375 45.96875 
Q 11.671875 49.359375 16.75 51.1875 
Q 21.828125 53.03125 28.515625 53.03125 
Q 35.15625 53.03125 39.296875 51.46875 
Q 43.453125 49.90625 45.40625 47.53125 
Q 47.359375 45.171875 48.140625 41.546875 
Q 48.578125 39.3125 48.578125 33.453125 
L 48.578125 21.734375 
Q 48.578125 9.46875 49.140625 6.21875 
Q 49.703125 2.984375 51.375 0 
L 42.1875 0 
Q 40.828125 2.734375 40.4375 6.390625 
z
M 39.703125 26.03125 
Q 34.90625 24.078125 25.34375 22.703125 
Q 19.921875 21.921875 17.671875 20.9375 
Q 15.4375 19.96875 14.203125 18.09375 
Q 12.984375 16.21875 12.984375 13.921875 
Q 12.984375 10.40625 15.640625 8.0625 
Q 18.3125 5.71875 23.4375 5.71875 
Q 28.515625 5.71875 32.46875 7.9375 
Q 36.421875 10.15625 38.28125 14.015625 
Q 39.703125 17 39.703125 22.796875 
z
" id="ArialMT-61"/>
     <path d="M 6.59375 0 
L 6.59375 51.859375 
L 14.5 51.859375 
L 14.5 44.484375 
Q 20.21875 53.03125 31 53.03125 
Q 35.6875 53.03125 39.625 51.34375 
Q 43.5625 49.65625 45.515625 46.921875 
Q 47.46875 44.1875 48.25 40.4375 
Q 48.734375 37.984375 48.734375 31.890625 
L 48.734375 0 
L 39.9375 0 
L 39.9375 31.546875 
Q 39.9375 36.921875 38.90625 39.578125 
Q 37.890625 42.234375 35.28125 43.8125 
Q 32.671875 45.40625 29.15625 45.40625 
Q 23.53125 45.40625 19.453125 41.84375 
Q 15.375 38.28125 15.375 28.328125 
L 15.375 0 
z
" id="ArialMT-6e"/>
     <path id="ArialMT-20"/>
     <path d="M 4.5 23 
L 13.421875 23.78125 
Q 14.0625 18.40625 16.375 14.96875 
Q 18.703125 11.53125 23.578125 9.40625 
Q 28.46875 7.28125 34.578125 7.28125 
Q 39.984375 7.28125 44.140625 8.890625 
Q 48.296875 10.5 50.3125 13.296875 
Q 52.34375 16.109375 52.34375 19.4375 
Q 52.34375 22.796875 50.390625 25.3125 
Q 48.4375 27.828125 43.953125 29.546875 
Q 41.0625 30.671875 31.203125 33.03125 
Q 21.34375 35.40625 17.390625 37.5 
Q 12.25 40.1875 9.734375 44.15625 
Q 7.234375 48.140625 7.234375 53.078125 
Q 7.234375 58.5 10.296875 63.203125 
Q 13.375 67.921875 19.28125 70.359375 
Q 25.203125 72.796875 32.421875 72.796875 
Q 40.375 72.796875 46.453125 70.234375 
Q 52.546875 67.671875 55.8125 62.6875 
Q 59.078125 57.71875 59.328125 51.421875 
L 50.25 50.734375 
Q 49.515625 57.515625 45.28125 60.984375 
Q 41.0625 64.453125 32.8125 64.453125 
Q 24.21875 64.453125 20.28125 61.296875 
Q 16.359375 58.15625 16.359375 53.71875 
Q 16.359375 49.859375 19.140625 47.359375 
Q 21.875 44.875 33.421875 42.265625 
Q 44.96875 39.65625 49.265625 37.703125 
Q 55.515625 34.8125 58.484375 30.390625 
Q 61.46875 25.984375 61.46875 20.21875 
Q 61.46875 14.5 58.203125 9.4375 
Q 54.9375 4.390625 48.796875 1.578125 
Q 42.671875 -1.21875 35.015625 -1.21875 
Q 25.296875 -1.21875 18.71875 1.609375 
Q 12.15625 4.4375 8.421875 10.125 
Q 4.6875 15.828125 4.5 23 
z
" id="ArialMT-53"/>
     <path d="M 7.421875 0 
L 7.421875 71.578125 
L 21.6875 71.578125 
L 38.625 20.90625 
Q 40.96875 13.8125 42.046875 10.296875 
Q 43.265625 14.203125 45.84375 21.78125 
L 62.984375 71.578125 
L 75.734375 71.578125 
L 75.734375 0 
L 66.609375 0 
L 66.609375 59.90625 
L 45.796875 0 
L 37.25 0 
L 16.546875 60.9375 
L 16.546875 0 
z
" id="ArialMT-4d"/>
     <path d="M 4.15625 18.75 
L 13.375 19.53125 
Q 14.40625 12.796875 18.140625 9.390625 
Q 21.875 6 27.15625 6 
Q 33.5 6 37.890625 10.78125 
Q 42.28125 15.578125 42.28125 23.484375 
Q 42.28125 31 38.0625 35.34375 
Q 33.84375 39.703125 27 39.703125 
Q 22.75 39.703125 19.328125 37.765625 
Q 15.921875 35.84375 13.96875 32.765625 
L 5.71875 33.84375 
L 12.640625 70.609375 
L 48.25 70.609375 
L 48.25 62.203125 
L 19.671875 62.203125 
L 15.828125 42.96875 
Q 22.265625 47.46875 29.34375 47.46875 
Q 38.71875 47.46875 45.15625 40.96875 
Q 51.609375 34.46875 51.609375 24.265625 
Q 51.609375 14.546875 45.953125 7.46875 
Q 39.0625 -1.21875 27.15625 -1.21875 
Q 17.390625 -1.21875 11.203125 4.25 
Q 5.03125 9.71875 4.15625 18.75 
z
" id="ArialMT-35"/>
    </defs>
    <g style="fill:#262626;" transform="translate(80.467188 19.44)scale(0.12 -0.12)">
     <use xlink:href="#ArialMT-45"/>
     <use x="66.699219" xlink:href="#ArialMT-70"/>
     <use x="122.314453" xlink:href="#ArialMT-69"/>
     <use x="144.53125" xlink:href="#ArialMT-6b"/>
     <use x="194.53125" xlink:href="#ArialMT-2d"/>
     <use x="227.832031" xlink:href="#ArialMT-73"/>
     <use x="277.832031" xlink:href="#ArialMT-63"/>
     <use x="327.832031" xlink:href="#ArialMT-61"/>
     <use x="383.447266" xlink:href="#ArialMT-6e"/>
     <use x="439.0625" xlink:href="#ArialMT-20"/>
     <use x="466.845703" xlink:href="#ArialMT-53"/>
     <use x="533.544922" xlink:href="#ArialMT-4d"/>
     <use x="616.845703" xlink:href="#ArialMT-30"/>
     <use x="672.460938" xlink:href="#ArialMT-35"/>
    </g>
   </g>
  </g>
 </g>
 <defs>
  <clipPath id="pe44fe38508">
   <rect height="150.52" width="158.74" x="44.78" y="25.44"/>
  </clipPath>
 </defs>
</svg>
