<?xml version="1.0" encoding="utf-8" standalone="no"?>
<!DOCTYPE svg PUBLIC "-//W3C//DTD SVG 1.1//EN"
  "http://www.w3.org/Graphics/SVG/1.1/DTD/svg11.dtd">
<!-- Created with matplotlib (http://matplotlib.org/) -->
<svg height="144pt" version="1.1" viewBox="0 0 144 144" width="144pt" xmlns="http://www.w3.org/2000/svg" xmlns:xlink="http://www.w3.org/1999/xlink">
 <defs>
  <style type="text/css">
*{stroke-linecap:butt;stroke-linejoin:round;}
  </style>
 </defs>
 <g id="figure_1">
  <g id="patch_1">
   <path d="M 0 144 
L 144 144 
L 144 0 
L 0 0 
z
" style="fill:#ffffff;"/>
  </g>
  <g id="axes_1">
   <g id="patch_2">
    <path d="M 41.96 101.92 
L 130.44 101.92 
L 130.44 27.48 
L 41.96 27.48 
z
" style="fill:#ffffff;"/>
   </g>
   <g id="matplotlib.axis_1">
    <g id="xtick_1">
     <g id="line2d_1">
      <defs>
       <path d="M 0 0 
L 0 3.5 
" id="mc6bc7dfb21" style="stroke:#262626;stroke-width:0.8;"/>
      </defs>
      <g>
       <use style="fill:#262626;stroke:#262626;stroke-width:0.8;" x="45.981818" xlink:href="#mc6bc7dfb21" y="101.92"/>
      </g>
     </g>
     <g id="text_1">
      <!-- 2 -->
      <defs>
       <path d="M 50.34375 8.453125 
L 50.34375 0 
L 3.03125 0 
Q 2.9375 3.171875 4.046875 6.109375 
Q 5.859375 10.9375 9.828125 15.625 
Q 13.8125 20.3125 21.34375 26.46875 
Q 33.015625 36.03125 37.109375 41.625 
Q 41.21875 47.21875 41.21875 52.203125 
Q 41.21875 57.421875 37.46875 61 
Q 33.734375 64.59375 27.734375 64.59375 
Q 21.390625 64.59375 17.578125 60.78125 
Q 13.765625 56.984375 13.71875 50.25 
L 4.6875 51.171875 
Q 5.609375 61.28125 11.65625 66.578125 
Q 17.71875 71.875 27.9375 71.875 
Q 38.234375 71.875 44.234375 66.15625 
Q 50.25 60.453125 50.25 52 
Q 50.25 47.703125 48.484375 43.546875 
Q 46.734375 39.40625 42.65625 34.8125 
Q 38.578125 30.21875 29.109375 22.21875 
Q 21.1875 15.578125 18.9375 13.203125 
Q 16.703125 10.84375 15.234375 8.453125 
z
" id="ArialMT-32"/>
      </defs>
      <g style="fill:#262626;" transform="translate(42.923303 116.793594)scale(0.11 -0.11)">
       <use xlink:href="#ArialMT-32"/>
      </g>
     </g>
    </g>
    <g id="xtick_2">
     <g id="line2d_2">
      <g>
       <use style="fill:#262626;stroke:#262626;stroke-width:0.8;" x="62.069091" xlink:href="#mc6bc7dfb21" y="101.92"/>
      </g>
     </g>
     <g id="text_2">
      <!-- 4 -->
      <defs>
       <path d="M 32.328125 0 
L 32.328125 17.140625 
L 1.265625 17.140625 
L 1.265625 25.203125 
L 33.9375 71.578125 
L 41.109375 71.578125 
L 41.109375 25.203125 
L 50.78125 25.203125 
L 50.78125 17.140625 
L 41.109375 17.140625 
L 41.109375 0 
z
M 32.328125 25.203125 
L 32.328125 57.46875 
L 9.90625 25.203125 
z
" id="ArialMT-34"/>
      </defs>
      <g style="fill:#262626;" transform="translate(59.010575 116.793594)scale(0.11 -0.11)">
       <use xlink:href="#ArialMT-34"/>
      </g>
     </g>
    </g>
    <g id="xtick_3">
     <g id="line2d_3">
      <g>
       <use style="fill:#262626;stroke:#262626;stroke-width:0.8;" x="78.156364" xlink:href="#mc6bc7dfb21" y="101.92"/>
      </g>
     </g>
     <g id="text_3">
      <!-- 6 -->
      <defs>
       <path d="M 49.75 54.046875 
L 41.015625 53.375 
Q 39.84375 58.546875 37.703125 60.890625 
Q 34.125 64.65625 28.90625 64.65625 
Q 24.703125 64.65625 21.53125 62.3125 
Q 17.390625 59.28125 14.984375 53.46875 
Q 12.59375 47.65625 12.5 36.921875 
Q 15.671875 41.75 20.265625 44.09375 
Q 24.859375 46.4375 29.890625 46.4375 
Q 38.671875 46.4375 44.84375 39.96875 
Q 51.03125 33.5 51.03125 23.25 
Q 51.03125 16.5 48.125 10.71875 
Q 45.21875 4.9375 40.140625 1.859375 
Q 35.0625 -1.21875 28.609375 -1.21875 
Q 17.625 -1.21875 10.6875 6.859375 
Q 3.765625 14.9375 3.765625 33.5 
Q 3.765625 54.25 11.421875 63.671875 
Q 18.109375 71.875 29.4375 71.875 
Q 37.890625 71.875 43.28125 67.140625 
Q 48.6875 62.40625 49.75 54.046875 
z
M 13.875 23.1875 
Q 13.875 18.65625 15.796875 14.5 
Q 17.71875 10.359375 21.1875 8.171875 
Q 24.65625 6 28.46875 6 
Q 34.03125 6 38.03125 10.484375 
Q 42.046875 14.984375 42.046875 22.703125 
Q 42.046875 30.125 38.078125 34.390625 
Q 34.125 38.671875 28.125 38.671875 
Q 22.171875 38.671875 18.015625 34.390625 
Q 13.875 30.125 13.875 23.1875 
z
" id="ArialMT-36"/>
      </defs>
      <g style="fill:#262626;" transform="translate(75.097848 116.793594)scale(0.11 -0.11)">
       <use xlink:href="#ArialMT-36"/>
      </g>
     </g>
    </g>
    <g id="xtick_4">
     <g id="line2d_4">
      <g>
       <use style="fill:#262626;stroke:#262626;stroke-width:0.8;" x="94.243636" xlink:href="#mc6bc7dfb21" y="101.92"/>
      </g>
     </g>
     <g id="text_4">
      <!-- 8 -->
      <defs>
       <path d="M 17.671875 38.8125 
Q 12.203125 40.828125 9.5625 44.53125 
Q 6.9375 48.25 6.9375 53.421875 
Q 6.9375 61.234375 12.546875 66.546875 
Q 18.171875 71.875 27.484375 71.875 
Q 36.859375 71.875 42.578125 66.421875 
Q 48.296875 60.984375 48.296875 53.171875 
Q 48.296875 48.1875 45.671875 44.5 
Q 43.0625 40.828125 37.75 38.8125 
Q 44.34375 36.671875 47.78125 31.875 
Q 51.21875 27.09375 51.21875 20.453125 
Q 51.21875 11.28125 44.71875 5.03125 
Q 38.234375 -1.21875 27.640625 -1.21875 
Q 17.046875 -1.21875 10.546875 5.046875 
Q 4.046875 11.328125 4.046875 20.703125 
Q 4.046875 27.6875 7.59375 32.390625 
Q 11.140625 37.109375 17.671875 38.8125 
z
M 15.921875 53.71875 
Q 15.921875 48.640625 19.1875 45.40625 
Q 22.46875 42.1875 27.6875 42.1875 
Q 32.765625 42.1875 36.015625 45.375 
Q 39.265625 48.578125 39.265625 53.21875 
Q 39.265625 58.0625 35.90625 61.359375 
Q 32.5625 64.65625 27.59375 64.65625 
Q 22.5625 64.65625 19.234375 61.421875 
Q 15.921875 58.203125 15.921875 53.71875 
z
M 13.09375 20.65625 
Q 13.09375 16.890625 14.875 13.375 
Q 16.65625 9.859375 20.171875 7.921875 
Q 23.6875 6 27.734375 6 
Q 34.03125 6 38.125 10.046875 
Q 42.234375 14.109375 42.234375 20.359375 
Q 42.234375 26.703125 38.015625 30.859375 
Q 33.796875 35.015625 27.4375 35.015625 
Q 21.234375 35.015625 17.15625 30.90625 
Q 13.09375 26.8125 13.09375 20.65625 
z
" id="ArialMT-38"/>
      </defs>
      <g style="fill:#262626;" transform="translate(91.185121 116.793594)scale(0.11 -0.11)">
       <use xlink:href="#ArialMT-38"/>
      </g>
     </g>
    </g>
    <g id="xtick_5">
     <g id="line2d_5">
      <g>
       <use style="fill:#262626;stroke:#262626;stroke-width:0.8;" x="110.330909" xlink:href="#mc6bc7dfb21" y="101.92"/>
      </g>
     </g>
     <g id="text_5">
      <!-- 10 -->
      <defs>
       <path d="M 37.25 0 
L 28.46875 0 
L 28.46875 56 
Q 25.296875 52.984375 20.140625 49.953125 
Q 14.984375 46.921875 10.890625 45.40625 
L 10.890625 53.90625 
Q 18.265625 57.375 23.78125 62.296875 
Q 29.296875 67.234375 31.59375 71.875 
L 37.25 71.875 
z
" id="ArialMT-31"/>
       <path d="M 4.15625 35.296875 
Q 4.15625 48 6.765625 55.734375 
Q 9.375 63.484375 14.515625 67.671875 
Q 19.671875 71.875 27.484375 71.875 
Q 33.25 71.875 37.59375 69.546875 
Q 41.9375 67.234375 44.765625 62.859375 
Q 47.609375 58.5 49.21875 52.21875 
Q 50.828125 45.953125 50.828125 35.296875 
Q 50.828125 22.703125 48.234375 14.96875 
Q 45.65625 7.234375 40.5 3 
Q 35.359375 -1.21875 27.484375 -1.21875 
Q 17.140625 -1.21875 11.234375 6.203125 
Q 4.15625 15.140625 4.15625 35.296875 
z
M 13.1875 35.296875 
Q 13.1875 17.671875 17.3125 11.828125 
Q 21.4375 6 27.484375 6 
Q 33.546875 6 37.671875 11.859375 
Q 41.796875 17.71875 41.796875 35.296875 
Q 41.796875 52.984375 37.671875 58.78125 
Q 33.546875 64.59375 27.390625 64.59375 
Q 21.34375 64.59375 17.71875 59.46875 
Q 13.1875 52.9375 13.1875 35.296875 
z
" id="ArialMT-30"/>
      </defs>
      <g style="fill:#262626;" transform="translate(104.213878 116.793594)scale(0.11 -0.11)">
       <use xlink:href="#ArialMT-31"/>
       <use x="55.615234" xlink:href="#ArialMT-30"/>
      </g>
     </g>
    </g>
    <g id="xtick_6">
     <g id="line2d_6">
      <g>
       <use style="fill:#262626;stroke:#262626;stroke-width:0.8;" x="126.418182" xlink:href="#mc6bc7dfb21" y="101.92"/>
      </g>
     </g>
     <g id="text_6">
      <!-- 12 -->
      <g style="fill:#262626;" transform="translate(120.301151 116.793594)scale(0.11 -0.11)">
       <use xlink:href="#ArialMT-31"/>
       <use x="55.615234" xlink:href="#ArialMT-32"/>
      </g>
     </g>
    </g>
    <g id="text_7">
     <!-- pH -->
     <defs>
      <path d="M 6.59375 -19.875 
L 6.59375 51.859375 
L 14.59375 51.859375 
L 14.59375 45.125 
Q 17.4375 49.078125 21 51.046875 
Q 24.5625 53.03125 29.640625 53.03125 
Q 36.28125 53.03125 41.359375 49.609375 
Q 46.4375 46.1875 49.015625 39.953125 
Q 51.609375 33.734375 51.609375 26.3125 
Q 51.609375 18.359375 48.75 11.984375 
Q 45.90625 5.609375 40.453125 2.21875 
Q 35.015625 -1.171875 29 -1.171875 
Q 24.609375 -1.171875 21.109375 0.6875 
Q 17.625 2.546875 15.375 5.375 
L 15.375 -19.875 
z
M 14.546875 25.640625 
Q 14.546875 15.625 18.59375 10.84375 
Q 22.65625 6.0625 28.421875 6.0625 
Q 34.28125 6.0625 38.453125 11.015625 
Q 42.625 15.96875 42.625 26.375 
Q 42.625 36.28125 38.546875 41.203125 
Q 34.46875 46.140625 28.8125 46.140625 
Q 23.1875 46.140625 18.859375 40.890625 
Q 14.546875 35.640625 14.546875 25.640625 
z
" id="ArialMT-70"/>
      <path d="M 8.015625 0 
L 8.015625 71.578125 
L 17.484375 71.578125 
L 17.484375 42.1875 
L 54.6875 42.1875 
L 54.6875 71.578125 
L 64.15625 71.578125 
L 64.15625 0 
L 54.6875 0 
L 54.6875 33.734375 
L 17.484375 33.734375 
L 17.484375 0 
z
" id="ArialMT-48"/>
     </defs>
     <g style="fill:#262626;" transform="translate(79.169453 130.853437)scale(0.11 -0.11)">
      <use xlink:href="#ArialMT-70"/>
      <use x="55.615234" xlink:href="#ArialMT-48"/>
     </g>
    </g>
   </g>
   <g id="matplotlib.axis_2">
    <g id="ytick_1">
     <g id="line2d_7">
      <defs>
       <path d="M 0 0 
L -3.5 0 
" id="m064c679fc5" style="stroke:#262626;stroke-width:0.8;"/>
      </defs>
      <g>
       <use style="fill:#262626;stroke:#262626;stroke-width:0.8;" x="41.96" xlink:href="#m064c679fc5" y="96.151373"/>
      </g>
     </g>
     <g id="text_8">
      <!-- 0 -->
      <g style="fill:#262626;" transform="translate(28.842969 100.088169)scale(0.11 -0.11)">
       <use xlink:href="#ArialMT-30"/>
      </g>
     </g>
    </g>
    <g id="ytick_2">
     <g id="line2d_8">
      <g>
       <use style="fill:#262626;stroke:#262626;stroke-width:0.8;" x="41.96" xlink:href="#m064c679fc5" y="63.323421"/>
      </g>
     </g>
     <g id="text_9">
      <!-- 1 -->
      <g style="fill:#262626;" transform="translate(28.842969 67.260218)scale(0.11 -0.11)">
       <use xlink:href="#ArialMT-31"/>
      </g>
     </g>
    </g>
    <g id="ytick_3">
     <g id="line2d_9">
      <g>
       <use style="fill:#262626;stroke:#262626;stroke-width:0.8;" x="41.96" xlink:href="#m064c679fc5" y="30.49547"/>
      </g>
     </g>
     <g id="text_10">
      <!-- 2 -->
      <g style="fill:#262626;" transform="translate(28.842969 34.432267)scale(0.11 -0.11)">
       <use xlink:href="#ArialMT-32"/>
      </g>
     </g>
    </g>
    <g id="text_11">
     <!-- $\langle q_\mathsf{total} \rangle$ -->
     <defs>
      <path d="M 8.9375 31.34375 
L 22.703125 75.875 
L 31 75.875 
L 17.234375 31.34375 
L 31 -13.1875 
L 22.703125 -13.1875 
z
" id="DejaVuSans-27e8"/>
      <path d="M 41.703125 8.203125 
Q 38.09375 3.46875 33.171875 1.015625 
Q 28.265625 -1.421875 22.3125 -1.421875 
Q 14.015625 -1.421875 9.296875 4.171875 
Q 4.59375 9.765625 4.59375 19.578125 
Q 4.59375 27.484375 7.5 34.859375 
Q 10.40625 42.234375 15.828125 48.09375 
Q 19.34375 51.90625 23.90625 53.953125 
Q 28.46875 56 33.5 56 
Q 39.546875 56 43.453125 53.609375 
Q 47.359375 51.21875 49.125 46.390625 
L 50.6875 54.59375 
L 59.71875 54.59375 
L 45.125 -20.609375 
L 36.078125 -20.609375 
z
M 13.921875 20.90625 
Q 13.921875 13.671875 16.9375 9.890625 
Q 19.96875 6.109375 25.6875 6.109375 
Q 34.1875 6.109375 40.1875 14.234375 
Q 46.1875 22.359375 46.1875 33.984375 
Q 46.1875 41.015625 43.078125 44.75 
Q 39.984375 48.484375 34.1875 48.484375 
Q 29.9375 48.484375 26.3125 46.5 
Q 22.703125 44.53125 20.015625 40.71875 
Q 17.1875 36.71875 15.546875 31.34375 
Q 13.921875 25.984375 13.921875 20.90625 
z
" id="DejaVuSans-Oblique-71"/>
      <path d="M 18.3125 70.21875 
L 18.3125 54.6875 
L 36.8125 54.6875 
L 36.8125 47.703125 
L 18.3125 47.703125 
L 18.3125 18.015625 
Q 18.3125 11.328125 20.140625 9.421875 
Q 21.96875 7.515625 27.59375 7.515625 
L 36.8125 7.515625 
L 36.8125 0 
L 27.59375 0 
Q 17.1875 0 13.234375 3.875 
Q 9.28125 7.765625 9.28125 18.015625 
L 9.28125 47.703125 
L 2.6875 47.703125 
L 2.6875 54.6875 
L 9.28125 54.6875 
L 9.28125 70.21875 
z
" id="DejaVuSans-74"/>
      <path d="M 30.609375 48.390625 
Q 23.390625 48.390625 19.1875 42.75 
Q 14.984375 37.109375 14.984375 27.296875 
Q 14.984375 17.484375 19.15625 11.84375 
Q 23.34375 6.203125 30.609375 6.203125 
Q 37.796875 6.203125 41.984375 11.859375 
Q 46.1875 17.53125 46.1875 27.296875 
Q 46.1875 37.015625 41.984375 42.703125 
Q 37.796875 48.390625 30.609375 48.390625 
z
M 30.609375 56 
Q 42.328125 56 49.015625 48.375 
Q 55.71875 40.765625 55.71875 27.296875 
Q 55.71875 13.875 49.015625 6.21875 
Q 42.328125 -1.421875 30.609375 -1.421875 
Q 18.84375 -1.421875 12.171875 6.21875 
Q 5.515625 13.875 5.515625 27.296875 
Q 5.515625 40.765625 12.171875 48.375 
Q 18.84375 56 30.609375 56 
z
" id="DejaVuSans-6f"/>
      <path d="M 34.28125 27.484375 
Q 23.390625 27.484375 19.1875 25 
Q 14.984375 22.515625 14.984375 16.5 
Q 14.984375 11.71875 18.140625 8.90625 
Q 21.296875 6.109375 26.703125 6.109375 
Q 34.1875 6.109375 38.703125 11.40625 
Q 43.21875 16.703125 43.21875 25.484375 
L 43.21875 27.484375 
z
M 52.203125 31.203125 
L 52.203125 0 
L 43.21875 0 
L 43.21875 8.296875 
Q 40.140625 3.328125 35.546875 0.953125 
Q 30.953125 -1.421875 24.3125 -1.421875 
Q 15.921875 -1.421875 10.953125 3.296875 
Q 6 8.015625 6 15.921875 
Q 6 25.140625 12.171875 29.828125 
Q 18.359375 34.515625 30.609375 34.515625 
L 43.21875 34.515625 
L 43.21875 35.40625 
Q 43.21875 41.609375 39.140625 45 
Q 35.0625 48.390625 27.6875 48.390625 
Q 23 48.390625 18.546875 47.265625 
Q 14.109375 46.140625 10.015625 43.890625 
L 10.015625 52.203125 
Q 14.9375 54.109375 19.578125 55.046875 
Q 24.21875 56 28.609375 56 
Q 40.484375 56 46.34375 49.84375 
Q 52.203125 43.703125 52.203125 31.203125 
z
" id="DejaVuSans-61"/>
      <path d="M 9.421875 75.984375 
L 18.40625 75.984375 
L 18.40625 0 
L 9.421875 0 
z
" id="DejaVuSans-6c"/>
      <path d="M 30.078125 31.34375 
L 16.3125 -13.1875 
L 8.015625 -13.1875 
L 21.78125 31.34375 
L 8.015625 75.875 
L 16.3125 75.875 
z
" id="DejaVuSans-27e9"/>
     </defs>
     <g style="fill:#262626;" transform="translate(22.532969 81.475)rotate(-90)scale(0.11 -0.11)">
      <use transform="translate(0 0.125)" xlink:href="#DejaVuSans-27e8"/>
      <use transform="translate(39.013672 0.125)" xlink:href="#DejaVuSans-Oblique-71"/>
      <use transform="translate(102.490234 -16.28125)scale(0.7)" xlink:href="#DejaVuSans-74"/>
      <use transform="translate(129.936523 -16.28125)scale(0.7)" xlink:href="#DejaVuSans-6f"/>
      <use transform="translate(172.763672 -16.28125)scale(0.7)" xlink:href="#DejaVuSans-74"/>
      <use transform="translate(200.209961 -16.28125)scale(0.7)" xlink:href="#DejaVuSans-61"/>
      <use transform="translate(243.105469 -16.28125)scale(0.7)" xlink:href="#DejaVuSans-6c"/>
      <use transform="translate(265.288086 0.125)" xlink:href="#DejaVuSans-27e9"/>
     </g>
    </g>
   </g>
   <g id="PolyCollection_1">
    <defs>
     <path d="M 45.981818 -80.671005 
L 45.981818 -80.671005 
L 46.786182 -80.669562 
L 47.590545 -80.667745 
L 48.394909 -80.665459 
L 49.199273 -80.662581 
L 50.003636 -80.658958 
L 50.808 -80.654399 
L 51.612364 -80.648661 
L 52.416727 -80.64144 
L 53.221091 -80.632355 
L 54.025455 -80.620923 
L 54.829818 -80.606543 
L 55.634182 -80.588458 
L 56.438545 -80.565719 
L 57.242909 -80.537136 
L 58.047273 -80.501224 
L 58.851636 -80.456125 
L 59.656 -80.399525 
L 60.460364 -80.32855 
L 61.264727 -80.239636 
L 62.069091 -80.12839 
L 62.873455 -79.989421 
L 63.677818 -79.816161 
L 64.482182 -79.600679 
L 65.286545 -79.333498 
L 66.090909 -79.003465 
L 66.895273 -78.597687 
L 67.699636 -78.10163 
L 68.504 -77.499437 
L 69.308364 -76.774576 
L 70.112727 -75.910918 
L 70.917091 -74.894313 
L 71.721455 -73.714649 
L 72.525818 -72.368248 
L 73.330182 -70.860279 
L 74.134545 -69.206644 
L 74.938909 -67.434741 
L 75.743273 -65.582557 
L 76.547636 -63.69591 
L 77.352 -61.824136 
L 78.156364 -60.015042 
L 78.960727 -58.310179 
L 79.765091 -56.741392 
L 80.569455 -55.329176 
L 81.373818 -54.082814 
L 82.178182 -53.001895 
L 82.982545 -52.078581 
L 83.786909 -51.300067 
L 84.591273 -50.650796 
L 85.395636 -50.114245 
L 86.2 -49.674184 
L 87.004364 -49.315496 
L 87.808727 -49.02461 
L 88.613091 -48.789677 
L 89.417455 -48.600563 
L 90.221818 -48.448738 
L 91.026182 -48.327111 
L 91.830545 -48.229843 
L 92.634909 -48.152163 
L 93.439273 -48.090194 
L 94.243636 -48.040801 
L 95.048 -48.00146 
L 95.852364 -47.970143 
L 96.656727 -47.945225 
L 97.461091 -47.925404 
L 98.265455 -47.909642 
L 99.069818 -47.897112 
L 99.874182 -47.887152 
L 100.678545 -47.879236 
L 101.482909 -47.872945 
L 102.287273 -47.867947 
L 103.091636 -47.863975 
L 103.896 -47.86082 
L 104.700364 -47.858313 
L 105.504727 -47.856321 
L 106.309091 -47.854739 
L 107.113455 -47.853482 
L 107.917818 -47.852484 
L 108.722182 -47.851691 
L 109.526545 -47.851061 
L 110.330909 -47.85056 
L 111.135273 -47.850163 
L 111.939636 -47.849847 
L 112.744 -47.849596 
L 113.548364 -47.849397 
L 114.352727 -47.849239 
L 115.157091 -47.849113 
L 115.961455 -47.849013 
L 116.765818 -47.848934 
L 117.570182 -47.848871 
L 118.374545 -47.848821 
L 119.178909 -47.848781 
L 119.983273 -47.848749 
L 120.787636 -47.848724 
L 121.592 -47.848704 
L 122.396364 -47.848689 
L 123.200727 -47.848676 
L 124.005091 -47.848666 
L 124.809455 -47.848658 
L 125.613818 -47.848652 
L 126.418182 -47.848647 
L 126.418182 -47.848647 
L 126.418182 -45.463636 
L 125.613818 -45.925425 
L 124.809455 -46.302342 
L 124.005091 -46.608355 
L 123.200727 -46.855729 
L 122.396364 -47.055004 
L 121.592 -47.215081 
L 120.787636 -47.343379 
L 119.983273 -47.446021 
L 119.178909 -47.528019 
L 118.374545 -47.593449 
L 117.570182 -47.64561 
L 116.765818 -47.687163 
L 115.961455 -47.720246 
L 115.157091 -47.746574 
L 114.352727 -47.767519 
L 113.548364 -47.784177 
L 112.744 -47.797423 
L 111.939636 -47.807955 
L 111.135273 -47.81633 
L 110.330909 -47.82299 
L 109.526545 -47.828288 
L 108.722182 -47.832504 
L 107.917818 -47.835864 
L 107.113455 -47.838544 
L 106.309091 -47.840689 
L 105.504727 -47.84241 
L 104.700364 -47.843801 
L 103.896 -47.844935 
L 103.091636 -47.845872 
L 102.287273 -47.846663 
L 101.482909 -47.847349 
L 100.678545 -47.847967 
L 99.874182 -47.84855 
L 99.069818 -47.849129 
L 98.265455 -47.849734 
L 97.461091 -47.850398 
L 96.656727 -47.851157 
L 95.852364 -47.85205 
L 95.048 -47.853126 
L 94.243636 -47.854441 
L 93.439273 -47.856066 
L 92.634909 -47.858087 
L 91.830545 -47.860611 
L 91.026182 -47.863774 
L 90.221818 -47.867743 
L 89.417455 -47.87273 
L 88.613091 -47.879001 
L 87.808727 -47.886889 
L 87.004364 -47.896814 
L 86.2 -47.909305 
L 85.395636 -47.925027 
L 84.591273 -47.944816 
L 83.786909 -47.969725 
L 82.982545 -48.001081 
L 82.178182 -48.04055 
L 81.373818 -48.090233 
L 80.569455 -48.152768 
L 79.765091 -48.231479 
L 78.960727 -48.330541 
L 78.156364 -48.455206 
L 77.352 -48.612067 
L 76.547636 -48.809402 
L 75.743273 -49.057583 
L 74.938909 -49.36958 
L 74.134545 -49.761565 
L 73.330182 -50.253609 
L 72.525818 -50.870452 
L 71.721455 -51.642283 
L 70.917091 -52.605381 
L 70.112727 -53.802377 
L 69.308364 -55.281669 
L 68.504 -57.095366 
L 67.699636 -59.294919 
L 66.895273 -61.923649 
L 66.090909 -65.005984 
L 65.286545 -68.534555 
L 64.482182 -72.45847 
L 63.677818 -76.677915 
L 62.873455 -81.050062 
L 62.069091 -85.407689 
L 61.264727 -89.585956 
L 60.460364 -93.448362 
L 59.656 -96.903348 
L 58.851636 -99.908049 
L 58.047273 -102.46142 
L 57.242909 -104.591978 
L 56.438545 -106.345103 
L 55.634182 -107.77279 
L 54.829818 -108.926752 
L 54.025455 -109.854501 
L 53.221091 -110.597597 
L 52.416727 -111.191254 
L 51.612364 -111.664682 
L 50.808 -112.041769 
L 50.003636 -112.341872 
L 49.199273 -112.580572 
L 48.394909 -112.770358 
L 47.590545 -112.921213 
L 46.786182 -113.0411 
L 45.981818 -113.136364 
z
" id="m3ecb352989" style="stroke:#ffffff;stroke-opacity:0.7;"/>
    </defs>
    <g clip-path="url(#p8b3ad706b2)">
     <use style="fill:#12711c;fill-opacity:0.7;stroke:#ffffff;stroke-opacity:0.7;" x="0" xlink:href="#m3ecb352989" y="144"/>
    </g>
   </g>
   <g id="line2d_10">
    <path clip-path="url(#p8b3ad706b2)" d="M 45.981818 63.328995 
L 46.786182 63.330438 
L 47.590545 63.332255 
L 48.394909 63.334541 
L 49.199273 63.337419 
L 50.003636 63.341042 
L 50.808 63.345601 
L 51.612364 63.351339 
L 52.416727 63.35856 
L 53.221091 63.367645 
L 54.025455 63.379077 
L 54.829818 63.393457 
L 55.634182 63.411542 
L 56.438545 63.434281 
L 57.242909 63.462864 
L 58.047273 63.498776 
L 58.851636 63.543875 
L 59.656 63.600475 
L 60.460364 63.67145 
L 61.264727 63.760364 
L 62.069091 63.87161 
L 62.873455 64.010579 
L 63.677818 64.183839 
L 64.482182 64.399321 
L 65.286545 64.666502 
L 66.090909 64.996535 
L 66.895273 65.402313 
L 67.699636 65.89837 
L 68.504 66.500563 
L 69.308364 67.225424 
L 70.112727 68.089082 
L 70.917091 69.105687 
L 71.721455 70.285351 
L 72.525818 71.631752 
L 73.330182 73.139721 
L 74.134545 74.793356 
L 74.938909 76.565259 
L 75.743273 78.417443 
L 76.547636 80.30409 
L 77.352 82.175864 
L 78.156364 83.984958 
L 78.960727 85.689821 
L 79.765091 87.258608 
L 80.569455 88.670824 
L 81.373818 89.917186 
L 82.178182 90.998105 
L 82.982545 91.921419 
L 83.786909 92.699933 
L 84.591273 93.349204 
L 85.395636 93.885755 
L 86.2 94.325816 
L 87.004364 94.684504 
L 87.808727 94.97539 
L 88.613091 95.210323 
L 89.417455 95.399437 
L 90.221818 95.551262 
L 91.026182 95.672889 
L 91.830545 95.770157 
L 92.634909 95.847837 
L 93.439273 95.909806 
L 94.243636 95.959199 
L 95.048 95.99854 
L 95.852364 96.029857 
L 96.656727 96.054775 
L 97.461091 96.074596 
L 98.265455 96.090358 
L 99.069818 96.102888 
L 99.874182 96.112848 
L 100.678545 96.120764 
L 101.482909 96.127055 
L 102.287273 96.132053 
L 103.091636 96.136025 
L 103.896 96.13918 
L 104.700364 96.141687 
L 105.504727 96.143679 
L 106.309091 96.145261 
L 107.113455 96.146518 
L 107.917818 96.147516 
L 108.722182 96.148309 
L 109.526545 96.148939 
L 110.330909 96.14944 
L 111.135273 96.149837 
L 111.939636 96.150153 
L 112.744 96.150404 
L 113.548364 96.150603 
L 114.352727 96.150761 
L 115.157091 96.150887 
L 115.961455 96.150987 
L 116.765818 96.151066 
L 117.570182 96.151129 
L 118.374545 96.151179 
L 119.178909 96.151219 
L 119.983273 96.151251 
L 120.787636 96.151276 
L 121.592 96.151296 
L 122.396364 96.151311 
L 123.200727 96.151324 
L 124.005091 96.151334 
L 124.809455 96.151342 
L 125.613818 96.151348 
L 126.418182 96.151353 
" style="fill:none;stroke:#333333;stroke-dasharray:1.5,2.475;stroke-dashoffset:0;stroke-width:1.5;"/>
   </g>
   <g id="line2d_11">
    <path clip-path="url(#p8b3ad706b2)" d="M 45.981818 30.863636 
L 46.786182 30.9589 
L 47.590545 31.078787 
L 48.394909 31.229642 
L 49.199273 31.419428 
L 50.003636 31.658128 
L 50.808 31.958231 
L 51.612364 32.335318 
L 52.416727 32.808746 
L 53.221091 33.402403 
L 54.025455 34.145499 
L 54.829818 35.073248 
L 55.634182 36.22721 
L 56.438545 37.654897 
L 57.242909 39.408022 
L 58.047273 41.53858 
L 58.851636 44.091951 
L 59.656 47.096652 
L 60.460364 50.551638 
L 61.264727 54.414044 
L 62.069091 58.592311 
L 62.873455 62.949938 
L 63.677818 67.322085 
L 64.482182 71.54153 
L 65.286545 75.465445 
L 66.090909 78.994016 
L 66.895273 82.076351 
L 67.699636 84.705081 
L 68.504 86.904634 
L 69.308364 88.718331 
L 70.112727 90.197623 
L 70.917091 91.394619 
L 71.721455 92.357717 
L 72.525818 93.129548 
L 73.330182 93.746391 
L 74.134545 94.238435 
L 74.938909 94.63042 
L 75.743273 94.942417 
L 76.547636 95.190598 
L 77.352 95.387933 
L 78.156364 95.544794 
L 78.960727 95.669459 
L 79.765091 95.768521 
L 80.569455 95.847232 
L 81.373818 95.909767 
L 82.178182 95.95945 
L 82.982545 95.998919 
L 83.786909 96.030275 
L 84.591273 96.055184 
L 85.395636 96.074973 
L 86.2 96.090695 
L 87.004364 96.103186 
L 87.808727 96.113111 
L 88.613091 96.120999 
L 89.417455 96.12727 
L 90.221818 96.132257 
L 91.026182 96.136226 
L 91.830545 96.139389 
L 92.634909 96.141913 
L 93.439273 96.143934 
L 94.243636 96.145559 
L 95.048 96.146874 
L 95.852364 96.14795 
L 96.656727 96.148843 
L 97.461091 96.149602 
L 98.265455 96.150266 
L 99.069818 96.150871 
L 99.874182 96.15145 
L 100.678545 96.152033 
L 101.482909 96.152651 
L 102.287273 96.153337 
L 103.091636 96.154128 
L 103.896 96.155065 
L 104.700364 96.156199 
L 105.504727 96.15759 
L 106.309091 96.159311 
L 107.113455 96.161456 
L 107.917818 96.164136 
L 108.722182 96.167496 
L 109.526545 96.171712 
L 110.330909 96.17701 
L 111.135273 96.18367 
L 111.939636 96.192045 
L 112.744 96.202577 
L 113.548364 96.215823 
L 114.352727 96.232481 
L 115.157091 96.253426 
L 115.961455 96.279754 
L 116.765818 96.312837 
L 117.570182 96.35439 
L 118.374545 96.406551 
L 119.178909 96.471981 
L 119.983273 96.553979 
L 120.787636 96.656621 
L 121.592 96.784919 
L 122.396364 96.944996 
L 123.200727 97.144271 
L 124.005091 97.391645 
L 124.809455 97.697658 
L 125.613818 98.074575 
L 126.418182 98.536364 
" style="fill:none;stroke:#333333;stroke-linecap:round;stroke-width:1.5;"/>
   </g>
   <g id="patch_3">
    <path d="M 41.96 101.92 
L 41.96 27.48 
" style="fill:none;stroke:#262626;stroke-linecap:square;stroke-linejoin:miter;stroke-width:0.8;"/>
   </g>
   <g id="patch_4">
    <path d="M 41.96 101.92 
L 130.44 101.92 
" style="fill:none;stroke:#262626;stroke-linecap:square;stroke-linejoin:miter;stroke-width:0.8;"/>
   </g>
   <g id="text_12">
    <!-- $\Delta$ area : 2.81 -->
    <defs>
     <path d="M 34.1875 63.1875 
L 14.15625 8.203125 
L 54.25 8.203125 
z
M 0.78125 0 
L 28.609375 72.90625 
L 39.796875 72.90625 
L 67.578125 0 
z
" id="DejaVuSans-394"/>
     <path id="ArialMT-20"/>
     <path d="M 40.4375 6.390625 
Q 35.546875 2.25 31.03125 0.53125 
Q 26.515625 -1.171875 21.34375 -1.171875 
Q 12.796875 -1.171875 8.203125 3 
Q 3.609375 7.171875 3.609375 13.671875 
Q 3.609375 17.484375 5.34375 20.625 
Q 7.078125 23.78125 9.890625 25.6875 
Q 12.703125 27.59375 16.21875 28.5625 
Q 18.796875 29.25 24.03125 29.890625 
Q 34.671875 31.15625 39.703125 32.90625 
Q 39.75 34.71875 39.75 35.203125 
Q 39.75 40.578125 37.25 42.78125 
Q 33.890625 45.75 27.25 45.75 
Q 21.046875 45.75 18.09375 43.578125 
Q 15.140625 41.40625 13.71875 35.890625 
L 5.125 37.0625 
Q 6.296875 42.578125 8.984375 45.96875 
Q 11.671875 49.359375 16.75 51.1875 
Q 21.828125 53.03125 28.515625 53.03125 
Q 35.15625 53.03125 39.296875 51.46875 
Q 43.453125 49.90625 45.40625 47.53125 
Q 47.359375 45.171875 48.140625 41.546875 
Q 48.578125 39.3125 48.578125 33.453125 
L 48.578125 21.734375 
Q 48.578125 9.46875 49.140625 6.21875 
Q 49.703125 2.984375 51.375 0 
L 42.1875 0 
Q 40.828125 2.734375 40.4375 6.390625 
z
M 39.703125 26.03125 
Q 34.90625 24.078125 25.34375 22.703125 
Q 19.921875 21.921875 17.671875 20.9375 
Q 15.4375 19.96875 14.203125 18.09375 
Q 12.984375 16.21875 12.984375 13.921875 
Q 12.984375 10.40625 15.640625 8.0625 
Q 18.3125 5.71875 23.4375 5.71875 
Q 28.515625 5.71875 32.46875 7.9375 
Q 36.421875 10.15625 38.28125 14.015625 
Q 39.703125 17 39.703125 22.796875 
z
" id="ArialMT-61"/>
     <path d="M 6.5 0 
L 6.5 51.859375 
L 14.40625 51.859375 
L 14.40625 44 
Q 17.4375 49.515625 20 51.265625 
Q 22.5625 53.03125 25.640625 53.03125 
Q 30.078125 53.03125 34.671875 50.203125 
L 31.640625 42.046875 
Q 28.421875 43.953125 25.203125 43.953125 
Q 22.3125 43.953125 20.015625 42.21875 
Q 17.71875 40.484375 16.75 37.40625 
Q 15.28125 32.71875 15.28125 27.15625 
L 15.28125 0 
z
" id="ArialMT-72"/>
     <path d="M 42.09375 16.703125 
L 51.171875 15.578125 
Q 49.03125 7.625 43.21875 3.21875 
Q 37.40625 -1.171875 28.375 -1.171875 
Q 17 -1.171875 10.328125 5.828125 
Q 3.65625 12.84375 3.65625 25.484375 
Q 3.65625 38.578125 10.390625 45.796875 
Q 17.140625 53.03125 27.875 53.03125 
Q 38.28125 53.03125 44.875 45.953125 
Q 51.46875 38.875 51.46875 26.03125 
Q 51.46875 25.25 51.421875 23.6875 
L 12.75 23.6875 
Q 13.234375 15.140625 17.578125 10.59375 
Q 21.921875 6.0625 28.421875 6.0625 
Q 33.25 6.0625 36.671875 8.59375 
Q 40.09375 11.140625 42.09375 16.703125 
z
M 13.234375 30.90625 
L 42.1875 30.90625 
Q 41.609375 37.453125 38.875 40.71875 
Q 34.671875 45.796875 27.984375 45.796875 
Q 21.921875 45.796875 17.796875 41.75 
Q 13.671875 37.703125 13.234375 30.90625 
z
" id="ArialMT-65"/>
     <path d="M 9.03125 41.84375 
L 9.03125 51.859375 
L 19.046875 51.859375 
L 19.046875 41.84375 
z
M 9.03125 0 
L 9.03125 10.015625 
L 19.046875 10.015625 
L 19.046875 0 
z
" id="ArialMT-3a"/>
     <path d="M 9.078125 0 
L 9.078125 10.015625 
L 19.09375 10.015625 
L 19.09375 0 
z
" id="ArialMT-2e"/>
    </defs>
    <g style="fill:#262626;" transform="translate(48.25 21.48)scale(0.132 -0.132)">
     <use transform="translate(0 0.09375)" xlink:href="#DejaVuSans-394"/>
     <use transform="translate(68.408203 0.09375)" xlink:href="#ArialMT-20"/>
     <use transform="translate(96.191406 0.09375)" xlink:href="#ArialMT-61"/>
     <use transform="translate(151.806641 0.09375)" xlink:href="#ArialMT-72"/>
     <use transform="translate(185.107422 0.09375)" xlink:href="#ArialMT-65"/>
     <use transform="translate(240.722656 0.09375)" xlink:href="#ArialMT-61"/>
     <use transform="translate(296.337891 0.09375)" xlink:href="#ArialMT-20"/>
     <use transform="translate(324.121094 0.09375)" xlink:href="#ArialMT-3a"/>
     <use transform="translate(351.904297 0.09375)" xlink:href="#ArialMT-20"/>
     <use transform="translate(379.6875 0.09375)" xlink:href="#ArialMT-32"/>
     <use transform="translate(435.302734 0.09375)" xlink:href="#ArialMT-2e"/>
     <use transform="translate(463.085938 0.09375)" xlink:href="#ArialMT-38"/>
     <use transform="translate(518.701172 0.09375)" xlink:href="#ArialMT-31"/>
    </g>
   </g>
  </g>
 </g>
 <defs>
  <clipPath id="p8b3ad706b2">
   <rect height="74.44" width="88.48" x="41.96" y="27.48"/>
  </clipPath>
 </defs>
</svg>
