<?xml version="1.0" encoding="utf-8" standalone="no"?>
<!DOCTYPE svg PUBLIC "-//W3C//DTD SVG 1.1//EN"
  "http://www.w3.org/Graphics/SVG/1.1/DTD/svg11.dtd">
<!-- Created with matplotlib (http://matplotlib.org/) -->
<svg height="144pt" version="1.1" viewBox="0 0 144 144" width="144pt" xmlns="http://www.w3.org/2000/svg" xmlns:xlink="http://www.w3.org/1999/xlink">
 <defs>
  <style type="text/css">
*{stroke-linecap:butt;stroke-linejoin:round;}
  </style>
 </defs>
 <g id="figure_1">
  <g id="patch_1">
   <path d="M 0 144 
L 144 144 
L 144 0 
L 0 0 
z
" style="fill:#ffffff;"/>
  </g>
  <g id="axes_1">
   <g id="patch_2">
    <path d="M 48.38 101.92 
L 130.44 101.92 
L 130.44 27.48 
L 48.38 27.48 
z
" style="fill:#ffffff;"/>
   </g>
   <g id="matplotlib.axis_1">
    <g id="xtick_1">
     <g id="line2d_1">
      <defs>
       <path d="M 0 0 
L 0 3.5 
" id="m0f63837486" style="stroke:#262626;stroke-width:0.8;"/>
      </defs>
      <g>
       <use style="fill:#262626;stroke:#262626;stroke-width:0.8;" x="52.11" xlink:href="#m0f63837486" y="101.92"/>
      </g>
     </g>
     <g id="text_1">
      <!-- 2 -->
      <defs>
       <path d="M 50.34375 8.453125 
L 50.34375 0 
L 3.03125 0 
Q 2.9375 3.171875 4.046875 6.109375 
Q 5.859375 10.9375 9.828125 15.625 
Q 13.8125 20.3125 21.34375 26.46875 
Q 33.015625 36.03125 37.109375 41.625 
Q 41.21875 47.21875 41.21875 52.203125 
Q 41.21875 57.421875 37.46875 61 
Q 33.734375 64.59375 27.734375 64.59375 
Q 21.390625 64.59375 17.578125 60.78125 
Q 13.765625 56.984375 13.71875 50.25 
L 4.6875 51.171875 
Q 5.609375 61.28125 11.65625 66.578125 
Q 17.71875 71.875 27.9375 71.875 
Q 38.234375 71.875 44.234375 66.15625 
Q 50.25 60.453125 50.25 52 
Q 50.25 47.703125 48.484375 43.546875 
Q 46.734375 39.40625 42.65625 34.8125 
Q 38.578125 30.21875 29.109375 22.21875 
Q 21.1875 15.578125 18.9375 13.203125 
Q 16.703125 10.84375 15.234375 8.453125 
z
" id="ArialMT-32"/>
      </defs>
      <g style="fill:#262626;" transform="translate(49.051484 116.793594)scale(0.11 -0.11)">
       <use xlink:href="#ArialMT-32"/>
      </g>
     </g>
    </g>
    <g id="xtick_2">
     <g id="line2d_2">
      <g>
       <use style="fill:#262626;stroke:#262626;stroke-width:0.8;" x="67.03" xlink:href="#m0f63837486" y="101.92"/>
      </g>
     </g>
     <g id="text_2">
      <!-- 4 -->
      <defs>
       <path d="M 32.328125 0 
L 32.328125 17.140625 
L 1.265625 17.140625 
L 1.265625 25.203125 
L 33.9375 71.578125 
L 41.109375 71.578125 
L 41.109375 25.203125 
L 50.78125 25.203125 
L 50.78125 17.140625 
L 41.109375 17.140625 
L 41.109375 0 
z
M 32.328125 25.203125 
L 32.328125 57.46875 
L 9.90625 25.203125 
z
" id="ArialMT-34"/>
      </defs>
      <g style="fill:#262626;" transform="translate(63.971484 116.793594)scale(0.11 -0.11)">
       <use xlink:href="#ArialMT-34"/>
      </g>
     </g>
    </g>
    <g id="xtick_3">
     <g id="line2d_3">
      <g>
       <use style="fill:#262626;stroke:#262626;stroke-width:0.8;" x="81.95" xlink:href="#m0f63837486" y="101.92"/>
      </g>
     </g>
     <g id="text_3">
      <!-- 6 -->
      <defs>
       <path d="M 49.75 54.046875 
L 41.015625 53.375 
Q 39.84375 58.546875 37.703125 60.890625 
Q 34.125 64.65625 28.90625 64.65625 
Q 24.703125 64.65625 21.53125 62.3125 
Q 17.390625 59.28125 14.984375 53.46875 
Q 12.59375 47.65625 12.5 36.921875 
Q 15.671875 41.75 20.265625 44.09375 
Q 24.859375 46.4375 29.890625 46.4375 
Q 38.671875 46.4375 44.84375 39.96875 
Q 51.03125 33.5 51.03125 23.25 
Q 51.03125 16.5 48.125 10.71875 
Q 45.21875 4.9375 40.140625 1.859375 
Q 35.0625 -1.21875 28.609375 -1.21875 
Q 17.625 -1.21875 10.6875 6.859375 
Q 3.765625 14.9375 3.765625 33.5 
Q 3.765625 54.25 11.421875 63.671875 
Q 18.109375 71.875 29.4375 71.875 
Q 37.890625 71.875 43.28125 67.140625 
Q 48.6875 62.40625 49.75 54.046875 
z
M 13.875 23.1875 
Q 13.875 18.65625 15.796875 14.5 
Q 17.71875 10.359375 21.1875 8.171875 
Q 24.65625 6 28.46875 6 
Q 34.03125 6 38.03125 10.484375 
Q 42.046875 14.984375 42.046875 22.703125 
Q 42.046875 30.125 38.078125 34.390625 
Q 34.125 38.671875 28.125 38.671875 
Q 22.171875 38.671875 18.015625 34.390625 
Q 13.875 30.125 13.875 23.1875 
z
" id="ArialMT-36"/>
      </defs>
      <g style="fill:#262626;" transform="translate(78.891484 116.793594)scale(0.11 -0.11)">
       <use xlink:href="#ArialMT-36"/>
      </g>
     </g>
    </g>
    <g id="xtick_4">
     <g id="line2d_4">
      <g>
       <use style="fill:#262626;stroke:#262626;stroke-width:0.8;" x="96.87" xlink:href="#m0f63837486" y="101.92"/>
      </g>
     </g>
     <g id="text_4">
      <!-- 8 -->
      <defs>
       <path d="M 17.671875 38.8125 
Q 12.203125 40.828125 9.5625 44.53125 
Q 6.9375 48.25 6.9375 53.421875 
Q 6.9375 61.234375 12.546875 66.546875 
Q 18.171875 71.875 27.484375 71.875 
Q 36.859375 71.875 42.578125 66.421875 
Q 48.296875 60.984375 48.296875 53.171875 
Q 48.296875 48.1875 45.671875 44.5 
Q 43.0625 40.828125 37.75 38.8125 
Q 44.34375 36.671875 47.78125 31.875 
Q 51.21875 27.09375 51.21875 20.453125 
Q 51.21875 11.28125 44.71875 5.03125 
Q 38.234375 -1.21875 27.640625 -1.21875 
Q 17.046875 -1.21875 10.546875 5.046875 
Q 4.046875 11.328125 4.046875 20.703125 
Q 4.046875 27.6875 7.59375 32.390625 
Q 11.140625 37.109375 17.671875 38.8125 
z
M 15.921875 53.71875 
Q 15.921875 48.640625 19.1875 45.40625 
Q 22.46875 42.1875 27.6875 42.1875 
Q 32.765625 42.1875 36.015625 45.375 
Q 39.265625 48.578125 39.265625 53.21875 
Q 39.265625 58.0625 35.90625 61.359375 
Q 32.5625 64.65625 27.59375 64.65625 
Q 22.5625 64.65625 19.234375 61.421875 
Q 15.921875 58.203125 15.921875 53.71875 
z
M 13.09375 20.65625 
Q 13.09375 16.890625 14.875 13.375 
Q 16.65625 9.859375 20.171875 7.921875 
Q 23.6875 6 27.734375 6 
Q 34.03125 6 38.125 10.046875 
Q 42.234375 14.109375 42.234375 20.359375 
Q 42.234375 26.703125 38.015625 30.859375 
Q 33.796875 35.015625 27.4375 35.015625 
Q 21.234375 35.015625 17.15625 30.90625 
Q 13.09375 26.8125 13.09375 20.65625 
z
" id="ArialMT-38"/>
      </defs>
      <g style="fill:#262626;" transform="translate(93.811484 116.793594)scale(0.11 -0.11)">
       <use xlink:href="#ArialMT-38"/>
      </g>
     </g>
    </g>
    <g id="xtick_5">
     <g id="line2d_5">
      <g>
       <use style="fill:#262626;stroke:#262626;stroke-width:0.8;" x="111.79" xlink:href="#m0f63837486" y="101.92"/>
      </g>
     </g>
     <g id="text_5">
      <!-- 10 -->
      <defs>
       <path d="M 37.25 0 
L 28.46875 0 
L 28.46875 56 
Q 25.296875 52.984375 20.140625 49.953125 
Q 14.984375 46.921875 10.890625 45.40625 
L 10.890625 53.90625 
Q 18.265625 57.375 23.78125 62.296875 
Q 29.296875 67.234375 31.59375 71.875 
L 37.25 71.875 
z
" id="ArialMT-31"/>
       <path d="M 4.15625 35.296875 
Q 4.15625 48 6.765625 55.734375 
Q 9.375 63.484375 14.515625 67.671875 
Q 19.671875 71.875 27.484375 71.875 
Q 33.25 71.875 37.59375 69.546875 
Q 41.9375 67.234375 44.765625 62.859375 
Q 47.609375 58.5 49.21875 52.21875 
Q 50.828125 45.953125 50.828125 35.296875 
Q 50.828125 22.703125 48.234375 14.96875 
Q 45.65625 7.234375 40.5 3 
Q 35.359375 -1.21875 27.484375 -1.21875 
Q 17.140625 -1.21875 11.234375 6.203125 
Q 4.15625 15.140625 4.15625 35.296875 
z
M 13.1875 35.296875 
Q 13.1875 17.671875 17.3125 11.828125 
Q 21.4375 6 27.484375 6 
Q 33.546875 6 37.671875 11.859375 
Q 41.796875 17.71875 41.796875 35.296875 
Q 41.796875 52.984375 37.671875 58.78125 
Q 33.546875 64.59375 27.390625 64.59375 
Q 21.34375 64.59375 17.71875 59.46875 
Q 13.1875 52.9375 13.1875 35.296875 
z
" id="ArialMT-30"/>
      </defs>
      <g style="fill:#262626;" transform="translate(105.672969 116.793594)scale(0.11 -0.11)">
       <use xlink:href="#ArialMT-31"/>
       <use x="55.615234" xlink:href="#ArialMT-30"/>
      </g>
     </g>
    </g>
    <g id="xtick_6">
     <g id="line2d_6">
      <g>
       <use style="fill:#262626;stroke:#262626;stroke-width:0.8;" x="126.71" xlink:href="#m0f63837486" y="101.92"/>
      </g>
     </g>
     <g id="text_6">
      <!-- 12 -->
      <g style="fill:#262626;" transform="translate(120.592969 116.793594)scale(0.11 -0.11)">
       <use xlink:href="#ArialMT-31"/>
       <use x="55.615234" xlink:href="#ArialMT-32"/>
      </g>
     </g>
    </g>
    <g id="text_7">
     <!-- pH -->
     <defs>
      <path d="M 6.59375 -19.875 
L 6.59375 51.859375 
L 14.59375 51.859375 
L 14.59375 45.125 
Q 17.4375 49.078125 21 51.046875 
Q 24.5625 53.03125 29.640625 53.03125 
Q 36.28125 53.03125 41.359375 49.609375 
Q 46.4375 46.1875 49.015625 39.953125 
Q 51.609375 33.734375 51.609375 26.3125 
Q 51.609375 18.359375 48.75 11.984375 
Q 45.90625 5.609375 40.453125 2.21875 
Q 35.015625 -1.171875 29 -1.171875 
Q 24.609375 -1.171875 21.109375 0.6875 
Q 17.625 2.546875 15.375 5.375 
L 15.375 -19.875 
z
M 14.546875 25.640625 
Q 14.546875 15.625 18.59375 10.84375 
Q 22.65625 6.0625 28.421875 6.0625 
Q 34.28125 6.0625 38.453125 11.015625 
Q 42.625 15.96875 42.625 26.375 
Q 42.625 36.28125 38.546875 41.203125 
Q 34.46875 46.140625 28.8125 46.140625 
Q 23.1875 46.140625 18.859375 40.890625 
Q 14.546875 35.640625 14.546875 25.640625 
z
" id="ArialMT-70"/>
      <path d="M 8.015625 0 
L 8.015625 71.578125 
L 17.484375 71.578125 
L 17.484375 42.1875 
L 54.6875 42.1875 
L 54.6875 71.578125 
L 64.15625 71.578125 
L 64.15625 0 
L 54.6875 0 
L 54.6875 33.734375 
L 17.484375 33.734375 
L 17.484375 0 
z
" id="ArialMT-48"/>
     </defs>
     <g style="fill:#262626;" transform="translate(82.379453 130.853437)scale(0.11 -0.11)">
      <use xlink:href="#ArialMT-70"/>
      <use x="55.615234" xlink:href="#ArialMT-48"/>
     </g>
    </g>
   </g>
   <g id="matplotlib.axis_2">
    <g id="ytick_1">
     <g id="line2d_7">
      <defs>
       <path d="M 0 0 
L -3.5 0 
" id="m9ecf8ec778" style="stroke:#262626;stroke-width:0.8;"/>
      </defs>
      <g>
       <use style="fill:#262626;stroke:#262626;stroke-width:0.8;" x="48.38" xlink:href="#m9ecf8ec778" y="95.777325"/>
      </g>
     </g>
     <g id="text_8">
      <!-- −1 -->
      <defs>
       <path d="M 52.828125 31.203125 
L 5.5625 31.203125 
L 5.5625 39.40625 
L 52.828125 39.40625 
z
" id="ArialMT-2212"/>
      </defs>
      <g style="fill:#262626;" transform="translate(28.838281 99.714122)scale(0.11 -0.11)">
       <use xlink:href="#ArialMT-2212"/>
       <use x="58.398438" xlink:href="#ArialMT-31"/>
      </g>
     </g>
    </g>
    <g id="ytick_2">
     <g id="line2d_8">
      <g>
       <use style="fill:#262626;stroke:#262626;stroke-width:0.8;" x="48.38" xlink:href="#m9ecf8ec778" y="49.631244"/>
      </g>
     </g>
     <g id="text_9">
      <!-- 0 -->
      <g style="fill:#262626;" transform="translate(35.262969 53.568041)scale(0.11 -0.11)">
       <use xlink:href="#ArialMT-30"/>
      </g>
     </g>
    </g>
    <g id="text_10">
     <!-- $\langle q_\mathsf{total} \rangle$ -->
     <defs>
      <path d="M 8.9375 31.34375 
L 22.703125 75.875 
L 31 75.875 
L 17.234375 31.34375 
L 31 -13.1875 
L 22.703125 -13.1875 
z
" id="DejaVuSans-27e8"/>
      <path d="M 41.703125 8.203125 
Q 38.09375 3.46875 33.171875 1.015625 
Q 28.265625 -1.421875 22.3125 -1.421875 
Q 14.015625 -1.421875 9.296875 4.171875 
Q 4.59375 9.765625 4.59375 19.578125 
Q 4.59375 27.484375 7.5 34.859375 
Q 10.40625 42.234375 15.828125 48.09375 
Q 19.34375 51.90625 23.90625 53.953125 
Q 28.46875 56 33.5 56 
Q 39.546875 56 43.453125 53.609375 
Q 47.359375 51.21875 49.125 46.390625 
L 50.6875 54.59375 
L 59.71875 54.59375 
L 45.125 -20.609375 
L 36.078125 -20.609375 
z
M 13.921875 20.90625 
Q 13.921875 13.671875 16.9375 9.890625 
Q 19.96875 6.109375 25.6875 6.109375 
Q 34.1875 6.109375 40.1875 14.234375 
Q 46.1875 22.359375 46.1875 33.984375 
Q 46.1875 41.015625 43.078125 44.75 
Q 39.984375 48.484375 34.1875 48.484375 
Q 29.9375 48.484375 26.3125 46.5 
Q 22.703125 44.53125 20.015625 40.71875 
Q 17.1875 36.71875 15.546875 31.34375 
Q 13.921875 25.984375 13.921875 20.90625 
z
" id="DejaVuSans-Oblique-71"/>
      <path d="M 18.3125 70.21875 
L 18.3125 54.6875 
L 36.8125 54.6875 
L 36.8125 47.703125 
L 18.3125 47.703125 
L 18.3125 18.015625 
Q 18.3125 11.328125 20.140625 9.421875 
Q 21.96875 7.515625 27.59375 7.515625 
L 36.8125 7.515625 
L 36.8125 0 
L 27.59375 0 
Q 17.1875 0 13.234375 3.875 
Q 9.28125 7.765625 9.28125 18.015625 
L 9.28125 47.703125 
L 2.6875 47.703125 
L 2.6875 54.6875 
L 9.28125 54.6875 
L 9.28125 70.21875 
z
" id="DejaVuSans-74"/>
      <path d="M 30.609375 48.390625 
Q 23.390625 48.390625 19.1875 42.75 
Q 14.984375 37.109375 14.984375 27.296875 
Q 14.984375 17.484375 19.15625 11.84375 
Q 23.34375 6.203125 30.609375 6.203125 
Q 37.796875 6.203125 41.984375 11.859375 
Q 46.1875 17.53125 46.1875 27.296875 
Q 46.1875 37.015625 41.984375 42.703125 
Q 37.796875 48.390625 30.609375 48.390625 
z
M 30.609375 56 
Q 42.328125 56 49.015625 48.375 
Q 55.71875 40.765625 55.71875 27.296875 
Q 55.71875 13.875 49.015625 6.21875 
Q 42.328125 -1.421875 30.609375 -1.421875 
Q 18.84375 -1.421875 12.171875 6.21875 
Q 5.515625 13.875 5.515625 27.296875 
Q 5.515625 40.765625 12.171875 48.375 
Q 18.84375 56 30.609375 56 
z
" id="DejaVuSans-6f"/>
      <path d="M 34.28125 27.484375 
Q 23.390625 27.484375 19.1875 25 
Q 14.984375 22.515625 14.984375 16.5 
Q 14.984375 11.71875 18.140625 8.90625 
Q 21.296875 6.109375 26.703125 6.109375 
Q 34.1875 6.109375 38.703125 11.40625 
Q 43.21875 16.703125 43.21875 25.484375 
L 43.21875 27.484375 
z
M 52.203125 31.203125 
L 52.203125 0 
L 43.21875 0 
L 43.21875 8.296875 
Q 40.140625 3.328125 35.546875 0.953125 
Q 30.953125 -1.421875 24.3125 -1.421875 
Q 15.921875 -1.421875 10.953125 3.296875 
Q 6 8.015625 6 15.921875 
Q 6 25.140625 12.171875 29.828125 
Q 18.359375 34.515625 30.609375 34.515625 
L 43.21875 34.515625 
L 43.21875 35.40625 
Q 43.21875 41.609375 39.140625 45 
Q 35.0625 48.390625 27.6875 48.390625 
Q 23 48.390625 18.546875 47.265625 
Q 14.109375 46.140625 10.015625 43.890625 
L 10.015625 52.203125 
Q 14.9375 54.109375 19.578125 55.046875 
Q 24.21875 56 28.609375 56 
Q 40.484375 56 46.34375 49.84375 
Q 52.203125 43.703125 52.203125 31.203125 
z
" id="DejaVuSans-61"/>
      <path d="M 9.421875 75.984375 
L 18.40625 75.984375 
L 18.40625 0 
L 9.421875 0 
z
" id="DejaVuSans-6c"/>
      <path d="M 30.078125 31.34375 
L 16.3125 -13.1875 
L 8.015625 -13.1875 
L 21.78125 31.34375 
L 8.015625 75.875 
L 16.3125 75.875 
z
" id="DejaVuSans-27e9"/>
     </defs>
     <g style="fill:#262626;" transform="translate(22.528281 81.475)rotate(-90)scale(0.11 -0.11)">
      <use transform="translate(0 0.125)" xlink:href="#DejaVuSans-27e8"/>
      <use transform="translate(39.013672 0.125)" xlink:href="#DejaVuSans-Oblique-71"/>
      <use transform="translate(102.490234 -16.28125)scale(0.7)" xlink:href="#DejaVuSans-74"/>
      <use transform="translate(129.936523 -16.28125)scale(0.7)" xlink:href="#DejaVuSans-6f"/>
      <use transform="translate(172.763672 -16.28125)scale(0.7)" xlink:href="#DejaVuSans-74"/>
      <use transform="translate(200.209961 -16.28125)scale(0.7)" xlink:href="#DejaVuSans-61"/>
      <use transform="translate(243.105469 -16.28125)scale(0.7)" xlink:href="#DejaVuSans-6c"/>
      <use transform="translate(265.288086 0.125)" xlink:href="#DejaVuSans-27e9"/>
     </g>
    </g>
   </g>
   <g id="PolyCollection_1">
    <defs>
     <path d="M 52.11 -94.368752 
L 52.11 -94.368752 
L 52.856 -94.368751 
L 53.602 -94.368749 
L 54.348 -94.368747 
L 55.094 -94.368745 
L 55.84 -94.368742 
L 56.586 -94.368739 
L 57.332 -94.368734 
L 58.078 -94.368728 
L 58.824 -94.368721 
L 59.57 -94.368712 
L 60.316 -94.368701 
L 61.062 -94.368686 
L 61.808 -94.368668 
L 62.554 -94.368645 
L 63.3 -94.368617 
L 64.046 -94.368581 
L 64.792 -94.368535 
L 65.538 -94.368478 
L 66.284 -94.368406 
L 67.03 -94.368315 
L 67.776 -94.368201 
L 68.522 -94.368058 
L 69.268 -94.367877 
L 70.014 -94.367649 
L 70.76 -94.367363 
L 71.506 -94.367002 
L 72.252 -94.366548 
L 72.998 -94.365976 
L 73.744 -94.365256 
L 74.49 -94.36435 
L 75.236 -94.363209 
L 75.982 -94.361773 
L 76.728 -94.359965 
L 77.474 -94.357689 
L 78.22 -94.354824 
L 78.966 -94.351219 
L 79.712 -94.34668 
L 80.458 -94.340967 
L 81.204 -94.333777 
L 81.95 -94.324729 
L 82.696 -94.313343 
L 83.442 -94.299017 
L 84.188 -94.280994 
L 84.934 -94.258324 
L 85.68 -94.229817 
L 86.426 -94.193978 
L 87.172 -94.148939 
L 87.918 -94.092364 
L 88.664 -94.021338 
L 89.41 -93.932233 
L 90.156 -93.820549 
L 90.902 -93.680721 
L 91.648 -93.505902 
L 92.394 -93.287721 
L 93.14 -93.016019 
L 93.886 -92.678589 
L 94.632 -92.260952 
L 95.378 -91.746204 
L 96.124 -91.115038 
L 96.87 -90.346009 
L 97.616 -89.416205 
L 98.362 -88.302438 
L 99.108 -86.983108 
L 99.854 -85.440759 
L 100.6 -83.665265 
L 101.346 -81.657275 
L 102.092 -79.431347 
L 102.838 -77.017911 
L 103.584 -74.463247 
L 104.33 -71.826898 
L 105.076 -69.176599 
L 105.822 -66.58152 
L 106.568 -64.10521 
L 107.314 -61.799712 
L 108.06 -59.701937 
L 108.806 -57.83265 
L 109.552 -56.197732 
L 110.298 -54.790955 
L 111.044 -53.597388 
L 111.79 -52.596742 
L 112.536 -51.766201 
L 113.282 -51.082565 
L 114.028 -50.523696 
L 114.774 -50.06938 
L 115.52 -49.701739 
L 116.266 -49.405333 
L 117.012 -49.167072 
L 117.758 -48.976007 
L 118.504 -48.823084 
L 119.25 -48.700876 
L 119.996 -48.603335 
L 120.742 -48.525558 
L 121.488 -48.463589 
L 122.234 -48.414245 
L 122.98 -48.374975 
L 123.726 -48.343733 
L 124.472 -48.318887 
L 125.218 -48.299131 
L 125.964 -48.283427 
L 126.71 -48.270945 
L 126.71 -48.270945 
L 126.71 -45.463636 
L 125.964 -46.013441 
L 125.218 -46.462601 
L 124.472 -46.829054 
L 123.726 -47.128396 
L 122.98 -47.374018 
L 122.234 -47.577351 
L 121.488 -47.748155 
L 120.742 -47.894835 
L 119.996 -48.024744 
L 119.25 -48.144488 
L 118.504 -48.260208 
L 117.758 -48.37786 
L 117.012 -48.50349 
L 116.266 -48.643508 
L 115.52 -48.804973 
L 114.774 -48.995887 
L 114.028 -49.225499 
L 113.282 -49.504622 
L 112.536 -49.845929 
L 111.79 -50.264223 
L 111.044 -50.776614 
L 110.298 -51.40255 
L 109.552 -52.163576 
L 108.806 -53.08273 
L 108.06 -54.183395 
L 107.314 -55.487517 
L 106.568 -57.01309 
L 105.822 -58.771038 
L 105.076 -60.761757 
L 104.33 -62.971948 
L 103.584 -65.372517 
L 102.838 -67.918425 
L 102.092 -70.551055 
L 101.346 -73.203115 
L 100.6 -75.805301 
L 99.854 -78.293386 
L 99.108 -80.614252 
L 98.362 -82.729717 
L 97.616 -84.617754 
L 96.87 -86.271384 
L 96.124 -87.695996 
L 95.378 -88.905956 
L 94.632 -89.921242 
L 93.886 -90.764558 
L 93.14 -91.459137 
L 92.394 -92.027244 
L 91.648 -92.48927 
L 90.902 -92.863288 
L 90.156 -93.164933 
L 89.41 -93.407482 
L 88.664 -93.602049 
L 87.918 -93.757833 
L 87.172 -93.882389 
L 86.426 -93.981873 
L 85.68 -94.06128 
L 84.934 -94.124646 
L 84.188 -94.175225 
L 83.442 -94.21563 
L 82.696 -94.247966 
L 81.95 -94.273922 
L 81.204 -94.294862 
L 80.458 -94.311889 
L 79.712 -94.3259 
L 78.966 -94.337637 
L 78.22 -94.347723 
L 77.474 -94.356691 
L 76.728 -94.365018 
L 75.982 -94.373147 
L 75.236 -94.381509 
L 74.49 -94.390549 
L 73.744 -94.400745 
L 72.998 -94.41264 
L 72.252 -94.426864 
L 71.506 -94.444168 
L 70.76 -94.465465 
L 70.014 -94.491878 
L 69.268 -94.524792 
L 68.522 -94.565928 
L 67.776 -94.617426 
L 67.03 -94.681946 
L 66.284 -94.7628 
L 65.538 -94.864091 
L 64.792 -94.990901 
L 64.046 -95.14949 
L 63.3 -95.347532 
L 62.554 -95.594372 
L 61.808 -95.901288 
L 61.062 -96.281737 
L 60.316 -96.751549 
L 59.57 -97.328991 
L 58.824 -98.034623 
L 58.078 -98.890827 
L 57.332 -99.920857 
L 56.586 -101.147286 
L 55.84 -102.589755 
L 55.094 -104.262035 
L 54.348 -106.16864 
L 53.602 -108.301465 
L 52.856 -110.637195 
L 52.11 -113.136364 
z
" id="mb3d53d5c4d" style="stroke:#ffffff;stroke-opacity:0.7;"/>
    </defs>
    <g clip-path="url(#p2c43ed6d8e)">
     <use style="fill:#12711c;fill-opacity:0.7;stroke:#ffffff;stroke-opacity:0.7;" x="0" xlink:href="#mb3d53d5c4d" y="144"/>
    </g>
   </g>
   <g id="line2d_9">
    <path clip-path="url(#p2c43ed6d8e)" d="M 52.11 49.631248 
L 52.856 49.631249 
L 53.602 49.631251 
L 54.348 49.631253 
L 55.094 49.631255 
L 55.84 49.631258 
L 56.586 49.631261 
L 57.332 49.631266 
L 58.078 49.631272 
L 58.824 49.631279 
L 59.57 49.631288 
L 60.316 49.631299 
L 61.062 49.631314 
L 61.808 49.631332 
L 62.554 49.631355 
L 63.3 49.631383 
L 64.046 49.631419 
L 64.792 49.631465 
L 65.538 49.631522 
L 66.284 49.631594 
L 67.03 49.631685 
L 67.776 49.631799 
L 68.522 49.631942 
L 69.268 49.632123 
L 70.014 49.632351 
L 70.76 49.632637 
L 71.506 49.632998 
L 72.252 49.633452 
L 72.998 49.634024 
L 73.744 49.634744 
L 74.49 49.63565 
L 75.236 49.636791 
L 75.982 49.638227 
L 76.728 49.640035 
L 77.474 49.642311 
L 78.22 49.645176 
L 78.966 49.648781 
L 79.712 49.65332 
L 80.458 49.659033 
L 81.204 49.666223 
L 81.95 49.675271 
L 82.696 49.686657 
L 83.442 49.700983 
L 84.188 49.719006 
L 84.934 49.741676 
L 85.68 49.770183 
L 86.426 49.806022 
L 87.172 49.851061 
L 87.918 49.907636 
L 88.664 49.978662 
L 89.41 50.067767 
L 90.156 50.179451 
L 90.902 50.319279 
L 91.648 50.494098 
L 92.394 50.712279 
L 93.14 50.983981 
L 93.886 51.321411 
L 94.632 51.739048 
L 95.378 52.253796 
L 96.124 52.884962 
L 96.87 53.653991 
L 97.616 54.583795 
L 98.362 55.697562 
L 99.108 57.016892 
L 99.854 58.559241 
L 100.6 60.334735 
L 101.346 62.342725 
L 102.092 64.568653 
L 102.838 66.982089 
L 103.584 69.536753 
L 104.33 72.173102 
L 105.076 74.823401 
L 105.822 77.41848 
L 106.568 79.89479 
L 107.314 82.200288 
L 108.06 84.298063 
L 108.806 86.16735 
L 109.552 87.802268 
L 110.298 89.209045 
L 111.044 90.402612 
L 111.79 91.403258 
L 112.536 92.233799 
L 113.282 92.917435 
L 114.028 93.476304 
L 114.774 93.93062 
L 115.52 94.298261 
L 116.266 94.594667 
L 117.012 94.832928 
L 117.758 95.023993 
L 118.504 95.176916 
L 119.25 95.299124 
L 119.996 95.396665 
L 120.742 95.474442 
L 121.488 95.536411 
L 122.234 95.585755 
L 122.98 95.625025 
L 123.726 95.656267 
L 124.472 95.681113 
L 125.218 95.700869 
L 125.964 95.716573 
L 126.71 95.729055 
" style="fill:none;stroke:#333333;stroke-dasharray:1.5,2.475;stroke-dashoffset:0;stroke-width:1.5;"/>
   </g>
   <g id="line2d_10">
    <path clip-path="url(#p2c43ed6d8e)" d="M 52.11 30.863636 
L 52.856 33.362805 
L 53.602 35.698535 
L 54.348 37.83136 
L 55.094 39.737965 
L 55.84 41.410245 
L 56.586 42.852714 
L 57.332 44.079143 
L 58.078 45.109173 
L 58.824 45.965377 
L 59.57 46.671009 
L 60.316 47.248451 
L 61.062 47.718263 
L 61.808 48.098712 
L 62.554 48.405628 
L 63.3 48.652468 
L 64.046 48.85051 
L 64.792 49.009099 
L 65.538 49.135909 
L 66.284 49.2372 
L 67.03 49.318054 
L 67.776 49.382574 
L 68.522 49.434072 
L 69.268 49.475208 
L 70.014 49.508122 
L 70.76 49.534535 
L 71.506 49.555832 
L 72.252 49.573136 
L 72.998 49.58736 
L 73.744 49.599255 
L 74.49 49.609451 
L 75.236 49.618491 
L 75.982 49.626853 
L 76.728 49.634982 
L 77.474 49.643309 
L 78.22 49.652277 
L 78.966 49.662363 
L 79.712 49.6741 
L 80.458 49.688111 
L 81.204 49.705138 
L 81.95 49.726078 
L 82.696 49.752034 
L 83.442 49.78437 
L 84.188 49.824775 
L 84.934 49.875354 
L 85.68 49.93872 
L 86.426 50.018127 
L 87.172 50.117611 
L 87.918 50.242167 
L 88.664 50.397951 
L 89.41 50.592518 
L 90.156 50.835067 
L 90.902 51.136712 
L 91.648 51.51073 
L 92.394 51.972756 
L 93.14 52.540863 
L 93.886 53.235442 
L 94.632 54.078758 
L 95.378 55.094044 
L 96.124 56.304004 
L 96.87 57.728616 
L 97.616 59.382246 
L 98.362 61.270283 
L 99.108 63.385748 
L 99.854 65.706614 
L 100.6 68.194699 
L 101.346 70.796885 
L 102.092 73.448945 
L 102.838 76.081575 
L 103.584 78.627483 
L 104.33 81.028052 
L 105.076 83.238243 
L 105.822 85.228962 
L 106.568 86.98691 
L 107.314 88.512483 
L 108.06 89.816605 
L 108.806 90.91727 
L 109.552 91.836424 
L 110.298 92.59745 
L 111.044 93.223386 
L 111.79 93.735777 
L 112.536 94.154071 
L 113.282 94.495378 
L 114.028 94.774501 
L 114.774 95.004113 
L 115.52 95.195027 
L 116.266 95.356492 
L 117.012 95.49651 
L 117.758 95.62214 
L 118.504 95.739792 
L 119.25 95.855512 
L 119.996 95.975256 
L 120.742 96.105165 
L 121.488 96.251845 
L 122.234 96.422649 
L 122.98 96.625982 
L 123.726 96.871604 
L 124.472 97.170946 
L 125.218 97.537399 
L 125.964 97.986559 
L 126.71 98.536364 
" style="fill:none;stroke:#333333;stroke-linecap:round;stroke-width:1.5;"/>
   </g>
   <g id="patch_3">
    <path d="M 48.38 101.92 
L 48.38 27.48 
" style="fill:none;stroke:#262626;stroke-linecap:square;stroke-linejoin:miter;stroke-width:0.8;"/>
   </g>
   <g id="patch_4">
    <path d="M 48.38 101.92 
L 130.44 101.92 
" style="fill:none;stroke:#262626;stroke-linecap:square;stroke-linejoin:miter;stroke-width:0.8;"/>
   </g>
   <g id="text_11">
    <!-- $\Delta$ area : 0.62 -->
    <defs>
     <path d="M 34.1875 63.1875 
L 14.15625 8.203125 
L 54.25 8.203125 
z
M 0.78125 0 
L 28.609375 72.90625 
L 39.796875 72.90625 
L 67.578125 0 
z
" id="DejaVuSans-394"/>
     <path id="ArialMT-20"/>
     <path d="M 40.4375 6.390625 
Q 35.546875 2.25 31.03125 0.53125 
Q 26.515625 -1.171875 21.34375 -1.171875 
Q 12.796875 -1.171875 8.203125 3 
Q 3.609375 7.171875 3.609375 13.671875 
Q 3.609375 17.484375 5.34375 20.625 
Q 7.078125 23.78125 9.890625 25.6875 
Q 12.703125 27.59375 16.21875 28.5625 
Q 18.796875 29.25 24.03125 29.890625 
Q 34.671875 31.15625 39.703125 32.90625 
Q 39.75 34.71875 39.75 35.203125 
Q 39.75 40.578125 37.25 42.78125 
Q 33.890625 45.75 27.25 45.75 
Q 21.046875 45.75 18.09375 43.578125 
Q 15.140625 41.40625 13.71875 35.890625 
L 5.125 37.0625 
Q 6.296875 42.578125 8.984375 45.96875 
Q 11.671875 49.359375 16.75 51.1875 
Q 21.828125 53.03125 28.515625 53.03125 
Q 35.15625 53.03125 39.296875 51.46875 
Q 43.453125 49.90625 45.40625 47.53125 
Q 47.359375 45.171875 48.140625 41.546875 
Q 48.578125 39.3125 48.578125 33.453125 
L 48.578125 21.734375 
Q 48.578125 9.46875 49.140625 6.21875 
Q 49.703125 2.984375 51.375 0 
L 42.1875 0 
Q 40.828125 2.734375 40.4375 6.390625 
z
M 39.703125 26.03125 
Q 34.90625 24.078125 25.34375 22.703125 
Q 19.921875 21.921875 17.671875 20.9375 
Q 15.4375 19.96875 14.203125 18.09375 
Q 12.984375 16.21875 12.984375 13.921875 
Q 12.984375 10.40625 15.640625 8.0625 
Q 18.3125 5.71875 23.4375 5.71875 
Q 28.515625 5.71875 32.46875 7.9375 
Q 36.421875 10.15625 38.28125 14.015625 
Q 39.703125 17 39.703125 22.796875 
z
" id="ArialMT-61"/>
     <path d="M 6.5 0 
L 6.5 51.859375 
L 14.40625 51.859375 
L 14.40625 44 
Q 17.4375 49.515625 20 51.265625 
Q 22.5625 53.03125 25.640625 53.03125 
Q 30.078125 53.03125 34.671875 50.203125 
L 31.640625 42.046875 
Q 28.421875 43.953125 25.203125 43.953125 
Q 22.3125 43.953125 20.015625 42.21875 
Q 17.71875 40.484375 16.75 37.40625 
Q 15.28125 32.71875 15.28125 27.15625 
L 15.28125 0 
z
" id="ArialMT-72"/>
     <path d="M 42.09375 16.703125 
L 51.171875 15.578125 
Q 49.03125 7.625 43.21875 3.21875 
Q 37.40625 -1.171875 28.375 -1.171875 
Q 17 -1.171875 10.328125 5.828125 
Q 3.65625 12.84375 3.65625 25.484375 
Q 3.65625 38.578125 10.390625 45.796875 
Q 17.140625 53.03125 27.875 53.03125 
Q 38.28125 53.03125 44.875 45.953125 
Q 51.46875 38.875 51.46875 26.03125 
Q 51.46875 25.25 51.421875 23.6875 
L 12.75 23.6875 
Q 13.234375 15.140625 17.578125 10.59375 
Q 21.921875 6.0625 28.421875 6.0625 
Q 33.25 6.0625 36.671875 8.59375 
Q 40.09375 11.140625 42.09375 16.703125 
z
M 13.234375 30.90625 
L 42.1875 30.90625 
Q 41.609375 37.453125 38.875 40.71875 
Q 34.671875 45.796875 27.984375 45.796875 
Q 21.921875 45.796875 17.796875 41.75 
Q 13.671875 37.703125 13.234375 30.90625 
z
" id="ArialMT-65"/>
     <path d="M 9.03125 41.84375 
L 9.03125 51.859375 
L 19.046875 51.859375 
L 19.046875 41.84375 
z
M 9.03125 0 
L 9.03125 10.015625 
L 19.046875 10.015625 
L 19.046875 0 
z
" id="ArialMT-3a"/>
     <path d="M 9.078125 0 
L 9.078125 10.015625 
L 19.09375 10.015625 
L 19.09375 0 
z
" id="ArialMT-2e"/>
    </defs>
    <g style="fill:#262626;" transform="translate(51.46 21.48)scale(0.132 -0.132)">
     <use transform="translate(0 0.09375)" xlink:href="#DejaVuSans-394"/>
     <use transform="translate(68.408203 0.09375)" xlink:href="#ArialMT-20"/>
     <use transform="translate(96.191406 0.09375)" xlink:href="#ArialMT-61"/>
     <use transform="translate(151.806641 0.09375)" xlink:href="#ArialMT-72"/>
     <use transform="translate(185.107422 0.09375)" xlink:href="#ArialMT-65"/>
     <use transform="translate(240.722656 0.09375)" xlink:href="#ArialMT-61"/>
     <use transform="translate(296.337891 0.09375)" xlink:href="#ArialMT-20"/>
     <use transform="translate(324.121094 0.09375)" xlink:href="#ArialMT-3a"/>
     <use transform="translate(351.904297 0.09375)" xlink:href="#ArialMT-20"/>
     <use transform="translate(379.6875 0.09375)" xlink:href="#ArialMT-30"/>
     <use transform="translate(435.302734 0.09375)" xlink:href="#ArialMT-2e"/>
     <use transform="translate(463.085938 0.09375)" xlink:href="#ArialMT-36"/>
     <use transform="translate(518.701172 0.09375)" xlink:href="#ArialMT-32"/>
    </g>
   </g>
  </g>
 </g>
 <defs>
  <clipPath id="p2c43ed6d8e">
   <rect height="74.44" width="82.06" x="48.38" y="27.48"/>
  </clipPath>
 </defs>
</svg>
