<?xml version="1.0" encoding="utf-8" standalone="no"?>
<!DOCTYPE svg PUBLIC "-//W3C//DTD SVG 1.1//EN"
  "http://www.w3.org/Graphics/SVG/1.1/DTD/svg11.dtd">
<!-- Created with matplotlib (http://matplotlib.org/) -->
<svg height="144pt" version="1.1" viewBox="0 0 144 144" width="144pt" xmlns="http://www.w3.org/2000/svg" xmlns:xlink="http://www.w3.org/1999/xlink">
 <defs>
  <style type="text/css">
*{stroke-linecap:butt;stroke-linejoin:round;}
  </style>
 </defs>
 <g id="figure_1">
  <g id="patch_1">
   <path d="M 0 144 
L 144 144 
L 144 0 
L 0 0 
z
" style="fill:#ffffff;"/>
  </g>
  <g id="axes_1">
   <g id="patch_2">
    <path d="M 47.6 101.92 
L 130.44 101.92 
L 130.44 13.56 
L 47.6 13.56 
z
" style="fill:#ffffff;"/>
   </g>
   <g id="matplotlib.axis_1">
    <g id="xtick_1">
     <g id="line2d_1">
      <defs>
       <path d="M 0 0 
L 0 3.5 
" id="ma19795285b" style="stroke:#262626;stroke-width:0.8;"/>
      </defs>
      <g>
       <use style="fill:#262626;stroke:#262626;stroke-width:0.8;" x="51.365455" xlink:href="#ma19795285b" y="101.92"/>
      </g>
     </g>
     <g id="text_1">
      <!-- 2 -->
      <defs>
       <path d="M 50.34375 8.453125 
L 50.34375 0 
L 3.03125 0 
Q 2.9375 3.171875 4.046875 6.109375 
Q 5.859375 10.9375 9.828125 15.625 
Q 13.8125 20.3125 21.34375 26.46875 
Q 33.015625 36.03125 37.109375 41.625 
Q 41.21875 47.21875 41.21875 52.203125 
Q 41.21875 57.421875 37.46875 61 
Q 33.734375 64.59375 27.734375 64.59375 
Q 21.390625 64.59375 17.578125 60.78125 
Q 13.765625 56.984375 13.71875 50.25 
L 4.6875 51.171875 
Q 5.609375 61.28125 11.65625 66.578125 
Q 17.71875 71.875 27.9375 71.875 
Q 38.234375 71.875 44.234375 66.15625 
Q 50.25 60.453125 50.25 52 
Q 50.25 47.703125 48.484375 43.546875 
Q 46.734375 39.40625 42.65625 34.8125 
Q 38.578125 30.21875 29.109375 22.21875 
Q 21.1875 15.578125 18.9375 13.203125 
Q 16.703125 10.84375 15.234375 8.453125 
z
" id="ArialMT-32"/>
      </defs>
      <g style="fill:#262626;" transform="translate(48.306939 116.793594)scale(0.11 -0.11)">
       <use xlink:href="#ArialMT-32"/>
      </g>
     </g>
    </g>
    <g id="xtick_2">
     <g id="line2d_2">
      <g>
       <use style="fill:#262626;stroke:#262626;stroke-width:0.8;" x="66.427273" xlink:href="#ma19795285b" y="101.92"/>
      </g>
     </g>
     <g id="text_2">
      <!-- 4 -->
      <defs>
       <path d="M 32.328125 0 
L 32.328125 17.140625 
L 1.265625 17.140625 
L 1.265625 25.203125 
L 33.9375 71.578125 
L 41.109375 71.578125 
L 41.109375 25.203125 
L 50.78125 25.203125 
L 50.78125 17.140625 
L 41.109375 17.140625 
L 41.109375 0 
z
M 32.328125 25.203125 
L 32.328125 57.46875 
L 9.90625 25.203125 
z
" id="ArialMT-34"/>
      </defs>
      <g style="fill:#262626;" transform="translate(63.368757 116.793594)scale(0.11 -0.11)">
       <use xlink:href="#ArialMT-34"/>
      </g>
     </g>
    </g>
    <g id="xtick_3">
     <g id="line2d_3">
      <g>
       <use style="fill:#262626;stroke:#262626;stroke-width:0.8;" x="81.489091" xlink:href="#ma19795285b" y="101.92"/>
      </g>
     </g>
     <g id="text_3">
      <!-- 6 -->
      <defs>
       <path d="M 49.75 54.046875 
L 41.015625 53.375 
Q 39.84375 58.546875 37.703125 60.890625 
Q 34.125 64.65625 28.90625 64.65625 
Q 24.703125 64.65625 21.53125 62.3125 
Q 17.390625 59.28125 14.984375 53.46875 
Q 12.59375 47.65625 12.5 36.921875 
Q 15.671875 41.75 20.265625 44.09375 
Q 24.859375 46.4375 29.890625 46.4375 
Q 38.671875 46.4375 44.84375 39.96875 
Q 51.03125 33.5 51.03125 23.25 
Q 51.03125 16.5 48.125 10.71875 
Q 45.21875 4.9375 40.140625 1.859375 
Q 35.0625 -1.21875 28.609375 -1.21875 
Q 17.625 -1.21875 10.6875 6.859375 
Q 3.765625 14.9375 3.765625 33.5 
Q 3.765625 54.25 11.421875 63.671875 
Q 18.109375 71.875 29.4375 71.875 
Q 37.890625 71.875 43.28125 67.140625 
Q 48.6875 62.40625 49.75 54.046875 
z
M 13.875 23.1875 
Q 13.875 18.65625 15.796875 14.5 
Q 17.71875 10.359375 21.1875 8.171875 
Q 24.65625 6 28.46875 6 
Q 34.03125 6 38.03125 10.484375 
Q 42.046875 14.984375 42.046875 22.703125 
Q 42.046875 30.125 38.078125 34.390625 
Q 34.125 38.671875 28.125 38.671875 
Q 22.171875 38.671875 18.015625 34.390625 
Q 13.875 30.125 13.875 23.1875 
z
" id="ArialMT-36"/>
      </defs>
      <g style="fill:#262626;" transform="translate(78.430575 116.793594)scale(0.11 -0.11)">
       <use xlink:href="#ArialMT-36"/>
      </g>
     </g>
    </g>
    <g id="xtick_4">
     <g id="line2d_4">
      <g>
       <use style="fill:#262626;stroke:#262626;stroke-width:0.8;" x="96.550909" xlink:href="#ma19795285b" y="101.92"/>
      </g>
     </g>
     <g id="text_4">
      <!-- 8 -->
      <defs>
       <path d="M 17.671875 38.8125 
Q 12.203125 40.828125 9.5625 44.53125 
Q 6.9375 48.25 6.9375 53.421875 
Q 6.9375 61.234375 12.546875 66.546875 
Q 18.171875 71.875 27.484375 71.875 
Q 36.859375 71.875 42.578125 66.421875 
Q 48.296875 60.984375 48.296875 53.171875 
Q 48.296875 48.1875 45.671875 44.5 
Q 43.0625 40.828125 37.75 38.8125 
Q 44.34375 36.671875 47.78125 31.875 
Q 51.21875 27.09375 51.21875 20.453125 
Q 51.21875 11.28125 44.71875 5.03125 
Q 38.234375 -1.21875 27.640625 -1.21875 
Q 17.046875 -1.21875 10.546875 5.046875 
Q 4.046875 11.328125 4.046875 20.703125 
Q 4.046875 27.6875 7.59375 32.390625 
Q 11.140625 37.109375 17.671875 38.8125 
z
M 15.921875 53.71875 
Q 15.921875 48.640625 19.1875 45.40625 
Q 22.46875 42.1875 27.6875 42.1875 
Q 32.765625 42.1875 36.015625 45.375 
Q 39.265625 48.578125 39.265625 53.21875 
Q 39.265625 58.0625 35.90625 61.359375 
Q 32.5625 64.65625 27.59375 64.65625 
Q 22.5625 64.65625 19.234375 61.421875 
Q 15.921875 58.203125 15.921875 53.71875 
z
M 13.09375 20.65625 
Q 13.09375 16.890625 14.875 13.375 
Q 16.65625 9.859375 20.171875 7.921875 
Q 23.6875 6 27.734375 6 
Q 34.03125 6 38.125 10.046875 
Q 42.234375 14.109375 42.234375 20.359375 
Q 42.234375 26.703125 38.015625 30.859375 
Q 33.796875 35.015625 27.4375 35.015625 
Q 21.234375 35.015625 17.15625 30.90625 
Q 13.09375 26.8125 13.09375 20.65625 
z
" id="ArialMT-38"/>
      </defs>
      <g style="fill:#262626;" transform="translate(93.492393 116.793594)scale(0.11 -0.11)">
       <use xlink:href="#ArialMT-38"/>
      </g>
     </g>
    </g>
    <g id="xtick_5">
     <g id="line2d_5">
      <g>
       <use style="fill:#262626;stroke:#262626;stroke-width:0.8;" x="111.612727" xlink:href="#ma19795285b" y="101.92"/>
      </g>
     </g>
     <g id="text_5">
      <!-- 10 -->
      <defs>
       <path d="M 37.25 0 
L 28.46875 0 
L 28.46875 56 
Q 25.296875 52.984375 20.140625 49.953125 
Q 14.984375 46.921875 10.890625 45.40625 
L 10.890625 53.90625 
Q 18.265625 57.375 23.78125 62.296875 
Q 29.296875 67.234375 31.59375 71.875 
L 37.25 71.875 
z
" id="ArialMT-31"/>
       <path d="M 4.15625 35.296875 
Q 4.15625 48 6.765625 55.734375 
Q 9.375 63.484375 14.515625 67.671875 
Q 19.671875 71.875 27.484375 71.875 
Q 33.25 71.875 37.59375 69.546875 
Q 41.9375 67.234375 44.765625 62.859375 
Q 47.609375 58.5 49.21875 52.21875 
Q 50.828125 45.953125 50.828125 35.296875 
Q 50.828125 22.703125 48.234375 14.96875 
Q 45.65625 7.234375 40.5 3 
Q 35.359375 -1.21875 27.484375 -1.21875 
Q 17.140625 -1.21875 11.234375 6.203125 
Q 4.15625 15.140625 4.15625 35.296875 
z
M 13.1875 35.296875 
Q 13.1875 17.671875 17.3125 11.828125 
Q 21.4375 6 27.484375 6 
Q 33.546875 6 37.671875 11.859375 
Q 41.796875 17.71875 41.796875 35.296875 
Q 41.796875 52.984375 37.671875 58.78125 
Q 33.546875 64.59375 27.390625 64.59375 
Q 21.34375 64.59375 17.71875 59.46875 
Q 13.1875 52.9375 13.1875 35.296875 
z
" id="ArialMT-30"/>
      </defs>
      <g style="fill:#262626;" transform="translate(105.495696 116.793594)scale(0.11 -0.11)">
       <use xlink:href="#ArialMT-31"/>
       <use x="55.615234" xlink:href="#ArialMT-30"/>
      </g>
     </g>
    </g>
    <g id="xtick_6">
     <g id="line2d_6">
      <g>
       <use style="fill:#262626;stroke:#262626;stroke-width:0.8;" x="126.674545" xlink:href="#ma19795285b" y="101.92"/>
      </g>
     </g>
     <g id="text_6">
      <!-- 12 -->
      <g style="fill:#262626;" transform="translate(120.557514 116.793594)scale(0.11 -0.11)">
       <use xlink:href="#ArialMT-31"/>
       <use x="55.615234" xlink:href="#ArialMT-32"/>
      </g>
     </g>
    </g>
    <g id="text_7">
     <!-- pH -->
     <defs>
      <path d="M 6.59375 -19.875 
L 6.59375 51.859375 
L 14.59375 51.859375 
L 14.59375 45.125 
Q 17.4375 49.078125 21 51.046875 
Q 24.5625 53.03125 29.640625 53.03125 
Q 36.28125 53.03125 41.359375 49.609375 
Q 46.4375 46.1875 49.015625 39.953125 
Q 51.609375 33.734375 51.609375 26.3125 
Q 51.609375 18.359375 48.75 11.984375 
Q 45.90625 5.609375 40.453125 2.21875 
Q 35.015625 -1.171875 29 -1.171875 
Q 24.609375 -1.171875 21.109375 0.6875 
Q 17.625 2.546875 15.375 5.375 
L 15.375 -19.875 
z
M 14.546875 25.640625 
Q 14.546875 15.625 18.59375 10.84375 
Q 22.65625 6.0625 28.421875 6.0625 
Q 34.28125 6.0625 38.453125 11.015625 
Q 42.625 15.96875 42.625 26.375 
Q 42.625 36.28125 38.546875 41.203125 
Q 34.46875 46.140625 28.8125 46.140625 
Q 23.1875 46.140625 18.859375 40.890625 
Q 14.546875 35.640625 14.546875 25.640625 
z
" id="ArialMT-70"/>
      <path d="M 8.015625 0 
L 8.015625 71.578125 
L 17.484375 71.578125 
L 17.484375 42.1875 
L 54.6875 42.1875 
L 54.6875 71.578125 
L 64.15625 71.578125 
L 64.15625 0 
L 54.6875 0 
L 54.6875 33.734375 
L 17.484375 33.734375 
L 17.484375 0 
z
" id="ArialMT-48"/>
     </defs>
     <g style="fill:#262626;" transform="translate(81.989453 130.853437)scale(0.11 -0.11)">
      <use xlink:href="#ArialMT-70"/>
      <use x="55.615234" xlink:href="#ArialMT-48"/>
     </g>
    </g>
   </g>
   <g id="matplotlib.axis_2">
    <g id="ytick_1">
     <g id="line2d_7">
      <defs>
       <path d="M 0 0 
L -3.5 0 
" id="m77dfff5838" style="stroke:#262626;stroke-width:0.8;"/>
      </defs>
      <g>
       <use style="fill:#262626;stroke:#262626;stroke-width:0.8;" x="47.6" xlink:href="#m77dfff5838" y="91.669709"/>
      </g>
     </g>
     <g id="text_8">
      <!-- 0 -->
      <g style="fill:#262626;" transform="translate(34.482969 95.606506)scale(0.11 -0.11)">
       <use xlink:href="#ArialMT-30"/>
      </g>
     </g>
    </g>
    <g id="ytick_2">
     <g id="line2d_8">
      <g>
       <use style="fill:#262626;stroke:#262626;stroke-width:0.8;" x="47.6" xlink:href="#m77dfff5838" y="62.698492"/>
      </g>
     </g>
     <g id="text_9">
      <!-- 20 -->
      <g style="fill:#262626;" transform="translate(28.365938 66.635289)scale(0.11 -0.11)">
       <use xlink:href="#ArialMT-32"/>
       <use x="55.615234" xlink:href="#ArialMT-30"/>
      </g>
     </g>
    </g>
    <g id="ytick_3">
     <g id="line2d_9">
      <g>
       <use style="fill:#262626;stroke:#262626;stroke-width:0.8;" x="47.6" xlink:href="#m77dfff5838" y="33.727274"/>
      </g>
     </g>
     <g id="text_10">
      <!-- 40 -->
      <g style="fill:#262626;" transform="translate(28.365938 37.664071)scale(0.11 -0.11)">
       <use xlink:href="#ArialMT-34"/>
       <use x="55.615234" xlink:href="#ArialMT-30"/>
      </g>
     </g>
    </g>
    <g id="text_11">
     <!-- Free energy ($k_B T$) -->
     <defs>
      <path d="M 8.203125 0 
L 8.203125 71.578125 
L 56.5 71.578125 
L 56.5 63.140625 
L 17.671875 63.140625 
L 17.671875 40.96875 
L 51.265625 40.96875 
L 51.265625 32.515625 
L 17.671875 32.515625 
L 17.671875 0 
z
" id="ArialMT-46"/>
      <path d="M 6.5 0 
L 6.5 51.859375 
L 14.40625 51.859375 
L 14.40625 44 
Q 17.4375 49.515625 20 51.265625 
Q 22.5625 53.03125 25.640625 53.03125 
Q 30.078125 53.03125 34.671875 50.203125 
L 31.640625 42.046875 
Q 28.421875 43.953125 25.203125 43.953125 
Q 22.3125 43.953125 20.015625 42.21875 
Q 17.71875 40.484375 16.75 37.40625 
Q 15.28125 32.71875 15.28125 27.15625 
L 15.28125 0 
z
" id="ArialMT-72"/>
      <path d="M 42.09375 16.703125 
L 51.171875 15.578125 
Q 49.03125 7.625 43.21875 3.21875 
Q 37.40625 -1.171875 28.375 -1.171875 
Q 17 -1.171875 10.328125 5.828125 
Q 3.65625 12.84375 3.65625 25.484375 
Q 3.65625 38.578125 10.390625 45.796875 
Q 17.140625 53.03125 27.875 53.03125 
Q 38.28125 53.03125 44.875 45.953125 
Q 51.46875 38.875 51.46875 26.03125 
Q 51.46875 25.25 51.421875 23.6875 
L 12.75 23.6875 
Q 13.234375 15.140625 17.578125 10.59375 
Q 21.921875 6.0625 28.421875 6.0625 
Q 33.25 6.0625 36.671875 8.59375 
Q 40.09375 11.140625 42.09375 16.703125 
z
M 13.234375 30.90625 
L 42.1875 30.90625 
Q 41.609375 37.453125 38.875 40.71875 
Q 34.671875 45.796875 27.984375 45.796875 
Q 21.921875 45.796875 17.796875 41.75 
Q 13.671875 37.703125 13.234375 30.90625 
z
" id="ArialMT-65"/>
      <path id="ArialMT-20"/>
      <path d="M 6.59375 0 
L 6.59375 51.859375 
L 14.5 51.859375 
L 14.5 44.484375 
Q 20.21875 53.03125 31 53.03125 
Q 35.6875 53.03125 39.625 51.34375 
Q 43.5625 49.65625 45.515625 46.921875 
Q 47.46875 44.1875 48.25 40.4375 
Q 48.734375 37.984375 48.734375 31.890625 
L 48.734375 0 
L 39.9375 0 
L 39.9375 31.546875 
Q 39.9375 36.921875 38.90625 39.578125 
Q 37.890625 42.234375 35.28125 43.8125 
Q 32.671875 45.40625 29.15625 45.40625 
Q 23.53125 45.40625 19.453125 41.84375 
Q 15.375 38.28125 15.375 28.328125 
L 15.375 0 
z
" id="ArialMT-6e"/>
      <path d="M 4.984375 -4.296875 
L 13.53125 -5.5625 
Q 14.0625 -9.515625 16.5 -11.328125 
Q 19.78125 -13.765625 25.4375 -13.765625 
Q 31.546875 -13.765625 34.859375 -11.328125 
Q 38.1875 -8.890625 39.359375 -4.5 
Q 40.046875 -1.8125 39.984375 6.78125 
Q 34.234375 0 25.640625 0 
Q 14.9375 0 9.078125 7.71875 
Q 3.21875 15.4375 3.21875 26.21875 
Q 3.21875 33.640625 5.90625 39.90625 
Q 8.59375 46.1875 13.6875 49.609375 
Q 18.796875 53.03125 25.6875 53.03125 
Q 34.859375 53.03125 40.828125 45.609375 
L 40.828125 51.859375 
L 48.921875 51.859375 
L 48.921875 7.03125 
Q 48.921875 -5.078125 46.453125 -10.125 
Q 44 -15.1875 38.640625 -18.109375 
Q 33.296875 -21.046875 25.484375 -21.046875 
Q 16.21875 -21.046875 10.5 -16.875 
Q 4.78125 -12.703125 4.984375 -4.296875 
z
M 12.25 26.859375 
Q 12.25 16.65625 16.296875 11.96875 
Q 20.359375 7.28125 26.46875 7.28125 
Q 32.515625 7.28125 36.609375 11.9375 
Q 40.71875 16.609375 40.71875 26.5625 
Q 40.71875 36.078125 36.5 40.90625 
Q 32.28125 45.75 26.3125 45.75 
Q 20.453125 45.75 16.34375 40.984375 
Q 12.25 36.234375 12.25 26.859375 
z
" id="ArialMT-67"/>
      <path d="M 6.203125 -19.96875 
L 5.21875 -11.71875 
Q 8.109375 -12.5 10.25 -12.5 
Q 13.1875 -12.5 14.9375 -11.515625 
Q 16.703125 -10.546875 17.828125 -8.796875 
Q 18.65625 -7.46875 20.515625 -2.25 
Q 20.75 -1.515625 21.296875 -0.09375 
L 1.609375 51.859375 
L 11.078125 51.859375 
L 21.875 21.828125 
Q 23.96875 16.109375 25.640625 9.8125 
Q 27.15625 15.875 29.25 21.625 
L 40.328125 51.859375 
L 49.125 51.859375 
L 29.390625 -0.875 
Q 26.21875 -9.421875 24.46875 -12.640625 
Q 22.125 -17 19.09375 -19.015625 
Q 16.0625 -21.046875 11.859375 -21.046875 
Q 9.328125 -21.046875 6.203125 -19.96875 
z
" id="ArialMT-79"/>
      <path d="M 23.390625 -21.046875 
Q 16.109375 -11.859375 11.078125 0.4375 
Q 6.0625 12.75 6.0625 25.921875 
Q 6.0625 37.546875 9.8125 48.1875 
Q 14.203125 60.546875 23.390625 72.796875 
L 29.6875 72.796875 
Q 23.78125 62.640625 21.875 58.296875 
Q 18.890625 51.5625 17.1875 44.234375 
Q 15.09375 35.109375 15.09375 25.875 
Q 15.09375 2.390625 29.6875 -21.046875 
z
" id="ArialMT-28"/>
      <path d="M 18.3125 75.984375 
L 27.296875 75.984375 
L 18.703125 31.6875 
L 49.515625 54.6875 
L 61.1875 54.6875 
L 26.8125 28.515625 
L 51.90625 0 
L 41.015625 0 
L 17.671875 26.703125 
L 12.5 0 
L 3.515625 0 
z
" id="DejaVuSans-Oblique-6b"/>
      <path d="M 16.890625 72.90625 
L 42.09375 72.90625 
Q 52.34375 72.90625 57.421875 69.09375 
Q 62.5 65.28125 62.5 57.625 
Q 62.5 50.59375 58.125 45.484375 
Q 53.765625 40.375 46.6875 39.3125 
Q 52.734375 37.9375 55.765625 34.078125 
Q 58.796875 30.21875 58.796875 23.78125 
Q 58.796875 12.796875 50.65625 6.390625 
Q 42.53125 0 28.421875 0 
L 2.6875 0 
z
M 19.28125 34.8125 
L 14.109375 8.109375 
L 29.984375 8.109375 
Q 38.921875 8.109375 43.75 12.203125 
Q 48.578125 16.3125 48.578125 23.78125 
Q 48.578125 29.546875 45.375 32.171875 
Q 42.1875 34.8125 35.109375 34.8125 
z
M 25.09375 64.796875 
L 20.796875 42.828125 
L 35.5 42.828125 
Q 43.359375 42.828125 47.78125 46.234375 
Q 52.203125 49.65625 52.203125 55.71875 
Q 52.203125 60.453125 49.21875 62.625 
Q 46.234375 64.796875 39.703125 64.796875 
z
" id="DejaVuSans-Oblique-42"/>
      <path d="M 5.90625 72.90625 
L 67.578125 72.90625 
L 66.015625 64.59375 
L 39.984375 64.59375 
L 27.484375 0 
L 17.578125 0 
L 30.078125 64.59375 
L 4.296875 64.59375 
z
" id="DejaVuSans-Oblique-54"/>
      <path d="M 12.359375 -21.046875 
L 6.0625 -21.046875 
Q 20.65625 2.390625 20.65625 25.875 
Q 20.65625 35.0625 18.5625 44.09375 
Q 16.890625 51.421875 13.921875 58.15625 
Q 12.015625 62.546875 6.0625 72.796875 
L 12.359375 72.796875 
Q 21.53125 60.546875 25.921875 48.1875 
Q 29.6875 37.546875 29.6875 25.921875 
Q 29.6875 12.75 24.625 0.4375 
Q 19.578125 -11.859375 12.359375 -21.046875 
z
" id="ArialMT-29"/>
     </defs>
     <g style="fill:#262626;" transform="translate(21.945938 101.96)rotate(-90)scale(0.11 -0.11)">
      <use transform="translate(0 0.015625)" xlink:href="#ArialMT-46"/>
      <use transform="translate(61.083984 0.015625)" xlink:href="#ArialMT-72"/>
      <use transform="translate(94.384766 0.015625)" xlink:href="#ArialMT-65"/>
      <use transform="translate(150 0.015625)" xlink:href="#ArialMT-65"/>
      <use transform="translate(205.615234 0.015625)" xlink:href="#ArialMT-20"/>
      <use transform="translate(233.398438 0.015625)" xlink:href="#ArialMT-65"/>
      <use transform="translate(289.013672 0.015625)" xlink:href="#ArialMT-6e"/>
      <use transform="translate(344.628906 0.015625)" xlink:href="#ArialMT-65"/>
      <use transform="translate(400.244141 0.015625)" xlink:href="#ArialMT-72"/>
      <use transform="translate(433.544922 0.015625)" xlink:href="#ArialMT-67"/>
      <use transform="translate(489.160156 0.015625)" xlink:href="#ArialMT-79"/>
      <use transform="translate(539.160156 0.015625)" xlink:href="#ArialMT-20"/>
      <use transform="translate(566.943359 0.015625)" xlink:href="#ArialMT-28"/>
      <use transform="translate(600.244141 0.015625)" xlink:href="#DejaVuSans-Oblique-6b"/>
      <use transform="translate(658.154297 -16.390625)scale(0.7)" xlink:href="#DejaVuSans-Oblique-42"/>
      <use transform="translate(708.911133 0.015625)" xlink:href="#DejaVuSans-Oblique-54"/>
      <use transform="translate(769.995117 0.015625)" xlink:href="#ArialMT-29"/>
     </g>
    </g>
   </g>
   <g id="patch_3">
    <path d="M 47.6 101.92 
L 47.6 13.56 
" style="fill:none;stroke:#262626;stroke-linecap:square;stroke-linejoin:miter;stroke-width:0.8;"/>
   </g>
   <g id="patch_4">
    <path d="M 47.6 101.92 
L 130.44 101.92 
" style="fill:none;stroke:#262626;stroke-linecap:square;stroke-linejoin:miter;stroke-width:0.8;"/>
   </g>
   <g id="line2d_10">
    <path clip-path="url(#p25b447f3d1)" d="M 51.365455 17.576364 
L 52.118545 18.243451 
L 52.871636 18.910537 
L 53.624727 19.577624 
L 54.377818 20.244711 
L 55.130909 20.911798 
L 55.884 21.578885 
L 56.637091 22.245972 
L 57.390182 22.913059 
L 58.143273 23.580146 
L 58.896364 24.247233 
L 59.649455 24.91432 
L 60.402545 25.581407 
L 61.155636 26.248494 
L 61.908727 26.915581 
L 62.661818 27.582668 
L 63.414909 28.249755 
L 64.168 28.916841 
L 64.921091 29.583928 
L 65.674182 30.251015 
L 66.427273 30.918102 
L 67.180364 31.585189 
L 67.933455 32.252276 
L 68.686545 32.919363 
L 69.439636 33.58645 
L 70.192727 34.253537 
L 70.945818 34.920624 
L 71.698909 35.587711 
L 72.452 36.254798 
L 73.205091 36.921885 
L 73.958182 37.588972 
L 74.711273 38.256058 
L 75.464364 38.923145 
L 76.217455 39.590232 
L 76.970545 40.257319 
L 77.723636 40.924406 
L 78.476727 41.591493 
L 79.229818 42.25858 
L 79.982909 42.925667 
L 80.736 43.592754 
L 81.489091 44.259841 
L 82.242182 44.926928 
L 82.995273 45.594015 
L 83.748364 46.261102 
L 84.501455 46.928189 
L 85.254545 47.595276 
L 86.007636 48.262362 
L 86.760727 48.929449 
L 87.513818 49.596536 
L 88.266909 50.263623 
L 89.02 50.93071 
L 89.773091 51.597797 
L 90.526182 52.264884 
L 91.279273 52.931971 
L 92.032364 53.599058 
L 92.785455 54.266145 
L 93.538545 54.933232 
L 94.291636 55.600319 
L 95.044727 56.267406 
L 95.797818 56.934493 
L 96.550909 57.601579 
L 97.304 58.268666 
L 98.057091 58.935753 
L 98.810182 59.60284 
L 99.563273 60.269927 
L 100.316364 60.937014 
L 101.069455 61.604101 
L 101.822545 62.271188 
L 102.575636 62.938275 
L 103.328727 63.605362 
L 104.081818 64.272449 
L 104.834909 64.939536 
L 105.588 65.606623 
L 106.341091 66.27371 
L 107.094182 66.940796 
L 107.847273 67.607883 
L 108.600364 68.27497 
L 109.353455 68.942057 
L 110.106545 69.609144 
L 110.859636 70.276231 
L 111.612727 70.943318 
L 112.365818 71.610405 
L 113.118909 72.277492 
L 113.872 72.944579 
L 114.625091 73.611666 
L 115.378182 74.278753 
L 116.131273 74.94584 
L 116.884364 75.612927 
L 117.637455 76.280014 
L 118.390545 76.9471 
L 119.143636 77.614187 
L 119.896727 78.281274 
L 120.649818 78.948361 
L 121.402909 79.615448 
L 122.156 80.282535 
L 122.909091 80.949622 
L 123.662182 81.616709 
L 124.415273 82.283796 
L 125.168364 82.950883 
L 125.921455 83.61797 
L 126.674545 84.285057 
" style="fill:none;stroke:#d6604d;stroke-linecap:round;stroke-width:1.5;"/>
   </g>
   <g id="line2d_11">
    <path clip-path="url(#p25b447f3d1)" d="M 51.365455 95.879028 
L 52.118545 95.211941 
L 52.871636 94.544854 
L 53.624727 93.877767 
L 54.377818 93.21068 
L 55.130909 92.543593 
L 55.884 91.876506 
L 56.637091 91.209419 
L 57.390182 90.542332 
L 58.143273 89.875245 
L 58.896364 89.208158 
L 59.649455 88.541071 
L 60.402545 87.873984 
L 61.155636 87.206897 
L 61.908727 86.539811 
L 62.661818 85.872724 
L 63.414909 85.205637 
L 64.168 84.53855 
L 64.921091 83.871463 
L 65.674182 83.204376 
L 66.427273 82.537289 
L 67.180364 81.870202 
L 67.933455 81.203115 
L 68.686545 80.536028 
L 69.439636 79.868941 
L 70.192727 79.201854 
L 70.945818 78.534767 
L 71.698909 77.86768 
L 72.452 77.200593 
L 73.205091 76.533507 
L 73.958182 75.86642 
L 74.711273 75.199333 
L 75.464364 74.532246 
L 76.217455 73.865159 
L 76.970545 73.198072 
L 77.723636 72.530985 
L 78.476727 71.863898 
L 79.229818 71.196811 
L 79.982909 70.529724 
L 80.736 69.862637 
L 81.489091 69.19555 
L 82.242182 68.528463 
L 82.995273 67.861376 
L 83.748364 67.19429 
L 84.501455 66.527203 
L 85.254545 65.860116 
L 86.007636 65.193029 
L 86.760727 64.525942 
L 87.513818 63.858855 
L 88.266909 63.191768 
L 89.02 62.524681 
L 89.773091 61.857594 
L 90.526182 61.190507 
L 91.279273 60.52342 
L 92.032364 59.856333 
L 92.785455 59.189247 
L 93.538545 58.52216 
L 94.291636 57.855072 
L 95.044727 57.18799 
L 95.797818 56.520895 
L 96.550909 55.853813 
L 97.304 55.186725 
L 98.057091 54.519632 
L 98.810182 53.852558 
L 99.563273 53.185484 
L 100.316364 52.518369 
L 101.069455 51.851296 
L 101.822545 51.18426 
L 102.575636 50.517139 
L 103.328727 49.850071 
L 104.081818 49.183637 
L 104.834909 48.513557 
L 105.588 47.849588 
L 106.341091 47.182619 
L 107.094182 46.516859 
L 107.847273 45.830871 
L 108.600364 45.190926 
L 109.353455 44.522004 
L 110.106545 43.836715 
L 110.859636 43.206328 
L 111.612727 42.611072 
L 112.365818 41.715863 
L 113.118909 41.128154 
L 113.872 39.984758 
L 114.625091 39.867023 
L 115.378182 39.200362 
L 116.131273 39.552096 
L 116.884364 37.867041 
L 117.637455 37.20038 
L 118.390545 36.533719 
L 119.143636 35.867059 
L 119.896727 35.200398 
L 120.649818 34.533737 
L 121.402909 33.867077 
L 122.156 33.200416 
L 122.909091 32.533755 
L 123.662182 31.867095 
L 124.415273 31.200434 
L 125.168364 30.533773 
L 125.921455 29.867113 
L 126.674545 29.200452 
" style="fill:none;stroke:#4393c3;stroke-linecap:round;stroke-width:1.5;"/>
   </g>
   <g id="line2d_12">
    <path clip-path="url(#p25b447f3d1)" d="M 51.365455 54.623036 
L 52.118545 54.95658 
L 52.871636 55.290123 
L 53.624727 55.623667 
L 54.377818 55.95721 
L 55.130909 56.290754 
L 55.884 56.624297 
L 56.637091 56.957841 
L 57.390182 57.291384 
L 58.143273 57.624928 
L 58.896364 57.958471 
L 59.649455 58.292014 
L 60.402545 58.625558 
L 61.155636 58.959101 
L 61.908727 59.292645 
L 62.661818 59.626188 
L 63.414909 59.959732 
L 64.168 60.293275 
L 64.921091 60.626819 
L 65.674182 60.960362 
L 66.427273 61.293906 
L 67.180364 61.627449 
L 67.933455 61.960993 
L 68.686545 62.294536 
L 69.439636 62.628079 
L 70.192727 62.961623 
L 70.945818 63.295166 
L 71.698909 63.62871 
L 72.452 63.962253 
L 73.205091 64.295797 
L 73.958182 64.62934 
L 74.711273 64.962884 
L 75.464364 65.296427 
L 76.217455 65.629971 
L 76.970545 65.963514 
L 77.723636 66.297058 
L 78.476727 66.630601 
L 79.229818 66.964145 
L 79.982909 67.297688 
L 80.736 67.631231 
L 81.489091 67.964775 
L 82.242182 68.298318 
L 82.995273 68.631862 
L 83.748364 68.965405 
L 84.501455 69.298949 
L 85.254545 69.632492 
L 86.007636 69.966036 
L 86.760727 70.299579 
L 87.513818 70.633123 
L 88.266909 70.966666 
L 89.02 71.30021 
L 89.773091 71.633753 
L 90.526182 71.967297 
L 91.279273 72.30084 
L 92.032364 72.634383 
L 92.785455 72.967927 
L 93.538545 73.30147 
L 94.291636 73.635014 
L 95.044727 73.968557 
L 95.797818 74.302101 
L 96.550909 74.635644 
L 97.304 74.969188 
L 98.057091 75.302731 
L 98.810182 75.636275 
L 99.563273 75.969818 
L 100.316364 76.303362 
L 101.069455 76.636905 
L 101.822545 76.970448 
L 102.575636 77.303992 
L 103.328727 77.637535 
L 104.081818 77.971079 
L 104.834909 78.304622 
L 105.588 78.638166 
L 106.341091 78.971709 
L 107.094182 79.305253 
L 107.847273 79.638796 
L 108.600364 79.97234 
L 109.353455 80.305883 
L 110.106545 80.639427 
L 110.859636 80.97297 
L 111.612727 81.306514 
L 112.365818 81.640057 
L 113.118909 81.9736 
L 113.872 82.307144 
L 114.625091 82.640687 
L 115.378182 82.974231 
L 116.131273 83.307774 
L 116.884364 83.641318 
L 117.637455 83.974861 
L 118.390545 84.308405 
L 119.143636 84.641948 
L 119.896727 84.975492 
L 120.649818 85.309035 
L 121.402909 85.642579 
L 122.156 85.976122 
L 122.909091 86.309666 
L 123.662182 86.643209 
L 124.415273 86.976752 
L 125.168364 87.310296 
L 125.921455 87.643839 
L 126.674545 87.977383 
" style="fill:none;stroke:#f4a582;stroke-linecap:round;stroke-width:1.5;"/>
   </g>
   <g id="line2d_13">
    <path clip-path="url(#p25b447f3d1)" d="M 51.365455 97.903636 
L 52.118545 97.570093 
L 52.871636 97.236549 
L 53.624727 96.903006 
L 54.377818 96.569463 
L 55.130909 96.235919 
L 55.884 95.902376 
L 56.637091 95.568832 
L 57.390182 95.235289 
L 58.143273 94.901745 
L 58.896364 94.568202 
L 59.649455 94.234658 
L 60.402545 93.901115 
L 61.155636 93.567571 
L 61.908727 93.234028 
L 62.661818 92.900484 
L 63.414909 92.566941 
L 64.168 92.233397 
L 64.921091 91.899854 
L 65.674182 91.566311 
L 66.427273 91.232767 
L 67.180364 90.899224 
L 67.933455 90.56568 
L 68.686545 90.232137 
L 69.439636 89.898593 
L 70.192727 89.56505 
L 70.945818 89.231506 
L 71.698909 88.897963 
L 72.452 88.564419 
L 73.205091 88.230876 
L 73.958182 87.897332 
L 74.711273 87.563789 
L 75.464364 87.230245 
L 76.217455 86.896702 
L 76.970545 86.563159 
L 77.723636 86.229615 
L 78.476727 85.896072 
L 79.229818 85.562528 
L 79.982909 85.228985 
L 80.736 84.895441 
L 81.489091 84.561898 
L 82.242182 84.228354 
L 82.995273 83.894811 
L 83.748364 83.561267 
L 84.501455 83.227724 
L 85.254545 82.89418 
L 86.007636 82.560637 
L 86.760727 82.227093 
L 87.513818 81.89355 
L 88.266909 81.560007 
L 89.02 81.226463 
L 89.773091 80.89292 
L 90.526182 80.559376 
L 91.279273 80.225833 
L 92.032364 79.892289 
L 92.785455 79.558746 
L 93.538545 79.225202 
L 94.291636 78.891659 
L 95.044727 78.558115 
L 95.797818 78.224572 
L 96.550909 77.891028 
L 97.304 77.557485 
L 98.057091 77.223942 
L 98.810182 76.890398 
L 99.563273 76.556855 
L 100.316364 76.223311 
L 101.069455 75.889768 
L 101.822545 75.556224 
L 102.575636 75.222681 
L 103.328727 74.889137 
L 104.081818 74.555594 
L 104.834909 74.22205 
L 105.588 73.888507 
L 106.341091 73.554963 
L 107.094182 73.22142 
L 107.847273 72.887876 
L 108.600364 72.554333 
L 109.353455 72.22079 
L 110.106545 71.887246 
L 110.859636 71.553703 
L 111.612727 71.220159 
L 112.365818 70.886616 
L 113.118909 70.553072 
L 113.872 70.219529 
L 114.625091 69.885985 
L 115.378182 69.552442 
L 116.131273 69.218898 
L 116.884364 68.885355 
L 117.637455 68.551811 
L 118.390545 68.218268 
L 119.143636 67.884724 
L 119.896727 67.551181 
L 120.649818 67.217638 
L 121.402909 66.884094 
L 122.156 66.550551 
L 122.909091 66.217007 
L 123.662182 65.883464 
L 124.415273 65.54992 
L 125.168364 65.216377 
L 125.921455 64.882833 
L 126.674545 64.54929 
" style="fill:none;stroke:#92c5de;stroke-linecap:round;stroke-width:1.5;"/>
   </g>
   <g id="line2d_14">
    <path clip-path="url(#p25b447f3d1)" d="M 51.365455 91.669709 
L 52.118545 91.669709 
L 52.871636 91.669709 
L 53.624727 91.669709 
L 54.377818 91.669709 
L 55.130909 91.669709 
L 55.884 91.669709 
L 56.637091 91.669709 
L 57.390182 91.669709 
L 58.143273 91.669709 
L 58.896364 91.669709 
L 59.649455 91.669709 
L 60.402545 91.669709 
L 61.155636 91.669709 
L 61.908727 91.669709 
L 62.661818 91.669709 
L 63.414909 91.669709 
L 64.168 91.669709 
L 64.921091 91.669709 
L 65.674182 91.669709 
L 66.427273 91.669709 
L 67.180364 91.669709 
L 67.933455 91.669709 
L 68.686545 91.669709 
L 69.439636 91.669709 
L 70.192727 91.669709 
L 70.945818 91.669709 
L 71.698909 91.669709 
L 72.452 91.669709 
L 73.205091 91.669709 
L 73.958182 91.669709 
L 74.711273 91.669709 
L 75.464364 91.669709 
L 76.217455 91.669709 
L 76.970545 91.669709 
L 77.723636 91.669709 
L 78.476727 91.669709 
L 79.229818 91.669709 
L 79.982909 91.669709 
L 80.736 91.669709 
L 81.489091 91.669709 
L 82.242182 91.669709 
L 82.995273 91.669709 
L 83.748364 91.669709 
L 84.501455 91.669709 
L 85.254545 91.669709 
L 86.007636 91.669709 
L 86.760727 91.669709 
L 87.513818 91.669709 
L 88.266909 91.669709 
L 89.02 91.669709 
L 89.773091 91.669709 
L 90.526182 91.669709 
L 91.279273 91.669709 
L 92.032364 91.669709 
L 92.785455 91.669709 
L 93.538545 91.669709 
L 94.291636 91.669709 
L 95.044727 91.669709 
L 95.797818 91.669709 
L 96.550909 91.669709 
L 97.304 91.669709 
L 98.057091 91.669709 
L 98.810182 91.669709 
L 99.563273 91.669709 
L 100.316364 91.669709 
L 101.069455 91.669709 
L 101.822545 91.669709 
L 102.575636 91.669709 
L 103.328727 91.669709 
L 104.081818 91.669709 
L 104.834909 91.669709 
L 105.588 91.669709 
L 106.341091 91.669709 
L 107.094182 91.669709 
L 107.847273 91.669709 
L 108.600364 91.669709 
L 109.353455 91.669709 
L 110.106545 91.669709 
L 110.859636 91.669709 
L 111.612727 91.669709 
L 112.365818 91.669709 
L 113.118909 91.669709 
L 113.872 91.669709 
L 114.625091 91.669709 
L 115.378182 91.669709 
L 116.131273 91.669709 
L 116.884364 91.669709 
L 117.637455 91.669709 
L 118.390545 91.669709 
L 119.143636 91.669709 
L 119.896727 91.669709 
L 120.649818 91.669709 
L 121.402909 91.669709 
L 122.156 91.669709 
L 122.909091 91.669709 
L 123.662182 91.669709 
L 124.415273 91.669709 
L 125.168364 91.669709 
L 125.921455 91.669709 
L 126.674545 91.669709 
" style="fill:none;stroke:#333333;stroke-linecap:round;stroke-width:1.5;"/>
   </g>
  </g>
 </g>
 <defs>
  <clipPath id="p25b447f3d1">
   <rect height="88.36" width="82.84" x="47.6" y="13.56"/>
  </clipPath>
 </defs>
</svg>
