<?xml version="1.0" encoding="utf-8" standalone="no"?>
<!DOCTYPE svg PUBLIC "-//W3C//DTD SVG 1.1//EN"
  "http://www.w3.org/Graphics/SVG/1.1/DTD/svg11.dtd">
<!-- Created with matplotlib (http://matplotlib.org/) -->
<svg height="216pt" version="1.1" viewBox="0 0 216 216" width="216pt" xmlns="http://www.w3.org/2000/svg" xmlns:xlink="http://www.w3.org/1999/xlink">
 <defs>
  <style type="text/css">
*{stroke-linecap:butt;stroke-linejoin:round;}
  </style>
 </defs>
 <g id="figure_1">
  <g id="patch_1">
   <path d="M 0 216 
L 216 216 
L 216 0 
L 0 0 
z
" style="fill:#ffffff;"/>
  </g>
  <g id="axes_1">
   <g id="patch_2">
    <path d="M 44.78 175.96 
L 203.52 175.96 
L 203.52 25.44 
L 44.78 25.44 
z
" style="fill:#ffffff;"/>
   </g>
   <g id="matplotlib.axis_1">
    <g id="xtick_1">
     <g id="line2d_1">
      <defs>
       <path d="M 0 0 
L 0 3.5 
" id="m4d4fb18d1d" style="stroke:#262626;stroke-width:0.8;"/>
      </defs>
      <g>
       <use style="fill:#262626;stroke:#262626;stroke-width:0.8;" x="51.995455" xlink:href="#m4d4fb18d1d" y="175.96"/>
      </g>
     </g>
     <g id="text_1">
      <!-- 2 -->
      <defs>
       <path d="M 50.34375 8.453125 
L 50.34375 0 
L 3.03125 0 
Q 2.9375 3.171875 4.046875 6.109375 
Q 5.859375 10.9375 9.828125 15.625 
Q 13.8125 20.3125 21.34375 26.46875 
Q 33.015625 36.03125 37.109375 41.625 
Q 41.21875 47.21875 41.21875 52.203125 
Q 41.21875 57.421875 37.46875 61 
Q 33.734375 64.59375 27.734375 64.59375 
Q 21.390625 64.59375 17.578125 60.78125 
Q 13.765625 56.984375 13.71875 50.25 
L 4.6875 51.171875 
Q 5.609375 61.28125 11.65625 66.578125 
Q 17.71875 71.875 27.9375 71.875 
Q 38.234375 71.875 44.234375 66.15625 
Q 50.25 60.453125 50.25 52 
Q 50.25 47.703125 48.484375 43.546875 
Q 46.734375 39.40625 42.65625 34.8125 
Q 38.578125 30.21875 29.109375 22.21875 
Q 21.1875 15.578125 18.9375 13.203125 
Q 16.703125 10.84375 15.234375 8.453125 
z
" id="ArialMT-32"/>
      </defs>
      <g style="fill:#262626;" transform="translate(49.214986 190.117812)scale(0.1 -0.1)">
       <use xlink:href="#ArialMT-32"/>
      </g>
     </g>
    </g>
    <g id="xtick_2">
     <g id="line2d_2">
      <g>
       <use style="fill:#262626;stroke:#262626;stroke-width:0.8;" x="80.857273" xlink:href="#m4d4fb18d1d" y="175.96"/>
      </g>
     </g>
     <g id="text_2">
      <!-- 4 -->
      <defs>
       <path d="M 32.328125 0 
L 32.328125 17.140625 
L 1.265625 17.140625 
L 1.265625 25.203125 
L 33.9375 71.578125 
L 41.109375 71.578125 
L 41.109375 25.203125 
L 50.78125 25.203125 
L 50.78125 17.140625 
L 41.109375 17.140625 
L 41.109375 0 
z
M 32.328125 25.203125 
L 32.328125 57.46875 
L 9.90625 25.203125 
z
" id="ArialMT-34"/>
      </defs>
      <g style="fill:#262626;" transform="translate(78.076804 190.117812)scale(0.1 -0.1)">
       <use xlink:href="#ArialMT-34"/>
      </g>
     </g>
    </g>
    <g id="xtick_3">
     <g id="line2d_3">
      <g>
       <use style="fill:#262626;stroke:#262626;stroke-width:0.8;" x="109.719091" xlink:href="#m4d4fb18d1d" y="175.96"/>
      </g>
     </g>
     <g id="text_3">
      <!-- 6 -->
      <defs>
       <path d="M 49.75 54.046875 
L 41.015625 53.375 
Q 39.84375 58.546875 37.703125 60.890625 
Q 34.125 64.65625 28.90625 64.65625 
Q 24.703125 64.65625 21.53125 62.3125 
Q 17.390625 59.28125 14.984375 53.46875 
Q 12.59375 47.65625 12.5 36.921875 
Q 15.671875 41.75 20.265625 44.09375 
Q 24.859375 46.4375 29.890625 46.4375 
Q 38.671875 46.4375 44.84375 39.96875 
Q 51.03125 33.5 51.03125 23.25 
Q 51.03125 16.5 48.125 10.71875 
Q 45.21875 4.9375 40.140625 1.859375 
Q 35.0625 -1.21875 28.609375 -1.21875 
Q 17.625 -1.21875 10.6875 6.859375 
Q 3.765625 14.9375 3.765625 33.5 
Q 3.765625 54.25 11.421875 63.671875 
Q 18.109375 71.875 29.4375 71.875 
Q 37.890625 71.875 43.28125 67.140625 
Q 48.6875 62.40625 49.75 54.046875 
z
M 13.875 23.1875 
Q 13.875 18.65625 15.796875 14.5 
Q 17.71875 10.359375 21.1875 8.171875 
Q 24.65625 6 28.46875 6 
Q 34.03125 6 38.03125 10.484375 
Q 42.046875 14.984375 42.046875 22.703125 
Q 42.046875 30.125 38.078125 34.390625 
Q 34.125 38.671875 28.125 38.671875 
Q 22.171875 38.671875 18.015625 34.390625 
Q 13.875 30.125 13.875 23.1875 
z
" id="ArialMT-36"/>
      </defs>
      <g style="fill:#262626;" transform="translate(106.938622 190.117812)scale(0.1 -0.1)">
       <use xlink:href="#ArialMT-36"/>
      </g>
     </g>
    </g>
    <g id="xtick_4">
     <g id="line2d_4">
      <g>
       <use style="fill:#262626;stroke:#262626;stroke-width:0.8;" x="138.580909" xlink:href="#m4d4fb18d1d" y="175.96"/>
      </g>
     </g>
     <g id="text_4">
      <!-- 8 -->
      <defs>
       <path d="M 17.671875 38.8125 
Q 12.203125 40.828125 9.5625 44.53125 
Q 6.9375 48.25 6.9375 53.421875 
Q 6.9375 61.234375 12.546875 66.546875 
Q 18.171875 71.875 27.484375 71.875 
Q 36.859375 71.875 42.578125 66.421875 
Q 48.296875 60.984375 48.296875 53.171875 
Q 48.296875 48.1875 45.671875 44.5 
Q 43.0625 40.828125 37.75 38.8125 
Q 44.34375 36.671875 47.78125 31.875 
Q 51.21875 27.09375 51.21875 20.453125 
Q 51.21875 11.28125 44.71875 5.03125 
Q 38.234375 -1.21875 27.640625 -1.21875 
Q 17.046875 -1.21875 10.546875 5.046875 
Q 4.046875 11.328125 4.046875 20.703125 
Q 4.046875 27.6875 7.59375 32.390625 
Q 11.140625 37.109375 17.671875 38.8125 
z
M 15.921875 53.71875 
Q 15.921875 48.640625 19.1875 45.40625 
Q 22.46875 42.1875 27.6875 42.1875 
Q 32.765625 42.1875 36.015625 45.375 
Q 39.265625 48.578125 39.265625 53.21875 
Q 39.265625 58.0625 35.90625 61.359375 
Q 32.5625 64.65625 27.59375 64.65625 
Q 22.5625 64.65625 19.234375 61.421875 
Q 15.921875 58.203125 15.921875 53.71875 
z
M 13.09375 20.65625 
Q 13.09375 16.890625 14.875 13.375 
Q 16.65625 9.859375 20.171875 7.921875 
Q 23.6875 6 27.734375 6 
Q 34.03125 6 38.125 10.046875 
Q 42.234375 14.109375 42.234375 20.359375 
Q 42.234375 26.703125 38.015625 30.859375 
Q 33.796875 35.015625 27.4375 35.015625 
Q 21.234375 35.015625 17.15625 30.90625 
Q 13.09375 26.8125 13.09375 20.65625 
z
" id="ArialMT-38"/>
      </defs>
      <g style="fill:#262626;" transform="translate(135.80044 190.117812)scale(0.1 -0.1)">
       <use xlink:href="#ArialMT-38"/>
      </g>
     </g>
    </g>
    <g id="xtick_5">
     <g id="line2d_5">
      <g>
       <use style="fill:#262626;stroke:#262626;stroke-width:0.8;" x="167.442727" xlink:href="#m4d4fb18d1d" y="175.96"/>
      </g>
     </g>
     <g id="text_5">
      <!-- 10 -->
      <defs>
       <path d="M 37.25 0 
L 28.46875 0 
L 28.46875 56 
Q 25.296875 52.984375 20.140625 49.953125 
Q 14.984375 46.921875 10.890625 45.40625 
L 10.890625 53.90625 
Q 18.265625 57.375 23.78125 62.296875 
Q 29.296875 67.234375 31.59375 71.875 
L 37.25 71.875 
z
" id="ArialMT-31"/>
       <path d="M 4.15625 35.296875 
Q 4.15625 48 6.765625 55.734375 
Q 9.375 63.484375 14.515625 67.671875 
Q 19.671875 71.875 27.484375 71.875 
Q 33.25 71.875 37.59375 69.546875 
Q 41.9375 67.234375 44.765625 62.859375 
Q 47.609375 58.5 49.21875 52.21875 
Q 50.828125 45.953125 50.828125 35.296875 
Q 50.828125 22.703125 48.234375 14.96875 
Q 45.65625 7.234375 40.5 3 
Q 35.359375 -1.21875 27.484375 -1.21875 
Q 17.140625 -1.21875 11.234375 6.203125 
Q 4.15625 15.140625 4.15625 35.296875 
z
M 13.1875 35.296875 
Q 13.1875 17.671875 17.3125 11.828125 
Q 21.4375 6 27.484375 6 
Q 33.546875 6 37.671875 11.859375 
Q 41.796875 17.71875 41.796875 35.296875 
Q 41.796875 52.984375 37.671875 58.78125 
Q 33.546875 64.59375 27.390625 64.59375 
Q 21.34375 64.59375 17.71875 59.46875 
Q 13.1875 52.9375 13.1875 35.296875 
z
" id="ArialMT-30"/>
      </defs>
      <g style="fill:#262626;" transform="translate(161.88179 190.117812)scale(0.1 -0.1)">
       <use xlink:href="#ArialMT-31"/>
       <use x="55.615234" xlink:href="#ArialMT-30"/>
      </g>
     </g>
    </g>
    <g id="xtick_6">
     <g id="line2d_6">
      <g>
       <use style="fill:#262626;stroke:#262626;stroke-width:0.8;" x="196.304545" xlink:href="#m4d4fb18d1d" y="175.96"/>
      </g>
     </g>
     <g id="text_6">
      <!-- 12 -->
      <g style="fill:#262626;" transform="translate(190.743608 190.117812)scale(0.1 -0.1)">
       <use xlink:href="#ArialMT-31"/>
       <use x="55.615234" xlink:href="#ArialMT-32"/>
      </g>
     </g>
    </g>
    <g id="text_7">
     <!-- pH -->
     <defs>
      <path d="M 6.59375 -19.875 
L 6.59375 51.859375 
L 14.59375 51.859375 
L 14.59375 45.125 
Q 17.4375 49.078125 21 51.046875 
Q 24.5625 53.03125 29.640625 53.03125 
Q 36.28125 53.03125 41.359375 49.609375 
Q 46.4375 46.1875 49.015625 39.953125 
Q 51.609375 33.734375 51.609375 26.3125 
Q 51.609375 18.359375 48.75 11.984375 
Q 45.90625 5.609375 40.453125 2.21875 
Q 35.015625 -1.171875 29 -1.171875 
Q 24.609375 -1.171875 21.109375 0.6875 
Q 17.625 2.546875 15.375 5.375 
L 15.375 -19.875 
z
M 14.546875 25.640625 
Q 14.546875 15.625 18.59375 10.84375 
Q 22.65625 6.0625 28.421875 6.0625 
Q 34.28125 6.0625 38.453125 11.015625 
Q 42.625 15.96875 42.625 26.375 
Q 42.625 36.28125 38.546875 41.203125 
Q 34.46875 46.140625 28.8125 46.140625 
Q 23.1875 46.140625 18.859375 40.890625 
Q 14.546875 35.640625 14.546875 25.640625 
z
" id="ArialMT-70"/>
      <path d="M 8.015625 0 
L 8.015625 71.578125 
L 17.484375 71.578125 
L 17.484375 42.1875 
L 54.6875 42.1875 
L 54.6875 71.578125 
L 64.15625 71.578125 
L 64.15625 0 
L 54.6875 0 
L 54.6875 33.734375 
L 17.484375 33.734375 
L 17.484375 0 
z
" id="ArialMT-48"/>
     </defs>
     <g style="fill:#262626;" transform="translate(117.758594 203.263125)scale(0.1 -0.1)">
      <use xlink:href="#ArialMT-70"/>
      <use x="55.615234" xlink:href="#ArialMT-48"/>
     </g>
    </g>
   </g>
   <g id="matplotlib.axis_2">
    <g id="ytick_1">
     <g id="line2d_7">
      <defs>
       <path d="M 0 0 
L -3.5 0 
" id="ma9db9d0a5f" style="stroke:#262626;stroke-width:0.8;"/>
      </defs>
      <g>
       <use style="fill:#262626;stroke:#262626;stroke-width:0.8;" x="44.78" xlink:href="#ma9db9d0a5f" y="174.239599"/>
      </g>
     </g>
     <g id="text_8">
      <!-- −1 -->
      <defs>
       <path d="M 52.828125 31.203125 
L 5.5625 31.203125 
L 5.5625 39.40625 
L 52.828125 39.40625 
z
" id="ArialMT-2212"/>
      </defs>
      <g style="fill:#262626;" transform="translate(26.378438 177.818505)scale(0.1 -0.1)">
       <use xlink:href="#ArialMT-2212"/>
       <use x="58.398438" xlink:href="#ArialMT-31"/>
      </g>
     </g>
    </g>
    <g id="ytick_2">
     <g id="line2d_8">
      <g>
       <use style="fill:#262626;stroke:#262626;stroke-width:0.8;" x="44.78" xlink:href="#ma9db9d0a5f" y="138.66248"/>
      </g>
     </g>
     <g id="text_9">
      <!-- 0 -->
      <g style="fill:#262626;" transform="translate(32.219063 142.241386)scale(0.1 -0.1)">
       <use xlink:href="#ArialMT-30"/>
      </g>
     </g>
    </g>
    <g id="ytick_3">
     <g id="line2d_9">
      <g>
       <use style="fill:#262626;stroke:#262626;stroke-width:0.8;" x="44.78" xlink:href="#ma9db9d0a5f" y="103.085361"/>
      </g>
     </g>
     <g id="text_10">
      <!-- 1 -->
      <g style="fill:#262626;" transform="translate(32.219063 106.664268)scale(0.1 -0.1)">
       <use xlink:href="#ArialMT-31"/>
      </g>
     </g>
    </g>
    <g id="ytick_4">
     <g id="line2d_10">
      <g>
       <use style="fill:#262626;stroke:#262626;stroke-width:0.8;" x="44.78" xlink:href="#ma9db9d0a5f" y="67.508243"/>
      </g>
     </g>
     <g id="text_11">
      <!-- 2 -->
      <g style="fill:#262626;" transform="translate(32.219063 71.087149)scale(0.1 -0.1)">
       <use xlink:href="#ArialMT-32"/>
      </g>
     </g>
    </g>
    <g id="ytick_5">
     <g id="line2d_11">
      <g>
       <use style="fill:#262626;stroke:#262626;stroke-width:0.8;" x="44.78" xlink:href="#ma9db9d0a5f" y="31.931124"/>
      </g>
     </g>
     <g id="text_12">
      <!-- 3 -->
      <defs>
       <path d="M 4.203125 18.890625 
L 12.984375 20.0625 
Q 14.5 12.59375 18.140625 9.296875 
Q 21.78125 6 27 6 
Q 33.203125 6 37.46875 10.296875 
Q 41.75 14.59375 41.75 20.953125 
Q 41.75 27 37.796875 30.921875 
Q 33.84375 34.859375 27.734375 34.859375 
Q 25.25 34.859375 21.53125 33.890625 
L 22.515625 41.609375 
Q 23.390625 41.5 23.921875 41.5 
Q 29.546875 41.5 34.03125 44.421875 
Q 38.53125 47.359375 38.53125 53.46875 
Q 38.53125 58.296875 35.25 61.46875 
Q 31.984375 64.65625 26.8125 64.65625 
Q 21.6875 64.65625 18.265625 61.421875 
Q 14.84375 58.203125 13.875 51.765625 
L 5.078125 53.328125 
Q 6.6875 62.15625 12.390625 67.015625 
Q 18.109375 71.875 26.609375 71.875 
Q 32.46875 71.875 37.390625 69.359375 
Q 42.328125 66.84375 44.9375 62.5 
Q 47.5625 58.15625 47.5625 53.265625 
Q 47.5625 48.640625 45.0625 44.828125 
Q 42.578125 41.015625 37.703125 38.765625 
Q 44.046875 37.3125 47.5625 32.6875 
Q 51.078125 28.078125 51.078125 21.140625 
Q 51.078125 11.765625 44.234375 5.25 
Q 37.40625 -1.265625 26.953125 -1.265625 
Q 17.53125 -1.265625 11.296875 4.34375 
Q 5.078125 9.96875 4.203125 18.890625 
z
" id="ArialMT-33"/>
      </defs>
      <g style="fill:#262626;" transform="translate(32.219063 35.51003)scale(0.1 -0.1)">
       <use xlink:href="#ArialMT-33"/>
      </g>
     </g>
    </g>
    <g id="text_13">
     <!-- $\langle q_\mathsf{total} \rangle$ -->
     <defs>
      <path d="M 8.9375 31.34375 
L 22.703125 75.875 
L 31 75.875 
L 17.234375 31.34375 
L 31 -13.1875 
L 22.703125 -13.1875 
z
" id="DejaVuSans-27e8"/>
      <path d="M 41.703125 8.203125 
Q 38.09375 3.46875 33.171875 1.015625 
Q 28.265625 -1.421875 22.3125 -1.421875 
Q 14.015625 -1.421875 9.296875 4.171875 
Q 4.59375 9.765625 4.59375 19.578125 
Q 4.59375 27.484375 7.5 34.859375 
Q 10.40625 42.234375 15.828125 48.09375 
Q 19.34375 51.90625 23.90625 53.953125 
Q 28.46875 56 33.5 56 
Q 39.546875 56 43.453125 53.609375 
Q 47.359375 51.21875 49.125 46.390625 
L 50.6875 54.59375 
L 59.71875 54.59375 
L 45.125 -20.609375 
L 36.078125 -20.609375 
z
M 13.921875 20.90625 
Q 13.921875 13.671875 16.9375 9.890625 
Q 19.96875 6.109375 25.6875 6.109375 
Q 34.1875 6.109375 40.1875 14.234375 
Q 46.1875 22.359375 46.1875 33.984375 
Q 46.1875 41.015625 43.078125 44.75 
Q 39.984375 48.484375 34.1875 48.484375 
Q 29.9375 48.484375 26.3125 46.5 
Q 22.703125 44.53125 20.015625 40.71875 
Q 17.1875 36.71875 15.546875 31.34375 
Q 13.921875 25.984375 13.921875 20.90625 
z
" id="DejaVuSans-Oblique-71"/>
      <path d="M 18.3125 70.21875 
L 18.3125 54.6875 
L 36.8125 54.6875 
L 36.8125 47.703125 
L 18.3125 47.703125 
L 18.3125 18.015625 
Q 18.3125 11.328125 20.140625 9.421875 
Q 21.96875 7.515625 27.59375 7.515625 
L 36.8125 7.515625 
L 36.8125 0 
L 27.59375 0 
Q 17.1875 0 13.234375 3.875 
Q 9.28125 7.765625 9.28125 18.015625 
L 9.28125 47.703125 
L 2.6875 47.703125 
L 2.6875 54.6875 
L 9.28125 54.6875 
L 9.28125 70.21875 
z
" id="DejaVuSans-74"/>
      <path d="M 30.609375 48.390625 
Q 23.390625 48.390625 19.1875 42.75 
Q 14.984375 37.109375 14.984375 27.296875 
Q 14.984375 17.484375 19.15625 11.84375 
Q 23.34375 6.203125 30.609375 6.203125 
Q 37.796875 6.203125 41.984375 11.859375 
Q 46.1875 17.53125 46.1875 27.296875 
Q 46.1875 37.015625 41.984375 42.703125 
Q 37.796875 48.390625 30.609375 48.390625 
z
M 30.609375 56 
Q 42.328125 56 49.015625 48.375 
Q 55.71875 40.765625 55.71875 27.296875 
Q 55.71875 13.875 49.015625 6.21875 
Q 42.328125 -1.421875 30.609375 -1.421875 
Q 18.84375 -1.421875 12.171875 6.21875 
Q 5.515625 13.875 5.515625 27.296875 
Q 5.515625 40.765625 12.171875 48.375 
Q 18.84375 56 30.609375 56 
z
" id="DejaVuSans-6f"/>
      <path d="M 34.28125 27.484375 
Q 23.390625 27.484375 19.1875 25 
Q 14.984375 22.515625 14.984375 16.5 
Q 14.984375 11.71875 18.140625 8.90625 
Q 21.296875 6.109375 26.703125 6.109375 
Q 34.1875 6.109375 38.703125 11.40625 
Q 43.21875 16.703125 43.21875 25.484375 
L 43.21875 27.484375 
z
M 52.203125 31.203125 
L 52.203125 0 
L 43.21875 0 
L 43.21875 8.296875 
Q 40.140625 3.328125 35.546875 0.953125 
Q 30.953125 -1.421875 24.3125 -1.421875 
Q 15.921875 -1.421875 10.953125 3.296875 
Q 6 8.015625 6 15.921875 
Q 6 25.140625 12.171875 29.828125 
Q 18.359375 34.515625 30.609375 34.515625 
L 43.21875 34.515625 
L 43.21875 35.40625 
Q 43.21875 41.609375 39.140625 45 
Q 35.0625 48.390625 27.6875 48.390625 
Q 23 48.390625 18.546875 47.265625 
Q 14.109375 46.140625 10.015625 43.890625 
L 10.015625 52.203125 
Q 14.9375 54.109375 19.578125 55.046875 
Q 24.21875 56 28.609375 56 
Q 40.484375 56 46.34375 49.84375 
Q 52.203125 43.703125 52.203125 31.203125 
z
" id="DejaVuSans-61"/>
      <path d="M 9.421875 75.984375 
L 18.40625 75.984375 
L 18.40625 0 
L 9.421875 0 
z
" id="DejaVuSans-6c"/>
      <path d="M 30.078125 31.34375 
L 16.3125 -13.1875 
L 8.015625 -13.1875 
L 21.78125 31.34375 
L 8.015625 75.875 
L 16.3125 75.875 
z
" id="DejaVuSans-27e9"/>
     </defs>
     <g style="fill:#262626;" transform="translate(20.278438 115.95)rotate(-90)scale(0.1 -0.1)">
      <use transform="translate(0 0.125)" xlink:href="#DejaVuSans-27e8"/>
      <use transform="translate(39.013672 0.125)" xlink:href="#DejaVuSans-Oblique-71"/>
      <use transform="translate(102.490234 -16.28125)scale(0.7)" xlink:href="#DejaVuSans-74"/>
      <use transform="translate(129.936523 -16.28125)scale(0.7)" xlink:href="#DejaVuSans-6f"/>
      <use transform="translate(172.763672 -16.28125)scale(0.7)" xlink:href="#DejaVuSans-74"/>
      <use transform="translate(200.209961 -16.28125)scale(0.7)" xlink:href="#DejaVuSans-61"/>
      <use transform="translate(243.105469 -16.28125)scale(0.7)" xlink:href="#DejaVuSans-6c"/>
      <use transform="translate(265.288086 0.125)" xlink:href="#DejaVuSans-27e9"/>
     </g>
    </g>
   </g>
   <g id="PolyCollection_1">
    <defs>
     <path d="M 51.995455 -183.473658 
L 51.995455 -112.583602 
L 53.438545 -112.225236 
L 54.881636 -111.845854 
L 56.324727 -111.439942 
L 57.767818 -111.000391 
L 59.210909 -110.518249 
L 60.654 -109.982502 
L 62.097091 -109.379891 
L 63.540182 -108.694881 
L 64.983273 -107.909862 
L 66.426364 -107.005727 
L 67.869455 -105.962934 
L 69.312545 -104.763159 
L 70.755636 -103.391541 
L 72.198727 -101.839395 
L 73.641818 -100.107022 
L 75.084909 -98.206019 
L 76.528 -96.160382 
L 77.971091 -94.005817 
L 79.414182 -91.786989 
L 80.857273 -89.55297 
L 82.300364 -87.351654 
L 83.743455 -85.224253 
L 85.186545 -83.200972 
L 86.629636 -81.298612 
L 88.072727 -79.520317 
L 89.515818 -77.857197 
L 90.958909 -76.291277 
L 92.402 -74.799229 
L 93.845091 -73.356394 
L 95.288182 -71.940813 
L 96.731273 -70.537028 
L 98.174364 -69.139398 
L 99.617455 -67.754486 
L 101.060545 -66.401954 
L 102.503636 -65.113408 
L 103.946727 -63.929077 
L 105.389818 -62.892778 
L 106.832909 -62.046194 
L 108.276 -61.423599 
L 109.719091 -61.047828 
L 111.162182 -60.927707 
L 112.605273 -61.056725 
L 114.048364 -61.412551 
L 115.491455 -61.957005 
L 116.934545 -62.636286 
L 118.377636 -63.381544 
L 119.820727 -64.110444 
L 121.263818 -64.731351 
L 122.706909 -65.152669 
L 124.15 -65.29897 
L 125.593091 -65.130167 
L 127.036182 -64.652883 
L 128.479273 -63.914758 
L 129.922364 -62.985374 
L 131.365455 -61.936452 
L 132.808545 -60.829779 
L 134.251636 -59.713106 
L 135.694727 -58.620698 
L 137.137818 -57.575619 
L 138.580909 -56.592282 
L 140.024 -55.678696 
L 141.467091 -54.838299 
L 142.910182 -54.071376 
L 144.353273 -53.376111 
L 145.796364 -52.749326 
L 147.239455 -52.186987 
L 148.682545 -51.684547 
L 150.125636 -51.237195 
L 151.568727 -50.840046 
L 153.011818 -50.488301 
L 154.454909 -50.177363 
L 155.898 -49.902916 
L 157.341091 -49.660974 
L 158.784182 -49.447895 
L 160.227273 -49.260376 
L 161.670364 -49.095444 
L 163.113455 -48.950428 
L 164.556545 -48.822938 
L 165.999636 -48.710841 
L 167.442727 -48.612234 
L 168.885818 -48.525418 
L 170.328909 -48.448873 
L 171.772 -48.38122 
L 173.215091 -48.321188 
L 174.658182 -48.267565 
L 176.101273 -48.219156 
L 177.544364 -48.174731 
L 178.987455 -48.132969 
L 180.430545 -48.0924 
L 181.873636 -48.051336 
L 183.316727 -48.007787 
L 184.759818 -47.959364 
L 186.202909 -47.903167 
L 187.646 -47.835656 
L 189.089091 -47.752512 
L 190.532182 -47.648506 
L 191.975273 -47.51738 
L 193.418364 -47.351759 
L 194.861455 -47.143117 
L 196.304545 -46.881818 
L 196.304545 -106.594247 
L 196.304545 -106.594247 
L 194.861455 -106.576244 
L 193.418364 -106.562072 
L 191.975273 -106.551697 
L 190.532182 -106.544382 
L 189.089091 -106.53904 
L 187.646 -106.534472 
L 186.202909 -106.52951 
L 184.759818 -106.523091 
L 183.316727 -106.514275 
L 181.873636 -106.50224 
L 180.430545 -106.486254 
L 178.987455 -106.465653 
L 177.544364 -106.439802 
L 176.101273 -106.408075 
L 174.658182 -106.369824 
L 173.215091 -106.324357 
L 171.772 -106.270911 
L 170.328909 -106.208627 
L 168.885818 -106.136516 
L 167.442727 -106.053438 
L 165.999636 -105.95807 
L 164.556545 -105.848886 
L 163.113455 -105.724139 
L 161.670364 -105.58184 
L 160.227273 -105.419743 
L 158.784182 -105.235331 
L 157.341091 -105.025794 
L 155.898 -104.788018 
L 154.454909 -104.518584 
L 153.011818 -104.21377 
L 151.568727 -103.869587 
L 150.125636 -103.48184 
L 148.682545 -103.046228 
L 147.239455 -102.55849 
L 145.796364 -102.014592 
L 144.353273 -101.410964 
L 142.910182 -100.744794 
L 141.467091 -100.014439 
L 140.024 -99.220003 
L 138.580909 -98.364179 
L 137.137818 -97.453417 
L 135.694727 -96.49949 
L 134.251636 -95.521505 
L 132.808545 -94.548372 
L 131.365455 -93.621602 
L 129.922364 -92.79791 
L 128.479273 -92.150105 
L 127.036182 -91.763389 
L 125.593091 -91.723698 
L 124.15 -92.098323 
L 122.706909 -92.917198 
L 121.263818 -94.167446 
L 119.820727 -95.804732 
L 118.377636 -97.77201 
L 116.934545 -100.014616 
L 115.491455 -102.487739 
L 114.048364 -105.157719 
L 112.605273 -107.999666 
L 111.162182 -110.9932 
L 109.719091 -114.11753 
L 108.276 -117.346937 
L 106.832909 -120.647772 
L 105.389818 -123.977847 
L 103.946727 -127.288624 
L 102.503636 -130.529724 
L 101.060545 -133.654637 
L 99.617455 -136.626193 
L 98.174364 -139.420638 
L 96.731273 -142.029702 
L 95.288182 -144.460551 
L 93.845091 -146.733963 
L 92.402 -148.881191 
L 90.958909 -150.940065 
L 89.515818 -152.950738 
L 88.072727 -154.951406 
L 86.629636 -156.974194 
L 85.186545 -159.041419 
L 83.743455 -161.162586 
L 82.300364 -163.332606 
L 80.857273 -165.531779 
L 79.414182 -167.727898 
L 77.971091 -169.880352 
L 76.528 -171.945563 
L 75.084909 -173.882621 
L 73.641818 -175.657943 
L 72.198727 -177.248125 
L 70.755636 -178.640788 
L 69.312545 -179.833745 
L 67.869455 -180.833117 
L 66.426364 -181.651044 
L 64.983273 -182.303435 
L 63.540182 -182.808057 
L 62.097091 -183.183077 
L 60.654 -183.446054 
L 59.210909 -183.613324 
L 57.767818 -183.699666 
L 56.324727 -183.718182 
L 54.881636 -183.680312 
L 53.438545 -183.595959 
L 51.995455 -183.473658 
z
" id="m1c3573ddd5" style="stroke:#ffffff;stroke-opacity:0.05;"/>
    </defs>
    <g clip-path="url(#p6e8fa1055a)">
     <use style="fill:#12711c;fill-opacity:0.05;stroke:#ffffff;stroke-opacity:0.05;" x="0" xlink:href="#m1c3573ddd5" y="216"/>
    </g>
   </g>
   <g id="line2d_12">
    <path clip-path="url(#p6e8fa1055a)" d="M 51.995455 67.97137 
L 53.438545 68.089402 
L 54.881636 68.236917 
L 56.324727 68.420938 
L 57.767818 68.649972 
L 59.210909 68.934214 
L 60.654 69.285722 
L 62.097091 69.718516 
L 63.540182 70.248531 
L 64.983273 70.893351 
L 66.426364 71.671615 
L 67.869455 72.601974 
L 69.312545 73.701548 
L 70.755636 74.983835 
L 72.198727 76.45624 
L 73.641818 78.117518 
L 75.084909 79.95568 
L 76.528 81.947027 
L 77.971091 84.056915 
L 79.414182 86.242557 
L 80.857273 88.457625 
L 82.300364 90.65787 
L 83.743455 92.80658 
L 85.186545 94.878804 
L 86.629636 96.863597 
L 88.072727 98.764138 
L 89.515818 100.596033 
L 90.958909 102.384329 
L 92.402 104.15979 
L 93.845091 105.954822 
L 95.288182 107.799318 
L 96.731273 109.716635 
L 98.174364 111.719982 
L 99.617455 113.80966 
L 101.060545 115.971704 
L 102.503636 118.178434 
L 103.946727 120.391149 
L 105.389818 122.564687 
L 106.832909 124.653017 
L 108.276 126.614732 
L 109.719091 128.417321 
L 111.162182 130.039546 
L 112.605273 131.471804 
L 114.048364 132.714865 
L 115.491455 133.777628 
L 116.934545 134.674549 
L 118.377636 135.423223 
L 119.820727 136.042412 
L 121.263818 136.550601 
L 122.706909 136.965066 
L 124.15 137.301353 
L 125.593091 137.573067 
L 127.036182 137.791864 
L 128.479273 137.967569 
L 129.922364 138.108358 
L 131.365455 138.220973 
L 132.808545 138.310925 
L 134.251636 138.382694 
L 135.694727 138.439906 
L 137.137818 138.485482 
L 138.580909 138.52177 
L 140.024 138.550651 
L 141.467091 138.573631 
L 142.910182 138.591915 
L 144.353273 138.606463 
L 145.796364 138.618041 
L 147.239455 138.627262 
L 148.682545 138.634612 
L 150.125636 138.640482 
L 151.568727 138.645183 
L 153.011818 138.648964 
L 154.454909 138.652027 
L 155.898 138.654533 
L 157.341091 138.656616 
L 158.784182 138.658387 
L 160.227273 138.65994 
L 161.670364 138.661358 
L 163.113455 138.662717 
L 164.556545 138.664088 
L 165.999636 138.665544 
L 167.442727 138.667164 
L 168.885818 138.669033 
L 170.328909 138.67125 
L 171.772 138.673934 
L 173.215091 138.677228 
L 174.658182 138.681306 
L 176.101273 138.686384 
L 177.544364 138.692733 
L 178.987455 138.700689 
L 180.430545 138.710673 
L 181.873636 138.723212 
L 183.316727 138.738969 
L 184.759818 138.758772 
L 186.202909 138.783661 
L 187.646 138.814936 
L 189.089091 138.854224 
L 190.532182 138.903556 
L 191.975273 138.965461 
L 193.418364 139.043085 
L 194.861455 139.140319 
L 196.304545 139.261968 
" style="fill:none;opacity:0.9;stroke:#12711c;stroke-linecap:round;stroke-width:1.5;"/>
   </g>
   <g id="line2d_13">
    <path clip-path="url(#p6e8fa1055a)" d="M 51.995455 103.088759 
L 53.438545 103.089638 
L 54.881636 103.090745 
L 56.324727 103.092139 
L 57.767818 103.093894 
L 59.210909 103.096102 
L 60.654 103.098882 
L 62.097091 103.102382 
L 63.540182 103.106786 
L 64.983273 103.112329 
L 66.426364 103.119305 
L 67.869455 103.128083 
L 69.312545 103.139128 
L 70.755636 103.153023 
L 72.198727 103.170501 
L 73.641818 103.192479 
L 75.084909 103.22011 
L 76.528 103.254833 
L 77.971091 103.298451 
L 79.414182 103.35321 
L 80.857273 103.421906 
L 82.300364 103.508011 
L 83.743455 103.615814 
L 85.186545 103.750594 
L 86.629636 103.918804 
L 88.072727 104.128278 
L 89.515818 104.388425 
L 90.958909 104.71041 
L 92.402 105.107263 
L 93.845091 105.593872 
L 95.288182 106.186768 
L 96.731273 106.903617 
L 98.174364 107.762294 
L 99.617455 108.779455 
L 101.060545 109.968555 
L 102.503636 111.337403 
L 103.946727 112.885497 
L 105.389818 114.601615 
L 106.832909 116.462295 
L 108.276 118.431858 
L 109.719091 120.464396 
L 111.162182 122.50769 
L 112.605273 124.508411 
L 114.048364 126.417565 
L 115.491455 128.195029 
L 116.934545 129.812344 
L 118.377636 131.253504 
L 119.820727 132.513972 
L 121.263818 133.598551 
L 122.706909 134.518752 
L 124.15 135.290218 
L 125.593091 135.930537 
L 127.036182 136.457598 
L 128.479273 136.888468 
L 129.922364 137.238731 
L 131.365455 137.52217 
L 132.808545 137.750689 
L 134.251636 137.934381 
L 135.694727 138.081686 
L 137.137818 138.199585 
L 138.580909 138.293803 
L 140.024 138.369004 
L 141.467091 138.428967 
L 142.910182 138.476744 
L 144.353273 138.514786 
L 145.796364 138.545062 
L 147.239455 138.569148 
L 148.682545 138.588304 
L 150.125636 138.603535 
L 151.568727 138.615642 
L 153.011818 138.625265 
L 154.454909 138.632913 
L 155.898 138.63899 
L 157.341091 138.643819 
L 158.784182 138.647655 
L 160.227273 138.650703 
L 161.670364 138.653125 
L 163.113455 138.655049 
L 164.556545 138.656577 
L 165.999636 138.657791 
L 167.442727 138.658755 
L 168.885818 138.659521 
L 170.328909 138.66013 
L 171.772 138.660613 
L 173.215091 138.660997 
L 174.658182 138.661302 
L 176.101273 138.661544 
L 177.544364 138.661737 
L 178.987455 138.66189 
L 180.430545 138.662011 
L 181.873636 138.662108 
L 183.316727 138.662184 
L 184.759818 138.662245 
L 186.202909 138.662293 
L 187.646 138.662332 
L 189.089091 138.662362 
L 190.532182 138.662387 
L 191.975273 138.662406 
L 193.418364 138.662421 
L 194.861455 138.662433 
L 196.304545 138.662443 
" style="fill:none;opacity:0.7;stroke:#000000;stroke-linecap:round;stroke-width:1.5;"/>
   </g>
   <g id="line2d_14">
    <path clip-path="url(#p6e8fa1055a)" d="M 51.995455 32.526342 
L 53.438545 32.404041 
L 54.881636 32.319688 
L 56.324727 32.281818 
L 57.767818 32.300334 
L 59.210909 32.386676 
L 60.654 32.553946 
L 62.097091 32.816923 
L 63.540182 33.191943 
L 64.983273 33.696565 
L 66.426364 34.348956 
L 67.869455 35.166883 
L 69.312545 36.166255 
L 70.755636 37.359212 
L 72.198727 38.751875 
L 73.641818 40.342057 
L 75.084909 42.117379 
L 76.528 44.054437 
L 77.971091 46.119648 
L 79.414182 48.272102 
L 80.857273 50.468221 
L 82.300364 52.667394 
L 83.743455 54.837414 
L 85.186545 56.958581 
L 86.629636 59.025806 
L 88.072727 61.048594 
L 89.515818 63.049262 
L 90.958909 65.059935 
L 92.402 67.118809 
L 93.845091 69.266037 
L 95.288182 71.539449 
L 96.731273 73.970298 
L 98.174364 76.579362 
L 99.617455 79.373807 
L 101.060545 82.345363 
L 102.503636 85.470276 
L 103.946727 88.711376 
L 105.389818 92.022153 
L 106.832909 95.352228 
L 108.276 98.653063 
L 109.719091 101.88247 
L 111.162182 105.0068 
L 112.605273 108.000334 
L 114.048364 110.842281 
L 115.491455 113.512261 
L 116.934545 115.985384 
L 118.377636 118.22799 
L 119.820727 120.195268 
L 121.263818 121.832554 
L 122.706909 123.082802 
L 124.15 123.901677 
L 125.593091 124.276302 
L 127.036182 124.236611 
L 128.479273 123.849895 
L 129.922364 123.20209 
L 131.365455 122.378398 
L 132.808545 121.451628 
L 134.251636 120.478495 
L 135.694727 119.50051 
L 137.137818 118.546583 
L 138.580909 117.635821 
L 140.024 116.779997 
L 141.467091 115.985561 
L 142.910182 115.255206 
L 144.353273 114.589036 
L 145.796364 113.985408 
L 147.239455 113.44151 
L 148.682545 112.953772 
L 150.125636 112.51816 
L 151.568727 112.130413 
L 153.011818 111.78623 
L 154.454909 111.481416 
L 155.898 111.211982 
L 157.341091 110.974206 
L 158.784182 110.764669 
L 160.227273 110.580257 
L 161.670364 110.41816 
L 163.113455 110.275861 
L 164.556545 110.151114 
L 165.999636 110.04193 
L 167.442727 109.946562 
L 168.885818 109.863484 
L 170.328909 109.791373 
L 171.772 109.729089 
L 173.215091 109.675643 
L 174.658182 109.630176 
L 176.101273 109.591925 
L 177.544364 109.560198 
L 178.987455 109.534347 
L 180.430545 109.513746 
L 181.873636 109.49776 
L 183.316727 109.485725 
L 184.759818 109.476909 
L 186.202909 109.47049 
L 187.646 109.465528 
L 189.089091 109.46096 
L 190.532182 109.455618 
L 191.975273 109.448303 
L 193.418364 109.437928 
L 194.861455 109.423756 
L 196.304545 109.405753 
" style="fill:none;opacity:0.45;stroke:#12711c;stroke-dasharray:2.775,1.2;stroke-dashoffset:0;stroke-width:0.75;"/>
   </g>
   <g id="line2d_15">
    <path clip-path="url(#p6e8fa1055a)" d="M 51.995455 103.416398 
L 53.438545 103.774764 
L 54.881636 104.154146 
L 56.324727 104.560058 
L 57.767818 104.999609 
L 59.210909 105.481751 
L 60.654 106.017498 
L 62.097091 106.620109 
L 63.540182 107.305119 
L 64.983273 108.090138 
L 66.426364 108.994273 
L 67.869455 110.037066 
L 69.312545 111.236841 
L 70.755636 112.608459 
L 72.198727 114.160605 
L 73.641818 115.892978 
L 75.084909 117.793981 
L 76.528 119.839618 
L 77.971091 121.994183 
L 79.414182 124.213011 
L 80.857273 126.44703 
L 82.300364 128.648346 
L 83.743455 130.775747 
L 85.186545 132.799028 
L 86.629636 134.701388 
L 88.072727 136.479683 
L 89.515818 138.142803 
L 90.958909 139.708723 
L 92.402 141.200771 
L 93.845091 142.643606 
L 95.288182 144.059187 
L 96.731273 145.462972 
L 98.174364 146.860602 
L 99.617455 148.245514 
L 101.060545 149.598046 
L 102.503636 150.886592 
L 103.946727 152.070923 
L 105.389818 153.107222 
L 106.832909 153.953806 
L 108.276 154.576401 
L 109.719091 154.952172 
L 111.162182 155.072293 
L 112.605273 154.943275 
L 114.048364 154.587449 
L 115.491455 154.042995 
L 116.934545 153.363714 
L 118.377636 152.618456 
L 119.820727 151.889556 
L 121.263818 151.268649 
L 122.706909 150.847331 
L 124.15 150.70103 
L 125.593091 150.869833 
L 127.036182 151.347117 
L 128.479273 152.085242 
L 129.922364 153.014626 
L 131.365455 154.063548 
L 132.808545 155.170221 
L 134.251636 156.286894 
L 135.694727 157.379302 
L 137.137818 158.424381 
L 138.580909 159.407718 
L 140.024 160.321304 
L 141.467091 161.161701 
L 142.910182 161.928624 
L 144.353273 162.623889 
L 145.796364 163.250674 
L 147.239455 163.813013 
L 148.682545 164.315453 
L 150.125636 164.762805 
L 151.568727 165.159954 
L 153.011818 165.511699 
L 154.454909 165.822637 
L 155.898 166.097084 
L 157.341091 166.339026 
L 158.784182 166.552105 
L 160.227273 166.739624 
L 161.670364 166.904556 
L 163.113455 167.049572 
L 164.556545 167.177062 
L 165.999636 167.289159 
L 167.442727 167.387766 
L 168.885818 167.474582 
L 170.328909 167.551127 
L 171.772 167.61878 
L 173.215091 167.678812 
L 174.658182 167.732435 
L 176.101273 167.780844 
L 177.544364 167.825269 
L 178.987455 167.867031 
L 180.430545 167.9076 
L 181.873636 167.948664 
L 183.316727 167.992213 
L 184.759818 168.040636 
L 186.202909 168.096833 
L 187.646 168.164344 
L 189.089091 168.247488 
L 190.532182 168.351494 
L 191.975273 168.48262 
L 193.418364 168.648241 
L 194.861455 168.856883 
L 196.304545 169.118182 
" style="fill:none;opacity:0.45;stroke:#12711c;stroke-dasharray:2.775,1.2;stroke-dashoffset:0;stroke-width:0.75;"/>
   </g>
   <g id="patch_3">
    <path d="M 44.78 175.96 
L 44.78 25.44 
" style="fill:none;stroke:#262626;stroke-linecap:square;stroke-linejoin:miter;stroke-width:0.8;"/>
   </g>
   <g id="patch_4">
    <path d="M 44.78 175.96 
L 203.52 175.96 
" style="fill:none;stroke:#262626;stroke-linecap:square;stroke-linejoin:miter;stroke-width:0.8;"/>
   </g>
   <g id="text_14">
    <!-- Epik-scan SM04 -->
    <defs>
     <path d="M 7.90625 0 
L 7.90625 71.578125 
L 59.671875 71.578125 
L 59.671875 63.140625 
L 17.390625 63.140625 
L 17.390625 41.21875 
L 56.984375 41.21875 
L 56.984375 32.8125 
L 17.390625 32.8125 
L 17.390625 8.453125 
L 61.328125 8.453125 
L 61.328125 0 
z
" id="ArialMT-45"/>
     <path d="M 6.640625 61.46875 
L 6.640625 71.578125 
L 15.4375 71.578125 
L 15.4375 61.46875 
z
M 6.640625 0 
L 6.640625 51.859375 
L 15.4375 51.859375 
L 15.4375 0 
z
" id="ArialMT-69"/>
     <path d="M 6.640625 0 
L 6.640625 71.578125 
L 15.4375 71.578125 
L 15.4375 30.765625 
L 36.234375 51.859375 
L 47.609375 51.859375 
L 27.78125 32.625 
L 49.609375 0 
L 38.765625 0 
L 21.625 26.515625 
L 15.4375 20.5625 
L 15.4375 0 
z
" id="ArialMT-6b"/>
     <path d="M 3.171875 21.484375 
L 3.171875 30.328125 
L 30.171875 30.328125 
L 30.171875 21.484375 
z
" id="ArialMT-2d"/>
     <path d="M 3.078125 15.484375 
L 11.765625 16.84375 
Q 12.5 11.625 15.84375 8.84375 
Q 19.1875 6.0625 25.203125 6.0625 
Q 31.25 6.0625 34.171875 8.515625 
Q 37.109375 10.984375 37.109375 14.3125 
Q 37.109375 17.28125 34.515625 19 
Q 32.71875 20.171875 25.53125 21.96875 
Q 15.875 24.421875 12.140625 26.203125 
Q 8.40625 27.984375 6.46875 31.125 
Q 4.546875 34.28125 4.546875 38.09375 
Q 4.546875 41.546875 6.125 44.5 
Q 7.71875 47.46875 10.453125 49.421875 
Q 12.5 50.921875 16.03125 51.96875 
Q 19.578125 53.03125 23.640625 53.03125 
Q 29.734375 53.03125 34.34375 51.265625 
Q 38.96875 49.515625 41.15625 46.5 
Q 43.359375 43.5 44.1875 38.484375 
L 35.59375 37.3125 
Q 35.015625 41.3125 32.203125 43.546875 
Q 29.390625 45.796875 24.265625 45.796875 
Q 18.21875 45.796875 15.625 43.796875 
Q 13.03125 41.796875 13.03125 39.109375 
Q 13.03125 37.40625 14.109375 36.03125 
Q 15.1875 34.625 17.484375 33.6875 
Q 18.796875 33.203125 25.25 31.453125 
Q 34.578125 28.953125 38.25 27.359375 
Q 41.9375 25.78125 44.03125 22.75 
Q 46.140625 19.734375 46.140625 15.234375 
Q 46.140625 10.84375 43.578125 6.953125 
Q 41.015625 3.078125 36.171875 0.953125 
Q 31.34375 -1.171875 25.25 -1.171875 
Q 15.140625 -1.171875 9.84375 3.03125 
Q 4.546875 7.234375 3.078125 15.484375 
z
" id="ArialMT-73"/>
     <path d="M 40.4375 19 
L 49.078125 17.875 
Q 47.65625 8.9375 41.8125 3.875 
Q 35.984375 -1.171875 27.484375 -1.171875 
Q 16.84375 -1.171875 10.375 5.78125 
Q 3.90625 12.75 3.90625 25.734375 
Q 3.90625 34.125 6.6875 40.421875 
Q 9.46875 46.734375 15.15625 49.875 
Q 20.84375 53.03125 27.546875 53.03125 
Q 35.984375 53.03125 41.359375 48.75 
Q 46.734375 44.484375 48.25 36.625 
L 39.703125 35.296875 
Q 38.484375 40.53125 35.375 43.15625 
Q 32.28125 45.796875 27.875 45.796875 
Q 21.234375 45.796875 17.078125 41.03125 
Q 12.9375 36.28125 12.9375 25.984375 
Q 12.9375 15.53125 16.9375 10.796875 
Q 20.953125 6.0625 27.390625 6.0625 
Q 32.5625 6.0625 36.03125 9.234375 
Q 39.5 12.40625 40.4375 19 
z
" id="ArialMT-63"/>
     <path d="M 40.4375 6.390625 
Q 35.546875 2.25 31.03125 0.53125 
Q 26.515625 -1.171875 21.34375 -1.171875 
Q 12.796875 -1.171875 8.203125 3 
Q 3.609375 7.171875 3.609375 13.671875 
Q 3.609375 17.484375 5.34375 20.625 
Q 7.078125 23.78125 9.890625 25.6875 
Q 12.703125 27.59375 16.21875 28.5625 
Q 18.796875 29.25 24.03125 29.890625 
Q 34.671875 31.15625 39.703125 32.90625 
Q 39.75 34.71875 39.75 35.203125 
Q 39.75 40.578125 37.25 42.78125 
Q 33.890625 45.75 27.25 45.75 
Q 21.046875 45.75 18.09375 43.578125 
Q 15.140625 41.40625 13.71875 35.890625 
L 5.125 37.0625 
Q 6.296875 42.578125 8.984375 45.96875 
Q 11.671875 49.359375 16.75 51.1875 
Q 21.828125 53.03125 28.515625 53.03125 
Q 35.15625 53.03125 39.296875 51.46875 
Q 43.453125 49.90625 45.40625 47.53125 
Q 47.359375 45.171875 48.140625 41.546875 
Q 48.578125 39.3125 48.578125 33.453125 
L 48.578125 21.734375 
Q 48.578125 9.46875 49.140625 6.21875 
Q 49.703125 2.984375 51.375 0 
L 42.1875 0 
Q 40.828125 2.734375 40.4375 6.390625 
z
M 39.703125 26.03125 
Q 34.90625 24.078125 25.34375 22.703125 
Q 19.921875 21.921875 17.671875 20.9375 
Q 15.4375 19.96875 14.203125 18.09375 
Q 12.984375 16.21875 12.984375 13.921875 
Q 12.984375 10.40625 15.640625 8.0625 
Q 18.3125 5.71875 23.4375 5.71875 
Q 28.515625 5.71875 32.46875 7.9375 
Q 36.421875 10.15625 38.28125 14.015625 
Q 39.703125 17 39.703125 22.796875 
z
" id="ArialMT-61"/>
     <path d="M 6.59375 0 
L 6.59375 51.859375 
L 14.5 51.859375 
L 14.5 44.484375 
Q 20.21875 53.03125 31 53.03125 
Q 35.6875 53.03125 39.625 51.34375 
Q 43.5625 49.65625 45.515625 46.921875 
Q 47.46875 44.1875 48.25 40.4375 
Q 48.734375 37.984375 48.734375 31.890625 
L 48.734375 0 
L 39.9375 0 
L 39.9375 31.546875 
Q 39.9375 36.921875 38.90625 39.578125 
Q 37.890625 42.234375 35.28125 43.8125 
Q 32.671875 45.40625 29.15625 45.40625 
Q 23.53125 45.40625 19.453125 41.84375 
Q 15.375 38.28125 15.375 28.328125 
L 15.375 0 
z
" id="ArialMT-6e"/>
     <path id="ArialMT-20"/>
     <path d="M 4.5 23 
L 13.421875 23.78125 
Q 14.0625 18.40625 16.375 14.96875 
Q 18.703125 11.53125 23.578125 9.40625 
Q 28.46875 7.28125 34.578125 7.28125 
Q 39.984375 7.28125 44.140625 8.890625 
Q 48.296875 10.5 50.3125 13.296875 
Q 52.34375 16.109375 52.34375 19.4375 
Q 52.34375 22.796875 50.390625 25.3125 
Q 48.4375 27.828125 43.953125 29.546875 
Q 41.0625 30.671875 31.203125 33.03125 
Q 21.34375 35.40625 17.390625 37.5 
Q 12.25 40.1875 9.734375 44.15625 
Q 7.234375 48.140625 7.234375 53.078125 
Q 7.234375 58.5 10.296875 63.203125 
Q 13.375 67.921875 19.28125 70.359375 
Q 25.203125 72.796875 32.421875 72.796875 
Q 40.375 72.796875 46.453125 70.234375 
Q 52.546875 67.671875 55.8125 62.6875 
Q 59.078125 57.71875 59.328125 51.421875 
L 50.25 50.734375 
Q 49.515625 57.515625 45.28125 60.984375 
Q 41.0625 64.453125 32.8125 64.453125 
Q 24.21875 64.453125 20.28125 61.296875 
Q 16.359375 58.15625 16.359375 53.71875 
Q 16.359375 49.859375 19.140625 47.359375 
Q 21.875 44.875 33.421875 42.265625 
Q 44.96875 39.65625 49.265625 37.703125 
Q 55.515625 34.8125 58.484375 30.390625 
Q 61.46875 25.984375 61.46875 20.21875 
Q 61.46875 14.5 58.203125 9.4375 
Q 54.9375 4.390625 48.796875 1.578125 
Q 42.671875 -1.21875 35.015625 -1.21875 
Q 25.296875 -1.21875 18.71875 1.609375 
Q 12.15625 4.4375 8.421875 10.125 
Q 4.6875 15.828125 4.5 23 
z
" id="ArialMT-53"/>
     <path d="M 7.421875 0 
L 7.421875 71.578125 
L 21.6875 71.578125 
L 38.625 20.90625 
Q 40.96875 13.8125 42.046875 10.296875 
Q 43.265625 14.203125 45.84375 21.78125 
L 62.984375 71.578125 
L 75.734375 71.578125 
L 75.734375 0 
L 66.609375 0 
L 66.609375 59.90625 
L 45.796875 0 
L 37.25 0 
L 16.546875 60.9375 
L 16.546875 0 
z
" id="ArialMT-4d"/>
    </defs>
    <g style="fill:#262626;" transform="translate(80.467188 19.44)scale(0.12 -0.12)">
     <use xlink:href="#ArialMT-45"/>
     <use x="66.699219" xlink:href="#ArialMT-70"/>
     <use x="122.314453" xlink:href="#ArialMT-69"/>
     <use x="144.53125" xlink:href="#ArialMT-6b"/>
     <use x="194.53125" xlink:href="#ArialMT-2d"/>
     <use x="227.832031" xlink:href="#ArialMT-73"/>
     <use x="277.832031" xlink:href="#ArialMT-63"/>
     <use x="327.832031" xlink:href="#ArialMT-61"/>
     <use x="383.447266" xlink:href="#ArialMT-6e"/>
     <use x="439.0625" xlink:href="#ArialMT-20"/>
     <use x="466.845703" xlink:href="#ArialMT-53"/>
     <use x="533.544922" xlink:href="#ArialMT-4d"/>
     <use x="616.845703" xlink:href="#ArialMT-30"/>
     <use x="672.460938" xlink:href="#ArialMT-34"/>
    </g>
   </g>
  </g>
 </g>
 <defs>
  <clipPath id="p6e8fa1055a">
   <rect height="150.52" width="158.74" x="44.78" y="25.44"/>
  </clipPath>
 </defs>
</svg>
