<?xml version="1.0" encoding="utf-8" standalone="no"?>
<!DOCTYPE svg PUBLIC "-//W3C//DTD SVG 1.1//EN"
  "http://www.w3.org/Graphics/SVG/1.1/DTD/svg11.dtd">
<!-- Created with matplotlib (http://matplotlib.org/) -->
<svg height="144pt" version="1.1" viewBox="0 0 144 144" width="144pt" xmlns="http://www.w3.org/2000/svg" xmlns:xlink="http://www.w3.org/1999/xlink">
 <defs>
  <style type="text/css">
*{stroke-linecap:butt;stroke-linejoin:round;}
  </style>
 </defs>
 <g id="figure_1">
  <g id="patch_1">
   <path d="M 0 144 
L 144 144 
L 144 0 
L 0 0 
z
" style="fill:#ffffff;"/>
  </g>
  <g id="axes_1">
   <g id="patch_2">
    <path d="M 47.6 101.92 
L 130.44 101.92 
L 130.44 13.56 
L 47.6 13.56 
z
" style="fill:#ffffff;"/>
   </g>
   <g id="matplotlib.axis_1">
    <g id="xtick_1">
     <g id="line2d_1">
      <defs>
       <path d="M 0 0 
L 0 3.5 
" id="mba678eba42" style="stroke:#262626;stroke-width:0.8;"/>
      </defs>
      <g>
       <use style="fill:#262626;stroke:#262626;stroke-width:0.8;" x="51.365455" xlink:href="#mba678eba42" y="101.92"/>
      </g>
     </g>
     <g id="text_1">
      <!-- 2 -->
      <defs>
       <path d="M 50.34375 8.453125 
L 50.34375 0 
L 3.03125 0 
Q 2.9375 3.171875 4.046875 6.109375 
Q 5.859375 10.9375 9.828125 15.625 
Q 13.8125 20.3125 21.34375 26.46875 
Q 33.015625 36.03125 37.109375 41.625 
Q 41.21875 47.21875 41.21875 52.203125 
Q 41.21875 57.421875 37.46875 61 
Q 33.734375 64.59375 27.734375 64.59375 
Q 21.390625 64.59375 17.578125 60.78125 
Q 13.765625 56.984375 13.71875 50.25 
L 4.6875 51.171875 
Q 5.609375 61.28125 11.65625 66.578125 
Q 17.71875 71.875 27.9375 71.875 
Q 38.234375 71.875 44.234375 66.15625 
Q 50.25 60.453125 50.25 52 
Q 50.25 47.703125 48.484375 43.546875 
Q 46.734375 39.40625 42.65625 34.8125 
Q 38.578125 30.21875 29.109375 22.21875 
Q 21.1875 15.578125 18.9375 13.203125 
Q 16.703125 10.84375 15.234375 8.453125 
z
" id="ArialMT-32"/>
      </defs>
      <g style="fill:#262626;" transform="translate(48.306939 116.793594)scale(0.11 -0.11)">
       <use xlink:href="#ArialMT-32"/>
      </g>
     </g>
    </g>
    <g id="xtick_2">
     <g id="line2d_2">
      <g>
       <use style="fill:#262626;stroke:#262626;stroke-width:0.8;" x="66.427273" xlink:href="#mba678eba42" y="101.92"/>
      </g>
     </g>
     <g id="text_2">
      <!-- 4 -->
      <defs>
       <path d="M 32.328125 0 
L 32.328125 17.140625 
L 1.265625 17.140625 
L 1.265625 25.203125 
L 33.9375 71.578125 
L 41.109375 71.578125 
L 41.109375 25.203125 
L 50.78125 25.203125 
L 50.78125 17.140625 
L 41.109375 17.140625 
L 41.109375 0 
z
M 32.328125 25.203125 
L 32.328125 57.46875 
L 9.90625 25.203125 
z
" id="ArialMT-34"/>
      </defs>
      <g style="fill:#262626;" transform="translate(63.368757 116.793594)scale(0.11 -0.11)">
       <use xlink:href="#ArialMT-34"/>
      </g>
     </g>
    </g>
    <g id="xtick_3">
     <g id="line2d_3">
      <g>
       <use style="fill:#262626;stroke:#262626;stroke-width:0.8;" x="81.489091" xlink:href="#mba678eba42" y="101.92"/>
      </g>
     </g>
     <g id="text_3">
      <!-- 6 -->
      <defs>
       <path d="M 49.75 54.046875 
L 41.015625 53.375 
Q 39.84375 58.546875 37.703125 60.890625 
Q 34.125 64.65625 28.90625 64.65625 
Q 24.703125 64.65625 21.53125 62.3125 
Q 17.390625 59.28125 14.984375 53.46875 
Q 12.59375 47.65625 12.5 36.921875 
Q 15.671875 41.75 20.265625 44.09375 
Q 24.859375 46.4375 29.890625 46.4375 
Q 38.671875 46.4375 44.84375 39.96875 
Q 51.03125 33.5 51.03125 23.25 
Q 51.03125 16.5 48.125 10.71875 
Q 45.21875 4.9375 40.140625 1.859375 
Q 35.0625 -1.21875 28.609375 -1.21875 
Q 17.625 -1.21875 10.6875 6.859375 
Q 3.765625 14.9375 3.765625 33.5 
Q 3.765625 54.25 11.421875 63.671875 
Q 18.109375 71.875 29.4375 71.875 
Q 37.890625 71.875 43.28125 67.140625 
Q 48.6875 62.40625 49.75 54.046875 
z
M 13.875 23.1875 
Q 13.875 18.65625 15.796875 14.5 
Q 17.71875 10.359375 21.1875 8.171875 
Q 24.65625 6 28.46875 6 
Q 34.03125 6 38.03125 10.484375 
Q 42.046875 14.984375 42.046875 22.703125 
Q 42.046875 30.125 38.078125 34.390625 
Q 34.125 38.671875 28.125 38.671875 
Q 22.171875 38.671875 18.015625 34.390625 
Q 13.875 30.125 13.875 23.1875 
z
" id="ArialMT-36"/>
      </defs>
      <g style="fill:#262626;" transform="translate(78.430575 116.793594)scale(0.11 -0.11)">
       <use xlink:href="#ArialMT-36"/>
      </g>
     </g>
    </g>
    <g id="xtick_4">
     <g id="line2d_4">
      <g>
       <use style="fill:#262626;stroke:#262626;stroke-width:0.8;" x="96.550909" xlink:href="#mba678eba42" y="101.92"/>
      </g>
     </g>
     <g id="text_4">
      <!-- 8 -->
      <defs>
       <path d="M 17.671875 38.8125 
Q 12.203125 40.828125 9.5625 44.53125 
Q 6.9375 48.25 6.9375 53.421875 
Q 6.9375 61.234375 12.546875 66.546875 
Q 18.171875 71.875 27.484375 71.875 
Q 36.859375 71.875 42.578125 66.421875 
Q 48.296875 60.984375 48.296875 53.171875 
Q 48.296875 48.1875 45.671875 44.5 
Q 43.0625 40.828125 37.75 38.8125 
Q 44.34375 36.671875 47.78125 31.875 
Q 51.21875 27.09375 51.21875 20.453125 
Q 51.21875 11.28125 44.71875 5.03125 
Q 38.234375 -1.21875 27.640625 -1.21875 
Q 17.046875 -1.21875 10.546875 5.046875 
Q 4.046875 11.328125 4.046875 20.703125 
Q 4.046875 27.6875 7.59375 32.390625 
Q 11.140625 37.109375 17.671875 38.8125 
z
M 15.921875 53.71875 
Q 15.921875 48.640625 19.1875 45.40625 
Q 22.46875 42.1875 27.6875 42.1875 
Q 32.765625 42.1875 36.015625 45.375 
Q 39.265625 48.578125 39.265625 53.21875 
Q 39.265625 58.0625 35.90625 61.359375 
Q 32.5625 64.65625 27.59375 64.65625 
Q 22.5625 64.65625 19.234375 61.421875 
Q 15.921875 58.203125 15.921875 53.71875 
z
M 13.09375 20.65625 
Q 13.09375 16.890625 14.875 13.375 
Q 16.65625 9.859375 20.171875 7.921875 
Q 23.6875 6 27.734375 6 
Q 34.03125 6 38.125 10.046875 
Q 42.234375 14.109375 42.234375 20.359375 
Q 42.234375 26.703125 38.015625 30.859375 
Q 33.796875 35.015625 27.4375 35.015625 
Q 21.234375 35.015625 17.15625 30.90625 
Q 13.09375 26.8125 13.09375 20.65625 
z
" id="ArialMT-38"/>
      </defs>
      <g style="fill:#262626;" transform="translate(93.492393 116.793594)scale(0.11 -0.11)">
       <use xlink:href="#ArialMT-38"/>
      </g>
     </g>
    </g>
    <g id="xtick_5">
     <g id="line2d_5">
      <g>
       <use style="fill:#262626;stroke:#262626;stroke-width:0.8;" x="111.612727" xlink:href="#mba678eba42" y="101.92"/>
      </g>
     </g>
     <g id="text_5">
      <!-- 10 -->
      <defs>
       <path d="M 37.25 0 
L 28.46875 0 
L 28.46875 56 
Q 25.296875 52.984375 20.140625 49.953125 
Q 14.984375 46.921875 10.890625 45.40625 
L 10.890625 53.90625 
Q 18.265625 57.375 23.78125 62.296875 
Q 29.296875 67.234375 31.59375 71.875 
L 37.25 71.875 
z
" id="ArialMT-31"/>
       <path d="M 4.15625 35.296875 
Q 4.15625 48 6.765625 55.734375 
Q 9.375 63.484375 14.515625 67.671875 
Q 19.671875 71.875 27.484375 71.875 
Q 33.25 71.875 37.59375 69.546875 
Q 41.9375 67.234375 44.765625 62.859375 
Q 47.609375 58.5 49.21875 52.21875 
Q 50.828125 45.953125 50.828125 35.296875 
Q 50.828125 22.703125 48.234375 14.96875 
Q 45.65625 7.234375 40.5 3 
Q 35.359375 -1.21875 27.484375 -1.21875 
Q 17.140625 -1.21875 11.234375 6.203125 
Q 4.15625 15.140625 4.15625 35.296875 
z
M 13.1875 35.296875 
Q 13.1875 17.671875 17.3125 11.828125 
Q 21.4375 6 27.484375 6 
Q 33.546875 6 37.671875 11.859375 
Q 41.796875 17.71875 41.796875 35.296875 
Q 41.796875 52.984375 37.671875 58.78125 
Q 33.546875 64.59375 27.390625 64.59375 
Q 21.34375 64.59375 17.71875 59.46875 
Q 13.1875 52.9375 13.1875 35.296875 
z
" id="ArialMT-30"/>
      </defs>
      <g style="fill:#262626;" transform="translate(105.495696 116.793594)scale(0.11 -0.11)">
       <use xlink:href="#ArialMT-31"/>
       <use x="55.615234" xlink:href="#ArialMT-30"/>
      </g>
     </g>
    </g>
    <g id="xtick_6">
     <g id="line2d_6">
      <g>
       <use style="fill:#262626;stroke:#262626;stroke-width:0.8;" x="126.674545" xlink:href="#mba678eba42" y="101.92"/>
      </g>
     </g>
     <g id="text_6">
      <!-- 12 -->
      <g style="fill:#262626;" transform="translate(120.557514 116.793594)scale(0.11 -0.11)">
       <use xlink:href="#ArialMT-31"/>
       <use x="55.615234" xlink:href="#ArialMT-32"/>
      </g>
     </g>
    </g>
    <g id="text_7">
     <!-- pH -->
     <defs>
      <path d="M 6.59375 -19.875 
L 6.59375 51.859375 
L 14.59375 51.859375 
L 14.59375 45.125 
Q 17.4375 49.078125 21 51.046875 
Q 24.5625 53.03125 29.640625 53.03125 
Q 36.28125 53.03125 41.359375 49.609375 
Q 46.4375 46.1875 49.015625 39.953125 
Q 51.609375 33.734375 51.609375 26.3125 
Q 51.609375 18.359375 48.75 11.984375 
Q 45.90625 5.609375 40.453125 2.21875 
Q 35.015625 -1.171875 29 -1.171875 
Q 24.609375 -1.171875 21.109375 0.6875 
Q 17.625 2.546875 15.375 5.375 
L 15.375 -19.875 
z
M 14.546875 25.640625 
Q 14.546875 15.625 18.59375 10.84375 
Q 22.65625 6.0625 28.421875 6.0625 
Q 34.28125 6.0625 38.453125 11.015625 
Q 42.625 15.96875 42.625 26.375 
Q 42.625 36.28125 38.546875 41.203125 
Q 34.46875 46.140625 28.8125 46.140625 
Q 23.1875 46.140625 18.859375 40.890625 
Q 14.546875 35.640625 14.546875 25.640625 
z
" id="ArialMT-70"/>
      <path d="M 8.015625 0 
L 8.015625 71.578125 
L 17.484375 71.578125 
L 17.484375 42.1875 
L 54.6875 42.1875 
L 54.6875 71.578125 
L 64.15625 71.578125 
L 64.15625 0 
L 54.6875 0 
L 54.6875 33.734375 
L 17.484375 33.734375 
L 17.484375 0 
z
" id="ArialMT-48"/>
     </defs>
     <g style="fill:#262626;" transform="translate(81.989453 130.853437)scale(0.11 -0.11)">
      <use xlink:href="#ArialMT-70"/>
      <use x="55.615234" xlink:href="#ArialMT-48"/>
     </g>
    </g>
   </g>
   <g id="matplotlib.axis_2">
    <g id="ytick_1">
     <g id="line2d_7">
      <defs>
       <path d="M 0 0 
L -3.5 0 
" id="m41202e66eb" style="stroke:#262626;stroke-width:0.8;"/>
      </defs>
      <g>
       <use style="fill:#262626;stroke:#262626;stroke-width:0.8;" x="47.6" xlink:href="#m41202e66eb" y="94.405666"/>
      </g>
     </g>
     <g id="text_8">
      <!-- 0 -->
      <g style="fill:#262626;" transform="translate(34.482969 98.342463)scale(0.11 -0.11)">
       <use xlink:href="#ArialMT-30"/>
      </g>
     </g>
    </g>
    <g id="ytick_2">
     <g id="line2d_8">
      <g>
       <use style="fill:#262626;stroke:#262626;stroke-width:0.8;" x="47.6" xlink:href="#m41202e66eb" y="67.033605"/>
      </g>
     </g>
     <g id="text_9">
      <!-- 20 -->
      <g style="fill:#262626;" transform="translate(28.365938 70.970402)scale(0.11 -0.11)">
       <use xlink:href="#ArialMT-32"/>
       <use x="55.615234" xlink:href="#ArialMT-30"/>
      </g>
     </g>
    </g>
    <g id="ytick_3">
     <g id="line2d_9">
      <g>
       <use style="fill:#262626;stroke:#262626;stroke-width:0.8;" x="47.6" xlink:href="#m41202e66eb" y="39.661544"/>
      </g>
     </g>
     <g id="text_10">
      <!-- 40 -->
      <g style="fill:#262626;" transform="translate(28.365938 43.598341)scale(0.11 -0.11)">
       <use xlink:href="#ArialMT-34"/>
       <use x="55.615234" xlink:href="#ArialMT-30"/>
      </g>
     </g>
    </g>
    <g id="text_11">
     <!-- Free energy ($k_B T$) -->
     <defs>
      <path d="M 8.203125 0 
L 8.203125 71.578125 
L 56.5 71.578125 
L 56.5 63.140625 
L 17.671875 63.140625 
L 17.671875 40.96875 
L 51.265625 40.96875 
L 51.265625 32.515625 
L 17.671875 32.515625 
L 17.671875 0 
z
" id="ArialMT-46"/>
      <path d="M 6.5 0 
L 6.5 51.859375 
L 14.40625 51.859375 
L 14.40625 44 
Q 17.4375 49.515625 20 51.265625 
Q 22.5625 53.03125 25.640625 53.03125 
Q 30.078125 53.03125 34.671875 50.203125 
L 31.640625 42.046875 
Q 28.421875 43.953125 25.203125 43.953125 
Q 22.3125 43.953125 20.015625 42.21875 
Q 17.71875 40.484375 16.75 37.40625 
Q 15.28125 32.71875 15.28125 27.15625 
L 15.28125 0 
z
" id="ArialMT-72"/>
      <path d="M 42.09375 16.703125 
L 51.171875 15.578125 
Q 49.03125 7.625 43.21875 3.21875 
Q 37.40625 -1.171875 28.375 -1.171875 
Q 17 -1.171875 10.328125 5.828125 
Q 3.65625 12.84375 3.65625 25.484375 
Q 3.65625 38.578125 10.390625 45.796875 
Q 17.140625 53.03125 27.875 53.03125 
Q 38.28125 53.03125 44.875 45.953125 
Q 51.46875 38.875 51.46875 26.03125 
Q 51.46875 25.25 51.421875 23.6875 
L 12.75 23.6875 
Q 13.234375 15.140625 17.578125 10.59375 
Q 21.921875 6.0625 28.421875 6.0625 
Q 33.25 6.0625 36.671875 8.59375 
Q 40.09375 11.140625 42.09375 16.703125 
z
M 13.234375 30.90625 
L 42.1875 30.90625 
Q 41.609375 37.453125 38.875 40.71875 
Q 34.671875 45.796875 27.984375 45.796875 
Q 21.921875 45.796875 17.796875 41.75 
Q 13.671875 37.703125 13.234375 30.90625 
z
" id="ArialMT-65"/>
      <path id="ArialMT-20"/>
      <path d="M 6.59375 0 
L 6.59375 51.859375 
L 14.5 51.859375 
L 14.5 44.484375 
Q 20.21875 53.03125 31 53.03125 
Q 35.6875 53.03125 39.625 51.34375 
Q 43.5625 49.65625 45.515625 46.921875 
Q 47.46875 44.1875 48.25 40.4375 
Q 48.734375 37.984375 48.734375 31.890625 
L 48.734375 0 
L 39.9375 0 
L 39.9375 31.546875 
Q 39.9375 36.921875 38.90625 39.578125 
Q 37.890625 42.234375 35.28125 43.8125 
Q 32.671875 45.40625 29.15625 45.40625 
Q 23.53125 45.40625 19.453125 41.84375 
Q 15.375 38.28125 15.375 28.328125 
L 15.375 0 
z
" id="ArialMT-6e"/>
      <path d="M 4.984375 -4.296875 
L 13.53125 -5.5625 
Q 14.0625 -9.515625 16.5 -11.328125 
Q 19.78125 -13.765625 25.4375 -13.765625 
Q 31.546875 -13.765625 34.859375 -11.328125 
Q 38.1875 -8.890625 39.359375 -4.5 
Q 40.046875 -1.8125 39.984375 6.78125 
Q 34.234375 0 25.640625 0 
Q 14.9375 0 9.078125 7.71875 
Q 3.21875 15.4375 3.21875 26.21875 
Q 3.21875 33.640625 5.90625 39.90625 
Q 8.59375 46.1875 13.6875 49.609375 
Q 18.796875 53.03125 25.6875 53.03125 
Q 34.859375 53.03125 40.828125 45.609375 
L 40.828125 51.859375 
L 48.921875 51.859375 
L 48.921875 7.03125 
Q 48.921875 -5.078125 46.453125 -10.125 
Q 44 -15.1875 38.640625 -18.109375 
Q 33.296875 -21.046875 25.484375 -21.046875 
Q 16.21875 -21.046875 10.5 -16.875 
Q 4.78125 -12.703125 4.984375 -4.296875 
z
M 12.25 26.859375 
Q 12.25 16.65625 16.296875 11.96875 
Q 20.359375 7.28125 26.46875 7.28125 
Q 32.515625 7.28125 36.609375 11.9375 
Q 40.71875 16.609375 40.71875 26.5625 
Q 40.71875 36.078125 36.5 40.90625 
Q 32.28125 45.75 26.3125 45.75 
Q 20.453125 45.75 16.34375 40.984375 
Q 12.25 36.234375 12.25 26.859375 
z
" id="ArialMT-67"/>
      <path d="M 6.203125 -19.96875 
L 5.21875 -11.71875 
Q 8.109375 -12.5 10.25 -12.5 
Q 13.1875 -12.5 14.9375 -11.515625 
Q 16.703125 -10.546875 17.828125 -8.796875 
Q 18.65625 -7.46875 20.515625 -2.25 
Q 20.75 -1.515625 21.296875 -0.09375 
L 1.609375 51.859375 
L 11.078125 51.859375 
L 21.875 21.828125 
Q 23.96875 16.109375 25.640625 9.8125 
Q 27.15625 15.875 29.25 21.625 
L 40.328125 51.859375 
L 49.125 51.859375 
L 29.390625 -0.875 
Q 26.21875 -9.421875 24.46875 -12.640625 
Q 22.125 -17 19.09375 -19.015625 
Q 16.0625 -21.046875 11.859375 -21.046875 
Q 9.328125 -21.046875 6.203125 -19.96875 
z
" id="ArialMT-79"/>
      <path d="M 23.390625 -21.046875 
Q 16.109375 -11.859375 11.078125 0.4375 
Q 6.0625 12.75 6.0625 25.921875 
Q 6.0625 37.546875 9.8125 48.1875 
Q 14.203125 60.546875 23.390625 72.796875 
L 29.6875 72.796875 
Q 23.78125 62.640625 21.875 58.296875 
Q 18.890625 51.5625 17.1875 44.234375 
Q 15.09375 35.109375 15.09375 25.875 
Q 15.09375 2.390625 29.6875 -21.046875 
z
" id="ArialMT-28"/>
      <path d="M 18.3125 75.984375 
L 27.296875 75.984375 
L 18.703125 31.6875 
L 49.515625 54.6875 
L 61.1875 54.6875 
L 26.8125 28.515625 
L 51.90625 0 
L 41.015625 0 
L 17.671875 26.703125 
L 12.5 0 
L 3.515625 0 
z
" id="DejaVuSans-Oblique-6b"/>
      <path d="M 16.890625 72.90625 
L 42.09375 72.90625 
Q 52.34375 72.90625 57.421875 69.09375 
Q 62.5 65.28125 62.5 57.625 
Q 62.5 50.59375 58.125 45.484375 
Q 53.765625 40.375 46.6875 39.3125 
Q 52.734375 37.9375 55.765625 34.078125 
Q 58.796875 30.21875 58.796875 23.78125 
Q 58.796875 12.796875 50.65625 6.390625 
Q 42.53125 0 28.421875 0 
L 2.6875 0 
z
M 19.28125 34.8125 
L 14.109375 8.109375 
L 29.984375 8.109375 
Q 38.921875 8.109375 43.75 12.203125 
Q 48.578125 16.3125 48.578125 23.78125 
Q 48.578125 29.546875 45.375 32.171875 
Q 42.1875 34.8125 35.109375 34.8125 
z
M 25.09375 64.796875 
L 20.796875 42.828125 
L 35.5 42.828125 
Q 43.359375 42.828125 47.78125 46.234375 
Q 52.203125 49.65625 52.203125 55.71875 
Q 52.203125 60.453125 49.21875 62.625 
Q 46.234375 64.796875 39.703125 64.796875 
z
" id="DejaVuSans-Oblique-42"/>
      <path d="M 5.90625 72.90625 
L 67.578125 72.90625 
L 66.015625 64.59375 
L 39.984375 64.59375 
L 27.484375 0 
L 17.578125 0 
L 30.078125 64.59375 
L 4.296875 64.59375 
z
" id="DejaVuSans-Oblique-54"/>
      <path d="M 12.359375 -21.046875 
L 6.0625 -21.046875 
Q 20.65625 2.390625 20.65625 25.875 
Q 20.65625 35.0625 18.5625 44.09375 
Q 16.890625 51.421875 13.921875 58.15625 
Q 12.015625 62.546875 6.0625 72.796875 
L 12.359375 72.796875 
Q 21.53125 60.546875 25.921875 48.1875 
Q 29.6875 37.546875 29.6875 25.921875 
Q 29.6875 12.75 24.625 0.4375 
Q 19.578125 -11.859375 12.359375 -21.046875 
z
" id="ArialMT-29"/>
     </defs>
     <g style="fill:#262626;" transform="translate(21.945938 101.96)rotate(-90)scale(0.11 -0.11)">
      <use transform="translate(0 0.015625)" xlink:href="#ArialMT-46"/>
      <use transform="translate(61.083984 0.015625)" xlink:href="#ArialMT-72"/>
      <use transform="translate(94.384766 0.015625)" xlink:href="#ArialMT-65"/>
      <use transform="translate(150 0.015625)" xlink:href="#ArialMT-65"/>
      <use transform="translate(205.615234 0.015625)" xlink:href="#ArialMT-20"/>
      <use transform="translate(233.398438 0.015625)" xlink:href="#ArialMT-65"/>
      <use transform="translate(289.013672 0.015625)" xlink:href="#ArialMT-6e"/>
      <use transform="translate(344.628906 0.015625)" xlink:href="#ArialMT-65"/>
      <use transform="translate(400.244141 0.015625)" xlink:href="#ArialMT-72"/>
      <use transform="translate(433.544922 0.015625)" xlink:href="#ArialMT-67"/>
      <use transform="translate(489.160156 0.015625)" xlink:href="#ArialMT-79"/>
      <use transform="translate(539.160156 0.015625)" xlink:href="#ArialMT-20"/>
      <use transform="translate(566.943359 0.015625)" xlink:href="#ArialMT-28"/>
      <use transform="translate(600.244141 0.015625)" xlink:href="#DejaVuSans-Oblique-6b"/>
      <use transform="translate(658.154297 -16.390625)scale(0.7)" xlink:href="#DejaVuSans-Oblique-42"/>
      <use transform="translate(708.911133 0.015625)" xlink:href="#DejaVuSans-Oblique-54"/>
      <use transform="translate(769.995117 0.015625)" xlink:href="#ArialMT-29"/>
     </g>
    </g>
   </g>
   <g id="patch_3">
    <path d="M 47.6 101.92 
L 47.6 13.56 
" style="fill:none;stroke:#262626;stroke-linecap:square;stroke-linejoin:miter;stroke-width:0.8;"/>
   </g>
   <g id="patch_4">
    <path d="M 47.6 101.92 
L 130.44 101.92 
" style="fill:none;stroke:#262626;stroke-linecap:square;stroke-linejoin:miter;stroke-width:0.8;"/>
   </g>
   <g id="line2d_10">
    <path clip-path="url(#pe8708f13aa)" d="M 51.365455 85.077744 
L 52.118545 84.447479 
L 52.871636 83.817214 
L 53.624727 83.186949 
L 54.377818 82.556684 
L 55.130909 81.926419 
L 55.884 81.296154 
L 56.637091 80.665889 
L 57.390182 80.035624 
L 58.143273 79.405359 
L 58.896364 78.775094 
L 59.649455 78.144829 
L 60.402545 77.514564 
L 61.155636 76.884299 
L 61.908727 76.254034 
L 62.661818 75.623769 
L 63.414909 74.993504 
L 64.168 74.363239 
L 64.921091 73.732974 
L 65.674182 73.102709 
L 66.427273 72.472444 
L 67.180364 71.842179 
L 67.933455 71.211914 
L 68.686545 70.581649 
L 69.439636 69.951384 
L 70.192727 69.321119 
L 70.945818 68.690854 
L 71.698909 68.060589 
L 72.452 67.430324 
L 73.205091 66.800059 
L 73.958182 66.169794 
L 74.711273 65.539529 
L 75.464364 64.909264 
L 76.217455 64.278999 
L 76.970545 63.648734 
L 77.723636 63.018469 
L 78.476727 62.388204 
L 79.229818 61.757939 
L 79.982909 61.127674 
L 80.736 60.497409 
L 81.489091 59.867144 
L 82.242182 59.236879 
L 82.995273 58.606614 
L 83.748364 57.976349 
L 84.501455 57.346084 
L 85.254545 56.715819 
L 86.007636 56.085554 
L 86.760727 55.455289 
L 87.513818 54.825024 
L 88.266909 54.194759 
L 89.02 53.564494 
L 89.773091 52.934229 
L 90.526182 52.303964 
L 91.279273 51.673699 
L 92.032364 51.043435 
L 92.785455 50.41317 
L 93.538545 49.782905 
L 94.291636 49.15264 
L 95.044727 48.522375 
L 95.797818 47.89211 
L 96.550909 47.261845 
L 97.304 46.63158 
L 98.057091 46.001315 
L 98.810182 45.37105 
L 99.563273 44.740785 
L 100.316364 44.11052 
L 101.069455 43.480255 
L 101.822545 42.84999 
L 102.575636 42.219725 
L 103.328727 41.58946 
L 104.081818 40.959195 
L 104.834909 40.32893 
L 105.588 39.698665 
L 106.341091 39.0684 
L 107.094182 38.438135 
L 107.847273 37.80787 
L 108.600364 37.177605 
L 109.353455 36.54734 
L 110.106545 35.917075 
L 110.859636 35.28681 
L 111.612727 34.656545 
L 112.365818 34.02628 
L 113.118909 33.396015 
L 113.872 32.76575 
L 114.625091 32.135485 
L 115.378182 31.50522 
L 116.131273 30.874955 
L 116.884364 30.24469 
L 117.637455 29.614425 
L 118.390545 28.98416 
L 119.143636 28.353895 
L 119.896727 27.72363 
L 120.649818 27.093365 
L 121.402909 26.4631 
L 122.156 25.832835 
L 122.909091 25.20257 
L 123.662182 24.572305 
L 124.415273 23.94204 
L 125.168364 23.311775 
L 125.921455 22.68151 
L 126.674545 22.051245 
" style="fill:none;stroke:#4393c3;stroke-linecap:round;stroke-width:1.5;"/>
   </g>
   <g id="line2d_11">
    <path clip-path="url(#pe8708f13aa)" d="M 51.365455 82.71425 
L 52.118545 82.083985 
L 52.871636 81.45372 
L 53.624727 80.823455 
L 54.377818 80.19319 
L 55.130909 79.562925 
L 55.884 78.93266 
L 56.637091 78.302395 
L 57.390182 77.67213 
L 58.143273 77.041865 
L 58.896364 76.4116 
L 59.649455 75.781335 
L 60.402545 75.15107 
L 61.155636 74.520805 
L 61.908727 73.89054 
L 62.661818 73.260275 
L 63.414909 72.63001 
L 64.168 71.999745 
L 64.921091 71.36948 
L 65.674182 70.739215 
L 66.427273 70.10895 
L 67.180364 69.478685 
L 67.933455 68.84842 
L 68.686545 68.218155 
L 69.439636 67.58789 
L 70.192727 66.957625 
L 70.945818 66.32736 
L 71.698909 65.697095 
L 72.452 65.06683 
L 73.205091 64.436565 
L 73.958182 63.806301 
L 74.711273 63.176036 
L 75.464364 62.545771 
L 76.217455 61.915506 
L 76.970545 61.285241 
L 77.723636 60.654976 
L 78.476727 60.024711 
L 79.229818 59.394446 
L 79.982909 58.764181 
L 80.736 58.133916 
L 81.489091 57.503651 
L 82.242182 56.873386 
L 82.995273 56.243121 
L 83.748364 55.612856 
L 84.501455 54.982591 
L 85.254545 54.352326 
L 86.007636 53.722061 
L 86.760727 53.091796 
L 87.513818 52.461531 
L 88.266909 51.831266 
L 89.02 51.201001 
L 89.773091 50.570736 
L 90.526182 49.940471 
L 91.279273 49.310206 
L 92.032364 48.679941 
L 92.785455 48.049676 
L 93.538545 47.419411 
L 94.291636 46.789146 
L 95.044727 46.158881 
L 95.797818 45.528616 
L 96.550909 44.898351 
L 97.304 44.268086 
L 98.057091 43.637821 
L 98.810182 43.007556 
L 99.563273 42.377291 
L 100.316364 41.747026 
L 101.069455 41.116761 
L 101.822545 40.486496 
L 102.575636 39.856231 
L 103.328727 39.225966 
L 104.081818 38.595701 
L 104.834909 37.965436 
L 105.588 37.335171 
L 106.341091 36.704906 
L 107.094182 36.074641 
L 107.847273 35.444376 
L 108.600364 34.814111 
L 109.353455 34.183846 
L 110.106545 33.553581 
L 110.859636 32.923316 
L 111.612727 32.293051 
L 112.365818 31.662786 
L 113.118909 31.032521 
L 113.872 30.402256 
L 114.625091 29.771991 
L 115.378182 29.141726 
L 116.131273 28.511461 
L 116.884364 27.881196 
L 117.637455 27.250931 
L 118.390545 26.620666 
L 119.143636 25.990401 
L 119.896727 25.360136 
L 120.649818 24.729871 
L 121.402909 24.099606 
L 122.156 23.469341 
L 122.909091 22.839076 
L 123.662182 22.208811 
L 124.415273 21.578546 
L 125.168364 20.948281 
L 125.921455 20.318016 
L 126.674545 19.687751 
" style="fill:none;stroke:#4393c3;stroke-linecap:round;stroke-width:1.5;"/>
   </g>
   <g id="line2d_12">
    <path clip-path="url(#pe8708f13aa)" d="M 51.365455 80.602862 
L 52.118545 79.972597 
L 52.871636 79.342332 
L 53.624727 78.712067 
L 54.377818 78.081802 
L 55.130909 77.451538 
L 55.884 76.821273 
L 56.637091 76.191008 
L 57.390182 75.560743 
L 58.143273 74.930478 
L 58.896364 74.300213 
L 59.649455 73.669948 
L 60.402545 73.039683 
L 61.155636 72.409418 
L 61.908727 71.779153 
L 62.661818 71.148888 
L 63.414909 70.518623 
L 64.168 69.888358 
L 64.921091 69.258093 
L 65.674182 68.627828 
L 66.427273 67.997563 
L 67.180364 67.367298 
L 67.933455 66.737033 
L 68.686545 66.106768 
L 69.439636 65.476503 
L 70.192727 64.846238 
L 70.945818 64.215973 
L 71.698909 63.585708 
L 72.452 62.955443 
L 73.205091 62.325178 
L 73.958182 61.694913 
L 74.711273 61.064648 
L 75.464364 60.434383 
L 76.217455 59.804118 
L 76.970545 59.173853 
L 77.723636 58.543588 
L 78.476727 57.913323 
L 79.229818 57.283058 
L 79.982909 56.652793 
L 80.736 56.022528 
L 81.489091 55.392263 
L 82.242182 54.761998 
L 82.995273 54.131733 
L 83.748364 53.501468 
L 84.501455 52.871203 
L 85.254545 52.240938 
L 86.007636 51.610673 
L 86.760727 50.980408 
L 87.513818 50.350143 
L 88.266909 49.719878 
L 89.02 49.089613 
L 89.773091 48.459348 
L 90.526182 47.829083 
L 91.279273 47.198818 
L 92.032364 46.568553 
L 92.785455 45.938288 
L 93.538545 45.308023 
L 94.291636 44.677758 
L 95.044727 44.047493 
L 95.797818 43.417228 
L 96.550909 42.786963 
L 97.304 42.156698 
L 98.057091 41.526433 
L 98.810182 40.896168 
L 99.563273 40.265903 
L 100.316364 39.635638 
L 101.069455 39.005373 
L 101.822545 38.375108 
L 102.575636 37.744843 
L 103.328727 37.114578 
L 104.081818 36.484313 
L 104.834909 35.854048 
L 105.588 35.223783 
L 106.341091 34.593518 
L 107.094182 33.963253 
L 107.847273 33.332988 
L 108.600364 32.702723 
L 109.353455 32.072458 
L 110.106545 31.442193 
L 110.859636 30.811928 
L 111.612727 30.181663 
L 112.365818 29.551398 
L 113.118909 28.921133 
L 113.872 28.290868 
L 114.625091 27.660603 
L 115.378182 27.030338 
L 116.131273 26.400073 
L 116.884364 25.769808 
L 117.637455 25.139543 
L 118.390545 24.509279 
L 119.143636 23.879014 
L 119.896727 23.248749 
L 120.649818 22.618484 
L 121.402909 21.988219 
L 122.156 21.357954 
L 122.909091 20.727689 
L 123.662182 20.097424 
L 124.415273 19.467159 
L 125.168364 18.836894 
L 125.921455 18.206629 
L 126.674545 17.576364 
" style="fill:none;stroke:#4393c3;stroke-linecap:round;stroke-width:1.5;"/>
   </g>
   <g id="line2d_13">
    <path clip-path="url(#pe8708f13aa)" d="M 51.365455 59.394446 
L 52.118545 59.709578 
L 52.871636 60.024711 
L 53.624727 60.339843 
L 54.377818 60.654976 
L 55.130909 60.970108 
L 55.884 61.285241 
L 56.637091 61.600373 
L 57.390182 61.915506 
L 58.143273 62.230638 
L 58.896364 62.545771 
L 59.649455 62.860903 
L 60.402545 63.176036 
L 61.155636 63.491168 
L 61.908727 63.806301 
L 62.661818 64.121433 
L 63.414909 64.436565 
L 64.168 64.751698 
L 64.921091 65.06683 
L 65.674182 65.381963 
L 66.427273 65.697095 
L 67.180364 66.012228 
L 67.933455 66.32736 
L 68.686545 66.642493 
L 69.439636 66.957625 
L 70.192727 67.272758 
L 70.945818 67.58789 
L 71.698909 67.903023 
L 72.452 68.218155 
L 73.205091 68.533288 
L 73.958182 68.84842 
L 74.711273 69.163553 
L 75.464364 69.478685 
L 76.217455 69.793818 
L 76.970545 70.10895 
L 77.723636 70.424083 
L 78.476727 70.739215 
L 79.229818 71.054348 
L 79.982909 71.36948 
L 80.736 71.684613 
L 81.489091 71.999745 
L 82.242182 72.314878 
L 82.995273 72.63001 
L 83.748364 72.945143 
L 84.501455 73.260275 
L 85.254545 73.575408 
L 86.007636 73.89054 
L 86.760727 74.205673 
L 87.513818 74.520805 
L 88.266909 74.835938 
L 89.02 75.15107 
L 89.773091 75.466203 
L 90.526182 75.781335 
L 91.279273 76.096468 
L 92.032364 76.4116 
L 92.785455 76.726733 
L 93.538545 77.041865 
L 94.291636 77.356998 
L 95.044727 77.67213 
L 95.797818 77.987263 
L 96.550909 78.302395 
L 97.304 78.617528 
L 98.057091 78.93266 
L 98.810182 79.247793 
L 99.563273 79.562925 
L 100.316364 79.878058 
L 101.069455 80.19319 
L 101.822545 80.508323 
L 102.575636 80.823455 
L 103.328727 81.138588 
L 104.081818 81.45372 
L 104.834909 81.768853 
L 105.588 82.083985 
L 106.341091 82.399118 
L 107.094182 82.71425 
L 107.847273 83.029383 
L 108.600364 83.344515 
L 109.353455 83.659648 
L 110.106545 83.97478 
L 110.859636 84.289913 
L 111.612727 84.605045 
L 112.365818 84.920178 
L 113.118909 85.23531 
L 113.872 85.550443 
L 114.625091 85.865575 
L 115.378182 86.180708 
L 116.131273 86.49584 
L 116.884364 86.810973 
L 117.637455 87.126105 
L 118.390545 87.441238 
L 119.143636 87.75637 
L 119.896727 88.071503 
L 120.649818 88.386635 
L 121.402909 88.701768 
L 122.156 89.0169 
L 122.909091 89.332033 
L 123.662182 89.647165 
L 124.415273 89.962298 
L 125.168364 90.27743 
L 125.921455 90.592563 
L 126.674545 90.907695 
" style="fill:none;stroke:#f4a582;stroke-linecap:round;stroke-width:1.5;"/>
   </g>
   <g id="line2d_14">
    <path clip-path="url(#pe8708f13aa)" d="M 51.365455 97.903636 
L 52.118545 97.588504 
L 52.871636 97.273371 
L 53.624727 96.958239 
L 54.377818 96.643106 
L 55.130909 96.327974 
L 55.884 96.012841 
L 56.637091 95.697709 
L 57.390182 95.382576 
L 58.143273 95.067444 
L 58.896364 94.752311 
L 59.649455 94.437179 
L 60.402545 94.122046 
L 61.155636 93.806914 
L 61.908727 93.491781 
L 62.661818 93.176649 
L 63.414909 92.861516 
L 64.168 92.546384 
L 64.921091 92.231251 
L 65.674182 91.916119 
L 66.427273 91.600986 
L 67.180364 91.285854 
L 67.933455 90.970721 
L 68.686545 90.655589 
L 69.439636 90.340457 
L 70.192727 90.025324 
L 70.945818 89.710192 
L 71.698909 89.395059 
L 72.452 89.079927 
L 73.205091 88.764794 
L 73.958182 88.449662 
L 74.711273 88.134529 
L 75.464364 87.819397 
L 76.217455 87.504264 
L 76.970545 87.189132 
L 77.723636 86.873999 
L 78.476727 86.558867 
L 79.229818 86.243734 
L 79.982909 85.928602 
L 80.736 85.613469 
L 81.489091 85.298337 
L 82.242182 84.983204 
L 82.995273 84.668072 
L 83.748364 84.352939 
L 84.501455 84.037807 
L 85.254545 83.722674 
L 86.007636 83.407542 
L 86.760727 83.092409 
L 87.513818 82.777277 
L 88.266909 82.462144 
L 89.02 82.147012 
L 89.773091 81.831879 
L 90.526182 81.516747 
L 91.279273 81.201614 
L 92.032364 80.886482 
L 92.785455 80.571349 
L 93.538545 80.256217 
L 94.291636 79.941084 
L 95.044727 79.625952 
L 95.797818 79.310819 
L 96.550909 78.995687 
L 97.304 78.680554 
L 98.057091 78.365422 
L 98.810182 78.050289 
L 99.563273 77.735157 
L 100.316364 77.420024 
L 101.069455 77.104892 
L 101.822545 76.789759 
L 102.575636 76.474627 
L 103.328727 76.159494 
L 104.081818 75.844362 
L 104.834909 75.529229 
L 105.588 75.214097 
L 106.341091 74.898964 
L 107.094182 74.583832 
L 107.847273 74.268699 
L 108.600364 73.953567 
L 109.353455 73.638434 
L 110.106545 73.323302 
L 110.859636 73.008169 
L 111.612727 72.693037 
L 112.365818 72.377904 
L 113.118909 72.062772 
L 113.872 71.747639 
L 114.625091 71.432507 
L 115.378182 71.117374 
L 116.131273 70.802242 
L 116.884364 70.487109 
L 117.637455 70.171977 
L 118.390545 69.856844 
L 119.143636 69.541712 
L 119.896727 69.226579 
L 120.649818 68.911447 
L 121.402909 68.596314 
L 122.156 68.281182 
L 122.909091 67.966049 
L 123.662182 67.650917 
L 124.415273 67.335784 
L 125.168364 67.020652 
L 125.921455 66.705519 
L 126.674545 66.390387 
" style="fill:none;stroke:#92c5de;stroke-linecap:round;stroke-width:1.5;"/>
   </g>
   <g id="line2d_15">
    <path clip-path="url(#pe8708f13aa)" d="M 51.365455 81.579773 
L 52.118545 81.264641 
L 52.871636 80.949508 
L 53.624727 80.634376 
L 54.377818 80.319243 
L 55.130909 80.004111 
L 55.884 79.688978 
L 56.637091 79.373846 
L 57.390182 79.058713 
L 58.143273 78.743581 
L 58.896364 78.428448 
L 59.649455 78.113316 
L 60.402545 77.798183 
L 61.155636 77.483051 
L 61.908727 77.167918 
L 62.661818 76.852786 
L 63.414909 76.537653 
L 64.168 76.222521 
L 64.921091 75.907388 
L 65.674182 75.592256 
L 66.427273 75.277123 
L 67.180364 74.961991 
L 67.933455 74.646858 
L 68.686545 74.331726 
L 69.439636 74.016593 
L 70.192727 73.701461 
L 70.945818 73.386328 
L 71.698909 73.071196 
L 72.452 72.756063 
L 73.205091 72.440931 
L 73.958182 72.125798 
L 74.711273 71.810666 
L 75.464364 71.495533 
L 76.217455 71.180401 
L 76.970545 70.865268 
L 77.723636 70.550136 
L 78.476727 70.235003 
L 79.229818 69.919871 
L 79.982909 69.604738 
L 80.736 69.289606 
L 81.489091 68.974473 
L 82.242182 68.659341 
L 82.995273 68.344208 
L 83.748364 68.029076 
L 84.501455 67.713943 
L 85.254545 67.398811 
L 86.007636 67.083678 
L 86.760727 66.768546 
L 87.513818 66.453413 
L 88.266909 66.138281 
L 89.02 65.823148 
L 89.773091 65.508016 
L 90.526182 65.192883 
L 91.279273 64.877751 
L 92.032364 64.562618 
L 92.785455 64.247486 
L 93.538545 63.932354 
L 94.291636 63.617221 
L 95.044727 63.302089 
L 95.797818 62.986956 
L 96.550909 62.671824 
L 97.304 62.356691 
L 98.057091 62.041559 
L 98.810182 61.726426 
L 99.563273 61.411294 
L 100.316364 61.096161 
L 101.069455 60.781029 
L 101.822545 60.465896 
L 102.575636 60.150764 
L 103.328727 59.835631 
L 104.081818 59.520499 
L 104.834909 59.205366 
L 105.588 58.890234 
L 106.341091 58.575101 
L 107.094182 58.259969 
L 107.847273 57.944836 
L 108.600364 57.629704 
L 109.353455 57.314571 
L 110.106545 56.999439 
L 110.859636 56.684306 
L 111.612727 56.369174 
L 112.365818 56.054041 
L 113.118909 55.738909 
L 113.872 55.423776 
L 114.625091 55.108644 
L 115.378182 54.793511 
L 116.131273 54.478379 
L 116.884364 54.163246 
L 117.637455 53.848114 
L 118.390545 53.532981 
L 119.143636 53.217849 
L 119.896727 52.902716 
L 120.649818 52.587584 
L 121.402909 52.272451 
L 122.156 51.957319 
L 122.909091 51.642186 
L 123.662182 51.327054 
L 124.415273 51.011921 
L 125.168364 50.696789 
L 125.921455 50.381656 
L 126.674545 50.066524 
" style="fill:none;stroke:#92c5de;stroke-linecap:round;stroke-width:1.5;"/>
   </g>
   <g id="line2d_16">
    <path clip-path="url(#pe8708f13aa)" d="M 51.365455 93.428755 
L 52.118545 93.113622 
L 52.871636 92.79849 
L 53.624727 92.483357 
L 54.377818 92.168225 
L 55.130909 91.853092 
L 55.884 91.53796 
L 56.637091 91.222827 
L 57.390182 90.907695 
L 58.143273 90.592563 
L 58.896364 90.27743 
L 59.649455 89.962298 
L 60.402545 89.647165 
L 61.155636 89.332033 
L 61.908727 89.0169 
L 62.661818 88.701768 
L 63.414909 88.386635 
L 64.168 88.071503 
L 64.921091 87.75637 
L 65.674182 87.441238 
L 66.427273 87.126105 
L 67.180364 86.810973 
L 67.933455 86.49584 
L 68.686545 86.180708 
L 69.439636 85.865575 
L 70.192727 85.550443 
L 70.945818 85.23531 
L 71.698909 84.920178 
L 72.452 84.605045 
L 73.205091 84.289913 
L 73.958182 83.97478 
L 74.711273 83.659648 
L 75.464364 83.344515 
L 76.217455 83.029383 
L 76.970545 82.71425 
L 77.723636 82.399118 
L 78.476727 82.083985 
L 79.229818 81.768853 
L 79.982909 81.45372 
L 80.736 81.138588 
L 81.489091 80.823455 
L 82.242182 80.508323 
L 82.995273 80.19319 
L 83.748364 79.878058 
L 84.501455 79.562925 
L 85.254545 79.247793 
L 86.007636 78.93266 
L 86.760727 78.617528 
L 87.513818 78.302395 
L 88.266909 77.987263 
L 89.02 77.67213 
L 89.773091 77.356998 
L 90.526182 77.041865 
L 91.279273 76.726733 
L 92.032364 76.4116 
L 92.785455 76.096468 
L 93.538545 75.781335 
L 94.291636 75.466203 
L 95.044727 75.15107 
L 95.797818 74.835938 
L 96.550909 74.520805 
L 97.304 74.205673 
L 98.057091 73.89054 
L 98.810182 73.575408 
L 99.563273 73.260275 
L 100.316364 72.945143 
L 101.069455 72.63001 
L 101.822545 72.314878 
L 102.575636 71.999745 
L 103.328727 71.684613 
L 104.081818 71.36948 
L 104.834909 71.054348 
L 105.588 70.739215 
L 106.341091 70.424083 
L 107.094182 70.10895 
L 107.847273 69.793818 
L 108.600364 69.478685 
L 109.353455 69.163553 
L 110.106545 68.84842 
L 110.859636 68.533288 
L 111.612727 68.218155 
L 112.365818 67.903023 
L 113.118909 67.58789 
L 113.872 67.272758 
L 114.625091 66.957625 
L 115.378182 66.642493 
L 116.131273 66.32736 
L 116.884364 66.012228 
L 117.637455 65.697095 
L 118.390545 65.381963 
L 119.143636 65.06683 
L 119.896727 64.751698 
L 120.649818 64.436565 
L 121.402909 64.121433 
L 122.156 63.806301 
L 122.909091 63.491168 
L 123.662182 63.176036 
L 124.415273 62.860903 
L 125.168364 62.545771 
L 125.921455 62.230638 
L 126.674545 61.915506 
" style="fill:none;stroke:#92c5de;stroke-linecap:round;stroke-width:1.5;"/>
   </g>
   <g id="line2d_17">
    <path clip-path="url(#pe8708f13aa)" d="M 51.365455 94.405666 
L 52.118545 94.405666 
L 52.871636 94.405666 
L 53.624727 94.405666 
L 54.377818 94.405666 
L 55.130909 94.405666 
L 55.884 94.405666 
L 56.637091 94.405666 
L 57.390182 94.405666 
L 58.143273 94.405666 
L 58.896364 94.405666 
L 59.649455 94.405666 
L 60.402545 94.405666 
L 61.155636 94.405666 
L 61.908727 94.405666 
L 62.661818 94.405666 
L 63.414909 94.405666 
L 64.168 94.405666 
L 64.921091 94.405666 
L 65.674182 94.405666 
L 66.427273 94.405666 
L 67.180364 94.405666 
L 67.933455 94.405666 
L 68.686545 94.405666 
L 69.439636 94.405666 
L 70.192727 94.405666 
L 70.945818 94.405666 
L 71.698909 94.405666 
L 72.452 94.405666 
L 73.205091 94.405666 
L 73.958182 94.405666 
L 74.711273 94.405666 
L 75.464364 94.405666 
L 76.217455 94.405666 
L 76.970545 94.405666 
L 77.723636 94.405666 
L 78.476727 94.405666 
L 79.229818 94.405666 
L 79.982909 94.405666 
L 80.736 94.405666 
L 81.489091 94.405666 
L 82.242182 94.405666 
L 82.995273 94.405666 
L 83.748364 94.405666 
L 84.501455 94.405666 
L 85.254545 94.405666 
L 86.007636 94.405666 
L 86.760727 94.405666 
L 87.513818 94.405666 
L 88.266909 94.405666 
L 89.02 94.405666 
L 89.773091 94.405666 
L 90.526182 94.405666 
L 91.279273 94.405666 
L 92.032364 94.405666 
L 92.785455 94.405666 
L 93.538545 94.405666 
L 94.291636 94.405666 
L 95.044727 94.405666 
L 95.797818 94.405666 
L 96.550909 94.405666 
L 97.304 94.405666 
L 98.057091 94.405666 
L 98.810182 94.405666 
L 99.563273 94.405666 
L 100.316364 94.405666 
L 101.069455 94.405666 
L 101.822545 94.405666 
L 102.575636 94.405666 
L 103.328727 94.405666 
L 104.081818 94.405666 
L 104.834909 94.405666 
L 105.588 94.405666 
L 106.341091 94.405666 
L 107.094182 94.405666 
L 107.847273 94.405666 
L 108.600364 94.405666 
L 109.353455 94.405666 
L 110.106545 94.405666 
L 110.859636 94.405666 
L 111.612727 94.405666 
L 112.365818 94.405666 
L 113.118909 94.405666 
L 113.872 94.405666 
L 114.625091 94.405666 
L 115.378182 94.405666 
L 116.131273 94.405666 
L 116.884364 94.405666 
L 117.637455 94.405666 
L 118.390545 94.405666 
L 119.143636 94.405666 
L 119.896727 94.405666 
L 120.649818 94.405666 
L 121.402909 94.405666 
L 122.156 94.405666 
L 122.909091 94.405666 
L 123.662182 94.405666 
L 124.415273 94.405666 
L 125.168364 94.405666 
L 125.921455 94.405666 
L 126.674545 94.405666 
" style="fill:none;stroke:#333333;stroke-linecap:round;stroke-width:1.5;"/>
   </g>
   <g id="line2d_18">
    <path clip-path="url(#pe8708f13aa)" d="M 51.365455 69.825331 
L 52.118545 69.825331 
L 52.871636 69.825331 
L 53.624727 69.825331 
L 54.377818 69.825331 
L 55.130909 69.825331 
L 55.884 69.825331 
L 56.637091 69.825331 
L 57.390182 69.825331 
L 58.143273 69.825331 
L 58.896364 69.825331 
L 59.649455 69.825331 
L 60.402545 69.825331 
L 61.155636 69.825331 
L 61.908727 69.825331 
L 62.661818 69.825331 
L 63.414909 69.825331 
L 64.168 69.825331 
L 64.921091 69.825331 
L 65.674182 69.825331 
L 66.427273 69.825331 
L 67.180364 69.825331 
L 67.933455 69.825331 
L 68.686545 69.825331 
L 69.439636 69.825331 
L 70.192727 69.825331 
L 70.945818 69.825331 
L 71.698909 69.825331 
L 72.452 69.825331 
L 73.205091 69.825331 
L 73.958182 69.825331 
L 74.711273 69.825331 
L 75.464364 69.825331 
L 76.217455 69.825331 
L 76.970545 69.825331 
L 77.723636 69.825331 
L 78.476727 69.825331 
L 79.229818 69.825331 
L 79.982909 69.825331 
L 80.736 69.825331 
L 81.489091 69.825331 
L 82.242182 69.825331 
L 82.995273 69.825331 
L 83.748364 69.825331 
L 84.501455 69.825331 
L 85.254545 69.825331 
L 86.007636 69.825331 
L 86.760727 69.825331 
L 87.513818 69.825331 
L 88.266909 69.825331 
L 89.02 69.825331 
L 89.773091 69.825331 
L 90.526182 69.825331 
L 91.279273 69.825331 
L 92.032364 69.825331 
L 92.785455 69.825331 
L 93.538545 69.825331 
L 94.291636 69.825331 
L 95.044727 69.825331 
L 95.797818 69.825331 
L 96.550909 69.825331 
L 97.304 69.825331 
L 98.057091 69.825331 
L 98.810182 69.825331 
L 99.563273 69.825331 
L 100.316364 69.825331 
L 101.069455 69.825331 
L 101.822545 69.825331 
L 102.575636 69.825331 
L 103.328727 69.825331 
L 104.081818 69.825331 
L 104.834909 69.825331 
L 105.588 69.825331 
L 106.341091 69.825331 
L 107.094182 69.825331 
L 107.847273 69.825331 
L 108.600364 69.825331 
L 109.353455 69.825331 
L 110.106545 69.825331 
L 110.859636 69.825331 
L 111.612727 69.825331 
L 112.365818 69.825331 
L 113.118909 69.825331 
L 113.872 69.825331 
L 114.625091 69.825331 
L 115.378182 69.825331 
L 116.131273 69.825331 
L 116.884364 69.825331 
L 117.637455 69.825331 
L 118.390545 69.825331 
L 119.143636 69.825331 
L 119.896727 69.825331 
L 120.649818 69.825331 
L 121.402909 69.825331 
L 122.156 69.825331 
L 122.909091 69.825331 
L 123.662182 69.825331 
L 124.415273 69.825331 
L 125.168364 69.825331 
L 125.921455 69.825331 
L 126.674545 69.825331 
" style="fill:none;stroke:#333333;stroke-linecap:round;stroke-width:1.5;"/>
   </g>
   <g id="line2d_19">
    <path clip-path="url(#pe8708f13aa)" d="M 51.365455 73.071196 
L 52.118545 73.071196 
L 52.871636 73.071196 
L 53.624727 73.071196 
L 54.377818 73.071196 
L 55.130909 73.071196 
L 55.884 73.071196 
L 56.637091 73.071196 
L 57.390182 73.071196 
L 58.143273 73.071196 
L 58.896364 73.071196 
L 59.649455 73.071196 
L 60.402545 73.071196 
L 61.155636 73.071196 
L 61.908727 73.071196 
L 62.661818 73.071196 
L 63.414909 73.071196 
L 64.168 73.071196 
L 64.921091 73.071196 
L 65.674182 73.071196 
L 66.427273 73.071196 
L 67.180364 73.071196 
L 67.933455 73.071196 
L 68.686545 73.071196 
L 69.439636 73.071196 
L 70.192727 73.071196 
L 70.945818 73.071196 
L 71.698909 73.071196 
L 72.452 73.071196 
L 73.205091 73.071196 
L 73.958182 73.071196 
L 74.711273 73.071196 
L 75.464364 73.071196 
L 76.217455 73.071196 
L 76.970545 73.071196 
L 77.723636 73.071196 
L 78.476727 73.071196 
L 79.229818 73.071196 
L 79.982909 73.071196 
L 80.736 73.071196 
L 81.489091 73.071196 
L 82.242182 73.071196 
L 82.995273 73.071196 
L 83.748364 73.071196 
L 84.501455 73.071196 
L 85.254545 73.071196 
L 86.007636 73.071196 
L 86.760727 73.071196 
L 87.513818 73.071196 
L 88.266909 73.071196 
L 89.02 73.071196 
L 89.773091 73.071196 
L 90.526182 73.071196 
L 91.279273 73.071196 
L 92.032364 73.071196 
L 92.785455 73.071196 
L 93.538545 73.071196 
L 94.291636 73.071196 
L 95.044727 73.071196 
L 95.797818 73.071196 
L 96.550909 73.071196 
L 97.304 73.071196 
L 98.057091 73.071196 
L 98.810182 73.071196 
L 99.563273 73.071196 
L 100.316364 73.071196 
L 101.069455 73.071196 
L 101.822545 73.071196 
L 102.575636 73.071196 
L 103.328727 73.071196 
L 104.081818 73.071196 
L 104.834909 73.071196 
L 105.588 73.071196 
L 106.341091 73.071196 
L 107.094182 73.071196 
L 107.847273 73.071196 
L 108.600364 73.071196 
L 109.353455 73.071196 
L 110.106545 73.071196 
L 110.859636 73.071196 
L 111.612727 73.071196 
L 112.365818 73.071196 
L 113.118909 73.071196 
L 113.872 73.071196 
L 114.625091 73.071196 
L 115.378182 73.071196 
L 116.131273 73.071196 
L 116.884364 73.071196 
L 117.637455 73.071196 
L 118.390545 73.071196 
L 119.143636 73.071196 
L 119.896727 73.071196 
L 120.649818 73.071196 
L 121.402909 73.071196 
L 122.156 73.071196 
L 122.909091 73.071196 
L 123.662182 73.071196 
L 124.415273 73.071196 
L 125.168364 73.071196 
L 125.921455 73.071196 
L 126.674545 73.071196 
" style="fill:none;stroke:#333333;stroke-linecap:round;stroke-width:1.5;"/>
   </g>
  </g>
 </g>
 <defs>
  <clipPath id="pe8708f13aa">
   <rect height="88.36" width="82.84" x="47.6" y="13.56"/>
  </clipPath>
 </defs>
</svg>
