<?xml version="1.0" encoding="utf-8" standalone="no"?>
<!DOCTYPE svg PUBLIC "-//W3C//DTD SVG 1.1//EN"
  "http://www.w3.org/Graphics/SVG/1.1/DTD/svg11.dtd">
<!-- Created with matplotlib (http://matplotlib.org/) -->
<svg height="216pt" version="1.1" viewBox="0 0 216 216" width="216pt" xmlns="http://www.w3.org/2000/svg" xmlns:xlink="http://www.w3.org/1999/xlink">
 <defs>
  <style type="text/css">
*{stroke-linecap:butt;stroke-linejoin:round;}
  </style>
 </defs>
 <g id="figure_1">
  <g id="patch_1">
   <path d="M 0 216 
L 216 216 
L 216 0 
L 0 0 
z
" style="fill:#ffffff;"/>
  </g>
  <g id="axes_1">
   <g id="patch_2">
    <path d="M 44.78 175.96 
L 203.52 175.96 
L 203.52 25.44 
L 44.78 25.44 
z
" style="fill:#ffffff;"/>
   </g>
   <g id="matplotlib.axis_1">
    <g id="xtick_1">
     <g id="line2d_1">
      <defs>
       <path d="M 0 0 
L 0 3.5 
" id="mecf7d21974" style="stroke:#262626;stroke-width:0.8;"/>
      </defs>
      <g>
       <use style="fill:#262626;stroke:#262626;stroke-width:0.8;" x="51.995455" xlink:href="#mecf7d21974" y="175.96"/>
      </g>
     </g>
     <g id="text_1">
      <!-- 2 -->
      <defs>
       <path d="M 50.34375 8.453125 
L 50.34375 0 
L 3.03125 0 
Q 2.9375 3.171875 4.046875 6.109375 
Q 5.859375 10.9375 9.828125 15.625 
Q 13.8125 20.3125 21.34375 26.46875 
Q 33.015625 36.03125 37.109375 41.625 
Q 41.21875 47.21875 41.21875 52.203125 
Q 41.21875 57.421875 37.46875 61 
Q 33.734375 64.59375 27.734375 64.59375 
Q 21.390625 64.59375 17.578125 60.78125 
Q 13.765625 56.984375 13.71875 50.25 
L 4.6875 51.171875 
Q 5.609375 61.28125 11.65625 66.578125 
Q 17.71875 71.875 27.9375 71.875 
Q 38.234375 71.875 44.234375 66.15625 
Q 50.25 60.453125 50.25 52 
Q 50.25 47.703125 48.484375 43.546875 
Q 46.734375 39.40625 42.65625 34.8125 
Q 38.578125 30.21875 29.109375 22.21875 
Q 21.1875 15.578125 18.9375 13.203125 
Q 16.703125 10.84375 15.234375 8.453125 
z
" id="ArialMT-32"/>
      </defs>
      <g style="fill:#262626;" transform="translate(49.214986 190.117812)scale(0.1 -0.1)">
       <use xlink:href="#ArialMT-32"/>
      </g>
     </g>
    </g>
    <g id="xtick_2">
     <g id="line2d_2">
      <g>
       <use style="fill:#262626;stroke:#262626;stroke-width:0.8;" x="80.857273" xlink:href="#mecf7d21974" y="175.96"/>
      </g>
     </g>
     <g id="text_2">
      <!-- 4 -->
      <defs>
       <path d="M 32.328125 0 
L 32.328125 17.140625 
L 1.265625 17.140625 
L 1.265625 25.203125 
L 33.9375 71.578125 
L 41.109375 71.578125 
L 41.109375 25.203125 
L 50.78125 25.203125 
L 50.78125 17.140625 
L 41.109375 17.140625 
L 41.109375 0 
z
M 32.328125 25.203125 
L 32.328125 57.46875 
L 9.90625 25.203125 
z
" id="ArialMT-34"/>
      </defs>
      <g style="fill:#262626;" transform="translate(78.076804 190.117812)scale(0.1 -0.1)">
       <use xlink:href="#ArialMT-34"/>
      </g>
     </g>
    </g>
    <g id="xtick_3">
     <g id="line2d_3">
      <g>
       <use style="fill:#262626;stroke:#262626;stroke-width:0.8;" x="109.719091" xlink:href="#mecf7d21974" y="175.96"/>
      </g>
     </g>
     <g id="text_3">
      <!-- 6 -->
      <defs>
       <path d="M 49.75 54.046875 
L 41.015625 53.375 
Q 39.84375 58.546875 37.703125 60.890625 
Q 34.125 64.65625 28.90625 64.65625 
Q 24.703125 64.65625 21.53125 62.3125 
Q 17.390625 59.28125 14.984375 53.46875 
Q 12.59375 47.65625 12.5 36.921875 
Q 15.671875 41.75 20.265625 44.09375 
Q 24.859375 46.4375 29.890625 46.4375 
Q 38.671875 46.4375 44.84375 39.96875 
Q 51.03125 33.5 51.03125 23.25 
Q 51.03125 16.5 48.125 10.71875 
Q 45.21875 4.9375 40.140625 1.859375 
Q 35.0625 -1.21875 28.609375 -1.21875 
Q 17.625 -1.21875 10.6875 6.859375 
Q 3.765625 14.9375 3.765625 33.5 
Q 3.765625 54.25 11.421875 63.671875 
Q 18.109375 71.875 29.4375 71.875 
Q 37.890625 71.875 43.28125 67.140625 
Q 48.6875 62.40625 49.75 54.046875 
z
M 13.875 23.1875 
Q 13.875 18.65625 15.796875 14.5 
Q 17.71875 10.359375 21.1875 8.171875 
Q 24.65625 6 28.46875 6 
Q 34.03125 6 38.03125 10.484375 
Q 42.046875 14.984375 42.046875 22.703125 
Q 42.046875 30.125 38.078125 34.390625 
Q 34.125 38.671875 28.125 38.671875 
Q 22.171875 38.671875 18.015625 34.390625 
Q 13.875 30.125 13.875 23.1875 
z
" id="ArialMT-36"/>
      </defs>
      <g style="fill:#262626;" transform="translate(106.938622 190.117812)scale(0.1 -0.1)">
       <use xlink:href="#ArialMT-36"/>
      </g>
     </g>
    </g>
    <g id="xtick_4">
     <g id="line2d_4">
      <g>
       <use style="fill:#262626;stroke:#262626;stroke-width:0.8;" x="138.580909" xlink:href="#mecf7d21974" y="175.96"/>
      </g>
     </g>
     <g id="text_4">
      <!-- 8 -->
      <defs>
       <path d="M 17.671875 38.8125 
Q 12.203125 40.828125 9.5625 44.53125 
Q 6.9375 48.25 6.9375 53.421875 
Q 6.9375 61.234375 12.546875 66.546875 
Q 18.171875 71.875 27.484375 71.875 
Q 36.859375 71.875 42.578125 66.421875 
Q 48.296875 60.984375 48.296875 53.171875 
Q 48.296875 48.1875 45.671875 44.5 
Q 43.0625 40.828125 37.75 38.8125 
Q 44.34375 36.671875 47.78125 31.875 
Q 51.21875 27.09375 51.21875 20.453125 
Q 51.21875 11.28125 44.71875 5.03125 
Q 38.234375 -1.21875 27.640625 -1.21875 
Q 17.046875 -1.21875 10.546875 5.046875 
Q 4.046875 11.328125 4.046875 20.703125 
Q 4.046875 27.6875 7.59375 32.390625 
Q 11.140625 37.109375 17.671875 38.8125 
z
M 15.921875 53.71875 
Q 15.921875 48.640625 19.1875 45.40625 
Q 22.46875 42.1875 27.6875 42.1875 
Q 32.765625 42.1875 36.015625 45.375 
Q 39.265625 48.578125 39.265625 53.21875 
Q 39.265625 58.0625 35.90625 61.359375 
Q 32.5625 64.65625 27.59375 64.65625 
Q 22.5625 64.65625 19.234375 61.421875 
Q 15.921875 58.203125 15.921875 53.71875 
z
M 13.09375 20.65625 
Q 13.09375 16.890625 14.875 13.375 
Q 16.65625 9.859375 20.171875 7.921875 
Q 23.6875 6 27.734375 6 
Q 34.03125 6 38.125 10.046875 
Q 42.234375 14.109375 42.234375 20.359375 
Q 42.234375 26.703125 38.015625 30.859375 
Q 33.796875 35.015625 27.4375 35.015625 
Q 21.234375 35.015625 17.15625 30.90625 
Q 13.09375 26.8125 13.09375 20.65625 
z
" id="ArialMT-38"/>
      </defs>
      <g style="fill:#262626;" transform="translate(135.80044 190.117812)scale(0.1 -0.1)">
       <use xlink:href="#ArialMT-38"/>
      </g>
     </g>
    </g>
    <g id="xtick_5">
     <g id="line2d_5">
      <g>
       <use style="fill:#262626;stroke:#262626;stroke-width:0.8;" x="167.442727" xlink:href="#mecf7d21974" y="175.96"/>
      </g>
     </g>
     <g id="text_5">
      <!-- 10 -->
      <defs>
       <path d="M 37.25 0 
L 28.46875 0 
L 28.46875 56 
Q 25.296875 52.984375 20.140625 49.953125 
Q 14.984375 46.921875 10.890625 45.40625 
L 10.890625 53.90625 
Q 18.265625 57.375 23.78125 62.296875 
Q 29.296875 67.234375 31.59375 71.875 
L 37.25 71.875 
z
" id="ArialMT-31"/>
       <path d="M 4.15625 35.296875 
Q 4.15625 48 6.765625 55.734375 
Q 9.375 63.484375 14.515625 67.671875 
Q 19.671875 71.875 27.484375 71.875 
Q 33.25 71.875 37.59375 69.546875 
Q 41.9375 67.234375 44.765625 62.859375 
Q 47.609375 58.5 49.21875 52.21875 
Q 50.828125 45.953125 50.828125 35.296875 
Q 50.828125 22.703125 48.234375 14.96875 
Q 45.65625 7.234375 40.5 3 
Q 35.359375 -1.21875 27.484375 -1.21875 
Q 17.140625 -1.21875 11.234375 6.203125 
Q 4.15625 15.140625 4.15625 35.296875 
z
M 13.1875 35.296875 
Q 13.1875 17.671875 17.3125 11.828125 
Q 21.4375 6 27.484375 6 
Q 33.546875 6 37.671875 11.859375 
Q 41.796875 17.71875 41.796875 35.296875 
Q 41.796875 52.984375 37.671875 58.78125 
Q 33.546875 64.59375 27.390625 64.59375 
Q 21.34375 64.59375 17.71875 59.46875 
Q 13.1875 52.9375 13.1875 35.296875 
z
" id="ArialMT-30"/>
      </defs>
      <g style="fill:#262626;" transform="translate(161.88179 190.117812)scale(0.1 -0.1)">
       <use xlink:href="#ArialMT-31"/>
       <use x="55.615234" xlink:href="#ArialMT-30"/>
      </g>
     </g>
    </g>
    <g id="xtick_6">
     <g id="line2d_6">
      <g>
       <use style="fill:#262626;stroke:#262626;stroke-width:0.8;" x="196.304545" xlink:href="#mecf7d21974" y="175.96"/>
      </g>
     </g>
     <g id="text_6">
      <!-- 12 -->
      <g style="fill:#262626;" transform="translate(190.743608 190.117812)scale(0.1 -0.1)">
       <use xlink:href="#ArialMT-31"/>
       <use x="55.615234" xlink:href="#ArialMT-32"/>
      </g>
     </g>
    </g>
    <g id="text_7">
     <!-- pH -->
     <defs>
      <path d="M 6.59375 -19.875 
L 6.59375 51.859375 
L 14.59375 51.859375 
L 14.59375 45.125 
Q 17.4375 49.078125 21 51.046875 
Q 24.5625 53.03125 29.640625 53.03125 
Q 36.28125 53.03125 41.359375 49.609375 
Q 46.4375 46.1875 49.015625 39.953125 
Q 51.609375 33.734375 51.609375 26.3125 
Q 51.609375 18.359375 48.75 11.984375 
Q 45.90625 5.609375 40.453125 2.21875 
Q 35.015625 -1.171875 29 -1.171875 
Q 24.609375 -1.171875 21.109375 0.6875 
Q 17.625 2.546875 15.375 5.375 
L 15.375 -19.875 
z
M 14.546875 25.640625 
Q 14.546875 15.625 18.59375 10.84375 
Q 22.65625 6.0625 28.421875 6.0625 
Q 34.28125 6.0625 38.453125 11.015625 
Q 42.625 15.96875 42.625 26.375 
Q 42.625 36.28125 38.546875 41.203125 
Q 34.46875 46.140625 28.8125 46.140625 
Q 23.1875 46.140625 18.859375 40.890625 
Q 14.546875 35.640625 14.546875 25.640625 
z
" id="ArialMT-70"/>
      <path d="M 8.015625 0 
L 8.015625 71.578125 
L 17.484375 71.578125 
L 17.484375 42.1875 
L 54.6875 42.1875 
L 54.6875 71.578125 
L 64.15625 71.578125 
L 64.15625 0 
L 54.6875 0 
L 54.6875 33.734375 
L 17.484375 33.734375 
L 17.484375 0 
z
" id="ArialMT-48"/>
     </defs>
     <g style="fill:#262626;" transform="translate(117.758594 203.263125)scale(0.1 -0.1)">
      <use xlink:href="#ArialMT-70"/>
      <use x="55.615234" xlink:href="#ArialMT-48"/>
     </g>
    </g>
   </g>
   <g id="matplotlib.axis_2">
    <g id="ytick_1">
     <g id="line2d_7">
      <defs>
       <path d="M 0 0 
L -3.5 0 
" id="m16d34fcae1" style="stroke:#262626;stroke-width:0.8;"/>
      </defs>
      <g>
       <use style="fill:#262626;stroke:#262626;stroke-width:0.8;" x="44.78" xlink:href="#m16d34fcae1" y="169.421883"/>
      </g>
     </g>
     <g id="text_8">
      <!-- −2 -->
      <defs>
       <path d="M 52.828125 31.203125 
L 5.5625 31.203125 
L 5.5625 39.40625 
L 52.828125 39.40625 
z
" id="ArialMT-2212"/>
      </defs>
      <g style="fill:#262626;" transform="translate(26.378438 173.000789)scale(0.1 -0.1)">
       <use xlink:href="#ArialMT-2212"/>
       <use x="58.398438" xlink:href="#ArialMT-32"/>
      </g>
     </g>
    </g>
    <g id="ytick_2">
     <g id="line2d_8">
      <g>
       <use style="fill:#262626;stroke:#262626;stroke-width:0.8;" x="44.78" xlink:href="#m16d34fcae1" y="135.999822"/>
      </g>
     </g>
     <g id="text_9">
      <!-- −1 -->
      <g style="fill:#262626;" transform="translate(26.378438 139.578729)scale(0.1 -0.1)">
       <use xlink:href="#ArialMT-2212"/>
       <use x="58.398438" xlink:href="#ArialMT-31"/>
      </g>
     </g>
    </g>
    <g id="ytick_3">
     <g id="line2d_9">
      <g>
       <use style="fill:#262626;stroke:#262626;stroke-width:0.8;" x="44.78" xlink:href="#m16d34fcae1" y="102.577762"/>
      </g>
     </g>
     <g id="text_10">
      <!-- 0 -->
      <g style="fill:#262626;" transform="translate(32.219063 106.156668)scale(0.1 -0.1)">
       <use xlink:href="#ArialMT-30"/>
      </g>
     </g>
    </g>
    <g id="ytick_4">
     <g id="line2d_10">
      <g>
       <use style="fill:#262626;stroke:#262626;stroke-width:0.8;" x="44.78" xlink:href="#m16d34fcae1" y="69.155701"/>
      </g>
     </g>
     <g id="text_11">
      <!-- 1 -->
      <g style="fill:#262626;" transform="translate(32.219063 72.734607)scale(0.1 -0.1)">
       <use xlink:href="#ArialMT-31"/>
      </g>
     </g>
    </g>
    <g id="ytick_5">
     <g id="line2d_11">
      <g>
       <use style="fill:#262626;stroke:#262626;stroke-width:0.8;" x="44.78" xlink:href="#m16d34fcae1" y="35.73364"/>
      </g>
     </g>
     <g id="text_12">
      <!-- 2 -->
      <g style="fill:#262626;" transform="translate(32.219063 39.312547)scale(0.1 -0.1)">
       <use xlink:href="#ArialMT-32"/>
      </g>
     </g>
    </g>
    <g id="text_13">
     <!-- $\langle q_\mathsf{total} \rangle$ -->
     <defs>
      <path d="M 8.9375 31.34375 
L 22.703125 75.875 
L 31 75.875 
L 17.234375 31.34375 
L 31 -13.1875 
L 22.703125 -13.1875 
z
" id="DejaVuSans-27e8"/>
      <path d="M 41.703125 8.203125 
Q 38.09375 3.46875 33.171875 1.015625 
Q 28.265625 -1.421875 22.3125 -1.421875 
Q 14.015625 -1.421875 9.296875 4.171875 
Q 4.59375 9.765625 4.59375 19.578125 
Q 4.59375 27.484375 7.5 34.859375 
Q 10.40625 42.234375 15.828125 48.09375 
Q 19.34375 51.90625 23.90625 53.953125 
Q 28.46875 56 33.5 56 
Q 39.546875 56 43.453125 53.609375 
Q 47.359375 51.21875 49.125 46.390625 
L 50.6875 54.59375 
L 59.71875 54.59375 
L 45.125 -20.609375 
L 36.078125 -20.609375 
z
M 13.921875 20.90625 
Q 13.921875 13.671875 16.9375 9.890625 
Q 19.96875 6.109375 25.6875 6.109375 
Q 34.1875 6.109375 40.1875 14.234375 
Q 46.1875 22.359375 46.1875 33.984375 
Q 46.1875 41.015625 43.078125 44.75 
Q 39.984375 48.484375 34.1875 48.484375 
Q 29.9375 48.484375 26.3125 46.5 
Q 22.703125 44.53125 20.015625 40.71875 
Q 17.1875 36.71875 15.546875 31.34375 
Q 13.921875 25.984375 13.921875 20.90625 
z
" id="DejaVuSans-Oblique-71"/>
      <path d="M 18.3125 70.21875 
L 18.3125 54.6875 
L 36.8125 54.6875 
L 36.8125 47.703125 
L 18.3125 47.703125 
L 18.3125 18.015625 
Q 18.3125 11.328125 20.140625 9.421875 
Q 21.96875 7.515625 27.59375 7.515625 
L 36.8125 7.515625 
L 36.8125 0 
L 27.59375 0 
Q 17.1875 0 13.234375 3.875 
Q 9.28125 7.765625 9.28125 18.015625 
L 9.28125 47.703125 
L 2.6875 47.703125 
L 2.6875 54.6875 
L 9.28125 54.6875 
L 9.28125 70.21875 
z
" id="DejaVuSans-74"/>
      <path d="M 30.609375 48.390625 
Q 23.390625 48.390625 19.1875 42.75 
Q 14.984375 37.109375 14.984375 27.296875 
Q 14.984375 17.484375 19.15625 11.84375 
Q 23.34375 6.203125 30.609375 6.203125 
Q 37.796875 6.203125 41.984375 11.859375 
Q 46.1875 17.53125 46.1875 27.296875 
Q 46.1875 37.015625 41.984375 42.703125 
Q 37.796875 48.390625 30.609375 48.390625 
z
M 30.609375 56 
Q 42.328125 56 49.015625 48.375 
Q 55.71875 40.765625 55.71875 27.296875 
Q 55.71875 13.875 49.015625 6.21875 
Q 42.328125 -1.421875 30.609375 -1.421875 
Q 18.84375 -1.421875 12.171875 6.21875 
Q 5.515625 13.875 5.515625 27.296875 
Q 5.515625 40.765625 12.171875 48.375 
Q 18.84375 56 30.609375 56 
z
" id="DejaVuSans-6f"/>
      <path d="M 34.28125 27.484375 
Q 23.390625 27.484375 19.1875 25 
Q 14.984375 22.515625 14.984375 16.5 
Q 14.984375 11.71875 18.140625 8.90625 
Q 21.296875 6.109375 26.703125 6.109375 
Q 34.1875 6.109375 38.703125 11.40625 
Q 43.21875 16.703125 43.21875 25.484375 
L 43.21875 27.484375 
z
M 52.203125 31.203125 
L 52.203125 0 
L 43.21875 0 
L 43.21875 8.296875 
Q 40.140625 3.328125 35.546875 0.953125 
Q 30.953125 -1.421875 24.3125 -1.421875 
Q 15.921875 -1.421875 10.953125 3.296875 
Q 6 8.015625 6 15.921875 
Q 6 25.140625 12.171875 29.828125 
Q 18.359375 34.515625 30.609375 34.515625 
L 43.21875 34.515625 
L 43.21875 35.40625 
Q 43.21875 41.609375 39.140625 45 
Q 35.0625 48.390625 27.6875 48.390625 
Q 23 48.390625 18.546875 47.265625 
Q 14.109375 46.140625 10.015625 43.890625 
L 10.015625 52.203125 
Q 14.9375 54.109375 19.578125 55.046875 
Q 24.21875 56 28.609375 56 
Q 40.484375 56 46.34375 49.84375 
Q 52.203125 43.703125 52.203125 31.203125 
z
" id="DejaVuSans-61"/>
      <path d="M 9.421875 75.984375 
L 18.40625 75.984375 
L 18.40625 0 
L 9.421875 0 
z
" id="DejaVuSans-6c"/>
      <path d="M 30.078125 31.34375 
L 16.3125 -13.1875 
L 8.015625 -13.1875 
L 21.78125 31.34375 
L 8.015625 75.875 
L 16.3125 75.875 
z
" id="DejaVuSans-27e9"/>
     </defs>
     <g style="fill:#262626;" transform="translate(20.278438 115.95)rotate(-90)scale(0.1 -0.1)">
      <use transform="translate(0 0.125)" xlink:href="#DejaVuSans-27e8"/>
      <use transform="translate(39.013672 0.125)" xlink:href="#DejaVuSans-Oblique-71"/>
      <use transform="translate(102.490234 -16.28125)scale(0.7)" xlink:href="#DejaVuSans-74"/>
      <use transform="translate(129.936523 -16.28125)scale(0.7)" xlink:href="#DejaVuSans-6f"/>
      <use transform="translate(172.763672 -16.28125)scale(0.7)" xlink:href="#DejaVuSans-74"/>
      <use transform="translate(200.209961 -16.28125)scale(0.7)" xlink:href="#DejaVuSans-61"/>
      <use transform="translate(243.105469 -16.28125)scale(0.7)" xlink:href="#DejaVuSans-6c"/>
      <use transform="translate(265.288086 0.125)" xlink:href="#DejaVuSans-27e9"/>
     </g>
    </g>
   </g>
   <g id="PolyCollection_1">
    <defs>
     <path d="M 51.995455 -183.480179 
L 51.995455 -108.42068 
L 53.438545 -107.837114 
L 54.881636 -107.198176 
L 56.324727 -106.495784 
L 57.767818 -105.720352 
L 59.210909 -104.860906 
L 60.654 -103.905419 
L 62.097091 -102.841431 
L 63.540182 -101.657082 
L 64.983273 -100.342616 
L 66.426364 -98.892375 
L 67.869455 -97.307135 
L 69.312545 -95.596459 
L 70.755636 -93.780501 
L 72.198727 -91.890647 
L 73.641818 -89.968447 
L 75.084909 -88.062652 
L 76.528 -86.224724 
L 77.971091 -84.503654 
L 79.414182 -82.941197 
L 80.857273 -81.568464 
L 82.300364 -80.40439 
L 83.743455 -79.456038 
L 85.186545 -78.720277 
L 86.629636 -78.186216 
L 88.072727 -77.837776 
L 89.515818 -77.655987 
L 90.958909 -77.620761 
L 92.402 -77.712079 
L 93.845091 -77.910637 
L 95.288182 -78.198069 
L 96.731273 -78.556869 
L 98.174364 -78.970147 
L 99.617455 -79.421324 
L 101.060545 -79.893826 
L 102.503636 -80.370798 
L 103.946727 -80.834841 
L 105.389818 -81.267765 
L 106.832909 -81.650401 
L 108.276 -81.962526 
L 109.719091 -82.182985 
L 111.162182 -82.290032 
L 112.605273 -82.261873 
L 114.048364 -82.07734 
L 115.491455 -81.716554 
L 116.934545 -81.161491 
L 118.377636 -80.396458 
L 119.820727 -79.408829 
L 121.263818 -78.19082 
L 122.706909 -76.743043 
L 124.15 -75.079543 
L 125.593091 -73.231947 
L 127.036182 -71.24935 
L 128.479273 -69.192435 
L 129.922364 -67.124027 
L 131.365455 -65.100177 
L 132.808545 -63.164699 
L 134.251636 -61.347612 
L 135.694727 -59.666371 
L 137.137818 -58.128438 
L 138.580909 -56.734074 
L 140.024 -55.478801 
L 141.467091 -54.355288 
L 142.910182 -53.354684 
L 144.353273 -52.467491 
L 145.796364 -51.684105 
L 147.239455 -50.995131 
L 148.682545 -50.391562 
L 150.125636 -49.864879 
L 151.568727 -49.407103 
L 153.011818 -49.010827 
L 154.454909 -48.669225 
L 155.898 -48.376046 
L 157.341091 -48.125594 
L 158.784182 -47.912694 
L 160.227273 -47.732647 
L 161.670364 -47.581188 
L 163.113455 -47.454451 
L 164.556545 -47.348947 
L 165.999636 -47.261548 
L 167.442727 -47.189474 
L 168.885818 -47.130283 
L 170.328909 -47.081856 
L 171.772 -47.04237 
L 173.215091 -47.010275 
L 174.658182 -46.984263 
L 176.101273 -46.963238 
L 177.544364 -46.946286 
L 178.987455 -46.932647 
L 180.430545 -46.921696 
L 181.873636 -46.91292 
L 183.316727 -46.905896 
L 184.759818 -46.900283 
L 186.202909 -46.895802 
L 187.646 -46.892229 
L 189.089091 -46.88938 
L 190.532182 -46.887112 
L 191.975273 -46.885306 
L 193.418364 -46.88387 
L 194.861455 -46.882727 
L 196.304545 -46.881818 
L 196.304545 -113.118953 
L 196.304545 -113.118953 
L 194.861455 -113.118152 
L 193.418364 -113.117145 
L 191.975273 -113.115879 
L 190.532182 -113.114288 
L 189.089091 -113.11229 
L 187.646 -113.109782 
L 186.202909 -113.106637 
L 184.759818 -113.102696 
L 183.316727 -113.097763 
L 181.873636 -113.091595 
L 180.430545 -113.083895 
L 178.987455 -113.0743 
L 177.544364 -113.062368 
L 176.101273 -113.047564 
L 174.658182 -113.029243 
L 173.215091 -113.006636 
L 171.772 -112.978827 
L 170.328909 -112.944735 
L 168.885818 -112.903097 
L 167.442727 -112.852452 
L 165.999636 -112.791134 
L 164.556545 -112.71727 
L 163.113455 -112.628799 
L 161.670364 -112.523492 
L 160.227273 -112.398992 
L 158.784182 -112.252853 
L 157.341091 -112.082593 
L 155.898 -111.885744 
L 154.454909 -111.659924 
L 153.011818 -111.402929 
L 151.568727 -111.112862 
L 150.125636 -110.788315 
L 148.682545 -110.428598 
L 147.239455 -110.034034 
L 145.796364 -109.60631 
L 144.353273 -109.148887 
L 142.910182 -108.667482 
L 141.467091 -108.170621 
L 140.024 -107.670272 
L 138.580909 -107.182575 
L 137.137818 -106.728655 
L 135.694727 -106.335492 
L 134.251636 -106.03676 
L 132.808545 -105.873423 
L 131.365455 -105.893716 
L 129.922364 -106.151853 
L 128.479273 -106.704573 
L 127.036182 -107.604597 
L 125.593091 -108.890786 
L 124.15 -110.576717 
L 122.706909 -112.641764 
L 121.263818 -115.029501 
L 119.820727 -117.655378 
L 118.377636 -120.420872 
L 116.934545 -123.228657 
L 115.491455 -125.994344 
L 114.048364 -128.653034 
L 112.605273 -131.161077 
L 111.162182 -133.494412 
L 109.719091 -135.644999 
L 108.276 -137.61661 
L 106.832909 -139.42086 
L 105.389818 -141.073928 
L 103.946727 -142.594138 
L 102.503636 -144.000323 
L 101.060545 -145.310882 
L 99.617455 -146.543371 
L 98.174364 -147.714504 
L 96.731273 -148.840424 
L 95.288182 -149.937108 
L 93.845091 -151.020775 
L 92.402 -152.108196 
L 90.958909 -153.216855 
L 89.515818 -154.364878 
L 88.072727 -155.570708 
L 86.629636 -156.852414 
L 85.186545 -158.226588 
L 83.743455 -159.706759 
L 82.300364 -161.301369 
L 80.857273 -163.011477 
L 79.414182 -164.828582 
L 77.971091 -166.733111 
L 76.528 -168.694199 
L 75.084909 -170.671229 
L 73.641818 -172.617194 
L 72.198727 -174.483418 
L 70.755636 -176.224718 
L 69.312545 -177.803915 
L 67.869455 -179.194829 
L 66.426364 -180.383393 
L 64.983273 -181.36701 
L 63.540182 -182.152676 
L 62.097091 -182.754472 
L 60.654 -183.190991 
L 59.210909 -183.483062 
L 57.767818 -183.651965 
L 56.324727 -183.718182 
L 54.881636 -183.700634 
L 53.438545 -183.616313 
L 51.995455 -183.480179 
z
" id="mfa577ce4bb" style="stroke:#ffffff;stroke-opacity:0.05;"/>
    </defs>
    <g clip-path="url(#pc1f512708c)">
     <use style="fill:#12711c;fill-opacity:0.05;stroke:#ffffff;stroke-opacity:0.05;" x="0" xlink:href="#mfa577ce4bb" y="216"/>
    </g>
   </g>
   <g id="line2d_12">
    <path clip-path="url(#pc1f512708c)" d="M 51.995455 70.04957 
L 53.438545 70.273286 
L 54.881636 70.550595 
L 56.324727 70.893017 
L 57.767818 71.313842 
L 59.210909 71.828016 
L 60.654 72.451795 
L 62.097091 73.202049 
L 63.540182 74.095121 
L 64.983273 75.145187 
L 66.426364 76.362116 
L 67.869455 77.749018 
L 69.312545 79.299813 
L 70.755636 80.997391 
L 72.198727 82.812967 
L 73.641818 84.707179 
L 75.084909 86.633059 
L 76.528 88.540539 
L 77.971091 90.381618 
L 79.414182 92.115111 
L 80.857273 93.71003 
L 82.300364 95.14712 
L 83.743455 96.418601 
L 85.186545 97.526567 
L 86.629636 98.480685 
L 88.072727 99.295758 
L 89.515818 99.989567 
L 90.958909 100.581192 
L 92.402 101.089863 
L 93.845091 101.534294 
L 95.288182 101.932411 
L 96.731273 102.301354 
L 98.174364 102.657675 
L 99.617455 103.017652 
L 101.060545 103.397646 
L 102.503636 103.81444 
L 103.946727 104.285511 
L 105.389818 104.829153 
L 106.832909 105.46437 
L 108.276 106.210432 
L 109.719091 107.086008 
L 111.162182 108.107778 
L 112.605273 109.288525 
L 114.048364 110.634813 
L 115.491455 112.144551 
L 116.934545 113.804926 
L 118.377636 115.591335 
L 119.820727 117.467896 
L 121.263818 119.389839 
L 122.706909 121.307596 
L 124.15 123.17187 
L 125.593091 124.938634 
L 127.036182 126.573027 
L 128.479273 128.051496 
L 129.922364 129.36206 
L 131.365455 130.503053 
L 132.808545 131.480939 
L 134.251636 132.307814 
L 135.694727 132.999068 
L 137.137818 133.571454 
L 138.580909 134.041675 
L 140.024 134.425463 
L 141.467091 134.737045 
L 142.910182 134.988917 
L 144.353273 135.191811 
L 145.796364 135.354793 
L 147.239455 135.485418 
L 148.682545 135.58992 
L 150.125636 135.673403 
L 151.568727 135.740017 
L 153.011818 135.793122 
L 154.454909 135.835425 
L 155.898 135.869105 
L 157.341091 135.895906 
L 158.784182 135.917226 
L 160.227273 135.934181 
L 161.670364 135.94766 
L 163.113455 135.958375 
L 164.556545 135.966891 
L 165.999636 135.973659 
L 167.442727 135.979037 
L 168.885818 135.98331 
L 170.328909 135.986705 
L 171.772 135.989402 
L 173.215091 135.991544 
L 174.658182 135.993247 
L 176.101273 135.994599 
L 177.544364 135.995673 
L 178.987455 135.996526 
L 180.430545 135.997204 
L 181.873636 135.997743 
L 183.316727 135.99817 
L 184.759818 135.99851 
L 186.202909 135.99878 
L 187.646 135.998994 
L 189.089091 135.999165 
L 190.532182 135.9993 
L 191.975273 135.999408 
L 193.418364 135.999493 
L 194.861455 135.999561 
L 196.304545 135.999614 
" style="fill:none;opacity:0.9;stroke:#12711c;stroke-linecap:round;stroke-width:1.5;"/>
   </g>
   <g id="line2d_13">
    <path clip-path="url(#pc1f512708c)" d="M 51.995455 78.672602 
L 53.438545 80.314096 
L 54.881636 82.085589 
L 56.324727 83.951429 
L 57.767818 85.866965 
L 59.210909 87.78252 
L 60.654 89.648417 
L 62.097091 91.420006 
L 63.540182 93.061642 
L 64.983273 94.548938 
L 66.426364 95.86914 
L 67.869455 97.019939 
L 69.312545 98.007325 
L 70.755636 98.843095 
L 72.198727 99.542486 
L 73.641818 100.122219 
L 75.084909 100.599056 
L 76.528 100.988845 
L 77.971091 101.30597 
L 79.414182 101.563112 
L 80.857273 101.771214 
L 82.300364 101.939569 
L 83.743455 102.075986 
L 85.186545 102.186988 
L 86.629636 102.27801 
L 88.072727 102.353592 
L 89.515818 102.417565 
L 90.958909 102.473208 
L 92.402 102.523399 
L 93.845091 102.57075 
L 95.288182 102.617735 
L 96.731273 102.666809 
L 98.174364 102.720528 
L 99.617455 102.781679 
L 101.060545 102.853404 
L 102.503636 102.939353 
L 103.946727 103.043835 
L 105.389818 103.171996 
L 106.832909 103.330012 
L 108.276 103.525285 
L 109.719091 103.766644 
L 111.162182 104.064523 
L 112.605273 104.431077 
L 114.048364 104.880194 
L 115.491455 105.427326 
L 116.934545 106.089039 
L 118.377636 106.882194 
L 119.820727 107.822657 
L 121.263818 108.92349 
L 122.706909 110.192689 
L 124.15 111.630687 
L 125.593091 113.228044 
L 127.036182 114.963903 
L 128.479273 116.80585 
L 129.922364 118.711587 
L 131.365455 120.632446 
L 132.808545 122.518202 
L 134.251636 124.322213 
L 135.694727 126.005803 
L 137.137818 127.541084 
L 138.580909 128.911866 
L 140.024 130.11289 
L 141.467091 131.1479 
L 142.910182 132.027193 
L 144.353273 132.765176 
L 145.796364 133.37827 
L 147.239455 133.883305 
L 148.682545 134.296428 
L 150.125636 134.632435 
L 151.568727 134.904451 
L 153.011818 135.123833 
L 154.454909 135.300228 
L 155.898 135.441712 
L 157.341091 135.554972 
L 158.784182 135.645495 
L 160.227273 135.717755 
L 161.670364 135.775379 
L 163.113455 135.821294 
L 164.556545 135.857856 
L 165.999636 135.886956 
L 167.442727 135.910107 
L 168.885818 135.92852 
L 170.328909 135.94316 
L 171.772 135.954798 
L 173.215091 135.964048 
L 174.658182 135.9714 
L 176.101273 135.977242 
L 177.544364 135.981883 
L 178.987455 135.985571 
L 180.430545 135.988501 
L 181.873636 135.990829 
L 183.316727 135.992679 
L 184.759818 135.994148 
L 186.202909 135.995315 
L 187.646 135.996242 
L 189.089091 135.996978 
L 190.532182 135.997563 
L 191.975273 135.998028 
L 193.418364 135.998397 
L 194.861455 135.99869 
L 196.304545 135.998923 
" style="fill:none;opacity:0.7;stroke:#000000;stroke-linecap:round;stroke-width:1.5;"/>
   </g>
   <g id="line2d_14">
    <path clip-path="url(#pc1f512708c)" d="M 51.995455 32.519821 
L 53.438545 32.383687 
L 54.881636 32.299366 
L 56.324727 32.281818 
L 57.767818 32.348035 
L 59.210909 32.516938 
L 60.654 32.809009 
L 62.097091 33.245528 
L 63.540182 33.847324 
L 64.983273 34.63299 
L 66.426364 35.616607 
L 67.869455 36.805171 
L 69.312545 38.196085 
L 70.755636 39.775282 
L 72.198727 41.516582 
L 73.641818 43.382806 
L 75.084909 45.328771 
L 76.528 47.305801 
L 77.971091 49.266889 
L 79.414182 51.171418 
L 80.857273 52.988523 
L 82.300364 54.698631 
L 83.743455 56.293241 
L 85.186545 57.773412 
L 86.629636 59.147586 
L 88.072727 60.429292 
L 89.515818 61.635122 
L 90.958909 62.783145 
L 92.402 63.891804 
L 93.845091 64.979225 
L 95.288182 66.062892 
L 96.731273 67.159576 
L 98.174364 68.285496 
L 99.617455 69.456629 
L 101.060545 70.689118 
L 102.503636 71.999677 
L 103.946727 73.405862 
L 105.389818 74.926072 
L 106.832909 76.57914 
L 108.276 78.38339 
L 109.719091 80.355001 
L 111.162182 82.505588 
L 112.605273 84.838923 
L 114.048364 87.346966 
L 115.491455 90.005656 
L 116.934545 92.771343 
L 118.377636 95.579128 
L 119.820727 98.344622 
L 121.263818 100.970499 
L 122.706909 103.358236 
L 124.15 105.423283 
L 125.593091 107.109214 
L 127.036182 108.395403 
L 128.479273 109.295427 
L 129.922364 109.848147 
L 131.365455 110.106284 
L 132.808545 110.126577 
L 134.251636 109.96324 
L 135.694727 109.664508 
L 137.137818 109.271345 
L 138.580909 108.817425 
L 140.024 108.329728 
L 141.467091 107.829379 
L 142.910182 107.332518 
L 144.353273 106.851113 
L 145.796364 106.39369 
L 147.239455 105.965966 
L 148.682545 105.571402 
L 150.125636 105.211685 
L 151.568727 104.887138 
L 153.011818 104.597071 
L 154.454909 104.340076 
L 155.898 104.114256 
L 157.341091 103.917407 
L 158.784182 103.747147 
L 160.227273 103.601008 
L 161.670364 103.476508 
L 163.113455 103.371201 
L 164.556545 103.28273 
L 165.999636 103.208866 
L 167.442727 103.147548 
L 168.885818 103.096903 
L 170.328909 103.055265 
L 171.772 103.021173 
L 173.215091 102.993364 
L 174.658182 102.970757 
L 176.101273 102.952436 
L 177.544364 102.937632 
L 178.987455 102.9257 
L 180.430545 102.916105 
L 181.873636 102.908405 
L 183.316727 102.902237 
L 184.759818 102.897304 
L 186.202909 102.893363 
L 187.646 102.890218 
L 189.089091 102.88771 
L 190.532182 102.885712 
L 191.975273 102.884121 
L 193.418364 102.882855 
L 194.861455 102.881848 
L 196.304545 102.881047 
" style="fill:none;opacity:0.45;stroke:#12711c;stroke-dasharray:2.775,1.2;stroke-dashoffset:0;stroke-width:0.75;"/>
   </g>
   <g id="line2d_15">
    <path clip-path="url(#pc1f512708c)" d="M 51.995455 107.57932 
L 53.438545 108.162886 
L 54.881636 108.801824 
L 56.324727 109.504216 
L 57.767818 110.279648 
L 59.210909 111.139094 
L 60.654 112.094581 
L 62.097091 113.158569 
L 63.540182 114.342918 
L 64.983273 115.657384 
L 66.426364 117.107625 
L 67.869455 118.692865 
L 69.312545 120.403541 
L 70.755636 122.219499 
L 72.198727 124.109353 
L 73.641818 126.031553 
L 75.084909 127.937348 
L 76.528 129.775276 
L 77.971091 131.496346 
L 79.414182 133.058803 
L 80.857273 134.431536 
L 82.300364 135.59561 
L 83.743455 136.543962 
L 85.186545 137.279723 
L 86.629636 137.813784 
L 88.072727 138.162224 
L 89.515818 138.344013 
L 90.958909 138.379239 
L 92.402 138.287921 
L 93.845091 138.089363 
L 95.288182 137.801931 
L 96.731273 137.443131 
L 98.174364 137.029853 
L 99.617455 136.578676 
L 101.060545 136.106174 
L 102.503636 135.629202 
L 103.946727 135.165159 
L 105.389818 134.732235 
L 106.832909 134.349599 
L 108.276 134.037474 
L 109.719091 133.817015 
L 111.162182 133.709968 
L 112.605273 133.738127 
L 114.048364 133.92266 
L 115.491455 134.283446 
L 116.934545 134.838509 
L 118.377636 135.603542 
L 119.820727 136.591171 
L 121.263818 137.80918 
L 122.706909 139.256957 
L 124.15 140.920457 
L 125.593091 142.768053 
L 127.036182 144.75065 
L 128.479273 146.807565 
L 129.922364 148.875973 
L 131.365455 150.899823 
L 132.808545 152.835301 
L 134.251636 154.652388 
L 135.694727 156.333629 
L 137.137818 157.871562 
L 138.580909 159.265926 
L 140.024 160.521199 
L 141.467091 161.644712 
L 142.910182 162.645316 
L 144.353273 163.532509 
L 145.796364 164.315895 
L 147.239455 165.004869 
L 148.682545 165.608438 
L 150.125636 166.135121 
L 151.568727 166.592897 
L 153.011818 166.989173 
L 154.454909 167.330775 
L 155.898 167.623954 
L 157.341091 167.874406 
L 158.784182 168.087306 
L 160.227273 168.267353 
L 161.670364 168.418812 
L 163.113455 168.545549 
L 164.556545 168.651053 
L 165.999636 168.738452 
L 167.442727 168.810526 
L 168.885818 168.869717 
L 170.328909 168.918144 
L 171.772 168.95763 
L 173.215091 168.989725 
L 174.658182 169.015737 
L 176.101273 169.036762 
L 177.544364 169.053714 
L 178.987455 169.067353 
L 180.430545 169.078304 
L 181.873636 169.08708 
L 183.316727 169.094104 
L 184.759818 169.099717 
L 186.202909 169.104198 
L 187.646 169.107771 
L 189.089091 169.11062 
L 190.532182 169.112888 
L 191.975273 169.114694 
L 193.418364 169.11613 
L 194.861455 169.117273 
L 196.304545 169.118182 
" style="fill:none;opacity:0.45;stroke:#12711c;stroke-dasharray:2.775,1.2;stroke-dashoffset:0;stroke-width:0.75;"/>
   </g>
   <g id="patch_3">
    <path d="M 44.78 175.96 
L 44.78 25.44 
" style="fill:none;stroke:#262626;stroke-linecap:square;stroke-linejoin:miter;stroke-width:0.8;"/>
   </g>
   <g id="patch_4">
    <path d="M 44.78 175.96 
L 203.52 175.96 
" style="fill:none;stroke:#262626;stroke-linecap:square;stroke-linejoin:miter;stroke-width:0.8;"/>
   </g>
   <g id="text_14">
    <!-- Epik-scan SM22 -->
    <defs>
     <path d="M 7.90625 0 
L 7.90625 71.578125 
L 59.671875 71.578125 
L 59.671875 63.140625 
L 17.390625 63.140625 
L 17.390625 41.21875 
L 56.984375 41.21875 
L 56.984375 32.8125 
L 17.390625 32.8125 
L 17.390625 8.453125 
L 61.328125 8.453125 
L 61.328125 0 
z
" id="ArialMT-45"/>
     <path d="M 6.640625 61.46875 
L 6.640625 71.578125 
L 15.4375 71.578125 
L 15.4375 61.46875 
z
M 6.640625 0 
L 6.640625 51.859375 
L 15.4375 51.859375 
L 15.4375 0 
z
" id="ArialMT-69"/>
     <path d="M 6.640625 0 
L 6.640625 71.578125 
L 15.4375 71.578125 
L 15.4375 30.765625 
L 36.234375 51.859375 
L 47.609375 51.859375 
L 27.78125 32.625 
L 49.609375 0 
L 38.765625 0 
L 21.625 26.515625 
L 15.4375 20.5625 
L 15.4375 0 
z
" id="ArialMT-6b"/>
     <path d="M 3.171875 21.484375 
L 3.171875 30.328125 
L 30.171875 30.328125 
L 30.171875 21.484375 
z
" id="ArialMT-2d"/>
     <path d="M 3.078125 15.484375 
L 11.765625 16.84375 
Q 12.5 11.625 15.84375 8.84375 
Q 19.1875 6.0625 25.203125 6.0625 
Q 31.25 6.0625 34.171875 8.515625 
Q 37.109375 10.984375 37.109375 14.3125 
Q 37.109375 17.28125 34.515625 19 
Q 32.71875 20.171875 25.53125 21.96875 
Q 15.875 24.421875 12.140625 26.203125 
Q 8.40625 27.984375 6.46875 31.125 
Q 4.546875 34.28125 4.546875 38.09375 
Q 4.546875 41.546875 6.125 44.5 
Q 7.71875 47.46875 10.453125 49.421875 
Q 12.5 50.921875 16.03125 51.96875 
Q 19.578125 53.03125 23.640625 53.03125 
Q 29.734375 53.03125 34.34375 51.265625 
Q 38.96875 49.515625 41.15625 46.5 
Q 43.359375 43.5 44.1875 38.484375 
L 35.59375 37.3125 
Q 35.015625 41.3125 32.203125 43.546875 
Q 29.390625 45.796875 24.265625 45.796875 
Q 18.21875 45.796875 15.625 43.796875 
Q 13.03125 41.796875 13.03125 39.109375 
Q 13.03125 37.40625 14.109375 36.03125 
Q 15.1875 34.625 17.484375 33.6875 
Q 18.796875 33.203125 25.25 31.453125 
Q 34.578125 28.953125 38.25 27.359375 
Q 41.9375 25.78125 44.03125 22.75 
Q 46.140625 19.734375 46.140625 15.234375 
Q 46.140625 10.84375 43.578125 6.953125 
Q 41.015625 3.078125 36.171875 0.953125 
Q 31.34375 -1.171875 25.25 -1.171875 
Q 15.140625 -1.171875 9.84375 3.03125 
Q 4.546875 7.234375 3.078125 15.484375 
z
" id="ArialMT-73"/>
     <path d="M 40.4375 19 
L 49.078125 17.875 
Q 47.65625 8.9375 41.8125 3.875 
Q 35.984375 -1.171875 27.484375 -1.171875 
Q 16.84375 -1.171875 10.375 5.78125 
Q 3.90625 12.75 3.90625 25.734375 
Q 3.90625 34.125 6.6875 40.421875 
Q 9.46875 46.734375 15.15625 49.875 
Q 20.84375 53.03125 27.546875 53.03125 
Q 35.984375 53.03125 41.359375 48.75 
Q 46.734375 44.484375 48.25 36.625 
L 39.703125 35.296875 
Q 38.484375 40.53125 35.375 43.15625 
Q 32.28125 45.796875 27.875 45.796875 
Q 21.234375 45.796875 17.078125 41.03125 
Q 12.9375 36.28125 12.9375 25.984375 
Q 12.9375 15.53125 16.9375 10.796875 
Q 20.953125 6.0625 27.390625 6.0625 
Q 32.5625 6.0625 36.03125 9.234375 
Q 39.5 12.40625 40.4375 19 
z
" id="ArialMT-63"/>
     <path d="M 40.4375 6.390625 
Q 35.546875 2.25 31.03125 0.53125 
Q 26.515625 -1.171875 21.34375 -1.171875 
Q 12.796875 -1.171875 8.203125 3 
Q 3.609375 7.171875 3.609375 13.671875 
Q 3.609375 17.484375 5.34375 20.625 
Q 7.078125 23.78125 9.890625 25.6875 
Q 12.703125 27.59375 16.21875 28.5625 
Q 18.796875 29.25 24.03125 29.890625 
Q 34.671875 31.15625 39.703125 32.90625 
Q 39.75 34.71875 39.75 35.203125 
Q 39.75 40.578125 37.25 42.78125 
Q 33.890625 45.75 27.25 45.75 
Q 21.046875 45.75 18.09375 43.578125 
Q 15.140625 41.40625 13.71875 35.890625 
L 5.125 37.0625 
Q 6.296875 42.578125 8.984375 45.96875 
Q 11.671875 49.359375 16.75 51.1875 
Q 21.828125 53.03125 28.515625 53.03125 
Q 35.15625 53.03125 39.296875 51.46875 
Q 43.453125 49.90625 45.40625 47.53125 
Q 47.359375 45.171875 48.140625 41.546875 
Q 48.578125 39.3125 48.578125 33.453125 
L 48.578125 21.734375 
Q 48.578125 9.46875 49.140625 6.21875 
Q 49.703125 2.984375 51.375 0 
L 42.1875 0 
Q 40.828125 2.734375 40.4375 6.390625 
z
M 39.703125 26.03125 
Q 34.90625 24.078125 25.34375 22.703125 
Q 19.921875 21.921875 17.671875 20.9375 
Q 15.4375 19.96875 14.203125 18.09375 
Q 12.984375 16.21875 12.984375 13.921875 
Q 12.984375 10.40625 15.640625 8.0625 
Q 18.3125 5.71875 23.4375 5.71875 
Q 28.515625 5.71875 32.46875 7.9375 
Q 36.421875 10.15625 38.28125 14.015625 
Q 39.703125 17 39.703125 22.796875 
z
" id="ArialMT-61"/>
     <path d="M 6.59375 0 
L 6.59375 51.859375 
L 14.5 51.859375 
L 14.5 44.484375 
Q 20.21875 53.03125 31 53.03125 
Q 35.6875 53.03125 39.625 51.34375 
Q 43.5625 49.65625 45.515625 46.921875 
Q 47.46875 44.1875 48.25 40.4375 
Q 48.734375 37.984375 48.734375 31.890625 
L 48.734375 0 
L 39.9375 0 
L 39.9375 31.546875 
Q 39.9375 36.921875 38.90625 39.578125 
Q 37.890625 42.234375 35.28125 43.8125 
Q 32.671875 45.40625 29.15625 45.40625 
Q 23.53125 45.40625 19.453125 41.84375 
Q 15.375 38.28125 15.375 28.328125 
L 15.375 0 
z
" id="ArialMT-6e"/>
     <path id="ArialMT-20"/>
     <path d="M 4.5 23 
L 13.421875 23.78125 
Q 14.0625 18.40625 16.375 14.96875 
Q 18.703125 11.53125 23.578125 9.40625 
Q 28.46875 7.28125 34.578125 7.28125 
Q 39.984375 7.28125 44.140625 8.890625 
Q 48.296875 10.5 50.3125 13.296875 
Q 52.34375 16.109375 52.34375 19.4375 
Q 52.34375 22.796875 50.390625 25.3125 
Q 48.4375 27.828125 43.953125 29.546875 
Q 41.0625 30.671875 31.203125 33.03125 
Q 21.34375 35.40625 17.390625 37.5 
Q 12.25 40.1875 9.734375 44.15625 
Q 7.234375 48.140625 7.234375 53.078125 
Q 7.234375 58.5 10.296875 63.203125 
Q 13.375 67.921875 19.28125 70.359375 
Q 25.203125 72.796875 32.421875 72.796875 
Q 40.375 72.796875 46.453125 70.234375 
Q 52.546875 67.671875 55.8125 62.6875 
Q 59.078125 57.71875 59.328125 51.421875 
L 50.25 50.734375 
Q 49.515625 57.515625 45.28125 60.984375 
Q 41.0625 64.453125 32.8125 64.453125 
Q 24.21875 64.453125 20.28125 61.296875 
Q 16.359375 58.15625 16.359375 53.71875 
Q 16.359375 49.859375 19.140625 47.359375 
Q 21.875 44.875 33.421875 42.265625 
Q 44.96875 39.65625 49.265625 37.703125 
Q 55.515625 34.8125 58.484375 30.390625 
Q 61.46875 25.984375 61.46875 20.21875 
Q 61.46875 14.5 58.203125 9.4375 
Q 54.9375 4.390625 48.796875 1.578125 
Q 42.671875 -1.21875 35.015625 -1.21875 
Q 25.296875 -1.21875 18.71875 1.609375 
Q 12.15625 4.4375 8.421875 10.125 
Q 4.6875 15.828125 4.5 23 
z
" id="ArialMT-53"/>
     <path d="M 7.421875 0 
L 7.421875 71.578125 
L 21.6875 71.578125 
L 38.625 20.90625 
Q 40.96875 13.8125 42.046875 10.296875 
Q 43.265625 14.203125 45.84375 21.78125 
L 62.984375 71.578125 
L 75.734375 71.578125 
L 75.734375 0 
L 66.609375 0 
L 66.609375 59.90625 
L 45.796875 0 
L 37.25 0 
L 16.546875 60.9375 
L 16.546875 0 
z
" id="ArialMT-4d"/>
    </defs>
    <g style="fill:#262626;" transform="translate(80.467188 19.44)scale(0.12 -0.12)">
     <use xlink:href="#ArialMT-45"/>
     <use x="66.699219" xlink:href="#ArialMT-70"/>
     <use x="122.314453" xlink:href="#ArialMT-69"/>
     <use x="144.53125" xlink:href="#ArialMT-6b"/>
     <use x="194.53125" xlink:href="#ArialMT-2d"/>
     <use x="227.832031" xlink:href="#ArialMT-73"/>
     <use x="277.832031" xlink:href="#ArialMT-63"/>
     <use x="327.832031" xlink:href="#ArialMT-61"/>
     <use x="383.447266" xlink:href="#ArialMT-6e"/>
     <use x="439.0625" xlink:href="#ArialMT-20"/>
     <use x="466.845703" xlink:href="#ArialMT-53"/>
     <use x="533.544922" xlink:href="#ArialMT-4d"/>
     <use x="616.845703" xlink:href="#ArialMT-32"/>
     <use x="672.460938" xlink:href="#ArialMT-32"/>
    </g>
   </g>
  </g>
 </g>
 <defs>
  <clipPath id="pc1f512708c">
   <rect height="150.52" width="158.74" x="44.78" y="25.44"/>
  </clipPath>
 </defs>
</svg>
