<?xml version="1.0" encoding="utf-8" standalone="no"?>
<!DOCTYPE svg PUBLIC "-//W3C//DTD SVG 1.1//EN"
  "http://www.w3.org/Graphics/SVG/1.1/DTD/svg11.dtd">
<!-- Created with matplotlib (http://matplotlib.org/) -->
<svg height="216pt" version="1.1" viewBox="0 0 216 216" width="216pt" xmlns="http://www.w3.org/2000/svg" xmlns:xlink="http://www.w3.org/1999/xlink">
 <defs>
  <style type="text/css">
*{stroke-linecap:butt;stroke-linejoin:round;}
  </style>
 </defs>
 <g id="figure_1">
  <g id="patch_1">
   <path d="M 0 216 
L 216 216 
L 216 0 
L 0 0 
z
" style="fill:#ffffff;"/>
  </g>
  <g id="axes_1">
   <g id="patch_2">
    <path d="M 38.96 175.96 
L 203.52 175.96 
L 203.52 25.44 
L 38.96 25.44 
z
" style="fill:#ffffff;"/>
   </g>
   <g id="matplotlib.axis_1">
    <g id="xtick_1">
     <g id="line2d_1">
      <defs>
       <path d="M 0 0 
L 0 3.5 
" id="m491164813e" style="stroke:#262626;stroke-width:0.8;"/>
      </defs>
      <g>
       <use style="fill:#262626;stroke:#262626;stroke-width:0.8;" x="46.44" xlink:href="#m491164813e" y="175.96"/>
      </g>
     </g>
     <g id="text_1">
      <!-- 2 -->
      <defs>
       <path d="M 50.34375 8.453125 
L 50.34375 0 
L 3.03125 0 
Q 2.9375 3.171875 4.046875 6.109375 
Q 5.859375 10.9375 9.828125 15.625 
Q 13.8125 20.3125 21.34375 26.46875 
Q 33.015625 36.03125 37.109375 41.625 
Q 41.21875 47.21875 41.21875 52.203125 
Q 41.21875 57.421875 37.46875 61 
Q 33.734375 64.59375 27.734375 64.59375 
Q 21.390625 64.59375 17.578125 60.78125 
Q 13.765625 56.984375 13.71875 50.25 
L 4.6875 51.171875 
Q 5.609375 61.28125 11.65625 66.578125 
Q 17.71875 71.875 27.9375 71.875 
Q 38.234375 71.875 44.234375 66.15625 
Q 50.25 60.453125 50.25 52 
Q 50.25 47.703125 48.484375 43.546875 
Q 46.734375 39.40625 42.65625 34.8125 
Q 38.578125 30.21875 29.109375 22.21875 
Q 21.1875 15.578125 18.9375 13.203125 
Q 16.703125 10.84375 15.234375 8.453125 
z
" id="ArialMT-32"/>
      </defs>
      <g style="fill:#262626;" transform="translate(43.659531 190.117812)scale(0.1 -0.1)">
       <use xlink:href="#ArialMT-32"/>
      </g>
     </g>
    </g>
    <g id="xtick_2">
     <g id="line2d_2">
      <g>
       <use style="fill:#262626;stroke:#262626;stroke-width:0.8;" x="76.36" xlink:href="#m491164813e" y="175.96"/>
      </g>
     </g>
     <g id="text_2">
      <!-- 4 -->
      <defs>
       <path d="M 32.328125 0 
L 32.328125 17.140625 
L 1.265625 17.140625 
L 1.265625 25.203125 
L 33.9375 71.578125 
L 41.109375 71.578125 
L 41.109375 25.203125 
L 50.78125 25.203125 
L 50.78125 17.140625 
L 41.109375 17.140625 
L 41.109375 0 
z
M 32.328125 25.203125 
L 32.328125 57.46875 
L 9.90625 25.203125 
z
" id="ArialMT-34"/>
      </defs>
      <g style="fill:#262626;" transform="translate(73.579531 190.117812)scale(0.1 -0.1)">
       <use xlink:href="#ArialMT-34"/>
      </g>
     </g>
    </g>
    <g id="xtick_3">
     <g id="line2d_3">
      <g>
       <use style="fill:#262626;stroke:#262626;stroke-width:0.8;" x="106.28" xlink:href="#m491164813e" y="175.96"/>
      </g>
     </g>
     <g id="text_3">
      <!-- 6 -->
      <defs>
       <path d="M 49.75 54.046875 
L 41.015625 53.375 
Q 39.84375 58.546875 37.703125 60.890625 
Q 34.125 64.65625 28.90625 64.65625 
Q 24.703125 64.65625 21.53125 62.3125 
Q 17.390625 59.28125 14.984375 53.46875 
Q 12.59375 47.65625 12.5 36.921875 
Q 15.671875 41.75 20.265625 44.09375 
Q 24.859375 46.4375 29.890625 46.4375 
Q 38.671875 46.4375 44.84375 39.96875 
Q 51.03125 33.5 51.03125 23.25 
Q 51.03125 16.5 48.125 10.71875 
Q 45.21875 4.9375 40.140625 1.859375 
Q 35.0625 -1.21875 28.609375 -1.21875 
Q 17.625 -1.21875 10.6875 6.859375 
Q 3.765625 14.9375 3.765625 33.5 
Q 3.765625 54.25 11.421875 63.671875 
Q 18.109375 71.875 29.4375 71.875 
Q 37.890625 71.875 43.28125 67.140625 
Q 48.6875 62.40625 49.75 54.046875 
z
M 13.875 23.1875 
Q 13.875 18.65625 15.796875 14.5 
Q 17.71875 10.359375 21.1875 8.171875 
Q 24.65625 6 28.46875 6 
Q 34.03125 6 38.03125 10.484375 
Q 42.046875 14.984375 42.046875 22.703125 
Q 42.046875 30.125 38.078125 34.390625 
Q 34.125 38.671875 28.125 38.671875 
Q 22.171875 38.671875 18.015625 34.390625 
Q 13.875 30.125 13.875 23.1875 
z
" id="ArialMT-36"/>
      </defs>
      <g style="fill:#262626;" transform="translate(103.499531 190.117812)scale(0.1 -0.1)">
       <use xlink:href="#ArialMT-36"/>
      </g>
     </g>
    </g>
    <g id="xtick_4">
     <g id="line2d_4">
      <g>
       <use style="fill:#262626;stroke:#262626;stroke-width:0.8;" x="136.2" xlink:href="#m491164813e" y="175.96"/>
      </g>
     </g>
     <g id="text_4">
      <!-- 8 -->
      <defs>
       <path d="M 17.671875 38.8125 
Q 12.203125 40.828125 9.5625 44.53125 
Q 6.9375 48.25 6.9375 53.421875 
Q 6.9375 61.234375 12.546875 66.546875 
Q 18.171875 71.875 27.484375 71.875 
Q 36.859375 71.875 42.578125 66.421875 
Q 48.296875 60.984375 48.296875 53.171875 
Q 48.296875 48.1875 45.671875 44.5 
Q 43.0625 40.828125 37.75 38.8125 
Q 44.34375 36.671875 47.78125 31.875 
Q 51.21875 27.09375 51.21875 20.453125 
Q 51.21875 11.28125 44.71875 5.03125 
Q 38.234375 -1.21875 27.640625 -1.21875 
Q 17.046875 -1.21875 10.546875 5.046875 
Q 4.046875 11.328125 4.046875 20.703125 
Q 4.046875 27.6875 7.59375 32.390625 
Q 11.140625 37.109375 17.671875 38.8125 
z
M 15.921875 53.71875 
Q 15.921875 48.640625 19.1875 45.40625 
Q 22.46875 42.1875 27.6875 42.1875 
Q 32.765625 42.1875 36.015625 45.375 
Q 39.265625 48.578125 39.265625 53.21875 
Q 39.265625 58.0625 35.90625 61.359375 
Q 32.5625 64.65625 27.59375 64.65625 
Q 22.5625 64.65625 19.234375 61.421875 
Q 15.921875 58.203125 15.921875 53.71875 
z
M 13.09375 20.65625 
Q 13.09375 16.890625 14.875 13.375 
Q 16.65625 9.859375 20.171875 7.921875 
Q 23.6875 6 27.734375 6 
Q 34.03125 6 38.125 10.046875 
Q 42.234375 14.109375 42.234375 20.359375 
Q 42.234375 26.703125 38.015625 30.859375 
Q 33.796875 35.015625 27.4375 35.015625 
Q 21.234375 35.015625 17.15625 30.90625 
Q 13.09375 26.8125 13.09375 20.65625 
z
" id="ArialMT-38"/>
      </defs>
      <g style="fill:#262626;" transform="translate(133.419531 190.117812)scale(0.1 -0.1)">
       <use xlink:href="#ArialMT-38"/>
      </g>
     </g>
    </g>
    <g id="xtick_5">
     <g id="line2d_5">
      <g>
       <use style="fill:#262626;stroke:#262626;stroke-width:0.8;" x="166.12" xlink:href="#m491164813e" y="175.96"/>
      </g>
     </g>
     <g id="text_5">
      <!-- 10 -->
      <defs>
       <path d="M 37.25 0 
L 28.46875 0 
L 28.46875 56 
Q 25.296875 52.984375 20.140625 49.953125 
Q 14.984375 46.921875 10.890625 45.40625 
L 10.890625 53.90625 
Q 18.265625 57.375 23.78125 62.296875 
Q 29.296875 67.234375 31.59375 71.875 
L 37.25 71.875 
z
" id="ArialMT-31"/>
       <path d="M 4.15625 35.296875 
Q 4.15625 48 6.765625 55.734375 
Q 9.375 63.484375 14.515625 67.671875 
Q 19.671875 71.875 27.484375 71.875 
Q 33.25 71.875 37.59375 69.546875 
Q 41.9375 67.234375 44.765625 62.859375 
Q 47.609375 58.5 49.21875 52.21875 
Q 50.828125 45.953125 50.828125 35.296875 
Q 50.828125 22.703125 48.234375 14.96875 
Q 45.65625 7.234375 40.5 3 
Q 35.359375 -1.21875 27.484375 -1.21875 
Q 17.140625 -1.21875 11.234375 6.203125 
Q 4.15625 15.140625 4.15625 35.296875 
z
M 13.1875 35.296875 
Q 13.1875 17.671875 17.3125 11.828125 
Q 21.4375 6 27.484375 6 
Q 33.546875 6 37.671875 11.859375 
Q 41.796875 17.71875 41.796875 35.296875 
Q 41.796875 52.984375 37.671875 58.78125 
Q 33.546875 64.59375 27.390625 64.59375 
Q 21.34375 64.59375 17.71875 59.46875 
Q 13.1875 52.9375 13.1875 35.296875 
z
" id="ArialMT-30"/>
      </defs>
      <g style="fill:#262626;" transform="translate(160.559062 190.117812)scale(0.1 -0.1)">
       <use xlink:href="#ArialMT-31"/>
       <use x="55.615234" xlink:href="#ArialMT-30"/>
      </g>
     </g>
    </g>
    <g id="xtick_6">
     <g id="line2d_6">
      <g>
       <use style="fill:#262626;stroke:#262626;stroke-width:0.8;" x="196.04" xlink:href="#m491164813e" y="175.96"/>
      </g>
     </g>
     <g id="text_6">
      <!-- 12 -->
      <g style="fill:#262626;" transform="translate(190.479062 190.117812)scale(0.1 -0.1)">
       <use xlink:href="#ArialMT-31"/>
       <use x="55.615234" xlink:href="#ArialMT-32"/>
      </g>
     </g>
    </g>
    <g id="text_7">
     <!-- pH -->
     <defs>
      <path d="M 6.59375 -19.875 
L 6.59375 51.859375 
L 14.59375 51.859375 
L 14.59375 45.125 
Q 17.4375 49.078125 21 51.046875 
Q 24.5625 53.03125 29.640625 53.03125 
Q 36.28125 53.03125 41.359375 49.609375 
Q 46.4375 46.1875 49.015625 39.953125 
Q 51.609375 33.734375 51.609375 26.3125 
Q 51.609375 18.359375 48.75 11.984375 
Q 45.90625 5.609375 40.453125 2.21875 
Q 35.015625 -1.171875 29 -1.171875 
Q 24.609375 -1.171875 21.109375 0.6875 
Q 17.625 2.546875 15.375 5.375 
L 15.375 -19.875 
z
M 14.546875 25.640625 
Q 14.546875 15.625 18.59375 10.84375 
Q 22.65625 6.0625 28.421875 6.0625 
Q 34.28125 6.0625 38.453125 11.015625 
Q 42.625 15.96875 42.625 26.375 
Q 42.625 36.28125 38.546875 41.203125 
Q 34.46875 46.140625 28.8125 46.140625 
Q 23.1875 46.140625 18.859375 40.890625 
Q 14.546875 35.640625 14.546875 25.640625 
z
" id="ArialMT-70"/>
      <path d="M 8.015625 0 
L 8.015625 71.578125 
L 17.484375 71.578125 
L 17.484375 42.1875 
L 54.6875 42.1875 
L 54.6875 71.578125 
L 64.15625 71.578125 
L 64.15625 0 
L 54.6875 0 
L 54.6875 33.734375 
L 17.484375 33.734375 
L 17.484375 0 
z
" id="ArialMT-48"/>
     </defs>
     <g style="fill:#262626;" transform="translate(114.848594 203.263125)scale(0.1 -0.1)">
      <use xlink:href="#ArialMT-70"/>
      <use x="55.615234" xlink:href="#ArialMT-48"/>
     </g>
    </g>
   </g>
   <g id="matplotlib.axis_2">
    <g id="ytick_1">
     <g id="line2d_7">
      <defs>
       <path d="M 0 0 
L -3.5 0 
" id="m2b9eb1bf90" style="stroke:#262626;stroke-width:0.8;"/>
      </defs>
      <g>
       <use style="fill:#262626;stroke:#262626;stroke-width:0.8;" x="38.96" xlink:href="#m2b9eb1bf90" y="143.240278"/>
      </g>
     </g>
     <g id="text_8">
      <!-- 0 -->
      <g style="fill:#262626;" transform="translate(26.399063 146.819184)scale(0.1 -0.1)">
       <use xlink:href="#ArialMT-30"/>
      </g>
     </g>
    </g>
    <g id="ytick_2">
     <g id="line2d_8">
      <g>
       <use style="fill:#262626;stroke:#262626;stroke-width:0.8;" x="38.96" xlink:href="#m2b9eb1bf90" y="59.353413"/>
      </g>
     </g>
     <g id="text_9">
      <!-- 1 -->
      <g style="fill:#262626;" transform="translate(26.399063 62.932319)scale(0.1 -0.1)">
       <use xlink:href="#ArialMT-31"/>
      </g>
     </g>
    </g>
    <g id="text_10">
     <!-- $\langle q_\mathsf{total} \rangle$ -->
     <defs>
      <path d="M 8.9375 31.34375 
L 22.703125 75.875 
L 31 75.875 
L 17.234375 31.34375 
L 31 -13.1875 
L 22.703125 -13.1875 
z
" id="DejaVuSans-27e8"/>
      <path d="M 41.703125 8.203125 
Q 38.09375 3.46875 33.171875 1.015625 
Q 28.265625 -1.421875 22.3125 -1.421875 
Q 14.015625 -1.421875 9.296875 4.171875 
Q 4.59375 9.765625 4.59375 19.578125 
Q 4.59375 27.484375 7.5 34.859375 
Q 10.40625 42.234375 15.828125 48.09375 
Q 19.34375 51.90625 23.90625 53.953125 
Q 28.46875 56 33.5 56 
Q 39.546875 56 43.453125 53.609375 
Q 47.359375 51.21875 49.125 46.390625 
L 50.6875 54.59375 
L 59.71875 54.59375 
L 45.125 -20.609375 
L 36.078125 -20.609375 
z
M 13.921875 20.90625 
Q 13.921875 13.671875 16.9375 9.890625 
Q 19.96875 6.109375 25.6875 6.109375 
Q 34.1875 6.109375 40.1875 14.234375 
Q 46.1875 22.359375 46.1875 33.984375 
Q 46.1875 41.015625 43.078125 44.75 
Q 39.984375 48.484375 34.1875 48.484375 
Q 29.9375 48.484375 26.3125 46.5 
Q 22.703125 44.53125 20.015625 40.71875 
Q 17.1875 36.71875 15.546875 31.34375 
Q 13.921875 25.984375 13.921875 20.90625 
z
" id="DejaVuSans-Oblique-71"/>
      <path d="M 18.3125 70.21875 
L 18.3125 54.6875 
L 36.8125 54.6875 
L 36.8125 47.703125 
L 18.3125 47.703125 
L 18.3125 18.015625 
Q 18.3125 11.328125 20.140625 9.421875 
Q 21.96875 7.515625 27.59375 7.515625 
L 36.8125 7.515625 
L 36.8125 0 
L 27.59375 0 
Q 17.1875 0 13.234375 3.875 
Q 9.28125 7.765625 9.28125 18.015625 
L 9.28125 47.703125 
L 2.6875 47.703125 
L 2.6875 54.6875 
L 9.28125 54.6875 
L 9.28125 70.21875 
z
" id="DejaVuSans-74"/>
      <path d="M 30.609375 48.390625 
Q 23.390625 48.390625 19.1875 42.75 
Q 14.984375 37.109375 14.984375 27.296875 
Q 14.984375 17.484375 19.15625 11.84375 
Q 23.34375 6.203125 30.609375 6.203125 
Q 37.796875 6.203125 41.984375 11.859375 
Q 46.1875 17.53125 46.1875 27.296875 
Q 46.1875 37.015625 41.984375 42.703125 
Q 37.796875 48.390625 30.609375 48.390625 
z
M 30.609375 56 
Q 42.328125 56 49.015625 48.375 
Q 55.71875 40.765625 55.71875 27.296875 
Q 55.71875 13.875 49.015625 6.21875 
Q 42.328125 -1.421875 30.609375 -1.421875 
Q 18.84375 -1.421875 12.171875 6.21875 
Q 5.515625 13.875 5.515625 27.296875 
Q 5.515625 40.765625 12.171875 48.375 
Q 18.84375 56 30.609375 56 
z
" id="DejaVuSans-6f"/>
      <path d="M 34.28125 27.484375 
Q 23.390625 27.484375 19.1875 25 
Q 14.984375 22.515625 14.984375 16.5 
Q 14.984375 11.71875 18.140625 8.90625 
Q 21.296875 6.109375 26.703125 6.109375 
Q 34.1875 6.109375 38.703125 11.40625 
Q 43.21875 16.703125 43.21875 25.484375 
L 43.21875 27.484375 
z
M 52.203125 31.203125 
L 52.203125 0 
L 43.21875 0 
L 43.21875 8.296875 
Q 40.140625 3.328125 35.546875 0.953125 
Q 30.953125 -1.421875 24.3125 -1.421875 
Q 15.921875 -1.421875 10.953125 3.296875 
Q 6 8.015625 6 15.921875 
Q 6 25.140625 12.171875 29.828125 
Q 18.359375 34.515625 30.609375 34.515625 
L 43.21875 34.515625 
L 43.21875 35.40625 
Q 43.21875 41.609375 39.140625 45 
Q 35.0625 48.390625 27.6875 48.390625 
Q 23 48.390625 18.546875 47.265625 
Q 14.109375 46.140625 10.015625 43.890625 
L 10.015625 52.203125 
Q 14.9375 54.109375 19.578125 55.046875 
Q 24.21875 56 28.609375 56 
Q 40.484375 56 46.34375 49.84375 
Q 52.203125 43.703125 52.203125 31.203125 
z
" id="DejaVuSans-61"/>
      <path d="M 9.421875 75.984375 
L 18.40625 75.984375 
L 18.40625 0 
L 9.421875 0 
z
" id="DejaVuSans-6c"/>
      <path d="M 30.078125 31.34375 
L 16.3125 -13.1875 
L 8.015625 -13.1875 
L 21.78125 31.34375 
L 8.015625 75.875 
L 16.3125 75.875 
z
" id="DejaVuSans-27e9"/>
     </defs>
     <g style="fill:#262626;" transform="translate(20.299063 115.95)rotate(-90)scale(0.1 -0.1)">
      <use transform="translate(0 0.125)" xlink:href="#DejaVuSans-27e8"/>
      <use transform="translate(39.013672 0.125)" xlink:href="#DejaVuSans-Oblique-71"/>
      <use transform="translate(102.490234 -16.28125)scale(0.7)" xlink:href="#DejaVuSans-74"/>
      <use transform="translate(129.936523 -16.28125)scale(0.7)" xlink:href="#DejaVuSans-6f"/>
      <use transform="translate(172.763672 -16.28125)scale(0.7)" xlink:href="#DejaVuSans-74"/>
      <use transform="translate(200.209961 -16.28125)scale(0.7)" xlink:href="#DejaVuSans-61"/>
      <use transform="translate(243.105469 -16.28125)scale(0.7)" xlink:href="#DejaVuSans-6c"/>
      <use transform="translate(265.288086 0.125)" xlink:href="#DejaVuSans-27e9"/>
     </g>
    </g>
   </g>
   <g id="PolyCollection_1">
    <defs>
     <path d="M 46.44 -164.790577 
L 46.44 -148.292616 
L 47.936 -148.092361 
L 49.432 -147.821353 
L 50.928 -147.460623 
L 52.424 -146.988952 
L 53.92 -146.383742 
L 55.416 -145.622188 
L 56.912 -144.682545 
L 58.408 -143.545262 
L 59.904 -142.19376 
L 61.4 -140.614777 
L 62.896 -138.79829 
L 64.392 -136.737119 
L 65.888 -134.426344 
L 67.384 -131.862686 
L 68.88 -129.043933 
L 70.376 -125.968508 
L 71.872 -122.635172 
L 73.368 -119.042926 
L 74.864 -115.191181 
L 76.36 -111.080404 
L 77.856 -106.713478 
L 79.352 -102.098086 
L 80.848 -97.250233 
L 82.344 -92.198753 
L 83.84 -86.990137 
L 85.336 -81.692525 
L 86.832 -76.397347 
L 88.328 -71.217174 
L 89.824 -66.279059 
L 91.32 -61.713831 
L 92.816 -57.643149 
L 94.312 -54.166965 
L 95.808 -51.354026 
L 97.304 -49.237077 
L 98.8 -47.813101 
L 100.296 -47.047665 
L 101.792 -46.881818 
L 103.288 -47.239893 
L 104.784 -48.036947 
L 106.28 -49.185073 
L 107.776 -50.598293 
L 109.272 -52.196013 
L 110.768 -53.905193 
L 112.264 -55.661411 
L 113.76 -57.408979 
L 115.256 -59.10031 
L 116.752 -60.694729 
L 118.248 -62.157049 
L 119.744 -63.456297 
L 121.24 -64.565249 
L 122.736 -65.46165 
L 124.232 -66.131895 
L 125.728 -66.576649 
L 127.224 -66.815184 
L 128.72 -66.883903 
L 130.216 -66.8282 
L 131.712 -66.692403 
L 133.208 -66.513034 
L 134.704 -66.316724 
L 136.2 -66.121142 
L 137.696 -65.937011 
L 139.192 -65.770114 
L 140.688 -65.622912 
L 142.184 -65.495734 
L 143.68 -65.387614 
L 145.176 -65.296875 
L 146.672 -65.221513 
L 148.168 -65.159453 
L 149.664 -65.1087 
L 151.16 -65.067428 
L 152.656 -65.034019 
L 154.152 -65.007076 
L 155.648 -64.985412 
L 157.144 -64.968037 
L 158.64 -64.954127 
L 160.136 -64.943009 
L 161.632 -64.934134 
L 163.128 -64.927057 
L 164.624 -64.921418 
L 166.12 -64.916927 
L 167.616 -64.913353 
L 169.112 -64.910509 
L 170.608 -64.908248 
L 172.104 -64.90645 
L 173.6 -64.90502 
L 175.096 -64.903884 
L 176.592 -64.902981 
L 178.088 -64.902263 
L 179.584 -64.901693 
L 181.08 -64.90124 
L 182.576 -64.90088 
L 184.072 -64.900594 
L 185.568 -64.900367 
L 187.064 -64.900187 
L 188.56 -64.900043 
L 190.056 -64.89993 
L 191.552 -64.899839 
L 193.048 -64.899767 
L 194.544 -64.89971 
L 196.04 -64.899665 
L 196.04 -80.619793 
L 196.04 -80.619793 
L 194.544 -80.619751 
L 193.048 -80.619698 
L 191.552 -80.619632 
L 190.056 -80.619548 
L 188.56 -80.619443 
L 187.064 -80.619311 
L 185.568 -80.619144 
L 184.072 -80.618934 
L 182.576 -80.61867 
L 181.08 -80.618338 
L 179.584 -80.61792 
L 178.088 -80.617393 
L 176.592 -80.61673 
L 175.096 -80.615897 
L 173.6 -80.614847 
L 172.104 -80.613528 
L 170.608 -80.611867 
L 169.112 -80.60978 
L 167.616 -80.607155 
L 166.12 -80.603856 
L 164.624 -80.599712 
L 163.128 -80.594509 
L 161.632 -80.587981 
L 160.136 -80.579798 
L 158.64 -80.569551 
L 157.144 -80.556737 
L 155.648 -80.540742 
L 154.152 -80.520816 
L 152.656 -80.496059 
L 151.16 -80.465404 
L 149.664 -80.427597 
L 148.168 -80.381207 
L 146.672 -80.32464 
L 145.176 -80.256193 
L 143.68 -80.174157 
L 142.184 -80.076993 
L 140.688 -79.963605 
L 139.192 -79.833762 
L 137.696 -79.688713 
L 136.2 -79.532078 
L 134.704 -79.371099 
L 133.208 -79.218332 
L 131.712 -79.093747 
L 130.216 -79.026869 
L 128.72 -79.05785 
L 127.224 -79.235568 
L 125.728 -79.611125 
L 124.232 -80.228059 
L 122.736 -81.114562 
L 121.24 -82.282421 
L 119.744 -83.731865 
L 118.248 -85.457789 
L 116.752 -87.454157 
L 115.256 -89.716027 
L 113.76 -92.239995 
L 112.264 -95.023881 
L 110.768 -98.06623 
L 109.272 -101.365909 
L 107.776 -104.921902 
L 106.28 -108.733205 
L 104.784 -112.798629 
L 103.288 -117.116169 
L 101.792 -121.681621 
L 100.296 -126.486151 
L 98.8 -131.512742 
L 97.304 -136.731718 
L 95.808 -142.09604 
L 94.312 -147.537474 
L 92.816 -152.965136 
L 91.32 -158.26776 
L 89.824 -163.320407 
L 88.328 -167.99509 
L 86.832 -172.173519 
L 85.336 -175.759313 
L 83.84 -178.687131 
L 82.344 -180.927126 
L 80.848 -182.484486 
L 79.352 -183.394995 
L 77.856 -183.718182 
L 76.36 -183.529616 
L 74.864 -182.913569 
L 73.368 -181.956758 
L 71.872 -180.74352 
L 70.376 -179.352418 
L 68.88 -177.85416 
L 67.384 -176.310556 
L 65.888 -174.774236 
L 64.392 -173.2888 
L 62.896 -171.889174 
L 61.4 -170.601976 
L 59.904 -169.445844 
L 58.408 -168.431767 
L 56.912 -167.563488 
L 55.416 -166.838144 
L 53.92 -166.247206 
L 52.424 -165.77777 
L 50.928 -165.414105 
L 49.432 -165.139267 
L 47.936 -164.936548 
L 46.44 -164.790577 
z
" id="m01ae0a3c03" style="stroke:#ffffff;stroke-opacity:0.05;"/>
    </defs>
    <g clip-path="url(#p3383bf0862)">
     <use style="fill:#12711c;fill-opacity:0.05;stroke:#ffffff;stroke-opacity:0.05;" x="0" xlink:href="#m01ae0a3c03" y="216"/>
    </g>
   </g>
   <g id="line2d_9">
    <path clip-path="url(#p3383bf0862)" d="M 46.44 59.458404 
L 47.936 59.485545 
L 49.432 59.51969 
L 50.928 59.562636 
L 52.424 59.616639 
L 53.92 59.684526 
L 55.416 59.769834 
L 56.912 59.876983 
L 58.408 60.011485 
L 59.904 60.180198 
L 61.4 60.391624 
L 62.896 60.656268 
L 64.392 60.98704 
L 65.888 61.39971 
L 67.384 61.913379 
L 68.88 62.550954 
L 70.376 63.339537 
L 71.872 64.310654 
L 73.368 65.500158 
L 74.864 66.947625 
L 76.36 68.69499 
L 77.856 70.78417 
L 79.352 73.253459 
L 80.848 76.13264 
L 82.344 79.43706 
L 83.84 83.161366 
L 85.336 87.274081 
L 86.832 91.714567 
L 88.328 96.393868 
L 89.824 101.200267 
L 91.32 106.009204 
L 92.816 110.695857 
L 94.312 115.14778 
L 95.808 119.274967 
L 97.304 123.015602 
L 98.8 126.337079 
L 100.296 129.233092 
L 101.792 131.718281 
L 103.288 133.821969 
L 104.784 135.582212 
L 106.28 137.040861 
L 107.776 138.239902 
L 109.272 139.219039 
L 110.768 140.014289 
L 112.264 140.657354 
L 113.76 141.175513 
L 115.256 141.591832 
L 116.752 141.925557 
L 118.248 142.192581 
L 119.744 142.405919 
L 121.24 142.576165 
L 122.736 142.711894 
L 124.232 142.820023 
L 125.728 142.906113 
L 127.224 142.974624 
L 128.72 143.029124 
L 130.216 143.072465 
L 131.712 143.106925 
L 133.208 143.134317 
L 134.704 143.156088 
L 136.2 143.17339 
L 137.696 143.187138 
L 139.192 143.198062 
L 140.688 143.206741 
L 142.184 143.213637 
L 143.68 143.219115 
L 145.176 143.223466 
L 146.672 143.226923 
L 148.168 143.22967 
L 149.664 143.231851 
L 151.16 143.233584 
L 152.656 143.234961 
L 154.152 143.236054 
L 155.648 143.236923 
L 157.144 143.237613 
L 158.64 143.238161 
L 160.136 143.238596 
L 161.632 143.238942 
L 163.128 143.239217 
L 164.624 143.239435 
L 166.12 143.239608 
L 167.616 143.239746 
L 169.112 143.239856 
L 170.608 143.239942 
L 172.104 143.240011 
L 173.6 143.240066 
L 175.096 143.24011 
L 176.592 143.240144 
L 178.088 143.240172 
L 179.584 143.240194 
L 181.08 143.240211 
L 182.576 143.240225 
L 184.072 143.240236 
L 185.568 143.240244 
L 187.064 143.240251 
L 188.56 143.240257 
L 190.056 143.240261 
L 191.552 143.240265 
L 193.048 143.240267 
L 194.544 143.240269 
L 196.04 143.240271 
" style="fill:none;opacity:0.9;stroke:#12711c;stroke-linecap:round;stroke-width:1.5;"/>
   </g>
   <g id="line2d_10">
    <path clip-path="url(#p3383bf0862)" d="M 46.44 64.781439 
L 47.936 66.07429 
L 49.432 67.64254 
L 50.928 69.528474 
L 52.424 71.773002 
L 53.92 74.411507 
L 55.416 77.468472 
L 56.912 80.951298 
L 58.408 84.844218 
L 59.904 89.103684 
L 61.4 93.656799 
L 62.896 98.404095 
L 64.392 103.227048 
L 65.888 107.999386 
L 67.384 112.600041 
L 68.88 116.92499 
L 70.376 120.895644 
L 71.872 124.462587 
L 73.368 127.604791 
L 74.864 130.325484 
L 76.36 132.646241 
L 77.856 134.60073 
L 79.352 136.229129 
L 80.848 137.573718 
L 82.344 138.675754 
L 83.84 139.573512 
L 85.336 140.30124 
L 86.832 140.888772 
L 88.328 141.361579 
L 89.824 141.741069 
L 91.32 142.045021 
L 92.816 142.288061 
L 94.312 142.482135 
L 95.808 142.636942 
L 97.304 142.760321 
L 98.8 142.858586 
L 100.296 142.936805 
L 101.792 142.999041 
L 103.288 143.048543 
L 104.784 143.087906 
L 106.28 143.1192 
L 107.776 143.144073 
L 109.272 143.163842 
L 110.768 143.179551 
L 112.264 143.192034 
L 113.76 143.201952 
L 115.256 143.209831 
L 116.752 143.216092 
L 118.248 143.221065 
L 119.744 143.225016 
L 121.24 143.228154 
L 122.736 143.230648 
L 124.232 143.232628 
L 125.728 143.234201 
L 127.224 143.235451 
L 128.72 143.236444 
L 130.216 143.237232 
L 131.712 143.237859 
L 133.208 143.238356 
L 134.704 143.238751 
L 136.2 143.239065 
L 137.696 143.239315 
L 139.192 143.239513 
L 140.688 143.23967 
L 142.184 143.239795 
L 143.68 143.239894 
L 145.176 143.239973 
L 146.672 143.240036 
L 148.168 143.240086 
L 149.664 143.240125 
L 151.16 143.240157 
L 152.656 143.240182 
L 154.152 143.240201 
L 155.648 143.240217 
L 157.144 143.24023 
L 158.64 143.24024 
L 160.136 143.240247 
L 161.632 143.240254 
L 163.128 143.240259 
L 164.624 143.240263 
L 166.12 143.240266 
L 167.616 143.240268 
L 169.112 143.24027 
L 170.608 143.240272 
L 172.104 143.240273 
L 173.6 143.240274 
L 175.096 143.240275 
L 176.592 143.240275 
L 178.088 143.240276 
L 179.584 143.240276 
L 181.08 143.240277 
L 182.576 143.240277 
L 184.072 143.240277 
L 185.568 143.240277 
L 187.064 143.240277 
L 188.56 143.240278 
L 190.056 143.240278 
L 191.552 143.240278 
L 193.048 143.240278 
L 194.544 143.240278 
L 196.04 143.240278 
" style="fill:none;opacity:0.7;stroke:#000000;stroke-linecap:round;stroke-width:1.5;"/>
   </g>
   <g id="line2d_11">
    <path clip-path="url(#p3383bf0862)" d="M 46.44 51.209423 
L 47.936 51.063452 
L 49.432 50.860733 
L 50.928 50.585895 
L 52.424 50.22223 
L 53.92 49.752794 
L 55.416 49.161856 
L 56.912 48.436512 
L 58.408 47.568233 
L 59.904 46.554156 
L 61.4 45.398024 
L 62.896 44.110826 
L 64.392 42.7112 
L 65.888 41.225764 
L 67.384 39.689444 
L 68.88 38.14584 
L 70.376 36.647582 
L 71.872 35.25648 
L 73.368 34.043242 
L 74.864 33.086431 
L 76.36 32.470384 
L 77.856 32.281818 
L 79.352 32.605005 
L 80.848 33.515514 
L 82.344 35.072874 
L 83.84 37.312869 
L 85.336 40.240687 
L 86.832 43.826481 
L 88.328 48.00491 
L 89.824 52.679593 
L 91.32 57.73224 
L 92.816 63.034864 
L 94.312 68.462526 
L 95.808 73.90396 
L 97.304 79.268282 
L 98.8 84.487258 
L 100.296 89.513849 
L 101.792 94.318379 
L 103.288 98.883831 
L 104.784 103.201371 
L 106.28 107.266795 
L 107.776 111.078098 
L 109.272 114.634091 
L 110.768 117.93377 
L 112.264 120.976119 
L 113.76 123.760005 
L 115.256 126.283973 
L 116.752 128.545843 
L 118.248 130.542211 
L 119.744 132.268135 
L 121.24 133.717579 
L 122.736 134.885438 
L 124.232 135.771941 
L 125.728 136.388875 
L 127.224 136.764432 
L 128.72 136.94215 
L 130.216 136.973131 
L 131.712 136.906253 
L 133.208 136.781668 
L 134.704 136.628901 
L 136.2 136.467922 
L 137.696 136.311287 
L 139.192 136.166238 
L 140.688 136.036395 
L 142.184 135.923007 
L 143.68 135.825843 
L 145.176 135.743807 
L 146.672 135.67536 
L 148.168 135.618793 
L 149.664 135.572403 
L 151.16 135.534596 
L 152.656 135.503941 
L 154.152 135.479184 
L 155.648 135.459258 
L 157.144 135.443263 
L 158.64 135.430449 
L 160.136 135.420202 
L 161.632 135.412019 
L 163.128 135.405491 
L 164.624 135.400288 
L 166.12 135.396144 
L 167.616 135.392845 
L 169.112 135.39022 
L 170.608 135.388133 
L 172.104 135.386472 
L 173.6 135.385153 
L 175.096 135.384103 
L 176.592 135.38327 
L 178.088 135.382607 
L 179.584 135.38208 
L 181.08 135.381662 
L 182.576 135.38133 
L 184.072 135.381066 
L 185.568 135.380856 
L 187.064 135.380689 
L 188.56 135.380557 
L 190.056 135.380452 
L 191.552 135.380368 
L 193.048 135.380302 
L 194.544 135.380249 
L 196.04 135.380207 
" style="fill:none;opacity:0.45;stroke:#12711c;stroke-dasharray:2.775,1.2;stroke-dashoffset:0;stroke-width:0.75;"/>
   </g>
   <g id="line2d_12">
    <path clip-path="url(#p3383bf0862)" d="M 46.44 67.707384 
L 47.936 67.907639 
L 49.432 68.178647 
L 50.928 68.539377 
L 52.424 69.011048 
L 53.92 69.616258 
L 55.416 70.377812 
L 56.912 71.317455 
L 58.408 72.454738 
L 59.904 73.80624 
L 61.4 75.385223 
L 62.896 77.20171 
L 64.392 79.262881 
L 65.888 81.573656 
L 67.384 84.137314 
L 68.88 86.956067 
L 70.376 90.031492 
L 71.872 93.364828 
L 73.368 96.957074 
L 74.864 100.808819 
L 76.36 104.919596 
L 77.856 109.286522 
L 79.352 113.901914 
L 80.848 118.749767 
L 82.344 123.801247 
L 83.84 129.009863 
L 85.336 134.307475 
L 86.832 139.602653 
L 88.328 144.782826 
L 89.824 149.720941 
L 91.32 154.286169 
L 92.816 158.356851 
L 94.312 161.833035 
L 95.808 164.645974 
L 97.304 166.762923 
L 98.8 168.186899 
L 100.296 168.952335 
L 101.792 169.118182 
L 103.288 168.760107 
L 104.784 167.963053 
L 106.28 166.814927 
L 107.776 165.401707 
L 109.272 163.803987 
L 110.768 162.094807 
L 112.264 160.338589 
L 113.76 158.591021 
L 115.256 156.89969 
L 116.752 155.305271 
L 118.248 153.842951 
L 119.744 152.543703 
L 121.24 151.434751 
L 122.736 150.53835 
L 124.232 149.868105 
L 125.728 149.423351 
L 127.224 149.184816 
L 128.72 149.116097 
L 130.216 149.1718 
L 131.712 149.307597 
L 133.208 149.486966 
L 134.704 149.683276 
L 136.2 149.878858 
L 137.696 150.062989 
L 139.192 150.229886 
L 140.688 150.377088 
L 142.184 150.504266 
L 143.68 150.612386 
L 145.176 150.703125 
L 146.672 150.778487 
L 148.168 150.840547 
L 149.664 150.8913 
L 151.16 150.932572 
L 152.656 150.965981 
L 154.152 150.992924 
L 155.648 151.014588 
L 157.144 151.031963 
L 158.64 151.045873 
L 160.136 151.056991 
L 161.632 151.065866 
L 163.128 151.072943 
L 164.624 151.078582 
L 166.12 151.083073 
L 167.616 151.086647 
L 169.112 151.089491 
L 170.608 151.091752 
L 172.104 151.09355 
L 173.6 151.09498 
L 175.096 151.096116 
L 176.592 151.097019 
L 178.088 151.097737 
L 179.584 151.098307 
L 181.08 151.09876 
L 182.576 151.09912 
L 184.072 151.099406 
L 185.568 151.099633 
L 187.064 151.099813 
L 188.56 151.099957 
L 190.056 151.10007 
L 191.552 151.100161 
L 193.048 151.100233 
L 194.544 151.10029 
L 196.04 151.100335 
" style="fill:none;opacity:0.45;stroke:#12711c;stroke-dasharray:2.775,1.2;stroke-dashoffset:0;stroke-width:0.75;"/>
   </g>
   <g id="patch_3">
    <path d="M 38.96 175.96 
L 38.96 25.44 
" style="fill:none;stroke:#262626;stroke-linecap:square;stroke-linejoin:miter;stroke-width:0.8;"/>
   </g>
   <g id="patch_4">
    <path d="M 38.96 175.96 
L 203.52 175.96 
" style="fill:none;stroke:#262626;stroke-linecap:square;stroke-linejoin:miter;stroke-width:0.8;"/>
   </g>
   <g id="text_11">
    <!-- Epik-scan SM17 -->
    <defs>
     <path d="M 7.90625 0 
L 7.90625 71.578125 
L 59.671875 71.578125 
L 59.671875 63.140625 
L 17.390625 63.140625 
L 17.390625 41.21875 
L 56.984375 41.21875 
L 56.984375 32.8125 
L 17.390625 32.8125 
L 17.390625 8.453125 
L 61.328125 8.453125 
L 61.328125 0 
z
" id="ArialMT-45"/>
     <path d="M 6.640625 61.46875 
L 6.640625 71.578125 
L 15.4375 71.578125 
L 15.4375 61.46875 
z
M 6.640625 0 
L 6.640625 51.859375 
L 15.4375 51.859375 
L 15.4375 0 
z
" id="ArialMT-69"/>
     <path d="M 6.640625 0 
L 6.640625 71.578125 
L 15.4375 71.578125 
L 15.4375 30.765625 
L 36.234375 51.859375 
L 47.609375 51.859375 
L 27.78125 32.625 
L 49.609375 0 
L 38.765625 0 
L 21.625 26.515625 
L 15.4375 20.5625 
L 15.4375 0 
z
" id="ArialMT-6b"/>
     <path d="M 3.171875 21.484375 
L 3.171875 30.328125 
L 30.171875 30.328125 
L 30.171875 21.484375 
z
" id="ArialMT-2d"/>
     <path d="M 3.078125 15.484375 
L 11.765625 16.84375 
Q 12.5 11.625 15.84375 8.84375 
Q 19.1875 6.0625 25.203125 6.0625 
Q 31.25 6.0625 34.171875 8.515625 
Q 37.109375 10.984375 37.109375 14.3125 
Q 37.109375 17.28125 34.515625 19 
Q 32.71875 20.171875 25.53125 21.96875 
Q 15.875 24.421875 12.140625 26.203125 
Q 8.40625 27.984375 6.46875 31.125 
Q 4.546875 34.28125 4.546875 38.09375 
Q 4.546875 41.546875 6.125 44.5 
Q 7.71875 47.46875 10.453125 49.421875 
Q 12.5 50.921875 16.03125 51.96875 
Q 19.578125 53.03125 23.640625 53.03125 
Q 29.734375 53.03125 34.34375 51.265625 
Q 38.96875 49.515625 41.15625 46.5 
Q 43.359375 43.5 44.1875 38.484375 
L 35.59375 37.3125 
Q 35.015625 41.3125 32.203125 43.546875 
Q 29.390625 45.796875 24.265625 45.796875 
Q 18.21875 45.796875 15.625 43.796875 
Q 13.03125 41.796875 13.03125 39.109375 
Q 13.03125 37.40625 14.109375 36.03125 
Q 15.1875 34.625 17.484375 33.6875 
Q 18.796875 33.203125 25.25 31.453125 
Q 34.578125 28.953125 38.25 27.359375 
Q 41.9375 25.78125 44.03125 22.75 
Q 46.140625 19.734375 46.140625 15.234375 
Q 46.140625 10.84375 43.578125 6.953125 
Q 41.015625 3.078125 36.171875 0.953125 
Q 31.34375 -1.171875 25.25 -1.171875 
Q 15.140625 -1.171875 9.84375 3.03125 
Q 4.546875 7.234375 3.078125 15.484375 
z
" id="ArialMT-73"/>
     <path d="M 40.4375 19 
L 49.078125 17.875 
Q 47.65625 8.9375 41.8125 3.875 
Q 35.984375 -1.171875 27.484375 -1.171875 
Q 16.84375 -1.171875 10.375 5.78125 
Q 3.90625 12.75 3.90625 25.734375 
Q 3.90625 34.125 6.6875 40.421875 
Q 9.46875 46.734375 15.15625 49.875 
Q 20.84375 53.03125 27.546875 53.03125 
Q 35.984375 53.03125 41.359375 48.75 
Q 46.734375 44.484375 48.25 36.625 
L 39.703125 35.296875 
Q 38.484375 40.53125 35.375 43.15625 
Q 32.28125 45.796875 27.875 45.796875 
Q 21.234375 45.796875 17.078125 41.03125 
Q 12.9375 36.28125 12.9375 25.984375 
Q 12.9375 15.53125 16.9375 10.796875 
Q 20.953125 6.0625 27.390625 6.0625 
Q 32.5625 6.0625 36.03125 9.234375 
Q 39.5 12.40625 40.4375 19 
z
" id="ArialMT-63"/>
     <path d="M 40.4375 6.390625 
Q 35.546875 2.25 31.03125 0.53125 
Q 26.515625 -1.171875 21.34375 -1.171875 
Q 12.796875 -1.171875 8.203125 3 
Q 3.609375 7.171875 3.609375 13.671875 
Q 3.609375 17.484375 5.34375 20.625 
Q 7.078125 23.78125 9.890625 25.6875 
Q 12.703125 27.59375 16.21875 28.5625 
Q 18.796875 29.25 24.03125 29.890625 
Q 34.671875 31.15625 39.703125 32.90625 
Q 39.75 34.71875 39.75 35.203125 
Q 39.75 40.578125 37.25 42.78125 
Q 33.890625 45.75 27.25 45.75 
Q 21.046875 45.75 18.09375 43.578125 
Q 15.140625 41.40625 13.71875 35.890625 
L 5.125 37.0625 
Q 6.296875 42.578125 8.984375 45.96875 
Q 11.671875 49.359375 16.75 51.1875 
Q 21.828125 53.03125 28.515625 53.03125 
Q 35.15625 53.03125 39.296875 51.46875 
Q 43.453125 49.90625 45.40625 47.53125 
Q 47.359375 45.171875 48.140625 41.546875 
Q 48.578125 39.3125 48.578125 33.453125 
L 48.578125 21.734375 
Q 48.578125 9.46875 49.140625 6.21875 
Q 49.703125 2.984375 51.375 0 
L 42.1875 0 
Q 40.828125 2.734375 40.4375 6.390625 
z
M 39.703125 26.03125 
Q 34.90625 24.078125 25.34375 22.703125 
Q 19.921875 21.921875 17.671875 20.9375 
Q 15.4375 19.96875 14.203125 18.09375 
Q 12.984375 16.21875 12.984375 13.921875 
Q 12.984375 10.40625 15.640625 8.0625 
Q 18.3125 5.71875 23.4375 5.71875 
Q 28.515625 5.71875 32.46875 7.9375 
Q 36.421875 10.15625 38.28125 14.015625 
Q 39.703125 17 39.703125 22.796875 
z
" id="ArialMT-61"/>
     <path d="M 6.59375 0 
L 6.59375 51.859375 
L 14.5 51.859375 
L 14.5 44.484375 
Q 20.21875 53.03125 31 53.03125 
Q 35.6875 53.03125 39.625 51.34375 
Q 43.5625 49.65625 45.515625 46.921875 
Q 47.46875 44.1875 48.25 40.4375 
Q 48.734375 37.984375 48.734375 31.890625 
L 48.734375 0 
L 39.9375 0 
L 39.9375 31.546875 
Q 39.9375 36.921875 38.90625 39.578125 
Q 37.890625 42.234375 35.28125 43.8125 
Q 32.671875 45.40625 29.15625 45.40625 
Q 23.53125 45.40625 19.453125 41.84375 
Q 15.375 38.28125 15.375 28.328125 
L 15.375 0 
z
" id="ArialMT-6e"/>
     <path id="ArialMT-20"/>
     <path d="M 4.5 23 
L 13.421875 23.78125 
Q 14.0625 18.40625 16.375 14.96875 
Q 18.703125 11.53125 23.578125 9.40625 
Q 28.46875 7.28125 34.578125 7.28125 
Q 39.984375 7.28125 44.140625 8.890625 
Q 48.296875 10.5 50.3125 13.296875 
Q 52.34375 16.109375 52.34375 19.4375 
Q 52.34375 22.796875 50.390625 25.3125 
Q 48.4375 27.828125 43.953125 29.546875 
Q 41.0625 30.671875 31.203125 33.03125 
Q 21.34375 35.40625 17.390625 37.5 
Q 12.25 40.1875 9.734375 44.15625 
Q 7.234375 48.140625 7.234375 53.078125 
Q 7.234375 58.5 10.296875 63.203125 
Q 13.375 67.921875 19.28125 70.359375 
Q 25.203125 72.796875 32.421875 72.796875 
Q 40.375 72.796875 46.453125 70.234375 
Q 52.546875 67.671875 55.8125 62.6875 
Q 59.078125 57.71875 59.328125 51.421875 
L 50.25 50.734375 
Q 49.515625 57.515625 45.28125 60.984375 
Q 41.0625 64.453125 32.8125 64.453125 
Q 24.21875 64.453125 20.28125 61.296875 
Q 16.359375 58.15625 16.359375 53.71875 
Q 16.359375 49.859375 19.140625 47.359375 
Q 21.875 44.875 33.421875 42.265625 
Q 44.96875 39.65625 49.265625 37.703125 
Q 55.515625 34.8125 58.484375 30.390625 
Q 61.46875 25.984375 61.46875 20.21875 
Q 61.46875 14.5 58.203125 9.4375 
Q 54.9375 4.390625 48.796875 1.578125 
Q 42.671875 -1.21875 35.015625 -1.21875 
Q 25.296875 -1.21875 18.71875 1.609375 
Q 12.15625 4.4375 8.421875 10.125 
Q 4.6875 15.828125 4.5 23 
z
" id="ArialMT-53"/>
     <path d="M 7.421875 0 
L 7.421875 71.578125 
L 21.6875 71.578125 
L 38.625 20.90625 
Q 40.96875 13.8125 42.046875 10.296875 
Q 43.265625 14.203125 45.84375 21.78125 
L 62.984375 71.578125 
L 75.734375 71.578125 
L 75.734375 0 
L 66.609375 0 
L 66.609375 59.90625 
L 45.796875 0 
L 37.25 0 
L 16.546875 60.9375 
L 16.546875 0 
z
" id="ArialMT-4d"/>
     <path d="M 4.734375 62.203125 
L 4.734375 70.65625 
L 51.078125 70.65625 
L 51.078125 63.8125 
Q 44.234375 56.546875 37.515625 44.484375 
Q 30.8125 32.421875 27.15625 19.671875 
Q 24.515625 10.6875 23.78125 0 
L 14.75 0 
Q 14.890625 8.453125 18.0625 20.40625 
Q 21.234375 32.375 27.171875 43.484375 
Q 33.109375 54.59375 39.796875 62.203125 
z
" id="ArialMT-37"/>
    </defs>
    <g style="fill:#262626;" transform="translate(77.557187 19.44)scale(0.12 -0.12)">
     <use xlink:href="#ArialMT-45"/>
     <use x="66.699219" xlink:href="#ArialMT-70"/>
     <use x="122.314453" xlink:href="#ArialMT-69"/>
     <use x="144.53125" xlink:href="#ArialMT-6b"/>
     <use x="194.53125" xlink:href="#ArialMT-2d"/>
     <use x="227.832031" xlink:href="#ArialMT-73"/>
     <use x="277.832031" xlink:href="#ArialMT-63"/>
     <use x="327.832031" xlink:href="#ArialMT-61"/>
     <use x="383.447266" xlink:href="#ArialMT-6e"/>
     <use x="439.0625" xlink:href="#ArialMT-20"/>
     <use x="466.845703" xlink:href="#ArialMT-53"/>
     <use x="533.544922" xlink:href="#ArialMT-4d"/>
     <use x="616.845703" xlink:href="#ArialMT-31"/>
     <use x="672.460938" xlink:href="#ArialMT-37"/>
    </g>
   </g>
  </g>
 </g>
 <defs>
  <clipPath id="p3383bf0862">
   <rect height="150.52" width="164.56" x="38.96" y="25.44"/>
  </clipPath>
 </defs>
</svg>
