<?xml version="1.0" encoding="utf-8" standalone="no"?>
<!DOCTYPE svg PUBLIC "-//W3C//DTD SVG 1.1//EN"
  "http://www.w3.org/Graphics/SVG/1.1/DTD/svg11.dtd">
<!-- Created with matplotlib (http://matplotlib.org/) -->
<svg height="144pt" version="1.1" viewBox="0 0 144 144" width="144pt" xmlns="http://www.w3.org/2000/svg" xmlns:xlink="http://www.w3.org/1999/xlink">
 <defs>
  <style type="text/css">
*{stroke-linecap:butt;stroke-linejoin:round;}
  </style>
 </defs>
 <g id="figure_1">
  <g id="patch_1">
   <path d="M 0 144 
L 144 144 
L 144 0 
L 0 0 
z
" style="fill:#ffffff;"/>
  </g>
  <g id="axes_1">
   <g id="patch_2">
    <path d="M 48.38 101.92 
L 130.44 101.92 
L 130.44 27.48 
L 48.38 27.48 
z
" style="fill:#ffffff;"/>
   </g>
   <g id="matplotlib.axis_1">
    <g id="xtick_1">
     <g id="line2d_1">
      <defs>
       <path d="M 0 0 
L 0 3.5 
" id="mc6d800c6e8" style="stroke:#262626;stroke-width:0.8;"/>
      </defs>
      <g>
       <use style="fill:#262626;stroke:#262626;stroke-width:0.8;" x="52.11" xlink:href="#mc6d800c6e8" y="101.92"/>
      </g>
     </g>
     <g id="text_1">
      <!-- 2 -->
      <defs>
       <path d="M 50.34375 8.453125 
L 50.34375 0 
L 3.03125 0 
Q 2.9375 3.171875 4.046875 6.109375 
Q 5.859375 10.9375 9.828125 15.625 
Q 13.8125 20.3125 21.34375 26.46875 
Q 33.015625 36.03125 37.109375 41.625 
Q 41.21875 47.21875 41.21875 52.203125 
Q 41.21875 57.421875 37.46875 61 
Q 33.734375 64.59375 27.734375 64.59375 
Q 21.390625 64.59375 17.578125 60.78125 
Q 13.765625 56.984375 13.71875 50.25 
L 4.6875 51.171875 
Q 5.609375 61.28125 11.65625 66.578125 
Q 17.71875 71.875 27.9375 71.875 
Q 38.234375 71.875 44.234375 66.15625 
Q 50.25 60.453125 50.25 52 
Q 50.25 47.703125 48.484375 43.546875 
Q 46.734375 39.40625 42.65625 34.8125 
Q 38.578125 30.21875 29.109375 22.21875 
Q 21.1875 15.578125 18.9375 13.203125 
Q 16.703125 10.84375 15.234375 8.453125 
z
" id="ArialMT-32"/>
      </defs>
      <g style="fill:#262626;" transform="translate(49.051484 116.793594)scale(0.11 -0.11)">
       <use xlink:href="#ArialMT-32"/>
      </g>
     </g>
    </g>
    <g id="xtick_2">
     <g id="line2d_2">
      <g>
       <use style="fill:#262626;stroke:#262626;stroke-width:0.8;" x="67.03" xlink:href="#mc6d800c6e8" y="101.92"/>
      </g>
     </g>
     <g id="text_2">
      <!-- 4 -->
      <defs>
       <path d="M 32.328125 0 
L 32.328125 17.140625 
L 1.265625 17.140625 
L 1.265625 25.203125 
L 33.9375 71.578125 
L 41.109375 71.578125 
L 41.109375 25.203125 
L 50.78125 25.203125 
L 50.78125 17.140625 
L 41.109375 17.140625 
L 41.109375 0 
z
M 32.328125 25.203125 
L 32.328125 57.46875 
L 9.90625 25.203125 
z
" id="ArialMT-34"/>
      </defs>
      <g style="fill:#262626;" transform="translate(63.971484 116.793594)scale(0.11 -0.11)">
       <use xlink:href="#ArialMT-34"/>
      </g>
     </g>
    </g>
    <g id="xtick_3">
     <g id="line2d_3">
      <g>
       <use style="fill:#262626;stroke:#262626;stroke-width:0.8;" x="81.95" xlink:href="#mc6d800c6e8" y="101.92"/>
      </g>
     </g>
     <g id="text_3">
      <!-- 6 -->
      <defs>
       <path d="M 49.75 54.046875 
L 41.015625 53.375 
Q 39.84375 58.546875 37.703125 60.890625 
Q 34.125 64.65625 28.90625 64.65625 
Q 24.703125 64.65625 21.53125 62.3125 
Q 17.390625 59.28125 14.984375 53.46875 
Q 12.59375 47.65625 12.5 36.921875 
Q 15.671875 41.75 20.265625 44.09375 
Q 24.859375 46.4375 29.890625 46.4375 
Q 38.671875 46.4375 44.84375 39.96875 
Q 51.03125 33.5 51.03125 23.25 
Q 51.03125 16.5 48.125 10.71875 
Q 45.21875 4.9375 40.140625 1.859375 
Q 35.0625 -1.21875 28.609375 -1.21875 
Q 17.625 -1.21875 10.6875 6.859375 
Q 3.765625 14.9375 3.765625 33.5 
Q 3.765625 54.25 11.421875 63.671875 
Q 18.109375 71.875 29.4375 71.875 
Q 37.890625 71.875 43.28125 67.140625 
Q 48.6875 62.40625 49.75 54.046875 
z
M 13.875 23.1875 
Q 13.875 18.65625 15.796875 14.5 
Q 17.71875 10.359375 21.1875 8.171875 
Q 24.65625 6 28.46875 6 
Q 34.03125 6 38.03125 10.484375 
Q 42.046875 14.984375 42.046875 22.703125 
Q 42.046875 30.125 38.078125 34.390625 
Q 34.125 38.671875 28.125 38.671875 
Q 22.171875 38.671875 18.015625 34.390625 
Q 13.875 30.125 13.875 23.1875 
z
" id="ArialMT-36"/>
      </defs>
      <g style="fill:#262626;" transform="translate(78.891484 116.793594)scale(0.11 -0.11)">
       <use xlink:href="#ArialMT-36"/>
      </g>
     </g>
    </g>
    <g id="xtick_4">
     <g id="line2d_4">
      <g>
       <use style="fill:#262626;stroke:#262626;stroke-width:0.8;" x="96.87" xlink:href="#mc6d800c6e8" y="101.92"/>
      </g>
     </g>
     <g id="text_4">
      <!-- 8 -->
      <defs>
       <path d="M 17.671875 38.8125 
Q 12.203125 40.828125 9.5625 44.53125 
Q 6.9375 48.25 6.9375 53.421875 
Q 6.9375 61.234375 12.546875 66.546875 
Q 18.171875 71.875 27.484375 71.875 
Q 36.859375 71.875 42.578125 66.421875 
Q 48.296875 60.984375 48.296875 53.171875 
Q 48.296875 48.1875 45.671875 44.5 
Q 43.0625 40.828125 37.75 38.8125 
Q 44.34375 36.671875 47.78125 31.875 
Q 51.21875 27.09375 51.21875 20.453125 
Q 51.21875 11.28125 44.71875 5.03125 
Q 38.234375 -1.21875 27.640625 -1.21875 
Q 17.046875 -1.21875 10.546875 5.046875 
Q 4.046875 11.328125 4.046875 20.703125 
Q 4.046875 27.6875 7.59375 32.390625 
Q 11.140625 37.109375 17.671875 38.8125 
z
M 15.921875 53.71875 
Q 15.921875 48.640625 19.1875 45.40625 
Q 22.46875 42.1875 27.6875 42.1875 
Q 32.765625 42.1875 36.015625 45.375 
Q 39.265625 48.578125 39.265625 53.21875 
Q 39.265625 58.0625 35.90625 61.359375 
Q 32.5625 64.65625 27.59375 64.65625 
Q 22.5625 64.65625 19.234375 61.421875 
Q 15.921875 58.203125 15.921875 53.71875 
z
M 13.09375 20.65625 
Q 13.09375 16.890625 14.875 13.375 
Q 16.65625 9.859375 20.171875 7.921875 
Q 23.6875 6 27.734375 6 
Q 34.03125 6 38.125 10.046875 
Q 42.234375 14.109375 42.234375 20.359375 
Q 42.234375 26.703125 38.015625 30.859375 
Q 33.796875 35.015625 27.4375 35.015625 
Q 21.234375 35.015625 17.15625 30.90625 
Q 13.09375 26.8125 13.09375 20.65625 
z
" id="ArialMT-38"/>
      </defs>
      <g style="fill:#262626;" transform="translate(93.811484 116.793594)scale(0.11 -0.11)">
       <use xlink:href="#ArialMT-38"/>
      </g>
     </g>
    </g>
    <g id="xtick_5">
     <g id="line2d_5">
      <g>
       <use style="fill:#262626;stroke:#262626;stroke-width:0.8;" x="111.79" xlink:href="#mc6d800c6e8" y="101.92"/>
      </g>
     </g>
     <g id="text_5">
      <!-- 10 -->
      <defs>
       <path d="M 37.25 0 
L 28.46875 0 
L 28.46875 56 
Q 25.296875 52.984375 20.140625 49.953125 
Q 14.984375 46.921875 10.890625 45.40625 
L 10.890625 53.90625 
Q 18.265625 57.375 23.78125 62.296875 
Q 29.296875 67.234375 31.59375 71.875 
L 37.25 71.875 
z
" id="ArialMT-31"/>
       <path d="M 4.15625 35.296875 
Q 4.15625 48 6.765625 55.734375 
Q 9.375 63.484375 14.515625 67.671875 
Q 19.671875 71.875 27.484375 71.875 
Q 33.25 71.875 37.59375 69.546875 
Q 41.9375 67.234375 44.765625 62.859375 
Q 47.609375 58.5 49.21875 52.21875 
Q 50.828125 45.953125 50.828125 35.296875 
Q 50.828125 22.703125 48.234375 14.96875 
Q 45.65625 7.234375 40.5 3 
Q 35.359375 -1.21875 27.484375 -1.21875 
Q 17.140625 -1.21875 11.234375 6.203125 
Q 4.15625 15.140625 4.15625 35.296875 
z
M 13.1875 35.296875 
Q 13.1875 17.671875 17.3125 11.828125 
Q 21.4375 6 27.484375 6 
Q 33.546875 6 37.671875 11.859375 
Q 41.796875 17.71875 41.796875 35.296875 
Q 41.796875 52.984375 37.671875 58.78125 
Q 33.546875 64.59375 27.390625 64.59375 
Q 21.34375 64.59375 17.71875 59.46875 
Q 13.1875 52.9375 13.1875 35.296875 
z
" id="ArialMT-30"/>
      </defs>
      <g style="fill:#262626;" transform="translate(105.672969 116.793594)scale(0.11 -0.11)">
       <use xlink:href="#ArialMT-31"/>
       <use x="55.615234" xlink:href="#ArialMT-30"/>
      </g>
     </g>
    </g>
    <g id="xtick_6">
     <g id="line2d_6">
      <g>
       <use style="fill:#262626;stroke:#262626;stroke-width:0.8;" x="126.71" xlink:href="#mc6d800c6e8" y="101.92"/>
      </g>
     </g>
     <g id="text_6">
      <!-- 12 -->
      <g style="fill:#262626;" transform="translate(120.592969 116.793594)scale(0.11 -0.11)">
       <use xlink:href="#ArialMT-31"/>
       <use x="55.615234" xlink:href="#ArialMT-32"/>
      </g>
     </g>
    </g>
    <g id="text_7">
     <!-- pH -->
     <defs>
      <path d="M 6.59375 -19.875 
L 6.59375 51.859375 
L 14.59375 51.859375 
L 14.59375 45.125 
Q 17.4375 49.078125 21 51.046875 
Q 24.5625 53.03125 29.640625 53.03125 
Q 36.28125 53.03125 41.359375 49.609375 
Q 46.4375 46.1875 49.015625 39.953125 
Q 51.609375 33.734375 51.609375 26.3125 
Q 51.609375 18.359375 48.75 11.984375 
Q 45.90625 5.609375 40.453125 2.21875 
Q 35.015625 -1.171875 29 -1.171875 
Q 24.609375 -1.171875 21.109375 0.6875 
Q 17.625 2.546875 15.375 5.375 
L 15.375 -19.875 
z
M 14.546875 25.640625 
Q 14.546875 15.625 18.59375 10.84375 
Q 22.65625 6.0625 28.421875 6.0625 
Q 34.28125 6.0625 38.453125 11.015625 
Q 42.625 15.96875 42.625 26.375 
Q 42.625 36.28125 38.546875 41.203125 
Q 34.46875 46.140625 28.8125 46.140625 
Q 23.1875 46.140625 18.859375 40.890625 
Q 14.546875 35.640625 14.546875 25.640625 
z
" id="ArialMT-70"/>
      <path d="M 8.015625 0 
L 8.015625 71.578125 
L 17.484375 71.578125 
L 17.484375 42.1875 
L 54.6875 42.1875 
L 54.6875 71.578125 
L 64.15625 71.578125 
L 64.15625 0 
L 54.6875 0 
L 54.6875 33.734375 
L 17.484375 33.734375 
L 17.484375 0 
z
" id="ArialMT-48"/>
     </defs>
     <g style="fill:#262626;" transform="translate(82.379453 130.853437)scale(0.11 -0.11)">
      <use xlink:href="#ArialMT-70"/>
      <use x="55.615234" xlink:href="#ArialMT-48"/>
     </g>
    </g>
   </g>
   <g id="matplotlib.axis_2">
    <g id="ytick_1">
     <g id="line2d_7">
      <defs>
       <path d="M 0 0 
L -3.5 0 
" id="me8b5e2631d" style="stroke:#262626;stroke-width:0.8;"/>
      </defs>
      <g>
       <use style="fill:#262626;stroke:#262626;stroke-width:0.8;" x="48.38" xlink:href="#me8b5e2631d" y="100.169059"/>
      </g>
     </g>
     <g id="text_8">
      <!-- −2 -->
      <defs>
       <path d="M 52.828125 31.203125 
L 5.5625 31.203125 
L 5.5625 39.40625 
L 52.828125 39.40625 
z
" id="ArialMT-2212"/>
      </defs>
      <g style="fill:#262626;" transform="translate(28.838281 104.105856)scale(0.11 -0.11)">
       <use xlink:href="#ArialMT-2212"/>
       <use x="58.398438" xlink:href="#ArialMT-32"/>
      </g>
     </g>
    </g>
    <g id="ytick_2">
     <g id="line2d_8">
      <g>
       <use style="fill:#262626;stroke:#262626;stroke-width:0.8;" x="48.38" xlink:href="#me8b5e2631d" y="65.150234"/>
      </g>
     </g>
     <g id="text_9">
      <!-- −1 -->
      <g style="fill:#262626;" transform="translate(28.838281 69.087031)scale(0.11 -0.11)">
       <use xlink:href="#ArialMT-2212"/>
       <use x="58.398438" xlink:href="#ArialMT-31"/>
      </g>
     </g>
    </g>
    <g id="ytick_3">
     <g id="line2d_9">
      <g>
       <use style="fill:#262626;stroke:#262626;stroke-width:0.8;" x="48.38" xlink:href="#me8b5e2631d" y="30.131409"/>
      </g>
     </g>
     <g id="text_10">
      <!-- 0 -->
      <g style="fill:#262626;" transform="translate(35.262969 34.068206)scale(0.11 -0.11)">
       <use xlink:href="#ArialMT-30"/>
      </g>
     </g>
    </g>
    <g id="text_11">
     <!-- $\langle q_\mathsf{total} \rangle$ -->
     <defs>
      <path d="M 8.9375 31.34375 
L 22.703125 75.875 
L 31 75.875 
L 17.234375 31.34375 
L 31 -13.1875 
L 22.703125 -13.1875 
z
" id="DejaVuSans-27e8"/>
      <path d="M 41.703125 8.203125 
Q 38.09375 3.46875 33.171875 1.015625 
Q 28.265625 -1.421875 22.3125 -1.421875 
Q 14.015625 -1.421875 9.296875 4.171875 
Q 4.59375 9.765625 4.59375 19.578125 
Q 4.59375 27.484375 7.5 34.859375 
Q 10.40625 42.234375 15.828125 48.09375 
Q 19.34375 51.90625 23.90625 53.953125 
Q 28.46875 56 33.5 56 
Q 39.546875 56 43.453125 53.609375 
Q 47.359375 51.21875 49.125 46.390625 
L 50.6875 54.59375 
L 59.71875 54.59375 
L 45.125 -20.609375 
L 36.078125 -20.609375 
z
M 13.921875 20.90625 
Q 13.921875 13.671875 16.9375 9.890625 
Q 19.96875 6.109375 25.6875 6.109375 
Q 34.1875 6.109375 40.1875 14.234375 
Q 46.1875 22.359375 46.1875 33.984375 
Q 46.1875 41.015625 43.078125 44.75 
Q 39.984375 48.484375 34.1875 48.484375 
Q 29.9375 48.484375 26.3125 46.5 
Q 22.703125 44.53125 20.015625 40.71875 
Q 17.1875 36.71875 15.546875 31.34375 
Q 13.921875 25.984375 13.921875 20.90625 
z
" id="DejaVuSans-Oblique-71"/>
      <path d="M 18.3125 70.21875 
L 18.3125 54.6875 
L 36.8125 54.6875 
L 36.8125 47.703125 
L 18.3125 47.703125 
L 18.3125 18.015625 
Q 18.3125 11.328125 20.140625 9.421875 
Q 21.96875 7.515625 27.59375 7.515625 
L 36.8125 7.515625 
L 36.8125 0 
L 27.59375 0 
Q 17.1875 0 13.234375 3.875 
Q 9.28125 7.765625 9.28125 18.015625 
L 9.28125 47.703125 
L 2.6875 47.703125 
L 2.6875 54.6875 
L 9.28125 54.6875 
L 9.28125 70.21875 
z
" id="DejaVuSans-74"/>
      <path d="M 30.609375 48.390625 
Q 23.390625 48.390625 19.1875 42.75 
Q 14.984375 37.109375 14.984375 27.296875 
Q 14.984375 17.484375 19.15625 11.84375 
Q 23.34375 6.203125 30.609375 6.203125 
Q 37.796875 6.203125 41.984375 11.859375 
Q 46.1875 17.53125 46.1875 27.296875 
Q 46.1875 37.015625 41.984375 42.703125 
Q 37.796875 48.390625 30.609375 48.390625 
z
M 30.609375 56 
Q 42.328125 56 49.015625 48.375 
Q 55.71875 40.765625 55.71875 27.296875 
Q 55.71875 13.875 49.015625 6.21875 
Q 42.328125 -1.421875 30.609375 -1.421875 
Q 18.84375 -1.421875 12.171875 6.21875 
Q 5.515625 13.875 5.515625 27.296875 
Q 5.515625 40.765625 12.171875 48.375 
Q 18.84375 56 30.609375 56 
z
" id="DejaVuSans-6f"/>
      <path d="M 34.28125 27.484375 
Q 23.390625 27.484375 19.1875 25 
Q 14.984375 22.515625 14.984375 16.5 
Q 14.984375 11.71875 18.140625 8.90625 
Q 21.296875 6.109375 26.703125 6.109375 
Q 34.1875 6.109375 38.703125 11.40625 
Q 43.21875 16.703125 43.21875 25.484375 
L 43.21875 27.484375 
z
M 52.203125 31.203125 
L 52.203125 0 
L 43.21875 0 
L 43.21875 8.296875 
Q 40.140625 3.328125 35.546875 0.953125 
Q 30.953125 -1.421875 24.3125 -1.421875 
Q 15.921875 -1.421875 10.953125 3.296875 
Q 6 8.015625 6 15.921875 
Q 6 25.140625 12.171875 29.828125 
Q 18.359375 34.515625 30.609375 34.515625 
L 43.21875 34.515625 
L 43.21875 35.40625 
Q 43.21875 41.609375 39.140625 45 
Q 35.0625 48.390625 27.6875 48.390625 
Q 23 48.390625 18.546875 47.265625 
Q 14.109375 46.140625 10.015625 43.890625 
L 10.015625 52.203125 
Q 14.9375 54.109375 19.578125 55.046875 
Q 24.21875 56 28.609375 56 
Q 40.484375 56 46.34375 49.84375 
Q 52.203125 43.703125 52.203125 31.203125 
z
" id="DejaVuSans-61"/>
      <path d="M 9.421875 75.984375 
L 18.40625 75.984375 
L 18.40625 0 
L 9.421875 0 
z
" id="DejaVuSans-6c"/>
      <path d="M 30.078125 31.34375 
L 16.3125 -13.1875 
L 8.015625 -13.1875 
L 21.78125 31.34375 
L 8.015625 75.875 
L 16.3125 75.875 
z
" id="DejaVuSans-27e9"/>
     </defs>
     <g style="fill:#262626;" transform="translate(22.528281 81.475)rotate(-90)scale(0.11 -0.11)">
      <use transform="translate(0 0.125)" xlink:href="#DejaVuSans-27e8"/>
      <use transform="translate(39.013672 0.125)" xlink:href="#DejaVuSans-Oblique-71"/>
      <use transform="translate(102.490234 -16.28125)scale(0.7)" xlink:href="#DejaVuSans-74"/>
      <use transform="translate(129.936523 -16.28125)scale(0.7)" xlink:href="#DejaVuSans-6f"/>
      <use transform="translate(172.763672 -16.28125)scale(0.7)" xlink:href="#DejaVuSans-74"/>
      <use transform="translate(200.209961 -16.28125)scale(0.7)" xlink:href="#DejaVuSans-61"/>
      <use transform="translate(243.105469 -16.28125)scale(0.7)" xlink:href="#DejaVuSans-6c"/>
      <use transform="translate(265.288086 0.125)" xlink:href="#DejaVuSans-27e9"/>
     </g>
    </g>
   </g>
   <g id="PolyCollection_1">
    <defs>
     <path d="M 52.11 -113.658846 
L 52.11 -113.658846 
L 52.856 -113.604946 
L 53.602 -113.537327 
L 54.348 -113.452574 
L 55.094 -113.346462 
L 55.84 -113.213798 
L 56.586 -113.048227 
L 57.332 -112.842041 
L 58.078 -112.585976 
L 58.824 -112.269044 
L 59.57 -111.878418 
L 60.316 -111.399445 
L 61.062 -110.815853 
L 61.808 -110.110254 
L 62.554 -109.265051 
L 63.3 -108.263852 
L 64.046 -107.093412 
L 64.792 -105.746045 
L 65.538 -104.222244 
L 66.284 -102.533056 
L 67.03 -100.701574 
L 67.776 -98.762919 
L 68.522 -96.762276 
L 69.268 -94.751047 
L 70.014 -92.781722 
L 70.76 -90.902528 
L 71.506 -89.152957 
L 72.252 -87.561021 
L 72.998 -86.142477 
L 73.744 -84.901789 
L 74.49 -83.834229 
L 75.236 -82.928469 
L 75.982 -82.169109 
L 76.728 -81.538838 
L 77.474 -81.020048 
L 78.22 -80.59594 
L 78.966 -80.251173 
L 79.712 -79.972182 
L 80.458 -79.747249 
L 81.204 -79.56644 
L 81.95 -79.421446 
L 82.696 -79.305398 
L 83.442 -79.212658 
L 84.188 -79.138637 
L 84.934 -79.079615 
L 85.68 -79.032588 
L 86.426 -78.995143 
L 87.172 -78.965342 
L 87.918 -78.941633 
L 88.664 -78.922778 
L 89.41 -78.907787 
L 90.156 -78.895869 
L 90.902 -78.886397 
L 91.648 -78.878869 
L 92.394 -78.872888 
L 93.14 -78.868135 
L 93.886 -78.864358 
L 94.632 -78.861358 
L 95.378 -78.858975 
L 96.124 -78.857081 
L 96.87 -78.855577 
L 97.616 -78.854382 
L 98.362 -78.853433 
L 99.108 -78.852679 
L 99.854 -78.85208 
L 100.6 -78.851604 
L 101.346 -78.851226 
L 102.092 -78.850926 
L 102.838 -78.850687 
L 103.584 -78.850498 
L 104.33 -78.850347 
L 105.076 -78.850228 
L 105.822 -78.850133 
L 106.568 -78.850057 
L 107.314 -78.849997 
L 108.06 -78.84995 
L 108.806 -78.849912 
L 109.552 -78.849882 
L 110.298 -78.849858 
L 111.044 -78.849839 
L 111.79 -78.849824 
L 112.536 -78.849812 
L 113.282 -78.849803 
L 114.028 -78.849795 
L 114.774 -78.849789 
L 115.52 -78.849784 
L 116.266 -78.849781 
L 117.012 -78.849778 
L 117.758 -78.849775 
L 118.504 -78.849773 
L 119.25 -78.849772 
L 119.996 -78.849771 
L 120.742 -78.84977 
L 121.488 -78.849769 
L 122.234 -78.849768 
L 122.98 -78.849768 
L 123.726 -78.849768 
L 124.472 -78.849767 
L 125.218 -78.849767 
L 125.964 -78.849767 
L 126.71 -78.849767 
L 126.71 -78.849767 
L 126.71 -56.435756 
L 125.964 -58.346622 
L 125.218 -60.333883 
L 124.472 -62.347505 
L 123.726 -64.334748 
L 122.98 -66.24558 
L 122.234 -68.037511 
L 121.488 -69.678916 
L 120.742 -71.150398 
L 119.996 -72.444286 
L 119.25 -73.562815 
L 118.504 -74.515611 
L 117.758 -75.3171 
L 117.012 -75.984216 
L 116.266 -76.534616 
L 115.52 -76.985428 
L 114.774 -77.352476 
L 114.028 -77.649876 
L 113.282 -77.889898 
L 112.536 -78.082995 
L 111.79 -78.237946 
L 111.044 -78.362032 
L 110.298 -78.461237 
L 109.552 -78.540448 
L 108.806 -78.603627 
L 108.06 -78.653978 
L 107.314 -78.69408 
L 106.568 -78.726004 
L 105.822 -78.751408 
L 105.076 -78.771619 
L 104.33 -78.787696 
L 103.584 -78.800486 
L 102.838 -78.810663 
L 102.092 -78.818765 
L 101.346 -78.825221 
L 100.6 -78.830372 
L 99.854 -78.834492 
L 99.108 -78.8378 
L 98.362 -78.840471 
L 97.616 -78.842648 
L 96.87 -78.844446 
L 96.124 -78.84596 
L 95.378 -78.847272 
L 94.632 -78.848452 
L 93.886 -78.849561 
L 93.14 -78.85066 
L 92.394 -78.851806 
L 91.648 -78.853061 
L 90.902 -78.854491 
L 90.156 -78.856172 
L 89.41 -78.858195 
L 88.664 -78.860666 
L 87.918 -78.863717 
L 87.172 -78.86751 
L 86.426 -78.872246 
L 85.68 -78.878177 
L 84.934 -78.885617 
L 84.188 -78.89496 
L 83.442 -78.906701 
L 82.696 -78.921458 
L 81.95 -78.940009 
L 81.204 -78.963329 
L 80.458 -78.992636 
L 79.712 -79.029458 
L 78.966 -79.075699 
L 78.22 -79.133737 
L 77.474 -79.206525 
L 76.728 -79.297727 
L 75.982 -79.411862 
L 75.236 -79.554483 
L 74.49 -79.732364 
L 73.744 -79.953702 
L 72.998 -80.228307 
L 72.252 -80.567766 
L 71.506 -80.985517 
L 70.76 -81.496788 
L 70.014 -82.118308 
L 69.268 -82.867685 
L 68.522 -83.762347 
L 67.776 -84.817959 
L 67.03 -86.046319 
L 66.284 -87.452843 
L 65.538 -89.033969 
L 64.792 -90.774997 
L 64.046 -92.649027 
L 63.3 -94.617582 
L 62.554 -96.633222 
L 61.808 -98.643909 
L 61.062 -100.59835 
L 60.316 -102.4512 
L 59.57 -104.167068 
L 58.824 -105.722665 
L 58.078 -107.107005 
L 57.332 -108.320054 
L 56.586 -109.370464 
L 55.84 -110.273023 
L 55.094 -111.046306 
L 54.348 -111.710795 
L 53.602 -112.28756 
L 52.856 -112.797458 
L 52.11 -113.260777 
z
" id="m6da32e1702" style="stroke:#ffffff;stroke-opacity:0.7;"/>
    </defs>
    <g clip-path="url(#pb3330d0533)">
     <use style="fill:#001c7f;fill-opacity:0.7;stroke:#ffffff;stroke-opacity:0.7;" x="0" xlink:href="#m6da32e1702" y="144"/>
    </g>
   </g>
   <g id="line2d_10">
    <path clip-path="url(#pb3330d0533)" d="M 52.11 30.341154 
L 52.856 30.395054 
L 53.602 30.462673 
L 54.348 30.547426 
L 55.094 30.653538 
L 55.84 30.786202 
L 56.586 30.951773 
L 57.332 31.157959 
L 58.078 31.414024 
L 58.824 31.730956 
L 59.57 32.121582 
L 60.316 32.600555 
L 61.062 33.184147 
L 61.808 33.889746 
L 62.554 34.734949 
L 63.3 35.736148 
L 64.046 36.906588 
L 64.792 38.253955 
L 65.538 39.777756 
L 66.284 41.466944 
L 67.03 43.298426 
L 67.776 45.237081 
L 68.522 47.237724 
L 69.268 49.248953 
L 70.014 51.218278 
L 70.76 53.097472 
L 71.506 54.847043 
L 72.252 56.438979 
L 72.998 57.857523 
L 73.744 59.098211 
L 74.49 60.165771 
L 75.236 61.071531 
L 75.982 61.830891 
L 76.728 62.461162 
L 77.474 62.979952 
L 78.22 63.40406 
L 78.966 63.748827 
L 79.712 64.027818 
L 80.458 64.252751 
L 81.204 64.43356 
L 81.95 64.578554 
L 82.696 64.694602 
L 83.442 64.787342 
L 84.188 64.861363 
L 84.934 64.920385 
L 85.68 64.967412 
L 86.426 65.004857 
L 87.172 65.034658 
L 87.918 65.058367 
L 88.664 65.077222 
L 89.41 65.092213 
L 90.156 65.104131 
L 90.902 65.113603 
L 91.648 65.121131 
L 92.394 65.127112 
L 93.14 65.131865 
L 93.886 65.135642 
L 94.632 65.138642 
L 95.378 65.141025 
L 96.124 65.142919 
L 96.87 65.144423 
L 97.616 65.145618 
L 98.362 65.146567 
L 99.108 65.147321 
L 99.854 65.14792 
L 100.6 65.148396 
L 101.346 65.148774 
L 102.092 65.149074 
L 102.838 65.149313 
L 103.584 65.149502 
L 104.33 65.149653 
L 105.076 65.149772 
L 105.822 65.149867 
L 106.568 65.149943 
L 107.314 65.150003 
L 108.06 65.15005 
L 108.806 65.150088 
L 109.552 65.150118 
L 110.298 65.150142 
L 111.044 65.150161 
L 111.79 65.150176 
L 112.536 65.150188 
L 113.282 65.150197 
L 114.028 65.150205 
L 114.774 65.150211 
L 115.52 65.150216 
L 116.266 65.150219 
L 117.012 65.150222 
L 117.758 65.150225 
L 118.504 65.150227 
L 119.25 65.150228 
L 119.996 65.150229 
L 120.742 65.15023 
L 121.488 65.150231 
L 122.234 65.150232 
L 122.98 65.150232 
L 123.726 65.150232 
L 124.472 65.150233 
L 125.218 65.150233 
L 125.964 65.150233 
L 126.71 65.150233 
" style="fill:none;stroke:#333333;stroke-dasharray:1.5,2.475;stroke-dashoffset:0;stroke-width:1.5;"/>
   </g>
   <g id="line2d_11">
    <path clip-path="url(#pb3330d0533)" d="M 52.11 30.739223 
L 52.856 31.202542 
L 53.602 31.71244 
L 54.348 32.289205 
L 55.094 32.953694 
L 55.84 33.726977 
L 56.586 34.629536 
L 57.332 35.679946 
L 58.078 36.892995 
L 58.824 38.277335 
L 59.57 39.832932 
L 60.316 41.5488 
L 61.062 43.40165 
L 61.808 45.356091 
L 62.554 47.366778 
L 63.3 49.382418 
L 64.046 51.350973 
L 64.792 53.225003 
L 65.538 54.966031 
L 66.284 56.547157 
L 67.03 57.953681 
L 67.776 59.182041 
L 68.522 60.237653 
L 69.268 61.132315 
L 70.014 61.881692 
L 70.76 62.503212 
L 71.506 63.014483 
L 72.252 63.432234 
L 72.998 63.771693 
L 73.744 64.046298 
L 74.49 64.267636 
L 75.236 64.445517 
L 75.982 64.588138 
L 76.728 64.702273 
L 77.474 64.793475 
L 78.22 64.866263 
L 78.966 64.924301 
L 79.712 64.970542 
L 80.458 65.007364 
L 81.204 65.036671 
L 81.95 65.059991 
L 82.696 65.078542 
L 83.442 65.093299 
L 84.188 65.10504 
L 84.934 65.114383 
L 85.68 65.121823 
L 86.426 65.127754 
L 87.172 65.13249 
L 87.918 65.136283 
L 88.664 65.139334 
L 89.41 65.141805 
L 90.156 65.143828 
L 90.902 65.145509 
L 91.648 65.146939 
L 92.394 65.148194 
L 93.14 65.14934 
L 93.886 65.150439 
L 94.632 65.151548 
L 95.378 65.152728 
L 96.124 65.15404 
L 96.87 65.155554 
L 97.616 65.157352 
L 98.362 65.159529 
L 99.108 65.1622 
L 99.854 65.165508 
L 100.6 65.169628 
L 101.346 65.174779 
L 102.092 65.181235 
L 102.838 65.189337 
L 103.584 65.199514 
L 104.33 65.212304 
L 105.076 65.228381 
L 105.822 65.248592 
L 106.568 65.273996 
L 107.314 65.30592 
L 108.06 65.346022 
L 108.806 65.396373 
L 109.552 65.459552 
L 110.298 65.538763 
L 111.044 65.637968 
L 111.79 65.762054 
L 112.536 65.917005 
L 113.282 66.110102 
L 114.028 66.350124 
L 114.774 66.647524 
L 115.52 67.014572 
L 116.266 67.465384 
L 117.012 68.015784 
L 117.758 68.6829 
L 118.504 69.484389 
L 119.25 70.437185 
L 119.996 71.555714 
L 120.742 72.849602 
L 121.488 74.321084 
L 122.234 75.962489 
L 122.98 77.75442 
L 123.726 79.665252 
L 124.472 81.652495 
L 125.218 83.666117 
L 125.964 85.653378 
L 126.71 87.564244 
" style="fill:none;stroke:#333333;stroke-linecap:round;stroke-width:1.5;"/>
   </g>
   <g id="patch_3">
    <path d="M 48.38 101.92 
L 48.38 27.48 
" style="fill:none;stroke:#262626;stroke-linecap:square;stroke-linejoin:miter;stroke-width:0.8;"/>
   </g>
   <g id="patch_4">
    <path d="M 48.38 101.92 
L 130.44 101.92 
" style="fill:none;stroke:#262626;stroke-linecap:square;stroke-linejoin:miter;stroke-width:0.8;"/>
   </g>
   <g id="text_12">
    <!-- $\Delta$ area : 1.26 -->
    <defs>
     <path d="M 34.1875 63.1875 
L 14.15625 8.203125 
L 54.25 8.203125 
z
M 0.78125 0 
L 28.609375 72.90625 
L 39.796875 72.90625 
L 67.578125 0 
z
" id="DejaVuSans-394"/>
     <path id="ArialMT-20"/>
     <path d="M 40.4375 6.390625 
Q 35.546875 2.25 31.03125 0.53125 
Q 26.515625 -1.171875 21.34375 -1.171875 
Q 12.796875 -1.171875 8.203125 3 
Q 3.609375 7.171875 3.609375 13.671875 
Q 3.609375 17.484375 5.34375 20.625 
Q 7.078125 23.78125 9.890625 25.6875 
Q 12.703125 27.59375 16.21875 28.5625 
Q 18.796875 29.25 24.03125 29.890625 
Q 34.671875 31.15625 39.703125 32.90625 
Q 39.75 34.71875 39.75 35.203125 
Q 39.75 40.578125 37.25 42.78125 
Q 33.890625 45.75 27.25 45.75 
Q 21.046875 45.75 18.09375 43.578125 
Q 15.140625 41.40625 13.71875 35.890625 
L 5.125 37.0625 
Q 6.296875 42.578125 8.984375 45.96875 
Q 11.671875 49.359375 16.75 51.1875 
Q 21.828125 53.03125 28.515625 53.03125 
Q 35.15625 53.03125 39.296875 51.46875 
Q 43.453125 49.90625 45.40625 47.53125 
Q 47.359375 45.171875 48.140625 41.546875 
Q 48.578125 39.3125 48.578125 33.453125 
L 48.578125 21.734375 
Q 48.578125 9.46875 49.140625 6.21875 
Q 49.703125 2.984375 51.375 0 
L 42.1875 0 
Q 40.828125 2.734375 40.4375 6.390625 
z
M 39.703125 26.03125 
Q 34.90625 24.078125 25.34375 22.703125 
Q 19.921875 21.921875 17.671875 20.9375 
Q 15.4375 19.96875 14.203125 18.09375 
Q 12.984375 16.21875 12.984375 13.921875 
Q 12.984375 10.40625 15.640625 8.0625 
Q 18.3125 5.71875 23.4375 5.71875 
Q 28.515625 5.71875 32.46875 7.9375 
Q 36.421875 10.15625 38.28125 14.015625 
Q 39.703125 17 39.703125 22.796875 
z
" id="ArialMT-61"/>
     <path d="M 6.5 0 
L 6.5 51.859375 
L 14.40625 51.859375 
L 14.40625 44 
Q 17.4375 49.515625 20 51.265625 
Q 22.5625 53.03125 25.640625 53.03125 
Q 30.078125 53.03125 34.671875 50.203125 
L 31.640625 42.046875 
Q 28.421875 43.953125 25.203125 43.953125 
Q 22.3125 43.953125 20.015625 42.21875 
Q 17.71875 40.484375 16.75 37.40625 
Q 15.28125 32.71875 15.28125 27.15625 
L 15.28125 0 
z
" id="ArialMT-72"/>
     <path d="M 42.09375 16.703125 
L 51.171875 15.578125 
Q 49.03125 7.625 43.21875 3.21875 
Q 37.40625 -1.171875 28.375 -1.171875 
Q 17 -1.171875 10.328125 5.828125 
Q 3.65625 12.84375 3.65625 25.484375 
Q 3.65625 38.578125 10.390625 45.796875 
Q 17.140625 53.03125 27.875 53.03125 
Q 38.28125 53.03125 44.875 45.953125 
Q 51.46875 38.875 51.46875 26.03125 
Q 51.46875 25.25 51.421875 23.6875 
L 12.75 23.6875 
Q 13.234375 15.140625 17.578125 10.59375 
Q 21.921875 6.0625 28.421875 6.0625 
Q 33.25 6.0625 36.671875 8.59375 
Q 40.09375 11.140625 42.09375 16.703125 
z
M 13.234375 30.90625 
L 42.1875 30.90625 
Q 41.609375 37.453125 38.875 40.71875 
Q 34.671875 45.796875 27.984375 45.796875 
Q 21.921875 45.796875 17.796875 41.75 
Q 13.671875 37.703125 13.234375 30.90625 
z
" id="ArialMT-65"/>
     <path d="M 9.03125 41.84375 
L 9.03125 51.859375 
L 19.046875 51.859375 
L 19.046875 41.84375 
z
M 9.03125 0 
L 9.03125 10.015625 
L 19.046875 10.015625 
L 19.046875 0 
z
" id="ArialMT-3a"/>
     <path d="M 9.078125 0 
L 9.078125 10.015625 
L 19.09375 10.015625 
L 19.09375 0 
z
" id="ArialMT-2e"/>
    </defs>
    <g style="fill:#262626;" transform="translate(51.46 21.48)scale(0.132 -0.132)">
     <use transform="translate(0 0.09375)" xlink:href="#DejaVuSans-394"/>
     <use transform="translate(68.408203 0.09375)" xlink:href="#ArialMT-20"/>
     <use transform="translate(96.191406 0.09375)" xlink:href="#ArialMT-61"/>
     <use transform="translate(151.806641 0.09375)" xlink:href="#ArialMT-72"/>
     <use transform="translate(185.107422 0.09375)" xlink:href="#ArialMT-65"/>
     <use transform="translate(240.722656 0.09375)" xlink:href="#ArialMT-61"/>
     <use transform="translate(296.337891 0.09375)" xlink:href="#ArialMT-20"/>
     <use transform="translate(324.121094 0.09375)" xlink:href="#ArialMT-3a"/>
     <use transform="translate(351.904297 0.09375)" xlink:href="#ArialMT-20"/>
     <use transform="translate(379.6875 0.09375)" xlink:href="#ArialMT-31"/>
     <use transform="translate(435.302734 0.09375)" xlink:href="#ArialMT-2e"/>
     <use transform="translate(463.085938 0.09375)" xlink:href="#ArialMT-32"/>
     <use transform="translate(518.701172 0.09375)" xlink:href="#ArialMT-36"/>
    </g>
   </g>
  </g>
 </g>
 <defs>
  <clipPath id="pb3330d0533">
   <rect height="74.44" width="82.06" x="48.38" y="27.48"/>
  </clipPath>
 </defs>
</svg>
