<?xml version="1.0" encoding="utf-8" standalone="no"?>
<!DOCTYPE svg PUBLIC "-//W3C//DTD SVG 1.1//EN"
  "http://www.w3.org/Graphics/SVG/1.1/DTD/svg11.dtd">
<!-- Created with matplotlib (http://matplotlib.org/) -->
<svg height="144pt" version="1.1" viewBox="0 0 144 144" width="144pt" xmlns="http://www.w3.org/2000/svg" xmlns:xlink="http://www.w3.org/1999/xlink">
 <defs>
  <style type="text/css">
*{stroke-linecap:butt;stroke-linejoin:round;}
  </style>
 </defs>
 <g id="figure_1">
  <g id="patch_1">
   <path d="M 0 144 
L 144 144 
L 144 0 
L 0 0 
z
" style="fill:#ffffff;"/>
  </g>
  <g id="axes_1">
   <g id="patch_2">
    <path d="M 48.38 101.92 
L 130.44 101.92 
L 130.44 27.48 
L 48.38 27.48 
z
" style="fill:#ffffff;"/>
   </g>
   <g id="matplotlib.axis_1">
    <g id="xtick_1">
     <g id="line2d_1">
      <defs>
       <path d="M 0 0 
L 0 3.5 
" id="m27ddde378a" style="stroke:#262626;stroke-width:0.8;"/>
      </defs>
      <g>
       <use style="fill:#262626;stroke:#262626;stroke-width:0.8;" x="52.11" xlink:href="#m27ddde378a" y="101.92"/>
      </g>
     </g>
     <g id="text_1">
      <!-- 2 -->
      <defs>
       <path d="M 50.34375 8.453125 
L 50.34375 0 
L 3.03125 0 
Q 2.9375 3.171875 4.046875 6.109375 
Q 5.859375 10.9375 9.828125 15.625 
Q 13.8125 20.3125 21.34375 26.46875 
Q 33.015625 36.03125 37.109375 41.625 
Q 41.21875 47.21875 41.21875 52.203125 
Q 41.21875 57.421875 37.46875 61 
Q 33.734375 64.59375 27.734375 64.59375 
Q 21.390625 64.59375 17.578125 60.78125 
Q 13.765625 56.984375 13.71875 50.25 
L 4.6875 51.171875 
Q 5.609375 61.28125 11.65625 66.578125 
Q 17.71875 71.875 27.9375 71.875 
Q 38.234375 71.875 44.234375 66.15625 
Q 50.25 60.453125 50.25 52 
Q 50.25 47.703125 48.484375 43.546875 
Q 46.734375 39.40625 42.65625 34.8125 
Q 38.578125 30.21875 29.109375 22.21875 
Q 21.1875 15.578125 18.9375 13.203125 
Q 16.703125 10.84375 15.234375 8.453125 
z
" id="ArialMT-32"/>
      </defs>
      <g style="fill:#262626;" transform="translate(49.051484 116.793594)scale(0.11 -0.11)">
       <use xlink:href="#ArialMT-32"/>
      </g>
     </g>
    </g>
    <g id="xtick_2">
     <g id="line2d_2">
      <g>
       <use style="fill:#262626;stroke:#262626;stroke-width:0.8;" x="67.03" xlink:href="#m27ddde378a" y="101.92"/>
      </g>
     </g>
     <g id="text_2">
      <!-- 4 -->
      <defs>
       <path d="M 32.328125 0 
L 32.328125 17.140625 
L 1.265625 17.140625 
L 1.265625 25.203125 
L 33.9375 71.578125 
L 41.109375 71.578125 
L 41.109375 25.203125 
L 50.78125 25.203125 
L 50.78125 17.140625 
L 41.109375 17.140625 
L 41.109375 0 
z
M 32.328125 25.203125 
L 32.328125 57.46875 
L 9.90625 25.203125 
z
" id="ArialMT-34"/>
      </defs>
      <g style="fill:#262626;" transform="translate(63.971484 116.793594)scale(0.11 -0.11)">
       <use xlink:href="#ArialMT-34"/>
      </g>
     </g>
    </g>
    <g id="xtick_3">
     <g id="line2d_3">
      <g>
       <use style="fill:#262626;stroke:#262626;stroke-width:0.8;" x="81.95" xlink:href="#m27ddde378a" y="101.92"/>
      </g>
     </g>
     <g id="text_3">
      <!-- 6 -->
      <defs>
       <path d="M 49.75 54.046875 
L 41.015625 53.375 
Q 39.84375 58.546875 37.703125 60.890625 
Q 34.125 64.65625 28.90625 64.65625 
Q 24.703125 64.65625 21.53125 62.3125 
Q 17.390625 59.28125 14.984375 53.46875 
Q 12.59375 47.65625 12.5 36.921875 
Q 15.671875 41.75 20.265625 44.09375 
Q 24.859375 46.4375 29.890625 46.4375 
Q 38.671875 46.4375 44.84375 39.96875 
Q 51.03125 33.5 51.03125 23.25 
Q 51.03125 16.5 48.125 10.71875 
Q 45.21875 4.9375 40.140625 1.859375 
Q 35.0625 -1.21875 28.609375 -1.21875 
Q 17.625 -1.21875 10.6875 6.859375 
Q 3.765625 14.9375 3.765625 33.5 
Q 3.765625 54.25 11.421875 63.671875 
Q 18.109375 71.875 29.4375 71.875 
Q 37.890625 71.875 43.28125 67.140625 
Q 48.6875 62.40625 49.75 54.046875 
z
M 13.875 23.1875 
Q 13.875 18.65625 15.796875 14.5 
Q 17.71875 10.359375 21.1875 8.171875 
Q 24.65625 6 28.46875 6 
Q 34.03125 6 38.03125 10.484375 
Q 42.046875 14.984375 42.046875 22.703125 
Q 42.046875 30.125 38.078125 34.390625 
Q 34.125 38.671875 28.125 38.671875 
Q 22.171875 38.671875 18.015625 34.390625 
Q 13.875 30.125 13.875 23.1875 
z
" id="ArialMT-36"/>
      </defs>
      <g style="fill:#262626;" transform="translate(78.891484 116.793594)scale(0.11 -0.11)">
       <use xlink:href="#ArialMT-36"/>
      </g>
     </g>
    </g>
    <g id="xtick_4">
     <g id="line2d_4">
      <g>
       <use style="fill:#262626;stroke:#262626;stroke-width:0.8;" x="96.87" xlink:href="#m27ddde378a" y="101.92"/>
      </g>
     </g>
     <g id="text_4">
      <!-- 8 -->
      <defs>
       <path d="M 17.671875 38.8125 
Q 12.203125 40.828125 9.5625 44.53125 
Q 6.9375 48.25 6.9375 53.421875 
Q 6.9375 61.234375 12.546875 66.546875 
Q 18.171875 71.875 27.484375 71.875 
Q 36.859375 71.875 42.578125 66.421875 
Q 48.296875 60.984375 48.296875 53.171875 
Q 48.296875 48.1875 45.671875 44.5 
Q 43.0625 40.828125 37.75 38.8125 
Q 44.34375 36.671875 47.78125 31.875 
Q 51.21875 27.09375 51.21875 20.453125 
Q 51.21875 11.28125 44.71875 5.03125 
Q 38.234375 -1.21875 27.640625 -1.21875 
Q 17.046875 -1.21875 10.546875 5.046875 
Q 4.046875 11.328125 4.046875 20.703125 
Q 4.046875 27.6875 7.59375 32.390625 
Q 11.140625 37.109375 17.671875 38.8125 
z
M 15.921875 53.71875 
Q 15.921875 48.640625 19.1875 45.40625 
Q 22.46875 42.1875 27.6875 42.1875 
Q 32.765625 42.1875 36.015625 45.375 
Q 39.265625 48.578125 39.265625 53.21875 
Q 39.265625 58.0625 35.90625 61.359375 
Q 32.5625 64.65625 27.59375 64.65625 
Q 22.5625 64.65625 19.234375 61.421875 
Q 15.921875 58.203125 15.921875 53.71875 
z
M 13.09375 20.65625 
Q 13.09375 16.890625 14.875 13.375 
Q 16.65625 9.859375 20.171875 7.921875 
Q 23.6875 6 27.734375 6 
Q 34.03125 6 38.125 10.046875 
Q 42.234375 14.109375 42.234375 20.359375 
Q 42.234375 26.703125 38.015625 30.859375 
Q 33.796875 35.015625 27.4375 35.015625 
Q 21.234375 35.015625 17.15625 30.90625 
Q 13.09375 26.8125 13.09375 20.65625 
z
" id="ArialMT-38"/>
      </defs>
      <g style="fill:#262626;" transform="translate(93.811484 116.793594)scale(0.11 -0.11)">
       <use xlink:href="#ArialMT-38"/>
      </g>
     </g>
    </g>
    <g id="xtick_5">
     <g id="line2d_5">
      <g>
       <use style="fill:#262626;stroke:#262626;stroke-width:0.8;" x="111.79" xlink:href="#m27ddde378a" y="101.92"/>
      </g>
     </g>
     <g id="text_5">
      <!-- 10 -->
      <defs>
       <path d="M 37.25 0 
L 28.46875 0 
L 28.46875 56 
Q 25.296875 52.984375 20.140625 49.953125 
Q 14.984375 46.921875 10.890625 45.40625 
L 10.890625 53.90625 
Q 18.265625 57.375 23.78125 62.296875 
Q 29.296875 67.234375 31.59375 71.875 
L 37.25 71.875 
z
" id="ArialMT-31"/>
       <path d="M 4.15625 35.296875 
Q 4.15625 48 6.765625 55.734375 
Q 9.375 63.484375 14.515625 67.671875 
Q 19.671875 71.875 27.484375 71.875 
Q 33.25 71.875 37.59375 69.546875 
Q 41.9375 67.234375 44.765625 62.859375 
Q 47.609375 58.5 49.21875 52.21875 
Q 50.828125 45.953125 50.828125 35.296875 
Q 50.828125 22.703125 48.234375 14.96875 
Q 45.65625 7.234375 40.5 3 
Q 35.359375 -1.21875 27.484375 -1.21875 
Q 17.140625 -1.21875 11.234375 6.203125 
Q 4.15625 15.140625 4.15625 35.296875 
z
M 13.1875 35.296875 
Q 13.1875 17.671875 17.3125 11.828125 
Q 21.4375 6 27.484375 6 
Q 33.546875 6 37.671875 11.859375 
Q 41.796875 17.71875 41.796875 35.296875 
Q 41.796875 52.984375 37.671875 58.78125 
Q 33.546875 64.59375 27.390625 64.59375 
Q 21.34375 64.59375 17.71875 59.46875 
Q 13.1875 52.9375 13.1875 35.296875 
z
" id="ArialMT-30"/>
      </defs>
      <g style="fill:#262626;" transform="translate(105.672969 116.793594)scale(0.11 -0.11)">
       <use xlink:href="#ArialMT-31"/>
       <use x="55.615234" xlink:href="#ArialMT-30"/>
      </g>
     </g>
    </g>
    <g id="xtick_6">
     <g id="line2d_6">
      <g>
       <use style="fill:#262626;stroke:#262626;stroke-width:0.8;" x="126.71" xlink:href="#m27ddde378a" y="101.92"/>
      </g>
     </g>
     <g id="text_6">
      <!-- 12 -->
      <g style="fill:#262626;" transform="translate(120.592969 116.793594)scale(0.11 -0.11)">
       <use xlink:href="#ArialMT-31"/>
       <use x="55.615234" xlink:href="#ArialMT-32"/>
      </g>
     </g>
    </g>
    <g id="text_7">
     <!-- pH -->
     <defs>
      <path d="M 6.59375 -19.875 
L 6.59375 51.859375 
L 14.59375 51.859375 
L 14.59375 45.125 
Q 17.4375 49.078125 21 51.046875 
Q 24.5625 53.03125 29.640625 53.03125 
Q 36.28125 53.03125 41.359375 49.609375 
Q 46.4375 46.1875 49.015625 39.953125 
Q 51.609375 33.734375 51.609375 26.3125 
Q 51.609375 18.359375 48.75 11.984375 
Q 45.90625 5.609375 40.453125 2.21875 
Q 35.015625 -1.171875 29 -1.171875 
Q 24.609375 -1.171875 21.109375 0.6875 
Q 17.625 2.546875 15.375 5.375 
L 15.375 -19.875 
z
M 14.546875 25.640625 
Q 14.546875 15.625 18.59375 10.84375 
Q 22.65625 6.0625 28.421875 6.0625 
Q 34.28125 6.0625 38.453125 11.015625 
Q 42.625 15.96875 42.625 26.375 
Q 42.625 36.28125 38.546875 41.203125 
Q 34.46875 46.140625 28.8125 46.140625 
Q 23.1875 46.140625 18.859375 40.890625 
Q 14.546875 35.640625 14.546875 25.640625 
z
" id="ArialMT-70"/>
      <path d="M 8.015625 0 
L 8.015625 71.578125 
L 17.484375 71.578125 
L 17.484375 42.1875 
L 54.6875 42.1875 
L 54.6875 71.578125 
L 64.15625 71.578125 
L 64.15625 0 
L 54.6875 0 
L 54.6875 33.734375 
L 17.484375 33.734375 
L 17.484375 0 
z
" id="ArialMT-48"/>
     </defs>
     <g style="fill:#262626;" transform="translate(82.379453 130.853437)scale(0.11 -0.11)">
      <use xlink:href="#ArialMT-70"/>
      <use x="55.615234" xlink:href="#ArialMT-48"/>
     </g>
    </g>
   </g>
   <g id="matplotlib.axis_2">
    <g id="ytick_1">
     <g id="line2d_7">
      <defs>
       <path d="M 0 0 
L -3.5 0 
" id="m17139e4a57" style="stroke:#262626;stroke-width:0.8;"/>
      </defs>
      <g>
       <use style="fill:#262626;stroke:#262626;stroke-width:0.8;" x="48.38" xlink:href="#m17139e4a57" y="99.383397"/>
      </g>
     </g>
     <g id="text_8">
      <!-- −1 -->
      <defs>
       <path d="M 52.828125 31.203125 
L 5.5625 31.203125 
L 5.5625 39.40625 
L 52.828125 39.40625 
z
" id="ArialMT-2212"/>
      </defs>
      <g style="fill:#262626;" transform="translate(28.838281 103.320194)scale(0.11 -0.11)">
       <use xlink:href="#ArialMT-2212"/>
       <use x="58.398438" xlink:href="#ArialMT-31"/>
      </g>
     </g>
    </g>
    <g id="ytick_2">
     <g id="line2d_8">
      <g>
       <use style="fill:#262626;stroke:#262626;stroke-width:0.8;" x="48.38" xlink:href="#m17139e4a57" y="75.808513"/>
      </g>
     </g>
     <g id="text_9">
      <!-- 0 -->
      <g style="fill:#262626;" transform="translate(35.262969 79.745309)scale(0.11 -0.11)">
       <use xlink:href="#ArialMT-30"/>
      </g>
     </g>
    </g>
    <g id="ytick_3">
     <g id="line2d_9">
      <g>
       <use style="fill:#262626;stroke:#262626;stroke-width:0.8;" x="48.38" xlink:href="#m17139e4a57" y="52.233628"/>
      </g>
     </g>
     <g id="text_10">
      <!-- 1 -->
      <g style="fill:#262626;" transform="translate(35.262969 56.170425)scale(0.11 -0.11)">
       <use xlink:href="#ArialMT-31"/>
      </g>
     </g>
    </g>
    <g id="ytick_4">
     <g id="line2d_10">
      <g>
       <use style="fill:#262626;stroke:#262626;stroke-width:0.8;" x="48.38" xlink:href="#m17139e4a57" y="28.658744"/>
      </g>
     </g>
     <g id="text_11">
      <!-- 2 -->
      <g style="fill:#262626;" transform="translate(35.262969 32.595541)scale(0.11 -0.11)">
       <use xlink:href="#ArialMT-32"/>
      </g>
     </g>
    </g>
    <g id="text_12">
     <!-- $\langle q_\mathsf{total} \rangle$ -->
     <defs>
      <path d="M 8.9375 31.34375 
L 22.703125 75.875 
L 31 75.875 
L 17.234375 31.34375 
L 31 -13.1875 
L 22.703125 -13.1875 
z
" id="DejaVuSans-27e8"/>
      <path d="M 41.703125 8.203125 
Q 38.09375 3.46875 33.171875 1.015625 
Q 28.265625 -1.421875 22.3125 -1.421875 
Q 14.015625 -1.421875 9.296875 4.171875 
Q 4.59375 9.765625 4.59375 19.578125 
Q 4.59375 27.484375 7.5 34.859375 
Q 10.40625 42.234375 15.828125 48.09375 
Q 19.34375 51.90625 23.90625 53.953125 
Q 28.46875 56 33.5 56 
Q 39.546875 56 43.453125 53.609375 
Q 47.359375 51.21875 49.125 46.390625 
L 50.6875 54.59375 
L 59.71875 54.59375 
L 45.125 -20.609375 
L 36.078125 -20.609375 
z
M 13.921875 20.90625 
Q 13.921875 13.671875 16.9375 9.890625 
Q 19.96875 6.109375 25.6875 6.109375 
Q 34.1875 6.109375 40.1875 14.234375 
Q 46.1875 22.359375 46.1875 33.984375 
Q 46.1875 41.015625 43.078125 44.75 
Q 39.984375 48.484375 34.1875 48.484375 
Q 29.9375 48.484375 26.3125 46.5 
Q 22.703125 44.53125 20.015625 40.71875 
Q 17.1875 36.71875 15.546875 31.34375 
Q 13.921875 25.984375 13.921875 20.90625 
z
" id="DejaVuSans-Oblique-71"/>
      <path d="M 18.3125 70.21875 
L 18.3125 54.6875 
L 36.8125 54.6875 
L 36.8125 47.703125 
L 18.3125 47.703125 
L 18.3125 18.015625 
Q 18.3125 11.328125 20.140625 9.421875 
Q 21.96875 7.515625 27.59375 7.515625 
L 36.8125 7.515625 
L 36.8125 0 
L 27.59375 0 
Q 17.1875 0 13.234375 3.875 
Q 9.28125 7.765625 9.28125 18.015625 
L 9.28125 47.703125 
L 2.6875 47.703125 
L 2.6875 54.6875 
L 9.28125 54.6875 
L 9.28125 70.21875 
z
" id="DejaVuSans-74"/>
      <path d="M 30.609375 48.390625 
Q 23.390625 48.390625 19.1875 42.75 
Q 14.984375 37.109375 14.984375 27.296875 
Q 14.984375 17.484375 19.15625 11.84375 
Q 23.34375 6.203125 30.609375 6.203125 
Q 37.796875 6.203125 41.984375 11.859375 
Q 46.1875 17.53125 46.1875 27.296875 
Q 46.1875 37.015625 41.984375 42.703125 
Q 37.796875 48.390625 30.609375 48.390625 
z
M 30.609375 56 
Q 42.328125 56 49.015625 48.375 
Q 55.71875 40.765625 55.71875 27.296875 
Q 55.71875 13.875 49.015625 6.21875 
Q 42.328125 -1.421875 30.609375 -1.421875 
Q 18.84375 -1.421875 12.171875 6.21875 
Q 5.515625 13.875 5.515625 27.296875 
Q 5.515625 40.765625 12.171875 48.375 
Q 18.84375 56 30.609375 56 
z
" id="DejaVuSans-6f"/>
      <path d="M 34.28125 27.484375 
Q 23.390625 27.484375 19.1875 25 
Q 14.984375 22.515625 14.984375 16.5 
Q 14.984375 11.71875 18.140625 8.90625 
Q 21.296875 6.109375 26.703125 6.109375 
Q 34.1875 6.109375 38.703125 11.40625 
Q 43.21875 16.703125 43.21875 25.484375 
L 43.21875 27.484375 
z
M 52.203125 31.203125 
L 52.203125 0 
L 43.21875 0 
L 43.21875 8.296875 
Q 40.140625 3.328125 35.546875 0.953125 
Q 30.953125 -1.421875 24.3125 -1.421875 
Q 15.921875 -1.421875 10.953125 3.296875 
Q 6 8.015625 6 15.921875 
Q 6 25.140625 12.171875 29.828125 
Q 18.359375 34.515625 30.609375 34.515625 
L 43.21875 34.515625 
L 43.21875 35.40625 
Q 43.21875 41.609375 39.140625 45 
Q 35.0625 48.390625 27.6875 48.390625 
Q 23 48.390625 18.546875 47.265625 
Q 14.109375 46.140625 10.015625 43.890625 
L 10.015625 52.203125 
Q 14.9375 54.109375 19.578125 55.046875 
Q 24.21875 56 28.609375 56 
Q 40.484375 56 46.34375 49.84375 
Q 52.203125 43.703125 52.203125 31.203125 
z
" id="DejaVuSans-61"/>
      <path d="M 9.421875 75.984375 
L 18.40625 75.984375 
L 18.40625 0 
L 9.421875 0 
z
" id="DejaVuSans-6c"/>
      <path d="M 30.078125 31.34375 
L 16.3125 -13.1875 
L 8.015625 -13.1875 
L 21.78125 31.34375 
L 8.015625 75.875 
L 16.3125 75.875 
z
" id="DejaVuSans-27e9"/>
     </defs>
     <g style="fill:#262626;" transform="translate(22.528281 81.475)rotate(-90)scale(0.11 -0.11)">
      <use transform="translate(0 0.125)" xlink:href="#DejaVuSans-27e8"/>
      <use transform="translate(39.013672 0.125)" xlink:href="#DejaVuSans-Oblique-71"/>
      <use transform="translate(102.490234 -16.28125)scale(0.7)" xlink:href="#DejaVuSans-74"/>
      <use transform="translate(129.936523 -16.28125)scale(0.7)" xlink:href="#DejaVuSans-6f"/>
      <use transform="translate(172.763672 -16.28125)scale(0.7)" xlink:href="#DejaVuSans-74"/>
      <use transform="translate(200.209961 -16.28125)scale(0.7)" xlink:href="#DejaVuSans-61"/>
      <use transform="translate(243.105469 -16.28125)scale(0.7)" xlink:href="#DejaVuSans-6c"/>
      <use transform="translate(265.288086 0.125)" xlink:href="#DejaVuSans-27e9"/>
     </g>
    </g>
   </g>
   <g id="PolyCollection_1">
    <defs>
     <path d="M 52.11 -89.754037 
L 52.11 -89.754037 
L 52.856 -89.287774 
L 53.602 -88.728696 
L 54.348 -88.065633 
L 55.094 -87.289387 
L 55.84 -86.394331 
L 56.586 -85.38017 
L 57.332 -84.253571 
L 58.078 -83.02925 
L 58.824 -81.730077 
L 59.57 -80.385892 
L 60.316 -79.031025 
L 61.062 -77.700908 
L 61.808 -76.428443 
L 62.554 -75.240911 
L 63.3 -74.157986 
L 64.046 -73.191089 
L 64.792 -72.343931 
L 65.538 -71.613872 
L 66.284 -70.99365 
L 67.03 -70.473102 
L 67.776 -70.040646 
L 68.522 -69.684411 
L 69.268 -69.393007 
L 70.014 -69.155999 
L 70.76 -68.964127 
L 71.506 -68.809381 
L 72.252 -68.684957 
L 72.998 -68.585158 
L 73.744 -68.505268 
L 74.49 -68.441415 
L 75.236 -68.390443 
L 75.982 -68.349796 
L 76.728 -68.317407 
L 77.474 -68.291615 
L 78.22 -68.271086 
L 78.966 -68.254753 
L 79.712 -68.241761 
L 80.458 -68.231428 
L 81.204 -68.223212 
L 81.95 -68.216678 
L 82.696 -68.211482 
L 83.442 -68.207347 
L 84.188 -68.204056 
L 84.934 -68.201432 
L 85.68 -68.199337 
L 86.426 -68.19766 
L 87.172 -68.196312 
L 87.918 -68.19522 
L 88.664 -68.194326 
L 89.41 -68.193584 
L 90.156 -68.192954 
L 90.902 -68.192401 
L 91.648 -68.191897 
L 92.394 -68.191416 
L 93.14 -68.19093 
L 93.886 -68.190414 
L 94.632 -68.189842 
L 95.378 -68.189181 
L 96.124 -68.188398 
L 96.87 -68.187451 
L 97.616 -68.186289 
L 98.362 -68.18485 
L 99.108 -68.183058 
L 99.854 -68.180817 
L 100.6 -68.178009 
L 101.346 -68.174485 
L 102.092 -68.170057 
L 102.838 -68.164491 
L 103.584 -68.157492 
L 104.33 -68.148691 
L 105.076 -68.137624 
L 105.822 -68.123708 
L 106.568 -68.106215 
L 107.314 -68.08423 
L 108.06 -68.056612 
L 108.806 -68.021937 
L 109.552 -67.97843 
L 110.298 -67.923888 
L 111.044 -67.855585 
L 111.79 -67.770164 
L 112.536 -67.663515 
L 113.282 -67.530641 
L 114.028 -67.365525 
L 114.774 -67.16101 
L 115.52 -66.908711 
L 116.266 -66.599004 
L 117.012 -66.221132 
L 117.758 -65.763499 
L 118.504 -65.214226 
L 119.25 -64.562019 
L 119.996 -63.797417 
L 120.742 -62.914358 
L 121.488 -61.911933 
L 122.234 -60.796052 
L 122.98 -59.580604 
L 123.726 -58.287673 
L 124.472 -56.946494 
L 125.218 -55.59109 
L 125.964 -54.256949 
L 126.71 -52.977378 
L 126.71 -52.977378 
L 126.71 -45.110109 
L 125.964 -45.23454 
L 125.218 -45.389296 
L 124.472 -45.581179 
L 123.726 -45.818203 
L 122.98 -46.109624 
L 122.234 -46.46588 
L 121.488 -46.898361 
L 120.742 -47.418937 
L 119.996 -48.039192 
L 119.25 -48.769285 
L 118.504 -49.616479 
L 117.758 -50.583412 
L 117.012 -51.666371 
L 116.266 -52.853933 
L 115.52 -54.126421 
L 114.774 -55.456553 
L 114.028 -56.811424 
L 113.282 -58.155604 
L 112.536 -59.454762 
L 111.79 -60.679062 
L 111.044 -61.805636 
L 110.298 -62.81977 
L 109.552 -63.7148 
L 108.806 -64.491023 
L 108.06 -65.154069 
L 107.314 -65.713138 
L 106.568 -66.1794 
L 105.822 -66.564725 
L 105.076 -66.880768 
L 104.33 -67.138387 
L 103.584 -67.347331 
L 102.838 -67.516112 
L 102.092 -67.652011 
L 101.346 -67.761158 
L 100.6 -67.848652 
L 99.854 -67.918695 
L 99.108 -67.974723 
L 98.362 -68.019533 
L 97.616 -68.055392 
L 96.87 -68.084134 
L 96.124 -68.107242 
L 95.378 -68.125916 
L 94.632 -68.141131 
L 93.886 -68.153685 
L 93.14 -68.164239 
L 92.394 -68.17335 
L 91.648 -68.1815 
L 90.902 -68.189121 
L 90.156 -68.196615 
L 89.41 -68.204382 
L 88.664 -68.212833 
L 87.918 -68.222415 
L 87.172 -68.233634 
L 86.426 -68.247083 
L 85.68 -68.263469 
L 84.934 -68.28365 
L 84.188 -68.308679 
L 83.442 -68.339853 
L 82.696 -68.378779 
L 81.95 -68.427442 
L 81.204 -68.488296 
L 80.458 -68.564369 
L 79.712 -68.659376 
L 78.966 -68.777853 
L 78.22 -68.925292 
L 77.474 -69.108284 
L 76.728 -69.33463 
L 75.982 -69.613414 
L 75.236 -69.954983 
L 74.49 -70.370787 
L 73.744 -70.873007 
L 72.998 -71.473898 
L 72.252 -72.184793 
L 71.506 -73.014754 
L 70.76 -73.968941 
L 70.014 -75.046895 
L 69.268 -76.241085 
L 68.522 -77.536138 
L 67.776 -78.909189 
L 67.03 -80.331566 
L 66.284 -81.771713 
L 65.538 -83.198855 
L 64.792 -84.58668 
L 64.046 -85.916273 
L 63.3 -87.177823 
L 62.554 -88.370957 
L 61.808 -89.503898 
L 61.062 -90.59181 
L 60.316 -91.654704 
L 59.57 -92.715158 
L 58.824 -93.796 
L 58.078 -94.917974 
L 57.332 -96.097451 
L 56.586 -97.344278 
L 55.84 -98.659999 
L 55.094 -100.036812 
L 54.348 -101.457631 
L 53.602 -102.897495 
L 52.856 -104.326281 
L 52.11 -105.71228 
z
" id="m431fb16b64" style="stroke:#ffffff;stroke-opacity:0.7;"/>
    </defs>
    <g clip-path="url(#pe4b10a9f28)">
     <use style="fill:#b1400d;fill-opacity:0.7;stroke:#ffffff;stroke-opacity:0.7;" x="0" xlink:href="#m431fb16b64" y="144"/>
    </g>
   </g>
   <g id="line2d_11">
    <path clip-path="url(#pe4b10a9f28)" d="M 52.11 54.245963 
L 52.856 54.712226 
L 53.602 55.271304 
L 54.348 55.934367 
L 55.094 56.710613 
L 55.84 57.605669 
L 56.586 58.61983 
L 57.332 59.746429 
L 58.078 60.97075 
L 58.824 62.269923 
L 59.57 63.614108 
L 60.316 64.968975 
L 61.062 66.299092 
L 61.808 67.571557 
L 62.554 68.759089 
L 63.3 69.842014 
L 64.046 70.808911 
L 64.792 71.656069 
L 65.538 72.386128 
L 66.284 73.00635 
L 67.03 73.526898 
L 67.776 73.959354 
L 68.522 74.315589 
L 69.268 74.606993 
L 70.014 74.844001 
L 70.76 75.035873 
L 71.506 75.190619 
L 72.252 75.315043 
L 72.998 75.414842 
L 73.744 75.494732 
L 74.49 75.558585 
L 75.236 75.609557 
L 75.982 75.650204 
L 76.728 75.682593 
L 77.474 75.708385 
L 78.22 75.728914 
L 78.966 75.745247 
L 79.712 75.758239 
L 80.458 75.768572 
L 81.204 75.776788 
L 81.95 75.783322 
L 82.696 75.788518 
L 83.442 75.792653 
L 84.188 75.795944 
L 84.934 75.798568 
L 85.68 75.800663 
L 86.426 75.80234 
L 87.172 75.803688 
L 87.918 75.80478 
L 88.664 75.805674 
L 89.41 75.806416 
L 90.156 75.807046 
L 90.902 75.807599 
L 91.648 75.808103 
L 92.394 75.808584 
L 93.14 75.80907 
L 93.886 75.809586 
L 94.632 75.810158 
L 95.378 75.810819 
L 96.124 75.811602 
L 96.87 75.812549 
L 97.616 75.813711 
L 98.362 75.81515 
L 99.108 75.816942 
L 99.854 75.819183 
L 100.6 75.821991 
L 101.346 75.825515 
L 102.092 75.829943 
L 102.838 75.835509 
L 103.584 75.842508 
L 104.33 75.851309 
L 105.076 75.862376 
L 105.822 75.876292 
L 106.568 75.893785 
L 107.314 75.91577 
L 108.06 75.943388 
L 108.806 75.978063 
L 109.552 76.02157 
L 110.298 76.076112 
L 111.044 76.144415 
L 111.79 76.229836 
L 112.536 76.336485 
L 113.282 76.469359 
L 114.028 76.634475 
L 114.774 76.83899 
L 115.52 77.091289 
L 116.266 77.400996 
L 117.012 77.778868 
L 117.758 78.236501 
L 118.504 78.785774 
L 119.25 79.437981 
L 119.996 80.202583 
L 120.742 81.085642 
L 121.488 82.088067 
L 122.234 83.203948 
L 122.98 84.419396 
L 123.726 85.712327 
L 124.472 87.053506 
L 125.218 88.40891 
L 125.964 89.743051 
L 126.71 91.022622 
" style="fill:none;stroke:#333333;stroke-dasharray:1.5,2.475;stroke-dashoffset:0;stroke-width:1.5;"/>
   </g>
   <g id="line2d_12">
    <path clip-path="url(#pe4b10a9f28)" d="M 52.11 38.28772 
L 52.856 39.673719 
L 53.602 41.102505 
L 54.348 42.542369 
L 55.094 43.963188 
L 55.84 45.340001 
L 56.586 46.655722 
L 57.332 47.902549 
L 58.078 49.082026 
L 58.824 50.204 
L 59.57 51.284842 
L 60.316 52.345296 
L 61.062 53.40819 
L 61.808 54.496102 
L 62.554 55.629043 
L 63.3 56.822177 
L 64.046 58.083727 
L 64.792 59.41332 
L 65.538 60.801145 
L 66.284 62.228287 
L 67.03 63.668434 
L 67.776 65.090811 
L 68.522 66.463862 
L 69.268 67.758915 
L 70.014 68.953105 
L 70.76 70.031059 
L 71.506 70.985246 
L 72.252 71.815207 
L 72.998 72.526102 
L 73.744 73.126993 
L 74.49 73.629213 
L 75.236 74.045017 
L 75.982 74.386586 
L 76.728 74.66537 
L 77.474 74.891716 
L 78.22 75.074708 
L 78.966 75.222147 
L 79.712 75.340624 
L 80.458 75.435631 
L 81.204 75.511704 
L 81.95 75.572558 
L 82.696 75.621221 
L 83.442 75.660147 
L 84.188 75.691321 
L 84.934 75.71635 
L 85.68 75.736531 
L 86.426 75.752917 
L 87.172 75.766366 
L 87.918 75.777585 
L 88.664 75.787167 
L 89.41 75.795618 
L 90.156 75.803385 
L 90.902 75.810879 
L 91.648 75.8185 
L 92.394 75.82665 
L 93.14 75.835761 
L 93.886 75.846315 
L 94.632 75.858869 
L 95.378 75.874084 
L 96.124 75.892758 
L 96.87 75.915866 
L 97.616 75.944608 
L 98.362 75.980467 
L 99.108 76.025277 
L 99.854 76.081305 
L 100.6 76.151348 
L 101.346 76.238842 
L 102.092 76.347989 
L 102.838 76.483888 
L 103.584 76.652669 
L 104.33 76.861613 
L 105.076 77.119232 
L 105.822 77.435275 
L 106.568 77.8206 
L 107.314 78.286862 
L 108.06 78.845931 
L 108.806 79.508977 
L 109.552 80.2852 
L 110.298 81.18023 
L 111.044 82.194364 
L 111.79 83.320938 
L 112.536 84.545238 
L 113.282 85.844396 
L 114.028 87.188576 
L 114.774 88.543447 
L 115.52 89.873579 
L 116.266 91.146067 
L 117.012 92.333629 
L 117.758 93.416588 
L 118.504 94.383521 
L 119.25 95.230715 
L 119.996 95.960808 
L 120.742 96.581063 
L 121.488 97.101639 
L 122.234 97.53412 
L 122.98 97.890376 
L 123.726 98.181797 
L 124.472 98.418821 
L 125.218 98.610704 
L 125.964 98.76546 
L 126.71 98.889891 
" style="fill:none;stroke:#333333;stroke-linecap:round;stroke-width:1.5;"/>
   </g>
   <g id="patch_3">
    <path d="M 48.38 101.92 
L 48.38 27.48 
" style="fill:none;stroke:#262626;stroke-linecap:square;stroke-linejoin:miter;stroke-width:0.8;"/>
   </g>
   <g id="patch_4">
    <path d="M 48.38 101.92 
L 130.44 101.92 
" style="fill:none;stroke:#262626;stroke-linecap:square;stroke-linejoin:miter;stroke-width:0.8;"/>
   </g>
   <g id="text_13">
    <!-- $\Delta$ area : 2.61 -->
    <defs>
     <path d="M 34.1875 63.1875 
L 14.15625 8.203125 
L 54.25 8.203125 
z
M 0.78125 0 
L 28.609375 72.90625 
L 39.796875 72.90625 
L 67.578125 0 
z
" id="DejaVuSans-394"/>
     <path id="ArialMT-20"/>
     <path d="M 40.4375 6.390625 
Q 35.546875 2.25 31.03125 0.53125 
Q 26.515625 -1.171875 21.34375 -1.171875 
Q 12.796875 -1.171875 8.203125 3 
Q 3.609375 7.171875 3.609375 13.671875 
Q 3.609375 17.484375 5.34375 20.625 
Q 7.078125 23.78125 9.890625 25.6875 
Q 12.703125 27.59375 16.21875 28.5625 
Q 18.796875 29.25 24.03125 29.890625 
Q 34.671875 31.15625 39.703125 32.90625 
Q 39.75 34.71875 39.75 35.203125 
Q 39.75 40.578125 37.25 42.78125 
Q 33.890625 45.75 27.25 45.75 
Q 21.046875 45.75 18.09375 43.578125 
Q 15.140625 41.40625 13.71875 35.890625 
L 5.125 37.0625 
Q 6.296875 42.578125 8.984375 45.96875 
Q 11.671875 49.359375 16.75 51.1875 
Q 21.828125 53.03125 28.515625 53.03125 
Q 35.15625 53.03125 39.296875 51.46875 
Q 43.453125 49.90625 45.40625 47.53125 
Q 47.359375 45.171875 48.140625 41.546875 
Q 48.578125 39.3125 48.578125 33.453125 
L 48.578125 21.734375 
Q 48.578125 9.46875 49.140625 6.21875 
Q 49.703125 2.984375 51.375 0 
L 42.1875 0 
Q 40.828125 2.734375 40.4375 6.390625 
z
M 39.703125 26.03125 
Q 34.90625 24.078125 25.34375 22.703125 
Q 19.921875 21.921875 17.671875 20.9375 
Q 15.4375 19.96875 14.203125 18.09375 
Q 12.984375 16.21875 12.984375 13.921875 
Q 12.984375 10.40625 15.640625 8.0625 
Q 18.3125 5.71875 23.4375 5.71875 
Q 28.515625 5.71875 32.46875 7.9375 
Q 36.421875 10.15625 38.28125 14.015625 
Q 39.703125 17 39.703125 22.796875 
z
" id="ArialMT-61"/>
     <path d="M 6.5 0 
L 6.5 51.859375 
L 14.40625 51.859375 
L 14.40625 44 
Q 17.4375 49.515625 20 51.265625 
Q 22.5625 53.03125 25.640625 53.03125 
Q 30.078125 53.03125 34.671875 50.203125 
L 31.640625 42.046875 
Q 28.421875 43.953125 25.203125 43.953125 
Q 22.3125 43.953125 20.015625 42.21875 
Q 17.71875 40.484375 16.75 37.40625 
Q 15.28125 32.71875 15.28125 27.15625 
L 15.28125 0 
z
" id="ArialMT-72"/>
     <path d="M 42.09375 16.703125 
L 51.171875 15.578125 
Q 49.03125 7.625 43.21875 3.21875 
Q 37.40625 -1.171875 28.375 -1.171875 
Q 17 -1.171875 10.328125 5.828125 
Q 3.65625 12.84375 3.65625 25.484375 
Q 3.65625 38.578125 10.390625 45.796875 
Q 17.140625 53.03125 27.875 53.03125 
Q 38.28125 53.03125 44.875 45.953125 
Q 51.46875 38.875 51.46875 26.03125 
Q 51.46875 25.25 51.421875 23.6875 
L 12.75 23.6875 
Q 13.234375 15.140625 17.578125 10.59375 
Q 21.921875 6.0625 28.421875 6.0625 
Q 33.25 6.0625 36.671875 8.59375 
Q 40.09375 11.140625 42.09375 16.703125 
z
M 13.234375 30.90625 
L 42.1875 30.90625 
Q 41.609375 37.453125 38.875 40.71875 
Q 34.671875 45.796875 27.984375 45.796875 
Q 21.921875 45.796875 17.796875 41.75 
Q 13.671875 37.703125 13.234375 30.90625 
z
" id="ArialMT-65"/>
     <path d="M 9.03125 41.84375 
L 9.03125 51.859375 
L 19.046875 51.859375 
L 19.046875 41.84375 
z
M 9.03125 0 
L 9.03125 10.015625 
L 19.046875 10.015625 
L 19.046875 0 
z
" id="ArialMT-3a"/>
     <path d="M 9.078125 0 
L 9.078125 10.015625 
L 19.09375 10.015625 
L 19.09375 0 
z
" id="ArialMT-2e"/>
    </defs>
    <g style="fill:#262626;" transform="translate(51.46 21.48)scale(0.132 -0.132)">
     <use transform="translate(0 0.09375)" xlink:href="#DejaVuSans-394"/>
     <use transform="translate(68.408203 0.09375)" xlink:href="#ArialMT-20"/>
     <use transform="translate(96.191406 0.09375)" xlink:href="#ArialMT-61"/>
     <use transform="translate(151.806641 0.09375)" xlink:href="#ArialMT-72"/>
     <use transform="translate(185.107422 0.09375)" xlink:href="#ArialMT-65"/>
     <use transform="translate(240.722656 0.09375)" xlink:href="#ArialMT-61"/>
     <use transform="translate(296.337891 0.09375)" xlink:href="#ArialMT-20"/>
     <use transform="translate(324.121094 0.09375)" xlink:href="#ArialMT-3a"/>
     <use transform="translate(351.904297 0.09375)" xlink:href="#ArialMT-20"/>
     <use transform="translate(379.6875 0.09375)" xlink:href="#ArialMT-32"/>
     <use transform="translate(435.302734 0.09375)" xlink:href="#ArialMT-2e"/>
     <use transform="translate(463.085938 0.09375)" xlink:href="#ArialMT-36"/>
     <use transform="translate(518.701172 0.09375)" xlink:href="#ArialMT-31"/>
    </g>
   </g>
  </g>
 </g>
 <defs>
  <clipPath id="pe4b10a9f28">
   <rect height="74.44" width="82.06" x="48.38" y="27.48"/>
  </clipPath>
 </defs>
</svg>
