<?xml version="1.0" encoding="utf-8" standalone="no"?>
<!DOCTYPE svg PUBLIC "-//W3C//DTD SVG 1.1//EN"
  "http://www.w3.org/Graphics/SVG/1.1/DTD/svg11.dtd">
<!-- Created with matplotlib (http://matplotlib.org/) -->
<svg height="216pt" version="1.1" viewBox="0 0 216 216" width="216pt" xmlns="http://www.w3.org/2000/svg" xmlns:xlink="http://www.w3.org/1999/xlink">
 <defs>
  <style type="text/css">
*{stroke-linecap:butt;stroke-linejoin:round;}
  </style>
 </defs>
 <g id="figure_1">
  <g id="patch_1">
   <path d="M 0 216 
L 216 216 
L 216 0 
L 0 0 
z
" style="fill:#ffffff;"/>
  </g>
  <g id="axes_1">
   <g id="patch_2">
    <path d="M 44.78 175.96 
L 203.52 175.96 
L 203.52 25.44 
L 44.78 25.44 
z
" style="fill:#ffffff;"/>
   </g>
   <g id="matplotlib.axis_1">
    <g id="xtick_1">
     <g id="line2d_1">
      <defs>
       <path d="M 0 0 
L 0 3.5 
" id="m7f3287dc31" style="stroke:#262626;stroke-width:0.8;"/>
      </defs>
      <g>
       <use style="fill:#262626;stroke:#262626;stroke-width:0.8;" x="51.995455" xlink:href="#m7f3287dc31" y="175.96"/>
      </g>
     </g>
     <g id="text_1">
      <!-- 2 -->
      <defs>
       <path d="M 50.34375 8.453125 
L 50.34375 0 
L 3.03125 0 
Q 2.9375 3.171875 4.046875 6.109375 
Q 5.859375 10.9375 9.828125 15.625 
Q 13.8125 20.3125 21.34375 26.46875 
Q 33.015625 36.03125 37.109375 41.625 
Q 41.21875 47.21875 41.21875 52.203125 
Q 41.21875 57.421875 37.46875 61 
Q 33.734375 64.59375 27.734375 64.59375 
Q 21.390625 64.59375 17.578125 60.78125 
Q 13.765625 56.984375 13.71875 50.25 
L 4.6875 51.171875 
Q 5.609375 61.28125 11.65625 66.578125 
Q 17.71875 71.875 27.9375 71.875 
Q 38.234375 71.875 44.234375 66.15625 
Q 50.25 60.453125 50.25 52 
Q 50.25 47.703125 48.484375 43.546875 
Q 46.734375 39.40625 42.65625 34.8125 
Q 38.578125 30.21875 29.109375 22.21875 
Q 21.1875 15.578125 18.9375 13.203125 
Q 16.703125 10.84375 15.234375 8.453125 
z
" id="ArialMT-32"/>
      </defs>
      <g style="fill:#262626;" transform="translate(49.214986 190.117812)scale(0.1 -0.1)">
       <use xlink:href="#ArialMT-32"/>
      </g>
     </g>
    </g>
    <g id="xtick_2">
     <g id="line2d_2">
      <g>
       <use style="fill:#262626;stroke:#262626;stroke-width:0.8;" x="80.857273" xlink:href="#m7f3287dc31" y="175.96"/>
      </g>
     </g>
     <g id="text_2">
      <!-- 4 -->
      <defs>
       <path d="M 32.328125 0 
L 32.328125 17.140625 
L 1.265625 17.140625 
L 1.265625 25.203125 
L 33.9375 71.578125 
L 41.109375 71.578125 
L 41.109375 25.203125 
L 50.78125 25.203125 
L 50.78125 17.140625 
L 41.109375 17.140625 
L 41.109375 0 
z
M 32.328125 25.203125 
L 32.328125 57.46875 
L 9.90625 25.203125 
z
" id="ArialMT-34"/>
      </defs>
      <g style="fill:#262626;" transform="translate(78.076804 190.117812)scale(0.1 -0.1)">
       <use xlink:href="#ArialMT-34"/>
      </g>
     </g>
    </g>
    <g id="xtick_3">
     <g id="line2d_3">
      <g>
       <use style="fill:#262626;stroke:#262626;stroke-width:0.8;" x="109.719091" xlink:href="#m7f3287dc31" y="175.96"/>
      </g>
     </g>
     <g id="text_3">
      <!-- 6 -->
      <defs>
       <path d="M 49.75 54.046875 
L 41.015625 53.375 
Q 39.84375 58.546875 37.703125 60.890625 
Q 34.125 64.65625 28.90625 64.65625 
Q 24.703125 64.65625 21.53125 62.3125 
Q 17.390625 59.28125 14.984375 53.46875 
Q 12.59375 47.65625 12.5 36.921875 
Q 15.671875 41.75 20.265625 44.09375 
Q 24.859375 46.4375 29.890625 46.4375 
Q 38.671875 46.4375 44.84375 39.96875 
Q 51.03125 33.5 51.03125 23.25 
Q 51.03125 16.5 48.125 10.71875 
Q 45.21875 4.9375 40.140625 1.859375 
Q 35.0625 -1.21875 28.609375 -1.21875 
Q 17.625 -1.21875 10.6875 6.859375 
Q 3.765625 14.9375 3.765625 33.5 
Q 3.765625 54.25 11.421875 63.671875 
Q 18.109375 71.875 29.4375 71.875 
Q 37.890625 71.875 43.28125 67.140625 
Q 48.6875 62.40625 49.75 54.046875 
z
M 13.875 23.1875 
Q 13.875 18.65625 15.796875 14.5 
Q 17.71875 10.359375 21.1875 8.171875 
Q 24.65625 6 28.46875 6 
Q 34.03125 6 38.03125 10.484375 
Q 42.046875 14.984375 42.046875 22.703125 
Q 42.046875 30.125 38.078125 34.390625 
Q 34.125 38.671875 28.125 38.671875 
Q 22.171875 38.671875 18.015625 34.390625 
Q 13.875 30.125 13.875 23.1875 
z
" id="ArialMT-36"/>
      </defs>
      <g style="fill:#262626;" transform="translate(106.938622 190.117812)scale(0.1 -0.1)">
       <use xlink:href="#ArialMT-36"/>
      </g>
     </g>
    </g>
    <g id="xtick_4">
     <g id="line2d_4">
      <g>
       <use style="fill:#262626;stroke:#262626;stroke-width:0.8;" x="138.580909" xlink:href="#m7f3287dc31" y="175.96"/>
      </g>
     </g>
     <g id="text_4">
      <!-- 8 -->
      <defs>
       <path d="M 17.671875 38.8125 
Q 12.203125 40.828125 9.5625 44.53125 
Q 6.9375 48.25 6.9375 53.421875 
Q 6.9375 61.234375 12.546875 66.546875 
Q 18.171875 71.875 27.484375 71.875 
Q 36.859375 71.875 42.578125 66.421875 
Q 48.296875 60.984375 48.296875 53.171875 
Q 48.296875 48.1875 45.671875 44.5 
Q 43.0625 40.828125 37.75 38.8125 
Q 44.34375 36.671875 47.78125 31.875 
Q 51.21875 27.09375 51.21875 20.453125 
Q 51.21875 11.28125 44.71875 5.03125 
Q 38.234375 -1.21875 27.640625 -1.21875 
Q 17.046875 -1.21875 10.546875 5.046875 
Q 4.046875 11.328125 4.046875 20.703125 
Q 4.046875 27.6875 7.59375 32.390625 
Q 11.140625 37.109375 17.671875 38.8125 
z
M 15.921875 53.71875 
Q 15.921875 48.640625 19.1875 45.40625 
Q 22.46875 42.1875 27.6875 42.1875 
Q 32.765625 42.1875 36.015625 45.375 
Q 39.265625 48.578125 39.265625 53.21875 
Q 39.265625 58.0625 35.90625 61.359375 
Q 32.5625 64.65625 27.59375 64.65625 
Q 22.5625 64.65625 19.234375 61.421875 
Q 15.921875 58.203125 15.921875 53.71875 
z
M 13.09375 20.65625 
Q 13.09375 16.890625 14.875 13.375 
Q 16.65625 9.859375 20.171875 7.921875 
Q 23.6875 6 27.734375 6 
Q 34.03125 6 38.125 10.046875 
Q 42.234375 14.109375 42.234375 20.359375 
Q 42.234375 26.703125 38.015625 30.859375 
Q 33.796875 35.015625 27.4375 35.015625 
Q 21.234375 35.015625 17.15625 30.90625 
Q 13.09375 26.8125 13.09375 20.65625 
z
" id="ArialMT-38"/>
      </defs>
      <g style="fill:#262626;" transform="translate(135.80044 190.117812)scale(0.1 -0.1)">
       <use xlink:href="#ArialMT-38"/>
      </g>
     </g>
    </g>
    <g id="xtick_5">
     <g id="line2d_5">
      <g>
       <use style="fill:#262626;stroke:#262626;stroke-width:0.8;" x="167.442727" xlink:href="#m7f3287dc31" y="175.96"/>
      </g>
     </g>
     <g id="text_5">
      <!-- 10 -->
      <defs>
       <path d="M 37.25 0 
L 28.46875 0 
L 28.46875 56 
Q 25.296875 52.984375 20.140625 49.953125 
Q 14.984375 46.921875 10.890625 45.40625 
L 10.890625 53.90625 
Q 18.265625 57.375 23.78125 62.296875 
Q 29.296875 67.234375 31.59375 71.875 
L 37.25 71.875 
z
" id="ArialMT-31"/>
       <path d="M 4.15625 35.296875 
Q 4.15625 48 6.765625 55.734375 
Q 9.375 63.484375 14.515625 67.671875 
Q 19.671875 71.875 27.484375 71.875 
Q 33.25 71.875 37.59375 69.546875 
Q 41.9375 67.234375 44.765625 62.859375 
Q 47.609375 58.5 49.21875 52.21875 
Q 50.828125 45.953125 50.828125 35.296875 
Q 50.828125 22.703125 48.234375 14.96875 
Q 45.65625 7.234375 40.5 3 
Q 35.359375 -1.21875 27.484375 -1.21875 
Q 17.140625 -1.21875 11.234375 6.203125 
Q 4.15625 15.140625 4.15625 35.296875 
z
M 13.1875 35.296875 
Q 13.1875 17.671875 17.3125 11.828125 
Q 21.4375 6 27.484375 6 
Q 33.546875 6 37.671875 11.859375 
Q 41.796875 17.71875 41.796875 35.296875 
Q 41.796875 52.984375 37.671875 58.78125 
Q 33.546875 64.59375 27.390625 64.59375 
Q 21.34375 64.59375 17.71875 59.46875 
Q 13.1875 52.9375 13.1875 35.296875 
z
" id="ArialMT-30"/>
      </defs>
      <g style="fill:#262626;" transform="translate(161.88179 190.117812)scale(0.1 -0.1)">
       <use xlink:href="#ArialMT-31"/>
       <use x="55.615234" xlink:href="#ArialMT-30"/>
      </g>
     </g>
    </g>
    <g id="xtick_6">
     <g id="line2d_6">
      <g>
       <use style="fill:#262626;stroke:#262626;stroke-width:0.8;" x="196.304545" xlink:href="#m7f3287dc31" y="175.96"/>
      </g>
     </g>
     <g id="text_6">
      <!-- 12 -->
      <g style="fill:#262626;" transform="translate(190.743608 190.117812)scale(0.1 -0.1)">
       <use xlink:href="#ArialMT-31"/>
       <use x="55.615234" xlink:href="#ArialMT-32"/>
      </g>
     </g>
    </g>
    <g id="text_7">
     <!-- pH -->
     <defs>
      <path d="M 6.59375 -19.875 
L 6.59375 51.859375 
L 14.59375 51.859375 
L 14.59375 45.125 
Q 17.4375 49.078125 21 51.046875 
Q 24.5625 53.03125 29.640625 53.03125 
Q 36.28125 53.03125 41.359375 49.609375 
Q 46.4375 46.1875 49.015625 39.953125 
Q 51.609375 33.734375 51.609375 26.3125 
Q 51.609375 18.359375 48.75 11.984375 
Q 45.90625 5.609375 40.453125 2.21875 
Q 35.015625 -1.171875 29 -1.171875 
Q 24.609375 -1.171875 21.109375 0.6875 
Q 17.625 2.546875 15.375 5.375 
L 15.375 -19.875 
z
M 14.546875 25.640625 
Q 14.546875 15.625 18.59375 10.84375 
Q 22.65625 6.0625 28.421875 6.0625 
Q 34.28125 6.0625 38.453125 11.015625 
Q 42.625 15.96875 42.625 26.375 
Q 42.625 36.28125 38.546875 41.203125 
Q 34.46875 46.140625 28.8125 46.140625 
Q 23.1875 46.140625 18.859375 40.890625 
Q 14.546875 35.640625 14.546875 25.640625 
z
" id="ArialMT-70"/>
      <path d="M 8.015625 0 
L 8.015625 71.578125 
L 17.484375 71.578125 
L 17.484375 42.1875 
L 54.6875 42.1875 
L 54.6875 71.578125 
L 64.15625 71.578125 
L 64.15625 0 
L 54.6875 0 
L 54.6875 33.734375 
L 17.484375 33.734375 
L 17.484375 0 
z
" id="ArialMT-48"/>
     </defs>
     <g style="fill:#262626;" transform="translate(117.758594 203.263125)scale(0.1 -0.1)">
      <use xlink:href="#ArialMT-70"/>
      <use x="55.615234" xlink:href="#ArialMT-48"/>
     </g>
    </g>
   </g>
   <g id="matplotlib.axis_2">
    <g id="ytick_1">
     <g id="line2d_7">
      <defs>
       <path d="M 0 0 
L -3.5 0 
" id="m43d351dbf4" style="stroke:#262626;stroke-width:0.8;"/>
      </defs>
      <g>
       <use style="fill:#262626;stroke:#262626;stroke-width:0.8;" x="44.78" xlink:href="#m43d351dbf4" y="171.53145"/>
      </g>
     </g>
     <g id="text_8">
      <!-- −2 -->
      <defs>
       <path d="M 52.828125 31.203125 
L 5.5625 31.203125 
L 5.5625 39.40625 
L 52.828125 39.40625 
z
" id="ArialMT-2212"/>
      </defs>
      <g style="fill:#262626;" transform="translate(26.378438 175.110356)scale(0.1 -0.1)">
       <use xlink:href="#ArialMT-2212"/>
       <use x="58.398438" xlink:href="#ArialMT-32"/>
      </g>
     </g>
    </g>
    <g id="ytick_2">
     <g id="line2d_8">
      <g>
       <use style="fill:#262626;stroke:#262626;stroke-width:0.8;" x="44.78" xlink:href="#m43d351dbf4" y="114.562292"/>
      </g>
     </g>
     <g id="text_9">
      <!-- −1 -->
      <g style="fill:#262626;" transform="translate(26.378438 118.141198)scale(0.1 -0.1)">
       <use xlink:href="#ArialMT-2212"/>
       <use x="58.398438" xlink:href="#ArialMT-31"/>
      </g>
     </g>
    </g>
    <g id="ytick_3">
     <g id="line2d_9">
      <g>
       <use style="fill:#262626;stroke:#262626;stroke-width:0.8;" x="44.78" xlink:href="#m43d351dbf4" y="57.593134"/>
      </g>
     </g>
     <g id="text_10">
      <!-- 0 -->
      <g style="fill:#262626;" transform="translate(32.219063 61.172041)scale(0.1 -0.1)">
       <use xlink:href="#ArialMT-30"/>
      </g>
     </g>
    </g>
    <g id="text_11">
     <!-- $\langle q_\mathsf{total} \rangle$ -->
     <defs>
      <path d="M 8.9375 31.34375 
L 22.703125 75.875 
L 31 75.875 
L 17.234375 31.34375 
L 31 -13.1875 
L 22.703125 -13.1875 
z
" id="DejaVuSans-27e8"/>
      <path d="M 41.703125 8.203125 
Q 38.09375 3.46875 33.171875 1.015625 
Q 28.265625 -1.421875 22.3125 -1.421875 
Q 14.015625 -1.421875 9.296875 4.171875 
Q 4.59375 9.765625 4.59375 19.578125 
Q 4.59375 27.484375 7.5 34.859375 
Q 10.40625 42.234375 15.828125 48.09375 
Q 19.34375 51.90625 23.90625 53.953125 
Q 28.46875 56 33.5 56 
Q 39.546875 56 43.453125 53.609375 
Q 47.359375 51.21875 49.125 46.390625 
L 50.6875 54.59375 
L 59.71875 54.59375 
L 45.125 -20.609375 
L 36.078125 -20.609375 
z
M 13.921875 20.90625 
Q 13.921875 13.671875 16.9375 9.890625 
Q 19.96875 6.109375 25.6875 6.109375 
Q 34.1875 6.109375 40.1875 14.234375 
Q 46.1875 22.359375 46.1875 33.984375 
Q 46.1875 41.015625 43.078125 44.75 
Q 39.984375 48.484375 34.1875 48.484375 
Q 29.9375 48.484375 26.3125 46.5 
Q 22.703125 44.53125 20.015625 40.71875 
Q 17.1875 36.71875 15.546875 31.34375 
Q 13.921875 25.984375 13.921875 20.90625 
z
" id="DejaVuSans-Oblique-71"/>
      <path d="M 18.3125 70.21875 
L 18.3125 54.6875 
L 36.8125 54.6875 
L 36.8125 47.703125 
L 18.3125 47.703125 
L 18.3125 18.015625 
Q 18.3125 11.328125 20.140625 9.421875 
Q 21.96875 7.515625 27.59375 7.515625 
L 36.8125 7.515625 
L 36.8125 0 
L 27.59375 0 
Q 17.1875 0 13.234375 3.875 
Q 9.28125 7.765625 9.28125 18.015625 
L 9.28125 47.703125 
L 2.6875 47.703125 
L 2.6875 54.6875 
L 9.28125 54.6875 
L 9.28125 70.21875 
z
" id="DejaVuSans-74"/>
      <path d="M 30.609375 48.390625 
Q 23.390625 48.390625 19.1875 42.75 
Q 14.984375 37.109375 14.984375 27.296875 
Q 14.984375 17.484375 19.15625 11.84375 
Q 23.34375 6.203125 30.609375 6.203125 
Q 37.796875 6.203125 41.984375 11.859375 
Q 46.1875 17.53125 46.1875 27.296875 
Q 46.1875 37.015625 41.984375 42.703125 
Q 37.796875 48.390625 30.609375 48.390625 
z
M 30.609375 56 
Q 42.328125 56 49.015625 48.375 
Q 55.71875 40.765625 55.71875 27.296875 
Q 55.71875 13.875 49.015625 6.21875 
Q 42.328125 -1.421875 30.609375 -1.421875 
Q 18.84375 -1.421875 12.171875 6.21875 
Q 5.515625 13.875 5.515625 27.296875 
Q 5.515625 40.765625 12.171875 48.375 
Q 18.84375 56 30.609375 56 
z
" id="DejaVuSans-6f"/>
      <path d="M 34.28125 27.484375 
Q 23.390625 27.484375 19.1875 25 
Q 14.984375 22.515625 14.984375 16.5 
Q 14.984375 11.71875 18.140625 8.90625 
Q 21.296875 6.109375 26.703125 6.109375 
Q 34.1875 6.109375 38.703125 11.40625 
Q 43.21875 16.703125 43.21875 25.484375 
L 43.21875 27.484375 
z
M 52.203125 31.203125 
L 52.203125 0 
L 43.21875 0 
L 43.21875 8.296875 
Q 40.140625 3.328125 35.546875 0.953125 
Q 30.953125 -1.421875 24.3125 -1.421875 
Q 15.921875 -1.421875 10.953125 3.296875 
Q 6 8.015625 6 15.921875 
Q 6 25.140625 12.171875 29.828125 
Q 18.359375 34.515625 30.609375 34.515625 
L 43.21875 34.515625 
L 43.21875 35.40625 
Q 43.21875 41.609375 39.140625 45 
Q 35.0625 48.390625 27.6875 48.390625 
Q 23 48.390625 18.546875 47.265625 
Q 14.109375 46.140625 10.015625 43.890625 
L 10.015625 52.203125 
Q 14.9375 54.109375 19.578125 55.046875 
Q 24.21875 56 28.609375 56 
Q 40.484375 56 46.34375 49.84375 
Q 52.203125 43.703125 52.203125 31.203125 
z
" id="DejaVuSans-61"/>
      <path d="M 9.421875 75.984375 
L 18.40625 75.984375 
L 18.40625 0 
L 9.421875 0 
z
" id="DejaVuSans-6c"/>
      <path d="M 30.078125 31.34375 
L 16.3125 -13.1875 
L 8.015625 -13.1875 
L 21.78125 31.34375 
L 8.015625 75.875 
L 16.3125 75.875 
z
" id="DejaVuSans-27e9"/>
     </defs>
     <g style="fill:#262626;" transform="translate(20.278438 115.95)rotate(-90)scale(0.1 -0.1)">
      <use transform="translate(0 0.125)" xlink:href="#DejaVuSans-27e8"/>
      <use transform="translate(39.013672 0.125)" xlink:href="#DejaVuSans-Oblique-71"/>
      <use transform="translate(102.490234 -16.28125)scale(0.7)" xlink:href="#DejaVuSans-74"/>
      <use transform="translate(129.936523 -16.28125)scale(0.7)" xlink:href="#DejaVuSans-6f"/>
      <use transform="translate(172.763672 -16.28125)scale(0.7)" xlink:href="#DejaVuSans-74"/>
      <use transform="translate(200.209961 -16.28125)scale(0.7)" xlink:href="#DejaVuSans-61"/>
      <use transform="translate(243.105469 -16.28125)scale(0.7)" xlink:href="#DejaVuSans-6c"/>
      <use transform="translate(265.288086 0.125)" xlink:href="#DejaVuSans-27e9"/>
     </g>
    </g>
   </g>
   <g id="PolyCollection_1">
    <defs>
     <path d="M 51.995455 -178.64238 
L 51.995455 -138.171343 
L 53.438545 -138.171773 
L 54.881636 -138.172313 
L 56.324727 -138.172993 
L 57.767818 -138.173846 
L 59.210909 -138.174918 
L 60.654 -138.176264 
L 62.097091 -138.177953 
L 63.540182 -138.180069 
L 64.983273 -138.182718 
L 66.426364 -138.186029 
L 67.869455 -138.190163 
L 69.312545 -138.195312 
L 70.755636 -138.201712 
L 72.198727 -138.209643 
L 73.641818 -138.219442 
L 75.084909 -138.231503 
L 76.528 -138.24629 
L 77.971091 -138.264341 
L 79.414182 -138.286275 
L 80.857273 -138.31281 
L 82.300364 -138.34477 
L 83.743455 -138.38311 
L 85.186545 -138.42894 
L 86.629636 -138.483548 
L 88.072727 -138.548436 
L 89.515818 -138.625337 
L 90.958909 -138.71624 
L 92.402 -138.823407 
L 93.845091 -138.949385 
L 95.288182 -139.097011 
L 96.731273 -139.269425 
L 98.174364 -139.470064 
L 99.617455 -139.702655 
L 101.060545 -139.971179 
L 102.503636 -140.279795 
L 103.946727 -140.632693 
L 105.389818 -141.033833 
L 106.832909 -141.486532 
L 108.276 -141.992844 
L 109.719091 -142.552675 
L 111.162182 -143.16255 
L 112.605273 -143.813971 
L 114.048364 -144.491285 
L 115.491455 -145.169066 
L 116.934545 -145.809276 
L 118.377636 -146.359054 
L 119.820727 -146.751068 
L 121.263818 -146.909523 
L 122.706909 -146.763933 
L 124.15 -146.267286 
L 125.593091 -145.408337 
L 127.036182 -144.209524 
L 128.479273 -142.713419 
L 129.922364 -140.967707 
L 131.365455 -139.015225 
L 132.808545 -136.889558 
L 134.251636 -134.614114 
L 135.694727 -132.202844 
L 137.137818 -129.661569 
L 138.580909 -126.989422 
L 140.024 -124.180273 
L 141.467091 -121.224182 
L 142.910182 -118.10915 
L 144.353273 -114.823517 
L 145.796364 -111.359267 
L 147.239455 -107.716122 
L 148.682545 -103.905912 
L 150.125636 -99.956329 
L 151.568727 -95.91299 
L 153.011818 -91.838794 
L 154.454909 -87.81003 
L 155.898 -83.90949 
L 157.341091 -80.217793 
L 158.784182 -76.804732 
L 160.227273 -73.722484 
L 161.670364 -71.001885 
L 163.113455 -68.652028 
L 164.556545 -66.662579 
L 165.999636 -65.007694 
L 167.442727 -63.650455 
L 168.885818 -62.547093 
L 170.328909 -61.650701 
L 171.772 -60.914416 
L 173.215091 -60.294 
L 174.658182 -59.749717 
L 176.101273 -59.247427 
L 177.544364 -58.758906 
L 178.987455 -58.261465 
L 180.430545 -57.737039 
L 181.873636 -57.17104 
L 183.316727 -56.551332 
L 184.759818 -55.867499 
L 186.202909 -55.110311 
L 187.646 -54.271126 
L 189.089091 -53.341067 
L 190.532182 -52.310011 
L 191.975273 -51.165562 
L 193.418364 -49.8923 
L 194.861455 -48.471537 
L 196.304545 -46.881818 
L 196.304545 -144.211755 
L 196.304545 -144.211755 
L 194.861455 -144.906087 
L 193.418364 -145.389247 
L 191.975273 -145.69861 
L 190.532182 -145.871083 
L 189.089091 -145.942256 
L 187.646 -145.945781 
L 186.202909 -145.912883 
L 184.759818 -145.872032 
L 183.316727 -145.848854 
L 181.873636 -145.866388 
L 180.430545 -145.945619 
L 178.987455 -146.106114 
L 177.544364 -146.366434 
L 176.101273 -146.744223 
L 174.658182 -147.256076 
L 173.215091 -147.91745 
L 171.772 -148.742784 
L 170.328909 -149.745791 
L 168.885818 -150.939719 
L 167.442727 -152.337263 
L 165.999636 -153.949696 
L 164.556545 -155.784881 
L 163.113455 -157.844077 
L 161.670364 -160.117977 
L 160.227273 -162.582763 
L 158.784182 -165.197206 
L 157.341091 -167.901837 
L 155.898 -170.621015 
L 154.454909 -173.268125 
L 153.011818 -175.753277 
L 151.568727 -177.992094 
L 150.125636 -179.913736 
L 148.682545 -181.466606 
L 147.239455 -182.6209 
L 145.796364 -183.368094 
L 144.353273 -183.718182 
L 142.910182 -183.69573 
L 141.467091 -183.335722 
L 140.024 -182.679802 
L 138.580909 -181.773229 
L 137.137818 -180.662681 
L 135.694727 -179.395028 
L 134.251636 -178.017148 
L 132.808545 -176.576654 
L 131.365455 -175.123317 
L 129.922364 -173.710738 
L 128.479273 -172.397633 
L 127.036182 -171.247552 
L 125.593091 -170.325121 
L 124.15 -169.686677 
L 122.706909 -169.365799 
L 121.263818 -169.360217 
L 119.820727 -169.630131 
L 118.377636 -170.110836 
L 116.934545 -170.731163 
L 115.491455 -171.427475 
L 114.048364 -172.149858 
L 112.605273 -172.862626 
L 111.162182 -173.542225 
L 109.719091 -174.174492 
L 108.276 -174.752116 
L 106.832909 -175.272566 
L 105.389818 -175.736497 
L 103.946727 -176.14656 
L 102.503636 -176.506548 
L 101.060545 -176.820796 
L 99.617455 -177.093794 
L 98.174364 -177.329939 
L 96.731273 -177.533401 
L 95.288182 -177.708058 
L 93.845091 -177.857466 
L 92.402 -177.984858 
L 90.958909 -178.09315 
L 89.515818 -178.184946 
L 88.072727 -178.262556 
L 86.629636 -178.328007 
L 85.186545 -178.383063 
L 83.743455 -178.429248 
L 82.300364 -178.467871 
L 80.857273 -178.500055 
L 79.414182 -178.526768 
L 77.971091 -178.548844 
L 76.528 -178.567007 
L 75.084909 -178.581883 
L 73.641818 -178.594015 
L 72.198727 -178.60387 
L 70.755636 -178.611847 
L 69.312545 -178.618282 
L 67.869455 -178.623459 
L 66.426364 -178.627615 
L 64.983273 -178.630945 
L 63.540182 -178.633608 
L 62.097091 -178.635735 
L 60.654 -178.637432 
L 59.210909 -178.638786 
L 57.767818 -178.639863 
L 56.324727 -178.640721 
L 54.881636 -178.641404 
L 53.438545 -178.641948 
L 51.995455 -178.64238 
z
" id="m3d8ca2fdc2" style="stroke:#ffffff;stroke-opacity:0.05;"/>
    </defs>
    <g clip-path="url(#p399ea47a01)">
     <use style="fill:#12711c;fill-opacity:0.05;stroke:#ffffff;stroke-opacity:0.05;" x="0" xlink:href="#m3d8ca2fdc2" y="216"/>
    </g>
   </g>
   <g id="line2d_10">
    <path clip-path="url(#p399ea47a01)" d="M 51.995455 57.593139 
L 53.438545 57.59314 
L 54.881636 57.593141 
L 56.324727 57.593143 
L 57.767818 57.593145 
L 59.210909 57.593148 
L 60.654 57.593152 
L 62.097091 57.593156 
L 63.540182 57.593162 
L 64.983273 57.593169 
L 66.426364 57.593178 
L 67.869455 57.593189 
L 69.312545 57.593203 
L 70.755636 57.593221 
L 72.198727 57.593243 
L 73.641818 57.593271 
L 75.084909 57.593307 
L 76.528 57.593351 
L 77.971091 57.593408 
L 79.414182 57.593478 
L 80.857273 57.593567 
L 82.300364 57.59368 
L 83.743455 57.593821 
L 85.186545 57.593999 
L 86.629636 57.594222 
L 88.072727 57.594504 
L 89.515818 57.594859 
L 90.958909 57.595305 
L 92.402 57.595867 
L 93.845091 57.596575 
L 95.288182 57.597466 
L 96.731273 57.598587 
L 98.174364 57.599998 
L 99.617455 57.601776 
L 101.060545 57.604013 
L 102.503636 57.606828 
L 103.946727 57.610373 
L 105.389818 57.614835 
L 106.832909 57.620451 
L 108.276 57.62752 
L 109.719091 57.636417 
L 111.162182 57.647613 
L 112.605273 57.661702 
L 114.048364 57.679429 
L 115.491455 57.70173 
L 116.934545 57.72978 
L 118.377636 57.765055 
L 119.820727 57.8094 
L 121.263818 57.86513 
L 122.706909 57.935134 
L 124.15 58.023018 
L 125.593091 58.133271 
L 127.036182 58.271462 
L 128.479273 58.444474 
L 129.922364 58.660778 
L 131.365455 58.930729 
L 132.808545 59.266894 
L 134.251636 59.684369 
L 135.694727 60.201064 
L 137.137818 60.837875 
L 138.580909 61.618674 
L 140.024 62.569963 
L 141.467091 63.720048 
L 142.910182 65.09756 
L 144.353273 66.72915 
L 145.796364 68.636319 
L 147.239455 70.831489 
L 148.682545 73.313741 
L 150.125636 76.064968 
L 151.568727 79.047458 
L 153.011818 82.203964 
L 154.454909 85.460923 
L 155.898 88.734747 
L 157.341091 91.940185 
L 158.784182 94.999031 
L 160.227273 97.847376 
L 161.670364 100.440069 
L 163.113455 102.751947 
L 164.556545 104.77627 
L 165.999636 106.521305 
L 167.442727 108.006141 
L 168.885818 109.256594 
L 170.328909 110.301754 
L 171.772 111.1714 
L 173.215091 111.894275 
L 174.658182 112.497103 
L 176.101273 113.004175 
L 177.544364 113.43733 
L 178.987455 113.81621 
L 180.430545 114.158671 
L 181.873636 114.481286 
L 183.316727 114.799907 
L 184.759818 115.130234 
L 186.202909 115.488403 
L 187.646 115.891547 
L 189.089091 116.358339 
L 190.532182 116.909453 
L 191.975273 117.567914 
L 193.418364 118.359227 
L 194.861455 119.311188 
L 196.304545 120.453214 
" style="fill:none;opacity:0.9;stroke:#12711c;stroke-linecap:round;stroke-width:1.5;"/>
   </g>
   <g id="line2d_11">
    <path clip-path="url(#p399ea47a01)" d="M 51.995455 57.593136 
L 53.438545 57.593136 
L 54.881636 57.593137 
L 56.324727 57.593138 
L 57.767818 57.593139 
L 59.210909 57.59314 
L 60.654 57.593141 
L 62.097091 57.593143 
L 63.540182 57.593145 
L 64.983273 57.593148 
L 66.426364 57.593151 
L 67.869455 57.593155 
L 69.312545 57.593161 
L 70.755636 57.593168 
L 72.198727 57.593177 
L 73.641818 57.593187 
L 75.084909 57.593201 
L 76.528 57.593219 
L 77.971091 57.59324 
L 79.414182 57.593268 
L 80.857273 57.593302 
L 82.300364 57.593346 
L 83.743455 57.593401 
L 85.186545 57.59347 
L 86.629636 57.593557 
L 88.072727 57.593666 
L 89.515818 57.593804 
L 90.958909 57.593977 
L 92.402 57.594195 
L 93.845091 57.59447 
L 95.288182 57.594816 
L 96.731273 57.595251 
L 98.174364 57.595799 
L 99.617455 57.596489 
L 101.060545 57.597357 
L 102.503636 57.59845 
L 103.946727 57.599827 
L 105.389818 57.601559 
L 106.832909 57.60374 
L 108.276 57.606486 
L 109.719091 57.609942 
L 111.162182 57.614293 
L 112.605273 57.619768 
L 114.048364 57.626661 
L 115.491455 57.635335 
L 116.934545 57.646251 
L 118.377636 57.659989 
L 119.820727 57.677273 
L 121.263818 57.699019 
L 122.706909 57.726371 
L 124.15 57.760767 
L 125.593091 57.804011 
L 127.036182 57.858359 
L 128.479273 57.92663 
L 129.922364 58.012345 
L 131.365455 58.119886 
L 132.808545 58.254691 
L 134.251636 58.423488 
L 135.694727 58.634557 
L 137.137818 58.898032 
L 138.580909 59.226218 
L 140.024 59.633917 
L 141.467091 60.138716 
L 142.910182 60.761179 
L 144.353273 61.524854 
L 145.796364 62.455978 
L 147.239455 63.582713 
L 148.682545 64.933736 
L 150.125636 66.536041 
L 151.568727 68.411853 
L 153.011818 70.574772 
L 154.454909 73.025512 
L 155.898 75.747961 
L 157.341091 78.706557 
L 158.784182 81.846033 
L 160.227273 85.094282 
L 161.670364 88.368342 
L 163.113455 91.582596 
L 164.556545 94.657532 
L 165.999636 97.527226 
L 167.442727 100.144134 
L 168.885818 102.480659 
L 170.328909 104.527832 
L 171.772 106.292033 
L 173.215091 107.790812 
L 174.658182 109.048726 
L 176.101273 110.093764 
L 177.544364 110.954613 
L 178.987455 111.658794 
L 180.430545 112.23153 
L 181.873636 112.695191 
L 183.316727 113.069136 
L 184.759818 113.369808 
L 186.202909 113.610973 
L 187.646 113.804028 
L 189.089091 113.958328 
L 190.532182 114.081498 
L 191.975273 114.17972 
L 193.418364 114.257984 
L 194.861455 114.320306 
L 196.304545 114.369907 
" style="fill:none;opacity:0.7;stroke:#000000;stroke-linecap:round;stroke-width:1.5;"/>
   </g>
   <g id="line2d_12">
    <path clip-path="url(#p399ea47a01)" d="M 51.995455 37.35762 
L 53.438545 37.358052 
L 54.881636 37.358596 
L 56.324727 37.359279 
L 57.767818 37.360137 
L 59.210909 37.361214 
L 60.654 37.362568 
L 62.097091 37.364265 
L 63.540182 37.366392 
L 64.983273 37.369055 
L 66.426364 37.372385 
L 67.869455 37.376541 
L 69.312545 37.381718 
L 70.755636 37.388153 
L 72.198727 37.39613 
L 73.641818 37.405985 
L 75.084909 37.418117 
L 76.528 37.432993 
L 77.971091 37.451156 
L 79.414182 37.473232 
L 80.857273 37.499945 
L 82.300364 37.532129 
L 83.743455 37.570752 
L 85.186545 37.616937 
L 86.629636 37.671993 
L 88.072727 37.737444 
L 89.515818 37.815054 
L 90.958909 37.90685 
L 92.402 38.015142 
L 93.845091 38.142534 
L 95.288182 38.291942 
L 96.731273 38.466599 
L 98.174364 38.670061 
L 99.617455 38.906206 
L 101.060545 39.179204 
L 102.503636 39.493452 
L 103.946727 39.85344 
L 105.389818 40.263503 
L 106.832909 40.727434 
L 108.276 41.247884 
L 109.719091 41.825508 
L 111.162182 42.457775 
L 112.605273 43.137374 
L 114.048364 43.850142 
L 115.491455 44.572525 
L 116.934545 45.268837 
L 118.377636 45.889164 
L 119.820727 46.369869 
L 121.263818 46.639783 
L 122.706909 46.634201 
L 124.15 46.313323 
L 125.593091 45.674879 
L 127.036182 44.752448 
L 128.479273 43.602367 
L 129.922364 42.289262 
L 131.365455 40.876683 
L 132.808545 39.423346 
L 134.251636 37.982852 
L 135.694727 36.604972 
L 137.137818 35.337319 
L 138.580909 34.226771 
L 140.024 33.320198 
L 141.467091 32.664278 
L 142.910182 32.30427 
L 144.353273 32.281818 
L 145.796364 32.631906 
L 147.239455 33.3791 
L 148.682545 34.533394 
L 150.125636 36.086264 
L 151.568727 38.007906 
L 153.011818 40.246723 
L 154.454909 42.731875 
L 155.898 45.378985 
L 157.341091 48.098163 
L 158.784182 50.802794 
L 160.227273 53.417237 
L 161.670364 55.882023 
L 163.113455 58.155923 
L 164.556545 60.215119 
L 165.999636 62.050304 
L 167.442727 63.662737 
L 168.885818 65.060281 
L 170.328909 66.254209 
L 171.772 67.257216 
L 173.215091 68.08255 
L 174.658182 68.743924 
L 176.101273 69.255777 
L 177.544364 69.633566 
L 178.987455 69.893886 
L 180.430545 70.054381 
L 181.873636 70.133612 
L 183.316727 70.151146 
L 184.759818 70.127968 
L 186.202909 70.087117 
L 187.646 70.054219 
L 189.089091 70.057744 
L 190.532182 70.128917 
L 191.975273 70.30139 
L 193.418364 70.610753 
L 194.861455 71.093913 
L 196.304545 71.788245 
" style="fill:none;opacity:0.45;stroke:#12711c;stroke-dasharray:2.775,1.2;stroke-dashoffset:0;stroke-width:0.75;"/>
   </g>
   <g id="line2d_13">
    <path clip-path="url(#p399ea47a01)" d="M 51.995455 77.828657 
L 53.438545 77.828227 
L 54.881636 77.827687 
L 56.324727 77.827007 
L 57.767818 77.826154 
L 59.210909 77.825082 
L 60.654 77.823736 
L 62.097091 77.822047 
L 63.540182 77.819931 
L 64.983273 77.817282 
L 66.426364 77.813971 
L 67.869455 77.809837 
L 69.312545 77.804688 
L 70.755636 77.798288 
L 72.198727 77.790357 
L 73.641818 77.780558 
L 75.084909 77.768497 
L 76.528 77.75371 
L 77.971091 77.735659 
L 79.414182 77.713725 
L 80.857273 77.68719 
L 82.300364 77.65523 
L 83.743455 77.61689 
L 85.186545 77.57106 
L 86.629636 77.516452 
L 88.072727 77.451564 
L 89.515818 77.374663 
L 90.958909 77.28376 
L 92.402 77.176593 
L 93.845091 77.050615 
L 95.288182 76.902989 
L 96.731273 76.730575 
L 98.174364 76.529936 
L 99.617455 76.297345 
L 101.060545 76.028821 
L 102.503636 75.720205 
L 103.946727 75.367307 
L 105.389818 74.966167 
L 106.832909 74.513468 
L 108.276 74.007156 
L 109.719091 73.447325 
L 111.162182 72.83745 
L 112.605273 72.186029 
L 114.048364 71.508715 
L 115.491455 70.830934 
L 116.934545 70.190724 
L 118.377636 69.640946 
L 119.820727 69.248932 
L 121.263818 69.090477 
L 122.706909 69.236067 
L 124.15 69.732714 
L 125.593091 70.591663 
L 127.036182 71.790476 
L 128.479273 73.286581 
L 129.922364 75.032293 
L 131.365455 76.984775 
L 132.808545 79.110442 
L 134.251636 81.385886 
L 135.694727 83.797156 
L 137.137818 86.338431 
L 138.580909 89.010578 
L 140.024 91.819727 
L 141.467091 94.775818 
L 142.910182 97.89085 
L 144.353273 101.176483 
L 145.796364 104.640733 
L 147.239455 108.283878 
L 148.682545 112.094088 
L 150.125636 116.043671 
L 151.568727 120.08701 
L 153.011818 124.161206 
L 154.454909 128.18997 
L 155.898 132.09051 
L 157.341091 135.782207 
L 158.784182 139.195268 
L 160.227273 142.277516 
L 161.670364 144.998115 
L 163.113455 147.347972 
L 164.556545 149.337421 
L 165.999636 150.992306 
L 167.442727 152.349545 
L 168.885818 153.452907 
L 170.328909 154.349299 
L 171.772 155.085584 
L 173.215091 155.706 
L 174.658182 156.250283 
L 176.101273 156.752573 
L 177.544364 157.241094 
L 178.987455 157.738535 
L 180.430545 158.262961 
L 181.873636 158.82896 
L 183.316727 159.448668 
L 184.759818 160.132501 
L 186.202909 160.889689 
L 187.646 161.728874 
L 189.089091 162.658933 
L 190.532182 163.689989 
L 191.975273 164.834438 
L 193.418364 166.1077 
L 194.861455 167.528463 
L 196.304545 169.118182 
" style="fill:none;opacity:0.45;stroke:#12711c;stroke-dasharray:2.775,1.2;stroke-dashoffset:0;stroke-width:0.75;"/>
   </g>
   <g id="patch_3">
    <path d="M 44.78 175.96 
L 44.78 25.44 
" style="fill:none;stroke:#262626;stroke-linecap:square;stroke-linejoin:miter;stroke-width:0.8;"/>
   </g>
   <g id="patch_4">
    <path d="M 44.78 175.96 
L 203.52 175.96 
" style="fill:none;stroke:#262626;stroke-linecap:square;stroke-linejoin:miter;stroke-width:0.8;"/>
   </g>
   <g id="text_12">
    <!-- Epik-scan SM01 -->
    <defs>
     <path d="M 7.90625 0 
L 7.90625 71.578125 
L 59.671875 71.578125 
L 59.671875 63.140625 
L 17.390625 63.140625 
L 17.390625 41.21875 
L 56.984375 41.21875 
L 56.984375 32.8125 
L 17.390625 32.8125 
L 17.390625 8.453125 
L 61.328125 8.453125 
L 61.328125 0 
z
" id="ArialMT-45"/>
     <path d="M 6.640625 61.46875 
L 6.640625 71.578125 
L 15.4375 71.578125 
L 15.4375 61.46875 
z
M 6.640625 0 
L 6.640625 51.859375 
L 15.4375 51.859375 
L 15.4375 0 
z
" id="ArialMT-69"/>
     <path d="M 6.640625 0 
L 6.640625 71.578125 
L 15.4375 71.578125 
L 15.4375 30.765625 
L 36.234375 51.859375 
L 47.609375 51.859375 
L 27.78125 32.625 
L 49.609375 0 
L 38.765625 0 
L 21.625 26.515625 
L 15.4375 20.5625 
L 15.4375 0 
z
" id="ArialMT-6b"/>
     <path d="M 3.171875 21.484375 
L 3.171875 30.328125 
L 30.171875 30.328125 
L 30.171875 21.484375 
z
" id="ArialMT-2d"/>
     <path d="M 3.078125 15.484375 
L 11.765625 16.84375 
Q 12.5 11.625 15.84375 8.84375 
Q 19.1875 6.0625 25.203125 6.0625 
Q 31.25 6.0625 34.171875 8.515625 
Q 37.109375 10.984375 37.109375 14.3125 
Q 37.109375 17.28125 34.515625 19 
Q 32.71875 20.171875 25.53125 21.96875 
Q 15.875 24.421875 12.140625 26.203125 
Q 8.40625 27.984375 6.46875 31.125 
Q 4.546875 34.28125 4.546875 38.09375 
Q 4.546875 41.546875 6.125 44.5 
Q 7.71875 47.46875 10.453125 49.421875 
Q 12.5 50.921875 16.03125 51.96875 
Q 19.578125 53.03125 23.640625 53.03125 
Q 29.734375 53.03125 34.34375 51.265625 
Q 38.96875 49.515625 41.15625 46.5 
Q 43.359375 43.5 44.1875 38.484375 
L 35.59375 37.3125 
Q 35.015625 41.3125 32.203125 43.546875 
Q 29.390625 45.796875 24.265625 45.796875 
Q 18.21875 45.796875 15.625 43.796875 
Q 13.03125 41.796875 13.03125 39.109375 
Q 13.03125 37.40625 14.109375 36.03125 
Q 15.1875 34.625 17.484375 33.6875 
Q 18.796875 33.203125 25.25 31.453125 
Q 34.578125 28.953125 38.25 27.359375 
Q 41.9375 25.78125 44.03125 22.75 
Q 46.140625 19.734375 46.140625 15.234375 
Q 46.140625 10.84375 43.578125 6.953125 
Q 41.015625 3.078125 36.171875 0.953125 
Q 31.34375 -1.171875 25.25 -1.171875 
Q 15.140625 -1.171875 9.84375 3.03125 
Q 4.546875 7.234375 3.078125 15.484375 
z
" id="ArialMT-73"/>
     <path d="M 40.4375 19 
L 49.078125 17.875 
Q 47.65625 8.9375 41.8125 3.875 
Q 35.984375 -1.171875 27.484375 -1.171875 
Q 16.84375 -1.171875 10.375 5.78125 
Q 3.90625 12.75 3.90625 25.734375 
Q 3.90625 34.125 6.6875 40.421875 
Q 9.46875 46.734375 15.15625 49.875 
Q 20.84375 53.03125 27.546875 53.03125 
Q 35.984375 53.03125 41.359375 48.75 
Q 46.734375 44.484375 48.25 36.625 
L 39.703125 35.296875 
Q 38.484375 40.53125 35.375 43.15625 
Q 32.28125 45.796875 27.875 45.796875 
Q 21.234375 45.796875 17.078125 41.03125 
Q 12.9375 36.28125 12.9375 25.984375 
Q 12.9375 15.53125 16.9375 10.796875 
Q 20.953125 6.0625 27.390625 6.0625 
Q 32.5625 6.0625 36.03125 9.234375 
Q 39.5 12.40625 40.4375 19 
z
" id="ArialMT-63"/>
     <path d="M 40.4375 6.390625 
Q 35.546875 2.25 31.03125 0.53125 
Q 26.515625 -1.171875 21.34375 -1.171875 
Q 12.796875 -1.171875 8.203125 3 
Q 3.609375 7.171875 3.609375 13.671875 
Q 3.609375 17.484375 5.34375 20.625 
Q 7.078125 23.78125 9.890625 25.6875 
Q 12.703125 27.59375 16.21875 28.5625 
Q 18.796875 29.25 24.03125 29.890625 
Q 34.671875 31.15625 39.703125 32.90625 
Q 39.75 34.71875 39.75 35.203125 
Q 39.75 40.578125 37.25 42.78125 
Q 33.890625 45.75 27.25 45.75 
Q 21.046875 45.75 18.09375 43.578125 
Q 15.140625 41.40625 13.71875 35.890625 
L 5.125 37.0625 
Q 6.296875 42.578125 8.984375 45.96875 
Q 11.671875 49.359375 16.75 51.1875 
Q 21.828125 53.03125 28.515625 53.03125 
Q 35.15625 53.03125 39.296875 51.46875 
Q 43.453125 49.90625 45.40625 47.53125 
Q 47.359375 45.171875 48.140625 41.546875 
Q 48.578125 39.3125 48.578125 33.453125 
L 48.578125 21.734375 
Q 48.578125 9.46875 49.140625 6.21875 
Q 49.703125 2.984375 51.375 0 
L 42.1875 0 
Q 40.828125 2.734375 40.4375 6.390625 
z
M 39.703125 26.03125 
Q 34.90625 24.078125 25.34375 22.703125 
Q 19.921875 21.921875 17.671875 20.9375 
Q 15.4375 19.96875 14.203125 18.09375 
Q 12.984375 16.21875 12.984375 13.921875 
Q 12.984375 10.40625 15.640625 8.0625 
Q 18.3125 5.71875 23.4375 5.71875 
Q 28.515625 5.71875 32.46875 7.9375 
Q 36.421875 10.15625 38.28125 14.015625 
Q 39.703125 17 39.703125 22.796875 
z
" id="ArialMT-61"/>
     <path d="M 6.59375 0 
L 6.59375 51.859375 
L 14.5 51.859375 
L 14.5 44.484375 
Q 20.21875 53.03125 31 53.03125 
Q 35.6875 53.03125 39.625 51.34375 
Q 43.5625 49.65625 45.515625 46.921875 
Q 47.46875 44.1875 48.25 40.4375 
Q 48.734375 37.984375 48.734375 31.890625 
L 48.734375 0 
L 39.9375 0 
L 39.9375 31.546875 
Q 39.9375 36.921875 38.90625 39.578125 
Q 37.890625 42.234375 35.28125 43.8125 
Q 32.671875 45.40625 29.15625 45.40625 
Q 23.53125 45.40625 19.453125 41.84375 
Q 15.375 38.28125 15.375 28.328125 
L 15.375 0 
z
" id="ArialMT-6e"/>
     <path id="ArialMT-20"/>
     <path d="M 4.5 23 
L 13.421875 23.78125 
Q 14.0625 18.40625 16.375 14.96875 
Q 18.703125 11.53125 23.578125 9.40625 
Q 28.46875 7.28125 34.578125 7.28125 
Q 39.984375 7.28125 44.140625 8.890625 
Q 48.296875 10.5 50.3125 13.296875 
Q 52.34375 16.109375 52.34375 19.4375 
Q 52.34375 22.796875 50.390625 25.3125 
Q 48.4375 27.828125 43.953125 29.546875 
Q 41.0625 30.671875 31.203125 33.03125 
Q 21.34375 35.40625 17.390625 37.5 
Q 12.25 40.1875 9.734375 44.15625 
Q 7.234375 48.140625 7.234375 53.078125 
Q 7.234375 58.5 10.296875 63.203125 
Q 13.375 67.921875 19.28125 70.359375 
Q 25.203125 72.796875 32.421875 72.796875 
Q 40.375 72.796875 46.453125 70.234375 
Q 52.546875 67.671875 55.8125 62.6875 
Q 59.078125 57.71875 59.328125 51.421875 
L 50.25 50.734375 
Q 49.515625 57.515625 45.28125 60.984375 
Q 41.0625 64.453125 32.8125 64.453125 
Q 24.21875 64.453125 20.28125 61.296875 
Q 16.359375 58.15625 16.359375 53.71875 
Q 16.359375 49.859375 19.140625 47.359375 
Q 21.875 44.875 33.421875 42.265625 
Q 44.96875 39.65625 49.265625 37.703125 
Q 55.515625 34.8125 58.484375 30.390625 
Q 61.46875 25.984375 61.46875 20.21875 
Q 61.46875 14.5 58.203125 9.4375 
Q 54.9375 4.390625 48.796875 1.578125 
Q 42.671875 -1.21875 35.015625 -1.21875 
Q 25.296875 -1.21875 18.71875 1.609375 
Q 12.15625 4.4375 8.421875 10.125 
Q 4.6875 15.828125 4.5 23 
z
" id="ArialMT-53"/>
     <path d="M 7.421875 0 
L 7.421875 71.578125 
L 21.6875 71.578125 
L 38.625 20.90625 
Q 40.96875 13.8125 42.046875 10.296875 
Q 43.265625 14.203125 45.84375 21.78125 
L 62.984375 71.578125 
L 75.734375 71.578125 
L 75.734375 0 
L 66.609375 0 
L 66.609375 59.90625 
L 45.796875 0 
L 37.25 0 
L 16.546875 60.9375 
L 16.546875 0 
z
" id="ArialMT-4d"/>
    </defs>
    <g style="fill:#262626;" transform="translate(80.467188 19.44)scale(0.12 -0.12)">
     <use xlink:href="#ArialMT-45"/>
     <use x="66.699219" xlink:href="#ArialMT-70"/>
     <use x="122.314453" xlink:href="#ArialMT-69"/>
     <use x="144.53125" xlink:href="#ArialMT-6b"/>
     <use x="194.53125" xlink:href="#ArialMT-2d"/>
     <use x="227.832031" xlink:href="#ArialMT-73"/>
     <use x="277.832031" xlink:href="#ArialMT-63"/>
     <use x="327.832031" xlink:href="#ArialMT-61"/>
     <use x="383.447266" xlink:href="#ArialMT-6e"/>
     <use x="439.0625" xlink:href="#ArialMT-20"/>
     <use x="466.845703" xlink:href="#ArialMT-53"/>
     <use x="533.544922" xlink:href="#ArialMT-4d"/>
     <use x="616.845703" xlink:href="#ArialMT-30"/>
     <use x="672.460938" xlink:href="#ArialMT-31"/>
    </g>
   </g>
  </g>
 </g>
 <defs>
  <clipPath id="p399ea47a01">
   <rect height="150.52" width="158.74" x="44.78" y="25.44"/>
  </clipPath>
 </defs>
</svg>
