<?xml version="1.0" encoding="utf-8" standalone="no"?>
<!DOCTYPE svg PUBLIC "-//W3C//DTD SVG 1.1//EN"
  "http://www.w3.org/Graphics/SVG/1.1/DTD/svg11.dtd">
<!-- Created with matplotlib (http://matplotlib.org/) -->
<svg height="144pt" version="1.1" viewBox="0 0 144 144" width="144pt" xmlns="http://www.w3.org/2000/svg" xmlns:xlink="http://www.w3.org/1999/xlink">
 <defs>
  <style type="text/css">
*{stroke-linecap:butt;stroke-linejoin:round;}
  </style>
 </defs>
 <g id="figure_1">
  <g id="patch_1">
   <path d="M 0 144 
L 144 144 
L 144 0 
L 0 0 
z
" style="fill:#ffffff;"/>
  </g>
  <g id="axes_1">
   <g id="patch_2">
    <path d="M 48.38 101.92 
L 130.44 101.92 
L 130.44 27.48 
L 48.38 27.48 
z
" style="fill:#ffffff;"/>
   </g>
   <g id="matplotlib.axis_1">
    <g id="xtick_1">
     <g id="line2d_1">
      <defs>
       <path d="M 0 0 
L 0 3.5 
" id="m676a10c0e9" style="stroke:#262626;stroke-width:0.8;"/>
      </defs>
      <g>
       <use style="fill:#262626;stroke:#262626;stroke-width:0.8;" x="52.11" xlink:href="#m676a10c0e9" y="101.92"/>
      </g>
     </g>
     <g id="text_1">
      <!-- 2 -->
      <defs>
       <path d="M 50.34375 8.453125 
L 50.34375 0 
L 3.03125 0 
Q 2.9375 3.171875 4.046875 6.109375 
Q 5.859375 10.9375 9.828125 15.625 
Q 13.8125 20.3125 21.34375 26.46875 
Q 33.015625 36.03125 37.109375 41.625 
Q 41.21875 47.21875 41.21875 52.203125 
Q 41.21875 57.421875 37.46875 61 
Q 33.734375 64.59375 27.734375 64.59375 
Q 21.390625 64.59375 17.578125 60.78125 
Q 13.765625 56.984375 13.71875 50.25 
L 4.6875 51.171875 
Q 5.609375 61.28125 11.65625 66.578125 
Q 17.71875 71.875 27.9375 71.875 
Q 38.234375 71.875 44.234375 66.15625 
Q 50.25 60.453125 50.25 52 
Q 50.25 47.703125 48.484375 43.546875 
Q 46.734375 39.40625 42.65625 34.8125 
Q 38.578125 30.21875 29.109375 22.21875 
Q 21.1875 15.578125 18.9375 13.203125 
Q 16.703125 10.84375 15.234375 8.453125 
z
" id="ArialMT-32"/>
      </defs>
      <g style="fill:#262626;" transform="translate(49.051484 116.793594)scale(0.11 -0.11)">
       <use xlink:href="#ArialMT-32"/>
      </g>
     </g>
    </g>
    <g id="xtick_2">
     <g id="line2d_2">
      <g>
       <use style="fill:#262626;stroke:#262626;stroke-width:0.8;" x="67.03" xlink:href="#m676a10c0e9" y="101.92"/>
      </g>
     </g>
     <g id="text_2">
      <!-- 4 -->
      <defs>
       <path d="M 32.328125 0 
L 32.328125 17.140625 
L 1.265625 17.140625 
L 1.265625 25.203125 
L 33.9375 71.578125 
L 41.109375 71.578125 
L 41.109375 25.203125 
L 50.78125 25.203125 
L 50.78125 17.140625 
L 41.109375 17.140625 
L 41.109375 0 
z
M 32.328125 25.203125 
L 32.328125 57.46875 
L 9.90625 25.203125 
z
" id="ArialMT-34"/>
      </defs>
      <g style="fill:#262626;" transform="translate(63.971484 116.793594)scale(0.11 -0.11)">
       <use xlink:href="#ArialMT-34"/>
      </g>
     </g>
    </g>
    <g id="xtick_3">
     <g id="line2d_3">
      <g>
       <use style="fill:#262626;stroke:#262626;stroke-width:0.8;" x="81.95" xlink:href="#m676a10c0e9" y="101.92"/>
      </g>
     </g>
     <g id="text_3">
      <!-- 6 -->
      <defs>
       <path d="M 49.75 54.046875 
L 41.015625 53.375 
Q 39.84375 58.546875 37.703125 60.890625 
Q 34.125 64.65625 28.90625 64.65625 
Q 24.703125 64.65625 21.53125 62.3125 
Q 17.390625 59.28125 14.984375 53.46875 
Q 12.59375 47.65625 12.5 36.921875 
Q 15.671875 41.75 20.265625 44.09375 
Q 24.859375 46.4375 29.890625 46.4375 
Q 38.671875 46.4375 44.84375 39.96875 
Q 51.03125 33.5 51.03125 23.25 
Q 51.03125 16.5 48.125 10.71875 
Q 45.21875 4.9375 40.140625 1.859375 
Q 35.0625 -1.21875 28.609375 -1.21875 
Q 17.625 -1.21875 10.6875 6.859375 
Q 3.765625 14.9375 3.765625 33.5 
Q 3.765625 54.25 11.421875 63.671875 
Q 18.109375 71.875 29.4375 71.875 
Q 37.890625 71.875 43.28125 67.140625 
Q 48.6875 62.40625 49.75 54.046875 
z
M 13.875 23.1875 
Q 13.875 18.65625 15.796875 14.5 
Q 17.71875 10.359375 21.1875 8.171875 
Q 24.65625 6 28.46875 6 
Q 34.03125 6 38.03125 10.484375 
Q 42.046875 14.984375 42.046875 22.703125 
Q 42.046875 30.125 38.078125 34.390625 
Q 34.125 38.671875 28.125 38.671875 
Q 22.171875 38.671875 18.015625 34.390625 
Q 13.875 30.125 13.875 23.1875 
z
" id="ArialMT-36"/>
      </defs>
      <g style="fill:#262626;" transform="translate(78.891484 116.793594)scale(0.11 -0.11)">
       <use xlink:href="#ArialMT-36"/>
      </g>
     </g>
    </g>
    <g id="xtick_4">
     <g id="line2d_4">
      <g>
       <use style="fill:#262626;stroke:#262626;stroke-width:0.8;" x="96.87" xlink:href="#m676a10c0e9" y="101.92"/>
      </g>
     </g>
     <g id="text_4">
      <!-- 8 -->
      <defs>
       <path d="M 17.671875 38.8125 
Q 12.203125 40.828125 9.5625 44.53125 
Q 6.9375 48.25 6.9375 53.421875 
Q 6.9375 61.234375 12.546875 66.546875 
Q 18.171875 71.875 27.484375 71.875 
Q 36.859375 71.875 42.578125 66.421875 
Q 48.296875 60.984375 48.296875 53.171875 
Q 48.296875 48.1875 45.671875 44.5 
Q 43.0625 40.828125 37.75 38.8125 
Q 44.34375 36.671875 47.78125 31.875 
Q 51.21875 27.09375 51.21875 20.453125 
Q 51.21875 11.28125 44.71875 5.03125 
Q 38.234375 -1.21875 27.640625 -1.21875 
Q 17.046875 -1.21875 10.546875 5.046875 
Q 4.046875 11.328125 4.046875 20.703125 
Q 4.046875 27.6875 7.59375 32.390625 
Q 11.140625 37.109375 17.671875 38.8125 
z
M 15.921875 53.71875 
Q 15.921875 48.640625 19.1875 45.40625 
Q 22.46875 42.1875 27.6875 42.1875 
Q 32.765625 42.1875 36.015625 45.375 
Q 39.265625 48.578125 39.265625 53.21875 
Q 39.265625 58.0625 35.90625 61.359375 
Q 32.5625 64.65625 27.59375 64.65625 
Q 22.5625 64.65625 19.234375 61.421875 
Q 15.921875 58.203125 15.921875 53.71875 
z
M 13.09375 20.65625 
Q 13.09375 16.890625 14.875 13.375 
Q 16.65625 9.859375 20.171875 7.921875 
Q 23.6875 6 27.734375 6 
Q 34.03125 6 38.125 10.046875 
Q 42.234375 14.109375 42.234375 20.359375 
Q 42.234375 26.703125 38.015625 30.859375 
Q 33.796875 35.015625 27.4375 35.015625 
Q 21.234375 35.015625 17.15625 30.90625 
Q 13.09375 26.8125 13.09375 20.65625 
z
" id="ArialMT-38"/>
      </defs>
      <g style="fill:#262626;" transform="translate(93.811484 116.793594)scale(0.11 -0.11)">
       <use xlink:href="#ArialMT-38"/>
      </g>
     </g>
    </g>
    <g id="xtick_5">
     <g id="line2d_5">
      <g>
       <use style="fill:#262626;stroke:#262626;stroke-width:0.8;" x="111.79" xlink:href="#m676a10c0e9" y="101.92"/>
      </g>
     </g>
     <g id="text_5">
      <!-- 10 -->
      <defs>
       <path d="M 37.25 0 
L 28.46875 0 
L 28.46875 56 
Q 25.296875 52.984375 20.140625 49.953125 
Q 14.984375 46.921875 10.890625 45.40625 
L 10.890625 53.90625 
Q 18.265625 57.375 23.78125 62.296875 
Q 29.296875 67.234375 31.59375 71.875 
L 37.25 71.875 
z
" id="ArialMT-31"/>
       <path d="M 4.15625 35.296875 
Q 4.15625 48 6.765625 55.734375 
Q 9.375 63.484375 14.515625 67.671875 
Q 19.671875 71.875 27.484375 71.875 
Q 33.25 71.875 37.59375 69.546875 
Q 41.9375 67.234375 44.765625 62.859375 
Q 47.609375 58.5 49.21875 52.21875 
Q 50.828125 45.953125 50.828125 35.296875 
Q 50.828125 22.703125 48.234375 14.96875 
Q 45.65625 7.234375 40.5 3 
Q 35.359375 -1.21875 27.484375 -1.21875 
Q 17.140625 -1.21875 11.234375 6.203125 
Q 4.15625 15.140625 4.15625 35.296875 
z
M 13.1875 35.296875 
Q 13.1875 17.671875 17.3125 11.828125 
Q 21.4375 6 27.484375 6 
Q 33.546875 6 37.671875 11.859375 
Q 41.796875 17.71875 41.796875 35.296875 
Q 41.796875 52.984375 37.671875 58.78125 
Q 33.546875 64.59375 27.390625 64.59375 
Q 21.34375 64.59375 17.71875 59.46875 
Q 13.1875 52.9375 13.1875 35.296875 
z
" id="ArialMT-30"/>
      </defs>
      <g style="fill:#262626;" transform="translate(105.672969 116.793594)scale(0.11 -0.11)">
       <use xlink:href="#ArialMT-31"/>
       <use x="55.615234" xlink:href="#ArialMT-30"/>
      </g>
     </g>
    </g>
    <g id="xtick_6">
     <g id="line2d_6">
      <g>
       <use style="fill:#262626;stroke:#262626;stroke-width:0.8;" x="126.71" xlink:href="#m676a10c0e9" y="101.92"/>
      </g>
     </g>
     <g id="text_6">
      <!-- 12 -->
      <g style="fill:#262626;" transform="translate(120.592969 116.793594)scale(0.11 -0.11)">
       <use xlink:href="#ArialMT-31"/>
       <use x="55.615234" xlink:href="#ArialMT-32"/>
      </g>
     </g>
    </g>
    <g id="text_7">
     <!-- pH -->
     <defs>
      <path d="M 6.59375 -19.875 
L 6.59375 51.859375 
L 14.59375 51.859375 
L 14.59375 45.125 
Q 17.4375 49.078125 21 51.046875 
Q 24.5625 53.03125 29.640625 53.03125 
Q 36.28125 53.03125 41.359375 49.609375 
Q 46.4375 46.1875 49.015625 39.953125 
Q 51.609375 33.734375 51.609375 26.3125 
Q 51.609375 18.359375 48.75 11.984375 
Q 45.90625 5.609375 40.453125 2.21875 
Q 35.015625 -1.171875 29 -1.171875 
Q 24.609375 -1.171875 21.109375 0.6875 
Q 17.625 2.546875 15.375 5.375 
L 15.375 -19.875 
z
M 14.546875 25.640625 
Q 14.546875 15.625 18.59375 10.84375 
Q 22.65625 6.0625 28.421875 6.0625 
Q 34.28125 6.0625 38.453125 11.015625 
Q 42.625 15.96875 42.625 26.375 
Q 42.625 36.28125 38.546875 41.203125 
Q 34.46875 46.140625 28.8125 46.140625 
Q 23.1875 46.140625 18.859375 40.890625 
Q 14.546875 35.640625 14.546875 25.640625 
z
" id="ArialMT-70"/>
      <path d="M 8.015625 0 
L 8.015625 71.578125 
L 17.484375 71.578125 
L 17.484375 42.1875 
L 54.6875 42.1875 
L 54.6875 71.578125 
L 64.15625 71.578125 
L 64.15625 0 
L 54.6875 0 
L 54.6875 33.734375 
L 17.484375 33.734375 
L 17.484375 0 
z
" id="ArialMT-48"/>
     </defs>
     <g style="fill:#262626;" transform="translate(82.379453 130.853437)scale(0.11 -0.11)">
      <use xlink:href="#ArialMT-70"/>
      <use x="55.615234" xlink:href="#ArialMT-48"/>
     </g>
    </g>
   </g>
   <g id="matplotlib.axis_2">
    <g id="ytick_1">
     <g id="line2d_7">
      <defs>
       <path d="M 0 0 
L -3.5 0 
" id="m8762bdf5f0" style="stroke:#262626;stroke-width:0.8;"/>
      </defs>
      <g>
       <use style="fill:#262626;stroke:#262626;stroke-width:0.8;" x="48.38" xlink:href="#m8762bdf5f0" y="99.306638"/>
      </g>
     </g>
     <g id="text_8">
      <!-- −1 -->
      <defs>
       <path d="M 52.828125 31.203125 
L 5.5625 31.203125 
L 5.5625 39.40625 
L 52.828125 39.40625 
z
" id="ArialMT-2212"/>
      </defs>
      <g style="fill:#262626;" transform="translate(28.838281 103.243434)scale(0.11 -0.11)">
       <use xlink:href="#ArialMT-2212"/>
       <use x="58.398438" xlink:href="#ArialMT-31"/>
      </g>
     </g>
    </g>
    <g id="ytick_2">
     <g id="line2d_8">
      <g>
       <use style="fill:#262626;stroke:#262626;stroke-width:0.8;" x="48.38" xlink:href="#m8762bdf5f0" y="64.269253"/>
      </g>
     </g>
     <g id="text_9">
      <!-- 0 -->
      <g style="fill:#262626;" transform="translate(35.262969 68.20605)scale(0.11 -0.11)">
       <use xlink:href="#ArialMT-30"/>
      </g>
     </g>
    </g>
    <g id="ytick_3">
     <g id="line2d_9">
      <g>
       <use style="fill:#262626;stroke:#262626;stroke-width:0.8;" x="48.38" xlink:href="#m8762bdf5f0" y="29.231869"/>
      </g>
     </g>
     <g id="text_10">
      <!-- 1 -->
      <g style="fill:#262626;" transform="translate(35.262969 33.168666)scale(0.11 -0.11)">
       <use xlink:href="#ArialMT-31"/>
      </g>
     </g>
    </g>
    <g id="text_11">
     <!-- $\langle q_\mathsf{total} \rangle$ -->
     <defs>
      <path d="M 8.9375 31.34375 
L 22.703125 75.875 
L 31 75.875 
L 17.234375 31.34375 
L 31 -13.1875 
L 22.703125 -13.1875 
z
" id="DejaVuSans-27e8"/>
      <path d="M 41.703125 8.203125 
Q 38.09375 3.46875 33.171875 1.015625 
Q 28.265625 -1.421875 22.3125 -1.421875 
Q 14.015625 -1.421875 9.296875 4.171875 
Q 4.59375 9.765625 4.59375 19.578125 
Q 4.59375 27.484375 7.5 34.859375 
Q 10.40625 42.234375 15.828125 48.09375 
Q 19.34375 51.90625 23.90625 53.953125 
Q 28.46875 56 33.5 56 
Q 39.546875 56 43.453125 53.609375 
Q 47.359375 51.21875 49.125 46.390625 
L 50.6875 54.59375 
L 59.71875 54.59375 
L 45.125 -20.609375 
L 36.078125 -20.609375 
z
M 13.921875 20.90625 
Q 13.921875 13.671875 16.9375 9.890625 
Q 19.96875 6.109375 25.6875 6.109375 
Q 34.1875 6.109375 40.1875 14.234375 
Q 46.1875 22.359375 46.1875 33.984375 
Q 46.1875 41.015625 43.078125 44.75 
Q 39.984375 48.484375 34.1875 48.484375 
Q 29.9375 48.484375 26.3125 46.5 
Q 22.703125 44.53125 20.015625 40.71875 
Q 17.1875 36.71875 15.546875 31.34375 
Q 13.921875 25.984375 13.921875 20.90625 
z
" id="DejaVuSans-Oblique-71"/>
      <path d="M 18.3125 70.21875 
L 18.3125 54.6875 
L 36.8125 54.6875 
L 36.8125 47.703125 
L 18.3125 47.703125 
L 18.3125 18.015625 
Q 18.3125 11.328125 20.140625 9.421875 
Q 21.96875 7.515625 27.59375 7.515625 
L 36.8125 7.515625 
L 36.8125 0 
L 27.59375 0 
Q 17.1875 0 13.234375 3.875 
Q 9.28125 7.765625 9.28125 18.015625 
L 9.28125 47.703125 
L 2.6875 47.703125 
L 2.6875 54.6875 
L 9.28125 54.6875 
L 9.28125 70.21875 
z
" id="DejaVuSans-74"/>
      <path d="M 30.609375 48.390625 
Q 23.390625 48.390625 19.1875 42.75 
Q 14.984375 37.109375 14.984375 27.296875 
Q 14.984375 17.484375 19.15625 11.84375 
Q 23.34375 6.203125 30.609375 6.203125 
Q 37.796875 6.203125 41.984375 11.859375 
Q 46.1875 17.53125 46.1875 27.296875 
Q 46.1875 37.015625 41.984375 42.703125 
Q 37.796875 48.390625 30.609375 48.390625 
z
M 30.609375 56 
Q 42.328125 56 49.015625 48.375 
Q 55.71875 40.765625 55.71875 27.296875 
Q 55.71875 13.875 49.015625 6.21875 
Q 42.328125 -1.421875 30.609375 -1.421875 
Q 18.84375 -1.421875 12.171875 6.21875 
Q 5.515625 13.875 5.515625 27.296875 
Q 5.515625 40.765625 12.171875 48.375 
Q 18.84375 56 30.609375 56 
z
" id="DejaVuSans-6f"/>
      <path d="M 34.28125 27.484375 
Q 23.390625 27.484375 19.1875 25 
Q 14.984375 22.515625 14.984375 16.5 
Q 14.984375 11.71875 18.140625 8.90625 
Q 21.296875 6.109375 26.703125 6.109375 
Q 34.1875 6.109375 38.703125 11.40625 
Q 43.21875 16.703125 43.21875 25.484375 
L 43.21875 27.484375 
z
M 52.203125 31.203125 
L 52.203125 0 
L 43.21875 0 
L 43.21875 8.296875 
Q 40.140625 3.328125 35.546875 0.953125 
Q 30.953125 -1.421875 24.3125 -1.421875 
Q 15.921875 -1.421875 10.953125 3.296875 
Q 6 8.015625 6 15.921875 
Q 6 25.140625 12.171875 29.828125 
Q 18.359375 34.515625 30.609375 34.515625 
L 43.21875 34.515625 
L 43.21875 35.40625 
Q 43.21875 41.609375 39.140625 45 
Q 35.0625 48.390625 27.6875 48.390625 
Q 23 48.390625 18.546875 47.265625 
Q 14.109375 46.140625 10.015625 43.890625 
L 10.015625 52.203125 
Q 14.9375 54.109375 19.578125 55.046875 
Q 24.21875 56 28.609375 56 
Q 40.484375 56 46.34375 49.84375 
Q 52.203125 43.703125 52.203125 31.203125 
z
" id="DejaVuSans-61"/>
      <path d="M 9.421875 75.984375 
L 18.40625 75.984375 
L 18.40625 0 
L 9.421875 0 
z
" id="DejaVuSans-6c"/>
      <path d="M 30.078125 31.34375 
L 16.3125 -13.1875 
L 8.015625 -13.1875 
L 21.78125 31.34375 
L 8.015625 75.875 
L 16.3125 75.875 
z
" id="DejaVuSans-27e9"/>
     </defs>
     <g style="fill:#262626;" transform="translate(22.528281 81.475)rotate(-90)scale(0.11 -0.11)">
      <use transform="translate(0 0.125)" xlink:href="#DejaVuSans-27e8"/>
      <use transform="translate(39.013672 0.125)" xlink:href="#DejaVuSans-Oblique-71"/>
      <use transform="translate(102.490234 -16.28125)scale(0.7)" xlink:href="#DejaVuSans-74"/>
      <use transform="translate(129.936523 -16.28125)scale(0.7)" xlink:href="#DejaVuSans-6f"/>
      <use transform="translate(172.763672 -16.28125)scale(0.7)" xlink:href="#DejaVuSans-74"/>
      <use transform="translate(200.209961 -16.28125)scale(0.7)" xlink:href="#DejaVuSans-61"/>
      <use transform="translate(243.105469 -16.28125)scale(0.7)" xlink:href="#DejaVuSans-6c"/>
      <use transform="translate(265.288086 0.125)" xlink:href="#DejaVuSans-27e9"/>
     </g>
    </g>
   </g>
   <g id="PolyCollection_1">
    <defs>
     <path d="M 52.11 -79.730746 
L 52.11 -79.730746 
L 52.856 -79.730745 
L 53.602 -79.730745 
L 54.348 -79.730745 
L 55.094 -79.730744 
L 55.84 -79.730744 
L 56.586 -79.730743 
L 57.332 -79.730742 
L 58.078 -79.730741 
L 58.824 -79.730739 
L 59.57 -79.730737 
L 60.316 -79.730734 
L 61.062 -79.730731 
L 61.808 -79.730727 
L 62.554 -79.730722 
L 63.3 -79.730716 
L 64.046 -79.730708 
L 64.792 -79.730698 
L 65.538 -79.730686 
L 66.284 -79.73067 
L 67.03 -79.73065 
L 67.776 -79.730625 
L 68.522 -79.730594 
L 69.268 -79.730554 
L 70.014 -79.730504 
L 70.76 -79.730441 
L 71.506 -79.730362 
L 72.252 -79.730263 
L 72.998 -79.730138 
L 73.744 -79.72998 
L 74.49 -79.729782 
L 75.236 -79.729532 
L 75.982 -79.729217 
L 76.728 -79.728821 
L 77.474 -79.728323 
L 78.22 -79.727695 
L 78.966 -79.726905 
L 79.712 -79.725911 
L 80.458 -79.724659 
L 81.204 -79.723083 
L 81.95 -79.721099 
L 82.696 -79.718602 
L 83.442 -79.715459 
L 84.188 -79.711503 
L 84.934 -79.706523 
L 85.68 -79.700257 
L 86.426 -79.692371 
L 87.172 -79.682448 
L 87.918 -79.669964 
L 88.664 -79.654261 
L 89.41 -79.634511 
L 90.156 -79.609679 
L 90.902 -79.578468 
L 91.648 -79.539254 
L 92.394 -79.490013 
L 93.14 -79.428219 
L 93.886 -79.350736 
L 94.632 -79.253681 
L 95.378 -79.132267 
L 96.124 -78.980623 
L 96.87 -78.791603 
L 97.616 -78.556584 
L 98.362 -78.265279 
L 99.108 -77.905599 
L 99.854 -77.4636 
L 100.6 -76.923609 
L 101.346 -76.268592 
L 102.092 -75.480885 
L 102.838 -74.543404 
L 103.584 -73.441368 
L 104.33 -72.164553 
L 105.076 -70.709866 
L 105.822 -69.083894 
L 106.568 -67.304824 
L 107.314 -65.403105 
L 108.06 -63.420282 
L 108.806 -61.405859 
L 109.552 -59.412576 
L 110.298 -57.491001 
L 111.044 -55.684581 
L 111.79 -54.026141 
L 112.536 -52.536321 
L 113.282 -51.223903 
L 114.028 -50.087539 
L 114.774 -49.118219 
L 115.52 -48.301879 
L 116.266 -47.621739 
L 117.012 -47.060139 
L 117.758 -46.599847 
L 118.504 -46.224876 
L 119.25 -45.920923 
L 119.996 -45.675526 
L 120.742 -45.478046 
L 121.488 -45.319543 
L 122.234 -45.192591 
L 122.98 -45.091079 
L 123.726 -45.010019 
L 124.472 -44.94536 
L 125.218 -44.893828 
L 125.964 -44.852786 
L 126.71 -44.820115 
L 126.71 -44.820115 
L 126.71 -44.745228 
L 125.964 -44.758633 
L 125.218 -44.775493 
L 124.472 -44.796696 
L 123.726 -44.823353 
L 122.98 -44.856854 
L 122.234 -44.898937 
L 121.488 -44.951773 
L 120.742 -45.018062 
L 119.996 -45.101157 
L 119.25 -45.205203 
L 118.504 -45.335303 
L 117.758 -45.497702 
L 117.012 -45.699982 
L 116.266 -45.951264 
L 115.52 -46.262382 
L 114.774 -46.646 
L 114.028 -47.11662 
L 113.282 -47.690392 
L 112.536 -48.384645 
L 111.79 -49.217014 
L 111.044 -50.204081 
L 110.298 -51.359474 
L 109.552 -52.691493 
L 108.806 -54.200485 
L 108.06 -55.876427 
L 107.314 -57.697326 
L 106.568 -59.629076 
L 105.822 -61.627243 
L 105.076 -63.64076 
L 104.33 -65.616982 
L 103.584 -67.50707 
L 102.838 -69.27058 
L 102.092 -70.878392 
L 101.346 -72.313653 
L 100.6 -73.570953 
L 99.854 -74.654297 
L 99.108 -75.574534 
L 98.362 -76.346799 
L 97.616 -76.988316 
L 96.87 -77.516728 
L 96.124 -77.948949 
L 95.378 -78.300476 
L 94.632 -78.585051 
L 93.886 -78.814561 
L 93.14 -78.999103 
L 92.394 -79.14713 
L 91.648 -79.26564 
L 90.902 -79.360377 
L 90.156 -79.436022 
L 89.41 -79.496374 
L 88.664 -79.544499 
L 87.918 -79.582866 
L 87.172 -79.613461 
L 86.426 -79.637874 
L 85.68 -79.657382 
L 84.934 -79.673009 
L 84.188 -79.685578 
L 83.442 -79.695751 
L 82.696 -79.704068 
L 81.95 -79.710967 
L 81.204 -79.716816 
L 80.458 -79.721925 
L 79.712 -79.726564 
L 78.966 -79.730981 
L 78.22 -79.735411 
L 77.474 -79.740089 
L 76.728 -79.745263 
L 75.982 -79.751208 
L 75.236 -79.758241 
L 74.49 -79.766733 
L 73.744 -79.777136 
L 72.998 -79.789997 
L 72.252 -79.805997 
L 71.506 -79.825978 
L 70.76 -79.850986 
L 70.014 -79.882331 
L 69.268 -79.92164 
L 68.522 -79.970946 
L 67.776 -80.032777 
L 67.03 -80.11027 
L 66.284 -80.20731 
L 65.538 -80.328684 
L 64.792 -80.480262 
L 64.046 -80.669186 
L 63.3 -80.904077 
L 62.554 -81.195217 
L 61.808 -81.554693 
L 61.062 -81.99644 
L 60.316 -82.53613 
L 59.57 -83.190795 
L 58.824 -83.978096 
L 58.078 -84.915124 
L 57.332 -86.016668 
L 56.586 -87.292971 
L 55.84 -88.747148 
L 55.094 -90.372646 
L 54.348 -92.151311 
L 53.602 -94.05273 
L 52.856 -96.035388 
L 52.11 -98.049796 
z
" id="m403093a20a" style="stroke:#ffffff;stroke-opacity:0.7;"/>
    </defs>
    <g clip-path="url(#p10ff68b230)">
     <use style="fill:#001c7f;fill-opacity:0.7;stroke:#ffffff;stroke-opacity:0.7;" x="0" xlink:href="#m403093a20a" y="144"/>
    </g>
   </g>
   <g id="line2d_10">
    <path clip-path="url(#p10ff68b230)" d="M 52.11 64.269254 
L 52.856 64.269255 
L 53.602 64.269255 
L 54.348 64.269255 
L 55.094 64.269256 
L 55.84 64.269256 
L 56.586 64.269257 
L 57.332 64.269258 
L 58.078 64.269259 
L 58.824 64.269261 
L 59.57 64.269263 
L 60.316 64.269266 
L 61.062 64.269269 
L 61.808 64.269273 
L 62.554 64.269278 
L 63.3 64.269284 
L 64.046 64.269292 
L 64.792 64.269302 
L 65.538 64.269314 
L 66.284 64.26933 
L 67.03 64.26935 
L 67.776 64.269375 
L 68.522 64.269406 
L 69.268 64.269446 
L 70.014 64.269496 
L 70.76 64.269559 
L 71.506 64.269638 
L 72.252 64.269737 
L 72.998 64.269862 
L 73.744 64.27002 
L 74.49 64.270218 
L 75.236 64.270468 
L 75.982 64.270783 
L 76.728 64.271179 
L 77.474 64.271677 
L 78.22 64.272305 
L 78.966 64.273095 
L 79.712 64.274089 
L 80.458 64.275341 
L 81.204 64.276917 
L 81.95 64.278901 
L 82.696 64.281398 
L 83.442 64.284541 
L 84.188 64.288497 
L 84.934 64.293477 
L 85.68 64.299743 
L 86.426 64.307629 
L 87.172 64.317552 
L 87.918 64.330036 
L 88.664 64.345739 
L 89.41 64.365489 
L 90.156 64.390321 
L 90.902 64.421532 
L 91.648 64.460746 
L 92.394 64.509987 
L 93.14 64.571781 
L 93.886 64.649264 
L 94.632 64.746319 
L 95.378 64.867733 
L 96.124 65.019377 
L 96.87 65.208397 
L 97.616 65.443416 
L 98.362 65.734721 
L 99.108 66.094401 
L 99.854 66.5364 
L 100.6 67.076391 
L 101.346 67.731408 
L 102.092 68.519115 
L 102.838 69.456596 
L 103.584 70.558632 
L 104.33 71.835447 
L 105.076 73.290134 
L 105.822 74.916106 
L 106.568 76.695176 
L 107.314 78.596895 
L 108.06 80.579718 
L 108.806 82.594141 
L 109.552 84.587424 
L 110.298 86.508999 
L 111.044 88.315419 
L 111.79 89.973859 
L 112.536 91.463679 
L 113.282 92.776097 
L 114.028 93.912461 
L 114.774 94.881781 
L 115.52 95.698121 
L 116.266 96.378261 
L 117.012 96.939861 
L 117.758 97.400153 
L 118.504 97.775124 
L 119.25 98.079077 
L 119.996 98.324474 
L 120.742 98.521954 
L 121.488 98.680457 
L 122.234 98.807409 
L 122.98 98.908921 
L 123.726 98.989981 
L 124.472 99.05464 
L 125.218 99.106172 
L 125.964 99.147214 
L 126.71 99.179885 
" style="fill:none;stroke:#333333;stroke-dasharray:1.5,2.475;stroke-dashoffset:0;stroke-width:1.5;"/>
   </g>
   <g id="line2d_11">
    <path clip-path="url(#p10ff68b230)" d="M 52.11 45.950204 
L 52.856 47.964612 
L 53.602 49.94727 
L 54.348 51.848689 
L 55.094 53.627354 
L 55.84 55.252852 
L 56.586 56.707029 
L 57.332 57.983332 
L 58.078 59.084876 
L 58.824 60.021904 
L 59.57 60.809205 
L 60.316 61.46387 
L 61.062 62.00356 
L 61.808 62.445307 
L 62.554 62.804783 
L 63.3 63.095923 
L 64.046 63.330814 
L 64.792 63.519738 
L 65.538 63.671316 
L 66.284 63.79269 
L 67.03 63.88973 
L 67.776 63.967223 
L 68.522 64.029054 
L 69.268 64.07836 
L 70.014 64.117669 
L 70.76 64.149014 
L 71.506 64.174022 
L 72.252 64.194003 
L 72.998 64.210003 
L 73.744 64.222864 
L 74.49 64.233267 
L 75.236 64.241759 
L 75.982 64.248792 
L 76.728 64.254737 
L 77.474 64.259911 
L 78.22 64.264589 
L 78.966 64.269019 
L 79.712 64.273436 
L 80.458 64.278075 
L 81.204 64.283184 
L 81.95 64.289033 
L 82.696 64.295932 
L 83.442 64.304249 
L 84.188 64.314422 
L 84.934 64.326991 
L 85.68 64.342618 
L 86.426 64.362126 
L 87.172 64.386539 
L 87.918 64.417134 
L 88.664 64.455501 
L 89.41 64.503626 
L 90.156 64.563978 
L 90.902 64.639623 
L 91.648 64.73436 
L 92.394 64.85287 
L 93.14 65.000897 
L 93.886 65.185439 
L 94.632 65.414949 
L 95.378 65.699524 
L 96.124 66.051051 
L 96.87 66.483272 
L 97.616 67.011684 
L 98.362 67.653201 
L 99.108 68.425466 
L 99.854 69.345703 
L 100.6 70.429047 
L 101.346 71.686347 
L 102.092 73.121608 
L 102.838 74.72942 
L 103.584 76.49293 
L 104.33 78.383018 
L 105.076 80.35924 
L 105.822 82.372757 
L 106.568 84.370924 
L 107.314 86.302674 
L 108.06 88.123573 
L 108.806 89.799515 
L 109.552 91.308507 
L 110.298 92.640526 
L 111.044 93.795919 
L 111.79 94.782986 
L 112.536 95.615355 
L 113.282 96.309608 
L 114.028 96.88338 
L 114.774 97.354 
L 115.52 97.737618 
L 116.266 98.048736 
L 117.012 98.300018 
L 117.758 98.502298 
L 118.504 98.664697 
L 119.25 98.794797 
L 119.996 98.898843 
L 120.742 98.981938 
L 121.488 99.048227 
L 122.234 99.101063 
L 122.98 99.143146 
L 123.726 99.176647 
L 124.472 99.203304 
L 125.218 99.224507 
L 125.964 99.241367 
L 126.71 99.254772 
" style="fill:none;stroke:#333333;stroke-linecap:round;stroke-width:1.5;"/>
   </g>
   <g id="patch_3">
    <path d="M 48.38 101.92 
L 48.38 27.48 
" style="fill:none;stroke:#262626;stroke-linecap:square;stroke-linejoin:miter;stroke-width:0.8;"/>
   </g>
   <g id="patch_4">
    <path d="M 48.38 101.92 
L 130.44 101.92 
" style="fill:none;stroke:#262626;stroke-linecap:square;stroke-linejoin:miter;stroke-width:0.8;"/>
   </g>
   <g id="text_12">
    <!-- $\Delta$ area : 0.74 -->
    <defs>
     <path d="M 34.1875 63.1875 
L 14.15625 8.203125 
L 54.25 8.203125 
z
M 0.78125 0 
L 28.609375 72.90625 
L 39.796875 72.90625 
L 67.578125 0 
z
" id="DejaVuSans-394"/>
     <path id="ArialMT-20"/>
     <path d="M 40.4375 6.390625 
Q 35.546875 2.25 31.03125 0.53125 
Q 26.515625 -1.171875 21.34375 -1.171875 
Q 12.796875 -1.171875 8.203125 3 
Q 3.609375 7.171875 3.609375 13.671875 
Q 3.609375 17.484375 5.34375 20.625 
Q 7.078125 23.78125 9.890625 25.6875 
Q 12.703125 27.59375 16.21875 28.5625 
Q 18.796875 29.25 24.03125 29.890625 
Q 34.671875 31.15625 39.703125 32.90625 
Q 39.75 34.71875 39.75 35.203125 
Q 39.75 40.578125 37.25 42.78125 
Q 33.890625 45.75 27.25 45.75 
Q 21.046875 45.75 18.09375 43.578125 
Q 15.140625 41.40625 13.71875 35.890625 
L 5.125 37.0625 
Q 6.296875 42.578125 8.984375 45.96875 
Q 11.671875 49.359375 16.75 51.1875 
Q 21.828125 53.03125 28.515625 53.03125 
Q 35.15625 53.03125 39.296875 51.46875 
Q 43.453125 49.90625 45.40625 47.53125 
Q 47.359375 45.171875 48.140625 41.546875 
Q 48.578125 39.3125 48.578125 33.453125 
L 48.578125 21.734375 
Q 48.578125 9.46875 49.140625 6.21875 
Q 49.703125 2.984375 51.375 0 
L 42.1875 0 
Q 40.828125 2.734375 40.4375 6.390625 
z
M 39.703125 26.03125 
Q 34.90625 24.078125 25.34375 22.703125 
Q 19.921875 21.921875 17.671875 20.9375 
Q 15.4375 19.96875 14.203125 18.09375 
Q 12.984375 16.21875 12.984375 13.921875 
Q 12.984375 10.40625 15.640625 8.0625 
Q 18.3125 5.71875 23.4375 5.71875 
Q 28.515625 5.71875 32.46875 7.9375 
Q 36.421875 10.15625 38.28125 14.015625 
Q 39.703125 17 39.703125 22.796875 
z
" id="ArialMT-61"/>
     <path d="M 6.5 0 
L 6.5 51.859375 
L 14.40625 51.859375 
L 14.40625 44 
Q 17.4375 49.515625 20 51.265625 
Q 22.5625 53.03125 25.640625 53.03125 
Q 30.078125 53.03125 34.671875 50.203125 
L 31.640625 42.046875 
Q 28.421875 43.953125 25.203125 43.953125 
Q 22.3125 43.953125 20.015625 42.21875 
Q 17.71875 40.484375 16.75 37.40625 
Q 15.28125 32.71875 15.28125 27.15625 
L 15.28125 0 
z
" id="ArialMT-72"/>
     <path d="M 42.09375 16.703125 
L 51.171875 15.578125 
Q 49.03125 7.625 43.21875 3.21875 
Q 37.40625 -1.171875 28.375 -1.171875 
Q 17 -1.171875 10.328125 5.828125 
Q 3.65625 12.84375 3.65625 25.484375 
Q 3.65625 38.578125 10.390625 45.796875 
Q 17.140625 53.03125 27.875 53.03125 
Q 38.28125 53.03125 44.875 45.953125 
Q 51.46875 38.875 51.46875 26.03125 
Q 51.46875 25.25 51.421875 23.6875 
L 12.75 23.6875 
Q 13.234375 15.140625 17.578125 10.59375 
Q 21.921875 6.0625 28.421875 6.0625 
Q 33.25 6.0625 36.671875 8.59375 
Q 40.09375 11.140625 42.09375 16.703125 
z
M 13.234375 30.90625 
L 42.1875 30.90625 
Q 41.609375 37.453125 38.875 40.71875 
Q 34.671875 45.796875 27.984375 45.796875 
Q 21.921875 45.796875 17.796875 41.75 
Q 13.671875 37.703125 13.234375 30.90625 
z
" id="ArialMT-65"/>
     <path d="M 9.03125 41.84375 
L 9.03125 51.859375 
L 19.046875 51.859375 
L 19.046875 41.84375 
z
M 9.03125 0 
L 9.03125 10.015625 
L 19.046875 10.015625 
L 19.046875 0 
z
" id="ArialMT-3a"/>
     <path d="M 9.078125 0 
L 9.078125 10.015625 
L 19.09375 10.015625 
L 19.09375 0 
z
" id="ArialMT-2e"/>
     <path d="M 4.734375 62.203125 
L 4.734375 70.65625 
L 51.078125 70.65625 
L 51.078125 63.8125 
Q 44.234375 56.546875 37.515625 44.484375 
Q 30.8125 32.421875 27.15625 19.671875 
Q 24.515625 10.6875 23.78125 0 
L 14.75 0 
Q 14.890625 8.453125 18.0625 20.40625 
Q 21.234375 32.375 27.171875 43.484375 
Q 33.109375 54.59375 39.796875 62.203125 
z
" id="ArialMT-37"/>
    </defs>
    <g style="fill:#262626;" transform="translate(51.46 21.48)scale(0.132 -0.132)">
     <use transform="translate(0 0.09375)" xlink:href="#DejaVuSans-394"/>
     <use transform="translate(68.408203 0.09375)" xlink:href="#ArialMT-20"/>
     <use transform="translate(96.191406 0.09375)" xlink:href="#ArialMT-61"/>
     <use transform="translate(151.806641 0.09375)" xlink:href="#ArialMT-72"/>
     <use transform="translate(185.107422 0.09375)" xlink:href="#ArialMT-65"/>
     <use transform="translate(240.722656 0.09375)" xlink:href="#ArialMT-61"/>
     <use transform="translate(296.337891 0.09375)" xlink:href="#ArialMT-20"/>
     <use transform="translate(324.121094 0.09375)" xlink:href="#ArialMT-3a"/>
     <use transform="translate(351.904297 0.09375)" xlink:href="#ArialMT-20"/>
     <use transform="translate(379.6875 0.09375)" xlink:href="#ArialMT-30"/>
     <use transform="translate(435.302734 0.09375)" xlink:href="#ArialMT-2e"/>
     <use transform="translate(463.085938 0.09375)" xlink:href="#ArialMT-37"/>
     <use transform="translate(518.701172 0.09375)" xlink:href="#ArialMT-34"/>
    </g>
   </g>
  </g>
 </g>
 <defs>
  <clipPath id="p10ff68b230">
   <rect height="74.44" width="82.06" x="48.38" y="27.48"/>
  </clipPath>
 </defs>
</svg>
