<?xml version="1.0" encoding="utf-8" standalone="no"?>
<!DOCTYPE svg PUBLIC "-//W3C//DTD SVG 1.1//EN"
  "http://www.w3.org/Graphics/SVG/1.1/DTD/svg11.dtd">
<!-- Created with matplotlib (http://matplotlib.org/) -->
<svg height="144pt" version="1.1" viewBox="0 0 144 144" width="144pt" xmlns="http://www.w3.org/2000/svg" xmlns:xlink="http://www.w3.org/1999/xlink">
 <defs>
  <style type="text/css">
*{stroke-linecap:butt;stroke-linejoin:round;}
  </style>
 </defs>
 <g id="figure_1">
  <g id="patch_1">
   <path d="M 0 144 
L 144 144 
L 144 0 
L 0 0 
z
" style="fill:#ffffff;"/>
  </g>
  <g id="axes_1">
   <g id="patch_2">
    <path d="M 18 126 
L 129.6 126 
L 129.6 17.28 
L 18 17.28 
z
" style="fill:#ffffff;"/>
   </g>
   <g id="matplotlib.axis_1">
    <g id="xtick_1">
     <g id="line2d_1">
      <defs>
       <path d="M 0 0 
L 0 3.5 
" id="m7ec4073e67" style="stroke:#262626;stroke-width:0.8;"/>
      </defs>
      <g>
       <use style="fill:#262626;stroke:#262626;stroke-width:0.8;" x="23.414716" xlink:href="#m7ec4073e67" y="126"/>
      </g>
     </g>
     <g id="text_1">
      <!-- −8 -->
      <defs>
       <path d="M 52.828125 31.203125 
L 5.5625 31.203125 
L 5.5625 39.40625 
L 52.828125 39.40625 
z
" id="ArialMT-2212"/>
       <path d="M 17.671875 38.8125 
Q 12.203125 40.828125 9.5625 44.53125 
Q 6.9375 48.25 6.9375 53.421875 
Q 6.9375 61.234375 12.546875 66.546875 
Q 18.171875 71.875 27.484375 71.875 
Q 36.859375 71.875 42.578125 66.421875 
Q 48.296875 60.984375 48.296875 53.171875 
Q 48.296875 48.1875 45.671875 44.5 
Q 43.0625 40.828125 37.75 38.8125 
Q 44.34375 36.671875 47.78125 31.875 
Q 51.21875 27.09375 51.21875 20.453125 
Q 51.21875 11.28125 44.71875 5.03125 
Q 38.234375 -1.21875 27.640625 -1.21875 
Q 17.046875 -1.21875 10.546875 5.046875 
Q 4.046875 11.328125 4.046875 20.703125 
Q 4.046875 27.6875 7.59375 32.390625 
Q 11.140625 37.109375 17.671875 38.8125 
z
M 15.921875 53.71875 
Q 15.921875 48.640625 19.1875 45.40625 
Q 22.46875 42.1875 27.6875 42.1875 
Q 32.765625 42.1875 36.015625 45.375 
Q 39.265625 48.578125 39.265625 53.21875 
Q 39.265625 58.0625 35.90625 61.359375 
Q 32.5625 64.65625 27.59375 64.65625 
Q 22.5625 64.65625 19.234375 61.421875 
Q 15.921875 58.203125 15.921875 53.71875 
z
M 13.09375 20.65625 
Q 13.09375 16.890625 14.875 13.375 
Q 16.65625 9.859375 20.171875 7.921875 
Q 23.6875 6 27.734375 6 
Q 34.03125 6 38.125 10.046875 
Q 42.234375 14.109375 42.234375 20.359375 
Q 42.234375 26.703125 38.015625 30.859375 
Q 33.796875 35.015625 27.4375 35.015625 
Q 21.234375 35.015625 17.15625 30.90625 
Q 13.09375 26.8125 13.09375 20.65625 
z
" id="ArialMT-38"/>
      </defs>
      <g style="fill:#262626;" transform="translate(17.713935 140.157813)scale(0.1 -0.1)">
       <use xlink:href="#ArialMT-2212"/>
       <use x="58.398438" xlink:href="#ArialMT-38"/>
      </g>
     </g>
    </g>
    <g id="xtick_2">
     <g id="line2d_2">
      <g>
       <use style="fill:#262626;stroke:#262626;stroke-width:0.8;" x="30.374009" xlink:href="#m7ec4073e67" y="126"/>
      </g>
     </g>
     <g id="text_2">
      <!-- −7 -->
      <defs>
       <path d="M 4.734375 62.203125 
L 4.734375 70.65625 
L 51.078125 70.65625 
L 51.078125 63.8125 
Q 44.234375 56.546875 37.515625 44.484375 
Q 30.8125 32.421875 27.15625 19.671875 
Q 24.515625 10.6875 23.78125 0 
L 14.75 0 
Q 14.890625 8.453125 18.0625 20.40625 
Q 21.234375 32.375 27.171875 43.484375 
Q 33.109375 54.59375 39.796875 62.203125 
z
" id="ArialMT-37"/>
      </defs>
      <g style="fill:#262626;" transform="translate(24.673228 140.157813)scale(0.1 -0.1)">
       <use xlink:href="#ArialMT-2212"/>
       <use x="58.398438" xlink:href="#ArialMT-37"/>
      </g>
     </g>
    </g>
    <g id="xtick_3">
     <g id="line2d_3">
      <g>
       <use style="fill:#262626;stroke:#262626;stroke-width:0.8;" x="37.333303" xlink:href="#m7ec4073e67" y="126"/>
      </g>
     </g>
     <g id="text_3">
      <!-- −6 -->
      <defs>
       <path d="M 49.75 54.046875 
L 41.015625 53.375 
Q 39.84375 58.546875 37.703125 60.890625 
Q 34.125 64.65625 28.90625 64.65625 
Q 24.703125 64.65625 21.53125 62.3125 
Q 17.390625 59.28125 14.984375 53.46875 
Q 12.59375 47.65625 12.5 36.921875 
Q 15.671875 41.75 20.265625 44.09375 
Q 24.859375 46.4375 29.890625 46.4375 
Q 38.671875 46.4375 44.84375 39.96875 
Q 51.03125 33.5 51.03125 23.25 
Q 51.03125 16.5 48.125 10.71875 
Q 45.21875 4.9375 40.140625 1.859375 
Q 35.0625 -1.21875 28.609375 -1.21875 
Q 17.625 -1.21875 10.6875 6.859375 
Q 3.765625 14.9375 3.765625 33.5 
Q 3.765625 54.25 11.421875 63.671875 
Q 18.109375 71.875 29.4375 71.875 
Q 37.890625 71.875 43.28125 67.140625 
Q 48.6875 62.40625 49.75 54.046875 
z
M 13.875 23.1875 
Q 13.875 18.65625 15.796875 14.5 
Q 17.71875 10.359375 21.1875 8.171875 
Q 24.65625 6 28.46875 6 
Q 34.03125 6 38.03125 10.484375 
Q 42.046875 14.984375 42.046875 22.703125 
Q 42.046875 30.125 38.078125 34.390625 
Q 34.125 38.671875 28.125 38.671875 
Q 22.171875 38.671875 18.015625 34.390625 
Q 13.875 30.125 13.875 23.1875 
z
" id="ArialMT-36"/>
      </defs>
      <g style="fill:#262626;" transform="translate(31.632521 140.157813)scale(0.1 -0.1)">
       <use xlink:href="#ArialMT-2212"/>
       <use x="58.398438" xlink:href="#ArialMT-36"/>
      </g>
     </g>
    </g>
    <g id="xtick_4">
     <g id="line2d_4">
      <g>
       <use style="fill:#262626;stroke:#262626;stroke-width:0.8;" x="44.292596" xlink:href="#m7ec4073e67" y="126"/>
      </g>
     </g>
     <g id="text_4">
      <!-- −5 -->
      <defs>
       <path d="M 4.15625 18.75 
L 13.375 19.53125 
Q 14.40625 12.796875 18.140625 9.390625 
Q 21.875 6 27.15625 6 
Q 33.5 6 37.890625 10.78125 
Q 42.28125 15.578125 42.28125 23.484375 
Q 42.28125 31 38.0625 35.34375 
Q 33.84375 39.703125 27 39.703125 
Q 22.75 39.703125 19.328125 37.765625 
Q 15.921875 35.84375 13.96875 32.765625 
L 5.71875 33.84375 
L 12.640625 70.609375 
L 48.25 70.609375 
L 48.25 62.203125 
L 19.671875 62.203125 
L 15.828125 42.96875 
Q 22.265625 47.46875 29.34375 47.46875 
Q 38.71875 47.46875 45.15625 40.96875 
Q 51.609375 34.46875 51.609375 24.265625 
Q 51.609375 14.546875 45.953125 7.46875 
Q 39.0625 -1.21875 27.15625 -1.21875 
Q 17.390625 -1.21875 11.203125 4.25 
Q 5.03125 9.71875 4.15625 18.75 
z
" id="ArialMT-35"/>
      </defs>
      <g style="fill:#262626;" transform="translate(38.591815 140.157813)scale(0.1 -0.1)">
       <use xlink:href="#ArialMT-2212"/>
       <use x="58.398438" xlink:href="#ArialMT-35"/>
      </g>
     </g>
    </g>
    <g id="xtick_5">
     <g id="line2d_5">
      <g>
       <use style="fill:#262626;stroke:#262626;stroke-width:0.8;" x="51.251889" xlink:href="#m7ec4073e67" y="126"/>
      </g>
     </g>
     <g id="text_5">
      <!-- −4 -->
      <defs>
       <path d="M 32.328125 0 
L 32.328125 17.140625 
L 1.265625 17.140625 
L 1.265625 25.203125 
L 33.9375 71.578125 
L 41.109375 71.578125 
L 41.109375 25.203125 
L 50.78125 25.203125 
L 50.78125 17.140625 
L 41.109375 17.140625 
L 41.109375 0 
z
M 32.328125 25.203125 
L 32.328125 57.46875 
L 9.90625 25.203125 
z
" id="ArialMT-34"/>
      </defs>
      <g style="fill:#262626;" transform="translate(45.551108 140.157813)scale(0.1 -0.1)">
       <use xlink:href="#ArialMT-2212"/>
       <use x="58.398438" xlink:href="#ArialMT-34"/>
      </g>
     </g>
    </g>
    <g id="xtick_6">
     <g id="line2d_6">
      <g>
       <use style="fill:#262626;stroke:#262626;stroke-width:0.8;" x="58.211183" xlink:href="#m7ec4073e67" y="126"/>
      </g>
     </g>
     <g id="text_6">
      <!-- −3 -->
      <defs>
       <path d="M 4.203125 18.890625 
L 12.984375 20.0625 
Q 14.5 12.59375 18.140625 9.296875 
Q 21.78125 6 27 6 
Q 33.203125 6 37.46875 10.296875 
Q 41.75 14.59375 41.75 20.953125 
Q 41.75 27 37.796875 30.921875 
Q 33.84375 34.859375 27.734375 34.859375 
Q 25.25 34.859375 21.53125 33.890625 
L 22.515625 41.609375 
Q 23.390625 41.5 23.921875 41.5 
Q 29.546875 41.5 34.03125 44.421875 
Q 38.53125 47.359375 38.53125 53.46875 
Q 38.53125 58.296875 35.25 61.46875 
Q 31.984375 64.65625 26.8125 64.65625 
Q 21.6875 64.65625 18.265625 61.421875 
Q 14.84375 58.203125 13.875 51.765625 
L 5.078125 53.328125 
Q 6.6875 62.15625 12.390625 67.015625 
Q 18.109375 71.875 26.609375 71.875 
Q 32.46875 71.875 37.390625 69.359375 
Q 42.328125 66.84375 44.9375 62.5 
Q 47.5625 58.15625 47.5625 53.265625 
Q 47.5625 48.640625 45.0625 44.828125 
Q 42.578125 41.015625 37.703125 38.765625 
Q 44.046875 37.3125 47.5625 32.6875 
Q 51.078125 28.078125 51.078125 21.140625 
Q 51.078125 11.765625 44.234375 5.25 
Q 37.40625 -1.265625 26.953125 -1.265625 
Q 17.53125 -1.265625 11.296875 4.34375 
Q 5.078125 9.96875 4.203125 18.890625 
z
" id="ArialMT-33"/>
      </defs>
      <g style="fill:#262626;" transform="translate(52.510402 140.157813)scale(0.1 -0.1)">
       <use xlink:href="#ArialMT-2212"/>
       <use x="58.398438" xlink:href="#ArialMT-33"/>
      </g>
     </g>
    </g>
    <g id="xtick_7">
     <g id="line2d_7">
      <g>
       <use style="fill:#262626;stroke:#262626;stroke-width:0.8;" x="65.170476" xlink:href="#m7ec4073e67" y="126"/>
      </g>
     </g>
     <g id="text_7">
      <!-- −2 -->
      <defs>
       <path d="M 50.34375 8.453125 
L 50.34375 0 
L 3.03125 0 
Q 2.9375 3.171875 4.046875 6.109375 
Q 5.859375 10.9375 9.828125 15.625 
Q 13.8125 20.3125 21.34375 26.46875 
Q 33.015625 36.03125 37.109375 41.625 
Q 41.21875 47.21875 41.21875 52.203125 
Q 41.21875 57.421875 37.46875 61 
Q 33.734375 64.59375 27.734375 64.59375 
Q 21.390625 64.59375 17.578125 60.78125 
Q 13.765625 56.984375 13.71875 50.25 
L 4.6875 51.171875 
Q 5.609375 61.28125 11.65625 66.578125 
Q 17.71875 71.875 27.9375 71.875 
Q 38.234375 71.875 44.234375 66.15625 
Q 50.25 60.453125 50.25 52 
Q 50.25 47.703125 48.484375 43.546875 
Q 46.734375 39.40625 42.65625 34.8125 
Q 38.578125 30.21875 29.109375 22.21875 
Q 21.1875 15.578125 18.9375 13.203125 
Q 16.703125 10.84375 15.234375 8.453125 
z
" id="ArialMT-32"/>
      </defs>
      <g style="fill:#262626;" transform="translate(59.469695 140.157813)scale(0.1 -0.1)">
       <use xlink:href="#ArialMT-2212"/>
       <use x="58.398438" xlink:href="#ArialMT-32"/>
      </g>
     </g>
    </g>
    <g id="xtick_8">
     <g id="line2d_8">
      <g>
       <use style="fill:#262626;stroke:#262626;stroke-width:0.8;" x="72.12977" xlink:href="#m7ec4073e67" y="126"/>
      </g>
     </g>
     <g id="text_8">
      <!-- −1 -->
      <defs>
       <path d="M 37.25 0 
L 28.46875 0 
L 28.46875 56 
Q 25.296875 52.984375 20.140625 49.953125 
Q 14.984375 46.921875 10.890625 45.40625 
L 10.890625 53.90625 
Q 18.265625 57.375 23.78125 62.296875 
Q 29.296875 67.234375 31.59375 71.875 
L 37.25 71.875 
z
" id="ArialMT-31"/>
      </defs>
      <g style="fill:#262626;" transform="translate(66.428988 140.157813)scale(0.1 -0.1)">
       <use xlink:href="#ArialMT-2212"/>
       <use x="58.398438" xlink:href="#ArialMT-31"/>
      </g>
     </g>
    </g>
    <g id="xtick_9">
     <g id="line2d_9">
      <g>
       <use style="fill:#262626;stroke:#262626;stroke-width:0.8;" x="79.089063" xlink:href="#m7ec4073e67" y="126"/>
      </g>
     </g>
     <g id="text_9">
      <!-- 0 -->
      <defs>
       <path d="M 4.15625 35.296875 
Q 4.15625 48 6.765625 55.734375 
Q 9.375 63.484375 14.515625 67.671875 
Q 19.671875 71.875 27.484375 71.875 
Q 33.25 71.875 37.59375 69.546875 
Q 41.9375 67.234375 44.765625 62.859375 
Q 47.609375 58.5 49.21875 52.21875 
Q 50.828125 45.953125 50.828125 35.296875 
Q 50.828125 22.703125 48.234375 14.96875 
Q 45.65625 7.234375 40.5 3 
Q 35.359375 -1.21875 27.484375 -1.21875 
Q 17.140625 -1.21875 11.234375 6.203125 
Q 4.15625 15.140625 4.15625 35.296875 
z
M 13.1875 35.296875 
Q 13.1875 17.671875 17.3125 11.828125 
Q 21.4375 6 27.484375 6 
Q 33.546875 6 37.671875 11.859375 
Q 41.796875 17.71875 41.796875 35.296875 
Q 41.796875 52.984375 37.671875 58.78125 
Q 33.546875 64.59375 27.390625 64.59375 
Q 21.34375 64.59375 17.71875 59.46875 
Q 13.1875 52.9375 13.1875 35.296875 
z
" id="ArialMT-30"/>
      </defs>
      <g style="fill:#262626;" transform="translate(76.308594 140.157813)scale(0.1 -0.1)">
       <use xlink:href="#ArialMT-30"/>
      </g>
     </g>
    </g>
    <g id="xtick_10">
     <g id="line2d_10">
      <g>
       <use style="fill:#262626;stroke:#262626;stroke-width:0.8;" x="86.048356" xlink:href="#m7ec4073e67" y="126"/>
      </g>
     </g>
     <g id="text_10">
      <!-- 1 -->
      <g style="fill:#262626;" transform="translate(83.267888 140.157813)scale(0.1 -0.1)">
       <use xlink:href="#ArialMT-31"/>
      </g>
     </g>
    </g>
    <g id="xtick_11">
     <g id="line2d_11">
      <g>
       <use style="fill:#262626;stroke:#262626;stroke-width:0.8;" x="93.00765" xlink:href="#m7ec4073e67" y="126"/>
      </g>
     </g>
     <g id="text_11">
      <!-- 2 -->
      <g style="fill:#262626;" transform="translate(90.227181 140.157813)scale(0.1 -0.1)">
       <use xlink:href="#ArialMT-32"/>
      </g>
     </g>
    </g>
    <g id="xtick_12">
     <g id="line2d_12">
      <g>
       <use style="fill:#262626;stroke:#262626;stroke-width:0.8;" x="99.966943" xlink:href="#m7ec4073e67" y="126"/>
      </g>
     </g>
     <g id="text_12">
      <!-- 3 -->
      <g style="fill:#262626;" transform="translate(97.186474 140.157813)scale(0.1 -0.1)">
       <use xlink:href="#ArialMT-33"/>
      </g>
     </g>
    </g>
    <g id="xtick_13">
     <g id="line2d_13">
      <g>
       <use style="fill:#262626;stroke:#262626;stroke-width:0.8;" x="106.926237" xlink:href="#m7ec4073e67" y="126"/>
      </g>
     </g>
     <g id="text_13">
      <!-- 4 -->
      <g style="fill:#262626;" transform="translate(104.145768 140.157813)scale(0.1 -0.1)">
       <use xlink:href="#ArialMT-34"/>
      </g>
     </g>
    </g>
    <g id="xtick_14">
     <g id="line2d_14">
      <g>
       <use style="fill:#262626;stroke:#262626;stroke-width:0.8;" x="113.88553" xlink:href="#m7ec4073e67" y="126"/>
      </g>
     </g>
     <g id="text_14">
      <!-- 5 -->
      <g style="fill:#262626;" transform="translate(111.105061 140.157813)scale(0.1 -0.1)">
       <use xlink:href="#ArialMT-35"/>
      </g>
     </g>
    </g>
    <g id="xtick_15">
     <g id="line2d_15">
      <g>
       <use style="fill:#262626;stroke:#262626;stroke-width:0.8;" x="120.844823" xlink:href="#m7ec4073e67" y="126"/>
      </g>
     </g>
     <g id="text_15">
      <!-- 6 -->
      <g style="fill:#262626;" transform="translate(118.064355 140.157813)scale(0.1 -0.1)">
       <use xlink:href="#ArialMT-36"/>
      </g>
     </g>
    </g>
    <g id="xtick_16">
     <g id="line2d_16">
      <g>
       <use style="fill:#262626;stroke:#262626;stroke-width:0.8;" x="127.804117" xlink:href="#m7ec4073e67" y="126"/>
      </g>
     </g>
     <g id="text_16">
      <!-- 7 -->
      <g style="fill:#262626;" transform="translate(125.023648 140.157813)scale(0.1 -0.1)">
       <use xlink:href="#ArialMT-37"/>
      </g>
     </g>
    </g>
    <g id="text_17">
     <!-- $pKa$ Jaguar micro - $pKa$ Epik micro -->
     <defs>
      <path d="M 49.609375 33.6875 
Q 49.609375 40.875 46.484375 44.671875 
Q 43.359375 48.484375 37.5 48.484375 
Q 33.5 48.484375 29.859375 46.4375 
Q 26.21875 44.390625 23.390625 40.484375 
Q 20.609375 36.625 18.9375 31.15625 
Q 17.28125 25.6875 17.28125 20.3125 
Q 17.28125 13.484375 20.40625 9.796875 
Q 23.53125 6.109375 29.296875 6.109375 
Q 33.546875 6.109375 37.1875 8.109375 
Q 40.828125 10.109375 43.40625 13.921875 
Q 46.1875 17.921875 47.890625 23.34375 
Q 49.609375 28.765625 49.609375 33.6875 
z
M 21.78125 46.390625 
Q 25.390625 51.125 30.296875 53.5625 
Q 35.203125 56 41.21875 56 
Q 49.609375 56 54.25 50.5 
Q 58.890625 45.015625 58.890625 35.109375 
Q 58.890625 27 56 19.65625 
Q 53.125 12.3125 47.703125 6.5 
Q 44.09375 2.640625 39.546875 0.609375 
Q 35.015625 -1.421875 29.984375 -1.421875 
Q 24.171875 -1.421875 20.21875 1 
Q 16.265625 3.421875 14.3125 8.203125 
L 8.6875 -20.796875 
L -0.296875 -20.796875 
L 14.40625 54.6875 
L 23.390625 54.6875 
z
" id="DejaVuSans-Oblique-70"/>
      <path d="M 16.890625 72.90625 
L 26.8125 72.90625 
L 20.796875 42.1875 
L 59.078125 72.90625 
L 72.21875 72.90625 
L 28.90625 38.09375 
L 60.59375 0 
L 48.578125 0 
L 19.484375 35.5 
L 12.59375 0 
L 2.6875 0 
z
" id="DejaVuSans-Oblique-4b"/>
      <path d="M 53.71875 31.203125 
L 47.609375 0 
L 38.625 0 
L 40.28125 8.296875 
Q 36.328125 3.421875 31.265625 1 
Q 26.21875 -1.421875 20.015625 -1.421875 
Q 13.03125 -1.421875 8.5625 2.84375 
Q 4.109375 7.125 4.109375 13.8125 
Q 4.109375 23.390625 11.75 28.953125 
Q 19.390625 34.515625 32.8125 34.515625 
L 45.3125 34.515625 
L 45.796875 36.921875 
Q 45.90625 37.3125 45.953125 37.765625 
Q 46 38.234375 46 39.203125 
Q 46 43.5625 42.453125 45.96875 
Q 38.921875 48.390625 32.515625 48.390625 
Q 28.125 48.390625 23.5 47.265625 
Q 18.890625 46.140625 14.015625 43.890625 
L 15.578125 52.203125 
Q 20.65625 54.109375 25.515625 55.046875 
Q 30.375 56 34.90625 56 
Q 44.578125 56 49.625 51.796875 
Q 54.6875 47.609375 54.6875 39.59375 
Q 54.6875 37.984375 54.4375 35.8125 
Q 54.203125 33.640625 53.71875 31.203125 
z
M 44 27.484375 
L 35.015625 27.484375 
Q 23.96875 27.484375 18.671875 24.53125 
Q 13.375 21.578125 13.375 15.375 
Q 13.375 11.078125 16.078125 8.640625 
Q 18.796875 6.203125 23.578125 6.203125 
Q 30.90625 6.203125 36.375 11.453125 
Q 41.84375 16.703125 43.609375 25.484375 
z
" id="DejaVuSans-Oblique-61"/>
      <path id="ArialMT-20"/>
      <path d="M 2.875 20.3125 
L 11.421875 21.484375 
Q 11.765625 13.28125 14.5 10.25 
Q 17.234375 7.234375 22.078125 7.234375 
Q 25.640625 7.234375 28.21875 8.859375 
Q 30.8125 10.5 31.78125 13.296875 
Q 32.765625 16.109375 32.765625 22.265625 
L 32.765625 71.578125 
L 42.234375 71.578125 
L 42.234375 22.796875 
Q 42.234375 13.8125 40.0625 8.875 
Q 37.890625 3.953125 33.171875 1.359375 
Q 28.46875 -1.21875 22.125 -1.21875 
Q 12.703125 -1.21875 7.6875 4.203125 
Q 2.6875 9.625 2.875 20.3125 
z
" id="ArialMT-4a"/>
      <path d="M 40.4375 6.390625 
Q 35.546875 2.25 31.03125 0.53125 
Q 26.515625 -1.171875 21.34375 -1.171875 
Q 12.796875 -1.171875 8.203125 3 
Q 3.609375 7.171875 3.609375 13.671875 
Q 3.609375 17.484375 5.34375 20.625 
Q 7.078125 23.78125 9.890625 25.6875 
Q 12.703125 27.59375 16.21875 28.5625 
Q 18.796875 29.25 24.03125 29.890625 
Q 34.671875 31.15625 39.703125 32.90625 
Q 39.75 34.71875 39.75 35.203125 
Q 39.75 40.578125 37.25 42.78125 
Q 33.890625 45.75 27.25 45.75 
Q 21.046875 45.75 18.09375 43.578125 
Q 15.140625 41.40625 13.71875 35.890625 
L 5.125 37.0625 
Q 6.296875 42.578125 8.984375 45.96875 
Q 11.671875 49.359375 16.75 51.1875 
Q 21.828125 53.03125 28.515625 53.03125 
Q 35.15625 53.03125 39.296875 51.46875 
Q 43.453125 49.90625 45.40625 47.53125 
Q 47.359375 45.171875 48.140625 41.546875 
Q 48.578125 39.3125 48.578125 33.453125 
L 48.578125 21.734375 
Q 48.578125 9.46875 49.140625 6.21875 
Q 49.703125 2.984375 51.375 0 
L 42.1875 0 
Q 40.828125 2.734375 40.4375 6.390625 
z
M 39.703125 26.03125 
Q 34.90625 24.078125 25.34375 22.703125 
Q 19.921875 21.921875 17.671875 20.9375 
Q 15.4375 19.96875 14.203125 18.09375 
Q 12.984375 16.21875 12.984375 13.921875 
Q 12.984375 10.40625 15.640625 8.0625 
Q 18.3125 5.71875 23.4375 5.71875 
Q 28.515625 5.71875 32.46875 7.9375 
Q 36.421875 10.15625 38.28125 14.015625 
Q 39.703125 17 39.703125 22.796875 
z
" id="ArialMT-61"/>
      <path d="M 4.984375 -4.296875 
L 13.53125 -5.5625 
Q 14.0625 -9.515625 16.5 -11.328125 
Q 19.78125 -13.765625 25.4375 -13.765625 
Q 31.546875 -13.765625 34.859375 -11.328125 
Q 38.1875 -8.890625 39.359375 -4.5 
Q 40.046875 -1.8125 39.984375 6.78125 
Q 34.234375 0 25.640625 0 
Q 14.9375 0 9.078125 7.71875 
Q 3.21875 15.4375 3.21875 26.21875 
Q 3.21875 33.640625 5.90625 39.90625 
Q 8.59375 46.1875 13.6875 49.609375 
Q 18.796875 53.03125 25.6875 53.03125 
Q 34.859375 53.03125 40.828125 45.609375 
L 40.828125 51.859375 
L 48.921875 51.859375 
L 48.921875 7.03125 
Q 48.921875 -5.078125 46.453125 -10.125 
Q 44 -15.1875 38.640625 -18.109375 
Q 33.296875 -21.046875 25.484375 -21.046875 
Q 16.21875 -21.046875 10.5 -16.875 
Q 4.78125 -12.703125 4.984375 -4.296875 
z
M 12.25 26.859375 
Q 12.25 16.65625 16.296875 11.96875 
Q 20.359375 7.28125 26.46875 7.28125 
Q 32.515625 7.28125 36.609375 11.9375 
Q 40.71875 16.609375 40.71875 26.5625 
Q 40.71875 36.078125 36.5 40.90625 
Q 32.28125 45.75 26.3125 45.75 
Q 20.453125 45.75 16.34375 40.984375 
Q 12.25 36.234375 12.25 26.859375 
z
" id="ArialMT-67"/>
      <path d="M 40.578125 0 
L 40.578125 7.625 
Q 34.515625 -1.171875 24.125 -1.171875 
Q 19.53125 -1.171875 15.546875 0.578125 
Q 11.578125 2.34375 9.640625 5 
Q 7.71875 7.671875 6.9375 11.53125 
Q 6.390625 14.109375 6.390625 19.734375 
L 6.390625 51.859375 
L 15.1875 51.859375 
L 15.1875 23.09375 
Q 15.1875 16.21875 15.71875 13.8125 
Q 16.546875 10.359375 19.234375 8.375 
Q 21.921875 6.390625 25.875 6.390625 
Q 29.828125 6.390625 33.296875 8.421875 
Q 36.765625 10.453125 38.203125 13.9375 
Q 39.65625 17.4375 39.65625 24.078125 
L 39.65625 51.859375 
L 48.4375 51.859375 
L 48.4375 0 
z
" id="ArialMT-75"/>
      <path d="M 6.5 0 
L 6.5 51.859375 
L 14.40625 51.859375 
L 14.40625 44 
Q 17.4375 49.515625 20 51.265625 
Q 22.5625 53.03125 25.640625 53.03125 
Q 30.078125 53.03125 34.671875 50.203125 
L 31.640625 42.046875 
Q 28.421875 43.953125 25.203125 43.953125 
Q 22.3125 43.953125 20.015625 42.21875 
Q 17.71875 40.484375 16.75 37.40625 
Q 15.28125 32.71875 15.28125 27.15625 
L 15.28125 0 
z
" id="ArialMT-72"/>
      <path d="M 6.59375 0 
L 6.59375 51.859375 
L 14.453125 51.859375 
L 14.453125 44.578125 
Q 16.890625 48.390625 20.9375 50.703125 
Q 25 53.03125 30.171875 53.03125 
Q 35.9375 53.03125 39.625 50.640625 
Q 43.3125 48.25 44.828125 43.953125 
Q 50.984375 53.03125 60.84375 53.03125 
Q 68.5625 53.03125 72.703125 48.75 
Q 76.859375 44.484375 76.859375 35.59375 
L 76.859375 0 
L 68.109375 0 
L 68.109375 32.671875 
Q 68.109375 37.9375 67.25 40.25 
Q 66.40625 42.578125 64.15625 43.984375 
Q 61.921875 45.40625 58.890625 45.40625 
Q 53.421875 45.40625 49.796875 41.765625 
Q 46.1875 38.140625 46.1875 30.125 
L 46.1875 0 
L 37.40625 0 
L 37.40625 33.6875 
Q 37.40625 39.546875 35.25 42.46875 
Q 33.109375 45.40625 28.21875 45.40625 
Q 24.515625 45.40625 21.359375 43.453125 
Q 18.21875 41.5 16.796875 37.734375 
Q 15.375 33.984375 15.375 26.90625 
L 15.375 0 
z
" id="ArialMT-6d"/>
      <path d="M 6.640625 61.46875 
L 6.640625 71.578125 
L 15.4375 71.578125 
L 15.4375 61.46875 
z
M 6.640625 0 
L 6.640625 51.859375 
L 15.4375 51.859375 
L 15.4375 0 
z
" id="ArialMT-69"/>
      <path d="M 40.4375 19 
L 49.078125 17.875 
Q 47.65625 8.9375 41.8125 3.875 
Q 35.984375 -1.171875 27.484375 -1.171875 
Q 16.84375 -1.171875 10.375 5.78125 
Q 3.90625 12.75 3.90625 25.734375 
Q 3.90625 34.125 6.6875 40.421875 
Q 9.46875 46.734375 15.15625 49.875 
Q 20.84375 53.03125 27.546875 53.03125 
Q 35.984375 53.03125 41.359375 48.75 
Q 46.734375 44.484375 48.25 36.625 
L 39.703125 35.296875 
Q 38.484375 40.53125 35.375 43.15625 
Q 32.28125 45.796875 27.875 45.796875 
Q 21.234375 45.796875 17.078125 41.03125 
Q 12.9375 36.28125 12.9375 25.984375 
Q 12.9375 15.53125 16.9375 10.796875 
Q 20.953125 6.0625 27.390625 6.0625 
Q 32.5625 6.0625 36.03125 9.234375 
Q 39.5 12.40625 40.4375 19 
z
" id="ArialMT-63"/>
      <path d="M 3.328125 25.921875 
Q 3.328125 40.328125 11.328125 47.265625 
Q 18.015625 53.03125 27.640625 53.03125 
Q 38.328125 53.03125 45.109375 46.015625 
Q 51.90625 39.015625 51.90625 26.65625 
Q 51.90625 16.65625 48.90625 10.90625 
Q 45.90625 5.171875 40.15625 2 
Q 34.421875 -1.171875 27.640625 -1.171875 
Q 16.75 -1.171875 10.03125 5.8125 
Q 3.328125 12.796875 3.328125 25.921875 
z
M 12.359375 25.921875 
Q 12.359375 15.96875 16.703125 11.015625 
Q 21.046875 6.0625 27.640625 6.0625 
Q 34.1875 6.0625 38.53125 11.03125 
Q 42.875 16.015625 42.875 26.21875 
Q 42.875 35.84375 38.5 40.796875 
Q 34.125 45.75 27.640625 45.75 
Q 21.046875 45.75 16.703125 40.8125 
Q 12.359375 35.890625 12.359375 25.921875 
z
" id="ArialMT-6f"/>
      <path d="M 3.171875 21.484375 
L 3.171875 30.328125 
L 30.171875 30.328125 
L 30.171875 21.484375 
z
" id="ArialMT-2d"/>
      <path d="M 7.90625 0 
L 7.90625 71.578125 
L 59.671875 71.578125 
L 59.671875 63.140625 
L 17.390625 63.140625 
L 17.390625 41.21875 
L 56.984375 41.21875 
L 56.984375 32.8125 
L 17.390625 32.8125 
L 17.390625 8.453125 
L 61.328125 8.453125 
L 61.328125 0 
z
" id="ArialMT-45"/>
      <path d="M 6.59375 -19.875 
L 6.59375 51.859375 
L 14.59375 51.859375 
L 14.59375 45.125 
Q 17.4375 49.078125 21 51.046875 
Q 24.5625 53.03125 29.640625 53.03125 
Q 36.28125 53.03125 41.359375 49.609375 
Q 46.4375 46.1875 49.015625 39.953125 
Q 51.609375 33.734375 51.609375 26.3125 
Q 51.609375 18.359375 48.75 11.984375 
Q 45.90625 5.609375 40.453125 2.21875 
Q 35.015625 -1.171875 29 -1.171875 
Q 24.609375 -1.171875 21.109375 0.6875 
Q 17.625 2.546875 15.375 5.375 
L 15.375 -19.875 
z
M 14.546875 25.640625 
Q 14.546875 15.625 18.59375 10.84375 
Q 22.65625 6.0625 28.421875 6.0625 
Q 34.28125 6.0625 38.453125 11.015625 
Q 42.625 15.96875 42.625 26.375 
Q 42.625 36.28125 38.546875 41.203125 
Q 34.46875 46.140625 28.8125 46.140625 
Q 23.1875 46.140625 18.859375 40.890625 
Q 14.546875 35.640625 14.546875 25.640625 
z
" id="ArialMT-70"/>
      <path d="M 6.640625 0 
L 6.640625 71.578125 
L 15.4375 71.578125 
L 15.4375 30.765625 
L 36.234375 51.859375 
L 47.609375 51.859375 
L 27.78125 32.625 
L 49.609375 0 
L 38.765625 0 
L 21.625 26.515625 
L 15.4375 20.5625 
L 15.4375 0 
z
" id="ArialMT-6b"/>
     </defs>
     <g style="fill:#262626;" transform="translate(-4.7 153.445312)scale(0.1 -0.1)">
      <use transform="translate(0 0.09375)" xlink:href="#DejaVuSans-Oblique-70"/>
      <use transform="translate(63.476562 0.09375)" xlink:href="#DejaVuSans-Oblique-4b"/>
      <use transform="translate(129.052734 0.09375)" xlink:href="#DejaVuSans-Oblique-61"/>
      <use transform="translate(190.332031 0.09375)" xlink:href="#ArialMT-20"/>
      <use transform="translate(218.115234 0.09375)" xlink:href="#ArialMT-4a"/>
      <use transform="translate(268.115234 0.09375)" xlink:href="#ArialMT-61"/>
      <use transform="translate(323.730469 0.09375)" xlink:href="#ArialMT-67"/>
      <use transform="translate(379.345703 0.09375)" xlink:href="#ArialMT-75"/>
      <use transform="translate(434.960938 0.09375)" xlink:href="#ArialMT-61"/>
      <use transform="translate(490.576172 0.09375)" xlink:href="#ArialMT-72"/>
      <use transform="translate(523.876953 0.09375)" xlink:href="#ArialMT-20"/>
      <use transform="translate(551.660156 0.09375)" xlink:href="#ArialMT-6d"/>
      <use transform="translate(634.960938 0.09375)" xlink:href="#ArialMT-69"/>
      <use transform="translate(657.177734 0.09375)" xlink:href="#ArialMT-63"/>
      <use transform="translate(707.177734 0.09375)" xlink:href="#ArialMT-72"/>
      <use transform="translate(740.478516 0.09375)" xlink:href="#ArialMT-6f"/>
      <use transform="translate(796.09375 0.09375)" xlink:href="#ArialMT-20"/>
      <use transform="translate(823.876953 0.09375)" xlink:href="#ArialMT-2d"/>
      <use transform="translate(857.177734 0.09375)" xlink:href="#ArialMT-20"/>
      <use transform="translate(884.960938 0.09375)" xlink:href="#DejaVuSans-Oblique-70"/>
      <use transform="translate(948.4375 0.09375)" xlink:href="#DejaVuSans-Oblique-4b"/>
      <use transform="translate(1014.013672 0.09375)" xlink:href="#DejaVuSans-Oblique-61"/>
      <use transform="translate(1075.292969 0.09375)" xlink:href="#ArialMT-20"/>
      <use transform="translate(1103.076172 0.09375)" xlink:href="#ArialMT-45"/>
      <use transform="translate(1169.775391 0.09375)" xlink:href="#ArialMT-70"/>
      <use transform="translate(1225.390625 0.09375)" xlink:href="#ArialMT-69"/>
      <use transform="translate(1247.607422 0.09375)" xlink:href="#ArialMT-6b"/>
      <use transform="translate(1297.607422 0.09375)" xlink:href="#ArialMT-20"/>
      <use transform="translate(1325.390625 0.09375)" xlink:href="#ArialMT-6d"/>
      <use transform="translate(1408.691406 0.09375)" xlink:href="#ArialMT-69"/>
      <use transform="translate(1430.908203 0.09375)" xlink:href="#ArialMT-63"/>
      <use transform="translate(1480.908203 0.09375)" xlink:href="#ArialMT-72"/>
      <use transform="translate(1514.208984 0.09375)" xlink:href="#ArialMT-6f"/>
     </g>
    </g>
   </g>
   <g id="matplotlib.axis_2"/>
   <g id="PolyCollection_1">
    <defs>
     <path d="M 23.072727 -18.015133 
L 23.072727 -18 
L 23.871582 -18 
L 24.670437 -18 
L 25.469291 -18 
L 26.268146 -18 
L 27.067001 -18 
L 27.865855 -18 
L 28.66471 -18 
L 29.463565 -18 
L 30.262419 -18 
L 31.061274 -18 
L 31.860129 -18 
L 32.658984 -18 
L 33.457838 -18 
L 34.256693 -18 
L 35.055548 -18 
L 35.854402 -18 
L 36.653257 -18 
L 37.452112 -18 
L 38.250966 -18 
L 39.049821 -18 
L 39.848676 -18 
L 40.64753 -18 
L 41.446385 -18 
L 42.24524 -18 
L 43.044094 -18 
L 43.842949 -18 
L 44.641804 -18 
L 45.440659 -18 
L 46.239513 -18 
L 47.038368 -18 
L 47.837223 -18 
L 48.636077 -18 
L 49.434932 -18 
L 50.233787 -18 
L 51.032641 -18 
L 51.831496 -18 
L 52.630351 -18 
L 53.429205 -18 
L 54.22806 -18 
L 55.026915 -18 
L 55.82577 -18 
L 56.624624 -18 
L 57.423479 -18 
L 58.222334 -18 
L 59.021188 -18 
L 59.820043 -18 
L 60.618898 -18 
L 61.417752 -18 
L 62.216607 -18 
L 63.015462 -18 
L 63.814316 -18 
L 64.613171 -18 
L 65.412026 -18 
L 66.21088 -18 
L 67.009735 -18 
L 67.80859 -18 
L 68.607445 -18 
L 69.406299 -18 
L 70.205154 -18 
L 71.004009 -18 
L 71.802863 -18 
L 72.601718 -18 
L 73.400573 -18 
L 74.199427 -18 
L 74.998282 -18 
L 75.797137 -18 
L 76.595991 -18 
L 77.394846 -18 
L 78.193701 -18 
L 78.992555 -18 
L 79.79141 -18 
L 80.590265 -18 
L 81.38912 -18 
L 82.187974 -18 
L 82.986829 -18 
L 83.785684 -18 
L 84.584538 -18 
L 85.383393 -18 
L 86.182248 -18 
L 86.981102 -18 
L 87.779957 -18 
L 88.578812 -18 
L 89.377666 -18 
L 90.176521 -18 
L 90.975376 -18 
L 91.77423 -18 
L 92.573085 -18 
L 93.37194 -18 
L 94.170795 -18 
L 94.969649 -18 
L 95.768504 -18 
L 96.567359 -18 
L 97.366213 -18 
L 98.165068 -18 
L 98.963923 -18 
L 99.762777 -18 
L 100.561632 -18 
L 101.360487 -18 
L 102.159341 -18 
L 102.958196 -18 
L 103.757051 -18 
L 104.555906 -18 
L 105.35476 -18 
L 106.153615 -18 
L 106.95247 -18 
L 107.751324 -18 
L 108.550179 -18 
L 109.349034 -18 
L 110.147888 -18 
L 110.946743 -18 
L 111.745598 -18 
L 112.544452 -18 
L 113.343307 -18 
L 114.142162 -18 
L 114.941016 -18 
L 115.739871 -18 
L 116.538726 -18 
L 117.337581 -18 
L 118.136435 -18 
L 118.93529 -18 
L 119.734145 -18 
L 120.532999 -18 
L 121.331854 -18 
L 122.130709 -18 
L 122.929563 -18 
L 123.728418 -18 
L 124.527273 -18 
L 124.527273 -18.017301 
L 124.527273 -18.017301 
L 123.728418 -18.077063 
L 122.929563 -18.281368 
L 122.130709 -18.754634 
L 121.331854 -19.490421 
L 120.532999 -20.195063 
L 119.734145 -20.492225 
L 118.93529 -20.358786 
L 118.136435 -20.122854 
L 117.337581 -20.02478 
L 116.538726 -20.047345 
L 115.739871 -20.084571 
L 114.941016 -20.036314 
L 114.142162 -19.811014 
L 113.343307 -19.384967 
L 112.544452 -18.878156 
L 111.745598 -18.509066 
L 110.946743 -18.443694 
L 110.147888 -18.685882 
L 109.349034 -19.05498 
L 108.550179 -19.303666 
L 107.751324 -19.368957 
L 106.95247 -19.416114 
L 106.153615 -19.561642 
L 105.35476 -19.741473 
L 104.555906 -19.866275 
L 103.757051 -19.936545 
L 102.958196 -20.060988 
L 102.159341 -20.379509 
L 101.360487 -20.910153 
L 100.561632 -21.646354 
L 99.762777 -22.709066 
L 98.963923 -24.010116 
L 98.165068 -24.98085 
L 97.366213 -25.121192 
L 96.567359 -24.630617 
L 95.768504 -24.142599 
L 94.969649 -23.982775 
L 94.170795 -24.027767 
L 93.37194 -24.220803 
L 92.573085 -24.682297 
L 91.77423 -25.289091 
L 90.975376 -25.752781 
L 90.176521 -26.069292 
L 89.377666 -26.331808 
L 88.578812 -26.385672 
L 87.779957 -26.401956 
L 86.981102 -27.431792 
L 86.182248 -30.492871 
L 85.383393 -35.287762 
L 84.584538 -40.419797 
L 83.785684 -44.849144 
L 82.986829 -49.468322 
L 82.187974 -57.6344 
L 81.38912 -72.797796 
L 80.590265 -93.809377 
L 79.79141 -113.08635 
L 78.992555 -121.542857 
L 78.193701 -116.143018 
L 77.394846 -101.626469 
L 76.595991 -85.022174 
L 75.797137 -70.388075 
L 74.998282 -58.765212 
L 74.199427 -50.345448 
L 73.400573 -44.910108 
L 72.601718 -41.32262 
L 71.802863 -38.083649 
L 71.004009 -34.49535 
L 70.205154 -31.122732 
L 69.406299 -29.119961 
L 68.607445 -28.976157 
L 67.80859 -29.866329 
L 67.009735 -30.256097 
L 66.21088 -29.185195 
L 65.412026 -27.020939 
L 64.613171 -24.834371 
L 63.814316 -23.195174 
L 63.015462 -22.043684 
L 62.216607 -21.338563 
L 61.417752 -21.069577 
L 60.618898 -20.955877 
L 59.820043 -20.66422 
L 59.021188 -20.11113 
L 58.222334 -19.429497 
L 57.423479 -18.860316 
L 56.624624 -18.669892 
L 55.82577 -19.034833 
L 55.026915 -19.911235 
L 54.22806 -20.946872 
L 53.429205 -21.623199 
L 52.630351 -21.618081 
L 51.831496 -21.03386 
L 51.032641 -20.284808 
L 50.233787 -19.74821 
L 49.434932 -19.46 
L 48.636077 -19.190947 
L 47.837223 -18.810135 
L 47.038368 -18.421485 
L 46.239513 -18.16218 
L 45.440659 -18.045597 
L 44.641804 -18.009324 
L 43.842949 -18.001384 
L 43.044094 -18.000149 
L 42.24524 -18.000012 
L 41.446385 -18.000001 
L 40.64753 -18 
L 39.848676 -18 
L 39.049821 -18 
L 38.250966 -18 
L 37.452112 -18 
L 36.653257 -18 
L 35.854402 -18 
L 35.055548 -18 
L 34.256693 -18.000006 
L 33.457838 -18.000076 
L 32.658984 -18.000746 
L 31.860129 -18.005381 
L 31.061274 -18.028534 
L 30.262419 -18.111207 
L 29.463565 -18.317967 
L 28.66471 -18.664702 
L 27.865855 -19.011257 
L 27.067001 -19.114075 
L 26.268146 -18.884901 
L 25.469291 -18.50529 
L 24.670437 -18.207175 
L 23.871582 -18.061217 
L 23.072727 -18.015133 
z
" id="m948e36b560" style="stroke:#ffffff;stroke-opacity:0.25;"/>
    </defs>
    <g clip-path="url(#p10052c866d)">
     <use style="fill-opacity:0.25;stroke:#ffffff;stroke-opacity:0.25;" x="0" xlink:href="#m948e36b560" y="144"/>
    </g>
   </g>
   <g id="LineCollection_1">
    <path clip-path="url(#p10052c866d)" d="M 78.949877 126 
L 78.949877 120.564 
" style="fill:none;stroke:#000000;"/>
    <path clip-path="url(#p10052c866d)" d="M 79.645806 126 
L 79.645806 120.564 
" style="fill:none;stroke:#000000;"/>
    <path clip-path="url(#p10052c866d)" d="M 85.282834 126 
L 85.282834 120.564 
" style="fill:none;stroke:#000000;"/>
    <path clip-path="url(#p10052c866d)" d="M 72.060177 126 
L 72.060177 120.564 
" style="fill:none;stroke:#000000;"/>
    <path clip-path="url(#p10052c866d)" d="M 67.745415 126 
L 67.745415 120.564 
" style="fill:none;stroke:#000000;"/>
    <path clip-path="url(#p10052c866d)" d="M 92.033349 126 
L 92.033349 120.564 
" style="fill:none;stroke:#000000;"/>
    <path clip-path="url(#p10052c866d)" d="M 97.809562 126 
L 97.809562 120.564 
" style="fill:none;stroke:#000000;"/>
    <path clip-path="url(#p10052c866d)" d="M 76.862089 126 
L 76.862089 120.564 
" style="fill:none;stroke:#000000;"/>
    <path clip-path="url(#p10052c866d)" d="M 81.455223 126 
L 81.455223 120.564 
" style="fill:none;stroke:#000000;"/>
    <path clip-path="url(#p10052c866d)" d="M 76.026974 126 
L 76.026974 120.564 
" style="fill:none;stroke:#000000;"/>
    <path clip-path="url(#p10052c866d)" d="M 83.264639 126 
L 83.264639 120.564 
" style="fill:none;stroke:#000000;"/>
    <path clip-path="url(#p10052c866d)" d="M 84.656498 126 
L 84.656498 120.564 
" style="fill:none;stroke:#000000;"/>
    <path clip-path="url(#p10052c866d)" d="M 66.771114 126 
L 66.771114 120.564 
" style="fill:none;stroke:#000000;"/>
    <path clip-path="url(#p10052c866d)" d="M 98.018341 126 
L 98.018341 120.564 
" style="fill:none;stroke:#000000;"/>
    <path clip-path="url(#p10052c866d)" d="M 53.339677 126 
L 53.339677 120.564 
" style="fill:none;stroke:#000000;"/>
    <path clip-path="url(#p10052c866d)" d="M 78.880284 126 
L 78.880284 120.564 
" style="fill:none;stroke:#000000;"/>
    <path clip-path="url(#p10052c866d)" d="M 78.601912 126 
L 78.601912 120.564 
" style="fill:none;stroke:#000000;"/>
    <path clip-path="url(#p10052c866d)" d="M 78.114762 126 
L 78.114762 120.564 
" style="fill:none;stroke:#000000;"/>
    <path clip-path="url(#p10052c866d)" d="M 76.444531 126 
L 76.444531 120.564 
" style="fill:none;stroke:#000000;"/>
    <path clip-path="url(#p10052c866d)" d="M 75.887788 126 
L 75.887788 120.564 
" style="fill:none;stroke:#000000;"/>
    <path clip-path="url(#p10052c866d)" d="M 75.679009 126 
L 75.679009 120.564 
" style="fill:none;stroke:#000000;"/>
    <path clip-path="url(#p10052c866d)" d="M 73.939186 126 
L 73.939186 120.564 
" style="fill:none;stroke:#000000;"/>
    <path clip-path="url(#p10052c866d)" d="M 88.484109 126 
L 88.484109 120.564 
" style="fill:none;stroke:#000000;"/>
    <path clip-path="url(#p10052c866d)" d="M 63.430653 126 
L 63.430653 120.564 
" style="fill:none;stroke:#000000;"/>
    <path clip-path="url(#p10052c866d)" d="M 98.575084 126 
L 98.575084 120.564 
" style="fill:none;stroke:#000000;"/>
    <path clip-path="url(#p10052c866d)" d="M 79.576214 126 
L 79.576214 120.564 
" style="fill:none;stroke:#000000;"/>
    <path clip-path="url(#p10052c866d)" d="M 79.715399 126 
L 79.715399 120.564 
" style="fill:none;stroke:#000000;"/>
    <path clip-path="url(#p10052c866d)" d="M 77.488425 126 
L 77.488425 120.564 
" style="fill:none;stroke:#000000;"/>
    <path clip-path="url(#p10052c866d)" d="M 75.400637 126 
L 75.400637 120.564 
" style="fill:none;stroke:#000000;"/>
    <path clip-path="url(#p10052c866d)" d="M 83.682197 126 
L 83.682197 120.564 
" style="fill:none;stroke:#000000;"/>
    <path clip-path="url(#p10052c866d)" d="M 70.529132 126 
L 70.529132 120.564 
" style="fill:none;stroke:#000000;"/>
    <path clip-path="url(#p10052c866d)" d="M 68.58053 126 
L 68.58053 120.564 
" style="fill:none;stroke:#000000;"/>
    <path clip-path="url(#p10052c866d)" d="M 90.223932 126 
L 90.223932 120.564 
" style="fill:none;stroke:#000000;"/>
    <path clip-path="url(#p10052c866d)" d="M 105.81275 126 
L 105.81275 120.564 
" style="fill:none;stroke:#000000;"/>
    <path clip-path="url(#p10052c866d)" d="M 79.367435 126 
L 79.367435 120.564 
" style="fill:none;stroke:#000000;"/>
    <path clip-path="url(#p10052c866d)" d="M 80.480922 126 
L 80.480922 120.564 
" style="fill:none;stroke:#000000;"/>
    <path clip-path="url(#p10052c866d)" d="M 75.818195 126 
L 75.818195 120.564 
" style="fill:none;stroke:#000000;"/>
    <path clip-path="url(#p10052c866d)" d="M 70.111575 126 
L 70.111575 120.564 
" style="fill:none;stroke:#000000;"/>
    <path clip-path="url(#p10052c866d)" d="M 67.188671 126 
L 67.188671 120.564 
" style="fill:none;stroke:#000000;"/>
    <path clip-path="url(#p10052c866d)" d="M 91.267826 126 
L 91.267826 120.564 
" style="fill:none;stroke:#000000;"/>
    <path clip-path="url(#p10052c866d)" d="M 94.538694 126 
L 94.538694 120.564 
" style="fill:none;stroke:#000000;"/>
    <path clip-path="url(#p10052c866d)" d="M 54.244386 126 
L 54.244386 120.564 
" style="fill:none;stroke:#000000;"/>
    <path clip-path="url(#p10052c866d)" d="M 79.089063 126 
L 79.089063 120.564 
" style="fill:none;stroke:#000000;"/>
    <path clip-path="url(#p10052c866d)" d="M 79.158656 126 
L 79.158656 120.564 
" style="fill:none;stroke:#000000;"/>
    <path clip-path="url(#p10052c866d)" d="M 78.393134 126 
L 78.393134 120.564 
" style="fill:none;stroke:#000000;"/>
    <path clip-path="url(#p10052c866d)" d="M 80.063364 126 
L 80.063364 120.564 
" style="fill:none;stroke:#000000;"/>
    <path clip-path="url(#p10052c866d)" d="M 78.045169 126 
L 78.045169 120.564 
" style="fill:none;stroke:#000000;"/>
    <path clip-path="url(#p10052c866d)" d="M 76.65331 126 
L 76.65331 120.564 
" style="fill:none;stroke:#000000;"/>
    <path clip-path="url(#p10052c866d)" d="M 76.235753 126 
L 76.235753 120.564 
" style="fill:none;stroke:#000000;"/>
    <path clip-path="url(#p10052c866d)" d="M 75.539823 126 
L 75.539823 120.564 
" style="fill:none;stroke:#000000;"/>
    <path clip-path="url(#p10052c866d)" d="M 83.334232 126 
L 83.334232 120.564 
" style="fill:none;stroke:#000000;"/>
    <path clip-path="url(#p10052c866d)" d="M 84.934869 126 
L 84.934869 120.564 
" style="fill:none;stroke:#000000;"/>
    <path clip-path="url(#p10052c866d)" d="M 85.143648 126 
L 85.143648 120.564 
" style="fill:none;stroke:#000000;"/>
    <path clip-path="url(#p10052c866d)" d="M 85.491613 126 
L 85.491613 120.564 
" style="fill:none;stroke:#000000;"/>
    <path clip-path="url(#p10052c866d)" d="M 72.338548 126 
L 72.338548 120.564 
" style="fill:none;stroke:#000000;"/>
    <path clip-path="url(#p10052c866d)" d="M 70.877097 126 
L 70.877097 120.564 
" style="fill:none;stroke:#000000;"/>
    <path clip-path="url(#p10052c866d)" d="M 120.357673 126 
L 120.357673 120.564 
" style="fill:none;stroke:#000000;"/>
    <path clip-path="url(#p10052c866d)" d="M 27.242327 126 
L 27.242327 120.564 
" style="fill:none;stroke:#000000;"/>
    <path clip-path="url(#p10052c866d)" d="M 78.253948 126 
L 78.253948 120.564 
" style="fill:none;stroke:#000000;"/>
    <path clip-path="url(#p10052c866d)" d="M 77.905983 126 
L 77.905983 120.564 
" style="fill:none;stroke:#000000;"/>
    <path clip-path="url(#p10052c866d)" d="M 80.550515 126 
L 80.550515 120.564 
" style="fill:none;stroke:#000000;"/>
    <path clip-path="url(#p10052c866d)" d="M 77.070868 126 
L 77.070868 120.564 
" style="fill:none;stroke:#000000;"/>
    <path clip-path="url(#p10052c866d)" d="M 84.586905 126 
L 84.586905 120.564 
" style="fill:none;stroke:#000000;"/>
    <path clip-path="url(#p10052c866d)" d="M 71.851398 126 
L 71.851398 120.564 
" style="fill:none;stroke:#000000;"/>
    <path clip-path="url(#p10052c866d)" d="M 71.016283 126 
L 71.016283 120.564 
" style="fill:none;stroke:#000000;"/>
    <path clip-path="url(#p10052c866d)" d="M 91.546198 126 
L 91.546198 120.564 
" style="fill:none;stroke:#000000;"/>
    <path clip-path="url(#p10052c866d)" d="M 108.66606 126 
L 108.66606 120.564 
" style="fill:none;stroke:#000000;"/>
    <path clip-path="url(#p10052c866d)" d="M 79.01947 126 
L 79.01947 120.564 
" style="fill:none;stroke:#000000;"/>
    <path clip-path="url(#p10052c866d)" d="M 79.158656 126 
L 79.158656 120.564 
" style="fill:none;stroke:#000000;"/>
    <path clip-path="url(#p10052c866d)" d="M 79.854585 126 
L 79.854585 120.564 
" style="fill:none;stroke:#000000;"/>
    <path clip-path="url(#p10052c866d)" d="M 80.759293 126 
L 80.759293 120.564 
" style="fill:none;stroke:#000000;"/>
    <path clip-path="url(#p10052c866d)" d="M 75.748602 126 
L 75.748602 120.564 
" style="fill:none;stroke:#000000;"/>
    <path clip-path="url(#p10052c866d)" d="M 83.682197 126 
L 83.682197 120.564 
" style="fill:none;stroke:#000000;"/>
    <path clip-path="url(#p10052c866d)" d="M 71.642619 126 
L 71.642619 120.564 
" style="fill:none;stroke:#000000;"/>
    <path clip-path="url(#p10052c866d)" d="M 58.907112 126 
L 58.907112 120.564 
" style="fill:none;stroke:#000000;"/>
    <path clip-path="url(#p10052c866d)" d="M 119.731336 126 
L 119.731336 120.564 
" style="fill:none;stroke:#000000;"/>
    <path clip-path="url(#p10052c866d)" d="M 79.297842 126 
L 79.297842 120.564 
" style="fill:none;stroke:#000000;"/>
    <path clip-path="url(#p10052c866d)" d="M 78.393134 126 
L 78.393134 120.564 
" style="fill:none;stroke:#000000;"/>
    <path clip-path="url(#p10052c866d)" d="M 78.184355 126 
L 78.184355 120.564 
" style="fill:none;stroke:#000000;"/>
    <path clip-path="url(#p10052c866d)" d="M 77.418833 126 
L 77.418833 120.564 
" style="fill:none;stroke:#000000;"/>
    <path clip-path="url(#p10052c866d)" d="M 77.070868 126 
L 77.070868 120.564 
" style="fill:none;stroke:#000000;"/>
    <path clip-path="url(#p10052c866d)" d="M 76.374939 126 
L 76.374939 120.564 
" style="fill:none;stroke:#000000;"/>
    <path clip-path="url(#p10052c866d)" d="M 84.030161 126 
L 84.030161 120.564 
" style="fill:none;stroke:#000000;"/>
    <path clip-path="url(#p10052c866d)" d="M 73.243257 126 
L 73.243257 120.564 
" style="fill:none;stroke:#000000;"/>
    <path clip-path="url(#p10052c866d)" d="M 66.423149 126 
L 66.423149 120.564 
" style="fill:none;stroke:#000000;"/>
    <path clip-path="url(#p10052c866d)" d="M 61.203679 126 
L 61.203679 120.564 
" style="fill:none;stroke:#000000;"/>
    <path clip-path="url(#p10052c866d)" d="M 51.669447 126 
L 51.669447 120.564 
" style="fill:none;stroke:#000000;"/>
    <path clip-path="url(#p10052c866d)" d="M 113.815937 126 
L 113.815937 120.564 
" style="fill:none;stroke:#000000;"/>
    <path clip-path="url(#p10052c866d)" d="M 79.367435 126 
L 79.367435 120.564 
" style="fill:none;stroke:#000000;"/>
    <path clip-path="url(#p10052c866d)" d="M 78.601912 126 
L 78.601912 120.564 
" style="fill:none;stroke:#000000;"/>
    <path clip-path="url(#p10052c866d)" d="M 79.576214 126 
L 79.576214 120.564 
" style="fill:none;stroke:#000000;"/>
    <path clip-path="url(#p10052c866d)" d="M 79.993771 126 
L 79.993771 120.564 
" style="fill:none;stroke:#000000;"/>
    <path clip-path="url(#p10052c866d)" d="M 80.063364 126 
L 80.063364 120.564 
" style="fill:none;stroke:#000000;"/>
    <path clip-path="url(#p10052c866d)" d="M 80.620108 126 
L 80.620108 120.564 
" style="fill:none;stroke:#000000;"/>
    <path clip-path="url(#p10052c866d)" d="M 80.6897 126 
L 80.6897 120.564 
" style="fill:none;stroke:#000000;"/>
    <path clip-path="url(#p10052c866d)" d="M 77.279647 126 
L 77.279647 120.564 
" style="fill:none;stroke:#000000;"/>
    <path clip-path="url(#p10052c866d)" d="M 81.037665 126 
L 81.037665 120.564 
" style="fill:none;stroke:#000000;"/>
    <path clip-path="url(#p10052c866d)" d="M 76.931682 126 
L 76.931682 120.564 
" style="fill:none;stroke:#000000;"/>
    <path clip-path="url(#p10052c866d)" d="M 76.096567 126 
L 76.096567 120.564 
" style="fill:none;stroke:#000000;"/>
    <path clip-path="url(#p10052c866d)" d="M 82.777488 126 
L 82.777488 120.564 
" style="fill:none;stroke:#000000;"/>
    <path clip-path="url(#p10052c866d)" d="M 71.851398 126 
L 71.851398 120.564 
" style="fill:none;stroke:#000000;"/>
    <path clip-path="url(#p10052c866d)" d="M 78.810691 126 
L 78.810691 120.564 
" style="fill:none;stroke:#000000;"/>
    <path clip-path="url(#p10052c866d)" d="M 78.114762 126 
L 78.114762 120.564 
" style="fill:none;stroke:#000000;"/>
    <path clip-path="url(#p10052c866d)" d="M 77.001275 126 
L 77.001275 120.564 
" style="fill:none;stroke:#000000;"/>
    <path clip-path="url(#p10052c866d)" d="M 81.942373 126 
L 81.942373 120.564 
" style="fill:none;stroke:#000000;"/>
    <path clip-path="url(#p10052c866d)" d="M 76.16616 126 
L 76.16616 120.564 
" style="fill:none;stroke:#000000;"/>
    <path clip-path="url(#p10052c866d)" d="M 75.331045 126 
L 75.331045 120.564 
" style="fill:none;stroke:#000000;"/>
    <path clip-path="url(#p10052c866d)" d="M 74.704708 126 
L 74.704708 120.564 
" style="fill:none;stroke:#000000;"/>
    <path clip-path="url(#p10052c866d)" d="M 83.473418 126 
L 83.473418 120.564 
" style="fill:none;stroke:#000000;"/>
    <path clip-path="url(#p10052c866d)" d="M 84.23894 126 
L 84.23894 120.564 
" style="fill:none;stroke:#000000;"/>
    <path clip-path="url(#p10052c866d)" d="M 72.61692 126 
L 72.61692 120.564 
" style="fill:none;stroke:#000000;"/>
    <path clip-path="url(#p10052c866d)" d="M 65.866406 126 
L 65.866406 120.564 
" style="fill:none;stroke:#000000;"/>
    <path clip-path="url(#p10052c866d)" d="M 97.809562 126 
L 97.809562 120.564 
" style="fill:none;stroke:#000000;"/>
    <path clip-path="url(#p10052c866d)" d="M 49.024916 126 
L 49.024916 120.564 
" style="fill:none;stroke:#000000;"/>
    <path clip-path="url(#p10052c866d)" d="M 79.01947 126 
L 79.01947 120.564 
" style="fill:none;stroke:#000000;"/>
    <path clip-path="url(#p10052c866d)" d="M 79.993771 126 
L 79.993771 120.564 
" style="fill:none;stroke:#000000;"/>
    <path clip-path="url(#p10052c866d)" d="M 80.898479 126 
L 80.898479 120.564 
" style="fill:none;stroke:#000000;"/>
    <path clip-path="url(#p10052c866d)" d="M 73.8 126 
L 73.8 120.564 
" style="fill:none;stroke:#000000;"/>
    <path clip-path="url(#p10052c866d)" d="M 73.104071 126 
L 73.104071 120.564 
" style="fill:none;stroke:#000000;"/>
    <path clip-path="url(#p10052c866d)" d="M 85.839578 126 
L 85.839578 120.564 
" style="fill:none;stroke:#000000;"/>
    <path clip-path="url(#p10052c866d)" d="M 66.075184 126 
L 66.075184 120.564 
" style="fill:none;stroke:#000000;"/>
    <path clip-path="url(#p10052c866d)" d="M 100.662872 126 
L 100.662872 120.564 
" style="fill:none;stroke:#000000;"/>
    <path clip-path="url(#p10052c866d)" d="M 78.810691 126 
L 78.810691 120.564 
" style="fill:none;stroke:#000000;"/>
    <path clip-path="url(#p10052c866d)" d="M 80.272143 126 
L 80.272143 120.564 
" style="fill:none;stroke:#000000;"/>
    <path clip-path="url(#p10052c866d)" d="M 80.411329 126 
L 80.411329 120.564 
" style="fill:none;stroke:#000000;"/>
    <path clip-path="url(#p10052c866d)" d="M 81.246444 126 
L 81.246444 120.564 
" style="fill:none;stroke:#000000;"/>
    <path clip-path="url(#p10052c866d)" d="M 76.16616 126 
L 76.16616 120.564 
" style="fill:none;stroke:#000000;"/>
    <path clip-path="url(#p10052c866d)" d="M 82.638303 126 
L 82.638303 120.564 
" style="fill:none;stroke:#000000;"/>
    <path clip-path="url(#p10052c866d)" d="M 83.612604 126 
L 83.612604 120.564 
" style="fill:none;stroke:#000000;"/>
    <path clip-path="url(#p10052c866d)" d="M 70.598725 126 
L 70.598725 120.564 
" style="fill:none;stroke:#000000;"/>
    <path clip-path="url(#p10052c866d)" d="M 69.06768 126 
L 69.06768 120.564 
" style="fill:none;stroke:#000000;"/>
    <path clip-path="url(#p10052c866d)" d="M 89.388817 126 
L 89.388817 120.564 
" style="fill:none;stroke:#000000;"/>
    <path clip-path="url(#p10052c866d)" d="M 60.50775 126 
L 60.50775 120.564 
" style="fill:none;stroke:#000000;"/>
    <path clip-path="url(#p10052c866d)" d="M 115.55576 126 
L 115.55576 120.564 
" style="fill:none;stroke:#000000;"/>
    <path clip-path="url(#p10052c866d)" d="M 80.411329 126 
L 80.411329 120.564 
" style="fill:none;stroke:#000000;"/>
    <path clip-path="url(#p10052c866d)" d="M 80.759293 126 
L 80.759293 120.564 
" style="fill:none;stroke:#000000;"/>
    <path clip-path="url(#p10052c866d)" d="M 81.87278 126 
L 81.87278 120.564 
" style="fill:none;stroke:#000000;"/>
    <path clip-path="url(#p10052c866d)" d="M 68.302158 126 
L 68.302158 120.564 
" style="fill:none;stroke:#000000;"/>
    <path clip-path="url(#p10052c866d)" d="M 94.67788 126 
L 94.67788 120.564 
" style="fill:none;stroke:#000000;"/>
    <path clip-path="url(#p10052c866d)" d="M 96.626482 126 
L 96.626482 120.564 
" style="fill:none;stroke:#000000;"/>
    <path clip-path="url(#p10052c866d)" d="M 103.794554 126 
L 103.794554 120.564 
" style="fill:none;stroke:#000000;"/>
    <path clip-path="url(#p10052c866d)" d="M 79.297842 126 
L 79.297842 120.564 
" style="fill:none;stroke:#000000;"/>
    <path clip-path="url(#p10052c866d)" d="M 72.895292 126 
L 72.895292 120.564 
" style="fill:none;stroke:#000000;"/>
    <path clip-path="url(#p10052c866d)" d="M 92.31172 126 
L 92.31172 120.564 
" style="fill:none;stroke:#000000;"/>
    <path clip-path="url(#p10052c866d)" d="M 64.126582 126 
L 64.126582 120.564 
" style="fill:none;stroke:#000000;"/>
    <path clip-path="url(#p10052c866d)" d="M 78.393134 126 
L 78.393134 120.564 
" style="fill:none;stroke:#000000;"/>
    <path clip-path="url(#p10052c866d)" d="M 80.480922 126 
L 80.480922 120.564 
" style="fill:none;stroke:#000000;"/>
    <path clip-path="url(#p10052c866d)" d="M 83.05586 126 
L 83.05586 120.564 
" style="fill:none;stroke:#000000;"/>
    <path clip-path="url(#p10052c866d)" d="M 88.553702 126 
L 88.553702 120.564 
" style="fill:none;stroke:#000000;"/>
    <path clip-path="url(#p10052c866d)" d="M 67.327857 126 
L 67.327857 120.564 
" style="fill:none;stroke:#000000;"/>
    <path clip-path="url(#p10052c866d)" d="M 67.536636 126 
L 67.536636 120.564 
" style="fill:none;stroke:#000000;"/>
    <path clip-path="url(#p10052c866d)" d="M 79.089063 126 
L 79.089063 120.564 
" style="fill:none;stroke:#000000;"/>
    <path clip-path="url(#p10052c866d)" d="M 79.158656 126 
L 79.158656 120.564 
" style="fill:none;stroke:#000000;"/>
    <path clip-path="url(#p10052c866d)" d="M 79.158656 126 
L 79.158656 120.564 
" style="fill:none;stroke:#000000;"/>
    <path clip-path="url(#p10052c866d)" d="M 79.01947 126 
L 79.01947 120.564 
" style="fill:none;stroke:#000000;"/>
    <path clip-path="url(#p10052c866d)" d="M 79.158656 126 
L 79.158656 120.564 
" style="fill:none;stroke:#000000;"/>
    <path clip-path="url(#p10052c866d)" d="M 79.228249 126 
L 79.228249 120.564 
" style="fill:none;stroke:#000000;"/>
    <path clip-path="url(#p10052c866d)" d="M 78.949877 126 
L 78.949877 120.564 
" style="fill:none;stroke:#000000;"/>
    <path clip-path="url(#p10052c866d)" d="M 79.228249 126 
L 79.228249 120.564 
" style="fill:none;stroke:#000000;"/>
    <path clip-path="url(#p10052c866d)" d="M 79.228249 126 
L 79.228249 120.564 
" style="fill:none;stroke:#000000;"/>
    <path clip-path="url(#p10052c866d)" d="M 79.297842 126 
L 79.297842 120.564 
" style="fill:none;stroke:#000000;"/>
    <path clip-path="url(#p10052c866d)" d="M 79.367435 126 
L 79.367435 120.564 
" style="fill:none;stroke:#000000;"/>
    <path clip-path="url(#p10052c866d)" d="M 78.741098 126 
L 78.741098 120.564 
" style="fill:none;stroke:#000000;"/>
    <path clip-path="url(#p10052c866d)" d="M 78.671505 126 
L 78.671505 120.564 
" style="fill:none;stroke:#000000;"/>
    <path clip-path="url(#p10052c866d)" d="M 78.671505 126 
L 78.671505 120.564 
" style="fill:none;stroke:#000000;"/>
    <path clip-path="url(#p10052c866d)" d="M 79.715399 126 
L 79.715399 120.564 
" style="fill:none;stroke:#000000;"/>
    <path clip-path="url(#p10052c866d)" d="M 79.715399 126 
L 79.715399 120.564 
" style="fill:none;stroke:#000000;"/>
    <path clip-path="url(#p10052c866d)" d="M 78.393134 126 
L 78.393134 120.564 
" style="fill:none;stroke:#000000;"/>
    <path clip-path="url(#p10052c866d)" d="M 79.784992 126 
L 79.784992 120.564 
" style="fill:none;stroke:#000000;"/>
    <path clip-path="url(#p10052c866d)" d="M 79.854585 126 
L 79.854585 120.564 
" style="fill:none;stroke:#000000;"/>
    <path clip-path="url(#p10052c866d)" d="M 79.924178 126 
L 79.924178 120.564 
" style="fill:none;stroke:#000000;"/>
    <path clip-path="url(#p10052c866d)" d="M 78.253948 126 
L 78.253948 120.564 
" style="fill:none;stroke:#000000;"/>
    <path clip-path="url(#p10052c866d)" d="M 78.184355 126 
L 78.184355 120.564 
" style="fill:none;stroke:#000000;"/>
    <path clip-path="url(#p10052c866d)" d="M 78.184355 126 
L 78.184355 120.564 
" style="fill:none;stroke:#000000;"/>
    <path clip-path="url(#p10052c866d)" d="M 80.063364 126 
L 80.063364 120.564 
" style="fill:none;stroke:#000000;"/>
    <path clip-path="url(#p10052c866d)" d="M 80.272143 126 
L 80.272143 120.564 
" style="fill:none;stroke:#000000;"/>
    <path clip-path="url(#p10052c866d)" d="M 77.905983 126 
L 77.905983 120.564 
" style="fill:none;stroke:#000000;"/>
    <path clip-path="url(#p10052c866d)" d="M 80.411329 126 
L 80.411329 120.564 
" style="fill:none;stroke:#000000;"/>
    <path clip-path="url(#p10052c866d)" d="M 77.766797 126 
L 77.766797 120.564 
" style="fill:none;stroke:#000000;"/>
    <path clip-path="url(#p10052c866d)" d="M 77.697204 126 
L 77.697204 120.564 
" style="fill:none;stroke:#000000;"/>
    <path clip-path="url(#p10052c866d)" d="M 77.558018 126 
L 77.558018 120.564 
" style="fill:none;stroke:#000000;"/>
    <path clip-path="url(#p10052c866d)" d="M 77.488425 126 
L 77.488425 120.564 
" style="fill:none;stroke:#000000;"/>
    <path clip-path="url(#p10052c866d)" d="M 80.898479 126 
L 80.898479 120.564 
" style="fill:none;stroke:#000000;"/>
    <path clip-path="url(#p10052c866d)" d="M 80.968072 126 
L 80.968072 120.564 
" style="fill:none;stroke:#000000;"/>
    <path clip-path="url(#p10052c866d)" d="M 77.140461 126 
L 77.140461 120.564 
" style="fill:none;stroke:#000000;"/>
    <path clip-path="url(#p10052c866d)" d="M 81.037665 126 
L 81.037665 120.564 
" style="fill:none;stroke:#000000;"/>
    <path clip-path="url(#p10052c866d)" d="M 76.792496 126 
L 76.792496 120.564 
" style="fill:none;stroke:#000000;"/>
    <path clip-path="url(#p10052c866d)" d="M 76.65331 126 
L 76.65331 120.564 
" style="fill:none;stroke:#000000;"/>
    <path clip-path="url(#p10052c866d)" d="M 75.400637 126 
L 75.400637 120.564 
" style="fill:none;stroke:#000000;"/>
    <path clip-path="url(#p10052c866d)" d="M 75.052673 126 
L 75.052673 120.564 
" style="fill:none;stroke:#000000;"/>
    <path clip-path="url(#p10052c866d)" d="M 72.268955 126 
L 72.268955 120.564 
" style="fill:none;stroke:#000000;"/>
    <path clip-path="url(#p10052c866d)" d="M 87.857773 126 
L 87.857773 120.564 
" style="fill:none;stroke:#000000;"/>
    <path clip-path="url(#p10052c866d)" d="M 78.53232 126 
L 78.53232 120.564 
" style="fill:none;stroke:#000000;"/>
    <path clip-path="url(#p10052c866d)" d="M 77.905983 126 
L 77.905983 120.564 
" style="fill:none;stroke:#000000;"/>
    <path clip-path="url(#p10052c866d)" d="M 77.558018 126 
L 77.558018 120.564 
" style="fill:none;stroke:#000000;"/>
    <path clip-path="url(#p10052c866d)" d="M 76.096567 126 
L 76.096567 120.564 
" style="fill:none;stroke:#000000;"/>
    <path clip-path="url(#p10052c866d)" d="M 90.919862 126 
L 90.919862 120.564 
" style="fill:none;stroke:#000000;"/>
    <path clip-path="url(#p10052c866d)" d="M 73.939186 126 
L 73.939186 120.564 
" style="fill:none;stroke:#000000;"/>
    <path clip-path="url(#p10052c866d)" d="M 79.297842 126 
L 79.297842 120.564 
" style="fill:none;stroke:#000000;"/>
    <path clip-path="url(#p10052c866d)" d="M 79.367435 126 
L 79.367435 120.564 
" style="fill:none;stroke:#000000;"/>
    <path clip-path="url(#p10052c866d)" d="M 79.506621 126 
L 79.506621 120.564 
" style="fill:none;stroke:#000000;"/>
    <path clip-path="url(#p10052c866d)" d="M 77.975576 126 
L 77.975576 120.564 
" style="fill:none;stroke:#000000;"/>
    <path clip-path="url(#p10052c866d)" d="M 77.279647 126 
L 77.279647 120.564 
" style="fill:none;stroke:#000000;"/>
    <path clip-path="url(#p10052c866d)" d="M 75.748602 126 
L 75.748602 120.564 
" style="fill:none;stroke:#000000;"/>
    <path clip-path="url(#p10052c866d)" d="M 82.56871 126 
L 82.56871 120.564 
" style="fill:none;stroke:#000000;"/>
    <path clip-path="url(#p10052c866d)" d="M 74.426336 126 
L 74.426336 120.564 
" style="fill:none;stroke:#000000;"/>
    <path clip-path="url(#p10052c866d)" d="M 84.099754 126 
L 84.099754 120.564 
" style="fill:none;stroke:#000000;"/>
    <path clip-path="url(#p10052c866d)" d="M 73.312849 126 
L 73.312849 120.564 
" style="fill:none;stroke:#000000;"/>
    <path clip-path="url(#p10052c866d)" d="M 63.917803 126 
L 63.917803 120.564 
" style="fill:none;stroke:#000000;"/>
    <path clip-path="url(#p10052c866d)" d="M 94.67788 126 
L 94.67788 120.564 
" style="fill:none;stroke:#000000;"/>
    <path clip-path="url(#p10052c866d)" d="M 98.853456 126 
L 98.853456 120.564 
" style="fill:none;stroke:#000000;"/>
    <path clip-path="url(#p10052c866d)" d="M 101.497988 126 
L 101.497988 120.564 
" style="fill:none;stroke:#000000;"/>
    <path clip-path="url(#p10052c866d)" d="M 52.782934 126 
L 52.782934 120.564 
" style="fill:none;stroke:#000000;"/>
    <path clip-path="url(#p10052c866d)" d="M 117.504362 126 
L 117.504362 120.564 
" style="fill:none;stroke:#000000;"/>
    <path clip-path="url(#p10052c866d)" d="M 73.730407 126 
L 73.730407 120.564 
" style="fill:none;stroke:#000000;"/>
    <path clip-path="url(#p10052c866d)" d="M 71.294654 126 
L 71.294654 120.564 
" style="fill:none;stroke:#000000;"/>
    <path clip-path="url(#p10052c866d)" d="M 66.631928 126 
L 66.631928 120.564 
" style="fill:none;stroke:#000000;"/>
    <path clip-path="url(#p10052c866d)" d="M 96.626482 126 
L 96.626482 120.564 
" style="fill:none;stroke:#000000;"/>
    <path clip-path="url(#p10052c866d)" d="M 79.089063 126 
L 79.089063 120.564 
" style="fill:none;stroke:#000000;"/>
    <path clip-path="url(#p10052c866d)" d="M 79.228249 126 
L 79.228249 120.564 
" style="fill:none;stroke:#000000;"/>
    <path clip-path="url(#p10052c866d)" d="M 79.576214 126 
L 79.576214 120.564 
" style="fill:none;stroke:#000000;"/>
    <path clip-path="url(#p10052c866d)" d="M 79.854585 126 
L 79.854585 120.564 
" style="fill:none;stroke:#000000;"/>
    <path clip-path="url(#p10052c866d)" d="M 78.114762 126 
L 78.114762 120.564 
" style="fill:none;stroke:#000000;"/>
    <path clip-path="url(#p10052c866d)" d="M 78.045169 126 
L 78.045169 120.564 
" style="fill:none;stroke:#000000;"/>
    <path clip-path="url(#p10052c866d)" d="M 77.627611 126 
L 77.627611 120.564 
" style="fill:none;stroke:#000000;"/>
    <path clip-path="url(#p10052c866d)" d="M 77.140461 126 
L 77.140461 120.564 
" style="fill:none;stroke:#000000;"/>
    <path clip-path="url(#p10052c866d)" d="M 76.862089 126 
L 76.862089 120.564 
" style="fill:none;stroke:#000000;"/>
    <path clip-path="url(#p10052c866d)" d="M 83.05586 126 
L 83.05586 120.564 
" style="fill:none;stroke:#000000;"/>
    <path clip-path="url(#p10052c866d)" d="M 72.338548 126 
L 72.338548 120.564 
" style="fill:none;stroke:#000000;"/>
    <path clip-path="url(#p10052c866d)" d="M 86.117949 126 
L 86.117949 120.564 
" style="fill:none;stroke:#000000;"/>
    <path clip-path="url(#p10052c866d)" d="M 88.136144 126 
L 88.136144 120.564 
" style="fill:none;stroke:#000000;"/>
    <path clip-path="url(#p10052c866d)" d="M 93.703579 126 
L 93.703579 120.564 
" style="fill:none;stroke:#000000;"/>
    <path clip-path="url(#p10052c866d)" d="M 79.228249 126 
L 79.228249 120.564 
" style="fill:none;stroke:#000000;"/>
    <path clip-path="url(#p10052c866d)" d="M 79.228249 126 
L 79.228249 120.564 
" style="fill:none;stroke:#000000;"/>
    <path clip-path="url(#p10052c866d)" d="M 78.949877 126 
L 78.949877 120.564 
" style="fill:none;stroke:#000000;"/>
    <path clip-path="url(#p10052c866d)" d="M 79.297842 126 
L 79.297842 120.564 
" style="fill:none;stroke:#000000;"/>
    <path clip-path="url(#p10052c866d)" d="M 78.810691 126 
L 78.810691 120.564 
" style="fill:none;stroke:#000000;"/>
    <path clip-path="url(#p10052c866d)" d="M 79.506621 126 
L 79.506621 120.564 
" style="fill:none;stroke:#000000;"/>
    <path clip-path="url(#p10052c866d)" d="M 79.993771 126 
L 79.993771 120.564 
" style="fill:none;stroke:#000000;"/>
    <path clip-path="url(#p10052c866d)" d="M 77.558018 126 
L 77.558018 120.564 
" style="fill:none;stroke:#000000;"/>
    <path clip-path="url(#p10052c866d)" d="M 77.418833 126 
L 77.418833 120.564 
" style="fill:none;stroke:#000000;"/>
    <path clip-path="url(#p10052c866d)" d="M 81.803187 126 
L 81.803187 120.564 
" style="fill:none;stroke:#000000;"/>
    <path clip-path="url(#p10052c866d)" d="M 75.818195 126 
L 75.818195 120.564 
" style="fill:none;stroke:#000000;"/>
    <path clip-path="url(#p10052c866d)" d="M 82.499117 126 
L 82.499117 120.564 
" style="fill:none;stroke:#000000;"/>
    <path clip-path="url(#p10052c866d)" d="M 82.638303 126 
L 82.638303 120.564 
" style="fill:none;stroke:#000000;"/>
    <path clip-path="url(#p10052c866d)" d="M 75.052673 126 
L 75.052673 120.564 
" style="fill:none;stroke:#000000;"/>
    <path clip-path="url(#p10052c866d)" d="M 74.843894 126 
L 74.843894 120.564 
" style="fill:none;stroke:#000000;"/>
    <path clip-path="url(#p10052c866d)" d="M 74.704708 126 
L 74.704708 120.564 
" style="fill:none;stroke:#000000;"/>
    <path clip-path="url(#p10052c866d)" d="M 83.543011 126 
L 83.543011 120.564 
" style="fill:none;stroke:#000000;"/>
    <path clip-path="url(#p10052c866d)" d="M 74.565522 126 
L 74.565522 120.564 
" style="fill:none;stroke:#000000;"/>
    <path clip-path="url(#p10052c866d)" d="M 73.452035 126 
L 73.452035 120.564 
" style="fill:none;stroke:#000000;"/>
    <path clip-path="url(#p10052c866d)" d="M 85.143648 126 
L 85.143648 120.564 
" style="fill:none;stroke:#000000;"/>
    <path clip-path="url(#p10052c866d)" d="M 88.901667 126 
L 88.901667 120.564 
" style="fill:none;stroke:#000000;"/>
    <path clip-path="url(#p10052c866d)" d="M 66.075184 126 
L 66.075184 120.564 
" style="fill:none;stroke:#000000;"/>
   </g>
   <g id="line2d_17">
    <path clip-path="url(#p10052c866d)" d="M 23.072727 125.984867 
L 24.670437 125.792825 
L 27.067001 124.885925 
L 27.865855 124.988743 
L 29.463565 125.682033 
L 30.262419 125.888793 
L 31.860129 125.994619 
L 44.641804 125.990676 
L 46.239513 125.83782 
L 47.038368 125.578515 
L 48.636077 124.809053 
L 50.233787 124.25179 
L 51.032641 123.715192 
L 51.831496 122.96614 
L 52.630351 122.381919 
L 53.429205 122.376801 
L 54.22806 123.053128 
L 55.82577 124.965167 
L 56.624624 125.330108 
L 57.423479 125.139684 
L 59.820043 123.33578 
L 60.618898 123.044123 
L 61.417752 122.930423 
L 62.216607 122.661437 
L 63.015462 121.956316 
L 63.814316 120.804826 
L 64.613171 119.165629 
L 66.21088 114.814805 
L 67.009735 113.743903 
L 67.80859 114.133671 
L 68.607445 115.023843 
L 69.406299 114.880039 
L 70.205154 112.877268 
L 73.400573 99.089892 
L 74.199427 93.654552 
L 74.998282 85.234788 
L 75.797137 73.611925 
L 78.193701 27.856982 
L 78.992555 22.457143 
L 79.79141 30.91365 
L 82.187974 86.3656 
L 82.986829 94.531678 
L 86.182248 113.507129 
L 86.981102 116.568208 
L 87.779957 117.598044 
L 89.377666 117.668192 
L 90.975376 118.247219 
L 91.77423 118.710909 
L 92.573085 119.317703 
L 93.37194 119.779197 
L 94.170795 119.972233 
L 94.969649 120.017225 
L 95.768504 119.857401 
L 97.366213 118.878808 
L 98.165068 119.01915 
L 98.963923 119.989884 
L 99.762777 121.290934 
L 100.561632 122.353646 
L 101.360487 123.089847 
L 102.159341 123.620491 
L 102.958196 123.939012 
L 107.751324 124.631043 
L 108.550179 124.696334 
L 109.349034 124.94502 
L 110.147888 125.314118 
L 110.946743 125.556306 
L 111.745598 125.490934 
L 112.544452 125.121844 
L 114.142162 124.188986 
L 114.941016 123.963686 
L 116.538726 123.952655 
L 117.337581 123.97522 
L 118.136435 123.877146 
L 119.734145 123.507775 
L 120.532999 123.804937 
L 122.130709 125.245366 
L 122.929563 125.718632 
L 123.728418 125.922937 
L 124.527273 125.982699 
L 124.527273 125.982699 
" style="fill:none;stroke:#000000;stroke-linecap:round;stroke-width:1.5;"/>
   </g>
   <g id="line2d_18">
    <path clip-path="url(#p10052c866d)" d="M 78.984674 126 
L 78.984674 17.28 
" style="fill:none;stroke:#000000;stroke-linecap:round;"/>
   </g>
   <g id="patch_3">
    <path d="M 18 126 
L 129.6 126 
" style="fill:none;stroke:#262626;stroke-linecap:square;stroke-linejoin:miter;stroke-width:0.8;"/>
   </g>
  </g>
 </g>
 <defs>
  <clipPath id="p10052c866d">
   <rect height="108.72" width="111.6" x="18" y="17.28"/>
  </clipPath>
 </defs>
</svg>
