<?xml version="1.0" encoding="utf-8" standalone="no"?>
<!DOCTYPE svg PUBLIC "-//W3C//DTD SVG 1.1//EN"
  "http://www.w3.org/Graphics/SVG/1.1/DTD/svg11.dtd">
<!-- Created with matplotlib (http://matplotlib.org/) -->
<svg height="216pt" version="1.1" viewBox="0 0 216 216" width="216pt" xmlns="http://www.w3.org/2000/svg" xmlns:xlink="http://www.w3.org/1999/xlink">
 <defs>
  <style type="text/css">
*{stroke-linecap:butt;stroke-linejoin:round;}
  </style>
 </defs>
 <g id="figure_1">
  <g id="patch_1">
   <path d="M 0 216 
L 216 216 
L 216 0 
L 0 0 
z
" style="fill:#ffffff;"/>
  </g>
  <g id="axes_1">
   <g id="patch_2">
    <path d="M 44.78 175.96 
L 203.52 175.96 
L 203.52 25.44 
L 44.78 25.44 
z
" style="fill:#ffffff;"/>
   </g>
   <g id="matplotlib.axis_1">
    <g id="xtick_1">
     <g id="line2d_1">
      <defs>
       <path d="M 0 0 
L 0 3.5 
" id="mc7de007cc1" style="stroke:#262626;stroke-width:0.8;"/>
      </defs>
      <g>
       <use style="fill:#262626;stroke:#262626;stroke-width:0.8;" x="51.995455" xlink:href="#mc7de007cc1" y="175.96"/>
      </g>
     </g>
     <g id="text_1">
      <!-- 2 -->
      <defs>
       <path d="M 50.34375 8.453125 
L 50.34375 0 
L 3.03125 0 
Q 2.9375 3.171875 4.046875 6.109375 
Q 5.859375 10.9375 9.828125 15.625 
Q 13.8125 20.3125 21.34375 26.46875 
Q 33.015625 36.03125 37.109375 41.625 
Q 41.21875 47.21875 41.21875 52.203125 
Q 41.21875 57.421875 37.46875 61 
Q 33.734375 64.59375 27.734375 64.59375 
Q 21.390625 64.59375 17.578125 60.78125 
Q 13.765625 56.984375 13.71875 50.25 
L 4.6875 51.171875 
Q 5.609375 61.28125 11.65625 66.578125 
Q 17.71875 71.875 27.9375 71.875 
Q 38.234375 71.875 44.234375 66.15625 
Q 50.25 60.453125 50.25 52 
Q 50.25 47.703125 48.484375 43.546875 
Q 46.734375 39.40625 42.65625 34.8125 
Q 38.578125 30.21875 29.109375 22.21875 
Q 21.1875 15.578125 18.9375 13.203125 
Q 16.703125 10.84375 15.234375 8.453125 
z
" id="ArialMT-32"/>
      </defs>
      <g style="fill:#262626;" transform="translate(49.214986 190.117812)scale(0.1 -0.1)">
       <use xlink:href="#ArialMT-32"/>
      </g>
     </g>
    </g>
    <g id="xtick_2">
     <g id="line2d_2">
      <g>
       <use style="fill:#262626;stroke:#262626;stroke-width:0.8;" x="80.857273" xlink:href="#mc7de007cc1" y="175.96"/>
      </g>
     </g>
     <g id="text_2">
      <!-- 4 -->
      <defs>
       <path d="M 32.328125 0 
L 32.328125 17.140625 
L 1.265625 17.140625 
L 1.265625 25.203125 
L 33.9375 71.578125 
L 41.109375 71.578125 
L 41.109375 25.203125 
L 50.78125 25.203125 
L 50.78125 17.140625 
L 41.109375 17.140625 
L 41.109375 0 
z
M 32.328125 25.203125 
L 32.328125 57.46875 
L 9.90625 25.203125 
z
" id="ArialMT-34"/>
      </defs>
      <g style="fill:#262626;" transform="translate(78.076804 190.117812)scale(0.1 -0.1)">
       <use xlink:href="#ArialMT-34"/>
      </g>
     </g>
    </g>
    <g id="xtick_3">
     <g id="line2d_3">
      <g>
       <use style="fill:#262626;stroke:#262626;stroke-width:0.8;" x="109.719091" xlink:href="#mc7de007cc1" y="175.96"/>
      </g>
     </g>
     <g id="text_3">
      <!-- 6 -->
      <defs>
       <path d="M 49.75 54.046875 
L 41.015625 53.375 
Q 39.84375 58.546875 37.703125 60.890625 
Q 34.125 64.65625 28.90625 64.65625 
Q 24.703125 64.65625 21.53125 62.3125 
Q 17.390625 59.28125 14.984375 53.46875 
Q 12.59375 47.65625 12.5 36.921875 
Q 15.671875 41.75 20.265625 44.09375 
Q 24.859375 46.4375 29.890625 46.4375 
Q 38.671875 46.4375 44.84375 39.96875 
Q 51.03125 33.5 51.03125 23.25 
Q 51.03125 16.5 48.125 10.71875 
Q 45.21875 4.9375 40.140625 1.859375 
Q 35.0625 -1.21875 28.609375 -1.21875 
Q 17.625 -1.21875 10.6875 6.859375 
Q 3.765625 14.9375 3.765625 33.5 
Q 3.765625 54.25 11.421875 63.671875 
Q 18.109375 71.875 29.4375 71.875 
Q 37.890625 71.875 43.28125 67.140625 
Q 48.6875 62.40625 49.75 54.046875 
z
M 13.875 23.1875 
Q 13.875 18.65625 15.796875 14.5 
Q 17.71875 10.359375 21.1875 8.171875 
Q 24.65625 6 28.46875 6 
Q 34.03125 6 38.03125 10.484375 
Q 42.046875 14.984375 42.046875 22.703125 
Q 42.046875 30.125 38.078125 34.390625 
Q 34.125 38.671875 28.125 38.671875 
Q 22.171875 38.671875 18.015625 34.390625 
Q 13.875 30.125 13.875 23.1875 
z
" id="ArialMT-36"/>
      </defs>
      <g style="fill:#262626;" transform="translate(106.938622 190.117812)scale(0.1 -0.1)">
       <use xlink:href="#ArialMT-36"/>
      </g>
     </g>
    </g>
    <g id="xtick_4">
     <g id="line2d_4">
      <g>
       <use style="fill:#262626;stroke:#262626;stroke-width:0.8;" x="138.580909" xlink:href="#mc7de007cc1" y="175.96"/>
      </g>
     </g>
     <g id="text_4">
      <!-- 8 -->
      <defs>
       <path d="M 17.671875 38.8125 
Q 12.203125 40.828125 9.5625 44.53125 
Q 6.9375 48.25 6.9375 53.421875 
Q 6.9375 61.234375 12.546875 66.546875 
Q 18.171875 71.875 27.484375 71.875 
Q 36.859375 71.875 42.578125 66.421875 
Q 48.296875 60.984375 48.296875 53.171875 
Q 48.296875 48.1875 45.671875 44.5 
Q 43.0625 40.828125 37.75 38.8125 
Q 44.34375 36.671875 47.78125 31.875 
Q 51.21875 27.09375 51.21875 20.453125 
Q 51.21875 11.28125 44.71875 5.03125 
Q 38.234375 -1.21875 27.640625 -1.21875 
Q 17.046875 -1.21875 10.546875 5.046875 
Q 4.046875 11.328125 4.046875 20.703125 
Q 4.046875 27.6875 7.59375 32.390625 
Q 11.140625 37.109375 17.671875 38.8125 
z
M 15.921875 53.71875 
Q 15.921875 48.640625 19.1875 45.40625 
Q 22.46875 42.1875 27.6875 42.1875 
Q 32.765625 42.1875 36.015625 45.375 
Q 39.265625 48.578125 39.265625 53.21875 
Q 39.265625 58.0625 35.90625 61.359375 
Q 32.5625 64.65625 27.59375 64.65625 
Q 22.5625 64.65625 19.234375 61.421875 
Q 15.921875 58.203125 15.921875 53.71875 
z
M 13.09375 20.65625 
Q 13.09375 16.890625 14.875 13.375 
Q 16.65625 9.859375 20.171875 7.921875 
Q 23.6875 6 27.734375 6 
Q 34.03125 6 38.125 10.046875 
Q 42.234375 14.109375 42.234375 20.359375 
Q 42.234375 26.703125 38.015625 30.859375 
Q 33.796875 35.015625 27.4375 35.015625 
Q 21.234375 35.015625 17.15625 30.90625 
Q 13.09375 26.8125 13.09375 20.65625 
z
" id="ArialMT-38"/>
      </defs>
      <g style="fill:#262626;" transform="translate(135.80044 190.117812)scale(0.1 -0.1)">
       <use xlink:href="#ArialMT-38"/>
      </g>
     </g>
    </g>
    <g id="xtick_5">
     <g id="line2d_5">
      <g>
       <use style="fill:#262626;stroke:#262626;stroke-width:0.8;" x="167.442727" xlink:href="#mc7de007cc1" y="175.96"/>
      </g>
     </g>
     <g id="text_5">
      <!-- 10 -->
      <defs>
       <path d="M 37.25 0 
L 28.46875 0 
L 28.46875 56 
Q 25.296875 52.984375 20.140625 49.953125 
Q 14.984375 46.921875 10.890625 45.40625 
L 10.890625 53.90625 
Q 18.265625 57.375 23.78125 62.296875 
Q 29.296875 67.234375 31.59375 71.875 
L 37.25 71.875 
z
" id="ArialMT-31"/>
       <path d="M 4.15625 35.296875 
Q 4.15625 48 6.765625 55.734375 
Q 9.375 63.484375 14.515625 67.671875 
Q 19.671875 71.875 27.484375 71.875 
Q 33.25 71.875 37.59375 69.546875 
Q 41.9375 67.234375 44.765625 62.859375 
Q 47.609375 58.5 49.21875 52.21875 
Q 50.828125 45.953125 50.828125 35.296875 
Q 50.828125 22.703125 48.234375 14.96875 
Q 45.65625 7.234375 40.5 3 
Q 35.359375 -1.21875 27.484375 -1.21875 
Q 17.140625 -1.21875 11.234375 6.203125 
Q 4.15625 15.140625 4.15625 35.296875 
z
M 13.1875 35.296875 
Q 13.1875 17.671875 17.3125 11.828125 
Q 21.4375 6 27.484375 6 
Q 33.546875 6 37.671875 11.859375 
Q 41.796875 17.71875 41.796875 35.296875 
Q 41.796875 52.984375 37.671875 58.78125 
Q 33.546875 64.59375 27.390625 64.59375 
Q 21.34375 64.59375 17.71875 59.46875 
Q 13.1875 52.9375 13.1875 35.296875 
z
" id="ArialMT-30"/>
      </defs>
      <g style="fill:#262626;" transform="translate(161.88179 190.117812)scale(0.1 -0.1)">
       <use xlink:href="#ArialMT-31"/>
       <use x="55.615234" xlink:href="#ArialMT-30"/>
      </g>
     </g>
    </g>
    <g id="xtick_6">
     <g id="line2d_6">
      <g>
       <use style="fill:#262626;stroke:#262626;stroke-width:0.8;" x="196.304545" xlink:href="#mc7de007cc1" y="175.96"/>
      </g>
     </g>
     <g id="text_6">
      <!-- 12 -->
      <g style="fill:#262626;" transform="translate(190.743608 190.117812)scale(0.1 -0.1)">
       <use xlink:href="#ArialMT-31"/>
       <use x="55.615234" xlink:href="#ArialMT-32"/>
      </g>
     </g>
    </g>
    <g id="text_7">
     <!-- pH -->
     <defs>
      <path d="M 6.59375 -19.875 
L 6.59375 51.859375 
L 14.59375 51.859375 
L 14.59375 45.125 
Q 17.4375 49.078125 21 51.046875 
Q 24.5625 53.03125 29.640625 53.03125 
Q 36.28125 53.03125 41.359375 49.609375 
Q 46.4375 46.1875 49.015625 39.953125 
Q 51.609375 33.734375 51.609375 26.3125 
Q 51.609375 18.359375 48.75 11.984375 
Q 45.90625 5.609375 40.453125 2.21875 
Q 35.015625 -1.171875 29 -1.171875 
Q 24.609375 -1.171875 21.109375 0.6875 
Q 17.625 2.546875 15.375 5.375 
L 15.375 -19.875 
z
M 14.546875 25.640625 
Q 14.546875 15.625 18.59375 10.84375 
Q 22.65625 6.0625 28.421875 6.0625 
Q 34.28125 6.0625 38.453125 11.015625 
Q 42.625 15.96875 42.625 26.375 
Q 42.625 36.28125 38.546875 41.203125 
Q 34.46875 46.140625 28.8125 46.140625 
Q 23.1875 46.140625 18.859375 40.890625 
Q 14.546875 35.640625 14.546875 25.640625 
z
" id="ArialMT-70"/>
      <path d="M 8.015625 0 
L 8.015625 71.578125 
L 17.484375 71.578125 
L 17.484375 42.1875 
L 54.6875 42.1875 
L 54.6875 71.578125 
L 64.15625 71.578125 
L 64.15625 0 
L 54.6875 0 
L 54.6875 33.734375 
L 17.484375 33.734375 
L 17.484375 0 
z
" id="ArialMT-48"/>
     </defs>
     <g style="fill:#262626;" transform="translate(117.758594 203.263125)scale(0.1 -0.1)">
      <use xlink:href="#ArialMT-70"/>
      <use x="55.615234" xlink:href="#ArialMT-48"/>
     </g>
    </g>
   </g>
   <g id="matplotlib.axis_2">
    <g id="ytick_1">
     <g id="line2d_7">
      <defs>
       <path d="M 0 0 
L -3.5 0 
" id="me941572ef9" style="stroke:#262626;stroke-width:0.8;"/>
      </defs>
      <g>
       <use style="fill:#262626;stroke:#262626;stroke-width:0.8;" x="44.78" xlink:href="#me941572ef9" y="167.385925"/>
      </g>
     </g>
     <g id="text_8">
      <!-- −1 -->
      <defs>
       <path d="M 52.828125 31.203125 
L 5.5625 31.203125 
L 5.5625 39.40625 
L 52.828125 39.40625 
z
" id="ArialMT-2212"/>
      </defs>
      <g style="fill:#262626;" transform="translate(26.378438 170.964831)scale(0.1 -0.1)">
       <use xlink:href="#ArialMT-2212"/>
       <use x="58.398438" xlink:href="#ArialMT-31"/>
      </g>
     </g>
    </g>
    <g id="ytick_2">
     <g id="line2d_8">
      <g>
       <use style="fill:#262626;stroke:#262626;stroke-width:0.8;" x="44.78" xlink:href="#me941572ef9" y="135.327531"/>
      </g>
     </g>
     <g id="text_9">
      <!-- 0 -->
      <g style="fill:#262626;" transform="translate(32.219063 138.906437)scale(0.1 -0.1)">
       <use xlink:href="#ArialMT-30"/>
      </g>
     </g>
    </g>
    <g id="ytick_3">
     <g id="line2d_9">
      <g>
       <use style="fill:#262626;stroke:#262626;stroke-width:0.8;" x="44.78" xlink:href="#me941572ef9" y="103.269136"/>
      </g>
     </g>
     <g id="text_10">
      <!-- 1 -->
      <g style="fill:#262626;" transform="translate(32.219063 106.848043)scale(0.1 -0.1)">
       <use xlink:href="#ArialMT-31"/>
      </g>
     </g>
    </g>
    <g id="ytick_4">
     <g id="line2d_10">
      <g>
       <use style="fill:#262626;stroke:#262626;stroke-width:0.8;" x="44.78" xlink:href="#me941572ef9" y="71.210742"/>
      </g>
     </g>
     <g id="text_11">
      <!-- 2 -->
      <g style="fill:#262626;" transform="translate(32.219063 74.789648)scale(0.1 -0.1)">
       <use xlink:href="#ArialMT-32"/>
      </g>
     </g>
    </g>
    <g id="ytick_5">
     <g id="line2d_11">
      <g>
       <use style="fill:#262626;stroke:#262626;stroke-width:0.8;" x="44.78" xlink:href="#me941572ef9" y="39.152348"/>
      </g>
     </g>
     <g id="text_12">
      <!-- 3 -->
      <defs>
       <path d="M 4.203125 18.890625 
L 12.984375 20.0625 
Q 14.5 12.59375 18.140625 9.296875 
Q 21.78125 6 27 6 
Q 33.203125 6 37.46875 10.296875 
Q 41.75 14.59375 41.75 20.953125 
Q 41.75 27 37.796875 30.921875 
Q 33.84375 34.859375 27.734375 34.859375 
Q 25.25 34.859375 21.53125 33.890625 
L 22.515625 41.609375 
Q 23.390625 41.5 23.921875 41.5 
Q 29.546875 41.5 34.03125 44.421875 
Q 38.53125 47.359375 38.53125 53.46875 
Q 38.53125 58.296875 35.25 61.46875 
Q 31.984375 64.65625 26.8125 64.65625 
Q 21.6875 64.65625 18.265625 61.421875 
Q 14.84375 58.203125 13.875 51.765625 
L 5.078125 53.328125 
Q 6.6875 62.15625 12.390625 67.015625 
Q 18.109375 71.875 26.609375 71.875 
Q 32.46875 71.875 37.390625 69.359375 
Q 42.328125 66.84375 44.9375 62.5 
Q 47.5625 58.15625 47.5625 53.265625 
Q 47.5625 48.640625 45.0625 44.828125 
Q 42.578125 41.015625 37.703125 38.765625 
Q 44.046875 37.3125 47.5625 32.6875 
Q 51.078125 28.078125 51.078125 21.140625 
Q 51.078125 11.765625 44.234375 5.25 
Q 37.40625 -1.265625 26.953125 -1.265625 
Q 17.53125 -1.265625 11.296875 4.34375 
Q 5.078125 9.96875 4.203125 18.890625 
z
" id="ArialMT-33"/>
      </defs>
      <g style="fill:#262626;" transform="translate(32.219063 42.731254)scale(0.1 -0.1)">
       <use xlink:href="#ArialMT-33"/>
      </g>
     </g>
    </g>
    <g id="text_13">
     <!-- $\langle q_\mathsf{total} \rangle$ -->
     <defs>
      <path d="M 8.9375 31.34375 
L 22.703125 75.875 
L 31 75.875 
L 17.234375 31.34375 
L 31 -13.1875 
L 22.703125 -13.1875 
z
" id="DejaVuSans-27e8"/>
      <path d="M 41.703125 8.203125 
Q 38.09375 3.46875 33.171875 1.015625 
Q 28.265625 -1.421875 22.3125 -1.421875 
Q 14.015625 -1.421875 9.296875 4.171875 
Q 4.59375 9.765625 4.59375 19.578125 
Q 4.59375 27.484375 7.5 34.859375 
Q 10.40625 42.234375 15.828125 48.09375 
Q 19.34375 51.90625 23.90625 53.953125 
Q 28.46875 56 33.5 56 
Q 39.546875 56 43.453125 53.609375 
Q 47.359375 51.21875 49.125 46.390625 
L 50.6875 54.59375 
L 59.71875 54.59375 
L 45.125 -20.609375 
L 36.078125 -20.609375 
z
M 13.921875 20.90625 
Q 13.921875 13.671875 16.9375 9.890625 
Q 19.96875 6.109375 25.6875 6.109375 
Q 34.1875 6.109375 40.1875 14.234375 
Q 46.1875 22.359375 46.1875 33.984375 
Q 46.1875 41.015625 43.078125 44.75 
Q 39.984375 48.484375 34.1875 48.484375 
Q 29.9375 48.484375 26.3125 46.5 
Q 22.703125 44.53125 20.015625 40.71875 
Q 17.1875 36.71875 15.546875 31.34375 
Q 13.921875 25.984375 13.921875 20.90625 
z
" id="DejaVuSans-Oblique-71"/>
      <path d="M 18.3125 70.21875 
L 18.3125 54.6875 
L 36.8125 54.6875 
L 36.8125 47.703125 
L 18.3125 47.703125 
L 18.3125 18.015625 
Q 18.3125 11.328125 20.140625 9.421875 
Q 21.96875 7.515625 27.59375 7.515625 
L 36.8125 7.515625 
L 36.8125 0 
L 27.59375 0 
Q 17.1875 0 13.234375 3.875 
Q 9.28125 7.765625 9.28125 18.015625 
L 9.28125 47.703125 
L 2.6875 47.703125 
L 2.6875 54.6875 
L 9.28125 54.6875 
L 9.28125 70.21875 
z
" id="DejaVuSans-74"/>
      <path d="M 30.609375 48.390625 
Q 23.390625 48.390625 19.1875 42.75 
Q 14.984375 37.109375 14.984375 27.296875 
Q 14.984375 17.484375 19.15625 11.84375 
Q 23.34375 6.203125 30.609375 6.203125 
Q 37.796875 6.203125 41.984375 11.859375 
Q 46.1875 17.53125 46.1875 27.296875 
Q 46.1875 37.015625 41.984375 42.703125 
Q 37.796875 48.390625 30.609375 48.390625 
z
M 30.609375 56 
Q 42.328125 56 49.015625 48.375 
Q 55.71875 40.765625 55.71875 27.296875 
Q 55.71875 13.875 49.015625 6.21875 
Q 42.328125 -1.421875 30.609375 -1.421875 
Q 18.84375 -1.421875 12.171875 6.21875 
Q 5.515625 13.875 5.515625 27.296875 
Q 5.515625 40.765625 12.171875 48.375 
Q 18.84375 56 30.609375 56 
z
" id="DejaVuSans-6f"/>
      <path d="M 34.28125 27.484375 
Q 23.390625 27.484375 19.1875 25 
Q 14.984375 22.515625 14.984375 16.5 
Q 14.984375 11.71875 18.140625 8.90625 
Q 21.296875 6.109375 26.703125 6.109375 
Q 34.1875 6.109375 38.703125 11.40625 
Q 43.21875 16.703125 43.21875 25.484375 
L 43.21875 27.484375 
z
M 52.203125 31.203125 
L 52.203125 0 
L 43.21875 0 
L 43.21875 8.296875 
Q 40.140625 3.328125 35.546875 0.953125 
Q 30.953125 -1.421875 24.3125 -1.421875 
Q 15.921875 -1.421875 10.953125 3.296875 
Q 6 8.015625 6 15.921875 
Q 6 25.140625 12.171875 29.828125 
Q 18.359375 34.515625 30.609375 34.515625 
L 43.21875 34.515625 
L 43.21875 35.40625 
Q 43.21875 41.609375 39.140625 45 
Q 35.0625 48.390625 27.6875 48.390625 
Q 23 48.390625 18.546875 47.265625 
Q 14.109375 46.140625 10.015625 43.890625 
L 10.015625 52.203125 
Q 14.9375 54.109375 19.578125 55.046875 
Q 24.21875 56 28.609375 56 
Q 40.484375 56 46.34375 49.84375 
Q 52.203125 43.703125 52.203125 31.203125 
z
" id="DejaVuSans-61"/>
      <path d="M 9.421875 75.984375 
L 18.40625 75.984375 
L 18.40625 0 
L 9.421875 0 
z
" id="DejaVuSans-6c"/>
      <path d="M 30.078125 31.34375 
L 16.3125 -13.1875 
L 8.015625 -13.1875 
L 21.78125 31.34375 
L 8.015625 75.875 
L 16.3125 75.875 
z
" id="DejaVuSans-27e9"/>
     </defs>
     <g style="fill:#262626;" transform="translate(20.278438 115.95)rotate(-90)scale(0.1 -0.1)">
      <use transform="translate(0 0.125)" xlink:href="#DejaVuSans-27e8"/>
      <use transform="translate(39.013672 0.125)" xlink:href="#DejaVuSans-Oblique-71"/>
      <use transform="translate(102.490234 -16.28125)scale(0.7)" xlink:href="#DejaVuSans-74"/>
      <use transform="translate(129.936523 -16.28125)scale(0.7)" xlink:href="#DejaVuSans-6f"/>
      <use transform="translate(172.763672 -16.28125)scale(0.7)" xlink:href="#DejaVuSans-74"/>
      <use transform="translate(200.209961 -16.28125)scale(0.7)" xlink:href="#DejaVuSans-61"/>
      <use transform="translate(243.105469 -16.28125)scale(0.7)" xlink:href="#DejaVuSans-6c"/>
      <use transform="translate(265.288086 0.125)" xlink:href="#DejaVuSans-27e9"/>
     </g>
    </g>
   </g>
   <g id="PolyCollection_1">
    <defs>
     <path d="M 51.995455 -183.718182 
L 51.995455 -103.213641 
L 53.438545 -102.728496 
L 54.881636 -102.185888 
L 56.324727 -101.573273 
L 57.767818 -100.876669 
L 59.210909 -100.081344 
L 60.654 -99.172924 
L 62.097091 -98.138975 
L 63.540182 -96.97102 
L 64.983273 -95.66685 
L 66.426364 -94.232795 
L 67.869455 -92.685505 
L 69.312545 -91.052668 
L 70.755636 -89.372142 
L 72.198727 -87.689303 
L 73.641818 -86.052858 
L 75.084909 -84.509852 
L 76.528 -83.100914 
L 77.971091 -81.856731 
L 79.414182 -80.796366 
L 80.857273 -79.92744 
L 82.300364 -79.247744 
L 83.743455 -78.747591 
L 85.186545 -78.412295 
L 86.629636 -78.224352 
L 88.072727 -78.165122 
L 89.515818 -78.215887 
L 90.958909 -78.35829 
L 92.402 -78.574291 
L 93.845091 -78.845925 
L 95.288182 -79.155119 
L 96.731273 -79.48367 
L 98.174364 -79.813294 
L 99.617455 -80.125636 
L 101.060545 -80.402303 
L 102.503636 -80.625094 
L 103.946727 -80.776632 
L 105.389818 -80.841524 
L 106.832909 -80.807993 
L 108.276 -80.669757 
L 109.719091 -80.427714 
L 111.162182 -80.090787 
L 112.605273 -79.67527 
L 114.048364 -79.20217 
L 115.491455 -78.692476 
L 116.934545 -78.160853 
L 118.377636 -77.608998 
L 119.820727 -77.020668 
L 121.263818 -76.361183 
L 122.706909 -75.584403 
L 124.15 -74.64794 
L 125.593091 -73.531284 
L 127.036182 -72.245975 
L 128.479273 -70.831008 
L 129.922364 -69.33842 
L 131.365455 -67.819352 
L 132.808545 -66.316132 
L 134.251636 -64.85992 
L 135.694727 -63.471445 
L 137.137818 -62.1629 
L 138.580909 -60.940009 
L 140.024 -59.803883 
L 141.467091 -58.752548 
L 142.910182 -57.782123 
L 144.353273 -56.887683 
L 145.796364 -56.063851 
L 147.239455 -55.3052 
L 148.682545 -54.606494 
L 150.125636 -53.962835 
L 151.568727 -53.369717 
L 153.011818 -52.823035 
L 154.454909 -52.319072 
L 155.898 -51.854458 
L 157.341091 -51.426128 
L 158.784182 -51.031271 
L 160.227273 -50.667276 
L 161.670364 -50.33169 
L 163.113455 -50.022194 
L 164.556545 -49.736599 
L 165.999636 -49.472853 
L 167.442727 -49.229065 
L 168.885818 -49.003522 
L 170.328909 -48.794701 
L 171.772 -48.601263 
L 173.215091 -48.422044 
L 174.658182 -48.256032 
L 176.101273 -48.102343 
L 177.544364 -47.960186 
L 178.987455 -47.828835 
L 180.430545 -47.707603 
L 181.873636 -47.595836 
L 183.316727 -47.492909 
L 184.759818 -47.398239 
L 186.202909 -47.311288 
L 187.646 -47.231567 
L 189.089091 -47.158635 
L 190.532182 -47.092083 
L 191.975273 -47.031518 
L 193.418364 -46.976553 
L 194.861455 -46.926789 
L 196.304545 -46.881818 
L 196.304545 -114.463263 
L 196.304545 -114.463263 
L 194.861455 -114.418329 
L 193.418364 -114.368612 
L 191.975273 -114.313706 
L 190.532182 -114.253215 
L 189.089091 -114.186755 
L 187.646 -114.11394 
L 186.202909 -114.034367 
L 184.759818 -113.947601 
L 183.316727 -113.853164 
L 181.873636 -113.750532 
L 180.430545 -113.639134 
L 178.987455 -113.518368 
L 177.544364 -113.387603 
L 176.101273 -113.246185 
L 174.658182 -113.093425 
L 173.215091 -112.928583 
L 171.772 -112.750836 
L 170.328909 -112.559251 
L 168.885818 -112.352764 
L 167.442727 -112.130159 
L 165.999636 -111.890068 
L 164.556545 -111.630977 
L 163.113455 -111.35124 
L 161.670364 -111.049119 
L 160.227273 -110.722814 
L 158.784182 -110.370499 
L 157.341091 -109.99034 
L 155.898 -109.580506 
L 154.454909 -109.13916 
L 153.011818 -108.664467 
L 151.568727 -108.154595 
L 150.125636 -107.607758 
L 148.682545 -107.022268 
L 147.239455 -106.396644 
L 145.796364 -105.729759 
L 144.353273 -105.02108 
L 142.910182 -104.271019 
L 141.467091 -103.481429 
L 140.024 -102.656293 
L 138.580909 -101.802649 
L 137.137818 -100.931808 
L 135.694727 -100.060899 
L 134.251636 -99.214738 
L 132.808545 -98.427932 
L 131.365455 -97.747014 
L 129.922364 -97.232097 
L 128.479273 -96.956892 
L 127.036182 -97.004949 
L 125.593091 -97.459481 
L 124.15 -98.386182 
L 122.706909 -99.814652 
L 121.263818 -101.729061 
L 119.820727 -104.073728 
L 118.377636 -106.767864 
L 116.934545 -109.719828 
L 115.491455 -112.836522 
L 114.048364 -116.028922 
L 112.605273 -119.215945 
L 111.162182 -122.327755 
L 109.719091 -125.308416 
L 108.276 -128.117389 
L 106.832909 -130.729536 
L 105.389818 -133.133737 
L 103.946727 -135.330553 
L 102.503636 -137.329488 
L 101.060545 -139.146288 
L 99.617455 -140.800592 
L 98.174364 -142.314037 
L 96.731273 -143.708888 
L 95.288182 -145.007157 
L 93.845091 -146.230243 
L 92.402 -147.399044 
L 90.958909 -148.534389 
L 89.515818 -149.657475 
L 88.072727 -150.790046 
L 86.629636 -151.95419 
L 85.186545 -153.171816 
L 83.743455 -154.463873 
L 82.300364 -155.849255 
L 80.857273 -157.343295 
L 79.414182 -158.955848 
L 77.971091 -160.689157 
L 76.528 -162.535889 
L 75.084909 -164.477828 
L 73.641818 -166.485771 
L 72.198727 -168.52101 
L 70.755636 -170.53849 
L 69.312545 -172.491279 
L 67.869455 -174.335492 
L 66.426364 -176.034632 
L 64.983273 -177.562487 
L 63.540182 -178.904175 
L 62.097091 -180.055493 
L 60.654 -181.021075 
L 59.210909 -181.811992 
L 57.767818 -182.443366 
L 56.324727 -182.932346 
L 54.881636 -183.296578 
L 53.438545 -183.55319 
L 51.995455 -183.718182 
z
" id="m5b09621474" style="stroke:#ffffff;stroke-opacity:0.05;"/>
    </defs>
    <g clip-path="url(#p3e313882fc)">
     <use style="fill:#12711c;fill-opacity:0.05;stroke:#ffffff;stroke-opacity:0.05;" x="0" xlink:href="#m5b09621474" y="216"/>
    </g>
   </g>
   <g id="line2d_12">
    <path clip-path="url(#p3e313882fc)" d="M 51.995455 72.534089 
L 53.438545 72.859157 
L 54.881636 73.258767 
L 56.324727 73.747191 
L 57.767818 74.339982 
L 59.210909 75.053332 
L 60.654 75.903 
L 62.097091 76.902766 
L 63.540182 78.062402 
L 64.983273 79.385331 
L 66.426364 80.866287 
L 67.869455 82.489501 
L 69.312545 84.228026 
L 70.755636 86.044684 
L 72.198727 87.894844 
L 73.641818 89.730685 
L 75.084909 91.50616 
L 76.528 93.181599 
L 77.971091 94.727056 
L 79.414182 96.123893 
L 80.857273 97.364633 
L 82.300364 98.451501 
L 83.743455 99.394268 
L 85.186545 100.207945 
L 86.629636 100.910729 
L 88.072727 101.522416 
L 89.515818 102.063319 
L 90.958909 102.553661 
L 92.402 103.013332 
L 93.845091 103.461916 
L 95.288182 103.918862 
L 96.731273 104.403721 
L 98.174364 104.936335 
L 99.617455 105.536886 
L 101.060545 106.225704 
L 102.503636 107.022709 
L 103.946727 107.946407 
L 105.389818 109.012369 
L 106.832909 110.231235 
L 108.276 111.606427 
L 109.719091 113.131935 
L 111.162182 114.790729 
L 112.605273 116.554393 
L 114.048364 118.384454 
L 115.491455 120.235501 
L 116.934545 122.059659 
L 118.377636 123.811569 
L 119.820727 125.452802 
L 121.263818 126.954878 
L 122.706909 128.300472 
L 124.15 129.482939 
L 125.593091 130.504617 
L 127.036182 131.374538 
L 128.479273 132.10605 
L 129.922364 132.714742 
L 131.365455 133.216817 
L 132.808545 133.627968 
L 134.251636 133.962671 
L 135.694727 134.233828 
L 137.137818 134.452646 
L 138.580909 134.628671 
L 140.024 134.769912 
L 141.467091 134.883011 
L 142.910182 134.973429 
L 144.353273 135.045618 
L 145.796364 135.103195 
L 147.239455 135.149078 
L 148.682545 135.185619 
L 150.125636 135.214703 
L 151.568727 135.237844 
L 153.011818 135.256249 
L 154.454909 135.270884 
L 155.898 135.282518 
L 157.341091 135.291766 
L 158.784182 135.299115 
L 160.227273 135.304955 
L 161.670364 135.309596 
L 163.113455 135.313283 
L 164.556545 135.316212 
L 165.999636 135.318539 
L 167.442727 135.320388 
L 168.885818 135.321857 
L 170.328909 135.323024 
L 171.772 135.323951 
L 173.215091 135.324687 
L 174.658182 135.325272 
L 176.101273 135.325736 
L 177.544364 135.326105 
L 178.987455 135.326398 
L 180.430545 135.326631 
L 181.873636 135.326816 
L 183.316727 135.326963 
L 184.759818 135.32708 
L 186.202909 135.327173 
L 187.646 135.327246 
L 189.089091 135.327305 
L 190.532182 135.327351 
L 191.975273 135.327388 
L 193.418364 135.327417 
L 194.861455 135.327441 
L 196.304545 135.327459 
" style="fill:none;opacity:0.9;stroke:#12711c;stroke-linecap:round;stroke-width:1.5;"/>
   </g>
   <g id="line2d_13">
    <path clip-path="url(#p3e313882fc)" d="M 51.995455 77.892934 
L 53.438545 79.194373 
L 54.881636 80.655696 
L 56.324727 82.262848 
L 57.767818 83.990627 
L 59.210909 85.803397 
L 60.654 87.657612 
L 62.097091 89.505922 
L 63.540182 91.30211 
L 64.983273 93.005835 
L 66.426364 94.586218 
L 67.869455 96.023725 
L 69.312545 97.310276 
L 70.755636 98.447983 
L 72.198727 99.447099 
L 73.641818 100.323755 
L 75.084909 101.097905 
L 76.528 101.791714 
L 77.971091 102.428444 
L 79.414182 103.031801 
L 80.857273 103.625617 
L 82.300364 104.233743 
L 83.743455 104.88 
L 85.186545 105.588039 
L 86.629636 106.380969 
L 88.072727 107.280617 
L 89.515818 108.306317 
L 90.958909 109.4732 
L 92.402 110.790073 
L 93.845091 112.257157 
L 95.288182 113.864147 
L 96.731273 115.589176 
L 98.174364 117.399265 
L 99.617455 119.252563 
L 101.060545 121.102223 
L 102.503636 122.901276 
L 103.946727 124.607472 
L 105.389818 126.187116 
L 106.832909 127.617237 
L 108.276 128.885945 
L 109.719091 129.991299 
L 111.162182 130.939254 
L 112.605273 131.741273 
L 114.048364 132.412071 
L 115.491455 132.967744 
L 116.934545 133.424391 
L 118.377636 133.797203 
L 119.820727 134.099944 
L 121.263818 134.344714 
L 122.706909 134.541918 
L 124.15 134.700347 
L 125.593091 134.827336 
L 127.036182 134.928938 
L 128.479273 135.010109 
L 129.922364 135.074881 
L 131.365455 135.126519 
L 132.808545 135.167656 
L 134.251636 135.200408 
L 135.694727 135.226471 
L 137.137818 135.247205 
L 138.580909 135.263693 
L 140.024 135.276802 
L 141.467091 135.287222 
L 142.910182 135.295504 
L 144.353273 135.302086 
L 145.796364 135.307316 
L 147.239455 135.311471 
L 148.682545 135.314773 
L 150.125636 135.317396 
L 151.568727 135.31948 
L 153.011818 135.321135 
L 154.454909 135.322451 
L 155.898 135.323495 
L 157.341091 135.324325 
L 158.784182 135.324984 
L 160.227273 135.325508 
L 161.670364 135.325924 
L 163.113455 135.326254 
L 164.556545 135.326517 
L 165.999636 135.326725 
L 167.442727 135.326891 
L 168.885818 135.327023 
L 170.328909 135.327127 
L 171.772 135.32721 
L 173.215091 135.327276 
L 174.658182 135.327328 
L 176.101273 135.32737 
L 177.544364 135.327403 
L 178.987455 135.327429 
L 180.430545 135.32745 
L 181.873636 135.327467 
L 183.316727 135.32748 
L 184.759818 135.32749 
L 186.202909 135.327499 
L 187.646 135.327505 
L 189.089091 135.32751 
L 190.532182 135.327515 
L 191.975273 135.327518 
L 193.418364 135.327521 
L 194.861455 135.327523 
L 196.304545 135.327524 
" style="fill:none;opacity:0.7;stroke:#000000;stroke-linecap:round;stroke-width:1.5;"/>
   </g>
   <g id="line2d_14">
    <path clip-path="url(#p3e313882fc)" d="M 51.995455 32.281818 
L 53.438545 32.44681 
L 54.881636 32.703422 
L 56.324727 33.067654 
L 57.767818 33.556634 
L 59.210909 34.188008 
L 60.654 34.978925 
L 62.097091 35.944507 
L 63.540182 37.095825 
L 64.983273 38.437513 
L 66.426364 39.965368 
L 67.869455 41.664508 
L 69.312545 43.508721 
L 70.755636 45.46151 
L 72.198727 47.47899 
L 73.641818 49.514229 
L 75.084909 51.522172 
L 76.528 53.464111 
L 77.971091 55.310843 
L 79.414182 57.044152 
L 80.857273 58.656705 
L 82.300364 60.150745 
L 83.743455 61.536127 
L 85.186545 62.828184 
L 86.629636 64.04581 
L 88.072727 65.209954 
L 89.515818 66.342525 
L 90.958909 67.465611 
L 92.402 68.600956 
L 93.845091 69.769757 
L 95.288182 70.992843 
L 96.731273 72.291112 
L 98.174364 73.685963 
L 99.617455 75.199408 
L 101.060545 76.853712 
L 102.503636 78.670512 
L 103.946727 80.669447 
L 105.389818 82.866263 
L 106.832909 85.270464 
L 108.276 87.882611 
L 109.719091 90.691584 
L 111.162182 93.672245 
L 112.605273 96.784055 
L 114.048364 99.971078 
L 115.491455 103.163478 
L 116.934545 106.280172 
L 118.377636 109.232136 
L 119.820727 111.926272 
L 121.263818 114.270939 
L 122.706909 116.185348 
L 124.15 117.613818 
L 125.593091 118.540519 
L 127.036182 118.995051 
L 128.479273 119.043108 
L 129.922364 118.767903 
L 131.365455 118.252986 
L 132.808545 117.572068 
L 134.251636 116.785262 
L 135.694727 115.939101 
L 137.137818 115.068192 
L 138.580909 114.197351 
L 140.024 113.343707 
L 141.467091 112.518571 
L 142.910182 111.728981 
L 144.353273 110.97892 
L 145.796364 110.270241 
L 147.239455 109.603356 
L 148.682545 108.977732 
L 150.125636 108.392242 
L 151.568727 107.845405 
L 153.011818 107.335533 
L 154.454909 106.86084 
L 155.898 106.419494 
L 157.341091 106.00966 
L 158.784182 105.629501 
L 160.227273 105.277186 
L 161.670364 104.950881 
L 163.113455 104.64876 
L 164.556545 104.369023 
L 165.999636 104.109932 
L 167.442727 103.869841 
L 168.885818 103.647236 
L 170.328909 103.440749 
L 171.772 103.249164 
L 173.215091 103.071417 
L 174.658182 102.906575 
L 176.101273 102.753815 
L 177.544364 102.612397 
L 178.987455 102.481632 
L 180.430545 102.360866 
L 181.873636 102.249468 
L 183.316727 102.146836 
L 184.759818 102.052399 
L 186.202909 101.965633 
L 187.646 101.88606 
L 189.089091 101.813245 
L 190.532182 101.746785 
L 191.975273 101.686294 
L 193.418364 101.631388 
L 194.861455 101.581671 
L 196.304545 101.536737 
" style="fill:none;opacity:0.45;stroke:#12711c;stroke-dasharray:2.775,1.2;stroke-dashoffset:0;stroke-width:0.75;"/>
   </g>
   <g id="line2d_15">
    <path clip-path="url(#p3e313882fc)" d="M 51.995455 112.786359 
L 53.438545 113.271504 
L 54.881636 113.814112 
L 56.324727 114.426727 
L 57.767818 115.123331 
L 59.210909 115.918656 
L 60.654 116.827076 
L 62.097091 117.861025 
L 63.540182 119.02898 
L 64.983273 120.33315 
L 66.426364 121.767205 
L 67.869455 123.314495 
L 69.312545 124.947332 
L 70.755636 126.627858 
L 72.198727 128.310697 
L 73.641818 129.947142 
L 75.084909 131.490148 
L 76.528 132.899086 
L 77.971091 134.143269 
L 79.414182 135.203634 
L 80.857273 136.07256 
L 82.300364 136.752256 
L 83.743455 137.252409 
L 85.186545 137.587705 
L 86.629636 137.775648 
L 88.072727 137.834878 
L 89.515818 137.784113 
L 90.958909 137.64171 
L 92.402 137.425709 
L 93.845091 137.154075 
L 95.288182 136.844881 
L 96.731273 136.51633 
L 98.174364 136.186706 
L 99.617455 135.874364 
L 101.060545 135.597697 
L 102.503636 135.374906 
L 103.946727 135.223368 
L 105.389818 135.158476 
L 106.832909 135.192007 
L 108.276 135.330243 
L 109.719091 135.572286 
L 111.162182 135.909213 
L 112.605273 136.32473 
L 114.048364 136.79783 
L 115.491455 137.307524 
L 116.934545 137.839147 
L 118.377636 138.391002 
L 119.820727 138.979332 
L 121.263818 139.638817 
L 122.706909 140.415597 
L 124.15 141.35206 
L 125.593091 142.468716 
L 127.036182 143.754025 
L 128.479273 145.168992 
L 129.922364 146.66158 
L 131.365455 148.180648 
L 132.808545 149.683868 
L 134.251636 151.14008 
L 135.694727 152.528555 
L 137.137818 153.8371 
L 138.580909 155.059991 
L 140.024 156.196117 
L 141.467091 157.247452 
L 142.910182 158.217877 
L 144.353273 159.112317 
L 145.796364 159.936149 
L 147.239455 160.6948 
L 148.682545 161.393506 
L 150.125636 162.037165 
L 151.568727 162.630283 
L 153.011818 163.176965 
L 154.454909 163.680928 
L 155.898 164.145542 
L 157.341091 164.573872 
L 158.784182 164.968729 
L 160.227273 165.332724 
L 161.670364 165.66831 
L 163.113455 165.977806 
L 164.556545 166.263401 
L 165.999636 166.527147 
L 167.442727 166.770935 
L 168.885818 166.996478 
L 170.328909 167.205299 
L 171.772 167.398737 
L 173.215091 167.577956 
L 174.658182 167.743968 
L 176.101273 167.897657 
L 177.544364 168.039814 
L 178.987455 168.171165 
L 180.430545 168.292397 
L 181.873636 168.404164 
L 183.316727 168.507091 
L 184.759818 168.601761 
L 186.202909 168.688712 
L 187.646 168.768433 
L 189.089091 168.841365 
L 190.532182 168.907917 
L 191.975273 168.968482 
L 193.418364 169.023447 
L 194.861455 169.073211 
L 196.304545 169.118182 
" style="fill:none;opacity:0.45;stroke:#12711c;stroke-dasharray:2.775,1.2;stroke-dashoffset:0;stroke-width:0.75;"/>
   </g>
   <g id="patch_3">
    <path d="M 44.78 175.96 
L 44.78 25.44 
" style="fill:none;stroke:#262626;stroke-linecap:square;stroke-linejoin:miter;stroke-width:0.8;"/>
   </g>
   <g id="patch_4">
    <path d="M 44.78 175.96 
L 203.52 175.96 
" style="fill:none;stroke:#262626;stroke-linecap:square;stroke-linejoin:miter;stroke-width:0.8;"/>
   </g>
   <g id="text_14">
    <!-- Epik-scan SM14 -->
    <defs>
     <path d="M 7.90625 0 
L 7.90625 71.578125 
L 59.671875 71.578125 
L 59.671875 63.140625 
L 17.390625 63.140625 
L 17.390625 41.21875 
L 56.984375 41.21875 
L 56.984375 32.8125 
L 17.390625 32.8125 
L 17.390625 8.453125 
L 61.328125 8.453125 
L 61.328125 0 
z
" id="ArialMT-45"/>
     <path d="M 6.640625 61.46875 
L 6.640625 71.578125 
L 15.4375 71.578125 
L 15.4375 61.46875 
z
M 6.640625 0 
L 6.640625 51.859375 
L 15.4375 51.859375 
L 15.4375 0 
z
" id="ArialMT-69"/>
     <path d="M 6.640625 0 
L 6.640625 71.578125 
L 15.4375 71.578125 
L 15.4375 30.765625 
L 36.234375 51.859375 
L 47.609375 51.859375 
L 27.78125 32.625 
L 49.609375 0 
L 38.765625 0 
L 21.625 26.515625 
L 15.4375 20.5625 
L 15.4375 0 
z
" id="ArialMT-6b"/>
     <path d="M 3.171875 21.484375 
L 3.171875 30.328125 
L 30.171875 30.328125 
L 30.171875 21.484375 
z
" id="ArialMT-2d"/>
     <path d="M 3.078125 15.484375 
L 11.765625 16.84375 
Q 12.5 11.625 15.84375 8.84375 
Q 19.1875 6.0625 25.203125 6.0625 
Q 31.25 6.0625 34.171875 8.515625 
Q 37.109375 10.984375 37.109375 14.3125 
Q 37.109375 17.28125 34.515625 19 
Q 32.71875 20.171875 25.53125 21.96875 
Q 15.875 24.421875 12.140625 26.203125 
Q 8.40625 27.984375 6.46875 31.125 
Q 4.546875 34.28125 4.546875 38.09375 
Q 4.546875 41.546875 6.125 44.5 
Q 7.71875 47.46875 10.453125 49.421875 
Q 12.5 50.921875 16.03125 51.96875 
Q 19.578125 53.03125 23.640625 53.03125 
Q 29.734375 53.03125 34.34375 51.265625 
Q 38.96875 49.515625 41.15625 46.5 
Q 43.359375 43.5 44.1875 38.484375 
L 35.59375 37.3125 
Q 35.015625 41.3125 32.203125 43.546875 
Q 29.390625 45.796875 24.265625 45.796875 
Q 18.21875 45.796875 15.625 43.796875 
Q 13.03125 41.796875 13.03125 39.109375 
Q 13.03125 37.40625 14.109375 36.03125 
Q 15.1875 34.625 17.484375 33.6875 
Q 18.796875 33.203125 25.25 31.453125 
Q 34.578125 28.953125 38.25 27.359375 
Q 41.9375 25.78125 44.03125 22.75 
Q 46.140625 19.734375 46.140625 15.234375 
Q 46.140625 10.84375 43.578125 6.953125 
Q 41.015625 3.078125 36.171875 0.953125 
Q 31.34375 -1.171875 25.25 -1.171875 
Q 15.140625 -1.171875 9.84375 3.03125 
Q 4.546875 7.234375 3.078125 15.484375 
z
" id="ArialMT-73"/>
     <path d="M 40.4375 19 
L 49.078125 17.875 
Q 47.65625 8.9375 41.8125 3.875 
Q 35.984375 -1.171875 27.484375 -1.171875 
Q 16.84375 -1.171875 10.375 5.78125 
Q 3.90625 12.75 3.90625 25.734375 
Q 3.90625 34.125 6.6875 40.421875 
Q 9.46875 46.734375 15.15625 49.875 
Q 20.84375 53.03125 27.546875 53.03125 
Q 35.984375 53.03125 41.359375 48.75 
Q 46.734375 44.484375 48.25 36.625 
L 39.703125 35.296875 
Q 38.484375 40.53125 35.375 43.15625 
Q 32.28125 45.796875 27.875 45.796875 
Q 21.234375 45.796875 17.078125 41.03125 
Q 12.9375 36.28125 12.9375 25.984375 
Q 12.9375 15.53125 16.9375 10.796875 
Q 20.953125 6.0625 27.390625 6.0625 
Q 32.5625 6.0625 36.03125 9.234375 
Q 39.5 12.40625 40.4375 19 
z
" id="ArialMT-63"/>
     <path d="M 40.4375 6.390625 
Q 35.546875 2.25 31.03125 0.53125 
Q 26.515625 -1.171875 21.34375 -1.171875 
Q 12.796875 -1.171875 8.203125 3 
Q 3.609375 7.171875 3.609375 13.671875 
Q 3.609375 17.484375 5.34375 20.625 
Q 7.078125 23.78125 9.890625 25.6875 
Q 12.703125 27.59375 16.21875 28.5625 
Q 18.796875 29.25 24.03125 29.890625 
Q 34.671875 31.15625 39.703125 32.90625 
Q 39.75 34.71875 39.75 35.203125 
Q 39.75 40.578125 37.25 42.78125 
Q 33.890625 45.75 27.25 45.75 
Q 21.046875 45.75 18.09375 43.578125 
Q 15.140625 41.40625 13.71875 35.890625 
L 5.125 37.0625 
Q 6.296875 42.578125 8.984375 45.96875 
Q 11.671875 49.359375 16.75 51.1875 
Q 21.828125 53.03125 28.515625 53.03125 
Q 35.15625 53.03125 39.296875 51.46875 
Q 43.453125 49.90625 45.40625 47.53125 
Q 47.359375 45.171875 48.140625 41.546875 
Q 48.578125 39.3125 48.578125 33.453125 
L 48.578125 21.734375 
Q 48.578125 9.46875 49.140625 6.21875 
Q 49.703125 2.984375 51.375 0 
L 42.1875 0 
Q 40.828125 2.734375 40.4375 6.390625 
z
M 39.703125 26.03125 
Q 34.90625 24.078125 25.34375 22.703125 
Q 19.921875 21.921875 17.671875 20.9375 
Q 15.4375 19.96875 14.203125 18.09375 
Q 12.984375 16.21875 12.984375 13.921875 
Q 12.984375 10.40625 15.640625 8.0625 
Q 18.3125 5.71875 23.4375 5.71875 
Q 28.515625 5.71875 32.46875 7.9375 
Q 36.421875 10.15625 38.28125 14.015625 
Q 39.703125 17 39.703125 22.796875 
z
" id="ArialMT-61"/>
     <path d="M 6.59375 0 
L 6.59375 51.859375 
L 14.5 51.859375 
L 14.5 44.484375 
Q 20.21875 53.03125 31 53.03125 
Q 35.6875 53.03125 39.625 51.34375 
Q 43.5625 49.65625 45.515625 46.921875 
Q 47.46875 44.1875 48.25 40.4375 
Q 48.734375 37.984375 48.734375 31.890625 
L 48.734375 0 
L 39.9375 0 
L 39.9375 31.546875 
Q 39.9375 36.921875 38.90625 39.578125 
Q 37.890625 42.234375 35.28125 43.8125 
Q 32.671875 45.40625 29.15625 45.40625 
Q 23.53125 45.40625 19.453125 41.84375 
Q 15.375 38.28125 15.375 28.328125 
L 15.375 0 
z
" id="ArialMT-6e"/>
     <path id="ArialMT-20"/>
     <path d="M 4.5 23 
L 13.421875 23.78125 
Q 14.0625 18.40625 16.375 14.96875 
Q 18.703125 11.53125 23.578125 9.40625 
Q 28.46875 7.28125 34.578125 7.28125 
Q 39.984375 7.28125 44.140625 8.890625 
Q 48.296875 10.5 50.3125 13.296875 
Q 52.34375 16.109375 52.34375 19.4375 
Q 52.34375 22.796875 50.390625 25.3125 
Q 48.4375 27.828125 43.953125 29.546875 
Q 41.0625 30.671875 31.203125 33.03125 
Q 21.34375 35.40625 17.390625 37.5 
Q 12.25 40.1875 9.734375 44.15625 
Q 7.234375 48.140625 7.234375 53.078125 
Q 7.234375 58.5 10.296875 63.203125 
Q 13.375 67.921875 19.28125 70.359375 
Q 25.203125 72.796875 32.421875 72.796875 
Q 40.375 72.796875 46.453125 70.234375 
Q 52.546875 67.671875 55.8125 62.6875 
Q 59.078125 57.71875 59.328125 51.421875 
L 50.25 50.734375 
Q 49.515625 57.515625 45.28125 60.984375 
Q 41.0625 64.453125 32.8125 64.453125 
Q 24.21875 64.453125 20.28125 61.296875 
Q 16.359375 58.15625 16.359375 53.71875 
Q 16.359375 49.859375 19.140625 47.359375 
Q 21.875 44.875 33.421875 42.265625 
Q 44.96875 39.65625 49.265625 37.703125 
Q 55.515625 34.8125 58.484375 30.390625 
Q 61.46875 25.984375 61.46875 20.21875 
Q 61.46875 14.5 58.203125 9.4375 
Q 54.9375 4.390625 48.796875 1.578125 
Q 42.671875 -1.21875 35.015625 -1.21875 
Q 25.296875 -1.21875 18.71875 1.609375 
Q 12.15625 4.4375 8.421875 10.125 
Q 4.6875 15.828125 4.5 23 
z
" id="ArialMT-53"/>
     <path d="M 7.421875 0 
L 7.421875 71.578125 
L 21.6875 71.578125 
L 38.625 20.90625 
Q 40.96875 13.8125 42.046875 10.296875 
Q 43.265625 14.203125 45.84375 21.78125 
L 62.984375 71.578125 
L 75.734375 71.578125 
L 75.734375 0 
L 66.609375 0 
L 66.609375 59.90625 
L 45.796875 0 
L 37.25 0 
L 16.546875 60.9375 
L 16.546875 0 
z
" id="ArialMT-4d"/>
    </defs>
    <g style="fill:#262626;" transform="translate(80.467188 19.44)scale(0.12 -0.12)">
     <use xlink:href="#ArialMT-45"/>
     <use x="66.699219" xlink:href="#ArialMT-70"/>
     <use x="122.314453" xlink:href="#ArialMT-69"/>
     <use x="144.53125" xlink:href="#ArialMT-6b"/>
     <use x="194.53125" xlink:href="#ArialMT-2d"/>
     <use x="227.832031" xlink:href="#ArialMT-73"/>
     <use x="277.832031" xlink:href="#ArialMT-63"/>
     <use x="327.832031" xlink:href="#ArialMT-61"/>
     <use x="383.447266" xlink:href="#ArialMT-6e"/>
     <use x="439.0625" xlink:href="#ArialMT-20"/>
     <use x="466.845703" xlink:href="#ArialMT-53"/>
     <use x="533.544922" xlink:href="#ArialMT-4d"/>
     <use x="616.845703" xlink:href="#ArialMT-31"/>
     <use x="672.460938" xlink:href="#ArialMT-34"/>
    </g>
   </g>
  </g>
 </g>
 <defs>
  <clipPath id="p3e313882fc">
   <rect height="150.52" width="158.74" x="44.78" y="25.44"/>
  </clipPath>
 </defs>
</svg>
