<?xml version="1.0" encoding="utf-8" standalone="no"?>
<!DOCTYPE svg PUBLIC "-//W3C//DTD SVG 1.1//EN"
  "http://www.w3.org/Graphics/SVG/1.1/DTD/svg11.dtd">
<!-- Created with matplotlib (http://matplotlib.org/) -->
<svg height="144pt" version="1.1" viewBox="0 0 144 144" width="144pt" xmlns="http://www.w3.org/2000/svg" xmlns:xlink="http://www.w3.org/1999/xlink">
 <defs>
  <style type="text/css">
*{stroke-linecap:butt;stroke-linejoin:round;}
  </style>
 </defs>
 <g id="figure_1">
  <g id="patch_1">
   <path d="M 0 144 
L 144 144 
L 144 0 
L 0 0 
z
" style="fill:#ffffff;"/>
  </g>
  <g id="axes_1">
   <g id="patch_2">
    <path d="M 41.96 101.92 
L 130.44 101.92 
L 130.44 27.48 
L 41.96 27.48 
z
" style="fill:#ffffff;"/>
   </g>
   <g id="matplotlib.axis_1">
    <g id="xtick_1">
     <g id="line2d_1">
      <defs>
       <path d="M 0 0 
L 0 3.5 
" id="m4c74d6eac2" style="stroke:#262626;stroke-width:0.8;"/>
      </defs>
      <g>
       <use style="fill:#262626;stroke:#262626;stroke-width:0.8;" x="45.981818" xlink:href="#m4c74d6eac2" y="101.92"/>
      </g>
     </g>
     <g id="text_1">
      <!-- 2 -->
      <defs>
       <path d="M 50.34375 8.453125 
L 50.34375 0 
L 3.03125 0 
Q 2.9375 3.171875 4.046875 6.109375 
Q 5.859375 10.9375 9.828125 15.625 
Q 13.8125 20.3125 21.34375 26.46875 
Q 33.015625 36.03125 37.109375 41.625 
Q 41.21875 47.21875 41.21875 52.203125 
Q 41.21875 57.421875 37.46875 61 
Q 33.734375 64.59375 27.734375 64.59375 
Q 21.390625 64.59375 17.578125 60.78125 
Q 13.765625 56.984375 13.71875 50.25 
L 4.6875 51.171875 
Q 5.609375 61.28125 11.65625 66.578125 
Q 17.71875 71.875 27.9375 71.875 
Q 38.234375 71.875 44.234375 66.15625 
Q 50.25 60.453125 50.25 52 
Q 50.25 47.703125 48.484375 43.546875 
Q 46.734375 39.40625 42.65625 34.8125 
Q 38.578125 30.21875 29.109375 22.21875 
Q 21.1875 15.578125 18.9375 13.203125 
Q 16.703125 10.84375 15.234375 8.453125 
z
" id="ArialMT-32"/>
      </defs>
      <g style="fill:#262626;" transform="translate(42.923303 116.793594)scale(0.11 -0.11)">
       <use xlink:href="#ArialMT-32"/>
      </g>
     </g>
    </g>
    <g id="xtick_2">
     <g id="line2d_2">
      <g>
       <use style="fill:#262626;stroke:#262626;stroke-width:0.8;" x="62.069091" xlink:href="#m4c74d6eac2" y="101.92"/>
      </g>
     </g>
     <g id="text_2">
      <!-- 4 -->
      <defs>
       <path d="M 32.328125 0 
L 32.328125 17.140625 
L 1.265625 17.140625 
L 1.265625 25.203125 
L 33.9375 71.578125 
L 41.109375 71.578125 
L 41.109375 25.203125 
L 50.78125 25.203125 
L 50.78125 17.140625 
L 41.109375 17.140625 
L 41.109375 0 
z
M 32.328125 25.203125 
L 32.328125 57.46875 
L 9.90625 25.203125 
z
" id="ArialMT-34"/>
      </defs>
      <g style="fill:#262626;" transform="translate(59.010575 116.793594)scale(0.11 -0.11)">
       <use xlink:href="#ArialMT-34"/>
      </g>
     </g>
    </g>
    <g id="xtick_3">
     <g id="line2d_3">
      <g>
       <use style="fill:#262626;stroke:#262626;stroke-width:0.8;" x="78.156364" xlink:href="#m4c74d6eac2" y="101.92"/>
      </g>
     </g>
     <g id="text_3">
      <!-- 6 -->
      <defs>
       <path d="M 49.75 54.046875 
L 41.015625 53.375 
Q 39.84375 58.546875 37.703125 60.890625 
Q 34.125 64.65625 28.90625 64.65625 
Q 24.703125 64.65625 21.53125 62.3125 
Q 17.390625 59.28125 14.984375 53.46875 
Q 12.59375 47.65625 12.5 36.921875 
Q 15.671875 41.75 20.265625 44.09375 
Q 24.859375 46.4375 29.890625 46.4375 
Q 38.671875 46.4375 44.84375 39.96875 
Q 51.03125 33.5 51.03125 23.25 
Q 51.03125 16.5 48.125 10.71875 
Q 45.21875 4.9375 40.140625 1.859375 
Q 35.0625 -1.21875 28.609375 -1.21875 
Q 17.625 -1.21875 10.6875 6.859375 
Q 3.765625 14.9375 3.765625 33.5 
Q 3.765625 54.25 11.421875 63.671875 
Q 18.109375 71.875 29.4375 71.875 
Q 37.890625 71.875 43.28125 67.140625 
Q 48.6875 62.40625 49.75 54.046875 
z
M 13.875 23.1875 
Q 13.875 18.65625 15.796875 14.5 
Q 17.71875 10.359375 21.1875 8.171875 
Q 24.65625 6 28.46875 6 
Q 34.03125 6 38.03125 10.484375 
Q 42.046875 14.984375 42.046875 22.703125 
Q 42.046875 30.125 38.078125 34.390625 
Q 34.125 38.671875 28.125 38.671875 
Q 22.171875 38.671875 18.015625 34.390625 
Q 13.875 30.125 13.875 23.1875 
z
" id="ArialMT-36"/>
      </defs>
      <g style="fill:#262626;" transform="translate(75.097848 116.793594)scale(0.11 -0.11)">
       <use xlink:href="#ArialMT-36"/>
      </g>
     </g>
    </g>
    <g id="xtick_4">
     <g id="line2d_4">
      <g>
       <use style="fill:#262626;stroke:#262626;stroke-width:0.8;" x="94.243636" xlink:href="#m4c74d6eac2" y="101.92"/>
      </g>
     </g>
     <g id="text_4">
      <!-- 8 -->
      <defs>
       <path d="M 17.671875 38.8125 
Q 12.203125 40.828125 9.5625 44.53125 
Q 6.9375 48.25 6.9375 53.421875 
Q 6.9375 61.234375 12.546875 66.546875 
Q 18.171875 71.875 27.484375 71.875 
Q 36.859375 71.875 42.578125 66.421875 
Q 48.296875 60.984375 48.296875 53.171875 
Q 48.296875 48.1875 45.671875 44.5 
Q 43.0625 40.828125 37.75 38.8125 
Q 44.34375 36.671875 47.78125 31.875 
Q 51.21875 27.09375 51.21875 20.453125 
Q 51.21875 11.28125 44.71875 5.03125 
Q 38.234375 -1.21875 27.640625 -1.21875 
Q 17.046875 -1.21875 10.546875 5.046875 
Q 4.046875 11.328125 4.046875 20.703125 
Q 4.046875 27.6875 7.59375 32.390625 
Q 11.140625 37.109375 17.671875 38.8125 
z
M 15.921875 53.71875 
Q 15.921875 48.640625 19.1875 45.40625 
Q 22.46875 42.1875 27.6875 42.1875 
Q 32.765625 42.1875 36.015625 45.375 
Q 39.265625 48.578125 39.265625 53.21875 
Q 39.265625 58.0625 35.90625 61.359375 
Q 32.5625 64.65625 27.59375 64.65625 
Q 22.5625 64.65625 19.234375 61.421875 
Q 15.921875 58.203125 15.921875 53.71875 
z
M 13.09375 20.65625 
Q 13.09375 16.890625 14.875 13.375 
Q 16.65625 9.859375 20.171875 7.921875 
Q 23.6875 6 27.734375 6 
Q 34.03125 6 38.125 10.046875 
Q 42.234375 14.109375 42.234375 20.359375 
Q 42.234375 26.703125 38.015625 30.859375 
Q 33.796875 35.015625 27.4375 35.015625 
Q 21.234375 35.015625 17.15625 30.90625 
Q 13.09375 26.8125 13.09375 20.65625 
z
" id="ArialMT-38"/>
      </defs>
      <g style="fill:#262626;" transform="translate(91.185121 116.793594)scale(0.11 -0.11)">
       <use xlink:href="#ArialMT-38"/>
      </g>
     </g>
    </g>
    <g id="xtick_5">
     <g id="line2d_5">
      <g>
       <use style="fill:#262626;stroke:#262626;stroke-width:0.8;" x="110.330909" xlink:href="#m4c74d6eac2" y="101.92"/>
      </g>
     </g>
     <g id="text_5">
      <!-- 10 -->
      <defs>
       <path d="M 37.25 0 
L 28.46875 0 
L 28.46875 56 
Q 25.296875 52.984375 20.140625 49.953125 
Q 14.984375 46.921875 10.890625 45.40625 
L 10.890625 53.90625 
Q 18.265625 57.375 23.78125 62.296875 
Q 29.296875 67.234375 31.59375 71.875 
L 37.25 71.875 
z
" id="ArialMT-31"/>
       <path d="M 4.15625 35.296875 
Q 4.15625 48 6.765625 55.734375 
Q 9.375 63.484375 14.515625 67.671875 
Q 19.671875 71.875 27.484375 71.875 
Q 33.25 71.875 37.59375 69.546875 
Q 41.9375 67.234375 44.765625 62.859375 
Q 47.609375 58.5 49.21875 52.21875 
Q 50.828125 45.953125 50.828125 35.296875 
Q 50.828125 22.703125 48.234375 14.96875 
Q 45.65625 7.234375 40.5 3 
Q 35.359375 -1.21875 27.484375 -1.21875 
Q 17.140625 -1.21875 11.234375 6.203125 
Q 4.15625 15.140625 4.15625 35.296875 
z
M 13.1875 35.296875 
Q 13.1875 17.671875 17.3125 11.828125 
Q 21.4375 6 27.484375 6 
Q 33.546875 6 37.671875 11.859375 
Q 41.796875 17.71875 41.796875 35.296875 
Q 41.796875 52.984375 37.671875 58.78125 
Q 33.546875 64.59375 27.390625 64.59375 
Q 21.34375 64.59375 17.71875 59.46875 
Q 13.1875 52.9375 13.1875 35.296875 
z
" id="ArialMT-30"/>
      </defs>
      <g style="fill:#262626;" transform="translate(104.213878 116.793594)scale(0.11 -0.11)">
       <use xlink:href="#ArialMT-31"/>
       <use x="55.615234" xlink:href="#ArialMT-30"/>
      </g>
     </g>
    </g>
    <g id="xtick_6">
     <g id="line2d_6">
      <g>
       <use style="fill:#262626;stroke:#262626;stroke-width:0.8;" x="126.418182" xlink:href="#m4c74d6eac2" y="101.92"/>
      </g>
     </g>
     <g id="text_6">
      <!-- 12 -->
      <g style="fill:#262626;" transform="translate(120.301151 116.793594)scale(0.11 -0.11)">
       <use xlink:href="#ArialMT-31"/>
       <use x="55.615234" xlink:href="#ArialMT-32"/>
      </g>
     </g>
    </g>
    <g id="text_7">
     <!-- pH -->
     <defs>
      <path d="M 6.59375 -19.875 
L 6.59375 51.859375 
L 14.59375 51.859375 
L 14.59375 45.125 
Q 17.4375 49.078125 21 51.046875 
Q 24.5625 53.03125 29.640625 53.03125 
Q 36.28125 53.03125 41.359375 49.609375 
Q 46.4375 46.1875 49.015625 39.953125 
Q 51.609375 33.734375 51.609375 26.3125 
Q 51.609375 18.359375 48.75 11.984375 
Q 45.90625 5.609375 40.453125 2.21875 
Q 35.015625 -1.171875 29 -1.171875 
Q 24.609375 -1.171875 21.109375 0.6875 
Q 17.625 2.546875 15.375 5.375 
L 15.375 -19.875 
z
M 14.546875 25.640625 
Q 14.546875 15.625 18.59375 10.84375 
Q 22.65625 6.0625 28.421875 6.0625 
Q 34.28125 6.0625 38.453125 11.015625 
Q 42.625 15.96875 42.625 26.375 
Q 42.625 36.28125 38.546875 41.203125 
Q 34.46875 46.140625 28.8125 46.140625 
Q 23.1875 46.140625 18.859375 40.890625 
Q 14.546875 35.640625 14.546875 25.640625 
z
" id="ArialMT-70"/>
      <path d="M 8.015625 0 
L 8.015625 71.578125 
L 17.484375 71.578125 
L 17.484375 42.1875 
L 54.6875 42.1875 
L 54.6875 71.578125 
L 64.15625 71.578125 
L 64.15625 0 
L 54.6875 0 
L 54.6875 33.734375 
L 17.484375 33.734375 
L 17.484375 0 
z
" id="ArialMT-48"/>
     </defs>
     <g style="fill:#262626;" transform="translate(79.169453 130.853437)scale(0.11 -0.11)">
      <use xlink:href="#ArialMT-70"/>
      <use x="55.615234" xlink:href="#ArialMT-48"/>
     </g>
    </g>
   </g>
   <g id="matplotlib.axis_2">
    <g id="ytick_1">
     <g id="line2d_7">
      <defs>
       <path d="M 0 0 
L -3.5 0 
" id="m516a2660da" style="stroke:#262626;stroke-width:0.8;"/>
      </defs>
      <g>
       <use style="fill:#262626;stroke:#262626;stroke-width:0.8;" x="41.96" xlink:href="#m516a2660da" y="88.425876"/>
      </g>
     </g>
     <g id="text_8">
      <!-- 0 -->
      <g style="fill:#262626;" transform="translate(28.842969 92.362673)scale(0.11 -0.11)">
       <use xlink:href="#ArialMT-30"/>
      </g>
     </g>
    </g>
    <g id="ytick_2">
     <g id="line2d_8">
      <g>
       <use style="fill:#262626;stroke:#262626;stroke-width:0.8;" x="41.96" xlink:href="#m516a2660da" y="30.406403"/>
      </g>
     </g>
     <g id="text_9">
      <!-- 1 -->
      <g style="fill:#262626;" transform="translate(28.842969 34.3432)scale(0.11 -0.11)">
       <use xlink:href="#ArialMT-31"/>
      </g>
     </g>
    </g>
    <g id="text_10">
     <!-- $\langle q_\mathsf{total} \rangle$ -->
     <defs>
      <path d="M 8.9375 31.34375 
L 22.703125 75.875 
L 31 75.875 
L 17.234375 31.34375 
L 31 -13.1875 
L 22.703125 -13.1875 
z
" id="DejaVuSans-27e8"/>
      <path d="M 41.703125 8.203125 
Q 38.09375 3.46875 33.171875 1.015625 
Q 28.265625 -1.421875 22.3125 -1.421875 
Q 14.015625 -1.421875 9.296875 4.171875 
Q 4.59375 9.765625 4.59375 19.578125 
Q 4.59375 27.484375 7.5 34.859375 
Q 10.40625 42.234375 15.828125 48.09375 
Q 19.34375 51.90625 23.90625 53.953125 
Q 28.46875 56 33.5 56 
Q 39.546875 56 43.453125 53.609375 
Q 47.359375 51.21875 49.125 46.390625 
L 50.6875 54.59375 
L 59.71875 54.59375 
L 45.125 -20.609375 
L 36.078125 -20.609375 
z
M 13.921875 20.90625 
Q 13.921875 13.671875 16.9375 9.890625 
Q 19.96875 6.109375 25.6875 6.109375 
Q 34.1875 6.109375 40.1875 14.234375 
Q 46.1875 22.359375 46.1875 33.984375 
Q 46.1875 41.015625 43.078125 44.75 
Q 39.984375 48.484375 34.1875 48.484375 
Q 29.9375 48.484375 26.3125 46.5 
Q 22.703125 44.53125 20.015625 40.71875 
Q 17.1875 36.71875 15.546875 31.34375 
Q 13.921875 25.984375 13.921875 20.90625 
z
" id="DejaVuSans-Oblique-71"/>
      <path d="M 18.3125 70.21875 
L 18.3125 54.6875 
L 36.8125 54.6875 
L 36.8125 47.703125 
L 18.3125 47.703125 
L 18.3125 18.015625 
Q 18.3125 11.328125 20.140625 9.421875 
Q 21.96875 7.515625 27.59375 7.515625 
L 36.8125 7.515625 
L 36.8125 0 
L 27.59375 0 
Q 17.1875 0 13.234375 3.875 
Q 9.28125 7.765625 9.28125 18.015625 
L 9.28125 47.703125 
L 2.6875 47.703125 
L 2.6875 54.6875 
L 9.28125 54.6875 
L 9.28125 70.21875 
z
" id="DejaVuSans-74"/>
      <path d="M 30.609375 48.390625 
Q 23.390625 48.390625 19.1875 42.75 
Q 14.984375 37.109375 14.984375 27.296875 
Q 14.984375 17.484375 19.15625 11.84375 
Q 23.34375 6.203125 30.609375 6.203125 
Q 37.796875 6.203125 41.984375 11.859375 
Q 46.1875 17.53125 46.1875 27.296875 
Q 46.1875 37.015625 41.984375 42.703125 
Q 37.796875 48.390625 30.609375 48.390625 
z
M 30.609375 56 
Q 42.328125 56 49.015625 48.375 
Q 55.71875 40.765625 55.71875 27.296875 
Q 55.71875 13.875 49.015625 6.21875 
Q 42.328125 -1.421875 30.609375 -1.421875 
Q 18.84375 -1.421875 12.171875 6.21875 
Q 5.515625 13.875 5.515625 27.296875 
Q 5.515625 40.765625 12.171875 48.375 
Q 18.84375 56 30.609375 56 
z
" id="DejaVuSans-6f"/>
      <path d="M 34.28125 27.484375 
Q 23.390625 27.484375 19.1875 25 
Q 14.984375 22.515625 14.984375 16.5 
Q 14.984375 11.71875 18.140625 8.90625 
Q 21.296875 6.109375 26.703125 6.109375 
Q 34.1875 6.109375 38.703125 11.40625 
Q 43.21875 16.703125 43.21875 25.484375 
L 43.21875 27.484375 
z
M 52.203125 31.203125 
L 52.203125 0 
L 43.21875 0 
L 43.21875 8.296875 
Q 40.140625 3.328125 35.546875 0.953125 
Q 30.953125 -1.421875 24.3125 -1.421875 
Q 15.921875 -1.421875 10.953125 3.296875 
Q 6 8.015625 6 15.921875 
Q 6 25.140625 12.171875 29.828125 
Q 18.359375 34.515625 30.609375 34.515625 
L 43.21875 34.515625 
L 43.21875 35.40625 
Q 43.21875 41.609375 39.140625 45 
Q 35.0625 48.390625 27.6875 48.390625 
Q 23 48.390625 18.546875 47.265625 
Q 14.109375 46.140625 10.015625 43.890625 
L 10.015625 52.203125 
Q 14.9375 54.109375 19.578125 55.046875 
Q 24.21875 56 28.609375 56 
Q 40.484375 56 46.34375 49.84375 
Q 52.203125 43.703125 52.203125 31.203125 
z
" id="DejaVuSans-61"/>
      <path d="M 9.421875 75.984375 
L 18.40625 75.984375 
L 18.40625 0 
L 9.421875 0 
z
" id="DejaVuSans-6c"/>
      <path d="M 30.078125 31.34375 
L 16.3125 -13.1875 
L 8.015625 -13.1875 
L 21.78125 31.34375 
L 8.015625 75.875 
L 16.3125 75.875 
z
" id="DejaVuSans-27e9"/>
     </defs>
     <g style="fill:#262626;" transform="translate(22.532969 81.475)rotate(-90)scale(0.11 -0.11)">
      <use transform="translate(0 0.125)" xlink:href="#DejaVuSans-27e8"/>
      <use transform="translate(39.013672 0.125)" xlink:href="#DejaVuSans-Oblique-71"/>
      <use transform="translate(102.490234 -16.28125)scale(0.7)" xlink:href="#DejaVuSans-74"/>
      <use transform="translate(129.936523 -16.28125)scale(0.7)" xlink:href="#DejaVuSans-6f"/>
      <use transform="translate(172.763672 -16.28125)scale(0.7)" xlink:href="#DejaVuSans-74"/>
      <use transform="translate(200.209961 -16.28125)scale(0.7)" xlink:href="#DejaVuSans-61"/>
      <use transform="translate(243.105469 -16.28125)scale(0.7)" xlink:href="#DejaVuSans-6c"/>
      <use transform="translate(265.288086 0.125)" xlink:href="#DejaVuSans-27e9"/>
     </g>
    </g>
   </g>
   <g id="PolyCollection_1">
    <defs>
     <path d="M 45.981818 -113.136364 
L 45.981818 -113.136364 
L 46.786182 -113.019147 
L 47.590545 -112.872256 
L 48.394909 -112.688397 
L 49.199273 -112.458602 
L 50.003636 -112.171924 
L 50.808 -111.815101 
L 51.612364 -111.372234 
L 52.416727 -110.824518 
L 53.221091 -110.150086 
L 54.025455 -109.324086 
L 54.829818 -108.319099 
L 55.634182 -107.106105 
L 56.438545 -105.656133 
L 57.242909 -103.942781 
L 58.047273 -101.945607 
L 58.851636 -99.65424 
L 59.656 -97.072712 
L 60.460364 -94.223182 
L 61.264727 -91.147999 
L 62.069091 -87.909051 
L 62.873455 -84.583861 
L 63.677818 -81.25867 
L 64.482182 -78.019722 
L 65.286545 -74.944539 
L 66.090909 -72.095009 
L 66.895273 -69.513481 
L 67.699636 -67.222114 
L 68.504 -65.22494 
L 69.308364 -63.511588 
L 70.112727 -62.061616 
L 70.917091 -60.848622 
L 71.721455 -59.843636 
L 72.525818 -59.017635 
L 73.330182 -58.343203 
L 74.134545 -57.795487 
L 74.938909 -57.35262 
L 75.743273 -56.995797 
L 76.547636 -56.709119 
L 77.352 -56.479325 
L 78.156364 -56.295465 
L 78.960727 -56.148575 
L 79.765091 -56.031357 
L 80.569455 -55.937907 
L 81.373818 -55.86346 
L 82.178182 -55.804188 
L 82.982545 -55.75702 
L 83.786909 -55.719497 
L 84.591273 -55.689658 
L 85.395636 -55.665933 
L 86.2 -55.647075 
L 87.004364 -55.632086 
L 87.808727 -55.620174 
L 88.613091 -55.610709 
L 89.417455 -55.603188 
L 90.221818 -55.597213 
L 91.026182 -55.592466 
L 91.830545 -55.588694 
L 92.634909 -55.585698 
L 93.439273 -55.583318 
L 94.243636 -55.581428 
L 95.048 -55.579926 
L 95.852364 -55.578733 
L 96.656727 -55.577785 
L 97.461091 -55.577032 
L 98.265455 -55.576434 
L 99.069818 -55.575959 
L 99.874182 -55.575582 
L 100.678545 -55.575282 
L 101.482909 -55.575044 
L 102.287273 -55.574855 
L 103.091636 -55.574705 
L 103.896 -55.574585 
L 104.700364 -55.57449 
L 105.504727 -55.574415 
L 106.309091 -55.574355 
L 107.113455 -55.574308 
L 107.917818 -55.57427 
L 108.722182 -55.57424 
L 109.526545 -55.574216 
L 110.330909 -55.574197 
L 111.135273 -55.574182 
L 111.939636 -55.57417 
L 112.744 -55.574161 
L 113.548364 -55.574153 
L 114.352727 -55.574147 
L 115.157091 -55.574143 
L 115.961455 -55.574139 
L 116.765818 -55.574136 
L 117.570182 -55.574134 
L 118.374545 -55.574132 
L 119.178909 -55.57413 
L 119.983273 -55.574129 
L 120.787636 -55.574128 
L 121.592 -55.574127 
L 122.396364 -55.574127 
L 123.200727 -55.574126 
L 124.005091 -55.574126 
L 124.809455 -55.574125 
L 125.613818 -55.574125 
L 126.418182 -55.574125 
L 126.418182 -55.574125 
L 126.418182 -45.463636 
L 125.613818 -47.246992 
L 124.809455 -48.760047 
L 124.005091 -50.028555 
L 123.200727 -51.081448 
L 122.396364 -51.948132 
L 121.592 -52.656662 
L 120.787636 -53.232656 
L 119.983273 -53.698773 
L 119.178909 -54.07458 
L 118.374545 -54.376674 
L 117.570182 -54.618931 
L 116.765818 -54.812829 
L 115.961455 -54.967784 
L 115.157091 -55.091465 
L 114.352727 -55.190087 
L 113.548364 -55.268666 
L 112.744 -55.331238 
L 111.939636 -55.381038 
L 111.135273 -55.420659 
L 110.330909 -55.452174 
L 109.526545 -55.477235 
L 108.722182 -55.497163 
L 107.917818 -55.513009 
L 107.113455 -55.52561 
L 106.309091 -55.535635 
L 105.504727 -55.543614 
L 104.700364 -55.549971 
L 103.896 -55.555044 
L 103.091636 -55.559101 
L 102.287273 -55.562359 
L 101.482909 -55.564991 
L 100.678545 -55.567136 
L 99.874182 -55.56891 
L 99.069818 -55.570406 
L 98.265455 -55.571704 
L 97.461091 -55.572873 
L 96.656727 -55.573976 
L 95.852364 -55.575071 
L 95.048 -55.576216 
L 94.243636 -55.577473 
L 93.439273 -55.578908 
L 92.634909 -55.580597 
L 91.830545 -55.582631 
L 91.026182 -55.585118 
L 90.221818 -55.58819 
L 89.417455 -55.59201 
L 88.613091 -55.596782 
L 87.808727 -55.602759 
L 87.004364 -55.610259 
L 86.2 -55.619679 
L 85.395636 -55.631519 
L 84.591273 -55.646406 
L 83.786909 -55.665129 
L 82.982545 -55.688674 
L 82.178182 -55.718282 
L 81.373818 -55.75551 
L 80.569455 -55.802304 
L 79.765091 -55.861105 
L 78.960727 -55.934959 
L 78.156364 -56.027665 
L 77.352 -56.14395 
L 76.547636 -56.289677 
L 75.743273 -56.472088 
L 74.938909 -56.700084 
L 74.134545 -56.984539 
L 73.330182 -57.338626 
L 72.525818 -57.778147 
L 71.721455 -58.321799 
L 70.917091 -58.991341 
L 70.112727 -59.811524 
L 69.308364 -60.809689 
L 68.504 -62.014824 
L 67.699636 -63.455937 
L 66.895273 -65.159576 
L 66.090909 -67.14646 
L 65.286545 -69.42739 
L 64.482182 -71.998916 
L 63.677818 -74.839565 
L 62.873455 -77.907713 
L 62.069091 -81.142115 
L 61.264727 -84.465699 
L 60.460364 -87.792388 
L 59.656 -91.035784 
L 58.851636 -94.117925 
L 58.047273 -96.976281 
L 57.242909 -99.567785 
L 56.438545 -101.869583 
L 55.634182 -103.877061 
L 54.829818 -105.600153 
L 54.025455 -107.059016 
L 53.221091 -108.279907 
L 52.416727 -109.291752 
L 51.612364 -110.123604 
L 50.808 -110.802957 
L 50.003636 -111.354765 
L 49.199273 -111.801003 
L 48.394909 -112.160583 
L 47.590545 -112.449501 
L 46.786182 -112.681109 
L 45.981818 -112.86643 
z
" id="m1aa5ba0528" style="stroke:#ffffff;stroke-opacity:0.7;"/>
    </defs>
    <g clip-path="url(#pa20be3d6a4)">
     <use style="fill:#b1400d;fill-opacity:0.7;stroke:#ffffff;stroke-opacity:0.7;" x="0" xlink:href="#m1aa5ba0528" y="144"/>
    </g>
   </g>
   <g id="line2d_9">
    <path clip-path="url(#pa20be3d6a4)" d="M 45.981818 30.863636 
L 46.786182 30.980853 
L 47.590545 31.127744 
L 48.394909 31.311603 
L 49.199273 31.541398 
L 50.003636 31.828076 
L 50.808 32.184899 
L 51.612364 32.627766 
L 52.416727 33.175482 
L 53.221091 33.849914 
L 54.025455 34.675914 
L 54.829818 35.680901 
L 55.634182 36.893895 
L 56.438545 38.343867 
L 57.242909 40.057219 
L 58.047273 42.054393 
L 58.851636 44.34576 
L 59.656 46.927288 
L 60.460364 49.776818 
L 61.264727 52.852001 
L 62.069091 56.090949 
L 62.873455 59.416139 
L 63.677818 62.74133 
L 64.482182 65.980278 
L 65.286545 69.055461 
L 66.090909 71.904991 
L 66.895273 74.486519 
L 67.699636 76.777886 
L 68.504 78.77506 
L 69.308364 80.488412 
L 70.112727 81.938384 
L 70.917091 83.151378 
L 71.721455 84.156364 
L 72.525818 84.982365 
L 73.330182 85.656797 
L 74.134545 86.204513 
L 74.938909 86.64738 
L 75.743273 87.004203 
L 76.547636 87.290881 
L 77.352 87.520675 
L 78.156364 87.704535 
L 78.960727 87.851425 
L 79.765091 87.968643 
L 80.569455 88.062093 
L 81.373818 88.13654 
L 82.178182 88.195812 
L 82.982545 88.24298 
L 83.786909 88.280503 
L 84.591273 88.310342 
L 85.395636 88.334067 
L 86.2 88.352925 
L 87.004364 88.367914 
L 87.808727 88.379826 
L 88.613091 88.389291 
L 89.417455 88.396812 
L 90.221818 88.402787 
L 91.026182 88.407534 
L 91.830545 88.411306 
L 92.634909 88.414302 
L 93.439273 88.416682 
L 94.243636 88.418572 
L 95.048 88.420074 
L 95.852364 88.421267 
L 96.656727 88.422215 
L 97.461091 88.422968 
L 98.265455 88.423566 
L 99.069818 88.424041 
L 99.874182 88.424418 
L 100.678545 88.424718 
L 101.482909 88.424956 
L 102.287273 88.425145 
L 103.091636 88.425295 
L 103.896 88.425415 
L 104.700364 88.42551 
L 105.504727 88.425585 
L 106.309091 88.425645 
L 107.113455 88.425692 
L 107.917818 88.42573 
L 108.722182 88.42576 
L 109.526545 88.425784 
L 110.330909 88.425803 
L 111.135273 88.425818 
L 111.939636 88.42583 
L 112.744 88.425839 
L 113.548364 88.425847 
L 114.352727 88.425853 
L 115.157091 88.425857 
L 115.961455 88.425861 
L 116.765818 88.425864 
L 117.570182 88.425866 
L 118.374545 88.425868 
L 119.178909 88.42587 
L 119.983273 88.425871 
L 120.787636 88.425872 
L 121.592 88.425873 
L 122.396364 88.425873 
L 123.200727 88.425874 
L 124.005091 88.425874 
L 124.809455 88.425875 
L 125.613818 88.425875 
L 126.418182 88.425875 
" style="fill:none;stroke:#333333;stroke-dasharray:1.5,2.475;stroke-dashoffset:0;stroke-width:1.5;"/>
   </g>
   <g id="line2d_10">
    <path clip-path="url(#pa20be3d6a4)" d="M 45.981818 31.13357 
L 46.786182 31.318891 
L 47.590545 31.550499 
L 48.394909 31.839417 
L 49.199273 32.198997 
L 50.003636 32.645235 
L 50.808 33.197043 
L 51.612364 33.876396 
L 52.416727 34.708248 
L 53.221091 35.720093 
L 54.025455 36.940984 
L 54.829818 38.399847 
L 55.634182 40.122939 
L 56.438545 42.130417 
L 57.242909 44.432215 
L 58.047273 47.023719 
L 58.851636 49.882075 
L 59.656 52.964216 
L 60.460364 56.207612 
L 61.264727 59.534301 
L 62.069091 62.857885 
L 62.873455 66.092287 
L 63.677818 69.160435 
L 64.482182 72.001084 
L 65.286545 74.57261 
L 66.090909 76.85354 
L 66.895273 78.840424 
L 67.699636 80.544063 
L 68.504 81.985176 
L 69.308364 83.190311 
L 70.112727 84.188476 
L 70.917091 85.008659 
L 71.721455 85.678201 
L 72.525818 86.221853 
L 73.330182 86.661374 
L 74.134545 87.015461 
L 74.938909 87.299916 
L 75.743273 87.527912 
L 76.547636 87.710323 
L 77.352 87.85605 
L 78.156364 87.972335 
L 78.960727 88.065041 
L 79.765091 88.138895 
L 80.569455 88.197696 
L 81.373818 88.24449 
L 82.178182 88.281718 
L 82.982545 88.311326 
L 83.786909 88.334871 
L 84.591273 88.353594 
L 85.395636 88.368481 
L 86.2 88.380321 
L 87.004364 88.389741 
L 87.808727 88.397241 
L 88.613091 88.403218 
L 89.417455 88.40799 
L 90.221818 88.41181 
L 91.026182 88.414882 
L 91.830545 88.417369 
L 92.634909 88.419403 
L 93.439273 88.421092 
L 94.243636 88.422527 
L 95.048 88.423784 
L 95.852364 88.424929 
L 96.656727 88.426024 
L 97.461091 88.427127 
L 98.265455 88.428296 
L 99.069818 88.429594 
L 99.874182 88.43109 
L 100.678545 88.432864 
L 101.482909 88.435009 
L 102.287273 88.437641 
L 103.091636 88.440899 
L 103.896 88.444956 
L 104.700364 88.450029 
L 105.504727 88.456386 
L 106.309091 88.464365 
L 107.113455 88.47439 
L 107.917818 88.486991 
L 108.722182 88.502837 
L 109.526545 88.522765 
L 110.330909 88.547826 
L 111.135273 88.579341 
L 111.939636 88.618962 
L 112.744 88.668762 
L 113.548364 88.731334 
L 114.352727 88.809913 
L 115.157091 88.908535 
L 115.961455 89.032216 
L 116.765818 89.187171 
L 117.570182 89.381069 
L 118.374545 89.623326 
L 119.178909 89.92542 
L 119.983273 90.301227 
L 120.787636 90.767344 
L 121.592 91.343338 
L 122.396364 92.051868 
L 123.200727 92.918552 
L 124.005091 93.971445 
L 124.809455 95.239953 
L 125.613818 96.753008 
L 126.418182 98.536364 
" style="fill:none;stroke:#333333;stroke-linecap:round;stroke-width:1.5;"/>
   </g>
   <g id="patch_3">
    <path d="M 41.96 101.92 
L 41.96 27.48 
" style="fill:none;stroke:#262626;stroke-linecap:square;stroke-linejoin:miter;stroke-width:0.8;"/>
   </g>
   <g id="patch_4">
    <path d="M 41.96 101.92 
L 130.44 101.92 
" style="fill:none;stroke:#262626;stroke-linecap:square;stroke-linejoin:miter;stroke-width:0.8;"/>
   </g>
   <g id="text_11">
    <!-- $\Delta$ area : 0.29 -->
    <defs>
     <path d="M 34.1875 63.1875 
L 14.15625 8.203125 
L 54.25 8.203125 
z
M 0.78125 0 
L 28.609375 72.90625 
L 39.796875 72.90625 
L 67.578125 0 
z
" id="DejaVuSans-394"/>
     <path id="ArialMT-20"/>
     <path d="M 40.4375 6.390625 
Q 35.546875 2.25 31.03125 0.53125 
Q 26.515625 -1.171875 21.34375 -1.171875 
Q 12.796875 -1.171875 8.203125 3 
Q 3.609375 7.171875 3.609375 13.671875 
Q 3.609375 17.484375 5.34375 20.625 
Q 7.078125 23.78125 9.890625 25.6875 
Q 12.703125 27.59375 16.21875 28.5625 
Q 18.796875 29.25 24.03125 29.890625 
Q 34.671875 31.15625 39.703125 32.90625 
Q 39.75 34.71875 39.75 35.203125 
Q 39.75 40.578125 37.25 42.78125 
Q 33.890625 45.75 27.25 45.75 
Q 21.046875 45.75 18.09375 43.578125 
Q 15.140625 41.40625 13.71875 35.890625 
L 5.125 37.0625 
Q 6.296875 42.578125 8.984375 45.96875 
Q 11.671875 49.359375 16.75 51.1875 
Q 21.828125 53.03125 28.515625 53.03125 
Q 35.15625 53.03125 39.296875 51.46875 
Q 43.453125 49.90625 45.40625 47.53125 
Q 47.359375 45.171875 48.140625 41.546875 
Q 48.578125 39.3125 48.578125 33.453125 
L 48.578125 21.734375 
Q 48.578125 9.46875 49.140625 6.21875 
Q 49.703125 2.984375 51.375 0 
L 42.1875 0 
Q 40.828125 2.734375 40.4375 6.390625 
z
M 39.703125 26.03125 
Q 34.90625 24.078125 25.34375 22.703125 
Q 19.921875 21.921875 17.671875 20.9375 
Q 15.4375 19.96875 14.203125 18.09375 
Q 12.984375 16.21875 12.984375 13.921875 
Q 12.984375 10.40625 15.640625 8.0625 
Q 18.3125 5.71875 23.4375 5.71875 
Q 28.515625 5.71875 32.46875 7.9375 
Q 36.421875 10.15625 38.28125 14.015625 
Q 39.703125 17 39.703125 22.796875 
z
" id="ArialMT-61"/>
     <path d="M 6.5 0 
L 6.5 51.859375 
L 14.40625 51.859375 
L 14.40625 44 
Q 17.4375 49.515625 20 51.265625 
Q 22.5625 53.03125 25.640625 53.03125 
Q 30.078125 53.03125 34.671875 50.203125 
L 31.640625 42.046875 
Q 28.421875 43.953125 25.203125 43.953125 
Q 22.3125 43.953125 20.015625 42.21875 
Q 17.71875 40.484375 16.75 37.40625 
Q 15.28125 32.71875 15.28125 27.15625 
L 15.28125 0 
z
" id="ArialMT-72"/>
     <path d="M 42.09375 16.703125 
L 51.171875 15.578125 
Q 49.03125 7.625 43.21875 3.21875 
Q 37.40625 -1.171875 28.375 -1.171875 
Q 17 -1.171875 10.328125 5.828125 
Q 3.65625 12.84375 3.65625 25.484375 
Q 3.65625 38.578125 10.390625 45.796875 
Q 17.140625 53.03125 27.875 53.03125 
Q 38.28125 53.03125 44.875 45.953125 
Q 51.46875 38.875 51.46875 26.03125 
Q 51.46875 25.25 51.421875 23.6875 
L 12.75 23.6875 
Q 13.234375 15.140625 17.578125 10.59375 
Q 21.921875 6.0625 28.421875 6.0625 
Q 33.25 6.0625 36.671875 8.59375 
Q 40.09375 11.140625 42.09375 16.703125 
z
M 13.234375 30.90625 
L 42.1875 30.90625 
Q 41.609375 37.453125 38.875 40.71875 
Q 34.671875 45.796875 27.984375 45.796875 
Q 21.921875 45.796875 17.796875 41.75 
Q 13.671875 37.703125 13.234375 30.90625 
z
" id="ArialMT-65"/>
     <path d="M 9.03125 41.84375 
L 9.03125 51.859375 
L 19.046875 51.859375 
L 19.046875 41.84375 
z
M 9.03125 0 
L 9.03125 10.015625 
L 19.046875 10.015625 
L 19.046875 0 
z
" id="ArialMT-3a"/>
     <path d="M 9.078125 0 
L 9.078125 10.015625 
L 19.09375 10.015625 
L 19.09375 0 
z
" id="ArialMT-2e"/>
     <path d="M 5.46875 16.546875 
L 13.921875 17.328125 
Q 14.984375 11.375 18.015625 8.6875 
Q 21.046875 6 25.78125 6 
Q 29.828125 6 32.875 7.859375 
Q 35.9375 9.71875 37.890625 12.8125 
Q 39.84375 15.921875 41.15625 21.1875 
Q 42.484375 26.46875 42.484375 31.9375 
Q 42.484375 32.515625 42.4375 33.6875 
Q 39.796875 29.5 35.234375 26.875 
Q 30.671875 24.265625 25.34375 24.265625 
Q 16.453125 24.265625 10.296875 30.703125 
Q 4.15625 37.15625 4.15625 47.703125 
Q 4.15625 58.59375 10.578125 65.234375 
Q 17 71.875 26.65625 71.875 
Q 33.640625 71.875 39.421875 68.109375 
Q 45.21875 64.359375 48.21875 57.390625 
Q 51.21875 50.4375 51.21875 37.25 
Q 51.21875 23.53125 48.234375 15.40625 
Q 45.265625 7.28125 39.375 3.03125 
Q 33.5 -1.21875 25.59375 -1.21875 
Q 17.1875 -1.21875 11.859375 3.4375 
Q 6.546875 8.109375 5.46875 16.546875 
z
M 41.453125 48.140625 
Q 41.453125 55.71875 37.421875 60.15625 
Q 33.40625 64.59375 27.734375 64.59375 
Q 21.875 64.59375 17.53125 59.8125 
Q 13.1875 55.03125 13.1875 47.40625 
Q 13.1875 40.578125 17.3125 36.296875 
Q 21.4375 32.03125 27.484375 32.03125 
Q 33.59375 32.03125 37.515625 36.296875 
Q 41.453125 40.578125 41.453125 48.140625 
z
" id="ArialMT-39"/>
    </defs>
    <g style="fill:#262626;" transform="translate(48.25 21.48)scale(0.132 -0.132)">
     <use transform="translate(0 0.09375)" xlink:href="#DejaVuSans-394"/>
     <use transform="translate(68.408203 0.09375)" xlink:href="#ArialMT-20"/>
     <use transform="translate(96.191406 0.09375)" xlink:href="#ArialMT-61"/>
     <use transform="translate(151.806641 0.09375)" xlink:href="#ArialMT-72"/>
     <use transform="translate(185.107422 0.09375)" xlink:href="#ArialMT-65"/>
     <use transform="translate(240.722656 0.09375)" xlink:href="#ArialMT-61"/>
     <use transform="translate(296.337891 0.09375)" xlink:href="#ArialMT-20"/>
     <use transform="translate(324.121094 0.09375)" xlink:href="#ArialMT-3a"/>
     <use transform="translate(351.904297 0.09375)" xlink:href="#ArialMT-20"/>
     <use transform="translate(379.6875 0.09375)" xlink:href="#ArialMT-30"/>
     <use transform="translate(435.302734 0.09375)" xlink:href="#ArialMT-2e"/>
     <use transform="translate(463.085938 0.09375)" xlink:href="#ArialMT-32"/>
     <use transform="translate(518.701172 0.09375)" xlink:href="#ArialMT-39"/>
    </g>
   </g>
  </g>
 </g>
 <defs>
  <clipPath id="pa20be3d6a4">
   <rect height="74.44" width="88.48" x="41.96" y="27.48"/>
  </clipPath>
 </defs>
</svg>
