<?xml version="1.0" encoding="utf-8" standalone="no"?>
<!DOCTYPE svg PUBLIC "-//W3C//DTD SVG 1.1//EN"
  "http://www.w3.org/Graphics/SVG/1.1/DTD/svg11.dtd">
<!-- Created with matplotlib (http://matplotlib.org/) -->
<svg height="144pt" version="1.1" viewBox="0 0 144 144" width="144pt" xmlns="http://www.w3.org/2000/svg" xmlns:xlink="http://www.w3.org/1999/xlink">
 <defs>
  <style type="text/css">
*{stroke-linecap:butt;stroke-linejoin:round;}
  </style>
 </defs>
 <g id="figure_1">
  <g id="patch_1">
   <path d="M 0 144 
L 144 144 
L 144 0 
L 0 0 
z
" style="fill:#ffffff;"/>
  </g>
  <g id="axes_1">
   <g id="patch_2">
    <path d="M 32.525 101.92 
L 130.44 101.92 
L 130.44 13.56 
L 32.525 13.56 
z
" style="fill:#ffffff;"/>
   </g>
   <g id="matplotlib.axis_1">
    <g id="xtick_1">
     <g id="line2d_1">
      <defs>
       <path d="M 0 0 
L 0 3.5 
" id="mc33cfc005c" style="stroke:#262626;stroke-width:0.8;"/>
      </defs>
      <g>
       <use style="fill:#262626;stroke:#262626;stroke-width:0.8;" x="36.975682" xlink:href="#mc33cfc005c" y="101.92"/>
      </g>
     </g>
     <g id="text_1">
      <!-- 2 -->
      <defs>
       <path d="M 50.34375 8.453125 
L 50.34375 0 
L 3.03125 0 
Q 2.9375 3.171875 4.046875 6.109375 
Q 5.859375 10.9375 9.828125 15.625 
Q 13.8125 20.3125 21.34375 26.46875 
Q 33.015625 36.03125 37.109375 41.625 
Q 41.21875 47.21875 41.21875 52.203125 
Q 41.21875 57.421875 37.46875 61 
Q 33.734375 64.59375 27.734375 64.59375 
Q 21.390625 64.59375 17.578125 60.78125 
Q 13.765625 56.984375 13.71875 50.25 
L 4.6875 51.171875 
Q 5.609375 61.28125 11.65625 66.578125 
Q 17.71875 71.875 27.9375 71.875 
Q 38.234375 71.875 44.234375 66.15625 
Q 50.25 60.453125 50.25 52 
Q 50.25 47.703125 48.484375 43.546875 
Q 46.734375 39.40625 42.65625 34.8125 
Q 38.578125 30.21875 29.109375 22.21875 
Q 21.1875 15.578125 18.9375 13.203125 
Q 16.703125 10.84375 15.234375 8.453125 
z
" id="ArialMT-32"/>
      </defs>
      <g style="fill:#262626;" transform="translate(33.917166 116.793594)scale(0.11 -0.11)">
       <use xlink:href="#ArialMT-32"/>
      </g>
     </g>
    </g>
    <g id="xtick_2">
     <g id="line2d_2">
      <g>
       <use style="fill:#262626;stroke:#262626;stroke-width:0.8;" x="54.778409" xlink:href="#mc33cfc005c" y="101.92"/>
      </g>
     </g>
     <g id="text_2">
      <!-- 4 -->
      <defs>
       <path d="M 32.328125 0 
L 32.328125 17.140625 
L 1.265625 17.140625 
L 1.265625 25.203125 
L 33.9375 71.578125 
L 41.109375 71.578125 
L 41.109375 25.203125 
L 50.78125 25.203125 
L 50.78125 17.140625 
L 41.109375 17.140625 
L 41.109375 0 
z
M 32.328125 25.203125 
L 32.328125 57.46875 
L 9.90625 25.203125 
z
" id="ArialMT-34"/>
      </defs>
      <g style="fill:#262626;" transform="translate(51.719893 116.793594)scale(0.11 -0.11)">
       <use xlink:href="#ArialMT-34"/>
      </g>
     </g>
    </g>
    <g id="xtick_3">
     <g id="line2d_3">
      <g>
       <use style="fill:#262626;stroke:#262626;stroke-width:0.8;" x="72.581136" xlink:href="#mc33cfc005c" y="101.92"/>
      </g>
     </g>
     <g id="text_3">
      <!-- 6 -->
      <defs>
       <path d="M 49.75 54.046875 
L 41.015625 53.375 
Q 39.84375 58.546875 37.703125 60.890625 
Q 34.125 64.65625 28.90625 64.65625 
Q 24.703125 64.65625 21.53125 62.3125 
Q 17.390625 59.28125 14.984375 53.46875 
Q 12.59375 47.65625 12.5 36.921875 
Q 15.671875 41.75 20.265625 44.09375 
Q 24.859375 46.4375 29.890625 46.4375 
Q 38.671875 46.4375 44.84375 39.96875 
Q 51.03125 33.5 51.03125 23.25 
Q 51.03125 16.5 48.125 10.71875 
Q 45.21875 4.9375 40.140625 1.859375 
Q 35.0625 -1.21875 28.609375 -1.21875 
Q 17.625 -1.21875 10.6875 6.859375 
Q 3.765625 14.9375 3.765625 33.5 
Q 3.765625 54.25 11.421875 63.671875 
Q 18.109375 71.875 29.4375 71.875 
Q 37.890625 71.875 43.28125 67.140625 
Q 48.6875 62.40625 49.75 54.046875 
z
M 13.875 23.1875 
Q 13.875 18.65625 15.796875 14.5 
Q 17.71875 10.359375 21.1875 8.171875 
Q 24.65625 6 28.46875 6 
Q 34.03125 6 38.03125 10.484375 
Q 42.046875 14.984375 42.046875 22.703125 
Q 42.046875 30.125 38.078125 34.390625 
Q 34.125 38.671875 28.125 38.671875 
Q 22.171875 38.671875 18.015625 34.390625 
Q 13.875 30.125 13.875 23.1875 
z
" id="ArialMT-36"/>
      </defs>
      <g style="fill:#262626;" transform="translate(69.522621 116.793594)scale(0.11 -0.11)">
       <use xlink:href="#ArialMT-36"/>
      </g>
     </g>
    </g>
    <g id="xtick_4">
     <g id="line2d_4">
      <g>
       <use style="fill:#262626;stroke:#262626;stroke-width:0.8;" x="90.383864" xlink:href="#mc33cfc005c" y="101.92"/>
      </g>
     </g>
     <g id="text_4">
      <!-- 8 -->
      <defs>
       <path d="M 17.671875 38.8125 
Q 12.203125 40.828125 9.5625 44.53125 
Q 6.9375 48.25 6.9375 53.421875 
Q 6.9375 61.234375 12.546875 66.546875 
Q 18.171875 71.875 27.484375 71.875 
Q 36.859375 71.875 42.578125 66.421875 
Q 48.296875 60.984375 48.296875 53.171875 
Q 48.296875 48.1875 45.671875 44.5 
Q 43.0625 40.828125 37.75 38.8125 
Q 44.34375 36.671875 47.78125 31.875 
Q 51.21875 27.09375 51.21875 20.453125 
Q 51.21875 11.28125 44.71875 5.03125 
Q 38.234375 -1.21875 27.640625 -1.21875 
Q 17.046875 -1.21875 10.546875 5.046875 
Q 4.046875 11.328125 4.046875 20.703125 
Q 4.046875 27.6875 7.59375 32.390625 
Q 11.140625 37.109375 17.671875 38.8125 
z
M 15.921875 53.71875 
Q 15.921875 48.640625 19.1875 45.40625 
Q 22.46875 42.1875 27.6875 42.1875 
Q 32.765625 42.1875 36.015625 45.375 
Q 39.265625 48.578125 39.265625 53.21875 
Q 39.265625 58.0625 35.90625 61.359375 
Q 32.5625 64.65625 27.59375 64.65625 
Q 22.5625 64.65625 19.234375 61.421875 
Q 15.921875 58.203125 15.921875 53.71875 
z
M 13.09375 20.65625 
Q 13.09375 16.890625 14.875 13.375 
Q 16.65625 9.859375 20.171875 7.921875 
Q 23.6875 6 27.734375 6 
Q 34.03125 6 38.125 10.046875 
Q 42.234375 14.109375 42.234375 20.359375 
Q 42.234375 26.703125 38.015625 30.859375 
Q 33.796875 35.015625 27.4375 35.015625 
Q 21.234375 35.015625 17.15625 30.90625 
Q 13.09375 26.8125 13.09375 20.65625 
z
" id="ArialMT-38"/>
      </defs>
      <g style="fill:#262626;" transform="translate(87.325348 116.793594)scale(0.11 -0.11)">
       <use xlink:href="#ArialMT-38"/>
      </g>
     </g>
    </g>
    <g id="xtick_5">
     <g id="line2d_5">
      <g>
       <use style="fill:#262626;stroke:#262626;stroke-width:0.8;" x="108.186591" xlink:href="#mc33cfc005c" y="101.92"/>
      </g>
     </g>
     <g id="text_5">
      <!-- 10 -->
      <defs>
       <path d="M 37.25 0 
L 28.46875 0 
L 28.46875 56 
Q 25.296875 52.984375 20.140625 49.953125 
Q 14.984375 46.921875 10.890625 45.40625 
L 10.890625 53.90625 
Q 18.265625 57.375 23.78125 62.296875 
Q 29.296875 67.234375 31.59375 71.875 
L 37.25 71.875 
z
" id="ArialMT-31"/>
       <path d="M 4.15625 35.296875 
Q 4.15625 48 6.765625 55.734375 
Q 9.375 63.484375 14.515625 67.671875 
Q 19.671875 71.875 27.484375 71.875 
Q 33.25 71.875 37.59375 69.546875 
Q 41.9375 67.234375 44.765625 62.859375 
Q 47.609375 58.5 49.21875 52.21875 
Q 50.828125 45.953125 50.828125 35.296875 
Q 50.828125 22.703125 48.234375 14.96875 
Q 45.65625 7.234375 40.5 3 
Q 35.359375 -1.21875 27.484375 -1.21875 
Q 17.140625 -1.21875 11.234375 6.203125 
Q 4.15625 15.140625 4.15625 35.296875 
z
M 13.1875 35.296875 
Q 13.1875 17.671875 17.3125 11.828125 
Q 21.4375 6 27.484375 6 
Q 33.546875 6 37.671875 11.859375 
Q 41.796875 17.71875 41.796875 35.296875 
Q 41.796875 52.984375 37.671875 58.78125 
Q 33.546875 64.59375 27.390625 64.59375 
Q 21.34375 64.59375 17.71875 59.46875 
Q 13.1875 52.9375 13.1875 35.296875 
z
" id="ArialMT-30"/>
      </defs>
      <g style="fill:#262626;" transform="translate(102.06956 116.793594)scale(0.11 -0.11)">
       <use xlink:href="#ArialMT-31"/>
       <use x="55.615234" xlink:href="#ArialMT-30"/>
      </g>
     </g>
    </g>
    <g id="xtick_6">
     <g id="line2d_6">
      <g>
       <use style="fill:#262626;stroke:#262626;stroke-width:0.8;" x="125.989318" xlink:href="#mc33cfc005c" y="101.92"/>
      </g>
     </g>
     <g id="text_6">
      <!-- 12 -->
      <g style="fill:#262626;" transform="translate(119.872287 116.793594)scale(0.11 -0.11)">
       <use xlink:href="#ArialMT-31"/>
       <use x="55.615234" xlink:href="#ArialMT-32"/>
      </g>
     </g>
    </g>
    <g id="text_7">
     <!-- pH -->
     <defs>
      <path d="M 6.59375 -19.875 
L 6.59375 51.859375 
L 14.59375 51.859375 
L 14.59375 45.125 
Q 17.4375 49.078125 21 51.046875 
Q 24.5625 53.03125 29.640625 53.03125 
Q 36.28125 53.03125 41.359375 49.609375 
Q 46.4375 46.1875 49.015625 39.953125 
Q 51.609375 33.734375 51.609375 26.3125 
Q 51.609375 18.359375 48.75 11.984375 
Q 45.90625 5.609375 40.453125 2.21875 
Q 35.015625 -1.171875 29 -1.171875 
Q 24.609375 -1.171875 21.109375 0.6875 
Q 17.625 2.546875 15.375 5.375 
L 15.375 -19.875 
z
M 14.546875 25.640625 
Q 14.546875 15.625 18.59375 10.84375 
Q 22.65625 6.0625 28.421875 6.0625 
Q 34.28125 6.0625 38.453125 11.015625 
Q 42.625 15.96875 42.625 26.375 
Q 42.625 36.28125 38.546875 41.203125 
Q 34.46875 46.140625 28.8125 46.140625 
Q 23.1875 46.140625 18.859375 40.890625 
Q 14.546875 35.640625 14.546875 25.640625 
z
" id="ArialMT-70"/>
      <path d="M 8.015625 0 
L 8.015625 71.578125 
L 17.484375 71.578125 
L 17.484375 42.1875 
L 54.6875 42.1875 
L 54.6875 71.578125 
L 64.15625 71.578125 
L 64.15625 0 
L 54.6875 0 
L 54.6875 33.734375 
L 17.484375 33.734375 
L 17.484375 0 
z
" id="ArialMT-48"/>
     </defs>
     <g style="fill:#262626;" transform="translate(74.451953 130.853437)scale(0.11 -0.11)">
      <use xlink:href="#ArialMT-70"/>
      <use x="55.615234" xlink:href="#ArialMT-48"/>
     </g>
    </g>
   </g>
   <g id="matplotlib.axis_2">
    <g id="ytick_1">
     <g id="line2d_7">
      <defs>
       <path d="M 0 0 
L -3.5 0 
" id="mb2f7827cd6" style="stroke:#262626;stroke-width:0.8;"/>
      </defs>
      <g>
       <use style="fill:#262626;stroke:#262626;stroke-width:0.8;" x="32.525" xlink:href="#mb2f7827cd6" y="97.903636"/>
      </g>
     </g>
    </g>
    <g id="ytick_2">
     <g id="line2d_8">
      <g>
       <use style="fill:#262626;stroke:#262626;stroke-width:0.8;" x="32.525" xlink:href="#mb2f7827cd6" y="17.576364"/>
      </g>
     </g>
    </g>
    <g id="text_8">
     <!-- Population -->
     <defs>
      <path d="M 7.71875 0 
L 7.71875 71.578125 
L 34.71875 71.578125 
Q 41.84375 71.578125 45.609375 70.90625 
Q 50.875 70.015625 54.4375 67.546875 
Q 58.015625 65.09375 60.1875 60.640625 
Q 62.359375 56.203125 62.359375 50.875 
Q 62.359375 41.75 56.546875 35.421875 
Q 50.734375 29.109375 35.546875 29.109375 
L 17.1875 29.109375 
L 17.1875 0 
z
M 17.1875 37.546875 
L 35.6875 37.546875 
Q 44.875 37.546875 48.734375 40.96875 
Q 52.59375 44.390625 52.59375 50.59375 
Q 52.59375 55.078125 50.3125 58.265625 
Q 48.046875 61.46875 44.34375 62.5 
Q 41.9375 63.140625 35.5 63.140625 
L 17.1875 63.140625 
z
" id="ArialMT-50"/>
      <path d="M 3.328125 25.921875 
Q 3.328125 40.328125 11.328125 47.265625 
Q 18.015625 53.03125 27.640625 53.03125 
Q 38.328125 53.03125 45.109375 46.015625 
Q 51.90625 39.015625 51.90625 26.65625 
Q 51.90625 16.65625 48.90625 10.90625 
Q 45.90625 5.171875 40.15625 2 
Q 34.421875 -1.171875 27.640625 -1.171875 
Q 16.75 -1.171875 10.03125 5.8125 
Q 3.328125 12.796875 3.328125 25.921875 
z
M 12.359375 25.921875 
Q 12.359375 15.96875 16.703125 11.015625 
Q 21.046875 6.0625 27.640625 6.0625 
Q 34.1875 6.0625 38.53125 11.03125 
Q 42.875 16.015625 42.875 26.21875 
Q 42.875 35.84375 38.5 40.796875 
Q 34.125 45.75 27.640625 45.75 
Q 21.046875 45.75 16.703125 40.8125 
Q 12.359375 35.890625 12.359375 25.921875 
z
" id="ArialMT-6f"/>
      <path d="M 40.578125 0 
L 40.578125 7.625 
Q 34.515625 -1.171875 24.125 -1.171875 
Q 19.53125 -1.171875 15.546875 0.578125 
Q 11.578125 2.34375 9.640625 5 
Q 7.71875 7.671875 6.9375 11.53125 
Q 6.390625 14.109375 6.390625 19.734375 
L 6.390625 51.859375 
L 15.1875 51.859375 
L 15.1875 23.09375 
Q 15.1875 16.21875 15.71875 13.8125 
Q 16.546875 10.359375 19.234375 8.375 
Q 21.921875 6.390625 25.875 6.390625 
Q 29.828125 6.390625 33.296875 8.421875 
Q 36.765625 10.453125 38.203125 13.9375 
Q 39.65625 17.4375 39.65625 24.078125 
L 39.65625 51.859375 
L 48.4375 51.859375 
L 48.4375 0 
z
" id="ArialMT-75"/>
      <path d="M 6.390625 0 
L 6.390625 71.578125 
L 15.1875 71.578125 
L 15.1875 0 
z
" id="ArialMT-6c"/>
      <path d="M 40.4375 6.390625 
Q 35.546875 2.25 31.03125 0.53125 
Q 26.515625 -1.171875 21.34375 -1.171875 
Q 12.796875 -1.171875 8.203125 3 
Q 3.609375 7.171875 3.609375 13.671875 
Q 3.609375 17.484375 5.34375 20.625 
Q 7.078125 23.78125 9.890625 25.6875 
Q 12.703125 27.59375 16.21875 28.5625 
Q 18.796875 29.25 24.03125 29.890625 
Q 34.671875 31.15625 39.703125 32.90625 
Q 39.75 34.71875 39.75 35.203125 
Q 39.75 40.578125 37.25 42.78125 
Q 33.890625 45.75 27.25 45.75 
Q 21.046875 45.75 18.09375 43.578125 
Q 15.140625 41.40625 13.71875 35.890625 
L 5.125 37.0625 
Q 6.296875 42.578125 8.984375 45.96875 
Q 11.671875 49.359375 16.75 51.1875 
Q 21.828125 53.03125 28.515625 53.03125 
Q 35.15625 53.03125 39.296875 51.46875 
Q 43.453125 49.90625 45.40625 47.53125 
Q 47.359375 45.171875 48.140625 41.546875 
Q 48.578125 39.3125 48.578125 33.453125 
L 48.578125 21.734375 
Q 48.578125 9.46875 49.140625 6.21875 
Q 49.703125 2.984375 51.375 0 
L 42.1875 0 
Q 40.828125 2.734375 40.4375 6.390625 
z
M 39.703125 26.03125 
Q 34.90625 24.078125 25.34375 22.703125 
Q 19.921875 21.921875 17.671875 20.9375 
Q 15.4375 19.96875 14.203125 18.09375 
Q 12.984375 16.21875 12.984375 13.921875 
Q 12.984375 10.40625 15.640625 8.0625 
Q 18.3125 5.71875 23.4375 5.71875 
Q 28.515625 5.71875 32.46875 7.9375 
Q 36.421875 10.15625 38.28125 14.015625 
Q 39.703125 17 39.703125 22.796875 
z
" id="ArialMT-61"/>
      <path d="M 25.78125 7.859375 
L 27.046875 0.09375 
Q 23.34375 -0.6875 20.40625 -0.6875 
Q 15.625 -0.6875 12.984375 0.828125 
Q 10.359375 2.34375 9.28125 4.8125 
Q 8.203125 7.28125 8.203125 15.1875 
L 8.203125 45.015625 
L 1.765625 45.015625 
L 1.765625 51.859375 
L 8.203125 51.859375 
L 8.203125 64.703125 
L 16.9375 69.96875 
L 16.9375 51.859375 
L 25.78125 51.859375 
L 25.78125 45.015625 
L 16.9375 45.015625 
L 16.9375 14.703125 
Q 16.9375 10.9375 17.40625 9.859375 
Q 17.875 8.796875 18.921875 8.15625 
Q 19.96875 7.515625 21.921875 7.515625 
Q 23.390625 7.515625 25.78125 7.859375 
z
" id="ArialMT-74"/>
      <path d="M 6.640625 61.46875 
L 6.640625 71.578125 
L 15.4375 71.578125 
L 15.4375 61.46875 
z
M 6.640625 0 
L 6.640625 51.859375 
L 15.4375 51.859375 
L 15.4375 0 
z
" id="ArialMT-69"/>
      <path d="M 6.59375 0 
L 6.59375 51.859375 
L 14.5 51.859375 
L 14.5 44.484375 
Q 20.21875 53.03125 31 53.03125 
Q 35.6875 53.03125 39.625 51.34375 
Q 43.5625 49.65625 45.515625 46.921875 
Q 47.46875 44.1875 48.25 40.4375 
Q 48.734375 37.984375 48.734375 31.890625 
L 48.734375 0 
L 39.9375 0 
L 39.9375 31.546875 
Q 39.9375 36.921875 38.90625 39.578125 
Q 37.890625 42.234375 35.28125 43.8125 
Q 32.671875 45.40625 29.15625 45.40625 
Q 23.53125 45.40625 19.453125 41.84375 
Q 15.375 38.28125 15.375 28.328125 
L 15.375 0 
z
" id="ArialMT-6e"/>
     </defs>
     <g style="fill:#262626;" transform="translate(19.33875 83.731797)rotate(-90)scale(0.11 -0.11)">
      <use xlink:href="#ArialMT-50"/>
      <use x="66.699219" xlink:href="#ArialMT-6f"/>
      <use x="122.314453" xlink:href="#ArialMT-70"/>
      <use x="177.929688" xlink:href="#ArialMT-75"/>
      <use x="233.544922" xlink:href="#ArialMT-6c"/>
      <use x="255.761719" xlink:href="#ArialMT-61"/>
      <use x="311.376953" xlink:href="#ArialMT-74"/>
      <use x="339.160156" xlink:href="#ArialMT-69"/>
      <use x="361.376953" xlink:href="#ArialMT-6f"/>
      <use x="416.992188" xlink:href="#ArialMT-6e"/>
     </g>
    </g>
   </g>
   <g id="patch_3">
    <path d="M 32.525 101.92 
L 32.525 13.56 
" style="fill:none;stroke:#262626;stroke-linecap:square;stroke-linejoin:miter;stroke-width:0.8;"/>
   </g>
   <g id="patch_4">
    <path d="M 32.525 101.92 
L 130.44 101.92 
" style="fill:none;stroke:#262626;stroke-linecap:square;stroke-linejoin:miter;stroke-width:0.8;"/>
   </g>
   <g id="line2d_9">
    <path clip-path="url(#pcaa110a255)" d="M 36.975682 97.903636 
L 37.865818 97.903636 
L 38.755955 97.903636 
L 39.646091 97.903636 
L 40.536227 97.903636 
L 41.426364 97.903636 
L 42.3165 97.903636 
L 43.206636 97.903636 
L 44.096773 97.903636 
L 44.986909 97.903636 
L 45.877045 97.903636 
L 46.767182 97.903636 
L 47.657318 97.903636 
L 48.547455 97.903636 
L 49.437591 97.903636 
L 50.327727 97.903636 
L 51.217864 97.903636 
L 52.108 97.903636 
L 52.998136 97.903636 
L 53.888273 97.903636 
L 54.778409 97.903635 
L 55.668545 97.903635 
L 56.558682 97.903634 
L 57.448818 97.903634 
L 58.338955 97.903633 
L 59.229091 97.903632 
L 60.119227 97.903631 
L 61.009364 97.90363 
L 61.8995 97.903628 
L 62.789636 97.903625 
L 63.679773 97.903622 
L 64.569909 97.903619 
L 65.460045 97.903614 
L 66.350182 97.903608 
L 67.240318 97.903601 
L 68.130455 97.903592 
L 69.020591 97.90358 
L 69.910727 97.903565 
L 70.800864 97.903547 
L 71.691 97.903523 
L 72.581136 97.903494 
L 73.471273 97.903457 
L 74.361409 97.90341 
L 75.251545 97.903352 
L 76.141682 97.903278 
L 77.031818 97.903185 
L 77.921955 97.903068 
L 78.812091 97.902921 
L 79.702227 97.902735 
L 80.592364 97.902502 
L 81.4825 97.902208 
L 82.372636 97.901839 
L 83.262773 97.901373 
L 84.152909 97.900787 
L 85.043045 97.900049 
L 85.933182 97.89912 
L 86.823318 97.897951 
L 87.713455 97.896478 
L 88.603591 97.894625 
L 89.493727 97.892292 
L 90.383864 97.889355 
L 91.274 97.885658 
L 92.164136 97.881005 
L 93.054273 97.875147 
L 93.944409 97.867773 
L 94.834545 97.858493 
L 95.724682 97.846812 
L 96.614818 97.832112 
L 97.504955 97.813613 
L 98.395091 97.790336 
L 99.285227 97.761052 
L 100.175364 97.724215 
L 101.0655 97.677889 
L 101.955636 97.619644 
L 102.845773 97.546437 
L 103.735909 97.454467 
L 104.626045 97.338983 
L 105.516182 97.194071 
L 106.406318 97.012385 
L 107.296455 96.784831 
L 108.186591 96.500205 
L 109.076727 96.144778 
L 109.966864 95.701847 
L 110.857 95.151282 
L 111.747136 94.469098 
L 112.637273 93.627153 
L 113.527409 92.593068 
L 114.417545 91.330545 
L 115.307682 89.800294 
L 116.197818 87.961815 
L 117.087955 85.776262 
L 117.978091 83.210546 
L 118.868227 80.242584 
L 119.758364 76.867254 
L 120.6485 73.102147 
L 121.538636 68.991761 
L 122.428773 64.608635 
L 123.318909 60.050234 
L 124.209045 55.431325 
L 125.099182 50.872884 
L 125.989318 46.489682 
" style="fill:none;stroke:#d6604d;stroke-linecap:round;stroke-width:1.5;"/>
   </g>
   <g id="line2d_10">
    <path clip-path="url(#pcaa110a255)" d="M 36.975682 96.363969 
L 37.865818 96.687342 
L 38.755955 96.945858 
L 39.646091 97.152108 
L 40.536227 97.316339 
L 41.426364 97.44684 
L 42.3165 97.550291 
L 43.206636 97.63206 
L 44.096773 97.696452 
L 44.986909 97.746921 
L 45.877045 97.786236 
L 46.767182 97.81663 
L 47.657318 97.839908 
L 48.547455 97.85754 
L 49.437591 97.870726 
L 50.327727 97.88045 
L 51.217864 97.887514 
L 52.108 97.892567 
L 52.998136 97.896126 
L 53.888273 97.898596 
L 54.778409 97.900287 
L 55.668545 97.90143 
L 56.558682 97.902194 
L 57.448818 97.902699 
L 58.338955 97.903031 
L 59.229091 97.903247 
L 60.119227 97.903387 
L 61.009364 97.903477 
L 61.8995 97.903535 
L 62.789636 97.903572 
L 63.679773 97.903595 
L 64.569909 97.90361 
L 65.460045 97.90362 
L 66.350182 97.903626 
L 67.240318 97.90363 
L 68.130455 97.903632 
L 69.020591 97.903634 
L 69.910727 97.903635 
L 70.800864 97.903635 
L 71.691 97.903636 
L 72.581136 97.903636 
L 73.471273 97.903636 
L 74.361409 97.903636 
L 75.251545 97.903636 
L 76.141682 97.903636 
L 77.031818 97.903636 
L 77.921955 97.903636 
L 78.812091 97.903636 
L 79.702227 97.903636 
L 80.592364 97.903636 
L 81.4825 97.903636 
L 82.372636 97.903636 
L 83.262773 97.903636 
L 84.152909 97.903636 
L 85.043045 97.903636 
L 85.933182 97.903636 
L 86.823318 97.903636 
L 87.713455 97.903636 
L 88.603591 97.903636 
L 89.493727 97.903636 
L 90.383864 97.903636 
L 91.274 97.903636 
L 92.164136 97.903636 
L 93.054273 97.903636 
L 93.944409 97.903636 
L 94.834545 97.903636 
L 95.724682 97.903636 
L 96.614818 97.903636 
L 97.504955 97.903636 
L 98.395091 97.903636 
L 99.285227 97.903636 
L 100.175364 97.903636 
L 101.0655 97.903636 
L 101.955636 97.903636 
L 102.845773 97.903636 
L 103.735909 97.903636 
L 104.626045 97.903636 
L 105.516182 97.903636 
L 106.406318 97.903636 
L 107.296455 97.903636 
L 108.186591 97.903636 
L 109.076727 97.903636 
L 109.966864 97.903636 
L 110.857 97.903636 
L 111.747136 97.903636 
L 112.637273 97.903636 
L 113.527409 97.903636 
L 114.417545 97.903636 
L 115.307682 97.903636 
L 116.197818 97.903636 
L 117.087955 97.903636 
L 117.978091 97.903636 
L 118.868227 97.903636 
L 119.758364 97.903636 
L 120.6485 97.903636 
L 121.538636 97.903636 
L 122.428773 97.903636 
L 123.318909 97.903636 
L 124.209045 97.903636 
L 125.099182 97.903636 
L 125.989318 97.903636 
" style="fill:none;stroke:#92c5de;stroke-linecap:round;stroke-width:1.5;"/>
   </g>
   <g id="line2d_11">
    <path clip-path="url(#pcaa110a255)" d="M 36.975682 97.903636 
L 37.865818 97.903636 
L 38.755955 97.903636 
L 39.646091 97.903636 
L 40.536227 97.903636 
L 41.426364 97.903636 
L 42.3165 97.903636 
L 43.206636 97.903636 
L 44.096773 97.903635 
L 44.986909 97.903635 
L 45.877045 97.903635 
L 46.767182 97.903635 
L 47.657318 97.903635 
L 48.547455 97.903634 
L 49.437591 97.903634 
L 50.327727 97.903634 
L 51.217864 97.903634 
L 52.108 97.903633 
L 52.998136 97.903633 
L 53.888273 97.903633 
L 54.778409 97.903633 
L 55.668545 97.903633 
L 56.558682 97.903632 
L 57.448818 97.903632 
L 58.338955 97.903632 
L 59.229091 97.903632 
L 60.119227 97.903632 
L 61.009364 97.903632 
L 61.8995 97.903632 
L 62.789636 97.903632 
L 63.679773 97.903632 
L 64.569909 97.903632 
L 65.460045 97.903632 
L 66.350182 97.903632 
L 67.240318 97.903632 
L 68.130455 97.903632 
L 69.020591 97.903632 
L 69.910727 97.903632 
L 70.800864 97.903632 
L 71.691 97.903632 
L 72.581136 97.903632 
L 73.471273 97.903632 
L 74.361409 97.903632 
L 75.251545 97.903632 
L 76.141682 97.903632 
L 77.031818 97.903632 
L 77.921955 97.903632 
L 78.812091 97.903632 
L 79.702227 97.903632 
L 80.592364 97.903632 
L 81.4825 97.903632 
L 82.372636 97.903632 
L 83.262773 97.903632 
L 84.152909 97.903632 
L 85.043045 97.903632 
L 85.933182 97.903632 
L 86.823318 97.903632 
L 87.713455 97.903632 
L 88.603591 97.903632 
L 89.493727 97.903632 
L 90.383864 97.903632 
L 91.274 97.903632 
L 92.164136 97.903632 
L 93.054273 97.903632 
L 93.944409 97.903632 
L 94.834545 97.903632 
L 95.724682 97.903632 
L 96.614818 97.903632 
L 97.504955 97.903632 
L 98.395091 97.903632 
L 99.285227 97.903632 
L 100.175364 97.903632 
L 101.0655 97.903632 
L 101.955636 97.903632 
L 102.845773 97.903632 
L 103.735909 97.903632 
L 104.626045 97.903632 
L 105.516182 97.903632 
L 106.406318 97.903632 
L 107.296455 97.903632 
L 108.186591 97.903632 
L 109.076727 97.903632 
L 109.966864 97.903632 
L 110.857 97.903632 
L 111.747136 97.903632 
L 112.637273 97.903632 
L 113.527409 97.903632 
L 114.417545 97.903632 
L 115.307682 97.903632 
L 116.197818 97.903632 
L 117.087955 97.903633 
L 117.978091 97.903633 
L 118.868227 97.903633 
L 119.758364 97.903633 
L 120.6485 97.903633 
L 121.538636 97.903633 
L 122.428773 97.903634 
L 123.318909 97.903634 
L 124.209045 97.903634 
L 125.099182 97.903634 
L 125.989318 97.903635 
" style="fill:none;stroke:#f4a582;stroke-linecap:round;stroke-width:1.5;"/>
   </g>
   <g id="line2d_12">
    <path clip-path="url(#pcaa110a255)" d="M 36.975682 94.96986 
L 37.865818 94.230487 
L 38.755955 93.319419 
L 39.646091 92.202712 
L 40.536227 90.842768 
L 41.426364 89.199553 
L 42.3165 87.232763 
L 43.206636 84.90516 
L 44.096773 82.187128 
L 44.986909 79.062276 
L 45.877045 75.533451 
L 46.767182 71.628085 
L 47.657318 67.401404 
L 48.547455 62.936053 
L 49.437591 58.337241 
L 50.327727 53.723607 
L 51.217864 49.215313 
L 52.108 44.921825 
L 52.998136 40.931915 
L 53.888273 37.307692 
L 54.778409 34.08318 
L 55.668545 31.266782 
L 56.558682 28.846246 
L 57.448818 26.79463 
L 58.338955 25.076085 
L 59.229091 23.650696 
L 60.119227 22.478114 
L 61.009364 21.519995 
L 61.8995 20.741426 
L 62.789636 20.111594 
L 63.679773 19.603933 
L 64.569909 19.195941 
L 65.460045 18.868824 
L 66.350182 18.607045 
L 67.240318 18.397871 
L 68.130455 18.230934 
L 69.020591 18.097836 
L 69.910727 17.9918 
L 70.800864 17.907379 
L 71.691 17.840202 
L 72.581136 17.786773 
L 73.471273 17.744295 
L 74.361409 17.710538 
L 75.251545 17.683726 
L 76.141682 17.662442 
L 77.031818 17.645562 
L 77.921955 17.632192 
L 78.812091 17.621623 
L 79.702227 17.613294 
L 80.592364 17.606763 
L 81.4825 17.601683 
L 82.372636 17.597783 
L 83.262773 17.594857 
L 84.152909 17.592749 
L 85.043045 17.591347 
L 85.933182 17.590576 
L 86.823318 17.590394 
L 87.713455 17.590794 
L 88.603591 17.591795 
L 89.493727 17.593451 
L 90.383864 17.59585 
L 91.274 17.59912 
L 92.164136 17.603434 
L 93.054273 17.609022 
L 93.944409 17.616181 
L 94.834545 17.625292 
L 95.724682 17.636837 
L 96.614818 17.651429 
L 97.504955 17.669842 
L 98.395091 17.69305 
L 99.285227 17.72228 
L 100.175364 17.759072 
L 101.0655 17.805363 
L 101.955636 17.863579 
L 102.845773 17.93676 
L 103.735909 18.028711 
L 104.626045 18.144177 
L 105.516182 18.289072 
L 106.406318 18.470743 
L 107.296455 18.698281 
L 108.186591 18.98289 
L 109.076727 19.3383 
L 109.966864 19.781209 
L 110.857 20.33175 
L 111.747136 21.013905 
L 112.637273 21.855816 
L 113.527409 22.88986 
L 114.417545 24.152333 
L 115.307682 25.682523 
L 116.197818 27.52093 
L 117.087955 29.706397 
L 117.978091 32.272012 
L 118.868227 35.239858 
L 119.758364 38.615056 
L 120.6485 42.380017 
L 121.538636 46.490243 
L 122.428773 50.873197 
L 123.318909 55.431421 
L 124.209045 60.050149 
L 125.099182 64.608413 
L 125.989318 68.991445 
" style="fill:none;stroke:#f4a582;stroke-linecap:round;stroke-width:1.5;"/>
   </g>
   <g id="line2d_13">
    <path clip-path="url(#pcaa110a255)" d="M 36.975682 97.903522 
L 37.865818 97.903493 
L 38.755955 97.903458 
L 39.646091 97.903415 
L 40.536227 97.903362 
L 41.426364 97.903298 
L 42.3165 97.903221 
L 43.206636 97.903131 
L 44.096773 97.903025 
L 44.986909 97.902903 
L 45.877045 97.902766 
L 46.767182 97.902614 
L 47.657318 97.90245 
L 48.547455 97.902276 
L 49.437591 97.902097 
L 50.327727 97.901918 
L 51.217864 97.901742 
L 52.108 97.901575 
L 52.998136 97.90142 
L 53.888273 97.901279 
L 54.778409 97.901153 
L 55.668545 97.901044 
L 56.558682 97.90095 
L 57.448818 97.90087 
L 58.338955 97.900803 
L 59.229091 97.900748 
L 60.119227 97.900702 
L 61.009364 97.900665 
L 61.8995 97.900634 
L 62.789636 97.90061 
L 63.679773 97.90059 
L 64.569909 97.900574 
L 65.460045 97.900562 
L 66.350182 97.900551 
L 67.240318 97.900543 
L 68.130455 97.900537 
L 69.020591 97.900532 
L 69.910727 97.900527 
L 70.800864 97.900524 
L 71.691 97.900522 
L 72.581136 97.900519 
L 73.471273 97.900518 
L 74.361409 97.900516 
L 75.251545 97.900515 
L 76.141682 97.900515 
L 77.031818 97.900514 
L 77.921955 97.900513 
L 78.812091 97.900513 
L 79.702227 97.900513 
L 80.592364 97.900512 
L 81.4825 97.900512 
L 82.372636 97.900512 
L 83.262773 97.900512 
L 84.152909 97.900512 
L 85.043045 97.900512 
L 85.933182 97.900512 
L 86.823318 97.900512 
L 87.713455 97.900512 
L 88.603591 97.900512 
L 89.493727 97.900512 
L 90.383864 97.900512 
L 91.274 97.900512 
L 92.164136 97.900512 
L 93.054273 97.900513 
L 93.944409 97.900513 
L 94.834545 97.900513 
L 95.724682 97.900514 
L 96.614818 97.900514 
L 97.504955 97.900515 
L 98.395091 97.900516 
L 99.285227 97.900517 
L 100.175364 97.900518 
L 101.0655 97.90052 
L 101.955636 97.900522 
L 102.845773 97.900525 
L 103.735909 97.900529 
L 104.626045 97.900533 
L 105.516182 97.900539 
L 106.406318 97.900546 
L 107.296455 97.900555 
L 108.186591 97.900566 
L 109.076727 97.90058 
L 109.966864 97.900597 
L 110.857 97.900618 
L 111.747136 97.900645 
L 112.637273 97.900678 
L 113.527409 97.900718 
L 114.417545 97.900767 
L 115.307682 97.900827 
L 116.197818 97.900898 
L 117.087955 97.900983 
L 117.978091 97.901083 
L 118.868227 97.901198 
L 119.758364 97.90133 
L 120.6485 97.901476 
L 121.538636 97.901636 
L 122.428773 97.901807 
L 123.318909 97.901984 
L 124.209045 97.902164 
L 125.099182 97.902341 
L 125.989318 97.902512 
" style="fill:none;stroke:#f4a582;stroke-linecap:round;stroke-width:1.5;"/>
   </g>
   <g id="line2d_14">
    <path clip-path="url(#pcaa110a255)" d="M 36.975682 97.459591 
L 37.865818 97.462027 
L 38.755955 97.465847 
L 39.646091 97.471177 
L 40.536227 97.478177 
L 41.426364 97.487033 
L 42.3165 97.497941 
L 43.206636 97.511089 
L 44.096773 97.526624 
L 44.986909 97.544622 
L 45.877045 97.56505 
L 46.767182 97.587735 
L 47.657318 97.612342 
L 48.547455 97.63838 
L 49.437591 97.665225 
L 50.327727 97.692177 
L 51.217864 97.718529 
L 52.108 97.743634 
L 52.998136 97.766971 
L 53.888273 97.788173 
L 54.778409 97.80704 
L 55.668545 97.823521 
L 56.558682 97.837687 
L 57.448818 97.849695 
L 58.338955 97.859753 
L 59.229091 97.868097 
L 60.119227 97.87496 
L 61.009364 97.880569 
L 61.8995 97.885126 
L 62.789636 97.888813 
L 63.679773 97.891785 
L 64.569909 97.894174 
L 65.460045 97.896089 
L 66.350182 97.897621 
L 67.240318 97.898846 
L 68.130455 97.899823 
L 69.020591 97.900602 
L 69.910727 97.901223 
L 70.800864 97.901717 
L 71.691 97.902111 
L 72.581136 97.902424 
L 73.471273 97.902673 
L 74.361409 97.902871 
L 75.251545 97.903028 
L 76.141682 97.903153 
L 77.031818 97.903252 
L 77.921955 97.903331 
L 78.812091 97.903394 
L 79.702227 97.903444 
L 80.592364 97.903483 
L 81.4825 97.903515 
L 82.372636 97.90354 
L 83.262773 97.90356 
L 84.152909 97.903575 
L 85.043045 97.903588 
L 85.933182 97.903598 
L 86.823318 97.903606 
L 87.713455 97.903612 
L 88.603591 97.903617 
L 89.493727 97.903621 
L 90.383864 97.903624 
L 91.274 97.903627 
L 92.164136 97.903629 
L 93.054273 97.90363 
L 93.944409 97.903632 
L 94.834545 97.903633 
L 95.724682 97.903633 
L 96.614818 97.903634 
L 97.504955 97.903634 
L 98.395091 97.903635 
L 99.285227 97.903635 
L 100.175364 97.903635 
L 101.0655 97.903636 
L 101.955636 97.903636 
L 102.845773 97.903636 
L 103.735909 97.903636 
L 104.626045 97.903636 
L 105.516182 97.903636 
L 106.406318 97.903636 
L 107.296455 97.903636 
L 108.186591 97.903636 
L 109.076727 97.903636 
L 109.966864 97.903636 
L 110.857 97.903636 
L 111.747136 97.903636 
L 112.637273 97.903636 
L 113.527409 97.903636 
L 114.417545 97.903636 
L 115.307682 97.903636 
L 116.197818 97.903636 
L 117.087955 97.903636 
L 117.978091 97.903636 
L 118.868227 97.903636 
L 119.758364 97.903636 
L 120.6485 97.903636 
L 121.538636 97.903636 
L 122.428773 97.903636 
L 123.318909 97.903636 
L 124.209045 97.903636 
L 125.099182 97.903636 
L 125.989318 97.903636 
" style="fill:none;stroke:#333333;stroke-linecap:round;stroke-width:1.5;"/>
   </g>
   <g id="line2d_15">
    <path clip-path="url(#pcaa110a255)" d="M 36.975682 97.903635 
L 37.865818 97.903635 
L 38.755955 97.903635 
L 39.646091 97.903636 
L 40.536227 97.903636 
L 41.426364 97.903636 
L 42.3165 97.903636 
L 43.206636 97.903636 
L 44.096773 97.903636 
L 44.986909 97.903636 
L 45.877045 97.903636 
L 46.767182 97.903636 
L 47.657318 97.903636 
L 48.547455 97.903636 
L 49.437591 97.903636 
L 50.327727 97.903636 
L 51.217864 97.903636 
L 52.108 97.903636 
L 52.998136 97.903636 
L 53.888273 97.903636 
L 54.778409 97.903636 
L 55.668545 97.903636 
L 56.558682 97.903636 
L 57.448818 97.903636 
L 58.338955 97.903636 
L 59.229091 97.903636 
L 60.119227 97.903636 
L 61.009364 97.903636 
L 61.8995 97.903636 
L 62.789636 97.903636 
L 63.679773 97.903636 
L 64.569909 97.903636 
L 65.460045 97.903636 
L 66.350182 97.903636 
L 67.240318 97.903636 
L 68.130455 97.903636 
L 69.020591 97.903636 
L 69.910727 97.903636 
L 70.800864 97.903636 
L 71.691 97.903636 
L 72.581136 97.903636 
L 73.471273 97.903636 
L 74.361409 97.903636 
L 75.251545 97.903636 
L 76.141682 97.903636 
L 77.031818 97.903636 
L 77.921955 97.903636 
L 78.812091 97.903636 
L 79.702227 97.903636 
L 80.592364 97.903636 
L 81.4825 97.903636 
L 82.372636 97.903636 
L 83.262773 97.903636 
L 84.152909 97.903636 
L 85.043045 97.903636 
L 85.933182 97.903636 
L 86.823318 97.903636 
L 87.713455 97.903636 
L 88.603591 97.903636 
L 89.493727 97.903636 
L 90.383864 97.903636 
L 91.274 97.903636 
L 92.164136 97.903636 
L 93.054273 97.903636 
L 93.944409 97.903636 
L 94.834545 97.903636 
L 95.724682 97.903636 
L 96.614818 97.903636 
L 97.504955 97.903636 
L 98.395091 97.903636 
L 99.285227 97.903636 
L 100.175364 97.903636 
L 101.0655 97.903636 
L 101.955636 97.903636 
L 102.845773 97.903636 
L 103.735909 97.903636 
L 104.626045 97.903636 
L 105.516182 97.903636 
L 106.406318 97.903636 
L 107.296455 97.903636 
L 108.186591 97.903636 
L 109.076727 97.903636 
L 109.966864 97.903636 
L 110.857 97.903636 
L 111.747136 97.903636 
L 112.637273 97.903636 
L 113.527409 97.903636 
L 114.417545 97.903636 
L 115.307682 97.903636 
L 116.197818 97.903636 
L 117.087955 97.903636 
L 117.978091 97.903636 
L 118.868227 97.903636 
L 119.758364 97.903636 
L 120.6485 97.903636 
L 121.538636 97.903636 
L 122.428773 97.903636 
L 123.318909 97.903636 
L 124.209045 97.903636 
L 125.099182 97.903636 
L 125.989318 97.903636 
" style="fill:none;stroke:#333333;stroke-linecap:round;stroke-width:1.5;"/>
   </g>
   <g id="line2d_16">
    <path clip-path="url(#pcaa110a255)" d="M 36.975682 22.493969 
L 37.865818 22.907561 
L 38.755955 23.556329 
L 39.646091 24.461499 
L 40.536227 25.650265 
L 41.426364 27.154187 
L 42.3165 29.006694 
L 43.206636 31.239471 
L 44.096773 33.877681 
L 44.986909 36.934189 
L 45.877045 40.403407 
L 46.767182 44.255847 
L 47.657318 48.434807 
L 48.547455 52.856662 
L 49.437591 57.415622 
L 50.327727 61.99276 
L 51.217864 66.467814 
L 52.108 70.731311 
L 52.998136 74.694481 
L 53.888273 78.295173 
L 54.778409 81.499253 
L 55.668545 84.298137 
L 56.558682 86.703839 
L 57.448818 88.743022 
L 58.338955 90.451244 
L 59.229091 91.868131 
L 60.119227 93.033756 
L 61.009364 93.986214 
L 61.8995 94.7602 
L 62.789636 95.386335 
L 63.679773 95.891024 
L 64.569909 96.296631 
L 65.460045 96.621842 
L 66.350182 96.882098 
L 67.240318 97.090059 
L 68.130455 97.256032 
L 69.020591 97.388367 
L 69.910727 97.493799 
L 70.800864 97.577747 
L 71.691 97.644556 
L 72.581136 97.697704 
L 73.471273 97.739972 
L 74.361409 97.773578 
L 75.251545 97.800293 
L 76.141682 97.821526 
L 77.031818 97.8384 
L 77.921955 97.851809 
L 78.812091 97.862463 
L 79.702227 97.870928 
L 80.592364 97.877653 
L 81.4825 97.882996 
L 82.372636 97.88724 
L 83.262773 97.890612 
L 84.152909 97.89329 
L 85.043045 97.895418 
L 85.933182 97.897108 
L 86.823318 97.898451 
L 87.713455 97.899517 
L 88.603591 97.900365 
L 89.493727 97.901038 
L 90.383864 97.901572 
L 91.274 97.901997 
L 92.164136 97.902334 
L 93.054273 97.902602 
L 93.944409 97.902815 
L 94.834545 97.902984 
L 95.724682 97.903118 
L 96.614818 97.903225 
L 97.504955 97.90331 
L 98.395091 97.903377 
L 99.285227 97.90343 
L 100.175364 97.903473 
L 101.0655 97.903506 
L 101.955636 97.903533 
L 102.845773 97.903555 
L 103.735909 97.903571 
L 104.626045 97.903585 
L 105.516182 97.903596 
L 106.406318 97.903604 
L 107.296455 97.903611 
L 108.186591 97.903616 
L 109.076727 97.90362 
L 109.966864 97.903624 
L 110.857 97.903626 
L 111.747136 97.903628 
L 112.637273 97.90363 
L 113.527409 97.903632 
L 114.417545 97.903633 
L 115.307682 97.903633 
L 116.197818 97.903634 
L 117.087955 97.903635 
L 117.978091 97.903635 
L 118.868227 97.903635 
L 119.758364 97.903636 
L 120.6485 97.903636 
L 121.538636 97.903636 
L 122.428773 97.903636 
L 123.318909 97.903636 
L 124.209045 97.903636 
L 125.099182 97.903636 
L 125.989318 97.903636 
" style="fill:none;stroke:#333333;stroke-linecap:round;stroke-width:1.5;"/>
   </g>
  </g>
 </g>
 <defs>
  <clipPath id="pcaa110a255">
   <rect height="88.36" width="97.915" x="32.525" y="13.56"/>
  </clipPath>
 </defs>
</svg>
