<?xml version="1.0" encoding="utf-8" standalone="no"?>
<!DOCTYPE svg PUBLIC "-//W3C//DTD SVG 1.1//EN"
  "http://www.w3.org/Graphics/SVG/1.1/DTD/svg11.dtd">
<!-- Created with matplotlib (http://matplotlib.org/) -->
<svg height="144pt" version="1.1" viewBox="0 0 144 144" width="144pt" xmlns="http://www.w3.org/2000/svg" xmlns:xlink="http://www.w3.org/1999/xlink">
 <defs>
  <style type="text/css">
*{stroke-linecap:butt;stroke-linejoin:round;}
  </style>
 </defs>
 <g id="figure_1">
  <g id="patch_1">
   <path d="M 0 144 
L 144 144 
L 144 0 
L 0 0 
z
" style="fill:#ffffff;"/>
  </g>
  <g id="axes_1">
   <g id="patch_2">
    <path d="M 41.96 101.92 
L 130.44 101.92 
L 130.44 27.48 
L 41.96 27.48 
z
" style="fill:#ffffff;"/>
   </g>
   <g id="matplotlib.axis_1">
    <g id="xtick_1">
     <g id="line2d_1">
      <defs>
       <path d="M 0 0 
L 0 3.5 
" id="m2dbc891076" style="stroke:#262626;stroke-width:0.8;"/>
      </defs>
      <g>
       <use style="fill:#262626;stroke:#262626;stroke-width:0.8;" x="45.981818" xlink:href="#m2dbc891076" y="101.92"/>
      </g>
     </g>
     <g id="text_1">
      <!-- 2 -->
      <defs>
       <path d="M 50.34375 8.453125 
L 50.34375 0 
L 3.03125 0 
Q 2.9375 3.171875 4.046875 6.109375 
Q 5.859375 10.9375 9.828125 15.625 
Q 13.8125 20.3125 21.34375 26.46875 
Q 33.015625 36.03125 37.109375 41.625 
Q 41.21875 47.21875 41.21875 52.203125 
Q 41.21875 57.421875 37.46875 61 
Q 33.734375 64.59375 27.734375 64.59375 
Q 21.390625 64.59375 17.578125 60.78125 
Q 13.765625 56.984375 13.71875 50.25 
L 4.6875 51.171875 
Q 5.609375 61.28125 11.65625 66.578125 
Q 17.71875 71.875 27.9375 71.875 
Q 38.234375 71.875 44.234375 66.15625 
Q 50.25 60.453125 50.25 52 
Q 50.25 47.703125 48.484375 43.546875 
Q 46.734375 39.40625 42.65625 34.8125 
Q 38.578125 30.21875 29.109375 22.21875 
Q 21.1875 15.578125 18.9375 13.203125 
Q 16.703125 10.84375 15.234375 8.453125 
z
" id="ArialMT-32"/>
      </defs>
      <g style="fill:#262626;" transform="translate(42.923303 116.793594)scale(0.11 -0.11)">
       <use xlink:href="#ArialMT-32"/>
      </g>
     </g>
    </g>
    <g id="xtick_2">
     <g id="line2d_2">
      <g>
       <use style="fill:#262626;stroke:#262626;stroke-width:0.8;" x="62.069091" xlink:href="#m2dbc891076" y="101.92"/>
      </g>
     </g>
     <g id="text_2">
      <!-- 4 -->
      <defs>
       <path d="M 32.328125 0 
L 32.328125 17.140625 
L 1.265625 17.140625 
L 1.265625 25.203125 
L 33.9375 71.578125 
L 41.109375 71.578125 
L 41.109375 25.203125 
L 50.78125 25.203125 
L 50.78125 17.140625 
L 41.109375 17.140625 
L 41.109375 0 
z
M 32.328125 25.203125 
L 32.328125 57.46875 
L 9.90625 25.203125 
z
" id="ArialMT-34"/>
      </defs>
      <g style="fill:#262626;" transform="translate(59.010575 116.793594)scale(0.11 -0.11)">
       <use xlink:href="#ArialMT-34"/>
      </g>
     </g>
    </g>
    <g id="xtick_3">
     <g id="line2d_3">
      <g>
       <use style="fill:#262626;stroke:#262626;stroke-width:0.8;" x="78.156364" xlink:href="#m2dbc891076" y="101.92"/>
      </g>
     </g>
     <g id="text_3">
      <!-- 6 -->
      <defs>
       <path d="M 49.75 54.046875 
L 41.015625 53.375 
Q 39.84375 58.546875 37.703125 60.890625 
Q 34.125 64.65625 28.90625 64.65625 
Q 24.703125 64.65625 21.53125 62.3125 
Q 17.390625 59.28125 14.984375 53.46875 
Q 12.59375 47.65625 12.5 36.921875 
Q 15.671875 41.75 20.265625 44.09375 
Q 24.859375 46.4375 29.890625 46.4375 
Q 38.671875 46.4375 44.84375 39.96875 
Q 51.03125 33.5 51.03125 23.25 
Q 51.03125 16.5 48.125 10.71875 
Q 45.21875 4.9375 40.140625 1.859375 
Q 35.0625 -1.21875 28.609375 -1.21875 
Q 17.625 -1.21875 10.6875 6.859375 
Q 3.765625 14.9375 3.765625 33.5 
Q 3.765625 54.25 11.421875 63.671875 
Q 18.109375 71.875 29.4375 71.875 
Q 37.890625 71.875 43.28125 67.140625 
Q 48.6875 62.40625 49.75 54.046875 
z
M 13.875 23.1875 
Q 13.875 18.65625 15.796875 14.5 
Q 17.71875 10.359375 21.1875 8.171875 
Q 24.65625 6 28.46875 6 
Q 34.03125 6 38.03125 10.484375 
Q 42.046875 14.984375 42.046875 22.703125 
Q 42.046875 30.125 38.078125 34.390625 
Q 34.125 38.671875 28.125 38.671875 
Q 22.171875 38.671875 18.015625 34.390625 
Q 13.875 30.125 13.875 23.1875 
z
" id="ArialMT-36"/>
      </defs>
      <g style="fill:#262626;" transform="translate(75.097848 116.793594)scale(0.11 -0.11)">
       <use xlink:href="#ArialMT-36"/>
      </g>
     </g>
    </g>
    <g id="xtick_4">
     <g id="line2d_4">
      <g>
       <use style="fill:#262626;stroke:#262626;stroke-width:0.8;" x="94.243636" xlink:href="#m2dbc891076" y="101.92"/>
      </g>
     </g>
     <g id="text_4">
      <!-- 8 -->
      <defs>
       <path d="M 17.671875 38.8125 
Q 12.203125 40.828125 9.5625 44.53125 
Q 6.9375 48.25 6.9375 53.421875 
Q 6.9375 61.234375 12.546875 66.546875 
Q 18.171875 71.875 27.484375 71.875 
Q 36.859375 71.875 42.578125 66.421875 
Q 48.296875 60.984375 48.296875 53.171875 
Q 48.296875 48.1875 45.671875 44.5 
Q 43.0625 40.828125 37.75 38.8125 
Q 44.34375 36.671875 47.78125 31.875 
Q 51.21875 27.09375 51.21875 20.453125 
Q 51.21875 11.28125 44.71875 5.03125 
Q 38.234375 -1.21875 27.640625 -1.21875 
Q 17.046875 -1.21875 10.546875 5.046875 
Q 4.046875 11.328125 4.046875 20.703125 
Q 4.046875 27.6875 7.59375 32.390625 
Q 11.140625 37.109375 17.671875 38.8125 
z
M 15.921875 53.71875 
Q 15.921875 48.640625 19.1875 45.40625 
Q 22.46875 42.1875 27.6875 42.1875 
Q 32.765625 42.1875 36.015625 45.375 
Q 39.265625 48.578125 39.265625 53.21875 
Q 39.265625 58.0625 35.90625 61.359375 
Q 32.5625 64.65625 27.59375 64.65625 
Q 22.5625 64.65625 19.234375 61.421875 
Q 15.921875 58.203125 15.921875 53.71875 
z
M 13.09375 20.65625 
Q 13.09375 16.890625 14.875 13.375 
Q 16.65625 9.859375 20.171875 7.921875 
Q 23.6875 6 27.734375 6 
Q 34.03125 6 38.125 10.046875 
Q 42.234375 14.109375 42.234375 20.359375 
Q 42.234375 26.703125 38.015625 30.859375 
Q 33.796875 35.015625 27.4375 35.015625 
Q 21.234375 35.015625 17.15625 30.90625 
Q 13.09375 26.8125 13.09375 20.65625 
z
" id="ArialMT-38"/>
      </defs>
      <g style="fill:#262626;" transform="translate(91.185121 116.793594)scale(0.11 -0.11)">
       <use xlink:href="#ArialMT-38"/>
      </g>
     </g>
    </g>
    <g id="xtick_5">
     <g id="line2d_5">
      <g>
       <use style="fill:#262626;stroke:#262626;stroke-width:0.8;" x="110.330909" xlink:href="#m2dbc891076" y="101.92"/>
      </g>
     </g>
     <g id="text_5">
      <!-- 10 -->
      <defs>
       <path d="M 37.25 0 
L 28.46875 0 
L 28.46875 56 
Q 25.296875 52.984375 20.140625 49.953125 
Q 14.984375 46.921875 10.890625 45.40625 
L 10.890625 53.90625 
Q 18.265625 57.375 23.78125 62.296875 
Q 29.296875 67.234375 31.59375 71.875 
L 37.25 71.875 
z
" id="ArialMT-31"/>
       <path d="M 4.15625 35.296875 
Q 4.15625 48 6.765625 55.734375 
Q 9.375 63.484375 14.515625 67.671875 
Q 19.671875 71.875 27.484375 71.875 
Q 33.25 71.875 37.59375 69.546875 
Q 41.9375 67.234375 44.765625 62.859375 
Q 47.609375 58.5 49.21875 52.21875 
Q 50.828125 45.953125 50.828125 35.296875 
Q 50.828125 22.703125 48.234375 14.96875 
Q 45.65625 7.234375 40.5 3 
Q 35.359375 -1.21875 27.484375 -1.21875 
Q 17.140625 -1.21875 11.234375 6.203125 
Q 4.15625 15.140625 4.15625 35.296875 
z
M 13.1875 35.296875 
Q 13.1875 17.671875 17.3125 11.828125 
Q 21.4375 6 27.484375 6 
Q 33.546875 6 37.671875 11.859375 
Q 41.796875 17.71875 41.796875 35.296875 
Q 41.796875 52.984375 37.671875 58.78125 
Q 33.546875 64.59375 27.390625 64.59375 
Q 21.34375 64.59375 17.71875 59.46875 
Q 13.1875 52.9375 13.1875 35.296875 
z
" id="ArialMT-30"/>
      </defs>
      <g style="fill:#262626;" transform="translate(104.213878 116.793594)scale(0.11 -0.11)">
       <use xlink:href="#ArialMT-31"/>
       <use x="55.615234" xlink:href="#ArialMT-30"/>
      </g>
     </g>
    </g>
    <g id="xtick_6">
     <g id="line2d_6">
      <g>
       <use style="fill:#262626;stroke:#262626;stroke-width:0.8;" x="126.418182" xlink:href="#m2dbc891076" y="101.92"/>
      </g>
     </g>
     <g id="text_6">
      <!-- 12 -->
      <g style="fill:#262626;" transform="translate(120.301151 116.793594)scale(0.11 -0.11)">
       <use xlink:href="#ArialMT-31"/>
       <use x="55.615234" xlink:href="#ArialMT-32"/>
      </g>
     </g>
    </g>
    <g id="text_7">
     <!-- pH -->
     <defs>
      <path d="M 6.59375 -19.875 
L 6.59375 51.859375 
L 14.59375 51.859375 
L 14.59375 45.125 
Q 17.4375 49.078125 21 51.046875 
Q 24.5625 53.03125 29.640625 53.03125 
Q 36.28125 53.03125 41.359375 49.609375 
Q 46.4375 46.1875 49.015625 39.953125 
Q 51.609375 33.734375 51.609375 26.3125 
Q 51.609375 18.359375 48.75 11.984375 
Q 45.90625 5.609375 40.453125 2.21875 
Q 35.015625 -1.171875 29 -1.171875 
Q 24.609375 -1.171875 21.109375 0.6875 
Q 17.625 2.546875 15.375 5.375 
L 15.375 -19.875 
z
M 14.546875 25.640625 
Q 14.546875 15.625 18.59375 10.84375 
Q 22.65625 6.0625 28.421875 6.0625 
Q 34.28125 6.0625 38.453125 11.015625 
Q 42.625 15.96875 42.625 26.375 
Q 42.625 36.28125 38.546875 41.203125 
Q 34.46875 46.140625 28.8125 46.140625 
Q 23.1875 46.140625 18.859375 40.890625 
Q 14.546875 35.640625 14.546875 25.640625 
z
" id="ArialMT-70"/>
      <path d="M 8.015625 0 
L 8.015625 71.578125 
L 17.484375 71.578125 
L 17.484375 42.1875 
L 54.6875 42.1875 
L 54.6875 71.578125 
L 64.15625 71.578125 
L 64.15625 0 
L 54.6875 0 
L 54.6875 33.734375 
L 17.484375 33.734375 
L 17.484375 0 
z
" id="ArialMT-48"/>
     </defs>
     <g style="fill:#262626;" transform="translate(79.169453 130.853437)scale(0.11 -0.11)">
      <use xlink:href="#ArialMT-70"/>
      <use x="55.615234" xlink:href="#ArialMT-48"/>
     </g>
    </g>
   </g>
   <g id="matplotlib.axis_2">
    <g id="ytick_1">
     <g id="line2d_7">
      <defs>
       <path d="M 0 0 
L -3.5 0 
" id="m3a63e10c41" style="stroke:#262626;stroke-width:0.8;"/>
      </defs>
      <g>
       <use style="fill:#262626;stroke:#262626;stroke-width:0.8;" x="41.96" xlink:href="#m3a63e10c41" y="95.842232"/>
      </g>
     </g>
     <g id="text_8">
      <!-- 0 -->
      <g style="fill:#262626;" transform="translate(28.842969 99.779029)scale(0.11 -0.11)">
       <use xlink:href="#ArialMT-30"/>
      </g>
     </g>
    </g>
    <g id="ytick_2">
     <g id="line2d_8">
      <g>
       <use style="fill:#262626;stroke:#262626;stroke-width:0.8;" x="41.96" xlink:href="#m3a63e10c41" y="62.849753"/>
      </g>
     </g>
     <g id="text_9">
      <!-- 1 -->
      <g style="fill:#262626;" transform="translate(28.842969 66.78655)scale(0.11 -0.11)">
       <use xlink:href="#ArialMT-31"/>
      </g>
     </g>
    </g>
    <g id="ytick_3">
     <g id="line2d_9">
      <g>
       <use style="fill:#262626;stroke:#262626;stroke-width:0.8;" x="41.96" xlink:href="#m3a63e10c41" y="29.857274"/>
      </g>
     </g>
     <g id="text_10">
      <!-- 2 -->
      <g style="fill:#262626;" transform="translate(28.842969 33.794071)scale(0.11 -0.11)">
       <use xlink:href="#ArialMT-32"/>
      </g>
     </g>
    </g>
    <g id="text_11">
     <!-- $\langle q_\mathsf{total} \rangle$ -->
     <defs>
      <path d="M 8.9375 31.34375 
L 22.703125 75.875 
L 31 75.875 
L 17.234375 31.34375 
L 31 -13.1875 
L 22.703125 -13.1875 
z
" id="DejaVuSans-27e8"/>
      <path d="M 41.703125 8.203125 
Q 38.09375 3.46875 33.171875 1.015625 
Q 28.265625 -1.421875 22.3125 -1.421875 
Q 14.015625 -1.421875 9.296875 4.171875 
Q 4.59375 9.765625 4.59375 19.578125 
Q 4.59375 27.484375 7.5 34.859375 
Q 10.40625 42.234375 15.828125 48.09375 
Q 19.34375 51.90625 23.90625 53.953125 
Q 28.46875 56 33.5 56 
Q 39.546875 56 43.453125 53.609375 
Q 47.359375 51.21875 49.125 46.390625 
L 50.6875 54.59375 
L 59.71875 54.59375 
L 45.125 -20.609375 
L 36.078125 -20.609375 
z
M 13.921875 20.90625 
Q 13.921875 13.671875 16.9375 9.890625 
Q 19.96875 6.109375 25.6875 6.109375 
Q 34.1875 6.109375 40.1875 14.234375 
Q 46.1875 22.359375 46.1875 33.984375 
Q 46.1875 41.015625 43.078125 44.75 
Q 39.984375 48.484375 34.1875 48.484375 
Q 29.9375 48.484375 26.3125 46.5 
Q 22.703125 44.53125 20.015625 40.71875 
Q 17.1875 36.71875 15.546875 31.34375 
Q 13.921875 25.984375 13.921875 20.90625 
z
" id="DejaVuSans-Oblique-71"/>
      <path d="M 18.3125 70.21875 
L 18.3125 54.6875 
L 36.8125 54.6875 
L 36.8125 47.703125 
L 18.3125 47.703125 
L 18.3125 18.015625 
Q 18.3125 11.328125 20.140625 9.421875 
Q 21.96875 7.515625 27.59375 7.515625 
L 36.8125 7.515625 
L 36.8125 0 
L 27.59375 0 
Q 17.1875 0 13.234375 3.875 
Q 9.28125 7.765625 9.28125 18.015625 
L 9.28125 47.703125 
L 2.6875 47.703125 
L 2.6875 54.6875 
L 9.28125 54.6875 
L 9.28125 70.21875 
z
" id="DejaVuSans-74"/>
      <path d="M 30.609375 48.390625 
Q 23.390625 48.390625 19.1875 42.75 
Q 14.984375 37.109375 14.984375 27.296875 
Q 14.984375 17.484375 19.15625 11.84375 
Q 23.34375 6.203125 30.609375 6.203125 
Q 37.796875 6.203125 41.984375 11.859375 
Q 46.1875 17.53125 46.1875 27.296875 
Q 46.1875 37.015625 41.984375 42.703125 
Q 37.796875 48.390625 30.609375 48.390625 
z
M 30.609375 56 
Q 42.328125 56 49.015625 48.375 
Q 55.71875 40.765625 55.71875 27.296875 
Q 55.71875 13.875 49.015625 6.21875 
Q 42.328125 -1.421875 30.609375 -1.421875 
Q 18.84375 -1.421875 12.171875 6.21875 
Q 5.515625 13.875 5.515625 27.296875 
Q 5.515625 40.765625 12.171875 48.375 
Q 18.84375 56 30.609375 56 
z
" id="DejaVuSans-6f"/>
      <path d="M 34.28125 27.484375 
Q 23.390625 27.484375 19.1875 25 
Q 14.984375 22.515625 14.984375 16.5 
Q 14.984375 11.71875 18.140625 8.90625 
Q 21.296875 6.109375 26.703125 6.109375 
Q 34.1875 6.109375 38.703125 11.40625 
Q 43.21875 16.703125 43.21875 25.484375 
L 43.21875 27.484375 
z
M 52.203125 31.203125 
L 52.203125 0 
L 43.21875 0 
L 43.21875 8.296875 
Q 40.140625 3.328125 35.546875 0.953125 
Q 30.953125 -1.421875 24.3125 -1.421875 
Q 15.921875 -1.421875 10.953125 3.296875 
Q 6 8.015625 6 15.921875 
Q 6 25.140625 12.171875 29.828125 
Q 18.359375 34.515625 30.609375 34.515625 
L 43.21875 34.515625 
L 43.21875 35.40625 
Q 43.21875 41.609375 39.140625 45 
Q 35.0625 48.390625 27.6875 48.390625 
Q 23 48.390625 18.546875 47.265625 
Q 14.109375 46.140625 10.015625 43.890625 
L 10.015625 52.203125 
Q 14.9375 54.109375 19.578125 55.046875 
Q 24.21875 56 28.609375 56 
Q 40.484375 56 46.34375 49.84375 
Q 52.203125 43.703125 52.203125 31.203125 
z
" id="DejaVuSans-61"/>
      <path d="M 9.421875 75.984375 
L 18.40625 75.984375 
L 18.40625 0 
L 9.421875 0 
z
" id="DejaVuSans-6c"/>
      <path d="M 30.078125 31.34375 
L 16.3125 -13.1875 
L 8.015625 -13.1875 
L 21.78125 31.34375 
L 8.015625 75.875 
L 16.3125 75.875 
z
" id="DejaVuSans-27e9"/>
     </defs>
     <g style="fill:#262626;" transform="translate(22.532969 81.475)rotate(-90)scale(0.11 -0.11)">
      <use transform="translate(0 0.125)" xlink:href="#DejaVuSans-27e8"/>
      <use transform="translate(39.013672 0.125)" xlink:href="#DejaVuSans-Oblique-71"/>
      <use transform="translate(102.490234 -16.28125)scale(0.7)" xlink:href="#DejaVuSans-74"/>
      <use transform="translate(129.936523 -16.28125)scale(0.7)" xlink:href="#DejaVuSans-6f"/>
      <use transform="translate(172.763672 -16.28125)scale(0.7)" xlink:href="#DejaVuSans-74"/>
      <use transform="translate(200.209961 -16.28125)scale(0.7)" xlink:href="#DejaVuSans-61"/>
      <use transform="translate(243.105469 -16.28125)scale(0.7)" xlink:href="#DejaVuSans-6c"/>
      <use transform="translate(265.288086 0.125)" xlink:href="#DejaVuSans-27e9"/>
     </g>
    </g>
   </g>
   <g id="PolyCollection_1">
    <defs>
     <path d="M 45.981818 -81.136179 
L 45.981818 -81.136179 
L 46.786182 -81.132539 
L 47.590545 -81.127956 
L 48.394909 -81.12219 
L 49.199273 -81.114933 
L 50.003636 -81.105801 
L 50.808 -81.094313 
L 51.612364 -81.079861 
L 52.416727 -81.061685 
L 53.221091 -81.038831 
L 54.025455 -81.010106 
L 54.829818 -80.974013 
L 55.634182 -80.928688 
L 56.438545 -80.871805 
L 57.242909 -80.800474 
L 58.047273 -80.711114 
L 58.851636 -80.599311 
L 59.656 -80.459645 
L 60.460364 -80.285517 
L 61.264727 -80.068955 
L 62.069091 -79.800436 
L 62.873455 -79.468748 
L 63.677818 -79.060936 
L 64.482182 -78.562394 
L 65.286545 -77.957182 
L 66.090909 -77.228688 
L 66.895273 -76.360702 
L 67.699636 -75.339002 
L 68.504 -74.153425 
L 69.308364 -72.800277 
L 70.112727 -71.28475 
L 70.917091 -69.622828 
L 71.721455 -67.842044 
L 72.525818 -65.980577 
L 73.330182 -64.084474 
L 74.134545 -62.20332 
L 74.938909 -60.385159 
L 75.743273 -58.671751 
L 76.547636 -57.095102 
L 77.352 -55.675808 
L 78.156364 -54.4232 
L 78.960727 -53.336863 
L 79.765091 -52.408922 
L 80.569455 -51.626506 
L 81.373818 -50.973981 
L 82.178182 -50.43474 
L 82.982545 -49.992474 
L 83.786909 -49.631988 
L 84.591273 -49.339644 
L 85.395636 -49.103534 
L 86.2 -48.913472 
L 87.004364 -48.760886 
L 87.808727 -48.63865 
L 88.613091 -48.540895 
L 89.417455 -48.462825 
L 90.221818 -48.400545 
L 91.026182 -48.350905 
L 91.830545 -48.311367 
L 92.634909 -48.279893 
L 93.439273 -48.25485 
L 94.243636 -48.234929 
L 95.048 -48.219089 
L 95.852364 -48.206496 
L 96.656727 -48.196486 
L 97.461091 -48.18853 
L 98.265455 -48.182208 
L 99.069818 -48.177184 
L 99.874182 -48.173193 
L 100.678545 -48.170022 
L 101.482909 -48.167502 
L 102.287273 -48.165501 
L 103.091636 -48.163911 
L 103.896 -48.162648 
L 104.700364 -48.161644 
L 105.504727 -48.160847 
L 106.309091 -48.160214 
L 107.113455 -48.159711 
L 107.917818 -48.159311 
L 108.722182 -48.158994 
L 109.526545 -48.158742 
L 110.330909 -48.158542 
L 111.135273 -48.158383 
L 111.939636 -48.158256 
L 112.744 -48.158156 
L 113.548364 -48.158076 
L 114.352727 -48.158013 
L 115.157091 -48.157963 
L 115.961455 -48.157923 
L 116.765818 -48.157891 
L 117.570182 -48.157866 
L 118.374545 -48.157846 
L 119.178909 -48.15783 
L 119.983273 -48.157817 
L 120.787636 -48.157807 
L 121.592 -48.157799 
L 122.396364 -48.157793 
L 123.200727 -48.157788 
L 124.005091 -48.157784 
L 124.809455 -48.157781 
L 125.613818 -48.157778 
L 126.418182 -48.157776 
L 126.418182 -48.157776 
L 126.418182 -45.463636 
L 125.613818 -45.981188 
L 124.809455 -46.405068 
L 124.005091 -46.750169 
L 123.200727 -47.029775 
L 122.396364 -47.255427 
L 121.592 -47.436959 
L 120.787636 -47.582625 
L 119.983273 -47.699273 
L 119.178909 -47.79253 
L 118.374545 -47.866988 
L 117.570182 -47.926376 
L 116.765818 -47.973703 
L 115.961455 -48.011395 
L 115.157091 -48.041397 
L 114.352727 -48.065269 
L 113.548364 -48.084256 
L 112.744 -48.099356 
L 111.939636 -48.111361 
L 111.135273 -48.120906 
L 110.330909 -48.128494 
L 109.526545 -48.134528 
L 108.722182 -48.139327 
L 107.917818 -48.143145 
L 107.113455 -48.146186 
L 106.309091 -48.148611 
L 105.504727 -48.150548 
L 104.700364 -48.152101 
L 103.896 -48.153353 
L 103.091636 -48.154369 
L 102.287273 -48.155205 
L 101.482909 -48.155904 
L 100.678545 -48.156504 
L 99.874182 -48.157037 
L 99.069818 -48.15753 
L 98.265455 -48.158011 
L 97.461091 -48.158505 
L 96.656727 -48.159038 
L 95.852364 -48.159639 
L 95.048 -48.160339 
L 94.243636 -48.161177 
L 93.439273 -48.162195 
L 92.634909 -48.16345 
L 91.830545 -48.165007 
L 91.026182 -48.166949 
L 90.221818 -48.16938 
L 89.417455 -48.172429 
L 88.613091 -48.176258 
L 87.808727 -48.181072 
L 87.004364 -48.187125 
L 86.2 -48.19474 
L 85.395636 -48.20432 
L 84.591273 -48.216376 
L 83.786909 -48.231545 
L 82.982545 -48.250631 
L 82.178182 -48.274645 
L 81.373818 -48.304855 
L 80.569455 -48.342852 
L 79.765091 -48.390634 
L 78.960727 -48.450705 
L 78.156364 -48.526196 
L 77.352 -48.621024 
L 76.547636 -48.740075 
L 75.743273 -48.889429 
L 74.938909 -49.07663 
L 74.134545 -49.311005 
L 73.330182 -49.604024 
L 72.525818 -49.969705 
L 71.721455 -50.425046 
L 70.917091 -50.990437 
L 70.112727 -51.690013 
L 69.308364 -52.551822 
L 68.504 -53.60769 
L 67.699636 -54.892558 
L 66.895273 -56.443031 
L 66.090909 -58.294874 
L 65.286545 -60.4792 
L 64.482182 -63.017341 
L 63.677818 -65.914743 
L 62.873455 -69.154828 
L 62.069091 -72.694385 
L 61.264727 -76.462364 
L 60.460364 -80.363593 
L 59.656 -84.287663 
L 58.851636 -88.121466 
L 58.047273 -91.76241 
L 57.242909 -95.129048 
L 56.438545 -98.166929 
L 55.634182 -100.849225 
L 54.829818 -103.173264 
L 54.025455 -105.154786 
L 53.221091 -106.821675 
L 52.416727 -108.20837 
L 51.612364 -109.35151 
L 50.808 -110.286927 
L 50.003636 -111.047811 
L 49.199273 -111.663762 
L 48.394909 -112.160473 
L 47.590545 -112.559797 
L 46.786182 -112.880041 
L 45.981818 -113.136364 
z
" id="m6226c1edc0" style="stroke:#ffffff;stroke-opacity:0.7;"/>
    </defs>
    <g clip-path="url(#p9e9ad98243)">
     <use style="fill:#12711c;fill-opacity:0.7;stroke:#ffffff;stroke-opacity:0.7;" x="0" xlink:href="#m6226c1edc0" y="144"/>
    </g>
   </g>
   <g id="line2d_10">
    <path clip-path="url(#p9e9ad98243)" d="M 45.981818 62.863821 
L 46.786182 62.867461 
L 47.590545 62.872044 
L 48.394909 62.87781 
L 49.199273 62.885067 
L 50.003636 62.894199 
L 50.808 62.905687 
L 51.612364 62.920139 
L 52.416727 62.938315 
L 53.221091 62.961169 
L 54.025455 62.989894 
L 54.829818 63.025987 
L 55.634182 63.071312 
L 56.438545 63.128195 
L 57.242909 63.199526 
L 58.047273 63.288886 
L 58.851636 63.400689 
L 59.656 63.540355 
L 60.460364 63.714483 
L 61.264727 63.931045 
L 62.069091 64.199564 
L 62.873455 64.531252 
L 63.677818 64.939064 
L 64.482182 65.437606 
L 65.286545 66.042818 
L 66.090909 66.771312 
L 66.895273 67.639298 
L 67.699636 68.660998 
L 68.504 69.846575 
L 69.308364 71.199723 
L 70.112727 72.71525 
L 70.917091 74.377172 
L 71.721455 76.157956 
L 72.525818 78.019423 
L 73.330182 79.915526 
L 74.134545 81.79668 
L 74.938909 83.614841 
L 75.743273 85.328249 
L 76.547636 86.904898 
L 77.352 88.324192 
L 78.156364 89.5768 
L 78.960727 90.663137 
L 79.765091 91.591078 
L 80.569455 92.373494 
L 81.373818 93.026019 
L 82.178182 93.56526 
L 82.982545 94.007526 
L 83.786909 94.368012 
L 84.591273 94.660356 
L 85.395636 94.896466 
L 86.2 95.086528 
L 87.004364 95.239114 
L 87.808727 95.36135 
L 88.613091 95.459105 
L 89.417455 95.537175 
L 90.221818 95.599455 
L 91.026182 95.649095 
L 91.830545 95.688633 
L 92.634909 95.720107 
L 93.439273 95.74515 
L 94.243636 95.765071 
L 95.048 95.780911 
L 95.852364 95.793504 
L 96.656727 95.803514 
L 97.461091 95.81147 
L 98.265455 95.817792 
L 99.069818 95.822816 
L 99.874182 95.826807 
L 100.678545 95.829978 
L 101.482909 95.832498 
L 102.287273 95.834499 
L 103.091636 95.836089 
L 103.896 95.837352 
L 104.700364 95.838356 
L 105.504727 95.839153 
L 106.309091 95.839786 
L 107.113455 95.840289 
L 107.917818 95.840689 
L 108.722182 95.841006 
L 109.526545 95.841258 
L 110.330909 95.841458 
L 111.135273 95.841617 
L 111.939636 95.841744 
L 112.744 95.841844 
L 113.548364 95.841924 
L 114.352727 95.841987 
L 115.157091 95.842037 
L 115.961455 95.842077 
L 116.765818 95.842109 
L 117.570182 95.842134 
L 118.374545 95.842154 
L 119.178909 95.84217 
L 119.983273 95.842183 
L 120.787636 95.842193 
L 121.592 95.842201 
L 122.396364 95.842207 
L 123.200727 95.842212 
L 124.005091 95.842216 
L 124.809455 95.842219 
L 125.613818 95.842222 
L 126.418182 95.842224 
" style="fill:none;stroke:#333333;stroke-dasharray:1.5,2.475;stroke-dashoffset:0;stroke-width:1.5;"/>
   </g>
   <g id="line2d_11">
    <path clip-path="url(#p9e9ad98243)" d="M 45.981818 30.863636 
L 46.786182 31.119959 
L 47.590545 31.440203 
L 48.394909 31.839527 
L 49.199273 32.336238 
L 50.003636 32.952189 
L 50.808 33.713073 
L 51.612364 34.64849 
L 52.416727 35.79163 
L 53.221091 37.178325 
L 54.025455 38.845214 
L 54.829818 40.826736 
L 55.634182 43.150775 
L 56.438545 45.833071 
L 57.242909 48.870952 
L 58.047273 52.23759 
L 58.851636 55.878534 
L 59.656 59.712337 
L 60.460364 63.636407 
L 61.264727 67.537636 
L 62.069091 71.305615 
L 62.873455 74.845172 
L 63.677818 78.085257 
L 64.482182 80.982659 
L 65.286545 83.5208 
L 66.090909 85.705126 
L 66.895273 87.556969 
L 67.699636 89.107442 
L 68.504 90.39231 
L 69.308364 91.448178 
L 70.112727 92.309987 
L 70.917091 93.009563 
L 71.721455 93.574954 
L 72.525818 94.030295 
L 73.330182 94.395976 
L 74.134545 94.688995 
L 74.938909 94.92337 
L 75.743273 95.110571 
L 76.547636 95.259925 
L 77.352 95.378976 
L 78.156364 95.473804 
L 78.960727 95.549295 
L 79.765091 95.609366 
L 80.569455 95.657148 
L 81.373818 95.695145 
L 82.178182 95.725355 
L 82.982545 95.749369 
L 83.786909 95.768455 
L 84.591273 95.783624 
L 85.395636 95.79568 
L 86.2 95.80526 
L 87.004364 95.812875 
L 87.808727 95.818928 
L 88.613091 95.823742 
L 89.417455 95.827571 
L 90.221818 95.83062 
L 91.026182 95.833051 
L 91.830545 95.834993 
L 92.634909 95.83655 
L 93.439273 95.837805 
L 94.243636 95.838823 
L 95.048 95.839661 
L 95.852364 95.840361 
L 96.656727 95.840962 
L 97.461091 95.841495 
L 98.265455 95.841989 
L 99.069818 95.84247 
L 99.874182 95.842963 
L 100.678545 95.843496 
L 101.482909 95.844096 
L 102.287273 95.844795 
L 103.091636 95.845631 
L 103.896 95.846647 
L 104.700364 95.847899 
L 105.504727 95.849452 
L 106.309091 95.851389 
L 107.113455 95.853814 
L 107.917818 95.856855 
L 108.722182 95.860673 
L 109.526545 95.865472 
L 110.330909 95.871506 
L 111.135273 95.879094 
L 111.939636 95.888639 
L 112.744 95.900644 
L 113.548364 95.915744 
L 114.352727 95.934731 
L 115.157091 95.958603 
L 115.961455 95.988605 
L 116.765818 96.026297 
L 117.570182 96.073624 
L 118.374545 96.133012 
L 119.178909 96.20747 
L 119.983273 96.300727 
L 120.787636 96.417375 
L 121.592 96.563041 
L 122.396364 96.744573 
L 123.200727 96.970225 
L 124.005091 97.249831 
L 124.809455 97.594932 
L 125.613818 98.018812 
L 126.418182 98.536364 
" style="fill:none;stroke:#333333;stroke-linecap:round;stroke-width:1.5;"/>
   </g>
   <g id="patch_3">
    <path d="M 41.96 101.92 
L 41.96 27.48 
" style="fill:none;stroke:#262626;stroke-linecap:square;stroke-linejoin:miter;stroke-width:0.8;"/>
   </g>
   <g id="patch_4">
    <path d="M 41.96 101.92 
L 130.44 101.92 
" style="fill:none;stroke:#262626;stroke-linecap:square;stroke-linejoin:miter;stroke-width:0.8;"/>
   </g>
   <g id="text_12">
    <!-- $\Delta$ area : 2.32 -->
    <defs>
     <path d="M 34.1875 63.1875 
L 14.15625 8.203125 
L 54.25 8.203125 
z
M 0.78125 0 
L 28.609375 72.90625 
L 39.796875 72.90625 
L 67.578125 0 
z
" id="DejaVuSans-394"/>
     <path id="ArialMT-20"/>
     <path d="M 40.4375 6.390625 
Q 35.546875 2.25 31.03125 0.53125 
Q 26.515625 -1.171875 21.34375 -1.171875 
Q 12.796875 -1.171875 8.203125 3 
Q 3.609375 7.171875 3.609375 13.671875 
Q 3.609375 17.484375 5.34375 20.625 
Q 7.078125 23.78125 9.890625 25.6875 
Q 12.703125 27.59375 16.21875 28.5625 
Q 18.796875 29.25 24.03125 29.890625 
Q 34.671875 31.15625 39.703125 32.90625 
Q 39.75 34.71875 39.75 35.203125 
Q 39.75 40.578125 37.25 42.78125 
Q 33.890625 45.75 27.25 45.75 
Q 21.046875 45.75 18.09375 43.578125 
Q 15.140625 41.40625 13.71875 35.890625 
L 5.125 37.0625 
Q 6.296875 42.578125 8.984375 45.96875 
Q 11.671875 49.359375 16.75 51.1875 
Q 21.828125 53.03125 28.515625 53.03125 
Q 35.15625 53.03125 39.296875 51.46875 
Q 43.453125 49.90625 45.40625 47.53125 
Q 47.359375 45.171875 48.140625 41.546875 
Q 48.578125 39.3125 48.578125 33.453125 
L 48.578125 21.734375 
Q 48.578125 9.46875 49.140625 6.21875 
Q 49.703125 2.984375 51.375 0 
L 42.1875 0 
Q 40.828125 2.734375 40.4375 6.390625 
z
M 39.703125 26.03125 
Q 34.90625 24.078125 25.34375 22.703125 
Q 19.921875 21.921875 17.671875 20.9375 
Q 15.4375 19.96875 14.203125 18.09375 
Q 12.984375 16.21875 12.984375 13.921875 
Q 12.984375 10.40625 15.640625 8.0625 
Q 18.3125 5.71875 23.4375 5.71875 
Q 28.515625 5.71875 32.46875 7.9375 
Q 36.421875 10.15625 38.28125 14.015625 
Q 39.703125 17 39.703125 22.796875 
z
" id="ArialMT-61"/>
     <path d="M 6.5 0 
L 6.5 51.859375 
L 14.40625 51.859375 
L 14.40625 44 
Q 17.4375 49.515625 20 51.265625 
Q 22.5625 53.03125 25.640625 53.03125 
Q 30.078125 53.03125 34.671875 50.203125 
L 31.640625 42.046875 
Q 28.421875 43.953125 25.203125 43.953125 
Q 22.3125 43.953125 20.015625 42.21875 
Q 17.71875 40.484375 16.75 37.40625 
Q 15.28125 32.71875 15.28125 27.15625 
L 15.28125 0 
z
" id="ArialMT-72"/>
     <path d="M 42.09375 16.703125 
L 51.171875 15.578125 
Q 49.03125 7.625 43.21875 3.21875 
Q 37.40625 -1.171875 28.375 -1.171875 
Q 17 -1.171875 10.328125 5.828125 
Q 3.65625 12.84375 3.65625 25.484375 
Q 3.65625 38.578125 10.390625 45.796875 
Q 17.140625 53.03125 27.875 53.03125 
Q 38.28125 53.03125 44.875 45.953125 
Q 51.46875 38.875 51.46875 26.03125 
Q 51.46875 25.25 51.421875 23.6875 
L 12.75 23.6875 
Q 13.234375 15.140625 17.578125 10.59375 
Q 21.921875 6.0625 28.421875 6.0625 
Q 33.25 6.0625 36.671875 8.59375 
Q 40.09375 11.140625 42.09375 16.703125 
z
M 13.234375 30.90625 
L 42.1875 30.90625 
Q 41.609375 37.453125 38.875 40.71875 
Q 34.671875 45.796875 27.984375 45.796875 
Q 21.921875 45.796875 17.796875 41.75 
Q 13.671875 37.703125 13.234375 30.90625 
z
" id="ArialMT-65"/>
     <path d="M 9.03125 41.84375 
L 9.03125 51.859375 
L 19.046875 51.859375 
L 19.046875 41.84375 
z
M 9.03125 0 
L 9.03125 10.015625 
L 19.046875 10.015625 
L 19.046875 0 
z
" id="ArialMT-3a"/>
     <path d="M 9.078125 0 
L 9.078125 10.015625 
L 19.09375 10.015625 
L 19.09375 0 
z
" id="ArialMT-2e"/>
     <path d="M 4.203125 18.890625 
L 12.984375 20.0625 
Q 14.5 12.59375 18.140625 9.296875 
Q 21.78125 6 27 6 
Q 33.203125 6 37.46875 10.296875 
Q 41.75 14.59375 41.75 20.953125 
Q 41.75 27 37.796875 30.921875 
Q 33.84375 34.859375 27.734375 34.859375 
Q 25.25 34.859375 21.53125 33.890625 
L 22.515625 41.609375 
Q 23.390625 41.5 23.921875 41.5 
Q 29.546875 41.5 34.03125 44.421875 
Q 38.53125 47.359375 38.53125 53.46875 
Q 38.53125 58.296875 35.25 61.46875 
Q 31.984375 64.65625 26.8125 64.65625 
Q 21.6875 64.65625 18.265625 61.421875 
Q 14.84375 58.203125 13.875 51.765625 
L 5.078125 53.328125 
Q 6.6875 62.15625 12.390625 67.015625 
Q 18.109375 71.875 26.609375 71.875 
Q 32.46875 71.875 37.390625 69.359375 
Q 42.328125 66.84375 44.9375 62.5 
Q 47.5625 58.15625 47.5625 53.265625 
Q 47.5625 48.640625 45.0625 44.828125 
Q 42.578125 41.015625 37.703125 38.765625 
Q 44.046875 37.3125 47.5625 32.6875 
Q 51.078125 28.078125 51.078125 21.140625 
Q 51.078125 11.765625 44.234375 5.25 
Q 37.40625 -1.265625 26.953125 -1.265625 
Q 17.53125 -1.265625 11.296875 4.34375 
Q 5.078125 9.96875 4.203125 18.890625 
z
" id="ArialMT-33"/>
    </defs>
    <g style="fill:#262626;" transform="translate(48.25 21.48)scale(0.132 -0.132)">
     <use transform="translate(0 0.09375)" xlink:href="#DejaVuSans-394"/>
     <use transform="translate(68.408203 0.09375)" xlink:href="#ArialMT-20"/>
     <use transform="translate(96.191406 0.09375)" xlink:href="#ArialMT-61"/>
     <use transform="translate(151.806641 0.09375)" xlink:href="#ArialMT-72"/>
     <use transform="translate(185.107422 0.09375)" xlink:href="#ArialMT-65"/>
     <use transform="translate(240.722656 0.09375)" xlink:href="#ArialMT-61"/>
     <use transform="translate(296.337891 0.09375)" xlink:href="#ArialMT-20"/>
     <use transform="translate(324.121094 0.09375)" xlink:href="#ArialMT-3a"/>
     <use transform="translate(351.904297 0.09375)" xlink:href="#ArialMT-20"/>
     <use transform="translate(379.6875 0.09375)" xlink:href="#ArialMT-32"/>
     <use transform="translate(435.302734 0.09375)" xlink:href="#ArialMT-2e"/>
     <use transform="translate(463.085938 0.09375)" xlink:href="#ArialMT-33"/>
     <use transform="translate(518.701172 0.09375)" xlink:href="#ArialMT-32"/>
    </g>
   </g>
  </g>
 </g>
 <defs>
  <clipPath id="p9e9ad98243">
   <rect height="74.44" width="88.48" x="41.96" y="27.48"/>
  </clipPath>
 </defs>
</svg>
