<?xml version="1.0" encoding="utf-8" standalone="no"?>
<!DOCTYPE svg PUBLIC "-//W3C//DTD SVG 1.1//EN"
  "http://www.w3.org/Graphics/SVG/1.1/DTD/svg11.dtd">
<!-- Created with matplotlib (http://matplotlib.org/) -->
<svg height="216pt" version="1.1" viewBox="0 0 216 216" width="216pt" xmlns="http://www.w3.org/2000/svg" xmlns:xlink="http://www.w3.org/1999/xlink">
 <defs>
  <style type="text/css">
*{stroke-linecap:butt;stroke-linejoin:round;}
  </style>
 </defs>
 <g id="figure_1">
  <g id="patch_1">
   <path d="M 0 216 
L 216 216 
L 216 0 
L 0 0 
z
" style="fill:#ffffff;"/>
  </g>
  <g id="axes_1">
   <g id="patch_2">
    <path d="M 44.78 175.96 
L 203.52 175.96 
L 203.52 25.44 
L 44.78 25.44 
z
" style="fill:#ffffff;"/>
   </g>
   <g id="matplotlib.axis_1">
    <g id="xtick_1">
     <g id="line2d_1">
      <defs>
       <path d="M 0 0 
L 0 3.5 
" id="mfa91407ad3" style="stroke:#262626;stroke-width:0.8;"/>
      </defs>
      <g>
       <use style="fill:#262626;stroke:#262626;stroke-width:0.8;" x="51.995455" xlink:href="#mfa91407ad3" y="175.96"/>
      </g>
     </g>
     <g id="text_1">
      <!-- 2 -->
      <defs>
       <path d="M 50.34375 8.453125 
L 50.34375 0 
L 3.03125 0 
Q 2.9375 3.171875 4.046875 6.109375 
Q 5.859375 10.9375 9.828125 15.625 
Q 13.8125 20.3125 21.34375 26.46875 
Q 33.015625 36.03125 37.109375 41.625 
Q 41.21875 47.21875 41.21875 52.203125 
Q 41.21875 57.421875 37.46875 61 
Q 33.734375 64.59375 27.734375 64.59375 
Q 21.390625 64.59375 17.578125 60.78125 
Q 13.765625 56.984375 13.71875 50.25 
L 4.6875 51.171875 
Q 5.609375 61.28125 11.65625 66.578125 
Q 17.71875 71.875 27.9375 71.875 
Q 38.234375 71.875 44.234375 66.15625 
Q 50.25 60.453125 50.25 52 
Q 50.25 47.703125 48.484375 43.546875 
Q 46.734375 39.40625 42.65625 34.8125 
Q 38.578125 30.21875 29.109375 22.21875 
Q 21.1875 15.578125 18.9375 13.203125 
Q 16.703125 10.84375 15.234375 8.453125 
z
" id="ArialMT-32"/>
      </defs>
      <g style="fill:#262626;" transform="translate(49.214986 190.117812)scale(0.1 -0.1)">
       <use xlink:href="#ArialMT-32"/>
      </g>
     </g>
    </g>
    <g id="xtick_2">
     <g id="line2d_2">
      <g>
       <use style="fill:#262626;stroke:#262626;stroke-width:0.8;" x="80.857273" xlink:href="#mfa91407ad3" y="175.96"/>
      </g>
     </g>
     <g id="text_2">
      <!-- 4 -->
      <defs>
       <path d="M 32.328125 0 
L 32.328125 17.140625 
L 1.265625 17.140625 
L 1.265625 25.203125 
L 33.9375 71.578125 
L 41.109375 71.578125 
L 41.109375 25.203125 
L 50.78125 25.203125 
L 50.78125 17.140625 
L 41.109375 17.140625 
L 41.109375 0 
z
M 32.328125 25.203125 
L 32.328125 57.46875 
L 9.90625 25.203125 
z
" id="ArialMT-34"/>
      </defs>
      <g style="fill:#262626;" transform="translate(78.076804 190.117812)scale(0.1 -0.1)">
       <use xlink:href="#ArialMT-34"/>
      </g>
     </g>
    </g>
    <g id="xtick_3">
     <g id="line2d_3">
      <g>
       <use style="fill:#262626;stroke:#262626;stroke-width:0.8;" x="109.719091" xlink:href="#mfa91407ad3" y="175.96"/>
      </g>
     </g>
     <g id="text_3">
      <!-- 6 -->
      <defs>
       <path d="M 49.75 54.046875 
L 41.015625 53.375 
Q 39.84375 58.546875 37.703125 60.890625 
Q 34.125 64.65625 28.90625 64.65625 
Q 24.703125 64.65625 21.53125 62.3125 
Q 17.390625 59.28125 14.984375 53.46875 
Q 12.59375 47.65625 12.5 36.921875 
Q 15.671875 41.75 20.265625 44.09375 
Q 24.859375 46.4375 29.890625 46.4375 
Q 38.671875 46.4375 44.84375 39.96875 
Q 51.03125 33.5 51.03125 23.25 
Q 51.03125 16.5 48.125 10.71875 
Q 45.21875 4.9375 40.140625 1.859375 
Q 35.0625 -1.21875 28.609375 -1.21875 
Q 17.625 -1.21875 10.6875 6.859375 
Q 3.765625 14.9375 3.765625 33.5 
Q 3.765625 54.25 11.421875 63.671875 
Q 18.109375 71.875 29.4375 71.875 
Q 37.890625 71.875 43.28125 67.140625 
Q 48.6875 62.40625 49.75 54.046875 
z
M 13.875 23.1875 
Q 13.875 18.65625 15.796875 14.5 
Q 17.71875 10.359375 21.1875 8.171875 
Q 24.65625 6 28.46875 6 
Q 34.03125 6 38.03125 10.484375 
Q 42.046875 14.984375 42.046875 22.703125 
Q 42.046875 30.125 38.078125 34.390625 
Q 34.125 38.671875 28.125 38.671875 
Q 22.171875 38.671875 18.015625 34.390625 
Q 13.875 30.125 13.875 23.1875 
z
" id="ArialMT-36"/>
      </defs>
      <g style="fill:#262626;" transform="translate(106.938622 190.117812)scale(0.1 -0.1)">
       <use xlink:href="#ArialMT-36"/>
      </g>
     </g>
    </g>
    <g id="xtick_4">
     <g id="line2d_4">
      <g>
       <use style="fill:#262626;stroke:#262626;stroke-width:0.8;" x="138.580909" xlink:href="#mfa91407ad3" y="175.96"/>
      </g>
     </g>
     <g id="text_4">
      <!-- 8 -->
      <defs>
       <path d="M 17.671875 38.8125 
Q 12.203125 40.828125 9.5625 44.53125 
Q 6.9375 48.25 6.9375 53.421875 
Q 6.9375 61.234375 12.546875 66.546875 
Q 18.171875 71.875 27.484375 71.875 
Q 36.859375 71.875 42.578125 66.421875 
Q 48.296875 60.984375 48.296875 53.171875 
Q 48.296875 48.1875 45.671875 44.5 
Q 43.0625 40.828125 37.75 38.8125 
Q 44.34375 36.671875 47.78125 31.875 
Q 51.21875 27.09375 51.21875 20.453125 
Q 51.21875 11.28125 44.71875 5.03125 
Q 38.234375 -1.21875 27.640625 -1.21875 
Q 17.046875 -1.21875 10.546875 5.046875 
Q 4.046875 11.328125 4.046875 20.703125 
Q 4.046875 27.6875 7.59375 32.390625 
Q 11.140625 37.109375 17.671875 38.8125 
z
M 15.921875 53.71875 
Q 15.921875 48.640625 19.1875 45.40625 
Q 22.46875 42.1875 27.6875 42.1875 
Q 32.765625 42.1875 36.015625 45.375 
Q 39.265625 48.578125 39.265625 53.21875 
Q 39.265625 58.0625 35.90625 61.359375 
Q 32.5625 64.65625 27.59375 64.65625 
Q 22.5625 64.65625 19.234375 61.421875 
Q 15.921875 58.203125 15.921875 53.71875 
z
M 13.09375 20.65625 
Q 13.09375 16.890625 14.875 13.375 
Q 16.65625 9.859375 20.171875 7.921875 
Q 23.6875 6 27.734375 6 
Q 34.03125 6 38.125 10.046875 
Q 42.234375 14.109375 42.234375 20.359375 
Q 42.234375 26.703125 38.015625 30.859375 
Q 33.796875 35.015625 27.4375 35.015625 
Q 21.234375 35.015625 17.15625 30.90625 
Q 13.09375 26.8125 13.09375 20.65625 
z
" id="ArialMT-38"/>
      </defs>
      <g style="fill:#262626;" transform="translate(135.80044 190.117812)scale(0.1 -0.1)">
       <use xlink:href="#ArialMT-38"/>
      </g>
     </g>
    </g>
    <g id="xtick_5">
     <g id="line2d_5">
      <g>
       <use style="fill:#262626;stroke:#262626;stroke-width:0.8;" x="167.442727" xlink:href="#mfa91407ad3" y="175.96"/>
      </g>
     </g>
     <g id="text_5">
      <!-- 10 -->
      <defs>
       <path d="M 37.25 0 
L 28.46875 0 
L 28.46875 56 
Q 25.296875 52.984375 20.140625 49.953125 
Q 14.984375 46.921875 10.890625 45.40625 
L 10.890625 53.90625 
Q 18.265625 57.375 23.78125 62.296875 
Q 29.296875 67.234375 31.59375 71.875 
L 37.25 71.875 
z
" id="ArialMT-31"/>
       <path d="M 4.15625 35.296875 
Q 4.15625 48 6.765625 55.734375 
Q 9.375 63.484375 14.515625 67.671875 
Q 19.671875 71.875 27.484375 71.875 
Q 33.25 71.875 37.59375 69.546875 
Q 41.9375 67.234375 44.765625 62.859375 
Q 47.609375 58.5 49.21875 52.21875 
Q 50.828125 45.953125 50.828125 35.296875 
Q 50.828125 22.703125 48.234375 14.96875 
Q 45.65625 7.234375 40.5 3 
Q 35.359375 -1.21875 27.484375 -1.21875 
Q 17.140625 -1.21875 11.234375 6.203125 
Q 4.15625 15.140625 4.15625 35.296875 
z
M 13.1875 35.296875 
Q 13.1875 17.671875 17.3125 11.828125 
Q 21.4375 6 27.484375 6 
Q 33.546875 6 37.671875 11.859375 
Q 41.796875 17.71875 41.796875 35.296875 
Q 41.796875 52.984375 37.671875 58.78125 
Q 33.546875 64.59375 27.390625 64.59375 
Q 21.34375 64.59375 17.71875 59.46875 
Q 13.1875 52.9375 13.1875 35.296875 
z
" id="ArialMT-30"/>
      </defs>
      <g style="fill:#262626;" transform="translate(161.88179 190.117812)scale(0.1 -0.1)">
       <use xlink:href="#ArialMT-31"/>
       <use x="55.615234" xlink:href="#ArialMT-30"/>
      </g>
     </g>
    </g>
    <g id="xtick_6">
     <g id="line2d_6">
      <g>
       <use style="fill:#262626;stroke:#262626;stroke-width:0.8;" x="196.304545" xlink:href="#mfa91407ad3" y="175.96"/>
      </g>
     </g>
     <g id="text_6">
      <!-- 12 -->
      <g style="fill:#262626;" transform="translate(190.743608 190.117812)scale(0.1 -0.1)">
       <use xlink:href="#ArialMT-31"/>
       <use x="55.615234" xlink:href="#ArialMT-32"/>
      </g>
     </g>
    </g>
    <g id="text_7">
     <!-- pH -->
     <defs>
      <path d="M 6.59375 -19.875 
L 6.59375 51.859375 
L 14.59375 51.859375 
L 14.59375 45.125 
Q 17.4375 49.078125 21 51.046875 
Q 24.5625 53.03125 29.640625 53.03125 
Q 36.28125 53.03125 41.359375 49.609375 
Q 46.4375 46.1875 49.015625 39.953125 
Q 51.609375 33.734375 51.609375 26.3125 
Q 51.609375 18.359375 48.75 11.984375 
Q 45.90625 5.609375 40.453125 2.21875 
Q 35.015625 -1.171875 29 -1.171875 
Q 24.609375 -1.171875 21.109375 0.6875 
Q 17.625 2.546875 15.375 5.375 
L 15.375 -19.875 
z
M 14.546875 25.640625 
Q 14.546875 15.625 18.59375 10.84375 
Q 22.65625 6.0625 28.421875 6.0625 
Q 34.28125 6.0625 38.453125 11.015625 
Q 42.625 15.96875 42.625 26.375 
Q 42.625 36.28125 38.546875 41.203125 
Q 34.46875 46.140625 28.8125 46.140625 
Q 23.1875 46.140625 18.859375 40.890625 
Q 14.546875 35.640625 14.546875 25.640625 
z
" id="ArialMT-70"/>
      <path d="M 8.015625 0 
L 8.015625 71.578125 
L 17.484375 71.578125 
L 17.484375 42.1875 
L 54.6875 42.1875 
L 54.6875 71.578125 
L 64.15625 71.578125 
L 64.15625 0 
L 54.6875 0 
L 54.6875 33.734375 
L 17.484375 33.734375 
L 17.484375 0 
z
" id="ArialMT-48"/>
     </defs>
     <g style="fill:#262626;" transform="translate(117.758594 203.263125)scale(0.1 -0.1)">
      <use xlink:href="#ArialMT-70"/>
      <use x="55.615234" xlink:href="#ArialMT-48"/>
     </g>
    </g>
   </g>
   <g id="matplotlib.axis_2">
    <g id="ytick_1">
     <g id="line2d_7">
      <defs>
       <path d="M 0 0 
L -3.5 0 
" id="m3da204d9f4" style="stroke:#262626;stroke-width:0.8;"/>
      </defs>
      <g>
       <use style="fill:#262626;stroke:#262626;stroke-width:0.8;" x="44.78" xlink:href="#m3da204d9f4" y="169.655351"/>
      </g>
     </g>
     <g id="text_8">
      <!-- −2 -->
      <defs>
       <path d="M 52.828125 31.203125 
L 5.5625 31.203125 
L 5.5625 39.40625 
L 52.828125 39.40625 
z
" id="ArialMT-2212"/>
      </defs>
      <g style="fill:#262626;" transform="translate(26.378438 173.234257)scale(0.1 -0.1)">
       <use xlink:href="#ArialMT-2212"/>
       <use x="58.398438" xlink:href="#ArialMT-32"/>
      </g>
     </g>
    </g>
    <g id="ytick_2">
     <g id="line2d_8">
      <g>
       <use style="fill:#262626;stroke:#262626;stroke-width:0.8;" x="44.78" xlink:href="#m3da204d9f4" y="127.574112"/>
      </g>
     </g>
     <g id="text_9">
      <!-- −1 -->
      <g style="fill:#262626;" transform="translate(26.378438 131.153018)scale(0.1 -0.1)">
       <use xlink:href="#ArialMT-2212"/>
       <use x="58.398438" xlink:href="#ArialMT-31"/>
      </g>
     </g>
    </g>
    <g id="ytick_3">
     <g id="line2d_9">
      <g>
       <use style="fill:#262626;stroke:#262626;stroke-width:0.8;" x="44.78" xlink:href="#m3da204d9f4" y="85.492873"/>
      </g>
     </g>
     <g id="text_10">
      <!-- 0 -->
      <g style="fill:#262626;" transform="translate(32.219063 89.071779)scale(0.1 -0.1)">
       <use xlink:href="#ArialMT-30"/>
      </g>
     </g>
    </g>
    <g id="ytick_4">
     <g id="line2d_10">
      <g>
       <use style="fill:#262626;stroke:#262626;stroke-width:0.8;" x="44.78" xlink:href="#m3da204d9f4" y="43.411634"/>
      </g>
     </g>
     <g id="text_11">
      <!-- 1 -->
      <g style="fill:#262626;" transform="translate(32.219063 46.99054)scale(0.1 -0.1)">
       <use xlink:href="#ArialMT-31"/>
      </g>
     </g>
    </g>
    <g id="text_12">
     <!-- $\langle q_\mathsf{total} \rangle$ -->
     <defs>
      <path d="M 8.9375 31.34375 
L 22.703125 75.875 
L 31 75.875 
L 17.234375 31.34375 
L 31 -13.1875 
L 22.703125 -13.1875 
z
" id="DejaVuSans-27e8"/>
      <path d="M 41.703125 8.203125 
Q 38.09375 3.46875 33.171875 1.015625 
Q 28.265625 -1.421875 22.3125 -1.421875 
Q 14.015625 -1.421875 9.296875 4.171875 
Q 4.59375 9.765625 4.59375 19.578125 
Q 4.59375 27.484375 7.5 34.859375 
Q 10.40625 42.234375 15.828125 48.09375 
Q 19.34375 51.90625 23.90625 53.953125 
Q 28.46875 56 33.5 56 
Q 39.546875 56 43.453125 53.609375 
Q 47.359375 51.21875 49.125 46.390625 
L 50.6875 54.59375 
L 59.71875 54.59375 
L 45.125 -20.609375 
L 36.078125 -20.609375 
z
M 13.921875 20.90625 
Q 13.921875 13.671875 16.9375 9.890625 
Q 19.96875 6.109375 25.6875 6.109375 
Q 34.1875 6.109375 40.1875 14.234375 
Q 46.1875 22.359375 46.1875 33.984375 
Q 46.1875 41.015625 43.078125 44.75 
Q 39.984375 48.484375 34.1875 48.484375 
Q 29.9375 48.484375 26.3125 46.5 
Q 22.703125 44.53125 20.015625 40.71875 
Q 17.1875 36.71875 15.546875 31.34375 
Q 13.921875 25.984375 13.921875 20.90625 
z
" id="DejaVuSans-Oblique-71"/>
      <path d="M 18.3125 70.21875 
L 18.3125 54.6875 
L 36.8125 54.6875 
L 36.8125 47.703125 
L 18.3125 47.703125 
L 18.3125 18.015625 
Q 18.3125 11.328125 20.140625 9.421875 
Q 21.96875 7.515625 27.59375 7.515625 
L 36.8125 7.515625 
L 36.8125 0 
L 27.59375 0 
Q 17.1875 0 13.234375 3.875 
Q 9.28125 7.765625 9.28125 18.015625 
L 9.28125 47.703125 
L 2.6875 47.703125 
L 2.6875 54.6875 
L 9.28125 54.6875 
L 9.28125 70.21875 
z
" id="DejaVuSans-74"/>
      <path d="M 30.609375 48.390625 
Q 23.390625 48.390625 19.1875 42.75 
Q 14.984375 37.109375 14.984375 27.296875 
Q 14.984375 17.484375 19.15625 11.84375 
Q 23.34375 6.203125 30.609375 6.203125 
Q 37.796875 6.203125 41.984375 11.859375 
Q 46.1875 17.53125 46.1875 27.296875 
Q 46.1875 37.015625 41.984375 42.703125 
Q 37.796875 48.390625 30.609375 48.390625 
z
M 30.609375 56 
Q 42.328125 56 49.015625 48.375 
Q 55.71875 40.765625 55.71875 27.296875 
Q 55.71875 13.875 49.015625 6.21875 
Q 42.328125 -1.421875 30.609375 -1.421875 
Q 18.84375 -1.421875 12.171875 6.21875 
Q 5.515625 13.875 5.515625 27.296875 
Q 5.515625 40.765625 12.171875 48.375 
Q 18.84375 56 30.609375 56 
z
" id="DejaVuSans-6f"/>
      <path d="M 34.28125 27.484375 
Q 23.390625 27.484375 19.1875 25 
Q 14.984375 22.515625 14.984375 16.5 
Q 14.984375 11.71875 18.140625 8.90625 
Q 21.296875 6.109375 26.703125 6.109375 
Q 34.1875 6.109375 38.703125 11.40625 
Q 43.21875 16.703125 43.21875 25.484375 
L 43.21875 27.484375 
z
M 52.203125 31.203125 
L 52.203125 0 
L 43.21875 0 
L 43.21875 8.296875 
Q 40.140625 3.328125 35.546875 0.953125 
Q 30.953125 -1.421875 24.3125 -1.421875 
Q 15.921875 -1.421875 10.953125 3.296875 
Q 6 8.015625 6 15.921875 
Q 6 25.140625 12.171875 29.828125 
Q 18.359375 34.515625 30.609375 34.515625 
L 43.21875 34.515625 
L 43.21875 35.40625 
Q 43.21875 41.609375 39.140625 45 
Q 35.0625 48.390625 27.6875 48.390625 
Q 23 48.390625 18.546875 47.265625 
Q 14.109375 46.140625 10.015625 43.890625 
L 10.015625 52.203125 
Q 14.9375 54.109375 19.578125 55.046875 
Q 24.21875 56 28.609375 56 
Q 40.484375 56 46.34375 49.84375 
Q 52.203125 43.703125 52.203125 31.203125 
z
" id="DejaVuSans-61"/>
      <path d="M 9.421875 75.984375 
L 18.40625 75.984375 
L 18.40625 0 
L 9.421875 0 
z
" id="DejaVuSans-6c"/>
      <path d="M 30.078125 31.34375 
L 16.3125 -13.1875 
L 8.015625 -13.1875 
L 21.78125 31.34375 
L 8.015625 75.875 
L 16.3125 75.875 
z
" id="DejaVuSans-27e9"/>
     </defs>
     <g style="fill:#262626;" transform="translate(20.278438 115.95)rotate(-90)scale(0.1 -0.1)">
      <use transform="translate(0 0.125)" xlink:href="#DejaVuSans-27e8"/>
      <use transform="translate(39.013672 0.125)" xlink:href="#DejaVuSans-Oblique-71"/>
      <use transform="translate(102.490234 -16.28125)scale(0.7)" xlink:href="#DejaVuSans-74"/>
      <use transform="translate(129.936523 -16.28125)scale(0.7)" xlink:href="#DejaVuSans-6f"/>
      <use transform="translate(172.763672 -16.28125)scale(0.7)" xlink:href="#DejaVuSans-74"/>
      <use transform="translate(200.209961 -16.28125)scale(0.7)" xlink:href="#DejaVuSans-61"/>
      <use transform="translate(243.105469 -16.28125)scale(0.7)" xlink:href="#DejaVuSans-6c"/>
      <use transform="translate(265.288086 0.125)" xlink:href="#DejaVuSans-27e9"/>
     </g>
    </g>
   </g>
   <g id="PolyCollection_1">
    <defs>
     <path d="M 51.995455 -183.718182 
L 51.995455 -78.096505 
L 53.438545 -78.824375 
L 54.881636 -79.559448 
L 56.324727 -80.293931 
L 57.767818 -81.021033 
L 59.210909 -81.735043 
L 60.654 -82.431463 
L 62.097091 -83.107097 
L 63.540182 -83.760013 
L 64.983273 -84.389358 
L 66.426364 -84.995099 
L 67.869455 -85.577832 
L 69.312545 -86.138708 
L 70.755636 -86.679466 
L 72.198727 -87.202423 
L 73.641818 -87.710348 
L 75.084909 -88.20626 
L 76.528 -88.69326 
L 77.971091 -89.174463 
L 79.414182 -89.653016 
L 80.857273 -90.132088 
L 82.300364 -90.614804 
L 83.743455 -91.104106 
L 85.186545 -91.602633 
L 86.629636 -92.112722 
L 88.072727 -92.63654 
L 89.515818 -93.176257 
L 90.958909 -93.734079 
L 92.402 -94.312115 
L 93.845091 -94.912192 
L 95.288182 -95.535675 
L 96.731273 -96.183311 
L 98.174364 -96.855023 
L 99.617455 -97.549641 
L 101.060545 -98.264555 
L 102.503636 -98.995302 
L 103.946727 -99.735106 
L 105.389818 -100.474356 
L 106.832909 -101.200031 
L 108.276 -101.89506 
L 109.719091 -102.537634 
L 111.162182 -103.100508 
L 112.605273 -103.550379 
L 114.048364 -103.847442 
L 115.491455 -103.945301 
L 116.934545 -103.791463 
L 118.377636 -103.328886 
L 119.820727 -102.499452 
L 121.263818 -101.250626 
L 122.706909 -99.546379 
L 124.15 -97.381204 
L 125.593091 -94.791741 
L 127.036182 -91.858067 
L 128.479273 -88.69139 
L 129.922364 -85.413623 
L 131.365455 -82.138142 
L 132.808545 -78.957522 
L 134.251636 -75.938859 
L 135.694727 -73.124583 
L 137.137818 -70.536267 
L 138.580909 -68.179534 
L 140.024 -66.048854 
L 141.467091 -64.131646 
L 142.910182 -62.411452 
L 144.353273 -60.870241 
L 145.796364 -59.48995 
L 147.239455 -58.253453 
L 148.682545 -57.145082 
L 150.125636 -56.150813 
L 151.568727 -55.258232 
L 153.011818 -54.456342 
L 154.454909 -53.735315 
L 155.898 -53.086253 
L 157.341091 -52.501018 
L 158.784182 -51.972148 
L 160.227273 -51.492856 
L 161.670364 -51.057084 
L 163.113455 -50.659563 
L 164.556545 -50.295846 
L 165.999636 -49.962286 
L 167.442727 -49.655945 
L 168.885818 -49.374459 
L 170.328909 -49.115884 
L 171.772 -48.878547 
L 173.215091 -48.660925 
L 174.658182 -48.461577 
L 176.101273 -48.279108 
L 177.544364 -48.112169 
L 178.987455 -47.959478 
L 180.430545 -47.819834 
L 181.873636 -47.692131 
L 183.316727 -47.575352 
L 184.759818 -47.468563 
L 186.202909 -47.370894 
L 187.646 -47.281528 
L 189.089091 -47.199705 
L 190.532182 -47.124725 
L 191.975273 -47.055959 
L 193.418364 -46.992856 
L 194.861455 -46.934943 
L 196.304545 -46.881818 
L 196.304545 -129.971075 
L 196.304545 -129.971075 
L 194.861455 -129.918239 
L 193.418364 -129.86069 
L 191.975273 -129.798046 
L 190.532182 -129.729856 
L 189.089091 -129.655603 
L 187.646 -129.574694 
L 186.202909 -129.48648 
L 184.759818 -129.39026 
L 183.316727 -129.285295 
L 181.873636 -129.170814 
L 180.430545 -129.046001 
L 178.987455 -128.909997 
L 177.544364 -128.761887 
L 176.101273 -128.600716 
L 174.658182 -128.425506 
L 173.215091 -128.235296 
L 171.772 -128.029174 
L 170.328909 -127.806309 
L 168.885818 -127.565948 
L 167.442727 -127.307381 
L 165.999636 -127.029875 
L 164.556545 -126.732588 
L 163.113455 -126.414492 
L 161.670364 -126.074333 
L 160.227273 -125.710664 
L 158.784182 -125.32197 
L 157.341091 -124.906876 
L 155.898 -124.464439 
L 154.454909 -123.994456 
L 153.011818 -123.497787 
L 151.568727 -122.976634 
L 150.125636 -122.434792 
L 148.682545 -121.877875 
L 147.239455 -121.31354 
L 145.796364 -120.751765 
L 144.353273 -120.205167 
L 142.910182 -119.689355 
L 141.467091 -119.223253 
L 140.024 -118.829287 
L 138.580909 -118.533336 
L 137.137818 -118.364358 
L 135.694727 -118.35362 
L 134.251636 -118.533599 
L 132.808545 -118.936671 
L 131.365455 -119.593803 
L 129.922364 -120.533375 
L 128.479273 -121.779785 
L 127.036182 -123.35076 
L 125.593091 -125.251842 
L 124.15 -127.467973 
L 122.706909 -129.955967 
L 121.263818 -132.644464 
L 119.820727 -135.444355 
L 118.377636 -138.264977 
L 116.934545 -141.028056 
L 115.491455 -143.674948 
L 114.048364 -146.167566 
L 112.605273 -148.485548 
L 111.162182 -150.622042 
L 109.719091 -152.579561 
L 108.276 -154.366538 
L 106.832909 -155.994737 
L 105.389818 -157.477444 
L 103.946727 -158.828283 
L 102.503636 -160.060522 
L 101.060545 -161.186697 
L 99.617455 -162.21846 
L 98.174364 -163.166536 
L 96.731273 -164.040731 
L 95.288182 -164.849968 
L 93.845091 -165.602338 
L 92.402 -166.305171 
L 90.958909 -166.96513 
L 89.515818 -167.588289 
L 88.072727 -168.180168 
L 86.629636 -168.745706 
L 85.186545 -169.289263 
L 83.743455 -169.814775 
L 82.300364 -170.326002 
L 80.857273 -170.826745 
L 79.414182 -171.3209 
L 77.971091 -171.812392 
L 76.528 -172.305079 
L 75.084909 -172.802717 
L 73.641818 -173.308989 
L 72.198727 -173.827546 
L 70.755636 -174.361974 
L 69.312545 -174.915654 
L 67.869455 -175.491593 
L 66.426364 -176.092333 
L 64.983273 -176.719991 
L 63.540182 -177.376331 
L 62.097091 -178.062773 
L 60.654 -178.780262 
L 59.210909 -179.529121 
L 57.767818 -180.308985 
L 56.324727 -181.118925 
L 54.881636 -181.957737 
L 53.438545 -182.82434 
L 51.995455 -183.718182 
z
" id="mdac086c1b0" style="stroke:#ffffff;stroke-opacity:0.05;"/>
    </defs>
    <g clip-path="url(#pe004f18059)">
     <use style="fill:#b1400d;fill-opacity:0.05;stroke:#ffffff;stroke-opacity:0.05;" x="0" xlink:href="#mdac086c1b0" y="216"/>
    </g>
   </g>
   <g id="line2d_11">
    <path clip-path="url(#pe004f18059)" d="M 51.995455 85.092657 
L 53.438545 85.175643 
L 54.881636 85.241407 
L 56.324727 85.293572 
L 57.767818 85.334991 
L 59.210909 85.367918 
L 60.654 85.394137 
L 62.097091 85.415065 
L 63.540182 85.431828 
L 64.983273 85.445326 
L 66.426364 85.456284 
L 67.869455 85.465287 
L 69.312545 85.472819 
L 70.755636 85.47928 
L 72.198727 85.485015 
L 73.641818 85.490331 
L 75.084909 85.495511 
L 76.528 85.500831 
L 77.971091 85.506573 
L 79.414182 85.513042 
L 80.857273 85.520584 
L 82.300364 85.529597 
L 83.743455 85.540559 
L 85.186545 85.554052 
L 86.629636 85.570786 
L 88.072727 85.591646 
L 89.515818 85.617727 
L 90.958909 85.650396 
L 92.402 85.691357 
L 93.845091 85.742735 
L 95.288182 85.807178 
L 96.731273 85.887979 
L 98.174364 85.98922 
L 99.617455 86.115949 
L 101.060545 86.274374 
L 102.503636 86.472088 
L 103.946727 86.718305 
L 105.389818 87.0241 
L 106.832909 87.402616 
L 108.276 87.869201 
L 109.719091 88.441403 
L 111.162182 89.138725 
L 112.605273 89.982037 
L 114.048364 90.992496 
L 115.491455 92.189875 
L 116.934545 93.590241 
L 118.377636 95.203068 
L 119.820727 97.028096 
L 121.263818 99.052455 
L 122.706909 101.248827 
L 124.15 103.575412 
L 125.593091 105.978209 
L 127.036182 108.395587 
L 128.479273 110.764413 
L 129.922364 113.026501 
L 131.365455 115.134027 
L 132.808545 117.052904 
L 134.251636 118.763771 
L 135.694727 120.260899 
L 137.137818 121.549688 
L 138.580909 122.643565 
L 140.024 123.56093 
L 141.467091 124.32255 
L 142.910182 124.949596 
L 144.353273 125.462296 
L 145.796364 125.879142 
L 147.239455 126.216503 
L 148.682545 126.488522 
L 150.125636 126.707197 
L 151.568727 126.882567 
L 153.011818 127.022935 
L 154.454909 127.135114 
L 155.898 127.224654 
L 157.341091 127.296053 
L 158.784182 127.352941 
L 160.227273 127.39824 
L 161.670364 127.434291 
L 163.113455 127.462973 
L 164.556545 127.485783 
L 165.999636 127.503919 
L 167.442727 127.518337 
L 168.885818 127.529796 
L 170.328909 127.538903 
L 171.772 127.54614 
L 173.215091 127.55189 
L 174.658182 127.556458 
L 176.101273 127.560088 
L 177.544364 127.562972 
L 178.987455 127.565262 
L 180.430545 127.567082 
L 181.873636 127.568528 
L 183.316727 127.569676 
L 184.759818 127.570589 
L 186.202909 127.571313 
L 187.646 127.571889 
L 189.089091 127.572346 
L 190.532182 127.572709 
L 191.975273 127.572998 
L 193.418364 127.573227 
L 194.861455 127.573409 
L 196.304545 127.573554 
" style="fill:none;opacity:0.9;stroke:#b1400d;stroke-linecap:round;stroke-width:1.5;"/>
   </g>
   <g id="line2d_12">
    <path clip-path="url(#pe004f18059)" d="M 51.995455 85.493275 
L 53.438545 85.493379 
L 54.881636 85.49351 
L 56.324727 85.493675 
L 57.767818 85.493883 
L 59.210909 85.494144 
L 60.654 85.494473 
L 62.097091 85.494887 
L 63.540182 85.495409 
L 64.983273 85.496065 
L 66.426364 85.496891 
L 67.869455 85.497932 
L 69.312545 85.499241 
L 70.755636 85.50089 
L 72.198727 85.502965 
L 73.641818 85.505578 
L 75.084909 85.508866 
L 76.528 85.513005 
L 77.971091 85.518214 
L 79.414182 85.524771 
L 80.857273 85.533022 
L 82.300364 85.543405 
L 83.743455 85.556469 
L 85.186545 85.572905 
L 86.629636 85.593577 
L 88.072727 85.619574 
L 89.515818 85.652256 
L 90.958909 85.693327 
L 92.402 85.744919 
L 93.845091 85.809689 
L 95.288182 85.890944 
L 96.731273 85.992791 
L 98.174364 86.120302 
L 99.617455 86.279722 
L 101.060545 86.478684 
L 102.503636 86.726453 
L 103.946727 87.034159 
L 105.389818 87.415009 
L 106.832909 87.884414 
L 108.276 88.459983 
L 109.719091 89.161271 
L 111.162182 90.009172 
L 112.605273 91.024831 
L 114.048364 92.227946 
L 115.491455 93.634435 
L 116.934545 95.253532 
L 118.377636 97.084645 
L 119.820727 99.1145 
L 121.263818 101.315345 
L 122.706909 103.644978 
L 124.15 106.0491 
L 125.593091 108.465944 
L 127.036182 110.832432 
L 128.479273 113.090613 
L 129.922364 115.193027 
L 131.365455 117.106016 
L 132.808545 118.810645 
L 134.251636 120.301549 
L 135.694727 121.584408 
L 137.137818 122.672838 
L 138.580909 123.585341 
L 140.024 124.342722 
L 141.467091 124.966139 
L 142.910182 125.475779 
L 144.353273 125.890076 
L 145.796364 126.225334 
L 147.239455 126.49563 
L 148.682545 126.712904 
L 150.125636 126.887138 
L 151.568727 127.026591 
L 153.011818 127.138034 
L 154.454909 127.226983 
L 155.898 127.297909 
L 157.341091 127.35442 
L 158.784182 127.399417 
L 160.227273 127.435228 
L 161.670364 127.463717 
L 163.113455 127.486375 
L 164.556545 127.50439 
L 165.999636 127.518711 
L 167.442727 127.530094 
L 168.885818 127.539139 
L 170.328909 127.546328 
L 171.772 127.552039 
L 173.215091 127.556577 
L 174.658182 127.560182 
L 176.101273 127.563046 
L 177.544364 127.565322 
L 178.987455 127.567129 
L 180.430545 127.568565 
L 181.873636 127.569706 
L 183.316727 127.570612 
L 184.759818 127.571332 
L 186.202909 127.571904 
L 187.646 127.572358 
L 189.089091 127.572719 
L 190.532182 127.573005 
L 191.975273 127.573233 
L 193.418364 127.573414 
L 194.861455 127.573557 
L 196.304545 127.573671 
" style="fill:none;opacity:0.7;stroke:#000000;stroke-linecap:round;stroke-width:1.5;"/>
   </g>
   <g id="line2d_13">
    <path clip-path="url(#pe004f18059)" d="M 51.995455 32.281818 
L 53.438545 33.17566 
L 54.881636 34.042263 
L 56.324727 34.881075 
L 57.767818 35.691015 
L 59.210909 36.470879 
L 60.654 37.219738 
L 62.097091 37.937227 
L 63.540182 38.623669 
L 64.983273 39.280009 
L 66.426364 39.907667 
L 67.869455 40.508407 
L 69.312545 41.084346 
L 70.755636 41.638026 
L 72.198727 42.172454 
L 73.641818 42.691011 
L 75.084909 43.197283 
L 76.528 43.694921 
L 77.971091 44.187608 
L 79.414182 44.6791 
L 80.857273 45.173255 
L 82.300364 45.673998 
L 83.743455 46.185225 
L 85.186545 46.710737 
L 86.629636 47.254294 
L 88.072727 47.819832 
L 89.515818 48.411711 
L 90.958909 49.03487 
L 92.402 49.694829 
L 93.845091 50.397662 
L 95.288182 51.150032 
L 96.731273 51.959269 
L 98.174364 52.833464 
L 99.617455 53.78154 
L 101.060545 54.813303 
L 102.503636 55.939478 
L 103.946727 57.171717 
L 105.389818 58.522556 
L 106.832909 60.005263 
L 108.276 61.633462 
L 109.719091 63.420439 
L 111.162182 65.377958 
L 112.605273 67.514452 
L 114.048364 69.832434 
L 115.491455 72.325052 
L 116.934545 74.971944 
L 118.377636 77.735023 
L 119.820727 80.555645 
L 121.263818 83.355536 
L 122.706909 86.044033 
L 124.15 88.532027 
L 125.593091 90.748158 
L 127.036182 92.64924 
L 128.479273 94.220215 
L 129.922364 95.466625 
L 131.365455 96.406197 
L 132.808545 97.063329 
L 134.251636 97.466401 
L 135.694727 97.64638 
L 137.137818 97.635642 
L 138.580909 97.466664 
L 140.024 97.170713 
L 141.467091 96.776747 
L 142.910182 96.310645 
L 144.353273 95.794833 
L 145.796364 95.248235 
L 147.239455 94.68646 
L 148.682545 94.122125 
L 150.125636 93.565208 
L 151.568727 93.023366 
L 153.011818 92.502213 
L 154.454909 92.005544 
L 155.898 91.535561 
L 157.341091 91.093124 
L 158.784182 90.67803 
L 160.227273 90.289336 
L 161.670364 89.925667 
L 163.113455 89.585508 
L 164.556545 89.267412 
L 165.999636 88.970125 
L 167.442727 88.692619 
L 168.885818 88.434052 
L 170.328909 88.193691 
L 171.772 87.970826 
L 173.215091 87.764704 
L 174.658182 87.574494 
L 176.101273 87.399284 
L 177.544364 87.238113 
L 178.987455 87.090003 
L 180.430545 86.953999 
L 181.873636 86.829186 
L 183.316727 86.714705 
L 184.759818 86.60974 
L 186.202909 86.51352 
L 187.646 86.425306 
L 189.089091 86.344397 
L 190.532182 86.270144 
L 191.975273 86.201954 
L 193.418364 86.13931 
L 194.861455 86.081761 
L 196.304545 86.028925 
" style="fill:none;opacity:0.45;stroke:#b1400d;stroke-dasharray:2.775,1.2;stroke-dashoffset:0;stroke-width:0.75;"/>
   </g>
   <g id="line2d_14">
    <path clip-path="url(#pe004f18059)" d="M 51.995455 137.903495 
L 53.438545 137.175625 
L 54.881636 136.440552 
L 56.324727 135.706069 
L 57.767818 134.978967 
L 59.210909 134.264957 
L 60.654 133.568537 
L 62.097091 132.892903 
L 63.540182 132.239987 
L 64.983273 131.610642 
L 66.426364 131.004901 
L 67.869455 130.422168 
L 69.312545 129.861292 
L 70.755636 129.320534 
L 72.198727 128.797577 
L 73.641818 128.289652 
L 75.084909 127.79374 
L 76.528 127.30674 
L 77.971091 126.825537 
L 79.414182 126.346984 
L 80.857273 125.867912 
L 82.300364 125.385196 
L 83.743455 124.895894 
L 85.186545 124.397367 
L 86.629636 123.887278 
L 88.072727 123.36346 
L 89.515818 122.823743 
L 90.958909 122.265921 
L 92.402 121.687885 
L 93.845091 121.087808 
L 95.288182 120.464325 
L 96.731273 119.816689 
L 98.174364 119.144977 
L 99.617455 118.450359 
L 101.060545 117.735445 
L 102.503636 117.004698 
L 103.946727 116.264894 
L 105.389818 115.525644 
L 106.832909 114.799969 
L 108.276 114.10494 
L 109.719091 113.462366 
L 111.162182 112.899492 
L 112.605273 112.449621 
L 114.048364 112.152558 
L 115.491455 112.054699 
L 116.934545 112.208537 
L 118.377636 112.671114 
L 119.820727 113.500548 
L 121.263818 114.749374 
L 122.706909 116.453621 
L 124.15 118.618796 
L 125.593091 121.208259 
L 127.036182 124.141933 
L 128.479273 127.30861 
L 129.922364 130.586377 
L 131.365455 133.861858 
L 132.808545 137.042478 
L 134.251636 140.061141 
L 135.694727 142.875417 
L 137.137818 145.463733 
L 138.580909 147.820466 
L 140.024 149.951146 
L 141.467091 151.868354 
L 142.910182 153.588548 
L 144.353273 155.129759 
L 145.796364 156.51005 
L 147.239455 157.746547 
L 148.682545 158.854918 
L 150.125636 159.849187 
L 151.568727 160.741768 
L 153.011818 161.543658 
L 154.454909 162.264685 
L 155.898 162.913747 
L 157.341091 163.498982 
L 158.784182 164.027852 
L 160.227273 164.507144 
L 161.670364 164.942916 
L 163.113455 165.340437 
L 164.556545 165.704154 
L 165.999636 166.037714 
L 167.442727 166.344055 
L 168.885818 166.625541 
L 170.328909 166.884116 
L 171.772 167.121453 
L 173.215091 167.339075 
L 174.658182 167.538423 
L 176.101273 167.720892 
L 177.544364 167.887831 
L 178.987455 168.040522 
L 180.430545 168.180166 
L 181.873636 168.307869 
L 183.316727 168.424648 
L 184.759818 168.531437 
L 186.202909 168.629106 
L 187.646 168.718472 
L 189.089091 168.800295 
L 190.532182 168.875275 
L 191.975273 168.944041 
L 193.418364 169.007144 
L 194.861455 169.065057 
L 196.304545 169.118182 
" style="fill:none;opacity:0.45;stroke:#b1400d;stroke-dasharray:2.775,1.2;stroke-dashoffset:0;stroke-width:0.75;"/>
   </g>
   <g id="patch_3">
    <path d="M 44.78 175.96 
L 44.78 25.44 
" style="fill:none;stroke:#262626;stroke-linecap:square;stroke-linejoin:miter;stroke-width:0.8;"/>
   </g>
   <g id="patch_4">
    <path d="M 44.78 175.96 
L 203.52 175.96 
" style="fill:none;stroke:#262626;stroke-linecap:square;stroke-linejoin:miter;stroke-width:0.8;"/>
   </g>
   <g id="text_13">
    <!-- Epik-macro SM03 -->
    <defs>
     <path d="M 7.90625 0 
L 7.90625 71.578125 
L 59.671875 71.578125 
L 59.671875 63.140625 
L 17.390625 63.140625 
L 17.390625 41.21875 
L 56.984375 41.21875 
L 56.984375 32.8125 
L 17.390625 32.8125 
L 17.390625 8.453125 
L 61.328125 8.453125 
L 61.328125 0 
z
" id="ArialMT-45"/>
     <path d="M 6.640625 61.46875 
L 6.640625 71.578125 
L 15.4375 71.578125 
L 15.4375 61.46875 
z
M 6.640625 0 
L 6.640625 51.859375 
L 15.4375 51.859375 
L 15.4375 0 
z
" id="ArialMT-69"/>
     <path d="M 6.640625 0 
L 6.640625 71.578125 
L 15.4375 71.578125 
L 15.4375 30.765625 
L 36.234375 51.859375 
L 47.609375 51.859375 
L 27.78125 32.625 
L 49.609375 0 
L 38.765625 0 
L 21.625 26.515625 
L 15.4375 20.5625 
L 15.4375 0 
z
" id="ArialMT-6b"/>
     <path d="M 3.171875 21.484375 
L 3.171875 30.328125 
L 30.171875 30.328125 
L 30.171875 21.484375 
z
" id="ArialMT-2d"/>
     <path d="M 6.59375 0 
L 6.59375 51.859375 
L 14.453125 51.859375 
L 14.453125 44.578125 
Q 16.890625 48.390625 20.9375 50.703125 
Q 25 53.03125 30.171875 53.03125 
Q 35.9375 53.03125 39.625 50.640625 
Q 43.3125 48.25 44.828125 43.953125 
Q 50.984375 53.03125 60.84375 53.03125 
Q 68.5625 53.03125 72.703125 48.75 
Q 76.859375 44.484375 76.859375 35.59375 
L 76.859375 0 
L 68.109375 0 
L 68.109375 32.671875 
Q 68.109375 37.9375 67.25 40.25 
Q 66.40625 42.578125 64.15625 43.984375 
Q 61.921875 45.40625 58.890625 45.40625 
Q 53.421875 45.40625 49.796875 41.765625 
Q 46.1875 38.140625 46.1875 30.125 
L 46.1875 0 
L 37.40625 0 
L 37.40625 33.6875 
Q 37.40625 39.546875 35.25 42.46875 
Q 33.109375 45.40625 28.21875 45.40625 
Q 24.515625 45.40625 21.359375 43.453125 
Q 18.21875 41.5 16.796875 37.734375 
Q 15.375 33.984375 15.375 26.90625 
L 15.375 0 
z
" id="ArialMT-6d"/>
     <path d="M 40.4375 6.390625 
Q 35.546875 2.25 31.03125 0.53125 
Q 26.515625 -1.171875 21.34375 -1.171875 
Q 12.796875 -1.171875 8.203125 3 
Q 3.609375 7.171875 3.609375 13.671875 
Q 3.609375 17.484375 5.34375 20.625 
Q 7.078125 23.78125 9.890625 25.6875 
Q 12.703125 27.59375 16.21875 28.5625 
Q 18.796875 29.25 24.03125 29.890625 
Q 34.671875 31.15625 39.703125 32.90625 
Q 39.75 34.71875 39.75 35.203125 
Q 39.75 40.578125 37.25 42.78125 
Q 33.890625 45.75 27.25 45.75 
Q 21.046875 45.75 18.09375 43.578125 
Q 15.140625 41.40625 13.71875 35.890625 
L 5.125 37.0625 
Q 6.296875 42.578125 8.984375 45.96875 
Q 11.671875 49.359375 16.75 51.1875 
Q 21.828125 53.03125 28.515625 53.03125 
Q 35.15625 53.03125 39.296875 51.46875 
Q 43.453125 49.90625 45.40625 47.53125 
Q 47.359375 45.171875 48.140625 41.546875 
Q 48.578125 39.3125 48.578125 33.453125 
L 48.578125 21.734375 
Q 48.578125 9.46875 49.140625 6.21875 
Q 49.703125 2.984375 51.375 0 
L 42.1875 0 
Q 40.828125 2.734375 40.4375 6.390625 
z
M 39.703125 26.03125 
Q 34.90625 24.078125 25.34375 22.703125 
Q 19.921875 21.921875 17.671875 20.9375 
Q 15.4375 19.96875 14.203125 18.09375 
Q 12.984375 16.21875 12.984375 13.921875 
Q 12.984375 10.40625 15.640625 8.0625 
Q 18.3125 5.71875 23.4375 5.71875 
Q 28.515625 5.71875 32.46875 7.9375 
Q 36.421875 10.15625 38.28125 14.015625 
Q 39.703125 17 39.703125 22.796875 
z
" id="ArialMT-61"/>
     <path d="M 40.4375 19 
L 49.078125 17.875 
Q 47.65625 8.9375 41.8125 3.875 
Q 35.984375 -1.171875 27.484375 -1.171875 
Q 16.84375 -1.171875 10.375 5.78125 
Q 3.90625 12.75 3.90625 25.734375 
Q 3.90625 34.125 6.6875 40.421875 
Q 9.46875 46.734375 15.15625 49.875 
Q 20.84375 53.03125 27.546875 53.03125 
Q 35.984375 53.03125 41.359375 48.75 
Q 46.734375 44.484375 48.25 36.625 
L 39.703125 35.296875 
Q 38.484375 40.53125 35.375 43.15625 
Q 32.28125 45.796875 27.875 45.796875 
Q 21.234375 45.796875 17.078125 41.03125 
Q 12.9375 36.28125 12.9375 25.984375 
Q 12.9375 15.53125 16.9375 10.796875 
Q 20.953125 6.0625 27.390625 6.0625 
Q 32.5625 6.0625 36.03125 9.234375 
Q 39.5 12.40625 40.4375 19 
z
" id="ArialMT-63"/>
     <path d="M 6.5 0 
L 6.5 51.859375 
L 14.40625 51.859375 
L 14.40625 44 
Q 17.4375 49.515625 20 51.265625 
Q 22.5625 53.03125 25.640625 53.03125 
Q 30.078125 53.03125 34.671875 50.203125 
L 31.640625 42.046875 
Q 28.421875 43.953125 25.203125 43.953125 
Q 22.3125 43.953125 20.015625 42.21875 
Q 17.71875 40.484375 16.75 37.40625 
Q 15.28125 32.71875 15.28125 27.15625 
L 15.28125 0 
z
" id="ArialMT-72"/>
     <path d="M 3.328125 25.921875 
Q 3.328125 40.328125 11.328125 47.265625 
Q 18.015625 53.03125 27.640625 53.03125 
Q 38.328125 53.03125 45.109375 46.015625 
Q 51.90625 39.015625 51.90625 26.65625 
Q 51.90625 16.65625 48.90625 10.90625 
Q 45.90625 5.171875 40.15625 2 
Q 34.421875 -1.171875 27.640625 -1.171875 
Q 16.75 -1.171875 10.03125 5.8125 
Q 3.328125 12.796875 3.328125 25.921875 
z
M 12.359375 25.921875 
Q 12.359375 15.96875 16.703125 11.015625 
Q 21.046875 6.0625 27.640625 6.0625 
Q 34.1875 6.0625 38.53125 11.03125 
Q 42.875 16.015625 42.875 26.21875 
Q 42.875 35.84375 38.5 40.796875 
Q 34.125 45.75 27.640625 45.75 
Q 21.046875 45.75 16.703125 40.8125 
Q 12.359375 35.890625 12.359375 25.921875 
z
" id="ArialMT-6f"/>
     <path id="ArialMT-20"/>
     <path d="M 4.5 23 
L 13.421875 23.78125 
Q 14.0625 18.40625 16.375 14.96875 
Q 18.703125 11.53125 23.578125 9.40625 
Q 28.46875 7.28125 34.578125 7.28125 
Q 39.984375 7.28125 44.140625 8.890625 
Q 48.296875 10.5 50.3125 13.296875 
Q 52.34375 16.109375 52.34375 19.4375 
Q 52.34375 22.796875 50.390625 25.3125 
Q 48.4375 27.828125 43.953125 29.546875 
Q 41.0625 30.671875 31.203125 33.03125 
Q 21.34375 35.40625 17.390625 37.5 
Q 12.25 40.1875 9.734375 44.15625 
Q 7.234375 48.140625 7.234375 53.078125 
Q 7.234375 58.5 10.296875 63.203125 
Q 13.375 67.921875 19.28125 70.359375 
Q 25.203125 72.796875 32.421875 72.796875 
Q 40.375 72.796875 46.453125 70.234375 
Q 52.546875 67.671875 55.8125 62.6875 
Q 59.078125 57.71875 59.328125 51.421875 
L 50.25 50.734375 
Q 49.515625 57.515625 45.28125 60.984375 
Q 41.0625 64.453125 32.8125 64.453125 
Q 24.21875 64.453125 20.28125 61.296875 
Q 16.359375 58.15625 16.359375 53.71875 
Q 16.359375 49.859375 19.140625 47.359375 
Q 21.875 44.875 33.421875 42.265625 
Q 44.96875 39.65625 49.265625 37.703125 
Q 55.515625 34.8125 58.484375 30.390625 
Q 61.46875 25.984375 61.46875 20.21875 
Q 61.46875 14.5 58.203125 9.4375 
Q 54.9375 4.390625 48.796875 1.578125 
Q 42.671875 -1.21875 35.015625 -1.21875 
Q 25.296875 -1.21875 18.71875 1.609375 
Q 12.15625 4.4375 8.421875 10.125 
Q 4.6875 15.828125 4.5 23 
z
" id="ArialMT-53"/>
     <path d="M 7.421875 0 
L 7.421875 71.578125 
L 21.6875 71.578125 
L 38.625 20.90625 
Q 40.96875 13.8125 42.046875 10.296875 
Q 43.265625 14.203125 45.84375 21.78125 
L 62.984375 71.578125 
L 75.734375 71.578125 
L 75.734375 0 
L 66.609375 0 
L 66.609375 59.90625 
L 45.796875 0 
L 37.25 0 
L 16.546875 60.9375 
L 16.546875 0 
z
" id="ArialMT-4d"/>
     <path d="M 4.203125 18.890625 
L 12.984375 20.0625 
Q 14.5 12.59375 18.140625 9.296875 
Q 21.78125 6 27 6 
Q 33.203125 6 37.46875 10.296875 
Q 41.75 14.59375 41.75 20.953125 
Q 41.75 27 37.796875 30.921875 
Q 33.84375 34.859375 27.734375 34.859375 
Q 25.25 34.859375 21.53125 33.890625 
L 22.515625 41.609375 
Q 23.390625 41.5 23.921875 41.5 
Q 29.546875 41.5 34.03125 44.421875 
Q 38.53125 47.359375 38.53125 53.46875 
Q 38.53125 58.296875 35.25 61.46875 
Q 31.984375 64.65625 26.8125 64.65625 
Q 21.6875 64.65625 18.265625 61.421875 
Q 14.84375 58.203125 13.875 51.765625 
L 5.078125 53.328125 
Q 6.6875 62.15625 12.390625 67.015625 
Q 18.109375 71.875 26.609375 71.875 
Q 32.46875 71.875 37.390625 69.359375 
Q 42.328125 66.84375 44.9375 62.5 
Q 47.5625 58.15625 47.5625 53.265625 
Q 47.5625 48.640625 45.0625 44.828125 
Q 42.578125 41.015625 37.703125 38.765625 
Q 44.046875 37.3125 47.5625 32.6875 
Q 51.078125 28.078125 51.078125 21.140625 
Q 51.078125 11.765625 44.234375 5.25 
Q 37.40625 -1.265625 26.953125 -1.265625 
Q 17.53125 -1.265625 11.296875 4.34375 
Q 5.078125 9.96875 4.203125 18.890625 
z
" id="ArialMT-33"/>
    </defs>
    <g style="fill:#262626;" transform="translate(76.471563 19.44)scale(0.12 -0.12)">
     <use xlink:href="#ArialMT-45"/>
     <use x="66.699219" xlink:href="#ArialMT-70"/>
     <use x="122.314453" xlink:href="#ArialMT-69"/>
     <use x="144.53125" xlink:href="#ArialMT-6b"/>
     <use x="194.53125" xlink:href="#ArialMT-2d"/>
     <use x="227.832031" xlink:href="#ArialMT-6d"/>
     <use x="311.132812" xlink:href="#ArialMT-61"/>
     <use x="366.748047" xlink:href="#ArialMT-63"/>
     <use x="416.748047" xlink:href="#ArialMT-72"/>
     <use x="450.048828" xlink:href="#ArialMT-6f"/>
     <use x="505.664062" xlink:href="#ArialMT-20"/>
     <use x="533.447266" xlink:href="#ArialMT-53"/>
     <use x="600.146484" xlink:href="#ArialMT-4d"/>
     <use x="683.447266" xlink:href="#ArialMT-30"/>
     <use x="739.0625" xlink:href="#ArialMT-33"/>
    </g>
   </g>
  </g>
 </g>
 <defs>
  <clipPath id="pe004f18059">
   <rect height="150.52" width="158.74" x="44.78" y="25.44"/>
  </clipPath>
 </defs>
</svg>
