<?xml version="1.0" encoding="utf-8" standalone="no"?>
<!DOCTYPE svg PUBLIC "-//W3C//DTD SVG 1.1//EN"
  "http://www.w3.org/Graphics/SVG/1.1/DTD/svg11.dtd">
<!-- Created with matplotlib (http://matplotlib.org/) -->
<svg height="144pt" version="1.1" viewBox="0 0 144 144" width="144pt" xmlns="http://www.w3.org/2000/svg" xmlns:xlink="http://www.w3.org/1999/xlink">
 <defs>
  <style type="text/css">
*{stroke-linecap:butt;stroke-linejoin:round;}
  </style>
 </defs>
 <g id="figure_1">
  <g id="patch_1">
   <path d="M 0 144 
L 144 144 
L 144 0 
L 0 0 
z
" style="fill:#ffffff;"/>
  </g>
  <g id="axes_1">
   <g id="patch_2">
    <path d="M 18 126 
L 129.6 126 
L 129.6 17.28 
L 18 17.28 
z
" style="fill:#ffffff;"/>
   </g>
   <g id="matplotlib.axis_1">
    <g id="xtick_1">
     <g id="line2d_1">
      <defs>
       <path d="M 0 0 
L 0 3.5 
" id="m1f3c3c5f2a" style="stroke:#262626;stroke-width:0.8;"/>
      </defs>
      <g>
       <use style="fill:#262626;stroke:#262626;stroke-width:0.8;" x="45.528911" xlink:href="#m1f3c3c5f2a" y="126"/>
      </g>
     </g>
     <g id="text_1">
      <!-- −2 -->
      <defs>
       <path d="M 52.828125 31.203125 
L 5.5625 31.203125 
L 5.5625 39.40625 
L 52.828125 39.40625 
z
" id="ArialMT-2212"/>
       <path d="M 50.34375 8.453125 
L 50.34375 0 
L 3.03125 0 
Q 2.9375 3.171875 4.046875 6.109375 
Q 5.859375 10.9375 9.828125 15.625 
Q 13.8125 20.3125 21.34375 26.46875 
Q 33.015625 36.03125 37.109375 41.625 
Q 41.21875 47.21875 41.21875 52.203125 
Q 41.21875 57.421875 37.46875 61 
Q 33.734375 64.59375 27.734375 64.59375 
Q 21.390625 64.59375 17.578125 60.78125 
Q 13.765625 56.984375 13.71875 50.25 
L 4.6875 51.171875 
Q 5.609375 61.28125 11.65625 66.578125 
Q 17.71875 71.875 27.9375 71.875 
Q 38.234375 71.875 44.234375 66.15625 
Q 50.25 60.453125 50.25 52 
Q 50.25 47.703125 48.484375 43.546875 
Q 46.734375 39.40625 42.65625 34.8125 
Q 38.578125 30.21875 29.109375 22.21875 
Q 21.1875 15.578125 18.9375 13.203125 
Q 16.703125 10.84375 15.234375 8.453125 
z
" id="ArialMT-32"/>
      </defs>
      <g style="fill:#262626;" transform="translate(39.82813 140.157813)scale(0.1 -0.1)">
       <use xlink:href="#ArialMT-2212"/>
       <use x="58.398438" xlink:href="#ArialMT-32"/>
      </g>
     </g>
    </g>
    <g id="xtick_2">
     <g id="line2d_2">
      <g>
       <use style="fill:#262626;stroke:#262626;stroke-width:0.8;" x="84.848923" xlink:href="#m1f3c3c5f2a" y="126"/>
      </g>
     </g>
     <g id="text_2">
      <!-- −1 -->
      <defs>
       <path d="M 37.25 0 
L 28.46875 0 
L 28.46875 56 
Q 25.296875 52.984375 20.140625 49.953125 
Q 14.984375 46.921875 10.890625 45.40625 
L 10.890625 53.90625 
Q 18.265625 57.375 23.78125 62.296875 
Q 29.296875 67.234375 31.59375 71.875 
L 37.25 71.875 
z
" id="ArialMT-31"/>
      </defs>
      <g style="fill:#262626;" transform="translate(79.148142 140.157813)scale(0.1 -0.1)">
       <use xlink:href="#ArialMT-2212"/>
       <use x="58.398438" xlink:href="#ArialMT-31"/>
      </g>
     </g>
    </g>
    <g id="xtick_3">
     <g id="line2d_3">
      <g>
       <use style="fill:#262626;stroke:#262626;stroke-width:0.8;" x="124.168935" xlink:href="#m1f3c3c5f2a" y="126"/>
      </g>
     </g>
     <g id="text_3">
      <!-- 0 -->
      <defs>
       <path d="M 4.15625 35.296875 
Q 4.15625 48 6.765625 55.734375 
Q 9.375 63.484375 14.515625 67.671875 
Q 19.671875 71.875 27.484375 71.875 
Q 33.25 71.875 37.59375 69.546875 
Q 41.9375 67.234375 44.765625 62.859375 
Q 47.609375 58.5 49.21875 52.21875 
Q 50.828125 45.953125 50.828125 35.296875 
Q 50.828125 22.703125 48.234375 14.96875 
Q 45.65625 7.234375 40.5 3 
Q 35.359375 -1.21875 27.484375 -1.21875 
Q 17.140625 -1.21875 11.234375 6.203125 
Q 4.15625 15.140625 4.15625 35.296875 
z
M 13.1875 35.296875 
Q 13.1875 17.671875 17.3125 11.828125 
Q 21.4375 6 27.484375 6 
Q 33.546875 6 37.671875 11.859375 
Q 41.796875 17.71875 41.796875 35.296875 
Q 41.796875 52.984375 37.671875 58.78125 
Q 33.546875 64.59375 27.390625 64.59375 
Q 21.34375 64.59375 17.71875 59.46875 
Q 13.1875 52.9375 13.1875 35.296875 
z
" id="ArialMT-30"/>
      </defs>
      <g style="fill:#262626;" transform="translate(121.388466 140.157813)scale(0.1 -0.1)">
       <use xlink:href="#ArialMT-30"/>
      </g>
     </g>
    </g>
    <g id="text_4">
     <!-- $pKa$ Epik micro - $pKa$ Epik scan -->
     <defs>
      <path d="M 49.609375 33.6875 
Q 49.609375 40.875 46.484375 44.671875 
Q 43.359375 48.484375 37.5 48.484375 
Q 33.5 48.484375 29.859375 46.4375 
Q 26.21875 44.390625 23.390625 40.484375 
Q 20.609375 36.625 18.9375 31.15625 
Q 17.28125 25.6875 17.28125 20.3125 
Q 17.28125 13.484375 20.40625 9.796875 
Q 23.53125 6.109375 29.296875 6.109375 
Q 33.546875 6.109375 37.1875 8.109375 
Q 40.828125 10.109375 43.40625 13.921875 
Q 46.1875 17.921875 47.890625 23.34375 
Q 49.609375 28.765625 49.609375 33.6875 
z
M 21.78125 46.390625 
Q 25.390625 51.125 30.296875 53.5625 
Q 35.203125 56 41.21875 56 
Q 49.609375 56 54.25 50.5 
Q 58.890625 45.015625 58.890625 35.109375 
Q 58.890625 27 56 19.65625 
Q 53.125 12.3125 47.703125 6.5 
Q 44.09375 2.640625 39.546875 0.609375 
Q 35.015625 -1.421875 29.984375 -1.421875 
Q 24.171875 -1.421875 20.21875 1 
Q 16.265625 3.421875 14.3125 8.203125 
L 8.6875 -20.796875 
L -0.296875 -20.796875 
L 14.40625 54.6875 
L 23.390625 54.6875 
z
" id="DejaVuSans-Oblique-70"/>
      <path d="M 16.890625 72.90625 
L 26.8125 72.90625 
L 20.796875 42.1875 
L 59.078125 72.90625 
L 72.21875 72.90625 
L 28.90625 38.09375 
L 60.59375 0 
L 48.578125 0 
L 19.484375 35.5 
L 12.59375 0 
L 2.6875 0 
z
" id="DejaVuSans-Oblique-4b"/>
      <path d="M 53.71875 31.203125 
L 47.609375 0 
L 38.625 0 
L 40.28125 8.296875 
Q 36.328125 3.421875 31.265625 1 
Q 26.21875 -1.421875 20.015625 -1.421875 
Q 13.03125 -1.421875 8.5625 2.84375 
Q 4.109375 7.125 4.109375 13.8125 
Q 4.109375 23.390625 11.75 28.953125 
Q 19.390625 34.515625 32.8125 34.515625 
L 45.3125 34.515625 
L 45.796875 36.921875 
Q 45.90625 37.3125 45.953125 37.765625 
Q 46 38.234375 46 39.203125 
Q 46 43.5625 42.453125 45.96875 
Q 38.921875 48.390625 32.515625 48.390625 
Q 28.125 48.390625 23.5 47.265625 
Q 18.890625 46.140625 14.015625 43.890625 
L 15.578125 52.203125 
Q 20.65625 54.109375 25.515625 55.046875 
Q 30.375 56 34.90625 56 
Q 44.578125 56 49.625 51.796875 
Q 54.6875 47.609375 54.6875 39.59375 
Q 54.6875 37.984375 54.4375 35.8125 
Q 54.203125 33.640625 53.71875 31.203125 
z
M 44 27.484375 
L 35.015625 27.484375 
Q 23.96875 27.484375 18.671875 24.53125 
Q 13.375 21.578125 13.375 15.375 
Q 13.375 11.078125 16.078125 8.640625 
Q 18.796875 6.203125 23.578125 6.203125 
Q 30.90625 6.203125 36.375 11.453125 
Q 41.84375 16.703125 43.609375 25.484375 
z
" id="DejaVuSans-Oblique-61"/>
      <path id="ArialMT-20"/>
      <path d="M 7.90625 0 
L 7.90625 71.578125 
L 59.671875 71.578125 
L 59.671875 63.140625 
L 17.390625 63.140625 
L 17.390625 41.21875 
L 56.984375 41.21875 
L 56.984375 32.8125 
L 17.390625 32.8125 
L 17.390625 8.453125 
L 61.328125 8.453125 
L 61.328125 0 
z
" id="ArialMT-45"/>
      <path d="M 6.59375 -19.875 
L 6.59375 51.859375 
L 14.59375 51.859375 
L 14.59375 45.125 
Q 17.4375 49.078125 21 51.046875 
Q 24.5625 53.03125 29.640625 53.03125 
Q 36.28125 53.03125 41.359375 49.609375 
Q 46.4375 46.1875 49.015625 39.953125 
Q 51.609375 33.734375 51.609375 26.3125 
Q 51.609375 18.359375 48.75 11.984375 
Q 45.90625 5.609375 40.453125 2.21875 
Q 35.015625 -1.171875 29 -1.171875 
Q 24.609375 -1.171875 21.109375 0.6875 
Q 17.625 2.546875 15.375 5.375 
L 15.375 -19.875 
z
M 14.546875 25.640625 
Q 14.546875 15.625 18.59375 10.84375 
Q 22.65625 6.0625 28.421875 6.0625 
Q 34.28125 6.0625 38.453125 11.015625 
Q 42.625 15.96875 42.625 26.375 
Q 42.625 36.28125 38.546875 41.203125 
Q 34.46875 46.140625 28.8125 46.140625 
Q 23.1875 46.140625 18.859375 40.890625 
Q 14.546875 35.640625 14.546875 25.640625 
z
" id="ArialMT-70"/>
      <path d="M 6.640625 61.46875 
L 6.640625 71.578125 
L 15.4375 71.578125 
L 15.4375 61.46875 
z
M 6.640625 0 
L 6.640625 51.859375 
L 15.4375 51.859375 
L 15.4375 0 
z
" id="ArialMT-69"/>
      <path d="M 6.640625 0 
L 6.640625 71.578125 
L 15.4375 71.578125 
L 15.4375 30.765625 
L 36.234375 51.859375 
L 47.609375 51.859375 
L 27.78125 32.625 
L 49.609375 0 
L 38.765625 0 
L 21.625 26.515625 
L 15.4375 20.5625 
L 15.4375 0 
z
" id="ArialMT-6b"/>
      <path d="M 6.59375 0 
L 6.59375 51.859375 
L 14.453125 51.859375 
L 14.453125 44.578125 
Q 16.890625 48.390625 20.9375 50.703125 
Q 25 53.03125 30.171875 53.03125 
Q 35.9375 53.03125 39.625 50.640625 
Q 43.3125 48.25 44.828125 43.953125 
Q 50.984375 53.03125 60.84375 53.03125 
Q 68.5625 53.03125 72.703125 48.75 
Q 76.859375 44.484375 76.859375 35.59375 
L 76.859375 0 
L 68.109375 0 
L 68.109375 32.671875 
Q 68.109375 37.9375 67.25 40.25 
Q 66.40625 42.578125 64.15625 43.984375 
Q 61.921875 45.40625 58.890625 45.40625 
Q 53.421875 45.40625 49.796875 41.765625 
Q 46.1875 38.140625 46.1875 30.125 
L 46.1875 0 
L 37.40625 0 
L 37.40625 33.6875 
Q 37.40625 39.546875 35.25 42.46875 
Q 33.109375 45.40625 28.21875 45.40625 
Q 24.515625 45.40625 21.359375 43.453125 
Q 18.21875 41.5 16.796875 37.734375 
Q 15.375 33.984375 15.375 26.90625 
L 15.375 0 
z
" id="ArialMT-6d"/>
      <path d="M 40.4375 19 
L 49.078125 17.875 
Q 47.65625 8.9375 41.8125 3.875 
Q 35.984375 -1.171875 27.484375 -1.171875 
Q 16.84375 -1.171875 10.375 5.78125 
Q 3.90625 12.75 3.90625 25.734375 
Q 3.90625 34.125 6.6875 40.421875 
Q 9.46875 46.734375 15.15625 49.875 
Q 20.84375 53.03125 27.546875 53.03125 
Q 35.984375 53.03125 41.359375 48.75 
Q 46.734375 44.484375 48.25 36.625 
L 39.703125 35.296875 
Q 38.484375 40.53125 35.375 43.15625 
Q 32.28125 45.796875 27.875 45.796875 
Q 21.234375 45.796875 17.078125 41.03125 
Q 12.9375 36.28125 12.9375 25.984375 
Q 12.9375 15.53125 16.9375 10.796875 
Q 20.953125 6.0625 27.390625 6.0625 
Q 32.5625 6.0625 36.03125 9.234375 
Q 39.5 12.40625 40.4375 19 
z
" id="ArialMT-63"/>
      <path d="M 6.5 0 
L 6.5 51.859375 
L 14.40625 51.859375 
L 14.40625 44 
Q 17.4375 49.515625 20 51.265625 
Q 22.5625 53.03125 25.640625 53.03125 
Q 30.078125 53.03125 34.671875 50.203125 
L 31.640625 42.046875 
Q 28.421875 43.953125 25.203125 43.953125 
Q 22.3125 43.953125 20.015625 42.21875 
Q 17.71875 40.484375 16.75 37.40625 
Q 15.28125 32.71875 15.28125 27.15625 
L 15.28125 0 
z
" id="ArialMT-72"/>
      <path d="M 3.328125 25.921875 
Q 3.328125 40.328125 11.328125 47.265625 
Q 18.015625 53.03125 27.640625 53.03125 
Q 38.328125 53.03125 45.109375 46.015625 
Q 51.90625 39.015625 51.90625 26.65625 
Q 51.90625 16.65625 48.90625 10.90625 
Q 45.90625 5.171875 40.15625 2 
Q 34.421875 -1.171875 27.640625 -1.171875 
Q 16.75 -1.171875 10.03125 5.8125 
Q 3.328125 12.796875 3.328125 25.921875 
z
M 12.359375 25.921875 
Q 12.359375 15.96875 16.703125 11.015625 
Q 21.046875 6.0625 27.640625 6.0625 
Q 34.1875 6.0625 38.53125 11.03125 
Q 42.875 16.015625 42.875 26.21875 
Q 42.875 35.84375 38.5 40.796875 
Q 34.125 45.75 27.640625 45.75 
Q 21.046875 45.75 16.703125 40.8125 
Q 12.359375 35.890625 12.359375 25.921875 
z
" id="ArialMT-6f"/>
      <path d="M 3.171875 21.484375 
L 3.171875 30.328125 
L 30.171875 30.328125 
L 30.171875 21.484375 
z
" id="ArialMT-2d"/>
      <path d="M 3.078125 15.484375 
L 11.765625 16.84375 
Q 12.5 11.625 15.84375 8.84375 
Q 19.1875 6.0625 25.203125 6.0625 
Q 31.25 6.0625 34.171875 8.515625 
Q 37.109375 10.984375 37.109375 14.3125 
Q 37.109375 17.28125 34.515625 19 
Q 32.71875 20.171875 25.53125 21.96875 
Q 15.875 24.421875 12.140625 26.203125 
Q 8.40625 27.984375 6.46875 31.125 
Q 4.546875 34.28125 4.546875 38.09375 
Q 4.546875 41.546875 6.125 44.5 
Q 7.71875 47.46875 10.453125 49.421875 
Q 12.5 50.921875 16.03125 51.96875 
Q 19.578125 53.03125 23.640625 53.03125 
Q 29.734375 53.03125 34.34375 51.265625 
Q 38.96875 49.515625 41.15625 46.5 
Q 43.359375 43.5 44.1875 38.484375 
L 35.59375 37.3125 
Q 35.015625 41.3125 32.203125 43.546875 
Q 29.390625 45.796875 24.265625 45.796875 
Q 18.21875 45.796875 15.625 43.796875 
Q 13.03125 41.796875 13.03125 39.109375 
Q 13.03125 37.40625 14.109375 36.03125 
Q 15.1875 34.625 17.484375 33.6875 
Q 18.796875 33.203125 25.25 31.453125 
Q 34.578125 28.953125 38.25 27.359375 
Q 41.9375 25.78125 44.03125 22.75 
Q 46.140625 19.734375 46.140625 15.234375 
Q 46.140625 10.84375 43.578125 6.953125 
Q 41.015625 3.078125 36.171875 0.953125 
Q 31.34375 -1.171875 25.25 -1.171875 
Q 15.140625 -1.171875 9.84375 3.03125 
Q 4.546875 7.234375 3.078125 15.484375 
z
" id="ArialMT-73"/>
      <path d="M 40.4375 6.390625 
Q 35.546875 2.25 31.03125 0.53125 
Q 26.515625 -1.171875 21.34375 -1.171875 
Q 12.796875 -1.171875 8.203125 3 
Q 3.609375 7.171875 3.609375 13.671875 
Q 3.609375 17.484375 5.34375 20.625 
Q 7.078125 23.78125 9.890625 25.6875 
Q 12.703125 27.59375 16.21875 28.5625 
Q 18.796875 29.25 24.03125 29.890625 
Q 34.671875 31.15625 39.703125 32.90625 
Q 39.75 34.71875 39.75 35.203125 
Q 39.75 40.578125 37.25 42.78125 
Q 33.890625 45.75 27.25 45.75 
Q 21.046875 45.75 18.09375 43.578125 
Q 15.140625 41.40625 13.71875 35.890625 
L 5.125 37.0625 
Q 6.296875 42.578125 8.984375 45.96875 
Q 11.671875 49.359375 16.75 51.1875 
Q 21.828125 53.03125 28.515625 53.03125 
Q 35.15625 53.03125 39.296875 51.46875 
Q 43.453125 49.90625 45.40625 47.53125 
Q 47.359375 45.171875 48.140625 41.546875 
Q 48.578125 39.3125 48.578125 33.453125 
L 48.578125 21.734375 
Q 48.578125 9.46875 49.140625 6.21875 
Q 49.703125 2.984375 51.375 0 
L 42.1875 0 
Q 40.828125 2.734375 40.4375 6.390625 
z
M 39.703125 26.03125 
Q 34.90625 24.078125 25.34375 22.703125 
Q 19.921875 21.921875 17.671875 20.9375 
Q 15.4375 19.96875 14.203125 18.09375 
Q 12.984375 16.21875 12.984375 13.921875 
Q 12.984375 10.40625 15.640625 8.0625 
Q 18.3125 5.71875 23.4375 5.71875 
Q 28.515625 5.71875 32.46875 7.9375 
Q 36.421875 10.15625 38.28125 14.015625 
Q 39.703125 17 39.703125 22.796875 
z
" id="ArialMT-61"/>
      <path d="M 6.59375 0 
L 6.59375 51.859375 
L 14.5 51.859375 
L 14.5 44.484375 
Q 20.21875 53.03125 31 53.03125 
Q 35.6875 53.03125 39.625 51.34375 
Q 43.5625 49.65625 45.515625 46.921875 
Q 47.46875 44.1875 48.25 40.4375 
Q 48.734375 37.984375 48.734375 31.890625 
L 48.734375 0 
L 39.9375 0 
L 39.9375 31.546875 
Q 39.9375 36.921875 38.90625 39.578125 
Q 37.890625 42.234375 35.28125 43.8125 
Q 32.671875 45.40625 29.15625 45.40625 
Q 23.53125 45.40625 19.453125 41.84375 
Q 15.375 38.28125 15.375 28.328125 
L 15.375 0 
z
" id="ArialMT-6e"/>
     </defs>
     <g style="fill:#262626;" transform="translate(2.5 153.445312)scale(0.1 -0.1)">
      <use transform="translate(0 0.09375)" xlink:href="#DejaVuSans-Oblique-70"/>
      <use transform="translate(63.476562 0.09375)" xlink:href="#DejaVuSans-Oblique-4b"/>
      <use transform="translate(129.052734 0.09375)" xlink:href="#DejaVuSans-Oblique-61"/>
      <use transform="translate(190.332031 0.09375)" xlink:href="#ArialMT-20"/>
      <use transform="translate(218.115234 0.09375)" xlink:href="#ArialMT-45"/>
      <use transform="translate(284.814453 0.09375)" xlink:href="#ArialMT-70"/>
      <use transform="translate(340.429688 0.09375)" xlink:href="#ArialMT-69"/>
      <use transform="translate(362.646484 0.09375)" xlink:href="#ArialMT-6b"/>
      <use transform="translate(412.646484 0.09375)" xlink:href="#ArialMT-20"/>
      <use transform="translate(440.429688 0.09375)" xlink:href="#ArialMT-6d"/>
      <use transform="translate(523.730469 0.09375)" xlink:href="#ArialMT-69"/>
      <use transform="translate(545.947266 0.09375)" xlink:href="#ArialMT-63"/>
      <use transform="translate(595.947266 0.09375)" xlink:href="#ArialMT-72"/>
      <use transform="translate(629.248047 0.09375)" xlink:href="#ArialMT-6f"/>
      <use transform="translate(684.863281 0.09375)" xlink:href="#ArialMT-20"/>
      <use transform="translate(712.646484 0.09375)" xlink:href="#ArialMT-2d"/>
      <use transform="translate(745.947266 0.09375)" xlink:href="#ArialMT-20"/>
      <use transform="translate(773.730469 0.09375)" xlink:href="#DejaVuSans-Oblique-70"/>
      <use transform="translate(837.207031 0.09375)" xlink:href="#DejaVuSans-Oblique-4b"/>
      <use transform="translate(902.783203 0.09375)" xlink:href="#DejaVuSans-Oblique-61"/>
      <use transform="translate(964.0625 0.09375)" xlink:href="#ArialMT-20"/>
      <use transform="translate(991.845703 0.09375)" xlink:href="#ArialMT-45"/>
      <use transform="translate(1058.544922 0.09375)" xlink:href="#ArialMT-70"/>
      <use transform="translate(1114.160156 0.09375)" xlink:href="#ArialMT-69"/>
      <use transform="translate(1136.376953 0.09375)" xlink:href="#ArialMT-6b"/>
      <use transform="translate(1186.376953 0.09375)" xlink:href="#ArialMT-20"/>
      <use transform="translate(1214.160156 0.09375)" xlink:href="#ArialMT-73"/>
      <use transform="translate(1264.160156 0.09375)" xlink:href="#ArialMT-63"/>
      <use transform="translate(1314.160156 0.09375)" xlink:href="#ArialMT-61"/>
      <use transform="translate(1369.775391 0.09375)" xlink:href="#ArialMT-6e"/>
     </g>
    </g>
   </g>
   <g id="matplotlib.axis_2"/>
   <g id="PolyCollection_1">
    <defs>
     <path d="M 23.072727 -18 
L 23.072727 -18 
L 23.871582 -18 
L 24.670437 -18 
L 25.469291 -18 
L 26.268146 -18 
L 27.067001 -18 
L 27.865855 -18 
L 28.66471 -18 
L 29.463565 -18 
L 30.262419 -18 
L 31.061274 -18 
L 31.860129 -18 
L 32.658984 -18 
L 33.457838 -18 
L 34.256693 -18 
L 35.055548 -18 
L 35.854402 -18 
L 36.653257 -18 
L 37.452112 -18 
L 38.250966 -18 
L 39.049821 -18 
L 39.848676 -18 
L 40.64753 -18 
L 41.446385 -18 
L 42.24524 -18 
L 43.044094 -18 
L 43.842949 -18 
L 44.641804 -18 
L 45.440659 -18 
L 46.239513 -18 
L 47.038368 -18 
L 47.837223 -18 
L 48.636077 -18 
L 49.434932 -18 
L 50.233787 -18 
L 51.032641 -18 
L 51.831496 -18 
L 52.630351 -18 
L 53.429205 -18 
L 54.22806 -18 
L 55.026915 -18 
L 55.82577 -18 
L 56.624624 -18 
L 57.423479 -18 
L 58.222334 -18 
L 59.021188 -18 
L 59.820043 -18 
L 60.618898 -18 
L 61.417752 -18 
L 62.216607 -18 
L 63.015462 -18 
L 63.814316 -18 
L 64.613171 -18 
L 65.412026 -18 
L 66.21088 -18 
L 67.009735 -18 
L 67.80859 -18 
L 68.607445 -18 
L 69.406299 -18 
L 70.205154 -18 
L 71.004009 -18 
L 71.802863 -18 
L 72.601718 -18 
L 73.400573 -18 
L 74.199427 -18 
L 74.998282 -18 
L 75.797137 -18 
L 76.595991 -18 
L 77.394846 -18 
L 78.193701 -18 
L 78.992555 -18 
L 79.79141 -18 
L 80.590265 -18 
L 81.38912 -18 
L 82.187974 -18 
L 82.986829 -18 
L 83.785684 -18 
L 84.584538 -18 
L 85.383393 -18 
L 86.182248 -18 
L 86.981102 -18 
L 87.779957 -18 
L 88.578812 -18 
L 89.377666 -18 
L 90.176521 -18 
L 90.975376 -18 
L 91.77423 -18 
L 92.573085 -18 
L 93.37194 -18 
L 94.170795 -18 
L 94.969649 -18 
L 95.768504 -18 
L 96.567359 -18 
L 97.366213 -18 
L 98.165068 -18 
L 98.963923 -18 
L 99.762777 -18 
L 100.561632 -18 
L 101.360487 -18 
L 102.159341 -18 
L 102.958196 -18 
L 103.757051 -18 
L 104.555906 -18 
L 105.35476 -18 
L 106.153615 -18 
L 106.95247 -18 
L 107.751324 -18 
L 108.550179 -18 
L 109.349034 -18 
L 110.147888 -18 
L 110.946743 -18 
L 111.745598 -18 
L 112.544452 -18 
L 113.343307 -18 
L 114.142162 -18 
L 114.941016 -18 
L 115.739871 -18 
L 116.538726 -18 
L 117.337581 -18 
L 118.136435 -18 
L 118.93529 -18 
L 119.734145 -18 
L 120.532999 -18 
L 121.331854 -18 
L 122.130709 -18 
L 122.929563 -18 
L 123.728418 -18 
L 124.527273 -18 
L 124.527273 -121.542857 
L 124.527273 -121.542857 
L 123.728418 -70.034087 
L 122.929563 -18 
L 122.130709 -18.709378 
L 121.331854 -18.346054 
L 120.532999 -18 
L 119.734145 -18.720547 
L 118.93529 -18 
L 118.136435 -18.659928 
L 117.337581 -18 
L 116.538726 -18.55325 
L 115.739871 -18 
L 114.941016 -18.458679 
L 114.142162 -18 
L 113.343307 -18.382971 
L 112.544452 -18 
L 111.745598 -18.323615 
L 110.946743 -18 
L 110.147888 -18.277022 
L 109.349034 -18 
L 108.550179 -18.240139 
L 107.751324 -18 
L 106.95247 -18.210635 
L 106.153615 -18 
L 105.35476 -18.186782 
L 104.555906 -18 
L 103.757051 -18.167303 
L 102.958196 -18 
L 102.159341 -18.15125 
L 101.360487 -18 
L 100.561632 -18.137913 
L 99.762777 -18 
L 98.963923 -18.126758 
L 98.165068 -18 
L 97.366213 -18.117373 
L 96.567359 -18 
L 95.768504 -18.109441 
L 94.969649 -18 
L 94.170795 -18.102717 
L 93.37194 -18 
L 92.573085 -18.097006 
L 91.77423 -18 
L 90.975376 -18.092155 
L 90.176521 -18 
L 89.377666 -18.088043 
L 88.578812 -18 
L 87.779957 -18.084571 
L 86.981102 -18 
L 86.182248 -18.081663 
L 85.383393 -18 
L 84.584538 -18.079255 
L 83.785684 -18 
L 82.986829 -18.077299 
L 82.187974 -18 
L 81.38912 -18.075757 
L 80.590265 -18 
L 79.79141 -18.074598 
L 78.992555 -18 
L 78.193701 -18.073801 
L 77.394846 -18 
L 76.595991 -18.073352 
L 75.797137 -18 
L 74.998282 -18.073243 
L 74.199427 -18 
L 73.400573 -18.073471 
L 72.601718 -18 
L 71.802863 -18.074041 
L 71.004009 -18 
L 70.205154 -18.074964 
L 69.406299 -18 
L 68.607445 -18.076256 
L 67.80859 -18 
L 67.009735 -18.077943 
L 66.21088 -18 
L 65.412026 -18.080058 
L 64.613171 -18 
L 63.814316 -18.082643 
L 63.015462 -18 
L 62.216607 -18.085752 
L 61.417752 -18 
L 60.618898 -18.089455 
L 59.820043 -18 
L 59.021188 -18.093837 
L 58.222334 -18 
L 57.423479 -18.099007 
L 56.624624 -18 
L 55.82577 -18.105101 
L 55.026915 -18 
L 54.22806 -18.112291 
L 53.429205 -18 
L 52.630351 -18.120798 
L 51.831496 -18 
L 51.032641 -18.130903 
L 50.233787 -18 
L 49.434932 -18.142974 
L 48.636077 -18 
L 47.837223 -18.157497 
L 47.038368 -18 
L 46.239513 -18.175119 
L 45.440659 -18 
L 44.641804 -18.196717 
L 43.842949 -18 
L 43.044094 -18.223507 
L 42.24524 -18 
L 41.446385 -18.257204 
L 40.64753 -18 
L 39.848676 -18.300288 
L 39.049821 -18 
L 38.250966 -18.356448 
L 37.452112 -18 
L 36.653257 -18.43135 
L 35.854402 -18 
L 35.055548 -18.534042 
L 34.256693 -18 
L 33.457838 -18.679652 
L 32.658984 -18 
L 31.860129 -18.894982 
L 31.061274 -18 
L 30.262419 -19.231101 
L 29.463565 -18 
L 28.66471 -19.795247 
L 27.865855 -18 
L 27.067001 -20.84563 
L 26.268146 -18 
L 25.469291 -23.151858 
L 24.670437 -18 
L 23.871582 -30.144326 
L 23.072727 -18 
z
" id="m44cfa17cf7" style="stroke:#ffffff;stroke-opacity:0.25;"/>
    </defs>
    <g clip-path="url(#pba85126efe)">
     <use style="fill-opacity:0.25;stroke:#ffffff;stroke-opacity:0.25;" x="0" xlink:href="#m44cfa17cf7" y="144"/>
    </g>
   </g>
   <g id="LineCollection_1">
    <path clip-path="url(#pba85126efe)" d="M 124.208255 126 
L 124.208255 120.564 
" style="fill:none;stroke:#000000;"/>
    <path clip-path="url(#pba85126efe)" d="M 124.090295 126 
L 124.090295 120.564 
" style="fill:none;stroke:#000000;"/>
    <path clip-path="url(#pba85126efe)" d="M 124.168935 126 
L 124.168935 120.564 
" style="fill:none;stroke:#000000;"/>
    <path clip-path="url(#pba85126efe)" d="M 124.168935 126 
L 124.168935 120.564 
" style="fill:none;stroke:#000000;"/>
    <path clip-path="url(#pba85126efe)" d="M 124.247575 126 
L 124.247575 120.564 
" style="fill:none;stroke:#000000;"/>
    <path clip-path="url(#pba85126efe)" d="M 124.168935 126 
L 124.168935 120.564 
" style="fill:none;stroke:#000000;"/>
    <path clip-path="url(#pba85126efe)" d="M 124.168935 126 
L 124.168935 120.564 
" style="fill:none;stroke:#000000;"/>
    <path clip-path="url(#pba85126efe)" d="M 124.208255 126 
L 124.208255 120.564 
" style="fill:none;stroke:#000000;"/>
    <path clip-path="url(#pba85126efe)" d="M 124.326215 126 
L 124.326215 120.564 
" style="fill:none;stroke:#000000;"/>
    <path clip-path="url(#pba85126efe)" d="M 124.168935 126 
L 124.168935 120.564 
" style="fill:none;stroke:#000000;"/>
    <path clip-path="url(#pba85126efe)" d="M 124.326215 126 
L 124.326215 120.564 
" style="fill:none;stroke:#000000;"/>
    <path clip-path="url(#pba85126efe)" d="M 124.129615 126 
L 124.129615 120.564 
" style="fill:none;stroke:#000000;"/>
    <path clip-path="url(#pba85126efe)" d="M 124.247575 126 
L 124.247575 120.564 
" style="fill:none;stroke:#000000;"/>
    <path clip-path="url(#pba85126efe)" d="M 124.326215 126 
L 124.326215 120.564 
" style="fill:none;stroke:#000000;"/>
    <path clip-path="url(#pba85126efe)" d="M 124.365535 126 
L 124.365535 120.564 
" style="fill:none;stroke:#000000;"/>
    <path clip-path="url(#pba85126efe)" d="M 124.168935 126 
L 124.168935 120.564 
" style="fill:none;stroke:#000000;"/>
    <path clip-path="url(#pba85126efe)" d="M 124.208255 126 
L 124.208255 120.564 
" style="fill:none;stroke:#000000;"/>
    <path clip-path="url(#pba85126efe)" d="M 124.326215 126 
L 124.326215 120.564 
" style="fill:none;stroke:#000000;"/>
    <path clip-path="url(#pba85126efe)" d="M 124.168935 126 
L 124.168935 120.564 
" style="fill:none;stroke:#000000;"/>
    <path clip-path="url(#pba85126efe)" d="M 124.208255 126 
L 124.208255 120.564 
" style="fill:none;stroke:#000000;"/>
    <path clip-path="url(#pba85126efe)" d="M 124.326215 126 
L 124.326215 120.564 
" style="fill:none;stroke:#000000;"/>
    <path clip-path="url(#pba85126efe)" d="M 124.168935 126 
L 124.168935 120.564 
" style="fill:none;stroke:#000000;"/>
    <path clip-path="url(#pba85126efe)" d="M 124.168935 126 
L 124.168935 120.564 
" style="fill:none;stroke:#000000;"/>
    <path clip-path="url(#pba85126efe)" d="M 124.129615 126 
L 124.129615 120.564 
" style="fill:none;stroke:#000000;"/>
    <path clip-path="url(#pba85126efe)" d="M 124.090295 126 
L 124.090295 120.564 
" style="fill:none;stroke:#000000;"/>
    <path clip-path="url(#pba85126efe)" d="M 124.050975 126 
L 124.050975 120.564 
" style="fill:none;stroke:#000000;"/>
    <path clip-path="url(#pba85126efe)" d="M 124.326215 126 
L 124.326215 120.564 
" style="fill:none;stroke:#000000;"/>
    <path clip-path="url(#pba85126efe)" d="M 124.208255 126 
L 124.208255 120.564 
" style="fill:none;stroke:#000000;"/>
    <path clip-path="url(#pba85126efe)" d="M 124.050975 126 
L 124.050975 120.564 
" style="fill:none;stroke:#000000;"/>
    <path clip-path="url(#pba85126efe)" d="M 124.286895 126 
L 124.286895 120.564 
" style="fill:none;stroke:#000000;"/>
    <path clip-path="url(#pba85126efe)" d="M 23.234465 126 
L 23.234465 120.564 
" style="fill:none;stroke:#000000;"/>
    <path clip-path="url(#pba85126efe)" d="M 124.168935 126 
L 124.168935 120.564 
" style="fill:none;stroke:#000000;"/>
    <path clip-path="url(#pba85126efe)" d="M 124.168935 126 
L 124.168935 120.564 
" style="fill:none;stroke:#000000;"/>
    <path clip-path="url(#pba85126efe)" d="M 124.011655 126 
L 124.011655 120.564 
" style="fill:none;stroke:#000000;"/>
    <path clip-path="url(#pba85126efe)" d="M 124.168935 126 
L 124.168935 120.564 
" style="fill:none;stroke:#000000;"/>
    <path clip-path="url(#pba85126efe)" d="M 124.286895 126 
L 124.286895 120.564 
" style="fill:none;stroke:#000000;"/>
    <path clip-path="url(#pba85126efe)" d="M 124.326215 126 
L 124.326215 120.564 
" style="fill:none;stroke:#000000;"/>
    <path clip-path="url(#pba85126efe)" d="M 124.247575 126 
L 124.247575 120.564 
" style="fill:none;stroke:#000000;"/>
    <path clip-path="url(#pba85126efe)" d="M 124.326215 126 
L 124.326215 120.564 
" style="fill:none;stroke:#000000;"/>
    <path clip-path="url(#pba85126efe)" d="M 124.168935 126 
L 124.168935 120.564 
" style="fill:none;stroke:#000000;"/>
    <path clip-path="url(#pba85126efe)" d="M 124.208255 126 
L 124.208255 120.564 
" style="fill:none;stroke:#000000;"/>
    <path clip-path="url(#pba85126efe)" d="M 124.286895 126 
L 124.286895 120.564 
" style="fill:none;stroke:#000000;"/>
    <path clip-path="url(#pba85126efe)" d="M 124.011655 126 
L 124.011655 120.564 
" style="fill:none;stroke:#000000;"/>
    <path clip-path="url(#pba85126efe)" d="M 124.090295 126 
L 124.090295 120.564 
" style="fill:none;stroke:#000000;"/>
    <path clip-path="url(#pba85126efe)" d="M 124.129615 126 
L 124.129615 120.564 
" style="fill:none;stroke:#000000;"/>
    <path clip-path="url(#pba85126efe)" d="M 124.286895 126 
L 124.286895 120.564 
" style="fill:none;stroke:#000000;"/>
    <path clip-path="url(#pba85126efe)" d="M 124.326215 126 
L 124.326215 120.564 
" style="fill:none;stroke:#000000;"/>
    <path clip-path="url(#pba85126efe)" d="M 124.365535 126 
L 124.365535 120.564 
" style="fill:none;stroke:#000000;"/>
    <path clip-path="url(#pba85126efe)" d="M 124.286895 126 
L 124.286895 120.564 
" style="fill:none;stroke:#000000;"/>
    <path clip-path="url(#pba85126efe)" d="M 124.286895 126 
L 124.286895 120.564 
" style="fill:none;stroke:#000000;"/>
    <path clip-path="url(#pba85126efe)" d="M 124.168935 126 
L 124.168935 120.564 
" style="fill:none;stroke:#000000;"/>
    <path clip-path="url(#pba85126efe)" d="M 124.090295 126 
L 124.090295 120.564 
" style="fill:none;stroke:#000000;"/>
    <path clip-path="url(#pba85126efe)" d="M 124.090295 126 
L 124.090295 120.564 
" style="fill:none;stroke:#000000;"/>
    <path clip-path="url(#pba85126efe)" d="M 124.326215 126 
L 124.326215 120.564 
" style="fill:none;stroke:#000000;"/>
    <path clip-path="url(#pba85126efe)" d="M 124.129615 126 
L 124.129615 120.564 
" style="fill:none;stroke:#000000;"/>
    <path clip-path="url(#pba85126efe)" d="M 124.011655 126 
L 124.011655 120.564 
" style="fill:none;stroke:#000000;"/>
    <path clip-path="url(#pba85126efe)" d="M 124.208255 126 
L 124.208255 120.564 
" style="fill:none;stroke:#000000;"/>
    <path clip-path="url(#pba85126efe)" d="M 124.247575 126 
L 124.247575 120.564 
" style="fill:none;stroke:#000000;"/>
    <path clip-path="url(#pba85126efe)" d="M 124.326215 126 
L 124.326215 120.564 
" style="fill:none;stroke:#000000;"/>
    <path clip-path="url(#pba85126efe)" d="M 124.129615 126 
L 124.129615 120.564 
" style="fill:none;stroke:#000000;"/>
    <path clip-path="url(#pba85126efe)" d="M 124.129615 126 
L 124.129615 120.564 
" style="fill:none;stroke:#000000;"/>
    <path clip-path="url(#pba85126efe)" d="M 124.090295 126 
L 124.090295 120.564 
" style="fill:none;stroke:#000000;"/>
    <path clip-path="url(#pba85126efe)" d="M 124.011655 126 
L 124.011655 120.564 
" style="fill:none;stroke:#000000;"/>
   </g>
   <g id="line2d_4">
    <path clip-path="url(#pba85126efe)" d="M 23.072727 126 
L 23.871582 113.855674 
L 24.670437 126 
L 25.469291 120.848142 
L 26.268146 126 
L 27.067001 123.15437 
L 27.865855 126 
L 28.66471 124.204753 
L 29.463565 126 
L 30.262419 124.768899 
L 31.061274 126 
L 31.860129 125.105018 
L 32.658984 126 
L 33.457838 125.320348 
L 34.256693 126 
L 35.055548 125.465958 
L 35.854402 126 
L 36.653257 125.56865 
L 37.452112 126 
L 38.250966 125.643552 
L 39.049821 126 
L 39.848676 125.699712 
L 40.64753 126 
L 41.446385 125.742796 
L 42.24524 126 
L 43.044094 125.776493 
L 43.842949 126 
L 44.641804 125.803283 
L 45.440659 126 
L 46.239513 125.824881 
L 47.038368 126 
L 47.837223 125.842503 
L 48.636077 126 
L 49.434932 125.857026 
L 50.233787 126 
L 51.032641 125.869097 
L 51.831496 126 
L 52.630351 125.879202 
L 53.429205 126 
L 54.22806 125.887709 
L 55.026915 126 
L 55.82577 125.894899 
L 56.624624 126 
L 57.423479 125.900993 
L 58.222334 126 
L 59.021188 125.906163 
L 59.820043 126 
L 60.618898 125.910545 
L 61.417752 126 
L 62.216607 125.914248 
L 63.015462 126 
L 63.814316 125.917357 
L 64.613171 126 
L 65.412026 125.919942 
L 66.21088 126 
L 67.009735 125.922057 
L 67.80859 126 
L 68.607445 125.923744 
L 69.406299 126 
L 70.205154 125.925036 
L 71.004009 126 
L 71.802863 125.925959 
L 72.601718 126 
L 73.400573 125.926529 
L 74.199427 126 
L 74.998282 125.926757 
L 75.797137 126 
L 76.595991 125.926648 
L 77.394846 126 
L 78.193701 125.926199 
L 78.992555 126 
L 79.79141 125.925402 
L 80.590265 126 
L 81.38912 125.924243 
L 82.187974 126 
L 82.986829 125.922701 
L 83.785684 126 
L 84.584538 125.920745 
L 85.383393 126 
L 86.182248 125.918337 
L 86.981102 126 
L 87.779957 125.915429 
L 88.578812 126 
L 89.377666 125.911957 
L 90.176521 126 
L 90.975376 125.907845 
L 91.77423 126 
L 92.573085 125.902994 
L 93.37194 126 
L 94.170795 125.897283 
L 94.969649 126 
L 95.768504 125.890559 
L 96.567359 126 
L 97.366213 125.882627 
L 98.165068 126 
L 98.963923 125.873242 
L 99.762777 126 
L 100.561632 125.862087 
L 101.360487 126 
L 102.159341 125.84875 
L 102.958196 126 
L 103.757051 125.832697 
L 104.555906 126 
L 105.35476 125.813218 
L 106.153615 126 
L 106.95247 125.789365 
L 107.751324 126 
L 108.550179 125.759861 
L 109.349034 126 
L 110.147888 125.722978 
L 110.946743 126 
L 111.745598 125.676385 
L 112.544452 126 
L 113.343307 125.617029 
L 114.142162 126 
L 114.941016 125.541321 
L 115.739871 126 
L 116.538726 125.44675 
L 117.337581 126 
L 118.136435 125.340072 
L 118.93529 126 
L 119.734145 125.279453 
L 120.532999 126 
L 122.130709 125.290622 
L 122.929563 126 
L 124.527273 22.457143 
L 124.527273 22.457143 
" style="fill:none;stroke:#000000;stroke-linecap:round;stroke-width:1.5;"/>
   </g>
   <g id="line2d_5">
    <path clip-path="url(#pba85126efe)" d="M 124.168935 126 
L 124.168935 17.28 
" style="fill:none;stroke:#000000;stroke-linecap:round;"/>
   </g>
   <g id="patch_3">
    <path d="M 18 126 
L 129.6 126 
" style="fill:none;stroke:#262626;stroke-linecap:square;stroke-linejoin:miter;stroke-width:0.8;"/>
   </g>
  </g>
 </g>
 <defs>
  <clipPath id="pba85126efe">
   <rect height="108.72" width="111.6" x="18" y="17.28"/>
  </clipPath>
 </defs>
</svg>
