<?xml version="1.0" encoding="utf-8" standalone="no"?>
<!DOCTYPE svg PUBLIC "-//W3C//DTD SVG 1.1//EN"
  "http://www.w3.org/Graphics/SVG/1.1/DTD/svg11.dtd">
<!-- Created with matplotlib (http://matplotlib.org/) -->
<svg height="144pt" version="1.1" viewBox="0 0 144 144" width="144pt" xmlns="http://www.w3.org/2000/svg" xmlns:xlink="http://www.w3.org/1999/xlink">
 <defs>
  <style type="text/css">
*{stroke-linecap:butt;stroke-linejoin:round;}
  </style>
 </defs>
 <g id="figure_1">
  <g id="patch_1">
   <path d="M 0 144 
L 144 144 
L 144 0 
L 0 0 
z
" style="fill:#ffffff;"/>
  </g>
  <g id="axes_1">
   <g id="patch_2">
    <path d="M 48.38 101.92 
L 130.44 101.92 
L 130.44 27.48 
L 48.38 27.48 
z
" style="fill:#ffffff;"/>
   </g>
   <g id="matplotlib.axis_1">
    <g id="xtick_1">
     <g id="line2d_1">
      <defs>
       <path d="M 0 0 
L 0 3.5 
" id="m252b7f1fb4" style="stroke:#262626;stroke-width:0.8;"/>
      </defs>
      <g>
       <use style="fill:#262626;stroke:#262626;stroke-width:0.8;" x="52.11" xlink:href="#m252b7f1fb4" y="101.92"/>
      </g>
     </g>
     <g id="text_1">
      <!-- 2 -->
      <defs>
       <path d="M 50.34375 8.453125 
L 50.34375 0 
L 3.03125 0 
Q 2.9375 3.171875 4.046875 6.109375 
Q 5.859375 10.9375 9.828125 15.625 
Q 13.8125 20.3125 21.34375 26.46875 
Q 33.015625 36.03125 37.109375 41.625 
Q 41.21875 47.21875 41.21875 52.203125 
Q 41.21875 57.421875 37.46875 61 
Q 33.734375 64.59375 27.734375 64.59375 
Q 21.390625 64.59375 17.578125 60.78125 
Q 13.765625 56.984375 13.71875 50.25 
L 4.6875 51.171875 
Q 5.609375 61.28125 11.65625 66.578125 
Q 17.71875 71.875 27.9375 71.875 
Q 38.234375 71.875 44.234375 66.15625 
Q 50.25 60.453125 50.25 52 
Q 50.25 47.703125 48.484375 43.546875 
Q 46.734375 39.40625 42.65625 34.8125 
Q 38.578125 30.21875 29.109375 22.21875 
Q 21.1875 15.578125 18.9375 13.203125 
Q 16.703125 10.84375 15.234375 8.453125 
z
" id="ArialMT-32"/>
      </defs>
      <g style="fill:#262626;" transform="translate(49.051484 116.793594)scale(0.11 -0.11)">
       <use xlink:href="#ArialMT-32"/>
      </g>
     </g>
    </g>
    <g id="xtick_2">
     <g id="line2d_2">
      <g>
       <use style="fill:#262626;stroke:#262626;stroke-width:0.8;" x="67.03" xlink:href="#m252b7f1fb4" y="101.92"/>
      </g>
     </g>
     <g id="text_2">
      <!-- 4 -->
      <defs>
       <path d="M 32.328125 0 
L 32.328125 17.140625 
L 1.265625 17.140625 
L 1.265625 25.203125 
L 33.9375 71.578125 
L 41.109375 71.578125 
L 41.109375 25.203125 
L 50.78125 25.203125 
L 50.78125 17.140625 
L 41.109375 17.140625 
L 41.109375 0 
z
M 32.328125 25.203125 
L 32.328125 57.46875 
L 9.90625 25.203125 
z
" id="ArialMT-34"/>
      </defs>
      <g style="fill:#262626;" transform="translate(63.971484 116.793594)scale(0.11 -0.11)">
       <use xlink:href="#ArialMT-34"/>
      </g>
     </g>
    </g>
    <g id="xtick_3">
     <g id="line2d_3">
      <g>
       <use style="fill:#262626;stroke:#262626;stroke-width:0.8;" x="81.95" xlink:href="#m252b7f1fb4" y="101.92"/>
      </g>
     </g>
     <g id="text_3">
      <!-- 6 -->
      <defs>
       <path d="M 49.75 54.046875 
L 41.015625 53.375 
Q 39.84375 58.546875 37.703125 60.890625 
Q 34.125 64.65625 28.90625 64.65625 
Q 24.703125 64.65625 21.53125 62.3125 
Q 17.390625 59.28125 14.984375 53.46875 
Q 12.59375 47.65625 12.5 36.921875 
Q 15.671875 41.75 20.265625 44.09375 
Q 24.859375 46.4375 29.890625 46.4375 
Q 38.671875 46.4375 44.84375 39.96875 
Q 51.03125 33.5 51.03125 23.25 
Q 51.03125 16.5 48.125 10.71875 
Q 45.21875 4.9375 40.140625 1.859375 
Q 35.0625 -1.21875 28.609375 -1.21875 
Q 17.625 -1.21875 10.6875 6.859375 
Q 3.765625 14.9375 3.765625 33.5 
Q 3.765625 54.25 11.421875 63.671875 
Q 18.109375 71.875 29.4375 71.875 
Q 37.890625 71.875 43.28125 67.140625 
Q 48.6875 62.40625 49.75 54.046875 
z
M 13.875 23.1875 
Q 13.875 18.65625 15.796875 14.5 
Q 17.71875 10.359375 21.1875 8.171875 
Q 24.65625 6 28.46875 6 
Q 34.03125 6 38.03125 10.484375 
Q 42.046875 14.984375 42.046875 22.703125 
Q 42.046875 30.125 38.078125 34.390625 
Q 34.125 38.671875 28.125 38.671875 
Q 22.171875 38.671875 18.015625 34.390625 
Q 13.875 30.125 13.875 23.1875 
z
" id="ArialMT-36"/>
      </defs>
      <g style="fill:#262626;" transform="translate(78.891484 116.793594)scale(0.11 -0.11)">
       <use xlink:href="#ArialMT-36"/>
      </g>
     </g>
    </g>
    <g id="xtick_4">
     <g id="line2d_4">
      <g>
       <use style="fill:#262626;stroke:#262626;stroke-width:0.8;" x="96.87" xlink:href="#m252b7f1fb4" y="101.92"/>
      </g>
     </g>
     <g id="text_4">
      <!-- 8 -->
      <defs>
       <path d="M 17.671875 38.8125 
Q 12.203125 40.828125 9.5625 44.53125 
Q 6.9375 48.25 6.9375 53.421875 
Q 6.9375 61.234375 12.546875 66.546875 
Q 18.171875 71.875 27.484375 71.875 
Q 36.859375 71.875 42.578125 66.421875 
Q 48.296875 60.984375 48.296875 53.171875 
Q 48.296875 48.1875 45.671875 44.5 
Q 43.0625 40.828125 37.75 38.8125 
Q 44.34375 36.671875 47.78125 31.875 
Q 51.21875 27.09375 51.21875 20.453125 
Q 51.21875 11.28125 44.71875 5.03125 
Q 38.234375 -1.21875 27.640625 -1.21875 
Q 17.046875 -1.21875 10.546875 5.046875 
Q 4.046875 11.328125 4.046875 20.703125 
Q 4.046875 27.6875 7.59375 32.390625 
Q 11.140625 37.109375 17.671875 38.8125 
z
M 15.921875 53.71875 
Q 15.921875 48.640625 19.1875 45.40625 
Q 22.46875 42.1875 27.6875 42.1875 
Q 32.765625 42.1875 36.015625 45.375 
Q 39.265625 48.578125 39.265625 53.21875 
Q 39.265625 58.0625 35.90625 61.359375 
Q 32.5625 64.65625 27.59375 64.65625 
Q 22.5625 64.65625 19.234375 61.421875 
Q 15.921875 58.203125 15.921875 53.71875 
z
M 13.09375 20.65625 
Q 13.09375 16.890625 14.875 13.375 
Q 16.65625 9.859375 20.171875 7.921875 
Q 23.6875 6 27.734375 6 
Q 34.03125 6 38.125 10.046875 
Q 42.234375 14.109375 42.234375 20.359375 
Q 42.234375 26.703125 38.015625 30.859375 
Q 33.796875 35.015625 27.4375 35.015625 
Q 21.234375 35.015625 17.15625 30.90625 
Q 13.09375 26.8125 13.09375 20.65625 
z
" id="ArialMT-38"/>
      </defs>
      <g style="fill:#262626;" transform="translate(93.811484 116.793594)scale(0.11 -0.11)">
       <use xlink:href="#ArialMT-38"/>
      </g>
     </g>
    </g>
    <g id="xtick_5">
     <g id="line2d_5">
      <g>
       <use style="fill:#262626;stroke:#262626;stroke-width:0.8;" x="111.79" xlink:href="#m252b7f1fb4" y="101.92"/>
      </g>
     </g>
     <g id="text_5">
      <!-- 10 -->
      <defs>
       <path d="M 37.25 0 
L 28.46875 0 
L 28.46875 56 
Q 25.296875 52.984375 20.140625 49.953125 
Q 14.984375 46.921875 10.890625 45.40625 
L 10.890625 53.90625 
Q 18.265625 57.375 23.78125 62.296875 
Q 29.296875 67.234375 31.59375 71.875 
L 37.25 71.875 
z
" id="ArialMT-31"/>
       <path d="M 4.15625 35.296875 
Q 4.15625 48 6.765625 55.734375 
Q 9.375 63.484375 14.515625 67.671875 
Q 19.671875 71.875 27.484375 71.875 
Q 33.25 71.875 37.59375 69.546875 
Q 41.9375 67.234375 44.765625 62.859375 
Q 47.609375 58.5 49.21875 52.21875 
Q 50.828125 45.953125 50.828125 35.296875 
Q 50.828125 22.703125 48.234375 14.96875 
Q 45.65625 7.234375 40.5 3 
Q 35.359375 -1.21875 27.484375 -1.21875 
Q 17.140625 -1.21875 11.234375 6.203125 
Q 4.15625 15.140625 4.15625 35.296875 
z
M 13.1875 35.296875 
Q 13.1875 17.671875 17.3125 11.828125 
Q 21.4375 6 27.484375 6 
Q 33.546875 6 37.671875 11.859375 
Q 41.796875 17.71875 41.796875 35.296875 
Q 41.796875 52.984375 37.671875 58.78125 
Q 33.546875 64.59375 27.390625 64.59375 
Q 21.34375 64.59375 17.71875 59.46875 
Q 13.1875 52.9375 13.1875 35.296875 
z
" id="ArialMT-30"/>
      </defs>
      <g style="fill:#262626;" transform="translate(105.672969 116.793594)scale(0.11 -0.11)">
       <use xlink:href="#ArialMT-31"/>
       <use x="55.615234" xlink:href="#ArialMT-30"/>
      </g>
     </g>
    </g>
    <g id="xtick_6">
     <g id="line2d_6">
      <g>
       <use style="fill:#262626;stroke:#262626;stroke-width:0.8;" x="126.71" xlink:href="#m252b7f1fb4" y="101.92"/>
      </g>
     </g>
     <g id="text_6">
      <!-- 12 -->
      <g style="fill:#262626;" transform="translate(120.592969 116.793594)scale(0.11 -0.11)">
       <use xlink:href="#ArialMT-31"/>
       <use x="55.615234" xlink:href="#ArialMT-32"/>
      </g>
     </g>
    </g>
    <g id="text_7">
     <!-- pH -->
     <defs>
      <path d="M 6.59375 -19.875 
L 6.59375 51.859375 
L 14.59375 51.859375 
L 14.59375 45.125 
Q 17.4375 49.078125 21 51.046875 
Q 24.5625 53.03125 29.640625 53.03125 
Q 36.28125 53.03125 41.359375 49.609375 
Q 46.4375 46.1875 49.015625 39.953125 
Q 51.609375 33.734375 51.609375 26.3125 
Q 51.609375 18.359375 48.75 11.984375 
Q 45.90625 5.609375 40.453125 2.21875 
Q 35.015625 -1.171875 29 -1.171875 
Q 24.609375 -1.171875 21.109375 0.6875 
Q 17.625 2.546875 15.375 5.375 
L 15.375 -19.875 
z
M 14.546875 25.640625 
Q 14.546875 15.625 18.59375 10.84375 
Q 22.65625 6.0625 28.421875 6.0625 
Q 34.28125 6.0625 38.453125 11.015625 
Q 42.625 15.96875 42.625 26.375 
Q 42.625 36.28125 38.546875 41.203125 
Q 34.46875 46.140625 28.8125 46.140625 
Q 23.1875 46.140625 18.859375 40.890625 
Q 14.546875 35.640625 14.546875 25.640625 
z
" id="ArialMT-70"/>
      <path d="M 8.015625 0 
L 8.015625 71.578125 
L 17.484375 71.578125 
L 17.484375 42.1875 
L 54.6875 42.1875 
L 54.6875 71.578125 
L 64.15625 71.578125 
L 64.15625 0 
L 54.6875 0 
L 54.6875 33.734375 
L 17.484375 33.734375 
L 17.484375 0 
z
" id="ArialMT-48"/>
     </defs>
     <g style="fill:#262626;" transform="translate(82.379453 130.853437)scale(0.11 -0.11)">
      <use xlink:href="#ArialMT-70"/>
      <use x="55.615234" xlink:href="#ArialMT-48"/>
     </g>
    </g>
   </g>
   <g id="matplotlib.axis_2">
    <g id="ytick_1">
     <g id="line2d_7">
      <defs>
       <path d="M 0 0 
L -3.5 0 
" id="m8e7bbcee05" style="stroke:#262626;stroke-width:0.8;"/>
      </defs>
      <g>
       <use style="fill:#262626;stroke:#262626;stroke-width:0.8;" x="48.38" xlink:href="#m8e7bbcee05" y="98.205997"/>
      </g>
     </g>
     <g id="text_8">
      <!-- −1 -->
      <defs>
       <path d="M 52.828125 31.203125 
L 5.5625 31.203125 
L 5.5625 39.40625 
L 52.828125 39.40625 
z
" id="ArialMT-2212"/>
      </defs>
      <g style="fill:#262626;" transform="translate(28.838281 102.142794)scale(0.11 -0.11)">
       <use xlink:href="#ArialMT-2212"/>
       <use x="58.398438" xlink:href="#ArialMT-31"/>
      </g>
     </g>
    </g>
    <g id="ytick_2">
     <g id="line2d_8">
      <g>
       <use style="fill:#262626;stroke:#262626;stroke-width:0.8;" x="48.38" xlink:href="#m8e7bbcee05" y="50.159451"/>
      </g>
     </g>
     <g id="text_9">
      <!-- 0 -->
      <g style="fill:#262626;" transform="translate(35.262969 54.096248)scale(0.11 -0.11)">
       <use xlink:href="#ArialMT-30"/>
      </g>
     </g>
    </g>
    <g id="text_10">
     <!-- $\langle q_\mathsf{total} \rangle$ -->
     <defs>
      <path d="M 8.9375 31.34375 
L 22.703125 75.875 
L 31 75.875 
L 17.234375 31.34375 
L 31 -13.1875 
L 22.703125 -13.1875 
z
" id="DejaVuSans-27e8"/>
      <path d="M 41.703125 8.203125 
Q 38.09375 3.46875 33.171875 1.015625 
Q 28.265625 -1.421875 22.3125 -1.421875 
Q 14.015625 -1.421875 9.296875 4.171875 
Q 4.59375 9.765625 4.59375 19.578125 
Q 4.59375 27.484375 7.5 34.859375 
Q 10.40625 42.234375 15.828125 48.09375 
Q 19.34375 51.90625 23.90625 53.953125 
Q 28.46875 56 33.5 56 
Q 39.546875 56 43.453125 53.609375 
Q 47.359375 51.21875 49.125 46.390625 
L 50.6875 54.59375 
L 59.71875 54.59375 
L 45.125 -20.609375 
L 36.078125 -20.609375 
z
M 13.921875 20.90625 
Q 13.921875 13.671875 16.9375 9.890625 
Q 19.96875 6.109375 25.6875 6.109375 
Q 34.1875 6.109375 40.1875 14.234375 
Q 46.1875 22.359375 46.1875 33.984375 
Q 46.1875 41.015625 43.078125 44.75 
Q 39.984375 48.484375 34.1875 48.484375 
Q 29.9375 48.484375 26.3125 46.5 
Q 22.703125 44.53125 20.015625 40.71875 
Q 17.1875 36.71875 15.546875 31.34375 
Q 13.921875 25.984375 13.921875 20.90625 
z
" id="DejaVuSans-Oblique-71"/>
      <path d="M 18.3125 70.21875 
L 18.3125 54.6875 
L 36.8125 54.6875 
L 36.8125 47.703125 
L 18.3125 47.703125 
L 18.3125 18.015625 
Q 18.3125 11.328125 20.140625 9.421875 
Q 21.96875 7.515625 27.59375 7.515625 
L 36.8125 7.515625 
L 36.8125 0 
L 27.59375 0 
Q 17.1875 0 13.234375 3.875 
Q 9.28125 7.765625 9.28125 18.015625 
L 9.28125 47.703125 
L 2.6875 47.703125 
L 2.6875 54.6875 
L 9.28125 54.6875 
L 9.28125 70.21875 
z
" id="DejaVuSans-74"/>
      <path d="M 30.609375 48.390625 
Q 23.390625 48.390625 19.1875 42.75 
Q 14.984375 37.109375 14.984375 27.296875 
Q 14.984375 17.484375 19.15625 11.84375 
Q 23.34375 6.203125 30.609375 6.203125 
Q 37.796875 6.203125 41.984375 11.859375 
Q 46.1875 17.53125 46.1875 27.296875 
Q 46.1875 37.015625 41.984375 42.703125 
Q 37.796875 48.390625 30.609375 48.390625 
z
M 30.609375 56 
Q 42.328125 56 49.015625 48.375 
Q 55.71875 40.765625 55.71875 27.296875 
Q 55.71875 13.875 49.015625 6.21875 
Q 42.328125 -1.421875 30.609375 -1.421875 
Q 18.84375 -1.421875 12.171875 6.21875 
Q 5.515625 13.875 5.515625 27.296875 
Q 5.515625 40.765625 12.171875 48.375 
Q 18.84375 56 30.609375 56 
z
" id="DejaVuSans-6f"/>
      <path d="M 34.28125 27.484375 
Q 23.390625 27.484375 19.1875 25 
Q 14.984375 22.515625 14.984375 16.5 
Q 14.984375 11.71875 18.140625 8.90625 
Q 21.296875 6.109375 26.703125 6.109375 
Q 34.1875 6.109375 38.703125 11.40625 
Q 43.21875 16.703125 43.21875 25.484375 
L 43.21875 27.484375 
z
M 52.203125 31.203125 
L 52.203125 0 
L 43.21875 0 
L 43.21875 8.296875 
Q 40.140625 3.328125 35.546875 0.953125 
Q 30.953125 -1.421875 24.3125 -1.421875 
Q 15.921875 -1.421875 10.953125 3.296875 
Q 6 8.015625 6 15.921875 
Q 6 25.140625 12.171875 29.828125 
Q 18.359375 34.515625 30.609375 34.515625 
L 43.21875 34.515625 
L 43.21875 35.40625 
Q 43.21875 41.609375 39.140625 45 
Q 35.0625 48.390625 27.6875 48.390625 
Q 23 48.390625 18.546875 47.265625 
Q 14.109375 46.140625 10.015625 43.890625 
L 10.015625 52.203125 
Q 14.9375 54.109375 19.578125 55.046875 
Q 24.21875 56 28.609375 56 
Q 40.484375 56 46.34375 49.84375 
Q 52.203125 43.703125 52.203125 31.203125 
z
" id="DejaVuSans-61"/>
      <path d="M 9.421875 75.984375 
L 18.40625 75.984375 
L 18.40625 0 
L 9.421875 0 
z
" id="DejaVuSans-6c"/>
      <path d="M 30.078125 31.34375 
L 16.3125 -13.1875 
L 8.015625 -13.1875 
L 21.78125 31.34375 
L 8.015625 75.875 
L 16.3125 75.875 
z
" id="DejaVuSans-27e9"/>
     </defs>
     <g style="fill:#262626;" transform="translate(22.528281 81.475)rotate(-90)scale(0.11 -0.11)">
      <use transform="translate(0 0.125)" xlink:href="#DejaVuSans-27e8"/>
      <use transform="translate(39.013672 0.125)" xlink:href="#DejaVuSans-Oblique-71"/>
      <use transform="translate(102.490234 -16.28125)scale(0.7)" xlink:href="#DejaVuSans-74"/>
      <use transform="translate(129.936523 -16.28125)scale(0.7)" xlink:href="#DejaVuSans-6f"/>
      <use transform="translate(172.763672 -16.28125)scale(0.7)" xlink:href="#DejaVuSans-74"/>
      <use transform="translate(200.209961 -16.28125)scale(0.7)" xlink:href="#DejaVuSans-61"/>
      <use transform="translate(243.105469 -16.28125)scale(0.7)" xlink:href="#DejaVuSans-6c"/>
      <use transform="translate(265.288086 0.125)" xlink:href="#DejaVuSans-27e9"/>
     </g>
    </g>
   </g>
   <g id="PolyCollection_1">
    <defs>
     <path d="M 52.11 -93.840544 
L 52.11 -93.840544 
L 52.856 -93.840543 
L 53.602 -93.840542 
L 54.348 -93.84054 
L 55.094 -93.840537 
L 55.84 -93.840534 
L 56.586 -93.840531 
L 57.332 -93.840526 
L 58.078 -93.84052 
L 58.824 -93.840513 
L 59.57 -93.840503 
L 60.316 -93.840491 
L 61.062 -93.840476 
L 61.808 -93.840457 
L 62.554 -93.840434 
L 63.3 -93.840404 
L 64.046 -93.840366 
L 64.792 -93.840319 
L 65.538 -93.840259 
L 66.284 -93.840185 
L 67.03 -93.84009 
L 67.776 -93.839971 
L 68.522 -93.839822 
L 69.268 -93.839634 
L 70.014 -93.839396 
L 70.76 -93.839098 
L 71.506 -93.838722 
L 72.252 -93.838249 
L 72.998 -93.837654 
L 73.744 -93.836905 
L 74.49 -93.835961 
L 75.236 -93.834773 
L 75.982 -93.833278 
L 76.728 -93.831396 
L 77.474 -93.829026 
L 78.22 -93.826044 
L 78.966 -93.822289 
L 79.712 -93.817563 
L 80.458 -93.811616 
L 81.204 -93.80413 
L 81.95 -93.794709 
L 82.696 -93.782854 
L 83.442 -93.767938 
L 84.188 -93.749172 
L 84.934 -93.725569 
L 85.68 -93.695888 
L 86.426 -93.658573 
L 87.172 -93.611679 
L 87.918 -93.552774 
L 88.664 -93.478823 
L 89.41 -93.386049 
L 90.156 -93.269765 
L 90.902 -93.124178 
L 91.648 -92.942159 
L 92.394 -92.714993 
L 93.14 -92.432101 
L 93.886 -92.080775 
L 94.632 -91.645937 
L 95.378 -91.109991 
L 96.124 -90.452831 
L 96.87 -89.65213 
L 97.616 -88.684033 
L 98.362 -87.524398 
L 99.108 -86.150733 
L 99.854 -84.544865 
L 100.6 -82.696249 
L 101.346 -80.605563 
L 102.092 -78.287962 
L 102.838 -75.775132 
L 103.584 -73.115258 
L 104.33 -70.370335 
L 105.076 -67.610886 
L 105.822 -64.908933 
L 106.568 -62.330639 
L 107.314 -59.930193 
L 108.06 -57.746024 
L 108.806 -55.799752 
L 109.552 -54.097503 
L 110.298 -52.632789 
L 111.044 -51.390067 
L 111.79 -50.34821 
L 112.536 -49.483465 
L 113.282 -48.771674 
L 114.028 -48.189789 
L 114.774 -47.716763 
L 115.52 -47.333981 
L 116.266 -47.025368 
L 117.012 -46.777294 
L 117.758 -46.57836 
L 118.504 -46.419139 
L 119.25 -46.291899 
L 119.996 -46.190341 
L 120.742 -46.10936 
L 121.488 -46.044839 
L 122.234 -45.993463 
L 122.98 -45.952575 
L 123.726 -45.920047 
L 124.472 -45.894178 
L 125.218 -45.873609 
L 125.964 -45.857258 
L 126.71 -45.844262 
L 126.71 -45.844262 
L 126.71 -45.463636 
L 125.964 -45.54192 
L 125.218 -45.607042 
L 124.472 -45.662373 
L 123.726 -45.710793 
L 122.98 -45.754838 
L 122.234 -45.796822 
L 121.488 -45.838954 
L 120.742 -45.883452 
L 119.996 -45.932652 
L 119.25 -45.989128 
L 118.504 -46.055821 
L 117.758 -46.136175 
L 117.012 -46.234306 
L 116.266 -46.35518 
L 115.52 -46.504829 
L 114.774 -46.690587 
L 114.028 -46.921354 
L 113.282 -47.207877 
L 112.536 -47.56302 
L 111.79 -48.002009 
L 111.044 -48.54258 
L 110.298 -49.204962 
L 109.552 -50.011579 
L 108.806 -50.986348 
L 108.06 -52.153409 
L 107.314 -53.535167 
L 106.568 -55.1496 
L 105.822 -57.006929 
L 105.076 -59.106029 
L 104.33 -61.431196 
L 103.584 -63.950157 
L 102.838 -66.614185 
L 102.092 -69.360887 
L 101.346 -72.119563 
L 100.6 -74.81828 
L 99.854 -77.391201 
L 99.108 -79.784645 
L 98.362 -81.960768 
L 97.616 -83.898529 
L 96.87 -85.5923 
L 96.124 -87.048948 
L 95.378 -88.284271 
L 94.632 -89.319532 
L 93.886 -90.178534 
L 93.14 -90.885418 
L 92.394 -91.463177 
L 91.648 -91.932777 
L 90.902 -92.312747 
L 90.156 -92.619076 
L 89.41 -92.865316 
L 88.664 -93.062794 
L 87.918 -93.220879 
L 87.172 -93.347254 
L 86.426 -93.448178 
L 85.68 -93.528728 
L 84.934 -93.593001 
L 84.188 -93.6443 
L 83.442 -93.685281 
L 82.696 -93.718076 
L 81.95 -93.744402 
L 81.204 -93.765641 
L 80.458 -93.782912 
L 79.712 -93.797127 
L 78.966 -93.809038 
L 78.22 -93.819275 
L 77.474 -93.828383 
L 76.728 -93.836845 
L 75.982 -93.84511 
L 75.236 -93.853617 
L 74.49 -93.862818 
L 73.744 -93.873202 
L 72.998 -93.885319 
L 72.252 -93.899812 
L 71.506 -93.917447 
L 70.76 -93.939155 
L 70.014 -93.96608 
L 69.268 -93.999634 
L 68.522 -94.041572 
L 67.776 -94.094077 
L 67.03 -94.159864 
L 66.284 -94.242311 
L 65.538 -94.345608 
L 64.792 -94.474942 
L 64.046 -94.636709 
L 63.3 -94.838752 
L 62.554 -95.090631 
L 61.808 -95.40389 
L 61.062 -95.792324 
L 60.316 -96.272181 
L 59.57 -96.86225 
L 58.824 -97.583734 
L 58.078 -98.459793 
L 57.332 -99.514612 
L 56.586 -100.771848 
L 55.84 -102.252345 
L 55.094 -103.971148 
L 54.348 -105.933993 
L 53.602 -108.133778 
L 52.856 -110.547758 
L 52.11 -113.136364 
z
" id="m7e7f120240" style="stroke:#ffffff;stroke-opacity:0.7;"/>
    </defs>
    <g clip-path="url(#peb66bfa0b3)">
     <use style="fill:#001c7f;fill-opacity:0.7;stroke:#ffffff;stroke-opacity:0.7;" x="0" xlink:href="#m7e7f120240" y="144"/>
    </g>
   </g>
   <g id="line2d_9">
    <path clip-path="url(#peb66bfa0b3)" d="M 52.11 50.159456 
L 52.856 50.159457 
L 53.602 50.159458 
L 54.348 50.15946 
L 55.094 50.159463 
L 55.84 50.159466 
L 56.586 50.159469 
L 57.332 50.159474 
L 58.078 50.15948 
L 58.824 50.159487 
L 59.57 50.159497 
L 60.316 50.159509 
L 61.062 50.159524 
L 61.808 50.159543 
L 62.554 50.159566 
L 63.3 50.159596 
L 64.046 50.159634 
L 64.792 50.159681 
L 65.538 50.159741 
L 66.284 50.159815 
L 67.03 50.15991 
L 67.776 50.160029 
L 68.522 50.160178 
L 69.268 50.160366 
L 70.014 50.160604 
L 70.76 50.160902 
L 71.506 50.161278 
L 72.252 50.161751 
L 72.998 50.162346 
L 73.744 50.163095 
L 74.49 50.164039 
L 75.236 50.165227 
L 75.982 50.166722 
L 76.728 50.168604 
L 77.474 50.170974 
L 78.22 50.173956 
L 78.966 50.177711 
L 79.712 50.182437 
L 80.458 50.188384 
L 81.204 50.19587 
L 81.95 50.205291 
L 82.696 50.217146 
L 83.442 50.232062 
L 84.188 50.250828 
L 84.934 50.274431 
L 85.68 50.304112 
L 86.426 50.341427 
L 87.172 50.388321 
L 87.918 50.447226 
L 88.664 50.521177 
L 89.41 50.613951 
L 90.156 50.730235 
L 90.902 50.875822 
L 91.648 51.057841 
L 92.394 51.285007 
L 93.14 51.567899 
L 93.886 51.919225 
L 94.632 52.354063 
L 95.378 52.890009 
L 96.124 53.547169 
L 96.87 54.34787 
L 97.616 55.315967 
L 98.362 56.475602 
L 99.108 57.849267 
L 99.854 59.455135 
L 100.6 61.303751 
L 101.346 63.394437 
L 102.092 65.712038 
L 102.838 68.224868 
L 103.584 70.884742 
L 104.33 73.629665 
L 105.076 76.389114 
L 105.822 79.091067 
L 106.568 81.669361 
L 107.314 84.069807 
L 108.06 86.253976 
L 108.806 88.200248 
L 109.552 89.902497 
L 110.298 91.367211 
L 111.044 92.609933 
L 111.79 93.65179 
L 112.536 94.516535 
L 113.282 95.228326 
L 114.028 95.810211 
L 114.774 96.283237 
L 115.52 96.666019 
L 116.266 96.974632 
L 117.012 97.222706 
L 117.758 97.42164 
L 118.504 97.580861 
L 119.25 97.708101 
L 119.996 97.809659 
L 120.742 97.89064 
L 121.488 97.955161 
L 122.234 98.006537 
L 122.98 98.047425 
L 123.726 98.079953 
L 124.472 98.105822 
L 125.218 98.126391 
L 125.964 98.142742 
L 126.71 98.155738 
" style="fill:none;stroke:#333333;stroke-dasharray:1.5,2.475;stroke-dashoffset:0;stroke-width:1.5;"/>
   </g>
   <g id="line2d_10">
    <path clip-path="url(#peb66bfa0b3)" d="M 52.11 30.863636 
L 52.856 33.452242 
L 53.602 35.866222 
L 54.348 38.066007 
L 55.094 40.028852 
L 55.84 41.747655 
L 56.586 43.228152 
L 57.332 44.485388 
L 58.078 45.540207 
L 58.824 46.416266 
L 59.57 47.13775 
L 60.316 47.727819 
L 61.062 48.207676 
L 61.808 48.59611 
L 62.554 48.909369 
L 63.3 49.161248 
L 64.046 49.363291 
L 64.792 49.525058 
L 65.538 49.654392 
L 66.284 49.757689 
L 67.03 49.840136 
L 67.776 49.905923 
L 68.522 49.958428 
L 69.268 50.000366 
L 70.014 50.03392 
L 70.76 50.060845 
L 71.506 50.082553 
L 72.252 50.100188 
L 72.998 50.114681 
L 73.744 50.126798 
L 74.49 50.137182 
L 75.236 50.146383 
L 75.982 50.15489 
L 76.728 50.163155 
L 77.474 50.171617 
L 78.22 50.180725 
L 78.966 50.190962 
L 79.712 50.202873 
L 80.458 50.217088 
L 81.204 50.234359 
L 81.95 50.255598 
L 82.696 50.281924 
L 83.442 50.314719 
L 84.188 50.3557 
L 84.934 50.406999 
L 85.68 50.471272 
L 86.426 50.551822 
L 87.172 50.652746 
L 87.918 50.779121 
L 88.664 50.937206 
L 89.41 51.134684 
L 90.156 51.380924 
L 90.902 51.687253 
L 91.648 52.067223 
L 92.394 52.536823 
L 93.14 53.114582 
L 93.886 53.821466 
L 94.632 54.680468 
L 95.378 55.715729 
L 96.124 56.951052 
L 96.87 58.4077 
L 97.616 60.101471 
L 98.362 62.039232 
L 99.108 64.215355 
L 99.854 66.608799 
L 100.6 69.18172 
L 101.346 71.880437 
L 102.092 74.639113 
L 102.838 77.385815 
L 103.584 80.049843 
L 104.33 82.568804 
L 105.076 84.893971 
L 105.822 86.993071 
L 106.568 88.8504 
L 107.314 90.464833 
L 108.06 91.846591 
L 108.806 93.013652 
L 109.552 93.988421 
L 110.298 94.795038 
L 111.044 95.45742 
L 111.79 95.997991 
L 112.536 96.43698 
L 113.282 96.792123 
L 114.028 97.078646 
L 114.774 97.309413 
L 115.52 97.495171 
L 116.266 97.64482 
L 117.012 97.765694 
L 117.758 97.863825 
L 118.504 97.944179 
L 119.25 98.010872 
L 119.996 98.067348 
L 120.742 98.116548 
L 121.488 98.161046 
L 122.234 98.203178 
L 122.98 98.245162 
L 123.726 98.289207 
L 124.472 98.337627 
L 125.218 98.392958 
L 125.964 98.45808 
L 126.71 98.536364 
" style="fill:none;stroke:#333333;stroke-linecap:round;stroke-width:1.5;"/>
   </g>
   <g id="patch_3">
    <path d="M 48.38 101.92 
L 48.38 27.48 
" style="fill:none;stroke:#262626;stroke-linecap:square;stroke-linejoin:miter;stroke-width:0.8;"/>
   </g>
   <g id="patch_4">
    <path d="M 48.38 101.92 
L 130.44 101.92 
" style="fill:none;stroke:#262626;stroke-linecap:square;stroke-linejoin:miter;stroke-width:0.8;"/>
   </g>
   <g id="text_11">
    <!-- $\Delta$ area : 0.58 -->
    <defs>
     <path d="M 34.1875 63.1875 
L 14.15625 8.203125 
L 54.25 8.203125 
z
M 0.78125 0 
L 28.609375 72.90625 
L 39.796875 72.90625 
L 67.578125 0 
z
" id="DejaVuSans-394"/>
     <path id="ArialMT-20"/>
     <path d="M 40.4375 6.390625 
Q 35.546875 2.25 31.03125 0.53125 
Q 26.515625 -1.171875 21.34375 -1.171875 
Q 12.796875 -1.171875 8.203125 3 
Q 3.609375 7.171875 3.609375 13.671875 
Q 3.609375 17.484375 5.34375 20.625 
Q 7.078125 23.78125 9.890625 25.6875 
Q 12.703125 27.59375 16.21875 28.5625 
Q 18.796875 29.25 24.03125 29.890625 
Q 34.671875 31.15625 39.703125 32.90625 
Q 39.75 34.71875 39.75 35.203125 
Q 39.75 40.578125 37.25 42.78125 
Q 33.890625 45.75 27.25 45.75 
Q 21.046875 45.75 18.09375 43.578125 
Q 15.140625 41.40625 13.71875 35.890625 
L 5.125 37.0625 
Q 6.296875 42.578125 8.984375 45.96875 
Q 11.671875 49.359375 16.75 51.1875 
Q 21.828125 53.03125 28.515625 53.03125 
Q 35.15625 53.03125 39.296875 51.46875 
Q 43.453125 49.90625 45.40625 47.53125 
Q 47.359375 45.171875 48.140625 41.546875 
Q 48.578125 39.3125 48.578125 33.453125 
L 48.578125 21.734375 
Q 48.578125 9.46875 49.140625 6.21875 
Q 49.703125 2.984375 51.375 0 
L 42.1875 0 
Q 40.828125 2.734375 40.4375 6.390625 
z
M 39.703125 26.03125 
Q 34.90625 24.078125 25.34375 22.703125 
Q 19.921875 21.921875 17.671875 20.9375 
Q 15.4375 19.96875 14.203125 18.09375 
Q 12.984375 16.21875 12.984375 13.921875 
Q 12.984375 10.40625 15.640625 8.0625 
Q 18.3125 5.71875 23.4375 5.71875 
Q 28.515625 5.71875 32.46875 7.9375 
Q 36.421875 10.15625 38.28125 14.015625 
Q 39.703125 17 39.703125 22.796875 
z
" id="ArialMT-61"/>
     <path d="M 6.5 0 
L 6.5 51.859375 
L 14.40625 51.859375 
L 14.40625 44 
Q 17.4375 49.515625 20 51.265625 
Q 22.5625 53.03125 25.640625 53.03125 
Q 30.078125 53.03125 34.671875 50.203125 
L 31.640625 42.046875 
Q 28.421875 43.953125 25.203125 43.953125 
Q 22.3125 43.953125 20.015625 42.21875 
Q 17.71875 40.484375 16.75 37.40625 
Q 15.28125 32.71875 15.28125 27.15625 
L 15.28125 0 
z
" id="ArialMT-72"/>
     <path d="M 42.09375 16.703125 
L 51.171875 15.578125 
Q 49.03125 7.625 43.21875 3.21875 
Q 37.40625 -1.171875 28.375 -1.171875 
Q 17 -1.171875 10.328125 5.828125 
Q 3.65625 12.84375 3.65625 25.484375 
Q 3.65625 38.578125 10.390625 45.796875 
Q 17.140625 53.03125 27.875 53.03125 
Q 38.28125 53.03125 44.875 45.953125 
Q 51.46875 38.875 51.46875 26.03125 
Q 51.46875 25.25 51.421875 23.6875 
L 12.75 23.6875 
Q 13.234375 15.140625 17.578125 10.59375 
Q 21.921875 6.0625 28.421875 6.0625 
Q 33.25 6.0625 36.671875 8.59375 
Q 40.09375 11.140625 42.09375 16.703125 
z
M 13.234375 30.90625 
L 42.1875 30.90625 
Q 41.609375 37.453125 38.875 40.71875 
Q 34.671875 45.796875 27.984375 45.796875 
Q 21.921875 45.796875 17.796875 41.75 
Q 13.671875 37.703125 13.234375 30.90625 
z
" id="ArialMT-65"/>
     <path d="M 9.03125 41.84375 
L 9.03125 51.859375 
L 19.046875 51.859375 
L 19.046875 41.84375 
z
M 9.03125 0 
L 9.03125 10.015625 
L 19.046875 10.015625 
L 19.046875 0 
z
" id="ArialMT-3a"/>
     <path d="M 9.078125 0 
L 9.078125 10.015625 
L 19.09375 10.015625 
L 19.09375 0 
z
" id="ArialMT-2e"/>
     <path d="M 4.15625 18.75 
L 13.375 19.53125 
Q 14.40625 12.796875 18.140625 9.390625 
Q 21.875 6 27.15625 6 
Q 33.5 6 37.890625 10.78125 
Q 42.28125 15.578125 42.28125 23.484375 
Q 42.28125 31 38.0625 35.34375 
Q 33.84375 39.703125 27 39.703125 
Q 22.75 39.703125 19.328125 37.765625 
Q 15.921875 35.84375 13.96875 32.765625 
L 5.71875 33.84375 
L 12.640625 70.609375 
L 48.25 70.609375 
L 48.25 62.203125 
L 19.671875 62.203125 
L 15.828125 42.96875 
Q 22.265625 47.46875 29.34375 47.46875 
Q 38.71875 47.46875 45.15625 40.96875 
Q 51.609375 34.46875 51.609375 24.265625 
Q 51.609375 14.546875 45.953125 7.46875 
Q 39.0625 -1.21875 27.15625 -1.21875 
Q 17.390625 -1.21875 11.203125 4.25 
Q 5.03125 9.71875 4.15625 18.75 
z
" id="ArialMT-35"/>
    </defs>
    <g style="fill:#262626;" transform="translate(51.46 21.48)scale(0.132 -0.132)">
     <use transform="translate(0 0.09375)" xlink:href="#DejaVuSans-394"/>
     <use transform="translate(68.408203 0.09375)" xlink:href="#ArialMT-20"/>
     <use transform="translate(96.191406 0.09375)" xlink:href="#ArialMT-61"/>
     <use transform="translate(151.806641 0.09375)" xlink:href="#ArialMT-72"/>
     <use transform="translate(185.107422 0.09375)" xlink:href="#ArialMT-65"/>
     <use transform="translate(240.722656 0.09375)" xlink:href="#ArialMT-61"/>
     <use transform="translate(296.337891 0.09375)" xlink:href="#ArialMT-20"/>
     <use transform="translate(324.121094 0.09375)" xlink:href="#ArialMT-3a"/>
     <use transform="translate(351.904297 0.09375)" xlink:href="#ArialMT-20"/>
     <use transform="translate(379.6875 0.09375)" xlink:href="#ArialMT-30"/>
     <use transform="translate(435.302734 0.09375)" xlink:href="#ArialMT-2e"/>
     <use transform="translate(463.085938 0.09375)" xlink:href="#ArialMT-35"/>
     <use transform="translate(518.701172 0.09375)" xlink:href="#ArialMT-38"/>
    </g>
   </g>
  </g>
 </g>
 <defs>
  <clipPath id="peb66bfa0b3">
   <rect height="74.44" width="82.06" x="48.38" y="27.48"/>
  </clipPath>
 </defs>
</svg>
