<?xml version="1.0" encoding="utf-8" standalone="no"?>
<!DOCTYPE svg PUBLIC "-//W3C//DTD SVG 1.1//EN"
  "http://www.w3.org/Graphics/SVG/1.1/DTD/svg11.dtd">
<!-- Created with matplotlib (http://matplotlib.org/) -->
<svg height="144pt" version="1.1" viewBox="0 0 144 144" width="144pt" xmlns="http://www.w3.org/2000/svg" xmlns:xlink="http://www.w3.org/1999/xlink">
 <defs>
  <style type="text/css">
*{stroke-linecap:butt;stroke-linejoin:round;}
  </style>
 </defs>
 <g id="figure_1">
  <g id="patch_1">
   <path d="M 0 144 
L 144 144 
L 144 0 
L 0 0 
z
" style="fill:#ffffff;"/>
  </g>
  <g id="axes_1">
   <g id="patch_2">
    <path d="M 41.96 101.92 
L 130.44 101.92 
L 130.44 27.48 
L 41.96 27.48 
z
" style="fill:#ffffff;"/>
   </g>
   <g id="matplotlib.axis_1">
    <g id="xtick_1">
     <g id="line2d_1">
      <defs>
       <path d="M 0 0 
L 0 3.5 
" id="m778b055ed0" style="stroke:#262626;stroke-width:0.8;"/>
      </defs>
      <g>
       <use style="fill:#262626;stroke:#262626;stroke-width:0.8;" x="45.981818" xlink:href="#m778b055ed0" y="101.92"/>
      </g>
     </g>
     <g id="text_1">
      <!-- 2 -->
      <defs>
       <path d="M 50.34375 8.453125 
L 50.34375 0 
L 3.03125 0 
Q 2.9375 3.171875 4.046875 6.109375 
Q 5.859375 10.9375 9.828125 15.625 
Q 13.8125 20.3125 21.34375 26.46875 
Q 33.015625 36.03125 37.109375 41.625 
Q 41.21875 47.21875 41.21875 52.203125 
Q 41.21875 57.421875 37.46875 61 
Q 33.734375 64.59375 27.734375 64.59375 
Q 21.390625 64.59375 17.578125 60.78125 
Q 13.765625 56.984375 13.71875 50.25 
L 4.6875 51.171875 
Q 5.609375 61.28125 11.65625 66.578125 
Q 17.71875 71.875 27.9375 71.875 
Q 38.234375 71.875 44.234375 66.15625 
Q 50.25 60.453125 50.25 52 
Q 50.25 47.703125 48.484375 43.546875 
Q 46.734375 39.40625 42.65625 34.8125 
Q 38.578125 30.21875 29.109375 22.21875 
Q 21.1875 15.578125 18.9375 13.203125 
Q 16.703125 10.84375 15.234375 8.453125 
z
" id="ArialMT-32"/>
      </defs>
      <g style="fill:#262626;" transform="translate(42.923303 116.793594)scale(0.11 -0.11)">
       <use xlink:href="#ArialMT-32"/>
      </g>
     </g>
    </g>
    <g id="xtick_2">
     <g id="line2d_2">
      <g>
       <use style="fill:#262626;stroke:#262626;stroke-width:0.8;" x="62.069091" xlink:href="#m778b055ed0" y="101.92"/>
      </g>
     </g>
     <g id="text_2">
      <!-- 4 -->
      <defs>
       <path d="M 32.328125 0 
L 32.328125 17.140625 
L 1.265625 17.140625 
L 1.265625 25.203125 
L 33.9375 71.578125 
L 41.109375 71.578125 
L 41.109375 25.203125 
L 50.78125 25.203125 
L 50.78125 17.140625 
L 41.109375 17.140625 
L 41.109375 0 
z
M 32.328125 25.203125 
L 32.328125 57.46875 
L 9.90625 25.203125 
z
" id="ArialMT-34"/>
      </defs>
      <g style="fill:#262626;" transform="translate(59.010575 116.793594)scale(0.11 -0.11)">
       <use xlink:href="#ArialMT-34"/>
      </g>
     </g>
    </g>
    <g id="xtick_3">
     <g id="line2d_3">
      <g>
       <use style="fill:#262626;stroke:#262626;stroke-width:0.8;" x="78.156364" xlink:href="#m778b055ed0" y="101.92"/>
      </g>
     </g>
     <g id="text_3">
      <!-- 6 -->
      <defs>
       <path d="M 49.75 54.046875 
L 41.015625 53.375 
Q 39.84375 58.546875 37.703125 60.890625 
Q 34.125 64.65625 28.90625 64.65625 
Q 24.703125 64.65625 21.53125 62.3125 
Q 17.390625 59.28125 14.984375 53.46875 
Q 12.59375 47.65625 12.5 36.921875 
Q 15.671875 41.75 20.265625 44.09375 
Q 24.859375 46.4375 29.890625 46.4375 
Q 38.671875 46.4375 44.84375 39.96875 
Q 51.03125 33.5 51.03125 23.25 
Q 51.03125 16.5 48.125 10.71875 
Q 45.21875 4.9375 40.140625 1.859375 
Q 35.0625 -1.21875 28.609375 -1.21875 
Q 17.625 -1.21875 10.6875 6.859375 
Q 3.765625 14.9375 3.765625 33.5 
Q 3.765625 54.25 11.421875 63.671875 
Q 18.109375 71.875 29.4375 71.875 
Q 37.890625 71.875 43.28125 67.140625 
Q 48.6875 62.40625 49.75 54.046875 
z
M 13.875 23.1875 
Q 13.875 18.65625 15.796875 14.5 
Q 17.71875 10.359375 21.1875 8.171875 
Q 24.65625 6 28.46875 6 
Q 34.03125 6 38.03125 10.484375 
Q 42.046875 14.984375 42.046875 22.703125 
Q 42.046875 30.125 38.078125 34.390625 
Q 34.125 38.671875 28.125 38.671875 
Q 22.171875 38.671875 18.015625 34.390625 
Q 13.875 30.125 13.875 23.1875 
z
" id="ArialMT-36"/>
      </defs>
      <g style="fill:#262626;" transform="translate(75.097848 116.793594)scale(0.11 -0.11)">
       <use xlink:href="#ArialMT-36"/>
      </g>
     </g>
    </g>
    <g id="xtick_4">
     <g id="line2d_4">
      <g>
       <use style="fill:#262626;stroke:#262626;stroke-width:0.8;" x="94.243636" xlink:href="#m778b055ed0" y="101.92"/>
      </g>
     </g>
     <g id="text_4">
      <!-- 8 -->
      <defs>
       <path d="M 17.671875 38.8125 
Q 12.203125 40.828125 9.5625 44.53125 
Q 6.9375 48.25 6.9375 53.421875 
Q 6.9375 61.234375 12.546875 66.546875 
Q 18.171875 71.875 27.484375 71.875 
Q 36.859375 71.875 42.578125 66.421875 
Q 48.296875 60.984375 48.296875 53.171875 
Q 48.296875 48.1875 45.671875 44.5 
Q 43.0625 40.828125 37.75 38.8125 
Q 44.34375 36.671875 47.78125 31.875 
Q 51.21875 27.09375 51.21875 20.453125 
Q 51.21875 11.28125 44.71875 5.03125 
Q 38.234375 -1.21875 27.640625 -1.21875 
Q 17.046875 -1.21875 10.546875 5.046875 
Q 4.046875 11.328125 4.046875 20.703125 
Q 4.046875 27.6875 7.59375 32.390625 
Q 11.140625 37.109375 17.671875 38.8125 
z
M 15.921875 53.71875 
Q 15.921875 48.640625 19.1875 45.40625 
Q 22.46875 42.1875 27.6875 42.1875 
Q 32.765625 42.1875 36.015625 45.375 
Q 39.265625 48.578125 39.265625 53.21875 
Q 39.265625 58.0625 35.90625 61.359375 
Q 32.5625 64.65625 27.59375 64.65625 
Q 22.5625 64.65625 19.234375 61.421875 
Q 15.921875 58.203125 15.921875 53.71875 
z
M 13.09375 20.65625 
Q 13.09375 16.890625 14.875 13.375 
Q 16.65625 9.859375 20.171875 7.921875 
Q 23.6875 6 27.734375 6 
Q 34.03125 6 38.125 10.046875 
Q 42.234375 14.109375 42.234375 20.359375 
Q 42.234375 26.703125 38.015625 30.859375 
Q 33.796875 35.015625 27.4375 35.015625 
Q 21.234375 35.015625 17.15625 30.90625 
Q 13.09375 26.8125 13.09375 20.65625 
z
" id="ArialMT-38"/>
      </defs>
      <g style="fill:#262626;" transform="translate(91.185121 116.793594)scale(0.11 -0.11)">
       <use xlink:href="#ArialMT-38"/>
      </g>
     </g>
    </g>
    <g id="xtick_5">
     <g id="line2d_5">
      <g>
       <use style="fill:#262626;stroke:#262626;stroke-width:0.8;" x="110.330909" xlink:href="#m778b055ed0" y="101.92"/>
      </g>
     </g>
     <g id="text_5">
      <!-- 10 -->
      <defs>
       <path d="M 37.25 0 
L 28.46875 0 
L 28.46875 56 
Q 25.296875 52.984375 20.140625 49.953125 
Q 14.984375 46.921875 10.890625 45.40625 
L 10.890625 53.90625 
Q 18.265625 57.375 23.78125 62.296875 
Q 29.296875 67.234375 31.59375 71.875 
L 37.25 71.875 
z
" id="ArialMT-31"/>
       <path d="M 4.15625 35.296875 
Q 4.15625 48 6.765625 55.734375 
Q 9.375 63.484375 14.515625 67.671875 
Q 19.671875 71.875 27.484375 71.875 
Q 33.25 71.875 37.59375 69.546875 
Q 41.9375 67.234375 44.765625 62.859375 
Q 47.609375 58.5 49.21875 52.21875 
Q 50.828125 45.953125 50.828125 35.296875 
Q 50.828125 22.703125 48.234375 14.96875 
Q 45.65625 7.234375 40.5 3 
Q 35.359375 -1.21875 27.484375 -1.21875 
Q 17.140625 -1.21875 11.234375 6.203125 
Q 4.15625 15.140625 4.15625 35.296875 
z
M 13.1875 35.296875 
Q 13.1875 17.671875 17.3125 11.828125 
Q 21.4375 6 27.484375 6 
Q 33.546875 6 37.671875 11.859375 
Q 41.796875 17.71875 41.796875 35.296875 
Q 41.796875 52.984375 37.671875 58.78125 
Q 33.546875 64.59375 27.390625 64.59375 
Q 21.34375 64.59375 17.71875 59.46875 
Q 13.1875 52.9375 13.1875 35.296875 
z
" id="ArialMT-30"/>
      </defs>
      <g style="fill:#262626;" transform="translate(104.213878 116.793594)scale(0.11 -0.11)">
       <use xlink:href="#ArialMT-31"/>
       <use x="55.615234" xlink:href="#ArialMT-30"/>
      </g>
     </g>
    </g>
    <g id="xtick_6">
     <g id="line2d_6">
      <g>
       <use style="fill:#262626;stroke:#262626;stroke-width:0.8;" x="126.418182" xlink:href="#m778b055ed0" y="101.92"/>
      </g>
     </g>
     <g id="text_6">
      <!-- 12 -->
      <g style="fill:#262626;" transform="translate(120.301151 116.793594)scale(0.11 -0.11)">
       <use xlink:href="#ArialMT-31"/>
       <use x="55.615234" xlink:href="#ArialMT-32"/>
      </g>
     </g>
    </g>
    <g id="text_7">
     <!-- pH -->
     <defs>
      <path d="M 6.59375 -19.875 
L 6.59375 51.859375 
L 14.59375 51.859375 
L 14.59375 45.125 
Q 17.4375 49.078125 21 51.046875 
Q 24.5625 53.03125 29.640625 53.03125 
Q 36.28125 53.03125 41.359375 49.609375 
Q 46.4375 46.1875 49.015625 39.953125 
Q 51.609375 33.734375 51.609375 26.3125 
Q 51.609375 18.359375 48.75 11.984375 
Q 45.90625 5.609375 40.453125 2.21875 
Q 35.015625 -1.171875 29 -1.171875 
Q 24.609375 -1.171875 21.109375 0.6875 
Q 17.625 2.546875 15.375 5.375 
L 15.375 -19.875 
z
M 14.546875 25.640625 
Q 14.546875 15.625 18.59375 10.84375 
Q 22.65625 6.0625 28.421875 6.0625 
Q 34.28125 6.0625 38.453125 11.015625 
Q 42.625 15.96875 42.625 26.375 
Q 42.625 36.28125 38.546875 41.203125 
Q 34.46875 46.140625 28.8125 46.140625 
Q 23.1875 46.140625 18.859375 40.890625 
Q 14.546875 35.640625 14.546875 25.640625 
z
" id="ArialMT-70"/>
      <path d="M 8.015625 0 
L 8.015625 71.578125 
L 17.484375 71.578125 
L 17.484375 42.1875 
L 54.6875 42.1875 
L 54.6875 71.578125 
L 64.15625 71.578125 
L 64.15625 0 
L 54.6875 0 
L 54.6875 33.734375 
L 17.484375 33.734375 
L 17.484375 0 
z
" id="ArialMT-48"/>
     </defs>
     <g style="fill:#262626;" transform="translate(79.169453 130.853437)scale(0.11 -0.11)">
      <use xlink:href="#ArialMT-70"/>
      <use x="55.615234" xlink:href="#ArialMT-48"/>
     </g>
    </g>
   </g>
   <g id="matplotlib.axis_2">
    <g id="ytick_1">
     <g id="line2d_7">
      <defs>
       <path d="M 0 0 
L -3.5 0 
" id="m3562e9241d" style="stroke:#262626;stroke-width:0.8;"/>
      </defs>
      <g>
       <use style="fill:#262626;stroke:#262626;stroke-width:0.8;" x="41.96" xlink:href="#m3562e9241d" y="93.988508"/>
      </g>
     </g>
     <g id="text_8">
      <!-- 0 -->
      <g style="fill:#262626;" transform="translate(28.842969 97.925305)scale(0.11 -0.11)">
       <use xlink:href="#ArialMT-30"/>
      </g>
     </g>
    </g>
    <g id="ytick_2">
     <g id="line2d_8">
      <g>
       <use style="fill:#262626;stroke:#262626;stroke-width:0.8;" x="41.96" xlink:href="#m3562e9241d" y="30.852916"/>
      </g>
     </g>
     <g id="text_9">
      <!-- 1 -->
      <g style="fill:#262626;" transform="translate(28.842969 34.789713)scale(0.11 -0.11)">
       <use xlink:href="#ArialMT-31"/>
      </g>
     </g>
    </g>
    <g id="text_10">
     <!-- $\langle q_\mathsf{total} \rangle$ -->
     <defs>
      <path d="M 8.9375 31.34375 
L 22.703125 75.875 
L 31 75.875 
L 17.234375 31.34375 
L 31 -13.1875 
L 22.703125 -13.1875 
z
" id="DejaVuSans-27e8"/>
      <path d="M 41.703125 8.203125 
Q 38.09375 3.46875 33.171875 1.015625 
Q 28.265625 -1.421875 22.3125 -1.421875 
Q 14.015625 -1.421875 9.296875 4.171875 
Q 4.59375 9.765625 4.59375 19.578125 
Q 4.59375 27.484375 7.5 34.859375 
Q 10.40625 42.234375 15.828125 48.09375 
Q 19.34375 51.90625 23.90625 53.953125 
Q 28.46875 56 33.5 56 
Q 39.546875 56 43.453125 53.609375 
Q 47.359375 51.21875 49.125 46.390625 
L 50.6875 54.59375 
L 59.71875 54.59375 
L 45.125 -20.609375 
L 36.078125 -20.609375 
z
M 13.921875 20.90625 
Q 13.921875 13.671875 16.9375 9.890625 
Q 19.96875 6.109375 25.6875 6.109375 
Q 34.1875 6.109375 40.1875 14.234375 
Q 46.1875 22.359375 46.1875 33.984375 
Q 46.1875 41.015625 43.078125 44.75 
Q 39.984375 48.484375 34.1875 48.484375 
Q 29.9375 48.484375 26.3125 46.5 
Q 22.703125 44.53125 20.015625 40.71875 
Q 17.1875 36.71875 15.546875 31.34375 
Q 13.921875 25.984375 13.921875 20.90625 
z
" id="DejaVuSans-Oblique-71"/>
      <path d="M 18.3125 70.21875 
L 18.3125 54.6875 
L 36.8125 54.6875 
L 36.8125 47.703125 
L 18.3125 47.703125 
L 18.3125 18.015625 
Q 18.3125 11.328125 20.140625 9.421875 
Q 21.96875 7.515625 27.59375 7.515625 
L 36.8125 7.515625 
L 36.8125 0 
L 27.59375 0 
Q 17.1875 0 13.234375 3.875 
Q 9.28125 7.765625 9.28125 18.015625 
L 9.28125 47.703125 
L 2.6875 47.703125 
L 2.6875 54.6875 
L 9.28125 54.6875 
L 9.28125 70.21875 
z
" id="DejaVuSans-74"/>
      <path d="M 30.609375 48.390625 
Q 23.390625 48.390625 19.1875 42.75 
Q 14.984375 37.109375 14.984375 27.296875 
Q 14.984375 17.484375 19.15625 11.84375 
Q 23.34375 6.203125 30.609375 6.203125 
Q 37.796875 6.203125 41.984375 11.859375 
Q 46.1875 17.53125 46.1875 27.296875 
Q 46.1875 37.015625 41.984375 42.703125 
Q 37.796875 48.390625 30.609375 48.390625 
z
M 30.609375 56 
Q 42.328125 56 49.015625 48.375 
Q 55.71875 40.765625 55.71875 27.296875 
Q 55.71875 13.875 49.015625 6.21875 
Q 42.328125 -1.421875 30.609375 -1.421875 
Q 18.84375 -1.421875 12.171875 6.21875 
Q 5.515625 13.875 5.515625 27.296875 
Q 5.515625 40.765625 12.171875 48.375 
Q 18.84375 56 30.609375 56 
z
" id="DejaVuSans-6f"/>
      <path d="M 34.28125 27.484375 
Q 23.390625 27.484375 19.1875 25 
Q 14.984375 22.515625 14.984375 16.5 
Q 14.984375 11.71875 18.140625 8.90625 
Q 21.296875 6.109375 26.703125 6.109375 
Q 34.1875 6.109375 38.703125 11.40625 
Q 43.21875 16.703125 43.21875 25.484375 
L 43.21875 27.484375 
z
M 52.203125 31.203125 
L 52.203125 0 
L 43.21875 0 
L 43.21875 8.296875 
Q 40.140625 3.328125 35.546875 0.953125 
Q 30.953125 -1.421875 24.3125 -1.421875 
Q 15.921875 -1.421875 10.953125 3.296875 
Q 6 8.015625 6 15.921875 
Q 6 25.140625 12.171875 29.828125 
Q 18.359375 34.515625 30.609375 34.515625 
L 43.21875 34.515625 
L 43.21875 35.40625 
Q 43.21875 41.609375 39.140625 45 
Q 35.0625 48.390625 27.6875 48.390625 
Q 23 48.390625 18.546875 47.265625 
Q 14.109375 46.140625 10.015625 43.890625 
L 10.015625 52.203125 
Q 14.9375 54.109375 19.578125 55.046875 
Q 24.21875 56 28.609375 56 
Q 40.484375 56 46.34375 49.84375 
Q 52.203125 43.703125 52.203125 31.203125 
z
" id="DejaVuSans-61"/>
      <path d="M 9.421875 75.984375 
L 18.40625 75.984375 
L 18.40625 0 
L 9.421875 0 
z
" id="DejaVuSans-6c"/>
      <path d="M 30.078125 31.34375 
L 16.3125 -13.1875 
L 8.015625 -13.1875 
L 21.78125 31.34375 
L 8.015625 75.875 
L 16.3125 75.875 
z
" id="DejaVuSans-27e9"/>
     </defs>
     <g style="fill:#262626;" transform="translate(22.532969 81.475)rotate(-90)scale(0.11 -0.11)">
      <use transform="translate(0 0.125)" xlink:href="#DejaVuSans-27e8"/>
      <use transform="translate(39.013672 0.125)" xlink:href="#DejaVuSans-Oblique-71"/>
      <use transform="translate(102.490234 -16.28125)scale(0.7)" xlink:href="#DejaVuSans-74"/>
      <use transform="translate(129.936523 -16.28125)scale(0.7)" xlink:href="#DejaVuSans-6f"/>
      <use transform="translate(172.763672 -16.28125)scale(0.7)" xlink:href="#DejaVuSans-74"/>
      <use transform="translate(200.209961 -16.28125)scale(0.7)" xlink:href="#DejaVuSans-61"/>
      <use transform="translate(243.105469 -16.28125)scale(0.7)" xlink:href="#DejaVuSans-6c"/>
      <use transform="translate(265.288086 0.125)" xlink:href="#DejaVuSans-27e9"/>
     </g>
    </g>
   </g>
   <g id="PolyCollection_1">
    <defs>
     <path d="M 45.981818 -113.136364 
L 45.981818 -113.136364 
L 46.786182 -113.133589 
L 47.590545 -113.130095 
L 48.394909 -113.125698 
L 49.199273 -113.120163 
L 50.003636 -113.113196 
L 50.808 -113.104428 
L 51.612364 -113.093392 
L 52.416727 -113.079505 
L 53.221091 -113.062031 
L 54.025455 -113.040046 
L 54.829818 -113.01239 
L 55.634182 -112.977608 
L 56.438545 -112.933875 
L 57.242909 -112.878904 
L 58.047273 -112.809837 
L 58.851636 -112.723101 
L 59.656 -112.614248 
L 60.460364 -112.477746 
L 61.264727 -112.306744 
L 62.069091 -112.092792 
L 62.873455 -111.825523 
L 63.677818 -111.492306 
L 64.482182 -111.077885 
L 65.286545 -110.564036 
L 66.090909 -109.929307 
L 66.895273 -109.148904 
L 67.699636 -108.194875 
L 68.504 -107.03672 
L 69.308364 -105.642647 
L 70.112727 -103.981638 
L 70.917091 -102.026477 
L 71.721455 -99.757715 
L 72.525818 -97.168281 
L 73.330182 -94.268115 
L 74.134545 -91.0878 
L 74.938909 -87.680028 
L 75.743273 -84.117858 
L 76.547636 -80.489408 
L 77.352 -76.889563 
L 78.156364 -73.410265 
L 78.960727 -70.131426 
L 79.765091 -67.114295 
L 80.569455 -64.398283 
L 81.373818 -62.001246 
L 82.178182 -59.922393 
L 82.982545 -58.146652 
L 83.786909 -56.649392 
L 84.591273 -55.400698 
L 85.395636 -54.368787 
L 86.2 -53.52245 
L 87.004364 -52.832611 
L 87.808727 -52.273172 
L 88.613091 -51.821343 
L 89.417455 -51.457633 
L 90.221818 -51.16564 
L 91.026182 -50.931724 
L 91.830545 -50.744656 
L 92.634909 -50.595259 
L 93.439273 -50.476078 
L 94.243636 -50.381085 
L 95.048 -50.305424 
L 95.852364 -50.245194 
L 96.656727 -50.19727 
L 97.461091 -50.15915 
L 98.265455 -50.128837 
L 99.069818 -50.104738 
L 99.874182 -50.085582 
L 100.678545 -50.070358 
L 101.482909 -50.05826 
L 102.287273 -50.048647 
L 103.091636 -50.041009 
L 103.896 -50.03494 
L 104.700364 -50.030119 
L 105.504727 -50.026289 
L 106.309091 -50.023246 
L 107.113455 -50.020829 
L 107.917818 -50.018909 
L 108.722182 -50.017383 
L 109.526545 -50.016172 
L 110.330909 -50.015209 
L 111.135273 -50.014445 
L 111.939636 -50.013837 
L 112.744 -50.013355 
L 113.548364 -50.012972 
L 114.352727 -50.012667 
L 115.157091 -50.012425 
L 115.961455 -50.012233 
L 116.765818 -50.012081 
L 117.570182 -50.01196 
L 118.374545 -50.011863 
L 119.178909 -50.011787 
L 119.983273 -50.011726 
L 120.787636 -50.011678 
L 121.592 -50.01164 
L 122.396364 -50.011609 
L 123.200727 -50.011585 
L 124.005091 -50.011566 
L 124.809455 -50.011551 
L 125.613818 -50.011538 
L 126.418182 -50.011529 
L 126.418182 -50.011529 
L 126.418182 -45.463636 
L 125.613818 -46.344677 
L 124.809455 -47.063625 
L 124.005091 -47.647214 
L 123.200727 -48.118902 
L 122.396364 -48.498829 
L 121.592 -48.803991 
L 120.787636 -49.048552 
L 119.983273 -49.244195 
L 119.178909 -49.400479 
L 118.374545 -49.525179 
L 117.570182 -49.624587 
L 116.765818 -49.703775 
L 115.961455 -49.766819 
L 115.157091 -49.816987 
L 114.352727 -49.856894 
L 113.548364 -49.88863 
L 112.744 -49.913862 
L 111.939636 -49.933919 
L 111.135273 -49.94986 
L 110.330909 -49.962529 
L 109.526545 -49.972597 
L 108.722182 -49.980598 
L 107.917818 -49.986955 
L 107.113455 -49.992008 
L 106.309091 -49.996024 
L 105.504727 -49.999217 
L 104.700364 -50.001757 
L 103.896 -50.003778 
L 103.091636 -50.005389 
L 102.287273 -50.006676 
L 101.482909 -50.007705 
L 100.678545 -50.008533 
L 99.874182 -50.009204 
L 99.069818 -50.009753 
L 98.265455 -50.010209 
L 97.461091 -50.010597 
L 96.656727 -50.010937 
L 95.852364 -50.011248 
L 95.048 -50.011545 
L 94.243636 -50.011846 
L 93.439273 -50.012165 
L 92.634909 -50.01252 
L 91.830545 -50.01293 
L 91.026182 -50.013417 
L 90.221818 -50.014006 
L 89.417455 -50.014729 
L 88.613091 -50.015625 
L 87.808727 -50.01674 
L 87.004364 -50.018135 
L 86.2 -50.019884 
L 85.395636 -50.02208 
L 84.591273 -50.024839 
L 83.786909 -50.028308 
L 82.982545 -50.032672 
L 82.178182 -50.038163 
L 81.373818 -50.045072 
L 80.569455 -50.053767 
L 79.765091 -50.064709 
L 78.960727 -50.078477 
L 78.156364 -50.095801 
L 77.352 -50.117597 
L 76.547636 -50.145014 
L 75.743273 -50.179495 
L 74.938909 -50.222851 
L 74.134545 -50.277348 
L 73.330182 -50.345821 
L 72.525818 -50.431812 
L 71.721455 -50.539733 
L 70.917091 -50.675071 
L 70.112727 -50.844622 
L 69.308364 -51.05677 
L 68.504 -51.321802 
L 67.699636 -51.652258 
L 66.895273 -52.063288 
L 66.090909 -52.572996 
L 65.286545 -53.202711 
L 64.482182 -53.9771 
L 63.677818 -54.924004 
L 62.873455 -56.073844 
L 62.069091 -57.458397 
L 61.264727 -59.10876 
L 60.460364 -61.05236 
L 59.656 -63.309024 
L 58.851636 -65.88638 
L 58.047273 -68.775214 
L 57.242909 -71.945771 
L 56.438545 -75.346193 
L 55.634182 -78.904121 
L 54.829818 -82.531877 
L 54.025455 -86.134665 
L 53.221091 -89.62026 
L 52.416727 -92.908163 
L 51.612364 -95.936346 
L 50.808 -98.664567 
L 50.003636 -101.074209 
L 49.199273 -103.165454 
L 48.394909 -104.952945 
L 47.590545 -106.461066 
L 46.786182 -107.719645 
L 45.981818 -108.760498 
z
" id="m00f638cf9a" style="stroke:#ffffff;stroke-opacity:0.7;"/>
    </defs>
    <g clip-path="url(#pa40e3f18da)">
     <use style="fill:#001c7f;fill-opacity:0.7;stroke:#ffffff;stroke-opacity:0.7;" x="0" xlink:href="#m00f638cf9a" y="144"/>
    </g>
   </g>
   <g id="line2d_9">
    <path clip-path="url(#pa40e3f18da)" d="M 45.981818 30.863636 
L 46.786182 30.866411 
L 47.590545 30.869905 
L 48.394909 30.874302 
L 49.199273 30.879837 
L 50.003636 30.886804 
L 50.808 30.895572 
L 51.612364 30.906608 
L 52.416727 30.920495 
L 53.221091 30.937969 
L 54.025455 30.959954 
L 54.829818 30.98761 
L 55.634182 31.022392 
L 56.438545 31.066125 
L 57.242909 31.121096 
L 58.047273 31.190163 
L 58.851636 31.276899 
L 59.656 31.385752 
L 60.460364 31.522254 
L 61.264727 31.693256 
L 62.069091 31.907208 
L 62.873455 32.174477 
L 63.677818 32.507694 
L 64.482182 32.922115 
L 65.286545 33.435964 
L 66.090909 34.070693 
L 66.895273 34.851096 
L 67.699636 35.805125 
L 68.504 36.96328 
L 69.308364 38.357353 
L 70.112727 40.018362 
L 70.917091 41.973523 
L 71.721455 44.242285 
L 72.525818 46.831719 
L 73.330182 49.731885 
L 74.134545 52.9122 
L 74.938909 56.319972 
L 75.743273 59.882142 
L 76.547636 63.510592 
L 77.352 67.110437 
L 78.156364 70.589735 
L 78.960727 73.868574 
L 79.765091 76.885705 
L 80.569455 79.601717 
L 81.373818 81.998754 
L 82.178182 84.077607 
L 82.982545 85.853348 
L 83.786909 87.350608 
L 84.591273 88.599302 
L 85.395636 89.631213 
L 86.2 90.47755 
L 87.004364 91.167389 
L 87.808727 91.726828 
L 88.613091 92.178657 
L 89.417455 92.542367 
L 90.221818 92.83436 
L 91.026182 93.068276 
L 91.830545 93.255344 
L 92.634909 93.404741 
L 93.439273 93.523922 
L 94.243636 93.618915 
L 95.048 93.694576 
L 95.852364 93.754806 
L 96.656727 93.80273 
L 97.461091 93.84085 
L 98.265455 93.871163 
L 99.069818 93.895262 
L 99.874182 93.914418 
L 100.678545 93.929642 
L 101.482909 93.94174 
L 102.287273 93.951353 
L 103.091636 93.958991 
L 103.896 93.96506 
L 104.700364 93.969881 
L 105.504727 93.973711 
L 106.309091 93.976754 
L 107.113455 93.979171 
L 107.917818 93.981091 
L 108.722182 93.982617 
L 109.526545 93.983828 
L 110.330909 93.984791 
L 111.135273 93.985555 
L 111.939636 93.986163 
L 112.744 93.986645 
L 113.548364 93.987028 
L 114.352727 93.987333 
L 115.157091 93.987575 
L 115.961455 93.987767 
L 116.765818 93.987919 
L 117.570182 93.98804 
L 118.374545 93.988137 
L 119.178909 93.988213 
L 119.983273 93.988274 
L 120.787636 93.988322 
L 121.592 93.98836 
L 122.396364 93.988391 
L 123.200727 93.988415 
L 124.005091 93.988434 
L 124.809455 93.988449 
L 125.613818 93.988462 
L 126.418182 93.988471 
" style="fill:none;stroke:#333333;stroke-dasharray:1.5,2.475;stroke-dashoffset:0;stroke-width:1.5;"/>
   </g>
   <g id="line2d_10">
    <path clip-path="url(#pa40e3f18da)" d="M 45.981818 35.239502 
L 46.786182 36.280355 
L 47.590545 37.538934 
L 48.394909 39.047055 
L 49.199273 40.834546 
L 50.003636 42.925791 
L 50.808 45.335433 
L 51.612364 48.063654 
L 52.416727 51.091837 
L 53.221091 54.37974 
L 54.025455 57.865335 
L 54.829818 61.468123 
L 55.634182 65.095879 
L 56.438545 68.653807 
L 57.242909 72.054229 
L 58.047273 75.224786 
L 58.851636 78.11362 
L 59.656 80.690976 
L 60.460364 82.94764 
L 61.264727 84.89124 
L 62.069091 86.541603 
L 62.873455 87.926156 
L 63.677818 89.075996 
L 64.482182 90.0229 
L 65.286545 90.797289 
L 66.090909 91.427004 
L 66.895273 91.936712 
L 67.699636 92.347742 
L 68.504 92.678198 
L 69.308364 92.94323 
L 70.112727 93.155378 
L 70.917091 93.324929 
L 71.721455 93.460267 
L 72.525818 93.568188 
L 73.330182 93.654179 
L 74.134545 93.722652 
L 74.938909 93.777149 
L 75.743273 93.820505 
L 76.547636 93.854986 
L 77.352 93.882403 
L 78.156364 93.904199 
L 78.960727 93.921523 
L 79.765091 93.935291 
L 80.569455 93.946233 
L 81.373818 93.954928 
L 82.178182 93.961837 
L 82.982545 93.967328 
L 83.786909 93.971692 
L 84.591273 93.975161 
L 85.395636 93.97792 
L 86.2 93.980116 
L 87.004364 93.981865 
L 87.808727 93.98326 
L 88.613091 93.984375 
L 89.417455 93.985271 
L 90.221818 93.985994 
L 91.026182 93.986583 
L 91.830545 93.98707 
L 92.634909 93.98748 
L 93.439273 93.987835 
L 94.243636 93.988154 
L 95.048 93.988455 
L 95.852364 93.988752 
L 96.656727 93.989063 
L 97.461091 93.989403 
L 98.265455 93.989791 
L 99.069818 93.990247 
L 99.874182 93.990796 
L 100.678545 93.991467 
L 101.482909 93.992295 
L 102.287273 93.993324 
L 103.091636 93.994611 
L 103.896 93.996222 
L 104.700364 93.998243 
L 105.504727 94.000783 
L 106.309091 94.003976 
L 107.113455 94.007992 
L 107.917818 94.013045 
L 108.722182 94.019402 
L 109.526545 94.027403 
L 110.330909 94.037471 
L 111.135273 94.05014 
L 111.939636 94.066081 
L 112.744 94.086138 
L 113.548364 94.11137 
L 114.352727 94.143106 
L 115.157091 94.183013 
L 115.961455 94.233181 
L 116.765818 94.296225 
L 117.570182 94.375413 
L 118.374545 94.474821 
L 119.178909 94.599521 
L 119.983273 94.755805 
L 120.787636 94.951448 
L 121.592 95.196009 
L 122.396364 95.501171 
L 123.200727 95.881098 
L 124.005091 96.352786 
L 124.809455 96.936375 
L 125.613818 97.655323 
L 126.418182 98.536364 
" style="fill:none;stroke:#333333;stroke-linecap:round;stroke-width:1.5;"/>
   </g>
   <g id="patch_3">
    <path d="M 41.96 101.92 
L 41.96 27.48 
" style="fill:none;stroke:#262626;stroke-linecap:square;stroke-linejoin:miter;stroke-width:0.8;"/>
   </g>
   <g id="patch_4">
    <path d="M 41.96 101.92 
L 130.44 101.92 
" style="fill:none;stroke:#262626;stroke-linecap:square;stroke-linejoin:miter;stroke-width:0.8;"/>
   </g>
   <g id="text_11">
    <!-- $\Delta$ area : 2.65 -->
    <defs>
     <path d="M 34.1875 63.1875 
L 14.15625 8.203125 
L 54.25 8.203125 
z
M 0.78125 0 
L 28.609375 72.90625 
L 39.796875 72.90625 
L 67.578125 0 
z
" id="DejaVuSans-394"/>
     <path id="ArialMT-20"/>
     <path d="M 40.4375 6.390625 
Q 35.546875 2.25 31.03125 0.53125 
Q 26.515625 -1.171875 21.34375 -1.171875 
Q 12.796875 -1.171875 8.203125 3 
Q 3.609375 7.171875 3.609375 13.671875 
Q 3.609375 17.484375 5.34375 20.625 
Q 7.078125 23.78125 9.890625 25.6875 
Q 12.703125 27.59375 16.21875 28.5625 
Q 18.796875 29.25 24.03125 29.890625 
Q 34.671875 31.15625 39.703125 32.90625 
Q 39.75 34.71875 39.75 35.203125 
Q 39.75 40.578125 37.25 42.78125 
Q 33.890625 45.75 27.25 45.75 
Q 21.046875 45.75 18.09375 43.578125 
Q 15.140625 41.40625 13.71875 35.890625 
L 5.125 37.0625 
Q 6.296875 42.578125 8.984375 45.96875 
Q 11.671875 49.359375 16.75 51.1875 
Q 21.828125 53.03125 28.515625 53.03125 
Q 35.15625 53.03125 39.296875 51.46875 
Q 43.453125 49.90625 45.40625 47.53125 
Q 47.359375 45.171875 48.140625 41.546875 
Q 48.578125 39.3125 48.578125 33.453125 
L 48.578125 21.734375 
Q 48.578125 9.46875 49.140625 6.21875 
Q 49.703125 2.984375 51.375 0 
L 42.1875 0 
Q 40.828125 2.734375 40.4375 6.390625 
z
M 39.703125 26.03125 
Q 34.90625 24.078125 25.34375 22.703125 
Q 19.921875 21.921875 17.671875 20.9375 
Q 15.4375 19.96875 14.203125 18.09375 
Q 12.984375 16.21875 12.984375 13.921875 
Q 12.984375 10.40625 15.640625 8.0625 
Q 18.3125 5.71875 23.4375 5.71875 
Q 28.515625 5.71875 32.46875 7.9375 
Q 36.421875 10.15625 38.28125 14.015625 
Q 39.703125 17 39.703125 22.796875 
z
" id="ArialMT-61"/>
     <path d="M 6.5 0 
L 6.5 51.859375 
L 14.40625 51.859375 
L 14.40625 44 
Q 17.4375 49.515625 20 51.265625 
Q 22.5625 53.03125 25.640625 53.03125 
Q 30.078125 53.03125 34.671875 50.203125 
L 31.640625 42.046875 
Q 28.421875 43.953125 25.203125 43.953125 
Q 22.3125 43.953125 20.015625 42.21875 
Q 17.71875 40.484375 16.75 37.40625 
Q 15.28125 32.71875 15.28125 27.15625 
L 15.28125 0 
z
" id="ArialMT-72"/>
     <path d="M 42.09375 16.703125 
L 51.171875 15.578125 
Q 49.03125 7.625 43.21875 3.21875 
Q 37.40625 -1.171875 28.375 -1.171875 
Q 17 -1.171875 10.328125 5.828125 
Q 3.65625 12.84375 3.65625 25.484375 
Q 3.65625 38.578125 10.390625 45.796875 
Q 17.140625 53.03125 27.875 53.03125 
Q 38.28125 53.03125 44.875 45.953125 
Q 51.46875 38.875 51.46875 26.03125 
Q 51.46875 25.25 51.421875 23.6875 
L 12.75 23.6875 
Q 13.234375 15.140625 17.578125 10.59375 
Q 21.921875 6.0625 28.421875 6.0625 
Q 33.25 6.0625 36.671875 8.59375 
Q 40.09375 11.140625 42.09375 16.703125 
z
M 13.234375 30.90625 
L 42.1875 30.90625 
Q 41.609375 37.453125 38.875 40.71875 
Q 34.671875 45.796875 27.984375 45.796875 
Q 21.921875 45.796875 17.796875 41.75 
Q 13.671875 37.703125 13.234375 30.90625 
z
" id="ArialMT-65"/>
     <path d="M 9.03125 41.84375 
L 9.03125 51.859375 
L 19.046875 51.859375 
L 19.046875 41.84375 
z
M 9.03125 0 
L 9.03125 10.015625 
L 19.046875 10.015625 
L 19.046875 0 
z
" id="ArialMT-3a"/>
     <path d="M 9.078125 0 
L 9.078125 10.015625 
L 19.09375 10.015625 
L 19.09375 0 
z
" id="ArialMT-2e"/>
     <path d="M 4.15625 18.75 
L 13.375 19.53125 
Q 14.40625 12.796875 18.140625 9.390625 
Q 21.875 6 27.15625 6 
Q 33.5 6 37.890625 10.78125 
Q 42.28125 15.578125 42.28125 23.484375 
Q 42.28125 31 38.0625 35.34375 
Q 33.84375 39.703125 27 39.703125 
Q 22.75 39.703125 19.328125 37.765625 
Q 15.921875 35.84375 13.96875 32.765625 
L 5.71875 33.84375 
L 12.640625 70.609375 
L 48.25 70.609375 
L 48.25 62.203125 
L 19.671875 62.203125 
L 15.828125 42.96875 
Q 22.265625 47.46875 29.34375 47.46875 
Q 38.71875 47.46875 45.15625 40.96875 
Q 51.609375 34.46875 51.609375 24.265625 
Q 51.609375 14.546875 45.953125 7.46875 
Q 39.0625 -1.21875 27.15625 -1.21875 
Q 17.390625 -1.21875 11.203125 4.25 
Q 5.03125 9.71875 4.15625 18.75 
z
" id="ArialMT-35"/>
    </defs>
    <g style="fill:#262626;" transform="translate(48.25 21.48)scale(0.132 -0.132)">
     <use transform="translate(0 0.09375)" xlink:href="#DejaVuSans-394"/>
     <use transform="translate(68.408203 0.09375)" xlink:href="#ArialMT-20"/>
     <use transform="translate(96.191406 0.09375)" xlink:href="#ArialMT-61"/>
     <use transform="translate(151.806641 0.09375)" xlink:href="#ArialMT-72"/>
     <use transform="translate(185.107422 0.09375)" xlink:href="#ArialMT-65"/>
     <use transform="translate(240.722656 0.09375)" xlink:href="#ArialMT-61"/>
     <use transform="translate(296.337891 0.09375)" xlink:href="#ArialMT-20"/>
     <use transform="translate(324.121094 0.09375)" xlink:href="#ArialMT-3a"/>
     <use transform="translate(351.904297 0.09375)" xlink:href="#ArialMT-20"/>
     <use transform="translate(379.6875 0.09375)" xlink:href="#ArialMT-32"/>
     <use transform="translate(435.302734 0.09375)" xlink:href="#ArialMT-2e"/>
     <use transform="translate(463.085938 0.09375)" xlink:href="#ArialMT-36"/>
     <use transform="translate(518.701172 0.09375)" xlink:href="#ArialMT-35"/>
    </g>
   </g>
  </g>
 </g>
 <defs>
  <clipPath id="pa40e3f18da">
   <rect height="74.44" width="88.48" x="41.96" y="27.48"/>
  </clipPath>
 </defs>
</svg>
