<?xml version="1.0" encoding="utf-8" standalone="no"?>
<!DOCTYPE svg PUBLIC "-//W3C//DTD SVG 1.1//EN"
  "http://www.w3.org/Graphics/SVG/1.1/DTD/svg11.dtd">
<!-- Created with matplotlib (http://matplotlib.org/) -->
<svg height="144pt" version="1.1" viewBox="0 0 144 144" width="144pt" xmlns="http://www.w3.org/2000/svg" xmlns:xlink="http://www.w3.org/1999/xlink">
 <defs>
  <style type="text/css">
*{stroke-linecap:butt;stroke-linejoin:round;}
  </style>
 </defs>
 <g id="figure_1">
  <g id="patch_1">
   <path d="M 0 144 
L 144 144 
L 144 0 
L 0 0 
z
" style="fill:#ffffff;"/>
  </g>
  <g id="axes_1">
   <g id="patch_2">
    <path d="M 47.6 101.92 
L 130.44 101.92 
L 130.44 13.958825 
L 47.6 13.958825 
z
" style="fill:#ffffff;"/>
   </g>
   <g id="matplotlib.axis_1">
    <g id="xtick_1">
     <g id="line2d_1">
      <defs>
       <path d="M 0 0 
L 0 3.5 
" id="m52fe514d1b" style="stroke:#262626;stroke-width:0.8;"/>
      </defs>
      <g>
       <use style="fill:#262626;stroke:#262626;stroke-width:0.8;" x="51.365455" xlink:href="#m52fe514d1b" y="101.92"/>
      </g>
     </g>
     <g id="text_1">
      <!-- 2 -->
      <defs>
       <path d="M 50.34375 8.453125 
L 50.34375 0 
L 3.03125 0 
Q 2.9375 3.171875 4.046875 6.109375 
Q 5.859375 10.9375 9.828125 15.625 
Q 13.8125 20.3125 21.34375 26.46875 
Q 33.015625 36.03125 37.109375 41.625 
Q 41.21875 47.21875 41.21875 52.203125 
Q 41.21875 57.421875 37.46875 61 
Q 33.734375 64.59375 27.734375 64.59375 
Q 21.390625 64.59375 17.578125 60.78125 
Q 13.765625 56.984375 13.71875 50.25 
L 4.6875 51.171875 
Q 5.609375 61.28125 11.65625 66.578125 
Q 17.71875 71.875 27.9375 71.875 
Q 38.234375 71.875 44.234375 66.15625 
Q 50.25 60.453125 50.25 52 
Q 50.25 47.703125 48.484375 43.546875 
Q 46.734375 39.40625 42.65625 34.8125 
Q 38.578125 30.21875 29.109375 22.21875 
Q 21.1875 15.578125 18.9375 13.203125 
Q 16.703125 10.84375 15.234375 8.453125 
z
" id="ArialMT-32"/>
      </defs>
      <g style="fill:#262626;" transform="translate(48.306939 116.793594)scale(0.11 -0.11)">
       <use xlink:href="#ArialMT-32"/>
      </g>
     </g>
    </g>
    <g id="xtick_2">
     <g id="line2d_2">
      <g>
       <use style="fill:#262626;stroke:#262626;stroke-width:0.8;" x="66.427273" xlink:href="#m52fe514d1b" y="101.92"/>
      </g>
     </g>
     <g id="text_2">
      <!-- 4 -->
      <defs>
       <path d="M 32.328125 0 
L 32.328125 17.140625 
L 1.265625 17.140625 
L 1.265625 25.203125 
L 33.9375 71.578125 
L 41.109375 71.578125 
L 41.109375 25.203125 
L 50.78125 25.203125 
L 50.78125 17.140625 
L 41.109375 17.140625 
L 41.109375 0 
z
M 32.328125 25.203125 
L 32.328125 57.46875 
L 9.90625 25.203125 
z
" id="ArialMT-34"/>
      </defs>
      <g style="fill:#262626;" transform="translate(63.368757 116.793594)scale(0.11 -0.11)">
       <use xlink:href="#ArialMT-34"/>
      </g>
     </g>
    </g>
    <g id="xtick_3">
     <g id="line2d_3">
      <g>
       <use style="fill:#262626;stroke:#262626;stroke-width:0.8;" x="81.489091" xlink:href="#m52fe514d1b" y="101.92"/>
      </g>
     </g>
     <g id="text_3">
      <!-- 6 -->
      <defs>
       <path d="M 49.75 54.046875 
L 41.015625 53.375 
Q 39.84375 58.546875 37.703125 60.890625 
Q 34.125 64.65625 28.90625 64.65625 
Q 24.703125 64.65625 21.53125 62.3125 
Q 17.390625 59.28125 14.984375 53.46875 
Q 12.59375 47.65625 12.5 36.921875 
Q 15.671875 41.75 20.265625 44.09375 
Q 24.859375 46.4375 29.890625 46.4375 
Q 38.671875 46.4375 44.84375 39.96875 
Q 51.03125 33.5 51.03125 23.25 
Q 51.03125 16.5 48.125 10.71875 
Q 45.21875 4.9375 40.140625 1.859375 
Q 35.0625 -1.21875 28.609375 -1.21875 
Q 17.625 -1.21875 10.6875 6.859375 
Q 3.765625 14.9375 3.765625 33.5 
Q 3.765625 54.25 11.421875 63.671875 
Q 18.109375 71.875 29.4375 71.875 
Q 37.890625 71.875 43.28125 67.140625 
Q 48.6875 62.40625 49.75 54.046875 
z
M 13.875 23.1875 
Q 13.875 18.65625 15.796875 14.5 
Q 17.71875 10.359375 21.1875 8.171875 
Q 24.65625 6 28.46875 6 
Q 34.03125 6 38.03125 10.484375 
Q 42.046875 14.984375 42.046875 22.703125 
Q 42.046875 30.125 38.078125 34.390625 
Q 34.125 38.671875 28.125 38.671875 
Q 22.171875 38.671875 18.015625 34.390625 
Q 13.875 30.125 13.875 23.1875 
z
" id="ArialMT-36"/>
      </defs>
      <g style="fill:#262626;" transform="translate(78.430575 116.793594)scale(0.11 -0.11)">
       <use xlink:href="#ArialMT-36"/>
      </g>
     </g>
    </g>
    <g id="xtick_4">
     <g id="line2d_4">
      <g>
       <use style="fill:#262626;stroke:#262626;stroke-width:0.8;" x="96.550909" xlink:href="#m52fe514d1b" y="101.92"/>
      </g>
     </g>
     <g id="text_4">
      <!-- 8 -->
      <defs>
       <path d="M 17.671875 38.8125 
Q 12.203125 40.828125 9.5625 44.53125 
Q 6.9375 48.25 6.9375 53.421875 
Q 6.9375 61.234375 12.546875 66.546875 
Q 18.171875 71.875 27.484375 71.875 
Q 36.859375 71.875 42.578125 66.421875 
Q 48.296875 60.984375 48.296875 53.171875 
Q 48.296875 48.1875 45.671875 44.5 
Q 43.0625 40.828125 37.75 38.8125 
Q 44.34375 36.671875 47.78125 31.875 
Q 51.21875 27.09375 51.21875 20.453125 
Q 51.21875 11.28125 44.71875 5.03125 
Q 38.234375 -1.21875 27.640625 -1.21875 
Q 17.046875 -1.21875 10.546875 5.046875 
Q 4.046875 11.328125 4.046875 20.703125 
Q 4.046875 27.6875 7.59375 32.390625 
Q 11.140625 37.109375 17.671875 38.8125 
z
M 15.921875 53.71875 
Q 15.921875 48.640625 19.1875 45.40625 
Q 22.46875 42.1875 27.6875 42.1875 
Q 32.765625 42.1875 36.015625 45.375 
Q 39.265625 48.578125 39.265625 53.21875 
Q 39.265625 58.0625 35.90625 61.359375 
Q 32.5625 64.65625 27.59375 64.65625 
Q 22.5625 64.65625 19.234375 61.421875 
Q 15.921875 58.203125 15.921875 53.71875 
z
M 13.09375 20.65625 
Q 13.09375 16.890625 14.875 13.375 
Q 16.65625 9.859375 20.171875 7.921875 
Q 23.6875 6 27.734375 6 
Q 34.03125 6 38.125 10.046875 
Q 42.234375 14.109375 42.234375 20.359375 
Q 42.234375 26.703125 38.015625 30.859375 
Q 33.796875 35.015625 27.4375 35.015625 
Q 21.234375 35.015625 17.15625 30.90625 
Q 13.09375 26.8125 13.09375 20.65625 
z
" id="ArialMT-38"/>
      </defs>
      <g style="fill:#262626;" transform="translate(93.492393 116.793594)scale(0.11 -0.11)">
       <use xlink:href="#ArialMT-38"/>
      </g>
     </g>
    </g>
    <g id="xtick_5">
     <g id="line2d_5">
      <g>
       <use style="fill:#262626;stroke:#262626;stroke-width:0.8;" x="111.612727" xlink:href="#m52fe514d1b" y="101.92"/>
      </g>
     </g>
     <g id="text_5">
      <!-- 10 -->
      <defs>
       <path d="M 37.25 0 
L 28.46875 0 
L 28.46875 56 
Q 25.296875 52.984375 20.140625 49.953125 
Q 14.984375 46.921875 10.890625 45.40625 
L 10.890625 53.90625 
Q 18.265625 57.375 23.78125 62.296875 
Q 29.296875 67.234375 31.59375 71.875 
L 37.25 71.875 
z
" id="ArialMT-31"/>
       <path d="M 4.15625 35.296875 
Q 4.15625 48 6.765625 55.734375 
Q 9.375 63.484375 14.515625 67.671875 
Q 19.671875 71.875 27.484375 71.875 
Q 33.25 71.875 37.59375 69.546875 
Q 41.9375 67.234375 44.765625 62.859375 
Q 47.609375 58.5 49.21875 52.21875 
Q 50.828125 45.953125 50.828125 35.296875 
Q 50.828125 22.703125 48.234375 14.96875 
Q 45.65625 7.234375 40.5 3 
Q 35.359375 -1.21875 27.484375 -1.21875 
Q 17.140625 -1.21875 11.234375 6.203125 
Q 4.15625 15.140625 4.15625 35.296875 
z
M 13.1875 35.296875 
Q 13.1875 17.671875 17.3125 11.828125 
Q 21.4375 6 27.484375 6 
Q 33.546875 6 37.671875 11.859375 
Q 41.796875 17.71875 41.796875 35.296875 
Q 41.796875 52.984375 37.671875 58.78125 
Q 33.546875 64.59375 27.390625 64.59375 
Q 21.34375 64.59375 17.71875 59.46875 
Q 13.1875 52.9375 13.1875 35.296875 
z
" id="ArialMT-30"/>
      </defs>
      <g style="fill:#262626;" transform="translate(105.495696 116.793594)scale(0.11 -0.11)">
       <use xlink:href="#ArialMT-31"/>
       <use x="55.615234" xlink:href="#ArialMT-30"/>
      </g>
     </g>
    </g>
    <g id="xtick_6">
     <g id="line2d_6">
      <g>
       <use style="fill:#262626;stroke:#262626;stroke-width:0.8;" x="126.674545" xlink:href="#m52fe514d1b" y="101.92"/>
      </g>
     </g>
     <g id="text_6">
      <!-- 12 -->
      <g style="fill:#262626;" transform="translate(120.557514 116.793594)scale(0.11 -0.11)">
       <use xlink:href="#ArialMT-31"/>
       <use x="55.615234" xlink:href="#ArialMT-32"/>
      </g>
     </g>
    </g>
    <g id="text_7">
     <!-- pH -->
     <defs>
      <path d="M 6.59375 -19.875 
L 6.59375 51.859375 
L 14.59375 51.859375 
L 14.59375 45.125 
Q 17.4375 49.078125 21 51.046875 
Q 24.5625 53.03125 29.640625 53.03125 
Q 36.28125 53.03125 41.359375 49.609375 
Q 46.4375 46.1875 49.015625 39.953125 
Q 51.609375 33.734375 51.609375 26.3125 
Q 51.609375 18.359375 48.75 11.984375 
Q 45.90625 5.609375 40.453125 2.21875 
Q 35.015625 -1.171875 29 -1.171875 
Q 24.609375 -1.171875 21.109375 0.6875 
Q 17.625 2.546875 15.375 5.375 
L 15.375 -19.875 
z
M 14.546875 25.640625 
Q 14.546875 15.625 18.59375 10.84375 
Q 22.65625 6.0625 28.421875 6.0625 
Q 34.28125 6.0625 38.453125 11.015625 
Q 42.625 15.96875 42.625 26.375 
Q 42.625 36.28125 38.546875 41.203125 
Q 34.46875 46.140625 28.8125 46.140625 
Q 23.1875 46.140625 18.859375 40.890625 
Q 14.546875 35.640625 14.546875 25.640625 
z
" id="ArialMT-70"/>
      <path d="M 8.015625 0 
L 8.015625 71.578125 
L 17.484375 71.578125 
L 17.484375 42.1875 
L 54.6875 42.1875 
L 54.6875 71.578125 
L 64.15625 71.578125 
L 64.15625 0 
L 54.6875 0 
L 54.6875 33.734375 
L 17.484375 33.734375 
L 17.484375 0 
z
" id="ArialMT-48"/>
     </defs>
     <g style="fill:#262626;" transform="translate(81.989453 130.853437)scale(0.11 -0.11)">
      <use xlink:href="#ArialMT-70"/>
      <use x="55.615234" xlink:href="#ArialMT-48"/>
     </g>
    </g>
   </g>
   <g id="matplotlib.axis_2">
    <g id="ytick_1">
     <g id="line2d_7">
      <defs>
       <path d="M 0 0 
L -3.5 0 
" id="m3cb7efcad6" style="stroke:#262626;stroke-width:0.8;"/>
      </defs>
      <g>
       <use style="fill:#262626;stroke:#262626;stroke-width:0.8;" x="47.6" xlink:href="#m3cb7efcad6" y="95.433428"/>
      </g>
     </g>
     <g id="text_8">
      <!-- 0 -->
      <g style="fill:#262626;" transform="translate(34.482969 99.370225)scale(0.11 -0.11)">
       <use xlink:href="#ArialMT-30"/>
      </g>
     </g>
    </g>
    <g id="ytick_2">
     <g id="line2d_8">
      <g>
       <use style="fill:#262626;stroke:#262626;stroke-width:0.8;" x="47.6" xlink:href="#m3cb7efcad6" y="62.079385"/>
      </g>
     </g>
     <g id="text_9">
      <!-- 25 -->
      <defs>
       <path d="M 4.15625 18.75 
L 13.375 19.53125 
Q 14.40625 12.796875 18.140625 9.390625 
Q 21.875 6 27.15625 6 
Q 33.5 6 37.890625 10.78125 
Q 42.28125 15.578125 42.28125 23.484375 
Q 42.28125 31 38.0625 35.34375 
Q 33.84375 39.703125 27 39.703125 
Q 22.75 39.703125 19.328125 37.765625 
Q 15.921875 35.84375 13.96875 32.765625 
L 5.71875 33.84375 
L 12.640625 70.609375 
L 48.25 70.609375 
L 48.25 62.203125 
L 19.671875 62.203125 
L 15.828125 42.96875 
Q 22.265625 47.46875 29.34375 47.46875 
Q 38.71875 47.46875 45.15625 40.96875 
Q 51.609375 34.46875 51.609375 24.265625 
Q 51.609375 14.546875 45.953125 7.46875 
Q 39.0625 -1.21875 27.15625 -1.21875 
Q 17.390625 -1.21875 11.203125 4.25 
Q 5.03125 9.71875 4.15625 18.75 
z
" id="ArialMT-35"/>
      </defs>
      <g style="fill:#262626;" transform="translate(28.365938 66.016181)scale(0.11 -0.11)">
       <use xlink:href="#ArialMT-32"/>
       <use x="55.615234" xlink:href="#ArialMT-35"/>
      </g>
     </g>
    </g>
    <g id="ytick_3">
     <g id="line2d_9">
      <g>
       <use style="fill:#262626;stroke:#262626;stroke-width:0.8;" x="47.6" xlink:href="#m3cb7efcad6" y="28.725341"/>
      </g>
     </g>
     <g id="text_10">
      <!-- 50 -->
      <g style="fill:#262626;" transform="translate(28.365938 32.662138)scale(0.11 -0.11)">
       <use xlink:href="#ArialMT-35"/>
       <use x="55.615234" xlink:href="#ArialMT-30"/>
      </g>
     </g>
    </g>
    <g id="text_11">
     <!-- Free energy ($k_B T$) -->
     <defs>
      <path d="M 8.203125 0 
L 8.203125 71.578125 
L 56.5 71.578125 
L 56.5 63.140625 
L 17.671875 63.140625 
L 17.671875 40.96875 
L 51.265625 40.96875 
L 51.265625 32.515625 
L 17.671875 32.515625 
L 17.671875 0 
z
" id="ArialMT-46"/>
      <path d="M 6.5 0 
L 6.5 51.859375 
L 14.40625 51.859375 
L 14.40625 44 
Q 17.4375 49.515625 20 51.265625 
Q 22.5625 53.03125 25.640625 53.03125 
Q 30.078125 53.03125 34.671875 50.203125 
L 31.640625 42.046875 
Q 28.421875 43.953125 25.203125 43.953125 
Q 22.3125 43.953125 20.015625 42.21875 
Q 17.71875 40.484375 16.75 37.40625 
Q 15.28125 32.71875 15.28125 27.15625 
L 15.28125 0 
z
" id="ArialMT-72"/>
      <path d="M 42.09375 16.703125 
L 51.171875 15.578125 
Q 49.03125 7.625 43.21875 3.21875 
Q 37.40625 -1.171875 28.375 -1.171875 
Q 17 -1.171875 10.328125 5.828125 
Q 3.65625 12.84375 3.65625 25.484375 
Q 3.65625 38.578125 10.390625 45.796875 
Q 17.140625 53.03125 27.875 53.03125 
Q 38.28125 53.03125 44.875 45.953125 
Q 51.46875 38.875 51.46875 26.03125 
Q 51.46875 25.25 51.421875 23.6875 
L 12.75 23.6875 
Q 13.234375 15.140625 17.578125 10.59375 
Q 21.921875 6.0625 28.421875 6.0625 
Q 33.25 6.0625 36.671875 8.59375 
Q 40.09375 11.140625 42.09375 16.703125 
z
M 13.234375 30.90625 
L 42.1875 30.90625 
Q 41.609375 37.453125 38.875 40.71875 
Q 34.671875 45.796875 27.984375 45.796875 
Q 21.921875 45.796875 17.796875 41.75 
Q 13.671875 37.703125 13.234375 30.90625 
z
" id="ArialMT-65"/>
      <path id="ArialMT-20"/>
      <path d="M 6.59375 0 
L 6.59375 51.859375 
L 14.5 51.859375 
L 14.5 44.484375 
Q 20.21875 53.03125 31 53.03125 
Q 35.6875 53.03125 39.625 51.34375 
Q 43.5625 49.65625 45.515625 46.921875 
Q 47.46875 44.1875 48.25 40.4375 
Q 48.734375 37.984375 48.734375 31.890625 
L 48.734375 0 
L 39.9375 0 
L 39.9375 31.546875 
Q 39.9375 36.921875 38.90625 39.578125 
Q 37.890625 42.234375 35.28125 43.8125 
Q 32.671875 45.40625 29.15625 45.40625 
Q 23.53125 45.40625 19.453125 41.84375 
Q 15.375 38.28125 15.375 28.328125 
L 15.375 0 
z
" id="ArialMT-6e"/>
      <path d="M 4.984375 -4.296875 
L 13.53125 -5.5625 
Q 14.0625 -9.515625 16.5 -11.328125 
Q 19.78125 -13.765625 25.4375 -13.765625 
Q 31.546875 -13.765625 34.859375 -11.328125 
Q 38.1875 -8.890625 39.359375 -4.5 
Q 40.046875 -1.8125 39.984375 6.78125 
Q 34.234375 0 25.640625 0 
Q 14.9375 0 9.078125 7.71875 
Q 3.21875 15.4375 3.21875 26.21875 
Q 3.21875 33.640625 5.90625 39.90625 
Q 8.59375 46.1875 13.6875 49.609375 
Q 18.796875 53.03125 25.6875 53.03125 
Q 34.859375 53.03125 40.828125 45.609375 
L 40.828125 51.859375 
L 48.921875 51.859375 
L 48.921875 7.03125 
Q 48.921875 -5.078125 46.453125 -10.125 
Q 44 -15.1875 38.640625 -18.109375 
Q 33.296875 -21.046875 25.484375 -21.046875 
Q 16.21875 -21.046875 10.5 -16.875 
Q 4.78125 -12.703125 4.984375 -4.296875 
z
M 12.25 26.859375 
Q 12.25 16.65625 16.296875 11.96875 
Q 20.359375 7.28125 26.46875 7.28125 
Q 32.515625 7.28125 36.609375 11.9375 
Q 40.71875 16.609375 40.71875 26.5625 
Q 40.71875 36.078125 36.5 40.90625 
Q 32.28125 45.75 26.3125 45.75 
Q 20.453125 45.75 16.34375 40.984375 
Q 12.25 36.234375 12.25 26.859375 
z
" id="ArialMT-67"/>
      <path d="M 6.203125 -19.96875 
L 5.21875 -11.71875 
Q 8.109375 -12.5 10.25 -12.5 
Q 13.1875 -12.5 14.9375 -11.515625 
Q 16.703125 -10.546875 17.828125 -8.796875 
Q 18.65625 -7.46875 20.515625 -2.25 
Q 20.75 -1.515625 21.296875 -0.09375 
L 1.609375 51.859375 
L 11.078125 51.859375 
L 21.875 21.828125 
Q 23.96875 16.109375 25.640625 9.8125 
Q 27.15625 15.875 29.25 21.625 
L 40.328125 51.859375 
L 49.125 51.859375 
L 29.390625 -0.875 
Q 26.21875 -9.421875 24.46875 -12.640625 
Q 22.125 -17 19.09375 -19.015625 
Q 16.0625 -21.046875 11.859375 -21.046875 
Q 9.328125 -21.046875 6.203125 -19.96875 
z
" id="ArialMT-79"/>
      <path d="M 23.390625 -21.046875 
Q 16.109375 -11.859375 11.078125 0.4375 
Q 6.0625 12.75 6.0625 25.921875 
Q 6.0625 37.546875 9.8125 48.1875 
Q 14.203125 60.546875 23.390625 72.796875 
L 29.6875 72.796875 
Q 23.78125 62.640625 21.875 58.296875 
Q 18.890625 51.5625 17.1875 44.234375 
Q 15.09375 35.109375 15.09375 25.875 
Q 15.09375 2.390625 29.6875 -21.046875 
z
" id="ArialMT-28"/>
      <path d="M 18.3125 75.984375 
L 27.296875 75.984375 
L 18.703125 31.6875 
L 49.515625 54.6875 
L 61.1875 54.6875 
L 26.8125 28.515625 
L 51.90625 0 
L 41.015625 0 
L 17.671875 26.703125 
L 12.5 0 
L 3.515625 0 
z
" id="DejaVuSans-Oblique-6b"/>
      <path d="M 16.890625 72.90625 
L 42.09375 72.90625 
Q 52.34375 72.90625 57.421875 69.09375 
Q 62.5 65.28125 62.5 57.625 
Q 62.5 50.59375 58.125 45.484375 
Q 53.765625 40.375 46.6875 39.3125 
Q 52.734375 37.9375 55.765625 34.078125 
Q 58.796875 30.21875 58.796875 23.78125 
Q 58.796875 12.796875 50.65625 6.390625 
Q 42.53125 0 28.421875 0 
L 2.6875 0 
z
M 19.28125 34.8125 
L 14.109375 8.109375 
L 29.984375 8.109375 
Q 38.921875 8.109375 43.75 12.203125 
Q 48.578125 16.3125 48.578125 23.78125 
Q 48.578125 29.546875 45.375 32.171875 
Q 42.1875 34.8125 35.109375 34.8125 
z
M 25.09375 64.796875 
L 20.796875 42.828125 
L 35.5 42.828125 
Q 43.359375 42.828125 47.78125 46.234375 
Q 52.203125 49.65625 52.203125 55.71875 
Q 52.203125 60.453125 49.21875 62.625 
Q 46.234375 64.796875 39.703125 64.796875 
z
" id="DejaVuSans-Oblique-42"/>
      <path d="M 5.90625 72.90625 
L 67.578125 72.90625 
L 66.015625 64.59375 
L 39.984375 64.59375 
L 27.484375 0 
L 17.578125 0 
L 30.078125 64.59375 
L 4.296875 64.59375 
z
" id="DejaVuSans-Oblique-54"/>
      <path d="M 12.359375 -21.046875 
L 6.0625 -21.046875 
Q 20.65625 2.390625 20.65625 25.875 
Q 20.65625 35.0625 18.5625 44.09375 
Q 16.890625 51.421875 13.921875 58.15625 
Q 12.015625 62.546875 6.0625 72.796875 
L 12.359375 72.796875 
Q 21.53125 60.546875 25.921875 48.1875 
Q 29.6875 37.546875 29.6875 25.921875 
Q 29.6875 12.75 24.625 0.4375 
Q 19.578125 -11.859375 12.359375 -21.046875 
z
" id="ArialMT-29"/>
     </defs>
     <g style="fill:#262626;" transform="translate(21.945938 102.159413)rotate(-90)scale(0.11 -0.11)">
      <use transform="translate(0 0.015625)" xlink:href="#ArialMT-46"/>
      <use transform="translate(61.083984 0.015625)" xlink:href="#ArialMT-72"/>
      <use transform="translate(94.384766 0.015625)" xlink:href="#ArialMT-65"/>
      <use transform="translate(150 0.015625)" xlink:href="#ArialMT-65"/>
      <use transform="translate(205.615234 0.015625)" xlink:href="#ArialMT-20"/>
      <use transform="translate(233.398438 0.015625)" xlink:href="#ArialMT-65"/>
      <use transform="translate(289.013672 0.015625)" xlink:href="#ArialMT-6e"/>
      <use transform="translate(344.628906 0.015625)" xlink:href="#ArialMT-65"/>
      <use transform="translate(400.244141 0.015625)" xlink:href="#ArialMT-72"/>
      <use transform="translate(433.544922 0.015625)" xlink:href="#ArialMT-67"/>
      <use transform="translate(489.160156 0.015625)" xlink:href="#ArialMT-79"/>
      <use transform="translate(539.160156 0.015625)" xlink:href="#ArialMT-20"/>
      <use transform="translate(566.943359 0.015625)" xlink:href="#ArialMT-28"/>
      <use transform="translate(600.244141 0.015625)" xlink:href="#DejaVuSans-Oblique-6b"/>
      <use transform="translate(658.154297 -16.390625)scale(0.7)" xlink:href="#DejaVuSans-Oblique-42"/>
      <use transform="translate(708.911133 0.015625)" xlink:href="#DejaVuSans-Oblique-54"/>
      <use transform="translate(769.995117 0.015625)" xlink:href="#ArialMT-29"/>
     </g>
    </g>
   </g>
   <g id="patch_3">
    <path d="M 47.6 101.92 
L 47.6 13.958825 
" style="fill:none;stroke:#262626;stroke-linecap:square;stroke-linejoin:miter;stroke-width:0.8;"/>
   </g>
   <g id="patch_4">
    <path d="M 47.6 101.92 
L 130.44 101.92 
" style="fill:none;stroke:#262626;stroke-linecap:square;stroke-linejoin:miter;stroke-width:0.8;"/>
   </g>
   <g id="line2d_10">
    <path clip-path="url(#p955785a95b)" d="M 51.365455 79.397479 
L 52.118545 78.783075 
L 52.871636 78.16867 
L 53.624727 77.554266 
L 54.377818 76.939862 
L 55.130909 76.325458 
L 55.884 75.711054 
L 56.637091 75.096649 
L 57.390182 74.482245 
L 58.143273 73.867841 
L 58.896364 73.253437 
L 59.649455 72.639033 
L 60.402545 72.024629 
L 61.155636 71.410224 
L 61.908727 70.79582 
L 62.661818 70.181416 
L 63.414909 69.567012 
L 64.168 68.952608 
L 64.921091 68.338203 
L 65.674182 67.723799 
L 66.427273 67.109395 
L 67.180364 66.494991 
L 67.933455 65.880587 
L 68.686545 65.266183 
L 69.439636 64.651778 
L 70.192727 64.037374 
L 70.945818 63.42297 
L 71.698909 62.808566 
L 72.452 62.194162 
L 73.205091 61.579757 
L 73.958182 60.965353 
L 74.711273 60.350949 
L 75.464364 59.736545 
L 76.217455 59.122141 
L 76.970545 58.507737 
L 77.723636 57.893332 
L 78.476727 57.278928 
L 79.229818 56.664524 
L 79.982909 56.05012 
L 80.736 55.435716 
L 81.489091 54.821311 
L 82.242182 54.206907 
L 82.995273 53.592503 
L 83.748364 52.978099 
L 84.501455 52.363695 
L 85.254545 51.749291 
L 86.007636 51.134886 
L 86.760727 50.520482 
L 87.513818 49.906078 
L 88.266909 49.291674 
L 89.02 48.67727 
L 89.773091 48.062865 
L 90.526182 47.448461 
L 91.279273 46.834057 
L 92.032364 46.219653 
L 92.785455 45.605249 
L 93.538545 44.990845 
L 94.291636 44.37644 
L 95.044727 43.762036 
L 95.797818 43.147632 
L 96.550909 42.533228 
L 97.304 41.918824 
L 98.057091 41.304419 
L 98.810182 40.690015 
L 99.563273 40.075611 
L 100.316364 39.461207 
L 101.069455 38.846803 
L 101.822545 38.232399 
L 102.575636 37.617994 
L 103.328727 37.00359 
L 104.081818 36.389186 
L 104.834909 35.774782 
L 105.588 35.160378 
L 106.341091 34.545973 
L 107.094182 33.931569 
L 107.847273 33.317165 
L 108.600364 32.702761 
L 109.353455 32.088357 
L 110.106545 31.473953 
L 110.859636 30.859548 
L 111.612727 30.245144 
L 112.365818 29.63074 
L 113.118909 29.016336 
L 113.872 28.401932 
L 114.625091 27.787527 
L 115.378182 27.173123 
L 116.131273 26.558719 
L 116.884364 25.944315 
L 117.637455 25.329911 
L 118.390545 24.715507 
L 119.143636 24.101102 
L 119.896727 23.486698 
L 120.649818 22.872294 
L 121.402909 22.25789 
L 122.156 21.643486 
L 122.909091 21.029081 
L 123.662182 20.414677 
L 124.415273 19.800273 
L 125.168364 19.185869 
L 125.921455 18.571465 
L 126.674545 17.95706 
" style="fill:none;stroke:#4393c3;stroke-linecap:round;stroke-width:1.5;"/>
   </g>
   <g id="line2d_11">
    <path clip-path="url(#p955785a95b)" d="M 51.365455 62.347763 
L 52.118545 62.654965 
L 52.871636 62.962167 
L 53.624727 63.269369 
L 54.377818 63.576571 
L 55.130909 63.883773 
L 55.884 64.190975 
L 56.637091 64.498177 
L 57.390182 64.805379 
L 58.143273 65.112581 
L 58.896364 65.419784 
L 59.649455 65.726986 
L 60.402545 66.034188 
L 61.155636 66.34139 
L 61.908727 66.648592 
L 62.661818 66.955794 
L 63.414909 67.262996 
L 64.168 67.570198 
L 64.921091 67.8774 
L 65.674182 68.184602 
L 66.427273 68.491804 
L 67.180364 68.799007 
L 67.933455 69.106209 
L 68.686545 69.413411 
L 69.439636 69.720613 
L 70.192727 70.027815 
L 70.945818 70.335017 
L 71.698909 70.642219 
L 72.452 70.949421 
L 73.205091 71.256623 
L 73.958182 71.563825 
L 74.711273 71.871027 
L 75.464364 72.17823 
L 76.217455 72.485432 
L 76.970545 72.792634 
L 77.723636 73.099836 
L 78.476727 73.407038 
L 79.229818 73.71424 
L 79.982909 74.021442 
L 80.736 74.328644 
L 81.489091 74.635846 
L 82.242182 74.943048 
L 82.995273 75.25025 
L 83.748364 75.557453 
L 84.501455 75.864655 
L 85.254545 76.171857 
L 86.007636 76.479059 
L 86.760727 76.786261 
L 87.513818 77.093463 
L 88.266909 77.400665 
L 89.02 77.707867 
L 89.773091 78.015069 
L 90.526182 78.322271 
L 91.279273 78.629473 
L 92.032364 78.936676 
L 92.785455 79.243878 
L 93.538545 79.55108 
L 94.291636 79.858282 
L 95.044727 80.165484 
L 95.797818 80.472686 
L 96.550909 80.779888 
L 97.304 81.08709 
L 98.057091 81.394292 
L 98.810182 81.701494 
L 99.563273 82.008696 
L 100.316364 82.315899 
L 101.069455 82.623101 
L 101.822545 82.930303 
L 102.575636 83.237505 
L 103.328727 83.544707 
L 104.081818 83.851909 
L 104.834909 84.159111 
L 105.588 84.466313 
L 106.341091 84.773515 
L 107.094182 85.080717 
L 107.847273 85.387919 
L 108.600364 85.695122 
L 109.353455 86.002324 
L 110.106545 86.309526 
L 110.859636 86.616728 
L 111.612727 86.92393 
L 112.365818 87.231132 
L 113.118909 87.538334 
L 113.872 87.845536 
L 114.625091 88.152738 
L 115.378182 88.45994 
L 116.131273 88.767142 
L 116.884364 89.074345 
L 117.637455 89.381547 
L 118.390545 89.688749 
L 119.143636 89.995951 
L 119.896727 90.303153 
L 120.649818 90.610355 
L 121.402909 90.917557 
L 122.156 91.224759 
L 122.909091 91.531961 
L 123.662182 91.839163 
L 124.415273 92.146365 
L 125.168364 92.453568 
L 125.921455 92.76077 
L 126.674545 93.067972 
" style="fill:none;stroke:#f4a582;stroke-linecap:round;stroke-width:1.5;"/>
   </g>
   <g id="line2d_12">
    <path clip-path="url(#p955785a95b)" d="M 51.365455 90.948277 
L 52.118545 90.641075 
L 52.871636 90.333873 
L 53.624727 90.026671 
L 54.377818 89.719469 
L 55.130909 89.412267 
L 55.884 89.105065 
L 56.637091 88.797863 
L 57.390182 88.490661 
L 58.143273 88.183459 
L 58.896364 87.876256 
L 59.649455 87.569054 
L 60.402545 87.261852 
L 61.155636 86.95465 
L 61.908727 86.647448 
L 62.661818 86.340246 
L 63.414909 86.033044 
L 64.168 85.725842 
L 64.921091 85.41864 
L 65.674182 85.111438 
L 66.427273 84.804235 
L 67.180364 84.497033 
L 67.933455 84.189831 
L 68.686545 83.882629 
L 69.439636 83.575427 
L 70.192727 83.268225 
L 70.945818 82.961023 
L 71.698909 82.653821 
L 72.452 82.346619 
L 73.205091 82.039417 
L 73.958182 81.732215 
L 74.711273 81.425012 
L 75.464364 81.11781 
L 76.217455 80.810608 
L 76.970545 80.503406 
L 77.723636 80.196204 
L 78.476727 79.889002 
L 79.229818 79.5818 
L 79.982909 79.274598 
L 80.736 78.967396 
L 81.489091 78.660194 
L 82.242182 78.352992 
L 82.995273 78.045789 
L 83.748364 77.738587 
L 84.501455 77.431385 
L 85.254545 77.124183 
L 86.007636 76.816981 
L 86.760727 76.509779 
L 87.513818 76.202577 
L 88.266909 75.895375 
L 89.02 75.588173 
L 89.773091 75.280971 
L 90.526182 74.973769 
L 91.279273 74.666566 
L 92.032364 74.359364 
L 92.785455 74.052162 
L 93.538545 73.74496 
L 94.291636 73.437758 
L 95.044727 73.130556 
L 95.797818 72.823354 
L 96.550909 72.516152 
L 97.304 72.20895 
L 98.057091 71.901748 
L 98.810182 71.594546 
L 99.563273 71.287343 
L 100.316364 70.980141 
L 101.069455 70.672939 
L 101.822545 70.365737 
L 102.575636 70.058535 
L 103.328727 69.751333 
L 104.081818 69.444131 
L 104.834909 69.136929 
L 105.588 68.829727 
L 106.341091 68.522525 
L 107.094182 68.215323 
L 107.847273 67.90812 
L 108.600364 67.600918 
L 109.353455 67.293716 
L 110.106545 66.986514 
L 110.859636 66.679312 
L 111.612727 66.37211 
L 112.365818 66.064908 
L 113.118909 65.757706 
L 113.872 65.450504 
L 114.625091 65.143302 
L 115.378182 64.8361 
L 116.131273 64.528897 
L 116.884364 64.221695 
L 117.637455 63.914493 
L 118.390545 63.607291 
L 119.143636 63.300089 
L 119.896727 62.992887 
L 120.649818 62.685685 
L 121.402909 62.378483 
L 122.156 62.071281 
L 122.909091 61.764079 
L 123.662182 61.456877 
L 124.415273 61.149674 
L 125.168364 60.842472 
L 125.921455 60.53527 
L 126.674545 60.228068 
" style="fill:none;stroke:#92c5de;stroke-linecap:round;stroke-width:1.5;"/>
   </g>
   <g id="line2d_13">
    <path clip-path="url(#p955785a95b)" d="M 51.365455 97.921765 
L 52.118545 97.614563 
L 52.871636 97.307361 
L 53.624727 97.000159 
L 54.377818 96.692956 
L 55.130909 96.385754 
L 55.884 96.078552 
L 56.637091 95.77135 
L 57.390182 95.464148 
L 58.143273 95.156946 
L 58.896364 94.849744 
L 59.649455 94.542542 
L 60.402545 94.23534 
L 61.155636 93.928138 
L 61.908727 93.620936 
L 62.661818 93.313733 
L 63.414909 93.006531 
L 64.168 92.699329 
L 64.921091 92.392127 
L 65.674182 92.084925 
L 66.427273 91.777723 
L 67.180364 91.470521 
L 67.933455 91.163319 
L 68.686545 90.856117 
L 69.439636 90.548915 
L 70.192727 90.241713 
L 70.945818 89.93451 
L 71.698909 89.627308 
L 72.452 89.320106 
L 73.205091 89.012904 
L 73.958182 88.705702 
L 74.711273 88.3985 
L 75.464364 88.091298 
L 76.217455 87.784096 
L 76.970545 87.476894 
L 77.723636 87.169692 
L 78.476727 86.86249 
L 79.229818 86.555287 
L 79.982909 86.248085 
L 80.736 85.940883 
L 81.489091 85.633681 
L 82.242182 85.326479 
L 82.995273 85.019277 
L 83.748364 84.712075 
L 84.501455 84.404873 
L 85.254545 84.097671 
L 86.007636 83.790469 
L 86.760727 83.483267 
L 87.513818 83.176064 
L 88.266909 82.868862 
L 89.02 82.56166 
L 89.773091 82.254458 
L 90.526182 81.947256 
L 91.279273 81.640054 
L 92.032364 81.332852 
L 92.785455 81.02565 
L 93.538545 80.718448 
L 94.291636 80.411246 
L 95.044727 80.104044 
L 95.797818 79.796841 
L 96.550909 79.489639 
L 97.304 79.182437 
L 98.057091 78.875235 
L 98.810182 78.568033 
L 99.563273 78.260831 
L 100.316364 77.953629 
L 101.069455 77.646427 
L 101.822545 77.339225 
L 102.575636 77.032023 
L 103.328727 76.724821 
L 104.081818 76.417618 
L 104.834909 76.110416 
L 105.588 75.803214 
L 106.341091 75.496012 
L 107.094182 75.18881 
L 107.847273 74.881608 
L 108.600364 74.574406 
L 109.353455 74.267204 
L 110.106545 73.960002 
L 110.859636 73.6528 
L 111.612727 73.345598 
L 112.365818 73.038395 
L 113.118909 72.731193 
L 113.872 72.423991 
L 114.625091 72.116789 
L 115.378182 71.809587 
L 116.131273 71.502385 
L 116.884364 71.195183 
L 117.637455 70.887981 
L 118.390545 70.580779 
L 119.143636 70.273577 
L 119.896727 69.966375 
L 120.649818 69.659172 
L 121.402909 69.35197 
L 122.156 69.044768 
L 122.909091 68.737566 
L 123.662182 68.430364 
L 124.415273 68.123162 
L 125.168364 67.81596 
L 125.921455 67.508758 
L 126.674545 67.201556 
" style="fill:none;stroke:#92c5de;stroke-linecap:round;stroke-width:1.5;"/>
   </g>
   <g id="line2d_14">
    <path clip-path="url(#p955785a95b)" d="M 51.365455 73.77568 
L 52.118545 73.77568 
L 52.871636 73.77568 
L 53.624727 73.77568 
L 54.377818 73.77568 
L 55.130909 73.77568 
L 55.884 73.77568 
L 56.637091 73.77568 
L 57.390182 73.77568 
L 58.143273 73.77568 
L 58.896364 73.77568 
L 59.649455 73.77568 
L 60.402545 73.77568 
L 61.155636 73.77568 
L 61.908727 73.77568 
L 62.661818 73.77568 
L 63.414909 73.77568 
L 64.168 73.77568 
L 64.921091 73.77568 
L 65.674182 73.77568 
L 66.427273 73.77568 
L 67.180364 73.77568 
L 67.933455 73.77568 
L 68.686545 73.77568 
L 69.439636 73.77568 
L 70.192727 73.77568 
L 70.945818 73.77568 
L 71.698909 73.77568 
L 72.452 73.77568 
L 73.205091 73.77568 
L 73.958182 73.77568 
L 74.711273 73.77568 
L 75.464364 73.77568 
L 76.217455 73.77568 
L 76.970545 73.77568 
L 77.723636 73.77568 
L 78.476727 73.77568 
L 79.229818 73.77568 
L 79.982909 73.77568 
L 80.736 73.77568 
L 81.489091 73.77568 
L 82.242182 73.77568 
L 82.995273 73.77568 
L 83.748364 73.77568 
L 84.501455 73.77568 
L 85.254545 73.77568 
L 86.007636 73.77568 
L 86.760727 73.77568 
L 87.513818 73.77568 
L 88.266909 73.77568 
L 89.02 73.77568 
L 89.773091 73.77568 
L 90.526182 73.77568 
L 91.279273 73.77568 
L 92.032364 73.77568 
L 92.785455 73.77568 
L 93.538545 73.77568 
L 94.291636 73.77568 
L 95.044727 73.77568 
L 95.797818 73.77568 
L 96.550909 73.77568 
L 97.304 73.77568 
L 98.057091 73.77568 
L 98.810182 73.77568 
L 99.563273 73.77568 
L 100.316364 73.77568 
L 101.069455 73.77568 
L 101.822545 73.77568 
L 102.575636 73.77568 
L 103.328727 73.77568 
L 104.081818 73.77568 
L 104.834909 73.77568 
L 105.588 73.77568 
L 106.341091 73.77568 
L 107.094182 73.77568 
L 107.847273 73.77568 
L 108.600364 73.77568 
L 109.353455 73.77568 
L 110.106545 73.77568 
L 110.859636 73.77568 
L 111.612727 73.77568 
L 112.365818 73.77568 
L 113.118909 73.77568 
L 113.872 73.77568 
L 114.625091 73.77568 
L 115.378182 73.77568 
L 116.131273 73.77568 
L 116.884364 73.77568 
L 117.637455 73.77568 
L 118.390545 73.77568 
L 119.143636 73.77568 
L 119.896727 73.77568 
L 120.649818 73.77568 
L 121.402909 73.77568 
L 122.156 73.77568 
L 122.909091 73.77568 
L 123.662182 73.77568 
L 124.415273 73.77568 
L 125.168364 73.77568 
L 125.921455 73.77568 
L 126.674545 73.77568 
" style="fill:none;stroke:#333333;stroke-linecap:round;stroke-width:1.5;"/>
   </g>
   <g id="line2d_15">
    <path clip-path="url(#p955785a95b)" d="M 51.365455 95.433428 
L 52.118545 95.433428 
L 52.871636 95.433428 
L 53.624727 95.433428 
L 54.377818 95.433428 
L 55.130909 95.433428 
L 55.884 95.433428 
L 56.637091 95.433428 
L 57.390182 95.433428 
L 58.143273 95.433428 
L 58.896364 95.433428 
L 59.649455 95.433428 
L 60.402545 95.433428 
L 61.155636 95.433428 
L 61.908727 95.433428 
L 62.661818 95.433428 
L 63.414909 95.433428 
L 64.168 95.433428 
L 64.921091 95.433428 
L 65.674182 95.433428 
L 66.427273 95.433428 
L 67.180364 95.433428 
L 67.933455 95.433428 
L 68.686545 95.433428 
L 69.439636 95.433428 
L 70.192727 95.433428 
L 70.945818 95.433428 
L 71.698909 95.433428 
L 72.452 95.433428 
L 73.205091 95.433428 
L 73.958182 95.433428 
L 74.711273 95.433428 
L 75.464364 95.433428 
L 76.217455 95.433428 
L 76.970545 95.433428 
L 77.723636 95.433428 
L 78.476727 95.433428 
L 79.229818 95.433428 
L 79.982909 95.433428 
L 80.736 95.433428 
L 81.489091 95.433428 
L 82.242182 95.433428 
L 82.995273 95.433428 
L 83.748364 95.433428 
L 84.501455 95.433428 
L 85.254545 95.433428 
L 86.007636 95.433428 
L 86.760727 95.433428 
L 87.513818 95.433428 
L 88.266909 95.433428 
L 89.02 95.433428 
L 89.773091 95.433428 
L 90.526182 95.433428 
L 91.279273 95.433428 
L 92.032364 95.433428 
L 92.785455 95.433428 
L 93.538545 95.433428 
L 94.291636 95.433428 
L 95.044727 95.433428 
L 95.797818 95.433428 
L 96.550909 95.433428 
L 97.304 95.433428 
L 98.057091 95.433428 
L 98.810182 95.433428 
L 99.563273 95.433428 
L 100.316364 95.433428 
L 101.069455 95.433428 
L 101.822545 95.433428 
L 102.575636 95.433428 
L 103.328727 95.433428 
L 104.081818 95.433428 
L 104.834909 95.433428 
L 105.588 95.433428 
L 106.341091 95.433428 
L 107.094182 95.433428 
L 107.847273 95.433428 
L 108.600364 95.433428 
L 109.353455 95.433428 
L 110.106545 95.433428 
L 110.859636 95.433428 
L 111.612727 95.433428 
L 112.365818 95.433428 
L 113.118909 95.433428 
L 113.872 95.433428 
L 114.625091 95.433428 
L 115.378182 95.433428 
L 116.131273 95.433428 
L 116.884364 95.433428 
L 117.637455 95.433428 
L 118.390545 95.433428 
L 119.143636 95.433428 
L 119.896727 95.433428 
L 120.649818 95.433428 
L 121.402909 95.433428 
L 122.156 95.433428 
L 122.909091 95.433428 
L 123.662182 95.433428 
L 124.415273 95.433428 
L 125.168364 95.433428 
L 125.921455 95.433428 
L 126.674545 95.433428 
" style="fill:none;stroke:#333333;stroke-linecap:round;stroke-width:1.5;"/>
   </g>
   <g id="line2d_16">
    <path clip-path="url(#p955785a95b)" d="M 51.365455 71.594546 
L 52.118545 71.594546 
L 52.871636 71.594546 
L 53.624727 71.594546 
L 54.377818 71.594546 
L 55.130909 71.594546 
L 55.884 71.594546 
L 56.637091 71.594546 
L 57.390182 71.594546 
L 58.143273 71.594546 
L 58.896364 71.594546 
L 59.649455 71.594546 
L 60.402545 71.594546 
L 61.155636 71.594546 
L 61.908727 71.594546 
L 62.661818 71.594546 
L 63.414909 71.594546 
L 64.168 71.594546 
L 64.921091 71.594546 
L 65.674182 71.594546 
L 66.427273 71.594546 
L 67.180364 71.594546 
L 67.933455 71.594546 
L 68.686545 71.594546 
L 69.439636 71.594546 
L 70.192727 71.594546 
L 70.945818 71.594546 
L 71.698909 71.594546 
L 72.452 71.594546 
L 73.205091 71.594546 
L 73.958182 71.594546 
L 74.711273 71.594546 
L 75.464364 71.594546 
L 76.217455 71.594546 
L 76.970545 71.594546 
L 77.723636 71.594546 
L 78.476727 71.594546 
L 79.229818 71.594546 
L 79.982909 71.594546 
L 80.736 71.594546 
L 81.489091 71.594546 
L 82.242182 71.594546 
L 82.995273 71.594546 
L 83.748364 71.594546 
L 84.501455 71.594546 
L 85.254545 71.594546 
L 86.007636 71.594546 
L 86.760727 71.594546 
L 87.513818 71.594546 
L 88.266909 71.594546 
L 89.02 71.594546 
L 89.773091 71.594546 
L 90.526182 71.594546 
L 91.279273 71.594546 
L 92.032364 71.594546 
L 92.785455 71.594546 
L 93.538545 71.594546 
L 94.291636 71.594546 
L 95.044727 71.594546 
L 95.797818 71.594546 
L 96.550909 71.594546 
L 97.304 71.594546 
L 98.057091 71.594546 
L 98.810182 71.594546 
L 99.563273 71.594546 
L 100.316364 71.594546 
L 101.069455 71.594546 
L 101.822545 71.594546 
L 102.575636 71.594546 
L 103.328727 71.594546 
L 104.081818 71.594546 
L 104.834909 71.594546 
L 105.588 71.594546 
L 106.341091 71.594546 
L 107.094182 71.594546 
L 107.847273 71.594546 
L 108.600364 71.594546 
L 109.353455 71.594546 
L 110.106545 71.594546 
L 110.859636 71.594546 
L 111.612727 71.594546 
L 112.365818 71.594546 
L 113.118909 71.594546 
L 113.872 71.594546 
L 114.625091 71.594546 
L 115.378182 71.594546 
L 116.131273 71.594546 
L 116.884364 71.594546 
L 117.637455 71.594546 
L 118.390545 71.594546 
L 119.143636 71.594546 
L 119.896727 71.594546 
L 120.649818 71.594546 
L 121.402909 71.594546 
L 122.156 71.594546 
L 122.909091 71.594546 
L 123.662182 71.594546 
L 124.415273 71.594546 
L 125.168364 71.594546 
L 125.921455 71.594546 
L 126.674545 71.594546 
" style="fill:none;stroke:#333333;stroke-linecap:round;stroke-width:1.5;"/>
   </g>
  </g>
 </g>
 <defs>
  <clipPath id="p955785a95b">
   <rect height="87.961175" width="82.84" x="47.6" y="13.958825"/>
  </clipPath>
 </defs>
</svg>
