<?xml version="1.0" encoding="utf-8" standalone="no"?>
<!DOCTYPE svg PUBLIC "-//W3C//DTD SVG 1.1//EN"
  "http://www.w3.org/Graphics/SVG/1.1/DTD/svg11.dtd">
<!-- Created with matplotlib (http://matplotlib.org/) -->
<svg height="144pt" version="1.1" viewBox="0 0 144 144" width="144pt" xmlns="http://www.w3.org/2000/svg" xmlns:xlink="http://www.w3.org/1999/xlink">
 <defs>
  <style type="text/css">
*{stroke-linecap:butt;stroke-linejoin:round;}
  </style>
 </defs>
 <g id="figure_1">
  <g id="patch_1">
   <path d="M 0 144 
L 144 144 
L 144 0 
L 0 0 
z
" style="fill:#ffffff;"/>
  </g>
  <g id="axes_1">
   <g id="patch_2">
    <path d="M 47.6 101.92 
L 130.44 101.92 
L 130.44 13.56 
L 47.6 13.56 
z
" style="fill:#ffffff;"/>
   </g>
   <g id="matplotlib.axis_1">
    <g id="xtick_1">
     <g id="line2d_1">
      <defs>
       <path d="M 0 0 
L 0 3.5 
" id="m1eb55f5afc" style="stroke:#262626;stroke-width:0.8;"/>
      </defs>
      <g>
       <use style="fill:#262626;stroke:#262626;stroke-width:0.8;" x="51.365455" xlink:href="#m1eb55f5afc" y="101.92"/>
      </g>
     </g>
     <g id="text_1">
      <!-- 2 -->
      <defs>
       <path d="M 50.34375 8.453125 
L 50.34375 0 
L 3.03125 0 
Q 2.9375 3.171875 4.046875 6.109375 
Q 5.859375 10.9375 9.828125 15.625 
Q 13.8125 20.3125 21.34375 26.46875 
Q 33.015625 36.03125 37.109375 41.625 
Q 41.21875 47.21875 41.21875 52.203125 
Q 41.21875 57.421875 37.46875 61 
Q 33.734375 64.59375 27.734375 64.59375 
Q 21.390625 64.59375 17.578125 60.78125 
Q 13.765625 56.984375 13.71875 50.25 
L 4.6875 51.171875 
Q 5.609375 61.28125 11.65625 66.578125 
Q 17.71875 71.875 27.9375 71.875 
Q 38.234375 71.875 44.234375 66.15625 
Q 50.25 60.453125 50.25 52 
Q 50.25 47.703125 48.484375 43.546875 
Q 46.734375 39.40625 42.65625 34.8125 
Q 38.578125 30.21875 29.109375 22.21875 
Q 21.1875 15.578125 18.9375 13.203125 
Q 16.703125 10.84375 15.234375 8.453125 
z
" id="ArialMT-32"/>
      </defs>
      <g style="fill:#262626;" transform="translate(48.306939 116.793594)scale(0.11 -0.11)">
       <use xlink:href="#ArialMT-32"/>
      </g>
     </g>
    </g>
    <g id="xtick_2">
     <g id="line2d_2">
      <g>
       <use style="fill:#262626;stroke:#262626;stroke-width:0.8;" x="66.427273" xlink:href="#m1eb55f5afc" y="101.92"/>
      </g>
     </g>
     <g id="text_2">
      <!-- 4 -->
      <defs>
       <path d="M 32.328125 0 
L 32.328125 17.140625 
L 1.265625 17.140625 
L 1.265625 25.203125 
L 33.9375 71.578125 
L 41.109375 71.578125 
L 41.109375 25.203125 
L 50.78125 25.203125 
L 50.78125 17.140625 
L 41.109375 17.140625 
L 41.109375 0 
z
M 32.328125 25.203125 
L 32.328125 57.46875 
L 9.90625 25.203125 
z
" id="ArialMT-34"/>
      </defs>
      <g style="fill:#262626;" transform="translate(63.368757 116.793594)scale(0.11 -0.11)">
       <use xlink:href="#ArialMT-34"/>
      </g>
     </g>
    </g>
    <g id="xtick_3">
     <g id="line2d_3">
      <g>
       <use style="fill:#262626;stroke:#262626;stroke-width:0.8;" x="81.489091" xlink:href="#m1eb55f5afc" y="101.92"/>
      </g>
     </g>
     <g id="text_3">
      <!-- 6 -->
      <defs>
       <path d="M 49.75 54.046875 
L 41.015625 53.375 
Q 39.84375 58.546875 37.703125 60.890625 
Q 34.125 64.65625 28.90625 64.65625 
Q 24.703125 64.65625 21.53125 62.3125 
Q 17.390625 59.28125 14.984375 53.46875 
Q 12.59375 47.65625 12.5 36.921875 
Q 15.671875 41.75 20.265625 44.09375 
Q 24.859375 46.4375 29.890625 46.4375 
Q 38.671875 46.4375 44.84375 39.96875 
Q 51.03125 33.5 51.03125 23.25 
Q 51.03125 16.5 48.125 10.71875 
Q 45.21875 4.9375 40.140625 1.859375 
Q 35.0625 -1.21875 28.609375 -1.21875 
Q 17.625 -1.21875 10.6875 6.859375 
Q 3.765625 14.9375 3.765625 33.5 
Q 3.765625 54.25 11.421875 63.671875 
Q 18.109375 71.875 29.4375 71.875 
Q 37.890625 71.875 43.28125 67.140625 
Q 48.6875 62.40625 49.75 54.046875 
z
M 13.875 23.1875 
Q 13.875 18.65625 15.796875 14.5 
Q 17.71875 10.359375 21.1875 8.171875 
Q 24.65625 6 28.46875 6 
Q 34.03125 6 38.03125 10.484375 
Q 42.046875 14.984375 42.046875 22.703125 
Q 42.046875 30.125 38.078125 34.390625 
Q 34.125 38.671875 28.125 38.671875 
Q 22.171875 38.671875 18.015625 34.390625 
Q 13.875 30.125 13.875 23.1875 
z
" id="ArialMT-36"/>
      </defs>
      <g style="fill:#262626;" transform="translate(78.430575 116.793594)scale(0.11 -0.11)">
       <use xlink:href="#ArialMT-36"/>
      </g>
     </g>
    </g>
    <g id="xtick_4">
     <g id="line2d_4">
      <g>
       <use style="fill:#262626;stroke:#262626;stroke-width:0.8;" x="96.550909" xlink:href="#m1eb55f5afc" y="101.92"/>
      </g>
     </g>
     <g id="text_4">
      <!-- 8 -->
      <defs>
       <path d="M 17.671875 38.8125 
Q 12.203125 40.828125 9.5625 44.53125 
Q 6.9375 48.25 6.9375 53.421875 
Q 6.9375 61.234375 12.546875 66.546875 
Q 18.171875 71.875 27.484375 71.875 
Q 36.859375 71.875 42.578125 66.421875 
Q 48.296875 60.984375 48.296875 53.171875 
Q 48.296875 48.1875 45.671875 44.5 
Q 43.0625 40.828125 37.75 38.8125 
Q 44.34375 36.671875 47.78125 31.875 
Q 51.21875 27.09375 51.21875 20.453125 
Q 51.21875 11.28125 44.71875 5.03125 
Q 38.234375 -1.21875 27.640625 -1.21875 
Q 17.046875 -1.21875 10.546875 5.046875 
Q 4.046875 11.328125 4.046875 20.703125 
Q 4.046875 27.6875 7.59375 32.390625 
Q 11.140625 37.109375 17.671875 38.8125 
z
M 15.921875 53.71875 
Q 15.921875 48.640625 19.1875 45.40625 
Q 22.46875 42.1875 27.6875 42.1875 
Q 32.765625 42.1875 36.015625 45.375 
Q 39.265625 48.578125 39.265625 53.21875 
Q 39.265625 58.0625 35.90625 61.359375 
Q 32.5625 64.65625 27.59375 64.65625 
Q 22.5625 64.65625 19.234375 61.421875 
Q 15.921875 58.203125 15.921875 53.71875 
z
M 13.09375 20.65625 
Q 13.09375 16.890625 14.875 13.375 
Q 16.65625 9.859375 20.171875 7.921875 
Q 23.6875 6 27.734375 6 
Q 34.03125 6 38.125 10.046875 
Q 42.234375 14.109375 42.234375 20.359375 
Q 42.234375 26.703125 38.015625 30.859375 
Q 33.796875 35.015625 27.4375 35.015625 
Q 21.234375 35.015625 17.15625 30.90625 
Q 13.09375 26.8125 13.09375 20.65625 
z
" id="ArialMT-38"/>
      </defs>
      <g style="fill:#262626;" transform="translate(93.492393 116.793594)scale(0.11 -0.11)">
       <use xlink:href="#ArialMT-38"/>
      </g>
     </g>
    </g>
    <g id="xtick_5">
     <g id="line2d_5">
      <g>
       <use style="fill:#262626;stroke:#262626;stroke-width:0.8;" x="111.612727" xlink:href="#m1eb55f5afc" y="101.92"/>
      </g>
     </g>
     <g id="text_5">
      <!-- 10 -->
      <defs>
       <path d="M 37.25 0 
L 28.46875 0 
L 28.46875 56 
Q 25.296875 52.984375 20.140625 49.953125 
Q 14.984375 46.921875 10.890625 45.40625 
L 10.890625 53.90625 
Q 18.265625 57.375 23.78125 62.296875 
Q 29.296875 67.234375 31.59375 71.875 
L 37.25 71.875 
z
" id="ArialMT-31"/>
       <path d="M 4.15625 35.296875 
Q 4.15625 48 6.765625 55.734375 
Q 9.375 63.484375 14.515625 67.671875 
Q 19.671875 71.875 27.484375 71.875 
Q 33.25 71.875 37.59375 69.546875 
Q 41.9375 67.234375 44.765625 62.859375 
Q 47.609375 58.5 49.21875 52.21875 
Q 50.828125 45.953125 50.828125 35.296875 
Q 50.828125 22.703125 48.234375 14.96875 
Q 45.65625 7.234375 40.5 3 
Q 35.359375 -1.21875 27.484375 -1.21875 
Q 17.140625 -1.21875 11.234375 6.203125 
Q 4.15625 15.140625 4.15625 35.296875 
z
M 13.1875 35.296875 
Q 13.1875 17.671875 17.3125 11.828125 
Q 21.4375 6 27.484375 6 
Q 33.546875 6 37.671875 11.859375 
Q 41.796875 17.71875 41.796875 35.296875 
Q 41.796875 52.984375 37.671875 58.78125 
Q 33.546875 64.59375 27.390625 64.59375 
Q 21.34375 64.59375 17.71875 59.46875 
Q 13.1875 52.9375 13.1875 35.296875 
z
" id="ArialMT-30"/>
      </defs>
      <g style="fill:#262626;" transform="translate(105.495696 116.793594)scale(0.11 -0.11)">
       <use xlink:href="#ArialMT-31"/>
       <use x="55.615234" xlink:href="#ArialMT-30"/>
      </g>
     </g>
    </g>
    <g id="xtick_6">
     <g id="line2d_6">
      <g>
       <use style="fill:#262626;stroke:#262626;stroke-width:0.8;" x="126.674545" xlink:href="#m1eb55f5afc" y="101.92"/>
      </g>
     </g>
     <g id="text_6">
      <!-- 12 -->
      <g style="fill:#262626;" transform="translate(120.557514 116.793594)scale(0.11 -0.11)">
       <use xlink:href="#ArialMT-31"/>
       <use x="55.615234" xlink:href="#ArialMT-32"/>
      </g>
     </g>
    </g>
    <g id="text_7">
     <!-- pH -->
     <defs>
      <path d="M 6.59375 -19.875 
L 6.59375 51.859375 
L 14.59375 51.859375 
L 14.59375 45.125 
Q 17.4375 49.078125 21 51.046875 
Q 24.5625 53.03125 29.640625 53.03125 
Q 36.28125 53.03125 41.359375 49.609375 
Q 46.4375 46.1875 49.015625 39.953125 
Q 51.609375 33.734375 51.609375 26.3125 
Q 51.609375 18.359375 48.75 11.984375 
Q 45.90625 5.609375 40.453125 2.21875 
Q 35.015625 -1.171875 29 -1.171875 
Q 24.609375 -1.171875 21.109375 0.6875 
Q 17.625 2.546875 15.375 5.375 
L 15.375 -19.875 
z
M 14.546875 25.640625 
Q 14.546875 15.625 18.59375 10.84375 
Q 22.65625 6.0625 28.421875 6.0625 
Q 34.28125 6.0625 38.453125 11.015625 
Q 42.625 15.96875 42.625 26.375 
Q 42.625 36.28125 38.546875 41.203125 
Q 34.46875 46.140625 28.8125 46.140625 
Q 23.1875 46.140625 18.859375 40.890625 
Q 14.546875 35.640625 14.546875 25.640625 
z
" id="ArialMT-70"/>
      <path d="M 8.015625 0 
L 8.015625 71.578125 
L 17.484375 71.578125 
L 17.484375 42.1875 
L 54.6875 42.1875 
L 54.6875 71.578125 
L 64.15625 71.578125 
L 64.15625 0 
L 54.6875 0 
L 54.6875 33.734375 
L 17.484375 33.734375 
L 17.484375 0 
z
" id="ArialMT-48"/>
     </defs>
     <g style="fill:#262626;" transform="translate(81.989453 130.853437)scale(0.11 -0.11)">
      <use xlink:href="#ArialMT-70"/>
      <use x="55.615234" xlink:href="#ArialMT-48"/>
     </g>
    </g>
   </g>
   <g id="matplotlib.axis_2">
    <g id="ytick_1">
     <g id="line2d_7">
      <defs>
       <path d="M 0 0 
L -3.5 0 
" id="m519657fab5" style="stroke:#262626;stroke-width:0.8;"/>
      </defs>
      <g>
       <use style="fill:#262626;stroke:#262626;stroke-width:0.8;" x="47.6" xlink:href="#m519657fab5" y="87.037157"/>
      </g>
     </g>
     <g id="text_8">
      <!-- 0 -->
      <g style="fill:#262626;" transform="translate(34.482969 90.973954)scale(0.11 -0.11)">
       <use xlink:href="#ArialMT-30"/>
      </g>
     </g>
    </g>
    <g id="ytick_2">
     <g id="line2d_8">
      <g>
       <use style="fill:#262626;stroke:#262626;stroke-width:0.8;" x="47.6" xlink:href="#m519657fab5" y="54.26534"/>
      </g>
     </g>
     <g id="text_9">
      <!-- 20 -->
      <g style="fill:#262626;" transform="translate(28.365938 58.202137)scale(0.11 -0.11)">
       <use xlink:href="#ArialMT-32"/>
       <use x="55.615234" xlink:href="#ArialMT-30"/>
      </g>
     </g>
    </g>
    <g id="ytick_3">
     <g id="line2d_9">
      <g>
       <use style="fill:#262626;stroke:#262626;stroke-width:0.8;" x="47.6" xlink:href="#m519657fab5" y="21.493522"/>
      </g>
     </g>
     <g id="text_10">
      <!-- 40 -->
      <g style="fill:#262626;" transform="translate(28.365938 25.430319)scale(0.11 -0.11)">
       <use xlink:href="#ArialMT-34"/>
       <use x="55.615234" xlink:href="#ArialMT-30"/>
      </g>
     </g>
    </g>
    <g id="text_11">
     <!-- Free energy ($k_B T$) -->
     <defs>
      <path d="M 8.203125 0 
L 8.203125 71.578125 
L 56.5 71.578125 
L 56.5 63.140625 
L 17.671875 63.140625 
L 17.671875 40.96875 
L 51.265625 40.96875 
L 51.265625 32.515625 
L 17.671875 32.515625 
L 17.671875 0 
z
" id="ArialMT-46"/>
      <path d="M 6.5 0 
L 6.5 51.859375 
L 14.40625 51.859375 
L 14.40625 44 
Q 17.4375 49.515625 20 51.265625 
Q 22.5625 53.03125 25.640625 53.03125 
Q 30.078125 53.03125 34.671875 50.203125 
L 31.640625 42.046875 
Q 28.421875 43.953125 25.203125 43.953125 
Q 22.3125 43.953125 20.015625 42.21875 
Q 17.71875 40.484375 16.75 37.40625 
Q 15.28125 32.71875 15.28125 27.15625 
L 15.28125 0 
z
" id="ArialMT-72"/>
      <path d="M 42.09375 16.703125 
L 51.171875 15.578125 
Q 49.03125 7.625 43.21875 3.21875 
Q 37.40625 -1.171875 28.375 -1.171875 
Q 17 -1.171875 10.328125 5.828125 
Q 3.65625 12.84375 3.65625 25.484375 
Q 3.65625 38.578125 10.390625 45.796875 
Q 17.140625 53.03125 27.875 53.03125 
Q 38.28125 53.03125 44.875 45.953125 
Q 51.46875 38.875 51.46875 26.03125 
Q 51.46875 25.25 51.421875 23.6875 
L 12.75 23.6875 
Q 13.234375 15.140625 17.578125 10.59375 
Q 21.921875 6.0625 28.421875 6.0625 
Q 33.25 6.0625 36.671875 8.59375 
Q 40.09375 11.140625 42.09375 16.703125 
z
M 13.234375 30.90625 
L 42.1875 30.90625 
Q 41.609375 37.453125 38.875 40.71875 
Q 34.671875 45.796875 27.984375 45.796875 
Q 21.921875 45.796875 17.796875 41.75 
Q 13.671875 37.703125 13.234375 30.90625 
z
" id="ArialMT-65"/>
      <path id="ArialMT-20"/>
      <path d="M 6.59375 0 
L 6.59375 51.859375 
L 14.5 51.859375 
L 14.5 44.484375 
Q 20.21875 53.03125 31 53.03125 
Q 35.6875 53.03125 39.625 51.34375 
Q 43.5625 49.65625 45.515625 46.921875 
Q 47.46875 44.1875 48.25 40.4375 
Q 48.734375 37.984375 48.734375 31.890625 
L 48.734375 0 
L 39.9375 0 
L 39.9375 31.546875 
Q 39.9375 36.921875 38.90625 39.578125 
Q 37.890625 42.234375 35.28125 43.8125 
Q 32.671875 45.40625 29.15625 45.40625 
Q 23.53125 45.40625 19.453125 41.84375 
Q 15.375 38.28125 15.375 28.328125 
L 15.375 0 
z
" id="ArialMT-6e"/>
      <path d="M 4.984375 -4.296875 
L 13.53125 -5.5625 
Q 14.0625 -9.515625 16.5 -11.328125 
Q 19.78125 -13.765625 25.4375 -13.765625 
Q 31.546875 -13.765625 34.859375 -11.328125 
Q 38.1875 -8.890625 39.359375 -4.5 
Q 40.046875 -1.8125 39.984375 6.78125 
Q 34.234375 0 25.640625 0 
Q 14.9375 0 9.078125 7.71875 
Q 3.21875 15.4375 3.21875 26.21875 
Q 3.21875 33.640625 5.90625 39.90625 
Q 8.59375 46.1875 13.6875 49.609375 
Q 18.796875 53.03125 25.6875 53.03125 
Q 34.859375 53.03125 40.828125 45.609375 
L 40.828125 51.859375 
L 48.921875 51.859375 
L 48.921875 7.03125 
Q 48.921875 -5.078125 46.453125 -10.125 
Q 44 -15.1875 38.640625 -18.109375 
Q 33.296875 -21.046875 25.484375 -21.046875 
Q 16.21875 -21.046875 10.5 -16.875 
Q 4.78125 -12.703125 4.984375 -4.296875 
z
M 12.25 26.859375 
Q 12.25 16.65625 16.296875 11.96875 
Q 20.359375 7.28125 26.46875 7.28125 
Q 32.515625 7.28125 36.609375 11.9375 
Q 40.71875 16.609375 40.71875 26.5625 
Q 40.71875 36.078125 36.5 40.90625 
Q 32.28125 45.75 26.3125 45.75 
Q 20.453125 45.75 16.34375 40.984375 
Q 12.25 36.234375 12.25 26.859375 
z
" id="ArialMT-67"/>
      <path d="M 6.203125 -19.96875 
L 5.21875 -11.71875 
Q 8.109375 -12.5 10.25 -12.5 
Q 13.1875 -12.5 14.9375 -11.515625 
Q 16.703125 -10.546875 17.828125 -8.796875 
Q 18.65625 -7.46875 20.515625 -2.25 
Q 20.75 -1.515625 21.296875 -0.09375 
L 1.609375 51.859375 
L 11.078125 51.859375 
L 21.875 21.828125 
Q 23.96875 16.109375 25.640625 9.8125 
Q 27.15625 15.875 29.25 21.625 
L 40.328125 51.859375 
L 49.125 51.859375 
L 29.390625 -0.875 
Q 26.21875 -9.421875 24.46875 -12.640625 
Q 22.125 -17 19.09375 -19.015625 
Q 16.0625 -21.046875 11.859375 -21.046875 
Q 9.328125 -21.046875 6.203125 -19.96875 
z
" id="ArialMT-79"/>
      <path d="M 23.390625 -21.046875 
Q 16.109375 -11.859375 11.078125 0.4375 
Q 6.0625 12.75 6.0625 25.921875 
Q 6.0625 37.546875 9.8125 48.1875 
Q 14.203125 60.546875 23.390625 72.796875 
L 29.6875 72.796875 
Q 23.78125 62.640625 21.875 58.296875 
Q 18.890625 51.5625 17.1875 44.234375 
Q 15.09375 35.109375 15.09375 25.875 
Q 15.09375 2.390625 29.6875 -21.046875 
z
" id="ArialMT-28"/>
      <path d="M 18.3125 75.984375 
L 27.296875 75.984375 
L 18.703125 31.6875 
L 49.515625 54.6875 
L 61.1875 54.6875 
L 26.8125 28.515625 
L 51.90625 0 
L 41.015625 0 
L 17.671875 26.703125 
L 12.5 0 
L 3.515625 0 
z
" id="DejaVuSans-Oblique-6b"/>
      <path d="M 16.890625 72.90625 
L 42.09375 72.90625 
Q 52.34375 72.90625 57.421875 69.09375 
Q 62.5 65.28125 62.5 57.625 
Q 62.5 50.59375 58.125 45.484375 
Q 53.765625 40.375 46.6875 39.3125 
Q 52.734375 37.9375 55.765625 34.078125 
Q 58.796875 30.21875 58.796875 23.78125 
Q 58.796875 12.796875 50.65625 6.390625 
Q 42.53125 0 28.421875 0 
L 2.6875 0 
z
M 19.28125 34.8125 
L 14.109375 8.109375 
L 29.984375 8.109375 
Q 38.921875 8.109375 43.75 12.203125 
Q 48.578125 16.3125 48.578125 23.78125 
Q 48.578125 29.546875 45.375 32.171875 
Q 42.1875 34.8125 35.109375 34.8125 
z
M 25.09375 64.796875 
L 20.796875 42.828125 
L 35.5 42.828125 
Q 43.359375 42.828125 47.78125 46.234375 
Q 52.203125 49.65625 52.203125 55.71875 
Q 52.203125 60.453125 49.21875 62.625 
Q 46.234375 64.796875 39.703125 64.796875 
z
" id="DejaVuSans-Oblique-42"/>
      <path d="M 5.90625 72.90625 
L 67.578125 72.90625 
L 66.015625 64.59375 
L 39.984375 64.59375 
L 27.484375 0 
L 17.578125 0 
L 30.078125 64.59375 
L 4.296875 64.59375 
z
" id="DejaVuSans-Oblique-54"/>
      <path d="M 12.359375 -21.046875 
L 6.0625 -21.046875 
Q 20.65625 2.390625 20.65625 25.875 
Q 20.65625 35.0625 18.5625 44.09375 
Q 16.890625 51.421875 13.921875 58.15625 
Q 12.015625 62.546875 6.0625 72.796875 
L 12.359375 72.796875 
Q 21.53125 60.546875 25.921875 48.1875 
Q 29.6875 37.546875 29.6875 25.921875 
Q 29.6875 12.75 24.625 0.4375 
Q 19.578125 -11.859375 12.359375 -21.046875 
z
" id="ArialMT-29"/>
     </defs>
     <g style="fill:#262626;" transform="translate(21.945938 101.96)rotate(-90)scale(0.11 -0.11)">
      <use transform="translate(0 0.015625)" xlink:href="#ArialMT-46"/>
      <use transform="translate(61.083984 0.015625)" xlink:href="#ArialMT-72"/>
      <use transform="translate(94.384766 0.015625)" xlink:href="#ArialMT-65"/>
      <use transform="translate(150 0.015625)" xlink:href="#ArialMT-65"/>
      <use transform="translate(205.615234 0.015625)" xlink:href="#ArialMT-20"/>
      <use transform="translate(233.398438 0.015625)" xlink:href="#ArialMT-65"/>
      <use transform="translate(289.013672 0.015625)" xlink:href="#ArialMT-6e"/>
      <use transform="translate(344.628906 0.015625)" xlink:href="#ArialMT-65"/>
      <use transform="translate(400.244141 0.015625)" xlink:href="#ArialMT-72"/>
      <use transform="translate(433.544922 0.015625)" xlink:href="#ArialMT-67"/>
      <use transform="translate(489.160156 0.015625)" xlink:href="#ArialMT-79"/>
      <use transform="translate(539.160156 0.015625)" xlink:href="#ArialMT-20"/>
      <use transform="translate(566.943359 0.015625)" xlink:href="#ArialMT-28"/>
      <use transform="translate(600.244141 0.015625)" xlink:href="#DejaVuSans-Oblique-6b"/>
      <use transform="translate(658.154297 -16.390625)scale(0.7)" xlink:href="#DejaVuSans-Oblique-42"/>
      <use transform="translate(708.911133 0.015625)" xlink:href="#DejaVuSans-Oblique-54"/>
      <use transform="translate(769.995117 0.015625)" xlink:href="#ArialMT-29"/>
     </g>
    </g>
   </g>
   <g id="patch_3">
    <path d="M 47.6 101.92 
L 47.6 13.56 
" style="fill:none;stroke:#262626;stroke-linecap:square;stroke-linejoin:miter;stroke-width:0.8;"/>
   </g>
   <g id="patch_4">
    <path d="M 47.6 101.92 
L 130.44 101.92 
" style="fill:none;stroke:#262626;stroke-linecap:square;stroke-linejoin:miter;stroke-width:0.8;"/>
   </g>
   <g id="line2d_10">
    <path clip-path="url(#p21fa828376)" d="M 51.365455 17.576364 
L 52.118545 18.330963 
L 52.871636 19.085562 
L 53.624727 19.840161 
L 54.377818 20.59476 
L 55.130909 21.349359 
L 55.884 22.103958 
L 56.637091 22.858557 
L 57.390182 23.613155 
L 58.143273 24.367754 
L 58.896364 25.122353 
L 59.649455 25.876952 
L 60.402545 26.631551 
L 61.155636 27.38615 
L 61.908727 28.140749 
L 62.661818 28.895348 
L 63.414909 29.649947 
L 64.168 30.404546 
L 64.921091 31.159145 
L 65.674182 31.913744 
L 66.427273 32.668343 
L 67.180364 33.422942 
L 67.933455 34.177541 
L 68.686545 34.93214 
L 69.439636 35.686739 
L 70.192727 36.441338 
L 70.945818 37.195937 
L 71.698909 37.950536 
L 72.452 38.705135 
L 73.205091 39.459734 
L 73.958182 40.214333 
L 74.711273 40.968932 
L 75.464364 41.723531 
L 76.217455 42.47813 
L 76.970545 43.232729 
L 77.723636 43.987328 
L 78.476727 44.741927 
L 79.229818 45.496526 
L 79.982909 46.251125 
L 80.736 47.005724 
L 81.489091 47.760323 
L 82.242182 48.514922 
L 82.995273 49.269521 
L 83.748364 50.02412 
L 84.501455 50.778719 
L 85.254545 51.533318 
L 86.007636 52.287917 
L 86.760727 53.042516 
L 87.513818 53.797115 
L 88.266909 54.551714 
L 89.02 55.306313 
L 89.773091 56.060912 
L 90.526182 56.815511 
L 91.279273 57.57011 
L 92.032364 58.324709 
L 92.785455 59.079308 
L 93.538545 59.833907 
L 94.291636 60.588506 
L 95.044727 61.343105 
L 95.797818 62.097704 
L 96.550909 62.852303 
L 97.304 63.606902 
L 98.057091 64.361501 
L 98.810182 65.1161 
L 99.563273 65.870698 
L 100.316364 66.625297 
L 101.069455 67.379896 
L 101.822545 68.134495 
L 102.575636 68.889094 
L 103.328727 69.643693 
L 104.081818 70.398292 
L 104.834909 71.152891 
L 105.588 71.90749 
L 106.341091 72.662089 
L 107.094182 73.416688 
L 107.847273 74.171287 
L 108.600364 74.925886 
L 109.353455 75.680485 
L 110.106545 76.435084 
L 110.859636 77.189683 
L 111.612727 77.944282 
L 112.365818 78.698881 
L 113.118909 79.45348 
L 113.872 80.208079 
L 114.625091 80.962678 
L 115.378182 81.717277 
L 116.131273 82.471876 
L 116.884364 83.226475 
L 117.637455 83.981074 
L 118.390545 84.735673 
L 119.143636 85.490272 
L 119.896727 86.244871 
L 120.649818 86.99947 
L 121.402909 87.754069 
L 122.156 88.508668 
L 122.909091 89.263267 
L 123.662182 90.017866 
L 124.415273 90.772465 
L 125.168364 91.527064 
L 125.921455 92.281663 
L 126.674545 93.036262 
" style="fill:none;stroke:#d6604d;stroke-linecap:round;stroke-width:1.5;"/>
   </g>
   <g id="line2d_11">
    <path clip-path="url(#p21fa828376)" d="M 51.365455 60.173687 
L 52.118545 60.550987 
L 52.871636 60.928286 
L 53.624727 61.305586 
L 54.377818 61.682885 
L 55.130909 62.060185 
L 55.884 62.437484 
L 56.637091 62.814784 
L 57.390182 63.192083 
L 58.143273 63.569383 
L 58.896364 63.946682 
L 59.649455 64.323982 
L 60.402545 64.701281 
L 61.155636 65.078581 
L 61.908727 65.45588 
L 62.661818 65.83318 
L 63.414909 66.210479 
L 64.168 66.587779 
L 64.921091 66.965078 
L 65.674182 67.342378 
L 66.427273 67.719677 
L 67.180364 68.096977 
L 67.933455 68.474276 
L 68.686545 68.851576 
L 69.439636 69.228875 
L 70.192727 69.606175 
L 70.945818 69.983474 
L 71.698909 70.360774 
L 72.452 70.738073 
L 73.205091 71.115372 
L 73.958182 71.492672 
L 74.711273 71.869971 
L 75.464364 72.247271 
L 76.217455 72.62457 
L 76.970545 73.00187 
L 77.723636 73.379169 
L 78.476727 73.756469 
L 79.229818 74.133768 
L 79.982909 74.511068 
L 80.736 74.888367 
L 81.489091 75.265667 
L 82.242182 75.642966 
L 82.995273 76.020266 
L 83.748364 76.397565 
L 84.501455 76.774865 
L 85.254545 77.152164 
L 86.007636 77.529464 
L 86.760727 77.906763 
L 87.513818 78.284063 
L 88.266909 78.661362 
L 89.02 79.038662 
L 89.773091 79.415961 
L 90.526182 79.793261 
L 91.279273 80.17056 
L 92.032364 80.54786 
L 92.785455 80.925159 
L 93.538545 81.302459 
L 94.291636 81.679758 
L 95.044727 82.057058 
L 95.797818 82.434357 
L 96.550909 82.811657 
L 97.304 83.188956 
L 98.057091 83.566256 
L 98.810182 83.943555 
L 99.563273 84.320855 
L 100.316364 84.698154 
L 101.069455 85.075454 
L 101.822545 85.452753 
L 102.575636 85.830053 
L 103.328727 86.207352 
L 104.081818 86.584652 
L 104.834909 86.961951 
L 105.588 87.339251 
L 106.341091 87.71655 
L 107.094182 88.09385 
L 107.847273 88.471149 
L 108.600364 88.848449 
L 109.353455 89.225748 
L 110.106545 89.603048 
L 110.859636 89.980347 
L 111.612727 90.357647 
L 112.365818 90.734946 
L 113.118909 91.112246 
L 113.872 91.489545 
L 114.625091 91.866845 
L 115.378182 92.244144 
L 116.131273 92.621443 
L 116.884364 92.998743 
L 117.637455 93.376042 
L 118.390545 93.753342 
L 119.143636 94.130641 
L 119.896727 94.507941 
L 120.649818 94.88524 
L 121.402909 95.26254 
L 122.156 95.639839 
L 122.909091 96.017139 
L 123.662182 96.394438 
L 124.415273 96.771738 
L 125.168364 97.149037 
L 125.921455 97.526337 
L 126.674545 97.903636 
" style="fill:none;stroke:#f4a582;stroke-linecap:round;stroke-width:1.5;"/>
   </g>
   <g id="line2d_12">
    <path clip-path="url(#p21fa828376)" d="M 51.365455 77.68013 
L 52.118545 77.30283 
L 52.871636 76.925531 
L 53.624727 76.548231 
L 54.377818 76.170932 
L 55.130909 75.793632 
L 55.884 75.416333 
L 56.637091 75.039033 
L 57.390182 74.661734 
L 58.143273 74.284434 
L 58.896364 73.907135 
L 59.649455 73.529835 
L 60.402545 73.152536 
L 61.155636 72.775236 
L 61.908727 72.397937 
L 62.661818 72.020638 
L 63.414909 71.643338 
L 64.168 71.266039 
L 64.921091 70.888739 
L 65.674182 70.51144 
L 66.427273 70.13414 
L 67.180364 69.756841 
L 67.933455 69.379541 
L 68.686545 69.002242 
L 69.439636 68.624942 
L 70.192727 68.247643 
L 70.945818 67.870343 
L 71.698909 67.493044 
L 72.452 67.115744 
L 73.205091 66.738445 
L 73.958182 66.361145 
L 74.711273 65.983846 
L 75.464364 65.606546 
L 76.217455 65.229247 
L 76.970545 64.851947 
L 77.723636 64.474648 
L 78.476727 64.097348 
L 79.229818 63.720049 
L 79.982909 63.342749 
L 80.736 62.96545 
L 81.489091 62.58815 
L 82.242182 62.210851 
L 82.995273 61.833551 
L 83.748364 61.456252 
L 84.501455 61.078952 
L 85.254545 60.701653 
L 86.007636 60.324353 
L 86.760727 59.947054 
L 87.513818 59.569754 
L 88.266909 59.192455 
L 89.02 58.815155 
L 89.773091 58.437856 
L 90.526182 58.060556 
L 91.279273 57.683257 
L 92.032364 57.305957 
L 92.785455 56.928658 
L 93.538545 56.551358 
L 94.291636 56.174059 
L 95.044727 55.796759 
L 95.797818 55.41946 
L 96.550909 55.04216 
L 97.304 54.664861 
L 98.057091 54.287561 
L 98.810182 53.910262 
L 99.563273 53.532962 
L 100.316364 53.155663 
L 101.069455 52.778363 
L 101.822545 52.401064 
L 102.575636 52.023764 
L 103.328727 51.646465 
L 104.081818 51.269165 
L 104.834909 50.891866 
L 105.588 50.514567 
L 106.341091 50.137267 
L 107.094182 49.759968 
L 107.847273 49.382668 
L 108.600364 49.005369 
L 109.353455 48.628069 
L 110.106545 48.25077 
L 110.859636 47.87347 
L 111.612727 47.496171 
L 112.365818 47.118871 
L 113.118909 46.741572 
L 113.872 46.364272 
L 114.625091 45.986973 
L 115.378182 45.609673 
L 116.131273 45.232374 
L 116.884364 44.855074 
L 117.637455 44.477775 
L 118.390545 44.100475 
L 119.143636 43.723176 
L 119.896727 43.345876 
L 120.649818 42.968577 
L 121.402909 42.591277 
L 122.156 42.213978 
L 122.909091 41.836678 
L 123.662182 41.459379 
L 124.415273 41.082079 
L 125.168364 40.70478 
L 125.921455 40.32748 
L 126.674545 39.950181 
" style="fill:none;stroke:#92c5de;stroke-linecap:round;stroke-width:1.5;"/>
   </g>
   <g id="line2d_13">
    <path clip-path="url(#p21fa828376)" d="M 51.365455 87.037157 
L 52.118545 87.037157 
L 52.871636 87.037157 
L 53.624727 87.037157 
L 54.377818 87.037157 
L 55.130909 87.037157 
L 55.884 87.037157 
L 56.637091 87.037157 
L 57.390182 87.037157 
L 58.143273 87.037157 
L 58.896364 87.037157 
L 59.649455 87.037157 
L 60.402545 87.037157 
L 61.155636 87.037157 
L 61.908727 87.037157 
L 62.661818 87.037157 
L 63.414909 87.037157 
L 64.168 87.037157 
L 64.921091 87.037157 
L 65.674182 87.037157 
L 66.427273 87.037157 
L 67.180364 87.037157 
L 67.933455 87.037157 
L 68.686545 87.037157 
L 69.439636 87.037157 
L 70.192727 87.037157 
L 70.945818 87.037157 
L 71.698909 87.037157 
L 72.452 87.037157 
L 73.205091 87.037157 
L 73.958182 87.037157 
L 74.711273 87.037157 
L 75.464364 87.037157 
L 76.217455 87.037157 
L 76.970545 87.037157 
L 77.723636 87.037157 
L 78.476727 87.037157 
L 79.229818 87.037157 
L 79.982909 87.037157 
L 80.736 87.037157 
L 81.489091 87.037157 
L 82.242182 87.037157 
L 82.995273 87.037157 
L 83.748364 87.037157 
L 84.501455 87.037157 
L 85.254545 87.037157 
L 86.007636 87.037157 
L 86.760727 87.037157 
L 87.513818 87.037157 
L 88.266909 87.037157 
L 89.02 87.037157 
L 89.773091 87.037157 
L 90.526182 87.037157 
L 91.279273 87.037157 
L 92.032364 87.037157 
L 92.785455 87.037157 
L 93.538545 87.037157 
L 94.291636 87.037157 
L 95.044727 87.037157 
L 95.797818 87.037157 
L 96.550909 87.037157 
L 97.304 87.037157 
L 98.057091 87.037157 
L 98.810182 87.037157 
L 99.563273 87.037157 
L 100.316364 87.037157 
L 101.069455 87.037157 
L 101.822545 87.037157 
L 102.575636 87.037157 
L 103.328727 87.037157 
L 104.081818 87.037157 
L 104.834909 87.037157 
L 105.588 87.037157 
L 106.341091 87.037157 
L 107.094182 87.037157 
L 107.847273 87.037157 
L 108.600364 87.037157 
L 109.353455 87.037157 
L 110.106545 87.037157 
L 110.859636 87.037157 
L 111.612727 87.037157 
L 112.365818 87.037157 
L 113.118909 87.037157 
L 113.872 87.037157 
L 114.625091 87.037157 
L 115.378182 87.037157 
L 116.131273 87.037157 
L 116.884364 87.037157 
L 117.637455 87.037157 
L 118.390545 87.037157 
L 119.143636 87.037157 
L 119.896727 87.037157 
L 120.649818 87.037157 
L 121.402909 87.037157 
L 122.156 87.037157 
L 122.909091 87.037157 
L 123.662182 87.037157 
L 124.415273 87.037157 
L 125.168364 87.037157 
L 125.921455 87.037157 
L 126.674545 87.037157 
" style="fill:none;stroke:#333333;stroke-linecap:round;stroke-width:1.5;"/>
   </g>
  </g>
 </g>
 <defs>
  <clipPath id="p21fa828376">
   <rect height="88.36" width="82.84" x="47.6" y="13.56"/>
  </clipPath>
 </defs>
</svg>
