<?xml version="1.0" encoding="utf-8" standalone="no"?>
<!DOCTYPE svg PUBLIC "-//W3C//DTD SVG 1.1//EN"
  "http://www.w3.org/Graphics/SVG/1.1/DTD/svg11.dtd">
<!-- Created with matplotlib (http://matplotlib.org/) -->
<svg height="144pt" version="1.1" viewBox="0 0 144 144" width="144pt" xmlns="http://www.w3.org/2000/svg" xmlns:xlink="http://www.w3.org/1999/xlink">
 <defs>
  <style type="text/css">
*{stroke-linecap:butt;stroke-linejoin:round;}
  </style>
 </defs>
 <g id="figure_1">
  <g id="patch_1">
   <path d="M 0 144 
L 144 144 
L 144 0 
L 0 0 
z
" style="fill:#ffffff;"/>
  </g>
  <g id="axes_1">
   <g id="patch_2">
    <path d="M 47.6 101.92 
L 130.44 101.92 
L 130.44 15.373028 
L 47.6 15.373028 
z
" style="fill:#ffffff;"/>
   </g>
   <g id="matplotlib.axis_1">
    <g id="xtick_1">
     <g id="line2d_1">
      <defs>
       <path d="M 0 0 
L 0 3.5 
" id="mc5d302b7e4" style="stroke:#262626;stroke-width:0.8;"/>
      </defs>
      <g>
       <use style="fill:#262626;stroke:#262626;stroke-width:0.8;" x="51.365455" xlink:href="#mc5d302b7e4" y="101.92"/>
      </g>
     </g>
     <g id="text_1">
      <!-- 2 -->
      <defs>
       <path d="M 50.34375 8.453125 
L 50.34375 0 
L 3.03125 0 
Q 2.9375 3.171875 4.046875 6.109375 
Q 5.859375 10.9375 9.828125 15.625 
Q 13.8125 20.3125 21.34375 26.46875 
Q 33.015625 36.03125 37.109375 41.625 
Q 41.21875 47.21875 41.21875 52.203125 
Q 41.21875 57.421875 37.46875 61 
Q 33.734375 64.59375 27.734375 64.59375 
Q 21.390625 64.59375 17.578125 60.78125 
Q 13.765625 56.984375 13.71875 50.25 
L 4.6875 51.171875 
Q 5.609375 61.28125 11.65625 66.578125 
Q 17.71875 71.875 27.9375 71.875 
Q 38.234375 71.875 44.234375 66.15625 
Q 50.25 60.453125 50.25 52 
Q 50.25 47.703125 48.484375 43.546875 
Q 46.734375 39.40625 42.65625 34.8125 
Q 38.578125 30.21875 29.109375 22.21875 
Q 21.1875 15.578125 18.9375 13.203125 
Q 16.703125 10.84375 15.234375 8.453125 
z
" id="ArialMT-32"/>
      </defs>
      <g style="fill:#262626;" transform="translate(48.306939 116.793594)scale(0.11 -0.11)">
       <use xlink:href="#ArialMT-32"/>
      </g>
     </g>
    </g>
    <g id="xtick_2">
     <g id="line2d_2">
      <g>
       <use style="fill:#262626;stroke:#262626;stroke-width:0.8;" x="66.427273" xlink:href="#mc5d302b7e4" y="101.92"/>
      </g>
     </g>
     <g id="text_2">
      <!-- 4 -->
      <defs>
       <path d="M 32.328125 0 
L 32.328125 17.140625 
L 1.265625 17.140625 
L 1.265625 25.203125 
L 33.9375 71.578125 
L 41.109375 71.578125 
L 41.109375 25.203125 
L 50.78125 25.203125 
L 50.78125 17.140625 
L 41.109375 17.140625 
L 41.109375 0 
z
M 32.328125 25.203125 
L 32.328125 57.46875 
L 9.90625 25.203125 
z
" id="ArialMT-34"/>
      </defs>
      <g style="fill:#262626;" transform="translate(63.368757 116.793594)scale(0.11 -0.11)">
       <use xlink:href="#ArialMT-34"/>
      </g>
     </g>
    </g>
    <g id="xtick_3">
     <g id="line2d_3">
      <g>
       <use style="fill:#262626;stroke:#262626;stroke-width:0.8;" x="81.489091" xlink:href="#mc5d302b7e4" y="101.92"/>
      </g>
     </g>
     <g id="text_3">
      <!-- 6 -->
      <defs>
       <path d="M 49.75 54.046875 
L 41.015625 53.375 
Q 39.84375 58.546875 37.703125 60.890625 
Q 34.125 64.65625 28.90625 64.65625 
Q 24.703125 64.65625 21.53125 62.3125 
Q 17.390625 59.28125 14.984375 53.46875 
Q 12.59375 47.65625 12.5 36.921875 
Q 15.671875 41.75 20.265625 44.09375 
Q 24.859375 46.4375 29.890625 46.4375 
Q 38.671875 46.4375 44.84375 39.96875 
Q 51.03125 33.5 51.03125 23.25 
Q 51.03125 16.5 48.125 10.71875 
Q 45.21875 4.9375 40.140625 1.859375 
Q 35.0625 -1.21875 28.609375 -1.21875 
Q 17.625 -1.21875 10.6875 6.859375 
Q 3.765625 14.9375 3.765625 33.5 
Q 3.765625 54.25 11.421875 63.671875 
Q 18.109375 71.875 29.4375 71.875 
Q 37.890625 71.875 43.28125 67.140625 
Q 48.6875 62.40625 49.75 54.046875 
z
M 13.875 23.1875 
Q 13.875 18.65625 15.796875 14.5 
Q 17.71875 10.359375 21.1875 8.171875 
Q 24.65625 6 28.46875 6 
Q 34.03125 6 38.03125 10.484375 
Q 42.046875 14.984375 42.046875 22.703125 
Q 42.046875 30.125 38.078125 34.390625 
Q 34.125 38.671875 28.125 38.671875 
Q 22.171875 38.671875 18.015625 34.390625 
Q 13.875 30.125 13.875 23.1875 
z
" id="ArialMT-36"/>
      </defs>
      <g style="fill:#262626;" transform="translate(78.430575 116.793594)scale(0.11 -0.11)">
       <use xlink:href="#ArialMT-36"/>
      </g>
     </g>
    </g>
    <g id="xtick_4">
     <g id="line2d_4">
      <g>
       <use style="fill:#262626;stroke:#262626;stroke-width:0.8;" x="96.550909" xlink:href="#mc5d302b7e4" y="101.92"/>
      </g>
     </g>
     <g id="text_4">
      <!-- 8 -->
      <defs>
       <path d="M 17.671875 38.8125 
Q 12.203125 40.828125 9.5625 44.53125 
Q 6.9375 48.25 6.9375 53.421875 
Q 6.9375 61.234375 12.546875 66.546875 
Q 18.171875 71.875 27.484375 71.875 
Q 36.859375 71.875 42.578125 66.421875 
Q 48.296875 60.984375 48.296875 53.171875 
Q 48.296875 48.1875 45.671875 44.5 
Q 43.0625 40.828125 37.75 38.8125 
Q 44.34375 36.671875 47.78125 31.875 
Q 51.21875 27.09375 51.21875 20.453125 
Q 51.21875 11.28125 44.71875 5.03125 
Q 38.234375 -1.21875 27.640625 -1.21875 
Q 17.046875 -1.21875 10.546875 5.046875 
Q 4.046875 11.328125 4.046875 20.703125 
Q 4.046875 27.6875 7.59375 32.390625 
Q 11.140625 37.109375 17.671875 38.8125 
z
M 15.921875 53.71875 
Q 15.921875 48.640625 19.1875 45.40625 
Q 22.46875 42.1875 27.6875 42.1875 
Q 32.765625 42.1875 36.015625 45.375 
Q 39.265625 48.578125 39.265625 53.21875 
Q 39.265625 58.0625 35.90625 61.359375 
Q 32.5625 64.65625 27.59375 64.65625 
Q 22.5625 64.65625 19.234375 61.421875 
Q 15.921875 58.203125 15.921875 53.71875 
z
M 13.09375 20.65625 
Q 13.09375 16.890625 14.875 13.375 
Q 16.65625 9.859375 20.171875 7.921875 
Q 23.6875 6 27.734375 6 
Q 34.03125 6 38.125 10.046875 
Q 42.234375 14.109375 42.234375 20.359375 
Q 42.234375 26.703125 38.015625 30.859375 
Q 33.796875 35.015625 27.4375 35.015625 
Q 21.234375 35.015625 17.15625 30.90625 
Q 13.09375 26.8125 13.09375 20.65625 
z
" id="ArialMT-38"/>
      </defs>
      <g style="fill:#262626;" transform="translate(93.492393 116.793594)scale(0.11 -0.11)">
       <use xlink:href="#ArialMT-38"/>
      </g>
     </g>
    </g>
    <g id="xtick_5">
     <g id="line2d_5">
      <g>
       <use style="fill:#262626;stroke:#262626;stroke-width:0.8;" x="111.612727" xlink:href="#mc5d302b7e4" y="101.92"/>
      </g>
     </g>
     <g id="text_5">
      <!-- 10 -->
      <defs>
       <path d="M 37.25 0 
L 28.46875 0 
L 28.46875 56 
Q 25.296875 52.984375 20.140625 49.953125 
Q 14.984375 46.921875 10.890625 45.40625 
L 10.890625 53.90625 
Q 18.265625 57.375 23.78125 62.296875 
Q 29.296875 67.234375 31.59375 71.875 
L 37.25 71.875 
z
" id="ArialMT-31"/>
       <path d="M 4.15625 35.296875 
Q 4.15625 48 6.765625 55.734375 
Q 9.375 63.484375 14.515625 67.671875 
Q 19.671875 71.875 27.484375 71.875 
Q 33.25 71.875 37.59375 69.546875 
Q 41.9375 67.234375 44.765625 62.859375 
Q 47.609375 58.5 49.21875 52.21875 
Q 50.828125 45.953125 50.828125 35.296875 
Q 50.828125 22.703125 48.234375 14.96875 
Q 45.65625 7.234375 40.5 3 
Q 35.359375 -1.21875 27.484375 -1.21875 
Q 17.140625 -1.21875 11.234375 6.203125 
Q 4.15625 15.140625 4.15625 35.296875 
z
M 13.1875 35.296875 
Q 13.1875 17.671875 17.3125 11.828125 
Q 21.4375 6 27.484375 6 
Q 33.546875 6 37.671875 11.859375 
Q 41.796875 17.71875 41.796875 35.296875 
Q 41.796875 52.984375 37.671875 58.78125 
Q 33.546875 64.59375 27.390625 64.59375 
Q 21.34375 64.59375 17.71875 59.46875 
Q 13.1875 52.9375 13.1875 35.296875 
z
" id="ArialMT-30"/>
      </defs>
      <g style="fill:#262626;" transform="translate(105.495696 116.793594)scale(0.11 -0.11)">
       <use xlink:href="#ArialMT-31"/>
       <use x="55.615234" xlink:href="#ArialMT-30"/>
      </g>
     </g>
    </g>
    <g id="xtick_6">
     <g id="line2d_6">
      <g>
       <use style="fill:#262626;stroke:#262626;stroke-width:0.8;" x="126.674545" xlink:href="#mc5d302b7e4" y="101.92"/>
      </g>
     </g>
     <g id="text_6">
      <!-- 12 -->
      <g style="fill:#262626;" transform="translate(120.557514 116.793594)scale(0.11 -0.11)">
       <use xlink:href="#ArialMT-31"/>
       <use x="55.615234" xlink:href="#ArialMT-32"/>
      </g>
     </g>
    </g>
    <g id="text_7">
     <!-- pH -->
     <defs>
      <path d="M 6.59375 -19.875 
L 6.59375 51.859375 
L 14.59375 51.859375 
L 14.59375 45.125 
Q 17.4375 49.078125 21 51.046875 
Q 24.5625 53.03125 29.640625 53.03125 
Q 36.28125 53.03125 41.359375 49.609375 
Q 46.4375 46.1875 49.015625 39.953125 
Q 51.609375 33.734375 51.609375 26.3125 
Q 51.609375 18.359375 48.75 11.984375 
Q 45.90625 5.609375 40.453125 2.21875 
Q 35.015625 -1.171875 29 -1.171875 
Q 24.609375 -1.171875 21.109375 0.6875 
Q 17.625 2.546875 15.375 5.375 
L 15.375 -19.875 
z
M 14.546875 25.640625 
Q 14.546875 15.625 18.59375 10.84375 
Q 22.65625 6.0625 28.421875 6.0625 
Q 34.28125 6.0625 38.453125 11.015625 
Q 42.625 15.96875 42.625 26.375 
Q 42.625 36.28125 38.546875 41.203125 
Q 34.46875 46.140625 28.8125 46.140625 
Q 23.1875 46.140625 18.859375 40.890625 
Q 14.546875 35.640625 14.546875 25.640625 
z
" id="ArialMT-70"/>
      <path d="M 8.015625 0 
L 8.015625 71.578125 
L 17.484375 71.578125 
L 17.484375 42.1875 
L 54.6875 42.1875 
L 54.6875 71.578125 
L 64.15625 71.578125 
L 64.15625 0 
L 54.6875 0 
L 54.6875 33.734375 
L 17.484375 33.734375 
L 17.484375 0 
z
" id="ArialMT-48"/>
     </defs>
     <g style="fill:#262626;" transform="translate(81.989453 130.853437)scale(0.11 -0.11)">
      <use xlink:href="#ArialMT-70"/>
      <use x="55.615234" xlink:href="#ArialMT-48"/>
     </g>
    </g>
   </g>
   <g id="matplotlib.axis_2">
    <g id="ytick_1">
     <g id="line2d_7">
      <defs>
       <path d="M 0 0 
L -3.5 0 
" id="m1c187c0314" style="stroke:#262626;stroke-width:0.8;"/>
      </defs>
      <g>
       <use style="fill:#262626;stroke:#262626;stroke-width:0.8;" x="47.6" xlink:href="#m1c187c0314" y="83.982505"/>
      </g>
     </g>
     <g id="text_8">
      <!-- 0 -->
      <g style="fill:#262626;" transform="translate(34.482969 87.919302)scale(0.11 -0.11)">
       <use xlink:href="#ArialMT-30"/>
      </g>
     </g>
    </g>
    <g id="ytick_2">
     <g id="line2d_8">
      <g>
       <use style="fill:#262626;stroke:#262626;stroke-width:0.8;" x="47.6" xlink:href="#m1c187c0314" y="49.815871"/>
      </g>
     </g>
     <g id="text_9">
      <!-- 20 -->
      <g style="fill:#262626;" transform="translate(28.365938 53.752668)scale(0.11 -0.11)">
       <use xlink:href="#ArialMT-32"/>
       <use x="55.615234" xlink:href="#ArialMT-30"/>
      </g>
     </g>
    </g>
    <g id="ytick_3">
     <g id="line2d_9">
      <g>
       <use style="fill:#262626;stroke:#262626;stroke-width:0.8;" x="47.6" xlink:href="#m1c187c0314" y="15.649236"/>
      </g>
     </g>
     <g id="text_10">
      <!-- 40 -->
      <g style="fill:#262626;" transform="translate(28.365938 19.586033)scale(0.11 -0.11)">
       <use xlink:href="#ArialMT-34"/>
       <use x="55.615234" xlink:href="#ArialMT-30"/>
      </g>
     </g>
    </g>
    <g id="text_11">
     <!-- Free energy ($k_B T$) -->
     <defs>
      <path d="M 8.203125 0 
L 8.203125 71.578125 
L 56.5 71.578125 
L 56.5 63.140625 
L 17.671875 63.140625 
L 17.671875 40.96875 
L 51.265625 40.96875 
L 51.265625 32.515625 
L 17.671875 32.515625 
L 17.671875 0 
z
" id="ArialMT-46"/>
      <path d="M 6.5 0 
L 6.5 51.859375 
L 14.40625 51.859375 
L 14.40625 44 
Q 17.4375 49.515625 20 51.265625 
Q 22.5625 53.03125 25.640625 53.03125 
Q 30.078125 53.03125 34.671875 50.203125 
L 31.640625 42.046875 
Q 28.421875 43.953125 25.203125 43.953125 
Q 22.3125 43.953125 20.015625 42.21875 
Q 17.71875 40.484375 16.75 37.40625 
Q 15.28125 32.71875 15.28125 27.15625 
L 15.28125 0 
z
" id="ArialMT-72"/>
      <path d="M 42.09375 16.703125 
L 51.171875 15.578125 
Q 49.03125 7.625 43.21875 3.21875 
Q 37.40625 -1.171875 28.375 -1.171875 
Q 17 -1.171875 10.328125 5.828125 
Q 3.65625 12.84375 3.65625 25.484375 
Q 3.65625 38.578125 10.390625 45.796875 
Q 17.140625 53.03125 27.875 53.03125 
Q 38.28125 53.03125 44.875 45.953125 
Q 51.46875 38.875 51.46875 26.03125 
Q 51.46875 25.25 51.421875 23.6875 
L 12.75 23.6875 
Q 13.234375 15.140625 17.578125 10.59375 
Q 21.921875 6.0625 28.421875 6.0625 
Q 33.25 6.0625 36.671875 8.59375 
Q 40.09375 11.140625 42.09375 16.703125 
z
M 13.234375 30.90625 
L 42.1875 30.90625 
Q 41.609375 37.453125 38.875 40.71875 
Q 34.671875 45.796875 27.984375 45.796875 
Q 21.921875 45.796875 17.796875 41.75 
Q 13.671875 37.703125 13.234375 30.90625 
z
" id="ArialMT-65"/>
      <path id="ArialMT-20"/>
      <path d="M 6.59375 0 
L 6.59375 51.859375 
L 14.5 51.859375 
L 14.5 44.484375 
Q 20.21875 53.03125 31 53.03125 
Q 35.6875 53.03125 39.625 51.34375 
Q 43.5625 49.65625 45.515625 46.921875 
Q 47.46875 44.1875 48.25 40.4375 
Q 48.734375 37.984375 48.734375 31.890625 
L 48.734375 0 
L 39.9375 0 
L 39.9375 31.546875 
Q 39.9375 36.921875 38.90625 39.578125 
Q 37.890625 42.234375 35.28125 43.8125 
Q 32.671875 45.40625 29.15625 45.40625 
Q 23.53125 45.40625 19.453125 41.84375 
Q 15.375 38.28125 15.375 28.328125 
L 15.375 0 
z
" id="ArialMT-6e"/>
      <path d="M 4.984375 -4.296875 
L 13.53125 -5.5625 
Q 14.0625 -9.515625 16.5 -11.328125 
Q 19.78125 -13.765625 25.4375 -13.765625 
Q 31.546875 -13.765625 34.859375 -11.328125 
Q 38.1875 -8.890625 39.359375 -4.5 
Q 40.046875 -1.8125 39.984375 6.78125 
Q 34.234375 0 25.640625 0 
Q 14.9375 0 9.078125 7.71875 
Q 3.21875 15.4375 3.21875 26.21875 
Q 3.21875 33.640625 5.90625 39.90625 
Q 8.59375 46.1875 13.6875 49.609375 
Q 18.796875 53.03125 25.6875 53.03125 
Q 34.859375 53.03125 40.828125 45.609375 
L 40.828125 51.859375 
L 48.921875 51.859375 
L 48.921875 7.03125 
Q 48.921875 -5.078125 46.453125 -10.125 
Q 44 -15.1875 38.640625 -18.109375 
Q 33.296875 -21.046875 25.484375 -21.046875 
Q 16.21875 -21.046875 10.5 -16.875 
Q 4.78125 -12.703125 4.984375 -4.296875 
z
M 12.25 26.859375 
Q 12.25 16.65625 16.296875 11.96875 
Q 20.359375 7.28125 26.46875 7.28125 
Q 32.515625 7.28125 36.609375 11.9375 
Q 40.71875 16.609375 40.71875 26.5625 
Q 40.71875 36.078125 36.5 40.90625 
Q 32.28125 45.75 26.3125 45.75 
Q 20.453125 45.75 16.34375 40.984375 
Q 12.25 36.234375 12.25 26.859375 
z
" id="ArialMT-67"/>
      <path d="M 6.203125 -19.96875 
L 5.21875 -11.71875 
Q 8.109375 -12.5 10.25 -12.5 
Q 13.1875 -12.5 14.9375 -11.515625 
Q 16.703125 -10.546875 17.828125 -8.796875 
Q 18.65625 -7.46875 20.515625 -2.25 
Q 20.75 -1.515625 21.296875 -0.09375 
L 1.609375 51.859375 
L 11.078125 51.859375 
L 21.875 21.828125 
Q 23.96875 16.109375 25.640625 9.8125 
Q 27.15625 15.875 29.25 21.625 
L 40.328125 51.859375 
L 49.125 51.859375 
L 29.390625 -0.875 
Q 26.21875 -9.421875 24.46875 -12.640625 
Q 22.125 -17 19.09375 -19.015625 
Q 16.0625 -21.046875 11.859375 -21.046875 
Q 9.328125 -21.046875 6.203125 -19.96875 
z
" id="ArialMT-79"/>
      <path d="M 23.390625 -21.046875 
Q 16.109375 -11.859375 11.078125 0.4375 
Q 6.0625 12.75 6.0625 25.921875 
Q 6.0625 37.546875 9.8125 48.1875 
Q 14.203125 60.546875 23.390625 72.796875 
L 29.6875 72.796875 
Q 23.78125 62.640625 21.875 58.296875 
Q 18.890625 51.5625 17.1875 44.234375 
Q 15.09375 35.109375 15.09375 25.875 
Q 15.09375 2.390625 29.6875 -21.046875 
z
" id="ArialMT-28"/>
      <path d="M 18.3125 75.984375 
L 27.296875 75.984375 
L 18.703125 31.6875 
L 49.515625 54.6875 
L 61.1875 54.6875 
L 26.8125 28.515625 
L 51.90625 0 
L 41.015625 0 
L 17.671875 26.703125 
L 12.5 0 
L 3.515625 0 
z
" id="DejaVuSans-Oblique-6b"/>
      <path d="M 16.890625 72.90625 
L 42.09375 72.90625 
Q 52.34375 72.90625 57.421875 69.09375 
Q 62.5 65.28125 62.5 57.625 
Q 62.5 50.59375 58.125 45.484375 
Q 53.765625 40.375 46.6875 39.3125 
Q 52.734375 37.9375 55.765625 34.078125 
Q 58.796875 30.21875 58.796875 23.78125 
Q 58.796875 12.796875 50.65625 6.390625 
Q 42.53125 0 28.421875 0 
L 2.6875 0 
z
M 19.28125 34.8125 
L 14.109375 8.109375 
L 29.984375 8.109375 
Q 38.921875 8.109375 43.75 12.203125 
Q 48.578125 16.3125 48.578125 23.78125 
Q 48.578125 29.546875 45.375 32.171875 
Q 42.1875 34.8125 35.109375 34.8125 
z
M 25.09375 64.796875 
L 20.796875 42.828125 
L 35.5 42.828125 
Q 43.359375 42.828125 47.78125 46.234375 
Q 52.203125 49.65625 52.203125 55.71875 
Q 52.203125 60.453125 49.21875 62.625 
Q 46.234375 64.796875 39.703125 64.796875 
z
" id="DejaVuSans-Oblique-42"/>
      <path d="M 5.90625 72.90625 
L 67.578125 72.90625 
L 66.015625 64.59375 
L 39.984375 64.59375 
L 27.484375 0 
L 17.578125 0 
L 30.078125 64.59375 
L 4.296875 64.59375 
z
" id="DejaVuSans-Oblique-54"/>
      <path d="M 12.359375 -21.046875 
L 6.0625 -21.046875 
Q 20.65625 2.390625 20.65625 25.875 
Q 20.65625 35.0625 18.5625 44.09375 
Q 16.890625 51.421875 13.921875 58.15625 
Q 12.015625 62.546875 6.0625 72.796875 
L 12.359375 72.796875 
Q 21.53125 60.546875 25.921875 48.1875 
Q 29.6875 37.546875 29.6875 25.921875 
Q 29.6875 12.75 24.625 0.4375 
Q 19.578125 -11.859375 12.359375 -21.046875 
z
" id="ArialMT-29"/>
     </defs>
     <g style="fill:#262626;" transform="translate(21.945938 102.866514)rotate(-90)scale(0.11 -0.11)">
      <use transform="translate(0 0.015625)" xlink:href="#ArialMT-46"/>
      <use transform="translate(61.083984 0.015625)" xlink:href="#ArialMT-72"/>
      <use transform="translate(94.384766 0.015625)" xlink:href="#ArialMT-65"/>
      <use transform="translate(150 0.015625)" xlink:href="#ArialMT-65"/>
      <use transform="translate(205.615234 0.015625)" xlink:href="#ArialMT-20"/>
      <use transform="translate(233.398438 0.015625)" xlink:href="#ArialMT-65"/>
      <use transform="translate(289.013672 0.015625)" xlink:href="#ArialMT-6e"/>
      <use transform="translate(344.628906 0.015625)" xlink:href="#ArialMT-65"/>
      <use transform="translate(400.244141 0.015625)" xlink:href="#ArialMT-72"/>
      <use transform="translate(433.544922 0.015625)" xlink:href="#ArialMT-67"/>
      <use transform="translate(489.160156 0.015625)" xlink:href="#ArialMT-79"/>
      <use transform="translate(539.160156 0.015625)" xlink:href="#ArialMT-20"/>
      <use transform="translate(566.943359 0.015625)" xlink:href="#ArialMT-28"/>
      <use transform="translate(600.244141 0.015625)" xlink:href="#DejaVuSans-Oblique-6b"/>
      <use transform="translate(658.154297 -16.390625)scale(0.7)" xlink:href="#DejaVuSans-Oblique-42"/>
      <use transform="translate(708.911133 0.015625)" xlink:href="#DejaVuSans-Oblique-54"/>
      <use transform="translate(769.995117 0.015625)" xlink:href="#ArialMT-29"/>
     </g>
    </g>
   </g>
   <g id="patch_3">
    <path d="M 47.6 101.92 
L 47.6 15.373028 
" style="fill:none;stroke:#262626;stroke-linecap:square;stroke-linejoin:miter;stroke-width:0.8;"/>
   </g>
   <g id="patch_4">
    <path d="M 47.6 101.92 
L 130.44 101.92 
" style="fill:none;stroke:#262626;stroke-linecap:square;stroke-linejoin:miter;stroke-width:0.8;"/>
   </g>
   <g id="line2d_10">
    <path clip-path="url(#p6f6ccd8f89)" d="M 51.365455 97.986047 
L 52.118545 97.199331 
L 52.871636 96.412615 
L 53.624727 95.625899 
L 54.377818 94.839183 
L 55.130909 94.052468 
L 55.884 93.265752 
L 56.637091 92.479036 
L 57.390182 91.69232 
L 58.143273 90.905604 
L 58.896364 90.118888 
L 59.649455 89.332173 
L 60.402545 88.545457 
L 61.155636 87.758741 
L 61.908727 86.972025 
L 62.661818 86.185309 
L 63.414909 85.398593 
L 64.168 84.611878 
L 64.921091 83.825162 
L 65.674182 83.038446 
L 66.427273 82.25173 
L 67.180364 81.465014 
L 67.933455 80.678299 
L 68.686545 79.891583 
L 69.439636 79.104867 
L 70.192727 78.318151 
L 70.945818 77.531435 
L 71.698909 76.744719 
L 72.452 75.958004 
L 73.205091 75.171288 
L 73.958182 74.384572 
L 74.711273 73.597856 
L 75.464364 72.81114 
L 76.217455 72.024424 
L 76.970545 71.237709 
L 77.723636 70.450993 
L 78.476727 69.664277 
L 79.229818 68.877561 
L 79.982909 68.090845 
L 80.736 67.304129 
L 81.489091 66.517414 
L 82.242182 65.730698 
L 82.995273 64.943982 
L 83.748364 64.157266 
L 84.501455 63.37055 
L 85.254545 62.583834 
L 86.007636 61.797119 
L 86.760727 61.010403 
L 87.513818 60.223687 
L 88.266909 59.436971 
L 89.02 58.650255 
L 89.773091 57.863539 
L 90.526182 57.076824 
L 91.279273 56.290108 
L 92.032364 55.503392 
L 92.785455 54.716676 
L 93.538545 53.92996 
L 94.291636 53.143245 
L 95.044727 52.356529 
L 95.797818 51.569813 
L 96.550909 50.783097 
L 97.304 49.996381 
L 98.057091 49.209665 
L 98.810182 48.42295 
L 99.563273 47.636234 
L 100.316364 46.849518 
L 101.069455 46.062802 
L 101.822545 45.276086 
L 102.575636 44.48937 
L 103.328727 43.702651 
L 104.081818 42.915938 
L 104.834909 42.129223 
L 105.588 41.342498 
L 106.341091 40.555783 
L 107.094182 39.769036 
L 107.847273 38.98235 
L 108.600364 38.195595 
L 109.353455 37.408874 
L 110.106545 36.622277 
L 110.859636 35.835513 
L 111.612727 35.048618 
L 112.365818 34.261848 
L 113.118909 33.475188 
L 113.872 32.688487 
L 114.625091 31.899383 
L 115.378182 31.110915 
L 116.131273 30.333364 
L 116.884364 29.533793 
L 117.637455 28.750441 
L 118.390545 27.985438 
L 119.143636 27.211526 
L 119.896727 26.411117 
L 120.649818 25.70279 
L 121.402909 24.742638 
L 122.156 23.713256 
L 122.909091 23.33567 
L 123.662182 22.45515 
L 124.415273 21.667456 
L 125.168364 20.880631 
L 125.921455 20.093806 
L 126.674545 19.306981 
" style="fill:none;stroke:#4393c3;stroke-linecap:round;stroke-width:1.5;"/>
   </g>
   <g id="line2d_11">
    <path clip-path="url(#p6f6ccd8f89)" d="M 51.365455 39.89495 
L 52.118545 40.288308 
L 52.871636 40.681666 
L 53.624727 41.075024 
L 54.377818 41.468382 
L 55.130909 41.86174 
L 55.884 42.255097 
L 56.637091 42.648455 
L 57.390182 43.041813 
L 58.143273 43.435171 
L 58.896364 43.828529 
L 59.649455 44.221887 
L 60.402545 44.615245 
L 61.155636 45.008603 
L 61.908727 45.401961 
L 62.661818 45.795319 
L 63.414909 46.188677 
L 64.168 46.582035 
L 64.921091 46.975392 
L 65.674182 47.36875 
L 66.427273 47.762108 
L 67.180364 48.155466 
L 67.933455 48.548824 
L 68.686545 48.942182 
L 69.439636 49.33554 
L 70.192727 49.728898 
L 70.945818 50.122256 
L 71.698909 50.515614 
L 72.452 50.908972 
L 73.205091 51.302329 
L 73.958182 51.695687 
L 74.711273 52.089045 
L 75.464364 52.482403 
L 76.217455 52.875761 
L 76.970545 53.269119 
L 77.723636 53.662477 
L 78.476727 54.055835 
L 79.229818 54.449193 
L 79.982909 54.842551 
L 80.736 55.235909 
L 81.489091 55.629267 
L 82.242182 56.022624 
L 82.995273 56.415982 
L 83.748364 56.80934 
L 84.501455 57.202698 
L 85.254545 57.596056 
L 86.007636 57.989414 
L 86.760727 58.382772 
L 87.513818 58.77613 
L 88.266909 59.169488 
L 89.02 59.562846 
L 89.773091 59.956204 
L 90.526182 60.349562 
L 91.279273 60.742919 
L 92.032364 61.136277 
L 92.785455 61.529635 
L 93.538545 61.922993 
L 94.291636 62.316351 
L 95.044727 62.709709 
L 95.797818 63.103067 
L 96.550909 63.496425 
L 97.304 63.889783 
L 98.057091 64.283141 
L 98.810182 64.676499 
L 99.563273 65.069856 
L 100.316364 65.463214 
L 101.069455 65.856572 
L 101.822545 66.24993 
L 102.575636 66.643288 
L 103.328727 67.036646 
L 104.081818 67.430004 
L 104.834909 67.823362 
L 105.588 68.21672 
L 106.341091 68.610078 
L 107.094182 69.003436 
L 107.847273 69.396794 
L 108.600364 69.790151 
L 109.353455 70.183509 
L 110.106545 70.576867 
L 110.859636 70.970225 
L 111.612727 71.363583 
L 112.365818 71.756941 
L 113.118909 72.150299 
L 113.872 72.543657 
L 114.625091 72.937015 
L 115.378182 73.330373 
L 116.131273 73.723731 
L 116.884364 74.117089 
L 117.637455 74.510446 
L 118.390545 74.903804 
L 119.143636 75.297162 
L 119.896727 75.69052 
L 120.649818 76.083878 
L 121.402909 76.477236 
L 122.156 76.870594 
L 122.909091 77.263952 
L 123.662182 77.65731 
L 124.415273 78.050668 
L 125.168364 78.444026 
L 125.921455 78.837383 
L 126.674545 79.230741 
" style="fill:none;stroke:#f4a582;stroke-linecap:round;stroke-width:1.5;"/>
   </g>
   <g id="line2d_12">
    <path clip-path="url(#p6f6ccd8f89)" d="M 51.365455 92.046342 
L 52.118545 91.652984 
L 52.871636 91.259626 
L 53.624727 90.866268 
L 54.377818 90.472911 
L 55.130909 90.079553 
L 55.884 89.686195 
L 56.637091 89.292837 
L 57.390182 88.899479 
L 58.143273 88.506121 
L 58.896364 88.112763 
L 59.649455 87.719405 
L 60.402545 87.326047 
L 61.155636 86.932689 
L 61.908727 86.539331 
L 62.661818 86.145974 
L 63.414909 85.752616 
L 64.168 85.359258 
L 64.921091 84.9659 
L 65.674182 84.572542 
L 66.427273 84.179184 
L 67.180364 83.785826 
L 67.933455 83.392468 
L 68.686545 82.99911 
L 69.439636 82.605752 
L 70.192727 82.212394 
L 70.945818 81.819036 
L 71.698909 81.425679 
L 72.452 81.032321 
L 73.205091 80.638963 
L 73.958182 80.245605 
L 74.711273 79.852247 
L 75.464364 79.458889 
L 76.217455 79.065531 
L 76.970545 78.672173 
L 77.723636 78.278815 
L 78.476727 77.885457 
L 79.229818 77.492099 
L 79.982909 77.098741 
L 80.736 76.705384 
L 81.489091 76.312026 
L 82.242182 75.918668 
L 82.995273 75.52531 
L 83.748364 75.131952 
L 84.501455 74.738594 
L 85.254545 74.345236 
L 86.007636 73.951878 
L 86.760727 73.55852 
L 87.513818 73.165162 
L 88.266909 72.771804 
L 89.02 72.378447 
L 89.773091 71.985089 
L 90.526182 71.591731 
L 91.279273 71.198373 
L 92.032364 70.805015 
L 92.785455 70.411657 
L 93.538545 70.018299 
L 94.291636 69.624941 
L 95.044727 69.231583 
L 95.797818 68.838225 
L 96.550909 68.444867 
L 97.304 68.051509 
L 98.057091 67.658152 
L 98.810182 67.264794 
L 99.563273 66.871436 
L 100.316364 66.478078 
L 101.069455 66.08472 
L 101.822545 65.691362 
L 102.575636 65.298004 
L 103.328727 64.904646 
L 104.081818 64.511288 
L 104.834909 64.11793 
L 105.588 63.724572 
L 106.341091 63.331215 
L 107.094182 62.937857 
L 107.847273 62.544499 
L 108.600364 62.151141 
L 109.353455 61.757783 
L 110.106545 61.364425 
L 110.859636 60.971067 
L 111.612727 60.577709 
L 112.365818 60.184351 
L 113.118909 59.790993 
L 113.872 59.397635 
L 114.625091 59.004277 
L 115.378182 58.61092 
L 116.131273 58.217562 
L 116.884364 57.824204 
L 117.637455 57.430846 
L 118.390545 57.037488 
L 119.143636 56.64413 
L 119.896727 56.250772 
L 120.649818 55.857414 
L 121.402909 55.464056 
L 122.156 55.070698 
L 122.909091 54.67734 
L 123.662182 54.283982 
L 124.415273 53.890625 
L 125.168364 53.497267 
L 125.921455 53.103909 
L 126.674545 52.710551 
" style="fill:none;stroke:#92c5de;stroke-linecap:round;stroke-width:1.5;"/>
   </g>
   <g id="line2d_13">
    <path clip-path="url(#p6f6ccd8f89)" d="M 51.365455 83.982505 
L 52.118545 83.982505 
L 52.871636 83.982505 
L 53.624727 83.982505 
L 54.377818 83.982505 
L 55.130909 83.982505 
L 55.884 83.982505 
L 56.637091 83.982505 
L 57.390182 83.982505 
L 58.143273 83.982505 
L 58.896364 83.982505 
L 59.649455 83.982505 
L 60.402545 83.982505 
L 61.155636 83.982505 
L 61.908727 83.982505 
L 62.661818 83.982505 
L 63.414909 83.982505 
L 64.168 83.982505 
L 64.921091 83.982505 
L 65.674182 83.982505 
L 66.427273 83.982505 
L 67.180364 83.982505 
L 67.933455 83.982505 
L 68.686545 83.982505 
L 69.439636 83.982505 
L 70.192727 83.982505 
L 70.945818 83.982505 
L 71.698909 83.982505 
L 72.452 83.982505 
L 73.205091 83.982505 
L 73.958182 83.982505 
L 74.711273 83.982505 
L 75.464364 83.982505 
L 76.217455 83.982505 
L 76.970545 83.982505 
L 77.723636 83.982505 
L 78.476727 83.982505 
L 79.229818 83.982505 
L 79.982909 83.982505 
L 80.736 83.982505 
L 81.489091 83.982505 
L 82.242182 83.982505 
L 82.995273 83.982505 
L 83.748364 83.982505 
L 84.501455 83.982505 
L 85.254545 83.982505 
L 86.007636 83.982505 
L 86.760727 83.982505 
L 87.513818 83.982505 
L 88.266909 83.982505 
L 89.02 83.982505 
L 89.773091 83.982505 
L 90.526182 83.982505 
L 91.279273 83.982505 
L 92.032364 83.982505 
L 92.785455 83.982505 
L 93.538545 83.982505 
L 94.291636 83.982505 
L 95.044727 83.982505 
L 95.797818 83.982505 
L 96.550909 83.982505 
L 97.304 83.982505 
L 98.057091 83.982505 
L 98.810182 83.982505 
L 99.563273 83.982505 
L 100.316364 83.982505 
L 101.069455 83.982505 
L 101.822545 83.982505 
L 102.575636 83.982505 
L 103.328727 83.982505 
L 104.081818 83.982505 
L 104.834909 83.982505 
L 105.588 83.982505 
L 106.341091 83.982505 
L 107.094182 83.982505 
L 107.847273 83.982505 
L 108.600364 83.982505 
L 109.353455 83.982505 
L 110.106545 83.982505 
L 110.859636 83.982505 
L 111.612727 83.982505 
L 112.365818 83.982505 
L 113.118909 83.982505 
L 113.872 83.982505 
L 114.625091 83.982505 
L 115.378182 83.982505 
L 116.131273 83.982505 
L 116.884364 83.982505 
L 117.637455 83.982505 
L 118.390545 83.982505 
L 119.143636 83.982505 
L 119.896727 83.982505 
L 120.649818 83.982505 
L 121.402909 83.982505 
L 122.156 83.982505 
L 122.909091 83.982505 
L 123.662182 83.982505 
L 124.415273 83.982505 
L 125.168364 83.982505 
L 125.921455 83.982505 
L 126.674545 83.982505 
" style="fill:none;stroke:#333333;stroke-linecap:round;stroke-width:1.5;"/>
   </g>
  </g>
 </g>
 <defs>
  <clipPath id="p6f6ccd8f89">
   <rect height="86.546972" width="82.84" x="47.6" y="15.373028"/>
  </clipPath>
 </defs>
</svg>
