<?xml version="1.0" encoding="utf-8" standalone="no"?>
<!DOCTYPE svg PUBLIC "-//W3C//DTD SVG 1.1//EN"
  "http://www.w3.org/Graphics/SVG/1.1/DTD/svg11.dtd">
<!-- Created with matplotlib (http://matplotlib.org/) -->
<svg height="216pt" version="1.1" viewBox="0 0 216 216" width="216pt" xmlns="http://www.w3.org/2000/svg" xmlns:xlink="http://www.w3.org/1999/xlink">
 <defs>
  <style type="text/css">
*{stroke-linecap:butt;stroke-linejoin:round;}
  </style>
 </defs>
 <g id="figure_1">
  <g id="patch_1">
   <path d="M 0 216 
L 216 216 
L 216 0 
L 0 0 
z
" style="fill:#ffffff;"/>
  </g>
  <g id="axes_1">
   <g id="patch_2">
    <path d="M 44.78 175.96 
L 203.52 175.96 
L 203.52 25.44 
L 44.78 25.44 
z
" style="fill:#ffffff;"/>
   </g>
   <g id="matplotlib.axis_1">
    <g id="xtick_1">
     <g id="line2d_1">
      <defs>
       <path d="M 0 0 
L 0 3.5 
" id="md006d2128e" style="stroke:#262626;stroke-width:0.8;"/>
      </defs>
      <g>
       <use style="fill:#262626;stroke:#262626;stroke-width:0.8;" x="51.995455" xlink:href="#md006d2128e" y="175.96"/>
      </g>
     </g>
     <g id="text_1">
      <!-- 2 -->
      <defs>
       <path d="M 50.34375 8.453125 
L 50.34375 0 
L 3.03125 0 
Q 2.9375 3.171875 4.046875 6.109375 
Q 5.859375 10.9375 9.828125 15.625 
Q 13.8125 20.3125 21.34375 26.46875 
Q 33.015625 36.03125 37.109375 41.625 
Q 41.21875 47.21875 41.21875 52.203125 
Q 41.21875 57.421875 37.46875 61 
Q 33.734375 64.59375 27.734375 64.59375 
Q 21.390625 64.59375 17.578125 60.78125 
Q 13.765625 56.984375 13.71875 50.25 
L 4.6875 51.171875 
Q 5.609375 61.28125 11.65625 66.578125 
Q 17.71875 71.875 27.9375 71.875 
Q 38.234375 71.875 44.234375 66.15625 
Q 50.25 60.453125 50.25 52 
Q 50.25 47.703125 48.484375 43.546875 
Q 46.734375 39.40625 42.65625 34.8125 
Q 38.578125 30.21875 29.109375 22.21875 
Q 21.1875 15.578125 18.9375 13.203125 
Q 16.703125 10.84375 15.234375 8.453125 
z
" id="ArialMT-32"/>
      </defs>
      <g style="fill:#262626;" transform="translate(49.214986 190.117812)scale(0.1 -0.1)">
       <use xlink:href="#ArialMT-32"/>
      </g>
     </g>
    </g>
    <g id="xtick_2">
     <g id="line2d_2">
      <g>
       <use style="fill:#262626;stroke:#262626;stroke-width:0.8;" x="80.857273" xlink:href="#md006d2128e" y="175.96"/>
      </g>
     </g>
     <g id="text_2">
      <!-- 4 -->
      <defs>
       <path d="M 32.328125 0 
L 32.328125 17.140625 
L 1.265625 17.140625 
L 1.265625 25.203125 
L 33.9375 71.578125 
L 41.109375 71.578125 
L 41.109375 25.203125 
L 50.78125 25.203125 
L 50.78125 17.140625 
L 41.109375 17.140625 
L 41.109375 0 
z
M 32.328125 25.203125 
L 32.328125 57.46875 
L 9.90625 25.203125 
z
" id="ArialMT-34"/>
      </defs>
      <g style="fill:#262626;" transform="translate(78.076804 190.117812)scale(0.1 -0.1)">
       <use xlink:href="#ArialMT-34"/>
      </g>
     </g>
    </g>
    <g id="xtick_3">
     <g id="line2d_3">
      <g>
       <use style="fill:#262626;stroke:#262626;stroke-width:0.8;" x="109.719091" xlink:href="#md006d2128e" y="175.96"/>
      </g>
     </g>
     <g id="text_3">
      <!-- 6 -->
      <defs>
       <path d="M 49.75 54.046875 
L 41.015625 53.375 
Q 39.84375 58.546875 37.703125 60.890625 
Q 34.125 64.65625 28.90625 64.65625 
Q 24.703125 64.65625 21.53125 62.3125 
Q 17.390625 59.28125 14.984375 53.46875 
Q 12.59375 47.65625 12.5 36.921875 
Q 15.671875 41.75 20.265625 44.09375 
Q 24.859375 46.4375 29.890625 46.4375 
Q 38.671875 46.4375 44.84375 39.96875 
Q 51.03125 33.5 51.03125 23.25 
Q 51.03125 16.5 48.125 10.71875 
Q 45.21875 4.9375 40.140625 1.859375 
Q 35.0625 -1.21875 28.609375 -1.21875 
Q 17.625 -1.21875 10.6875 6.859375 
Q 3.765625 14.9375 3.765625 33.5 
Q 3.765625 54.25 11.421875 63.671875 
Q 18.109375 71.875 29.4375 71.875 
Q 37.890625 71.875 43.28125 67.140625 
Q 48.6875 62.40625 49.75 54.046875 
z
M 13.875 23.1875 
Q 13.875 18.65625 15.796875 14.5 
Q 17.71875 10.359375 21.1875 8.171875 
Q 24.65625 6 28.46875 6 
Q 34.03125 6 38.03125 10.484375 
Q 42.046875 14.984375 42.046875 22.703125 
Q 42.046875 30.125 38.078125 34.390625 
Q 34.125 38.671875 28.125 38.671875 
Q 22.171875 38.671875 18.015625 34.390625 
Q 13.875 30.125 13.875 23.1875 
z
" id="ArialMT-36"/>
      </defs>
      <g style="fill:#262626;" transform="translate(106.938622 190.117812)scale(0.1 -0.1)">
       <use xlink:href="#ArialMT-36"/>
      </g>
     </g>
    </g>
    <g id="xtick_4">
     <g id="line2d_4">
      <g>
       <use style="fill:#262626;stroke:#262626;stroke-width:0.8;" x="138.580909" xlink:href="#md006d2128e" y="175.96"/>
      </g>
     </g>
     <g id="text_4">
      <!-- 8 -->
      <defs>
       <path d="M 17.671875 38.8125 
Q 12.203125 40.828125 9.5625 44.53125 
Q 6.9375 48.25 6.9375 53.421875 
Q 6.9375 61.234375 12.546875 66.546875 
Q 18.171875 71.875 27.484375 71.875 
Q 36.859375 71.875 42.578125 66.421875 
Q 48.296875 60.984375 48.296875 53.171875 
Q 48.296875 48.1875 45.671875 44.5 
Q 43.0625 40.828125 37.75 38.8125 
Q 44.34375 36.671875 47.78125 31.875 
Q 51.21875 27.09375 51.21875 20.453125 
Q 51.21875 11.28125 44.71875 5.03125 
Q 38.234375 -1.21875 27.640625 -1.21875 
Q 17.046875 -1.21875 10.546875 5.046875 
Q 4.046875 11.328125 4.046875 20.703125 
Q 4.046875 27.6875 7.59375 32.390625 
Q 11.140625 37.109375 17.671875 38.8125 
z
M 15.921875 53.71875 
Q 15.921875 48.640625 19.1875 45.40625 
Q 22.46875 42.1875 27.6875 42.1875 
Q 32.765625 42.1875 36.015625 45.375 
Q 39.265625 48.578125 39.265625 53.21875 
Q 39.265625 58.0625 35.90625 61.359375 
Q 32.5625 64.65625 27.59375 64.65625 
Q 22.5625 64.65625 19.234375 61.421875 
Q 15.921875 58.203125 15.921875 53.71875 
z
M 13.09375 20.65625 
Q 13.09375 16.890625 14.875 13.375 
Q 16.65625 9.859375 20.171875 7.921875 
Q 23.6875 6 27.734375 6 
Q 34.03125 6 38.125 10.046875 
Q 42.234375 14.109375 42.234375 20.359375 
Q 42.234375 26.703125 38.015625 30.859375 
Q 33.796875 35.015625 27.4375 35.015625 
Q 21.234375 35.015625 17.15625 30.90625 
Q 13.09375 26.8125 13.09375 20.65625 
z
" id="ArialMT-38"/>
      </defs>
      <g style="fill:#262626;" transform="translate(135.80044 190.117812)scale(0.1 -0.1)">
       <use xlink:href="#ArialMT-38"/>
      </g>
     </g>
    </g>
    <g id="xtick_5">
     <g id="line2d_5">
      <g>
       <use style="fill:#262626;stroke:#262626;stroke-width:0.8;" x="167.442727" xlink:href="#md006d2128e" y="175.96"/>
      </g>
     </g>
     <g id="text_5">
      <!-- 10 -->
      <defs>
       <path d="M 37.25 0 
L 28.46875 0 
L 28.46875 56 
Q 25.296875 52.984375 20.140625 49.953125 
Q 14.984375 46.921875 10.890625 45.40625 
L 10.890625 53.90625 
Q 18.265625 57.375 23.78125 62.296875 
Q 29.296875 67.234375 31.59375 71.875 
L 37.25 71.875 
z
" id="ArialMT-31"/>
       <path d="M 4.15625 35.296875 
Q 4.15625 48 6.765625 55.734375 
Q 9.375 63.484375 14.515625 67.671875 
Q 19.671875 71.875 27.484375 71.875 
Q 33.25 71.875 37.59375 69.546875 
Q 41.9375 67.234375 44.765625 62.859375 
Q 47.609375 58.5 49.21875 52.21875 
Q 50.828125 45.953125 50.828125 35.296875 
Q 50.828125 22.703125 48.234375 14.96875 
Q 45.65625 7.234375 40.5 3 
Q 35.359375 -1.21875 27.484375 -1.21875 
Q 17.140625 -1.21875 11.234375 6.203125 
Q 4.15625 15.140625 4.15625 35.296875 
z
M 13.1875 35.296875 
Q 13.1875 17.671875 17.3125 11.828125 
Q 21.4375 6 27.484375 6 
Q 33.546875 6 37.671875 11.859375 
Q 41.796875 17.71875 41.796875 35.296875 
Q 41.796875 52.984375 37.671875 58.78125 
Q 33.546875 64.59375 27.390625 64.59375 
Q 21.34375 64.59375 17.71875 59.46875 
Q 13.1875 52.9375 13.1875 35.296875 
z
" id="ArialMT-30"/>
      </defs>
      <g style="fill:#262626;" transform="translate(161.88179 190.117812)scale(0.1 -0.1)">
       <use xlink:href="#ArialMT-31"/>
       <use x="55.615234" xlink:href="#ArialMT-30"/>
      </g>
     </g>
    </g>
    <g id="xtick_6">
     <g id="line2d_6">
      <g>
       <use style="fill:#262626;stroke:#262626;stroke-width:0.8;" x="196.304545" xlink:href="#md006d2128e" y="175.96"/>
      </g>
     </g>
     <g id="text_6">
      <!-- 12 -->
      <g style="fill:#262626;" transform="translate(190.743608 190.117812)scale(0.1 -0.1)">
       <use xlink:href="#ArialMT-31"/>
       <use x="55.615234" xlink:href="#ArialMT-32"/>
      </g>
     </g>
    </g>
    <g id="text_7">
     <!-- pH -->
     <defs>
      <path d="M 6.59375 -19.875 
L 6.59375 51.859375 
L 14.59375 51.859375 
L 14.59375 45.125 
Q 17.4375 49.078125 21 51.046875 
Q 24.5625 53.03125 29.640625 53.03125 
Q 36.28125 53.03125 41.359375 49.609375 
Q 46.4375 46.1875 49.015625 39.953125 
Q 51.609375 33.734375 51.609375 26.3125 
Q 51.609375 18.359375 48.75 11.984375 
Q 45.90625 5.609375 40.453125 2.21875 
Q 35.015625 -1.171875 29 -1.171875 
Q 24.609375 -1.171875 21.109375 0.6875 
Q 17.625 2.546875 15.375 5.375 
L 15.375 -19.875 
z
M 14.546875 25.640625 
Q 14.546875 15.625 18.59375 10.84375 
Q 22.65625 6.0625 28.421875 6.0625 
Q 34.28125 6.0625 38.453125 11.015625 
Q 42.625 15.96875 42.625 26.375 
Q 42.625 36.28125 38.546875 41.203125 
Q 34.46875 46.140625 28.8125 46.140625 
Q 23.1875 46.140625 18.859375 40.890625 
Q 14.546875 35.640625 14.546875 25.640625 
z
" id="ArialMT-70"/>
      <path d="M 8.015625 0 
L 8.015625 71.578125 
L 17.484375 71.578125 
L 17.484375 42.1875 
L 54.6875 42.1875 
L 54.6875 71.578125 
L 64.15625 71.578125 
L 64.15625 0 
L 54.6875 0 
L 54.6875 33.734375 
L 17.484375 33.734375 
L 17.484375 0 
z
" id="ArialMT-48"/>
     </defs>
     <g style="fill:#262626;" transform="translate(117.758594 203.263125)scale(0.1 -0.1)">
      <use xlink:href="#ArialMT-70"/>
      <use x="55.615234" xlink:href="#ArialMT-48"/>
     </g>
    </g>
   </g>
   <g id="matplotlib.axis_2">
    <g id="ytick_1">
     <g id="line2d_7">
      <defs>
       <path d="M 0 0 
L -3.5 0 
" id="ma67c68778b" style="stroke:#262626;stroke-width:0.8;"/>
      </defs>
      <g>
       <use style="fill:#262626;stroke:#262626;stroke-width:0.8;" x="44.78" xlink:href="#ma67c68778b" y="172.711171"/>
      </g>
     </g>
     <g id="text_8">
      <!-- −2 -->
      <defs>
       <path d="M 52.828125 31.203125 
L 5.5625 31.203125 
L 5.5625 39.40625 
L 52.828125 39.40625 
z
" id="ArialMT-2212"/>
      </defs>
      <g style="fill:#262626;" transform="translate(26.378438 176.290077)scale(0.1 -0.1)">
       <use xlink:href="#ArialMT-2212"/>
       <use x="58.398438" xlink:href="#ArialMT-32"/>
      </g>
     </g>
    </g>
    <g id="ytick_2">
     <g id="line2d_8">
      <g>
       <use style="fill:#262626;stroke:#262626;stroke-width:0.8;" x="44.78" xlink:href="#ma67c68778b" y="124.622335"/>
      </g>
     </g>
     <g id="text_9">
      <!-- −1 -->
      <g style="fill:#262626;" transform="translate(26.378438 128.201242)scale(0.1 -0.1)">
       <use xlink:href="#ArialMT-2212"/>
       <use x="58.398438" xlink:href="#ArialMT-31"/>
      </g>
     </g>
    </g>
    <g id="ytick_3">
     <g id="line2d_9">
      <g>
       <use style="fill:#262626;stroke:#262626;stroke-width:0.8;" x="44.78" xlink:href="#ma67c68778b" y="76.5335"/>
      </g>
     </g>
     <g id="text_10">
      <!-- 0 -->
      <g style="fill:#262626;" transform="translate(32.219063 80.112406)scale(0.1 -0.1)">
       <use xlink:href="#ArialMT-30"/>
      </g>
     </g>
    </g>
    <g id="ytick_4">
     <g id="line2d_10">
      <g>
       <use style="fill:#262626;stroke:#262626;stroke-width:0.8;" x="44.78" xlink:href="#ma67c68778b" y="28.444664"/>
      </g>
     </g>
     <g id="text_11">
      <!-- 1 -->
      <g style="fill:#262626;" transform="translate(32.219063 32.02357)scale(0.1 -0.1)">
       <use xlink:href="#ArialMT-31"/>
      </g>
     </g>
    </g>
    <g id="text_12">
     <!-- $\langle q_\mathsf{total} \rangle$ -->
     <defs>
      <path d="M 8.9375 31.34375 
L 22.703125 75.875 
L 31 75.875 
L 17.234375 31.34375 
L 31 -13.1875 
L 22.703125 -13.1875 
z
" id="DejaVuSans-27e8"/>
      <path d="M 41.703125 8.203125 
Q 38.09375 3.46875 33.171875 1.015625 
Q 28.265625 -1.421875 22.3125 -1.421875 
Q 14.015625 -1.421875 9.296875 4.171875 
Q 4.59375 9.765625 4.59375 19.578125 
Q 4.59375 27.484375 7.5 34.859375 
Q 10.40625 42.234375 15.828125 48.09375 
Q 19.34375 51.90625 23.90625 53.953125 
Q 28.46875 56 33.5 56 
Q 39.546875 56 43.453125 53.609375 
Q 47.359375 51.21875 49.125 46.390625 
L 50.6875 54.59375 
L 59.71875 54.59375 
L 45.125 -20.609375 
L 36.078125 -20.609375 
z
M 13.921875 20.90625 
Q 13.921875 13.671875 16.9375 9.890625 
Q 19.96875 6.109375 25.6875 6.109375 
Q 34.1875 6.109375 40.1875 14.234375 
Q 46.1875 22.359375 46.1875 33.984375 
Q 46.1875 41.015625 43.078125 44.75 
Q 39.984375 48.484375 34.1875 48.484375 
Q 29.9375 48.484375 26.3125 46.5 
Q 22.703125 44.53125 20.015625 40.71875 
Q 17.1875 36.71875 15.546875 31.34375 
Q 13.921875 25.984375 13.921875 20.90625 
z
" id="DejaVuSans-Oblique-71"/>
      <path d="M 18.3125 70.21875 
L 18.3125 54.6875 
L 36.8125 54.6875 
L 36.8125 47.703125 
L 18.3125 47.703125 
L 18.3125 18.015625 
Q 18.3125 11.328125 20.140625 9.421875 
Q 21.96875 7.515625 27.59375 7.515625 
L 36.8125 7.515625 
L 36.8125 0 
L 27.59375 0 
Q 17.1875 0 13.234375 3.875 
Q 9.28125 7.765625 9.28125 18.015625 
L 9.28125 47.703125 
L 2.6875 47.703125 
L 2.6875 54.6875 
L 9.28125 54.6875 
L 9.28125 70.21875 
z
" id="DejaVuSans-74"/>
      <path d="M 30.609375 48.390625 
Q 23.390625 48.390625 19.1875 42.75 
Q 14.984375 37.109375 14.984375 27.296875 
Q 14.984375 17.484375 19.15625 11.84375 
Q 23.34375 6.203125 30.609375 6.203125 
Q 37.796875 6.203125 41.984375 11.859375 
Q 46.1875 17.53125 46.1875 27.296875 
Q 46.1875 37.015625 41.984375 42.703125 
Q 37.796875 48.390625 30.609375 48.390625 
z
M 30.609375 56 
Q 42.328125 56 49.015625 48.375 
Q 55.71875 40.765625 55.71875 27.296875 
Q 55.71875 13.875 49.015625 6.21875 
Q 42.328125 -1.421875 30.609375 -1.421875 
Q 18.84375 -1.421875 12.171875 6.21875 
Q 5.515625 13.875 5.515625 27.296875 
Q 5.515625 40.765625 12.171875 48.375 
Q 18.84375 56 30.609375 56 
z
" id="DejaVuSans-6f"/>
      <path d="M 34.28125 27.484375 
Q 23.390625 27.484375 19.1875 25 
Q 14.984375 22.515625 14.984375 16.5 
Q 14.984375 11.71875 18.140625 8.90625 
Q 21.296875 6.109375 26.703125 6.109375 
Q 34.1875 6.109375 38.703125 11.40625 
Q 43.21875 16.703125 43.21875 25.484375 
L 43.21875 27.484375 
z
M 52.203125 31.203125 
L 52.203125 0 
L 43.21875 0 
L 43.21875 8.296875 
Q 40.140625 3.328125 35.546875 0.953125 
Q 30.953125 -1.421875 24.3125 -1.421875 
Q 15.921875 -1.421875 10.953125 3.296875 
Q 6 8.015625 6 15.921875 
Q 6 25.140625 12.171875 29.828125 
Q 18.359375 34.515625 30.609375 34.515625 
L 43.21875 34.515625 
L 43.21875 35.40625 
Q 43.21875 41.609375 39.140625 45 
Q 35.0625 48.390625 27.6875 48.390625 
Q 23 48.390625 18.546875 47.265625 
Q 14.109375 46.140625 10.015625 43.890625 
L 10.015625 52.203125 
Q 14.9375 54.109375 19.578125 55.046875 
Q 24.21875 56 28.609375 56 
Q 40.484375 56 46.34375 49.84375 
Q 52.203125 43.703125 52.203125 31.203125 
z
" id="DejaVuSans-61"/>
      <path d="M 9.421875 75.984375 
L 18.40625 75.984375 
L 18.40625 0 
L 9.421875 0 
z
" id="DejaVuSans-6c"/>
      <path d="M 30.078125 31.34375 
L 16.3125 -13.1875 
L 8.015625 -13.1875 
L 21.78125 31.34375 
L 8.015625 75.875 
L 16.3125 75.875 
z
" id="DejaVuSans-27e9"/>
     </defs>
     <g style="fill:#262626;" transform="translate(20.278438 115.95)rotate(-90)scale(0.1 -0.1)">
      <use transform="translate(0 0.125)" xlink:href="#DejaVuSans-27e8"/>
      <use transform="translate(39.013672 0.125)" xlink:href="#DejaVuSans-Oblique-71"/>
      <use transform="translate(102.490234 -16.28125)scale(0.7)" xlink:href="#DejaVuSans-74"/>
      <use transform="translate(129.936523 -16.28125)scale(0.7)" xlink:href="#DejaVuSans-6f"/>
      <use transform="translate(172.763672 -16.28125)scale(0.7)" xlink:href="#DejaVuSans-74"/>
      <use transform="translate(200.209961 -16.28125)scale(0.7)" xlink:href="#DejaVuSans-61"/>
      <use transform="translate(243.105469 -16.28125)scale(0.7)" xlink:href="#DejaVuSans-6c"/>
      <use transform="translate(265.288086 0.125)" xlink:href="#DejaVuSans-27e9"/>
     </g>
    </g>
   </g>
   <g id="PolyCollection_1">
    <defs>
     <path d="M 51.995455 -183.718182 
L 51.995455 -95.214733 
L 53.438545 -95.27872 
L 54.881636 -95.349555 
L 56.324727 -95.427609 
L 57.767818 -95.513189 
L 59.210909 -95.606543 
L 60.654 -95.707884 
L 62.097091 -95.81743 
L 63.540182 -95.935454 
L 64.983273 -96.062336 
L 66.426364 -96.198612 
L 67.869455 -96.345024 
L 69.312545 -96.502545 
L 70.755636 -96.67241 
L 72.198727 -96.856112 
L 73.641818 -97.055392 
L 75.084909 -97.272208 
L 76.528 -97.508698 
L 77.971091 -97.767136 
L 79.414182 -98.049896 
L 80.857273 -98.359414 
L 82.300364 -98.698156 
L 83.743455 -99.068588 
L 85.186545 -99.473146 
L 86.629636 -99.914207 
L 88.072727 -100.394056 
L 89.515818 -100.91485 
L 90.958909 -101.47857 
L 92.402 -102.086983 
L 93.845091 -102.741613 
L 95.288182 -103.443745 
L 96.731273 -104.194457 
L 98.174364 -104.994684 
L 99.617455 -105.845289 
L 101.060545 -106.747083 
L 102.503636 -107.700762 
L 103.946727 -108.706698 
L 105.389818 -109.76454 
L 106.832909 -110.872599 
L 108.276 -112.026972 
L 109.719091 -113.220409 
L 111.162182 -114.440877 
L 112.605273 -115.669823 
L 114.048364 -116.880096 
L 115.491455 -118.03359 
L 116.934545 -119.078813 
L 118.377636 -119.949077 
L 119.820727 -120.562755 
L 121.263818 -120.827986 
L 122.706909 -120.654122 
L 124.15 -119.969105 
L 125.593091 -118.73587 
L 127.036182 -116.958003 
L 128.479273 -114.671544 
L 129.922364 -111.930105 
L 131.365455 -108.792838 
L 132.808545 -105.31936 
L 134.251636 -101.570305 
L 135.694727 -97.610292 
L 137.137818 -93.510416 
L 138.580909 -89.348486 
L 140.024 -85.206377 
L 141.467091 -81.164962 
L 142.910182 -77.297945 
L 144.353273 -73.666189 
L 145.796364 -70.313895 
L 147.239455 -67.267284 
L 148.682545 -64.535644 
L 150.125636 -62.114074 
L 151.568727 -59.987078 
L 153.011818 -58.132226 
L 154.454909 -56.523387 
L 155.898 -55.133277 
L 157.341091 -53.935274 
L 158.784182 -52.904571 
L 160.227273 -52.018785 
L 161.670364 -51.258168 
L 163.113455 -50.605547 
L 164.556545 -50.046098 
L 165.999636 -49.567058 
L 167.442727 -49.157425 
L 168.885818 -48.807688 
L 170.328909 -48.509587 
L 171.772 -48.255927 
L 173.215091 -48.040415 
L 174.658182 -47.857539 
L 176.101273 -47.702472 
L 177.544364 -47.571 
L 178.987455 -47.459454 
L 180.430545 -47.364666 
L 181.873636 -47.283915 
L 183.316727 -47.214888 
L 184.759818 -47.155633 
L 186.202909 -47.104512 
L 187.646 -47.060151 
L 189.089091 -47.021387 
L 190.532182 -46.987229 
L 191.975273 -46.95683 
L 193.418364 -46.929482 
L 194.861455 -46.904616 
L 196.304545 -46.881818 
L 196.304545 -135.884301 
L 196.304545 -135.884301 
L 194.861455 -135.864297 
L 193.418364 -135.842948 
L 191.975273 -135.820026 
L 190.532182 -135.795199 
L 189.089091 -135.768055 
L 187.646 -135.73812 
L 186.202909 -135.704872 
L 184.759818 -135.667737 
L 183.316727 -135.626083 
L 181.873636 -135.579206 
L 180.430545 -135.526326 
L 178.987455 -135.466602 
L 177.544364 -135.399164 
L 176.101273 -135.323161 
L 174.658182 -135.237835 
L 173.215091 -135.142614 
L 171.772 -135.037225 
L 170.328909 -134.921841 
L 168.885818 -134.797254 
L 167.442727 -134.665062 
L 165.999636 -134.527895 
L 164.556545 -134.389656 
L 163.113455 -134.255784 
L 161.670364 -134.133513 
L 160.227273 -134.032125 
L 158.784182 -133.963163 
L 157.341091 -133.940575 
L 155.898 -133.980749 
L 154.454909 -134.102336 
L 153.011818 -134.325759 
L 151.568727 -134.672227 
L 150.125636 -135.162117 
L 148.682545 -135.812617 
L 147.239455 -136.634668 
L 145.796364 -137.629498 
L 144.353273 -138.785329 
L 142.910182 -140.075094 
L 141.467091 -141.456139 
L 140.024 -142.872626 
L 138.580909 -144.260841 
L 137.137818 -145.556813 
L 135.694727 -146.704998 
L 134.251636 -147.666508 
L 132.808545 -148.425577 
L 131.365455 -148.993539 
L 129.922364 -149.409964 
L 128.479273 -149.740594 
L 127.036182 -150.071021 
L 125.593091 -150.494474 
L 124.15 -151.093501 
L 122.706909 -151.920182 
L 121.263818 -152.984495 
L 119.820727 -154.257841 
L 118.377636 -155.688343 
L 116.934545 -157.217835 
L 115.491455 -158.793408 
L 114.048364 -160.372479 
L 112.605273 -161.923555 
L 111.162182 -163.424966 
L 109.719091 -164.862979 
L 108.276 -166.229929 
L 106.832909 -167.522579 
L 105.389818 -168.740761 
L 103.946727 -169.886258 
L 102.503636 -170.961935 
L 101.060545 -171.971084 
L 99.617455 -172.916985 
L 98.174364 -173.802654 
L 96.731273 -174.630752 
L 95.288182 -175.403613 
L 93.845091 -176.123347 
L 92.402 -176.791964 
L 90.958909 -177.411489 
L 89.515818 -177.984038 
L 88.072727 -178.511846 
L 86.629636 -178.997267 
L 85.186545 -179.442755 
L 83.743455 -179.850829 
L 82.300364 -180.224054 
L 80.857273 -180.565016 
L 79.414182 -180.876297 
L 77.971091 -181.160457 
L 76.528 -181.420007 
L 75.084909 -181.65738 
L 73.641818 -181.874898 
L 72.198727 -182.074736 
L 70.755636 -182.25888 
L 69.312545 -182.429097 
L 67.869455 -182.586898 
L 66.426364 -182.733531 
L 64.983273 -182.869984 
L 63.540182 -182.997006 
L 62.097091 -183.115141 
L 60.654 -183.224775 
L 59.210909 -183.326186 
L 57.767818 -183.419596 
L 56.324727 -183.505221 
L 54.881636 -183.58331 
L 53.438545 -183.654173 
L 51.995455 -183.718182 
z
" id="mdadbaeb86d" style="stroke:#ffffff;stroke-opacity:0.05;"/>
    </defs>
    <g clip-path="url(#pa67183dea7)">
     <use style="fill:#b1400d;fill-opacity:0.05;stroke:#ffffff;stroke-opacity:0.05;" x="0" xlink:href="#mdadbaeb86d" y="216"/>
    </g>
   </g>
   <g id="line2d_11">
    <path clip-path="url(#pa67183dea7)" d="M 51.995455 76.533543 
L 53.438545 76.533554 
L 54.881636 76.533568 
L 56.324727 76.533585 
L 57.767818 76.533607 
L 59.210909 76.533635 
L 60.654 76.53367 
L 62.097091 76.533714 
L 63.540182 76.53377 
L 64.983273 76.53384 
L 66.426364 76.533928 
L 67.869455 76.534039 
L 69.312545 76.534179 
L 70.755636 76.534355 
L 72.198727 76.534576 
L 73.641818 76.534855 
L 75.084909 76.535206 
L 76.528 76.535648 
L 77.971091 76.536204 
L 79.414182 76.536904 
L 80.857273 76.537785 
L 82.300364 76.538895 
L 83.743455 76.540291 
L 85.186545 76.54205 
L 86.629636 76.544263 
L 88.072727 76.547049 
L 89.515818 76.550556 
L 90.958909 76.554971 
L 92.402 76.560527 
L 93.845091 76.56752 
L 95.288182 76.576321 
L 96.731273 76.587396 
L 98.174364 76.601331 
L 99.617455 76.618863 
L 101.060545 76.640917 
L 102.503636 76.668652 
L 103.946727 76.703522 
L 105.389818 76.747349 
L 106.832909 76.802411 
L 108.276 76.871549 
L 109.719091 76.958306 
L 111.162182 77.067078 
L 112.605273 77.203311 
L 114.048364 77.373712 
L 115.491455 77.586501 
L 116.934545 77.851676 
L 118.377636 78.18129 
L 119.820727 78.589702 
L 121.263818 79.09376 
L 122.706909 79.712848 
L 124.15 80.468697 
L 125.593091 81.384828 
L 127.036182 82.485488 
L 128.479273 83.793931 
L 129.922364 85.329966 
L 131.365455 87.106811 
L 132.808545 89.127531 
L 134.251636 91.381594 
L 135.694727 93.842355 
L 137.137818 96.466386 
L 138.580909 99.195336 
L 140.024 101.960499 
L 141.467091 104.689449 
L 142.910182 107.31348 
L 144.353273 109.774241 
L 145.796364 112.028304 
L 147.239455 114.049024 
L 148.682545 115.82587 
L 150.125636 117.361904 
L 151.568727 118.670347 
L 153.011818 119.771007 
L 154.454909 120.687138 
L 155.898 121.442987 
L 157.341091 122.062075 
L 158.784182 122.566133 
L 160.227273 122.974545 
L 161.670364 123.304159 
L 163.113455 123.569334 
L 164.556545 123.782123 
L 165.999636 123.952524 
L 167.442727 124.088757 
L 168.885818 124.197529 
L 170.328909 124.284286 
L 171.772 124.353424 
L 173.215091 124.408486 
L 174.658182 124.452313 
L 176.101273 124.487184 
L 177.544364 124.514918 
L 178.987455 124.536972 
L 180.430545 124.554504 
L 181.873636 124.568439 
L 183.316727 124.579514 
L 184.759818 124.588315 
L 186.202909 124.595308 
L 187.646 124.600864 
L 189.089091 124.605279 
L 190.532182 124.608786 
L 191.975273 124.611572 
L 193.418364 124.613785 
L 194.861455 124.615544 
L 196.304545 124.61694 
" style="fill:none;opacity:0.9;stroke:#b1400d;stroke-linecap:round;stroke-width:1.5;"/>
   </g>
   <g id="line2d_12">
    <path clip-path="url(#pa67183dea7)" d="M 51.995455 76.543093 
L 53.438545 76.545576 
L 54.881636 76.548702 
L 56.324727 76.552637 
L 57.767818 76.557589 
L 59.210909 76.563823 
L 60.654 76.571668 
L 62.097091 76.58154 
L 63.540182 76.593964 
L 64.983273 76.609595 
L 66.426364 76.629258 
L 67.869455 76.653991 
L 69.312545 76.685091 
L 70.755636 76.724186 
L 72.198727 76.773313 
L 73.641818 76.835017 
L 75.084909 76.912473 
L 76.528 77.009627 
L 77.971091 77.131375 
L 79.414182 77.283765 
L 80.857273 77.474228 
L 82.300364 77.711838 
L 83.743455 78.007587 
L 85.186545 78.374653 
L 86.629636 78.828622 
L 88.072727 79.387617 
L 89.515818 80.07224 
L 90.958909 80.905212 
L 92.402 81.91059 
L 93.845091 83.112384 
L 95.288182 84.532478 
L 96.731273 86.187815 
L 98.174364 88.08699 
L 99.617455 90.226663 
L 101.060545 92.588466 
L 102.503636 95.1373 
L 103.946727 97.821868 
L 105.389818 100.577918 
L 106.832909 103.333967 
L 108.276 106.018535 
L 109.719091 108.567369 
L 111.162182 110.929172 
L 112.605273 113.068845 
L 114.048364 114.96802 
L 115.491455 116.623357 
L 116.934545 118.043451 
L 118.377636 119.245245 
L 119.820727 120.250623 
L 121.263818 121.083595 
L 122.706909 121.768218 
L 124.15 122.327213 
L 125.593091 122.781182 
L 127.036182 123.148248 
L 128.479273 123.443997 
L 129.922364 123.681607 
L 131.365455 123.87207 
L 132.808545 124.02446 
L 134.251636 124.146208 
L 135.694727 124.243362 
L 137.137818 124.320818 
L 138.580909 124.382522 
L 140.024 124.431649 
L 141.467091 124.470745 
L 142.910182 124.501844 
L 144.353273 124.526577 
L 145.796364 124.54624 
L 147.239455 124.561871 
L 148.682545 124.574295 
L 150.125636 124.584167 
L 151.568727 124.592013 
L 153.011818 124.598246 
L 154.454909 124.603199 
L 155.898 124.607133 
L 157.341091 124.610259 
L 158.784182 124.612742 
L 160.227273 124.614715 
L 161.670364 124.616282 
L 163.113455 124.617527 
L 164.556545 124.618516 
L 165.999636 124.619301 
L 167.442727 124.619925 
L 168.885818 124.620421 
L 170.328909 124.620815 
L 171.772 124.621127 
L 173.215091 124.621376 
L 174.658182 124.621573 
L 176.101273 124.62173 
L 177.544364 124.621855 
L 178.987455 124.621953 
L 180.430545 124.622032 
L 181.873636 124.622094 
L 183.316727 124.622144 
L 184.759818 124.622183 
L 186.202909 124.622215 
L 187.646 124.622239 
L 189.089091 124.622259 
L 190.532182 124.622275 
L 191.975273 124.622287 
L 193.418364 124.622297 
L 194.861455 124.622305 
L 196.304545 124.622311 
" style="fill:none;opacity:0.7;stroke:#000000;stroke-linecap:round;stroke-width:1.5;"/>
   </g>
   <g id="line2d_13">
    <path clip-path="url(#pa67183dea7)" d="M 51.995455 32.281818 
L 53.438545 32.345827 
L 54.881636 32.41669 
L 56.324727 32.494779 
L 57.767818 32.580404 
L 59.210909 32.673814 
L 60.654 32.775225 
L 62.097091 32.884859 
L 63.540182 33.002994 
L 64.983273 33.130016 
L 66.426364 33.266469 
L 67.869455 33.413102 
L 69.312545 33.570903 
L 70.755636 33.74112 
L 72.198727 33.925264 
L 73.641818 34.125102 
L 75.084909 34.34262 
L 76.528 34.579993 
L 77.971091 34.839543 
L 79.414182 35.123703 
L 80.857273 35.434984 
L 82.300364 35.775946 
L 83.743455 36.149171 
L 85.186545 36.557245 
L 86.629636 37.002733 
L 88.072727 37.488154 
L 89.515818 38.015962 
L 90.958909 38.588511 
L 92.402 39.208036 
L 93.845091 39.876653 
L 95.288182 40.596387 
L 96.731273 41.369248 
L 98.174364 42.197346 
L 99.617455 43.083015 
L 101.060545 44.028916 
L 102.503636 45.038065 
L 103.946727 46.113742 
L 105.389818 47.259239 
L 106.832909 48.477421 
L 108.276 49.770071 
L 109.719091 51.137021 
L 111.162182 52.575034 
L 112.605273 54.076445 
L 114.048364 55.627521 
L 115.491455 57.206592 
L 116.934545 58.782165 
L 118.377636 60.311657 
L 119.820727 61.742159 
L 121.263818 63.015505 
L 122.706909 64.079818 
L 124.15 64.906499 
L 125.593091 65.505526 
L 127.036182 65.928979 
L 128.479273 66.259406 
L 129.922364 66.590036 
L 131.365455 67.006461 
L 132.808545 67.574423 
L 134.251636 68.333492 
L 135.694727 69.295002 
L 137.137818 70.443187 
L 138.580909 71.739159 
L 140.024 73.127374 
L 141.467091 74.543861 
L 142.910182 75.924906 
L 144.353273 77.214671 
L 145.796364 78.370502 
L 147.239455 79.365332 
L 148.682545 80.187383 
L 150.125636 80.837883 
L 151.568727 81.327773 
L 153.011818 81.674241 
L 154.454909 81.897664 
L 155.898 82.019251 
L 157.341091 82.059425 
L 158.784182 82.036837 
L 160.227273 81.967875 
L 161.670364 81.866487 
L 163.113455 81.744216 
L 164.556545 81.610344 
L 165.999636 81.472105 
L 167.442727 81.334938 
L 168.885818 81.202746 
L 170.328909 81.078159 
L 171.772 80.962775 
L 173.215091 80.857386 
L 174.658182 80.762165 
L 176.101273 80.676839 
L 177.544364 80.600836 
L 178.987455 80.533398 
L 180.430545 80.473674 
L 181.873636 80.420794 
L 183.316727 80.373917 
L 184.759818 80.332263 
L 186.202909 80.295128 
L 187.646 80.26188 
L 189.089091 80.231945 
L 190.532182 80.204801 
L 191.975273 80.179974 
L 193.418364 80.157052 
L 194.861455 80.135703 
L 196.304545 80.115699 
" style="fill:none;opacity:0.45;stroke:#b1400d;stroke-dasharray:2.775,1.2;stroke-dashoffset:0;stroke-width:0.75;"/>
   </g>
   <g id="line2d_14">
    <path clip-path="url(#pa67183dea7)" d="M 51.995455 120.785267 
L 53.438545 120.72128 
L 54.881636 120.650445 
L 56.324727 120.572391 
L 57.767818 120.486811 
L 59.210909 120.393457 
L 60.654 120.292116 
L 62.097091 120.18257 
L 63.540182 120.064546 
L 64.983273 119.937664 
L 66.426364 119.801388 
L 67.869455 119.654976 
L 69.312545 119.497455 
L 70.755636 119.32759 
L 72.198727 119.143888 
L 73.641818 118.944608 
L 75.084909 118.727792 
L 76.528 118.491302 
L 77.971091 118.232864 
L 79.414182 117.950104 
L 80.857273 117.640586 
L 82.300364 117.301844 
L 83.743455 116.931412 
L 85.186545 116.526854 
L 86.629636 116.085793 
L 88.072727 115.605944 
L 89.515818 115.08515 
L 90.958909 114.52143 
L 92.402 113.913017 
L 93.845091 113.258387 
L 95.288182 112.556255 
L 96.731273 111.805543 
L 98.174364 111.005316 
L 99.617455 110.154711 
L 101.060545 109.252917 
L 102.503636 108.299238 
L 103.946727 107.293302 
L 105.389818 106.23546 
L 106.832909 105.127401 
L 108.276 103.973028 
L 109.719091 102.779591 
L 111.162182 101.559123 
L 112.605273 100.330177 
L 114.048364 99.119904 
L 115.491455 97.96641 
L 116.934545 96.921187 
L 118.377636 96.050923 
L 119.820727 95.437245 
L 121.263818 95.172014 
L 122.706909 95.345878 
L 124.15 96.030895 
L 125.593091 97.26413 
L 127.036182 99.041997 
L 128.479273 101.328456 
L 129.922364 104.069895 
L 131.365455 107.207162 
L 132.808545 110.68064 
L 134.251636 114.429695 
L 135.694727 118.389708 
L 137.137818 122.489584 
L 138.580909 126.651514 
L 140.024 130.793623 
L 141.467091 134.835038 
L 142.910182 138.702055 
L 144.353273 142.333811 
L 145.796364 145.686105 
L 147.239455 148.732716 
L 148.682545 151.464356 
L 150.125636 153.885926 
L 151.568727 156.012922 
L 153.011818 157.867774 
L 154.454909 159.476613 
L 155.898 160.866723 
L 157.341091 162.064726 
L 158.784182 163.095429 
L 160.227273 163.981215 
L 161.670364 164.741832 
L 163.113455 165.394453 
L 164.556545 165.953902 
L 165.999636 166.432942 
L 167.442727 166.842575 
L 168.885818 167.192312 
L 170.328909 167.490413 
L 171.772 167.744073 
L 173.215091 167.959585 
L 174.658182 168.142461 
L 176.101273 168.297528 
L 177.544364 168.429 
L 178.987455 168.540546 
L 180.430545 168.635334 
L 181.873636 168.716085 
L 183.316727 168.785112 
L 184.759818 168.844367 
L 186.202909 168.895488 
L 187.646 168.939849 
L 189.089091 168.978613 
L 190.532182 169.012771 
L 191.975273 169.04317 
L 193.418364 169.070518 
L 194.861455 169.095384 
L 196.304545 169.118182 
" style="fill:none;opacity:0.45;stroke:#b1400d;stroke-dasharray:2.775,1.2;stroke-dashoffset:0;stroke-width:0.75;"/>
   </g>
   <g id="patch_3">
    <path d="M 44.78 175.96 
L 44.78 25.44 
" style="fill:none;stroke:#262626;stroke-linecap:square;stroke-linejoin:miter;stroke-width:0.8;"/>
   </g>
   <g id="patch_4">
    <path d="M 44.78 175.96 
L 203.52 175.96 
" style="fill:none;stroke:#262626;stroke-linecap:square;stroke-linejoin:miter;stroke-width:0.8;"/>
   </g>
   <g id="text_13">
    <!-- Epik-macro SM20 -->
    <defs>
     <path d="M 7.90625 0 
L 7.90625 71.578125 
L 59.671875 71.578125 
L 59.671875 63.140625 
L 17.390625 63.140625 
L 17.390625 41.21875 
L 56.984375 41.21875 
L 56.984375 32.8125 
L 17.390625 32.8125 
L 17.390625 8.453125 
L 61.328125 8.453125 
L 61.328125 0 
z
" id="ArialMT-45"/>
     <path d="M 6.640625 61.46875 
L 6.640625 71.578125 
L 15.4375 71.578125 
L 15.4375 61.46875 
z
M 6.640625 0 
L 6.640625 51.859375 
L 15.4375 51.859375 
L 15.4375 0 
z
" id="ArialMT-69"/>
     <path d="M 6.640625 0 
L 6.640625 71.578125 
L 15.4375 71.578125 
L 15.4375 30.765625 
L 36.234375 51.859375 
L 47.609375 51.859375 
L 27.78125 32.625 
L 49.609375 0 
L 38.765625 0 
L 21.625 26.515625 
L 15.4375 20.5625 
L 15.4375 0 
z
" id="ArialMT-6b"/>
     <path d="M 3.171875 21.484375 
L 3.171875 30.328125 
L 30.171875 30.328125 
L 30.171875 21.484375 
z
" id="ArialMT-2d"/>
     <path d="M 6.59375 0 
L 6.59375 51.859375 
L 14.453125 51.859375 
L 14.453125 44.578125 
Q 16.890625 48.390625 20.9375 50.703125 
Q 25 53.03125 30.171875 53.03125 
Q 35.9375 53.03125 39.625 50.640625 
Q 43.3125 48.25 44.828125 43.953125 
Q 50.984375 53.03125 60.84375 53.03125 
Q 68.5625 53.03125 72.703125 48.75 
Q 76.859375 44.484375 76.859375 35.59375 
L 76.859375 0 
L 68.109375 0 
L 68.109375 32.671875 
Q 68.109375 37.9375 67.25 40.25 
Q 66.40625 42.578125 64.15625 43.984375 
Q 61.921875 45.40625 58.890625 45.40625 
Q 53.421875 45.40625 49.796875 41.765625 
Q 46.1875 38.140625 46.1875 30.125 
L 46.1875 0 
L 37.40625 0 
L 37.40625 33.6875 
Q 37.40625 39.546875 35.25 42.46875 
Q 33.109375 45.40625 28.21875 45.40625 
Q 24.515625 45.40625 21.359375 43.453125 
Q 18.21875 41.5 16.796875 37.734375 
Q 15.375 33.984375 15.375 26.90625 
L 15.375 0 
z
" id="ArialMT-6d"/>
     <path d="M 40.4375 6.390625 
Q 35.546875 2.25 31.03125 0.53125 
Q 26.515625 -1.171875 21.34375 -1.171875 
Q 12.796875 -1.171875 8.203125 3 
Q 3.609375 7.171875 3.609375 13.671875 
Q 3.609375 17.484375 5.34375 20.625 
Q 7.078125 23.78125 9.890625 25.6875 
Q 12.703125 27.59375 16.21875 28.5625 
Q 18.796875 29.25 24.03125 29.890625 
Q 34.671875 31.15625 39.703125 32.90625 
Q 39.75 34.71875 39.75 35.203125 
Q 39.75 40.578125 37.25 42.78125 
Q 33.890625 45.75 27.25 45.75 
Q 21.046875 45.75 18.09375 43.578125 
Q 15.140625 41.40625 13.71875 35.890625 
L 5.125 37.0625 
Q 6.296875 42.578125 8.984375 45.96875 
Q 11.671875 49.359375 16.75 51.1875 
Q 21.828125 53.03125 28.515625 53.03125 
Q 35.15625 53.03125 39.296875 51.46875 
Q 43.453125 49.90625 45.40625 47.53125 
Q 47.359375 45.171875 48.140625 41.546875 
Q 48.578125 39.3125 48.578125 33.453125 
L 48.578125 21.734375 
Q 48.578125 9.46875 49.140625 6.21875 
Q 49.703125 2.984375 51.375 0 
L 42.1875 0 
Q 40.828125 2.734375 40.4375 6.390625 
z
M 39.703125 26.03125 
Q 34.90625 24.078125 25.34375 22.703125 
Q 19.921875 21.921875 17.671875 20.9375 
Q 15.4375 19.96875 14.203125 18.09375 
Q 12.984375 16.21875 12.984375 13.921875 
Q 12.984375 10.40625 15.640625 8.0625 
Q 18.3125 5.71875 23.4375 5.71875 
Q 28.515625 5.71875 32.46875 7.9375 
Q 36.421875 10.15625 38.28125 14.015625 
Q 39.703125 17 39.703125 22.796875 
z
" id="ArialMT-61"/>
     <path d="M 40.4375 19 
L 49.078125 17.875 
Q 47.65625 8.9375 41.8125 3.875 
Q 35.984375 -1.171875 27.484375 -1.171875 
Q 16.84375 -1.171875 10.375 5.78125 
Q 3.90625 12.75 3.90625 25.734375 
Q 3.90625 34.125 6.6875 40.421875 
Q 9.46875 46.734375 15.15625 49.875 
Q 20.84375 53.03125 27.546875 53.03125 
Q 35.984375 53.03125 41.359375 48.75 
Q 46.734375 44.484375 48.25 36.625 
L 39.703125 35.296875 
Q 38.484375 40.53125 35.375 43.15625 
Q 32.28125 45.796875 27.875 45.796875 
Q 21.234375 45.796875 17.078125 41.03125 
Q 12.9375 36.28125 12.9375 25.984375 
Q 12.9375 15.53125 16.9375 10.796875 
Q 20.953125 6.0625 27.390625 6.0625 
Q 32.5625 6.0625 36.03125 9.234375 
Q 39.5 12.40625 40.4375 19 
z
" id="ArialMT-63"/>
     <path d="M 6.5 0 
L 6.5 51.859375 
L 14.40625 51.859375 
L 14.40625 44 
Q 17.4375 49.515625 20 51.265625 
Q 22.5625 53.03125 25.640625 53.03125 
Q 30.078125 53.03125 34.671875 50.203125 
L 31.640625 42.046875 
Q 28.421875 43.953125 25.203125 43.953125 
Q 22.3125 43.953125 20.015625 42.21875 
Q 17.71875 40.484375 16.75 37.40625 
Q 15.28125 32.71875 15.28125 27.15625 
L 15.28125 0 
z
" id="ArialMT-72"/>
     <path d="M 3.328125 25.921875 
Q 3.328125 40.328125 11.328125 47.265625 
Q 18.015625 53.03125 27.640625 53.03125 
Q 38.328125 53.03125 45.109375 46.015625 
Q 51.90625 39.015625 51.90625 26.65625 
Q 51.90625 16.65625 48.90625 10.90625 
Q 45.90625 5.171875 40.15625 2 
Q 34.421875 -1.171875 27.640625 -1.171875 
Q 16.75 -1.171875 10.03125 5.8125 
Q 3.328125 12.796875 3.328125 25.921875 
z
M 12.359375 25.921875 
Q 12.359375 15.96875 16.703125 11.015625 
Q 21.046875 6.0625 27.640625 6.0625 
Q 34.1875 6.0625 38.53125 11.03125 
Q 42.875 16.015625 42.875 26.21875 
Q 42.875 35.84375 38.5 40.796875 
Q 34.125 45.75 27.640625 45.75 
Q 21.046875 45.75 16.703125 40.8125 
Q 12.359375 35.890625 12.359375 25.921875 
z
" id="ArialMT-6f"/>
     <path id="ArialMT-20"/>
     <path d="M 4.5 23 
L 13.421875 23.78125 
Q 14.0625 18.40625 16.375 14.96875 
Q 18.703125 11.53125 23.578125 9.40625 
Q 28.46875 7.28125 34.578125 7.28125 
Q 39.984375 7.28125 44.140625 8.890625 
Q 48.296875 10.5 50.3125 13.296875 
Q 52.34375 16.109375 52.34375 19.4375 
Q 52.34375 22.796875 50.390625 25.3125 
Q 48.4375 27.828125 43.953125 29.546875 
Q 41.0625 30.671875 31.203125 33.03125 
Q 21.34375 35.40625 17.390625 37.5 
Q 12.25 40.1875 9.734375 44.15625 
Q 7.234375 48.140625 7.234375 53.078125 
Q 7.234375 58.5 10.296875 63.203125 
Q 13.375 67.921875 19.28125 70.359375 
Q 25.203125 72.796875 32.421875 72.796875 
Q 40.375 72.796875 46.453125 70.234375 
Q 52.546875 67.671875 55.8125 62.6875 
Q 59.078125 57.71875 59.328125 51.421875 
L 50.25 50.734375 
Q 49.515625 57.515625 45.28125 60.984375 
Q 41.0625 64.453125 32.8125 64.453125 
Q 24.21875 64.453125 20.28125 61.296875 
Q 16.359375 58.15625 16.359375 53.71875 
Q 16.359375 49.859375 19.140625 47.359375 
Q 21.875 44.875 33.421875 42.265625 
Q 44.96875 39.65625 49.265625 37.703125 
Q 55.515625 34.8125 58.484375 30.390625 
Q 61.46875 25.984375 61.46875 20.21875 
Q 61.46875 14.5 58.203125 9.4375 
Q 54.9375 4.390625 48.796875 1.578125 
Q 42.671875 -1.21875 35.015625 -1.21875 
Q 25.296875 -1.21875 18.71875 1.609375 
Q 12.15625 4.4375 8.421875 10.125 
Q 4.6875 15.828125 4.5 23 
z
" id="ArialMT-53"/>
     <path d="M 7.421875 0 
L 7.421875 71.578125 
L 21.6875 71.578125 
L 38.625 20.90625 
Q 40.96875 13.8125 42.046875 10.296875 
Q 43.265625 14.203125 45.84375 21.78125 
L 62.984375 71.578125 
L 75.734375 71.578125 
L 75.734375 0 
L 66.609375 0 
L 66.609375 59.90625 
L 45.796875 0 
L 37.25 0 
L 16.546875 60.9375 
L 16.546875 0 
z
" id="ArialMT-4d"/>
    </defs>
    <g style="fill:#262626;" transform="translate(76.471563 19.44)scale(0.12 -0.12)">
     <use xlink:href="#ArialMT-45"/>
     <use x="66.699219" xlink:href="#ArialMT-70"/>
     <use x="122.314453" xlink:href="#ArialMT-69"/>
     <use x="144.53125" xlink:href="#ArialMT-6b"/>
     <use x="194.53125" xlink:href="#ArialMT-2d"/>
     <use x="227.832031" xlink:href="#ArialMT-6d"/>
     <use x="311.132812" xlink:href="#ArialMT-61"/>
     <use x="366.748047" xlink:href="#ArialMT-63"/>
     <use x="416.748047" xlink:href="#ArialMT-72"/>
     <use x="450.048828" xlink:href="#ArialMT-6f"/>
     <use x="505.664062" xlink:href="#ArialMT-20"/>
     <use x="533.447266" xlink:href="#ArialMT-53"/>
     <use x="600.146484" xlink:href="#ArialMT-4d"/>
     <use x="683.447266" xlink:href="#ArialMT-32"/>
     <use x="739.0625" xlink:href="#ArialMT-30"/>
    </g>
   </g>
  </g>
 </g>
 <defs>
  <clipPath id="pa67183dea7">
   <rect height="150.52" width="158.74" x="44.78" y="25.44"/>
  </clipPath>
 </defs>
</svg>
