<?xml version="1.0" encoding="utf-8" standalone="no"?>
<!DOCTYPE svg PUBLIC "-//W3C//DTD SVG 1.1//EN"
  "http://www.w3.org/Graphics/SVG/1.1/DTD/svg11.dtd">
<!-- Created with matplotlib (http://matplotlib.org/) -->
<svg height="144pt" version="1.1" viewBox="0 0 144 144" width="144pt" xmlns="http://www.w3.org/2000/svg" xmlns:xlink="http://www.w3.org/1999/xlink">
 <defs>
  <style type="text/css">
*{stroke-linecap:butt;stroke-linejoin:round;}
  </style>
 </defs>
 <g id="figure_1">
  <g id="patch_1">
   <path d="M 0 144 
L 144 144 
L 144 0 
L 0 0 
z
" style="fill:#ffffff;"/>
  </g>
  <g id="axes_1">
   <g id="patch_2">
    <path d="M 47.6 101.92 
L 130.44 101.92 
L 130.44 13.56 
L 47.6 13.56 
z
" style="fill:#ffffff;"/>
   </g>
   <g id="matplotlib.axis_1">
    <g id="xtick_1">
     <g id="line2d_1">
      <defs>
       <path d="M 0 0 
L 0 3.5 
" id="m4860c4fe44" style="stroke:#262626;stroke-width:0.8;"/>
      </defs>
      <g>
       <use style="fill:#262626;stroke:#262626;stroke-width:0.8;" x="51.365455" xlink:href="#m4860c4fe44" y="101.92"/>
      </g>
     </g>
     <g id="text_1">
      <!-- 2 -->
      <defs>
       <path d="M 50.34375 8.453125 
L 50.34375 0 
L 3.03125 0 
Q 2.9375 3.171875 4.046875 6.109375 
Q 5.859375 10.9375 9.828125 15.625 
Q 13.8125 20.3125 21.34375 26.46875 
Q 33.015625 36.03125 37.109375 41.625 
Q 41.21875 47.21875 41.21875 52.203125 
Q 41.21875 57.421875 37.46875 61 
Q 33.734375 64.59375 27.734375 64.59375 
Q 21.390625 64.59375 17.578125 60.78125 
Q 13.765625 56.984375 13.71875 50.25 
L 4.6875 51.171875 
Q 5.609375 61.28125 11.65625 66.578125 
Q 17.71875 71.875 27.9375 71.875 
Q 38.234375 71.875 44.234375 66.15625 
Q 50.25 60.453125 50.25 52 
Q 50.25 47.703125 48.484375 43.546875 
Q 46.734375 39.40625 42.65625 34.8125 
Q 38.578125 30.21875 29.109375 22.21875 
Q 21.1875 15.578125 18.9375 13.203125 
Q 16.703125 10.84375 15.234375 8.453125 
z
" id="ArialMT-32"/>
      </defs>
      <g style="fill:#262626;" transform="translate(48.306939 116.793594)scale(0.11 -0.11)">
       <use xlink:href="#ArialMT-32"/>
      </g>
     </g>
    </g>
    <g id="xtick_2">
     <g id="line2d_2">
      <g>
       <use style="fill:#262626;stroke:#262626;stroke-width:0.8;" x="66.427273" xlink:href="#m4860c4fe44" y="101.92"/>
      </g>
     </g>
     <g id="text_2">
      <!-- 4 -->
      <defs>
       <path d="M 32.328125 0 
L 32.328125 17.140625 
L 1.265625 17.140625 
L 1.265625 25.203125 
L 33.9375 71.578125 
L 41.109375 71.578125 
L 41.109375 25.203125 
L 50.78125 25.203125 
L 50.78125 17.140625 
L 41.109375 17.140625 
L 41.109375 0 
z
M 32.328125 25.203125 
L 32.328125 57.46875 
L 9.90625 25.203125 
z
" id="ArialMT-34"/>
      </defs>
      <g style="fill:#262626;" transform="translate(63.368757 116.793594)scale(0.11 -0.11)">
       <use xlink:href="#ArialMT-34"/>
      </g>
     </g>
    </g>
    <g id="xtick_3">
     <g id="line2d_3">
      <g>
       <use style="fill:#262626;stroke:#262626;stroke-width:0.8;" x="81.489091" xlink:href="#m4860c4fe44" y="101.92"/>
      </g>
     </g>
     <g id="text_3">
      <!-- 6 -->
      <defs>
       <path d="M 49.75 54.046875 
L 41.015625 53.375 
Q 39.84375 58.546875 37.703125 60.890625 
Q 34.125 64.65625 28.90625 64.65625 
Q 24.703125 64.65625 21.53125 62.3125 
Q 17.390625 59.28125 14.984375 53.46875 
Q 12.59375 47.65625 12.5 36.921875 
Q 15.671875 41.75 20.265625 44.09375 
Q 24.859375 46.4375 29.890625 46.4375 
Q 38.671875 46.4375 44.84375 39.96875 
Q 51.03125 33.5 51.03125 23.25 
Q 51.03125 16.5 48.125 10.71875 
Q 45.21875 4.9375 40.140625 1.859375 
Q 35.0625 -1.21875 28.609375 -1.21875 
Q 17.625 -1.21875 10.6875 6.859375 
Q 3.765625 14.9375 3.765625 33.5 
Q 3.765625 54.25 11.421875 63.671875 
Q 18.109375 71.875 29.4375 71.875 
Q 37.890625 71.875 43.28125 67.140625 
Q 48.6875 62.40625 49.75 54.046875 
z
M 13.875 23.1875 
Q 13.875 18.65625 15.796875 14.5 
Q 17.71875 10.359375 21.1875 8.171875 
Q 24.65625 6 28.46875 6 
Q 34.03125 6 38.03125 10.484375 
Q 42.046875 14.984375 42.046875 22.703125 
Q 42.046875 30.125 38.078125 34.390625 
Q 34.125 38.671875 28.125 38.671875 
Q 22.171875 38.671875 18.015625 34.390625 
Q 13.875 30.125 13.875 23.1875 
z
" id="ArialMT-36"/>
      </defs>
      <g style="fill:#262626;" transform="translate(78.430575 116.793594)scale(0.11 -0.11)">
       <use xlink:href="#ArialMT-36"/>
      </g>
     </g>
    </g>
    <g id="xtick_4">
     <g id="line2d_4">
      <g>
       <use style="fill:#262626;stroke:#262626;stroke-width:0.8;" x="96.550909" xlink:href="#m4860c4fe44" y="101.92"/>
      </g>
     </g>
     <g id="text_4">
      <!-- 8 -->
      <defs>
       <path d="M 17.671875 38.8125 
Q 12.203125 40.828125 9.5625 44.53125 
Q 6.9375 48.25 6.9375 53.421875 
Q 6.9375 61.234375 12.546875 66.546875 
Q 18.171875 71.875 27.484375 71.875 
Q 36.859375 71.875 42.578125 66.421875 
Q 48.296875 60.984375 48.296875 53.171875 
Q 48.296875 48.1875 45.671875 44.5 
Q 43.0625 40.828125 37.75 38.8125 
Q 44.34375 36.671875 47.78125 31.875 
Q 51.21875 27.09375 51.21875 20.453125 
Q 51.21875 11.28125 44.71875 5.03125 
Q 38.234375 -1.21875 27.640625 -1.21875 
Q 17.046875 -1.21875 10.546875 5.046875 
Q 4.046875 11.328125 4.046875 20.703125 
Q 4.046875 27.6875 7.59375 32.390625 
Q 11.140625 37.109375 17.671875 38.8125 
z
M 15.921875 53.71875 
Q 15.921875 48.640625 19.1875 45.40625 
Q 22.46875 42.1875 27.6875 42.1875 
Q 32.765625 42.1875 36.015625 45.375 
Q 39.265625 48.578125 39.265625 53.21875 
Q 39.265625 58.0625 35.90625 61.359375 
Q 32.5625 64.65625 27.59375 64.65625 
Q 22.5625 64.65625 19.234375 61.421875 
Q 15.921875 58.203125 15.921875 53.71875 
z
M 13.09375 20.65625 
Q 13.09375 16.890625 14.875 13.375 
Q 16.65625 9.859375 20.171875 7.921875 
Q 23.6875 6 27.734375 6 
Q 34.03125 6 38.125 10.046875 
Q 42.234375 14.109375 42.234375 20.359375 
Q 42.234375 26.703125 38.015625 30.859375 
Q 33.796875 35.015625 27.4375 35.015625 
Q 21.234375 35.015625 17.15625 30.90625 
Q 13.09375 26.8125 13.09375 20.65625 
z
" id="ArialMT-38"/>
      </defs>
      <g style="fill:#262626;" transform="translate(93.492393 116.793594)scale(0.11 -0.11)">
       <use xlink:href="#ArialMT-38"/>
      </g>
     </g>
    </g>
    <g id="xtick_5">
     <g id="line2d_5">
      <g>
       <use style="fill:#262626;stroke:#262626;stroke-width:0.8;" x="111.612727" xlink:href="#m4860c4fe44" y="101.92"/>
      </g>
     </g>
     <g id="text_5">
      <!-- 10 -->
      <defs>
       <path d="M 37.25 0 
L 28.46875 0 
L 28.46875 56 
Q 25.296875 52.984375 20.140625 49.953125 
Q 14.984375 46.921875 10.890625 45.40625 
L 10.890625 53.90625 
Q 18.265625 57.375 23.78125 62.296875 
Q 29.296875 67.234375 31.59375 71.875 
L 37.25 71.875 
z
" id="ArialMT-31"/>
       <path d="M 4.15625 35.296875 
Q 4.15625 48 6.765625 55.734375 
Q 9.375 63.484375 14.515625 67.671875 
Q 19.671875 71.875 27.484375 71.875 
Q 33.25 71.875 37.59375 69.546875 
Q 41.9375 67.234375 44.765625 62.859375 
Q 47.609375 58.5 49.21875 52.21875 
Q 50.828125 45.953125 50.828125 35.296875 
Q 50.828125 22.703125 48.234375 14.96875 
Q 45.65625 7.234375 40.5 3 
Q 35.359375 -1.21875 27.484375 -1.21875 
Q 17.140625 -1.21875 11.234375 6.203125 
Q 4.15625 15.140625 4.15625 35.296875 
z
M 13.1875 35.296875 
Q 13.1875 17.671875 17.3125 11.828125 
Q 21.4375 6 27.484375 6 
Q 33.546875 6 37.671875 11.859375 
Q 41.796875 17.71875 41.796875 35.296875 
Q 41.796875 52.984375 37.671875 58.78125 
Q 33.546875 64.59375 27.390625 64.59375 
Q 21.34375 64.59375 17.71875 59.46875 
Q 13.1875 52.9375 13.1875 35.296875 
z
" id="ArialMT-30"/>
      </defs>
      <g style="fill:#262626;" transform="translate(105.495696 116.793594)scale(0.11 -0.11)">
       <use xlink:href="#ArialMT-31"/>
       <use x="55.615234" xlink:href="#ArialMT-30"/>
      </g>
     </g>
    </g>
    <g id="xtick_6">
     <g id="line2d_6">
      <g>
       <use style="fill:#262626;stroke:#262626;stroke-width:0.8;" x="126.674545" xlink:href="#m4860c4fe44" y="101.92"/>
      </g>
     </g>
     <g id="text_6">
      <!-- 12 -->
      <g style="fill:#262626;" transform="translate(120.557514 116.793594)scale(0.11 -0.11)">
       <use xlink:href="#ArialMT-31"/>
       <use x="55.615234" xlink:href="#ArialMT-32"/>
      </g>
     </g>
    </g>
    <g id="text_7">
     <!-- pH -->
     <defs>
      <path d="M 6.59375 -19.875 
L 6.59375 51.859375 
L 14.59375 51.859375 
L 14.59375 45.125 
Q 17.4375 49.078125 21 51.046875 
Q 24.5625 53.03125 29.640625 53.03125 
Q 36.28125 53.03125 41.359375 49.609375 
Q 46.4375 46.1875 49.015625 39.953125 
Q 51.609375 33.734375 51.609375 26.3125 
Q 51.609375 18.359375 48.75 11.984375 
Q 45.90625 5.609375 40.453125 2.21875 
Q 35.015625 -1.171875 29 -1.171875 
Q 24.609375 -1.171875 21.109375 0.6875 
Q 17.625 2.546875 15.375 5.375 
L 15.375 -19.875 
z
M 14.546875 25.640625 
Q 14.546875 15.625 18.59375 10.84375 
Q 22.65625 6.0625 28.421875 6.0625 
Q 34.28125 6.0625 38.453125 11.015625 
Q 42.625 15.96875 42.625 26.375 
Q 42.625 36.28125 38.546875 41.203125 
Q 34.46875 46.140625 28.8125 46.140625 
Q 23.1875 46.140625 18.859375 40.890625 
Q 14.546875 35.640625 14.546875 25.640625 
z
" id="ArialMT-70"/>
      <path d="M 8.015625 0 
L 8.015625 71.578125 
L 17.484375 71.578125 
L 17.484375 42.1875 
L 54.6875 42.1875 
L 54.6875 71.578125 
L 64.15625 71.578125 
L 64.15625 0 
L 54.6875 0 
L 54.6875 33.734375 
L 17.484375 33.734375 
L 17.484375 0 
z
" id="ArialMT-48"/>
     </defs>
     <g style="fill:#262626;" transform="translate(81.989453 130.853437)scale(0.11 -0.11)">
      <use xlink:href="#ArialMT-70"/>
      <use x="55.615234" xlink:href="#ArialMT-48"/>
     </g>
    </g>
   </g>
   <g id="matplotlib.axis_2">
    <g id="ytick_1">
     <g id="line2d_7">
      <defs>
       <path d="M 0 0 
L -3.5 0 
" id="m8bf432cac3" style="stroke:#262626;stroke-width:0.8;"/>
      </defs>
      <g>
       <use style="fill:#262626;stroke:#262626;stroke-width:0.8;" x="47.6" xlink:href="#m8bf432cac3" y="85.94175"/>
      </g>
     </g>
     <g id="text_8">
      <!-- 0 -->
      <g style="fill:#262626;" transform="translate(34.482969 89.878547)scale(0.11 -0.11)">
       <use xlink:href="#ArialMT-30"/>
      </g>
     </g>
    </g>
    <g id="ytick_2">
     <g id="line2d_8">
      <g>
       <use style="fill:#262626;stroke:#262626;stroke-width:0.8;" x="47.6" xlink:href="#m8bf432cac3" y="57.146297"/>
      </g>
     </g>
     <g id="text_9">
      <!-- 20 -->
      <g style="fill:#262626;" transform="translate(28.365938 61.083094)scale(0.11 -0.11)">
       <use xlink:href="#ArialMT-32"/>
       <use x="55.615234" xlink:href="#ArialMT-30"/>
      </g>
     </g>
    </g>
    <g id="ytick_3">
     <g id="line2d_9">
      <g>
       <use style="fill:#262626;stroke:#262626;stroke-width:0.8;" x="47.6" xlink:href="#m8bf432cac3" y="28.350844"/>
      </g>
     </g>
     <g id="text_10">
      <!-- 40 -->
      <g style="fill:#262626;" transform="translate(28.365938 32.287641)scale(0.11 -0.11)">
       <use xlink:href="#ArialMT-34"/>
       <use x="55.615234" xlink:href="#ArialMT-30"/>
      </g>
     </g>
    </g>
    <g id="text_11">
     <!-- Free energy ($k_B T$) -->
     <defs>
      <path d="M 8.203125 0 
L 8.203125 71.578125 
L 56.5 71.578125 
L 56.5 63.140625 
L 17.671875 63.140625 
L 17.671875 40.96875 
L 51.265625 40.96875 
L 51.265625 32.515625 
L 17.671875 32.515625 
L 17.671875 0 
z
" id="ArialMT-46"/>
      <path d="M 6.5 0 
L 6.5 51.859375 
L 14.40625 51.859375 
L 14.40625 44 
Q 17.4375 49.515625 20 51.265625 
Q 22.5625 53.03125 25.640625 53.03125 
Q 30.078125 53.03125 34.671875 50.203125 
L 31.640625 42.046875 
Q 28.421875 43.953125 25.203125 43.953125 
Q 22.3125 43.953125 20.015625 42.21875 
Q 17.71875 40.484375 16.75 37.40625 
Q 15.28125 32.71875 15.28125 27.15625 
L 15.28125 0 
z
" id="ArialMT-72"/>
      <path d="M 42.09375 16.703125 
L 51.171875 15.578125 
Q 49.03125 7.625 43.21875 3.21875 
Q 37.40625 -1.171875 28.375 -1.171875 
Q 17 -1.171875 10.328125 5.828125 
Q 3.65625 12.84375 3.65625 25.484375 
Q 3.65625 38.578125 10.390625 45.796875 
Q 17.140625 53.03125 27.875 53.03125 
Q 38.28125 53.03125 44.875 45.953125 
Q 51.46875 38.875 51.46875 26.03125 
Q 51.46875 25.25 51.421875 23.6875 
L 12.75 23.6875 
Q 13.234375 15.140625 17.578125 10.59375 
Q 21.921875 6.0625 28.421875 6.0625 
Q 33.25 6.0625 36.671875 8.59375 
Q 40.09375 11.140625 42.09375 16.703125 
z
M 13.234375 30.90625 
L 42.1875 30.90625 
Q 41.609375 37.453125 38.875 40.71875 
Q 34.671875 45.796875 27.984375 45.796875 
Q 21.921875 45.796875 17.796875 41.75 
Q 13.671875 37.703125 13.234375 30.90625 
z
" id="ArialMT-65"/>
      <path id="ArialMT-20"/>
      <path d="M 6.59375 0 
L 6.59375 51.859375 
L 14.5 51.859375 
L 14.5 44.484375 
Q 20.21875 53.03125 31 53.03125 
Q 35.6875 53.03125 39.625 51.34375 
Q 43.5625 49.65625 45.515625 46.921875 
Q 47.46875 44.1875 48.25 40.4375 
Q 48.734375 37.984375 48.734375 31.890625 
L 48.734375 0 
L 39.9375 0 
L 39.9375 31.546875 
Q 39.9375 36.921875 38.90625 39.578125 
Q 37.890625 42.234375 35.28125 43.8125 
Q 32.671875 45.40625 29.15625 45.40625 
Q 23.53125 45.40625 19.453125 41.84375 
Q 15.375 38.28125 15.375 28.328125 
L 15.375 0 
z
" id="ArialMT-6e"/>
      <path d="M 4.984375 -4.296875 
L 13.53125 -5.5625 
Q 14.0625 -9.515625 16.5 -11.328125 
Q 19.78125 -13.765625 25.4375 -13.765625 
Q 31.546875 -13.765625 34.859375 -11.328125 
Q 38.1875 -8.890625 39.359375 -4.5 
Q 40.046875 -1.8125 39.984375 6.78125 
Q 34.234375 0 25.640625 0 
Q 14.9375 0 9.078125 7.71875 
Q 3.21875 15.4375 3.21875 26.21875 
Q 3.21875 33.640625 5.90625 39.90625 
Q 8.59375 46.1875 13.6875 49.609375 
Q 18.796875 53.03125 25.6875 53.03125 
Q 34.859375 53.03125 40.828125 45.609375 
L 40.828125 51.859375 
L 48.921875 51.859375 
L 48.921875 7.03125 
Q 48.921875 -5.078125 46.453125 -10.125 
Q 44 -15.1875 38.640625 -18.109375 
Q 33.296875 -21.046875 25.484375 -21.046875 
Q 16.21875 -21.046875 10.5 -16.875 
Q 4.78125 -12.703125 4.984375 -4.296875 
z
M 12.25 26.859375 
Q 12.25 16.65625 16.296875 11.96875 
Q 20.359375 7.28125 26.46875 7.28125 
Q 32.515625 7.28125 36.609375 11.9375 
Q 40.71875 16.609375 40.71875 26.5625 
Q 40.71875 36.078125 36.5 40.90625 
Q 32.28125 45.75 26.3125 45.75 
Q 20.453125 45.75 16.34375 40.984375 
Q 12.25 36.234375 12.25 26.859375 
z
" id="ArialMT-67"/>
      <path d="M 6.203125 -19.96875 
L 5.21875 -11.71875 
Q 8.109375 -12.5 10.25 -12.5 
Q 13.1875 -12.5 14.9375 -11.515625 
Q 16.703125 -10.546875 17.828125 -8.796875 
Q 18.65625 -7.46875 20.515625 -2.25 
Q 20.75 -1.515625 21.296875 -0.09375 
L 1.609375 51.859375 
L 11.078125 51.859375 
L 21.875 21.828125 
Q 23.96875 16.109375 25.640625 9.8125 
Q 27.15625 15.875 29.25 21.625 
L 40.328125 51.859375 
L 49.125 51.859375 
L 29.390625 -0.875 
Q 26.21875 -9.421875 24.46875 -12.640625 
Q 22.125 -17 19.09375 -19.015625 
Q 16.0625 -21.046875 11.859375 -21.046875 
Q 9.328125 -21.046875 6.203125 -19.96875 
z
" id="ArialMT-79"/>
      <path d="M 23.390625 -21.046875 
Q 16.109375 -11.859375 11.078125 0.4375 
Q 6.0625 12.75 6.0625 25.921875 
Q 6.0625 37.546875 9.8125 48.1875 
Q 14.203125 60.546875 23.390625 72.796875 
L 29.6875 72.796875 
Q 23.78125 62.640625 21.875 58.296875 
Q 18.890625 51.5625 17.1875 44.234375 
Q 15.09375 35.109375 15.09375 25.875 
Q 15.09375 2.390625 29.6875 -21.046875 
z
" id="ArialMT-28"/>
      <path d="M 18.3125 75.984375 
L 27.296875 75.984375 
L 18.703125 31.6875 
L 49.515625 54.6875 
L 61.1875 54.6875 
L 26.8125 28.515625 
L 51.90625 0 
L 41.015625 0 
L 17.671875 26.703125 
L 12.5 0 
L 3.515625 0 
z
" id="DejaVuSans-Oblique-6b"/>
      <path d="M 16.890625 72.90625 
L 42.09375 72.90625 
Q 52.34375 72.90625 57.421875 69.09375 
Q 62.5 65.28125 62.5 57.625 
Q 62.5 50.59375 58.125 45.484375 
Q 53.765625 40.375 46.6875 39.3125 
Q 52.734375 37.9375 55.765625 34.078125 
Q 58.796875 30.21875 58.796875 23.78125 
Q 58.796875 12.796875 50.65625 6.390625 
Q 42.53125 0 28.421875 0 
L 2.6875 0 
z
M 19.28125 34.8125 
L 14.109375 8.109375 
L 29.984375 8.109375 
Q 38.921875 8.109375 43.75 12.203125 
Q 48.578125 16.3125 48.578125 23.78125 
Q 48.578125 29.546875 45.375 32.171875 
Q 42.1875 34.8125 35.109375 34.8125 
z
M 25.09375 64.796875 
L 20.796875 42.828125 
L 35.5 42.828125 
Q 43.359375 42.828125 47.78125 46.234375 
Q 52.203125 49.65625 52.203125 55.71875 
Q 52.203125 60.453125 49.21875 62.625 
Q 46.234375 64.796875 39.703125 64.796875 
z
" id="DejaVuSans-Oblique-42"/>
      <path d="M 5.90625 72.90625 
L 67.578125 72.90625 
L 66.015625 64.59375 
L 39.984375 64.59375 
L 27.484375 0 
L 17.578125 0 
L 30.078125 64.59375 
L 4.296875 64.59375 
z
" id="DejaVuSans-Oblique-54"/>
      <path d="M 12.359375 -21.046875 
L 6.0625 -21.046875 
Q 20.65625 2.390625 20.65625 25.875 
Q 20.65625 35.0625 18.5625 44.09375 
Q 16.890625 51.421875 13.921875 58.15625 
Q 12.015625 62.546875 6.0625 72.796875 
L 12.359375 72.796875 
Q 21.53125 60.546875 25.921875 48.1875 
Q 29.6875 37.546875 29.6875 25.921875 
Q 29.6875 12.75 24.625 0.4375 
Q 19.578125 -11.859375 12.359375 -21.046875 
z
" id="ArialMT-29"/>
     </defs>
     <g style="fill:#262626;" transform="translate(21.945938 101.96)rotate(-90)scale(0.11 -0.11)">
      <use transform="translate(0 0.015625)" xlink:href="#ArialMT-46"/>
      <use transform="translate(61.083984 0.015625)" xlink:href="#ArialMT-72"/>
      <use transform="translate(94.384766 0.015625)" xlink:href="#ArialMT-65"/>
      <use transform="translate(150 0.015625)" xlink:href="#ArialMT-65"/>
      <use transform="translate(205.615234 0.015625)" xlink:href="#ArialMT-20"/>
      <use transform="translate(233.398438 0.015625)" xlink:href="#ArialMT-65"/>
      <use transform="translate(289.013672 0.015625)" xlink:href="#ArialMT-6e"/>
      <use transform="translate(344.628906 0.015625)" xlink:href="#ArialMT-65"/>
      <use transform="translate(400.244141 0.015625)" xlink:href="#ArialMT-72"/>
      <use transform="translate(433.544922 0.015625)" xlink:href="#ArialMT-67"/>
      <use transform="translate(489.160156 0.015625)" xlink:href="#ArialMT-79"/>
      <use transform="translate(539.160156 0.015625)" xlink:href="#ArialMT-20"/>
      <use transform="translate(566.943359 0.015625)" xlink:href="#ArialMT-28"/>
      <use transform="translate(600.244141 0.015625)" xlink:href="#DejaVuSans-Oblique-6b"/>
      <use transform="translate(658.154297 -16.390625)scale(0.7)" xlink:href="#DejaVuSans-Oblique-42"/>
      <use transform="translate(708.911133 0.015625)" xlink:href="#DejaVuSans-Oblique-54"/>
      <use transform="translate(769.995117 0.015625)" xlink:href="#ArialMT-29"/>
     </g>
    </g>
   </g>
   <g id="patch_3">
    <path d="M 47.6 101.92 
L 47.6 13.56 
" style="fill:none;stroke:#262626;stroke-linecap:square;stroke-linejoin:miter;stroke-width:0.8;"/>
   </g>
   <g id="patch_4">
    <path d="M 47.6 101.92 
L 130.44 101.92 
" style="fill:none;stroke:#262626;stroke-linecap:square;stroke-linejoin:miter;stroke-width:0.8;"/>
   </g>
   <g id="line2d_10">
    <path clip-path="url(#p15a7ba67c4)" d="M 51.365455 83.880344 
L 52.118545 83.217305 
L 52.871636 82.554265 
L 53.624727 81.891225 
L 54.377818 81.228185 
L 55.130909 80.565145 
L 55.884 79.902106 
L 56.637091 79.239066 
L 57.390182 78.576026 
L 58.143273 77.912986 
L 58.896364 77.249946 
L 59.649455 76.586907 
L 60.402545 75.923867 
L 61.155636 75.260827 
L 61.908727 74.597787 
L 62.661818 73.934747 
L 63.414909 73.271708 
L 64.168 72.608668 
L 64.921091 71.945628 
L 65.674182 71.282588 
L 66.427273 70.619548 
L 67.180364 69.956508 
L 67.933455 69.293469 
L 68.686545 68.630429 
L 69.439636 67.967389 
L 70.192727 67.304349 
L 70.945818 66.641309 
L 71.698909 65.97827 
L 72.452 65.31523 
L 73.205091 64.65219 
L 73.958182 63.98915 
L 74.711273 63.32611 
L 75.464364 62.663071 
L 76.217455 62.000031 
L 76.970545 61.336991 
L 77.723636 60.673951 
L 78.476727 60.010911 
L 79.229818 59.347872 
L 79.982909 58.684832 
L 80.736 58.021792 
L 81.489091 57.358752 
L 82.242182 56.695712 
L 82.995273 56.032672 
L 83.748364 55.369633 
L 84.501455 54.706593 
L 85.254545 54.043553 
L 86.007636 53.380513 
L 86.760727 52.717473 
L 87.513818 52.054434 
L 88.266909 51.391394 
L 89.02 50.728354 
L 89.773091 50.065314 
L 90.526182 49.402274 
L 91.279273 48.739235 
L 92.032364 48.076195 
L 92.785455 47.413155 
L 93.538545 46.750115 
L 94.291636 46.087075 
L 95.044727 45.424036 
L 95.797818 44.760996 
L 96.550909 44.097956 
L 97.304 43.434916 
L 98.057091 42.771876 
L 98.810182 42.108837 
L 99.563273 41.445797 
L 100.316364 40.782757 
L 101.069455 40.119717 
L 101.822545 39.456677 
L 102.575636 38.793637 
L 103.328727 38.130598 
L 104.081818 37.467558 
L 104.834909 36.804518 
L 105.588 36.141478 
L 106.341091 35.478438 
L 107.094182 34.815399 
L 107.847273 34.152359 
L 108.600364 33.489319 
L 109.353455 32.826279 
L 110.106545 32.163239 
L 110.859636 31.5002 
L 111.612727 30.83716 
L 112.365818 30.17412 
L 113.118909 29.51108 
L 113.872 28.84804 
L 114.625091 28.185001 
L 115.378182 27.521961 
L 116.131273 26.858921 
L 116.884364 26.195881 
L 117.637455 25.532841 
L 118.390545 24.869802 
L 119.143636 24.206762 
L 119.896727 23.543722 
L 120.649818 22.880682 
L 121.402909 22.217642 
L 122.156 21.554602 
L 122.909091 20.891563 
L 123.662182 20.228523 
L 124.415273 19.565483 
L 125.168364 18.902443 
L 125.921455 18.239403 
L 126.674545 17.576364 
" style="fill:none;stroke:#4393c3;stroke-linecap:round;stroke-width:1.5;"/>
   </g>
   <g id="line2d_11">
    <path clip-path="url(#p15a7ba67c4)" d="M 51.365455 46.921857 
L 52.118545 47.253377 
L 52.871636 47.584897 
L 53.624727 47.916417 
L 54.377818 48.247937 
L 55.130909 48.579457 
L 55.884 48.910977 
L 56.637091 49.242497 
L 57.390182 49.574017 
L 58.143273 49.905537 
L 58.896364 50.237057 
L 59.649455 50.568576 
L 60.402545 50.900096 
L 61.155636 51.231616 
L 61.908727 51.563136 
L 62.661818 51.894656 
L 63.414909 52.226176 
L 64.168 52.557696 
L 64.921091 52.889216 
L 65.674182 53.220736 
L 66.427273 53.552256 
L 67.180364 53.883775 
L 67.933455 54.215295 
L 68.686545 54.546815 
L 69.439636 54.878335 
L 70.192727 55.209855 
L 70.945818 55.541375 
L 71.698909 55.872895 
L 72.452 56.204415 
L 73.205091 56.535935 
L 73.958182 56.867455 
L 74.711273 57.198974 
L 75.464364 57.530494 
L 76.217455 57.862014 
L 76.970545 58.193534 
L 77.723636 58.525054 
L 78.476727 58.856574 
L 79.229818 59.188094 
L 79.982909 59.519614 
L 80.736 59.851134 
L 81.489091 60.182654 
L 82.242182 60.514174 
L 82.995273 60.845693 
L 83.748364 61.177213 
L 84.501455 61.508733 
L 85.254545 61.840253 
L 86.007636 62.171773 
L 86.760727 62.503293 
L 87.513818 62.834813 
L 88.266909 63.166333 
L 89.02 63.497853 
L 89.773091 63.829373 
L 90.526182 64.160892 
L 91.279273 64.492412 
L 92.032364 64.823932 
L 92.785455 65.155452 
L 93.538545 65.486972 
L 94.291636 65.818492 
L 95.044727 66.150012 
L 95.797818 66.481532 
L 96.550909 66.813052 
L 97.304 67.144572 
L 98.057091 67.476092 
L 98.810182 67.807611 
L 99.563273 68.139131 
L 100.316364 68.470651 
L 101.069455 68.802171 
L 101.822545 69.133691 
L 102.575636 69.465211 
L 103.328727 69.796731 
L 104.081818 70.128251 
L 104.834909 70.459771 
L 105.588 70.791291 
L 106.341091 71.12281 
L 107.094182 71.45433 
L 107.847273 71.78585 
L 108.600364 72.11737 
L 109.353455 72.44889 
L 110.106545 72.78041 
L 110.859636 73.11193 
L 111.612727 73.44345 
L 112.365818 73.77497 
L 113.118909 74.10649 
L 113.872 74.438009 
L 114.625091 74.769529 
L 115.378182 75.101049 
L 116.131273 75.432569 
L 116.884364 75.764089 
L 117.637455 76.095609 
L 118.390545 76.427129 
L 119.143636 76.758649 
L 119.896727 77.090169 
L 120.649818 77.421689 
L 121.402909 77.753209 
L 122.156 78.084728 
L 122.909091 78.416248 
L 123.662182 78.747768 
L 124.415273 79.079288 
L 125.168364 79.410808 
L 125.921455 79.742328 
L 126.674545 80.073848 
" style="fill:none;stroke:#f4a582;stroke-linecap:round;stroke-width:1.5;"/>
   </g>
   <g id="line2d_12">
    <path clip-path="url(#p15a7ba67c4)" d="M 51.365455 97.903636 
L 52.118545 97.572116 
L 52.871636 97.240597 
L 53.624727 96.909077 
L 54.377818 96.577557 
L 55.130909 96.246037 
L 55.884 95.914517 
L 56.637091 95.582997 
L 57.390182 95.251477 
L 58.143273 94.919957 
L 58.896364 94.588437 
L 59.649455 94.256917 
L 60.402545 93.925398 
L 61.155636 93.593878 
L 61.908727 93.262358 
L 62.661818 92.930838 
L 63.414909 92.599318 
L 64.168 92.267798 
L 64.921091 91.936278 
L 65.674182 91.604758 
L 66.427273 91.273238 
L 67.180364 90.941718 
L 67.933455 90.610198 
L 68.686545 90.278679 
L 69.439636 89.947159 
L 70.192727 89.615639 
L 70.945818 89.284119 
L 71.698909 88.952599 
L 72.452 88.621079 
L 73.205091 88.289559 
L 73.958182 87.958039 
L 74.711273 87.626519 
L 75.464364 87.294999 
L 76.217455 86.96348 
L 76.970545 86.63196 
L 77.723636 86.30044 
L 78.476727 85.96892 
L 79.229818 85.6374 
L 79.982909 85.30588 
L 80.736 84.97436 
L 81.489091 84.64284 
L 82.242182 84.31132 
L 82.995273 83.9798 
L 83.748364 83.64828 
L 84.501455 83.316761 
L 85.254545 82.985241 
L 86.007636 82.653721 
L 86.760727 82.322201 
L 87.513818 81.990681 
L 88.266909 81.659161 
L 89.02 81.327641 
L 89.773091 80.996121 
L 90.526182 80.664601 
L 91.279273 80.333081 
L 92.032364 80.001562 
L 92.785455 79.670042 
L 93.538545 79.338522 
L 94.291636 79.007002 
L 95.044727 78.675482 
L 95.797818 78.343962 
L 96.550909 78.012442 
L 97.304 77.680922 
L 98.057091 77.349402 
L 98.810182 77.017882 
L 99.563273 76.686363 
L 100.316364 76.354843 
L 101.069455 76.023323 
L 101.822545 75.691803 
L 102.575636 75.360283 
L 103.328727 75.028763 
L 104.081818 74.697243 
L 104.834909 74.365723 
L 105.588 74.034203 
L 106.341091 73.702683 
L 107.094182 73.371163 
L 107.847273 73.039644 
L 108.600364 72.708124 
L 109.353455 72.376604 
L 110.106545 72.045084 
L 110.859636 71.713564 
L 111.612727 71.382044 
L 112.365818 71.050524 
L 113.118909 70.719004 
L 113.872 70.387484 
L 114.625091 70.055964 
L 115.378182 69.724445 
L 116.131273 69.392925 
L 116.884364 69.061405 
L 117.637455 68.729885 
L 118.390545 68.398365 
L 119.143636 68.066845 
L 119.896727 67.735325 
L 120.649818 67.403805 
L 121.402909 67.072285 
L 122.156 66.740765 
L 122.909091 66.409245 
L 123.662182 66.077726 
L 124.415273 65.746206 
L 125.168364 65.414686 
L 125.921455 65.083166 
L 126.674545 64.751646 
" style="fill:none;stroke:#92c5de;stroke-linecap:round;stroke-width:1.5;"/>
   </g>
   <g id="line2d_13">
    <path clip-path="url(#p15a7ba67c4)" d="M 51.365455 85.94175 
L 52.118545 85.94175 
L 52.871636 85.94175 
L 53.624727 85.94175 
L 54.377818 85.94175 
L 55.130909 85.94175 
L 55.884 85.94175 
L 56.637091 85.94175 
L 57.390182 85.94175 
L 58.143273 85.94175 
L 58.896364 85.94175 
L 59.649455 85.94175 
L 60.402545 85.94175 
L 61.155636 85.94175 
L 61.908727 85.94175 
L 62.661818 85.94175 
L 63.414909 85.94175 
L 64.168 85.94175 
L 64.921091 85.94175 
L 65.674182 85.94175 
L 66.427273 85.94175 
L 67.180364 85.94175 
L 67.933455 85.94175 
L 68.686545 85.94175 
L 69.439636 85.94175 
L 70.192727 85.94175 
L 70.945818 85.94175 
L 71.698909 85.94175 
L 72.452 85.94175 
L 73.205091 85.94175 
L 73.958182 85.94175 
L 74.711273 85.94175 
L 75.464364 85.94175 
L 76.217455 85.94175 
L 76.970545 85.94175 
L 77.723636 85.94175 
L 78.476727 85.94175 
L 79.229818 85.94175 
L 79.982909 85.94175 
L 80.736 85.94175 
L 81.489091 85.94175 
L 82.242182 85.94175 
L 82.995273 85.94175 
L 83.748364 85.94175 
L 84.501455 85.94175 
L 85.254545 85.94175 
L 86.007636 85.94175 
L 86.760727 85.94175 
L 87.513818 85.94175 
L 88.266909 85.94175 
L 89.02 85.94175 
L 89.773091 85.94175 
L 90.526182 85.94175 
L 91.279273 85.94175 
L 92.032364 85.94175 
L 92.785455 85.94175 
L 93.538545 85.94175 
L 94.291636 85.94175 
L 95.044727 85.94175 
L 95.797818 85.94175 
L 96.550909 85.94175 
L 97.304 85.94175 
L 98.057091 85.94175 
L 98.810182 85.94175 
L 99.563273 85.94175 
L 100.316364 85.94175 
L 101.069455 85.94175 
L 101.822545 85.94175 
L 102.575636 85.94175 
L 103.328727 85.94175 
L 104.081818 85.94175 
L 104.834909 85.94175 
L 105.588 85.94175 
L 106.341091 85.94175 
L 107.094182 85.94175 
L 107.847273 85.94175 
L 108.600364 85.94175 
L 109.353455 85.94175 
L 110.106545 85.94175 
L 110.859636 85.94175 
L 111.612727 85.94175 
L 112.365818 85.94175 
L 113.118909 85.94175 
L 113.872 85.94175 
L 114.625091 85.94175 
L 115.378182 85.94175 
L 116.131273 85.94175 
L 116.884364 85.94175 
L 117.637455 85.94175 
L 118.390545 85.94175 
L 119.143636 85.94175 
L 119.896727 85.94175 
L 120.649818 85.94175 
L 121.402909 85.94175 
L 122.156 85.94175 
L 122.909091 85.94175 
L 123.662182 85.94175 
L 124.415273 85.94175 
L 125.168364 85.94175 
L 125.921455 85.94175 
L 126.674545 85.94175 
" style="fill:none;stroke:#333333;stroke-linecap:round;stroke-width:1.5;"/>
   </g>
  </g>
 </g>
 <defs>
  <clipPath id="p15a7ba67c4">
   <rect height="88.36" width="82.84" x="47.6" y="13.56"/>
  </clipPath>
 </defs>
</svg>
