<?xml version="1.0" encoding="utf-8" standalone="no"?>
<!DOCTYPE svg PUBLIC "-//W3C//DTD SVG 1.1//EN"
  "http://www.w3.org/Graphics/SVG/1.1/DTD/svg11.dtd">
<!-- Created with matplotlib (http://matplotlib.org/) -->
<svg height="144pt" version="1.1" viewBox="0 0 144 144" width="144pt" xmlns="http://www.w3.org/2000/svg" xmlns:xlink="http://www.w3.org/1999/xlink">
 <defs>
  <style type="text/css">
*{stroke-linecap:butt;stroke-linejoin:round;}
  </style>
 </defs>
 <g id="figure_1">
  <g id="patch_1">
   <path d="M 0 144 
L 144 144 
L 144 0 
L 0 0 
z
" style="fill:#ffffff;"/>
  </g>
  <g id="axes_1">
   <g id="patch_2">
    <path d="M 54.02 101.92 
L 130.44 101.92 
L 130.44 13.56 
L 54.02 13.56 
z
" style="fill:#ffffff;"/>
   </g>
   <g id="matplotlib.axis_1">
    <g id="xtick_1">
     <g id="line2d_1">
      <defs>
       <path d="M 0 0 
L 0 3.5 
" id="m6904eaeb2c" style="stroke:#262626;stroke-width:0.8;"/>
      </defs>
      <g>
       <use style="fill:#262626;stroke:#262626;stroke-width:0.8;" x="57.493636" xlink:href="#m6904eaeb2c" y="101.92"/>
      </g>
     </g>
     <g id="text_1">
      <!-- 2 -->
      <defs>
       <path d="M 50.34375 8.453125 
L 50.34375 0 
L 3.03125 0 
Q 2.9375 3.171875 4.046875 6.109375 
Q 5.859375 10.9375 9.828125 15.625 
Q 13.8125 20.3125 21.34375 26.46875 
Q 33.015625 36.03125 37.109375 41.625 
Q 41.21875 47.21875 41.21875 52.203125 
Q 41.21875 57.421875 37.46875 61 
Q 33.734375 64.59375 27.734375 64.59375 
Q 21.390625 64.59375 17.578125 60.78125 
Q 13.765625 56.984375 13.71875 50.25 
L 4.6875 51.171875 
Q 5.609375 61.28125 11.65625 66.578125 
Q 17.71875 71.875 27.9375 71.875 
Q 38.234375 71.875 44.234375 66.15625 
Q 50.25 60.453125 50.25 52 
Q 50.25 47.703125 48.484375 43.546875 
Q 46.734375 39.40625 42.65625 34.8125 
Q 38.578125 30.21875 29.109375 22.21875 
Q 21.1875 15.578125 18.9375 13.203125 
Q 16.703125 10.84375 15.234375 8.453125 
z
" id="ArialMT-32"/>
      </defs>
      <g style="fill:#262626;" transform="translate(54.435121 116.793594)scale(0.11 -0.11)">
       <use xlink:href="#ArialMT-32"/>
      </g>
     </g>
    </g>
    <g id="xtick_2">
     <g id="line2d_2">
      <g>
       <use style="fill:#262626;stroke:#262626;stroke-width:0.8;" x="71.388182" xlink:href="#m6904eaeb2c" y="101.92"/>
      </g>
     </g>
     <g id="text_2">
      <!-- 4 -->
      <defs>
       <path d="M 32.328125 0 
L 32.328125 17.140625 
L 1.265625 17.140625 
L 1.265625 25.203125 
L 33.9375 71.578125 
L 41.109375 71.578125 
L 41.109375 25.203125 
L 50.78125 25.203125 
L 50.78125 17.140625 
L 41.109375 17.140625 
L 41.109375 0 
z
M 32.328125 25.203125 
L 32.328125 57.46875 
L 9.90625 25.203125 
z
" id="ArialMT-34"/>
      </defs>
      <g style="fill:#262626;" transform="translate(68.329666 116.793594)scale(0.11 -0.11)">
       <use xlink:href="#ArialMT-34"/>
      </g>
     </g>
    </g>
    <g id="xtick_3">
     <g id="line2d_3">
      <g>
       <use style="fill:#262626;stroke:#262626;stroke-width:0.8;" x="85.282727" xlink:href="#m6904eaeb2c" y="101.92"/>
      </g>
     </g>
     <g id="text_3">
      <!-- 6 -->
      <defs>
       <path d="M 49.75 54.046875 
L 41.015625 53.375 
Q 39.84375 58.546875 37.703125 60.890625 
Q 34.125 64.65625 28.90625 64.65625 
Q 24.703125 64.65625 21.53125 62.3125 
Q 17.390625 59.28125 14.984375 53.46875 
Q 12.59375 47.65625 12.5 36.921875 
Q 15.671875 41.75 20.265625 44.09375 
Q 24.859375 46.4375 29.890625 46.4375 
Q 38.671875 46.4375 44.84375 39.96875 
Q 51.03125 33.5 51.03125 23.25 
Q 51.03125 16.5 48.125 10.71875 
Q 45.21875 4.9375 40.140625 1.859375 
Q 35.0625 -1.21875 28.609375 -1.21875 
Q 17.625 -1.21875 10.6875 6.859375 
Q 3.765625 14.9375 3.765625 33.5 
Q 3.765625 54.25 11.421875 63.671875 
Q 18.109375 71.875 29.4375 71.875 
Q 37.890625 71.875 43.28125 67.140625 
Q 48.6875 62.40625 49.75 54.046875 
z
M 13.875 23.1875 
Q 13.875 18.65625 15.796875 14.5 
Q 17.71875 10.359375 21.1875 8.171875 
Q 24.65625 6 28.46875 6 
Q 34.03125 6 38.03125 10.484375 
Q 42.046875 14.984375 42.046875 22.703125 
Q 42.046875 30.125 38.078125 34.390625 
Q 34.125 38.671875 28.125 38.671875 
Q 22.171875 38.671875 18.015625 34.390625 
Q 13.875 30.125 13.875 23.1875 
z
" id="ArialMT-36"/>
      </defs>
      <g style="fill:#262626;" transform="translate(82.224212 116.793594)scale(0.11 -0.11)">
       <use xlink:href="#ArialMT-36"/>
      </g>
     </g>
    </g>
    <g id="xtick_4">
     <g id="line2d_4">
      <g>
       <use style="fill:#262626;stroke:#262626;stroke-width:0.8;" x="99.177273" xlink:href="#m6904eaeb2c" y="101.92"/>
      </g>
     </g>
     <g id="text_4">
      <!-- 8 -->
      <defs>
       <path d="M 17.671875 38.8125 
Q 12.203125 40.828125 9.5625 44.53125 
Q 6.9375 48.25 6.9375 53.421875 
Q 6.9375 61.234375 12.546875 66.546875 
Q 18.171875 71.875 27.484375 71.875 
Q 36.859375 71.875 42.578125 66.421875 
Q 48.296875 60.984375 48.296875 53.171875 
Q 48.296875 48.1875 45.671875 44.5 
Q 43.0625 40.828125 37.75 38.8125 
Q 44.34375 36.671875 47.78125 31.875 
Q 51.21875 27.09375 51.21875 20.453125 
Q 51.21875 11.28125 44.71875 5.03125 
Q 38.234375 -1.21875 27.640625 -1.21875 
Q 17.046875 -1.21875 10.546875 5.046875 
Q 4.046875 11.328125 4.046875 20.703125 
Q 4.046875 27.6875 7.59375 32.390625 
Q 11.140625 37.109375 17.671875 38.8125 
z
M 15.921875 53.71875 
Q 15.921875 48.640625 19.1875 45.40625 
Q 22.46875 42.1875 27.6875 42.1875 
Q 32.765625 42.1875 36.015625 45.375 
Q 39.265625 48.578125 39.265625 53.21875 
Q 39.265625 58.0625 35.90625 61.359375 
Q 32.5625 64.65625 27.59375 64.65625 
Q 22.5625 64.65625 19.234375 61.421875 
Q 15.921875 58.203125 15.921875 53.71875 
z
M 13.09375 20.65625 
Q 13.09375 16.890625 14.875 13.375 
Q 16.65625 9.859375 20.171875 7.921875 
Q 23.6875 6 27.734375 6 
Q 34.03125 6 38.125 10.046875 
Q 42.234375 14.109375 42.234375 20.359375 
Q 42.234375 26.703125 38.015625 30.859375 
Q 33.796875 35.015625 27.4375 35.015625 
Q 21.234375 35.015625 17.15625 30.90625 
Q 13.09375 26.8125 13.09375 20.65625 
z
" id="ArialMT-38"/>
      </defs>
      <g style="fill:#262626;" transform="translate(96.118757 116.793594)scale(0.11 -0.11)">
       <use xlink:href="#ArialMT-38"/>
      </g>
     </g>
    </g>
    <g id="xtick_5">
     <g id="line2d_5">
      <g>
       <use style="fill:#262626;stroke:#262626;stroke-width:0.8;" x="113.071818" xlink:href="#m6904eaeb2c" y="101.92"/>
      </g>
     </g>
     <g id="text_5">
      <!-- 10 -->
      <defs>
       <path d="M 37.25 0 
L 28.46875 0 
L 28.46875 56 
Q 25.296875 52.984375 20.140625 49.953125 
Q 14.984375 46.921875 10.890625 45.40625 
L 10.890625 53.90625 
Q 18.265625 57.375 23.78125 62.296875 
Q 29.296875 67.234375 31.59375 71.875 
L 37.25 71.875 
z
" id="ArialMT-31"/>
       <path d="M 4.15625 35.296875 
Q 4.15625 48 6.765625 55.734375 
Q 9.375 63.484375 14.515625 67.671875 
Q 19.671875 71.875 27.484375 71.875 
Q 33.25 71.875 37.59375 69.546875 
Q 41.9375 67.234375 44.765625 62.859375 
Q 47.609375 58.5 49.21875 52.21875 
Q 50.828125 45.953125 50.828125 35.296875 
Q 50.828125 22.703125 48.234375 14.96875 
Q 45.65625 7.234375 40.5 3 
Q 35.359375 -1.21875 27.484375 -1.21875 
Q 17.140625 -1.21875 11.234375 6.203125 
Q 4.15625 15.140625 4.15625 35.296875 
z
M 13.1875 35.296875 
Q 13.1875 17.671875 17.3125 11.828125 
Q 21.4375 6 27.484375 6 
Q 33.546875 6 37.671875 11.859375 
Q 41.796875 17.71875 41.796875 35.296875 
Q 41.796875 52.984375 37.671875 58.78125 
Q 33.546875 64.59375 27.390625 64.59375 
Q 21.34375 64.59375 17.71875 59.46875 
Q 13.1875 52.9375 13.1875 35.296875 
z
" id="ArialMT-30"/>
      </defs>
      <g style="fill:#262626;" transform="translate(106.954787 116.793594)scale(0.11 -0.11)">
       <use xlink:href="#ArialMT-31"/>
       <use x="55.615234" xlink:href="#ArialMT-30"/>
      </g>
     </g>
    </g>
    <g id="xtick_6">
     <g id="line2d_6">
      <g>
       <use style="fill:#262626;stroke:#262626;stroke-width:0.8;" x="126.966364" xlink:href="#m6904eaeb2c" y="101.92"/>
      </g>
     </g>
     <g id="text_6">
      <!-- 12 -->
      <g style="fill:#262626;" transform="translate(120.849332 116.793594)scale(0.11 -0.11)">
       <use xlink:href="#ArialMT-31"/>
       <use x="55.615234" xlink:href="#ArialMT-32"/>
      </g>
     </g>
    </g>
    <g id="text_7">
     <!-- pH -->
     <defs>
      <path d="M 6.59375 -19.875 
L 6.59375 51.859375 
L 14.59375 51.859375 
L 14.59375 45.125 
Q 17.4375 49.078125 21 51.046875 
Q 24.5625 53.03125 29.640625 53.03125 
Q 36.28125 53.03125 41.359375 49.609375 
Q 46.4375 46.1875 49.015625 39.953125 
Q 51.609375 33.734375 51.609375 26.3125 
Q 51.609375 18.359375 48.75 11.984375 
Q 45.90625 5.609375 40.453125 2.21875 
Q 35.015625 -1.171875 29 -1.171875 
Q 24.609375 -1.171875 21.109375 0.6875 
Q 17.625 2.546875 15.375 5.375 
L 15.375 -19.875 
z
M 14.546875 25.640625 
Q 14.546875 15.625 18.59375 10.84375 
Q 22.65625 6.0625 28.421875 6.0625 
Q 34.28125 6.0625 38.453125 11.015625 
Q 42.625 15.96875 42.625 26.375 
Q 42.625 36.28125 38.546875 41.203125 
Q 34.46875 46.140625 28.8125 46.140625 
Q 23.1875 46.140625 18.859375 40.890625 
Q 14.546875 35.640625 14.546875 25.640625 
z
" id="ArialMT-70"/>
      <path d="M 8.015625 0 
L 8.015625 71.578125 
L 17.484375 71.578125 
L 17.484375 42.1875 
L 54.6875 42.1875 
L 54.6875 71.578125 
L 64.15625 71.578125 
L 64.15625 0 
L 54.6875 0 
L 54.6875 33.734375 
L 17.484375 33.734375 
L 17.484375 0 
z
" id="ArialMT-48"/>
     </defs>
     <g style="fill:#262626;" transform="translate(85.199453 130.853437)scale(0.11 -0.11)">
      <use xlink:href="#ArialMT-70"/>
      <use x="55.615234" xlink:href="#ArialMT-48"/>
     </g>
    </g>
   </g>
   <g id="matplotlib.axis_2">
    <g id="ytick_1">
     <g id="line2d_7">
      <defs>
       <path d="M 0 0 
L -3.5 0 
" id="m56c5b3c32a" style="stroke:#262626;stroke-width:0.8;"/>
      </defs>
      <g>
       <use style="fill:#262626;stroke:#262626;stroke-width:0.8;" x="54.02" xlink:href="#m56c5b3c32a" y="92.819828"/>
      </g>
     </g>
     <g id="text_8">
      <!-- −10 -->
      <defs>
       <path d="M 52.828125 31.203125 
L 5.5625 31.203125 
L 5.5625 39.40625 
L 52.828125 39.40625 
z
" id="ArialMT-2212"/>
      </defs>
      <g style="fill:#262626;" transform="translate(28.36125 96.756625)scale(0.11 -0.11)">
       <use xlink:href="#ArialMT-2212"/>
       <use x="58.398438" xlink:href="#ArialMT-31"/>
       <use x="114.013672" xlink:href="#ArialMT-30"/>
      </g>
     </g>
    </g>
    <g id="ytick_2">
     <g id="line2d_8">
      <g>
       <use style="fill:#262626;stroke:#262626;stroke-width:0.8;" x="54.02" xlink:href="#m56c5b3c32a" y="67.35582"/>
      </g>
     </g>
     <g id="text_9">
      <!-- 0 -->
      <g style="fill:#262626;" transform="translate(40.902969 71.292616)scale(0.11 -0.11)">
       <use xlink:href="#ArialMT-30"/>
      </g>
     </g>
    </g>
    <g id="ytick_3">
     <g id="line2d_9">
      <g>
       <use style="fill:#262626;stroke:#262626;stroke-width:0.8;" x="54.02" xlink:href="#m56c5b3c32a" y="41.891811"/>
      </g>
     </g>
     <g id="text_10">
      <!-- 10 -->
      <g style="fill:#262626;" transform="translate(34.785938 45.828608)scale(0.11 -0.11)">
       <use xlink:href="#ArialMT-31"/>
       <use x="55.615234" xlink:href="#ArialMT-30"/>
      </g>
     </g>
    </g>
    <g id="ytick_4">
     <g id="line2d_10">
      <g>
       <use style="fill:#262626;stroke:#262626;stroke-width:0.8;" x="54.02" xlink:href="#m56c5b3c32a" y="16.427803"/>
      </g>
     </g>
     <g id="text_11">
      <!-- 20 -->
      <g style="fill:#262626;" transform="translate(34.785938 20.3646)scale(0.11 -0.11)">
       <use xlink:href="#ArialMT-32"/>
       <use x="55.615234" xlink:href="#ArialMT-30"/>
      </g>
     </g>
    </g>
    <g id="text_12">
     <!-- Free energy ($k_B T$) -->
     <defs>
      <path d="M 8.203125 0 
L 8.203125 71.578125 
L 56.5 71.578125 
L 56.5 63.140625 
L 17.671875 63.140625 
L 17.671875 40.96875 
L 51.265625 40.96875 
L 51.265625 32.515625 
L 17.671875 32.515625 
L 17.671875 0 
z
" id="ArialMT-46"/>
      <path d="M 6.5 0 
L 6.5 51.859375 
L 14.40625 51.859375 
L 14.40625 44 
Q 17.4375 49.515625 20 51.265625 
Q 22.5625 53.03125 25.640625 53.03125 
Q 30.078125 53.03125 34.671875 50.203125 
L 31.640625 42.046875 
Q 28.421875 43.953125 25.203125 43.953125 
Q 22.3125 43.953125 20.015625 42.21875 
Q 17.71875 40.484375 16.75 37.40625 
Q 15.28125 32.71875 15.28125 27.15625 
L 15.28125 0 
z
" id="ArialMT-72"/>
      <path d="M 42.09375 16.703125 
L 51.171875 15.578125 
Q 49.03125 7.625 43.21875 3.21875 
Q 37.40625 -1.171875 28.375 -1.171875 
Q 17 -1.171875 10.328125 5.828125 
Q 3.65625 12.84375 3.65625 25.484375 
Q 3.65625 38.578125 10.390625 45.796875 
Q 17.140625 53.03125 27.875 53.03125 
Q 38.28125 53.03125 44.875 45.953125 
Q 51.46875 38.875 51.46875 26.03125 
Q 51.46875 25.25 51.421875 23.6875 
L 12.75 23.6875 
Q 13.234375 15.140625 17.578125 10.59375 
Q 21.921875 6.0625 28.421875 6.0625 
Q 33.25 6.0625 36.671875 8.59375 
Q 40.09375 11.140625 42.09375 16.703125 
z
M 13.234375 30.90625 
L 42.1875 30.90625 
Q 41.609375 37.453125 38.875 40.71875 
Q 34.671875 45.796875 27.984375 45.796875 
Q 21.921875 45.796875 17.796875 41.75 
Q 13.671875 37.703125 13.234375 30.90625 
z
" id="ArialMT-65"/>
      <path id="ArialMT-20"/>
      <path d="M 6.59375 0 
L 6.59375 51.859375 
L 14.5 51.859375 
L 14.5 44.484375 
Q 20.21875 53.03125 31 53.03125 
Q 35.6875 53.03125 39.625 51.34375 
Q 43.5625 49.65625 45.515625 46.921875 
Q 47.46875 44.1875 48.25 40.4375 
Q 48.734375 37.984375 48.734375 31.890625 
L 48.734375 0 
L 39.9375 0 
L 39.9375 31.546875 
Q 39.9375 36.921875 38.90625 39.578125 
Q 37.890625 42.234375 35.28125 43.8125 
Q 32.671875 45.40625 29.15625 45.40625 
Q 23.53125 45.40625 19.453125 41.84375 
Q 15.375 38.28125 15.375 28.328125 
L 15.375 0 
z
" id="ArialMT-6e"/>
      <path d="M 4.984375 -4.296875 
L 13.53125 -5.5625 
Q 14.0625 -9.515625 16.5 -11.328125 
Q 19.78125 -13.765625 25.4375 -13.765625 
Q 31.546875 -13.765625 34.859375 -11.328125 
Q 38.1875 -8.890625 39.359375 -4.5 
Q 40.046875 -1.8125 39.984375 6.78125 
Q 34.234375 0 25.640625 0 
Q 14.9375 0 9.078125 7.71875 
Q 3.21875 15.4375 3.21875 26.21875 
Q 3.21875 33.640625 5.90625 39.90625 
Q 8.59375 46.1875 13.6875 49.609375 
Q 18.796875 53.03125 25.6875 53.03125 
Q 34.859375 53.03125 40.828125 45.609375 
L 40.828125 51.859375 
L 48.921875 51.859375 
L 48.921875 7.03125 
Q 48.921875 -5.078125 46.453125 -10.125 
Q 44 -15.1875 38.640625 -18.109375 
Q 33.296875 -21.046875 25.484375 -21.046875 
Q 16.21875 -21.046875 10.5 -16.875 
Q 4.78125 -12.703125 4.984375 -4.296875 
z
M 12.25 26.859375 
Q 12.25 16.65625 16.296875 11.96875 
Q 20.359375 7.28125 26.46875 7.28125 
Q 32.515625 7.28125 36.609375 11.9375 
Q 40.71875 16.609375 40.71875 26.5625 
Q 40.71875 36.078125 36.5 40.90625 
Q 32.28125 45.75 26.3125 45.75 
Q 20.453125 45.75 16.34375 40.984375 
Q 12.25 36.234375 12.25 26.859375 
z
" id="ArialMT-67"/>
      <path d="M 6.203125 -19.96875 
L 5.21875 -11.71875 
Q 8.109375 -12.5 10.25 -12.5 
Q 13.1875 -12.5 14.9375 -11.515625 
Q 16.703125 -10.546875 17.828125 -8.796875 
Q 18.65625 -7.46875 20.515625 -2.25 
Q 20.75 -1.515625 21.296875 -0.09375 
L 1.609375 51.859375 
L 11.078125 51.859375 
L 21.875 21.828125 
Q 23.96875 16.109375 25.640625 9.8125 
Q 27.15625 15.875 29.25 21.625 
L 40.328125 51.859375 
L 49.125 51.859375 
L 29.390625 -0.875 
Q 26.21875 -9.421875 24.46875 -12.640625 
Q 22.125 -17 19.09375 -19.015625 
Q 16.0625 -21.046875 11.859375 -21.046875 
Q 9.328125 -21.046875 6.203125 -19.96875 
z
" id="ArialMT-79"/>
      <path d="M 23.390625 -21.046875 
Q 16.109375 -11.859375 11.078125 0.4375 
Q 6.0625 12.75 6.0625 25.921875 
Q 6.0625 37.546875 9.8125 48.1875 
Q 14.203125 60.546875 23.390625 72.796875 
L 29.6875 72.796875 
Q 23.78125 62.640625 21.875 58.296875 
Q 18.890625 51.5625 17.1875 44.234375 
Q 15.09375 35.109375 15.09375 25.875 
Q 15.09375 2.390625 29.6875 -21.046875 
z
" id="ArialMT-28"/>
      <path d="M 18.3125 75.984375 
L 27.296875 75.984375 
L 18.703125 31.6875 
L 49.515625 54.6875 
L 61.1875 54.6875 
L 26.8125 28.515625 
L 51.90625 0 
L 41.015625 0 
L 17.671875 26.703125 
L 12.5 0 
L 3.515625 0 
z
" id="DejaVuSans-Oblique-6b"/>
      <path d="M 16.890625 72.90625 
L 42.09375 72.90625 
Q 52.34375 72.90625 57.421875 69.09375 
Q 62.5 65.28125 62.5 57.625 
Q 62.5 50.59375 58.125 45.484375 
Q 53.765625 40.375 46.6875 39.3125 
Q 52.734375 37.9375 55.765625 34.078125 
Q 58.796875 30.21875 58.796875 23.78125 
Q 58.796875 12.796875 50.65625 6.390625 
Q 42.53125 0 28.421875 0 
L 2.6875 0 
z
M 19.28125 34.8125 
L 14.109375 8.109375 
L 29.984375 8.109375 
Q 38.921875 8.109375 43.75 12.203125 
Q 48.578125 16.3125 48.578125 23.78125 
Q 48.578125 29.546875 45.375 32.171875 
Q 42.1875 34.8125 35.109375 34.8125 
z
M 25.09375 64.796875 
L 20.796875 42.828125 
L 35.5 42.828125 
Q 43.359375 42.828125 47.78125 46.234375 
Q 52.203125 49.65625 52.203125 55.71875 
Q 52.203125 60.453125 49.21875 62.625 
Q 46.234375 64.796875 39.703125 64.796875 
z
" id="DejaVuSans-Oblique-42"/>
      <path d="M 5.90625 72.90625 
L 67.578125 72.90625 
L 66.015625 64.59375 
L 39.984375 64.59375 
L 27.484375 0 
L 17.578125 0 
L 30.078125 64.59375 
L 4.296875 64.59375 
z
" id="DejaVuSans-Oblique-54"/>
      <path d="M 12.359375 -21.046875 
L 6.0625 -21.046875 
Q 20.65625 2.390625 20.65625 25.875 
Q 20.65625 35.0625 18.5625 44.09375 
Q 16.890625 51.421875 13.921875 58.15625 
Q 12.015625 62.546875 6.0625 72.796875 
L 12.359375 72.796875 
Q 21.53125 60.546875 25.921875 48.1875 
Q 29.6875 37.546875 29.6875 25.921875 
Q 29.6875 12.75 24.625 0.4375 
Q 19.578125 -11.859375 12.359375 -21.046875 
z
" id="ArialMT-29"/>
     </defs>
     <g style="fill:#262626;" transform="translate(21.94125 101.96)rotate(-90)scale(0.11 -0.11)">
      <use transform="translate(0 0.015625)" xlink:href="#ArialMT-46"/>
      <use transform="translate(61.083984 0.015625)" xlink:href="#ArialMT-72"/>
      <use transform="translate(94.384766 0.015625)" xlink:href="#ArialMT-65"/>
      <use transform="translate(150 0.015625)" xlink:href="#ArialMT-65"/>
      <use transform="translate(205.615234 0.015625)" xlink:href="#ArialMT-20"/>
      <use transform="translate(233.398438 0.015625)" xlink:href="#ArialMT-65"/>
      <use transform="translate(289.013672 0.015625)" xlink:href="#ArialMT-6e"/>
      <use transform="translate(344.628906 0.015625)" xlink:href="#ArialMT-65"/>
      <use transform="translate(400.244141 0.015625)" xlink:href="#ArialMT-72"/>
      <use transform="translate(433.544922 0.015625)" xlink:href="#ArialMT-67"/>
      <use transform="translate(489.160156 0.015625)" xlink:href="#ArialMT-79"/>
      <use transform="translate(539.160156 0.015625)" xlink:href="#ArialMT-20"/>
      <use transform="translate(566.943359 0.015625)" xlink:href="#ArialMT-28"/>
      <use transform="translate(600.244141 0.015625)" xlink:href="#DejaVuSans-Oblique-6b"/>
      <use transform="translate(658.154297 -16.390625)scale(0.7)" xlink:href="#DejaVuSans-Oblique-42"/>
      <use transform="translate(708.911133 0.015625)" xlink:href="#DejaVuSans-Oblique-54"/>
      <use transform="translate(769.995117 0.015625)" xlink:href="#ArialMT-29"/>
     </g>
    </g>
   </g>
   <g id="patch_3">
    <path d="M 54.02 101.92 
L 54.02 13.56 
" style="fill:none;stroke:#262626;stroke-linecap:square;stroke-linejoin:miter;stroke-width:0.8;"/>
   </g>
   <g id="patch_4">
    <path d="M 54.02 101.92 
L 130.44 101.92 
" style="fill:none;stroke:#262626;stroke-linecap:square;stroke-linejoin:miter;stroke-width:0.8;"/>
   </g>
   <g id="line2d_11">
    <path clip-path="url(#p07ef348a3f)" d="M 57.493636 39.270591 
L 58.188364 39.856921 
L 58.883091 40.443251 
L 59.577818 41.029582 
L 60.272545 41.615912 
L 60.967273 42.202243 
L 61.662 42.788573 
L 62.356727 43.374904 
L 63.051455 43.961234 
L 63.746182 44.547565 
L 64.440909 45.133895 
L 65.135636 45.720226 
L 65.830364 46.306556 
L 66.525091 46.892887 
L 67.219818 47.479217 
L 67.914545 48.065547 
L 68.609273 48.651878 
L 69.304 49.238208 
L 69.998727 49.824539 
L 70.693455 50.410869 
L 71.388182 50.9972 
L 72.082909 51.58353 
L 72.777636 52.169861 
L 73.472364 52.756191 
L 74.167091 53.342522 
L 74.861818 53.928852 
L 75.556545 54.515182 
L 76.251273 55.101513 
L 76.946 55.687843 
L 77.640727 56.274174 
L 78.335455 56.860504 
L 79.030182 57.446835 
L 79.724909 58.033165 
L 80.419636 58.619496 
L 81.114364 59.205826 
L 81.809091 59.792157 
L 82.503818 60.378487 
L 83.198545 60.964818 
L 83.893273 61.551148 
L 84.588 62.137478 
L 85.282727 62.723809 
L 85.977455 63.310139 
L 86.672182 63.89647 
L 87.366909 64.4828 
L 88.061636 65.069131 
L 88.756364 65.655461 
L 89.451091 66.241792 
L 90.145818 66.828122 
L 90.840545 67.414453 
L 91.535273 68.000783 
L 92.23 68.587113 
L 92.924727 69.173444 
L 93.619455 69.759774 
L 94.314182 70.346105 
L 95.008909 70.932435 
L 95.703636 71.518766 
L 96.398364 72.105096 
L 97.093091 72.691427 
L 97.787818 73.277757 
L 98.482545 73.864088 
L 99.177273 74.450418 
L 99.872 75.036749 
L 100.566727 75.623079 
L 101.261455 76.209409 
L 101.956182 76.79574 
L 102.650909 77.38207 
L 103.345636 77.968401 
L 104.040364 78.554731 
L 104.735091 79.141062 
L 105.429818 79.727392 
L 106.124545 80.313723 
L 106.819273 80.900053 
L 107.514 81.486384 
L 108.208727 82.072714 
L 108.903455 82.659044 
L 109.598182 83.245375 
L 110.292909 83.831705 
L 110.987636 84.418036 
L 111.682364 85.004366 
L 112.377091 85.590697 
L 113.071818 86.177027 
L 113.766545 86.763358 
L 114.461273 87.349688 
L 115.156 87.936019 
L 115.850727 88.522349 
L 116.545455 89.108679 
L 117.240182 89.69501 
L 117.934909 90.28134 
L 118.629636 90.867671 
L 119.324364 91.454001 
L 120.019091 92.040332 
L 120.713818 92.626662 
L 121.408545 93.212993 
L 122.103273 93.799323 
L 122.798 94.385654 
L 123.492727 94.971984 
L 124.187455 95.558315 
L 124.882182 96.144645 
L 125.576909 96.730975 
L 126.271636 97.317306 
L 126.966364 97.903636 
" style="fill:none;stroke:#f4a582;stroke-linecap:round;stroke-width:1.5;"/>
   </g>
   <g id="line2d_12">
    <path clip-path="url(#p07ef348a3f)" d="M 57.493636 76.209409 
L 58.188364 75.623079 
L 58.883091 75.036749 
L 59.577818 74.450418 
L 60.272545 73.864088 
L 60.967273 73.277757 
L 61.662 72.691427 
L 62.356727 72.105096 
L 63.051455 71.518766 
L 63.746182 70.932435 
L 64.440909 70.346105 
L 65.135636 69.759774 
L 65.830364 69.173444 
L 66.525091 68.587113 
L 67.219818 68.000783 
L 67.914545 67.414453 
L 68.609273 66.828122 
L 69.304 66.241792 
L 69.998727 65.655461 
L 70.693455 65.069131 
L 71.388182 64.4828 
L 72.082909 63.89647 
L 72.777636 63.310139 
L 73.472364 62.723809 
L 74.167091 62.137478 
L 74.861818 61.551148 
L 75.556545 60.964818 
L 76.251273 60.378487 
L 76.946 59.792157 
L 77.640727 59.205826 
L 78.335455 58.619496 
L 79.030182 58.033165 
L 79.724909 57.446835 
L 80.419636 56.860504 
L 81.114364 56.274174 
L 81.809091 55.687843 
L 82.503818 55.101513 
L 83.198545 54.515182 
L 83.893273 53.928852 
L 84.588 53.342522 
L 85.282727 52.756191 
L 85.977455 52.169861 
L 86.672182 51.58353 
L 87.366909 50.9972 
L 88.061636 50.410869 
L 88.756364 49.824539 
L 89.451091 49.238208 
L 90.145818 48.651878 
L 90.840545 48.065547 
L 91.535273 47.479217 
L 92.23 46.892887 
L 92.924727 46.306556 
L 93.619455 45.720226 
L 94.314182 45.133895 
L 95.008909 44.547565 
L 95.703636 43.961234 
L 96.398364 43.374904 
L 97.093091 42.788573 
L 97.787818 42.202243 
L 98.482545 41.615912 
L 99.177273 41.029582 
L 99.872 40.443251 
L 100.566727 39.856921 
L 101.261455 39.270591 
L 101.956182 38.68426 
L 102.650909 38.09793 
L 103.345636 37.511599 
L 104.040364 36.925269 
L 104.735091 36.338938 
L 105.429818 35.752608 
L 106.124545 35.166277 
L 106.819273 34.579947 
L 107.514 33.993616 
L 108.208727 33.407286 
L 108.903455 32.820956 
L 109.598182 32.234625 
L 110.292909 31.648295 
L 110.987636 31.061964 
L 111.682364 30.475634 
L 112.377091 29.889303 
L 113.071818 29.302973 
L 113.766545 28.716642 
L 114.461273 28.130312 
L 115.156 27.543981 
L 115.850727 26.957651 
L 116.545455 26.371321 
L 117.240182 25.78499 
L 117.934909 25.19866 
L 118.629636 24.612329 
L 119.324364 24.025999 
L 120.019091 23.439668 
L 120.713818 22.853338 
L 121.408545 22.267007 
L 122.103273 21.680677 
L 122.798 21.094346 
L 123.492727 20.508016 
L 124.187455 19.921685 
L 124.882182 19.335355 
L 125.576909 18.749025 
L 126.271636 18.162694 
L 126.966364 17.576364 
" style="fill:none;stroke:#92c5de;stroke-linecap:round;stroke-width:1.5;"/>
   </g>
   <g id="line2d_13">
    <path clip-path="url(#p07ef348a3f)" d="M 57.493636 67.35582 
L 58.188364 67.35582 
L 58.883091 67.35582 
L 59.577818 67.35582 
L 60.272545 67.35582 
L 60.967273 67.35582 
L 61.662 67.35582 
L 62.356727 67.35582 
L 63.051455 67.35582 
L 63.746182 67.35582 
L 64.440909 67.35582 
L 65.135636 67.35582 
L 65.830364 67.35582 
L 66.525091 67.35582 
L 67.219818 67.35582 
L 67.914545 67.35582 
L 68.609273 67.35582 
L 69.304 67.35582 
L 69.998727 67.35582 
L 70.693455 67.35582 
L 71.388182 67.35582 
L 72.082909 67.35582 
L 72.777636 67.35582 
L 73.472364 67.35582 
L 74.167091 67.35582 
L 74.861818 67.35582 
L 75.556545 67.35582 
L 76.251273 67.35582 
L 76.946 67.35582 
L 77.640727 67.35582 
L 78.335455 67.35582 
L 79.030182 67.35582 
L 79.724909 67.35582 
L 80.419636 67.35582 
L 81.114364 67.35582 
L 81.809091 67.35582 
L 82.503818 67.35582 
L 83.198545 67.35582 
L 83.893273 67.35582 
L 84.588 67.35582 
L 85.282727 67.35582 
L 85.977455 67.35582 
L 86.672182 67.35582 
L 87.366909 67.35582 
L 88.061636 67.35582 
L 88.756364 67.35582 
L 89.451091 67.35582 
L 90.145818 67.35582 
L 90.840545 67.35582 
L 91.535273 67.35582 
L 92.23 67.35582 
L 92.924727 67.35582 
L 93.619455 67.35582 
L 94.314182 67.35582 
L 95.008909 67.35582 
L 95.703636 67.35582 
L 96.398364 67.35582 
L 97.093091 67.35582 
L 97.787818 67.35582 
L 98.482545 67.35582 
L 99.177273 67.35582 
L 99.872 67.35582 
L 100.566727 67.35582 
L 101.261455 67.35582 
L 101.956182 67.35582 
L 102.650909 67.35582 
L 103.345636 67.35582 
L 104.040364 67.35582 
L 104.735091 67.35582 
L 105.429818 67.35582 
L 106.124545 67.35582 
L 106.819273 67.35582 
L 107.514 67.35582 
L 108.208727 67.35582 
L 108.903455 67.35582 
L 109.598182 67.35582 
L 110.292909 67.35582 
L 110.987636 67.35582 
L 111.682364 67.35582 
L 112.377091 67.35582 
L 113.071818 67.35582 
L 113.766545 67.35582 
L 114.461273 67.35582 
L 115.156 67.35582 
L 115.850727 67.35582 
L 116.545455 67.35582 
L 117.240182 67.35582 
L 117.934909 67.35582 
L 118.629636 67.35582 
L 119.324364 67.35582 
L 120.019091 67.35582 
L 120.713818 67.35582 
L 121.408545 67.35582 
L 122.103273 67.35582 
L 122.798 67.35582 
L 123.492727 67.35582 
L 124.187455 67.35582 
L 124.882182 67.35582 
L 125.576909 67.35582 
L 126.271636 67.35582 
L 126.966364 67.35582 
" style="fill:none;stroke:#333333;stroke-linecap:round;stroke-width:1.5;"/>
   </g>
   <g id="line2d_14">
    <path clip-path="url(#p07ef348a3f)" d="M 57.493636 48.417346 
L 58.188364 48.417346 
L 58.883091 48.417346 
L 59.577818 48.417346 
L 60.272545 48.417346 
L 60.967273 48.417346 
L 61.662 48.417346 
L 62.356727 48.417346 
L 63.051455 48.417346 
L 63.746182 48.417346 
L 64.440909 48.417346 
L 65.135636 48.417346 
L 65.830364 48.417346 
L 66.525091 48.417346 
L 67.219818 48.417346 
L 67.914545 48.417346 
L 68.609273 48.417346 
L 69.304 48.417346 
L 69.998727 48.417346 
L 70.693455 48.417346 
L 71.388182 48.417346 
L 72.082909 48.417346 
L 72.777636 48.417346 
L 73.472364 48.417346 
L 74.167091 48.417346 
L 74.861818 48.417346 
L 75.556545 48.417346 
L 76.251273 48.417346 
L 76.946 48.417346 
L 77.640727 48.417346 
L 78.335455 48.417346 
L 79.030182 48.417346 
L 79.724909 48.417346 
L 80.419636 48.417346 
L 81.114364 48.417346 
L 81.809091 48.417346 
L 82.503818 48.417346 
L 83.198545 48.417346 
L 83.893273 48.417346 
L 84.588 48.417346 
L 85.282727 48.417346 
L 85.977455 48.417346 
L 86.672182 48.417346 
L 87.366909 48.417346 
L 88.061636 48.417346 
L 88.756364 48.417346 
L 89.451091 48.417346 
L 90.145818 48.417346 
L 90.840545 48.417346 
L 91.535273 48.417346 
L 92.23 48.417346 
L 92.924727 48.417346 
L 93.619455 48.417346 
L 94.314182 48.417346 
L 95.008909 48.417346 
L 95.703636 48.417346 
L 96.398364 48.417346 
L 97.093091 48.417346 
L 97.787818 48.417346 
L 98.482545 48.417346 
L 99.177273 48.417346 
L 99.872 48.417346 
L 100.566727 48.417346 
L 101.261455 48.417346 
L 101.956182 48.417346 
L 102.650909 48.417346 
L 103.345636 48.417346 
L 104.040364 48.417346 
L 104.735091 48.417346 
L 105.429818 48.417346 
L 106.124545 48.417346 
L 106.819273 48.417346 
L 107.514 48.417346 
L 108.208727 48.417346 
L 108.903455 48.417346 
L 109.598182 48.417346 
L 110.292909 48.417346 
L 110.987636 48.417346 
L 111.682364 48.417346 
L 112.377091 48.417346 
L 113.071818 48.417346 
L 113.766545 48.417346 
L 114.461273 48.417346 
L 115.156 48.417346 
L 115.850727 48.417346 
L 116.545455 48.417346 
L 117.240182 48.417346 
L 117.934909 48.417346 
L 118.629636 48.417346 
L 119.324364 48.417346 
L 120.019091 48.417346 
L 120.713818 48.417346 
L 121.408545 48.417346 
L 122.103273 48.417346 
L 122.798 48.417346 
L 123.492727 48.417346 
L 124.187455 48.417346 
L 124.882182 48.417346 
L 125.576909 48.417346 
L 126.271636 48.417346 
L 126.966364 48.417346 
" style="fill:none;stroke:#333333;stroke-linecap:round;stroke-width:1.5;"/>
   </g>
  </g>
 </g>
 <defs>
  <clipPath id="p07ef348a3f">
   <rect height="88.36" width="76.42" x="54.02" y="13.56"/>
  </clipPath>
 </defs>
</svg>
