<?xml version="1.0" encoding="utf-8" standalone="no"?>
<!DOCTYPE svg PUBLIC "-//W3C//DTD SVG 1.1//EN"
  "http://www.w3.org/Graphics/SVG/1.1/DTD/svg11.dtd">
<!-- Created with matplotlib (http://matplotlib.org/) -->
<svg height="144pt" version="1.1" viewBox="0 0 144 144" width="144pt" xmlns="http://www.w3.org/2000/svg" xmlns:xlink="http://www.w3.org/1999/xlink">
 <defs>
  <style type="text/css">
*{stroke-linecap:butt;stroke-linejoin:round;}
  </style>
 </defs>
 <g id="figure_1">
  <g id="patch_1">
   <path d="M 0 144 
L 144 144 
L 144 0 
L 0 0 
z
" style="fill:#ffffff;"/>
  </g>
  <g id="axes_1">
   <g id="patch_2">
    <path d="M 41.96 101.92 
L 130.44 101.92 
L 130.44 27.48 
L 41.96 27.48 
z
" style="fill:#ffffff;"/>
   </g>
   <g id="matplotlib.axis_1">
    <g id="xtick_1">
     <g id="line2d_1">
      <defs>
       <path d="M 0 0 
L 0 3.5 
" id="mbce5599676" style="stroke:#262626;stroke-width:0.8;"/>
      </defs>
      <g>
       <use style="fill:#262626;stroke:#262626;stroke-width:0.8;" x="45.981818" xlink:href="#mbce5599676" y="101.92"/>
      </g>
     </g>
     <g id="text_1">
      <!-- 2 -->
      <defs>
       <path d="M 50.34375 8.453125 
L 50.34375 0 
L 3.03125 0 
Q 2.9375 3.171875 4.046875 6.109375 
Q 5.859375 10.9375 9.828125 15.625 
Q 13.8125 20.3125 21.34375 26.46875 
Q 33.015625 36.03125 37.109375 41.625 
Q 41.21875 47.21875 41.21875 52.203125 
Q 41.21875 57.421875 37.46875 61 
Q 33.734375 64.59375 27.734375 64.59375 
Q 21.390625 64.59375 17.578125 60.78125 
Q 13.765625 56.984375 13.71875 50.25 
L 4.6875 51.171875 
Q 5.609375 61.28125 11.65625 66.578125 
Q 17.71875 71.875 27.9375 71.875 
Q 38.234375 71.875 44.234375 66.15625 
Q 50.25 60.453125 50.25 52 
Q 50.25 47.703125 48.484375 43.546875 
Q 46.734375 39.40625 42.65625 34.8125 
Q 38.578125 30.21875 29.109375 22.21875 
Q 21.1875 15.578125 18.9375 13.203125 
Q 16.703125 10.84375 15.234375 8.453125 
z
" id="ArialMT-32"/>
      </defs>
      <g style="fill:#262626;" transform="translate(42.923303 116.793594)scale(0.11 -0.11)">
       <use xlink:href="#ArialMT-32"/>
      </g>
     </g>
    </g>
    <g id="xtick_2">
     <g id="line2d_2">
      <g>
       <use style="fill:#262626;stroke:#262626;stroke-width:0.8;" x="62.069091" xlink:href="#mbce5599676" y="101.92"/>
      </g>
     </g>
     <g id="text_2">
      <!-- 4 -->
      <defs>
       <path d="M 32.328125 0 
L 32.328125 17.140625 
L 1.265625 17.140625 
L 1.265625 25.203125 
L 33.9375 71.578125 
L 41.109375 71.578125 
L 41.109375 25.203125 
L 50.78125 25.203125 
L 50.78125 17.140625 
L 41.109375 17.140625 
L 41.109375 0 
z
M 32.328125 25.203125 
L 32.328125 57.46875 
L 9.90625 25.203125 
z
" id="ArialMT-34"/>
      </defs>
      <g style="fill:#262626;" transform="translate(59.010575 116.793594)scale(0.11 -0.11)">
       <use xlink:href="#ArialMT-34"/>
      </g>
     </g>
    </g>
    <g id="xtick_3">
     <g id="line2d_3">
      <g>
       <use style="fill:#262626;stroke:#262626;stroke-width:0.8;" x="78.156364" xlink:href="#mbce5599676" y="101.92"/>
      </g>
     </g>
     <g id="text_3">
      <!-- 6 -->
      <defs>
       <path d="M 49.75 54.046875 
L 41.015625 53.375 
Q 39.84375 58.546875 37.703125 60.890625 
Q 34.125 64.65625 28.90625 64.65625 
Q 24.703125 64.65625 21.53125 62.3125 
Q 17.390625 59.28125 14.984375 53.46875 
Q 12.59375 47.65625 12.5 36.921875 
Q 15.671875 41.75 20.265625 44.09375 
Q 24.859375 46.4375 29.890625 46.4375 
Q 38.671875 46.4375 44.84375 39.96875 
Q 51.03125 33.5 51.03125 23.25 
Q 51.03125 16.5 48.125 10.71875 
Q 45.21875 4.9375 40.140625 1.859375 
Q 35.0625 -1.21875 28.609375 -1.21875 
Q 17.625 -1.21875 10.6875 6.859375 
Q 3.765625 14.9375 3.765625 33.5 
Q 3.765625 54.25 11.421875 63.671875 
Q 18.109375 71.875 29.4375 71.875 
Q 37.890625 71.875 43.28125 67.140625 
Q 48.6875 62.40625 49.75 54.046875 
z
M 13.875 23.1875 
Q 13.875 18.65625 15.796875 14.5 
Q 17.71875 10.359375 21.1875 8.171875 
Q 24.65625 6 28.46875 6 
Q 34.03125 6 38.03125 10.484375 
Q 42.046875 14.984375 42.046875 22.703125 
Q 42.046875 30.125 38.078125 34.390625 
Q 34.125 38.671875 28.125 38.671875 
Q 22.171875 38.671875 18.015625 34.390625 
Q 13.875 30.125 13.875 23.1875 
z
" id="ArialMT-36"/>
      </defs>
      <g style="fill:#262626;" transform="translate(75.097848 116.793594)scale(0.11 -0.11)">
       <use xlink:href="#ArialMT-36"/>
      </g>
     </g>
    </g>
    <g id="xtick_4">
     <g id="line2d_4">
      <g>
       <use style="fill:#262626;stroke:#262626;stroke-width:0.8;" x="94.243636" xlink:href="#mbce5599676" y="101.92"/>
      </g>
     </g>
     <g id="text_4">
      <!-- 8 -->
      <defs>
       <path d="M 17.671875 38.8125 
Q 12.203125 40.828125 9.5625 44.53125 
Q 6.9375 48.25 6.9375 53.421875 
Q 6.9375 61.234375 12.546875 66.546875 
Q 18.171875 71.875 27.484375 71.875 
Q 36.859375 71.875 42.578125 66.421875 
Q 48.296875 60.984375 48.296875 53.171875 
Q 48.296875 48.1875 45.671875 44.5 
Q 43.0625 40.828125 37.75 38.8125 
Q 44.34375 36.671875 47.78125 31.875 
Q 51.21875 27.09375 51.21875 20.453125 
Q 51.21875 11.28125 44.71875 5.03125 
Q 38.234375 -1.21875 27.640625 -1.21875 
Q 17.046875 -1.21875 10.546875 5.046875 
Q 4.046875 11.328125 4.046875 20.703125 
Q 4.046875 27.6875 7.59375 32.390625 
Q 11.140625 37.109375 17.671875 38.8125 
z
M 15.921875 53.71875 
Q 15.921875 48.640625 19.1875 45.40625 
Q 22.46875 42.1875 27.6875 42.1875 
Q 32.765625 42.1875 36.015625 45.375 
Q 39.265625 48.578125 39.265625 53.21875 
Q 39.265625 58.0625 35.90625 61.359375 
Q 32.5625 64.65625 27.59375 64.65625 
Q 22.5625 64.65625 19.234375 61.421875 
Q 15.921875 58.203125 15.921875 53.71875 
z
M 13.09375 20.65625 
Q 13.09375 16.890625 14.875 13.375 
Q 16.65625 9.859375 20.171875 7.921875 
Q 23.6875 6 27.734375 6 
Q 34.03125 6 38.125 10.046875 
Q 42.234375 14.109375 42.234375 20.359375 
Q 42.234375 26.703125 38.015625 30.859375 
Q 33.796875 35.015625 27.4375 35.015625 
Q 21.234375 35.015625 17.15625 30.90625 
Q 13.09375 26.8125 13.09375 20.65625 
z
" id="ArialMT-38"/>
      </defs>
      <g style="fill:#262626;" transform="translate(91.185121 116.793594)scale(0.11 -0.11)">
       <use xlink:href="#ArialMT-38"/>
      </g>
     </g>
    </g>
    <g id="xtick_5">
     <g id="line2d_5">
      <g>
       <use style="fill:#262626;stroke:#262626;stroke-width:0.8;" x="110.330909" xlink:href="#mbce5599676" y="101.92"/>
      </g>
     </g>
     <g id="text_5">
      <!-- 10 -->
      <defs>
       <path d="M 37.25 0 
L 28.46875 0 
L 28.46875 56 
Q 25.296875 52.984375 20.140625 49.953125 
Q 14.984375 46.921875 10.890625 45.40625 
L 10.890625 53.90625 
Q 18.265625 57.375 23.78125 62.296875 
Q 29.296875 67.234375 31.59375 71.875 
L 37.25 71.875 
z
" id="ArialMT-31"/>
       <path d="M 4.15625 35.296875 
Q 4.15625 48 6.765625 55.734375 
Q 9.375 63.484375 14.515625 67.671875 
Q 19.671875 71.875 27.484375 71.875 
Q 33.25 71.875 37.59375 69.546875 
Q 41.9375 67.234375 44.765625 62.859375 
Q 47.609375 58.5 49.21875 52.21875 
Q 50.828125 45.953125 50.828125 35.296875 
Q 50.828125 22.703125 48.234375 14.96875 
Q 45.65625 7.234375 40.5 3 
Q 35.359375 -1.21875 27.484375 -1.21875 
Q 17.140625 -1.21875 11.234375 6.203125 
Q 4.15625 15.140625 4.15625 35.296875 
z
M 13.1875 35.296875 
Q 13.1875 17.671875 17.3125 11.828125 
Q 21.4375 6 27.484375 6 
Q 33.546875 6 37.671875 11.859375 
Q 41.796875 17.71875 41.796875 35.296875 
Q 41.796875 52.984375 37.671875 58.78125 
Q 33.546875 64.59375 27.390625 64.59375 
Q 21.34375 64.59375 17.71875 59.46875 
Q 13.1875 52.9375 13.1875 35.296875 
z
" id="ArialMT-30"/>
      </defs>
      <g style="fill:#262626;" transform="translate(104.213878 116.793594)scale(0.11 -0.11)">
       <use xlink:href="#ArialMT-31"/>
       <use x="55.615234" xlink:href="#ArialMT-30"/>
      </g>
     </g>
    </g>
    <g id="xtick_6">
     <g id="line2d_6">
      <g>
       <use style="fill:#262626;stroke:#262626;stroke-width:0.8;" x="126.418182" xlink:href="#mbce5599676" y="101.92"/>
      </g>
     </g>
     <g id="text_6">
      <!-- 12 -->
      <g style="fill:#262626;" transform="translate(120.301151 116.793594)scale(0.11 -0.11)">
       <use xlink:href="#ArialMT-31"/>
       <use x="55.615234" xlink:href="#ArialMT-32"/>
      </g>
     </g>
    </g>
    <g id="text_7">
     <!-- pH -->
     <defs>
      <path d="M 6.59375 -19.875 
L 6.59375 51.859375 
L 14.59375 51.859375 
L 14.59375 45.125 
Q 17.4375 49.078125 21 51.046875 
Q 24.5625 53.03125 29.640625 53.03125 
Q 36.28125 53.03125 41.359375 49.609375 
Q 46.4375 46.1875 49.015625 39.953125 
Q 51.609375 33.734375 51.609375 26.3125 
Q 51.609375 18.359375 48.75 11.984375 
Q 45.90625 5.609375 40.453125 2.21875 
Q 35.015625 -1.171875 29 -1.171875 
Q 24.609375 -1.171875 21.109375 0.6875 
Q 17.625 2.546875 15.375 5.375 
L 15.375 -19.875 
z
M 14.546875 25.640625 
Q 14.546875 15.625 18.59375 10.84375 
Q 22.65625 6.0625 28.421875 6.0625 
Q 34.28125 6.0625 38.453125 11.015625 
Q 42.625 15.96875 42.625 26.375 
Q 42.625 36.28125 38.546875 41.203125 
Q 34.46875 46.140625 28.8125 46.140625 
Q 23.1875 46.140625 18.859375 40.890625 
Q 14.546875 35.640625 14.546875 25.640625 
z
" id="ArialMT-70"/>
      <path d="M 8.015625 0 
L 8.015625 71.578125 
L 17.484375 71.578125 
L 17.484375 42.1875 
L 54.6875 42.1875 
L 54.6875 71.578125 
L 64.15625 71.578125 
L 64.15625 0 
L 54.6875 0 
L 54.6875 33.734375 
L 17.484375 33.734375 
L 17.484375 0 
z
" id="ArialMT-48"/>
     </defs>
     <g style="fill:#262626;" transform="translate(79.169453 130.853437)scale(0.11 -0.11)">
      <use xlink:href="#ArialMT-70"/>
      <use x="55.615234" xlink:href="#ArialMT-48"/>
     </g>
    </g>
   </g>
   <g id="matplotlib.axis_2">
    <g id="ytick_1">
     <g id="line2d_7">
      <defs>
       <path d="M 0 0 
L -3.5 0 
" id="m45f110c25b" style="stroke:#262626;stroke-width:0.8;"/>
      </defs>
      <g>
       <use style="fill:#262626;stroke:#262626;stroke-width:0.8;" x="41.96" xlink:href="#m45f110c25b" y="97.083973"/>
      </g>
     </g>
     <g id="text_8">
      <!-- 0 -->
      <g style="fill:#262626;" transform="translate(28.842969 101.02077)scale(0.11 -0.11)">
       <use xlink:href="#ArialMT-30"/>
      </g>
     </g>
    </g>
    <g id="ytick_2">
     <g id="line2d_8">
      <g>
       <use style="fill:#262626;stroke:#262626;stroke-width:0.8;" x="41.96" xlink:href="#m45f110c25b" y="63.929092"/>
      </g>
     </g>
     <g id="text_9">
      <!-- 1 -->
      <g style="fill:#262626;" transform="translate(28.842969 67.865889)scale(0.11 -0.11)">
       <use xlink:href="#ArialMT-31"/>
      </g>
     </g>
    </g>
    <g id="ytick_3">
     <g id="line2d_9">
      <g>
       <use style="fill:#262626;stroke:#262626;stroke-width:0.8;" x="41.96" xlink:href="#m45f110c25b" y="30.77421"/>
      </g>
     </g>
     <g id="text_10">
      <!-- 2 -->
      <g style="fill:#262626;" transform="translate(28.842969 34.711007)scale(0.11 -0.11)">
       <use xlink:href="#ArialMT-32"/>
      </g>
     </g>
    </g>
    <g id="text_11">
     <!-- $\langle q_\mathsf{total} \rangle$ -->
     <defs>
      <path d="M 8.9375 31.34375 
L 22.703125 75.875 
L 31 75.875 
L 17.234375 31.34375 
L 31 -13.1875 
L 22.703125 -13.1875 
z
" id="DejaVuSans-27e8"/>
      <path d="M 41.703125 8.203125 
Q 38.09375 3.46875 33.171875 1.015625 
Q 28.265625 -1.421875 22.3125 -1.421875 
Q 14.015625 -1.421875 9.296875 4.171875 
Q 4.59375 9.765625 4.59375 19.578125 
Q 4.59375 27.484375 7.5 34.859375 
Q 10.40625 42.234375 15.828125 48.09375 
Q 19.34375 51.90625 23.90625 53.953125 
Q 28.46875 56 33.5 56 
Q 39.546875 56 43.453125 53.609375 
Q 47.359375 51.21875 49.125 46.390625 
L 50.6875 54.59375 
L 59.71875 54.59375 
L 45.125 -20.609375 
L 36.078125 -20.609375 
z
M 13.921875 20.90625 
Q 13.921875 13.671875 16.9375 9.890625 
Q 19.96875 6.109375 25.6875 6.109375 
Q 34.1875 6.109375 40.1875 14.234375 
Q 46.1875 22.359375 46.1875 33.984375 
Q 46.1875 41.015625 43.078125 44.75 
Q 39.984375 48.484375 34.1875 48.484375 
Q 29.9375 48.484375 26.3125 46.5 
Q 22.703125 44.53125 20.015625 40.71875 
Q 17.1875 36.71875 15.546875 31.34375 
Q 13.921875 25.984375 13.921875 20.90625 
z
" id="DejaVuSans-Oblique-71"/>
      <path d="M 18.3125 70.21875 
L 18.3125 54.6875 
L 36.8125 54.6875 
L 36.8125 47.703125 
L 18.3125 47.703125 
L 18.3125 18.015625 
Q 18.3125 11.328125 20.140625 9.421875 
Q 21.96875 7.515625 27.59375 7.515625 
L 36.8125 7.515625 
L 36.8125 0 
L 27.59375 0 
Q 17.1875 0 13.234375 3.875 
Q 9.28125 7.765625 9.28125 18.015625 
L 9.28125 47.703125 
L 2.6875 47.703125 
L 2.6875 54.6875 
L 9.28125 54.6875 
L 9.28125 70.21875 
z
" id="DejaVuSans-74"/>
      <path d="M 30.609375 48.390625 
Q 23.390625 48.390625 19.1875 42.75 
Q 14.984375 37.109375 14.984375 27.296875 
Q 14.984375 17.484375 19.15625 11.84375 
Q 23.34375 6.203125 30.609375 6.203125 
Q 37.796875 6.203125 41.984375 11.859375 
Q 46.1875 17.53125 46.1875 27.296875 
Q 46.1875 37.015625 41.984375 42.703125 
Q 37.796875 48.390625 30.609375 48.390625 
z
M 30.609375 56 
Q 42.328125 56 49.015625 48.375 
Q 55.71875 40.765625 55.71875 27.296875 
Q 55.71875 13.875 49.015625 6.21875 
Q 42.328125 -1.421875 30.609375 -1.421875 
Q 18.84375 -1.421875 12.171875 6.21875 
Q 5.515625 13.875 5.515625 27.296875 
Q 5.515625 40.765625 12.171875 48.375 
Q 18.84375 56 30.609375 56 
z
" id="DejaVuSans-6f"/>
      <path d="M 34.28125 27.484375 
Q 23.390625 27.484375 19.1875 25 
Q 14.984375 22.515625 14.984375 16.5 
Q 14.984375 11.71875 18.140625 8.90625 
Q 21.296875 6.109375 26.703125 6.109375 
Q 34.1875 6.109375 38.703125 11.40625 
Q 43.21875 16.703125 43.21875 25.484375 
L 43.21875 27.484375 
z
M 52.203125 31.203125 
L 52.203125 0 
L 43.21875 0 
L 43.21875 8.296875 
Q 40.140625 3.328125 35.546875 0.953125 
Q 30.953125 -1.421875 24.3125 -1.421875 
Q 15.921875 -1.421875 10.953125 3.296875 
Q 6 8.015625 6 15.921875 
Q 6 25.140625 12.171875 29.828125 
Q 18.359375 34.515625 30.609375 34.515625 
L 43.21875 34.515625 
L 43.21875 35.40625 
Q 43.21875 41.609375 39.140625 45 
Q 35.0625 48.390625 27.6875 48.390625 
Q 23 48.390625 18.546875 47.265625 
Q 14.109375 46.140625 10.015625 43.890625 
L 10.015625 52.203125 
Q 14.9375 54.109375 19.578125 55.046875 
Q 24.21875 56 28.609375 56 
Q 40.484375 56 46.34375 49.84375 
Q 52.203125 43.703125 52.203125 31.203125 
z
" id="DejaVuSans-61"/>
      <path d="M 9.421875 75.984375 
L 18.40625 75.984375 
L 18.40625 0 
L 9.421875 0 
z
" id="DejaVuSans-6c"/>
      <path d="M 30.078125 31.34375 
L 16.3125 -13.1875 
L 8.015625 -13.1875 
L 21.78125 31.34375 
L 8.015625 75.875 
L 16.3125 75.875 
z
" id="DejaVuSans-27e9"/>
     </defs>
     <g style="fill:#262626;" transform="translate(22.532969 81.475)rotate(-90)scale(0.11 -0.11)">
      <use transform="translate(0 0.125)" xlink:href="#DejaVuSans-27e8"/>
      <use transform="translate(39.013672 0.125)" xlink:href="#DejaVuSans-Oblique-71"/>
      <use transform="translate(102.490234 -16.28125)scale(0.7)" xlink:href="#DejaVuSans-74"/>
      <use transform="translate(129.936523 -16.28125)scale(0.7)" xlink:href="#DejaVuSans-6f"/>
      <use transform="translate(172.763672 -16.28125)scale(0.7)" xlink:href="#DejaVuSans-74"/>
      <use transform="translate(200.209961 -16.28125)scale(0.7)" xlink:href="#DejaVuSans-61"/>
      <use transform="translate(243.105469 -16.28125)scale(0.7)" xlink:href="#DejaVuSans-6c"/>
      <use transform="translate(265.288086 0.125)" xlink:href="#DejaVuSans-27e9"/>
     </g>
    </g>
   </g>
   <g id="PolyCollection_1">
    <defs>
     <path d="M 45.981818 -80.059149 
L 45.981818 -80.059149 
L 46.786182 -80.056105 
L 47.590545 -80.052274 
L 48.394909 -80.047453 
L 49.199273 -80.041385 
L 50.003636 -80.03375 
L 50.808 -80.024142 
L 51.612364 -80.012054 
L 52.416727 -79.99685 
L 53.221091 -79.977728 
L 54.025455 -79.953686 
L 54.829818 -79.923469 
L 55.634182 -79.885507 
L 56.438545 -79.83784 
L 57.242909 -79.778025 
L 58.047273 -79.703032 
L 58.851636 -79.609106 
L 59.656 -79.491623 
L 60.460364 -79.344916 
L 61.264727 -79.162091 
L 62.069091 -78.934838 
L 62.873455 -78.653258 
L 63.677818 -78.305735 
L 64.482182 -77.878904 
L 65.286545 -77.357784 
L 66.090909 -76.726157 
L 66.895273 -75.967306 
L 67.699636 -75.065199 
L 68.504 -74.006179 
L 69.308364 -72.781131 
L 70.112727 -71.387944 
L 70.917091 -69.833879 
L 71.721455 -68.137306 
L 72.525818 -66.328166 
L 73.330182 -64.446689 
L 74.134545 -62.540246 
L 74.938909 -60.658769 
L 75.743273 -58.849629 
L 76.547636 -57.153056 
L 77.352 -55.598991 
L 78.156364 -54.205804 
L 78.960727 -52.980756 
L 79.765091 -51.921736 
L 80.569455 -51.019629 
L 81.373818 -50.260778 
L 82.178182 -49.629151 
L 82.982545 -49.108031 
L 83.786909 -48.6812 
L 84.591273 -48.333677 
L 85.395636 -48.052097 
L 86.2 -47.824844 
L 87.004364 -47.642019 
L 87.808727 -47.495312 
L 88.613091 -47.377829 
L 89.417455 -47.283903 
L 90.221818 -47.20891 
L 91.026182 -47.149095 
L 91.830545 -47.101428 
L 92.634909 -47.063466 
L 93.439273 -47.033249 
L 94.243636 -47.009207 
L 95.048 -46.990085 
L 95.852364 -46.974881 
L 96.656727 -46.962793 
L 97.461091 -46.953185 
L 98.265455 -46.94555 
L 99.069818 -46.939482 
L 99.874182 -46.934661 
L 100.678545 -46.93083 
L 101.482909 -46.927786 
L 102.287273 -46.925368 
L 103.091636 -46.923448 
L 103.896 -46.921922 
L 104.700364 -46.920709 
L 105.504727 -46.919746 
L 106.309091 -46.918981 
L 107.113455 -46.918374 
L 107.917818 -46.917891 
L 108.722182 -46.917508 
L 109.526545 -46.917203 
L 110.330909 -46.916961 
L 111.135273 -46.916769 
L 111.939636 -46.916616 
L 112.744 -46.916495 
L 113.548364 -46.916399 
L 114.352727 -46.916322 
L 115.157091 -46.916261 
L 115.961455 -46.916213 
L 116.765818 -46.916175 
L 117.570182 -46.916144 
L 118.374545 -46.91612 
L 119.178909 -46.916101 
L 119.983273 -46.916086 
L 120.787636 -46.916074 
L 121.592 -46.916064 
L 122.396364 -46.916056 
L 123.200727 -46.91605 
L 124.005091 -46.916045 
L 124.809455 -46.916042 
L 125.613818 -46.916039 
L 126.418182 -46.916036 
L 126.418182 -46.916036 
L 126.418182 -45.463636 
L 125.613818 -45.751878 
L 124.809455 -45.984602 
L 124.005091 -46.171893 
L 123.200727 -46.322229 
L 122.396364 -46.442649 
L 121.592 -46.538949 
L 120.787636 -46.61586 
L 119.983273 -46.677225 
L 119.178909 -46.726152 
L 118.374545 -46.765144 
L 117.570182 -46.796213 
L 116.765818 -46.820972 
L 115.961455 -46.840713 
L 115.157091 -46.856472 
L 114.352727 -46.869078 
L 113.548364 -46.879194 
L 112.744 -46.887356 
L 111.939636 -46.893996 
L 111.135273 -46.899465 
L 110.330909 -46.904054 
L 109.526545 -46.908007 
L 108.722182 -46.911533 
L 107.917818 -46.91482 
L 107.113455 -46.918043 
L 106.309091 -46.921373 
L 105.504727 -46.924988 
L 104.700364 -46.929079 
L 103.896 -46.933864 
L 103.091636 -46.939597 
L 102.287273 -46.946582 
L 101.482909 -46.95519 
L 100.678545 -46.965876 
L 99.874182 -46.979206 
L 99.069818 -46.995881 
L 98.265455 -47.016779 
L 97.461091 -47.042997 
L 96.656727 -47.075903 
L 95.852364 -47.117207 
L 95.048 -47.169042 
L 94.243636 -47.234062 
L 93.439273 -47.315563 
L 92.634909 -47.417624 
L 91.830545 -47.545271 
L 91.026182 -47.704658 
L 90.221818 -47.903278 
L 89.417455 -48.150156 
L 88.613091 -48.456054 
L 87.808727 -48.8336 
L 87.004364 -49.297339 
L 86.2 -49.863606 
L 85.395636 -50.550136 
L 84.591273 -51.375323 
L 83.786909 -52.357027 
L 82.982545 -53.510882 
L 82.178182 -54.848177 
L 81.373818 -56.373516 
L 80.569455 -58.082672 
L 79.765091 -59.961221 
L 78.960727 -61.984553 
L 78.156364 -64.119699 
L 77.352 -66.328943 
L 76.547636 -68.574683 
L 75.743273 -70.824517 
L 74.938909 -73.055404 
L 74.134545 -75.255988 
L 73.330182 -77.426655 
L 72.525818 -79.577431 
L 71.721455 -81.724209 
L 70.917091 -83.884024 
L 70.112727 -86.070145 
L 69.308364 -88.287767 
L 68.504 -90.53107 
L 67.699636 -92.782231 
L 66.895273 -95.012732 
L 66.090909 -97.186761 
L 65.286545 -99.266012 
L 64.482182 -101.214786 
L 63.677818 -103.004289 
L 62.873455 -104.615306 
L 62.069091 -106.039018 
L 61.264727 -107.276201 
L 60.460364 -108.33536 
L 59.656 -109.230414 
L 58.851636 -109.978438 
L 58.047273 -110.597757 
L 57.242909 -111.106529 
L 56.438545 -111.521798 
L 55.634182 -111.858962 
L 54.829818 -112.131533 
L 54.025455 -112.351119 
L 53.221091 -112.527521 
L 52.416727 -112.66891 
L 51.612364 -112.78203 
L 50.808 -112.872401 
L 50.003636 -112.944514 
L 49.199273 -113.002004 
L 48.394909 -113.047802 
L 47.590545 -113.084265 
L 46.786182 -113.113282 
L 45.981818 -113.136364 
z
" id="m5b7664785f" style="stroke:#ffffff;stroke-opacity:0.7;"/>
    </defs>
    <g clip-path="url(#p65cb6ce401)">
     <use style="fill:#12711c;fill-opacity:0.7;stroke:#ffffff;stroke-opacity:0.7;" x="0" xlink:href="#m5b7664785f" y="144"/>
    </g>
   </g>
   <g id="line2d_10">
    <path clip-path="url(#p65cb6ce401)" d="M 45.981818 63.940851 
L 46.786182 63.943895 
L 47.590545 63.947726 
L 48.394909 63.952547 
L 49.199273 63.958615 
L 50.003636 63.96625 
L 50.808 63.975858 
L 51.612364 63.987946 
L 52.416727 64.00315 
L 53.221091 64.022272 
L 54.025455 64.046314 
L 54.829818 64.076531 
L 55.634182 64.114493 
L 56.438545 64.16216 
L 57.242909 64.221975 
L 58.047273 64.296968 
L 58.851636 64.390894 
L 59.656 64.508377 
L 60.460364 64.655084 
L 61.264727 64.837909 
L 62.069091 65.065162 
L 62.873455 65.346742 
L 63.677818 65.694265 
L 64.482182 66.121096 
L 65.286545 66.642216 
L 66.090909 67.273843 
L 66.895273 68.032694 
L 67.699636 68.934801 
L 68.504 69.993821 
L 69.308364 71.218869 
L 70.112727 72.612056 
L 70.917091 74.166121 
L 71.721455 75.862694 
L 72.525818 77.671834 
L 73.330182 79.553311 
L 74.134545 81.459754 
L 74.938909 83.341231 
L 75.743273 85.150371 
L 76.547636 86.846944 
L 77.352 88.401009 
L 78.156364 89.794196 
L 78.960727 91.019244 
L 79.765091 92.078264 
L 80.569455 92.980371 
L 81.373818 93.739222 
L 82.178182 94.370849 
L 82.982545 94.891969 
L 83.786909 95.3188 
L 84.591273 95.666323 
L 85.395636 95.947903 
L 86.2 96.175156 
L 87.004364 96.357981 
L 87.808727 96.504688 
L 88.613091 96.622171 
L 89.417455 96.716097 
L 90.221818 96.79109 
L 91.026182 96.850905 
L 91.830545 96.898572 
L 92.634909 96.936534 
L 93.439273 96.966751 
L 94.243636 96.990793 
L 95.048 97.009915 
L 95.852364 97.025119 
L 96.656727 97.037207 
L 97.461091 97.046815 
L 98.265455 97.05445 
L 99.069818 97.060518 
L 99.874182 97.065339 
L 100.678545 97.06917 
L 101.482909 97.072214 
L 102.287273 97.074632 
L 103.091636 97.076552 
L 103.896 97.078078 
L 104.700364 97.079291 
L 105.504727 97.080254 
L 106.309091 97.081019 
L 107.113455 97.081626 
L 107.917818 97.082109 
L 108.722182 97.082492 
L 109.526545 97.082797 
L 110.330909 97.083039 
L 111.135273 97.083231 
L 111.939636 97.083384 
L 112.744 97.083505 
L 113.548364 97.083601 
L 114.352727 97.083678 
L 115.157091 97.083739 
L 115.961455 97.083787 
L 116.765818 97.083825 
L 117.570182 97.083856 
L 118.374545 97.08388 
L 119.178909 97.083899 
L 119.983273 97.083914 
L 120.787636 97.083926 
L 121.592 97.083936 
L 122.396364 97.083944 
L 123.200727 97.08395 
L 124.005091 97.083955 
L 124.809455 97.083958 
L 125.613818 97.083961 
L 126.418182 97.083964 
" style="fill:none;stroke:#333333;stroke-dasharray:1.5,2.475;stroke-dashoffset:0;stroke-width:1.5;"/>
   </g>
   <g id="line2d_11">
    <path clip-path="url(#p65cb6ce401)" d="M 45.981818 30.863636 
L 46.786182 30.886718 
L 47.590545 30.915735 
L 48.394909 30.952198 
L 49.199273 30.997996 
L 50.003636 31.055486 
L 50.808 31.127599 
L 51.612364 31.21797 
L 52.416727 31.33109 
L 53.221091 31.472479 
L 54.025455 31.648881 
L 54.829818 31.868467 
L 55.634182 32.141038 
L 56.438545 32.478202 
L 57.242909 32.893471 
L 58.047273 33.402243 
L 58.851636 34.021562 
L 59.656 34.769586 
L 60.460364 35.66464 
L 61.264727 36.723799 
L 62.069091 37.960982 
L 62.873455 39.384694 
L 63.677818 40.995711 
L 64.482182 42.785214 
L 65.286545 44.733988 
L 66.090909 46.813239 
L 66.895273 48.987268 
L 67.699636 51.217769 
L 68.504 53.46893 
L 69.308364 55.712233 
L 70.112727 57.929855 
L 70.917091 60.115976 
L 71.721455 62.275791 
L 72.525818 64.422569 
L 73.330182 66.573345 
L 74.134545 68.744012 
L 74.938909 70.944596 
L 75.743273 73.175483 
L 76.547636 75.425317 
L 77.352 77.671057 
L 78.156364 79.880301 
L 78.960727 82.015447 
L 79.765091 84.038779 
L 80.569455 85.917328 
L 81.373818 87.626484 
L 82.178182 89.151823 
L 82.982545 90.489118 
L 83.786909 91.642973 
L 84.591273 92.624677 
L 85.395636 93.449864 
L 86.2 94.136394 
L 87.004364 94.702661 
L 87.808727 95.1664 
L 88.613091 95.543946 
L 89.417455 95.849844 
L 90.221818 96.096722 
L 91.026182 96.295342 
L 91.830545 96.454729 
L 92.634909 96.582376 
L 93.439273 96.684437 
L 94.243636 96.765938 
L 95.048 96.830958 
L 95.852364 96.882793 
L 96.656727 96.924097 
L 97.461091 96.957003 
L 98.265455 96.983221 
L 99.069818 97.004119 
L 99.874182 97.020794 
L 100.678545 97.034124 
L 101.482909 97.04481 
L 102.287273 97.053418 
L 103.091636 97.060403 
L 103.896 97.066136 
L 104.700364 97.070921 
L 105.504727 97.075012 
L 106.309091 97.078627 
L 107.113455 97.081957 
L 107.917818 97.08518 
L 108.722182 97.088467 
L 109.526545 97.091993 
L 110.330909 97.095946 
L 111.135273 97.100535 
L 111.939636 97.106004 
L 112.744 97.112644 
L 113.548364 97.120806 
L 114.352727 97.130922 
L 115.157091 97.143528 
L 115.961455 97.159287 
L 116.765818 97.179028 
L 117.570182 97.203787 
L 118.374545 97.234856 
L 119.178909 97.273848 
L 119.983273 97.322775 
L 120.787636 97.38414 
L 121.592 97.461051 
L 122.396364 97.557351 
L 123.200727 97.677771 
L 124.005091 97.828107 
L 124.809455 98.015398 
L 125.613818 98.248122 
L 126.418182 98.536364 
" style="fill:none;stroke:#333333;stroke-linecap:round;stroke-width:1.5;"/>
   </g>
   <g id="patch_3">
    <path d="M 41.96 101.92 
L 41.96 27.48 
" style="fill:none;stroke:#262626;stroke-linecap:square;stroke-linejoin:miter;stroke-width:0.8;"/>
   </g>
   <g id="patch_4">
    <path d="M 41.96 101.92 
L 130.44 101.92 
" style="fill:none;stroke:#262626;stroke-linecap:square;stroke-linejoin:miter;stroke-width:0.8;"/>
   </g>
   <g id="text_12">
    <!-- $\Delta$ area : 3.18 -->
    <defs>
     <path d="M 34.1875 63.1875 
L 14.15625 8.203125 
L 54.25 8.203125 
z
M 0.78125 0 
L 28.609375 72.90625 
L 39.796875 72.90625 
L 67.578125 0 
z
" id="DejaVuSans-394"/>
     <path id="ArialMT-20"/>
     <path d="M 40.4375 6.390625 
Q 35.546875 2.25 31.03125 0.53125 
Q 26.515625 -1.171875 21.34375 -1.171875 
Q 12.796875 -1.171875 8.203125 3 
Q 3.609375 7.171875 3.609375 13.671875 
Q 3.609375 17.484375 5.34375 20.625 
Q 7.078125 23.78125 9.890625 25.6875 
Q 12.703125 27.59375 16.21875 28.5625 
Q 18.796875 29.25 24.03125 29.890625 
Q 34.671875 31.15625 39.703125 32.90625 
Q 39.75 34.71875 39.75 35.203125 
Q 39.75 40.578125 37.25 42.78125 
Q 33.890625 45.75 27.25 45.75 
Q 21.046875 45.75 18.09375 43.578125 
Q 15.140625 41.40625 13.71875 35.890625 
L 5.125 37.0625 
Q 6.296875 42.578125 8.984375 45.96875 
Q 11.671875 49.359375 16.75 51.1875 
Q 21.828125 53.03125 28.515625 53.03125 
Q 35.15625 53.03125 39.296875 51.46875 
Q 43.453125 49.90625 45.40625 47.53125 
Q 47.359375 45.171875 48.140625 41.546875 
Q 48.578125 39.3125 48.578125 33.453125 
L 48.578125 21.734375 
Q 48.578125 9.46875 49.140625 6.21875 
Q 49.703125 2.984375 51.375 0 
L 42.1875 0 
Q 40.828125 2.734375 40.4375 6.390625 
z
M 39.703125 26.03125 
Q 34.90625 24.078125 25.34375 22.703125 
Q 19.921875 21.921875 17.671875 20.9375 
Q 15.4375 19.96875 14.203125 18.09375 
Q 12.984375 16.21875 12.984375 13.921875 
Q 12.984375 10.40625 15.640625 8.0625 
Q 18.3125 5.71875 23.4375 5.71875 
Q 28.515625 5.71875 32.46875 7.9375 
Q 36.421875 10.15625 38.28125 14.015625 
Q 39.703125 17 39.703125 22.796875 
z
" id="ArialMT-61"/>
     <path d="M 6.5 0 
L 6.5 51.859375 
L 14.40625 51.859375 
L 14.40625 44 
Q 17.4375 49.515625 20 51.265625 
Q 22.5625 53.03125 25.640625 53.03125 
Q 30.078125 53.03125 34.671875 50.203125 
L 31.640625 42.046875 
Q 28.421875 43.953125 25.203125 43.953125 
Q 22.3125 43.953125 20.015625 42.21875 
Q 17.71875 40.484375 16.75 37.40625 
Q 15.28125 32.71875 15.28125 27.15625 
L 15.28125 0 
z
" id="ArialMT-72"/>
     <path d="M 42.09375 16.703125 
L 51.171875 15.578125 
Q 49.03125 7.625 43.21875 3.21875 
Q 37.40625 -1.171875 28.375 -1.171875 
Q 17 -1.171875 10.328125 5.828125 
Q 3.65625 12.84375 3.65625 25.484375 
Q 3.65625 38.578125 10.390625 45.796875 
Q 17.140625 53.03125 27.875 53.03125 
Q 38.28125 53.03125 44.875 45.953125 
Q 51.46875 38.875 51.46875 26.03125 
Q 51.46875 25.25 51.421875 23.6875 
L 12.75 23.6875 
Q 13.234375 15.140625 17.578125 10.59375 
Q 21.921875 6.0625 28.421875 6.0625 
Q 33.25 6.0625 36.671875 8.59375 
Q 40.09375 11.140625 42.09375 16.703125 
z
M 13.234375 30.90625 
L 42.1875 30.90625 
Q 41.609375 37.453125 38.875 40.71875 
Q 34.671875 45.796875 27.984375 45.796875 
Q 21.921875 45.796875 17.796875 41.75 
Q 13.671875 37.703125 13.234375 30.90625 
z
" id="ArialMT-65"/>
     <path d="M 9.03125 41.84375 
L 9.03125 51.859375 
L 19.046875 51.859375 
L 19.046875 41.84375 
z
M 9.03125 0 
L 9.03125 10.015625 
L 19.046875 10.015625 
L 19.046875 0 
z
" id="ArialMT-3a"/>
     <path d="M 4.203125 18.890625 
L 12.984375 20.0625 
Q 14.5 12.59375 18.140625 9.296875 
Q 21.78125 6 27 6 
Q 33.203125 6 37.46875 10.296875 
Q 41.75 14.59375 41.75 20.953125 
Q 41.75 27 37.796875 30.921875 
Q 33.84375 34.859375 27.734375 34.859375 
Q 25.25 34.859375 21.53125 33.890625 
L 22.515625 41.609375 
Q 23.390625 41.5 23.921875 41.5 
Q 29.546875 41.5 34.03125 44.421875 
Q 38.53125 47.359375 38.53125 53.46875 
Q 38.53125 58.296875 35.25 61.46875 
Q 31.984375 64.65625 26.8125 64.65625 
Q 21.6875 64.65625 18.265625 61.421875 
Q 14.84375 58.203125 13.875 51.765625 
L 5.078125 53.328125 
Q 6.6875 62.15625 12.390625 67.015625 
Q 18.109375 71.875 26.609375 71.875 
Q 32.46875 71.875 37.390625 69.359375 
Q 42.328125 66.84375 44.9375 62.5 
Q 47.5625 58.15625 47.5625 53.265625 
Q 47.5625 48.640625 45.0625 44.828125 
Q 42.578125 41.015625 37.703125 38.765625 
Q 44.046875 37.3125 47.5625 32.6875 
Q 51.078125 28.078125 51.078125 21.140625 
Q 51.078125 11.765625 44.234375 5.25 
Q 37.40625 -1.265625 26.953125 -1.265625 
Q 17.53125 -1.265625 11.296875 4.34375 
Q 5.078125 9.96875 4.203125 18.890625 
z
" id="ArialMT-33"/>
     <path d="M 9.078125 0 
L 9.078125 10.015625 
L 19.09375 10.015625 
L 19.09375 0 
z
" id="ArialMT-2e"/>
    </defs>
    <g style="fill:#262626;" transform="translate(48.25 21.48)scale(0.132 -0.132)">
     <use transform="translate(0 0.09375)" xlink:href="#DejaVuSans-394"/>
     <use transform="translate(68.408203 0.09375)" xlink:href="#ArialMT-20"/>
     <use transform="translate(96.191406 0.09375)" xlink:href="#ArialMT-61"/>
     <use transform="translate(151.806641 0.09375)" xlink:href="#ArialMT-72"/>
     <use transform="translate(185.107422 0.09375)" xlink:href="#ArialMT-65"/>
     <use transform="translate(240.722656 0.09375)" xlink:href="#ArialMT-61"/>
     <use transform="translate(296.337891 0.09375)" xlink:href="#ArialMT-20"/>
     <use transform="translate(324.121094 0.09375)" xlink:href="#ArialMT-3a"/>
     <use transform="translate(351.904297 0.09375)" xlink:href="#ArialMT-20"/>
     <use transform="translate(379.6875 0.09375)" xlink:href="#ArialMT-33"/>
     <use transform="translate(435.302734 0.09375)" xlink:href="#ArialMT-2e"/>
     <use transform="translate(463.085938 0.09375)" xlink:href="#ArialMT-31"/>
     <use transform="translate(518.701172 0.09375)" xlink:href="#ArialMT-38"/>
    </g>
   </g>
  </g>
 </g>
 <defs>
  <clipPath id="p65cb6ce401">
   <rect height="74.44" width="88.48" x="41.96" y="27.48"/>
  </clipPath>
 </defs>
</svg>
