<?xml version="1.0" encoding="utf-8" standalone="no"?>
<!DOCTYPE svg PUBLIC "-//W3C//DTD SVG 1.1//EN"
  "http://www.w3.org/Graphics/SVG/1.1/DTD/svg11.dtd">
<!-- Created with matplotlib (http://matplotlib.org/) -->
<svg height="144pt" version="1.1" viewBox="0 0 144 144" width="144pt" xmlns="http://www.w3.org/2000/svg" xmlns:xlink="http://www.w3.org/1999/xlink">
 <defs>
  <style type="text/css">
*{stroke-linecap:butt;stroke-linejoin:round;}
  </style>
 </defs>
 <g id="figure_1">
  <g id="patch_1">
   <path d="M 0 144 
L 144 144 
L 144 0 
L 0 0 
z
" style="fill:#ffffff;"/>
  </g>
  <g id="axes_1">
   <g id="patch_2">
    <path d="M 18 126 
L 129.6 126 
L 129.6 17.28 
L 18 17.28 
z
" style="fill:#ffffff;"/>
   </g>
   <g id="matplotlib.axis_1">
    <g id="xtick_1">
     <g id="line2d_1">
      <defs>
       <path d="M 0 0 
L 0 3.5 
" id="m00bbd22143" style="stroke:#262626;stroke-width:0.8;"/>
      </defs>
      <g>
       <use style="fill:#262626;stroke:#262626;stroke-width:0.8;" x="21.511099" xlink:href="#m00bbd22143" y="126"/>
      </g>
     </g>
     <g id="text_1">
      <!-- −4 -->
      <defs>
       <path d="M 52.828125 31.203125 
L 5.5625 31.203125 
L 5.5625 39.40625 
L 52.828125 39.40625 
z
" id="ArialMT-2212"/>
       <path d="M 32.328125 0 
L 32.328125 17.140625 
L 1.265625 17.140625 
L 1.265625 25.203125 
L 33.9375 71.578125 
L 41.109375 71.578125 
L 41.109375 25.203125 
L 50.78125 25.203125 
L 50.78125 17.140625 
L 41.109375 17.140625 
L 41.109375 0 
z
M 32.328125 25.203125 
L 32.328125 57.46875 
L 9.90625 25.203125 
z
" id="ArialMT-34"/>
      </defs>
      <g style="fill:#262626;" transform="translate(15.810317 140.157813)scale(0.1 -0.1)">
       <use xlink:href="#ArialMT-2212"/>
       <use x="58.398438" xlink:href="#ArialMT-34"/>
      </g>
     </g>
    </g>
    <g id="xtick_2">
     <g id="line2d_2">
      <g>
       <use style="fill:#262626;stroke:#262626;stroke-width:0.8;" x="36.13123" xlink:href="#m00bbd22143" y="126"/>
      </g>
     </g>
     <g id="text_2">
      <!-- −3 -->
      <defs>
       <path d="M 4.203125 18.890625 
L 12.984375 20.0625 
Q 14.5 12.59375 18.140625 9.296875 
Q 21.78125 6 27 6 
Q 33.203125 6 37.46875 10.296875 
Q 41.75 14.59375 41.75 20.953125 
Q 41.75 27 37.796875 30.921875 
Q 33.84375 34.859375 27.734375 34.859375 
Q 25.25 34.859375 21.53125 33.890625 
L 22.515625 41.609375 
Q 23.390625 41.5 23.921875 41.5 
Q 29.546875 41.5 34.03125 44.421875 
Q 38.53125 47.359375 38.53125 53.46875 
Q 38.53125 58.296875 35.25 61.46875 
Q 31.984375 64.65625 26.8125 64.65625 
Q 21.6875 64.65625 18.265625 61.421875 
Q 14.84375 58.203125 13.875 51.765625 
L 5.078125 53.328125 
Q 6.6875 62.15625 12.390625 67.015625 
Q 18.109375 71.875 26.609375 71.875 
Q 32.46875 71.875 37.390625 69.359375 
Q 42.328125 66.84375 44.9375 62.5 
Q 47.5625 58.15625 47.5625 53.265625 
Q 47.5625 48.640625 45.0625 44.828125 
Q 42.578125 41.015625 37.703125 38.765625 
Q 44.046875 37.3125 47.5625 32.6875 
Q 51.078125 28.078125 51.078125 21.140625 
Q 51.078125 11.765625 44.234375 5.25 
Q 37.40625 -1.265625 26.953125 -1.265625 
Q 17.53125 -1.265625 11.296875 4.34375 
Q 5.078125 9.96875 4.203125 18.890625 
z
" id="ArialMT-33"/>
      </defs>
      <g style="fill:#262626;" transform="translate(30.430449 140.157813)scale(0.1 -0.1)">
       <use xlink:href="#ArialMT-2212"/>
       <use x="58.398438" xlink:href="#ArialMT-33"/>
      </g>
     </g>
    </g>
    <g id="xtick_3">
     <g id="line2d_3">
      <g>
       <use style="fill:#262626;stroke:#262626;stroke-width:0.8;" x="50.751362" xlink:href="#m00bbd22143" y="126"/>
      </g>
     </g>
     <g id="text_3">
      <!-- −2 -->
      <defs>
       <path d="M 50.34375 8.453125 
L 50.34375 0 
L 3.03125 0 
Q 2.9375 3.171875 4.046875 6.109375 
Q 5.859375 10.9375 9.828125 15.625 
Q 13.8125 20.3125 21.34375 26.46875 
Q 33.015625 36.03125 37.109375 41.625 
Q 41.21875 47.21875 41.21875 52.203125 
Q 41.21875 57.421875 37.46875 61 
Q 33.734375 64.59375 27.734375 64.59375 
Q 21.390625 64.59375 17.578125 60.78125 
Q 13.765625 56.984375 13.71875 50.25 
L 4.6875 51.171875 
Q 5.609375 61.28125 11.65625 66.578125 
Q 17.71875 71.875 27.9375 71.875 
Q 38.234375 71.875 44.234375 66.15625 
Q 50.25 60.453125 50.25 52 
Q 50.25 47.703125 48.484375 43.546875 
Q 46.734375 39.40625 42.65625 34.8125 
Q 38.578125 30.21875 29.109375 22.21875 
Q 21.1875 15.578125 18.9375 13.203125 
Q 16.703125 10.84375 15.234375 8.453125 
z
" id="ArialMT-32"/>
      </defs>
      <g style="fill:#262626;" transform="translate(45.050581 140.157813)scale(0.1 -0.1)">
       <use xlink:href="#ArialMT-2212"/>
       <use x="58.398438" xlink:href="#ArialMT-32"/>
      </g>
     </g>
    </g>
    <g id="xtick_4">
     <g id="line2d_4">
      <g>
       <use style="fill:#262626;stroke:#262626;stroke-width:0.8;" x="65.371494" xlink:href="#m00bbd22143" y="126"/>
      </g>
     </g>
     <g id="text_4">
      <!-- −1 -->
      <defs>
       <path d="M 37.25 0 
L 28.46875 0 
L 28.46875 56 
Q 25.296875 52.984375 20.140625 49.953125 
Q 14.984375 46.921875 10.890625 45.40625 
L 10.890625 53.90625 
Q 18.265625 57.375 23.78125 62.296875 
Q 29.296875 67.234375 31.59375 71.875 
L 37.25 71.875 
z
" id="ArialMT-31"/>
      </defs>
      <g style="fill:#262626;" transform="translate(59.670713 140.157813)scale(0.1 -0.1)">
       <use xlink:href="#ArialMT-2212"/>
       <use x="58.398438" xlink:href="#ArialMT-31"/>
      </g>
     </g>
    </g>
    <g id="xtick_5">
     <g id="line2d_5">
      <g>
       <use style="fill:#262626;stroke:#262626;stroke-width:0.8;" x="79.991626" xlink:href="#m00bbd22143" y="126"/>
      </g>
     </g>
     <g id="text_5">
      <!-- 0 -->
      <defs>
       <path d="M 4.15625 35.296875 
Q 4.15625 48 6.765625 55.734375 
Q 9.375 63.484375 14.515625 67.671875 
Q 19.671875 71.875 27.484375 71.875 
Q 33.25 71.875 37.59375 69.546875 
Q 41.9375 67.234375 44.765625 62.859375 
Q 47.609375 58.5 49.21875 52.21875 
Q 50.828125 45.953125 50.828125 35.296875 
Q 50.828125 22.703125 48.234375 14.96875 
Q 45.65625 7.234375 40.5 3 
Q 35.359375 -1.21875 27.484375 -1.21875 
Q 17.140625 -1.21875 11.234375 6.203125 
Q 4.15625 15.140625 4.15625 35.296875 
z
M 13.1875 35.296875 
Q 13.1875 17.671875 17.3125 11.828125 
Q 21.4375 6 27.484375 6 
Q 33.546875 6 37.671875 11.859375 
Q 41.796875 17.71875 41.796875 35.296875 
Q 41.796875 52.984375 37.671875 58.78125 
Q 33.546875 64.59375 27.390625 64.59375 
Q 21.34375 64.59375 17.71875 59.46875 
Q 13.1875 52.9375 13.1875 35.296875 
z
" id="ArialMT-30"/>
      </defs>
      <g style="fill:#262626;" transform="translate(77.211157 140.157813)scale(0.1 -0.1)">
       <use xlink:href="#ArialMT-30"/>
      </g>
     </g>
    </g>
    <g id="xtick_6">
     <g id="line2d_6">
      <g>
       <use style="fill:#262626;stroke:#262626;stroke-width:0.8;" x="94.611758" xlink:href="#m00bbd22143" y="126"/>
      </g>
     </g>
     <g id="text_6">
      <!-- 1 -->
      <g style="fill:#262626;" transform="translate(91.831289 140.157813)scale(0.1 -0.1)">
       <use xlink:href="#ArialMT-31"/>
      </g>
     </g>
    </g>
    <g id="xtick_7">
     <g id="line2d_7">
      <g>
       <use style="fill:#262626;stroke:#262626;stroke-width:0.8;" x="109.231889" xlink:href="#m00bbd22143" y="126"/>
      </g>
     </g>
     <g id="text_7">
      <!-- 2 -->
      <g style="fill:#262626;" transform="translate(106.451421 140.157813)scale(0.1 -0.1)">
       <use xlink:href="#ArialMT-32"/>
      </g>
     </g>
    </g>
    <g id="xtick_8">
     <g id="line2d_8">
      <g>
       <use style="fill:#262626;stroke:#262626;stroke-width:0.8;" x="123.852021" xlink:href="#m00bbd22143" y="126"/>
      </g>
     </g>
     <g id="text_8">
      <!-- 3 -->
      <g style="fill:#262626;" transform="translate(121.071552 140.157813)scale(0.1 -0.1)">
       <use xlink:href="#ArialMT-33"/>
      </g>
     </g>
    </g>
    <g id="text_9">
     <!-- $pKa$ Experiment - $pKa$ Epik scan -->
     <defs>
      <path d="M 49.609375 33.6875 
Q 49.609375 40.875 46.484375 44.671875 
Q 43.359375 48.484375 37.5 48.484375 
Q 33.5 48.484375 29.859375 46.4375 
Q 26.21875 44.390625 23.390625 40.484375 
Q 20.609375 36.625 18.9375 31.15625 
Q 17.28125 25.6875 17.28125 20.3125 
Q 17.28125 13.484375 20.40625 9.796875 
Q 23.53125 6.109375 29.296875 6.109375 
Q 33.546875 6.109375 37.1875 8.109375 
Q 40.828125 10.109375 43.40625 13.921875 
Q 46.1875 17.921875 47.890625 23.34375 
Q 49.609375 28.765625 49.609375 33.6875 
z
M 21.78125 46.390625 
Q 25.390625 51.125 30.296875 53.5625 
Q 35.203125 56 41.21875 56 
Q 49.609375 56 54.25 50.5 
Q 58.890625 45.015625 58.890625 35.109375 
Q 58.890625 27 56 19.65625 
Q 53.125 12.3125 47.703125 6.5 
Q 44.09375 2.640625 39.546875 0.609375 
Q 35.015625 -1.421875 29.984375 -1.421875 
Q 24.171875 -1.421875 20.21875 1 
Q 16.265625 3.421875 14.3125 8.203125 
L 8.6875 -20.796875 
L -0.296875 -20.796875 
L 14.40625 54.6875 
L 23.390625 54.6875 
z
" id="DejaVuSans-Oblique-70"/>
      <path d="M 16.890625 72.90625 
L 26.8125 72.90625 
L 20.796875 42.1875 
L 59.078125 72.90625 
L 72.21875 72.90625 
L 28.90625 38.09375 
L 60.59375 0 
L 48.578125 0 
L 19.484375 35.5 
L 12.59375 0 
L 2.6875 0 
z
" id="DejaVuSans-Oblique-4b"/>
      <path d="M 53.71875 31.203125 
L 47.609375 0 
L 38.625 0 
L 40.28125 8.296875 
Q 36.328125 3.421875 31.265625 1 
Q 26.21875 -1.421875 20.015625 -1.421875 
Q 13.03125 -1.421875 8.5625 2.84375 
Q 4.109375 7.125 4.109375 13.8125 
Q 4.109375 23.390625 11.75 28.953125 
Q 19.390625 34.515625 32.8125 34.515625 
L 45.3125 34.515625 
L 45.796875 36.921875 
Q 45.90625 37.3125 45.953125 37.765625 
Q 46 38.234375 46 39.203125 
Q 46 43.5625 42.453125 45.96875 
Q 38.921875 48.390625 32.515625 48.390625 
Q 28.125 48.390625 23.5 47.265625 
Q 18.890625 46.140625 14.015625 43.890625 
L 15.578125 52.203125 
Q 20.65625 54.109375 25.515625 55.046875 
Q 30.375 56 34.90625 56 
Q 44.578125 56 49.625 51.796875 
Q 54.6875 47.609375 54.6875 39.59375 
Q 54.6875 37.984375 54.4375 35.8125 
Q 54.203125 33.640625 53.71875 31.203125 
z
M 44 27.484375 
L 35.015625 27.484375 
Q 23.96875 27.484375 18.671875 24.53125 
Q 13.375 21.578125 13.375 15.375 
Q 13.375 11.078125 16.078125 8.640625 
Q 18.796875 6.203125 23.578125 6.203125 
Q 30.90625 6.203125 36.375 11.453125 
Q 41.84375 16.703125 43.609375 25.484375 
z
" id="DejaVuSans-Oblique-61"/>
      <path id="ArialMT-20"/>
      <path d="M 7.90625 0 
L 7.90625 71.578125 
L 59.671875 71.578125 
L 59.671875 63.140625 
L 17.390625 63.140625 
L 17.390625 41.21875 
L 56.984375 41.21875 
L 56.984375 32.8125 
L 17.390625 32.8125 
L 17.390625 8.453125 
L 61.328125 8.453125 
L 61.328125 0 
z
" id="ArialMT-45"/>
      <path d="M 0.734375 0 
L 19.671875 26.953125 
L 2.15625 51.859375 
L 13.140625 51.859375 
L 21.09375 39.703125 
Q 23.34375 36.234375 24.703125 33.890625 
Q 26.859375 37.109375 28.65625 39.59375 
L 37.40625 51.859375 
L 47.90625 51.859375 
L 29.984375 27.4375 
L 49.265625 0 
L 38.484375 0 
L 27.828125 16.109375 
L 25 20.453125 
L 11.375 0 
z
" id="ArialMT-78"/>
      <path d="M 6.59375 -19.875 
L 6.59375 51.859375 
L 14.59375 51.859375 
L 14.59375 45.125 
Q 17.4375 49.078125 21 51.046875 
Q 24.5625 53.03125 29.640625 53.03125 
Q 36.28125 53.03125 41.359375 49.609375 
Q 46.4375 46.1875 49.015625 39.953125 
Q 51.609375 33.734375 51.609375 26.3125 
Q 51.609375 18.359375 48.75 11.984375 
Q 45.90625 5.609375 40.453125 2.21875 
Q 35.015625 -1.171875 29 -1.171875 
Q 24.609375 -1.171875 21.109375 0.6875 
Q 17.625 2.546875 15.375 5.375 
L 15.375 -19.875 
z
M 14.546875 25.640625 
Q 14.546875 15.625 18.59375 10.84375 
Q 22.65625 6.0625 28.421875 6.0625 
Q 34.28125 6.0625 38.453125 11.015625 
Q 42.625 15.96875 42.625 26.375 
Q 42.625 36.28125 38.546875 41.203125 
Q 34.46875 46.140625 28.8125 46.140625 
Q 23.1875 46.140625 18.859375 40.890625 
Q 14.546875 35.640625 14.546875 25.640625 
z
" id="ArialMT-70"/>
      <path d="M 42.09375 16.703125 
L 51.171875 15.578125 
Q 49.03125 7.625 43.21875 3.21875 
Q 37.40625 -1.171875 28.375 -1.171875 
Q 17 -1.171875 10.328125 5.828125 
Q 3.65625 12.84375 3.65625 25.484375 
Q 3.65625 38.578125 10.390625 45.796875 
Q 17.140625 53.03125 27.875 53.03125 
Q 38.28125 53.03125 44.875 45.953125 
Q 51.46875 38.875 51.46875 26.03125 
Q 51.46875 25.25 51.421875 23.6875 
L 12.75 23.6875 
Q 13.234375 15.140625 17.578125 10.59375 
Q 21.921875 6.0625 28.421875 6.0625 
Q 33.25 6.0625 36.671875 8.59375 
Q 40.09375 11.140625 42.09375 16.703125 
z
M 13.234375 30.90625 
L 42.1875 30.90625 
Q 41.609375 37.453125 38.875 40.71875 
Q 34.671875 45.796875 27.984375 45.796875 
Q 21.921875 45.796875 17.796875 41.75 
Q 13.671875 37.703125 13.234375 30.90625 
z
" id="ArialMT-65"/>
      <path d="M 6.5 0 
L 6.5 51.859375 
L 14.40625 51.859375 
L 14.40625 44 
Q 17.4375 49.515625 20 51.265625 
Q 22.5625 53.03125 25.640625 53.03125 
Q 30.078125 53.03125 34.671875 50.203125 
L 31.640625 42.046875 
Q 28.421875 43.953125 25.203125 43.953125 
Q 22.3125 43.953125 20.015625 42.21875 
Q 17.71875 40.484375 16.75 37.40625 
Q 15.28125 32.71875 15.28125 27.15625 
L 15.28125 0 
z
" id="ArialMT-72"/>
      <path d="M 6.640625 61.46875 
L 6.640625 71.578125 
L 15.4375 71.578125 
L 15.4375 61.46875 
z
M 6.640625 0 
L 6.640625 51.859375 
L 15.4375 51.859375 
L 15.4375 0 
z
" id="ArialMT-69"/>
      <path d="M 6.59375 0 
L 6.59375 51.859375 
L 14.453125 51.859375 
L 14.453125 44.578125 
Q 16.890625 48.390625 20.9375 50.703125 
Q 25 53.03125 30.171875 53.03125 
Q 35.9375 53.03125 39.625 50.640625 
Q 43.3125 48.25 44.828125 43.953125 
Q 50.984375 53.03125 60.84375 53.03125 
Q 68.5625 53.03125 72.703125 48.75 
Q 76.859375 44.484375 76.859375 35.59375 
L 76.859375 0 
L 68.109375 0 
L 68.109375 32.671875 
Q 68.109375 37.9375 67.25 40.25 
Q 66.40625 42.578125 64.15625 43.984375 
Q 61.921875 45.40625 58.890625 45.40625 
Q 53.421875 45.40625 49.796875 41.765625 
Q 46.1875 38.140625 46.1875 30.125 
L 46.1875 0 
L 37.40625 0 
L 37.40625 33.6875 
Q 37.40625 39.546875 35.25 42.46875 
Q 33.109375 45.40625 28.21875 45.40625 
Q 24.515625 45.40625 21.359375 43.453125 
Q 18.21875 41.5 16.796875 37.734375 
Q 15.375 33.984375 15.375 26.90625 
L 15.375 0 
z
" id="ArialMT-6d"/>
      <path d="M 6.59375 0 
L 6.59375 51.859375 
L 14.5 51.859375 
L 14.5 44.484375 
Q 20.21875 53.03125 31 53.03125 
Q 35.6875 53.03125 39.625 51.34375 
Q 43.5625 49.65625 45.515625 46.921875 
Q 47.46875 44.1875 48.25 40.4375 
Q 48.734375 37.984375 48.734375 31.890625 
L 48.734375 0 
L 39.9375 0 
L 39.9375 31.546875 
Q 39.9375 36.921875 38.90625 39.578125 
Q 37.890625 42.234375 35.28125 43.8125 
Q 32.671875 45.40625 29.15625 45.40625 
Q 23.53125 45.40625 19.453125 41.84375 
Q 15.375 38.28125 15.375 28.328125 
L 15.375 0 
z
" id="ArialMT-6e"/>
      <path d="M 25.78125 7.859375 
L 27.046875 0.09375 
Q 23.34375 -0.6875 20.40625 -0.6875 
Q 15.625 -0.6875 12.984375 0.828125 
Q 10.359375 2.34375 9.28125 4.8125 
Q 8.203125 7.28125 8.203125 15.1875 
L 8.203125 45.015625 
L 1.765625 45.015625 
L 1.765625 51.859375 
L 8.203125 51.859375 
L 8.203125 64.703125 
L 16.9375 69.96875 
L 16.9375 51.859375 
L 25.78125 51.859375 
L 25.78125 45.015625 
L 16.9375 45.015625 
L 16.9375 14.703125 
Q 16.9375 10.9375 17.40625 9.859375 
Q 17.875 8.796875 18.921875 8.15625 
Q 19.96875 7.515625 21.921875 7.515625 
Q 23.390625 7.515625 25.78125 7.859375 
z
" id="ArialMT-74"/>
      <path d="M 3.171875 21.484375 
L 3.171875 30.328125 
L 30.171875 30.328125 
L 30.171875 21.484375 
z
" id="ArialMT-2d"/>
      <path d="M 6.640625 0 
L 6.640625 71.578125 
L 15.4375 71.578125 
L 15.4375 30.765625 
L 36.234375 51.859375 
L 47.609375 51.859375 
L 27.78125 32.625 
L 49.609375 0 
L 38.765625 0 
L 21.625 26.515625 
L 15.4375 20.5625 
L 15.4375 0 
z
" id="ArialMT-6b"/>
      <path d="M 3.078125 15.484375 
L 11.765625 16.84375 
Q 12.5 11.625 15.84375 8.84375 
Q 19.1875 6.0625 25.203125 6.0625 
Q 31.25 6.0625 34.171875 8.515625 
Q 37.109375 10.984375 37.109375 14.3125 
Q 37.109375 17.28125 34.515625 19 
Q 32.71875 20.171875 25.53125 21.96875 
Q 15.875 24.421875 12.140625 26.203125 
Q 8.40625 27.984375 6.46875 31.125 
Q 4.546875 34.28125 4.546875 38.09375 
Q 4.546875 41.546875 6.125 44.5 
Q 7.71875 47.46875 10.453125 49.421875 
Q 12.5 50.921875 16.03125 51.96875 
Q 19.578125 53.03125 23.640625 53.03125 
Q 29.734375 53.03125 34.34375 51.265625 
Q 38.96875 49.515625 41.15625 46.5 
Q 43.359375 43.5 44.1875 38.484375 
L 35.59375 37.3125 
Q 35.015625 41.3125 32.203125 43.546875 
Q 29.390625 45.796875 24.265625 45.796875 
Q 18.21875 45.796875 15.625 43.796875 
Q 13.03125 41.796875 13.03125 39.109375 
Q 13.03125 37.40625 14.109375 36.03125 
Q 15.1875 34.625 17.484375 33.6875 
Q 18.796875 33.203125 25.25 31.453125 
Q 34.578125 28.953125 38.25 27.359375 
Q 41.9375 25.78125 44.03125 22.75 
Q 46.140625 19.734375 46.140625 15.234375 
Q 46.140625 10.84375 43.578125 6.953125 
Q 41.015625 3.078125 36.171875 0.953125 
Q 31.34375 -1.171875 25.25 -1.171875 
Q 15.140625 -1.171875 9.84375 3.03125 
Q 4.546875 7.234375 3.078125 15.484375 
z
" id="ArialMT-73"/>
      <path d="M 40.4375 19 
L 49.078125 17.875 
Q 47.65625 8.9375 41.8125 3.875 
Q 35.984375 -1.171875 27.484375 -1.171875 
Q 16.84375 -1.171875 10.375 5.78125 
Q 3.90625 12.75 3.90625 25.734375 
Q 3.90625 34.125 6.6875 40.421875 
Q 9.46875 46.734375 15.15625 49.875 
Q 20.84375 53.03125 27.546875 53.03125 
Q 35.984375 53.03125 41.359375 48.75 
Q 46.734375 44.484375 48.25 36.625 
L 39.703125 35.296875 
Q 38.484375 40.53125 35.375 43.15625 
Q 32.28125 45.796875 27.875 45.796875 
Q 21.234375 45.796875 17.078125 41.03125 
Q 12.9375 36.28125 12.9375 25.984375 
Q 12.9375 15.53125 16.9375 10.796875 
Q 20.953125 6.0625 27.390625 6.0625 
Q 32.5625 6.0625 36.03125 9.234375 
Q 39.5 12.40625 40.4375 19 
z
" id="ArialMT-63"/>
      <path d="M 40.4375 6.390625 
Q 35.546875 2.25 31.03125 0.53125 
Q 26.515625 -1.171875 21.34375 -1.171875 
Q 12.796875 -1.171875 8.203125 3 
Q 3.609375 7.171875 3.609375 13.671875 
Q 3.609375 17.484375 5.34375 20.625 
Q 7.078125 23.78125 9.890625 25.6875 
Q 12.703125 27.59375 16.21875 28.5625 
Q 18.796875 29.25 24.03125 29.890625 
Q 34.671875 31.15625 39.703125 32.90625 
Q 39.75 34.71875 39.75 35.203125 
Q 39.75 40.578125 37.25 42.78125 
Q 33.890625 45.75 27.25 45.75 
Q 21.046875 45.75 18.09375 43.578125 
Q 15.140625 41.40625 13.71875 35.890625 
L 5.125 37.0625 
Q 6.296875 42.578125 8.984375 45.96875 
Q 11.671875 49.359375 16.75 51.1875 
Q 21.828125 53.03125 28.515625 53.03125 
Q 35.15625 53.03125 39.296875 51.46875 
Q 43.453125 49.90625 45.40625 47.53125 
Q 47.359375 45.171875 48.140625 41.546875 
Q 48.578125 39.3125 48.578125 33.453125 
L 48.578125 21.734375 
Q 48.578125 9.46875 49.140625 6.21875 
Q 49.703125 2.984375 51.375 0 
L 42.1875 0 
Q 40.828125 2.734375 40.4375 6.390625 
z
M 39.703125 26.03125 
Q 34.90625 24.078125 25.34375 22.703125 
Q 19.921875 21.921875 17.671875 20.9375 
Q 15.4375 19.96875 14.203125 18.09375 
Q 12.984375 16.21875 12.984375 13.921875 
Q 12.984375 10.40625 15.640625 8.0625 
Q 18.3125 5.71875 23.4375 5.71875 
Q 28.515625 5.71875 32.46875 7.9375 
Q 36.421875 10.15625 38.28125 14.015625 
Q 39.703125 17 39.703125 22.796875 
z
" id="ArialMT-61"/>
     </defs>
     <g style="fill:#262626;" transform="translate(0.55 153.445312)scale(0.1 -0.1)">
      <use transform="translate(0 0.09375)" xlink:href="#DejaVuSans-Oblique-70"/>
      <use transform="translate(63.476562 0.09375)" xlink:href="#DejaVuSans-Oblique-4b"/>
      <use transform="translate(129.052734 0.09375)" xlink:href="#DejaVuSans-Oblique-61"/>
      <use transform="translate(190.332031 0.09375)" xlink:href="#ArialMT-20"/>
      <use transform="translate(218.115234 0.09375)" xlink:href="#ArialMT-45"/>
      <use transform="translate(284.814453 0.09375)" xlink:href="#ArialMT-78"/>
      <use transform="translate(334.814453 0.09375)" xlink:href="#ArialMT-70"/>
      <use transform="translate(390.429688 0.09375)" xlink:href="#ArialMT-65"/>
      <use transform="translate(446.044922 0.09375)" xlink:href="#ArialMT-72"/>
      <use transform="translate(479.345703 0.09375)" xlink:href="#ArialMT-69"/>
      <use transform="translate(501.5625 0.09375)" xlink:href="#ArialMT-6d"/>
      <use transform="translate(584.863281 0.09375)" xlink:href="#ArialMT-65"/>
      <use transform="translate(640.478516 0.09375)" xlink:href="#ArialMT-6e"/>
      <use transform="translate(696.09375 0.09375)" xlink:href="#ArialMT-74"/>
      <use transform="translate(723.876953 0.09375)" xlink:href="#ArialMT-20"/>
      <use transform="translate(751.660156 0.09375)" xlink:href="#ArialMT-2d"/>
      <use transform="translate(784.960938 0.09375)" xlink:href="#ArialMT-20"/>
      <use transform="translate(812.744141 0.09375)" xlink:href="#DejaVuSans-Oblique-70"/>
      <use transform="translate(876.220703 0.09375)" xlink:href="#DejaVuSans-Oblique-4b"/>
      <use transform="translate(941.796875 0.09375)" xlink:href="#DejaVuSans-Oblique-61"/>
      <use transform="translate(1003.076172 0.09375)" xlink:href="#ArialMT-20"/>
      <use transform="translate(1030.859375 0.09375)" xlink:href="#ArialMT-45"/>
      <use transform="translate(1097.558594 0.09375)" xlink:href="#ArialMT-70"/>
      <use transform="translate(1153.173828 0.09375)" xlink:href="#ArialMT-69"/>
      <use transform="translate(1175.390625 0.09375)" xlink:href="#ArialMT-6b"/>
      <use transform="translate(1225.390625 0.09375)" xlink:href="#ArialMT-20"/>
      <use transform="translate(1253.173828 0.09375)" xlink:href="#ArialMT-73"/>
      <use transform="translate(1303.173828 0.09375)" xlink:href="#ArialMT-63"/>
      <use transform="translate(1353.173828 0.09375)" xlink:href="#ArialMT-61"/>
      <use transform="translate(1408.789062 0.09375)" xlink:href="#ArialMT-6e"/>
     </g>
    </g>
   </g>
   <g id="matplotlib.axis_2"/>
   <g id="PolyCollection_1">
    <defs>
     <path d="M 23.072727 -18.200631 
L 23.072727 -18 
L 23.871582 -18 
L 24.670437 -18 
L 25.469291 -18 
L 26.268146 -18 
L 27.067001 -18 
L 27.865855 -18 
L 28.66471 -18 
L 29.463565 -18 
L 30.262419 -18 
L 31.061274 -18 
L 31.860129 -18 
L 32.658984 -18 
L 33.457838 -18 
L 34.256693 -18 
L 35.055548 -18 
L 35.854402 -18 
L 36.653257 -18 
L 37.452112 -18 
L 38.250966 -18 
L 39.049821 -18 
L 39.848676 -18 
L 40.64753 -18 
L 41.446385 -18 
L 42.24524 -18 
L 43.044094 -18 
L 43.842949 -18 
L 44.641804 -18 
L 45.440659 -18 
L 46.239513 -18 
L 47.038368 -18 
L 47.837223 -18 
L 48.636077 -18 
L 49.434932 -18 
L 50.233787 -18 
L 51.032641 -18 
L 51.831496 -18 
L 52.630351 -18 
L 53.429205 -18 
L 54.22806 -18 
L 55.026915 -18 
L 55.82577 -18 
L 56.624624 -18 
L 57.423479 -18 
L 58.222334 -18 
L 59.021188 -18 
L 59.820043 -18 
L 60.618898 -18 
L 61.417752 -18 
L 62.216607 -18 
L 63.015462 -18 
L 63.814316 -18 
L 64.613171 -18 
L 65.412026 -18 
L 66.21088 -18 
L 67.009735 -18 
L 67.80859 -18 
L 68.607445 -18 
L 69.406299 -18 
L 70.205154 -18 
L 71.004009 -18 
L 71.802863 -18 
L 72.601718 -18 
L 73.400573 -18 
L 74.199427 -18 
L 74.998282 -18 
L 75.797137 -18 
L 76.595991 -18 
L 77.394846 -18 
L 78.193701 -18 
L 78.992555 -18 
L 79.79141 -18 
L 80.590265 -18 
L 81.38912 -18 
L 82.187974 -18 
L 82.986829 -18 
L 83.785684 -18 
L 84.584538 -18 
L 85.383393 -18 
L 86.182248 -18 
L 86.981102 -18 
L 87.779957 -18 
L 88.578812 -18 
L 89.377666 -18 
L 90.176521 -18 
L 90.975376 -18 
L 91.77423 -18 
L 92.573085 -18 
L 93.37194 -18 
L 94.170795 -18 
L 94.969649 -18 
L 95.768504 -18 
L 96.567359 -18 
L 97.366213 -18 
L 98.165068 -18 
L 98.963923 -18 
L 99.762777 -18 
L 100.561632 -18 
L 101.360487 -18 
L 102.159341 -18 
L 102.958196 -18 
L 103.757051 -18 
L 104.555906 -18 
L 105.35476 -18 
L 106.153615 -18 
L 106.95247 -18 
L 107.751324 -18 
L 108.550179 -18 
L 109.349034 -18 
L 110.147888 -18 
L 110.946743 -18 
L 111.745598 -18 
L 112.544452 -18 
L 113.343307 -18 
L 114.142162 -18 
L 114.941016 -18 
L 115.739871 -18 
L 116.538726 -18 
L 117.337581 -18 
L 118.136435 -18 
L 118.93529 -18 
L 119.734145 -18 
L 120.532999 -18 
L 121.331854 -18 
L 122.130709 -18 
L 122.929563 -18 
L 123.728418 -18 
L 124.527273 -18 
L 124.527273 -18.226821 
L 124.527273 -18.226821 
L 123.728418 -18.275459 
L 122.929563 -18.350154 
L 122.130709 -18.455812 
L 121.331854 -18.598714 
L 120.532999 -18.786559 
L 119.734145 -19.028474 
L 118.93529 -19.334972 
L 118.136435 -19.717848 
L 117.337581 -20.189993 
L 116.538726 -20.765138 
L 115.739871 -21.457496 
L 114.941016 -22.281338 
L 114.142162 -23.250491 
L 113.343307 -24.377791 
L 112.544452 -25.674521 
L 111.745598 -27.149874 
L 110.946743 -28.810467 
L 110.147888 -30.659976 
L 109.349034 -32.69891 
L 108.550179 -34.924567 
L 107.751324 -37.331186 
L 106.95247 -39.910306 
L 106.153615 -42.651292 
L 105.35476 -45.542015 
L 104.555906 -48.569606 
L 103.757051 -51.721208 
L 102.958196 -54.984657 
L 102.159341 -58.348977 
L 101.360487 -61.804641 
L 100.561632 -65.343508 
L 99.762777 -68.958423 
L 98.963923 -72.642477 
L 98.165068 -76.38796 
L 97.366213 -80.185095 
L 96.567359 -84.020663 
L 95.768504 -87.876658 
L 94.969649 -91.72912 
L 94.170795 -95.547309 
L 93.37194 -99.293347 
L 92.573085 -102.922432 
L 91.77423 -106.383687 
L 90.975376 -109.621654 
L 90.176521 -112.578374 
L 89.377666 -115.195954 
L 88.578812 -117.419456 
L 87.779957 -119.199929 
L 86.981102 -120.497344 
L 86.182248 -121.283242 
L 85.383393 -121.542857 
L 84.584538 -121.27657 
L 83.785684 -120.500542 
L 82.986829 -119.246481 
L 82.187974 -117.560512 
L 81.38912 -115.501233 
L 80.590265 -113.137055 
L 79.79141 -110.542999 
L 78.992555 -107.797149 
L 78.193701 -104.976985 
L 77.394846 -102.155815 
L 76.595991 -99.399518 
L 75.797137 -96.763792 
L 74.998282 -94.292042 
L 74.199427 -92.014014 
L 73.400573 -89.945234 
L 72.601718 -88.087232 
L 71.802863 -86.428518 
L 71.004009 -84.946213 
L 70.205154 -83.608203 
L 69.406299 -82.375668 
L 68.607445 -81.205821 
L 67.80859 -80.054689 
L 67.009735 -78.879762 
L 66.21088 -77.642384 
L 65.412026 -76.309755 
L 64.613171 -74.856453 
L 63.814316 -73.265427 
L 63.015462 -71.528444 
L 62.216607 -69.645992 
L 61.417752 -67.626708 
L 60.618898 -65.486381 
L 59.820043 -63.246637 
L 59.021188 -60.93341 
L 58.222334 -58.575295 
L 57.423479 -56.201905 
L 56.624624 -53.84232 
L 55.82577 -51.523707 
L 55.026915 -49.270184 
L 54.22806 -47.101955 
L 53.429205 -45.034761 
L 52.630351 -43.079624 
L 51.831496 -41.242883 
L 51.032641 -39.526487 
L 50.233787 -37.928495 
L 49.434932 -36.443742 
L 48.636077 -35.064604 
L 47.837223 -33.781805 
L 47.038368 -32.585226 
L 46.239513 -31.464644 
L 45.440659 -30.410384 
L 44.641804 -29.413829 
L 43.842949 -28.467801 
L 43.044094 -27.566766 
L 42.24524 -26.706905 
L 41.446385 -25.886041 
L 40.64753 -25.103449 
L 39.848676 -24.359586 
L 39.049821 -23.655763 
L 38.250966 -22.993796 
L 37.452112 -22.375658 
L 36.653257 -21.803175 
L 35.854402 -21.277769 
L 35.055548 -20.800259 
L 34.256693 -20.370751 
L 33.457838 -19.988583 
L 32.658984 -19.652345 
L 31.860129 -19.359954 
L 31.061274 -19.108769 
L 30.262419 -18.895738 
L 29.463565 -18.717565 
L 28.66471 -18.57088 
L 27.865855 -18.452406 
L 27.067001 -18.359124 
L 26.268146 -18.288418 
L 25.469291 -18.238215 
L 24.670437 -18.207112 
L 23.871582 -18.19449 
L 23.072727 -18.200631 
z
" id="m72ae3600f5" style="stroke:#ffffff;stroke-opacity:0.25;"/>
    </defs>
    <g clip-path="url(#pfd6965ab3b)">
     <use style="fill:#12711c;fill-opacity:0.25;stroke:#ffffff;stroke-opacity:0.25;" x="0" xlink:href="#m72ae3600f5" y="144"/>
    </g>
   </g>
   <g id="LineCollection_1">
    <path clip-path="url(#pfd6965ab3b)" d="M 86.0005 126 
L 86.0005 120.564 
" style="fill:none;stroke:#12711c;"/>
    <path clip-path="url(#pfd6965ab3b)" d="M 94.319355 126 
L 94.319355 120.564 
" style="fill:none;stroke:#12711c;"/>
    <path clip-path="url(#pfd6965ab3b)" d="M 78.529613 126 
L 78.529613 120.564 
" style="fill:none;stroke:#12711c;"/>
    <path clip-path="url(#pfd6965ab3b)" d="M 86.146701 126 
L 86.146701 120.564 
" style="fill:none;stroke:#12711c;"/>
    <path clip-path="url(#pfd6965ab3b)" d="M 68.938806 126 
L 68.938806 120.564 
" style="fill:none;stroke:#12711c;"/>
    <path clip-path="url(#pfd6965ab3b)" d="M 65.795478 126 
L 65.795478 120.564 
" style="fill:none;stroke:#12711c;"/>
    <path clip-path="url(#pfd6965ab3b)" d="M 100.635252 126 
L 100.635252 120.564 
" style="fill:none;stroke:#12711c;"/>
    <path clip-path="url(#pfd6965ab3b)" d="M 87.023909 126 
L 87.023909 120.564 
" style="fill:none;stroke:#12711c;"/>
    <path clip-path="url(#pfd6965ab3b)" d="M 81.61446 126 
L 81.61446 120.564 
" style="fill:none;stroke:#12711c;"/>
    <path clip-path="url(#pfd6965ab3b)" d="M 99.2902 126 
L 99.2902 120.564 
" style="fill:none;stroke:#12711c;"/>
    <path clip-path="url(#pfd6965ab3b)" d="M 85.079432 126 
L 85.079432 120.564 
" style="fill:none;stroke:#12711c;"/>
    <path clip-path="url(#pfd6965ab3b)" d="M 80.298649 126 
L 80.298649 120.564 
" style="fill:none;stroke:#12711c;"/>
    <path clip-path="url(#pfd6965ab3b)" d="M 97.974388 126 
L 97.974388 120.564 
" style="fill:none;stroke:#12711c;"/>
    <path clip-path="url(#pfd6965ab3b)" d="M 101.965684 126 
L 101.965684 120.564 
" style="fill:none;stroke:#12711c;"/>
    <path clip-path="url(#pfd6965ab3b)" d="M 68.500202 126 
L 68.500202 120.564 
" style="fill:none;stroke:#12711c;"/>
    <path clip-path="url(#pfd6965ab3b)" d="M 64.669728 126 
L 64.669728 120.564 
" style="fill:none;stroke:#12711c;"/>
    <path clip-path="url(#pfd6965ab3b)" d="M 63.617078 126 
L 63.617078 120.564 
" style="fill:none;stroke:#12711c;"/>
    <path clip-path="url(#pfd6965ab3b)" d="M 83.368876 126 
L 83.368876 120.564 
" style="fill:none;stroke:#12711c;"/>
    <path clip-path="url(#pfd6965ab3b)" d="M 89.582432 126 
L 89.582432 120.564 
" style="fill:none;stroke:#12711c;"/>
    <path clip-path="url(#pfd6965ab3b)" d="M 91.731592 126 
L 91.731592 120.564 
" style="fill:none;stroke:#12711c;"/>
    <path clip-path="url(#pfd6965ab3b)" d="M 54.523356 126 
L 54.523356 120.564 
" style="fill:none;stroke:#12711c;"/>
    <path clip-path="url(#pfd6965ab3b)" d="M 75.240083 126 
L 75.240083 120.564 
" style="fill:none;stroke:#12711c;"/>
    <path clip-path="url(#pfd6965ab3b)" d="M 82.901032 126 
L 82.901032 120.564 
" style="fill:none;stroke:#12711c;"/>
    <path clip-path="url(#pfd6965ab3b)" d="M 87.652575 126 
L 87.652575 120.564 
" style="fill:none;stroke:#12711c;"/>
    <path clip-path="url(#pfd6965ab3b)" d="M 85.737338 126 
L 85.737338 120.564 
" style="fill:none;stroke:#12711c;"/>
    <path clip-path="url(#pfd6965ab3b)" d="M 45.634316 126 
L 45.634316 120.564 
" style="fill:none;stroke:#12711c;"/>
    <path clip-path="url(#pfd6965ab3b)" d="M 83.032613 126 
L 83.032613 120.564 
" style="fill:none;stroke:#12711c;"/>
    <path clip-path="url(#pfd6965ab3b)" d="M 63.017653 126 
L 63.017653 120.564 
" style="fill:none;stroke:#12711c;"/>
    <path clip-path="url(#pfd6965ab3b)" d="M 89.29003 126 
L 89.29003 120.564 
" style="fill:none;stroke:#12711c;"/>
    <path clip-path="url(#pfd6965ab3b)" d="M 72.155235 126 
L 72.155235 120.564 
" style="fill:none;stroke:#12711c;"/>
    <path clip-path="url(#pfd6965ab3b)" d="M 59.611162 126 
L 59.611162 120.564 
" style="fill:none;stroke:#12711c;"/>
   </g>
   <g id="line2d_9">
    <path clip-path="url(#pfd6965ab3b)" d="M 23.072727 125.799369 
L 25.469291 125.761785 
L 27.865855 125.547594 
L 30.262419 125.104262 
L 31.860129 124.640046 
L 33.457838 124.011417 
L 35.055548 123.199741 
L 36.653257 122.196825 
L 39.049821 120.344237 
L 41.446385 118.113959 
L 43.842949 115.532199 
L 46.239513 112.535356 
L 47.837223 110.218195 
L 49.434932 107.556258 
L 51.032641 104.473513 
L 52.630351 100.920376 
L 54.22806 96.898045 
L 56.624624 90.15768 
L 60.618898 78.513619 
L 62.216607 74.354008 
L 63.814316 70.734573 
L 65.412026 67.690245 
L 67.009735 65.120238 
L 71.004009 59.053787 
L 72.601718 55.912768 
L 74.199427 51.985986 
L 75.797137 47.236208 
L 78.193701 39.023015 
L 80.590265 30.862945 
L 82.187974 26.439488 
L 82.986829 24.753519 
L 83.785684 23.499458 
L 84.584538 22.72343 
L 85.383393 22.457143 
L 86.182248 22.716758 
L 86.981102 23.502656 
L 87.779957 24.800071 
L 88.578812 26.580544 
L 89.377666 28.804046 
L 90.975376 34.378346 
L 92.573085 41.077568 
L 94.969649 52.27088 
L 99.762777 75.041577 
L 102.958196 89.015343 
L 105.35476 98.457985 
L 106.95247 104.089694 
L 108.550179 109.075433 
L 110.147888 113.340024 
L 111.745598 116.850126 
L 113.343307 119.622209 
L 114.941016 121.718662 
L 116.538726 123.234862 
L 118.136435 124.282152 
L 119.734145 124.971526 
L 121.331854 125.401286 
L 123.728418 125.724541 
L 124.527273 125.773179 
L 124.527273 125.773179 
" style="fill:none;stroke:#12711c;stroke-linecap:round;stroke-width:1.5;"/>
   </g>
   <g id="line2d_10">
    <path clip-path="url(#pfd6965ab3b)" d="M 83.032613 126 
L 83.032613 17.28 
" style="fill:none;stroke:#000000;stroke-linecap:round;"/>
   </g>
   <g id="patch_3">
    <path d="M 18 126 
L 129.6 126 
" style="fill:none;stroke:#262626;stroke-linecap:square;stroke-linejoin:miter;stroke-width:0.8;"/>
   </g>
  </g>
 </g>
 <defs>
  <clipPath id="pfd6965ab3b">
   <rect height="108.72" width="111.6" x="18" y="17.28"/>
  </clipPath>
 </defs>
</svg>
