<?xml version="1.0" encoding="utf-8" standalone="no"?>
<!DOCTYPE svg PUBLIC "-//W3C//DTD SVG 1.1//EN"
  "http://www.w3.org/Graphics/SVG/1.1/DTD/svg11.dtd">
<!-- Created with matplotlib (http://matplotlib.org/) -->
<svg height="252pt" version="1.1" viewBox="0 0 252 252" width="252pt" xmlns="http://www.w3.org/2000/svg" xmlns:xlink="http://www.w3.org/1999/xlink">
 <defs>
  <style type="text/css">
*{stroke-linecap:butt;stroke-linejoin:round;}
  </style>
 </defs>
 <g id="figure_1">
  <g id="patch_1">
   <path d="M 0 252 
L 252 252 
L 252 0 
L 0 0 
z
" style="fill:#ffffff;"/>
  </g>
  <g id="axes_1">
   <g id="patch_2">
    <path d="M 40.22 213.8425 
L 239.52 213.8425 
L 239.52 12.48 
L 40.22 12.48 
z
" style="fill:#ffffff;"/>
   </g>
   <g id="line2d_1">
    <path clip-path="url(#p052596627c)" d="M 1.463579 253 
L 252.861928 -1 
" style="fill:none;opacity:0.5;stroke:#000000;stroke-linecap:round;stroke-width:0.5;"/>
   </g>
   <g id="line2d_2">
    <path clip-path="url(#p052596627c)" d="M -1 231.326323 
L 228.946669 -1 
" style="fill:none;opacity:0.5;stroke:#808080;stroke-dasharray:1.85,0.8;stroke-dashoffset:0;stroke-width:0.5;"/>
   </g>
   <g id="line2d_3">
    <path clip-path="url(#p052596627c)" d="M 25.378838 253 
L 253 23.02325 
" style="fill:none;opacity:0.5;stroke:#808080;stroke-dasharray:1.85,0.8;stroke-dashoffset:0;stroke-width:0.5;"/>
   </g>
   <g id="PathCollection_1">
    <defs>
     <path d="M -2 2 
L 2 2 
L 2 -2 
L -2 -2 
z
" id="m3a186d385d" style="stroke:#808080;stroke-opacity:0.8;stroke-width:0.7;"/>
    </defs>
    <g clip-path="url(#p052596627c)">
     <use style="fill:#591e71;fill-opacity:0.8;stroke:#808080;stroke-opacity:0.8;stroke-width:0.7;" x="158.001244" xlink:href="#m3a186d385d" y="93.030167"/>
     <use style="fill:#591e71;fill-opacity:0.8;stroke:#808080;stroke-opacity:0.8;stroke-width:0.7;" x="104.191912" xlink:href="#m3a186d385d" y="158.770159"/>
     <use style="fill:#591e71;fill-opacity:0.8;stroke:#808080;stroke-opacity:0.8;stroke-width:0.7;" x="127.987595" xlink:href="#m3a186d385d" y="123.769685"/>
     <use style="fill:#591e71;fill-opacity:0.8;stroke:#808080;stroke-opacity:0.8;stroke-width:0.7;" x="116.029965" xlink:href="#m3a186d385d" y="147.036589"/>
     <use style="fill:#591e71;fill-opacity:0.8;stroke:#808080;stroke-opacity:0.8;stroke-width:0.7;" x="98.930555" xlink:href="#m3a186d385d" y="149.710941"/>
     <use style="fill:#591e71;fill-opacity:0.8;stroke:#808080;stroke-opacity:0.8;stroke-width:0.7;" x="80.276654" xlink:href="#m3a186d385d" y="153.433615"/>
     <use style="fill:#591e71;fill-opacity:0.8;stroke:#808080;stroke-opacity:0.8;stroke-width:0.7;" x="184.427605" xlink:href="#m3a186d385d" y="27.185975"/>
     <use style="fill:#591e71;fill-opacity:0.8;stroke:#808080;stroke-opacity:0.8;stroke-width:0.7;" x="116.747423" xlink:href="#m3a186d385d" y="144.384048"/>
     <use style="fill:#591e71;fill-opacity:0.8;stroke:#808080;stroke-opacity:0.8;stroke-width:0.7;" x="94.506233" xlink:href="#m3a186d385d" y="125.515534"/>
     <use style="fill:#591e71;fill-opacity:0.8;stroke:#808080;stroke-opacity:0.8;stroke-width:0.7;" x="108.257506" xlink:href="#m3a186d385d" y="152.705806"/>
     <use style="fill:#591e71;fill-opacity:0.8;stroke:#808080;stroke-opacity:0.8;stroke-width:0.7;" x="151.902853" xlink:href="#m3a186d385d" y="98.997013"/>
     <use style="fill:#591e71;fill-opacity:0.8;stroke:#808080;stroke-opacity:0.8;stroke-width:0.7;" x="90.560215" xlink:href="#m3a186d385d" y="172.854558"/>
     <use style="fill:#591e71;fill-opacity:0.8;stroke:#808080;stroke-opacity:0.8;stroke-width:0.7;" x="107.18132" xlink:href="#m3a186d385d" y="167.572462"/>
     <use style="fill:#591e71;fill-opacity:0.8;stroke:#808080;stroke-opacity:0.8;stroke-width:0.7;" x="113.040558" xlink:href="#m3a186d385d" y="143.936177"/>
     <use style="fill:#591e71;fill-opacity:0.8;stroke:#808080;stroke-opacity:0.8;stroke-width:0.7;" x="74.89572" xlink:href="#m3a186d385d" y="176.990731"/>
     <use style="fill:#591e71;fill-opacity:0.8;stroke:#808080;stroke-opacity:0.8;stroke-width:0.7;" x="107.420472" xlink:href="#m3a186d385d" y="144.039746"/>
     <use style="fill:#591e71;fill-opacity:0.8;stroke:#808080;stroke-opacity:0.8;stroke-width:0.7;" x="100.245895" xlink:href="#m3a186d385d" y="151.383221"/>
     <use style="fill:#591e71;fill-opacity:0.8;stroke:#808080;stroke-opacity:0.8;stroke-width:0.7;" x="150.946243" xlink:href="#m3a186d385d" y="104.386612"/>
     <use style="fill:#591e71;fill-opacity:0.8;stroke:#808080;stroke-opacity:0.8;stroke-width:0.7;" x="108.257506" xlink:href="#m3a186d385d" y="151.595649"/>
     <use style="fill:#591e71;fill-opacity:0.8;stroke:#808080;stroke-opacity:0.8;stroke-width:0.7;" x="171.393789" xlink:href="#m3a186d385d" y="74.543503"/>
     <use style="fill:#591e71;fill-opacity:0.8;stroke:#808080;stroke-opacity:0.8;stroke-width:0.7;" x="81.831146" xlink:href="#m3a186d385d" y="170.832585"/>
     <use style="fill:#591e71;fill-opacity:0.8;stroke:#808080;stroke-opacity:0.8;stroke-width:0.7;" x="158.599126" xlink:href="#m3a186d385d" y="102.497098"/>
     <use style="fill:#591e71;fill-opacity:0.8;stroke:#808080;stroke-opacity:0.8;stroke-width:0.7;" x="69.75394" xlink:href="#m3a186d385d" y="194.373683"/>
     <use style="fill:#591e71;fill-opacity:0.8;stroke:#808080;stroke-opacity:0.8;stroke-width:0.7;" x="175.818112" xlink:href="#m3a186d385d" y="59.782246"/>
     <use style="fill:#591e71;fill-opacity:0.8;stroke:#808080;stroke-opacity:0.8;stroke-width:0.7;" x="158.359973" xlink:href="#m3a186d385d" y="104.55633"/>
     <use style="fill:#591e71;fill-opacity:0.8;stroke:#808080;stroke-opacity:0.8;stroke-width:0.7;" x="112.203524" xlink:href="#m3a186d385d" y="121.663006"/>
     <use style="fill:#591e71;fill-opacity:0.8;stroke:#808080;stroke-opacity:0.8;stroke-width:0.7;" x="93.071317" xlink:href="#m3a186d385d" y="167.137761"/>
     <use style="fill:#591e71;fill-opacity:0.8;stroke:#808080;stroke-opacity:0.8;stroke-width:0.7;" x="132.890223" xlink:href="#m3a186d385d" y="117.551792"/>
     <use style="fill:#591e71;fill-opacity:0.8;stroke:#808080;stroke-opacity:0.8;stroke-width:0.7;" x="72.743347" xlink:href="#m3a186d385d" y="189.722013"/>
     <use style="fill:#591e71;fill-opacity:0.8;stroke:#808080;stroke-opacity:0.8;stroke-width:0.7;" x="109.214117" xlink:href="#m3a186d385d" y="133.06853"/>
     <use style="fill:#591e71;fill-opacity:0.8;stroke:#808080;stroke-opacity:0.8;stroke-width:0.7;" x="75.134873" xlink:href="#m3a186d385d" y="168.423511"/>
    </g>
   </g>
   <g id="matplotlib.axis_1">
    <g id="xtick_1">
     <g id="line2d_4">
      <defs>
       <path d="M 0 0 
L 0 3.5 
" id="m80bba66890" style="stroke:#262626;stroke-width:0.8;"/>
      </defs>
      <g>
       <use style="fill:#262626;stroke:#262626;stroke-width:0.8;" x="44.045037" xlink:href="#m80bba66890" y="213.8425"/>
      </g>
     </g>
     <g id="text_1">
      <!-- 0 -->
      <defs>
       <path d="M 4.15625 35.296875 
Q 4.15625 48 6.765625 55.734375 
Q 9.375 63.484375 14.515625 67.671875 
Q 19.671875 71.875 27.484375 71.875 
Q 33.25 71.875 37.59375 69.546875 
Q 41.9375 67.234375 44.765625 62.859375 
Q 47.609375 58.5 49.21875 52.21875 
Q 50.828125 45.953125 50.828125 35.296875 
Q 50.828125 22.703125 48.234375 14.96875 
Q 45.65625 7.234375 40.5 3 
Q 35.359375 -1.21875 27.484375 -1.21875 
Q 17.140625 -1.21875 11.234375 6.203125 
Q 4.15625 15.140625 4.15625 35.296875 
z
M 13.1875 35.296875 
Q 13.1875 17.671875 17.3125 11.828125 
Q 21.4375 6 27.484375 6 
Q 33.546875 6 37.671875 11.859375 
Q 41.796875 17.71875 41.796875 35.296875 
Q 41.796875 52.984375 37.671875 58.78125 
Q 33.546875 64.59375 27.390625 64.59375 
Q 21.34375 64.59375 17.71875 59.46875 
Q 13.1875 52.9375 13.1875 35.296875 
z
" id="ArialMT-30"/>
      </defs>
      <g style="fill:#262626;" transform="translate(41.264568 228.000313)scale(0.1 -0.1)">
       <use xlink:href="#ArialMT-30"/>
      </g>
     </g>
    </g>
    <g id="xtick_2">
     <g id="line2d_5">
      <g>
       <use style="fill:#262626;stroke:#262626;stroke-width:0.8;" x="67.960295" xlink:href="#m80bba66890" y="213.8425"/>
      </g>
     </g>
     <g id="text_2">
      <!-- 2 -->
      <defs>
       <path d="M 50.34375 8.453125 
L 50.34375 0 
L 3.03125 0 
Q 2.9375 3.171875 4.046875 6.109375 
Q 5.859375 10.9375 9.828125 15.625 
Q 13.8125 20.3125 21.34375 26.46875 
Q 33.015625 36.03125 37.109375 41.625 
Q 41.21875 47.21875 41.21875 52.203125 
Q 41.21875 57.421875 37.46875 61 
Q 33.734375 64.59375 27.734375 64.59375 
Q 21.390625 64.59375 17.578125 60.78125 
Q 13.765625 56.984375 13.71875 50.25 
L 4.6875 51.171875 
Q 5.609375 61.28125 11.65625 66.578125 
Q 17.71875 71.875 27.9375 71.875 
Q 38.234375 71.875 44.234375 66.15625 
Q 50.25 60.453125 50.25 52 
Q 50.25 47.703125 48.484375 43.546875 
Q 46.734375 39.40625 42.65625 34.8125 
Q 38.578125 30.21875 29.109375 22.21875 
Q 21.1875 15.578125 18.9375 13.203125 
Q 16.703125 10.84375 15.234375 8.453125 
z
" id="ArialMT-32"/>
      </defs>
      <g style="fill:#262626;" transform="translate(65.179827 228.000313)scale(0.1 -0.1)">
       <use xlink:href="#ArialMT-32"/>
      </g>
     </g>
    </g>
    <g id="xtick_3">
     <g id="line2d_6">
      <g>
       <use style="fill:#262626;stroke:#262626;stroke-width:0.8;" x="91.875554" xlink:href="#m80bba66890" y="213.8425"/>
      </g>
     </g>
     <g id="text_3">
      <!-- 4 -->
      <defs>
       <path d="M 32.328125 0 
L 32.328125 17.140625 
L 1.265625 17.140625 
L 1.265625 25.203125 
L 33.9375 71.578125 
L 41.109375 71.578125 
L 41.109375 25.203125 
L 50.78125 25.203125 
L 50.78125 17.140625 
L 41.109375 17.140625 
L 41.109375 0 
z
M 32.328125 25.203125 
L 32.328125 57.46875 
L 9.90625 25.203125 
z
" id="ArialMT-34"/>
      </defs>
      <g style="fill:#262626;" transform="translate(89.095085 228.000313)scale(0.1 -0.1)">
       <use xlink:href="#ArialMT-34"/>
      </g>
     </g>
    </g>
    <g id="xtick_4">
     <g id="line2d_7">
      <g>
       <use style="fill:#262626;stroke:#262626;stroke-width:0.8;" x="115.790813" xlink:href="#m80bba66890" y="213.8425"/>
      </g>
     </g>
     <g id="text_4">
      <!-- 6 -->
      <defs>
       <path d="M 49.75 54.046875 
L 41.015625 53.375 
Q 39.84375 58.546875 37.703125 60.890625 
Q 34.125 64.65625 28.90625 64.65625 
Q 24.703125 64.65625 21.53125 62.3125 
Q 17.390625 59.28125 14.984375 53.46875 
Q 12.59375 47.65625 12.5 36.921875 
Q 15.671875 41.75 20.265625 44.09375 
Q 24.859375 46.4375 29.890625 46.4375 
Q 38.671875 46.4375 44.84375 39.96875 
Q 51.03125 33.5 51.03125 23.25 
Q 51.03125 16.5 48.125 10.71875 
Q 45.21875 4.9375 40.140625 1.859375 
Q 35.0625 -1.21875 28.609375 -1.21875 
Q 17.625 -1.21875 10.6875 6.859375 
Q 3.765625 14.9375 3.765625 33.5 
Q 3.765625 54.25 11.421875 63.671875 
Q 18.109375 71.875 29.4375 71.875 
Q 37.890625 71.875 43.28125 67.140625 
Q 48.6875 62.40625 49.75 54.046875 
z
M 13.875 23.1875 
Q 13.875 18.65625 15.796875 14.5 
Q 17.71875 10.359375 21.1875 8.171875 
Q 24.65625 6 28.46875 6 
Q 34.03125 6 38.03125 10.484375 
Q 42.046875 14.984375 42.046875 22.703125 
Q 42.046875 30.125 38.078125 34.390625 
Q 34.125 38.671875 28.125 38.671875 
Q 22.171875 38.671875 18.015625 34.390625 
Q 13.875 30.125 13.875 23.1875 
z
" id="ArialMT-36"/>
      </defs>
      <g style="fill:#262626;" transform="translate(113.010344 228.000313)scale(0.1 -0.1)">
       <use xlink:href="#ArialMT-36"/>
      </g>
     </g>
    </g>
    <g id="xtick_5">
     <g id="line2d_8">
      <g>
       <use style="fill:#262626;stroke:#262626;stroke-width:0.8;" x="139.706071" xlink:href="#m80bba66890" y="213.8425"/>
      </g>
     </g>
     <g id="text_5">
      <!-- 8 -->
      <defs>
       <path d="M 17.671875 38.8125 
Q 12.203125 40.828125 9.5625 44.53125 
Q 6.9375 48.25 6.9375 53.421875 
Q 6.9375 61.234375 12.546875 66.546875 
Q 18.171875 71.875 27.484375 71.875 
Q 36.859375 71.875 42.578125 66.421875 
Q 48.296875 60.984375 48.296875 53.171875 
Q 48.296875 48.1875 45.671875 44.5 
Q 43.0625 40.828125 37.75 38.8125 
Q 44.34375 36.671875 47.78125 31.875 
Q 51.21875 27.09375 51.21875 20.453125 
Q 51.21875 11.28125 44.71875 5.03125 
Q 38.234375 -1.21875 27.640625 -1.21875 
Q 17.046875 -1.21875 10.546875 5.046875 
Q 4.046875 11.328125 4.046875 20.703125 
Q 4.046875 27.6875 7.59375 32.390625 
Q 11.140625 37.109375 17.671875 38.8125 
z
M 15.921875 53.71875 
Q 15.921875 48.640625 19.1875 45.40625 
Q 22.46875 42.1875 27.6875 42.1875 
Q 32.765625 42.1875 36.015625 45.375 
Q 39.265625 48.578125 39.265625 53.21875 
Q 39.265625 58.0625 35.90625 61.359375 
Q 32.5625 64.65625 27.59375 64.65625 
Q 22.5625 64.65625 19.234375 61.421875 
Q 15.921875 58.203125 15.921875 53.71875 
z
M 13.09375 20.65625 
Q 13.09375 16.890625 14.875 13.375 
Q 16.65625 9.859375 20.171875 7.921875 
Q 23.6875 6 27.734375 6 
Q 34.03125 6 38.125 10.046875 
Q 42.234375 14.109375 42.234375 20.359375 
Q 42.234375 26.703125 38.015625 30.859375 
Q 33.796875 35.015625 27.4375 35.015625 
Q 21.234375 35.015625 17.15625 30.90625 
Q 13.09375 26.8125 13.09375 20.65625 
z
" id="ArialMT-38"/>
      </defs>
      <g style="fill:#262626;" transform="translate(136.925603 228.000313)scale(0.1 -0.1)">
       <use xlink:href="#ArialMT-38"/>
      </g>
     </g>
    </g>
    <g id="xtick_6">
     <g id="line2d_9">
      <g>
       <use style="fill:#262626;stroke:#262626;stroke-width:0.8;" x="163.62133" xlink:href="#m80bba66890" y="213.8425"/>
      </g>
     </g>
     <g id="text_6">
      <!-- 10 -->
      <defs>
       <path d="M 37.25 0 
L 28.46875 0 
L 28.46875 56 
Q 25.296875 52.984375 20.140625 49.953125 
Q 14.984375 46.921875 10.890625 45.40625 
L 10.890625 53.90625 
Q 18.265625 57.375 23.78125 62.296875 
Q 29.296875 67.234375 31.59375 71.875 
L 37.25 71.875 
z
" id="ArialMT-31"/>
      </defs>
      <g style="fill:#262626;" transform="translate(158.060393 228.000313)scale(0.1 -0.1)">
       <use xlink:href="#ArialMT-31"/>
       <use x="55.615234" xlink:href="#ArialMT-30"/>
      </g>
     </g>
    </g>
    <g id="xtick_7">
     <g id="line2d_10">
      <g>
       <use style="fill:#262626;stroke:#262626;stroke-width:0.8;" x="187.536589" xlink:href="#m80bba66890" y="213.8425"/>
      </g>
     </g>
     <g id="text_7">
      <!-- 12 -->
      <g style="fill:#262626;" transform="translate(181.975651 228.000313)scale(0.1 -0.1)">
       <use xlink:href="#ArialMT-31"/>
       <use x="55.615234" xlink:href="#ArialMT-32"/>
      </g>
     </g>
    </g>
    <g id="xtick_8">
     <g id="line2d_11">
      <g>
       <use style="fill:#262626;stroke:#262626;stroke-width:0.8;" x="211.451847" xlink:href="#m80bba66890" y="213.8425"/>
      </g>
     </g>
     <g id="text_8">
      <!-- 14 -->
      <g style="fill:#262626;" transform="translate(205.89091 228.000313)scale(0.1 -0.1)">
       <use xlink:href="#ArialMT-31"/>
       <use x="55.615234" xlink:href="#ArialMT-34"/>
      </g>
     </g>
    </g>
    <g id="xtick_9">
     <g id="line2d_12">
      <g>
       <use style="fill:#262626;stroke:#262626;stroke-width:0.8;" x="235.367106" xlink:href="#m80bba66890" y="213.8425"/>
      </g>
     </g>
     <g id="text_9">
      <!-- 16 -->
      <g style="fill:#262626;" transform="translate(229.806169 228.000313)scale(0.1 -0.1)">
       <use xlink:href="#ArialMT-31"/>
       <use x="55.615234" xlink:href="#ArialMT-36"/>
      </g>
     </g>
    </g>
    <g id="text_10">
     <!-- Experiment pKa -->
     <defs>
      <path d="M 7.90625 0 
L 7.90625 71.578125 
L 59.671875 71.578125 
L 59.671875 63.140625 
L 17.390625 63.140625 
L 17.390625 41.21875 
L 56.984375 41.21875 
L 56.984375 32.8125 
L 17.390625 32.8125 
L 17.390625 8.453125 
L 61.328125 8.453125 
L 61.328125 0 
z
" id="ArialMT-45"/>
      <path d="M 0.734375 0 
L 19.671875 26.953125 
L 2.15625 51.859375 
L 13.140625 51.859375 
L 21.09375 39.703125 
Q 23.34375 36.234375 24.703125 33.890625 
Q 26.859375 37.109375 28.65625 39.59375 
L 37.40625 51.859375 
L 47.90625 51.859375 
L 29.984375 27.4375 
L 49.265625 0 
L 38.484375 0 
L 27.828125 16.109375 
L 25 20.453125 
L 11.375 0 
z
" id="ArialMT-78"/>
      <path d="M 6.59375 -19.875 
L 6.59375 51.859375 
L 14.59375 51.859375 
L 14.59375 45.125 
Q 17.4375 49.078125 21 51.046875 
Q 24.5625 53.03125 29.640625 53.03125 
Q 36.28125 53.03125 41.359375 49.609375 
Q 46.4375 46.1875 49.015625 39.953125 
Q 51.609375 33.734375 51.609375 26.3125 
Q 51.609375 18.359375 48.75 11.984375 
Q 45.90625 5.609375 40.453125 2.21875 
Q 35.015625 -1.171875 29 -1.171875 
Q 24.609375 -1.171875 21.109375 0.6875 
Q 17.625 2.546875 15.375 5.375 
L 15.375 -19.875 
z
M 14.546875 25.640625 
Q 14.546875 15.625 18.59375 10.84375 
Q 22.65625 6.0625 28.421875 6.0625 
Q 34.28125 6.0625 38.453125 11.015625 
Q 42.625 15.96875 42.625 26.375 
Q 42.625 36.28125 38.546875 41.203125 
Q 34.46875 46.140625 28.8125 46.140625 
Q 23.1875 46.140625 18.859375 40.890625 
Q 14.546875 35.640625 14.546875 25.640625 
z
" id="ArialMT-70"/>
      <path d="M 42.09375 16.703125 
L 51.171875 15.578125 
Q 49.03125 7.625 43.21875 3.21875 
Q 37.40625 -1.171875 28.375 -1.171875 
Q 17 -1.171875 10.328125 5.828125 
Q 3.65625 12.84375 3.65625 25.484375 
Q 3.65625 38.578125 10.390625 45.796875 
Q 17.140625 53.03125 27.875 53.03125 
Q 38.28125 53.03125 44.875 45.953125 
Q 51.46875 38.875 51.46875 26.03125 
Q 51.46875 25.25 51.421875 23.6875 
L 12.75 23.6875 
Q 13.234375 15.140625 17.578125 10.59375 
Q 21.921875 6.0625 28.421875 6.0625 
Q 33.25 6.0625 36.671875 8.59375 
Q 40.09375 11.140625 42.09375 16.703125 
z
M 13.234375 30.90625 
L 42.1875 30.90625 
Q 41.609375 37.453125 38.875 40.71875 
Q 34.671875 45.796875 27.984375 45.796875 
Q 21.921875 45.796875 17.796875 41.75 
Q 13.671875 37.703125 13.234375 30.90625 
z
" id="ArialMT-65"/>
      <path d="M 6.5 0 
L 6.5 51.859375 
L 14.40625 51.859375 
L 14.40625 44 
Q 17.4375 49.515625 20 51.265625 
Q 22.5625 53.03125 25.640625 53.03125 
Q 30.078125 53.03125 34.671875 50.203125 
L 31.640625 42.046875 
Q 28.421875 43.953125 25.203125 43.953125 
Q 22.3125 43.953125 20.015625 42.21875 
Q 17.71875 40.484375 16.75 37.40625 
Q 15.28125 32.71875 15.28125 27.15625 
L 15.28125 0 
z
" id="ArialMT-72"/>
      <path d="M 6.640625 61.46875 
L 6.640625 71.578125 
L 15.4375 71.578125 
L 15.4375 61.46875 
z
M 6.640625 0 
L 6.640625 51.859375 
L 15.4375 51.859375 
L 15.4375 0 
z
" id="ArialMT-69"/>
      <path d="M 6.59375 0 
L 6.59375 51.859375 
L 14.453125 51.859375 
L 14.453125 44.578125 
Q 16.890625 48.390625 20.9375 50.703125 
Q 25 53.03125 30.171875 53.03125 
Q 35.9375 53.03125 39.625 50.640625 
Q 43.3125 48.25 44.828125 43.953125 
Q 50.984375 53.03125 60.84375 53.03125 
Q 68.5625 53.03125 72.703125 48.75 
Q 76.859375 44.484375 76.859375 35.59375 
L 76.859375 0 
L 68.109375 0 
L 68.109375 32.671875 
Q 68.109375 37.9375 67.25 40.25 
Q 66.40625 42.578125 64.15625 43.984375 
Q 61.921875 45.40625 58.890625 45.40625 
Q 53.421875 45.40625 49.796875 41.765625 
Q 46.1875 38.140625 46.1875 30.125 
L 46.1875 0 
L 37.40625 0 
L 37.40625 33.6875 
Q 37.40625 39.546875 35.25 42.46875 
Q 33.109375 45.40625 28.21875 45.40625 
Q 24.515625 45.40625 21.359375 43.453125 
Q 18.21875 41.5 16.796875 37.734375 
Q 15.375 33.984375 15.375 26.90625 
L 15.375 0 
z
" id="ArialMT-6d"/>
      <path d="M 6.59375 0 
L 6.59375 51.859375 
L 14.5 51.859375 
L 14.5 44.484375 
Q 20.21875 53.03125 31 53.03125 
Q 35.6875 53.03125 39.625 51.34375 
Q 43.5625 49.65625 45.515625 46.921875 
Q 47.46875 44.1875 48.25 40.4375 
Q 48.734375 37.984375 48.734375 31.890625 
L 48.734375 0 
L 39.9375 0 
L 39.9375 31.546875 
Q 39.9375 36.921875 38.90625 39.578125 
Q 37.890625 42.234375 35.28125 43.8125 
Q 32.671875 45.40625 29.15625 45.40625 
Q 23.53125 45.40625 19.453125 41.84375 
Q 15.375 38.28125 15.375 28.328125 
L 15.375 0 
z
" id="ArialMT-6e"/>
      <path d="M 25.78125 7.859375 
L 27.046875 0.09375 
Q 23.34375 -0.6875 20.40625 -0.6875 
Q 15.625 -0.6875 12.984375 0.828125 
Q 10.359375 2.34375 9.28125 4.8125 
Q 8.203125 7.28125 8.203125 15.1875 
L 8.203125 45.015625 
L 1.765625 45.015625 
L 1.765625 51.859375 
L 8.203125 51.859375 
L 8.203125 64.703125 
L 16.9375 69.96875 
L 16.9375 51.859375 
L 25.78125 51.859375 
L 25.78125 45.015625 
L 16.9375 45.015625 
L 16.9375 14.703125 
Q 16.9375 10.9375 17.40625 9.859375 
Q 17.875 8.796875 18.921875 8.15625 
Q 19.96875 7.515625 21.921875 7.515625 
Q 23.390625 7.515625 25.78125 7.859375 
z
" id="ArialMT-74"/>
      <path id="ArialMT-20"/>
      <path d="M 7.328125 0 
L 7.328125 71.578125 
L 16.796875 71.578125 
L 16.796875 36.078125 
L 52.34375 71.578125 
L 65.1875 71.578125 
L 35.15625 42.578125 
L 66.5 0 
L 54 0 
L 28.515625 36.234375 
L 16.796875 24.8125 
L 16.796875 0 
z
" id="ArialMT-4b"/>
      <path d="M 40.4375 6.390625 
Q 35.546875 2.25 31.03125 0.53125 
Q 26.515625 -1.171875 21.34375 -1.171875 
Q 12.796875 -1.171875 8.203125 3 
Q 3.609375 7.171875 3.609375 13.671875 
Q 3.609375 17.484375 5.34375 20.625 
Q 7.078125 23.78125 9.890625 25.6875 
Q 12.703125 27.59375 16.21875 28.5625 
Q 18.796875 29.25 24.03125 29.890625 
Q 34.671875 31.15625 39.703125 32.90625 
Q 39.75 34.71875 39.75 35.203125 
Q 39.75 40.578125 37.25 42.78125 
Q 33.890625 45.75 27.25 45.75 
Q 21.046875 45.75 18.09375 43.578125 
Q 15.140625 41.40625 13.71875 35.890625 
L 5.125 37.0625 
Q 6.296875 42.578125 8.984375 45.96875 
Q 11.671875 49.359375 16.75 51.1875 
Q 21.828125 53.03125 28.515625 53.03125 
Q 35.15625 53.03125 39.296875 51.46875 
Q 43.453125 49.90625 45.40625 47.53125 
Q 47.359375 45.171875 48.140625 41.546875 
Q 48.578125 39.3125 48.578125 33.453125 
L 48.578125 21.734375 
Q 48.578125 9.46875 49.140625 6.21875 
Q 49.703125 2.984375 51.375 0 
L 42.1875 0 
Q 40.828125 2.734375 40.4375 6.390625 
z
M 39.703125 26.03125 
Q 34.90625 24.078125 25.34375 22.703125 
Q 19.921875 21.921875 17.671875 20.9375 
Q 15.4375 19.96875 14.203125 18.09375 
Q 12.984375 16.21875 12.984375 13.921875 
Q 12.984375 10.40625 15.640625 8.0625 
Q 18.3125 5.71875 23.4375 5.71875 
Q 28.515625 5.71875 32.46875 7.9375 
Q 36.421875 10.15625 38.28125 14.015625 
Q 39.703125 17 39.703125 22.796875 
z
" id="ArialMT-61"/>
     </defs>
     <g style="fill:#262626;" transform="translate(111.4125 239.714063)scale(0.08 -0.08)">
      <use xlink:href="#ArialMT-45"/>
      <use x="66.699219" xlink:href="#ArialMT-78"/>
      <use x="116.699219" xlink:href="#ArialMT-70"/>
      <use x="172.314453" xlink:href="#ArialMT-65"/>
      <use x="227.929688" xlink:href="#ArialMT-72"/>
      <use x="261.230469" xlink:href="#ArialMT-69"/>
      <use x="283.447266" xlink:href="#ArialMT-6d"/>
      <use x="366.748047" xlink:href="#ArialMT-65"/>
      <use x="422.363281" xlink:href="#ArialMT-6e"/>
      <use x="477.978516" xlink:href="#ArialMT-74"/>
      <use x="505.761719" xlink:href="#ArialMT-20"/>
      <use x="533.544922" xlink:href="#ArialMT-70"/>
      <use x="589.160156" xlink:href="#ArialMT-4b"/>
      <use x="655.859375" xlink:href="#ArialMT-61"/>
     </g>
    </g>
   </g>
   <g id="matplotlib.axis_2">
    <g id="ytick_1">
     <g id="line2d_13">
      <defs>
       <path d="M 0 0 
L -3.5 0 
" id="md8de848e08" style="stroke:#262626;stroke-width:0.8;"/>
      </defs>
      <g>
       <use style="fill:#262626;stroke:#262626;stroke-width:0.8;" x="40.22" xlink:href="#md8de848e08" y="209.977879"/>
      </g>
     </g>
     <g id="text_11">
      <!-- 0 -->
      <g style="fill:#262626;" transform="translate(27.659063 213.556785)scale(0.1 -0.1)">
       <use xlink:href="#ArialMT-30"/>
      </g>
     </g>
    </g>
    <g id="ytick_2">
     <g id="line2d_14">
      <g>
       <use style="fill:#262626;stroke:#262626;stroke-width:0.8;" x="40.22" xlink:href="#md8de848e08" y="185.815128"/>
      </g>
     </g>
     <g id="text_12">
      <!-- 2 -->
      <g style="fill:#262626;" transform="translate(27.659063 189.394034)scale(0.1 -0.1)">
       <use xlink:href="#ArialMT-32"/>
      </g>
     </g>
    </g>
    <g id="ytick_3">
     <g id="line2d_15">
      <g>
       <use style="fill:#262626;stroke:#262626;stroke-width:0.8;" x="40.22" xlink:href="#md8de848e08" y="161.652377"/>
      </g>
     </g>
     <g id="text_13">
      <!-- 4 -->
      <g style="fill:#262626;" transform="translate(27.659063 165.231283)scale(0.1 -0.1)">
       <use xlink:href="#ArialMT-34"/>
      </g>
     </g>
    </g>
    <g id="ytick_4">
     <g id="line2d_16">
      <g>
       <use style="fill:#262626;stroke:#262626;stroke-width:0.8;" x="40.22" xlink:href="#md8de848e08" y="137.489626"/>
      </g>
     </g>
     <g id="text_14">
      <!-- 6 -->
      <g style="fill:#262626;" transform="translate(27.659063 141.068532)scale(0.1 -0.1)">
       <use xlink:href="#ArialMT-36"/>
      </g>
     </g>
    </g>
    <g id="ytick_5">
     <g id="line2d_17">
      <g>
       <use style="fill:#262626;stroke:#262626;stroke-width:0.8;" x="40.22" xlink:href="#md8de848e08" y="113.326875"/>
      </g>
     </g>
     <g id="text_15">
      <!-- 8 -->
      <g style="fill:#262626;" transform="translate(27.659063 116.905781)scale(0.1 -0.1)">
       <use xlink:href="#ArialMT-38"/>
      </g>
     </g>
    </g>
    <g id="ytick_6">
     <g id="line2d_18">
      <g>
       <use style="fill:#262626;stroke:#262626;stroke-width:0.8;" x="40.22" xlink:href="#md8de848e08" y="89.164124"/>
      </g>
     </g>
     <g id="text_16">
      <!-- 10 -->
      <g style="fill:#262626;" transform="translate(22.098125 92.74303)scale(0.1 -0.1)">
       <use xlink:href="#ArialMT-31"/>
       <use x="55.615234" xlink:href="#ArialMT-30"/>
      </g>
     </g>
    </g>
    <g id="ytick_7">
     <g id="line2d_19">
      <g>
       <use style="fill:#262626;stroke:#262626;stroke-width:0.8;" x="40.22" xlink:href="#md8de848e08" y="65.001373"/>
      </g>
     </g>
     <g id="text_17">
      <!-- 12 -->
      <g style="fill:#262626;" transform="translate(22.098125 68.580279)scale(0.1 -0.1)">
       <use xlink:href="#ArialMT-31"/>
       <use x="55.615234" xlink:href="#ArialMT-32"/>
      </g>
     </g>
    </g>
    <g id="ytick_8">
     <g id="line2d_20">
      <g>
       <use style="fill:#262626;stroke:#262626;stroke-width:0.8;" x="40.22" xlink:href="#md8de848e08" y="40.838622"/>
      </g>
     </g>
     <g id="text_18">
      <!-- 14 -->
      <g style="fill:#262626;" transform="translate(22.098125 44.417528)scale(0.1 -0.1)">
       <use xlink:href="#ArialMT-31"/>
       <use x="55.615234" xlink:href="#ArialMT-34"/>
      </g>
     </g>
    </g>
    <g id="ytick_9">
     <g id="line2d_21">
      <g>
       <use style="fill:#262626;stroke:#262626;stroke-width:0.8;" x="40.22" xlink:href="#md8de848e08" y="16.675871"/>
      </g>
     </g>
     <g id="text_19">
      <!-- 16 -->
      <g style="fill:#262626;" transform="translate(22.098125 20.254777)scale(0.1 -0.1)">
       <use xlink:href="#ArialMT-31"/>
       <use x="55.615234" xlink:href="#ArialMT-36"/>
      </g>
     </g>
    </g>
    <g id="text_20">
     <!-- Jaguar macro pKa -->
     <defs>
      <path d="M 2.875 20.3125 
L 11.421875 21.484375 
Q 11.765625 13.28125 14.5 10.25 
Q 17.234375 7.234375 22.078125 7.234375 
Q 25.640625 7.234375 28.21875 8.859375 
Q 30.8125 10.5 31.78125 13.296875 
Q 32.765625 16.109375 32.765625 22.265625 
L 32.765625 71.578125 
L 42.234375 71.578125 
L 42.234375 22.796875 
Q 42.234375 13.8125 40.0625 8.875 
Q 37.890625 3.953125 33.171875 1.359375 
Q 28.46875 -1.21875 22.125 -1.21875 
Q 12.703125 -1.21875 7.6875 4.203125 
Q 2.6875 9.625 2.875 20.3125 
z
" id="ArialMT-4a"/>
      <path d="M 4.984375 -4.296875 
L 13.53125 -5.5625 
Q 14.0625 -9.515625 16.5 -11.328125 
Q 19.78125 -13.765625 25.4375 -13.765625 
Q 31.546875 -13.765625 34.859375 -11.328125 
Q 38.1875 -8.890625 39.359375 -4.5 
Q 40.046875 -1.8125 39.984375 6.78125 
Q 34.234375 0 25.640625 0 
Q 14.9375 0 9.078125 7.71875 
Q 3.21875 15.4375 3.21875 26.21875 
Q 3.21875 33.640625 5.90625 39.90625 
Q 8.59375 46.1875 13.6875 49.609375 
Q 18.796875 53.03125 25.6875 53.03125 
Q 34.859375 53.03125 40.828125 45.609375 
L 40.828125 51.859375 
L 48.921875 51.859375 
L 48.921875 7.03125 
Q 48.921875 -5.078125 46.453125 -10.125 
Q 44 -15.1875 38.640625 -18.109375 
Q 33.296875 -21.046875 25.484375 -21.046875 
Q 16.21875 -21.046875 10.5 -16.875 
Q 4.78125 -12.703125 4.984375 -4.296875 
z
M 12.25 26.859375 
Q 12.25 16.65625 16.296875 11.96875 
Q 20.359375 7.28125 26.46875 7.28125 
Q 32.515625 7.28125 36.609375 11.9375 
Q 40.71875 16.609375 40.71875 26.5625 
Q 40.71875 36.078125 36.5 40.90625 
Q 32.28125 45.75 26.3125 45.75 
Q 20.453125 45.75 16.34375 40.984375 
Q 12.25 36.234375 12.25 26.859375 
z
" id="ArialMT-67"/>
      <path d="M 40.578125 0 
L 40.578125 7.625 
Q 34.515625 -1.171875 24.125 -1.171875 
Q 19.53125 -1.171875 15.546875 0.578125 
Q 11.578125 2.34375 9.640625 5 
Q 7.71875 7.671875 6.9375 11.53125 
Q 6.390625 14.109375 6.390625 19.734375 
L 6.390625 51.859375 
L 15.1875 51.859375 
L 15.1875 23.09375 
Q 15.1875 16.21875 15.71875 13.8125 
Q 16.546875 10.359375 19.234375 8.375 
Q 21.921875 6.390625 25.875 6.390625 
Q 29.828125 6.390625 33.296875 8.421875 
Q 36.765625 10.453125 38.203125 13.9375 
Q 39.65625 17.4375 39.65625 24.078125 
L 39.65625 51.859375 
L 48.4375 51.859375 
L 48.4375 0 
z
" id="ArialMT-75"/>
      <path d="M 40.4375 19 
L 49.078125 17.875 
Q 47.65625 8.9375 41.8125 3.875 
Q 35.984375 -1.171875 27.484375 -1.171875 
Q 16.84375 -1.171875 10.375 5.78125 
Q 3.90625 12.75 3.90625 25.734375 
Q 3.90625 34.125 6.6875 40.421875 
Q 9.46875 46.734375 15.15625 49.875 
Q 20.84375 53.03125 27.546875 53.03125 
Q 35.984375 53.03125 41.359375 48.75 
Q 46.734375 44.484375 48.25 36.625 
L 39.703125 35.296875 
Q 38.484375 40.53125 35.375 43.15625 
Q 32.28125 45.796875 27.875 45.796875 
Q 21.234375 45.796875 17.078125 41.03125 
Q 12.9375 36.28125 12.9375 25.984375 
Q 12.9375 15.53125 16.9375 10.796875 
Q 20.953125 6.0625 27.390625 6.0625 
Q 32.5625 6.0625 36.03125 9.234375 
Q 39.5 12.40625 40.4375 19 
z
" id="ArialMT-63"/>
      <path d="M 3.328125 25.921875 
Q 3.328125 40.328125 11.328125 47.265625 
Q 18.015625 53.03125 27.640625 53.03125 
Q 38.328125 53.03125 45.109375 46.015625 
Q 51.90625 39.015625 51.90625 26.65625 
Q 51.90625 16.65625 48.90625 10.90625 
Q 45.90625 5.171875 40.15625 2 
Q 34.421875 -1.171875 27.640625 -1.171875 
Q 16.75 -1.171875 10.03125 5.8125 
Q 3.328125 12.796875 3.328125 25.921875 
z
M 12.359375 25.921875 
Q 12.359375 15.96875 16.703125 11.015625 
Q 21.046875 6.0625 27.640625 6.0625 
Q 34.1875 6.0625 38.53125 11.03125 
Q 42.875 16.015625 42.875 26.21875 
Q 42.875 35.84375 38.5 40.796875 
Q 34.125 45.75 27.640625 45.75 
Q 21.046875 45.75 16.703125 40.8125 
Q 12.359375 35.890625 12.359375 25.921875 
z
" id="ArialMT-6f"/>
     </defs>
     <g style="fill:#262626;" transform="translate(16.414375 145.8425)rotate(-90)scale(0.08 -0.08)">
      <use xlink:href="#ArialMT-4a"/>
      <use x="50" xlink:href="#ArialMT-61"/>
      <use x="105.615234" xlink:href="#ArialMT-67"/>
      <use x="161.230469" xlink:href="#ArialMT-75"/>
      <use x="216.845703" xlink:href="#ArialMT-61"/>
      <use x="272.460938" xlink:href="#ArialMT-72"/>
      <use x="305.761719" xlink:href="#ArialMT-20"/>
      <use x="333.544922" xlink:href="#ArialMT-6d"/>
      <use x="416.845703" xlink:href="#ArialMT-61"/>
      <use x="472.460938" xlink:href="#ArialMT-63"/>
      <use x="522.460938" xlink:href="#ArialMT-72"/>
      <use x="555.761719" xlink:href="#ArialMT-6f"/>
      <use x="611.376953" xlink:href="#ArialMT-20"/>
      <use x="639.160156" xlink:href="#ArialMT-70"/>
      <use x="694.775391" xlink:href="#ArialMT-4b"/>
      <use x="761.474609" xlink:href="#ArialMT-61"/>
     </g>
    </g>
   </g>
   <g id="LineCollection_1">
    <path clip-path="url(#p052596627c)" d="M 157.881668 93.030167 
L 158.120821 93.030167 
" style="fill:none;stroke:#808080;stroke-opacity:0.8;stroke-width:0.5;"/>
    <path clip-path="url(#p052596627c)" d="M 104.072336 158.770159 
L 104.311489 158.770159 
" style="fill:none;stroke:#808080;stroke-opacity:0.8;stroke-width:0.5;"/>
    <path clip-path="url(#p052596627c)" d="M 127.868018 123.769685 
L 128.107171 123.769685 
" style="fill:none;stroke:#808080;stroke-opacity:0.8;stroke-width:0.5;"/>
    <path clip-path="url(#p052596627c)" d="M 115.910389 147.036589 
L 116.149542 147.036589 
" style="fill:none;stroke:#808080;stroke-opacity:0.8;stroke-width:0.5;"/>
    <path clip-path="url(#p052596627c)" d="M 98.810979 149.710941 
L 99.050132 149.710941 
" style="fill:none;stroke:#808080;stroke-opacity:0.8;stroke-width:0.5;"/>
    <path clip-path="url(#p052596627c)" d="M 79.798349 153.433615 
L 80.754959 153.433615 
" style="fill:none;stroke:#808080;stroke-opacity:0.8;stroke-width:0.5;"/>
    <path clip-path="url(#p052596627c)" d="M 184.308029 27.185975 
L 184.547181 27.185975 
" style="fill:none;stroke:#808080;stroke-opacity:0.8;stroke-width:0.5;"/>
    <path clip-path="url(#p052596627c)" d="M 116.627847 144.384048 
L 116.866999 144.384048 
" style="fill:none;stroke:#808080;stroke-opacity:0.8;stroke-width:0.5;"/>
    <path clip-path="url(#p052596627c)" d="M 94.386656 125.515534 
L 94.625809 125.515534 
" style="fill:none;stroke:#808080;stroke-opacity:0.8;stroke-width:0.5;"/>
    <path clip-path="url(#p052596627c)" d="M 108.13793 152.705806 
L 108.377083 152.705806 
" style="fill:none;stroke:#808080;stroke-opacity:0.8;stroke-width:0.5;"/>
    <path clip-path="url(#p052596627c)" d="M 151.783277 98.997013 
L 152.02243 98.997013 
" style="fill:none;stroke:#808080;stroke-opacity:0.8;stroke-width:0.5;"/>
    <path clip-path="url(#p052596627c)" d="M 90.440639 172.854558 
L 90.679791 172.854558 
" style="fill:none;stroke:#808080;stroke-opacity:0.8;stroke-width:0.5;"/>
    <path clip-path="url(#p052596627c)" d="M 107.061743 167.572462 
L 107.300896 167.572462 
" style="fill:none;stroke:#808080;stroke-opacity:0.8;stroke-width:0.5;"/>
    <path clip-path="url(#p052596627c)" d="M 112.920982 143.936177 
L 113.160134 143.936177 
" style="fill:none;stroke:#808080;stroke-opacity:0.8;stroke-width:0.5;"/>
    <path clip-path="url(#p052596627c)" d="M 74.776144 176.990731 
L 75.015297 176.990731 
" style="fill:none;stroke:#808080;stroke-opacity:0.8;stroke-width:0.5;"/>
    <path clip-path="url(#p052596627c)" d="M 107.300896 144.039746 
L 107.540049 144.039746 
" style="fill:none;stroke:#808080;stroke-opacity:0.8;stroke-width:0.5;"/>
    <path clip-path="url(#p052596627c)" d="M 100.126318 151.383221 
L 100.365471 151.383221 
" style="fill:none;stroke:#808080;stroke-opacity:0.8;stroke-width:0.5;"/>
    <path clip-path="url(#p052596627c)" d="M 150.826667 104.386612 
L 151.065819 104.386612 
" style="fill:none;stroke:#808080;stroke-opacity:0.8;stroke-width:0.5;"/>
    <path clip-path="url(#p052596627c)" d="M 108.13793 151.595649 
L 108.377083 151.595649 
" style="fill:none;stroke:#808080;stroke-opacity:0.8;stroke-width:0.5;"/>
    <path clip-path="url(#p052596627c)" d="M 171.274213 74.543503 
L 171.513365 74.543503 
" style="fill:none;stroke:#808080;stroke-opacity:0.8;stroke-width:0.5;"/>
    <path clip-path="url(#p052596627c)" d="M 81.711569 170.832585 
L 81.950722 170.832585 
" style="fill:none;stroke:#808080;stroke-opacity:0.8;stroke-width:0.5;"/>
    <path clip-path="url(#p052596627c)" d="M 158.240397 102.497098 
L 158.957855 102.497098 
" style="fill:none;stroke:#808080;stroke-opacity:0.8;stroke-width:0.5;"/>
    <path clip-path="url(#p052596627c)" d="M 69.514787 194.373683 
L 69.993092 194.373683 
" style="fill:none;stroke:#808080;stroke-opacity:0.8;stroke-width:0.5;"/>
    <path clip-path="url(#p052596627c)" d="M 175.339807 59.782246 
L 176.296417 59.782246 
" style="fill:none;stroke:#808080;stroke-opacity:0.8;stroke-width:0.5;"/>
    <path clip-path="url(#p052596627c)" d="M 158.120821 104.55633 
L 158.599126 104.55633 
" style="fill:none;stroke:#808080;stroke-opacity:0.8;stroke-width:0.5;"/>
    <path clip-path="url(#p052596627c)" d="M 111.844795 121.663006 
L 112.562253 121.663006 
" style="fill:none;stroke:#808080;stroke-opacity:0.8;stroke-width:0.5;"/>
    <path clip-path="url(#p052596627c)" d="M 92.951741 167.137761 
L 93.190893 167.137761 
" style="fill:none;stroke:#808080;stroke-opacity:0.8;stroke-width:0.5;"/>
    <path clip-path="url(#p052596627c)" d="M 132.770646 117.551792 
L 133.009799 117.551792 
" style="fill:none;stroke:#808080;stroke-opacity:0.8;stroke-width:0.5;"/>
    <path clip-path="url(#p052596627c)" d="M 72.504195 189.722013 
L 72.9825 189.722013 
" style="fill:none;stroke:#808080;stroke-opacity:0.8;stroke-width:0.5;"/>
    <path clip-path="url(#p052596627c)" d="M 109.09454 133.06853 
L 109.333693 133.06853 
" style="fill:none;stroke:#808080;stroke-opacity:0.8;stroke-width:0.5;"/>
    <path clip-path="url(#p052596627c)" d="M 75.015297 168.423511 
L 75.254449 168.423511 
" style="fill:none;stroke:#808080;stroke-opacity:0.8;stroke-width:0.5;"/>
   </g>
   <g id="LineCollection_2">
    <path clip-path="url(#p052596627c)" d="M 158.001244 102.37142 
L 158.001244 83.688913 
" style="fill:none;stroke:#808080;stroke-opacity:0.8;stroke-width:0.5;"/>
    <path clip-path="url(#p052596627c)" d="M 104.191912 167.177722 
L 104.191912 150.362597 
" style="fill:none;stroke:#808080;stroke-opacity:0.8;stroke-width:0.5;"/>
    <path clip-path="url(#p052596627c)" d="M 127.987595 137.746373 
L 127.987595 109.792997 
" style="fill:none;stroke:#808080;stroke-opacity:0.8;stroke-width:0.5;"/>
    <path clip-path="url(#p052596627c)" d="M 116.029965 155.218673 
L 116.029965 138.854505 
" style="fill:none;stroke:#808080;stroke-opacity:0.8;stroke-width:0.5;"/>
    <path clip-path="url(#p052596627c)" d="M 98.930555 155.411115 
L 98.930555 144.010767 
" style="fill:none;stroke:#808080;stroke-opacity:0.8;stroke-width:0.5;"/>
    <path clip-path="url(#p052596627c)" d="M 80.276654 159.118665 
L 80.276654 147.748566 
" style="fill:none;stroke:#808080;stroke-opacity:0.8;stroke-width:0.5;"/>
    <path clip-path="url(#p052596627c)" d="M 184.427605 32.73911 
L 184.427605 21.632841 
" style="fill:none;stroke:#808080;stroke-opacity:0.8;stroke-width:0.5;"/>
    <path clip-path="url(#p052596627c)" d="M 116.747423 152.566966 
L 116.747423 136.201129 
" style="fill:none;stroke:#808080;stroke-opacity:0.8;stroke-width:0.5;"/>
    <path clip-path="url(#p052596627c)" d="M 94.506233 134.2623 
L 94.506233 116.768768 
" style="fill:none;stroke:#808080;stroke-opacity:0.8;stroke-width:0.5;"/>
    <path clip-path="url(#p052596627c)" d="M 108.257506 160.634074 
L 108.257506 144.777539 
" style="fill:none;stroke:#808080;stroke-opacity:0.8;stroke-width:0.5;"/>
    <path clip-path="url(#p052596627c)" d="M 151.902853 109.931724 
L 151.902853 88.062301 
" style="fill:none;stroke:#808080;stroke-opacity:0.8;stroke-width:0.5;"/>
    <path clip-path="url(#p052596627c)" d="M 90.560215 180.153398 
L 90.560215 165.555719 
" style="fill:none;stroke:#808080;stroke-opacity:0.8;stroke-width:0.5;"/>
    <path clip-path="url(#p052596627c)" d="M 107.18132 176.190019 
L 107.18132 158.954906 
" style="fill:none;stroke:#808080;stroke-opacity:0.8;stroke-width:0.5;"/>
    <path clip-path="url(#p052596627c)" d="M 113.040558 151.563158 
L 113.040558 136.309196 
" style="fill:none;stroke:#808080;stroke-opacity:0.8;stroke-width:0.5;"/>
    <path clip-path="url(#p052596627c)" d="M 74.89572 198.499517 
L 74.89572 155.481945 
" style="fill:none;stroke:#808080;stroke-opacity:0.8;stroke-width:0.5;"/>
    <path clip-path="url(#p052596627c)" d="M 107.420472 149.879575 
L 107.420472 138.199917 
" style="fill:none;stroke:#808080;stroke-opacity:0.8;stroke-width:0.5;"/>
    <path clip-path="url(#p052596627c)" d="M 100.245895 160.728768 
L 100.245895 142.037674 
" style="fill:none;stroke:#808080;stroke-opacity:0.8;stroke-width:0.5;"/>
    <path clip-path="url(#p052596627c)" d="M 150.946243 112.520587 
L 150.946243 96.252638 
" style="fill:none;stroke:#808080;stroke-opacity:0.8;stroke-width:0.5;"/>
    <path clip-path="url(#p052596627c)" d="M 108.257506 164.261518 
L 108.257506 138.92978 
" style="fill:none;stroke:#808080;stroke-opacity:0.8;stroke-width:0.5;"/>
    <path clip-path="url(#p052596627c)" d="M 171.393789 81.502582 
L 171.393789 67.584424 
" style="fill:none;stroke:#808080;stroke-opacity:0.8;stroke-width:0.5;"/>
    <path clip-path="url(#p052596627c)" d="M 81.831146 193.904989 
L 81.831146 147.76018 
" style="fill:none;stroke:#808080;stroke-opacity:0.8;stroke-width:0.5;"/>
    <path clip-path="url(#p052596627c)" d="M 158.599126 116.051966 
L 158.599126 88.94223 
" style="fill:none;stroke:#808080;stroke-opacity:0.8;stroke-width:0.5;"/>
    <path clip-path="url(#p052596627c)" d="M 69.75394 204.689659 
L 69.75394 184.057707 
" style="fill:none;stroke:#808080;stroke-opacity:0.8;stroke-width:0.5;"/>
    <path clip-path="url(#p052596627c)" d="M 175.818112 69.713522 
L 175.818112 49.850971 
" style="fill:none;stroke:#808080;stroke-opacity:0.8;stroke-width:0.5;"/>
    <path clip-path="url(#p052596627c)" d="M 158.359973 120.239367 
L 158.359973 88.873292 
" style="fill:none;stroke:#808080;stroke-opacity:0.8;stroke-width:0.5;"/>
    <path clip-path="url(#p052596627c)" d="M 112.203524 132.870602 
L 112.203524 110.45541 
" style="fill:none;stroke:#808080;stroke-opacity:0.8;stroke-width:0.5;"/>
    <path clip-path="url(#p052596627c)" d="M 93.071317 184.376577 
L 93.071317 149.898946 
" style="fill:none;stroke:#808080;stroke-opacity:0.8;stroke-width:0.5;"/>
    <path clip-path="url(#p052596627c)" d="M 132.890223 137.114756 
L 132.890223 97.988829 
" style="fill:none;stroke:#808080;stroke-opacity:0.8;stroke-width:0.5;"/>
    <path clip-path="url(#p052596627c)" d="M 72.743347 195.68623 
L 72.743347 183.757796 
" style="fill:none;stroke:#808080;stroke-opacity:0.8;stroke-width:0.5;"/>
    <path clip-path="url(#p052596627c)" d="M 109.214117 136.4324 
L 109.214117 129.70466 
" style="fill:none;stroke:#808080;stroke-opacity:0.8;stroke-width:0.5;"/>
    <path clip-path="url(#p052596627c)" d="M 75.134873 190.372951 
L 75.134873 146.474072 
" style="fill:none;stroke:#808080;stroke-opacity:0.8;stroke-width:0.5;"/>
   </g>
   <g id="PolyCollection_1">
    <path clip-path="url(#p052596627c)" d="M -553.83643 801.965278 
L -553.83643 826.128029 
L 641.926503 -382.00952 
L 641.926503 -406.172271 
L 641.926503 -406.172271 
L -553.83643 801.965278 
z
" style="fill:#808080;fill-opacity:0.1;stroke:#808080;stroke-opacity:0.1;"/>
   </g>
   <g id="patch_3">
    <path d="M 175.574325 23.538636 
Q 179.078028 24.982077 181.547986 25.999641 
" style="fill:none;stroke:#000000;stroke-linecap:round;"/>
    <path d="M 179.198703 23.301332 
L 181.547986 25.999641 
L 177.979769 26.260082 
" style="fill:none;stroke:#000000;stroke-linecap:round;"/>
   </g>
   <g id="text_21">
    <!-- SM06 -->
    <defs>
     <path d="M 4.5 23 
L 13.421875 23.78125 
Q 14.0625 18.40625 16.375 14.96875 
Q 18.703125 11.53125 23.578125 9.40625 
Q 28.46875 7.28125 34.578125 7.28125 
Q 39.984375 7.28125 44.140625 8.890625 
Q 48.296875 10.5 50.3125 13.296875 
Q 52.34375 16.109375 52.34375 19.4375 
Q 52.34375 22.796875 50.390625 25.3125 
Q 48.4375 27.828125 43.953125 29.546875 
Q 41.0625 30.671875 31.203125 33.03125 
Q 21.34375 35.40625 17.390625 37.5 
Q 12.25 40.1875 9.734375 44.15625 
Q 7.234375 48.140625 7.234375 53.078125 
Q 7.234375 58.5 10.296875 63.203125 
Q 13.375 67.921875 19.28125 70.359375 
Q 25.203125 72.796875 32.421875 72.796875 
Q 40.375 72.796875 46.453125 70.234375 
Q 52.546875 67.671875 55.8125 62.6875 
Q 59.078125 57.71875 59.328125 51.421875 
L 50.25 50.734375 
Q 49.515625 57.515625 45.28125 60.984375 
Q 41.0625 64.453125 32.8125 64.453125 
Q 24.21875 64.453125 20.28125 61.296875 
Q 16.359375 58.15625 16.359375 53.71875 
Q 16.359375 49.859375 19.140625 47.359375 
Q 21.875 44.875 33.421875 42.265625 
Q 44.96875 39.65625 49.265625 37.703125 
Q 55.515625 34.8125 58.484375 30.390625 
Q 61.46875 25.984375 61.46875 20.21875 
Q 61.46875 14.5 58.203125 9.4375 
Q 54.9375 4.390625 48.796875 1.578125 
Q 42.671875 -1.21875 35.015625 -1.21875 
Q 25.296875 -1.21875 18.71875 1.609375 
Q 12.15625 4.4375 8.421875 10.125 
Q 4.6875 15.828125 4.5 23 
z
" id="ArialMT-53"/>
     <path d="M 7.421875 0 
L 7.421875 71.578125 
L 21.6875 71.578125 
L 38.625 20.90625 
Q 40.96875 13.8125 42.046875 10.296875 
Q 43.265625 14.203125 45.84375 21.78125 
L 62.984375 71.578125 
L 75.734375 71.578125 
L 75.734375 0 
L 66.609375 0 
L 66.609375 59.90625 
L 45.796875 0 
L 37.25 0 
L 16.546875 60.9375 
L 16.546875 0 
z
" id="ArialMT-4d"/>
    </defs>
    <g style="fill:#262626;" transform="translate(163.278638 24.845867)scale(0.08 -0.08)">
     <use xlink:href="#ArialMT-53"/>
     <use x="66.699219" xlink:href="#ArialMT-4d"/>
     <use x="150" xlink:href="#ArialMT-30"/>
     <use x="205.615234" xlink:href="#ArialMT-36"/>
    </g>
   </g>
   <g id="patch_4">
    <path d="M 103.359513 121.868194 
Q 99.85581 123.311636 97.385852 124.3292 
" style="fill:none;stroke:#000000;stroke-linecap:round;"/>
    <path d="M 100.954068 124.58964 
L 97.385852 124.3292 
L 99.735134 121.630891 
" style="fill:none;stroke:#000000;stroke-linecap:round;"/>
   </g>
   <g id="text_22">
    <!-- SM08 -->
    <g style="fill:#262626;" transform="translate(94.7577 123.175425)scale(0.08 -0.08)">
     <use xlink:href="#ArialMT-53"/>
     <use x="66.699219" xlink:href="#ArialMT-4d"/>
     <use x="150" xlink:href="#ArialMT-30"/>
     <use x="205.615234" xlink:href="#ArialMT-38"/>
    </g>
   </g>
   <g id="patch_5">
    <path d="M 40.22 213.8425 
L 40.22 12.48 
" style="fill:none;stroke:#262626;stroke-linecap:square;stroke-linejoin:miter;stroke-width:0.8;"/>
   </g>
   <g id="patch_6">
    <path d="M 40.22 213.8425 
L 239.52 213.8425 
" style="fill:none;stroke:#262626;stroke-linecap:square;stroke-linejoin:miter;stroke-width:0.8;"/>
   </g>
  </g>
 </g>
 <defs>
  <clipPath id="p052596627c">
   <rect height="201.3625" width="199.3" x="40.22" y="12.48"/>
  </clipPath>
 </defs>
</svg>
