<?xml version="1.0" encoding="utf-8" standalone="no"?>
<!DOCTYPE svg PUBLIC "-//W3C//DTD SVG 1.1//EN"
  "http://www.w3.org/Graphics/SVG/1.1/DTD/svg11.dtd">
<!-- Created with matplotlib (http://matplotlib.org/) -->
<svg height="252pt" version="1.1" viewBox="0 0 252 252" width="252pt" xmlns="http://www.w3.org/2000/svg" xmlns:xlink="http://www.w3.org/1999/xlink">
 <defs>
  <style type="text/css">
*{stroke-linecap:butt;stroke-linejoin:round;}
  </style>
 </defs>
 <g id="figure_1">
  <g id="patch_1">
   <path d="M 0 252 
L 252 252 
L 252 0 
L 0 0 
z
" style="fill:#ffffff;"/>
  </g>
  <g id="axes_1">
   <g id="patch_2">
    <path d="M 40.22 213.8425 
L 235.59 213.8425 
L 235.59 14.4 
L 40.22 14.4 
z
" style="fill:#ffffff;"/>
   </g>
   <g id="line2d_1">
    <path clip-path="url(#p9f9532ec57)" d="M 1.862073 253 
L 250.675541 -1 
" style="fill:none;opacity:0.5;stroke:#000000;stroke-linecap:round;stroke-width:0.5;"/>
   </g>
   <g id="line2d_2">
    <path clip-path="url(#p9f9532ec57)" d="M -1 227.429948 
L 222.765541 -1 
" style="fill:none;opacity:0.5;stroke:#808080;stroke-dasharray:1.85,0.8;stroke-dashoffset:0;stroke-width:0.5;"/>
   </g>
   <g id="line2d_3">
    <path clip-path="url(#p9f9532ec57)" d="M 29.772073 253 
L 253 25.118873 
" style="fill:none;opacity:0.5;stroke:#808080;stroke-dasharray:1.85,0.8;stroke-dashoffset:0;stroke-width:0.5;"/>
   </g>
   <g id="PathCollection_1">
    <defs>
     <path d="M -2 2 
L 2 2 
L 2 -2 
L -2 -2 
z
" id="mcab8e805b4" style="stroke:#808080;stroke-opacity:0.8;stroke-width:0.7;"/>
    </defs>
    <g clip-path="url(#p9f9532ec57)">
     <use style="fill:#b1400d;fill-opacity:0.8;stroke:#808080;stroke-opacity:0.8;stroke-width:0.7;" x="173.21115" xlink:href="#mcab8e805b4" y="83.920915"/>
     <use style="fill:#b1400d;fill-opacity:0.8;stroke:#808080;stroke-opacity:0.8;stroke-width:0.7;" x="110.41365" xlink:href="#mcab8e805b4" y="154.582248"/>
     <use style="fill:#b1400d;fill-opacity:0.8;stroke:#808080;stroke-opacity:0.8;stroke-width:0.7;" x="138.1841" xlink:href="#mcab8e805b4" y="112.370028"/>
     <use style="fill:#b1400d;fill-opacity:0.8;stroke:#808080;stroke-opacity:0.8;stroke-width:0.7;" x="124.2291" xlink:href="#mcab8e805b4" y="133.948748"/>
     <use style="fill:#b1400d;fill-opacity:0.8;stroke:#808080;stroke-opacity:0.8;stroke-width:0.7;" x="104.27345" xlink:href="#mcab8e805b4" y="137.62421"/>
     <use style="fill:#b1400d;fill-opacity:0.8;stroke:#808080;stroke-opacity:0.8;stroke-width:0.7;" x="82.50365" xlink:href="#mcab8e805b4" y="182.897237"/>
     <use style="fill:#b1400d;fill-opacity:0.8;stroke:#808080;stroke-opacity:0.8;stroke-width:0.7;" x="204.0517" xlink:href="#mcab8e805b4" y="66.681999"/>
     <use style="fill:#b1400d;fill-opacity:0.8;stroke:#808080;stroke-opacity:0.8;stroke-width:0.7;" x="125.0664" xlink:href="#mcab8e805b4" y="133.948748"/>
     <use style="fill:#b1400d;fill-opacity:0.8;stroke:#808080;stroke-opacity:0.8;stroke-width:0.7;" x="99.1101" xlink:href="#mcab8e805b4" y="155.284617"/>
     <use style="fill:#b1400d;fill-opacity:0.8;stroke:#808080;stroke-opacity:0.8;stroke-width:0.7;" x="115.15835" xlink:href="#mcab8e805b4" y="154.579466"/>
     <use style="fill:#b1400d;fill-opacity:0.8;stroke:#808080;stroke-opacity:0.8;stroke-width:0.7;" x="166.0941" xlink:href="#mcab8e805b4" y="90.295321"/>
     <use style="fill:#b1400d;fill-opacity:0.8;stroke:#808080;stroke-opacity:0.8;stroke-width:0.7;" x="94.50495" xlink:href="#mcab8e805b4" y="158.690432"/>
     <use style="fill:#b1400d;fill-opacity:0.8;stroke:#808080;stroke-opacity:0.8;stroke-width:0.7;" x="113.9024" xlink:href="#mcab8e805b4" y="154.581149"/>
     <use style="fill:#b1400d;fill-opacity:0.8;stroke:#808080;stroke-opacity:0.8;stroke-width:0.7;" x="120.74035" xlink:href="#mcab8e805b4" y="150.593327"/>
     <use style="fill:#b1400d;fill-opacity:0.8;stroke:#808080;stroke-opacity:0.8;stroke-width:0.7;" x="114.1815" xlink:href="#mcab8e805b4" y="123.374605"/>
     <use style="fill:#b1400d;fill-opacity:0.8;stroke:#808080;stroke-opacity:0.8;stroke-width:0.7;" x="76.2239" xlink:href="#mcab8e805b4" y="209.853742"/>
     <use style="fill:#b1400d;fill-opacity:0.8;stroke:#808080;stroke-opacity:0.8;stroke-width:0.7;" x="164.9777" xlink:href="#mcab8e805b4" y="89.754147"/>
     <use style="fill:#b1400d;fill-opacity:0.8;stroke:#808080;stroke-opacity:0.8;stroke-width:0.7;" x="105.8085" xlink:href="#mcab8e805b4" y="130.943181"/>
     <use style="fill:#b1400d;fill-opacity:0.8;stroke:#808080;stroke-opacity:0.8;stroke-width:0.7;" x="115.15835" xlink:href="#mcab8e805b4" y="146.744366"/>
     <use style="fill:#b1400d;fill-opacity:0.8;stroke:#808080;stroke-opacity:0.8;stroke-width:0.7;" x="188.84075" xlink:href="#mcab8e805b4" y="73.479713"/>
     <use style="fill:#b1400d;fill-opacity:0.8;stroke:#808080;stroke-opacity:0.8;stroke-width:0.7;" x="84.3178" xlink:href="#mcab8e805b4" y="144.037625"/>
     <use style="fill:#b1400d;fill-opacity:0.8;stroke:#808080;stroke-opacity:0.8;stroke-width:0.7;" x="70.22325" xlink:href="#mcab8e805b4" y="182.06233"/>
     <use style="fill:#b1400d;fill-opacity:0.8;stroke:#808080;stroke-opacity:0.8;stroke-width:0.7;" x="194.0041" xlink:href="#mcab8e805b4" y="59.959665"/>
     <use style="fill:#b1400d;fill-opacity:0.8;stroke:#808080;stroke-opacity:0.8;stroke-width:0.7;" x="173.9089" xlink:href="#mcab8e805b4" y="83.418267"/>
     <use style="fill:#b1400d;fill-opacity:0.8;stroke:#808080;stroke-opacity:0.8;stroke-width:0.7;" x="173.6298" xlink:href="#mcab8e805b4" y="83.193505"/>
     <use style="fill:#b1400d;fill-opacity:0.8;stroke:#808080;stroke-opacity:0.8;stroke-width:0.7;" x="119.7635" xlink:href="#mcab8e805b4" y="99.163062"/>
     <use style="fill:#b1400d;fill-opacity:0.8;stroke:#808080;stroke-opacity:0.8;stroke-width:0.7;" x="97.4355" xlink:href="#mcab8e805b4" y="158.333919"/>
     <use style="fill:#b1400d;fill-opacity:0.8;stroke:#808080;stroke-opacity:0.8;stroke-width:0.7;" x="143.90565" xlink:href="#mcab8e805b4" y="117.109245"/>
     <use style="fill:#b1400d;fill-opacity:0.8;stroke:#808080;stroke-opacity:0.8;stroke-width:0.7;" x="73.712" xlink:href="#mcab8e805b4" y="163.989453"/>
     <use style="fill:#b1400d;fill-opacity:0.8;stroke:#808080;stroke-opacity:0.8;stroke-width:0.7;" x="116.27475" xlink:href="#mcab8e805b4" y="128.385149"/>
     <use style="fill:#b1400d;fill-opacity:0.8;stroke:#808080;stroke-opacity:0.8;stroke-width:0.7;" x="76.503" xlink:href="#mcab8e805b4" y="204.739834"/>
    </g>
   </g>
   <g id="matplotlib.axis_1">
    <g id="xtick_1">
     <g id="line2d_4">
      <defs>
       <path d="M 0 0 
L 0 3.5 
" id="md7d6cb9102" style="stroke:#262626;stroke-width:0.8;"/>
      </defs>
      <g>
       <use style="fill:#262626;stroke:#262626;stroke-width:0.8;" x="40.22" xlink:href="#md7d6cb9102" y="213.8425"/>
      </g>
     </g>
     <g id="text_1">
      <!-- 0 -->
      <defs>
       <path d="M 4.15625 35.296875 
Q 4.15625 48 6.765625 55.734375 
Q 9.375 63.484375 14.515625 67.671875 
Q 19.671875 71.875 27.484375 71.875 
Q 33.25 71.875 37.59375 69.546875 
Q 41.9375 67.234375 44.765625 62.859375 
Q 47.609375 58.5 49.21875 52.21875 
Q 50.828125 45.953125 50.828125 35.296875 
Q 50.828125 22.703125 48.234375 14.96875 
Q 45.65625 7.234375 40.5 3 
Q 35.359375 -1.21875 27.484375 -1.21875 
Q 17.140625 -1.21875 11.234375 6.203125 
Q 4.15625 15.140625 4.15625 35.296875 
z
M 13.1875 35.296875 
Q 13.1875 17.671875 17.3125 11.828125 
Q 21.4375 6 27.484375 6 
Q 33.546875 6 37.671875 11.859375 
Q 41.796875 17.71875 41.796875 35.296875 
Q 41.796875 52.984375 37.671875 58.78125 
Q 33.546875 64.59375 27.390625 64.59375 
Q 21.34375 64.59375 17.71875 59.46875 
Q 13.1875 52.9375 13.1875 35.296875 
z
" id="ArialMT-30"/>
      </defs>
      <g style="fill:#262626;" transform="translate(37.439531 228.000313)scale(0.1 -0.1)">
       <use xlink:href="#ArialMT-30"/>
      </g>
     </g>
    </g>
    <g id="xtick_2">
     <g id="line2d_5">
      <g>
       <use style="fill:#262626;stroke:#262626;stroke-width:0.8;" x="68.13" xlink:href="#md7d6cb9102" y="213.8425"/>
      </g>
     </g>
     <g id="text_2">
      <!-- 2 -->
      <defs>
       <path d="M 50.34375 8.453125 
L 50.34375 0 
L 3.03125 0 
Q 2.9375 3.171875 4.046875 6.109375 
Q 5.859375 10.9375 9.828125 15.625 
Q 13.8125 20.3125 21.34375 26.46875 
Q 33.015625 36.03125 37.109375 41.625 
Q 41.21875 47.21875 41.21875 52.203125 
Q 41.21875 57.421875 37.46875 61 
Q 33.734375 64.59375 27.734375 64.59375 
Q 21.390625 64.59375 17.578125 60.78125 
Q 13.765625 56.984375 13.71875 50.25 
L 4.6875 51.171875 
Q 5.609375 61.28125 11.65625 66.578125 
Q 17.71875 71.875 27.9375 71.875 
Q 38.234375 71.875 44.234375 66.15625 
Q 50.25 60.453125 50.25 52 
Q 50.25 47.703125 48.484375 43.546875 
Q 46.734375 39.40625 42.65625 34.8125 
Q 38.578125 30.21875 29.109375 22.21875 
Q 21.1875 15.578125 18.9375 13.203125 
Q 16.703125 10.84375 15.234375 8.453125 
z
" id="ArialMT-32"/>
      </defs>
      <g style="fill:#262626;" transform="translate(65.349531 228.000313)scale(0.1 -0.1)">
       <use xlink:href="#ArialMT-32"/>
      </g>
     </g>
    </g>
    <g id="xtick_3">
     <g id="line2d_6">
      <g>
       <use style="fill:#262626;stroke:#262626;stroke-width:0.8;" x="96.04" xlink:href="#md7d6cb9102" y="213.8425"/>
      </g>
     </g>
     <g id="text_3">
      <!-- 4 -->
      <defs>
       <path d="M 32.328125 0 
L 32.328125 17.140625 
L 1.265625 17.140625 
L 1.265625 25.203125 
L 33.9375 71.578125 
L 41.109375 71.578125 
L 41.109375 25.203125 
L 50.78125 25.203125 
L 50.78125 17.140625 
L 41.109375 17.140625 
L 41.109375 0 
z
M 32.328125 25.203125 
L 32.328125 57.46875 
L 9.90625 25.203125 
z
" id="ArialMT-34"/>
      </defs>
      <g style="fill:#262626;" transform="translate(93.259531 228.000313)scale(0.1 -0.1)">
       <use xlink:href="#ArialMT-34"/>
      </g>
     </g>
    </g>
    <g id="xtick_4">
     <g id="line2d_7">
      <g>
       <use style="fill:#262626;stroke:#262626;stroke-width:0.8;" x="123.95" xlink:href="#md7d6cb9102" y="213.8425"/>
      </g>
     </g>
     <g id="text_4">
      <!-- 6 -->
      <defs>
       <path d="M 49.75 54.046875 
L 41.015625 53.375 
Q 39.84375 58.546875 37.703125 60.890625 
Q 34.125 64.65625 28.90625 64.65625 
Q 24.703125 64.65625 21.53125 62.3125 
Q 17.390625 59.28125 14.984375 53.46875 
Q 12.59375 47.65625 12.5 36.921875 
Q 15.671875 41.75 20.265625 44.09375 
Q 24.859375 46.4375 29.890625 46.4375 
Q 38.671875 46.4375 44.84375 39.96875 
Q 51.03125 33.5 51.03125 23.25 
Q 51.03125 16.5 48.125 10.71875 
Q 45.21875 4.9375 40.140625 1.859375 
Q 35.0625 -1.21875 28.609375 -1.21875 
Q 17.625 -1.21875 10.6875 6.859375 
Q 3.765625 14.9375 3.765625 33.5 
Q 3.765625 54.25 11.421875 63.671875 
Q 18.109375 71.875 29.4375 71.875 
Q 37.890625 71.875 43.28125 67.140625 
Q 48.6875 62.40625 49.75 54.046875 
z
M 13.875 23.1875 
Q 13.875 18.65625 15.796875 14.5 
Q 17.71875 10.359375 21.1875 8.171875 
Q 24.65625 6 28.46875 6 
Q 34.03125 6 38.03125 10.484375 
Q 42.046875 14.984375 42.046875 22.703125 
Q 42.046875 30.125 38.078125 34.390625 
Q 34.125 38.671875 28.125 38.671875 
Q 22.171875 38.671875 18.015625 34.390625 
Q 13.875 30.125 13.875 23.1875 
z
" id="ArialMT-36"/>
      </defs>
      <g style="fill:#262626;" transform="translate(121.169531 228.000313)scale(0.1 -0.1)">
       <use xlink:href="#ArialMT-36"/>
      </g>
     </g>
    </g>
    <g id="xtick_5">
     <g id="line2d_8">
      <g>
       <use style="fill:#262626;stroke:#262626;stroke-width:0.8;" x="151.86" xlink:href="#md7d6cb9102" y="213.8425"/>
      </g>
     </g>
     <g id="text_5">
      <!-- 8 -->
      <defs>
       <path d="M 17.671875 38.8125 
Q 12.203125 40.828125 9.5625 44.53125 
Q 6.9375 48.25 6.9375 53.421875 
Q 6.9375 61.234375 12.546875 66.546875 
Q 18.171875 71.875 27.484375 71.875 
Q 36.859375 71.875 42.578125 66.421875 
Q 48.296875 60.984375 48.296875 53.171875 
Q 48.296875 48.1875 45.671875 44.5 
Q 43.0625 40.828125 37.75 38.8125 
Q 44.34375 36.671875 47.78125 31.875 
Q 51.21875 27.09375 51.21875 20.453125 
Q 51.21875 11.28125 44.71875 5.03125 
Q 38.234375 -1.21875 27.640625 -1.21875 
Q 17.046875 -1.21875 10.546875 5.046875 
Q 4.046875 11.328125 4.046875 20.703125 
Q 4.046875 27.6875 7.59375 32.390625 
Q 11.140625 37.109375 17.671875 38.8125 
z
M 15.921875 53.71875 
Q 15.921875 48.640625 19.1875 45.40625 
Q 22.46875 42.1875 27.6875 42.1875 
Q 32.765625 42.1875 36.015625 45.375 
Q 39.265625 48.578125 39.265625 53.21875 
Q 39.265625 58.0625 35.90625 61.359375 
Q 32.5625 64.65625 27.59375 64.65625 
Q 22.5625 64.65625 19.234375 61.421875 
Q 15.921875 58.203125 15.921875 53.71875 
z
M 13.09375 20.65625 
Q 13.09375 16.890625 14.875 13.375 
Q 16.65625 9.859375 20.171875 7.921875 
Q 23.6875 6 27.734375 6 
Q 34.03125 6 38.125 10.046875 
Q 42.234375 14.109375 42.234375 20.359375 
Q 42.234375 26.703125 38.015625 30.859375 
Q 33.796875 35.015625 27.4375 35.015625 
Q 21.234375 35.015625 17.15625 30.90625 
Q 13.09375 26.8125 13.09375 20.65625 
z
" id="ArialMT-38"/>
      </defs>
      <g style="fill:#262626;" transform="translate(149.079531 228.000313)scale(0.1 -0.1)">
       <use xlink:href="#ArialMT-38"/>
      </g>
     </g>
    </g>
    <g id="xtick_6">
     <g id="line2d_9">
      <g>
       <use style="fill:#262626;stroke:#262626;stroke-width:0.8;" x="179.77" xlink:href="#md7d6cb9102" y="213.8425"/>
      </g>
     </g>
     <g id="text_6">
      <!-- 10 -->
      <defs>
       <path d="M 37.25 0 
L 28.46875 0 
L 28.46875 56 
Q 25.296875 52.984375 20.140625 49.953125 
Q 14.984375 46.921875 10.890625 45.40625 
L 10.890625 53.90625 
Q 18.265625 57.375 23.78125 62.296875 
Q 29.296875 67.234375 31.59375 71.875 
L 37.25 71.875 
z
" id="ArialMT-31"/>
      </defs>
      <g style="fill:#262626;" transform="translate(174.209063 228.000313)scale(0.1 -0.1)">
       <use xlink:href="#ArialMT-31"/>
       <use x="55.615234" xlink:href="#ArialMT-30"/>
      </g>
     </g>
    </g>
    <g id="xtick_7">
     <g id="line2d_10">
      <g>
       <use style="fill:#262626;stroke:#262626;stroke-width:0.8;" x="207.68" xlink:href="#md7d6cb9102" y="213.8425"/>
      </g>
     </g>
     <g id="text_7">
      <!-- 12 -->
      <g style="fill:#262626;" transform="translate(202.119063 228.000313)scale(0.1 -0.1)">
       <use xlink:href="#ArialMT-31"/>
       <use x="55.615234" xlink:href="#ArialMT-32"/>
      </g>
     </g>
    </g>
    <g id="xtick_8">
     <g id="line2d_11">
      <g>
       <use style="fill:#262626;stroke:#262626;stroke-width:0.8;" x="235.59" xlink:href="#md7d6cb9102" y="213.8425"/>
      </g>
     </g>
     <g id="text_8">
      <!-- 14 -->
      <g style="fill:#262626;" transform="translate(230.029063 228.000313)scale(0.1 -0.1)">
       <use xlink:href="#ArialMT-31"/>
       <use x="55.615234" xlink:href="#ArialMT-34"/>
      </g>
     </g>
    </g>
    <g id="text_9">
     <!-- Experiment pKa -->
     <defs>
      <path d="M 7.90625 0 
L 7.90625 71.578125 
L 59.671875 71.578125 
L 59.671875 63.140625 
L 17.390625 63.140625 
L 17.390625 41.21875 
L 56.984375 41.21875 
L 56.984375 32.8125 
L 17.390625 32.8125 
L 17.390625 8.453125 
L 61.328125 8.453125 
L 61.328125 0 
z
" id="ArialMT-45"/>
      <path d="M 0.734375 0 
L 19.671875 26.953125 
L 2.15625 51.859375 
L 13.140625 51.859375 
L 21.09375 39.703125 
Q 23.34375 36.234375 24.703125 33.890625 
Q 26.859375 37.109375 28.65625 39.59375 
L 37.40625 51.859375 
L 47.90625 51.859375 
L 29.984375 27.4375 
L 49.265625 0 
L 38.484375 0 
L 27.828125 16.109375 
L 25 20.453125 
L 11.375 0 
z
" id="ArialMT-78"/>
      <path d="M 6.59375 -19.875 
L 6.59375 51.859375 
L 14.59375 51.859375 
L 14.59375 45.125 
Q 17.4375 49.078125 21 51.046875 
Q 24.5625 53.03125 29.640625 53.03125 
Q 36.28125 53.03125 41.359375 49.609375 
Q 46.4375 46.1875 49.015625 39.953125 
Q 51.609375 33.734375 51.609375 26.3125 
Q 51.609375 18.359375 48.75 11.984375 
Q 45.90625 5.609375 40.453125 2.21875 
Q 35.015625 -1.171875 29 -1.171875 
Q 24.609375 -1.171875 21.109375 0.6875 
Q 17.625 2.546875 15.375 5.375 
L 15.375 -19.875 
z
M 14.546875 25.640625 
Q 14.546875 15.625 18.59375 10.84375 
Q 22.65625 6.0625 28.421875 6.0625 
Q 34.28125 6.0625 38.453125 11.015625 
Q 42.625 15.96875 42.625 26.375 
Q 42.625 36.28125 38.546875 41.203125 
Q 34.46875 46.140625 28.8125 46.140625 
Q 23.1875 46.140625 18.859375 40.890625 
Q 14.546875 35.640625 14.546875 25.640625 
z
" id="ArialMT-70"/>
      <path d="M 42.09375 16.703125 
L 51.171875 15.578125 
Q 49.03125 7.625 43.21875 3.21875 
Q 37.40625 -1.171875 28.375 -1.171875 
Q 17 -1.171875 10.328125 5.828125 
Q 3.65625 12.84375 3.65625 25.484375 
Q 3.65625 38.578125 10.390625 45.796875 
Q 17.140625 53.03125 27.875 53.03125 
Q 38.28125 53.03125 44.875 45.953125 
Q 51.46875 38.875 51.46875 26.03125 
Q 51.46875 25.25 51.421875 23.6875 
L 12.75 23.6875 
Q 13.234375 15.140625 17.578125 10.59375 
Q 21.921875 6.0625 28.421875 6.0625 
Q 33.25 6.0625 36.671875 8.59375 
Q 40.09375 11.140625 42.09375 16.703125 
z
M 13.234375 30.90625 
L 42.1875 30.90625 
Q 41.609375 37.453125 38.875 40.71875 
Q 34.671875 45.796875 27.984375 45.796875 
Q 21.921875 45.796875 17.796875 41.75 
Q 13.671875 37.703125 13.234375 30.90625 
z
" id="ArialMT-65"/>
      <path d="M 6.5 0 
L 6.5 51.859375 
L 14.40625 51.859375 
L 14.40625 44 
Q 17.4375 49.515625 20 51.265625 
Q 22.5625 53.03125 25.640625 53.03125 
Q 30.078125 53.03125 34.671875 50.203125 
L 31.640625 42.046875 
Q 28.421875 43.953125 25.203125 43.953125 
Q 22.3125 43.953125 20.015625 42.21875 
Q 17.71875 40.484375 16.75 37.40625 
Q 15.28125 32.71875 15.28125 27.15625 
L 15.28125 0 
z
" id="ArialMT-72"/>
      <path d="M 6.640625 61.46875 
L 6.640625 71.578125 
L 15.4375 71.578125 
L 15.4375 61.46875 
z
M 6.640625 0 
L 6.640625 51.859375 
L 15.4375 51.859375 
L 15.4375 0 
z
" id="ArialMT-69"/>
      <path d="M 6.59375 0 
L 6.59375 51.859375 
L 14.453125 51.859375 
L 14.453125 44.578125 
Q 16.890625 48.390625 20.9375 50.703125 
Q 25 53.03125 30.171875 53.03125 
Q 35.9375 53.03125 39.625 50.640625 
Q 43.3125 48.25 44.828125 43.953125 
Q 50.984375 53.03125 60.84375 53.03125 
Q 68.5625 53.03125 72.703125 48.75 
Q 76.859375 44.484375 76.859375 35.59375 
L 76.859375 0 
L 68.109375 0 
L 68.109375 32.671875 
Q 68.109375 37.9375 67.25 40.25 
Q 66.40625 42.578125 64.15625 43.984375 
Q 61.921875 45.40625 58.890625 45.40625 
Q 53.421875 45.40625 49.796875 41.765625 
Q 46.1875 38.140625 46.1875 30.125 
L 46.1875 0 
L 37.40625 0 
L 37.40625 33.6875 
Q 37.40625 39.546875 35.25 42.46875 
Q 33.109375 45.40625 28.21875 45.40625 
Q 24.515625 45.40625 21.359375 43.453125 
Q 18.21875 41.5 16.796875 37.734375 
Q 15.375 33.984375 15.375 26.90625 
L 15.375 0 
z
" id="ArialMT-6d"/>
      <path d="M 6.59375 0 
L 6.59375 51.859375 
L 14.5 51.859375 
L 14.5 44.484375 
Q 20.21875 53.03125 31 53.03125 
Q 35.6875 53.03125 39.625 51.34375 
Q 43.5625 49.65625 45.515625 46.921875 
Q 47.46875 44.1875 48.25 40.4375 
Q 48.734375 37.984375 48.734375 31.890625 
L 48.734375 0 
L 39.9375 0 
L 39.9375 31.546875 
Q 39.9375 36.921875 38.90625 39.578125 
Q 37.890625 42.234375 35.28125 43.8125 
Q 32.671875 45.40625 29.15625 45.40625 
Q 23.53125 45.40625 19.453125 41.84375 
Q 15.375 38.28125 15.375 28.328125 
L 15.375 0 
z
" id="ArialMT-6e"/>
      <path d="M 25.78125 7.859375 
L 27.046875 0.09375 
Q 23.34375 -0.6875 20.40625 -0.6875 
Q 15.625 -0.6875 12.984375 0.828125 
Q 10.359375 2.34375 9.28125 4.8125 
Q 8.203125 7.28125 8.203125 15.1875 
L 8.203125 45.015625 
L 1.765625 45.015625 
L 1.765625 51.859375 
L 8.203125 51.859375 
L 8.203125 64.703125 
L 16.9375 69.96875 
L 16.9375 51.859375 
L 25.78125 51.859375 
L 25.78125 45.015625 
L 16.9375 45.015625 
L 16.9375 14.703125 
Q 16.9375 10.9375 17.40625 9.859375 
Q 17.875 8.796875 18.921875 8.15625 
Q 19.96875 7.515625 21.921875 7.515625 
Q 23.390625 7.515625 25.78125 7.859375 
z
" id="ArialMT-74"/>
      <path id="ArialMT-20"/>
      <path d="M 7.328125 0 
L 7.328125 71.578125 
L 16.796875 71.578125 
L 16.796875 36.078125 
L 52.34375 71.578125 
L 65.1875 71.578125 
L 35.15625 42.578125 
L 66.5 0 
L 54 0 
L 28.515625 36.234375 
L 16.796875 24.8125 
L 16.796875 0 
z
" id="ArialMT-4b"/>
      <path d="M 40.4375 6.390625 
Q 35.546875 2.25 31.03125 0.53125 
Q 26.515625 -1.171875 21.34375 -1.171875 
Q 12.796875 -1.171875 8.203125 3 
Q 3.609375 7.171875 3.609375 13.671875 
Q 3.609375 17.484375 5.34375 20.625 
Q 7.078125 23.78125 9.890625 25.6875 
Q 12.703125 27.59375 16.21875 28.5625 
Q 18.796875 29.25 24.03125 29.890625 
Q 34.671875 31.15625 39.703125 32.90625 
Q 39.75 34.71875 39.75 35.203125 
Q 39.75 40.578125 37.25 42.78125 
Q 33.890625 45.75 27.25 45.75 
Q 21.046875 45.75 18.09375 43.578125 
Q 15.140625 41.40625 13.71875 35.890625 
L 5.125 37.0625 
Q 6.296875 42.578125 8.984375 45.96875 
Q 11.671875 49.359375 16.75 51.1875 
Q 21.828125 53.03125 28.515625 53.03125 
Q 35.15625 53.03125 39.296875 51.46875 
Q 43.453125 49.90625 45.40625 47.53125 
Q 47.359375 45.171875 48.140625 41.546875 
Q 48.578125 39.3125 48.578125 33.453125 
L 48.578125 21.734375 
Q 48.578125 9.46875 49.140625 6.21875 
Q 49.703125 2.984375 51.375 0 
L 42.1875 0 
Q 40.828125 2.734375 40.4375 6.390625 
z
M 39.703125 26.03125 
Q 34.90625 24.078125 25.34375 22.703125 
Q 19.921875 21.921875 17.671875 20.9375 
Q 15.4375 19.96875 14.203125 18.09375 
Q 12.984375 16.21875 12.984375 13.921875 
Q 12.984375 10.40625 15.640625 8.0625 
Q 18.3125 5.71875 23.4375 5.71875 
Q 28.515625 5.71875 32.46875 7.9375 
Q 36.421875 10.15625 38.28125 14.015625 
Q 39.703125 17 39.703125 22.796875 
z
" id="ArialMT-61"/>
     </defs>
     <g style="fill:#262626;" transform="translate(109.4475 239.714063)scale(0.08 -0.08)">
      <use xlink:href="#ArialMT-45"/>
      <use x="66.699219" xlink:href="#ArialMT-78"/>
      <use x="116.699219" xlink:href="#ArialMT-70"/>
      <use x="172.314453" xlink:href="#ArialMT-65"/>
      <use x="227.929688" xlink:href="#ArialMT-72"/>
      <use x="261.230469" xlink:href="#ArialMT-69"/>
      <use x="283.447266" xlink:href="#ArialMT-6d"/>
      <use x="366.748047" xlink:href="#ArialMT-65"/>
      <use x="422.363281" xlink:href="#ArialMT-6e"/>
      <use x="477.978516" xlink:href="#ArialMT-74"/>
      <use x="505.761719" xlink:href="#ArialMT-20"/>
      <use x="533.544922" xlink:href="#ArialMT-70"/>
      <use x="589.160156" xlink:href="#ArialMT-4b"/>
      <use x="655.859375" xlink:href="#ArialMT-61"/>
     </g>
    </g>
   </g>
   <g id="matplotlib.axis_2">
    <g id="ytick_1">
     <g id="line2d_12">
      <defs>
       <path d="M 0 0 
L -3.5 0 
" id="m891c523337" style="stroke:#262626;stroke-width:0.8;"/>
      </defs>
      <g>
       <use style="fill:#262626;stroke:#262626;stroke-width:0.8;" x="40.22" xlink:href="#m891c523337" y="213.8425"/>
      </g>
     </g>
     <g id="text_10">
      <!-- 0 -->
      <g style="fill:#262626;" transform="translate(27.659063 217.421406)scale(0.1 -0.1)">
       <use xlink:href="#ArialMT-30"/>
      </g>
     </g>
    </g>
    <g id="ytick_2">
     <g id="line2d_13">
      <g>
       <use style="fill:#262626;stroke:#262626;stroke-width:0.8;" x="40.22" xlink:href="#m891c523337" y="185.350714"/>
      </g>
     </g>
     <g id="text_11">
      <!-- 2 -->
      <g style="fill:#262626;" transform="translate(27.659063 188.929621)scale(0.1 -0.1)">
       <use xlink:href="#ArialMT-32"/>
      </g>
     </g>
    </g>
    <g id="ytick_3">
     <g id="line2d_14">
      <g>
       <use style="fill:#262626;stroke:#262626;stroke-width:0.8;" x="40.22" xlink:href="#m891c523337" y="156.858929"/>
      </g>
     </g>
     <g id="text_12">
      <!-- 4 -->
      <g style="fill:#262626;" transform="translate(27.659063 160.437835)scale(0.1 -0.1)">
       <use xlink:href="#ArialMT-34"/>
      </g>
     </g>
    </g>
    <g id="ytick_4">
     <g id="line2d_15">
      <g>
       <use style="fill:#262626;stroke:#262626;stroke-width:0.8;" x="40.22" xlink:href="#m891c523337" y="128.367143"/>
      </g>
     </g>
     <g id="text_13">
      <!-- 6 -->
      <g style="fill:#262626;" transform="translate(27.659063 131.946049)scale(0.1 -0.1)">
       <use xlink:href="#ArialMT-36"/>
      </g>
     </g>
    </g>
    <g id="ytick_5">
     <g id="line2d_16">
      <g>
       <use style="fill:#262626;stroke:#262626;stroke-width:0.8;" x="40.22" xlink:href="#m891c523337" y="99.875357"/>
      </g>
     </g>
     <g id="text_14">
      <!-- 8 -->
      <g style="fill:#262626;" transform="translate(27.659063 103.454263)scale(0.1 -0.1)">
       <use xlink:href="#ArialMT-38"/>
      </g>
     </g>
    </g>
    <g id="ytick_6">
     <g id="line2d_17">
      <g>
       <use style="fill:#262626;stroke:#262626;stroke-width:0.8;" x="40.22" xlink:href="#m891c523337" y="71.383571"/>
      </g>
     </g>
     <g id="text_15">
      <!-- 10 -->
      <g style="fill:#262626;" transform="translate(22.098125 74.962478)scale(0.1 -0.1)">
       <use xlink:href="#ArialMT-31"/>
       <use x="55.615234" xlink:href="#ArialMT-30"/>
      </g>
     </g>
    </g>
    <g id="ytick_7">
     <g id="line2d_18">
      <g>
       <use style="fill:#262626;stroke:#262626;stroke-width:0.8;" x="40.22" xlink:href="#m891c523337" y="42.891786"/>
      </g>
     </g>
     <g id="text_16">
      <!-- 12 -->
      <g style="fill:#262626;" transform="translate(22.098125 46.470692)scale(0.1 -0.1)">
       <use xlink:href="#ArialMT-31"/>
       <use x="55.615234" xlink:href="#ArialMT-32"/>
      </g>
     </g>
    </g>
    <g id="ytick_8">
     <g id="line2d_19">
      <g>
       <use style="fill:#262626;stroke:#262626;stroke-width:0.8;" x="40.22" xlink:href="#m891c523337" y="14.4"/>
      </g>
     </g>
     <g id="text_17">
      <!-- 14 -->
      <g style="fill:#262626;" transform="translate(22.098125 17.978906)scale(0.1 -0.1)">
       <use xlink:href="#ArialMT-31"/>
       <use x="55.615234" xlink:href="#ArialMT-34"/>
      </g>
     </g>
    </g>
    <g id="text_18">
     <!-- Epik macro pKa -->
     <defs>
      <path d="M 6.640625 0 
L 6.640625 71.578125 
L 15.4375 71.578125 
L 15.4375 30.765625 
L 36.234375 51.859375 
L 47.609375 51.859375 
L 27.78125 32.625 
L 49.609375 0 
L 38.765625 0 
L 21.625 26.515625 
L 15.4375 20.5625 
L 15.4375 0 
z
" id="ArialMT-6b"/>
      <path d="M 40.4375 19 
L 49.078125 17.875 
Q 47.65625 8.9375 41.8125 3.875 
Q 35.984375 -1.171875 27.484375 -1.171875 
Q 16.84375 -1.171875 10.375 5.78125 
Q 3.90625 12.75 3.90625 25.734375 
Q 3.90625 34.125 6.6875 40.421875 
Q 9.46875 46.734375 15.15625 49.875 
Q 20.84375 53.03125 27.546875 53.03125 
Q 35.984375 53.03125 41.359375 48.75 
Q 46.734375 44.484375 48.25 36.625 
L 39.703125 35.296875 
Q 38.484375 40.53125 35.375 43.15625 
Q 32.28125 45.796875 27.875 45.796875 
Q 21.234375 45.796875 17.078125 41.03125 
Q 12.9375 36.28125 12.9375 25.984375 
Q 12.9375 15.53125 16.9375 10.796875 
Q 20.953125 6.0625 27.390625 6.0625 
Q 32.5625 6.0625 36.03125 9.234375 
Q 39.5 12.40625 40.4375 19 
z
" id="ArialMT-63"/>
      <path d="M 3.328125 25.921875 
Q 3.328125 40.328125 11.328125 47.265625 
Q 18.015625 53.03125 27.640625 53.03125 
Q 38.328125 53.03125 45.109375 46.015625 
Q 51.90625 39.015625 51.90625 26.65625 
Q 51.90625 16.65625 48.90625 10.90625 
Q 45.90625 5.171875 40.15625 2 
Q 34.421875 -1.171875 27.640625 -1.171875 
Q 16.75 -1.171875 10.03125 5.8125 
Q 3.328125 12.796875 3.328125 25.921875 
z
M 12.359375 25.921875 
Q 12.359375 15.96875 16.703125 11.015625 
Q 21.046875 6.0625 27.640625 6.0625 
Q 34.1875 6.0625 38.53125 11.03125 
Q 42.875 16.015625 42.875 26.21875 
Q 42.875 35.84375 38.5 40.796875 
Q 34.125 45.75 27.640625 45.75 
Q 21.046875 45.75 16.703125 40.8125 
Q 12.359375 35.890625 12.359375 25.921875 
z
" id="ArialMT-6f"/>
     </defs>
     <g style="fill:#262626;" transform="translate(16.508125 142.354375)rotate(-90)scale(0.08 -0.08)">
      <use xlink:href="#ArialMT-45"/>
      <use x="66.699219" xlink:href="#ArialMT-70"/>
      <use x="122.314453" xlink:href="#ArialMT-69"/>
      <use x="144.53125" xlink:href="#ArialMT-6b"/>
      <use x="194.53125" xlink:href="#ArialMT-20"/>
      <use x="222.314453" xlink:href="#ArialMT-6d"/>
      <use x="305.615234" xlink:href="#ArialMT-61"/>
      <use x="361.230469" xlink:href="#ArialMT-63"/>
      <use x="411.230469" xlink:href="#ArialMT-72"/>
      <use x="444.53125" xlink:href="#ArialMT-6f"/>
      <use x="500.146484" xlink:href="#ArialMT-20"/>
      <use x="527.929688" xlink:href="#ArialMT-70"/>
      <use x="583.544922" xlink:href="#ArialMT-4b"/>
      <use x="650.244141" xlink:href="#ArialMT-61"/>
     </g>
    </g>
   </g>
   <g id="LineCollection_1">
    <path clip-path="url(#p9f9532ec57)" d="M 173.0716 83.920915 
L 173.3507 83.920915 
" style="fill:none;stroke:#808080;stroke-opacity:0.8;stroke-width:0.5;"/>
    <path clip-path="url(#p9f9532ec57)" d="M 110.2741 154.582248 
L 110.5532 154.582248 
" style="fill:none;stroke:#808080;stroke-opacity:0.8;stroke-width:0.5;"/>
    <path clip-path="url(#p9f9532ec57)" d="M 138.04455 112.370028 
L 138.32365 112.370028 
" style="fill:none;stroke:#808080;stroke-opacity:0.8;stroke-width:0.5;"/>
    <path clip-path="url(#p9f9532ec57)" d="M 124.08955 133.948748 
L 124.36865 133.948748 
" style="fill:none;stroke:#808080;stroke-opacity:0.8;stroke-width:0.5;"/>
    <path clip-path="url(#p9f9532ec57)" d="M 104.1339 137.62421 
L 104.413 137.62421 
" style="fill:none;stroke:#808080;stroke-opacity:0.8;stroke-width:0.5;"/>
    <path clip-path="url(#p9f9532ec57)" d="M 81.94545 182.897237 
L 83.06185 182.897237 
" style="fill:none;stroke:#808080;stroke-opacity:0.8;stroke-width:0.5;"/>
    <path clip-path="url(#p9f9532ec57)" d="M 203.91215 66.681999 
L 204.19125 66.681999 
" style="fill:none;stroke:#808080;stroke-opacity:0.8;stroke-width:0.5;"/>
    <path clip-path="url(#p9f9532ec57)" d="M 124.92685 133.948748 
L 125.20595 133.948748 
" style="fill:none;stroke:#808080;stroke-opacity:0.8;stroke-width:0.5;"/>
    <path clip-path="url(#p9f9532ec57)" d="M 98.97055 155.284617 
L 99.24965 155.284617 
" style="fill:none;stroke:#808080;stroke-opacity:0.8;stroke-width:0.5;"/>
    <path clip-path="url(#p9f9532ec57)" d="M 115.0188 154.579466 
L 115.2979 154.579466 
" style="fill:none;stroke:#808080;stroke-opacity:0.8;stroke-width:0.5;"/>
    <path clip-path="url(#p9f9532ec57)" d="M 165.95455 90.295321 
L 166.23365 90.295321 
" style="fill:none;stroke:#808080;stroke-opacity:0.8;stroke-width:0.5;"/>
    <path clip-path="url(#p9f9532ec57)" d="M 94.3654 158.690432 
L 94.6445 158.690432 
" style="fill:none;stroke:#808080;stroke-opacity:0.8;stroke-width:0.5;"/>
    <path clip-path="url(#p9f9532ec57)" d="M 113.76285 154.581149 
L 114.04195 154.581149 
" style="fill:none;stroke:#808080;stroke-opacity:0.8;stroke-width:0.5;"/>
    <path clip-path="url(#p9f9532ec57)" d="M 120.6008 150.593327 
L 120.8799 150.593327 
" style="fill:none;stroke:#808080;stroke-opacity:0.8;stroke-width:0.5;"/>
    <path clip-path="url(#p9f9532ec57)" d="M 114.04195 123.374605 
L 114.32105 123.374605 
" style="fill:none;stroke:#808080;stroke-opacity:0.8;stroke-width:0.5;"/>
    <path clip-path="url(#p9f9532ec57)" d="M 76.08435 209.853742 
L 76.36345 209.853742 
" style="fill:none;stroke:#808080;stroke-opacity:0.8;stroke-width:0.5;"/>
    <path clip-path="url(#p9f9532ec57)" d="M 164.83815 89.754147 
L 165.11725 89.754147 
" style="fill:none;stroke:#808080;stroke-opacity:0.8;stroke-width:0.5;"/>
    <path clip-path="url(#p9f9532ec57)" d="M 105.66895 130.943181 
L 105.94805 130.943181 
" style="fill:none;stroke:#808080;stroke-opacity:0.8;stroke-width:0.5;"/>
    <path clip-path="url(#p9f9532ec57)" d="M 115.0188 146.744366 
L 115.2979 146.744366 
" style="fill:none;stroke:#808080;stroke-opacity:0.8;stroke-width:0.5;"/>
    <path clip-path="url(#p9f9532ec57)" d="M 188.7012 73.479713 
L 188.9803 73.479713 
" style="fill:none;stroke:#808080;stroke-opacity:0.8;stroke-width:0.5;"/>
    <path clip-path="url(#p9f9532ec57)" d="M 84.17825 144.037625 
L 84.45735 144.037625 
" style="fill:none;stroke:#808080;stroke-opacity:0.8;stroke-width:0.5;"/>
    <path clip-path="url(#p9f9532ec57)" d="M 69.94415 182.06233 
L 70.50235 182.06233 
" style="fill:none;stroke:#808080;stroke-opacity:0.8;stroke-width:0.5;"/>
    <path clip-path="url(#p9f9532ec57)" d="M 193.4459 59.959665 
L 194.5623 59.959665 
" style="fill:none;stroke:#808080;stroke-opacity:0.8;stroke-width:0.5;"/>
    <path clip-path="url(#p9f9532ec57)" d="M 173.49025 83.418267 
L 174.32755 83.418267 
" style="fill:none;stroke:#808080;stroke-opacity:0.8;stroke-width:0.5;"/>
    <path clip-path="url(#p9f9532ec57)" d="M 173.3507 83.193505 
L 173.9089 83.193505 
" style="fill:none;stroke:#808080;stroke-opacity:0.8;stroke-width:0.5;"/>
    <path clip-path="url(#p9f9532ec57)" d="M 119.34485 99.163062 
L 120.18215 99.163062 
" style="fill:none;stroke:#808080;stroke-opacity:0.8;stroke-width:0.5;"/>
    <path clip-path="url(#p9f9532ec57)" d="M 97.29595 158.333919 
L 97.57505 158.333919 
" style="fill:none;stroke:#808080;stroke-opacity:0.8;stroke-width:0.5;"/>
    <path clip-path="url(#p9f9532ec57)" d="M 143.7661 117.109245 
L 144.0452 117.109245 
" style="fill:none;stroke:#808080;stroke-opacity:0.8;stroke-width:0.5;"/>
    <path clip-path="url(#p9f9532ec57)" d="M 73.4329 163.989453 
L 73.9911 163.989453 
" style="fill:none;stroke:#808080;stroke-opacity:0.8;stroke-width:0.5;"/>
    <path clip-path="url(#p9f9532ec57)" d="M 116.1352 128.385149 
L 116.4143 128.385149 
" style="fill:none;stroke:#808080;stroke-opacity:0.8;stroke-width:0.5;"/>
    <path clip-path="url(#p9f9532ec57)" d="M 76.36345 204.739834 
L 76.64255 204.739834 
" style="fill:none;stroke:#808080;stroke-opacity:0.8;stroke-width:0.5;"/>
   </g>
   <g id="LineCollection_2">
    <path clip-path="url(#p9f9532ec57)" d="M 173.21115 99.416975 
L 173.21115 68.424856 
" style="fill:none;stroke:#808080;stroke-opacity:0.8;stroke-width:0.5;"/>
    <path clip-path="url(#p9f9532ec57)" d="M 110.41365 168.986017 
L 110.41365 140.178479 
" style="fill:none;stroke:#808080;stroke-opacity:0.8;stroke-width:0.5;"/>
    <path clip-path="url(#p9f9532ec57)" d="M 138.1841 140.638194 
L 138.1841 84.101862 
" style="fill:none;stroke:#808080;stroke-opacity:0.8;stroke-width:0.5;"/>
    <path clip-path="url(#p9f9532ec57)" d="M 124.2291 149.876657 
L 124.2291 118.020839 
" style="fill:none;stroke:#808080;stroke-opacity:0.8;stroke-width:0.5;"/>
    <path clip-path="url(#p9f9532ec57)" d="M 104.27345 166.566641 
L 104.27345 108.68178 
" style="fill:none;stroke:#808080;stroke-opacity:0.8;stroke-width:0.5;"/>
    <path clip-path="url(#p9f9532ec57)" d="M 82.50365 213.394592 
L 82.50365 152.399881 
" style="fill:none;stroke:#808080;stroke-opacity:0.8;stroke-width:0.5;"/>
    <path clip-path="url(#p9f9532ec57)" d="M 204.0517 82.975951 
L 204.0517 50.388046 
" style="fill:none;stroke:#808080;stroke-opacity:0.8;stroke-width:0.5;"/>
    <path clip-path="url(#p9f9532ec57)" d="M 125.0664 149.965299 
L 125.0664 117.932197 
" style="fill:none;stroke:#808080;stroke-opacity:0.8;stroke-width:0.5;"/>
    <path clip-path="url(#p9f9532ec57)" d="M 99.1101 183.120499 
L 99.1101 127.448736 
" style="fill:none;stroke:#808080;stroke-opacity:0.8;stroke-width:0.5;"/>
    <path clip-path="url(#p9f9532ec57)" d="M 115.15835 168.922839 
L 115.15835 140.236094 
" style="fill:none;stroke:#808080;stroke-opacity:0.8;stroke-width:0.5;"/>
    <path clip-path="url(#p9f9532ec57)" d="M 166.0941 115.412969 
L 166.0941 65.177672 
" style="fill:none;stroke:#808080;stroke-opacity:0.8;stroke-width:0.5;"/>
    <path clip-path="url(#p9f9532ec57)" d="M 94.50495 182.876334 
L 94.50495 134.50453 
" style="fill:none;stroke:#808080;stroke-opacity:0.8;stroke-width:0.5;"/>
    <path clip-path="url(#p9f9532ec57)" d="M 113.9024 169.029866 
L 113.9024 140.132432 
" style="fill:none;stroke:#808080;stroke-opacity:0.8;stroke-width:0.5;"/>
    <path clip-path="url(#p9f9532ec57)" d="M 120.74035 173.392138 
L 120.74035 127.794516 
" style="fill:none;stroke:#808080;stroke-opacity:0.8;stroke-width:0.5;"/>
    <path clip-path="url(#p9f9532ec57)" d="M 114.1815 151.492648 
L 114.1815 95.256562 
" style="fill:none;stroke:#808080;stroke-opacity:0.8;stroke-width:0.5;"/>
    <path clip-path="url(#p9f9532ec57)" d="M 76.2239 219.771099 
L 76.2239 199.936384 
" style="fill:none;stroke:#808080;stroke-opacity:0.8;stroke-width:0.5;"/>
    <path clip-path="url(#p9f9532ec57)" d="M 164.9777 117.554135 
L 164.9777 61.95416 
" style="fill:none;stroke:#808080;stroke-opacity:0.8;stroke-width:0.5;"/>
    <path clip-path="url(#p9f9532ec57)" d="M 105.8085 145.56781 
L 105.8085 116.318552 
" style="fill:none;stroke:#808080;stroke-opacity:0.8;stroke-width:0.5;"/>
    <path clip-path="url(#p9f9532ec57)" d="M 115.15835 173.20511 
L 115.15835 120.283621 
" style="fill:none;stroke:#808080;stroke-opacity:0.8;stroke-width:0.5;"/>
    <path clip-path="url(#p9f9532ec57)" d="M 188.84075 103.139293 
L 188.84075 43.820133 
" style="fill:none;stroke:#808080;stroke-opacity:0.8;stroke-width:0.5;"/>
    <path clip-path="url(#p9f9532ec57)" d="M 84.3178 154.685753 
L 84.3178 133.389497 
" style="fill:none;stroke:#808080;stroke-opacity:0.8;stroke-width:0.5;"/>
    <path clip-path="url(#p9f9532ec57)" d="M 70.22325 198.565228 
L 70.22325 165.559431 
" style="fill:none;stroke:#808080;stroke-opacity:0.8;stroke-width:0.5;"/>
    <path clip-path="url(#p9f9532ec57)" d="M 194.0041 81.723222 
L 194.0041 38.196108 
" style="fill:none;stroke:#808080;stroke-opacity:0.8;stroke-width:0.5;"/>
    <path clip-path="url(#p9f9532ec57)" d="M 173.9089 98.683104 
L 173.9089 68.153429 
" style="fill:none;stroke:#808080;stroke-opacity:0.8;stroke-width:0.5;"/>
    <path clip-path="url(#p9f9532ec57)" d="M 173.6298 107.391804 
L 173.6298 58.995207 
" style="fill:none;stroke:#808080;stroke-opacity:0.8;stroke-width:0.5;"/>
    <path clip-path="url(#p9f9532ec57)" d="M 119.7635 131.328017 
L 119.7635 66.998108 
" style="fill:none;stroke:#808080;stroke-opacity:0.8;stroke-width:0.5;"/>
    <path clip-path="url(#p9f9532ec57)" d="M 97.4355 182.677213 
L 97.4355 133.990624 
" style="fill:none;stroke:#808080;stroke-opacity:0.8;stroke-width:0.5;"/>
    <path clip-path="url(#p9f9532ec57)" d="M 143.90565 142.0025 
L 143.90565 92.215991 
" style="fill:none;stroke:#808080;stroke-opacity:0.8;stroke-width:0.5;"/>
    <path clip-path="url(#p9f9532ec57)" d="M 73.712 175.893377 
L 73.712 152.085528 
" style="fill:none;stroke:#808080;stroke-opacity:0.8;stroke-width:0.5;"/>
    <path clip-path="url(#p9f9532ec57)" d="M 116.27475 141.204161 
L 116.27475 115.566137 
" style="fill:none;stroke:#808080;stroke-opacity:0.8;stroke-width:0.5;"/>
    <path clip-path="url(#p9f9532ec57)" d="M 76.503 214.905844 
L 76.503 194.573823 
" style="fill:none;stroke:#808080;stroke-opacity:0.8;stroke-width:0.5;"/>
   </g>
   <g id="PolyCollection_1">
    <path clip-path="url(#p9f9532ec57)" d="M -657.53 911.89125 
L -657.53 940.383036 
L 737.97 -484.20625 
L 737.97 -512.698036 
L 737.97 -512.698036 
L -657.53 911.89125 
z
" style="fill:#808080;fill-opacity:0.1;stroke:#808080;stroke-opacity:0.1;"/>
   </g>
   <g id="patch_3">
    <path d="M 85.117878 206.209276 
Q 81.598069 207.65158 79.112807 208.669961 
" style="fill:none;stroke:#000000;stroke-linecap:round;"/>
    <path d="M 82.680525 208.937143 
L 79.112807 208.669961 
L 81.467184 205.976095 
" style="fill:none;stroke:#000000;stroke-linecap:round;"/>
   </g>
   <g id="text_19">
    <!-- SM14 -->
    <defs>
     <path d="M 4.5 23 
L 13.421875 23.78125 
Q 14.0625 18.40625 16.375 14.96875 
Q 18.703125 11.53125 23.578125 9.40625 
Q 28.46875 7.28125 34.578125 7.28125 
Q 39.984375 7.28125 44.140625 8.890625 
Q 48.296875 10.5 50.3125 13.296875 
Q 52.34375 16.109375 52.34375 19.4375 
Q 52.34375 22.796875 50.390625 25.3125 
Q 48.4375 27.828125 43.953125 29.546875 
Q 41.0625 30.671875 31.203125 33.03125 
Q 21.34375 35.40625 17.390625 37.5 
Q 12.25 40.1875 9.734375 44.15625 
Q 7.234375 48.140625 7.234375 53.078125 
Q 7.234375 58.5 10.296875 63.203125 
Q 13.375 67.921875 19.28125 70.359375 
Q 25.203125 72.796875 32.421875 72.796875 
Q 40.375 72.796875 46.453125 70.234375 
Q 52.546875 67.671875 55.8125 62.6875 
Q 59.078125 57.71875 59.328125 51.421875 
L 50.25 50.734375 
Q 49.515625 57.515625 45.28125 60.984375 
Q 41.0625 64.453125 32.8125 64.453125 
Q 24.21875 64.453125 20.28125 61.296875 
Q 16.359375 58.15625 16.359375 53.71875 
Q 16.359375 49.859375 19.140625 47.359375 
Q 21.875 44.875 33.421875 42.265625 
Q 44.96875 39.65625 49.265625 37.703125 
Q 55.515625 34.8125 58.484375 30.390625 
Q 61.46875 25.984375 61.46875 20.21875 
Q 61.46875 14.5 58.203125 9.4375 
Q 54.9375 4.390625 48.796875 1.578125 
Q 42.671875 -1.21875 35.015625 -1.21875 
Q 25.296875 -1.21875 18.71875 1.609375 
Q 12.15625 4.4375 8.421875 10.125 
Q 4.6875 15.828125 4.5 23 
z
" id="ArialMT-53"/>
     <path d="M 7.421875 0 
L 7.421875 71.578125 
L 21.6875 71.578125 
L 38.625 20.90625 
Q 40.96875 13.8125 42.046875 10.296875 
Q 43.265625 14.203125 45.84375 21.78125 
L 62.984375 71.578125 
L 75.734375 71.578125 
L 75.734375 0 
L 66.609375 0 
L 66.609375 59.90625 
L 45.796875 0 
L 37.25 0 
L 16.546875 60.9375 
L 16.546875 0 
z
" id="ArialMT-4d"/>
    </defs>
    <g style="fill:#262626;" transform="translate(76.518215 207.519705)scale(0.08 -0.08)">
     <use xlink:href="#ArialMT-53"/>
     <use x="66.699219" xlink:href="#ArialMT-4d"/>
     <use x="150" xlink:href="#ArialMT-31"/>
     <use x="205.615234" xlink:href="#ArialMT-34"/>
    </g>
   </g>
   <g id="patch_4">
    <path d="M 128.65678 95.518597 
Q 125.137247 96.960901 122.65225 97.979253 
" style="fill:none;stroke:#000000;stroke-linecap:round;"/>
    <path d="M 126.219976 98.246337 
L 122.65225 97.979253 
L 125.006552 95.285323 
" style="fill:none;stroke:#000000;stroke-linecap:round;"/>
   </g>
   <g id="text_20">
    <!-- SM20 -->
    <g style="fill:#262626;" transform="translate(120.056972 96.829026)scale(0.08 -0.08)">
     <use xlink:href="#ArialMT-53"/>
     <use x="66.699219" xlink:href="#ArialMT-4d"/>
     <use x="150" xlink:href="#ArialMT-32"/>
     <use x="205.615234" xlink:href="#ArialMT-30"/>
    </g>
   </g>
   <g id="patch_5">
    <path d="M 40.22 213.8425 
L 40.22 14.4 
" style="fill:none;stroke:#262626;stroke-linecap:square;stroke-linejoin:miter;stroke-width:0.8;"/>
   </g>
   <g id="patch_6">
    <path d="M 40.22 213.8425 
L 235.59 213.8425 
" style="fill:none;stroke:#262626;stroke-linecap:square;stroke-linejoin:miter;stroke-width:0.8;"/>
   </g>
  </g>
 </g>
 <defs>
  <clipPath id="p9f9532ec57">
   <rect height="199.4425" width="195.37" x="40.22" y="14.4"/>
  </clipPath>
 </defs>
</svg>
