<?xml version="1.0" encoding="utf-8" standalone="no"?>
<!DOCTYPE svg PUBLIC "-//W3C//DTD SVG 1.1//EN"
  "http://www.w3.org/Graphics/SVG/1.1/DTD/svg11.dtd">
<!-- Created with matplotlib (http://matplotlib.org/) -->
<svg height="216pt" version="1.1" viewBox="0 0 216 216" width="216pt" xmlns="http://www.w3.org/2000/svg" xmlns:xlink="http://www.w3.org/1999/xlink">
 <defs>
  <style type="text/css">
*{stroke-linecap:butt;stroke-linejoin:round;}
  </style>
 </defs>
 <g id="figure_1">
  <g id="patch_1">
   <path d="M 0 216 
L 216 216 
L 216 0 
L 0 0 
z
" style="fill:#ffffff;"/>
  </g>
  <g id="axes_1">
   <g id="patch_2">
    <path d="M 38.96 175.96 
L 203.52 175.96 
L 203.52 25.44 
L 38.96 25.44 
z
" style="fill:#ffffff;"/>
   </g>
   <g id="matplotlib.axis_1">
    <g id="xtick_1">
     <g id="line2d_1">
      <defs>
       <path d="M 0 0 
L 0 3.5 
" id="ma9b47326a1" style="stroke:#262626;stroke-width:0.8;"/>
      </defs>
      <g>
       <use style="fill:#262626;stroke:#262626;stroke-width:0.8;" x="46.44" xlink:href="#ma9b47326a1" y="175.96"/>
      </g>
     </g>
     <g id="text_1">
      <!-- 2 -->
      <defs>
       <path d="M 50.34375 8.453125 
L 50.34375 0 
L 3.03125 0 
Q 2.9375 3.171875 4.046875 6.109375 
Q 5.859375 10.9375 9.828125 15.625 
Q 13.8125 20.3125 21.34375 26.46875 
Q 33.015625 36.03125 37.109375 41.625 
Q 41.21875 47.21875 41.21875 52.203125 
Q 41.21875 57.421875 37.46875 61 
Q 33.734375 64.59375 27.734375 64.59375 
Q 21.390625 64.59375 17.578125 60.78125 
Q 13.765625 56.984375 13.71875 50.25 
L 4.6875 51.171875 
Q 5.609375 61.28125 11.65625 66.578125 
Q 17.71875 71.875 27.9375 71.875 
Q 38.234375 71.875 44.234375 66.15625 
Q 50.25 60.453125 50.25 52 
Q 50.25 47.703125 48.484375 43.546875 
Q 46.734375 39.40625 42.65625 34.8125 
Q 38.578125 30.21875 29.109375 22.21875 
Q 21.1875 15.578125 18.9375 13.203125 
Q 16.703125 10.84375 15.234375 8.453125 
z
" id="ArialMT-32"/>
      </defs>
      <g style="fill:#262626;" transform="translate(43.659531 190.117812)scale(0.1 -0.1)">
       <use xlink:href="#ArialMT-32"/>
      </g>
     </g>
    </g>
    <g id="xtick_2">
     <g id="line2d_2">
      <g>
       <use style="fill:#262626;stroke:#262626;stroke-width:0.8;" x="76.36" xlink:href="#ma9b47326a1" y="175.96"/>
      </g>
     </g>
     <g id="text_2">
      <!-- 4 -->
      <defs>
       <path d="M 32.328125 0 
L 32.328125 17.140625 
L 1.265625 17.140625 
L 1.265625 25.203125 
L 33.9375 71.578125 
L 41.109375 71.578125 
L 41.109375 25.203125 
L 50.78125 25.203125 
L 50.78125 17.140625 
L 41.109375 17.140625 
L 41.109375 0 
z
M 32.328125 25.203125 
L 32.328125 57.46875 
L 9.90625 25.203125 
z
" id="ArialMT-34"/>
      </defs>
      <g style="fill:#262626;" transform="translate(73.579531 190.117812)scale(0.1 -0.1)">
       <use xlink:href="#ArialMT-34"/>
      </g>
     </g>
    </g>
    <g id="xtick_3">
     <g id="line2d_3">
      <g>
       <use style="fill:#262626;stroke:#262626;stroke-width:0.8;" x="106.28" xlink:href="#ma9b47326a1" y="175.96"/>
      </g>
     </g>
     <g id="text_3">
      <!-- 6 -->
      <defs>
       <path d="M 49.75 54.046875 
L 41.015625 53.375 
Q 39.84375 58.546875 37.703125 60.890625 
Q 34.125 64.65625 28.90625 64.65625 
Q 24.703125 64.65625 21.53125 62.3125 
Q 17.390625 59.28125 14.984375 53.46875 
Q 12.59375 47.65625 12.5 36.921875 
Q 15.671875 41.75 20.265625 44.09375 
Q 24.859375 46.4375 29.890625 46.4375 
Q 38.671875 46.4375 44.84375 39.96875 
Q 51.03125 33.5 51.03125 23.25 
Q 51.03125 16.5 48.125 10.71875 
Q 45.21875 4.9375 40.140625 1.859375 
Q 35.0625 -1.21875 28.609375 -1.21875 
Q 17.625 -1.21875 10.6875 6.859375 
Q 3.765625 14.9375 3.765625 33.5 
Q 3.765625 54.25 11.421875 63.671875 
Q 18.109375 71.875 29.4375 71.875 
Q 37.890625 71.875 43.28125 67.140625 
Q 48.6875 62.40625 49.75 54.046875 
z
M 13.875 23.1875 
Q 13.875 18.65625 15.796875 14.5 
Q 17.71875 10.359375 21.1875 8.171875 
Q 24.65625 6 28.46875 6 
Q 34.03125 6 38.03125 10.484375 
Q 42.046875 14.984375 42.046875 22.703125 
Q 42.046875 30.125 38.078125 34.390625 
Q 34.125 38.671875 28.125 38.671875 
Q 22.171875 38.671875 18.015625 34.390625 
Q 13.875 30.125 13.875 23.1875 
z
" id="ArialMT-36"/>
      </defs>
      <g style="fill:#262626;" transform="translate(103.499531 190.117812)scale(0.1 -0.1)">
       <use xlink:href="#ArialMT-36"/>
      </g>
     </g>
    </g>
    <g id="xtick_4">
     <g id="line2d_4">
      <g>
       <use style="fill:#262626;stroke:#262626;stroke-width:0.8;" x="136.2" xlink:href="#ma9b47326a1" y="175.96"/>
      </g>
     </g>
     <g id="text_4">
      <!-- 8 -->
      <defs>
       <path d="M 17.671875 38.8125 
Q 12.203125 40.828125 9.5625 44.53125 
Q 6.9375 48.25 6.9375 53.421875 
Q 6.9375 61.234375 12.546875 66.546875 
Q 18.171875 71.875 27.484375 71.875 
Q 36.859375 71.875 42.578125 66.421875 
Q 48.296875 60.984375 48.296875 53.171875 
Q 48.296875 48.1875 45.671875 44.5 
Q 43.0625 40.828125 37.75 38.8125 
Q 44.34375 36.671875 47.78125 31.875 
Q 51.21875 27.09375 51.21875 20.453125 
Q 51.21875 11.28125 44.71875 5.03125 
Q 38.234375 -1.21875 27.640625 -1.21875 
Q 17.046875 -1.21875 10.546875 5.046875 
Q 4.046875 11.328125 4.046875 20.703125 
Q 4.046875 27.6875 7.59375 32.390625 
Q 11.140625 37.109375 17.671875 38.8125 
z
M 15.921875 53.71875 
Q 15.921875 48.640625 19.1875 45.40625 
Q 22.46875 42.1875 27.6875 42.1875 
Q 32.765625 42.1875 36.015625 45.375 
Q 39.265625 48.578125 39.265625 53.21875 
Q 39.265625 58.0625 35.90625 61.359375 
Q 32.5625 64.65625 27.59375 64.65625 
Q 22.5625 64.65625 19.234375 61.421875 
Q 15.921875 58.203125 15.921875 53.71875 
z
M 13.09375 20.65625 
Q 13.09375 16.890625 14.875 13.375 
Q 16.65625 9.859375 20.171875 7.921875 
Q 23.6875 6 27.734375 6 
Q 34.03125 6 38.125 10.046875 
Q 42.234375 14.109375 42.234375 20.359375 
Q 42.234375 26.703125 38.015625 30.859375 
Q 33.796875 35.015625 27.4375 35.015625 
Q 21.234375 35.015625 17.15625 30.90625 
Q 13.09375 26.8125 13.09375 20.65625 
z
" id="ArialMT-38"/>
      </defs>
      <g style="fill:#262626;" transform="translate(133.419531 190.117812)scale(0.1 -0.1)">
       <use xlink:href="#ArialMT-38"/>
      </g>
     </g>
    </g>
    <g id="xtick_5">
     <g id="line2d_5">
      <g>
       <use style="fill:#262626;stroke:#262626;stroke-width:0.8;" x="166.12" xlink:href="#ma9b47326a1" y="175.96"/>
      </g>
     </g>
     <g id="text_5">
      <!-- 10 -->
      <defs>
       <path d="M 37.25 0 
L 28.46875 0 
L 28.46875 56 
Q 25.296875 52.984375 20.140625 49.953125 
Q 14.984375 46.921875 10.890625 45.40625 
L 10.890625 53.90625 
Q 18.265625 57.375 23.78125 62.296875 
Q 29.296875 67.234375 31.59375 71.875 
L 37.25 71.875 
z
" id="ArialMT-31"/>
       <path d="M 4.15625 35.296875 
Q 4.15625 48 6.765625 55.734375 
Q 9.375 63.484375 14.515625 67.671875 
Q 19.671875 71.875 27.484375 71.875 
Q 33.25 71.875 37.59375 69.546875 
Q 41.9375 67.234375 44.765625 62.859375 
Q 47.609375 58.5 49.21875 52.21875 
Q 50.828125 45.953125 50.828125 35.296875 
Q 50.828125 22.703125 48.234375 14.96875 
Q 45.65625 7.234375 40.5 3 
Q 35.359375 -1.21875 27.484375 -1.21875 
Q 17.140625 -1.21875 11.234375 6.203125 
Q 4.15625 15.140625 4.15625 35.296875 
z
M 13.1875 35.296875 
Q 13.1875 17.671875 17.3125 11.828125 
Q 21.4375 6 27.484375 6 
Q 33.546875 6 37.671875 11.859375 
Q 41.796875 17.71875 41.796875 35.296875 
Q 41.796875 52.984375 37.671875 58.78125 
Q 33.546875 64.59375 27.390625 64.59375 
Q 21.34375 64.59375 17.71875 59.46875 
Q 13.1875 52.9375 13.1875 35.296875 
z
" id="ArialMT-30"/>
      </defs>
      <g style="fill:#262626;" transform="translate(160.559062 190.117812)scale(0.1 -0.1)">
       <use xlink:href="#ArialMT-31"/>
       <use x="55.615234" xlink:href="#ArialMT-30"/>
      </g>
     </g>
    </g>
    <g id="xtick_6">
     <g id="line2d_6">
      <g>
       <use style="fill:#262626;stroke:#262626;stroke-width:0.8;" x="196.04" xlink:href="#ma9b47326a1" y="175.96"/>
      </g>
     </g>
     <g id="text_6">
      <!-- 12 -->
      <g style="fill:#262626;" transform="translate(190.479062 190.117812)scale(0.1 -0.1)">
       <use xlink:href="#ArialMT-31"/>
       <use x="55.615234" xlink:href="#ArialMT-32"/>
      </g>
     </g>
    </g>
    <g id="text_7">
     <!-- pH -->
     <defs>
      <path d="M 6.59375 -19.875 
L 6.59375 51.859375 
L 14.59375 51.859375 
L 14.59375 45.125 
Q 17.4375 49.078125 21 51.046875 
Q 24.5625 53.03125 29.640625 53.03125 
Q 36.28125 53.03125 41.359375 49.609375 
Q 46.4375 46.1875 49.015625 39.953125 
Q 51.609375 33.734375 51.609375 26.3125 
Q 51.609375 18.359375 48.75 11.984375 
Q 45.90625 5.609375 40.453125 2.21875 
Q 35.015625 -1.171875 29 -1.171875 
Q 24.609375 -1.171875 21.109375 0.6875 
Q 17.625 2.546875 15.375 5.375 
L 15.375 -19.875 
z
M 14.546875 25.640625 
Q 14.546875 15.625 18.59375 10.84375 
Q 22.65625 6.0625 28.421875 6.0625 
Q 34.28125 6.0625 38.453125 11.015625 
Q 42.625 15.96875 42.625 26.375 
Q 42.625 36.28125 38.546875 41.203125 
Q 34.46875 46.140625 28.8125 46.140625 
Q 23.1875 46.140625 18.859375 40.890625 
Q 14.546875 35.640625 14.546875 25.640625 
z
" id="ArialMT-70"/>
      <path d="M 8.015625 0 
L 8.015625 71.578125 
L 17.484375 71.578125 
L 17.484375 42.1875 
L 54.6875 42.1875 
L 54.6875 71.578125 
L 64.15625 71.578125 
L 64.15625 0 
L 54.6875 0 
L 54.6875 33.734375 
L 17.484375 33.734375 
L 17.484375 0 
z
" id="ArialMT-48"/>
     </defs>
     <g style="fill:#262626;" transform="translate(114.848594 203.263125)scale(0.1 -0.1)">
      <use xlink:href="#ArialMT-70"/>
      <use x="55.615234" xlink:href="#ArialMT-48"/>
     </g>
    </g>
   </g>
   <g id="matplotlib.axis_2">
    <g id="ytick_1">
     <g id="line2d_7">
      <defs>
       <path d="M 0 0 
L -3.5 0 
" id="m9e4ad801ec" style="stroke:#262626;stroke-width:0.8;"/>
      </defs>
      <g>
       <use style="fill:#262626;stroke:#262626;stroke-width:0.8;" x="38.96" xlink:href="#m9e4ad801ec" y="125.485178"/>
      </g>
     </g>
     <g id="text_8">
      <!-- 0 -->
      <g style="fill:#262626;" transform="translate(26.399063 129.064084)scale(0.1 -0.1)">
       <use xlink:href="#ArialMT-30"/>
      </g>
     </g>
    </g>
    <g id="ytick_2">
     <g id="line2d_8">
      <g>
       <use style="fill:#262626;stroke:#262626;stroke-width:0.8;" x="38.96" xlink:href="#m9e4ad801ec" y="71.577324"/>
      </g>
     </g>
     <g id="text_9">
      <!-- 1 -->
      <g style="fill:#262626;" transform="translate(26.399063 75.156231)scale(0.1 -0.1)">
       <use xlink:href="#ArialMT-31"/>
      </g>
     </g>
    </g>
    <g id="text_10">
     <!-- $\langle q_\mathsf{total} \rangle$ -->
     <defs>
      <path d="M 8.9375 31.34375 
L 22.703125 75.875 
L 31 75.875 
L 17.234375 31.34375 
L 31 -13.1875 
L 22.703125 -13.1875 
z
" id="DejaVuSans-27e8"/>
      <path d="M 41.703125 8.203125 
Q 38.09375 3.46875 33.171875 1.015625 
Q 28.265625 -1.421875 22.3125 -1.421875 
Q 14.015625 -1.421875 9.296875 4.171875 
Q 4.59375 9.765625 4.59375 19.578125 
Q 4.59375 27.484375 7.5 34.859375 
Q 10.40625 42.234375 15.828125 48.09375 
Q 19.34375 51.90625 23.90625 53.953125 
Q 28.46875 56 33.5 56 
Q 39.546875 56 43.453125 53.609375 
Q 47.359375 51.21875 49.125 46.390625 
L 50.6875 54.59375 
L 59.71875 54.59375 
L 45.125 -20.609375 
L 36.078125 -20.609375 
z
M 13.921875 20.90625 
Q 13.921875 13.671875 16.9375 9.890625 
Q 19.96875 6.109375 25.6875 6.109375 
Q 34.1875 6.109375 40.1875 14.234375 
Q 46.1875 22.359375 46.1875 33.984375 
Q 46.1875 41.015625 43.078125 44.75 
Q 39.984375 48.484375 34.1875 48.484375 
Q 29.9375 48.484375 26.3125 46.5 
Q 22.703125 44.53125 20.015625 40.71875 
Q 17.1875 36.71875 15.546875 31.34375 
Q 13.921875 25.984375 13.921875 20.90625 
z
" id="DejaVuSans-Oblique-71"/>
      <path d="M 18.3125 70.21875 
L 18.3125 54.6875 
L 36.8125 54.6875 
L 36.8125 47.703125 
L 18.3125 47.703125 
L 18.3125 18.015625 
Q 18.3125 11.328125 20.140625 9.421875 
Q 21.96875 7.515625 27.59375 7.515625 
L 36.8125 7.515625 
L 36.8125 0 
L 27.59375 0 
Q 17.1875 0 13.234375 3.875 
Q 9.28125 7.765625 9.28125 18.015625 
L 9.28125 47.703125 
L 2.6875 47.703125 
L 2.6875 54.6875 
L 9.28125 54.6875 
L 9.28125 70.21875 
z
" id="DejaVuSans-74"/>
      <path d="M 30.609375 48.390625 
Q 23.390625 48.390625 19.1875 42.75 
Q 14.984375 37.109375 14.984375 27.296875 
Q 14.984375 17.484375 19.15625 11.84375 
Q 23.34375 6.203125 30.609375 6.203125 
Q 37.796875 6.203125 41.984375 11.859375 
Q 46.1875 17.53125 46.1875 27.296875 
Q 46.1875 37.015625 41.984375 42.703125 
Q 37.796875 48.390625 30.609375 48.390625 
z
M 30.609375 56 
Q 42.328125 56 49.015625 48.375 
Q 55.71875 40.765625 55.71875 27.296875 
Q 55.71875 13.875 49.015625 6.21875 
Q 42.328125 -1.421875 30.609375 -1.421875 
Q 18.84375 -1.421875 12.171875 6.21875 
Q 5.515625 13.875 5.515625 27.296875 
Q 5.515625 40.765625 12.171875 48.375 
Q 18.84375 56 30.609375 56 
z
" id="DejaVuSans-6f"/>
      <path d="M 34.28125 27.484375 
Q 23.390625 27.484375 19.1875 25 
Q 14.984375 22.515625 14.984375 16.5 
Q 14.984375 11.71875 18.140625 8.90625 
Q 21.296875 6.109375 26.703125 6.109375 
Q 34.1875 6.109375 38.703125 11.40625 
Q 43.21875 16.703125 43.21875 25.484375 
L 43.21875 27.484375 
z
M 52.203125 31.203125 
L 52.203125 0 
L 43.21875 0 
L 43.21875 8.296875 
Q 40.140625 3.328125 35.546875 0.953125 
Q 30.953125 -1.421875 24.3125 -1.421875 
Q 15.921875 -1.421875 10.953125 3.296875 
Q 6 8.015625 6 15.921875 
Q 6 25.140625 12.171875 29.828125 
Q 18.359375 34.515625 30.609375 34.515625 
L 43.21875 34.515625 
L 43.21875 35.40625 
Q 43.21875 41.609375 39.140625 45 
Q 35.0625 48.390625 27.6875 48.390625 
Q 23 48.390625 18.546875 47.265625 
Q 14.109375 46.140625 10.015625 43.890625 
L 10.015625 52.203125 
Q 14.9375 54.109375 19.578125 55.046875 
Q 24.21875 56 28.609375 56 
Q 40.484375 56 46.34375 49.84375 
Q 52.203125 43.703125 52.203125 31.203125 
z
" id="DejaVuSans-61"/>
      <path d="M 9.421875 75.984375 
L 18.40625 75.984375 
L 18.40625 0 
L 9.421875 0 
z
" id="DejaVuSans-6c"/>
      <path d="M 30.078125 31.34375 
L 16.3125 -13.1875 
L 8.015625 -13.1875 
L 21.78125 31.34375 
L 8.015625 75.875 
L 16.3125 75.875 
z
" id="DejaVuSans-27e9"/>
     </defs>
     <g style="fill:#262626;" transform="translate(20.299063 115.95)rotate(-90)scale(0.1 -0.1)">
      <use transform="translate(0 0.125)" xlink:href="#DejaVuSans-27e8"/>
      <use transform="translate(39.013672 0.125)" xlink:href="#DejaVuSans-Oblique-71"/>
      <use transform="translate(102.490234 -16.28125)scale(0.7)" xlink:href="#DejaVuSans-74"/>
      <use transform="translate(129.936523 -16.28125)scale(0.7)" xlink:href="#DejaVuSans-6f"/>
      <use transform="translate(172.763672 -16.28125)scale(0.7)" xlink:href="#DejaVuSans-74"/>
      <use transform="translate(200.209961 -16.28125)scale(0.7)" xlink:href="#DejaVuSans-61"/>
      <use transform="translate(243.105469 -16.28125)scale(0.7)" xlink:href="#DejaVuSans-6c"/>
      <use transform="translate(265.288086 0.125)" xlink:href="#DejaVuSans-27e9"/>
     </g>
    </g>
   </g>
   <g id="PolyCollection_1">
    <defs>
     <path d="M 46.44 -178.838637 
L 46.44 -109.608869 
L 47.936 -108.856259 
L 49.432 -108.097463 
L 50.928 -107.330292 
L 52.424 -106.551992 
L 53.92 -105.759038 
L 55.416 -104.94686 
L 56.912 -104.109528 
L 58.408 -103.239419 
L 59.904 -102.326864 
L 61.4 -101.359795 
L 62.896 -100.323439 
L 64.392 -99.200102 
L 65.888 -97.969139 
L 67.384 -96.607223 
L 68.88 -95.089071 
L 70.376 -93.388785 
L 71.872 -91.481948 
L 73.368 -89.348561 
L 74.864 -86.976701 
L 76.36 -84.366564 
L 77.856 -81.534178 
L 79.352 -78.513875 
L 80.848 -75.358507 
L 82.344 -72.136752 
L 83.84 -68.927516 
L 85.336 -65.81229 
L 86.832 -62.867017 
L 88.328 -60.15515 
L 89.824 -57.723171 
L 91.32 -55.599075 
L 92.816 -53.79347 
L 94.312 -52.302474 
L 95.808 -51.111463 
L 97.304 -50.198849 
L 98.8 -49.539387 
L 100.296 -49.106747 
L 101.792 -48.875332 
L 103.288 -48.821395 
L 104.784 -48.92361 
L 106.28 -49.163228 
L 107.776 -49.523966 
L 109.272 -49.991744 
L 110.768 -50.554337 
L 112.264 -51.20104 
L 113.76 -51.922356 
L 115.256 -52.709752 
L 116.752 -53.555472 
L 118.248 -54.452411 
L 119.744 -55.394007 
L 121.24 -56.374158 
L 122.736 -57.387117 
L 124.232 -58.427378 
L 125.728 -59.48954 
L 127.224 -60.568147 
L 128.72 -61.657543 
L 130.216 -62.751785 
L 131.712 -63.844695 
L 133.208 -64.930061 
L 134.704 -66.001924 
L 136.2 -67.054801 
L 137.696 -68.08377 
L 139.192 -69.08442 
L 140.688 -70.052702 
L 142.184 -70.984676 
L 143.68 -71.876211 
L 145.176 -72.72267 
L 146.672 -73.518626 
L 148.168 -74.257574 
L 149.664 -74.931615 
L 151.16 -75.531123 
L 152.656 -76.04458 
L 154.152 -76.458939 
L 155.648 -76.760919 
L 157.144 -76.939155 
L 158.64 -76.986331 
L 160.136 -76.900167 
L 161.632 -76.682922 
L 163.128 -76.340055 
L 164.624 -75.878867 
L 166.12 -75.30751 
L 167.616 -74.634472 
L 169.112 -73.868395 
L 170.608 -73.017809 
L 172.104 -72.090516 
L 173.6 -71.09283 
L 175.096 -70.029046 
L 176.592 -68.901434 
L 178.088 -67.710792 
L 179.584 -66.45712 
L 181.08 -65.139774 
L 182.576 -63.756867 
L 184.072 -62.304486 
L 185.568 -60.776285 
L 187.064 -59.163425 
L 188.56 -57.454503 
L 190.056 -55.635312 
L 191.552 -53.688708 
L 193.048 -51.594981 
L 194.544 -49.332937 
L 196.04 -46.881818 
L 196.04 -118.311155 
L 196.04 -118.311155 
L 194.544 -118.725322 
L 193.048 -118.869703 
L 191.552 -118.77628 
L 190.056 -118.47819 
L 188.56 -118.008007 
L 187.064 -117.396625 
L 185.568 -116.672508 
L 184.072 -115.86123 
L 182.576 -114.98539 
L 181.08 -114.064982 
L 179.584 -113.117913 
L 178.088 -112.160215 
L 176.592 -111.205855 
L 175.096 -110.266681 
L 173.6 -109.353059 
L 172.104 -108.474961 
L 170.608 -107.642861 
L 169.112 -106.868024 
L 167.616 -106.16221 
L 166.12 -105.53711 
L 164.624 -105.003891 
L 163.128 -104.573051 
L 161.632 -104.254346 
L 160.136 -104.056356 
L 158.64 -103.985563 
L 157.144 -104.045039 
L 155.648 -104.233158 
L 154.152 -104.543129 
L 152.656 -104.964012 
L 151.16 -105.482872 
L 149.664 -106.08695 
L 148.168 -106.764971 
L 146.672 -107.507523 
L 145.176 -108.306896 
L 143.68 -109.156767 
L 142.184 -110.051892 
L 140.688 -110.987825 
L 139.192 -111.960644 
L 137.696 -112.966653 
L 136.2 -114.002086 
L 134.704 -115.062876 
L 133.208 -116.144523 
L 131.712 -117.242063 
L 130.216 -118.350183 
L 128.72 -119.463479 
L 127.224 -120.576782 
L 125.728 -121.685415 
L 124.232 -122.78531 
L 122.736 -123.873001 
L 121.24 -124.945583 
L 119.744 -126.000678 
L 118.248 -127.036459 
L 116.752 -128.051719 
L 115.256 -129.046017 
L 113.76 -130.019868 
L 112.264 -130.974989 
L 110.768 -131.914579 
L 109.272 -132.843612 
L 107.776 -133.769132 
L 106.28 -134.700541 
L 104.784 -135.649873 
L 103.288 -136.632035 
L 101.792 -137.664989 
L 100.296 -138.769819 
L 98.8 -139.97058 
L 97.304 -141.293802 
L 95.808 -142.767459 
L 94.312 -144.419224 
L 92.816 -146.273859 
L 91.32 -148.349729 
L 89.824 -150.654697 
L 88.328 -153.181969 
L 86.832 -155.906824 
L 85.336 -158.785278 
L 83.84 -161.755612 
L 82.344 -164.74304 
L 80.848 -167.666977 
L 79.352 -170.449496 
L 77.856 -173.023165 
L 76.36 -175.336712 
L 74.864 -177.357659 
L 73.368 -179.072002 
L 71.872 -180.481657 
L 70.376 -181.600705 
L 68.88 -182.45137 
L 67.384 -183.060397 
L 65.888 -183.456174 
L 64.392 -183.66668 
L 62.896 -183.718182 
L 61.4 -183.63453 
L 59.904 -183.436872 
L 58.408 -183.143645 
L 56.912 -182.770733 
L 55.416 -182.331696 
L 53.92 -181.838037 
L 52.424 -181.299459 
L 50.928 -180.724086 
L 49.432 -180.118657 
L 47.936 -179.488689 
L 46.44 -178.838637 
z
" id="ma26ae6a45e" style="stroke:#ffffff;stroke-opacity:0.05;"/>
    </defs>
    <g clip-path="url(#p18976009d4)">
     <use style="fill:#8c0800;fill-opacity:0.05;stroke:#ffffff;stroke-opacity:0.05;" x="0" xlink:href="#ma26ae6a45e" y="216"/>
    </g>
   </g>
   <g id="line2d_9">
    <path clip-path="url(#p18976009d4)" d="M 46.44 71.776247 
L 47.936 71.827526 
L 49.432 71.89194 
L 50.928 71.972811 
L 52.424 72.074274 
L 53.92 72.201462 
L 55.416 72.360722 
L 56.912 72.55987 
L 58.408 72.808468 
L 59.904 73.118132 
L 61.4 73.502838 
L 62.896 73.97919 
L 64.392 74.566609 
L 65.888 75.287343 
L 67.384 76.16619 
L 68.88 77.22978 
L 70.376 78.505255 
L 71.872 80.018197 
L 73.368 81.789719 
L 74.864 83.83282 
L 76.36 86.148362 
L 77.856 88.721328 
L 79.352 91.518315 
L 80.848 94.487258 
L 82.344 97.560104 
L 83.84 100.658436 
L 85.336 103.701216 
L 86.832 106.613079 
L 88.328 109.331441 
L 89.824 111.811066 
L 91.32 114.025598 
L 92.816 115.966336 
L 94.312 117.639151 
L 95.808 119.060539 
L 97.304 120.253674 
L 98.8 121.245017 
L 100.296 122.061717 
L 101.792 122.729839 
L 103.288 123.273285 
L 104.784 123.713258 
L 106.28 124.068116 
L 107.776 124.353451 
L 109.272 124.582322 
L 110.768 124.765542 
L 112.264 124.911985 
L 113.76 125.028888 
L 115.256 125.122115 
L 116.752 125.196404 
L 118.248 125.255565 
L 119.744 125.302657 
L 121.24 125.34013 
L 122.736 125.369941 
L 124.232 125.393656 
L 125.728 125.412522 
L 127.224 125.427536 
L 128.72 125.439489 
L 130.216 125.449016 
L 131.712 125.456621 
L 133.208 125.462708 
L 134.704 125.4676 
L 136.2 125.471557 
L 137.696 125.474789 
L 139.192 125.477468 
L 140.688 125.479737 
L 142.184 125.481716 
L 143.68 125.483511 
L 145.176 125.485217 
L 146.672 125.486926 
L 148.168 125.488727 
L 149.664 125.490717 
L 151.16 125.493003 
L 152.656 125.495704 
L 154.152 125.498966 
L 155.648 125.502962 
L 157.144 125.507903 
L 158.64 125.514053 
L 160.136 125.521738 
L 161.632 125.531366 
L 163.128 125.543447 
L 164.624 125.558621 
L 166.12 125.57769 
L 167.616 125.601659 
L 169.112 125.631791 
L 170.608 125.669665 
L 172.104 125.717261 
L 173.6 125.777055 
L 175.096 125.852137 
L 176.592 125.946356 
L 178.088 126.064496 
L 179.584 126.212483 
L 181.08 126.397622 
L 182.576 126.628871 
L 184.072 126.917142 
L 185.568 127.275603 
L 187.064 127.719975 
L 188.56 128.268745 
L 190.056 128.943249 
L 191.552 129.767506 
L 193.048 130.767658 
L 194.544 131.97087 
L 196.04 133.403513 
" style="fill:none;opacity:0.9;stroke:#8c0800;stroke-linecap:round;stroke-width:1.5;"/>
   </g>
   <g id="line2d_10">
    <path clip-path="url(#p18976009d4)" d="M 46.44 71.600311 
L 47.936 71.606259 
L 49.432 71.613746 
L 50.928 71.623168 
L 52.424 71.635026 
L 53.92 71.649946 
L 55.416 71.668718 
L 56.912 71.692332 
L 58.408 71.72203 
L 59.904 71.759371 
L 61.4 71.806308 
L 62.896 71.86528 
L 64.392 71.939339 
L 65.888 72.032282 
L 67.384 72.148834 
L 68.88 72.294842 
L 70.376 72.477524 
L 71.872 72.705729 
L 73.368 72.990244 
L 74.864 73.344095 
L 76.36 73.78284 
L 77.856 74.324799 
L 79.352 74.99114 
L 80.848 75.805731 
L 82.344 76.794613 
L 83.84 77.984931 
L 85.336 79.403172 
L 86.832 81.072571 
L 88.328 83.009737 
L 89.824 85.220706 
L 91.32 87.696991 
L 92.816 90.412479 
L 94.312 93.32218 
L 95.808 96.363712 
L 97.304 99.461837 
L 98.8 102.535537 
L 100.296 105.50631 
L 101.792 108.305922 
L 103.288 110.882077 
L 104.784 113.201124 
L 106.28 115.247816 
L 107.776 117.022829 
L 109.272 118.539032 
L 110.768 119.817457 
L 112.264 120.883644 
L 113.76 121.764734 
L 115.256 122.487372 
L 116.752 123.076386 
L 118.248 123.554059 
L 119.744 123.93985 
L 121.24 124.2504 
L 122.736 124.499717 
L 124.232 124.699444 
L 125.728 124.859171 
L 127.224 124.986732 
L 128.72 125.088494 
L 130.216 125.169603 
L 131.712 125.234206 
L 133.208 125.285633 
L 134.704 125.326553 
L 136.2 125.359101 
L 137.696 125.384983 
L 139.192 125.40556 
L 140.688 125.421916 
L 142.184 125.434915 
L 143.68 125.445245 
L 145.176 125.453453 
L 146.672 125.459975 
L 148.168 125.465157 
L 149.664 125.469273 
L 151.16 125.472544 
L 152.656 125.475142 
L 154.152 125.477205 
L 155.648 125.478845 
L 157.144 125.480147 
L 158.64 125.481182 
L 160.136 125.482004 
L 161.632 125.482657 
L 163.128 125.483175 
L 164.624 125.483587 
L 166.12 125.483914 
L 167.616 125.484174 
L 169.112 125.484381 
L 170.608 125.484544 
L 172.104 125.484675 
L 173.6 125.484778 
L 175.096 125.48486 
L 176.592 125.484926 
L 178.088 125.484978 
L 179.584 125.485019 
L 181.08 125.485051 
L 182.576 125.485077 
L 184.072 125.485098 
L 185.568 125.485115 
L 187.064 125.485128 
L 188.56 125.485138 
L 190.056 125.485146 
L 191.552 125.485153 
L 193.048 125.485158 
L 194.544 125.485162 
L 196.04 125.485165 
" style="fill:none;opacity:0.7;stroke:#000000;stroke-linecap:round;stroke-width:1.5;"/>
   </g>
   <g id="line2d_11">
    <path clip-path="url(#p18976009d4)" d="M 46.44 37.161363 
L 47.936 36.511311 
L 49.432 35.881343 
L 50.928 35.275914 
L 52.424 34.700541 
L 53.92 34.161963 
L 55.416 33.668304 
L 56.912 33.229267 
L 58.408 32.856355 
L 59.904 32.563128 
L 61.4 32.36547 
L 62.896 32.281818 
L 64.392 32.33332 
L 65.888 32.543826 
L 67.384 32.939603 
L 68.88 33.54863 
L 70.376 34.399295 
L 71.872 35.518343 
L 73.368 36.927998 
L 74.864 38.642341 
L 76.36 40.663288 
L 77.856 42.976835 
L 79.352 45.550504 
L 80.848 48.333023 
L 82.344 51.25696 
L 83.84 54.244388 
L 85.336 57.214722 
L 86.832 60.093176 
L 88.328 62.818031 
L 89.824 65.345303 
L 91.32 67.650271 
L 92.816 69.726141 
L 94.312 71.580776 
L 95.808 73.232541 
L 97.304 74.706198 
L 98.8 76.02942 
L 100.296 77.230181 
L 101.792 78.335011 
L 103.288 79.367965 
L 104.784 80.350127 
L 106.28 81.299459 
L 107.776 82.230868 
L 109.272 83.156388 
L 110.768 84.085421 
L 112.264 85.025011 
L 113.76 85.980132 
L 115.256 86.953983 
L 116.752 87.948281 
L 118.248 88.963541 
L 119.744 89.999322 
L 121.24 91.054417 
L 122.736 92.126999 
L 124.232 93.21469 
L 125.728 94.314585 
L 127.224 95.423218 
L 128.72 96.536521 
L 130.216 97.649817 
L 131.712 98.757937 
L 133.208 99.855477 
L 134.704 100.937124 
L 136.2 101.997914 
L 137.696 103.033347 
L 139.192 104.039356 
L 140.688 105.012175 
L 142.184 105.948108 
L 143.68 106.843233 
L 145.176 107.693104 
L 146.672 108.492477 
L 148.168 109.235029 
L 149.664 109.91305 
L 151.16 110.517128 
L 152.656 111.035988 
L 154.152 111.456871 
L 155.648 111.766842 
L 157.144 111.954961 
L 158.64 112.014437 
L 160.136 111.943644 
L 161.632 111.745654 
L 163.128 111.426949 
L 164.624 110.996109 
L 166.12 110.46289 
L 167.616 109.83779 
L 169.112 109.131976 
L 170.608 108.357139 
L 172.104 107.525039 
L 173.6 106.646941 
L 175.096 105.733319 
L 176.592 104.794145 
L 178.088 103.839785 
L 179.584 102.882087 
L 181.08 101.935018 
L 182.576 101.01461 
L 184.072 100.13877 
L 185.568 99.327492 
L 187.064 98.603375 
L 188.56 97.991993 
L 190.056 97.52181 
L 191.552 97.22372 
L 193.048 97.130297 
L 194.544 97.274678 
L 196.04 97.688845 
" style="fill:none;opacity:0.45;stroke:#8c0800;stroke-dasharray:2.775,1.2;stroke-dashoffset:0;stroke-width:0.75;"/>
   </g>
   <g id="line2d_12">
    <path clip-path="url(#p18976009d4)" d="M 46.44 106.391131 
L 47.936 107.143741 
L 49.432 107.902537 
L 50.928 108.669708 
L 52.424 109.448008 
L 53.92 110.240962 
L 55.416 111.05314 
L 56.912 111.890472 
L 58.408 112.760581 
L 59.904 113.673136 
L 61.4 114.640205 
L 62.896 115.676561 
L 64.392 116.799898 
L 65.888 118.030861 
L 67.384 119.392777 
L 68.88 120.910929 
L 70.376 122.611215 
L 71.872 124.518052 
L 73.368 126.651439 
L 74.864 129.023299 
L 76.36 131.633436 
L 77.856 134.465822 
L 79.352 137.486125 
L 80.848 140.641493 
L 82.344 143.863248 
L 83.84 147.072484 
L 85.336 150.18771 
L 86.832 153.132983 
L 88.328 155.84485 
L 89.824 158.276829 
L 91.32 160.400925 
L 92.816 162.20653 
L 94.312 163.697526 
L 95.808 164.888537 
L 97.304 165.801151 
L 98.8 166.460613 
L 100.296 166.893253 
L 101.792 167.124668 
L 103.288 167.178605 
L 104.784 167.07639 
L 106.28 166.836772 
L 107.776 166.476034 
L 109.272 166.008256 
L 110.768 165.445663 
L 112.264 164.79896 
L 113.76 164.077644 
L 115.256 163.290248 
L 116.752 162.444528 
L 118.248 161.547589 
L 119.744 160.605993 
L 121.24 159.625842 
L 122.736 158.612883 
L 124.232 157.572622 
L 125.728 156.51046 
L 127.224 155.431853 
L 128.72 154.342457 
L 130.216 153.248215 
L 131.712 152.155305 
L 133.208 151.069939 
L 134.704 149.998076 
L 136.2 148.945199 
L 137.696 147.91623 
L 139.192 146.91558 
L 140.688 145.947298 
L 142.184 145.015324 
L 143.68 144.123789 
L 145.176 143.27733 
L 146.672 142.481374 
L 148.168 141.742426 
L 149.664 141.068385 
L 151.16 140.468877 
L 152.656 139.95542 
L 154.152 139.541061 
L 155.648 139.239081 
L 157.144 139.060845 
L 158.64 139.013669 
L 160.136 139.099833 
L 161.632 139.317078 
L 163.128 139.659945 
L 164.624 140.121133 
L 166.12 140.69249 
L 167.616 141.365528 
L 169.112 142.131605 
L 170.608 142.982191 
L 172.104 143.909484 
L 173.6 144.90717 
L 175.096 145.970954 
L 176.592 147.098566 
L 178.088 148.289208 
L 179.584 149.54288 
L 181.08 150.860226 
L 182.576 152.243133 
L 184.072 153.695514 
L 185.568 155.223715 
L 187.064 156.836575 
L 188.56 158.545497 
L 190.056 160.364688 
L 191.552 162.311292 
L 193.048 164.405019 
L 194.544 166.667063 
L 196.04 169.118182 
" style="fill:none;opacity:0.45;stroke:#8c0800;stroke-dasharray:2.775,1.2;stroke-dashoffset:0;stroke-width:0.75;"/>
   </g>
   <g id="patch_3">
    <path d="M 38.96 175.96 
L 38.96 25.44 
" style="fill:none;stroke:#262626;stroke-linecap:square;stroke-linejoin:miter;stroke-width:0.8;"/>
   </g>
   <g id="patch_4">
    <path d="M 38.96 175.96 
L 203.52 175.96 
" style="fill:none;stroke:#262626;stroke-linecap:square;stroke-linejoin:miter;stroke-width:0.8;"/>
   </g>
   <g id="text_11">
    <!-- Jaguar-micro SM09 -->
    <defs>
     <path d="M 2.875 20.3125 
L 11.421875 21.484375 
Q 11.765625 13.28125 14.5 10.25 
Q 17.234375 7.234375 22.078125 7.234375 
Q 25.640625 7.234375 28.21875 8.859375 
Q 30.8125 10.5 31.78125 13.296875 
Q 32.765625 16.109375 32.765625 22.265625 
L 32.765625 71.578125 
L 42.234375 71.578125 
L 42.234375 22.796875 
Q 42.234375 13.8125 40.0625 8.875 
Q 37.890625 3.953125 33.171875 1.359375 
Q 28.46875 -1.21875 22.125 -1.21875 
Q 12.703125 -1.21875 7.6875 4.203125 
Q 2.6875 9.625 2.875 20.3125 
z
" id="ArialMT-4a"/>
     <path d="M 40.4375 6.390625 
Q 35.546875 2.25 31.03125 0.53125 
Q 26.515625 -1.171875 21.34375 -1.171875 
Q 12.796875 -1.171875 8.203125 3 
Q 3.609375 7.171875 3.609375 13.671875 
Q 3.609375 17.484375 5.34375 20.625 
Q 7.078125 23.78125 9.890625 25.6875 
Q 12.703125 27.59375 16.21875 28.5625 
Q 18.796875 29.25 24.03125 29.890625 
Q 34.671875 31.15625 39.703125 32.90625 
Q 39.75 34.71875 39.75 35.203125 
Q 39.75 40.578125 37.25 42.78125 
Q 33.890625 45.75 27.25 45.75 
Q 21.046875 45.75 18.09375 43.578125 
Q 15.140625 41.40625 13.71875 35.890625 
L 5.125 37.0625 
Q 6.296875 42.578125 8.984375 45.96875 
Q 11.671875 49.359375 16.75 51.1875 
Q 21.828125 53.03125 28.515625 53.03125 
Q 35.15625 53.03125 39.296875 51.46875 
Q 43.453125 49.90625 45.40625 47.53125 
Q 47.359375 45.171875 48.140625 41.546875 
Q 48.578125 39.3125 48.578125 33.453125 
L 48.578125 21.734375 
Q 48.578125 9.46875 49.140625 6.21875 
Q 49.703125 2.984375 51.375 0 
L 42.1875 0 
Q 40.828125 2.734375 40.4375 6.390625 
z
M 39.703125 26.03125 
Q 34.90625 24.078125 25.34375 22.703125 
Q 19.921875 21.921875 17.671875 20.9375 
Q 15.4375 19.96875 14.203125 18.09375 
Q 12.984375 16.21875 12.984375 13.921875 
Q 12.984375 10.40625 15.640625 8.0625 
Q 18.3125 5.71875 23.4375 5.71875 
Q 28.515625 5.71875 32.46875 7.9375 
Q 36.421875 10.15625 38.28125 14.015625 
Q 39.703125 17 39.703125 22.796875 
z
" id="ArialMT-61"/>
     <path d="M 4.984375 -4.296875 
L 13.53125 -5.5625 
Q 14.0625 -9.515625 16.5 -11.328125 
Q 19.78125 -13.765625 25.4375 -13.765625 
Q 31.546875 -13.765625 34.859375 -11.328125 
Q 38.1875 -8.890625 39.359375 -4.5 
Q 40.046875 -1.8125 39.984375 6.78125 
Q 34.234375 0 25.640625 0 
Q 14.9375 0 9.078125 7.71875 
Q 3.21875 15.4375 3.21875 26.21875 
Q 3.21875 33.640625 5.90625 39.90625 
Q 8.59375 46.1875 13.6875 49.609375 
Q 18.796875 53.03125 25.6875 53.03125 
Q 34.859375 53.03125 40.828125 45.609375 
L 40.828125 51.859375 
L 48.921875 51.859375 
L 48.921875 7.03125 
Q 48.921875 -5.078125 46.453125 -10.125 
Q 44 -15.1875 38.640625 -18.109375 
Q 33.296875 -21.046875 25.484375 -21.046875 
Q 16.21875 -21.046875 10.5 -16.875 
Q 4.78125 -12.703125 4.984375 -4.296875 
z
M 12.25 26.859375 
Q 12.25 16.65625 16.296875 11.96875 
Q 20.359375 7.28125 26.46875 7.28125 
Q 32.515625 7.28125 36.609375 11.9375 
Q 40.71875 16.609375 40.71875 26.5625 
Q 40.71875 36.078125 36.5 40.90625 
Q 32.28125 45.75 26.3125 45.75 
Q 20.453125 45.75 16.34375 40.984375 
Q 12.25 36.234375 12.25 26.859375 
z
" id="ArialMT-67"/>
     <path d="M 40.578125 0 
L 40.578125 7.625 
Q 34.515625 -1.171875 24.125 -1.171875 
Q 19.53125 -1.171875 15.546875 0.578125 
Q 11.578125 2.34375 9.640625 5 
Q 7.71875 7.671875 6.9375 11.53125 
Q 6.390625 14.109375 6.390625 19.734375 
L 6.390625 51.859375 
L 15.1875 51.859375 
L 15.1875 23.09375 
Q 15.1875 16.21875 15.71875 13.8125 
Q 16.546875 10.359375 19.234375 8.375 
Q 21.921875 6.390625 25.875 6.390625 
Q 29.828125 6.390625 33.296875 8.421875 
Q 36.765625 10.453125 38.203125 13.9375 
Q 39.65625 17.4375 39.65625 24.078125 
L 39.65625 51.859375 
L 48.4375 51.859375 
L 48.4375 0 
z
" id="ArialMT-75"/>
     <path d="M 6.5 0 
L 6.5 51.859375 
L 14.40625 51.859375 
L 14.40625 44 
Q 17.4375 49.515625 20 51.265625 
Q 22.5625 53.03125 25.640625 53.03125 
Q 30.078125 53.03125 34.671875 50.203125 
L 31.640625 42.046875 
Q 28.421875 43.953125 25.203125 43.953125 
Q 22.3125 43.953125 20.015625 42.21875 
Q 17.71875 40.484375 16.75 37.40625 
Q 15.28125 32.71875 15.28125 27.15625 
L 15.28125 0 
z
" id="ArialMT-72"/>
     <path d="M 3.171875 21.484375 
L 3.171875 30.328125 
L 30.171875 30.328125 
L 30.171875 21.484375 
z
" id="ArialMT-2d"/>
     <path d="M 6.59375 0 
L 6.59375 51.859375 
L 14.453125 51.859375 
L 14.453125 44.578125 
Q 16.890625 48.390625 20.9375 50.703125 
Q 25 53.03125 30.171875 53.03125 
Q 35.9375 53.03125 39.625 50.640625 
Q 43.3125 48.25 44.828125 43.953125 
Q 50.984375 53.03125 60.84375 53.03125 
Q 68.5625 53.03125 72.703125 48.75 
Q 76.859375 44.484375 76.859375 35.59375 
L 76.859375 0 
L 68.109375 0 
L 68.109375 32.671875 
Q 68.109375 37.9375 67.25 40.25 
Q 66.40625 42.578125 64.15625 43.984375 
Q 61.921875 45.40625 58.890625 45.40625 
Q 53.421875 45.40625 49.796875 41.765625 
Q 46.1875 38.140625 46.1875 30.125 
L 46.1875 0 
L 37.40625 0 
L 37.40625 33.6875 
Q 37.40625 39.546875 35.25 42.46875 
Q 33.109375 45.40625 28.21875 45.40625 
Q 24.515625 45.40625 21.359375 43.453125 
Q 18.21875 41.5 16.796875 37.734375 
Q 15.375 33.984375 15.375 26.90625 
L 15.375 0 
z
" id="ArialMT-6d"/>
     <path d="M 6.640625 61.46875 
L 6.640625 71.578125 
L 15.4375 71.578125 
L 15.4375 61.46875 
z
M 6.640625 0 
L 6.640625 51.859375 
L 15.4375 51.859375 
L 15.4375 0 
z
" id="ArialMT-69"/>
     <path d="M 40.4375 19 
L 49.078125 17.875 
Q 47.65625 8.9375 41.8125 3.875 
Q 35.984375 -1.171875 27.484375 -1.171875 
Q 16.84375 -1.171875 10.375 5.78125 
Q 3.90625 12.75 3.90625 25.734375 
Q 3.90625 34.125 6.6875 40.421875 
Q 9.46875 46.734375 15.15625 49.875 
Q 20.84375 53.03125 27.546875 53.03125 
Q 35.984375 53.03125 41.359375 48.75 
Q 46.734375 44.484375 48.25 36.625 
L 39.703125 35.296875 
Q 38.484375 40.53125 35.375 43.15625 
Q 32.28125 45.796875 27.875 45.796875 
Q 21.234375 45.796875 17.078125 41.03125 
Q 12.9375 36.28125 12.9375 25.984375 
Q 12.9375 15.53125 16.9375 10.796875 
Q 20.953125 6.0625 27.390625 6.0625 
Q 32.5625 6.0625 36.03125 9.234375 
Q 39.5 12.40625 40.4375 19 
z
" id="ArialMT-63"/>
     <path d="M 3.328125 25.921875 
Q 3.328125 40.328125 11.328125 47.265625 
Q 18.015625 53.03125 27.640625 53.03125 
Q 38.328125 53.03125 45.109375 46.015625 
Q 51.90625 39.015625 51.90625 26.65625 
Q 51.90625 16.65625 48.90625 10.90625 
Q 45.90625 5.171875 40.15625 2 
Q 34.421875 -1.171875 27.640625 -1.171875 
Q 16.75 -1.171875 10.03125 5.8125 
Q 3.328125 12.796875 3.328125 25.921875 
z
M 12.359375 25.921875 
Q 12.359375 15.96875 16.703125 11.015625 
Q 21.046875 6.0625 27.640625 6.0625 
Q 34.1875 6.0625 38.53125 11.03125 
Q 42.875 16.015625 42.875 26.21875 
Q 42.875 35.84375 38.5 40.796875 
Q 34.125 45.75 27.640625 45.75 
Q 21.046875 45.75 16.703125 40.8125 
Q 12.359375 35.890625 12.359375 25.921875 
z
" id="ArialMT-6f"/>
     <path id="ArialMT-20"/>
     <path d="M 4.5 23 
L 13.421875 23.78125 
Q 14.0625 18.40625 16.375 14.96875 
Q 18.703125 11.53125 23.578125 9.40625 
Q 28.46875 7.28125 34.578125 7.28125 
Q 39.984375 7.28125 44.140625 8.890625 
Q 48.296875 10.5 50.3125 13.296875 
Q 52.34375 16.109375 52.34375 19.4375 
Q 52.34375 22.796875 50.390625 25.3125 
Q 48.4375 27.828125 43.953125 29.546875 
Q 41.0625 30.671875 31.203125 33.03125 
Q 21.34375 35.40625 17.390625 37.5 
Q 12.25 40.1875 9.734375 44.15625 
Q 7.234375 48.140625 7.234375 53.078125 
Q 7.234375 58.5 10.296875 63.203125 
Q 13.375 67.921875 19.28125 70.359375 
Q 25.203125 72.796875 32.421875 72.796875 
Q 40.375 72.796875 46.453125 70.234375 
Q 52.546875 67.671875 55.8125 62.6875 
Q 59.078125 57.71875 59.328125 51.421875 
L 50.25 50.734375 
Q 49.515625 57.515625 45.28125 60.984375 
Q 41.0625 64.453125 32.8125 64.453125 
Q 24.21875 64.453125 20.28125 61.296875 
Q 16.359375 58.15625 16.359375 53.71875 
Q 16.359375 49.859375 19.140625 47.359375 
Q 21.875 44.875 33.421875 42.265625 
Q 44.96875 39.65625 49.265625 37.703125 
Q 55.515625 34.8125 58.484375 30.390625 
Q 61.46875 25.984375 61.46875 20.21875 
Q 61.46875 14.5 58.203125 9.4375 
Q 54.9375 4.390625 48.796875 1.578125 
Q 42.671875 -1.21875 35.015625 -1.21875 
Q 25.296875 -1.21875 18.71875 1.609375 
Q 12.15625 4.4375 8.421875 10.125 
Q 4.6875 15.828125 4.5 23 
z
" id="ArialMT-53"/>
     <path d="M 7.421875 0 
L 7.421875 71.578125 
L 21.6875 71.578125 
L 38.625 20.90625 
Q 40.96875 13.8125 42.046875 10.296875 
Q 43.265625 14.203125 45.84375 21.78125 
L 62.984375 71.578125 
L 75.734375 71.578125 
L 75.734375 0 
L 66.609375 0 
L 66.609375 59.90625 
L 45.796875 0 
L 37.25 0 
L 16.546875 60.9375 
L 16.546875 0 
z
" id="ArialMT-4d"/>
     <path d="M 5.46875 16.546875 
L 13.921875 17.328125 
Q 14.984375 11.375 18.015625 8.6875 
Q 21.046875 6 25.78125 6 
Q 29.828125 6 32.875 7.859375 
Q 35.9375 9.71875 37.890625 12.8125 
Q 39.84375 15.921875 41.15625 21.1875 
Q 42.484375 26.46875 42.484375 31.9375 
Q 42.484375 32.515625 42.4375 33.6875 
Q 39.796875 29.5 35.234375 26.875 
Q 30.671875 24.265625 25.34375 24.265625 
Q 16.453125 24.265625 10.296875 30.703125 
Q 4.15625 37.15625 4.15625 47.703125 
Q 4.15625 58.59375 10.578125 65.234375 
Q 17 71.875 26.65625 71.875 
Q 33.640625 71.875 39.421875 68.109375 
Q 45.21875 64.359375 48.21875 57.390625 
Q 51.21875 50.4375 51.21875 37.25 
Q 51.21875 23.53125 48.234375 15.40625 
Q 45.265625 7.28125 39.375 3.03125 
Q 33.5 -1.21875 25.59375 -1.21875 
Q 17.1875 -1.21875 11.859375 3.4375 
Q 6.546875 8.109375 5.46875 16.546875 
z
M 41.453125 48.140625 
Q 41.453125 55.71875 37.421875 60.15625 
Q 33.40625 64.59375 27.734375 64.59375 
Q 21.875 64.59375 17.53125 59.8125 
Q 13.1875 55.03125 13.1875 47.40625 
Q 13.1875 40.578125 17.3125 36.296875 
Q 21.4375 32.03125 27.484375 32.03125 
Q 33.59375 32.03125 37.515625 36.296875 
Q 41.453125 40.578125 41.453125 48.140625 
z
" id="ArialMT-39"/>
    </defs>
    <g style="fill:#262626;" transform="translate(68.892812 19.44)scale(0.12 -0.12)">
     <use xlink:href="#ArialMT-4a"/>
     <use x="50" xlink:href="#ArialMT-61"/>
     <use x="105.615234" xlink:href="#ArialMT-67"/>
     <use x="161.230469" xlink:href="#ArialMT-75"/>
     <use x="216.845703" xlink:href="#ArialMT-61"/>
     <use x="272.460938" xlink:href="#ArialMT-72"/>
     <use x="305.761719" xlink:href="#ArialMT-2d"/>
     <use x="339.0625" xlink:href="#ArialMT-6d"/>
     <use x="422.363281" xlink:href="#ArialMT-69"/>
     <use x="444.580078" xlink:href="#ArialMT-63"/>
     <use x="494.580078" xlink:href="#ArialMT-72"/>
     <use x="527.880859" xlink:href="#ArialMT-6f"/>
     <use x="583.496094" xlink:href="#ArialMT-20"/>
     <use x="611.279297" xlink:href="#ArialMT-53"/>
     <use x="677.978516" xlink:href="#ArialMT-4d"/>
     <use x="761.279297" xlink:href="#ArialMT-30"/>
     <use x="816.894531" xlink:href="#ArialMT-39"/>
    </g>
   </g>
  </g>
 </g>
 <defs>
  <clipPath id="p18976009d4">
   <rect height="150.52" width="164.56" x="38.96" y="25.44"/>
  </clipPath>
 </defs>
</svg>
