<?xml version="1.0" encoding="utf-8" standalone="no"?>
<!DOCTYPE svg PUBLIC "-//W3C//DTD SVG 1.1//EN"
  "http://www.w3.org/Graphics/SVG/1.1/DTD/svg11.dtd">
<!-- Created with matplotlib (http://matplotlib.org/) -->
<svg height="216pt" version="1.1" viewBox="0 0 216 216" width="216pt" xmlns="http://www.w3.org/2000/svg" xmlns:xlink="http://www.w3.org/1999/xlink">
 <defs>
  <style type="text/css">
*{stroke-linecap:butt;stroke-linejoin:round;}
  </style>
 </defs>
 <g id="figure_1">
  <g id="patch_1">
   <path d="M 0 216 
L 216 216 
L 216 0 
L 0 0 
z
" style="fill:#ffffff;"/>
  </g>
  <g id="axes_1">
   <g id="patch_2">
    <path d="M 38.96 175.96 
L 203.52 175.96 
L 203.52 25.44 
L 38.96 25.44 
z
" style="fill:#ffffff;"/>
   </g>
   <g id="matplotlib.axis_1">
    <g id="xtick_1">
     <g id="line2d_1">
      <defs>
       <path d="M 0 0 
L 0 3.5 
" id="m8e2de364be" style="stroke:#262626;stroke-width:0.8;"/>
      </defs>
      <g>
       <use style="fill:#262626;stroke:#262626;stroke-width:0.8;" x="46.44" xlink:href="#m8e2de364be" y="175.96"/>
      </g>
     </g>
     <g id="text_1">
      <!-- 2 -->
      <defs>
       <path d="M 50.34375 8.453125 
L 50.34375 0 
L 3.03125 0 
Q 2.9375 3.171875 4.046875 6.109375 
Q 5.859375 10.9375 9.828125 15.625 
Q 13.8125 20.3125 21.34375 26.46875 
Q 33.015625 36.03125 37.109375 41.625 
Q 41.21875 47.21875 41.21875 52.203125 
Q 41.21875 57.421875 37.46875 61 
Q 33.734375 64.59375 27.734375 64.59375 
Q 21.390625 64.59375 17.578125 60.78125 
Q 13.765625 56.984375 13.71875 50.25 
L 4.6875 51.171875 
Q 5.609375 61.28125 11.65625 66.578125 
Q 17.71875 71.875 27.9375 71.875 
Q 38.234375 71.875 44.234375 66.15625 
Q 50.25 60.453125 50.25 52 
Q 50.25 47.703125 48.484375 43.546875 
Q 46.734375 39.40625 42.65625 34.8125 
Q 38.578125 30.21875 29.109375 22.21875 
Q 21.1875 15.578125 18.9375 13.203125 
Q 16.703125 10.84375 15.234375 8.453125 
z
" id="ArialMT-32"/>
      </defs>
      <g style="fill:#262626;" transform="translate(43.659531 190.117812)scale(0.1 -0.1)">
       <use xlink:href="#ArialMT-32"/>
      </g>
     </g>
    </g>
    <g id="xtick_2">
     <g id="line2d_2">
      <g>
       <use style="fill:#262626;stroke:#262626;stroke-width:0.8;" x="76.36" xlink:href="#m8e2de364be" y="175.96"/>
      </g>
     </g>
     <g id="text_2">
      <!-- 4 -->
      <defs>
       <path d="M 32.328125 0 
L 32.328125 17.140625 
L 1.265625 17.140625 
L 1.265625 25.203125 
L 33.9375 71.578125 
L 41.109375 71.578125 
L 41.109375 25.203125 
L 50.78125 25.203125 
L 50.78125 17.140625 
L 41.109375 17.140625 
L 41.109375 0 
z
M 32.328125 25.203125 
L 32.328125 57.46875 
L 9.90625 25.203125 
z
" id="ArialMT-34"/>
      </defs>
      <g style="fill:#262626;" transform="translate(73.579531 190.117812)scale(0.1 -0.1)">
       <use xlink:href="#ArialMT-34"/>
      </g>
     </g>
    </g>
    <g id="xtick_3">
     <g id="line2d_3">
      <g>
       <use style="fill:#262626;stroke:#262626;stroke-width:0.8;" x="106.28" xlink:href="#m8e2de364be" y="175.96"/>
      </g>
     </g>
     <g id="text_3">
      <!-- 6 -->
      <defs>
       <path d="M 49.75 54.046875 
L 41.015625 53.375 
Q 39.84375 58.546875 37.703125 60.890625 
Q 34.125 64.65625 28.90625 64.65625 
Q 24.703125 64.65625 21.53125 62.3125 
Q 17.390625 59.28125 14.984375 53.46875 
Q 12.59375 47.65625 12.5 36.921875 
Q 15.671875 41.75 20.265625 44.09375 
Q 24.859375 46.4375 29.890625 46.4375 
Q 38.671875 46.4375 44.84375 39.96875 
Q 51.03125 33.5 51.03125 23.25 
Q 51.03125 16.5 48.125 10.71875 
Q 45.21875 4.9375 40.140625 1.859375 
Q 35.0625 -1.21875 28.609375 -1.21875 
Q 17.625 -1.21875 10.6875 6.859375 
Q 3.765625 14.9375 3.765625 33.5 
Q 3.765625 54.25 11.421875 63.671875 
Q 18.109375 71.875 29.4375 71.875 
Q 37.890625 71.875 43.28125 67.140625 
Q 48.6875 62.40625 49.75 54.046875 
z
M 13.875 23.1875 
Q 13.875 18.65625 15.796875 14.5 
Q 17.71875 10.359375 21.1875 8.171875 
Q 24.65625 6 28.46875 6 
Q 34.03125 6 38.03125 10.484375 
Q 42.046875 14.984375 42.046875 22.703125 
Q 42.046875 30.125 38.078125 34.390625 
Q 34.125 38.671875 28.125 38.671875 
Q 22.171875 38.671875 18.015625 34.390625 
Q 13.875 30.125 13.875 23.1875 
z
" id="ArialMT-36"/>
      </defs>
      <g style="fill:#262626;" transform="translate(103.499531 190.117812)scale(0.1 -0.1)">
       <use xlink:href="#ArialMT-36"/>
      </g>
     </g>
    </g>
    <g id="xtick_4">
     <g id="line2d_4">
      <g>
       <use style="fill:#262626;stroke:#262626;stroke-width:0.8;" x="136.2" xlink:href="#m8e2de364be" y="175.96"/>
      </g>
     </g>
     <g id="text_4">
      <!-- 8 -->
      <defs>
       <path d="M 17.671875 38.8125 
Q 12.203125 40.828125 9.5625 44.53125 
Q 6.9375 48.25 6.9375 53.421875 
Q 6.9375 61.234375 12.546875 66.546875 
Q 18.171875 71.875 27.484375 71.875 
Q 36.859375 71.875 42.578125 66.421875 
Q 48.296875 60.984375 48.296875 53.171875 
Q 48.296875 48.1875 45.671875 44.5 
Q 43.0625 40.828125 37.75 38.8125 
Q 44.34375 36.671875 47.78125 31.875 
Q 51.21875 27.09375 51.21875 20.453125 
Q 51.21875 11.28125 44.71875 5.03125 
Q 38.234375 -1.21875 27.640625 -1.21875 
Q 17.046875 -1.21875 10.546875 5.046875 
Q 4.046875 11.328125 4.046875 20.703125 
Q 4.046875 27.6875 7.59375 32.390625 
Q 11.140625 37.109375 17.671875 38.8125 
z
M 15.921875 53.71875 
Q 15.921875 48.640625 19.1875 45.40625 
Q 22.46875 42.1875 27.6875 42.1875 
Q 32.765625 42.1875 36.015625 45.375 
Q 39.265625 48.578125 39.265625 53.21875 
Q 39.265625 58.0625 35.90625 61.359375 
Q 32.5625 64.65625 27.59375 64.65625 
Q 22.5625 64.65625 19.234375 61.421875 
Q 15.921875 58.203125 15.921875 53.71875 
z
M 13.09375 20.65625 
Q 13.09375 16.890625 14.875 13.375 
Q 16.65625 9.859375 20.171875 7.921875 
Q 23.6875 6 27.734375 6 
Q 34.03125 6 38.125 10.046875 
Q 42.234375 14.109375 42.234375 20.359375 
Q 42.234375 26.703125 38.015625 30.859375 
Q 33.796875 35.015625 27.4375 35.015625 
Q 21.234375 35.015625 17.15625 30.90625 
Q 13.09375 26.8125 13.09375 20.65625 
z
" id="ArialMT-38"/>
      </defs>
      <g style="fill:#262626;" transform="translate(133.419531 190.117812)scale(0.1 -0.1)">
       <use xlink:href="#ArialMT-38"/>
      </g>
     </g>
    </g>
    <g id="xtick_5">
     <g id="line2d_5">
      <g>
       <use style="fill:#262626;stroke:#262626;stroke-width:0.8;" x="166.12" xlink:href="#m8e2de364be" y="175.96"/>
      </g>
     </g>
     <g id="text_5">
      <!-- 10 -->
      <defs>
       <path d="M 37.25 0 
L 28.46875 0 
L 28.46875 56 
Q 25.296875 52.984375 20.140625 49.953125 
Q 14.984375 46.921875 10.890625 45.40625 
L 10.890625 53.90625 
Q 18.265625 57.375 23.78125 62.296875 
Q 29.296875 67.234375 31.59375 71.875 
L 37.25 71.875 
z
" id="ArialMT-31"/>
       <path d="M 4.15625 35.296875 
Q 4.15625 48 6.765625 55.734375 
Q 9.375 63.484375 14.515625 67.671875 
Q 19.671875 71.875 27.484375 71.875 
Q 33.25 71.875 37.59375 69.546875 
Q 41.9375 67.234375 44.765625 62.859375 
Q 47.609375 58.5 49.21875 52.21875 
Q 50.828125 45.953125 50.828125 35.296875 
Q 50.828125 22.703125 48.234375 14.96875 
Q 45.65625 7.234375 40.5 3 
Q 35.359375 -1.21875 27.484375 -1.21875 
Q 17.140625 -1.21875 11.234375 6.203125 
Q 4.15625 15.140625 4.15625 35.296875 
z
M 13.1875 35.296875 
Q 13.1875 17.671875 17.3125 11.828125 
Q 21.4375 6 27.484375 6 
Q 33.546875 6 37.671875 11.859375 
Q 41.796875 17.71875 41.796875 35.296875 
Q 41.796875 52.984375 37.671875 58.78125 
Q 33.546875 64.59375 27.390625 64.59375 
Q 21.34375 64.59375 17.71875 59.46875 
Q 13.1875 52.9375 13.1875 35.296875 
z
" id="ArialMT-30"/>
      </defs>
      <g style="fill:#262626;" transform="translate(160.559062 190.117812)scale(0.1 -0.1)">
       <use xlink:href="#ArialMT-31"/>
       <use x="55.615234" xlink:href="#ArialMT-30"/>
      </g>
     </g>
    </g>
    <g id="xtick_6">
     <g id="line2d_6">
      <g>
       <use style="fill:#262626;stroke:#262626;stroke-width:0.8;" x="196.04" xlink:href="#m8e2de364be" y="175.96"/>
      </g>
     </g>
     <g id="text_6">
      <!-- 12 -->
      <g style="fill:#262626;" transform="translate(190.479062 190.117812)scale(0.1 -0.1)">
       <use xlink:href="#ArialMT-31"/>
       <use x="55.615234" xlink:href="#ArialMT-32"/>
      </g>
     </g>
    </g>
    <g id="text_7">
     <!-- pH -->
     <defs>
      <path d="M 6.59375 -19.875 
L 6.59375 51.859375 
L 14.59375 51.859375 
L 14.59375 45.125 
Q 17.4375 49.078125 21 51.046875 
Q 24.5625 53.03125 29.640625 53.03125 
Q 36.28125 53.03125 41.359375 49.609375 
Q 46.4375 46.1875 49.015625 39.953125 
Q 51.609375 33.734375 51.609375 26.3125 
Q 51.609375 18.359375 48.75 11.984375 
Q 45.90625 5.609375 40.453125 2.21875 
Q 35.015625 -1.171875 29 -1.171875 
Q 24.609375 -1.171875 21.109375 0.6875 
Q 17.625 2.546875 15.375 5.375 
L 15.375 -19.875 
z
M 14.546875 25.640625 
Q 14.546875 15.625 18.59375 10.84375 
Q 22.65625 6.0625 28.421875 6.0625 
Q 34.28125 6.0625 38.453125 11.015625 
Q 42.625 15.96875 42.625 26.375 
Q 42.625 36.28125 38.546875 41.203125 
Q 34.46875 46.140625 28.8125 46.140625 
Q 23.1875 46.140625 18.859375 40.890625 
Q 14.546875 35.640625 14.546875 25.640625 
z
" id="ArialMT-70"/>
      <path d="M 8.015625 0 
L 8.015625 71.578125 
L 17.484375 71.578125 
L 17.484375 42.1875 
L 54.6875 42.1875 
L 54.6875 71.578125 
L 64.15625 71.578125 
L 64.15625 0 
L 54.6875 0 
L 54.6875 33.734375 
L 17.484375 33.734375 
L 17.484375 0 
z
" id="ArialMT-48"/>
     </defs>
     <g style="fill:#262626;" transform="translate(114.848594 203.263125)scale(0.1 -0.1)">
      <use xlink:href="#ArialMT-70"/>
      <use x="55.615234" xlink:href="#ArialMT-48"/>
     </g>
    </g>
   </g>
   <g id="matplotlib.axis_2">
    <g id="ytick_1">
     <g id="line2d_7">
      <defs>
       <path d="M 0 0 
L -3.5 0 
" id="m4f2840f18c" style="stroke:#262626;stroke-width:0.8;"/>
      </defs>
      <g>
       <use style="fill:#262626;stroke:#262626;stroke-width:0.8;" x="38.96" xlink:href="#m4f2840f18c" y="148.866561"/>
      </g>
     </g>
     <g id="text_8">
      <!-- 0 -->
      <g style="fill:#262626;" transform="translate(26.399063 152.445467)scale(0.1 -0.1)">
       <use xlink:href="#ArialMT-30"/>
      </g>
     </g>
    </g>
    <g id="ytick_2">
     <g id="line2d_8">
      <g>
       <use style="fill:#262626;stroke:#262626;stroke-width:0.8;" x="38.96" xlink:href="#m4f2840f18c" y="102.252129"/>
      </g>
     </g>
     <g id="text_9">
      <!-- 1 -->
      <g style="fill:#262626;" transform="translate(26.399063 105.831035)scale(0.1 -0.1)">
       <use xlink:href="#ArialMT-31"/>
      </g>
     </g>
    </g>
    <g id="ytick_3">
     <g id="line2d_9">
      <g>
       <use style="fill:#262626;stroke:#262626;stroke-width:0.8;" x="38.96" xlink:href="#m4f2840f18c" y="55.637696"/>
      </g>
     </g>
     <g id="text_10">
      <!-- 2 -->
      <g style="fill:#262626;" transform="translate(26.399063 59.216603)scale(0.1 -0.1)">
       <use xlink:href="#ArialMT-32"/>
      </g>
     </g>
    </g>
    <g id="text_11">
     <!-- $\langle q_\mathsf{total} \rangle$ -->
     <defs>
      <path d="M 8.9375 31.34375 
L 22.703125 75.875 
L 31 75.875 
L 17.234375 31.34375 
L 31 -13.1875 
L 22.703125 -13.1875 
z
" id="DejaVuSans-27e8"/>
      <path d="M 41.703125 8.203125 
Q 38.09375 3.46875 33.171875 1.015625 
Q 28.265625 -1.421875 22.3125 -1.421875 
Q 14.015625 -1.421875 9.296875 4.171875 
Q 4.59375 9.765625 4.59375 19.578125 
Q 4.59375 27.484375 7.5 34.859375 
Q 10.40625 42.234375 15.828125 48.09375 
Q 19.34375 51.90625 23.90625 53.953125 
Q 28.46875 56 33.5 56 
Q 39.546875 56 43.453125 53.609375 
Q 47.359375 51.21875 49.125 46.390625 
L 50.6875 54.59375 
L 59.71875 54.59375 
L 45.125 -20.609375 
L 36.078125 -20.609375 
z
M 13.921875 20.90625 
Q 13.921875 13.671875 16.9375 9.890625 
Q 19.96875 6.109375 25.6875 6.109375 
Q 34.1875 6.109375 40.1875 14.234375 
Q 46.1875 22.359375 46.1875 33.984375 
Q 46.1875 41.015625 43.078125 44.75 
Q 39.984375 48.484375 34.1875 48.484375 
Q 29.9375 48.484375 26.3125 46.5 
Q 22.703125 44.53125 20.015625 40.71875 
Q 17.1875 36.71875 15.546875 31.34375 
Q 13.921875 25.984375 13.921875 20.90625 
z
" id="DejaVuSans-Oblique-71"/>
      <path d="M 18.3125 70.21875 
L 18.3125 54.6875 
L 36.8125 54.6875 
L 36.8125 47.703125 
L 18.3125 47.703125 
L 18.3125 18.015625 
Q 18.3125 11.328125 20.140625 9.421875 
Q 21.96875 7.515625 27.59375 7.515625 
L 36.8125 7.515625 
L 36.8125 0 
L 27.59375 0 
Q 17.1875 0 13.234375 3.875 
Q 9.28125 7.765625 9.28125 18.015625 
L 9.28125 47.703125 
L 2.6875 47.703125 
L 2.6875 54.6875 
L 9.28125 54.6875 
L 9.28125 70.21875 
z
" id="DejaVuSans-74"/>
      <path d="M 30.609375 48.390625 
Q 23.390625 48.390625 19.1875 42.75 
Q 14.984375 37.109375 14.984375 27.296875 
Q 14.984375 17.484375 19.15625 11.84375 
Q 23.34375 6.203125 30.609375 6.203125 
Q 37.796875 6.203125 41.984375 11.859375 
Q 46.1875 17.53125 46.1875 27.296875 
Q 46.1875 37.015625 41.984375 42.703125 
Q 37.796875 48.390625 30.609375 48.390625 
z
M 30.609375 56 
Q 42.328125 56 49.015625 48.375 
Q 55.71875 40.765625 55.71875 27.296875 
Q 55.71875 13.875 49.015625 6.21875 
Q 42.328125 -1.421875 30.609375 -1.421875 
Q 18.84375 -1.421875 12.171875 6.21875 
Q 5.515625 13.875 5.515625 27.296875 
Q 5.515625 40.765625 12.171875 48.375 
Q 18.84375 56 30.609375 56 
z
" id="DejaVuSans-6f"/>
      <path d="M 34.28125 27.484375 
Q 23.390625 27.484375 19.1875 25 
Q 14.984375 22.515625 14.984375 16.5 
Q 14.984375 11.71875 18.140625 8.90625 
Q 21.296875 6.109375 26.703125 6.109375 
Q 34.1875 6.109375 38.703125 11.40625 
Q 43.21875 16.703125 43.21875 25.484375 
L 43.21875 27.484375 
z
M 52.203125 31.203125 
L 52.203125 0 
L 43.21875 0 
L 43.21875 8.296875 
Q 40.140625 3.328125 35.546875 0.953125 
Q 30.953125 -1.421875 24.3125 -1.421875 
Q 15.921875 -1.421875 10.953125 3.296875 
Q 6 8.015625 6 15.921875 
Q 6 25.140625 12.171875 29.828125 
Q 18.359375 34.515625 30.609375 34.515625 
L 43.21875 34.515625 
L 43.21875 35.40625 
Q 43.21875 41.609375 39.140625 45 
Q 35.0625 48.390625 27.6875 48.390625 
Q 23 48.390625 18.546875 47.265625 
Q 14.109375 46.140625 10.015625 43.890625 
L 10.015625 52.203125 
Q 14.9375 54.109375 19.578125 55.046875 
Q 24.21875 56 28.609375 56 
Q 40.484375 56 46.34375 49.84375 
Q 52.203125 43.703125 52.203125 31.203125 
z
" id="DejaVuSans-61"/>
      <path d="M 9.421875 75.984375 
L 18.40625 75.984375 
L 18.40625 0 
L 9.421875 0 
z
" id="DejaVuSans-6c"/>
      <path d="M 30.078125 31.34375 
L 16.3125 -13.1875 
L 8.015625 -13.1875 
L 21.78125 31.34375 
L 8.015625 75.875 
L 16.3125 75.875 
z
" id="DejaVuSans-27e9"/>
     </defs>
     <g style="fill:#262626;" transform="translate(20.299063 115.95)rotate(-90)scale(0.1 -0.1)">
      <use transform="translate(0 0.125)" xlink:href="#DejaVuSans-27e8"/>
      <use transform="translate(39.013672 0.125)" xlink:href="#DejaVuSans-Oblique-71"/>
      <use transform="translate(102.490234 -16.28125)scale(0.7)" xlink:href="#DejaVuSans-74"/>
      <use transform="translate(129.936523 -16.28125)scale(0.7)" xlink:href="#DejaVuSans-6f"/>
      <use transform="translate(172.763672 -16.28125)scale(0.7)" xlink:href="#DejaVuSans-74"/>
      <use transform="translate(200.209961 -16.28125)scale(0.7)" xlink:href="#DejaVuSans-61"/>
      <use transform="translate(243.105469 -16.28125)scale(0.7)" xlink:href="#DejaVuSans-6c"/>
      <use transform="translate(265.288086 0.125)" xlink:href="#DejaVuSans-27e9"/>
     </g>
    </g>
   </g>
   <g id="PolyCollection_1">
    <defs>
     <path d="M 46.44 -183.718182 
L 46.44 -123.948955 
L 47.936 -122.890723 
L 49.432 -121.765002 
L 50.928 -120.566408 
L 52.424 -119.29444 
L 53.92 -117.955484 
L 55.416 -116.564333 
L 56.912 -115.14464 
L 58.408 -113.727841 
L 59.904 -112.350502 
L 61.4 -111.050516 
L 62.896 -109.862872 
L 64.392 -108.815772 
L 65.888 -107.927655 
L 67.384 -107.205301 
L 68.88 -106.64293 
L 70.376 -106.221929 
L 71.872 -105.910784 
L 73.368 -105.664892 
L 74.864 -105.426415 
L 76.36 -105.125375 
L 77.856 -104.684334 
L 79.352 -104.028755 
L 80.848 -103.101591 
L 82.344 -101.875411 
L 83.84 -100.355225 
L 85.336 -98.57206 
L 86.832 -96.572955 
L 88.328 -94.412138 
L 89.824 -92.144487 
L 91.32 -89.820581 
L 92.816 -87.482689 
L 94.312 -85.161691 
L 95.808 -82.875244 
L 97.304 -80.627525 
L 98.8 -78.410637 
L 100.296 -76.20755 
L 101.792 -73.996263 
L 103.288 -71.754782 
L 104.784 -69.466414 
L 106.28 -67.124743 
L 107.776 -64.737508 
L 109.272 -62.328562 
L 110.768 -59.937213 
L 112.264 -57.614756 
L 113.76 -55.418665 
L 115.256 -53.405623 
L 116.752 -51.624887 
L 118.248 -50.113326 
L 119.744 -48.892897 
L 121.24 -47.970565 
L 122.736 -47.340115 
L 124.232 -46.985056 
L 125.728 -46.881818 
L 127.224 -47.002704 
L 128.72 -47.318287 
L 130.216 -47.799156 
L 131.712 -48.417064 
L 133.208 -49.145607 
L 134.704 -49.960563 
L 136.2 -50.840049 
L 137.696 -51.764568 
L 139.192 -52.71701 
L 140.688 -53.682593 
L 142.184 -54.64874 
L 143.68 -55.604868 
L 145.176 -56.542125 
L 146.672 -57.453105 
L 148.168 -58.331614 
L 149.664 -59.172513 
L 151.16 -59.971641 
L 152.656 -60.725792 
L 154.152 -61.432683 
L 155.648 -62.090899 
L 157.144 -62.699793 
L 158.64 -63.259357 
L 160.136 -63.770107 
L 161.632 -64.232978 
L 163.128 -64.649266 
L 164.624 -65.020604 
L 166.12 -65.348959 
L 167.616 -65.636638 
L 169.112 -65.886276 
L 170.608 -66.100797 
L 172.104 -66.283346 
L 173.6 -66.437179 
L 175.096 -66.565525 
L 176.592 -66.671418 
L 178.088 -66.757498 
L 179.584 -66.82575 
L 181.08 -66.87719 
L 182.576 -66.911596 
L 184.072 -66.927784 
L 185.568 -66.924912 
L 187.064 -66.903861 
L 188.56 -66.866782 
L 190.056 -66.815574 
L 191.552 -66.751175 
L 193.048 -66.673705 
L 194.544 -66.582832 
L 196.04 -66.478044 
L 196.04 -67.789006 
L 196.04 -67.789006 
L 194.544 -67.684284 
L 193.048 -67.593491 
L 191.552 -67.516117 
L 190.056 -67.451836 
L 188.56 -67.400775 
L 187.064 -67.363878 
L 185.568 -67.343056 
L 184.072 -67.340471 
L 182.576 -67.35702 
L 181.08 -67.391878 
L 179.584 -67.443887 
L 178.088 -67.512856 
L 176.592 -67.599836 
L 175.096 -67.706863 
L 173.6 -67.836637 
L 172.104 -67.992267 
L 170.608 -68.177078 
L 169.112 -68.394447 
L 167.616 -68.647668 
L 166.12 -68.939859 
L 164.624 -69.273894 
L 163.128 -69.65238 
L 161.632 -70.077667 
L 160.136 -70.551863 
L 158.64 -71.076868 
L 157.144 -71.654371 
L 155.648 -72.285838 
L 154.152 -72.972458 
L 152.656 -73.715082 
L 151.16 -74.514179 
L 149.664 -75.36983 
L 148.168 -76.281788 
L 146.672 -77.249602 
L 145.176 -78.272766 
L 143.68 -79.35087 
L 142.184 -80.483707 
L 140.688 -81.671359 
L 139.192 -82.914296 
L 137.696 -84.213541 
L 136.2 -85.570958 
L 134.704 -86.989642 
L 133.208 -88.474404 
L 131.712 -90.03223 
L 130.216 -91.672645 
L 128.72 -93.407879 
L 127.224 -95.252707 
L 125.728 -97.223864 
L 124.232 -99.338873 
L 122.736 -101.614166 
L 121.24 -104.062411 
L 119.744 -106.689135 
L 118.248 -109.488961 
L 116.752 -112.442074 
L 115.256 -115.511805 
L 113.76 -118.644221 
L 112.264 -121.77038 
L 110.768 -124.811257 
L 109.272 -127.684582 
L 107.776 -130.312206 
L 106.28 -132.62651 
L 104.784 -134.574706 
L 103.288 -136.120703 
L 101.792 -137.244869 
L 100.296 -137.942557 
L 98.8 -138.222301 
L 97.304 -138.104382 
L 95.808 -137.620076 
L 94.312 -136.811498 
L 92.816 -135.731655 
L 91.32 -134.444218 
L 89.824 -133.022589 
L 88.328 -131.548096 
L 86.832 -130.107405 
L 85.336 -128.789295 
L 83.84 -127.680651 
L 82.344 -126.860965 
L 80.848 -126.394542 
L 79.352 -126.321501 
L 77.856 -126.652203 
L 76.36 -127.370704 
L 74.864 -128.447121 
L 73.368 -129.851854 
L 71.872 -131.564736 
L 70.376 -133.577352 
L 68.88 -135.890403 
L 67.384 -138.508373 
L 65.888 -141.432925 
L 64.392 -144.655928 
L 62.896 -148.153059 
L 61.4 -151.879225 
L 59.904 -155.767177 
L 58.408 -159.730212 
L 56.912 -163.668933 
L 55.416 -167.48085 
L 53.92 -171.070759 
L 52.424 -174.359675 
L 50.928 -177.290666 
L 49.432 -179.830925 
L 47.936 -181.97043 
L 46.44 -183.718182 
z
" id="mf20e8230b3" style="stroke:#ffffff;stroke-opacity:0.05;"/>
    </defs>
    <g clip-path="url(#p98b8eb18e7)">
     <use style="fill:#8c0800;fill-opacity:0.05;stroke:#ffffff;stroke-opacity:0.05;" x="0" xlink:href="#mf20e8230b3" y="216"/>
    </g>
   </g>
   <g id="line2d_10">
    <path clip-path="url(#p98b8eb18e7)" d="M 46.44 62.166431 
L 47.936 63.569423 
L 49.432 65.202037 
L 50.928 67.071463 
L 52.424 69.172942 
L 53.92 71.486879 
L 55.416 73.977408 
L 56.912 76.593213 
L 58.408 79.270973 
L 59.904 81.94116 
L 61.4 84.535129 
L 62.896 86.992035 
L 64.392 89.26415 
L 65.888 91.31971 
L 67.384 93.143163 
L 68.88 94.733333 
L 70.376 96.10036 
L 71.872 97.26224 
L 73.368 98.241627 
L 74.864 99.063232 
L 76.36 99.75196 
L 77.856 100.331732 
L 79.352 100.824872 
L 80.848 101.251934 
L 82.344 101.631812 
L 83.84 101.982062 
L 85.336 102.319322 
L 86.832 102.65982 
L 88.328 103.019883 
L 89.824 103.416462 
L 91.32 103.867601 
L 92.816 104.392828 
L 94.312 105.013406 
L 95.808 105.75234 
L 97.304 106.634047 
L 98.8 107.683531 
L 100.296 108.924946 
L 101.792 110.379434 
L 103.288 112.062258 
L 104.784 113.97944 
L 106.28 116.124374 
L 107.776 118.475143 
L 109.272 120.993428 
L 110.768 123.625765 
L 112.264 126.307432 
L 113.76 128.968557 
L 115.256 131.541286 
L 116.752 133.96652 
L 118.248 136.198857 
L 119.744 138.208984 
L 121.24 139.983512 
L 122.736 141.522859 
L 124.232 142.838035 
L 125.728 143.947159 
L 127.224 144.872294 
L 128.72 145.636917 
L 130.216 146.264099 
L 131.712 146.775353 
L 133.208 147.189995 
L 134.704 147.524898 
L 136.2 147.794497 
L 137.696 148.010945 
L 139.192 148.184347 
L 140.688 148.323024 
L 142.184 148.433777 
L 143.68 148.522131 
L 145.176 148.592554 
L 146.672 148.648646 
L 148.168 148.693299 
L 149.664 148.728829 
L 151.16 148.75709 
L 152.656 148.779563 
L 154.152 148.797429 
L 155.648 148.811631 
L 157.144 148.822918 
L 158.64 148.831888 
L 160.136 148.839015 
L 161.632 148.844678 
L 163.128 148.849177 
L 164.624 148.852751 
L 166.12 148.855591 
L 167.616 148.857847 
L 169.112 148.859639 
L 170.608 148.861063 
L 172.104 148.862194 
L 173.6 148.863092 
L 175.096 148.863806 
L 176.592 148.864373 
L 178.088 148.864823 
L 179.584 148.865181 
L 181.08 148.865466 
L 182.576 148.865692 
L 184.072 148.865872 
L 185.568 148.866016 
L 187.064 148.86613 
L 188.56 148.866222 
L 190.056 148.866295 
L 191.552 148.866354 
L 193.048 148.866402 
L 194.544 148.866442 
L 196.04 148.866475 
" style="fill:none;opacity:0.9;stroke:#8c0800;stroke-linecap:round;stroke-width:1.5;"/>
   </g>
   <g id="line2d_11">
    <path clip-path="url(#p98b8eb18e7)" d="M 46.44 65.353923 
L 47.936 67.246276 
L 49.432 69.37111 
L 50.928 71.707984 
L 52.424 74.220258 
L 53.92 76.856112 
L 55.416 79.552228 
L 56.912 82.239759 
L 58.408 84.851503 
L 59.904 87.328799 
L 61.4 89.626752 
L 62.896 91.716956 
L 64.392 93.587662 
L 65.888 95.241941 
L 67.384 96.694704 
L 68.88 97.969404 
L 70.376 99.095055 
L 71.872 100.103886 
L 73.368 101.029722 
L 74.864 101.907032 
L 76.36 102.770468 
L 77.856 103.654713 
L 79.352 104.594402 
L 80.848 105.623924 
L 82.344 106.776882 
L 83.84 108.085013 
L 85.336 109.57643 
L 86.832 111.273133 
L 88.328 113.187928 
L 89.824 115.321139 
L 91.32 117.657778 
L 92.816 120.166053 
L 94.312 122.798009 
L 95.808 125.492792 
L 97.304 128.182287 
L 98.8 130.798195 
L 100.296 133.279085 
L 101.792 135.575963 
L 103.288 137.655427 
L 104.784 139.500189 
L 106.28 141.107426 
L 107.776 142.485797 
L 109.272 143.651972 
L 110.768 144.627344 
L 112.264 145.435319 
L 113.76 146.099305 
L 115.256 146.641392 
L 116.752 147.081592 
L 118.248 147.437499 
L 119.744 147.724242 
L 121.24 147.954607 
L 122.736 148.139255 
L 124.232 148.286988 
L 125.728 148.405014 
L 127.224 148.499196 
L 128.72 148.574281 
L 130.216 148.634096 
L 131.712 148.681719 
L 133.208 148.719616 
L 134.704 148.749763 
L 136.2 148.773737 
L 137.696 148.792798 
L 139.192 148.80795 
L 140.688 148.819993 
L 142.184 148.829563 
L 143.68 148.837168 
L 145.176 148.84321 
L 146.672 148.848011 
L 148.168 148.851825 
L 149.664 148.854855 
L 151.16 148.857262 
L 152.656 148.859174 
L 154.152 148.860693 
L 155.648 148.8619 
L 157.144 148.862859 
L 158.64 148.86362 
L 160.136 148.864225 
L 161.632 148.864705 
L 163.128 148.865087 
L 164.624 148.86539 
L 166.12 148.865631 
L 167.616 148.865822 
L 169.112 148.865974 
L 170.608 148.866095 
L 172.104 148.866191 
L 173.6 148.866267 
L 175.096 148.866327 
L 176.592 148.866375 
L 178.088 148.866414 
L 179.584 148.866444 
L 181.08 148.866468 
L 182.576 148.866487 
L 184.072 148.866502 
L 185.568 148.866514 
L 187.064 148.866524 
L 188.56 148.866532 
L 190.056 148.866538 
L 191.552 148.866542 
L 193.048 148.866546 
L 194.544 148.866549 
L 196.04 148.866552 
" style="fill:none;opacity:0.7;stroke:#000000;stroke-linecap:round;stroke-width:1.5;"/>
   </g>
   <g id="line2d_12">
    <path clip-path="url(#p98b8eb18e7)" d="M 46.44 32.281818 
L 47.936 34.02957 
L 49.432 36.169075 
L 50.928 38.709334 
L 52.424 41.640325 
L 53.92 44.929241 
L 55.416 48.51915 
L 56.912 52.331067 
L 58.408 56.269788 
L 59.904 60.232823 
L 61.4 64.120775 
L 62.896 67.846941 
L 64.392 71.344072 
L 65.888 74.567075 
L 67.384 77.491627 
L 68.88 80.109597 
L 70.376 82.422648 
L 71.872 84.435264 
L 73.368 86.148146 
L 74.864 87.552879 
L 76.36 88.629296 
L 77.856 89.347797 
L 79.352 89.678499 
L 80.848 89.605458 
L 82.344 89.139035 
L 83.84 88.319349 
L 85.336 87.210705 
L 86.832 85.892595 
L 88.328 84.451904 
L 89.824 82.977411 
L 91.32 81.555782 
L 92.816 80.268345 
L 94.312 79.188502 
L 95.808 78.379924 
L 97.304 77.895618 
L 98.8 77.777699 
L 100.296 78.057443 
L 101.792 78.755131 
L 103.288 79.879297 
L 104.784 81.425294 
L 106.28 83.37349 
L 107.776 85.687794 
L 109.272 88.315418 
L 110.768 91.188743 
L 112.264 94.22962 
L 113.76 97.355779 
L 115.256 100.488195 
L 116.752 103.557926 
L 118.248 106.511039 
L 119.744 109.310865 
L 121.24 111.937589 
L 122.736 114.385834 
L 124.232 116.661127 
L 125.728 118.776136 
L 127.224 120.747293 
L 128.72 122.592121 
L 130.216 124.327355 
L 131.712 125.96777 
L 133.208 127.525596 
L 134.704 129.010358 
L 136.2 130.429042 
L 137.696 131.786459 
L 139.192 133.085704 
L 140.688 134.328641 
L 142.184 135.516293 
L 143.68 136.64913 
L 145.176 137.727234 
L 146.672 138.750398 
L 148.168 139.718212 
L 149.664 140.63017 
L 151.16 141.485821 
L 152.656 142.284918 
L 154.152 143.027542 
L 155.648 143.714162 
L 157.144 144.345629 
L 158.64 144.923132 
L 160.136 145.448137 
L 161.632 145.922333 
L 163.128 146.34762 
L 164.624 146.726106 
L 166.12 147.060141 
L 167.616 147.352332 
L 169.112 147.605553 
L 170.608 147.822922 
L 172.104 148.007733 
L 173.6 148.163363 
L 175.096 148.293137 
L 176.592 148.400164 
L 178.088 148.487144 
L 179.584 148.556113 
L 181.08 148.608122 
L 182.576 148.64298 
L 184.072 148.659529 
L 185.568 148.656944 
L 187.064 148.636122 
L 188.56 148.599225 
L 190.056 148.548164 
L 191.552 148.483883 
L 193.048 148.406509 
L 194.544 148.315716 
L 196.04 148.210994 
" style="fill:none;opacity:0.45;stroke:#8c0800;stroke-dasharray:2.775,1.2;stroke-dashoffset:0;stroke-width:0.75;"/>
   </g>
   <g id="line2d_13">
    <path clip-path="url(#p98b8eb18e7)" d="M 46.44 92.051045 
L 47.936 93.109277 
L 49.432 94.234998 
L 50.928 95.433592 
L 52.424 96.70556 
L 53.92 98.044516 
L 55.416 99.435667 
L 56.912 100.85536 
L 58.408 102.272159 
L 59.904 103.649498 
L 61.4 104.949484 
L 62.896 106.137128 
L 64.392 107.184228 
L 65.888 108.072345 
L 67.384 108.794699 
L 68.88 109.35707 
L 70.376 109.778071 
L 71.872 110.089216 
L 73.368 110.335108 
L 74.864 110.573585 
L 76.36 110.874625 
L 77.856 111.315666 
L 79.352 111.971245 
L 80.848 112.898409 
L 82.344 114.124589 
L 83.84 115.644775 
L 85.336 117.42794 
L 86.832 119.427045 
L 88.328 121.587862 
L 89.824 123.855513 
L 91.32 126.179419 
L 92.816 128.517311 
L 94.312 130.838309 
L 95.808 133.124756 
L 97.304 135.372475 
L 98.8 137.589363 
L 100.296 139.79245 
L 101.792 142.003737 
L 103.288 144.245218 
L 104.784 146.533586 
L 106.28 148.875257 
L 107.776 151.262492 
L 109.272 153.671438 
L 110.768 156.062787 
L 112.264 158.385244 
L 113.76 160.581335 
L 115.256 162.594377 
L 116.752 164.375113 
L 118.248 165.886674 
L 119.744 167.107103 
L 121.24 168.029435 
L 122.736 168.659885 
L 124.232 169.014944 
L 125.728 169.118182 
L 127.224 168.997296 
L 128.72 168.681713 
L 130.216 168.200844 
L 131.712 167.582936 
L 133.208 166.854393 
L 134.704 166.039437 
L 136.2 165.159951 
L 137.696 164.235432 
L 139.192 163.28299 
L 140.688 162.317407 
L 142.184 161.35126 
L 143.68 160.395132 
L 145.176 159.457875 
L 146.672 158.546895 
L 148.168 157.668386 
L 149.664 156.827487 
L 151.16 156.028359 
L 152.656 155.274208 
L 154.152 154.567317 
L 155.648 153.909101 
L 157.144 153.300207 
L 158.64 152.740643 
L 160.136 152.229893 
L 161.632 151.767022 
L 163.128 151.350734 
L 164.624 150.979396 
L 166.12 150.651041 
L 167.616 150.363362 
L 169.112 150.113724 
L 170.608 149.899203 
L 172.104 149.716654 
L 173.6 149.562821 
L 175.096 149.434475 
L 176.592 149.328582 
L 178.088 149.242502 
L 179.584 149.17425 
L 181.08 149.12281 
L 182.576 149.088404 
L 184.072 149.072216 
L 185.568 149.075088 
L 187.064 149.096139 
L 188.56 149.133218 
L 190.056 149.184426 
L 191.552 149.248825 
L 193.048 149.326295 
L 194.544 149.417168 
L 196.04 149.521956 
" style="fill:none;opacity:0.45;stroke:#8c0800;stroke-dasharray:2.775,1.2;stroke-dashoffset:0;stroke-width:0.75;"/>
   </g>
   <g id="patch_3">
    <path d="M 38.96 175.96 
L 38.96 25.44 
" style="fill:none;stroke:#262626;stroke-linecap:square;stroke-linejoin:miter;stroke-width:0.8;"/>
   </g>
   <g id="patch_4">
    <path d="M 38.96 175.96 
L 203.52 175.96 
" style="fill:none;stroke:#262626;stroke-linecap:square;stroke-linejoin:miter;stroke-width:0.8;"/>
   </g>
   <g id="text_12">
    <!-- Jaguar-micro SM14 -->
    <defs>
     <path d="M 2.875 20.3125 
L 11.421875 21.484375 
Q 11.765625 13.28125 14.5 10.25 
Q 17.234375 7.234375 22.078125 7.234375 
Q 25.640625 7.234375 28.21875 8.859375 
Q 30.8125 10.5 31.78125 13.296875 
Q 32.765625 16.109375 32.765625 22.265625 
L 32.765625 71.578125 
L 42.234375 71.578125 
L 42.234375 22.796875 
Q 42.234375 13.8125 40.0625 8.875 
Q 37.890625 3.953125 33.171875 1.359375 
Q 28.46875 -1.21875 22.125 -1.21875 
Q 12.703125 -1.21875 7.6875 4.203125 
Q 2.6875 9.625 2.875 20.3125 
z
" id="ArialMT-4a"/>
     <path d="M 40.4375 6.390625 
Q 35.546875 2.25 31.03125 0.53125 
Q 26.515625 -1.171875 21.34375 -1.171875 
Q 12.796875 -1.171875 8.203125 3 
Q 3.609375 7.171875 3.609375 13.671875 
Q 3.609375 17.484375 5.34375 20.625 
Q 7.078125 23.78125 9.890625 25.6875 
Q 12.703125 27.59375 16.21875 28.5625 
Q 18.796875 29.25 24.03125 29.890625 
Q 34.671875 31.15625 39.703125 32.90625 
Q 39.75 34.71875 39.75 35.203125 
Q 39.75 40.578125 37.25 42.78125 
Q 33.890625 45.75 27.25 45.75 
Q 21.046875 45.75 18.09375 43.578125 
Q 15.140625 41.40625 13.71875 35.890625 
L 5.125 37.0625 
Q 6.296875 42.578125 8.984375 45.96875 
Q 11.671875 49.359375 16.75 51.1875 
Q 21.828125 53.03125 28.515625 53.03125 
Q 35.15625 53.03125 39.296875 51.46875 
Q 43.453125 49.90625 45.40625 47.53125 
Q 47.359375 45.171875 48.140625 41.546875 
Q 48.578125 39.3125 48.578125 33.453125 
L 48.578125 21.734375 
Q 48.578125 9.46875 49.140625 6.21875 
Q 49.703125 2.984375 51.375 0 
L 42.1875 0 
Q 40.828125 2.734375 40.4375 6.390625 
z
M 39.703125 26.03125 
Q 34.90625 24.078125 25.34375 22.703125 
Q 19.921875 21.921875 17.671875 20.9375 
Q 15.4375 19.96875 14.203125 18.09375 
Q 12.984375 16.21875 12.984375 13.921875 
Q 12.984375 10.40625 15.640625 8.0625 
Q 18.3125 5.71875 23.4375 5.71875 
Q 28.515625 5.71875 32.46875 7.9375 
Q 36.421875 10.15625 38.28125 14.015625 
Q 39.703125 17 39.703125 22.796875 
z
" id="ArialMT-61"/>
     <path d="M 4.984375 -4.296875 
L 13.53125 -5.5625 
Q 14.0625 -9.515625 16.5 -11.328125 
Q 19.78125 -13.765625 25.4375 -13.765625 
Q 31.546875 -13.765625 34.859375 -11.328125 
Q 38.1875 -8.890625 39.359375 -4.5 
Q 40.046875 -1.8125 39.984375 6.78125 
Q 34.234375 0 25.640625 0 
Q 14.9375 0 9.078125 7.71875 
Q 3.21875 15.4375 3.21875 26.21875 
Q 3.21875 33.640625 5.90625 39.90625 
Q 8.59375 46.1875 13.6875 49.609375 
Q 18.796875 53.03125 25.6875 53.03125 
Q 34.859375 53.03125 40.828125 45.609375 
L 40.828125 51.859375 
L 48.921875 51.859375 
L 48.921875 7.03125 
Q 48.921875 -5.078125 46.453125 -10.125 
Q 44 -15.1875 38.640625 -18.109375 
Q 33.296875 -21.046875 25.484375 -21.046875 
Q 16.21875 -21.046875 10.5 -16.875 
Q 4.78125 -12.703125 4.984375 -4.296875 
z
M 12.25 26.859375 
Q 12.25 16.65625 16.296875 11.96875 
Q 20.359375 7.28125 26.46875 7.28125 
Q 32.515625 7.28125 36.609375 11.9375 
Q 40.71875 16.609375 40.71875 26.5625 
Q 40.71875 36.078125 36.5 40.90625 
Q 32.28125 45.75 26.3125 45.75 
Q 20.453125 45.75 16.34375 40.984375 
Q 12.25 36.234375 12.25 26.859375 
z
" id="ArialMT-67"/>
     <path d="M 40.578125 0 
L 40.578125 7.625 
Q 34.515625 -1.171875 24.125 -1.171875 
Q 19.53125 -1.171875 15.546875 0.578125 
Q 11.578125 2.34375 9.640625 5 
Q 7.71875 7.671875 6.9375 11.53125 
Q 6.390625 14.109375 6.390625 19.734375 
L 6.390625 51.859375 
L 15.1875 51.859375 
L 15.1875 23.09375 
Q 15.1875 16.21875 15.71875 13.8125 
Q 16.546875 10.359375 19.234375 8.375 
Q 21.921875 6.390625 25.875 6.390625 
Q 29.828125 6.390625 33.296875 8.421875 
Q 36.765625 10.453125 38.203125 13.9375 
Q 39.65625 17.4375 39.65625 24.078125 
L 39.65625 51.859375 
L 48.4375 51.859375 
L 48.4375 0 
z
" id="ArialMT-75"/>
     <path d="M 6.5 0 
L 6.5 51.859375 
L 14.40625 51.859375 
L 14.40625 44 
Q 17.4375 49.515625 20 51.265625 
Q 22.5625 53.03125 25.640625 53.03125 
Q 30.078125 53.03125 34.671875 50.203125 
L 31.640625 42.046875 
Q 28.421875 43.953125 25.203125 43.953125 
Q 22.3125 43.953125 20.015625 42.21875 
Q 17.71875 40.484375 16.75 37.40625 
Q 15.28125 32.71875 15.28125 27.15625 
L 15.28125 0 
z
" id="ArialMT-72"/>
     <path d="M 3.171875 21.484375 
L 3.171875 30.328125 
L 30.171875 30.328125 
L 30.171875 21.484375 
z
" id="ArialMT-2d"/>
     <path d="M 6.59375 0 
L 6.59375 51.859375 
L 14.453125 51.859375 
L 14.453125 44.578125 
Q 16.890625 48.390625 20.9375 50.703125 
Q 25 53.03125 30.171875 53.03125 
Q 35.9375 53.03125 39.625 50.640625 
Q 43.3125 48.25 44.828125 43.953125 
Q 50.984375 53.03125 60.84375 53.03125 
Q 68.5625 53.03125 72.703125 48.75 
Q 76.859375 44.484375 76.859375 35.59375 
L 76.859375 0 
L 68.109375 0 
L 68.109375 32.671875 
Q 68.109375 37.9375 67.25 40.25 
Q 66.40625 42.578125 64.15625 43.984375 
Q 61.921875 45.40625 58.890625 45.40625 
Q 53.421875 45.40625 49.796875 41.765625 
Q 46.1875 38.140625 46.1875 30.125 
L 46.1875 0 
L 37.40625 0 
L 37.40625 33.6875 
Q 37.40625 39.546875 35.25 42.46875 
Q 33.109375 45.40625 28.21875 45.40625 
Q 24.515625 45.40625 21.359375 43.453125 
Q 18.21875 41.5 16.796875 37.734375 
Q 15.375 33.984375 15.375 26.90625 
L 15.375 0 
z
" id="ArialMT-6d"/>
     <path d="M 6.640625 61.46875 
L 6.640625 71.578125 
L 15.4375 71.578125 
L 15.4375 61.46875 
z
M 6.640625 0 
L 6.640625 51.859375 
L 15.4375 51.859375 
L 15.4375 0 
z
" id="ArialMT-69"/>
     <path d="M 40.4375 19 
L 49.078125 17.875 
Q 47.65625 8.9375 41.8125 3.875 
Q 35.984375 -1.171875 27.484375 -1.171875 
Q 16.84375 -1.171875 10.375 5.78125 
Q 3.90625 12.75 3.90625 25.734375 
Q 3.90625 34.125 6.6875 40.421875 
Q 9.46875 46.734375 15.15625 49.875 
Q 20.84375 53.03125 27.546875 53.03125 
Q 35.984375 53.03125 41.359375 48.75 
Q 46.734375 44.484375 48.25 36.625 
L 39.703125 35.296875 
Q 38.484375 40.53125 35.375 43.15625 
Q 32.28125 45.796875 27.875 45.796875 
Q 21.234375 45.796875 17.078125 41.03125 
Q 12.9375 36.28125 12.9375 25.984375 
Q 12.9375 15.53125 16.9375 10.796875 
Q 20.953125 6.0625 27.390625 6.0625 
Q 32.5625 6.0625 36.03125 9.234375 
Q 39.5 12.40625 40.4375 19 
z
" id="ArialMT-63"/>
     <path d="M 3.328125 25.921875 
Q 3.328125 40.328125 11.328125 47.265625 
Q 18.015625 53.03125 27.640625 53.03125 
Q 38.328125 53.03125 45.109375 46.015625 
Q 51.90625 39.015625 51.90625 26.65625 
Q 51.90625 16.65625 48.90625 10.90625 
Q 45.90625 5.171875 40.15625 2 
Q 34.421875 -1.171875 27.640625 -1.171875 
Q 16.75 -1.171875 10.03125 5.8125 
Q 3.328125 12.796875 3.328125 25.921875 
z
M 12.359375 25.921875 
Q 12.359375 15.96875 16.703125 11.015625 
Q 21.046875 6.0625 27.640625 6.0625 
Q 34.1875 6.0625 38.53125 11.03125 
Q 42.875 16.015625 42.875 26.21875 
Q 42.875 35.84375 38.5 40.796875 
Q 34.125 45.75 27.640625 45.75 
Q 21.046875 45.75 16.703125 40.8125 
Q 12.359375 35.890625 12.359375 25.921875 
z
" id="ArialMT-6f"/>
     <path id="ArialMT-20"/>
     <path d="M 4.5 23 
L 13.421875 23.78125 
Q 14.0625 18.40625 16.375 14.96875 
Q 18.703125 11.53125 23.578125 9.40625 
Q 28.46875 7.28125 34.578125 7.28125 
Q 39.984375 7.28125 44.140625 8.890625 
Q 48.296875 10.5 50.3125 13.296875 
Q 52.34375 16.109375 52.34375 19.4375 
Q 52.34375 22.796875 50.390625 25.3125 
Q 48.4375 27.828125 43.953125 29.546875 
Q 41.0625 30.671875 31.203125 33.03125 
Q 21.34375 35.40625 17.390625 37.5 
Q 12.25 40.1875 9.734375 44.15625 
Q 7.234375 48.140625 7.234375 53.078125 
Q 7.234375 58.5 10.296875 63.203125 
Q 13.375 67.921875 19.28125 70.359375 
Q 25.203125 72.796875 32.421875 72.796875 
Q 40.375 72.796875 46.453125 70.234375 
Q 52.546875 67.671875 55.8125 62.6875 
Q 59.078125 57.71875 59.328125 51.421875 
L 50.25 50.734375 
Q 49.515625 57.515625 45.28125 60.984375 
Q 41.0625 64.453125 32.8125 64.453125 
Q 24.21875 64.453125 20.28125 61.296875 
Q 16.359375 58.15625 16.359375 53.71875 
Q 16.359375 49.859375 19.140625 47.359375 
Q 21.875 44.875 33.421875 42.265625 
Q 44.96875 39.65625 49.265625 37.703125 
Q 55.515625 34.8125 58.484375 30.390625 
Q 61.46875 25.984375 61.46875 20.21875 
Q 61.46875 14.5 58.203125 9.4375 
Q 54.9375 4.390625 48.796875 1.578125 
Q 42.671875 -1.21875 35.015625 -1.21875 
Q 25.296875 -1.21875 18.71875 1.609375 
Q 12.15625 4.4375 8.421875 10.125 
Q 4.6875 15.828125 4.5 23 
z
" id="ArialMT-53"/>
     <path d="M 7.421875 0 
L 7.421875 71.578125 
L 21.6875 71.578125 
L 38.625 20.90625 
Q 40.96875 13.8125 42.046875 10.296875 
Q 43.265625 14.203125 45.84375 21.78125 
L 62.984375 71.578125 
L 75.734375 71.578125 
L 75.734375 0 
L 66.609375 0 
L 66.609375 59.90625 
L 45.796875 0 
L 37.25 0 
L 16.546875 60.9375 
L 16.546875 0 
z
" id="ArialMT-4d"/>
    </defs>
    <g style="fill:#262626;" transform="translate(68.892812 19.44)scale(0.12 -0.12)">
     <use xlink:href="#ArialMT-4a"/>
     <use x="50" xlink:href="#ArialMT-61"/>
     <use x="105.615234" xlink:href="#ArialMT-67"/>
     <use x="161.230469" xlink:href="#ArialMT-75"/>
     <use x="216.845703" xlink:href="#ArialMT-61"/>
     <use x="272.460938" xlink:href="#ArialMT-72"/>
     <use x="305.761719" xlink:href="#ArialMT-2d"/>
     <use x="339.0625" xlink:href="#ArialMT-6d"/>
     <use x="422.363281" xlink:href="#ArialMT-69"/>
     <use x="444.580078" xlink:href="#ArialMT-63"/>
     <use x="494.580078" xlink:href="#ArialMT-72"/>
     <use x="527.880859" xlink:href="#ArialMT-6f"/>
     <use x="583.496094" xlink:href="#ArialMT-20"/>
     <use x="611.279297" xlink:href="#ArialMT-53"/>
     <use x="677.978516" xlink:href="#ArialMT-4d"/>
     <use x="761.279297" xlink:href="#ArialMT-31"/>
     <use x="816.894531" xlink:href="#ArialMT-34"/>
    </g>
   </g>
  </g>
 </g>
 <defs>
  <clipPath id="p98b8eb18e7">
   <rect height="150.52" width="164.56" x="38.96" y="25.44"/>
  </clipPath>
 </defs>
</svg>
