<?xml version="1.0" encoding="utf-8" standalone="no"?>
<!DOCTYPE svg PUBLIC "-//W3C//DTD SVG 1.1//EN"
  "http://www.w3.org/Graphics/SVG/1.1/DTD/svg11.dtd">
<!-- Created with matplotlib (http://matplotlib.org/) -->
<svg height="144pt" version="1.1" viewBox="0 0 144 144" width="144pt" xmlns="http://www.w3.org/2000/svg" xmlns:xlink="http://www.w3.org/1999/xlink">
 <defs>
  <style type="text/css">
*{stroke-linecap:butt;stroke-linejoin:round;}
  </style>
 </defs>
 <g id="figure_1">
  <g id="patch_1">
   <path d="M 0 144 
L 144 144 
L 144 0 
L 0 0 
z
" style="fill:#ffffff;"/>
  </g>
  <g id="axes_1">
   <g id="patch_2">
    <path d="M 41.96 101.92 
L 130.44 101.92 
L 130.44 27.48 
L 41.96 27.48 
z
" style="fill:#ffffff;"/>
   </g>
   <g id="matplotlib.axis_1">
    <g id="xtick_1">
     <g id="line2d_1">
      <defs>
       <path d="M 0 0 
L 0 3.5 
" id="me22d7e3599" style="stroke:#262626;stroke-width:0.8;"/>
      </defs>
      <g>
       <use style="fill:#262626;stroke:#262626;stroke-width:0.8;" x="45.981818" xlink:href="#me22d7e3599" y="101.92"/>
      </g>
     </g>
     <g id="text_1">
      <!-- 2 -->
      <defs>
       <path d="M 50.34375 8.453125 
L 50.34375 0 
L 3.03125 0 
Q 2.9375 3.171875 4.046875 6.109375 
Q 5.859375 10.9375 9.828125 15.625 
Q 13.8125 20.3125 21.34375 26.46875 
Q 33.015625 36.03125 37.109375 41.625 
Q 41.21875 47.21875 41.21875 52.203125 
Q 41.21875 57.421875 37.46875 61 
Q 33.734375 64.59375 27.734375 64.59375 
Q 21.390625 64.59375 17.578125 60.78125 
Q 13.765625 56.984375 13.71875 50.25 
L 4.6875 51.171875 
Q 5.609375 61.28125 11.65625 66.578125 
Q 17.71875 71.875 27.9375 71.875 
Q 38.234375 71.875 44.234375 66.15625 
Q 50.25 60.453125 50.25 52 
Q 50.25 47.703125 48.484375 43.546875 
Q 46.734375 39.40625 42.65625 34.8125 
Q 38.578125 30.21875 29.109375 22.21875 
Q 21.1875 15.578125 18.9375 13.203125 
Q 16.703125 10.84375 15.234375 8.453125 
z
" id="ArialMT-32"/>
      </defs>
      <g style="fill:#262626;" transform="translate(42.923303 116.793594)scale(0.11 -0.11)">
       <use xlink:href="#ArialMT-32"/>
      </g>
     </g>
    </g>
    <g id="xtick_2">
     <g id="line2d_2">
      <g>
       <use style="fill:#262626;stroke:#262626;stroke-width:0.8;" x="62.069091" xlink:href="#me22d7e3599" y="101.92"/>
      </g>
     </g>
     <g id="text_2">
      <!-- 4 -->
      <defs>
       <path d="M 32.328125 0 
L 32.328125 17.140625 
L 1.265625 17.140625 
L 1.265625 25.203125 
L 33.9375 71.578125 
L 41.109375 71.578125 
L 41.109375 25.203125 
L 50.78125 25.203125 
L 50.78125 17.140625 
L 41.109375 17.140625 
L 41.109375 0 
z
M 32.328125 25.203125 
L 32.328125 57.46875 
L 9.90625 25.203125 
z
" id="ArialMT-34"/>
      </defs>
      <g style="fill:#262626;" transform="translate(59.010575 116.793594)scale(0.11 -0.11)">
       <use xlink:href="#ArialMT-34"/>
      </g>
     </g>
    </g>
    <g id="xtick_3">
     <g id="line2d_3">
      <g>
       <use style="fill:#262626;stroke:#262626;stroke-width:0.8;" x="78.156364" xlink:href="#me22d7e3599" y="101.92"/>
      </g>
     </g>
     <g id="text_3">
      <!-- 6 -->
      <defs>
       <path d="M 49.75 54.046875 
L 41.015625 53.375 
Q 39.84375 58.546875 37.703125 60.890625 
Q 34.125 64.65625 28.90625 64.65625 
Q 24.703125 64.65625 21.53125 62.3125 
Q 17.390625 59.28125 14.984375 53.46875 
Q 12.59375 47.65625 12.5 36.921875 
Q 15.671875 41.75 20.265625 44.09375 
Q 24.859375 46.4375 29.890625 46.4375 
Q 38.671875 46.4375 44.84375 39.96875 
Q 51.03125 33.5 51.03125 23.25 
Q 51.03125 16.5 48.125 10.71875 
Q 45.21875 4.9375 40.140625 1.859375 
Q 35.0625 -1.21875 28.609375 -1.21875 
Q 17.625 -1.21875 10.6875 6.859375 
Q 3.765625 14.9375 3.765625 33.5 
Q 3.765625 54.25 11.421875 63.671875 
Q 18.109375 71.875 29.4375 71.875 
Q 37.890625 71.875 43.28125 67.140625 
Q 48.6875 62.40625 49.75 54.046875 
z
M 13.875 23.1875 
Q 13.875 18.65625 15.796875 14.5 
Q 17.71875 10.359375 21.1875 8.171875 
Q 24.65625 6 28.46875 6 
Q 34.03125 6 38.03125 10.484375 
Q 42.046875 14.984375 42.046875 22.703125 
Q 42.046875 30.125 38.078125 34.390625 
Q 34.125 38.671875 28.125 38.671875 
Q 22.171875 38.671875 18.015625 34.390625 
Q 13.875 30.125 13.875 23.1875 
z
" id="ArialMT-36"/>
      </defs>
      <g style="fill:#262626;" transform="translate(75.097848 116.793594)scale(0.11 -0.11)">
       <use xlink:href="#ArialMT-36"/>
      </g>
     </g>
    </g>
    <g id="xtick_4">
     <g id="line2d_4">
      <g>
       <use style="fill:#262626;stroke:#262626;stroke-width:0.8;" x="94.243636" xlink:href="#me22d7e3599" y="101.92"/>
      </g>
     </g>
     <g id="text_4">
      <!-- 8 -->
      <defs>
       <path d="M 17.671875 38.8125 
Q 12.203125 40.828125 9.5625 44.53125 
Q 6.9375 48.25 6.9375 53.421875 
Q 6.9375 61.234375 12.546875 66.546875 
Q 18.171875 71.875 27.484375 71.875 
Q 36.859375 71.875 42.578125 66.421875 
Q 48.296875 60.984375 48.296875 53.171875 
Q 48.296875 48.1875 45.671875 44.5 
Q 43.0625 40.828125 37.75 38.8125 
Q 44.34375 36.671875 47.78125 31.875 
Q 51.21875 27.09375 51.21875 20.453125 
Q 51.21875 11.28125 44.71875 5.03125 
Q 38.234375 -1.21875 27.640625 -1.21875 
Q 17.046875 -1.21875 10.546875 5.046875 
Q 4.046875 11.328125 4.046875 20.703125 
Q 4.046875 27.6875 7.59375 32.390625 
Q 11.140625 37.109375 17.671875 38.8125 
z
M 15.921875 53.71875 
Q 15.921875 48.640625 19.1875 45.40625 
Q 22.46875 42.1875 27.6875 42.1875 
Q 32.765625 42.1875 36.015625 45.375 
Q 39.265625 48.578125 39.265625 53.21875 
Q 39.265625 58.0625 35.90625 61.359375 
Q 32.5625 64.65625 27.59375 64.65625 
Q 22.5625 64.65625 19.234375 61.421875 
Q 15.921875 58.203125 15.921875 53.71875 
z
M 13.09375 20.65625 
Q 13.09375 16.890625 14.875 13.375 
Q 16.65625 9.859375 20.171875 7.921875 
Q 23.6875 6 27.734375 6 
Q 34.03125 6 38.125 10.046875 
Q 42.234375 14.109375 42.234375 20.359375 
Q 42.234375 26.703125 38.015625 30.859375 
Q 33.796875 35.015625 27.4375 35.015625 
Q 21.234375 35.015625 17.15625 30.90625 
Q 13.09375 26.8125 13.09375 20.65625 
z
" id="ArialMT-38"/>
      </defs>
      <g style="fill:#262626;" transform="translate(91.185121 116.793594)scale(0.11 -0.11)">
       <use xlink:href="#ArialMT-38"/>
      </g>
     </g>
    </g>
    <g id="xtick_5">
     <g id="line2d_5">
      <g>
       <use style="fill:#262626;stroke:#262626;stroke-width:0.8;" x="110.330909" xlink:href="#me22d7e3599" y="101.92"/>
      </g>
     </g>
     <g id="text_5">
      <!-- 10 -->
      <defs>
       <path d="M 37.25 0 
L 28.46875 0 
L 28.46875 56 
Q 25.296875 52.984375 20.140625 49.953125 
Q 14.984375 46.921875 10.890625 45.40625 
L 10.890625 53.90625 
Q 18.265625 57.375 23.78125 62.296875 
Q 29.296875 67.234375 31.59375 71.875 
L 37.25 71.875 
z
" id="ArialMT-31"/>
       <path d="M 4.15625 35.296875 
Q 4.15625 48 6.765625 55.734375 
Q 9.375 63.484375 14.515625 67.671875 
Q 19.671875 71.875 27.484375 71.875 
Q 33.25 71.875 37.59375 69.546875 
Q 41.9375 67.234375 44.765625 62.859375 
Q 47.609375 58.5 49.21875 52.21875 
Q 50.828125 45.953125 50.828125 35.296875 
Q 50.828125 22.703125 48.234375 14.96875 
Q 45.65625 7.234375 40.5 3 
Q 35.359375 -1.21875 27.484375 -1.21875 
Q 17.140625 -1.21875 11.234375 6.203125 
Q 4.15625 15.140625 4.15625 35.296875 
z
M 13.1875 35.296875 
Q 13.1875 17.671875 17.3125 11.828125 
Q 21.4375 6 27.484375 6 
Q 33.546875 6 37.671875 11.859375 
Q 41.796875 17.71875 41.796875 35.296875 
Q 41.796875 52.984375 37.671875 58.78125 
Q 33.546875 64.59375 27.390625 64.59375 
Q 21.34375 64.59375 17.71875 59.46875 
Q 13.1875 52.9375 13.1875 35.296875 
z
" id="ArialMT-30"/>
      </defs>
      <g style="fill:#262626;" transform="translate(104.213878 116.793594)scale(0.11 -0.11)">
       <use xlink:href="#ArialMT-31"/>
       <use x="55.615234" xlink:href="#ArialMT-30"/>
      </g>
     </g>
    </g>
    <g id="xtick_6">
     <g id="line2d_6">
      <g>
       <use style="fill:#262626;stroke:#262626;stroke-width:0.8;" x="126.418182" xlink:href="#me22d7e3599" y="101.92"/>
      </g>
     </g>
     <g id="text_6">
      <!-- 12 -->
      <g style="fill:#262626;" transform="translate(120.301151 116.793594)scale(0.11 -0.11)">
       <use xlink:href="#ArialMT-31"/>
       <use x="55.615234" xlink:href="#ArialMT-32"/>
      </g>
     </g>
    </g>
    <g id="text_7">
     <!-- pH -->
     <defs>
      <path d="M 6.59375 -19.875 
L 6.59375 51.859375 
L 14.59375 51.859375 
L 14.59375 45.125 
Q 17.4375 49.078125 21 51.046875 
Q 24.5625 53.03125 29.640625 53.03125 
Q 36.28125 53.03125 41.359375 49.609375 
Q 46.4375 46.1875 49.015625 39.953125 
Q 51.609375 33.734375 51.609375 26.3125 
Q 51.609375 18.359375 48.75 11.984375 
Q 45.90625 5.609375 40.453125 2.21875 
Q 35.015625 -1.171875 29 -1.171875 
Q 24.609375 -1.171875 21.109375 0.6875 
Q 17.625 2.546875 15.375 5.375 
L 15.375 -19.875 
z
M 14.546875 25.640625 
Q 14.546875 15.625 18.59375 10.84375 
Q 22.65625 6.0625 28.421875 6.0625 
Q 34.28125 6.0625 38.453125 11.015625 
Q 42.625 15.96875 42.625 26.375 
Q 42.625 36.28125 38.546875 41.203125 
Q 34.46875 46.140625 28.8125 46.140625 
Q 23.1875 46.140625 18.859375 40.890625 
Q 14.546875 35.640625 14.546875 25.640625 
z
" id="ArialMT-70"/>
      <path d="M 8.015625 0 
L 8.015625 71.578125 
L 17.484375 71.578125 
L 17.484375 42.1875 
L 54.6875 42.1875 
L 54.6875 71.578125 
L 64.15625 71.578125 
L 64.15625 0 
L 54.6875 0 
L 54.6875 33.734375 
L 17.484375 33.734375 
L 17.484375 0 
z
" id="ArialMT-48"/>
     </defs>
     <g style="fill:#262626;" transform="translate(79.169453 130.853437)scale(0.11 -0.11)">
      <use xlink:href="#ArialMT-70"/>
      <use x="55.615234" xlink:href="#ArialMT-48"/>
     </g>
    </g>
   </g>
   <g id="matplotlib.axis_2">
    <g id="ytick_1">
     <g id="line2d_7">
      <defs>
       <path d="M 0 0 
L -3.5 0 
" id="mc2549727ed" style="stroke:#262626;stroke-width:0.8;"/>
      </defs>
      <g>
       <use style="fill:#262626;stroke:#262626;stroke-width:0.8;" x="41.96" xlink:href="#mc2549727ed" y="98.286833"/>
      </g>
     </g>
     <g id="text_8">
      <!-- 0 -->
      <g style="fill:#262626;" transform="translate(28.842969 102.22363)scale(0.11 -0.11)">
       <use xlink:href="#ArialMT-30"/>
      </g>
     </g>
    </g>
    <g id="ytick_2">
     <g id="line2d_8">
      <g>
       <use style="fill:#262626;stroke:#262626;stroke-width:0.8;" x="41.96" xlink:href="#mc2549727ed" y="30.857197"/>
      </g>
     </g>
     <g id="text_9">
      <!-- 1 -->
      <g style="fill:#262626;" transform="translate(28.842969 34.793994)scale(0.11 -0.11)">
       <use xlink:href="#ArialMT-31"/>
      </g>
     </g>
    </g>
    <g id="text_10">
     <!-- $\langle q_\mathsf{total} \rangle$ -->
     <defs>
      <path d="M 8.9375 31.34375 
L 22.703125 75.875 
L 31 75.875 
L 17.234375 31.34375 
L 31 -13.1875 
L 22.703125 -13.1875 
z
" id="DejaVuSans-27e8"/>
      <path d="M 41.703125 8.203125 
Q 38.09375 3.46875 33.171875 1.015625 
Q 28.265625 -1.421875 22.3125 -1.421875 
Q 14.015625 -1.421875 9.296875 4.171875 
Q 4.59375 9.765625 4.59375 19.578125 
Q 4.59375 27.484375 7.5 34.859375 
Q 10.40625 42.234375 15.828125 48.09375 
Q 19.34375 51.90625 23.90625 53.953125 
Q 28.46875 56 33.5 56 
Q 39.546875 56 43.453125 53.609375 
Q 47.359375 51.21875 49.125 46.390625 
L 50.6875 54.59375 
L 59.71875 54.59375 
L 45.125 -20.609375 
L 36.078125 -20.609375 
z
M 13.921875 20.90625 
Q 13.921875 13.671875 16.9375 9.890625 
Q 19.96875 6.109375 25.6875 6.109375 
Q 34.1875 6.109375 40.1875 14.234375 
Q 46.1875 22.359375 46.1875 33.984375 
Q 46.1875 41.015625 43.078125 44.75 
Q 39.984375 48.484375 34.1875 48.484375 
Q 29.9375 48.484375 26.3125 46.5 
Q 22.703125 44.53125 20.015625 40.71875 
Q 17.1875 36.71875 15.546875 31.34375 
Q 13.921875 25.984375 13.921875 20.90625 
z
" id="DejaVuSans-Oblique-71"/>
      <path d="M 18.3125 70.21875 
L 18.3125 54.6875 
L 36.8125 54.6875 
L 36.8125 47.703125 
L 18.3125 47.703125 
L 18.3125 18.015625 
Q 18.3125 11.328125 20.140625 9.421875 
Q 21.96875 7.515625 27.59375 7.515625 
L 36.8125 7.515625 
L 36.8125 0 
L 27.59375 0 
Q 17.1875 0 13.234375 3.875 
Q 9.28125 7.765625 9.28125 18.015625 
L 9.28125 47.703125 
L 2.6875 47.703125 
L 2.6875 54.6875 
L 9.28125 54.6875 
L 9.28125 70.21875 
z
" id="DejaVuSans-74"/>
      <path d="M 30.609375 48.390625 
Q 23.390625 48.390625 19.1875 42.75 
Q 14.984375 37.109375 14.984375 27.296875 
Q 14.984375 17.484375 19.15625 11.84375 
Q 23.34375 6.203125 30.609375 6.203125 
Q 37.796875 6.203125 41.984375 11.859375 
Q 46.1875 17.53125 46.1875 27.296875 
Q 46.1875 37.015625 41.984375 42.703125 
Q 37.796875 48.390625 30.609375 48.390625 
z
M 30.609375 56 
Q 42.328125 56 49.015625 48.375 
Q 55.71875 40.765625 55.71875 27.296875 
Q 55.71875 13.875 49.015625 6.21875 
Q 42.328125 -1.421875 30.609375 -1.421875 
Q 18.84375 -1.421875 12.171875 6.21875 
Q 5.515625 13.875 5.515625 27.296875 
Q 5.515625 40.765625 12.171875 48.375 
Q 18.84375 56 30.609375 56 
z
" id="DejaVuSans-6f"/>
      <path d="M 34.28125 27.484375 
Q 23.390625 27.484375 19.1875 25 
Q 14.984375 22.515625 14.984375 16.5 
Q 14.984375 11.71875 18.140625 8.90625 
Q 21.296875 6.109375 26.703125 6.109375 
Q 34.1875 6.109375 38.703125 11.40625 
Q 43.21875 16.703125 43.21875 25.484375 
L 43.21875 27.484375 
z
M 52.203125 31.203125 
L 52.203125 0 
L 43.21875 0 
L 43.21875 8.296875 
Q 40.140625 3.328125 35.546875 0.953125 
Q 30.953125 -1.421875 24.3125 -1.421875 
Q 15.921875 -1.421875 10.953125 3.296875 
Q 6 8.015625 6 15.921875 
Q 6 25.140625 12.171875 29.828125 
Q 18.359375 34.515625 30.609375 34.515625 
L 43.21875 34.515625 
L 43.21875 35.40625 
Q 43.21875 41.609375 39.140625 45 
Q 35.0625 48.390625 27.6875 48.390625 
Q 23 48.390625 18.546875 47.265625 
Q 14.109375 46.140625 10.015625 43.890625 
L 10.015625 52.203125 
Q 14.9375 54.109375 19.578125 55.046875 
Q 24.21875 56 28.609375 56 
Q 40.484375 56 46.34375 49.84375 
Q 52.203125 43.703125 52.203125 31.203125 
z
" id="DejaVuSans-61"/>
      <path d="M 9.421875 75.984375 
L 18.40625 75.984375 
L 18.40625 0 
L 9.421875 0 
z
" id="DejaVuSans-6c"/>
      <path d="M 30.078125 31.34375 
L 16.3125 -13.1875 
L 8.015625 -13.1875 
L 21.78125 31.34375 
L 8.015625 75.875 
L 16.3125 75.875 
z
" id="DejaVuSans-27e9"/>
     </defs>
     <g style="fill:#262626;" transform="translate(22.532969 81.475)rotate(-90)scale(0.11 -0.11)">
      <use transform="translate(0 0.125)" xlink:href="#DejaVuSans-27e8"/>
      <use transform="translate(39.013672 0.125)" xlink:href="#DejaVuSans-Oblique-71"/>
      <use transform="translate(102.490234 -16.28125)scale(0.7)" xlink:href="#DejaVuSans-74"/>
      <use transform="translate(129.936523 -16.28125)scale(0.7)" xlink:href="#DejaVuSans-6f"/>
      <use transform="translate(172.763672 -16.28125)scale(0.7)" xlink:href="#DejaVuSans-74"/>
      <use transform="translate(200.209961 -16.28125)scale(0.7)" xlink:href="#DejaVuSans-61"/>
      <use transform="translate(243.105469 -16.28125)scale(0.7)" xlink:href="#DejaVuSans-6c"/>
      <use transform="translate(265.288086 0.125)" xlink:href="#DejaVuSans-27e9"/>
     </g>
    </g>
   </g>
   <g id="PolyCollection_1">
    <defs>
     <path d="M 45.981818 -113.136364 
L 45.981818 -113.136364 
L 46.786182 -113.134697 
L 47.590545 -113.132598 
L 48.394909 -113.129956 
L 49.199273 -113.126631 
L 50.003636 -113.122445 
L 50.808 -113.117176 
L 51.612364 -113.110544 
L 52.416727 -113.102197 
L 53.221091 -113.091691 
L 54.025455 -113.078469 
L 54.829818 -113.061832 
L 55.634182 -113.040898 
L 56.438545 -113.014562 
L 57.242909 -112.981437 
L 58.047273 -112.939781 
L 58.851636 -112.887413 
L 59.656 -112.821601 
L 60.460364 -112.738932 
L 61.264727 -112.635147 
L 62.069091 -112.504946 
L 62.873455 -112.341751 
L 63.677818 -112.137431 
L 64.482182 -111.881982 
L 65.286545 -111.563171 
L 66.090909 -111.166154 
L 66.895273 -110.673095 
L 67.699636 -110.062834 
L 68.504 -109.310674 
L 69.308364 -108.3884 
L 70.112727 -107.264679 
L 70.917091 -105.906029 
L 71.721455 -104.27857 
L 72.525818 -102.350736 
L 73.330182 -100.097024 
L 74.134545 -97.502634 
L 74.938909 -94.568517 
L 75.743273 -91.315942 
L 76.547636 -87.789378 
L 77.352 -84.056449 
L 78.156364 -80.20416 
L 78.960727 -76.331486 
L 79.765091 -72.539502 
L 80.569455 -68.921065 
L 81.373818 -65.552223 
L 82.178182 -62.48691 
L 82.982545 -59.755467 
L 83.786909 -57.36649 
L 84.591273 -55.310877 
L 85.395636 -53.566812 
L 86.2 -52.104646 
L 87.004364 -50.891043 
L 87.808727 -49.892099 
L 88.613091 -49.075468 
L 89.417455 -48.411612 
L 90.221818 -47.874407 
L 91.026182 -47.441293 
L 91.830545 -47.09314 
L 92.634909 -46.813952 
L 93.439273 -46.590497 
L 94.243636 -46.411925 
L 95.048 -46.269396 
L 95.852364 -46.155746 
L 96.656727 -46.065195 
L 97.461091 -45.993093 
L 98.265455 -45.93571 
L 99.069818 -45.89006 
L 99.874182 -45.853754 
L 100.678545 -45.824887 
L 101.482909 -45.801939 
L 102.287273 -45.783701 
L 103.091636 -45.769206 
L 103.896 -45.757688 
L 104.700364 -45.748536 
L 105.504727 -45.741265 
L 106.309091 -45.735488 
L 107.113455 -45.730898 
L 107.917818 -45.727252 
L 108.722182 -45.724356 
L 109.526545 -45.722055 
L 110.330909 -45.720227 
L 111.135273 -45.718775 
L 111.939636 -45.717622 
L 112.744 -45.716705 
L 113.548364 -45.715978 
L 114.352727 -45.7154 
L 115.157091 -45.71494 
L 115.961455 -45.714576 
L 116.765818 -45.714286 
L 117.570182 -45.714056 
L 118.374545 -45.713873 
L 119.178909 -45.713728 
L 119.983273 -45.713612 
L 120.787636 -45.713521 
L 121.592 -45.713448 
L 122.396364 -45.71339 
L 123.200727 -45.713344 
L 124.005091 -45.713308 
L 124.809455 -45.713279 
L 125.613818 -45.713256 
L 126.418182 -45.713238 
L 126.418182 -45.713238 
L 126.418182 -45.463636 
L 125.613818 -45.51481 
L 124.809455 -45.555514 
L 124.005091 -45.587883 
L 123.200727 -45.613618 
L 122.396364 -45.634076 
L 121.592 -45.650336 
L 120.787636 -45.663261 
L 119.983273 -45.673533 
L 119.178909 -45.681699 
L 118.374545 -45.688191 
L 117.570182 -45.693355 
L 116.765818 -45.697465 
L 115.961455 -45.700739 
L 115.157091 -45.703352 
L 114.352727 -45.705442 
L 113.548364 -45.707121 
L 112.744 -45.708478 
L 111.939636 -45.709585 
L 111.135273 -45.710502 
L 110.330909 -45.711277 
L 109.526545 -45.711951 
L 108.722182 -45.712561 
L 107.917818 -45.713138 
L 107.113455 -45.713714 
L 106.309091 -45.714319 
L 105.504727 -45.714985 
L 104.700364 -45.715748 
L 103.896 -45.716648 
L 103.091636 -45.717734 
L 102.287273 -45.719063 
L 101.482909 -45.720705 
L 100.678545 -45.72275 
L 99.874182 -45.725304 
L 99.069818 -45.728504 
L 98.265455 -45.73252 
L 97.461091 -45.737566 
L 96.656727 -45.74391 
L 95.852364 -45.751889 
L 95.048 -45.761926 
L 94.243636 -45.774554 
L 93.439273 -45.790443 
L 92.634909 -45.810432 
L 91.830545 -45.835577 
L 91.026182 -45.867206 
L 90.221818 -45.906981 
L 89.417455 -45.956986 
L 88.613091 -46.019833 
L 87.808727 -46.098785 
L 87.004364 -46.197915 
L 86.2 -46.322297 
L 85.395636 -46.478228 
L 84.591273 -46.673501 
L 83.786909 -46.917715 
L 82.982545 -47.222621 
L 82.178182 -47.602507 
L 81.373818 -48.074574 
L 80.569455 -48.659288 
L 79.765091 -49.380624 
L 78.960727 -50.266104 
L 78.156364 -51.346488 
L 77.352 -52.654936 
L 76.547636 -54.225434 
L 75.743273 -56.090284 
L 74.938909 -58.276564 
L 74.134545 -60.80164 
L 73.330182 -63.66814 
L 72.525818 -66.859206 
L 71.721455 -70.335161 
L 70.917091 -74.032881 
L 70.112727 -77.868785 
L 69.308364 -81.745573 
L 68.504 -85.561746 
L 67.699636 -89.222009 
L 66.895273 -92.646372 
L 66.090909 -95.776191 
L 65.286545 -98.576416 
L 64.482182 -101.034333 
L 63.677818 -103.155858 
L 62.873455 -104.960648 
L 62.069091 -106.477134 
L 61.264727 -107.738193 
L 60.460364 -108.777815 
L 59.656 -109.628789 
L 58.851636 -110.321286 
L 58.047273 -110.882144 
L 57.242909 -111.334638 
L 56.438545 -111.698573 
L 55.634182 -111.990549 
L 54.829818 -112.224325 
L 54.025455 -112.411203 
L 53.221091 -112.560402 
L 52.416727 -112.679398 
L 51.612364 -112.774233 
L 50.808 -112.849766 
L 50.003636 -112.9099 
L 49.199273 -112.957762 
L 48.394909 -112.995853 
L 47.590545 -113.02617 
L 46.786182 -113.05031 
L 45.981818 -113.069544 
z
" id="mf0650da70c" style="stroke:#ffffff;stroke-opacity:0.7;"/>
    </defs>
    <g clip-path="url(#p0448f8fe4f)">
     <use style="fill:#8c0800;fill-opacity:0.7;stroke:#ffffff;stroke-opacity:0.7;" x="0" xlink:href="#mf0650da70c" y="144"/>
    </g>
   </g>
   <g id="line2d_9">
    <path clip-path="url(#p0448f8fe4f)" d="M 45.981818 30.863636 
L 46.786182 30.865303 
L 47.590545 30.867402 
L 48.394909 30.870044 
L 49.199273 30.873369 
L 50.003636 30.877555 
L 50.808 30.882824 
L 51.612364 30.889456 
L 52.416727 30.897803 
L 53.221091 30.908309 
L 54.025455 30.921531 
L 54.829818 30.938168 
L 55.634182 30.959102 
L 56.438545 30.985438 
L 57.242909 31.018563 
L 58.047273 31.060219 
L 58.851636 31.112587 
L 59.656 31.178399 
L 60.460364 31.261068 
L 61.264727 31.364853 
L 62.069091 31.495054 
L 62.873455 31.658249 
L 63.677818 31.862569 
L 64.482182 32.118018 
L 65.286545 32.436829 
L 66.090909 32.833846 
L 66.895273 33.326905 
L 67.699636 33.937166 
L 68.504 34.689326 
L 69.308364 35.6116 
L 70.112727 36.735321 
L 70.917091 38.093971 
L 71.721455 39.72143 
L 72.525818 41.649264 
L 73.330182 43.902976 
L 74.134545 46.497366 
L 74.938909 49.431483 
L 75.743273 52.684058 
L 76.547636 56.210622 
L 77.352 59.943551 
L 78.156364 63.79584 
L 78.960727 67.668514 
L 79.765091 71.460498 
L 80.569455 75.078935 
L 81.373818 78.447777 
L 82.178182 81.51309 
L 82.982545 84.244533 
L 83.786909 86.63351 
L 84.591273 88.689123 
L 85.395636 90.433188 
L 86.2 91.895354 
L 87.004364 93.108957 
L 87.808727 94.107901 
L 88.613091 94.924532 
L 89.417455 95.588388 
L 90.221818 96.125593 
L 91.026182 96.558707 
L 91.830545 96.90686 
L 92.634909 97.186048 
L 93.439273 97.409503 
L 94.243636 97.588075 
L 95.048 97.730604 
L 95.852364 97.844254 
L 96.656727 97.934805 
L 97.461091 98.006907 
L 98.265455 98.06429 
L 99.069818 98.10994 
L 99.874182 98.146246 
L 100.678545 98.175113 
L 101.482909 98.198061 
L 102.287273 98.216299 
L 103.091636 98.230794 
L 103.896 98.242312 
L 104.700364 98.251464 
L 105.504727 98.258735 
L 106.309091 98.264512 
L 107.113455 98.269102 
L 107.917818 98.272748 
L 108.722182 98.275644 
L 109.526545 98.277945 
L 110.330909 98.279773 
L 111.135273 98.281225 
L 111.939636 98.282378 
L 112.744 98.283295 
L 113.548364 98.284022 
L 114.352727 98.2846 
L 115.157091 98.28506 
L 115.961455 98.285424 
L 116.765818 98.285714 
L 117.570182 98.285944 
L 118.374545 98.286127 
L 119.178909 98.286272 
L 119.983273 98.286388 
L 120.787636 98.286479 
L 121.592 98.286552 
L 122.396364 98.28661 
L 123.200727 98.286656 
L 124.005091 98.286692 
L 124.809455 98.286721 
L 125.613818 98.286744 
L 126.418182 98.286762 
" style="fill:none;stroke:#333333;stroke-dasharray:1.5,2.475;stroke-dashoffset:0;stroke-width:1.5;"/>
   </g>
   <g id="line2d_10">
    <path clip-path="url(#p0448f8fe4f)" d="M 45.981818 30.930456 
L 46.786182 30.94969 
L 47.590545 30.97383 
L 48.394909 31.004147 
L 49.199273 31.042238 
L 50.003636 31.0901 
L 50.808 31.150234 
L 51.612364 31.225767 
L 52.416727 31.320602 
L 53.221091 31.439598 
L 54.025455 31.588797 
L 54.829818 31.775675 
L 55.634182 32.009451 
L 56.438545 32.301427 
L 57.242909 32.665362 
L 58.047273 33.117856 
L 58.851636 33.678714 
L 59.656 34.371211 
L 60.460364 35.222185 
L 61.264727 36.261807 
L 62.069091 37.522866 
L 62.873455 39.039352 
L 63.677818 40.844142 
L 64.482182 42.965667 
L 65.286545 45.423584 
L 66.090909 48.223809 
L 66.895273 51.353628 
L 67.699636 54.777991 
L 68.504 58.438254 
L 69.308364 62.254427 
L 70.112727 66.131215 
L 70.917091 69.967119 
L 71.721455 73.664839 
L 72.525818 77.140794 
L 73.330182 80.33186 
L 74.134545 83.19836 
L 74.938909 85.723436 
L 75.743273 87.909716 
L 76.547636 89.774566 
L 77.352 91.345064 
L 78.156364 92.653512 
L 78.960727 93.733896 
L 79.765091 94.619376 
L 80.569455 95.340712 
L 81.373818 95.925426 
L 82.178182 96.397493 
L 82.982545 96.777379 
L 83.786909 97.082285 
L 84.591273 97.326499 
L 85.395636 97.521772 
L 86.2 97.677703 
L 87.004364 97.802085 
L 87.808727 97.901215 
L 88.613091 97.980167 
L 89.417455 98.043014 
L 90.221818 98.093019 
L 91.026182 98.132794 
L 91.830545 98.164423 
L 92.634909 98.189568 
L 93.439273 98.209557 
L 94.243636 98.225446 
L 95.048 98.238074 
L 95.852364 98.248111 
L 96.656727 98.25609 
L 97.461091 98.262434 
L 98.265455 98.26748 
L 99.069818 98.271496 
L 99.874182 98.274696 
L 100.678545 98.27725 
L 101.482909 98.279295 
L 102.287273 98.280937 
L 103.091636 98.282266 
L 103.896 98.283352 
L 104.700364 98.284252 
L 105.504727 98.285015 
L 106.309091 98.285681 
L 107.113455 98.286286 
L 107.917818 98.286862 
L 108.722182 98.287439 
L 109.526545 98.288049 
L 110.330909 98.288723 
L 111.135273 98.289498 
L 111.939636 98.290415 
L 112.744 98.291522 
L 113.548364 98.292879 
L 114.352727 98.294558 
L 115.157091 98.296648 
L 115.961455 98.299261 
L 116.765818 98.302535 
L 117.570182 98.306645 
L 118.374545 98.311809 
L 119.178909 98.318301 
L 119.983273 98.326467 
L 120.787636 98.336739 
L 121.592 98.349664 
L 122.396364 98.365924 
L 123.200727 98.386382 
L 124.005091 98.412117 
L 124.809455 98.444486 
L 125.613818 98.48519 
L 126.418182 98.536364 
" style="fill:none;stroke:#333333;stroke-linecap:round;stroke-width:1.5;"/>
   </g>
   <g id="patch_3">
    <path d="M 41.96 101.92 
L 41.96 27.48 
" style="fill:none;stroke:#262626;stroke-linecap:square;stroke-linejoin:miter;stroke-width:0.8;"/>
   </g>
   <g id="patch_4">
    <path d="M 41.96 101.92 
L 130.44 101.92 
" style="fill:none;stroke:#262626;stroke-linecap:square;stroke-linejoin:miter;stroke-width:0.8;"/>
   </g>
   <g id="text_11">
    <!-- $\Delta$ area : 1.06 -->
    <defs>
     <path d="M 34.1875 63.1875 
L 14.15625 8.203125 
L 54.25 8.203125 
z
M 0.78125 0 
L 28.609375 72.90625 
L 39.796875 72.90625 
L 67.578125 0 
z
" id="DejaVuSans-394"/>
     <path id="ArialMT-20"/>
     <path d="M 40.4375 6.390625 
Q 35.546875 2.25 31.03125 0.53125 
Q 26.515625 -1.171875 21.34375 -1.171875 
Q 12.796875 -1.171875 8.203125 3 
Q 3.609375 7.171875 3.609375 13.671875 
Q 3.609375 17.484375 5.34375 20.625 
Q 7.078125 23.78125 9.890625 25.6875 
Q 12.703125 27.59375 16.21875 28.5625 
Q 18.796875 29.25 24.03125 29.890625 
Q 34.671875 31.15625 39.703125 32.90625 
Q 39.75 34.71875 39.75 35.203125 
Q 39.75 40.578125 37.25 42.78125 
Q 33.890625 45.75 27.25 45.75 
Q 21.046875 45.75 18.09375 43.578125 
Q 15.140625 41.40625 13.71875 35.890625 
L 5.125 37.0625 
Q 6.296875 42.578125 8.984375 45.96875 
Q 11.671875 49.359375 16.75 51.1875 
Q 21.828125 53.03125 28.515625 53.03125 
Q 35.15625 53.03125 39.296875 51.46875 
Q 43.453125 49.90625 45.40625 47.53125 
Q 47.359375 45.171875 48.140625 41.546875 
Q 48.578125 39.3125 48.578125 33.453125 
L 48.578125 21.734375 
Q 48.578125 9.46875 49.140625 6.21875 
Q 49.703125 2.984375 51.375 0 
L 42.1875 0 
Q 40.828125 2.734375 40.4375 6.390625 
z
M 39.703125 26.03125 
Q 34.90625 24.078125 25.34375 22.703125 
Q 19.921875 21.921875 17.671875 20.9375 
Q 15.4375 19.96875 14.203125 18.09375 
Q 12.984375 16.21875 12.984375 13.921875 
Q 12.984375 10.40625 15.640625 8.0625 
Q 18.3125 5.71875 23.4375 5.71875 
Q 28.515625 5.71875 32.46875 7.9375 
Q 36.421875 10.15625 38.28125 14.015625 
Q 39.703125 17 39.703125 22.796875 
z
" id="ArialMT-61"/>
     <path d="M 6.5 0 
L 6.5 51.859375 
L 14.40625 51.859375 
L 14.40625 44 
Q 17.4375 49.515625 20 51.265625 
Q 22.5625 53.03125 25.640625 53.03125 
Q 30.078125 53.03125 34.671875 50.203125 
L 31.640625 42.046875 
Q 28.421875 43.953125 25.203125 43.953125 
Q 22.3125 43.953125 20.015625 42.21875 
Q 17.71875 40.484375 16.75 37.40625 
Q 15.28125 32.71875 15.28125 27.15625 
L 15.28125 0 
z
" id="ArialMT-72"/>
     <path d="M 42.09375 16.703125 
L 51.171875 15.578125 
Q 49.03125 7.625 43.21875 3.21875 
Q 37.40625 -1.171875 28.375 -1.171875 
Q 17 -1.171875 10.328125 5.828125 
Q 3.65625 12.84375 3.65625 25.484375 
Q 3.65625 38.578125 10.390625 45.796875 
Q 17.140625 53.03125 27.875 53.03125 
Q 38.28125 53.03125 44.875 45.953125 
Q 51.46875 38.875 51.46875 26.03125 
Q 51.46875 25.25 51.421875 23.6875 
L 12.75 23.6875 
Q 13.234375 15.140625 17.578125 10.59375 
Q 21.921875 6.0625 28.421875 6.0625 
Q 33.25 6.0625 36.671875 8.59375 
Q 40.09375 11.140625 42.09375 16.703125 
z
M 13.234375 30.90625 
L 42.1875 30.90625 
Q 41.609375 37.453125 38.875 40.71875 
Q 34.671875 45.796875 27.984375 45.796875 
Q 21.921875 45.796875 17.796875 41.75 
Q 13.671875 37.703125 13.234375 30.90625 
z
" id="ArialMT-65"/>
     <path d="M 9.03125 41.84375 
L 9.03125 51.859375 
L 19.046875 51.859375 
L 19.046875 41.84375 
z
M 9.03125 0 
L 9.03125 10.015625 
L 19.046875 10.015625 
L 19.046875 0 
z
" id="ArialMT-3a"/>
     <path d="M 9.078125 0 
L 9.078125 10.015625 
L 19.09375 10.015625 
L 19.09375 0 
z
" id="ArialMT-2e"/>
    </defs>
    <g style="fill:#262626;" transform="translate(48.25 21.48)scale(0.132 -0.132)">
     <use transform="translate(0 0.09375)" xlink:href="#DejaVuSans-394"/>
     <use transform="translate(68.408203 0.09375)" xlink:href="#ArialMT-20"/>
     <use transform="translate(96.191406 0.09375)" xlink:href="#ArialMT-61"/>
     <use transform="translate(151.806641 0.09375)" xlink:href="#ArialMT-72"/>
     <use transform="translate(185.107422 0.09375)" xlink:href="#ArialMT-65"/>
     <use transform="translate(240.722656 0.09375)" xlink:href="#ArialMT-61"/>
     <use transform="translate(296.337891 0.09375)" xlink:href="#ArialMT-20"/>
     <use transform="translate(324.121094 0.09375)" xlink:href="#ArialMT-3a"/>
     <use transform="translate(351.904297 0.09375)" xlink:href="#ArialMT-20"/>
     <use transform="translate(379.6875 0.09375)" xlink:href="#ArialMT-31"/>
     <use transform="translate(435.302734 0.09375)" xlink:href="#ArialMT-2e"/>
     <use transform="translate(463.085938 0.09375)" xlink:href="#ArialMT-30"/>
     <use transform="translate(518.701172 0.09375)" xlink:href="#ArialMT-36"/>
    </g>
   </g>
  </g>
 </g>
 <defs>
  <clipPath id="p0448f8fe4f">
   <rect height="74.44" width="88.48" x="41.96" y="27.48"/>
  </clipPath>
 </defs>
</svg>
