<?xml version="1.0" encoding="utf-8" standalone="no"?>
<!DOCTYPE svg PUBLIC "-//W3C//DTD SVG 1.1//EN"
  "http://www.w3.org/Graphics/SVG/1.1/DTD/svg11.dtd">
<!-- Created with matplotlib (http://matplotlib.org/) -->
<svg height="144pt" version="1.1" viewBox="0 0 144 144" width="144pt" xmlns="http://www.w3.org/2000/svg" xmlns:xlink="http://www.w3.org/1999/xlink">
 <defs>
  <style type="text/css">
*{stroke-linecap:butt;stroke-linejoin:round;}
  </style>
 </defs>
 <g id="figure_1">
  <g id="patch_1">
   <path d="M 0 144 
L 144 144 
L 144 0 
L 0 0 
z
" style="fill:#ffffff;"/>
  </g>
  <g id="axes_1">
   <g id="patch_2">
    <path d="M 41.96 101.92 
L 130.44 101.92 
L 130.44 27.48 
L 41.96 27.48 
z
" style="fill:#ffffff;"/>
   </g>
   <g id="matplotlib.axis_1">
    <g id="xtick_1">
     <g id="line2d_1">
      <defs>
       <path d="M 0 0 
L 0 3.5 
" id="m5a1fe7c242" style="stroke:#262626;stroke-width:0.8;"/>
      </defs>
      <g>
       <use style="fill:#262626;stroke:#262626;stroke-width:0.8;" x="45.981818" xlink:href="#m5a1fe7c242" y="101.92"/>
      </g>
     </g>
     <g id="text_1">
      <!-- 2 -->
      <defs>
       <path d="M 50.34375 8.453125 
L 50.34375 0 
L 3.03125 0 
Q 2.9375 3.171875 4.046875 6.109375 
Q 5.859375 10.9375 9.828125 15.625 
Q 13.8125 20.3125 21.34375 26.46875 
Q 33.015625 36.03125 37.109375 41.625 
Q 41.21875 47.21875 41.21875 52.203125 
Q 41.21875 57.421875 37.46875 61 
Q 33.734375 64.59375 27.734375 64.59375 
Q 21.390625 64.59375 17.578125 60.78125 
Q 13.765625 56.984375 13.71875 50.25 
L 4.6875 51.171875 
Q 5.609375 61.28125 11.65625 66.578125 
Q 17.71875 71.875 27.9375 71.875 
Q 38.234375 71.875 44.234375 66.15625 
Q 50.25 60.453125 50.25 52 
Q 50.25 47.703125 48.484375 43.546875 
Q 46.734375 39.40625 42.65625 34.8125 
Q 38.578125 30.21875 29.109375 22.21875 
Q 21.1875 15.578125 18.9375 13.203125 
Q 16.703125 10.84375 15.234375 8.453125 
z
" id="ArialMT-32"/>
      </defs>
      <g style="fill:#262626;" transform="translate(42.923303 116.793594)scale(0.11 -0.11)">
       <use xlink:href="#ArialMT-32"/>
      </g>
     </g>
    </g>
    <g id="xtick_2">
     <g id="line2d_2">
      <g>
       <use style="fill:#262626;stroke:#262626;stroke-width:0.8;" x="62.069091" xlink:href="#m5a1fe7c242" y="101.92"/>
      </g>
     </g>
     <g id="text_2">
      <!-- 4 -->
      <defs>
       <path d="M 32.328125 0 
L 32.328125 17.140625 
L 1.265625 17.140625 
L 1.265625 25.203125 
L 33.9375 71.578125 
L 41.109375 71.578125 
L 41.109375 25.203125 
L 50.78125 25.203125 
L 50.78125 17.140625 
L 41.109375 17.140625 
L 41.109375 0 
z
M 32.328125 25.203125 
L 32.328125 57.46875 
L 9.90625 25.203125 
z
" id="ArialMT-34"/>
      </defs>
      <g style="fill:#262626;" transform="translate(59.010575 116.793594)scale(0.11 -0.11)">
       <use xlink:href="#ArialMT-34"/>
      </g>
     </g>
    </g>
    <g id="xtick_3">
     <g id="line2d_3">
      <g>
       <use style="fill:#262626;stroke:#262626;stroke-width:0.8;" x="78.156364" xlink:href="#m5a1fe7c242" y="101.92"/>
      </g>
     </g>
     <g id="text_3">
      <!-- 6 -->
      <defs>
       <path d="M 49.75 54.046875 
L 41.015625 53.375 
Q 39.84375 58.546875 37.703125 60.890625 
Q 34.125 64.65625 28.90625 64.65625 
Q 24.703125 64.65625 21.53125 62.3125 
Q 17.390625 59.28125 14.984375 53.46875 
Q 12.59375 47.65625 12.5 36.921875 
Q 15.671875 41.75 20.265625 44.09375 
Q 24.859375 46.4375 29.890625 46.4375 
Q 38.671875 46.4375 44.84375 39.96875 
Q 51.03125 33.5 51.03125 23.25 
Q 51.03125 16.5 48.125 10.71875 
Q 45.21875 4.9375 40.140625 1.859375 
Q 35.0625 -1.21875 28.609375 -1.21875 
Q 17.625 -1.21875 10.6875 6.859375 
Q 3.765625 14.9375 3.765625 33.5 
Q 3.765625 54.25 11.421875 63.671875 
Q 18.109375 71.875 29.4375 71.875 
Q 37.890625 71.875 43.28125 67.140625 
Q 48.6875 62.40625 49.75 54.046875 
z
M 13.875 23.1875 
Q 13.875 18.65625 15.796875 14.5 
Q 17.71875 10.359375 21.1875 8.171875 
Q 24.65625 6 28.46875 6 
Q 34.03125 6 38.03125 10.484375 
Q 42.046875 14.984375 42.046875 22.703125 
Q 42.046875 30.125 38.078125 34.390625 
Q 34.125 38.671875 28.125 38.671875 
Q 22.171875 38.671875 18.015625 34.390625 
Q 13.875 30.125 13.875 23.1875 
z
" id="ArialMT-36"/>
      </defs>
      <g style="fill:#262626;" transform="translate(75.097848 116.793594)scale(0.11 -0.11)">
       <use xlink:href="#ArialMT-36"/>
      </g>
     </g>
    </g>
    <g id="xtick_4">
     <g id="line2d_4">
      <g>
       <use style="fill:#262626;stroke:#262626;stroke-width:0.8;" x="94.243636" xlink:href="#m5a1fe7c242" y="101.92"/>
      </g>
     </g>
     <g id="text_4">
      <!-- 8 -->
      <defs>
       <path d="M 17.671875 38.8125 
Q 12.203125 40.828125 9.5625 44.53125 
Q 6.9375 48.25 6.9375 53.421875 
Q 6.9375 61.234375 12.546875 66.546875 
Q 18.171875 71.875 27.484375 71.875 
Q 36.859375 71.875 42.578125 66.421875 
Q 48.296875 60.984375 48.296875 53.171875 
Q 48.296875 48.1875 45.671875 44.5 
Q 43.0625 40.828125 37.75 38.8125 
Q 44.34375 36.671875 47.78125 31.875 
Q 51.21875 27.09375 51.21875 20.453125 
Q 51.21875 11.28125 44.71875 5.03125 
Q 38.234375 -1.21875 27.640625 -1.21875 
Q 17.046875 -1.21875 10.546875 5.046875 
Q 4.046875 11.328125 4.046875 20.703125 
Q 4.046875 27.6875 7.59375 32.390625 
Q 11.140625 37.109375 17.671875 38.8125 
z
M 15.921875 53.71875 
Q 15.921875 48.640625 19.1875 45.40625 
Q 22.46875 42.1875 27.6875 42.1875 
Q 32.765625 42.1875 36.015625 45.375 
Q 39.265625 48.578125 39.265625 53.21875 
Q 39.265625 58.0625 35.90625 61.359375 
Q 32.5625 64.65625 27.59375 64.65625 
Q 22.5625 64.65625 19.234375 61.421875 
Q 15.921875 58.203125 15.921875 53.71875 
z
M 13.09375 20.65625 
Q 13.09375 16.890625 14.875 13.375 
Q 16.65625 9.859375 20.171875 7.921875 
Q 23.6875 6 27.734375 6 
Q 34.03125 6 38.125 10.046875 
Q 42.234375 14.109375 42.234375 20.359375 
Q 42.234375 26.703125 38.015625 30.859375 
Q 33.796875 35.015625 27.4375 35.015625 
Q 21.234375 35.015625 17.15625 30.90625 
Q 13.09375 26.8125 13.09375 20.65625 
z
" id="ArialMT-38"/>
      </defs>
      <g style="fill:#262626;" transform="translate(91.185121 116.793594)scale(0.11 -0.11)">
       <use xlink:href="#ArialMT-38"/>
      </g>
     </g>
    </g>
    <g id="xtick_5">
     <g id="line2d_5">
      <g>
       <use style="fill:#262626;stroke:#262626;stroke-width:0.8;" x="110.330909" xlink:href="#m5a1fe7c242" y="101.92"/>
      </g>
     </g>
     <g id="text_5">
      <!-- 10 -->
      <defs>
       <path d="M 37.25 0 
L 28.46875 0 
L 28.46875 56 
Q 25.296875 52.984375 20.140625 49.953125 
Q 14.984375 46.921875 10.890625 45.40625 
L 10.890625 53.90625 
Q 18.265625 57.375 23.78125 62.296875 
Q 29.296875 67.234375 31.59375 71.875 
L 37.25 71.875 
z
" id="ArialMT-31"/>
       <path d="M 4.15625 35.296875 
Q 4.15625 48 6.765625 55.734375 
Q 9.375 63.484375 14.515625 67.671875 
Q 19.671875 71.875 27.484375 71.875 
Q 33.25 71.875 37.59375 69.546875 
Q 41.9375 67.234375 44.765625 62.859375 
Q 47.609375 58.5 49.21875 52.21875 
Q 50.828125 45.953125 50.828125 35.296875 
Q 50.828125 22.703125 48.234375 14.96875 
Q 45.65625 7.234375 40.5 3 
Q 35.359375 -1.21875 27.484375 -1.21875 
Q 17.140625 -1.21875 11.234375 6.203125 
Q 4.15625 15.140625 4.15625 35.296875 
z
M 13.1875 35.296875 
Q 13.1875 17.671875 17.3125 11.828125 
Q 21.4375 6 27.484375 6 
Q 33.546875 6 37.671875 11.859375 
Q 41.796875 17.71875 41.796875 35.296875 
Q 41.796875 52.984375 37.671875 58.78125 
Q 33.546875 64.59375 27.390625 64.59375 
Q 21.34375 64.59375 17.71875 59.46875 
Q 13.1875 52.9375 13.1875 35.296875 
z
" id="ArialMT-30"/>
      </defs>
      <g style="fill:#262626;" transform="translate(104.213878 116.793594)scale(0.11 -0.11)">
       <use xlink:href="#ArialMT-31"/>
       <use x="55.615234" xlink:href="#ArialMT-30"/>
      </g>
     </g>
    </g>
    <g id="xtick_6">
     <g id="line2d_6">
      <g>
       <use style="fill:#262626;stroke:#262626;stroke-width:0.8;" x="126.418182" xlink:href="#m5a1fe7c242" y="101.92"/>
      </g>
     </g>
     <g id="text_6">
      <!-- 12 -->
      <g style="fill:#262626;" transform="translate(120.301151 116.793594)scale(0.11 -0.11)">
       <use xlink:href="#ArialMT-31"/>
       <use x="55.615234" xlink:href="#ArialMT-32"/>
      </g>
     </g>
    </g>
    <g id="text_7">
     <!-- pH -->
     <defs>
      <path d="M 6.59375 -19.875 
L 6.59375 51.859375 
L 14.59375 51.859375 
L 14.59375 45.125 
Q 17.4375 49.078125 21 51.046875 
Q 24.5625 53.03125 29.640625 53.03125 
Q 36.28125 53.03125 41.359375 49.609375 
Q 46.4375 46.1875 49.015625 39.953125 
Q 51.609375 33.734375 51.609375 26.3125 
Q 51.609375 18.359375 48.75 11.984375 
Q 45.90625 5.609375 40.453125 2.21875 
Q 35.015625 -1.171875 29 -1.171875 
Q 24.609375 -1.171875 21.109375 0.6875 
Q 17.625 2.546875 15.375 5.375 
L 15.375 -19.875 
z
M 14.546875 25.640625 
Q 14.546875 15.625 18.59375 10.84375 
Q 22.65625 6.0625 28.421875 6.0625 
Q 34.28125 6.0625 38.453125 11.015625 
Q 42.625 15.96875 42.625 26.375 
Q 42.625 36.28125 38.546875 41.203125 
Q 34.46875 46.140625 28.8125 46.140625 
Q 23.1875 46.140625 18.859375 40.890625 
Q 14.546875 35.640625 14.546875 25.640625 
z
" id="ArialMT-70"/>
      <path d="M 8.015625 0 
L 8.015625 71.578125 
L 17.484375 71.578125 
L 17.484375 42.1875 
L 54.6875 42.1875 
L 54.6875 71.578125 
L 64.15625 71.578125 
L 64.15625 0 
L 54.6875 0 
L 54.6875 33.734375 
L 17.484375 33.734375 
L 17.484375 0 
z
" id="ArialMT-48"/>
     </defs>
     <g style="fill:#262626;" transform="translate(79.169453 130.853437)scale(0.11 -0.11)">
      <use xlink:href="#ArialMT-70"/>
      <use x="55.615234" xlink:href="#ArialMT-48"/>
     </g>
    </g>
   </g>
   <g id="matplotlib.axis_2">
    <g id="ytick_1">
     <g id="line2d_7">
      <defs>
       <path d="M 0 0 
L -3.5 0 
" id="m7a1efa30fa" style="stroke:#262626;stroke-width:0.8;"/>
      </defs>
      <g>
       <use style="fill:#262626;stroke:#262626;stroke-width:0.8;" x="41.96" xlink:href="#m7a1efa30fa" y="98.689623"/>
      </g>
     </g>
     <g id="text_8">
      <!-- 0 -->
      <g style="fill:#262626;" transform="translate(28.842969 102.62642)scale(0.11 -0.11)">
       <use xlink:href="#ArialMT-30"/>
      </g>
     </g>
    </g>
    <g id="ytick_2">
     <g id="line2d_8">
      <g>
       <use style="fill:#262626;stroke:#262626;stroke-width:0.8;" x="41.96" xlink:href="#m7a1efa30fa" y="63.953222"/>
      </g>
     </g>
     <g id="text_9">
      <!-- 1 -->
      <g style="fill:#262626;" transform="translate(28.842969 67.890018)scale(0.11 -0.11)">
       <use xlink:href="#ArialMT-31"/>
      </g>
     </g>
    </g>
    <g id="ytick_3">
     <g id="line2d_9">
      <g>
       <use style="fill:#262626;stroke:#262626;stroke-width:0.8;" x="41.96" xlink:href="#m7a1efa30fa" y="29.21682"/>
      </g>
     </g>
     <g id="text_10">
      <!-- 2 -->
      <g style="fill:#262626;" transform="translate(28.842969 33.153617)scale(0.11 -0.11)">
       <use xlink:href="#ArialMT-32"/>
      </g>
     </g>
    </g>
    <g id="text_11">
     <!-- $\langle q_\mathsf{total} \rangle$ -->
     <defs>
      <path d="M 8.9375 31.34375 
L 22.703125 75.875 
L 31 75.875 
L 17.234375 31.34375 
L 31 -13.1875 
L 22.703125 -13.1875 
z
" id="DejaVuSans-27e8"/>
      <path d="M 41.703125 8.203125 
Q 38.09375 3.46875 33.171875 1.015625 
Q 28.265625 -1.421875 22.3125 -1.421875 
Q 14.015625 -1.421875 9.296875 4.171875 
Q 4.59375 9.765625 4.59375 19.578125 
Q 4.59375 27.484375 7.5 34.859375 
Q 10.40625 42.234375 15.828125 48.09375 
Q 19.34375 51.90625 23.90625 53.953125 
Q 28.46875 56 33.5 56 
Q 39.546875 56 43.453125 53.609375 
Q 47.359375 51.21875 49.125 46.390625 
L 50.6875 54.59375 
L 59.71875 54.59375 
L 45.125 -20.609375 
L 36.078125 -20.609375 
z
M 13.921875 20.90625 
Q 13.921875 13.671875 16.9375 9.890625 
Q 19.96875 6.109375 25.6875 6.109375 
Q 34.1875 6.109375 40.1875 14.234375 
Q 46.1875 22.359375 46.1875 33.984375 
Q 46.1875 41.015625 43.078125 44.75 
Q 39.984375 48.484375 34.1875 48.484375 
Q 29.9375 48.484375 26.3125 46.5 
Q 22.703125 44.53125 20.015625 40.71875 
Q 17.1875 36.71875 15.546875 31.34375 
Q 13.921875 25.984375 13.921875 20.90625 
z
" id="DejaVuSans-Oblique-71"/>
      <path d="M 18.3125 70.21875 
L 18.3125 54.6875 
L 36.8125 54.6875 
L 36.8125 47.703125 
L 18.3125 47.703125 
L 18.3125 18.015625 
Q 18.3125 11.328125 20.140625 9.421875 
Q 21.96875 7.515625 27.59375 7.515625 
L 36.8125 7.515625 
L 36.8125 0 
L 27.59375 0 
Q 17.1875 0 13.234375 3.875 
Q 9.28125 7.765625 9.28125 18.015625 
L 9.28125 47.703125 
L 2.6875 47.703125 
L 2.6875 54.6875 
L 9.28125 54.6875 
L 9.28125 70.21875 
z
" id="DejaVuSans-74"/>
      <path d="M 30.609375 48.390625 
Q 23.390625 48.390625 19.1875 42.75 
Q 14.984375 37.109375 14.984375 27.296875 
Q 14.984375 17.484375 19.15625 11.84375 
Q 23.34375 6.203125 30.609375 6.203125 
Q 37.796875 6.203125 41.984375 11.859375 
Q 46.1875 17.53125 46.1875 27.296875 
Q 46.1875 37.015625 41.984375 42.703125 
Q 37.796875 48.390625 30.609375 48.390625 
z
M 30.609375 56 
Q 42.328125 56 49.015625 48.375 
Q 55.71875 40.765625 55.71875 27.296875 
Q 55.71875 13.875 49.015625 6.21875 
Q 42.328125 -1.421875 30.609375 -1.421875 
Q 18.84375 -1.421875 12.171875 6.21875 
Q 5.515625 13.875 5.515625 27.296875 
Q 5.515625 40.765625 12.171875 48.375 
Q 18.84375 56 30.609375 56 
z
" id="DejaVuSans-6f"/>
      <path d="M 34.28125 27.484375 
Q 23.390625 27.484375 19.1875 25 
Q 14.984375 22.515625 14.984375 16.5 
Q 14.984375 11.71875 18.140625 8.90625 
Q 21.296875 6.109375 26.703125 6.109375 
Q 34.1875 6.109375 38.703125 11.40625 
Q 43.21875 16.703125 43.21875 25.484375 
L 43.21875 27.484375 
z
M 52.203125 31.203125 
L 52.203125 0 
L 43.21875 0 
L 43.21875 8.296875 
Q 40.140625 3.328125 35.546875 0.953125 
Q 30.953125 -1.421875 24.3125 -1.421875 
Q 15.921875 -1.421875 10.953125 3.296875 
Q 6 8.015625 6 15.921875 
Q 6 25.140625 12.171875 29.828125 
Q 18.359375 34.515625 30.609375 34.515625 
L 43.21875 34.515625 
L 43.21875 35.40625 
Q 43.21875 41.609375 39.140625 45 
Q 35.0625 48.390625 27.6875 48.390625 
Q 23 48.390625 18.546875 47.265625 
Q 14.109375 46.140625 10.015625 43.890625 
L 10.015625 52.203125 
Q 14.9375 54.109375 19.578125 55.046875 
Q 24.21875 56 28.609375 56 
Q 40.484375 56 46.34375 49.84375 
Q 52.203125 43.703125 52.203125 31.203125 
z
" id="DejaVuSans-61"/>
      <path d="M 9.421875 75.984375 
L 18.40625 75.984375 
L 18.40625 0 
L 9.421875 0 
z
" id="DejaVuSans-6c"/>
      <path d="M 30.078125 31.34375 
L 16.3125 -13.1875 
L 8.015625 -13.1875 
L 21.78125 31.34375 
L 8.015625 75.875 
L 16.3125 75.875 
z
" id="DejaVuSans-27e9"/>
     </defs>
     <g style="fill:#262626;" transform="translate(22.532969 81.475)rotate(-90)scale(0.11 -0.11)">
      <use transform="translate(0 0.125)" xlink:href="#DejaVuSans-27e8"/>
      <use transform="translate(39.013672 0.125)" xlink:href="#DejaVuSans-Oblique-71"/>
      <use transform="translate(102.490234 -16.28125)scale(0.7)" xlink:href="#DejaVuSans-74"/>
      <use transform="translate(129.936523 -16.28125)scale(0.7)" xlink:href="#DejaVuSans-6f"/>
      <use transform="translate(172.763672 -16.28125)scale(0.7)" xlink:href="#DejaVuSans-74"/>
      <use transform="translate(200.209961 -16.28125)scale(0.7)" xlink:href="#DejaVuSans-61"/>
      <use transform="translate(243.105469 -16.28125)scale(0.7)" xlink:href="#DejaVuSans-6c"/>
      <use transform="translate(265.288086 0.125)" xlink:href="#DejaVuSans-27e9"/>
     </g>
    </g>
   </g>
   <g id="PolyCollection_1">
    <defs>
     <path d="M 45.981818 -107.542789 
L 45.981818 -107.542789 
L 46.786182 -106.132634 
L 47.590545 -104.549239 
L 48.394909 -102.807833 
L 49.199273 -100.935724 
L 50.003636 -98.971523 
L 50.808 -96.962416 
L 51.612364 -94.959707 
L 52.416727 -93.013473 
L 53.221091 -91.167428 
L 54.025455 -89.455026 
L 54.829818 -87.897437 
L 55.634182 -86.503414 
L 56.438545 -85.270669 
L 57.242909 -84.188091 
L 58.047273 -83.238203 
L 58.851636 -82.399384 
L 59.656 -81.647618 
L 60.460364 -80.957698 
L 61.264727 -80.30394 
L 62.069091 -79.660519 
L 62.873455 -79.001593 
L 63.677818 -78.30135 
L 64.482182 -77.534165 
L 65.286545 -76.674997 
L 66.090909 -75.700197 
L 66.895273 -74.588815 
L 67.699636 -73.324456 
L 68.504 -71.897578 
L 69.308364 -70.307941 
L 70.112727 -68.566711 
L 70.917091 -66.697581 
L 71.721455 -64.736285 
L 72.525818 -62.728172 
L 73.330182 -60.723999 
L 74.134545 -58.774662 
L 74.938909 -56.925939 
L 75.743273 -55.214339 
L 76.547636 -53.664752 
L 77.352 -52.290062 
L 78.156364 -51.092372 
L 78.960727 -50.06523 
L 79.765091 -49.196214 
L 80.569455 -48.46938 
L 81.373818 -47.867289 
L 82.178182 -47.372496 
L 82.982545 -46.968541 
L 83.786909 -46.64051 
L 84.591273 -46.375293 
L 85.395636 -46.161616 
L 86.2 -45.989952 
L 87.004364 -45.852355 
L 87.808727 -45.742266 
L 88.613091 -45.654315 
L 89.417455 -45.584132 
L 90.221818 -45.52818 
L 91.026182 -45.483606 
L 91.830545 -45.448119 
L 92.634909 -45.419878 
L 93.439273 -45.397413 
L 94.243636 -45.379548 
L 95.048 -45.365344 
L 95.852364 -45.354053 
L 96.656727 -45.345079 
L 97.461091 -45.337947 
L 98.265455 -45.33228 
L 99.069818 -45.327778 
L 99.874182 -45.3242 
L 100.678545 -45.321358 
L 101.482909 -45.3191 
L 102.287273 -45.317306 
L 103.091636 -45.315881 
L 103.896 -45.314749 
L 104.700364 -45.31385 
L 105.504727 -45.313136 
L 106.309091 -45.312569 
L 107.113455 -45.312118 
L 107.917818 -45.31176 
L 108.722182 -45.311475 
L 109.526545 -45.311249 
L 110.330909 -45.31107 
L 111.135273 -45.310927 
L 111.939636 -45.310814 
L 112.744 -45.310724 
L 113.548364 -45.310653 
L 114.352727 -45.310596 
L 115.157091 -45.310551 
L 115.961455 -45.310515 
L 116.765818 -45.310487 
L 117.570182 -45.310464 
L 118.374545 -45.310446 
L 119.178909 -45.310432 
L 119.983273 -45.310421 
L 120.787636 -45.310412 
L 121.592 -45.310405 
L 122.396364 -45.310399 
L 123.200727 -45.310394 
L 124.005091 -45.310391 
L 124.809455 -45.310388 
L 125.613818 -45.310386 
L 126.418182 -45.310384 
L 126.418182 -45.310384 
L 126.418182 -45.310441 
L 125.613818 -45.310466 
L 124.809455 -45.310495 
L 124.005091 -45.310531 
L 123.200727 -45.310575 
L 122.396364 -45.31063 
L 121.592 -45.310698 
L 120.787636 -45.310783 
L 119.983273 -45.31089 
L 119.178909 -45.311024 
L 118.374545 -45.311193 
L 117.570182 -45.311405 
L 116.765818 -45.311672 
L 115.961455 -45.312007 
L 115.157091 -45.31243 
L 114.352727 -45.312962 
L 113.548364 -45.313631 
L 112.744 -45.314474 
L 111.939636 -45.315535 
L 111.135273 -45.316871 
L 110.330909 -45.318552 
L 109.526545 -45.320668 
L 108.722182 -45.323331 
L 107.917818 -45.326684 
L 107.113455 -45.330904 
L 106.309091 -45.336215 
L 105.504727 -45.342899 
L 104.700364 -45.35131 
L 103.896 -45.361893 
L 103.091636 -45.375207 
L 102.287273 -45.391953 
L 101.482909 -45.413013 
L 100.678545 -45.439489 
L 99.874182 -45.472764 
L 99.069818 -45.514563 
L 98.265455 -45.567041 
L 97.461091 -45.632881 
L 96.656727 -45.715413 
L 95.852364 -45.818753 
L 95.048 -45.947969 
L 94.243636 -46.109264 
L 93.439273 -46.310165 
L 92.634909 -46.55973 
L 91.830545 -46.868715 
L 91.026182 -47.249694 
L 90.221818 -47.717061 
L 89.417455 -48.286847 
L 88.613091 -48.976244 
L 87.808727 -49.802747 
L 87.004364 -50.782797 
L 86.2 -51.929896 
L 85.395636 -53.25225 
L 84.591273 -54.750167 
L 83.786909 -56.413673 
L 82.982545 -58.220922 
L 82.178182 -60.138082 
L 81.373818 -62.121114 
L 80.569455 -64.119454 
L 79.765091 -66.081033 
L 78.960727 -67.957623 
L 78.156364 -69.709382 
L 77.352 -71.307756 
L 76.547636 -72.736412 
L 75.743273 -73.990428 
L 74.938909 -75.074291 
L 74.134545 -75.999376 
L 73.330182 -76.781436 
L 72.525818 -77.438471 
L 71.721455 -77.989115 
L 70.917091 -78.45156 
L 70.112727 -78.842952 
L 69.308364 -79.179134 
L 68.504 -79.474659 
L 67.699636 -79.742973 
L 66.895273 -79.996707 
L 66.090909 -80.248029 
L 65.286545 -80.509029 
L 64.482182 -80.792109 
L 63.677818 -81.110349 
L 62.873455 -81.477831 
L 62.069091 -81.909868 
L 61.264727 -82.423098 
L 60.460364 -83.035347 
L 59.656 -83.765171 
L 58.851636 -84.630988 
L 58.047273 -85.649676 
L 57.242909 -86.834648 
L 56.438545 -88.193459 
L 55.634182 -89.725233 
L 54.829818 -91.41838 
L 54.025455 -93.24923 
L 53.221091 -95.182218 
L 52.416727 -97.172003 
L 51.612364 -99.167432 
L 50.808 -101.116691 
L 50.003636 -102.972598 
L 49.199273 -104.69691 
L 48.394909 -106.262902 
L 47.590545 -107.655972 
L 46.786182 -108.872572 
L 45.981818 -109.918061 
z
" id="m7a71965d1c" style="stroke:#ffffff;stroke-opacity:0.7;"/>
    </defs>
    <g clip-path="url(#p3b20285826)">
     <use style="fill:#8c0800;fill-opacity:0.7;stroke:#ffffff;stroke-opacity:0.7;" x="0" xlink:href="#m7a71965d1c" y="144"/>
    </g>
   </g>
   <g id="line2d_10">
    <path clip-path="url(#p3b20285826)" d="M 45.981818 36.457211 
L 46.786182 37.867366 
L 47.590545 39.450761 
L 48.394909 41.192167 
L 49.199273 43.064276 
L 50.003636 45.028477 
L 50.808 47.037584 
L 51.612364 49.040293 
L 52.416727 50.986527 
L 53.221091 52.832572 
L 54.025455 54.544974 
L 54.829818 56.102563 
L 55.634182 57.496586 
L 56.438545 58.729331 
L 57.242909 59.811909 
L 58.047273 60.761797 
L 58.851636 61.600616 
L 59.656 62.352382 
L 60.460364 63.042302 
L 61.264727 63.69606 
L 62.069091 64.339481 
L 62.873455 64.998407 
L 63.677818 65.69865 
L 64.482182 66.465835 
L 65.286545 67.325003 
L 66.090909 68.299803 
L 66.895273 69.411185 
L 67.699636 70.675544 
L 68.504 72.102422 
L 69.308364 73.692059 
L 70.112727 75.433289 
L 70.917091 77.302419 
L 71.721455 79.263715 
L 72.525818 81.271828 
L 73.330182 83.276001 
L 74.134545 85.225338 
L 74.938909 87.074061 
L 75.743273 88.785661 
L 76.547636 90.335248 
L 77.352 91.709938 
L 78.156364 92.907628 
L 78.960727 93.93477 
L 79.765091 94.803786 
L 80.569455 95.53062 
L 81.373818 96.132711 
L 82.178182 96.627504 
L 82.982545 97.031459 
L 83.786909 97.35949 
L 84.591273 97.624707 
L 85.395636 97.838384 
L 86.2 98.010048 
L 87.004364 98.147645 
L 87.808727 98.257734 
L 88.613091 98.345685 
L 89.417455 98.415868 
L 90.221818 98.47182 
L 91.026182 98.516394 
L 91.830545 98.551881 
L 92.634909 98.580122 
L 93.439273 98.602587 
L 94.243636 98.620452 
L 95.048 98.634656 
L 95.852364 98.645947 
L 96.656727 98.654921 
L 97.461091 98.662053 
L 98.265455 98.66772 
L 99.069818 98.672222 
L 99.874182 98.6758 
L 100.678545 98.678642 
L 101.482909 98.6809 
L 102.287273 98.682694 
L 103.091636 98.684119 
L 103.896 98.685251 
L 104.700364 98.68615 
L 105.504727 98.686864 
L 106.309091 98.687431 
L 107.113455 98.687882 
L 107.917818 98.68824 
L 108.722182 98.688525 
L 109.526545 98.688751 
L 110.330909 98.68893 
L 111.135273 98.689073 
L 111.939636 98.689186 
L 112.744 98.689276 
L 113.548364 98.689347 
L 114.352727 98.689404 
L 115.157091 98.689449 
L 115.961455 98.689485 
L 116.765818 98.689513 
L 117.570182 98.689536 
L 118.374545 98.689554 
L 119.178909 98.689568 
L 119.983273 98.689579 
L 120.787636 98.689588 
L 121.592 98.689595 
L 122.396364 98.689601 
L 123.200727 98.689606 
L 124.005091 98.689609 
L 124.809455 98.689612 
L 125.613818 98.689614 
L 126.418182 98.689616 
" style="fill:none;stroke:#333333;stroke-dasharray:1.5,2.475;stroke-dashoffset:0;stroke-width:1.5;"/>
   </g>
   <g id="line2d_11">
    <path clip-path="url(#p3b20285826)" d="M 45.981818 34.081939 
L 46.786182 35.127428 
L 47.590545 36.344028 
L 48.394909 37.737098 
L 49.199273 39.30309 
L 50.003636 41.027402 
L 50.808 42.883309 
L 51.612364 44.832568 
L 52.416727 46.827997 
L 53.221091 48.817782 
L 54.025455 50.75077 
L 54.829818 52.58162 
L 55.634182 54.274767 
L 56.438545 55.806541 
L 57.242909 57.165352 
L 58.047273 58.350324 
L 58.851636 59.369012 
L 59.656 60.234829 
L 60.460364 60.964653 
L 61.264727 61.576902 
L 62.069091 62.090132 
L 62.873455 62.522169 
L 63.677818 62.889651 
L 64.482182 63.207891 
L 65.286545 63.490971 
L 66.090909 63.751971 
L 66.895273 64.003293 
L 67.699636 64.257027 
L 68.504 64.525341 
L 69.308364 64.820866 
L 70.112727 65.157048 
L 70.917091 65.54844 
L 71.721455 66.010885 
L 72.525818 66.561529 
L 73.330182 67.218564 
L 74.134545 68.000624 
L 74.938909 68.925709 
L 75.743273 70.009572 
L 76.547636 71.263588 
L 77.352 72.692244 
L 78.156364 74.290618 
L 78.960727 76.042377 
L 79.765091 77.918967 
L 80.569455 79.880546 
L 81.373818 81.878886 
L 82.178182 83.861918 
L 82.982545 85.779078 
L 83.786909 87.586327 
L 84.591273 89.249833 
L 85.395636 90.74775 
L 86.2 92.070104 
L 87.004364 93.217203 
L 87.808727 94.197253 
L 88.613091 95.023756 
L 89.417455 95.713153 
L 90.221818 96.282939 
L 91.026182 96.750306 
L 91.830545 97.131285 
L 92.634909 97.44027 
L 93.439273 97.689835 
L 94.243636 97.890736 
L 95.048 98.052031 
L 95.852364 98.181247 
L 96.656727 98.284587 
L 97.461091 98.367119 
L 98.265455 98.432959 
L 99.069818 98.485437 
L 99.874182 98.527236 
L 100.678545 98.560511 
L 101.482909 98.586987 
L 102.287273 98.608047 
L 103.091636 98.624793 
L 103.896 98.638107 
L 104.700364 98.64869 
L 105.504727 98.657101 
L 106.309091 98.663785 
L 107.113455 98.669096 
L 107.917818 98.673316 
L 108.722182 98.676669 
L 109.526545 98.679332 
L 110.330909 98.681448 
L 111.135273 98.683129 
L 111.939636 98.684465 
L 112.744 98.685526 
L 113.548364 98.686369 
L 114.352727 98.687038 
L 115.157091 98.68757 
L 115.961455 98.687993 
L 116.765818 98.688328 
L 117.570182 98.688595 
L 118.374545 98.688807 
L 119.178909 98.688976 
L 119.983273 98.68911 
L 120.787636 98.689217 
L 121.592 98.689302 
L 122.396364 98.68937 
L 123.200727 98.689425 
L 124.005091 98.689469 
L 124.809455 98.689505 
L 125.613818 98.689534 
L 126.418182 98.689559 
" style="fill:none;stroke:#333333;stroke-linecap:round;stroke-width:1.5;"/>
   </g>
   <g id="patch_3">
    <path d="M 41.96 101.92 
L 41.96 27.48 
" style="fill:none;stroke:#262626;stroke-linecap:square;stroke-linejoin:miter;stroke-width:0.8;"/>
   </g>
   <g id="patch_4">
    <path d="M 41.96 101.92 
L 130.44 101.92 
" style="fill:none;stroke:#262626;stroke-linecap:square;stroke-linejoin:miter;stroke-width:0.8;"/>
   </g>
   <g id="text_12">
    <!-- $\Delta$ area : 1.25 -->
    <defs>
     <path d="M 34.1875 63.1875 
L 14.15625 8.203125 
L 54.25 8.203125 
z
M 0.78125 0 
L 28.609375 72.90625 
L 39.796875 72.90625 
L 67.578125 0 
z
" id="DejaVuSans-394"/>
     <path id="ArialMT-20"/>
     <path d="M 40.4375 6.390625 
Q 35.546875 2.25 31.03125 0.53125 
Q 26.515625 -1.171875 21.34375 -1.171875 
Q 12.796875 -1.171875 8.203125 3 
Q 3.609375 7.171875 3.609375 13.671875 
Q 3.609375 17.484375 5.34375 20.625 
Q 7.078125 23.78125 9.890625 25.6875 
Q 12.703125 27.59375 16.21875 28.5625 
Q 18.796875 29.25 24.03125 29.890625 
Q 34.671875 31.15625 39.703125 32.90625 
Q 39.75 34.71875 39.75 35.203125 
Q 39.75 40.578125 37.25 42.78125 
Q 33.890625 45.75 27.25 45.75 
Q 21.046875 45.75 18.09375 43.578125 
Q 15.140625 41.40625 13.71875 35.890625 
L 5.125 37.0625 
Q 6.296875 42.578125 8.984375 45.96875 
Q 11.671875 49.359375 16.75 51.1875 
Q 21.828125 53.03125 28.515625 53.03125 
Q 35.15625 53.03125 39.296875 51.46875 
Q 43.453125 49.90625 45.40625 47.53125 
Q 47.359375 45.171875 48.140625 41.546875 
Q 48.578125 39.3125 48.578125 33.453125 
L 48.578125 21.734375 
Q 48.578125 9.46875 49.140625 6.21875 
Q 49.703125 2.984375 51.375 0 
L 42.1875 0 
Q 40.828125 2.734375 40.4375 6.390625 
z
M 39.703125 26.03125 
Q 34.90625 24.078125 25.34375 22.703125 
Q 19.921875 21.921875 17.671875 20.9375 
Q 15.4375 19.96875 14.203125 18.09375 
Q 12.984375 16.21875 12.984375 13.921875 
Q 12.984375 10.40625 15.640625 8.0625 
Q 18.3125 5.71875 23.4375 5.71875 
Q 28.515625 5.71875 32.46875 7.9375 
Q 36.421875 10.15625 38.28125 14.015625 
Q 39.703125 17 39.703125 22.796875 
z
" id="ArialMT-61"/>
     <path d="M 6.5 0 
L 6.5 51.859375 
L 14.40625 51.859375 
L 14.40625 44 
Q 17.4375 49.515625 20 51.265625 
Q 22.5625 53.03125 25.640625 53.03125 
Q 30.078125 53.03125 34.671875 50.203125 
L 31.640625 42.046875 
Q 28.421875 43.953125 25.203125 43.953125 
Q 22.3125 43.953125 20.015625 42.21875 
Q 17.71875 40.484375 16.75 37.40625 
Q 15.28125 32.71875 15.28125 27.15625 
L 15.28125 0 
z
" id="ArialMT-72"/>
     <path d="M 42.09375 16.703125 
L 51.171875 15.578125 
Q 49.03125 7.625 43.21875 3.21875 
Q 37.40625 -1.171875 28.375 -1.171875 
Q 17 -1.171875 10.328125 5.828125 
Q 3.65625 12.84375 3.65625 25.484375 
Q 3.65625 38.578125 10.390625 45.796875 
Q 17.140625 53.03125 27.875 53.03125 
Q 38.28125 53.03125 44.875 45.953125 
Q 51.46875 38.875 51.46875 26.03125 
Q 51.46875 25.25 51.421875 23.6875 
L 12.75 23.6875 
Q 13.234375 15.140625 17.578125 10.59375 
Q 21.921875 6.0625 28.421875 6.0625 
Q 33.25 6.0625 36.671875 8.59375 
Q 40.09375 11.140625 42.09375 16.703125 
z
M 13.234375 30.90625 
L 42.1875 30.90625 
Q 41.609375 37.453125 38.875 40.71875 
Q 34.671875 45.796875 27.984375 45.796875 
Q 21.921875 45.796875 17.796875 41.75 
Q 13.671875 37.703125 13.234375 30.90625 
z
" id="ArialMT-65"/>
     <path d="M 9.03125 41.84375 
L 9.03125 51.859375 
L 19.046875 51.859375 
L 19.046875 41.84375 
z
M 9.03125 0 
L 9.03125 10.015625 
L 19.046875 10.015625 
L 19.046875 0 
z
" id="ArialMT-3a"/>
     <path d="M 9.078125 0 
L 9.078125 10.015625 
L 19.09375 10.015625 
L 19.09375 0 
z
" id="ArialMT-2e"/>
     <path d="M 4.15625 18.75 
L 13.375 19.53125 
Q 14.40625 12.796875 18.140625 9.390625 
Q 21.875 6 27.15625 6 
Q 33.5 6 37.890625 10.78125 
Q 42.28125 15.578125 42.28125 23.484375 
Q 42.28125 31 38.0625 35.34375 
Q 33.84375 39.703125 27 39.703125 
Q 22.75 39.703125 19.328125 37.765625 
Q 15.921875 35.84375 13.96875 32.765625 
L 5.71875 33.84375 
L 12.640625 70.609375 
L 48.25 70.609375 
L 48.25 62.203125 
L 19.671875 62.203125 
L 15.828125 42.96875 
Q 22.265625 47.46875 29.34375 47.46875 
Q 38.71875 47.46875 45.15625 40.96875 
Q 51.609375 34.46875 51.609375 24.265625 
Q 51.609375 14.546875 45.953125 7.46875 
Q 39.0625 -1.21875 27.15625 -1.21875 
Q 17.390625 -1.21875 11.203125 4.25 
Q 5.03125 9.71875 4.15625 18.75 
z
" id="ArialMT-35"/>
    </defs>
    <g style="fill:#262626;" transform="translate(48.25 21.48)scale(0.132 -0.132)">
     <use transform="translate(0 0.09375)" xlink:href="#DejaVuSans-394"/>
     <use transform="translate(68.408203 0.09375)" xlink:href="#ArialMT-20"/>
     <use transform="translate(96.191406 0.09375)" xlink:href="#ArialMT-61"/>
     <use transform="translate(151.806641 0.09375)" xlink:href="#ArialMT-72"/>
     <use transform="translate(185.107422 0.09375)" xlink:href="#ArialMT-65"/>
     <use transform="translate(240.722656 0.09375)" xlink:href="#ArialMT-61"/>
     <use transform="translate(296.337891 0.09375)" xlink:href="#ArialMT-20"/>
     <use transform="translate(324.121094 0.09375)" xlink:href="#ArialMT-3a"/>
     <use transform="translate(351.904297 0.09375)" xlink:href="#ArialMT-20"/>
     <use transform="translate(379.6875 0.09375)" xlink:href="#ArialMT-31"/>
     <use transform="translate(435.302734 0.09375)" xlink:href="#ArialMT-2e"/>
     <use transform="translate(463.085938 0.09375)" xlink:href="#ArialMT-32"/>
     <use transform="translate(518.701172 0.09375)" xlink:href="#ArialMT-35"/>
    </g>
   </g>
  </g>
 </g>
 <defs>
  <clipPath id="p3b20285826">
   <rect height="74.44" width="88.48" x="41.96" y="27.48"/>
  </clipPath>
 </defs>
</svg>
