<?xml version="1.0" encoding="utf-8" standalone="no"?>
<!DOCTYPE svg PUBLIC "-//W3C//DTD SVG 1.1//EN"
  "http://www.w3.org/Graphics/SVG/1.1/DTD/svg11.dtd">
<!-- Created with matplotlib (http://matplotlib.org/) -->
<svg height="144pt" version="1.1" viewBox="0 0 144 144" width="144pt" xmlns="http://www.w3.org/2000/svg" xmlns:xlink="http://www.w3.org/1999/xlink">
 <defs>
  <style type="text/css">
*{stroke-linecap:butt;stroke-linejoin:round;}
  </style>
 </defs>
 <g id="figure_1">
  <g id="patch_1">
   <path d="M 0 144 
L 144 144 
L 144 0 
L 0 0 
z
" style="fill:#ffffff;"/>
  </g>
  <g id="axes_1">
   <g id="patch_2">
    <path d="M 53.72 101.92 
L 130.44 101.92 
L 130.44 13.56 
L 53.72 13.56 
z
" style="fill:#ffffff;"/>
   </g>
   <g id="matplotlib.axis_1">
    <g id="xtick_1">
     <g id="line2d_1">
      <defs>
       <path d="M 0 0 
L 0 3.5 
" id="mf02c851894" style="stroke:#262626;stroke-width:0.8;"/>
      </defs>
      <g>
       <use style="fill:#262626;stroke:#262626;stroke-width:0.8;" x="57.207273" xlink:href="#mf02c851894" y="101.92"/>
      </g>
     </g>
     <g id="text_1">
      <!-- 2 -->
      <defs>
       <path d="M 50.34375 8.453125 
L 50.34375 0 
L 3.03125 0 
Q 2.9375 3.171875 4.046875 6.109375 
Q 5.859375 10.9375 9.828125 15.625 
Q 13.8125 20.3125 21.34375 26.46875 
Q 33.015625 36.03125 37.109375 41.625 
Q 41.21875 47.21875 41.21875 52.203125 
Q 41.21875 57.421875 37.46875 61 
Q 33.734375 64.59375 27.734375 64.59375 
Q 21.390625 64.59375 17.578125 60.78125 
Q 13.765625 56.984375 13.71875 50.25 
L 4.6875 51.171875 
Q 5.609375 61.28125 11.65625 66.578125 
Q 17.71875 71.875 27.9375 71.875 
Q 38.234375 71.875 44.234375 66.15625 
Q 50.25 60.453125 50.25 52 
Q 50.25 47.703125 48.484375 43.546875 
Q 46.734375 39.40625 42.65625 34.8125 
Q 38.578125 30.21875 29.109375 22.21875 
Q 21.1875 15.578125 18.9375 13.203125 
Q 16.703125 10.84375 15.234375 8.453125 
z
" id="ArialMT-32"/>
      </defs>
      <g style="fill:#262626;" transform="translate(54.148757 116.793594)scale(0.11 -0.11)">
       <use xlink:href="#ArialMT-32"/>
      </g>
     </g>
    </g>
    <g id="xtick_2">
     <g id="line2d_2">
      <g>
       <use style="fill:#262626;stroke:#262626;stroke-width:0.8;" x="71.156364" xlink:href="#mf02c851894" y="101.92"/>
      </g>
     </g>
     <g id="text_2">
      <!-- 4 -->
      <defs>
       <path d="M 32.328125 0 
L 32.328125 17.140625 
L 1.265625 17.140625 
L 1.265625 25.203125 
L 33.9375 71.578125 
L 41.109375 71.578125 
L 41.109375 25.203125 
L 50.78125 25.203125 
L 50.78125 17.140625 
L 41.109375 17.140625 
L 41.109375 0 
z
M 32.328125 25.203125 
L 32.328125 57.46875 
L 9.90625 25.203125 
z
" id="ArialMT-34"/>
      </defs>
      <g style="fill:#262626;" transform="translate(68.097848 116.793594)scale(0.11 -0.11)">
       <use xlink:href="#ArialMT-34"/>
      </g>
     </g>
    </g>
    <g id="xtick_3">
     <g id="line2d_3">
      <g>
       <use style="fill:#262626;stroke:#262626;stroke-width:0.8;" x="85.105455" xlink:href="#mf02c851894" y="101.92"/>
      </g>
     </g>
     <g id="text_3">
      <!-- 6 -->
      <defs>
       <path d="M 49.75 54.046875 
L 41.015625 53.375 
Q 39.84375 58.546875 37.703125 60.890625 
Q 34.125 64.65625 28.90625 64.65625 
Q 24.703125 64.65625 21.53125 62.3125 
Q 17.390625 59.28125 14.984375 53.46875 
Q 12.59375 47.65625 12.5 36.921875 
Q 15.671875 41.75 20.265625 44.09375 
Q 24.859375 46.4375 29.890625 46.4375 
Q 38.671875 46.4375 44.84375 39.96875 
Q 51.03125 33.5 51.03125 23.25 
Q 51.03125 16.5 48.125 10.71875 
Q 45.21875 4.9375 40.140625 1.859375 
Q 35.0625 -1.21875 28.609375 -1.21875 
Q 17.625 -1.21875 10.6875 6.859375 
Q 3.765625 14.9375 3.765625 33.5 
Q 3.765625 54.25 11.421875 63.671875 
Q 18.109375 71.875 29.4375 71.875 
Q 37.890625 71.875 43.28125 67.140625 
Q 48.6875 62.40625 49.75 54.046875 
z
M 13.875 23.1875 
Q 13.875 18.65625 15.796875 14.5 
Q 17.71875 10.359375 21.1875 8.171875 
Q 24.65625 6 28.46875 6 
Q 34.03125 6 38.03125 10.484375 
Q 42.046875 14.984375 42.046875 22.703125 
Q 42.046875 30.125 38.078125 34.390625 
Q 34.125 38.671875 28.125 38.671875 
Q 22.171875 38.671875 18.015625 34.390625 
Q 13.875 30.125 13.875 23.1875 
z
" id="ArialMT-36"/>
      </defs>
      <g style="fill:#262626;" transform="translate(82.046939 116.793594)scale(0.11 -0.11)">
       <use xlink:href="#ArialMT-36"/>
      </g>
     </g>
    </g>
    <g id="xtick_4">
     <g id="line2d_4">
      <g>
       <use style="fill:#262626;stroke:#262626;stroke-width:0.8;" x="99.054545" xlink:href="#mf02c851894" y="101.92"/>
      </g>
     </g>
     <g id="text_4">
      <!-- 8 -->
      <defs>
       <path d="M 17.671875 38.8125 
Q 12.203125 40.828125 9.5625 44.53125 
Q 6.9375 48.25 6.9375 53.421875 
Q 6.9375 61.234375 12.546875 66.546875 
Q 18.171875 71.875 27.484375 71.875 
Q 36.859375 71.875 42.578125 66.421875 
Q 48.296875 60.984375 48.296875 53.171875 
Q 48.296875 48.1875 45.671875 44.5 
Q 43.0625 40.828125 37.75 38.8125 
Q 44.34375 36.671875 47.78125 31.875 
Q 51.21875 27.09375 51.21875 20.453125 
Q 51.21875 11.28125 44.71875 5.03125 
Q 38.234375 -1.21875 27.640625 -1.21875 
Q 17.046875 -1.21875 10.546875 5.046875 
Q 4.046875 11.328125 4.046875 20.703125 
Q 4.046875 27.6875 7.59375 32.390625 
Q 11.140625 37.109375 17.671875 38.8125 
z
M 15.921875 53.71875 
Q 15.921875 48.640625 19.1875 45.40625 
Q 22.46875 42.1875 27.6875 42.1875 
Q 32.765625 42.1875 36.015625 45.375 
Q 39.265625 48.578125 39.265625 53.21875 
Q 39.265625 58.0625 35.90625 61.359375 
Q 32.5625 64.65625 27.59375 64.65625 
Q 22.5625 64.65625 19.234375 61.421875 
Q 15.921875 58.203125 15.921875 53.71875 
z
M 13.09375 20.65625 
Q 13.09375 16.890625 14.875 13.375 
Q 16.65625 9.859375 20.171875 7.921875 
Q 23.6875 6 27.734375 6 
Q 34.03125 6 38.125 10.046875 
Q 42.234375 14.109375 42.234375 20.359375 
Q 42.234375 26.703125 38.015625 30.859375 
Q 33.796875 35.015625 27.4375 35.015625 
Q 21.234375 35.015625 17.15625 30.90625 
Q 13.09375 26.8125 13.09375 20.65625 
z
" id="ArialMT-38"/>
      </defs>
      <g style="fill:#262626;" transform="translate(95.99603 116.793594)scale(0.11 -0.11)">
       <use xlink:href="#ArialMT-38"/>
      </g>
     </g>
    </g>
    <g id="xtick_5">
     <g id="line2d_5">
      <g>
       <use style="fill:#262626;stroke:#262626;stroke-width:0.8;" x="113.003636" xlink:href="#mf02c851894" y="101.92"/>
      </g>
     </g>
     <g id="text_5">
      <!-- 10 -->
      <defs>
       <path d="M 37.25 0 
L 28.46875 0 
L 28.46875 56 
Q 25.296875 52.984375 20.140625 49.953125 
Q 14.984375 46.921875 10.890625 45.40625 
L 10.890625 53.90625 
Q 18.265625 57.375 23.78125 62.296875 
Q 29.296875 67.234375 31.59375 71.875 
L 37.25 71.875 
z
" id="ArialMT-31"/>
       <path d="M 4.15625 35.296875 
Q 4.15625 48 6.765625 55.734375 
Q 9.375 63.484375 14.515625 67.671875 
Q 19.671875 71.875 27.484375 71.875 
Q 33.25 71.875 37.59375 69.546875 
Q 41.9375 67.234375 44.765625 62.859375 
Q 47.609375 58.5 49.21875 52.21875 
Q 50.828125 45.953125 50.828125 35.296875 
Q 50.828125 22.703125 48.234375 14.96875 
Q 45.65625 7.234375 40.5 3 
Q 35.359375 -1.21875 27.484375 -1.21875 
Q 17.140625 -1.21875 11.234375 6.203125 
Q 4.15625 15.140625 4.15625 35.296875 
z
M 13.1875 35.296875 
Q 13.1875 17.671875 17.3125 11.828125 
Q 21.4375 6 27.484375 6 
Q 33.546875 6 37.671875 11.859375 
Q 41.796875 17.71875 41.796875 35.296875 
Q 41.796875 52.984375 37.671875 58.78125 
Q 33.546875 64.59375 27.390625 64.59375 
Q 21.34375 64.59375 17.71875 59.46875 
Q 13.1875 52.9375 13.1875 35.296875 
z
" id="ArialMT-30"/>
      </defs>
      <g style="fill:#262626;" transform="translate(106.886605 116.793594)scale(0.11 -0.11)">
       <use xlink:href="#ArialMT-31"/>
       <use x="55.615234" xlink:href="#ArialMT-30"/>
      </g>
     </g>
    </g>
    <g id="xtick_6">
     <g id="line2d_6">
      <g>
       <use style="fill:#262626;stroke:#262626;stroke-width:0.8;" x="126.952727" xlink:href="#mf02c851894" y="101.92"/>
      </g>
     </g>
     <g id="text_6">
      <!-- 12 -->
      <g style="fill:#262626;" transform="translate(120.835696 116.793594)scale(0.11 -0.11)">
       <use xlink:href="#ArialMT-31"/>
       <use x="55.615234" xlink:href="#ArialMT-32"/>
      </g>
     </g>
    </g>
    <g id="text_7">
     <!-- pH -->
     <defs>
      <path d="M 6.59375 -19.875 
L 6.59375 51.859375 
L 14.59375 51.859375 
L 14.59375 45.125 
Q 17.4375 49.078125 21 51.046875 
Q 24.5625 53.03125 29.640625 53.03125 
Q 36.28125 53.03125 41.359375 49.609375 
Q 46.4375 46.1875 49.015625 39.953125 
Q 51.609375 33.734375 51.609375 26.3125 
Q 51.609375 18.359375 48.75 11.984375 
Q 45.90625 5.609375 40.453125 2.21875 
Q 35.015625 -1.171875 29 -1.171875 
Q 24.609375 -1.171875 21.109375 0.6875 
Q 17.625 2.546875 15.375 5.375 
L 15.375 -19.875 
z
M 14.546875 25.640625 
Q 14.546875 15.625 18.59375 10.84375 
Q 22.65625 6.0625 28.421875 6.0625 
Q 34.28125 6.0625 38.453125 11.015625 
Q 42.625 15.96875 42.625 26.375 
Q 42.625 36.28125 38.546875 41.203125 
Q 34.46875 46.140625 28.8125 46.140625 
Q 23.1875 46.140625 18.859375 40.890625 
Q 14.546875 35.640625 14.546875 25.640625 
z
" id="ArialMT-70"/>
      <path d="M 8.015625 0 
L 8.015625 71.578125 
L 17.484375 71.578125 
L 17.484375 42.1875 
L 54.6875 42.1875 
L 54.6875 71.578125 
L 64.15625 71.578125 
L 64.15625 0 
L 54.6875 0 
L 54.6875 33.734375 
L 17.484375 33.734375 
L 17.484375 0 
z
" id="ArialMT-48"/>
     </defs>
     <g style="fill:#262626;" transform="translate(85.049453 130.853437)scale(0.11 -0.11)">
      <use xlink:href="#ArialMT-70"/>
      <use x="55.615234" xlink:href="#ArialMT-48"/>
     </g>
    </g>
   </g>
   <g id="matplotlib.axis_2">
    <g id="ytick_1">
     <g id="line2d_7">
      <defs>
       <path d="M 0 0 
L -3.5 0 
" id="m2f0ad69bc5" style="stroke:#262626;stroke-width:0.8;"/>
      </defs>
      <g>
       <use style="fill:#262626;stroke:#262626;stroke-width:0.8;" x="53.72" xlink:href="#m2f0ad69bc5" y="95.962885"/>
      </g>
     </g>
     <g id="text_8">
      <!-- 0 -->
      <g style="fill:#262626;" transform="translate(40.602969 99.899682)scale(0.11 -0.11)">
       <use xlink:href="#ArialMT-30"/>
      </g>
     </g>
    </g>
    <g id="ytick_2">
     <g id="line2d_8">
      <g>
       <use style="fill:#262626;stroke:#262626;stroke-width:0.8;" x="53.72" xlink:href="#m2f0ad69bc5" y="61.980409"/>
      </g>
     </g>
     <g id="text_9">
      <!-- 50 -->
      <defs>
       <path d="M 4.15625 18.75 
L 13.375 19.53125 
Q 14.40625 12.796875 18.140625 9.390625 
Q 21.875 6 27.15625 6 
Q 33.5 6 37.890625 10.78125 
Q 42.28125 15.578125 42.28125 23.484375 
Q 42.28125 31 38.0625 35.34375 
Q 33.84375 39.703125 27 39.703125 
Q 22.75 39.703125 19.328125 37.765625 
Q 15.921875 35.84375 13.96875 32.765625 
L 5.71875 33.84375 
L 12.640625 70.609375 
L 48.25 70.609375 
L 48.25 62.203125 
L 19.671875 62.203125 
L 15.828125 42.96875 
Q 22.265625 47.46875 29.34375 47.46875 
Q 38.71875 47.46875 45.15625 40.96875 
Q 51.609375 34.46875 51.609375 24.265625 
Q 51.609375 14.546875 45.953125 7.46875 
Q 39.0625 -1.21875 27.15625 -1.21875 
Q 17.390625 -1.21875 11.203125 4.25 
Q 5.03125 9.71875 4.15625 18.75 
z
" id="ArialMT-35"/>
      </defs>
      <g style="fill:#262626;" transform="translate(34.485938 65.917206)scale(0.11 -0.11)">
       <use xlink:href="#ArialMT-35"/>
       <use x="55.615234" xlink:href="#ArialMT-30"/>
      </g>
     </g>
    </g>
    <g id="ytick_3">
     <g id="line2d_9">
      <g>
       <use style="fill:#262626;stroke:#262626;stroke-width:0.8;" x="53.72" xlink:href="#m2f0ad69bc5" y="27.997932"/>
      </g>
     </g>
     <g id="text_10">
      <!-- 100 -->
      <g style="fill:#262626;" transform="translate(28.368906 31.934729)scale(0.11 -0.11)">
       <use xlink:href="#ArialMT-31"/>
       <use x="55.615234" xlink:href="#ArialMT-30"/>
       <use x="111.230469" xlink:href="#ArialMT-30"/>
      </g>
     </g>
    </g>
    <g id="text_11">
     <!-- Free energy ($k_B T$) -->
     <defs>
      <path d="M 8.203125 0 
L 8.203125 71.578125 
L 56.5 71.578125 
L 56.5 63.140625 
L 17.671875 63.140625 
L 17.671875 40.96875 
L 51.265625 40.96875 
L 51.265625 32.515625 
L 17.671875 32.515625 
L 17.671875 0 
z
" id="ArialMT-46"/>
      <path d="M 6.5 0 
L 6.5 51.859375 
L 14.40625 51.859375 
L 14.40625 44 
Q 17.4375 49.515625 20 51.265625 
Q 22.5625 53.03125 25.640625 53.03125 
Q 30.078125 53.03125 34.671875 50.203125 
L 31.640625 42.046875 
Q 28.421875 43.953125 25.203125 43.953125 
Q 22.3125 43.953125 20.015625 42.21875 
Q 17.71875 40.484375 16.75 37.40625 
Q 15.28125 32.71875 15.28125 27.15625 
L 15.28125 0 
z
" id="ArialMT-72"/>
      <path d="M 42.09375 16.703125 
L 51.171875 15.578125 
Q 49.03125 7.625 43.21875 3.21875 
Q 37.40625 -1.171875 28.375 -1.171875 
Q 17 -1.171875 10.328125 5.828125 
Q 3.65625 12.84375 3.65625 25.484375 
Q 3.65625 38.578125 10.390625 45.796875 
Q 17.140625 53.03125 27.875 53.03125 
Q 38.28125 53.03125 44.875 45.953125 
Q 51.46875 38.875 51.46875 26.03125 
Q 51.46875 25.25 51.421875 23.6875 
L 12.75 23.6875 
Q 13.234375 15.140625 17.578125 10.59375 
Q 21.921875 6.0625 28.421875 6.0625 
Q 33.25 6.0625 36.671875 8.59375 
Q 40.09375 11.140625 42.09375 16.703125 
z
M 13.234375 30.90625 
L 42.1875 30.90625 
Q 41.609375 37.453125 38.875 40.71875 
Q 34.671875 45.796875 27.984375 45.796875 
Q 21.921875 45.796875 17.796875 41.75 
Q 13.671875 37.703125 13.234375 30.90625 
z
" id="ArialMT-65"/>
      <path id="ArialMT-20"/>
      <path d="M 6.59375 0 
L 6.59375 51.859375 
L 14.5 51.859375 
L 14.5 44.484375 
Q 20.21875 53.03125 31 53.03125 
Q 35.6875 53.03125 39.625 51.34375 
Q 43.5625 49.65625 45.515625 46.921875 
Q 47.46875 44.1875 48.25 40.4375 
Q 48.734375 37.984375 48.734375 31.890625 
L 48.734375 0 
L 39.9375 0 
L 39.9375 31.546875 
Q 39.9375 36.921875 38.90625 39.578125 
Q 37.890625 42.234375 35.28125 43.8125 
Q 32.671875 45.40625 29.15625 45.40625 
Q 23.53125 45.40625 19.453125 41.84375 
Q 15.375 38.28125 15.375 28.328125 
L 15.375 0 
z
" id="ArialMT-6e"/>
      <path d="M 4.984375 -4.296875 
L 13.53125 -5.5625 
Q 14.0625 -9.515625 16.5 -11.328125 
Q 19.78125 -13.765625 25.4375 -13.765625 
Q 31.546875 -13.765625 34.859375 -11.328125 
Q 38.1875 -8.890625 39.359375 -4.5 
Q 40.046875 -1.8125 39.984375 6.78125 
Q 34.234375 0 25.640625 0 
Q 14.9375 0 9.078125 7.71875 
Q 3.21875 15.4375 3.21875 26.21875 
Q 3.21875 33.640625 5.90625 39.90625 
Q 8.59375 46.1875 13.6875 49.609375 
Q 18.796875 53.03125 25.6875 53.03125 
Q 34.859375 53.03125 40.828125 45.609375 
L 40.828125 51.859375 
L 48.921875 51.859375 
L 48.921875 7.03125 
Q 48.921875 -5.078125 46.453125 -10.125 
Q 44 -15.1875 38.640625 -18.109375 
Q 33.296875 -21.046875 25.484375 -21.046875 
Q 16.21875 -21.046875 10.5 -16.875 
Q 4.78125 -12.703125 4.984375 -4.296875 
z
M 12.25 26.859375 
Q 12.25 16.65625 16.296875 11.96875 
Q 20.359375 7.28125 26.46875 7.28125 
Q 32.515625 7.28125 36.609375 11.9375 
Q 40.71875 16.609375 40.71875 26.5625 
Q 40.71875 36.078125 36.5 40.90625 
Q 32.28125 45.75 26.3125 45.75 
Q 20.453125 45.75 16.34375 40.984375 
Q 12.25 36.234375 12.25 26.859375 
z
" id="ArialMT-67"/>
      <path d="M 6.203125 -19.96875 
L 5.21875 -11.71875 
Q 8.109375 -12.5 10.25 -12.5 
Q 13.1875 -12.5 14.9375 -11.515625 
Q 16.703125 -10.546875 17.828125 -8.796875 
Q 18.65625 -7.46875 20.515625 -2.25 
Q 20.75 -1.515625 21.296875 -0.09375 
L 1.609375 51.859375 
L 11.078125 51.859375 
L 21.875 21.828125 
Q 23.96875 16.109375 25.640625 9.8125 
Q 27.15625 15.875 29.25 21.625 
L 40.328125 51.859375 
L 49.125 51.859375 
L 29.390625 -0.875 
Q 26.21875 -9.421875 24.46875 -12.640625 
Q 22.125 -17 19.09375 -19.015625 
Q 16.0625 -21.046875 11.859375 -21.046875 
Q 9.328125 -21.046875 6.203125 -19.96875 
z
" id="ArialMT-79"/>
      <path d="M 23.390625 -21.046875 
Q 16.109375 -11.859375 11.078125 0.4375 
Q 6.0625 12.75 6.0625 25.921875 
Q 6.0625 37.546875 9.8125 48.1875 
Q 14.203125 60.546875 23.390625 72.796875 
L 29.6875 72.796875 
Q 23.78125 62.640625 21.875 58.296875 
Q 18.890625 51.5625 17.1875 44.234375 
Q 15.09375 35.109375 15.09375 25.875 
Q 15.09375 2.390625 29.6875 -21.046875 
z
" id="ArialMT-28"/>
      <path d="M 18.3125 75.984375 
L 27.296875 75.984375 
L 18.703125 31.6875 
L 49.515625 54.6875 
L 61.1875 54.6875 
L 26.8125 28.515625 
L 51.90625 0 
L 41.015625 0 
L 17.671875 26.703125 
L 12.5 0 
L 3.515625 0 
z
" id="DejaVuSans-Oblique-6b"/>
      <path d="M 16.890625 72.90625 
L 42.09375 72.90625 
Q 52.34375 72.90625 57.421875 69.09375 
Q 62.5 65.28125 62.5 57.625 
Q 62.5 50.59375 58.125 45.484375 
Q 53.765625 40.375 46.6875 39.3125 
Q 52.734375 37.9375 55.765625 34.078125 
Q 58.796875 30.21875 58.796875 23.78125 
Q 58.796875 12.796875 50.65625 6.390625 
Q 42.53125 0 28.421875 0 
L 2.6875 0 
z
M 19.28125 34.8125 
L 14.109375 8.109375 
L 29.984375 8.109375 
Q 38.921875 8.109375 43.75 12.203125 
Q 48.578125 16.3125 48.578125 23.78125 
Q 48.578125 29.546875 45.375 32.171875 
Q 42.1875 34.8125 35.109375 34.8125 
z
M 25.09375 64.796875 
L 20.796875 42.828125 
L 35.5 42.828125 
Q 43.359375 42.828125 47.78125 46.234375 
Q 52.203125 49.65625 52.203125 55.71875 
Q 52.203125 60.453125 49.21875 62.625 
Q 46.234375 64.796875 39.703125 64.796875 
z
" id="DejaVuSans-Oblique-42"/>
      <path d="M 5.90625 72.90625 
L 67.578125 72.90625 
L 66.015625 64.59375 
L 39.984375 64.59375 
L 27.484375 0 
L 17.578125 0 
L 30.078125 64.59375 
L 4.296875 64.59375 
z
" id="DejaVuSans-Oblique-54"/>
      <path d="M 12.359375 -21.046875 
L 6.0625 -21.046875 
Q 20.65625 2.390625 20.65625 25.875 
Q 20.65625 35.0625 18.5625 44.09375 
Q 16.890625 51.421875 13.921875 58.15625 
Q 12.015625 62.546875 6.0625 72.796875 
L 12.359375 72.796875 
Q 21.53125 60.546875 25.921875 48.1875 
Q 29.6875 37.546875 29.6875 25.921875 
Q 29.6875 12.75 24.625 0.4375 
Q 19.578125 -11.859375 12.359375 -21.046875 
z
" id="ArialMT-29"/>
     </defs>
     <g style="fill:#262626;" transform="translate(21.948906 101.96)rotate(-90)scale(0.11 -0.11)">
      <use transform="translate(0 0.015625)" xlink:href="#ArialMT-46"/>
      <use transform="translate(61.083984 0.015625)" xlink:href="#ArialMT-72"/>
      <use transform="translate(94.384766 0.015625)" xlink:href="#ArialMT-65"/>
      <use transform="translate(150 0.015625)" xlink:href="#ArialMT-65"/>
      <use transform="translate(205.615234 0.015625)" xlink:href="#ArialMT-20"/>
      <use transform="translate(233.398438 0.015625)" xlink:href="#ArialMT-65"/>
      <use transform="translate(289.013672 0.015625)" xlink:href="#ArialMT-6e"/>
      <use transform="translate(344.628906 0.015625)" xlink:href="#ArialMT-65"/>
      <use transform="translate(400.244141 0.015625)" xlink:href="#ArialMT-72"/>
      <use transform="translate(433.544922 0.015625)" xlink:href="#ArialMT-67"/>
      <use transform="translate(489.160156 0.015625)" xlink:href="#ArialMT-79"/>
      <use transform="translate(539.160156 0.015625)" xlink:href="#ArialMT-20"/>
      <use transform="translate(566.943359 0.015625)" xlink:href="#ArialMT-28"/>
      <use transform="translate(600.244141 0.015625)" xlink:href="#DejaVuSans-Oblique-6b"/>
      <use transform="translate(658.154297 -16.390625)scale(0.7)" xlink:href="#DejaVuSans-Oblique-42"/>
      <use transform="translate(708.911133 0.015625)" xlink:href="#DejaVuSans-Oblique-54"/>
      <use transform="translate(769.995117 0.015625)" xlink:href="#ArialMT-29"/>
     </g>
    </g>
   </g>
   <g id="patch_3">
    <path d="M 53.72 101.92 
L 53.72 13.56 
" style="fill:none;stroke:#262626;stroke-linecap:square;stroke-linejoin:miter;stroke-width:0.8;"/>
   </g>
   <g id="patch_4">
    <path d="M 53.72 101.92 
L 130.44 101.92 
" style="fill:none;stroke:#262626;stroke-linecap:square;stroke-linejoin:miter;stroke-width:0.8;"/>
   </g>
   <g id="line2d_10">
    <path clip-path="url(#pb5cb988f4e)" d="M 57.207273 64.52489 
L 57.904727 64.055404 
L 58.602182 63.585919 
L 59.299636 63.116434 
L 59.997091 62.646949 
L 60.694545 62.177463 
L 61.392 61.707978 
L 62.089455 61.238493 
L 62.786909 60.769008 
L 63.484364 60.299522 
L 64.181818 59.830037 
L 64.879273 59.360552 
L 65.576727 58.891067 
L 66.274182 58.421581 
L 66.971636 57.952096 
L 67.669091 57.482611 
L 68.366545 57.013126 
L 69.064 56.54364 
L 69.761455 56.074155 
L 70.458909 55.60467 
L 71.156364 55.135184 
L 71.853818 54.665699 
L 72.551273 54.196214 
L 73.248727 53.726729 
L 73.946182 53.257243 
L 74.643636 52.787758 
L 75.341091 52.318273 
L 76.038545 51.848788 
L 76.736 51.379302 
L 77.433455 50.909817 
L 78.130909 50.440332 
L 78.828364 49.970847 
L 79.525818 49.501361 
L 80.223273 49.031876 
L 80.920727 48.562391 
L 81.618182 48.092906 
L 82.315636 47.62342 
L 83.013091 47.153935 
L 83.710545 46.68445 
L 84.408 46.214965 
L 85.105455 45.745479 
L 85.802909 45.275994 
L 86.500364 44.806509 
L 87.197818 44.337023 
L 87.895273 43.867538 
L 88.592727 43.398053 
L 89.290182 42.928568 
L 89.987636 42.459082 
L 90.685091 41.989597 
L 91.382545 41.520112 
L 92.08 41.050627 
L 92.777455 40.581141 
L 93.474909 40.111656 
L 94.172364 39.642171 
L 94.869818 39.172686 
L 95.567273 38.7032 
L 96.264727 38.233715 
L 96.962182 37.76423 
L 97.659636 37.294745 
L 98.357091 36.825259 
L 99.054545 36.355774 
L 99.752 35.886289 
L 100.449455 35.416804 
L 101.146909 34.947318 
L 101.844364 34.477833 
L 102.541818 34.008348 
L 103.239273 33.538862 
L 103.936727 33.069377 
L 104.634182 32.599892 
L 105.331636 32.130407 
L 106.029091 31.660921 
L 106.726545 31.191436 
L 107.424 30.721951 
L 108.121455 30.252466 
L 108.818909 29.78298 
L 109.516364 29.313495 
L 110.213818 28.84401 
L 110.911273 28.374525 
L 111.608727 27.905039 
L 112.306182 27.435554 
L 113.003636 26.966069 
L 113.701091 26.496584 
L 114.398545 26.027098 
L 115.096 25.557613 
L 115.793455 25.088128 
L 116.490909 24.618643 
L 117.188364 24.149157 
L 117.885818 23.679672 
L 118.583273 23.210187 
L 119.280727 22.740701 
L 119.978182 22.271216 
L 120.675636 21.801731 
L 121.373091 21.332246 
L 122.070545 20.86276 
L 122.768 20.393275 
L 123.465455 19.92379 
L 124.162909 19.454305 
L 124.860364 18.984819 
L 125.557818 18.515334 
L 126.255273 18.045849 
L 126.952727 17.576364 
" style="fill:none;stroke:#2166ac;stroke-linecap:round;stroke-width:1.5;"/>
   </g>
   <g id="line2d_11">
    <path clip-path="url(#pb5cb988f4e)" d="M 57.207273 92.252426 
L 57.904727 91.939436 
L 58.602182 91.626446 
L 59.299636 91.313455 
L 59.997091 91.000465 
L 60.694545 90.687475 
L 61.392 90.374485 
L 62.089455 90.061495 
L 62.786909 89.748505 
L 63.484364 89.435514 
L 64.181818 89.122524 
L 64.879273 88.809534 
L 65.576727 88.496544 
L 66.274182 88.183554 
L 66.971636 87.870564 
L 67.669091 87.557573 
L 68.366545 87.244583 
L 69.064 86.931593 
L 69.761455 86.618603 
L 70.458909 86.305613 
L 71.156364 85.992622 
L 71.853818 85.679632 
L 72.551273 85.366642 
L 73.248727 85.053652 
L 73.946182 84.740662 
L 74.643636 84.427672 
L 75.341091 84.114681 
L 76.038545 83.801691 
L 76.736 83.488701 
L 77.433455 83.175711 
L 78.130909 82.862721 
L 78.828364 82.549731 
L 79.525818 82.23674 
L 80.223273 81.92375 
L 80.920727 81.61076 
L 81.618182 81.29777 
L 82.315636 80.98478 
L 83.013091 80.67179 
L 83.710545 80.358799 
L 84.408 80.045809 
L 85.105455 79.732819 
L 85.802909 79.419829 
L 86.500364 79.106839 
L 87.197818 78.793848 
L 87.895273 78.480858 
L 88.592727 78.167868 
L 89.290182 77.854878 
L 89.987636 77.541888 
L 90.685091 77.228898 
L 91.382545 76.915907 
L 92.08 76.602917 
L 92.777455 76.289927 
L 93.474909 75.976937 
L 94.172364 75.663947 
L 94.869818 75.350957 
L 95.567273 75.037966 
L 96.264727 74.724976 
L 96.962182 74.411986 
L 97.659636 74.098996 
L 98.357091 73.786006 
L 99.054545 73.473016 
L 99.752 73.160025 
L 100.449455 72.847035 
L 101.146909 72.534045 
L 101.844364 72.221055 
L 102.541818 71.908065 
L 103.239273 71.595075 
L 103.936727 71.282084 
L 104.634182 70.969094 
L 105.331636 70.656104 
L 106.029091 70.343114 
L 106.726545 70.030124 
L 107.424 69.717133 
L 108.121455 69.404143 
L 108.818909 69.091153 
L 109.516364 68.778163 
L 110.213818 68.465173 
L 110.911273 68.152183 
L 111.608727 67.839192 
L 112.306182 67.526202 
L 113.003636 67.213212 
L 113.701091 66.900222 
L 114.398545 66.587232 
L 115.096 66.274242 
L 115.793455 65.961251 
L 116.490909 65.648261 
L 117.188364 65.335271 
L 117.885818 65.022281 
L 118.583273 64.709291 
L 119.280727 64.396301 
L 119.978182 64.08331 
L 120.675636 63.77032 
L 121.373091 63.45733 
L 122.070545 63.14434 
L 122.768 62.83135 
L 123.465455 62.518359 
L 124.162909 62.205369 
L 124.860364 61.892379 
L 125.557818 61.579389 
L 126.255273 61.266399 
L 126.952727 60.953409 
" style="fill:none;stroke:#4393c3;stroke-linecap:round;stroke-width:1.5;"/>
   </g>
   <g id="line2d_12">
    <path clip-path="url(#pb5cb988f4e)" d="M 57.207273 97.903636 
L 57.904727 97.747141 
L 58.602182 97.590646 
L 59.299636 97.434151 
L 59.997091 97.277656 
L 60.694545 97.121161 
L 61.392 96.964666 
L 62.089455 96.808171 
L 62.786909 96.651676 
L 63.484364 96.495181 
L 64.181818 96.338685 
L 64.879273 96.18219 
L 65.576727 96.025695 
L 66.274182 95.8692 
L 66.971636 95.712705 
L 67.669091 95.55621 
L 68.366545 95.399715 
L 69.064 95.24322 
L 69.761455 95.086725 
L 70.458909 94.93023 
L 71.156364 94.773735 
L 71.853818 94.61724 
L 72.551273 94.460744 
L 73.248727 94.304249 
L 73.946182 94.147754 
L 74.643636 93.991259 
L 75.341091 93.834764 
L 76.038545 93.678269 
L 76.736 93.521774 
L 77.433455 93.365279 
L 78.130909 93.208784 
L 78.828364 93.052289 
L 79.525818 92.895794 
L 80.223273 92.739298 
L 80.920727 92.582803 
L 81.618182 92.426308 
L 82.315636 92.269813 
L 83.013091 92.113318 
L 83.710545 91.956823 
L 84.408 91.800328 
L 85.105455 91.643833 
L 85.802909 91.487338 
L 86.500364 91.330843 
L 87.197818 91.174348 
L 87.895273 91.017853 
L 88.592727 90.861357 
L 89.290182 90.704862 
L 89.987636 90.548367 
L 90.685091 90.391872 
L 91.382545 90.235377 
L 92.08 90.078882 
L 92.777455 89.922387 
L 93.474909 89.765892 
L 94.172364 89.609397 
L 94.869818 89.452902 
L 95.567273 89.296407 
L 96.264727 89.139912 
L 96.962182 88.983416 
L 97.659636 88.826921 
L 98.357091 88.670426 
L 99.054545 88.513931 
L 99.752 88.357436 
L 100.449455 88.200941 
L 101.146909 88.044446 
L 101.844364 87.887951 
L 102.541818 87.731456 
L 103.239273 87.574961 
L 103.936727 87.418466 
L 104.634182 87.26197 
L 105.331636 87.105475 
L 106.029091 86.94898 
L 106.726545 86.792485 
L 107.424 86.63599 
L 108.121455 86.479495 
L 108.818909 86.323 
L 109.516364 86.166505 
L 110.213818 86.01001 
L 110.911273 85.853515 
L 111.608727 85.69702 
L 112.306182 85.540525 
L 113.003636 85.384029 
L 113.701091 85.227534 
L 114.398545 85.071039 
L 115.096 84.914544 
L 115.793455 84.758049 
L 116.490909 84.601554 
L 117.188364 84.445059 
L 117.885818 84.288564 
L 118.583273 84.132069 
L 119.280727 83.975574 
L 119.978182 83.819079 
L 120.675636 83.662583 
L 121.373091 83.506088 
L 122.070545 83.349593 
L 122.768 83.193098 
L 123.465455 83.036603 
L 124.162909 82.880108 
L 124.860364 82.723613 
L 125.557818 82.567118 
L 126.255273 82.410623 
L 126.952727 82.254128 
" style="fill:none;stroke:#92c5de;stroke-linecap:round;stroke-width:1.5;"/>
   </g>
   <g id="line2d_13">
    <path clip-path="url(#pb5cb988f4e)" d="M 57.207273 95.962885 
L 57.904727 95.962885 
L 58.602182 95.962885 
L 59.299636 95.962885 
L 59.997091 95.962885 
L 60.694545 95.962885 
L 61.392 95.962885 
L 62.089455 95.962885 
L 62.786909 95.962885 
L 63.484364 95.962885 
L 64.181818 95.962885 
L 64.879273 95.962885 
L 65.576727 95.962885 
L 66.274182 95.962885 
L 66.971636 95.962885 
L 67.669091 95.962885 
L 68.366545 95.962885 
L 69.064 95.962885 
L 69.761455 95.962885 
L 70.458909 95.962885 
L 71.156364 95.962885 
L 71.853818 95.962885 
L 72.551273 95.962885 
L 73.248727 95.962885 
L 73.946182 95.962885 
L 74.643636 95.962885 
L 75.341091 95.962885 
L 76.038545 95.962885 
L 76.736 95.962885 
L 77.433455 95.962885 
L 78.130909 95.962885 
L 78.828364 95.962885 
L 79.525818 95.962885 
L 80.223273 95.962885 
L 80.920727 95.962885 
L 81.618182 95.962885 
L 82.315636 95.962885 
L 83.013091 95.962885 
L 83.710545 95.962885 
L 84.408 95.962885 
L 85.105455 95.962885 
L 85.802909 95.962885 
L 86.500364 95.962885 
L 87.197818 95.962885 
L 87.895273 95.962885 
L 88.592727 95.962885 
L 89.290182 95.962885 
L 89.987636 95.962885 
L 90.685091 95.962885 
L 91.382545 95.962885 
L 92.08 95.962885 
L 92.777455 95.962885 
L 93.474909 95.962885 
L 94.172364 95.962885 
L 94.869818 95.962885 
L 95.567273 95.962885 
L 96.264727 95.962885 
L 96.962182 95.962885 
L 97.659636 95.962885 
L 98.357091 95.962885 
L 99.054545 95.962885 
L 99.752 95.962885 
L 100.449455 95.962885 
L 101.146909 95.962885 
L 101.844364 95.962885 
L 102.541818 95.962885 
L 103.239273 95.962885 
L 103.936727 95.962885 
L 104.634182 95.962885 
L 105.331636 95.962885 
L 106.029091 95.962885 
L 106.726545 95.962885 
L 107.424 95.962885 
L 108.121455 95.962885 
L 108.818909 95.962885 
L 109.516364 95.962885 
L 110.213818 95.962885 
L 110.911273 95.962885 
L 111.608727 95.962885 
L 112.306182 95.962885 
L 113.003636 95.962885 
L 113.701091 95.962885 
L 114.398545 95.962885 
L 115.096 95.962885 
L 115.793455 95.962885 
L 116.490909 95.962885 
L 117.188364 95.962885 
L 117.885818 95.962885 
L 118.583273 95.962885 
L 119.280727 95.962885 
L 119.978182 95.962885 
L 120.675636 95.962885 
L 121.373091 95.962885 
L 122.070545 95.962885 
L 122.768 95.962885 
L 123.465455 95.962885 
L 124.162909 95.962885 
L 124.860364 95.962885 
L 125.557818 95.962885 
L 126.255273 95.962885 
L 126.952727 95.962885 
" style="fill:none;stroke:#333333;stroke-linecap:round;stroke-width:1.5;"/>
   </g>
  </g>
 </g>
 <defs>
  <clipPath id="pb5cb988f4e">
   <rect height="88.36" width="76.72" x="53.72" y="13.56"/>
  </clipPath>
 </defs>
</svg>
