<?xml version="1.0" encoding="utf-8" standalone="no"?>
<!DOCTYPE svg PUBLIC "-//W3C//DTD SVG 1.1//EN"
  "http://www.w3.org/Graphics/SVG/1.1/DTD/svg11.dtd">
<!-- Created with matplotlib (http://matplotlib.org/) -->
<svg height="144pt" version="1.1" viewBox="0 0 144 144" width="144pt" xmlns="http://www.w3.org/2000/svg" xmlns:xlink="http://www.w3.org/1999/xlink">
 <defs>
  <style type="text/css">
*{stroke-linecap:butt;stroke-linejoin:round;}
  </style>
 </defs>
 <g id="figure_1">
  <g id="patch_1">
   <path d="M 0 144 
L 144 144 
L 144 0 
L 0 0 
z
" style="fill:#ffffff;"/>
  </g>
  <g id="axes_1">
   <g id="patch_2">
    <path d="M 48.38 101.92 
L 130.44 101.92 
L 130.44 27.48 
L 48.38 27.48 
z
" style="fill:#ffffff;"/>
   </g>
   <g id="matplotlib.axis_1">
    <g id="xtick_1">
     <g id="line2d_1">
      <defs>
       <path d="M 0 0 
L 0 3.5 
" id="mda1100615f" style="stroke:#262626;stroke-width:0.8;"/>
      </defs>
      <g>
       <use style="fill:#262626;stroke:#262626;stroke-width:0.8;" x="52.11" xlink:href="#mda1100615f" y="101.92"/>
      </g>
     </g>
     <g id="text_1">
      <!-- 2 -->
      <defs>
       <path d="M 50.34375 8.453125 
L 50.34375 0 
L 3.03125 0 
Q 2.9375 3.171875 4.046875 6.109375 
Q 5.859375 10.9375 9.828125 15.625 
Q 13.8125 20.3125 21.34375 26.46875 
Q 33.015625 36.03125 37.109375 41.625 
Q 41.21875 47.21875 41.21875 52.203125 
Q 41.21875 57.421875 37.46875 61 
Q 33.734375 64.59375 27.734375 64.59375 
Q 21.390625 64.59375 17.578125 60.78125 
Q 13.765625 56.984375 13.71875 50.25 
L 4.6875 51.171875 
Q 5.609375 61.28125 11.65625 66.578125 
Q 17.71875 71.875 27.9375 71.875 
Q 38.234375 71.875 44.234375 66.15625 
Q 50.25 60.453125 50.25 52 
Q 50.25 47.703125 48.484375 43.546875 
Q 46.734375 39.40625 42.65625 34.8125 
Q 38.578125 30.21875 29.109375 22.21875 
Q 21.1875 15.578125 18.9375 13.203125 
Q 16.703125 10.84375 15.234375 8.453125 
z
" id="ArialMT-32"/>
      </defs>
      <g style="fill:#262626;" transform="translate(49.051484 116.793594)scale(0.11 -0.11)">
       <use xlink:href="#ArialMT-32"/>
      </g>
     </g>
    </g>
    <g id="xtick_2">
     <g id="line2d_2">
      <g>
       <use style="fill:#262626;stroke:#262626;stroke-width:0.8;" x="67.03" xlink:href="#mda1100615f" y="101.92"/>
      </g>
     </g>
     <g id="text_2">
      <!-- 4 -->
      <defs>
       <path d="M 32.328125 0 
L 32.328125 17.140625 
L 1.265625 17.140625 
L 1.265625 25.203125 
L 33.9375 71.578125 
L 41.109375 71.578125 
L 41.109375 25.203125 
L 50.78125 25.203125 
L 50.78125 17.140625 
L 41.109375 17.140625 
L 41.109375 0 
z
M 32.328125 25.203125 
L 32.328125 57.46875 
L 9.90625 25.203125 
z
" id="ArialMT-34"/>
      </defs>
      <g style="fill:#262626;" transform="translate(63.971484 116.793594)scale(0.11 -0.11)">
       <use xlink:href="#ArialMT-34"/>
      </g>
     </g>
    </g>
    <g id="xtick_3">
     <g id="line2d_3">
      <g>
       <use style="fill:#262626;stroke:#262626;stroke-width:0.8;" x="81.95" xlink:href="#mda1100615f" y="101.92"/>
      </g>
     </g>
     <g id="text_3">
      <!-- 6 -->
      <defs>
       <path d="M 49.75 54.046875 
L 41.015625 53.375 
Q 39.84375 58.546875 37.703125 60.890625 
Q 34.125 64.65625 28.90625 64.65625 
Q 24.703125 64.65625 21.53125 62.3125 
Q 17.390625 59.28125 14.984375 53.46875 
Q 12.59375 47.65625 12.5 36.921875 
Q 15.671875 41.75 20.265625 44.09375 
Q 24.859375 46.4375 29.890625 46.4375 
Q 38.671875 46.4375 44.84375 39.96875 
Q 51.03125 33.5 51.03125 23.25 
Q 51.03125 16.5 48.125 10.71875 
Q 45.21875 4.9375 40.140625 1.859375 
Q 35.0625 -1.21875 28.609375 -1.21875 
Q 17.625 -1.21875 10.6875 6.859375 
Q 3.765625 14.9375 3.765625 33.5 
Q 3.765625 54.25 11.421875 63.671875 
Q 18.109375 71.875 29.4375 71.875 
Q 37.890625 71.875 43.28125 67.140625 
Q 48.6875 62.40625 49.75 54.046875 
z
M 13.875 23.1875 
Q 13.875 18.65625 15.796875 14.5 
Q 17.71875 10.359375 21.1875 8.171875 
Q 24.65625 6 28.46875 6 
Q 34.03125 6 38.03125 10.484375 
Q 42.046875 14.984375 42.046875 22.703125 
Q 42.046875 30.125 38.078125 34.390625 
Q 34.125 38.671875 28.125 38.671875 
Q 22.171875 38.671875 18.015625 34.390625 
Q 13.875 30.125 13.875 23.1875 
z
" id="ArialMT-36"/>
      </defs>
      <g style="fill:#262626;" transform="translate(78.891484 116.793594)scale(0.11 -0.11)">
       <use xlink:href="#ArialMT-36"/>
      </g>
     </g>
    </g>
    <g id="xtick_4">
     <g id="line2d_4">
      <g>
       <use style="fill:#262626;stroke:#262626;stroke-width:0.8;" x="96.87" xlink:href="#mda1100615f" y="101.92"/>
      </g>
     </g>
     <g id="text_4">
      <!-- 8 -->
      <defs>
       <path d="M 17.671875 38.8125 
Q 12.203125 40.828125 9.5625 44.53125 
Q 6.9375 48.25 6.9375 53.421875 
Q 6.9375 61.234375 12.546875 66.546875 
Q 18.171875 71.875 27.484375 71.875 
Q 36.859375 71.875 42.578125 66.421875 
Q 48.296875 60.984375 48.296875 53.171875 
Q 48.296875 48.1875 45.671875 44.5 
Q 43.0625 40.828125 37.75 38.8125 
Q 44.34375 36.671875 47.78125 31.875 
Q 51.21875 27.09375 51.21875 20.453125 
Q 51.21875 11.28125 44.71875 5.03125 
Q 38.234375 -1.21875 27.640625 -1.21875 
Q 17.046875 -1.21875 10.546875 5.046875 
Q 4.046875 11.328125 4.046875 20.703125 
Q 4.046875 27.6875 7.59375 32.390625 
Q 11.140625 37.109375 17.671875 38.8125 
z
M 15.921875 53.71875 
Q 15.921875 48.640625 19.1875 45.40625 
Q 22.46875 42.1875 27.6875 42.1875 
Q 32.765625 42.1875 36.015625 45.375 
Q 39.265625 48.578125 39.265625 53.21875 
Q 39.265625 58.0625 35.90625 61.359375 
Q 32.5625 64.65625 27.59375 64.65625 
Q 22.5625 64.65625 19.234375 61.421875 
Q 15.921875 58.203125 15.921875 53.71875 
z
M 13.09375 20.65625 
Q 13.09375 16.890625 14.875 13.375 
Q 16.65625 9.859375 20.171875 7.921875 
Q 23.6875 6 27.734375 6 
Q 34.03125 6 38.125 10.046875 
Q 42.234375 14.109375 42.234375 20.359375 
Q 42.234375 26.703125 38.015625 30.859375 
Q 33.796875 35.015625 27.4375 35.015625 
Q 21.234375 35.015625 17.15625 30.90625 
Q 13.09375 26.8125 13.09375 20.65625 
z
" id="ArialMT-38"/>
      </defs>
      <g style="fill:#262626;" transform="translate(93.811484 116.793594)scale(0.11 -0.11)">
       <use xlink:href="#ArialMT-38"/>
      </g>
     </g>
    </g>
    <g id="xtick_5">
     <g id="line2d_5">
      <g>
       <use style="fill:#262626;stroke:#262626;stroke-width:0.8;" x="111.79" xlink:href="#mda1100615f" y="101.92"/>
      </g>
     </g>
     <g id="text_5">
      <!-- 10 -->
      <defs>
       <path d="M 37.25 0 
L 28.46875 0 
L 28.46875 56 
Q 25.296875 52.984375 20.140625 49.953125 
Q 14.984375 46.921875 10.890625 45.40625 
L 10.890625 53.90625 
Q 18.265625 57.375 23.78125 62.296875 
Q 29.296875 67.234375 31.59375 71.875 
L 37.25 71.875 
z
" id="ArialMT-31"/>
       <path d="M 4.15625 35.296875 
Q 4.15625 48 6.765625 55.734375 
Q 9.375 63.484375 14.515625 67.671875 
Q 19.671875 71.875 27.484375 71.875 
Q 33.25 71.875 37.59375 69.546875 
Q 41.9375 67.234375 44.765625 62.859375 
Q 47.609375 58.5 49.21875 52.21875 
Q 50.828125 45.953125 50.828125 35.296875 
Q 50.828125 22.703125 48.234375 14.96875 
Q 45.65625 7.234375 40.5 3 
Q 35.359375 -1.21875 27.484375 -1.21875 
Q 17.140625 -1.21875 11.234375 6.203125 
Q 4.15625 15.140625 4.15625 35.296875 
z
M 13.1875 35.296875 
Q 13.1875 17.671875 17.3125 11.828125 
Q 21.4375 6 27.484375 6 
Q 33.546875 6 37.671875 11.859375 
Q 41.796875 17.71875 41.796875 35.296875 
Q 41.796875 52.984375 37.671875 58.78125 
Q 33.546875 64.59375 27.390625 64.59375 
Q 21.34375 64.59375 17.71875 59.46875 
Q 13.1875 52.9375 13.1875 35.296875 
z
" id="ArialMT-30"/>
      </defs>
      <g style="fill:#262626;" transform="translate(105.672969 116.793594)scale(0.11 -0.11)">
       <use xlink:href="#ArialMT-31"/>
       <use x="55.615234" xlink:href="#ArialMT-30"/>
      </g>
     </g>
    </g>
    <g id="xtick_6">
     <g id="line2d_6">
      <g>
       <use style="fill:#262626;stroke:#262626;stroke-width:0.8;" x="126.71" xlink:href="#mda1100615f" y="101.92"/>
      </g>
     </g>
     <g id="text_6">
      <!-- 12 -->
      <g style="fill:#262626;" transform="translate(120.592969 116.793594)scale(0.11 -0.11)">
       <use xlink:href="#ArialMT-31"/>
       <use x="55.615234" xlink:href="#ArialMT-32"/>
      </g>
     </g>
    </g>
    <g id="text_7">
     <!-- pH -->
     <defs>
      <path d="M 6.59375 -19.875 
L 6.59375 51.859375 
L 14.59375 51.859375 
L 14.59375 45.125 
Q 17.4375 49.078125 21 51.046875 
Q 24.5625 53.03125 29.640625 53.03125 
Q 36.28125 53.03125 41.359375 49.609375 
Q 46.4375 46.1875 49.015625 39.953125 
Q 51.609375 33.734375 51.609375 26.3125 
Q 51.609375 18.359375 48.75 11.984375 
Q 45.90625 5.609375 40.453125 2.21875 
Q 35.015625 -1.171875 29 -1.171875 
Q 24.609375 -1.171875 21.109375 0.6875 
Q 17.625 2.546875 15.375 5.375 
L 15.375 -19.875 
z
M 14.546875 25.640625 
Q 14.546875 15.625 18.59375 10.84375 
Q 22.65625 6.0625 28.421875 6.0625 
Q 34.28125 6.0625 38.453125 11.015625 
Q 42.625 15.96875 42.625 26.375 
Q 42.625 36.28125 38.546875 41.203125 
Q 34.46875 46.140625 28.8125 46.140625 
Q 23.1875 46.140625 18.859375 40.890625 
Q 14.546875 35.640625 14.546875 25.640625 
z
" id="ArialMT-70"/>
      <path d="M 8.015625 0 
L 8.015625 71.578125 
L 17.484375 71.578125 
L 17.484375 42.1875 
L 54.6875 42.1875 
L 54.6875 71.578125 
L 64.15625 71.578125 
L 64.15625 0 
L 54.6875 0 
L 54.6875 33.734375 
L 17.484375 33.734375 
L 17.484375 0 
z
" id="ArialMT-48"/>
     </defs>
     <g style="fill:#262626;" transform="translate(82.379453 130.853437)scale(0.11 -0.11)">
      <use xlink:href="#ArialMT-70"/>
      <use x="55.615234" xlink:href="#ArialMT-48"/>
     </g>
    </g>
   </g>
   <g id="matplotlib.axis_2">
    <g id="ytick_1">
     <g id="line2d_7">
      <defs>
       <path d="M 0 0 
L -3.5 0 
" id="m0f048f93c2" style="stroke:#262626;stroke-width:0.8;"/>
      </defs>
      <g>
       <use style="fill:#262626;stroke:#262626;stroke-width:0.8;" x="48.38" xlink:href="#m0f048f93c2" y="100.015083"/>
      </g>
     </g>
     <g id="text_8">
      <!-- −1 -->
      <defs>
       <path d="M 52.828125 31.203125 
L 5.5625 31.203125 
L 5.5625 39.40625 
L 52.828125 39.40625 
z
" id="ArialMT-2212"/>
      </defs>
      <g style="fill:#262626;" transform="translate(28.838281 103.951879)scale(0.11 -0.11)">
       <use xlink:href="#ArialMT-2212"/>
       <use x="58.398438" xlink:href="#ArialMT-31"/>
      </g>
     </g>
    </g>
    <g id="ytick_2">
     <g id="line2d_8">
      <g>
       <use style="fill:#262626;stroke:#262626;stroke-width:0.8;" x="48.38" xlink:href="#m0f048f93c2" y="65.431986"/>
      </g>
     </g>
     <g id="text_9">
      <!-- 0 -->
      <g style="fill:#262626;" transform="translate(35.262969 69.368783)scale(0.11 -0.11)">
       <use xlink:href="#ArialMT-30"/>
      </g>
     </g>
    </g>
    <g id="ytick_3">
     <g id="line2d_9">
      <g>
       <use style="fill:#262626;stroke:#262626;stroke-width:0.8;" x="48.38" xlink:href="#m0f048f93c2" y="30.84889"/>
      </g>
     </g>
     <g id="text_10">
      <!-- 1 -->
      <g style="fill:#262626;" transform="translate(35.262969 34.785687)scale(0.11 -0.11)">
       <use xlink:href="#ArialMT-31"/>
      </g>
     </g>
    </g>
    <g id="text_11">
     <!-- $\langle q_\mathsf{total} \rangle$ -->
     <defs>
      <path d="M 8.9375 31.34375 
L 22.703125 75.875 
L 31 75.875 
L 17.234375 31.34375 
L 31 -13.1875 
L 22.703125 -13.1875 
z
" id="DejaVuSans-27e8"/>
      <path d="M 41.703125 8.203125 
Q 38.09375 3.46875 33.171875 1.015625 
Q 28.265625 -1.421875 22.3125 -1.421875 
Q 14.015625 -1.421875 9.296875 4.171875 
Q 4.59375 9.765625 4.59375 19.578125 
Q 4.59375 27.484375 7.5 34.859375 
Q 10.40625 42.234375 15.828125 48.09375 
Q 19.34375 51.90625 23.90625 53.953125 
Q 28.46875 56 33.5 56 
Q 39.546875 56 43.453125 53.609375 
Q 47.359375 51.21875 49.125 46.390625 
L 50.6875 54.59375 
L 59.71875 54.59375 
L 45.125 -20.609375 
L 36.078125 -20.609375 
z
M 13.921875 20.90625 
Q 13.921875 13.671875 16.9375 9.890625 
Q 19.96875 6.109375 25.6875 6.109375 
Q 34.1875 6.109375 40.1875 14.234375 
Q 46.1875 22.359375 46.1875 33.984375 
Q 46.1875 41.015625 43.078125 44.75 
Q 39.984375 48.484375 34.1875 48.484375 
Q 29.9375 48.484375 26.3125 46.5 
Q 22.703125 44.53125 20.015625 40.71875 
Q 17.1875 36.71875 15.546875 31.34375 
Q 13.921875 25.984375 13.921875 20.90625 
z
" id="DejaVuSans-Oblique-71"/>
      <path d="M 18.3125 70.21875 
L 18.3125 54.6875 
L 36.8125 54.6875 
L 36.8125 47.703125 
L 18.3125 47.703125 
L 18.3125 18.015625 
Q 18.3125 11.328125 20.140625 9.421875 
Q 21.96875 7.515625 27.59375 7.515625 
L 36.8125 7.515625 
L 36.8125 0 
L 27.59375 0 
Q 17.1875 0 13.234375 3.875 
Q 9.28125 7.765625 9.28125 18.015625 
L 9.28125 47.703125 
L 2.6875 47.703125 
L 2.6875 54.6875 
L 9.28125 54.6875 
L 9.28125 70.21875 
z
" id="DejaVuSans-74"/>
      <path d="M 30.609375 48.390625 
Q 23.390625 48.390625 19.1875 42.75 
Q 14.984375 37.109375 14.984375 27.296875 
Q 14.984375 17.484375 19.15625 11.84375 
Q 23.34375 6.203125 30.609375 6.203125 
Q 37.796875 6.203125 41.984375 11.859375 
Q 46.1875 17.53125 46.1875 27.296875 
Q 46.1875 37.015625 41.984375 42.703125 
Q 37.796875 48.390625 30.609375 48.390625 
z
M 30.609375 56 
Q 42.328125 56 49.015625 48.375 
Q 55.71875 40.765625 55.71875 27.296875 
Q 55.71875 13.875 49.015625 6.21875 
Q 42.328125 -1.421875 30.609375 -1.421875 
Q 18.84375 -1.421875 12.171875 6.21875 
Q 5.515625 13.875 5.515625 27.296875 
Q 5.515625 40.765625 12.171875 48.375 
Q 18.84375 56 30.609375 56 
z
" id="DejaVuSans-6f"/>
      <path d="M 34.28125 27.484375 
Q 23.390625 27.484375 19.1875 25 
Q 14.984375 22.515625 14.984375 16.5 
Q 14.984375 11.71875 18.140625 8.90625 
Q 21.296875 6.109375 26.703125 6.109375 
Q 34.1875 6.109375 38.703125 11.40625 
Q 43.21875 16.703125 43.21875 25.484375 
L 43.21875 27.484375 
z
M 52.203125 31.203125 
L 52.203125 0 
L 43.21875 0 
L 43.21875 8.296875 
Q 40.140625 3.328125 35.546875 0.953125 
Q 30.953125 -1.421875 24.3125 -1.421875 
Q 15.921875 -1.421875 10.953125 3.296875 
Q 6 8.015625 6 15.921875 
Q 6 25.140625 12.171875 29.828125 
Q 18.359375 34.515625 30.609375 34.515625 
L 43.21875 34.515625 
L 43.21875 35.40625 
Q 43.21875 41.609375 39.140625 45 
Q 35.0625 48.390625 27.6875 48.390625 
Q 23 48.390625 18.546875 47.265625 
Q 14.109375 46.140625 10.015625 43.890625 
L 10.015625 52.203125 
Q 14.9375 54.109375 19.578125 55.046875 
Q 24.21875 56 28.609375 56 
Q 40.484375 56 46.34375 49.84375 
Q 52.203125 43.703125 52.203125 31.203125 
z
" id="DejaVuSans-61"/>
      <path d="M 9.421875 75.984375 
L 18.40625 75.984375 
L 18.40625 0 
L 9.421875 0 
z
" id="DejaVuSans-6c"/>
      <path d="M 30.078125 31.34375 
L 16.3125 -13.1875 
L 8.015625 -13.1875 
L 21.78125 31.34375 
L 8.015625 75.875 
L 16.3125 75.875 
z
" id="DejaVuSans-27e9"/>
     </defs>
     <g style="fill:#262626;" transform="translate(22.528281 81.475)rotate(-90)scale(0.11 -0.11)">
      <use transform="translate(0 0.125)" xlink:href="#DejaVuSans-27e8"/>
      <use transform="translate(39.013672 0.125)" xlink:href="#DejaVuSans-Oblique-71"/>
      <use transform="translate(102.490234 -16.28125)scale(0.7)" xlink:href="#DejaVuSans-74"/>
      <use transform="translate(129.936523 -16.28125)scale(0.7)" xlink:href="#DejaVuSans-6f"/>
      <use transform="translate(172.763672 -16.28125)scale(0.7)" xlink:href="#DejaVuSans-74"/>
      <use transform="translate(200.209961 -16.28125)scale(0.7)" xlink:href="#DejaVuSans-61"/>
      <use transform="translate(243.105469 -16.28125)scale(0.7)" xlink:href="#DejaVuSans-6c"/>
      <use transform="translate(265.288086 0.125)" xlink:href="#DejaVuSans-27e9"/>
     </g>
    </g>
   </g>
   <g id="PolyCollection_1">
    <defs>
     <path d="M 52.11 -113.136364 
L 52.11 -113.136364 
L 52.856 -113.132548 
L 53.602 -113.127745 
L 54.348 -113.1217 
L 55.094 -113.114093 
L 55.84 -113.104521 
L 56.586 -113.092479 
L 57.332 -113.07733 
L 58.078 -113.058278 
L 58.824 -113.034323 
L 59.57 -113.004212 
L 60.316 -112.96638 
L 61.062 -112.918869 
L 61.808 -112.859244 
L 62.554 -112.784474 
L 63.3 -112.690806 
L 64.046 -112.573612 
L 64.792 -112.427213 
L 65.538 -112.24469 
L 66.284 -112.017687 
L 67.03 -111.736221 
L 67.776 -111.388542 
L 68.522 -110.961069 
L 69.268 -110.43849 
L 70.014 -109.804099 
L 70.76 -109.040481 
L 71.506 -108.130645 
L 72.252 -107.059684 
L 72.998 -105.816942 
L 73.744 -104.398548 
L 74.49 -102.809943 
L 75.236 -101.06788 
L 75.982 -99.201219 
L 76.728 -97.249977 
L 77.474 -95.262421 
L 78.22 -93.290522 
L 78.966 -91.384639 
L 79.712 -89.588543 
L 80.458 -87.935777 
L 81.204 -86.447927 
L 81.95 -85.134765 
L 82.696 -83.995849 
L 83.442 -83.022915 
L 84.188 -82.202456 
L 84.934 -81.51807 
L 85.68 -80.952325 
L 86.426 -80.488101 
L 87.172 -80.109436 
L 87.918 -79.801992 
L 88.664 -79.553232 
L 89.41 -79.352415 
L 90.156 -79.190468 
L 90.902 -79.059816 
L 91.648 -78.954172 
L 92.394 -78.868343 
L 93.14 -78.798031 
L 93.886 -78.739668 
L 94.632 -78.690259 
L 95.378 -78.647246 
L 96.124 -78.608386 
L 96.87 -78.571646 
L 97.616 -78.535096 
L 98.362 -78.496818 
L 99.108 -78.454807 
L 99.854 -78.40687 
L 100.6 -78.350522 
L 101.346 -78.282865 
L 102.092 -78.200457 
L 102.838 -78.09916 
L 103.584 -77.973975 
L 104.33 -77.818849 
L 105.076 -77.626481 
L 105.822 -77.388113 
L 106.568 -77.093351 
L 107.314 -76.73002 
L 108.06 -76.284137 
L 108.806 -75.740038 
L 109.552 -75.080781 
L 110.298 -74.288905 
L 111.044 -73.34767 
L 111.79 -72.242817 
L 112.536 -70.964827 
L 113.282 -69.51149 
L 114.028 -67.890371 
L 114.774 -66.120628 
L 115.52 -64.233487 
L 116.266 -62.270907 
L 117.012 -60.282299 
L 117.758 -58.319741 
L 118.504 -56.432644 
L 119.25 -54.66297 
L 119.996 -53.041947 
L 120.742 -51.588737 
L 121.488 -50.310911 
L 122.234 -49.206267 
L 122.98 -48.265297 
L 123.726 -47.473755 
L 124.472 -46.814918 
L 125.218 -46.271348 
L 125.964 -45.82613 
L 126.71 -45.463636 
L 126.71 -45.463636 
L 126.71 -48.812656 
L 125.964 -49.85066 
L 125.218 -51.058786 
L 124.472 -52.442459 
L 123.726 -53.998266 
L 122.98 -55.711808 
L 122.234 -57.556607 
L 121.488 -59.494687 
L 120.742 -61.479097 
L 119.996 -63.458184 
L 119.25 -65.380845 
L 118.504 -67.201658 
L 117.758 -68.884846 
L 117.012 -70.406406 
L 116.266 -71.754308 
L 115.52 -72.927136 
L 114.774 -73.931802 
L 114.028 -74.78096 
L 113.282 -75.490589 
L 112.536 -76.07802 
L 111.79 -76.560494 
L 111.044 -76.95422 
L 110.298 -77.273843 
L 109.552 -77.532212 
L 108.806 -77.740361 
L 108.06 -77.907603 
L 107.314 -78.041703 
L 106.568 -78.149068 
L 105.822 -78.234945 
L 105.076 -78.303607 
L 104.33 -78.35852 
L 103.584 -78.402487 
L 102.838 -78.437772 
L 102.092 -78.466205 
L 101.346 -78.48927 
L 100.6 -78.508174 
L 99.854 -78.523913 
L 99.108 -78.537316 
L 98.362 -78.549093 
L 97.616 -78.559866 
L 96.87 -78.570207 
L 96.124 -78.580665 
L 95.378 -78.591793 
L 94.632 -78.604182 
L 93.886 -78.618488 
L 93.14 -78.635465 
L 92.394 -78.656009 
L 91.648 -78.681198 
L 90.902 -78.712349 
L 90.156 -78.751086 
L 89.41 -78.799409 
L 88.664 -78.859801 
L 87.918 -78.935328 
L 87.172 -79.029783 
L 86.426 -79.14783 
L 85.68 -79.29519 
L 84.934 -79.478821 
L 84.188 -79.707125 
L 83.442 -79.990132 
L 82.696 -80.339641 
L 81.95 -80.769279 
L 81.204 -81.294401 
L 80.458 -81.931741 
L 79.712 -82.698722 
L 78.966 -83.612307 
L 78.22 -84.687328 
L 77.474 -85.934308 
L 76.728 -87.356923 
L 75.982 -88.949478 
L 75.236 -90.69493 
L 74.49 -92.564129 
L 73.744 -94.516816 
L 72.998 -96.504574 
L 72.252 -98.475406 
L 71.506 -100.379053 
L 70.76 -102.171954 
L 70.014 -103.820838 
L 69.268 -105.304408 
L 68.522 -106.613155 
L 67.776 -107.747732 
L 67.03 -108.71655 
L 66.284 -109.533198 
L 65.538 -110.214107 
L 64.792 -110.776692 
L 64.046 -111.238028 
L 63.3 -111.614007 
L 62.554 -111.918881 
L 61.808 -112.16509 
L 61.062 -112.363266 
L 60.316 -112.522358 
L 59.57 -112.6498 
L 58.824 -112.751714 
L 58.078 -112.833103 
L 57.332 -112.89803 
L 56.586 -112.949778 
L 55.84 -112.990995 
L 55.094 -113.023805 
L 54.348 -113.049911 
L 53.602 -113.070676 
L 52.856 -113.087189 
L 52.11 -113.100316 
z
" id="m1a1920f7db" style="stroke:#ffffff;stroke-opacity:0.7;"/>
    </defs>
    <g clip-path="url(#p6f53e5bdbf)">
     <use style="fill:#591e71;fill-opacity:0.7;stroke:#ffffff;stroke-opacity:0.7;" x="0" xlink:href="#m1a1920f7db" y="144"/>
    </g>
   </g>
   <g id="line2d_10">
    <path clip-path="url(#p6f53e5bdbf)" d="M 52.11 30.863636 
L 52.856 30.867452 
L 53.602 30.872255 
L 54.348 30.8783 
L 55.094 30.885907 
L 55.84 30.895479 
L 56.586 30.907521 
L 57.332 30.92267 
L 58.078 30.941722 
L 58.824 30.965677 
L 59.57 30.995788 
L 60.316 31.03362 
L 61.062 31.081131 
L 61.808 31.140756 
L 62.554 31.215526 
L 63.3 31.309194 
L 64.046 31.426388 
L 64.792 31.572787 
L 65.538 31.75531 
L 66.284 31.982313 
L 67.03 32.263779 
L 67.776 32.611458 
L 68.522 33.038931 
L 69.268 33.56151 
L 70.014 34.195901 
L 70.76 34.959519 
L 71.506 35.869355 
L 72.252 36.940316 
L 72.998 38.183058 
L 73.744 39.601452 
L 74.49 41.190057 
L 75.236 42.93212 
L 75.982 44.798781 
L 76.728 46.750023 
L 77.474 48.737579 
L 78.22 50.709478 
L 78.966 52.615361 
L 79.712 54.411457 
L 80.458 56.064223 
L 81.204 57.552073 
L 81.95 58.865235 
L 82.696 60.004151 
L 83.442 60.977085 
L 84.188 61.797544 
L 84.934 62.48193 
L 85.68 63.047675 
L 86.426 63.511899 
L 87.172 63.890564 
L 87.918 64.198008 
L 88.664 64.446768 
L 89.41 64.647585 
L 90.156 64.809532 
L 90.902 64.940184 
L 91.648 65.045828 
L 92.394 65.131657 
L 93.14 65.201969 
L 93.886 65.260332 
L 94.632 65.309741 
L 95.378 65.352754 
L 96.124 65.391614 
L 96.87 65.428354 
L 97.616 65.464904 
L 98.362 65.503182 
L 99.108 65.545193 
L 99.854 65.59313 
L 100.6 65.649478 
L 101.346 65.717135 
L 102.092 65.799543 
L 102.838 65.90084 
L 103.584 66.026025 
L 104.33 66.181151 
L 105.076 66.373519 
L 105.822 66.611887 
L 106.568 66.906649 
L 107.314 67.26998 
L 108.06 67.715863 
L 108.806 68.259962 
L 109.552 68.919219 
L 110.298 69.711095 
L 111.044 70.65233 
L 111.79 71.757183 
L 112.536 73.035173 
L 113.282 74.48851 
L 114.028 76.109629 
L 114.774 77.879372 
L 115.52 79.766513 
L 116.266 81.729093 
L 117.012 83.717701 
L 117.758 85.680259 
L 118.504 87.567356 
L 119.25 89.33703 
L 119.996 90.958053 
L 120.742 92.411263 
L 121.488 93.689089 
L 122.234 94.793733 
L 122.98 95.734703 
L 123.726 96.526245 
L 124.472 97.185082 
L 125.218 97.728652 
L 125.964 98.17387 
L 126.71 98.536364 
" style="fill:none;stroke:#333333;stroke-dasharray:1.5,2.475;stroke-dashoffset:0;stroke-width:1.5;"/>
   </g>
   <g id="line2d_11">
    <path clip-path="url(#p6f53e5bdbf)" d="M 52.11 30.899684 
L 52.856 30.912811 
L 53.602 30.929324 
L 54.348 30.950089 
L 55.094 30.976195 
L 55.84 31.009005 
L 56.586 31.050222 
L 57.332 31.10197 
L 58.078 31.166897 
L 58.824 31.248286 
L 59.57 31.3502 
L 60.316 31.477642 
L 61.062 31.636734 
L 61.808 31.83491 
L 62.554 32.081119 
L 63.3 32.385993 
L 64.046 32.761972 
L 64.792 33.223308 
L 65.538 33.785893 
L 66.284 34.466802 
L 67.03 35.28345 
L 67.776 36.252268 
L 68.522 37.386845 
L 69.268 38.695592 
L 70.014 40.179162 
L 70.76 41.828046 
L 71.506 43.620947 
L 72.252 45.524594 
L 72.998 47.495426 
L 73.744 49.483184 
L 74.49 51.435871 
L 75.236 53.30507 
L 75.982 55.050522 
L 76.728 56.643077 
L 77.474 58.065692 
L 78.22 59.312672 
L 78.966 60.387693 
L 79.712 61.301278 
L 80.458 62.068259 
L 81.204 62.705599 
L 81.95 63.230721 
L 82.696 63.660359 
L 83.442 64.009868 
L 84.188 64.292875 
L 84.934 64.521179 
L 85.68 64.70481 
L 86.426 64.85217 
L 87.172 64.970217 
L 87.918 65.064672 
L 88.664 65.140199 
L 89.41 65.200591 
L 90.156 65.248914 
L 90.902 65.287651 
L 91.648 65.318802 
L 92.394 65.343991 
L 93.14 65.364535 
L 93.886 65.381512 
L 94.632 65.395818 
L 95.378 65.408207 
L 96.124 65.419335 
L 96.87 65.429793 
L 97.616 65.440134 
L 98.362 65.450907 
L 99.108 65.462684 
L 99.854 65.476087 
L 100.6 65.491826 
L 101.346 65.51073 
L 102.092 65.533795 
L 102.838 65.562228 
L 103.584 65.597513 
L 104.33 65.64148 
L 105.076 65.696393 
L 105.822 65.765055 
L 106.568 65.850932 
L 107.314 65.958297 
L 108.06 66.092397 
L 108.806 66.259639 
L 109.552 66.467788 
L 110.298 66.726157 
L 111.044 67.04578 
L 111.79 67.439506 
L 112.536 67.92198 
L 113.282 68.509411 
L 114.028 69.21904 
L 114.774 70.068198 
L 115.52 71.072864 
L 116.266 72.245692 
L 117.012 73.593594 
L 117.758 75.115154 
L 118.504 76.798342 
L 119.25 78.619155 
L 119.996 80.541816 
L 120.742 82.520903 
L 121.488 84.505313 
L 122.234 86.443393 
L 122.98 88.288192 
L 123.726 90.001734 
L 124.472 91.557541 
L 125.218 92.941214 
L 125.964 94.14934 
L 126.71 95.187344 
" style="fill:none;stroke:#333333;stroke-linecap:round;stroke-width:1.5;"/>
   </g>
   <g id="patch_3">
    <path d="M 48.38 101.92 
L 48.38 27.48 
" style="fill:none;stroke:#262626;stroke-linecap:square;stroke-linejoin:miter;stroke-width:0.8;"/>
   </g>
   <g id="patch_4">
    <path d="M 48.38 101.92 
L 130.44 101.92 
" style="fill:none;stroke:#262626;stroke-linecap:square;stroke-linejoin:miter;stroke-width:0.8;"/>
   </g>
   <g id="text_12">
    <!-- $\Delta$ area : 1.05 -->
    <defs>
     <path d="M 34.1875 63.1875 
L 14.15625 8.203125 
L 54.25 8.203125 
z
M 0.78125 0 
L 28.609375 72.90625 
L 39.796875 72.90625 
L 67.578125 0 
z
" id="DejaVuSans-394"/>
     <path id="ArialMT-20"/>
     <path d="M 40.4375 6.390625 
Q 35.546875 2.25 31.03125 0.53125 
Q 26.515625 -1.171875 21.34375 -1.171875 
Q 12.796875 -1.171875 8.203125 3 
Q 3.609375 7.171875 3.609375 13.671875 
Q 3.609375 17.484375 5.34375 20.625 
Q 7.078125 23.78125 9.890625 25.6875 
Q 12.703125 27.59375 16.21875 28.5625 
Q 18.796875 29.25 24.03125 29.890625 
Q 34.671875 31.15625 39.703125 32.90625 
Q 39.75 34.71875 39.75 35.203125 
Q 39.75 40.578125 37.25 42.78125 
Q 33.890625 45.75 27.25 45.75 
Q 21.046875 45.75 18.09375 43.578125 
Q 15.140625 41.40625 13.71875 35.890625 
L 5.125 37.0625 
Q 6.296875 42.578125 8.984375 45.96875 
Q 11.671875 49.359375 16.75 51.1875 
Q 21.828125 53.03125 28.515625 53.03125 
Q 35.15625 53.03125 39.296875 51.46875 
Q 43.453125 49.90625 45.40625 47.53125 
Q 47.359375 45.171875 48.140625 41.546875 
Q 48.578125 39.3125 48.578125 33.453125 
L 48.578125 21.734375 
Q 48.578125 9.46875 49.140625 6.21875 
Q 49.703125 2.984375 51.375 0 
L 42.1875 0 
Q 40.828125 2.734375 40.4375 6.390625 
z
M 39.703125 26.03125 
Q 34.90625 24.078125 25.34375 22.703125 
Q 19.921875 21.921875 17.671875 20.9375 
Q 15.4375 19.96875 14.203125 18.09375 
Q 12.984375 16.21875 12.984375 13.921875 
Q 12.984375 10.40625 15.640625 8.0625 
Q 18.3125 5.71875 23.4375 5.71875 
Q 28.515625 5.71875 32.46875 7.9375 
Q 36.421875 10.15625 38.28125 14.015625 
Q 39.703125 17 39.703125 22.796875 
z
" id="ArialMT-61"/>
     <path d="M 6.5 0 
L 6.5 51.859375 
L 14.40625 51.859375 
L 14.40625 44 
Q 17.4375 49.515625 20 51.265625 
Q 22.5625 53.03125 25.640625 53.03125 
Q 30.078125 53.03125 34.671875 50.203125 
L 31.640625 42.046875 
Q 28.421875 43.953125 25.203125 43.953125 
Q 22.3125 43.953125 20.015625 42.21875 
Q 17.71875 40.484375 16.75 37.40625 
Q 15.28125 32.71875 15.28125 27.15625 
L 15.28125 0 
z
" id="ArialMT-72"/>
     <path d="M 42.09375 16.703125 
L 51.171875 15.578125 
Q 49.03125 7.625 43.21875 3.21875 
Q 37.40625 -1.171875 28.375 -1.171875 
Q 17 -1.171875 10.328125 5.828125 
Q 3.65625 12.84375 3.65625 25.484375 
Q 3.65625 38.578125 10.390625 45.796875 
Q 17.140625 53.03125 27.875 53.03125 
Q 38.28125 53.03125 44.875 45.953125 
Q 51.46875 38.875 51.46875 26.03125 
Q 51.46875 25.25 51.421875 23.6875 
L 12.75 23.6875 
Q 13.234375 15.140625 17.578125 10.59375 
Q 21.921875 6.0625 28.421875 6.0625 
Q 33.25 6.0625 36.671875 8.59375 
Q 40.09375 11.140625 42.09375 16.703125 
z
M 13.234375 30.90625 
L 42.1875 30.90625 
Q 41.609375 37.453125 38.875 40.71875 
Q 34.671875 45.796875 27.984375 45.796875 
Q 21.921875 45.796875 17.796875 41.75 
Q 13.671875 37.703125 13.234375 30.90625 
z
" id="ArialMT-65"/>
     <path d="M 9.03125 41.84375 
L 9.03125 51.859375 
L 19.046875 51.859375 
L 19.046875 41.84375 
z
M 9.03125 0 
L 9.03125 10.015625 
L 19.046875 10.015625 
L 19.046875 0 
z
" id="ArialMT-3a"/>
     <path d="M 9.078125 0 
L 9.078125 10.015625 
L 19.09375 10.015625 
L 19.09375 0 
z
" id="ArialMT-2e"/>
     <path d="M 4.15625 18.75 
L 13.375 19.53125 
Q 14.40625 12.796875 18.140625 9.390625 
Q 21.875 6 27.15625 6 
Q 33.5 6 37.890625 10.78125 
Q 42.28125 15.578125 42.28125 23.484375 
Q 42.28125 31 38.0625 35.34375 
Q 33.84375 39.703125 27 39.703125 
Q 22.75 39.703125 19.328125 37.765625 
Q 15.921875 35.84375 13.96875 32.765625 
L 5.71875 33.84375 
L 12.640625 70.609375 
L 48.25 70.609375 
L 48.25 62.203125 
L 19.671875 62.203125 
L 15.828125 42.96875 
Q 22.265625 47.46875 29.34375 47.46875 
Q 38.71875 47.46875 45.15625 40.96875 
Q 51.609375 34.46875 51.609375 24.265625 
Q 51.609375 14.546875 45.953125 7.46875 
Q 39.0625 -1.21875 27.15625 -1.21875 
Q 17.390625 -1.21875 11.203125 4.25 
Q 5.03125 9.71875 4.15625 18.75 
z
" id="ArialMT-35"/>
    </defs>
    <g style="fill:#262626;" transform="translate(51.46 21.48)scale(0.132 -0.132)">
     <use transform="translate(0 0.09375)" xlink:href="#DejaVuSans-394"/>
     <use transform="translate(68.408203 0.09375)" xlink:href="#ArialMT-20"/>
     <use transform="translate(96.191406 0.09375)" xlink:href="#ArialMT-61"/>
     <use transform="translate(151.806641 0.09375)" xlink:href="#ArialMT-72"/>
     <use transform="translate(185.107422 0.09375)" xlink:href="#ArialMT-65"/>
     <use transform="translate(240.722656 0.09375)" xlink:href="#ArialMT-61"/>
     <use transform="translate(296.337891 0.09375)" xlink:href="#ArialMT-20"/>
     <use transform="translate(324.121094 0.09375)" xlink:href="#ArialMT-3a"/>
     <use transform="translate(351.904297 0.09375)" xlink:href="#ArialMT-20"/>
     <use transform="translate(379.6875 0.09375)" xlink:href="#ArialMT-31"/>
     <use transform="translate(435.302734 0.09375)" xlink:href="#ArialMT-2e"/>
     <use transform="translate(463.085938 0.09375)" xlink:href="#ArialMT-30"/>
     <use transform="translate(518.701172 0.09375)" xlink:href="#ArialMT-35"/>
    </g>
   </g>
  </g>
 </g>
 <defs>
  <clipPath id="p6f53e5bdbf">
   <rect height="74.44" width="82.06" x="48.38" y="27.48"/>
  </clipPath>
 </defs>
</svg>
