<?xml version="1.0" encoding="utf-8" standalone="no"?>
<!DOCTYPE svg PUBLIC "-//W3C//DTD SVG 1.1//EN"
  "http://www.w3.org/Graphics/SVG/1.1/DTD/svg11.dtd">
<!-- Created with matplotlib (http://matplotlib.org/) -->
<svg height="144pt" version="1.1" viewBox="0 0 144 144" width="144pt" xmlns="http://www.w3.org/2000/svg" xmlns:xlink="http://www.w3.org/1999/xlink">
 <defs>
  <style type="text/css">
*{stroke-linecap:butt;stroke-linejoin:round;}
  </style>
 </defs>
 <g id="figure_1">
  <g id="patch_1">
   <path d="M 0 144 
L 144 144 
L 144 0 
L 0 0 
z
" style="fill:#ffffff;"/>
  </g>
  <g id="axes_1">
   <g id="patch_2">
    <path d="M 48.38 101.92 
L 130.44 101.92 
L 130.44 27.48 
L 48.38 27.48 
z
" style="fill:#ffffff;"/>
   </g>
   <g id="matplotlib.axis_1">
    <g id="xtick_1">
     <g id="line2d_1">
      <defs>
       <path d="M 0 0 
L 0 3.5 
" id="m0ea26da778" style="stroke:#262626;stroke-width:0.8;"/>
      </defs>
      <g>
       <use style="fill:#262626;stroke:#262626;stroke-width:0.8;" x="52.11" xlink:href="#m0ea26da778" y="101.92"/>
      </g>
     </g>
     <g id="text_1">
      <!-- 2 -->
      <defs>
       <path d="M 50.34375 8.453125 
L 50.34375 0 
L 3.03125 0 
Q 2.9375 3.171875 4.046875 6.109375 
Q 5.859375 10.9375 9.828125 15.625 
Q 13.8125 20.3125 21.34375 26.46875 
Q 33.015625 36.03125 37.109375 41.625 
Q 41.21875 47.21875 41.21875 52.203125 
Q 41.21875 57.421875 37.46875 61 
Q 33.734375 64.59375 27.734375 64.59375 
Q 21.390625 64.59375 17.578125 60.78125 
Q 13.765625 56.984375 13.71875 50.25 
L 4.6875 51.171875 
Q 5.609375 61.28125 11.65625 66.578125 
Q 17.71875 71.875 27.9375 71.875 
Q 38.234375 71.875 44.234375 66.15625 
Q 50.25 60.453125 50.25 52 
Q 50.25 47.703125 48.484375 43.546875 
Q 46.734375 39.40625 42.65625 34.8125 
Q 38.578125 30.21875 29.109375 22.21875 
Q 21.1875 15.578125 18.9375 13.203125 
Q 16.703125 10.84375 15.234375 8.453125 
z
" id="ArialMT-32"/>
      </defs>
      <g style="fill:#262626;" transform="translate(49.051484 116.793594)scale(0.11 -0.11)">
       <use xlink:href="#ArialMT-32"/>
      </g>
     </g>
    </g>
    <g id="xtick_2">
     <g id="line2d_2">
      <g>
       <use style="fill:#262626;stroke:#262626;stroke-width:0.8;" x="67.03" xlink:href="#m0ea26da778" y="101.92"/>
      </g>
     </g>
     <g id="text_2">
      <!-- 4 -->
      <defs>
       <path d="M 32.328125 0 
L 32.328125 17.140625 
L 1.265625 17.140625 
L 1.265625 25.203125 
L 33.9375 71.578125 
L 41.109375 71.578125 
L 41.109375 25.203125 
L 50.78125 25.203125 
L 50.78125 17.140625 
L 41.109375 17.140625 
L 41.109375 0 
z
M 32.328125 25.203125 
L 32.328125 57.46875 
L 9.90625 25.203125 
z
" id="ArialMT-34"/>
      </defs>
      <g style="fill:#262626;" transform="translate(63.971484 116.793594)scale(0.11 -0.11)">
       <use xlink:href="#ArialMT-34"/>
      </g>
     </g>
    </g>
    <g id="xtick_3">
     <g id="line2d_3">
      <g>
       <use style="fill:#262626;stroke:#262626;stroke-width:0.8;" x="81.95" xlink:href="#m0ea26da778" y="101.92"/>
      </g>
     </g>
     <g id="text_3">
      <!-- 6 -->
      <defs>
       <path d="M 49.75 54.046875 
L 41.015625 53.375 
Q 39.84375 58.546875 37.703125 60.890625 
Q 34.125 64.65625 28.90625 64.65625 
Q 24.703125 64.65625 21.53125 62.3125 
Q 17.390625 59.28125 14.984375 53.46875 
Q 12.59375 47.65625 12.5 36.921875 
Q 15.671875 41.75 20.265625 44.09375 
Q 24.859375 46.4375 29.890625 46.4375 
Q 38.671875 46.4375 44.84375 39.96875 
Q 51.03125 33.5 51.03125 23.25 
Q 51.03125 16.5 48.125 10.71875 
Q 45.21875 4.9375 40.140625 1.859375 
Q 35.0625 -1.21875 28.609375 -1.21875 
Q 17.625 -1.21875 10.6875 6.859375 
Q 3.765625 14.9375 3.765625 33.5 
Q 3.765625 54.25 11.421875 63.671875 
Q 18.109375 71.875 29.4375 71.875 
Q 37.890625 71.875 43.28125 67.140625 
Q 48.6875 62.40625 49.75 54.046875 
z
M 13.875 23.1875 
Q 13.875 18.65625 15.796875 14.5 
Q 17.71875 10.359375 21.1875 8.171875 
Q 24.65625 6 28.46875 6 
Q 34.03125 6 38.03125 10.484375 
Q 42.046875 14.984375 42.046875 22.703125 
Q 42.046875 30.125 38.078125 34.390625 
Q 34.125 38.671875 28.125 38.671875 
Q 22.171875 38.671875 18.015625 34.390625 
Q 13.875 30.125 13.875 23.1875 
z
" id="ArialMT-36"/>
      </defs>
      <g style="fill:#262626;" transform="translate(78.891484 116.793594)scale(0.11 -0.11)">
       <use xlink:href="#ArialMT-36"/>
      </g>
     </g>
    </g>
    <g id="xtick_4">
     <g id="line2d_4">
      <g>
       <use style="fill:#262626;stroke:#262626;stroke-width:0.8;" x="96.87" xlink:href="#m0ea26da778" y="101.92"/>
      </g>
     </g>
     <g id="text_4">
      <!-- 8 -->
      <defs>
       <path d="M 17.671875 38.8125 
Q 12.203125 40.828125 9.5625 44.53125 
Q 6.9375 48.25 6.9375 53.421875 
Q 6.9375 61.234375 12.546875 66.546875 
Q 18.171875 71.875 27.484375 71.875 
Q 36.859375 71.875 42.578125 66.421875 
Q 48.296875 60.984375 48.296875 53.171875 
Q 48.296875 48.1875 45.671875 44.5 
Q 43.0625 40.828125 37.75 38.8125 
Q 44.34375 36.671875 47.78125 31.875 
Q 51.21875 27.09375 51.21875 20.453125 
Q 51.21875 11.28125 44.71875 5.03125 
Q 38.234375 -1.21875 27.640625 -1.21875 
Q 17.046875 -1.21875 10.546875 5.046875 
Q 4.046875 11.328125 4.046875 20.703125 
Q 4.046875 27.6875 7.59375 32.390625 
Q 11.140625 37.109375 17.671875 38.8125 
z
M 15.921875 53.71875 
Q 15.921875 48.640625 19.1875 45.40625 
Q 22.46875 42.1875 27.6875 42.1875 
Q 32.765625 42.1875 36.015625 45.375 
Q 39.265625 48.578125 39.265625 53.21875 
Q 39.265625 58.0625 35.90625 61.359375 
Q 32.5625 64.65625 27.59375 64.65625 
Q 22.5625 64.65625 19.234375 61.421875 
Q 15.921875 58.203125 15.921875 53.71875 
z
M 13.09375 20.65625 
Q 13.09375 16.890625 14.875 13.375 
Q 16.65625 9.859375 20.171875 7.921875 
Q 23.6875 6 27.734375 6 
Q 34.03125 6 38.125 10.046875 
Q 42.234375 14.109375 42.234375 20.359375 
Q 42.234375 26.703125 38.015625 30.859375 
Q 33.796875 35.015625 27.4375 35.015625 
Q 21.234375 35.015625 17.15625 30.90625 
Q 13.09375 26.8125 13.09375 20.65625 
z
" id="ArialMT-38"/>
      </defs>
      <g style="fill:#262626;" transform="translate(93.811484 116.793594)scale(0.11 -0.11)">
       <use xlink:href="#ArialMT-38"/>
      </g>
     </g>
    </g>
    <g id="xtick_5">
     <g id="line2d_5">
      <g>
       <use style="fill:#262626;stroke:#262626;stroke-width:0.8;" x="111.79" xlink:href="#m0ea26da778" y="101.92"/>
      </g>
     </g>
     <g id="text_5">
      <!-- 10 -->
      <defs>
       <path d="M 37.25 0 
L 28.46875 0 
L 28.46875 56 
Q 25.296875 52.984375 20.140625 49.953125 
Q 14.984375 46.921875 10.890625 45.40625 
L 10.890625 53.90625 
Q 18.265625 57.375 23.78125 62.296875 
Q 29.296875 67.234375 31.59375 71.875 
L 37.25 71.875 
z
" id="ArialMT-31"/>
       <path d="M 4.15625 35.296875 
Q 4.15625 48 6.765625 55.734375 
Q 9.375 63.484375 14.515625 67.671875 
Q 19.671875 71.875 27.484375 71.875 
Q 33.25 71.875 37.59375 69.546875 
Q 41.9375 67.234375 44.765625 62.859375 
Q 47.609375 58.5 49.21875 52.21875 
Q 50.828125 45.953125 50.828125 35.296875 
Q 50.828125 22.703125 48.234375 14.96875 
Q 45.65625 7.234375 40.5 3 
Q 35.359375 -1.21875 27.484375 -1.21875 
Q 17.140625 -1.21875 11.234375 6.203125 
Q 4.15625 15.140625 4.15625 35.296875 
z
M 13.1875 35.296875 
Q 13.1875 17.671875 17.3125 11.828125 
Q 21.4375 6 27.484375 6 
Q 33.546875 6 37.671875 11.859375 
Q 41.796875 17.71875 41.796875 35.296875 
Q 41.796875 52.984375 37.671875 58.78125 
Q 33.546875 64.59375 27.390625 64.59375 
Q 21.34375 64.59375 17.71875 59.46875 
Q 13.1875 52.9375 13.1875 35.296875 
z
" id="ArialMT-30"/>
      </defs>
      <g style="fill:#262626;" transform="translate(105.672969 116.793594)scale(0.11 -0.11)">
       <use xlink:href="#ArialMT-31"/>
       <use x="55.615234" xlink:href="#ArialMT-30"/>
      </g>
     </g>
    </g>
    <g id="xtick_6">
     <g id="line2d_6">
      <g>
       <use style="fill:#262626;stroke:#262626;stroke-width:0.8;" x="126.71" xlink:href="#m0ea26da778" y="101.92"/>
      </g>
     </g>
     <g id="text_6">
      <!-- 12 -->
      <g style="fill:#262626;" transform="translate(120.592969 116.793594)scale(0.11 -0.11)">
       <use xlink:href="#ArialMT-31"/>
       <use x="55.615234" xlink:href="#ArialMT-32"/>
      </g>
     </g>
    </g>
    <g id="text_7">
     <!-- pH -->
     <defs>
      <path d="M 6.59375 -19.875 
L 6.59375 51.859375 
L 14.59375 51.859375 
L 14.59375 45.125 
Q 17.4375 49.078125 21 51.046875 
Q 24.5625 53.03125 29.640625 53.03125 
Q 36.28125 53.03125 41.359375 49.609375 
Q 46.4375 46.1875 49.015625 39.953125 
Q 51.609375 33.734375 51.609375 26.3125 
Q 51.609375 18.359375 48.75 11.984375 
Q 45.90625 5.609375 40.453125 2.21875 
Q 35.015625 -1.171875 29 -1.171875 
Q 24.609375 -1.171875 21.109375 0.6875 
Q 17.625 2.546875 15.375 5.375 
L 15.375 -19.875 
z
M 14.546875 25.640625 
Q 14.546875 15.625 18.59375 10.84375 
Q 22.65625 6.0625 28.421875 6.0625 
Q 34.28125 6.0625 38.453125 11.015625 
Q 42.625 15.96875 42.625 26.375 
Q 42.625 36.28125 38.546875 41.203125 
Q 34.46875 46.140625 28.8125 46.140625 
Q 23.1875 46.140625 18.859375 40.890625 
Q 14.546875 35.640625 14.546875 25.640625 
z
" id="ArialMT-70"/>
      <path d="M 8.015625 0 
L 8.015625 71.578125 
L 17.484375 71.578125 
L 17.484375 42.1875 
L 54.6875 42.1875 
L 54.6875 71.578125 
L 64.15625 71.578125 
L 64.15625 0 
L 54.6875 0 
L 54.6875 33.734375 
L 17.484375 33.734375 
L 17.484375 0 
z
" id="ArialMT-48"/>
     </defs>
     <g style="fill:#262626;" transform="translate(82.379453 130.853437)scale(0.11 -0.11)">
      <use xlink:href="#ArialMT-70"/>
      <use x="55.615234" xlink:href="#ArialMT-48"/>
     </g>
    </g>
   </g>
   <g id="matplotlib.axis_2">
    <g id="ytick_1">
     <g id="line2d_7">
      <defs>
       <path d="M 0 0 
L -3.5 0 
" id="m8834c3ecbf" style="stroke:#262626;stroke-width:0.8;"/>
      </defs>
      <g>
       <use style="fill:#262626;stroke:#262626;stroke-width:0.8;" x="48.38" xlink:href="#m8834c3ecbf" y="100.17229"/>
      </g>
     </g>
     <g id="text_8">
      <!-- −1 -->
      <defs>
       <path d="M 52.828125 31.203125 
L 5.5625 31.203125 
L 5.5625 39.40625 
L 52.828125 39.40625 
z
" id="ArialMT-2212"/>
      </defs>
      <g style="fill:#262626;" transform="translate(28.838281 104.109086)scale(0.11 -0.11)">
       <use xlink:href="#ArialMT-2212"/>
       <use x="58.398438" xlink:href="#ArialMT-31"/>
      </g>
     </g>
    </g>
    <g id="ytick_2">
     <g id="line2d_8">
      <g>
       <use style="fill:#262626;stroke:#262626;stroke-width:0.8;" x="48.38" xlink:href="#m8834c3ecbf" y="65.21808"/>
      </g>
     </g>
     <g id="text_9">
      <!-- 0 -->
      <g style="fill:#262626;" transform="translate(35.262969 69.154877)scale(0.11 -0.11)">
       <use xlink:href="#ArialMT-30"/>
      </g>
     </g>
    </g>
    <g id="ytick_3">
     <g id="line2d_9">
      <g>
       <use style="fill:#262626;stroke:#262626;stroke-width:0.8;" x="48.38" xlink:href="#m8834c3ecbf" y="30.26387"/>
      </g>
     </g>
     <g id="text_10">
      <!-- 1 -->
      <g style="fill:#262626;" transform="translate(35.262969 34.200667)scale(0.11 -0.11)">
       <use xlink:href="#ArialMT-31"/>
      </g>
     </g>
    </g>
    <g id="text_11">
     <!-- $\langle q_\mathsf{total} \rangle$ -->
     <defs>
      <path d="M 8.9375 31.34375 
L 22.703125 75.875 
L 31 75.875 
L 17.234375 31.34375 
L 31 -13.1875 
L 22.703125 -13.1875 
z
" id="DejaVuSans-27e8"/>
      <path d="M 41.703125 8.203125 
Q 38.09375 3.46875 33.171875 1.015625 
Q 28.265625 -1.421875 22.3125 -1.421875 
Q 14.015625 -1.421875 9.296875 4.171875 
Q 4.59375 9.765625 4.59375 19.578125 
Q 4.59375 27.484375 7.5 34.859375 
Q 10.40625 42.234375 15.828125 48.09375 
Q 19.34375 51.90625 23.90625 53.953125 
Q 28.46875 56 33.5 56 
Q 39.546875 56 43.453125 53.609375 
Q 47.359375 51.21875 49.125 46.390625 
L 50.6875 54.59375 
L 59.71875 54.59375 
L 45.125 -20.609375 
L 36.078125 -20.609375 
z
M 13.921875 20.90625 
Q 13.921875 13.671875 16.9375 9.890625 
Q 19.96875 6.109375 25.6875 6.109375 
Q 34.1875 6.109375 40.1875 14.234375 
Q 46.1875 22.359375 46.1875 33.984375 
Q 46.1875 41.015625 43.078125 44.75 
Q 39.984375 48.484375 34.1875 48.484375 
Q 29.9375 48.484375 26.3125 46.5 
Q 22.703125 44.53125 20.015625 40.71875 
Q 17.1875 36.71875 15.546875 31.34375 
Q 13.921875 25.984375 13.921875 20.90625 
z
" id="DejaVuSans-Oblique-71"/>
      <path d="M 18.3125 70.21875 
L 18.3125 54.6875 
L 36.8125 54.6875 
L 36.8125 47.703125 
L 18.3125 47.703125 
L 18.3125 18.015625 
Q 18.3125 11.328125 20.140625 9.421875 
Q 21.96875 7.515625 27.59375 7.515625 
L 36.8125 7.515625 
L 36.8125 0 
L 27.59375 0 
Q 17.1875 0 13.234375 3.875 
Q 9.28125 7.765625 9.28125 18.015625 
L 9.28125 47.703125 
L 2.6875 47.703125 
L 2.6875 54.6875 
L 9.28125 54.6875 
L 9.28125 70.21875 
z
" id="DejaVuSans-74"/>
      <path d="M 30.609375 48.390625 
Q 23.390625 48.390625 19.1875 42.75 
Q 14.984375 37.109375 14.984375 27.296875 
Q 14.984375 17.484375 19.15625 11.84375 
Q 23.34375 6.203125 30.609375 6.203125 
Q 37.796875 6.203125 41.984375 11.859375 
Q 46.1875 17.53125 46.1875 27.296875 
Q 46.1875 37.015625 41.984375 42.703125 
Q 37.796875 48.390625 30.609375 48.390625 
z
M 30.609375 56 
Q 42.328125 56 49.015625 48.375 
Q 55.71875 40.765625 55.71875 27.296875 
Q 55.71875 13.875 49.015625 6.21875 
Q 42.328125 -1.421875 30.609375 -1.421875 
Q 18.84375 -1.421875 12.171875 6.21875 
Q 5.515625 13.875 5.515625 27.296875 
Q 5.515625 40.765625 12.171875 48.375 
Q 18.84375 56 30.609375 56 
z
" id="DejaVuSans-6f"/>
      <path d="M 34.28125 27.484375 
Q 23.390625 27.484375 19.1875 25 
Q 14.984375 22.515625 14.984375 16.5 
Q 14.984375 11.71875 18.140625 8.90625 
Q 21.296875 6.109375 26.703125 6.109375 
Q 34.1875 6.109375 38.703125 11.40625 
Q 43.21875 16.703125 43.21875 25.484375 
L 43.21875 27.484375 
z
M 52.203125 31.203125 
L 52.203125 0 
L 43.21875 0 
L 43.21875 8.296875 
Q 40.140625 3.328125 35.546875 0.953125 
Q 30.953125 -1.421875 24.3125 -1.421875 
Q 15.921875 -1.421875 10.953125 3.296875 
Q 6 8.015625 6 15.921875 
Q 6 25.140625 12.171875 29.828125 
Q 18.359375 34.515625 30.609375 34.515625 
L 43.21875 34.515625 
L 43.21875 35.40625 
Q 43.21875 41.609375 39.140625 45 
Q 35.0625 48.390625 27.6875 48.390625 
Q 23 48.390625 18.546875 47.265625 
Q 14.109375 46.140625 10.015625 43.890625 
L 10.015625 52.203125 
Q 14.9375 54.109375 19.578125 55.046875 
Q 24.21875 56 28.609375 56 
Q 40.484375 56 46.34375 49.84375 
Q 52.203125 43.703125 52.203125 31.203125 
z
" id="DejaVuSans-61"/>
      <path d="M 9.421875 75.984375 
L 18.40625 75.984375 
L 18.40625 0 
L 9.421875 0 
z
" id="DejaVuSans-6c"/>
      <path d="M 30.078125 31.34375 
L 16.3125 -13.1875 
L 8.015625 -13.1875 
L 21.78125 31.34375 
L 8.015625 75.875 
L 16.3125 75.875 
z
" id="DejaVuSans-27e9"/>
     </defs>
     <g style="fill:#262626;" transform="translate(22.528281 81.475)rotate(-90)scale(0.11 -0.11)">
      <use transform="translate(0 0.125)" xlink:href="#DejaVuSans-27e8"/>
      <use transform="translate(39.013672 0.125)" xlink:href="#DejaVuSans-Oblique-71"/>
      <use transform="translate(102.490234 -16.28125)scale(0.7)" xlink:href="#DejaVuSans-74"/>
      <use transform="translate(129.936523 -16.28125)scale(0.7)" xlink:href="#DejaVuSans-6f"/>
      <use transform="translate(172.763672 -16.28125)scale(0.7)" xlink:href="#DejaVuSans-74"/>
      <use transform="translate(200.209961 -16.28125)scale(0.7)" xlink:href="#DejaVuSans-61"/>
      <use transform="translate(243.105469 -16.28125)scale(0.7)" xlink:href="#DejaVuSans-6c"/>
      <use transform="translate(265.288086 0.125)" xlink:href="#DejaVuSans-27e9"/>
     </g>
    </g>
   </g>
   <g id="PolyCollection_1">
    <defs>
     <path d="M 52.11 -113.29156 
L 52.11 -113.29156 
L 52.856 -113.178286 
L 53.602 -113.036736 
L 54.348 -112.860184 
L 55.094 -112.640488 
L 55.84 -112.367903 
L 56.586 -112.030917 
L 57.332 -111.616173 
L 58.078 -111.108525 
L 58.824 -110.491328 
L 59.57 -109.747049 
L 60.316 -108.858311 
L 61.062 -107.809466 
L 61.808 -106.58869 
L 62.554 -105.190486 
L 63.3 -103.618285 
L 64.046 -101.886621 
L 64.792 -100.022233 
L 65.538 -98.063485 
L 66.284 -96.057821 
L 67.03 -94.057444 
L 67.776 -92.114011 
L 68.522 -90.273446 
L 69.268 -88.57193 
L 70.014 -87.033746 
L 70.76 -85.671074 
L 71.506 -84.485365 
L 72.252 -83.469644 
L 72.998 -82.611132 
L 73.744 -81.893683 
L 74.49 -81.299782 
L 75.236 -80.812005 
L 75.982 -80.413969 
L 76.728 -80.090873 
L 77.474 -79.829728 
L 78.22 -79.619387 
L 78.966 -79.450438 
L 79.712 -79.31504 
L 80.458 -79.206725 
L 81.204 -79.1202 
L 81.95 -79.051161 
L 82.696 -78.996125 
L 83.442 -78.952284 
L 84.188 -78.917381 
L 84.934 -78.889606 
L 85.68 -78.867513 
L 86.426 -78.849943 
L 87.172 -78.835974 
L 87.918 -78.82487 
L 88.664 -78.816045 
L 89.41 -78.809032 
L 90.156 -78.80346 
L 90.902 -78.799032 
L 91.648 -78.795514 
L 92.394 -78.792719 
L 93.14 -78.790498 
L 93.886 -78.788734 
L 94.632 -78.787333 
L 95.378 -78.78622 
L 96.124 -78.785336 
L 96.87 -78.784633 
L 97.616 -78.784075 
L 98.362 -78.783632 
L 99.108 -78.78328 
L 99.854 -78.783 
L 100.6 -78.782778 
L 101.346 -78.782602 
L 102.092 -78.782462 
L 102.838 -78.78235 
L 103.584 -78.782262 
L 104.33 -78.782192 
L 105.076 -78.782136 
L 105.822 -78.782091 
L 106.568 -78.782056 
L 107.314 -78.782028 
L 108.06 -78.782006 
L 108.806 -78.781988 
L 109.552 -78.781974 
L 110.298 -78.781963 
L 111.044 -78.781954 
L 111.79 -78.781947 
L 112.536 -78.781942 
L 113.282 -78.781937 
L 114.028 -78.781934 
L 114.774 -78.781931 
L 115.52 -78.781929 
L 116.266 -78.781927 
L 117.012 -78.781926 
L 117.758 -78.781925 
L 118.504 -78.781924 
L 119.25 -78.781923 
L 119.996 -78.781922 
L 120.742 -78.781922 
L 121.488 -78.781922 
L 122.234 -78.781921 
L 122.98 -78.781921 
L 123.726 -78.781921 
L 124.472 -78.781921 
L 125.218 -78.781921 
L 125.964 -78.781921 
L 126.71 -78.781921 
L 126.71 -78.781921 
L 126.71 -48.722754 
L 125.964 -49.77457 
L 125.218 -50.998479 
L 124.472 -52.399839 
L 123.726 -53.97504 
L 122.98 -55.709336 
L 122.234 -57.575771 
L 121.488 -59.535789 
L 120.742 -61.541822 
L 119.996 -63.541628 
L 119.25 -65.483608 
L 118.504 -67.321981 
L 117.758 -69.020766 
L 117.012 -70.555899 
L 116.266 -71.915405 
L 115.52 -73.098008 
L 114.774 -74.110806 
L 114.028 -74.966661 
L 113.282 -75.681757 
L 112.536 -76.273619 
L 111.79 -76.759661 
L 111.044 -77.15624 
L 110.298 -77.478128 
L 109.552 -77.738277 
L 108.806 -77.947807 
L 108.06 -78.116097 
L 107.314 -78.250964 
L 106.568 -78.358853 
L 105.822 -78.445037 
L 105.076 -78.513805 
L 104.33 -78.568627 
L 103.584 -78.612302 
L 102.838 -78.647077 
L 102.092 -78.674756 
L 101.346 -78.696781 
L 100.6 -78.714306 
L 99.854 -78.728252 
L 99.108 -78.739353 
L 98.362 -78.748195 
L 97.616 -78.755247 
L 96.87 -78.760882 
L 96.124 -78.765399 
L 95.378 -78.769037 
L 94.632 -78.77199 
L 93.886 -78.774415 
L 93.14 -78.776441 
L 92.394 -78.778175 
L 91.648 -78.779709 
L 90.902 -78.781126 
L 90.156 -78.782501 
L 89.41 -78.783907 
L 88.664 -78.785418 
L 87.918 -78.787115 
L 87.172 -78.789089 
L 86.426 -78.791444 
L 85.68 -78.794307 
L 84.934 -78.797827 
L 84.188 -78.802194 
L 83.442 -78.807638 
L 82.696 -78.814449 
L 81.95 -78.822987 
L 81.204 -78.833705 
L 80.458 -78.847167 
L 79.712 -78.864084 
L 78.966 -78.885345 
L 78.22 -78.912064 
L 77.474 -78.945636 
L 76.728 -78.987801 
L 75.982 -79.040734 
L 75.236 -79.107139 
L 74.49 -79.190375 
L 73.744 -79.294593 
L 72.998 -79.424903 
L 72.252 -79.587557 
L 71.506 -79.790145 
L 70.76 -80.041794 
L 70.014 -80.353345 
L 69.268 -80.737466 
L 68.522 -81.208655 
L 67.776 -81.783051 
L 67.03 -82.477955 
L 66.284 -83.310955 
L 65.538 -84.298559 
L 64.792 -85.454292 
L 64.046 -86.786314 
L 63.3 -88.294808 
L 62.554 -89.969573 
L 61.808 -91.788448 
L 61.062 -93.717205 
L 60.316 -95.711359 
L 59.57 -97.719889 
L 58.824 -99.690298 
L 58.078 -101.573975 
L 57.332 -103.330754 
L 56.586 -104.931798 
L 55.84 -106.360509 
L 55.094 -107.611679 
L 54.348 -108.689447 
L 53.602 -109.604733 
L 52.856 -110.372691 
L 52.11 -111.010526 
z
" id="m4aef2862f1" style="stroke:#ffffff;stroke-opacity:0.7;"/>
    </defs>
    <g clip-path="url(#p6b2681327e)">
     <use style="fill:#591e71;fill-opacity:0.7;stroke:#ffffff;stroke-opacity:0.7;" x="0" xlink:href="#m4aef2862f1" y="144"/>
    </g>
   </g>
   <g id="line2d_10">
    <path clip-path="url(#p6b2681327e)" d="M 52.11 30.70844 
L 52.856 30.821714 
L 53.602 30.963264 
L 54.348 31.139816 
L 55.094 31.359512 
L 55.84 31.632097 
L 56.586 31.969083 
L 57.332 32.383827 
L 58.078 32.891475 
L 58.824 33.508672 
L 59.57 34.252951 
L 60.316 35.141689 
L 61.062 36.190534 
L 61.808 37.41131 
L 62.554 38.809514 
L 63.3 40.381715 
L 64.046 42.113379 
L 64.792 43.977767 
L 65.538 45.936515 
L 66.284 47.942179 
L 67.03 49.942556 
L 67.776 51.885989 
L 68.522 53.726554 
L 69.268 55.42807 
L 70.014 56.966254 
L 70.76 58.328926 
L 71.506 59.514635 
L 72.252 60.530356 
L 72.998 61.388868 
L 73.744 62.106317 
L 74.49 62.700218 
L 75.236 63.187995 
L 75.982 63.586031 
L 76.728 63.909127 
L 77.474 64.170272 
L 78.22 64.380613 
L 78.966 64.549562 
L 79.712 64.68496 
L 80.458 64.793275 
L 81.204 64.8798 
L 81.95 64.948839 
L 82.696 65.003875 
L 83.442 65.047716 
L 84.188 65.082619 
L 84.934 65.110394 
L 85.68 65.132487 
L 86.426 65.150057 
L 87.172 65.164026 
L 87.918 65.17513 
L 88.664 65.183955 
L 89.41 65.190968 
L 90.156 65.19654 
L 90.902 65.200968 
L 91.648 65.204486 
L 92.394 65.207281 
L 93.14 65.209502 
L 93.886 65.211266 
L 94.632 65.212667 
L 95.378 65.21378 
L 96.124 65.214664 
L 96.87 65.215367 
L 97.616 65.215925 
L 98.362 65.216368 
L 99.108 65.21672 
L 99.854 65.217 
L 100.6 65.217222 
L 101.346 65.217398 
L 102.092 65.217538 
L 102.838 65.21765 
L 103.584 65.217738 
L 104.33 65.217808 
L 105.076 65.217864 
L 105.822 65.217909 
L 106.568 65.217944 
L 107.314 65.217972 
L 108.06 65.217994 
L 108.806 65.218012 
L 109.552 65.218026 
L 110.298 65.218037 
L 111.044 65.218046 
L 111.79 65.218053 
L 112.536 65.218058 
L 113.282 65.218063 
L 114.028 65.218066 
L 114.774 65.218069 
L 115.52 65.218071 
L 116.266 65.218073 
L 117.012 65.218074 
L 117.758 65.218075 
L 118.504 65.218076 
L 119.25 65.218077 
L 119.996 65.218078 
L 120.742 65.218078 
L 121.488 65.218078 
L 122.234 65.218079 
L 122.98 65.218079 
L 123.726 65.218079 
L 124.472 65.218079 
L 125.218 65.218079 
L 125.964 65.218079 
L 126.71 65.218079 
" style="fill:none;stroke:#333333;stroke-dasharray:1.5,2.475;stroke-dashoffset:0;stroke-width:1.5;"/>
   </g>
   <g id="line2d_11">
    <path clip-path="url(#p6b2681327e)" d="M 52.11 32.989474 
L 52.856 33.627309 
L 53.602 34.395267 
L 54.348 35.310553 
L 55.094 36.388321 
L 55.84 37.639491 
L 56.586 39.068202 
L 57.332 40.669246 
L 58.078 42.426025 
L 58.824 44.309702 
L 59.57 46.280111 
L 60.316 48.288641 
L 61.062 50.282795 
L 61.808 52.211552 
L 62.554 54.030427 
L 63.3 55.705192 
L 64.046 57.213686 
L 64.792 58.545708 
L 65.538 59.701441 
L 66.284 60.689045 
L 67.03 61.522045 
L 67.776 62.216949 
L 68.522 62.791345 
L 69.268 63.262534 
L 70.014 63.646655 
L 70.76 63.958206 
L 71.506 64.209855 
L 72.252 64.412443 
L 72.998 64.575097 
L 73.744 64.705407 
L 74.49 64.809625 
L 75.236 64.892861 
L 75.982 64.959266 
L 76.728 65.012199 
L 77.474 65.054364 
L 78.22 65.087936 
L 78.966 65.114655 
L 79.712 65.135916 
L 80.458 65.152833 
L 81.204 65.166295 
L 81.95 65.177013 
L 82.696 65.185551 
L 83.442 65.192362 
L 84.188 65.197806 
L 84.934 65.202173 
L 85.68 65.205693 
L 86.426 65.208556 
L 87.172 65.210911 
L 87.918 65.212885 
L 88.664 65.214582 
L 89.41 65.216093 
L 90.156 65.217499 
L 90.902 65.218874 
L 91.648 65.220291 
L 92.394 65.221825 
L 93.14 65.223559 
L 93.886 65.225585 
L 94.632 65.22801 
L 95.378 65.230963 
L 96.124 65.234601 
L 96.87 65.239118 
L 97.616 65.244753 
L 98.362 65.251805 
L 99.108 65.260647 
L 99.854 65.271748 
L 100.6 65.285694 
L 101.346 65.303219 
L 102.092 65.325244 
L 102.838 65.352923 
L 103.584 65.387698 
L 104.33 65.431373 
L 105.076 65.486195 
L 105.822 65.554963 
L 106.568 65.641147 
L 107.314 65.749036 
L 108.06 65.883903 
L 108.806 66.052193 
L 109.552 66.261723 
L 110.298 66.521872 
L 111.044 66.84376 
L 111.79 67.240339 
L 112.536 67.726381 
L 113.282 68.318243 
L 114.028 69.033339 
L 114.774 69.889194 
L 115.52 70.901992 
L 116.266 72.084595 
L 117.012 73.444101 
L 117.758 74.979234 
L 118.504 76.678019 
L 119.25 78.516392 
L 119.996 80.458372 
L 120.742 82.458178 
L 121.488 84.464211 
L 122.234 86.424229 
L 122.98 88.290664 
L 123.726 90.02496 
L 124.472 91.600161 
L 125.218 93.001521 
L 125.964 94.22543 
L 126.71 95.277246 
" style="fill:none;stroke:#333333;stroke-linecap:round;stroke-width:1.5;"/>
   </g>
   <g id="patch_3">
    <path d="M 48.38 101.92 
L 48.38 27.48 
" style="fill:none;stroke:#262626;stroke-linecap:square;stroke-linejoin:miter;stroke-width:0.8;"/>
   </g>
   <g id="patch_4">
    <path d="M 48.38 101.92 
L 130.44 101.92 
" style="fill:none;stroke:#262626;stroke-linecap:square;stroke-linejoin:miter;stroke-width:0.8;"/>
   </g>
   <g id="text_12">
    <!-- $\Delta$ area : 1.69 -->
    <defs>
     <path d="M 34.1875 63.1875 
L 14.15625 8.203125 
L 54.25 8.203125 
z
M 0.78125 0 
L 28.609375 72.90625 
L 39.796875 72.90625 
L 67.578125 0 
z
" id="DejaVuSans-394"/>
     <path id="ArialMT-20"/>
     <path d="M 40.4375 6.390625 
Q 35.546875 2.25 31.03125 0.53125 
Q 26.515625 -1.171875 21.34375 -1.171875 
Q 12.796875 -1.171875 8.203125 3 
Q 3.609375 7.171875 3.609375 13.671875 
Q 3.609375 17.484375 5.34375 20.625 
Q 7.078125 23.78125 9.890625 25.6875 
Q 12.703125 27.59375 16.21875 28.5625 
Q 18.796875 29.25 24.03125 29.890625 
Q 34.671875 31.15625 39.703125 32.90625 
Q 39.75 34.71875 39.75 35.203125 
Q 39.75 40.578125 37.25 42.78125 
Q 33.890625 45.75 27.25 45.75 
Q 21.046875 45.75 18.09375 43.578125 
Q 15.140625 41.40625 13.71875 35.890625 
L 5.125 37.0625 
Q 6.296875 42.578125 8.984375 45.96875 
Q 11.671875 49.359375 16.75 51.1875 
Q 21.828125 53.03125 28.515625 53.03125 
Q 35.15625 53.03125 39.296875 51.46875 
Q 43.453125 49.90625 45.40625 47.53125 
Q 47.359375 45.171875 48.140625 41.546875 
Q 48.578125 39.3125 48.578125 33.453125 
L 48.578125 21.734375 
Q 48.578125 9.46875 49.140625 6.21875 
Q 49.703125 2.984375 51.375 0 
L 42.1875 0 
Q 40.828125 2.734375 40.4375 6.390625 
z
M 39.703125 26.03125 
Q 34.90625 24.078125 25.34375 22.703125 
Q 19.921875 21.921875 17.671875 20.9375 
Q 15.4375 19.96875 14.203125 18.09375 
Q 12.984375 16.21875 12.984375 13.921875 
Q 12.984375 10.40625 15.640625 8.0625 
Q 18.3125 5.71875 23.4375 5.71875 
Q 28.515625 5.71875 32.46875 7.9375 
Q 36.421875 10.15625 38.28125 14.015625 
Q 39.703125 17 39.703125 22.796875 
z
" id="ArialMT-61"/>
     <path d="M 6.5 0 
L 6.5 51.859375 
L 14.40625 51.859375 
L 14.40625 44 
Q 17.4375 49.515625 20 51.265625 
Q 22.5625 53.03125 25.640625 53.03125 
Q 30.078125 53.03125 34.671875 50.203125 
L 31.640625 42.046875 
Q 28.421875 43.953125 25.203125 43.953125 
Q 22.3125 43.953125 20.015625 42.21875 
Q 17.71875 40.484375 16.75 37.40625 
Q 15.28125 32.71875 15.28125 27.15625 
L 15.28125 0 
z
" id="ArialMT-72"/>
     <path d="M 42.09375 16.703125 
L 51.171875 15.578125 
Q 49.03125 7.625 43.21875 3.21875 
Q 37.40625 -1.171875 28.375 -1.171875 
Q 17 -1.171875 10.328125 5.828125 
Q 3.65625 12.84375 3.65625 25.484375 
Q 3.65625 38.578125 10.390625 45.796875 
Q 17.140625 53.03125 27.875 53.03125 
Q 38.28125 53.03125 44.875 45.953125 
Q 51.46875 38.875 51.46875 26.03125 
Q 51.46875 25.25 51.421875 23.6875 
L 12.75 23.6875 
Q 13.234375 15.140625 17.578125 10.59375 
Q 21.921875 6.0625 28.421875 6.0625 
Q 33.25 6.0625 36.671875 8.59375 
Q 40.09375 11.140625 42.09375 16.703125 
z
M 13.234375 30.90625 
L 42.1875 30.90625 
Q 41.609375 37.453125 38.875 40.71875 
Q 34.671875 45.796875 27.984375 45.796875 
Q 21.921875 45.796875 17.796875 41.75 
Q 13.671875 37.703125 13.234375 30.90625 
z
" id="ArialMT-65"/>
     <path d="M 9.03125 41.84375 
L 9.03125 51.859375 
L 19.046875 51.859375 
L 19.046875 41.84375 
z
M 9.03125 0 
L 9.03125 10.015625 
L 19.046875 10.015625 
L 19.046875 0 
z
" id="ArialMT-3a"/>
     <path d="M 9.078125 0 
L 9.078125 10.015625 
L 19.09375 10.015625 
L 19.09375 0 
z
" id="ArialMT-2e"/>
     <path d="M 5.46875 16.546875 
L 13.921875 17.328125 
Q 14.984375 11.375 18.015625 8.6875 
Q 21.046875 6 25.78125 6 
Q 29.828125 6 32.875 7.859375 
Q 35.9375 9.71875 37.890625 12.8125 
Q 39.84375 15.921875 41.15625 21.1875 
Q 42.484375 26.46875 42.484375 31.9375 
Q 42.484375 32.515625 42.4375 33.6875 
Q 39.796875 29.5 35.234375 26.875 
Q 30.671875 24.265625 25.34375 24.265625 
Q 16.453125 24.265625 10.296875 30.703125 
Q 4.15625 37.15625 4.15625 47.703125 
Q 4.15625 58.59375 10.578125 65.234375 
Q 17 71.875 26.65625 71.875 
Q 33.640625 71.875 39.421875 68.109375 
Q 45.21875 64.359375 48.21875 57.390625 
Q 51.21875 50.4375 51.21875 37.25 
Q 51.21875 23.53125 48.234375 15.40625 
Q 45.265625 7.28125 39.375 3.03125 
Q 33.5 -1.21875 25.59375 -1.21875 
Q 17.1875 -1.21875 11.859375 3.4375 
Q 6.546875 8.109375 5.46875 16.546875 
z
M 41.453125 48.140625 
Q 41.453125 55.71875 37.421875 60.15625 
Q 33.40625 64.59375 27.734375 64.59375 
Q 21.875 64.59375 17.53125 59.8125 
Q 13.1875 55.03125 13.1875 47.40625 
Q 13.1875 40.578125 17.3125 36.296875 
Q 21.4375 32.03125 27.484375 32.03125 
Q 33.59375 32.03125 37.515625 36.296875 
Q 41.453125 40.578125 41.453125 48.140625 
z
" id="ArialMT-39"/>
    </defs>
    <g style="fill:#262626;" transform="translate(51.46 21.48)scale(0.132 -0.132)">
     <use transform="translate(0 0.09375)" xlink:href="#DejaVuSans-394"/>
     <use transform="translate(68.408203 0.09375)" xlink:href="#ArialMT-20"/>
     <use transform="translate(96.191406 0.09375)" xlink:href="#ArialMT-61"/>
     <use transform="translate(151.806641 0.09375)" xlink:href="#ArialMT-72"/>
     <use transform="translate(185.107422 0.09375)" xlink:href="#ArialMT-65"/>
     <use transform="translate(240.722656 0.09375)" xlink:href="#ArialMT-61"/>
     <use transform="translate(296.337891 0.09375)" xlink:href="#ArialMT-20"/>
     <use transform="translate(324.121094 0.09375)" xlink:href="#ArialMT-3a"/>
     <use transform="translate(351.904297 0.09375)" xlink:href="#ArialMT-20"/>
     <use transform="translate(379.6875 0.09375)" xlink:href="#ArialMT-31"/>
     <use transform="translate(435.302734 0.09375)" xlink:href="#ArialMT-2e"/>
     <use transform="translate(463.085938 0.09375)" xlink:href="#ArialMT-36"/>
     <use transform="translate(518.701172 0.09375)" xlink:href="#ArialMT-39"/>
    </g>
   </g>
  </g>
 </g>
 <defs>
  <clipPath id="p6b2681327e">
   <rect height="74.44" width="82.06" x="48.38" y="27.48"/>
  </clipPath>
 </defs>
</svg>
