<?xml version="1.0" encoding="utf-8" standalone="no"?>
<!DOCTYPE svg PUBLIC "-//W3C//DTD SVG 1.1//EN"
  "http://www.w3.org/Graphics/SVG/1.1/DTD/svg11.dtd">
<!-- Created with matplotlib (http://matplotlib.org/) -->
<svg height="144pt" version="1.1" viewBox="0 0 144 144" width="144pt" xmlns="http://www.w3.org/2000/svg" xmlns:xlink="http://www.w3.org/1999/xlink">
 <defs>
  <style type="text/css">
*{stroke-linecap:butt;stroke-linejoin:round;}
  </style>
 </defs>
 <g id="figure_1">
  <g id="patch_1">
   <path d="M 0 144 
L 144 144 
L 144 0 
L 0 0 
z
" style="fill:#ffffff;"/>
  </g>
  <g id="axes_1">
   <g id="patch_2">
    <path d="M 47.6 101.92 
L 130.44 101.92 
L 130.44 15.236964 
L 47.6 15.236964 
z
" style="fill:#ffffff;"/>
   </g>
   <g id="matplotlib.axis_1">
    <g id="xtick_1">
     <g id="line2d_1">
      <defs>
       <path d="M 0 0 
L 0 3.5 
" id="mb2fd12c4c8" style="stroke:#262626;stroke-width:0.8;"/>
      </defs>
      <g>
       <use style="fill:#262626;stroke:#262626;stroke-width:0.8;" x="51.365455" xlink:href="#mb2fd12c4c8" y="101.92"/>
      </g>
     </g>
     <g id="text_1">
      <!-- 2 -->
      <defs>
       <path d="M 50.34375 8.453125 
L 50.34375 0 
L 3.03125 0 
Q 2.9375 3.171875 4.046875 6.109375 
Q 5.859375 10.9375 9.828125 15.625 
Q 13.8125 20.3125 21.34375 26.46875 
Q 33.015625 36.03125 37.109375 41.625 
Q 41.21875 47.21875 41.21875 52.203125 
Q 41.21875 57.421875 37.46875 61 
Q 33.734375 64.59375 27.734375 64.59375 
Q 21.390625 64.59375 17.578125 60.78125 
Q 13.765625 56.984375 13.71875 50.25 
L 4.6875 51.171875 
Q 5.609375 61.28125 11.65625 66.578125 
Q 17.71875 71.875 27.9375 71.875 
Q 38.234375 71.875 44.234375 66.15625 
Q 50.25 60.453125 50.25 52 
Q 50.25 47.703125 48.484375 43.546875 
Q 46.734375 39.40625 42.65625 34.8125 
Q 38.578125 30.21875 29.109375 22.21875 
Q 21.1875 15.578125 18.9375 13.203125 
Q 16.703125 10.84375 15.234375 8.453125 
z
" id="ArialMT-32"/>
      </defs>
      <g style="fill:#262626;" transform="translate(48.306939 116.793594)scale(0.11 -0.11)">
       <use xlink:href="#ArialMT-32"/>
      </g>
     </g>
    </g>
    <g id="xtick_2">
     <g id="line2d_2">
      <g>
       <use style="fill:#262626;stroke:#262626;stroke-width:0.8;" x="66.427273" xlink:href="#mb2fd12c4c8" y="101.92"/>
      </g>
     </g>
     <g id="text_2">
      <!-- 4 -->
      <defs>
       <path d="M 32.328125 0 
L 32.328125 17.140625 
L 1.265625 17.140625 
L 1.265625 25.203125 
L 33.9375 71.578125 
L 41.109375 71.578125 
L 41.109375 25.203125 
L 50.78125 25.203125 
L 50.78125 17.140625 
L 41.109375 17.140625 
L 41.109375 0 
z
M 32.328125 25.203125 
L 32.328125 57.46875 
L 9.90625 25.203125 
z
" id="ArialMT-34"/>
      </defs>
      <g style="fill:#262626;" transform="translate(63.368757 116.793594)scale(0.11 -0.11)">
       <use xlink:href="#ArialMT-34"/>
      </g>
     </g>
    </g>
    <g id="xtick_3">
     <g id="line2d_3">
      <g>
       <use style="fill:#262626;stroke:#262626;stroke-width:0.8;" x="81.489091" xlink:href="#mb2fd12c4c8" y="101.92"/>
      </g>
     </g>
     <g id="text_3">
      <!-- 6 -->
      <defs>
       <path d="M 49.75 54.046875 
L 41.015625 53.375 
Q 39.84375 58.546875 37.703125 60.890625 
Q 34.125 64.65625 28.90625 64.65625 
Q 24.703125 64.65625 21.53125 62.3125 
Q 17.390625 59.28125 14.984375 53.46875 
Q 12.59375 47.65625 12.5 36.921875 
Q 15.671875 41.75 20.265625 44.09375 
Q 24.859375 46.4375 29.890625 46.4375 
Q 38.671875 46.4375 44.84375 39.96875 
Q 51.03125 33.5 51.03125 23.25 
Q 51.03125 16.5 48.125 10.71875 
Q 45.21875 4.9375 40.140625 1.859375 
Q 35.0625 -1.21875 28.609375 -1.21875 
Q 17.625 -1.21875 10.6875 6.859375 
Q 3.765625 14.9375 3.765625 33.5 
Q 3.765625 54.25 11.421875 63.671875 
Q 18.109375 71.875 29.4375 71.875 
Q 37.890625 71.875 43.28125 67.140625 
Q 48.6875 62.40625 49.75 54.046875 
z
M 13.875 23.1875 
Q 13.875 18.65625 15.796875 14.5 
Q 17.71875 10.359375 21.1875 8.171875 
Q 24.65625 6 28.46875 6 
Q 34.03125 6 38.03125 10.484375 
Q 42.046875 14.984375 42.046875 22.703125 
Q 42.046875 30.125 38.078125 34.390625 
Q 34.125 38.671875 28.125 38.671875 
Q 22.171875 38.671875 18.015625 34.390625 
Q 13.875 30.125 13.875 23.1875 
z
" id="ArialMT-36"/>
      </defs>
      <g style="fill:#262626;" transform="translate(78.430575 116.793594)scale(0.11 -0.11)">
       <use xlink:href="#ArialMT-36"/>
      </g>
     </g>
    </g>
    <g id="xtick_4">
     <g id="line2d_4">
      <g>
       <use style="fill:#262626;stroke:#262626;stroke-width:0.8;" x="96.550909" xlink:href="#mb2fd12c4c8" y="101.92"/>
      </g>
     </g>
     <g id="text_4">
      <!-- 8 -->
      <defs>
       <path d="M 17.671875 38.8125 
Q 12.203125 40.828125 9.5625 44.53125 
Q 6.9375 48.25 6.9375 53.421875 
Q 6.9375 61.234375 12.546875 66.546875 
Q 18.171875 71.875 27.484375 71.875 
Q 36.859375 71.875 42.578125 66.421875 
Q 48.296875 60.984375 48.296875 53.171875 
Q 48.296875 48.1875 45.671875 44.5 
Q 43.0625 40.828125 37.75 38.8125 
Q 44.34375 36.671875 47.78125 31.875 
Q 51.21875 27.09375 51.21875 20.453125 
Q 51.21875 11.28125 44.71875 5.03125 
Q 38.234375 -1.21875 27.640625 -1.21875 
Q 17.046875 -1.21875 10.546875 5.046875 
Q 4.046875 11.328125 4.046875 20.703125 
Q 4.046875 27.6875 7.59375 32.390625 
Q 11.140625 37.109375 17.671875 38.8125 
z
M 15.921875 53.71875 
Q 15.921875 48.640625 19.1875 45.40625 
Q 22.46875 42.1875 27.6875 42.1875 
Q 32.765625 42.1875 36.015625 45.375 
Q 39.265625 48.578125 39.265625 53.21875 
Q 39.265625 58.0625 35.90625 61.359375 
Q 32.5625 64.65625 27.59375 64.65625 
Q 22.5625 64.65625 19.234375 61.421875 
Q 15.921875 58.203125 15.921875 53.71875 
z
M 13.09375 20.65625 
Q 13.09375 16.890625 14.875 13.375 
Q 16.65625 9.859375 20.171875 7.921875 
Q 23.6875 6 27.734375 6 
Q 34.03125 6 38.125 10.046875 
Q 42.234375 14.109375 42.234375 20.359375 
Q 42.234375 26.703125 38.015625 30.859375 
Q 33.796875 35.015625 27.4375 35.015625 
Q 21.234375 35.015625 17.15625 30.90625 
Q 13.09375 26.8125 13.09375 20.65625 
z
" id="ArialMT-38"/>
      </defs>
      <g style="fill:#262626;" transform="translate(93.492393 116.793594)scale(0.11 -0.11)">
       <use xlink:href="#ArialMT-38"/>
      </g>
     </g>
    </g>
    <g id="xtick_5">
     <g id="line2d_5">
      <g>
       <use style="fill:#262626;stroke:#262626;stroke-width:0.8;" x="111.612727" xlink:href="#mb2fd12c4c8" y="101.92"/>
      </g>
     </g>
     <g id="text_5">
      <!-- 10 -->
      <defs>
       <path d="M 37.25 0 
L 28.46875 0 
L 28.46875 56 
Q 25.296875 52.984375 20.140625 49.953125 
Q 14.984375 46.921875 10.890625 45.40625 
L 10.890625 53.90625 
Q 18.265625 57.375 23.78125 62.296875 
Q 29.296875 67.234375 31.59375 71.875 
L 37.25 71.875 
z
" id="ArialMT-31"/>
       <path d="M 4.15625 35.296875 
Q 4.15625 48 6.765625 55.734375 
Q 9.375 63.484375 14.515625 67.671875 
Q 19.671875 71.875 27.484375 71.875 
Q 33.25 71.875 37.59375 69.546875 
Q 41.9375 67.234375 44.765625 62.859375 
Q 47.609375 58.5 49.21875 52.21875 
Q 50.828125 45.953125 50.828125 35.296875 
Q 50.828125 22.703125 48.234375 14.96875 
Q 45.65625 7.234375 40.5 3 
Q 35.359375 -1.21875 27.484375 -1.21875 
Q 17.140625 -1.21875 11.234375 6.203125 
Q 4.15625 15.140625 4.15625 35.296875 
z
M 13.1875 35.296875 
Q 13.1875 17.671875 17.3125 11.828125 
Q 21.4375 6 27.484375 6 
Q 33.546875 6 37.671875 11.859375 
Q 41.796875 17.71875 41.796875 35.296875 
Q 41.796875 52.984375 37.671875 58.78125 
Q 33.546875 64.59375 27.390625 64.59375 
Q 21.34375 64.59375 17.71875 59.46875 
Q 13.1875 52.9375 13.1875 35.296875 
z
" id="ArialMT-30"/>
      </defs>
      <g style="fill:#262626;" transform="translate(105.495696 116.793594)scale(0.11 -0.11)">
       <use xlink:href="#ArialMT-31"/>
       <use x="55.615234" xlink:href="#ArialMT-30"/>
      </g>
     </g>
    </g>
    <g id="xtick_6">
     <g id="line2d_6">
      <g>
       <use style="fill:#262626;stroke:#262626;stroke-width:0.8;" x="126.674545" xlink:href="#mb2fd12c4c8" y="101.92"/>
      </g>
     </g>
     <g id="text_6">
      <!-- 12 -->
      <g style="fill:#262626;" transform="translate(120.557514 116.793594)scale(0.11 -0.11)">
       <use xlink:href="#ArialMT-31"/>
       <use x="55.615234" xlink:href="#ArialMT-32"/>
      </g>
     </g>
    </g>
    <g id="text_7">
     <!-- pH -->
     <defs>
      <path d="M 6.59375 -19.875 
L 6.59375 51.859375 
L 14.59375 51.859375 
L 14.59375 45.125 
Q 17.4375 49.078125 21 51.046875 
Q 24.5625 53.03125 29.640625 53.03125 
Q 36.28125 53.03125 41.359375 49.609375 
Q 46.4375 46.1875 49.015625 39.953125 
Q 51.609375 33.734375 51.609375 26.3125 
Q 51.609375 18.359375 48.75 11.984375 
Q 45.90625 5.609375 40.453125 2.21875 
Q 35.015625 -1.171875 29 -1.171875 
Q 24.609375 -1.171875 21.109375 0.6875 
Q 17.625 2.546875 15.375 5.375 
L 15.375 -19.875 
z
M 14.546875 25.640625 
Q 14.546875 15.625 18.59375 10.84375 
Q 22.65625 6.0625 28.421875 6.0625 
Q 34.28125 6.0625 38.453125 11.015625 
Q 42.625 15.96875 42.625 26.375 
Q 42.625 36.28125 38.546875 41.203125 
Q 34.46875 46.140625 28.8125 46.140625 
Q 23.1875 46.140625 18.859375 40.890625 
Q 14.546875 35.640625 14.546875 25.640625 
z
" id="ArialMT-70"/>
      <path d="M 8.015625 0 
L 8.015625 71.578125 
L 17.484375 71.578125 
L 17.484375 42.1875 
L 54.6875 42.1875 
L 54.6875 71.578125 
L 64.15625 71.578125 
L 64.15625 0 
L 54.6875 0 
L 54.6875 33.734375 
L 17.484375 33.734375 
L 17.484375 0 
z
" id="ArialMT-48"/>
     </defs>
     <g style="fill:#262626;" transform="translate(81.989453 130.853437)scale(0.11 -0.11)">
      <use xlink:href="#ArialMT-70"/>
      <use x="55.615234" xlink:href="#ArialMT-48"/>
     </g>
    </g>
   </g>
   <g id="matplotlib.axis_2">
    <g id="ytick_1">
     <g id="line2d_7">
      <defs>
       <path d="M 0 0 
L -3.5 0 
" id="ma2ab017299" style="stroke:#262626;stroke-width:0.8;"/>
      </defs>
      <g>
       <use style="fill:#262626;stroke:#262626;stroke-width:0.8;" x="47.6" xlink:href="#ma2ab017299" y="92.327964"/>
      </g>
     </g>
     <g id="text_8">
      <!-- 0 -->
      <g style="fill:#262626;" transform="translate(34.482969 96.264761)scale(0.11 -0.11)">
       <use xlink:href="#ArialMT-30"/>
      </g>
     </g>
    </g>
    <g id="ytick_2">
     <g id="line2d_8">
      <g>
       <use style="fill:#262626;stroke:#262626;stroke-width:0.8;" x="47.6" xlink:href="#ma2ab017299" y="60.367184"/>
      </g>
     </g>
     <g id="text_9">
      <!-- 25 -->
      <defs>
       <path d="M 4.15625 18.75 
L 13.375 19.53125 
Q 14.40625 12.796875 18.140625 9.390625 
Q 21.875 6 27.15625 6 
Q 33.5 6 37.890625 10.78125 
Q 42.28125 15.578125 42.28125 23.484375 
Q 42.28125 31 38.0625 35.34375 
Q 33.84375 39.703125 27 39.703125 
Q 22.75 39.703125 19.328125 37.765625 
Q 15.921875 35.84375 13.96875 32.765625 
L 5.71875 33.84375 
L 12.640625 70.609375 
L 48.25 70.609375 
L 48.25 62.203125 
L 19.671875 62.203125 
L 15.828125 42.96875 
Q 22.265625 47.46875 29.34375 47.46875 
Q 38.71875 47.46875 45.15625 40.96875 
Q 51.609375 34.46875 51.609375 24.265625 
Q 51.609375 14.546875 45.953125 7.46875 
Q 39.0625 -1.21875 27.15625 -1.21875 
Q 17.390625 -1.21875 11.203125 4.25 
Q 5.03125 9.71875 4.15625 18.75 
z
" id="ArialMT-35"/>
      </defs>
      <g style="fill:#262626;" transform="translate(28.365938 64.303981)scale(0.11 -0.11)">
       <use xlink:href="#ArialMT-32"/>
       <use x="55.615234" xlink:href="#ArialMT-35"/>
      </g>
     </g>
    </g>
    <g id="ytick_3">
     <g id="line2d_9">
      <g>
       <use style="fill:#262626;stroke:#262626;stroke-width:0.8;" x="47.6" xlink:href="#ma2ab017299" y="28.406403"/>
      </g>
     </g>
     <g id="text_10">
      <!-- 50 -->
      <g style="fill:#262626;" transform="translate(28.365938 32.3432)scale(0.11 -0.11)">
       <use xlink:href="#ArialMT-35"/>
       <use x="55.615234" xlink:href="#ArialMT-30"/>
      </g>
     </g>
    </g>
    <g id="text_11">
     <!-- Free energy ($k_B T$) -->
     <defs>
      <path d="M 8.203125 0 
L 8.203125 71.578125 
L 56.5 71.578125 
L 56.5 63.140625 
L 17.671875 63.140625 
L 17.671875 40.96875 
L 51.265625 40.96875 
L 51.265625 32.515625 
L 17.671875 32.515625 
L 17.671875 0 
z
" id="ArialMT-46"/>
      <path d="M 6.5 0 
L 6.5 51.859375 
L 14.40625 51.859375 
L 14.40625 44 
Q 17.4375 49.515625 20 51.265625 
Q 22.5625 53.03125 25.640625 53.03125 
Q 30.078125 53.03125 34.671875 50.203125 
L 31.640625 42.046875 
Q 28.421875 43.953125 25.203125 43.953125 
Q 22.3125 43.953125 20.015625 42.21875 
Q 17.71875 40.484375 16.75 37.40625 
Q 15.28125 32.71875 15.28125 27.15625 
L 15.28125 0 
z
" id="ArialMT-72"/>
      <path d="M 42.09375 16.703125 
L 51.171875 15.578125 
Q 49.03125 7.625 43.21875 3.21875 
Q 37.40625 -1.171875 28.375 -1.171875 
Q 17 -1.171875 10.328125 5.828125 
Q 3.65625 12.84375 3.65625 25.484375 
Q 3.65625 38.578125 10.390625 45.796875 
Q 17.140625 53.03125 27.875 53.03125 
Q 38.28125 53.03125 44.875 45.953125 
Q 51.46875 38.875 51.46875 26.03125 
Q 51.46875 25.25 51.421875 23.6875 
L 12.75 23.6875 
Q 13.234375 15.140625 17.578125 10.59375 
Q 21.921875 6.0625 28.421875 6.0625 
Q 33.25 6.0625 36.671875 8.59375 
Q 40.09375 11.140625 42.09375 16.703125 
z
M 13.234375 30.90625 
L 42.1875 30.90625 
Q 41.609375 37.453125 38.875 40.71875 
Q 34.671875 45.796875 27.984375 45.796875 
Q 21.921875 45.796875 17.796875 41.75 
Q 13.671875 37.703125 13.234375 30.90625 
z
" id="ArialMT-65"/>
      <path id="ArialMT-20"/>
      <path d="M 6.59375 0 
L 6.59375 51.859375 
L 14.5 51.859375 
L 14.5 44.484375 
Q 20.21875 53.03125 31 53.03125 
Q 35.6875 53.03125 39.625 51.34375 
Q 43.5625 49.65625 45.515625 46.921875 
Q 47.46875 44.1875 48.25 40.4375 
Q 48.734375 37.984375 48.734375 31.890625 
L 48.734375 0 
L 39.9375 0 
L 39.9375 31.546875 
Q 39.9375 36.921875 38.90625 39.578125 
Q 37.890625 42.234375 35.28125 43.8125 
Q 32.671875 45.40625 29.15625 45.40625 
Q 23.53125 45.40625 19.453125 41.84375 
Q 15.375 38.28125 15.375 28.328125 
L 15.375 0 
z
" id="ArialMT-6e"/>
      <path d="M 4.984375 -4.296875 
L 13.53125 -5.5625 
Q 14.0625 -9.515625 16.5 -11.328125 
Q 19.78125 -13.765625 25.4375 -13.765625 
Q 31.546875 -13.765625 34.859375 -11.328125 
Q 38.1875 -8.890625 39.359375 -4.5 
Q 40.046875 -1.8125 39.984375 6.78125 
Q 34.234375 0 25.640625 0 
Q 14.9375 0 9.078125 7.71875 
Q 3.21875 15.4375 3.21875 26.21875 
Q 3.21875 33.640625 5.90625 39.90625 
Q 8.59375 46.1875 13.6875 49.609375 
Q 18.796875 53.03125 25.6875 53.03125 
Q 34.859375 53.03125 40.828125 45.609375 
L 40.828125 51.859375 
L 48.921875 51.859375 
L 48.921875 7.03125 
Q 48.921875 -5.078125 46.453125 -10.125 
Q 44 -15.1875 38.640625 -18.109375 
Q 33.296875 -21.046875 25.484375 -21.046875 
Q 16.21875 -21.046875 10.5 -16.875 
Q 4.78125 -12.703125 4.984375 -4.296875 
z
M 12.25 26.859375 
Q 12.25 16.65625 16.296875 11.96875 
Q 20.359375 7.28125 26.46875 7.28125 
Q 32.515625 7.28125 36.609375 11.9375 
Q 40.71875 16.609375 40.71875 26.5625 
Q 40.71875 36.078125 36.5 40.90625 
Q 32.28125 45.75 26.3125 45.75 
Q 20.453125 45.75 16.34375 40.984375 
Q 12.25 36.234375 12.25 26.859375 
z
" id="ArialMT-67"/>
      <path d="M 6.203125 -19.96875 
L 5.21875 -11.71875 
Q 8.109375 -12.5 10.25 -12.5 
Q 13.1875 -12.5 14.9375 -11.515625 
Q 16.703125 -10.546875 17.828125 -8.796875 
Q 18.65625 -7.46875 20.515625 -2.25 
Q 20.75 -1.515625 21.296875 -0.09375 
L 1.609375 51.859375 
L 11.078125 51.859375 
L 21.875 21.828125 
Q 23.96875 16.109375 25.640625 9.8125 
Q 27.15625 15.875 29.25 21.625 
L 40.328125 51.859375 
L 49.125 51.859375 
L 29.390625 -0.875 
Q 26.21875 -9.421875 24.46875 -12.640625 
Q 22.125 -17 19.09375 -19.015625 
Q 16.0625 -21.046875 11.859375 -21.046875 
Q 9.328125 -21.046875 6.203125 -19.96875 
z
" id="ArialMT-79"/>
      <path d="M 23.390625 -21.046875 
Q 16.109375 -11.859375 11.078125 0.4375 
Q 6.0625 12.75 6.0625 25.921875 
Q 6.0625 37.546875 9.8125 48.1875 
Q 14.203125 60.546875 23.390625 72.796875 
L 29.6875 72.796875 
Q 23.78125 62.640625 21.875 58.296875 
Q 18.890625 51.5625 17.1875 44.234375 
Q 15.09375 35.109375 15.09375 25.875 
Q 15.09375 2.390625 29.6875 -21.046875 
z
" id="ArialMT-28"/>
      <path d="M 18.3125 75.984375 
L 27.296875 75.984375 
L 18.703125 31.6875 
L 49.515625 54.6875 
L 61.1875 54.6875 
L 26.8125 28.515625 
L 51.90625 0 
L 41.015625 0 
L 17.671875 26.703125 
L 12.5 0 
L 3.515625 0 
z
" id="DejaVuSans-Oblique-6b"/>
      <path d="M 16.890625 72.90625 
L 42.09375 72.90625 
Q 52.34375 72.90625 57.421875 69.09375 
Q 62.5 65.28125 62.5 57.625 
Q 62.5 50.59375 58.125 45.484375 
Q 53.765625 40.375 46.6875 39.3125 
Q 52.734375 37.9375 55.765625 34.078125 
Q 58.796875 30.21875 58.796875 23.78125 
Q 58.796875 12.796875 50.65625 6.390625 
Q 42.53125 0 28.421875 0 
L 2.6875 0 
z
M 19.28125 34.8125 
L 14.109375 8.109375 
L 29.984375 8.109375 
Q 38.921875 8.109375 43.75 12.203125 
Q 48.578125 16.3125 48.578125 23.78125 
Q 48.578125 29.546875 45.375 32.171875 
Q 42.1875 34.8125 35.109375 34.8125 
z
M 25.09375 64.796875 
L 20.796875 42.828125 
L 35.5 42.828125 
Q 43.359375 42.828125 47.78125 46.234375 
Q 52.203125 49.65625 52.203125 55.71875 
Q 52.203125 60.453125 49.21875 62.625 
Q 46.234375 64.796875 39.703125 64.796875 
z
" id="DejaVuSans-Oblique-42"/>
      <path d="M 5.90625 72.90625 
L 67.578125 72.90625 
L 66.015625 64.59375 
L 39.984375 64.59375 
L 27.484375 0 
L 17.578125 0 
L 30.078125 64.59375 
L 4.296875 64.59375 
z
" id="DejaVuSans-Oblique-54"/>
      <path d="M 12.359375 -21.046875 
L 6.0625 -21.046875 
Q 20.65625 2.390625 20.65625 25.875 
Q 20.65625 35.0625 18.5625 44.09375 
Q 16.890625 51.421875 13.921875 58.15625 
Q 12.015625 62.546875 6.0625 72.796875 
L 12.359375 72.796875 
Q 21.53125 60.546875 25.921875 48.1875 
Q 29.6875 37.546875 29.6875 25.921875 
Q 29.6875 12.75 24.625 0.4375 
Q 19.578125 -11.859375 12.359375 -21.046875 
z
" id="ArialMT-29"/>
     </defs>
     <g style="fill:#262626;" transform="translate(21.945938 102.798482)rotate(-90)scale(0.11 -0.11)">
      <use transform="translate(0 0.015625)" xlink:href="#ArialMT-46"/>
      <use transform="translate(61.083984 0.015625)" xlink:href="#ArialMT-72"/>
      <use transform="translate(94.384766 0.015625)" xlink:href="#ArialMT-65"/>
      <use transform="translate(150 0.015625)" xlink:href="#ArialMT-65"/>
      <use transform="translate(205.615234 0.015625)" xlink:href="#ArialMT-20"/>
      <use transform="translate(233.398438 0.015625)" xlink:href="#ArialMT-65"/>
      <use transform="translate(289.013672 0.015625)" xlink:href="#ArialMT-6e"/>
      <use transform="translate(344.628906 0.015625)" xlink:href="#ArialMT-65"/>
      <use transform="translate(400.244141 0.015625)" xlink:href="#ArialMT-72"/>
      <use transform="translate(433.544922 0.015625)" xlink:href="#ArialMT-67"/>
      <use transform="translate(489.160156 0.015625)" xlink:href="#ArialMT-79"/>
      <use transform="translate(539.160156 0.015625)" xlink:href="#ArialMT-20"/>
      <use transform="translate(566.943359 0.015625)" xlink:href="#ArialMT-28"/>
      <use transform="translate(600.244141 0.015625)" xlink:href="#DejaVuSans-Oblique-6b"/>
      <use transform="translate(658.154297 -16.390625)scale(0.7)" xlink:href="#DejaVuSans-Oblique-42"/>
      <use transform="translate(708.911133 0.015625)" xlink:href="#DejaVuSans-Oblique-54"/>
      <use transform="translate(769.995117 0.015625)" xlink:href="#ArialMT-29"/>
     </g>
    </g>
   </g>
   <g id="patch_3">
    <path d="M 47.6 101.92 
L 47.6 15.236964 
" style="fill:none;stroke:#262626;stroke-linecap:square;stroke-linejoin:miter;stroke-width:0.8;"/>
   </g>
   <g id="patch_4">
    <path d="M 47.6 101.92 
L 130.44 101.92 
" style="fill:none;stroke:#262626;stroke-linecap:square;stroke-linejoin:miter;stroke-width:0.8;"/>
   </g>
   <g id="line2d_10">
    <path clip-path="url(#p2ab7bc7857)" d="M 51.365455 89.678637 
L 52.118545 89.089898 
L 52.871636 88.501159 
L 53.624727 87.912419 
L 54.377818 87.32368 
L 55.130909 86.734941 
L 55.884 86.146201 
L 56.637091 85.557462 
L 57.390182 84.968723 
L 58.143273 84.379983 
L 58.896364 83.791244 
L 59.649455 83.202505 
L 60.402545 82.613765 
L 61.155636 82.025026 
L 61.908727 81.436287 
L 62.661818 80.847547 
L 63.414909 80.258808 
L 64.168 79.670069 
L 64.921091 79.081329 
L 65.674182 78.49259 
L 66.427273 77.903851 
L 67.180364 77.315111 
L 67.933455 76.726372 
L 68.686545 76.137633 
L 69.439636 75.548893 
L 70.192727 74.960154 
L 70.945818 74.371415 
L 71.698909 73.782675 
L 72.452 73.193936 
L 73.205091 72.605197 
L 73.958182 72.016457 
L 74.711273 71.427718 
L 75.464364 70.838979 
L 76.217455 70.250239 
L 76.970545 69.6615 
L 77.723636 69.072761 
L 78.476727 68.484021 
L 79.229818 67.895282 
L 79.982909 67.306543 
L 80.736 66.717803 
L 81.489091 66.129064 
L 82.242182 65.540325 
L 82.995273 64.951585 
L 83.748364 64.362846 
L 84.501455 63.774107 
L 85.254545 63.185367 
L 86.007636 62.596628 
L 86.760727 62.007889 
L 87.513818 61.419149 
L 88.266909 60.83041 
L 89.02 60.241671 
L 89.773091 59.652931 
L 90.526182 59.064192 
L 91.279273 58.475453 
L 92.032364 57.886713 
L 92.785455 57.297974 
L 93.538545 56.709235 
L 94.291636 56.120495 
L 95.044727 55.531756 
L 95.797818 54.943017 
L 96.550909 54.354277 
L 97.304 53.765538 
L 98.057091 53.176799 
L 98.810182 52.588059 
L 99.563273 51.99932 
L 100.316364 51.410581 
L 101.069455 50.821841 
L 101.822545 50.233102 
L 102.575636 49.644363 
L 103.328727 49.055623 
L 104.081818 48.466884 
L 104.834909 47.878145 
L 105.588 47.289405 
L 106.341091 46.700666 
L 107.094182 46.111927 
L 107.847273 45.523187 
L 108.600364 44.934448 
L 109.353455 44.345709 
L 110.106545 43.756969 
L 110.859636 43.16823 
L 111.612727 42.579491 
L 112.365818 41.990751 
L 113.118909 41.402012 
L 113.872 40.813273 
L 114.625091 40.224533 
L 115.378182 39.635794 
L 116.131273 39.047055 
L 116.884364 38.458315 
L 117.637455 37.869576 
L 118.390545 37.280837 
L 119.143636 36.692097 
L 119.896727 36.103358 
L 120.649818 35.514619 
L 121.402909 34.925879 
L 122.156 34.33714 
L 122.909091 33.748401 
L 123.662182 33.159661 
L 124.415273 32.570922 
L 125.168364 31.982183 
L 125.921455 31.393443 
L 126.674545 30.804704 
" style="fill:none;stroke:#4393c3;stroke-linecap:round;stroke-width:1.5;"/>
   </g>
   <g id="line2d_11">
    <path clip-path="url(#p2ab7bc7857)" d="M 51.365455 78.051036 
L 52.118545 77.462296 
L 52.871636 76.873557 
L 53.624727 76.284818 
L 54.377818 75.696078 
L 55.130909 75.107339 
L 55.884 74.5186 
L 56.637091 73.92986 
L 57.390182 73.341121 
L 58.143273 72.752382 
L 58.896364 72.163642 
L 59.649455 71.574903 
L 60.402545 70.986164 
L 61.155636 70.397424 
L 61.908727 69.808685 
L 62.661818 69.219946 
L 63.414909 68.631206 
L 64.168 68.042467 
L 64.921091 67.453728 
L 65.674182 66.864988 
L 66.427273 66.276249 
L 67.180364 65.68751 
L 67.933455 65.09877 
L 68.686545 64.510031 
L 69.439636 63.921292 
L 70.192727 63.332552 
L 70.945818 62.743813 
L 71.698909 62.155074 
L 72.452 61.566334 
L 73.205091 60.977595 
L 73.958182 60.388856 
L 74.711273 59.800116 
L 75.464364 59.211377 
L 76.217455 58.622638 
L 76.970545 58.033898 
L 77.723636 57.445159 
L 78.476727 56.85642 
L 79.229818 56.26768 
L 79.982909 55.678941 
L 80.736 55.090202 
L 81.489091 54.501462 
L 82.242182 53.912723 
L 82.995273 53.323984 
L 83.748364 52.735244 
L 84.501455 52.146505 
L 85.254545 51.557766 
L 86.007636 50.969026 
L 86.760727 50.380287 
L 87.513818 49.791548 
L 88.266909 49.202808 
L 89.02 48.614069 
L 89.773091 48.02533 
L 90.526182 47.43659 
L 91.279273 46.847851 
L 92.032364 46.259112 
L 92.785455 45.670372 
L 93.538545 45.081633 
L 94.291636 44.492894 
L 95.044727 43.904154 
L 95.797818 43.315415 
L 96.550909 42.726676 
L 97.304 42.137936 
L 98.057091 41.549197 
L 98.810182 40.960458 
L 99.563273 40.371718 
L 100.316364 39.782979 
L 101.069455 39.19424 
L 101.822545 38.6055 
L 102.575636 38.016761 
L 103.328727 37.428022 
L 104.081818 36.839282 
L 104.834909 36.250543 
L 105.588 35.661804 
L 106.341091 35.073064 
L 107.094182 34.484325 
L 107.847273 33.895586 
L 108.600364 33.306846 
L 109.353455 32.718107 
L 110.106545 32.129368 
L 110.859636 31.540628 
L 111.612727 30.951889 
L 112.365818 30.36315 
L 113.118909 29.77441 
L 113.872 29.185671 
L 114.625091 28.596932 
L 115.378182 28.008192 
L 116.131273 27.419453 
L 116.884364 26.830714 
L 117.637455 26.241974 
L 118.390545 25.653235 
L 119.143636 25.064496 
L 119.896727 24.475756 
L 120.649818 23.887017 
L 121.402909 23.298278 
L 122.156 22.709538 
L 122.909091 22.120799 
L 123.662182 21.53206 
L 124.415273 20.94332 
L 125.168364 20.354581 
L 125.921455 19.765842 
L 126.674545 19.177102 
" style="fill:none;stroke:#4393c3;stroke-linecap:round;stroke-width:1.5;"/>
   </g>
   <g id="line2d_12">
    <path clip-path="url(#p2ab7bc7857)" d="M 51.365455 53.677227 
L 52.118545 53.971597 
L 52.871636 54.265966 
L 53.624727 54.560336 
L 54.377818 54.854706 
L 55.130909 55.149075 
L 55.884 55.443445 
L 56.637091 55.737815 
L 57.390182 56.032184 
L 58.143273 56.326554 
L 58.896364 56.620924 
L 59.649455 56.915293 
L 60.402545 57.209663 
L 61.155636 57.504033 
L 61.908727 57.798402 
L 62.661818 58.092772 
L 63.414909 58.387142 
L 64.168 58.681511 
L 64.921091 58.975881 
L 65.674182 59.270251 
L 66.427273 59.56462 
L 67.180364 59.85899 
L 67.933455 60.15336 
L 68.686545 60.447729 
L 69.439636 60.742099 
L 70.192727 61.036469 
L 70.945818 61.330838 
L 71.698909 61.625208 
L 72.452 61.919578 
L 73.205091 62.213947 
L 73.958182 62.508317 
L 74.711273 62.802687 
L 75.464364 63.097056 
L 76.217455 63.391426 
L 76.970545 63.685796 
L 77.723636 63.980165 
L 78.476727 64.274535 
L 79.229818 64.568905 
L 79.982909 64.863274 
L 80.736 65.157644 
L 81.489091 65.452014 
L 82.242182 65.746383 
L 82.995273 66.040753 
L 83.748364 66.335123 
L 84.501455 66.629492 
L 85.254545 66.923862 
L 86.007636 67.218232 
L 86.760727 67.512601 
L 87.513818 67.806971 
L 88.266909 68.101341 
L 89.02 68.39571 
L 89.773091 68.69008 
L 90.526182 68.98445 
L 91.279273 69.278819 
L 92.032364 69.573189 
L 92.785455 69.867559 
L 93.538545 70.161928 
L 94.291636 70.456298 
L 95.044727 70.750668 
L 95.797818 71.045037 
L 96.550909 71.339407 
L 97.304 71.633777 
L 98.057091 71.928146 
L 98.810182 72.222516 
L 99.563273 72.516886 
L 100.316364 72.811255 
L 101.069455 73.105625 
L 101.822545 73.399995 
L 102.575636 73.694364 
L 103.328727 73.988734 
L 104.081818 74.283104 
L 104.834909 74.577473 
L 105.588 74.871843 
L 106.341091 75.166213 
L 107.094182 75.460582 
L 107.847273 75.754952 
L 108.600364 76.049322 
L 109.353455 76.343691 
L 110.106545 76.638061 
L 110.859636 76.932431 
L 111.612727 77.2268 
L 112.365818 77.52117 
L 113.118909 77.81554 
L 113.872 78.109909 
L 114.625091 78.404279 
L 115.378182 78.698649 
L 116.131273 78.993018 
L 116.884364 79.287388 
L 117.637455 79.581758 
L 118.390545 79.876127 
L 119.143636 80.170497 
L 119.896727 80.464867 
L 120.649818 80.759236 
L 121.402909 81.053606 
L 122.156 81.347976 
L 122.909091 81.642345 
L 123.662182 81.936715 
L 124.415273 82.231085 
L 125.168364 82.525454 
L 125.921455 82.819824 
L 126.674545 83.114194 
" style="fill:none;stroke:#f4a582;stroke-linecap:round;stroke-width:1.5;"/>
   </g>
   <g id="line2d_13">
    <path clip-path="url(#p2ab7bc7857)" d="M 51.365455 90.208503 
L 52.118545 89.914133 
L 52.871636 89.619763 
L 53.624727 89.325394 
L 54.377818 89.031024 
L 55.130909 88.736654 
L 55.884 88.442285 
L 56.637091 88.147915 
L 57.390182 87.853545 
L 58.143273 87.559176 
L 58.896364 87.264806 
L 59.649455 86.970436 
L 60.402545 86.676067 
L 61.155636 86.381697 
L 61.908727 86.087327 
L 62.661818 85.792958 
L 63.414909 85.498588 
L 64.168 85.204218 
L 64.921091 84.909849 
L 65.674182 84.615479 
L 66.427273 84.321109 
L 67.180364 84.02674 
L 67.933455 83.73237 
L 68.686545 83.438 
L 69.439636 83.143631 
L 70.192727 82.849261 
L 70.945818 82.554891 
L 71.698909 82.260522 
L 72.452 81.966152 
L 73.205091 81.671782 
L 73.958182 81.377413 
L 74.711273 81.083043 
L 75.464364 80.788673 
L 76.217455 80.494304 
L 76.970545 80.199934 
L 77.723636 79.905564 
L 78.476727 79.611195 
L 79.229818 79.316825 
L 79.982909 79.022455 
L 80.736 78.728086 
L 81.489091 78.433716 
L 82.242182 78.139346 
L 82.995273 77.844977 
L 83.748364 77.550607 
L 84.501455 77.256237 
L 85.254545 76.961868 
L 86.007636 76.667498 
L 86.760727 76.373128 
L 87.513818 76.078759 
L 88.266909 75.784389 
L 89.02 75.490019 
L 89.773091 75.19565 
L 90.526182 74.90128 
L 91.279273 74.60691 
L 92.032364 74.312541 
L 92.785455 74.018171 
L 93.538545 73.723801 
L 94.291636 73.429432 
L 95.044727 73.135062 
L 95.797818 72.840692 
L 96.550909 72.546323 
L 97.304 72.251953 
L 98.057091 71.957583 
L 98.810182 71.663214 
L 99.563273 71.368844 
L 100.316364 71.074474 
L 101.069455 70.780105 
L 101.822545 70.485735 
L 102.575636 70.191365 
L 103.328727 69.896996 
L 104.081818 69.602626 
L 104.834909 69.308256 
L 105.588 69.013887 
L 106.341091 68.719517 
L 107.094182 68.425147 
L 107.847273 68.130778 
L 108.600364 67.836408 
L 109.353455 67.542038 
L 110.106545 67.247669 
L 110.859636 66.953299 
L 111.612727 66.658929 
L 112.365818 66.36456 
L 113.118909 66.07019 
L 113.872 65.77582 
L 114.625091 65.481451 
L 115.378182 65.187081 
L 116.131273 64.892711 
L 116.884364 64.598342 
L 117.637455 64.303972 
L 118.390545 64.009602 
L 119.143636 63.715233 
L 119.896727 63.420863 
L 120.649818 63.126493 
L 121.402909 62.832124 
L 122.156 62.537754 
L 122.909091 62.243384 
L 123.662182 61.949015 
L 124.415273 61.654645 
L 125.168364 61.360275 
L 125.921455 61.065906 
L 126.674545 60.771536 
" style="fill:none;stroke:#92c5de;stroke-linecap:round;stroke-width:1.5;"/>
   </g>
   <g id="line2d_14">
    <path clip-path="url(#p2ab7bc7857)" d="M 51.365455 97.979862 
L 52.118545 97.685492 
L 52.871636 97.391123 
L 53.624727 97.096753 
L 54.377818 96.802383 
L 55.130909 96.508014 
L 55.884 96.213644 
L 56.637091 95.919274 
L 57.390182 95.624905 
L 58.143273 95.330535 
L 58.896364 95.036165 
L 59.649455 94.741796 
L 60.402545 94.447426 
L 61.155636 94.153056 
L 61.908727 93.858687 
L 62.661818 93.564317 
L 63.414909 93.269947 
L 64.168 92.975578 
L 64.921091 92.681208 
L 65.674182 92.386838 
L 66.427273 92.092469 
L 67.180364 91.798099 
L 67.933455 91.503729 
L 68.686545 91.20936 
L 69.439636 90.91499 
L 70.192727 90.62062 
L 70.945818 90.326251 
L 71.698909 90.031881 
L 72.452 89.737511 
L 73.205091 89.443142 
L 73.958182 89.148772 
L 74.711273 88.854402 
L 75.464364 88.560033 
L 76.217455 88.265663 
L 76.970545 87.971293 
L 77.723636 87.676924 
L 78.476727 87.382554 
L 79.229818 87.088184 
L 79.982909 86.793815 
L 80.736 86.499445 
L 81.489091 86.205075 
L 82.242182 85.910706 
L 82.995273 85.616336 
L 83.748364 85.321966 
L 84.501455 85.027597 
L 85.254545 84.733227 
L 86.007636 84.438857 
L 86.760727 84.144488 
L 87.513818 83.850118 
L 88.266909 83.555748 
L 89.02 83.261379 
L 89.773091 82.967009 
L 90.526182 82.672639 
L 91.279273 82.37827 
L 92.032364 82.0839 
L 92.785455 81.78953 
L 93.538545 81.495161 
L 94.291636 81.200791 
L 95.044727 80.906421 
L 95.797818 80.612052 
L 96.550909 80.317682 
L 97.304 80.023312 
L 98.057091 79.728943 
L 98.810182 79.434573 
L 99.563273 79.140203 
L 100.316364 78.845834 
L 101.069455 78.551464 
L 101.822545 78.257094 
L 102.575636 77.962725 
L 103.328727 77.668355 
L 104.081818 77.373985 
L 104.834909 77.079616 
L 105.588 76.785246 
L 106.341091 76.490876 
L 107.094182 76.196507 
L 107.847273 75.902137 
L 108.600364 75.607767 
L 109.353455 75.313398 
L 110.106545 75.019028 
L 110.859636 74.724658 
L 111.612727 74.430289 
L 112.365818 74.135919 
L 113.118909 73.841549 
L 113.872 73.54718 
L 114.625091 73.25281 
L 115.378182 72.95844 
L 116.131273 72.664071 
L 116.884364 72.369701 
L 117.637455 72.075331 
L 118.390545 71.780962 
L 119.143636 71.486592 
L 119.896727 71.192222 
L 120.649818 70.897853 
L 121.402909 70.603483 
L 122.156 70.309113 
L 122.909091 70.014744 
L 123.662182 69.720374 
L 124.415273 69.426004 
L 125.168364 69.131635 
L 125.921455 68.837265 
L 126.674545 68.542895 
" style="fill:none;stroke:#92c5de;stroke-linecap:round;stroke-width:1.5;"/>
   </g>
   <g id="line2d_15">
    <path clip-path="url(#p2ab7bc7857)" d="M 51.365455 91.650914 
L 52.118545 91.356545 
L 52.871636 91.062175 
L 53.624727 90.767805 
L 54.377818 90.473436 
L 55.130909 90.179066 
L 55.884 89.884696 
L 56.637091 89.590327 
L 57.390182 89.295957 
L 58.143273 89.001587 
L 58.896364 88.707218 
L 59.649455 88.412848 
L 60.402545 88.118478 
L 61.155636 87.824108 
L 61.908727 87.529739 
L 62.661818 87.235369 
L 63.414909 86.940999 
L 64.168 86.64663 
L 64.921091 86.35226 
L 65.674182 86.05789 
L 66.427273 85.763521 
L 67.180364 85.469151 
L 67.933455 85.174781 
L 68.686545 84.880412 
L 69.439636 84.586042 
L 70.192727 84.291672 
L 70.945818 83.997303 
L 71.698909 83.702933 
L 72.452 83.408563 
L 73.205091 83.114194 
L 73.958182 82.819824 
L 74.711273 82.525454 
L 75.464364 82.231085 
L 76.217455 81.936715 
L 76.970545 81.642345 
L 77.723636 81.347976 
L 78.476727 81.053606 
L 79.229818 80.759236 
L 79.982909 80.464867 
L 80.736 80.170497 
L 81.489091 79.876127 
L 82.242182 79.581758 
L 82.995273 79.287388 
L 83.748364 78.993018 
L 84.501455 78.698649 
L 85.254545 78.404279 
L 86.007636 78.109909 
L 86.760727 77.81554 
L 87.513818 77.52117 
L 88.266909 77.2268 
L 89.02 76.932431 
L 89.773091 76.638061 
L 90.526182 76.343691 
L 91.279273 76.049322 
L 92.032364 75.754952 
L 92.785455 75.460582 
L 93.538545 75.166213 
L 94.291636 74.871843 
L 95.044727 74.577473 
L 95.797818 74.283104 
L 96.550909 73.988734 
L 97.304 73.694364 
L 98.057091 73.399995 
L 98.810182 73.105625 
L 99.563273 72.811255 
L 100.316364 72.516886 
L 101.069455 72.222516 
L 101.822545 71.928146 
L 102.575636 71.633777 
L 103.328727 71.339407 
L 104.081818 71.045037 
L 104.834909 70.750668 
L 105.588 70.456298 
L 106.341091 70.161928 
L 107.094182 69.867559 
L 107.847273 69.573189 
L 108.600364 69.278819 
L 109.353455 68.98445 
L 110.106545 68.69008 
L 110.859636 68.39571 
L 111.612727 68.101341 
L 112.365818 67.806971 
L 113.118909 67.512601 
L 113.872 67.218232 
L 114.625091 66.923862 
L 115.378182 66.629492 
L 116.131273 66.335123 
L 116.884364 66.040753 
L 117.637455 65.746383 
L 118.390545 65.452014 
L 119.143636 65.157644 
L 119.896727 64.863274 
L 120.649818 64.568905 
L 121.402909 64.274535 
L 122.156 63.980165 
L 122.909091 63.685796 
L 123.662182 63.391426 
L 124.415273 63.097056 
L 125.168364 62.802687 
L 125.921455 62.508317 
L 126.674545 62.213947 
" style="fill:none;stroke:#92c5de;stroke-linecap:round;stroke-width:1.5;"/>
   </g>
   <g id="line2d_16">
    <path clip-path="url(#p2ab7bc7857)" d="M 51.365455 77.933288 
L 52.118545 77.638918 
L 52.871636 77.344548 
L 53.624727 77.050179 
L 54.377818 76.755809 
L 55.130909 76.461439 
L 55.884 76.16707 
L 56.637091 75.8727 
L 57.390182 75.57833 
L 58.143273 75.283961 
L 58.896364 74.989591 
L 59.649455 74.695221 
L 60.402545 74.400852 
L 61.155636 74.106482 
L 61.908727 73.812112 
L 62.661818 73.517743 
L 63.414909 73.223373 
L 64.168 72.929003 
L 64.921091 72.634634 
L 65.674182 72.340264 
L 66.427273 72.045894 
L 67.180364 71.751525 
L 67.933455 71.457155 
L 68.686545 71.162785 
L 69.439636 70.868416 
L 70.192727 70.574046 
L 70.945818 70.279676 
L 71.698909 69.985307 
L 72.452 69.690937 
L 73.205091 69.396567 
L 73.958182 69.102198 
L 74.711273 68.807828 
L 75.464364 68.513458 
L 76.217455 68.219089 
L 76.970545 67.924719 
L 77.723636 67.630349 
L 78.476727 67.33598 
L 79.229818 67.04161 
L 79.982909 66.74724 
L 80.736 66.452871 
L 81.489091 66.158501 
L 82.242182 65.864131 
L 82.995273 65.569762 
L 83.748364 65.275392 
L 84.501455 64.981022 
L 85.254545 64.686653 
L 86.007636 64.392283 
L 86.760727 64.097913 
L 87.513818 63.803544 
L 88.266909 63.509174 
L 89.02 63.214804 
L 89.773091 62.920435 
L 90.526182 62.626065 
L 91.279273 62.331695 
L 92.032364 62.037326 
L 92.785455 61.742956 
L 93.538545 61.448586 
L 94.291636 61.154217 
L 95.044727 60.859847 
L 95.797818 60.565477 
L 96.550909 60.271108 
L 97.304 59.976738 
L 98.057091 59.682368 
L 98.810182 59.387999 
L 99.563273 59.093629 
L 100.316364 58.799259 
L 101.069455 58.50489 
L 101.822545 58.21052 
L 102.575636 57.91615 
L 103.328727 57.621781 
L 104.081818 57.327411 
L 104.834909 57.033041 
L 105.588 56.738672 
L 106.341091 56.444302 
L 107.094182 56.149932 
L 107.847273 55.855563 
L 108.600364 55.561193 
L 109.353455 55.266823 
L 110.106545 54.972454 
L 110.859636 54.678084 
L 111.612727 54.383714 
L 112.365818 54.089345 
L 113.118909 53.794975 
L 113.872 53.500605 
L 114.625091 53.206236 
L 115.378182 52.911866 
L 116.131273 52.617496 
L 116.884364 52.323127 
L 117.637455 52.028757 
L 118.390545 51.734387 
L 119.143636 51.440018 
L 119.896727 51.145648 
L 120.649818 50.851278 
L 121.402909 50.556909 
L 122.156 50.262539 
L 122.909091 49.968169 
L 123.662182 49.6738 
L 124.415273 49.37943 
L 125.168364 49.08506 
L 125.921455 48.790691 
L 126.674545 48.496321 
" style="fill:none;stroke:#92c5de;stroke-linecap:round;stroke-width:1.5;"/>
   </g>
   <g id="line2d_17">
    <path clip-path="url(#p2ab7bc7857)" d="M 51.365455 87.02931 
L 52.118545 86.734941 
L 52.871636 86.440571 
L 53.624727 86.146201 
L 54.377818 85.851832 
L 55.130909 85.557462 
L 55.884 85.263092 
L 56.637091 84.968723 
L 57.390182 84.674353 
L 58.143273 84.379983 
L 58.896364 84.085614 
L 59.649455 83.791244 
L 60.402545 83.496874 
L 61.155636 83.202505 
L 61.908727 82.908135 
L 62.661818 82.613765 
L 63.414909 82.319396 
L 64.168 82.025026 
L 64.921091 81.730656 
L 65.674182 81.436287 
L 66.427273 81.141917 
L 67.180364 80.847547 
L 67.933455 80.553178 
L 68.686545 80.258808 
L 69.439636 79.964438 
L 70.192727 79.670069 
L 70.945818 79.375699 
L 71.698909 79.081329 
L 72.452 78.78696 
L 73.205091 78.49259 
L 73.958182 78.19822 
L 74.711273 77.903851 
L 75.464364 77.609481 
L 76.217455 77.315111 
L 76.970545 77.020742 
L 77.723636 76.726372 
L 78.476727 76.432002 
L 79.229818 76.137633 
L 79.982909 75.843263 
L 80.736 75.548893 
L 81.489091 75.254524 
L 82.242182 74.960154 
L 82.995273 74.665784 
L 83.748364 74.371415 
L 84.501455 74.077045 
L 85.254545 73.782675 
L 86.007636 73.488306 
L 86.760727 73.193936 
L 87.513818 72.899566 
L 88.266909 72.605197 
L 89.02 72.310827 
L 89.773091 72.016457 
L 90.526182 71.722088 
L 91.279273 71.427718 
L 92.032364 71.133348 
L 92.785455 70.838979 
L 93.538545 70.544609 
L 94.291636 70.250239 
L 95.044727 69.95587 
L 95.797818 69.6615 
L 96.550909 69.36713 
L 97.304 69.072761 
L 98.057091 68.778391 
L 98.810182 68.484021 
L 99.563273 68.189652 
L 100.316364 67.895282 
L 101.069455 67.600912 
L 101.822545 67.306543 
L 102.575636 67.012173 
L 103.328727 66.717803 
L 104.081818 66.423434 
L 104.834909 66.129064 
L 105.588 65.834694 
L 106.341091 65.540325 
L 107.094182 65.245955 
L 107.847273 64.951585 
L 108.600364 64.657216 
L 109.353455 64.362846 
L 110.106545 64.068476 
L 110.859636 63.774107 
L 111.612727 63.479737 
L 112.365818 63.185367 
L 113.118909 62.890998 
L 113.872 62.596628 
L 114.625091 62.302258 
L 115.378182 62.007889 
L 116.131273 61.713519 
L 116.884364 61.419149 
L 117.637455 61.12478 
L 118.390545 60.83041 
L 119.143636 60.53604 
L 119.896727 60.241671 
L 120.649818 59.947301 
L 121.402909 59.652931 
L 122.156 59.358562 
L 122.909091 59.064192 
L 123.662182 58.769822 
L 124.415273 58.475453 
L 125.168364 58.181083 
L 125.921455 57.886713 
L 126.674545 57.592344 
" style="fill:none;stroke:#92c5de;stroke-linecap:round;stroke-width:1.5;"/>
   </g>
   <g id="line2d_18">
    <path clip-path="url(#p2ab7bc7857)" d="M 51.365455 92.327964 
L 52.118545 92.327964 
L 52.871636 92.327964 
L 53.624727 92.327964 
L 54.377818 92.327964 
L 55.130909 92.327964 
L 55.884 92.327964 
L 56.637091 92.327964 
L 57.390182 92.327964 
L 58.143273 92.327964 
L 58.896364 92.327964 
L 59.649455 92.327964 
L 60.402545 92.327964 
L 61.155636 92.327964 
L 61.908727 92.327964 
L 62.661818 92.327964 
L 63.414909 92.327964 
L 64.168 92.327964 
L 64.921091 92.327964 
L 65.674182 92.327964 
L 66.427273 92.327964 
L 67.180364 92.327964 
L 67.933455 92.327964 
L 68.686545 92.327964 
L 69.439636 92.327964 
L 70.192727 92.327964 
L 70.945818 92.327964 
L 71.698909 92.327964 
L 72.452 92.327964 
L 73.205091 92.327964 
L 73.958182 92.327964 
L 74.711273 92.327964 
L 75.464364 92.327964 
L 76.217455 92.327964 
L 76.970545 92.327964 
L 77.723636 92.327964 
L 78.476727 92.327964 
L 79.229818 92.327964 
L 79.982909 92.327964 
L 80.736 92.327964 
L 81.489091 92.327964 
L 82.242182 92.327964 
L 82.995273 92.327964 
L 83.748364 92.327964 
L 84.501455 92.327964 
L 85.254545 92.327964 
L 86.007636 92.327964 
L 86.760727 92.327964 
L 87.513818 92.327964 
L 88.266909 92.327964 
L 89.02 92.327964 
L 89.773091 92.327964 
L 90.526182 92.327964 
L 91.279273 92.327964 
L 92.032364 92.327964 
L 92.785455 92.327964 
L 93.538545 92.327964 
L 94.291636 92.327964 
L 95.044727 92.327964 
L 95.797818 92.327964 
L 96.550909 92.327964 
L 97.304 92.327964 
L 98.057091 92.327964 
L 98.810182 92.327964 
L 99.563273 92.327964 
L 100.316364 92.327964 
L 101.069455 92.327964 
L 101.822545 92.327964 
L 102.575636 92.327964 
L 103.328727 92.327964 
L 104.081818 92.327964 
L 104.834909 92.327964 
L 105.588 92.327964 
L 106.341091 92.327964 
L 107.094182 92.327964 
L 107.847273 92.327964 
L 108.600364 92.327964 
L 109.353455 92.327964 
L 110.106545 92.327964 
L 110.859636 92.327964 
L 111.612727 92.327964 
L 112.365818 92.327964 
L 113.118909 92.327964 
L 113.872 92.327964 
L 114.625091 92.327964 
L 115.378182 92.327964 
L 116.131273 92.327964 
L 116.884364 92.327964 
L 117.637455 92.327964 
L 118.390545 92.327964 
L 119.143636 92.327964 
L 119.896727 92.327964 
L 120.649818 92.327964 
L 121.402909 92.327964 
L 122.156 92.327964 
L 122.909091 92.327964 
L 123.662182 92.327964 
L 124.415273 92.327964 
L 125.168364 92.327964 
L 125.921455 92.327964 
L 126.674545 92.327964 
" style="fill:none;stroke:#333333;stroke-linecap:round;stroke-width:1.5;"/>
   </g>
   <g id="line2d_19">
    <path clip-path="url(#p2ab7bc7857)" d="M 51.365455 72.193079 
L 52.118545 72.193079 
L 52.871636 72.193079 
L 53.624727 72.193079 
L 54.377818 72.193079 
L 55.130909 72.193079 
L 55.884 72.193079 
L 56.637091 72.193079 
L 57.390182 72.193079 
L 58.143273 72.193079 
L 58.896364 72.193079 
L 59.649455 72.193079 
L 60.402545 72.193079 
L 61.155636 72.193079 
L 61.908727 72.193079 
L 62.661818 72.193079 
L 63.414909 72.193079 
L 64.168 72.193079 
L 64.921091 72.193079 
L 65.674182 72.193079 
L 66.427273 72.193079 
L 67.180364 72.193079 
L 67.933455 72.193079 
L 68.686545 72.193079 
L 69.439636 72.193079 
L 70.192727 72.193079 
L 70.945818 72.193079 
L 71.698909 72.193079 
L 72.452 72.193079 
L 73.205091 72.193079 
L 73.958182 72.193079 
L 74.711273 72.193079 
L 75.464364 72.193079 
L 76.217455 72.193079 
L 76.970545 72.193079 
L 77.723636 72.193079 
L 78.476727 72.193079 
L 79.229818 72.193079 
L 79.982909 72.193079 
L 80.736 72.193079 
L 81.489091 72.193079 
L 82.242182 72.193079 
L 82.995273 72.193079 
L 83.748364 72.193079 
L 84.501455 72.193079 
L 85.254545 72.193079 
L 86.007636 72.193079 
L 86.760727 72.193079 
L 87.513818 72.193079 
L 88.266909 72.193079 
L 89.02 72.193079 
L 89.773091 72.193079 
L 90.526182 72.193079 
L 91.279273 72.193079 
L 92.032364 72.193079 
L 92.785455 72.193079 
L 93.538545 72.193079 
L 94.291636 72.193079 
L 95.044727 72.193079 
L 95.797818 72.193079 
L 96.550909 72.193079 
L 97.304 72.193079 
L 98.057091 72.193079 
L 98.810182 72.193079 
L 99.563273 72.193079 
L 100.316364 72.193079 
L 101.069455 72.193079 
L 101.822545 72.193079 
L 102.575636 72.193079 
L 103.328727 72.193079 
L 104.081818 72.193079 
L 104.834909 72.193079 
L 105.588 72.193079 
L 106.341091 72.193079 
L 107.094182 72.193079 
L 107.847273 72.193079 
L 108.600364 72.193079 
L 109.353455 72.193079 
L 110.106545 72.193079 
L 110.859636 72.193079 
L 111.612727 72.193079 
L 112.365818 72.193079 
L 113.118909 72.193079 
L 113.872 72.193079 
L 114.625091 72.193079 
L 115.378182 72.193079 
L 116.131273 72.193079 
L 116.884364 72.193079 
L 117.637455 72.193079 
L 118.390545 72.193079 
L 119.143636 72.193079 
L 119.896727 72.193079 
L 120.649818 72.193079 
L 121.402909 72.193079 
L 122.156 72.193079 
L 122.909091 72.193079 
L 123.662182 72.193079 
L 124.415273 72.193079 
L 125.168364 72.193079 
L 125.921455 72.193079 
L 126.674545 72.193079 
" style="fill:none;stroke:#333333;stroke-linecap:round;stroke-width:1.5;"/>
   </g>
   <g id="line2d_20">
    <path clip-path="url(#p2ab7bc7857)" d="M 51.365455 80.906421 
L 52.118545 80.906421 
L 52.871636 80.906421 
L 53.624727 80.906421 
L 54.377818 80.906421 
L 55.130909 80.906421 
L 55.884 80.906421 
L 56.637091 80.906421 
L 57.390182 80.906421 
L 58.143273 80.906421 
L 58.896364 80.906421 
L 59.649455 80.906421 
L 60.402545 80.906421 
L 61.155636 80.906421 
L 61.908727 80.906421 
L 62.661818 80.906421 
L 63.414909 80.906421 
L 64.168 80.906421 
L 64.921091 80.906421 
L 65.674182 80.906421 
L 66.427273 80.906421 
L 67.180364 80.906421 
L 67.933455 80.906421 
L 68.686545 80.906421 
L 69.439636 80.906421 
L 70.192727 80.906421 
L 70.945818 80.906421 
L 71.698909 80.906421 
L 72.452 80.906421 
L 73.205091 80.906421 
L 73.958182 80.906421 
L 74.711273 80.906421 
L 75.464364 80.906421 
L 76.217455 80.906421 
L 76.970545 80.906421 
L 77.723636 80.906421 
L 78.476727 80.906421 
L 79.229818 80.906421 
L 79.982909 80.906421 
L 80.736 80.906421 
L 81.489091 80.906421 
L 82.242182 80.906421 
L 82.995273 80.906421 
L 83.748364 80.906421 
L 84.501455 80.906421 
L 85.254545 80.906421 
L 86.007636 80.906421 
L 86.760727 80.906421 
L 87.513818 80.906421 
L 88.266909 80.906421 
L 89.02 80.906421 
L 89.773091 80.906421 
L 90.526182 80.906421 
L 91.279273 80.906421 
L 92.032364 80.906421 
L 92.785455 80.906421 
L 93.538545 80.906421 
L 94.291636 80.906421 
L 95.044727 80.906421 
L 95.797818 80.906421 
L 96.550909 80.906421 
L 97.304 80.906421 
L 98.057091 80.906421 
L 98.810182 80.906421 
L 99.563273 80.906421 
L 100.316364 80.906421 
L 101.069455 80.906421 
L 101.822545 80.906421 
L 102.575636 80.906421 
L 103.328727 80.906421 
L 104.081818 80.906421 
L 104.834909 80.906421 
L 105.588 80.906421 
L 106.341091 80.906421 
L 107.094182 80.906421 
L 107.847273 80.906421 
L 108.600364 80.906421 
L 109.353455 80.906421 
L 110.106545 80.906421 
L 110.859636 80.906421 
L 111.612727 80.906421 
L 112.365818 80.906421 
L 113.118909 80.906421 
L 113.872 80.906421 
L 114.625091 80.906421 
L 115.378182 80.906421 
L 116.131273 80.906421 
L 116.884364 80.906421 
L 117.637455 80.906421 
L 118.390545 80.906421 
L 119.143636 80.906421 
L 119.896727 80.906421 
L 120.649818 80.906421 
L 121.402909 80.906421 
L 122.156 80.906421 
L 122.909091 80.906421 
L 123.662182 80.906421 
L 124.415273 80.906421 
L 125.168364 80.906421 
L 125.921455 80.906421 
L 126.674545 80.906421 
" style="fill:none;stroke:#333333;stroke-linecap:round;stroke-width:1.5;"/>
   </g>
   <g id="line2d_21">
    <path clip-path="url(#p2ab7bc7857)" d="M 51.365455 58.357705 
L 52.118545 58.357705 
L 52.871636 58.357705 
L 53.624727 58.357705 
L 54.377818 58.357705 
L 55.130909 58.357705 
L 55.884 58.357705 
L 56.637091 58.357705 
L 57.390182 58.357705 
L 58.143273 58.357705 
L 58.896364 58.357705 
L 59.649455 58.357705 
L 60.402545 58.357705 
L 61.155636 58.357705 
L 61.908727 58.357705 
L 62.661818 58.357705 
L 63.414909 58.357705 
L 64.168 58.357705 
L 64.921091 58.357705 
L 65.674182 58.357705 
L 66.427273 58.357705 
L 67.180364 58.357705 
L 67.933455 58.357705 
L 68.686545 58.357705 
L 69.439636 58.357705 
L 70.192727 58.357705 
L 70.945818 58.357705 
L 71.698909 58.357705 
L 72.452 58.357705 
L 73.205091 58.357705 
L 73.958182 58.357705 
L 74.711273 58.357705 
L 75.464364 58.357705 
L 76.217455 58.357705 
L 76.970545 58.357705 
L 77.723636 58.357705 
L 78.476727 58.357705 
L 79.229818 58.357705 
L 79.982909 58.357705 
L 80.736 58.357705 
L 81.489091 58.357705 
L 82.242182 58.357705 
L 82.995273 58.357705 
L 83.748364 58.357705 
L 84.501455 58.357705 
L 85.254545 58.357705 
L 86.007636 58.357705 
L 86.760727 58.357705 
L 87.513818 58.357705 
L 88.266909 58.357705 
L 89.02 58.357705 
L 89.773091 58.357705 
L 90.526182 58.357705 
L 91.279273 58.357705 
L 92.032364 58.357705 
L 92.785455 58.357705 
L 93.538545 58.357705 
L 94.291636 58.357705 
L 95.044727 58.357705 
L 95.797818 58.357705 
L 96.550909 58.357705 
L 97.304 58.357705 
L 98.057091 58.357705 
L 98.810182 58.357705 
L 99.563273 58.357705 
L 100.316364 58.357705 
L 101.069455 58.357705 
L 101.822545 58.357705 
L 102.575636 58.357705 
L 103.328727 58.357705 
L 104.081818 58.357705 
L 104.834909 58.357705 
L 105.588 58.357705 
L 106.341091 58.357705 
L 107.094182 58.357705 
L 107.847273 58.357705 
L 108.600364 58.357705 
L 109.353455 58.357705 
L 110.106545 58.357705 
L 110.859636 58.357705 
L 111.612727 58.357705 
L 112.365818 58.357705 
L 113.118909 58.357705 
L 113.872 58.357705 
L 114.625091 58.357705 
L 115.378182 58.357705 
L 116.131273 58.357705 
L 116.884364 58.357705 
L 117.637455 58.357705 
L 118.390545 58.357705 
L 119.143636 58.357705 
L 119.896727 58.357705 
L 120.649818 58.357705 
L 121.402909 58.357705 
L 122.156 58.357705 
L 122.909091 58.357705 
L 123.662182 58.357705 
L 124.415273 58.357705 
L 125.168364 58.357705 
L 125.921455 58.357705 
L 126.674545 58.357705 
" style="fill:none;stroke:#333333;stroke-linecap:round;stroke-width:1.5;"/>
   </g>
  </g>
 </g>
 <defs>
  <clipPath id="p2ab7bc7857">
   <rect height="86.683036" width="82.84" x="47.6" y="15.236964"/>
  </clipPath>
 </defs>
</svg>
