<?xml version="1.0" encoding="utf-8" standalone="no"?>
<!DOCTYPE svg PUBLIC "-//W3C//DTD SVG 1.1//EN"
  "http://www.w3.org/Graphics/SVG/1.1/DTD/svg11.dtd">
<!-- Created with matplotlib (http://matplotlib.org/) -->
<svg height="144pt" version="1.1" viewBox="0 0 144 144" width="144pt" xmlns="http://www.w3.org/2000/svg" xmlns:xlink="http://www.w3.org/1999/xlink">
 <defs>
  <style type="text/css">
*{stroke-linecap:butt;stroke-linejoin:round;}
  </style>
 </defs>
 <g id="figure_1">
  <g id="patch_1">
   <path d="M 0 144 
L 144 144 
L 144 0 
L 0 0 
z
" style="fill:#ffffff;"/>
  </g>
  <g id="axes_1">
   <g id="patch_2">
    <path d="M 47.6 101.92 
L 130.44 101.92 
L 130.44 13.56 
L 47.6 13.56 
z
" style="fill:#ffffff;"/>
   </g>
   <g id="matplotlib.axis_1">
    <g id="xtick_1">
     <g id="line2d_1">
      <defs>
       <path d="M 0 0 
L 0 3.5 
" id="m7ec393dc2b" style="stroke:#262626;stroke-width:0.8;"/>
      </defs>
      <g>
       <use style="fill:#262626;stroke:#262626;stroke-width:0.8;" x="51.365455" xlink:href="#m7ec393dc2b" y="101.92"/>
      </g>
     </g>
     <g id="text_1">
      <!-- 2 -->
      <defs>
       <path d="M 50.34375 8.453125 
L 50.34375 0 
L 3.03125 0 
Q 2.9375 3.171875 4.046875 6.109375 
Q 5.859375 10.9375 9.828125 15.625 
Q 13.8125 20.3125 21.34375 26.46875 
Q 33.015625 36.03125 37.109375 41.625 
Q 41.21875 47.21875 41.21875 52.203125 
Q 41.21875 57.421875 37.46875 61 
Q 33.734375 64.59375 27.734375 64.59375 
Q 21.390625 64.59375 17.578125 60.78125 
Q 13.765625 56.984375 13.71875 50.25 
L 4.6875 51.171875 
Q 5.609375 61.28125 11.65625 66.578125 
Q 17.71875 71.875 27.9375 71.875 
Q 38.234375 71.875 44.234375 66.15625 
Q 50.25 60.453125 50.25 52 
Q 50.25 47.703125 48.484375 43.546875 
Q 46.734375 39.40625 42.65625 34.8125 
Q 38.578125 30.21875 29.109375 22.21875 
Q 21.1875 15.578125 18.9375 13.203125 
Q 16.703125 10.84375 15.234375 8.453125 
z
" id="ArialMT-32"/>
      </defs>
      <g style="fill:#262626;" transform="translate(48.306939 116.793594)scale(0.11 -0.11)">
       <use xlink:href="#ArialMT-32"/>
      </g>
     </g>
    </g>
    <g id="xtick_2">
     <g id="line2d_2">
      <g>
       <use style="fill:#262626;stroke:#262626;stroke-width:0.8;" x="66.427273" xlink:href="#m7ec393dc2b" y="101.92"/>
      </g>
     </g>
     <g id="text_2">
      <!-- 4 -->
      <defs>
       <path d="M 32.328125 0 
L 32.328125 17.140625 
L 1.265625 17.140625 
L 1.265625 25.203125 
L 33.9375 71.578125 
L 41.109375 71.578125 
L 41.109375 25.203125 
L 50.78125 25.203125 
L 50.78125 17.140625 
L 41.109375 17.140625 
L 41.109375 0 
z
M 32.328125 25.203125 
L 32.328125 57.46875 
L 9.90625 25.203125 
z
" id="ArialMT-34"/>
      </defs>
      <g style="fill:#262626;" transform="translate(63.368757 116.793594)scale(0.11 -0.11)">
       <use xlink:href="#ArialMT-34"/>
      </g>
     </g>
    </g>
    <g id="xtick_3">
     <g id="line2d_3">
      <g>
       <use style="fill:#262626;stroke:#262626;stroke-width:0.8;" x="81.489091" xlink:href="#m7ec393dc2b" y="101.92"/>
      </g>
     </g>
     <g id="text_3">
      <!-- 6 -->
      <defs>
       <path d="M 49.75 54.046875 
L 41.015625 53.375 
Q 39.84375 58.546875 37.703125 60.890625 
Q 34.125 64.65625 28.90625 64.65625 
Q 24.703125 64.65625 21.53125 62.3125 
Q 17.390625 59.28125 14.984375 53.46875 
Q 12.59375 47.65625 12.5 36.921875 
Q 15.671875 41.75 20.265625 44.09375 
Q 24.859375 46.4375 29.890625 46.4375 
Q 38.671875 46.4375 44.84375 39.96875 
Q 51.03125 33.5 51.03125 23.25 
Q 51.03125 16.5 48.125 10.71875 
Q 45.21875 4.9375 40.140625 1.859375 
Q 35.0625 -1.21875 28.609375 -1.21875 
Q 17.625 -1.21875 10.6875 6.859375 
Q 3.765625 14.9375 3.765625 33.5 
Q 3.765625 54.25 11.421875 63.671875 
Q 18.109375 71.875 29.4375 71.875 
Q 37.890625 71.875 43.28125 67.140625 
Q 48.6875 62.40625 49.75 54.046875 
z
M 13.875 23.1875 
Q 13.875 18.65625 15.796875 14.5 
Q 17.71875 10.359375 21.1875 8.171875 
Q 24.65625 6 28.46875 6 
Q 34.03125 6 38.03125 10.484375 
Q 42.046875 14.984375 42.046875 22.703125 
Q 42.046875 30.125 38.078125 34.390625 
Q 34.125 38.671875 28.125 38.671875 
Q 22.171875 38.671875 18.015625 34.390625 
Q 13.875 30.125 13.875 23.1875 
z
" id="ArialMT-36"/>
      </defs>
      <g style="fill:#262626;" transform="translate(78.430575 116.793594)scale(0.11 -0.11)">
       <use xlink:href="#ArialMT-36"/>
      </g>
     </g>
    </g>
    <g id="xtick_4">
     <g id="line2d_4">
      <g>
       <use style="fill:#262626;stroke:#262626;stroke-width:0.8;" x="96.550909" xlink:href="#m7ec393dc2b" y="101.92"/>
      </g>
     </g>
     <g id="text_4">
      <!-- 8 -->
      <defs>
       <path d="M 17.671875 38.8125 
Q 12.203125 40.828125 9.5625 44.53125 
Q 6.9375 48.25 6.9375 53.421875 
Q 6.9375 61.234375 12.546875 66.546875 
Q 18.171875 71.875 27.484375 71.875 
Q 36.859375 71.875 42.578125 66.421875 
Q 48.296875 60.984375 48.296875 53.171875 
Q 48.296875 48.1875 45.671875 44.5 
Q 43.0625 40.828125 37.75 38.8125 
Q 44.34375 36.671875 47.78125 31.875 
Q 51.21875 27.09375 51.21875 20.453125 
Q 51.21875 11.28125 44.71875 5.03125 
Q 38.234375 -1.21875 27.640625 -1.21875 
Q 17.046875 -1.21875 10.546875 5.046875 
Q 4.046875 11.328125 4.046875 20.703125 
Q 4.046875 27.6875 7.59375 32.390625 
Q 11.140625 37.109375 17.671875 38.8125 
z
M 15.921875 53.71875 
Q 15.921875 48.640625 19.1875 45.40625 
Q 22.46875 42.1875 27.6875 42.1875 
Q 32.765625 42.1875 36.015625 45.375 
Q 39.265625 48.578125 39.265625 53.21875 
Q 39.265625 58.0625 35.90625 61.359375 
Q 32.5625 64.65625 27.59375 64.65625 
Q 22.5625 64.65625 19.234375 61.421875 
Q 15.921875 58.203125 15.921875 53.71875 
z
M 13.09375 20.65625 
Q 13.09375 16.890625 14.875 13.375 
Q 16.65625 9.859375 20.171875 7.921875 
Q 23.6875 6 27.734375 6 
Q 34.03125 6 38.125 10.046875 
Q 42.234375 14.109375 42.234375 20.359375 
Q 42.234375 26.703125 38.015625 30.859375 
Q 33.796875 35.015625 27.4375 35.015625 
Q 21.234375 35.015625 17.15625 30.90625 
Q 13.09375 26.8125 13.09375 20.65625 
z
" id="ArialMT-38"/>
      </defs>
      <g style="fill:#262626;" transform="translate(93.492393 116.793594)scale(0.11 -0.11)">
       <use xlink:href="#ArialMT-38"/>
      </g>
     </g>
    </g>
    <g id="xtick_5">
     <g id="line2d_5">
      <g>
       <use style="fill:#262626;stroke:#262626;stroke-width:0.8;" x="111.612727" xlink:href="#m7ec393dc2b" y="101.92"/>
      </g>
     </g>
     <g id="text_5">
      <!-- 10 -->
      <defs>
       <path d="M 37.25 0 
L 28.46875 0 
L 28.46875 56 
Q 25.296875 52.984375 20.140625 49.953125 
Q 14.984375 46.921875 10.890625 45.40625 
L 10.890625 53.90625 
Q 18.265625 57.375 23.78125 62.296875 
Q 29.296875 67.234375 31.59375 71.875 
L 37.25 71.875 
z
" id="ArialMT-31"/>
       <path d="M 4.15625 35.296875 
Q 4.15625 48 6.765625 55.734375 
Q 9.375 63.484375 14.515625 67.671875 
Q 19.671875 71.875 27.484375 71.875 
Q 33.25 71.875 37.59375 69.546875 
Q 41.9375 67.234375 44.765625 62.859375 
Q 47.609375 58.5 49.21875 52.21875 
Q 50.828125 45.953125 50.828125 35.296875 
Q 50.828125 22.703125 48.234375 14.96875 
Q 45.65625 7.234375 40.5 3 
Q 35.359375 -1.21875 27.484375 -1.21875 
Q 17.140625 -1.21875 11.234375 6.203125 
Q 4.15625 15.140625 4.15625 35.296875 
z
M 13.1875 35.296875 
Q 13.1875 17.671875 17.3125 11.828125 
Q 21.4375 6 27.484375 6 
Q 33.546875 6 37.671875 11.859375 
Q 41.796875 17.71875 41.796875 35.296875 
Q 41.796875 52.984375 37.671875 58.78125 
Q 33.546875 64.59375 27.390625 64.59375 
Q 21.34375 64.59375 17.71875 59.46875 
Q 13.1875 52.9375 13.1875 35.296875 
z
" id="ArialMT-30"/>
      </defs>
      <g style="fill:#262626;" transform="translate(105.495696 116.793594)scale(0.11 -0.11)">
       <use xlink:href="#ArialMT-31"/>
       <use x="55.615234" xlink:href="#ArialMT-30"/>
      </g>
     </g>
    </g>
    <g id="xtick_6">
     <g id="line2d_6">
      <g>
       <use style="fill:#262626;stroke:#262626;stroke-width:0.8;" x="126.674545" xlink:href="#m7ec393dc2b" y="101.92"/>
      </g>
     </g>
     <g id="text_6">
      <!-- 12 -->
      <g style="fill:#262626;" transform="translate(120.557514 116.793594)scale(0.11 -0.11)">
       <use xlink:href="#ArialMT-31"/>
       <use x="55.615234" xlink:href="#ArialMT-32"/>
      </g>
     </g>
    </g>
    <g id="text_7">
     <!-- pH -->
     <defs>
      <path d="M 6.59375 -19.875 
L 6.59375 51.859375 
L 14.59375 51.859375 
L 14.59375 45.125 
Q 17.4375 49.078125 21 51.046875 
Q 24.5625 53.03125 29.640625 53.03125 
Q 36.28125 53.03125 41.359375 49.609375 
Q 46.4375 46.1875 49.015625 39.953125 
Q 51.609375 33.734375 51.609375 26.3125 
Q 51.609375 18.359375 48.75 11.984375 
Q 45.90625 5.609375 40.453125 2.21875 
Q 35.015625 -1.171875 29 -1.171875 
Q 24.609375 -1.171875 21.109375 0.6875 
Q 17.625 2.546875 15.375 5.375 
L 15.375 -19.875 
z
M 14.546875 25.640625 
Q 14.546875 15.625 18.59375 10.84375 
Q 22.65625 6.0625 28.421875 6.0625 
Q 34.28125 6.0625 38.453125 11.015625 
Q 42.625 15.96875 42.625 26.375 
Q 42.625 36.28125 38.546875 41.203125 
Q 34.46875 46.140625 28.8125 46.140625 
Q 23.1875 46.140625 18.859375 40.890625 
Q 14.546875 35.640625 14.546875 25.640625 
z
" id="ArialMT-70"/>
      <path d="M 8.015625 0 
L 8.015625 71.578125 
L 17.484375 71.578125 
L 17.484375 42.1875 
L 54.6875 42.1875 
L 54.6875 71.578125 
L 64.15625 71.578125 
L 64.15625 0 
L 54.6875 0 
L 54.6875 33.734375 
L 17.484375 33.734375 
L 17.484375 0 
z
" id="ArialMT-48"/>
     </defs>
     <g style="fill:#262626;" transform="translate(81.989453 130.853437)scale(0.11 -0.11)">
      <use xlink:href="#ArialMT-70"/>
      <use x="55.615234" xlink:href="#ArialMT-48"/>
     </g>
    </g>
   </g>
   <g id="matplotlib.axis_2">
    <g id="ytick_1">
     <g id="line2d_7">
      <defs>
       <path d="M 0 0 
L -3.5 0 
" id="ma26480e3b7" style="stroke:#262626;stroke-width:0.8;"/>
      </defs>
      <g>
       <use style="fill:#262626;stroke:#262626;stroke-width:0.8;" x="47.6" xlink:href="#ma26480e3b7" y="90.694379"/>
      </g>
     </g>
     <g id="text_8">
      <!-- 0 -->
      <g style="fill:#262626;" transform="translate(34.482969 94.631176)scale(0.11 -0.11)">
       <use xlink:href="#ArialMT-30"/>
      </g>
     </g>
    </g>
    <g id="ytick_2">
     <g id="line2d_8">
      <g>
       <use style="fill:#262626;stroke:#262626;stroke-width:0.8;" x="47.6" xlink:href="#ma26480e3b7" y="63.703516"/>
      </g>
     </g>
     <g id="text_9">
      <!-- 20 -->
      <g style="fill:#262626;" transform="translate(28.365938 67.640313)scale(0.11 -0.11)">
       <use xlink:href="#ArialMT-32"/>
       <use x="55.615234" xlink:href="#ArialMT-30"/>
      </g>
     </g>
    </g>
    <g id="ytick_3">
     <g id="line2d_9">
      <g>
       <use style="fill:#262626;stroke:#262626;stroke-width:0.8;" x="47.6" xlink:href="#ma26480e3b7" y="36.712652"/>
      </g>
     </g>
     <g id="text_10">
      <!-- 40 -->
      <g style="fill:#262626;" transform="translate(28.365938 40.649449)scale(0.11 -0.11)">
       <use xlink:href="#ArialMT-34"/>
       <use x="55.615234" xlink:href="#ArialMT-30"/>
      </g>
     </g>
    </g>
    <g id="text_11">
     <!-- Free energy ($k_B T$) -->
     <defs>
      <path d="M 8.203125 0 
L 8.203125 71.578125 
L 56.5 71.578125 
L 56.5 63.140625 
L 17.671875 63.140625 
L 17.671875 40.96875 
L 51.265625 40.96875 
L 51.265625 32.515625 
L 17.671875 32.515625 
L 17.671875 0 
z
" id="ArialMT-46"/>
      <path d="M 6.5 0 
L 6.5 51.859375 
L 14.40625 51.859375 
L 14.40625 44 
Q 17.4375 49.515625 20 51.265625 
Q 22.5625 53.03125 25.640625 53.03125 
Q 30.078125 53.03125 34.671875 50.203125 
L 31.640625 42.046875 
Q 28.421875 43.953125 25.203125 43.953125 
Q 22.3125 43.953125 20.015625 42.21875 
Q 17.71875 40.484375 16.75 37.40625 
Q 15.28125 32.71875 15.28125 27.15625 
L 15.28125 0 
z
" id="ArialMT-72"/>
      <path d="M 42.09375 16.703125 
L 51.171875 15.578125 
Q 49.03125 7.625 43.21875 3.21875 
Q 37.40625 -1.171875 28.375 -1.171875 
Q 17 -1.171875 10.328125 5.828125 
Q 3.65625 12.84375 3.65625 25.484375 
Q 3.65625 38.578125 10.390625 45.796875 
Q 17.140625 53.03125 27.875 53.03125 
Q 38.28125 53.03125 44.875 45.953125 
Q 51.46875 38.875 51.46875 26.03125 
Q 51.46875 25.25 51.421875 23.6875 
L 12.75 23.6875 
Q 13.234375 15.140625 17.578125 10.59375 
Q 21.921875 6.0625 28.421875 6.0625 
Q 33.25 6.0625 36.671875 8.59375 
Q 40.09375 11.140625 42.09375 16.703125 
z
M 13.234375 30.90625 
L 42.1875 30.90625 
Q 41.609375 37.453125 38.875 40.71875 
Q 34.671875 45.796875 27.984375 45.796875 
Q 21.921875 45.796875 17.796875 41.75 
Q 13.671875 37.703125 13.234375 30.90625 
z
" id="ArialMT-65"/>
      <path id="ArialMT-20"/>
      <path d="M 6.59375 0 
L 6.59375 51.859375 
L 14.5 51.859375 
L 14.5 44.484375 
Q 20.21875 53.03125 31 53.03125 
Q 35.6875 53.03125 39.625 51.34375 
Q 43.5625 49.65625 45.515625 46.921875 
Q 47.46875 44.1875 48.25 40.4375 
Q 48.734375 37.984375 48.734375 31.890625 
L 48.734375 0 
L 39.9375 0 
L 39.9375 31.546875 
Q 39.9375 36.921875 38.90625 39.578125 
Q 37.890625 42.234375 35.28125 43.8125 
Q 32.671875 45.40625 29.15625 45.40625 
Q 23.53125 45.40625 19.453125 41.84375 
Q 15.375 38.28125 15.375 28.328125 
L 15.375 0 
z
" id="ArialMT-6e"/>
      <path d="M 4.984375 -4.296875 
L 13.53125 -5.5625 
Q 14.0625 -9.515625 16.5 -11.328125 
Q 19.78125 -13.765625 25.4375 -13.765625 
Q 31.546875 -13.765625 34.859375 -11.328125 
Q 38.1875 -8.890625 39.359375 -4.5 
Q 40.046875 -1.8125 39.984375 6.78125 
Q 34.234375 0 25.640625 0 
Q 14.9375 0 9.078125 7.71875 
Q 3.21875 15.4375 3.21875 26.21875 
Q 3.21875 33.640625 5.90625 39.90625 
Q 8.59375 46.1875 13.6875 49.609375 
Q 18.796875 53.03125 25.6875 53.03125 
Q 34.859375 53.03125 40.828125 45.609375 
L 40.828125 51.859375 
L 48.921875 51.859375 
L 48.921875 7.03125 
Q 48.921875 -5.078125 46.453125 -10.125 
Q 44 -15.1875 38.640625 -18.109375 
Q 33.296875 -21.046875 25.484375 -21.046875 
Q 16.21875 -21.046875 10.5 -16.875 
Q 4.78125 -12.703125 4.984375 -4.296875 
z
M 12.25 26.859375 
Q 12.25 16.65625 16.296875 11.96875 
Q 20.359375 7.28125 26.46875 7.28125 
Q 32.515625 7.28125 36.609375 11.9375 
Q 40.71875 16.609375 40.71875 26.5625 
Q 40.71875 36.078125 36.5 40.90625 
Q 32.28125 45.75 26.3125 45.75 
Q 20.453125 45.75 16.34375 40.984375 
Q 12.25 36.234375 12.25 26.859375 
z
" id="ArialMT-67"/>
      <path d="M 6.203125 -19.96875 
L 5.21875 -11.71875 
Q 8.109375 -12.5 10.25 -12.5 
Q 13.1875 -12.5 14.9375 -11.515625 
Q 16.703125 -10.546875 17.828125 -8.796875 
Q 18.65625 -7.46875 20.515625 -2.25 
Q 20.75 -1.515625 21.296875 -0.09375 
L 1.609375 51.859375 
L 11.078125 51.859375 
L 21.875 21.828125 
Q 23.96875 16.109375 25.640625 9.8125 
Q 27.15625 15.875 29.25 21.625 
L 40.328125 51.859375 
L 49.125 51.859375 
L 29.390625 -0.875 
Q 26.21875 -9.421875 24.46875 -12.640625 
Q 22.125 -17 19.09375 -19.015625 
Q 16.0625 -21.046875 11.859375 -21.046875 
Q 9.328125 -21.046875 6.203125 -19.96875 
z
" id="ArialMT-79"/>
      <path d="M 23.390625 -21.046875 
Q 16.109375 -11.859375 11.078125 0.4375 
Q 6.0625 12.75 6.0625 25.921875 
Q 6.0625 37.546875 9.8125 48.1875 
Q 14.203125 60.546875 23.390625 72.796875 
L 29.6875 72.796875 
Q 23.78125 62.640625 21.875 58.296875 
Q 18.890625 51.5625 17.1875 44.234375 
Q 15.09375 35.109375 15.09375 25.875 
Q 15.09375 2.390625 29.6875 -21.046875 
z
" id="ArialMT-28"/>
      <path d="M 18.3125 75.984375 
L 27.296875 75.984375 
L 18.703125 31.6875 
L 49.515625 54.6875 
L 61.1875 54.6875 
L 26.8125 28.515625 
L 51.90625 0 
L 41.015625 0 
L 17.671875 26.703125 
L 12.5 0 
L 3.515625 0 
z
" id="DejaVuSans-Oblique-6b"/>
      <path d="M 16.890625 72.90625 
L 42.09375 72.90625 
Q 52.34375 72.90625 57.421875 69.09375 
Q 62.5 65.28125 62.5 57.625 
Q 62.5 50.59375 58.125 45.484375 
Q 53.765625 40.375 46.6875 39.3125 
Q 52.734375 37.9375 55.765625 34.078125 
Q 58.796875 30.21875 58.796875 23.78125 
Q 58.796875 12.796875 50.65625 6.390625 
Q 42.53125 0 28.421875 0 
L 2.6875 0 
z
M 19.28125 34.8125 
L 14.109375 8.109375 
L 29.984375 8.109375 
Q 38.921875 8.109375 43.75 12.203125 
Q 48.578125 16.3125 48.578125 23.78125 
Q 48.578125 29.546875 45.375 32.171875 
Q 42.1875 34.8125 35.109375 34.8125 
z
M 25.09375 64.796875 
L 20.796875 42.828125 
L 35.5 42.828125 
Q 43.359375 42.828125 47.78125 46.234375 
Q 52.203125 49.65625 52.203125 55.71875 
Q 52.203125 60.453125 49.21875 62.625 
Q 46.234375 64.796875 39.703125 64.796875 
z
" id="DejaVuSans-Oblique-42"/>
      <path d="M 5.90625 72.90625 
L 67.578125 72.90625 
L 66.015625 64.59375 
L 39.984375 64.59375 
L 27.484375 0 
L 17.578125 0 
L 30.078125 64.59375 
L 4.296875 64.59375 
z
" id="DejaVuSans-Oblique-54"/>
      <path d="M 12.359375 -21.046875 
L 6.0625 -21.046875 
Q 20.65625 2.390625 20.65625 25.875 
Q 20.65625 35.0625 18.5625 44.09375 
Q 16.890625 51.421875 13.921875 58.15625 
Q 12.015625 62.546875 6.0625 72.796875 
L 12.359375 72.796875 
Q 21.53125 60.546875 25.921875 48.1875 
Q 29.6875 37.546875 29.6875 25.921875 
Q 29.6875 12.75 24.625 0.4375 
Q 19.578125 -11.859375 12.359375 -21.046875 
z
" id="ArialMT-29"/>
     </defs>
     <g style="fill:#262626;" transform="translate(21.945938 101.96)rotate(-90)scale(0.11 -0.11)">
      <use transform="translate(0 0.015625)" xlink:href="#ArialMT-46"/>
      <use transform="translate(61.083984 0.015625)" xlink:href="#ArialMT-72"/>
      <use transform="translate(94.384766 0.015625)" xlink:href="#ArialMT-65"/>
      <use transform="translate(150 0.015625)" xlink:href="#ArialMT-65"/>
      <use transform="translate(205.615234 0.015625)" xlink:href="#ArialMT-20"/>
      <use transform="translate(233.398438 0.015625)" xlink:href="#ArialMT-65"/>
      <use transform="translate(289.013672 0.015625)" xlink:href="#ArialMT-6e"/>
      <use transform="translate(344.628906 0.015625)" xlink:href="#ArialMT-65"/>
      <use transform="translate(400.244141 0.015625)" xlink:href="#ArialMT-72"/>
      <use transform="translate(433.544922 0.015625)" xlink:href="#ArialMT-67"/>
      <use transform="translate(489.160156 0.015625)" xlink:href="#ArialMT-79"/>
      <use transform="translate(539.160156 0.015625)" xlink:href="#ArialMT-20"/>
      <use transform="translate(566.943359 0.015625)" xlink:href="#ArialMT-28"/>
      <use transform="translate(600.244141 0.015625)" xlink:href="#DejaVuSans-Oblique-6b"/>
      <use transform="translate(658.154297 -16.390625)scale(0.7)" xlink:href="#DejaVuSans-Oblique-42"/>
      <use transform="translate(708.911133 0.015625)" xlink:href="#DejaVuSans-Oblique-54"/>
      <use transform="translate(769.995117 0.015625)" xlink:href="#ArialMT-29"/>
     </g>
    </g>
   </g>
   <g id="patch_3">
    <path d="M 47.6 101.92 
L 47.6 13.56 
" style="fill:none;stroke:#262626;stroke-linecap:square;stroke-linejoin:miter;stroke-width:0.8;"/>
   </g>
   <g id="patch_4">
    <path d="M 47.6 101.92 
L 130.44 101.92 
" style="fill:none;stroke:#262626;stroke-linecap:square;stroke-linejoin:miter;stroke-width:0.8;"/>
   </g>
   <g id="line2d_10">
    <path clip-path="url(#p26049280e0)" d="M 51.365455 17.576364 
L 52.118545 18.197851 
L 52.871636 18.819339 
L 53.624727 19.440826 
L 54.377818 20.062314 
L 55.130909 20.683802 
L 55.884 21.305289 
L 56.637091 21.926777 
L 57.390182 22.548264 
L 58.143273 23.169752 
L 58.896364 23.79124 
L 59.649455 24.412727 
L 60.402545 25.034215 
L 61.155636 25.655702 
L 61.908727 26.27719 
L 62.661818 26.898678 
L 63.414909 27.520165 
L 64.168 28.141653 
L 64.921091 28.76314 
L 65.674182 29.384628 
L 66.427273 30.006116 
L 67.180364 30.627603 
L 67.933455 31.249091 
L 68.686545 31.870579 
L 69.439636 32.492066 
L 70.192727 33.113554 
L 70.945818 33.735041 
L 71.698909 34.356529 
L 72.452 34.978017 
L 73.205091 35.599504 
L 73.958182 36.220992 
L 74.711273 36.842479 
L 75.464364 37.463967 
L 76.217455 38.085455 
L 76.970545 38.706942 
L 77.723636 39.32843 
L 78.476727 39.949917 
L 79.229818 40.571405 
L 79.982909 41.192893 
L 80.736 41.81438 
L 81.489091 42.435868 
L 82.242182 43.057355 
L 82.995273 43.678843 
L 83.748364 44.300331 
L 84.501455 44.921818 
L 85.254545 45.543306 
L 86.007636 46.164793 
L 86.760727 46.786281 
L 87.513818 47.407769 
L 88.266909 48.029256 
L 89.02 48.650744 
L 89.773091 49.272231 
L 90.526182 49.893719 
L 91.279273 50.515207 
L 92.032364 51.136694 
L 92.785455 51.758182 
L 93.538545 52.379669 
L 94.291636 53.001157 
L 95.044727 53.622645 
L 95.797818 54.244132 
L 96.550909 54.86562 
L 97.304 55.487107 
L 98.057091 56.108595 
L 98.810182 56.730083 
L 99.563273 57.35157 
L 100.316364 57.973058 
L 101.069455 58.594545 
L 101.822545 59.216033 
L 102.575636 59.837521 
L 103.328727 60.459008 
L 104.081818 61.080496 
L 104.834909 61.701983 
L 105.588 62.323471 
L 106.341091 62.944959 
L 107.094182 63.566446 
L 107.847273 64.187934 
L 108.600364 64.809421 
L 109.353455 65.430909 
L 110.106545 66.052397 
L 110.859636 66.673884 
L 111.612727 67.295372 
L 112.365818 67.916859 
L 113.118909 68.538347 
L 113.872 69.159835 
L 114.625091 69.781322 
L 115.378182 70.40281 
L 116.131273 71.024297 
L 116.884364 71.645785 
L 117.637455 72.267273 
L 118.390545 72.88876 
L 119.143636 73.510248 
L 119.896727 74.131736 
L 120.649818 74.753223 
L 121.402909 75.374711 
L 122.156 75.996198 
L 122.909091 76.617686 
L 123.662182 77.239174 
L 124.415273 77.860661 
L 125.168364 78.482149 
L 125.921455 79.103636 
L 126.674545 79.725124 
" style="fill:none;stroke:#d6604d;stroke-linecap:round;stroke-width:1.5;"/>
   </g>
   <g id="line2d_11">
    <path clip-path="url(#p26049280e0)" d="M 51.365455 66.829256 
L 52.118545 67.14 
L 52.871636 67.450744 
L 53.624727 67.761488 
L 54.377818 68.072231 
L 55.130909 68.382975 
L 55.884 68.693719 
L 56.637091 69.004463 
L 57.390182 69.315207 
L 58.143273 69.62595 
L 58.896364 69.936694 
L 59.649455 70.247438 
L 60.402545 70.558182 
L 61.155636 70.868926 
L 61.908727 71.179669 
L 62.661818 71.490413 
L 63.414909 71.801157 
L 64.168 72.111901 
L 64.921091 72.422645 
L 65.674182 72.733388 
L 66.427273 73.044132 
L 67.180364 73.354876 
L 67.933455 73.66562 
L 68.686545 73.976364 
L 69.439636 74.287107 
L 70.192727 74.597851 
L 70.945818 74.908595 
L 71.698909 75.219339 
L 72.452 75.530083 
L 73.205091 75.840826 
L 73.958182 76.15157 
L 74.711273 76.462314 
L 75.464364 76.773058 
L 76.217455 77.083802 
L 76.970545 77.394545 
L 77.723636 77.705289 
L 78.476727 78.016033 
L 79.229818 78.326777 
L 79.982909 78.637521 
L 80.736 78.948264 
L 81.489091 79.259008 
L 82.242182 79.569752 
L 82.995273 79.880496 
L 83.748364 80.19124 
L 84.501455 80.501983 
L 85.254545 80.812727 
L 86.007636 81.123471 
L 86.760727 81.434215 
L 87.513818 81.744959 
L 88.266909 82.055702 
L 89.02 82.366446 
L 89.773091 82.67719 
L 90.526182 82.987934 
L 91.279273 83.298678 
L 92.032364 83.609421 
L 92.785455 83.920165 
L 93.538545 84.230909 
L 94.291636 84.541653 
L 95.044727 84.852397 
L 95.797818 85.163141 
L 96.550909 85.473884 
L 97.304 85.784628 
L 98.057091 86.095372 
L 98.810182 86.406116 
L 99.563273 86.71686 
L 100.316364 87.027603 
L 101.069455 87.338347 
L 101.822545 87.649091 
L 102.575636 87.959835 
L 103.328727 88.270579 
L 104.081818 88.581322 
L 104.834909 88.892066 
L 105.588 89.20281 
L 106.341091 89.513554 
L 107.094182 89.824298 
L 107.847273 90.135041 
L 108.600364 90.445785 
L 109.353455 90.756529 
L 110.106545 91.067273 
L 110.859636 91.378017 
L 111.612727 91.68876 
L 112.365818 91.999504 
L 113.118909 92.310248 
L 113.872 92.620992 
L 114.625091 92.931736 
L 115.378182 93.242479 
L 116.131273 93.553223 
L 116.884364 93.863967 
L 117.637455 94.174711 
L 118.390545 94.485455 
L 119.143636 94.796198 
L 119.896727 95.106942 
L 120.649818 95.417686 
L 121.402909 95.72843 
L 122.156 96.039174 
L 122.909091 96.349917 
L 123.662182 96.660661 
L 124.415273 96.971405 
L 125.168364 97.282149 
L 125.921455 97.592893 
L 126.674545 97.903636 
" style="fill:none;stroke:#f4a582;stroke-linecap:round;stroke-width:1.5;"/>
   </g>
   <g id="line2d_12">
    <path clip-path="url(#p26049280e0)" d="M 51.365455 82.934273 
L 52.118545 82.623529 
L 52.871636 82.312785 
L 53.624727 82.002041 
L 54.377818 81.691298 
L 55.130909 81.380554 
L 55.884 81.06981 
L 56.637091 80.759066 
L 57.390182 80.448322 
L 58.143273 80.137579 
L 58.896364 79.826835 
L 59.649455 79.516091 
L 60.402545 79.205347 
L 61.155636 78.894603 
L 61.908727 78.58386 
L 62.661818 78.273116 
L 63.414909 77.962372 
L 64.168 77.651628 
L 64.921091 77.340884 
L 65.674182 77.030141 
L 66.427273 76.719397 
L 67.180364 76.408653 
L 67.933455 76.097909 
L 68.686545 75.787165 
L 69.439636 75.476422 
L 70.192727 75.165678 
L 70.945818 74.854934 
L 71.698909 74.54419 
L 72.452 74.233446 
L 73.205091 73.922703 
L 73.958182 73.611959 
L 74.711273 73.301215 
L 75.464364 72.990471 
L 76.217455 72.679727 
L 76.970545 72.368983 
L 77.723636 72.05824 
L 78.476727 71.747496 
L 79.229818 71.436752 
L 79.982909 71.126008 
L 80.736 70.815264 
L 81.489091 70.504521 
L 82.242182 70.193777 
L 82.995273 69.883033 
L 83.748364 69.572289 
L 84.501455 69.261545 
L 85.254545 68.950802 
L 86.007636 68.640058 
L 86.760727 68.329314 
L 87.513818 68.01857 
L 88.266909 67.707826 
L 89.02 67.397083 
L 89.773091 67.086339 
L 90.526182 66.775595 
L 91.279273 66.464851 
L 92.032364 66.154107 
L 92.785455 65.843364 
L 93.538545 65.53262 
L 94.291636 65.221876 
L 95.044727 64.911132 
L 95.797818 64.600388 
L 96.550909 64.289645 
L 97.304 63.978901 
L 98.057091 63.668157 
L 98.810182 63.357413 
L 99.563273 63.046669 
L 100.316364 62.735926 
L 101.069455 62.425182 
L 101.822545 62.114438 
L 102.575636 61.803694 
L 103.328727 61.49295 
L 104.081818 61.182207 
L 104.834909 60.871463 
L 105.588 60.560719 
L 106.341091 60.249975 
L 107.094182 59.939231 
L 107.847273 59.628488 
L 108.600364 59.317744 
L 109.353455 59.007 
L 110.106545 58.696256 
L 110.859636 58.385512 
L 111.612727 58.074769 
L 112.365818 57.764025 
L 113.118909 57.453281 
L 113.872 57.142537 
L 114.625091 56.831793 
L 115.378182 56.52105 
L 116.131273 56.210306 
L 116.884364 55.899562 
L 117.637455 55.588818 
L 118.390545 55.278074 
L 119.143636 54.967331 
L 119.896727 54.656587 
L 120.649818 54.345843 
L 121.402909 54.035099 
L 122.156 53.724355 
L 122.909091 53.413612 
L 123.662182 53.102868 
L 124.415273 52.792124 
L 125.168364 52.48138 
L 125.921455 52.170636 
L 126.674545 51.859893 
" style="fill:none;stroke:#92c5de;stroke-linecap:round;stroke-width:1.5;"/>
   </g>
   <g id="line2d_13">
    <path clip-path="url(#p26049280e0)" d="M 51.365455 90.694379 
L 52.118545 90.694379 
L 52.871636 90.694379 
L 53.624727 90.694379 
L 54.377818 90.694379 
L 55.130909 90.694379 
L 55.884 90.694379 
L 56.637091 90.694379 
L 57.390182 90.694379 
L 58.143273 90.694379 
L 58.896364 90.694379 
L 59.649455 90.694379 
L 60.402545 90.694379 
L 61.155636 90.694379 
L 61.908727 90.694379 
L 62.661818 90.694379 
L 63.414909 90.694379 
L 64.168 90.694379 
L 64.921091 90.694379 
L 65.674182 90.694379 
L 66.427273 90.694379 
L 67.180364 90.694379 
L 67.933455 90.694379 
L 68.686545 90.694379 
L 69.439636 90.694379 
L 70.192727 90.694379 
L 70.945818 90.694379 
L 71.698909 90.694379 
L 72.452 90.694379 
L 73.205091 90.694379 
L 73.958182 90.694379 
L 74.711273 90.694379 
L 75.464364 90.694379 
L 76.217455 90.694379 
L 76.970545 90.694379 
L 77.723636 90.694379 
L 78.476727 90.694379 
L 79.229818 90.694379 
L 79.982909 90.694379 
L 80.736 90.694379 
L 81.489091 90.694379 
L 82.242182 90.694379 
L 82.995273 90.694379 
L 83.748364 90.694379 
L 84.501455 90.694379 
L 85.254545 90.694379 
L 86.007636 90.694379 
L 86.760727 90.694379 
L 87.513818 90.694379 
L 88.266909 90.694379 
L 89.02 90.694379 
L 89.773091 90.694379 
L 90.526182 90.694379 
L 91.279273 90.694379 
L 92.032364 90.694379 
L 92.785455 90.694379 
L 93.538545 90.694379 
L 94.291636 90.694379 
L 95.044727 90.694379 
L 95.797818 90.694379 
L 96.550909 90.694379 
L 97.304 90.694379 
L 98.057091 90.694379 
L 98.810182 90.694379 
L 99.563273 90.694379 
L 100.316364 90.694379 
L 101.069455 90.694379 
L 101.822545 90.694379 
L 102.575636 90.694379 
L 103.328727 90.694379 
L 104.081818 90.694379 
L 104.834909 90.694379 
L 105.588 90.694379 
L 106.341091 90.694379 
L 107.094182 90.694379 
L 107.847273 90.694379 
L 108.600364 90.694379 
L 109.353455 90.694379 
L 110.106545 90.694379 
L 110.859636 90.694379 
L 111.612727 90.694379 
L 112.365818 90.694379 
L 113.118909 90.694379 
L 113.872 90.694379 
L 114.625091 90.694379 
L 115.378182 90.694379 
L 116.131273 90.694379 
L 116.884364 90.694379 
L 117.637455 90.694379 
L 118.390545 90.694379 
L 119.143636 90.694379 
L 119.896727 90.694379 
L 120.649818 90.694379 
L 121.402909 90.694379 
L 122.156 90.694379 
L 122.909091 90.694379 
L 123.662182 90.694379 
L 124.415273 90.694379 
L 125.168364 90.694379 
L 125.921455 90.694379 
L 126.674545 90.694379 
" style="fill:none;stroke:#333333;stroke-linecap:round;stroke-width:1.5;"/>
   </g>
  </g>
 </g>
 <defs>
  <clipPath id="p26049280e0">
   <rect height="88.36" width="82.84" x="47.6" y="13.56"/>
  </clipPath>
 </defs>
</svg>
