<?xml version="1.0" encoding="utf-8" standalone="no"?>
<!DOCTYPE svg PUBLIC "-//W3C//DTD SVG 1.1//EN"
  "http://www.w3.org/Graphics/SVG/1.1/DTD/svg11.dtd">
<!-- Created with matplotlib (http://matplotlib.org/) -->
<svg height="216pt" version="1.1" viewBox="0 0 216 216" width="216pt" xmlns="http://www.w3.org/2000/svg" xmlns:xlink="http://www.w3.org/1999/xlink">
 <defs>
  <style type="text/css">
*{stroke-linecap:butt;stroke-linejoin:round;}
  </style>
 </defs>
 <g id="figure_1">
  <g id="patch_1">
   <path d="M 0 216 
L 216 216 
L 216 0 
L 0 0 
z
" style="fill:#ffffff;"/>
  </g>
  <g id="axes_1">
   <g id="patch_2">
    <path d="M 44.78 175.96 
L 203.52 175.96 
L 203.52 25.44 
L 44.78 25.44 
z
" style="fill:#ffffff;"/>
   </g>
   <g id="matplotlib.axis_1">
    <g id="xtick_1">
     <g id="line2d_1">
      <defs>
       <path d="M 0 0 
L 0 3.5 
" id="me383d3da7f" style="stroke:#262626;stroke-width:0.8;"/>
      </defs>
      <g>
       <use style="fill:#262626;stroke:#262626;stroke-width:0.8;" x="51.995455" xlink:href="#me383d3da7f" y="175.96"/>
      </g>
     </g>
     <g id="text_1">
      <!-- 2 -->
      <defs>
       <path d="M 50.34375 8.453125 
L 50.34375 0 
L 3.03125 0 
Q 2.9375 3.171875 4.046875 6.109375 
Q 5.859375 10.9375 9.828125 15.625 
Q 13.8125 20.3125 21.34375 26.46875 
Q 33.015625 36.03125 37.109375 41.625 
Q 41.21875 47.21875 41.21875 52.203125 
Q 41.21875 57.421875 37.46875 61 
Q 33.734375 64.59375 27.734375 64.59375 
Q 21.390625 64.59375 17.578125 60.78125 
Q 13.765625 56.984375 13.71875 50.25 
L 4.6875 51.171875 
Q 5.609375 61.28125 11.65625 66.578125 
Q 17.71875 71.875 27.9375 71.875 
Q 38.234375 71.875 44.234375 66.15625 
Q 50.25 60.453125 50.25 52 
Q 50.25 47.703125 48.484375 43.546875 
Q 46.734375 39.40625 42.65625 34.8125 
Q 38.578125 30.21875 29.109375 22.21875 
Q 21.1875 15.578125 18.9375 13.203125 
Q 16.703125 10.84375 15.234375 8.453125 
z
" id="ArialMT-32"/>
      </defs>
      <g style="fill:#262626;" transform="translate(49.214986 190.117812)scale(0.1 -0.1)">
       <use xlink:href="#ArialMT-32"/>
      </g>
     </g>
    </g>
    <g id="xtick_2">
     <g id="line2d_2">
      <g>
       <use style="fill:#262626;stroke:#262626;stroke-width:0.8;" x="80.857273" xlink:href="#me383d3da7f" y="175.96"/>
      </g>
     </g>
     <g id="text_2">
      <!-- 4 -->
      <defs>
       <path d="M 32.328125 0 
L 32.328125 17.140625 
L 1.265625 17.140625 
L 1.265625 25.203125 
L 33.9375 71.578125 
L 41.109375 71.578125 
L 41.109375 25.203125 
L 50.78125 25.203125 
L 50.78125 17.140625 
L 41.109375 17.140625 
L 41.109375 0 
z
M 32.328125 25.203125 
L 32.328125 57.46875 
L 9.90625 25.203125 
z
" id="ArialMT-34"/>
      </defs>
      <g style="fill:#262626;" transform="translate(78.076804 190.117812)scale(0.1 -0.1)">
       <use xlink:href="#ArialMT-34"/>
      </g>
     </g>
    </g>
    <g id="xtick_3">
     <g id="line2d_3">
      <g>
       <use style="fill:#262626;stroke:#262626;stroke-width:0.8;" x="109.719091" xlink:href="#me383d3da7f" y="175.96"/>
      </g>
     </g>
     <g id="text_3">
      <!-- 6 -->
      <defs>
       <path d="M 49.75 54.046875 
L 41.015625 53.375 
Q 39.84375 58.546875 37.703125 60.890625 
Q 34.125 64.65625 28.90625 64.65625 
Q 24.703125 64.65625 21.53125 62.3125 
Q 17.390625 59.28125 14.984375 53.46875 
Q 12.59375 47.65625 12.5 36.921875 
Q 15.671875 41.75 20.265625 44.09375 
Q 24.859375 46.4375 29.890625 46.4375 
Q 38.671875 46.4375 44.84375 39.96875 
Q 51.03125 33.5 51.03125 23.25 
Q 51.03125 16.5 48.125 10.71875 
Q 45.21875 4.9375 40.140625 1.859375 
Q 35.0625 -1.21875 28.609375 -1.21875 
Q 17.625 -1.21875 10.6875 6.859375 
Q 3.765625 14.9375 3.765625 33.5 
Q 3.765625 54.25 11.421875 63.671875 
Q 18.109375 71.875 29.4375 71.875 
Q 37.890625 71.875 43.28125 67.140625 
Q 48.6875 62.40625 49.75 54.046875 
z
M 13.875 23.1875 
Q 13.875 18.65625 15.796875 14.5 
Q 17.71875 10.359375 21.1875 8.171875 
Q 24.65625 6 28.46875 6 
Q 34.03125 6 38.03125 10.484375 
Q 42.046875 14.984375 42.046875 22.703125 
Q 42.046875 30.125 38.078125 34.390625 
Q 34.125 38.671875 28.125 38.671875 
Q 22.171875 38.671875 18.015625 34.390625 
Q 13.875 30.125 13.875 23.1875 
z
" id="ArialMT-36"/>
      </defs>
      <g style="fill:#262626;" transform="translate(106.938622 190.117812)scale(0.1 -0.1)">
       <use xlink:href="#ArialMT-36"/>
      </g>
     </g>
    </g>
    <g id="xtick_4">
     <g id="line2d_4">
      <g>
       <use style="fill:#262626;stroke:#262626;stroke-width:0.8;" x="138.580909" xlink:href="#me383d3da7f" y="175.96"/>
      </g>
     </g>
     <g id="text_4">
      <!-- 8 -->
      <defs>
       <path d="M 17.671875 38.8125 
Q 12.203125 40.828125 9.5625 44.53125 
Q 6.9375 48.25 6.9375 53.421875 
Q 6.9375 61.234375 12.546875 66.546875 
Q 18.171875 71.875 27.484375 71.875 
Q 36.859375 71.875 42.578125 66.421875 
Q 48.296875 60.984375 48.296875 53.171875 
Q 48.296875 48.1875 45.671875 44.5 
Q 43.0625 40.828125 37.75 38.8125 
Q 44.34375 36.671875 47.78125 31.875 
Q 51.21875 27.09375 51.21875 20.453125 
Q 51.21875 11.28125 44.71875 5.03125 
Q 38.234375 -1.21875 27.640625 -1.21875 
Q 17.046875 -1.21875 10.546875 5.046875 
Q 4.046875 11.328125 4.046875 20.703125 
Q 4.046875 27.6875 7.59375 32.390625 
Q 11.140625 37.109375 17.671875 38.8125 
z
M 15.921875 53.71875 
Q 15.921875 48.640625 19.1875 45.40625 
Q 22.46875 42.1875 27.6875 42.1875 
Q 32.765625 42.1875 36.015625 45.375 
Q 39.265625 48.578125 39.265625 53.21875 
Q 39.265625 58.0625 35.90625 61.359375 
Q 32.5625 64.65625 27.59375 64.65625 
Q 22.5625 64.65625 19.234375 61.421875 
Q 15.921875 58.203125 15.921875 53.71875 
z
M 13.09375 20.65625 
Q 13.09375 16.890625 14.875 13.375 
Q 16.65625 9.859375 20.171875 7.921875 
Q 23.6875 6 27.734375 6 
Q 34.03125 6 38.125 10.046875 
Q 42.234375 14.109375 42.234375 20.359375 
Q 42.234375 26.703125 38.015625 30.859375 
Q 33.796875 35.015625 27.4375 35.015625 
Q 21.234375 35.015625 17.15625 30.90625 
Q 13.09375 26.8125 13.09375 20.65625 
z
" id="ArialMT-38"/>
      </defs>
      <g style="fill:#262626;" transform="translate(135.80044 190.117812)scale(0.1 -0.1)">
       <use xlink:href="#ArialMT-38"/>
      </g>
     </g>
    </g>
    <g id="xtick_5">
     <g id="line2d_5">
      <g>
       <use style="fill:#262626;stroke:#262626;stroke-width:0.8;" x="167.442727" xlink:href="#me383d3da7f" y="175.96"/>
      </g>
     </g>
     <g id="text_5">
      <!-- 10 -->
      <defs>
       <path d="M 37.25 0 
L 28.46875 0 
L 28.46875 56 
Q 25.296875 52.984375 20.140625 49.953125 
Q 14.984375 46.921875 10.890625 45.40625 
L 10.890625 53.90625 
Q 18.265625 57.375 23.78125 62.296875 
Q 29.296875 67.234375 31.59375 71.875 
L 37.25 71.875 
z
" id="ArialMT-31"/>
       <path d="M 4.15625 35.296875 
Q 4.15625 48 6.765625 55.734375 
Q 9.375 63.484375 14.515625 67.671875 
Q 19.671875 71.875 27.484375 71.875 
Q 33.25 71.875 37.59375 69.546875 
Q 41.9375 67.234375 44.765625 62.859375 
Q 47.609375 58.5 49.21875 52.21875 
Q 50.828125 45.953125 50.828125 35.296875 
Q 50.828125 22.703125 48.234375 14.96875 
Q 45.65625 7.234375 40.5 3 
Q 35.359375 -1.21875 27.484375 -1.21875 
Q 17.140625 -1.21875 11.234375 6.203125 
Q 4.15625 15.140625 4.15625 35.296875 
z
M 13.1875 35.296875 
Q 13.1875 17.671875 17.3125 11.828125 
Q 21.4375 6 27.484375 6 
Q 33.546875 6 37.671875 11.859375 
Q 41.796875 17.71875 41.796875 35.296875 
Q 41.796875 52.984375 37.671875 58.78125 
Q 33.546875 64.59375 27.390625 64.59375 
Q 21.34375 64.59375 17.71875 59.46875 
Q 13.1875 52.9375 13.1875 35.296875 
z
" id="ArialMT-30"/>
      </defs>
      <g style="fill:#262626;" transform="translate(161.88179 190.117812)scale(0.1 -0.1)">
       <use xlink:href="#ArialMT-31"/>
       <use x="55.615234" xlink:href="#ArialMT-30"/>
      </g>
     </g>
    </g>
    <g id="xtick_6">
     <g id="line2d_6">
      <g>
       <use style="fill:#262626;stroke:#262626;stroke-width:0.8;" x="196.304545" xlink:href="#me383d3da7f" y="175.96"/>
      </g>
     </g>
     <g id="text_6">
      <!-- 12 -->
      <g style="fill:#262626;" transform="translate(190.743608 190.117812)scale(0.1 -0.1)">
       <use xlink:href="#ArialMT-31"/>
       <use x="55.615234" xlink:href="#ArialMT-32"/>
      </g>
     </g>
    </g>
    <g id="text_7">
     <!-- pH -->
     <defs>
      <path d="M 6.59375 -19.875 
L 6.59375 51.859375 
L 14.59375 51.859375 
L 14.59375 45.125 
Q 17.4375 49.078125 21 51.046875 
Q 24.5625 53.03125 29.640625 53.03125 
Q 36.28125 53.03125 41.359375 49.609375 
Q 46.4375 46.1875 49.015625 39.953125 
Q 51.609375 33.734375 51.609375 26.3125 
Q 51.609375 18.359375 48.75 11.984375 
Q 45.90625 5.609375 40.453125 2.21875 
Q 35.015625 -1.171875 29 -1.171875 
Q 24.609375 -1.171875 21.109375 0.6875 
Q 17.625 2.546875 15.375 5.375 
L 15.375 -19.875 
z
M 14.546875 25.640625 
Q 14.546875 15.625 18.59375 10.84375 
Q 22.65625 6.0625 28.421875 6.0625 
Q 34.28125 6.0625 38.453125 11.015625 
Q 42.625 15.96875 42.625 26.375 
Q 42.625 36.28125 38.546875 41.203125 
Q 34.46875 46.140625 28.8125 46.140625 
Q 23.1875 46.140625 18.859375 40.890625 
Q 14.546875 35.640625 14.546875 25.640625 
z
" id="ArialMT-70"/>
      <path d="M 8.015625 0 
L 8.015625 71.578125 
L 17.484375 71.578125 
L 17.484375 42.1875 
L 54.6875 42.1875 
L 54.6875 71.578125 
L 64.15625 71.578125 
L 64.15625 0 
L 54.6875 0 
L 54.6875 33.734375 
L 17.484375 33.734375 
L 17.484375 0 
z
" id="ArialMT-48"/>
     </defs>
     <g style="fill:#262626;" transform="translate(117.758594 203.263125)scale(0.1 -0.1)">
      <use xlink:href="#ArialMT-70"/>
      <use x="55.615234" xlink:href="#ArialMT-48"/>
     </g>
    </g>
   </g>
   <g id="matplotlib.axis_2">
    <g id="ytick_1">
     <g id="line2d_7">
      <defs>
       <path d="M 0 0 
L -3.5 0 
" id="mba50be930b" style="stroke:#262626;stroke-width:0.8;"/>
      </defs>
      <g>
       <use style="fill:#262626;stroke:#262626;stroke-width:0.8;" x="44.78" xlink:href="#mba50be930b" y="143.067922"/>
      </g>
     </g>
     <g id="text_8">
      <!-- −1 -->
      <defs>
       <path d="M 52.828125 31.203125 
L 5.5625 31.203125 
L 5.5625 39.40625 
L 52.828125 39.40625 
z
" id="ArialMT-2212"/>
      </defs>
      <g style="fill:#262626;" transform="translate(26.378438 146.646828)scale(0.1 -0.1)">
       <use xlink:href="#ArialMT-2212"/>
       <use x="58.398438" xlink:href="#ArialMT-31"/>
      </g>
     </g>
    </g>
    <g id="ytick_2">
     <g id="line2d_8">
      <g>
       <use style="fill:#262626;stroke:#262626;stroke-width:0.8;" x="44.78" xlink:href="#mba50be930b" y="92.100697"/>
      </g>
     </g>
     <g id="text_9">
      <!-- 0 -->
      <g style="fill:#262626;" transform="translate(32.219063 95.679603)scale(0.1 -0.1)">
       <use xlink:href="#ArialMT-30"/>
      </g>
     </g>
    </g>
    <g id="ytick_3">
     <g id="line2d_9">
      <g>
       <use style="fill:#262626;stroke:#262626;stroke-width:0.8;" x="44.78" xlink:href="#mba50be930b" y="41.133471"/>
      </g>
     </g>
     <g id="text_10">
      <!-- 1 -->
      <g style="fill:#262626;" transform="translate(32.219063 44.712378)scale(0.1 -0.1)">
       <use xlink:href="#ArialMT-31"/>
      </g>
     </g>
    </g>
    <g id="text_11">
     <!-- $\langle q_\mathsf{total} \rangle$ -->
     <defs>
      <path d="M 8.9375 31.34375 
L 22.703125 75.875 
L 31 75.875 
L 17.234375 31.34375 
L 31 -13.1875 
L 22.703125 -13.1875 
z
" id="DejaVuSans-27e8"/>
      <path d="M 41.703125 8.203125 
Q 38.09375 3.46875 33.171875 1.015625 
Q 28.265625 -1.421875 22.3125 -1.421875 
Q 14.015625 -1.421875 9.296875 4.171875 
Q 4.59375 9.765625 4.59375 19.578125 
Q 4.59375 27.484375 7.5 34.859375 
Q 10.40625 42.234375 15.828125 48.09375 
Q 19.34375 51.90625 23.90625 53.953125 
Q 28.46875 56 33.5 56 
Q 39.546875 56 43.453125 53.609375 
Q 47.359375 51.21875 49.125 46.390625 
L 50.6875 54.59375 
L 59.71875 54.59375 
L 45.125 -20.609375 
L 36.078125 -20.609375 
z
M 13.921875 20.90625 
Q 13.921875 13.671875 16.9375 9.890625 
Q 19.96875 6.109375 25.6875 6.109375 
Q 34.1875 6.109375 40.1875 14.234375 
Q 46.1875 22.359375 46.1875 33.984375 
Q 46.1875 41.015625 43.078125 44.75 
Q 39.984375 48.484375 34.1875 48.484375 
Q 29.9375 48.484375 26.3125 46.5 
Q 22.703125 44.53125 20.015625 40.71875 
Q 17.1875 36.71875 15.546875 31.34375 
Q 13.921875 25.984375 13.921875 20.90625 
z
" id="DejaVuSans-Oblique-71"/>
      <path d="M 18.3125 70.21875 
L 18.3125 54.6875 
L 36.8125 54.6875 
L 36.8125 47.703125 
L 18.3125 47.703125 
L 18.3125 18.015625 
Q 18.3125 11.328125 20.140625 9.421875 
Q 21.96875 7.515625 27.59375 7.515625 
L 36.8125 7.515625 
L 36.8125 0 
L 27.59375 0 
Q 17.1875 0 13.234375 3.875 
Q 9.28125 7.765625 9.28125 18.015625 
L 9.28125 47.703125 
L 2.6875 47.703125 
L 2.6875 54.6875 
L 9.28125 54.6875 
L 9.28125 70.21875 
z
" id="DejaVuSans-74"/>
      <path d="M 30.609375 48.390625 
Q 23.390625 48.390625 19.1875 42.75 
Q 14.984375 37.109375 14.984375 27.296875 
Q 14.984375 17.484375 19.15625 11.84375 
Q 23.34375 6.203125 30.609375 6.203125 
Q 37.796875 6.203125 41.984375 11.859375 
Q 46.1875 17.53125 46.1875 27.296875 
Q 46.1875 37.015625 41.984375 42.703125 
Q 37.796875 48.390625 30.609375 48.390625 
z
M 30.609375 56 
Q 42.328125 56 49.015625 48.375 
Q 55.71875 40.765625 55.71875 27.296875 
Q 55.71875 13.875 49.015625 6.21875 
Q 42.328125 -1.421875 30.609375 -1.421875 
Q 18.84375 -1.421875 12.171875 6.21875 
Q 5.515625 13.875 5.515625 27.296875 
Q 5.515625 40.765625 12.171875 48.375 
Q 18.84375 56 30.609375 56 
z
" id="DejaVuSans-6f"/>
      <path d="M 34.28125 27.484375 
Q 23.390625 27.484375 19.1875 25 
Q 14.984375 22.515625 14.984375 16.5 
Q 14.984375 11.71875 18.140625 8.90625 
Q 21.296875 6.109375 26.703125 6.109375 
Q 34.1875 6.109375 38.703125 11.40625 
Q 43.21875 16.703125 43.21875 25.484375 
L 43.21875 27.484375 
z
M 52.203125 31.203125 
L 52.203125 0 
L 43.21875 0 
L 43.21875 8.296875 
Q 40.140625 3.328125 35.546875 0.953125 
Q 30.953125 -1.421875 24.3125 -1.421875 
Q 15.921875 -1.421875 10.953125 3.296875 
Q 6 8.015625 6 15.921875 
Q 6 25.140625 12.171875 29.828125 
Q 18.359375 34.515625 30.609375 34.515625 
L 43.21875 34.515625 
L 43.21875 35.40625 
Q 43.21875 41.609375 39.140625 45 
Q 35.0625 48.390625 27.6875 48.390625 
Q 23 48.390625 18.546875 47.265625 
Q 14.109375 46.140625 10.015625 43.890625 
L 10.015625 52.203125 
Q 14.9375 54.109375 19.578125 55.046875 
Q 24.21875 56 28.609375 56 
Q 40.484375 56 46.34375 49.84375 
Q 52.203125 43.703125 52.203125 31.203125 
z
" id="DejaVuSans-61"/>
      <path d="M 9.421875 75.984375 
L 18.40625 75.984375 
L 18.40625 0 
L 9.421875 0 
z
" id="DejaVuSans-6c"/>
      <path d="M 30.078125 31.34375 
L 16.3125 -13.1875 
L 8.015625 -13.1875 
L 21.78125 31.34375 
L 8.015625 75.875 
L 16.3125 75.875 
z
" id="DejaVuSans-27e9"/>
     </defs>
     <g style="fill:#262626;" transform="translate(20.278438 115.95)rotate(-90)scale(0.1 -0.1)">
      <use transform="translate(0 0.125)" xlink:href="#DejaVuSans-27e8"/>
      <use transform="translate(39.013672 0.125)" xlink:href="#DejaVuSans-Oblique-71"/>
      <use transform="translate(102.490234 -16.28125)scale(0.7)" xlink:href="#DejaVuSans-74"/>
      <use transform="translate(129.936523 -16.28125)scale(0.7)" xlink:href="#DejaVuSans-6f"/>
      <use transform="translate(172.763672 -16.28125)scale(0.7)" xlink:href="#DejaVuSans-74"/>
      <use transform="translate(200.209961 -16.28125)scale(0.7)" xlink:href="#DejaVuSans-61"/>
      <use transform="translate(243.105469 -16.28125)scale(0.7)" xlink:href="#DejaVuSans-6c"/>
      <use transform="translate(265.288086 0.125)" xlink:href="#DejaVuSans-27e9"/>
     </g>
    </g>
   </g>
   <g id="PolyCollection_1">
    <defs>
     <path d="M 51.995455 -183.718182 
L 51.995455 -96.530329 
L 53.438545 -94.405689 
L 54.881636 -92.551561 
L 56.324727 -90.981302 
L 57.767818 -89.693371 
L 59.210909 -88.674451 
L 60.654 -87.903091 
L 62.097091 -87.353507 
L 63.540182 -86.999013 
L 64.983273 -86.814385 
L 66.426364 -86.776933 
L 67.869455 -86.866724 
L 69.312545 -87.066458 
L 70.755636 -87.361271 
L 72.198727 -87.738376 
L 73.641818 -88.186414 
L 75.084909 -88.694802 
L 76.528 -89.253636 
L 77.971091 -89.85408 
L 79.414182 -90.488527 
L 80.857273 -91.150158 
L 82.300364 -91.832431 
L 83.743455 -92.529397 
L 85.186545 -93.236228 
L 86.629636 -93.948816 
L 88.072727 -94.663176 
L 89.515818 -95.375567 
L 90.958909 -96.082776 
L 92.402 -96.781776 
L 93.845091 -97.469399 
L 95.288182 -98.14288 
L 96.731273 -98.800483 
L 98.174364 -99.440739 
L 99.617455 -100.060634 
L 101.060545 -100.654703 
L 102.503636 -101.215741 
L 103.946727 -101.735978 
L 105.389818 -102.207817 
L 106.832909 -102.624532 
L 108.276 -102.9813 
L 109.719091 -103.275998 
L 111.162182 -103.508515 
L 112.605273 -103.678311 
L 114.048364 -103.781738 
L 115.491455 -103.811567 
L 116.934545 -103.759801 
L 118.377636 -103.620791 
L 119.820727 -103.391577 
L 121.263818 -103.070905 
L 122.706909 -102.658691 
L 124.15 -102.155486 
L 125.593091 -101.561517 
L 127.036182 -100.875387 
L 128.479273 -100.092817 
L 129.922364 -99.205841 
L 131.365455 -98.20262 
L 132.808545 -97.067723 
L 134.251636 -95.782785 
L 135.694727 -94.327488 
L 137.137818 -92.680788 
L 138.580909 -90.822336 
L 140.024 -88.734298 
L 141.467091 -86.40386 
L 142.910182 -83.826565 
L 144.353273 -81.010126 
L 145.796364 -77.977763 
L 147.239455 -74.77036 
L 148.682545 -71.447079 
L 150.125636 -68.083296 
L 151.568727 -64.765062 
L 153.011818 -61.580923 
L 154.454909 -58.613077 
L 155.898 -55.929891 
L 157.341091 -53.58111 
L 158.784182 -51.596083 
L 160.227273 -49.984498 
L 161.670364 -48.738936 
L 163.113455 -47.838558 
L 164.556545 -47.253164 
L 165.999636 -46.946976 
L 167.442727 -46.881818 
L 168.885818 -47.019653 
L 170.328909 -47.324556 
L 171.772 -47.763985 
L 173.215091 -48.30925 
L 174.658182 -48.935334 
L 176.101273 -49.620508 
L 177.544364 -50.34606 
L 178.987455 -51.096142 
L 180.430545 -51.857448 
L 181.873636 -52.618539 
L 183.316727 -53.36891 
L 184.759818 -54.098014 
L 186.202909 -54.794435 
L 187.646 -55.44537 
L 189.089091 -56.036694 
L 190.532182 -56.553844 
L 191.975273 -56.983379 
L 193.418364 -57.314508 
L 194.861455 -57.539844 
L 196.304545 -57.655177 
L 196.304545 -88.282245 
L 196.304545 -88.282245 
L 194.861455 -88.417835 
L 193.418364 -88.668392 
L 191.975273 -89.031044 
L 190.532182 -89.500067 
L 189.089091 -90.066753 
L 187.646 -90.720263 
L 186.202909 -91.449294 
L 184.759818 -92.243794 
L 183.316727 -93.096052 
L 181.873636 -94.000997 
L 180.430545 -94.955983 
L 178.987455 -95.960308 
L 177.544364 -97.014654 
L 176.101273 -98.120633 
L 174.658182 -99.280643 
L 173.215091 -100.498131 
L 171.772 -101.778007 
L 170.328909 -103.126892 
L 168.885818 -104.553062 
L 167.442727 -106.066284 
L 165.999636 -107.677713 
L 164.556545 -109.39978 
L 163.113455 -111.245593 
L 161.670364 -113.227494 
L 160.227273 -115.354664 
L 158.784182 -117.629971 
L 157.341091 -120.046404 
L 155.898 -122.583752 
L 154.454909 -125.206567 
L 153.011818 -127.864623 
L 151.568727 -130.496439 
L 150.125636 -133.035373 
L 148.682545 -135.416889 
L 147.239455 -137.585367 
L 145.796364 -139.499186 
L 144.353273 -141.13358 
L 142.910182 -142.481195 
L 141.467091 -143.550197 
L 140.024 -144.360484 
L 138.580909 -144.93952 
L 137.137818 -145.318723 
L 135.694727 -145.530446 
L 134.251636 -145.605652 
L 132.808545 -145.572428 
L 131.365455 -145.455438 
L 129.922364 -145.27617 
L 128.479273 -145.053661 
L 127.036182 -144.805334 
L 125.593091 -144.547712 
L 124.15 -144.296784 
L 122.706909 -144.067789 
L 121.263818 -143.87451 
L 119.820727 -143.728496 
L 118.377636 -143.638537 
L 116.934545 -143.610528 
L 115.491455 -143.64725 
L 114.048364 -143.747658 
L 112.605273 -143.907443 
L 111.162182 -144.122338 
L 109.719091 -144.391067 
L 108.276 -144.715001 
L 106.832909 -145.095576 
L 105.389818 -145.531928 
L 103.946727 -146.020278 
L 102.503636 -146.554775 
L 101.060545 -147.12858 
L 99.617455 -147.7346 
L 98.174364 -148.366268 
L 96.731273 -149.018743 
L 95.288182 -149.689662 
L 93.845091 -150.378263 
L 92.402 -151.083612 
L 90.958909 -151.803885 
L 89.515818 -152.537043 
L 88.072727 -153.28143 
L 86.629636 -154.035527 
L 85.186545 -154.797685 
L 83.743455 -155.566527 
L 82.300364 -156.341195 
L 80.857273 -157.120914 
L 79.414182 -157.904796 
L 77.971091 -158.6926 
L 76.528 -159.485349 
L 75.084909 -160.285164 
L 73.641818 -161.095234 
L 72.198727 -161.920458 
L 70.755636 -162.768366 
L 69.312545 -163.64959 
L 67.869455 -164.577802 
L 66.426364 -165.569572 
L 64.983273 -166.64436 
L 63.540182 -167.824336 
L 62.097091 -169.133726 
L 60.654 -170.597679 
L 59.210909 -172.24083 
L 57.767818 -174.08573 
L 56.324727 -176.150778 
L 54.881636 -178.447118 
L 53.438545 -180.974668 
L 51.995455 -183.718182 
z
" id="me4364fea4d" style="stroke:#ffffff;stroke-opacity:0.05;"/>
    </defs>
    <g clip-path="url(#p32b0e4dc13)">
     <use style="fill:#8c0800;fill-opacity:0.05;stroke:#ffffff;stroke-opacity:0.05;" x="0" xlink:href="#me4364fea4d" y="216"/>
    </g>
   </g>
   <g id="line2d_10">
    <path clip-path="url(#p32b0e4dc13)" d="M 51.995455 75.875745 
L 53.438545 78.309821 
L 54.881636 80.500661 
L 56.324727 82.43396 
L 57.767818 84.110449 
L 59.210909 85.54236 
L 60.654 86.749615 
L 62.097091 87.756384 
L 63.540182 88.588326 
L 64.983273 89.270627 
L 66.426364 89.826747 
L 67.869455 90.277737 
L 69.312545 90.641976 
L 70.755636 90.935182 
L 72.198727 91.170583 
L 73.641818 91.359176 
L 75.084909 91.510017 
L 76.528 91.630508 
L 77.971091 91.72666 
L 79.414182 91.803339 
L 80.857273 91.864464 
L 82.300364 91.913187 
L 83.743455 91.952038 
L 85.186545 91.983043 
L 86.629636 92.007829 
L 88.072727 92.027697 
L 89.515818 92.043695 
L 90.958909 92.056669 
L 92.402 92.067306 
L 93.845091 92.076169 
L 95.288182 92.083729 
L 96.731273 92.090387 
L 98.174364 92.096496 
L 99.617455 92.102383 
L 101.060545 92.108359 
L 102.503636 92.114742 
L 103.946727 92.121872 
L 105.389818 92.130127 
L 106.832909 92.139946 
L 108.276 92.15185 
L 109.719091 92.166468 
L 111.162182 92.184574 
L 112.605273 92.207123 
L 114.048364 92.235302 
L 115.491455 92.270591 
L 116.934545 92.314835 
L 118.377636 92.370336 
L 119.820727 92.439964 
L 121.263818 92.527292 
L 122.706909 92.63676 
L 124.15 92.773865 
L 125.593091 92.945386 
L 127.036182 93.159639 
L 128.479273 93.426761 
L 129.922364 93.758995 
L 131.365455 94.170971 
L 132.808545 94.679924 
L 134.251636 95.305782 
L 135.694727 96.071033 
L 137.137818 97.000245 
L 138.580909 98.119072 
L 140.024 99.452609 
L 141.467091 101.022971 
L 142.910182 102.84612 
L 144.353273 104.928147 
L 145.796364 107.261525 
L 147.239455 109.822136 
L 148.682545 112.568016 
L 150.125636 115.440665 
L 151.568727 118.36925 
L 153.011818 121.277227 
L 154.454909 124.090178 
L 155.898 126.743179 
L 157.341091 129.186243 
L 158.784182 131.386973 
L 160.227273 133.330419 
L 161.670364 135.016785 
L 163.113455 136.457925 
L 164.556545 137.673528 
L 165.999636 138.687655 
L 167.442727 139.525949 
L 168.885818 140.213642 
L 170.328909 140.774276 
L 171.772 141.229004 
L 173.215091 141.59631 
L 174.658182 141.892012 
L 176.101273 142.12943 
L 177.544364 142.319643 
L 178.987455 142.471775 
L 180.430545 142.593284 
L 181.873636 142.690232 
L 183.316727 142.767519 
L 184.759818 142.829096 
L 186.202909 142.878135 
L 187.646 142.917183 
L 189.089091 142.948277 
L 190.532182 142.973044 
L 191.975273 142.992788 
L 193.418364 143.00855 
L 194.861455 143.021161 
L 196.304545 143.031289 
" style="fill:none;opacity:0.9;stroke:#8c0800;stroke-linecap:round;stroke-width:1.5;"/>
   </g>
   <g id="line2d_11">
    <path clip-path="url(#p32b0e4dc13)" d="M 51.995455 92.100702 
L 53.438545 92.100703 
L 54.881636 92.100704 
L 56.324727 92.100706 
L 57.767818 92.100709 
L 59.210909 92.100712 
L 60.654 92.100716 
L 62.097091 92.100721 
L 63.540182 92.100727 
L 64.983273 92.100735 
L 66.426364 92.100745 
L 67.869455 92.100758 
L 69.312545 92.100774 
L 70.755636 92.100794 
L 72.198727 92.100819 
L 73.641818 92.100851 
L 75.084909 92.10089 
L 76.528 92.100941 
L 77.971091 92.101004 
L 79.414182 92.101083 
L 80.857273 92.101183 
L 82.300364 92.101309 
L 83.743455 92.101468 
L 85.186545 92.101668 
L 86.629636 92.101919 
L 88.072727 92.102236 
L 89.515818 92.102634 
L 90.958909 92.103136 
L 92.402 92.103768 
L 93.845091 92.104563 
L 95.288182 92.105564 
L 96.731273 92.106824 
L 98.174364 92.10841 
L 99.617455 92.110406 
L 101.060545 92.11292 
L 102.503636 92.116084 
L 103.946727 92.120067 
L 105.389818 92.125079 
L 106.832909 92.131389 
L 108.276 92.13933 
L 109.719091 92.149324 
L 111.162182 92.161899 
L 112.605273 92.177722 
L 114.048364 92.197628 
L 115.491455 92.222666 
L 116.934545 92.254152 
L 118.377636 92.293735 
L 119.820727 92.343479 
L 121.263818 92.405965 
L 122.706909 92.484412 
L 124.15 92.582826 
L 125.593091 92.706178 
L 127.036182 92.860615 
L 128.479273 93.053698 
L 129.922364 93.294674 
L 131.365455 93.594762 
L 132.808545 93.967445 
L 134.251636 94.428716 
L 135.694727 94.997242 
L 137.137818 95.69435 
L 138.580909 96.543723 
L 140.024 97.57067 
L 141.467091 98.800797 
L 142.910182 100.257966 
L 144.353273 101.961452 
L 145.796364 103.922443 
L 147.239455 106.140218 
L 148.682545 108.598702 
L 150.125636 111.264284 
L 151.568727 114.085848 
L 153.011818 116.997631 
L 154.454909 119.924822 
L 155.898 122.791024 
L 157.341091 125.526048 
L 158.784182 128.072414 
L 160.227273 130.389355 
L 161.670364 132.453938 
L 163.113455 134.259665 
L 164.556545 135.813416 
L 165.999636 137.131682 
L 167.442727 138.236871 
L 168.885818 139.154183 
L 170.328909 139.909243 
L 171.772 140.5265 
L 173.215091 141.028281 
L 174.658182 141.434332 
L 176.101273 141.761704 
L 177.544364 142.024858 
L 178.987455 142.235885 
L 180.430545 142.404785 
L 181.873636 142.53976 
L 183.316727 142.647492 
L 184.759818 142.733395 
L 186.202909 142.801839 
L 187.646 142.856337 
L 189.089091 142.899711 
L 190.532182 142.934216 
L 191.975273 142.961658 
L 193.418364 142.983478 
L 194.861455 143.000823 
L 196.304545 143.014609 
" style="fill:none;opacity:0.7;stroke:#000000;stroke-linecap:round;stroke-width:1.5;"/>
   </g>
   <g id="line2d_12">
    <path clip-path="url(#p32b0e4dc13)" d="M 51.995455 32.281818 
L 53.438545 35.025332 
L 54.881636 37.552882 
L 56.324727 39.849222 
L 57.767818 41.91427 
L 59.210909 43.75917 
L 60.654 45.402321 
L 62.097091 46.866274 
L 63.540182 48.175664 
L 64.983273 49.35564 
L 66.426364 50.430428 
L 67.869455 51.422198 
L 69.312545 52.35041 
L 70.755636 53.231634 
L 72.198727 54.079542 
L 73.641818 54.904766 
L 75.084909 55.714836 
L 76.528 56.514651 
L 77.971091 57.3074 
L 79.414182 58.095204 
L 80.857273 58.879086 
L 82.300364 59.658805 
L 83.743455 60.433473 
L 85.186545 61.202315 
L 86.629636 61.964473 
L 88.072727 62.71857 
L 89.515818 63.462957 
L 90.958909 64.196115 
L 92.402 64.916388 
L 93.845091 65.621737 
L 95.288182 66.310338 
L 96.731273 66.981257 
L 98.174364 67.633732 
L 99.617455 68.2654 
L 101.060545 68.87142 
L 102.503636 69.445225 
L 103.946727 69.979722 
L 105.389818 70.468072 
L 106.832909 70.904424 
L 108.276 71.284999 
L 109.719091 71.608933 
L 111.162182 71.877662 
L 112.605273 72.092557 
L 114.048364 72.252342 
L 115.491455 72.35275 
L 116.934545 72.389472 
L 118.377636 72.361463 
L 119.820727 72.271504 
L 121.263818 72.12549 
L 122.706909 71.932211 
L 124.15 71.703216 
L 125.593091 71.452288 
L 127.036182 71.194666 
L 128.479273 70.946339 
L 129.922364 70.72383 
L 131.365455 70.544562 
L 132.808545 70.427572 
L 134.251636 70.394348 
L 135.694727 70.469554 
L 137.137818 70.681277 
L 138.580909 71.06048 
L 140.024 71.639516 
L 141.467091 72.449803 
L 142.910182 73.518805 
L 144.353273 74.86642 
L 145.796364 76.500814 
L 147.239455 78.414633 
L 148.682545 80.583111 
L 150.125636 82.964627 
L 151.568727 85.503561 
L 153.011818 88.135377 
L 154.454909 90.793433 
L 155.898 93.416248 
L 157.341091 95.953596 
L 158.784182 98.370029 
L 160.227273 100.645336 
L 161.670364 102.772506 
L 163.113455 104.754407 
L 164.556545 106.60022 
L 165.999636 108.322287 
L 167.442727 109.933716 
L 168.885818 111.446938 
L 170.328909 112.873108 
L 171.772 114.221993 
L 173.215091 115.501869 
L 174.658182 116.719357 
L 176.101273 117.879367 
L 177.544364 118.985346 
L 178.987455 120.039692 
L 180.430545 121.044017 
L 181.873636 121.999003 
L 183.316727 122.903948 
L 184.759818 123.756206 
L 186.202909 124.550706 
L 187.646 125.279737 
L 189.089091 125.933247 
L 190.532182 126.499933 
L 191.975273 126.968956 
L 193.418364 127.331608 
L 194.861455 127.582165 
L 196.304545 127.717755 
" style="fill:none;opacity:0.45;stroke:#8c0800;stroke-dasharray:2.775,1.2;stroke-dashoffset:0;stroke-width:0.75;"/>
   </g>
   <g id="line2d_13">
    <path clip-path="url(#p32b0e4dc13)" d="M 51.995455 119.469671 
L 53.438545 121.594311 
L 54.881636 123.448439 
L 56.324727 125.018698 
L 57.767818 126.306629 
L 59.210909 127.325549 
L 60.654 128.096909 
L 62.097091 128.646493 
L 63.540182 129.000987 
L 64.983273 129.185615 
L 66.426364 129.223067 
L 67.869455 129.133276 
L 69.312545 128.933542 
L 70.755636 128.638729 
L 72.198727 128.261624 
L 73.641818 127.813586 
L 75.084909 127.305198 
L 76.528 126.746364 
L 77.971091 126.14592 
L 79.414182 125.511473 
L 80.857273 124.849842 
L 82.300364 124.167569 
L 83.743455 123.470603 
L 85.186545 122.763772 
L 86.629636 122.051184 
L 88.072727 121.336824 
L 89.515818 120.624433 
L 90.958909 119.917224 
L 92.402 119.218224 
L 93.845091 118.530601 
L 95.288182 117.85712 
L 96.731273 117.199517 
L 98.174364 116.559261 
L 99.617455 115.939366 
L 101.060545 115.345297 
L 102.503636 114.784259 
L 103.946727 114.264022 
L 105.389818 113.792183 
L 106.832909 113.375468 
L 108.276 113.0187 
L 109.719091 112.724002 
L 111.162182 112.491485 
L 112.605273 112.321689 
L 114.048364 112.218262 
L 115.491455 112.188433 
L 116.934545 112.240199 
L 118.377636 112.379209 
L 119.820727 112.608423 
L 121.263818 112.929095 
L 122.706909 113.341309 
L 124.15 113.844514 
L 125.593091 114.438483 
L 127.036182 115.124613 
L 128.479273 115.907183 
L 129.922364 116.794159 
L 131.365455 117.79738 
L 132.808545 118.932277 
L 134.251636 120.217215 
L 135.694727 121.672512 
L 137.137818 123.319212 
L 138.580909 125.177664 
L 140.024 127.265702 
L 141.467091 129.59614 
L 142.910182 132.173435 
L 144.353273 134.989874 
L 145.796364 138.022237 
L 147.239455 141.22964 
L 148.682545 144.552921 
L 150.125636 147.916704 
L 151.568727 151.234938 
L 153.011818 154.419077 
L 154.454909 157.386923 
L 155.898 160.070109 
L 157.341091 162.41889 
L 158.784182 164.403917 
L 160.227273 166.015502 
L 161.670364 167.261064 
L 163.113455 168.161442 
L 164.556545 168.746836 
L 165.999636 169.053024 
L 167.442727 169.118182 
L 168.885818 168.980347 
L 170.328909 168.675444 
L 171.772 168.236015 
L 173.215091 167.69075 
L 174.658182 167.064666 
L 176.101273 166.379492 
L 177.544364 165.65394 
L 178.987455 164.903858 
L 180.430545 164.142552 
L 181.873636 163.381461 
L 183.316727 162.63109 
L 184.759818 161.901986 
L 186.202909 161.205565 
L 187.646 160.55463 
L 189.089091 159.963306 
L 190.532182 159.446156 
L 191.975273 159.016621 
L 193.418364 158.685492 
L 194.861455 158.460156 
L 196.304545 158.344823 
" style="fill:none;opacity:0.45;stroke:#8c0800;stroke-dasharray:2.775,1.2;stroke-dashoffset:0;stroke-width:0.75;"/>
   </g>
   <g id="patch_3">
    <path d="M 44.78 175.96 
L 44.78 25.44 
" style="fill:none;stroke:#262626;stroke-linecap:square;stroke-linejoin:miter;stroke-width:0.8;"/>
   </g>
   <g id="patch_4">
    <path d="M 44.78 175.96 
L 203.52 175.96 
" style="fill:none;stroke:#262626;stroke-linecap:square;stroke-linejoin:miter;stroke-width:0.8;"/>
   </g>
   <g id="text_12">
    <!-- Jaguar-micro SM10 -->
    <defs>
     <path d="M 2.875 20.3125 
L 11.421875 21.484375 
Q 11.765625 13.28125 14.5 10.25 
Q 17.234375 7.234375 22.078125 7.234375 
Q 25.640625 7.234375 28.21875 8.859375 
Q 30.8125 10.5 31.78125 13.296875 
Q 32.765625 16.109375 32.765625 22.265625 
L 32.765625 71.578125 
L 42.234375 71.578125 
L 42.234375 22.796875 
Q 42.234375 13.8125 40.0625 8.875 
Q 37.890625 3.953125 33.171875 1.359375 
Q 28.46875 -1.21875 22.125 -1.21875 
Q 12.703125 -1.21875 7.6875 4.203125 
Q 2.6875 9.625 2.875 20.3125 
z
" id="ArialMT-4a"/>
     <path d="M 40.4375 6.390625 
Q 35.546875 2.25 31.03125 0.53125 
Q 26.515625 -1.171875 21.34375 -1.171875 
Q 12.796875 -1.171875 8.203125 3 
Q 3.609375 7.171875 3.609375 13.671875 
Q 3.609375 17.484375 5.34375 20.625 
Q 7.078125 23.78125 9.890625 25.6875 
Q 12.703125 27.59375 16.21875 28.5625 
Q 18.796875 29.25 24.03125 29.890625 
Q 34.671875 31.15625 39.703125 32.90625 
Q 39.75 34.71875 39.75 35.203125 
Q 39.75 40.578125 37.25 42.78125 
Q 33.890625 45.75 27.25 45.75 
Q 21.046875 45.75 18.09375 43.578125 
Q 15.140625 41.40625 13.71875 35.890625 
L 5.125 37.0625 
Q 6.296875 42.578125 8.984375 45.96875 
Q 11.671875 49.359375 16.75 51.1875 
Q 21.828125 53.03125 28.515625 53.03125 
Q 35.15625 53.03125 39.296875 51.46875 
Q 43.453125 49.90625 45.40625 47.53125 
Q 47.359375 45.171875 48.140625 41.546875 
Q 48.578125 39.3125 48.578125 33.453125 
L 48.578125 21.734375 
Q 48.578125 9.46875 49.140625 6.21875 
Q 49.703125 2.984375 51.375 0 
L 42.1875 0 
Q 40.828125 2.734375 40.4375 6.390625 
z
M 39.703125 26.03125 
Q 34.90625 24.078125 25.34375 22.703125 
Q 19.921875 21.921875 17.671875 20.9375 
Q 15.4375 19.96875 14.203125 18.09375 
Q 12.984375 16.21875 12.984375 13.921875 
Q 12.984375 10.40625 15.640625 8.0625 
Q 18.3125 5.71875 23.4375 5.71875 
Q 28.515625 5.71875 32.46875 7.9375 
Q 36.421875 10.15625 38.28125 14.015625 
Q 39.703125 17 39.703125 22.796875 
z
" id="ArialMT-61"/>
     <path d="M 4.984375 -4.296875 
L 13.53125 -5.5625 
Q 14.0625 -9.515625 16.5 -11.328125 
Q 19.78125 -13.765625 25.4375 -13.765625 
Q 31.546875 -13.765625 34.859375 -11.328125 
Q 38.1875 -8.890625 39.359375 -4.5 
Q 40.046875 -1.8125 39.984375 6.78125 
Q 34.234375 0 25.640625 0 
Q 14.9375 0 9.078125 7.71875 
Q 3.21875 15.4375 3.21875 26.21875 
Q 3.21875 33.640625 5.90625 39.90625 
Q 8.59375 46.1875 13.6875 49.609375 
Q 18.796875 53.03125 25.6875 53.03125 
Q 34.859375 53.03125 40.828125 45.609375 
L 40.828125 51.859375 
L 48.921875 51.859375 
L 48.921875 7.03125 
Q 48.921875 -5.078125 46.453125 -10.125 
Q 44 -15.1875 38.640625 -18.109375 
Q 33.296875 -21.046875 25.484375 -21.046875 
Q 16.21875 -21.046875 10.5 -16.875 
Q 4.78125 -12.703125 4.984375 -4.296875 
z
M 12.25 26.859375 
Q 12.25 16.65625 16.296875 11.96875 
Q 20.359375 7.28125 26.46875 7.28125 
Q 32.515625 7.28125 36.609375 11.9375 
Q 40.71875 16.609375 40.71875 26.5625 
Q 40.71875 36.078125 36.5 40.90625 
Q 32.28125 45.75 26.3125 45.75 
Q 20.453125 45.75 16.34375 40.984375 
Q 12.25 36.234375 12.25 26.859375 
z
" id="ArialMT-67"/>
     <path d="M 40.578125 0 
L 40.578125 7.625 
Q 34.515625 -1.171875 24.125 -1.171875 
Q 19.53125 -1.171875 15.546875 0.578125 
Q 11.578125 2.34375 9.640625 5 
Q 7.71875 7.671875 6.9375 11.53125 
Q 6.390625 14.109375 6.390625 19.734375 
L 6.390625 51.859375 
L 15.1875 51.859375 
L 15.1875 23.09375 
Q 15.1875 16.21875 15.71875 13.8125 
Q 16.546875 10.359375 19.234375 8.375 
Q 21.921875 6.390625 25.875 6.390625 
Q 29.828125 6.390625 33.296875 8.421875 
Q 36.765625 10.453125 38.203125 13.9375 
Q 39.65625 17.4375 39.65625 24.078125 
L 39.65625 51.859375 
L 48.4375 51.859375 
L 48.4375 0 
z
" id="ArialMT-75"/>
     <path d="M 6.5 0 
L 6.5 51.859375 
L 14.40625 51.859375 
L 14.40625 44 
Q 17.4375 49.515625 20 51.265625 
Q 22.5625 53.03125 25.640625 53.03125 
Q 30.078125 53.03125 34.671875 50.203125 
L 31.640625 42.046875 
Q 28.421875 43.953125 25.203125 43.953125 
Q 22.3125 43.953125 20.015625 42.21875 
Q 17.71875 40.484375 16.75 37.40625 
Q 15.28125 32.71875 15.28125 27.15625 
L 15.28125 0 
z
" id="ArialMT-72"/>
     <path d="M 3.171875 21.484375 
L 3.171875 30.328125 
L 30.171875 30.328125 
L 30.171875 21.484375 
z
" id="ArialMT-2d"/>
     <path d="M 6.59375 0 
L 6.59375 51.859375 
L 14.453125 51.859375 
L 14.453125 44.578125 
Q 16.890625 48.390625 20.9375 50.703125 
Q 25 53.03125 30.171875 53.03125 
Q 35.9375 53.03125 39.625 50.640625 
Q 43.3125 48.25 44.828125 43.953125 
Q 50.984375 53.03125 60.84375 53.03125 
Q 68.5625 53.03125 72.703125 48.75 
Q 76.859375 44.484375 76.859375 35.59375 
L 76.859375 0 
L 68.109375 0 
L 68.109375 32.671875 
Q 68.109375 37.9375 67.25 40.25 
Q 66.40625 42.578125 64.15625 43.984375 
Q 61.921875 45.40625 58.890625 45.40625 
Q 53.421875 45.40625 49.796875 41.765625 
Q 46.1875 38.140625 46.1875 30.125 
L 46.1875 0 
L 37.40625 0 
L 37.40625 33.6875 
Q 37.40625 39.546875 35.25 42.46875 
Q 33.109375 45.40625 28.21875 45.40625 
Q 24.515625 45.40625 21.359375 43.453125 
Q 18.21875 41.5 16.796875 37.734375 
Q 15.375 33.984375 15.375 26.90625 
L 15.375 0 
z
" id="ArialMT-6d"/>
     <path d="M 6.640625 61.46875 
L 6.640625 71.578125 
L 15.4375 71.578125 
L 15.4375 61.46875 
z
M 6.640625 0 
L 6.640625 51.859375 
L 15.4375 51.859375 
L 15.4375 0 
z
" id="ArialMT-69"/>
     <path d="M 40.4375 19 
L 49.078125 17.875 
Q 47.65625 8.9375 41.8125 3.875 
Q 35.984375 -1.171875 27.484375 -1.171875 
Q 16.84375 -1.171875 10.375 5.78125 
Q 3.90625 12.75 3.90625 25.734375 
Q 3.90625 34.125 6.6875 40.421875 
Q 9.46875 46.734375 15.15625 49.875 
Q 20.84375 53.03125 27.546875 53.03125 
Q 35.984375 53.03125 41.359375 48.75 
Q 46.734375 44.484375 48.25 36.625 
L 39.703125 35.296875 
Q 38.484375 40.53125 35.375 43.15625 
Q 32.28125 45.796875 27.875 45.796875 
Q 21.234375 45.796875 17.078125 41.03125 
Q 12.9375 36.28125 12.9375 25.984375 
Q 12.9375 15.53125 16.9375 10.796875 
Q 20.953125 6.0625 27.390625 6.0625 
Q 32.5625 6.0625 36.03125 9.234375 
Q 39.5 12.40625 40.4375 19 
z
" id="ArialMT-63"/>
     <path d="M 3.328125 25.921875 
Q 3.328125 40.328125 11.328125 47.265625 
Q 18.015625 53.03125 27.640625 53.03125 
Q 38.328125 53.03125 45.109375 46.015625 
Q 51.90625 39.015625 51.90625 26.65625 
Q 51.90625 16.65625 48.90625 10.90625 
Q 45.90625 5.171875 40.15625 2 
Q 34.421875 -1.171875 27.640625 -1.171875 
Q 16.75 -1.171875 10.03125 5.8125 
Q 3.328125 12.796875 3.328125 25.921875 
z
M 12.359375 25.921875 
Q 12.359375 15.96875 16.703125 11.015625 
Q 21.046875 6.0625 27.640625 6.0625 
Q 34.1875 6.0625 38.53125 11.03125 
Q 42.875 16.015625 42.875 26.21875 
Q 42.875 35.84375 38.5 40.796875 
Q 34.125 45.75 27.640625 45.75 
Q 21.046875 45.75 16.703125 40.8125 
Q 12.359375 35.890625 12.359375 25.921875 
z
" id="ArialMT-6f"/>
     <path id="ArialMT-20"/>
     <path d="M 4.5 23 
L 13.421875 23.78125 
Q 14.0625 18.40625 16.375 14.96875 
Q 18.703125 11.53125 23.578125 9.40625 
Q 28.46875 7.28125 34.578125 7.28125 
Q 39.984375 7.28125 44.140625 8.890625 
Q 48.296875 10.5 50.3125 13.296875 
Q 52.34375 16.109375 52.34375 19.4375 
Q 52.34375 22.796875 50.390625 25.3125 
Q 48.4375 27.828125 43.953125 29.546875 
Q 41.0625 30.671875 31.203125 33.03125 
Q 21.34375 35.40625 17.390625 37.5 
Q 12.25 40.1875 9.734375 44.15625 
Q 7.234375 48.140625 7.234375 53.078125 
Q 7.234375 58.5 10.296875 63.203125 
Q 13.375 67.921875 19.28125 70.359375 
Q 25.203125 72.796875 32.421875 72.796875 
Q 40.375 72.796875 46.453125 70.234375 
Q 52.546875 67.671875 55.8125 62.6875 
Q 59.078125 57.71875 59.328125 51.421875 
L 50.25 50.734375 
Q 49.515625 57.515625 45.28125 60.984375 
Q 41.0625 64.453125 32.8125 64.453125 
Q 24.21875 64.453125 20.28125 61.296875 
Q 16.359375 58.15625 16.359375 53.71875 
Q 16.359375 49.859375 19.140625 47.359375 
Q 21.875 44.875 33.421875 42.265625 
Q 44.96875 39.65625 49.265625 37.703125 
Q 55.515625 34.8125 58.484375 30.390625 
Q 61.46875 25.984375 61.46875 20.21875 
Q 61.46875 14.5 58.203125 9.4375 
Q 54.9375 4.390625 48.796875 1.578125 
Q 42.671875 -1.21875 35.015625 -1.21875 
Q 25.296875 -1.21875 18.71875 1.609375 
Q 12.15625 4.4375 8.421875 10.125 
Q 4.6875 15.828125 4.5 23 
z
" id="ArialMT-53"/>
     <path d="M 7.421875 0 
L 7.421875 71.578125 
L 21.6875 71.578125 
L 38.625 20.90625 
Q 40.96875 13.8125 42.046875 10.296875 
Q 43.265625 14.203125 45.84375 21.78125 
L 62.984375 71.578125 
L 75.734375 71.578125 
L 75.734375 0 
L 66.609375 0 
L 66.609375 59.90625 
L 45.796875 0 
L 37.25 0 
L 16.546875 60.9375 
L 16.546875 0 
z
" id="ArialMT-4d"/>
    </defs>
    <g style="fill:#262626;" transform="translate(71.802813 19.44)scale(0.12 -0.12)">
     <use xlink:href="#ArialMT-4a"/>
     <use x="50" xlink:href="#ArialMT-61"/>
     <use x="105.615234" xlink:href="#ArialMT-67"/>
     <use x="161.230469" xlink:href="#ArialMT-75"/>
     <use x="216.845703" xlink:href="#ArialMT-61"/>
     <use x="272.460938" xlink:href="#ArialMT-72"/>
     <use x="305.761719" xlink:href="#ArialMT-2d"/>
     <use x="339.0625" xlink:href="#ArialMT-6d"/>
     <use x="422.363281" xlink:href="#ArialMT-69"/>
     <use x="444.580078" xlink:href="#ArialMT-63"/>
     <use x="494.580078" xlink:href="#ArialMT-72"/>
     <use x="527.880859" xlink:href="#ArialMT-6f"/>
     <use x="583.496094" xlink:href="#ArialMT-20"/>
     <use x="611.279297" xlink:href="#ArialMT-53"/>
     <use x="677.978516" xlink:href="#ArialMT-4d"/>
     <use x="761.279297" xlink:href="#ArialMT-31"/>
     <use x="816.894531" xlink:href="#ArialMT-30"/>
    </g>
   </g>
  </g>
 </g>
 <defs>
  <clipPath id="p32b0e4dc13">
   <rect height="150.52" width="158.74" x="44.78" y="25.44"/>
  </clipPath>
 </defs>
</svg>
