<?xml version="1.0" encoding="utf-8" standalone="no"?>
<!DOCTYPE svg PUBLIC "-//W3C//DTD SVG 1.1//EN"
  "http://www.w3.org/Graphics/SVG/1.1/DTD/svg11.dtd">
<!-- Created with matplotlib (http://matplotlib.org/) -->
<svg height="144pt" version="1.1" viewBox="0 0 144 144" width="144pt" xmlns="http://www.w3.org/2000/svg" xmlns:xlink="http://www.w3.org/1999/xlink">
 <defs>
  <style type="text/css">
*{stroke-linecap:butt;stroke-linejoin:round;}
  </style>
 </defs>
 <g id="figure_1">
  <g id="patch_1">
   <path d="M 0 144 
L 144 144 
L 144 0 
L 0 0 
z
" style="fill:#ffffff;"/>
  </g>
  <g id="axes_1">
   <g id="patch_2">
    <path d="M 32.525 101.92 
L 130.44 101.92 
L 130.44 13.56 
L 32.525 13.56 
z
" style="fill:#ffffff;"/>
   </g>
   <g id="matplotlib.axis_1">
    <g id="xtick_1">
     <g id="line2d_1">
      <defs>
       <path d="M 0 0 
L 0 3.5 
" id="mb666c20ca5" style="stroke:#262626;stroke-width:0.8;"/>
      </defs>
      <g>
       <use style="fill:#262626;stroke:#262626;stroke-width:0.8;" x="36.975682" xlink:href="#mb666c20ca5" y="101.92"/>
      </g>
     </g>
     <g id="text_1">
      <!-- 2 -->
      <defs>
       <path d="M 50.34375 8.453125 
L 50.34375 0 
L 3.03125 0 
Q 2.9375 3.171875 4.046875 6.109375 
Q 5.859375 10.9375 9.828125 15.625 
Q 13.8125 20.3125 21.34375 26.46875 
Q 33.015625 36.03125 37.109375 41.625 
Q 41.21875 47.21875 41.21875 52.203125 
Q 41.21875 57.421875 37.46875 61 
Q 33.734375 64.59375 27.734375 64.59375 
Q 21.390625 64.59375 17.578125 60.78125 
Q 13.765625 56.984375 13.71875 50.25 
L 4.6875 51.171875 
Q 5.609375 61.28125 11.65625 66.578125 
Q 17.71875 71.875 27.9375 71.875 
Q 38.234375 71.875 44.234375 66.15625 
Q 50.25 60.453125 50.25 52 
Q 50.25 47.703125 48.484375 43.546875 
Q 46.734375 39.40625 42.65625 34.8125 
Q 38.578125 30.21875 29.109375 22.21875 
Q 21.1875 15.578125 18.9375 13.203125 
Q 16.703125 10.84375 15.234375 8.453125 
z
" id="ArialMT-32"/>
      </defs>
      <g style="fill:#262626;" transform="translate(33.917166 116.793594)scale(0.11 -0.11)">
       <use xlink:href="#ArialMT-32"/>
      </g>
     </g>
    </g>
    <g id="xtick_2">
     <g id="line2d_2">
      <g>
       <use style="fill:#262626;stroke:#262626;stroke-width:0.8;" x="54.778409" xlink:href="#mb666c20ca5" y="101.92"/>
      </g>
     </g>
     <g id="text_2">
      <!-- 4 -->
      <defs>
       <path d="M 32.328125 0 
L 32.328125 17.140625 
L 1.265625 17.140625 
L 1.265625 25.203125 
L 33.9375 71.578125 
L 41.109375 71.578125 
L 41.109375 25.203125 
L 50.78125 25.203125 
L 50.78125 17.140625 
L 41.109375 17.140625 
L 41.109375 0 
z
M 32.328125 25.203125 
L 32.328125 57.46875 
L 9.90625 25.203125 
z
" id="ArialMT-34"/>
      </defs>
      <g style="fill:#262626;" transform="translate(51.719893 116.793594)scale(0.11 -0.11)">
       <use xlink:href="#ArialMT-34"/>
      </g>
     </g>
    </g>
    <g id="xtick_3">
     <g id="line2d_3">
      <g>
       <use style="fill:#262626;stroke:#262626;stroke-width:0.8;" x="72.581136" xlink:href="#mb666c20ca5" y="101.92"/>
      </g>
     </g>
     <g id="text_3">
      <!-- 6 -->
      <defs>
       <path d="M 49.75 54.046875 
L 41.015625 53.375 
Q 39.84375 58.546875 37.703125 60.890625 
Q 34.125 64.65625 28.90625 64.65625 
Q 24.703125 64.65625 21.53125 62.3125 
Q 17.390625 59.28125 14.984375 53.46875 
Q 12.59375 47.65625 12.5 36.921875 
Q 15.671875 41.75 20.265625 44.09375 
Q 24.859375 46.4375 29.890625 46.4375 
Q 38.671875 46.4375 44.84375 39.96875 
Q 51.03125 33.5 51.03125 23.25 
Q 51.03125 16.5 48.125 10.71875 
Q 45.21875 4.9375 40.140625 1.859375 
Q 35.0625 -1.21875 28.609375 -1.21875 
Q 17.625 -1.21875 10.6875 6.859375 
Q 3.765625 14.9375 3.765625 33.5 
Q 3.765625 54.25 11.421875 63.671875 
Q 18.109375 71.875 29.4375 71.875 
Q 37.890625 71.875 43.28125 67.140625 
Q 48.6875 62.40625 49.75 54.046875 
z
M 13.875 23.1875 
Q 13.875 18.65625 15.796875 14.5 
Q 17.71875 10.359375 21.1875 8.171875 
Q 24.65625 6 28.46875 6 
Q 34.03125 6 38.03125 10.484375 
Q 42.046875 14.984375 42.046875 22.703125 
Q 42.046875 30.125 38.078125 34.390625 
Q 34.125 38.671875 28.125 38.671875 
Q 22.171875 38.671875 18.015625 34.390625 
Q 13.875 30.125 13.875 23.1875 
z
" id="ArialMT-36"/>
      </defs>
      <g style="fill:#262626;" transform="translate(69.522621 116.793594)scale(0.11 -0.11)">
       <use xlink:href="#ArialMT-36"/>
      </g>
     </g>
    </g>
    <g id="xtick_4">
     <g id="line2d_4">
      <g>
       <use style="fill:#262626;stroke:#262626;stroke-width:0.8;" x="90.383864" xlink:href="#mb666c20ca5" y="101.92"/>
      </g>
     </g>
     <g id="text_4">
      <!-- 8 -->
      <defs>
       <path d="M 17.671875 38.8125 
Q 12.203125 40.828125 9.5625 44.53125 
Q 6.9375 48.25 6.9375 53.421875 
Q 6.9375 61.234375 12.546875 66.546875 
Q 18.171875 71.875 27.484375 71.875 
Q 36.859375 71.875 42.578125 66.421875 
Q 48.296875 60.984375 48.296875 53.171875 
Q 48.296875 48.1875 45.671875 44.5 
Q 43.0625 40.828125 37.75 38.8125 
Q 44.34375 36.671875 47.78125 31.875 
Q 51.21875 27.09375 51.21875 20.453125 
Q 51.21875 11.28125 44.71875 5.03125 
Q 38.234375 -1.21875 27.640625 -1.21875 
Q 17.046875 -1.21875 10.546875 5.046875 
Q 4.046875 11.328125 4.046875 20.703125 
Q 4.046875 27.6875 7.59375 32.390625 
Q 11.140625 37.109375 17.671875 38.8125 
z
M 15.921875 53.71875 
Q 15.921875 48.640625 19.1875 45.40625 
Q 22.46875 42.1875 27.6875 42.1875 
Q 32.765625 42.1875 36.015625 45.375 
Q 39.265625 48.578125 39.265625 53.21875 
Q 39.265625 58.0625 35.90625 61.359375 
Q 32.5625 64.65625 27.59375 64.65625 
Q 22.5625 64.65625 19.234375 61.421875 
Q 15.921875 58.203125 15.921875 53.71875 
z
M 13.09375 20.65625 
Q 13.09375 16.890625 14.875 13.375 
Q 16.65625 9.859375 20.171875 7.921875 
Q 23.6875 6 27.734375 6 
Q 34.03125 6 38.125 10.046875 
Q 42.234375 14.109375 42.234375 20.359375 
Q 42.234375 26.703125 38.015625 30.859375 
Q 33.796875 35.015625 27.4375 35.015625 
Q 21.234375 35.015625 17.15625 30.90625 
Q 13.09375 26.8125 13.09375 20.65625 
z
" id="ArialMT-38"/>
      </defs>
      <g style="fill:#262626;" transform="translate(87.325348 116.793594)scale(0.11 -0.11)">
       <use xlink:href="#ArialMT-38"/>
      </g>
     </g>
    </g>
    <g id="xtick_5">
     <g id="line2d_5">
      <g>
       <use style="fill:#262626;stroke:#262626;stroke-width:0.8;" x="108.186591" xlink:href="#mb666c20ca5" y="101.92"/>
      </g>
     </g>
     <g id="text_5">
      <!-- 10 -->
      <defs>
       <path d="M 37.25 0 
L 28.46875 0 
L 28.46875 56 
Q 25.296875 52.984375 20.140625 49.953125 
Q 14.984375 46.921875 10.890625 45.40625 
L 10.890625 53.90625 
Q 18.265625 57.375 23.78125 62.296875 
Q 29.296875 67.234375 31.59375 71.875 
L 37.25 71.875 
z
" id="ArialMT-31"/>
       <path d="M 4.15625 35.296875 
Q 4.15625 48 6.765625 55.734375 
Q 9.375 63.484375 14.515625 67.671875 
Q 19.671875 71.875 27.484375 71.875 
Q 33.25 71.875 37.59375 69.546875 
Q 41.9375 67.234375 44.765625 62.859375 
Q 47.609375 58.5 49.21875 52.21875 
Q 50.828125 45.953125 50.828125 35.296875 
Q 50.828125 22.703125 48.234375 14.96875 
Q 45.65625 7.234375 40.5 3 
Q 35.359375 -1.21875 27.484375 -1.21875 
Q 17.140625 -1.21875 11.234375 6.203125 
Q 4.15625 15.140625 4.15625 35.296875 
z
M 13.1875 35.296875 
Q 13.1875 17.671875 17.3125 11.828125 
Q 21.4375 6 27.484375 6 
Q 33.546875 6 37.671875 11.859375 
Q 41.796875 17.71875 41.796875 35.296875 
Q 41.796875 52.984375 37.671875 58.78125 
Q 33.546875 64.59375 27.390625 64.59375 
Q 21.34375 64.59375 17.71875 59.46875 
Q 13.1875 52.9375 13.1875 35.296875 
z
" id="ArialMT-30"/>
      </defs>
      <g style="fill:#262626;" transform="translate(102.06956 116.793594)scale(0.11 -0.11)">
       <use xlink:href="#ArialMT-31"/>
       <use x="55.615234" xlink:href="#ArialMT-30"/>
      </g>
     </g>
    </g>
    <g id="xtick_6">
     <g id="line2d_6">
      <g>
       <use style="fill:#262626;stroke:#262626;stroke-width:0.8;" x="125.989318" xlink:href="#mb666c20ca5" y="101.92"/>
      </g>
     </g>
     <g id="text_6">
      <!-- 12 -->
      <g style="fill:#262626;" transform="translate(119.872287 116.793594)scale(0.11 -0.11)">
       <use xlink:href="#ArialMT-31"/>
       <use x="55.615234" xlink:href="#ArialMT-32"/>
      </g>
     </g>
    </g>
    <g id="text_7">
     <!-- pH -->
     <defs>
      <path d="M 6.59375 -19.875 
L 6.59375 51.859375 
L 14.59375 51.859375 
L 14.59375 45.125 
Q 17.4375 49.078125 21 51.046875 
Q 24.5625 53.03125 29.640625 53.03125 
Q 36.28125 53.03125 41.359375 49.609375 
Q 46.4375 46.1875 49.015625 39.953125 
Q 51.609375 33.734375 51.609375 26.3125 
Q 51.609375 18.359375 48.75 11.984375 
Q 45.90625 5.609375 40.453125 2.21875 
Q 35.015625 -1.171875 29 -1.171875 
Q 24.609375 -1.171875 21.109375 0.6875 
Q 17.625 2.546875 15.375 5.375 
L 15.375 -19.875 
z
M 14.546875 25.640625 
Q 14.546875 15.625 18.59375 10.84375 
Q 22.65625 6.0625 28.421875 6.0625 
Q 34.28125 6.0625 38.453125 11.015625 
Q 42.625 15.96875 42.625 26.375 
Q 42.625 36.28125 38.546875 41.203125 
Q 34.46875 46.140625 28.8125 46.140625 
Q 23.1875 46.140625 18.859375 40.890625 
Q 14.546875 35.640625 14.546875 25.640625 
z
" id="ArialMT-70"/>
      <path d="M 8.015625 0 
L 8.015625 71.578125 
L 17.484375 71.578125 
L 17.484375 42.1875 
L 54.6875 42.1875 
L 54.6875 71.578125 
L 64.15625 71.578125 
L 64.15625 0 
L 54.6875 0 
L 54.6875 33.734375 
L 17.484375 33.734375 
L 17.484375 0 
z
" id="ArialMT-48"/>
     </defs>
     <g style="fill:#262626;" transform="translate(74.451953 130.853437)scale(0.11 -0.11)">
      <use xlink:href="#ArialMT-70"/>
      <use x="55.615234" xlink:href="#ArialMT-48"/>
     </g>
    </g>
   </g>
   <g id="matplotlib.axis_2">
    <g id="ytick_1">
     <g id="line2d_7">
      <defs>
       <path d="M 0 0 
L -3.5 0 
" id="mdd9e4fa943" style="stroke:#262626;stroke-width:0.8;"/>
      </defs>
      <g>
       <use style="fill:#262626;stroke:#262626;stroke-width:0.8;" x="32.525" xlink:href="#mdd9e4fa943" y="97.903636"/>
      </g>
     </g>
    </g>
    <g id="ytick_2">
     <g id="line2d_8">
      <g>
       <use style="fill:#262626;stroke:#262626;stroke-width:0.8;" x="32.525" xlink:href="#mdd9e4fa943" y="17.576364"/>
      </g>
     </g>
    </g>
    <g id="text_8">
     <!-- Population -->
     <defs>
      <path d="M 7.71875 0 
L 7.71875 71.578125 
L 34.71875 71.578125 
Q 41.84375 71.578125 45.609375 70.90625 
Q 50.875 70.015625 54.4375 67.546875 
Q 58.015625 65.09375 60.1875 60.640625 
Q 62.359375 56.203125 62.359375 50.875 
Q 62.359375 41.75 56.546875 35.421875 
Q 50.734375 29.109375 35.546875 29.109375 
L 17.1875 29.109375 
L 17.1875 0 
z
M 17.1875 37.546875 
L 35.6875 37.546875 
Q 44.875 37.546875 48.734375 40.96875 
Q 52.59375 44.390625 52.59375 50.59375 
Q 52.59375 55.078125 50.3125 58.265625 
Q 48.046875 61.46875 44.34375 62.5 
Q 41.9375 63.140625 35.5 63.140625 
L 17.1875 63.140625 
z
" id="ArialMT-50"/>
      <path d="M 3.328125 25.921875 
Q 3.328125 40.328125 11.328125 47.265625 
Q 18.015625 53.03125 27.640625 53.03125 
Q 38.328125 53.03125 45.109375 46.015625 
Q 51.90625 39.015625 51.90625 26.65625 
Q 51.90625 16.65625 48.90625 10.90625 
Q 45.90625 5.171875 40.15625 2 
Q 34.421875 -1.171875 27.640625 -1.171875 
Q 16.75 -1.171875 10.03125 5.8125 
Q 3.328125 12.796875 3.328125 25.921875 
z
M 12.359375 25.921875 
Q 12.359375 15.96875 16.703125 11.015625 
Q 21.046875 6.0625 27.640625 6.0625 
Q 34.1875 6.0625 38.53125 11.03125 
Q 42.875 16.015625 42.875 26.21875 
Q 42.875 35.84375 38.5 40.796875 
Q 34.125 45.75 27.640625 45.75 
Q 21.046875 45.75 16.703125 40.8125 
Q 12.359375 35.890625 12.359375 25.921875 
z
" id="ArialMT-6f"/>
      <path d="M 40.578125 0 
L 40.578125 7.625 
Q 34.515625 -1.171875 24.125 -1.171875 
Q 19.53125 -1.171875 15.546875 0.578125 
Q 11.578125 2.34375 9.640625 5 
Q 7.71875 7.671875 6.9375 11.53125 
Q 6.390625 14.109375 6.390625 19.734375 
L 6.390625 51.859375 
L 15.1875 51.859375 
L 15.1875 23.09375 
Q 15.1875 16.21875 15.71875 13.8125 
Q 16.546875 10.359375 19.234375 8.375 
Q 21.921875 6.390625 25.875 6.390625 
Q 29.828125 6.390625 33.296875 8.421875 
Q 36.765625 10.453125 38.203125 13.9375 
Q 39.65625 17.4375 39.65625 24.078125 
L 39.65625 51.859375 
L 48.4375 51.859375 
L 48.4375 0 
z
" id="ArialMT-75"/>
      <path d="M 6.390625 0 
L 6.390625 71.578125 
L 15.1875 71.578125 
L 15.1875 0 
z
" id="ArialMT-6c"/>
      <path d="M 40.4375 6.390625 
Q 35.546875 2.25 31.03125 0.53125 
Q 26.515625 -1.171875 21.34375 -1.171875 
Q 12.796875 -1.171875 8.203125 3 
Q 3.609375 7.171875 3.609375 13.671875 
Q 3.609375 17.484375 5.34375 20.625 
Q 7.078125 23.78125 9.890625 25.6875 
Q 12.703125 27.59375 16.21875 28.5625 
Q 18.796875 29.25 24.03125 29.890625 
Q 34.671875 31.15625 39.703125 32.90625 
Q 39.75 34.71875 39.75 35.203125 
Q 39.75 40.578125 37.25 42.78125 
Q 33.890625 45.75 27.25 45.75 
Q 21.046875 45.75 18.09375 43.578125 
Q 15.140625 41.40625 13.71875 35.890625 
L 5.125 37.0625 
Q 6.296875 42.578125 8.984375 45.96875 
Q 11.671875 49.359375 16.75 51.1875 
Q 21.828125 53.03125 28.515625 53.03125 
Q 35.15625 53.03125 39.296875 51.46875 
Q 43.453125 49.90625 45.40625 47.53125 
Q 47.359375 45.171875 48.140625 41.546875 
Q 48.578125 39.3125 48.578125 33.453125 
L 48.578125 21.734375 
Q 48.578125 9.46875 49.140625 6.21875 
Q 49.703125 2.984375 51.375 0 
L 42.1875 0 
Q 40.828125 2.734375 40.4375 6.390625 
z
M 39.703125 26.03125 
Q 34.90625 24.078125 25.34375 22.703125 
Q 19.921875 21.921875 17.671875 20.9375 
Q 15.4375 19.96875 14.203125 18.09375 
Q 12.984375 16.21875 12.984375 13.921875 
Q 12.984375 10.40625 15.640625 8.0625 
Q 18.3125 5.71875 23.4375 5.71875 
Q 28.515625 5.71875 32.46875 7.9375 
Q 36.421875 10.15625 38.28125 14.015625 
Q 39.703125 17 39.703125 22.796875 
z
" id="ArialMT-61"/>
      <path d="M 25.78125 7.859375 
L 27.046875 0.09375 
Q 23.34375 -0.6875 20.40625 -0.6875 
Q 15.625 -0.6875 12.984375 0.828125 
Q 10.359375 2.34375 9.28125 4.8125 
Q 8.203125 7.28125 8.203125 15.1875 
L 8.203125 45.015625 
L 1.765625 45.015625 
L 1.765625 51.859375 
L 8.203125 51.859375 
L 8.203125 64.703125 
L 16.9375 69.96875 
L 16.9375 51.859375 
L 25.78125 51.859375 
L 25.78125 45.015625 
L 16.9375 45.015625 
L 16.9375 14.703125 
Q 16.9375 10.9375 17.40625 9.859375 
Q 17.875 8.796875 18.921875 8.15625 
Q 19.96875 7.515625 21.921875 7.515625 
Q 23.390625 7.515625 25.78125 7.859375 
z
" id="ArialMT-74"/>
      <path d="M 6.640625 61.46875 
L 6.640625 71.578125 
L 15.4375 71.578125 
L 15.4375 61.46875 
z
M 6.640625 0 
L 6.640625 51.859375 
L 15.4375 51.859375 
L 15.4375 0 
z
" id="ArialMT-69"/>
      <path d="M 6.59375 0 
L 6.59375 51.859375 
L 14.5 51.859375 
L 14.5 44.484375 
Q 20.21875 53.03125 31 53.03125 
Q 35.6875 53.03125 39.625 51.34375 
Q 43.5625 49.65625 45.515625 46.921875 
Q 47.46875 44.1875 48.25 40.4375 
Q 48.734375 37.984375 48.734375 31.890625 
L 48.734375 0 
L 39.9375 0 
L 39.9375 31.546875 
Q 39.9375 36.921875 38.90625 39.578125 
Q 37.890625 42.234375 35.28125 43.8125 
Q 32.671875 45.40625 29.15625 45.40625 
Q 23.53125 45.40625 19.453125 41.84375 
Q 15.375 38.28125 15.375 28.328125 
L 15.375 0 
z
" id="ArialMT-6e"/>
     </defs>
     <g style="fill:#262626;" transform="translate(19.33875 83.731797)rotate(-90)scale(0.11 -0.11)">
      <use xlink:href="#ArialMT-50"/>
      <use x="66.699219" xlink:href="#ArialMT-6f"/>
      <use x="122.314453" xlink:href="#ArialMT-70"/>
      <use x="177.929688" xlink:href="#ArialMT-75"/>
      <use x="233.544922" xlink:href="#ArialMT-6c"/>
      <use x="255.761719" xlink:href="#ArialMT-61"/>
      <use x="311.376953" xlink:href="#ArialMT-74"/>
      <use x="339.160156" xlink:href="#ArialMT-69"/>
      <use x="361.376953" xlink:href="#ArialMT-6f"/>
      <use x="416.992188" xlink:href="#ArialMT-6e"/>
     </g>
    </g>
   </g>
   <g id="patch_3">
    <path d="M 32.525 101.92 
L 32.525 13.56 
" style="fill:none;stroke:#262626;stroke-linecap:square;stroke-linejoin:miter;stroke-width:0.8;"/>
   </g>
   <g id="patch_4">
    <path d="M 32.525 101.92 
L 130.44 101.92 
" style="fill:none;stroke:#262626;stroke-linecap:square;stroke-linejoin:miter;stroke-width:0.8;"/>
   </g>
   <g id="line2d_9">
    <path clip-path="url(#pd749cb25e6)" d="M 36.975682 97.903636 
L 37.865818 97.903636 
L 38.755955 97.903636 
L 39.646091 97.903636 
L 40.536227 97.903636 
L 41.426364 97.903636 
L 42.3165 97.903636 
L 43.206636 97.903636 
L 44.096773 97.903636 
L 44.986909 97.903636 
L 45.877045 97.903636 
L 46.767182 97.903636 
L 47.657318 97.903636 
L 48.547455 97.903636 
L 49.437591 97.903636 
L 50.327727 97.903636 
L 51.217864 97.903636 
L 52.108 97.903636 
L 52.998136 97.903636 
L 53.888273 97.903636 
L 54.778409 97.903636 
L 55.668545 97.903636 
L 56.558682 97.903636 
L 57.448818 97.903636 
L 58.338955 97.903636 
L 59.229091 97.903636 
L 60.119227 97.903636 
L 61.009364 97.903636 
L 61.8995 97.903636 
L 62.789636 97.903636 
L 63.679773 97.903636 
L 64.569909 97.903636 
L 65.460045 97.903636 
L 66.350182 97.903636 
L 67.240318 97.903636 
L 68.130455 97.903636 
L 69.020591 97.903636 
L 69.910727 97.903636 
L 70.800864 97.903636 
L 71.691 97.903636 
L 72.581136 97.903636 
L 73.471273 97.903636 
L 74.361409 97.903636 
L 75.251545 97.903636 
L 76.141682 97.903636 
L 77.031818 97.903636 
L 77.921955 97.903636 
L 78.812091 97.903636 
L 79.702227 97.903636 
L 80.592364 97.903636 
L 81.4825 97.903636 
L 82.372636 97.903636 
L 83.262773 97.903636 
L 84.152909 97.903636 
L 85.043045 97.903636 
L 85.933182 97.903636 
L 86.823318 97.903636 
L 87.713455 97.903636 
L 88.603591 97.903636 
L 89.493727 97.903636 
L 90.383864 97.903636 
L 91.274 97.903636 
L 92.164136 97.903636 
L 93.054273 97.903636 
L 93.944409 97.903636 
L 94.834545 97.903636 
L 95.724682 97.903636 
L 96.614818 97.903636 
L 97.504955 97.903636 
L 98.395091 97.903636 
L 99.285227 97.903636 
L 100.175364 97.903636 
L 101.0655 97.903636 
L 101.955636 97.903636 
L 102.845773 97.903635 
L 103.735909 97.903635 
L 104.626045 97.903635 
L 105.516182 97.903634 
L 106.406318 97.903634 
L 107.296455 97.903633 
L 108.186591 97.903632 
L 109.076727 97.903631 
L 109.966864 97.90363 
L 110.857 97.903628 
L 111.747136 97.903626 
L 112.637273 97.903623 
L 113.527409 97.903619 
L 114.417545 97.903615 
L 115.307682 97.903609 
L 116.197818 97.903602 
L 117.087955 97.903593 
L 117.978091 97.903582 
L 118.868227 97.903568 
L 119.758364 97.90355 
L 120.6485 97.903528 
L 121.538636 97.9035 
L 122.428773 97.903465 
L 123.318909 97.90342 
L 124.209045 97.903364 
L 125.099182 97.903294 
L 125.989318 97.903205 
" style="fill:none;stroke:#d6604d;stroke-linecap:round;stroke-width:1.5;"/>
   </g>
   <g id="line2d_10">
    <path clip-path="url(#pd749cb25e6)" d="M 36.975682 97.903636 
L 37.865818 97.903636 
L 38.755955 97.903636 
L 39.646091 97.903636 
L 40.536227 97.903636 
L 41.426364 97.903636 
L 42.3165 97.903636 
L 43.206636 97.903636 
L 44.096773 97.903636 
L 44.986909 97.903636 
L 45.877045 97.903636 
L 46.767182 97.903636 
L 47.657318 97.903636 
L 48.547455 97.903636 
L 49.437591 97.903636 
L 50.327727 97.903636 
L 51.217864 97.903636 
L 52.108 97.903636 
L 52.998136 97.903636 
L 53.888273 97.903636 
L 54.778409 97.903636 
L 55.668545 97.903636 
L 56.558682 97.903636 
L 57.448818 97.903636 
L 58.338955 97.903636 
L 59.229091 97.903636 
L 60.119227 97.903636 
L 61.009364 97.903636 
L 61.8995 97.903636 
L 62.789636 97.903636 
L 63.679773 97.903636 
L 64.569909 97.903636 
L 65.460045 97.903636 
L 66.350182 97.903636 
L 67.240318 97.903636 
L 68.130455 97.903636 
L 69.020591 97.903636 
L 69.910727 97.903636 
L 70.800864 97.903636 
L 71.691 97.903636 
L 72.581136 97.903636 
L 73.471273 97.903636 
L 74.361409 97.903636 
L 75.251545 97.903636 
L 76.141682 97.903636 
L 77.031818 97.903636 
L 77.921955 97.903636 
L 78.812091 97.903636 
L 79.702227 97.903636 
L 80.592364 97.903636 
L 81.4825 97.903636 
L 82.372636 97.903636 
L 83.262773 97.903636 
L 84.152909 97.903636 
L 85.043045 97.903636 
L 85.933182 97.903636 
L 86.823318 97.903636 
L 87.713455 97.903636 
L 88.603591 97.903636 
L 89.493727 97.903636 
L 90.383864 97.903636 
L 91.274 97.903636 
L 92.164136 97.903636 
L 93.054273 97.903636 
L 93.944409 97.903636 
L 94.834545 97.903636 
L 95.724682 97.903636 
L 96.614818 97.903636 
L 97.504955 97.903636 
L 98.395091 97.903636 
L 99.285227 97.903636 
L 100.175364 97.903636 
L 101.0655 97.903636 
L 101.955636 97.903636 
L 102.845773 97.903636 
L 103.735909 97.903636 
L 104.626045 97.903636 
L 105.516182 97.903636 
L 106.406318 97.903636 
L 107.296455 97.903636 
L 108.186591 97.903636 
L 109.076727 97.903636 
L 109.966864 97.903636 
L 110.857 97.903636 
L 111.747136 97.903636 
L 112.637273 97.903636 
L 113.527409 97.903636 
L 114.417545 97.903636 
L 115.307682 97.903636 
L 116.197818 97.903636 
L 117.087955 97.903636 
L 117.978091 97.903636 
L 118.868227 97.903636 
L 119.758364 97.903636 
L 120.6485 97.903636 
L 121.538636 97.903636 
L 122.428773 97.903636 
L 123.318909 97.903636 
L 124.209045 97.903636 
L 125.099182 97.903636 
L 125.989318 97.903636 
" style="fill:none;stroke:#4393c3;stroke-linecap:round;stroke-width:1.5;"/>
   </g>
   <g id="line2d_11">
    <path clip-path="url(#pd749cb25e6)" d="M 36.975682 94.269708 
L 37.865818 94.589383 
L 38.755955 94.919831 
L 39.646091 95.252596 
L 40.536227 95.57898 
L 41.426364 95.890937 
L 42.3165 96.181825 
L 43.206636 96.446882 
L 44.096773 96.683373 
L 44.986909 96.890448 
L 45.877045 97.068804 
L 46.767182 97.220255 
L 47.657318 97.347317 
L 48.547455 97.452842 
L 49.437591 97.539745 
L 50.327727 97.610816 
L 51.217864 97.66861 
L 52.108 97.715391 
L 52.998136 97.753115 
L 53.888273 97.783445 
L 54.778409 97.807769 
L 55.668545 97.827241 
L 56.558682 97.842802 
L 57.448818 97.855224 
L 58.338955 97.865129 
L 59.229091 97.873022 
L 60.119227 97.879306 
L 61.009364 97.884308 
L 61.8995 97.888287 
L 62.789636 97.891452 
L 63.679773 97.893968 
L 64.569909 97.895968 
L 65.460045 97.897558 
L 66.350182 97.898822 
L 67.240318 97.899825 
L 68.130455 97.900623 
L 69.020591 97.901256 
L 69.910727 97.901759 
L 70.800864 97.902159 
L 71.691 97.902476 
L 72.581136 97.902728 
L 73.471273 97.902927 
L 74.361409 97.903085 
L 75.251545 97.90321 
L 76.141682 97.903308 
L 77.031818 97.903386 
L 77.921955 97.903447 
L 78.812091 97.903494 
L 79.702227 97.903531 
L 80.592364 97.903559 
L 81.4825 97.90358 
L 82.372636 97.903596 
L 83.262773 97.903608 
L 84.152909 97.903616 
L 85.043045 97.903623 
L 85.933182 97.903627 
L 86.823318 97.90363 
L 87.713455 97.903632 
L 88.603591 97.903634 
L 89.493727 97.903635 
L 90.383864 97.903635 
L 91.274 97.903636 
L 92.164136 97.903636 
L 93.054273 97.903636 
L 93.944409 97.903636 
L 94.834545 97.903636 
L 95.724682 97.903636 
L 96.614818 97.903636 
L 97.504955 97.903636 
L 98.395091 97.903636 
L 99.285227 97.903636 
L 100.175364 97.903636 
L 101.0655 97.903636 
L 101.955636 97.903636 
L 102.845773 97.903636 
L 103.735909 97.903636 
L 104.626045 97.903636 
L 105.516182 97.903636 
L 106.406318 97.903636 
L 107.296455 97.903636 
L 108.186591 97.903636 
L 109.076727 97.903636 
L 109.966864 97.903636 
L 110.857 97.903636 
L 111.747136 97.903636 
L 112.637273 97.903636 
L 113.527409 97.903636 
L 114.417545 97.903636 
L 115.307682 97.903636 
L 116.197818 97.903636 
L 117.087955 97.903636 
L 117.978091 97.903636 
L 118.868227 97.903636 
L 119.758364 97.903636 
L 120.6485 97.903636 
L 121.538636 97.903636 
L 122.428773 97.903636 
L 123.318909 97.903636 
L 124.209045 97.903636 
L 125.099182 97.903636 
L 125.989318 97.903636 
" style="fill:none;stroke:#92c5de;stroke-linecap:round;stroke-width:1.5;"/>
   </g>
   <g id="line2d_12">
    <path clip-path="url(#pd749cb25e6)" d="M 36.975682 97.903417 
L 37.865818 97.90332 
L 38.755955 97.903185 
L 39.646091 97.903 
L 40.536227 97.902753 
L 41.426364 97.902424 
L 42.3165 97.901992 
L 43.206636 97.901431 
L 44.096773 97.900709 
L 44.986909 97.899784 
L 45.877045 97.898606 
L 46.767182 97.89711 
L 47.657318 97.895216 
L 48.547455 97.892823 
L 49.437591 97.889802 
L 50.327727 97.885992 
L 51.217864 97.881192 
L 52.108 97.875144 
L 52.998136 97.867529 
L 53.888273 97.857941 
L 54.778409 97.845871 
L 55.668545 97.830679 
L 56.558682 97.81156 
L 57.448818 97.787503 
L 58.338955 97.757236 
L 59.229091 97.719165 
L 60.119227 97.671286 
L 61.009364 97.611091 
L 61.8995 97.535437 
L 62.789636 97.440399 
L 63.679773 97.321073 
L 64.569909 97.171356 
L 65.460045 96.98367 
L 66.350182 96.748644 
L 67.240318 96.454733 
L 68.130455 96.08781 
L 69.020591 95.630707 
L 69.910727 95.062761 
L 70.800864 94.359406 
L 71.691 93.491885 
L 72.581136 92.427223 
L 73.471273 91.128618 
L 74.361409 89.556473 
L 75.251545 87.670318 
L 76.141682 85.431856 
L 77.031818 82.809234 
L 77.921955 79.782435 
L 78.812091 76.349274 
L 79.702227 72.531011 
L 80.592364 68.376203 
L 81.4825 63.961278 
L 82.372636 59.386761 
L 83.262773 54.769057 
L 84.152909 50.229011 
L 85.043045 45.879529 
L 85.933182 41.814863 
L 86.823318 38.10361 
L 87.713455 34.786249 
L 88.603591 31.876796 
L 89.493727 29.367324 
L 90.383864 27.23381 
L 91.274 25.44204 
L 92.164136 23.952708 
L 93.054273 22.725336 
L 93.944409 21.720979 
L 94.834545 20.90386 
L 95.724682 20.242201 
L 96.614818 19.708467 
L 97.504955 19.27925 
L 98.395091 18.934939 
L 99.285227 18.659286 
L 100.175364 18.438952 
L 101.0655 18.26306 
L 101.955636 18.122788 
L 102.845773 18.011013 
L 103.735909 17.922004 
L 104.626045 17.85116 
L 105.516182 17.794797 
L 106.406318 17.74997 
L 107.296455 17.714328 
L 108.186591 17.685994 
L 109.076727 17.663473 
L 109.966864 17.645576 
L 110.857 17.631354 
L 111.747136 17.620055 
L 112.637273 17.611079 
L 113.527409 17.603948 
L 114.417545 17.598285 
L 115.307682 17.593788 
L 116.197818 17.590219 
L 117.087955 17.587386 
L 117.978091 17.58514 
L 118.868227 17.583361 
L 119.758364 17.581955 
L 120.6485 17.580846 
L 121.538636 17.579975 
L 122.428773 17.579296 
L 123.318909 17.578774 
L 124.209045 17.578379 
L 125.099182 17.578092 
L 125.989318 17.577896 
" style="fill:none;stroke:#f4a582;stroke-linecap:round;stroke-width:1.5;"/>
   </g>
   <g id="line2d_13">
    <path clip-path="url(#pd749cb25e6)" d="M 36.975682 97.793893 
L 37.865818 97.803547 
L 38.755955 97.813527 
L 39.646091 97.823576 
L 40.536227 97.833433 
L 41.426364 97.842854 
L 42.3165 97.851638 
L 43.206636 97.859643 
L 44.096773 97.866785 
L 44.986909 97.873039 
L 45.877045 97.878425 
L 46.767182 97.882999 
L 47.657318 97.886836 
L 48.547455 97.890023 
L 49.437591 97.892647 
L 50.327727 97.894793 
L 51.217864 97.896539 
L 52.108 97.897951 
L 52.998136 97.899091 
L 53.888273 97.900007 
L 54.778409 97.900741 
L 55.668545 97.901329 
L 56.558682 97.901799 
L 57.448818 97.902174 
L 58.338955 97.902473 
L 59.229091 97.902712 
L 60.119227 97.902902 
L 61.009364 97.903053 
L 61.8995 97.903173 
L 62.789636 97.903268 
L 63.679773 97.903344 
L 64.569909 97.903405 
L 65.460045 97.903453 
L 66.350182 97.903491 
L 67.240318 97.903521 
L 68.130455 97.903545 
L 69.020591 97.903564 
L 69.910727 97.90358 
L 70.800864 97.903592 
L 71.691 97.903601 
L 72.581136 97.903609 
L 73.471273 97.903615 
L 74.361409 97.90362 
L 75.251545 97.903623 
L 76.141682 97.903626 
L 77.031818 97.903629 
L 77.921955 97.903631 
L 78.812091 97.903632 
L 79.702227 97.903633 
L 80.592364 97.903634 
L 81.4825 97.903635 
L 82.372636 97.903635 
L 83.262773 97.903636 
L 84.152909 97.903636 
L 85.043045 97.903636 
L 85.933182 97.903636 
L 86.823318 97.903636 
L 87.713455 97.903636 
L 88.603591 97.903636 
L 89.493727 97.903636 
L 90.383864 97.903636 
L 91.274 97.903636 
L 92.164136 97.903636 
L 93.054273 97.903636 
L 93.944409 97.903636 
L 94.834545 97.903636 
L 95.724682 97.903636 
L 96.614818 97.903636 
L 97.504955 97.903636 
L 98.395091 97.903636 
L 99.285227 97.903636 
L 100.175364 97.903636 
L 101.0655 97.903636 
L 101.955636 97.903636 
L 102.845773 97.903636 
L 103.735909 97.903636 
L 104.626045 97.903636 
L 105.516182 97.903636 
L 106.406318 97.903636 
L 107.296455 97.903636 
L 108.186591 97.903636 
L 109.076727 97.903636 
L 109.966864 97.903636 
L 110.857 97.903636 
L 111.747136 97.903636 
L 112.637273 97.903636 
L 113.527409 97.903636 
L 114.417545 97.903636 
L 115.307682 97.903636 
L 116.197818 97.903636 
L 117.087955 97.903636 
L 117.978091 97.903636 
L 118.868227 97.903636 
L 119.758364 97.903636 
L 120.6485 97.903636 
L 121.538636 97.903636 
L 122.428773 97.903636 
L 123.318909 97.903636 
L 124.209045 97.903636 
L 125.099182 97.903636 
L 125.989318 97.903636 
" style="fill:none;stroke:#92c5de;stroke-linecap:round;stroke-width:1.5;"/>
   </g>
   <g id="line2d_14">
    <path clip-path="url(#pd749cb25e6)" d="M 36.975682 97.903607 
L 37.865818 97.903609 
L 38.755955 97.903612 
L 39.646091 97.903615 
L 40.536227 97.903617 
L 41.426364 97.90362 
L 42.3165 97.903622 
L 43.206636 97.903625 
L 44.096773 97.903626 
L 44.986909 97.903628 
L 45.877045 97.90363 
L 46.767182 97.903631 
L 47.657318 97.903632 
L 48.547455 97.903633 
L 49.437591 97.903633 
L 50.327727 97.903634 
L 51.217864 97.903634 
L 52.108 97.903635 
L 52.998136 97.903635 
L 53.888273 97.903635 
L 54.778409 97.903636 
L 55.668545 97.903636 
L 56.558682 97.903636 
L 57.448818 97.903636 
L 58.338955 97.903636 
L 59.229091 97.903636 
L 60.119227 97.903636 
L 61.009364 97.903636 
L 61.8995 97.903636 
L 62.789636 97.903636 
L 63.679773 97.903636 
L 64.569909 97.903636 
L 65.460045 97.903636 
L 66.350182 97.903636 
L 67.240318 97.903636 
L 68.130455 97.903636 
L 69.020591 97.903636 
L 69.910727 97.903636 
L 70.800864 97.903636 
L 71.691 97.903636 
L 72.581136 97.903636 
L 73.471273 97.903636 
L 74.361409 97.903636 
L 75.251545 97.903636 
L 76.141682 97.903636 
L 77.031818 97.903636 
L 77.921955 97.903636 
L 78.812091 97.903636 
L 79.702227 97.903636 
L 80.592364 97.903636 
L 81.4825 97.903636 
L 82.372636 97.903636 
L 83.262773 97.903636 
L 84.152909 97.903636 
L 85.043045 97.903636 
L 85.933182 97.903636 
L 86.823318 97.903636 
L 87.713455 97.903636 
L 88.603591 97.903636 
L 89.493727 97.903636 
L 90.383864 97.903636 
L 91.274 97.903636 
L 92.164136 97.903636 
L 93.054273 97.903636 
L 93.944409 97.903636 
L 94.834545 97.903636 
L 95.724682 97.903636 
L 96.614818 97.903636 
L 97.504955 97.903636 
L 98.395091 97.903636 
L 99.285227 97.903636 
L 100.175364 97.903636 
L 101.0655 97.903636 
L 101.955636 97.903636 
L 102.845773 97.903636 
L 103.735909 97.903636 
L 104.626045 97.903636 
L 105.516182 97.903636 
L 106.406318 97.903636 
L 107.296455 97.903636 
L 108.186591 97.903636 
L 109.076727 97.903636 
L 109.966864 97.903636 
L 110.857 97.903636 
L 111.747136 97.903636 
L 112.637273 97.903636 
L 113.527409 97.903636 
L 114.417545 97.903636 
L 115.307682 97.903636 
L 116.197818 97.903636 
L 117.087955 97.903636 
L 117.978091 97.903636 
L 118.868227 97.903636 
L 119.758364 97.903636 
L 120.6485 97.903636 
L 121.538636 97.903636 
L 122.428773 97.903636 
L 123.318909 97.903636 
L 124.209045 97.903636 
L 125.099182 97.903636 
L 125.989318 97.903636 
" style="fill:none;stroke:#92c5de;stroke-linecap:round;stroke-width:1.5;"/>
   </g>
   <g id="line2d_15">
    <path clip-path="url(#pd749cb25e6)" d="M 36.975682 95.08281 
L 37.865818 95.330956 
L 38.755955 95.587466 
L 39.646091 95.845774 
L 40.536227 96.099128 
L 41.426364 96.341284 
L 42.3165 96.567085 
L 43.206636 96.772835 
L 44.096773 96.956411 
L 44.986909 97.117152 
L 45.877045 97.2556 
L 46.767182 97.373164 
L 47.657318 97.471795 
L 48.547455 97.553709 
L 49.437591 97.621167 
L 50.327727 97.676335 
L 51.217864 97.721198 
L 52.108 97.757511 
L 52.998136 97.786795 
L 53.888273 97.810338 
L 54.778409 97.82922 
L 55.668545 97.844334 
L 56.558682 97.856414 
L 57.448818 97.866056 
L 58.338955 97.873745 
L 59.229091 97.879872 
L 60.119227 97.88475 
L 61.009364 97.888633 
L 61.8995 97.891722 
L 62.789636 97.894178 
L 63.679773 97.896131 
L 64.569909 97.897684 
L 65.460045 97.898918 
L 66.350182 97.899899 
L 67.240318 97.900678 
L 68.130455 97.901297 
L 69.020591 97.901789 
L 69.910727 97.902179 
L 70.800864 97.902489 
L 71.691 97.902736 
L 72.581136 97.902931 
L 73.471273 97.903086 
L 74.361409 97.903208 
L 75.251545 97.903305 
L 76.141682 97.903382 
L 77.031818 97.903442 
L 77.921955 97.903489 
L 78.812091 97.903526 
L 79.702227 97.903554 
L 80.592364 97.903576 
L 81.4825 97.903593 
L 82.372636 97.903605 
L 83.262773 97.903614 
L 84.152909 97.903621 
L 85.043045 97.903626 
L 85.933182 97.903629 
L 86.823318 97.903632 
L 87.713455 97.903633 
L 88.603591 97.903634 
L 89.493727 97.903635 
L 90.383864 97.903635 
L 91.274 97.903636 
L 92.164136 97.903636 
L 93.054273 97.903636 
L 93.944409 97.903636 
L 94.834545 97.903636 
L 95.724682 97.903636 
L 96.614818 97.903636 
L 97.504955 97.903636 
L 98.395091 97.903636 
L 99.285227 97.903636 
L 100.175364 97.903636 
L 101.0655 97.903636 
L 101.955636 97.903636 
L 102.845773 97.903636 
L 103.735909 97.903636 
L 104.626045 97.903636 
L 105.516182 97.903636 
L 106.406318 97.903636 
L 107.296455 97.903636 
L 108.186591 97.903636 
L 109.076727 97.903636 
L 109.966864 97.903636 
L 110.857 97.903636 
L 111.747136 97.903636 
L 112.637273 97.903636 
L 113.527409 97.903636 
L 114.417545 97.903636 
L 115.307682 97.903636 
L 116.197818 97.903636 
L 117.087955 97.903636 
L 117.978091 97.903636 
L 118.868227 97.903636 
L 119.758364 97.903636 
L 120.6485 97.903636 
L 121.538636 97.903636 
L 122.428773 97.903636 
L 123.318909 97.903636 
L 124.209045 97.903636 
L 125.099182 97.903636 
L 125.989318 97.903636 
" style="fill:none;stroke:#92c5de;stroke-linecap:round;stroke-width:1.5;"/>
   </g>
   <g id="line2d_16">
    <path clip-path="url(#pd749cb25e6)" d="M 36.975682 74.975097 
L 37.865818 76.992108 
L 38.755955 79.0771 
L 39.646091 81.176703 
L 40.536227 83.236045 
L 41.426364 85.204361 
L 42.3165 87.039742 
L 43.206636 88.712139 
L 44.096773 90.204297 
L 44.986909 91.510853 
L 45.877045 92.636197 
L 46.767182 93.591792 
L 47.657318 94.3935 
L 48.547455 95.059317 
L 49.437591 95.607636 
L 50.327727 96.056064 
L 51.217864 96.42072 
L 52.108 96.715886 
L 52.998136 96.953911 
L 53.888273 97.145277 
L 54.778409 97.298757 
L 55.668545 97.421612 
L 56.558682 97.5198 
L 57.448818 97.598175 
L 58.338955 97.660673 
L 59.229091 97.710471 
L 60.119227 97.750124 
L 61.009364 97.781683 
L 61.8995 97.80679 
L 62.789636 97.826758 
L 63.679773 97.842634 
L 64.569909 97.855255 
L 65.460045 97.865286 
L 66.350182 97.873257 
L 67.240318 97.879591 
L 68.130455 97.884622 
L 69.020591 97.888619 
L 69.910727 97.891794 
L 70.800864 97.894314 
L 71.691 97.896315 
L 72.581136 97.897902 
L 73.471273 97.89916 
L 74.361409 97.900157 
L 75.251545 97.900945 
L 76.141682 97.901567 
L 77.031818 97.902056 
L 77.921955 97.902439 
L 78.812091 97.902738 
L 79.702227 97.902969 
L 80.592364 97.903146 
L 81.4825 97.903281 
L 82.372636 97.903382 
L 83.262773 97.903457 
L 84.152909 97.903511 
L 85.043045 97.90355 
L 85.933182 97.903578 
L 86.823318 97.903597 
L 87.713455 97.90361 
L 88.603591 97.903619 
L 89.493727 97.903625 
L 90.383864 97.903629 
L 91.274 97.903632 
L 92.164136 97.903633 
L 93.054273 97.903634 
L 93.944409 97.903635 
L 94.834545 97.903636 
L 95.724682 97.903636 
L 96.614818 97.903636 
L 97.504955 97.903636 
L 98.395091 97.903636 
L 99.285227 97.903636 
L 100.175364 97.903636 
L 101.0655 97.903636 
L 101.955636 97.903636 
L 102.845773 97.903636 
L 103.735909 97.903636 
L 104.626045 97.903636 
L 105.516182 97.903636 
L 106.406318 97.903636 
L 107.296455 97.903636 
L 108.186591 97.903636 
L 109.076727 97.903636 
L 109.966864 97.903636 
L 110.857 97.903636 
L 111.747136 97.903636 
L 112.637273 97.903636 
L 113.527409 97.903636 
L 114.417545 97.903636 
L 115.307682 97.903636 
L 116.197818 97.903636 
L 117.087955 97.903636 
L 117.978091 97.903636 
L 118.868227 97.903636 
L 119.758364 97.903636 
L 120.6485 97.903636 
L 121.538636 97.903636 
L 122.428773 97.903636 
L 123.318909 97.903636 
L 124.209045 97.903636 
L 125.099182 97.903636 
L 125.989318 97.903636 
" style="fill:none;stroke:#92c5de;stroke-linecap:round;stroke-width:1.5;"/>
   </g>
   <g id="line2d_17">
    <path clip-path="url(#pd749cb25e6)" d="M 36.975682 97.903636 
L 37.865818 97.903636 
L 38.755955 97.903636 
L 39.646091 97.903636 
L 40.536227 97.903636 
L 41.426364 97.903636 
L 42.3165 97.903636 
L 43.206636 97.903636 
L 44.096773 97.903636 
L 44.986909 97.903636 
L 45.877045 97.903636 
L 46.767182 97.903636 
L 47.657318 97.903636 
L 48.547455 97.903636 
L 49.437591 97.903636 
L 50.327727 97.903636 
L 51.217864 97.903636 
L 52.108 97.903636 
L 52.998136 97.903636 
L 53.888273 97.903636 
L 54.778409 97.903636 
L 55.668545 97.903636 
L 56.558682 97.903636 
L 57.448818 97.903636 
L 58.338955 97.903636 
L 59.229091 97.903636 
L 60.119227 97.903636 
L 61.009364 97.903636 
L 61.8995 97.903636 
L 62.789636 97.903636 
L 63.679773 97.903636 
L 64.569909 97.903636 
L 65.460045 97.903636 
L 66.350182 97.903636 
L 67.240318 97.903636 
L 68.130455 97.903636 
L 69.020591 97.903636 
L 69.910727 97.903636 
L 70.800864 97.903636 
L 71.691 97.903636 
L 72.581136 97.903636 
L 73.471273 97.903636 
L 74.361409 97.903636 
L 75.251545 97.903636 
L 76.141682 97.903636 
L 77.031818 97.903636 
L 77.921955 97.903636 
L 78.812091 97.903635 
L 79.702227 97.903635 
L 80.592364 97.903635 
L 81.4825 97.903635 
L 82.372636 97.903635 
L 83.262773 97.903634 
L 84.152909 97.903634 
L 85.043045 97.903634 
L 85.933182 97.903634 
L 86.823318 97.903634 
L 87.713455 97.903633 
L 88.603591 97.903633 
L 89.493727 97.903633 
L 90.383864 97.903633 
L 91.274 97.903633 
L 92.164136 97.903633 
L 93.054273 97.903633 
L 93.944409 97.903633 
L 94.834545 97.903633 
L 95.724682 97.903633 
L 96.614818 97.903633 
L 97.504955 97.903633 
L 98.395091 97.903633 
L 99.285227 97.903633 
L 100.175364 97.903633 
L 101.0655 97.903633 
L 101.955636 97.903633 
L 102.845773 97.903633 
L 103.735909 97.903633 
L 104.626045 97.903633 
L 105.516182 97.903633 
L 106.406318 97.903633 
L 107.296455 97.903633 
L 108.186591 97.903633 
L 109.076727 97.903633 
L 109.966864 97.903633 
L 110.857 97.903633 
L 111.747136 97.903633 
L 112.637273 97.903633 
L 113.527409 97.903633 
L 114.417545 97.903633 
L 115.307682 97.903633 
L 116.197818 97.903633 
L 117.087955 97.903633 
L 117.978091 97.903633 
L 118.868227 97.903633 
L 119.758364 97.903633 
L 120.6485 97.903633 
L 121.538636 97.903633 
L 122.428773 97.903633 
L 123.318909 97.903633 
L 124.209045 97.903633 
L 125.099182 97.903633 
L 125.989318 97.903633 
" style="fill:none;stroke:#f4a582;stroke-linecap:round;stroke-width:1.5;"/>
   </g>
   <g id="line2d_18">
    <path clip-path="url(#pd749cb25e6)" d="M 36.975682 76.99256 
L 37.865818 78.832096 
L 38.755955 80.733631 
L 39.646091 82.648492 
L 40.536227 84.526634 
L 41.426364 86.32176 
L 42.3165 87.995647 
L 43.206636 89.520891 
L 44.096773 90.881756 
L 44.986909 92.073348 
L 45.877045 93.099675 
L 46.767182 93.971187 
L 47.657318 94.702354 
L 48.547455 95.309587 
L 49.437591 95.809659 
L 50.327727 96.21863 
L 51.217864 96.551201 
L 52.108 96.820396 
L 52.998136 97.037477 
L 53.888273 97.212004 
L 54.778409 97.35198 
L 55.668545 97.464025 
L 56.558682 97.553573 
L 57.448818 97.625052 
L 58.338955 97.682051 
L 59.229091 97.727467 
L 60.119227 97.763631 
L 61.009364 97.792414 
L 61.8995 97.815312 
L 62.789636 97.833523 
L 63.679773 97.848002 
L 64.569909 97.859512 
L 65.460045 97.86866 
L 66.350182 97.87593 
L 67.240318 97.881706 
L 68.130455 97.886295 
L 69.020591 97.889941 
L 69.910727 97.892836 
L 70.800864 97.895134 
L 71.691 97.896959 
L 72.581136 97.898406 
L 73.471273 97.899554 
L 74.361409 97.900463 
L 75.251545 97.901182 
L 76.141682 97.901749 
L 77.031818 97.902195 
L 77.921955 97.902544 
L 78.812091 97.902817 
L 79.702227 97.903028 
L 80.592364 97.903189 
L 81.4825 97.903312 
L 82.372636 97.903404 
L 83.262773 97.903472 
L 84.152909 97.903522 
L 85.043045 97.903558 
L 85.933182 97.903583 
L 86.823318 97.9036 
L 87.713455 97.903612 
L 88.603591 97.903621 
L 89.493727 97.903626 
L 90.383864 97.90363 
L 91.274 97.903632 
L 92.164136 97.903634 
L 93.054273 97.903635 
L 93.944409 97.903635 
L 94.834545 97.903636 
L 95.724682 97.903636 
L 96.614818 97.903636 
L 97.504955 97.903636 
L 98.395091 97.903636 
L 99.285227 97.903636 
L 100.175364 97.903636 
L 101.0655 97.903636 
L 101.955636 97.903636 
L 102.845773 97.903636 
L 103.735909 97.903636 
L 104.626045 97.903636 
L 105.516182 97.903636 
L 106.406318 97.903636 
L 107.296455 97.903636 
L 108.186591 97.903636 
L 109.076727 97.903636 
L 109.966864 97.903636 
L 110.857 97.903636 
L 111.747136 97.903636 
L 112.637273 97.903636 
L 113.527409 97.903636 
L 114.417545 97.903636 
L 115.307682 97.903636 
L 116.197818 97.903636 
L 117.087955 97.903636 
L 117.978091 97.903636 
L 118.868227 97.903636 
L 119.758364 97.903636 
L 120.6485 97.903636 
L 121.538636 97.903636 
L 122.428773 97.903636 
L 123.318909 97.903636 
L 124.209045 97.903636 
L 125.099182 97.903636 
L 125.989318 97.903636 
" style="fill:none;stroke:#92c5de;stroke-linecap:round;stroke-width:1.5;"/>
   </g>
   <g id="line2d_19">
    <path clip-path="url(#pd749cb25e6)" d="M 36.975682 97.903636 
L 37.865818 97.903636 
L 38.755955 97.903636 
L 39.646091 97.903636 
L 40.536227 97.903636 
L 41.426364 97.903636 
L 42.3165 97.903636 
L 43.206636 97.903636 
L 44.096773 97.903636 
L 44.986909 97.903636 
L 45.877045 97.903636 
L 46.767182 97.903636 
L 47.657318 97.903636 
L 48.547455 97.903636 
L 49.437591 97.903636 
L 50.327727 97.903636 
L 51.217864 97.903636 
L 52.108 97.903636 
L 52.998136 97.903636 
L 53.888273 97.903636 
L 54.778409 97.903636 
L 55.668545 97.903636 
L 56.558682 97.903636 
L 57.448818 97.903636 
L 58.338955 97.903636 
L 59.229091 97.903636 
L 60.119227 97.903636 
L 61.009364 97.903636 
L 61.8995 97.903636 
L 62.789636 97.903636 
L 63.679773 97.903636 
L 64.569909 97.903636 
L 65.460045 97.903636 
L 66.350182 97.903636 
L 67.240318 97.903636 
L 68.130455 97.903636 
L 69.020591 97.903636 
L 69.910727 97.903636 
L 70.800864 97.903636 
L 71.691 97.903636 
L 72.581136 97.903636 
L 73.471273 97.903636 
L 74.361409 97.903636 
L 75.251545 97.903636 
L 76.141682 97.903636 
L 77.031818 97.903636 
L 77.921955 97.903636 
L 78.812091 97.903636 
L 79.702227 97.903636 
L 80.592364 97.903636 
L 81.4825 97.903636 
L 82.372636 97.903636 
L 83.262773 97.903636 
L 84.152909 97.903636 
L 85.043045 97.903636 
L 85.933182 97.903636 
L 86.823318 97.903636 
L 87.713455 97.903636 
L 88.603591 97.903636 
L 89.493727 97.903636 
L 90.383864 97.903636 
L 91.274 97.903636 
L 92.164136 97.903636 
L 93.054273 97.903636 
L 93.944409 97.903636 
L 94.834545 97.903636 
L 95.724682 97.903636 
L 96.614818 97.903636 
L 97.504955 97.903636 
L 98.395091 97.903636 
L 99.285227 97.903636 
L 100.175364 97.903636 
L 101.0655 97.903636 
L 101.955636 97.903636 
L 102.845773 97.903636 
L 103.735909 97.903636 
L 104.626045 97.903636 
L 105.516182 97.903636 
L 106.406318 97.903636 
L 107.296455 97.903636 
L 108.186591 97.903636 
L 109.076727 97.903636 
L 109.966864 97.903636 
L 110.857 97.903636 
L 111.747136 97.903636 
L 112.637273 97.903636 
L 113.527409 97.903636 
L 114.417545 97.903636 
L 115.307682 97.903636 
L 116.197818 97.903636 
L 117.087955 97.903636 
L 117.978091 97.903636 
L 118.868227 97.903636 
L 119.758364 97.903636 
L 120.6485 97.903636 
L 121.538636 97.903636 
L 122.428773 97.903636 
L 123.318909 97.903636 
L 124.209045 97.903636 
L 125.099182 97.903636 
L 125.989318 97.903636 
" style="fill:none;stroke:#92c5de;stroke-linecap:round;stroke-width:1.5;"/>
   </g>
   <g id="line2d_20">
    <path clip-path="url(#pd749cb25e6)" d="M 36.975682 97.893395 
L 37.865818 97.891877 
L 38.755955 97.890308 
L 39.646091 97.888728 
L 40.536227 97.887179 
L 41.426364 97.885698 
L 42.3165 97.884317 
L 43.206636 97.883059 
L 44.096773 97.881937 
L 44.986909 97.880954 
L 45.877045 97.880108 
L 46.767182 97.879389 
L 47.657318 97.878787 
L 48.547455 97.878286 
L 49.437591 97.877875 
L 50.327727 97.877539 
L 51.217864 97.877266 
L 52.108 97.877046 
L 52.998136 97.876869 
L 53.888273 97.876729 
L 54.778409 97.876617 
L 55.668545 97.87653 
L 56.558682 97.876463 
L 57.448818 97.876412 
L 58.338955 97.876375 
L 59.229091 97.876351 
L 60.119227 97.876338 
L 61.009364 97.876334 
L 61.8995 97.876341 
L 62.789636 97.876359 
L 63.679773 97.876388 
L 64.569909 97.87643 
L 65.460045 97.876486 
L 66.350182 97.876561 
L 67.240318 97.876657 
L 68.130455 97.876778 
L 69.020591 97.876932 
L 69.910727 97.877124 
L 70.800864 97.877363 
L 71.691 97.877658 
L 72.581136 97.878021 
L 73.471273 97.878465 
L 74.361409 97.879002 
L 75.251545 97.879647 
L 76.141682 97.880413 
L 77.031818 97.88131 
L 77.921955 97.882346 
L 78.812091 97.883521 
L 79.702227 97.884827 
L 80.592364 97.886249 
L 81.4825 97.88776 
L 82.372636 97.889326 
L 83.262773 97.890906 
L 84.152909 97.89246 
L 85.043045 97.893949 
L 85.933182 97.89534 
L 86.823318 97.89661 
L 87.713455 97.897746 
L 88.603591 97.898742 
L 89.493727 97.899601 
L 90.383864 97.900331 
L 91.274 97.900944 
L 92.164136 97.901454 
L 93.054273 97.901874 
L 93.944409 97.902218 
L 94.834545 97.902497 
L 95.724682 97.902724 
L 96.614818 97.902907 
L 97.504955 97.903054 
L 98.395091 97.903171 
L 99.285227 97.903266 
L 100.175364 97.903341 
L 101.0655 97.903401 
L 101.955636 97.903449 
L 102.845773 97.903488 
L 103.735909 97.903518 
L 104.626045 97.903542 
L 105.516182 97.903562 
L 106.406318 97.903577 
L 107.296455 97.903589 
L 108.186591 97.903599 
L 109.076727 97.903607 
L 109.966864 97.903613 
L 110.857 97.903618 
L 111.747136 97.903621 
L 112.637273 97.903624 
L 113.527409 97.903627 
L 114.417545 97.903629 
L 115.307682 97.90363 
L 116.197818 97.903632 
L 117.087955 97.903633 
L 117.978091 97.903633 
L 118.868227 97.903634 
L 119.758364 97.903634 
L 120.6485 97.903635 
L 121.538636 97.903635 
L 122.428773 97.903635 
L 123.318909 97.903636 
L 124.209045 97.903636 
L 125.099182 97.903636 
L 125.989318 97.903636 
" style="fill:none;stroke:#333333;stroke-linecap:round;stroke-width:1.5;"/>
   </g>
   <g id="line2d_21">
    <path clip-path="url(#pd749cb25e6)" d="M 36.975682 76.99256 
L 37.865818 73.89399 
L 38.755955 70.691012 
L 39.646091 67.465621 
L 40.536227 64.302126 
L 41.426364 61.278527 
L 42.3165 58.459221 
L 43.206636 55.890389 
L 44.096773 53.598564 
L 44.986909 51.592012 
L 45.877045 49.864022 
L 46.767182 48.397034 
L 47.657318 47.166731 
L 48.547455 46.145541 
L 49.437591 45.305297 
L 50.327727 44.619061 
L 51.217864 44.062211 
L 52.108 43.612988 
L 52.998136 43.252644 
L 53.888273 42.965358 
L 54.778409 42.738009 
L 55.668545 42.559889 
L 56.558682 42.422409 
L 57.448818 42.318817 
L 58.338955 42.243955 
L 59.229091 42.194059 
L 60.119227 42.166602 
L 61.009364 42.160185 
L 61.8995 42.174483 
L 62.789636 42.210223 
L 63.679773 42.269222 
L 64.569909 42.354461 
L 65.460045 42.470211 
L 66.350182 42.62221 
L 67.240318 42.817874 
L 68.130455 43.066561 
L 69.020591 43.379859 
L 69.910727 43.771881 
L 70.800864 44.259536 
L 71.691 44.862714 
L 72.581136 45.604295 
L 73.471273 46.509868 
L 74.361409 47.607002 
L 75.251545 48.923896 
L 76.141682 50.487249 
L 77.031818 52.319269 
L 77.921955 54.433903 
L 78.812091 56.832646 
L 79.702227 59.500614 
L 80.592364 62.403853 
L 81.4825 65.488936 
L 82.372636 68.685598 
L 83.262773 71.912482 
L 84.152909 75.085126 
L 85.043045 78.124622 
L 85.933182 80.965097 
L 86.823318 83.558609 
L 87.713455 85.876866 
L 88.603591 87.91007 
L 89.493727 89.663759 
L 90.383864 91.15472 
L 91.274 92.406862 
L 92.164136 93.447652 
L 93.054273 94.305377 
L 93.944409 95.007253 
L 94.834545 95.57828 
L 95.724682 96.040668 
L 96.614818 96.413658 
L 97.504955 96.713608 
L 98.395091 96.954224 
L 99.285227 97.146859 
L 100.175364 97.300835 
L 101.0655 97.423754 
L 101.955636 97.521781 
L 102.845773 97.599893 
L 103.735909 97.662096 
L 104.626045 97.711604 
L 105.516182 97.750992 
L 106.406318 97.782319 
L 107.296455 97.807228 
L 108.186591 97.827029 
L 109.076727 97.842768 
L 109.966864 97.855276 
L 110.857 97.865216 
L 111.747136 97.873113 
L 112.637273 97.879388 
L 113.527409 97.884374 
L 114.417545 97.888334 
L 115.307682 97.891481 
L 116.197818 97.893981 
L 117.087955 97.895966 
L 117.978091 97.897544 
L 118.868227 97.898797 
L 119.758364 97.899792 
L 120.6485 97.900583 
L 121.538636 97.901211 
L 122.428773 97.90171 
L 123.318909 97.902106 
L 124.209045 97.902421 
L 125.099182 97.902671 
L 125.989318 97.902869 
" style="fill:none;stroke:#333333;stroke-linecap:round;stroke-width:1.5;"/>
   </g>
   <g id="line2d_22">
    <path clip-path="url(#pd749cb25e6)" d="M 36.975682 97.822283 
L 37.865818 97.810228 
L 38.755955 97.797767 
L 39.646091 97.785219 
L 40.536227 97.772911 
L 41.426364 97.761148 
L 42.3165 97.75018 
L 43.206636 97.740186 
L 44.096773 97.73127 
L 44.986909 97.723463 
L 45.877045 97.716741 
L 46.767182 97.711033 
L 47.657318 97.706247 
L 48.547455 97.702274 
L 49.437591 97.699005 
L 50.327727 97.696335 
L 51.217864 97.694169 
L 52.108 97.692421 
L 52.998136 97.691019 
L 53.888273 97.689902 
L 54.778409 97.689017 
L 55.668545 97.688324 
L 56.558682 97.687789 
L 57.448818 97.687386 
L 58.338955 97.687095 
L 59.229091 97.686901 
L 60.119227 97.686794 
L 61.009364 97.686769 
L 61.8995 97.686825 
L 62.789636 97.686964 
L 63.679773 97.687193 
L 64.569909 97.687525 
L 65.460045 97.687975 
L 66.350182 97.688567 
L 67.240318 97.689328 
L 68.130455 97.690295 
L 69.020591 97.691514 
L 69.910727 97.693039 
L 70.800864 97.694937 
L 71.691 97.697283 
L 72.581136 97.700168 
L 73.471273 97.703691 
L 74.361409 97.70796 
L 75.251545 97.713083 
L 76.141682 97.719165 
L 77.031818 97.726293 
L 77.921955 97.734519 
L 78.812091 97.743852 
L 79.702227 97.754231 
L 80.592364 97.765526 
L 81.4825 97.777529 
L 82.372636 97.789965 
L 83.262773 97.802519 
L 84.152909 97.814862 
L 85.043045 97.826687 
L 85.933182 97.837738 
L 86.823318 97.847828 
L 87.713455 97.856847 
L 88.603591 97.864757 
L 89.493727 97.87158 
L 90.383864 97.87738 
L 91.274 97.882251 
L 92.164136 97.886301 
L 93.054273 97.889638 
L 93.944409 97.892368 
L 94.834545 97.89459 
L 95.724682 97.896389 
L 96.614818 97.89784 
L 97.504955 97.899007 
L 98.395091 97.899943 
L 99.285227 97.900692 
L 100.175364 97.901291 
L 101.0655 97.901769 
L 101.955636 97.902151 
L 102.845773 97.902455 
L 103.735909 97.902697 
L 104.626045 97.902889 
L 105.516182 97.903043 
L 106.406318 97.903164 
L 107.296455 97.903261 
L 108.186591 97.903338 
L 109.076727 97.9034 
L 109.966864 97.903448 
L 110.857 97.903487 
L 111.747136 97.903518 
L 112.637273 97.903542 
L 113.527409 97.903561 
L 114.417545 97.903577 
L 115.307682 97.903589 
L 116.197818 97.903599 
L 117.087955 97.903607 
L 117.978091 97.903613 
L 118.868227 97.903618 
L 119.758364 97.903621 
L 120.6485 97.903624 
L 121.538636 97.903627 
L 122.428773 97.903629 
L 123.318909 97.90363 
L 124.209045 97.903632 
L 125.099182 97.903633 
L 125.989318 97.903633 
" style="fill:none;stroke:#333333;stroke-linecap:round;stroke-width:1.5;"/>
   </g>
   <g id="line2d_23">
    <path clip-path="url(#pd749cb25e6)" d="M 36.975682 88.983399 
L 37.865818 87.661613 
L 38.755955 86.295288 
L 39.646091 84.919403 
L 40.536227 83.56992 
L 41.426364 82.280115 
L 42.3165 81.077457 
L 43.206636 79.981646 
L 44.096773 79.004 
L 44.986909 78.148046 
L 45.877045 77.410921 
L 46.767182 76.785134 
L 47.657318 76.260312 
L 48.547455 75.824693 
L 49.437591 75.466262 
L 50.327727 75.173528 
L 51.217864 74.935987 
L 52.108 74.744358 
L 52.998136 74.590642 
L 53.888273 74.468092 
L 54.778409 74.371109 
L 55.668545 74.295127 
L 56.558682 74.236481 
L 57.448818 74.192291 
L 58.338955 74.160356 
L 59.229091 74.139072 
L 60.119227 74.127359 
L 61.009364 74.124622 
L 61.8995 74.130721 
L 62.789636 74.145967 
L 63.679773 74.171135 
L 64.569909 74.207496 
L 65.460045 74.256873 
L 66.350182 74.321712 
L 67.240318 74.405178 
L 68.130455 74.511263 
L 69.020591 74.64491 
L 69.910727 74.812138 
L 70.800864 75.020162 
L 71.691 75.277465 
L 72.581136 75.593808 
L 73.471273 75.980107 
L 74.361409 76.448122 
L 75.251545 77.009882 
L 76.141682 77.676777 
L 77.031818 78.458279 
L 77.921955 79.360338 
L 78.812091 80.383593 
L 79.702227 81.521694 
L 80.592364 82.760156 
L 81.4825 84.076189 
L 82.372636 85.43982 
L 83.262773 86.816342 
L 84.152909 88.169727 
L 85.043045 89.466314 
L 85.933182 90.678003 
L 86.823318 91.784342 
L 87.713455 92.773262 
L 88.603591 93.640586 
L 89.493727 94.388674 
L 90.383864 95.024687 
L 91.274 95.558825 
L 92.164136 96.002805 
L 93.054273 96.368692 
L 93.944409 96.668098 
L 94.834545 96.911687 
L 95.724682 97.108932 
L 96.614818 97.268042 
L 97.504955 97.395995 
L 98.395091 97.498636 
L 99.285227 97.580811 
L 100.175364 97.646494 
L 101.0655 97.698929 
L 101.955636 97.740745 
L 102.845773 97.774066 
L 103.735909 97.8006 
L 104.626045 97.821719 
L 105.516182 97.838521 
L 106.406318 97.851885 
L 107.296455 97.86251 
L 108.186591 97.870957 
L 109.076727 97.877671 
L 109.966864 97.883007 
L 110.857 97.887247 
L 111.747136 97.890616 
L 112.637273 97.893293 
L 113.527409 97.895419 
L 114.417545 97.897109 
L 115.307682 97.898451 
L 116.197818 97.899517 
L 117.087955 97.900364 
L 117.978091 97.901037 
L 118.868227 97.901572 
L 119.758364 97.901996 
L 120.6485 97.902334 
L 121.538636 97.902602 
L 122.428773 97.902814 
L 123.318909 97.902983 
L 124.209045 97.903118 
L 125.099182 97.903224 
L 125.989318 97.903309 
" style="fill:none;stroke:#333333;stroke-linecap:round;stroke-width:1.5;"/>
   </g>
  </g>
 </g>
 <defs>
  <clipPath id="pd749cb25e6">
   <rect height="88.36" width="97.915" x="32.525" y="13.56"/>
  </clipPath>
 </defs>
</svg>
