<?xml version="1.0" encoding="utf-8" standalone="no"?>
<!DOCTYPE svg PUBLIC "-//W3C//DTD SVG 1.1//EN"
  "http://www.w3.org/Graphics/SVG/1.1/DTD/svg11.dtd">
<!-- Created with matplotlib (http://matplotlib.org/) -->
<svg height="216pt" version="1.1" viewBox="0 0 216 216" width="216pt" xmlns="http://www.w3.org/2000/svg" xmlns:xlink="http://www.w3.org/1999/xlink">
 <defs>
  <style type="text/css">
*{stroke-linecap:butt;stroke-linejoin:round;}
  </style>
 </defs>
 <g id="figure_1">
  <g id="patch_1">
   <path d="M 0 216 
L 216 216 
L 216 0 
L 0 0 
z
" style="fill:#ffffff;"/>
  </g>
  <g id="axes_1">
   <g id="patch_2">
    <path d="M 38.96 175.96 
L 203.52 175.96 
L 203.52 25.44 
L 38.96 25.44 
z
" style="fill:#ffffff;"/>
   </g>
   <g id="matplotlib.axis_1">
    <g id="xtick_1">
     <g id="line2d_1">
      <defs>
       <path d="M 0 0 
L 0 3.5 
" id="m108eb2053f" style="stroke:#262626;stroke-width:0.8;"/>
      </defs>
      <g>
       <use style="fill:#262626;stroke:#262626;stroke-width:0.8;" x="46.44" xlink:href="#m108eb2053f" y="175.96"/>
      </g>
     </g>
     <g id="text_1">
      <!-- 2 -->
      <defs>
       <path d="M 50.34375 8.453125 
L 50.34375 0 
L 3.03125 0 
Q 2.9375 3.171875 4.046875 6.109375 
Q 5.859375 10.9375 9.828125 15.625 
Q 13.8125 20.3125 21.34375 26.46875 
Q 33.015625 36.03125 37.109375 41.625 
Q 41.21875 47.21875 41.21875 52.203125 
Q 41.21875 57.421875 37.46875 61 
Q 33.734375 64.59375 27.734375 64.59375 
Q 21.390625 64.59375 17.578125 60.78125 
Q 13.765625 56.984375 13.71875 50.25 
L 4.6875 51.171875 
Q 5.609375 61.28125 11.65625 66.578125 
Q 17.71875 71.875 27.9375 71.875 
Q 38.234375 71.875 44.234375 66.15625 
Q 50.25 60.453125 50.25 52 
Q 50.25 47.703125 48.484375 43.546875 
Q 46.734375 39.40625 42.65625 34.8125 
Q 38.578125 30.21875 29.109375 22.21875 
Q 21.1875 15.578125 18.9375 13.203125 
Q 16.703125 10.84375 15.234375 8.453125 
z
" id="ArialMT-32"/>
      </defs>
      <g style="fill:#262626;" transform="translate(43.659531 190.117812)scale(0.1 -0.1)">
       <use xlink:href="#ArialMT-32"/>
      </g>
     </g>
    </g>
    <g id="xtick_2">
     <g id="line2d_2">
      <g>
       <use style="fill:#262626;stroke:#262626;stroke-width:0.8;" x="76.36" xlink:href="#m108eb2053f" y="175.96"/>
      </g>
     </g>
     <g id="text_2">
      <!-- 4 -->
      <defs>
       <path d="M 32.328125 0 
L 32.328125 17.140625 
L 1.265625 17.140625 
L 1.265625 25.203125 
L 33.9375 71.578125 
L 41.109375 71.578125 
L 41.109375 25.203125 
L 50.78125 25.203125 
L 50.78125 17.140625 
L 41.109375 17.140625 
L 41.109375 0 
z
M 32.328125 25.203125 
L 32.328125 57.46875 
L 9.90625 25.203125 
z
" id="ArialMT-34"/>
      </defs>
      <g style="fill:#262626;" transform="translate(73.579531 190.117812)scale(0.1 -0.1)">
       <use xlink:href="#ArialMT-34"/>
      </g>
     </g>
    </g>
    <g id="xtick_3">
     <g id="line2d_3">
      <g>
       <use style="fill:#262626;stroke:#262626;stroke-width:0.8;" x="106.28" xlink:href="#m108eb2053f" y="175.96"/>
      </g>
     </g>
     <g id="text_3">
      <!-- 6 -->
      <defs>
       <path d="M 49.75 54.046875 
L 41.015625 53.375 
Q 39.84375 58.546875 37.703125 60.890625 
Q 34.125 64.65625 28.90625 64.65625 
Q 24.703125 64.65625 21.53125 62.3125 
Q 17.390625 59.28125 14.984375 53.46875 
Q 12.59375 47.65625 12.5 36.921875 
Q 15.671875 41.75 20.265625 44.09375 
Q 24.859375 46.4375 29.890625 46.4375 
Q 38.671875 46.4375 44.84375 39.96875 
Q 51.03125 33.5 51.03125 23.25 
Q 51.03125 16.5 48.125 10.71875 
Q 45.21875 4.9375 40.140625 1.859375 
Q 35.0625 -1.21875 28.609375 -1.21875 
Q 17.625 -1.21875 10.6875 6.859375 
Q 3.765625 14.9375 3.765625 33.5 
Q 3.765625 54.25 11.421875 63.671875 
Q 18.109375 71.875 29.4375 71.875 
Q 37.890625 71.875 43.28125 67.140625 
Q 48.6875 62.40625 49.75 54.046875 
z
M 13.875 23.1875 
Q 13.875 18.65625 15.796875 14.5 
Q 17.71875 10.359375 21.1875 8.171875 
Q 24.65625 6 28.46875 6 
Q 34.03125 6 38.03125 10.484375 
Q 42.046875 14.984375 42.046875 22.703125 
Q 42.046875 30.125 38.078125 34.390625 
Q 34.125 38.671875 28.125 38.671875 
Q 22.171875 38.671875 18.015625 34.390625 
Q 13.875 30.125 13.875 23.1875 
z
" id="ArialMT-36"/>
      </defs>
      <g style="fill:#262626;" transform="translate(103.499531 190.117812)scale(0.1 -0.1)">
       <use xlink:href="#ArialMT-36"/>
      </g>
     </g>
    </g>
    <g id="xtick_4">
     <g id="line2d_4">
      <g>
       <use style="fill:#262626;stroke:#262626;stroke-width:0.8;" x="136.2" xlink:href="#m108eb2053f" y="175.96"/>
      </g>
     </g>
     <g id="text_4">
      <!-- 8 -->
      <defs>
       <path d="M 17.671875 38.8125 
Q 12.203125 40.828125 9.5625 44.53125 
Q 6.9375 48.25 6.9375 53.421875 
Q 6.9375 61.234375 12.546875 66.546875 
Q 18.171875 71.875 27.484375 71.875 
Q 36.859375 71.875 42.578125 66.421875 
Q 48.296875 60.984375 48.296875 53.171875 
Q 48.296875 48.1875 45.671875 44.5 
Q 43.0625 40.828125 37.75 38.8125 
Q 44.34375 36.671875 47.78125 31.875 
Q 51.21875 27.09375 51.21875 20.453125 
Q 51.21875 11.28125 44.71875 5.03125 
Q 38.234375 -1.21875 27.640625 -1.21875 
Q 17.046875 -1.21875 10.546875 5.046875 
Q 4.046875 11.328125 4.046875 20.703125 
Q 4.046875 27.6875 7.59375 32.390625 
Q 11.140625 37.109375 17.671875 38.8125 
z
M 15.921875 53.71875 
Q 15.921875 48.640625 19.1875 45.40625 
Q 22.46875 42.1875 27.6875 42.1875 
Q 32.765625 42.1875 36.015625 45.375 
Q 39.265625 48.578125 39.265625 53.21875 
Q 39.265625 58.0625 35.90625 61.359375 
Q 32.5625 64.65625 27.59375 64.65625 
Q 22.5625 64.65625 19.234375 61.421875 
Q 15.921875 58.203125 15.921875 53.71875 
z
M 13.09375 20.65625 
Q 13.09375 16.890625 14.875 13.375 
Q 16.65625 9.859375 20.171875 7.921875 
Q 23.6875 6 27.734375 6 
Q 34.03125 6 38.125 10.046875 
Q 42.234375 14.109375 42.234375 20.359375 
Q 42.234375 26.703125 38.015625 30.859375 
Q 33.796875 35.015625 27.4375 35.015625 
Q 21.234375 35.015625 17.15625 30.90625 
Q 13.09375 26.8125 13.09375 20.65625 
z
" id="ArialMT-38"/>
      </defs>
      <g style="fill:#262626;" transform="translate(133.419531 190.117812)scale(0.1 -0.1)">
       <use xlink:href="#ArialMT-38"/>
      </g>
     </g>
    </g>
    <g id="xtick_5">
     <g id="line2d_5">
      <g>
       <use style="fill:#262626;stroke:#262626;stroke-width:0.8;" x="166.12" xlink:href="#m108eb2053f" y="175.96"/>
      </g>
     </g>
     <g id="text_5">
      <!-- 10 -->
      <defs>
       <path d="M 37.25 0 
L 28.46875 0 
L 28.46875 56 
Q 25.296875 52.984375 20.140625 49.953125 
Q 14.984375 46.921875 10.890625 45.40625 
L 10.890625 53.90625 
Q 18.265625 57.375 23.78125 62.296875 
Q 29.296875 67.234375 31.59375 71.875 
L 37.25 71.875 
z
" id="ArialMT-31"/>
       <path d="M 4.15625 35.296875 
Q 4.15625 48 6.765625 55.734375 
Q 9.375 63.484375 14.515625 67.671875 
Q 19.671875 71.875 27.484375 71.875 
Q 33.25 71.875 37.59375 69.546875 
Q 41.9375 67.234375 44.765625 62.859375 
Q 47.609375 58.5 49.21875 52.21875 
Q 50.828125 45.953125 50.828125 35.296875 
Q 50.828125 22.703125 48.234375 14.96875 
Q 45.65625 7.234375 40.5 3 
Q 35.359375 -1.21875 27.484375 -1.21875 
Q 17.140625 -1.21875 11.234375 6.203125 
Q 4.15625 15.140625 4.15625 35.296875 
z
M 13.1875 35.296875 
Q 13.1875 17.671875 17.3125 11.828125 
Q 21.4375 6 27.484375 6 
Q 33.546875 6 37.671875 11.859375 
Q 41.796875 17.71875 41.796875 35.296875 
Q 41.796875 52.984375 37.671875 58.78125 
Q 33.546875 64.59375 27.390625 64.59375 
Q 21.34375 64.59375 17.71875 59.46875 
Q 13.1875 52.9375 13.1875 35.296875 
z
" id="ArialMT-30"/>
      </defs>
      <g style="fill:#262626;" transform="translate(160.559062 190.117812)scale(0.1 -0.1)">
       <use xlink:href="#ArialMT-31"/>
       <use x="55.615234" xlink:href="#ArialMT-30"/>
      </g>
     </g>
    </g>
    <g id="xtick_6">
     <g id="line2d_6">
      <g>
       <use style="fill:#262626;stroke:#262626;stroke-width:0.8;" x="196.04" xlink:href="#m108eb2053f" y="175.96"/>
      </g>
     </g>
     <g id="text_6">
      <!-- 12 -->
      <g style="fill:#262626;" transform="translate(190.479062 190.117812)scale(0.1 -0.1)">
       <use xlink:href="#ArialMT-31"/>
       <use x="55.615234" xlink:href="#ArialMT-32"/>
      </g>
     </g>
    </g>
    <g id="text_7">
     <!-- pH -->
     <defs>
      <path d="M 6.59375 -19.875 
L 6.59375 51.859375 
L 14.59375 51.859375 
L 14.59375 45.125 
Q 17.4375 49.078125 21 51.046875 
Q 24.5625 53.03125 29.640625 53.03125 
Q 36.28125 53.03125 41.359375 49.609375 
Q 46.4375 46.1875 49.015625 39.953125 
Q 51.609375 33.734375 51.609375 26.3125 
Q 51.609375 18.359375 48.75 11.984375 
Q 45.90625 5.609375 40.453125 2.21875 
Q 35.015625 -1.171875 29 -1.171875 
Q 24.609375 -1.171875 21.109375 0.6875 
Q 17.625 2.546875 15.375 5.375 
L 15.375 -19.875 
z
M 14.546875 25.640625 
Q 14.546875 15.625 18.59375 10.84375 
Q 22.65625 6.0625 28.421875 6.0625 
Q 34.28125 6.0625 38.453125 11.015625 
Q 42.625 15.96875 42.625 26.375 
Q 42.625 36.28125 38.546875 41.203125 
Q 34.46875 46.140625 28.8125 46.140625 
Q 23.1875 46.140625 18.859375 40.890625 
Q 14.546875 35.640625 14.546875 25.640625 
z
" id="ArialMT-70"/>
      <path d="M 8.015625 0 
L 8.015625 71.578125 
L 17.484375 71.578125 
L 17.484375 42.1875 
L 54.6875 42.1875 
L 54.6875 71.578125 
L 64.15625 71.578125 
L 64.15625 0 
L 54.6875 0 
L 54.6875 33.734375 
L 17.484375 33.734375 
L 17.484375 0 
z
" id="ArialMT-48"/>
     </defs>
     <g style="fill:#262626;" transform="translate(114.848594 203.263125)scale(0.1 -0.1)">
      <use xlink:href="#ArialMT-70"/>
      <use x="55.615234" xlink:href="#ArialMT-48"/>
     </g>
    </g>
   </g>
   <g id="matplotlib.axis_2">
    <g id="ytick_1">
     <g id="line2d_7">
      <defs>
       <path d="M 0 0 
L -3.5 0 
" id="m2aec484539" style="stroke:#262626;stroke-width:0.8;"/>
      </defs>
      <g>
       <use style="fill:#262626;stroke:#262626;stroke-width:0.8;" x="38.96" xlink:href="#m2aec484539" y="120.047759"/>
      </g>
     </g>
     <g id="text_8">
      <!-- 0 -->
      <g style="fill:#262626;" transform="translate(26.399063 123.626665)scale(0.1 -0.1)">
       <use xlink:href="#ArialMT-30"/>
      </g>
     </g>
    </g>
    <g id="ytick_2">
     <g id="line2d_8">
      <g>
       <use style="fill:#262626;stroke:#262626;stroke-width:0.8;" x="38.96" xlink:href="#m2aec484539" y="44.011133"/>
      </g>
     </g>
     <g id="text_9">
      <!-- 1 -->
      <g style="fill:#262626;" transform="translate(26.399063 47.590039)scale(0.1 -0.1)">
       <use xlink:href="#ArialMT-31"/>
      </g>
     </g>
    </g>
    <g id="text_10">
     <!-- $\langle q_\mathsf{total} \rangle$ -->
     <defs>
      <path d="M 8.9375 31.34375 
L 22.703125 75.875 
L 31 75.875 
L 17.234375 31.34375 
L 31 -13.1875 
L 22.703125 -13.1875 
z
" id="DejaVuSans-27e8"/>
      <path d="M 41.703125 8.203125 
Q 38.09375 3.46875 33.171875 1.015625 
Q 28.265625 -1.421875 22.3125 -1.421875 
Q 14.015625 -1.421875 9.296875 4.171875 
Q 4.59375 9.765625 4.59375 19.578125 
Q 4.59375 27.484375 7.5 34.859375 
Q 10.40625 42.234375 15.828125 48.09375 
Q 19.34375 51.90625 23.90625 53.953125 
Q 28.46875 56 33.5 56 
Q 39.546875 56 43.453125 53.609375 
Q 47.359375 51.21875 49.125 46.390625 
L 50.6875 54.59375 
L 59.71875 54.59375 
L 45.125 -20.609375 
L 36.078125 -20.609375 
z
M 13.921875 20.90625 
Q 13.921875 13.671875 16.9375 9.890625 
Q 19.96875 6.109375 25.6875 6.109375 
Q 34.1875 6.109375 40.1875 14.234375 
Q 46.1875 22.359375 46.1875 33.984375 
Q 46.1875 41.015625 43.078125 44.75 
Q 39.984375 48.484375 34.1875 48.484375 
Q 29.9375 48.484375 26.3125 46.5 
Q 22.703125 44.53125 20.015625 40.71875 
Q 17.1875 36.71875 15.546875 31.34375 
Q 13.921875 25.984375 13.921875 20.90625 
z
" id="DejaVuSans-Oblique-71"/>
      <path d="M 18.3125 70.21875 
L 18.3125 54.6875 
L 36.8125 54.6875 
L 36.8125 47.703125 
L 18.3125 47.703125 
L 18.3125 18.015625 
Q 18.3125 11.328125 20.140625 9.421875 
Q 21.96875 7.515625 27.59375 7.515625 
L 36.8125 7.515625 
L 36.8125 0 
L 27.59375 0 
Q 17.1875 0 13.234375 3.875 
Q 9.28125 7.765625 9.28125 18.015625 
L 9.28125 47.703125 
L 2.6875 47.703125 
L 2.6875 54.6875 
L 9.28125 54.6875 
L 9.28125 70.21875 
z
" id="DejaVuSans-74"/>
      <path d="M 30.609375 48.390625 
Q 23.390625 48.390625 19.1875 42.75 
Q 14.984375 37.109375 14.984375 27.296875 
Q 14.984375 17.484375 19.15625 11.84375 
Q 23.34375 6.203125 30.609375 6.203125 
Q 37.796875 6.203125 41.984375 11.859375 
Q 46.1875 17.53125 46.1875 27.296875 
Q 46.1875 37.015625 41.984375 42.703125 
Q 37.796875 48.390625 30.609375 48.390625 
z
M 30.609375 56 
Q 42.328125 56 49.015625 48.375 
Q 55.71875 40.765625 55.71875 27.296875 
Q 55.71875 13.875 49.015625 6.21875 
Q 42.328125 -1.421875 30.609375 -1.421875 
Q 18.84375 -1.421875 12.171875 6.21875 
Q 5.515625 13.875 5.515625 27.296875 
Q 5.515625 40.765625 12.171875 48.375 
Q 18.84375 56 30.609375 56 
z
" id="DejaVuSans-6f"/>
      <path d="M 34.28125 27.484375 
Q 23.390625 27.484375 19.1875 25 
Q 14.984375 22.515625 14.984375 16.5 
Q 14.984375 11.71875 18.140625 8.90625 
Q 21.296875 6.109375 26.703125 6.109375 
Q 34.1875 6.109375 38.703125 11.40625 
Q 43.21875 16.703125 43.21875 25.484375 
L 43.21875 27.484375 
z
M 52.203125 31.203125 
L 52.203125 0 
L 43.21875 0 
L 43.21875 8.296875 
Q 40.140625 3.328125 35.546875 0.953125 
Q 30.953125 -1.421875 24.3125 -1.421875 
Q 15.921875 -1.421875 10.953125 3.296875 
Q 6 8.015625 6 15.921875 
Q 6 25.140625 12.171875 29.828125 
Q 18.359375 34.515625 30.609375 34.515625 
L 43.21875 34.515625 
L 43.21875 35.40625 
Q 43.21875 41.609375 39.140625 45 
Q 35.0625 48.390625 27.6875 48.390625 
Q 23 48.390625 18.546875 47.265625 
Q 14.109375 46.140625 10.015625 43.890625 
L 10.015625 52.203125 
Q 14.9375 54.109375 19.578125 55.046875 
Q 24.21875 56 28.609375 56 
Q 40.484375 56 46.34375 49.84375 
Q 52.203125 43.703125 52.203125 31.203125 
z
" id="DejaVuSans-61"/>
      <path d="M 9.421875 75.984375 
L 18.40625 75.984375 
L 18.40625 0 
L 9.421875 0 
z
" id="DejaVuSans-6c"/>
      <path d="M 30.078125 31.34375 
L 16.3125 -13.1875 
L 8.015625 -13.1875 
L 21.78125 31.34375 
L 8.015625 75.875 
L 16.3125 75.875 
z
" id="DejaVuSans-27e9"/>
     </defs>
     <g style="fill:#262626;" transform="translate(20.299063 115.95)rotate(-90)scale(0.1 -0.1)">
      <use transform="translate(0 0.125)" xlink:href="#DejaVuSans-27e8"/>
      <use transform="translate(39.013672 0.125)" xlink:href="#DejaVuSans-Oblique-71"/>
      <use transform="translate(102.490234 -16.28125)scale(0.7)" xlink:href="#DejaVuSans-74"/>
      <use transform="translate(129.936523 -16.28125)scale(0.7)" xlink:href="#DejaVuSans-6f"/>
      <use transform="translate(172.763672 -16.28125)scale(0.7)" xlink:href="#DejaVuSans-74"/>
      <use transform="translate(200.209961 -16.28125)scale(0.7)" xlink:href="#DejaVuSans-61"/>
      <use transform="translate(243.105469 -16.28125)scale(0.7)" xlink:href="#DejaVuSans-6c"/>
      <use transform="translate(265.288086 0.125)" xlink:href="#DejaVuSans-27e9"/>
     </g>
    </g>
   </g>
   <g id="PolyCollection_1">
    <defs>
     <path d="M 46.44 -172.693752 
L 46.44 -170.967151 
L 47.936 -170.719799 
L 49.432 -170.416329 
L 50.928 -170.045385 
L 52.424 -169.593698 
L 53.92 -169.045855 
L 55.416 -168.384089 
L 56.912 -167.588127 
L 58.408 -166.635181 
L 59.904 -165.500131 
L 61.4 -164.155959 
L 62.896 -162.574486 
L 64.392 -160.727393 
L 65.888 -158.587522 
L 67.384 -156.130378 
L 68.88 -153.335781 
L 70.376 -150.189558 
L 71.872 -146.685274 
L 73.368 -142.825981 
L 74.864 -138.626071 
L 76.36 -134.113281 
L 77.856 -129.33083 
L 79.352 -124.339467 
L 80.848 -119.218933 
L 82.344 -114.06801 
L 83.84 -109.002165 
L 85.336 -104.147959 
L 86.832 -99.634095 
L 88.328 -95.57998 
L 89.824 -92.083785 
L 91.32 -89.212464 
L 92.816 -86.995862 
L 94.312 -85.425963 
L 95.808 -84.460991 
L 97.304 -84.033015 
L 98.8 -84.057235 
L 100.296 -84.441271 
L 101.792 -85.093198 
L 103.288 -85.92767 
L 104.784 -86.869953 
L 106.28 -87.858027 
L 107.776 -88.843122 
L 109.272 -89.789114 
L 110.768 -90.671182 
L 112.264 -91.474076 
L 113.76 -92.19027 
L 115.256 -92.818168 
L 116.752 -93.360471 
L 118.248 -93.822786 
L 119.744 -94.212472 
L 121.24 -94.537728 
L 122.736 -94.806922 
L 124.232 -95.028116 
L 125.728 -95.208762 
L 127.224 -95.35554 
L 128.72 -95.474292 
L 130.216 -95.570033 
L 131.712 -95.646999 
L 133.208 -95.708727 
L 134.704 -95.75814 
L 136.2 -95.797632 
L 137.696 -95.829158 
L 139.192 -95.854297 
L 140.688 -95.874328 
L 142.184 -95.890279 
L 143.68 -95.902973 
L 145.176 -95.91307 
L 146.672 -95.921099 
L 148.168 -95.92748 
L 149.664 -95.932549 
L 151.16 -95.936573 
L 152.656 -95.939764 
L 154.152 -95.94229 
L 155.648 -95.944282 
L 157.144 -95.945841 
L 158.64 -95.947041 
L 160.136 -95.947927 
L 161.632 -95.948514 
L 163.128 -95.948786 
L 164.624 -95.948707 
L 166.12 -95.948254 
L 167.616 -95.947436 
L 169.112 -95.94626 
L 170.608 -95.944708 
L 172.104 -95.942725 
L 173.6 -95.940221 
L 175.096 -95.93707 
L 176.592 -95.933109 
L 178.088 -95.92813 
L 179.584 -95.921871 
L 181.08 -95.914003 
L 182.576 -95.904111 
L 184.072 -95.891675 
L 185.568 -95.876046 
L 187.064 -95.856409 
L 188.56 -95.831747 
L 190.056 -95.800791 
L 191.552 -95.761965 
L 193.048 -95.713309 
L 194.544 -95.652402 
L 196.04 -95.576264 
L 196.04 -96.21559 
L 196.04 -96.21559 
L 194.544 -96.162606 
L 193.048 -96.120098 
L 191.552 -96.08606 
L 190.056 -96.058848 
L 188.56 -96.037122 
L 187.064 -96.019794 
L 185.568 -96.005986 
L 184.072 -95.99499 
L 182.576 -95.98624 
L 181.08 -95.979281 
L 179.584 -95.97375 
L 178.088 -95.969356 
L 176.592 -95.96587 
L 175.096 -95.963108 
L 173.6 -95.960927 
L 172.104 -95.959215 
L 170.608 -95.95789 
L 169.112 -95.956895 
L 167.616 -95.956206 
L 166.12 -95.955829 
L 164.624 -95.955797 
L 163.128 -95.956139 
L 161.632 -95.956856 
L 160.136 -95.957936 
L 158.64 -95.959388 
L 157.144 -95.961258 
L 155.648 -95.963626 
L 154.152 -95.966609 
L 152.656 -95.970362 
L 151.16 -95.97508 
L 149.664 -95.981013 
L 148.168 -95.988474 
L 146.672 -95.997858 
L 145.176 -96.00966 
L 143.68 -96.024503 
L 142.184 -96.043165 
L 140.688 -96.066626 
L 139.192 -96.096109 
L 137.696 -96.133143 
L 136.2 -96.179638 
L 134.704 -96.237971 
L 133.208 -96.311095 
L 131.712 -96.402662 
L 130.216 -96.517177 
L 128.72 -96.660161 
L 127.224 -96.838347 
L 125.728 -97.059881 
L 124.232 -97.334534 
L 122.736 -97.67391 
L 121.24 -98.091626 
L 119.744 -98.603445 
L 118.248 -99.227346 
L 116.752 -99.983492 
L 115.256 -100.894083 
L 113.76 -101.983074 
L 112.264 -103.275743 
L 110.768 -104.798097 
L 109.272 -106.576106 
L 107.776 -108.634767 
L 106.28 -110.997002 
L 104.784 -113.682407 
L 103.288 -116.705869 
L 101.792 -120.076051 
L 100.296 -123.793737 
L 98.8 -127.849986 
L 97.304 -132.224038 
L 95.808 -136.880978 
L 94.312 -141.769299 
L 92.816 -146.818808 
L 91.32 -151.939618 
L 89.824 -157.023274 
L 88.328 -161.946968 
L 86.832 -166.581327 
L 85.336 -170.801261 
L 83.84 -174.498245 
L 82.344 -177.591641 
L 80.848 -180.036634 
L 79.352 -181.827201 
L 77.856 -182.993844 
L 76.36 -183.597046 
L 74.864 -183.718182 
L 73.368 -183.449738 
L 71.872 -182.886351 
L 70.376 -182.117613 
L 68.88 -181.223029 
L 67.384 -180.269102 
L 65.888 -179.308257 
L 64.392 -178.379204 
L 62.896 -177.508308 
L 61.4 -176.711532 
L 59.904 -175.996614 
L 58.408 -175.365199 
L 56.912 -174.81473 
L 55.416 -174.340008 
L 53.92 -173.934391 
L 52.424 -173.590637 
L 50.928 -173.301458 
L 49.432 -173.059848 
L 47.936 -172.859272 
L 46.44 -172.693752 
z
" id="m6e8981fd02" style="stroke:#ffffff;stroke-opacity:0.05;"/>
    </defs>
    <g clip-path="url(#p98f9b294c6)">
     <use style="fill:#591e71;fill-opacity:0.05;stroke:#ffffff;stroke-opacity:0.05;" x="0" xlink:href="#m6e8981fd02" y="216"/>
    </g>
   </g>
   <g id="line2d_9">
    <path clip-path="url(#p98f9b294c6)" d="M 46.44 44.169548 
L 47.936 44.210465 
L 49.432 44.261911 
L 50.928 44.326579 
L 52.424 44.407832 
L 53.92 44.509877 
L 55.416 44.637952 
L 56.912 44.798572 
L 58.408 44.99981 
L 59.904 45.251628 
L 61.4 45.566255 
L 62.896 45.958603 
L 64.392 46.446701 
L 65.888 47.052111 
L 67.384 47.80026 
L 68.88 48.720595 
L 70.376 49.846414 
L 71.872 51.214187 
L 73.368 52.86214 
L 74.864 54.827874 
L 76.36 57.144837 
L 77.856 59.837663 
L 79.352 62.916666 
L 80.848 66.372217 
L 82.344 70.170174 
L 83.84 74.249795 
L 85.336 78.52539 
L 86.832 82.892289 
L 88.328 87.236526 
L 89.824 91.446471 
L 91.32 95.423959 
L 92.816 99.092665 
L 94.312 102.402369 
L 95.808 105.329015 
L 97.304 107.871473 
L 98.8 110.04639 
L 100.296 111.882496 
L 101.792 113.415376 
L 103.288 114.68323 
L 104.784 115.72382 
L 106.28 116.572486 
L 107.776 117.261055 
L 109.272 117.81739 
L 110.768 118.265361 
L 112.264 118.625091 
L 113.76 118.913328 
L 115.256 119.143875 
L 116.752 119.328019 
L 118.248 119.474934 
L 119.744 119.592042 
L 121.24 119.685323 
L 122.736 119.759584 
L 124.232 119.818675 
L 125.728 119.865679 
L 127.224 119.903057 
L 128.72 119.932774 
L 130.216 119.956395 
L 131.712 119.975169 
L 133.208 119.990089 
L 134.704 120.001944 
L 136.2 120.011365 
L 137.696 120.01885 
L 139.192 120.024797 
L 140.688 120.029523 
L 142.184 120.033278 
L 143.68 120.036262 
L 145.176 120.038635 
L 146.672 120.040522 
L 148.168 120.042023 
L 149.664 120.043219 
L 151.16 120.044174 
L 152.656 120.044937 
L 154.152 120.045551 
L 155.648 120.046046 
L 157.144 120.046451 
L 158.64 120.046786 
L 160.136 120.047069 
L 161.632 120.047315 
L 163.128 120.047537 
L 164.624 120.047748 
L 166.12 120.047958 
L 167.616 120.048179 
L 169.112 120.048422 
L 170.608 120.048701 
L 172.104 120.04903 
L 173.6 120.049426 
L 175.096 120.049911 
L 176.592 120.050511 
L 178.088 120.051257 
L 179.584 120.05219 
L 181.08 120.053358 
L 182.576 120.054825 
L 184.072 120.056667 
L 185.568 120.058984 
L 187.064 120.061899 
L 188.56 120.065566 
L 190.056 120.07018 
L 191.552 120.075988 
L 193.048 120.083297 
L 194.544 120.092496 
L 196.04 120.104073 
" style="fill:none;opacity:0.9;stroke:#591e71;stroke-linecap:round;stroke-width:1.5;"/>
   </g>
   <g id="line2d_10">
    <path clip-path="url(#p98f9b294c6)" d="M 46.44 50.501562 
L 47.936 52.005412 
L 49.432 53.808619 
L 50.928 55.947213 
L 52.424 58.450856 
L 53.92 61.3377 
L 55.416 64.608697 
L 56.912 68.242345 
L 58.408 72.191177 
L 59.904 76.38143 
L 61.4 80.716862 
L 62.896 85.086744 
L 64.392 89.376802 
L 65.888 93.480914 
L 67.384 97.311089 
L 68.88 100.803872 
L 70.376 103.922426 
L 71.872 106.654784 
L 73.368 109.00946 
L 74.864 111.009878 
L 76.36 112.688814 
L 77.856 114.083624 
L 79.352 115.232599 
L 80.848 116.172469 
L 82.344 116.936899 
L 83.84 117.555747 
L 85.336 118.054852 
L 86.832 118.45616 
L 88.328 118.778043 
L 89.824 119.035716 
L 91.32 119.241663 
L 92.816 119.406062 
L 94.312 119.537162 
L 95.808 119.641627 
L 97.304 119.724815 
L 98.8 119.791027 
L 100.296 119.843708 
L 101.792 119.885612 
L 103.288 119.918936 
L 104.784 119.945436 
L 106.28 119.96651 
L 107.776 119.98327 
L 109.272 119.996606 
L 110.768 120.007223 
L 112.264 120.015685 
L 113.76 120.022441 
L 115.256 120.02785 
L 116.752 120.032199 
L 118.248 120.035721 
L 119.744 120.038602 
L 121.24 120.040996 
L 122.736 120.04303 
L 124.232 120.044811 
L 125.728 120.046436 
L 127.224 120.047991 
L 128.72 120.049558 
L 130.216 120.05122 
L 131.712 120.053067 
L 133.208 120.055197 
L 134.704 120.057722 
L 136.2 120.060778 
L 137.696 120.064527 
L 139.192 120.069168 
L 140.688 120.074948 
L 142.184 120.082174 
L 143.68 120.091231 
L 145.176 120.102598 
L 146.672 120.116879 
L 148.168 120.134831 
L 149.664 120.157404 
L 151.16 120.18579 
L 152.656 120.221486 
L 154.152 120.266369 
L 155.648 120.322792 
L 157.144 120.393699 
L 158.64 120.482775 
L 160.136 120.594613 
L 161.632 120.734938 
L 163.128 120.910853 
L 164.624 121.131152 
L 166.12 121.406662 
L 167.616 121.75064 
L 169.112 122.179202 
L 170.608 122.711754 
L 172.104 123.371381 
L 173.6 124.185127 
L 175.096 125.184033 
L 176.592 126.402794 
L 178.088 127.878806 
L 179.584 129.650391 
L 181.08 131.753969 
L 182.576 134.220057 
L 184.072 137.068209 
L 185.568 140.301353 
L 187.064 143.900429 
L 188.56 147.820643 
L 190.056 151.990764 
L 191.552 156.3165 
L 193.048 160.688115 
L 194.544 164.991153 
L 196.04 169.118182 
" style="fill:none;opacity:0.7;stroke:#000000;stroke-linecap:round;stroke-width:1.5;"/>
   </g>
   <g id="line2d_11">
    <path clip-path="url(#p98f9b294c6)" d="M 46.44 43.306248 
L 47.936 43.140728 
L 49.432 42.940152 
L 50.928 42.698542 
L 52.424 42.409363 
L 53.92 42.065609 
L 55.416 41.659992 
L 56.912 41.18527 
L 58.408 40.634801 
L 59.904 40.003386 
L 61.4 39.288468 
L 62.896 38.491692 
L 64.392 37.620796 
L 65.888 36.691743 
L 67.384 35.730898 
L 68.88 34.776971 
L 70.376 33.882387 
L 71.872 33.113649 
L 73.368 32.550262 
L 74.864 32.281818 
L 76.36 32.402954 
L 77.856 33.006156 
L 79.352 34.172799 
L 80.848 35.963366 
L 82.344 38.408359 
L 83.84 41.501755 
L 85.336 45.198739 
L 86.832 49.418673 
L 88.328 54.053032 
L 89.824 58.976726 
L 91.32 64.060382 
L 92.816 69.181192 
L 94.312 74.230701 
L 95.808 79.119022 
L 97.304 83.775962 
L 98.8 88.150014 
L 100.296 92.206263 
L 101.792 95.923949 
L 103.288 99.294131 
L 104.784 102.317593 
L 106.28 105.002998 
L 107.776 107.365233 
L 109.272 109.423894 
L 110.768 111.201903 
L 112.264 112.724257 
L 113.76 114.016926 
L 115.256 115.105917 
L 116.752 116.016508 
L 118.248 116.772654 
L 119.744 117.396555 
L 121.24 117.908374 
L 122.736 118.32609 
L 124.232 118.665466 
L 125.728 118.940119 
L 127.224 119.161653 
L 128.72 119.339839 
L 130.216 119.482823 
L 131.712 119.597338 
L 133.208 119.688905 
L 134.704 119.762029 
L 136.2 119.820362 
L 137.696 119.866857 
L 139.192 119.903891 
L 140.688 119.933374 
L 142.184 119.956835 
L 143.68 119.975497 
L 145.176 119.99034 
L 146.672 120.002142 
L 148.168 120.011526 
L 149.664 120.018987 
L 151.16 120.02492 
L 152.656 120.029638 
L 154.152 120.033391 
L 155.648 120.036374 
L 157.144 120.038742 
L 158.64 120.040612 
L 160.136 120.042064 
L 161.632 120.043144 
L 163.128 120.043861 
L 164.624 120.044203 
L 166.12 120.044171 
L 167.616 120.043794 
L 169.112 120.043105 
L 170.608 120.04211 
L 172.104 120.040785 
L 173.6 120.039073 
L 175.096 120.036892 
L 176.592 120.03413 
L 178.088 120.030644 
L 179.584 120.02625 
L 181.08 120.020719 
L 182.576 120.01376 
L 184.072 120.00501 
L 185.568 119.994014 
L 187.064 119.980206 
L 188.56 119.962878 
L 190.056 119.941152 
L 191.552 119.91394 
L 193.048 119.879902 
L 194.544 119.837394 
L 196.04 119.78441 
" style="fill:none;opacity:0.45;stroke:#591e71;stroke-dasharray:2.775,1.2;stroke-dashoffset:0;stroke-width:0.75;"/>
   </g>
   <g id="line2d_12">
    <path clip-path="url(#p98f9b294c6)" d="M 46.44 45.032849 
L 47.936 45.280201 
L 49.432 45.583671 
L 50.928 45.954615 
L 52.424 46.406302 
L 53.92 46.954145 
L 55.416 47.615911 
L 56.912 48.411873 
L 58.408 49.364819 
L 59.904 50.499869 
L 61.4 51.844041 
L 62.896 53.425514 
L 64.392 55.272607 
L 65.888 57.412478 
L 67.384 59.869622 
L 68.88 62.664219 
L 70.376 65.810442 
L 71.872 69.314726 
L 73.368 73.174019 
L 74.864 77.373929 
L 76.36 81.886719 
L 77.856 86.66917 
L 79.352 91.660533 
L 80.848 96.781067 
L 82.344 101.93199 
L 83.84 106.997835 
L 85.336 111.852041 
L 86.832 116.365905 
L 88.328 120.42002 
L 89.824 123.916215 
L 91.32 126.787536 
L 92.816 129.004138 
L 94.312 130.574037 
L 95.808 131.539009 
L 97.304 131.966985 
L 98.8 131.942765 
L 100.296 131.558729 
L 101.792 130.906802 
L 103.288 130.07233 
L 104.784 129.130047 
L 106.28 128.141973 
L 107.776 127.156878 
L 109.272 126.210886 
L 110.768 125.328818 
L 112.264 124.525924 
L 113.76 123.80973 
L 115.256 123.181832 
L 116.752 122.639529 
L 118.248 122.177214 
L 119.744 121.787528 
L 121.24 121.462272 
L 122.736 121.193078 
L 124.232 120.971884 
L 125.728 120.791238 
L 127.224 120.64446 
L 128.72 120.525708 
L 130.216 120.429967 
L 131.712 120.353001 
L 133.208 120.291273 
L 134.704 120.24186 
L 136.2 120.202368 
L 137.696 120.170842 
L 139.192 120.145703 
L 140.688 120.125672 
L 142.184 120.109721 
L 143.68 120.097027 
L 145.176 120.08693 
L 146.672 120.078901 
L 148.168 120.07252 
L 149.664 120.067451 
L 151.16 120.063427 
L 152.656 120.060236 
L 154.152 120.05771 
L 155.648 120.055718 
L 157.144 120.054159 
L 158.64 120.052959 
L 160.136 120.052073 
L 161.632 120.051486 
L 163.128 120.051214 
L 164.624 120.051293 
L 166.12 120.051746 
L 167.616 120.052564 
L 169.112 120.05374 
L 170.608 120.055292 
L 172.104 120.057275 
L 173.6 120.059779 
L 175.096 120.06293 
L 176.592 120.066891 
L 178.088 120.07187 
L 179.584 120.078129 
L 181.08 120.085997 
L 182.576 120.095889 
L 184.072 120.108325 
L 185.568 120.123954 
L 187.064 120.143591 
L 188.56 120.168253 
L 190.056 120.199209 
L 191.552 120.238035 
L 193.048 120.286691 
L 194.544 120.347598 
L 196.04 120.423736 
" style="fill:none;opacity:0.45;stroke:#591e71;stroke-dasharray:2.775,1.2;stroke-dashoffset:0;stroke-width:0.75;"/>
   </g>
   <g id="patch_3">
    <path d="M 38.96 175.96 
L 38.96 25.44 
" style="fill:none;stroke:#262626;stroke-linecap:square;stroke-linejoin:miter;stroke-width:0.8;"/>
   </g>
   <g id="patch_4">
    <path d="M 38.96 175.96 
L 203.52 175.96 
" style="fill:none;stroke:#262626;stroke-linecap:square;stroke-linejoin:miter;stroke-width:0.8;"/>
   </g>
   <g id="text_11">
    <!-- Jaguar-macro SM06 -->
    <defs>
     <path d="M 2.875 20.3125 
L 11.421875 21.484375 
Q 11.765625 13.28125 14.5 10.25 
Q 17.234375 7.234375 22.078125 7.234375 
Q 25.640625 7.234375 28.21875 8.859375 
Q 30.8125 10.5 31.78125 13.296875 
Q 32.765625 16.109375 32.765625 22.265625 
L 32.765625 71.578125 
L 42.234375 71.578125 
L 42.234375 22.796875 
Q 42.234375 13.8125 40.0625 8.875 
Q 37.890625 3.953125 33.171875 1.359375 
Q 28.46875 -1.21875 22.125 -1.21875 
Q 12.703125 -1.21875 7.6875 4.203125 
Q 2.6875 9.625 2.875 20.3125 
z
" id="ArialMT-4a"/>
     <path d="M 40.4375 6.390625 
Q 35.546875 2.25 31.03125 0.53125 
Q 26.515625 -1.171875 21.34375 -1.171875 
Q 12.796875 -1.171875 8.203125 3 
Q 3.609375 7.171875 3.609375 13.671875 
Q 3.609375 17.484375 5.34375 20.625 
Q 7.078125 23.78125 9.890625 25.6875 
Q 12.703125 27.59375 16.21875 28.5625 
Q 18.796875 29.25 24.03125 29.890625 
Q 34.671875 31.15625 39.703125 32.90625 
Q 39.75 34.71875 39.75 35.203125 
Q 39.75 40.578125 37.25 42.78125 
Q 33.890625 45.75 27.25 45.75 
Q 21.046875 45.75 18.09375 43.578125 
Q 15.140625 41.40625 13.71875 35.890625 
L 5.125 37.0625 
Q 6.296875 42.578125 8.984375 45.96875 
Q 11.671875 49.359375 16.75 51.1875 
Q 21.828125 53.03125 28.515625 53.03125 
Q 35.15625 53.03125 39.296875 51.46875 
Q 43.453125 49.90625 45.40625 47.53125 
Q 47.359375 45.171875 48.140625 41.546875 
Q 48.578125 39.3125 48.578125 33.453125 
L 48.578125 21.734375 
Q 48.578125 9.46875 49.140625 6.21875 
Q 49.703125 2.984375 51.375 0 
L 42.1875 0 
Q 40.828125 2.734375 40.4375 6.390625 
z
M 39.703125 26.03125 
Q 34.90625 24.078125 25.34375 22.703125 
Q 19.921875 21.921875 17.671875 20.9375 
Q 15.4375 19.96875 14.203125 18.09375 
Q 12.984375 16.21875 12.984375 13.921875 
Q 12.984375 10.40625 15.640625 8.0625 
Q 18.3125 5.71875 23.4375 5.71875 
Q 28.515625 5.71875 32.46875 7.9375 
Q 36.421875 10.15625 38.28125 14.015625 
Q 39.703125 17 39.703125 22.796875 
z
" id="ArialMT-61"/>
     <path d="M 4.984375 -4.296875 
L 13.53125 -5.5625 
Q 14.0625 -9.515625 16.5 -11.328125 
Q 19.78125 -13.765625 25.4375 -13.765625 
Q 31.546875 -13.765625 34.859375 -11.328125 
Q 38.1875 -8.890625 39.359375 -4.5 
Q 40.046875 -1.8125 39.984375 6.78125 
Q 34.234375 0 25.640625 0 
Q 14.9375 0 9.078125 7.71875 
Q 3.21875 15.4375 3.21875 26.21875 
Q 3.21875 33.640625 5.90625 39.90625 
Q 8.59375 46.1875 13.6875 49.609375 
Q 18.796875 53.03125 25.6875 53.03125 
Q 34.859375 53.03125 40.828125 45.609375 
L 40.828125 51.859375 
L 48.921875 51.859375 
L 48.921875 7.03125 
Q 48.921875 -5.078125 46.453125 -10.125 
Q 44 -15.1875 38.640625 -18.109375 
Q 33.296875 -21.046875 25.484375 -21.046875 
Q 16.21875 -21.046875 10.5 -16.875 
Q 4.78125 -12.703125 4.984375 -4.296875 
z
M 12.25 26.859375 
Q 12.25 16.65625 16.296875 11.96875 
Q 20.359375 7.28125 26.46875 7.28125 
Q 32.515625 7.28125 36.609375 11.9375 
Q 40.71875 16.609375 40.71875 26.5625 
Q 40.71875 36.078125 36.5 40.90625 
Q 32.28125 45.75 26.3125 45.75 
Q 20.453125 45.75 16.34375 40.984375 
Q 12.25 36.234375 12.25 26.859375 
z
" id="ArialMT-67"/>
     <path d="M 40.578125 0 
L 40.578125 7.625 
Q 34.515625 -1.171875 24.125 -1.171875 
Q 19.53125 -1.171875 15.546875 0.578125 
Q 11.578125 2.34375 9.640625 5 
Q 7.71875 7.671875 6.9375 11.53125 
Q 6.390625 14.109375 6.390625 19.734375 
L 6.390625 51.859375 
L 15.1875 51.859375 
L 15.1875 23.09375 
Q 15.1875 16.21875 15.71875 13.8125 
Q 16.546875 10.359375 19.234375 8.375 
Q 21.921875 6.390625 25.875 6.390625 
Q 29.828125 6.390625 33.296875 8.421875 
Q 36.765625 10.453125 38.203125 13.9375 
Q 39.65625 17.4375 39.65625 24.078125 
L 39.65625 51.859375 
L 48.4375 51.859375 
L 48.4375 0 
z
" id="ArialMT-75"/>
     <path d="M 6.5 0 
L 6.5 51.859375 
L 14.40625 51.859375 
L 14.40625 44 
Q 17.4375 49.515625 20 51.265625 
Q 22.5625 53.03125 25.640625 53.03125 
Q 30.078125 53.03125 34.671875 50.203125 
L 31.640625 42.046875 
Q 28.421875 43.953125 25.203125 43.953125 
Q 22.3125 43.953125 20.015625 42.21875 
Q 17.71875 40.484375 16.75 37.40625 
Q 15.28125 32.71875 15.28125 27.15625 
L 15.28125 0 
z
" id="ArialMT-72"/>
     <path d="M 3.171875 21.484375 
L 3.171875 30.328125 
L 30.171875 30.328125 
L 30.171875 21.484375 
z
" id="ArialMT-2d"/>
     <path d="M 6.59375 0 
L 6.59375 51.859375 
L 14.453125 51.859375 
L 14.453125 44.578125 
Q 16.890625 48.390625 20.9375 50.703125 
Q 25 53.03125 30.171875 53.03125 
Q 35.9375 53.03125 39.625 50.640625 
Q 43.3125 48.25 44.828125 43.953125 
Q 50.984375 53.03125 60.84375 53.03125 
Q 68.5625 53.03125 72.703125 48.75 
Q 76.859375 44.484375 76.859375 35.59375 
L 76.859375 0 
L 68.109375 0 
L 68.109375 32.671875 
Q 68.109375 37.9375 67.25 40.25 
Q 66.40625 42.578125 64.15625 43.984375 
Q 61.921875 45.40625 58.890625 45.40625 
Q 53.421875 45.40625 49.796875 41.765625 
Q 46.1875 38.140625 46.1875 30.125 
L 46.1875 0 
L 37.40625 0 
L 37.40625 33.6875 
Q 37.40625 39.546875 35.25 42.46875 
Q 33.109375 45.40625 28.21875 45.40625 
Q 24.515625 45.40625 21.359375 43.453125 
Q 18.21875 41.5 16.796875 37.734375 
Q 15.375 33.984375 15.375 26.90625 
L 15.375 0 
z
" id="ArialMT-6d"/>
     <path d="M 40.4375 19 
L 49.078125 17.875 
Q 47.65625 8.9375 41.8125 3.875 
Q 35.984375 -1.171875 27.484375 -1.171875 
Q 16.84375 -1.171875 10.375 5.78125 
Q 3.90625 12.75 3.90625 25.734375 
Q 3.90625 34.125 6.6875 40.421875 
Q 9.46875 46.734375 15.15625 49.875 
Q 20.84375 53.03125 27.546875 53.03125 
Q 35.984375 53.03125 41.359375 48.75 
Q 46.734375 44.484375 48.25 36.625 
L 39.703125 35.296875 
Q 38.484375 40.53125 35.375 43.15625 
Q 32.28125 45.796875 27.875 45.796875 
Q 21.234375 45.796875 17.078125 41.03125 
Q 12.9375 36.28125 12.9375 25.984375 
Q 12.9375 15.53125 16.9375 10.796875 
Q 20.953125 6.0625 27.390625 6.0625 
Q 32.5625 6.0625 36.03125 9.234375 
Q 39.5 12.40625 40.4375 19 
z
" id="ArialMT-63"/>
     <path d="M 3.328125 25.921875 
Q 3.328125 40.328125 11.328125 47.265625 
Q 18.015625 53.03125 27.640625 53.03125 
Q 38.328125 53.03125 45.109375 46.015625 
Q 51.90625 39.015625 51.90625 26.65625 
Q 51.90625 16.65625 48.90625 10.90625 
Q 45.90625 5.171875 40.15625 2 
Q 34.421875 -1.171875 27.640625 -1.171875 
Q 16.75 -1.171875 10.03125 5.8125 
Q 3.328125 12.796875 3.328125 25.921875 
z
M 12.359375 25.921875 
Q 12.359375 15.96875 16.703125 11.015625 
Q 21.046875 6.0625 27.640625 6.0625 
Q 34.1875 6.0625 38.53125 11.03125 
Q 42.875 16.015625 42.875 26.21875 
Q 42.875 35.84375 38.5 40.796875 
Q 34.125 45.75 27.640625 45.75 
Q 21.046875 45.75 16.703125 40.8125 
Q 12.359375 35.890625 12.359375 25.921875 
z
" id="ArialMT-6f"/>
     <path id="ArialMT-20"/>
     <path d="M 4.5 23 
L 13.421875 23.78125 
Q 14.0625 18.40625 16.375 14.96875 
Q 18.703125 11.53125 23.578125 9.40625 
Q 28.46875 7.28125 34.578125 7.28125 
Q 39.984375 7.28125 44.140625 8.890625 
Q 48.296875 10.5 50.3125 13.296875 
Q 52.34375 16.109375 52.34375 19.4375 
Q 52.34375 22.796875 50.390625 25.3125 
Q 48.4375 27.828125 43.953125 29.546875 
Q 41.0625 30.671875 31.203125 33.03125 
Q 21.34375 35.40625 17.390625 37.5 
Q 12.25 40.1875 9.734375 44.15625 
Q 7.234375 48.140625 7.234375 53.078125 
Q 7.234375 58.5 10.296875 63.203125 
Q 13.375 67.921875 19.28125 70.359375 
Q 25.203125 72.796875 32.421875 72.796875 
Q 40.375 72.796875 46.453125 70.234375 
Q 52.546875 67.671875 55.8125 62.6875 
Q 59.078125 57.71875 59.328125 51.421875 
L 50.25 50.734375 
Q 49.515625 57.515625 45.28125 60.984375 
Q 41.0625 64.453125 32.8125 64.453125 
Q 24.21875 64.453125 20.28125 61.296875 
Q 16.359375 58.15625 16.359375 53.71875 
Q 16.359375 49.859375 19.140625 47.359375 
Q 21.875 44.875 33.421875 42.265625 
Q 44.96875 39.65625 49.265625 37.703125 
Q 55.515625 34.8125 58.484375 30.390625 
Q 61.46875 25.984375 61.46875 20.21875 
Q 61.46875 14.5 58.203125 9.4375 
Q 54.9375 4.390625 48.796875 1.578125 
Q 42.671875 -1.21875 35.015625 -1.21875 
Q 25.296875 -1.21875 18.71875 1.609375 
Q 12.15625 4.4375 8.421875 10.125 
Q 4.6875 15.828125 4.5 23 
z
" id="ArialMT-53"/>
     <path d="M 7.421875 0 
L 7.421875 71.578125 
L 21.6875 71.578125 
L 38.625 20.90625 
Q 40.96875 13.8125 42.046875 10.296875 
Q 43.265625 14.203125 45.84375 21.78125 
L 62.984375 71.578125 
L 75.734375 71.578125 
L 75.734375 0 
L 66.609375 0 
L 66.609375 59.90625 
L 45.796875 0 
L 37.25 0 
L 16.546875 60.9375 
L 16.546875 0 
z
" id="ArialMT-4d"/>
    </defs>
    <g style="fill:#262626;" transform="translate(66.889375 19.44)scale(0.12 -0.12)">
     <use xlink:href="#ArialMT-4a"/>
     <use x="50" xlink:href="#ArialMT-61"/>
     <use x="105.615234" xlink:href="#ArialMT-67"/>
     <use x="161.230469" xlink:href="#ArialMT-75"/>
     <use x="216.845703" xlink:href="#ArialMT-61"/>
     <use x="272.460938" xlink:href="#ArialMT-72"/>
     <use x="305.761719" xlink:href="#ArialMT-2d"/>
     <use x="339.0625" xlink:href="#ArialMT-6d"/>
     <use x="422.363281" xlink:href="#ArialMT-61"/>
     <use x="477.978516" xlink:href="#ArialMT-63"/>
     <use x="527.978516" xlink:href="#ArialMT-72"/>
     <use x="561.279297" xlink:href="#ArialMT-6f"/>
     <use x="616.894531" xlink:href="#ArialMT-20"/>
     <use x="644.677734" xlink:href="#ArialMT-53"/>
     <use x="711.376953" xlink:href="#ArialMT-4d"/>
     <use x="794.677734" xlink:href="#ArialMT-30"/>
     <use x="850.292969" xlink:href="#ArialMT-36"/>
    </g>
   </g>
  </g>
 </g>
 <defs>
  <clipPath id="p98f9b294c6">
   <rect height="150.52" width="164.56" x="38.96" y="25.44"/>
  </clipPath>
 </defs>
</svg>
