<?xml version="1.0" encoding="utf-8" standalone="no"?>
<!DOCTYPE svg PUBLIC "-//W3C//DTD SVG 1.1//EN"
  "http://www.w3.org/Graphics/SVG/1.1/DTD/svg11.dtd">
<!-- Created with matplotlib (http://matplotlib.org/) -->
<svg height="144pt" version="1.1" viewBox="0 0 144 144" width="144pt" xmlns="http://www.w3.org/2000/svg" xmlns:xlink="http://www.w3.org/1999/xlink">
 <defs>
  <style type="text/css">
*{stroke-linecap:butt;stroke-linejoin:round;}
  </style>
 </defs>
 <g id="figure_1">
  <g id="patch_1">
   <path d="M 0 144 
L 144 144 
L 144 0 
L 0 0 
z
" style="fill:#ffffff;"/>
  </g>
  <g id="axes_1">
   <g id="patch_2">
    <path d="M 47.6 101.92 
L 130.44 101.92 
L 130.44 13.56 
L 47.6 13.56 
z
" style="fill:#ffffff;"/>
   </g>
   <g id="matplotlib.axis_1">
    <g id="xtick_1">
     <g id="line2d_1">
      <defs>
       <path d="M 0 0 
L 0 3.5 
" id="m923ed83e6d" style="stroke:#262626;stroke-width:0.8;"/>
      </defs>
      <g>
       <use style="fill:#262626;stroke:#262626;stroke-width:0.8;" x="51.365455" xlink:href="#m923ed83e6d" y="101.92"/>
      </g>
     </g>
     <g id="text_1">
      <!-- 2 -->
      <defs>
       <path d="M 50.34375 8.453125 
L 50.34375 0 
L 3.03125 0 
Q 2.9375 3.171875 4.046875 6.109375 
Q 5.859375 10.9375 9.828125 15.625 
Q 13.8125 20.3125 21.34375 26.46875 
Q 33.015625 36.03125 37.109375 41.625 
Q 41.21875 47.21875 41.21875 52.203125 
Q 41.21875 57.421875 37.46875 61 
Q 33.734375 64.59375 27.734375 64.59375 
Q 21.390625 64.59375 17.578125 60.78125 
Q 13.765625 56.984375 13.71875 50.25 
L 4.6875 51.171875 
Q 5.609375 61.28125 11.65625 66.578125 
Q 17.71875 71.875 27.9375 71.875 
Q 38.234375 71.875 44.234375 66.15625 
Q 50.25 60.453125 50.25 52 
Q 50.25 47.703125 48.484375 43.546875 
Q 46.734375 39.40625 42.65625 34.8125 
Q 38.578125 30.21875 29.109375 22.21875 
Q 21.1875 15.578125 18.9375 13.203125 
Q 16.703125 10.84375 15.234375 8.453125 
z
" id="ArialMT-32"/>
      </defs>
      <g style="fill:#262626;" transform="translate(48.306939 116.793594)scale(0.11 -0.11)">
       <use xlink:href="#ArialMT-32"/>
      </g>
     </g>
    </g>
    <g id="xtick_2">
     <g id="line2d_2">
      <g>
       <use style="fill:#262626;stroke:#262626;stroke-width:0.8;" x="66.427273" xlink:href="#m923ed83e6d" y="101.92"/>
      </g>
     </g>
     <g id="text_2">
      <!-- 4 -->
      <defs>
       <path d="M 32.328125 0 
L 32.328125 17.140625 
L 1.265625 17.140625 
L 1.265625 25.203125 
L 33.9375 71.578125 
L 41.109375 71.578125 
L 41.109375 25.203125 
L 50.78125 25.203125 
L 50.78125 17.140625 
L 41.109375 17.140625 
L 41.109375 0 
z
M 32.328125 25.203125 
L 32.328125 57.46875 
L 9.90625 25.203125 
z
" id="ArialMT-34"/>
      </defs>
      <g style="fill:#262626;" transform="translate(63.368757 116.793594)scale(0.11 -0.11)">
       <use xlink:href="#ArialMT-34"/>
      </g>
     </g>
    </g>
    <g id="xtick_3">
     <g id="line2d_3">
      <g>
       <use style="fill:#262626;stroke:#262626;stroke-width:0.8;" x="81.489091" xlink:href="#m923ed83e6d" y="101.92"/>
      </g>
     </g>
     <g id="text_3">
      <!-- 6 -->
      <defs>
       <path d="M 49.75 54.046875 
L 41.015625 53.375 
Q 39.84375 58.546875 37.703125 60.890625 
Q 34.125 64.65625 28.90625 64.65625 
Q 24.703125 64.65625 21.53125 62.3125 
Q 17.390625 59.28125 14.984375 53.46875 
Q 12.59375 47.65625 12.5 36.921875 
Q 15.671875 41.75 20.265625 44.09375 
Q 24.859375 46.4375 29.890625 46.4375 
Q 38.671875 46.4375 44.84375 39.96875 
Q 51.03125 33.5 51.03125 23.25 
Q 51.03125 16.5 48.125 10.71875 
Q 45.21875 4.9375 40.140625 1.859375 
Q 35.0625 -1.21875 28.609375 -1.21875 
Q 17.625 -1.21875 10.6875 6.859375 
Q 3.765625 14.9375 3.765625 33.5 
Q 3.765625 54.25 11.421875 63.671875 
Q 18.109375 71.875 29.4375 71.875 
Q 37.890625 71.875 43.28125 67.140625 
Q 48.6875 62.40625 49.75 54.046875 
z
M 13.875 23.1875 
Q 13.875 18.65625 15.796875 14.5 
Q 17.71875 10.359375 21.1875 8.171875 
Q 24.65625 6 28.46875 6 
Q 34.03125 6 38.03125 10.484375 
Q 42.046875 14.984375 42.046875 22.703125 
Q 42.046875 30.125 38.078125 34.390625 
Q 34.125 38.671875 28.125 38.671875 
Q 22.171875 38.671875 18.015625 34.390625 
Q 13.875 30.125 13.875 23.1875 
z
" id="ArialMT-36"/>
      </defs>
      <g style="fill:#262626;" transform="translate(78.430575 116.793594)scale(0.11 -0.11)">
       <use xlink:href="#ArialMT-36"/>
      </g>
     </g>
    </g>
    <g id="xtick_4">
     <g id="line2d_4">
      <g>
       <use style="fill:#262626;stroke:#262626;stroke-width:0.8;" x="96.550909" xlink:href="#m923ed83e6d" y="101.92"/>
      </g>
     </g>
     <g id="text_4">
      <!-- 8 -->
      <defs>
       <path d="M 17.671875 38.8125 
Q 12.203125 40.828125 9.5625 44.53125 
Q 6.9375 48.25 6.9375 53.421875 
Q 6.9375 61.234375 12.546875 66.546875 
Q 18.171875 71.875 27.484375 71.875 
Q 36.859375 71.875 42.578125 66.421875 
Q 48.296875 60.984375 48.296875 53.171875 
Q 48.296875 48.1875 45.671875 44.5 
Q 43.0625 40.828125 37.75 38.8125 
Q 44.34375 36.671875 47.78125 31.875 
Q 51.21875 27.09375 51.21875 20.453125 
Q 51.21875 11.28125 44.71875 5.03125 
Q 38.234375 -1.21875 27.640625 -1.21875 
Q 17.046875 -1.21875 10.546875 5.046875 
Q 4.046875 11.328125 4.046875 20.703125 
Q 4.046875 27.6875 7.59375 32.390625 
Q 11.140625 37.109375 17.671875 38.8125 
z
M 15.921875 53.71875 
Q 15.921875 48.640625 19.1875 45.40625 
Q 22.46875 42.1875 27.6875 42.1875 
Q 32.765625 42.1875 36.015625 45.375 
Q 39.265625 48.578125 39.265625 53.21875 
Q 39.265625 58.0625 35.90625 61.359375 
Q 32.5625 64.65625 27.59375 64.65625 
Q 22.5625 64.65625 19.234375 61.421875 
Q 15.921875 58.203125 15.921875 53.71875 
z
M 13.09375 20.65625 
Q 13.09375 16.890625 14.875 13.375 
Q 16.65625 9.859375 20.171875 7.921875 
Q 23.6875 6 27.734375 6 
Q 34.03125 6 38.125 10.046875 
Q 42.234375 14.109375 42.234375 20.359375 
Q 42.234375 26.703125 38.015625 30.859375 
Q 33.796875 35.015625 27.4375 35.015625 
Q 21.234375 35.015625 17.15625 30.90625 
Q 13.09375 26.8125 13.09375 20.65625 
z
" id="ArialMT-38"/>
      </defs>
      <g style="fill:#262626;" transform="translate(93.492393 116.793594)scale(0.11 -0.11)">
       <use xlink:href="#ArialMT-38"/>
      </g>
     </g>
    </g>
    <g id="xtick_5">
     <g id="line2d_5">
      <g>
       <use style="fill:#262626;stroke:#262626;stroke-width:0.8;" x="111.612727" xlink:href="#m923ed83e6d" y="101.92"/>
      </g>
     </g>
     <g id="text_5">
      <!-- 10 -->
      <defs>
       <path d="M 37.25 0 
L 28.46875 0 
L 28.46875 56 
Q 25.296875 52.984375 20.140625 49.953125 
Q 14.984375 46.921875 10.890625 45.40625 
L 10.890625 53.90625 
Q 18.265625 57.375 23.78125 62.296875 
Q 29.296875 67.234375 31.59375 71.875 
L 37.25 71.875 
z
" id="ArialMT-31"/>
       <path d="M 4.15625 35.296875 
Q 4.15625 48 6.765625 55.734375 
Q 9.375 63.484375 14.515625 67.671875 
Q 19.671875 71.875 27.484375 71.875 
Q 33.25 71.875 37.59375 69.546875 
Q 41.9375 67.234375 44.765625 62.859375 
Q 47.609375 58.5 49.21875 52.21875 
Q 50.828125 45.953125 50.828125 35.296875 
Q 50.828125 22.703125 48.234375 14.96875 
Q 45.65625 7.234375 40.5 3 
Q 35.359375 -1.21875 27.484375 -1.21875 
Q 17.140625 -1.21875 11.234375 6.203125 
Q 4.15625 15.140625 4.15625 35.296875 
z
M 13.1875 35.296875 
Q 13.1875 17.671875 17.3125 11.828125 
Q 21.4375 6 27.484375 6 
Q 33.546875 6 37.671875 11.859375 
Q 41.796875 17.71875 41.796875 35.296875 
Q 41.796875 52.984375 37.671875 58.78125 
Q 33.546875 64.59375 27.390625 64.59375 
Q 21.34375 64.59375 17.71875 59.46875 
Q 13.1875 52.9375 13.1875 35.296875 
z
" id="ArialMT-30"/>
      </defs>
      <g style="fill:#262626;" transform="translate(105.495696 116.793594)scale(0.11 -0.11)">
       <use xlink:href="#ArialMT-31"/>
       <use x="55.615234" xlink:href="#ArialMT-30"/>
      </g>
     </g>
    </g>
    <g id="xtick_6">
     <g id="line2d_6">
      <g>
       <use style="fill:#262626;stroke:#262626;stroke-width:0.8;" x="126.674545" xlink:href="#m923ed83e6d" y="101.92"/>
      </g>
     </g>
     <g id="text_6">
      <!-- 12 -->
      <g style="fill:#262626;" transform="translate(120.557514 116.793594)scale(0.11 -0.11)">
       <use xlink:href="#ArialMT-31"/>
       <use x="55.615234" xlink:href="#ArialMT-32"/>
      </g>
     </g>
    </g>
    <g id="text_7">
     <!-- pH -->
     <defs>
      <path d="M 6.59375 -19.875 
L 6.59375 51.859375 
L 14.59375 51.859375 
L 14.59375 45.125 
Q 17.4375 49.078125 21 51.046875 
Q 24.5625 53.03125 29.640625 53.03125 
Q 36.28125 53.03125 41.359375 49.609375 
Q 46.4375 46.1875 49.015625 39.953125 
Q 51.609375 33.734375 51.609375 26.3125 
Q 51.609375 18.359375 48.75 11.984375 
Q 45.90625 5.609375 40.453125 2.21875 
Q 35.015625 -1.171875 29 -1.171875 
Q 24.609375 -1.171875 21.109375 0.6875 
Q 17.625 2.546875 15.375 5.375 
L 15.375 -19.875 
z
M 14.546875 25.640625 
Q 14.546875 15.625 18.59375 10.84375 
Q 22.65625 6.0625 28.421875 6.0625 
Q 34.28125 6.0625 38.453125 11.015625 
Q 42.625 15.96875 42.625 26.375 
Q 42.625 36.28125 38.546875 41.203125 
Q 34.46875 46.140625 28.8125 46.140625 
Q 23.1875 46.140625 18.859375 40.890625 
Q 14.546875 35.640625 14.546875 25.640625 
z
" id="ArialMT-70"/>
      <path d="M 8.015625 0 
L 8.015625 71.578125 
L 17.484375 71.578125 
L 17.484375 42.1875 
L 54.6875 42.1875 
L 54.6875 71.578125 
L 64.15625 71.578125 
L 64.15625 0 
L 54.6875 0 
L 54.6875 33.734375 
L 17.484375 33.734375 
L 17.484375 0 
z
" id="ArialMT-48"/>
     </defs>
     <g style="fill:#262626;" transform="translate(81.989453 130.853437)scale(0.11 -0.11)">
      <use xlink:href="#ArialMT-70"/>
      <use x="55.615234" xlink:href="#ArialMT-48"/>
     </g>
    </g>
   </g>
   <g id="matplotlib.axis_2">
    <g id="ytick_1">
     <g id="line2d_7">
      <defs>
       <path d="M 0 0 
L -3.5 0 
" id="mdd5787b674" style="stroke:#262626;stroke-width:0.8;"/>
      </defs>
      <g>
       <use style="fill:#262626;stroke:#262626;stroke-width:0.8;" x="47.6" xlink:href="#mdd5787b674" y="89.140273"/>
      </g>
     </g>
     <g id="text_8">
      <!-- 0 -->
      <g style="fill:#262626;" transform="translate(34.482969 93.07707)scale(0.11 -0.11)">
       <use xlink:href="#ArialMT-30"/>
      </g>
     </g>
    </g>
    <g id="ytick_2">
     <g id="line2d_8">
      <g>
       <use style="fill:#262626;stroke:#262626;stroke-width:0.8;" x="47.6" xlink:href="#mdd5787b674" y="64.614665"/>
      </g>
     </g>
     <g id="text_9">
      <!-- 20 -->
      <g style="fill:#262626;" transform="translate(28.365938 68.551462)scale(0.11 -0.11)">
       <use xlink:href="#ArialMT-32"/>
       <use x="55.615234" xlink:href="#ArialMT-30"/>
      </g>
     </g>
    </g>
    <g id="ytick_3">
     <g id="line2d_9">
      <g>
       <use style="fill:#262626;stroke:#262626;stroke-width:0.8;" x="47.6" xlink:href="#mdd5787b674" y="40.089058"/>
      </g>
     </g>
     <g id="text_10">
      <!-- 40 -->
      <g style="fill:#262626;" transform="translate(28.365938 44.025855)scale(0.11 -0.11)">
       <use xlink:href="#ArialMT-34"/>
       <use x="55.615234" xlink:href="#ArialMT-30"/>
      </g>
     </g>
    </g>
    <g id="ytick_4">
     <g id="line2d_10">
      <g>
       <use style="fill:#262626;stroke:#262626;stroke-width:0.8;" x="47.6" xlink:href="#mdd5787b674" y="15.563451"/>
      </g>
     </g>
     <g id="text_11">
      <!-- 60 -->
      <g style="fill:#262626;" transform="translate(28.365938 19.500248)scale(0.11 -0.11)">
       <use xlink:href="#ArialMT-36"/>
       <use x="55.615234" xlink:href="#ArialMT-30"/>
      </g>
     </g>
    </g>
    <g id="text_12">
     <!-- Free energy ($k_B T$) -->
     <defs>
      <path d="M 8.203125 0 
L 8.203125 71.578125 
L 56.5 71.578125 
L 56.5 63.140625 
L 17.671875 63.140625 
L 17.671875 40.96875 
L 51.265625 40.96875 
L 51.265625 32.515625 
L 17.671875 32.515625 
L 17.671875 0 
z
" id="ArialMT-46"/>
      <path d="M 6.5 0 
L 6.5 51.859375 
L 14.40625 51.859375 
L 14.40625 44 
Q 17.4375 49.515625 20 51.265625 
Q 22.5625 53.03125 25.640625 53.03125 
Q 30.078125 53.03125 34.671875 50.203125 
L 31.640625 42.046875 
Q 28.421875 43.953125 25.203125 43.953125 
Q 22.3125 43.953125 20.015625 42.21875 
Q 17.71875 40.484375 16.75 37.40625 
Q 15.28125 32.71875 15.28125 27.15625 
L 15.28125 0 
z
" id="ArialMT-72"/>
      <path d="M 42.09375 16.703125 
L 51.171875 15.578125 
Q 49.03125 7.625 43.21875 3.21875 
Q 37.40625 -1.171875 28.375 -1.171875 
Q 17 -1.171875 10.328125 5.828125 
Q 3.65625 12.84375 3.65625 25.484375 
Q 3.65625 38.578125 10.390625 45.796875 
Q 17.140625 53.03125 27.875 53.03125 
Q 38.28125 53.03125 44.875 45.953125 
Q 51.46875 38.875 51.46875 26.03125 
Q 51.46875 25.25 51.421875 23.6875 
L 12.75 23.6875 
Q 13.234375 15.140625 17.578125 10.59375 
Q 21.921875 6.0625 28.421875 6.0625 
Q 33.25 6.0625 36.671875 8.59375 
Q 40.09375 11.140625 42.09375 16.703125 
z
M 13.234375 30.90625 
L 42.1875 30.90625 
Q 41.609375 37.453125 38.875 40.71875 
Q 34.671875 45.796875 27.984375 45.796875 
Q 21.921875 45.796875 17.796875 41.75 
Q 13.671875 37.703125 13.234375 30.90625 
z
" id="ArialMT-65"/>
      <path id="ArialMT-20"/>
      <path d="M 6.59375 0 
L 6.59375 51.859375 
L 14.5 51.859375 
L 14.5 44.484375 
Q 20.21875 53.03125 31 53.03125 
Q 35.6875 53.03125 39.625 51.34375 
Q 43.5625 49.65625 45.515625 46.921875 
Q 47.46875 44.1875 48.25 40.4375 
Q 48.734375 37.984375 48.734375 31.890625 
L 48.734375 0 
L 39.9375 0 
L 39.9375 31.546875 
Q 39.9375 36.921875 38.90625 39.578125 
Q 37.890625 42.234375 35.28125 43.8125 
Q 32.671875 45.40625 29.15625 45.40625 
Q 23.53125 45.40625 19.453125 41.84375 
Q 15.375 38.28125 15.375 28.328125 
L 15.375 0 
z
" id="ArialMT-6e"/>
      <path d="M 4.984375 -4.296875 
L 13.53125 -5.5625 
Q 14.0625 -9.515625 16.5 -11.328125 
Q 19.78125 -13.765625 25.4375 -13.765625 
Q 31.546875 -13.765625 34.859375 -11.328125 
Q 38.1875 -8.890625 39.359375 -4.5 
Q 40.046875 -1.8125 39.984375 6.78125 
Q 34.234375 0 25.640625 0 
Q 14.9375 0 9.078125 7.71875 
Q 3.21875 15.4375 3.21875 26.21875 
Q 3.21875 33.640625 5.90625 39.90625 
Q 8.59375 46.1875 13.6875 49.609375 
Q 18.796875 53.03125 25.6875 53.03125 
Q 34.859375 53.03125 40.828125 45.609375 
L 40.828125 51.859375 
L 48.921875 51.859375 
L 48.921875 7.03125 
Q 48.921875 -5.078125 46.453125 -10.125 
Q 44 -15.1875 38.640625 -18.109375 
Q 33.296875 -21.046875 25.484375 -21.046875 
Q 16.21875 -21.046875 10.5 -16.875 
Q 4.78125 -12.703125 4.984375 -4.296875 
z
M 12.25 26.859375 
Q 12.25 16.65625 16.296875 11.96875 
Q 20.359375 7.28125 26.46875 7.28125 
Q 32.515625 7.28125 36.609375 11.9375 
Q 40.71875 16.609375 40.71875 26.5625 
Q 40.71875 36.078125 36.5 40.90625 
Q 32.28125 45.75 26.3125 45.75 
Q 20.453125 45.75 16.34375 40.984375 
Q 12.25 36.234375 12.25 26.859375 
z
" id="ArialMT-67"/>
      <path d="M 6.203125 -19.96875 
L 5.21875 -11.71875 
Q 8.109375 -12.5 10.25 -12.5 
Q 13.1875 -12.5 14.9375 -11.515625 
Q 16.703125 -10.546875 17.828125 -8.796875 
Q 18.65625 -7.46875 20.515625 -2.25 
Q 20.75 -1.515625 21.296875 -0.09375 
L 1.609375 51.859375 
L 11.078125 51.859375 
L 21.875 21.828125 
Q 23.96875 16.109375 25.640625 9.8125 
Q 27.15625 15.875 29.25 21.625 
L 40.328125 51.859375 
L 49.125 51.859375 
L 29.390625 -0.875 
Q 26.21875 -9.421875 24.46875 -12.640625 
Q 22.125 -17 19.09375 -19.015625 
Q 16.0625 -21.046875 11.859375 -21.046875 
Q 9.328125 -21.046875 6.203125 -19.96875 
z
" id="ArialMT-79"/>
      <path d="M 23.390625 -21.046875 
Q 16.109375 -11.859375 11.078125 0.4375 
Q 6.0625 12.75 6.0625 25.921875 
Q 6.0625 37.546875 9.8125 48.1875 
Q 14.203125 60.546875 23.390625 72.796875 
L 29.6875 72.796875 
Q 23.78125 62.640625 21.875 58.296875 
Q 18.890625 51.5625 17.1875 44.234375 
Q 15.09375 35.109375 15.09375 25.875 
Q 15.09375 2.390625 29.6875 -21.046875 
z
" id="ArialMT-28"/>
      <path d="M 18.3125 75.984375 
L 27.296875 75.984375 
L 18.703125 31.6875 
L 49.515625 54.6875 
L 61.1875 54.6875 
L 26.8125 28.515625 
L 51.90625 0 
L 41.015625 0 
L 17.671875 26.703125 
L 12.5 0 
L 3.515625 0 
z
" id="DejaVuSans-Oblique-6b"/>
      <path d="M 16.890625 72.90625 
L 42.09375 72.90625 
Q 52.34375 72.90625 57.421875 69.09375 
Q 62.5 65.28125 62.5 57.625 
Q 62.5 50.59375 58.125 45.484375 
Q 53.765625 40.375 46.6875 39.3125 
Q 52.734375 37.9375 55.765625 34.078125 
Q 58.796875 30.21875 58.796875 23.78125 
Q 58.796875 12.796875 50.65625 6.390625 
Q 42.53125 0 28.421875 0 
L 2.6875 0 
z
M 19.28125 34.8125 
L 14.109375 8.109375 
L 29.984375 8.109375 
Q 38.921875 8.109375 43.75 12.203125 
Q 48.578125 16.3125 48.578125 23.78125 
Q 48.578125 29.546875 45.375 32.171875 
Q 42.1875 34.8125 35.109375 34.8125 
z
M 25.09375 64.796875 
L 20.796875 42.828125 
L 35.5 42.828125 
Q 43.359375 42.828125 47.78125 46.234375 
Q 52.203125 49.65625 52.203125 55.71875 
Q 52.203125 60.453125 49.21875 62.625 
Q 46.234375 64.796875 39.703125 64.796875 
z
" id="DejaVuSans-Oblique-42"/>
      <path d="M 5.90625 72.90625 
L 67.578125 72.90625 
L 66.015625 64.59375 
L 39.984375 64.59375 
L 27.484375 0 
L 17.578125 0 
L 30.078125 64.59375 
L 4.296875 64.59375 
z
" id="DejaVuSans-Oblique-54"/>
      <path d="M 12.359375 -21.046875 
L 6.0625 -21.046875 
Q 20.65625 2.390625 20.65625 25.875 
Q 20.65625 35.0625 18.5625 44.09375 
Q 16.890625 51.421875 13.921875 58.15625 
Q 12.015625 62.546875 6.0625 72.796875 
L 12.359375 72.796875 
Q 21.53125 60.546875 25.921875 48.1875 
Q 29.6875 37.546875 29.6875 25.921875 
Q 29.6875 12.75 24.625 0.4375 
Q 19.578125 -11.859375 12.359375 -21.046875 
z
" id="ArialMT-29"/>
     </defs>
     <g style="fill:#262626;" transform="translate(21.945938 101.96)rotate(-90)scale(0.11 -0.11)">
      <use transform="translate(0 0.015625)" xlink:href="#ArialMT-46"/>
      <use transform="translate(61.083984 0.015625)" xlink:href="#ArialMT-72"/>
      <use transform="translate(94.384766 0.015625)" xlink:href="#ArialMT-65"/>
      <use transform="translate(150 0.015625)" xlink:href="#ArialMT-65"/>
      <use transform="translate(205.615234 0.015625)" xlink:href="#ArialMT-20"/>
      <use transform="translate(233.398438 0.015625)" xlink:href="#ArialMT-65"/>
      <use transform="translate(289.013672 0.015625)" xlink:href="#ArialMT-6e"/>
      <use transform="translate(344.628906 0.015625)" xlink:href="#ArialMT-65"/>
      <use transform="translate(400.244141 0.015625)" xlink:href="#ArialMT-72"/>
      <use transform="translate(433.544922 0.015625)" xlink:href="#ArialMT-67"/>
      <use transform="translate(489.160156 0.015625)" xlink:href="#ArialMT-79"/>
      <use transform="translate(539.160156 0.015625)" xlink:href="#ArialMT-20"/>
      <use transform="translate(566.943359 0.015625)" xlink:href="#ArialMT-28"/>
      <use transform="translate(600.244141 0.015625)" xlink:href="#DejaVuSans-Oblique-6b"/>
      <use transform="translate(658.154297 -16.390625)scale(0.7)" xlink:href="#DejaVuSans-Oblique-42"/>
      <use transform="translate(708.911133 0.015625)" xlink:href="#DejaVuSans-Oblique-54"/>
      <use transform="translate(769.995117 0.015625)" xlink:href="#ArialMT-29"/>
     </g>
    </g>
   </g>
   <g id="patch_3">
    <path d="M 47.6 101.92 
L 47.6 13.56 
" style="fill:none;stroke:#262626;stroke-linecap:square;stroke-linejoin:miter;stroke-width:0.8;"/>
   </g>
   <g id="patch_4">
    <path d="M 47.6 101.92 
L 130.44 101.92 
" style="fill:none;stroke:#262626;stroke-linecap:square;stroke-linejoin:miter;stroke-width:0.8;"/>
   </g>
   <g id="line2d_11">
    <path clip-path="url(#p3061cbf1d0)" d="M 51.365455 40.211544 
L 52.118545 40.776267 
L 52.871636 41.34099 
L 53.624727 41.905713 
L 54.377818 42.470436 
L 55.130909 43.035159 
L 55.884 43.599882 
L 56.637091 44.164604 
L 57.390182 44.729327 
L 58.143273 45.29405 
L 58.896364 45.858773 
L 59.649455 46.423496 
L 60.402545 46.988219 
L 61.155636 47.552942 
L 61.908727 48.117665 
L 62.661818 48.682388 
L 63.414909 49.247111 
L 64.168 49.811834 
L 64.921091 50.376557 
L 65.674182 50.94128 
L 66.427273 51.506003 
L 67.180364 52.070726 
L 67.933455 52.635449 
L 68.686545 53.200172 
L 69.439636 53.764895 
L 70.192727 54.329618 
L 70.945818 54.894341 
L 71.698909 55.459064 
L 72.452 56.023787 
L 73.205091 56.58851 
L 73.958182 57.153233 
L 74.711273 57.717956 
L 75.464364 58.282679 
L 76.217455 58.847402 
L 76.970545 59.412125 
L 77.723636 59.976848 
L 78.476727 60.541571 
L 79.229818 61.106294 
L 79.982909 61.671017 
L 80.736 62.23574 
L 81.489091 62.800463 
L 82.242182 63.365186 
L 82.995273 63.929909 
L 83.748364 64.494632 
L 84.501455 65.059355 
L 85.254545 65.624078 
L 86.007636 66.188801 
L 86.760727 66.753524 
L 87.513818 67.318246 
L 88.266909 67.882969 
L 89.02 68.447692 
L 89.773091 69.012415 
L 90.526182 69.577138 
L 91.279273 70.141861 
L 92.032364 70.706584 
L 92.785455 71.271307 
L 93.538545 71.83603 
L 94.291636 72.400753 
L 95.044727 72.965476 
L 95.797818 73.530199 
L 96.550909 74.094922 
L 97.304 74.659645 
L 98.057091 75.224368 
L 98.810182 75.789091 
L 99.563273 76.353814 
L 100.316364 76.918537 
L 101.069455 77.48326 
L 101.822545 78.047983 
L 102.575636 78.612706 
L 103.328727 79.177429 
L 104.081818 79.742152 
L 104.834909 80.306875 
L 105.588 80.871598 
L 106.341091 81.436321 
L 107.094182 82.001044 
L 107.847273 82.565767 
L 108.600364 83.13049 
L 109.353455 83.695213 
L 110.106545 84.259936 
L 110.859636 84.824659 
L 111.612727 85.389382 
L 112.365818 85.954105 
L 113.118909 86.518828 
L 113.872 87.083551 
L 114.625091 87.648274 
L 115.378182 88.212997 
L 116.131273 88.77772 
L 116.884364 89.342443 
L 117.637455 89.907165 
L 118.390545 90.471888 
L 119.143636 91.036611 
L 119.896727 91.601334 
L 120.649818 92.166057 
L 121.402909 92.73078 
L 122.156 93.295503 
L 122.909091 93.860226 
L 123.662182 94.424949 
L 124.415273 94.989672 
L 125.168364 95.554395 
L 125.921455 96.119118 
L 126.674545 96.683841 
" style="fill:none;stroke:#d6604d;stroke-linecap:round;stroke-width:1.5;"/>
   </g>
   <g id="line2d_12">
    <path clip-path="url(#p3061cbf1d0)" d="M 51.365455 74.056011 
L 52.118545 73.491288 
L 52.871636 72.926565 
L 53.624727 72.361842 
L 54.377818 71.797119 
L 55.130909 71.232396 
L 55.884 70.667673 
L 56.637091 70.10295 
L 57.390182 69.538227 
L 58.143273 68.973504 
L 58.896364 68.408781 
L 59.649455 67.844058 
L 60.402545 67.279335 
L 61.155636 66.714612 
L 61.908727 66.149889 
L 62.661818 65.585166 
L 63.414909 65.020443 
L 64.168 64.455721 
L 64.921091 63.890998 
L 65.674182 63.326275 
L 66.427273 62.761552 
L 67.180364 62.196829 
L 67.933455 61.632106 
L 68.686545 61.067383 
L 69.439636 60.50266 
L 70.192727 59.937937 
L 70.945818 59.373214 
L 71.698909 58.808491 
L 72.452 58.243768 
L 73.205091 57.679045 
L 73.958182 57.114322 
L 74.711273 56.549599 
L 75.464364 55.984876 
L 76.217455 55.420153 
L 76.970545 54.85543 
L 77.723636 54.290707 
L 78.476727 53.725984 
L 79.229818 53.161261 
L 79.982909 52.596538 
L 80.736 52.031815 
L 81.489091 51.467092 
L 82.242182 50.902369 
L 82.995273 50.337646 
L 83.748364 49.772923 
L 84.501455 49.2082 
L 85.254545 48.643477 
L 86.007636 48.078754 
L 86.760727 47.514031 
L 87.513818 46.949308 
L 88.266909 46.384585 
L 89.02 45.819862 
L 89.773091 45.255139 
L 90.526182 44.690416 
L 91.279273 44.125693 
L 92.032364 43.56097 
L 92.785455 42.996247 
L 93.538545 42.431524 
L 94.291636 41.866801 
L 95.044727 41.302079 
L 95.797818 40.737356 
L 96.550909 40.172633 
L 97.304 39.60791 
L 98.057091 39.043187 
L 98.810182 38.478464 
L 99.563273 37.913741 
L 100.316364 37.349018 
L 101.069455 36.784295 
L 101.822545 36.219572 
L 102.575636 35.654849 
L 103.328727 35.090126 
L 104.081818 34.525403 
L 104.834909 33.96068 
L 105.588 33.395957 
L 106.341091 32.831234 
L 107.094182 32.266511 
L 107.847273 31.701788 
L 108.600364 31.137065 
L 109.353455 30.572342 
L 110.106545 30.007619 
L 110.859636 29.442896 
L 111.612727 28.878173 
L 112.365818 28.313451 
L 113.118909 27.748727 
L 113.872 27.184006 
L 114.625091 26.619283 
L 115.378182 26.054551 
L 116.131273 25.489845 
L 116.884364 24.92512 
L 117.637455 24.360409 
L 118.390545 23.795653 
L 119.143636 23.230954 
L 119.896727 22.666166 
L 120.649818 22.101547 
L 121.402909 21.536846 
L 122.156 20.971853 
L 122.909091 20.407127 
L 123.662182 19.842365 
L 124.415273 19.276947 
L 125.168364 18.711239 
L 125.921455 18.147969 
L 126.674545 17.576364 
" style="fill:none;stroke:#4393c3;stroke-linecap:round;stroke-width:1.5;"/>
   </g>
   <g id="line2d_13">
    <path clip-path="url(#p3061cbf1d0)" d="M 51.365455 69.667488 
L 52.118545 69.949849 
L 52.871636 70.232211 
L 53.624727 70.514572 
L 54.377818 70.796934 
L 55.130909 71.079295 
L 55.884 71.361657 
L 56.637091 71.644018 
L 57.390182 71.926379 
L 58.143273 72.208741 
L 58.896364 72.491102 
L 59.649455 72.773464 
L 60.402545 73.055825 
L 61.155636 73.338187 
L 61.908727 73.620548 
L 62.661818 73.90291 
L 63.414909 74.185271 
L 64.168 74.467633 
L 64.921091 74.749994 
L 65.674182 75.032356 
L 66.427273 75.314717 
L 67.180364 75.597079 
L 67.933455 75.87944 
L 68.686545 76.161802 
L 69.439636 76.444163 
L 70.192727 76.726525 
L 70.945818 77.008886 
L 71.698909 77.291248 
L 72.452 77.573609 
L 73.205091 77.855971 
L 73.958182 78.138332 
L 74.711273 78.420694 
L 75.464364 78.703055 
L 76.217455 78.985417 
L 76.970545 79.267778 
L 77.723636 79.55014 
L 78.476727 79.832501 
L 79.229818 80.114863 
L 79.982909 80.397224 
L 80.736 80.679586 
L 81.489091 80.961947 
L 82.242182 81.244309 
L 82.995273 81.52667 
L 83.748364 81.809032 
L 84.501455 82.091393 
L 85.254545 82.373755 
L 86.007636 82.656116 
L 86.760727 82.938478 
L 87.513818 83.220839 
L 88.266909 83.5032 
L 89.02 83.785562 
L 89.773091 84.067923 
L 90.526182 84.350285 
L 91.279273 84.632646 
L 92.032364 84.915008 
L 92.785455 85.197369 
L 93.538545 85.479731 
L 94.291636 85.762092 
L 95.044727 86.044454 
L 95.797818 86.326815 
L 96.550909 86.609177 
L 97.304 86.891538 
L 98.057091 87.1739 
L 98.810182 87.456261 
L 99.563273 87.738623 
L 100.316364 88.020984 
L 101.069455 88.303346 
L 101.822545 88.585707 
L 102.575636 88.868069 
L 103.328727 89.15043 
L 104.081818 89.432792 
L 104.834909 89.715153 
L 105.588 89.997515 
L 106.341091 90.279876 
L 107.094182 90.562238 
L 107.847273 90.844599 
L 108.600364 91.126961 
L 109.353455 91.409322 
L 110.106545 91.691684 
L 110.859636 91.974045 
L 111.612727 92.256407 
L 112.365818 92.538768 
L 113.118909 92.82113 
L 113.872 93.103491 
L 114.625091 93.385853 
L 115.378182 93.668214 
L 116.131273 93.950576 
L 116.884364 94.232937 
L 117.637455 94.515299 
L 118.390545 94.79766 
L 119.143636 95.080021 
L 119.896727 95.362383 
L 120.649818 95.644744 
L 121.402909 95.927106 
L 122.156 96.209467 
L 122.909091 96.491829 
L 123.662182 96.77419 
L 124.415273 97.056552 
L 125.168364 97.338913 
L 125.921455 97.621275 
L 126.674545 97.903636 
" style="fill:none;stroke:#f4a582;stroke-linecap:round;stroke-width:1.5;"/>
   </g>
   <g id="line2d_14">
    <path clip-path="url(#p3061cbf1d0)" d="M 51.365455 87.139999 
L 52.118545 86.857637 
L 52.871636 86.575276 
L 53.624727 86.292914 
L 54.377818 86.010553 
L 55.130909 85.728191 
L 55.884 85.44583 
L 56.637091 85.163468 
L 57.390182 84.881107 
L 58.143273 84.598745 
L 58.896364 84.316384 
L 59.649455 84.034022 
L 60.402545 83.751661 
L 61.155636 83.469299 
L 61.908727 83.186938 
L 62.661818 82.904576 
L 63.414909 82.622215 
L 64.168 82.339853 
L 64.921091 82.057492 
L 65.674182 81.77513 
L 66.427273 81.492769 
L 67.180364 81.210407 
L 67.933455 80.928046 
L 68.686545 80.645684 
L 69.439636 80.363323 
L 70.192727 80.080961 
L 70.945818 79.7986 
L 71.698909 79.516238 
L 72.452 79.233877 
L 73.205091 78.951515 
L 73.958182 78.669154 
L 74.711273 78.386792 
L 75.464364 78.104431 
L 76.217455 77.822069 
L 76.970545 77.539708 
L 77.723636 77.257346 
L 78.476727 76.974985 
L 79.229818 76.692623 
L 79.982909 76.410262 
L 80.736 76.1279 
L 81.489091 75.845539 
L 82.242182 75.563178 
L 82.995273 75.280816 
L 83.748364 74.998455 
L 84.501455 74.716093 
L 85.254545 74.433732 
L 86.007636 74.15137 
L 86.760727 73.869009 
L 87.513818 73.586647 
L 88.266909 73.304286 
L 89.02 73.021924 
L 89.773091 72.739563 
L 90.526182 72.457201 
L 91.279273 72.17484 
L 92.032364 71.892478 
L 92.785455 71.610117 
L 93.538545 71.327755 
L 94.291636 71.045394 
L 95.044727 70.763032 
L 95.797818 70.480671 
L 96.550909 70.198309 
L 97.304 69.915948 
L 98.057091 69.633586 
L 98.810182 69.351225 
L 99.563273 69.068863 
L 100.316364 68.786502 
L 101.069455 68.50414 
L 101.822545 68.221779 
L 102.575636 67.939417 
L 103.328727 67.657056 
L 104.081818 67.374694 
L 104.834909 67.092333 
L 105.588 66.809971 
L 106.341091 66.52761 
L 107.094182 66.245248 
L 107.847273 65.962887 
L 108.600364 65.680526 
L 109.353455 65.398164 
L 110.106545 65.115802 
L 110.859636 64.833441 
L 111.612727 64.551079 
L 112.365818 64.268719 
L 113.118909 63.986357 
L 113.872 63.703997 
L 114.625091 63.421635 
L 115.378182 63.139265 
L 116.131273 62.856921 
L 116.884364 62.574557 
L 117.637455 62.292208 
L 118.390545 62.009812 
L 119.143636 61.727475 
L 119.896727 61.445048 
L 120.649818 61.162792 
L 121.402909 60.880451 
L 122.156 60.59782 
L 122.909091 60.315456 
L 123.662182 60.033055 
L 124.415273 59.749999 
L 125.168364 59.466652 
L 125.921455 59.185744 
L 126.674545 58.8965 
" style="fill:none;stroke:#92c5de;stroke-linecap:round;stroke-width:1.5;"/>
   </g>
   <g id="line2d_15">
    <path clip-path="url(#p3061cbf1d0)" d="M 51.365455 89.140273 
L 52.118545 89.140273 
L 52.871636 89.140273 
L 53.624727 89.140273 
L 54.377818 89.140273 
L 55.130909 89.140273 
L 55.884 89.140273 
L 56.637091 89.140273 
L 57.390182 89.140273 
L 58.143273 89.140273 
L 58.896364 89.140273 
L 59.649455 89.140273 
L 60.402545 89.140273 
L 61.155636 89.140273 
L 61.908727 89.140273 
L 62.661818 89.140273 
L 63.414909 89.140273 
L 64.168 89.140273 
L 64.921091 89.140273 
L 65.674182 89.140273 
L 66.427273 89.140273 
L 67.180364 89.140273 
L 67.933455 89.140273 
L 68.686545 89.140273 
L 69.439636 89.140273 
L 70.192727 89.140273 
L 70.945818 89.140273 
L 71.698909 89.140273 
L 72.452 89.140273 
L 73.205091 89.140273 
L 73.958182 89.140273 
L 74.711273 89.140273 
L 75.464364 89.140273 
L 76.217455 89.140273 
L 76.970545 89.140273 
L 77.723636 89.140273 
L 78.476727 89.140273 
L 79.229818 89.140273 
L 79.982909 89.140273 
L 80.736 89.140273 
L 81.489091 89.140273 
L 82.242182 89.140273 
L 82.995273 89.140273 
L 83.748364 89.140273 
L 84.501455 89.140273 
L 85.254545 89.140273 
L 86.007636 89.140273 
L 86.760727 89.140273 
L 87.513818 89.140273 
L 88.266909 89.140273 
L 89.02 89.140273 
L 89.773091 89.140273 
L 90.526182 89.140273 
L 91.279273 89.140273 
L 92.032364 89.140273 
L 92.785455 89.140273 
L 93.538545 89.140273 
L 94.291636 89.140273 
L 95.044727 89.140273 
L 95.797818 89.140273 
L 96.550909 89.140273 
L 97.304 89.140273 
L 98.057091 89.140273 
L 98.810182 89.140273 
L 99.563273 89.140273 
L 100.316364 89.140273 
L 101.069455 89.140273 
L 101.822545 89.140273 
L 102.575636 89.140273 
L 103.328727 89.140273 
L 104.081818 89.140273 
L 104.834909 89.140273 
L 105.588 89.140273 
L 106.341091 89.140273 
L 107.094182 89.140273 
L 107.847273 89.140273 
L 108.600364 89.140273 
L 109.353455 89.140273 
L 110.106545 89.140273 
L 110.859636 89.140273 
L 111.612727 89.140273 
L 112.365818 89.140273 
L 113.118909 89.140273 
L 113.872 89.140273 
L 114.625091 89.140273 
L 115.378182 89.140273 
L 116.131273 89.140273 
L 116.884364 89.140273 
L 117.637455 89.140273 
L 118.390545 89.140273 
L 119.143636 89.140273 
L 119.896727 89.140273 
L 120.649818 89.140273 
L 121.402909 89.140273 
L 122.156 89.140273 
L 122.909091 89.140273 
L 123.662182 89.140273 
L 124.415273 89.140273 
L 125.168364 89.140273 
L 125.921455 89.140273 
L 126.674545 89.140273 
" style="fill:none;stroke:#333333;stroke-linecap:round;stroke-width:1.5;"/>
   </g>
  </g>
 </g>
 <defs>
  <clipPath id="p3061cbf1d0">
   <rect height="88.36" width="82.84" x="47.6" y="13.56"/>
  </clipPath>
 </defs>
</svg>
