<?xml version="1.0" encoding="utf-8" standalone="no"?>
<!DOCTYPE svg PUBLIC "-//W3C//DTD SVG 1.1//EN"
  "http://www.w3.org/Graphics/SVG/1.1/DTD/svg11.dtd">
<!-- Created with matplotlib (http://matplotlib.org/) -->
<svg height="144pt" version="1.1" viewBox="0 0 144 144" width="144pt" xmlns="http://www.w3.org/2000/svg" xmlns:xlink="http://www.w3.org/1999/xlink">
 <defs>
  <style type="text/css">
*{stroke-linecap:butt;stroke-linejoin:round;}
  </style>
 </defs>
 <g id="figure_1">
  <g id="patch_1">
   <path d="M 0 144 
L 144 144 
L 144 0 
L 0 0 
z
" style="fill:#ffffff;"/>
  </g>
  <g id="axes_1">
   <g id="patch_2">
    <path d="M 53.72 101.92 
L 130.44 101.92 
L 130.44 13.56 
L 53.72 13.56 
z
" style="fill:#ffffff;"/>
   </g>
   <g id="matplotlib.axis_1">
    <g id="xtick_1">
     <g id="line2d_1">
      <defs>
       <path d="M 0 0 
L 0 3.5 
" id="m88bbe805e2" style="stroke:#262626;stroke-width:0.8;"/>
      </defs>
      <g>
       <use style="fill:#262626;stroke:#262626;stroke-width:0.8;" x="57.207273" xlink:href="#m88bbe805e2" y="101.92"/>
      </g>
     </g>
     <g id="text_1">
      <!-- 2 -->
      <defs>
       <path d="M 50.34375 8.453125 
L 50.34375 0 
L 3.03125 0 
Q 2.9375 3.171875 4.046875 6.109375 
Q 5.859375 10.9375 9.828125 15.625 
Q 13.8125 20.3125 21.34375 26.46875 
Q 33.015625 36.03125 37.109375 41.625 
Q 41.21875 47.21875 41.21875 52.203125 
Q 41.21875 57.421875 37.46875 61 
Q 33.734375 64.59375 27.734375 64.59375 
Q 21.390625 64.59375 17.578125 60.78125 
Q 13.765625 56.984375 13.71875 50.25 
L 4.6875 51.171875 
Q 5.609375 61.28125 11.65625 66.578125 
Q 17.71875 71.875 27.9375 71.875 
Q 38.234375 71.875 44.234375 66.15625 
Q 50.25 60.453125 50.25 52 
Q 50.25 47.703125 48.484375 43.546875 
Q 46.734375 39.40625 42.65625 34.8125 
Q 38.578125 30.21875 29.109375 22.21875 
Q 21.1875 15.578125 18.9375 13.203125 
Q 16.703125 10.84375 15.234375 8.453125 
z
" id="ArialMT-32"/>
      </defs>
      <g style="fill:#262626;" transform="translate(54.148757 116.793594)scale(0.11 -0.11)">
       <use xlink:href="#ArialMT-32"/>
      </g>
     </g>
    </g>
    <g id="xtick_2">
     <g id="line2d_2">
      <g>
       <use style="fill:#262626;stroke:#262626;stroke-width:0.8;" x="71.156364" xlink:href="#m88bbe805e2" y="101.92"/>
      </g>
     </g>
     <g id="text_2">
      <!-- 4 -->
      <defs>
       <path d="M 32.328125 0 
L 32.328125 17.140625 
L 1.265625 17.140625 
L 1.265625 25.203125 
L 33.9375 71.578125 
L 41.109375 71.578125 
L 41.109375 25.203125 
L 50.78125 25.203125 
L 50.78125 17.140625 
L 41.109375 17.140625 
L 41.109375 0 
z
M 32.328125 25.203125 
L 32.328125 57.46875 
L 9.90625 25.203125 
z
" id="ArialMT-34"/>
      </defs>
      <g style="fill:#262626;" transform="translate(68.097848 116.793594)scale(0.11 -0.11)">
       <use xlink:href="#ArialMT-34"/>
      </g>
     </g>
    </g>
    <g id="xtick_3">
     <g id="line2d_3">
      <g>
       <use style="fill:#262626;stroke:#262626;stroke-width:0.8;" x="85.105455" xlink:href="#m88bbe805e2" y="101.92"/>
      </g>
     </g>
     <g id="text_3">
      <!-- 6 -->
      <defs>
       <path d="M 49.75 54.046875 
L 41.015625 53.375 
Q 39.84375 58.546875 37.703125 60.890625 
Q 34.125 64.65625 28.90625 64.65625 
Q 24.703125 64.65625 21.53125 62.3125 
Q 17.390625 59.28125 14.984375 53.46875 
Q 12.59375 47.65625 12.5 36.921875 
Q 15.671875 41.75 20.265625 44.09375 
Q 24.859375 46.4375 29.890625 46.4375 
Q 38.671875 46.4375 44.84375 39.96875 
Q 51.03125 33.5 51.03125 23.25 
Q 51.03125 16.5 48.125 10.71875 
Q 45.21875 4.9375 40.140625 1.859375 
Q 35.0625 -1.21875 28.609375 -1.21875 
Q 17.625 -1.21875 10.6875 6.859375 
Q 3.765625 14.9375 3.765625 33.5 
Q 3.765625 54.25 11.421875 63.671875 
Q 18.109375 71.875 29.4375 71.875 
Q 37.890625 71.875 43.28125 67.140625 
Q 48.6875 62.40625 49.75 54.046875 
z
M 13.875 23.1875 
Q 13.875 18.65625 15.796875 14.5 
Q 17.71875 10.359375 21.1875 8.171875 
Q 24.65625 6 28.46875 6 
Q 34.03125 6 38.03125 10.484375 
Q 42.046875 14.984375 42.046875 22.703125 
Q 42.046875 30.125 38.078125 34.390625 
Q 34.125 38.671875 28.125 38.671875 
Q 22.171875 38.671875 18.015625 34.390625 
Q 13.875 30.125 13.875 23.1875 
z
" id="ArialMT-36"/>
      </defs>
      <g style="fill:#262626;" transform="translate(82.046939 116.793594)scale(0.11 -0.11)">
       <use xlink:href="#ArialMT-36"/>
      </g>
     </g>
    </g>
    <g id="xtick_4">
     <g id="line2d_4">
      <g>
       <use style="fill:#262626;stroke:#262626;stroke-width:0.8;" x="99.054545" xlink:href="#m88bbe805e2" y="101.92"/>
      </g>
     </g>
     <g id="text_4">
      <!-- 8 -->
      <defs>
       <path d="M 17.671875 38.8125 
Q 12.203125 40.828125 9.5625 44.53125 
Q 6.9375 48.25 6.9375 53.421875 
Q 6.9375 61.234375 12.546875 66.546875 
Q 18.171875 71.875 27.484375 71.875 
Q 36.859375 71.875 42.578125 66.421875 
Q 48.296875 60.984375 48.296875 53.171875 
Q 48.296875 48.1875 45.671875 44.5 
Q 43.0625 40.828125 37.75 38.8125 
Q 44.34375 36.671875 47.78125 31.875 
Q 51.21875 27.09375 51.21875 20.453125 
Q 51.21875 11.28125 44.71875 5.03125 
Q 38.234375 -1.21875 27.640625 -1.21875 
Q 17.046875 -1.21875 10.546875 5.046875 
Q 4.046875 11.328125 4.046875 20.703125 
Q 4.046875 27.6875 7.59375 32.390625 
Q 11.140625 37.109375 17.671875 38.8125 
z
M 15.921875 53.71875 
Q 15.921875 48.640625 19.1875 45.40625 
Q 22.46875 42.1875 27.6875 42.1875 
Q 32.765625 42.1875 36.015625 45.375 
Q 39.265625 48.578125 39.265625 53.21875 
Q 39.265625 58.0625 35.90625 61.359375 
Q 32.5625 64.65625 27.59375 64.65625 
Q 22.5625 64.65625 19.234375 61.421875 
Q 15.921875 58.203125 15.921875 53.71875 
z
M 13.09375 20.65625 
Q 13.09375 16.890625 14.875 13.375 
Q 16.65625 9.859375 20.171875 7.921875 
Q 23.6875 6 27.734375 6 
Q 34.03125 6 38.125 10.046875 
Q 42.234375 14.109375 42.234375 20.359375 
Q 42.234375 26.703125 38.015625 30.859375 
Q 33.796875 35.015625 27.4375 35.015625 
Q 21.234375 35.015625 17.15625 30.90625 
Q 13.09375 26.8125 13.09375 20.65625 
z
" id="ArialMT-38"/>
      </defs>
      <g style="fill:#262626;" transform="translate(95.99603 116.793594)scale(0.11 -0.11)">
       <use xlink:href="#ArialMT-38"/>
      </g>
     </g>
    </g>
    <g id="xtick_5">
     <g id="line2d_5">
      <g>
       <use style="fill:#262626;stroke:#262626;stroke-width:0.8;" x="113.003636" xlink:href="#m88bbe805e2" y="101.92"/>
      </g>
     </g>
     <g id="text_5">
      <!-- 10 -->
      <defs>
       <path d="M 37.25 0 
L 28.46875 0 
L 28.46875 56 
Q 25.296875 52.984375 20.140625 49.953125 
Q 14.984375 46.921875 10.890625 45.40625 
L 10.890625 53.90625 
Q 18.265625 57.375 23.78125 62.296875 
Q 29.296875 67.234375 31.59375 71.875 
L 37.25 71.875 
z
" id="ArialMT-31"/>
       <path d="M 4.15625 35.296875 
Q 4.15625 48 6.765625 55.734375 
Q 9.375 63.484375 14.515625 67.671875 
Q 19.671875 71.875 27.484375 71.875 
Q 33.25 71.875 37.59375 69.546875 
Q 41.9375 67.234375 44.765625 62.859375 
Q 47.609375 58.5 49.21875 52.21875 
Q 50.828125 45.953125 50.828125 35.296875 
Q 50.828125 22.703125 48.234375 14.96875 
Q 45.65625 7.234375 40.5 3 
Q 35.359375 -1.21875 27.484375 -1.21875 
Q 17.140625 -1.21875 11.234375 6.203125 
Q 4.15625 15.140625 4.15625 35.296875 
z
M 13.1875 35.296875 
Q 13.1875 17.671875 17.3125 11.828125 
Q 21.4375 6 27.484375 6 
Q 33.546875 6 37.671875 11.859375 
Q 41.796875 17.71875 41.796875 35.296875 
Q 41.796875 52.984375 37.671875 58.78125 
Q 33.546875 64.59375 27.390625 64.59375 
Q 21.34375 64.59375 17.71875 59.46875 
Q 13.1875 52.9375 13.1875 35.296875 
z
" id="ArialMT-30"/>
      </defs>
      <g style="fill:#262626;" transform="translate(106.886605 116.793594)scale(0.11 -0.11)">
       <use xlink:href="#ArialMT-31"/>
       <use x="55.615234" xlink:href="#ArialMT-30"/>
      </g>
     </g>
    </g>
    <g id="xtick_6">
     <g id="line2d_6">
      <g>
       <use style="fill:#262626;stroke:#262626;stroke-width:0.8;" x="126.952727" xlink:href="#m88bbe805e2" y="101.92"/>
      </g>
     </g>
     <g id="text_6">
      <!-- 12 -->
      <g style="fill:#262626;" transform="translate(120.835696 116.793594)scale(0.11 -0.11)">
       <use xlink:href="#ArialMT-31"/>
       <use x="55.615234" xlink:href="#ArialMT-32"/>
      </g>
     </g>
    </g>
    <g id="text_7">
     <!-- pH -->
     <defs>
      <path d="M 6.59375 -19.875 
L 6.59375 51.859375 
L 14.59375 51.859375 
L 14.59375 45.125 
Q 17.4375 49.078125 21 51.046875 
Q 24.5625 53.03125 29.640625 53.03125 
Q 36.28125 53.03125 41.359375 49.609375 
Q 46.4375 46.1875 49.015625 39.953125 
Q 51.609375 33.734375 51.609375 26.3125 
Q 51.609375 18.359375 48.75 11.984375 
Q 45.90625 5.609375 40.453125 2.21875 
Q 35.015625 -1.171875 29 -1.171875 
Q 24.609375 -1.171875 21.109375 0.6875 
Q 17.625 2.546875 15.375 5.375 
L 15.375 -19.875 
z
M 14.546875 25.640625 
Q 14.546875 15.625 18.59375 10.84375 
Q 22.65625 6.0625 28.421875 6.0625 
Q 34.28125 6.0625 38.453125 11.015625 
Q 42.625 15.96875 42.625 26.375 
Q 42.625 36.28125 38.546875 41.203125 
Q 34.46875 46.140625 28.8125 46.140625 
Q 23.1875 46.140625 18.859375 40.890625 
Q 14.546875 35.640625 14.546875 25.640625 
z
" id="ArialMT-70"/>
      <path d="M 8.015625 0 
L 8.015625 71.578125 
L 17.484375 71.578125 
L 17.484375 42.1875 
L 54.6875 42.1875 
L 54.6875 71.578125 
L 64.15625 71.578125 
L 64.15625 0 
L 54.6875 0 
L 54.6875 33.734375 
L 17.484375 33.734375 
L 17.484375 0 
z
" id="ArialMT-48"/>
     </defs>
     <g style="fill:#262626;" transform="translate(85.049453 130.853437)scale(0.11 -0.11)">
      <use xlink:href="#ArialMT-70"/>
      <use x="55.615234" xlink:href="#ArialMT-48"/>
     </g>
    </g>
   </g>
   <g id="matplotlib.axis_2">
    <g id="ytick_1">
     <g id="line2d_7">
      <defs>
       <path d="M 0 0 
L -3.5 0 
" id="m821bbbede8" style="stroke:#262626;stroke-width:0.8;"/>
      </defs>
      <g>
       <use style="fill:#262626;stroke:#262626;stroke-width:0.8;" x="53.72" xlink:href="#m821bbbede8" y="94.379189"/>
      </g>
     </g>
     <g id="text_8">
      <!-- 0 -->
      <g style="fill:#262626;" transform="translate(40.602969 98.315986)scale(0.11 -0.11)">
       <use xlink:href="#ArialMT-30"/>
      </g>
     </g>
    </g>
    <g id="ytick_2">
     <g id="line2d_8">
      <g>
       <use style="fill:#262626;stroke:#262626;stroke-width:0.8;" x="53.72" xlink:href="#m821bbbede8" y="59.320375"/>
      </g>
     </g>
     <g id="text_9">
      <!-- 100 -->
      <g style="fill:#262626;" transform="translate(28.368906 63.257172)scale(0.11 -0.11)">
       <use xlink:href="#ArialMT-31"/>
       <use x="55.615234" xlink:href="#ArialMT-30"/>
       <use x="111.230469" xlink:href="#ArialMT-30"/>
      </g>
     </g>
    </g>
    <g id="ytick_3">
     <g id="line2d_9">
      <g>
       <use style="fill:#262626;stroke:#262626;stroke-width:0.8;" x="53.72" xlink:href="#m821bbbede8" y="24.261562"/>
      </g>
     </g>
     <g id="text_10">
      <!-- 200 -->
      <g style="fill:#262626;" transform="translate(28.368906 28.198358)scale(0.11 -0.11)">
       <use xlink:href="#ArialMT-32"/>
       <use x="55.615234" xlink:href="#ArialMT-30"/>
       <use x="111.230469" xlink:href="#ArialMT-30"/>
      </g>
     </g>
    </g>
    <g id="text_11">
     <!-- Free energy ($k_B T$) -->
     <defs>
      <path d="M 8.203125 0 
L 8.203125 71.578125 
L 56.5 71.578125 
L 56.5 63.140625 
L 17.671875 63.140625 
L 17.671875 40.96875 
L 51.265625 40.96875 
L 51.265625 32.515625 
L 17.671875 32.515625 
L 17.671875 0 
z
" id="ArialMT-46"/>
      <path d="M 6.5 0 
L 6.5 51.859375 
L 14.40625 51.859375 
L 14.40625 44 
Q 17.4375 49.515625 20 51.265625 
Q 22.5625 53.03125 25.640625 53.03125 
Q 30.078125 53.03125 34.671875 50.203125 
L 31.640625 42.046875 
Q 28.421875 43.953125 25.203125 43.953125 
Q 22.3125 43.953125 20.015625 42.21875 
Q 17.71875 40.484375 16.75 37.40625 
Q 15.28125 32.71875 15.28125 27.15625 
L 15.28125 0 
z
" id="ArialMT-72"/>
      <path d="M 42.09375 16.703125 
L 51.171875 15.578125 
Q 49.03125 7.625 43.21875 3.21875 
Q 37.40625 -1.171875 28.375 -1.171875 
Q 17 -1.171875 10.328125 5.828125 
Q 3.65625 12.84375 3.65625 25.484375 
Q 3.65625 38.578125 10.390625 45.796875 
Q 17.140625 53.03125 27.875 53.03125 
Q 38.28125 53.03125 44.875 45.953125 
Q 51.46875 38.875 51.46875 26.03125 
Q 51.46875 25.25 51.421875 23.6875 
L 12.75 23.6875 
Q 13.234375 15.140625 17.578125 10.59375 
Q 21.921875 6.0625 28.421875 6.0625 
Q 33.25 6.0625 36.671875 8.59375 
Q 40.09375 11.140625 42.09375 16.703125 
z
M 13.234375 30.90625 
L 42.1875 30.90625 
Q 41.609375 37.453125 38.875 40.71875 
Q 34.671875 45.796875 27.984375 45.796875 
Q 21.921875 45.796875 17.796875 41.75 
Q 13.671875 37.703125 13.234375 30.90625 
z
" id="ArialMT-65"/>
      <path id="ArialMT-20"/>
      <path d="M 6.59375 0 
L 6.59375 51.859375 
L 14.5 51.859375 
L 14.5 44.484375 
Q 20.21875 53.03125 31 53.03125 
Q 35.6875 53.03125 39.625 51.34375 
Q 43.5625 49.65625 45.515625 46.921875 
Q 47.46875 44.1875 48.25 40.4375 
Q 48.734375 37.984375 48.734375 31.890625 
L 48.734375 0 
L 39.9375 0 
L 39.9375 31.546875 
Q 39.9375 36.921875 38.90625 39.578125 
Q 37.890625 42.234375 35.28125 43.8125 
Q 32.671875 45.40625 29.15625 45.40625 
Q 23.53125 45.40625 19.453125 41.84375 
Q 15.375 38.28125 15.375 28.328125 
L 15.375 0 
z
" id="ArialMT-6e"/>
      <path d="M 4.984375 -4.296875 
L 13.53125 -5.5625 
Q 14.0625 -9.515625 16.5 -11.328125 
Q 19.78125 -13.765625 25.4375 -13.765625 
Q 31.546875 -13.765625 34.859375 -11.328125 
Q 38.1875 -8.890625 39.359375 -4.5 
Q 40.046875 -1.8125 39.984375 6.78125 
Q 34.234375 0 25.640625 0 
Q 14.9375 0 9.078125 7.71875 
Q 3.21875 15.4375 3.21875 26.21875 
Q 3.21875 33.640625 5.90625 39.90625 
Q 8.59375 46.1875 13.6875 49.609375 
Q 18.796875 53.03125 25.6875 53.03125 
Q 34.859375 53.03125 40.828125 45.609375 
L 40.828125 51.859375 
L 48.921875 51.859375 
L 48.921875 7.03125 
Q 48.921875 -5.078125 46.453125 -10.125 
Q 44 -15.1875 38.640625 -18.109375 
Q 33.296875 -21.046875 25.484375 -21.046875 
Q 16.21875 -21.046875 10.5 -16.875 
Q 4.78125 -12.703125 4.984375 -4.296875 
z
M 12.25 26.859375 
Q 12.25 16.65625 16.296875 11.96875 
Q 20.359375 7.28125 26.46875 7.28125 
Q 32.515625 7.28125 36.609375 11.9375 
Q 40.71875 16.609375 40.71875 26.5625 
Q 40.71875 36.078125 36.5 40.90625 
Q 32.28125 45.75 26.3125 45.75 
Q 20.453125 45.75 16.34375 40.984375 
Q 12.25 36.234375 12.25 26.859375 
z
" id="ArialMT-67"/>
      <path d="M 6.203125 -19.96875 
L 5.21875 -11.71875 
Q 8.109375 -12.5 10.25 -12.5 
Q 13.1875 -12.5 14.9375 -11.515625 
Q 16.703125 -10.546875 17.828125 -8.796875 
Q 18.65625 -7.46875 20.515625 -2.25 
Q 20.75 -1.515625 21.296875 -0.09375 
L 1.609375 51.859375 
L 11.078125 51.859375 
L 21.875 21.828125 
Q 23.96875 16.109375 25.640625 9.8125 
Q 27.15625 15.875 29.25 21.625 
L 40.328125 51.859375 
L 49.125 51.859375 
L 29.390625 -0.875 
Q 26.21875 -9.421875 24.46875 -12.640625 
Q 22.125 -17 19.09375 -19.015625 
Q 16.0625 -21.046875 11.859375 -21.046875 
Q 9.328125 -21.046875 6.203125 -19.96875 
z
" id="ArialMT-79"/>
      <path d="M 23.390625 -21.046875 
Q 16.109375 -11.859375 11.078125 0.4375 
Q 6.0625 12.75 6.0625 25.921875 
Q 6.0625 37.546875 9.8125 48.1875 
Q 14.203125 60.546875 23.390625 72.796875 
L 29.6875 72.796875 
Q 23.78125 62.640625 21.875 58.296875 
Q 18.890625 51.5625 17.1875 44.234375 
Q 15.09375 35.109375 15.09375 25.875 
Q 15.09375 2.390625 29.6875 -21.046875 
z
" id="ArialMT-28"/>
      <path d="M 18.3125 75.984375 
L 27.296875 75.984375 
L 18.703125 31.6875 
L 49.515625 54.6875 
L 61.1875 54.6875 
L 26.8125 28.515625 
L 51.90625 0 
L 41.015625 0 
L 17.671875 26.703125 
L 12.5 0 
L 3.515625 0 
z
" id="DejaVuSans-Oblique-6b"/>
      <path d="M 16.890625 72.90625 
L 42.09375 72.90625 
Q 52.34375 72.90625 57.421875 69.09375 
Q 62.5 65.28125 62.5 57.625 
Q 62.5 50.59375 58.125 45.484375 
Q 53.765625 40.375 46.6875 39.3125 
Q 52.734375 37.9375 55.765625 34.078125 
Q 58.796875 30.21875 58.796875 23.78125 
Q 58.796875 12.796875 50.65625 6.390625 
Q 42.53125 0 28.421875 0 
L 2.6875 0 
z
M 19.28125 34.8125 
L 14.109375 8.109375 
L 29.984375 8.109375 
Q 38.921875 8.109375 43.75 12.203125 
Q 48.578125 16.3125 48.578125 23.78125 
Q 48.578125 29.546875 45.375 32.171875 
Q 42.1875 34.8125 35.109375 34.8125 
z
M 25.09375 64.796875 
L 20.796875 42.828125 
L 35.5 42.828125 
Q 43.359375 42.828125 47.78125 46.234375 
Q 52.203125 49.65625 52.203125 55.71875 
Q 52.203125 60.453125 49.21875 62.625 
Q 46.234375 64.796875 39.703125 64.796875 
z
" id="DejaVuSans-Oblique-42"/>
      <path d="M 5.90625 72.90625 
L 67.578125 72.90625 
L 66.015625 64.59375 
L 39.984375 64.59375 
L 27.484375 0 
L 17.578125 0 
L 30.078125 64.59375 
L 4.296875 64.59375 
z
" id="DejaVuSans-Oblique-54"/>
      <path d="M 12.359375 -21.046875 
L 6.0625 -21.046875 
Q 20.65625 2.390625 20.65625 25.875 
Q 20.65625 35.0625 18.5625 44.09375 
Q 16.890625 51.421875 13.921875 58.15625 
Q 12.015625 62.546875 6.0625 72.796875 
L 12.359375 72.796875 
Q 21.53125 60.546875 25.921875 48.1875 
Q 29.6875 37.546875 29.6875 25.921875 
Q 29.6875 12.75 24.625 0.4375 
Q 19.578125 -11.859375 12.359375 -21.046875 
z
" id="ArialMT-29"/>
     </defs>
     <g style="fill:#262626;" transform="translate(21.948906 101.96)rotate(-90)scale(0.11 -0.11)">
      <use transform="translate(0 0.015625)" xlink:href="#ArialMT-46"/>
      <use transform="translate(61.083984 0.015625)" xlink:href="#ArialMT-72"/>
      <use transform="translate(94.384766 0.015625)" xlink:href="#ArialMT-65"/>
      <use transform="translate(150 0.015625)" xlink:href="#ArialMT-65"/>
      <use transform="translate(205.615234 0.015625)" xlink:href="#ArialMT-20"/>
      <use transform="translate(233.398438 0.015625)" xlink:href="#ArialMT-65"/>
      <use transform="translate(289.013672 0.015625)" xlink:href="#ArialMT-6e"/>
      <use transform="translate(344.628906 0.015625)" xlink:href="#ArialMT-65"/>
      <use transform="translate(400.244141 0.015625)" xlink:href="#ArialMT-72"/>
      <use transform="translate(433.544922 0.015625)" xlink:href="#ArialMT-67"/>
      <use transform="translate(489.160156 0.015625)" xlink:href="#ArialMT-79"/>
      <use transform="translate(539.160156 0.015625)" xlink:href="#ArialMT-20"/>
      <use transform="translate(566.943359 0.015625)" xlink:href="#ArialMT-28"/>
      <use transform="translate(600.244141 0.015625)" xlink:href="#DejaVuSans-Oblique-6b"/>
      <use transform="translate(658.154297 -16.390625)scale(0.7)" xlink:href="#DejaVuSans-Oblique-42"/>
      <use transform="translate(708.911133 0.015625)" xlink:href="#DejaVuSans-Oblique-54"/>
      <use transform="translate(769.995117 0.015625)" xlink:href="#ArialMT-29"/>
     </g>
    </g>
   </g>
   <g id="patch_3">
    <path d="M 53.72 101.92 
L 53.72 13.56 
" style="fill:none;stroke:#262626;stroke-linecap:square;stroke-linejoin:miter;stroke-width:0.8;"/>
   </g>
   <g id="patch_4">
    <path d="M 53.72 101.92 
L 130.44 101.92 
" style="fill:none;stroke:#262626;stroke-linecap:square;stroke-linejoin:miter;stroke-width:0.8;"/>
   </g>
   <g id="line2d_10">
    <path clip-path="url(#p188e8d86d5)" d="M 57.207273 49.866725 
L 57.904727 49.543821 
L 58.602182 49.220917 
L 59.299636 48.898014 
L 59.997091 48.57511 
L 60.694545 48.252207 
L 61.392 47.929303 
L 62.089455 47.606399 
L 62.786909 47.283496 
L 63.484364 46.960592 
L 64.181818 46.637688 
L 64.879273 46.314785 
L 65.576727 45.991881 
L 66.274182 45.668978 
L 66.971636 45.346074 
L 67.669091 45.02317 
L 68.366545 44.700267 
L 69.064 44.377363 
L 69.761455 44.05446 
L 70.458909 43.731556 
L 71.156364 43.408652 
L 71.853818 43.085749 
L 72.551273 42.762845 
L 73.248727 42.439942 
L 73.946182 42.117038 
L 74.643636 41.794134 
L 75.341091 41.471231 
L 76.038545 41.148327 
L 76.736 40.825424 
L 77.433455 40.50252 
L 78.130909 40.179616 
L 78.828364 39.856713 
L 79.525818 39.533809 
L 80.223273 39.210905 
L 80.920727 38.888002 
L 81.618182 38.565098 
L 82.315636 38.242195 
L 83.013091 37.919291 
L 83.710545 37.596387 
L 84.408 37.273484 
L 85.105455 36.95058 
L 85.802909 36.627677 
L 86.500364 36.304773 
L 87.197818 35.981869 
L 87.895273 35.658966 
L 88.592727 35.336062 
L 89.290182 35.013159 
L 89.987636 34.690255 
L 90.685091 34.367351 
L 91.382545 34.044448 
L 92.08 33.721544 
L 92.777455 33.398641 
L 93.474909 33.075737 
L 94.172364 32.752833 
L 94.869818 32.42993 
L 95.567273 32.107026 
L 96.264727 31.784122 
L 96.962182 31.461219 
L 97.659636 31.138315 
L 98.357091 30.815412 
L 99.054545 30.492508 
L 99.752 30.169604 
L 100.449455 29.846701 
L 101.146909 29.523797 
L 101.844364 29.200894 
L 102.541818 28.87799 
L 103.239273 28.555086 
L 103.936727 28.232183 
L 104.634182 27.909279 
L 105.331636 27.586376 
L 106.029091 27.263472 
L 106.726545 26.940568 
L 107.424 26.617665 
L 108.121455 26.294761 
L 108.818909 25.971857 
L 109.516364 25.648954 
L 110.213818 25.32605 
L 110.911273 25.003147 
L 111.608727 24.680243 
L 112.306182 24.357339 
L 113.003636 24.034436 
L 113.701091 23.711532 
L 114.398545 23.388629 
L 115.096 23.065725 
L 115.793455 22.742821 
L 116.490909 22.419918 
L 117.188364 22.097014 
L 117.885818 21.774111 
L 118.583273 21.451207 
L 119.280727 21.128303 
L 119.978182 20.8054 
L 120.675636 20.482496 
L 121.373091 20.159593 
L 122.070545 19.836689 
L 122.768 19.513785 
L 123.465455 19.190882 
L 124.162909 18.867978 
L 124.860364 18.545074 
L 125.557818 18.222171 
L 126.255273 17.899267 
L 126.952727 17.576364 
" style="fill:none;stroke:#0d2844;stroke-linecap:round;stroke-width:1.5;"/>
   </g>
   <g id="line2d_11">
    <path clip-path="url(#p188e8d86d5)" d="M 57.207273 75.531962 
L 57.904727 75.289784 
L 58.602182 75.047607 
L 59.299636 74.805429 
L 59.997091 74.563251 
L 60.694545 74.321074 
L 61.392 74.078896 
L 62.089455 73.836718 
L 62.786909 73.594541 
L 63.484364 73.352363 
L 64.181818 73.110185 
L 64.879273 72.868007 
L 65.576727 72.62583 
L 66.274182 72.383652 
L 66.971636 72.141474 
L 67.669091 71.899297 
L 68.366545 71.657119 
L 69.064 71.414941 
L 69.761455 71.172763 
L 70.458909 70.930586 
L 71.156364 70.688408 
L 71.853818 70.44623 
L 72.551273 70.204053 
L 73.248727 69.961875 
L 73.946182 69.719697 
L 74.643636 69.47752 
L 75.341091 69.235342 
L 76.038545 68.993164 
L 76.736 68.750986 
L 77.433455 68.508809 
L 78.130909 68.266631 
L 78.828364 68.024453 
L 79.525818 67.782276 
L 80.223273 67.540098 
L 80.920727 67.29792 
L 81.618182 67.055742 
L 82.315636 66.813565 
L 83.013091 66.571387 
L 83.710545 66.329209 
L 84.408 66.087032 
L 85.105455 65.844854 
L 85.802909 65.602676 
L 86.500364 65.360498 
L 87.197818 65.118321 
L 87.895273 64.876143 
L 88.592727 64.633965 
L 89.290182 64.391788 
L 89.987636 64.14961 
L 90.685091 63.907432 
L 91.382545 63.665255 
L 92.08 63.423077 
L 92.777455 63.180899 
L 93.474909 62.938721 
L 94.172364 62.696544 
L 94.869818 62.454366 
L 95.567273 62.212188 
L 96.264727 61.970011 
L 96.962182 61.727833 
L 97.659636 61.485655 
L 98.357091 61.243477 
L 99.054545 61.0013 
L 99.752 60.759122 
L 100.449455 60.516944 
L 101.146909 60.274767 
L 101.844364 60.032589 
L 102.541818 59.790411 
L 103.239273 59.548234 
L 103.936727 59.306056 
L 104.634182 59.063878 
L 105.331636 58.8217 
L 106.029091 58.579523 
L 106.726545 58.337345 
L 107.424 58.095167 
L 108.121455 57.85299 
L 108.818909 57.610812 
L 109.516364 57.368634 
L 110.213818 57.126456 
L 110.911273 56.884279 
L 111.608727 56.642101 
L 112.306182 56.399923 
L 113.003636 56.157746 
L 113.701091 55.915568 
L 114.398545 55.67339 
L 115.096 55.431212 
L 115.793455 55.189035 
L 116.490909 54.946857 
L 117.188364 54.704679 
L 117.885818 54.462502 
L 118.583273 54.220324 
L 119.280727 53.978146 
L 119.978182 53.735969 
L 120.675636 53.493791 
L 121.373091 53.251613 
L 122.070545 53.009435 
L 122.768 52.767258 
L 123.465455 52.52508 
L 124.162909 52.282902 
L 124.860364 52.040725 
L 125.557818 51.798547 
L 126.255273 51.556369 
L 126.952727 51.314191 
" style="fill:none;stroke:#2166ac;stroke-linecap:round;stroke-width:1.5;"/>
   </g>
   <g id="line2d_12">
    <path clip-path="url(#p188e8d86d5)" d="M 57.207273 93.485716 
L 57.904727 93.324264 
L 58.602182 93.162812 
L 59.299636 93.001361 
L 59.997091 92.839909 
L 60.694545 92.678457 
L 61.392 92.517005 
L 62.089455 92.355553 
L 62.786909 92.194102 
L 63.484364 92.03265 
L 64.181818 91.871198 
L 64.879273 91.709746 
L 65.576727 91.548294 
L 66.274182 91.386843 
L 66.971636 91.225391 
L 67.669091 91.063939 
L 68.366545 90.902487 
L 69.064 90.741035 
L 69.761455 90.579584 
L 70.458909 90.418132 
L 71.156364 90.25668 
L 71.853818 90.095228 
L 72.551273 89.933776 
L 73.248727 89.772325 
L 73.946182 89.610873 
L 74.643636 89.449421 
L 75.341091 89.287969 
L 76.038545 89.126517 
L 76.736 88.965065 
L 77.433455 88.803614 
L 78.130909 88.642162 
L 78.828364 88.48071 
L 79.525818 88.319258 
L 80.223273 88.157806 
L 80.920727 87.996355 
L 81.618182 87.834903 
L 82.315636 87.673451 
L 83.013091 87.511999 
L 83.710545 87.350547 
L 84.408 87.189096 
L 85.105455 87.027644 
L 85.802909 86.866192 
L 86.500364 86.70474 
L 87.197818 86.543288 
L 87.895273 86.381837 
L 88.592727 86.220385 
L 89.290182 86.058933 
L 89.987636 85.897481 
L 90.685091 85.736029 
L 91.382545 85.574578 
L 92.08 85.413126 
L 92.777455 85.251674 
L 93.474909 85.090222 
L 94.172364 84.92877 
L 94.869818 84.767319 
L 95.567273 84.605867 
L 96.264727 84.444415 
L 96.962182 84.282963 
L 97.659636 84.121511 
L 98.357091 83.96006 
L 99.054545 83.798608 
L 99.752 83.637156 
L 100.449455 83.475704 
L 101.146909 83.314252 
L 101.844364 83.152801 
L 102.541818 82.991349 
L 103.239273 82.829897 
L 103.936727 82.668445 
L 104.634182 82.506993 
L 105.331636 82.345542 
L 106.029091 82.18409 
L 106.726545 82.022638 
L 107.424 81.861186 
L 108.121455 81.699734 
L 108.818909 81.538282 
L 109.516364 81.376831 
L 110.213818 81.215379 
L 110.911273 81.053927 
L 111.608727 80.892475 
L 112.306182 80.731023 
L 113.003636 80.569572 
L 113.701091 80.40812 
L 114.398545 80.246668 
L 115.096 80.085216 
L 115.793455 79.923764 
L 116.490909 79.762313 
L 117.188364 79.600861 
L 117.885818 79.439409 
L 118.583273 79.277957 
L 119.280727 79.116505 
L 119.978182 78.955054 
L 120.675636 78.793602 
L 121.373091 78.63215 
L 122.070545 78.470698 
L 122.768 78.309246 
L 123.465455 78.147795 
L 124.162909 77.986343 
L 124.860364 77.824891 
L 125.557818 77.663439 
L 126.255273 77.501987 
L 126.952727 77.340536 
" style="fill:none;stroke:#4393c3;stroke-linecap:round;stroke-width:1.5;"/>
   </g>
   <g id="line2d_13">
    <path clip-path="url(#p188e8d86d5)" d="M 57.207273 88.547147 
L 57.904727 88.627873 
L 58.602182 88.708598 
L 59.299636 88.789324 
L 59.997091 88.87005 
L 60.694545 88.950776 
L 61.392 89.031502 
L 62.089455 89.112228 
L 62.786909 89.192954 
L 63.484364 89.27368 
L 64.181818 89.354406 
L 64.879273 89.435132 
L 65.576727 89.515857 
L 66.274182 89.596583 
L 66.971636 89.677309 
L 67.669091 89.758035 
L 68.366545 89.838761 
L 69.064 89.919487 
L 69.761455 90.000213 
L 70.458909 90.080939 
L 71.156364 90.161665 
L 71.853818 90.242391 
L 72.551273 90.323116 
L 73.248727 90.403842 
L 73.946182 90.484568 
L 74.643636 90.565294 
L 75.341091 90.64602 
L 76.038545 90.726746 
L 76.736 90.807472 
L 77.433455 90.888198 
L 78.130909 90.968924 
L 78.828364 91.04965 
L 79.525818 91.130375 
L 80.223273 91.211101 
L 80.920727 91.291827 
L 81.618182 91.372553 
L 82.315636 91.453279 
L 83.013091 91.534005 
L 83.710545 91.614731 
L 84.408 91.695457 
L 85.105455 91.776183 
L 85.802909 91.856909 
L 86.500364 91.937635 
L 87.197818 92.01836 
L 87.895273 92.099086 
L 88.592727 92.179812 
L 89.290182 92.260538 
L 89.987636 92.341264 
L 90.685091 92.42199 
L 91.382545 92.502716 
L 92.08 92.583442 
L 92.777455 92.664168 
L 93.474909 92.744894 
L 94.172364 92.825619 
L 94.869818 92.906345 
L 95.567273 92.987071 
L 96.264727 93.067797 
L 96.962182 93.148523 
L 97.659636 93.229249 
L 98.357091 93.309975 
L 99.054545 93.390701 
L 99.752 93.471427 
L 100.449455 93.552153 
L 101.146909 93.632878 
L 101.844364 93.713604 
L 102.541818 93.79433 
L 103.239273 93.875056 
L 103.936727 93.955782 
L 104.634182 94.036508 
L 105.331636 94.117234 
L 106.029091 94.19796 
L 106.726545 94.278686 
L 107.424 94.359412 
L 108.121455 94.440137 
L 108.818909 94.520863 
L 109.516364 94.601589 
L 110.213818 94.682315 
L 110.911273 94.763041 
L 111.608727 94.843767 
L 112.306182 94.924493 
L 113.003636 95.005219 
L 113.701091 95.085945 
L 114.398545 95.166671 
L 115.096 95.247397 
L 115.793455 95.328122 
L 116.490909 95.408848 
L 117.188364 95.489574 
L 117.885818 95.5703 
L 118.583273 95.651026 
L 119.280727 95.731752 
L 119.978182 95.812478 
L 120.675636 95.893204 
L 121.373091 95.97393 
L 122.070545 96.054656 
L 122.768 96.135381 
L 123.465455 96.216107 
L 124.162909 96.296833 
L 124.860364 96.377559 
L 125.557818 96.458285 
L 126.255273 96.539011 
L 126.952727 96.619737 
" style="fill:none;stroke:#f4a582;stroke-linecap:round;stroke-width:1.5;"/>
   </g>
   <g id="line2d_14">
    <path clip-path="url(#p188e8d86d5)" d="M 57.207273 97.903636 
L 57.904727 97.82291 
L 58.602182 97.742185 
L 59.299636 97.661459 
L 59.997091 97.580733 
L 60.694545 97.500007 
L 61.392 97.419281 
L 62.089455 97.338555 
L 62.786909 97.257829 
L 63.484364 97.177103 
L 64.181818 97.096377 
L 64.879273 97.015651 
L 65.576727 96.934926 
L 66.274182 96.8542 
L 66.971636 96.773474 
L 67.669091 96.692748 
L 68.366545 96.612022 
L 69.064 96.531296 
L 69.761455 96.45057 
L 70.458909 96.369844 
L 71.156364 96.289118 
L 71.853818 96.208392 
L 72.551273 96.127667 
L 73.248727 96.046941 
L 73.946182 95.966215 
L 74.643636 95.885489 
L 75.341091 95.804763 
L 76.038545 95.724037 
L 76.736 95.643311 
L 77.433455 95.562585 
L 78.130909 95.481859 
L 78.828364 95.401133 
L 79.525818 95.320407 
L 80.223273 95.239682 
L 80.920727 95.158956 
L 81.618182 95.07823 
L 82.315636 94.997504 
L 83.013091 94.916778 
L 83.710545 94.836052 
L 84.408 94.755326 
L 85.105455 94.6746 
L 85.802909 94.593874 
L 86.500364 94.513148 
L 87.197818 94.432423 
L 87.895273 94.351697 
L 88.592727 94.270971 
L 89.290182 94.190245 
L 89.987636 94.109519 
L 90.685091 94.028793 
L 91.382545 93.948067 
L 92.08 93.867341 
L 92.777455 93.786615 
L 93.474909 93.705889 
L 94.172364 93.625164 
L 94.869818 93.544438 
L 95.567273 93.463712 
L 96.264727 93.382986 
L 96.962182 93.30226 
L 97.659636 93.221534 
L 98.357091 93.140808 
L 99.054545 93.060082 
L 99.752 92.979356 
L 100.449455 92.89863 
L 101.146909 92.817905 
L 101.844364 92.737179 
L 102.541818 92.656453 
L 103.239273 92.575727 
L 103.936727 92.495001 
L 104.634182 92.414275 
L 105.331636 92.333549 
L 106.029091 92.252823 
L 106.726545 92.172097 
L 107.424 92.091371 
L 108.121455 92.010645 
L 108.818909 91.92992 
L 109.516364 91.849194 
L 110.213818 91.768468 
L 110.911273 91.687742 
L 111.608727 91.607016 
L 112.306182 91.52629 
L 113.003636 91.445564 
L 113.701091 91.364838 
L 114.398545 91.284112 
L 115.096 91.203386 
L 115.793455 91.122661 
L 116.490909 91.041935 
L 117.188364 90.961209 
L 117.885818 90.880483 
L 118.583273 90.799757 
L 119.280727 90.719031 
L 119.978182 90.638305 
L 120.675636 90.557579 
L 121.373091 90.476853 
L 122.070545 90.396127 
L 122.768 90.315402 
L 123.465455 90.234676 
L 124.162909 90.15395 
L 124.860364 90.073224 
L 125.557818 89.992498 
L 126.255273 89.911772 
L 126.952727 89.831046 
" style="fill:none;stroke:#92c5de;stroke-linecap:round;stroke-width:1.5;"/>
   </g>
   <g id="line2d_15">
    <path clip-path="url(#p188e8d86d5)" d="M 57.207273 94.379189 
L 57.904727 94.379189 
L 58.602182 94.379189 
L 59.299636 94.379189 
L 59.997091 94.379189 
L 60.694545 94.379189 
L 61.392 94.379189 
L 62.089455 94.379189 
L 62.786909 94.379189 
L 63.484364 94.379189 
L 64.181818 94.379189 
L 64.879273 94.379189 
L 65.576727 94.379189 
L 66.274182 94.379189 
L 66.971636 94.379189 
L 67.669091 94.379189 
L 68.366545 94.379189 
L 69.064 94.379189 
L 69.761455 94.379189 
L 70.458909 94.379189 
L 71.156364 94.379189 
L 71.853818 94.379189 
L 72.551273 94.379189 
L 73.248727 94.379189 
L 73.946182 94.379189 
L 74.643636 94.379189 
L 75.341091 94.379189 
L 76.038545 94.379189 
L 76.736 94.379189 
L 77.433455 94.379189 
L 78.130909 94.379189 
L 78.828364 94.379189 
L 79.525818 94.379189 
L 80.223273 94.379189 
L 80.920727 94.379189 
L 81.618182 94.379189 
L 82.315636 94.379189 
L 83.013091 94.379189 
L 83.710545 94.379189 
L 84.408 94.379189 
L 85.105455 94.379189 
L 85.802909 94.379189 
L 86.500364 94.379189 
L 87.197818 94.379189 
L 87.895273 94.379189 
L 88.592727 94.379189 
L 89.290182 94.379189 
L 89.987636 94.379189 
L 90.685091 94.379189 
L 91.382545 94.379189 
L 92.08 94.379189 
L 92.777455 94.379189 
L 93.474909 94.379189 
L 94.172364 94.379189 
L 94.869818 94.379189 
L 95.567273 94.379189 
L 96.264727 94.379189 
L 96.962182 94.379189 
L 97.659636 94.379189 
L 98.357091 94.379189 
L 99.054545 94.379189 
L 99.752 94.379189 
L 100.449455 94.379189 
L 101.146909 94.379189 
L 101.844364 94.379189 
L 102.541818 94.379189 
L 103.239273 94.379189 
L 103.936727 94.379189 
L 104.634182 94.379189 
L 105.331636 94.379189 
L 106.029091 94.379189 
L 106.726545 94.379189 
L 107.424 94.379189 
L 108.121455 94.379189 
L 108.818909 94.379189 
L 109.516364 94.379189 
L 110.213818 94.379189 
L 110.911273 94.379189 
L 111.608727 94.379189 
L 112.306182 94.379189 
L 113.003636 94.379189 
L 113.701091 94.379189 
L 114.398545 94.379189 
L 115.096 94.379189 
L 115.793455 94.379189 
L 116.490909 94.379189 
L 117.188364 94.379189 
L 117.885818 94.379189 
L 118.583273 94.379189 
L 119.280727 94.379189 
L 119.978182 94.379189 
L 120.675636 94.379189 
L 121.373091 94.379189 
L 122.070545 94.379189 
L 122.768 94.379189 
L 123.465455 94.379189 
L 124.162909 94.379189 
L 124.860364 94.379189 
L 125.557818 94.379189 
L 126.255273 94.379189 
L 126.952727 94.379189 
" style="fill:none;stroke:#333333;stroke-linecap:round;stroke-width:1.5;"/>
   </g>
  </g>
 </g>
 <defs>
  <clipPath id="p188e8d86d5">
   <rect height="88.36" width="76.72" x="53.72" y="13.56"/>
  </clipPath>
 </defs>
</svg>
