<?xml version="1.0" encoding="utf-8" standalone="no"?>
<!DOCTYPE svg PUBLIC "-//W3C//DTD SVG 1.1//EN"
  "http://www.w3.org/Graphics/SVG/1.1/DTD/svg11.dtd">
<!-- Created with matplotlib (http://matplotlib.org/) -->
<svg height="144pt" version="1.1" viewBox="0 0 144 144" width="144pt" xmlns="http://www.w3.org/2000/svg" xmlns:xlink="http://www.w3.org/1999/xlink">
 <defs>
  <style type="text/css">
*{stroke-linecap:butt;stroke-linejoin:round;}
  </style>
 </defs>
 <g id="figure_1">
  <g id="patch_1">
   <path d="M 0 144 
L 144 144 
L 144 0 
L 0 0 
z
" style="fill:#ffffff;"/>
  </g>
  <g id="axes_1">
   <g id="patch_2">
    <path d="M 53.72 101.92 
L 130.44 101.92 
L 130.44 13.56 
L 53.72 13.56 
z
" style="fill:#ffffff;"/>
   </g>
   <g id="matplotlib.axis_1">
    <g id="xtick_1">
     <g id="line2d_1">
      <defs>
       <path d="M 0 0 
L 0 3.5 
" id="m98415bf63e" style="stroke:#262626;stroke-width:0.8;"/>
      </defs>
      <g>
       <use style="fill:#262626;stroke:#262626;stroke-width:0.8;" x="57.207273" xlink:href="#m98415bf63e" y="101.92"/>
      </g>
     </g>
     <g id="text_1">
      <!-- 2 -->
      <defs>
       <path d="M 50.34375 8.453125 
L 50.34375 0 
L 3.03125 0 
Q 2.9375 3.171875 4.046875 6.109375 
Q 5.859375 10.9375 9.828125 15.625 
Q 13.8125 20.3125 21.34375 26.46875 
Q 33.015625 36.03125 37.109375 41.625 
Q 41.21875 47.21875 41.21875 52.203125 
Q 41.21875 57.421875 37.46875 61 
Q 33.734375 64.59375 27.734375 64.59375 
Q 21.390625 64.59375 17.578125 60.78125 
Q 13.765625 56.984375 13.71875 50.25 
L 4.6875 51.171875 
Q 5.609375 61.28125 11.65625 66.578125 
Q 17.71875 71.875 27.9375 71.875 
Q 38.234375 71.875 44.234375 66.15625 
Q 50.25 60.453125 50.25 52 
Q 50.25 47.703125 48.484375 43.546875 
Q 46.734375 39.40625 42.65625 34.8125 
Q 38.578125 30.21875 29.109375 22.21875 
Q 21.1875 15.578125 18.9375 13.203125 
Q 16.703125 10.84375 15.234375 8.453125 
z
" id="ArialMT-32"/>
      </defs>
      <g style="fill:#262626;" transform="translate(54.148757 116.793594)scale(0.11 -0.11)">
       <use xlink:href="#ArialMT-32"/>
      </g>
     </g>
    </g>
    <g id="xtick_2">
     <g id="line2d_2">
      <g>
       <use style="fill:#262626;stroke:#262626;stroke-width:0.8;" x="71.156364" xlink:href="#m98415bf63e" y="101.92"/>
      </g>
     </g>
     <g id="text_2">
      <!-- 4 -->
      <defs>
       <path d="M 32.328125 0 
L 32.328125 17.140625 
L 1.265625 17.140625 
L 1.265625 25.203125 
L 33.9375 71.578125 
L 41.109375 71.578125 
L 41.109375 25.203125 
L 50.78125 25.203125 
L 50.78125 17.140625 
L 41.109375 17.140625 
L 41.109375 0 
z
M 32.328125 25.203125 
L 32.328125 57.46875 
L 9.90625 25.203125 
z
" id="ArialMT-34"/>
      </defs>
      <g style="fill:#262626;" transform="translate(68.097848 116.793594)scale(0.11 -0.11)">
       <use xlink:href="#ArialMT-34"/>
      </g>
     </g>
    </g>
    <g id="xtick_3">
     <g id="line2d_3">
      <g>
       <use style="fill:#262626;stroke:#262626;stroke-width:0.8;" x="85.105455" xlink:href="#m98415bf63e" y="101.92"/>
      </g>
     </g>
     <g id="text_3">
      <!-- 6 -->
      <defs>
       <path d="M 49.75 54.046875 
L 41.015625 53.375 
Q 39.84375 58.546875 37.703125 60.890625 
Q 34.125 64.65625 28.90625 64.65625 
Q 24.703125 64.65625 21.53125 62.3125 
Q 17.390625 59.28125 14.984375 53.46875 
Q 12.59375 47.65625 12.5 36.921875 
Q 15.671875 41.75 20.265625 44.09375 
Q 24.859375 46.4375 29.890625 46.4375 
Q 38.671875 46.4375 44.84375 39.96875 
Q 51.03125 33.5 51.03125 23.25 
Q 51.03125 16.5 48.125 10.71875 
Q 45.21875 4.9375 40.140625 1.859375 
Q 35.0625 -1.21875 28.609375 -1.21875 
Q 17.625 -1.21875 10.6875 6.859375 
Q 3.765625 14.9375 3.765625 33.5 
Q 3.765625 54.25 11.421875 63.671875 
Q 18.109375 71.875 29.4375 71.875 
Q 37.890625 71.875 43.28125 67.140625 
Q 48.6875 62.40625 49.75 54.046875 
z
M 13.875 23.1875 
Q 13.875 18.65625 15.796875 14.5 
Q 17.71875 10.359375 21.1875 8.171875 
Q 24.65625 6 28.46875 6 
Q 34.03125 6 38.03125 10.484375 
Q 42.046875 14.984375 42.046875 22.703125 
Q 42.046875 30.125 38.078125 34.390625 
Q 34.125 38.671875 28.125 38.671875 
Q 22.171875 38.671875 18.015625 34.390625 
Q 13.875 30.125 13.875 23.1875 
z
" id="ArialMT-36"/>
      </defs>
      <g style="fill:#262626;" transform="translate(82.046939 116.793594)scale(0.11 -0.11)">
       <use xlink:href="#ArialMT-36"/>
      </g>
     </g>
    </g>
    <g id="xtick_4">
     <g id="line2d_4">
      <g>
       <use style="fill:#262626;stroke:#262626;stroke-width:0.8;" x="99.054545" xlink:href="#m98415bf63e" y="101.92"/>
      </g>
     </g>
     <g id="text_4">
      <!-- 8 -->
      <defs>
       <path d="M 17.671875 38.8125 
Q 12.203125 40.828125 9.5625 44.53125 
Q 6.9375 48.25 6.9375 53.421875 
Q 6.9375 61.234375 12.546875 66.546875 
Q 18.171875 71.875 27.484375 71.875 
Q 36.859375 71.875 42.578125 66.421875 
Q 48.296875 60.984375 48.296875 53.171875 
Q 48.296875 48.1875 45.671875 44.5 
Q 43.0625 40.828125 37.75 38.8125 
Q 44.34375 36.671875 47.78125 31.875 
Q 51.21875 27.09375 51.21875 20.453125 
Q 51.21875 11.28125 44.71875 5.03125 
Q 38.234375 -1.21875 27.640625 -1.21875 
Q 17.046875 -1.21875 10.546875 5.046875 
Q 4.046875 11.328125 4.046875 20.703125 
Q 4.046875 27.6875 7.59375 32.390625 
Q 11.140625 37.109375 17.671875 38.8125 
z
M 15.921875 53.71875 
Q 15.921875 48.640625 19.1875 45.40625 
Q 22.46875 42.1875 27.6875 42.1875 
Q 32.765625 42.1875 36.015625 45.375 
Q 39.265625 48.578125 39.265625 53.21875 
Q 39.265625 58.0625 35.90625 61.359375 
Q 32.5625 64.65625 27.59375 64.65625 
Q 22.5625 64.65625 19.234375 61.421875 
Q 15.921875 58.203125 15.921875 53.71875 
z
M 13.09375 20.65625 
Q 13.09375 16.890625 14.875 13.375 
Q 16.65625 9.859375 20.171875 7.921875 
Q 23.6875 6 27.734375 6 
Q 34.03125 6 38.125 10.046875 
Q 42.234375 14.109375 42.234375 20.359375 
Q 42.234375 26.703125 38.015625 30.859375 
Q 33.796875 35.015625 27.4375 35.015625 
Q 21.234375 35.015625 17.15625 30.90625 
Q 13.09375 26.8125 13.09375 20.65625 
z
" id="ArialMT-38"/>
      </defs>
      <g style="fill:#262626;" transform="translate(95.99603 116.793594)scale(0.11 -0.11)">
       <use xlink:href="#ArialMT-38"/>
      </g>
     </g>
    </g>
    <g id="xtick_5">
     <g id="line2d_5">
      <g>
       <use style="fill:#262626;stroke:#262626;stroke-width:0.8;" x="113.003636" xlink:href="#m98415bf63e" y="101.92"/>
      </g>
     </g>
     <g id="text_5">
      <!-- 10 -->
      <defs>
       <path d="M 37.25 0 
L 28.46875 0 
L 28.46875 56 
Q 25.296875 52.984375 20.140625 49.953125 
Q 14.984375 46.921875 10.890625 45.40625 
L 10.890625 53.90625 
Q 18.265625 57.375 23.78125 62.296875 
Q 29.296875 67.234375 31.59375 71.875 
L 37.25 71.875 
z
" id="ArialMT-31"/>
       <path d="M 4.15625 35.296875 
Q 4.15625 48 6.765625 55.734375 
Q 9.375 63.484375 14.515625 67.671875 
Q 19.671875 71.875 27.484375 71.875 
Q 33.25 71.875 37.59375 69.546875 
Q 41.9375 67.234375 44.765625 62.859375 
Q 47.609375 58.5 49.21875 52.21875 
Q 50.828125 45.953125 50.828125 35.296875 
Q 50.828125 22.703125 48.234375 14.96875 
Q 45.65625 7.234375 40.5 3 
Q 35.359375 -1.21875 27.484375 -1.21875 
Q 17.140625 -1.21875 11.234375 6.203125 
Q 4.15625 15.140625 4.15625 35.296875 
z
M 13.1875 35.296875 
Q 13.1875 17.671875 17.3125 11.828125 
Q 21.4375 6 27.484375 6 
Q 33.546875 6 37.671875 11.859375 
Q 41.796875 17.71875 41.796875 35.296875 
Q 41.796875 52.984375 37.671875 58.78125 
Q 33.546875 64.59375 27.390625 64.59375 
Q 21.34375 64.59375 17.71875 59.46875 
Q 13.1875 52.9375 13.1875 35.296875 
z
" id="ArialMT-30"/>
      </defs>
      <g style="fill:#262626;" transform="translate(106.886605 116.793594)scale(0.11 -0.11)">
       <use xlink:href="#ArialMT-31"/>
       <use x="55.615234" xlink:href="#ArialMT-30"/>
      </g>
     </g>
    </g>
    <g id="xtick_6">
     <g id="line2d_6">
      <g>
       <use style="fill:#262626;stroke:#262626;stroke-width:0.8;" x="126.952727" xlink:href="#m98415bf63e" y="101.92"/>
      </g>
     </g>
     <g id="text_6">
      <!-- 12 -->
      <g style="fill:#262626;" transform="translate(120.835696 116.793594)scale(0.11 -0.11)">
       <use xlink:href="#ArialMT-31"/>
       <use x="55.615234" xlink:href="#ArialMT-32"/>
      </g>
     </g>
    </g>
    <g id="text_7">
     <!-- pH -->
     <defs>
      <path d="M 6.59375 -19.875 
L 6.59375 51.859375 
L 14.59375 51.859375 
L 14.59375 45.125 
Q 17.4375 49.078125 21 51.046875 
Q 24.5625 53.03125 29.640625 53.03125 
Q 36.28125 53.03125 41.359375 49.609375 
Q 46.4375 46.1875 49.015625 39.953125 
Q 51.609375 33.734375 51.609375 26.3125 
Q 51.609375 18.359375 48.75 11.984375 
Q 45.90625 5.609375 40.453125 2.21875 
Q 35.015625 -1.171875 29 -1.171875 
Q 24.609375 -1.171875 21.109375 0.6875 
Q 17.625 2.546875 15.375 5.375 
L 15.375 -19.875 
z
M 14.546875 25.640625 
Q 14.546875 15.625 18.59375 10.84375 
Q 22.65625 6.0625 28.421875 6.0625 
Q 34.28125 6.0625 38.453125 11.015625 
Q 42.625 15.96875 42.625 26.375 
Q 42.625 36.28125 38.546875 41.203125 
Q 34.46875 46.140625 28.8125 46.140625 
Q 23.1875 46.140625 18.859375 40.890625 
Q 14.546875 35.640625 14.546875 25.640625 
z
" id="ArialMT-70"/>
      <path d="M 8.015625 0 
L 8.015625 71.578125 
L 17.484375 71.578125 
L 17.484375 42.1875 
L 54.6875 42.1875 
L 54.6875 71.578125 
L 64.15625 71.578125 
L 64.15625 0 
L 54.6875 0 
L 54.6875 33.734375 
L 17.484375 33.734375 
L 17.484375 0 
z
" id="ArialMT-48"/>
     </defs>
     <g style="fill:#262626;" transform="translate(85.049453 130.853437)scale(0.11 -0.11)">
      <use xlink:href="#ArialMT-70"/>
      <use x="55.615234" xlink:href="#ArialMT-48"/>
     </g>
    </g>
   </g>
   <g id="matplotlib.axis_2">
    <g id="ytick_1">
     <g id="line2d_7">
      <defs>
       <path d="M 0 0 
L -3.5 0 
" id="md0dce1c31c" style="stroke:#262626;stroke-width:0.8;"/>
      </defs>
      <g>
       <use style="fill:#262626;stroke:#262626;stroke-width:0.8;" x="53.72" xlink:href="#md0dce1c31c" y="92.721232"/>
      </g>
     </g>
     <g id="text_8">
      <!-- 0 -->
      <g style="fill:#262626;" transform="translate(40.602969 96.658029)scale(0.11 -0.11)">
       <use xlink:href="#ArialMT-30"/>
      </g>
     </g>
    </g>
    <g id="ytick_2">
     <g id="line2d_8">
      <g>
       <use style="fill:#262626;stroke:#262626;stroke-width:0.8;" x="53.72" xlink:href="#md0dce1c31c" y="57.554204"/>
      </g>
     </g>
     <g id="text_9">
      <!-- 50 -->
      <defs>
       <path d="M 4.15625 18.75 
L 13.375 19.53125 
Q 14.40625 12.796875 18.140625 9.390625 
Q 21.875 6 27.15625 6 
Q 33.5 6 37.890625 10.78125 
Q 42.28125 15.578125 42.28125 23.484375 
Q 42.28125 31 38.0625 35.34375 
Q 33.84375 39.703125 27 39.703125 
Q 22.75 39.703125 19.328125 37.765625 
Q 15.921875 35.84375 13.96875 32.765625 
L 5.71875 33.84375 
L 12.640625 70.609375 
L 48.25 70.609375 
L 48.25 62.203125 
L 19.671875 62.203125 
L 15.828125 42.96875 
Q 22.265625 47.46875 29.34375 47.46875 
Q 38.71875 47.46875 45.15625 40.96875 
Q 51.609375 34.46875 51.609375 24.265625 
Q 51.609375 14.546875 45.953125 7.46875 
Q 39.0625 -1.21875 27.15625 -1.21875 
Q 17.390625 -1.21875 11.203125 4.25 
Q 5.03125 9.71875 4.15625 18.75 
z
" id="ArialMT-35"/>
      </defs>
      <g style="fill:#262626;" transform="translate(34.485938 61.491001)scale(0.11 -0.11)">
       <use xlink:href="#ArialMT-35"/>
       <use x="55.615234" xlink:href="#ArialMT-30"/>
      </g>
     </g>
    </g>
    <g id="ytick_3">
     <g id="line2d_9">
      <g>
       <use style="fill:#262626;stroke:#262626;stroke-width:0.8;" x="53.72" xlink:href="#md0dce1c31c" y="22.387177"/>
      </g>
     </g>
     <g id="text_10">
      <!-- 100 -->
      <g style="fill:#262626;" transform="translate(28.368906 26.323974)scale(0.11 -0.11)">
       <use xlink:href="#ArialMT-31"/>
       <use x="55.615234" xlink:href="#ArialMT-30"/>
       <use x="111.230469" xlink:href="#ArialMT-30"/>
      </g>
     </g>
    </g>
    <g id="text_11">
     <!-- Free energy ($k_B T$) -->
     <defs>
      <path d="M 8.203125 0 
L 8.203125 71.578125 
L 56.5 71.578125 
L 56.5 63.140625 
L 17.671875 63.140625 
L 17.671875 40.96875 
L 51.265625 40.96875 
L 51.265625 32.515625 
L 17.671875 32.515625 
L 17.671875 0 
z
" id="ArialMT-46"/>
      <path d="M 6.5 0 
L 6.5 51.859375 
L 14.40625 51.859375 
L 14.40625 44 
Q 17.4375 49.515625 20 51.265625 
Q 22.5625 53.03125 25.640625 53.03125 
Q 30.078125 53.03125 34.671875 50.203125 
L 31.640625 42.046875 
Q 28.421875 43.953125 25.203125 43.953125 
Q 22.3125 43.953125 20.015625 42.21875 
Q 17.71875 40.484375 16.75 37.40625 
Q 15.28125 32.71875 15.28125 27.15625 
L 15.28125 0 
z
" id="ArialMT-72"/>
      <path d="M 42.09375 16.703125 
L 51.171875 15.578125 
Q 49.03125 7.625 43.21875 3.21875 
Q 37.40625 -1.171875 28.375 -1.171875 
Q 17 -1.171875 10.328125 5.828125 
Q 3.65625 12.84375 3.65625 25.484375 
Q 3.65625 38.578125 10.390625 45.796875 
Q 17.140625 53.03125 27.875 53.03125 
Q 38.28125 53.03125 44.875 45.953125 
Q 51.46875 38.875 51.46875 26.03125 
Q 51.46875 25.25 51.421875 23.6875 
L 12.75 23.6875 
Q 13.234375 15.140625 17.578125 10.59375 
Q 21.921875 6.0625 28.421875 6.0625 
Q 33.25 6.0625 36.671875 8.59375 
Q 40.09375 11.140625 42.09375 16.703125 
z
M 13.234375 30.90625 
L 42.1875 30.90625 
Q 41.609375 37.453125 38.875 40.71875 
Q 34.671875 45.796875 27.984375 45.796875 
Q 21.921875 45.796875 17.796875 41.75 
Q 13.671875 37.703125 13.234375 30.90625 
z
" id="ArialMT-65"/>
      <path id="ArialMT-20"/>
      <path d="M 6.59375 0 
L 6.59375 51.859375 
L 14.5 51.859375 
L 14.5 44.484375 
Q 20.21875 53.03125 31 53.03125 
Q 35.6875 53.03125 39.625 51.34375 
Q 43.5625 49.65625 45.515625 46.921875 
Q 47.46875 44.1875 48.25 40.4375 
Q 48.734375 37.984375 48.734375 31.890625 
L 48.734375 0 
L 39.9375 0 
L 39.9375 31.546875 
Q 39.9375 36.921875 38.90625 39.578125 
Q 37.890625 42.234375 35.28125 43.8125 
Q 32.671875 45.40625 29.15625 45.40625 
Q 23.53125 45.40625 19.453125 41.84375 
Q 15.375 38.28125 15.375 28.328125 
L 15.375 0 
z
" id="ArialMT-6e"/>
      <path d="M 4.984375 -4.296875 
L 13.53125 -5.5625 
Q 14.0625 -9.515625 16.5 -11.328125 
Q 19.78125 -13.765625 25.4375 -13.765625 
Q 31.546875 -13.765625 34.859375 -11.328125 
Q 38.1875 -8.890625 39.359375 -4.5 
Q 40.046875 -1.8125 39.984375 6.78125 
Q 34.234375 0 25.640625 0 
Q 14.9375 0 9.078125 7.71875 
Q 3.21875 15.4375 3.21875 26.21875 
Q 3.21875 33.640625 5.90625 39.90625 
Q 8.59375 46.1875 13.6875 49.609375 
Q 18.796875 53.03125 25.6875 53.03125 
Q 34.859375 53.03125 40.828125 45.609375 
L 40.828125 51.859375 
L 48.921875 51.859375 
L 48.921875 7.03125 
Q 48.921875 -5.078125 46.453125 -10.125 
Q 44 -15.1875 38.640625 -18.109375 
Q 33.296875 -21.046875 25.484375 -21.046875 
Q 16.21875 -21.046875 10.5 -16.875 
Q 4.78125 -12.703125 4.984375 -4.296875 
z
M 12.25 26.859375 
Q 12.25 16.65625 16.296875 11.96875 
Q 20.359375 7.28125 26.46875 7.28125 
Q 32.515625 7.28125 36.609375 11.9375 
Q 40.71875 16.609375 40.71875 26.5625 
Q 40.71875 36.078125 36.5 40.90625 
Q 32.28125 45.75 26.3125 45.75 
Q 20.453125 45.75 16.34375 40.984375 
Q 12.25 36.234375 12.25 26.859375 
z
" id="ArialMT-67"/>
      <path d="M 6.203125 -19.96875 
L 5.21875 -11.71875 
Q 8.109375 -12.5 10.25 -12.5 
Q 13.1875 -12.5 14.9375 -11.515625 
Q 16.703125 -10.546875 17.828125 -8.796875 
Q 18.65625 -7.46875 20.515625 -2.25 
Q 20.75 -1.515625 21.296875 -0.09375 
L 1.609375 51.859375 
L 11.078125 51.859375 
L 21.875 21.828125 
Q 23.96875 16.109375 25.640625 9.8125 
Q 27.15625 15.875 29.25 21.625 
L 40.328125 51.859375 
L 49.125 51.859375 
L 29.390625 -0.875 
Q 26.21875 -9.421875 24.46875 -12.640625 
Q 22.125 -17 19.09375 -19.015625 
Q 16.0625 -21.046875 11.859375 -21.046875 
Q 9.328125 -21.046875 6.203125 -19.96875 
z
" id="ArialMT-79"/>
      <path d="M 23.390625 -21.046875 
Q 16.109375 -11.859375 11.078125 0.4375 
Q 6.0625 12.75 6.0625 25.921875 
Q 6.0625 37.546875 9.8125 48.1875 
Q 14.203125 60.546875 23.390625 72.796875 
L 29.6875 72.796875 
Q 23.78125 62.640625 21.875 58.296875 
Q 18.890625 51.5625 17.1875 44.234375 
Q 15.09375 35.109375 15.09375 25.875 
Q 15.09375 2.390625 29.6875 -21.046875 
z
" id="ArialMT-28"/>
      <path d="M 18.3125 75.984375 
L 27.296875 75.984375 
L 18.703125 31.6875 
L 49.515625 54.6875 
L 61.1875 54.6875 
L 26.8125 28.515625 
L 51.90625 0 
L 41.015625 0 
L 17.671875 26.703125 
L 12.5 0 
L 3.515625 0 
z
" id="DejaVuSans-Oblique-6b"/>
      <path d="M 16.890625 72.90625 
L 42.09375 72.90625 
Q 52.34375 72.90625 57.421875 69.09375 
Q 62.5 65.28125 62.5 57.625 
Q 62.5 50.59375 58.125 45.484375 
Q 53.765625 40.375 46.6875 39.3125 
Q 52.734375 37.9375 55.765625 34.078125 
Q 58.796875 30.21875 58.796875 23.78125 
Q 58.796875 12.796875 50.65625 6.390625 
Q 42.53125 0 28.421875 0 
L 2.6875 0 
z
M 19.28125 34.8125 
L 14.109375 8.109375 
L 29.984375 8.109375 
Q 38.921875 8.109375 43.75 12.203125 
Q 48.578125 16.3125 48.578125 23.78125 
Q 48.578125 29.546875 45.375 32.171875 
Q 42.1875 34.8125 35.109375 34.8125 
z
M 25.09375 64.796875 
L 20.796875 42.828125 
L 35.5 42.828125 
Q 43.359375 42.828125 47.78125 46.234375 
Q 52.203125 49.65625 52.203125 55.71875 
Q 52.203125 60.453125 49.21875 62.625 
Q 46.234375 64.796875 39.703125 64.796875 
z
" id="DejaVuSans-Oblique-42"/>
      <path d="M 5.90625 72.90625 
L 67.578125 72.90625 
L 66.015625 64.59375 
L 39.984375 64.59375 
L 27.484375 0 
L 17.578125 0 
L 30.078125 64.59375 
L 4.296875 64.59375 
z
" id="DejaVuSans-Oblique-54"/>
      <path d="M 12.359375 -21.046875 
L 6.0625 -21.046875 
Q 20.65625 2.390625 20.65625 25.875 
Q 20.65625 35.0625 18.5625 44.09375 
Q 16.890625 51.421875 13.921875 58.15625 
Q 12.015625 62.546875 6.0625 72.796875 
L 12.359375 72.796875 
Q 21.53125 60.546875 25.921875 48.1875 
Q 29.6875 37.546875 29.6875 25.921875 
Q 29.6875 12.75 24.625 0.4375 
Q 19.578125 -11.859375 12.359375 -21.046875 
z
" id="ArialMT-29"/>
     </defs>
     <g style="fill:#262626;" transform="translate(21.948906 101.96)rotate(-90)scale(0.11 -0.11)">
      <use transform="translate(0 0.015625)" xlink:href="#ArialMT-46"/>
      <use transform="translate(61.083984 0.015625)" xlink:href="#ArialMT-72"/>
      <use transform="translate(94.384766 0.015625)" xlink:href="#ArialMT-65"/>
      <use transform="translate(150 0.015625)" xlink:href="#ArialMT-65"/>
      <use transform="translate(205.615234 0.015625)" xlink:href="#ArialMT-20"/>
      <use transform="translate(233.398438 0.015625)" xlink:href="#ArialMT-65"/>
      <use transform="translate(289.013672 0.015625)" xlink:href="#ArialMT-6e"/>
      <use transform="translate(344.628906 0.015625)" xlink:href="#ArialMT-65"/>
      <use transform="translate(400.244141 0.015625)" xlink:href="#ArialMT-72"/>
      <use transform="translate(433.544922 0.015625)" xlink:href="#ArialMT-67"/>
      <use transform="translate(489.160156 0.015625)" xlink:href="#ArialMT-79"/>
      <use transform="translate(539.160156 0.015625)" xlink:href="#ArialMT-20"/>
      <use transform="translate(566.943359 0.015625)" xlink:href="#ArialMT-28"/>
      <use transform="translate(600.244141 0.015625)" xlink:href="#DejaVuSans-Oblique-6b"/>
      <use transform="translate(658.154297 -16.390625)scale(0.7)" xlink:href="#DejaVuSans-Oblique-42"/>
      <use transform="translate(708.911133 0.015625)" xlink:href="#DejaVuSans-Oblique-54"/>
      <use transform="translate(769.995117 0.015625)" xlink:href="#ArialMT-29"/>
     </g>
    </g>
   </g>
   <g id="patch_3">
    <path d="M 53.72 101.92 
L 53.72 13.56 
" style="fill:none;stroke:#262626;stroke-linecap:square;stroke-linejoin:miter;stroke-width:0.8;"/>
   </g>
   <g id="patch_4">
    <path d="M 53.72 101.92 
L 130.44 101.92 
" style="fill:none;stroke:#262626;stroke-linecap:square;stroke-linejoin:miter;stroke-width:0.8;"/>
   </g>
   <g id="line2d_10">
    <path clip-path="url(#p4d06ca43e0)" d="M 57.207273 66.161408 
L 57.904727 65.675557 
L 58.602182 65.189707 
L 59.299636 64.703856 
L 59.997091 64.218006 
L 60.694545 63.732155 
L 61.392 63.246305 
L 62.089455 62.760455 
L 62.786909 62.274604 
L 63.484364 61.788754 
L 64.181818 61.302903 
L 64.879273 60.817053 
L 65.576727 60.331202 
L 66.274182 59.845352 
L 66.971636 59.359501 
L 67.669091 58.873651 
L 68.366545 58.387801 
L 69.064 57.90195 
L 69.761455 57.4161 
L 70.458909 56.930249 
L 71.156364 56.444399 
L 71.853818 55.958548 
L 72.551273 55.472698 
L 73.248727 54.986848 
L 73.946182 54.500997 
L 74.643636 54.015147 
L 75.341091 53.529296 
L 76.038545 53.043446 
L 76.736 52.557595 
L 77.433455 52.071745 
L 78.130909 51.585894 
L 78.828364 51.100044 
L 79.525818 50.614194 
L 80.223273 50.128343 
L 80.920727 49.642493 
L 81.618182 49.156642 
L 82.315636 48.670792 
L 83.013091 48.184941 
L 83.710545 47.699091 
L 84.408 47.21324 
L 85.105455 46.72739 
L 85.802909 46.24154 
L 86.500364 45.755689 
L 87.197818 45.269839 
L 87.895273 44.783988 
L 88.592727 44.298138 
L 89.290182 43.812287 
L 89.987636 43.326437 
L 90.685091 42.840587 
L 91.382545 42.354736 
L 92.08 41.868886 
L 92.777455 41.383035 
L 93.474909 40.897185 
L 94.172364 40.411334 
L 94.869818 39.925484 
L 95.567273 39.439633 
L 96.264727 38.953783 
L 96.962182 38.467933 
L 97.659636 37.982082 
L 98.357091 37.496232 
L 99.054545 37.010381 
L 99.752 36.524531 
L 100.449455 36.03868 
L 101.146909 35.55283 
L 101.844364 35.066979 
L 102.541818 34.581129 
L 103.239273 34.095279 
L 103.936727 33.609428 
L 104.634182 33.123578 
L 105.331636 32.637727 
L 106.029091 32.151877 
L 106.726545 31.666026 
L 107.424 31.180176 
L 108.121455 30.694326 
L 108.818909 30.208475 
L 109.516364 29.722625 
L 110.213818 29.236774 
L 110.911273 28.750924 
L 111.608727 28.265073 
L 112.306182 27.779223 
L 113.003636 27.293372 
L 113.701091 26.807522 
L 114.398545 26.321672 
L 115.096 25.835821 
L 115.793455 25.349971 
L 116.490909 24.86412 
L 117.188364 24.37827 
L 117.885818 23.892419 
L 118.583273 23.406569 
L 119.280727 22.920718 
L 119.978182 22.434868 
L 120.675636 21.949018 
L 121.373091 21.463167 
L 122.070545 20.977317 
L 122.768 20.491466 
L 123.465455 20.005616 
L 124.162909 19.519765 
L 124.860364 19.033915 
L 125.557818 18.548065 
L 126.255273 18.062214 
L 126.952727 17.576364 
" style="fill:none;stroke:#2166ac;stroke-linecap:round;stroke-width:1.5;"/>
   </g>
   <g id="line2d_11">
    <path clip-path="url(#p4d06ca43e0)" d="M 57.207273 82.696518 
L 57.904727 82.372617 
L 58.602182 82.048717 
L 59.299636 81.724817 
L 59.997091 81.400916 
L 60.694545 81.077016 
L 61.392 80.753116 
L 62.089455 80.429216 
L 62.786909 80.105315 
L 63.484364 79.781415 
L 64.181818 79.457515 
L 64.879273 79.133614 
L 65.576727 78.809714 
L 66.274182 78.485814 
L 66.971636 78.161913 
L 67.669091 77.838013 
L 68.366545 77.514113 
L 69.064 77.190213 
L 69.761455 76.866312 
L 70.458909 76.542412 
L 71.156364 76.218512 
L 71.853818 75.894611 
L 72.551273 75.570711 
L 73.248727 75.246811 
L 73.946182 74.922911 
L 74.643636 74.59901 
L 75.341091 74.27511 
L 76.038545 73.95121 
L 76.736 73.627309 
L 77.433455 73.303409 
L 78.130909 72.979509 
L 78.828364 72.655609 
L 79.525818 72.331708 
L 80.223273 72.007808 
L 80.920727 71.683908 
L 81.618182 71.360007 
L 82.315636 71.036107 
L 83.013091 70.712207 
L 83.710545 70.388306 
L 84.408 70.064406 
L 85.105455 69.740506 
L 85.802909 69.416606 
L 86.500364 69.092705 
L 87.197818 68.768805 
L 87.895273 68.444905 
L 88.592727 68.121004 
L 89.290182 67.797104 
L 89.987636 67.473204 
L 90.685091 67.149304 
L 91.382545 66.825403 
L 92.08 66.501503 
L 92.777455 66.177603 
L 93.474909 65.853702 
L 94.172364 65.529802 
L 94.869818 65.205902 
L 95.567273 64.882001 
L 96.264727 64.558101 
L 96.962182 64.234201 
L 97.659636 63.910301 
L 98.357091 63.5864 
L 99.054545 63.2625 
L 99.752 62.9386 
L 100.449455 62.614699 
L 101.146909 62.290799 
L 101.844364 61.966899 
L 102.541818 61.642999 
L 103.239273 61.319098 
L 103.936727 60.995198 
L 104.634182 60.671298 
L 105.331636 60.347397 
L 106.029091 60.023497 
L 106.726545 59.699597 
L 107.424 59.375696 
L 108.121455 59.051796 
L 108.818909 58.727896 
L 109.516364 58.403996 
L 110.213818 58.080095 
L 110.911273 57.756195 
L 111.608727 57.432295 
L 112.306182 57.108394 
L 113.003636 56.784494 
L 113.701091 56.460594 
L 114.398545 56.136694 
L 115.096 55.812793 
L 115.793455 55.488893 
L 116.490909 55.164993 
L 117.188364 54.841092 
L 117.885818 54.517192 
L 118.583273 54.193292 
L 119.280727 53.869391 
L 119.978182 53.545491 
L 120.675636 53.221591 
L 121.373091 52.897691 
L 122.070545 52.57379 
L 122.768 52.24989 
L 123.465455 51.92599 
L 124.162909 51.602089 
L 124.860364 51.278189 
L 125.557818 50.954289 
L 126.255273 50.630389 
L 126.952727 50.306488 
" style="fill:none;stroke:#4393c3;stroke-linecap:round;stroke-width:1.5;"/>
   </g>
   <g id="line2d_12">
    <path clip-path="url(#p4d06ca43e0)" d="M 57.207273 90.162419 
L 57.904727 89.838519 
L 58.602182 89.514619 
L 59.299636 89.190718 
L 59.997091 88.866818 
L 60.694545 88.542918 
L 61.392 88.219018 
L 62.089455 87.895117 
L 62.786909 87.571217 
L 63.484364 87.247317 
L 64.181818 86.923416 
L 64.879273 86.599516 
L 65.576727 86.275616 
L 66.274182 85.951716 
L 66.971636 85.627815 
L 67.669091 85.303915 
L 68.366545 84.980015 
L 69.064 84.656114 
L 69.761455 84.332214 
L 70.458909 84.008314 
L 71.156364 83.684413 
L 71.853818 83.360513 
L 72.551273 83.036613 
L 73.248727 82.712713 
L 73.946182 82.388812 
L 74.643636 82.064912 
L 75.341091 81.741012 
L 76.038545 81.417111 
L 76.736 81.093211 
L 77.433455 80.769311 
L 78.130909 80.445411 
L 78.828364 80.12151 
L 79.525818 79.79761 
L 80.223273 79.47371 
L 80.920727 79.149809 
L 81.618182 78.825909 
L 82.315636 78.502009 
L 83.013091 78.178109 
L 83.710545 77.854208 
L 84.408 77.530308 
L 85.105455 77.206408 
L 85.802909 76.882507 
L 86.500364 76.558607 
L 87.197818 76.234707 
L 87.895273 75.910806 
L 88.592727 75.586906 
L 89.290182 75.263006 
L 89.987636 74.939106 
L 90.685091 74.615205 
L 91.382545 74.291305 
L 92.08 73.967405 
L 92.777455 73.643504 
L 93.474909 73.319604 
L 94.172364 72.995704 
L 94.869818 72.671804 
L 95.567273 72.347903 
L 96.264727 72.024003 
L 96.962182 71.700103 
L 97.659636 71.376202 
L 98.357091 71.052302 
L 99.054545 70.728402 
L 99.752 70.404501 
L 100.449455 70.080601 
L 101.146909 69.756701 
L 101.844364 69.432801 
L 102.541818 69.1089 
L 103.239273 68.785 
L 103.936727 68.4611 
L 104.634182 68.137199 
L 105.331636 67.813299 
L 106.029091 67.489399 
L 106.726545 67.165499 
L 107.424 66.841598 
L 108.121455 66.517698 
L 108.818909 66.193798 
L 109.516364 65.869897 
L 110.213818 65.545997 
L 110.911273 65.222097 
L 111.608727 64.898196 
L 112.306182 64.574296 
L 113.003636 64.250396 
L 113.701091 63.926496 
L 114.398545 63.602595 
L 115.096 63.278695 
L 115.793455 62.954795 
L 116.490909 62.630894 
L 117.188364 62.306994 
L 117.885818 61.983094 
L 118.583273 61.659194 
L 119.280727 61.335293 
L 119.978182 61.011393 
L 120.675636 60.687493 
L 121.373091 60.363592 
L 122.070545 60.039692 
L 122.768 59.715792 
L 123.465455 59.391891 
L 124.162909 59.067991 
L 124.860364 58.744091 
L 125.557818 58.420191 
L 126.255273 58.09629 
L 126.952727 57.77239 
" style="fill:none;stroke:#4393c3;stroke-linecap:round;stroke-width:1.5;"/>
   </g>
   <g id="line2d_13">
    <path clip-path="url(#p4d06ca43e0)" d="M 57.207273 73.173849 
L 57.904727 72.849949 
L 58.602182 72.526048 
L 59.299636 72.202148 
L 59.997091 71.878248 
L 60.694545 71.554348 
L 61.392 71.230447 
L 62.089455 70.906547 
L 62.786909 70.582647 
L 63.484364 70.258746 
L 64.181818 69.934846 
L 64.879273 69.610946 
L 65.576727 69.287045 
L 66.274182 68.963145 
L 66.971636 68.639245 
L 67.669091 68.315345 
L 68.366545 67.991444 
L 69.064 67.667544 
L 69.761455 67.343644 
L 70.458909 67.019743 
L 71.156364 66.695843 
L 71.853818 66.371943 
L 72.551273 66.048043 
L 73.248727 65.724142 
L 73.946182 65.400242 
L 74.643636 65.076342 
L 75.341091 64.752441 
L 76.038545 64.428541 
L 76.736 64.104641 
L 77.433455 63.78074 
L 78.130909 63.45684 
L 78.828364 63.13294 
L 79.525818 62.80904 
L 80.223273 62.485139 
L 80.920727 62.161239 
L 81.618182 61.837339 
L 82.315636 61.513438 
L 83.013091 61.189538 
L 83.710545 60.865638 
L 84.408 60.541738 
L 85.105455 60.217837 
L 85.802909 59.893937 
L 86.500364 59.570037 
L 87.197818 59.246136 
L 87.895273 58.922236 
L 88.592727 58.598336 
L 89.290182 58.274435 
L 89.987636 57.950535 
L 90.685091 57.626635 
L 91.382545 57.302735 
L 92.08 56.978834 
L 92.777455 56.654934 
L 93.474909 56.331034 
L 94.172364 56.007133 
L 94.869818 55.683233 
L 95.567273 55.359333 
L 96.264727 55.035433 
L 96.962182 54.711532 
L 97.659636 54.387632 
L 98.357091 54.063732 
L 99.054545 53.739831 
L 99.752 53.415931 
L 100.449455 53.092031 
L 101.146909 52.76813 
L 101.844364 52.44423 
L 102.541818 52.12033 
L 103.239273 51.79643 
L 103.936727 51.472529 
L 104.634182 51.148629 
L 105.331636 50.824729 
L 106.029091 50.500828 
L 106.726545 50.176928 
L 107.424 49.853028 
L 108.121455 49.529128 
L 108.818909 49.205227 
L 109.516364 48.881327 
L 110.213818 48.557427 
L 110.911273 48.233526 
L 111.608727 47.909626 
L 112.306182 47.585726 
L 113.003636 47.261826 
L 113.701091 46.937925 
L 114.398545 46.614025 
L 115.096 46.290125 
L 115.793455 45.966224 
L 116.490909 45.642324 
L 117.188364 45.318424 
L 117.885818 44.994523 
L 118.583273 44.670623 
L 119.280727 44.346723 
L 119.978182 44.022823 
L 120.675636 43.698922 
L 121.373091 43.375022 
L 122.070545 43.051122 
L 122.768 42.727221 
L 123.465455 42.403321 
L 124.162909 42.079421 
L 124.860364 41.755521 
L 125.557818 41.43162 
L 126.255273 41.10772 
L 126.952727 40.78382 
" style="fill:none;stroke:#4393c3;stroke-linecap:round;stroke-width:1.5;"/>
   </g>
   <g id="line2d_14">
    <path clip-path="url(#p4d06ca43e0)" d="M 57.207273 74.226525 
L 57.904727 74.388475 
L 58.602182 74.550425 
L 59.299636 74.712375 
L 59.997091 74.874326 
L 60.694545 75.036276 
L 61.392 75.198226 
L 62.089455 75.360176 
L 62.786909 75.522126 
L 63.484364 75.684076 
L 64.181818 75.846026 
L 64.879273 76.007977 
L 65.576727 76.169927 
L 66.274182 76.331877 
L 66.971636 76.493827 
L 67.669091 76.655777 
L 68.366545 76.817727 
L 69.064 76.979677 
L 69.761455 77.141628 
L 70.458909 77.303578 
L 71.156364 77.465528 
L 71.853818 77.627478 
L 72.551273 77.789428 
L 73.248727 77.951378 
L 73.946182 78.113328 
L 74.643636 78.275279 
L 75.341091 78.437229 
L 76.038545 78.599179 
L 76.736 78.761129 
L 77.433455 78.923079 
L 78.130909 79.085029 
L 78.828364 79.246979 
L 79.525818 79.40893 
L 80.223273 79.57088 
L 80.920727 79.73283 
L 81.618182 79.89478 
L 82.315636 80.05673 
L 83.013091 80.21868 
L 83.710545 80.38063 
L 84.408 80.542581 
L 85.105455 80.704531 
L 85.802909 80.866481 
L 86.500364 81.028431 
L 87.197818 81.190381 
L 87.895273 81.352331 
L 88.592727 81.514282 
L 89.290182 81.676232 
L 89.987636 81.838182 
L 90.685091 82.000132 
L 91.382545 82.162082 
L 92.08 82.324032 
L 92.777455 82.485982 
L 93.474909 82.647933 
L 94.172364 82.809883 
L 94.869818 82.971833 
L 95.567273 83.133783 
L 96.264727 83.295733 
L 96.962182 83.457683 
L 97.659636 83.619633 
L 98.357091 83.781584 
L 99.054545 83.943534 
L 99.752 84.105484 
L 100.449455 84.267434 
L 101.146909 84.429384 
L 101.844364 84.591334 
L 102.541818 84.753284 
L 103.239273 84.915235 
L 103.936727 85.077185 
L 104.634182 85.239135 
L 105.331636 85.401085 
L 106.029091 85.563035 
L 106.726545 85.724985 
L 107.424 85.886935 
L 108.121455 86.048886 
L 108.818909 86.210836 
L 109.516364 86.372786 
L 110.213818 86.534736 
L 110.911273 86.696686 
L 111.608727 86.858636 
L 112.306182 87.020587 
L 113.003636 87.182537 
L 113.701091 87.344487 
L 114.398545 87.506437 
L 115.096 87.668387 
L 115.793455 87.830337 
L 116.490909 87.992287 
L 117.188364 88.154238 
L 117.885818 88.316188 
L 118.583273 88.478138 
L 119.280727 88.640088 
L 119.978182 88.802038 
L 120.675636 88.963988 
L 121.373091 89.125938 
L 122.070545 89.287889 
L 122.768 89.449839 
L 123.465455 89.611789 
L 124.162909 89.773739 
L 124.860364 89.935689 
L 125.557818 90.097639 
L 126.255273 90.259589 
L 126.952727 90.42154 
" style="fill:none;stroke:#f4a582;stroke-linecap:round;stroke-width:1.5;"/>
   </g>
   <g id="line2d_15">
    <path clip-path="url(#p4d06ca43e0)" d="M 57.207273 97.903636 
L 57.904727 97.741686 
L 58.602182 97.579736 
L 59.299636 97.417786 
L 59.997091 97.255836 
L 60.694545 97.093886 
L 61.392 96.931935 
L 62.089455 96.769985 
L 62.786909 96.608035 
L 63.484364 96.446085 
L 64.181818 96.284135 
L 64.879273 96.122185 
L 65.576727 95.960235 
L 66.274182 95.798284 
L 66.971636 95.636334 
L 67.669091 95.474384 
L 68.366545 95.312434 
L 69.064 95.150484 
L 69.761455 94.988534 
L 70.458909 94.826584 
L 71.156364 94.664633 
L 71.853818 94.502683 
L 72.551273 94.340733 
L 73.248727 94.178783 
L 73.946182 94.016833 
L 74.643636 93.854883 
L 75.341091 93.692933 
L 76.038545 93.530982 
L 76.736 93.369032 
L 77.433455 93.207082 
L 78.130909 93.045132 
L 78.828364 92.883182 
L 79.525818 92.721232 
L 80.223273 92.559282 
L 80.920727 92.397331 
L 81.618182 92.235381 
L 82.315636 92.073431 
L 83.013091 91.911481 
L 83.710545 91.749531 
L 84.408 91.587581 
L 85.105455 91.42563 
L 85.802909 91.26368 
L 86.500364 91.10173 
L 87.197818 90.93978 
L 87.895273 90.77783 
L 88.592727 90.61588 
L 89.290182 90.45393 
L 89.987636 90.291979 
L 90.685091 90.130029 
L 91.382545 89.968079 
L 92.08 89.806129 
L 92.777455 89.644179 
L 93.474909 89.482229 
L 94.172364 89.320279 
L 94.869818 89.158328 
L 95.567273 88.996378 
L 96.264727 88.834428 
L 96.962182 88.672478 
L 97.659636 88.510528 
L 98.357091 88.348578 
L 99.054545 88.186628 
L 99.752 88.024677 
L 100.449455 87.862727 
L 101.146909 87.700777 
L 101.844364 87.538827 
L 102.541818 87.376877 
L 103.239273 87.214927 
L 103.936727 87.052977 
L 104.634182 86.891026 
L 105.331636 86.729076 
L 106.029091 86.567126 
L 106.726545 86.405176 
L 107.424 86.243226 
L 108.121455 86.081276 
L 108.818909 85.919326 
L 109.516364 85.757375 
L 110.213818 85.595425 
L 110.911273 85.433475 
L 111.608727 85.271525 
L 112.306182 85.109575 
L 113.003636 84.947625 
L 113.701091 84.785674 
L 114.398545 84.623724 
L 115.096 84.461774 
L 115.793455 84.299824 
L 116.490909 84.137874 
L 117.188364 83.975924 
L 117.885818 83.813974 
L 118.583273 83.652023 
L 119.280727 83.490073 
L 119.978182 83.328123 
L 120.675636 83.166173 
L 121.373091 83.004223 
L 122.070545 82.842273 
L 122.768 82.680323 
L 123.465455 82.518372 
L 124.162909 82.356422 
L 124.860364 82.194472 
L 125.557818 82.032522 
L 126.255273 81.870572 
L 126.952727 81.708622 
" style="fill:none;stroke:#92c5de;stroke-linecap:round;stroke-width:1.5;"/>
   </g>
   <g id="line2d_16">
    <path clip-path="url(#p4d06ca43e0)" d="M 57.207273 83.797779 
L 57.904727 83.635828 
L 58.602182 83.473878 
L 59.299636 83.311928 
L 59.997091 83.149978 
L 60.694545 82.988028 
L 61.392 82.826078 
L 62.089455 82.664128 
L 62.786909 82.502177 
L 63.484364 82.340227 
L 64.181818 82.178277 
L 64.879273 82.016327 
L 65.576727 81.854377 
L 66.274182 81.692427 
L 66.971636 81.530477 
L 67.669091 81.368526 
L 68.366545 81.206576 
L 69.064 81.044626 
L 69.761455 80.882676 
L 70.458909 80.720726 
L 71.156364 80.558776 
L 71.853818 80.396826 
L 72.551273 80.234875 
L 73.248727 80.072925 
L 73.946182 79.910975 
L 74.643636 79.749025 
L 75.341091 79.587075 
L 76.038545 79.425125 
L 76.736 79.263174 
L 77.433455 79.101224 
L 78.130909 78.939274 
L 78.828364 78.777324 
L 79.525818 78.615374 
L 80.223273 78.453424 
L 80.920727 78.291474 
L 81.618182 78.129523 
L 82.315636 77.967573 
L 83.013091 77.805623 
L 83.710545 77.643673 
L 84.408 77.481723 
L 85.105455 77.319773 
L 85.802909 77.157823 
L 86.500364 76.995872 
L 87.197818 76.833922 
L 87.895273 76.671972 
L 88.592727 76.510022 
L 89.290182 76.348072 
L 89.987636 76.186122 
L 90.685091 76.024172 
L 91.382545 75.862221 
L 92.08 75.700271 
L 92.777455 75.538321 
L 93.474909 75.376371 
L 94.172364 75.214421 
L 94.869818 75.052471 
L 95.567273 74.890521 
L 96.264727 74.72857 
L 96.962182 74.56662 
L 97.659636 74.40467 
L 98.357091 74.24272 
L 99.054545 74.08077 
L 99.752 73.91882 
L 100.449455 73.75687 
L 101.146909 73.594919 
L 101.844364 73.432969 
L 102.541818 73.271019 
L 103.239273 73.109069 
L 103.936727 72.947119 
L 104.634182 72.785169 
L 105.331636 72.623218 
L 106.029091 72.461268 
L 106.726545 72.299318 
L 107.424 72.137368 
L 108.121455 71.975418 
L 108.818909 71.813468 
L 109.516364 71.651518 
L 110.213818 71.489567 
L 110.911273 71.327617 
L 111.608727 71.165667 
L 112.306182 71.003717 
L 113.003636 70.841767 
L 113.701091 70.679817 
L 114.398545 70.517867 
L 115.096 70.355916 
L 115.793455 70.193966 
L 116.490909 70.032016 
L 117.188364 69.870066 
L 117.885818 69.708116 
L 118.583273 69.546166 
L 119.280727 69.384216 
L 119.978182 69.222265 
L 120.675636 69.060315 
L 121.373091 68.898365 
L 122.070545 68.736415 
L 122.768 68.574465 
L 123.465455 68.412515 
L 124.162909 68.250565 
L 124.860364 68.088614 
L 125.557818 67.926664 
L 126.255273 67.764714 
L 126.952727 67.602764 
" style="fill:none;stroke:#92c5de;stroke-linecap:round;stroke-width:1.5;"/>
   </g>
   <g id="line2d_17">
    <path clip-path="url(#p4d06ca43e0)" d="M 57.207273 96.81857 
L 57.904727 96.65662 
L 58.602182 96.49467 
L 59.299636 96.33272 
L 59.997091 96.17077 
L 60.694545 96.00882 
L 61.392 95.84687 
L 62.089455 95.684919 
L 62.786909 95.522969 
L 63.484364 95.361019 
L 64.181818 95.199069 
L 64.879273 95.037119 
L 65.576727 94.875169 
L 66.274182 94.713218 
L 66.971636 94.551268 
L 67.669091 94.389318 
L 68.366545 94.227368 
L 69.064 94.065418 
L 69.761455 93.903468 
L 70.458909 93.741518 
L 71.156364 93.579567 
L 71.853818 93.417617 
L 72.551273 93.255667 
L 73.248727 93.093717 
L 73.946182 92.931767 
L 74.643636 92.769817 
L 75.341091 92.607867 
L 76.038545 92.445916 
L 76.736 92.283966 
L 77.433455 92.122016 
L 78.130909 91.960066 
L 78.828364 91.798116 
L 79.525818 91.636166 
L 80.223273 91.474216 
L 80.920727 91.312265 
L 81.618182 91.150315 
L 82.315636 90.988365 
L 83.013091 90.826415 
L 83.710545 90.664465 
L 84.408 90.502515 
L 85.105455 90.340565 
L 85.802909 90.178614 
L 86.500364 90.016664 
L 87.197818 89.854714 
L 87.895273 89.692764 
L 88.592727 89.530814 
L 89.290182 89.368864 
L 89.987636 89.206913 
L 90.685091 89.044963 
L 91.382545 88.883013 
L 92.08 88.721063 
L 92.777455 88.559113 
L 93.474909 88.397163 
L 94.172364 88.235213 
L 94.869818 88.073262 
L 95.567273 87.911312 
L 96.264727 87.749362 
L 96.962182 87.587412 
L 97.659636 87.425462 
L 98.357091 87.263512 
L 99.054545 87.101562 
L 99.752 86.939611 
L 100.449455 86.777661 
L 101.146909 86.615711 
L 101.844364 86.453761 
L 102.541818 86.291811 
L 103.239273 86.129861 
L 103.936727 85.967911 
L 104.634182 85.80596 
L 105.331636 85.64401 
L 106.029091 85.48206 
L 106.726545 85.32011 
L 107.424 85.15816 
L 108.121455 84.99621 
L 108.818909 84.83426 
L 109.516364 84.672309 
L 110.213818 84.510359 
L 110.911273 84.348409 
L 111.608727 84.186459 
L 112.306182 84.024509 
L 113.003636 83.862559 
L 113.701091 83.700609 
L 114.398545 83.538658 
L 115.096 83.376708 
L 115.793455 83.214758 
L 116.490909 83.052808 
L 117.188364 82.890858 
L 117.885818 82.728908 
L 118.583273 82.566957 
L 119.280727 82.405007 
L 119.978182 82.243057 
L 120.675636 82.081107 
L 121.373091 81.919157 
L 122.070545 81.757207 
L 122.768 81.595257 
L 123.465455 81.433306 
L 124.162909 81.271356 
L 124.860364 81.109406 
L 125.557818 80.947456 
L 126.255273 80.785506 
L 126.952727 80.623556 
" style="fill:none;stroke:#92c5de;stroke-linecap:round;stroke-width:1.5;"/>
   </g>
   <g id="line2d_18">
    <path clip-path="url(#p4d06ca43e0)" d="M 57.207273 92.721232 
L 57.904727 92.721232 
L 58.602182 92.721232 
L 59.299636 92.721232 
L 59.997091 92.721232 
L 60.694545 92.721232 
L 61.392 92.721232 
L 62.089455 92.721232 
L 62.786909 92.721232 
L 63.484364 92.721232 
L 64.181818 92.721232 
L 64.879273 92.721232 
L 65.576727 92.721232 
L 66.274182 92.721232 
L 66.971636 92.721232 
L 67.669091 92.721232 
L 68.366545 92.721232 
L 69.064 92.721232 
L 69.761455 92.721232 
L 70.458909 92.721232 
L 71.156364 92.721232 
L 71.853818 92.721232 
L 72.551273 92.721232 
L 73.248727 92.721232 
L 73.946182 92.721232 
L 74.643636 92.721232 
L 75.341091 92.721232 
L 76.038545 92.721232 
L 76.736 92.721232 
L 77.433455 92.721232 
L 78.130909 92.721232 
L 78.828364 92.721232 
L 79.525818 92.721232 
L 80.223273 92.721232 
L 80.920727 92.721232 
L 81.618182 92.721232 
L 82.315636 92.721232 
L 83.013091 92.721232 
L 83.710545 92.721232 
L 84.408 92.721232 
L 85.105455 92.721232 
L 85.802909 92.721232 
L 86.500364 92.721232 
L 87.197818 92.721232 
L 87.895273 92.721232 
L 88.592727 92.721232 
L 89.290182 92.721232 
L 89.987636 92.721232 
L 90.685091 92.721232 
L 91.382545 92.721232 
L 92.08 92.721232 
L 92.777455 92.721232 
L 93.474909 92.721232 
L 94.172364 92.721232 
L 94.869818 92.721232 
L 95.567273 92.721232 
L 96.264727 92.721232 
L 96.962182 92.721232 
L 97.659636 92.721232 
L 98.357091 92.721232 
L 99.054545 92.721232 
L 99.752 92.721232 
L 100.449455 92.721232 
L 101.146909 92.721232 
L 101.844364 92.721232 
L 102.541818 92.721232 
L 103.239273 92.721232 
L 103.936727 92.721232 
L 104.634182 92.721232 
L 105.331636 92.721232 
L 106.029091 92.721232 
L 106.726545 92.721232 
L 107.424 92.721232 
L 108.121455 92.721232 
L 108.818909 92.721232 
L 109.516364 92.721232 
L 110.213818 92.721232 
L 110.911273 92.721232 
L 111.608727 92.721232 
L 112.306182 92.721232 
L 113.003636 92.721232 
L 113.701091 92.721232 
L 114.398545 92.721232 
L 115.096 92.721232 
L 115.793455 92.721232 
L 116.490909 92.721232 
L 117.188364 92.721232 
L 117.885818 92.721232 
L 118.583273 92.721232 
L 119.280727 92.721232 
L 119.978182 92.721232 
L 120.675636 92.721232 
L 121.373091 92.721232 
L 122.070545 92.721232 
L 122.768 92.721232 
L 123.465455 92.721232 
L 124.162909 92.721232 
L 124.860364 92.721232 
L 125.557818 92.721232 
L 126.255273 92.721232 
L 126.952727 92.721232 
" style="fill:none;stroke:#333333;stroke-linecap:round;stroke-width:1.5;"/>
   </g>
   <g id="line2d_19">
    <path clip-path="url(#p4d06ca43e0)" d="M 57.207273 86.388981 
L 57.904727 86.388981 
L 58.602182 86.388981 
L 59.299636 86.388981 
L 59.997091 86.388981 
L 60.694545 86.388981 
L 61.392 86.388981 
L 62.089455 86.388981 
L 62.786909 86.388981 
L 63.484364 86.388981 
L 64.181818 86.388981 
L 64.879273 86.388981 
L 65.576727 86.388981 
L 66.274182 86.388981 
L 66.971636 86.388981 
L 67.669091 86.388981 
L 68.366545 86.388981 
L 69.064 86.388981 
L 69.761455 86.388981 
L 70.458909 86.388981 
L 71.156364 86.388981 
L 71.853818 86.388981 
L 72.551273 86.388981 
L 73.248727 86.388981 
L 73.946182 86.388981 
L 74.643636 86.388981 
L 75.341091 86.388981 
L 76.038545 86.388981 
L 76.736 86.388981 
L 77.433455 86.388981 
L 78.130909 86.388981 
L 78.828364 86.388981 
L 79.525818 86.388981 
L 80.223273 86.388981 
L 80.920727 86.388981 
L 81.618182 86.388981 
L 82.315636 86.388981 
L 83.013091 86.388981 
L 83.710545 86.388981 
L 84.408 86.388981 
L 85.105455 86.388981 
L 85.802909 86.388981 
L 86.500364 86.388981 
L 87.197818 86.388981 
L 87.895273 86.388981 
L 88.592727 86.388981 
L 89.290182 86.388981 
L 89.987636 86.388981 
L 90.685091 86.388981 
L 91.382545 86.388981 
L 92.08 86.388981 
L 92.777455 86.388981 
L 93.474909 86.388981 
L 94.172364 86.388981 
L 94.869818 86.388981 
L 95.567273 86.388981 
L 96.264727 86.388981 
L 96.962182 86.388981 
L 97.659636 86.388981 
L 98.357091 86.388981 
L 99.054545 86.388981 
L 99.752 86.388981 
L 100.449455 86.388981 
L 101.146909 86.388981 
L 101.844364 86.388981 
L 102.541818 86.388981 
L 103.239273 86.388981 
L 103.936727 86.388981 
L 104.634182 86.388981 
L 105.331636 86.388981 
L 106.029091 86.388981 
L 106.726545 86.388981 
L 107.424 86.388981 
L 108.121455 86.388981 
L 108.818909 86.388981 
L 109.516364 86.388981 
L 110.213818 86.388981 
L 110.911273 86.388981 
L 111.608727 86.388981 
L 112.306182 86.388981 
L 113.003636 86.388981 
L 113.701091 86.388981 
L 114.398545 86.388981 
L 115.096 86.388981 
L 115.793455 86.388981 
L 116.490909 86.388981 
L 117.188364 86.388981 
L 117.885818 86.388981 
L 118.583273 86.388981 
L 119.280727 86.388981 
L 119.978182 86.388981 
L 120.675636 86.388981 
L 121.373091 86.388981 
L 122.070545 86.388981 
L 122.768 86.388981 
L 123.465455 86.388981 
L 124.162909 86.388981 
L 124.860364 86.388981 
L 125.557818 86.388981 
L 126.255273 86.388981 
L 126.952727 86.388981 
" style="fill:none;stroke:#333333;stroke-linecap:round;stroke-width:1.5;"/>
   </g>
   <g id="line2d_20">
    <path clip-path="url(#p4d06ca43e0)" d="M 57.207273 88.963988 
L 57.904727 88.963988 
L 58.602182 88.963988 
L 59.299636 88.963988 
L 59.997091 88.963988 
L 60.694545 88.963988 
L 61.392 88.963988 
L 62.089455 88.963988 
L 62.786909 88.963988 
L 63.484364 88.963988 
L 64.181818 88.963988 
L 64.879273 88.963988 
L 65.576727 88.963988 
L 66.274182 88.963988 
L 66.971636 88.963988 
L 67.669091 88.963988 
L 68.366545 88.963988 
L 69.064 88.963988 
L 69.761455 88.963988 
L 70.458909 88.963988 
L 71.156364 88.963988 
L 71.853818 88.963988 
L 72.551273 88.963988 
L 73.248727 88.963988 
L 73.946182 88.963988 
L 74.643636 88.963988 
L 75.341091 88.963988 
L 76.038545 88.963988 
L 76.736 88.963988 
L 77.433455 88.963988 
L 78.130909 88.963988 
L 78.828364 88.963988 
L 79.525818 88.963988 
L 80.223273 88.963988 
L 80.920727 88.963988 
L 81.618182 88.963988 
L 82.315636 88.963988 
L 83.013091 88.963988 
L 83.710545 88.963988 
L 84.408 88.963988 
L 85.105455 88.963988 
L 85.802909 88.963988 
L 86.500364 88.963988 
L 87.197818 88.963988 
L 87.895273 88.963988 
L 88.592727 88.963988 
L 89.290182 88.963988 
L 89.987636 88.963988 
L 90.685091 88.963988 
L 91.382545 88.963988 
L 92.08 88.963988 
L 92.777455 88.963988 
L 93.474909 88.963988 
L 94.172364 88.963988 
L 94.869818 88.963988 
L 95.567273 88.963988 
L 96.264727 88.963988 
L 96.962182 88.963988 
L 97.659636 88.963988 
L 98.357091 88.963988 
L 99.054545 88.963988 
L 99.752 88.963988 
L 100.449455 88.963988 
L 101.146909 88.963988 
L 101.844364 88.963988 
L 102.541818 88.963988 
L 103.239273 88.963988 
L 103.936727 88.963988 
L 104.634182 88.963988 
L 105.331636 88.963988 
L 106.029091 88.963988 
L 106.726545 88.963988 
L 107.424 88.963988 
L 108.121455 88.963988 
L 108.818909 88.963988 
L 109.516364 88.963988 
L 110.213818 88.963988 
L 110.911273 88.963988 
L 111.608727 88.963988 
L 112.306182 88.963988 
L 113.003636 88.963988 
L 113.701091 88.963988 
L 114.398545 88.963988 
L 115.096 88.963988 
L 115.793455 88.963988 
L 116.490909 88.963988 
L 117.188364 88.963988 
L 117.885818 88.963988 
L 118.583273 88.963988 
L 119.280727 88.963988 
L 119.978182 88.963988 
L 120.675636 88.963988 
L 121.373091 88.963988 
L 122.070545 88.963988 
L 122.768 88.963988 
L 123.465455 88.963988 
L 124.162909 88.963988 
L 124.860364 88.963988 
L 125.557818 88.963988 
L 126.255273 88.963988 
L 126.952727 88.963988 
" style="fill:none;stroke:#333333;stroke-linecap:round;stroke-width:1.5;"/>
   </g>
  </g>
 </g>
 <defs>
  <clipPath id="p4d06ca43e0">
   <rect height="88.36" width="76.72" x="53.72" y="13.56"/>
  </clipPath>
 </defs>
</svg>
