<?xml version="1.0" encoding="utf-8" standalone="no"?>
<!DOCTYPE svg PUBLIC "-//W3C//DTD SVG 1.1//EN"
  "http://www.w3.org/Graphics/SVG/1.1/DTD/svg11.dtd">
<!-- Created with matplotlib (http://matplotlib.org/) -->
<svg height="144pt" version="1.1" viewBox="0 0 144 144" width="144pt" xmlns="http://www.w3.org/2000/svg" xmlns:xlink="http://www.w3.org/1999/xlink">
 <defs>
  <style type="text/css">
*{stroke-linecap:butt;stroke-linejoin:round;}
  </style>
 </defs>
 <g id="figure_1">
  <g id="patch_1">
   <path d="M 0 144 
L 144 144 
L 144 0 
L 0 0 
z
" style="fill:#ffffff;"/>
  </g>
  <g id="axes_1">
   <g id="patch_2">
    <path d="M 48.38 101.92 
L 130.44 101.92 
L 130.44 27.48 
L 48.38 27.48 
z
" style="fill:#ffffff;"/>
   </g>
   <g id="matplotlib.axis_1">
    <g id="xtick_1">
     <g id="line2d_1">
      <defs>
       <path d="M 0 0 
L 0 3.5 
" id="m3a783d4a68" style="stroke:#262626;stroke-width:0.8;"/>
      </defs>
      <g>
       <use style="fill:#262626;stroke:#262626;stroke-width:0.8;" x="52.11" xlink:href="#m3a783d4a68" y="101.92"/>
      </g>
     </g>
     <g id="text_1">
      <!-- 2 -->
      <defs>
       <path d="M 50.34375 8.453125 
L 50.34375 0 
L 3.03125 0 
Q 2.9375 3.171875 4.046875 6.109375 
Q 5.859375 10.9375 9.828125 15.625 
Q 13.8125 20.3125 21.34375 26.46875 
Q 33.015625 36.03125 37.109375 41.625 
Q 41.21875 47.21875 41.21875 52.203125 
Q 41.21875 57.421875 37.46875 61 
Q 33.734375 64.59375 27.734375 64.59375 
Q 21.390625 64.59375 17.578125 60.78125 
Q 13.765625 56.984375 13.71875 50.25 
L 4.6875 51.171875 
Q 5.609375 61.28125 11.65625 66.578125 
Q 17.71875 71.875 27.9375 71.875 
Q 38.234375 71.875 44.234375 66.15625 
Q 50.25 60.453125 50.25 52 
Q 50.25 47.703125 48.484375 43.546875 
Q 46.734375 39.40625 42.65625 34.8125 
Q 38.578125 30.21875 29.109375 22.21875 
Q 21.1875 15.578125 18.9375 13.203125 
Q 16.703125 10.84375 15.234375 8.453125 
z
" id="ArialMT-32"/>
      </defs>
      <g style="fill:#262626;" transform="translate(49.051484 116.793594)scale(0.11 -0.11)">
       <use xlink:href="#ArialMT-32"/>
      </g>
     </g>
    </g>
    <g id="xtick_2">
     <g id="line2d_2">
      <g>
       <use style="fill:#262626;stroke:#262626;stroke-width:0.8;" x="67.03" xlink:href="#m3a783d4a68" y="101.92"/>
      </g>
     </g>
     <g id="text_2">
      <!-- 4 -->
      <defs>
       <path d="M 32.328125 0 
L 32.328125 17.140625 
L 1.265625 17.140625 
L 1.265625 25.203125 
L 33.9375 71.578125 
L 41.109375 71.578125 
L 41.109375 25.203125 
L 50.78125 25.203125 
L 50.78125 17.140625 
L 41.109375 17.140625 
L 41.109375 0 
z
M 32.328125 25.203125 
L 32.328125 57.46875 
L 9.90625 25.203125 
z
" id="ArialMT-34"/>
      </defs>
      <g style="fill:#262626;" transform="translate(63.971484 116.793594)scale(0.11 -0.11)">
       <use xlink:href="#ArialMT-34"/>
      </g>
     </g>
    </g>
    <g id="xtick_3">
     <g id="line2d_3">
      <g>
       <use style="fill:#262626;stroke:#262626;stroke-width:0.8;" x="81.95" xlink:href="#m3a783d4a68" y="101.92"/>
      </g>
     </g>
     <g id="text_3">
      <!-- 6 -->
      <defs>
       <path d="M 49.75 54.046875 
L 41.015625 53.375 
Q 39.84375 58.546875 37.703125 60.890625 
Q 34.125 64.65625 28.90625 64.65625 
Q 24.703125 64.65625 21.53125 62.3125 
Q 17.390625 59.28125 14.984375 53.46875 
Q 12.59375 47.65625 12.5 36.921875 
Q 15.671875 41.75 20.265625 44.09375 
Q 24.859375 46.4375 29.890625 46.4375 
Q 38.671875 46.4375 44.84375 39.96875 
Q 51.03125 33.5 51.03125 23.25 
Q 51.03125 16.5 48.125 10.71875 
Q 45.21875 4.9375 40.140625 1.859375 
Q 35.0625 -1.21875 28.609375 -1.21875 
Q 17.625 -1.21875 10.6875 6.859375 
Q 3.765625 14.9375 3.765625 33.5 
Q 3.765625 54.25 11.421875 63.671875 
Q 18.109375 71.875 29.4375 71.875 
Q 37.890625 71.875 43.28125 67.140625 
Q 48.6875 62.40625 49.75 54.046875 
z
M 13.875 23.1875 
Q 13.875 18.65625 15.796875 14.5 
Q 17.71875 10.359375 21.1875 8.171875 
Q 24.65625 6 28.46875 6 
Q 34.03125 6 38.03125 10.484375 
Q 42.046875 14.984375 42.046875 22.703125 
Q 42.046875 30.125 38.078125 34.390625 
Q 34.125 38.671875 28.125 38.671875 
Q 22.171875 38.671875 18.015625 34.390625 
Q 13.875 30.125 13.875 23.1875 
z
" id="ArialMT-36"/>
      </defs>
      <g style="fill:#262626;" transform="translate(78.891484 116.793594)scale(0.11 -0.11)">
       <use xlink:href="#ArialMT-36"/>
      </g>
     </g>
    </g>
    <g id="xtick_4">
     <g id="line2d_4">
      <g>
       <use style="fill:#262626;stroke:#262626;stroke-width:0.8;" x="96.87" xlink:href="#m3a783d4a68" y="101.92"/>
      </g>
     </g>
     <g id="text_4">
      <!-- 8 -->
      <defs>
       <path d="M 17.671875 38.8125 
Q 12.203125 40.828125 9.5625 44.53125 
Q 6.9375 48.25 6.9375 53.421875 
Q 6.9375 61.234375 12.546875 66.546875 
Q 18.171875 71.875 27.484375 71.875 
Q 36.859375 71.875 42.578125 66.421875 
Q 48.296875 60.984375 48.296875 53.171875 
Q 48.296875 48.1875 45.671875 44.5 
Q 43.0625 40.828125 37.75 38.8125 
Q 44.34375 36.671875 47.78125 31.875 
Q 51.21875 27.09375 51.21875 20.453125 
Q 51.21875 11.28125 44.71875 5.03125 
Q 38.234375 -1.21875 27.640625 -1.21875 
Q 17.046875 -1.21875 10.546875 5.046875 
Q 4.046875 11.328125 4.046875 20.703125 
Q 4.046875 27.6875 7.59375 32.390625 
Q 11.140625 37.109375 17.671875 38.8125 
z
M 15.921875 53.71875 
Q 15.921875 48.640625 19.1875 45.40625 
Q 22.46875 42.1875 27.6875 42.1875 
Q 32.765625 42.1875 36.015625 45.375 
Q 39.265625 48.578125 39.265625 53.21875 
Q 39.265625 58.0625 35.90625 61.359375 
Q 32.5625 64.65625 27.59375 64.65625 
Q 22.5625 64.65625 19.234375 61.421875 
Q 15.921875 58.203125 15.921875 53.71875 
z
M 13.09375 20.65625 
Q 13.09375 16.890625 14.875 13.375 
Q 16.65625 9.859375 20.171875 7.921875 
Q 23.6875 6 27.734375 6 
Q 34.03125 6 38.125 10.046875 
Q 42.234375 14.109375 42.234375 20.359375 
Q 42.234375 26.703125 38.015625 30.859375 
Q 33.796875 35.015625 27.4375 35.015625 
Q 21.234375 35.015625 17.15625 30.90625 
Q 13.09375 26.8125 13.09375 20.65625 
z
" id="ArialMT-38"/>
      </defs>
      <g style="fill:#262626;" transform="translate(93.811484 116.793594)scale(0.11 -0.11)">
       <use xlink:href="#ArialMT-38"/>
      </g>
     </g>
    </g>
    <g id="xtick_5">
     <g id="line2d_5">
      <g>
       <use style="fill:#262626;stroke:#262626;stroke-width:0.8;" x="111.79" xlink:href="#m3a783d4a68" y="101.92"/>
      </g>
     </g>
     <g id="text_5">
      <!-- 10 -->
      <defs>
       <path d="M 37.25 0 
L 28.46875 0 
L 28.46875 56 
Q 25.296875 52.984375 20.140625 49.953125 
Q 14.984375 46.921875 10.890625 45.40625 
L 10.890625 53.90625 
Q 18.265625 57.375 23.78125 62.296875 
Q 29.296875 67.234375 31.59375 71.875 
L 37.25 71.875 
z
" id="ArialMT-31"/>
       <path d="M 4.15625 35.296875 
Q 4.15625 48 6.765625 55.734375 
Q 9.375 63.484375 14.515625 67.671875 
Q 19.671875 71.875 27.484375 71.875 
Q 33.25 71.875 37.59375 69.546875 
Q 41.9375 67.234375 44.765625 62.859375 
Q 47.609375 58.5 49.21875 52.21875 
Q 50.828125 45.953125 50.828125 35.296875 
Q 50.828125 22.703125 48.234375 14.96875 
Q 45.65625 7.234375 40.5 3 
Q 35.359375 -1.21875 27.484375 -1.21875 
Q 17.140625 -1.21875 11.234375 6.203125 
Q 4.15625 15.140625 4.15625 35.296875 
z
M 13.1875 35.296875 
Q 13.1875 17.671875 17.3125 11.828125 
Q 21.4375 6 27.484375 6 
Q 33.546875 6 37.671875 11.859375 
Q 41.796875 17.71875 41.796875 35.296875 
Q 41.796875 52.984375 37.671875 58.78125 
Q 33.546875 64.59375 27.390625 64.59375 
Q 21.34375 64.59375 17.71875 59.46875 
Q 13.1875 52.9375 13.1875 35.296875 
z
" id="ArialMT-30"/>
      </defs>
      <g style="fill:#262626;" transform="translate(105.672969 116.793594)scale(0.11 -0.11)">
       <use xlink:href="#ArialMT-31"/>
       <use x="55.615234" xlink:href="#ArialMT-30"/>
      </g>
     </g>
    </g>
    <g id="xtick_6">
     <g id="line2d_6">
      <g>
       <use style="fill:#262626;stroke:#262626;stroke-width:0.8;" x="126.71" xlink:href="#m3a783d4a68" y="101.92"/>
      </g>
     </g>
     <g id="text_6">
      <!-- 12 -->
      <g style="fill:#262626;" transform="translate(120.592969 116.793594)scale(0.11 -0.11)">
       <use xlink:href="#ArialMT-31"/>
       <use x="55.615234" xlink:href="#ArialMT-32"/>
      </g>
     </g>
    </g>
    <g id="text_7">
     <!-- pH -->
     <defs>
      <path d="M 6.59375 -19.875 
L 6.59375 51.859375 
L 14.59375 51.859375 
L 14.59375 45.125 
Q 17.4375 49.078125 21 51.046875 
Q 24.5625 53.03125 29.640625 53.03125 
Q 36.28125 53.03125 41.359375 49.609375 
Q 46.4375 46.1875 49.015625 39.953125 
Q 51.609375 33.734375 51.609375 26.3125 
Q 51.609375 18.359375 48.75 11.984375 
Q 45.90625 5.609375 40.453125 2.21875 
Q 35.015625 -1.171875 29 -1.171875 
Q 24.609375 -1.171875 21.109375 0.6875 
Q 17.625 2.546875 15.375 5.375 
L 15.375 -19.875 
z
M 14.546875 25.640625 
Q 14.546875 15.625 18.59375 10.84375 
Q 22.65625 6.0625 28.421875 6.0625 
Q 34.28125 6.0625 38.453125 11.015625 
Q 42.625 15.96875 42.625 26.375 
Q 42.625 36.28125 38.546875 41.203125 
Q 34.46875 46.140625 28.8125 46.140625 
Q 23.1875 46.140625 18.859375 40.890625 
Q 14.546875 35.640625 14.546875 25.640625 
z
" id="ArialMT-70"/>
      <path d="M 8.015625 0 
L 8.015625 71.578125 
L 17.484375 71.578125 
L 17.484375 42.1875 
L 54.6875 42.1875 
L 54.6875 71.578125 
L 64.15625 71.578125 
L 64.15625 0 
L 54.6875 0 
L 54.6875 33.734375 
L 17.484375 33.734375 
L 17.484375 0 
z
" id="ArialMT-48"/>
     </defs>
     <g style="fill:#262626;" transform="translate(82.379453 130.853437)scale(0.11 -0.11)">
      <use xlink:href="#ArialMT-70"/>
      <use x="55.615234" xlink:href="#ArialMT-48"/>
     </g>
    </g>
   </g>
   <g id="matplotlib.axis_2">
    <g id="ytick_1">
     <g id="line2d_7">
      <defs>
       <path d="M 0 0 
L -3.5 0 
" id="m63bd4b6a81" style="stroke:#262626;stroke-width:0.8;"/>
      </defs>
      <g>
       <use style="fill:#262626;stroke:#262626;stroke-width:0.8;" x="48.38" xlink:href="#m63bd4b6a81" y="98.537277"/>
      </g>
     </g>
     <g id="text_8">
      <!-- −1 -->
      <defs>
       <path d="M 52.828125 31.203125 
L 5.5625 31.203125 
L 5.5625 39.40625 
L 52.828125 39.40625 
z
" id="ArialMT-2212"/>
      </defs>
      <g style="fill:#262626;" transform="translate(28.838281 102.474074)scale(0.11 -0.11)">
       <use xlink:href="#ArialMT-2212"/>
       <use x="58.398438" xlink:href="#ArialMT-31"/>
      </g>
     </g>
    </g>
    <g id="ytick_2">
     <g id="line2d_8">
      <g>
       <use style="fill:#262626;stroke:#262626;stroke-width:0.8;" x="48.38" xlink:href="#m63bd4b6a81" y="31.177665"/>
      </g>
     </g>
     <g id="text_9">
      <!-- 0 -->
      <g style="fill:#262626;" transform="translate(35.262969 35.114462)scale(0.11 -0.11)">
       <use xlink:href="#ArialMT-30"/>
      </g>
     </g>
    </g>
    <g id="text_10">
     <!-- $\langle q_\mathsf{total} \rangle$ -->
     <defs>
      <path d="M 8.9375 31.34375 
L 22.703125 75.875 
L 31 75.875 
L 17.234375 31.34375 
L 31 -13.1875 
L 22.703125 -13.1875 
z
" id="DejaVuSans-27e8"/>
      <path d="M 41.703125 8.203125 
Q 38.09375 3.46875 33.171875 1.015625 
Q 28.265625 -1.421875 22.3125 -1.421875 
Q 14.015625 -1.421875 9.296875 4.171875 
Q 4.59375 9.765625 4.59375 19.578125 
Q 4.59375 27.484375 7.5 34.859375 
Q 10.40625 42.234375 15.828125 48.09375 
Q 19.34375 51.90625 23.90625 53.953125 
Q 28.46875 56 33.5 56 
Q 39.546875 56 43.453125 53.609375 
Q 47.359375 51.21875 49.125 46.390625 
L 50.6875 54.59375 
L 59.71875 54.59375 
L 45.125 -20.609375 
L 36.078125 -20.609375 
z
M 13.921875 20.90625 
Q 13.921875 13.671875 16.9375 9.890625 
Q 19.96875 6.109375 25.6875 6.109375 
Q 34.1875 6.109375 40.1875 14.234375 
Q 46.1875 22.359375 46.1875 33.984375 
Q 46.1875 41.015625 43.078125 44.75 
Q 39.984375 48.484375 34.1875 48.484375 
Q 29.9375 48.484375 26.3125 46.5 
Q 22.703125 44.53125 20.015625 40.71875 
Q 17.1875 36.71875 15.546875 31.34375 
Q 13.921875 25.984375 13.921875 20.90625 
z
" id="DejaVuSans-Oblique-71"/>
      <path d="M 18.3125 70.21875 
L 18.3125 54.6875 
L 36.8125 54.6875 
L 36.8125 47.703125 
L 18.3125 47.703125 
L 18.3125 18.015625 
Q 18.3125 11.328125 20.140625 9.421875 
Q 21.96875 7.515625 27.59375 7.515625 
L 36.8125 7.515625 
L 36.8125 0 
L 27.59375 0 
Q 17.1875 0 13.234375 3.875 
Q 9.28125 7.765625 9.28125 18.015625 
L 9.28125 47.703125 
L 2.6875 47.703125 
L 2.6875 54.6875 
L 9.28125 54.6875 
L 9.28125 70.21875 
z
" id="DejaVuSans-74"/>
      <path d="M 30.609375 48.390625 
Q 23.390625 48.390625 19.1875 42.75 
Q 14.984375 37.109375 14.984375 27.296875 
Q 14.984375 17.484375 19.15625 11.84375 
Q 23.34375 6.203125 30.609375 6.203125 
Q 37.796875 6.203125 41.984375 11.859375 
Q 46.1875 17.53125 46.1875 27.296875 
Q 46.1875 37.015625 41.984375 42.703125 
Q 37.796875 48.390625 30.609375 48.390625 
z
M 30.609375 56 
Q 42.328125 56 49.015625 48.375 
Q 55.71875 40.765625 55.71875 27.296875 
Q 55.71875 13.875 49.015625 6.21875 
Q 42.328125 -1.421875 30.609375 -1.421875 
Q 18.84375 -1.421875 12.171875 6.21875 
Q 5.515625 13.875 5.515625 27.296875 
Q 5.515625 40.765625 12.171875 48.375 
Q 18.84375 56 30.609375 56 
z
" id="DejaVuSans-6f"/>
      <path d="M 34.28125 27.484375 
Q 23.390625 27.484375 19.1875 25 
Q 14.984375 22.515625 14.984375 16.5 
Q 14.984375 11.71875 18.140625 8.90625 
Q 21.296875 6.109375 26.703125 6.109375 
Q 34.1875 6.109375 38.703125 11.40625 
Q 43.21875 16.703125 43.21875 25.484375 
L 43.21875 27.484375 
z
M 52.203125 31.203125 
L 52.203125 0 
L 43.21875 0 
L 43.21875 8.296875 
Q 40.140625 3.328125 35.546875 0.953125 
Q 30.953125 -1.421875 24.3125 -1.421875 
Q 15.921875 -1.421875 10.953125 3.296875 
Q 6 8.015625 6 15.921875 
Q 6 25.140625 12.171875 29.828125 
Q 18.359375 34.515625 30.609375 34.515625 
L 43.21875 34.515625 
L 43.21875 35.40625 
Q 43.21875 41.609375 39.140625 45 
Q 35.0625 48.390625 27.6875 48.390625 
Q 23 48.390625 18.546875 47.265625 
Q 14.109375 46.140625 10.015625 43.890625 
L 10.015625 52.203125 
Q 14.9375 54.109375 19.578125 55.046875 
Q 24.21875 56 28.609375 56 
Q 40.484375 56 46.34375 49.84375 
Q 52.203125 43.703125 52.203125 31.203125 
z
" id="DejaVuSans-61"/>
      <path d="M 9.421875 75.984375 
L 18.40625 75.984375 
L 18.40625 0 
L 9.421875 0 
z
" id="DejaVuSans-6c"/>
      <path d="M 30.078125 31.34375 
L 16.3125 -13.1875 
L 8.015625 -13.1875 
L 21.78125 31.34375 
L 8.015625 75.875 
L 16.3125 75.875 
z
" id="DejaVuSans-27e9"/>
     </defs>
     <g style="fill:#262626;" transform="translate(22.528281 81.475)rotate(-90)scale(0.11 -0.11)">
      <use transform="translate(0 0.125)" xlink:href="#DejaVuSans-27e8"/>
      <use transform="translate(39.013672 0.125)" xlink:href="#DejaVuSans-Oblique-71"/>
      <use transform="translate(102.490234 -16.28125)scale(0.7)" xlink:href="#DejaVuSans-74"/>
      <use transform="translate(129.936523 -16.28125)scale(0.7)" xlink:href="#DejaVuSans-6f"/>
      <use transform="translate(172.763672 -16.28125)scale(0.7)" xlink:href="#DejaVuSans-74"/>
      <use transform="translate(200.209961 -16.28125)scale(0.7)" xlink:href="#DejaVuSans-61"/>
      <use transform="translate(243.105469 -16.28125)scale(0.7)" xlink:href="#DejaVuSans-6c"/>
      <use transform="translate(265.288086 0.125)" xlink:href="#DejaVuSans-27e9"/>
     </g>
    </g>
   </g>
   <g id="PolyCollection_1">
    <defs>
     <path d="M 52.11 -112.822333 
L 52.11 -112.822333 
L 52.856 -112.822333 
L 53.602 -112.822332 
L 54.348 -112.822331 
L 55.094 -112.82233 
L 55.84 -112.822329 
L 56.586 -112.822327 
L 57.332 -112.822326 
L 58.078 -112.822323 
L 58.824 -112.82232 
L 59.57 -112.822316 
L 60.316 -112.822311 
L 61.062 -112.822305 
L 61.808 -112.822298 
L 62.554 -112.822288 
L 63.3 -112.822276 
L 64.046 -112.822261 
L 64.792 -112.822242 
L 65.538 -112.822218 
L 66.284 -112.822187 
L 67.03 -112.822149 
L 67.776 -112.822101 
L 68.522 -112.822041 
L 69.268 -112.821965 
L 70.014 -112.821869 
L 70.76 -112.821748 
L 71.506 -112.821596 
L 72.252 -112.821405 
L 72.998 -112.821164 
L 73.744 -112.820861 
L 74.49 -112.82048 
L 75.236 -112.819999 
L 75.982 -112.819395 
L 76.728 -112.818633 
L 77.474 -112.817675 
L 78.22 -112.816469 
L 78.966 -112.81495 
L 79.712 -112.813038 
L 80.458 -112.810631 
L 81.204 -112.807601 
L 81.95 -112.803788 
L 82.696 -112.798987 
L 83.442 -112.792944 
L 84.188 -112.785338 
L 84.934 -112.775766 
L 85.68 -112.763718 
L 86.426 -112.748557 
L 87.172 -112.729481 
L 87.918 -112.70548 
L 88.664 -112.67529 
L 89.41 -112.637321 
L 90.156 -112.589581 
L 90.902 -112.529577 
L 91.648 -112.454189 
L 92.394 -112.359522 
L 93.14 -112.240723 
L 93.886 -112.091762 
L 94.632 -111.905174 
L 95.378 -111.671754 
L 96.124 -111.380217 
L 96.87 -111.016825 
L 97.616 -110.564999 
L 98.362 -110.004964 
L 99.108 -109.313475 
L 99.854 -108.46373 
L 100.6 -107.425594 
L 101.346 -106.166318 
L 102.092 -104.651947 
L 102.838 -102.849633 
L 103.584 -100.730962 
L 104.33 -98.276275 
L 105.076 -95.47963 
L 105.822 -92.353687 
L 106.568 -88.933414 
L 107.314 -85.277346 
L 108.06 -81.465354 
L 108.806 -77.592612 
L 109.552 -73.760512 
L 110.298 -70.06627 
L 111.044 -66.593416 
L 111.79 -63.405053 
L 112.536 -60.540864 
L 113.282 -58.017732 
L 114.028 -55.833065 
L 114.774 -53.96954 
L 115.52 -52.400121 
L 116.266 -51.092547 
L 117.012 -50.012867 
L 117.758 -49.127952 
L 118.504 -48.407069 
L 119.25 -47.822716 
L 119.996 -47.350939 
L 120.742 -46.971283 
L 121.488 -46.66656 
L 122.234 -46.422493 
L 122.98 -46.227336 
L 123.726 -46.071498 
L 124.472 -45.947191 
L 125.218 -45.848119 
L 125.964 -45.769215 
L 126.71 -45.706406 
L 126.71 -45.706406 
L 126.71 -45.463636 
L 125.964 -45.464099 
L 125.218 -45.464634 
L 124.472 -45.465272 
L 123.726 -45.466045 
L 122.98 -45.466995 
L 122.234 -45.468173 
L 121.488 -45.469642 
L 120.742 -45.471479 
L 119.996 -45.473784 
L 119.25 -45.476678 
L 118.504 -45.480318 
L 117.758 -45.484898 
L 117.012 -45.490664 
L 116.266 -45.497925 
L 115.52 -45.507074 
L 114.774 -45.518603 
L 114.028 -45.533138 
L 113.282 -45.551472 
L 112.536 -45.574609 
L 111.79 -45.603825 
L 111.044 -45.640746 
L 110.298 -45.687449 
L 109.552 -45.746596 
L 108.806 -45.821611 
L 108.06 -45.916921 
L 107.314 -46.038275 
L 106.568 -46.19319 
L 105.822 -46.39155 
L 105.076 -46.646447 
L 104.33 -46.975323 
L 103.584 -47.40155 
L 102.838 -47.956567 
L 102.092 -48.682672 
L 101.346 -49.636521 
L 100.6 -50.893028 
L 99.854 -52.54878 
L 99.108 -54.722767 
L 98.362 -57.550284 
L 97.616 -61.163644 
L 96.87 -65.653306 
L 96.124 -71.009888 
L 95.378 -77.065346 
L 94.632 -83.47316 
L 93.886 -89.766166 
L 93.14 -95.484811 
L 92.394 -100.308518 
L 91.648 -104.116255 
L 90.902 -106.960218 
L 90.156 -108.99338 
L 89.41 -110.399378 
L 88.664 -111.348135 
L 87.918 -111.977118 
L 87.172 -112.388886 
L 86.426 -112.656075 
L 85.68 -112.82839 
L 84.934 -112.939058 
L 84.188 -113.009947 
L 83.442 -113.055285 
L 82.696 -113.084267 
L 81.95 -113.102797 
L 81.204 -113.114657 
L 80.458 -113.122261 
L 79.712 -113.127148 
L 78.966 -113.1303 
L 78.22 -113.132342 
L 77.474 -113.133671 
L 76.728 -113.134542 
L 75.982 -113.135117 
L 75.236 -113.1355 
L 74.49 -113.135757 
L 73.744 -113.135932 
L 72.998 -113.136053 
L 72.252 -113.136137 
L 71.506 -113.136196 
L 70.76 -113.136239 
L 70.014 -113.13627 
L 69.268 -113.136292 
L 68.522 -113.136309 
L 67.776 -113.136322 
L 67.03 -113.136331 
L 66.284 -113.136338 
L 65.538 -113.136344 
L 64.792 -113.136348 
L 64.046 -113.136352 
L 63.3 -113.136354 
L 62.554 -113.136356 
L 61.808 -113.136358 
L 61.062 -113.136359 
L 60.316 -113.13636 
L 59.57 -113.136361 
L 58.824 -113.136362 
L 58.078 -113.136362 
L 57.332 -113.136362 
L 56.586 -113.136363 
L 55.84 -113.136363 
L 55.094 -113.136363 
L 54.348 -113.136363 
L 53.602 -113.136363 
L 52.856 -113.136364 
L 52.11 -113.136364 
z
" id="m3bdaed1f84" style="stroke:#ffffff;stroke-opacity:0.7;"/>
    </defs>
    <g clip-path="url(#paaef95b3db)">
     <use style="fill:#8c0800;fill-opacity:0.7;stroke:#ffffff;stroke-opacity:0.7;" x="0" xlink:href="#m3bdaed1f84" y="144"/>
    </g>
   </g>
   <g id="line2d_9">
    <path clip-path="url(#paaef95b3db)" d="M 52.11 31.177667 
L 52.856 31.177667 
L 53.602 31.177668 
L 54.348 31.177669 
L 55.094 31.17767 
L 55.84 31.177671 
L 56.586 31.177673 
L 57.332 31.177674 
L 58.078 31.177677 
L 58.824 31.17768 
L 59.57 31.177684 
L 60.316 31.177689 
L 61.062 31.177695 
L 61.808 31.177702 
L 62.554 31.177712 
L 63.3 31.177724 
L 64.046 31.177739 
L 64.792 31.177758 
L 65.538 31.177782 
L 66.284 31.177813 
L 67.03 31.177851 
L 67.776 31.177899 
L 68.522 31.177959 
L 69.268 31.178035 
L 70.014 31.178131 
L 70.76 31.178252 
L 71.506 31.178404 
L 72.252 31.178595 
L 72.998 31.178836 
L 73.744 31.179139 
L 74.49 31.17952 
L 75.236 31.180001 
L 75.982 31.180605 
L 76.728 31.181367 
L 77.474 31.182325 
L 78.22 31.183531 
L 78.966 31.18505 
L 79.712 31.186962 
L 80.458 31.189369 
L 81.204 31.192399 
L 81.95 31.196212 
L 82.696 31.201013 
L 83.442 31.207056 
L 84.188 31.214662 
L 84.934 31.224234 
L 85.68 31.236282 
L 86.426 31.251443 
L 87.172 31.270519 
L 87.918 31.29452 
L 88.664 31.32471 
L 89.41 31.362679 
L 90.156 31.410419 
L 90.902 31.470423 
L 91.648 31.545811 
L 92.394 31.640478 
L 93.14 31.759277 
L 93.886 31.908238 
L 94.632 32.094826 
L 95.378 32.328246 
L 96.124 32.619783 
L 96.87 32.983175 
L 97.616 33.435001 
L 98.362 33.995036 
L 99.108 34.686525 
L 99.854 35.53627 
L 100.6 36.574406 
L 101.346 37.833682 
L 102.092 39.348053 
L 102.838 41.150367 
L 103.584 43.269038 
L 104.33 45.723725 
L 105.076 48.52037 
L 105.822 51.646313 
L 106.568 55.066586 
L 107.314 58.722654 
L 108.06 62.534646 
L 108.806 66.407388 
L 109.552 70.239488 
L 110.298 73.93373 
L 111.044 77.406584 
L 111.79 80.594947 
L 112.536 83.459136 
L 113.282 85.982268 
L 114.028 88.166935 
L 114.774 90.03046 
L 115.52 91.599879 
L 116.266 92.907453 
L 117.012 93.987133 
L 117.758 94.872048 
L 118.504 95.592931 
L 119.25 96.177284 
L 119.996 96.649061 
L 120.742 97.028717 
L 121.488 97.33344 
L 122.234 97.577507 
L 122.98 97.772664 
L 123.726 97.928502 
L 124.472 98.052809 
L 125.218 98.151881 
L 125.964 98.230785 
L 126.71 98.293594 
" style="fill:none;stroke:#333333;stroke-dasharray:1.5,2.475;stroke-dashoffset:0;stroke-width:1.5;"/>
   </g>
   <g id="line2d_10">
    <path clip-path="url(#paaef95b3db)" d="M 52.11 30.863636 
L 52.856 30.863636 
L 53.602 30.863637 
L 54.348 30.863637 
L 55.094 30.863637 
L 55.84 30.863637 
L 56.586 30.863637 
L 57.332 30.863638 
L 58.078 30.863638 
L 58.824 30.863638 
L 59.57 30.863639 
L 60.316 30.86364 
L 61.062 30.863641 
L 61.808 30.863642 
L 62.554 30.863644 
L 63.3 30.863646 
L 64.046 30.863648 
L 64.792 30.863652 
L 65.538 30.863656 
L 66.284 30.863662 
L 67.03 30.863669 
L 67.776 30.863678 
L 68.522 30.863691 
L 69.268 30.863708 
L 70.014 30.86373 
L 70.76 30.863761 
L 71.506 30.863804 
L 72.252 30.863863 
L 72.998 30.863947 
L 73.744 30.864068 
L 74.49 30.864243 
L 75.236 30.8645 
L 75.982 30.864883 
L 76.728 30.865458 
L 77.474 30.866329 
L 78.22 30.867658 
L 78.966 30.8697 
L 79.712 30.872852 
L 80.458 30.877739 
L 81.204 30.885343 
L 81.95 30.897203 
L 82.696 30.915733 
L 83.442 30.944715 
L 84.188 30.990053 
L 84.934 31.060942 
L 85.68 31.17161 
L 86.426 31.343925 
L 87.172 31.611114 
L 87.918 32.022882 
L 88.664 32.651865 
L 89.41 33.600622 
L 90.156 35.00662 
L 90.902 37.039782 
L 91.648 39.883745 
L 92.394 43.691482 
L 93.14 48.515189 
L 93.886 54.233834 
L 94.632 60.52684 
L 95.378 66.934654 
L 96.124 72.990112 
L 96.87 78.346694 
L 97.616 82.836356 
L 98.362 86.449716 
L 99.108 89.277233 
L 99.854 91.45122 
L 100.6 93.106972 
L 101.346 94.363479 
L 102.092 95.317328 
L 102.838 96.043433 
L 103.584 96.59845 
L 104.33 97.024677 
L 105.076 97.353553 
L 105.822 97.60845 
L 106.568 97.80681 
L 107.314 97.961725 
L 108.06 98.083079 
L 108.806 98.178389 
L 109.552 98.253404 
L 110.298 98.312551 
L 111.044 98.359254 
L 111.79 98.396175 
L 112.536 98.425391 
L 113.282 98.448528 
L 114.028 98.466862 
L 114.774 98.481397 
L 115.52 98.492926 
L 116.266 98.502075 
L 117.012 98.509336 
L 117.758 98.515102 
L 118.504 98.519682 
L 119.25 98.523322 
L 119.996 98.526216 
L 120.742 98.528521 
L 121.488 98.530358 
L 122.234 98.531827 
L 122.98 98.533005 
L 123.726 98.533955 
L 124.472 98.534728 
L 125.218 98.535366 
L 125.964 98.535901 
L 126.71 98.536364 
" style="fill:none;stroke:#333333;stroke-linecap:round;stroke-width:1.5;"/>
   </g>
   <g id="patch_3">
    <path d="M 48.38 101.92 
L 48.38 27.48 
" style="fill:none;stroke:#262626;stroke-linecap:square;stroke-linejoin:miter;stroke-width:0.8;"/>
   </g>
   <g id="patch_4">
    <path d="M 48.38 101.92 
L 130.44 101.92 
" style="fill:none;stroke:#262626;stroke-linecap:square;stroke-linejoin:miter;stroke-width:0.8;"/>
   </g>
   <g id="text_11">
    <!-- $\Delta$ area : 1.77 -->
    <defs>
     <path d="M 34.1875 63.1875 
L 14.15625 8.203125 
L 54.25 8.203125 
z
M 0.78125 0 
L 28.609375 72.90625 
L 39.796875 72.90625 
L 67.578125 0 
z
" id="DejaVuSans-394"/>
     <path id="ArialMT-20"/>
     <path d="M 40.4375 6.390625 
Q 35.546875 2.25 31.03125 0.53125 
Q 26.515625 -1.171875 21.34375 -1.171875 
Q 12.796875 -1.171875 8.203125 3 
Q 3.609375 7.171875 3.609375 13.671875 
Q 3.609375 17.484375 5.34375 20.625 
Q 7.078125 23.78125 9.890625 25.6875 
Q 12.703125 27.59375 16.21875 28.5625 
Q 18.796875 29.25 24.03125 29.890625 
Q 34.671875 31.15625 39.703125 32.90625 
Q 39.75 34.71875 39.75 35.203125 
Q 39.75 40.578125 37.25 42.78125 
Q 33.890625 45.75 27.25 45.75 
Q 21.046875 45.75 18.09375 43.578125 
Q 15.140625 41.40625 13.71875 35.890625 
L 5.125 37.0625 
Q 6.296875 42.578125 8.984375 45.96875 
Q 11.671875 49.359375 16.75 51.1875 
Q 21.828125 53.03125 28.515625 53.03125 
Q 35.15625 53.03125 39.296875 51.46875 
Q 43.453125 49.90625 45.40625 47.53125 
Q 47.359375 45.171875 48.140625 41.546875 
Q 48.578125 39.3125 48.578125 33.453125 
L 48.578125 21.734375 
Q 48.578125 9.46875 49.140625 6.21875 
Q 49.703125 2.984375 51.375 0 
L 42.1875 0 
Q 40.828125 2.734375 40.4375 6.390625 
z
M 39.703125 26.03125 
Q 34.90625 24.078125 25.34375 22.703125 
Q 19.921875 21.921875 17.671875 20.9375 
Q 15.4375 19.96875 14.203125 18.09375 
Q 12.984375 16.21875 12.984375 13.921875 
Q 12.984375 10.40625 15.640625 8.0625 
Q 18.3125 5.71875 23.4375 5.71875 
Q 28.515625 5.71875 32.46875 7.9375 
Q 36.421875 10.15625 38.28125 14.015625 
Q 39.703125 17 39.703125 22.796875 
z
" id="ArialMT-61"/>
     <path d="M 6.5 0 
L 6.5 51.859375 
L 14.40625 51.859375 
L 14.40625 44 
Q 17.4375 49.515625 20 51.265625 
Q 22.5625 53.03125 25.640625 53.03125 
Q 30.078125 53.03125 34.671875 50.203125 
L 31.640625 42.046875 
Q 28.421875 43.953125 25.203125 43.953125 
Q 22.3125 43.953125 20.015625 42.21875 
Q 17.71875 40.484375 16.75 37.40625 
Q 15.28125 32.71875 15.28125 27.15625 
L 15.28125 0 
z
" id="ArialMT-72"/>
     <path d="M 42.09375 16.703125 
L 51.171875 15.578125 
Q 49.03125 7.625 43.21875 3.21875 
Q 37.40625 -1.171875 28.375 -1.171875 
Q 17 -1.171875 10.328125 5.828125 
Q 3.65625 12.84375 3.65625 25.484375 
Q 3.65625 38.578125 10.390625 45.796875 
Q 17.140625 53.03125 27.875 53.03125 
Q 38.28125 53.03125 44.875 45.953125 
Q 51.46875 38.875 51.46875 26.03125 
Q 51.46875 25.25 51.421875 23.6875 
L 12.75 23.6875 
Q 13.234375 15.140625 17.578125 10.59375 
Q 21.921875 6.0625 28.421875 6.0625 
Q 33.25 6.0625 36.671875 8.59375 
Q 40.09375 11.140625 42.09375 16.703125 
z
M 13.234375 30.90625 
L 42.1875 30.90625 
Q 41.609375 37.453125 38.875 40.71875 
Q 34.671875 45.796875 27.984375 45.796875 
Q 21.921875 45.796875 17.796875 41.75 
Q 13.671875 37.703125 13.234375 30.90625 
z
" id="ArialMT-65"/>
     <path d="M 9.03125 41.84375 
L 9.03125 51.859375 
L 19.046875 51.859375 
L 19.046875 41.84375 
z
M 9.03125 0 
L 9.03125 10.015625 
L 19.046875 10.015625 
L 19.046875 0 
z
" id="ArialMT-3a"/>
     <path d="M 9.078125 0 
L 9.078125 10.015625 
L 19.09375 10.015625 
L 19.09375 0 
z
" id="ArialMT-2e"/>
     <path d="M 4.734375 62.203125 
L 4.734375 70.65625 
L 51.078125 70.65625 
L 51.078125 63.8125 
Q 44.234375 56.546875 37.515625 44.484375 
Q 30.8125 32.421875 27.15625 19.671875 
Q 24.515625 10.6875 23.78125 0 
L 14.75 0 
Q 14.890625 8.453125 18.0625 20.40625 
Q 21.234375 32.375 27.171875 43.484375 
Q 33.109375 54.59375 39.796875 62.203125 
z
" id="ArialMT-37"/>
    </defs>
    <g style="fill:#262626;" transform="translate(51.46 21.48)scale(0.132 -0.132)">
     <use transform="translate(0 0.09375)" xlink:href="#DejaVuSans-394"/>
     <use transform="translate(68.408203 0.09375)" xlink:href="#ArialMT-20"/>
     <use transform="translate(96.191406 0.09375)" xlink:href="#ArialMT-61"/>
     <use transform="translate(151.806641 0.09375)" xlink:href="#ArialMT-72"/>
     <use transform="translate(185.107422 0.09375)" xlink:href="#ArialMT-65"/>
     <use transform="translate(240.722656 0.09375)" xlink:href="#ArialMT-61"/>
     <use transform="translate(296.337891 0.09375)" xlink:href="#ArialMT-20"/>
     <use transform="translate(324.121094 0.09375)" xlink:href="#ArialMT-3a"/>
     <use transform="translate(351.904297 0.09375)" xlink:href="#ArialMT-20"/>
     <use transform="translate(379.6875 0.09375)" xlink:href="#ArialMT-31"/>
     <use transform="translate(435.302734 0.09375)" xlink:href="#ArialMT-2e"/>
     <use transform="translate(463.085938 0.09375)" xlink:href="#ArialMT-37"/>
     <use transform="translate(518.701172 0.09375)" xlink:href="#ArialMT-37"/>
    </g>
   </g>
  </g>
 </g>
 <defs>
  <clipPath id="paaef95b3db">
   <rect height="74.44" width="82.06" x="48.38" y="27.48"/>
  </clipPath>
 </defs>
</svg>
