<?xml version="1.0" encoding="utf-8" standalone="no"?>
<!DOCTYPE svg PUBLIC "-//W3C//DTD SVG 1.1//EN"
  "http://www.w3.org/Graphics/SVG/1.1/DTD/svg11.dtd">
<!-- Created with matplotlib (http://matplotlib.org/) -->
<svg height="216pt" version="1.1" viewBox="0 0 216 216" width="216pt" xmlns="http://www.w3.org/2000/svg" xmlns:xlink="http://www.w3.org/1999/xlink">
 <defs>
  <style type="text/css">
*{stroke-linecap:butt;stroke-linejoin:round;}
  </style>
 </defs>
 <g id="figure_1">
  <g id="patch_1">
   <path d="M 0 216 
L 216 216 
L 216 0 
L 0 0 
z
" style="fill:#ffffff;"/>
  </g>
  <g id="axes_1">
   <g id="patch_2">
    <path d="M 44.78 175.96 
L 203.52 175.96 
L 203.52 25.44 
L 44.78 25.44 
z
" style="fill:#ffffff;"/>
   </g>
   <g id="matplotlib.axis_1">
    <g id="xtick_1">
     <g id="line2d_1">
      <defs>
       <path d="M 0 0 
L 0 3.5 
" id="m55cdc7257e" style="stroke:#262626;stroke-width:0.8;"/>
      </defs>
      <g>
       <use style="fill:#262626;stroke:#262626;stroke-width:0.8;" x="51.995455" xlink:href="#m55cdc7257e" y="175.96"/>
      </g>
     </g>
     <g id="text_1">
      <!-- 2 -->
      <defs>
       <path d="M 50.34375 8.453125 
L 50.34375 0 
L 3.03125 0 
Q 2.9375 3.171875 4.046875 6.109375 
Q 5.859375 10.9375 9.828125 15.625 
Q 13.8125 20.3125 21.34375 26.46875 
Q 33.015625 36.03125 37.109375 41.625 
Q 41.21875 47.21875 41.21875 52.203125 
Q 41.21875 57.421875 37.46875 61 
Q 33.734375 64.59375 27.734375 64.59375 
Q 21.390625 64.59375 17.578125 60.78125 
Q 13.765625 56.984375 13.71875 50.25 
L 4.6875 51.171875 
Q 5.609375 61.28125 11.65625 66.578125 
Q 17.71875 71.875 27.9375 71.875 
Q 38.234375 71.875 44.234375 66.15625 
Q 50.25 60.453125 50.25 52 
Q 50.25 47.703125 48.484375 43.546875 
Q 46.734375 39.40625 42.65625 34.8125 
Q 38.578125 30.21875 29.109375 22.21875 
Q 21.1875 15.578125 18.9375 13.203125 
Q 16.703125 10.84375 15.234375 8.453125 
z
" id="ArialMT-32"/>
      </defs>
      <g style="fill:#262626;" transform="translate(49.214986 190.117812)scale(0.1 -0.1)">
       <use xlink:href="#ArialMT-32"/>
      </g>
     </g>
    </g>
    <g id="xtick_2">
     <g id="line2d_2">
      <g>
       <use style="fill:#262626;stroke:#262626;stroke-width:0.8;" x="80.857273" xlink:href="#m55cdc7257e" y="175.96"/>
      </g>
     </g>
     <g id="text_2">
      <!-- 4 -->
      <defs>
       <path d="M 32.328125 0 
L 32.328125 17.140625 
L 1.265625 17.140625 
L 1.265625 25.203125 
L 33.9375 71.578125 
L 41.109375 71.578125 
L 41.109375 25.203125 
L 50.78125 25.203125 
L 50.78125 17.140625 
L 41.109375 17.140625 
L 41.109375 0 
z
M 32.328125 25.203125 
L 32.328125 57.46875 
L 9.90625 25.203125 
z
" id="ArialMT-34"/>
      </defs>
      <g style="fill:#262626;" transform="translate(78.076804 190.117812)scale(0.1 -0.1)">
       <use xlink:href="#ArialMT-34"/>
      </g>
     </g>
    </g>
    <g id="xtick_3">
     <g id="line2d_3">
      <g>
       <use style="fill:#262626;stroke:#262626;stroke-width:0.8;" x="109.719091" xlink:href="#m55cdc7257e" y="175.96"/>
      </g>
     </g>
     <g id="text_3">
      <!-- 6 -->
      <defs>
       <path d="M 49.75 54.046875 
L 41.015625 53.375 
Q 39.84375 58.546875 37.703125 60.890625 
Q 34.125 64.65625 28.90625 64.65625 
Q 24.703125 64.65625 21.53125 62.3125 
Q 17.390625 59.28125 14.984375 53.46875 
Q 12.59375 47.65625 12.5 36.921875 
Q 15.671875 41.75 20.265625 44.09375 
Q 24.859375 46.4375 29.890625 46.4375 
Q 38.671875 46.4375 44.84375 39.96875 
Q 51.03125 33.5 51.03125 23.25 
Q 51.03125 16.5 48.125 10.71875 
Q 45.21875 4.9375 40.140625 1.859375 
Q 35.0625 -1.21875 28.609375 -1.21875 
Q 17.625 -1.21875 10.6875 6.859375 
Q 3.765625 14.9375 3.765625 33.5 
Q 3.765625 54.25 11.421875 63.671875 
Q 18.109375 71.875 29.4375 71.875 
Q 37.890625 71.875 43.28125 67.140625 
Q 48.6875 62.40625 49.75 54.046875 
z
M 13.875 23.1875 
Q 13.875 18.65625 15.796875 14.5 
Q 17.71875 10.359375 21.1875 8.171875 
Q 24.65625 6 28.46875 6 
Q 34.03125 6 38.03125 10.484375 
Q 42.046875 14.984375 42.046875 22.703125 
Q 42.046875 30.125 38.078125 34.390625 
Q 34.125 38.671875 28.125 38.671875 
Q 22.171875 38.671875 18.015625 34.390625 
Q 13.875 30.125 13.875 23.1875 
z
" id="ArialMT-36"/>
      </defs>
      <g style="fill:#262626;" transform="translate(106.938622 190.117812)scale(0.1 -0.1)">
       <use xlink:href="#ArialMT-36"/>
      </g>
     </g>
    </g>
    <g id="xtick_4">
     <g id="line2d_4">
      <g>
       <use style="fill:#262626;stroke:#262626;stroke-width:0.8;" x="138.580909" xlink:href="#m55cdc7257e" y="175.96"/>
      </g>
     </g>
     <g id="text_4">
      <!-- 8 -->
      <defs>
       <path d="M 17.671875 38.8125 
Q 12.203125 40.828125 9.5625 44.53125 
Q 6.9375 48.25 6.9375 53.421875 
Q 6.9375 61.234375 12.546875 66.546875 
Q 18.171875 71.875 27.484375 71.875 
Q 36.859375 71.875 42.578125 66.421875 
Q 48.296875 60.984375 48.296875 53.171875 
Q 48.296875 48.1875 45.671875 44.5 
Q 43.0625 40.828125 37.75 38.8125 
Q 44.34375 36.671875 47.78125 31.875 
Q 51.21875 27.09375 51.21875 20.453125 
Q 51.21875 11.28125 44.71875 5.03125 
Q 38.234375 -1.21875 27.640625 -1.21875 
Q 17.046875 -1.21875 10.546875 5.046875 
Q 4.046875 11.328125 4.046875 20.703125 
Q 4.046875 27.6875 7.59375 32.390625 
Q 11.140625 37.109375 17.671875 38.8125 
z
M 15.921875 53.71875 
Q 15.921875 48.640625 19.1875 45.40625 
Q 22.46875 42.1875 27.6875 42.1875 
Q 32.765625 42.1875 36.015625 45.375 
Q 39.265625 48.578125 39.265625 53.21875 
Q 39.265625 58.0625 35.90625 61.359375 
Q 32.5625 64.65625 27.59375 64.65625 
Q 22.5625 64.65625 19.234375 61.421875 
Q 15.921875 58.203125 15.921875 53.71875 
z
M 13.09375 20.65625 
Q 13.09375 16.890625 14.875 13.375 
Q 16.65625 9.859375 20.171875 7.921875 
Q 23.6875 6 27.734375 6 
Q 34.03125 6 38.125 10.046875 
Q 42.234375 14.109375 42.234375 20.359375 
Q 42.234375 26.703125 38.015625 30.859375 
Q 33.796875 35.015625 27.4375 35.015625 
Q 21.234375 35.015625 17.15625 30.90625 
Q 13.09375 26.8125 13.09375 20.65625 
z
" id="ArialMT-38"/>
      </defs>
      <g style="fill:#262626;" transform="translate(135.80044 190.117812)scale(0.1 -0.1)">
       <use xlink:href="#ArialMT-38"/>
      </g>
     </g>
    </g>
    <g id="xtick_5">
     <g id="line2d_5">
      <g>
       <use style="fill:#262626;stroke:#262626;stroke-width:0.8;" x="167.442727" xlink:href="#m55cdc7257e" y="175.96"/>
      </g>
     </g>
     <g id="text_5">
      <!-- 10 -->
      <defs>
       <path d="M 37.25 0 
L 28.46875 0 
L 28.46875 56 
Q 25.296875 52.984375 20.140625 49.953125 
Q 14.984375 46.921875 10.890625 45.40625 
L 10.890625 53.90625 
Q 18.265625 57.375 23.78125 62.296875 
Q 29.296875 67.234375 31.59375 71.875 
L 37.25 71.875 
z
" id="ArialMT-31"/>
       <path d="M 4.15625 35.296875 
Q 4.15625 48 6.765625 55.734375 
Q 9.375 63.484375 14.515625 67.671875 
Q 19.671875 71.875 27.484375 71.875 
Q 33.25 71.875 37.59375 69.546875 
Q 41.9375 67.234375 44.765625 62.859375 
Q 47.609375 58.5 49.21875 52.21875 
Q 50.828125 45.953125 50.828125 35.296875 
Q 50.828125 22.703125 48.234375 14.96875 
Q 45.65625 7.234375 40.5 3 
Q 35.359375 -1.21875 27.484375 -1.21875 
Q 17.140625 -1.21875 11.234375 6.203125 
Q 4.15625 15.140625 4.15625 35.296875 
z
M 13.1875 35.296875 
Q 13.1875 17.671875 17.3125 11.828125 
Q 21.4375 6 27.484375 6 
Q 33.546875 6 37.671875 11.859375 
Q 41.796875 17.71875 41.796875 35.296875 
Q 41.796875 52.984375 37.671875 58.78125 
Q 33.546875 64.59375 27.390625 64.59375 
Q 21.34375 64.59375 17.71875 59.46875 
Q 13.1875 52.9375 13.1875 35.296875 
z
" id="ArialMT-30"/>
      </defs>
      <g style="fill:#262626;" transform="translate(161.88179 190.117812)scale(0.1 -0.1)">
       <use xlink:href="#ArialMT-31"/>
       <use x="55.615234" xlink:href="#ArialMT-30"/>
      </g>
     </g>
    </g>
    <g id="xtick_6">
     <g id="line2d_6">
      <g>
       <use style="fill:#262626;stroke:#262626;stroke-width:0.8;" x="196.304545" xlink:href="#m55cdc7257e" y="175.96"/>
      </g>
     </g>
     <g id="text_6">
      <!-- 12 -->
      <g style="fill:#262626;" transform="translate(190.743608 190.117812)scale(0.1 -0.1)">
       <use xlink:href="#ArialMT-31"/>
       <use x="55.615234" xlink:href="#ArialMT-32"/>
      </g>
     </g>
    </g>
    <g id="text_7">
     <!-- pH -->
     <defs>
      <path d="M 6.59375 -19.875 
L 6.59375 51.859375 
L 14.59375 51.859375 
L 14.59375 45.125 
Q 17.4375 49.078125 21 51.046875 
Q 24.5625 53.03125 29.640625 53.03125 
Q 36.28125 53.03125 41.359375 49.609375 
Q 46.4375 46.1875 49.015625 39.953125 
Q 51.609375 33.734375 51.609375 26.3125 
Q 51.609375 18.359375 48.75 11.984375 
Q 45.90625 5.609375 40.453125 2.21875 
Q 35.015625 -1.171875 29 -1.171875 
Q 24.609375 -1.171875 21.109375 0.6875 
Q 17.625 2.546875 15.375 5.375 
L 15.375 -19.875 
z
M 14.546875 25.640625 
Q 14.546875 15.625 18.59375 10.84375 
Q 22.65625 6.0625 28.421875 6.0625 
Q 34.28125 6.0625 38.453125 11.015625 
Q 42.625 15.96875 42.625 26.375 
Q 42.625 36.28125 38.546875 41.203125 
Q 34.46875 46.140625 28.8125 46.140625 
Q 23.1875 46.140625 18.859375 40.890625 
Q 14.546875 35.640625 14.546875 25.640625 
z
" id="ArialMT-70"/>
      <path d="M 8.015625 0 
L 8.015625 71.578125 
L 17.484375 71.578125 
L 17.484375 42.1875 
L 54.6875 42.1875 
L 54.6875 71.578125 
L 64.15625 71.578125 
L 64.15625 0 
L 54.6875 0 
L 54.6875 33.734375 
L 17.484375 33.734375 
L 17.484375 0 
z
" id="ArialMT-48"/>
     </defs>
     <g style="fill:#262626;" transform="translate(117.758594 203.263125)scale(0.1 -0.1)">
      <use xlink:href="#ArialMT-70"/>
      <use x="55.615234" xlink:href="#ArialMT-48"/>
     </g>
    </g>
   </g>
   <g id="matplotlib.axis_2">
    <g id="ytick_1">
     <g id="line2d_7">
      <defs>
       <path d="M 0 0 
L -3.5 0 
" id="mc6d11f3c8e" style="stroke:#262626;stroke-width:0.8;"/>
      </defs>
      <g>
       <use style="fill:#262626;stroke:#262626;stroke-width:0.8;" x="44.78" xlink:href="#mc6d11f3c8e" y="138.134084"/>
      </g>
     </g>
     <g id="text_8">
      <!-- −1 -->
      <defs>
       <path d="M 52.828125 31.203125 
L 5.5625 31.203125 
L 5.5625 39.40625 
L 52.828125 39.40625 
z
" id="ArialMT-2212"/>
      </defs>
      <g style="fill:#262626;" transform="translate(26.378438 141.71299)scale(0.1 -0.1)">
       <use xlink:href="#ArialMT-2212"/>
       <use x="58.398438" xlink:href="#ArialMT-31"/>
      </g>
     </g>
    </g>
    <g id="ytick_2">
     <g id="line2d_8">
      <g>
       <use style="fill:#262626;stroke:#262626;stroke-width:0.8;" x="44.78" xlink:href="#mc6d11f3c8e" y="62.406627"/>
      </g>
     </g>
     <g id="text_9">
      <!-- 0 -->
      <g style="fill:#262626;" transform="translate(32.219063 65.985533)scale(0.1 -0.1)">
       <use xlink:href="#ArialMT-30"/>
      </g>
     </g>
    </g>
    <g id="text_10">
     <!-- $\langle q_\mathsf{total} \rangle$ -->
     <defs>
      <path d="M 8.9375 31.34375 
L 22.703125 75.875 
L 31 75.875 
L 17.234375 31.34375 
L 31 -13.1875 
L 22.703125 -13.1875 
z
" id="DejaVuSans-27e8"/>
      <path d="M 41.703125 8.203125 
Q 38.09375 3.46875 33.171875 1.015625 
Q 28.265625 -1.421875 22.3125 -1.421875 
Q 14.015625 -1.421875 9.296875 4.171875 
Q 4.59375 9.765625 4.59375 19.578125 
Q 4.59375 27.484375 7.5 34.859375 
Q 10.40625 42.234375 15.828125 48.09375 
Q 19.34375 51.90625 23.90625 53.953125 
Q 28.46875 56 33.5 56 
Q 39.546875 56 43.453125 53.609375 
Q 47.359375 51.21875 49.125 46.390625 
L 50.6875 54.59375 
L 59.71875 54.59375 
L 45.125 -20.609375 
L 36.078125 -20.609375 
z
M 13.921875 20.90625 
Q 13.921875 13.671875 16.9375 9.890625 
Q 19.96875 6.109375 25.6875 6.109375 
Q 34.1875 6.109375 40.1875 14.234375 
Q 46.1875 22.359375 46.1875 33.984375 
Q 46.1875 41.015625 43.078125 44.75 
Q 39.984375 48.484375 34.1875 48.484375 
Q 29.9375 48.484375 26.3125 46.5 
Q 22.703125 44.53125 20.015625 40.71875 
Q 17.1875 36.71875 15.546875 31.34375 
Q 13.921875 25.984375 13.921875 20.90625 
z
" id="DejaVuSans-Oblique-71"/>
      <path d="M 18.3125 70.21875 
L 18.3125 54.6875 
L 36.8125 54.6875 
L 36.8125 47.703125 
L 18.3125 47.703125 
L 18.3125 18.015625 
Q 18.3125 11.328125 20.140625 9.421875 
Q 21.96875 7.515625 27.59375 7.515625 
L 36.8125 7.515625 
L 36.8125 0 
L 27.59375 0 
Q 17.1875 0 13.234375 3.875 
Q 9.28125 7.765625 9.28125 18.015625 
L 9.28125 47.703125 
L 2.6875 47.703125 
L 2.6875 54.6875 
L 9.28125 54.6875 
L 9.28125 70.21875 
z
" id="DejaVuSans-74"/>
      <path d="M 30.609375 48.390625 
Q 23.390625 48.390625 19.1875 42.75 
Q 14.984375 37.109375 14.984375 27.296875 
Q 14.984375 17.484375 19.15625 11.84375 
Q 23.34375 6.203125 30.609375 6.203125 
Q 37.796875 6.203125 41.984375 11.859375 
Q 46.1875 17.53125 46.1875 27.296875 
Q 46.1875 37.015625 41.984375 42.703125 
Q 37.796875 48.390625 30.609375 48.390625 
z
M 30.609375 56 
Q 42.328125 56 49.015625 48.375 
Q 55.71875 40.765625 55.71875 27.296875 
Q 55.71875 13.875 49.015625 6.21875 
Q 42.328125 -1.421875 30.609375 -1.421875 
Q 18.84375 -1.421875 12.171875 6.21875 
Q 5.515625 13.875 5.515625 27.296875 
Q 5.515625 40.765625 12.171875 48.375 
Q 18.84375 56 30.609375 56 
z
" id="DejaVuSans-6f"/>
      <path d="M 34.28125 27.484375 
Q 23.390625 27.484375 19.1875 25 
Q 14.984375 22.515625 14.984375 16.5 
Q 14.984375 11.71875 18.140625 8.90625 
Q 21.296875 6.109375 26.703125 6.109375 
Q 34.1875 6.109375 38.703125 11.40625 
Q 43.21875 16.703125 43.21875 25.484375 
L 43.21875 27.484375 
z
M 52.203125 31.203125 
L 52.203125 0 
L 43.21875 0 
L 43.21875 8.296875 
Q 40.140625 3.328125 35.546875 0.953125 
Q 30.953125 -1.421875 24.3125 -1.421875 
Q 15.921875 -1.421875 10.953125 3.296875 
Q 6 8.015625 6 15.921875 
Q 6 25.140625 12.171875 29.828125 
Q 18.359375 34.515625 30.609375 34.515625 
L 43.21875 34.515625 
L 43.21875 35.40625 
Q 43.21875 41.609375 39.140625 45 
Q 35.0625 48.390625 27.6875 48.390625 
Q 23 48.390625 18.546875 47.265625 
Q 14.109375 46.140625 10.015625 43.890625 
L 10.015625 52.203125 
Q 14.9375 54.109375 19.578125 55.046875 
Q 24.21875 56 28.609375 56 
Q 40.484375 56 46.34375 49.84375 
Q 52.203125 43.703125 52.203125 31.203125 
z
" id="DejaVuSans-61"/>
      <path d="M 9.421875 75.984375 
L 18.40625 75.984375 
L 18.40625 0 
L 9.421875 0 
z
" id="DejaVuSans-6c"/>
      <path d="M 30.078125 31.34375 
L 16.3125 -13.1875 
L 8.015625 -13.1875 
L 21.78125 31.34375 
L 8.015625 75.875 
L 16.3125 75.875 
z
" id="DejaVuSans-27e9"/>
     </defs>
     <g style="fill:#262626;" transform="translate(20.278438 115.95)rotate(-90)scale(0.1 -0.1)">
      <use transform="translate(0 0.125)" xlink:href="#DejaVuSans-27e8"/>
      <use transform="translate(39.013672 0.125)" xlink:href="#DejaVuSans-Oblique-71"/>
      <use transform="translate(102.490234 -16.28125)scale(0.7)" xlink:href="#DejaVuSans-74"/>
      <use transform="translate(129.936523 -16.28125)scale(0.7)" xlink:href="#DejaVuSans-6f"/>
      <use transform="translate(172.763672 -16.28125)scale(0.7)" xlink:href="#DejaVuSans-74"/>
      <use transform="translate(200.209961 -16.28125)scale(0.7)" xlink:href="#DejaVuSans-61"/>
      <use transform="translate(243.105469 -16.28125)scale(0.7)" xlink:href="#DejaVuSans-6c"/>
      <use transform="translate(265.288086 0.125)" xlink:href="#DejaVuSans-27e9"/>
     </g>
    </g>
   </g>
   <g id="PolyCollection_1">
    <defs>
     <path d="M 51.995455 -153.627991 
L 51.995455 -153.558014 
L 53.438545 -153.548939 
L 54.881636 -153.53756 
L 56.324727 -153.523307 
L 57.767818 -153.505477 
L 59.210909 -153.483204 
L 60.654 -153.455435 
L 62.097091 -153.420891 
L 63.540182 -153.378035 
L 64.983273 -153.325038 
L 66.426364 -153.259748 
L 67.869455 -153.179662 
L 69.312545 -153.081907 
L 70.755636 -152.963224 
L 72.198727 -152.819961 
L 73.641818 -152.648057 
L 75.084909 -152.443015 
L 76.528 -152.199867 
L 77.971091 -151.913108 
L 79.414182 -151.576654 
L 80.857273 -151.1838 
L 82.300364 -150.72725 
L 83.743455 -150.199196 
L 85.186545 -149.591477 
L 86.629636 -148.89579 
L 88.072727 -148.10392 
L 89.515818 -147.207955 
L 90.958909 -146.200452 
L 92.402 -145.074501 
L 93.845091 -143.823694 
L 95.288182 -142.442028 
L 96.731273 -140.923787 
L 98.174364 -139.263516 
L 99.617455 -137.456112 
L 101.060545 -135.497044 
L 102.503636 -133.382605 
L 103.946727 -131.110074 
L 105.389818 -128.677668 
L 106.832909 -126.084194 
L 108.276 -123.328455 
L 109.719091 -120.408487 
L 111.162182 -117.320816 
L 112.605273 -114.059945 
L 114.048364 -110.618307 
L 115.491455 -106.986918 
L 116.934545 -103.156944 
L 118.377636 -99.122325 
L 119.820727 -94.8835 
L 121.263818 -90.452013 
L 122.706909 -85.855449 
L 124.15 -81.141711 
L 125.593091 -76.381315 
L 127.036182 -71.666369 
L 128.479273 -67.105424 
L 129.922364 -62.814427 
L 131.365455 -58.905245 
L 132.808545 -55.474101 
L 134.251636 -52.592379 
L 135.694727 -50.301452 
L 137.137818 -48.612035 
L 138.580909 -47.507331 
L 140.024 -46.948627 
L 141.467091 -46.881818 
L 142.910182 -47.243685 
L 144.353273 -47.967187 
L 145.796364 -48.985516 
L 147.239455 -50.234938 
L 148.682545 -51.656627 
L 150.125636 -53.197755 
L 151.568727 -54.81202 
L 153.011818 -56.459794 
L 154.454909 -58.107984 
L 155.898 -59.729673 
L 157.341091 -61.303644 
L 158.784182 -62.813818 
L 160.227273 -64.248667 
L 161.670364 -65.600591 
L 163.113455 -66.865252 
L 164.556545 -68.040833 
L 165.999636 -69.127272 
L 167.442727 -70.125522 
L 168.885818 -71.036975 
L 170.328909 -71.863131 
L 171.772 -72.605553 
L 173.215091 -73.266084 
L 174.658182 -73.84722 
L 176.101273 -74.352529 
L 177.544364 -74.78696 
L 178.987455 -75.156935 
L 180.430545 -75.47016 
L 181.873636 -75.735162 
L 183.316727 -75.960665 
L 184.759818 -76.154957 
L 186.202909 -76.325385 
L 187.646 -76.478049 
L 189.089091 -76.617672 
L 190.532182 -76.747609 
L 191.975273 -76.869937 
L 193.418364 -76.985629 
L 194.861455 -77.094791 
L 196.304545 -77.196961 
L 196.304545 -78.537964 
L 196.304545 -78.537964 
L 194.861455 -78.640934 
L 193.418364 -78.751105 
L 191.975273 -78.868065 
L 190.532182 -78.991991 
L 189.089091 -79.123938 
L 187.646 -79.266094 
L 186.202909 -79.421944 
L 184.759818 -79.596384 
L 183.316727 -79.795727 
L 181.873636 -80.027588 
L 180.430545 -80.300593 
L 178.987455 -80.623892 
L 177.544364 -81.006547 
L 176.101273 -81.456939 
L 174.658182 -81.982337 
L 173.215091 -82.588756 
L 171.772 -83.281104 
L 170.328909 -84.063563 
L 168.885818 -84.940092 
L 167.442727 -85.914913 
L 165.999636 -86.992863 
L 164.556545 -88.179519 
L 163.113455 -89.481077 
L 161.670364 -90.904034 
L 160.227273 -92.454771 
L 158.784182 -94.139165 
L 157.341091 -95.962323 
L 155.898 -97.928468 
L 154.454909 -100.040967 
L 153.011818 -102.302487 
L 151.568727 -104.715259 
L 150.125636 -107.281457 
L 148.682545 -110.003686 
L 147.239455 -112.885524 
L 145.796364 -115.93202 
L 144.353273 -119.149969 
L 142.910182 -122.547762 
L 141.467091 -126.134565 
L 140.024 -129.918626 
L 138.580909 -133.904527 
L 137.137818 -138.089399 
L 135.694727 -142.458344 
L 134.251636 -146.979699 
L 132.808545 -151.601202 
L 131.365455 -156.248373 
L 129.922364 -160.826352 
L 128.479273 -165.225803 
L 127.036182 -169.332396 
L 125.593091 -173.038246 
L 124.15 -176.252921 
L 122.706909 -178.91176 
L 121.263818 -180.980064 
L 119.820727 -182.452955 
L 118.377636 -183.351742 
L 116.934545 -183.718182 
L 115.491455 -183.60809 
L 114.048364 -183.085365 
L 112.605273 -182.217061 
L 111.162182 -181.069698 
L 109.719091 -179.706693 
L 108.276 -178.186682 
L 106.832909 -176.562466 
L 105.389818 -174.880388 
L 103.946727 -173.180027 
L 102.503636 -171.494169 
L 101.060545 -169.849051 
L 99.617455 -168.264889 
L 98.174364 -166.756626 
L 96.731273 -165.334823 
L 95.288182 -164.006543 
L 93.845091 -162.77611 
L 92.402 -161.645649 
L 90.958909 -160.615429 
L 89.515818 -159.684054 
L 88.072727 -158.848615 
L 86.629636 -158.104856 
L 85.186545 -157.447407 
L 83.743455 -156.870076 
L 82.300364 -156.366168 
L 80.857273 -155.928804 
L 79.414182 -155.551194 
L 77.971091 -155.226849 
L 76.528 -154.949712 
L 75.084909 -154.714206 
L 73.641818 -154.515236 
L 72.198727 -154.348155 
L 70.755636 -154.208724 
L 69.312545 -154.093084 
L 67.869455 -153.997746 
L 66.426364 -153.919581 
L 64.983273 -153.855817 
L 63.540182 -153.804032 
L 62.097091 -153.762138 
L 60.654 -153.728359 
L 59.210909 -153.701197 
L 57.767818 -153.679407 
L 56.324727 -153.661959 
L 54.881636 -153.648011 
L 53.438545 -153.636874 
L 51.995455 -153.627991 
z
" id="md5628b8cf7" style="stroke:#ffffff;stroke-opacity:0.05;"/>
    </defs>
    <g clip-path="url(#p46e1681567)">
     <use style="fill:#8c0800;fill-opacity:0.05;stroke:#ffffff;stroke-opacity:0.05;" x="0" xlink:href="#md5628b8cf7" y="216"/>
    </g>
   </g>
   <g id="line2d_9">
    <path clip-path="url(#p46e1681567)" d="M 51.995455 62.406998 
L 53.438545 62.407094 
L 54.881636 62.407214 
L 56.324727 62.407367 
L 57.767818 62.407558 
L 59.210909 62.407799 
L 60.654 62.408103 
L 62.097091 62.408485 
L 63.540182 62.408967 
L 64.983273 62.409573 
L 66.426364 62.410335 
L 67.869455 62.411296 
L 69.312545 62.412504 
L 70.755636 62.414026 
L 72.198727 62.415942 
L 73.641818 62.418354 
L 75.084909 62.421389 
L 76.528 62.425211 
L 77.971091 62.430021 
L 79.414182 62.436076 
L 80.857273 62.443698 
L 82.300364 62.453291 
L 83.743455 62.465364 
L 85.186545 62.480558 
L 86.629636 62.499677 
L 88.072727 62.523733 
L 89.515818 62.553996 
L 90.958909 62.59206 
L 92.402 62.639925 
L 93.845091 62.700098 
L 95.288182 62.775715 
L 96.731273 62.870695 
L 98.174364 62.989929 
L 99.617455 63.139499 
L 101.060545 63.326952 
L 102.503636 63.561613 
L 103.946727 63.854949 
L 105.389818 64.220972 
L 106.832909 64.67667 
L 108.276 65.242431 
L 109.719091 65.94241 
L 111.162182 66.804743 
L 112.605273 67.861497 
L 114.048364 69.148164 
L 115.491455 70.702496 
L 116.934545 72.562437 
L 118.377636 74.762967 
L 119.820727 77.331773 
L 121.263818 80.283962 
L 122.706909 83.616395 
L 124.15 87.302684 
L 125.593091 91.290219 
L 127.036182 95.500618 
L 128.479273 99.834387 
L 129.922364 104.17961 
L 131.365455 108.423191 
L 132.808545 112.462348 
L 134.251636 116.213961 
L 135.694727 119.620102 
L 137.137818 122.649283 
L 138.580909 125.294071 
L 140.024 127.566374 
L 141.467091 129.491808 
L 142.910182 131.104277 
L 144.353273 132.441422 
L 145.796364 133.541232 
L 147.239455 134.439769 
L 148.682545 135.169843 
L 150.125636 135.760394 
L 151.568727 136.236361 
L 153.011818 136.618859 
L 154.454909 136.925524 
L 155.898 137.17093 
L 157.341091 137.367017 
L 158.784182 137.523509 
L 160.227273 137.648281 
L 161.670364 137.747687 
L 163.113455 137.826836 
L 164.556545 137.889824 
L 165.999636 137.939932 
L 167.442727 137.979783 
L 168.885818 138.011467 
L 170.328909 138.036653 
L 171.772 138.056671 
L 173.215091 138.07258 
L 174.658182 138.085221 
L 176.101273 138.095266 
L 177.544364 138.103246 
L 178.987455 138.109587 
L 180.430545 138.114624 
L 181.873636 138.118625 
L 183.316727 138.121804 
L 184.759818 138.124329 
L 186.202909 138.126335 
L 187.646 138.127929 
L 189.089091 138.129195 
L 190.532182 138.1302 
L 191.975273 138.130999 
L 193.418364 138.131633 
L 194.861455 138.132137 
L 196.304545 138.132538 
" style="fill:none;opacity:0.9;stroke:#8c0800;stroke-linecap:round;stroke-width:1.5;"/>
   </g>
   <g id="line2d_10">
    <path clip-path="url(#p46e1681567)" d="M 51.995455 62.421733 
L 53.438545 62.425644 
L 54.881636 62.430566 
L 56.324727 62.436762 
L 57.767818 62.444561 
L 59.210909 62.454377 
L 60.654 62.466731 
L 62.097091 62.482278 
L 63.540182 62.501842 
L 64.983273 62.526457 
L 66.426364 62.557422 
L 67.869455 62.596369 
L 69.312545 62.645343 
L 70.755636 62.706908 
L 72.198727 62.78427 
L 73.641818 62.881439 
L 75.084909 63.003411 
L 76.528 63.156403 
L 77.971091 63.348126 
L 79.414182 63.588101 
L 80.857273 63.88803 
L 82.300364 64.262204 
L 83.743455 64.727933 
L 85.186545 65.305966 
L 86.629636 66.02085 
L 88.072727 66.901123 
L 89.515818 67.979225 
L 90.958909 69.290941 
L 92.402 70.874151 
L 93.845091 72.766664 
L 95.288182 75.002945 
L 96.731273 77.609672 
L 98.174364 80.600381 
L 99.617455 83.969812 
L 101.060545 87.689039 
L 102.503636 91.702791 
L 103.946727 95.930291 
L 105.389818 100.270355 
L 106.832909 104.610419 
L 108.276 108.837919 
L 109.719091 112.851671 
L 111.162182 116.570899 
L 112.605273 119.940329 
L 114.048364 122.931039 
L 115.491455 125.537765 
L 116.934545 127.774046 
L 118.377636 129.66656 
L 119.820727 131.249769 
L 121.263818 132.561485 
L 122.706909 133.639588 
L 124.15 134.51986 
L 125.593091 135.234744 
L 127.036182 135.812777 
L 128.479273 136.278506 
L 129.922364 136.65268 
L 131.365455 136.952609 
L 132.808545 137.192584 
L 134.251636 137.384307 
L 135.694727 137.537299 
L 137.137818 137.659272 
L 138.580909 137.75644 
L 140.024 137.833803 
L 141.467091 137.895367 
L 142.910182 137.944341 
L 144.353273 137.983288 
L 145.796364 138.014254 
L 147.239455 138.038868 
L 148.682545 138.058432 
L 150.125636 138.073979 
L 151.568727 138.086333 
L 153.011818 138.096149 
L 154.454909 138.103948 
L 155.898 138.110144 
L 157.341091 138.115067 
L 158.784182 138.118977 
L 160.227273 138.122084 
L 161.670364 138.124551 
L 163.113455 138.126512 
L 164.556545 138.128069 
L 165.999636 138.129306 
L 167.442727 138.130288 
L 168.885818 138.131069 
L 170.328909 138.131689 
L 171.772 138.132181 
L 173.215091 138.132573 
L 174.658182 138.132883 
L 176.101273 138.13313 
L 177.544364 138.133326 
L 178.987455 138.133482 
L 180.430545 138.133606 
L 181.873636 138.133704 
L 183.316727 138.133782 
L 184.759818 138.133844 
L 186.202909 138.133893 
L 187.646 138.133933 
L 189.089091 138.133964 
L 190.532182 138.133988 
L 191.975273 138.134008 
L 193.418364 138.134023 
L 194.861455 138.134036 
L 196.304545 138.134046 
" style="fill:none;opacity:0.7;stroke:#000000;stroke-linecap:round;stroke-width:1.5;"/>
   </g>
   <g id="line2d_11">
    <path clip-path="url(#p46e1681567)" d="M 51.995455 62.372009 
L 53.438545 62.363126 
L 54.881636 62.351989 
L 56.324727 62.338041 
L 57.767818 62.320593 
L 59.210909 62.298803 
L 60.654 62.271641 
L 62.097091 62.237862 
L 63.540182 62.195968 
L 64.983273 62.144183 
L 66.426364 62.080419 
L 67.869455 62.002254 
L 69.312545 61.906916 
L 70.755636 61.791276 
L 72.198727 61.651845 
L 73.641818 61.484764 
L 75.084909 61.285794 
L 76.528 61.050288 
L 77.971091 60.773151 
L 79.414182 60.448806 
L 80.857273 60.071196 
L 82.300364 59.633832 
L 83.743455 59.129924 
L 85.186545 58.552593 
L 86.629636 57.895144 
L 88.072727 57.151385 
L 89.515818 56.315946 
L 90.958909 55.384571 
L 92.402 54.354351 
L 93.845091 53.22389 
L 95.288182 51.993457 
L 96.731273 50.665177 
L 98.174364 49.243374 
L 99.617455 47.735111 
L 101.060545 46.150949 
L 102.503636 44.505831 
L 103.946727 42.819973 
L 105.389818 41.119612 
L 106.832909 39.437534 
L 108.276 37.813318 
L 109.719091 36.293307 
L 111.162182 34.930302 
L 112.605273 33.782939 
L 114.048364 32.914635 
L 115.491455 32.39191 
L 116.934545 32.281818 
L 118.377636 32.648258 
L 119.820727 33.547045 
L 121.263818 35.019936 
L 122.706909 37.08824 
L 124.15 39.747079 
L 125.593091 42.961754 
L 127.036182 46.667604 
L 128.479273 50.774197 
L 129.922364 55.173648 
L 131.365455 59.751627 
L 132.808545 64.398798 
L 134.251636 69.020301 
L 135.694727 73.541656 
L 137.137818 77.910601 
L 138.580909 82.095473 
L 140.024 86.081374 
L 141.467091 89.865435 
L 142.910182 93.452238 
L 144.353273 96.850031 
L 145.796364 100.06798 
L 147.239455 103.114476 
L 148.682545 105.996314 
L 150.125636 108.718543 
L 151.568727 111.284741 
L 153.011818 113.697513 
L 154.454909 115.959033 
L 155.898 118.071532 
L 157.341091 120.037677 
L 158.784182 121.860835 
L 160.227273 123.545229 
L 161.670364 125.095966 
L 163.113455 126.518923 
L 164.556545 127.820481 
L 165.999636 129.007137 
L 167.442727 130.085087 
L 168.885818 131.059908 
L 170.328909 131.936437 
L 171.772 132.718896 
L 173.215091 133.411244 
L 174.658182 134.017663 
L 176.101273 134.543061 
L 177.544364 134.993453 
L 178.987455 135.376108 
L 180.430545 135.699407 
L 181.873636 135.972412 
L 183.316727 136.204273 
L 184.759818 136.403616 
L 186.202909 136.578056 
L 187.646 136.733906 
L 189.089091 136.876062 
L 190.532182 137.008009 
L 191.975273 137.131935 
L 193.418364 137.248895 
L 194.861455 137.359066 
L 196.304545 137.462036 
" style="fill:none;opacity:0.45;stroke:#8c0800;stroke-dasharray:2.775,1.2;stroke-dashoffset:0;stroke-width:0.75;"/>
   </g>
   <g id="line2d_12">
    <path clip-path="url(#p46e1681567)" d="M 51.995455 62.441986 
L 53.438545 62.451061 
L 54.881636 62.46244 
L 56.324727 62.476693 
L 57.767818 62.494523 
L 59.210909 62.516796 
L 60.654 62.544565 
L 62.097091 62.579109 
L 63.540182 62.621965 
L 64.983273 62.674962 
L 66.426364 62.740252 
L 67.869455 62.820338 
L 69.312545 62.918093 
L 70.755636 63.036776 
L 72.198727 63.180039 
L 73.641818 63.351943 
L 75.084909 63.556985 
L 76.528 63.800133 
L 77.971091 64.086892 
L 79.414182 64.423346 
L 80.857273 64.8162 
L 82.300364 65.27275 
L 83.743455 65.800804 
L 85.186545 66.408523 
L 86.629636 67.10421 
L 88.072727 67.89608 
L 89.515818 68.792045 
L 90.958909 69.799548 
L 92.402 70.925499 
L 93.845091 72.176306 
L 95.288182 73.557972 
L 96.731273 75.076213 
L 98.174364 76.736484 
L 99.617455 78.543888 
L 101.060545 80.502956 
L 102.503636 82.617395 
L 103.946727 84.889926 
L 105.389818 87.322332 
L 106.832909 89.915806 
L 108.276 92.671545 
L 109.719091 95.591513 
L 111.162182 98.679184 
L 112.605273 101.940055 
L 114.048364 105.381693 
L 115.491455 109.013082 
L 116.934545 112.843056 
L 118.377636 116.877675 
L 119.820727 121.1165 
L 121.263818 125.547987 
L 122.706909 130.144551 
L 124.15 134.858289 
L 125.593091 139.618685 
L 127.036182 144.333631 
L 128.479273 148.894576 
L 129.922364 153.185573 
L 131.365455 157.094755 
L 132.808545 160.525899 
L 134.251636 163.407621 
L 135.694727 165.698548 
L 137.137818 167.387965 
L 138.580909 168.492669 
L 140.024 169.051373 
L 141.467091 169.118182 
L 142.910182 168.756315 
L 144.353273 168.032813 
L 145.796364 167.014484 
L 147.239455 165.765062 
L 148.682545 164.343373 
L 150.125636 162.802245 
L 151.568727 161.18798 
L 153.011818 159.540206 
L 154.454909 157.892016 
L 155.898 156.270327 
L 157.341091 154.696356 
L 158.784182 153.186182 
L 160.227273 151.751333 
L 161.670364 150.399409 
L 163.113455 149.134748 
L 164.556545 147.959167 
L 165.999636 146.872728 
L 167.442727 145.874478 
L 168.885818 144.963025 
L 170.328909 144.136869 
L 171.772 143.394447 
L 173.215091 142.733916 
L 174.658182 142.15278 
L 176.101273 141.647471 
L 177.544364 141.21304 
L 178.987455 140.843065 
L 180.430545 140.52984 
L 181.873636 140.264838 
L 183.316727 140.039335 
L 184.759818 139.845043 
L 186.202909 139.674615 
L 187.646 139.521951 
L 189.089091 139.382328 
L 190.532182 139.252391 
L 191.975273 139.130063 
L 193.418364 139.014371 
L 194.861455 138.905209 
L 196.304545 138.803039 
" style="fill:none;opacity:0.45;stroke:#8c0800;stroke-dasharray:2.775,1.2;stroke-dashoffset:0;stroke-width:0.75;"/>
   </g>
   <g id="patch_3">
    <path d="M 44.78 175.96 
L 44.78 25.44 
" style="fill:none;stroke:#262626;stroke-linecap:square;stroke-linejoin:miter;stroke-width:0.8;"/>
   </g>
   <g id="patch_4">
    <path d="M 44.78 175.96 
L 203.52 175.96 
" style="fill:none;stroke:#262626;stroke-linecap:square;stroke-linejoin:miter;stroke-width:0.8;"/>
   </g>
   <g id="text_11">
    <!-- Jaguar-micro SM20 -->
    <defs>
     <path d="M 2.875 20.3125 
L 11.421875 21.484375 
Q 11.765625 13.28125 14.5 10.25 
Q 17.234375 7.234375 22.078125 7.234375 
Q 25.640625 7.234375 28.21875 8.859375 
Q 30.8125 10.5 31.78125 13.296875 
Q 32.765625 16.109375 32.765625 22.265625 
L 32.765625 71.578125 
L 42.234375 71.578125 
L 42.234375 22.796875 
Q 42.234375 13.8125 40.0625 8.875 
Q 37.890625 3.953125 33.171875 1.359375 
Q 28.46875 -1.21875 22.125 -1.21875 
Q 12.703125 -1.21875 7.6875 4.203125 
Q 2.6875 9.625 2.875 20.3125 
z
" id="ArialMT-4a"/>
     <path d="M 40.4375 6.390625 
Q 35.546875 2.25 31.03125 0.53125 
Q 26.515625 -1.171875 21.34375 -1.171875 
Q 12.796875 -1.171875 8.203125 3 
Q 3.609375 7.171875 3.609375 13.671875 
Q 3.609375 17.484375 5.34375 20.625 
Q 7.078125 23.78125 9.890625 25.6875 
Q 12.703125 27.59375 16.21875 28.5625 
Q 18.796875 29.25 24.03125 29.890625 
Q 34.671875 31.15625 39.703125 32.90625 
Q 39.75 34.71875 39.75 35.203125 
Q 39.75 40.578125 37.25 42.78125 
Q 33.890625 45.75 27.25 45.75 
Q 21.046875 45.75 18.09375 43.578125 
Q 15.140625 41.40625 13.71875 35.890625 
L 5.125 37.0625 
Q 6.296875 42.578125 8.984375 45.96875 
Q 11.671875 49.359375 16.75 51.1875 
Q 21.828125 53.03125 28.515625 53.03125 
Q 35.15625 53.03125 39.296875 51.46875 
Q 43.453125 49.90625 45.40625 47.53125 
Q 47.359375 45.171875 48.140625 41.546875 
Q 48.578125 39.3125 48.578125 33.453125 
L 48.578125 21.734375 
Q 48.578125 9.46875 49.140625 6.21875 
Q 49.703125 2.984375 51.375 0 
L 42.1875 0 
Q 40.828125 2.734375 40.4375 6.390625 
z
M 39.703125 26.03125 
Q 34.90625 24.078125 25.34375 22.703125 
Q 19.921875 21.921875 17.671875 20.9375 
Q 15.4375 19.96875 14.203125 18.09375 
Q 12.984375 16.21875 12.984375 13.921875 
Q 12.984375 10.40625 15.640625 8.0625 
Q 18.3125 5.71875 23.4375 5.71875 
Q 28.515625 5.71875 32.46875 7.9375 
Q 36.421875 10.15625 38.28125 14.015625 
Q 39.703125 17 39.703125 22.796875 
z
" id="ArialMT-61"/>
     <path d="M 4.984375 -4.296875 
L 13.53125 -5.5625 
Q 14.0625 -9.515625 16.5 -11.328125 
Q 19.78125 -13.765625 25.4375 -13.765625 
Q 31.546875 -13.765625 34.859375 -11.328125 
Q 38.1875 -8.890625 39.359375 -4.5 
Q 40.046875 -1.8125 39.984375 6.78125 
Q 34.234375 0 25.640625 0 
Q 14.9375 0 9.078125 7.71875 
Q 3.21875 15.4375 3.21875 26.21875 
Q 3.21875 33.640625 5.90625 39.90625 
Q 8.59375 46.1875 13.6875 49.609375 
Q 18.796875 53.03125 25.6875 53.03125 
Q 34.859375 53.03125 40.828125 45.609375 
L 40.828125 51.859375 
L 48.921875 51.859375 
L 48.921875 7.03125 
Q 48.921875 -5.078125 46.453125 -10.125 
Q 44 -15.1875 38.640625 -18.109375 
Q 33.296875 -21.046875 25.484375 -21.046875 
Q 16.21875 -21.046875 10.5 -16.875 
Q 4.78125 -12.703125 4.984375 -4.296875 
z
M 12.25 26.859375 
Q 12.25 16.65625 16.296875 11.96875 
Q 20.359375 7.28125 26.46875 7.28125 
Q 32.515625 7.28125 36.609375 11.9375 
Q 40.71875 16.609375 40.71875 26.5625 
Q 40.71875 36.078125 36.5 40.90625 
Q 32.28125 45.75 26.3125 45.75 
Q 20.453125 45.75 16.34375 40.984375 
Q 12.25 36.234375 12.25 26.859375 
z
" id="ArialMT-67"/>
     <path d="M 40.578125 0 
L 40.578125 7.625 
Q 34.515625 -1.171875 24.125 -1.171875 
Q 19.53125 -1.171875 15.546875 0.578125 
Q 11.578125 2.34375 9.640625 5 
Q 7.71875 7.671875 6.9375 11.53125 
Q 6.390625 14.109375 6.390625 19.734375 
L 6.390625 51.859375 
L 15.1875 51.859375 
L 15.1875 23.09375 
Q 15.1875 16.21875 15.71875 13.8125 
Q 16.546875 10.359375 19.234375 8.375 
Q 21.921875 6.390625 25.875 6.390625 
Q 29.828125 6.390625 33.296875 8.421875 
Q 36.765625 10.453125 38.203125 13.9375 
Q 39.65625 17.4375 39.65625 24.078125 
L 39.65625 51.859375 
L 48.4375 51.859375 
L 48.4375 0 
z
" id="ArialMT-75"/>
     <path d="M 6.5 0 
L 6.5 51.859375 
L 14.40625 51.859375 
L 14.40625 44 
Q 17.4375 49.515625 20 51.265625 
Q 22.5625 53.03125 25.640625 53.03125 
Q 30.078125 53.03125 34.671875 50.203125 
L 31.640625 42.046875 
Q 28.421875 43.953125 25.203125 43.953125 
Q 22.3125 43.953125 20.015625 42.21875 
Q 17.71875 40.484375 16.75 37.40625 
Q 15.28125 32.71875 15.28125 27.15625 
L 15.28125 0 
z
" id="ArialMT-72"/>
     <path d="M 3.171875 21.484375 
L 3.171875 30.328125 
L 30.171875 30.328125 
L 30.171875 21.484375 
z
" id="ArialMT-2d"/>
     <path d="M 6.59375 0 
L 6.59375 51.859375 
L 14.453125 51.859375 
L 14.453125 44.578125 
Q 16.890625 48.390625 20.9375 50.703125 
Q 25 53.03125 30.171875 53.03125 
Q 35.9375 53.03125 39.625 50.640625 
Q 43.3125 48.25 44.828125 43.953125 
Q 50.984375 53.03125 60.84375 53.03125 
Q 68.5625 53.03125 72.703125 48.75 
Q 76.859375 44.484375 76.859375 35.59375 
L 76.859375 0 
L 68.109375 0 
L 68.109375 32.671875 
Q 68.109375 37.9375 67.25 40.25 
Q 66.40625 42.578125 64.15625 43.984375 
Q 61.921875 45.40625 58.890625 45.40625 
Q 53.421875 45.40625 49.796875 41.765625 
Q 46.1875 38.140625 46.1875 30.125 
L 46.1875 0 
L 37.40625 0 
L 37.40625 33.6875 
Q 37.40625 39.546875 35.25 42.46875 
Q 33.109375 45.40625 28.21875 45.40625 
Q 24.515625 45.40625 21.359375 43.453125 
Q 18.21875 41.5 16.796875 37.734375 
Q 15.375 33.984375 15.375 26.90625 
L 15.375 0 
z
" id="ArialMT-6d"/>
     <path d="M 6.640625 61.46875 
L 6.640625 71.578125 
L 15.4375 71.578125 
L 15.4375 61.46875 
z
M 6.640625 0 
L 6.640625 51.859375 
L 15.4375 51.859375 
L 15.4375 0 
z
" id="ArialMT-69"/>
     <path d="M 40.4375 19 
L 49.078125 17.875 
Q 47.65625 8.9375 41.8125 3.875 
Q 35.984375 -1.171875 27.484375 -1.171875 
Q 16.84375 -1.171875 10.375 5.78125 
Q 3.90625 12.75 3.90625 25.734375 
Q 3.90625 34.125 6.6875 40.421875 
Q 9.46875 46.734375 15.15625 49.875 
Q 20.84375 53.03125 27.546875 53.03125 
Q 35.984375 53.03125 41.359375 48.75 
Q 46.734375 44.484375 48.25 36.625 
L 39.703125 35.296875 
Q 38.484375 40.53125 35.375 43.15625 
Q 32.28125 45.796875 27.875 45.796875 
Q 21.234375 45.796875 17.078125 41.03125 
Q 12.9375 36.28125 12.9375 25.984375 
Q 12.9375 15.53125 16.9375 10.796875 
Q 20.953125 6.0625 27.390625 6.0625 
Q 32.5625 6.0625 36.03125 9.234375 
Q 39.5 12.40625 40.4375 19 
z
" id="ArialMT-63"/>
     <path d="M 3.328125 25.921875 
Q 3.328125 40.328125 11.328125 47.265625 
Q 18.015625 53.03125 27.640625 53.03125 
Q 38.328125 53.03125 45.109375 46.015625 
Q 51.90625 39.015625 51.90625 26.65625 
Q 51.90625 16.65625 48.90625 10.90625 
Q 45.90625 5.171875 40.15625 2 
Q 34.421875 -1.171875 27.640625 -1.171875 
Q 16.75 -1.171875 10.03125 5.8125 
Q 3.328125 12.796875 3.328125 25.921875 
z
M 12.359375 25.921875 
Q 12.359375 15.96875 16.703125 11.015625 
Q 21.046875 6.0625 27.640625 6.0625 
Q 34.1875 6.0625 38.53125 11.03125 
Q 42.875 16.015625 42.875 26.21875 
Q 42.875 35.84375 38.5 40.796875 
Q 34.125 45.75 27.640625 45.75 
Q 21.046875 45.75 16.703125 40.8125 
Q 12.359375 35.890625 12.359375 25.921875 
z
" id="ArialMT-6f"/>
     <path id="ArialMT-20"/>
     <path d="M 4.5 23 
L 13.421875 23.78125 
Q 14.0625 18.40625 16.375 14.96875 
Q 18.703125 11.53125 23.578125 9.40625 
Q 28.46875 7.28125 34.578125 7.28125 
Q 39.984375 7.28125 44.140625 8.890625 
Q 48.296875 10.5 50.3125 13.296875 
Q 52.34375 16.109375 52.34375 19.4375 
Q 52.34375 22.796875 50.390625 25.3125 
Q 48.4375 27.828125 43.953125 29.546875 
Q 41.0625 30.671875 31.203125 33.03125 
Q 21.34375 35.40625 17.390625 37.5 
Q 12.25 40.1875 9.734375 44.15625 
Q 7.234375 48.140625 7.234375 53.078125 
Q 7.234375 58.5 10.296875 63.203125 
Q 13.375 67.921875 19.28125 70.359375 
Q 25.203125 72.796875 32.421875 72.796875 
Q 40.375 72.796875 46.453125 70.234375 
Q 52.546875 67.671875 55.8125 62.6875 
Q 59.078125 57.71875 59.328125 51.421875 
L 50.25 50.734375 
Q 49.515625 57.515625 45.28125 60.984375 
Q 41.0625 64.453125 32.8125 64.453125 
Q 24.21875 64.453125 20.28125 61.296875 
Q 16.359375 58.15625 16.359375 53.71875 
Q 16.359375 49.859375 19.140625 47.359375 
Q 21.875 44.875 33.421875 42.265625 
Q 44.96875 39.65625 49.265625 37.703125 
Q 55.515625 34.8125 58.484375 30.390625 
Q 61.46875 25.984375 61.46875 20.21875 
Q 61.46875 14.5 58.203125 9.4375 
Q 54.9375 4.390625 48.796875 1.578125 
Q 42.671875 -1.21875 35.015625 -1.21875 
Q 25.296875 -1.21875 18.71875 1.609375 
Q 12.15625 4.4375 8.421875 10.125 
Q 4.6875 15.828125 4.5 23 
z
" id="ArialMT-53"/>
     <path d="M 7.421875 0 
L 7.421875 71.578125 
L 21.6875 71.578125 
L 38.625 20.90625 
Q 40.96875 13.8125 42.046875 10.296875 
Q 43.265625 14.203125 45.84375 21.78125 
L 62.984375 71.578125 
L 75.734375 71.578125 
L 75.734375 0 
L 66.609375 0 
L 66.609375 59.90625 
L 45.796875 0 
L 37.25 0 
L 16.546875 60.9375 
L 16.546875 0 
z
" id="ArialMT-4d"/>
    </defs>
    <g style="fill:#262626;" transform="translate(71.802813 19.44)scale(0.12 -0.12)">
     <use xlink:href="#ArialMT-4a"/>
     <use x="50" xlink:href="#ArialMT-61"/>
     <use x="105.615234" xlink:href="#ArialMT-67"/>
     <use x="161.230469" xlink:href="#ArialMT-75"/>
     <use x="216.845703" xlink:href="#ArialMT-61"/>
     <use x="272.460938" xlink:href="#ArialMT-72"/>
     <use x="305.761719" xlink:href="#ArialMT-2d"/>
     <use x="339.0625" xlink:href="#ArialMT-6d"/>
     <use x="422.363281" xlink:href="#ArialMT-69"/>
     <use x="444.580078" xlink:href="#ArialMT-63"/>
     <use x="494.580078" xlink:href="#ArialMT-72"/>
     <use x="527.880859" xlink:href="#ArialMT-6f"/>
     <use x="583.496094" xlink:href="#ArialMT-20"/>
     <use x="611.279297" xlink:href="#ArialMT-53"/>
     <use x="677.978516" xlink:href="#ArialMT-4d"/>
     <use x="761.279297" xlink:href="#ArialMT-32"/>
     <use x="816.894531" xlink:href="#ArialMT-30"/>
    </g>
   </g>
  </g>
 </g>
 <defs>
  <clipPath id="p46e1681567">
   <rect height="150.52" width="158.74" x="44.78" y="25.44"/>
  </clipPath>
 </defs>
</svg>
