<?xml version="1.0" encoding="utf-8" standalone="no"?>
<!DOCTYPE svg PUBLIC "-//W3C//DTD SVG 1.1//EN"
  "http://www.w3.org/Graphics/SVG/1.1/DTD/svg11.dtd">
<!-- Created with matplotlib (http://matplotlib.org/) -->
<svg height="216pt" version="1.1" viewBox="0 0 216 216" width="216pt" xmlns="http://www.w3.org/2000/svg" xmlns:xlink="http://www.w3.org/1999/xlink">
 <defs>
  <style type="text/css">
*{stroke-linecap:butt;stroke-linejoin:round;}
  </style>
 </defs>
 <g id="figure_1">
  <g id="patch_1">
   <path d="M 0 216 
L 216 216 
L 216 0 
L 0 0 
z
" style="fill:#ffffff;"/>
  </g>
  <g id="axes_1">
   <g id="patch_2">
    <path d="M 44.78 175.96 
L 203.52 175.96 
L 203.52 25.44 
L 44.78 25.44 
z
" style="fill:#ffffff;"/>
   </g>
   <g id="matplotlib.axis_1">
    <g id="xtick_1">
     <g id="line2d_1">
      <defs>
       <path d="M 0 0 
L 0 3.5 
" id="m93261fe353" style="stroke:#262626;stroke-width:0.8;"/>
      </defs>
      <g>
       <use style="fill:#262626;stroke:#262626;stroke-width:0.8;" x="51.995455" xlink:href="#m93261fe353" y="175.96"/>
      </g>
     </g>
     <g id="text_1">
      <!-- 2 -->
      <defs>
       <path d="M 50.34375 8.453125 
L 50.34375 0 
L 3.03125 0 
Q 2.9375 3.171875 4.046875 6.109375 
Q 5.859375 10.9375 9.828125 15.625 
Q 13.8125 20.3125 21.34375 26.46875 
Q 33.015625 36.03125 37.109375 41.625 
Q 41.21875 47.21875 41.21875 52.203125 
Q 41.21875 57.421875 37.46875 61 
Q 33.734375 64.59375 27.734375 64.59375 
Q 21.390625 64.59375 17.578125 60.78125 
Q 13.765625 56.984375 13.71875 50.25 
L 4.6875 51.171875 
Q 5.609375 61.28125 11.65625 66.578125 
Q 17.71875 71.875 27.9375 71.875 
Q 38.234375 71.875 44.234375 66.15625 
Q 50.25 60.453125 50.25 52 
Q 50.25 47.703125 48.484375 43.546875 
Q 46.734375 39.40625 42.65625 34.8125 
Q 38.578125 30.21875 29.109375 22.21875 
Q 21.1875 15.578125 18.9375 13.203125 
Q 16.703125 10.84375 15.234375 8.453125 
z
" id="ArialMT-32"/>
      </defs>
      <g style="fill:#262626;" transform="translate(49.214986 190.117812)scale(0.1 -0.1)">
       <use xlink:href="#ArialMT-32"/>
      </g>
     </g>
    </g>
    <g id="xtick_2">
     <g id="line2d_2">
      <g>
       <use style="fill:#262626;stroke:#262626;stroke-width:0.8;" x="80.857273" xlink:href="#m93261fe353" y="175.96"/>
      </g>
     </g>
     <g id="text_2">
      <!-- 4 -->
      <defs>
       <path d="M 32.328125 0 
L 32.328125 17.140625 
L 1.265625 17.140625 
L 1.265625 25.203125 
L 33.9375 71.578125 
L 41.109375 71.578125 
L 41.109375 25.203125 
L 50.78125 25.203125 
L 50.78125 17.140625 
L 41.109375 17.140625 
L 41.109375 0 
z
M 32.328125 25.203125 
L 32.328125 57.46875 
L 9.90625 25.203125 
z
" id="ArialMT-34"/>
      </defs>
      <g style="fill:#262626;" transform="translate(78.076804 190.117812)scale(0.1 -0.1)">
       <use xlink:href="#ArialMT-34"/>
      </g>
     </g>
    </g>
    <g id="xtick_3">
     <g id="line2d_3">
      <g>
       <use style="fill:#262626;stroke:#262626;stroke-width:0.8;" x="109.719091" xlink:href="#m93261fe353" y="175.96"/>
      </g>
     </g>
     <g id="text_3">
      <!-- 6 -->
      <defs>
       <path d="M 49.75 54.046875 
L 41.015625 53.375 
Q 39.84375 58.546875 37.703125 60.890625 
Q 34.125 64.65625 28.90625 64.65625 
Q 24.703125 64.65625 21.53125 62.3125 
Q 17.390625 59.28125 14.984375 53.46875 
Q 12.59375 47.65625 12.5 36.921875 
Q 15.671875 41.75 20.265625 44.09375 
Q 24.859375 46.4375 29.890625 46.4375 
Q 38.671875 46.4375 44.84375 39.96875 
Q 51.03125 33.5 51.03125 23.25 
Q 51.03125 16.5 48.125 10.71875 
Q 45.21875 4.9375 40.140625 1.859375 
Q 35.0625 -1.21875 28.609375 -1.21875 
Q 17.625 -1.21875 10.6875 6.859375 
Q 3.765625 14.9375 3.765625 33.5 
Q 3.765625 54.25 11.421875 63.671875 
Q 18.109375 71.875 29.4375 71.875 
Q 37.890625 71.875 43.28125 67.140625 
Q 48.6875 62.40625 49.75 54.046875 
z
M 13.875 23.1875 
Q 13.875 18.65625 15.796875 14.5 
Q 17.71875 10.359375 21.1875 8.171875 
Q 24.65625 6 28.46875 6 
Q 34.03125 6 38.03125 10.484375 
Q 42.046875 14.984375 42.046875 22.703125 
Q 42.046875 30.125 38.078125 34.390625 
Q 34.125 38.671875 28.125 38.671875 
Q 22.171875 38.671875 18.015625 34.390625 
Q 13.875 30.125 13.875 23.1875 
z
" id="ArialMT-36"/>
      </defs>
      <g style="fill:#262626;" transform="translate(106.938622 190.117812)scale(0.1 -0.1)">
       <use xlink:href="#ArialMT-36"/>
      </g>
     </g>
    </g>
    <g id="xtick_4">
     <g id="line2d_4">
      <g>
       <use style="fill:#262626;stroke:#262626;stroke-width:0.8;" x="138.580909" xlink:href="#m93261fe353" y="175.96"/>
      </g>
     </g>
     <g id="text_4">
      <!-- 8 -->
      <defs>
       <path d="M 17.671875 38.8125 
Q 12.203125 40.828125 9.5625 44.53125 
Q 6.9375 48.25 6.9375 53.421875 
Q 6.9375 61.234375 12.546875 66.546875 
Q 18.171875 71.875 27.484375 71.875 
Q 36.859375 71.875 42.578125 66.421875 
Q 48.296875 60.984375 48.296875 53.171875 
Q 48.296875 48.1875 45.671875 44.5 
Q 43.0625 40.828125 37.75 38.8125 
Q 44.34375 36.671875 47.78125 31.875 
Q 51.21875 27.09375 51.21875 20.453125 
Q 51.21875 11.28125 44.71875 5.03125 
Q 38.234375 -1.21875 27.640625 -1.21875 
Q 17.046875 -1.21875 10.546875 5.046875 
Q 4.046875 11.328125 4.046875 20.703125 
Q 4.046875 27.6875 7.59375 32.390625 
Q 11.140625 37.109375 17.671875 38.8125 
z
M 15.921875 53.71875 
Q 15.921875 48.640625 19.1875 45.40625 
Q 22.46875 42.1875 27.6875 42.1875 
Q 32.765625 42.1875 36.015625 45.375 
Q 39.265625 48.578125 39.265625 53.21875 
Q 39.265625 58.0625 35.90625 61.359375 
Q 32.5625 64.65625 27.59375 64.65625 
Q 22.5625 64.65625 19.234375 61.421875 
Q 15.921875 58.203125 15.921875 53.71875 
z
M 13.09375 20.65625 
Q 13.09375 16.890625 14.875 13.375 
Q 16.65625 9.859375 20.171875 7.921875 
Q 23.6875 6 27.734375 6 
Q 34.03125 6 38.125 10.046875 
Q 42.234375 14.109375 42.234375 20.359375 
Q 42.234375 26.703125 38.015625 30.859375 
Q 33.796875 35.015625 27.4375 35.015625 
Q 21.234375 35.015625 17.15625 30.90625 
Q 13.09375 26.8125 13.09375 20.65625 
z
" id="ArialMT-38"/>
      </defs>
      <g style="fill:#262626;" transform="translate(135.80044 190.117812)scale(0.1 -0.1)">
       <use xlink:href="#ArialMT-38"/>
      </g>
     </g>
    </g>
    <g id="xtick_5">
     <g id="line2d_5">
      <g>
       <use style="fill:#262626;stroke:#262626;stroke-width:0.8;" x="167.442727" xlink:href="#m93261fe353" y="175.96"/>
      </g>
     </g>
     <g id="text_5">
      <!-- 10 -->
      <defs>
       <path d="M 37.25 0 
L 28.46875 0 
L 28.46875 56 
Q 25.296875 52.984375 20.140625 49.953125 
Q 14.984375 46.921875 10.890625 45.40625 
L 10.890625 53.90625 
Q 18.265625 57.375 23.78125 62.296875 
Q 29.296875 67.234375 31.59375 71.875 
L 37.25 71.875 
z
" id="ArialMT-31"/>
       <path d="M 4.15625 35.296875 
Q 4.15625 48 6.765625 55.734375 
Q 9.375 63.484375 14.515625 67.671875 
Q 19.671875 71.875 27.484375 71.875 
Q 33.25 71.875 37.59375 69.546875 
Q 41.9375 67.234375 44.765625 62.859375 
Q 47.609375 58.5 49.21875 52.21875 
Q 50.828125 45.953125 50.828125 35.296875 
Q 50.828125 22.703125 48.234375 14.96875 
Q 45.65625 7.234375 40.5 3 
Q 35.359375 -1.21875 27.484375 -1.21875 
Q 17.140625 -1.21875 11.234375 6.203125 
Q 4.15625 15.140625 4.15625 35.296875 
z
M 13.1875 35.296875 
Q 13.1875 17.671875 17.3125 11.828125 
Q 21.4375 6 27.484375 6 
Q 33.546875 6 37.671875 11.859375 
Q 41.796875 17.71875 41.796875 35.296875 
Q 41.796875 52.984375 37.671875 58.78125 
Q 33.546875 64.59375 27.390625 64.59375 
Q 21.34375 64.59375 17.71875 59.46875 
Q 13.1875 52.9375 13.1875 35.296875 
z
" id="ArialMT-30"/>
      </defs>
      <g style="fill:#262626;" transform="translate(161.88179 190.117812)scale(0.1 -0.1)">
       <use xlink:href="#ArialMT-31"/>
       <use x="55.615234" xlink:href="#ArialMT-30"/>
      </g>
     </g>
    </g>
    <g id="xtick_6">
     <g id="line2d_6">
      <g>
       <use style="fill:#262626;stroke:#262626;stroke-width:0.8;" x="196.304545" xlink:href="#m93261fe353" y="175.96"/>
      </g>
     </g>
     <g id="text_6">
      <!-- 12 -->
      <g style="fill:#262626;" transform="translate(190.743608 190.117812)scale(0.1 -0.1)">
       <use xlink:href="#ArialMT-31"/>
       <use x="55.615234" xlink:href="#ArialMT-32"/>
      </g>
     </g>
    </g>
    <g id="text_7">
     <!-- pH -->
     <defs>
      <path d="M 6.59375 -19.875 
L 6.59375 51.859375 
L 14.59375 51.859375 
L 14.59375 45.125 
Q 17.4375 49.078125 21 51.046875 
Q 24.5625 53.03125 29.640625 53.03125 
Q 36.28125 53.03125 41.359375 49.609375 
Q 46.4375 46.1875 49.015625 39.953125 
Q 51.609375 33.734375 51.609375 26.3125 
Q 51.609375 18.359375 48.75 11.984375 
Q 45.90625 5.609375 40.453125 2.21875 
Q 35.015625 -1.171875 29 -1.171875 
Q 24.609375 -1.171875 21.109375 0.6875 
Q 17.625 2.546875 15.375 5.375 
L 15.375 -19.875 
z
M 14.546875 25.640625 
Q 14.546875 15.625 18.59375 10.84375 
Q 22.65625 6.0625 28.421875 6.0625 
Q 34.28125 6.0625 38.453125 11.015625 
Q 42.625 15.96875 42.625 26.375 
Q 42.625 36.28125 38.546875 41.203125 
Q 34.46875 46.140625 28.8125 46.140625 
Q 23.1875 46.140625 18.859375 40.890625 
Q 14.546875 35.640625 14.546875 25.640625 
z
" id="ArialMT-70"/>
      <path d="M 8.015625 0 
L 8.015625 71.578125 
L 17.484375 71.578125 
L 17.484375 42.1875 
L 54.6875 42.1875 
L 54.6875 71.578125 
L 64.15625 71.578125 
L 64.15625 0 
L 54.6875 0 
L 54.6875 33.734375 
L 17.484375 33.734375 
L 17.484375 0 
z
" id="ArialMT-48"/>
     </defs>
     <g style="fill:#262626;" transform="translate(117.758594 203.263125)scale(0.1 -0.1)">
      <use xlink:href="#ArialMT-70"/>
      <use x="55.615234" xlink:href="#ArialMT-48"/>
     </g>
    </g>
   </g>
   <g id="matplotlib.axis_2">
    <g id="ytick_1">
     <g id="line2d_7">
      <defs>
       <path d="M 0 0 
L -3.5 0 
" id="m398233e44f" style="stroke:#262626;stroke-width:0.8;"/>
      </defs>
      <g>
       <use style="fill:#262626;stroke:#262626;stroke-width:0.8;" x="44.78" xlink:href="#m398233e44f" y="149.743569"/>
      </g>
     </g>
     <g id="text_8">
      <!-- −1 -->
      <defs>
       <path d="M 52.828125 31.203125 
L 5.5625 31.203125 
L 5.5625 39.40625 
L 52.828125 39.40625 
z
" id="ArialMT-2212"/>
      </defs>
      <g style="fill:#262626;" transform="translate(26.378438 153.322476)scale(0.1 -0.1)">
       <use xlink:href="#ArialMT-2212"/>
       <use x="58.398438" xlink:href="#ArialMT-31"/>
      </g>
     </g>
    </g>
    <g id="ytick_2">
     <g id="line2d_8">
      <g>
       <use style="fill:#262626;stroke:#262626;stroke-width:0.8;" x="44.78" xlink:href="#m398233e44f" y="106.128115"/>
      </g>
     </g>
     <g id="text_9">
      <!-- 0 -->
      <g style="fill:#262626;" transform="translate(32.219063 109.707021)scale(0.1 -0.1)">
       <use xlink:href="#ArialMT-30"/>
      </g>
     </g>
    </g>
    <g id="ytick_3">
     <g id="line2d_9">
      <g>
       <use style="fill:#262626;stroke:#262626;stroke-width:0.8;" x="44.78" xlink:href="#m398233e44f" y="62.51266"/>
      </g>
     </g>
     <g id="text_10">
      <!-- 1 -->
      <g style="fill:#262626;" transform="translate(32.219063 66.091566)scale(0.1 -0.1)">
       <use xlink:href="#ArialMT-31"/>
      </g>
     </g>
    </g>
    <g id="text_11">
     <!-- $\langle q_\mathsf{total} \rangle$ -->
     <defs>
      <path d="M 8.9375 31.34375 
L 22.703125 75.875 
L 31 75.875 
L 17.234375 31.34375 
L 31 -13.1875 
L 22.703125 -13.1875 
z
" id="DejaVuSans-27e8"/>
      <path d="M 41.703125 8.203125 
Q 38.09375 3.46875 33.171875 1.015625 
Q 28.265625 -1.421875 22.3125 -1.421875 
Q 14.015625 -1.421875 9.296875 4.171875 
Q 4.59375 9.765625 4.59375 19.578125 
Q 4.59375 27.484375 7.5 34.859375 
Q 10.40625 42.234375 15.828125 48.09375 
Q 19.34375 51.90625 23.90625 53.953125 
Q 28.46875 56 33.5 56 
Q 39.546875 56 43.453125 53.609375 
Q 47.359375 51.21875 49.125 46.390625 
L 50.6875 54.59375 
L 59.71875 54.59375 
L 45.125 -20.609375 
L 36.078125 -20.609375 
z
M 13.921875 20.90625 
Q 13.921875 13.671875 16.9375 9.890625 
Q 19.96875 6.109375 25.6875 6.109375 
Q 34.1875 6.109375 40.1875 14.234375 
Q 46.1875 22.359375 46.1875 33.984375 
Q 46.1875 41.015625 43.078125 44.75 
Q 39.984375 48.484375 34.1875 48.484375 
Q 29.9375 48.484375 26.3125 46.5 
Q 22.703125 44.53125 20.015625 40.71875 
Q 17.1875 36.71875 15.546875 31.34375 
Q 13.921875 25.984375 13.921875 20.90625 
z
" id="DejaVuSans-Oblique-71"/>
      <path d="M 18.3125 70.21875 
L 18.3125 54.6875 
L 36.8125 54.6875 
L 36.8125 47.703125 
L 18.3125 47.703125 
L 18.3125 18.015625 
Q 18.3125 11.328125 20.140625 9.421875 
Q 21.96875 7.515625 27.59375 7.515625 
L 36.8125 7.515625 
L 36.8125 0 
L 27.59375 0 
Q 17.1875 0 13.234375 3.875 
Q 9.28125 7.765625 9.28125 18.015625 
L 9.28125 47.703125 
L 2.6875 47.703125 
L 2.6875 54.6875 
L 9.28125 54.6875 
L 9.28125 70.21875 
z
" id="DejaVuSans-74"/>
      <path d="M 30.609375 48.390625 
Q 23.390625 48.390625 19.1875 42.75 
Q 14.984375 37.109375 14.984375 27.296875 
Q 14.984375 17.484375 19.15625 11.84375 
Q 23.34375 6.203125 30.609375 6.203125 
Q 37.796875 6.203125 41.984375 11.859375 
Q 46.1875 17.53125 46.1875 27.296875 
Q 46.1875 37.015625 41.984375 42.703125 
Q 37.796875 48.390625 30.609375 48.390625 
z
M 30.609375 56 
Q 42.328125 56 49.015625 48.375 
Q 55.71875 40.765625 55.71875 27.296875 
Q 55.71875 13.875 49.015625 6.21875 
Q 42.328125 -1.421875 30.609375 -1.421875 
Q 18.84375 -1.421875 12.171875 6.21875 
Q 5.515625 13.875 5.515625 27.296875 
Q 5.515625 40.765625 12.171875 48.375 
Q 18.84375 56 30.609375 56 
z
" id="DejaVuSans-6f"/>
      <path d="M 34.28125 27.484375 
Q 23.390625 27.484375 19.1875 25 
Q 14.984375 22.515625 14.984375 16.5 
Q 14.984375 11.71875 18.140625 8.90625 
Q 21.296875 6.109375 26.703125 6.109375 
Q 34.1875 6.109375 38.703125 11.40625 
Q 43.21875 16.703125 43.21875 25.484375 
L 43.21875 27.484375 
z
M 52.203125 31.203125 
L 52.203125 0 
L 43.21875 0 
L 43.21875 8.296875 
Q 40.140625 3.328125 35.546875 0.953125 
Q 30.953125 -1.421875 24.3125 -1.421875 
Q 15.921875 -1.421875 10.953125 3.296875 
Q 6 8.015625 6 15.921875 
Q 6 25.140625 12.171875 29.828125 
Q 18.359375 34.515625 30.609375 34.515625 
L 43.21875 34.515625 
L 43.21875 35.40625 
Q 43.21875 41.609375 39.140625 45 
Q 35.0625 48.390625 27.6875 48.390625 
Q 23 48.390625 18.546875 47.265625 
Q 14.109375 46.140625 10.015625 43.890625 
L 10.015625 52.203125 
Q 14.9375 54.109375 19.578125 55.046875 
Q 24.21875 56 28.609375 56 
Q 40.484375 56 46.34375 49.84375 
Q 52.203125 43.703125 52.203125 31.203125 
z
" id="DejaVuSans-61"/>
      <path d="M 9.421875 75.984375 
L 18.40625 75.984375 
L 18.40625 0 
L 9.421875 0 
z
" id="DejaVuSans-6c"/>
      <path d="M 30.078125 31.34375 
L 16.3125 -13.1875 
L 8.015625 -13.1875 
L 21.78125 31.34375 
L 8.015625 75.875 
L 16.3125 75.875 
z
" id="DejaVuSans-27e9"/>
     </defs>
     <g style="fill:#262626;" transform="translate(20.278438 115.95)rotate(-90)scale(0.1 -0.1)">
      <use transform="translate(0 0.125)" xlink:href="#DejaVuSans-27e8"/>
      <use transform="translate(39.013672 0.125)" xlink:href="#DejaVuSans-Oblique-71"/>
      <use transform="translate(102.490234 -16.28125)scale(0.7)" xlink:href="#DejaVuSans-74"/>
      <use transform="translate(129.936523 -16.28125)scale(0.7)" xlink:href="#DejaVuSans-6f"/>
      <use transform="translate(172.763672 -16.28125)scale(0.7)" xlink:href="#DejaVuSans-74"/>
      <use transform="translate(200.209961 -16.28125)scale(0.7)" xlink:href="#DejaVuSans-61"/>
      <use transform="translate(243.105469 -16.28125)scale(0.7)" xlink:href="#DejaVuSans-6c"/>
      <use transform="translate(265.288086 0.125)" xlink:href="#DejaVuSans-27e9"/>
     </g>
    </g>
   </g>
   <g id="PolyCollection_1">
    <defs>
     <path d="M 51.995455 -179.108903 
L 51.995455 -127.506616 
L 53.438545 -126.794242 
L 54.881636 -126.077612 
L 56.324727 -125.35683 
L 57.767818 -124.630673 
L 59.210909 -123.896364 
L 60.654 -123.149424 
L 62.097091 -122.383582 
L 63.540182 -121.590737 
L 64.983273 -120.760915 
L 66.426364 -119.882229 
L 67.869455 -118.940843 
L 69.312545 -117.92099 
L 70.755636 -116.80512 
L 72.198727 -115.574273 
L 73.641818 -114.208822 
L 75.084909 -112.68972 
L 76.528 -111.00036 
L 77.971091 -109.129078 
L 79.414182 -107.07215 
L 80.857273 -104.83691 
L 82.300364 -102.444336 
L 83.743455 -99.930303 
L 85.186545 -97.344751 
L 86.629636 -94.748406 
L 88.072727 -92.207329 
L 89.515818 -89.786279 
L 90.958909 -87.54226 
L 92.402 -85.519581 
L 93.845091 -83.747251 
L 95.288182 -82.238823 
L 96.731273 -80.994223 
L 98.174364 -80.002772 
L 99.617455 -79.246601 
L 101.060545 -78.70383 
L 102.503636 -78.351159 
L 103.946727 -78.165715 
L 105.389818 -78.126213 
L 106.832909 -78.213548 
L 108.276 -78.410985 
L 109.719091 -78.704116 
L 111.162182 -79.080671 
L 112.605273 -79.530284 
L 114.048364 -80.044226 
L 115.491455 -80.615138 
L 116.934545 -81.236773 
L 118.377636 -81.903773 
L 119.820727 -82.611463 
L 121.263818 -83.355691 
L 122.706909 -84.132673 
L 124.15 -84.938857 
L 125.593091 -85.770803 
L 127.036182 -86.625097 
L 128.479273 -87.498305 
L 129.922364 -88.386982 
L 131.365455 -89.287699 
L 132.808545 -90.197088 
L 134.251636 -91.111843 
L 135.694727 -92.028675 
L 137.137818 -92.944178 
L 138.580909 -93.854512 
L 140.024 -94.754837 
L 141.467091 -95.638482 
L 142.910182 -96.496045 
L 144.353273 -97.31463 
L 145.796364 -98.07736 
L 147.239455 -98.763123 
L 148.682545 -99.346618 
L 150.125636 -99.798999 
L 151.568727 -100.089473 
L 153.011818 -100.188347 
L 154.454909 -100.071867 
L 155.898 -99.727539 
L 157.341091 -99.156848 
L 158.784182 -98.373129 
L 160.227273 -97.395905 
L 161.670364 -96.245124 
L 163.113455 -94.937552 
L 164.556545 -93.485407 
L 165.999636 -91.896511 
L 167.442727 -90.1751 
L 168.885818 -88.322626 
L 170.328909 -86.338413 
L 171.772 -84.220333 
L 173.215091 -81.965735 
L 174.658182 -79.57291 
L 176.101273 -77.043302 
L 177.544364 -74.384362 
L 178.987455 -71.612599 
L 180.430545 -68.756113 
L 181.873636 -65.856024 
L 183.316727 -62.966253 
L 184.759818 -60.151023 
L 186.202909 -57.479752 
L 187.646 -55.020069 
L 189.089091 -52.830665 
L 190.532182 -50.955743 
L 191.975273 -49.422037 
L 193.418364 -48.238527 
L 194.861455 -47.398309 
L 196.304545 -46.881818 
L 196.304545 -97.808321 
L 196.304545 -97.808321 
L 194.861455 -99.910046 
L 193.418364 -102.117153 
L 191.975273 -104.423758 
L 190.532182 -106.814353 
L 189.089091 -109.261591 
L 187.646 -111.725427 
L 186.202909 -114.154269 
L 184.759818 -116.488383 
L 183.316727 -118.665112 
L 181.873636 -120.624969 
L 180.430545 -122.317609 
L 178.987455 -123.70671 
L 177.544364 -124.772849 
L 176.101273 -125.51378 
L 174.658182 -125.942437 
L 173.215091 -126.083707 
L 171.772 -125.970948 
L 170.328909 -125.642755 
L 168.885818 -125.14019 
L 167.442727 -124.504608 
L 165.999636 -123.776217 
L 164.556545 -122.993399 
L 163.113455 -122.192796 
L 161.670364 -121.410052 
L 160.227273 -120.680868 
L 158.784182 -120.041579 
L 157.341091 -119.528278 
L 155.898 -119.173703 
L 154.454909 -119.001942 
L 153.011818 -119.023186 
L 151.568727 -119.231972 
L 150.125636 -119.610201 
L 148.682545 -120.132733 
L 147.239455 -120.772432 
L 145.796364 -121.503396 
L 144.353273 -122.302699 
L 142.910182 -123.151158 
L 141.467091 -124.033472 
L 140.024 -124.938058 
L 138.580909 -125.856621 
L 137.137818 -126.783461 
L 135.694727 -127.714612 
L 134.251636 -128.647067 
L 132.808545 -129.578249 
L 131.365455 -130.505742 
L 129.922364 -131.427201 
L 128.479273 -132.340356 
L 127.036182 -133.243075 
L 125.593091 -134.133472 
L 124.15 -135.010017 
L 122.706909 -135.871639 
L 121.263818 -136.717804 
L 119.820727 -137.548568 
L 118.377636 -138.364636 
L 116.934545 -139.167436 
L 115.491455 -139.959231 
L 114.048364 -140.743253 
L 112.605273 -141.523869 
L 111.162182 -142.30677 
L 109.719091 -143.099172 
L 108.276 -143.910051 
L 106.832909 -144.750366 
L 105.389818 -145.633246 
L 103.946727 -146.574076 
L 102.503636 -147.59041 
L 101.060545 -148.701629 
L 99.617455 -149.928239 
L 98.174364 -151.290731 
L 96.731273 -152.807875 
L 95.288182 -154.494406 
L 93.845091 -156.358173 
L 92.402 -158.397025 
L 90.958909 -160.59597 
L 89.515818 -162.925387 
L 88.072727 -165.341089 
L 86.629636 -167.786777 
L 85.186545 -170.198842 
L 83.743455 -172.512746 
L 82.300364 -174.669696 
L 80.857273 -176.62219 
L 79.414182 -178.337423 
L 77.971091 -179.798193 
L 76.528 -181.001637 
L 75.084909 -181.956512 
L 73.641818 -182.679845 
L 72.198727 -183.19364 
L 70.755636 -183.522065 
L 69.312545 -183.689319 
L 67.869455 -183.718182 
L 66.426364 -183.629164 
L 64.983273 -183.440129 
L 63.540182 -183.166263 
L 62.097091 -182.820273 
L 60.654 -182.412743 
L 59.210909 -181.952567 
L 57.767818 -181.447413 
L 56.324727 -180.904151 
L 54.881636 -180.329202 
L 53.438545 -179.728761 
L 51.995455 -179.108903 
z
" id="meaa0e8d877" style="stroke:#ffffff;stroke-opacity:0.05;"/>
    </defs>
    <g clip-path="url(#pe3b60f4366)">
     <use style="fill:#8c0800;fill-opacity:0.05;stroke:#ffffff;stroke-opacity:0.05;" x="0" xlink:href="#meaa0e8d877" y="216"/>
    </g>
   </g>
   <g id="line2d_10">
    <path clip-path="url(#pe3b60f4366)" d="M 51.995455 62.692241 
L 53.438545 62.738498 
L 54.881636 62.796593 
L 56.324727 62.869509 
L 57.767818 62.960957 
L 59.210909 63.075534 
L 60.654 63.218917 
L 62.097091 63.398072 
L 63.540182 63.6215 
L 64.983273 63.899478 
L 66.426364 64.244304 
L 67.869455 64.670488 
L 69.312545 65.194845 
L 70.755636 65.836407 
L 72.198727 66.616044 
L 73.641818 67.555667 
L 75.084909 68.676884 
L 76.528 69.999002 
L 77.971091 71.536365 
L 79.414182 73.295213 
L 80.857273 75.27045 
L 82.300364 77.442984 
L 83.743455 79.778475 
L 85.186545 82.228203 
L 86.629636 84.732409 
L 88.072727 87.225791 
L 89.515818 89.644167 
L 90.958909 91.930885 
L 92.402 94.041697 
L 93.845091 95.947288 
L 95.288182 97.633386 
L 96.731273 99.098951 
L 98.174364 100.353248 
L 99.617455 101.41258 
L 101.060545 102.297271 
L 102.503636 103.029215 
L 103.946727 103.630105 
L 105.389818 104.120271 
L 106.832909 104.518043 
L 108.276 104.839482 
L 109.719091 105.098356 
L 111.162182 105.30628 
L 112.605273 105.472923 
L 114.048364 105.606261 
L 115.491455 105.712816 
L 116.934545 105.797895 
L 118.377636 105.865796 
L 119.820727 105.919984 
L 121.263818 105.963252 
L 122.706909 105.997844 
L 124.15 106.025563 
L 125.593091 106.047862 
L 127.036182 106.065914 
L 128.479273 106.080669 
L 129.922364 106.092909 
L 131.365455 106.103279 
L 132.808545 106.112331 
L 134.251636 106.120545 
L 135.694727 106.128356 
L 137.137818 106.13618 
L 138.580909 106.144433 
L 140.024 106.153553 
L 141.467091 106.164023 
L 142.910182 106.176399 
L 144.353273 106.191335 
L 145.796364 106.209622 
L 147.239455 106.232222 
L 148.682545 106.260324 
L 150.125636 106.2954 
L 151.568727 106.339278 
L 153.011818 106.394233 
L 154.454909 106.463096 
L 155.898 106.549379 
L 157.341091 106.657437 
L 158.784182 106.792646 
L 160.227273 106.961614 
L 161.670364 107.172412 
L 163.113455 107.434826 
L 164.556545 107.760597 
L 165.999636 108.163636 
L 167.442727 108.660146 
L 168.885818 109.268592 
L 170.328909 110.009416 
L 171.772 110.904359 
L 173.215091 111.975279 
L 174.658182 113.242327 
L 176.101273 114.721459 
L 177.544364 116.421394 
L 178.987455 118.340345 
L 180.430545 120.463139 
L 181.873636 122.759504 
L 183.316727 125.184318 
L 184.759818 127.680297 
L 186.202909 130.182989 
L 187.646 132.627252 
L 189.089091 134.953872 
L 190.532182 137.114952 
L 191.975273 139.077102 
L 193.418364 140.82216 
L 194.861455 142.345822 
L 196.304545 143.65493 
" style="fill:none;opacity:0.9;stroke:#8c0800;stroke-linecap:round;stroke-width:1.5;"/>
   </g>
   <g id="line2d_11">
    <path clip-path="url(#pe3b60f4366)" d="M 51.995455 62.531258 
L 53.438545 62.53607 
L 54.881636 62.542128 
L 56.324727 62.549751 
L 57.767818 62.559345 
L 59.210909 62.571416 
L 60.654 62.586604 
L 62.097091 62.605709 
L 63.540182 62.629737 
L 64.983273 62.659949 
L 66.426364 62.697924 
L 67.869455 62.745638 
L 69.312545 62.805556 
L 70.755636 62.880755 
L 72.198727 62.975053 
L 73.641818 63.093185 
L 75.084909 63.240988 
L 76.528 63.425623 
L 77.971091 63.655817 
L 79.414182 63.942109 
L 80.857273 64.297087 
L 82.300364 64.735572 
L 83.743455 65.274692 
L 85.186545 65.933758 
L 86.629636 66.733838 
L 88.072727 67.696897 
L 89.515818 68.844362 
L 90.958909 70.195035 
L 92.402 71.762354 
L 93.845091 73.551202 
L 95.288182 75.554716 
L 96.731273 77.751769 
L 98.174364 80.105962 
L 99.617455 82.566825 
L 101.060545 85.073488 
L 102.503636 87.560405 
L 103.946727 89.964063 
L 105.389818 92.229261 
L 106.832909 94.313693 
L 108.276 96.190138 
L 109.719091 97.84627 
L 111.162182 99.282645 
L 112.605273 100.509689 
L 114.048364 101.544434 
L 115.491455 102.407567 
L 116.934545 103.121072 
L 118.377636 103.706542 
L 119.820727 104.184107 
L 121.263818 104.571848 
L 122.706909 104.885578 
L 124.15 105.138845 
L 125.593091 105.343089 
L 127.036182 105.507864 
L 128.479273 105.6411 
L 129.922364 105.749346 
L 131.365455 105.838022 
L 132.808545 105.911628 
L 134.251636 105.973941 
L 135.694727 106.028189 
L 137.137818 106.077198 
L 138.580909 106.123534 
L 140.024 106.16963 
L 141.467091 106.217905 
L 142.910182 106.270889 
L 144.353273 106.331346 
L 145.796364 106.402411 
L 147.239455 106.487738 
L 148.682545 106.59167 
L 150.125636 106.719423 
L 151.568727 106.877304 
L 153.011818 107.072945 
L 154.454909 107.315556 
L 155.898 107.61618 
L 157.341091 107.987928 
L 158.784182 108.446152 
L 160.227273 109.008491 
L 161.670364 109.694696 
L 163.113455 110.526137 
L 164.556545 111.524834 
L 165.999636 112.711899 
L 167.442727 114.105316 
L 168.885818 115.717089 
L 170.328909 117.550007 
L 171.772 119.594527 
L 173.215091 121.826489 
L 174.658182 124.20651 
L 176.101273 126.681673 
L 177.544364 129.189664 
L 178.987455 131.664799 
L 180.430545 134.044765 
L 181.873636 136.27664 
L 183.316727 138.321039 
L 184.759818 140.153797 
L 186.202909 141.765362 
L 187.646 143.158516 
L 189.089091 144.345247 
L 190.532182 145.343523 
L 191.975273 146.174434 
L 193.418364 146.859972 
L 194.861455 147.421472 
L 196.304545 147.878641 
" style="fill:none;opacity:0.7;stroke:#000000;stroke-linecap:round;stroke-width:1.5;"/>
   </g>
   <g id="line2d_12">
    <path clip-path="url(#pe3b60f4366)" d="M 51.995455 36.891097 
L 53.438545 36.271239 
L 54.881636 35.670798 
L 56.324727 35.095849 
L 57.767818 34.552587 
L 59.210909 34.047433 
L 60.654 33.587257 
L 62.097091 33.179727 
L 63.540182 32.833737 
L 64.983273 32.559871 
L 66.426364 32.370836 
L 67.869455 32.281818 
L 69.312545 32.310681 
L 70.755636 32.477935 
L 72.198727 32.80636 
L 73.641818 33.320155 
L 75.084909 34.043488 
L 76.528 34.998363 
L 77.971091 36.201807 
L 79.414182 37.662577 
L 80.857273 39.37781 
L 82.300364 41.330304 
L 83.743455 43.487254 
L 85.186545 45.801158 
L 86.629636 48.213223 
L 88.072727 50.658911 
L 89.515818 53.074613 
L 90.958909 55.40403 
L 92.402 57.602975 
L 93.845091 59.641827 
L 95.288182 61.505594 
L 96.731273 63.192125 
L 98.174364 64.709269 
L 99.617455 66.071761 
L 101.060545 67.298371 
L 102.503636 68.40959 
L 103.946727 69.425924 
L 105.389818 70.366754 
L 106.832909 71.249634 
L 108.276 72.089949 
L 109.719091 72.900828 
L 111.162182 73.69323 
L 112.605273 74.476131 
L 114.048364 75.256747 
L 115.491455 76.040769 
L 116.934545 76.832564 
L 118.377636 77.635364 
L 119.820727 78.451432 
L 121.263818 79.282196 
L 122.706909 80.128361 
L 124.15 80.989983 
L 125.593091 81.866528 
L 127.036182 82.756925 
L 128.479273 83.659644 
L 129.922364 84.572799 
L 131.365455 85.494258 
L 132.808545 86.421751 
L 134.251636 87.352933 
L 135.694727 88.285388 
L 137.137818 89.216539 
L 138.580909 90.143379 
L 140.024 91.061942 
L 141.467091 91.966528 
L 142.910182 92.848842 
L 144.353273 93.697301 
L 145.796364 94.496604 
L 147.239455 95.227568 
L 148.682545 95.867267 
L 150.125636 96.389799 
L 151.568727 96.768028 
L 153.011818 96.976814 
L 154.454909 96.998058 
L 155.898 96.826297 
L 157.341091 96.471722 
L 158.784182 95.958421 
L 160.227273 95.319132 
L 161.670364 94.589948 
L 163.113455 93.807204 
L 164.556545 93.006601 
L 165.999636 92.223783 
L 167.442727 91.495392 
L 168.885818 90.85981 
L 170.328909 90.357245 
L 171.772 90.029052 
L 173.215091 89.916293 
L 174.658182 90.057563 
L 176.101273 90.48622 
L 177.544364 91.227151 
L 178.987455 92.29329 
L 180.430545 93.682391 
L 181.873636 95.375031 
L 183.316727 97.334888 
L 184.759818 99.511617 
L 186.202909 101.845731 
L 187.646 104.274573 
L 189.089091 106.738409 
L 190.532182 109.185647 
L 191.975273 111.576242 
L 193.418364 113.882847 
L 194.861455 116.089954 
L 196.304545 118.191679 
" style="fill:none;opacity:0.45;stroke:#8c0800;stroke-dasharray:2.775,1.2;stroke-dashoffset:0;stroke-width:0.75;"/>
   </g>
   <g id="line2d_13">
    <path clip-path="url(#pe3b60f4366)" d="M 51.995455 88.493384 
L 53.438545 89.205758 
L 54.881636 89.922388 
L 56.324727 90.64317 
L 57.767818 91.369327 
L 59.210909 92.103636 
L 60.654 92.850576 
L 62.097091 93.616418 
L 63.540182 94.409263 
L 64.983273 95.239085 
L 66.426364 96.117771 
L 67.869455 97.059157 
L 69.312545 98.07901 
L 70.755636 99.19488 
L 72.198727 100.425727 
L 73.641818 101.791178 
L 75.084909 103.31028 
L 76.528 104.99964 
L 77.971091 106.870922 
L 79.414182 108.92785 
L 80.857273 111.16309 
L 82.300364 113.555664 
L 83.743455 116.069697 
L 85.186545 118.655249 
L 86.629636 121.251594 
L 88.072727 123.792671 
L 89.515818 126.213721 
L 90.958909 128.45774 
L 92.402 130.480419 
L 93.845091 132.252749 
L 95.288182 133.761177 
L 96.731273 135.005777 
L 98.174364 135.997228 
L 99.617455 136.753399 
L 101.060545 137.29617 
L 102.503636 137.648841 
L 103.946727 137.834285 
L 105.389818 137.873787 
L 106.832909 137.786452 
L 108.276 137.589015 
L 109.719091 137.295884 
L 111.162182 136.919329 
L 112.605273 136.469716 
L 114.048364 135.955774 
L 115.491455 135.384862 
L 116.934545 134.763227 
L 118.377636 134.096227 
L 119.820727 133.388537 
L 121.263818 132.644309 
L 122.706909 131.867327 
L 124.15 131.061143 
L 125.593091 130.229197 
L 127.036182 129.374903 
L 128.479273 128.501695 
L 129.922364 127.613018 
L 131.365455 126.712301 
L 132.808545 125.802912 
L 134.251636 124.888157 
L 135.694727 123.971325 
L 137.137818 123.055822 
L 138.580909 122.145488 
L 140.024 121.245163 
L 141.467091 120.361518 
L 142.910182 119.503955 
L 144.353273 118.68537 
L 145.796364 117.92264 
L 147.239455 117.236877 
L 148.682545 116.653382 
L 150.125636 116.201001 
L 151.568727 115.910527 
L 153.011818 115.811653 
L 154.454909 115.928133 
L 155.898 116.272461 
L 157.341091 116.843152 
L 158.784182 117.626871 
L 160.227273 118.604095 
L 161.670364 119.754876 
L 163.113455 121.062448 
L 164.556545 122.514593 
L 165.999636 124.103489 
L 167.442727 125.8249 
L 168.885818 127.677374 
L 170.328909 129.661587 
L 171.772 131.779667 
L 173.215091 134.034265 
L 174.658182 136.42709 
L 176.101273 138.956698 
L 177.544364 141.615638 
L 178.987455 144.387401 
L 180.430545 147.243887 
L 181.873636 150.143976 
L 183.316727 153.033747 
L 184.759818 155.848977 
L 186.202909 158.520248 
L 187.646 160.979931 
L 189.089091 163.169335 
L 190.532182 165.044257 
L 191.975273 166.577963 
L 193.418364 167.761473 
L 194.861455 168.601691 
L 196.304545 169.118182 
" style="fill:none;opacity:0.45;stroke:#8c0800;stroke-dasharray:2.775,1.2;stroke-dashoffset:0;stroke-width:0.75;"/>
   </g>
   <g id="patch_3">
    <path d="M 44.78 175.96 
L 44.78 25.44 
" style="fill:none;stroke:#262626;stroke-linecap:square;stroke-linejoin:miter;stroke-width:0.8;"/>
   </g>
   <g id="patch_4">
    <path d="M 44.78 175.96 
L 203.52 175.96 
" style="fill:none;stroke:#262626;stroke-linecap:square;stroke-linejoin:miter;stroke-width:0.8;"/>
   </g>
   <g id="text_12">
    <!-- Jaguar-micro SM16 -->
    <defs>
     <path d="M 2.875 20.3125 
L 11.421875 21.484375 
Q 11.765625 13.28125 14.5 10.25 
Q 17.234375 7.234375 22.078125 7.234375 
Q 25.640625 7.234375 28.21875 8.859375 
Q 30.8125 10.5 31.78125 13.296875 
Q 32.765625 16.109375 32.765625 22.265625 
L 32.765625 71.578125 
L 42.234375 71.578125 
L 42.234375 22.796875 
Q 42.234375 13.8125 40.0625 8.875 
Q 37.890625 3.953125 33.171875 1.359375 
Q 28.46875 -1.21875 22.125 -1.21875 
Q 12.703125 -1.21875 7.6875 4.203125 
Q 2.6875 9.625 2.875 20.3125 
z
" id="ArialMT-4a"/>
     <path d="M 40.4375 6.390625 
Q 35.546875 2.25 31.03125 0.53125 
Q 26.515625 -1.171875 21.34375 -1.171875 
Q 12.796875 -1.171875 8.203125 3 
Q 3.609375 7.171875 3.609375 13.671875 
Q 3.609375 17.484375 5.34375 20.625 
Q 7.078125 23.78125 9.890625 25.6875 
Q 12.703125 27.59375 16.21875 28.5625 
Q 18.796875 29.25 24.03125 29.890625 
Q 34.671875 31.15625 39.703125 32.90625 
Q 39.75 34.71875 39.75 35.203125 
Q 39.75 40.578125 37.25 42.78125 
Q 33.890625 45.75 27.25 45.75 
Q 21.046875 45.75 18.09375 43.578125 
Q 15.140625 41.40625 13.71875 35.890625 
L 5.125 37.0625 
Q 6.296875 42.578125 8.984375 45.96875 
Q 11.671875 49.359375 16.75 51.1875 
Q 21.828125 53.03125 28.515625 53.03125 
Q 35.15625 53.03125 39.296875 51.46875 
Q 43.453125 49.90625 45.40625 47.53125 
Q 47.359375 45.171875 48.140625 41.546875 
Q 48.578125 39.3125 48.578125 33.453125 
L 48.578125 21.734375 
Q 48.578125 9.46875 49.140625 6.21875 
Q 49.703125 2.984375 51.375 0 
L 42.1875 0 
Q 40.828125 2.734375 40.4375 6.390625 
z
M 39.703125 26.03125 
Q 34.90625 24.078125 25.34375 22.703125 
Q 19.921875 21.921875 17.671875 20.9375 
Q 15.4375 19.96875 14.203125 18.09375 
Q 12.984375 16.21875 12.984375 13.921875 
Q 12.984375 10.40625 15.640625 8.0625 
Q 18.3125 5.71875 23.4375 5.71875 
Q 28.515625 5.71875 32.46875 7.9375 
Q 36.421875 10.15625 38.28125 14.015625 
Q 39.703125 17 39.703125 22.796875 
z
" id="ArialMT-61"/>
     <path d="M 4.984375 -4.296875 
L 13.53125 -5.5625 
Q 14.0625 -9.515625 16.5 -11.328125 
Q 19.78125 -13.765625 25.4375 -13.765625 
Q 31.546875 -13.765625 34.859375 -11.328125 
Q 38.1875 -8.890625 39.359375 -4.5 
Q 40.046875 -1.8125 39.984375 6.78125 
Q 34.234375 0 25.640625 0 
Q 14.9375 0 9.078125 7.71875 
Q 3.21875 15.4375 3.21875 26.21875 
Q 3.21875 33.640625 5.90625 39.90625 
Q 8.59375 46.1875 13.6875 49.609375 
Q 18.796875 53.03125 25.6875 53.03125 
Q 34.859375 53.03125 40.828125 45.609375 
L 40.828125 51.859375 
L 48.921875 51.859375 
L 48.921875 7.03125 
Q 48.921875 -5.078125 46.453125 -10.125 
Q 44 -15.1875 38.640625 -18.109375 
Q 33.296875 -21.046875 25.484375 -21.046875 
Q 16.21875 -21.046875 10.5 -16.875 
Q 4.78125 -12.703125 4.984375 -4.296875 
z
M 12.25 26.859375 
Q 12.25 16.65625 16.296875 11.96875 
Q 20.359375 7.28125 26.46875 7.28125 
Q 32.515625 7.28125 36.609375 11.9375 
Q 40.71875 16.609375 40.71875 26.5625 
Q 40.71875 36.078125 36.5 40.90625 
Q 32.28125 45.75 26.3125 45.75 
Q 20.453125 45.75 16.34375 40.984375 
Q 12.25 36.234375 12.25 26.859375 
z
" id="ArialMT-67"/>
     <path d="M 40.578125 0 
L 40.578125 7.625 
Q 34.515625 -1.171875 24.125 -1.171875 
Q 19.53125 -1.171875 15.546875 0.578125 
Q 11.578125 2.34375 9.640625 5 
Q 7.71875 7.671875 6.9375 11.53125 
Q 6.390625 14.109375 6.390625 19.734375 
L 6.390625 51.859375 
L 15.1875 51.859375 
L 15.1875 23.09375 
Q 15.1875 16.21875 15.71875 13.8125 
Q 16.546875 10.359375 19.234375 8.375 
Q 21.921875 6.390625 25.875 6.390625 
Q 29.828125 6.390625 33.296875 8.421875 
Q 36.765625 10.453125 38.203125 13.9375 
Q 39.65625 17.4375 39.65625 24.078125 
L 39.65625 51.859375 
L 48.4375 51.859375 
L 48.4375 0 
z
" id="ArialMT-75"/>
     <path d="M 6.5 0 
L 6.5 51.859375 
L 14.40625 51.859375 
L 14.40625 44 
Q 17.4375 49.515625 20 51.265625 
Q 22.5625 53.03125 25.640625 53.03125 
Q 30.078125 53.03125 34.671875 50.203125 
L 31.640625 42.046875 
Q 28.421875 43.953125 25.203125 43.953125 
Q 22.3125 43.953125 20.015625 42.21875 
Q 17.71875 40.484375 16.75 37.40625 
Q 15.28125 32.71875 15.28125 27.15625 
L 15.28125 0 
z
" id="ArialMT-72"/>
     <path d="M 3.171875 21.484375 
L 3.171875 30.328125 
L 30.171875 30.328125 
L 30.171875 21.484375 
z
" id="ArialMT-2d"/>
     <path d="M 6.59375 0 
L 6.59375 51.859375 
L 14.453125 51.859375 
L 14.453125 44.578125 
Q 16.890625 48.390625 20.9375 50.703125 
Q 25 53.03125 30.171875 53.03125 
Q 35.9375 53.03125 39.625 50.640625 
Q 43.3125 48.25 44.828125 43.953125 
Q 50.984375 53.03125 60.84375 53.03125 
Q 68.5625 53.03125 72.703125 48.75 
Q 76.859375 44.484375 76.859375 35.59375 
L 76.859375 0 
L 68.109375 0 
L 68.109375 32.671875 
Q 68.109375 37.9375 67.25 40.25 
Q 66.40625 42.578125 64.15625 43.984375 
Q 61.921875 45.40625 58.890625 45.40625 
Q 53.421875 45.40625 49.796875 41.765625 
Q 46.1875 38.140625 46.1875 30.125 
L 46.1875 0 
L 37.40625 0 
L 37.40625 33.6875 
Q 37.40625 39.546875 35.25 42.46875 
Q 33.109375 45.40625 28.21875 45.40625 
Q 24.515625 45.40625 21.359375 43.453125 
Q 18.21875 41.5 16.796875 37.734375 
Q 15.375 33.984375 15.375 26.90625 
L 15.375 0 
z
" id="ArialMT-6d"/>
     <path d="M 6.640625 61.46875 
L 6.640625 71.578125 
L 15.4375 71.578125 
L 15.4375 61.46875 
z
M 6.640625 0 
L 6.640625 51.859375 
L 15.4375 51.859375 
L 15.4375 0 
z
" id="ArialMT-69"/>
     <path d="M 40.4375 19 
L 49.078125 17.875 
Q 47.65625 8.9375 41.8125 3.875 
Q 35.984375 -1.171875 27.484375 -1.171875 
Q 16.84375 -1.171875 10.375 5.78125 
Q 3.90625 12.75 3.90625 25.734375 
Q 3.90625 34.125 6.6875 40.421875 
Q 9.46875 46.734375 15.15625 49.875 
Q 20.84375 53.03125 27.546875 53.03125 
Q 35.984375 53.03125 41.359375 48.75 
Q 46.734375 44.484375 48.25 36.625 
L 39.703125 35.296875 
Q 38.484375 40.53125 35.375 43.15625 
Q 32.28125 45.796875 27.875 45.796875 
Q 21.234375 45.796875 17.078125 41.03125 
Q 12.9375 36.28125 12.9375 25.984375 
Q 12.9375 15.53125 16.9375 10.796875 
Q 20.953125 6.0625 27.390625 6.0625 
Q 32.5625 6.0625 36.03125 9.234375 
Q 39.5 12.40625 40.4375 19 
z
" id="ArialMT-63"/>
     <path d="M 3.328125 25.921875 
Q 3.328125 40.328125 11.328125 47.265625 
Q 18.015625 53.03125 27.640625 53.03125 
Q 38.328125 53.03125 45.109375 46.015625 
Q 51.90625 39.015625 51.90625 26.65625 
Q 51.90625 16.65625 48.90625 10.90625 
Q 45.90625 5.171875 40.15625 2 
Q 34.421875 -1.171875 27.640625 -1.171875 
Q 16.75 -1.171875 10.03125 5.8125 
Q 3.328125 12.796875 3.328125 25.921875 
z
M 12.359375 25.921875 
Q 12.359375 15.96875 16.703125 11.015625 
Q 21.046875 6.0625 27.640625 6.0625 
Q 34.1875 6.0625 38.53125 11.03125 
Q 42.875 16.015625 42.875 26.21875 
Q 42.875 35.84375 38.5 40.796875 
Q 34.125 45.75 27.640625 45.75 
Q 21.046875 45.75 16.703125 40.8125 
Q 12.359375 35.890625 12.359375 25.921875 
z
" id="ArialMT-6f"/>
     <path id="ArialMT-20"/>
     <path d="M 4.5 23 
L 13.421875 23.78125 
Q 14.0625 18.40625 16.375 14.96875 
Q 18.703125 11.53125 23.578125 9.40625 
Q 28.46875 7.28125 34.578125 7.28125 
Q 39.984375 7.28125 44.140625 8.890625 
Q 48.296875 10.5 50.3125 13.296875 
Q 52.34375 16.109375 52.34375 19.4375 
Q 52.34375 22.796875 50.390625 25.3125 
Q 48.4375 27.828125 43.953125 29.546875 
Q 41.0625 30.671875 31.203125 33.03125 
Q 21.34375 35.40625 17.390625 37.5 
Q 12.25 40.1875 9.734375 44.15625 
Q 7.234375 48.140625 7.234375 53.078125 
Q 7.234375 58.5 10.296875 63.203125 
Q 13.375 67.921875 19.28125 70.359375 
Q 25.203125 72.796875 32.421875 72.796875 
Q 40.375 72.796875 46.453125 70.234375 
Q 52.546875 67.671875 55.8125 62.6875 
Q 59.078125 57.71875 59.328125 51.421875 
L 50.25 50.734375 
Q 49.515625 57.515625 45.28125 60.984375 
Q 41.0625 64.453125 32.8125 64.453125 
Q 24.21875 64.453125 20.28125 61.296875 
Q 16.359375 58.15625 16.359375 53.71875 
Q 16.359375 49.859375 19.140625 47.359375 
Q 21.875 44.875 33.421875 42.265625 
Q 44.96875 39.65625 49.265625 37.703125 
Q 55.515625 34.8125 58.484375 30.390625 
Q 61.46875 25.984375 61.46875 20.21875 
Q 61.46875 14.5 58.203125 9.4375 
Q 54.9375 4.390625 48.796875 1.578125 
Q 42.671875 -1.21875 35.015625 -1.21875 
Q 25.296875 -1.21875 18.71875 1.609375 
Q 12.15625 4.4375 8.421875 10.125 
Q 4.6875 15.828125 4.5 23 
z
" id="ArialMT-53"/>
     <path d="M 7.421875 0 
L 7.421875 71.578125 
L 21.6875 71.578125 
L 38.625 20.90625 
Q 40.96875 13.8125 42.046875 10.296875 
Q 43.265625 14.203125 45.84375 21.78125 
L 62.984375 71.578125 
L 75.734375 71.578125 
L 75.734375 0 
L 66.609375 0 
L 66.609375 59.90625 
L 45.796875 0 
L 37.25 0 
L 16.546875 60.9375 
L 16.546875 0 
z
" id="ArialMT-4d"/>
    </defs>
    <g style="fill:#262626;" transform="translate(71.802813 19.44)scale(0.12 -0.12)">
     <use xlink:href="#ArialMT-4a"/>
     <use x="50" xlink:href="#ArialMT-61"/>
     <use x="105.615234" xlink:href="#ArialMT-67"/>
     <use x="161.230469" xlink:href="#ArialMT-75"/>
     <use x="216.845703" xlink:href="#ArialMT-61"/>
     <use x="272.460938" xlink:href="#ArialMT-72"/>
     <use x="305.761719" xlink:href="#ArialMT-2d"/>
     <use x="339.0625" xlink:href="#ArialMT-6d"/>
     <use x="422.363281" xlink:href="#ArialMT-69"/>
     <use x="444.580078" xlink:href="#ArialMT-63"/>
     <use x="494.580078" xlink:href="#ArialMT-72"/>
     <use x="527.880859" xlink:href="#ArialMT-6f"/>
     <use x="583.496094" xlink:href="#ArialMT-20"/>
     <use x="611.279297" xlink:href="#ArialMT-53"/>
     <use x="677.978516" xlink:href="#ArialMT-4d"/>
     <use x="761.279297" xlink:href="#ArialMT-31"/>
     <use x="816.894531" xlink:href="#ArialMT-36"/>
    </g>
   </g>
  </g>
 </g>
 <defs>
  <clipPath id="pe3b60f4366">
   <rect height="150.52" width="158.74" x="44.78" y="25.44"/>
  </clipPath>
 </defs>
</svg>
