<?xml version="1.0" encoding="utf-8" standalone="no"?>
<!DOCTYPE svg PUBLIC "-//W3C//DTD SVG 1.1//EN"
  "http://www.w3.org/Graphics/SVG/1.1/DTD/svg11.dtd">
<!-- Created with matplotlib (http://matplotlib.org/) -->
<svg height="144pt" version="1.1" viewBox="0 0 144 144" width="144pt" xmlns="http://www.w3.org/2000/svg" xmlns:xlink="http://www.w3.org/1999/xlink">
 <defs>
  <style type="text/css">
*{stroke-linecap:butt;stroke-linejoin:round;}
  </style>
 </defs>
 <g id="figure_1">
  <g id="patch_1">
   <path d="M 0 144 
L 144 144 
L 144 0 
L 0 0 
z
" style="fill:#ffffff;"/>
  </g>
  <g id="axes_1">
   <g id="patch_2">
    <path d="M 32.525 101.92 
L 130.44 101.92 
L 130.44 13.56 
L 32.525 13.56 
z
" style="fill:#ffffff;"/>
   </g>
   <g id="matplotlib.axis_1">
    <g id="xtick_1">
     <g id="line2d_1">
      <defs>
       <path d="M 0 0 
L 0 3.5 
" id="m723a011d05" style="stroke:#262626;stroke-width:0.8;"/>
      </defs>
      <g>
       <use style="fill:#262626;stroke:#262626;stroke-width:0.8;" x="36.975682" xlink:href="#m723a011d05" y="101.92"/>
      </g>
     </g>
     <g id="text_1">
      <!-- 2 -->
      <defs>
       <path d="M 50.34375 8.453125 
L 50.34375 0 
L 3.03125 0 
Q 2.9375 3.171875 4.046875 6.109375 
Q 5.859375 10.9375 9.828125 15.625 
Q 13.8125 20.3125 21.34375 26.46875 
Q 33.015625 36.03125 37.109375 41.625 
Q 41.21875 47.21875 41.21875 52.203125 
Q 41.21875 57.421875 37.46875 61 
Q 33.734375 64.59375 27.734375 64.59375 
Q 21.390625 64.59375 17.578125 60.78125 
Q 13.765625 56.984375 13.71875 50.25 
L 4.6875 51.171875 
Q 5.609375 61.28125 11.65625 66.578125 
Q 17.71875 71.875 27.9375 71.875 
Q 38.234375 71.875 44.234375 66.15625 
Q 50.25 60.453125 50.25 52 
Q 50.25 47.703125 48.484375 43.546875 
Q 46.734375 39.40625 42.65625 34.8125 
Q 38.578125 30.21875 29.109375 22.21875 
Q 21.1875 15.578125 18.9375 13.203125 
Q 16.703125 10.84375 15.234375 8.453125 
z
" id="ArialMT-32"/>
      </defs>
      <g style="fill:#262626;" transform="translate(33.917166 116.793594)scale(0.11 -0.11)">
       <use xlink:href="#ArialMT-32"/>
      </g>
     </g>
    </g>
    <g id="xtick_2">
     <g id="line2d_2">
      <g>
       <use style="fill:#262626;stroke:#262626;stroke-width:0.8;" x="54.778409" xlink:href="#m723a011d05" y="101.92"/>
      </g>
     </g>
     <g id="text_2">
      <!-- 4 -->
      <defs>
       <path d="M 32.328125 0 
L 32.328125 17.140625 
L 1.265625 17.140625 
L 1.265625 25.203125 
L 33.9375 71.578125 
L 41.109375 71.578125 
L 41.109375 25.203125 
L 50.78125 25.203125 
L 50.78125 17.140625 
L 41.109375 17.140625 
L 41.109375 0 
z
M 32.328125 25.203125 
L 32.328125 57.46875 
L 9.90625 25.203125 
z
" id="ArialMT-34"/>
      </defs>
      <g style="fill:#262626;" transform="translate(51.719893 116.793594)scale(0.11 -0.11)">
       <use xlink:href="#ArialMT-34"/>
      </g>
     </g>
    </g>
    <g id="xtick_3">
     <g id="line2d_3">
      <g>
       <use style="fill:#262626;stroke:#262626;stroke-width:0.8;" x="72.581136" xlink:href="#m723a011d05" y="101.92"/>
      </g>
     </g>
     <g id="text_3">
      <!-- 6 -->
      <defs>
       <path d="M 49.75 54.046875 
L 41.015625 53.375 
Q 39.84375 58.546875 37.703125 60.890625 
Q 34.125 64.65625 28.90625 64.65625 
Q 24.703125 64.65625 21.53125 62.3125 
Q 17.390625 59.28125 14.984375 53.46875 
Q 12.59375 47.65625 12.5 36.921875 
Q 15.671875 41.75 20.265625 44.09375 
Q 24.859375 46.4375 29.890625 46.4375 
Q 38.671875 46.4375 44.84375 39.96875 
Q 51.03125 33.5 51.03125 23.25 
Q 51.03125 16.5 48.125 10.71875 
Q 45.21875 4.9375 40.140625 1.859375 
Q 35.0625 -1.21875 28.609375 -1.21875 
Q 17.625 -1.21875 10.6875 6.859375 
Q 3.765625 14.9375 3.765625 33.5 
Q 3.765625 54.25 11.421875 63.671875 
Q 18.109375 71.875 29.4375 71.875 
Q 37.890625 71.875 43.28125 67.140625 
Q 48.6875 62.40625 49.75 54.046875 
z
M 13.875 23.1875 
Q 13.875 18.65625 15.796875 14.5 
Q 17.71875 10.359375 21.1875 8.171875 
Q 24.65625 6 28.46875 6 
Q 34.03125 6 38.03125 10.484375 
Q 42.046875 14.984375 42.046875 22.703125 
Q 42.046875 30.125 38.078125 34.390625 
Q 34.125 38.671875 28.125 38.671875 
Q 22.171875 38.671875 18.015625 34.390625 
Q 13.875 30.125 13.875 23.1875 
z
" id="ArialMT-36"/>
      </defs>
      <g style="fill:#262626;" transform="translate(69.522621 116.793594)scale(0.11 -0.11)">
       <use xlink:href="#ArialMT-36"/>
      </g>
     </g>
    </g>
    <g id="xtick_4">
     <g id="line2d_4">
      <g>
       <use style="fill:#262626;stroke:#262626;stroke-width:0.8;" x="90.383864" xlink:href="#m723a011d05" y="101.92"/>
      </g>
     </g>
     <g id="text_4">
      <!-- 8 -->
      <defs>
       <path d="M 17.671875 38.8125 
Q 12.203125 40.828125 9.5625 44.53125 
Q 6.9375 48.25 6.9375 53.421875 
Q 6.9375 61.234375 12.546875 66.546875 
Q 18.171875 71.875 27.484375 71.875 
Q 36.859375 71.875 42.578125 66.421875 
Q 48.296875 60.984375 48.296875 53.171875 
Q 48.296875 48.1875 45.671875 44.5 
Q 43.0625 40.828125 37.75 38.8125 
Q 44.34375 36.671875 47.78125 31.875 
Q 51.21875 27.09375 51.21875 20.453125 
Q 51.21875 11.28125 44.71875 5.03125 
Q 38.234375 -1.21875 27.640625 -1.21875 
Q 17.046875 -1.21875 10.546875 5.046875 
Q 4.046875 11.328125 4.046875 20.703125 
Q 4.046875 27.6875 7.59375 32.390625 
Q 11.140625 37.109375 17.671875 38.8125 
z
M 15.921875 53.71875 
Q 15.921875 48.640625 19.1875 45.40625 
Q 22.46875 42.1875 27.6875 42.1875 
Q 32.765625 42.1875 36.015625 45.375 
Q 39.265625 48.578125 39.265625 53.21875 
Q 39.265625 58.0625 35.90625 61.359375 
Q 32.5625 64.65625 27.59375 64.65625 
Q 22.5625 64.65625 19.234375 61.421875 
Q 15.921875 58.203125 15.921875 53.71875 
z
M 13.09375 20.65625 
Q 13.09375 16.890625 14.875 13.375 
Q 16.65625 9.859375 20.171875 7.921875 
Q 23.6875 6 27.734375 6 
Q 34.03125 6 38.125 10.046875 
Q 42.234375 14.109375 42.234375 20.359375 
Q 42.234375 26.703125 38.015625 30.859375 
Q 33.796875 35.015625 27.4375 35.015625 
Q 21.234375 35.015625 17.15625 30.90625 
Q 13.09375 26.8125 13.09375 20.65625 
z
" id="ArialMT-38"/>
      </defs>
      <g style="fill:#262626;" transform="translate(87.325348 116.793594)scale(0.11 -0.11)">
       <use xlink:href="#ArialMT-38"/>
      </g>
     </g>
    </g>
    <g id="xtick_5">
     <g id="line2d_5">
      <g>
       <use style="fill:#262626;stroke:#262626;stroke-width:0.8;" x="108.186591" xlink:href="#m723a011d05" y="101.92"/>
      </g>
     </g>
     <g id="text_5">
      <!-- 10 -->
      <defs>
       <path d="M 37.25 0 
L 28.46875 0 
L 28.46875 56 
Q 25.296875 52.984375 20.140625 49.953125 
Q 14.984375 46.921875 10.890625 45.40625 
L 10.890625 53.90625 
Q 18.265625 57.375 23.78125 62.296875 
Q 29.296875 67.234375 31.59375 71.875 
L 37.25 71.875 
z
" id="ArialMT-31"/>
       <path d="M 4.15625 35.296875 
Q 4.15625 48 6.765625 55.734375 
Q 9.375 63.484375 14.515625 67.671875 
Q 19.671875 71.875 27.484375 71.875 
Q 33.25 71.875 37.59375 69.546875 
Q 41.9375 67.234375 44.765625 62.859375 
Q 47.609375 58.5 49.21875 52.21875 
Q 50.828125 45.953125 50.828125 35.296875 
Q 50.828125 22.703125 48.234375 14.96875 
Q 45.65625 7.234375 40.5 3 
Q 35.359375 -1.21875 27.484375 -1.21875 
Q 17.140625 -1.21875 11.234375 6.203125 
Q 4.15625 15.140625 4.15625 35.296875 
z
M 13.1875 35.296875 
Q 13.1875 17.671875 17.3125 11.828125 
Q 21.4375 6 27.484375 6 
Q 33.546875 6 37.671875 11.859375 
Q 41.796875 17.71875 41.796875 35.296875 
Q 41.796875 52.984375 37.671875 58.78125 
Q 33.546875 64.59375 27.390625 64.59375 
Q 21.34375 64.59375 17.71875 59.46875 
Q 13.1875 52.9375 13.1875 35.296875 
z
" id="ArialMT-30"/>
      </defs>
      <g style="fill:#262626;" transform="translate(102.06956 116.793594)scale(0.11 -0.11)">
       <use xlink:href="#ArialMT-31"/>
       <use x="55.615234" xlink:href="#ArialMT-30"/>
      </g>
     </g>
    </g>
    <g id="xtick_6">
     <g id="line2d_6">
      <g>
       <use style="fill:#262626;stroke:#262626;stroke-width:0.8;" x="125.989318" xlink:href="#m723a011d05" y="101.92"/>
      </g>
     </g>
     <g id="text_6">
      <!-- 12 -->
      <g style="fill:#262626;" transform="translate(119.872287 116.793594)scale(0.11 -0.11)">
       <use xlink:href="#ArialMT-31"/>
       <use x="55.615234" xlink:href="#ArialMT-32"/>
      </g>
     </g>
    </g>
    <g id="text_7">
     <!-- pH -->
     <defs>
      <path d="M 6.59375 -19.875 
L 6.59375 51.859375 
L 14.59375 51.859375 
L 14.59375 45.125 
Q 17.4375 49.078125 21 51.046875 
Q 24.5625 53.03125 29.640625 53.03125 
Q 36.28125 53.03125 41.359375 49.609375 
Q 46.4375 46.1875 49.015625 39.953125 
Q 51.609375 33.734375 51.609375 26.3125 
Q 51.609375 18.359375 48.75 11.984375 
Q 45.90625 5.609375 40.453125 2.21875 
Q 35.015625 -1.171875 29 -1.171875 
Q 24.609375 -1.171875 21.109375 0.6875 
Q 17.625 2.546875 15.375 5.375 
L 15.375 -19.875 
z
M 14.546875 25.640625 
Q 14.546875 15.625 18.59375 10.84375 
Q 22.65625 6.0625 28.421875 6.0625 
Q 34.28125 6.0625 38.453125 11.015625 
Q 42.625 15.96875 42.625 26.375 
Q 42.625 36.28125 38.546875 41.203125 
Q 34.46875 46.140625 28.8125 46.140625 
Q 23.1875 46.140625 18.859375 40.890625 
Q 14.546875 35.640625 14.546875 25.640625 
z
" id="ArialMT-70"/>
      <path d="M 8.015625 0 
L 8.015625 71.578125 
L 17.484375 71.578125 
L 17.484375 42.1875 
L 54.6875 42.1875 
L 54.6875 71.578125 
L 64.15625 71.578125 
L 64.15625 0 
L 54.6875 0 
L 54.6875 33.734375 
L 17.484375 33.734375 
L 17.484375 0 
z
" id="ArialMT-48"/>
     </defs>
     <g style="fill:#262626;" transform="translate(74.451953 130.853437)scale(0.11 -0.11)">
      <use xlink:href="#ArialMT-70"/>
      <use x="55.615234" xlink:href="#ArialMT-48"/>
     </g>
    </g>
   </g>
   <g id="matplotlib.axis_2">
    <g id="ytick_1">
     <g id="line2d_7">
      <defs>
       <path d="M 0 0 
L -3.5 0 
" id="m0e836c5681" style="stroke:#262626;stroke-width:0.8;"/>
      </defs>
      <g>
       <use style="fill:#262626;stroke:#262626;stroke-width:0.8;" x="32.525" xlink:href="#m0e836c5681" y="97.903636"/>
      </g>
     </g>
    </g>
    <g id="ytick_2">
     <g id="line2d_8">
      <g>
       <use style="fill:#262626;stroke:#262626;stroke-width:0.8;" x="32.525" xlink:href="#m0e836c5681" y="17.576364"/>
      </g>
     </g>
    </g>
    <g id="text_8">
     <!-- Population -->
     <defs>
      <path d="M 7.71875 0 
L 7.71875 71.578125 
L 34.71875 71.578125 
Q 41.84375 71.578125 45.609375 70.90625 
Q 50.875 70.015625 54.4375 67.546875 
Q 58.015625 65.09375 60.1875 60.640625 
Q 62.359375 56.203125 62.359375 50.875 
Q 62.359375 41.75 56.546875 35.421875 
Q 50.734375 29.109375 35.546875 29.109375 
L 17.1875 29.109375 
L 17.1875 0 
z
M 17.1875 37.546875 
L 35.6875 37.546875 
Q 44.875 37.546875 48.734375 40.96875 
Q 52.59375 44.390625 52.59375 50.59375 
Q 52.59375 55.078125 50.3125 58.265625 
Q 48.046875 61.46875 44.34375 62.5 
Q 41.9375 63.140625 35.5 63.140625 
L 17.1875 63.140625 
z
" id="ArialMT-50"/>
      <path d="M 3.328125 25.921875 
Q 3.328125 40.328125 11.328125 47.265625 
Q 18.015625 53.03125 27.640625 53.03125 
Q 38.328125 53.03125 45.109375 46.015625 
Q 51.90625 39.015625 51.90625 26.65625 
Q 51.90625 16.65625 48.90625 10.90625 
Q 45.90625 5.171875 40.15625 2 
Q 34.421875 -1.171875 27.640625 -1.171875 
Q 16.75 -1.171875 10.03125 5.8125 
Q 3.328125 12.796875 3.328125 25.921875 
z
M 12.359375 25.921875 
Q 12.359375 15.96875 16.703125 11.015625 
Q 21.046875 6.0625 27.640625 6.0625 
Q 34.1875 6.0625 38.53125 11.03125 
Q 42.875 16.015625 42.875 26.21875 
Q 42.875 35.84375 38.5 40.796875 
Q 34.125 45.75 27.640625 45.75 
Q 21.046875 45.75 16.703125 40.8125 
Q 12.359375 35.890625 12.359375 25.921875 
z
" id="ArialMT-6f"/>
      <path d="M 40.578125 0 
L 40.578125 7.625 
Q 34.515625 -1.171875 24.125 -1.171875 
Q 19.53125 -1.171875 15.546875 0.578125 
Q 11.578125 2.34375 9.640625 5 
Q 7.71875 7.671875 6.9375 11.53125 
Q 6.390625 14.109375 6.390625 19.734375 
L 6.390625 51.859375 
L 15.1875 51.859375 
L 15.1875 23.09375 
Q 15.1875 16.21875 15.71875 13.8125 
Q 16.546875 10.359375 19.234375 8.375 
Q 21.921875 6.390625 25.875 6.390625 
Q 29.828125 6.390625 33.296875 8.421875 
Q 36.765625 10.453125 38.203125 13.9375 
Q 39.65625 17.4375 39.65625 24.078125 
L 39.65625 51.859375 
L 48.4375 51.859375 
L 48.4375 0 
z
" id="ArialMT-75"/>
      <path d="M 6.390625 0 
L 6.390625 71.578125 
L 15.1875 71.578125 
L 15.1875 0 
z
" id="ArialMT-6c"/>
      <path d="M 40.4375 6.390625 
Q 35.546875 2.25 31.03125 0.53125 
Q 26.515625 -1.171875 21.34375 -1.171875 
Q 12.796875 -1.171875 8.203125 3 
Q 3.609375 7.171875 3.609375 13.671875 
Q 3.609375 17.484375 5.34375 20.625 
Q 7.078125 23.78125 9.890625 25.6875 
Q 12.703125 27.59375 16.21875 28.5625 
Q 18.796875 29.25 24.03125 29.890625 
Q 34.671875 31.15625 39.703125 32.90625 
Q 39.75 34.71875 39.75 35.203125 
Q 39.75 40.578125 37.25 42.78125 
Q 33.890625 45.75 27.25 45.75 
Q 21.046875 45.75 18.09375 43.578125 
Q 15.140625 41.40625 13.71875 35.890625 
L 5.125 37.0625 
Q 6.296875 42.578125 8.984375 45.96875 
Q 11.671875 49.359375 16.75 51.1875 
Q 21.828125 53.03125 28.515625 53.03125 
Q 35.15625 53.03125 39.296875 51.46875 
Q 43.453125 49.90625 45.40625 47.53125 
Q 47.359375 45.171875 48.140625 41.546875 
Q 48.578125 39.3125 48.578125 33.453125 
L 48.578125 21.734375 
Q 48.578125 9.46875 49.140625 6.21875 
Q 49.703125 2.984375 51.375 0 
L 42.1875 0 
Q 40.828125 2.734375 40.4375 6.390625 
z
M 39.703125 26.03125 
Q 34.90625 24.078125 25.34375 22.703125 
Q 19.921875 21.921875 17.671875 20.9375 
Q 15.4375 19.96875 14.203125 18.09375 
Q 12.984375 16.21875 12.984375 13.921875 
Q 12.984375 10.40625 15.640625 8.0625 
Q 18.3125 5.71875 23.4375 5.71875 
Q 28.515625 5.71875 32.46875 7.9375 
Q 36.421875 10.15625 38.28125 14.015625 
Q 39.703125 17 39.703125 22.796875 
z
" id="ArialMT-61"/>
      <path d="M 25.78125 7.859375 
L 27.046875 0.09375 
Q 23.34375 -0.6875 20.40625 -0.6875 
Q 15.625 -0.6875 12.984375 0.828125 
Q 10.359375 2.34375 9.28125 4.8125 
Q 8.203125 7.28125 8.203125 15.1875 
L 8.203125 45.015625 
L 1.765625 45.015625 
L 1.765625 51.859375 
L 8.203125 51.859375 
L 8.203125 64.703125 
L 16.9375 69.96875 
L 16.9375 51.859375 
L 25.78125 51.859375 
L 25.78125 45.015625 
L 16.9375 45.015625 
L 16.9375 14.703125 
Q 16.9375 10.9375 17.40625 9.859375 
Q 17.875 8.796875 18.921875 8.15625 
Q 19.96875 7.515625 21.921875 7.515625 
Q 23.390625 7.515625 25.78125 7.859375 
z
" id="ArialMT-74"/>
      <path d="M 6.640625 61.46875 
L 6.640625 71.578125 
L 15.4375 71.578125 
L 15.4375 61.46875 
z
M 6.640625 0 
L 6.640625 51.859375 
L 15.4375 51.859375 
L 15.4375 0 
z
" id="ArialMT-69"/>
      <path d="M 6.59375 0 
L 6.59375 51.859375 
L 14.5 51.859375 
L 14.5 44.484375 
Q 20.21875 53.03125 31 53.03125 
Q 35.6875 53.03125 39.625 51.34375 
Q 43.5625 49.65625 45.515625 46.921875 
Q 47.46875 44.1875 48.25 40.4375 
Q 48.734375 37.984375 48.734375 31.890625 
L 48.734375 0 
L 39.9375 0 
L 39.9375 31.546875 
Q 39.9375 36.921875 38.90625 39.578125 
Q 37.890625 42.234375 35.28125 43.8125 
Q 32.671875 45.40625 29.15625 45.40625 
Q 23.53125 45.40625 19.453125 41.84375 
Q 15.375 38.28125 15.375 28.328125 
L 15.375 0 
z
" id="ArialMT-6e"/>
     </defs>
     <g style="fill:#262626;" transform="translate(19.33875 83.731797)rotate(-90)scale(0.11 -0.11)">
      <use xlink:href="#ArialMT-50"/>
      <use x="66.699219" xlink:href="#ArialMT-6f"/>
      <use x="122.314453" xlink:href="#ArialMT-70"/>
      <use x="177.929688" xlink:href="#ArialMT-75"/>
      <use x="233.544922" xlink:href="#ArialMT-6c"/>
      <use x="255.761719" xlink:href="#ArialMT-61"/>
      <use x="311.376953" xlink:href="#ArialMT-74"/>
      <use x="339.160156" xlink:href="#ArialMT-69"/>
      <use x="361.376953" xlink:href="#ArialMT-6f"/>
      <use x="416.992188" xlink:href="#ArialMT-6e"/>
     </g>
    </g>
   </g>
   <g id="patch_3">
    <path d="M 32.525 101.92 
L 32.525 13.56 
" style="fill:none;stroke:#262626;stroke-linecap:square;stroke-linejoin:miter;stroke-width:0.8;"/>
   </g>
   <g id="patch_4">
    <path d="M 32.525 101.92 
L 130.44 101.92 
" style="fill:none;stroke:#262626;stroke-linecap:square;stroke-linejoin:miter;stroke-width:0.8;"/>
   </g>
   <g id="line2d_9">
    <path clip-path="url(#p331c1f57ad)" d="M 36.975682 97.903636 
L 37.865818 97.903636 
L 38.755955 97.903636 
L 39.646091 97.903636 
L 40.536227 97.903636 
L 41.426364 97.903636 
L 42.3165 97.903636 
L 43.206636 97.903636 
L 44.096773 97.903636 
L 44.986909 97.903636 
L 45.877045 97.903636 
L 46.767182 97.903636 
L 47.657318 97.903636 
L 48.547455 97.903636 
L 49.437591 97.903636 
L 50.327727 97.903636 
L 51.217864 97.903636 
L 52.108 97.903636 
L 52.998136 97.903636 
L 53.888273 97.903636 
L 54.778409 97.903636 
L 55.668545 97.903636 
L 56.558682 97.903636 
L 57.448818 97.903636 
L 58.338955 97.903636 
L 59.229091 97.903636 
L 60.119227 97.903636 
L 61.009364 97.903636 
L 61.8995 97.903636 
L 62.789636 97.903636 
L 63.679773 97.903636 
L 64.569909 97.903636 
L 65.460045 97.903636 
L 66.350182 97.903636 
L 67.240318 97.903636 
L 68.130455 97.903636 
L 69.020591 97.903636 
L 69.910727 97.903636 
L 70.800864 97.903636 
L 71.691 97.903636 
L 72.581136 97.903636 
L 73.471273 97.903636 
L 74.361409 97.903636 
L 75.251545 97.903636 
L 76.141682 97.903636 
L 77.031818 97.903636 
L 77.921955 97.903636 
L 78.812091 97.903636 
L 79.702227 97.903636 
L 80.592364 97.903636 
L 81.4825 97.903636 
L 82.372636 97.903636 
L 83.262773 97.903636 
L 84.152909 97.903636 
L 85.043045 97.903636 
L 85.933182 97.903636 
L 86.823318 97.903636 
L 87.713455 97.903636 
L 88.603591 97.903636 
L 89.493727 97.903636 
L 90.383864 97.903636 
L 91.274 97.903636 
L 92.164136 97.903636 
L 93.054273 97.903636 
L 93.944409 97.903636 
L 94.834545 97.903636 
L 95.724682 97.903636 
L 96.614818 97.903636 
L 97.504955 97.903636 
L 98.395091 97.903636 
L 99.285227 97.903636 
L 100.175364 97.903636 
L 101.0655 97.903636 
L 101.955636 97.903636 
L 102.845773 97.903636 
L 103.735909 97.903636 
L 104.626045 97.903636 
L 105.516182 97.903636 
L 106.406318 97.903636 
L 107.296455 97.903636 
L 108.186591 97.903636 
L 109.076727 97.903636 
L 109.966864 97.903636 
L 110.857 97.903636 
L 111.747136 97.903636 
L 112.637273 97.903636 
L 113.527409 97.903636 
L 114.417545 97.903636 
L 115.307682 97.903636 
L 116.197818 97.903636 
L 117.087955 97.903636 
L 117.978091 97.903636 
L 118.868227 97.903636 
L 119.758364 97.903636 
L 120.6485 97.903636 
L 121.538636 97.903636 
L 122.428773 97.903636 
L 123.318909 97.903636 
L 124.209045 97.903636 
L 125.099182 97.903636 
L 125.989318 97.903636 
" style="fill:none;stroke:#2166ac;stroke-linecap:round;stroke-width:1.5;"/>
   </g>
   <g id="line2d_10">
    <path clip-path="url(#p331c1f57ad)" d="M 36.975682 97.903636 
L 37.865818 97.903636 
L 38.755955 97.903636 
L 39.646091 97.903636 
L 40.536227 97.903636 
L 41.426364 97.903636 
L 42.3165 97.903636 
L 43.206636 97.903636 
L 44.096773 97.903636 
L 44.986909 97.903636 
L 45.877045 97.903636 
L 46.767182 97.903636 
L 47.657318 97.903636 
L 48.547455 97.903636 
L 49.437591 97.903636 
L 50.327727 97.903636 
L 51.217864 97.903636 
L 52.108 97.903636 
L 52.998136 97.903636 
L 53.888273 97.903636 
L 54.778409 97.903636 
L 55.668545 97.903636 
L 56.558682 97.903636 
L 57.448818 97.903636 
L 58.338955 97.903636 
L 59.229091 97.903636 
L 60.119227 97.903636 
L 61.009364 97.903636 
L 61.8995 97.903636 
L 62.789636 97.903636 
L 63.679773 97.903636 
L 64.569909 97.903636 
L 65.460045 97.903636 
L 66.350182 97.903636 
L 67.240318 97.903636 
L 68.130455 97.903636 
L 69.020591 97.903636 
L 69.910727 97.903636 
L 70.800864 97.903636 
L 71.691 97.903636 
L 72.581136 97.903636 
L 73.471273 97.903636 
L 74.361409 97.903636 
L 75.251545 97.903636 
L 76.141682 97.903636 
L 77.031818 97.903636 
L 77.921955 97.903636 
L 78.812091 97.903636 
L 79.702227 97.903636 
L 80.592364 97.903636 
L 81.4825 97.903636 
L 82.372636 97.903636 
L 83.262773 97.903636 
L 84.152909 97.903636 
L 85.043045 97.903636 
L 85.933182 97.903636 
L 86.823318 97.903636 
L 87.713455 97.903636 
L 88.603591 97.903636 
L 89.493727 97.903636 
L 90.383864 97.903636 
L 91.274 97.903636 
L 92.164136 97.903636 
L 93.054273 97.903636 
L 93.944409 97.903636 
L 94.834545 97.903636 
L 95.724682 97.903636 
L 96.614818 97.903636 
L 97.504955 97.903636 
L 98.395091 97.903636 
L 99.285227 97.903636 
L 100.175364 97.903636 
L 101.0655 97.903636 
L 101.955636 97.903636 
L 102.845773 97.903636 
L 103.735909 97.903636 
L 104.626045 97.903636 
L 105.516182 97.903636 
L 106.406318 97.903636 
L 107.296455 97.903636 
L 108.186591 97.903636 
L 109.076727 97.903636 
L 109.966864 97.903636 
L 110.857 97.903636 
L 111.747136 97.903636 
L 112.637273 97.903636 
L 113.527409 97.903636 
L 114.417545 97.903636 
L 115.307682 97.903636 
L 116.197818 97.903636 
L 117.087955 97.903636 
L 117.978091 97.903636 
L 118.868227 97.903636 
L 119.758364 97.903636 
L 120.6485 97.903636 
L 121.538636 97.903636 
L 122.428773 97.903636 
L 123.318909 97.903636 
L 124.209045 97.903636 
L 125.099182 97.903636 
L 125.989318 97.903636 
" style="fill:none;stroke:#4393c3;stroke-linecap:round;stroke-width:1.5;"/>
   </g>
   <g id="line2d_11">
    <path clip-path="url(#p331c1f57ad)" d="M 36.975682 97.903635 
L 37.865818 97.903635 
L 38.755955 97.903635 
L 39.646091 97.903636 
L 40.536227 97.903636 
L 41.426364 97.903636 
L 42.3165 97.903636 
L 43.206636 97.903636 
L 44.096773 97.903636 
L 44.986909 97.903636 
L 45.877045 97.903636 
L 46.767182 97.903636 
L 47.657318 97.903636 
L 48.547455 97.903636 
L 49.437591 97.903636 
L 50.327727 97.903636 
L 51.217864 97.903636 
L 52.108 97.903636 
L 52.998136 97.903636 
L 53.888273 97.903636 
L 54.778409 97.903636 
L 55.668545 97.903636 
L 56.558682 97.903636 
L 57.448818 97.903636 
L 58.338955 97.903636 
L 59.229091 97.903636 
L 60.119227 97.903636 
L 61.009364 97.903636 
L 61.8995 97.903636 
L 62.789636 97.903636 
L 63.679773 97.903636 
L 64.569909 97.903636 
L 65.460045 97.903636 
L 66.350182 97.903636 
L 67.240318 97.903636 
L 68.130455 97.903636 
L 69.020591 97.903636 
L 69.910727 97.903636 
L 70.800864 97.903636 
L 71.691 97.903636 
L 72.581136 97.903636 
L 73.471273 97.903636 
L 74.361409 97.903636 
L 75.251545 97.903636 
L 76.141682 97.903636 
L 77.031818 97.903636 
L 77.921955 97.903636 
L 78.812091 97.903636 
L 79.702227 97.903636 
L 80.592364 97.903636 
L 81.4825 97.903636 
L 82.372636 97.903636 
L 83.262773 97.903636 
L 84.152909 97.903636 
L 85.043045 97.903636 
L 85.933182 97.903636 
L 86.823318 97.903636 
L 87.713455 97.903636 
L 88.603591 97.903636 
L 89.493727 97.903636 
L 90.383864 97.903636 
L 91.274 97.903636 
L 92.164136 97.903636 
L 93.054273 97.903636 
L 93.944409 97.903636 
L 94.834545 97.903636 
L 95.724682 97.903636 
L 96.614818 97.903636 
L 97.504955 97.903636 
L 98.395091 97.903636 
L 99.285227 97.903636 
L 100.175364 97.903636 
L 101.0655 97.903636 
L 101.955636 97.903636 
L 102.845773 97.903636 
L 103.735909 97.903636 
L 104.626045 97.903636 
L 105.516182 97.903636 
L 106.406318 97.903636 
L 107.296455 97.903636 
L 108.186591 97.903636 
L 109.076727 97.903636 
L 109.966864 97.903636 
L 110.857 97.903636 
L 111.747136 97.903636 
L 112.637273 97.903636 
L 113.527409 97.903636 
L 114.417545 97.903636 
L 115.307682 97.903636 
L 116.197818 97.903636 
L 117.087955 97.903636 
L 117.978091 97.903636 
L 118.868227 97.903636 
L 119.758364 97.903636 
L 120.6485 97.903636 
L 121.538636 97.903636 
L 122.428773 97.903636 
L 123.318909 97.903636 
L 124.209045 97.903636 
L 125.099182 97.903636 
L 125.989318 97.903636 
" style="fill:none;stroke:#4393c3;stroke-linecap:round;stroke-width:1.5;"/>
   </g>
   <g id="line2d_12">
    <path clip-path="url(#p331c1f57ad)" d="M 36.975682 97.903636 
L 37.865818 97.903636 
L 38.755955 97.903636 
L 39.646091 97.903636 
L 40.536227 97.903636 
L 41.426364 97.903636 
L 42.3165 97.903636 
L 43.206636 97.903636 
L 44.096773 97.903636 
L 44.986909 97.903636 
L 45.877045 97.903636 
L 46.767182 97.903636 
L 47.657318 97.903636 
L 48.547455 97.903636 
L 49.437591 97.903636 
L 50.327727 97.903636 
L 51.217864 97.903636 
L 52.108 97.903636 
L 52.998136 97.903636 
L 53.888273 97.903636 
L 54.778409 97.903636 
L 55.668545 97.903636 
L 56.558682 97.903636 
L 57.448818 97.903636 
L 58.338955 97.903636 
L 59.229091 97.903636 
L 60.119227 97.903636 
L 61.009364 97.903636 
L 61.8995 97.903636 
L 62.789636 97.903636 
L 63.679773 97.903636 
L 64.569909 97.903636 
L 65.460045 97.903636 
L 66.350182 97.903636 
L 67.240318 97.903636 
L 68.130455 97.903636 
L 69.020591 97.903636 
L 69.910727 97.903636 
L 70.800864 97.903636 
L 71.691 97.903636 
L 72.581136 97.903636 
L 73.471273 97.903636 
L 74.361409 97.903636 
L 75.251545 97.903636 
L 76.141682 97.903636 
L 77.031818 97.903636 
L 77.921955 97.903636 
L 78.812091 97.903636 
L 79.702227 97.903636 
L 80.592364 97.903636 
L 81.4825 97.903636 
L 82.372636 97.903636 
L 83.262773 97.903636 
L 84.152909 97.903636 
L 85.043045 97.903636 
L 85.933182 97.903636 
L 86.823318 97.903636 
L 87.713455 97.903636 
L 88.603591 97.903636 
L 89.493727 97.903636 
L 90.383864 97.903636 
L 91.274 97.903636 
L 92.164136 97.903636 
L 93.054273 97.903636 
L 93.944409 97.903636 
L 94.834545 97.903636 
L 95.724682 97.903636 
L 96.614818 97.903636 
L 97.504955 97.903636 
L 98.395091 97.903636 
L 99.285227 97.903636 
L 100.175364 97.903636 
L 101.0655 97.903636 
L 101.955636 97.903636 
L 102.845773 97.903636 
L 103.735909 97.903636 
L 104.626045 97.903636 
L 105.516182 97.903636 
L 106.406318 97.903636 
L 107.296455 97.903636 
L 108.186591 97.903636 
L 109.076727 97.903636 
L 109.966864 97.903636 
L 110.857 97.903636 
L 111.747136 97.903636 
L 112.637273 97.903636 
L 113.527409 97.903636 
L 114.417545 97.903636 
L 115.307682 97.903636 
L 116.197818 97.903636 
L 117.087955 97.903636 
L 117.978091 97.903636 
L 118.868227 97.903636 
L 119.758364 97.903636 
L 120.6485 97.903636 
L 121.538636 97.903636 
L 122.428773 97.903636 
L 123.318909 97.903636 
L 124.209045 97.903636 
L 125.099182 97.903636 
L 125.989318 97.903636 
" style="fill:none;stroke:#4393c3;stroke-linecap:round;stroke-width:1.5;"/>
   </g>
   <g id="line2d_13">
    <path clip-path="url(#p331c1f57ad)" d="M 36.975682 97.903636 
L 37.865818 97.903636 
L 38.755955 97.903636 
L 39.646091 97.903636 
L 40.536227 97.903636 
L 41.426364 97.903636 
L 42.3165 97.903636 
L 43.206636 97.903636 
L 44.096773 97.903636 
L 44.986909 97.903636 
L 45.877045 97.903636 
L 46.767182 97.903636 
L 47.657318 97.903636 
L 48.547455 97.903636 
L 49.437591 97.903636 
L 50.327727 97.903636 
L 51.217864 97.903636 
L 52.108 97.903636 
L 52.998136 97.903636 
L 53.888273 97.903636 
L 54.778409 97.903635 
L 55.668545 97.903635 
L 56.558682 97.903634 
L 57.448818 97.903634 
L 58.338955 97.903633 
L 59.229091 97.903632 
L 60.119227 97.90363 
L 61.009364 97.903628 
L 61.8995 97.903626 
L 62.789636 97.903623 
L 63.679773 97.903619 
L 64.569909 97.903614 
L 65.460045 97.903607 
L 66.350182 97.903599 
L 67.240318 97.903589 
L 68.130455 97.903576 
L 69.020591 97.90356 
L 69.910727 97.90354 
L 70.800864 97.903515 
L 71.691 97.903483 
L 72.581136 97.903443 
L 73.471273 97.903392 
L 74.361409 97.903329 
L 75.251545 97.903248 
L 76.141682 97.903147 
L 77.031818 97.90302 
L 77.921955 97.90286 
L 78.812091 97.902659 
L 79.702227 97.902405 
L 80.592364 97.902086 
L 81.4825 97.901684 
L 82.372636 97.901178 
L 83.262773 97.900541 
L 84.152909 97.899739 
L 85.043045 97.89873 
L 85.933182 97.897459 
L 86.823318 97.895859 
L 87.713455 97.893845 
L 88.603591 97.89131 
L 89.493727 97.888118 
L 90.383864 97.8841 
L 91.274 97.879043 
L 92.164136 97.872677 
L 93.054273 97.864664 
L 93.944409 97.854579 
L 94.834545 97.841886 
L 95.724682 97.825912 
L 96.614818 97.805812 
L 97.504955 97.780521 
L 98.395091 97.748704 
L 99.285227 97.708685 
L 100.175364 97.658361 
L 101.0655 97.595096 
L 101.955636 97.515592 
L 102.845773 97.415728 
L 103.735909 97.29036 
L 104.626045 97.13309 
L 105.516182 96.935978 
L 106.406318 96.689215 
L 107.296455 96.380731 
L 108.186591 95.995777 
L 109.076727 95.516464 
L 109.966864 94.921312 
L 110.857 94.184861 
L 111.747136 93.27743 
L 112.637273 92.165159 
L 113.527409 90.810524 
L 114.417545 89.17354 
L 115.307682 87.21391 
L 116.197818 84.89433 
L 117.087955 82.185032 
L 117.978091 79.069363 
L 118.868227 75.549794 
L 119.758364 71.653284 
L 120.6485 67.434539 
L 121.538636 62.97571 
L 122.428773 58.38161 
L 123.318909 53.770654 
L 124.209045 49.262995 
L 125.099182 44.968289 
L 125.989318 40.97565 
" style="fill:none;stroke:#f4a582;stroke-linecap:round;stroke-width:1.5;"/>
   </g>
   <g id="line2d_14">
    <path clip-path="url(#p331c1f57ad)" d="M 36.975682 21.993406 
L 37.865818 22.184697 
L 38.755955 22.42415 
L 39.646091 22.72346 
L 40.536227 23.096909 
L 41.426364 23.561812 
L 42.3165 24.138938 
L 43.206636 24.852878 
L 44.096773 25.732261 
L 44.986909 26.809683 
L 45.877045 28.12118 
L 46.767182 29.705017 
L 47.657318 31.599559 
L 48.547455 33.840033 
L 49.437591 36.45411 
L 50.327727 39.456521 
L 51.217864 42.843325 
L 52.108 46.586897 
L 52.998136 50.633017 
L 53.888273 54.901466 
L 54.778409 59.290908 
L 55.668545 63.687803 
L 56.558682 67.977842 
L 57.448818 72.057549 
L 58.338955 75.843623 
L 59.229091 79.278383 
L 60.119227 82.330886 
L 61.009364 84.994397 
L 61.8995 87.281566 
L 62.789636 89.218718 
L 63.679773 90.840377 
L 64.569909 92.184713 
L 65.460045 93.290147 
L 66.350182 94.193083 
L 67.240318 94.926602 
L 68.130455 95.519854 
L 69.020591 95.997943 
L 69.910727 96.382111 
L 70.800864 96.690093 
L 71.691 96.936536 
L 72.581136 97.133443 
L 73.471273 97.290584 
L 74.361409 97.415869 
L 75.251545 97.515682 
L 76.141682 97.595153 
L 77.031818 97.658396 
L 77.921955 97.708707 
L 78.812091 97.748718 
L 79.702227 97.78053 
L 80.592364 97.805817 
L 81.4825 97.825916 
L 82.372636 97.841888 
L 83.262773 97.85458 
L 84.152909 97.864665 
L 85.043045 97.872678 
L 85.933182 97.879043 
L 86.823318 97.8841 
L 87.713455 97.888118 
L 88.603591 97.89131 
L 89.493727 97.893845 
L 90.383864 97.895859 
L 91.274 97.897459 
L 92.164136 97.89873 
L 93.054273 97.899739 
L 93.944409 97.900541 
L 94.834545 97.901178 
L 95.724682 97.901684 
L 96.614818 97.902086 
L 97.504955 97.902405 
L 98.395091 97.902659 
L 99.285227 97.90286 
L 100.175364 97.90302 
L 101.0655 97.903147 
L 101.955636 97.903248 
L 102.845773 97.903329 
L 103.735909 97.903392 
L 104.626045 97.903443 
L 105.516182 97.903483 
L 106.406318 97.903515 
L 107.296455 97.90354 
L 108.186591 97.90356 
L 109.076727 97.903576 
L 109.966864 97.903589 
L 110.857 97.903599 
L 111.747136 97.903607 
L 112.637273 97.903614 
L 113.527409 97.903619 
L 114.417545 97.903623 
L 115.307682 97.903626 
L 116.197818 97.903628 
L 117.087955 97.90363 
L 117.978091 97.903632 
L 118.868227 97.903633 
L 119.758364 97.903634 
L 120.6485 97.903634 
L 121.538636 97.903635 
L 122.428773 97.903635 
L 123.318909 97.903636 
L 124.209045 97.903636 
L 125.099182 97.903636 
L 125.989318 97.903636 
" style="fill:none;stroke:#92c5de;stroke-linecap:round;stroke-width:1.5;"/>
   </g>
   <g id="line2d_15">
    <path clip-path="url(#p331c1f57ad)" d="M 36.975682 94.270344 
L 37.865818 94.2795 
L 38.755955 94.290961 
L 39.646091 94.305287 
L 40.536227 94.323161 
L 41.426364 94.345413 
L 42.3165 94.373036 
L 43.206636 94.407207 
L 44.096773 94.449297 
L 44.986909 94.500866 
L 45.877045 94.563638 
L 46.767182 94.639445 
L 47.657318 94.730124 
L 48.547455 94.83736 
L 49.437591 94.962477 
L 50.327727 95.106182 
L 51.217864 95.268284 
L 52.108 95.447463 
L 52.998136 95.641122 
L 53.888273 95.845423 
L 54.778409 96.055515 
L 55.668545 96.265964 
L 56.558682 96.471298 
L 57.448818 96.666565 
L 58.338955 96.847778 
L 59.229091 97.012176 
L 60.119227 97.158278 
L 61.009364 97.285761 
L 61.8995 97.395232 
L 62.789636 97.48795 
L 63.679773 97.565567 
L 64.569909 97.629912 
L 65.460045 97.682821 
L 66.350182 97.726038 
L 67.240318 97.761147 
L 68.130455 97.789541 
L 69.020591 97.812424 
L 69.910727 97.830812 
L 70.800864 97.845553 
L 71.691 97.857348 
L 72.581136 97.866773 
L 73.471273 97.874294 
L 74.361409 97.88029 
L 75.251545 97.885068 
L 76.141682 97.888871 
L 77.031818 97.891898 
L 77.921955 97.894306 
L 78.812091 97.896222 
L 79.702227 97.897744 
L 80.592364 97.898954 
L 81.4825 97.899916 
L 82.372636 97.900681 
L 83.262773 97.901288 
L 84.152909 97.901771 
L 85.043045 97.902155 
L 85.933182 97.902459 
L 86.823318 97.902701 
L 87.713455 97.902894 
L 88.603591 97.903046 
L 89.493727 97.903168 
L 90.383864 97.903264 
L 91.274 97.903341 
L 92.164136 97.903402 
L 93.054273 97.90345 
L 93.944409 97.903488 
L 94.834545 97.903519 
L 95.724682 97.903543 
L 96.614818 97.903562 
L 97.504955 97.903577 
L 98.395091 97.90359 
L 99.285227 97.903599 
L 100.175364 97.903607 
L 101.0655 97.903613 
L 101.955636 97.903618 
L 102.845773 97.903622 
L 103.735909 97.903625 
L 104.626045 97.903627 
L 105.516182 97.903629 
L 106.406318 97.903631 
L 107.296455 97.903632 
L 108.186591 97.903633 
L 109.076727 97.903633 
L 109.966864 97.903634 
L 110.857 97.903635 
L 111.747136 97.903635 
L 112.637273 97.903635 
L 113.527409 97.903636 
L 114.417545 97.903636 
L 115.307682 97.903636 
L 116.197818 97.903636 
L 117.087955 97.903636 
L 117.978091 97.903636 
L 118.868227 97.903636 
L 119.758364 97.903636 
L 120.6485 97.903636 
L 121.538636 97.903636 
L 122.428773 97.903636 
L 123.318909 97.903636 
L 124.209045 97.903636 
L 125.099182 97.903636 
L 125.989318 97.903636 
" style="fill:none;stroke:#92c5de;stroke-linecap:round;stroke-width:1.5;"/>
   </g>
   <g id="line2d_16">
    <path clip-path="url(#p331c1f57ad)" d="M 36.975682 97.903636 
L 37.865818 97.903636 
L 38.755955 97.903636 
L 39.646091 97.903636 
L 40.536227 97.903636 
L 41.426364 97.903636 
L 42.3165 97.903636 
L 43.206636 97.903636 
L 44.096773 97.903636 
L 44.986909 97.903636 
L 45.877045 97.903636 
L 46.767182 97.903636 
L 47.657318 97.903636 
L 48.547455 97.903636 
L 49.437591 97.903636 
L 50.327727 97.903636 
L 51.217864 97.903636 
L 52.108 97.903636 
L 52.998136 97.903636 
L 53.888273 97.903636 
L 54.778409 97.903636 
L 55.668545 97.903636 
L 56.558682 97.903636 
L 57.448818 97.903636 
L 58.338955 97.903636 
L 59.229091 97.903636 
L 60.119227 97.903636 
L 61.009364 97.903636 
L 61.8995 97.903636 
L 62.789636 97.903636 
L 63.679773 97.903636 
L 64.569909 97.903636 
L 65.460045 97.903636 
L 66.350182 97.903636 
L 67.240318 97.903636 
L 68.130455 97.903636 
L 69.020591 97.903636 
L 69.910727 97.903636 
L 70.800864 97.903636 
L 71.691 97.903636 
L 72.581136 97.903636 
L 73.471273 97.903636 
L 74.361409 97.903636 
L 75.251545 97.903636 
L 76.141682 97.903636 
L 77.031818 97.903636 
L 77.921955 97.903636 
L 78.812091 97.903636 
L 79.702227 97.903636 
L 80.592364 97.903636 
L 81.4825 97.903636 
L 82.372636 97.903636 
L 83.262773 97.903636 
L 84.152909 97.903636 
L 85.043045 97.903636 
L 85.933182 97.903636 
L 86.823318 97.903636 
L 87.713455 97.903636 
L 88.603591 97.903636 
L 89.493727 97.903636 
L 90.383864 97.903636 
L 91.274 97.903636 
L 92.164136 97.903636 
L 93.054273 97.903636 
L 93.944409 97.903636 
L 94.834545 97.903636 
L 95.724682 97.903636 
L 96.614818 97.903636 
L 97.504955 97.903636 
L 98.395091 97.903636 
L 99.285227 97.903636 
L 100.175364 97.903636 
L 101.0655 97.903636 
L 101.955636 97.903636 
L 102.845773 97.903636 
L 103.735909 97.903636 
L 104.626045 97.903636 
L 105.516182 97.903636 
L 106.406318 97.903636 
L 107.296455 97.903636 
L 108.186591 97.903636 
L 109.076727 97.903636 
L 109.966864 97.903636 
L 110.857 97.903636 
L 111.747136 97.903636 
L 112.637273 97.903636 
L 113.527409 97.903636 
L 114.417545 97.903636 
L 115.307682 97.903636 
L 116.197818 97.903636 
L 117.087955 97.903636 
L 117.978091 97.903636 
L 118.868227 97.903636 
L 119.758364 97.903636 
L 120.6485 97.903636 
L 121.538636 97.903636 
L 122.428773 97.903636 
L 123.318909 97.903636 
L 124.209045 97.903636 
L 125.099182 97.903636 
L 125.989318 97.903636 
" style="fill:none;stroke:#92c5de;stroke-linecap:round;stroke-width:1.5;"/>
   </g>
   <g id="line2d_17">
    <path clip-path="url(#p331c1f57ad)" d="M 36.975682 97.126852 
L 37.865818 96.928187 
L 38.755955 96.679502 
L 39.646091 96.368654 
L 40.536227 95.980807 
L 41.426364 95.497982 
L 42.3165 94.898608 
L 43.206636 94.157145 
L 44.096773 93.243861 
L 44.986909 92.124903 
L 45.877045 90.762847 
L 46.767182 89.117952 
L 47.657318 87.150374 
L 48.547455 84.823527 
L 49.437591 82.108676 
L 50.327727 78.99052 
L 51.217864 75.473152 
L 52.108 71.585262 
L 52.998136 67.383161 
L 53.888273 62.95016 
L 54.778409 58.391502 
L 55.668545 53.825104 
L 56.558682 49.369681 
L 57.448818 45.132699 
L 58.338955 41.200671 
L 59.229091 37.633499 
L 60.119227 34.463322 
L 61.009364 31.697132 
L 61.8995 29.321793 
L 62.789636 27.309966 
L 63.679773 25.625795 
L 64.569909 24.229638 
L 65.460045 23.081595 
L 66.350182 22.143858 
L 67.240318 21.382071 
L 68.130455 20.765961 
L 69.020591 20.269458 
L 69.910727 19.870499 
L 70.800864 19.55067 
L 71.691 19.294758 
L 72.581136 19.0903 
L 73.471273 18.927152 
L 74.361409 18.797099 
L 75.251545 18.693518 
L 76.141682 18.611084 
L 77.031818 18.545528 
L 77.921955 18.493436 
L 78.812091 18.452082 
L 79.702227 18.419296 
L 80.592364 18.39335 
L 81.4825 18.372875 
L 82.372636 18.356788 
L 83.262773 18.344238 
L 84.152909 18.334559 
L 85.043045 18.327239 
L 85.933182 18.321887 
L 86.823318 18.318221 
L 87.713455 18.316044 
L 88.603591 18.315243 
L 89.493727 18.315773 
L 90.383864 18.317663 
L 91.274 18.321014 
L 92.164136 18.326003 
L 93.054273 18.332896 
L 93.944409 18.342059 
L 94.834545 18.353978 
L 95.724682 18.369284 
L 96.614818 18.388789 
L 97.504955 18.413523 
L 98.395091 18.444794 
L 99.285227 18.484248 
L 100.175364 18.533959 
L 101.0655 18.59653 
L 101.955636 18.675222 
L 102.845773 18.774116 
L 103.735909 18.898303 
L 104.626045 19.054123 
L 105.516182 19.249441 
L 106.406318 19.493979 
L 107.296455 19.799695 
L 108.186591 20.181207 
L 109.076727 20.656244 
L 109.966864 21.246093 
L 110.857 21.975989 
L 111.747136 22.875348 
L 112.637273 23.977727 
L 113.527409 25.320318 
L 114.417545 26.94275 
L 115.307682 28.884963 
L 116.197818 31.183926 
L 117.087955 33.869144 
L 117.978091 36.957123 
L 118.868227 40.445413 
L 119.758364 44.307295 
L 120.6485 48.488547 
L 121.538636 52.907751 
L 122.428773 57.461023 
L 123.318909 62.031001 
L 124.209045 66.498601 
L 125.099182 70.755141 
L 125.989318 74.712297 
" style="fill:none;stroke:#333333;stroke-linecap:round;stroke-width:1.5;"/>
   </g>
   <g id="line2d_18">
    <path clip-path="url(#p331c1f57ad)" d="M 36.975682 97.897466 
L 37.865818 97.895888 
L 38.755955 97.893913 
L 39.646091 97.891444 
L 40.536227 97.888363 
L 41.426364 97.884528 
L 42.3165 97.879767 
L 43.206636 97.873877 
L 44.096773 97.866622 
L 44.986909 97.857734 
L 45.877045 97.846915 
L 46.767182 97.833849 
L 47.657318 97.81822 
L 48.547455 97.799737 
L 49.437591 97.778173 
L 50.327727 97.753404 
L 51.217864 97.725465 
L 52.108 97.694582 
L 52.998136 97.661204 
L 53.888273 97.625991 
L 54.778409 97.58978 
L 55.668545 97.553508 
L 56.558682 97.518117 
L 57.448818 97.484462 
L 58.338955 97.453229 
L 59.229091 97.424894 
L 60.119227 97.399712 
L 61.009364 97.377739 
L 61.8995 97.358871 
L 62.789636 97.342891 
L 63.679773 97.329513 
L 64.569909 97.318423 
L 65.460045 97.309304 
L 66.350182 97.301855 
L 67.240318 97.295804 
L 68.130455 97.29091 
L 69.020591 97.286966 
L 69.910727 97.283797 
L 70.800864 97.281257 
L 71.691 97.279224 
L 72.581136 97.2776 
L 73.471273 97.276304 
L 74.361409 97.275271 
L 75.251545 97.274448 
L 76.141682 97.273793 
L 77.031818 97.273273 
L 77.921955 97.272859 
L 78.812091 97.27253 
L 79.702227 97.27227 
L 80.592364 97.272064 
L 81.4825 97.271901 
L 82.372636 97.271773 
L 83.262773 97.271674 
L 84.152909 97.271597 
L 85.043045 97.271539 
L 85.933182 97.271496 
L 86.823318 97.271467 
L 87.713455 97.27145 
L 88.603591 97.271443 
L 89.493727 97.271447 
L 90.383864 97.271463 
L 91.274 97.271489 
L 92.164136 97.271529 
L 93.054273 97.271584 
L 93.944409 97.271656 
L 94.834545 97.271751 
L 95.724682 97.271873 
L 96.614818 97.272027 
L 97.504955 97.272224 
L 98.395091 97.272472 
L 99.285227 97.272786 
L 100.175364 97.273181 
L 101.0655 97.273678 
L 101.955636 97.274303 
L 102.845773 97.275088 
L 103.735909 97.276075 
L 104.626045 97.277312 
L 105.516182 97.278864 
L 106.406318 97.280806 
L 107.296455 97.283235 
L 108.186591 97.286265 
L 109.076727 97.290039 
L 109.966864 97.294724 
L 110.857 97.300522 
L 111.747136 97.307665 
L 112.637273 97.316422 
L 113.527409 97.327087 
L 114.417545 97.339974 
L 115.307682 97.355402 
L 116.197818 97.373663 
L 117.087955 97.394992 
L 117.978091 97.419521 
L 118.868227 97.447229 
L 119.758364 97.477905 
L 120.6485 97.511118 
L 121.538636 97.546221 
L 122.428773 97.582389 
L 123.318909 97.61869 
L 124.209045 97.654177 
L 125.099182 97.687988 
L 125.989318 97.719421 
" style="fill:none;stroke:#333333;stroke-linecap:round;stroke-width:1.5;"/>
   </g>
   <g id="line2d_19">
    <path clip-path="url(#p331c1f57ad)" d="M 36.975682 97.902841 
L 37.865818 97.902638 
L 38.755955 97.902384 
L 39.646091 97.902066 
L 40.536227 97.901669 
L 41.426364 97.901175 
L 42.3165 97.900561 
L 43.206636 97.899803 
L 44.096773 97.898868 
L 44.986909 97.897723 
L 45.877045 97.896329 
L 46.767182 97.894646 
L 47.657318 97.892633 
L 48.547455 97.890252 
L 49.437591 97.887473 
L 50.327727 97.884283 
L 51.217864 97.880683 
L 52.108 97.876705 
L 52.998136 97.872405 
L 53.888273 97.867869 
L 54.778409 97.863204 
L 55.668545 97.858531 
L 56.558682 97.853972 
L 57.448818 97.849636 
L 58.338955 97.845613 
L 59.229091 97.841962 
L 60.119227 97.838718 
L 61.009364 97.835888 
L 61.8995 97.833457 
L 62.789636 97.831398 
L 63.679773 97.829675 
L 64.569909 97.828246 
L 65.460045 97.827071 
L 66.350182 97.826112 
L 67.240318 97.825332 
L 68.130455 97.824702 
L 69.020591 97.824194 
L 69.910727 97.823786 
L 70.800864 97.823458 
L 71.691 97.823196 
L 72.581136 97.822987 
L 73.471273 97.82282 
L 74.361409 97.822687 
L 75.251545 97.822581 
L 76.141682 97.822497 
L 77.031818 97.82243 
L 77.921955 97.822376 
L 78.812091 97.822334 
L 79.702227 97.822301 
L 80.592364 97.822274 
L 81.4825 97.822253 
L 82.372636 97.822237 
L 83.262773 97.822224 
L 84.152909 97.822214 
L 85.043045 97.822206 
L 85.933182 97.822201 
L 86.823318 97.822197 
L 87.713455 97.822195 
L 88.603591 97.822194 
L 89.493727 97.822195 
L 90.383864 97.822197 
L 91.274 97.8222 
L 92.164136 97.822205 
L 93.054273 97.822212 
L 93.944409 97.822222 
L 94.834545 97.822234 
L 95.724682 97.822249 
L 96.614818 97.822269 
L 97.504955 97.822295 
L 98.395091 97.822327 
L 99.285227 97.822367 
L 100.175364 97.822418 
L 101.0655 97.822482 
L 101.955636 97.822562 
L 102.845773 97.822664 
L 103.735909 97.822791 
L 104.626045 97.82295 
L 105.516182 97.82315 
L 106.406318 97.8234 
L 107.296455 97.823713 
L 108.186591 97.824104 
L 109.076727 97.82459 
L 109.966864 97.825193 
L 110.857 97.82594 
L 111.747136 97.82686 
L 112.637273 97.827988 
L 113.527409 97.829362 
L 114.417545 97.831023 
L 115.307682 97.83301 
L 116.197818 97.835363 
L 117.087955 97.83811 
L 117.978091 97.84127 
L 118.868227 97.84484 
L 119.758364 97.848792 
L 120.6485 97.85307 
L 121.538636 97.857592 
L 122.428773 97.862252 
L 123.318909 97.866928 
L 124.209045 97.8715 
L 125.099182 97.875855 
L 125.989318 97.879905 
" style="fill:none;stroke:#333333;stroke-linecap:round;stroke-width:1.5;"/>
   </g>
  </g>
 </g>
 <defs>
  <clipPath id="p331c1f57ad">
   <rect height="88.36" width="97.915" x="32.525" y="13.56"/>
  </clipPath>
 </defs>
</svg>
