<?xml version="1.0" encoding="utf-8" standalone="no"?>
<!DOCTYPE svg PUBLIC "-//W3C//DTD SVG 1.1//EN"
  "http://www.w3.org/Graphics/SVG/1.1/DTD/svg11.dtd">
<!-- Created with matplotlib (http://matplotlib.org/) -->
<svg height="216pt" version="1.1" viewBox="0 0 216 216" width="216pt" xmlns="http://www.w3.org/2000/svg" xmlns:xlink="http://www.w3.org/1999/xlink">
 <defs>
  <style type="text/css">
*{stroke-linecap:butt;stroke-linejoin:round;}
  </style>
 </defs>
 <g id="figure_1">
  <g id="patch_1">
   <path d="M 0 216 
L 216 216 
L 216 0 
L 0 0 
z
" style="fill:#ffffff;"/>
  </g>
  <g id="axes_1">
   <g id="patch_2">
    <path d="M 44.78 175.96 
L 203.52 175.96 
L 203.52 25.44 
L 44.78 25.44 
z
" style="fill:#ffffff;"/>
   </g>
   <g id="matplotlib.axis_1">
    <g id="xtick_1">
     <g id="line2d_1">
      <defs>
       <path d="M 0 0 
L 0 3.5 
" id="m0299a87e06" style="stroke:#262626;stroke-width:0.8;"/>
      </defs>
      <g>
       <use style="fill:#262626;stroke:#262626;stroke-width:0.8;" x="51.995455" xlink:href="#m0299a87e06" y="175.96"/>
      </g>
     </g>
     <g id="text_1">
      <!-- 2 -->
      <defs>
       <path d="M 50.34375 8.453125 
L 50.34375 0 
L 3.03125 0 
Q 2.9375 3.171875 4.046875 6.109375 
Q 5.859375 10.9375 9.828125 15.625 
Q 13.8125 20.3125 21.34375 26.46875 
Q 33.015625 36.03125 37.109375 41.625 
Q 41.21875 47.21875 41.21875 52.203125 
Q 41.21875 57.421875 37.46875 61 
Q 33.734375 64.59375 27.734375 64.59375 
Q 21.390625 64.59375 17.578125 60.78125 
Q 13.765625 56.984375 13.71875 50.25 
L 4.6875 51.171875 
Q 5.609375 61.28125 11.65625 66.578125 
Q 17.71875 71.875 27.9375 71.875 
Q 38.234375 71.875 44.234375 66.15625 
Q 50.25 60.453125 50.25 52 
Q 50.25 47.703125 48.484375 43.546875 
Q 46.734375 39.40625 42.65625 34.8125 
Q 38.578125 30.21875 29.109375 22.21875 
Q 21.1875 15.578125 18.9375 13.203125 
Q 16.703125 10.84375 15.234375 8.453125 
z
" id="ArialMT-32"/>
      </defs>
      <g style="fill:#262626;" transform="translate(49.214986 190.117812)scale(0.1 -0.1)">
       <use xlink:href="#ArialMT-32"/>
      </g>
     </g>
    </g>
    <g id="xtick_2">
     <g id="line2d_2">
      <g>
       <use style="fill:#262626;stroke:#262626;stroke-width:0.8;" x="80.857273" xlink:href="#m0299a87e06" y="175.96"/>
      </g>
     </g>
     <g id="text_2">
      <!-- 4 -->
      <defs>
       <path d="M 32.328125 0 
L 32.328125 17.140625 
L 1.265625 17.140625 
L 1.265625 25.203125 
L 33.9375 71.578125 
L 41.109375 71.578125 
L 41.109375 25.203125 
L 50.78125 25.203125 
L 50.78125 17.140625 
L 41.109375 17.140625 
L 41.109375 0 
z
M 32.328125 25.203125 
L 32.328125 57.46875 
L 9.90625 25.203125 
z
" id="ArialMT-34"/>
      </defs>
      <g style="fill:#262626;" transform="translate(78.076804 190.117812)scale(0.1 -0.1)">
       <use xlink:href="#ArialMT-34"/>
      </g>
     </g>
    </g>
    <g id="xtick_3">
     <g id="line2d_3">
      <g>
       <use style="fill:#262626;stroke:#262626;stroke-width:0.8;" x="109.719091" xlink:href="#m0299a87e06" y="175.96"/>
      </g>
     </g>
     <g id="text_3">
      <!-- 6 -->
      <defs>
       <path d="M 49.75 54.046875 
L 41.015625 53.375 
Q 39.84375 58.546875 37.703125 60.890625 
Q 34.125 64.65625 28.90625 64.65625 
Q 24.703125 64.65625 21.53125 62.3125 
Q 17.390625 59.28125 14.984375 53.46875 
Q 12.59375 47.65625 12.5 36.921875 
Q 15.671875 41.75 20.265625 44.09375 
Q 24.859375 46.4375 29.890625 46.4375 
Q 38.671875 46.4375 44.84375 39.96875 
Q 51.03125 33.5 51.03125 23.25 
Q 51.03125 16.5 48.125 10.71875 
Q 45.21875 4.9375 40.140625 1.859375 
Q 35.0625 -1.21875 28.609375 -1.21875 
Q 17.625 -1.21875 10.6875 6.859375 
Q 3.765625 14.9375 3.765625 33.5 
Q 3.765625 54.25 11.421875 63.671875 
Q 18.109375 71.875 29.4375 71.875 
Q 37.890625 71.875 43.28125 67.140625 
Q 48.6875 62.40625 49.75 54.046875 
z
M 13.875 23.1875 
Q 13.875 18.65625 15.796875 14.5 
Q 17.71875 10.359375 21.1875 8.171875 
Q 24.65625 6 28.46875 6 
Q 34.03125 6 38.03125 10.484375 
Q 42.046875 14.984375 42.046875 22.703125 
Q 42.046875 30.125 38.078125 34.390625 
Q 34.125 38.671875 28.125 38.671875 
Q 22.171875 38.671875 18.015625 34.390625 
Q 13.875 30.125 13.875 23.1875 
z
" id="ArialMT-36"/>
      </defs>
      <g style="fill:#262626;" transform="translate(106.938622 190.117812)scale(0.1 -0.1)">
       <use xlink:href="#ArialMT-36"/>
      </g>
     </g>
    </g>
    <g id="xtick_4">
     <g id="line2d_4">
      <g>
       <use style="fill:#262626;stroke:#262626;stroke-width:0.8;" x="138.580909" xlink:href="#m0299a87e06" y="175.96"/>
      </g>
     </g>
     <g id="text_4">
      <!-- 8 -->
      <defs>
       <path d="M 17.671875 38.8125 
Q 12.203125 40.828125 9.5625 44.53125 
Q 6.9375 48.25 6.9375 53.421875 
Q 6.9375 61.234375 12.546875 66.546875 
Q 18.171875 71.875 27.484375 71.875 
Q 36.859375 71.875 42.578125 66.421875 
Q 48.296875 60.984375 48.296875 53.171875 
Q 48.296875 48.1875 45.671875 44.5 
Q 43.0625 40.828125 37.75 38.8125 
Q 44.34375 36.671875 47.78125 31.875 
Q 51.21875 27.09375 51.21875 20.453125 
Q 51.21875 11.28125 44.71875 5.03125 
Q 38.234375 -1.21875 27.640625 -1.21875 
Q 17.046875 -1.21875 10.546875 5.046875 
Q 4.046875 11.328125 4.046875 20.703125 
Q 4.046875 27.6875 7.59375 32.390625 
Q 11.140625 37.109375 17.671875 38.8125 
z
M 15.921875 53.71875 
Q 15.921875 48.640625 19.1875 45.40625 
Q 22.46875 42.1875 27.6875 42.1875 
Q 32.765625 42.1875 36.015625 45.375 
Q 39.265625 48.578125 39.265625 53.21875 
Q 39.265625 58.0625 35.90625 61.359375 
Q 32.5625 64.65625 27.59375 64.65625 
Q 22.5625 64.65625 19.234375 61.421875 
Q 15.921875 58.203125 15.921875 53.71875 
z
M 13.09375 20.65625 
Q 13.09375 16.890625 14.875 13.375 
Q 16.65625 9.859375 20.171875 7.921875 
Q 23.6875 6 27.734375 6 
Q 34.03125 6 38.125 10.046875 
Q 42.234375 14.109375 42.234375 20.359375 
Q 42.234375 26.703125 38.015625 30.859375 
Q 33.796875 35.015625 27.4375 35.015625 
Q 21.234375 35.015625 17.15625 30.90625 
Q 13.09375 26.8125 13.09375 20.65625 
z
" id="ArialMT-38"/>
      </defs>
      <g style="fill:#262626;" transform="translate(135.80044 190.117812)scale(0.1 -0.1)">
       <use xlink:href="#ArialMT-38"/>
      </g>
     </g>
    </g>
    <g id="xtick_5">
     <g id="line2d_5">
      <g>
       <use style="fill:#262626;stroke:#262626;stroke-width:0.8;" x="167.442727" xlink:href="#m0299a87e06" y="175.96"/>
      </g>
     </g>
     <g id="text_5">
      <!-- 10 -->
      <defs>
       <path d="M 37.25 0 
L 28.46875 0 
L 28.46875 56 
Q 25.296875 52.984375 20.140625 49.953125 
Q 14.984375 46.921875 10.890625 45.40625 
L 10.890625 53.90625 
Q 18.265625 57.375 23.78125 62.296875 
Q 29.296875 67.234375 31.59375 71.875 
L 37.25 71.875 
z
" id="ArialMT-31"/>
       <path d="M 4.15625 35.296875 
Q 4.15625 48 6.765625 55.734375 
Q 9.375 63.484375 14.515625 67.671875 
Q 19.671875 71.875 27.484375 71.875 
Q 33.25 71.875 37.59375 69.546875 
Q 41.9375 67.234375 44.765625 62.859375 
Q 47.609375 58.5 49.21875 52.21875 
Q 50.828125 45.953125 50.828125 35.296875 
Q 50.828125 22.703125 48.234375 14.96875 
Q 45.65625 7.234375 40.5 3 
Q 35.359375 -1.21875 27.484375 -1.21875 
Q 17.140625 -1.21875 11.234375 6.203125 
Q 4.15625 15.140625 4.15625 35.296875 
z
M 13.1875 35.296875 
Q 13.1875 17.671875 17.3125 11.828125 
Q 21.4375 6 27.484375 6 
Q 33.546875 6 37.671875 11.859375 
Q 41.796875 17.71875 41.796875 35.296875 
Q 41.796875 52.984375 37.671875 58.78125 
Q 33.546875 64.59375 27.390625 64.59375 
Q 21.34375 64.59375 17.71875 59.46875 
Q 13.1875 52.9375 13.1875 35.296875 
z
" id="ArialMT-30"/>
      </defs>
      <g style="fill:#262626;" transform="translate(161.88179 190.117812)scale(0.1 -0.1)">
       <use xlink:href="#ArialMT-31"/>
       <use x="55.615234" xlink:href="#ArialMT-30"/>
      </g>
     </g>
    </g>
    <g id="xtick_6">
     <g id="line2d_6">
      <g>
       <use style="fill:#262626;stroke:#262626;stroke-width:0.8;" x="196.304545" xlink:href="#m0299a87e06" y="175.96"/>
      </g>
     </g>
     <g id="text_6">
      <!-- 12 -->
      <g style="fill:#262626;" transform="translate(190.743608 190.117812)scale(0.1 -0.1)">
       <use xlink:href="#ArialMT-31"/>
       <use x="55.615234" xlink:href="#ArialMT-32"/>
      </g>
     </g>
    </g>
    <g id="text_7">
     <!-- pH -->
     <defs>
      <path d="M 6.59375 -19.875 
L 6.59375 51.859375 
L 14.59375 51.859375 
L 14.59375 45.125 
Q 17.4375 49.078125 21 51.046875 
Q 24.5625 53.03125 29.640625 53.03125 
Q 36.28125 53.03125 41.359375 49.609375 
Q 46.4375 46.1875 49.015625 39.953125 
Q 51.609375 33.734375 51.609375 26.3125 
Q 51.609375 18.359375 48.75 11.984375 
Q 45.90625 5.609375 40.453125 2.21875 
Q 35.015625 -1.171875 29 -1.171875 
Q 24.609375 -1.171875 21.109375 0.6875 
Q 17.625 2.546875 15.375 5.375 
L 15.375 -19.875 
z
M 14.546875 25.640625 
Q 14.546875 15.625 18.59375 10.84375 
Q 22.65625 6.0625 28.421875 6.0625 
Q 34.28125 6.0625 38.453125 11.015625 
Q 42.625 15.96875 42.625 26.375 
Q 42.625 36.28125 38.546875 41.203125 
Q 34.46875 46.140625 28.8125 46.140625 
Q 23.1875 46.140625 18.859375 40.890625 
Q 14.546875 35.640625 14.546875 25.640625 
z
" id="ArialMT-70"/>
      <path d="M 8.015625 0 
L 8.015625 71.578125 
L 17.484375 71.578125 
L 17.484375 42.1875 
L 54.6875 42.1875 
L 54.6875 71.578125 
L 64.15625 71.578125 
L 64.15625 0 
L 54.6875 0 
L 54.6875 33.734375 
L 17.484375 33.734375 
L 17.484375 0 
z
" id="ArialMT-48"/>
     </defs>
     <g style="fill:#262626;" transform="translate(117.758594 203.263125)scale(0.1 -0.1)">
      <use xlink:href="#ArialMT-70"/>
      <use x="55.615234" xlink:href="#ArialMT-48"/>
     </g>
    </g>
   </g>
   <g id="matplotlib.axis_2">
    <g id="ytick_1">
     <g id="line2d_7">
      <defs>
       <path d="M 0 0 
L -3.5 0 
" id="mde3e360535" style="stroke:#262626;stroke-width:0.8;"/>
      </defs>
      <g>
       <use style="fill:#262626;stroke:#262626;stroke-width:0.8;" x="44.78" xlink:href="#mde3e360535" y="135.953988"/>
      </g>
     </g>
     <g id="text_8">
      <!-- −1 -->
      <defs>
       <path d="M 52.828125 31.203125 
L 5.5625 31.203125 
L 5.5625 39.40625 
L 52.828125 39.40625 
z
" id="ArialMT-2212"/>
      </defs>
      <g style="fill:#262626;" transform="translate(26.378438 139.532895)scale(0.1 -0.1)">
       <use xlink:href="#ArialMT-2212"/>
       <use x="58.398438" xlink:href="#ArialMT-31"/>
      </g>
     </g>
    </g>
    <g id="ytick_2">
     <g id="line2d_8">
      <g>
       <use style="fill:#262626;stroke:#262626;stroke-width:0.8;" x="44.78" xlink:href="#mde3e360535" y="89.779442"/>
      </g>
     </g>
     <g id="text_9">
      <!-- 0 -->
      <g style="fill:#262626;" transform="translate(32.219063 93.358348)scale(0.1 -0.1)">
       <use xlink:href="#ArialMT-30"/>
      </g>
     </g>
    </g>
    <g id="ytick_3">
     <g id="line2d_9">
      <g>
       <use style="fill:#262626;stroke:#262626;stroke-width:0.8;" x="44.78" xlink:href="#mde3e360535" y="43.604895"/>
      </g>
     </g>
     <g id="text_10">
      <!-- 1 -->
      <g style="fill:#262626;" transform="translate(32.219063 47.183801)scale(0.1 -0.1)">
       <use xlink:href="#ArialMT-31"/>
      </g>
     </g>
    </g>
    <g id="text_11">
     <!-- $\langle q_\mathsf{total} \rangle$ -->
     <defs>
      <path d="M 8.9375 31.34375 
L 22.703125 75.875 
L 31 75.875 
L 17.234375 31.34375 
L 31 -13.1875 
L 22.703125 -13.1875 
z
" id="DejaVuSans-27e8"/>
      <path d="M 41.703125 8.203125 
Q 38.09375 3.46875 33.171875 1.015625 
Q 28.265625 -1.421875 22.3125 -1.421875 
Q 14.015625 -1.421875 9.296875 4.171875 
Q 4.59375 9.765625 4.59375 19.578125 
Q 4.59375 27.484375 7.5 34.859375 
Q 10.40625 42.234375 15.828125 48.09375 
Q 19.34375 51.90625 23.90625 53.953125 
Q 28.46875 56 33.5 56 
Q 39.546875 56 43.453125 53.609375 
Q 47.359375 51.21875 49.125 46.390625 
L 50.6875 54.59375 
L 59.71875 54.59375 
L 45.125 -20.609375 
L 36.078125 -20.609375 
z
M 13.921875 20.90625 
Q 13.921875 13.671875 16.9375 9.890625 
Q 19.96875 6.109375 25.6875 6.109375 
Q 34.1875 6.109375 40.1875 14.234375 
Q 46.1875 22.359375 46.1875 33.984375 
Q 46.1875 41.015625 43.078125 44.75 
Q 39.984375 48.484375 34.1875 48.484375 
Q 29.9375 48.484375 26.3125 46.5 
Q 22.703125 44.53125 20.015625 40.71875 
Q 17.1875 36.71875 15.546875 31.34375 
Q 13.921875 25.984375 13.921875 20.90625 
z
" id="DejaVuSans-Oblique-71"/>
      <path d="M 18.3125 70.21875 
L 18.3125 54.6875 
L 36.8125 54.6875 
L 36.8125 47.703125 
L 18.3125 47.703125 
L 18.3125 18.015625 
Q 18.3125 11.328125 20.140625 9.421875 
Q 21.96875 7.515625 27.59375 7.515625 
L 36.8125 7.515625 
L 36.8125 0 
L 27.59375 0 
Q 17.1875 0 13.234375 3.875 
Q 9.28125 7.765625 9.28125 18.015625 
L 9.28125 47.703125 
L 2.6875 47.703125 
L 2.6875 54.6875 
L 9.28125 54.6875 
L 9.28125 70.21875 
z
" id="DejaVuSans-74"/>
      <path d="M 30.609375 48.390625 
Q 23.390625 48.390625 19.1875 42.75 
Q 14.984375 37.109375 14.984375 27.296875 
Q 14.984375 17.484375 19.15625 11.84375 
Q 23.34375 6.203125 30.609375 6.203125 
Q 37.796875 6.203125 41.984375 11.859375 
Q 46.1875 17.53125 46.1875 27.296875 
Q 46.1875 37.015625 41.984375 42.703125 
Q 37.796875 48.390625 30.609375 48.390625 
z
M 30.609375 56 
Q 42.328125 56 49.015625 48.375 
Q 55.71875 40.765625 55.71875 27.296875 
Q 55.71875 13.875 49.015625 6.21875 
Q 42.328125 -1.421875 30.609375 -1.421875 
Q 18.84375 -1.421875 12.171875 6.21875 
Q 5.515625 13.875 5.515625 27.296875 
Q 5.515625 40.765625 12.171875 48.375 
Q 18.84375 56 30.609375 56 
z
" id="DejaVuSans-6f"/>
      <path d="M 34.28125 27.484375 
Q 23.390625 27.484375 19.1875 25 
Q 14.984375 22.515625 14.984375 16.5 
Q 14.984375 11.71875 18.140625 8.90625 
Q 21.296875 6.109375 26.703125 6.109375 
Q 34.1875 6.109375 38.703125 11.40625 
Q 43.21875 16.703125 43.21875 25.484375 
L 43.21875 27.484375 
z
M 52.203125 31.203125 
L 52.203125 0 
L 43.21875 0 
L 43.21875 8.296875 
Q 40.140625 3.328125 35.546875 0.953125 
Q 30.953125 -1.421875 24.3125 -1.421875 
Q 15.921875 -1.421875 10.953125 3.296875 
Q 6 8.015625 6 15.921875 
Q 6 25.140625 12.171875 29.828125 
Q 18.359375 34.515625 30.609375 34.515625 
L 43.21875 34.515625 
L 43.21875 35.40625 
Q 43.21875 41.609375 39.140625 45 
Q 35.0625 48.390625 27.6875 48.390625 
Q 23 48.390625 18.546875 47.265625 
Q 14.109375 46.140625 10.015625 43.890625 
L 10.015625 52.203125 
Q 14.9375 54.109375 19.578125 55.046875 
Q 24.21875 56 28.609375 56 
Q 40.484375 56 46.34375 49.84375 
Q 52.203125 43.703125 52.203125 31.203125 
z
" id="DejaVuSans-61"/>
      <path d="M 9.421875 75.984375 
L 18.40625 75.984375 
L 18.40625 0 
L 9.421875 0 
z
" id="DejaVuSans-6c"/>
      <path d="M 30.078125 31.34375 
L 16.3125 -13.1875 
L 8.015625 -13.1875 
L 21.78125 31.34375 
L 8.015625 75.875 
L 16.3125 75.875 
z
" id="DejaVuSans-27e9"/>
     </defs>
     <g style="fill:#262626;" transform="translate(20.278438 115.95)rotate(-90)scale(0.1 -0.1)">
      <use transform="translate(0 0.125)" xlink:href="#DejaVuSans-27e8"/>
      <use transform="translate(39.013672 0.125)" xlink:href="#DejaVuSans-Oblique-71"/>
      <use transform="translate(102.490234 -16.28125)scale(0.7)" xlink:href="#DejaVuSans-74"/>
      <use transform="translate(129.936523 -16.28125)scale(0.7)" xlink:href="#DejaVuSans-6f"/>
      <use transform="translate(172.763672 -16.28125)scale(0.7)" xlink:href="#DejaVuSans-74"/>
      <use transform="translate(200.209961 -16.28125)scale(0.7)" xlink:href="#DejaVuSans-61"/>
      <use transform="translate(243.105469 -16.28125)scale(0.7)" xlink:href="#DejaVuSans-6c"/>
      <use transform="translate(265.288086 0.125)" xlink:href="#DejaVuSans-27e9"/>
     </g>
    </g>
   </g>
   <g id="PolyCollection_1">
    <defs>
     <path d="M 51.995455 -183.718182 
L 51.995455 -126.670338 
L 53.438545 -123.384112 
L 54.881636 -120.016905 
L 56.324727 -116.640676 
L 57.767818 -113.329474 
L 59.210909 -110.152294 
L 60.654 -107.167112 
L 62.097091 -104.416935 
L 63.540182 -101.928281 
L 64.983273 -99.711984 
L 66.426364 -97.765779 
L 67.869455 -96.077751 
L 69.312545 -94.629831 
L 70.755636 -93.400791 
L 72.198727 -92.368515 
L 73.641818 -91.51153 
L 75.084909 -90.809903 
L 76.528 -90.245698 
L 77.971091 -89.803176 
L 79.414182 -89.468795 
L 80.857273 -89.230838 
L 82.300364 -89.078665 
L 83.743455 -89.002028 
L 85.186545 -88.990886 
L 86.629636 -89.035654 
L 88.072727 -89.127393 
L 89.515818 -89.25762 
L 90.958909 -89.417981 
L 92.402 -89.600126 
L 93.845091 -89.795569 
L 95.288182 -89.99481 
L 96.731273 -90.18566 
L 98.174364 -90.352075 
L 99.617455 -90.474785 
L 101.060545 -90.533496 
L 102.503636 -90.509172 
L 103.946727 -90.385172 
L 105.389818 -90.146932 
L 106.832909 -89.780581 
L 108.276 -89.271273 
L 109.719091 -88.602149 
L 111.162182 -87.754265 
L 112.605273 -86.707223 
L 114.048364 -85.440484 
L 115.491455 -83.935902 
L 116.934545 -82.181019 
L 118.377636 -80.171803 
L 119.820727 -77.91475 
L 121.263818 -75.429275 
L 122.706909 -72.750283 
L 124.15 -69.929478 
L 125.593091 -67.033987 
L 127.036182 -64.141559 
L 128.479273 -61.332776 
L 129.922364 -58.682198 
L 131.365455 -56.251171 
L 132.808545 -54.083986 
L 134.251636 -52.20728 
L 135.694727 -50.631757 
L 137.137818 -49.355476 
L 138.580909 -48.367492 
L 140.024 -47.650407 
L 141.467091 -47.181713 
L 142.910182 -46.935027 
L 144.353273 -46.881818 
L 145.796364 -46.993467 
L 147.239455 -47.243518 
L 148.682545 -47.609634 
L 150.125636 -48.074234 
L 151.568727 -48.62352 
L 153.011818 -49.245941 
L 154.454909 -49.931117 
L 155.898 -50.669369 
L 157.341091 -51.451588 
L 158.784182 -52.269313 
L 160.227273 -53.114946 
L 161.670364 -53.981905 
L 163.113455 -54.86451 
L 164.556545 -55.757657 
L 165.999636 -56.65653 
L 167.442727 -57.556508 
L 168.885818 -58.453147 
L 170.328909 -59.342114 
L 171.772 -60.219158 
L 173.215091 -61.080218 
L 174.658182 -61.921631 
L 176.101273 -62.740204 
L 177.544364 -63.532992 
L 178.987455 -64.296909 
L 180.430545 -65.02842 
L 181.873636 -65.723411 
L 183.316727 -66.377228 
L 184.759818 -66.984821 
L 186.202909 -67.540923 
L 187.646 -68.040261 
L 189.089091 -68.477744 
L 190.532182 -68.84866 
L 191.975273 -69.148868 
L 193.418364 -69.374993 
L 194.861455 -69.524593 
L 196.304545 -69.596259 
L 196.304545 -90.49653 
L 196.304545 -90.49653 
L 194.861455 -90.568625 
L 193.418364 -90.718717 
L 191.975273 -90.945425 
L 190.532182 -91.246336 
L 189.089091 -91.618114 
L 187.646 -92.056662 
L 186.202909 -92.557326 
L 184.759818 -93.115086 
L 183.316727 -93.724756 
L 181.873636 -94.381181 
L 180.430545 -95.079449 
L 178.987455 -95.81508 
L 177.544364 -96.58418 
L 176.101273 -97.383489 
L 174.658182 -98.210267 
L 173.215091 -99.062007 
L 171.772 -99.936062 
L 170.328909 -100.829459 
L 168.885818 -101.739005 
L 167.442727 -102.661538 
L 165.999636 -103.594093 
L 164.556545 -104.533944 
L 163.113455 -105.478628 
L 161.670364 -106.426033 
L 160.227273 -107.374439 
L 158.784182 -108.322403 
L 157.341091 -109.268631 
L 155.898 -110.212116 
L 154.454909 -111.152585 
L 153.011818 -112.09107 
L 151.568727 -113.030399 
L 150.125636 -113.975527 
L 148.682545 -114.933581 
L 147.239455 -115.91331 
L 145.796364 -116.924045 
L 144.353273 -117.975104 
L 142.910182 -119.076568 
L 141.467091 -120.240945 
L 140.024 -121.484482 
L 138.580909 -122.827331 
L 137.137818 -124.292174 
L 135.694727 -125.900949 
L 134.251636 -127.670331 
L 132.808545 -129.607498 
L 131.365455 -131.707043 
L 129.922364 -133.949072 
L 128.479273 -136.299021 
L 127.036182 -138.709887 
L 125.593091 -141.126441 
L 124.15 -143.490346 
L 122.706909 -145.745547 
L 121.263818 -147.843622 
L 119.820727 -149.748437 
L 118.377636 -151.439109 
L 116.934545 -152.910653 
L 115.491455 -154.172131 
L 114.048364 -155.242593 
L 112.605273 -156.146283 
L 111.162182 -156.909193 
L 109.719091 -157.557444 
L 108.276 -158.116331 
L 106.832909 -158.609434 
L 105.389818 -159.058073 
L 103.946727 -159.480801 
L 102.503636 -159.892416 
L 101.060545 -160.302645 
L 99.617455 -160.71526 
L 98.174364 -161.128318 
L 96.731273 -161.535857 
L 95.288182 -161.930727 
L 93.845091 -162.307277 
L 92.402 -162.662448 
L 90.958909 -162.995022 
L 89.515818 -163.304347 
L 88.072727 -163.589834 
L 86.629636 -163.851197 
L 85.186545 -164.088714 
L 83.743455 -164.303308 
L 82.300364 -164.496802 
L 80.857273 -164.672588 
L 79.414182 -164.8364 
L 77.971091 -164.996685 
L 76.528 -165.164482 
L 75.084909 -165.353206 
L 73.641818 -165.578701 
L 72.198727 -165.859415 
L 70.755636 -166.216385 
L 69.312545 -166.672827 
L 67.869455 -167.253255 
L 66.426364 -167.982035 
L 64.983273 -168.881286 
L 63.540182 -169.96813 
L 62.097091 -171.251459 
L 60.654 -172.728603 
L 59.210909 -174.382503 
L 57.767818 -176.180258 
L 56.324727 -178.073948 
L 54.881636 -180.00429 
L 53.438545 -181.906671 
L 51.995455 -183.718182 
z
" id="m6cd2fbb066" style="stroke:#ffffff;stroke-opacity:0.05;"/>
    </defs>
    <g clip-path="url(#p957c123be3)">
     <use style="fill:#8c0800;fill-opacity:0.05;stroke:#ffffff;stroke-opacity:0.05;" x="0" xlink:href="#m6cd2fbb066" y="216"/>
    </g>
   </g>
   <g id="line2d_10">
    <path clip-path="url(#p957c123be3)" d="M 51.995455 60.80574 
L 53.438545 63.354609 
L 54.881636 65.989402 
L 56.324727 68.642688 
L 57.767818 71.245134 
L 59.210909 73.732601 
L 60.654 76.052143 
L 62.097091 78.165803 
L 63.540182 80.051795 
L 64.983273 81.703365 
L 66.426364 83.126093 
L 67.869455 84.334497 
L 69.312545 85.348671 
L 70.755636 86.191412 
L 72.198727 86.886035 
L 73.641818 87.454885 
L 75.084909 87.918445 
L 76.528 88.29491 
L 77.971091 88.600069 
L 79.414182 88.847402 
L 80.857273 89.048287 
L 82.300364 89.212266 
L 83.743455 89.347332 
L 85.186545 89.4602 
L 86.629636 89.556574 
L 88.072727 89.641386 
L 89.515818 89.719017 
L 90.958909 89.793498 
L 92.402 89.868713 
L 93.845091 89.948577 
L 95.288182 90.037231 
L 96.731273 90.139241 
L 98.174364 90.259804 
L 99.617455 90.404977 
L 101.060545 90.581929 
L 102.503636 90.799206 
L 103.946727 91.067014 
L 105.389818 91.397497 
L 106.832909 91.804993 
L 108.276 92.306198 
L 109.719091 92.920203 
L 111.162182 93.668271 
L 112.605273 94.573247 
L 114.048364 95.658462 
L 115.491455 96.945983 
L 116.934545 98.454164 
L 118.377636 100.194544 
L 119.820727 102.168406 
L 121.263818 104.363552 
L 122.706909 106.752085 
L 124.15 109.290088 
L 125.593091 111.919786 
L 127.036182 114.574277 
L 128.479273 117.184101 
L 129.922364 119.684365 
L 131.365455 122.020893 
L 132.808545 124.154258 
L 134.251636 126.061194 
L 135.694727 127.733647 
L 137.137818 129.176175 
L 138.580909 130.402588 
L 140.024 131.432555 
L 141.467091 132.288671 
L 142.910182 132.994203 
L 144.353273 133.571539 
L 145.796364 134.041244 
L 147.239455 134.421586 
L 148.682545 134.728393 
L 150.125636 134.97512 
L 151.568727 135.17304 
L 153.011818 135.331494 
L 154.454909 135.458149 
L 155.898 135.559257 
L 157.341091 135.63989 
L 158.784182 135.704142 
L 160.227273 135.755308 
L 161.670364 135.796031 
L 163.113455 135.828431 
L 164.556545 135.854199 
L 165.999636 135.874688 
L 167.442727 135.890977 
L 168.885818 135.903924 
L 170.328909 135.914213 
L 171.772 135.92239 
L 173.215091 135.928888 
L 174.658182 135.934051 
L 176.101273 135.938154 
L 177.544364 135.941414 
L 178.987455 135.944005 
L 180.430545 135.946066 
L 181.873636 135.947704 
L 183.316727 135.949008 
L 184.759818 135.950047 
L 186.202909 135.950876 
L 187.646 135.951539 
L 189.089091 135.952071 
L 190.532182 135.952502 
L 191.975273 135.952854 
L 193.418364 135.953145 
L 194.861455 135.953391 
L 196.304545 135.953605 
" style="fill:none;opacity:0.9;stroke:#8c0800;stroke-linecap:round;stroke-width:1.5;"/>
   </g>
   <g id="line2d_11">
    <path clip-path="url(#p957c123be3)" d="M 51.995455 89.779883 
L 53.438545 89.779997 
L 54.881636 89.780141 
L 56.324727 89.780321 
L 57.767818 89.780549 
L 59.210909 89.780836 
L 60.654 89.781197 
L 62.097091 89.781652 
L 63.540182 89.782224 
L 64.983273 89.782944 
L 66.426364 89.783851 
L 67.869455 89.784992 
L 69.312545 89.786429 
L 70.755636 89.788238 
L 72.198727 89.790515 
L 73.641818 89.793382 
L 75.084909 89.79699 
L 76.528 89.801532 
L 77.971091 89.807248 
L 79.414182 89.814442 
L 80.857273 89.823496 
L 82.300364 89.834889 
L 83.743455 89.849224 
L 85.186545 89.867258 
L 86.629636 89.889942 
L 88.072727 89.918467 
L 89.515818 89.954327 
L 90.958909 89.999394 
L 92.402 90.056004 
L 93.845091 90.127074 
L 95.288182 90.216234 
L 96.731273 90.327987 
L 98.174364 90.467901 
L 99.617455 90.642828 
L 101.060545 90.861144 
L 102.503636 91.133013 
L 103.946727 91.470651 
L 105.389818 91.888546 
L 106.832909 92.403611 
L 108.276 93.035167 
L 109.719091 93.80467 
L 111.162182 94.735048 
L 112.605273 95.849501 
L 114.048364 97.169646 
L 115.491455 98.712946 
L 116.934545 100.489535 
L 118.377636 102.498763 
L 119.820727 104.726065 
L 121.263818 107.14099 
L 122.706909 109.69723 
L 124.15 112.335205 
L 125.593091 114.987139 
L 127.036182 117.583819 
L 128.479273 120.061656 
L 129.922364 122.368576 
L 131.365455 124.467645 
L 132.808545 126.338085 
L 134.251636 127.974012 
L 135.694727 129.381657 
L 137.137818 130.57596 
L 138.580909 131.577223 
L 140.024 132.408276 
L 141.467091 133.092334 
L 142.910182 133.651548 
L 144.353273 134.106144 
L 145.796364 134.474012 
L 147.239455 134.7706 
L 148.682545 135.009009 
L 150.125636 135.200192 
L 151.568727 135.353209 
L 153.011818 135.475492 
L 154.454909 135.573093 
L 155.898 135.650919 
L 157.341091 135.712926 
L 158.784182 135.7623 
L 160.227273 135.801595 
L 161.670364 135.832856 
L 163.113455 135.857717 
L 164.556545 135.877485 
L 165.999636 135.893199 
L 167.442727 135.905688 
L 168.885818 135.915614 
L 170.328909 135.923501 
L 171.772 135.929768 
L 173.215091 135.934748 
L 174.658182 135.938704 
L 176.101273 135.941846 
L 177.544364 135.944343 
L 178.987455 135.946327 
L 180.430545 135.947902 
L 181.873636 135.949154 
L 183.316727 135.950148 
L 184.759818 135.950938 
L 186.202909 135.951565 
L 187.646 135.952064 
L 189.089091 135.952459 
L 190.532182 135.952774 
L 191.975273 135.953024 
L 193.418364 135.953222 
L 194.861455 135.95338 
L 196.304545 135.953505 
" style="fill:none;opacity:0.7;stroke:#000000;stroke-linecap:round;stroke-width:1.5;"/>
   </g>
   <g id="line2d_12">
    <path clip-path="url(#p957c123be3)" d="M 51.995455 32.281818 
L 53.438545 34.093329 
L 54.881636 35.99571 
L 56.324727 37.926052 
L 57.767818 39.819742 
L 59.210909 41.617497 
L 60.654 43.271397 
L 62.097091 44.748541 
L 63.540182 46.03187 
L 64.983273 47.118714 
L 66.426364 48.017965 
L 67.869455 48.746745 
L 69.312545 49.327173 
L 70.755636 49.783615 
L 72.198727 50.140585 
L 73.641818 50.421299 
L 75.084909 50.646794 
L 76.528 50.835518 
L 77.971091 51.003315 
L 79.414182 51.1636 
L 80.857273 51.327412 
L 82.300364 51.503198 
L 83.743455 51.696692 
L 85.186545 51.911286 
L 86.629636 52.148803 
L 88.072727 52.410166 
L 89.515818 52.695653 
L 90.958909 53.004978 
L 92.402 53.337552 
L 93.845091 53.692723 
L 95.288182 54.069273 
L 96.731273 54.464143 
L 98.174364 54.871682 
L 99.617455 55.28474 
L 101.060545 55.697355 
L 102.503636 56.107584 
L 103.946727 56.519199 
L 105.389818 56.941927 
L 106.832909 57.390566 
L 108.276 57.883669 
L 109.719091 58.442556 
L 111.162182 59.090807 
L 112.605273 59.853717 
L 114.048364 60.757407 
L 115.491455 61.827869 
L 116.934545 63.089347 
L 118.377636 64.560891 
L 119.820727 66.251563 
L 121.263818 68.156378 
L 122.706909 70.254453 
L 124.15 72.509654 
L 125.593091 74.873559 
L 127.036182 77.290113 
L 128.479273 79.700979 
L 129.922364 82.050928 
L 131.365455 84.292957 
L 132.808545 86.392502 
L 134.251636 88.329669 
L 135.694727 90.099051 
L 137.137818 91.707826 
L 138.580909 93.172669 
L 140.024 94.515518 
L 141.467091 95.759055 
L 142.910182 96.923432 
L 144.353273 98.024896 
L 145.796364 99.075955 
L 147.239455 100.08669 
L 148.682545 101.066419 
L 150.125636 102.024473 
L 151.568727 102.969601 
L 153.011818 103.90893 
L 154.454909 104.847415 
L 155.898 105.787884 
L 157.341091 106.731369 
L 158.784182 107.677597 
L 160.227273 108.625561 
L 161.670364 109.573967 
L 163.113455 110.521372 
L 164.556545 111.466056 
L 165.999636 112.405907 
L 167.442727 113.338462 
L 168.885818 114.260995 
L 170.328909 115.170541 
L 171.772 116.063938 
L 173.215091 116.937993 
L 174.658182 117.789733 
L 176.101273 118.616511 
L 177.544364 119.41582 
L 178.987455 120.18492 
L 180.430545 120.920551 
L 181.873636 121.618819 
L 183.316727 122.275244 
L 184.759818 122.884914 
L 186.202909 123.442674 
L 187.646 123.943338 
L 189.089091 124.381886 
L 190.532182 124.753664 
L 191.975273 125.054575 
L 193.418364 125.281283 
L 194.861455 125.431375 
L 196.304545 125.50347 
" style="fill:none;opacity:0.45;stroke:#8c0800;stroke-dasharray:2.775,1.2;stroke-dashoffset:0;stroke-width:0.75;"/>
   </g>
   <g id="line2d_13">
    <path clip-path="url(#p957c123be3)" d="M 51.995455 89.329662 
L 53.438545 92.615888 
L 54.881636 95.983095 
L 56.324727 99.359324 
L 57.767818 102.670526 
L 59.210909 105.847706 
L 60.654 108.832888 
L 62.097091 111.583065 
L 63.540182 114.071719 
L 64.983273 116.288016 
L 66.426364 118.234221 
L 67.869455 119.922249 
L 69.312545 121.370169 
L 70.755636 122.599209 
L 72.198727 123.631485 
L 73.641818 124.48847 
L 75.084909 125.190097 
L 76.528 125.754302 
L 77.971091 126.196824 
L 79.414182 126.531205 
L 80.857273 126.769162 
L 82.300364 126.921335 
L 83.743455 126.997972 
L 85.186545 127.009114 
L 86.629636 126.964346 
L 88.072727 126.872607 
L 89.515818 126.74238 
L 90.958909 126.582019 
L 92.402 126.399874 
L 93.845091 126.204431 
L 95.288182 126.00519 
L 96.731273 125.81434 
L 98.174364 125.647925 
L 99.617455 125.525215 
L 101.060545 125.466504 
L 102.503636 125.490828 
L 103.946727 125.614828 
L 105.389818 125.853068 
L 106.832909 126.219419 
L 108.276 126.728727 
L 109.719091 127.397851 
L 111.162182 128.245735 
L 112.605273 129.292777 
L 114.048364 130.559516 
L 115.491455 132.064098 
L 116.934545 133.818981 
L 118.377636 135.828197 
L 119.820727 138.08525 
L 121.263818 140.570725 
L 122.706909 143.249717 
L 124.15 146.070522 
L 125.593091 148.966013 
L 127.036182 151.858441 
L 128.479273 154.667224 
L 129.922364 157.317802 
L 131.365455 159.748829 
L 132.808545 161.916014 
L 134.251636 163.79272 
L 135.694727 165.368243 
L 137.137818 166.644524 
L 138.580909 167.632508 
L 140.024 168.349593 
L 141.467091 168.818287 
L 142.910182 169.064973 
L 144.353273 169.118182 
L 145.796364 169.006533 
L 147.239455 168.756482 
L 148.682545 168.390366 
L 150.125636 167.925766 
L 151.568727 167.37648 
L 153.011818 166.754059 
L 154.454909 166.068883 
L 155.898 165.330631 
L 157.341091 164.548412 
L 158.784182 163.730687 
L 160.227273 162.885054 
L 161.670364 162.018095 
L 163.113455 161.13549 
L 164.556545 160.242343 
L 165.999636 159.34347 
L 167.442727 158.443492 
L 168.885818 157.546853 
L 170.328909 156.657886 
L 171.772 155.780842 
L 173.215091 154.919782 
L 174.658182 154.078369 
L 176.101273 153.259796 
L 177.544364 152.467008 
L 178.987455 151.703091 
L 180.430545 150.97158 
L 181.873636 150.276589 
L 183.316727 149.622772 
L 184.759818 149.015179 
L 186.202909 148.459077 
L 187.646 147.959739 
L 189.089091 147.522256 
L 190.532182 147.15134 
L 191.975273 146.851132 
L 193.418364 146.625007 
L 194.861455 146.475407 
L 196.304545 146.403741 
" style="fill:none;opacity:0.45;stroke:#8c0800;stroke-dasharray:2.775,1.2;stroke-dashoffset:0;stroke-width:0.75;"/>
   </g>
   <g id="patch_3">
    <path d="M 44.78 175.96 
L 44.78 25.44 
" style="fill:none;stroke:#262626;stroke-linecap:square;stroke-linejoin:miter;stroke-width:0.8;"/>
   </g>
   <g id="patch_4">
    <path d="M 44.78 175.96 
L 203.52 175.96 
" style="fill:none;stroke:#262626;stroke-linecap:square;stroke-linejoin:miter;stroke-width:0.8;"/>
   </g>
   <g id="text_12">
    <!-- Jaguar-micro SM03 -->
    <defs>
     <path d="M 2.875 20.3125 
L 11.421875 21.484375 
Q 11.765625 13.28125 14.5 10.25 
Q 17.234375 7.234375 22.078125 7.234375 
Q 25.640625 7.234375 28.21875 8.859375 
Q 30.8125 10.5 31.78125 13.296875 
Q 32.765625 16.109375 32.765625 22.265625 
L 32.765625 71.578125 
L 42.234375 71.578125 
L 42.234375 22.796875 
Q 42.234375 13.8125 40.0625 8.875 
Q 37.890625 3.953125 33.171875 1.359375 
Q 28.46875 -1.21875 22.125 -1.21875 
Q 12.703125 -1.21875 7.6875 4.203125 
Q 2.6875 9.625 2.875 20.3125 
z
" id="ArialMT-4a"/>
     <path d="M 40.4375 6.390625 
Q 35.546875 2.25 31.03125 0.53125 
Q 26.515625 -1.171875 21.34375 -1.171875 
Q 12.796875 -1.171875 8.203125 3 
Q 3.609375 7.171875 3.609375 13.671875 
Q 3.609375 17.484375 5.34375 20.625 
Q 7.078125 23.78125 9.890625 25.6875 
Q 12.703125 27.59375 16.21875 28.5625 
Q 18.796875 29.25 24.03125 29.890625 
Q 34.671875 31.15625 39.703125 32.90625 
Q 39.75 34.71875 39.75 35.203125 
Q 39.75 40.578125 37.25 42.78125 
Q 33.890625 45.75 27.25 45.75 
Q 21.046875 45.75 18.09375 43.578125 
Q 15.140625 41.40625 13.71875 35.890625 
L 5.125 37.0625 
Q 6.296875 42.578125 8.984375 45.96875 
Q 11.671875 49.359375 16.75 51.1875 
Q 21.828125 53.03125 28.515625 53.03125 
Q 35.15625 53.03125 39.296875 51.46875 
Q 43.453125 49.90625 45.40625 47.53125 
Q 47.359375 45.171875 48.140625 41.546875 
Q 48.578125 39.3125 48.578125 33.453125 
L 48.578125 21.734375 
Q 48.578125 9.46875 49.140625 6.21875 
Q 49.703125 2.984375 51.375 0 
L 42.1875 0 
Q 40.828125 2.734375 40.4375 6.390625 
z
M 39.703125 26.03125 
Q 34.90625 24.078125 25.34375 22.703125 
Q 19.921875 21.921875 17.671875 20.9375 
Q 15.4375 19.96875 14.203125 18.09375 
Q 12.984375 16.21875 12.984375 13.921875 
Q 12.984375 10.40625 15.640625 8.0625 
Q 18.3125 5.71875 23.4375 5.71875 
Q 28.515625 5.71875 32.46875 7.9375 
Q 36.421875 10.15625 38.28125 14.015625 
Q 39.703125 17 39.703125 22.796875 
z
" id="ArialMT-61"/>
     <path d="M 4.984375 -4.296875 
L 13.53125 -5.5625 
Q 14.0625 -9.515625 16.5 -11.328125 
Q 19.78125 -13.765625 25.4375 -13.765625 
Q 31.546875 -13.765625 34.859375 -11.328125 
Q 38.1875 -8.890625 39.359375 -4.5 
Q 40.046875 -1.8125 39.984375 6.78125 
Q 34.234375 0 25.640625 0 
Q 14.9375 0 9.078125 7.71875 
Q 3.21875 15.4375 3.21875 26.21875 
Q 3.21875 33.640625 5.90625 39.90625 
Q 8.59375 46.1875 13.6875 49.609375 
Q 18.796875 53.03125 25.6875 53.03125 
Q 34.859375 53.03125 40.828125 45.609375 
L 40.828125 51.859375 
L 48.921875 51.859375 
L 48.921875 7.03125 
Q 48.921875 -5.078125 46.453125 -10.125 
Q 44 -15.1875 38.640625 -18.109375 
Q 33.296875 -21.046875 25.484375 -21.046875 
Q 16.21875 -21.046875 10.5 -16.875 
Q 4.78125 -12.703125 4.984375 -4.296875 
z
M 12.25 26.859375 
Q 12.25 16.65625 16.296875 11.96875 
Q 20.359375 7.28125 26.46875 7.28125 
Q 32.515625 7.28125 36.609375 11.9375 
Q 40.71875 16.609375 40.71875 26.5625 
Q 40.71875 36.078125 36.5 40.90625 
Q 32.28125 45.75 26.3125 45.75 
Q 20.453125 45.75 16.34375 40.984375 
Q 12.25 36.234375 12.25 26.859375 
z
" id="ArialMT-67"/>
     <path d="M 40.578125 0 
L 40.578125 7.625 
Q 34.515625 -1.171875 24.125 -1.171875 
Q 19.53125 -1.171875 15.546875 0.578125 
Q 11.578125 2.34375 9.640625 5 
Q 7.71875 7.671875 6.9375 11.53125 
Q 6.390625 14.109375 6.390625 19.734375 
L 6.390625 51.859375 
L 15.1875 51.859375 
L 15.1875 23.09375 
Q 15.1875 16.21875 15.71875 13.8125 
Q 16.546875 10.359375 19.234375 8.375 
Q 21.921875 6.390625 25.875 6.390625 
Q 29.828125 6.390625 33.296875 8.421875 
Q 36.765625 10.453125 38.203125 13.9375 
Q 39.65625 17.4375 39.65625 24.078125 
L 39.65625 51.859375 
L 48.4375 51.859375 
L 48.4375 0 
z
" id="ArialMT-75"/>
     <path d="M 6.5 0 
L 6.5 51.859375 
L 14.40625 51.859375 
L 14.40625 44 
Q 17.4375 49.515625 20 51.265625 
Q 22.5625 53.03125 25.640625 53.03125 
Q 30.078125 53.03125 34.671875 50.203125 
L 31.640625 42.046875 
Q 28.421875 43.953125 25.203125 43.953125 
Q 22.3125 43.953125 20.015625 42.21875 
Q 17.71875 40.484375 16.75 37.40625 
Q 15.28125 32.71875 15.28125 27.15625 
L 15.28125 0 
z
" id="ArialMT-72"/>
     <path d="M 3.171875 21.484375 
L 3.171875 30.328125 
L 30.171875 30.328125 
L 30.171875 21.484375 
z
" id="ArialMT-2d"/>
     <path d="M 6.59375 0 
L 6.59375 51.859375 
L 14.453125 51.859375 
L 14.453125 44.578125 
Q 16.890625 48.390625 20.9375 50.703125 
Q 25 53.03125 30.171875 53.03125 
Q 35.9375 53.03125 39.625 50.640625 
Q 43.3125 48.25 44.828125 43.953125 
Q 50.984375 53.03125 60.84375 53.03125 
Q 68.5625 53.03125 72.703125 48.75 
Q 76.859375 44.484375 76.859375 35.59375 
L 76.859375 0 
L 68.109375 0 
L 68.109375 32.671875 
Q 68.109375 37.9375 67.25 40.25 
Q 66.40625 42.578125 64.15625 43.984375 
Q 61.921875 45.40625 58.890625 45.40625 
Q 53.421875 45.40625 49.796875 41.765625 
Q 46.1875 38.140625 46.1875 30.125 
L 46.1875 0 
L 37.40625 0 
L 37.40625 33.6875 
Q 37.40625 39.546875 35.25 42.46875 
Q 33.109375 45.40625 28.21875 45.40625 
Q 24.515625 45.40625 21.359375 43.453125 
Q 18.21875 41.5 16.796875 37.734375 
Q 15.375 33.984375 15.375 26.90625 
L 15.375 0 
z
" id="ArialMT-6d"/>
     <path d="M 6.640625 61.46875 
L 6.640625 71.578125 
L 15.4375 71.578125 
L 15.4375 61.46875 
z
M 6.640625 0 
L 6.640625 51.859375 
L 15.4375 51.859375 
L 15.4375 0 
z
" id="ArialMT-69"/>
     <path d="M 40.4375 19 
L 49.078125 17.875 
Q 47.65625 8.9375 41.8125 3.875 
Q 35.984375 -1.171875 27.484375 -1.171875 
Q 16.84375 -1.171875 10.375 5.78125 
Q 3.90625 12.75 3.90625 25.734375 
Q 3.90625 34.125 6.6875 40.421875 
Q 9.46875 46.734375 15.15625 49.875 
Q 20.84375 53.03125 27.546875 53.03125 
Q 35.984375 53.03125 41.359375 48.75 
Q 46.734375 44.484375 48.25 36.625 
L 39.703125 35.296875 
Q 38.484375 40.53125 35.375 43.15625 
Q 32.28125 45.796875 27.875 45.796875 
Q 21.234375 45.796875 17.078125 41.03125 
Q 12.9375 36.28125 12.9375 25.984375 
Q 12.9375 15.53125 16.9375 10.796875 
Q 20.953125 6.0625 27.390625 6.0625 
Q 32.5625 6.0625 36.03125 9.234375 
Q 39.5 12.40625 40.4375 19 
z
" id="ArialMT-63"/>
     <path d="M 3.328125 25.921875 
Q 3.328125 40.328125 11.328125 47.265625 
Q 18.015625 53.03125 27.640625 53.03125 
Q 38.328125 53.03125 45.109375 46.015625 
Q 51.90625 39.015625 51.90625 26.65625 
Q 51.90625 16.65625 48.90625 10.90625 
Q 45.90625 5.171875 40.15625 2 
Q 34.421875 -1.171875 27.640625 -1.171875 
Q 16.75 -1.171875 10.03125 5.8125 
Q 3.328125 12.796875 3.328125 25.921875 
z
M 12.359375 25.921875 
Q 12.359375 15.96875 16.703125 11.015625 
Q 21.046875 6.0625 27.640625 6.0625 
Q 34.1875 6.0625 38.53125 11.03125 
Q 42.875 16.015625 42.875 26.21875 
Q 42.875 35.84375 38.5 40.796875 
Q 34.125 45.75 27.640625 45.75 
Q 21.046875 45.75 16.703125 40.8125 
Q 12.359375 35.890625 12.359375 25.921875 
z
" id="ArialMT-6f"/>
     <path id="ArialMT-20"/>
     <path d="M 4.5 23 
L 13.421875 23.78125 
Q 14.0625 18.40625 16.375 14.96875 
Q 18.703125 11.53125 23.578125 9.40625 
Q 28.46875 7.28125 34.578125 7.28125 
Q 39.984375 7.28125 44.140625 8.890625 
Q 48.296875 10.5 50.3125 13.296875 
Q 52.34375 16.109375 52.34375 19.4375 
Q 52.34375 22.796875 50.390625 25.3125 
Q 48.4375 27.828125 43.953125 29.546875 
Q 41.0625 30.671875 31.203125 33.03125 
Q 21.34375 35.40625 17.390625 37.5 
Q 12.25 40.1875 9.734375 44.15625 
Q 7.234375 48.140625 7.234375 53.078125 
Q 7.234375 58.5 10.296875 63.203125 
Q 13.375 67.921875 19.28125 70.359375 
Q 25.203125 72.796875 32.421875 72.796875 
Q 40.375 72.796875 46.453125 70.234375 
Q 52.546875 67.671875 55.8125 62.6875 
Q 59.078125 57.71875 59.328125 51.421875 
L 50.25 50.734375 
Q 49.515625 57.515625 45.28125 60.984375 
Q 41.0625 64.453125 32.8125 64.453125 
Q 24.21875 64.453125 20.28125 61.296875 
Q 16.359375 58.15625 16.359375 53.71875 
Q 16.359375 49.859375 19.140625 47.359375 
Q 21.875 44.875 33.421875 42.265625 
Q 44.96875 39.65625 49.265625 37.703125 
Q 55.515625 34.8125 58.484375 30.390625 
Q 61.46875 25.984375 61.46875 20.21875 
Q 61.46875 14.5 58.203125 9.4375 
Q 54.9375 4.390625 48.796875 1.578125 
Q 42.671875 -1.21875 35.015625 -1.21875 
Q 25.296875 -1.21875 18.71875 1.609375 
Q 12.15625 4.4375 8.421875 10.125 
Q 4.6875 15.828125 4.5 23 
z
" id="ArialMT-53"/>
     <path d="M 7.421875 0 
L 7.421875 71.578125 
L 21.6875 71.578125 
L 38.625 20.90625 
Q 40.96875 13.8125 42.046875 10.296875 
Q 43.265625 14.203125 45.84375 21.78125 
L 62.984375 71.578125 
L 75.734375 71.578125 
L 75.734375 0 
L 66.609375 0 
L 66.609375 59.90625 
L 45.796875 0 
L 37.25 0 
L 16.546875 60.9375 
L 16.546875 0 
z
" id="ArialMT-4d"/>
     <path d="M 4.203125 18.890625 
L 12.984375 20.0625 
Q 14.5 12.59375 18.140625 9.296875 
Q 21.78125 6 27 6 
Q 33.203125 6 37.46875 10.296875 
Q 41.75 14.59375 41.75 20.953125 
Q 41.75 27 37.796875 30.921875 
Q 33.84375 34.859375 27.734375 34.859375 
Q 25.25 34.859375 21.53125 33.890625 
L 22.515625 41.609375 
Q 23.390625 41.5 23.921875 41.5 
Q 29.546875 41.5 34.03125 44.421875 
Q 38.53125 47.359375 38.53125 53.46875 
Q 38.53125 58.296875 35.25 61.46875 
Q 31.984375 64.65625 26.8125 64.65625 
Q 21.6875 64.65625 18.265625 61.421875 
Q 14.84375 58.203125 13.875 51.765625 
L 5.078125 53.328125 
Q 6.6875 62.15625 12.390625 67.015625 
Q 18.109375 71.875 26.609375 71.875 
Q 32.46875 71.875 37.390625 69.359375 
Q 42.328125 66.84375 44.9375 62.5 
Q 47.5625 58.15625 47.5625 53.265625 
Q 47.5625 48.640625 45.0625 44.828125 
Q 42.578125 41.015625 37.703125 38.765625 
Q 44.046875 37.3125 47.5625 32.6875 
Q 51.078125 28.078125 51.078125 21.140625 
Q 51.078125 11.765625 44.234375 5.25 
Q 37.40625 -1.265625 26.953125 -1.265625 
Q 17.53125 -1.265625 11.296875 4.34375 
Q 5.078125 9.96875 4.203125 18.890625 
z
" id="ArialMT-33"/>
    </defs>
    <g style="fill:#262626;" transform="translate(71.802813 19.44)scale(0.12 -0.12)">
     <use xlink:href="#ArialMT-4a"/>
     <use x="50" xlink:href="#ArialMT-61"/>
     <use x="105.615234" xlink:href="#ArialMT-67"/>
     <use x="161.230469" xlink:href="#ArialMT-75"/>
     <use x="216.845703" xlink:href="#ArialMT-61"/>
     <use x="272.460938" xlink:href="#ArialMT-72"/>
     <use x="305.761719" xlink:href="#ArialMT-2d"/>
     <use x="339.0625" xlink:href="#ArialMT-6d"/>
     <use x="422.363281" xlink:href="#ArialMT-69"/>
     <use x="444.580078" xlink:href="#ArialMT-63"/>
     <use x="494.580078" xlink:href="#ArialMT-72"/>
     <use x="527.880859" xlink:href="#ArialMT-6f"/>
     <use x="583.496094" xlink:href="#ArialMT-20"/>
     <use x="611.279297" xlink:href="#ArialMT-53"/>
     <use x="677.978516" xlink:href="#ArialMT-4d"/>
     <use x="761.279297" xlink:href="#ArialMT-30"/>
     <use x="816.894531" xlink:href="#ArialMT-33"/>
    </g>
   </g>
  </g>
 </g>
 <defs>
  <clipPath id="p957c123be3">
   <rect height="150.52" width="158.74" x="44.78" y="25.44"/>
  </clipPath>
 </defs>
</svg>
