<?xml version="1.0" encoding="utf-8" standalone="no"?>
<!DOCTYPE svg PUBLIC "-//W3C//DTD SVG 1.1//EN"
  "http://www.w3.org/Graphics/SVG/1.1/DTD/svg11.dtd">
<!-- Created with matplotlib (http://matplotlib.org/) -->
<svg height="144pt" version="1.1" viewBox="0 0 144 144" width="144pt" xmlns="http://www.w3.org/2000/svg" xmlns:xlink="http://www.w3.org/1999/xlink">
 <defs>
  <style type="text/css">
*{stroke-linecap:butt;stroke-linejoin:round;}
  </style>
 </defs>
 <g id="figure_1">
  <g id="patch_1">
   <path d="M 0 144 
L 144 144 
L 144 0 
L 0 0 
z
" style="fill:#ffffff;"/>
  </g>
  <g id="axes_1">
   <g id="patch_2">
    <path d="M 53.72 101.92 
L 130.44 101.92 
L 130.44 13.56 
L 53.72 13.56 
z
" style="fill:#ffffff;"/>
   </g>
   <g id="matplotlib.axis_1">
    <g id="xtick_1">
     <g id="line2d_1">
      <defs>
       <path d="M 0 0 
L 0 3.5 
" id="mb7df89c765" style="stroke:#262626;stroke-width:0.8;"/>
      </defs>
      <g>
       <use style="fill:#262626;stroke:#262626;stroke-width:0.8;" x="57.207273" xlink:href="#mb7df89c765" y="101.92"/>
      </g>
     </g>
     <g id="text_1">
      <!-- 2 -->
      <defs>
       <path d="M 50.34375 8.453125 
L 50.34375 0 
L 3.03125 0 
Q 2.9375 3.171875 4.046875 6.109375 
Q 5.859375 10.9375 9.828125 15.625 
Q 13.8125 20.3125 21.34375 26.46875 
Q 33.015625 36.03125 37.109375 41.625 
Q 41.21875 47.21875 41.21875 52.203125 
Q 41.21875 57.421875 37.46875 61 
Q 33.734375 64.59375 27.734375 64.59375 
Q 21.390625 64.59375 17.578125 60.78125 
Q 13.765625 56.984375 13.71875 50.25 
L 4.6875 51.171875 
Q 5.609375 61.28125 11.65625 66.578125 
Q 17.71875 71.875 27.9375 71.875 
Q 38.234375 71.875 44.234375 66.15625 
Q 50.25 60.453125 50.25 52 
Q 50.25 47.703125 48.484375 43.546875 
Q 46.734375 39.40625 42.65625 34.8125 
Q 38.578125 30.21875 29.109375 22.21875 
Q 21.1875 15.578125 18.9375 13.203125 
Q 16.703125 10.84375 15.234375 8.453125 
z
" id="ArialMT-32"/>
      </defs>
      <g style="fill:#262626;" transform="translate(54.148757 116.793594)scale(0.11 -0.11)">
       <use xlink:href="#ArialMT-32"/>
      </g>
     </g>
    </g>
    <g id="xtick_2">
     <g id="line2d_2">
      <g>
       <use style="fill:#262626;stroke:#262626;stroke-width:0.8;" x="71.156364" xlink:href="#mb7df89c765" y="101.92"/>
      </g>
     </g>
     <g id="text_2">
      <!-- 4 -->
      <defs>
       <path d="M 32.328125 0 
L 32.328125 17.140625 
L 1.265625 17.140625 
L 1.265625 25.203125 
L 33.9375 71.578125 
L 41.109375 71.578125 
L 41.109375 25.203125 
L 50.78125 25.203125 
L 50.78125 17.140625 
L 41.109375 17.140625 
L 41.109375 0 
z
M 32.328125 25.203125 
L 32.328125 57.46875 
L 9.90625 25.203125 
z
" id="ArialMT-34"/>
      </defs>
      <g style="fill:#262626;" transform="translate(68.097848 116.793594)scale(0.11 -0.11)">
       <use xlink:href="#ArialMT-34"/>
      </g>
     </g>
    </g>
    <g id="xtick_3">
     <g id="line2d_3">
      <g>
       <use style="fill:#262626;stroke:#262626;stroke-width:0.8;" x="85.105455" xlink:href="#mb7df89c765" y="101.92"/>
      </g>
     </g>
     <g id="text_3">
      <!-- 6 -->
      <defs>
       <path d="M 49.75 54.046875 
L 41.015625 53.375 
Q 39.84375 58.546875 37.703125 60.890625 
Q 34.125 64.65625 28.90625 64.65625 
Q 24.703125 64.65625 21.53125 62.3125 
Q 17.390625 59.28125 14.984375 53.46875 
Q 12.59375 47.65625 12.5 36.921875 
Q 15.671875 41.75 20.265625 44.09375 
Q 24.859375 46.4375 29.890625 46.4375 
Q 38.671875 46.4375 44.84375 39.96875 
Q 51.03125 33.5 51.03125 23.25 
Q 51.03125 16.5 48.125 10.71875 
Q 45.21875 4.9375 40.140625 1.859375 
Q 35.0625 -1.21875 28.609375 -1.21875 
Q 17.625 -1.21875 10.6875 6.859375 
Q 3.765625 14.9375 3.765625 33.5 
Q 3.765625 54.25 11.421875 63.671875 
Q 18.109375 71.875 29.4375 71.875 
Q 37.890625 71.875 43.28125 67.140625 
Q 48.6875 62.40625 49.75 54.046875 
z
M 13.875 23.1875 
Q 13.875 18.65625 15.796875 14.5 
Q 17.71875 10.359375 21.1875 8.171875 
Q 24.65625 6 28.46875 6 
Q 34.03125 6 38.03125 10.484375 
Q 42.046875 14.984375 42.046875 22.703125 
Q 42.046875 30.125 38.078125 34.390625 
Q 34.125 38.671875 28.125 38.671875 
Q 22.171875 38.671875 18.015625 34.390625 
Q 13.875 30.125 13.875 23.1875 
z
" id="ArialMT-36"/>
      </defs>
      <g style="fill:#262626;" transform="translate(82.046939 116.793594)scale(0.11 -0.11)">
       <use xlink:href="#ArialMT-36"/>
      </g>
     </g>
    </g>
    <g id="xtick_4">
     <g id="line2d_4">
      <g>
       <use style="fill:#262626;stroke:#262626;stroke-width:0.8;" x="99.054545" xlink:href="#mb7df89c765" y="101.92"/>
      </g>
     </g>
     <g id="text_4">
      <!-- 8 -->
      <defs>
       <path d="M 17.671875 38.8125 
Q 12.203125 40.828125 9.5625 44.53125 
Q 6.9375 48.25 6.9375 53.421875 
Q 6.9375 61.234375 12.546875 66.546875 
Q 18.171875 71.875 27.484375 71.875 
Q 36.859375 71.875 42.578125 66.421875 
Q 48.296875 60.984375 48.296875 53.171875 
Q 48.296875 48.1875 45.671875 44.5 
Q 43.0625 40.828125 37.75 38.8125 
Q 44.34375 36.671875 47.78125 31.875 
Q 51.21875 27.09375 51.21875 20.453125 
Q 51.21875 11.28125 44.71875 5.03125 
Q 38.234375 -1.21875 27.640625 -1.21875 
Q 17.046875 -1.21875 10.546875 5.046875 
Q 4.046875 11.328125 4.046875 20.703125 
Q 4.046875 27.6875 7.59375 32.390625 
Q 11.140625 37.109375 17.671875 38.8125 
z
M 15.921875 53.71875 
Q 15.921875 48.640625 19.1875 45.40625 
Q 22.46875 42.1875 27.6875 42.1875 
Q 32.765625 42.1875 36.015625 45.375 
Q 39.265625 48.578125 39.265625 53.21875 
Q 39.265625 58.0625 35.90625 61.359375 
Q 32.5625 64.65625 27.59375 64.65625 
Q 22.5625 64.65625 19.234375 61.421875 
Q 15.921875 58.203125 15.921875 53.71875 
z
M 13.09375 20.65625 
Q 13.09375 16.890625 14.875 13.375 
Q 16.65625 9.859375 20.171875 7.921875 
Q 23.6875 6 27.734375 6 
Q 34.03125 6 38.125 10.046875 
Q 42.234375 14.109375 42.234375 20.359375 
Q 42.234375 26.703125 38.015625 30.859375 
Q 33.796875 35.015625 27.4375 35.015625 
Q 21.234375 35.015625 17.15625 30.90625 
Q 13.09375 26.8125 13.09375 20.65625 
z
" id="ArialMT-38"/>
      </defs>
      <g style="fill:#262626;" transform="translate(95.99603 116.793594)scale(0.11 -0.11)">
       <use xlink:href="#ArialMT-38"/>
      </g>
     </g>
    </g>
    <g id="xtick_5">
     <g id="line2d_5">
      <g>
       <use style="fill:#262626;stroke:#262626;stroke-width:0.8;" x="113.003636" xlink:href="#mb7df89c765" y="101.92"/>
      </g>
     </g>
     <g id="text_5">
      <!-- 10 -->
      <defs>
       <path d="M 37.25 0 
L 28.46875 0 
L 28.46875 56 
Q 25.296875 52.984375 20.140625 49.953125 
Q 14.984375 46.921875 10.890625 45.40625 
L 10.890625 53.90625 
Q 18.265625 57.375 23.78125 62.296875 
Q 29.296875 67.234375 31.59375 71.875 
L 37.25 71.875 
z
" id="ArialMT-31"/>
       <path d="M 4.15625 35.296875 
Q 4.15625 48 6.765625 55.734375 
Q 9.375 63.484375 14.515625 67.671875 
Q 19.671875 71.875 27.484375 71.875 
Q 33.25 71.875 37.59375 69.546875 
Q 41.9375 67.234375 44.765625 62.859375 
Q 47.609375 58.5 49.21875 52.21875 
Q 50.828125 45.953125 50.828125 35.296875 
Q 50.828125 22.703125 48.234375 14.96875 
Q 45.65625 7.234375 40.5 3 
Q 35.359375 -1.21875 27.484375 -1.21875 
Q 17.140625 -1.21875 11.234375 6.203125 
Q 4.15625 15.140625 4.15625 35.296875 
z
M 13.1875 35.296875 
Q 13.1875 17.671875 17.3125 11.828125 
Q 21.4375 6 27.484375 6 
Q 33.546875 6 37.671875 11.859375 
Q 41.796875 17.71875 41.796875 35.296875 
Q 41.796875 52.984375 37.671875 58.78125 
Q 33.546875 64.59375 27.390625 64.59375 
Q 21.34375 64.59375 17.71875 59.46875 
Q 13.1875 52.9375 13.1875 35.296875 
z
" id="ArialMT-30"/>
      </defs>
      <g style="fill:#262626;" transform="translate(106.886605 116.793594)scale(0.11 -0.11)">
       <use xlink:href="#ArialMT-31"/>
       <use x="55.615234" xlink:href="#ArialMT-30"/>
      </g>
     </g>
    </g>
    <g id="xtick_6">
     <g id="line2d_6">
      <g>
       <use style="fill:#262626;stroke:#262626;stroke-width:0.8;" x="126.952727" xlink:href="#mb7df89c765" y="101.92"/>
      </g>
     </g>
     <g id="text_6">
      <!-- 12 -->
      <g style="fill:#262626;" transform="translate(120.835696 116.793594)scale(0.11 -0.11)">
       <use xlink:href="#ArialMT-31"/>
       <use x="55.615234" xlink:href="#ArialMT-32"/>
      </g>
     </g>
    </g>
    <g id="text_7">
     <!-- pH -->
     <defs>
      <path d="M 6.59375 -19.875 
L 6.59375 51.859375 
L 14.59375 51.859375 
L 14.59375 45.125 
Q 17.4375 49.078125 21 51.046875 
Q 24.5625 53.03125 29.640625 53.03125 
Q 36.28125 53.03125 41.359375 49.609375 
Q 46.4375 46.1875 49.015625 39.953125 
Q 51.609375 33.734375 51.609375 26.3125 
Q 51.609375 18.359375 48.75 11.984375 
Q 45.90625 5.609375 40.453125 2.21875 
Q 35.015625 -1.171875 29 -1.171875 
Q 24.609375 -1.171875 21.109375 0.6875 
Q 17.625 2.546875 15.375 5.375 
L 15.375 -19.875 
z
M 14.546875 25.640625 
Q 14.546875 15.625 18.59375 10.84375 
Q 22.65625 6.0625 28.421875 6.0625 
Q 34.28125 6.0625 38.453125 11.015625 
Q 42.625 15.96875 42.625 26.375 
Q 42.625 36.28125 38.546875 41.203125 
Q 34.46875 46.140625 28.8125 46.140625 
Q 23.1875 46.140625 18.859375 40.890625 
Q 14.546875 35.640625 14.546875 25.640625 
z
" id="ArialMT-70"/>
      <path d="M 8.015625 0 
L 8.015625 71.578125 
L 17.484375 71.578125 
L 17.484375 42.1875 
L 54.6875 42.1875 
L 54.6875 71.578125 
L 64.15625 71.578125 
L 64.15625 0 
L 54.6875 0 
L 54.6875 33.734375 
L 17.484375 33.734375 
L 17.484375 0 
z
" id="ArialMT-48"/>
     </defs>
     <g style="fill:#262626;" transform="translate(85.049453 130.853437)scale(0.11 -0.11)">
      <use xlink:href="#ArialMT-70"/>
      <use x="55.615234" xlink:href="#ArialMT-48"/>
     </g>
    </g>
   </g>
   <g id="matplotlib.axis_2">
    <g id="ytick_1">
     <g id="line2d_7">
      <defs>
       <path d="M 0 0 
L -3.5 0 
" id="m546c948390" style="stroke:#262626;stroke-width:0.8;"/>
      </defs>
      <g>
       <use style="fill:#262626;stroke:#262626;stroke-width:0.8;" x="53.72" xlink:href="#m546c948390" y="92.892761"/>
      </g>
     </g>
     <g id="text_8">
      <!-- 0 -->
      <g style="fill:#262626;" transform="translate(40.602969 96.829558)scale(0.11 -0.11)">
       <use xlink:href="#ArialMT-30"/>
      </g>
     </g>
    </g>
    <g id="ytick_2">
     <g id="line2d_8">
      <g>
       <use style="fill:#262626;stroke:#262626;stroke-width:0.8;" x="53.72" xlink:href="#m546c948390" y="54.223927"/>
      </g>
     </g>
     <g id="text_9">
      <!-- 50 -->
      <defs>
       <path d="M 4.15625 18.75 
L 13.375 19.53125 
Q 14.40625 12.796875 18.140625 9.390625 
Q 21.875 6 27.15625 6 
Q 33.5 6 37.890625 10.78125 
Q 42.28125 15.578125 42.28125 23.484375 
Q 42.28125 31 38.0625 35.34375 
Q 33.84375 39.703125 27 39.703125 
Q 22.75 39.703125 19.328125 37.765625 
Q 15.921875 35.84375 13.96875 32.765625 
L 5.71875 33.84375 
L 12.640625 70.609375 
L 48.25 70.609375 
L 48.25 62.203125 
L 19.671875 62.203125 
L 15.828125 42.96875 
Q 22.265625 47.46875 29.34375 47.46875 
Q 38.71875 47.46875 45.15625 40.96875 
Q 51.609375 34.46875 51.609375 24.265625 
Q 51.609375 14.546875 45.953125 7.46875 
Q 39.0625 -1.21875 27.15625 -1.21875 
Q 17.390625 -1.21875 11.203125 4.25 
Q 5.03125 9.71875 4.15625 18.75 
z
" id="ArialMT-35"/>
      </defs>
      <g style="fill:#262626;" transform="translate(34.485938 58.160724)scale(0.11 -0.11)">
       <use xlink:href="#ArialMT-35"/>
       <use x="55.615234" xlink:href="#ArialMT-30"/>
      </g>
     </g>
    </g>
    <g id="ytick_3">
     <g id="line2d_9">
      <g>
       <use style="fill:#262626;stroke:#262626;stroke-width:0.8;" x="53.72" xlink:href="#m546c948390" y="15.555094"/>
      </g>
     </g>
     <g id="text_10">
      <!-- 100 -->
      <g style="fill:#262626;" transform="translate(28.368906 19.49189)scale(0.11 -0.11)">
       <use xlink:href="#ArialMT-31"/>
       <use x="55.615234" xlink:href="#ArialMT-30"/>
       <use x="111.230469" xlink:href="#ArialMT-30"/>
      </g>
     </g>
    </g>
    <g id="text_11">
     <!-- Free energy ($k_B T$) -->
     <defs>
      <path d="M 8.203125 0 
L 8.203125 71.578125 
L 56.5 71.578125 
L 56.5 63.140625 
L 17.671875 63.140625 
L 17.671875 40.96875 
L 51.265625 40.96875 
L 51.265625 32.515625 
L 17.671875 32.515625 
L 17.671875 0 
z
" id="ArialMT-46"/>
      <path d="M 6.5 0 
L 6.5 51.859375 
L 14.40625 51.859375 
L 14.40625 44 
Q 17.4375 49.515625 20 51.265625 
Q 22.5625 53.03125 25.640625 53.03125 
Q 30.078125 53.03125 34.671875 50.203125 
L 31.640625 42.046875 
Q 28.421875 43.953125 25.203125 43.953125 
Q 22.3125 43.953125 20.015625 42.21875 
Q 17.71875 40.484375 16.75 37.40625 
Q 15.28125 32.71875 15.28125 27.15625 
L 15.28125 0 
z
" id="ArialMT-72"/>
      <path d="M 42.09375 16.703125 
L 51.171875 15.578125 
Q 49.03125 7.625 43.21875 3.21875 
Q 37.40625 -1.171875 28.375 -1.171875 
Q 17 -1.171875 10.328125 5.828125 
Q 3.65625 12.84375 3.65625 25.484375 
Q 3.65625 38.578125 10.390625 45.796875 
Q 17.140625 53.03125 27.875 53.03125 
Q 38.28125 53.03125 44.875 45.953125 
Q 51.46875 38.875 51.46875 26.03125 
Q 51.46875 25.25 51.421875 23.6875 
L 12.75 23.6875 
Q 13.234375 15.140625 17.578125 10.59375 
Q 21.921875 6.0625 28.421875 6.0625 
Q 33.25 6.0625 36.671875 8.59375 
Q 40.09375 11.140625 42.09375 16.703125 
z
M 13.234375 30.90625 
L 42.1875 30.90625 
Q 41.609375 37.453125 38.875 40.71875 
Q 34.671875 45.796875 27.984375 45.796875 
Q 21.921875 45.796875 17.796875 41.75 
Q 13.671875 37.703125 13.234375 30.90625 
z
" id="ArialMT-65"/>
      <path id="ArialMT-20"/>
      <path d="M 6.59375 0 
L 6.59375 51.859375 
L 14.5 51.859375 
L 14.5 44.484375 
Q 20.21875 53.03125 31 53.03125 
Q 35.6875 53.03125 39.625 51.34375 
Q 43.5625 49.65625 45.515625 46.921875 
Q 47.46875 44.1875 48.25 40.4375 
Q 48.734375 37.984375 48.734375 31.890625 
L 48.734375 0 
L 39.9375 0 
L 39.9375 31.546875 
Q 39.9375 36.921875 38.90625 39.578125 
Q 37.890625 42.234375 35.28125 43.8125 
Q 32.671875 45.40625 29.15625 45.40625 
Q 23.53125 45.40625 19.453125 41.84375 
Q 15.375 38.28125 15.375 28.328125 
L 15.375 0 
z
" id="ArialMT-6e"/>
      <path d="M 4.984375 -4.296875 
L 13.53125 -5.5625 
Q 14.0625 -9.515625 16.5 -11.328125 
Q 19.78125 -13.765625 25.4375 -13.765625 
Q 31.546875 -13.765625 34.859375 -11.328125 
Q 38.1875 -8.890625 39.359375 -4.5 
Q 40.046875 -1.8125 39.984375 6.78125 
Q 34.234375 0 25.640625 0 
Q 14.9375 0 9.078125 7.71875 
Q 3.21875 15.4375 3.21875 26.21875 
Q 3.21875 33.640625 5.90625 39.90625 
Q 8.59375 46.1875 13.6875 49.609375 
Q 18.796875 53.03125 25.6875 53.03125 
Q 34.859375 53.03125 40.828125 45.609375 
L 40.828125 51.859375 
L 48.921875 51.859375 
L 48.921875 7.03125 
Q 48.921875 -5.078125 46.453125 -10.125 
Q 44 -15.1875 38.640625 -18.109375 
Q 33.296875 -21.046875 25.484375 -21.046875 
Q 16.21875 -21.046875 10.5 -16.875 
Q 4.78125 -12.703125 4.984375 -4.296875 
z
M 12.25 26.859375 
Q 12.25 16.65625 16.296875 11.96875 
Q 20.359375 7.28125 26.46875 7.28125 
Q 32.515625 7.28125 36.609375 11.9375 
Q 40.71875 16.609375 40.71875 26.5625 
Q 40.71875 36.078125 36.5 40.90625 
Q 32.28125 45.75 26.3125 45.75 
Q 20.453125 45.75 16.34375 40.984375 
Q 12.25 36.234375 12.25 26.859375 
z
" id="ArialMT-67"/>
      <path d="M 6.203125 -19.96875 
L 5.21875 -11.71875 
Q 8.109375 -12.5 10.25 -12.5 
Q 13.1875 -12.5 14.9375 -11.515625 
Q 16.703125 -10.546875 17.828125 -8.796875 
Q 18.65625 -7.46875 20.515625 -2.25 
Q 20.75 -1.515625 21.296875 -0.09375 
L 1.609375 51.859375 
L 11.078125 51.859375 
L 21.875 21.828125 
Q 23.96875 16.109375 25.640625 9.8125 
Q 27.15625 15.875 29.25 21.625 
L 40.328125 51.859375 
L 49.125 51.859375 
L 29.390625 -0.875 
Q 26.21875 -9.421875 24.46875 -12.640625 
Q 22.125 -17 19.09375 -19.015625 
Q 16.0625 -21.046875 11.859375 -21.046875 
Q 9.328125 -21.046875 6.203125 -19.96875 
z
" id="ArialMT-79"/>
      <path d="M 23.390625 -21.046875 
Q 16.109375 -11.859375 11.078125 0.4375 
Q 6.0625 12.75 6.0625 25.921875 
Q 6.0625 37.546875 9.8125 48.1875 
Q 14.203125 60.546875 23.390625 72.796875 
L 29.6875 72.796875 
Q 23.78125 62.640625 21.875 58.296875 
Q 18.890625 51.5625 17.1875 44.234375 
Q 15.09375 35.109375 15.09375 25.875 
Q 15.09375 2.390625 29.6875 -21.046875 
z
" id="ArialMT-28"/>
      <path d="M 18.3125 75.984375 
L 27.296875 75.984375 
L 18.703125 31.6875 
L 49.515625 54.6875 
L 61.1875 54.6875 
L 26.8125 28.515625 
L 51.90625 0 
L 41.015625 0 
L 17.671875 26.703125 
L 12.5 0 
L 3.515625 0 
z
" id="DejaVuSans-Oblique-6b"/>
      <path d="M 16.890625 72.90625 
L 42.09375 72.90625 
Q 52.34375 72.90625 57.421875 69.09375 
Q 62.5 65.28125 62.5 57.625 
Q 62.5 50.59375 58.125 45.484375 
Q 53.765625 40.375 46.6875 39.3125 
Q 52.734375 37.9375 55.765625 34.078125 
Q 58.796875 30.21875 58.796875 23.78125 
Q 58.796875 12.796875 50.65625 6.390625 
Q 42.53125 0 28.421875 0 
L 2.6875 0 
z
M 19.28125 34.8125 
L 14.109375 8.109375 
L 29.984375 8.109375 
Q 38.921875 8.109375 43.75 12.203125 
Q 48.578125 16.3125 48.578125 23.78125 
Q 48.578125 29.546875 45.375 32.171875 
Q 42.1875 34.8125 35.109375 34.8125 
z
M 25.09375 64.796875 
L 20.796875 42.828125 
L 35.5 42.828125 
Q 43.359375 42.828125 47.78125 46.234375 
Q 52.203125 49.65625 52.203125 55.71875 
Q 52.203125 60.453125 49.21875 62.625 
Q 46.234375 64.796875 39.703125 64.796875 
z
" id="DejaVuSans-Oblique-42"/>
      <path d="M 5.90625 72.90625 
L 67.578125 72.90625 
L 66.015625 64.59375 
L 39.984375 64.59375 
L 27.484375 0 
L 17.578125 0 
L 30.078125 64.59375 
L 4.296875 64.59375 
z
" id="DejaVuSans-Oblique-54"/>
      <path d="M 12.359375 -21.046875 
L 6.0625 -21.046875 
Q 20.65625 2.390625 20.65625 25.875 
Q 20.65625 35.0625 18.5625 44.09375 
Q 16.890625 51.421875 13.921875 58.15625 
Q 12.015625 62.546875 6.0625 72.796875 
L 12.359375 72.796875 
Q 21.53125 60.546875 25.921875 48.1875 
Q 29.6875 37.546875 29.6875 25.921875 
Q 29.6875 12.75 24.625 0.4375 
Q 19.578125 -11.859375 12.359375 -21.046875 
z
" id="ArialMT-29"/>
     </defs>
     <g style="fill:#262626;" transform="translate(21.948906 101.96)rotate(-90)scale(0.11 -0.11)">
      <use transform="translate(0 0.015625)" xlink:href="#ArialMT-46"/>
      <use transform="translate(61.083984 0.015625)" xlink:href="#ArialMT-72"/>
      <use transform="translate(94.384766 0.015625)" xlink:href="#ArialMT-65"/>
      <use transform="translate(150 0.015625)" xlink:href="#ArialMT-65"/>
      <use transform="translate(205.615234 0.015625)" xlink:href="#ArialMT-20"/>
      <use transform="translate(233.398438 0.015625)" xlink:href="#ArialMT-65"/>
      <use transform="translate(289.013672 0.015625)" xlink:href="#ArialMT-6e"/>
      <use transform="translate(344.628906 0.015625)" xlink:href="#ArialMT-65"/>
      <use transform="translate(400.244141 0.015625)" xlink:href="#ArialMT-72"/>
      <use transform="translate(433.544922 0.015625)" xlink:href="#ArialMT-67"/>
      <use transform="translate(489.160156 0.015625)" xlink:href="#ArialMT-79"/>
      <use transform="translate(539.160156 0.015625)" xlink:href="#ArialMT-20"/>
      <use transform="translate(566.943359 0.015625)" xlink:href="#ArialMT-28"/>
      <use transform="translate(600.244141 0.015625)" xlink:href="#DejaVuSans-Oblique-6b"/>
      <use transform="translate(658.154297 -16.390625)scale(0.7)" xlink:href="#DejaVuSans-Oblique-42"/>
      <use transform="translate(708.911133 0.015625)" xlink:href="#DejaVuSans-Oblique-54"/>
      <use transform="translate(769.995117 0.015625)" xlink:href="#ArialMT-29"/>
     </g>
    </g>
   </g>
   <g id="patch_3">
    <path d="M 53.72 101.92 
L 53.72 13.56 
" style="fill:none;stroke:#262626;stroke-linecap:square;stroke-linejoin:miter;stroke-width:0.8;"/>
   </g>
   <g id="patch_4">
    <path d="M 53.72 101.92 
L 130.44 101.92 
" style="fill:none;stroke:#262626;stroke-linecap:square;stroke-linejoin:miter;stroke-width:0.8;"/>
   </g>
   <g id="line2d_10">
    <path clip-path="url(#pc0d1b82733)" d="M 57.207273 17.576364 
L 57.904727 18.110593 
L 58.602182 18.644823 
L 59.299636 19.179053 
L 59.997091 19.713282 
L 60.694545 20.247512 
L 61.392 20.781742 
L 62.089455 21.315971 
L 62.786909 21.850201 
L 63.484364 22.384431 
L 64.181818 22.91866 
L 64.879273 23.45289 
L 65.576727 23.98712 
L 66.274182 24.521349 
L 66.971636 25.055579 
L 67.669091 25.589809 
L 68.366545 26.124039 
L 69.064 26.658268 
L 69.761455 27.192498 
L 70.458909 27.726728 
L 71.156364 28.260957 
L 71.853818 28.795187 
L 72.551273 29.329417 
L 73.248727 29.863646 
L 73.946182 30.397876 
L 74.643636 30.932106 
L 75.341091 31.466335 
L 76.038545 32.000565 
L 76.736 32.534795 
L 77.433455 33.069024 
L 78.130909 33.603254 
L 78.828364 34.137484 
L 79.525818 34.671713 
L 80.223273 35.205943 
L 80.920727 35.740173 
L 81.618182 36.274402 
L 82.315636 36.808632 
L 83.013091 37.342862 
L 83.710545 37.877092 
L 84.408 38.411321 
L 85.105455 38.945551 
L 85.802909 39.479781 
L 86.500364 40.01401 
L 87.197818 40.54824 
L 87.895273 41.08247 
L 88.592727 41.616699 
L 89.290182 42.150929 
L 89.987636 42.685159 
L 90.685091 43.219388 
L 91.382545 43.753618 
L 92.08 44.287848 
L 92.777455 44.822077 
L 93.474909 45.356307 
L 94.172364 45.890537 
L 94.869818 46.424766 
L 95.567273 46.958996 
L 96.264727 47.493226 
L 96.962182 48.027455 
L 97.659636 48.561685 
L 98.357091 49.095915 
L 99.054545 49.630144 
L 99.752 50.164374 
L 100.449455 50.698604 
L 101.146909 51.232834 
L 101.844364 51.767063 
L 102.541818 52.301293 
L 103.239273 52.835523 
L 103.936727 53.369752 
L 104.634182 53.903982 
L 105.331636 54.438212 
L 106.029091 54.972441 
L 106.726545 55.506671 
L 107.424 56.040901 
L 108.121455 56.57513 
L 108.818909 57.10936 
L 109.516364 57.64359 
L 110.213818 58.177819 
L 110.911273 58.712049 
L 111.608727 59.246279 
L 112.306182 59.780508 
L 113.003636 60.314738 
L 113.701091 60.848968 
L 114.398545 61.383197 
L 115.096 61.917427 
L 115.793455 62.451657 
L 116.490909 62.985886 
L 117.188364 63.520116 
L 117.885818 64.054346 
L 118.583273 64.588576 
L 119.280727 65.122805 
L 119.978182 65.657035 
L 120.675636 66.191265 
L 121.373091 66.725494 
L 122.070545 67.259724 
L 122.768 67.793954 
L 123.465455 68.328183 
L 124.162909 68.862413 
L 124.860364 69.396643 
L 125.557818 69.930872 
L 126.255273 70.465102 
L 126.952727 70.999332 
" style="fill:none;stroke:#b2182b;stroke-linecap:round;stroke-width:1.5;"/>
   </g>
   <g id="line2d_11">
    <path clip-path="url(#pc0d1b82733)" d="M 57.207273 53.727413 
L 57.904727 54.083566 
L 58.602182 54.439719 
L 59.299636 54.795872 
L 59.997091 55.152025 
L 60.694545 55.508179 
L 61.392 55.864332 
L 62.089455 56.220485 
L 62.786909 56.576638 
L 63.484364 56.932791 
L 64.181818 57.288944 
L 64.879273 57.645097 
L 65.576727 58.00125 
L 66.274182 58.357403 
L 66.971636 58.713557 
L 67.669091 59.06971 
L 68.366545 59.425863 
L 69.064 59.782016 
L 69.761455 60.138169 
L 70.458909 60.494322 
L 71.156364 60.850475 
L 71.853818 61.206628 
L 72.551273 61.562782 
L 73.248727 61.918935 
L 73.946182 62.275088 
L 74.643636 62.631241 
L 75.341091 62.987394 
L 76.038545 63.343547 
L 76.736 63.6997 
L 77.433455 64.055853 
L 78.130909 64.412007 
L 78.828364 64.76816 
L 79.525818 65.124313 
L 80.223273 65.480466 
L 80.920727 65.836619 
L 81.618182 66.192772 
L 82.315636 66.548925 
L 83.013091 66.905078 
L 83.710545 67.261231 
L 84.408 67.617385 
L 85.105455 67.973538 
L 85.802909 68.329691 
L 86.500364 68.685844 
L 87.197818 69.041997 
L 87.895273 69.39815 
L 88.592727 69.754303 
L 89.290182 70.110456 
L 89.987636 70.46661 
L 90.685091 70.822763 
L 91.382545 71.178916 
L 92.08 71.535069 
L 92.777455 71.891222 
L 93.474909 72.247375 
L 94.172364 72.603528 
L 94.869818 72.959681 
L 95.567273 73.315835 
L 96.264727 73.671988 
L 96.962182 74.028141 
L 97.659636 74.384294 
L 98.357091 74.740447 
L 99.054545 75.0966 
L 99.752 75.452753 
L 100.449455 75.808906 
L 101.146909 76.165059 
L 101.844364 76.521213 
L 102.541818 76.877366 
L 103.239273 77.233519 
L 103.936727 77.589672 
L 104.634182 77.945825 
L 105.331636 78.301978 
L 106.029091 78.658131 
L 106.726545 79.014284 
L 107.424 79.370438 
L 108.121455 79.726591 
L 108.818909 80.082744 
L 109.516364 80.438897 
L 110.213818 80.79505 
L 110.911273 81.151203 
L 111.608727 81.507356 
L 112.306182 81.863509 
L 113.003636 82.219663 
L 113.701091 82.575816 
L 114.398545 82.931969 
L 115.096 83.288122 
L 115.793455 83.644275 
L 116.490909 84.000428 
L 117.188364 84.356581 
L 117.885818 84.712734 
L 118.583273 85.068888 
L 119.280727 85.425041 
L 119.978182 85.781194 
L 120.675636 86.137347 
L 121.373091 86.4935 
L 122.070545 86.849653 
L 122.768 87.205806 
L 123.465455 87.561959 
L 124.162909 87.918112 
L 124.860364 88.274266 
L 125.557818 88.630419 
L 126.255273 88.986572 
L 126.952727 89.342725 
" style="fill:none;stroke:#d6604d;stroke-linecap:round;stroke-width:1.5;"/>
   </g>
   <g id="line2d_12">
    <path clip-path="url(#pc0d1b82733)" d="M 57.207273 67.766834 
L 57.904727 67.410681 
L 58.602182 67.054528 
L 59.299636 66.698375 
L 59.997091 66.342221 
L 60.694545 65.986068 
L 61.392 65.629915 
L 62.089455 65.273762 
L 62.786909 64.917609 
L 63.484364 64.561456 
L 64.181818 64.205303 
L 64.879273 63.84915 
L 65.576727 63.492997 
L 66.274182 63.136843 
L 66.971636 62.78069 
L 67.669091 62.424537 
L 68.366545 62.068384 
L 69.064 61.712231 
L 69.761455 61.356078 
L 70.458909 60.999925 
L 71.156364 60.643772 
L 71.853818 60.287618 
L 72.551273 59.931465 
L 73.248727 59.575312 
L 73.946182 59.219159 
L 74.643636 58.863006 
L 75.341091 58.506853 
L 76.038545 58.1507 
L 76.736 57.794547 
L 77.433455 57.438393 
L 78.130909 57.08224 
L 78.828364 56.726087 
L 79.525818 56.369934 
L 80.223273 56.013781 
L 80.920727 55.657628 
L 81.618182 55.301475 
L 82.315636 54.945322 
L 83.013091 54.589168 
L 83.710545 54.233015 
L 84.408 53.876862 
L 85.105455 53.520709 
L 85.802909 53.164556 
L 86.500364 52.808403 
L 87.197818 52.45225 
L 87.895273 52.096097 
L 88.592727 51.739944 
L 89.290182 51.38379 
L 89.987636 51.027637 
L 90.685091 50.671484 
L 91.382545 50.315331 
L 92.08 49.959178 
L 92.777455 49.603025 
L 93.474909 49.246872 
L 94.172364 48.890719 
L 94.869818 48.534565 
L 95.567273 48.178412 
L 96.264727 47.822259 
L 96.962182 47.466106 
L 97.659636 47.109953 
L 98.357091 46.7538 
L 99.054545 46.397647 
L 99.752 46.041494 
L 100.449455 45.68534 
L 101.146909 45.329187 
L 101.844364 44.973034 
L 102.541818 44.616881 
L 103.239273 44.260728 
L 103.936727 43.904575 
L 104.634182 43.548422 
L 105.331636 43.192269 
L 106.029091 42.836116 
L 106.726545 42.479962 
L 107.424 42.123809 
L 108.121455 41.767656 
L 108.818909 41.411503 
L 109.516364 41.05535 
L 110.213818 40.699197 
L 110.911273 40.343044 
L 111.608727 39.986891 
L 112.306182 39.630737 
L 113.003636 39.274584 
L 113.701091 38.918431 
L 114.398545 38.562278 
L 115.096 38.206125 
L 115.793455 37.849972 
L 116.490909 37.493819 
L 117.188364 37.137666 
L 117.885818 36.781512 
L 118.583273 36.425359 
L 119.280727 36.069206 
L 119.978182 35.713053 
L 120.675636 35.3569 
L 121.373091 35.000747 
L 122.070545 34.644594 
L 122.768 34.288441 
L 123.465455 33.932288 
L 124.162909 33.576134 
L 124.860364 33.219981 
L 125.557818 32.863828 
L 126.255273 32.507675 
L 126.952727 32.151522 
" style="fill:none;stroke:#4393c3;stroke-linecap:round;stroke-width:1.5;"/>
   </g>
   <g id="line2d_13">
    <path clip-path="url(#pc0d1b82733)" d="M 57.207273 80.09598 
L 57.904727 80.274057 
L 58.602182 80.452133 
L 59.299636 80.63021 
L 59.997091 80.808287 
L 60.694545 80.986363 
L 61.392 81.16444 
L 62.089455 81.342516 
L 62.786909 81.520593 
L 63.484364 81.698669 
L 64.181818 81.876746 
L 64.879273 82.054823 
L 65.576727 82.232899 
L 66.274182 82.410976 
L 66.971636 82.589052 
L 67.669091 82.767129 
L 68.366545 82.945205 
L 69.064 83.123282 
L 69.761455 83.301358 
L 70.458909 83.479435 
L 71.156364 83.657512 
L 71.853818 83.835588 
L 72.551273 84.013665 
L 73.248727 84.191741 
L 73.946182 84.369818 
L 74.643636 84.547894 
L 75.341091 84.725971 
L 76.038545 84.904047 
L 76.736 85.082124 
L 77.433455 85.260201 
L 78.130909 85.438277 
L 78.828364 85.616354 
L 79.525818 85.79443 
L 80.223273 85.972507 
L 80.920727 86.150583 
L 81.618182 86.32866 
L 82.315636 86.506737 
L 83.013091 86.684813 
L 83.710545 86.86289 
L 84.408 87.040966 
L 85.105455 87.219043 
L 85.802909 87.397119 
L 86.500364 87.575196 
L 87.197818 87.753272 
L 87.895273 87.931349 
L 88.592727 88.109426 
L 89.290182 88.287502 
L 89.987636 88.465579 
L 90.685091 88.643655 
L 91.382545 88.821732 
L 92.08 88.999808 
L 92.777455 89.177885 
L 93.474909 89.355961 
L 94.172364 89.534038 
L 94.869818 89.712115 
L 95.567273 89.890191 
L 96.264727 90.068268 
L 96.962182 90.246344 
L 97.659636 90.424421 
L 98.357091 90.602497 
L 99.054545 90.780574 
L 99.752 90.958651 
L 100.449455 91.136727 
L 101.146909 91.314804 
L 101.844364 91.49288 
L 102.541818 91.670957 
L 103.239273 91.849033 
L 103.936727 92.02711 
L 104.634182 92.205186 
L 105.331636 92.383263 
L 106.029091 92.56134 
L 106.726545 92.739416 
L 107.424 92.917493 
L 108.121455 93.095569 
L 108.818909 93.273646 
L 109.516364 93.451722 
L 110.213818 93.629799 
L 110.911273 93.807875 
L 111.608727 93.985952 
L 112.306182 94.164029 
L 113.003636 94.342105 
L 113.701091 94.520182 
L 114.398545 94.698258 
L 115.096 94.876335 
L 115.793455 95.054411 
L 116.490909 95.232488 
L 117.188364 95.410565 
L 117.885818 95.588641 
L 118.583273 95.766718 
L 119.280727 95.944794 
L 119.978182 96.122871 
L 120.675636 96.300947 
L 121.373091 96.479024 
L 122.070545 96.6571 
L 122.768 96.835177 
L 123.465455 97.013254 
L 124.162909 97.19133 
L 124.860364 97.369407 
L 125.557818 97.547483 
L 126.255273 97.72556 
L 126.952727 97.903636 
" style="fill:none;stroke:#f4a582;stroke-linecap:round;stroke-width:1.5;"/>
   </g>
   <g id="line2d_14">
    <path clip-path="url(#pc0d1b82733)" d="M 57.207273 81.603384 
L 57.904727 81.425308 
L 58.602182 81.247231 
L 59.299636 81.069155 
L 59.997091 80.891078 
L 60.694545 80.713001 
L 61.392 80.534925 
L 62.089455 80.356848 
L 62.786909 80.178772 
L 63.484364 80.000695 
L 64.181818 79.822619 
L 64.879273 79.644542 
L 65.576727 79.466465 
L 66.274182 79.288389 
L 66.971636 79.110312 
L 67.669091 78.932236 
L 68.366545 78.754159 
L 69.064 78.576083 
L 69.761455 78.398006 
L 70.458909 78.21993 
L 71.156364 78.041853 
L 71.853818 77.863776 
L 72.551273 77.6857 
L 73.248727 77.507623 
L 73.946182 77.329547 
L 74.643636 77.15147 
L 75.341091 76.973394 
L 76.038545 76.795317 
L 76.736 76.617241 
L 77.433455 76.439164 
L 78.130909 76.261087 
L 78.828364 76.083011 
L 79.525818 75.904934 
L 80.223273 75.726858 
L 80.920727 75.548781 
L 81.618182 75.370705 
L 82.315636 75.192628 
L 83.013091 75.014551 
L 83.710545 74.836475 
L 84.408 74.658398 
L 85.105455 74.480322 
L 85.802909 74.302245 
L 86.500364 74.124169 
L 87.197818 73.946092 
L 87.895273 73.768016 
L 88.592727 73.589939 
L 89.290182 73.411862 
L 89.987636 73.233786 
L 90.685091 73.055709 
L 91.382545 72.877633 
L 92.08 72.699556 
L 92.777455 72.52148 
L 93.474909 72.343403 
L 94.172364 72.165327 
L 94.869818 71.98725 
L 95.567273 71.809173 
L 96.264727 71.631097 
L 96.962182 71.45302 
L 97.659636 71.274944 
L 98.357091 71.096867 
L 99.054545 70.918791 
L 99.752 70.740714 
L 100.449455 70.562637 
L 101.146909 70.384561 
L 101.844364 70.206484 
L 102.541818 70.028408 
L 103.239273 69.850331 
L 103.936727 69.672255 
L 104.634182 69.494178 
L 105.331636 69.316102 
L 106.029091 69.138025 
L 106.726545 68.959948 
L 107.424 68.781872 
L 108.121455 68.603795 
L 108.818909 68.425719 
L 109.516364 68.247642 
L 110.213818 68.069566 
L 110.911273 67.891489 
L 111.608727 67.713413 
L 112.306182 67.535336 
L 113.003636 67.357259 
L 113.701091 67.179183 
L 114.398545 67.001106 
L 115.096 66.82303 
L 115.793455 66.644953 
L 116.490909 66.466877 
L 117.188364 66.2888 
L 117.885818 66.110723 
L 118.583273 65.932647 
L 119.280727 65.75457 
L 119.978182 65.576494 
L 120.675636 65.398417 
L 121.373091 65.220341 
L 122.070545 65.042264 
L 122.768 64.864188 
L 123.465455 64.686111 
L 124.162909 64.508034 
L 124.860364 64.329958 
L 125.557818 64.151881 
L 126.255273 63.973805 
L 126.952727 63.795728 
" style="fill:none;stroke:#92c5de;stroke-linecap:round;stroke-width:1.5;"/>
   </g>
   <g id="line2d_15">
    <path clip-path="url(#pc0d1b82733)" d="M 57.207273 92.892761 
L 57.904727 92.892761 
L 58.602182 92.892761 
L 59.299636 92.892761 
L 59.997091 92.892761 
L 60.694545 92.892761 
L 61.392 92.892761 
L 62.089455 92.892761 
L 62.786909 92.892761 
L 63.484364 92.892761 
L 64.181818 92.892761 
L 64.879273 92.892761 
L 65.576727 92.892761 
L 66.274182 92.892761 
L 66.971636 92.892761 
L 67.669091 92.892761 
L 68.366545 92.892761 
L 69.064 92.892761 
L 69.761455 92.892761 
L 70.458909 92.892761 
L 71.156364 92.892761 
L 71.853818 92.892761 
L 72.551273 92.892761 
L 73.248727 92.892761 
L 73.946182 92.892761 
L 74.643636 92.892761 
L 75.341091 92.892761 
L 76.038545 92.892761 
L 76.736 92.892761 
L 77.433455 92.892761 
L 78.130909 92.892761 
L 78.828364 92.892761 
L 79.525818 92.892761 
L 80.223273 92.892761 
L 80.920727 92.892761 
L 81.618182 92.892761 
L 82.315636 92.892761 
L 83.013091 92.892761 
L 83.710545 92.892761 
L 84.408 92.892761 
L 85.105455 92.892761 
L 85.802909 92.892761 
L 86.500364 92.892761 
L 87.197818 92.892761 
L 87.895273 92.892761 
L 88.592727 92.892761 
L 89.290182 92.892761 
L 89.987636 92.892761 
L 90.685091 92.892761 
L 91.382545 92.892761 
L 92.08 92.892761 
L 92.777455 92.892761 
L 93.474909 92.892761 
L 94.172364 92.892761 
L 94.869818 92.892761 
L 95.567273 92.892761 
L 96.264727 92.892761 
L 96.962182 92.892761 
L 97.659636 92.892761 
L 98.357091 92.892761 
L 99.054545 92.892761 
L 99.752 92.892761 
L 100.449455 92.892761 
L 101.146909 92.892761 
L 101.844364 92.892761 
L 102.541818 92.892761 
L 103.239273 92.892761 
L 103.936727 92.892761 
L 104.634182 92.892761 
L 105.331636 92.892761 
L 106.029091 92.892761 
L 106.726545 92.892761 
L 107.424 92.892761 
L 108.121455 92.892761 
L 108.818909 92.892761 
L 109.516364 92.892761 
L 110.213818 92.892761 
L 110.911273 92.892761 
L 111.608727 92.892761 
L 112.306182 92.892761 
L 113.003636 92.892761 
L 113.701091 92.892761 
L 114.398545 92.892761 
L 115.096 92.892761 
L 115.793455 92.892761 
L 116.490909 92.892761 
L 117.188364 92.892761 
L 117.885818 92.892761 
L 118.583273 92.892761 
L 119.280727 92.892761 
L 119.978182 92.892761 
L 120.675636 92.892761 
L 121.373091 92.892761 
L 122.070545 92.892761 
L 122.768 92.892761 
L 123.465455 92.892761 
L 124.162909 92.892761 
L 124.860364 92.892761 
L 125.557818 92.892761 
L 126.255273 92.892761 
L 126.952727 92.892761 
" style="fill:none;stroke:#333333;stroke-linecap:round;stroke-width:1.5;"/>
   </g>
  </g>
 </g>
 <defs>
  <clipPath id="pc0d1b82733">
   <rect height="88.36" width="76.72" x="53.72" y="13.56"/>
  </clipPath>
 </defs>
</svg>
