<?xml version="1.0" encoding="utf-8" standalone="no"?>
<!DOCTYPE svg PUBLIC "-//W3C//DTD SVG 1.1//EN"
  "http://www.w3.org/Graphics/SVG/1.1/DTD/svg11.dtd">
<!-- Created with matplotlib (http://matplotlib.org/) -->
<svg height="144pt" version="1.1" viewBox="0 0 144 144" width="144pt" xmlns="http://www.w3.org/2000/svg" xmlns:xlink="http://www.w3.org/1999/xlink">
 <defs>
  <style type="text/css">
*{stroke-linecap:butt;stroke-linejoin:round;}
  </style>
 </defs>
 <g id="figure_1">
  <g id="patch_1">
   <path d="M 0 144 
L 144 144 
L 144 0 
L 0 0 
z
" style="fill:#ffffff;"/>
  </g>
  <g id="axes_1">
   <g id="patch_2">
    <path d="M 48.38 101.92 
L 130.44 101.92 
L 130.44 27.48 
L 48.38 27.48 
z
" style="fill:#ffffff;"/>
   </g>
   <g id="matplotlib.axis_1">
    <g id="xtick_1">
     <g id="line2d_1">
      <defs>
       <path d="M 0 0 
L 0 3.5 
" id="mc5b93fa43a" style="stroke:#262626;stroke-width:0.8;"/>
      </defs>
      <g>
       <use style="fill:#262626;stroke:#262626;stroke-width:0.8;" x="52.11" xlink:href="#mc5b93fa43a" y="101.92"/>
      </g>
     </g>
     <g id="text_1">
      <!-- 2 -->
      <defs>
       <path d="M 50.34375 8.453125 
L 50.34375 0 
L 3.03125 0 
Q 2.9375 3.171875 4.046875 6.109375 
Q 5.859375 10.9375 9.828125 15.625 
Q 13.8125 20.3125 21.34375 26.46875 
Q 33.015625 36.03125 37.109375 41.625 
Q 41.21875 47.21875 41.21875 52.203125 
Q 41.21875 57.421875 37.46875 61 
Q 33.734375 64.59375 27.734375 64.59375 
Q 21.390625 64.59375 17.578125 60.78125 
Q 13.765625 56.984375 13.71875 50.25 
L 4.6875 51.171875 
Q 5.609375 61.28125 11.65625 66.578125 
Q 17.71875 71.875 27.9375 71.875 
Q 38.234375 71.875 44.234375 66.15625 
Q 50.25 60.453125 50.25 52 
Q 50.25 47.703125 48.484375 43.546875 
Q 46.734375 39.40625 42.65625 34.8125 
Q 38.578125 30.21875 29.109375 22.21875 
Q 21.1875 15.578125 18.9375 13.203125 
Q 16.703125 10.84375 15.234375 8.453125 
z
" id="ArialMT-32"/>
      </defs>
      <g style="fill:#262626;" transform="translate(49.051484 116.793594)scale(0.11 -0.11)">
       <use xlink:href="#ArialMT-32"/>
      </g>
     </g>
    </g>
    <g id="xtick_2">
     <g id="line2d_2">
      <g>
       <use style="fill:#262626;stroke:#262626;stroke-width:0.8;" x="67.03" xlink:href="#mc5b93fa43a" y="101.92"/>
      </g>
     </g>
     <g id="text_2">
      <!-- 4 -->
      <defs>
       <path d="M 32.328125 0 
L 32.328125 17.140625 
L 1.265625 17.140625 
L 1.265625 25.203125 
L 33.9375 71.578125 
L 41.109375 71.578125 
L 41.109375 25.203125 
L 50.78125 25.203125 
L 50.78125 17.140625 
L 41.109375 17.140625 
L 41.109375 0 
z
M 32.328125 25.203125 
L 32.328125 57.46875 
L 9.90625 25.203125 
z
" id="ArialMT-34"/>
      </defs>
      <g style="fill:#262626;" transform="translate(63.971484 116.793594)scale(0.11 -0.11)">
       <use xlink:href="#ArialMT-34"/>
      </g>
     </g>
    </g>
    <g id="xtick_3">
     <g id="line2d_3">
      <g>
       <use style="fill:#262626;stroke:#262626;stroke-width:0.8;" x="81.95" xlink:href="#mc5b93fa43a" y="101.92"/>
      </g>
     </g>
     <g id="text_3">
      <!-- 6 -->
      <defs>
       <path d="M 49.75 54.046875 
L 41.015625 53.375 
Q 39.84375 58.546875 37.703125 60.890625 
Q 34.125 64.65625 28.90625 64.65625 
Q 24.703125 64.65625 21.53125 62.3125 
Q 17.390625 59.28125 14.984375 53.46875 
Q 12.59375 47.65625 12.5 36.921875 
Q 15.671875 41.75 20.265625 44.09375 
Q 24.859375 46.4375 29.890625 46.4375 
Q 38.671875 46.4375 44.84375 39.96875 
Q 51.03125 33.5 51.03125 23.25 
Q 51.03125 16.5 48.125 10.71875 
Q 45.21875 4.9375 40.140625 1.859375 
Q 35.0625 -1.21875 28.609375 -1.21875 
Q 17.625 -1.21875 10.6875 6.859375 
Q 3.765625 14.9375 3.765625 33.5 
Q 3.765625 54.25 11.421875 63.671875 
Q 18.109375 71.875 29.4375 71.875 
Q 37.890625 71.875 43.28125 67.140625 
Q 48.6875 62.40625 49.75 54.046875 
z
M 13.875 23.1875 
Q 13.875 18.65625 15.796875 14.5 
Q 17.71875 10.359375 21.1875 8.171875 
Q 24.65625 6 28.46875 6 
Q 34.03125 6 38.03125 10.484375 
Q 42.046875 14.984375 42.046875 22.703125 
Q 42.046875 30.125 38.078125 34.390625 
Q 34.125 38.671875 28.125 38.671875 
Q 22.171875 38.671875 18.015625 34.390625 
Q 13.875 30.125 13.875 23.1875 
z
" id="ArialMT-36"/>
      </defs>
      <g style="fill:#262626;" transform="translate(78.891484 116.793594)scale(0.11 -0.11)">
       <use xlink:href="#ArialMT-36"/>
      </g>
     </g>
    </g>
    <g id="xtick_4">
     <g id="line2d_4">
      <g>
       <use style="fill:#262626;stroke:#262626;stroke-width:0.8;" x="96.87" xlink:href="#mc5b93fa43a" y="101.92"/>
      </g>
     </g>
     <g id="text_4">
      <!-- 8 -->
      <defs>
       <path d="M 17.671875 38.8125 
Q 12.203125 40.828125 9.5625 44.53125 
Q 6.9375 48.25 6.9375 53.421875 
Q 6.9375 61.234375 12.546875 66.546875 
Q 18.171875 71.875 27.484375 71.875 
Q 36.859375 71.875 42.578125 66.421875 
Q 48.296875 60.984375 48.296875 53.171875 
Q 48.296875 48.1875 45.671875 44.5 
Q 43.0625 40.828125 37.75 38.8125 
Q 44.34375 36.671875 47.78125 31.875 
Q 51.21875 27.09375 51.21875 20.453125 
Q 51.21875 11.28125 44.71875 5.03125 
Q 38.234375 -1.21875 27.640625 -1.21875 
Q 17.046875 -1.21875 10.546875 5.046875 
Q 4.046875 11.328125 4.046875 20.703125 
Q 4.046875 27.6875 7.59375 32.390625 
Q 11.140625 37.109375 17.671875 38.8125 
z
M 15.921875 53.71875 
Q 15.921875 48.640625 19.1875 45.40625 
Q 22.46875 42.1875 27.6875 42.1875 
Q 32.765625 42.1875 36.015625 45.375 
Q 39.265625 48.578125 39.265625 53.21875 
Q 39.265625 58.0625 35.90625 61.359375 
Q 32.5625 64.65625 27.59375 64.65625 
Q 22.5625 64.65625 19.234375 61.421875 
Q 15.921875 58.203125 15.921875 53.71875 
z
M 13.09375 20.65625 
Q 13.09375 16.890625 14.875 13.375 
Q 16.65625 9.859375 20.171875 7.921875 
Q 23.6875 6 27.734375 6 
Q 34.03125 6 38.125 10.046875 
Q 42.234375 14.109375 42.234375 20.359375 
Q 42.234375 26.703125 38.015625 30.859375 
Q 33.796875 35.015625 27.4375 35.015625 
Q 21.234375 35.015625 17.15625 30.90625 
Q 13.09375 26.8125 13.09375 20.65625 
z
" id="ArialMT-38"/>
      </defs>
      <g style="fill:#262626;" transform="translate(93.811484 116.793594)scale(0.11 -0.11)">
       <use xlink:href="#ArialMT-38"/>
      </g>
     </g>
    </g>
    <g id="xtick_5">
     <g id="line2d_5">
      <g>
       <use style="fill:#262626;stroke:#262626;stroke-width:0.8;" x="111.79" xlink:href="#mc5b93fa43a" y="101.92"/>
      </g>
     </g>
     <g id="text_5">
      <!-- 10 -->
      <defs>
       <path d="M 37.25 0 
L 28.46875 0 
L 28.46875 56 
Q 25.296875 52.984375 20.140625 49.953125 
Q 14.984375 46.921875 10.890625 45.40625 
L 10.890625 53.90625 
Q 18.265625 57.375 23.78125 62.296875 
Q 29.296875 67.234375 31.59375 71.875 
L 37.25 71.875 
z
" id="ArialMT-31"/>
       <path d="M 4.15625 35.296875 
Q 4.15625 48 6.765625 55.734375 
Q 9.375 63.484375 14.515625 67.671875 
Q 19.671875 71.875 27.484375 71.875 
Q 33.25 71.875 37.59375 69.546875 
Q 41.9375 67.234375 44.765625 62.859375 
Q 47.609375 58.5 49.21875 52.21875 
Q 50.828125 45.953125 50.828125 35.296875 
Q 50.828125 22.703125 48.234375 14.96875 
Q 45.65625 7.234375 40.5 3 
Q 35.359375 -1.21875 27.484375 -1.21875 
Q 17.140625 -1.21875 11.234375 6.203125 
Q 4.15625 15.140625 4.15625 35.296875 
z
M 13.1875 35.296875 
Q 13.1875 17.671875 17.3125 11.828125 
Q 21.4375 6 27.484375 6 
Q 33.546875 6 37.671875 11.859375 
Q 41.796875 17.71875 41.796875 35.296875 
Q 41.796875 52.984375 37.671875 58.78125 
Q 33.546875 64.59375 27.390625 64.59375 
Q 21.34375 64.59375 17.71875 59.46875 
Q 13.1875 52.9375 13.1875 35.296875 
z
" id="ArialMT-30"/>
      </defs>
      <g style="fill:#262626;" transform="translate(105.672969 116.793594)scale(0.11 -0.11)">
       <use xlink:href="#ArialMT-31"/>
       <use x="55.615234" xlink:href="#ArialMT-30"/>
      </g>
     </g>
    </g>
    <g id="xtick_6">
     <g id="line2d_6">
      <g>
       <use style="fill:#262626;stroke:#262626;stroke-width:0.8;" x="126.71" xlink:href="#mc5b93fa43a" y="101.92"/>
      </g>
     </g>
     <g id="text_6">
      <!-- 12 -->
      <g style="fill:#262626;" transform="translate(120.592969 116.793594)scale(0.11 -0.11)">
       <use xlink:href="#ArialMT-31"/>
       <use x="55.615234" xlink:href="#ArialMT-32"/>
      </g>
     </g>
    </g>
    <g id="text_7">
     <!-- pH -->
     <defs>
      <path d="M 6.59375 -19.875 
L 6.59375 51.859375 
L 14.59375 51.859375 
L 14.59375 45.125 
Q 17.4375 49.078125 21 51.046875 
Q 24.5625 53.03125 29.640625 53.03125 
Q 36.28125 53.03125 41.359375 49.609375 
Q 46.4375 46.1875 49.015625 39.953125 
Q 51.609375 33.734375 51.609375 26.3125 
Q 51.609375 18.359375 48.75 11.984375 
Q 45.90625 5.609375 40.453125 2.21875 
Q 35.015625 -1.171875 29 -1.171875 
Q 24.609375 -1.171875 21.109375 0.6875 
Q 17.625 2.546875 15.375 5.375 
L 15.375 -19.875 
z
M 14.546875 25.640625 
Q 14.546875 15.625 18.59375 10.84375 
Q 22.65625 6.0625 28.421875 6.0625 
Q 34.28125 6.0625 38.453125 11.015625 
Q 42.625 15.96875 42.625 26.375 
Q 42.625 36.28125 38.546875 41.203125 
Q 34.46875 46.140625 28.8125 46.140625 
Q 23.1875 46.140625 18.859375 40.890625 
Q 14.546875 35.640625 14.546875 25.640625 
z
" id="ArialMT-70"/>
      <path d="M 8.015625 0 
L 8.015625 71.578125 
L 17.484375 71.578125 
L 17.484375 42.1875 
L 54.6875 42.1875 
L 54.6875 71.578125 
L 64.15625 71.578125 
L 64.15625 0 
L 54.6875 0 
L 54.6875 33.734375 
L 17.484375 33.734375 
L 17.484375 0 
z
" id="ArialMT-48"/>
     </defs>
     <g style="fill:#262626;" transform="translate(82.379453 130.853437)scale(0.11 -0.11)">
      <use xlink:href="#ArialMT-70"/>
      <use x="55.615234" xlink:href="#ArialMT-48"/>
     </g>
    </g>
   </g>
   <g id="matplotlib.axis_2">
    <g id="ytick_1">
     <g id="line2d_7">
      <defs>
       <path d="M 0 0 
L -3.5 0 
" id="mb1de20425a" style="stroke:#262626;stroke-width:0.8;"/>
      </defs>
      <g>
       <use style="fill:#262626;stroke:#262626;stroke-width:0.8;" x="48.38" xlink:href="#mb1de20425a" y="98.554966"/>
      </g>
     </g>
     <g id="text_8">
      <!-- −1 -->
      <defs>
       <path d="M 52.828125 31.203125 
L 5.5625 31.203125 
L 5.5625 39.40625 
L 52.828125 39.40625 
z
" id="ArialMT-2212"/>
      </defs>
      <g style="fill:#262626;" transform="translate(28.838281 102.491763)scale(0.11 -0.11)">
       <use xlink:href="#ArialMT-2212"/>
       <use x="58.398438" xlink:href="#ArialMT-31"/>
      </g>
     </g>
    </g>
    <g id="ytick_2">
     <g id="line2d_8">
      <g>
       <use style="fill:#262626;stroke:#262626;stroke-width:0.8;" x="48.38" xlink:href="#mb1de20425a" y="64.685414"/>
      </g>
     </g>
     <g id="text_9">
      <!-- 0 -->
      <g style="fill:#262626;" transform="translate(35.262969 68.622211)scale(0.11 -0.11)">
       <use xlink:href="#ArialMT-30"/>
      </g>
     </g>
    </g>
    <g id="ytick_3">
     <g id="line2d_9">
      <g>
       <use style="fill:#262626;stroke:#262626;stroke-width:0.8;" x="48.38" xlink:href="#mb1de20425a" y="30.815862"/>
      </g>
     </g>
     <g id="text_10">
      <!-- 1 -->
      <g style="fill:#262626;" transform="translate(35.262969 34.752659)scale(0.11 -0.11)">
       <use xlink:href="#ArialMT-31"/>
      </g>
     </g>
    </g>
    <g id="text_11">
     <!-- $\langle q_\mathsf{total} \rangle$ -->
     <defs>
      <path d="M 8.9375 31.34375 
L 22.703125 75.875 
L 31 75.875 
L 17.234375 31.34375 
L 31 -13.1875 
L 22.703125 -13.1875 
z
" id="DejaVuSans-27e8"/>
      <path d="M 41.703125 8.203125 
Q 38.09375 3.46875 33.171875 1.015625 
Q 28.265625 -1.421875 22.3125 -1.421875 
Q 14.015625 -1.421875 9.296875 4.171875 
Q 4.59375 9.765625 4.59375 19.578125 
Q 4.59375 27.484375 7.5 34.859375 
Q 10.40625 42.234375 15.828125 48.09375 
Q 19.34375 51.90625 23.90625 53.953125 
Q 28.46875 56 33.5 56 
Q 39.546875 56 43.453125 53.609375 
Q 47.359375 51.21875 49.125 46.390625 
L 50.6875 54.59375 
L 59.71875 54.59375 
L 45.125 -20.609375 
L 36.078125 -20.609375 
z
M 13.921875 20.90625 
Q 13.921875 13.671875 16.9375 9.890625 
Q 19.96875 6.109375 25.6875 6.109375 
Q 34.1875 6.109375 40.1875 14.234375 
Q 46.1875 22.359375 46.1875 33.984375 
Q 46.1875 41.015625 43.078125 44.75 
Q 39.984375 48.484375 34.1875 48.484375 
Q 29.9375 48.484375 26.3125 46.5 
Q 22.703125 44.53125 20.015625 40.71875 
Q 17.1875 36.71875 15.546875 31.34375 
Q 13.921875 25.984375 13.921875 20.90625 
z
" id="DejaVuSans-Oblique-71"/>
      <path d="M 18.3125 70.21875 
L 18.3125 54.6875 
L 36.8125 54.6875 
L 36.8125 47.703125 
L 18.3125 47.703125 
L 18.3125 18.015625 
Q 18.3125 11.328125 20.140625 9.421875 
Q 21.96875 7.515625 27.59375 7.515625 
L 36.8125 7.515625 
L 36.8125 0 
L 27.59375 0 
Q 17.1875 0 13.234375 3.875 
Q 9.28125 7.765625 9.28125 18.015625 
L 9.28125 47.703125 
L 2.6875 47.703125 
L 2.6875 54.6875 
L 9.28125 54.6875 
L 9.28125 70.21875 
z
" id="DejaVuSans-74"/>
      <path d="M 30.609375 48.390625 
Q 23.390625 48.390625 19.1875 42.75 
Q 14.984375 37.109375 14.984375 27.296875 
Q 14.984375 17.484375 19.15625 11.84375 
Q 23.34375 6.203125 30.609375 6.203125 
Q 37.796875 6.203125 41.984375 11.859375 
Q 46.1875 17.53125 46.1875 27.296875 
Q 46.1875 37.015625 41.984375 42.703125 
Q 37.796875 48.390625 30.609375 48.390625 
z
M 30.609375 56 
Q 42.328125 56 49.015625 48.375 
Q 55.71875 40.765625 55.71875 27.296875 
Q 55.71875 13.875 49.015625 6.21875 
Q 42.328125 -1.421875 30.609375 -1.421875 
Q 18.84375 -1.421875 12.171875 6.21875 
Q 5.515625 13.875 5.515625 27.296875 
Q 5.515625 40.765625 12.171875 48.375 
Q 18.84375 56 30.609375 56 
z
" id="DejaVuSans-6f"/>
      <path d="M 34.28125 27.484375 
Q 23.390625 27.484375 19.1875 25 
Q 14.984375 22.515625 14.984375 16.5 
Q 14.984375 11.71875 18.140625 8.90625 
Q 21.296875 6.109375 26.703125 6.109375 
Q 34.1875 6.109375 38.703125 11.40625 
Q 43.21875 16.703125 43.21875 25.484375 
L 43.21875 27.484375 
z
M 52.203125 31.203125 
L 52.203125 0 
L 43.21875 0 
L 43.21875 8.296875 
Q 40.140625 3.328125 35.546875 0.953125 
Q 30.953125 -1.421875 24.3125 -1.421875 
Q 15.921875 -1.421875 10.953125 3.296875 
Q 6 8.015625 6 15.921875 
Q 6 25.140625 12.171875 29.828125 
Q 18.359375 34.515625 30.609375 34.515625 
L 43.21875 34.515625 
L 43.21875 35.40625 
Q 43.21875 41.609375 39.140625 45 
Q 35.0625 48.390625 27.6875 48.390625 
Q 23 48.390625 18.546875 47.265625 
Q 14.109375 46.140625 10.015625 43.890625 
L 10.015625 52.203125 
Q 14.9375 54.109375 19.578125 55.046875 
Q 24.21875 56 28.609375 56 
Q 40.484375 56 46.34375 49.84375 
Q 52.203125 43.703125 52.203125 31.203125 
z
" id="DejaVuSans-61"/>
      <path d="M 9.421875 75.984375 
L 18.40625 75.984375 
L 18.40625 0 
L 9.421875 0 
z
" id="DejaVuSans-6c"/>
      <path d="M 30.078125 31.34375 
L 16.3125 -13.1875 
L 8.015625 -13.1875 
L 21.78125 31.34375 
L 8.015625 75.875 
L 16.3125 75.875 
z
" id="DejaVuSans-27e9"/>
     </defs>
     <g style="fill:#262626;" transform="translate(22.528281 81.475)rotate(-90)scale(0.11 -0.11)">
      <use transform="translate(0 0.125)" xlink:href="#DejaVuSans-27e8"/>
      <use transform="translate(39.013672 0.125)" xlink:href="#DejaVuSans-Oblique-71"/>
      <use transform="translate(102.490234 -16.28125)scale(0.7)" xlink:href="#DejaVuSans-74"/>
      <use transform="translate(129.936523 -16.28125)scale(0.7)" xlink:href="#DejaVuSans-6f"/>
      <use transform="translate(172.763672 -16.28125)scale(0.7)" xlink:href="#DejaVuSans-74"/>
      <use transform="translate(200.209961 -16.28125)scale(0.7)" xlink:href="#DejaVuSans-61"/>
      <use transform="translate(243.105469 -16.28125)scale(0.7)" xlink:href="#DejaVuSans-6c"/>
      <use transform="translate(265.288086 0.125)" xlink:href="#DejaVuSans-27e9"/>
     </g>
    </g>
   </g>
   <g id="PolyCollection_1">
    <defs>
     <path d="M 52.11 -113.116694 
L 52.11 -113.116694 
L 52.856 -113.099275 
L 53.602 -113.077371 
L 54.348 -113.049836 
L 55.094 -113.015235 
L 55.84 -112.971776 
L 56.586 -112.917223 
L 57.332 -112.848796 
L 58.078 -112.763047 
L 58.824 -112.655716 
L 59.57 -112.52157 
L 60.316 -112.354218 
L 61.062 -112.145917 
L 61.808 -111.887386 
L 62.554 -111.567647 
L 63.3 -111.173934 
L 64.046 -110.691739 
L 64.792 -110.105054 
L 65.538 -109.396936 
L 66.284 -108.550472 
L 67.03 -107.550242 
L 67.776 -106.38431 
L 68.522 -105.046614 
L 69.268 -103.539498 
L 70.014 -101.875887 
L 70.76 -100.080488 
L 71.506 -98.189414 
L 72.252 -96.2479 
L 72.998 -94.30627 
L 73.744 -92.414842 
L 74.49 -90.618839 
L 75.236 -88.95435 
L 75.982 -87.446043 
L 76.728 -86.106793 
L 77.474 -84.938868 
L 78.22 -83.936111 
L 78.966 -83.086454 
L 79.712 -82.374318 
L 80.458 -81.782577 
L 81.204 -81.294022 
L 81.95 -80.892312 
L 82.696 -80.562516 
L 83.442 -80.291338 
L 84.188 -80.067133 
L 84.934 -79.879784 
L 85.68 -79.720502 
L 86.426 -79.581583 
L 87.172 -79.456152 
L 87.918 -79.337904 
L 88.664 -79.220841 
L 89.41 -79.099017 
L 90.156 -78.96628 
L 90.902 -78.816016 
L 91.648 -78.640882 
L 92.394 -78.432554 
L 93.14 -78.181473 
L 93.886 -77.876626 
L 94.632 -77.505384 
L 95.378 -77.053458 
L 96.124 -76.505024 
L 96.87 -75.843132 
L 97.616 -75.050479 
L 98.362 -74.110656 
L 99.108 -73.009925 
L 99.854 -71.73946 
L 100.6 -70.297865 
L 101.346 -68.69356 
L 102.092 -66.946441 
L 102.838 -65.088194 
L 103.584 -63.160785 
L 104.33 -61.213067 
L 105.076 -59.295997 
L 105.822 -57.457412 
L 106.568 -55.737455 
L 107.314 -54.165542 
L 108.06 -52.759246 
L 108.806 -51.52492 
L 109.552 -50.45957 
L 110.298 -49.553304 
L 111.044 -48.791832 
L 111.79 -48.158632 
L 112.536 -47.636631 
L 113.282 -47.209359 
L 114.028 -46.861662 
L 114.774 -46.580065 
L 115.52 -46.352877 
L 116.266 -46.170157 
L 117.012 -46.023567 
L 117.758 -45.906199 
L 118.504 -45.812379 
L 119.25 -45.737478 
L 119.996 -45.677744 
L 120.742 -45.630144 
L 121.488 -45.592237 
L 122.234 -45.562066 
L 122.98 -45.538062 
L 123.726 -45.51897 
L 124.472 -45.50379 
L 125.218 -45.491722 
L 125.964 -45.48213 
L 126.71 -45.474507 
L 126.71 -45.474507 
L 126.71 -45.463636 
L 125.964 -45.46845 
L 125.218 -45.474507 
L 124.472 -45.482131 
L 123.726 -45.491723 
L 122.98 -45.503791 
L 122.234 -45.518971 
L 121.488 -45.538063 
L 120.742 -45.562067 
L 119.996 -45.592239 
L 119.25 -45.630145 
L 118.504 -45.677746 
L 117.758 -45.737481 
L 117.012 -45.812382 
L 116.266 -45.906203 
L 115.52 -46.023573 
L 114.774 -46.170165 
L 114.028 -46.352889 
L 113.282 -46.58008 
L 112.536 -46.861683 
L 111.79 -47.209386 
L 111.044 -47.636669 
L 110.298 -48.158686 
L 109.552 -48.791907 
L 108.806 -49.553411 
L 108.06 -50.459721 
L 107.314 -51.525135 
L 106.568 -52.759551 
L 105.822 -54.165973 
L 105.076 -55.738059 
L 104.33 -57.458253 
L 103.584 -59.297154 
L 102.838 -61.21464 
L 102.092 -63.162902 
L 101.346 -65.091009 
L 100.6 -66.950143 
L 99.854 -68.698383 
L 99.108 -70.304097 
L 98.362 -71.747458 
L 97.616 -73.020135 
L 96.87 -74.123635 
L 96.124 -75.066928 
L 95.378 -75.863933 
L 94.632 -76.531284 
L 93.886 -77.08657 
L 93.14 -77.547102 
L 92.394 -77.92915 
L 91.648 -78.247567 
L 90.902 -78.515684 
L 90.156 -78.745388 
L 89.41 -78.947327 
L 88.664 -79.131174 
L 87.918 -79.305933 
L 87.172 -79.480262 
L 86.426 -79.662804 
L 85.68 -79.862512 
L 84.934 -80.08898 
L 84.188 -80.352744 
L 83.442 -80.665558 
L 82.696 -81.040601 
L 81.95 -81.492576 
L 81.204 -82.037623 
L 80.458 -82.692976 
L 79.712 -83.476242 
L 78.966 -84.404223 
L 78.22 -85.491202 
L 77.474 -86.746755 
L 76.728 -88.173248 
L 75.982 -89.763426 
L 75.236 -91.49865 
L 74.49 -93.348435 
L 73.744 -95.271764 
L 72.998 -97.220308 
L 72.252 -99.143113 
L 71.506 -100.991833 
L 70.76 -102.725409 
L 70.014 -104.313287 
L 69.268 -105.73673 
L 68.522 -106.988343 
L 67.776 -108.070301 
L 67.03 -108.991928 
L 66.284 -109.767187 
L 65.538 -110.412463 
L 64.792 -110.94484 
L 64.046 -111.380886 
L 63.3 -111.73591 
L 62.554 -112.023566 
L 61.808 -112.255722 
L 61.062 -112.442491 
L 60.316 -112.592362 
L 59.57 -112.712379 
L 58.824 -112.80833 
L 58.078 -112.884941 
L 57.332 -112.946045 
L 56.586 -112.99474 
L 55.84 -113.033521 
L 55.094 -113.064389 
L 54.348 -113.088949 
L 53.602 -113.108483 
L 52.856 -113.124016 
L 52.11 -113.136364 
z
" id="m61c66e998f" style="stroke:#ffffff;stroke-opacity:0.7;"/>
    </defs>
    <g clip-path="url(#pa0095c8f72)">
     <use style="fill:#591e71;fill-opacity:0.7;stroke:#ffffff;stroke-opacity:0.7;" x="0" xlink:href="#m61c66e998f" y="144"/>
    </g>
   </g>
   <g id="line2d_10">
    <path clip-path="url(#pa0095c8f72)" d="M 52.11 30.883306 
L 52.856 30.900725 
L 53.602 30.922629 
L 54.348 30.950164 
L 55.094 30.984765 
L 55.84 31.028224 
L 56.586 31.082777 
L 57.332 31.151204 
L 58.078 31.236953 
L 58.824 31.344284 
L 59.57 31.47843 
L 60.316 31.645782 
L 61.062 31.854083 
L 61.808 32.112614 
L 62.554 32.432353 
L 63.3 32.826066 
L 64.046 33.308261 
L 64.792 33.894946 
L 65.538 34.603064 
L 66.284 35.449528 
L 67.03 36.449758 
L 67.776 37.61569 
L 68.522 38.953386 
L 69.268 40.460502 
L 70.014 42.124113 
L 70.76 43.919512 
L 71.506 45.810586 
L 72.252 47.7521 
L 72.998 49.69373 
L 73.744 51.585158 
L 74.49 53.381161 
L 75.236 55.04565 
L 75.982 56.553957 
L 76.728 57.893207 
L 77.474 59.061132 
L 78.22 60.063889 
L 78.966 60.913546 
L 79.712 61.625682 
L 80.458 62.217423 
L 81.204 62.705978 
L 81.95 63.107688 
L 82.696 63.437484 
L 83.442 63.708662 
L 84.188 63.932867 
L 84.934 64.120216 
L 85.68 64.279498 
L 86.426 64.418417 
L 87.172 64.543848 
L 87.918 64.662096 
L 88.664 64.779159 
L 89.41 64.900983 
L 90.156 65.03372 
L 90.902 65.183984 
L 91.648 65.359118 
L 92.394 65.567446 
L 93.14 65.818527 
L 93.886 66.123374 
L 94.632 66.494616 
L 95.378 66.946542 
L 96.124 67.494976 
L 96.87 68.156868 
L 97.616 68.949521 
L 98.362 69.889344 
L 99.108 70.990075 
L 99.854 72.26054 
L 100.6 73.702135 
L 101.346 75.30644 
L 102.092 77.053559 
L 102.838 78.911806 
L 103.584 80.839215 
L 104.33 82.786933 
L 105.076 84.704003 
L 105.822 86.542588 
L 106.568 88.262545 
L 107.314 89.834458 
L 108.06 91.240754 
L 108.806 92.47508 
L 109.552 93.54043 
L 110.298 94.446696 
L 111.044 95.208168 
L 111.79 95.841368 
L 112.536 96.363369 
L 113.282 96.790641 
L 114.028 97.138338 
L 114.774 97.419935 
L 115.52 97.647123 
L 116.266 97.829843 
L 117.012 97.976433 
L 117.758 98.093801 
L 118.504 98.187621 
L 119.25 98.262522 
L 119.996 98.322256 
L 120.742 98.369856 
L 121.488 98.407763 
L 122.234 98.437934 
L 122.98 98.461938 
L 123.726 98.48103 
L 124.472 98.49621 
L 125.218 98.508278 
L 125.964 98.51787 
L 126.71 98.525493 
" style="fill:none;stroke:#333333;stroke-dasharray:1.5,2.475;stroke-dashoffset:0;stroke-width:1.5;"/>
   </g>
   <g id="line2d_11">
    <path clip-path="url(#pa0095c8f72)" d="M 52.11 30.863636 
L 52.856 30.875984 
L 53.602 30.891517 
L 54.348 30.911051 
L 55.094 30.935611 
L 55.84 30.966479 
L 56.586 31.00526 
L 57.332 31.053955 
L 58.078 31.115059 
L 58.824 31.19167 
L 59.57 31.287621 
L 60.316 31.407638 
L 61.062 31.557509 
L 61.808 31.744278 
L 62.554 31.976434 
L 63.3 32.26409 
L 64.046 32.619114 
L 64.792 33.05516 
L 65.538 33.587537 
L 66.284 34.232813 
L 67.03 35.008072 
L 67.776 35.929699 
L 68.522 37.011657 
L 69.268 38.26327 
L 70.014 39.686713 
L 70.76 41.274591 
L 71.506 43.008167 
L 72.252 44.856887 
L 72.998 46.779692 
L 73.744 48.728236 
L 74.49 50.651565 
L 75.236 52.50135 
L 75.982 54.236574 
L 76.728 55.826752 
L 77.474 57.253245 
L 78.22 58.508798 
L 78.966 59.595777 
L 79.712 60.523758 
L 80.458 61.307024 
L 81.204 61.962377 
L 81.95 62.507424 
L 82.696 62.959399 
L 83.442 63.334442 
L 84.188 63.647256 
L 84.934 63.91102 
L 85.68 64.137488 
L 86.426 64.337196 
L 87.172 64.519738 
L 87.918 64.694067 
L 88.664 64.868826 
L 89.41 65.052673 
L 90.156 65.254612 
L 90.902 65.484316 
L 91.648 65.752433 
L 92.394 66.07085 
L 93.14 66.452898 
L 93.886 66.91343 
L 94.632 67.468716 
L 95.378 68.136067 
L 96.124 68.933072 
L 96.87 69.876365 
L 97.616 70.979865 
L 98.362 72.252542 
L 99.108 73.695903 
L 99.854 75.301617 
L 100.6 77.049857 
L 101.346 78.908991 
L 102.092 80.837098 
L 102.838 82.78536 
L 103.584 84.702846 
L 104.33 86.541747 
L 105.076 88.261941 
L 105.822 89.834027 
L 106.568 91.240449 
L 107.314 92.474865 
L 108.06 93.540279 
L 108.806 94.446589 
L 109.552 95.208093 
L 110.298 95.841314 
L 111.044 96.363331 
L 111.79 96.790614 
L 112.536 97.138317 
L 113.282 97.41992 
L 114.028 97.647111 
L 114.774 97.829835 
L 115.52 97.976427 
L 116.266 98.093797 
L 117.012 98.187618 
L 117.758 98.262519 
L 118.504 98.322254 
L 119.25 98.369855 
L 119.996 98.407761 
L 120.742 98.437933 
L 121.488 98.461937 
L 122.234 98.481029 
L 122.98 98.496209 
L 123.726 98.508277 
L 124.472 98.517869 
L 125.218 98.525493 
L 125.964 98.53155 
L 126.71 98.536364 
" style="fill:none;stroke:#333333;stroke-linecap:round;stroke-width:1.5;"/>
   </g>
   <g id="patch_3">
    <path d="M 48.38 101.92 
L 48.38 27.48 
" style="fill:none;stroke:#262626;stroke-linecap:square;stroke-linejoin:miter;stroke-width:0.8;"/>
   </g>
   <g id="patch_4">
    <path d="M 48.38 101.92 
L 130.44 101.92 
" style="fill:none;stroke:#262626;stroke-linecap:square;stroke-linejoin:miter;stroke-width:0.8;"/>
   </g>
   <g id="text_12">
    <!-- $\Delta$ area : 0.34 -->
    <defs>
     <path d="M 34.1875 63.1875 
L 14.15625 8.203125 
L 54.25 8.203125 
z
M 0.78125 0 
L 28.609375 72.90625 
L 39.796875 72.90625 
L 67.578125 0 
z
" id="DejaVuSans-394"/>
     <path id="ArialMT-20"/>
     <path d="M 40.4375 6.390625 
Q 35.546875 2.25 31.03125 0.53125 
Q 26.515625 -1.171875 21.34375 -1.171875 
Q 12.796875 -1.171875 8.203125 3 
Q 3.609375 7.171875 3.609375 13.671875 
Q 3.609375 17.484375 5.34375 20.625 
Q 7.078125 23.78125 9.890625 25.6875 
Q 12.703125 27.59375 16.21875 28.5625 
Q 18.796875 29.25 24.03125 29.890625 
Q 34.671875 31.15625 39.703125 32.90625 
Q 39.75 34.71875 39.75 35.203125 
Q 39.75 40.578125 37.25 42.78125 
Q 33.890625 45.75 27.25 45.75 
Q 21.046875 45.75 18.09375 43.578125 
Q 15.140625 41.40625 13.71875 35.890625 
L 5.125 37.0625 
Q 6.296875 42.578125 8.984375 45.96875 
Q 11.671875 49.359375 16.75 51.1875 
Q 21.828125 53.03125 28.515625 53.03125 
Q 35.15625 53.03125 39.296875 51.46875 
Q 43.453125 49.90625 45.40625 47.53125 
Q 47.359375 45.171875 48.140625 41.546875 
Q 48.578125 39.3125 48.578125 33.453125 
L 48.578125 21.734375 
Q 48.578125 9.46875 49.140625 6.21875 
Q 49.703125 2.984375 51.375 0 
L 42.1875 0 
Q 40.828125 2.734375 40.4375 6.390625 
z
M 39.703125 26.03125 
Q 34.90625 24.078125 25.34375 22.703125 
Q 19.921875 21.921875 17.671875 20.9375 
Q 15.4375 19.96875 14.203125 18.09375 
Q 12.984375 16.21875 12.984375 13.921875 
Q 12.984375 10.40625 15.640625 8.0625 
Q 18.3125 5.71875 23.4375 5.71875 
Q 28.515625 5.71875 32.46875 7.9375 
Q 36.421875 10.15625 38.28125 14.015625 
Q 39.703125 17 39.703125 22.796875 
z
" id="ArialMT-61"/>
     <path d="M 6.5 0 
L 6.5 51.859375 
L 14.40625 51.859375 
L 14.40625 44 
Q 17.4375 49.515625 20 51.265625 
Q 22.5625 53.03125 25.640625 53.03125 
Q 30.078125 53.03125 34.671875 50.203125 
L 31.640625 42.046875 
Q 28.421875 43.953125 25.203125 43.953125 
Q 22.3125 43.953125 20.015625 42.21875 
Q 17.71875 40.484375 16.75 37.40625 
Q 15.28125 32.71875 15.28125 27.15625 
L 15.28125 0 
z
" id="ArialMT-72"/>
     <path d="M 42.09375 16.703125 
L 51.171875 15.578125 
Q 49.03125 7.625 43.21875 3.21875 
Q 37.40625 -1.171875 28.375 -1.171875 
Q 17 -1.171875 10.328125 5.828125 
Q 3.65625 12.84375 3.65625 25.484375 
Q 3.65625 38.578125 10.390625 45.796875 
Q 17.140625 53.03125 27.875 53.03125 
Q 38.28125 53.03125 44.875 45.953125 
Q 51.46875 38.875 51.46875 26.03125 
Q 51.46875 25.25 51.421875 23.6875 
L 12.75 23.6875 
Q 13.234375 15.140625 17.578125 10.59375 
Q 21.921875 6.0625 28.421875 6.0625 
Q 33.25 6.0625 36.671875 8.59375 
Q 40.09375 11.140625 42.09375 16.703125 
z
M 13.234375 30.90625 
L 42.1875 30.90625 
Q 41.609375 37.453125 38.875 40.71875 
Q 34.671875 45.796875 27.984375 45.796875 
Q 21.921875 45.796875 17.796875 41.75 
Q 13.671875 37.703125 13.234375 30.90625 
z
" id="ArialMT-65"/>
     <path d="M 9.03125 41.84375 
L 9.03125 51.859375 
L 19.046875 51.859375 
L 19.046875 41.84375 
z
M 9.03125 0 
L 9.03125 10.015625 
L 19.046875 10.015625 
L 19.046875 0 
z
" id="ArialMT-3a"/>
     <path d="M 9.078125 0 
L 9.078125 10.015625 
L 19.09375 10.015625 
L 19.09375 0 
z
" id="ArialMT-2e"/>
     <path d="M 4.203125 18.890625 
L 12.984375 20.0625 
Q 14.5 12.59375 18.140625 9.296875 
Q 21.78125 6 27 6 
Q 33.203125 6 37.46875 10.296875 
Q 41.75 14.59375 41.75 20.953125 
Q 41.75 27 37.796875 30.921875 
Q 33.84375 34.859375 27.734375 34.859375 
Q 25.25 34.859375 21.53125 33.890625 
L 22.515625 41.609375 
Q 23.390625 41.5 23.921875 41.5 
Q 29.546875 41.5 34.03125 44.421875 
Q 38.53125 47.359375 38.53125 53.46875 
Q 38.53125 58.296875 35.25 61.46875 
Q 31.984375 64.65625 26.8125 64.65625 
Q 21.6875 64.65625 18.265625 61.421875 
Q 14.84375 58.203125 13.875 51.765625 
L 5.078125 53.328125 
Q 6.6875 62.15625 12.390625 67.015625 
Q 18.109375 71.875 26.609375 71.875 
Q 32.46875 71.875 37.390625 69.359375 
Q 42.328125 66.84375 44.9375 62.5 
Q 47.5625 58.15625 47.5625 53.265625 
Q 47.5625 48.640625 45.0625 44.828125 
Q 42.578125 41.015625 37.703125 38.765625 
Q 44.046875 37.3125 47.5625 32.6875 
Q 51.078125 28.078125 51.078125 21.140625 
Q 51.078125 11.765625 44.234375 5.25 
Q 37.40625 -1.265625 26.953125 -1.265625 
Q 17.53125 -1.265625 11.296875 4.34375 
Q 5.078125 9.96875 4.203125 18.890625 
z
" id="ArialMT-33"/>
    </defs>
    <g style="fill:#262626;" transform="translate(51.46 21.48)scale(0.132 -0.132)">
     <use transform="translate(0 0.09375)" xlink:href="#DejaVuSans-394"/>
     <use transform="translate(68.408203 0.09375)" xlink:href="#ArialMT-20"/>
     <use transform="translate(96.191406 0.09375)" xlink:href="#ArialMT-61"/>
     <use transform="translate(151.806641 0.09375)" xlink:href="#ArialMT-72"/>
     <use transform="translate(185.107422 0.09375)" xlink:href="#ArialMT-65"/>
     <use transform="translate(240.722656 0.09375)" xlink:href="#ArialMT-61"/>
     <use transform="translate(296.337891 0.09375)" xlink:href="#ArialMT-20"/>
     <use transform="translate(324.121094 0.09375)" xlink:href="#ArialMT-3a"/>
     <use transform="translate(351.904297 0.09375)" xlink:href="#ArialMT-20"/>
     <use transform="translate(379.6875 0.09375)" xlink:href="#ArialMT-30"/>
     <use transform="translate(435.302734 0.09375)" xlink:href="#ArialMT-2e"/>
     <use transform="translate(463.085938 0.09375)" xlink:href="#ArialMT-33"/>
     <use transform="translate(518.701172 0.09375)" xlink:href="#ArialMT-34"/>
    </g>
   </g>
  </g>
 </g>
 <defs>
  <clipPath id="pa0095c8f72">
   <rect height="74.44" width="82.06" x="48.38" y="27.48"/>
  </clipPath>
 </defs>
</svg>
