<?xml version="1.0" encoding="utf-8" standalone="no"?>
<!DOCTYPE svg PUBLIC "-//W3C//DTD SVG 1.1//EN"
  "http://www.w3.org/Graphics/SVG/1.1/DTD/svg11.dtd">
<!-- Created with matplotlib (http://matplotlib.org/) -->
<svg height="144pt" version="1.1" viewBox="0 0 144 144" width="144pt" xmlns="http://www.w3.org/2000/svg" xmlns:xlink="http://www.w3.org/1999/xlink">
 <defs>
  <style type="text/css">
*{stroke-linecap:butt;stroke-linejoin:round;}
  </style>
 </defs>
 <g id="figure_1">
  <g id="patch_1">
   <path d="M 0 144 
L 144 144 
L 144 0 
L 0 0 
z
" style="fill:#ffffff;"/>
  </g>
  <g id="axes_1">
   <g id="patch_2">
    <path d="M 32.525 101.92 
L 130.44 101.92 
L 130.44 13.56 
L 32.525 13.56 
z
" style="fill:#ffffff;"/>
   </g>
   <g id="matplotlib.axis_1">
    <g id="xtick_1">
     <g id="line2d_1">
      <defs>
       <path d="M 0 0 
L 0 3.5 
" id="me6fcee504a" style="stroke:#262626;stroke-width:0.8;"/>
      </defs>
      <g>
       <use style="fill:#262626;stroke:#262626;stroke-width:0.8;" x="36.975682" xlink:href="#me6fcee504a" y="101.92"/>
      </g>
     </g>
     <g id="text_1">
      <!-- 2 -->
      <defs>
       <path d="M 50.34375 8.453125 
L 50.34375 0 
L 3.03125 0 
Q 2.9375 3.171875 4.046875 6.109375 
Q 5.859375 10.9375 9.828125 15.625 
Q 13.8125 20.3125 21.34375 26.46875 
Q 33.015625 36.03125 37.109375 41.625 
Q 41.21875 47.21875 41.21875 52.203125 
Q 41.21875 57.421875 37.46875 61 
Q 33.734375 64.59375 27.734375 64.59375 
Q 21.390625 64.59375 17.578125 60.78125 
Q 13.765625 56.984375 13.71875 50.25 
L 4.6875 51.171875 
Q 5.609375 61.28125 11.65625 66.578125 
Q 17.71875 71.875 27.9375 71.875 
Q 38.234375 71.875 44.234375 66.15625 
Q 50.25 60.453125 50.25 52 
Q 50.25 47.703125 48.484375 43.546875 
Q 46.734375 39.40625 42.65625 34.8125 
Q 38.578125 30.21875 29.109375 22.21875 
Q 21.1875 15.578125 18.9375 13.203125 
Q 16.703125 10.84375 15.234375 8.453125 
z
" id="ArialMT-32"/>
      </defs>
      <g style="fill:#262626;" transform="translate(33.917166 116.793594)scale(0.11 -0.11)">
       <use xlink:href="#ArialMT-32"/>
      </g>
     </g>
    </g>
    <g id="xtick_2">
     <g id="line2d_2">
      <g>
       <use style="fill:#262626;stroke:#262626;stroke-width:0.8;" x="54.778409" xlink:href="#me6fcee504a" y="101.92"/>
      </g>
     </g>
     <g id="text_2">
      <!-- 4 -->
      <defs>
       <path d="M 32.328125 0 
L 32.328125 17.140625 
L 1.265625 17.140625 
L 1.265625 25.203125 
L 33.9375 71.578125 
L 41.109375 71.578125 
L 41.109375 25.203125 
L 50.78125 25.203125 
L 50.78125 17.140625 
L 41.109375 17.140625 
L 41.109375 0 
z
M 32.328125 25.203125 
L 32.328125 57.46875 
L 9.90625 25.203125 
z
" id="ArialMT-34"/>
      </defs>
      <g style="fill:#262626;" transform="translate(51.719893 116.793594)scale(0.11 -0.11)">
       <use xlink:href="#ArialMT-34"/>
      </g>
     </g>
    </g>
    <g id="xtick_3">
     <g id="line2d_3">
      <g>
       <use style="fill:#262626;stroke:#262626;stroke-width:0.8;" x="72.581136" xlink:href="#me6fcee504a" y="101.92"/>
      </g>
     </g>
     <g id="text_3">
      <!-- 6 -->
      <defs>
       <path d="M 49.75 54.046875 
L 41.015625 53.375 
Q 39.84375 58.546875 37.703125 60.890625 
Q 34.125 64.65625 28.90625 64.65625 
Q 24.703125 64.65625 21.53125 62.3125 
Q 17.390625 59.28125 14.984375 53.46875 
Q 12.59375 47.65625 12.5 36.921875 
Q 15.671875 41.75 20.265625 44.09375 
Q 24.859375 46.4375 29.890625 46.4375 
Q 38.671875 46.4375 44.84375 39.96875 
Q 51.03125 33.5 51.03125 23.25 
Q 51.03125 16.5 48.125 10.71875 
Q 45.21875 4.9375 40.140625 1.859375 
Q 35.0625 -1.21875 28.609375 -1.21875 
Q 17.625 -1.21875 10.6875 6.859375 
Q 3.765625 14.9375 3.765625 33.5 
Q 3.765625 54.25 11.421875 63.671875 
Q 18.109375 71.875 29.4375 71.875 
Q 37.890625 71.875 43.28125 67.140625 
Q 48.6875 62.40625 49.75 54.046875 
z
M 13.875 23.1875 
Q 13.875 18.65625 15.796875 14.5 
Q 17.71875 10.359375 21.1875 8.171875 
Q 24.65625 6 28.46875 6 
Q 34.03125 6 38.03125 10.484375 
Q 42.046875 14.984375 42.046875 22.703125 
Q 42.046875 30.125 38.078125 34.390625 
Q 34.125 38.671875 28.125 38.671875 
Q 22.171875 38.671875 18.015625 34.390625 
Q 13.875 30.125 13.875 23.1875 
z
" id="ArialMT-36"/>
      </defs>
      <g style="fill:#262626;" transform="translate(69.522621 116.793594)scale(0.11 -0.11)">
       <use xlink:href="#ArialMT-36"/>
      </g>
     </g>
    </g>
    <g id="xtick_4">
     <g id="line2d_4">
      <g>
       <use style="fill:#262626;stroke:#262626;stroke-width:0.8;" x="90.383864" xlink:href="#me6fcee504a" y="101.92"/>
      </g>
     </g>
     <g id="text_4">
      <!-- 8 -->
      <defs>
       <path d="M 17.671875 38.8125 
Q 12.203125 40.828125 9.5625 44.53125 
Q 6.9375 48.25 6.9375 53.421875 
Q 6.9375 61.234375 12.546875 66.546875 
Q 18.171875 71.875 27.484375 71.875 
Q 36.859375 71.875 42.578125 66.421875 
Q 48.296875 60.984375 48.296875 53.171875 
Q 48.296875 48.1875 45.671875 44.5 
Q 43.0625 40.828125 37.75 38.8125 
Q 44.34375 36.671875 47.78125 31.875 
Q 51.21875 27.09375 51.21875 20.453125 
Q 51.21875 11.28125 44.71875 5.03125 
Q 38.234375 -1.21875 27.640625 -1.21875 
Q 17.046875 -1.21875 10.546875 5.046875 
Q 4.046875 11.328125 4.046875 20.703125 
Q 4.046875 27.6875 7.59375 32.390625 
Q 11.140625 37.109375 17.671875 38.8125 
z
M 15.921875 53.71875 
Q 15.921875 48.640625 19.1875 45.40625 
Q 22.46875 42.1875 27.6875 42.1875 
Q 32.765625 42.1875 36.015625 45.375 
Q 39.265625 48.578125 39.265625 53.21875 
Q 39.265625 58.0625 35.90625 61.359375 
Q 32.5625 64.65625 27.59375 64.65625 
Q 22.5625 64.65625 19.234375 61.421875 
Q 15.921875 58.203125 15.921875 53.71875 
z
M 13.09375 20.65625 
Q 13.09375 16.890625 14.875 13.375 
Q 16.65625 9.859375 20.171875 7.921875 
Q 23.6875 6 27.734375 6 
Q 34.03125 6 38.125 10.046875 
Q 42.234375 14.109375 42.234375 20.359375 
Q 42.234375 26.703125 38.015625 30.859375 
Q 33.796875 35.015625 27.4375 35.015625 
Q 21.234375 35.015625 17.15625 30.90625 
Q 13.09375 26.8125 13.09375 20.65625 
z
" id="ArialMT-38"/>
      </defs>
      <g style="fill:#262626;" transform="translate(87.325348 116.793594)scale(0.11 -0.11)">
       <use xlink:href="#ArialMT-38"/>
      </g>
     </g>
    </g>
    <g id="xtick_5">
     <g id="line2d_5">
      <g>
       <use style="fill:#262626;stroke:#262626;stroke-width:0.8;" x="108.186591" xlink:href="#me6fcee504a" y="101.92"/>
      </g>
     </g>
     <g id="text_5">
      <!-- 10 -->
      <defs>
       <path d="M 37.25 0 
L 28.46875 0 
L 28.46875 56 
Q 25.296875 52.984375 20.140625 49.953125 
Q 14.984375 46.921875 10.890625 45.40625 
L 10.890625 53.90625 
Q 18.265625 57.375 23.78125 62.296875 
Q 29.296875 67.234375 31.59375 71.875 
L 37.25 71.875 
z
" id="ArialMT-31"/>
       <path d="M 4.15625 35.296875 
Q 4.15625 48 6.765625 55.734375 
Q 9.375 63.484375 14.515625 67.671875 
Q 19.671875 71.875 27.484375 71.875 
Q 33.25 71.875 37.59375 69.546875 
Q 41.9375 67.234375 44.765625 62.859375 
Q 47.609375 58.5 49.21875 52.21875 
Q 50.828125 45.953125 50.828125 35.296875 
Q 50.828125 22.703125 48.234375 14.96875 
Q 45.65625 7.234375 40.5 3 
Q 35.359375 -1.21875 27.484375 -1.21875 
Q 17.140625 -1.21875 11.234375 6.203125 
Q 4.15625 15.140625 4.15625 35.296875 
z
M 13.1875 35.296875 
Q 13.1875 17.671875 17.3125 11.828125 
Q 21.4375 6 27.484375 6 
Q 33.546875 6 37.671875 11.859375 
Q 41.796875 17.71875 41.796875 35.296875 
Q 41.796875 52.984375 37.671875 58.78125 
Q 33.546875 64.59375 27.390625 64.59375 
Q 21.34375 64.59375 17.71875 59.46875 
Q 13.1875 52.9375 13.1875 35.296875 
z
" id="ArialMT-30"/>
      </defs>
      <g style="fill:#262626;" transform="translate(102.06956 116.793594)scale(0.11 -0.11)">
       <use xlink:href="#ArialMT-31"/>
       <use x="55.615234" xlink:href="#ArialMT-30"/>
      </g>
     </g>
    </g>
    <g id="xtick_6">
     <g id="line2d_6">
      <g>
       <use style="fill:#262626;stroke:#262626;stroke-width:0.8;" x="125.989318" xlink:href="#me6fcee504a" y="101.92"/>
      </g>
     </g>
     <g id="text_6">
      <!-- 12 -->
      <g style="fill:#262626;" transform="translate(119.872287 116.793594)scale(0.11 -0.11)">
       <use xlink:href="#ArialMT-31"/>
       <use x="55.615234" xlink:href="#ArialMT-32"/>
      </g>
     </g>
    </g>
    <g id="text_7">
     <!-- pH -->
     <defs>
      <path d="M 6.59375 -19.875 
L 6.59375 51.859375 
L 14.59375 51.859375 
L 14.59375 45.125 
Q 17.4375 49.078125 21 51.046875 
Q 24.5625 53.03125 29.640625 53.03125 
Q 36.28125 53.03125 41.359375 49.609375 
Q 46.4375 46.1875 49.015625 39.953125 
Q 51.609375 33.734375 51.609375 26.3125 
Q 51.609375 18.359375 48.75 11.984375 
Q 45.90625 5.609375 40.453125 2.21875 
Q 35.015625 -1.171875 29 -1.171875 
Q 24.609375 -1.171875 21.109375 0.6875 
Q 17.625 2.546875 15.375 5.375 
L 15.375 -19.875 
z
M 14.546875 25.640625 
Q 14.546875 15.625 18.59375 10.84375 
Q 22.65625 6.0625 28.421875 6.0625 
Q 34.28125 6.0625 38.453125 11.015625 
Q 42.625 15.96875 42.625 26.375 
Q 42.625 36.28125 38.546875 41.203125 
Q 34.46875 46.140625 28.8125 46.140625 
Q 23.1875 46.140625 18.859375 40.890625 
Q 14.546875 35.640625 14.546875 25.640625 
z
" id="ArialMT-70"/>
      <path d="M 8.015625 0 
L 8.015625 71.578125 
L 17.484375 71.578125 
L 17.484375 42.1875 
L 54.6875 42.1875 
L 54.6875 71.578125 
L 64.15625 71.578125 
L 64.15625 0 
L 54.6875 0 
L 54.6875 33.734375 
L 17.484375 33.734375 
L 17.484375 0 
z
" id="ArialMT-48"/>
     </defs>
     <g style="fill:#262626;" transform="translate(74.451953 130.853437)scale(0.11 -0.11)">
      <use xlink:href="#ArialMT-70"/>
      <use x="55.615234" xlink:href="#ArialMT-48"/>
     </g>
    </g>
   </g>
   <g id="matplotlib.axis_2">
    <g id="ytick_1">
     <g id="line2d_7">
      <defs>
       <path d="M 0 0 
L -3.5 0 
" id="md8c29c90c4" style="stroke:#262626;stroke-width:0.8;"/>
      </defs>
      <g>
       <use style="fill:#262626;stroke:#262626;stroke-width:0.8;" x="32.525" xlink:href="#md8c29c90c4" y="97.903636"/>
      </g>
     </g>
    </g>
    <g id="ytick_2">
     <g id="line2d_8">
      <g>
       <use style="fill:#262626;stroke:#262626;stroke-width:0.8;" x="32.525" xlink:href="#md8c29c90c4" y="17.576364"/>
      </g>
     </g>
    </g>
    <g id="text_8">
     <!-- Population -->
     <defs>
      <path d="M 7.71875 0 
L 7.71875 71.578125 
L 34.71875 71.578125 
Q 41.84375 71.578125 45.609375 70.90625 
Q 50.875 70.015625 54.4375 67.546875 
Q 58.015625 65.09375 60.1875 60.640625 
Q 62.359375 56.203125 62.359375 50.875 
Q 62.359375 41.75 56.546875 35.421875 
Q 50.734375 29.109375 35.546875 29.109375 
L 17.1875 29.109375 
L 17.1875 0 
z
M 17.1875 37.546875 
L 35.6875 37.546875 
Q 44.875 37.546875 48.734375 40.96875 
Q 52.59375 44.390625 52.59375 50.59375 
Q 52.59375 55.078125 50.3125 58.265625 
Q 48.046875 61.46875 44.34375 62.5 
Q 41.9375 63.140625 35.5 63.140625 
L 17.1875 63.140625 
z
" id="ArialMT-50"/>
      <path d="M 3.328125 25.921875 
Q 3.328125 40.328125 11.328125 47.265625 
Q 18.015625 53.03125 27.640625 53.03125 
Q 38.328125 53.03125 45.109375 46.015625 
Q 51.90625 39.015625 51.90625 26.65625 
Q 51.90625 16.65625 48.90625 10.90625 
Q 45.90625 5.171875 40.15625 2 
Q 34.421875 -1.171875 27.640625 -1.171875 
Q 16.75 -1.171875 10.03125 5.8125 
Q 3.328125 12.796875 3.328125 25.921875 
z
M 12.359375 25.921875 
Q 12.359375 15.96875 16.703125 11.015625 
Q 21.046875 6.0625 27.640625 6.0625 
Q 34.1875 6.0625 38.53125 11.03125 
Q 42.875 16.015625 42.875 26.21875 
Q 42.875 35.84375 38.5 40.796875 
Q 34.125 45.75 27.640625 45.75 
Q 21.046875 45.75 16.703125 40.8125 
Q 12.359375 35.890625 12.359375 25.921875 
z
" id="ArialMT-6f"/>
      <path d="M 40.578125 0 
L 40.578125 7.625 
Q 34.515625 -1.171875 24.125 -1.171875 
Q 19.53125 -1.171875 15.546875 0.578125 
Q 11.578125 2.34375 9.640625 5 
Q 7.71875 7.671875 6.9375 11.53125 
Q 6.390625 14.109375 6.390625 19.734375 
L 6.390625 51.859375 
L 15.1875 51.859375 
L 15.1875 23.09375 
Q 15.1875 16.21875 15.71875 13.8125 
Q 16.546875 10.359375 19.234375 8.375 
Q 21.921875 6.390625 25.875 6.390625 
Q 29.828125 6.390625 33.296875 8.421875 
Q 36.765625 10.453125 38.203125 13.9375 
Q 39.65625 17.4375 39.65625 24.078125 
L 39.65625 51.859375 
L 48.4375 51.859375 
L 48.4375 0 
z
" id="ArialMT-75"/>
      <path d="M 6.390625 0 
L 6.390625 71.578125 
L 15.1875 71.578125 
L 15.1875 0 
z
" id="ArialMT-6c"/>
      <path d="M 40.4375 6.390625 
Q 35.546875 2.25 31.03125 0.53125 
Q 26.515625 -1.171875 21.34375 -1.171875 
Q 12.796875 -1.171875 8.203125 3 
Q 3.609375 7.171875 3.609375 13.671875 
Q 3.609375 17.484375 5.34375 20.625 
Q 7.078125 23.78125 9.890625 25.6875 
Q 12.703125 27.59375 16.21875 28.5625 
Q 18.796875 29.25 24.03125 29.890625 
Q 34.671875 31.15625 39.703125 32.90625 
Q 39.75 34.71875 39.75 35.203125 
Q 39.75 40.578125 37.25 42.78125 
Q 33.890625 45.75 27.25 45.75 
Q 21.046875 45.75 18.09375 43.578125 
Q 15.140625 41.40625 13.71875 35.890625 
L 5.125 37.0625 
Q 6.296875 42.578125 8.984375 45.96875 
Q 11.671875 49.359375 16.75 51.1875 
Q 21.828125 53.03125 28.515625 53.03125 
Q 35.15625 53.03125 39.296875 51.46875 
Q 43.453125 49.90625 45.40625 47.53125 
Q 47.359375 45.171875 48.140625 41.546875 
Q 48.578125 39.3125 48.578125 33.453125 
L 48.578125 21.734375 
Q 48.578125 9.46875 49.140625 6.21875 
Q 49.703125 2.984375 51.375 0 
L 42.1875 0 
Q 40.828125 2.734375 40.4375 6.390625 
z
M 39.703125 26.03125 
Q 34.90625 24.078125 25.34375 22.703125 
Q 19.921875 21.921875 17.671875 20.9375 
Q 15.4375 19.96875 14.203125 18.09375 
Q 12.984375 16.21875 12.984375 13.921875 
Q 12.984375 10.40625 15.640625 8.0625 
Q 18.3125 5.71875 23.4375 5.71875 
Q 28.515625 5.71875 32.46875 7.9375 
Q 36.421875 10.15625 38.28125 14.015625 
Q 39.703125 17 39.703125 22.796875 
z
" id="ArialMT-61"/>
      <path d="M 25.78125 7.859375 
L 27.046875 0.09375 
Q 23.34375 -0.6875 20.40625 -0.6875 
Q 15.625 -0.6875 12.984375 0.828125 
Q 10.359375 2.34375 9.28125 4.8125 
Q 8.203125 7.28125 8.203125 15.1875 
L 8.203125 45.015625 
L 1.765625 45.015625 
L 1.765625 51.859375 
L 8.203125 51.859375 
L 8.203125 64.703125 
L 16.9375 69.96875 
L 16.9375 51.859375 
L 25.78125 51.859375 
L 25.78125 45.015625 
L 16.9375 45.015625 
L 16.9375 14.703125 
Q 16.9375 10.9375 17.40625 9.859375 
Q 17.875 8.796875 18.921875 8.15625 
Q 19.96875 7.515625 21.921875 7.515625 
Q 23.390625 7.515625 25.78125 7.859375 
z
" id="ArialMT-74"/>
      <path d="M 6.640625 61.46875 
L 6.640625 71.578125 
L 15.4375 71.578125 
L 15.4375 61.46875 
z
M 6.640625 0 
L 6.640625 51.859375 
L 15.4375 51.859375 
L 15.4375 0 
z
" id="ArialMT-69"/>
      <path d="M 6.59375 0 
L 6.59375 51.859375 
L 14.5 51.859375 
L 14.5 44.484375 
Q 20.21875 53.03125 31 53.03125 
Q 35.6875 53.03125 39.625 51.34375 
Q 43.5625 49.65625 45.515625 46.921875 
Q 47.46875 44.1875 48.25 40.4375 
Q 48.734375 37.984375 48.734375 31.890625 
L 48.734375 0 
L 39.9375 0 
L 39.9375 31.546875 
Q 39.9375 36.921875 38.90625 39.578125 
Q 37.890625 42.234375 35.28125 43.8125 
Q 32.671875 45.40625 29.15625 45.40625 
Q 23.53125 45.40625 19.453125 41.84375 
Q 15.375 38.28125 15.375 28.328125 
L 15.375 0 
z
" id="ArialMT-6e"/>
     </defs>
     <g style="fill:#262626;" transform="translate(19.33875 83.731797)rotate(-90)scale(0.11 -0.11)">
      <use xlink:href="#ArialMT-50"/>
      <use x="66.699219" xlink:href="#ArialMT-6f"/>
      <use x="122.314453" xlink:href="#ArialMT-70"/>
      <use x="177.929688" xlink:href="#ArialMT-75"/>
      <use x="233.544922" xlink:href="#ArialMT-6c"/>
      <use x="255.761719" xlink:href="#ArialMT-61"/>
      <use x="311.376953" xlink:href="#ArialMT-74"/>
      <use x="339.160156" xlink:href="#ArialMT-69"/>
      <use x="361.376953" xlink:href="#ArialMT-6f"/>
      <use x="416.992188" xlink:href="#ArialMT-6e"/>
     </g>
    </g>
   </g>
   <g id="patch_3">
    <path d="M 32.525 101.92 
L 32.525 13.56 
" style="fill:none;stroke:#262626;stroke-linecap:square;stroke-linejoin:miter;stroke-width:0.8;"/>
   </g>
   <g id="patch_4">
    <path d="M 32.525 101.92 
L 130.44 101.92 
" style="fill:none;stroke:#262626;stroke-linecap:square;stroke-linejoin:miter;stroke-width:0.8;"/>
   </g>
   <g id="line2d_9">
    <path clip-path="url(#p90a5f42dd1)" d="M 36.975682 97.903636 
L 37.865818 97.903636 
L 38.755955 97.903636 
L 39.646091 97.903636 
L 40.536227 97.903636 
L 41.426364 97.903636 
L 42.3165 97.903636 
L 43.206636 97.903636 
L 44.096773 97.903636 
L 44.986909 97.903636 
L 45.877045 97.903636 
L 46.767182 97.903636 
L 47.657318 97.903636 
L 48.547455 97.903636 
L 49.437591 97.903636 
L 50.327727 97.903636 
L 51.217864 97.903636 
L 52.108 97.903636 
L 52.998136 97.903636 
L 53.888273 97.903636 
L 54.778409 97.903636 
L 55.668545 97.903636 
L 56.558682 97.903636 
L 57.448818 97.903636 
L 58.338955 97.903636 
L 59.229091 97.903636 
L 60.119227 97.903636 
L 61.009364 97.903636 
L 61.8995 97.903636 
L 62.789636 97.903636 
L 63.679773 97.903636 
L 64.569909 97.903636 
L 65.460045 97.903636 
L 66.350182 97.903636 
L 67.240318 97.903636 
L 68.130455 97.903636 
L 69.020591 97.903636 
L 69.910727 97.903636 
L 70.800864 97.903636 
L 71.691 97.903636 
L 72.581136 97.903636 
L 73.471273 97.903636 
L 74.361409 97.903636 
L 75.251545 97.903636 
L 76.141682 97.903636 
L 77.031818 97.903636 
L 77.921955 97.903636 
L 78.812091 97.903636 
L 79.702227 97.903636 
L 80.592364 97.903636 
L 81.4825 97.903636 
L 82.372636 97.903636 
L 83.262773 97.903636 
L 84.152909 97.903636 
L 85.043045 97.903636 
L 85.933182 97.903636 
L 86.823318 97.903636 
L 87.713455 97.903636 
L 88.603591 97.903636 
L 89.493727 97.903636 
L 90.383864 97.903636 
L 91.274 97.903636 
L 92.164136 97.903636 
L 93.054273 97.903636 
L 93.944409 97.903636 
L 94.834545 97.903636 
L 95.724682 97.903636 
L 96.614818 97.903636 
L 97.504955 97.903636 
L 98.395091 97.903636 
L 99.285227 97.903636 
L 100.175364 97.903636 
L 101.0655 97.903636 
L 101.955636 97.903636 
L 102.845773 97.903636 
L 103.735909 97.903636 
L 104.626045 97.903636 
L 105.516182 97.903636 
L 106.406318 97.903636 
L 107.296455 97.903636 
L 108.186591 97.903636 
L 109.076727 97.903636 
L 109.966864 97.903636 
L 110.857 97.903636 
L 111.747136 97.903636 
L 112.637273 97.903636 
L 113.527409 97.903636 
L 114.417545 97.903636 
L 115.307682 97.903636 
L 116.197818 97.903636 
L 117.087955 97.903636 
L 117.978091 97.903636 
L 118.868227 97.903636 
L 119.758364 97.903636 
L 120.6485 97.903636 
L 121.538636 97.903636 
L 122.428773 97.903636 
L 123.318909 97.903636 
L 124.209045 97.903636 
L 125.099182 97.903636 
L 125.989318 97.903636 
" style="fill:none;stroke:#2166ac;stroke-linecap:round;stroke-width:1.5;"/>
   </g>
   <g id="line2d_10">
    <path clip-path="url(#p90a5f42dd1)" d="M 36.975682 97.903617 
L 37.865818 97.903621 
L 38.755955 97.903624 
L 39.646091 97.903627 
L 40.536227 97.903629 
L 41.426364 97.90363 
L 42.3165 97.903632 
L 43.206636 97.903633 
L 44.096773 97.903633 
L 44.986909 97.903634 
L 45.877045 97.903634 
L 46.767182 97.903635 
L 47.657318 97.903635 
L 48.547455 97.903635 
L 49.437591 97.903636 
L 50.327727 97.903636 
L 51.217864 97.903636 
L 52.108 97.903636 
L 52.998136 97.903636 
L 53.888273 97.903636 
L 54.778409 97.903636 
L 55.668545 97.903636 
L 56.558682 97.903636 
L 57.448818 97.903636 
L 58.338955 97.903636 
L 59.229091 97.903636 
L 60.119227 97.903636 
L 61.009364 97.903636 
L 61.8995 97.903636 
L 62.789636 97.903636 
L 63.679773 97.903636 
L 64.569909 97.903636 
L 65.460045 97.903636 
L 66.350182 97.903636 
L 67.240318 97.903636 
L 68.130455 97.903636 
L 69.020591 97.903636 
L 69.910727 97.903636 
L 70.800864 97.903636 
L 71.691 97.903636 
L 72.581136 97.903636 
L 73.471273 97.903636 
L 74.361409 97.903636 
L 75.251545 97.903636 
L 76.141682 97.903636 
L 77.031818 97.903636 
L 77.921955 97.903636 
L 78.812091 97.903636 
L 79.702227 97.903636 
L 80.592364 97.903636 
L 81.4825 97.903636 
L 82.372636 97.903636 
L 83.262773 97.903636 
L 84.152909 97.903636 
L 85.043045 97.903636 
L 85.933182 97.903636 
L 86.823318 97.903636 
L 87.713455 97.903636 
L 88.603591 97.903636 
L 89.493727 97.903636 
L 90.383864 97.903636 
L 91.274 97.903636 
L 92.164136 97.903636 
L 93.054273 97.903636 
L 93.944409 97.903636 
L 94.834545 97.903636 
L 95.724682 97.903636 
L 96.614818 97.903636 
L 97.504955 97.903636 
L 98.395091 97.903636 
L 99.285227 97.903636 
L 100.175364 97.903636 
L 101.0655 97.903636 
L 101.955636 97.903636 
L 102.845773 97.903636 
L 103.735909 97.903636 
L 104.626045 97.903636 
L 105.516182 97.903636 
L 106.406318 97.903636 
L 107.296455 97.903636 
L 108.186591 97.903636 
L 109.076727 97.903636 
L 109.966864 97.903636 
L 110.857 97.903636 
L 111.747136 97.903636 
L 112.637273 97.903636 
L 113.527409 97.903636 
L 114.417545 97.903636 
L 115.307682 97.903636 
L 116.197818 97.903636 
L 117.087955 97.903636 
L 117.978091 97.903636 
L 118.868227 97.903636 
L 119.758364 97.903636 
L 120.6485 97.903636 
L 121.538636 97.903636 
L 122.428773 97.903636 
L 123.318909 97.903636 
L 124.209045 97.903636 
L 125.099182 97.903636 
L 125.989318 97.903636 
" style="fill:none;stroke:#4393c3;stroke-linecap:round;stroke-width:1.5;"/>
   </g>
   <g id="line2d_11">
    <path clip-path="url(#p90a5f42dd1)" d="M 36.975682 97.903636 
L 37.865818 97.903636 
L 38.755955 97.903636 
L 39.646091 97.903636 
L 40.536227 97.903636 
L 41.426364 97.903636 
L 42.3165 97.903636 
L 43.206636 97.903636 
L 44.096773 97.903636 
L 44.986909 97.903636 
L 45.877045 97.903636 
L 46.767182 97.903636 
L 47.657318 97.903636 
L 48.547455 97.903636 
L 49.437591 97.903636 
L 50.327727 97.903636 
L 51.217864 97.903636 
L 52.108 97.903636 
L 52.998136 97.903636 
L 53.888273 97.903636 
L 54.778409 97.903636 
L 55.668545 97.903636 
L 56.558682 97.903636 
L 57.448818 97.903636 
L 58.338955 97.903636 
L 59.229091 97.903636 
L 60.119227 97.903636 
L 61.009364 97.903636 
L 61.8995 97.903636 
L 62.789636 97.903636 
L 63.679773 97.903636 
L 64.569909 97.903636 
L 65.460045 97.903636 
L 66.350182 97.903636 
L 67.240318 97.903636 
L 68.130455 97.903636 
L 69.020591 97.903636 
L 69.910727 97.903636 
L 70.800864 97.903636 
L 71.691 97.903636 
L 72.581136 97.903636 
L 73.471273 97.903636 
L 74.361409 97.903636 
L 75.251545 97.903636 
L 76.141682 97.903636 
L 77.031818 97.903636 
L 77.921955 97.903636 
L 78.812091 97.903636 
L 79.702227 97.903636 
L 80.592364 97.903636 
L 81.4825 97.903636 
L 82.372636 97.903636 
L 83.262773 97.903636 
L 84.152909 97.903636 
L 85.043045 97.903636 
L 85.933182 97.903636 
L 86.823318 97.903636 
L 87.713455 97.903636 
L 88.603591 97.903636 
L 89.493727 97.903636 
L 90.383864 97.903636 
L 91.274 97.903636 
L 92.164136 97.903636 
L 93.054273 97.903636 
L 93.944409 97.903636 
L 94.834545 97.903636 
L 95.724682 97.903636 
L 96.614818 97.903636 
L 97.504955 97.903636 
L 98.395091 97.903636 
L 99.285227 97.903636 
L 100.175364 97.903636 
L 101.0655 97.903636 
L 101.955636 97.903636 
L 102.845773 97.903636 
L 103.735909 97.903636 
L 104.626045 97.903636 
L 105.516182 97.903636 
L 106.406318 97.903636 
L 107.296455 97.903636 
L 108.186591 97.903636 
L 109.076727 97.903636 
L 109.966864 97.903636 
L 110.857 97.903636 
L 111.747136 97.903636 
L 112.637273 97.903636 
L 113.527409 97.903636 
L 114.417545 97.903636 
L 115.307682 97.903636 
L 116.197818 97.903636 
L 117.087955 97.903636 
L 117.978091 97.903636 
L 118.868227 97.903636 
L 119.758364 97.903636 
L 120.6485 97.903636 
L 121.538636 97.903636 
L 122.428773 97.903636 
L 123.318909 97.903636 
L 124.209045 97.903636 
L 125.099182 97.903636 
L 125.989318 97.903636 
" style="fill:none;stroke:#4393c3;stroke-linecap:round;stroke-width:1.5;"/>
   </g>
   <g id="line2d_12">
    <path clip-path="url(#p90a5f42dd1)" d="M 36.975682 97.903636 
L 37.865818 97.903636 
L 38.755955 97.903636 
L 39.646091 97.903636 
L 40.536227 97.903636 
L 41.426364 97.903636 
L 42.3165 97.903636 
L 43.206636 97.903636 
L 44.096773 97.903636 
L 44.986909 97.903636 
L 45.877045 97.903636 
L 46.767182 97.903636 
L 47.657318 97.903636 
L 48.547455 97.903636 
L 49.437591 97.903636 
L 50.327727 97.903636 
L 51.217864 97.903636 
L 52.108 97.903636 
L 52.998136 97.903636 
L 53.888273 97.903636 
L 54.778409 97.903636 
L 55.668545 97.903636 
L 56.558682 97.903636 
L 57.448818 97.903636 
L 58.338955 97.903636 
L 59.229091 97.903636 
L 60.119227 97.903636 
L 61.009364 97.903636 
L 61.8995 97.903636 
L 62.789636 97.903636 
L 63.679773 97.903636 
L 64.569909 97.903636 
L 65.460045 97.903636 
L 66.350182 97.903636 
L 67.240318 97.903636 
L 68.130455 97.903636 
L 69.020591 97.903636 
L 69.910727 97.903636 
L 70.800864 97.903636 
L 71.691 97.903636 
L 72.581136 97.903636 
L 73.471273 97.903636 
L 74.361409 97.903636 
L 75.251545 97.903636 
L 76.141682 97.903636 
L 77.031818 97.903636 
L 77.921955 97.903636 
L 78.812091 97.903636 
L 79.702227 97.903636 
L 80.592364 97.903636 
L 81.4825 97.903636 
L 82.372636 97.903636 
L 83.262773 97.903636 
L 84.152909 97.903636 
L 85.043045 97.903636 
L 85.933182 97.903636 
L 86.823318 97.903636 
L 87.713455 97.903636 
L 88.603591 97.903636 
L 89.493727 97.903636 
L 90.383864 97.903636 
L 91.274 97.903636 
L 92.164136 97.903636 
L 93.054273 97.903636 
L 93.944409 97.903636 
L 94.834545 97.903636 
L 95.724682 97.903636 
L 96.614818 97.903636 
L 97.504955 97.903636 
L 98.395091 97.903636 
L 99.285227 97.903636 
L 100.175364 97.903636 
L 101.0655 97.903636 
L 101.955636 97.903636 
L 102.845773 97.903636 
L 103.735909 97.903636 
L 104.626045 97.903636 
L 105.516182 97.903636 
L 106.406318 97.903636 
L 107.296455 97.903636 
L 108.186591 97.903636 
L 109.076727 97.903636 
L 109.966864 97.903636 
L 110.857 97.903636 
L 111.747136 97.903636 
L 112.637273 97.903636 
L 113.527409 97.903636 
L 114.417545 97.903636 
L 115.307682 97.903636 
L 116.197818 97.903636 
L 117.087955 97.903636 
L 117.978091 97.903636 
L 118.868227 97.903636 
L 119.758364 97.903636 
L 120.6485 97.903636 
L 121.538636 97.903636 
L 122.428773 97.903636 
L 123.318909 97.903636 
L 124.209045 97.903636 
L 125.099182 97.903636 
L 125.989318 97.903636 
" style="fill:none;stroke:#4393c3;stroke-linecap:round;stroke-width:1.5;"/>
   </g>
   <g id="line2d_13">
    <path clip-path="url(#p90a5f42dd1)" d="M 36.975682 97.903636 
L 37.865818 97.903636 
L 38.755955 97.903636 
L 39.646091 97.903636 
L 40.536227 97.903636 
L 41.426364 97.903636 
L 42.3165 97.903636 
L 43.206636 97.903636 
L 44.096773 97.903636 
L 44.986909 97.903636 
L 45.877045 97.903636 
L 46.767182 97.903636 
L 47.657318 97.903636 
L 48.547455 97.903636 
L 49.437591 97.903636 
L 50.327727 97.903636 
L 51.217864 97.903636 
L 52.108 97.903636 
L 52.998136 97.903636 
L 53.888273 97.903636 
L 54.778409 97.903636 
L 55.668545 97.903636 
L 56.558682 97.903636 
L 57.448818 97.903636 
L 58.338955 97.903636 
L 59.229091 97.903635 
L 60.119227 97.903635 
L 61.009364 97.903634 
L 61.8995 97.903633 
L 62.789636 97.903632 
L 63.679773 97.90363 
L 64.569909 97.903628 
L 65.460045 97.903625 
L 66.350182 97.903621 
L 67.240318 97.903616 
L 68.130455 97.90361 
L 69.020591 97.903602 
L 69.910727 97.903592 
L 70.800864 97.90358 
L 71.691 97.903564 
L 72.581136 97.903544 
L 73.471273 97.903518 
L 74.361409 97.903487 
L 75.251545 97.903446 
L 76.141682 97.903396 
L 77.031818 97.903332 
L 77.921955 97.903252 
L 78.812091 97.903151 
L 79.702227 97.903024 
L 80.592364 97.902864 
L 81.4825 97.902662 
L 82.372636 97.902409 
L 83.262773 97.902089 
L 84.152909 97.901687 
L 85.043045 97.901181 
L 85.933182 97.900544 
L 86.823318 97.899742 
L 87.713455 97.898732 
L 88.603591 97.897461 
L 89.493727 97.895861 
L 90.383864 97.893847 
L 91.274 97.891311 
L 92.164136 97.888118 
L 93.054273 97.8841 
L 93.944409 97.879042 
L 94.834545 97.872674 
L 95.724682 97.86466 
L 96.614818 97.854573 
L 97.504955 97.841877 
L 98.395091 97.8259 
L 99.285227 97.805795 
L 100.175364 97.780499 
L 101.0655 97.748675 
L 101.955636 97.708648 
L 102.845773 97.658313 
L 103.735909 97.595035 
L 104.626045 97.515515 
L 105.516182 97.41563 
L 106.406318 97.290236 
L 107.296455 97.132934 
L 108.186591 96.935783 
L 109.076727 96.688969 
L 109.966864 96.380423 
L 110.857 95.995392 
L 111.747136 95.515984 
L 112.637273 94.920716 
L 113.527409 94.184124 
L 114.417545 93.276523 
L 115.307682 92.16405 
L 116.197818 90.809178 
L 117.087955 89.17192 
L 117.978091 87.211979 
L 118.868227 84.892058 
L 119.758364 82.182397 
L 120.6485 79.066357 
L 121.538636 75.54643 
L 122.428773 71.649598 
L 123.318909 67.430595 
L 124.209045 62.971593 
L 125.099182 58.377422 
L 125.989318 53.766506 
" style="fill:none;stroke:#f4a582;stroke-linecap:round;stroke-width:1.5;"/>
   </g>
   <g id="line2d_14">
    <path clip-path="url(#p90a5f42dd1)" d="M 36.975682 96.404231 
L 37.865818 96.404898 
L 38.755955 96.405736 
L 39.646091 96.406789 
L 40.536227 96.408114 
L 41.426364 96.409778 
L 42.3165 96.411868 
L 43.206636 96.41449 
L 44.096773 96.417779 
L 44.986909 96.421898 
L 45.877045 96.427052 
L 46.767182 96.43349 
L 47.657318 96.441515 
L 48.547455 96.451494 
L 49.437591 96.463865 
L 50.327727 96.479142 
L 51.217864 96.49792 
L 52.108 96.520868 
L 52.998136 96.548714 
L 53.888273 96.582215 
L 54.778409 96.622105 
L 55.668545 96.669025 
L 56.558682 96.723424 
L 57.448818 96.78545 
L 58.338955 96.854841 
L 59.229091 96.93084 
L 60.119227 97.012166 
L 61.009364 97.097055 
L 61.8995 97.183397 
L 62.789636 97.268933 
L 63.679773 97.351485 
L 64.569909 97.429173 
L 65.460045 97.50057 
L 66.350182 97.564766 
L 67.240318 97.621364 
L 68.130455 97.670404 
L 69.020591 97.712262 
L 69.910727 97.747531 
L 70.800864 97.776929 
L 71.691 97.801212 
L 72.581136 97.821121 
L 73.471273 97.837343 
L 74.361409 97.850495 
L 75.251545 97.861115 
L 76.141682 97.869663 
L 77.031818 97.876524 
L 77.921955 97.88202 
L 78.812091 97.886415 
L 79.702227 97.889925 
L 80.592364 97.892724 
L 81.4825 97.894956 
L 82.372636 97.896733 
L 83.262773 97.898148 
L 84.152909 97.899273 
L 85.043045 97.900169 
L 85.933182 97.90088 
L 86.823318 97.901446 
L 87.713455 97.901896 
L 88.603591 97.902254 
L 89.493727 97.902538 
L 90.383864 97.902764 
L 91.274 97.902943 
L 92.164136 97.903086 
L 93.054273 97.903199 
L 93.944409 97.903289 
L 94.834545 97.90336 
L 95.724682 97.903417 
L 96.614818 97.903462 
L 97.504955 97.903498 
L 98.395091 97.903527 
L 99.285227 97.903549 
L 100.175364 97.903567 
L 101.0655 97.903581 
L 101.955636 97.903593 
L 102.845773 97.903602 
L 103.735909 97.903609 
L 104.626045 97.903615 
L 105.516182 97.903619 
L 106.406318 97.903623 
L 107.296455 97.903625 
L 108.186591 97.903628 
L 109.076727 97.90363 
L 109.966864 97.903631 
L 110.857 97.903632 
L 111.747136 97.903633 
L 112.637273 97.903634 
L 113.527409 97.903634 
L 114.417545 97.903635 
L 115.307682 97.903635 
L 116.197818 97.903635 
L 117.087955 97.903636 
L 117.978091 97.903636 
L 118.868227 97.903636 
L 119.758364 97.903636 
L 120.6485 97.903636 
L 121.538636 97.903636 
L 122.428773 97.903636 
L 123.318909 97.903636 
L 124.209045 97.903636 
L 125.099182 97.903636 
L 125.989318 97.903636 
" style="fill:none;stroke:#92c5de;stroke-linecap:round;stroke-width:1.5;"/>
   </g>
   <g id="line2d_15">
    <path clip-path="url(#p90a5f42dd1)" d="M 36.975682 19.213733 
L 37.865818 19.248703 
L 38.755955 19.292685 
L 39.646091 19.347987 
L 40.536227 19.417498 
L 41.426364 19.504834 
L 42.3165 19.614508 
L 43.206636 19.752145 
L 44.096773 19.924732 
L 44.986909 20.140927 
L 45.877045 20.411402 
L 46.767182 20.749246 
L 47.657318 21.170401 
L 48.547455 21.69411 
L 49.437591 22.343343 
L 50.327727 23.145117 
L 51.217864 24.130616 
L 52.108 25.334944 
L 52.998136 26.796318 
L 53.888273 28.554458 
L 54.778409 30.647935 
L 55.668545 33.110327 
L 56.558682 35.965209 
L 57.448818 39.220369 
L 58.338955 42.862059 
L 59.229091 46.850568 
L 60.119227 51.118591 
L 61.009364 55.573647 
L 61.8995 60.104946 
L 62.789636 64.593907 
L 63.679773 68.926297 
L 64.569909 73.003466 
L 65.460045 76.750408 
L 66.350182 80.119465 
L 67.240318 83.089765 
L 68.130455 85.663447 
L 69.020591 87.860148 
L 69.910727 89.711121 
L 70.800864 91.253947 
L 71.691 92.528338 
L 72.581136 93.57315 
L 73.471273 94.424498 
L 74.361409 95.114743 
L 75.251545 95.672102 
L 76.141682 96.120685 
L 77.031818 96.48077 
L 77.921955 96.769203 
L 78.812091 96.99985 
L 79.702227 97.184037 
L 80.592364 97.330964 
L 81.4825 97.448067 
L 82.372636 97.541335 
L 83.262773 97.615579 
L 84.152909 97.674654 
L 85.043045 97.721641 
L 85.933182 97.759005 
L 86.823318 97.788709 
L 87.713455 97.81232 
L 88.603591 97.831085 
L 89.493727 97.845997 
L 90.383864 97.857846 
L 91.274 97.867261 
L 92.164136 97.874741 
L 93.054273 97.880683 
L 93.944409 97.885404 
L 94.834545 97.889154 
L 95.724682 97.892134 
L 96.614818 97.8945 
L 97.504955 97.89638 
L 98.395091 97.897874 
L 99.285227 97.89906 
L 100.175364 97.900002 
L 101.0655 97.900751 
L 101.955636 97.901345 
L 102.845773 97.901818 
L 103.735909 97.902193 
L 104.626045 97.902491 
L 105.516182 97.902728 
L 106.406318 97.902916 
L 107.296455 97.903065 
L 108.186591 97.903184 
L 109.076727 97.903278 
L 109.966864 97.903353 
L 110.857 97.903412 
L 111.747136 97.903459 
L 112.637273 97.903497 
L 113.527409 97.903527 
L 114.417545 97.90355 
L 115.307682 97.903569 
L 116.197818 97.903584 
L 117.087955 97.903596 
L 117.978091 97.903605 
L 118.868227 97.903612 
L 119.758364 97.903618 
L 120.6485 97.903622 
L 121.538636 97.903626 
L 122.428773 97.903629 
L 123.318909 97.903631 
L 124.209045 97.903632 
L 125.099182 97.903633 
L 125.989318 97.903634 
" style="fill:none;stroke:#92c5de;stroke-linecap:round;stroke-width:1.5;"/>
   </g>
   <g id="line2d_16">
    <path clip-path="url(#p90a5f42dd1)" d="M 36.975682 97.903636 
L 37.865818 97.903636 
L 38.755955 97.903636 
L 39.646091 97.903636 
L 40.536227 97.903636 
L 41.426364 97.903636 
L 42.3165 97.903636 
L 43.206636 97.903636 
L 44.096773 97.903636 
L 44.986909 97.903636 
L 45.877045 97.903636 
L 46.767182 97.903636 
L 47.657318 97.903636 
L 48.547455 97.903636 
L 49.437591 97.903636 
L 50.327727 97.903636 
L 51.217864 97.903636 
L 52.108 97.903636 
L 52.998136 97.903636 
L 53.888273 97.903636 
L 54.778409 97.903636 
L 55.668545 97.903636 
L 56.558682 97.903636 
L 57.448818 97.903636 
L 58.338955 97.903636 
L 59.229091 97.903636 
L 60.119227 97.903636 
L 61.009364 97.903636 
L 61.8995 97.903636 
L 62.789636 97.903636 
L 63.679773 97.903636 
L 64.569909 97.903636 
L 65.460045 97.903636 
L 66.350182 97.903636 
L 67.240318 97.903636 
L 68.130455 97.903636 
L 69.020591 97.903636 
L 69.910727 97.903636 
L 70.800864 97.903636 
L 71.691 97.903636 
L 72.581136 97.903636 
L 73.471273 97.903636 
L 74.361409 97.903636 
L 75.251545 97.903636 
L 76.141682 97.903636 
L 77.031818 97.903636 
L 77.921955 97.903636 
L 78.812091 97.903636 
L 79.702227 97.903636 
L 80.592364 97.903636 
L 81.4825 97.903636 
L 82.372636 97.903636 
L 83.262773 97.903636 
L 84.152909 97.903636 
L 85.043045 97.903636 
L 85.933182 97.903636 
L 86.823318 97.903636 
L 87.713455 97.903636 
L 88.603591 97.903636 
L 89.493727 97.903636 
L 90.383864 97.903636 
L 91.274 97.903636 
L 92.164136 97.903636 
L 93.054273 97.903636 
L 93.944409 97.903636 
L 94.834545 97.903636 
L 95.724682 97.903636 
L 96.614818 97.903636 
L 97.504955 97.903636 
L 98.395091 97.903636 
L 99.285227 97.903636 
L 100.175364 97.903636 
L 101.0655 97.903636 
L 101.955636 97.903636 
L 102.845773 97.903636 
L 103.735909 97.903636 
L 104.626045 97.903636 
L 105.516182 97.903636 
L 106.406318 97.903636 
L 107.296455 97.903636 
L 108.186591 97.903636 
L 109.076727 97.903636 
L 109.966864 97.903636 
L 110.857 97.903636 
L 111.747136 97.903636 
L 112.637273 97.903636 
L 113.527409 97.903636 
L 114.417545 97.903636 
L 115.307682 97.903636 
L 116.197818 97.903636 
L 117.087955 97.903636 
L 117.978091 97.903636 
L 118.868227 97.903636 
L 119.758364 97.903636 
L 120.6485 97.903636 
L 121.538636 97.903636 
L 122.428773 97.903636 
L 123.318909 97.903636 
L 124.209045 97.903636 
L 125.099182 97.903636 
L 125.989318 97.903636 
" style="fill:none;stroke:#92c5de;stroke-linecap:round;stroke-width:1.5;"/>
   </g>
   <g id="line2d_17">
    <path clip-path="url(#p90a5f42dd1)" d="M 36.975682 97.90255 
L 37.865818 97.902269 
L 38.755955 97.901917 
L 39.646091 97.901473 
L 40.536227 97.900915 
L 41.426364 97.900214 
L 42.3165 97.899334 
L 43.206636 97.89823 
L 44.096773 97.896845 
L 44.986909 97.89511 
L 45.877045 97.892939 
L 46.767182 97.890228 
L 47.657318 97.886849 
L 48.547455 97.882647 
L 49.437591 97.877437 
L 50.327727 97.871003 
L 51.217864 97.863095 
L 52.108 97.853431 
L 52.998136 97.841704 
L 53.888273 97.827597 
L 54.778409 97.810798 
L 55.668545 97.791038 
L 56.558682 97.76813 
L 57.448818 97.742009 
L 58.338955 97.712787 
L 59.229091 97.680782 
L 60.119227 97.646533 
L 61.009364 97.610784 
L 61.8995 97.574424 
L 62.789636 97.538402 
L 63.679773 97.503638 
L 64.569909 97.470921 
L 65.460045 97.440854 
L 66.350182 97.41382 
L 67.240318 97.389985 
L 68.130455 97.369333 
L 69.020591 97.351706 
L 69.910727 97.336853 
L 70.800864 97.324473 
L 71.691 97.314247 
L 72.581136 97.305863 
L 73.471273 97.299031 
L 74.361409 97.293493 
L 75.251545 97.289021 
L 76.141682 97.285422 
L 77.031818 97.282533 
L 77.921955 97.280219 
L 78.812091 97.278369 
L 79.702227 97.276892 
L 80.592364 97.275714 
L 81.4825 97.274776 
L 82.372636 97.27403 
L 83.262773 97.273436 
L 84.152909 97.272965 
L 85.043045 97.272592 
L 85.933182 97.272298 
L 86.823318 97.272065 
L 87.713455 97.271884 
L 88.603591 97.271743 
L 89.493727 97.271636 
L 90.383864 97.271557 
L 91.274 97.271502 
L 92.164136 97.271467 
L 93.054273 97.271451 
L 93.944409 97.271453 
L 94.834545 97.271473 
L 95.724682 97.271512 
L 96.614818 97.271572 
L 97.504955 97.271657 
L 98.395091 97.271771 
L 99.285227 97.27192 
L 100.175364 97.272111 
L 101.0655 97.272356 
L 101.955636 97.272666 
L 102.845773 97.273059 
L 103.735909 97.273554 
L 104.626045 97.274178 
L 105.516182 97.274963 
L 106.406318 97.275949 
L 107.296455 97.277186 
L 108.186591 97.278737 
L 109.076727 97.28068 
L 109.966864 97.283109 
L 110.857 97.286141 
L 111.747136 97.289915 
L 112.637273 97.294602 
L 113.527409 97.300402 
L 114.417545 97.307549 
L 115.307682 97.316309 
L 116.197818 97.326977 
L 117.087955 97.339869 
L 117.978091 97.355303 
L 118.868227 97.37357 
L 119.758364 97.394907 
L 120.6485 97.419444 
L 121.538636 97.447161 
L 122.428773 97.477846 
L 123.318909 97.511068 
L 124.209045 97.546179 
L 125.099182 97.582355 
L 125.989318 97.618663 
" style="fill:none;stroke:#333333;stroke-linecap:round;stroke-width:1.5;"/>
   </g>
   <g id="line2d_18">
    <path clip-path="url(#p90a5f42dd1)" d="M 36.975682 97.766889 
L 37.865818 97.731558 
L 38.755955 97.687124 
L 39.646091 97.631255 
L 40.536227 97.561032 
L 41.426364 97.472803 
L 42.3165 97.362008 
L 43.206636 97.222965 
L 44.096773 97.048615 
L 44.986909 96.830212 
L 45.877045 96.556976 
L 46.767182 96.215682 
L 47.657318 95.790228 
L 48.547455 95.261171 
L 49.437591 94.60531 
L 50.327727 93.79535 
L 51.217864 92.79979 
L 52.108 91.583167 
L 52.998136 90.106874 
L 53.888273 88.330785 
L 54.778409 86.215935 
L 55.668545 83.728405 
L 56.558682 80.844377 
L 57.448818 77.555985 
L 58.338955 73.877116 
L 59.229091 69.847889 
L 60.119227 65.536293 
L 61.009364 61.035756 
L 61.8995 56.458197 
L 62.789636 51.92341 
L 63.679773 47.546792 
L 64.569909 43.428 
L 65.460045 39.642808 
L 66.350182 36.23936 
L 67.240318 33.238741 
L 68.130455 30.63879 
L 69.020591 28.419671 
L 69.910727 26.54981 
L 70.800864 24.991246 
L 71.691 23.703861 
L 72.581136 22.648402 
L 73.471273 21.788387 
L 74.361409 21.091127 
L 75.251545 20.528118 
L 76.141682 20.075005 
L 77.031818 19.711307 
L 77.921955 19.420009 
L 78.812091 19.187108 
L 79.702227 19.001166 
L 80.592364 18.852897 
L 81.4825 18.734799 
L 82.372636 18.64083 
L 83.262773 18.566144 
L 84.152909 18.506866 
L 85.043045 18.4599 
L 85.933182 18.422786 
L 86.823318 18.393574 
L 87.713455 18.370723 
L 88.603591 18.353026 
L 89.493727 18.339548 
L 90.383864 18.329575 
L 91.274 18.322579 
L 92.164136 18.318187 
L 93.054273 18.316168 
L 93.944409 18.316413 
L 94.834545 18.318936 
L 95.724682 18.323871 
L 96.614818 18.33148 
L 97.504955 18.342167 
L 98.395091 18.356496 
L 99.285227 18.375228 
L 100.175364 18.399353 
L 101.0655 18.430144 
L 101.955636 18.469223 
L 102.845773 18.518644 
L 103.735909 18.580993 
L 104.626045 18.659522 
L 105.516182 18.758301 
L 106.406318 18.882417 
L 107.296455 19.038203 
L 108.186591 19.233523 
L 109.076727 19.4781 
L 109.966864 19.783892 
L 110.857 20.16552 
L 111.747136 20.640719 
L 112.637273 21.230782 
L 113.527409 21.96095 
L 114.417545 22.860649 
L 115.307682 23.963447 
L 116.197818 25.306544 
L 117.087955 26.929579 
L 117.978091 28.872498 
L 118.868227 31.172274 
L 119.758364 33.858409 
L 120.6485 36.947397 
L 121.538636 40.436767 
L 122.428773 44.299771 
L 123.318909 48.482151 
L 124.209045 52.902447 
L 125.099182 57.456738 
L 125.989318 62.02763 
" style="fill:none;stroke:#333333;stroke-linecap:round;stroke-width:1.5;"/>
   </g>
   <g id="line2d_19">
    <path clip-path="url(#p90a5f42dd1)" d="M 36.975682 97.903525 
L 37.865818 97.903496 
L 38.755955 97.90346 
L 39.646091 97.903415 
L 40.536227 97.903358 
L 41.426364 97.903286 
L 42.3165 97.903196 
L 43.206636 97.903083 
L 44.096773 97.902941 
L 44.986909 97.902764 
L 45.877045 97.902542 
L 46.767182 97.902264 
L 47.657318 97.901919 
L 48.547455 97.901488 
L 49.437591 97.900955 
L 50.327727 97.900297 
L 51.217864 97.899488 
L 52.108 97.898499 
L 52.998136 97.897299 
L 53.888273 97.895855 
L 54.778409 97.894136 
L 55.668545 97.892114 
L 56.558682 97.88977 
L 57.448818 97.887097 
L 58.338955 97.884107 
L 59.229091 97.880832 
L 60.119227 97.877327 
L 61.009364 97.873669 
L 61.8995 97.869948 
L 62.789636 97.866262 
L 63.679773 97.862705 
L 64.569909 97.859357 
L 65.460045 97.85628 
L 66.350182 97.853514 
L 67.240318 97.851075 
L 68.130455 97.848961 
L 69.020591 97.847158 
L 69.910727 97.845638 
L 70.800864 97.844371 
L 71.691 97.843325 
L 72.581136 97.842467 
L 73.471273 97.841768 
L 74.361409 97.841201 
L 75.251545 97.840743 
L 76.141682 97.840375 
L 77.031818 97.840079 
L 77.921955 97.839842 
L 78.812091 97.839653 
L 79.702227 97.839502 
L 80.592364 97.839382 
L 81.4825 97.839286 
L 82.372636 97.839209 
L 83.262773 97.839148 
L 84.152909 97.8391 
L 85.043045 97.839062 
L 85.933182 97.839032 
L 86.823318 97.839008 
L 87.713455 97.83899 
L 88.603591 97.838975 
L 89.493727 97.838964 
L 90.383864 97.838956 
L 91.274 97.83895 
L 92.164136 97.838947 
L 93.054273 97.838945 
L 93.944409 97.838945 
L 94.834545 97.838947 
L 95.724682 97.838952 
L 96.614818 97.838958 
L 97.504955 97.838966 
L 98.395091 97.838978 
L 99.285227 97.838993 
L 100.175364 97.839013 
L 101.0655 97.839038 
L 101.955636 97.83907 
L 102.845773 97.83911 
L 103.735909 97.83916 
L 104.626045 97.839224 
L 105.516182 97.839305 
L 106.406318 97.839406 
L 107.296455 97.839532 
L 108.186591 97.839691 
L 109.076727 97.83989 
L 109.966864 97.840138 
L 110.857 97.840448 
L 111.747136 97.840835 
L 112.637273 97.841314 
L 113.527409 97.841908 
L 114.417545 97.842639 
L 115.307682 97.843536 
L 116.197818 97.844627 
L 117.087955 97.845946 
L 117.978091 97.847526 
L 118.868227 97.849395 
L 119.758364 97.851578 
L 120.6485 97.854089 
L 121.538636 97.856926 
L 122.428773 97.860066 
L 123.318909 97.863465 
L 124.209045 97.867058 
L 125.099182 97.87076 
L 125.989318 97.874475 
" style="fill:none;stroke:#333333;stroke-linecap:round;stroke-width:1.5;"/>
   </g>
  </g>
 </g>
 <defs>
  <clipPath id="p90a5f42dd1">
   <rect height="88.36" width="97.915" x="32.525" y="13.56"/>
  </clipPath>
 </defs>
</svg>
