<?xml version="1.0" encoding="utf-8" standalone="no"?>
<!DOCTYPE svg PUBLIC "-//W3C//DTD SVG 1.1//EN"
  "http://www.w3.org/Graphics/SVG/1.1/DTD/svg11.dtd">
<!-- Created with matplotlib (http://matplotlib.org/) -->
<svg height="144pt" version="1.1" viewBox="0 0 144 144" width="144pt" xmlns="http://www.w3.org/2000/svg" xmlns:xlink="http://www.w3.org/1999/xlink">
 <defs>
  <style type="text/css">
*{stroke-linecap:butt;stroke-linejoin:round;}
  </style>
 </defs>
 <g id="figure_1">
  <g id="patch_1">
   <path d="M 0 144 
L 144 144 
L 144 0 
L 0 0 
z
" style="fill:#ffffff;"/>
  </g>
  <g id="axes_1">
   <g id="patch_2">
    <path d="M 32.525 101.92 
L 130.44 101.92 
L 130.44 13.56 
L 32.525 13.56 
z
" style="fill:#ffffff;"/>
   </g>
   <g id="matplotlib.axis_1">
    <g id="xtick_1">
     <g id="line2d_1">
      <defs>
       <path d="M 0 0 
L 0 3.5 
" id="m732dd7279d" style="stroke:#262626;stroke-width:0.8;"/>
      </defs>
      <g>
       <use style="fill:#262626;stroke:#262626;stroke-width:0.8;" x="36.975682" xlink:href="#m732dd7279d" y="101.92"/>
      </g>
     </g>
     <g id="text_1">
      <!-- 2 -->
      <defs>
       <path d="M 50.34375 8.453125 
L 50.34375 0 
L 3.03125 0 
Q 2.9375 3.171875 4.046875 6.109375 
Q 5.859375 10.9375 9.828125 15.625 
Q 13.8125 20.3125 21.34375 26.46875 
Q 33.015625 36.03125 37.109375 41.625 
Q 41.21875 47.21875 41.21875 52.203125 
Q 41.21875 57.421875 37.46875 61 
Q 33.734375 64.59375 27.734375 64.59375 
Q 21.390625 64.59375 17.578125 60.78125 
Q 13.765625 56.984375 13.71875 50.25 
L 4.6875 51.171875 
Q 5.609375 61.28125 11.65625 66.578125 
Q 17.71875 71.875 27.9375 71.875 
Q 38.234375 71.875 44.234375 66.15625 
Q 50.25 60.453125 50.25 52 
Q 50.25 47.703125 48.484375 43.546875 
Q 46.734375 39.40625 42.65625 34.8125 
Q 38.578125 30.21875 29.109375 22.21875 
Q 21.1875 15.578125 18.9375 13.203125 
Q 16.703125 10.84375 15.234375 8.453125 
z
" id="ArialMT-32"/>
      </defs>
      <g style="fill:#262626;" transform="translate(33.917166 116.793594)scale(0.11 -0.11)">
       <use xlink:href="#ArialMT-32"/>
      </g>
     </g>
    </g>
    <g id="xtick_2">
     <g id="line2d_2">
      <g>
       <use style="fill:#262626;stroke:#262626;stroke-width:0.8;" x="54.778409" xlink:href="#m732dd7279d" y="101.92"/>
      </g>
     </g>
     <g id="text_2">
      <!-- 4 -->
      <defs>
       <path d="M 32.328125 0 
L 32.328125 17.140625 
L 1.265625 17.140625 
L 1.265625 25.203125 
L 33.9375 71.578125 
L 41.109375 71.578125 
L 41.109375 25.203125 
L 50.78125 25.203125 
L 50.78125 17.140625 
L 41.109375 17.140625 
L 41.109375 0 
z
M 32.328125 25.203125 
L 32.328125 57.46875 
L 9.90625 25.203125 
z
" id="ArialMT-34"/>
      </defs>
      <g style="fill:#262626;" transform="translate(51.719893 116.793594)scale(0.11 -0.11)">
       <use xlink:href="#ArialMT-34"/>
      </g>
     </g>
    </g>
    <g id="xtick_3">
     <g id="line2d_3">
      <g>
       <use style="fill:#262626;stroke:#262626;stroke-width:0.8;" x="72.581136" xlink:href="#m732dd7279d" y="101.92"/>
      </g>
     </g>
     <g id="text_3">
      <!-- 6 -->
      <defs>
       <path d="M 49.75 54.046875 
L 41.015625 53.375 
Q 39.84375 58.546875 37.703125 60.890625 
Q 34.125 64.65625 28.90625 64.65625 
Q 24.703125 64.65625 21.53125 62.3125 
Q 17.390625 59.28125 14.984375 53.46875 
Q 12.59375 47.65625 12.5 36.921875 
Q 15.671875 41.75 20.265625 44.09375 
Q 24.859375 46.4375 29.890625 46.4375 
Q 38.671875 46.4375 44.84375 39.96875 
Q 51.03125 33.5 51.03125 23.25 
Q 51.03125 16.5 48.125 10.71875 
Q 45.21875 4.9375 40.140625 1.859375 
Q 35.0625 -1.21875 28.609375 -1.21875 
Q 17.625 -1.21875 10.6875 6.859375 
Q 3.765625 14.9375 3.765625 33.5 
Q 3.765625 54.25 11.421875 63.671875 
Q 18.109375 71.875 29.4375 71.875 
Q 37.890625 71.875 43.28125 67.140625 
Q 48.6875 62.40625 49.75 54.046875 
z
M 13.875 23.1875 
Q 13.875 18.65625 15.796875 14.5 
Q 17.71875 10.359375 21.1875 8.171875 
Q 24.65625 6 28.46875 6 
Q 34.03125 6 38.03125 10.484375 
Q 42.046875 14.984375 42.046875 22.703125 
Q 42.046875 30.125 38.078125 34.390625 
Q 34.125 38.671875 28.125 38.671875 
Q 22.171875 38.671875 18.015625 34.390625 
Q 13.875 30.125 13.875 23.1875 
z
" id="ArialMT-36"/>
      </defs>
      <g style="fill:#262626;" transform="translate(69.522621 116.793594)scale(0.11 -0.11)">
       <use xlink:href="#ArialMT-36"/>
      </g>
     </g>
    </g>
    <g id="xtick_4">
     <g id="line2d_4">
      <g>
       <use style="fill:#262626;stroke:#262626;stroke-width:0.8;" x="90.383864" xlink:href="#m732dd7279d" y="101.92"/>
      </g>
     </g>
     <g id="text_4">
      <!-- 8 -->
      <defs>
       <path d="M 17.671875 38.8125 
Q 12.203125 40.828125 9.5625 44.53125 
Q 6.9375 48.25 6.9375 53.421875 
Q 6.9375 61.234375 12.546875 66.546875 
Q 18.171875 71.875 27.484375 71.875 
Q 36.859375 71.875 42.578125 66.421875 
Q 48.296875 60.984375 48.296875 53.171875 
Q 48.296875 48.1875 45.671875 44.5 
Q 43.0625 40.828125 37.75 38.8125 
Q 44.34375 36.671875 47.78125 31.875 
Q 51.21875 27.09375 51.21875 20.453125 
Q 51.21875 11.28125 44.71875 5.03125 
Q 38.234375 -1.21875 27.640625 -1.21875 
Q 17.046875 -1.21875 10.546875 5.046875 
Q 4.046875 11.328125 4.046875 20.703125 
Q 4.046875 27.6875 7.59375 32.390625 
Q 11.140625 37.109375 17.671875 38.8125 
z
M 15.921875 53.71875 
Q 15.921875 48.640625 19.1875 45.40625 
Q 22.46875 42.1875 27.6875 42.1875 
Q 32.765625 42.1875 36.015625 45.375 
Q 39.265625 48.578125 39.265625 53.21875 
Q 39.265625 58.0625 35.90625 61.359375 
Q 32.5625 64.65625 27.59375 64.65625 
Q 22.5625 64.65625 19.234375 61.421875 
Q 15.921875 58.203125 15.921875 53.71875 
z
M 13.09375 20.65625 
Q 13.09375 16.890625 14.875 13.375 
Q 16.65625 9.859375 20.171875 7.921875 
Q 23.6875 6 27.734375 6 
Q 34.03125 6 38.125 10.046875 
Q 42.234375 14.109375 42.234375 20.359375 
Q 42.234375 26.703125 38.015625 30.859375 
Q 33.796875 35.015625 27.4375 35.015625 
Q 21.234375 35.015625 17.15625 30.90625 
Q 13.09375 26.8125 13.09375 20.65625 
z
" id="ArialMT-38"/>
      </defs>
      <g style="fill:#262626;" transform="translate(87.325348 116.793594)scale(0.11 -0.11)">
       <use xlink:href="#ArialMT-38"/>
      </g>
     </g>
    </g>
    <g id="xtick_5">
     <g id="line2d_5">
      <g>
       <use style="fill:#262626;stroke:#262626;stroke-width:0.8;" x="108.186591" xlink:href="#m732dd7279d" y="101.92"/>
      </g>
     </g>
     <g id="text_5">
      <!-- 10 -->
      <defs>
       <path d="M 37.25 0 
L 28.46875 0 
L 28.46875 56 
Q 25.296875 52.984375 20.140625 49.953125 
Q 14.984375 46.921875 10.890625 45.40625 
L 10.890625 53.90625 
Q 18.265625 57.375 23.78125 62.296875 
Q 29.296875 67.234375 31.59375 71.875 
L 37.25 71.875 
z
" id="ArialMT-31"/>
       <path d="M 4.15625 35.296875 
Q 4.15625 48 6.765625 55.734375 
Q 9.375 63.484375 14.515625 67.671875 
Q 19.671875 71.875 27.484375 71.875 
Q 33.25 71.875 37.59375 69.546875 
Q 41.9375 67.234375 44.765625 62.859375 
Q 47.609375 58.5 49.21875 52.21875 
Q 50.828125 45.953125 50.828125 35.296875 
Q 50.828125 22.703125 48.234375 14.96875 
Q 45.65625 7.234375 40.5 3 
Q 35.359375 -1.21875 27.484375 -1.21875 
Q 17.140625 -1.21875 11.234375 6.203125 
Q 4.15625 15.140625 4.15625 35.296875 
z
M 13.1875 35.296875 
Q 13.1875 17.671875 17.3125 11.828125 
Q 21.4375 6 27.484375 6 
Q 33.546875 6 37.671875 11.859375 
Q 41.796875 17.71875 41.796875 35.296875 
Q 41.796875 52.984375 37.671875 58.78125 
Q 33.546875 64.59375 27.390625 64.59375 
Q 21.34375 64.59375 17.71875 59.46875 
Q 13.1875 52.9375 13.1875 35.296875 
z
" id="ArialMT-30"/>
      </defs>
      <g style="fill:#262626;" transform="translate(102.06956 116.793594)scale(0.11 -0.11)">
       <use xlink:href="#ArialMT-31"/>
       <use x="55.615234" xlink:href="#ArialMT-30"/>
      </g>
     </g>
    </g>
    <g id="xtick_6">
     <g id="line2d_6">
      <g>
       <use style="fill:#262626;stroke:#262626;stroke-width:0.8;" x="125.989318" xlink:href="#m732dd7279d" y="101.92"/>
      </g>
     </g>
     <g id="text_6">
      <!-- 12 -->
      <g style="fill:#262626;" transform="translate(119.872287 116.793594)scale(0.11 -0.11)">
       <use xlink:href="#ArialMT-31"/>
       <use x="55.615234" xlink:href="#ArialMT-32"/>
      </g>
     </g>
    </g>
    <g id="text_7">
     <!-- pH -->
     <defs>
      <path d="M 6.59375 -19.875 
L 6.59375 51.859375 
L 14.59375 51.859375 
L 14.59375 45.125 
Q 17.4375 49.078125 21 51.046875 
Q 24.5625 53.03125 29.640625 53.03125 
Q 36.28125 53.03125 41.359375 49.609375 
Q 46.4375 46.1875 49.015625 39.953125 
Q 51.609375 33.734375 51.609375 26.3125 
Q 51.609375 18.359375 48.75 11.984375 
Q 45.90625 5.609375 40.453125 2.21875 
Q 35.015625 -1.171875 29 -1.171875 
Q 24.609375 -1.171875 21.109375 0.6875 
Q 17.625 2.546875 15.375 5.375 
L 15.375 -19.875 
z
M 14.546875 25.640625 
Q 14.546875 15.625 18.59375 10.84375 
Q 22.65625 6.0625 28.421875 6.0625 
Q 34.28125 6.0625 38.453125 11.015625 
Q 42.625 15.96875 42.625 26.375 
Q 42.625 36.28125 38.546875 41.203125 
Q 34.46875 46.140625 28.8125 46.140625 
Q 23.1875 46.140625 18.859375 40.890625 
Q 14.546875 35.640625 14.546875 25.640625 
z
" id="ArialMT-70"/>
      <path d="M 8.015625 0 
L 8.015625 71.578125 
L 17.484375 71.578125 
L 17.484375 42.1875 
L 54.6875 42.1875 
L 54.6875 71.578125 
L 64.15625 71.578125 
L 64.15625 0 
L 54.6875 0 
L 54.6875 33.734375 
L 17.484375 33.734375 
L 17.484375 0 
z
" id="ArialMT-48"/>
     </defs>
     <g style="fill:#262626;" transform="translate(74.451953 130.853437)scale(0.11 -0.11)">
      <use xlink:href="#ArialMT-70"/>
      <use x="55.615234" xlink:href="#ArialMT-48"/>
     </g>
    </g>
   </g>
   <g id="matplotlib.axis_2">
    <g id="ytick_1">
     <g id="line2d_7">
      <defs>
       <path d="M 0 0 
L -3.5 0 
" id="mda12139498" style="stroke:#262626;stroke-width:0.8;"/>
      </defs>
      <g>
       <use style="fill:#262626;stroke:#262626;stroke-width:0.8;" x="32.525" xlink:href="#mda12139498" y="97.903636"/>
      </g>
     </g>
    </g>
    <g id="ytick_2">
     <g id="line2d_8">
      <g>
       <use style="fill:#262626;stroke:#262626;stroke-width:0.8;" x="32.525" xlink:href="#mda12139498" y="17.576364"/>
      </g>
     </g>
    </g>
    <g id="text_8">
     <!-- Population -->
     <defs>
      <path d="M 7.71875 0 
L 7.71875 71.578125 
L 34.71875 71.578125 
Q 41.84375 71.578125 45.609375 70.90625 
Q 50.875 70.015625 54.4375 67.546875 
Q 58.015625 65.09375 60.1875 60.640625 
Q 62.359375 56.203125 62.359375 50.875 
Q 62.359375 41.75 56.546875 35.421875 
Q 50.734375 29.109375 35.546875 29.109375 
L 17.1875 29.109375 
L 17.1875 0 
z
M 17.1875 37.546875 
L 35.6875 37.546875 
Q 44.875 37.546875 48.734375 40.96875 
Q 52.59375 44.390625 52.59375 50.59375 
Q 52.59375 55.078125 50.3125 58.265625 
Q 48.046875 61.46875 44.34375 62.5 
Q 41.9375 63.140625 35.5 63.140625 
L 17.1875 63.140625 
z
" id="ArialMT-50"/>
      <path d="M 3.328125 25.921875 
Q 3.328125 40.328125 11.328125 47.265625 
Q 18.015625 53.03125 27.640625 53.03125 
Q 38.328125 53.03125 45.109375 46.015625 
Q 51.90625 39.015625 51.90625 26.65625 
Q 51.90625 16.65625 48.90625 10.90625 
Q 45.90625 5.171875 40.15625 2 
Q 34.421875 -1.171875 27.640625 -1.171875 
Q 16.75 -1.171875 10.03125 5.8125 
Q 3.328125 12.796875 3.328125 25.921875 
z
M 12.359375 25.921875 
Q 12.359375 15.96875 16.703125 11.015625 
Q 21.046875 6.0625 27.640625 6.0625 
Q 34.1875 6.0625 38.53125 11.03125 
Q 42.875 16.015625 42.875 26.21875 
Q 42.875 35.84375 38.5 40.796875 
Q 34.125 45.75 27.640625 45.75 
Q 21.046875 45.75 16.703125 40.8125 
Q 12.359375 35.890625 12.359375 25.921875 
z
" id="ArialMT-6f"/>
      <path d="M 40.578125 0 
L 40.578125 7.625 
Q 34.515625 -1.171875 24.125 -1.171875 
Q 19.53125 -1.171875 15.546875 0.578125 
Q 11.578125 2.34375 9.640625 5 
Q 7.71875 7.671875 6.9375 11.53125 
Q 6.390625 14.109375 6.390625 19.734375 
L 6.390625 51.859375 
L 15.1875 51.859375 
L 15.1875 23.09375 
Q 15.1875 16.21875 15.71875 13.8125 
Q 16.546875 10.359375 19.234375 8.375 
Q 21.921875 6.390625 25.875 6.390625 
Q 29.828125 6.390625 33.296875 8.421875 
Q 36.765625 10.453125 38.203125 13.9375 
Q 39.65625 17.4375 39.65625 24.078125 
L 39.65625 51.859375 
L 48.4375 51.859375 
L 48.4375 0 
z
" id="ArialMT-75"/>
      <path d="M 6.390625 0 
L 6.390625 71.578125 
L 15.1875 71.578125 
L 15.1875 0 
z
" id="ArialMT-6c"/>
      <path d="M 40.4375 6.390625 
Q 35.546875 2.25 31.03125 0.53125 
Q 26.515625 -1.171875 21.34375 -1.171875 
Q 12.796875 -1.171875 8.203125 3 
Q 3.609375 7.171875 3.609375 13.671875 
Q 3.609375 17.484375 5.34375 20.625 
Q 7.078125 23.78125 9.890625 25.6875 
Q 12.703125 27.59375 16.21875 28.5625 
Q 18.796875 29.25 24.03125 29.890625 
Q 34.671875 31.15625 39.703125 32.90625 
Q 39.75 34.71875 39.75 35.203125 
Q 39.75 40.578125 37.25 42.78125 
Q 33.890625 45.75 27.25 45.75 
Q 21.046875 45.75 18.09375 43.578125 
Q 15.140625 41.40625 13.71875 35.890625 
L 5.125 37.0625 
Q 6.296875 42.578125 8.984375 45.96875 
Q 11.671875 49.359375 16.75 51.1875 
Q 21.828125 53.03125 28.515625 53.03125 
Q 35.15625 53.03125 39.296875 51.46875 
Q 43.453125 49.90625 45.40625 47.53125 
Q 47.359375 45.171875 48.140625 41.546875 
Q 48.578125 39.3125 48.578125 33.453125 
L 48.578125 21.734375 
Q 48.578125 9.46875 49.140625 6.21875 
Q 49.703125 2.984375 51.375 0 
L 42.1875 0 
Q 40.828125 2.734375 40.4375 6.390625 
z
M 39.703125 26.03125 
Q 34.90625 24.078125 25.34375 22.703125 
Q 19.921875 21.921875 17.671875 20.9375 
Q 15.4375 19.96875 14.203125 18.09375 
Q 12.984375 16.21875 12.984375 13.921875 
Q 12.984375 10.40625 15.640625 8.0625 
Q 18.3125 5.71875 23.4375 5.71875 
Q 28.515625 5.71875 32.46875 7.9375 
Q 36.421875 10.15625 38.28125 14.015625 
Q 39.703125 17 39.703125 22.796875 
z
" id="ArialMT-61"/>
      <path d="M 25.78125 7.859375 
L 27.046875 0.09375 
Q 23.34375 -0.6875 20.40625 -0.6875 
Q 15.625 -0.6875 12.984375 0.828125 
Q 10.359375 2.34375 9.28125 4.8125 
Q 8.203125 7.28125 8.203125 15.1875 
L 8.203125 45.015625 
L 1.765625 45.015625 
L 1.765625 51.859375 
L 8.203125 51.859375 
L 8.203125 64.703125 
L 16.9375 69.96875 
L 16.9375 51.859375 
L 25.78125 51.859375 
L 25.78125 45.015625 
L 16.9375 45.015625 
L 16.9375 14.703125 
Q 16.9375 10.9375 17.40625 9.859375 
Q 17.875 8.796875 18.921875 8.15625 
Q 19.96875 7.515625 21.921875 7.515625 
Q 23.390625 7.515625 25.78125 7.859375 
z
" id="ArialMT-74"/>
      <path d="M 6.640625 61.46875 
L 6.640625 71.578125 
L 15.4375 71.578125 
L 15.4375 61.46875 
z
M 6.640625 0 
L 6.640625 51.859375 
L 15.4375 51.859375 
L 15.4375 0 
z
" id="ArialMT-69"/>
      <path d="M 6.59375 0 
L 6.59375 51.859375 
L 14.5 51.859375 
L 14.5 44.484375 
Q 20.21875 53.03125 31 53.03125 
Q 35.6875 53.03125 39.625 51.34375 
Q 43.5625 49.65625 45.515625 46.921875 
Q 47.46875 44.1875 48.25 40.4375 
Q 48.734375 37.984375 48.734375 31.890625 
L 48.734375 0 
L 39.9375 0 
L 39.9375 31.546875 
Q 39.9375 36.921875 38.90625 39.578125 
Q 37.890625 42.234375 35.28125 43.8125 
Q 32.671875 45.40625 29.15625 45.40625 
Q 23.53125 45.40625 19.453125 41.84375 
Q 15.375 38.28125 15.375 28.328125 
L 15.375 0 
z
" id="ArialMT-6e"/>
     </defs>
     <g style="fill:#262626;" transform="translate(19.33875 83.731797)rotate(-90)scale(0.11 -0.11)">
      <use xlink:href="#ArialMT-50"/>
      <use x="66.699219" xlink:href="#ArialMT-6f"/>
      <use x="122.314453" xlink:href="#ArialMT-70"/>
      <use x="177.929688" xlink:href="#ArialMT-75"/>
      <use x="233.544922" xlink:href="#ArialMT-6c"/>
      <use x="255.761719" xlink:href="#ArialMT-61"/>
      <use x="311.376953" xlink:href="#ArialMT-74"/>
      <use x="339.160156" xlink:href="#ArialMT-69"/>
      <use x="361.376953" xlink:href="#ArialMT-6f"/>
      <use x="416.992188" xlink:href="#ArialMT-6e"/>
     </g>
    </g>
   </g>
   <g id="patch_3">
    <path d="M 32.525 101.92 
L 32.525 13.56 
" style="fill:none;stroke:#262626;stroke-linecap:square;stroke-linejoin:miter;stroke-width:0.8;"/>
   </g>
   <g id="patch_4">
    <path d="M 32.525 101.92 
L 130.44 101.92 
" style="fill:none;stroke:#262626;stroke-linecap:square;stroke-linejoin:miter;stroke-width:0.8;"/>
   </g>
   <g id="line2d_9">
    <path clip-path="url(#p7e8bd8db54)" d="M 36.975682 97.903636 
L 37.865818 97.903636 
L 38.755955 97.903636 
L 39.646091 97.903636 
L 40.536227 97.903636 
L 41.426364 97.903636 
L 42.3165 97.903636 
L 43.206636 97.903636 
L 44.096773 97.903636 
L 44.986909 97.903636 
L 45.877045 97.903636 
L 46.767182 97.903636 
L 47.657318 97.903636 
L 48.547455 97.903636 
L 49.437591 97.903636 
L 50.327727 97.903636 
L 51.217864 97.903636 
L 52.108 97.903636 
L 52.998136 97.903636 
L 53.888273 97.903636 
L 54.778409 97.903636 
L 55.668545 97.903636 
L 56.558682 97.903636 
L 57.448818 97.903636 
L 58.338955 97.903636 
L 59.229091 97.903636 
L 60.119227 97.903636 
L 61.009364 97.903636 
L 61.8995 97.903636 
L 62.789636 97.903636 
L 63.679773 97.903636 
L 64.569909 97.903636 
L 65.460045 97.903636 
L 66.350182 97.903636 
L 67.240318 97.903636 
L 68.130455 97.903636 
L 69.020591 97.903636 
L 69.910727 97.903636 
L 70.800864 97.903636 
L 71.691 97.903636 
L 72.581136 97.903636 
L 73.471273 97.903636 
L 74.361409 97.903636 
L 75.251545 97.903636 
L 76.141682 97.903636 
L 77.031818 97.903636 
L 77.921955 97.903636 
L 78.812091 97.903636 
L 79.702227 97.903636 
L 80.592364 97.903636 
L 81.4825 97.903636 
L 82.372636 97.903636 
L 83.262773 97.903636 
L 84.152909 97.903636 
L 85.043045 97.903636 
L 85.933182 97.903636 
L 86.823318 97.903636 
L 87.713455 97.903636 
L 88.603591 97.903636 
L 89.493727 97.903636 
L 90.383864 97.903636 
L 91.274 97.903636 
L 92.164136 97.903636 
L 93.054273 97.903636 
L 93.944409 97.903636 
L 94.834545 97.903636 
L 95.724682 97.903636 
L 96.614818 97.903636 
L 97.504955 97.903636 
L 98.395091 97.903636 
L 99.285227 97.903636 
L 100.175364 97.903636 
L 101.0655 97.903636 
L 101.955636 97.903636 
L 102.845773 97.903636 
L 103.735909 97.903636 
L 104.626045 97.903636 
L 105.516182 97.903636 
L 106.406318 97.903636 
L 107.296455 97.903636 
L 108.186591 97.903636 
L 109.076727 97.903636 
L 109.966864 97.903636 
L 110.857 97.903636 
L 111.747136 97.903636 
L 112.637273 97.903636 
L 113.527409 97.903636 
L 114.417545 97.903636 
L 115.307682 97.903636 
L 116.197818 97.903636 
L 117.087955 97.903636 
L 117.978091 97.903636 
L 118.868227 97.903636 
L 119.758364 97.903636 
L 120.6485 97.903636 
L 121.538636 97.903636 
L 122.428773 97.903636 
L 123.318909 97.903636 
L 124.209045 97.903636 
L 125.099182 97.903636 
L 125.989318 97.903636 
" style="fill:none;stroke:#0d2844;stroke-linecap:round;stroke-width:1.5;"/>
   </g>
   <g id="line2d_10">
    <path clip-path="url(#p7e8bd8db54)" d="M 36.975682 97.903636 
L 37.865818 97.903636 
L 38.755955 97.903636 
L 39.646091 97.903636 
L 40.536227 97.903636 
L 41.426364 97.903636 
L 42.3165 97.903636 
L 43.206636 97.903636 
L 44.096773 97.903636 
L 44.986909 97.903636 
L 45.877045 97.903636 
L 46.767182 97.903636 
L 47.657318 97.903636 
L 48.547455 97.903636 
L 49.437591 97.903636 
L 50.327727 97.903636 
L 51.217864 97.903636 
L 52.108 97.903636 
L 52.998136 97.903636 
L 53.888273 97.903636 
L 54.778409 97.903636 
L 55.668545 97.903636 
L 56.558682 97.903636 
L 57.448818 97.903636 
L 58.338955 97.903636 
L 59.229091 97.903636 
L 60.119227 97.903636 
L 61.009364 97.903636 
L 61.8995 97.903636 
L 62.789636 97.903636 
L 63.679773 97.903636 
L 64.569909 97.903636 
L 65.460045 97.903636 
L 66.350182 97.903636 
L 67.240318 97.903636 
L 68.130455 97.903636 
L 69.020591 97.903636 
L 69.910727 97.903636 
L 70.800864 97.903636 
L 71.691 97.903636 
L 72.581136 97.903636 
L 73.471273 97.903636 
L 74.361409 97.903636 
L 75.251545 97.903636 
L 76.141682 97.903636 
L 77.031818 97.903636 
L 77.921955 97.903636 
L 78.812091 97.903636 
L 79.702227 97.903636 
L 80.592364 97.903636 
L 81.4825 97.903636 
L 82.372636 97.903636 
L 83.262773 97.903636 
L 84.152909 97.903636 
L 85.043045 97.903636 
L 85.933182 97.903636 
L 86.823318 97.903636 
L 87.713455 97.903636 
L 88.603591 97.903636 
L 89.493727 97.903636 
L 90.383864 97.903636 
L 91.274 97.903636 
L 92.164136 97.903636 
L 93.054273 97.903636 
L 93.944409 97.903636 
L 94.834545 97.903636 
L 95.724682 97.903636 
L 96.614818 97.903636 
L 97.504955 97.903636 
L 98.395091 97.903636 
L 99.285227 97.903636 
L 100.175364 97.903636 
L 101.0655 97.903636 
L 101.955636 97.903636 
L 102.845773 97.903636 
L 103.735909 97.903636 
L 104.626045 97.903636 
L 105.516182 97.903636 
L 106.406318 97.903636 
L 107.296455 97.903636 
L 108.186591 97.903636 
L 109.076727 97.903636 
L 109.966864 97.903636 
L 110.857 97.903636 
L 111.747136 97.903636 
L 112.637273 97.903636 
L 113.527409 97.903636 
L 114.417545 97.903636 
L 115.307682 97.903636 
L 116.197818 97.903636 
L 117.087955 97.903636 
L 117.978091 97.903636 
L 118.868227 97.903636 
L 119.758364 97.903636 
L 120.6485 97.903636 
L 121.538636 97.903636 
L 122.428773 97.903636 
L 123.318909 97.903636 
L 124.209045 97.903636 
L 125.099182 97.903636 
L 125.989318 97.903636 
" style="fill:none;stroke:#2166ac;stroke-linecap:round;stroke-width:1.5;"/>
   </g>
   <g id="line2d_11">
    <path clip-path="url(#p7e8bd8db54)" d="M 36.975682 97.903636 
L 37.865818 97.903636 
L 38.755955 97.903636 
L 39.646091 97.903636 
L 40.536227 97.903636 
L 41.426364 97.903636 
L 42.3165 97.903636 
L 43.206636 97.903636 
L 44.096773 97.903636 
L 44.986909 97.903636 
L 45.877045 97.903636 
L 46.767182 97.903636 
L 47.657318 97.903636 
L 48.547455 97.903636 
L 49.437591 97.903636 
L 50.327727 97.903636 
L 51.217864 97.903636 
L 52.108 97.903636 
L 52.998136 97.903636 
L 53.888273 97.903636 
L 54.778409 97.903636 
L 55.668545 97.903636 
L 56.558682 97.903636 
L 57.448818 97.903636 
L 58.338955 97.903636 
L 59.229091 97.903636 
L 60.119227 97.903636 
L 61.009364 97.903636 
L 61.8995 97.903636 
L 62.789636 97.903636 
L 63.679773 97.903636 
L 64.569909 97.903636 
L 65.460045 97.903636 
L 66.350182 97.903636 
L 67.240318 97.903636 
L 68.130455 97.903636 
L 69.020591 97.903636 
L 69.910727 97.903636 
L 70.800864 97.903636 
L 71.691 97.903636 
L 72.581136 97.903636 
L 73.471273 97.903636 
L 74.361409 97.903636 
L 75.251545 97.903636 
L 76.141682 97.903636 
L 77.031818 97.903636 
L 77.921955 97.903636 
L 78.812091 97.903636 
L 79.702227 97.903636 
L 80.592364 97.903636 
L 81.4825 97.903636 
L 82.372636 97.903636 
L 83.262773 97.903636 
L 84.152909 97.903636 
L 85.043045 97.903636 
L 85.933182 97.903636 
L 86.823318 97.903636 
L 87.713455 97.903636 
L 88.603591 97.903636 
L 89.493727 97.903636 
L 90.383864 97.903636 
L 91.274 97.903636 
L 92.164136 97.903636 
L 93.054273 97.903636 
L 93.944409 97.903636 
L 94.834545 97.903636 
L 95.724682 97.903636 
L 96.614818 97.903636 
L 97.504955 97.903636 
L 98.395091 97.903636 
L 99.285227 97.903636 
L 100.175364 97.903636 
L 101.0655 97.903636 
L 101.955636 97.903636 
L 102.845773 97.903636 
L 103.735909 97.903636 
L 104.626045 97.903636 
L 105.516182 97.903636 
L 106.406318 97.903636 
L 107.296455 97.903636 
L 108.186591 97.903636 
L 109.076727 97.903636 
L 109.966864 97.903636 
L 110.857 97.903636 
L 111.747136 97.903636 
L 112.637273 97.903636 
L 113.527409 97.903635 
L 114.417545 97.903635 
L 115.307682 97.903635 
L 116.197818 97.903634 
L 117.087955 97.903633 
L 117.978091 97.903633 
L 118.868227 97.903632 
L 119.758364 97.90363 
L 120.6485 97.903629 
L 121.538636 97.903626 
L 122.428773 97.903624 
L 123.318909 97.90362 
L 124.209045 97.903616 
L 125.099182 97.903611 
L 125.989318 97.903604 
" style="fill:none;stroke:#d6604d;stroke-linecap:round;stroke-width:1.5;"/>
   </g>
   <g id="line2d_12">
    <path clip-path="url(#p7e8bd8db54)" d="M 36.975682 97.903631 
L 37.865818 97.903632 
L 38.755955 97.903633 
L 39.646091 97.903634 
L 40.536227 97.903634 
L 41.426364 97.903635 
L 42.3165 97.903635 
L 43.206636 97.903635 
L 44.096773 97.903636 
L 44.986909 97.903636 
L 45.877045 97.903636 
L 46.767182 97.903636 
L 47.657318 97.903636 
L 48.547455 97.903636 
L 49.437591 97.903636 
L 50.327727 97.903636 
L 51.217864 97.903636 
L 52.108 97.903636 
L 52.998136 97.903636 
L 53.888273 97.903636 
L 54.778409 97.903636 
L 55.668545 97.903636 
L 56.558682 97.903636 
L 57.448818 97.903636 
L 58.338955 97.903636 
L 59.229091 97.903636 
L 60.119227 97.903636 
L 61.009364 97.903636 
L 61.8995 97.903636 
L 62.789636 97.903636 
L 63.679773 97.903636 
L 64.569909 97.903636 
L 65.460045 97.903636 
L 66.350182 97.903636 
L 67.240318 97.903636 
L 68.130455 97.903636 
L 69.020591 97.903636 
L 69.910727 97.903636 
L 70.800864 97.903636 
L 71.691 97.903636 
L 72.581136 97.903636 
L 73.471273 97.903636 
L 74.361409 97.903636 
L 75.251545 97.903636 
L 76.141682 97.903636 
L 77.031818 97.903636 
L 77.921955 97.903636 
L 78.812091 97.903636 
L 79.702227 97.903636 
L 80.592364 97.903636 
L 81.4825 97.903636 
L 82.372636 97.903636 
L 83.262773 97.903636 
L 84.152909 97.903636 
L 85.043045 97.903636 
L 85.933182 97.903636 
L 86.823318 97.903636 
L 87.713455 97.903636 
L 88.603591 97.903636 
L 89.493727 97.903636 
L 90.383864 97.903636 
L 91.274 97.903636 
L 92.164136 97.903636 
L 93.054273 97.903636 
L 93.944409 97.903636 
L 94.834545 97.903636 
L 95.724682 97.903636 
L 96.614818 97.903636 
L 97.504955 97.903636 
L 98.395091 97.903636 
L 99.285227 97.903636 
L 100.175364 97.903636 
L 101.0655 97.903636 
L 101.955636 97.903636 
L 102.845773 97.903636 
L 103.735909 97.903636 
L 104.626045 97.903636 
L 105.516182 97.903636 
L 106.406318 97.903636 
L 107.296455 97.903636 
L 108.186591 97.903636 
L 109.076727 97.903636 
L 109.966864 97.903636 
L 110.857 97.903636 
L 111.747136 97.903636 
L 112.637273 97.903636 
L 113.527409 97.903636 
L 114.417545 97.903636 
L 115.307682 97.903636 
L 116.197818 97.903636 
L 117.087955 97.903636 
L 117.978091 97.903636 
L 118.868227 97.903636 
L 119.758364 97.903636 
L 120.6485 97.903636 
L 121.538636 97.903636 
L 122.428773 97.903636 
L 123.318909 97.903636 
L 124.209045 97.903636 
L 125.099182 97.903636 
L 125.989318 97.903636 
" style="fill:none;stroke:#4393c3;stroke-linecap:round;stroke-width:1.5;"/>
   </g>
   <g id="line2d_13">
    <path clip-path="url(#p7e8bd8db54)" d="M 36.975682 97.903636 
L 37.865818 97.903636 
L 38.755955 97.903636 
L 39.646091 97.903636 
L 40.536227 97.903636 
L 41.426364 97.903636 
L 42.3165 97.903636 
L 43.206636 97.903636 
L 44.096773 97.903636 
L 44.986909 97.903635 
L 45.877045 97.903635 
L 46.767182 97.903634 
L 47.657318 97.903633 
L 48.547455 97.903632 
L 49.437591 97.90363 
L 50.327727 97.903627 
L 51.217864 97.903623 
L 52.108 97.903617 
L 52.998136 97.90361 
L 53.888273 97.903601 
L 54.778409 97.903589 
L 55.668545 97.903573 
L 56.558682 97.903553 
L 57.448818 97.903527 
L 58.338955 97.903494 
L 59.229091 97.903453 
L 60.119227 97.9034 
L 61.009364 97.903334 
L 61.8995 97.90325 
L 62.789636 97.903145 
L 63.679773 97.903012 
L 64.569909 97.902845 
L 65.460045 97.902635 
L 66.350182 97.90237 
L 67.240318 97.902036 
L 68.130455 97.901616 
L 69.020591 97.901088 
L 69.910727 97.900422 
L 70.800864 97.899584 
L 71.691 97.898529 
L 72.581136 97.897201 
L 73.471273 97.895529 
L 74.361409 97.893424 
L 75.251545 97.890774 
L 76.141682 97.887438 
L 77.031818 97.88324 
L 77.921955 97.877954 
L 78.812091 97.871301 
L 79.702227 97.862927 
L 80.592364 97.852387 
L 81.4825 97.839122 
L 82.372636 97.822429 
L 83.262773 97.801423 
L 84.152909 97.774994 
L 85.043045 97.741747 
L 85.933182 97.69993 
L 86.823318 97.647348 
L 87.713455 97.581249 
L 88.603591 97.49819 
L 89.493727 97.39387 
L 90.383864 97.262926 
L 91.274 97.098686 
L 92.164136 96.892881 
L 93.054273 96.635297 
L 93.944409 96.313387 
L 94.834545 95.911836 
L 95.724682 95.412099 
L 96.614818 94.791962 
L 97.504955 94.025166 
L 98.395091 93.081215 
L 99.285227 91.92549 
L 100.175364 90.519875 
L 101.0655 88.824125 
L 101.955636 86.798223 
L 102.845773 84.405923 
L 103.735909 81.619512 
L 104.626045 78.425539 
L 105.516182 74.830797 
L 106.406318 70.867404 
L 107.296455 66.59548 
L 108.186591 62.102031 
L 109.076727 57.495296 
L 109.966864 52.894991 
L 110.857 48.420171 
L 111.747136 44.177224 
L 112.637273 40.250501 
L 113.527409 36.697135 
L 114.417545 33.54638 
L 115.307682 30.802621 
L 116.197818 28.450608 
L 117.087955 26.461469 
L 117.978091 24.798352 
L 118.868227 23.421071 
L 119.758364 22.289514 
L 120.6485 21.365885 
L 121.538636 20.615984 
L 122.428773 20.009763 
L 123.318909 19.521406 
L 124.209045 19.129105 
L 125.099182 18.814683 
L 125.989318 18.563136 
" style="fill:none;stroke:#f4a582;stroke-linecap:round;stroke-width:1.5;"/>
   </g>
   <g id="line2d_14">
    <path clip-path="url(#p7e8bd8db54)" d="M 36.975682 19.798233 
L 37.865818 20.353638 
L 38.755955 21.041721 
L 39.646091 21.890796 
L 40.536227 22.93341 
L 41.426364 24.206005 
L 42.3165 25.747961 
L 43.206636 27.599777 
L 44.096773 29.800151 
L 44.986909 32.381836 
L 45.877045 35.366346 
L 46.767182 38.757988 
L 47.657318 42.538147 
L 48.547455 46.661184 
L 49.437591 51.053458 
L 50.327727 55.616626 
L 51.217864 60.235437 
L 52.108 64.788925 
L 52.998136 69.162822 
L 53.888273 73.260547 
L 54.778409 77.010658 
L 55.668545 80.369786 
L 56.558682 83.321349 
L 57.448818 85.871266 
L 58.338955 88.042177 
L 59.229091 89.867496 
L 60.119227 91.386205 
L 61.009364 92.638804 
L 61.8995 93.664491 
L 62.789636 94.499419 
L 63.679773 95.175798 
L 64.569909 95.721601 
L 65.460045 96.160651 
L 66.350182 96.512932 
L 67.240318 96.795017 
L 68.130455 97.020527 
L 69.020591 97.200572 
L 69.910727 97.34417 
L 70.800864 97.458604 
L 71.691 97.549736 
L 72.581136 97.622273 
L 73.471273 97.679985 
L 74.361409 97.725887 
L 75.251545 97.762385 
L 76.141682 97.7914 
L 77.031818 97.814463 
L 77.921955 97.832792 
L 78.812091 97.847357 
L 79.702227 97.85893 
L 80.592364 97.868126 
L 81.4825 97.875431 
L 82.372636 97.881235 
L 83.262773 97.885846 
L 84.152909 97.889509 
L 85.043045 97.892419 
L 85.933182 97.894731 
L 86.823318 97.896567 
L 87.713455 97.898025 
L 88.603591 97.899184 
L 89.493727 97.900104 
L 90.383864 97.900835 
L 91.274 97.901416 
L 92.164136 97.901877 
L 93.054273 97.902244 
L 93.944409 97.902534 
L 94.834545 97.902766 
L 95.724682 97.902949 
L 96.614818 97.903095 
L 97.504955 97.90321 
L 98.395091 97.903302 
L 99.285227 97.903375 
L 100.175364 97.903433 
L 101.0655 97.903478 
L 101.955636 97.903514 
L 102.845773 97.903543 
L 103.735909 97.903565 
L 104.626045 97.903583 
L 105.516182 97.903596 
L 106.406318 97.903607 
L 107.296455 97.903615 
L 108.186591 97.903621 
L 109.076727 97.903625 
L 109.966864 97.903629 
L 110.857 97.903631 
L 111.747136 97.903633 
L 112.637273 97.903634 
L 113.527409 97.903635 
L 114.417545 97.903635 
L 115.307682 97.903636 
L 116.197818 97.903636 
L 117.087955 97.903636 
L 117.978091 97.903636 
L 118.868227 97.903636 
L 119.758364 97.903636 
L 120.6485 97.903636 
L 121.538636 97.903636 
L 122.428773 97.903636 
L 123.318909 97.903636 
L 124.209045 97.903636 
L 125.099182 97.903636 
L 125.989318 97.903636 
" style="fill:none;stroke:#92c5de;stroke-linecap:round;stroke-width:1.5;"/>
   </g>
   <g id="line2d_15">
    <path clip-path="url(#p7e8bd8db54)" d="M 36.975682 95.681772 
L 37.865818 95.126366 
L 38.755955 94.438282 
L 39.646091 93.589207 
L 40.536227 92.546592 
L 41.426364 91.273996 
L 42.3165 89.73204 
L 43.206636 87.880224 
L 44.096773 85.67985 
L 44.986909 83.098165 
L 45.877045 80.113656 
L 46.767182 76.722015 
L 47.657318 72.941856 
L 48.547455 68.818821 
L 49.437591 64.426549 
L 50.327727 59.863384 
L 51.217864 55.244577 
L 52.108 50.691094 
L 52.998136 46.317205 
L 53.888273 42.219489 
L 54.778409 38.46939 
L 55.668545 35.110278 
L 56.558682 32.158735 
L 57.448818 29.608843 
L 58.338955 27.437965 
L 59.229091 25.612688 
L 60.119227 24.094031 
L 61.009364 22.841498 
L 61.8995 21.815895 
L 62.789636 20.981073 
L 63.679773 20.304826 
L 64.569909 19.75919 
L 65.460045 19.320351 
L 66.350182 18.968335 
L 67.240318 18.686582 
L 68.130455 18.461493 
L 69.020591 18.281976 
L 69.910727 18.139044 
L 70.800864 18.025449 
L 71.691 17.935372 
L 72.581136 17.864163 
L 73.471273 17.808123 
L 74.361409 17.764326 
L 75.251545 17.730477 
L 76.141682 17.704797 
L 77.031818 17.685934 
L 77.921955 17.67289 
L 78.812091 17.664978 
L 79.702227 17.661779 
L 80.592364 17.663123 
L 81.4825 17.669083 
L 82.372636 17.679972 
L 83.262773 17.696367 
L 84.152909 17.719133 
L 85.043045 17.74947 
L 85.933182 17.788976 
L 86.823318 17.839722 
L 87.713455 17.904362 
L 88.603591 17.986263 
L 89.493727 18.089662 
L 90.383864 18.219876 
L 91.274 18.383535 
L 92.164136 18.588879 
L 93.054273 18.846096 
L 93.944409 19.167715 
L 94.834545 19.569035 
L 95.724682 20.068588 
L 96.614818 20.68858 
L 97.504955 21.45526 
L 98.395091 22.399119 
L 99.285227 23.554772 
L 100.175364 24.960329 
L 101.0655 26.656033 
L 101.955636 28.681899 
L 102.845773 31.074171 
L 103.735909 33.860559 
L 104.626045 37.054515 
L 105.516182 40.649243 
L 106.406318 44.612626 
L 107.296455 48.884542 
L 108.186591 53.377985 
L 109.076727 57.984715 
L 109.966864 62.585017 
L 110.857 67.059835 
L 111.747136 71.30278 
L 112.637273 75.229502 
L 113.527409 78.782868 
L 114.417545 81.933622 
L 115.307682 84.677382 
L 116.197818 87.029395 
L 117.087955 89.018535 
L 117.978091 90.681652 
L 118.868227 92.058934 
L 119.758364 93.190492 
L 120.6485 94.114123 
L 121.538636 94.864026 
L 122.428773 95.47025 
L 123.318909 95.95861 
L 124.209045 96.350915 
L 125.099182 96.665343 
L 125.989318 96.916896 
" style="fill:none;stroke:#333333;stroke-linecap:round;stroke-width:1.5;"/>
   </g>
  </g>
 </g>
 <defs>
  <clipPath id="p7e8bd8db54">
   <rect height="88.36" width="97.915" x="32.525" y="13.56"/>
  </clipPath>
 </defs>
</svg>
