<?xml version="1.0" encoding="utf-8" standalone="no"?>
<!DOCTYPE svg PUBLIC "-//W3C//DTD SVG 1.1//EN"
  "http://www.w3.org/Graphics/SVG/1.1/DTD/svg11.dtd">
<!-- Created with matplotlib (http://matplotlib.org/) -->
<svg height="216pt" version="1.1" viewBox="0 0 216 216" width="216pt" xmlns="http://www.w3.org/2000/svg" xmlns:xlink="http://www.w3.org/1999/xlink">
 <defs>
  <style type="text/css">
*{stroke-linecap:butt;stroke-linejoin:round;}
  </style>
 </defs>
 <g id="figure_1">
  <g id="patch_1">
   <path d="M 0 216 
L 216 216 
L 216 0 
L 0 0 
z
" style="fill:#ffffff;"/>
  </g>
  <g id="axes_1">
   <g id="patch_2">
    <path d="M 44.78 175.96 
L 203.52 175.96 
L 203.52 25.44 
L 44.78 25.44 
z
" style="fill:#ffffff;"/>
   </g>
   <g id="matplotlib.axis_1">
    <g id="xtick_1">
     <g id="line2d_1">
      <defs>
       <path d="M 0 0 
L 0 3.5 
" id="m7226d69fb6" style="stroke:#262626;stroke-width:0.8;"/>
      </defs>
      <g>
       <use style="fill:#262626;stroke:#262626;stroke-width:0.8;" x="51.995455" xlink:href="#m7226d69fb6" y="175.96"/>
      </g>
     </g>
     <g id="text_1">
      <!-- 2 -->
      <defs>
       <path d="M 50.34375 8.453125 
L 50.34375 0 
L 3.03125 0 
Q 2.9375 3.171875 4.046875 6.109375 
Q 5.859375 10.9375 9.828125 15.625 
Q 13.8125 20.3125 21.34375 26.46875 
Q 33.015625 36.03125 37.109375 41.625 
Q 41.21875 47.21875 41.21875 52.203125 
Q 41.21875 57.421875 37.46875 61 
Q 33.734375 64.59375 27.734375 64.59375 
Q 21.390625 64.59375 17.578125 60.78125 
Q 13.765625 56.984375 13.71875 50.25 
L 4.6875 51.171875 
Q 5.609375 61.28125 11.65625 66.578125 
Q 17.71875 71.875 27.9375 71.875 
Q 38.234375 71.875 44.234375 66.15625 
Q 50.25 60.453125 50.25 52 
Q 50.25 47.703125 48.484375 43.546875 
Q 46.734375 39.40625 42.65625 34.8125 
Q 38.578125 30.21875 29.109375 22.21875 
Q 21.1875 15.578125 18.9375 13.203125 
Q 16.703125 10.84375 15.234375 8.453125 
z
" id="ArialMT-32"/>
      </defs>
      <g style="fill:#262626;" transform="translate(49.214986 190.117812)scale(0.1 -0.1)">
       <use xlink:href="#ArialMT-32"/>
      </g>
     </g>
    </g>
    <g id="xtick_2">
     <g id="line2d_2">
      <g>
       <use style="fill:#262626;stroke:#262626;stroke-width:0.8;" x="80.857273" xlink:href="#m7226d69fb6" y="175.96"/>
      </g>
     </g>
     <g id="text_2">
      <!-- 4 -->
      <defs>
       <path d="M 32.328125 0 
L 32.328125 17.140625 
L 1.265625 17.140625 
L 1.265625 25.203125 
L 33.9375 71.578125 
L 41.109375 71.578125 
L 41.109375 25.203125 
L 50.78125 25.203125 
L 50.78125 17.140625 
L 41.109375 17.140625 
L 41.109375 0 
z
M 32.328125 25.203125 
L 32.328125 57.46875 
L 9.90625 25.203125 
z
" id="ArialMT-34"/>
      </defs>
      <g style="fill:#262626;" transform="translate(78.076804 190.117812)scale(0.1 -0.1)">
       <use xlink:href="#ArialMT-34"/>
      </g>
     </g>
    </g>
    <g id="xtick_3">
     <g id="line2d_3">
      <g>
       <use style="fill:#262626;stroke:#262626;stroke-width:0.8;" x="109.719091" xlink:href="#m7226d69fb6" y="175.96"/>
      </g>
     </g>
     <g id="text_3">
      <!-- 6 -->
      <defs>
       <path d="M 49.75 54.046875 
L 41.015625 53.375 
Q 39.84375 58.546875 37.703125 60.890625 
Q 34.125 64.65625 28.90625 64.65625 
Q 24.703125 64.65625 21.53125 62.3125 
Q 17.390625 59.28125 14.984375 53.46875 
Q 12.59375 47.65625 12.5 36.921875 
Q 15.671875 41.75 20.265625 44.09375 
Q 24.859375 46.4375 29.890625 46.4375 
Q 38.671875 46.4375 44.84375 39.96875 
Q 51.03125 33.5 51.03125 23.25 
Q 51.03125 16.5 48.125 10.71875 
Q 45.21875 4.9375 40.140625 1.859375 
Q 35.0625 -1.21875 28.609375 -1.21875 
Q 17.625 -1.21875 10.6875 6.859375 
Q 3.765625 14.9375 3.765625 33.5 
Q 3.765625 54.25 11.421875 63.671875 
Q 18.109375 71.875 29.4375 71.875 
Q 37.890625 71.875 43.28125 67.140625 
Q 48.6875 62.40625 49.75 54.046875 
z
M 13.875 23.1875 
Q 13.875 18.65625 15.796875 14.5 
Q 17.71875 10.359375 21.1875 8.171875 
Q 24.65625 6 28.46875 6 
Q 34.03125 6 38.03125 10.484375 
Q 42.046875 14.984375 42.046875 22.703125 
Q 42.046875 30.125 38.078125 34.390625 
Q 34.125 38.671875 28.125 38.671875 
Q 22.171875 38.671875 18.015625 34.390625 
Q 13.875 30.125 13.875 23.1875 
z
" id="ArialMT-36"/>
      </defs>
      <g style="fill:#262626;" transform="translate(106.938622 190.117812)scale(0.1 -0.1)">
       <use xlink:href="#ArialMT-36"/>
      </g>
     </g>
    </g>
    <g id="xtick_4">
     <g id="line2d_4">
      <g>
       <use style="fill:#262626;stroke:#262626;stroke-width:0.8;" x="138.580909" xlink:href="#m7226d69fb6" y="175.96"/>
      </g>
     </g>
     <g id="text_4">
      <!-- 8 -->
      <defs>
       <path d="M 17.671875 38.8125 
Q 12.203125 40.828125 9.5625 44.53125 
Q 6.9375 48.25 6.9375 53.421875 
Q 6.9375 61.234375 12.546875 66.546875 
Q 18.171875 71.875 27.484375 71.875 
Q 36.859375 71.875 42.578125 66.421875 
Q 48.296875 60.984375 48.296875 53.171875 
Q 48.296875 48.1875 45.671875 44.5 
Q 43.0625 40.828125 37.75 38.8125 
Q 44.34375 36.671875 47.78125 31.875 
Q 51.21875 27.09375 51.21875 20.453125 
Q 51.21875 11.28125 44.71875 5.03125 
Q 38.234375 -1.21875 27.640625 -1.21875 
Q 17.046875 -1.21875 10.546875 5.046875 
Q 4.046875 11.328125 4.046875 20.703125 
Q 4.046875 27.6875 7.59375 32.390625 
Q 11.140625 37.109375 17.671875 38.8125 
z
M 15.921875 53.71875 
Q 15.921875 48.640625 19.1875 45.40625 
Q 22.46875 42.1875 27.6875 42.1875 
Q 32.765625 42.1875 36.015625 45.375 
Q 39.265625 48.578125 39.265625 53.21875 
Q 39.265625 58.0625 35.90625 61.359375 
Q 32.5625 64.65625 27.59375 64.65625 
Q 22.5625 64.65625 19.234375 61.421875 
Q 15.921875 58.203125 15.921875 53.71875 
z
M 13.09375 20.65625 
Q 13.09375 16.890625 14.875 13.375 
Q 16.65625 9.859375 20.171875 7.921875 
Q 23.6875 6 27.734375 6 
Q 34.03125 6 38.125 10.046875 
Q 42.234375 14.109375 42.234375 20.359375 
Q 42.234375 26.703125 38.015625 30.859375 
Q 33.796875 35.015625 27.4375 35.015625 
Q 21.234375 35.015625 17.15625 30.90625 
Q 13.09375 26.8125 13.09375 20.65625 
z
" id="ArialMT-38"/>
      </defs>
      <g style="fill:#262626;" transform="translate(135.80044 190.117812)scale(0.1 -0.1)">
       <use xlink:href="#ArialMT-38"/>
      </g>
     </g>
    </g>
    <g id="xtick_5">
     <g id="line2d_5">
      <g>
       <use style="fill:#262626;stroke:#262626;stroke-width:0.8;" x="167.442727" xlink:href="#m7226d69fb6" y="175.96"/>
      </g>
     </g>
     <g id="text_5">
      <!-- 10 -->
      <defs>
       <path d="M 37.25 0 
L 28.46875 0 
L 28.46875 56 
Q 25.296875 52.984375 20.140625 49.953125 
Q 14.984375 46.921875 10.890625 45.40625 
L 10.890625 53.90625 
Q 18.265625 57.375 23.78125 62.296875 
Q 29.296875 67.234375 31.59375 71.875 
L 37.25 71.875 
z
" id="ArialMT-31"/>
       <path d="M 4.15625 35.296875 
Q 4.15625 48 6.765625 55.734375 
Q 9.375 63.484375 14.515625 67.671875 
Q 19.671875 71.875 27.484375 71.875 
Q 33.25 71.875 37.59375 69.546875 
Q 41.9375 67.234375 44.765625 62.859375 
Q 47.609375 58.5 49.21875 52.21875 
Q 50.828125 45.953125 50.828125 35.296875 
Q 50.828125 22.703125 48.234375 14.96875 
Q 45.65625 7.234375 40.5 3 
Q 35.359375 -1.21875 27.484375 -1.21875 
Q 17.140625 -1.21875 11.234375 6.203125 
Q 4.15625 15.140625 4.15625 35.296875 
z
M 13.1875 35.296875 
Q 13.1875 17.671875 17.3125 11.828125 
Q 21.4375 6 27.484375 6 
Q 33.546875 6 37.671875 11.859375 
Q 41.796875 17.71875 41.796875 35.296875 
Q 41.796875 52.984375 37.671875 58.78125 
Q 33.546875 64.59375 27.390625 64.59375 
Q 21.34375 64.59375 17.71875 59.46875 
Q 13.1875 52.9375 13.1875 35.296875 
z
" id="ArialMT-30"/>
      </defs>
      <g style="fill:#262626;" transform="translate(161.88179 190.117812)scale(0.1 -0.1)">
       <use xlink:href="#ArialMT-31"/>
       <use x="55.615234" xlink:href="#ArialMT-30"/>
      </g>
     </g>
    </g>
    <g id="xtick_6">
     <g id="line2d_6">
      <g>
       <use style="fill:#262626;stroke:#262626;stroke-width:0.8;" x="196.304545" xlink:href="#m7226d69fb6" y="175.96"/>
      </g>
     </g>
     <g id="text_6">
      <!-- 12 -->
      <g style="fill:#262626;" transform="translate(190.743608 190.117812)scale(0.1 -0.1)">
       <use xlink:href="#ArialMT-31"/>
       <use x="55.615234" xlink:href="#ArialMT-32"/>
      </g>
     </g>
    </g>
    <g id="text_7">
     <!-- pH -->
     <defs>
      <path d="M 6.59375 -19.875 
L 6.59375 51.859375 
L 14.59375 51.859375 
L 14.59375 45.125 
Q 17.4375 49.078125 21 51.046875 
Q 24.5625 53.03125 29.640625 53.03125 
Q 36.28125 53.03125 41.359375 49.609375 
Q 46.4375 46.1875 49.015625 39.953125 
Q 51.609375 33.734375 51.609375 26.3125 
Q 51.609375 18.359375 48.75 11.984375 
Q 45.90625 5.609375 40.453125 2.21875 
Q 35.015625 -1.171875 29 -1.171875 
Q 24.609375 -1.171875 21.109375 0.6875 
Q 17.625 2.546875 15.375 5.375 
L 15.375 -19.875 
z
M 14.546875 25.640625 
Q 14.546875 15.625 18.59375 10.84375 
Q 22.65625 6.0625 28.421875 6.0625 
Q 34.28125 6.0625 38.453125 11.015625 
Q 42.625 15.96875 42.625 26.375 
Q 42.625 36.28125 38.546875 41.203125 
Q 34.46875 46.140625 28.8125 46.140625 
Q 23.1875 46.140625 18.859375 40.890625 
Q 14.546875 35.640625 14.546875 25.640625 
z
" id="ArialMT-70"/>
      <path d="M 8.015625 0 
L 8.015625 71.578125 
L 17.484375 71.578125 
L 17.484375 42.1875 
L 54.6875 42.1875 
L 54.6875 71.578125 
L 64.15625 71.578125 
L 64.15625 0 
L 54.6875 0 
L 54.6875 33.734375 
L 17.484375 33.734375 
L 17.484375 0 
z
" id="ArialMT-48"/>
     </defs>
     <g style="fill:#262626;" transform="translate(117.758594 203.263125)scale(0.1 -0.1)">
      <use xlink:href="#ArialMT-70"/>
      <use x="55.615234" xlink:href="#ArialMT-48"/>
     </g>
    </g>
   </g>
   <g id="matplotlib.axis_2">
    <g id="ytick_1">
     <g id="line2d_7">
      <defs>
       <path d="M 0 0 
L -3.5 0 
" id="m6c4536bfc0" style="stroke:#262626;stroke-width:0.8;"/>
      </defs>
      <g>
       <use style="fill:#262626;stroke:#262626;stroke-width:0.8;" x="44.78" xlink:href="#m6c4536bfc0" y="169.976988"/>
      </g>
     </g>
     <g id="text_8">
      <!-- −2 -->
      <defs>
       <path d="M 52.828125 31.203125 
L 5.5625 31.203125 
L 5.5625 39.40625 
L 52.828125 39.40625 
z
" id="ArialMT-2212"/>
      </defs>
      <g style="fill:#262626;" transform="translate(26.378438 173.555894)scale(0.1 -0.1)">
       <use xlink:href="#ArialMT-2212"/>
       <use x="58.398438" xlink:href="#ArialMT-32"/>
      </g>
     </g>
    </g>
    <g id="ytick_2">
     <g id="line2d_8">
      <g>
       <use style="fill:#262626;stroke:#262626;stroke-width:0.8;" x="44.78" xlink:href="#m6c4536bfc0" y="121.365026"/>
      </g>
     </g>
     <g id="text_9">
      <!-- −1 -->
      <g style="fill:#262626;" transform="translate(26.378438 124.943933)scale(0.1 -0.1)">
       <use xlink:href="#ArialMT-2212"/>
       <use x="58.398438" xlink:href="#ArialMT-31"/>
      </g>
     </g>
    </g>
    <g id="ytick_3">
     <g id="line2d_9">
      <g>
       <use style="fill:#262626;stroke:#262626;stroke-width:0.8;" x="44.78" xlink:href="#m6c4536bfc0" y="72.753065"/>
      </g>
     </g>
     <g id="text_10">
      <!-- 0 -->
      <g style="fill:#262626;" transform="translate(32.219063 76.331971)scale(0.1 -0.1)">
       <use xlink:href="#ArialMT-30"/>
      </g>
     </g>
    </g>
    <g id="text_11">
     <!-- $\langle q_\mathsf{total} \rangle$ -->
     <defs>
      <path d="M 8.9375 31.34375 
L 22.703125 75.875 
L 31 75.875 
L 17.234375 31.34375 
L 31 -13.1875 
L 22.703125 -13.1875 
z
" id="DejaVuSans-27e8"/>
      <path d="M 41.703125 8.203125 
Q 38.09375 3.46875 33.171875 1.015625 
Q 28.265625 -1.421875 22.3125 -1.421875 
Q 14.015625 -1.421875 9.296875 4.171875 
Q 4.59375 9.765625 4.59375 19.578125 
Q 4.59375 27.484375 7.5 34.859375 
Q 10.40625 42.234375 15.828125 48.09375 
Q 19.34375 51.90625 23.90625 53.953125 
Q 28.46875 56 33.5 56 
Q 39.546875 56 43.453125 53.609375 
Q 47.359375 51.21875 49.125 46.390625 
L 50.6875 54.59375 
L 59.71875 54.59375 
L 45.125 -20.609375 
L 36.078125 -20.609375 
z
M 13.921875 20.90625 
Q 13.921875 13.671875 16.9375 9.890625 
Q 19.96875 6.109375 25.6875 6.109375 
Q 34.1875 6.109375 40.1875 14.234375 
Q 46.1875 22.359375 46.1875 33.984375 
Q 46.1875 41.015625 43.078125 44.75 
Q 39.984375 48.484375 34.1875 48.484375 
Q 29.9375 48.484375 26.3125 46.5 
Q 22.703125 44.53125 20.015625 40.71875 
Q 17.1875 36.71875 15.546875 31.34375 
Q 13.921875 25.984375 13.921875 20.90625 
z
" id="DejaVuSans-Oblique-71"/>
      <path d="M 18.3125 70.21875 
L 18.3125 54.6875 
L 36.8125 54.6875 
L 36.8125 47.703125 
L 18.3125 47.703125 
L 18.3125 18.015625 
Q 18.3125 11.328125 20.140625 9.421875 
Q 21.96875 7.515625 27.59375 7.515625 
L 36.8125 7.515625 
L 36.8125 0 
L 27.59375 0 
Q 17.1875 0 13.234375 3.875 
Q 9.28125 7.765625 9.28125 18.015625 
L 9.28125 47.703125 
L 2.6875 47.703125 
L 2.6875 54.6875 
L 9.28125 54.6875 
L 9.28125 70.21875 
z
" id="DejaVuSans-74"/>
      <path d="M 30.609375 48.390625 
Q 23.390625 48.390625 19.1875 42.75 
Q 14.984375 37.109375 14.984375 27.296875 
Q 14.984375 17.484375 19.15625 11.84375 
Q 23.34375 6.203125 30.609375 6.203125 
Q 37.796875 6.203125 41.984375 11.859375 
Q 46.1875 17.53125 46.1875 27.296875 
Q 46.1875 37.015625 41.984375 42.703125 
Q 37.796875 48.390625 30.609375 48.390625 
z
M 30.609375 56 
Q 42.328125 56 49.015625 48.375 
Q 55.71875 40.765625 55.71875 27.296875 
Q 55.71875 13.875 49.015625 6.21875 
Q 42.328125 -1.421875 30.609375 -1.421875 
Q 18.84375 -1.421875 12.171875 6.21875 
Q 5.515625 13.875 5.515625 27.296875 
Q 5.515625 40.765625 12.171875 48.375 
Q 18.84375 56 30.609375 56 
z
" id="DejaVuSans-6f"/>
      <path d="M 34.28125 27.484375 
Q 23.390625 27.484375 19.1875 25 
Q 14.984375 22.515625 14.984375 16.5 
Q 14.984375 11.71875 18.140625 8.90625 
Q 21.296875 6.109375 26.703125 6.109375 
Q 34.1875 6.109375 38.703125 11.40625 
Q 43.21875 16.703125 43.21875 25.484375 
L 43.21875 27.484375 
z
M 52.203125 31.203125 
L 52.203125 0 
L 43.21875 0 
L 43.21875 8.296875 
Q 40.140625 3.328125 35.546875 0.953125 
Q 30.953125 -1.421875 24.3125 -1.421875 
Q 15.921875 -1.421875 10.953125 3.296875 
Q 6 8.015625 6 15.921875 
Q 6 25.140625 12.171875 29.828125 
Q 18.359375 34.515625 30.609375 34.515625 
L 43.21875 34.515625 
L 43.21875 35.40625 
Q 43.21875 41.609375 39.140625 45 
Q 35.0625 48.390625 27.6875 48.390625 
Q 23 48.390625 18.546875 47.265625 
Q 14.109375 46.140625 10.015625 43.890625 
L 10.015625 52.203125 
Q 14.9375 54.109375 19.578125 55.046875 
Q 24.21875 56 28.609375 56 
Q 40.484375 56 46.34375 49.84375 
Q 52.203125 43.703125 52.203125 31.203125 
z
" id="DejaVuSans-61"/>
      <path d="M 9.421875 75.984375 
L 18.40625 75.984375 
L 18.40625 0 
L 9.421875 0 
z
" id="DejaVuSans-6c"/>
      <path d="M 30.078125 31.34375 
L 16.3125 -13.1875 
L 8.015625 -13.1875 
L 21.78125 31.34375 
L 8.015625 75.875 
L 16.3125 75.875 
z
" id="DejaVuSans-27e9"/>
     </defs>
     <g style="fill:#262626;" transform="translate(20.278438 115.95)rotate(-90)scale(0.1 -0.1)">
      <use transform="translate(0 0.125)" xlink:href="#DejaVuSans-27e8"/>
      <use transform="translate(39.013672 0.125)" xlink:href="#DejaVuSans-Oblique-71"/>
      <use transform="translate(102.490234 -16.28125)scale(0.7)" xlink:href="#DejaVuSans-74"/>
      <use transform="translate(129.936523 -16.28125)scale(0.7)" xlink:href="#DejaVuSans-6f"/>
      <use transform="translate(172.763672 -16.28125)scale(0.7)" xlink:href="#DejaVuSans-74"/>
      <use transform="translate(200.209961 -16.28125)scale(0.7)" xlink:href="#DejaVuSans-61"/>
      <use transform="translate(243.105469 -16.28125)scale(0.7)" xlink:href="#DejaVuSans-6c"/>
      <use transform="translate(265.288086 0.125)" xlink:href="#DejaVuSans-27e9"/>
     </g>
    </g>
   </g>
   <g id="PolyCollection_1">
    <defs>
     <path d="M 51.995455 -183.718182 
L 51.995455 -118.688984 
L 53.438545 -118.236194 
L 54.881636 -118.050878 
L 56.324727 -118.087113 
L 57.767818 -118.297391 
L 59.210909 -118.635599 
L 60.654 -119.059243 
L 62.097091 -119.530973 
L 63.540182 -120.019469 
L 64.983273 -120.499807 
L 66.426364 -120.953397 
L 67.869455 -121.367606 
L 69.312545 -121.735117 
L 70.755636 -122.053111 
L 72.198727 -122.322337 
L 73.641818 -122.546151 
L 75.084909 -122.7296 
L 76.528 -122.878639 
L 77.971091 -122.999512 
L 79.414182 -123.098312 
L 80.857273 -123.180726 
L 82.300364 -123.251901 
L 83.743455 -123.316434 
L 85.186545 -123.378421 
L 86.629636 -123.441543 
L 88.072727 -123.509181 
L 89.515818 -123.584535 
L 90.958909 -123.670742 
L 92.402 -123.770994 
L 93.845091 -123.888631 
L 95.288182 -124.027229 
L 96.731273 -124.190648 
L 98.174364 -124.383053 
L 99.617455 -124.608878 
L 101.060545 -124.872734 
L 102.503636 -125.179234 
L 103.946727 -125.532728 
L 105.389818 -125.936932 
L 106.832909 -126.394449 
L 108.276 -126.906129 
L 109.719091 -127.470258 
L 111.162182 -128.081481 
L 112.605273 -128.72937 
L 114.048364 -129.396584 
L 115.491455 -130.056612 
L 116.934545 -130.6714 
L 118.377636 -131.189734 
L 119.820727 -131.548228 
L 121.263818 -131.677515 
L 122.706909 -131.515008 
L 124.15 -131.020706 
L 125.593091 -130.187127 
L 127.036182 -129.036741 
L 128.479273 -127.609751 
L 129.922364 -125.950703 
L 131.365455 -124.099506 
L 132.808545 -122.087374 
L 134.251636 -119.935958 
L 135.694727 -117.658026 
L 137.137818 -115.258802 
L 138.580909 -112.73769 
L 140.024 -110.090413 
L 141.467091 -107.311711 
L 142.910182 -104.398656 
L 144.353273 -101.354468 
L 145.796364 -98.1924 
L 147.239455 -94.939004 
L 148.682545 -91.635872 
L 150.125636 -88.339002 
L 151.568727 -85.115368 
L 153.011818 -82.036945 
L 154.454909 -79.173253 
L 155.898 -76.583971 
L 157.341091 -74.313154 
L 158.784182 -72.386035 
L 160.227273 -70.808613 
L 161.670364 -69.569509 
L 163.113455 -68.64323 
L 164.556545 -67.993933 
L 165.999636 -67.579005 
L 167.442727 -67.35204 
L 168.885818 -67.265079 
L 170.328909 -67.270146 
L 171.772 -67.320293 
L 173.215091 -67.370398 
L 174.658182 -67.377908 
L 176.101273 -67.303589 
L 177.544364 -67.112233 
L 178.987455 -66.773254 
L 180.430545 -66.261159 
L 181.873636 -65.555896 
L 183.316727 -64.643015 
L 184.759818 -63.513523 
L 186.202909 -62.163328 
L 187.646 -60.592328 
L 189.089091 -58.803398 
L 190.532182 -56.801701 
L 191.975273 -54.59475 
L 193.418364 -52.193474 
L 194.861455 -49.614292 
L 196.304545 -46.881818 
L 196.304545 -116.210341 
L 196.304545 -116.210341 
L 194.861455 -117.67108 
L 193.418364 -118.798806 
L 191.975273 -119.621152 
L 190.532182 -120.179737 
L 189.089091 -120.52571 
L 187.646 -120.715352 
L 186.202909 -120.80605 
L 184.759818 -120.852781 
L 183.316727 -120.905245 
L 181.873636 -121.005818 
L 180.430545 -121.188424 
L 178.987455 -121.478359 
L 177.544364 -121.892885 
L 176.101273 -122.442354 
L 174.658182 -123.131632 
L 173.215091 -123.961667 
L 171.772 -124.93114 
L 170.328909 -126.038081 
L 168.885818 -127.281277 
L 167.442727 -128.661246 
L 165.999636 -130.180619 
L 164.556545 -131.843849 
L 163.113455 -133.656203 
L 161.670364 -135.621992 
L 160.227273 -137.742032 
L 158.784182 -140.010468 
L 157.341091 -142.411354 
L 155.898 -144.915671 
L 154.454909 -147.479658 
L 153.011818 -150.045343 
L 151.568727 -152.543734 
L 150.125636 -154.9005 
L 148.682545 -157.043155 
L 147.239455 -158.908289 
L 145.796364 -160.44734 
L 144.353273 -161.62991 
L 142.910182 -162.444401 
L 141.467091 -162.896452 
L 140.024 -163.00602 
L 138.580909 -162.80403 
L 137.137818 -162.329273 
L 135.694727 -161.625984 
L 134.251636 -160.742285 
L 132.808545 -159.729492 
L 131.365455 -158.642208 
L 129.922364 -157.538919 
L 128.479273 -156.482541 
L 127.036182 -155.539796 
L 125.593091 -154.777608 
L 124.15 -154.254659 
L 122.706909 -154.008557 
L 121.263818 -154.044141 
L 119.820727 -154.331387 
L 118.377636 -154.815758 
L 116.934545 -155.434358 
L 115.491455 -156.128994 
L 114.048364 -156.852615 
L 112.605273 -157.570493 
L 111.162182 -158.258778 
L 109.719091 -158.902256 
L 108.276 -159.492204 
L 106.832909 -160.02463 
L 105.389818 -160.49892 
L 103.946727 -160.916814 
L 102.503636 -161.281641 
L 101.060545 -161.59772 
L 99.617455 -161.869909 
L 98.174364 -162.103265 
L 96.731273 -162.302799 
L 95.288182 -162.473325 
L 93.845091 -162.619385 
L 92.402 -162.745237 
L 90.958909 -162.854892 
L 89.515818 -162.952193 
L 88.072727 -163.040918 
L 86.629636 -163.124916 
L 85.186545 -163.208254 
L 83.743455 -163.295383 
L 82.300364 -163.391317 
L 80.857273 -163.501807 
L 79.414182 -163.633522 
L 77.971091 -163.794202 
L 76.528 -163.99277 
L 75.084909 -164.239372 
L 73.641818 -164.545308 
L 72.198727 -164.922837 
L 70.755636 -165.38485 
L 69.312545 -165.944425 
L 67.869455 -166.614328 
L 66.426364 -167.406511 
L 64.983273 -168.331708 
L 63.540182 -169.399161 
L 62.097091 -170.616536 
L 60.654 -171.989999 
L 59.210909 -173.524442 
L 57.767818 -175.223766 
L 56.324727 -177.091115 
L 54.881636 -179.128883 
L 53.438545 -181.338269 
L 51.995455 -183.718182 
z
" id="meec0e2ee93" style="stroke:#ffffff;stroke-opacity:0.05;"/>
    </defs>
    <g clip-path="url(#pcacc2d7f1a)">
     <use style="fill:#591e71;fill-opacity:0.05;stroke:#ffffff;stroke-opacity:0.05;" x="0" xlink:href="#meec0e2ee93" y="216"/>
    </g>
   </g>
   <g id="line2d_10">
    <path clip-path="url(#pcacc2d7f1a)" d="M 51.995455 64.796417 
L 53.438545 66.212768 
L 54.881636 67.41012 
L 56.324727 68.410886 
L 57.767818 69.239421 
L 59.210909 69.91998 
L 60.654 70.475379 
L 62.097091 70.926246 
L 63.540182 71.290685 
L 64.983273 71.584243 
L 66.426364 71.820046 
L 67.869455 72.009033 
L 69.312545 72.160229 
L 70.755636 72.28102 
L 72.198727 72.377413 
L 73.641818 72.454271 
L 75.084909 72.515514 
L 76.528 72.564295 
L 77.971091 72.603143 
L 79.414182 72.634083 
L 80.857273 72.658734 
L 82.300364 72.678391 
L 83.743455 72.694091 
L 85.186545 72.706663 
L 86.629636 72.716771 
L 88.072727 72.724951 
L 89.515818 72.731636 
L 90.958909 72.737183 
L 92.402 72.741885 
L 93.845091 72.745992 
L 95.288182 72.749723 
L 96.731273 72.753276 
L 98.174364 72.756841 
L 99.617455 72.760606 
L 101.060545 72.764773 
L 102.503636 72.769562 
L 103.946727 72.775229 
L 105.389818 72.782074 
L 106.832909 72.790461 
L 108.276 72.800834 
L 109.719091 72.813743 
L 111.162182 72.829871 
L 112.605273 72.850068 
L 114.048364 72.8754 
L 115.491455 72.907197 
L 116.934545 72.947121 
L 118.377636 72.997254 
L 119.820727 73.060193 
L 121.263818 73.139172 
L 122.706909 73.238218 
L 124.15 73.362318 
L 125.593091 73.517633 
L 127.036182 73.711731 
L 128.479273 73.953854 
L 129.922364 74.255189 
L 131.365455 74.629143 
L 132.808545 75.091567 
L 134.251636 75.660878 
L 135.694727 76.357995 
L 137.137818 77.205963 
L 138.580909 78.22914 
L 140.024 79.451783 
L 141.467091 80.895919 
L 142.910182 82.578471 
L 144.353273 84.507811 
L 145.796364 86.68013 
L 147.239455 89.076353 
L 148.682545 91.660487 
L 150.125636 94.380249 
L 151.568727 97.170449 
L 153.011818 99.958856 
L 154.454909 102.673545 
L 155.898 105.250179 
L 157.341091 107.637746 
L 158.784182 109.801749 
L 160.227273 111.724678 
L 161.670364 113.404249 
L 163.113455 114.850284 
L 164.556545 116.081109 
L 165.999636 117.120188 
L 167.442727 117.993357 
L 168.885818 118.726822 
L 170.328909 119.345886 
L 171.772 119.874283 
L 173.215091 120.333967 
L 174.658182 120.74523 
L 176.101273 121.127029 
L 177.544364 121.497441 
L 178.987455 121.874194 
L 180.430545 122.275208 
L 181.873636 122.719143 
L 183.316727 123.22587 
L 184.759818 123.816848 
L 186.202909 124.515311 
L 187.646 125.34616 
L 189.089091 126.335446 
L 190.532182 127.509281 
L 191.975273 128.892049 
L 193.418364 130.50386 
L 194.861455 132.357314 
L 196.304545 134.453921 
" style="fill:none;opacity:0.9;stroke:#591e71;stroke-linecap:round;stroke-width:1.5;"/>
   </g>
   <g id="line2d_11">
    <path clip-path="url(#pcacc2d7f1a)" d="M 51.995455 44.290826 
L 53.438545 47.049463 
L 54.881636 49.844707 
L 56.324727 52.603344 
L 57.767818 55.255921 
L 59.210909 57.743452 
L 60.654 60.022036 
L 62.097091 62.064739 
L 63.540182 63.860916 
L 64.983273 65.413662 
L 66.426364 66.736341 
L 67.869455 67.848978 
L 69.312545 68.775079 
L 70.755636 69.539156 
L 72.198727 70.164985 
L 73.641818 70.674535 
L 75.084909 71.0874 
L 76.528 71.420613 
L 77.971091 71.688689 
L 79.414182 71.903813 
L 80.857273 72.076094 
L 82.300364 72.213842 
L 83.743455 72.32384 
L 85.186545 72.411593 
L 86.629636 72.481549 
L 88.072727 72.537293 
L 89.515818 72.581702 
L 90.958909 72.617083 
L 92.402 72.645286 
L 93.845091 72.667788 
L 95.288182 72.685774 
L 96.731273 72.700192 
L 98.174364 72.711804 
L 99.617455 72.721225 
L 101.060545 72.728955 
L 102.503636 72.735403 
L 103.946727 72.740912 
L 105.389818 72.745775 
L 106.832909 72.75025 
L 108.276 72.754576 
L 109.719091 72.758982 
L 111.162182 72.763703 
L 112.605273 72.768989 
L 114.048364 72.775123 
L 115.491455 72.782429 
L 116.934545 72.791296 
L 118.377636 72.802193 
L 119.820727 72.815699 
L 121.263818 72.832528 
L 122.706909 72.853568 
L 124.15 72.879929 
L 125.593091 72.912996 
L 127.036182 72.954499 
L 128.479273 73.006604 
L 129.922364 73.072012 
L 131.365455 73.15409 
L 132.808545 73.257028 
L 134.251636 73.386022 
L 135.694727 73.547492 
L 137.137818 73.749334 
L 138.580909 74.0012 
L 140.024 74.314796 
L 141.467091 74.704179 
L 142.910182 75.186016 
L 144.353273 75.779754 
L 145.796364 76.507598 
L 147.239455 77.394213 
L 148.682545 78.465984 
L 150.125636 79.749704 
L 151.568727 81.270565 
L 153.011818 83.049436 
L 154.454909 85.099579 
L 155.898 87.423233 
L 157.341091 90.00875 
L 158.784182 92.829202 
L 160.227273 95.84328 
L 161.670364 98.998929 
L 163.113455 102.239442 
L 164.556545 105.510926 
L 165.999636 108.769525 
L 167.442727 111.986797 
L 168.885818 115.152116 
L 170.328909 118.271756 
L 171.772 121.365026 
L 173.215091 124.458296 
L 174.658182 127.577936 
L 176.101273 130.743255 
L 177.544364 133.960527 
L 178.987455 137.219126 
L 180.430545 140.490609 
L 181.873636 143.731123 
L 183.316727 146.886771 
L 184.759818 149.900848 
L 186.202909 152.7213 
L 187.646 155.306816 
L 189.089091 157.630468 
L 190.532182 159.68061 
L 191.975273 161.459479 
L 193.418364 162.980338 
L 194.861455 164.264055 
L 196.304545 165.335823 
" style="fill:none;opacity:0.7;stroke:#000000;stroke-linecap:round;stroke-width:1.5;"/>
   </g>
   <g id="line2d_12">
    <path clip-path="url(#pcacc2d7f1a)" d="M 51.995455 32.281818 
L 53.438545 34.661731 
L 54.881636 36.871117 
L 56.324727 38.908885 
L 57.767818 40.776234 
L 59.210909 42.475558 
L 60.654 44.010001 
L 62.097091 45.383464 
L 63.540182 46.600839 
L 64.983273 47.668292 
L 66.426364 48.593489 
L 67.869455 49.385672 
L 69.312545 50.055575 
L 70.755636 50.61515 
L 72.198727 51.077163 
L 73.641818 51.454692 
L 75.084909 51.760628 
L 76.528 52.00723 
L 77.971091 52.205798 
L 79.414182 52.366478 
L 80.857273 52.498193 
L 82.300364 52.608683 
L 83.743455 52.704617 
L 85.186545 52.791746 
L 86.629636 52.875084 
L 88.072727 52.959082 
L 89.515818 53.047807 
L 90.958909 53.145108 
L 92.402 53.254763 
L 93.845091 53.380615 
L 95.288182 53.526675 
L 96.731273 53.697201 
L 98.174364 53.896735 
L 99.617455 54.130091 
L 101.060545 54.40228 
L 102.503636 54.718359 
L 103.946727 55.083186 
L 105.389818 55.50108 
L 106.832909 55.97537 
L 108.276 56.507796 
L 109.719091 57.097744 
L 111.162182 57.741222 
L 112.605273 58.429507 
L 114.048364 59.147385 
L 115.491455 59.871006 
L 116.934545 60.565642 
L 118.377636 61.184242 
L 119.820727 61.668613 
L 121.263818 61.955859 
L 122.706909 61.991443 
L 124.15 61.745341 
L 125.593091 61.222392 
L 127.036182 60.460204 
L 128.479273 59.517459 
L 129.922364 58.461081 
L 131.365455 57.357792 
L 132.808545 56.270508 
L 134.251636 55.257715 
L 135.694727 54.374016 
L 137.137818 53.670727 
L 138.580909 53.19597 
L 140.024 52.99398 
L 141.467091 53.103548 
L 142.910182 53.555599 
L 144.353273 54.37009 
L 145.796364 55.55266 
L 147.239455 57.091711 
L 148.682545 58.956845 
L 150.125636 61.0995 
L 151.568727 63.456266 
L 153.011818 65.954657 
L 154.454909 68.520342 
L 155.898 71.084329 
L 157.341091 73.588646 
L 158.784182 75.989532 
L 160.227273 78.257968 
L 161.670364 80.378008 
L 163.113455 82.343797 
L 164.556545 84.156151 
L 165.999636 85.819381 
L 167.442727 87.338754 
L 168.885818 88.718723 
L 170.328909 89.961919 
L 171.772 91.06886 
L 173.215091 92.038333 
L 174.658182 92.868368 
L 176.101273 93.557646 
L 177.544364 94.107115 
L 178.987455 94.521641 
L 180.430545 94.811576 
L 181.873636 94.994182 
L 183.316727 95.094755 
L 184.759818 95.147219 
L 186.202909 95.19395 
L 187.646 95.284648 
L 189.089091 95.47429 
L 190.532182 95.820263 
L 191.975273 96.378848 
L 193.418364 97.201194 
L 194.861455 98.32892 
L 196.304545 99.789659 
" style="fill:none;opacity:0.45;stroke:#591e71;stroke-dasharray:2.775,1.2;stroke-dashoffset:0;stroke-width:0.75;"/>
   </g>
   <g id="line2d_13">
    <path clip-path="url(#pcacc2d7f1a)" d="M 51.995455 97.311016 
L 53.438545 97.763806 
L 54.881636 97.949122 
L 56.324727 97.912887 
L 57.767818 97.702609 
L 59.210909 97.364401 
L 60.654 96.940757 
L 62.097091 96.469027 
L 63.540182 95.980531 
L 64.983273 95.500193 
L 66.426364 95.046603 
L 67.869455 94.632394 
L 69.312545 94.264883 
L 70.755636 93.946889 
L 72.198727 93.677663 
L 73.641818 93.453849 
L 75.084909 93.2704 
L 76.528 93.121361 
L 77.971091 93.000488 
L 79.414182 92.901688 
L 80.857273 92.819274 
L 82.300364 92.748099 
L 83.743455 92.683566 
L 85.186545 92.621579 
L 86.629636 92.558457 
L 88.072727 92.490819 
L 89.515818 92.415465 
L 90.958909 92.329258 
L 92.402 92.229006 
L 93.845091 92.111369 
L 95.288182 91.972771 
L 96.731273 91.809352 
L 98.174364 91.616947 
L 99.617455 91.391122 
L 101.060545 91.127266 
L 102.503636 90.820766 
L 103.946727 90.467272 
L 105.389818 90.063068 
L 106.832909 89.605551 
L 108.276 89.093871 
L 109.719091 88.529742 
L 111.162182 87.918519 
L 112.605273 87.27063 
L 114.048364 86.603416 
L 115.491455 85.943388 
L 116.934545 85.3286 
L 118.377636 84.810266 
L 119.820727 84.451772 
L 121.263818 84.322485 
L 122.706909 84.484992 
L 124.15 84.979294 
L 125.593091 85.812873 
L 127.036182 86.963259 
L 128.479273 88.390249 
L 129.922364 90.049297 
L 131.365455 91.900494 
L 132.808545 93.912626 
L 134.251636 96.064042 
L 135.694727 98.341974 
L 137.137818 100.741198 
L 138.580909 103.26231 
L 140.024 105.909587 
L 141.467091 108.688289 
L 142.910182 111.601344 
L 144.353273 114.645532 
L 145.796364 117.8076 
L 147.239455 121.060996 
L 148.682545 124.364128 
L 150.125636 127.660998 
L 151.568727 130.884632 
L 153.011818 133.963055 
L 154.454909 136.826747 
L 155.898 139.416029 
L 157.341091 141.686846 
L 158.784182 143.613965 
L 160.227273 145.191387 
L 161.670364 146.430491 
L 163.113455 147.35677 
L 164.556545 148.006067 
L 165.999636 148.420995 
L 167.442727 148.64796 
L 168.885818 148.734921 
L 170.328909 148.729854 
L 171.772 148.679707 
L 173.215091 148.629602 
L 174.658182 148.622092 
L 176.101273 148.696411 
L 177.544364 148.887767 
L 178.987455 149.226746 
L 180.430545 149.738841 
L 181.873636 150.444104 
L 183.316727 151.356985 
L 184.759818 152.486477 
L 186.202909 153.836672 
L 187.646 155.407672 
L 189.089091 157.196602 
L 190.532182 159.198299 
L 191.975273 161.40525 
L 193.418364 163.806526 
L 194.861455 166.385708 
L 196.304545 169.118182 
" style="fill:none;opacity:0.45;stroke:#591e71;stroke-dasharray:2.775,1.2;stroke-dashoffset:0;stroke-width:0.75;"/>
   </g>
   <g id="patch_3">
    <path d="M 44.78 175.96 
L 44.78 25.44 
" style="fill:none;stroke:#262626;stroke-linecap:square;stroke-linejoin:miter;stroke-width:0.8;"/>
   </g>
   <g id="patch_4">
    <path d="M 44.78 175.96 
L 203.52 175.96 
" style="fill:none;stroke:#262626;stroke-linecap:square;stroke-linejoin:miter;stroke-width:0.8;"/>
   </g>
   <g id="text_12">
    <!-- Jaguar-macro SM18 -->
    <defs>
     <path d="M 2.875 20.3125 
L 11.421875 21.484375 
Q 11.765625 13.28125 14.5 10.25 
Q 17.234375 7.234375 22.078125 7.234375 
Q 25.640625 7.234375 28.21875 8.859375 
Q 30.8125 10.5 31.78125 13.296875 
Q 32.765625 16.109375 32.765625 22.265625 
L 32.765625 71.578125 
L 42.234375 71.578125 
L 42.234375 22.796875 
Q 42.234375 13.8125 40.0625 8.875 
Q 37.890625 3.953125 33.171875 1.359375 
Q 28.46875 -1.21875 22.125 -1.21875 
Q 12.703125 -1.21875 7.6875 4.203125 
Q 2.6875 9.625 2.875 20.3125 
z
" id="ArialMT-4a"/>
     <path d="M 40.4375 6.390625 
Q 35.546875 2.25 31.03125 0.53125 
Q 26.515625 -1.171875 21.34375 -1.171875 
Q 12.796875 -1.171875 8.203125 3 
Q 3.609375 7.171875 3.609375 13.671875 
Q 3.609375 17.484375 5.34375 20.625 
Q 7.078125 23.78125 9.890625 25.6875 
Q 12.703125 27.59375 16.21875 28.5625 
Q 18.796875 29.25 24.03125 29.890625 
Q 34.671875 31.15625 39.703125 32.90625 
Q 39.75 34.71875 39.75 35.203125 
Q 39.75 40.578125 37.25 42.78125 
Q 33.890625 45.75 27.25 45.75 
Q 21.046875 45.75 18.09375 43.578125 
Q 15.140625 41.40625 13.71875 35.890625 
L 5.125 37.0625 
Q 6.296875 42.578125 8.984375 45.96875 
Q 11.671875 49.359375 16.75 51.1875 
Q 21.828125 53.03125 28.515625 53.03125 
Q 35.15625 53.03125 39.296875 51.46875 
Q 43.453125 49.90625 45.40625 47.53125 
Q 47.359375 45.171875 48.140625 41.546875 
Q 48.578125 39.3125 48.578125 33.453125 
L 48.578125 21.734375 
Q 48.578125 9.46875 49.140625 6.21875 
Q 49.703125 2.984375 51.375 0 
L 42.1875 0 
Q 40.828125 2.734375 40.4375 6.390625 
z
M 39.703125 26.03125 
Q 34.90625 24.078125 25.34375 22.703125 
Q 19.921875 21.921875 17.671875 20.9375 
Q 15.4375 19.96875 14.203125 18.09375 
Q 12.984375 16.21875 12.984375 13.921875 
Q 12.984375 10.40625 15.640625 8.0625 
Q 18.3125 5.71875 23.4375 5.71875 
Q 28.515625 5.71875 32.46875 7.9375 
Q 36.421875 10.15625 38.28125 14.015625 
Q 39.703125 17 39.703125 22.796875 
z
" id="ArialMT-61"/>
     <path d="M 4.984375 -4.296875 
L 13.53125 -5.5625 
Q 14.0625 -9.515625 16.5 -11.328125 
Q 19.78125 -13.765625 25.4375 -13.765625 
Q 31.546875 -13.765625 34.859375 -11.328125 
Q 38.1875 -8.890625 39.359375 -4.5 
Q 40.046875 -1.8125 39.984375 6.78125 
Q 34.234375 0 25.640625 0 
Q 14.9375 0 9.078125 7.71875 
Q 3.21875 15.4375 3.21875 26.21875 
Q 3.21875 33.640625 5.90625 39.90625 
Q 8.59375 46.1875 13.6875 49.609375 
Q 18.796875 53.03125 25.6875 53.03125 
Q 34.859375 53.03125 40.828125 45.609375 
L 40.828125 51.859375 
L 48.921875 51.859375 
L 48.921875 7.03125 
Q 48.921875 -5.078125 46.453125 -10.125 
Q 44 -15.1875 38.640625 -18.109375 
Q 33.296875 -21.046875 25.484375 -21.046875 
Q 16.21875 -21.046875 10.5 -16.875 
Q 4.78125 -12.703125 4.984375 -4.296875 
z
M 12.25 26.859375 
Q 12.25 16.65625 16.296875 11.96875 
Q 20.359375 7.28125 26.46875 7.28125 
Q 32.515625 7.28125 36.609375 11.9375 
Q 40.71875 16.609375 40.71875 26.5625 
Q 40.71875 36.078125 36.5 40.90625 
Q 32.28125 45.75 26.3125 45.75 
Q 20.453125 45.75 16.34375 40.984375 
Q 12.25 36.234375 12.25 26.859375 
z
" id="ArialMT-67"/>
     <path d="M 40.578125 0 
L 40.578125 7.625 
Q 34.515625 -1.171875 24.125 -1.171875 
Q 19.53125 -1.171875 15.546875 0.578125 
Q 11.578125 2.34375 9.640625 5 
Q 7.71875 7.671875 6.9375 11.53125 
Q 6.390625 14.109375 6.390625 19.734375 
L 6.390625 51.859375 
L 15.1875 51.859375 
L 15.1875 23.09375 
Q 15.1875 16.21875 15.71875 13.8125 
Q 16.546875 10.359375 19.234375 8.375 
Q 21.921875 6.390625 25.875 6.390625 
Q 29.828125 6.390625 33.296875 8.421875 
Q 36.765625 10.453125 38.203125 13.9375 
Q 39.65625 17.4375 39.65625 24.078125 
L 39.65625 51.859375 
L 48.4375 51.859375 
L 48.4375 0 
z
" id="ArialMT-75"/>
     <path d="M 6.5 0 
L 6.5 51.859375 
L 14.40625 51.859375 
L 14.40625 44 
Q 17.4375 49.515625 20 51.265625 
Q 22.5625 53.03125 25.640625 53.03125 
Q 30.078125 53.03125 34.671875 50.203125 
L 31.640625 42.046875 
Q 28.421875 43.953125 25.203125 43.953125 
Q 22.3125 43.953125 20.015625 42.21875 
Q 17.71875 40.484375 16.75 37.40625 
Q 15.28125 32.71875 15.28125 27.15625 
L 15.28125 0 
z
" id="ArialMT-72"/>
     <path d="M 3.171875 21.484375 
L 3.171875 30.328125 
L 30.171875 30.328125 
L 30.171875 21.484375 
z
" id="ArialMT-2d"/>
     <path d="M 6.59375 0 
L 6.59375 51.859375 
L 14.453125 51.859375 
L 14.453125 44.578125 
Q 16.890625 48.390625 20.9375 50.703125 
Q 25 53.03125 30.171875 53.03125 
Q 35.9375 53.03125 39.625 50.640625 
Q 43.3125 48.25 44.828125 43.953125 
Q 50.984375 53.03125 60.84375 53.03125 
Q 68.5625 53.03125 72.703125 48.75 
Q 76.859375 44.484375 76.859375 35.59375 
L 76.859375 0 
L 68.109375 0 
L 68.109375 32.671875 
Q 68.109375 37.9375 67.25 40.25 
Q 66.40625 42.578125 64.15625 43.984375 
Q 61.921875 45.40625 58.890625 45.40625 
Q 53.421875 45.40625 49.796875 41.765625 
Q 46.1875 38.140625 46.1875 30.125 
L 46.1875 0 
L 37.40625 0 
L 37.40625 33.6875 
Q 37.40625 39.546875 35.25 42.46875 
Q 33.109375 45.40625 28.21875 45.40625 
Q 24.515625 45.40625 21.359375 43.453125 
Q 18.21875 41.5 16.796875 37.734375 
Q 15.375 33.984375 15.375 26.90625 
L 15.375 0 
z
" id="ArialMT-6d"/>
     <path d="M 40.4375 19 
L 49.078125 17.875 
Q 47.65625 8.9375 41.8125 3.875 
Q 35.984375 -1.171875 27.484375 -1.171875 
Q 16.84375 -1.171875 10.375 5.78125 
Q 3.90625 12.75 3.90625 25.734375 
Q 3.90625 34.125 6.6875 40.421875 
Q 9.46875 46.734375 15.15625 49.875 
Q 20.84375 53.03125 27.546875 53.03125 
Q 35.984375 53.03125 41.359375 48.75 
Q 46.734375 44.484375 48.25 36.625 
L 39.703125 35.296875 
Q 38.484375 40.53125 35.375 43.15625 
Q 32.28125 45.796875 27.875 45.796875 
Q 21.234375 45.796875 17.078125 41.03125 
Q 12.9375 36.28125 12.9375 25.984375 
Q 12.9375 15.53125 16.9375 10.796875 
Q 20.953125 6.0625 27.390625 6.0625 
Q 32.5625 6.0625 36.03125 9.234375 
Q 39.5 12.40625 40.4375 19 
z
" id="ArialMT-63"/>
     <path d="M 3.328125 25.921875 
Q 3.328125 40.328125 11.328125 47.265625 
Q 18.015625 53.03125 27.640625 53.03125 
Q 38.328125 53.03125 45.109375 46.015625 
Q 51.90625 39.015625 51.90625 26.65625 
Q 51.90625 16.65625 48.90625 10.90625 
Q 45.90625 5.171875 40.15625 2 
Q 34.421875 -1.171875 27.640625 -1.171875 
Q 16.75 -1.171875 10.03125 5.8125 
Q 3.328125 12.796875 3.328125 25.921875 
z
M 12.359375 25.921875 
Q 12.359375 15.96875 16.703125 11.015625 
Q 21.046875 6.0625 27.640625 6.0625 
Q 34.1875 6.0625 38.53125 11.03125 
Q 42.875 16.015625 42.875 26.21875 
Q 42.875 35.84375 38.5 40.796875 
Q 34.125 45.75 27.640625 45.75 
Q 21.046875 45.75 16.703125 40.8125 
Q 12.359375 35.890625 12.359375 25.921875 
z
" id="ArialMT-6f"/>
     <path id="ArialMT-20"/>
     <path d="M 4.5 23 
L 13.421875 23.78125 
Q 14.0625 18.40625 16.375 14.96875 
Q 18.703125 11.53125 23.578125 9.40625 
Q 28.46875 7.28125 34.578125 7.28125 
Q 39.984375 7.28125 44.140625 8.890625 
Q 48.296875 10.5 50.3125 13.296875 
Q 52.34375 16.109375 52.34375 19.4375 
Q 52.34375 22.796875 50.390625 25.3125 
Q 48.4375 27.828125 43.953125 29.546875 
Q 41.0625 30.671875 31.203125 33.03125 
Q 21.34375 35.40625 17.390625 37.5 
Q 12.25 40.1875 9.734375 44.15625 
Q 7.234375 48.140625 7.234375 53.078125 
Q 7.234375 58.5 10.296875 63.203125 
Q 13.375 67.921875 19.28125 70.359375 
Q 25.203125 72.796875 32.421875 72.796875 
Q 40.375 72.796875 46.453125 70.234375 
Q 52.546875 67.671875 55.8125 62.6875 
Q 59.078125 57.71875 59.328125 51.421875 
L 50.25 50.734375 
Q 49.515625 57.515625 45.28125 60.984375 
Q 41.0625 64.453125 32.8125 64.453125 
Q 24.21875 64.453125 20.28125 61.296875 
Q 16.359375 58.15625 16.359375 53.71875 
Q 16.359375 49.859375 19.140625 47.359375 
Q 21.875 44.875 33.421875 42.265625 
Q 44.96875 39.65625 49.265625 37.703125 
Q 55.515625 34.8125 58.484375 30.390625 
Q 61.46875 25.984375 61.46875 20.21875 
Q 61.46875 14.5 58.203125 9.4375 
Q 54.9375 4.390625 48.796875 1.578125 
Q 42.671875 -1.21875 35.015625 -1.21875 
Q 25.296875 -1.21875 18.71875 1.609375 
Q 12.15625 4.4375 8.421875 10.125 
Q 4.6875 15.828125 4.5 23 
z
" id="ArialMT-53"/>
     <path d="M 7.421875 0 
L 7.421875 71.578125 
L 21.6875 71.578125 
L 38.625 20.90625 
Q 40.96875 13.8125 42.046875 10.296875 
Q 43.265625 14.203125 45.84375 21.78125 
L 62.984375 71.578125 
L 75.734375 71.578125 
L 75.734375 0 
L 66.609375 0 
L 66.609375 59.90625 
L 45.796875 0 
L 37.25 0 
L 16.546875 60.9375 
L 16.546875 0 
z
" id="ArialMT-4d"/>
    </defs>
    <g style="fill:#262626;" transform="translate(69.799375 19.44)scale(0.12 -0.12)">
     <use xlink:href="#ArialMT-4a"/>
     <use x="50" xlink:href="#ArialMT-61"/>
     <use x="105.615234" xlink:href="#ArialMT-67"/>
     <use x="161.230469" xlink:href="#ArialMT-75"/>
     <use x="216.845703" xlink:href="#ArialMT-61"/>
     <use x="272.460938" xlink:href="#ArialMT-72"/>
     <use x="305.761719" xlink:href="#ArialMT-2d"/>
     <use x="339.0625" xlink:href="#ArialMT-6d"/>
     <use x="422.363281" xlink:href="#ArialMT-61"/>
     <use x="477.978516" xlink:href="#ArialMT-63"/>
     <use x="527.978516" xlink:href="#ArialMT-72"/>
     <use x="561.279297" xlink:href="#ArialMT-6f"/>
     <use x="616.894531" xlink:href="#ArialMT-20"/>
     <use x="644.677734" xlink:href="#ArialMT-53"/>
     <use x="711.376953" xlink:href="#ArialMT-4d"/>
     <use x="794.677734" xlink:href="#ArialMT-31"/>
     <use x="850.292969" xlink:href="#ArialMT-38"/>
    </g>
   </g>
  </g>
 </g>
 <defs>
  <clipPath id="pcacc2d7f1a">
   <rect height="150.52" width="158.74" x="44.78" y="25.44"/>
  </clipPath>
 </defs>
</svg>
