<?xml version="1.0" encoding="utf-8" standalone="no"?>
<!DOCTYPE svg PUBLIC "-//W3C//DTD SVG 1.1//EN"
  "http://www.w3.org/Graphics/SVG/1.1/DTD/svg11.dtd">
<!-- Created with matplotlib (http://matplotlib.org/) -->
<svg height="144pt" version="1.1" viewBox="0 0 144 144" width="144pt" xmlns="http://www.w3.org/2000/svg" xmlns:xlink="http://www.w3.org/1999/xlink">
 <defs>
  <style type="text/css">
*{stroke-linecap:butt;stroke-linejoin:round;}
  </style>
 </defs>
 <g id="figure_1">
  <g id="patch_1">
   <path d="M 0 144 
L 144 144 
L 144 0 
L 0 0 
z
" style="fill:#ffffff;"/>
  </g>
  <g id="axes_1">
   <g id="patch_2">
    <path d="M 53.72 101.92 
L 130.44 101.92 
L 130.44 13.56 
L 53.72 13.56 
z
" style="fill:#ffffff;"/>
   </g>
   <g id="matplotlib.axis_1">
    <g id="xtick_1">
     <g id="line2d_1">
      <defs>
       <path d="M 0 0 
L 0 3.5 
" id="mb469534613" style="stroke:#262626;stroke-width:0.8;"/>
      </defs>
      <g>
       <use style="fill:#262626;stroke:#262626;stroke-width:0.8;" x="57.207273" xlink:href="#mb469534613" y="101.92"/>
      </g>
     </g>
     <g id="text_1">
      <!-- 2 -->
      <defs>
       <path d="M 50.34375 8.453125 
L 50.34375 0 
L 3.03125 0 
Q 2.9375 3.171875 4.046875 6.109375 
Q 5.859375 10.9375 9.828125 15.625 
Q 13.8125 20.3125 21.34375 26.46875 
Q 33.015625 36.03125 37.109375 41.625 
Q 41.21875 47.21875 41.21875 52.203125 
Q 41.21875 57.421875 37.46875 61 
Q 33.734375 64.59375 27.734375 64.59375 
Q 21.390625 64.59375 17.578125 60.78125 
Q 13.765625 56.984375 13.71875 50.25 
L 4.6875 51.171875 
Q 5.609375 61.28125 11.65625 66.578125 
Q 17.71875 71.875 27.9375 71.875 
Q 38.234375 71.875 44.234375 66.15625 
Q 50.25 60.453125 50.25 52 
Q 50.25 47.703125 48.484375 43.546875 
Q 46.734375 39.40625 42.65625 34.8125 
Q 38.578125 30.21875 29.109375 22.21875 
Q 21.1875 15.578125 18.9375 13.203125 
Q 16.703125 10.84375 15.234375 8.453125 
z
" id="ArialMT-32"/>
      </defs>
      <g style="fill:#262626;" transform="translate(54.148757 116.793594)scale(0.11 -0.11)">
       <use xlink:href="#ArialMT-32"/>
      </g>
     </g>
    </g>
    <g id="xtick_2">
     <g id="line2d_2">
      <g>
       <use style="fill:#262626;stroke:#262626;stroke-width:0.8;" x="71.156364" xlink:href="#mb469534613" y="101.92"/>
      </g>
     </g>
     <g id="text_2">
      <!-- 4 -->
      <defs>
       <path d="M 32.328125 0 
L 32.328125 17.140625 
L 1.265625 17.140625 
L 1.265625 25.203125 
L 33.9375 71.578125 
L 41.109375 71.578125 
L 41.109375 25.203125 
L 50.78125 25.203125 
L 50.78125 17.140625 
L 41.109375 17.140625 
L 41.109375 0 
z
M 32.328125 25.203125 
L 32.328125 57.46875 
L 9.90625 25.203125 
z
" id="ArialMT-34"/>
      </defs>
      <g style="fill:#262626;" transform="translate(68.097848 116.793594)scale(0.11 -0.11)">
       <use xlink:href="#ArialMT-34"/>
      </g>
     </g>
    </g>
    <g id="xtick_3">
     <g id="line2d_3">
      <g>
       <use style="fill:#262626;stroke:#262626;stroke-width:0.8;" x="85.105455" xlink:href="#mb469534613" y="101.92"/>
      </g>
     </g>
     <g id="text_3">
      <!-- 6 -->
      <defs>
       <path d="M 49.75 54.046875 
L 41.015625 53.375 
Q 39.84375 58.546875 37.703125 60.890625 
Q 34.125 64.65625 28.90625 64.65625 
Q 24.703125 64.65625 21.53125 62.3125 
Q 17.390625 59.28125 14.984375 53.46875 
Q 12.59375 47.65625 12.5 36.921875 
Q 15.671875 41.75 20.265625 44.09375 
Q 24.859375 46.4375 29.890625 46.4375 
Q 38.671875 46.4375 44.84375 39.96875 
Q 51.03125 33.5 51.03125 23.25 
Q 51.03125 16.5 48.125 10.71875 
Q 45.21875 4.9375 40.140625 1.859375 
Q 35.0625 -1.21875 28.609375 -1.21875 
Q 17.625 -1.21875 10.6875 6.859375 
Q 3.765625 14.9375 3.765625 33.5 
Q 3.765625 54.25 11.421875 63.671875 
Q 18.109375 71.875 29.4375 71.875 
Q 37.890625 71.875 43.28125 67.140625 
Q 48.6875 62.40625 49.75 54.046875 
z
M 13.875 23.1875 
Q 13.875 18.65625 15.796875 14.5 
Q 17.71875 10.359375 21.1875 8.171875 
Q 24.65625 6 28.46875 6 
Q 34.03125 6 38.03125 10.484375 
Q 42.046875 14.984375 42.046875 22.703125 
Q 42.046875 30.125 38.078125 34.390625 
Q 34.125 38.671875 28.125 38.671875 
Q 22.171875 38.671875 18.015625 34.390625 
Q 13.875 30.125 13.875 23.1875 
z
" id="ArialMT-36"/>
      </defs>
      <g style="fill:#262626;" transform="translate(82.046939 116.793594)scale(0.11 -0.11)">
       <use xlink:href="#ArialMT-36"/>
      </g>
     </g>
    </g>
    <g id="xtick_4">
     <g id="line2d_4">
      <g>
       <use style="fill:#262626;stroke:#262626;stroke-width:0.8;" x="99.054545" xlink:href="#mb469534613" y="101.92"/>
      </g>
     </g>
     <g id="text_4">
      <!-- 8 -->
      <defs>
       <path d="M 17.671875 38.8125 
Q 12.203125 40.828125 9.5625 44.53125 
Q 6.9375 48.25 6.9375 53.421875 
Q 6.9375 61.234375 12.546875 66.546875 
Q 18.171875 71.875 27.484375 71.875 
Q 36.859375 71.875 42.578125 66.421875 
Q 48.296875 60.984375 48.296875 53.171875 
Q 48.296875 48.1875 45.671875 44.5 
Q 43.0625 40.828125 37.75 38.8125 
Q 44.34375 36.671875 47.78125 31.875 
Q 51.21875 27.09375 51.21875 20.453125 
Q 51.21875 11.28125 44.71875 5.03125 
Q 38.234375 -1.21875 27.640625 -1.21875 
Q 17.046875 -1.21875 10.546875 5.046875 
Q 4.046875 11.328125 4.046875 20.703125 
Q 4.046875 27.6875 7.59375 32.390625 
Q 11.140625 37.109375 17.671875 38.8125 
z
M 15.921875 53.71875 
Q 15.921875 48.640625 19.1875 45.40625 
Q 22.46875 42.1875 27.6875 42.1875 
Q 32.765625 42.1875 36.015625 45.375 
Q 39.265625 48.578125 39.265625 53.21875 
Q 39.265625 58.0625 35.90625 61.359375 
Q 32.5625 64.65625 27.59375 64.65625 
Q 22.5625 64.65625 19.234375 61.421875 
Q 15.921875 58.203125 15.921875 53.71875 
z
M 13.09375 20.65625 
Q 13.09375 16.890625 14.875 13.375 
Q 16.65625 9.859375 20.171875 7.921875 
Q 23.6875 6 27.734375 6 
Q 34.03125 6 38.125 10.046875 
Q 42.234375 14.109375 42.234375 20.359375 
Q 42.234375 26.703125 38.015625 30.859375 
Q 33.796875 35.015625 27.4375 35.015625 
Q 21.234375 35.015625 17.15625 30.90625 
Q 13.09375 26.8125 13.09375 20.65625 
z
" id="ArialMT-38"/>
      </defs>
      <g style="fill:#262626;" transform="translate(95.99603 116.793594)scale(0.11 -0.11)">
       <use xlink:href="#ArialMT-38"/>
      </g>
     </g>
    </g>
    <g id="xtick_5">
     <g id="line2d_5">
      <g>
       <use style="fill:#262626;stroke:#262626;stroke-width:0.8;" x="113.003636" xlink:href="#mb469534613" y="101.92"/>
      </g>
     </g>
     <g id="text_5">
      <!-- 10 -->
      <defs>
       <path d="M 37.25 0 
L 28.46875 0 
L 28.46875 56 
Q 25.296875 52.984375 20.140625 49.953125 
Q 14.984375 46.921875 10.890625 45.40625 
L 10.890625 53.90625 
Q 18.265625 57.375 23.78125 62.296875 
Q 29.296875 67.234375 31.59375 71.875 
L 37.25 71.875 
z
" id="ArialMT-31"/>
       <path d="M 4.15625 35.296875 
Q 4.15625 48 6.765625 55.734375 
Q 9.375 63.484375 14.515625 67.671875 
Q 19.671875 71.875 27.484375 71.875 
Q 33.25 71.875 37.59375 69.546875 
Q 41.9375 67.234375 44.765625 62.859375 
Q 47.609375 58.5 49.21875 52.21875 
Q 50.828125 45.953125 50.828125 35.296875 
Q 50.828125 22.703125 48.234375 14.96875 
Q 45.65625 7.234375 40.5 3 
Q 35.359375 -1.21875 27.484375 -1.21875 
Q 17.140625 -1.21875 11.234375 6.203125 
Q 4.15625 15.140625 4.15625 35.296875 
z
M 13.1875 35.296875 
Q 13.1875 17.671875 17.3125 11.828125 
Q 21.4375 6 27.484375 6 
Q 33.546875 6 37.671875 11.859375 
Q 41.796875 17.71875 41.796875 35.296875 
Q 41.796875 52.984375 37.671875 58.78125 
Q 33.546875 64.59375 27.390625 64.59375 
Q 21.34375 64.59375 17.71875 59.46875 
Q 13.1875 52.9375 13.1875 35.296875 
z
" id="ArialMT-30"/>
      </defs>
      <g style="fill:#262626;" transform="translate(106.886605 116.793594)scale(0.11 -0.11)">
       <use xlink:href="#ArialMT-31"/>
       <use x="55.615234" xlink:href="#ArialMT-30"/>
      </g>
     </g>
    </g>
    <g id="xtick_6">
     <g id="line2d_6">
      <g>
       <use style="fill:#262626;stroke:#262626;stroke-width:0.8;" x="126.952727" xlink:href="#mb469534613" y="101.92"/>
      </g>
     </g>
     <g id="text_6">
      <!-- 12 -->
      <g style="fill:#262626;" transform="translate(120.835696 116.793594)scale(0.11 -0.11)">
       <use xlink:href="#ArialMT-31"/>
       <use x="55.615234" xlink:href="#ArialMT-32"/>
      </g>
     </g>
    </g>
    <g id="text_7">
     <!-- pH -->
     <defs>
      <path d="M 6.59375 -19.875 
L 6.59375 51.859375 
L 14.59375 51.859375 
L 14.59375 45.125 
Q 17.4375 49.078125 21 51.046875 
Q 24.5625 53.03125 29.640625 53.03125 
Q 36.28125 53.03125 41.359375 49.609375 
Q 46.4375 46.1875 49.015625 39.953125 
Q 51.609375 33.734375 51.609375 26.3125 
Q 51.609375 18.359375 48.75 11.984375 
Q 45.90625 5.609375 40.453125 2.21875 
Q 35.015625 -1.171875 29 -1.171875 
Q 24.609375 -1.171875 21.109375 0.6875 
Q 17.625 2.546875 15.375 5.375 
L 15.375 -19.875 
z
M 14.546875 25.640625 
Q 14.546875 15.625 18.59375 10.84375 
Q 22.65625 6.0625 28.421875 6.0625 
Q 34.28125 6.0625 38.453125 11.015625 
Q 42.625 15.96875 42.625 26.375 
Q 42.625 36.28125 38.546875 41.203125 
Q 34.46875 46.140625 28.8125 46.140625 
Q 23.1875 46.140625 18.859375 40.890625 
Q 14.546875 35.640625 14.546875 25.640625 
z
" id="ArialMT-70"/>
      <path d="M 8.015625 0 
L 8.015625 71.578125 
L 17.484375 71.578125 
L 17.484375 42.1875 
L 54.6875 42.1875 
L 54.6875 71.578125 
L 64.15625 71.578125 
L 64.15625 0 
L 54.6875 0 
L 54.6875 33.734375 
L 17.484375 33.734375 
L 17.484375 0 
z
" id="ArialMT-48"/>
     </defs>
     <g style="fill:#262626;" transform="translate(85.049453 130.853437)scale(0.11 -0.11)">
      <use xlink:href="#ArialMT-70"/>
      <use x="55.615234" xlink:href="#ArialMT-48"/>
     </g>
    </g>
   </g>
   <g id="matplotlib.axis_2">
    <g id="ytick_1">
     <g id="line2d_7">
      <defs>
       <path d="M 0 0 
L -3.5 0 
" id="m0d3f5cd43e" style="stroke:#262626;stroke-width:0.8;"/>
      </defs>
      <g>
       <use style="fill:#262626;stroke:#262626;stroke-width:0.8;" x="53.72" xlink:href="#m0d3f5cd43e" y="93.654699"/>
      </g>
     </g>
     <g id="text_8">
      <!-- 0 -->
      <g style="fill:#262626;" transform="translate(40.602969 97.591496)scale(0.11 -0.11)">
       <use xlink:href="#ArialMT-30"/>
      </g>
     </g>
    </g>
    <g id="ytick_2">
     <g id="line2d_8">
      <g>
       <use style="fill:#262626;stroke:#262626;stroke-width:0.8;" x="53.72" xlink:href="#m0d3f5cd43e" y="61.281192"/>
      </g>
     </g>
     <g id="text_9">
      <!-- 50 -->
      <defs>
       <path d="M 4.15625 18.75 
L 13.375 19.53125 
Q 14.40625 12.796875 18.140625 9.390625 
Q 21.875 6 27.15625 6 
Q 33.5 6 37.890625 10.78125 
Q 42.28125 15.578125 42.28125 23.484375 
Q 42.28125 31 38.0625 35.34375 
Q 33.84375 39.703125 27 39.703125 
Q 22.75 39.703125 19.328125 37.765625 
Q 15.921875 35.84375 13.96875 32.765625 
L 5.71875 33.84375 
L 12.640625 70.609375 
L 48.25 70.609375 
L 48.25 62.203125 
L 19.671875 62.203125 
L 15.828125 42.96875 
Q 22.265625 47.46875 29.34375 47.46875 
Q 38.71875 47.46875 45.15625 40.96875 
Q 51.609375 34.46875 51.609375 24.265625 
Q 51.609375 14.546875 45.953125 7.46875 
Q 39.0625 -1.21875 27.15625 -1.21875 
Q 17.390625 -1.21875 11.203125 4.25 
Q 5.03125 9.71875 4.15625 18.75 
z
" id="ArialMT-35"/>
      </defs>
      <g style="fill:#262626;" transform="translate(34.485938 65.217989)scale(0.11 -0.11)">
       <use xlink:href="#ArialMT-35"/>
       <use x="55.615234" xlink:href="#ArialMT-30"/>
      </g>
     </g>
    </g>
    <g id="ytick_3">
     <g id="line2d_9">
      <g>
       <use style="fill:#262626;stroke:#262626;stroke-width:0.8;" x="53.72" xlink:href="#m0d3f5cd43e" y="28.907685"/>
      </g>
     </g>
     <g id="text_10">
      <!-- 100 -->
      <g style="fill:#262626;" transform="translate(28.368906 32.844482)scale(0.11 -0.11)">
       <use xlink:href="#ArialMT-31"/>
       <use x="55.615234" xlink:href="#ArialMT-30"/>
       <use x="111.230469" xlink:href="#ArialMT-30"/>
      </g>
     </g>
    </g>
    <g id="text_11">
     <!-- Free energy ($k_B T$) -->
     <defs>
      <path d="M 8.203125 0 
L 8.203125 71.578125 
L 56.5 71.578125 
L 56.5 63.140625 
L 17.671875 63.140625 
L 17.671875 40.96875 
L 51.265625 40.96875 
L 51.265625 32.515625 
L 17.671875 32.515625 
L 17.671875 0 
z
" id="ArialMT-46"/>
      <path d="M 6.5 0 
L 6.5 51.859375 
L 14.40625 51.859375 
L 14.40625 44 
Q 17.4375 49.515625 20 51.265625 
Q 22.5625 53.03125 25.640625 53.03125 
Q 30.078125 53.03125 34.671875 50.203125 
L 31.640625 42.046875 
Q 28.421875 43.953125 25.203125 43.953125 
Q 22.3125 43.953125 20.015625 42.21875 
Q 17.71875 40.484375 16.75 37.40625 
Q 15.28125 32.71875 15.28125 27.15625 
L 15.28125 0 
z
" id="ArialMT-72"/>
      <path d="M 42.09375 16.703125 
L 51.171875 15.578125 
Q 49.03125 7.625 43.21875 3.21875 
Q 37.40625 -1.171875 28.375 -1.171875 
Q 17 -1.171875 10.328125 5.828125 
Q 3.65625 12.84375 3.65625 25.484375 
Q 3.65625 38.578125 10.390625 45.796875 
Q 17.140625 53.03125 27.875 53.03125 
Q 38.28125 53.03125 44.875 45.953125 
Q 51.46875 38.875 51.46875 26.03125 
Q 51.46875 25.25 51.421875 23.6875 
L 12.75 23.6875 
Q 13.234375 15.140625 17.578125 10.59375 
Q 21.921875 6.0625 28.421875 6.0625 
Q 33.25 6.0625 36.671875 8.59375 
Q 40.09375 11.140625 42.09375 16.703125 
z
M 13.234375 30.90625 
L 42.1875 30.90625 
Q 41.609375 37.453125 38.875 40.71875 
Q 34.671875 45.796875 27.984375 45.796875 
Q 21.921875 45.796875 17.796875 41.75 
Q 13.671875 37.703125 13.234375 30.90625 
z
" id="ArialMT-65"/>
      <path id="ArialMT-20"/>
      <path d="M 6.59375 0 
L 6.59375 51.859375 
L 14.5 51.859375 
L 14.5 44.484375 
Q 20.21875 53.03125 31 53.03125 
Q 35.6875 53.03125 39.625 51.34375 
Q 43.5625 49.65625 45.515625 46.921875 
Q 47.46875 44.1875 48.25 40.4375 
Q 48.734375 37.984375 48.734375 31.890625 
L 48.734375 0 
L 39.9375 0 
L 39.9375 31.546875 
Q 39.9375 36.921875 38.90625 39.578125 
Q 37.890625 42.234375 35.28125 43.8125 
Q 32.671875 45.40625 29.15625 45.40625 
Q 23.53125 45.40625 19.453125 41.84375 
Q 15.375 38.28125 15.375 28.328125 
L 15.375 0 
z
" id="ArialMT-6e"/>
      <path d="M 4.984375 -4.296875 
L 13.53125 -5.5625 
Q 14.0625 -9.515625 16.5 -11.328125 
Q 19.78125 -13.765625 25.4375 -13.765625 
Q 31.546875 -13.765625 34.859375 -11.328125 
Q 38.1875 -8.890625 39.359375 -4.5 
Q 40.046875 -1.8125 39.984375 6.78125 
Q 34.234375 0 25.640625 0 
Q 14.9375 0 9.078125 7.71875 
Q 3.21875 15.4375 3.21875 26.21875 
Q 3.21875 33.640625 5.90625 39.90625 
Q 8.59375 46.1875 13.6875 49.609375 
Q 18.796875 53.03125 25.6875 53.03125 
Q 34.859375 53.03125 40.828125 45.609375 
L 40.828125 51.859375 
L 48.921875 51.859375 
L 48.921875 7.03125 
Q 48.921875 -5.078125 46.453125 -10.125 
Q 44 -15.1875 38.640625 -18.109375 
Q 33.296875 -21.046875 25.484375 -21.046875 
Q 16.21875 -21.046875 10.5 -16.875 
Q 4.78125 -12.703125 4.984375 -4.296875 
z
M 12.25 26.859375 
Q 12.25 16.65625 16.296875 11.96875 
Q 20.359375 7.28125 26.46875 7.28125 
Q 32.515625 7.28125 36.609375 11.9375 
Q 40.71875 16.609375 40.71875 26.5625 
Q 40.71875 36.078125 36.5 40.90625 
Q 32.28125 45.75 26.3125 45.75 
Q 20.453125 45.75 16.34375 40.984375 
Q 12.25 36.234375 12.25 26.859375 
z
" id="ArialMT-67"/>
      <path d="M 6.203125 -19.96875 
L 5.21875 -11.71875 
Q 8.109375 -12.5 10.25 -12.5 
Q 13.1875 -12.5 14.9375 -11.515625 
Q 16.703125 -10.546875 17.828125 -8.796875 
Q 18.65625 -7.46875 20.515625 -2.25 
Q 20.75 -1.515625 21.296875 -0.09375 
L 1.609375 51.859375 
L 11.078125 51.859375 
L 21.875 21.828125 
Q 23.96875 16.109375 25.640625 9.8125 
Q 27.15625 15.875 29.25 21.625 
L 40.328125 51.859375 
L 49.125 51.859375 
L 29.390625 -0.875 
Q 26.21875 -9.421875 24.46875 -12.640625 
Q 22.125 -17 19.09375 -19.015625 
Q 16.0625 -21.046875 11.859375 -21.046875 
Q 9.328125 -21.046875 6.203125 -19.96875 
z
" id="ArialMT-79"/>
      <path d="M 23.390625 -21.046875 
Q 16.109375 -11.859375 11.078125 0.4375 
Q 6.0625 12.75 6.0625 25.921875 
Q 6.0625 37.546875 9.8125 48.1875 
Q 14.203125 60.546875 23.390625 72.796875 
L 29.6875 72.796875 
Q 23.78125 62.640625 21.875 58.296875 
Q 18.890625 51.5625 17.1875 44.234375 
Q 15.09375 35.109375 15.09375 25.875 
Q 15.09375 2.390625 29.6875 -21.046875 
z
" id="ArialMT-28"/>
      <path d="M 18.3125 75.984375 
L 27.296875 75.984375 
L 18.703125 31.6875 
L 49.515625 54.6875 
L 61.1875 54.6875 
L 26.8125 28.515625 
L 51.90625 0 
L 41.015625 0 
L 17.671875 26.703125 
L 12.5 0 
L 3.515625 0 
z
" id="DejaVuSans-Oblique-6b"/>
      <path d="M 16.890625 72.90625 
L 42.09375 72.90625 
Q 52.34375 72.90625 57.421875 69.09375 
Q 62.5 65.28125 62.5 57.625 
Q 62.5 50.59375 58.125 45.484375 
Q 53.765625 40.375 46.6875 39.3125 
Q 52.734375 37.9375 55.765625 34.078125 
Q 58.796875 30.21875 58.796875 23.78125 
Q 58.796875 12.796875 50.65625 6.390625 
Q 42.53125 0 28.421875 0 
L 2.6875 0 
z
M 19.28125 34.8125 
L 14.109375 8.109375 
L 29.984375 8.109375 
Q 38.921875 8.109375 43.75 12.203125 
Q 48.578125 16.3125 48.578125 23.78125 
Q 48.578125 29.546875 45.375 32.171875 
Q 42.1875 34.8125 35.109375 34.8125 
z
M 25.09375 64.796875 
L 20.796875 42.828125 
L 35.5 42.828125 
Q 43.359375 42.828125 47.78125 46.234375 
Q 52.203125 49.65625 52.203125 55.71875 
Q 52.203125 60.453125 49.21875 62.625 
Q 46.234375 64.796875 39.703125 64.796875 
z
" id="DejaVuSans-Oblique-42"/>
      <path d="M 5.90625 72.90625 
L 67.578125 72.90625 
L 66.015625 64.59375 
L 39.984375 64.59375 
L 27.484375 0 
L 17.578125 0 
L 30.078125 64.59375 
L 4.296875 64.59375 
z
" id="DejaVuSans-Oblique-54"/>
      <path d="M 12.359375 -21.046875 
L 6.0625 -21.046875 
Q 20.65625 2.390625 20.65625 25.875 
Q 20.65625 35.0625 18.5625 44.09375 
Q 16.890625 51.421875 13.921875 58.15625 
Q 12.015625 62.546875 6.0625 72.796875 
L 12.359375 72.796875 
Q 21.53125 60.546875 25.921875 48.1875 
Q 29.6875 37.546875 29.6875 25.921875 
Q 29.6875 12.75 24.625 0.4375 
Q 19.578125 -11.859375 12.359375 -21.046875 
z
" id="ArialMT-29"/>
     </defs>
     <g style="fill:#262626;" transform="translate(21.948906 101.96)rotate(-90)scale(0.11 -0.11)">
      <use transform="translate(0 0.015625)" xlink:href="#ArialMT-46"/>
      <use transform="translate(61.083984 0.015625)" xlink:href="#ArialMT-72"/>
      <use transform="translate(94.384766 0.015625)" xlink:href="#ArialMT-65"/>
      <use transform="translate(150 0.015625)" xlink:href="#ArialMT-65"/>
      <use transform="translate(205.615234 0.015625)" xlink:href="#ArialMT-20"/>
      <use transform="translate(233.398438 0.015625)" xlink:href="#ArialMT-65"/>
      <use transform="translate(289.013672 0.015625)" xlink:href="#ArialMT-6e"/>
      <use transform="translate(344.628906 0.015625)" xlink:href="#ArialMT-65"/>
      <use transform="translate(400.244141 0.015625)" xlink:href="#ArialMT-72"/>
      <use transform="translate(433.544922 0.015625)" xlink:href="#ArialMT-67"/>
      <use transform="translate(489.160156 0.015625)" xlink:href="#ArialMT-79"/>
      <use transform="translate(539.160156 0.015625)" xlink:href="#ArialMT-20"/>
      <use transform="translate(566.943359 0.015625)" xlink:href="#ArialMT-28"/>
      <use transform="translate(600.244141 0.015625)" xlink:href="#DejaVuSans-Oblique-6b"/>
      <use transform="translate(658.154297 -16.390625)scale(0.7)" xlink:href="#DejaVuSans-Oblique-42"/>
      <use transform="translate(708.911133 0.015625)" xlink:href="#DejaVuSans-Oblique-54"/>
      <use transform="translate(769.995117 0.015625)" xlink:href="#ArialMT-29"/>
     </g>
    </g>
   </g>
   <g id="patch_3">
    <path d="M 53.72 101.92 
L 53.72 13.56 
" style="fill:none;stroke:#262626;stroke-linecap:square;stroke-linejoin:miter;stroke-width:0.8;"/>
   </g>
   <g id="patch_4">
    <path d="M 53.72 101.92 
L 130.44 101.92 
" style="fill:none;stroke:#262626;stroke-linecap:square;stroke-linejoin:miter;stroke-width:0.8;"/>
   </g>
   <g id="line2d_10">
    <path clip-path="url(#p1f83ad7acf)" d="M 57.207273 62.302017 
L 57.904727 61.85476 
L 58.602182 61.407504 
L 59.299636 60.960247 
L 59.997091 60.51299 
L 60.694545 60.065734 
L 61.392 59.618477 
L 62.089455 59.171221 
L 62.786909 58.723964 
L 63.484364 58.276708 
L 64.181818 57.829451 
L 64.879273 57.382195 
L 65.576727 56.934938 
L 66.274182 56.487682 
L 66.971636 56.040425 
L 67.669091 55.593169 
L 68.366545 55.145912 
L 69.064 54.698656 
L 69.761455 54.251399 
L 70.458909 53.804143 
L 71.156364 53.356886 
L 71.853818 52.909629 
L 72.551273 52.462373 
L 73.248727 52.015116 
L 73.946182 51.56786 
L 74.643636 51.120603 
L 75.341091 50.673347 
L 76.038545 50.22609 
L 76.736 49.778834 
L 77.433455 49.331577 
L 78.130909 48.884321 
L 78.828364 48.437064 
L 79.525818 47.989808 
L 80.223273 47.542551 
L 80.920727 47.095295 
L 81.618182 46.648038 
L 82.315636 46.200782 
L 83.013091 45.753525 
L 83.710545 45.306268 
L 84.408 44.859012 
L 85.105455 44.411755 
L 85.802909 43.964499 
L 86.500364 43.517242 
L 87.197818 43.069986 
L 87.895273 42.622729 
L 88.592727 42.175473 
L 89.290182 41.728216 
L 89.987636 41.28096 
L 90.685091 40.833703 
L 91.382545 40.386447 
L 92.08 39.93919 
L 92.777455 39.491934 
L 93.474909 39.044677 
L 94.172364 38.597421 
L 94.869818 38.150164 
L 95.567273 37.702907 
L 96.264727 37.255651 
L 96.962182 36.808394 
L 97.659636 36.361138 
L 98.357091 35.913881 
L 99.054545 35.466625 
L 99.752 35.019368 
L 100.449455 34.572112 
L 101.146909 34.124855 
L 101.844364 33.677599 
L 102.541818 33.230342 
L 103.239273 32.783086 
L 103.936727 32.335829 
L 104.634182 31.888573 
L 105.331636 31.441316 
L 106.029091 30.99406 
L 106.726545 30.546803 
L 107.424 30.099546 
L 108.121455 29.65229 
L 108.818909 29.205033 
L 109.516364 28.757777 
L 110.213818 28.31052 
L 110.911273 27.863264 
L 111.608727 27.416007 
L 112.306182 26.968751 
L 113.003636 26.521494 
L 113.701091 26.074238 
L 114.398545 25.626981 
L 115.096 25.179725 
L 115.793455 24.732468 
L 116.490909 24.285212 
L 117.188364 23.837955 
L 117.885818 23.390699 
L 118.583273 22.943442 
L 119.280727 22.496185 
L 119.978182 22.048929 
L 120.675636 21.601672 
L 121.373091 21.154416 
L 122.070545 20.707159 
L 122.768 20.259903 
L 123.465455 19.812646 
L 124.162909 19.36539 
L 124.860364 18.918133 
L 125.557818 18.470877 
L 126.255273 18.02362 
L 126.952727 17.576364 
" style="fill:none;stroke:#2166ac;stroke-linecap:round;stroke-width:1.5;"/>
   </g>
   <g id="line2d_11">
    <path clip-path="url(#p1f83ad7acf)" d="M 57.207273 87.080028 
L 57.904727 86.781857 
L 58.602182 86.483686 
L 59.299636 86.185515 
L 59.997091 85.887344 
L 60.694545 85.589173 
L 61.392 85.291002 
L 62.089455 84.992831 
L 62.786909 84.69466 
L 63.484364 84.396489 
L 64.181818 84.098318 
L 64.879273 83.800147 
L 65.576727 83.501976 
L 66.274182 83.203805 
L 66.971636 82.905634 
L 67.669091 82.607463 
L 68.366545 82.309292 
L 69.064 82.011121 
L 69.761455 81.71295 
L 70.458909 81.414779 
L 71.156364 81.116608 
L 71.853818 80.818437 
L 72.551273 80.520266 
L 73.248727 80.222095 
L 73.946182 79.923924 
L 74.643636 79.625753 
L 75.341091 79.327582 
L 76.038545 79.029411 
L 76.736 78.73124 
L 77.433455 78.433069 
L 78.130909 78.134898 
L 78.828364 77.836727 
L 79.525818 77.538556 
L 80.223273 77.240385 
L 80.920727 76.942214 
L 81.618182 76.644043 
L 82.315636 76.345872 
L 83.013091 76.047701 
L 83.710545 75.74953 
L 84.408 75.451359 
L 85.105455 75.153188 
L 85.802909 74.855017 
L 86.500364 74.556846 
L 87.197818 74.258674 
L 87.895273 73.960503 
L 88.592727 73.662332 
L 89.290182 73.364161 
L 89.987636 73.06599 
L 90.685091 72.767819 
L 91.382545 72.469648 
L 92.08 72.171477 
L 92.777455 71.873306 
L 93.474909 71.575135 
L 94.172364 71.276964 
L 94.869818 70.978793 
L 95.567273 70.680622 
L 96.264727 70.382451 
L 96.962182 70.08428 
L 97.659636 69.786109 
L 98.357091 69.487938 
L 99.054545 69.189767 
L 99.752 68.891596 
L 100.449455 68.593425 
L 101.146909 68.295254 
L 101.844364 67.997083 
L 102.541818 67.698912 
L 103.239273 67.400741 
L 103.936727 67.10257 
L 104.634182 66.804399 
L 105.331636 66.506228 
L 106.029091 66.208057 
L 106.726545 65.909886 
L 107.424 65.611715 
L 108.121455 65.313544 
L 108.818909 65.015373 
L 109.516364 64.717202 
L 110.213818 64.419031 
L 110.911273 64.12086 
L 111.608727 63.822689 
L 112.306182 63.524518 
L 113.003636 63.226347 
L 113.701091 62.928176 
L 114.398545 62.630005 
L 115.096 62.331834 
L 115.793455 62.033663 
L 116.490909 61.735492 
L 117.188364 61.437321 
L 117.885818 61.13915 
L 118.583273 60.840979 
L 119.280727 60.542808 
L 119.978182 60.244637 
L 120.675636 59.946466 
L 121.373091 59.648295 
L 122.070545 59.350124 
L 122.768 59.051952 
L 123.465455 58.753781 
L 124.162909 58.45561 
L 124.860364 58.157439 
L 125.557818 57.859268 
L 126.255273 57.561097 
L 126.952727 57.262926 
" style="fill:none;stroke:#4393c3;stroke-linecap:round;stroke-width:1.5;"/>
   </g>
   <g id="line2d_12">
    <path clip-path="url(#p1f83ad7acf)" d="M 57.207273 95.443725 
L 57.904727 95.145554 
L 58.602182 94.847383 
L 59.299636 94.549212 
L 59.997091 94.251041 
L 60.694545 93.95287 
L 61.392 93.654699 
L 62.089455 93.356528 
L 62.786909 93.058357 
L 63.484364 92.760186 
L 64.181818 92.462015 
L 64.879273 92.163844 
L 65.576727 91.865673 
L 66.274182 91.567502 
L 66.971636 91.269331 
L 67.669091 90.97116 
L 68.366545 90.672989 
L 69.064 90.374818 
L 69.761455 90.076647 
L 70.458909 89.778476 
L 71.156364 89.480305 
L 71.853818 89.182134 
L 72.551273 88.883963 
L 73.248727 88.585792 
L 73.946182 88.287621 
L 74.643636 87.98945 
L 75.341091 87.691279 
L 76.038545 87.393108 
L 76.736 87.094937 
L 77.433455 86.796766 
L 78.130909 86.498595 
L 78.828364 86.200424 
L 79.525818 85.902253 
L 80.223273 85.604082 
L 80.920727 85.305911 
L 81.618182 85.00774 
L 82.315636 84.709569 
L 83.013091 84.411398 
L 83.710545 84.113227 
L 84.408 83.815056 
L 85.105455 83.516885 
L 85.802909 83.218714 
L 86.500364 82.920543 
L 87.197818 82.622372 
L 87.895273 82.324201 
L 88.592727 82.02603 
L 89.290182 81.727859 
L 89.987636 81.429688 
L 90.685091 81.131517 
L 91.382545 80.833345 
L 92.08 80.535174 
L 92.777455 80.237003 
L 93.474909 79.938832 
L 94.172364 79.640661 
L 94.869818 79.34249 
L 95.567273 79.044319 
L 96.264727 78.746148 
L 96.962182 78.447977 
L 97.659636 78.149806 
L 98.357091 77.851635 
L 99.054545 77.553464 
L 99.752 77.255293 
L 100.449455 76.957122 
L 101.146909 76.658951 
L 101.844364 76.36078 
L 102.541818 76.062609 
L 103.239273 75.764438 
L 103.936727 75.466267 
L 104.634182 75.168096 
L 105.331636 74.869925 
L 106.029091 74.571754 
L 106.726545 74.273583 
L 107.424 73.975412 
L 108.121455 73.677241 
L 108.818909 73.37907 
L 109.516364 73.080899 
L 110.213818 72.782728 
L 110.911273 72.484557 
L 111.608727 72.186386 
L 112.306182 71.888215 
L 113.003636 71.590044 
L 113.701091 71.291873 
L 114.398545 70.993702 
L 115.096 70.695531 
L 115.793455 70.39736 
L 116.490909 70.099189 
L 117.188364 69.801018 
L 117.885818 69.502847 
L 118.583273 69.204676 
L 119.280727 68.906505 
L 119.978182 68.608334 
L 120.675636 68.310163 
L 121.373091 68.011992 
L 122.070545 67.713821 
L 122.768 67.41565 
L 123.465455 67.117479 
L 124.162909 66.819308 
L 124.860364 66.521137 
L 125.557818 66.222966 
L 126.255273 65.924794 
L 126.952727 65.626623 
" style="fill:none;stroke:#4393c3;stroke-linecap:round;stroke-width:1.5;"/>
   </g>
   <g id="line2d_13">
    <path clip-path="url(#p1f83ad7acf)" d="M 57.207273 92.253296 
L 57.904727 91.955125 
L 58.602182 91.656953 
L 59.299636 91.358782 
L 59.997091 91.060611 
L 60.694545 90.76244 
L 61.392 90.464269 
L 62.089455 90.166098 
L 62.786909 89.867927 
L 63.484364 89.569756 
L 64.181818 89.271585 
L 64.879273 88.973414 
L 65.576727 88.675243 
L 66.274182 88.377072 
L 66.971636 88.078901 
L 67.669091 87.78073 
L 68.366545 87.482559 
L 69.064 87.184388 
L 69.761455 86.886217 
L 70.458909 86.588046 
L 71.156364 86.289875 
L 71.853818 85.991704 
L 72.551273 85.693533 
L 73.248727 85.395362 
L 73.946182 85.097191 
L 74.643636 84.79902 
L 75.341091 84.500849 
L 76.038545 84.202678 
L 76.736 83.904507 
L 77.433455 83.606336 
L 78.130909 83.308165 
L 78.828364 83.009994 
L 79.525818 82.711823 
L 80.223273 82.413652 
L 80.920727 82.115481 
L 81.618182 81.81731 
L 82.315636 81.519139 
L 83.013091 81.220968 
L 83.710545 80.922797 
L 84.408 80.624626 
L 85.105455 80.326455 
L 85.802909 80.028284 
L 86.500364 79.730113 
L 87.197818 79.431942 
L 87.895273 79.133771 
L 88.592727 78.8356 
L 89.290182 78.537429 
L 89.987636 78.239258 
L 90.685091 77.941087 
L 91.382545 77.642916 
L 92.08 77.344745 
L 92.777455 77.046574 
L 93.474909 76.748403 
L 94.172364 76.450231 
L 94.869818 76.15206 
L 95.567273 75.853889 
L 96.264727 75.555718 
L 96.962182 75.257547 
L 97.659636 74.959376 
L 98.357091 74.661205 
L 99.054545 74.363034 
L 99.752 74.064863 
L 100.449455 73.766692 
L 101.146909 73.468521 
L 101.844364 73.17035 
L 102.541818 72.872179 
L 103.239273 72.574008 
L 103.936727 72.275837 
L 104.634182 71.977666 
L 105.331636 71.679495 
L 106.029091 71.381324 
L 106.726545 71.083153 
L 107.424 70.784982 
L 108.121455 70.486811 
L 108.818909 70.18864 
L 109.516364 69.890469 
L 110.213818 69.592298 
L 110.911273 69.294127 
L 111.608727 68.995956 
L 112.306182 68.697785 
L 113.003636 68.399614 
L 113.701091 68.101443 
L 114.398545 67.803272 
L 115.096 67.505101 
L 115.793455 67.20693 
L 116.490909 66.908759 
L 117.188364 66.610588 
L 117.885818 66.312417 
L 118.583273 66.014246 
L 119.280727 65.716075 
L 119.978182 65.417904 
L 120.675636 65.119733 
L 121.373091 64.821562 
L 122.070545 64.523391 
L 122.768 64.22522 
L 123.465455 63.927049 
L 124.162909 63.628878 
L 124.860364 63.330707 
L 125.557818 63.032536 
L 126.255273 62.734365 
L 126.952727 62.436194 
" style="fill:none;stroke:#4393c3;stroke-linecap:round;stroke-width:1.5;"/>
   </g>
   <g id="line2d_14">
    <path clip-path="url(#p1f83ad7acf)" d="M 57.207273 80.296638 
L 57.904727 79.998467 
L 58.602182 79.700296 
L 59.299636 79.402125 
L 59.997091 79.103954 
L 60.694545 78.805783 
L 61.392 78.507612 
L 62.089455 78.209441 
L 62.786909 77.911269 
L 63.484364 77.613098 
L 64.181818 77.314927 
L 64.879273 77.016756 
L 65.576727 76.718585 
L 66.274182 76.420414 
L 66.971636 76.122243 
L 67.669091 75.824072 
L 68.366545 75.525901 
L 69.064 75.22773 
L 69.761455 74.929559 
L 70.458909 74.631388 
L 71.156364 74.333217 
L 71.853818 74.035046 
L 72.551273 73.736875 
L 73.248727 73.438704 
L 73.946182 73.140533 
L 74.643636 72.842362 
L 75.341091 72.544191 
L 76.038545 72.24602 
L 76.736 71.947849 
L 77.433455 71.649678 
L 78.130909 71.351507 
L 78.828364 71.053336 
L 79.525818 70.755165 
L 80.223273 70.456994 
L 80.920727 70.158823 
L 81.618182 69.860652 
L 82.315636 69.562481 
L 83.013091 69.26431 
L 83.710545 68.966139 
L 84.408 68.667968 
L 85.105455 68.369797 
L 85.802909 68.071626 
L 86.500364 67.773455 
L 87.197818 67.475284 
L 87.895273 67.177113 
L 88.592727 66.878942 
L 89.290182 66.580771 
L 89.987636 66.2826 
L 90.685091 65.984429 
L 91.382545 65.686258 
L 92.08 65.388087 
L 92.777455 65.089916 
L 93.474909 64.791745 
L 94.172364 64.493574 
L 94.869818 64.195403 
L 95.567273 63.897232 
L 96.264727 63.599061 
L 96.962182 63.30089 
L 97.659636 63.002718 
L 98.357091 62.704547 
L 99.054545 62.406376 
L 99.752 62.108205 
L 100.449455 61.810034 
L 101.146909 61.511863 
L 101.844364 61.213692 
L 102.541818 60.915521 
L 103.239273 60.61735 
L 103.936727 60.319179 
L 104.634182 60.021008 
L 105.331636 59.722837 
L 106.029091 59.424666 
L 106.726545 59.126495 
L 107.424 58.828324 
L 108.121455 58.530153 
L 108.818909 58.231982 
L 109.516364 57.933811 
L 110.213818 57.63564 
L 110.911273 57.337469 
L 111.608727 57.039298 
L 112.306182 56.741127 
L 113.003636 56.442956 
L 113.701091 56.144785 
L 114.398545 55.846614 
L 115.096 55.548443 
L 115.793455 55.250272 
L 116.490909 54.952101 
L 117.188364 54.65393 
L 117.885818 54.355759 
L 118.583273 54.057588 
L 119.280727 53.759417 
L 119.978182 53.461246 
L 120.675636 53.163075 
L 121.373091 52.864904 
L 122.070545 52.566733 
L 122.768 52.268562 
L 123.465455 51.970391 
L 124.162909 51.67222 
L 124.860364 51.374049 
L 125.557818 51.075878 
L 126.255273 50.777707 
L 126.952727 50.479536 
" style="fill:none;stroke:#4393c3;stroke-linecap:round;stroke-width:1.5;"/>
   </g>
   <g id="line2d_15">
    <path clip-path="url(#p1f83ad7acf)" d="M 57.207273 77.881452 
L 57.904727 77.583281 
L 58.602182 77.28511 
L 59.299636 76.986939 
L 59.997091 76.688768 
L 60.694545 76.390597 
L 61.392 76.092426 
L 62.089455 75.794255 
L 62.786909 75.496084 
L 63.484364 75.197913 
L 64.181818 74.899742 
L 64.879273 74.601571 
L 65.576727 74.3034 
L 66.274182 74.005229 
L 66.971636 73.707058 
L 67.669091 73.408887 
L 68.366545 73.110716 
L 69.064 72.812545 
L 69.761455 72.514374 
L 70.458909 72.216203 
L 71.156364 71.918032 
L 71.853818 71.619861 
L 72.551273 71.32169 
L 73.248727 71.023519 
L 73.946182 70.725348 
L 74.643636 70.427177 
L 75.341091 70.129006 
L 76.038545 69.830835 
L 76.736 69.532664 
L 77.433455 69.234493 
L 78.130909 68.936322 
L 78.828364 68.638151 
L 79.525818 68.33998 
L 80.223273 68.041809 
L 80.920727 67.743638 
L 81.618182 67.445467 
L 82.315636 67.147296 
L 83.013091 66.849125 
L 83.710545 66.550954 
L 84.408 66.252783 
L 85.105455 65.954612 
L 85.802909 65.656441 
L 86.500364 65.35827 
L 87.197818 65.060099 
L 87.895273 64.761928 
L 88.592727 64.463756 
L 89.290182 64.165585 
L 89.987636 63.867414 
L 90.685091 63.569243 
L 91.382545 63.271072 
L 92.08 62.972901 
L 92.777455 62.67473 
L 93.474909 62.376559 
L 94.172364 62.078388 
L 94.869818 61.780217 
L 95.567273 61.482046 
L 96.264727 61.183875 
L 96.962182 60.885704 
L 97.659636 60.587533 
L 98.357091 60.289362 
L 99.054545 59.991191 
L 99.752 59.69302 
L 100.449455 59.394849 
L 101.146909 59.096678 
L 101.844364 58.798507 
L 102.541818 58.500336 
L 103.239273 58.202165 
L 103.936727 57.903994 
L 104.634182 57.605823 
L 105.331636 57.307652 
L 106.029091 57.009481 
L 106.726545 56.71131 
L 107.424 56.413139 
L 108.121455 56.114968 
L 108.818909 55.816797 
L 109.516364 55.518626 
L 110.213818 55.220455 
L 110.911273 54.922284 
L 111.608727 54.624113 
L 112.306182 54.325942 
L 113.003636 54.027771 
L 113.701091 53.7296 
L 114.398545 53.431429 
L 115.096 53.133258 
L 115.793455 52.835087 
L 116.490909 52.536916 
L 117.188364 52.238745 
L 117.885818 51.940574 
L 118.583273 51.642403 
L 119.280727 51.344232 
L 119.978182 51.046061 
L 120.675636 50.74789 
L 121.373091 50.449719 
L 122.070545 50.151548 
L 122.768 49.853377 
L 123.465455 49.555206 
L 124.162909 49.257034 
L 124.860364 48.958863 
L 125.557818 48.660692 
L 126.255273 48.362521 
L 126.952727 48.06435 
" style="fill:none;stroke:#4393c3;stroke-linecap:round;stroke-width:1.5;"/>
   </g>
   <g id="line2d_16">
    <path clip-path="url(#p1f83ad7acf)" d="M 57.207273 64.299762 
L 57.904727 63.852506 
L 58.602182 63.405249 
L 59.299636 62.957993 
L 59.997091 62.510736 
L 60.694545 62.06348 
L 61.392 61.616223 
L 62.089455 61.168967 
L 62.786909 60.72171 
L 63.484364 60.274454 
L 64.181818 59.827197 
L 64.879273 59.379941 
L 65.576727 58.932684 
L 66.274182 58.485428 
L 66.971636 58.038171 
L 67.669091 57.590914 
L 68.366545 57.143658 
L 69.064 56.696401 
L 69.761455 56.249145 
L 70.458909 55.801888 
L 71.156364 55.354632 
L 71.853818 54.907375 
L 72.551273 54.460119 
L 73.248727 54.012862 
L 73.946182 53.565606 
L 74.643636 53.118349 
L 75.341091 52.671093 
L 76.038545 52.223836 
L 76.736 51.77658 
L 77.433455 51.329323 
L 78.130909 50.882067 
L 78.828364 50.43481 
L 79.525818 49.987553 
L 80.223273 49.540297 
L 80.920727 49.09304 
L 81.618182 48.645784 
L 82.315636 48.198527 
L 83.013091 47.751271 
L 83.710545 47.304014 
L 84.408 46.856758 
L 85.105455 46.409501 
L 85.802909 45.962245 
L 86.500364 45.514988 
L 87.197818 45.067732 
L 87.895273 44.620475 
L 88.592727 44.173219 
L 89.290182 43.725962 
L 89.987636 43.278706 
L 90.685091 42.831449 
L 91.382545 42.384192 
L 92.08 41.936936 
L 92.777455 41.489679 
L 93.474909 41.042423 
L 94.172364 40.595166 
L 94.869818 40.14791 
L 95.567273 39.700653 
L 96.264727 39.253397 
L 96.962182 38.80614 
L 97.659636 38.358884 
L 98.357091 37.911627 
L 99.054545 37.464371 
L 99.752 37.017114 
L 100.449455 36.569858 
L 101.146909 36.122601 
L 101.844364 35.675345 
L 102.541818 35.228088 
L 103.239273 34.780831 
L 103.936727 34.333575 
L 104.634182 33.886318 
L 105.331636 33.439062 
L 106.029091 32.991805 
L 106.726545 32.544549 
L 107.424 32.097292 
L 108.121455 31.650036 
L 108.818909 31.202779 
L 109.516364 30.755523 
L 110.213818 30.308266 
L 110.911273 29.86101 
L 111.608727 29.413753 
L 112.306182 28.966497 
L 113.003636 28.51924 
L 113.701091 28.071984 
L 114.398545 27.624727 
L 115.096 27.17747 
L 115.793455 26.730214 
L 116.490909 26.282957 
L 117.188364 25.835701 
L 117.885818 25.388444 
L 118.583273 24.941188 
L 119.280727 24.493931 
L 119.978182 24.046675 
L 120.675636 23.599418 
L 121.373091 23.152162 
L 122.070545 22.704905 
L 122.768 22.257649 
L 123.465455 21.810392 
L 124.162909 21.363136 
L 124.860364 20.915879 
L 125.557818 20.468623 
L 126.255273 20.021366 
L 126.952727 19.574109 
" style="fill:none;stroke:#4393c3;stroke-linecap:round;stroke-width:1.5;"/>
   </g>
   <g id="line2d_17">
    <path clip-path="url(#p1f83ad7acf)" d="M 57.207273 71.21733 
L 57.904727 71.366416 
L 58.602182 71.515501 
L 59.299636 71.664587 
L 59.997091 71.813672 
L 60.694545 71.962758 
L 61.392 72.111843 
L 62.089455 72.260929 
L 62.786909 72.410014 
L 63.484364 72.5591 
L 64.181818 72.708185 
L 64.879273 72.857271 
L 65.576727 73.006356 
L 66.274182 73.155442 
L 66.971636 73.304527 
L 67.669091 73.453613 
L 68.366545 73.602698 
L 69.064 73.751784 
L 69.761455 73.900869 
L 70.458909 74.049955 
L 71.156364 74.19904 
L 71.853818 74.348126 
L 72.551273 74.497211 
L 73.248727 74.646297 
L 73.946182 74.795382 
L 74.643636 74.944468 
L 75.341091 75.093553 
L 76.038545 75.242639 
L 76.736 75.391724 
L 77.433455 75.54081 
L 78.130909 75.689895 
L 78.828364 75.838981 
L 79.525818 75.988066 
L 80.223273 76.137152 
L 80.920727 76.286237 
L 81.618182 76.435323 
L 82.315636 76.584408 
L 83.013091 76.733494 
L 83.710545 76.882579 
L 84.408 77.031665 
L 85.105455 77.18075 
L 85.802909 77.329836 
L 86.500364 77.478922 
L 87.197818 77.628007 
L 87.895273 77.777093 
L 88.592727 77.926178 
L 89.290182 78.075264 
L 89.987636 78.224349 
L 90.685091 78.373435 
L 91.382545 78.52252 
L 92.08 78.671606 
L 92.777455 78.820691 
L 93.474909 78.969777 
L 94.172364 79.118862 
L 94.869818 79.267948 
L 95.567273 79.417033 
L 96.264727 79.566119 
L 96.962182 79.715204 
L 97.659636 79.86429 
L 98.357091 80.013375 
L 99.054545 80.162461 
L 99.752 80.311546 
L 100.449455 80.460632 
L 101.146909 80.609717 
L 101.844364 80.758803 
L 102.541818 80.907888 
L 103.239273 81.056974 
L 103.936727 81.206059 
L 104.634182 81.355145 
L 105.331636 81.50423 
L 106.029091 81.653316 
L 106.726545 81.802401 
L 107.424 81.951487 
L 108.121455 82.100572 
L 108.818909 82.249658 
L 109.516364 82.398743 
L 110.213818 82.547829 
L 110.911273 82.696914 
L 111.608727 82.846 
L 112.306182 82.995085 
L 113.003636 83.144171 
L 113.701091 83.293256 
L 114.398545 83.442342 
L 115.096 83.591427 
L 115.793455 83.740513 
L 116.490909 83.889598 
L 117.188364 84.038684 
L 117.885818 84.187769 
L 118.583273 84.336855 
L 119.280727 84.48594 
L 119.978182 84.635026 
L 120.675636 84.784111 
L 121.373091 84.933197 
L 122.070545 85.082283 
L 122.768 85.231368 
L 123.465455 85.380454 
L 124.162909 85.529539 
L 124.860364 85.678625 
L 125.557818 85.82771 
L 126.255273 85.976796 
L 126.952727 86.125881 
" style="fill:none;stroke:#f4a582;stroke-linecap:round;stroke-width:1.5;"/>
   </g>
   <g id="line2d_18">
    <path clip-path="url(#p1f83ad7acf)" d="M 57.207273 83.725604 
L 57.904727 83.576519 
L 58.602182 83.427433 
L 59.299636 83.278348 
L 59.997091 83.129262 
L 60.694545 82.980177 
L 61.392 82.831091 
L 62.089455 82.682006 
L 62.786909 82.53292 
L 63.484364 82.383835 
L 64.181818 82.234749 
L 64.879273 82.085664 
L 65.576727 81.936578 
L 66.274182 81.787493 
L 66.971636 81.638407 
L 67.669091 81.489322 
L 68.366545 81.340236 
L 69.064 81.191151 
L 69.761455 81.042065 
L 70.458909 80.89298 
L 71.156364 80.743894 
L 71.853818 80.594809 
L 72.551273 80.445723 
L 73.248727 80.296638 
L 73.946182 80.147552 
L 74.643636 79.998467 
L 75.341091 79.849381 
L 76.038545 79.700296 
L 76.736 79.55121 
L 77.433455 79.402125 
L 78.130909 79.253039 
L 78.828364 79.103954 
L 79.525818 78.954868 
L 80.223273 78.805783 
L 80.920727 78.656697 
L 81.618182 78.507612 
L 82.315636 78.358526 
L 83.013091 78.209441 
L 83.710545 78.060355 
L 84.408 77.911269 
L 85.105455 77.762184 
L 85.802909 77.613098 
L 86.500364 77.464013 
L 87.197818 77.314927 
L 87.895273 77.165842 
L 88.592727 77.016756 
L 89.290182 76.867671 
L 89.987636 76.718585 
L 90.685091 76.5695 
L 91.382545 76.420414 
L 92.08 76.271329 
L 92.777455 76.122243 
L 93.474909 75.973158 
L 94.172364 75.824072 
L 94.869818 75.674987 
L 95.567273 75.525901 
L 96.264727 75.376816 
L 96.962182 75.22773 
L 97.659636 75.078645 
L 98.357091 74.929559 
L 99.054545 74.780474 
L 99.752 74.631388 
L 100.449455 74.482303 
L 101.146909 74.333217 
L 101.844364 74.184132 
L 102.541818 74.035046 
L 103.239273 73.885961 
L 103.936727 73.736875 
L 104.634182 73.58779 
L 105.331636 73.438704 
L 106.029091 73.289619 
L 106.726545 73.140533 
L 107.424 72.991448 
L 108.121455 72.842362 
L 108.818909 72.693277 
L 109.516364 72.544191 
L 110.213818 72.395106 
L 110.911273 72.24602 
L 111.608727 72.096935 
L 112.306182 71.947849 
L 113.003636 71.798764 
L 113.701091 71.649678 
L 114.398545 71.500593 
L 115.096 71.351507 
L 115.793455 71.202422 
L 116.490909 71.053336 
L 117.188364 70.904251 
L 117.885818 70.755165 
L 118.583273 70.60608 
L 119.280727 70.456994 
L 119.978182 70.307908 
L 120.675636 70.158823 
L 121.373091 70.009737 
L 122.070545 69.860652 
L 122.768 69.711566 
L 123.465455 69.562481 
L 124.162909 69.413395 
L 124.860364 69.26431 
L 125.557818 69.115224 
L 126.255273 68.966139 
L 126.952727 68.817053 
" style="fill:none;stroke:#92c5de;stroke-linecap:round;stroke-width:1.5;"/>
   </g>
   <g id="line2d_19">
    <path clip-path="url(#p1f83ad7acf)" d="M 57.207273 90.002104 
L 57.904727 89.853019 
L 58.602182 89.703933 
L 59.299636 89.554848 
L 59.997091 89.405762 
L 60.694545 89.256677 
L 61.392 89.107591 
L 62.089455 88.958506 
L 62.786909 88.80942 
L 63.484364 88.660335 
L 64.181818 88.511249 
L 64.879273 88.362164 
L 65.576727 88.213078 
L 66.274182 88.063993 
L 66.971636 87.914907 
L 67.669091 87.765822 
L 68.366545 87.616736 
L 69.064 87.467651 
L 69.761455 87.318565 
L 70.458909 87.16948 
L 71.156364 87.020394 
L 71.853818 86.871309 
L 72.551273 86.722223 
L 73.248727 86.573138 
L 73.946182 86.424052 
L 74.643636 86.274967 
L 75.341091 86.125881 
L 76.038545 85.976796 
L 76.736 85.82771 
L 77.433455 85.678625 
L 78.130909 85.529539 
L 78.828364 85.380454 
L 79.525818 85.231368 
L 80.223273 85.082283 
L 80.920727 84.933197 
L 81.618182 84.784111 
L 82.315636 84.635026 
L 83.013091 84.48594 
L 83.710545 84.336855 
L 84.408 84.187769 
L 85.105455 84.038684 
L 85.802909 83.889598 
L 86.500364 83.740513 
L 87.197818 83.591427 
L 87.895273 83.442342 
L 88.592727 83.293256 
L 89.290182 83.144171 
L 89.987636 82.995085 
L 90.685091 82.846 
L 91.382545 82.696914 
L 92.08 82.547829 
L 92.777455 82.398743 
L 93.474909 82.249658 
L 94.172364 82.100572 
L 94.869818 81.951487 
L 95.567273 81.802401 
L 96.264727 81.653316 
L 96.962182 81.50423 
L 97.659636 81.355145 
L 98.357091 81.206059 
L 99.054545 81.056974 
L 99.752 80.907888 
L 100.449455 80.758803 
L 101.146909 80.609717 
L 101.844364 80.460632 
L 102.541818 80.311546 
L 103.239273 80.162461 
L 103.936727 80.013375 
L 104.634182 79.86429 
L 105.331636 79.715204 
L 106.029091 79.566119 
L 106.726545 79.417033 
L 107.424 79.267948 
L 108.121455 79.118862 
L 108.818909 78.969777 
L 109.516364 78.820691 
L 110.213818 78.671606 
L 110.911273 78.52252 
L 111.608727 78.373435 
L 112.306182 78.224349 
L 113.003636 78.075264 
L 113.701091 77.926178 
L 114.398545 77.777093 
L 115.096 77.628007 
L 115.793455 77.478922 
L 116.490909 77.329836 
L 117.188364 77.18075 
L 117.885818 77.031665 
L 118.583273 76.882579 
L 119.280727 76.733494 
L 119.978182 76.584408 
L 120.675636 76.435323 
L 121.373091 76.286237 
L 122.070545 76.137152 
L 122.768 75.988066 
L 123.465455 75.838981 
L 124.162909 75.689895 
L 124.860364 75.54081 
L 125.557818 75.391724 
L 126.255273 75.242639 
L 126.952727 75.093553 
" style="fill:none;stroke:#92c5de;stroke-linecap:round;stroke-width:1.5;"/>
   </g>
   <g id="line2d_20">
    <path clip-path="url(#p1f83ad7acf)" d="M 57.207273 96.979306 
L 57.904727 96.830221 
L 58.602182 96.681135 
L 59.299636 96.53205 
L 59.997091 96.382964 
L 60.694545 96.233879 
L 61.392 96.084793 
L 62.089455 95.935708 
L 62.786909 95.786622 
L 63.484364 95.637537 
L 64.181818 95.488451 
L 64.879273 95.339366 
L 65.576727 95.19028 
L 66.274182 95.041195 
L 66.971636 94.892109 
L 67.669091 94.743024 
L 68.366545 94.593938 
L 69.064 94.444853 
L 69.761455 94.295767 
L 70.458909 94.146682 
L 71.156364 93.997596 
L 71.853818 93.84851 
L 72.551273 93.699425 
L 73.248727 93.550339 
L 73.946182 93.401254 
L 74.643636 93.252168 
L 75.341091 93.103083 
L 76.038545 92.953997 
L 76.736 92.804912 
L 77.433455 92.655826 
L 78.130909 92.506741 
L 78.828364 92.357655 
L 79.525818 92.20857 
L 80.223273 92.059484 
L 80.920727 91.910399 
L 81.618182 91.761313 
L 82.315636 91.612228 
L 83.013091 91.463142 
L 83.710545 91.314057 
L 84.408 91.164971 
L 85.105455 91.015886 
L 85.802909 90.8668 
L 86.500364 90.717715 
L 87.197818 90.568629 
L 87.895273 90.419544 
L 88.592727 90.270458 
L 89.290182 90.121373 
L 89.987636 89.972287 
L 90.685091 89.823202 
L 91.382545 89.674116 
L 92.08 89.525031 
L 92.777455 89.375945 
L 93.474909 89.22686 
L 94.172364 89.077774 
L 94.869818 88.928689 
L 95.567273 88.779603 
L 96.264727 88.630518 
L 96.962182 88.481432 
L 97.659636 88.332347 
L 98.357091 88.183261 
L 99.054545 88.034176 
L 99.752 87.88509 
L 100.449455 87.736005 
L 101.146909 87.586919 
L 101.844364 87.437834 
L 102.541818 87.288748 
L 103.239273 87.139663 
L 103.936727 86.990577 
L 104.634182 86.841492 
L 105.331636 86.692406 
L 106.029091 86.543321 
L 106.726545 86.394235 
L 107.424 86.245149 
L 108.121455 86.096064 
L 108.818909 85.946978 
L 109.516364 85.797893 
L 110.213818 85.648807 
L 110.911273 85.499722 
L 111.608727 85.350636 
L 112.306182 85.201551 
L 113.003636 85.052465 
L 113.701091 84.90338 
L 114.398545 84.754294 
L 115.096 84.605209 
L 115.793455 84.456123 
L 116.490909 84.307038 
L 117.188364 84.157952 
L 117.885818 84.008867 
L 118.583273 83.859781 
L 119.280727 83.710696 
L 119.978182 83.56161 
L 120.675636 83.412525 
L 121.373091 83.263439 
L 122.070545 83.114354 
L 122.768 82.965268 
L 123.465455 82.816183 
L 124.162909 82.667097 
L 124.860364 82.518012 
L 125.557818 82.368926 
L 126.255273 82.219841 
L 126.952727 82.070755 
" style="fill:none;stroke:#92c5de;stroke-linecap:round;stroke-width:1.5;"/>
   </g>
   <g id="line2d_21">
    <path clip-path="url(#p1f83ad7acf)" d="M 57.207273 94.743024 
L 57.904727 94.593938 
L 58.602182 94.444853 
L 59.299636 94.295767 
L 59.997091 94.146682 
L 60.694545 93.997596 
L 61.392 93.84851 
L 62.089455 93.699425 
L 62.786909 93.550339 
L 63.484364 93.401254 
L 64.181818 93.252168 
L 64.879273 93.103083 
L 65.576727 92.953997 
L 66.274182 92.804912 
L 66.971636 92.655826 
L 67.669091 92.506741 
L 68.366545 92.357655 
L 69.064 92.20857 
L 69.761455 92.059484 
L 70.458909 91.910399 
L 71.156364 91.761313 
L 71.853818 91.612228 
L 72.551273 91.463142 
L 73.248727 91.314057 
L 73.946182 91.164971 
L 74.643636 91.015886 
L 75.341091 90.8668 
L 76.038545 90.717715 
L 76.736 90.568629 
L 77.433455 90.419544 
L 78.130909 90.270458 
L 78.828364 90.121373 
L 79.525818 89.972287 
L 80.223273 89.823202 
L 80.920727 89.674116 
L 81.618182 89.525031 
L 82.315636 89.375945 
L 83.013091 89.22686 
L 83.710545 89.077774 
L 84.408 88.928689 
L 85.105455 88.779603 
L 85.802909 88.630518 
L 86.500364 88.481432 
L 87.197818 88.332347 
L 87.895273 88.183261 
L 88.592727 88.034176 
L 89.290182 87.88509 
L 89.987636 87.736005 
L 90.685091 87.586919 
L 91.382545 87.437834 
L 92.08 87.288748 
L 92.777455 87.139663 
L 93.474909 86.990577 
L 94.172364 86.841492 
L 94.869818 86.692406 
L 95.567273 86.543321 
L 96.264727 86.394235 
L 96.962182 86.245149 
L 97.659636 86.096064 
L 98.357091 85.946978 
L 99.054545 85.797893 
L 99.752 85.648807 
L 100.449455 85.499722 
L 101.146909 85.350636 
L 101.844364 85.201551 
L 102.541818 85.052465 
L 103.239273 84.90338 
L 103.936727 84.754294 
L 104.634182 84.605209 
L 105.331636 84.456123 
L 106.029091 84.307038 
L 106.726545 84.157952 
L 107.424 84.008867 
L 108.121455 83.859781 
L 108.818909 83.710696 
L 109.516364 83.56161 
L 110.213818 83.412525 
L 110.911273 83.263439 
L 111.608727 83.114354 
L 112.306182 82.965268 
L 113.003636 82.816183 
L 113.701091 82.667097 
L 114.398545 82.518012 
L 115.096 82.368926 
L 115.793455 82.219841 
L 116.490909 82.070755 
L 117.188364 81.92167 
L 117.885818 81.772584 
L 118.583273 81.623499 
L 119.280727 81.474413 
L 119.978182 81.325328 
L 120.675636 81.176242 
L 121.373091 81.027157 
L 122.070545 80.878071 
L 122.768 80.728986 
L 123.465455 80.5799 
L 124.162909 80.430815 
L 124.860364 80.281729 
L 125.557818 80.132644 
L 126.255273 79.983558 
L 126.952727 79.834473 
" style="fill:none;stroke:#92c5de;stroke-linecap:round;stroke-width:1.5;"/>
   </g>
   <g id="line2d_22">
    <path clip-path="url(#p1f83ad7acf)" d="M 57.207273 94.862292 
L 57.904727 94.713206 
L 58.602182 94.564121 
L 59.299636 94.415035 
L 59.997091 94.26595 
L 60.694545 94.116864 
L 61.392 93.967779 
L 62.089455 93.818693 
L 62.786909 93.669608 
L 63.484364 93.520522 
L 64.181818 93.371437 
L 64.879273 93.222351 
L 65.576727 93.073266 
L 66.274182 92.92418 
L 66.971636 92.775095 
L 67.669091 92.626009 
L 68.366545 92.476924 
L 69.064 92.327838 
L 69.761455 92.178753 
L 70.458909 92.029667 
L 71.156364 91.880582 
L 71.853818 91.731496 
L 72.551273 91.582411 
L 73.248727 91.433325 
L 73.946182 91.28424 
L 74.643636 91.135154 
L 75.341091 90.986069 
L 76.038545 90.836983 
L 76.736 90.687898 
L 77.433455 90.538812 
L 78.130909 90.389727 
L 78.828364 90.240641 
L 79.525818 90.091556 
L 80.223273 89.94247 
L 80.920727 89.793385 
L 81.618182 89.644299 
L 82.315636 89.495214 
L 83.013091 89.346128 
L 83.710545 89.197043 
L 84.408 89.047957 
L 85.105455 88.898872 
L 85.802909 88.749786 
L 86.500364 88.600701 
L 87.197818 88.451615 
L 87.895273 88.30253 
L 88.592727 88.153444 
L 89.290182 88.004359 
L 89.987636 87.855273 
L 90.685091 87.706187 
L 91.382545 87.557102 
L 92.08 87.408016 
L 92.777455 87.258931 
L 93.474909 87.109845 
L 94.172364 86.96076 
L 94.869818 86.811674 
L 95.567273 86.662589 
L 96.264727 86.513503 
L 96.962182 86.364418 
L 97.659636 86.215332 
L 98.357091 86.066247 
L 99.054545 85.917161 
L 99.752 85.768076 
L 100.449455 85.61899 
L 101.146909 85.469905 
L 101.844364 85.320819 
L 102.541818 85.171734 
L 103.239273 85.022648 
L 103.936727 84.873563 
L 104.634182 84.724477 
L 105.331636 84.575392 
L 106.029091 84.426306 
L 106.726545 84.277221 
L 107.424 84.128135 
L 108.121455 83.97905 
L 108.818909 83.829964 
L 109.516364 83.680879 
L 110.213818 83.531793 
L 110.911273 83.382708 
L 111.608727 83.233622 
L 112.306182 83.084537 
L 113.003636 82.935451 
L 113.701091 82.786366 
L 114.398545 82.63728 
L 115.096 82.488195 
L 115.793455 82.339109 
L 116.490909 82.190024 
L 117.188364 82.040938 
L 117.885818 81.891853 
L 118.583273 81.742767 
L 119.280727 81.593682 
L 119.978182 81.444596 
L 120.675636 81.295511 
L 121.373091 81.146425 
L 122.070545 80.99734 
L 122.768 80.848254 
L 123.465455 80.699169 
L 124.162909 80.550083 
L 124.860364 80.400998 
L 125.557818 80.251912 
L 126.255273 80.102826 
L 126.952727 79.953741 
" style="fill:none;stroke:#92c5de;stroke-linecap:round;stroke-width:1.5;"/>
   </g>
   <g id="line2d_23">
    <path clip-path="url(#p1f83ad7acf)" d="M 57.207273 87.542193 
L 57.904727 87.393108 
L 58.602182 87.244022 
L 59.299636 87.094937 
L 59.997091 86.945851 
L 60.694545 86.796766 
L 61.392 86.64768 
L 62.089455 86.498595 
L 62.786909 86.349509 
L 63.484364 86.200424 
L 64.181818 86.051338 
L 64.879273 85.902253 
L 65.576727 85.753167 
L 66.274182 85.604082 
L 66.971636 85.454996 
L 67.669091 85.305911 
L 68.366545 85.156825 
L 69.064 85.00774 
L 69.761455 84.858654 
L 70.458909 84.709569 
L 71.156364 84.560483 
L 71.853818 84.411398 
L 72.551273 84.262312 
L 73.248727 84.113227 
L 73.946182 83.964141 
L 74.643636 83.815056 
L 75.341091 83.66597 
L 76.038545 83.516885 
L 76.736 83.367799 
L 77.433455 83.218714 
L 78.130909 83.069628 
L 78.828364 82.920543 
L 79.525818 82.771457 
L 80.223273 82.622372 
L 80.920727 82.473286 
L 81.618182 82.324201 
L 82.315636 82.175115 
L 83.013091 82.02603 
L 83.710545 81.876944 
L 84.408 81.727859 
L 85.105455 81.578773 
L 85.802909 81.429688 
L 86.500364 81.280602 
L 87.197818 81.131517 
L 87.895273 80.982431 
L 88.592727 80.833345 
L 89.290182 80.68426 
L 89.987636 80.535174 
L 90.685091 80.386089 
L 91.382545 80.237003 
L 92.08 80.087918 
L 92.777455 79.938832 
L 93.474909 79.789747 
L 94.172364 79.640661 
L 94.869818 79.491576 
L 95.567273 79.34249 
L 96.264727 79.193405 
L 96.962182 79.044319 
L 97.659636 78.895234 
L 98.357091 78.746148 
L 99.054545 78.597063 
L 99.752 78.447977 
L 100.449455 78.298892 
L 101.146909 78.149806 
L 101.844364 78.000721 
L 102.541818 77.851635 
L 103.239273 77.70255 
L 103.936727 77.553464 
L 104.634182 77.404379 
L 105.331636 77.255293 
L 106.029091 77.106208 
L 106.726545 76.957122 
L 107.424 76.808037 
L 108.121455 76.658951 
L 108.818909 76.509866 
L 109.516364 76.36078 
L 110.213818 76.211695 
L 110.911273 76.062609 
L 111.608727 75.913524 
L 112.306182 75.764438 
L 113.003636 75.615353 
L 113.701091 75.466267 
L 114.398545 75.317182 
L 115.096 75.168096 
L 115.793455 75.019011 
L 116.490909 74.869925 
L 117.188364 74.72084 
L 117.885818 74.571754 
L 118.583273 74.422669 
L 119.280727 74.273583 
L 119.978182 74.124498 
L 120.675636 73.975412 
L 121.373091 73.826327 
L 122.070545 73.677241 
L 122.768 73.528155 
L 123.465455 73.37907 
L 124.162909 73.229984 
L 124.860364 73.080899 
L 125.557818 72.931813 
L 126.255273 72.782728 
L 126.952727 72.633642 
" style="fill:none;stroke:#92c5de;stroke-linecap:round;stroke-width:1.5;"/>
   </g>
   <g id="line2d_24">
    <path clip-path="url(#p1f83ad7acf)" d="M 57.207273 71.545318 
L 57.904727 71.545318 
L 58.602182 71.545318 
L 59.299636 71.545318 
L 59.997091 71.545318 
L 60.694545 71.545318 
L 61.392 71.545318 
L 62.089455 71.545318 
L 62.786909 71.545318 
L 63.484364 71.545318 
L 64.181818 71.545318 
L 64.879273 71.545318 
L 65.576727 71.545318 
L 66.274182 71.545318 
L 66.971636 71.545318 
L 67.669091 71.545318 
L 68.366545 71.545318 
L 69.064 71.545318 
L 69.761455 71.545318 
L 70.458909 71.545318 
L 71.156364 71.545318 
L 71.853818 71.545318 
L 72.551273 71.545318 
L 73.248727 71.545318 
L 73.946182 71.545318 
L 74.643636 71.545318 
L 75.341091 71.545318 
L 76.038545 71.545318 
L 76.736 71.545318 
L 77.433455 71.545318 
L 78.130909 71.545318 
L 78.828364 71.545318 
L 79.525818 71.545318 
L 80.223273 71.545318 
L 80.920727 71.545318 
L 81.618182 71.545318 
L 82.315636 71.545318 
L 83.013091 71.545318 
L 83.710545 71.545318 
L 84.408 71.545318 
L 85.105455 71.545318 
L 85.802909 71.545318 
L 86.500364 71.545318 
L 87.197818 71.545318 
L 87.895273 71.545318 
L 88.592727 71.545318 
L 89.290182 71.545318 
L 89.987636 71.545318 
L 90.685091 71.545318 
L 91.382545 71.545318 
L 92.08 71.545318 
L 92.777455 71.545318 
L 93.474909 71.545318 
L 94.172364 71.545318 
L 94.869818 71.545318 
L 95.567273 71.545318 
L 96.264727 71.545318 
L 96.962182 71.545318 
L 97.659636 71.545318 
L 98.357091 71.545318 
L 99.054545 71.545318 
L 99.752 71.545318 
L 100.449455 71.545318 
L 101.146909 71.545318 
L 101.844364 71.545318 
L 102.541818 71.545318 
L 103.239273 71.545318 
L 103.936727 71.545318 
L 104.634182 71.545318 
L 105.331636 71.545318 
L 106.029091 71.545318 
L 106.726545 71.545318 
L 107.424 71.545318 
L 108.121455 71.545318 
L 108.818909 71.545318 
L 109.516364 71.545318 
L 110.213818 71.545318 
L 110.911273 71.545318 
L 111.608727 71.545318 
L 112.306182 71.545318 
L 113.003636 71.545318 
L 113.701091 71.545318 
L 114.398545 71.545318 
L 115.096 71.545318 
L 115.793455 71.545318 
L 116.490909 71.545318 
L 117.188364 71.545318 
L 117.885818 71.545318 
L 118.583273 71.545318 
L 119.280727 71.545318 
L 119.978182 71.545318 
L 120.675636 71.545318 
L 121.373091 71.545318 
L 122.070545 71.545318 
L 122.768 71.545318 
L 123.465455 71.545318 
L 124.162909 71.545318 
L 124.860364 71.545318 
L 125.557818 71.545318 
L 126.255273 71.545318 
L 126.952727 71.545318 
" style="fill:none;stroke:#f4a582;stroke-linecap:round;stroke-width:1.5;"/>
   </g>
   <g id="line2d_25">
    <path clip-path="url(#p1f83ad7acf)" d="M 57.207273 97.903636 
L 57.904727 97.754551 
L 58.602182 97.605465 
L 59.299636 97.45638 
L 59.997091 97.307294 
L 60.694545 97.158209 
L 61.392 97.009123 
L 62.089455 96.860038 
L 62.786909 96.710952 
L 63.484364 96.561867 
L 64.181818 96.412781 
L 64.879273 96.263696 
L 65.576727 96.11461 
L 66.274182 95.965525 
L 66.971636 95.816439 
L 67.669091 95.667354 
L 68.366545 95.518268 
L 69.064 95.369183 
L 69.761455 95.220097 
L 70.458909 95.071012 
L 71.156364 94.921926 
L 71.853818 94.772841 
L 72.551273 94.623755 
L 73.248727 94.47467 
L 73.946182 94.325584 
L 74.643636 94.176499 
L 75.341091 94.027413 
L 76.038545 93.878328 
L 76.736 93.729242 
L 77.433455 93.580157 
L 78.130909 93.431071 
L 78.828364 93.281986 
L 79.525818 93.1329 
L 80.223273 92.983815 
L 80.920727 92.834729 
L 81.618182 92.685644 
L 82.315636 92.536558 
L 83.013091 92.387472 
L 83.710545 92.238387 
L 84.408 92.089301 
L 85.105455 91.940216 
L 85.802909 91.79113 
L 86.500364 91.642045 
L 87.197818 91.492959 
L 87.895273 91.343874 
L 88.592727 91.194788 
L 89.290182 91.045703 
L 89.987636 90.896617 
L 90.685091 90.747532 
L 91.382545 90.598446 
L 92.08 90.449361 
L 92.777455 90.300275 
L 93.474909 90.15119 
L 94.172364 90.002104 
L 94.869818 89.853019 
L 95.567273 89.703933 
L 96.264727 89.554848 
L 96.962182 89.405762 
L 97.659636 89.256677 
L 98.357091 89.107591 
L 99.054545 88.958506 
L 99.752 88.80942 
L 100.449455 88.660335 
L 101.146909 88.511249 
L 101.844364 88.362164 
L 102.541818 88.213078 
L 103.239273 88.063993 
L 103.936727 87.914907 
L 104.634182 87.765822 
L 105.331636 87.616736 
L 106.029091 87.467651 
L 106.726545 87.318565 
L 107.424 87.16948 
L 108.121455 87.020394 
L 108.818909 86.871309 
L 109.516364 86.722223 
L 110.213818 86.573138 
L 110.911273 86.424052 
L 111.608727 86.274967 
L 112.306182 86.125881 
L 113.003636 85.976796 
L 113.701091 85.82771 
L 114.398545 85.678625 
L 115.096 85.529539 
L 115.793455 85.380454 
L 116.490909 85.231368 
L 117.188364 85.082283 
L 117.885818 84.933197 
L 118.583273 84.784111 
L 119.280727 84.635026 
L 119.978182 84.48594 
L 120.675636 84.336855 
L 121.373091 84.187769 
L 122.070545 84.038684 
L 122.768 83.889598 
L 123.465455 83.740513 
L 124.162909 83.591427 
L 124.860364 83.442342 
L 125.557818 83.293256 
L 126.255273 83.144171 
L 126.952727 82.995085 
" style="fill:none;stroke:#92c5de;stroke-linecap:round;stroke-width:1.5;"/>
   </g>
   <g id="line2d_26">
    <path clip-path="url(#p1f83ad7acf)" d="M 57.207273 89.73375 
L 57.904727 89.435579 
L 58.602182 89.137408 
L 59.299636 88.839237 
L 59.997091 88.541066 
L 60.694545 88.242895 
L 61.392 87.944724 
L 62.089455 87.646553 
L 62.786909 87.348382 
L 63.484364 87.050211 
L 64.181818 86.75204 
L 64.879273 86.453869 
L 65.576727 86.155698 
L 66.274182 85.857527 
L 66.971636 85.559356 
L 67.669091 85.261185 
L 68.366545 84.963014 
L 69.064 84.664843 
L 69.761455 84.366672 
L 70.458909 84.068501 
L 71.156364 83.77033 
L 71.853818 83.472159 
L 72.551273 83.173988 
L 73.248727 82.875817 
L 73.946182 82.577646 
L 74.643636 82.279475 
L 75.341091 81.981304 
L 76.038545 81.683133 
L 76.736 81.384962 
L 77.433455 81.086791 
L 78.130909 80.78862 
L 78.828364 80.490449 
L 79.525818 80.192278 
L 80.223273 79.894107 
L 80.920727 79.595936 
L 81.618182 79.297765 
L 82.315636 78.999594 
L 83.013091 78.701423 
L 83.710545 78.403252 
L 84.408 78.105081 
L 85.105455 77.80691 
L 85.802909 77.508739 
L 86.500364 77.210568 
L 87.197818 76.912397 
L 87.895273 76.614226 
L 88.592727 76.316055 
L 89.290182 76.017884 
L 89.987636 75.719712 
L 90.685091 75.421541 
L 91.382545 75.12337 
L 92.08 74.825199 
L 92.777455 74.527028 
L 93.474909 74.228857 
L 94.172364 73.930686 
L 94.869818 73.632515 
L 95.567273 73.334344 
L 96.264727 73.036173 
L 96.962182 72.738002 
L 97.659636 72.439831 
L 98.357091 72.14166 
L 99.054545 71.843489 
L 99.752 71.545318 
L 100.449455 71.247147 
L 101.146909 70.948976 
L 101.844364 70.650805 
L 102.541818 70.352634 
L 103.239273 70.054463 
L 103.936727 69.756292 
L 104.634182 69.458121 
L 105.331636 69.15995 
L 106.029091 68.861779 
L 106.726545 68.563608 
L 107.424 68.265437 
L 108.121455 67.967266 
L 108.818909 67.669095 
L 109.516364 67.370924 
L 110.213818 67.072753 
L 110.911273 66.774582 
L 111.608727 66.476411 
L 112.306182 66.17824 
L 113.003636 65.880069 
L 113.701091 65.581898 
L 114.398545 65.283727 
L 115.096 64.985556 
L 115.793455 64.687385 
L 116.490909 64.389214 
L 117.188364 64.091043 
L 117.885818 63.792872 
L 118.583273 63.494701 
L 119.280727 63.19653 
L 119.978182 62.898359 
L 120.675636 62.600188 
L 121.373091 62.302017 
L 122.070545 62.003846 
L 122.768 61.705675 
L 123.465455 61.407504 
L 124.162909 61.109333 
L 124.860364 60.811162 
L 125.557818 60.51299 
L 126.255273 60.214819 
L 126.952727 59.916648 
" style="fill:none;stroke:#92c5de;stroke-linecap:round;stroke-width:1.5;"/>
   </g>
   <g id="line2d_27">
    <path clip-path="url(#p1f83ad7acf)" d="M 57.207273 75.883707 
L 57.904727 75.585536 
L 58.602182 75.287365 
L 59.299636 74.989193 
L 59.997091 74.691022 
L 60.694545 74.392851 
L 61.392 74.09468 
L 62.089455 73.796509 
L 62.786909 73.498338 
L 63.484364 73.200167 
L 64.181818 72.901996 
L 64.879273 72.603825 
L 65.576727 72.305654 
L 66.274182 72.007483 
L 66.971636 71.709312 
L 67.669091 71.411141 
L 68.366545 71.11297 
L 69.064 70.814799 
L 69.761455 70.516628 
L 70.458909 70.218457 
L 71.156364 69.920286 
L 71.853818 69.622115 
L 72.551273 69.323944 
L 73.248727 69.025773 
L 73.946182 68.727602 
L 74.643636 68.429431 
L 75.341091 68.13126 
L 76.038545 67.833089 
L 76.736 67.534918 
L 77.433455 67.236747 
L 78.130909 66.938576 
L 78.828364 66.640405 
L 79.525818 66.342234 
L 80.223273 66.044063 
L 80.920727 65.745892 
L 81.618182 65.447721 
L 82.315636 65.14955 
L 83.013091 64.851379 
L 83.710545 64.553208 
L 84.408 64.255037 
L 85.105455 63.956866 
L 85.802909 63.658695 
L 86.500364 63.360524 
L 87.197818 63.062353 
L 87.895273 62.764182 
L 88.592727 62.466011 
L 89.290182 62.16784 
L 89.987636 61.869669 
L 90.685091 61.571498 
L 91.382545 61.273327 
L 92.08 60.975156 
L 92.777455 60.676985 
L 93.474909 60.378814 
L 94.172364 60.080643 
L 94.869818 59.782471 
L 95.567273 59.4843 
L 96.264727 59.186129 
L 96.962182 58.887958 
L 97.659636 58.589787 
L 98.357091 58.291616 
L 99.054545 57.993445 
L 99.752 57.695274 
L 100.449455 57.397103 
L 101.146909 57.098932 
L 101.844364 56.800761 
L 102.541818 56.50259 
L 103.239273 56.204419 
L 103.936727 55.906248 
L 104.634182 55.608077 
L 105.331636 55.309906 
L 106.029091 55.011735 
L 106.726545 54.713564 
L 107.424 54.415393 
L 108.121455 54.117222 
L 108.818909 53.819051 
L 109.516364 53.52088 
L 110.213818 53.222709 
L 110.911273 52.924538 
L 111.608727 52.626367 
L 112.306182 52.328196 
L 113.003636 52.030025 
L 113.701091 51.731854 
L 114.398545 51.433683 
L 115.096 51.135512 
L 115.793455 50.837341 
L 116.490909 50.53917 
L 117.188364 50.240999 
L 117.885818 49.942828 
L 118.583273 49.644657 
L 119.280727 49.346486 
L 119.978182 49.048315 
L 120.675636 48.750144 
L 121.373091 48.451973 
L 122.070545 48.153802 
L 122.768 47.855631 
L 123.465455 47.55746 
L 124.162909 47.259289 
L 124.860364 46.961118 
L 125.557818 46.662947 
L 126.255273 46.364776 
L 126.952727 46.066605 
" style="fill:none;stroke:#92c5de;stroke-linecap:round;stroke-width:1.5;"/>
   </g>
   <g id="line2d_28">
    <path clip-path="url(#p1f83ad7acf)" d="M 57.207273 78.775965 
L 57.904727 78.477794 
L 58.602182 78.179623 
L 59.299636 77.881452 
L 59.997091 77.583281 
L 60.694545 77.28511 
L 61.392 76.986939 
L 62.089455 76.688768 
L 62.786909 76.390597 
L 63.484364 76.092426 
L 64.181818 75.794255 
L 64.879273 75.496084 
L 65.576727 75.197913 
L 66.274182 74.899742 
L 66.971636 74.601571 
L 67.669091 74.3034 
L 68.366545 74.005229 
L 69.064 73.707058 
L 69.761455 73.408887 
L 70.458909 73.110716 
L 71.156364 72.812545 
L 71.853818 72.514374 
L 72.551273 72.216203 
L 73.248727 71.918032 
L 73.946182 71.619861 
L 74.643636 71.32169 
L 75.341091 71.023519 
L 76.038545 70.725348 
L 76.736 70.427177 
L 77.433455 70.129006 
L 78.130909 69.830835 
L 78.828364 69.532664 
L 79.525818 69.234493 
L 80.223273 68.936322 
L 80.920727 68.638151 
L 81.618182 68.33998 
L 82.315636 68.041809 
L 83.013091 67.743638 
L 83.710545 67.445467 
L 84.408 67.147296 
L 85.105455 66.849125 
L 85.802909 66.550954 
L 86.500364 66.252783 
L 87.197818 65.954612 
L 87.895273 65.656441 
L 88.592727 65.35827 
L 89.290182 65.060099 
L 89.987636 64.761928 
L 90.685091 64.463756 
L 91.382545 64.165585 
L 92.08 63.867414 
L 92.777455 63.569243 
L 93.474909 63.271072 
L 94.172364 62.972901 
L 94.869818 62.67473 
L 95.567273 62.376559 
L 96.264727 62.078388 
L 96.962182 61.780217 
L 97.659636 61.482046 
L 98.357091 61.183875 
L 99.054545 60.885704 
L 99.752 60.587533 
L 100.449455 60.289362 
L 101.146909 59.991191 
L 101.844364 59.69302 
L 102.541818 59.394849 
L 103.239273 59.096678 
L 103.936727 58.798507 
L 104.634182 58.500336 
L 105.331636 58.202165 
L 106.029091 57.903994 
L 106.726545 57.605823 
L 107.424 57.307652 
L 108.121455 57.009481 
L 108.818909 56.71131 
L 109.516364 56.413139 
L 110.213818 56.114968 
L 110.911273 55.816797 
L 111.608727 55.518626 
L 112.306182 55.220455 
L 113.003636 54.922284 
L 113.701091 54.624113 
L 114.398545 54.325942 
L 115.096 54.027771 
L 115.793455 53.7296 
L 116.490909 53.431429 
L 117.188364 53.133258 
L 117.885818 52.835087 
L 118.583273 52.536916 
L 119.280727 52.238745 
L 119.978182 51.940574 
L 120.675636 51.642403 
L 121.373091 51.344232 
L 122.070545 51.046061 
L 122.768 50.74789 
L 123.465455 50.449719 
L 124.162909 50.151548 
L 124.860364 49.853377 
L 125.557818 49.555206 
L 126.255273 49.257034 
L 126.952727 48.958863 
" style="fill:none;stroke:#92c5de;stroke-linecap:round;stroke-width:1.5;"/>
   </g>
   <g id="line2d_29">
    <path clip-path="url(#p1f83ad7acf)" d="M 57.207273 84.679752 
L 57.904727 84.679752 
L 58.602182 84.679752 
L 59.299636 84.679752 
L 59.997091 84.679752 
L 60.694545 84.679752 
L 61.392 84.679752 
L 62.089455 84.679752 
L 62.786909 84.679752 
L 63.484364 84.679752 
L 64.181818 84.679752 
L 64.879273 84.679752 
L 65.576727 84.679752 
L 66.274182 84.679752 
L 66.971636 84.679752 
L 67.669091 84.679752 
L 68.366545 84.679752 
L 69.064 84.679752 
L 69.761455 84.679752 
L 70.458909 84.679752 
L 71.156364 84.679752 
L 71.853818 84.679752 
L 72.551273 84.679752 
L 73.248727 84.679752 
L 73.946182 84.679752 
L 74.643636 84.679752 
L 75.341091 84.679752 
L 76.038545 84.679752 
L 76.736 84.679752 
L 77.433455 84.679752 
L 78.130909 84.679752 
L 78.828364 84.679752 
L 79.525818 84.679752 
L 80.223273 84.679752 
L 80.920727 84.679752 
L 81.618182 84.679752 
L 82.315636 84.679752 
L 83.013091 84.679752 
L 83.710545 84.679752 
L 84.408 84.679752 
L 85.105455 84.679752 
L 85.802909 84.679752 
L 86.500364 84.679752 
L 87.197818 84.679752 
L 87.895273 84.679752 
L 88.592727 84.679752 
L 89.290182 84.679752 
L 89.987636 84.679752 
L 90.685091 84.679752 
L 91.382545 84.679752 
L 92.08 84.679752 
L 92.777455 84.679752 
L 93.474909 84.679752 
L 94.172364 84.679752 
L 94.869818 84.679752 
L 95.567273 84.679752 
L 96.264727 84.679752 
L 96.962182 84.679752 
L 97.659636 84.679752 
L 98.357091 84.679752 
L 99.054545 84.679752 
L 99.752 84.679752 
L 100.449455 84.679752 
L 101.146909 84.679752 
L 101.844364 84.679752 
L 102.541818 84.679752 
L 103.239273 84.679752 
L 103.936727 84.679752 
L 104.634182 84.679752 
L 105.331636 84.679752 
L 106.029091 84.679752 
L 106.726545 84.679752 
L 107.424 84.679752 
L 108.121455 84.679752 
L 108.818909 84.679752 
L 109.516364 84.679752 
L 110.213818 84.679752 
L 110.911273 84.679752 
L 111.608727 84.679752 
L 112.306182 84.679752 
L 113.003636 84.679752 
L 113.701091 84.679752 
L 114.398545 84.679752 
L 115.096 84.679752 
L 115.793455 84.679752 
L 116.490909 84.679752 
L 117.188364 84.679752 
L 117.885818 84.679752 
L 118.583273 84.679752 
L 119.280727 84.679752 
L 119.978182 84.679752 
L 120.675636 84.679752 
L 121.373091 84.679752 
L 122.070545 84.679752 
L 122.768 84.679752 
L 123.465455 84.679752 
L 124.162909 84.679752 
L 124.860364 84.679752 
L 125.557818 84.679752 
L 126.255273 84.679752 
L 126.952727 84.679752 
" style="fill:none;stroke:#333333;stroke-linecap:round;stroke-width:1.5;"/>
   </g>
   <g id="line2d_30">
    <path clip-path="url(#p1f83ad7acf)" d="M 57.207273 80.728986 
L 57.904727 80.728986 
L 58.602182 80.728986 
L 59.299636 80.728986 
L 59.997091 80.728986 
L 60.694545 80.728986 
L 61.392 80.728986 
L 62.089455 80.728986 
L 62.786909 80.728986 
L 63.484364 80.728986 
L 64.181818 80.728986 
L 64.879273 80.728986 
L 65.576727 80.728986 
L 66.274182 80.728986 
L 66.971636 80.728986 
L 67.669091 80.728986 
L 68.366545 80.728986 
L 69.064 80.728986 
L 69.761455 80.728986 
L 70.458909 80.728986 
L 71.156364 80.728986 
L 71.853818 80.728986 
L 72.551273 80.728986 
L 73.248727 80.728986 
L 73.946182 80.728986 
L 74.643636 80.728986 
L 75.341091 80.728986 
L 76.038545 80.728986 
L 76.736 80.728986 
L 77.433455 80.728986 
L 78.130909 80.728986 
L 78.828364 80.728986 
L 79.525818 80.728986 
L 80.223273 80.728986 
L 80.920727 80.728986 
L 81.618182 80.728986 
L 82.315636 80.728986 
L 83.013091 80.728986 
L 83.710545 80.728986 
L 84.408 80.728986 
L 85.105455 80.728986 
L 85.802909 80.728986 
L 86.500364 80.728986 
L 87.197818 80.728986 
L 87.895273 80.728986 
L 88.592727 80.728986 
L 89.290182 80.728986 
L 89.987636 80.728986 
L 90.685091 80.728986 
L 91.382545 80.728986 
L 92.08 80.728986 
L 92.777455 80.728986 
L 93.474909 80.728986 
L 94.172364 80.728986 
L 94.869818 80.728986 
L 95.567273 80.728986 
L 96.264727 80.728986 
L 96.962182 80.728986 
L 97.659636 80.728986 
L 98.357091 80.728986 
L 99.054545 80.728986 
L 99.752 80.728986 
L 100.449455 80.728986 
L 101.146909 80.728986 
L 101.844364 80.728986 
L 102.541818 80.728986 
L 103.239273 80.728986 
L 103.936727 80.728986 
L 104.634182 80.728986 
L 105.331636 80.728986 
L 106.029091 80.728986 
L 106.726545 80.728986 
L 107.424 80.728986 
L 108.121455 80.728986 
L 108.818909 80.728986 
L 109.516364 80.728986 
L 110.213818 80.728986 
L 110.911273 80.728986 
L 111.608727 80.728986 
L 112.306182 80.728986 
L 113.003636 80.728986 
L 113.701091 80.728986 
L 114.398545 80.728986 
L 115.096 80.728986 
L 115.793455 80.728986 
L 116.490909 80.728986 
L 117.188364 80.728986 
L 117.885818 80.728986 
L 118.583273 80.728986 
L 119.280727 80.728986 
L 119.978182 80.728986 
L 120.675636 80.728986 
L 121.373091 80.728986 
L 122.070545 80.728986 
L 122.768 80.728986 
L 123.465455 80.728986 
L 124.162909 80.728986 
L 124.860364 80.728986 
L 125.557818 80.728986 
L 126.255273 80.728986 
L 126.952727 80.728986 
" style="fill:none;stroke:#333333;stroke-linecap:round;stroke-width:1.5;"/>
   </g>
   <g id="line2d_31">
    <path clip-path="url(#p1f83ad7acf)" d="M 57.207273 93.654699 
L 57.904727 93.654699 
L 58.602182 93.654699 
L 59.299636 93.654699 
L 59.997091 93.654699 
L 60.694545 93.654699 
L 61.392 93.654699 
L 62.089455 93.654699 
L 62.786909 93.654699 
L 63.484364 93.654699 
L 64.181818 93.654699 
L 64.879273 93.654699 
L 65.576727 93.654699 
L 66.274182 93.654699 
L 66.971636 93.654699 
L 67.669091 93.654699 
L 68.366545 93.654699 
L 69.064 93.654699 
L 69.761455 93.654699 
L 70.458909 93.654699 
L 71.156364 93.654699 
L 71.853818 93.654699 
L 72.551273 93.654699 
L 73.248727 93.654699 
L 73.946182 93.654699 
L 74.643636 93.654699 
L 75.341091 93.654699 
L 76.038545 93.654699 
L 76.736 93.654699 
L 77.433455 93.654699 
L 78.130909 93.654699 
L 78.828364 93.654699 
L 79.525818 93.654699 
L 80.223273 93.654699 
L 80.920727 93.654699 
L 81.618182 93.654699 
L 82.315636 93.654699 
L 83.013091 93.654699 
L 83.710545 93.654699 
L 84.408 93.654699 
L 85.105455 93.654699 
L 85.802909 93.654699 
L 86.500364 93.654699 
L 87.197818 93.654699 
L 87.895273 93.654699 
L 88.592727 93.654699 
L 89.290182 93.654699 
L 89.987636 93.654699 
L 90.685091 93.654699 
L 91.382545 93.654699 
L 92.08 93.654699 
L 92.777455 93.654699 
L 93.474909 93.654699 
L 94.172364 93.654699 
L 94.869818 93.654699 
L 95.567273 93.654699 
L 96.264727 93.654699 
L 96.962182 93.654699 
L 97.659636 93.654699 
L 98.357091 93.654699 
L 99.054545 93.654699 
L 99.752 93.654699 
L 100.449455 93.654699 
L 101.146909 93.654699 
L 101.844364 93.654699 
L 102.541818 93.654699 
L 103.239273 93.654699 
L 103.936727 93.654699 
L 104.634182 93.654699 
L 105.331636 93.654699 
L 106.029091 93.654699 
L 106.726545 93.654699 
L 107.424 93.654699 
L 108.121455 93.654699 
L 108.818909 93.654699 
L 109.516364 93.654699 
L 110.213818 93.654699 
L 110.911273 93.654699 
L 111.608727 93.654699 
L 112.306182 93.654699 
L 113.003636 93.654699 
L 113.701091 93.654699 
L 114.398545 93.654699 
L 115.096 93.654699 
L 115.793455 93.654699 
L 116.490909 93.654699 
L 117.188364 93.654699 
L 117.885818 93.654699 
L 118.583273 93.654699 
L 119.280727 93.654699 
L 119.978182 93.654699 
L 120.675636 93.654699 
L 121.373091 93.654699 
L 122.070545 93.654699 
L 122.768 93.654699 
L 123.465455 93.654699 
L 124.162909 93.654699 
L 124.860364 93.654699 
L 125.557818 93.654699 
L 126.255273 93.654699 
L 126.952727 93.654699 
" style="fill:none;stroke:#333333;stroke-linecap:round;stroke-width:1.5;"/>
   </g>
   <g id="line2d_32">
    <path clip-path="url(#p1f83ad7acf)" d="M 57.207273 87.199297 
L 57.904727 87.199297 
L 58.602182 87.199297 
L 59.299636 87.199297 
L 59.997091 87.199297 
L 60.694545 87.199297 
L 61.392 87.199297 
L 62.089455 87.199297 
L 62.786909 87.199297 
L 63.484364 87.199297 
L 64.181818 87.199297 
L 64.879273 87.199297 
L 65.576727 87.199297 
L 66.274182 87.199297 
L 66.971636 87.199297 
L 67.669091 87.199297 
L 68.366545 87.199297 
L 69.064 87.199297 
L 69.761455 87.199297 
L 70.458909 87.199297 
L 71.156364 87.199297 
L 71.853818 87.199297 
L 72.551273 87.199297 
L 73.248727 87.199297 
L 73.946182 87.199297 
L 74.643636 87.199297 
L 75.341091 87.199297 
L 76.038545 87.199297 
L 76.736 87.199297 
L 77.433455 87.199297 
L 78.130909 87.199297 
L 78.828364 87.199297 
L 79.525818 87.199297 
L 80.223273 87.199297 
L 80.920727 87.199297 
L 81.618182 87.199297 
L 82.315636 87.199297 
L 83.013091 87.199297 
L 83.710545 87.199297 
L 84.408 87.199297 
L 85.105455 87.199297 
L 85.802909 87.199297 
L 86.500364 87.199297 
L 87.197818 87.199297 
L 87.895273 87.199297 
L 88.592727 87.199297 
L 89.290182 87.199297 
L 89.987636 87.199297 
L 90.685091 87.199297 
L 91.382545 87.199297 
L 92.08 87.199297 
L 92.777455 87.199297 
L 93.474909 87.199297 
L 94.172364 87.199297 
L 94.869818 87.199297 
L 95.567273 87.199297 
L 96.264727 87.199297 
L 96.962182 87.199297 
L 97.659636 87.199297 
L 98.357091 87.199297 
L 99.054545 87.199297 
L 99.752 87.199297 
L 100.449455 87.199297 
L 101.146909 87.199297 
L 101.844364 87.199297 
L 102.541818 87.199297 
L 103.239273 87.199297 
L 103.936727 87.199297 
L 104.634182 87.199297 
L 105.331636 87.199297 
L 106.029091 87.199297 
L 106.726545 87.199297 
L 107.424 87.199297 
L 108.121455 87.199297 
L 108.818909 87.199297 
L 109.516364 87.199297 
L 110.213818 87.199297 
L 110.911273 87.199297 
L 111.608727 87.199297 
L 112.306182 87.199297 
L 113.003636 87.199297 
L 113.701091 87.199297 
L 114.398545 87.199297 
L 115.096 87.199297 
L 115.793455 87.199297 
L 116.490909 87.199297 
L 117.188364 87.199297 
L 117.885818 87.199297 
L 118.583273 87.199297 
L 119.280727 87.199297 
L 119.978182 87.199297 
L 120.675636 87.199297 
L 121.373091 87.199297 
L 122.070545 87.199297 
L 122.768 87.199297 
L 123.465455 87.199297 
L 124.162909 87.199297 
L 124.860364 87.199297 
L 125.557818 87.199297 
L 126.255273 87.199297 
L 126.952727 87.199297 
" style="fill:none;stroke:#333333;stroke-linecap:round;stroke-width:1.5;"/>
   </g>
   <g id="line2d_33">
    <path clip-path="url(#p1f83ad7acf)" d="M 57.207273 79.133771 
L 57.904727 78.984685 
L 58.602182 78.8356 
L 59.299636 78.686514 
L 59.997091 78.537429 
L 60.694545 78.388343 
L 61.392 78.239258 
L 62.089455 78.090172 
L 62.786909 77.941087 
L 63.484364 77.792001 
L 64.181818 77.642916 
L 64.879273 77.49383 
L 65.576727 77.344745 
L 66.274182 77.195659 
L 66.971636 77.046574 
L 67.669091 76.897488 
L 68.366545 76.748403 
L 69.064 76.599317 
L 69.761455 76.450231 
L 70.458909 76.301146 
L 71.156364 76.15206 
L 71.853818 76.002975 
L 72.551273 75.853889 
L 73.248727 75.704804 
L 73.946182 75.555718 
L 74.643636 75.406633 
L 75.341091 75.257547 
L 76.038545 75.108462 
L 76.736 74.959376 
L 77.433455 74.810291 
L 78.130909 74.661205 
L 78.828364 74.51212 
L 79.525818 74.363034 
L 80.223273 74.213949 
L 80.920727 74.064863 
L 81.618182 73.915778 
L 82.315636 73.766692 
L 83.013091 73.617607 
L 83.710545 73.468521 
L 84.408 73.319436 
L 85.105455 73.17035 
L 85.802909 73.021265 
L 86.500364 72.872179 
L 87.197818 72.723094 
L 87.895273 72.574008 
L 88.592727 72.424923 
L 89.290182 72.275837 
L 89.987636 72.126752 
L 90.685091 71.977666 
L 91.382545 71.828581 
L 92.08 71.679495 
L 92.777455 71.53041 
L 93.474909 71.381324 
L 94.172364 71.232239 
L 94.869818 71.083153 
L 95.567273 70.934068 
L 96.264727 70.784982 
L 96.962182 70.635897 
L 97.659636 70.486811 
L 98.357091 70.337726 
L 99.054545 70.18864 
L 99.752 70.039555 
L 100.449455 69.890469 
L 101.146909 69.741384 
L 101.844364 69.592298 
L 102.541818 69.443213 
L 103.239273 69.294127 
L 103.936727 69.145042 
L 104.634182 68.995956 
L 105.331636 68.84687 
L 106.029091 68.697785 
L 106.726545 68.548699 
L 107.424 68.399614 
L 108.121455 68.250528 
L 108.818909 68.101443 
L 109.516364 67.952357 
L 110.213818 67.803272 
L 110.911273 67.654186 
L 111.608727 67.505101 
L 112.306182 67.356015 
L 113.003636 67.20693 
L 113.701091 67.057844 
L 114.398545 66.908759 
L 115.096 66.759673 
L 115.793455 66.610588 
L 116.490909 66.461502 
L 117.188364 66.312417 
L 117.885818 66.163331 
L 118.583273 66.014246 
L 119.280727 65.86516 
L 119.978182 65.716075 
L 120.675636 65.566989 
L 121.373091 65.417904 
L 122.070545 65.268818 
L 122.768 65.119733 
L 123.465455 64.970647 
L 124.162909 64.821562 
L 124.860364 64.672476 
L 125.557818 64.523391 
L 126.255273 64.374305 
L 126.952727 64.22522 
" style="fill:none;stroke:#333333;stroke-linecap:round;stroke-width:1.5;"/>
   </g>
   <g id="line2d_34">
    <path clip-path="url(#p1f83ad7acf)" d="M 57.207273 76.390597 
L 57.904727 76.241512 
L 58.602182 76.092426 
L 59.299636 75.943341 
L 59.997091 75.794255 
L 60.694545 75.64517 
L 61.392 75.496084 
L 62.089455 75.346999 
L 62.786909 75.197913 
L 63.484364 75.048828 
L 64.181818 74.899742 
L 64.879273 74.750657 
L 65.576727 74.601571 
L 66.274182 74.452486 
L 66.971636 74.3034 
L 67.669091 74.154315 
L 68.366545 74.005229 
L 69.064 73.856144 
L 69.761455 73.707058 
L 70.458909 73.557973 
L 71.156364 73.408887 
L 71.853818 73.259802 
L 72.551273 73.110716 
L 73.248727 72.961631 
L 73.946182 72.812545 
L 74.643636 72.66346 
L 75.341091 72.514374 
L 76.038545 72.365289 
L 76.736 72.216203 
L 77.433455 72.067118 
L 78.130909 71.918032 
L 78.828364 71.768946 
L 79.525818 71.619861 
L 80.223273 71.470775 
L 80.920727 71.32169 
L 81.618182 71.172604 
L 82.315636 71.023519 
L 83.013091 70.874433 
L 83.710545 70.725348 
L 84.408 70.576262 
L 85.105455 70.427177 
L 85.802909 70.278091 
L 86.500364 70.129006 
L 87.197818 69.97992 
L 87.895273 69.830835 
L 88.592727 69.681749 
L 89.290182 69.532664 
L 89.987636 69.383578 
L 90.685091 69.234493 
L 91.382545 69.085407 
L 92.08 68.936322 
L 92.777455 68.787236 
L 93.474909 68.638151 
L 94.172364 68.489065 
L 94.869818 68.33998 
L 95.567273 68.190894 
L 96.264727 68.041809 
L 96.962182 67.892723 
L 97.659636 67.743638 
L 98.357091 67.594552 
L 99.054545 67.445467 
L 99.752 67.296381 
L 100.449455 67.147296 
L 101.146909 66.99821 
L 101.844364 66.849125 
L 102.541818 66.700039 
L 103.239273 66.550954 
L 103.936727 66.401868 
L 104.634182 66.252783 
L 105.331636 66.103697 
L 106.029091 65.954612 
L 106.726545 65.805526 
L 107.424 65.656441 
L 108.121455 65.507355 
L 108.818909 65.35827 
L 109.516364 65.209184 
L 110.213818 65.060099 
L 110.911273 64.911013 
L 111.608727 64.761928 
L 112.306182 64.612842 
L 113.003636 64.463756 
L 113.701091 64.314671 
L 114.398545 64.165585 
L 115.096 64.0165 
L 115.793455 63.867414 
L 116.490909 63.718329 
L 117.188364 63.569243 
L 117.885818 63.420158 
L 118.583273 63.271072 
L 119.280727 63.121987 
L 119.978182 62.972901 
L 120.675636 62.823816 
L 121.373091 62.67473 
L 122.070545 62.525645 
L 122.768 62.376559 
L 123.465455 62.227474 
L 124.162909 62.078388 
L 124.860364 61.929303 
L 125.557818 61.780217 
L 126.255273 61.631132 
L 126.952727 61.482046 
" style="fill:none;stroke:#333333;stroke-linecap:round;stroke-width:1.5;"/>
   </g>
   <g id="line2d_35">
    <path clip-path="url(#p1f83ad7acf)" d="M 57.207273 82.860908 
L 57.904727 82.711823 
L 58.602182 82.562737 
L 59.299636 82.413652 
L 59.997091 82.264566 
L 60.694545 82.115481 
L 61.392 81.966395 
L 62.089455 81.81731 
L 62.786909 81.668224 
L 63.484364 81.519139 
L 64.181818 81.370053 
L 64.879273 81.220968 
L 65.576727 81.071882 
L 66.274182 80.922797 
L 66.971636 80.773711 
L 67.669091 80.624626 
L 68.366545 80.47554 
L 69.064 80.326455 
L 69.761455 80.177369 
L 70.458909 80.028284 
L 71.156364 79.879198 
L 71.853818 79.730113 
L 72.551273 79.581027 
L 73.248727 79.431942 
L 73.946182 79.282856 
L 74.643636 79.133771 
L 75.341091 78.984685 
L 76.038545 78.8356 
L 76.736 78.686514 
L 77.433455 78.537429 
L 78.130909 78.388343 
L 78.828364 78.239258 
L 79.525818 78.090172 
L 80.223273 77.941087 
L 80.920727 77.792001 
L 81.618182 77.642916 
L 82.315636 77.49383 
L 83.013091 77.344745 
L 83.710545 77.195659 
L 84.408 77.046574 
L 85.105455 76.897488 
L 85.802909 76.748403 
L 86.500364 76.599317 
L 87.197818 76.450231 
L 87.895273 76.301146 
L 88.592727 76.15206 
L 89.290182 76.002975 
L 89.987636 75.853889 
L 90.685091 75.704804 
L 91.382545 75.555718 
L 92.08 75.406633 
L 92.777455 75.257547 
L 93.474909 75.108462 
L 94.172364 74.959376 
L 94.869818 74.810291 
L 95.567273 74.661205 
L 96.264727 74.51212 
L 96.962182 74.363034 
L 97.659636 74.213949 
L 98.357091 74.064863 
L 99.054545 73.915778 
L 99.752 73.766692 
L 100.449455 73.617607 
L 101.146909 73.468521 
L 101.844364 73.319436 
L 102.541818 73.17035 
L 103.239273 73.021265 
L 103.936727 72.872179 
L 104.634182 72.723094 
L 105.331636 72.574008 
L 106.029091 72.424923 
L 106.726545 72.275837 
L 107.424 72.126752 
L 108.121455 71.977666 
L 108.818909 71.828581 
L 109.516364 71.679495 
L 110.213818 71.53041 
L 110.911273 71.381324 
L 111.608727 71.232239 
L 112.306182 71.083153 
L 113.003636 70.934068 
L 113.701091 70.784982 
L 114.398545 70.635897 
L 115.096 70.486811 
L 115.793455 70.337726 
L 116.490909 70.18864 
L 117.188364 70.039555 
L 117.885818 69.890469 
L 118.583273 69.741384 
L 119.280727 69.592298 
L 119.978182 69.443213 
L 120.675636 69.294127 
L 121.373091 69.145042 
L 122.070545 68.995956 
L 122.768 68.84687 
L 123.465455 68.697785 
L 124.162909 68.548699 
L 124.860364 68.399614 
L 125.557818 68.250528 
L 126.255273 68.101443 
L 126.952727 67.952357 
" style="fill:none;stroke:#333333;stroke-linecap:round;stroke-width:1.5;"/>
   </g>
  </g>
 </g>
 <defs>
  <clipPath id="p1f83ad7acf">
   <rect height="88.36" width="76.72" x="53.72" y="13.56"/>
  </clipPath>
 </defs>
</svg>
