<?xml version="1.0" encoding="utf-8" standalone="no"?>
<!DOCTYPE svg PUBLIC "-//W3C//DTD SVG 1.1//EN"
  "http://www.w3.org/Graphics/SVG/1.1/DTD/svg11.dtd">
<!-- Created with matplotlib (http://matplotlib.org/) -->
<svg height="144pt" version="1.1" viewBox="0 0 144 144" width="144pt" xmlns="http://www.w3.org/2000/svg" xmlns:xlink="http://www.w3.org/1999/xlink">
 <defs>
  <style type="text/css">
*{stroke-linecap:butt;stroke-linejoin:round;}
  </style>
 </defs>
 <g id="figure_1">
  <g id="patch_1">
   <path d="M 0 144 
L 144 144 
L 144 0 
L 0 0 
z
" style="fill:#ffffff;"/>
  </g>
  <g id="axes_1">
   <g id="patch_2">
    <path d="M 53.72 101.92 
L 130.44 101.92 
L 130.44 13.56 
L 53.72 13.56 
z
" style="fill:#ffffff;"/>
   </g>
   <g id="matplotlib.axis_1">
    <g id="xtick_1">
     <g id="line2d_1">
      <defs>
       <path d="M 0 0 
L 0 3.5 
" id="m516d05b628" style="stroke:#262626;stroke-width:0.8;"/>
      </defs>
      <g>
       <use style="fill:#262626;stroke:#262626;stroke-width:0.8;" x="57.207273" xlink:href="#m516d05b628" y="101.92"/>
      </g>
     </g>
     <g id="text_1">
      <!-- 2 -->
      <defs>
       <path d="M 50.34375 8.453125 
L 50.34375 0 
L 3.03125 0 
Q 2.9375 3.171875 4.046875 6.109375 
Q 5.859375 10.9375 9.828125 15.625 
Q 13.8125 20.3125 21.34375 26.46875 
Q 33.015625 36.03125 37.109375 41.625 
Q 41.21875 47.21875 41.21875 52.203125 
Q 41.21875 57.421875 37.46875 61 
Q 33.734375 64.59375 27.734375 64.59375 
Q 21.390625 64.59375 17.578125 60.78125 
Q 13.765625 56.984375 13.71875 50.25 
L 4.6875 51.171875 
Q 5.609375 61.28125 11.65625 66.578125 
Q 17.71875 71.875 27.9375 71.875 
Q 38.234375 71.875 44.234375 66.15625 
Q 50.25 60.453125 50.25 52 
Q 50.25 47.703125 48.484375 43.546875 
Q 46.734375 39.40625 42.65625 34.8125 
Q 38.578125 30.21875 29.109375 22.21875 
Q 21.1875 15.578125 18.9375 13.203125 
Q 16.703125 10.84375 15.234375 8.453125 
z
" id="ArialMT-32"/>
      </defs>
      <g style="fill:#262626;" transform="translate(54.148757 116.793594)scale(0.11 -0.11)">
       <use xlink:href="#ArialMT-32"/>
      </g>
     </g>
    </g>
    <g id="xtick_2">
     <g id="line2d_2">
      <g>
       <use style="fill:#262626;stroke:#262626;stroke-width:0.8;" x="71.156364" xlink:href="#m516d05b628" y="101.92"/>
      </g>
     </g>
     <g id="text_2">
      <!-- 4 -->
      <defs>
       <path d="M 32.328125 0 
L 32.328125 17.140625 
L 1.265625 17.140625 
L 1.265625 25.203125 
L 33.9375 71.578125 
L 41.109375 71.578125 
L 41.109375 25.203125 
L 50.78125 25.203125 
L 50.78125 17.140625 
L 41.109375 17.140625 
L 41.109375 0 
z
M 32.328125 25.203125 
L 32.328125 57.46875 
L 9.90625 25.203125 
z
" id="ArialMT-34"/>
      </defs>
      <g style="fill:#262626;" transform="translate(68.097848 116.793594)scale(0.11 -0.11)">
       <use xlink:href="#ArialMT-34"/>
      </g>
     </g>
    </g>
    <g id="xtick_3">
     <g id="line2d_3">
      <g>
       <use style="fill:#262626;stroke:#262626;stroke-width:0.8;" x="85.105455" xlink:href="#m516d05b628" y="101.92"/>
      </g>
     </g>
     <g id="text_3">
      <!-- 6 -->
      <defs>
       <path d="M 49.75 54.046875 
L 41.015625 53.375 
Q 39.84375 58.546875 37.703125 60.890625 
Q 34.125 64.65625 28.90625 64.65625 
Q 24.703125 64.65625 21.53125 62.3125 
Q 17.390625 59.28125 14.984375 53.46875 
Q 12.59375 47.65625 12.5 36.921875 
Q 15.671875 41.75 20.265625 44.09375 
Q 24.859375 46.4375 29.890625 46.4375 
Q 38.671875 46.4375 44.84375 39.96875 
Q 51.03125 33.5 51.03125 23.25 
Q 51.03125 16.5 48.125 10.71875 
Q 45.21875 4.9375 40.140625 1.859375 
Q 35.0625 -1.21875 28.609375 -1.21875 
Q 17.625 -1.21875 10.6875 6.859375 
Q 3.765625 14.9375 3.765625 33.5 
Q 3.765625 54.25 11.421875 63.671875 
Q 18.109375 71.875 29.4375 71.875 
Q 37.890625 71.875 43.28125 67.140625 
Q 48.6875 62.40625 49.75 54.046875 
z
M 13.875 23.1875 
Q 13.875 18.65625 15.796875 14.5 
Q 17.71875 10.359375 21.1875 8.171875 
Q 24.65625 6 28.46875 6 
Q 34.03125 6 38.03125 10.484375 
Q 42.046875 14.984375 42.046875 22.703125 
Q 42.046875 30.125 38.078125 34.390625 
Q 34.125 38.671875 28.125 38.671875 
Q 22.171875 38.671875 18.015625 34.390625 
Q 13.875 30.125 13.875 23.1875 
z
" id="ArialMT-36"/>
      </defs>
      <g style="fill:#262626;" transform="translate(82.046939 116.793594)scale(0.11 -0.11)">
       <use xlink:href="#ArialMT-36"/>
      </g>
     </g>
    </g>
    <g id="xtick_4">
     <g id="line2d_4">
      <g>
       <use style="fill:#262626;stroke:#262626;stroke-width:0.8;" x="99.054545" xlink:href="#m516d05b628" y="101.92"/>
      </g>
     </g>
     <g id="text_4">
      <!-- 8 -->
      <defs>
       <path d="M 17.671875 38.8125 
Q 12.203125 40.828125 9.5625 44.53125 
Q 6.9375 48.25 6.9375 53.421875 
Q 6.9375 61.234375 12.546875 66.546875 
Q 18.171875 71.875 27.484375 71.875 
Q 36.859375 71.875 42.578125 66.421875 
Q 48.296875 60.984375 48.296875 53.171875 
Q 48.296875 48.1875 45.671875 44.5 
Q 43.0625 40.828125 37.75 38.8125 
Q 44.34375 36.671875 47.78125 31.875 
Q 51.21875 27.09375 51.21875 20.453125 
Q 51.21875 11.28125 44.71875 5.03125 
Q 38.234375 -1.21875 27.640625 -1.21875 
Q 17.046875 -1.21875 10.546875 5.046875 
Q 4.046875 11.328125 4.046875 20.703125 
Q 4.046875 27.6875 7.59375 32.390625 
Q 11.140625 37.109375 17.671875 38.8125 
z
M 15.921875 53.71875 
Q 15.921875 48.640625 19.1875 45.40625 
Q 22.46875 42.1875 27.6875 42.1875 
Q 32.765625 42.1875 36.015625 45.375 
Q 39.265625 48.578125 39.265625 53.21875 
Q 39.265625 58.0625 35.90625 61.359375 
Q 32.5625 64.65625 27.59375 64.65625 
Q 22.5625 64.65625 19.234375 61.421875 
Q 15.921875 58.203125 15.921875 53.71875 
z
M 13.09375 20.65625 
Q 13.09375 16.890625 14.875 13.375 
Q 16.65625 9.859375 20.171875 7.921875 
Q 23.6875 6 27.734375 6 
Q 34.03125 6 38.125 10.046875 
Q 42.234375 14.109375 42.234375 20.359375 
Q 42.234375 26.703125 38.015625 30.859375 
Q 33.796875 35.015625 27.4375 35.015625 
Q 21.234375 35.015625 17.15625 30.90625 
Q 13.09375 26.8125 13.09375 20.65625 
z
" id="ArialMT-38"/>
      </defs>
      <g style="fill:#262626;" transform="translate(95.99603 116.793594)scale(0.11 -0.11)">
       <use xlink:href="#ArialMT-38"/>
      </g>
     </g>
    </g>
    <g id="xtick_5">
     <g id="line2d_5">
      <g>
       <use style="fill:#262626;stroke:#262626;stroke-width:0.8;" x="113.003636" xlink:href="#m516d05b628" y="101.92"/>
      </g>
     </g>
     <g id="text_5">
      <!-- 10 -->
      <defs>
       <path d="M 37.25 0 
L 28.46875 0 
L 28.46875 56 
Q 25.296875 52.984375 20.140625 49.953125 
Q 14.984375 46.921875 10.890625 45.40625 
L 10.890625 53.90625 
Q 18.265625 57.375 23.78125 62.296875 
Q 29.296875 67.234375 31.59375 71.875 
L 37.25 71.875 
z
" id="ArialMT-31"/>
       <path d="M 4.15625 35.296875 
Q 4.15625 48 6.765625 55.734375 
Q 9.375 63.484375 14.515625 67.671875 
Q 19.671875 71.875 27.484375 71.875 
Q 33.25 71.875 37.59375 69.546875 
Q 41.9375 67.234375 44.765625 62.859375 
Q 47.609375 58.5 49.21875 52.21875 
Q 50.828125 45.953125 50.828125 35.296875 
Q 50.828125 22.703125 48.234375 14.96875 
Q 45.65625 7.234375 40.5 3 
Q 35.359375 -1.21875 27.484375 -1.21875 
Q 17.140625 -1.21875 11.234375 6.203125 
Q 4.15625 15.140625 4.15625 35.296875 
z
M 13.1875 35.296875 
Q 13.1875 17.671875 17.3125 11.828125 
Q 21.4375 6 27.484375 6 
Q 33.546875 6 37.671875 11.859375 
Q 41.796875 17.71875 41.796875 35.296875 
Q 41.796875 52.984375 37.671875 58.78125 
Q 33.546875 64.59375 27.390625 64.59375 
Q 21.34375 64.59375 17.71875 59.46875 
Q 13.1875 52.9375 13.1875 35.296875 
z
" id="ArialMT-30"/>
      </defs>
      <g style="fill:#262626;" transform="translate(106.886605 116.793594)scale(0.11 -0.11)">
       <use xlink:href="#ArialMT-31"/>
       <use x="55.615234" xlink:href="#ArialMT-30"/>
      </g>
     </g>
    </g>
    <g id="xtick_6">
     <g id="line2d_6">
      <g>
       <use style="fill:#262626;stroke:#262626;stroke-width:0.8;" x="126.952727" xlink:href="#m516d05b628" y="101.92"/>
      </g>
     </g>
     <g id="text_6">
      <!-- 12 -->
      <g style="fill:#262626;" transform="translate(120.835696 116.793594)scale(0.11 -0.11)">
       <use xlink:href="#ArialMT-31"/>
       <use x="55.615234" xlink:href="#ArialMT-32"/>
      </g>
     </g>
    </g>
    <g id="text_7">
     <!-- pH -->
     <defs>
      <path d="M 6.59375 -19.875 
L 6.59375 51.859375 
L 14.59375 51.859375 
L 14.59375 45.125 
Q 17.4375 49.078125 21 51.046875 
Q 24.5625 53.03125 29.640625 53.03125 
Q 36.28125 53.03125 41.359375 49.609375 
Q 46.4375 46.1875 49.015625 39.953125 
Q 51.609375 33.734375 51.609375 26.3125 
Q 51.609375 18.359375 48.75 11.984375 
Q 45.90625 5.609375 40.453125 2.21875 
Q 35.015625 -1.171875 29 -1.171875 
Q 24.609375 -1.171875 21.109375 0.6875 
Q 17.625 2.546875 15.375 5.375 
L 15.375 -19.875 
z
M 14.546875 25.640625 
Q 14.546875 15.625 18.59375 10.84375 
Q 22.65625 6.0625 28.421875 6.0625 
Q 34.28125 6.0625 38.453125 11.015625 
Q 42.625 15.96875 42.625 26.375 
Q 42.625 36.28125 38.546875 41.203125 
Q 34.46875 46.140625 28.8125 46.140625 
Q 23.1875 46.140625 18.859375 40.890625 
Q 14.546875 35.640625 14.546875 25.640625 
z
" id="ArialMT-70"/>
      <path d="M 8.015625 0 
L 8.015625 71.578125 
L 17.484375 71.578125 
L 17.484375 42.1875 
L 54.6875 42.1875 
L 54.6875 71.578125 
L 64.15625 71.578125 
L 64.15625 0 
L 54.6875 0 
L 54.6875 33.734375 
L 17.484375 33.734375 
L 17.484375 0 
z
" id="ArialMT-48"/>
     </defs>
     <g style="fill:#262626;" transform="translate(85.049453 130.853437)scale(0.11 -0.11)">
      <use xlink:href="#ArialMT-70"/>
      <use x="55.615234" xlink:href="#ArialMT-48"/>
     </g>
    </g>
   </g>
   <g id="matplotlib.axis_2">
    <g id="ytick_1">
     <g id="line2d_7">
      <defs>
       <path d="M 0 0 
L -3.5 0 
" id="m8b30421e35" style="stroke:#262626;stroke-width:0.8;"/>
      </defs>
      <g>
       <use style="fill:#262626;stroke:#262626;stroke-width:0.8;" x="53.72" xlink:href="#m8b30421e35" y="93.994215"/>
      </g>
     </g>
     <g id="text_8">
      <!-- 0 -->
      <g style="fill:#262626;" transform="translate(40.602969 97.931012)scale(0.11 -0.11)">
       <use xlink:href="#ArialMT-30"/>
      </g>
     </g>
    </g>
    <g id="ytick_2">
     <g id="line2d_8">
      <g>
       <use style="fill:#262626;stroke:#262626;stroke-width:0.8;" x="53.72" xlink:href="#m8b30421e35" y="63.236244"/>
      </g>
     </g>
     <g id="text_9">
      <!-- 50 -->
      <defs>
       <path d="M 4.15625 18.75 
L 13.375 19.53125 
Q 14.40625 12.796875 18.140625 9.390625 
Q 21.875 6 27.15625 6 
Q 33.5 6 37.890625 10.78125 
Q 42.28125 15.578125 42.28125 23.484375 
Q 42.28125 31 38.0625 35.34375 
Q 33.84375 39.703125 27 39.703125 
Q 22.75 39.703125 19.328125 37.765625 
Q 15.921875 35.84375 13.96875 32.765625 
L 5.71875 33.84375 
L 12.640625 70.609375 
L 48.25 70.609375 
L 48.25 62.203125 
L 19.671875 62.203125 
L 15.828125 42.96875 
Q 22.265625 47.46875 29.34375 47.46875 
Q 38.71875 47.46875 45.15625 40.96875 
Q 51.609375 34.46875 51.609375 24.265625 
Q 51.609375 14.546875 45.953125 7.46875 
Q 39.0625 -1.21875 27.15625 -1.21875 
Q 17.390625 -1.21875 11.203125 4.25 
Q 5.03125 9.71875 4.15625 18.75 
z
" id="ArialMT-35"/>
      </defs>
      <g style="fill:#262626;" transform="translate(34.485938 67.173041)scale(0.11 -0.11)">
       <use xlink:href="#ArialMT-35"/>
       <use x="55.615234" xlink:href="#ArialMT-30"/>
      </g>
     </g>
    </g>
    <g id="ytick_3">
     <g id="line2d_9">
      <g>
       <use style="fill:#262626;stroke:#262626;stroke-width:0.8;" x="53.72" xlink:href="#m8b30421e35" y="32.478272"/>
      </g>
     </g>
     <g id="text_10">
      <!-- 100 -->
      <g style="fill:#262626;" transform="translate(28.368906 36.415069)scale(0.11 -0.11)">
       <use xlink:href="#ArialMT-31"/>
       <use x="55.615234" xlink:href="#ArialMT-30"/>
       <use x="111.230469" xlink:href="#ArialMT-30"/>
      </g>
     </g>
    </g>
    <g id="text_11">
     <!-- Free energy ($k_B T$) -->
     <defs>
      <path d="M 8.203125 0 
L 8.203125 71.578125 
L 56.5 71.578125 
L 56.5 63.140625 
L 17.671875 63.140625 
L 17.671875 40.96875 
L 51.265625 40.96875 
L 51.265625 32.515625 
L 17.671875 32.515625 
L 17.671875 0 
z
" id="ArialMT-46"/>
      <path d="M 6.5 0 
L 6.5 51.859375 
L 14.40625 51.859375 
L 14.40625 44 
Q 17.4375 49.515625 20 51.265625 
Q 22.5625 53.03125 25.640625 53.03125 
Q 30.078125 53.03125 34.671875 50.203125 
L 31.640625 42.046875 
Q 28.421875 43.953125 25.203125 43.953125 
Q 22.3125 43.953125 20.015625 42.21875 
Q 17.71875 40.484375 16.75 37.40625 
Q 15.28125 32.71875 15.28125 27.15625 
L 15.28125 0 
z
" id="ArialMT-72"/>
      <path d="M 42.09375 16.703125 
L 51.171875 15.578125 
Q 49.03125 7.625 43.21875 3.21875 
Q 37.40625 -1.171875 28.375 -1.171875 
Q 17 -1.171875 10.328125 5.828125 
Q 3.65625 12.84375 3.65625 25.484375 
Q 3.65625 38.578125 10.390625 45.796875 
Q 17.140625 53.03125 27.875 53.03125 
Q 38.28125 53.03125 44.875 45.953125 
Q 51.46875 38.875 51.46875 26.03125 
Q 51.46875 25.25 51.421875 23.6875 
L 12.75 23.6875 
Q 13.234375 15.140625 17.578125 10.59375 
Q 21.921875 6.0625 28.421875 6.0625 
Q 33.25 6.0625 36.671875 8.59375 
Q 40.09375 11.140625 42.09375 16.703125 
z
M 13.234375 30.90625 
L 42.1875 30.90625 
Q 41.609375 37.453125 38.875 40.71875 
Q 34.671875 45.796875 27.984375 45.796875 
Q 21.921875 45.796875 17.796875 41.75 
Q 13.671875 37.703125 13.234375 30.90625 
z
" id="ArialMT-65"/>
      <path id="ArialMT-20"/>
      <path d="M 6.59375 0 
L 6.59375 51.859375 
L 14.5 51.859375 
L 14.5 44.484375 
Q 20.21875 53.03125 31 53.03125 
Q 35.6875 53.03125 39.625 51.34375 
Q 43.5625 49.65625 45.515625 46.921875 
Q 47.46875 44.1875 48.25 40.4375 
Q 48.734375 37.984375 48.734375 31.890625 
L 48.734375 0 
L 39.9375 0 
L 39.9375 31.546875 
Q 39.9375 36.921875 38.90625 39.578125 
Q 37.890625 42.234375 35.28125 43.8125 
Q 32.671875 45.40625 29.15625 45.40625 
Q 23.53125 45.40625 19.453125 41.84375 
Q 15.375 38.28125 15.375 28.328125 
L 15.375 0 
z
" id="ArialMT-6e"/>
      <path d="M 4.984375 -4.296875 
L 13.53125 -5.5625 
Q 14.0625 -9.515625 16.5 -11.328125 
Q 19.78125 -13.765625 25.4375 -13.765625 
Q 31.546875 -13.765625 34.859375 -11.328125 
Q 38.1875 -8.890625 39.359375 -4.5 
Q 40.046875 -1.8125 39.984375 6.78125 
Q 34.234375 0 25.640625 0 
Q 14.9375 0 9.078125 7.71875 
Q 3.21875 15.4375 3.21875 26.21875 
Q 3.21875 33.640625 5.90625 39.90625 
Q 8.59375 46.1875 13.6875 49.609375 
Q 18.796875 53.03125 25.6875 53.03125 
Q 34.859375 53.03125 40.828125 45.609375 
L 40.828125 51.859375 
L 48.921875 51.859375 
L 48.921875 7.03125 
Q 48.921875 -5.078125 46.453125 -10.125 
Q 44 -15.1875 38.640625 -18.109375 
Q 33.296875 -21.046875 25.484375 -21.046875 
Q 16.21875 -21.046875 10.5 -16.875 
Q 4.78125 -12.703125 4.984375 -4.296875 
z
M 12.25 26.859375 
Q 12.25 16.65625 16.296875 11.96875 
Q 20.359375 7.28125 26.46875 7.28125 
Q 32.515625 7.28125 36.609375 11.9375 
Q 40.71875 16.609375 40.71875 26.5625 
Q 40.71875 36.078125 36.5 40.90625 
Q 32.28125 45.75 26.3125 45.75 
Q 20.453125 45.75 16.34375 40.984375 
Q 12.25 36.234375 12.25 26.859375 
z
" id="ArialMT-67"/>
      <path d="M 6.203125 -19.96875 
L 5.21875 -11.71875 
Q 8.109375 -12.5 10.25 -12.5 
Q 13.1875 -12.5 14.9375 -11.515625 
Q 16.703125 -10.546875 17.828125 -8.796875 
Q 18.65625 -7.46875 20.515625 -2.25 
Q 20.75 -1.515625 21.296875 -0.09375 
L 1.609375 51.859375 
L 11.078125 51.859375 
L 21.875 21.828125 
Q 23.96875 16.109375 25.640625 9.8125 
Q 27.15625 15.875 29.25 21.625 
L 40.328125 51.859375 
L 49.125 51.859375 
L 29.390625 -0.875 
Q 26.21875 -9.421875 24.46875 -12.640625 
Q 22.125 -17 19.09375 -19.015625 
Q 16.0625 -21.046875 11.859375 -21.046875 
Q 9.328125 -21.046875 6.203125 -19.96875 
z
" id="ArialMT-79"/>
      <path d="M 23.390625 -21.046875 
Q 16.109375 -11.859375 11.078125 0.4375 
Q 6.0625 12.75 6.0625 25.921875 
Q 6.0625 37.546875 9.8125 48.1875 
Q 14.203125 60.546875 23.390625 72.796875 
L 29.6875 72.796875 
Q 23.78125 62.640625 21.875 58.296875 
Q 18.890625 51.5625 17.1875 44.234375 
Q 15.09375 35.109375 15.09375 25.875 
Q 15.09375 2.390625 29.6875 -21.046875 
z
" id="ArialMT-28"/>
      <path d="M 18.3125 75.984375 
L 27.296875 75.984375 
L 18.703125 31.6875 
L 49.515625 54.6875 
L 61.1875 54.6875 
L 26.8125 28.515625 
L 51.90625 0 
L 41.015625 0 
L 17.671875 26.703125 
L 12.5 0 
L 3.515625 0 
z
" id="DejaVuSans-Oblique-6b"/>
      <path d="M 16.890625 72.90625 
L 42.09375 72.90625 
Q 52.34375 72.90625 57.421875 69.09375 
Q 62.5 65.28125 62.5 57.625 
Q 62.5 50.59375 58.125 45.484375 
Q 53.765625 40.375 46.6875 39.3125 
Q 52.734375 37.9375 55.765625 34.078125 
Q 58.796875 30.21875 58.796875 23.78125 
Q 58.796875 12.796875 50.65625 6.390625 
Q 42.53125 0 28.421875 0 
L 2.6875 0 
z
M 19.28125 34.8125 
L 14.109375 8.109375 
L 29.984375 8.109375 
Q 38.921875 8.109375 43.75 12.203125 
Q 48.578125 16.3125 48.578125 23.78125 
Q 48.578125 29.546875 45.375 32.171875 
Q 42.1875 34.8125 35.109375 34.8125 
z
M 25.09375 64.796875 
L 20.796875 42.828125 
L 35.5 42.828125 
Q 43.359375 42.828125 47.78125 46.234375 
Q 52.203125 49.65625 52.203125 55.71875 
Q 52.203125 60.453125 49.21875 62.625 
Q 46.234375 64.796875 39.703125 64.796875 
z
" id="DejaVuSans-Oblique-42"/>
      <path d="M 5.90625 72.90625 
L 67.578125 72.90625 
L 66.015625 64.59375 
L 39.984375 64.59375 
L 27.484375 0 
L 17.578125 0 
L 30.078125 64.59375 
L 4.296875 64.59375 
z
" id="DejaVuSans-Oblique-54"/>
      <path d="M 12.359375 -21.046875 
L 6.0625 -21.046875 
Q 20.65625 2.390625 20.65625 25.875 
Q 20.65625 35.0625 18.5625 44.09375 
Q 16.890625 51.421875 13.921875 58.15625 
Q 12.015625 62.546875 6.0625 72.796875 
L 12.359375 72.796875 
Q 21.53125 60.546875 25.921875 48.1875 
Q 29.6875 37.546875 29.6875 25.921875 
Q 29.6875 12.75 24.625 0.4375 
Q 19.578125 -11.859375 12.359375 -21.046875 
z
" id="ArialMT-29"/>
     </defs>
     <g style="fill:#262626;" transform="translate(21.948906 101.96)rotate(-90)scale(0.11 -0.11)">
      <use transform="translate(0 0.015625)" xlink:href="#ArialMT-46"/>
      <use transform="translate(61.083984 0.015625)" xlink:href="#ArialMT-72"/>
      <use transform="translate(94.384766 0.015625)" xlink:href="#ArialMT-65"/>
      <use transform="translate(150 0.015625)" xlink:href="#ArialMT-65"/>
      <use transform="translate(205.615234 0.015625)" xlink:href="#ArialMT-20"/>
      <use transform="translate(233.398438 0.015625)" xlink:href="#ArialMT-65"/>
      <use transform="translate(289.013672 0.015625)" xlink:href="#ArialMT-6e"/>
      <use transform="translate(344.628906 0.015625)" xlink:href="#ArialMT-65"/>
      <use transform="translate(400.244141 0.015625)" xlink:href="#ArialMT-72"/>
      <use transform="translate(433.544922 0.015625)" xlink:href="#ArialMT-67"/>
      <use transform="translate(489.160156 0.015625)" xlink:href="#ArialMT-79"/>
      <use transform="translate(539.160156 0.015625)" xlink:href="#ArialMT-20"/>
      <use transform="translate(566.943359 0.015625)" xlink:href="#ArialMT-28"/>
      <use transform="translate(600.244141 0.015625)" xlink:href="#DejaVuSans-Oblique-6b"/>
      <use transform="translate(658.154297 -16.390625)scale(0.7)" xlink:href="#DejaVuSans-Oblique-42"/>
      <use transform="translate(708.911133 0.015625)" xlink:href="#DejaVuSans-Oblique-54"/>
      <use transform="translate(769.995117 0.015625)" xlink:href="#ArialMT-29"/>
     </g>
    </g>
   </g>
   <g id="patch_3">
    <path d="M 53.72 101.92 
L 53.72 13.56 
" style="fill:none;stroke:#262626;stroke-linecap:square;stroke-linejoin:miter;stroke-width:0.8;"/>
   </g>
   <g id="patch_4">
    <path d="M 53.72 101.92 
L 130.44 101.92 
" style="fill:none;stroke:#262626;stroke-linecap:square;stroke-linejoin:miter;stroke-width:0.8;"/>
   </g>
   <g id="line2d_10">
    <path clip-path="url(#pf6c86e5bbd)" d="M 57.207273 60.070072 
L 57.904727 59.645135 
L 58.602182 59.220197 
L 59.299636 58.79526 
L 59.997091 58.370323 
L 60.694545 57.945386 
L 61.392 57.520449 
L 62.089455 57.095512 
L 62.786909 56.670575 
L 63.484364 56.245638 
L 64.181818 55.820701 
L 64.879273 55.395764 
L 65.576727 54.970827 
L 66.274182 54.54589 
L 66.971636 54.120953 
L 67.669091 53.696015 
L 68.366545 53.271078 
L 69.064 52.846141 
L 69.761455 52.421204 
L 70.458909 51.996267 
L 71.156364 51.57133 
L 71.853818 51.146393 
L 72.551273 50.721456 
L 73.248727 50.296519 
L 73.946182 49.871582 
L 74.643636 49.446645 
L 75.341091 49.021708 
L 76.038545 48.59677 
L 76.736 48.171833 
L 77.433455 47.746896 
L 78.130909 47.321959 
L 78.828364 46.897022 
L 79.525818 46.472085 
L 80.223273 46.047148 
L 80.920727 45.622211 
L 81.618182 45.197274 
L 82.315636 44.772337 
L 83.013091 44.3474 
L 83.710545 43.922463 
L 84.408 43.497526 
L 85.105455 43.072588 
L 85.802909 42.647651 
L 86.500364 42.222714 
L 87.197818 41.797777 
L 87.895273 41.37284 
L 88.592727 40.947903 
L 89.290182 40.522966 
L 89.987636 40.098029 
L 90.685091 39.673092 
L 91.382545 39.248155 
L 92.08 38.823218 
L 92.777455 38.398281 
L 93.474909 37.973343 
L 94.172364 37.548406 
L 94.869818 37.123469 
L 95.567273 36.698532 
L 96.264727 36.273595 
L 96.962182 35.848658 
L 97.659636 35.423721 
L 98.357091 34.998784 
L 99.054545 34.573847 
L 99.752 34.14891 
L 100.449455 33.723973 
L 101.146909 33.299036 
L 101.844364 32.874099 
L 102.541818 32.449161 
L 103.239273 32.024224 
L 103.936727 31.599287 
L 104.634182 31.17435 
L 105.331636 30.749413 
L 106.029091 30.324476 
L 106.726545 29.899539 
L 107.424 29.474602 
L 108.121455 29.049665 
L 108.818909 28.624728 
L 109.516364 28.199791 
L 110.213818 27.774854 
L 110.911273 27.349916 
L 111.608727 26.924979 
L 112.306182 26.500042 
L 113.003636 26.075105 
L 113.701091 25.650168 
L 114.398545 25.225231 
L 115.096 24.800294 
L 115.793455 24.375357 
L 116.490909 23.95042 
L 117.188364 23.525483 
L 117.885818 23.100546 
L 118.583273 22.675609 
L 119.280727 22.250672 
L 119.978182 21.825734 
L 120.675636 21.400797 
L 121.373091 20.97586 
L 122.070545 20.550923 
L 122.768 20.125986 
L 123.465455 19.701049 
L 124.162909 19.276112 
L 124.860364 18.851175 
L 125.557818 18.426238 
L 126.255273 18.001301 
L 126.952727 17.576364 
" style="fill:none;stroke:#2166ac;stroke-linecap:round;stroke-width:1.5;"/>
   </g>
   <g id="line2d_11">
    <path clip-path="url(#pf6c86e5bbd)" d="M 57.207273 88.540856 
L 57.904727 88.257565 
L 58.602182 87.974273 
L 59.299636 87.690982 
L 59.997091 87.40769 
L 60.694545 87.124399 
L 61.392 86.841108 
L 62.089455 86.557816 
L 62.786909 86.274525 
L 63.484364 85.991234 
L 64.181818 85.707942 
L 64.879273 85.424651 
L 65.576727 85.141359 
L 66.274182 84.858068 
L 66.971636 84.574777 
L 67.669091 84.291485 
L 68.366545 84.008194 
L 69.064 83.724902 
L 69.761455 83.441611 
L 70.458909 83.15832 
L 71.156364 82.875028 
L 71.853818 82.591737 
L 72.551273 82.308446 
L 73.248727 82.025154 
L 73.946182 81.741863 
L 74.643636 81.458571 
L 75.341091 81.17528 
L 76.038545 80.891989 
L 76.736 80.608697 
L 77.433455 80.325406 
L 78.130909 80.042114 
L 78.828364 79.758823 
L 79.525818 79.475532 
L 80.223273 79.19224 
L 80.920727 78.908949 
L 81.618182 78.625657 
L 82.315636 78.342366 
L 83.013091 78.059075 
L 83.710545 77.775783 
L 84.408 77.492492 
L 85.105455 77.209201 
L 85.802909 76.925909 
L 86.500364 76.642618 
L 87.197818 76.359326 
L 87.895273 76.076035 
L 88.592727 75.792744 
L 89.290182 75.509452 
L 89.987636 75.226161 
L 90.685091 74.942869 
L 91.382545 74.659578 
L 92.08 74.376287 
L 92.777455 74.092995 
L 93.474909 73.809704 
L 94.172364 73.526413 
L 94.869818 73.243121 
L 95.567273 72.95983 
L 96.264727 72.676538 
L 96.962182 72.393247 
L 97.659636 72.109956 
L 98.357091 71.826664 
L 99.054545 71.543373 
L 99.752 71.260081 
L 100.449455 70.97679 
L 101.146909 70.693499 
L 101.844364 70.410207 
L 102.541818 70.126916 
L 103.239273 69.843625 
L 103.936727 69.560333 
L 104.634182 69.277042 
L 105.331636 68.99375 
L 106.029091 68.710459 
L 106.726545 68.427168 
L 107.424 68.143876 
L 108.121455 67.860585 
L 108.818909 67.577293 
L 109.516364 67.294002 
L 110.213818 67.010711 
L 110.911273 66.727419 
L 111.608727 66.444128 
L 112.306182 66.160836 
L 113.003636 65.877545 
L 113.701091 65.594254 
L 114.398545 65.310962 
L 115.096 65.027671 
L 115.793455 64.74438 
L 116.490909 64.461088 
L 117.188364 64.177797 
L 117.885818 63.894505 
L 118.583273 63.611214 
L 119.280727 63.327923 
L 119.978182 63.044631 
L 120.675636 62.76134 
L 121.373091 62.478048 
L 122.070545 62.194757 
L 122.768 61.911466 
L 123.465455 61.628174 
L 124.162909 61.344883 
L 124.860364 61.061592 
L 125.557818 60.7783 
L 126.255273 60.495009 
L 126.952727 60.211717 
" style="fill:none;stroke:#4393c3;stroke-linecap:round;stroke-width:1.5;"/>
   </g>
   <g id="line2d_12">
    <path clip-path="url(#pf6c86e5bbd)" d="M 57.207273 70.707663 
L 57.904727 70.424372 
L 58.602182 70.14108 
L 59.299636 69.857789 
L 59.997091 69.574498 
L 60.694545 69.291206 
L 61.392 69.007915 
L 62.089455 68.724624 
L 62.786909 68.441332 
L 63.484364 68.158041 
L 64.181818 67.874749 
L 64.879273 67.591458 
L 65.576727 67.308167 
L 66.274182 67.024875 
L 66.971636 66.741584 
L 67.669091 66.458292 
L 68.366545 66.175001 
L 69.064 65.89171 
L 69.761455 65.608418 
L 70.458909 65.325127 
L 71.156364 65.041835 
L 71.853818 64.758544 
L 72.551273 64.475253 
L 73.248727 64.191961 
L 73.946182 63.90867 
L 74.643636 63.625379 
L 75.341091 63.342087 
L 76.038545 63.058796 
L 76.736 62.775504 
L 77.433455 62.492213 
L 78.130909 62.208922 
L 78.828364 61.92563 
L 79.525818 61.642339 
L 80.223273 61.359047 
L 80.920727 61.075756 
L 81.618182 60.792465 
L 82.315636 60.509173 
L 83.013091 60.225882 
L 83.710545 59.942591 
L 84.408 59.659299 
L 85.105455 59.376008 
L 85.802909 59.092716 
L 86.500364 58.809425 
L 87.197818 58.526134 
L 87.895273 58.242842 
L 88.592727 57.959551 
L 89.290182 57.676259 
L 89.987636 57.392968 
L 90.685091 57.109677 
L 91.382545 56.826385 
L 92.08 56.543094 
L 92.777455 56.259803 
L 93.474909 55.976511 
L 94.172364 55.69322 
L 94.869818 55.409928 
L 95.567273 55.126637 
L 96.264727 54.843346 
L 96.962182 54.560054 
L 97.659636 54.276763 
L 98.357091 53.993471 
L 99.054545 53.71018 
L 99.752 53.426889 
L 100.449455 53.143597 
L 101.146909 52.860306 
L 101.844364 52.577014 
L 102.541818 52.293723 
L 103.239273 52.010432 
L 103.936727 51.72714 
L 104.634182 51.443849 
L 105.331636 51.160558 
L 106.029091 50.877266 
L 106.726545 50.593975 
L 107.424 50.310683 
L 108.121455 50.027392 
L 108.818909 49.744101 
L 109.516364 49.460809 
L 110.213818 49.177518 
L 110.911273 48.894226 
L 111.608727 48.610935 
L 112.306182 48.327644 
L 113.003636 48.044352 
L 113.701091 47.761061 
L 114.398545 47.47777 
L 115.096 47.194478 
L 115.793455 46.911187 
L 116.490909 46.627895 
L 117.188364 46.344604 
L 117.885818 46.061313 
L 118.583273 45.778021 
L 119.280727 45.49473 
L 119.978182 45.211438 
L 120.675636 44.928147 
L 121.373091 44.644856 
L 122.070545 44.361564 
L 122.768 44.078273 
L 123.465455 43.794981 
L 124.162909 43.51169 
L 124.860364 43.228399 
L 125.557818 42.945107 
L 126.255273 42.661816 
L 126.952727 42.378525 
" style="fill:none;stroke:#4393c3;stroke-linecap:round;stroke-width:1.5;"/>
   </g>
   <g id="line2d_13">
    <path clip-path="url(#pf6c86e5bbd)" d="M 57.207273 77.931594 
L 57.904727 77.648302 
L 58.602182 77.365011 
L 59.299636 77.081719 
L 59.997091 76.798428 
L 60.694545 76.515137 
L 61.392 76.231845 
L 62.089455 75.948554 
L 62.786909 75.665262 
L 63.484364 75.381971 
L 64.181818 75.09868 
L 64.879273 74.815388 
L 65.576727 74.532097 
L 66.274182 74.248806 
L 66.971636 73.965514 
L 67.669091 73.682223 
L 68.366545 73.398931 
L 69.064 73.11564 
L 69.761455 72.832349 
L 70.458909 72.549057 
L 71.156364 72.265766 
L 71.853818 71.982474 
L 72.551273 71.699183 
L 73.248727 71.415892 
L 73.946182 71.1326 
L 74.643636 70.849309 
L 75.341091 70.566018 
L 76.038545 70.282726 
L 76.736 69.999435 
L 77.433455 69.716143 
L 78.130909 69.432852 
L 78.828364 69.149561 
L 79.525818 68.866269 
L 80.223273 68.582978 
L 80.920727 68.299686 
L 81.618182 68.016395 
L 82.315636 67.733104 
L 83.013091 67.449812 
L 83.710545 67.166521 
L 84.408 66.88323 
L 85.105455 66.599938 
L 85.802909 66.316647 
L 86.500364 66.033355 
L 87.197818 65.750064 
L 87.895273 65.466773 
L 88.592727 65.183481 
L 89.290182 64.90019 
L 89.987636 64.616898 
L 90.685091 64.333607 
L 91.382545 64.050316 
L 92.08 63.767024 
L 92.777455 63.483733 
L 93.474909 63.200441 
L 94.172364 62.91715 
L 94.869818 62.633859 
L 95.567273 62.350567 
L 96.264727 62.067276 
L 96.962182 61.783985 
L 97.659636 61.500693 
L 98.357091 61.217402 
L 99.054545 60.93411 
L 99.752 60.650819 
L 100.449455 60.367528 
L 101.146909 60.084236 
L 101.844364 59.800945 
L 102.541818 59.517653 
L 103.239273 59.234362 
L 103.936727 58.951071 
L 104.634182 58.667779 
L 105.331636 58.384488 
L 106.029091 58.101197 
L 106.726545 57.817905 
L 107.424 57.534614 
L 108.121455 57.251322 
L 108.818909 56.968031 
L 109.516364 56.68474 
L 110.213818 56.401448 
L 110.911273 56.118157 
L 111.608727 55.834865 
L 112.306182 55.551574 
L 113.003636 55.268283 
L 113.701091 54.984991 
L 114.398545 54.7017 
L 115.096 54.418408 
L 115.793455 54.135117 
L 116.490909 53.851826 
L 117.188364 53.568534 
L 117.885818 53.285243 
L 118.583273 53.001952 
L 119.280727 52.71866 
L 119.978182 52.435369 
L 120.675636 52.152077 
L 121.373091 51.868786 
L 122.070545 51.585495 
L 122.768 51.302203 
L 123.465455 51.018912 
L 124.162909 50.73562 
L 124.860364 50.452329 
L 125.557818 50.169038 
L 126.255273 49.885746 
L 126.952727 49.602455 
" style="fill:none;stroke:#4393c3;stroke-linecap:round;stroke-width:1.5;"/>
   </g>
   <g id="line2d_14">
    <path clip-path="url(#pf6c86e5bbd)" d="M 57.207273 79.957127 
L 57.904727 80.098773 
L 58.602182 80.240418 
L 59.299636 80.382064 
L 59.997091 80.52371 
L 60.694545 80.665355 
L 61.392 80.807001 
L 62.089455 80.948647 
L 62.786909 81.090293 
L 63.484364 81.231938 
L 64.181818 81.373584 
L 64.879273 81.51523 
L 65.576727 81.656875 
L 66.274182 81.798521 
L 66.971636 81.940167 
L 67.669091 82.081812 
L 68.366545 82.223458 
L 69.064 82.365104 
L 69.761455 82.506749 
L 70.458909 82.648395 
L 71.156364 82.790041 
L 71.853818 82.931687 
L 72.551273 83.073332 
L 73.248727 83.214978 
L 73.946182 83.356624 
L 74.643636 83.498269 
L 75.341091 83.639915 
L 76.038545 83.781561 
L 76.736 83.923206 
L 77.433455 84.064852 
L 78.130909 84.206498 
L 78.828364 84.348144 
L 79.525818 84.489789 
L 80.223273 84.631435 
L 80.920727 84.773081 
L 81.618182 84.914726 
L 82.315636 85.056372 
L 83.013091 85.198018 
L 83.710545 85.339663 
L 84.408 85.481309 
L 85.105455 85.622955 
L 85.802909 85.7646 
L 86.500364 85.906246 
L 87.197818 86.047892 
L 87.895273 86.189538 
L 88.592727 86.331183 
L 89.290182 86.472829 
L 89.987636 86.614475 
L 90.685091 86.75612 
L 91.382545 86.897766 
L 92.08 87.039412 
L 92.777455 87.181057 
L 93.474909 87.322703 
L 94.172364 87.464349 
L 94.869818 87.605994 
L 95.567273 87.74764 
L 96.264727 87.889286 
L 96.962182 88.030932 
L 97.659636 88.172577 
L 98.357091 88.314223 
L 99.054545 88.455869 
L 99.752 88.597514 
L 100.449455 88.73916 
L 101.146909 88.880806 
L 101.844364 89.022451 
L 102.541818 89.164097 
L 103.239273 89.305743 
L 103.936727 89.447388 
L 104.634182 89.589034 
L 105.331636 89.73068 
L 106.029091 89.872326 
L 106.726545 90.013971 
L 107.424 90.155617 
L 108.121455 90.297263 
L 108.818909 90.438908 
L 109.516364 90.580554 
L 110.213818 90.7222 
L 110.911273 90.863845 
L 111.608727 91.005491 
L 112.306182 91.147137 
L 113.003636 91.288782 
L 113.701091 91.430428 
L 114.398545 91.572074 
L 115.096 91.71372 
L 115.793455 91.855365 
L 116.490909 91.997011 
L 117.188364 92.138657 
L 117.885818 92.280302 
L 118.583273 92.421948 
L 119.280727 92.563594 
L 119.978182 92.705239 
L 120.675636 92.846885 
L 121.373091 92.988531 
L 122.070545 93.130176 
L 122.768 93.271822 
L 123.465455 93.413468 
L 124.162909 93.555114 
L 124.860364 93.696759 
L 125.557818 93.838405 
L 126.255273 93.980051 
L 126.952727 94.121696 
" style="fill:none;stroke:#f4a582;stroke-linecap:round;stroke-width:1.5;"/>
   </g>
   <g id="line2d_15">
    <path clip-path="url(#pf6c86e5bbd)" d="M 57.207273 95.46733 
L 57.904727 95.325685 
L 58.602182 95.184039 
L 59.299636 95.042393 
L 59.997091 94.900748 
L 60.694545 94.759102 
L 61.392 94.617456 
L 62.089455 94.475811 
L 62.786909 94.334165 
L 63.484364 94.192519 
L 64.181818 94.050874 
L 64.879273 93.909228 
L 65.576727 93.767582 
L 66.274182 93.625936 
L 66.971636 93.484291 
L 67.669091 93.342645 
L 68.366545 93.200999 
L 69.064 93.059354 
L 69.761455 92.917708 
L 70.458909 92.776062 
L 71.156364 92.634417 
L 71.853818 92.492771 
L 72.551273 92.351125 
L 73.248727 92.209479 
L 73.946182 92.067834 
L 74.643636 91.926188 
L 75.341091 91.784542 
L 76.038545 91.642897 
L 76.736 91.501251 
L 77.433455 91.359605 
L 78.130909 91.21796 
L 78.828364 91.076314 
L 79.525818 90.934668 
L 80.223273 90.793023 
L 80.920727 90.651377 
L 81.618182 90.509731 
L 82.315636 90.368085 
L 83.013091 90.22644 
L 83.710545 90.084794 
L 84.408 89.943148 
L 85.105455 89.801503 
L 85.802909 89.659857 
L 86.500364 89.518211 
L 87.197818 89.376566 
L 87.895273 89.23492 
L 88.592727 89.093274 
L 89.290182 88.951629 
L 89.987636 88.809983 
L 90.685091 88.668337 
L 91.382545 88.526691 
L 92.08 88.385046 
L 92.777455 88.2434 
L 93.474909 88.101754 
L 94.172364 87.960109 
L 94.869818 87.818463 
L 95.567273 87.676817 
L 96.264727 87.535172 
L 96.962182 87.393526 
L 97.659636 87.25188 
L 98.357091 87.110235 
L 99.054545 86.968589 
L 99.752 86.826943 
L 100.449455 86.685297 
L 101.146909 86.543652 
L 101.844364 86.402006 
L 102.541818 86.26036 
L 103.239273 86.118715 
L 103.936727 85.977069 
L 104.634182 85.835423 
L 105.331636 85.693778 
L 106.029091 85.552132 
L 106.726545 85.410486 
L 107.424 85.268841 
L 108.121455 85.127195 
L 108.818909 84.985549 
L 109.516364 84.843903 
L 110.213818 84.702258 
L 110.911273 84.560612 
L 111.608727 84.418966 
L 112.306182 84.277321 
L 113.003636 84.135675 
L 113.701091 83.994029 
L 114.398545 83.852384 
L 115.096 83.710738 
L 115.793455 83.569092 
L 116.490909 83.427446 
L 117.188364 83.285801 
L 117.885818 83.144155 
L 118.583273 83.002509 
L 119.280727 82.860864 
L 119.978182 82.719218 
L 120.675636 82.577572 
L 121.373091 82.435927 
L 122.070545 82.294281 
L 122.768 82.152635 
L 123.465455 82.01099 
L 124.162909 81.869344 
L 124.860364 81.727698 
L 125.557818 81.586052 
L 126.255273 81.444407 
L 126.952727 81.302761 
" style="fill:none;stroke:#92c5de;stroke-linecap:round;stroke-width:1.5;"/>
   </g>
   <g id="line2d_16">
    <path clip-path="url(#pf6c86e5bbd)" d="M 57.207273 97.903636 
L 57.904727 97.761991 
L 58.602182 97.620345 
L 59.299636 97.478699 
L 59.997091 97.337054 
L 60.694545 97.195408 
L 61.392 97.053762 
L 62.089455 96.912117 
L 62.786909 96.770471 
L 63.484364 96.628825 
L 64.181818 96.487179 
L 64.879273 96.345534 
L 65.576727 96.203888 
L 66.274182 96.062242 
L 66.971636 95.920597 
L 67.669091 95.778951 
L 68.366545 95.637305 
L 69.064 95.49566 
L 69.761455 95.354014 
L 70.458909 95.212368 
L 71.156364 95.070722 
L 71.853818 94.929077 
L 72.551273 94.787431 
L 73.248727 94.645785 
L 73.946182 94.50414 
L 74.643636 94.362494 
L 75.341091 94.220848 
L 76.038545 94.079203 
L 76.736 93.937557 
L 77.433455 93.795911 
L 78.130909 93.654266 
L 78.828364 93.51262 
L 79.525818 93.370974 
L 80.223273 93.229328 
L 80.920727 93.087683 
L 81.618182 92.946037 
L 82.315636 92.804391 
L 83.013091 92.662746 
L 83.710545 92.5211 
L 84.408 92.379454 
L 85.105455 92.237809 
L 85.802909 92.096163 
L 86.500364 91.954517 
L 87.197818 91.812872 
L 87.895273 91.671226 
L 88.592727 91.52958 
L 89.290182 91.387934 
L 89.987636 91.246289 
L 90.685091 91.104643 
L 91.382545 90.962997 
L 92.08 90.821352 
L 92.777455 90.679706 
L 93.474909 90.53806 
L 94.172364 90.396415 
L 94.869818 90.254769 
L 95.567273 90.113123 
L 96.264727 89.971478 
L 96.962182 89.829832 
L 97.659636 89.688186 
L 98.357091 89.54654 
L 99.054545 89.404895 
L 99.752 89.263249 
L 100.449455 89.121603 
L 101.146909 88.979958 
L 101.844364 88.838312 
L 102.541818 88.696666 
L 103.239273 88.555021 
L 103.936727 88.413375 
L 104.634182 88.271729 
L 105.331636 88.130084 
L 106.029091 87.988438 
L 106.726545 87.846792 
L 107.424 87.705146 
L 108.121455 87.563501 
L 108.818909 87.421855 
L 109.516364 87.280209 
L 110.213818 87.138564 
L 110.911273 86.996918 
L 111.608727 86.855272 
L 112.306182 86.713627 
L 113.003636 86.571981 
L 113.701091 86.430335 
L 114.398545 86.28869 
L 115.096 86.147044 
L 115.793455 86.005398 
L 116.490909 85.863752 
L 117.188364 85.722107 
L 117.885818 85.580461 
L 118.583273 85.438815 
L 119.280727 85.29717 
L 119.978182 85.155524 
L 120.675636 85.013878 
L 121.373091 84.872233 
L 122.070545 84.730587 
L 122.768 84.588941 
L 123.465455 84.447295 
L 124.162909 84.30565 
L 124.860364 84.164004 
L 125.557818 84.022358 
L 126.255273 83.880713 
L 126.952727 83.739067 
" style="fill:none;stroke:#92c5de;stroke-linecap:round;stroke-width:1.5;"/>
   </g>
   <g id="line2d_17">
    <path clip-path="url(#pf6c86e5bbd)" d="M 57.207273 82.577572 
L 57.904727 82.435927 
L 58.602182 82.294281 
L 59.299636 82.152635 
L 59.997091 82.01099 
L 60.694545 81.869344 
L 61.392 81.727698 
L 62.089455 81.586052 
L 62.786909 81.444407 
L 63.484364 81.302761 
L 64.181818 81.161115 
L 64.879273 81.01947 
L 65.576727 80.877824 
L 66.274182 80.736178 
L 66.971636 80.594533 
L 67.669091 80.452887 
L 68.366545 80.311241 
L 69.064 80.169596 
L 69.761455 80.02795 
L 70.458909 79.886304 
L 71.156364 79.744658 
L 71.853818 79.603013 
L 72.551273 79.461367 
L 73.248727 79.319721 
L 73.946182 79.178076 
L 74.643636 79.03643 
L 75.341091 78.894784 
L 76.038545 78.753139 
L 76.736 78.611493 
L 77.433455 78.469847 
L 78.130909 78.328202 
L 78.828364 78.186556 
L 79.525818 78.04491 
L 80.223273 77.903264 
L 80.920727 77.761619 
L 81.618182 77.619973 
L 82.315636 77.478327 
L 83.013091 77.336682 
L 83.710545 77.195036 
L 84.408 77.05339 
L 85.105455 76.911745 
L 85.802909 76.770099 
L 86.500364 76.628453 
L 87.197818 76.486808 
L 87.895273 76.345162 
L 88.592727 76.203516 
L 89.290182 76.06187 
L 89.987636 75.920225 
L 90.685091 75.778579 
L 91.382545 75.636933 
L 92.08 75.495288 
L 92.777455 75.353642 
L 93.474909 75.211996 
L 94.172364 75.070351 
L 94.869818 74.928705 
L 95.567273 74.787059 
L 96.264727 74.645414 
L 96.962182 74.503768 
L 97.659636 74.362122 
L 98.357091 74.220476 
L 99.054545 74.078831 
L 99.752 73.937185 
L 100.449455 73.795539 
L 101.146909 73.653894 
L 101.844364 73.512248 
L 102.541818 73.370602 
L 103.239273 73.228957 
L 103.936727 73.087311 
L 104.634182 72.945665 
L 105.331636 72.804019 
L 106.029091 72.662374 
L 106.726545 72.520728 
L 107.424 72.379082 
L 108.121455 72.237437 
L 108.818909 72.095791 
L 109.516364 71.954145 
L 110.213818 71.8125 
L 110.911273 71.670854 
L 111.608727 71.529208 
L 112.306182 71.387563 
L 113.003636 71.245917 
L 113.701091 71.104271 
L 114.398545 70.962625 
L 115.096 70.82098 
L 115.793455 70.679334 
L 116.490909 70.537688 
L 117.188364 70.396043 
L 117.885818 70.254397 
L 118.583273 70.112751 
L 119.280727 69.971106 
L 119.978182 69.82946 
L 120.675636 69.687814 
L 121.373091 69.546169 
L 122.070545 69.404523 
L 122.768 69.262877 
L 123.465455 69.121231 
L 124.162909 68.979586 
L 124.860364 68.83794 
L 125.557818 68.696294 
L 126.255273 68.554649 
L 126.952727 68.413003 
" style="fill:none;stroke:#92c5de;stroke-linecap:round;stroke-width:1.5;"/>
   </g>
   <g id="line2d_18">
    <path clip-path="url(#pf6c86e5bbd)" d="M 57.207273 91.019656 
L 57.904727 91.019656 
L 58.602182 91.019656 
L 59.299636 91.019656 
L 59.997091 91.019656 
L 60.694545 91.019656 
L 61.392 91.019656 
L 62.089455 91.019656 
L 62.786909 91.019656 
L 63.484364 91.019656 
L 64.181818 91.019656 
L 64.879273 91.019656 
L 65.576727 91.019656 
L 66.274182 91.019656 
L 66.971636 91.019656 
L 67.669091 91.019656 
L 68.366545 91.019656 
L 69.064 91.019656 
L 69.761455 91.019656 
L 70.458909 91.019656 
L 71.156364 91.019656 
L 71.853818 91.019656 
L 72.551273 91.019656 
L 73.248727 91.019656 
L 73.946182 91.019656 
L 74.643636 91.019656 
L 75.341091 91.019656 
L 76.038545 91.019656 
L 76.736 91.019656 
L 77.433455 91.019656 
L 78.130909 91.019656 
L 78.828364 91.019656 
L 79.525818 91.019656 
L 80.223273 91.019656 
L 80.920727 91.019656 
L 81.618182 91.019656 
L 82.315636 91.019656 
L 83.013091 91.019656 
L 83.710545 91.019656 
L 84.408 91.019656 
L 85.105455 91.019656 
L 85.802909 91.019656 
L 86.500364 91.019656 
L 87.197818 91.019656 
L 87.895273 91.019656 
L 88.592727 91.019656 
L 89.290182 91.019656 
L 89.987636 91.019656 
L 90.685091 91.019656 
L 91.382545 91.019656 
L 92.08 91.019656 
L 92.777455 91.019656 
L 93.474909 91.019656 
L 94.172364 91.019656 
L 94.869818 91.019656 
L 95.567273 91.019656 
L 96.264727 91.019656 
L 96.962182 91.019656 
L 97.659636 91.019656 
L 98.357091 91.019656 
L 99.054545 91.019656 
L 99.752 91.019656 
L 100.449455 91.019656 
L 101.146909 91.019656 
L 101.844364 91.019656 
L 102.541818 91.019656 
L 103.239273 91.019656 
L 103.936727 91.019656 
L 104.634182 91.019656 
L 105.331636 91.019656 
L 106.029091 91.019656 
L 106.726545 91.019656 
L 107.424 91.019656 
L 108.121455 91.019656 
L 108.818909 91.019656 
L 109.516364 91.019656 
L 110.213818 91.019656 
L 110.911273 91.019656 
L 111.608727 91.019656 
L 112.306182 91.019656 
L 113.003636 91.019656 
L 113.701091 91.019656 
L 114.398545 91.019656 
L 115.096 91.019656 
L 115.793455 91.019656 
L 116.490909 91.019656 
L 117.188364 91.019656 
L 117.885818 91.019656 
L 118.583273 91.019656 
L 119.280727 91.019656 
L 119.978182 91.019656 
L 120.675636 91.019656 
L 121.373091 91.019656 
L 122.070545 91.019656 
L 122.768 91.019656 
L 123.465455 91.019656 
L 124.162909 91.019656 
L 124.860364 91.019656 
L 125.557818 91.019656 
L 126.255273 91.019656 
L 126.952727 91.019656 
" style="fill:none;stroke:#333333;stroke-linecap:round;stroke-width:1.5;"/>
   </g>
   <g id="line2d_19">
    <path clip-path="url(#pf6c86e5bbd)" d="M 57.207273 93.994215 
L 57.904727 93.994215 
L 58.602182 93.994215 
L 59.299636 93.994215 
L 59.997091 93.994215 
L 60.694545 93.994215 
L 61.392 93.994215 
L 62.089455 93.994215 
L 62.786909 93.994215 
L 63.484364 93.994215 
L 64.181818 93.994215 
L 64.879273 93.994215 
L 65.576727 93.994215 
L 66.274182 93.994215 
L 66.971636 93.994215 
L 67.669091 93.994215 
L 68.366545 93.994215 
L 69.064 93.994215 
L 69.761455 93.994215 
L 70.458909 93.994215 
L 71.156364 93.994215 
L 71.853818 93.994215 
L 72.551273 93.994215 
L 73.248727 93.994215 
L 73.946182 93.994215 
L 74.643636 93.994215 
L 75.341091 93.994215 
L 76.038545 93.994215 
L 76.736 93.994215 
L 77.433455 93.994215 
L 78.130909 93.994215 
L 78.828364 93.994215 
L 79.525818 93.994215 
L 80.223273 93.994215 
L 80.920727 93.994215 
L 81.618182 93.994215 
L 82.315636 93.994215 
L 83.013091 93.994215 
L 83.710545 93.994215 
L 84.408 93.994215 
L 85.105455 93.994215 
L 85.802909 93.994215 
L 86.500364 93.994215 
L 87.197818 93.994215 
L 87.895273 93.994215 
L 88.592727 93.994215 
L 89.290182 93.994215 
L 89.987636 93.994215 
L 90.685091 93.994215 
L 91.382545 93.994215 
L 92.08 93.994215 
L 92.777455 93.994215 
L 93.474909 93.994215 
L 94.172364 93.994215 
L 94.869818 93.994215 
L 95.567273 93.994215 
L 96.264727 93.994215 
L 96.962182 93.994215 
L 97.659636 93.994215 
L 98.357091 93.994215 
L 99.054545 93.994215 
L 99.752 93.994215 
L 100.449455 93.994215 
L 101.146909 93.994215 
L 101.844364 93.994215 
L 102.541818 93.994215 
L 103.239273 93.994215 
L 103.936727 93.994215 
L 104.634182 93.994215 
L 105.331636 93.994215 
L 106.029091 93.994215 
L 106.726545 93.994215 
L 107.424 93.994215 
L 108.121455 93.994215 
L 108.818909 93.994215 
L 109.516364 93.994215 
L 110.213818 93.994215 
L 110.911273 93.994215 
L 111.608727 93.994215 
L 112.306182 93.994215 
L 113.003636 93.994215 
L 113.701091 93.994215 
L 114.398545 93.994215 
L 115.096 93.994215 
L 115.793455 93.994215 
L 116.490909 93.994215 
L 117.188364 93.994215 
L 117.885818 93.994215 
L 118.583273 93.994215 
L 119.280727 93.994215 
L 119.978182 93.994215 
L 120.675636 93.994215 
L 121.373091 93.994215 
L 122.070545 93.994215 
L 122.768 93.994215 
L 123.465455 93.994215 
L 124.162909 93.994215 
L 124.860364 93.994215 
L 125.557818 93.994215 
L 126.255273 93.994215 
L 126.952727 93.994215 
" style="fill:none;stroke:#333333;stroke-linecap:round;stroke-width:1.5;"/>
   </g>
   <g id="line2d_20">
    <path clip-path="url(#pf6c86e5bbd)" d="M 57.207273 89.617363 
L 57.904727 89.617363 
L 58.602182 89.617363 
L 59.299636 89.617363 
L 59.997091 89.617363 
L 60.694545 89.617363 
L 61.392 89.617363 
L 62.089455 89.617363 
L 62.786909 89.617363 
L 63.484364 89.617363 
L 64.181818 89.617363 
L 64.879273 89.617363 
L 65.576727 89.617363 
L 66.274182 89.617363 
L 66.971636 89.617363 
L 67.669091 89.617363 
L 68.366545 89.617363 
L 69.064 89.617363 
L 69.761455 89.617363 
L 70.458909 89.617363 
L 71.156364 89.617363 
L 71.853818 89.617363 
L 72.551273 89.617363 
L 73.248727 89.617363 
L 73.946182 89.617363 
L 74.643636 89.617363 
L 75.341091 89.617363 
L 76.038545 89.617363 
L 76.736 89.617363 
L 77.433455 89.617363 
L 78.130909 89.617363 
L 78.828364 89.617363 
L 79.525818 89.617363 
L 80.223273 89.617363 
L 80.920727 89.617363 
L 81.618182 89.617363 
L 82.315636 89.617363 
L 83.013091 89.617363 
L 83.710545 89.617363 
L 84.408 89.617363 
L 85.105455 89.617363 
L 85.802909 89.617363 
L 86.500364 89.617363 
L 87.197818 89.617363 
L 87.895273 89.617363 
L 88.592727 89.617363 
L 89.290182 89.617363 
L 89.987636 89.617363 
L 90.685091 89.617363 
L 91.382545 89.617363 
L 92.08 89.617363 
L 92.777455 89.617363 
L 93.474909 89.617363 
L 94.172364 89.617363 
L 94.869818 89.617363 
L 95.567273 89.617363 
L 96.264727 89.617363 
L 96.962182 89.617363 
L 97.659636 89.617363 
L 98.357091 89.617363 
L 99.054545 89.617363 
L 99.752 89.617363 
L 100.449455 89.617363 
L 101.146909 89.617363 
L 101.844364 89.617363 
L 102.541818 89.617363 
L 103.239273 89.617363 
L 103.936727 89.617363 
L 104.634182 89.617363 
L 105.331636 89.617363 
L 106.029091 89.617363 
L 106.726545 89.617363 
L 107.424 89.617363 
L 108.121455 89.617363 
L 108.818909 89.617363 
L 109.516364 89.617363 
L 110.213818 89.617363 
L 110.911273 89.617363 
L 111.608727 89.617363 
L 112.306182 89.617363 
L 113.003636 89.617363 
L 113.701091 89.617363 
L 114.398545 89.617363 
L 115.096 89.617363 
L 115.793455 89.617363 
L 116.490909 89.617363 
L 117.188364 89.617363 
L 117.885818 89.617363 
L 118.583273 89.617363 
L 119.280727 89.617363 
L 119.978182 89.617363 
L 120.675636 89.617363 
L 121.373091 89.617363 
L 122.070545 89.617363 
L 122.768 89.617363 
L 123.465455 89.617363 
L 124.162909 89.617363 
L 124.860364 89.617363 
L 125.557818 89.617363 
L 126.255273 89.617363 
L 126.952727 89.617363 
" style="fill:none;stroke:#333333;stroke-linecap:round;stroke-width:1.5;"/>
   </g>
  </g>
 </g>
 <defs>
  <clipPath id="pf6c86e5bbd">
   <rect height="88.36" width="76.72" x="53.72" y="13.56"/>
  </clipPath>
 </defs>
</svg>
