<?xml version="1.0" encoding="utf-8" standalone="no"?>
<!DOCTYPE svg PUBLIC "-//W3C//DTD SVG 1.1//EN"
  "http://www.w3.org/Graphics/SVG/1.1/DTD/svg11.dtd">
<!-- Created with matplotlib (http://matplotlib.org/) -->
<svg height="144pt" version="1.1" viewBox="0 0 144 144" width="144pt" xmlns="http://www.w3.org/2000/svg" xmlns:xlink="http://www.w3.org/1999/xlink">
 <defs>
  <style type="text/css">
*{stroke-linecap:butt;stroke-linejoin:round;}
  </style>
 </defs>
 <g id="figure_1">
  <g id="patch_1">
   <path d="M 0 144 
L 144 144 
L 144 0 
L 0 0 
z
" style="fill:#ffffff;"/>
  </g>
  <g id="axes_1">
   <g id="patch_2">
    <path d="M 32.525 101.92 
L 130.44 101.92 
L 130.44 13.56 
L 32.525 13.56 
z
" style="fill:#ffffff;"/>
   </g>
   <g id="matplotlib.axis_1">
    <g id="xtick_1">
     <g id="line2d_1">
      <defs>
       <path d="M 0 0 
L 0 3.5 
" id="m03592037ea" style="stroke:#262626;stroke-width:0.8;"/>
      </defs>
      <g>
       <use style="fill:#262626;stroke:#262626;stroke-width:0.8;" x="36.975682" xlink:href="#m03592037ea" y="101.92"/>
      </g>
     </g>
     <g id="text_1">
      <!-- 2 -->
      <defs>
       <path d="M 50.34375 8.453125 
L 50.34375 0 
L 3.03125 0 
Q 2.9375 3.171875 4.046875 6.109375 
Q 5.859375 10.9375 9.828125 15.625 
Q 13.8125 20.3125 21.34375 26.46875 
Q 33.015625 36.03125 37.109375 41.625 
Q 41.21875 47.21875 41.21875 52.203125 
Q 41.21875 57.421875 37.46875 61 
Q 33.734375 64.59375 27.734375 64.59375 
Q 21.390625 64.59375 17.578125 60.78125 
Q 13.765625 56.984375 13.71875 50.25 
L 4.6875 51.171875 
Q 5.609375 61.28125 11.65625 66.578125 
Q 17.71875 71.875 27.9375 71.875 
Q 38.234375 71.875 44.234375 66.15625 
Q 50.25 60.453125 50.25 52 
Q 50.25 47.703125 48.484375 43.546875 
Q 46.734375 39.40625 42.65625 34.8125 
Q 38.578125 30.21875 29.109375 22.21875 
Q 21.1875 15.578125 18.9375 13.203125 
Q 16.703125 10.84375 15.234375 8.453125 
z
" id="ArialMT-32"/>
      </defs>
      <g style="fill:#262626;" transform="translate(33.917166 116.793594)scale(0.11 -0.11)">
       <use xlink:href="#ArialMT-32"/>
      </g>
     </g>
    </g>
    <g id="xtick_2">
     <g id="line2d_2">
      <g>
       <use style="fill:#262626;stroke:#262626;stroke-width:0.8;" x="54.778409" xlink:href="#m03592037ea" y="101.92"/>
      </g>
     </g>
     <g id="text_2">
      <!-- 4 -->
      <defs>
       <path d="M 32.328125 0 
L 32.328125 17.140625 
L 1.265625 17.140625 
L 1.265625 25.203125 
L 33.9375 71.578125 
L 41.109375 71.578125 
L 41.109375 25.203125 
L 50.78125 25.203125 
L 50.78125 17.140625 
L 41.109375 17.140625 
L 41.109375 0 
z
M 32.328125 25.203125 
L 32.328125 57.46875 
L 9.90625 25.203125 
z
" id="ArialMT-34"/>
      </defs>
      <g style="fill:#262626;" transform="translate(51.719893 116.793594)scale(0.11 -0.11)">
       <use xlink:href="#ArialMT-34"/>
      </g>
     </g>
    </g>
    <g id="xtick_3">
     <g id="line2d_3">
      <g>
       <use style="fill:#262626;stroke:#262626;stroke-width:0.8;" x="72.581136" xlink:href="#m03592037ea" y="101.92"/>
      </g>
     </g>
     <g id="text_3">
      <!-- 6 -->
      <defs>
       <path d="M 49.75 54.046875 
L 41.015625 53.375 
Q 39.84375 58.546875 37.703125 60.890625 
Q 34.125 64.65625 28.90625 64.65625 
Q 24.703125 64.65625 21.53125 62.3125 
Q 17.390625 59.28125 14.984375 53.46875 
Q 12.59375 47.65625 12.5 36.921875 
Q 15.671875 41.75 20.265625 44.09375 
Q 24.859375 46.4375 29.890625 46.4375 
Q 38.671875 46.4375 44.84375 39.96875 
Q 51.03125 33.5 51.03125 23.25 
Q 51.03125 16.5 48.125 10.71875 
Q 45.21875 4.9375 40.140625 1.859375 
Q 35.0625 -1.21875 28.609375 -1.21875 
Q 17.625 -1.21875 10.6875 6.859375 
Q 3.765625 14.9375 3.765625 33.5 
Q 3.765625 54.25 11.421875 63.671875 
Q 18.109375 71.875 29.4375 71.875 
Q 37.890625 71.875 43.28125 67.140625 
Q 48.6875 62.40625 49.75 54.046875 
z
M 13.875 23.1875 
Q 13.875 18.65625 15.796875 14.5 
Q 17.71875 10.359375 21.1875 8.171875 
Q 24.65625 6 28.46875 6 
Q 34.03125 6 38.03125 10.484375 
Q 42.046875 14.984375 42.046875 22.703125 
Q 42.046875 30.125 38.078125 34.390625 
Q 34.125 38.671875 28.125 38.671875 
Q 22.171875 38.671875 18.015625 34.390625 
Q 13.875 30.125 13.875 23.1875 
z
" id="ArialMT-36"/>
      </defs>
      <g style="fill:#262626;" transform="translate(69.522621 116.793594)scale(0.11 -0.11)">
       <use xlink:href="#ArialMT-36"/>
      </g>
     </g>
    </g>
    <g id="xtick_4">
     <g id="line2d_4">
      <g>
       <use style="fill:#262626;stroke:#262626;stroke-width:0.8;" x="90.383864" xlink:href="#m03592037ea" y="101.92"/>
      </g>
     </g>
     <g id="text_4">
      <!-- 8 -->
      <defs>
       <path d="M 17.671875 38.8125 
Q 12.203125 40.828125 9.5625 44.53125 
Q 6.9375 48.25 6.9375 53.421875 
Q 6.9375 61.234375 12.546875 66.546875 
Q 18.171875 71.875 27.484375 71.875 
Q 36.859375 71.875 42.578125 66.421875 
Q 48.296875 60.984375 48.296875 53.171875 
Q 48.296875 48.1875 45.671875 44.5 
Q 43.0625 40.828125 37.75 38.8125 
Q 44.34375 36.671875 47.78125 31.875 
Q 51.21875 27.09375 51.21875 20.453125 
Q 51.21875 11.28125 44.71875 5.03125 
Q 38.234375 -1.21875 27.640625 -1.21875 
Q 17.046875 -1.21875 10.546875 5.046875 
Q 4.046875 11.328125 4.046875 20.703125 
Q 4.046875 27.6875 7.59375 32.390625 
Q 11.140625 37.109375 17.671875 38.8125 
z
M 15.921875 53.71875 
Q 15.921875 48.640625 19.1875 45.40625 
Q 22.46875 42.1875 27.6875 42.1875 
Q 32.765625 42.1875 36.015625 45.375 
Q 39.265625 48.578125 39.265625 53.21875 
Q 39.265625 58.0625 35.90625 61.359375 
Q 32.5625 64.65625 27.59375 64.65625 
Q 22.5625 64.65625 19.234375 61.421875 
Q 15.921875 58.203125 15.921875 53.71875 
z
M 13.09375 20.65625 
Q 13.09375 16.890625 14.875 13.375 
Q 16.65625 9.859375 20.171875 7.921875 
Q 23.6875 6 27.734375 6 
Q 34.03125 6 38.125 10.046875 
Q 42.234375 14.109375 42.234375 20.359375 
Q 42.234375 26.703125 38.015625 30.859375 
Q 33.796875 35.015625 27.4375 35.015625 
Q 21.234375 35.015625 17.15625 30.90625 
Q 13.09375 26.8125 13.09375 20.65625 
z
" id="ArialMT-38"/>
      </defs>
      <g style="fill:#262626;" transform="translate(87.325348 116.793594)scale(0.11 -0.11)">
       <use xlink:href="#ArialMT-38"/>
      </g>
     </g>
    </g>
    <g id="xtick_5">
     <g id="line2d_5">
      <g>
       <use style="fill:#262626;stroke:#262626;stroke-width:0.8;" x="108.186591" xlink:href="#m03592037ea" y="101.92"/>
      </g>
     </g>
     <g id="text_5">
      <!-- 10 -->
      <defs>
       <path d="M 37.25 0 
L 28.46875 0 
L 28.46875 56 
Q 25.296875 52.984375 20.140625 49.953125 
Q 14.984375 46.921875 10.890625 45.40625 
L 10.890625 53.90625 
Q 18.265625 57.375 23.78125 62.296875 
Q 29.296875 67.234375 31.59375 71.875 
L 37.25 71.875 
z
" id="ArialMT-31"/>
       <path d="M 4.15625 35.296875 
Q 4.15625 48 6.765625 55.734375 
Q 9.375 63.484375 14.515625 67.671875 
Q 19.671875 71.875 27.484375 71.875 
Q 33.25 71.875 37.59375 69.546875 
Q 41.9375 67.234375 44.765625 62.859375 
Q 47.609375 58.5 49.21875 52.21875 
Q 50.828125 45.953125 50.828125 35.296875 
Q 50.828125 22.703125 48.234375 14.96875 
Q 45.65625 7.234375 40.5 3 
Q 35.359375 -1.21875 27.484375 -1.21875 
Q 17.140625 -1.21875 11.234375 6.203125 
Q 4.15625 15.140625 4.15625 35.296875 
z
M 13.1875 35.296875 
Q 13.1875 17.671875 17.3125 11.828125 
Q 21.4375 6 27.484375 6 
Q 33.546875 6 37.671875 11.859375 
Q 41.796875 17.71875 41.796875 35.296875 
Q 41.796875 52.984375 37.671875 58.78125 
Q 33.546875 64.59375 27.390625 64.59375 
Q 21.34375 64.59375 17.71875 59.46875 
Q 13.1875 52.9375 13.1875 35.296875 
z
" id="ArialMT-30"/>
      </defs>
      <g style="fill:#262626;" transform="translate(102.06956 116.793594)scale(0.11 -0.11)">
       <use xlink:href="#ArialMT-31"/>
       <use x="55.615234" xlink:href="#ArialMT-30"/>
      </g>
     </g>
    </g>
    <g id="xtick_6">
     <g id="line2d_6">
      <g>
       <use style="fill:#262626;stroke:#262626;stroke-width:0.8;" x="125.989318" xlink:href="#m03592037ea" y="101.92"/>
      </g>
     </g>
     <g id="text_6">
      <!-- 12 -->
      <g style="fill:#262626;" transform="translate(119.872287 116.793594)scale(0.11 -0.11)">
       <use xlink:href="#ArialMT-31"/>
       <use x="55.615234" xlink:href="#ArialMT-32"/>
      </g>
     </g>
    </g>
    <g id="text_7">
     <!-- pH -->
     <defs>
      <path d="M 6.59375 -19.875 
L 6.59375 51.859375 
L 14.59375 51.859375 
L 14.59375 45.125 
Q 17.4375 49.078125 21 51.046875 
Q 24.5625 53.03125 29.640625 53.03125 
Q 36.28125 53.03125 41.359375 49.609375 
Q 46.4375 46.1875 49.015625 39.953125 
Q 51.609375 33.734375 51.609375 26.3125 
Q 51.609375 18.359375 48.75 11.984375 
Q 45.90625 5.609375 40.453125 2.21875 
Q 35.015625 -1.171875 29 -1.171875 
Q 24.609375 -1.171875 21.109375 0.6875 
Q 17.625 2.546875 15.375 5.375 
L 15.375 -19.875 
z
M 14.546875 25.640625 
Q 14.546875 15.625 18.59375 10.84375 
Q 22.65625 6.0625 28.421875 6.0625 
Q 34.28125 6.0625 38.453125 11.015625 
Q 42.625 15.96875 42.625 26.375 
Q 42.625 36.28125 38.546875 41.203125 
Q 34.46875 46.140625 28.8125 46.140625 
Q 23.1875 46.140625 18.859375 40.890625 
Q 14.546875 35.640625 14.546875 25.640625 
z
" id="ArialMT-70"/>
      <path d="M 8.015625 0 
L 8.015625 71.578125 
L 17.484375 71.578125 
L 17.484375 42.1875 
L 54.6875 42.1875 
L 54.6875 71.578125 
L 64.15625 71.578125 
L 64.15625 0 
L 54.6875 0 
L 54.6875 33.734375 
L 17.484375 33.734375 
L 17.484375 0 
z
" id="ArialMT-48"/>
     </defs>
     <g style="fill:#262626;" transform="translate(74.451953 130.853437)scale(0.11 -0.11)">
      <use xlink:href="#ArialMT-70"/>
      <use x="55.615234" xlink:href="#ArialMT-48"/>
     </g>
    </g>
   </g>
   <g id="matplotlib.axis_2">
    <g id="ytick_1">
     <g id="line2d_7">
      <defs>
       <path d="M 0 0 
L -3.5 0 
" id="m21c119edbf" style="stroke:#262626;stroke-width:0.8;"/>
      </defs>
      <g>
       <use style="fill:#262626;stroke:#262626;stroke-width:0.8;" x="32.525" xlink:href="#m21c119edbf" y="97.903636"/>
      </g>
     </g>
    </g>
    <g id="ytick_2">
     <g id="line2d_8">
      <g>
       <use style="fill:#262626;stroke:#262626;stroke-width:0.8;" x="32.525" xlink:href="#m21c119edbf" y="17.576364"/>
      </g>
     </g>
    </g>
    <g id="text_8">
     <!-- Population -->
     <defs>
      <path d="M 7.71875 0 
L 7.71875 71.578125 
L 34.71875 71.578125 
Q 41.84375 71.578125 45.609375 70.90625 
Q 50.875 70.015625 54.4375 67.546875 
Q 58.015625 65.09375 60.1875 60.640625 
Q 62.359375 56.203125 62.359375 50.875 
Q 62.359375 41.75 56.546875 35.421875 
Q 50.734375 29.109375 35.546875 29.109375 
L 17.1875 29.109375 
L 17.1875 0 
z
M 17.1875 37.546875 
L 35.6875 37.546875 
Q 44.875 37.546875 48.734375 40.96875 
Q 52.59375 44.390625 52.59375 50.59375 
Q 52.59375 55.078125 50.3125 58.265625 
Q 48.046875 61.46875 44.34375 62.5 
Q 41.9375 63.140625 35.5 63.140625 
L 17.1875 63.140625 
z
" id="ArialMT-50"/>
      <path d="M 3.328125 25.921875 
Q 3.328125 40.328125 11.328125 47.265625 
Q 18.015625 53.03125 27.640625 53.03125 
Q 38.328125 53.03125 45.109375 46.015625 
Q 51.90625 39.015625 51.90625 26.65625 
Q 51.90625 16.65625 48.90625 10.90625 
Q 45.90625 5.171875 40.15625 2 
Q 34.421875 -1.171875 27.640625 -1.171875 
Q 16.75 -1.171875 10.03125 5.8125 
Q 3.328125 12.796875 3.328125 25.921875 
z
M 12.359375 25.921875 
Q 12.359375 15.96875 16.703125 11.015625 
Q 21.046875 6.0625 27.640625 6.0625 
Q 34.1875 6.0625 38.53125 11.03125 
Q 42.875 16.015625 42.875 26.21875 
Q 42.875 35.84375 38.5 40.796875 
Q 34.125 45.75 27.640625 45.75 
Q 21.046875 45.75 16.703125 40.8125 
Q 12.359375 35.890625 12.359375 25.921875 
z
" id="ArialMT-6f"/>
      <path d="M 40.578125 0 
L 40.578125 7.625 
Q 34.515625 -1.171875 24.125 -1.171875 
Q 19.53125 -1.171875 15.546875 0.578125 
Q 11.578125 2.34375 9.640625 5 
Q 7.71875 7.671875 6.9375 11.53125 
Q 6.390625 14.109375 6.390625 19.734375 
L 6.390625 51.859375 
L 15.1875 51.859375 
L 15.1875 23.09375 
Q 15.1875 16.21875 15.71875 13.8125 
Q 16.546875 10.359375 19.234375 8.375 
Q 21.921875 6.390625 25.875 6.390625 
Q 29.828125 6.390625 33.296875 8.421875 
Q 36.765625 10.453125 38.203125 13.9375 
Q 39.65625 17.4375 39.65625 24.078125 
L 39.65625 51.859375 
L 48.4375 51.859375 
L 48.4375 0 
z
" id="ArialMT-75"/>
      <path d="M 6.390625 0 
L 6.390625 71.578125 
L 15.1875 71.578125 
L 15.1875 0 
z
" id="ArialMT-6c"/>
      <path d="M 40.4375 6.390625 
Q 35.546875 2.25 31.03125 0.53125 
Q 26.515625 -1.171875 21.34375 -1.171875 
Q 12.796875 -1.171875 8.203125 3 
Q 3.609375 7.171875 3.609375 13.671875 
Q 3.609375 17.484375 5.34375 20.625 
Q 7.078125 23.78125 9.890625 25.6875 
Q 12.703125 27.59375 16.21875 28.5625 
Q 18.796875 29.25 24.03125 29.890625 
Q 34.671875 31.15625 39.703125 32.90625 
Q 39.75 34.71875 39.75 35.203125 
Q 39.75 40.578125 37.25 42.78125 
Q 33.890625 45.75 27.25 45.75 
Q 21.046875 45.75 18.09375 43.578125 
Q 15.140625 41.40625 13.71875 35.890625 
L 5.125 37.0625 
Q 6.296875 42.578125 8.984375 45.96875 
Q 11.671875 49.359375 16.75 51.1875 
Q 21.828125 53.03125 28.515625 53.03125 
Q 35.15625 53.03125 39.296875 51.46875 
Q 43.453125 49.90625 45.40625 47.53125 
Q 47.359375 45.171875 48.140625 41.546875 
Q 48.578125 39.3125 48.578125 33.453125 
L 48.578125 21.734375 
Q 48.578125 9.46875 49.140625 6.21875 
Q 49.703125 2.984375 51.375 0 
L 42.1875 0 
Q 40.828125 2.734375 40.4375 6.390625 
z
M 39.703125 26.03125 
Q 34.90625 24.078125 25.34375 22.703125 
Q 19.921875 21.921875 17.671875 20.9375 
Q 15.4375 19.96875 14.203125 18.09375 
Q 12.984375 16.21875 12.984375 13.921875 
Q 12.984375 10.40625 15.640625 8.0625 
Q 18.3125 5.71875 23.4375 5.71875 
Q 28.515625 5.71875 32.46875 7.9375 
Q 36.421875 10.15625 38.28125 14.015625 
Q 39.703125 17 39.703125 22.796875 
z
" id="ArialMT-61"/>
      <path d="M 25.78125 7.859375 
L 27.046875 0.09375 
Q 23.34375 -0.6875 20.40625 -0.6875 
Q 15.625 -0.6875 12.984375 0.828125 
Q 10.359375 2.34375 9.28125 4.8125 
Q 8.203125 7.28125 8.203125 15.1875 
L 8.203125 45.015625 
L 1.765625 45.015625 
L 1.765625 51.859375 
L 8.203125 51.859375 
L 8.203125 64.703125 
L 16.9375 69.96875 
L 16.9375 51.859375 
L 25.78125 51.859375 
L 25.78125 45.015625 
L 16.9375 45.015625 
L 16.9375 14.703125 
Q 16.9375 10.9375 17.40625 9.859375 
Q 17.875 8.796875 18.921875 8.15625 
Q 19.96875 7.515625 21.921875 7.515625 
Q 23.390625 7.515625 25.78125 7.859375 
z
" id="ArialMT-74"/>
      <path d="M 6.640625 61.46875 
L 6.640625 71.578125 
L 15.4375 71.578125 
L 15.4375 61.46875 
z
M 6.640625 0 
L 6.640625 51.859375 
L 15.4375 51.859375 
L 15.4375 0 
z
" id="ArialMT-69"/>
      <path d="M 6.59375 0 
L 6.59375 51.859375 
L 14.5 51.859375 
L 14.5 44.484375 
Q 20.21875 53.03125 31 53.03125 
Q 35.6875 53.03125 39.625 51.34375 
Q 43.5625 49.65625 45.515625 46.921875 
Q 47.46875 44.1875 48.25 40.4375 
Q 48.734375 37.984375 48.734375 31.890625 
L 48.734375 0 
L 39.9375 0 
L 39.9375 31.546875 
Q 39.9375 36.921875 38.90625 39.578125 
Q 37.890625 42.234375 35.28125 43.8125 
Q 32.671875 45.40625 29.15625 45.40625 
Q 23.53125 45.40625 19.453125 41.84375 
Q 15.375 38.28125 15.375 28.328125 
L 15.375 0 
z
" id="ArialMT-6e"/>
     </defs>
     <g style="fill:#262626;" transform="translate(19.33875 83.731797)rotate(-90)scale(0.11 -0.11)">
      <use xlink:href="#ArialMT-50"/>
      <use x="66.699219" xlink:href="#ArialMT-6f"/>
      <use x="122.314453" xlink:href="#ArialMT-70"/>
      <use x="177.929688" xlink:href="#ArialMT-75"/>
      <use x="233.544922" xlink:href="#ArialMT-6c"/>
      <use x="255.761719" xlink:href="#ArialMT-61"/>
      <use x="311.376953" xlink:href="#ArialMT-74"/>
      <use x="339.160156" xlink:href="#ArialMT-69"/>
      <use x="361.376953" xlink:href="#ArialMT-6f"/>
      <use x="416.992188" xlink:href="#ArialMT-6e"/>
     </g>
    </g>
   </g>
   <g id="patch_3">
    <path d="M 32.525 101.92 
L 32.525 13.56 
" style="fill:none;stroke:#262626;stroke-linecap:square;stroke-linejoin:miter;stroke-width:0.8;"/>
   </g>
   <g id="patch_4">
    <path d="M 32.525 101.92 
L 130.44 101.92 
" style="fill:none;stroke:#262626;stroke-linecap:square;stroke-linejoin:miter;stroke-width:0.8;"/>
   </g>
   <g id="line2d_9">
    <path clip-path="url(#pee84cd96c9)" d="M 36.975682 97.903636 
L 37.865818 97.903636 
L 38.755955 97.903636 
L 39.646091 97.903636 
L 40.536227 97.903636 
L 41.426364 97.903636 
L 42.3165 97.903636 
L 43.206636 97.903636 
L 44.096773 97.903636 
L 44.986909 97.903636 
L 45.877045 97.903636 
L 46.767182 97.903636 
L 47.657318 97.903636 
L 48.547455 97.903636 
L 49.437591 97.903636 
L 50.327727 97.903636 
L 51.217864 97.903636 
L 52.108 97.903636 
L 52.998136 97.903636 
L 53.888273 97.903636 
L 54.778409 97.903636 
L 55.668545 97.903636 
L 56.558682 97.903636 
L 57.448818 97.903636 
L 58.338955 97.903636 
L 59.229091 97.903636 
L 60.119227 97.903636 
L 61.009364 97.903636 
L 61.8995 97.903636 
L 62.789636 97.903636 
L 63.679773 97.903636 
L 64.569909 97.903636 
L 65.460045 97.903636 
L 66.350182 97.903636 
L 67.240318 97.903636 
L 68.130455 97.903636 
L 69.020591 97.903636 
L 69.910727 97.903636 
L 70.800864 97.903636 
L 71.691 97.903636 
L 72.581136 97.903636 
L 73.471273 97.903636 
L 74.361409 97.903636 
L 75.251545 97.903636 
L 76.141682 97.903636 
L 77.031818 97.903636 
L 77.921955 97.903636 
L 78.812091 97.903636 
L 79.702227 97.903636 
L 80.592364 97.903636 
L 81.4825 97.903636 
L 82.372636 97.903636 
L 83.262773 97.903636 
L 84.152909 97.903636 
L 85.043045 97.903636 
L 85.933182 97.903636 
L 86.823318 97.903636 
L 87.713455 97.903636 
L 88.603591 97.903636 
L 89.493727 97.903636 
L 90.383864 97.903636 
L 91.274 97.903636 
L 92.164136 97.903636 
L 93.054273 97.903636 
L 93.944409 97.903636 
L 94.834545 97.903636 
L 95.724682 97.903636 
L 96.614818 97.903636 
L 97.504955 97.903636 
L 98.395091 97.903636 
L 99.285227 97.903636 
L 100.175364 97.903636 
L 101.0655 97.903636 
L 101.955636 97.903636 
L 102.845773 97.903636 
L 103.735909 97.903636 
L 104.626045 97.903636 
L 105.516182 97.903636 
L 106.406318 97.903636 
L 107.296455 97.903636 
L 108.186591 97.903636 
L 109.076727 97.903636 
L 109.966864 97.903636 
L 110.857 97.903636 
L 111.747136 97.903636 
L 112.637273 97.903636 
L 113.527409 97.903636 
L 114.417545 97.903636 
L 115.307682 97.903636 
L 116.197818 97.903636 
L 117.087955 97.903636 
L 117.978091 97.903636 
L 118.868227 97.903636 
L 119.758364 97.903636 
L 120.6485 97.903636 
L 121.538636 97.903636 
L 122.428773 97.903636 
L 123.318909 97.903636 
L 124.209045 97.903636 
L 125.099182 97.903636 
L 125.989318 97.903636 
" style="fill:none;stroke:#2166ac;stroke-linecap:round;stroke-width:1.5;"/>
   </g>
   <g id="line2d_10">
    <path clip-path="url(#pee84cd96c9)" d="M 36.975682 97.903636 
L 37.865818 97.903636 
L 38.755955 97.903636 
L 39.646091 97.903636 
L 40.536227 97.903636 
L 41.426364 97.903636 
L 42.3165 97.903636 
L 43.206636 97.903636 
L 44.096773 97.903636 
L 44.986909 97.903636 
L 45.877045 97.903636 
L 46.767182 97.903636 
L 47.657318 97.903636 
L 48.547455 97.903636 
L 49.437591 97.903636 
L 50.327727 97.903636 
L 51.217864 97.903636 
L 52.108 97.903636 
L 52.998136 97.903636 
L 53.888273 97.903636 
L 54.778409 97.903636 
L 55.668545 97.903636 
L 56.558682 97.903636 
L 57.448818 97.903636 
L 58.338955 97.903636 
L 59.229091 97.903636 
L 60.119227 97.903636 
L 61.009364 97.903636 
L 61.8995 97.903636 
L 62.789636 97.903636 
L 63.679773 97.903636 
L 64.569909 97.903636 
L 65.460045 97.903636 
L 66.350182 97.903636 
L 67.240318 97.903636 
L 68.130455 97.903636 
L 69.020591 97.903636 
L 69.910727 97.903636 
L 70.800864 97.903636 
L 71.691 97.903636 
L 72.581136 97.903636 
L 73.471273 97.903636 
L 74.361409 97.903636 
L 75.251545 97.903636 
L 76.141682 97.903636 
L 77.031818 97.903636 
L 77.921955 97.903636 
L 78.812091 97.903636 
L 79.702227 97.903636 
L 80.592364 97.903636 
L 81.4825 97.903636 
L 82.372636 97.903636 
L 83.262773 97.903636 
L 84.152909 97.903636 
L 85.043045 97.903636 
L 85.933182 97.903636 
L 86.823318 97.903636 
L 87.713455 97.903636 
L 88.603591 97.903636 
L 89.493727 97.903636 
L 90.383864 97.903636 
L 91.274 97.903636 
L 92.164136 97.903636 
L 93.054273 97.903636 
L 93.944409 97.903636 
L 94.834545 97.903636 
L 95.724682 97.903636 
L 96.614818 97.903636 
L 97.504955 97.903636 
L 98.395091 97.903636 
L 99.285227 97.903636 
L 100.175364 97.903636 
L 101.0655 97.903636 
L 101.955636 97.903636 
L 102.845773 97.903636 
L 103.735909 97.903636 
L 104.626045 97.903636 
L 105.516182 97.903636 
L 106.406318 97.903636 
L 107.296455 97.903636 
L 108.186591 97.903636 
L 109.076727 97.903636 
L 109.966864 97.903636 
L 110.857 97.903636 
L 111.747136 97.903636 
L 112.637273 97.903636 
L 113.527409 97.903636 
L 114.417545 97.903636 
L 115.307682 97.903636 
L 116.197818 97.903636 
L 117.087955 97.903636 
L 117.978091 97.903636 
L 118.868227 97.903636 
L 119.758364 97.903636 
L 120.6485 97.903636 
L 121.538636 97.903636 
L 122.428773 97.903636 
L 123.318909 97.903636 
L 124.209045 97.903636 
L 125.099182 97.903636 
L 125.989318 97.903636 
" style="fill:none;stroke:#4393c3;stroke-linecap:round;stroke-width:1.5;"/>
   </g>
   <g id="line2d_11">
    <path clip-path="url(#pee84cd96c9)" d="M 36.975682 97.902887 
L 37.865818 97.903042 
L 38.755955 97.903164 
L 39.646091 97.903261 
L 40.536227 97.903339 
L 41.426364 97.9034 
L 42.3165 97.903449 
L 43.206636 97.903488 
L 44.096773 97.903518 
L 44.986909 97.903543 
L 45.877045 97.903562 
L 46.767182 97.903578 
L 47.657318 97.90359 
L 48.547455 97.9036 
L 49.437591 97.903607 
L 50.327727 97.903613 
L 51.217864 97.903618 
L 52.108 97.903622 
L 52.998136 97.903625 
L 53.888273 97.903628 
L 54.778409 97.90363 
L 55.668545 97.903631 
L 56.558682 97.903632 
L 57.448818 97.903633 
L 58.338955 97.903634 
L 59.229091 97.903635 
L 60.119227 97.903635 
L 61.009364 97.903635 
L 61.8995 97.903636 
L 62.789636 97.903636 
L 63.679773 97.903636 
L 64.569909 97.903636 
L 65.460045 97.903636 
L 66.350182 97.903636 
L 67.240318 97.903636 
L 68.130455 97.903636 
L 69.020591 97.903636 
L 69.910727 97.903636 
L 70.800864 97.903636 
L 71.691 97.903636 
L 72.581136 97.903636 
L 73.471273 97.903636 
L 74.361409 97.903636 
L 75.251545 97.903636 
L 76.141682 97.903636 
L 77.031818 97.903636 
L 77.921955 97.903636 
L 78.812091 97.903636 
L 79.702227 97.903636 
L 80.592364 97.903636 
L 81.4825 97.903636 
L 82.372636 97.903636 
L 83.262773 97.903636 
L 84.152909 97.903636 
L 85.043045 97.903636 
L 85.933182 97.903636 
L 86.823318 97.903636 
L 87.713455 97.903636 
L 88.603591 97.903636 
L 89.493727 97.903636 
L 90.383864 97.903636 
L 91.274 97.903636 
L 92.164136 97.903636 
L 93.054273 97.903636 
L 93.944409 97.903636 
L 94.834545 97.903636 
L 95.724682 97.903636 
L 96.614818 97.903636 
L 97.504955 97.903636 
L 98.395091 97.903636 
L 99.285227 97.903636 
L 100.175364 97.903636 
L 101.0655 97.903636 
L 101.955636 97.903636 
L 102.845773 97.903636 
L 103.735909 97.903636 
L 104.626045 97.903636 
L 105.516182 97.903636 
L 106.406318 97.903636 
L 107.296455 97.903636 
L 108.186591 97.903636 
L 109.076727 97.903636 
L 109.966864 97.903636 
L 110.857 97.903636 
L 111.747136 97.903636 
L 112.637273 97.903636 
L 113.527409 97.903636 
L 114.417545 97.903636 
L 115.307682 97.903636 
L 116.197818 97.903636 
L 117.087955 97.903636 
L 117.978091 97.903636 
L 118.868227 97.903636 
L 119.758364 97.903636 
L 120.6485 97.903636 
L 121.538636 97.903636 
L 122.428773 97.903636 
L 123.318909 97.903636 
L 124.209045 97.903636 
L 125.099182 97.903636 
L 125.989318 97.903636 
" style="fill:none;stroke:#4393c3;stroke-linecap:round;stroke-width:1.5;"/>
   </g>
   <g id="line2d_12">
    <path clip-path="url(#pee84cd96c9)" d="M 36.975682 97.903636 
L 37.865818 97.903636 
L 38.755955 97.903636 
L 39.646091 97.903636 
L 40.536227 97.903636 
L 41.426364 97.903636 
L 42.3165 97.903636 
L 43.206636 97.903636 
L 44.096773 97.903636 
L 44.986909 97.903636 
L 45.877045 97.903636 
L 46.767182 97.903636 
L 47.657318 97.903636 
L 48.547455 97.903636 
L 49.437591 97.903636 
L 50.327727 97.903636 
L 51.217864 97.903636 
L 52.108 97.903636 
L 52.998136 97.903636 
L 53.888273 97.903636 
L 54.778409 97.903636 
L 55.668545 97.903636 
L 56.558682 97.903636 
L 57.448818 97.903636 
L 58.338955 97.903636 
L 59.229091 97.903636 
L 60.119227 97.903636 
L 61.009364 97.903636 
L 61.8995 97.903636 
L 62.789636 97.903636 
L 63.679773 97.903636 
L 64.569909 97.903636 
L 65.460045 97.903636 
L 66.350182 97.903636 
L 67.240318 97.903636 
L 68.130455 97.903636 
L 69.020591 97.903636 
L 69.910727 97.903636 
L 70.800864 97.903636 
L 71.691 97.903636 
L 72.581136 97.903636 
L 73.471273 97.903636 
L 74.361409 97.903636 
L 75.251545 97.903636 
L 76.141682 97.903636 
L 77.031818 97.903636 
L 77.921955 97.903636 
L 78.812091 97.903636 
L 79.702227 97.903636 
L 80.592364 97.903636 
L 81.4825 97.903636 
L 82.372636 97.903636 
L 83.262773 97.903636 
L 84.152909 97.903636 
L 85.043045 97.903636 
L 85.933182 97.903636 
L 86.823318 97.903636 
L 87.713455 97.903636 
L 88.603591 97.903636 
L 89.493727 97.903636 
L 90.383864 97.903636 
L 91.274 97.903636 
L 92.164136 97.903636 
L 93.054273 97.903636 
L 93.944409 97.903636 
L 94.834545 97.903636 
L 95.724682 97.903636 
L 96.614818 97.903636 
L 97.504955 97.903636 
L 98.395091 97.903636 
L 99.285227 97.903636 
L 100.175364 97.903636 
L 101.0655 97.903636 
L 101.955636 97.903636 
L 102.845773 97.903636 
L 103.735909 97.903636 
L 104.626045 97.903636 
L 105.516182 97.903636 
L 106.406318 97.903636 
L 107.296455 97.903636 
L 108.186591 97.903636 
L 109.076727 97.903636 
L 109.966864 97.903636 
L 110.857 97.903636 
L 111.747136 97.903636 
L 112.637273 97.903636 
L 113.527409 97.903636 
L 114.417545 97.903636 
L 115.307682 97.903636 
L 116.197818 97.903636 
L 117.087955 97.903636 
L 117.978091 97.903636 
L 118.868227 97.903636 
L 119.758364 97.903636 
L 120.6485 97.903636 
L 121.538636 97.903636 
L 122.428773 97.903636 
L 123.318909 97.903636 
L 124.209045 97.903636 
L 125.099182 97.903636 
L 125.989318 97.903636 
" style="fill:none;stroke:#4393c3;stroke-linecap:round;stroke-width:1.5;"/>
   </g>
   <g id="line2d_13">
    <path clip-path="url(#pee84cd96c9)" d="M 36.975682 97.903636 
L 37.865818 97.903636 
L 38.755955 97.903636 
L 39.646091 97.903636 
L 40.536227 97.903636 
L 41.426364 97.903636 
L 42.3165 97.903636 
L 43.206636 97.903636 
L 44.096773 97.903636 
L 44.986909 97.903636 
L 45.877045 97.903636 
L 46.767182 97.903636 
L 47.657318 97.903636 
L 48.547455 97.903636 
L 49.437591 97.903636 
L 50.327727 97.903636 
L 51.217864 97.903636 
L 52.108 97.903636 
L 52.998136 97.903636 
L 53.888273 97.903636 
L 54.778409 97.903636 
L 55.668545 97.903636 
L 56.558682 97.903636 
L 57.448818 97.903636 
L 58.338955 97.903636 
L 59.229091 97.903636 
L 60.119227 97.903636 
L 61.009364 97.903636 
L 61.8995 97.903636 
L 62.789636 97.903636 
L 63.679773 97.903636 
L 64.569909 97.903636 
L 65.460045 97.903636 
L 66.350182 97.903636 
L 67.240318 97.903636 
L 68.130455 97.903636 
L 69.020591 97.903636 
L 69.910727 97.903636 
L 70.800864 97.903636 
L 71.691 97.903636 
L 72.581136 97.903636 
L 73.471273 97.903636 
L 74.361409 97.903636 
L 75.251545 97.903636 
L 76.141682 97.903636 
L 77.031818 97.903635 
L 77.921955 97.903635 
L 78.812091 97.903635 
L 79.702227 97.903635 
L 80.592364 97.903634 
L 81.4825 97.903633 
L 82.372636 97.903633 
L 83.262773 97.903632 
L 84.152909 97.90363 
L 85.043045 97.903629 
L 85.933182 97.903627 
L 86.823318 97.903625 
L 87.713455 97.903621 
L 88.603591 97.903618 
L 89.493727 97.903613 
L 90.383864 97.903607 
L 91.274 97.903599 
L 92.164136 97.903589 
L 93.054273 97.903577 
L 93.944409 97.903561 
L 94.834545 97.903542 
L 95.724682 97.903518 
L 96.614818 97.903487 
L 97.504955 97.903448 
L 98.395091 97.903399 
L 99.285227 97.903338 
L 100.175364 97.903261 
L 101.0655 97.903164 
L 101.955636 97.903041 
L 102.845773 97.902887 
L 103.735909 97.902693 
L 104.626045 97.902449 
L 105.516182 97.902141 
L 106.406318 97.901754 
L 107.296455 97.901266 
L 108.186591 97.900653 
L 109.076727 97.89988 
L 109.966864 97.898908 
L 110.857 97.897684 
L 111.747136 97.896142 
L 112.637273 97.894202 
L 113.527409 97.89176 
L 114.417545 97.888685 
L 115.307682 97.884815 
L 116.197818 97.879943 
L 117.087955 97.87381 
L 117.978091 97.866091 
L 118.868227 97.856376 
L 119.758364 97.844148 
L 120.6485 97.828759 
L 121.538636 97.809394 
L 122.428773 97.785028 
L 123.318909 97.754374 
L 124.209045 97.715817 
L 125.099182 97.667329 
L 125.989318 97.606369 
" style="fill:none;stroke:#f4a582;stroke-linecap:round;stroke-width:1.5;"/>
   </g>
   <g id="line2d_14">
    <path clip-path="url(#pee84cd96c9)" d="M 36.975682 28.004041 
L 37.865818 28.023734 
L 38.755955 28.048571 
L 39.646091 28.079865 
L 40.536227 28.11926 
L 41.426364 28.168823 
L 42.3165 28.231144 
L 43.206636 28.309463 
L 44.096773 28.407826 
L 44.986909 28.531276 
L 45.877045 28.686077 
L 46.767182 28.879988 
L 47.657318 29.122574 
L 48.547455 29.425563 
L 49.437591 29.803232 
L 50.327727 30.27281 
L 51.217864 30.854847 
L 52.108 31.573498 
L 52.998136 32.456613 
L 53.888273 33.535505 
L 54.778409 34.8442 
L 55.668545 36.417971 
L 56.558682 38.290939 
L 57.448818 40.492608 
L 58.338955 43.043376 
L 59.229091 45.949384 
L 60.119227 49.197438 
L 61.009364 52.751161 
L 61.8995 56.549698 
L 62.789636 60.510034 
L 63.679773 64.533276 
L 64.569909 68.514088 
L 65.460045 72.351497 
L 66.350182 75.958763 
L 67.240318 79.270378 
L 68.130455 82.245166 
L 69.020591 84.865631 
L 69.910727 87.134502 
L 70.800864 89.069801 
L 71.691 90.699628 
L 72.581136 92.057505 
L 73.471273 93.178703 
L 74.361409 94.097633 
L 75.251545 94.846219 
L 76.141682 95.453022 
L 77.031818 95.942922 
L 77.921955 96.337158 
L 78.812091 96.653583 
L 79.702227 96.907022 
L 80.592364 97.109672 
L 81.4825 97.271493 
L 82.372636 97.400572 
L 83.262773 97.503447 
L 84.152909 97.58538 
L 85.043045 97.6506 
L 85.933182 97.702493 
L 86.823318 97.743768 
L 87.713455 97.776588 
L 88.603591 97.802681 
L 89.493727 97.823421 
L 90.383864 97.839904 
L 91.274 97.853002 
L 92.164136 97.86341 
L 93.054273 97.87168 
L 93.944409 97.87825 
L 94.834545 97.88347 
L 95.724682 97.887617 
L 96.614818 97.890911 
L 97.504955 97.893528 
L 98.395091 97.895607 
L 99.285227 97.897258 
L 100.175364 97.89857 
L 101.0655 97.899612 
L 101.955636 97.900439 
L 102.845773 97.901097 
L 103.735909 97.901619 
L 104.626045 97.902034 
L 105.516182 97.902364 
L 106.406318 97.902625 
L 107.296455 97.902833 
L 108.186591 97.902998 
L 109.076727 97.90313 
L 109.966864 97.903234 
L 110.857 97.903317 
L 111.747136 97.903382 
L 112.637273 97.903435 
L 113.527409 97.903476 
L 114.417545 97.903509 
L 115.307682 97.903535 
L 116.197818 97.903556 
L 117.087955 97.903573 
L 117.978091 97.903586 
L 118.868227 97.903596 
L 119.758364 97.903604 
L 120.6485 97.903611 
L 121.538636 97.903616 
L 122.428773 97.90362 
L 123.318909 97.903624 
L 124.209045 97.903626 
L 125.099182 97.903628 
L 125.989318 97.90363 
" style="fill:none;stroke:#92c5de;stroke-linecap:round;stroke-width:1.5;"/>
   </g>
   <g id="line2d_15">
    <path clip-path="url(#pee84cd96c9)" d="M 36.975682 87.564729 
L 37.865818 87.567641 
L 38.755955 87.571315 
L 39.646091 87.575944 
L 40.536227 87.581771 
L 41.426364 87.589102 
L 42.3165 87.59832 
L 43.206636 87.609904 
L 44.096773 87.624453 
L 44.986909 87.642712 
L 45.877045 87.665609 
L 46.767182 87.694291 
L 47.657318 87.730172 
L 48.547455 87.774987 
L 49.437591 87.830848 
L 50.327727 87.900304 
L 51.217864 87.986394 
L 52.108 88.09269 
L 52.998136 88.223312 
L 53.888273 88.382892 
L 54.778409 88.576462 
L 55.668545 88.80924 
L 56.558682 89.086272 
L 57.448818 89.411923 
L 58.338955 89.789209 
L 59.229091 90.219039 
L 60.119227 90.699462 
L 61.009364 91.225096 
L 61.8995 91.786941 
L 62.789636 92.372717 
L 63.679773 92.967798 
L 64.569909 93.556604 
L 65.460045 94.124198 
L 66.350182 94.657752 
L 67.240318 95.147575 
L 68.130455 95.587579 
L 69.020591 95.975174 
L 69.910727 96.310765 
L 70.800864 96.597016 
L 71.691 96.838085 
L 72.581136 97.03893 
L 73.471273 97.204767 
L 74.361409 97.340687 
L 75.251545 97.451411 
L 76.141682 97.541164 
L 77.031818 97.613625 
L 77.921955 97.671937 
L 78.812091 97.71874 
L 79.702227 97.756226 
L 80.592364 97.7862 
L 81.4825 97.810135 
L 82.372636 97.829228 
L 83.262773 97.844444 
L 84.152909 97.856563 
L 85.043045 97.866209 
L 85.933182 97.873885 
L 86.823318 97.87999 
L 87.713455 97.884845 
L 88.603591 97.888704 
L 89.493727 97.891772 
L 90.383864 97.89421 
L 91.274 97.896147 
L 92.164136 97.897687 
L 93.054273 97.89891 
L 93.944409 97.899881 
L 94.834545 97.900654 
L 95.724682 97.901267 
L 96.614818 97.901754 
L 97.504955 97.902141 
L 98.395091 97.902449 
L 99.285227 97.902693 
L 100.175364 97.902887 
L 101.0655 97.903041 
L 101.955636 97.903164 
L 102.845773 97.903261 
L 103.735909 97.903338 
L 104.626045 97.903399 
L 105.516182 97.903448 
L 106.406318 97.903487 
L 107.296455 97.903518 
L 108.186591 97.903542 
L 109.076727 97.903561 
L 109.966864 97.903577 
L 110.857 97.903589 
L 111.747136 97.903599 
L 112.637273 97.903607 
L 113.527409 97.903613 
L 114.417545 97.903618 
L 115.307682 97.903621 
L 116.197818 97.903624 
L 117.087955 97.903627 
L 117.978091 97.903629 
L 118.868227 97.90363 
L 119.758364 97.903632 
L 120.6485 97.903633 
L 121.538636 97.903633 
L 122.428773 97.903634 
L 123.318909 97.903634 
L 124.209045 97.903635 
L 125.099182 97.903635 
L 125.989318 97.903635 
" style="fill:none;stroke:#92c5de;stroke-linecap:round;stroke-width:1.5;"/>
   </g>
   <g id="line2d_16">
    <path clip-path="url(#pee84cd96c9)" d="M 36.975682 97.903635 
L 37.865818 97.903635 
L 38.755955 97.903635 
L 39.646091 97.903635 
L 40.536227 97.903635 
L 41.426364 97.903635 
L 42.3165 97.903635 
L 43.206636 97.903635 
L 44.096773 97.903635 
L 44.986909 97.903635 
L 45.877045 97.903635 
L 46.767182 97.903635 
L 47.657318 97.903635 
L 48.547455 97.903635 
L 49.437591 97.903635 
L 50.327727 97.903635 
L 51.217864 97.903635 
L 52.108 97.903635 
L 52.998136 97.903635 
L 53.888273 97.903635 
L 54.778409 97.903635 
L 55.668545 97.903635 
L 56.558682 97.903635 
L 57.448818 97.903636 
L 58.338955 97.903636 
L 59.229091 97.903636 
L 60.119227 97.903636 
L 61.009364 97.903636 
L 61.8995 97.903636 
L 62.789636 97.903636 
L 63.679773 97.903636 
L 64.569909 97.903636 
L 65.460045 97.903636 
L 66.350182 97.903636 
L 67.240318 97.903636 
L 68.130455 97.903636 
L 69.020591 97.903636 
L 69.910727 97.903636 
L 70.800864 97.903636 
L 71.691 97.903636 
L 72.581136 97.903636 
L 73.471273 97.903636 
L 74.361409 97.903636 
L 75.251545 97.903636 
L 76.141682 97.903636 
L 77.031818 97.903636 
L 77.921955 97.903636 
L 78.812091 97.903636 
L 79.702227 97.903636 
L 80.592364 97.903636 
L 81.4825 97.903636 
L 82.372636 97.903636 
L 83.262773 97.903636 
L 84.152909 97.903636 
L 85.043045 97.903636 
L 85.933182 97.903636 
L 86.823318 97.903636 
L 87.713455 97.903636 
L 88.603591 97.903636 
L 89.493727 97.903636 
L 90.383864 97.903636 
L 91.274 97.903636 
L 92.164136 97.903636 
L 93.054273 97.903636 
L 93.944409 97.903636 
L 94.834545 97.903636 
L 95.724682 97.903636 
L 96.614818 97.903636 
L 97.504955 97.903636 
L 98.395091 97.903636 
L 99.285227 97.903636 
L 100.175364 97.903636 
L 101.0655 97.903636 
L 101.955636 97.903636 
L 102.845773 97.903636 
L 103.735909 97.903636 
L 104.626045 97.903636 
L 105.516182 97.903636 
L 106.406318 97.903636 
L 107.296455 97.903636 
L 108.186591 97.903636 
L 109.076727 97.903636 
L 109.966864 97.903636 
L 110.857 97.903636 
L 111.747136 97.903636 
L 112.637273 97.903636 
L 113.527409 97.903636 
L 114.417545 97.903636 
L 115.307682 97.903636 
L 116.197818 97.903636 
L 117.087955 97.903636 
L 117.978091 97.903636 
L 118.868227 97.903636 
L 119.758364 97.903636 
L 120.6485 97.903636 
L 121.538636 97.903636 
L 122.428773 97.903636 
L 123.318909 97.903636 
L 124.209045 97.903636 
L 125.099182 97.903636 
L 125.989318 97.903636 
" style="fill:none;stroke:#92c5de;stroke-linecap:round;stroke-width:1.5;"/>
   </g>
   <g id="line2d_17">
    <path clip-path="url(#pee84cd96c9)" d="M 36.975682 97.815638 
L 37.865818 97.792884 
L 38.755955 97.764257 
L 39.646091 97.728247 
L 40.536227 97.682959 
L 41.426364 97.626017 
L 42.3165 97.554447 
L 43.206636 97.464527 
L 44.096773 97.351612 
L 44.986909 97.209913 
L 45.877045 97.032239 
L 46.767182 96.809685 
L 47.657318 96.531274 
L 48.547455 96.183545 
L 49.437591 95.750112 
L 50.327727 95.211205 
L 51.217864 94.543237 
L 52.108 93.718488 
L 52.998136 92.704995 
L 53.888273 91.466823 
L 54.778409 89.964924 
L 55.668545 88.158815 
L 56.558682 86.00934 
L 57.448818 83.482638 
L 58.338955 80.555299 
L 59.229091 77.220276 
L 60.119227 73.492711 
L 61.009364 69.414351 
L 61.8995 65.055036 
L 62.789636 60.510034 
L 63.679773 55.892841 
L 64.569909 51.324341 
L 65.460045 46.920415 
L 66.350182 42.780608 
L 67.240318 38.980099 
L 68.130455 35.566143 
L 69.020591 32.558819 
L 69.910727 29.954994 
L 70.800864 27.733987 
L 71.691 25.863549 
L 72.581136 24.305207 
L 73.471273 23.018487 
L 74.361409 21.963895 
L 75.251545 21.104796 
L 76.141682 20.408411 
L 77.031818 19.846187 
L 77.921955 19.39375 
L 78.812091 19.030611 
L 79.702227 18.739758 
L 80.592364 18.507191 
L 81.4825 18.321481 
L 82.372636 18.173347 
L 83.262773 18.055286 
L 84.152909 17.961258 
L 85.043045 17.886411 
L 85.933182 17.826859 
L 86.823318 17.779493 
L 87.713455 17.74183 
L 88.603591 17.71189 
L 89.493727 17.688093 
L 90.383864 17.669182 
L 91.274 17.654158 
L 92.164136 17.642223 
L 93.054273 17.632745 
L 93.944409 17.62522 
L 94.834545 17.619249 
L 95.724682 17.614515 
L 96.614818 17.610765 
L 97.504955 17.607801 
L 98.395091 17.605464 
L 99.285227 17.60363 
L 100.175364 17.602202 
L 101.0655 17.601103 
L 101.955636 17.600275 
L 102.845773 17.599675 
L 103.735909 17.59927 
L 104.626045 17.599038 
L 105.516182 17.598967 
L 106.406318 17.599054 
L 107.296455 17.599302 
L 108.186591 17.599726 
L 109.076727 17.600348 
L 109.966864 17.601201 
L 110.857 17.60233 
L 111.747136 17.603795 
L 112.637273 17.605675 
L 113.527409 17.608069 
L 114.417545 17.611105 
L 115.307682 17.614944 
L 116.197818 17.619791 
L 117.087955 17.625903 
L 117.978091 17.633605 
L 118.868227 17.643307 
L 119.758364 17.655522 
L 120.6485 17.6709 
L 121.538636 17.690254 
L 122.428773 17.714609 
L 123.318909 17.745251 
L 124.209045 17.783796 
L 125.099182 17.83227 
L 125.989318 17.893213 
" style="fill:none;stroke:#333333;stroke-linecap:round;stroke-width:1.5;"/>
   </g>
   <g id="line2d_18">
    <path clip-path="url(#pee84cd96c9)" d="M 36.975682 97.903635 
L 37.865818 97.903635 
L 38.755955 97.903635 
L 39.646091 97.903635 
L 40.536227 97.903634 
L 41.426364 97.903634 
L 42.3165 97.903633 
L 43.206636 97.903632 
L 44.096773 97.903631 
L 44.986909 97.903629 
L 45.877045 97.903627 
L 46.767182 97.903625 
L 47.657318 97.903622 
L 48.547455 97.903619 
L 49.437591 97.903614 
L 50.327727 97.903609 
L 51.217864 97.903602 
L 52.108 97.903594 
L 52.998136 97.903583 
L 53.888273 97.90357 
L 54.778409 97.903555 
L 55.668545 97.903537 
L 56.558682 97.903515 
L 57.448818 97.903489 
L 58.338955 97.903459 
L 59.229091 97.903425 
L 60.119227 97.903387 
L 61.009364 97.903345 
L 61.8995 97.9033 
L 62.789636 97.903254 
L 63.679773 97.903206 
L 64.569909 97.90316 
L 65.460045 97.903115 
L 66.350182 97.903072 
L 67.240318 97.903033 
L 68.130455 97.902998 
L 69.020591 97.902968 
L 69.910727 97.902941 
L 70.800864 97.902918 
L 71.691 97.902899 
L 72.581136 97.902883 
L 73.471273 97.90287 
L 74.361409 97.902859 
L 75.251545 97.90285 
L 76.141682 97.902843 
L 77.031818 97.902838 
L 77.921955 97.902833 
L 78.812091 97.902829 
L 79.702227 97.902826 
L 80.592364 97.902824 
L 81.4825 97.902822 
L 82.372636 97.90282 
L 83.262773 97.902819 
L 84.152909 97.902818 
L 85.043045 97.902818 
L 85.933182 97.902817 
L 86.823318 97.902816 
L 87.713455 97.902816 
L 88.603591 97.902816 
L 89.493727 97.902816 
L 90.383864 97.902815 
L 91.274 97.902815 
L 92.164136 97.902815 
L 93.054273 97.902815 
L 93.944409 97.902815 
L 94.834545 97.902815 
L 95.724682 97.902815 
L 96.614818 97.902815 
L 97.504955 97.902815 
L 98.395091 97.902815 
L 99.285227 97.902815 
L 100.175364 97.902815 
L 101.0655 97.902815 
L 101.955636 97.902815 
L 102.845773 97.902815 
L 103.735909 97.902815 
L 104.626045 97.902815 
L 105.516182 97.902815 
L 106.406318 97.902815 
L 107.296455 97.902815 
L 108.186591 97.902815 
L 109.076727 97.902815 
L 109.966864 97.902815 
L 110.857 97.902815 
L 111.747136 97.902815 
L 112.637273 97.902815 
L 113.527409 97.902815 
L 114.417545 97.902815 
L 115.307682 97.902815 
L 116.197818 97.902815 
L 117.087955 97.902815 
L 117.978091 97.902815 
L 118.868227 97.902815 
L 119.758364 97.902815 
L 120.6485 97.902815 
L 121.538636 97.902816 
L 122.428773 97.902816 
L 123.318909 97.902816 
L 124.209045 97.902817 
L 125.099182 97.902817 
L 125.989318 97.902818 
" style="fill:none;stroke:#333333;stroke-linecap:round;stroke-width:1.5;"/>
   </g>
   <g id="line2d_19">
    <path clip-path="url(#pee84cd96c9)" d="M 36.975682 97.903616 
L 37.865818 97.90361 
L 38.755955 97.903604 
L 39.646091 97.903595 
L 40.536227 97.903585 
L 41.426364 97.903571 
L 42.3165 97.903555 
L 43.206636 97.903533 
L 44.096773 97.903507 
L 44.986909 97.903474 
L 45.877045 97.903432 
L 46.767182 97.90338 
L 47.657318 97.903315 
L 48.547455 97.903233 
L 49.437591 97.903132 
L 50.327727 97.903005 
L 51.217864 97.902849 
L 52.108 97.902655 
L 52.998136 97.902418 
L 53.888273 97.902127 
L 54.778409 97.901775 
L 55.668545 97.901352 
L 56.558682 97.900848 
L 57.448818 97.900256 
L 58.338955 97.89957 
L 59.229091 97.898788 
L 60.119227 97.897914 
L 61.009364 97.896958 
L 61.8995 97.895936 
L 62.789636 97.89487 
L 63.679773 97.893788 
L 64.569909 97.892717 
L 65.460045 97.891685 
L 66.350182 97.890714 
L 67.240318 97.889823 
L 68.130455 97.889023 
L 69.020591 97.888318 
L 69.910727 97.887708 
L 70.800864 97.887187 
L 71.691 97.886749 
L 72.581136 97.886383 
L 73.471273 97.886082 
L 74.361409 97.885834 
L 75.251545 97.885633 
L 76.141682 97.88547 
L 77.031818 97.885338 
L 77.921955 97.885232 
L 78.812091 97.885147 
L 79.702227 97.885079 
L 80.592364 97.885024 
L 81.4825 97.88498 
L 82.372636 97.884946 
L 83.262773 97.884918 
L 84.152909 97.884896 
L 85.043045 97.884878 
L 85.933182 97.884865 
L 86.823318 97.884853 
L 87.713455 97.884845 
L 88.603591 97.884838 
L 89.493727 97.884832 
L 90.383864 97.884828 
L 91.274 97.884824 
L 92.164136 97.884821 
L 93.054273 97.884819 
L 93.944409 97.884817 
L 94.834545 97.884816 
L 95.724682 97.884815 
L 96.614818 97.884814 
L 97.504955 97.884813 
L 98.395091 97.884813 
L 99.285227 97.884812 
L 100.175364 97.884812 
L 101.0655 97.884812 
L 101.955636 97.884811 
L 102.845773 97.884811 
L 103.735909 97.884811 
L 104.626045 97.884811 
L 105.516182 97.884811 
L 106.406318 97.884811 
L 107.296455 97.884811 
L 108.186591 97.884811 
L 109.076727 97.884811 
L 109.966864 97.884812 
L 110.857 97.884812 
L 111.747136 97.884812 
L 112.637273 97.884813 
L 113.527409 97.884813 
L 114.417545 97.884814 
L 115.307682 97.884815 
L 116.197818 97.884816 
L 117.087955 97.884817 
L 117.978091 97.884819 
L 118.868227 97.884822 
L 119.758364 97.884824 
L 120.6485 97.884828 
L 121.538636 97.884833 
L 122.428773 97.884838 
L 123.318909 97.884845 
L 124.209045 97.884854 
L 125.099182 97.884866 
L 125.989318 97.88488 
" style="fill:none;stroke:#333333;stroke-linecap:round;stroke-width:1.5;"/>
   </g>
  </g>
 </g>
 <defs>
  <clipPath id="pee84cd96c9">
   <rect height="88.36" width="97.915" x="32.525" y="13.56"/>
  </clipPath>
 </defs>
</svg>
