<?xml version="1.0" encoding="utf-8" standalone="no"?>
<!DOCTYPE svg PUBLIC "-//W3C//DTD SVG 1.1//EN"
  "http://www.w3.org/Graphics/SVG/1.1/DTD/svg11.dtd">
<!-- Created with matplotlib (http://matplotlib.org/) -->
<svg height="144pt" version="1.1" viewBox="0 0 144 144" width="144pt" xmlns="http://www.w3.org/2000/svg" xmlns:xlink="http://www.w3.org/1999/xlink">
 <defs>
  <style type="text/css">
*{stroke-linecap:butt;stroke-linejoin:round;}
  </style>
 </defs>
 <g id="figure_1">
  <g id="patch_1">
   <path d="M 0 144 
L 144 144 
L 144 0 
L 0 0 
z
" style="fill:#ffffff;"/>
  </g>
  <g id="axes_1">
   <g id="patch_2">
    <path d="M 48.38 101.92 
L 130.44 101.92 
L 130.44 27.48 
L 48.38 27.48 
z
" style="fill:#ffffff;"/>
   </g>
   <g id="matplotlib.axis_1">
    <g id="xtick_1">
     <g id="line2d_1">
      <defs>
       <path d="M 0 0 
L 0 3.5 
" id="m56d2a3a2fe" style="stroke:#262626;stroke-width:0.8;"/>
      </defs>
      <g>
       <use style="fill:#262626;stroke:#262626;stroke-width:0.8;" x="52.11" xlink:href="#m56d2a3a2fe" y="101.92"/>
      </g>
     </g>
     <g id="text_1">
      <!-- 2 -->
      <defs>
       <path d="M 50.34375 8.453125 
L 50.34375 0 
L 3.03125 0 
Q 2.9375 3.171875 4.046875 6.109375 
Q 5.859375 10.9375 9.828125 15.625 
Q 13.8125 20.3125 21.34375 26.46875 
Q 33.015625 36.03125 37.109375 41.625 
Q 41.21875 47.21875 41.21875 52.203125 
Q 41.21875 57.421875 37.46875 61 
Q 33.734375 64.59375 27.734375 64.59375 
Q 21.390625 64.59375 17.578125 60.78125 
Q 13.765625 56.984375 13.71875 50.25 
L 4.6875 51.171875 
Q 5.609375 61.28125 11.65625 66.578125 
Q 17.71875 71.875 27.9375 71.875 
Q 38.234375 71.875 44.234375 66.15625 
Q 50.25 60.453125 50.25 52 
Q 50.25 47.703125 48.484375 43.546875 
Q 46.734375 39.40625 42.65625 34.8125 
Q 38.578125 30.21875 29.109375 22.21875 
Q 21.1875 15.578125 18.9375 13.203125 
Q 16.703125 10.84375 15.234375 8.453125 
z
" id="ArialMT-32"/>
      </defs>
      <g style="fill:#262626;" transform="translate(49.051484 116.793594)scale(0.11 -0.11)">
       <use xlink:href="#ArialMT-32"/>
      </g>
     </g>
    </g>
    <g id="xtick_2">
     <g id="line2d_2">
      <g>
       <use style="fill:#262626;stroke:#262626;stroke-width:0.8;" x="67.03" xlink:href="#m56d2a3a2fe" y="101.92"/>
      </g>
     </g>
     <g id="text_2">
      <!-- 4 -->
      <defs>
       <path d="M 32.328125 0 
L 32.328125 17.140625 
L 1.265625 17.140625 
L 1.265625 25.203125 
L 33.9375 71.578125 
L 41.109375 71.578125 
L 41.109375 25.203125 
L 50.78125 25.203125 
L 50.78125 17.140625 
L 41.109375 17.140625 
L 41.109375 0 
z
M 32.328125 25.203125 
L 32.328125 57.46875 
L 9.90625 25.203125 
z
" id="ArialMT-34"/>
      </defs>
      <g style="fill:#262626;" transform="translate(63.971484 116.793594)scale(0.11 -0.11)">
       <use xlink:href="#ArialMT-34"/>
      </g>
     </g>
    </g>
    <g id="xtick_3">
     <g id="line2d_3">
      <g>
       <use style="fill:#262626;stroke:#262626;stroke-width:0.8;" x="81.95" xlink:href="#m56d2a3a2fe" y="101.92"/>
      </g>
     </g>
     <g id="text_3">
      <!-- 6 -->
      <defs>
       <path d="M 49.75 54.046875 
L 41.015625 53.375 
Q 39.84375 58.546875 37.703125 60.890625 
Q 34.125 64.65625 28.90625 64.65625 
Q 24.703125 64.65625 21.53125 62.3125 
Q 17.390625 59.28125 14.984375 53.46875 
Q 12.59375 47.65625 12.5 36.921875 
Q 15.671875 41.75 20.265625 44.09375 
Q 24.859375 46.4375 29.890625 46.4375 
Q 38.671875 46.4375 44.84375 39.96875 
Q 51.03125 33.5 51.03125 23.25 
Q 51.03125 16.5 48.125 10.71875 
Q 45.21875 4.9375 40.140625 1.859375 
Q 35.0625 -1.21875 28.609375 -1.21875 
Q 17.625 -1.21875 10.6875 6.859375 
Q 3.765625 14.9375 3.765625 33.5 
Q 3.765625 54.25 11.421875 63.671875 
Q 18.109375 71.875 29.4375 71.875 
Q 37.890625 71.875 43.28125 67.140625 
Q 48.6875 62.40625 49.75 54.046875 
z
M 13.875 23.1875 
Q 13.875 18.65625 15.796875 14.5 
Q 17.71875 10.359375 21.1875 8.171875 
Q 24.65625 6 28.46875 6 
Q 34.03125 6 38.03125 10.484375 
Q 42.046875 14.984375 42.046875 22.703125 
Q 42.046875 30.125 38.078125 34.390625 
Q 34.125 38.671875 28.125 38.671875 
Q 22.171875 38.671875 18.015625 34.390625 
Q 13.875 30.125 13.875 23.1875 
z
" id="ArialMT-36"/>
      </defs>
      <g style="fill:#262626;" transform="translate(78.891484 116.793594)scale(0.11 -0.11)">
       <use xlink:href="#ArialMT-36"/>
      </g>
     </g>
    </g>
    <g id="xtick_4">
     <g id="line2d_4">
      <g>
       <use style="fill:#262626;stroke:#262626;stroke-width:0.8;" x="96.87" xlink:href="#m56d2a3a2fe" y="101.92"/>
      </g>
     </g>
     <g id="text_4">
      <!-- 8 -->
      <defs>
       <path d="M 17.671875 38.8125 
Q 12.203125 40.828125 9.5625 44.53125 
Q 6.9375 48.25 6.9375 53.421875 
Q 6.9375 61.234375 12.546875 66.546875 
Q 18.171875 71.875 27.484375 71.875 
Q 36.859375 71.875 42.578125 66.421875 
Q 48.296875 60.984375 48.296875 53.171875 
Q 48.296875 48.1875 45.671875 44.5 
Q 43.0625 40.828125 37.75 38.8125 
Q 44.34375 36.671875 47.78125 31.875 
Q 51.21875 27.09375 51.21875 20.453125 
Q 51.21875 11.28125 44.71875 5.03125 
Q 38.234375 -1.21875 27.640625 -1.21875 
Q 17.046875 -1.21875 10.546875 5.046875 
Q 4.046875 11.328125 4.046875 20.703125 
Q 4.046875 27.6875 7.59375 32.390625 
Q 11.140625 37.109375 17.671875 38.8125 
z
M 15.921875 53.71875 
Q 15.921875 48.640625 19.1875 45.40625 
Q 22.46875 42.1875 27.6875 42.1875 
Q 32.765625 42.1875 36.015625 45.375 
Q 39.265625 48.578125 39.265625 53.21875 
Q 39.265625 58.0625 35.90625 61.359375 
Q 32.5625 64.65625 27.59375 64.65625 
Q 22.5625 64.65625 19.234375 61.421875 
Q 15.921875 58.203125 15.921875 53.71875 
z
M 13.09375 20.65625 
Q 13.09375 16.890625 14.875 13.375 
Q 16.65625 9.859375 20.171875 7.921875 
Q 23.6875 6 27.734375 6 
Q 34.03125 6 38.125 10.046875 
Q 42.234375 14.109375 42.234375 20.359375 
Q 42.234375 26.703125 38.015625 30.859375 
Q 33.796875 35.015625 27.4375 35.015625 
Q 21.234375 35.015625 17.15625 30.90625 
Q 13.09375 26.8125 13.09375 20.65625 
z
" id="ArialMT-38"/>
      </defs>
      <g style="fill:#262626;" transform="translate(93.811484 116.793594)scale(0.11 -0.11)">
       <use xlink:href="#ArialMT-38"/>
      </g>
     </g>
    </g>
    <g id="xtick_5">
     <g id="line2d_5">
      <g>
       <use style="fill:#262626;stroke:#262626;stroke-width:0.8;" x="111.79" xlink:href="#m56d2a3a2fe" y="101.92"/>
      </g>
     </g>
     <g id="text_5">
      <!-- 10 -->
      <defs>
       <path d="M 37.25 0 
L 28.46875 0 
L 28.46875 56 
Q 25.296875 52.984375 20.140625 49.953125 
Q 14.984375 46.921875 10.890625 45.40625 
L 10.890625 53.90625 
Q 18.265625 57.375 23.78125 62.296875 
Q 29.296875 67.234375 31.59375 71.875 
L 37.25 71.875 
z
" id="ArialMT-31"/>
       <path d="M 4.15625 35.296875 
Q 4.15625 48 6.765625 55.734375 
Q 9.375 63.484375 14.515625 67.671875 
Q 19.671875 71.875 27.484375 71.875 
Q 33.25 71.875 37.59375 69.546875 
Q 41.9375 67.234375 44.765625 62.859375 
Q 47.609375 58.5 49.21875 52.21875 
Q 50.828125 45.953125 50.828125 35.296875 
Q 50.828125 22.703125 48.234375 14.96875 
Q 45.65625 7.234375 40.5 3 
Q 35.359375 -1.21875 27.484375 -1.21875 
Q 17.140625 -1.21875 11.234375 6.203125 
Q 4.15625 15.140625 4.15625 35.296875 
z
M 13.1875 35.296875 
Q 13.1875 17.671875 17.3125 11.828125 
Q 21.4375 6 27.484375 6 
Q 33.546875 6 37.671875 11.859375 
Q 41.796875 17.71875 41.796875 35.296875 
Q 41.796875 52.984375 37.671875 58.78125 
Q 33.546875 64.59375 27.390625 64.59375 
Q 21.34375 64.59375 17.71875 59.46875 
Q 13.1875 52.9375 13.1875 35.296875 
z
" id="ArialMT-30"/>
      </defs>
      <g style="fill:#262626;" transform="translate(105.672969 116.793594)scale(0.11 -0.11)">
       <use xlink:href="#ArialMT-31"/>
       <use x="55.615234" xlink:href="#ArialMT-30"/>
      </g>
     </g>
    </g>
    <g id="xtick_6">
     <g id="line2d_6">
      <g>
       <use style="fill:#262626;stroke:#262626;stroke-width:0.8;" x="126.71" xlink:href="#m56d2a3a2fe" y="101.92"/>
      </g>
     </g>
     <g id="text_6">
      <!-- 12 -->
      <g style="fill:#262626;" transform="translate(120.592969 116.793594)scale(0.11 -0.11)">
       <use xlink:href="#ArialMT-31"/>
       <use x="55.615234" xlink:href="#ArialMT-32"/>
      </g>
     </g>
    </g>
    <g id="text_7">
     <!-- pH -->
     <defs>
      <path d="M 6.59375 -19.875 
L 6.59375 51.859375 
L 14.59375 51.859375 
L 14.59375 45.125 
Q 17.4375 49.078125 21 51.046875 
Q 24.5625 53.03125 29.640625 53.03125 
Q 36.28125 53.03125 41.359375 49.609375 
Q 46.4375 46.1875 49.015625 39.953125 
Q 51.609375 33.734375 51.609375 26.3125 
Q 51.609375 18.359375 48.75 11.984375 
Q 45.90625 5.609375 40.453125 2.21875 
Q 35.015625 -1.171875 29 -1.171875 
Q 24.609375 -1.171875 21.109375 0.6875 
Q 17.625 2.546875 15.375 5.375 
L 15.375 -19.875 
z
M 14.546875 25.640625 
Q 14.546875 15.625 18.59375 10.84375 
Q 22.65625 6.0625 28.421875 6.0625 
Q 34.28125 6.0625 38.453125 11.015625 
Q 42.625 15.96875 42.625 26.375 
Q 42.625 36.28125 38.546875 41.203125 
Q 34.46875 46.140625 28.8125 46.140625 
Q 23.1875 46.140625 18.859375 40.890625 
Q 14.546875 35.640625 14.546875 25.640625 
z
" id="ArialMT-70"/>
      <path d="M 8.015625 0 
L 8.015625 71.578125 
L 17.484375 71.578125 
L 17.484375 42.1875 
L 54.6875 42.1875 
L 54.6875 71.578125 
L 64.15625 71.578125 
L 64.15625 0 
L 54.6875 0 
L 54.6875 33.734375 
L 17.484375 33.734375 
L 17.484375 0 
z
" id="ArialMT-48"/>
     </defs>
     <g style="fill:#262626;" transform="translate(82.379453 130.853437)scale(0.11 -0.11)">
      <use xlink:href="#ArialMT-70"/>
      <use x="55.615234" xlink:href="#ArialMT-48"/>
     </g>
    </g>
   </g>
   <g id="matplotlib.axis_2">
    <g id="ytick_1">
     <g id="line2d_7">
      <defs>
       <path d="M 0 0 
L -3.5 0 
" id="m41cc8e1b51" style="stroke:#262626;stroke-width:0.8;"/>
      </defs>
      <g>
       <use style="fill:#262626;stroke:#262626;stroke-width:0.8;" x="48.38" xlink:href="#m41cc8e1b51" y="100.183175"/>
      </g>
     </g>
     <g id="text_8">
      <!-- −1 -->
      <defs>
       <path d="M 52.828125 31.203125 
L 5.5625 31.203125 
L 5.5625 39.40625 
L 52.828125 39.40625 
z
" id="ArialMT-2212"/>
      </defs>
      <g style="fill:#262626;" transform="translate(28.838281 104.119972)scale(0.11 -0.11)">
       <use xlink:href="#ArialMT-2212"/>
       <use x="58.398438" xlink:href="#ArialMT-31"/>
      </g>
     </g>
    </g>
    <g id="ytick_2">
     <g id="line2d_8">
      <g>
       <use style="fill:#262626;stroke:#262626;stroke-width:0.8;" x="48.38" xlink:href="#m41cc8e1b51" y="65.446684"/>
      </g>
     </g>
     <g id="text_9">
      <!-- 0 -->
      <g style="fill:#262626;" transform="translate(35.262969 69.383481)scale(0.11 -0.11)">
       <use xlink:href="#ArialMT-30"/>
      </g>
     </g>
    </g>
    <g id="ytick_3">
     <g id="line2d_9">
      <g>
       <use style="fill:#262626;stroke:#262626;stroke-width:0.8;" x="48.38" xlink:href="#m41cc8e1b51" y="30.710193"/>
      </g>
     </g>
     <g id="text_10">
      <!-- 1 -->
      <g style="fill:#262626;" transform="translate(35.262969 34.64699)scale(0.11 -0.11)">
       <use xlink:href="#ArialMT-31"/>
      </g>
     </g>
    </g>
    <g id="text_11">
     <!-- $\langle q_\mathsf{total} \rangle$ -->
     <defs>
      <path d="M 8.9375 31.34375 
L 22.703125 75.875 
L 31 75.875 
L 17.234375 31.34375 
L 31 -13.1875 
L 22.703125 -13.1875 
z
" id="DejaVuSans-27e8"/>
      <path d="M 41.703125 8.203125 
Q 38.09375 3.46875 33.171875 1.015625 
Q 28.265625 -1.421875 22.3125 -1.421875 
Q 14.015625 -1.421875 9.296875 4.171875 
Q 4.59375 9.765625 4.59375 19.578125 
Q 4.59375 27.484375 7.5 34.859375 
Q 10.40625 42.234375 15.828125 48.09375 
Q 19.34375 51.90625 23.90625 53.953125 
Q 28.46875 56 33.5 56 
Q 39.546875 56 43.453125 53.609375 
Q 47.359375 51.21875 49.125 46.390625 
L 50.6875 54.59375 
L 59.71875 54.59375 
L 45.125 -20.609375 
L 36.078125 -20.609375 
z
M 13.921875 20.90625 
Q 13.921875 13.671875 16.9375 9.890625 
Q 19.96875 6.109375 25.6875 6.109375 
Q 34.1875 6.109375 40.1875 14.234375 
Q 46.1875 22.359375 46.1875 33.984375 
Q 46.1875 41.015625 43.078125 44.75 
Q 39.984375 48.484375 34.1875 48.484375 
Q 29.9375 48.484375 26.3125 46.5 
Q 22.703125 44.53125 20.015625 40.71875 
Q 17.1875 36.71875 15.546875 31.34375 
Q 13.921875 25.984375 13.921875 20.90625 
z
" id="DejaVuSans-Oblique-71"/>
      <path d="M 18.3125 70.21875 
L 18.3125 54.6875 
L 36.8125 54.6875 
L 36.8125 47.703125 
L 18.3125 47.703125 
L 18.3125 18.015625 
Q 18.3125 11.328125 20.140625 9.421875 
Q 21.96875 7.515625 27.59375 7.515625 
L 36.8125 7.515625 
L 36.8125 0 
L 27.59375 0 
Q 17.1875 0 13.234375 3.875 
Q 9.28125 7.765625 9.28125 18.015625 
L 9.28125 47.703125 
L 2.6875 47.703125 
L 2.6875 54.6875 
L 9.28125 54.6875 
L 9.28125 70.21875 
z
" id="DejaVuSans-74"/>
      <path d="M 30.609375 48.390625 
Q 23.390625 48.390625 19.1875 42.75 
Q 14.984375 37.109375 14.984375 27.296875 
Q 14.984375 17.484375 19.15625 11.84375 
Q 23.34375 6.203125 30.609375 6.203125 
Q 37.796875 6.203125 41.984375 11.859375 
Q 46.1875 17.53125 46.1875 27.296875 
Q 46.1875 37.015625 41.984375 42.703125 
Q 37.796875 48.390625 30.609375 48.390625 
z
M 30.609375 56 
Q 42.328125 56 49.015625 48.375 
Q 55.71875 40.765625 55.71875 27.296875 
Q 55.71875 13.875 49.015625 6.21875 
Q 42.328125 -1.421875 30.609375 -1.421875 
Q 18.84375 -1.421875 12.171875 6.21875 
Q 5.515625 13.875 5.515625 27.296875 
Q 5.515625 40.765625 12.171875 48.375 
Q 18.84375 56 30.609375 56 
z
" id="DejaVuSans-6f"/>
      <path d="M 34.28125 27.484375 
Q 23.390625 27.484375 19.1875 25 
Q 14.984375 22.515625 14.984375 16.5 
Q 14.984375 11.71875 18.140625 8.90625 
Q 21.296875 6.109375 26.703125 6.109375 
Q 34.1875 6.109375 38.703125 11.40625 
Q 43.21875 16.703125 43.21875 25.484375 
L 43.21875 27.484375 
z
M 52.203125 31.203125 
L 52.203125 0 
L 43.21875 0 
L 43.21875 8.296875 
Q 40.140625 3.328125 35.546875 0.953125 
Q 30.953125 -1.421875 24.3125 -1.421875 
Q 15.921875 -1.421875 10.953125 3.296875 
Q 6 8.015625 6 15.921875 
Q 6 25.140625 12.171875 29.828125 
Q 18.359375 34.515625 30.609375 34.515625 
L 43.21875 34.515625 
L 43.21875 35.40625 
Q 43.21875 41.609375 39.140625 45 
Q 35.0625 48.390625 27.6875 48.390625 
Q 23 48.390625 18.546875 47.265625 
Q 14.109375 46.140625 10.015625 43.890625 
L 10.015625 52.203125 
Q 14.9375 54.109375 19.578125 55.046875 
Q 24.21875 56 28.609375 56 
Q 40.484375 56 46.34375 49.84375 
Q 52.203125 43.703125 52.203125 31.203125 
z
" id="DejaVuSans-61"/>
      <path d="M 9.421875 75.984375 
L 18.40625 75.984375 
L 18.40625 0 
L 9.421875 0 
z
" id="DejaVuSans-6c"/>
      <path d="M 30.078125 31.34375 
L 16.3125 -13.1875 
L 8.015625 -13.1875 
L 21.78125 31.34375 
L 8.015625 75.875 
L 16.3125 75.875 
z
" id="DejaVuSans-27e9"/>
     </defs>
     <g style="fill:#262626;" transform="translate(22.528281 81.475)rotate(-90)scale(0.11 -0.11)">
      <use transform="translate(0 0.125)" xlink:href="#DejaVuSans-27e8"/>
      <use transform="translate(39.013672 0.125)" xlink:href="#DejaVuSans-Oblique-71"/>
      <use transform="translate(102.490234 -16.28125)scale(0.7)" xlink:href="#DejaVuSans-74"/>
      <use transform="translate(129.936523 -16.28125)scale(0.7)" xlink:href="#DejaVuSans-6f"/>
      <use transform="translate(172.763672 -16.28125)scale(0.7)" xlink:href="#DejaVuSans-74"/>
      <use transform="translate(200.209961 -16.28125)scale(0.7)" xlink:href="#DejaVuSans-61"/>
      <use transform="translate(243.105469 -16.28125)scale(0.7)" xlink:href="#DejaVuSans-6c"/>
      <use transform="translate(265.288086 0.125)" xlink:href="#DejaVuSans-27e9"/>
     </g>
    </g>
   </g>
   <g id="PolyCollection_1">
    <defs>
     <path d="M 52.11 -112.848006 
L 52.11 -112.848006 
L 52.856 -112.735438 
L 53.602 -112.594769 
L 54.348 -112.419317 
L 55.094 -112.200989 
L 55.84 -111.930102 
L 56.586 -111.595215 
L 57.332 -111.183054 
L 58.078 -110.678568 
L 58.824 -110.065216 
L 59.57 -109.325572 
L 60.316 -108.44237 
L 61.062 -107.400058 
L 61.808 -106.186886 
L 62.554 -104.797391 
L 63.3 -103.234982 
L 64.046 -101.514105 
L 64.792 -99.661329 
L 65.538 -97.714782 
L 66.284 -95.721611 
L 67.03 -93.733693 
L 67.776 -91.802365 
L 68.522 -89.973264 
L 69.268 -88.282347 
L 70.014 -86.753743 
L 70.76 -85.39956 
L 71.506 -84.221235 
L 72.252 -83.211841 
L 72.998 -82.358676 
L 73.744 -81.645696 
L 74.49 -81.055495 
L 75.236 -80.570756 
L 75.982 -80.175199 
L 76.728 -79.854115 
L 77.474 -79.594597 
L 78.22 -79.385566 
L 78.966 -79.217669 
L 79.712 -79.083115 
L 80.458 -78.975474 
L 81.204 -78.889488 
L 81.95 -78.82088 
L 82.696 -78.766187 
L 83.442 -78.722618 
L 84.188 -78.687933 
L 84.934 -78.660331 
L 85.68 -78.638375 
L 86.426 -78.620915 
L 87.172 -78.607033 
L 87.918 -78.595998 
L 88.664 -78.587228 
L 89.41 -78.580259 
L 90.156 -78.574721 
L 90.902 -78.570321 
L 91.648 -78.566824 
L 92.394 -78.564047 
L 93.14 -78.56184 
L 93.886 -78.560087 
L 94.632 -78.558695 
L 95.378 -78.557589 
L 96.124 -78.55671 
L 96.87 -78.556012 
L 97.616 -78.555457 
L 98.362 -78.555017 
L 99.108 -78.554667 
L 99.854 -78.554389 
L 100.6 -78.554168 
L 101.346 -78.553993 
L 102.092 -78.553854 
L 102.838 -78.553743 
L 103.584 -78.553655 
L 104.33 -78.553585 
L 105.076 -78.55353 
L 105.822 -78.553486 
L 106.568 -78.553451 
L 107.314 -78.553423 
L 108.06 -78.553401 
L 108.806 -78.553383 
L 109.552 -78.553369 
L 110.298 -78.553358 
L 111.044 -78.55335 
L 111.79 -78.553343 
L 112.536 -78.553337 
L 113.282 -78.553333 
L 114.028 -78.553329 
L 114.774 -78.553326 
L 115.52 -78.553324 
L 116.266 -78.553322 
L 117.012 -78.553321 
L 117.758 -78.55332 
L 118.504 -78.553319 
L 119.25 -78.553318 
L 119.996 -78.553318 
L 120.742 -78.553317 
L 121.488 -78.553317 
L 122.234 -78.553317 
L 122.98 -78.553317 
L 123.726 -78.553316 
L 124.472 -78.553316 
L 125.218 -78.553316 
L 125.964 -78.553316 
L 126.71 -78.553316 
L 126.71 -78.553316 
L 126.71 -48.681469 
L 125.964 -49.726779 
L 125.218 -50.94313 
L 124.472 -52.335858 
L 123.726 -53.901382 
L 122.98 -55.625062 
L 122.234 -57.480125 
L 121.488 -59.428273 
L 120.742 -61.422255 
L 119.996 -63.41018 
L 119.25 -65.340798 
L 118.504 -67.168651 
L 117.758 -68.858025 
L 117.012 -70.385063 
L 116.266 -71.737938 
L 115.52 -72.915474 
L 114.774 -73.924844 
L 114.028 -74.778977 
L 113.282 -75.494147 
L 112.536 -76.088007 
L 111.79 -76.578164 
L 111.044 -76.981249 
L 110.298 -77.312416 
L 109.552 -77.585134 
L 108.806 -77.811198 
L 108.06 -78.000867 
L 107.314 -78.163081 
L 106.568 -78.305715 
L 105.822 -78.435845 
L 105.076 -78.560019 
L 104.33 -78.684534 
L 103.584 -78.815699 
L 102.838 -78.960107 
L 102.092 -79.124908 
L 101.346 -79.31808 
L 100.6 -79.548693 
L 99.854 -79.827166 
L 99.108 -80.16547 
L 98.362 -80.57726 
L 97.616 -81.077864 
L 96.87 -81.684052 
L 96.124 -82.413488 
L 95.378 -83.283754 
L 94.632 -84.310864 
L 93.886 -85.507246 
L 93.14 -86.87929 
L 92.394 -88.424761 
L 91.648 -90.130569 
L 90.902 -91.971527 
L 90.156 -93.910722 
L 89.41 -95.901846 
L 88.664 -97.893319 
L 87.918 -99.833506 
L 87.172 -101.675947 
L 86.426 -103.383508 
L 85.68 -104.93074 
L 84.934 -106.304281 
L 84.188 -107.50164 
L 83.442 -108.528966 
L 82.696 -109.398461 
L 81.95 -110.125914 
L 81.204 -110.728665 
L 80.458 -111.224099 
L 79.712 -111.628642 
L 78.966 -111.957191 
L 78.22 -112.222855 
L 77.474 -112.43691 
L 76.728 -112.608888 
L 75.982 -112.746745 
L 75.236 -112.857046 
L 74.49 -112.94517 
L 73.744 -113.015492 
L 72.998 -113.071557 
L 72.252 -113.11622 
L 71.506 -113.15178 
L 70.76 -113.180079 
L 70.014 -113.202591 
L 69.268 -113.220493 
L 68.522 -113.234727 
L 67.776 -113.246041 
L 67.03 -113.255034 
L 66.284 -113.262181 
L 65.538 -113.26786 
L 64.792 -113.272372 
L 64.046 -113.275958 
L 63.3 -113.278807 
L 62.554 -113.281071 
L 61.808 -113.28287 
L 61.062 -113.284299 
L 60.316 -113.285436 
L 59.57 -113.28634 
L 58.824 -113.287059 
L 58.078 -113.287632 
L 57.332 -113.288089 
L 56.586 -113.288455 
L 55.84 -113.288749 
L 55.094 -113.288986 
L 54.348 -113.28918 
L 53.602 -113.28934 
L 52.856 -113.289476 
L 52.11 -113.289594 
z
" id="mb0211e99ed" style="stroke:#ffffff;stroke-opacity:0.7;"/>
    </defs>
    <g clip-path="url(#p207fd2c5f8)">
     <use style="fill:#8c0800;fill-opacity:0.7;stroke:#ffffff;stroke-opacity:0.7;" x="0" xlink:href="#mb0211e99ed" y="144"/>
    </g>
   </g>
   <g id="line2d_10">
    <path clip-path="url(#p207fd2c5f8)" d="M 52.11 31.151994 
L 52.856 31.264562 
L 53.602 31.405231 
L 54.348 31.580683 
L 55.094 31.799011 
L 55.84 32.069898 
L 56.586 32.404785 
L 57.332 32.816946 
L 58.078 33.321432 
L 58.824 33.934784 
L 59.57 34.674428 
L 60.316 35.55763 
L 61.062 36.599942 
L 61.808 37.813114 
L 62.554 39.202609 
L 63.3 40.765018 
L 64.046 42.485895 
L 64.792 44.338671 
L 65.538 46.285218 
L 66.284 48.278389 
L 67.03 50.266307 
L 67.776 52.197635 
L 68.522 54.026736 
L 69.268 55.717653 
L 70.014 57.246257 
L 70.76 58.60044 
L 71.506 59.778765 
L 72.252 60.788159 
L 72.998 61.641324 
L 73.744 62.354304 
L 74.49 62.944505 
L 75.236 63.429244 
L 75.982 63.824801 
L 76.728 64.145885 
L 77.474 64.405403 
L 78.22 64.614434 
L 78.966 64.782331 
L 79.712 64.916885 
L 80.458 65.024526 
L 81.204 65.110512 
L 81.95 65.17912 
L 82.696 65.233813 
L 83.442 65.277382 
L 84.188 65.312067 
L 84.934 65.339669 
L 85.68 65.361625 
L 86.426 65.379085 
L 87.172 65.392967 
L 87.918 65.404002 
L 88.664 65.412772 
L 89.41 65.419741 
L 90.156 65.425279 
L 90.902 65.429679 
L 91.648 65.433176 
L 92.394 65.435953 
L 93.14 65.43816 
L 93.886 65.439913 
L 94.632 65.441305 
L 95.378 65.442411 
L 96.124 65.44329 
L 96.87 65.443988 
L 97.616 65.444543 
L 98.362 65.444983 
L 99.108 65.445333 
L 99.854 65.445611 
L 100.6 65.445832 
L 101.346 65.446007 
L 102.092 65.446146 
L 102.838 65.446257 
L 103.584 65.446345 
L 104.33 65.446415 
L 105.076 65.44647 
L 105.822 65.446514 
L 106.568 65.446549 
L 107.314 65.446577 
L 108.06 65.446599 
L 108.806 65.446617 
L 109.552 65.446631 
L 110.298 65.446642 
L 111.044 65.44665 
L 111.79 65.446657 
L 112.536 65.446663 
L 113.282 65.446667 
L 114.028 65.446671 
L 114.774 65.446674 
L 115.52 65.446676 
L 116.266 65.446678 
L 117.012 65.446679 
L 117.758 65.44668 
L 118.504 65.446681 
L 119.25 65.446682 
L 119.996 65.446682 
L 120.742 65.446683 
L 121.488 65.446683 
L 122.234 65.446683 
L 122.98 65.446683 
L 123.726 65.446684 
L 124.472 65.446684 
L 125.218 65.446684 
L 125.964 65.446684 
L 126.71 65.446684 
" style="fill:none;stroke:#333333;stroke-dasharray:1.5,2.475;stroke-dashoffset:0;stroke-width:1.5;"/>
   </g>
   <g id="line2d_11">
    <path clip-path="url(#p207fd2c5f8)" d="M 52.11 30.710406 
L 52.856 30.710524 
L 53.602 30.71066 
L 54.348 30.71082 
L 55.094 30.711014 
L 55.84 30.711251 
L 56.586 30.711545 
L 57.332 30.711911 
L 58.078 30.712368 
L 58.824 30.712941 
L 59.57 30.71366 
L 60.316 30.714564 
L 61.062 30.715701 
L 61.808 30.71713 
L 62.554 30.718929 
L 63.3 30.721193 
L 64.046 30.724042 
L 64.792 30.727628 
L 65.538 30.73214 
L 66.284 30.737819 
L 67.03 30.744966 
L 67.776 30.753959 
L 68.522 30.765273 
L 69.268 30.779507 
L 70.014 30.797409 
L 70.76 30.819921 
L 71.506 30.84822 
L 72.252 30.88378 
L 72.998 30.928443 
L 73.744 30.984508 
L 74.49 31.05483 
L 75.236 31.142954 
L 75.982 31.253255 
L 76.728 31.391112 
L 77.474 31.56309 
L 78.22 31.777145 
L 78.966 32.042809 
L 79.712 32.371358 
L 80.458 32.775901 
L 81.204 33.271335 
L 81.95 33.874086 
L 82.696 34.601539 
L 83.442 35.471034 
L 84.188 36.49836 
L 84.934 37.695719 
L 85.68 39.06926 
L 86.426 40.616492 
L 87.172 42.324053 
L 87.918 44.166494 
L 88.664 46.106681 
L 89.41 48.098154 
L 90.156 50.089278 
L 90.902 52.028473 
L 91.648 53.869431 
L 92.394 55.575239 
L 93.14 57.12071 
L 93.886 58.492754 
L 94.632 59.689136 
L 95.378 60.716246 
L 96.124 61.586512 
L 96.87 62.315948 
L 97.616 62.922136 
L 98.362 63.42274 
L 99.108 63.83453 
L 99.854 64.172834 
L 100.6 64.451307 
L 101.346 64.68192 
L 102.092 64.875092 
L 102.838 65.039893 
L 103.584 65.184301 
L 104.33 65.315466 
L 105.076 65.439981 
L 105.822 65.564155 
L 106.568 65.694285 
L 107.314 65.836919 
L 108.06 65.999133 
L 108.806 66.188802 
L 109.552 66.414866 
L 110.298 66.687584 
L 111.044 67.018751 
L 111.79 67.421836 
L 112.536 67.911993 
L 113.282 68.505853 
L 114.028 69.221023 
L 114.774 70.075156 
L 115.52 71.084526 
L 116.266 72.262062 
L 117.012 73.614937 
L 117.758 75.141975 
L 118.504 76.831349 
L 119.25 78.659202 
L 119.996 80.58982 
L 120.742 82.577745 
L 121.488 84.571727 
L 122.234 86.519875 
L 122.98 88.374938 
L 123.726 90.098618 
L 124.472 91.664142 
L 125.218 93.05687 
L 125.964 94.273221 
L 126.71 95.318531 
" style="fill:none;stroke:#333333;stroke-linecap:round;stroke-width:1.5;"/>
   </g>
   <g id="patch_3">
    <path d="M 48.38 101.92 
L 48.38 27.48 
" style="fill:none;stroke:#262626;stroke-linecap:square;stroke-linejoin:miter;stroke-width:0.8;"/>
   </g>
   <g id="patch_4">
    <path d="M 48.38 101.92 
L 130.44 101.92 
" style="fill:none;stroke:#262626;stroke-linecap:square;stroke-linejoin:miter;stroke-width:0.8;"/>
   </g>
   <g id="text_12">
    <!-- $\Delta$ area : 3.99 -->
    <defs>
     <path d="M 34.1875 63.1875 
L 14.15625 8.203125 
L 54.25 8.203125 
z
M 0.78125 0 
L 28.609375 72.90625 
L 39.796875 72.90625 
L 67.578125 0 
z
" id="DejaVuSans-394"/>
     <path id="ArialMT-20"/>
     <path d="M 40.4375 6.390625 
Q 35.546875 2.25 31.03125 0.53125 
Q 26.515625 -1.171875 21.34375 -1.171875 
Q 12.796875 -1.171875 8.203125 3 
Q 3.609375 7.171875 3.609375 13.671875 
Q 3.609375 17.484375 5.34375 20.625 
Q 7.078125 23.78125 9.890625 25.6875 
Q 12.703125 27.59375 16.21875 28.5625 
Q 18.796875 29.25 24.03125 29.890625 
Q 34.671875 31.15625 39.703125 32.90625 
Q 39.75 34.71875 39.75 35.203125 
Q 39.75 40.578125 37.25 42.78125 
Q 33.890625 45.75 27.25 45.75 
Q 21.046875 45.75 18.09375 43.578125 
Q 15.140625 41.40625 13.71875 35.890625 
L 5.125 37.0625 
Q 6.296875 42.578125 8.984375 45.96875 
Q 11.671875 49.359375 16.75 51.1875 
Q 21.828125 53.03125 28.515625 53.03125 
Q 35.15625 53.03125 39.296875 51.46875 
Q 43.453125 49.90625 45.40625 47.53125 
Q 47.359375 45.171875 48.140625 41.546875 
Q 48.578125 39.3125 48.578125 33.453125 
L 48.578125 21.734375 
Q 48.578125 9.46875 49.140625 6.21875 
Q 49.703125 2.984375 51.375 0 
L 42.1875 0 
Q 40.828125 2.734375 40.4375 6.390625 
z
M 39.703125 26.03125 
Q 34.90625 24.078125 25.34375 22.703125 
Q 19.921875 21.921875 17.671875 20.9375 
Q 15.4375 19.96875 14.203125 18.09375 
Q 12.984375 16.21875 12.984375 13.921875 
Q 12.984375 10.40625 15.640625 8.0625 
Q 18.3125 5.71875 23.4375 5.71875 
Q 28.515625 5.71875 32.46875 7.9375 
Q 36.421875 10.15625 38.28125 14.015625 
Q 39.703125 17 39.703125 22.796875 
z
" id="ArialMT-61"/>
     <path d="M 6.5 0 
L 6.5 51.859375 
L 14.40625 51.859375 
L 14.40625 44 
Q 17.4375 49.515625 20 51.265625 
Q 22.5625 53.03125 25.640625 53.03125 
Q 30.078125 53.03125 34.671875 50.203125 
L 31.640625 42.046875 
Q 28.421875 43.953125 25.203125 43.953125 
Q 22.3125 43.953125 20.015625 42.21875 
Q 17.71875 40.484375 16.75 37.40625 
Q 15.28125 32.71875 15.28125 27.15625 
L 15.28125 0 
z
" id="ArialMT-72"/>
     <path d="M 42.09375 16.703125 
L 51.171875 15.578125 
Q 49.03125 7.625 43.21875 3.21875 
Q 37.40625 -1.171875 28.375 -1.171875 
Q 17 -1.171875 10.328125 5.828125 
Q 3.65625 12.84375 3.65625 25.484375 
Q 3.65625 38.578125 10.390625 45.796875 
Q 17.140625 53.03125 27.875 53.03125 
Q 38.28125 53.03125 44.875 45.953125 
Q 51.46875 38.875 51.46875 26.03125 
Q 51.46875 25.25 51.421875 23.6875 
L 12.75 23.6875 
Q 13.234375 15.140625 17.578125 10.59375 
Q 21.921875 6.0625 28.421875 6.0625 
Q 33.25 6.0625 36.671875 8.59375 
Q 40.09375 11.140625 42.09375 16.703125 
z
M 13.234375 30.90625 
L 42.1875 30.90625 
Q 41.609375 37.453125 38.875 40.71875 
Q 34.671875 45.796875 27.984375 45.796875 
Q 21.921875 45.796875 17.796875 41.75 
Q 13.671875 37.703125 13.234375 30.90625 
z
" id="ArialMT-65"/>
     <path d="M 9.03125 41.84375 
L 9.03125 51.859375 
L 19.046875 51.859375 
L 19.046875 41.84375 
z
M 9.03125 0 
L 9.03125 10.015625 
L 19.046875 10.015625 
L 19.046875 0 
z
" id="ArialMT-3a"/>
     <path d="M 4.203125 18.890625 
L 12.984375 20.0625 
Q 14.5 12.59375 18.140625 9.296875 
Q 21.78125 6 27 6 
Q 33.203125 6 37.46875 10.296875 
Q 41.75 14.59375 41.75 20.953125 
Q 41.75 27 37.796875 30.921875 
Q 33.84375 34.859375 27.734375 34.859375 
Q 25.25 34.859375 21.53125 33.890625 
L 22.515625 41.609375 
Q 23.390625 41.5 23.921875 41.5 
Q 29.546875 41.5 34.03125 44.421875 
Q 38.53125 47.359375 38.53125 53.46875 
Q 38.53125 58.296875 35.25 61.46875 
Q 31.984375 64.65625 26.8125 64.65625 
Q 21.6875 64.65625 18.265625 61.421875 
Q 14.84375 58.203125 13.875 51.765625 
L 5.078125 53.328125 
Q 6.6875 62.15625 12.390625 67.015625 
Q 18.109375 71.875 26.609375 71.875 
Q 32.46875 71.875 37.390625 69.359375 
Q 42.328125 66.84375 44.9375 62.5 
Q 47.5625 58.15625 47.5625 53.265625 
Q 47.5625 48.640625 45.0625 44.828125 
Q 42.578125 41.015625 37.703125 38.765625 
Q 44.046875 37.3125 47.5625 32.6875 
Q 51.078125 28.078125 51.078125 21.140625 
Q 51.078125 11.765625 44.234375 5.25 
Q 37.40625 -1.265625 26.953125 -1.265625 
Q 17.53125 -1.265625 11.296875 4.34375 
Q 5.078125 9.96875 4.203125 18.890625 
z
" id="ArialMT-33"/>
     <path d="M 9.078125 0 
L 9.078125 10.015625 
L 19.09375 10.015625 
L 19.09375 0 
z
" id="ArialMT-2e"/>
     <path d="M 5.46875 16.546875 
L 13.921875 17.328125 
Q 14.984375 11.375 18.015625 8.6875 
Q 21.046875 6 25.78125 6 
Q 29.828125 6 32.875 7.859375 
Q 35.9375 9.71875 37.890625 12.8125 
Q 39.84375 15.921875 41.15625 21.1875 
Q 42.484375 26.46875 42.484375 31.9375 
Q 42.484375 32.515625 42.4375 33.6875 
Q 39.796875 29.5 35.234375 26.875 
Q 30.671875 24.265625 25.34375 24.265625 
Q 16.453125 24.265625 10.296875 30.703125 
Q 4.15625 37.15625 4.15625 47.703125 
Q 4.15625 58.59375 10.578125 65.234375 
Q 17 71.875 26.65625 71.875 
Q 33.640625 71.875 39.421875 68.109375 
Q 45.21875 64.359375 48.21875 57.390625 
Q 51.21875 50.4375 51.21875 37.25 
Q 51.21875 23.53125 48.234375 15.40625 
Q 45.265625 7.28125 39.375 3.03125 
Q 33.5 -1.21875 25.59375 -1.21875 
Q 17.1875 -1.21875 11.859375 3.4375 
Q 6.546875 8.109375 5.46875 16.546875 
z
M 41.453125 48.140625 
Q 41.453125 55.71875 37.421875 60.15625 
Q 33.40625 64.59375 27.734375 64.59375 
Q 21.875 64.59375 17.53125 59.8125 
Q 13.1875 55.03125 13.1875 47.40625 
Q 13.1875 40.578125 17.3125 36.296875 
Q 21.4375 32.03125 27.484375 32.03125 
Q 33.59375 32.03125 37.515625 36.296875 
Q 41.453125 40.578125 41.453125 48.140625 
z
" id="ArialMT-39"/>
    </defs>
    <g style="fill:#262626;" transform="translate(51.46 21.48)scale(0.132 -0.132)">
     <use transform="translate(0 0.09375)" xlink:href="#DejaVuSans-394"/>
     <use transform="translate(68.408203 0.09375)" xlink:href="#ArialMT-20"/>
     <use transform="translate(96.191406 0.09375)" xlink:href="#ArialMT-61"/>
     <use transform="translate(151.806641 0.09375)" xlink:href="#ArialMT-72"/>
     <use transform="translate(185.107422 0.09375)" xlink:href="#ArialMT-65"/>
     <use transform="translate(240.722656 0.09375)" xlink:href="#ArialMT-61"/>
     <use transform="translate(296.337891 0.09375)" xlink:href="#ArialMT-20"/>
     <use transform="translate(324.121094 0.09375)" xlink:href="#ArialMT-3a"/>
     <use transform="translate(351.904297 0.09375)" xlink:href="#ArialMT-20"/>
     <use transform="translate(379.6875 0.09375)" xlink:href="#ArialMT-33"/>
     <use transform="translate(435.302734 0.09375)" xlink:href="#ArialMT-2e"/>
     <use transform="translate(463.085938 0.09375)" xlink:href="#ArialMT-39"/>
     <use transform="translate(518.701172 0.09375)" xlink:href="#ArialMT-39"/>
    </g>
   </g>
  </g>
 </g>
 <defs>
  <clipPath id="p207fd2c5f8">
   <rect height="74.44" width="82.06" x="48.38" y="27.48"/>
  </clipPath>
 </defs>
</svg>
