<?xml version="1.0" encoding="utf-8" standalone="no"?>
<!DOCTYPE svg PUBLIC "-//W3C//DTD SVG 1.1//EN"
  "http://www.w3.org/Graphics/SVG/1.1/DTD/svg11.dtd">
<!-- Created with matplotlib (http://matplotlib.org/) -->
<svg height="216pt" version="1.1" viewBox="0 0 216 216" width="216pt" xmlns="http://www.w3.org/2000/svg" xmlns:xlink="http://www.w3.org/1999/xlink">
 <defs>
  <style type="text/css">
*{stroke-linecap:butt;stroke-linejoin:round;}
  </style>
 </defs>
 <g id="figure_1">
  <g id="patch_1">
   <path d="M 0 216 
L 216 216 
L 216 0 
L 0 0 
z
" style="fill:#ffffff;"/>
  </g>
  <g id="axes_1">
   <g id="patch_2">
    <path d="M 38.96 175.96 
L 203.52 175.96 
L 203.52 25.44 
L 38.96 25.44 
z
" style="fill:#ffffff;"/>
   </g>
   <g id="matplotlib.axis_1">
    <g id="xtick_1">
     <g id="line2d_1">
      <defs>
       <path d="M 0 0 
L 0 3.5 
" id="m28616b0785" style="stroke:#262626;stroke-width:0.8;"/>
      </defs>
      <g>
       <use style="fill:#262626;stroke:#262626;stroke-width:0.8;" x="46.44" xlink:href="#m28616b0785" y="175.96"/>
      </g>
     </g>
     <g id="text_1">
      <!-- 2 -->
      <defs>
       <path d="M 50.34375 8.453125 
L 50.34375 0 
L 3.03125 0 
Q 2.9375 3.171875 4.046875 6.109375 
Q 5.859375 10.9375 9.828125 15.625 
Q 13.8125 20.3125 21.34375 26.46875 
Q 33.015625 36.03125 37.109375 41.625 
Q 41.21875 47.21875 41.21875 52.203125 
Q 41.21875 57.421875 37.46875 61 
Q 33.734375 64.59375 27.734375 64.59375 
Q 21.390625 64.59375 17.578125 60.78125 
Q 13.765625 56.984375 13.71875 50.25 
L 4.6875 51.171875 
Q 5.609375 61.28125 11.65625 66.578125 
Q 17.71875 71.875 27.9375 71.875 
Q 38.234375 71.875 44.234375 66.15625 
Q 50.25 60.453125 50.25 52 
Q 50.25 47.703125 48.484375 43.546875 
Q 46.734375 39.40625 42.65625 34.8125 
Q 38.578125 30.21875 29.109375 22.21875 
Q 21.1875 15.578125 18.9375 13.203125 
Q 16.703125 10.84375 15.234375 8.453125 
z
" id="ArialMT-32"/>
      </defs>
      <g style="fill:#262626;" transform="translate(43.659531 190.117812)scale(0.1 -0.1)">
       <use xlink:href="#ArialMT-32"/>
      </g>
     </g>
    </g>
    <g id="xtick_2">
     <g id="line2d_2">
      <g>
       <use style="fill:#262626;stroke:#262626;stroke-width:0.8;" x="76.36" xlink:href="#m28616b0785" y="175.96"/>
      </g>
     </g>
     <g id="text_2">
      <!-- 4 -->
      <defs>
       <path d="M 32.328125 0 
L 32.328125 17.140625 
L 1.265625 17.140625 
L 1.265625 25.203125 
L 33.9375 71.578125 
L 41.109375 71.578125 
L 41.109375 25.203125 
L 50.78125 25.203125 
L 50.78125 17.140625 
L 41.109375 17.140625 
L 41.109375 0 
z
M 32.328125 25.203125 
L 32.328125 57.46875 
L 9.90625 25.203125 
z
" id="ArialMT-34"/>
      </defs>
      <g style="fill:#262626;" transform="translate(73.579531 190.117812)scale(0.1 -0.1)">
       <use xlink:href="#ArialMT-34"/>
      </g>
     </g>
    </g>
    <g id="xtick_3">
     <g id="line2d_3">
      <g>
       <use style="fill:#262626;stroke:#262626;stroke-width:0.8;" x="106.28" xlink:href="#m28616b0785" y="175.96"/>
      </g>
     </g>
     <g id="text_3">
      <!-- 6 -->
      <defs>
       <path d="M 49.75 54.046875 
L 41.015625 53.375 
Q 39.84375 58.546875 37.703125 60.890625 
Q 34.125 64.65625 28.90625 64.65625 
Q 24.703125 64.65625 21.53125 62.3125 
Q 17.390625 59.28125 14.984375 53.46875 
Q 12.59375 47.65625 12.5 36.921875 
Q 15.671875 41.75 20.265625 44.09375 
Q 24.859375 46.4375 29.890625 46.4375 
Q 38.671875 46.4375 44.84375 39.96875 
Q 51.03125 33.5 51.03125 23.25 
Q 51.03125 16.5 48.125 10.71875 
Q 45.21875 4.9375 40.140625 1.859375 
Q 35.0625 -1.21875 28.609375 -1.21875 
Q 17.625 -1.21875 10.6875 6.859375 
Q 3.765625 14.9375 3.765625 33.5 
Q 3.765625 54.25 11.421875 63.671875 
Q 18.109375 71.875 29.4375 71.875 
Q 37.890625 71.875 43.28125 67.140625 
Q 48.6875 62.40625 49.75 54.046875 
z
M 13.875 23.1875 
Q 13.875 18.65625 15.796875 14.5 
Q 17.71875 10.359375 21.1875 8.171875 
Q 24.65625 6 28.46875 6 
Q 34.03125 6 38.03125 10.484375 
Q 42.046875 14.984375 42.046875 22.703125 
Q 42.046875 30.125 38.078125 34.390625 
Q 34.125 38.671875 28.125 38.671875 
Q 22.171875 38.671875 18.015625 34.390625 
Q 13.875 30.125 13.875 23.1875 
z
" id="ArialMT-36"/>
      </defs>
      <g style="fill:#262626;" transform="translate(103.499531 190.117812)scale(0.1 -0.1)">
       <use xlink:href="#ArialMT-36"/>
      </g>
     </g>
    </g>
    <g id="xtick_4">
     <g id="line2d_4">
      <g>
       <use style="fill:#262626;stroke:#262626;stroke-width:0.8;" x="136.2" xlink:href="#m28616b0785" y="175.96"/>
      </g>
     </g>
     <g id="text_4">
      <!-- 8 -->
      <defs>
       <path d="M 17.671875 38.8125 
Q 12.203125 40.828125 9.5625 44.53125 
Q 6.9375 48.25 6.9375 53.421875 
Q 6.9375 61.234375 12.546875 66.546875 
Q 18.171875 71.875 27.484375 71.875 
Q 36.859375 71.875 42.578125 66.421875 
Q 48.296875 60.984375 48.296875 53.171875 
Q 48.296875 48.1875 45.671875 44.5 
Q 43.0625 40.828125 37.75 38.8125 
Q 44.34375 36.671875 47.78125 31.875 
Q 51.21875 27.09375 51.21875 20.453125 
Q 51.21875 11.28125 44.71875 5.03125 
Q 38.234375 -1.21875 27.640625 -1.21875 
Q 17.046875 -1.21875 10.546875 5.046875 
Q 4.046875 11.328125 4.046875 20.703125 
Q 4.046875 27.6875 7.59375 32.390625 
Q 11.140625 37.109375 17.671875 38.8125 
z
M 15.921875 53.71875 
Q 15.921875 48.640625 19.1875 45.40625 
Q 22.46875 42.1875 27.6875 42.1875 
Q 32.765625 42.1875 36.015625 45.375 
Q 39.265625 48.578125 39.265625 53.21875 
Q 39.265625 58.0625 35.90625 61.359375 
Q 32.5625 64.65625 27.59375 64.65625 
Q 22.5625 64.65625 19.234375 61.421875 
Q 15.921875 58.203125 15.921875 53.71875 
z
M 13.09375 20.65625 
Q 13.09375 16.890625 14.875 13.375 
Q 16.65625 9.859375 20.171875 7.921875 
Q 23.6875 6 27.734375 6 
Q 34.03125 6 38.125 10.046875 
Q 42.234375 14.109375 42.234375 20.359375 
Q 42.234375 26.703125 38.015625 30.859375 
Q 33.796875 35.015625 27.4375 35.015625 
Q 21.234375 35.015625 17.15625 30.90625 
Q 13.09375 26.8125 13.09375 20.65625 
z
" id="ArialMT-38"/>
      </defs>
      <g style="fill:#262626;" transform="translate(133.419531 190.117812)scale(0.1 -0.1)">
       <use xlink:href="#ArialMT-38"/>
      </g>
     </g>
    </g>
    <g id="xtick_5">
     <g id="line2d_5">
      <g>
       <use style="fill:#262626;stroke:#262626;stroke-width:0.8;" x="166.12" xlink:href="#m28616b0785" y="175.96"/>
      </g>
     </g>
     <g id="text_5">
      <!-- 10 -->
      <defs>
       <path d="M 37.25 0 
L 28.46875 0 
L 28.46875 56 
Q 25.296875 52.984375 20.140625 49.953125 
Q 14.984375 46.921875 10.890625 45.40625 
L 10.890625 53.90625 
Q 18.265625 57.375 23.78125 62.296875 
Q 29.296875 67.234375 31.59375 71.875 
L 37.25 71.875 
z
" id="ArialMT-31"/>
       <path d="M 4.15625 35.296875 
Q 4.15625 48 6.765625 55.734375 
Q 9.375 63.484375 14.515625 67.671875 
Q 19.671875 71.875 27.484375 71.875 
Q 33.25 71.875 37.59375 69.546875 
Q 41.9375 67.234375 44.765625 62.859375 
Q 47.609375 58.5 49.21875 52.21875 
Q 50.828125 45.953125 50.828125 35.296875 
Q 50.828125 22.703125 48.234375 14.96875 
Q 45.65625 7.234375 40.5 3 
Q 35.359375 -1.21875 27.484375 -1.21875 
Q 17.140625 -1.21875 11.234375 6.203125 
Q 4.15625 15.140625 4.15625 35.296875 
z
M 13.1875 35.296875 
Q 13.1875 17.671875 17.3125 11.828125 
Q 21.4375 6 27.484375 6 
Q 33.546875 6 37.671875 11.859375 
Q 41.796875 17.71875 41.796875 35.296875 
Q 41.796875 52.984375 37.671875 58.78125 
Q 33.546875 64.59375 27.390625 64.59375 
Q 21.34375 64.59375 17.71875 59.46875 
Q 13.1875 52.9375 13.1875 35.296875 
z
" id="ArialMT-30"/>
      </defs>
      <g style="fill:#262626;" transform="translate(160.559062 190.117812)scale(0.1 -0.1)">
       <use xlink:href="#ArialMT-31"/>
       <use x="55.615234" xlink:href="#ArialMT-30"/>
      </g>
     </g>
    </g>
    <g id="xtick_6">
     <g id="line2d_6">
      <g>
       <use style="fill:#262626;stroke:#262626;stroke-width:0.8;" x="196.04" xlink:href="#m28616b0785" y="175.96"/>
      </g>
     </g>
     <g id="text_6">
      <!-- 12 -->
      <g style="fill:#262626;" transform="translate(190.479062 190.117812)scale(0.1 -0.1)">
       <use xlink:href="#ArialMT-31"/>
       <use x="55.615234" xlink:href="#ArialMT-32"/>
      </g>
     </g>
    </g>
    <g id="text_7">
     <!-- pH -->
     <defs>
      <path d="M 6.59375 -19.875 
L 6.59375 51.859375 
L 14.59375 51.859375 
L 14.59375 45.125 
Q 17.4375 49.078125 21 51.046875 
Q 24.5625 53.03125 29.640625 53.03125 
Q 36.28125 53.03125 41.359375 49.609375 
Q 46.4375 46.1875 49.015625 39.953125 
Q 51.609375 33.734375 51.609375 26.3125 
Q 51.609375 18.359375 48.75 11.984375 
Q 45.90625 5.609375 40.453125 2.21875 
Q 35.015625 -1.171875 29 -1.171875 
Q 24.609375 -1.171875 21.109375 0.6875 
Q 17.625 2.546875 15.375 5.375 
L 15.375 -19.875 
z
M 14.546875 25.640625 
Q 14.546875 15.625 18.59375 10.84375 
Q 22.65625 6.0625 28.421875 6.0625 
Q 34.28125 6.0625 38.453125 11.015625 
Q 42.625 15.96875 42.625 26.375 
Q 42.625 36.28125 38.546875 41.203125 
Q 34.46875 46.140625 28.8125 46.140625 
Q 23.1875 46.140625 18.859375 40.890625 
Q 14.546875 35.640625 14.546875 25.640625 
z
" id="ArialMT-70"/>
      <path d="M 8.015625 0 
L 8.015625 71.578125 
L 17.484375 71.578125 
L 17.484375 42.1875 
L 54.6875 42.1875 
L 54.6875 71.578125 
L 64.15625 71.578125 
L 64.15625 0 
L 54.6875 0 
L 54.6875 33.734375 
L 17.484375 33.734375 
L 17.484375 0 
z
" id="ArialMT-48"/>
     </defs>
     <g style="fill:#262626;" transform="translate(114.848594 203.263125)scale(0.1 -0.1)">
      <use xlink:href="#ArialMT-70"/>
      <use x="55.615234" xlink:href="#ArialMT-48"/>
     </g>
    </g>
   </g>
   <g id="matplotlib.axis_2">
    <g id="ytick_1">
     <g id="line2d_7">
      <defs>
       <path d="M 0 0 
L -3.5 0 
" id="mbca67c18a3" style="stroke:#262626;stroke-width:0.8;"/>
      </defs>
      <g>
       <use style="fill:#262626;stroke:#262626;stroke-width:0.8;" x="38.96" xlink:href="#mbca67c18a3" y="128.131036"/>
      </g>
     </g>
     <g id="text_8">
      <!-- 0 -->
      <g style="fill:#262626;" transform="translate(26.399063 131.709943)scale(0.1 -0.1)">
       <use xlink:href="#ArialMT-30"/>
      </g>
     </g>
    </g>
    <g id="ytick_2">
     <g id="line2d_8">
      <g>
       <use style="fill:#262626;stroke:#262626;stroke-width:0.8;" x="38.96" xlink:href="#mbca67c18a3" y="54.116573"/>
      </g>
     </g>
     <g id="text_9">
      <!-- 1 -->
      <g style="fill:#262626;" transform="translate(26.399063 57.695479)scale(0.1 -0.1)">
       <use xlink:href="#ArialMT-31"/>
      </g>
     </g>
    </g>
    <g id="text_10">
     <!-- $\langle q_\mathsf{total} \rangle$ -->
     <defs>
      <path d="M 8.9375 31.34375 
L 22.703125 75.875 
L 31 75.875 
L 17.234375 31.34375 
L 31 -13.1875 
L 22.703125 -13.1875 
z
" id="DejaVuSans-27e8"/>
      <path d="M 41.703125 8.203125 
Q 38.09375 3.46875 33.171875 1.015625 
Q 28.265625 -1.421875 22.3125 -1.421875 
Q 14.015625 -1.421875 9.296875 4.171875 
Q 4.59375 9.765625 4.59375 19.578125 
Q 4.59375 27.484375 7.5 34.859375 
Q 10.40625 42.234375 15.828125 48.09375 
Q 19.34375 51.90625 23.90625 53.953125 
Q 28.46875 56 33.5 56 
Q 39.546875 56 43.453125 53.609375 
Q 47.359375 51.21875 49.125 46.390625 
L 50.6875 54.59375 
L 59.71875 54.59375 
L 45.125 -20.609375 
L 36.078125 -20.609375 
z
M 13.921875 20.90625 
Q 13.921875 13.671875 16.9375 9.890625 
Q 19.96875 6.109375 25.6875 6.109375 
Q 34.1875 6.109375 40.1875 14.234375 
Q 46.1875 22.359375 46.1875 33.984375 
Q 46.1875 41.015625 43.078125 44.75 
Q 39.984375 48.484375 34.1875 48.484375 
Q 29.9375 48.484375 26.3125 46.5 
Q 22.703125 44.53125 20.015625 40.71875 
Q 17.1875 36.71875 15.546875 31.34375 
Q 13.921875 25.984375 13.921875 20.90625 
z
" id="DejaVuSans-Oblique-71"/>
      <path d="M 18.3125 70.21875 
L 18.3125 54.6875 
L 36.8125 54.6875 
L 36.8125 47.703125 
L 18.3125 47.703125 
L 18.3125 18.015625 
Q 18.3125 11.328125 20.140625 9.421875 
Q 21.96875 7.515625 27.59375 7.515625 
L 36.8125 7.515625 
L 36.8125 0 
L 27.59375 0 
Q 17.1875 0 13.234375 3.875 
Q 9.28125 7.765625 9.28125 18.015625 
L 9.28125 47.703125 
L 2.6875 47.703125 
L 2.6875 54.6875 
L 9.28125 54.6875 
L 9.28125 70.21875 
z
" id="DejaVuSans-74"/>
      <path d="M 30.609375 48.390625 
Q 23.390625 48.390625 19.1875 42.75 
Q 14.984375 37.109375 14.984375 27.296875 
Q 14.984375 17.484375 19.15625 11.84375 
Q 23.34375 6.203125 30.609375 6.203125 
Q 37.796875 6.203125 41.984375 11.859375 
Q 46.1875 17.53125 46.1875 27.296875 
Q 46.1875 37.015625 41.984375 42.703125 
Q 37.796875 48.390625 30.609375 48.390625 
z
M 30.609375 56 
Q 42.328125 56 49.015625 48.375 
Q 55.71875 40.765625 55.71875 27.296875 
Q 55.71875 13.875 49.015625 6.21875 
Q 42.328125 -1.421875 30.609375 -1.421875 
Q 18.84375 -1.421875 12.171875 6.21875 
Q 5.515625 13.875 5.515625 27.296875 
Q 5.515625 40.765625 12.171875 48.375 
Q 18.84375 56 30.609375 56 
z
" id="DejaVuSans-6f"/>
      <path d="M 34.28125 27.484375 
Q 23.390625 27.484375 19.1875 25 
Q 14.984375 22.515625 14.984375 16.5 
Q 14.984375 11.71875 18.140625 8.90625 
Q 21.296875 6.109375 26.703125 6.109375 
Q 34.1875 6.109375 38.703125 11.40625 
Q 43.21875 16.703125 43.21875 25.484375 
L 43.21875 27.484375 
z
M 52.203125 31.203125 
L 52.203125 0 
L 43.21875 0 
L 43.21875 8.296875 
Q 40.140625 3.328125 35.546875 0.953125 
Q 30.953125 -1.421875 24.3125 -1.421875 
Q 15.921875 -1.421875 10.953125 3.296875 
Q 6 8.015625 6 15.921875 
Q 6 25.140625 12.171875 29.828125 
Q 18.359375 34.515625 30.609375 34.515625 
L 43.21875 34.515625 
L 43.21875 35.40625 
Q 43.21875 41.609375 39.140625 45 
Q 35.0625 48.390625 27.6875 48.390625 
Q 23 48.390625 18.546875 47.265625 
Q 14.109375 46.140625 10.015625 43.890625 
L 10.015625 52.203125 
Q 14.9375 54.109375 19.578125 55.046875 
Q 24.21875 56 28.609375 56 
Q 40.484375 56 46.34375 49.84375 
Q 52.203125 43.703125 52.203125 31.203125 
z
" id="DejaVuSans-61"/>
      <path d="M 9.421875 75.984375 
L 18.40625 75.984375 
L 18.40625 0 
L 9.421875 0 
z
" id="DejaVuSans-6c"/>
      <path d="M 30.078125 31.34375 
L 16.3125 -13.1875 
L 8.015625 -13.1875 
L 21.78125 31.34375 
L 8.015625 75.875 
L 16.3125 75.875 
z
" id="DejaVuSans-27e9"/>
     </defs>
     <g style="fill:#262626;" transform="translate(20.299063 115.95)rotate(-90)scale(0.1 -0.1)">
      <use transform="translate(0 0.125)" xlink:href="#DejaVuSans-27e8"/>
      <use transform="translate(39.013672 0.125)" xlink:href="#DejaVuSans-Oblique-71"/>
      <use transform="translate(102.490234 -16.28125)scale(0.7)" xlink:href="#DejaVuSans-74"/>
      <use transform="translate(129.936523 -16.28125)scale(0.7)" xlink:href="#DejaVuSans-6f"/>
      <use transform="translate(172.763672 -16.28125)scale(0.7)" xlink:href="#DejaVuSans-74"/>
      <use transform="translate(200.209961 -16.28125)scale(0.7)" xlink:href="#DejaVuSans-61"/>
      <use transform="translate(243.105469 -16.28125)scale(0.7)" xlink:href="#DejaVuSans-6c"/>
      <use transform="translate(265.288086 0.125)" xlink:href="#DejaVuSans-27e9"/>
     </g>
    </g>
   </g>
   <g id="PolyCollection_1">
    <defs>
     <path d="M 46.44 -172.066407 
L 46.44 -151.609339 
L 47.936 -151.604649 
L 49.432 -151.588443 
L 50.928 -151.557137 
L 52.424 -151.505204 
L 53.92 -151.424725 
L 55.416 -151.304901 
L 56.912 -151.131621 
L 58.408 -150.887163 
L 59.904 -150.550204 
L 61.4 -150.096266 
L 62.896 -149.498697 
L 64.392 -148.730129 
L 65.888 -147.764192 
L 67.384 -146.577151 
L 68.88 -145.149129 
L 70.376 -143.46475 
L 71.872 -141.513191 
L 73.368 -139.287798 
L 74.864 -136.785464 
L 76.36 -134.00593 
L 77.856 -130.951213 
L 79.352 -127.62531 
L 80.848 -124.034391 
L 82.344 -120.187683 
L 83.84 -116.099234 
L 85.336 -111.790619 
L 86.832 -107.294434 
L 88.328 -102.658062 
L 89.824 -97.946793 
L 91.32 -93.245092 
L 92.816 -88.654786 
L 94.312 -84.289479 
L 95.808 -80.265437 
L 97.304 -76.690387 
L 98.8 -73.652475 
L 100.296 -71.211687 
L 101.792 -69.395348 
L 103.288 -68.198107 
L 104.784 -67.585714 
L 106.28 -67.501229 
L 107.776 -67.872187 
L 109.272 -68.617474 
L 110.768 -69.653126 
L 112.264 -70.896634 
L 113.76 -72.269698 
L 115.256 -73.699553 
L 116.752 -75.119168 
L 118.248 -76.466745 
L 119.744 -77.685188 
L 121.24 -78.722654 
L 122.736 -79.535703 
L 124.232 -80.096124 
L 125.728 -80.399637 
L 127.224 -80.47034 
L 128.72 -80.355017 
L 130.216 -80.109362 
L 131.712 -79.784637 
L 133.208 -79.42055 
L 134.704 -79.044097 
L 136.2 -78.671491 
L 137.696 -78.310882 
L 139.192 -77.964806 
L 140.688 -77.632078 
L 142.184 -77.309169 
L 143.68 -76.991203 
L 145.176 -76.672673 
L 146.672 -76.347951 
L 148.168 -76.011623 
L 149.664 -75.658674 
L 151.16 -75.284534 
L 152.656 -74.885045 
L 154.152 -74.456386 
L 155.648 -73.995025 
L 157.144 -73.497731 
L 158.64 -72.961654 
L 160.136 -72.384448 
L 161.632 -71.764389 
L 163.128 -71.100449 
L 164.624 -70.392297 
L 166.12 -69.640212 
L 167.616 -68.844954 
L 169.112 -68.007598 
L 170.608 -67.129397 
L 172.104 -66.211674 
L 173.6 -65.255731 
L 175.096 -64.262764 
L 176.592 -63.233766 
L 178.088 -62.169461 
L 179.584 -61.070274 
L 181.08 -59.936397 
L 182.576 -58.767926 
L 184.072 -57.565063 
L 185.568 -56.328328 
L 187.064 -55.058752 
L 188.56 -53.757998 
L 190.056 -52.428373 
L 191.552 -51.072733 
L 193.048 -49.694274 
L 194.544 -48.296275 
L 196.04 -46.881818 
L 196.04 -128.308323 
L 196.04 -128.308323 
L 194.544 -127.00621 
L 193.048 -125.697574 
L 191.552 -124.390179 
L 190.056 -123.09104 
L 188.56 -121.806333 
L 187.064 -120.541285 
L 185.568 -119.300093 
L 184.072 -118.085922 
L 182.576 -116.901002 
L 181.08 -115.746806 
L 179.584 -114.624292 
L 178.088 -113.534162 
L 176.592 -112.477087 
L 175.096 -111.45388 
L 173.6 -110.465569 
L 172.104 -109.513398 
L 170.608 -108.598762 
L 169.112 -107.723129 
L 167.616 -106.887957 
L 166.12 -106.094616 
L 164.624 -105.344284 
L 163.128 -104.637811 
L 161.632 -103.97557 
L 160.136 -103.357317 
L 158.64 -102.782122 
L 157.144 -102.248367 
L 155.648 -101.75383 
L 154.152 -101.295808 
L 152.656 -100.871247 
L 151.16 -100.476834 
L 149.664 -100.109018 
L 148.168 -99.763977 
L 146.672 -99.437562 
L 145.176 -99.125285 
L 143.68 -98.822391 
L 142.184 -98.524085 
L 140.688 -98.225903 
L 139.192 -97.924279 
L 137.696 -97.617332 
L 136.2 -97.305945 
L 134.704 -96.995253 
L 133.208 -96.696667 
L 131.712 -96.430487 
L 130.216 -96.228832 
L 128.72 -96.137819 
L 127.224 -96.216716 
L 125.728 -96.531199 
L 124.232 -97.140464 
L 122.736 -98.083997 
L 121.24 -99.376516 
L 119.744 -101.013144 
L 118.248 -102.978913 
L 116.752 -105.25644 
L 115.256 -107.829889 
L 113.76 -110.686196 
L 112.264 -113.81488 
L 110.768 -117.207298 
L 109.272 -120.85563 
L 107.776 -124.751622 
L 106.28 -128.884898 
L 104.784 -133.240642 
L 103.288 -137.79651 
L 101.792 -142.518913 
L 100.296 -147.359165 
L 98.8 -152.250476 
L 97.304 -157.107053 
L 95.808 -161.826503 
L 94.312 -166.296124 
L 92.816 -170.402591 
L 91.32 -174.043366 
L 89.824 -177.137495 
L 88.328 -179.633478 
L 86.832 -181.512829 
L 85.336 -182.789143 
L 83.84 -183.503573 
L 82.344 -183.718182 
L 80.848 -183.508624 
L 79.352 -182.957299 
L 77.856 -182.147604 
L 76.36 -181.159509 
L 74.864 -180.066404 
L 73.368 -178.933004 
L 71.872 -177.814069 
L 70.376 -176.753722 
L 68.88 -175.785182 
L 67.384 -174.930847 
L 65.888 -174.202743 
L 64.392 -173.603418 
L 62.896 -173.127373 
L 61.4 -172.762998 
L 59.904 -172.494823 
L 58.408 -172.305757 
L 56.912 -172.178989 
L 55.416 -172.09933 
L 53.92 -172.053961 
L 52.424 -172.03268 
L 50.928 -172.027812 
L 49.432 -172.033918 
L 47.936 -172.047453 
L 46.44 -172.066407 
z
" id="ma50a4fd1b7" style="stroke:#ffffff;stroke-opacity:0.05;"/>
    </defs>
    <g clip-path="url(#p210e3f477e)">
     <use style="fill:#591e71;fill-opacity:0.05;stroke:#ffffff;stroke-opacity:0.05;" x="0" xlink:href="#ma50a4fd1b7" y="216"/>
    </g>
   </g>
   <g id="line2d_9">
    <path clip-path="url(#p210e3f477e)" d="M 46.44 54.162127 
L 47.936 54.173949 
L 49.432 54.188819 
L 50.928 54.207526 
L 52.424 54.231058 
L 53.92 54.260657 
L 55.416 54.297885 
L 56.912 54.344695 
L 58.408 54.40354 
L 59.904 54.477486 
L 61.4 54.570368 
L 62.896 54.686965 
L 64.392 54.833227 
L 65.888 55.016533 
L 67.384 55.246001 
L 68.88 55.532844 
L 70.376 55.890764 
L 71.872 56.33637 
L 73.368 56.889599 
L 74.864 57.574066 
L 76.36 58.41728 
L 77.856 59.450592 
L 79.352 60.708696 
L 80.848 62.228493 
L 82.344 64.047068 
L 83.84 66.198596 
L 85.336 68.710119 
L 86.832 71.596368 
L 88.328 74.85423 
L 89.824 78.457856 
L 91.32 82.355771 
L 92.816 86.471312 
L 94.312 90.707198 
L 95.808 94.95403 
L 97.304 99.10128 
L 98.8 103.048524 
L 100.296 106.714574 
L 101.792 110.04287 
L 103.288 113.002691 
L 104.784 115.586822 
L 106.28 117.806936 
L 107.776 119.688096 
L 109.272 121.263448 
L 110.768 122.569788 
L 112.264 123.644243 
L 113.76 124.522053 
L 115.256 125.235279 
L 116.752 125.812196 
L 118.248 126.277171 
L 119.744 126.650834 
L 121.24 126.950415 
L 122.736 127.19015 
L 124.232 127.381706 
L 125.728 127.534582 
L 127.224 127.656472 
L 128.72 127.753582 
L 130.216 127.830903 
L 131.712 127.892438 
L 133.208 127.941392 
L 134.704 127.980325 
L 136.2 128.011282 
L 137.696 128.035893 
L 139.192 128.055457 
L 140.688 128.07101 
L 142.184 128.083373 
L 143.68 128.093203 
L 145.176 128.101021 
L 146.672 128.107244 
L 148.168 128.1122 
L 149.664 128.116154 
L 151.16 128.119316 
L 152.656 128.121854 
L 154.152 128.123903 
L 155.648 128.125572 
L 157.144 128.126951 
L 158.64 128.128112 
L 160.136 128.129117 
L 161.632 128.130021 
L 163.128 128.13087 
L 164.624 128.13171 
L 166.12 128.132586 
L 167.616 128.133544 
L 169.112 128.134636 
L 170.608 128.13592 
L 172.104 128.137464 
L 173.6 128.13935 
L 175.096 128.141678 
L 176.592 128.144573 
L 178.088 128.148189 
L 179.584 128.152717 
L 181.08 128.158398 
L 182.576 128.165536 
L 184.072 128.174507 
L 185.568 128.18579 
L 187.064 128.199982 
L 188.56 128.217835 
L 190.056 128.240293 
L 191.552 128.268544 
L 193.048 128.304076 
L 194.544 128.348758 
L 196.04 128.40493 
" style="fill:none;opacity:0.9;stroke:#591e71;stroke-linecap:round;stroke-width:1.5;"/>
   </g>
   <g id="line2d_10">
    <path clip-path="url(#p210e3f477e)" d="M 46.44 54.12364 
L 47.936 54.12547 
L 49.432 54.127774 
L 50.928 54.130673 
L 52.424 54.134323 
L 53.92 54.138918 
L 55.416 54.144702 
L 56.912 54.151981 
L 58.408 54.161144 
L 59.904 54.172676 
L 61.4 54.187189 
L 62.896 54.205451 
L 64.392 54.228429 
L 65.888 54.257336 
L 67.384 54.293696 
L 68.88 54.33942 
L 70.376 54.396902 
L 71.872 54.469141 
L 73.368 54.559883 
L 74.864 54.673803 
L 76.36 54.816719 
L 77.856 54.995851 
L 79.352 55.220124 
L 80.848 55.500519 
L 82.344 55.850463 
L 83.84 56.286251 
L 85.336 56.827459 
L 86.832 57.497315 
L 88.328 58.322927 
L 89.824 59.335266 
L 91.32 60.568724 
L 92.816 62.060052 
L 94.312 63.84644 
L 95.808 65.962536 
L 97.304 68.436334 
L 98.8 71.284079 
L 100.296 74.504727 
L 101.792 78.074931 
L 103.288 81.945881 
L 104.784 86.043349 
L 106.28 90.271832 
L 107.776 94.522691 
L 109.272 98.684981 
L 110.768 102.656776 
L 112.264 106.354602 
L 113.76 109.719257 
L 115.256 112.717438 
L 116.752 115.33971 
L 118.248 117.596063 
L 119.744 119.510445 
L 121.24 121.115398 
L 122.736 122.447516 
L 124.232 123.544011 
L 125.728 124.44039 
L 127.224 125.169075 
L 128.72 125.758741 
L 130.216 126.234151 
L 131.712 126.616302 
L 133.208 126.922755 
L 134.704 127.168031 
L 136.2 127.364041 
L 137.696 127.520489 
L 139.192 127.645237 
L 140.688 127.744631 
L 142.184 127.823774 
L 143.68 127.88676 
L 145.176 127.936869 
L 146.672 127.976721 
L 148.168 128.008406 
L 149.664 128.033595 
L 151.16 128.053615 
L 152.656 128.069525 
L 154.152 128.082168 
L 155.648 128.092213 
L 157.144 128.100195 
L 158.64 128.106536 
L 160.136 128.111574 
L 161.632 128.115576 
L 163.128 128.118755 
L 164.624 128.121281 
L 166.12 128.123287 
L 167.616 128.124881 
L 169.112 128.126147 
L 170.608 128.127152 
L 172.104 128.127951 
L 173.6 128.128586 
L 175.096 128.12909 
L 176.592 128.12949 
L 178.088 128.129808 
L 179.584 128.130061 
L 181.08 128.130261 
L 182.576 128.130421 
L 184.072 128.130547 
L 185.568 128.130648 
L 187.064 128.130728 
L 188.56 128.130791 
L 190.056 128.130842 
L 191.552 128.130882 
L 193.048 128.130914 
L 194.544 128.130939 
L 196.04 128.130959 
" style="fill:none;opacity:0.7;stroke:#000000;stroke-linecap:round;stroke-width:1.5;"/>
   </g>
   <g id="line2d_11">
    <path clip-path="url(#p210e3f477e)" d="M 46.44 43.933593 
L 47.936 43.952547 
L 49.432 43.966082 
L 50.928 43.972188 
L 52.424 43.96732 
L 53.92 43.946039 
L 55.416 43.90067 
L 56.912 43.821011 
L 58.408 43.694243 
L 59.904 43.505177 
L 61.4 43.237002 
L 62.896 42.872627 
L 64.392 42.396582 
L 65.888 41.797257 
L 67.384 41.069153 
L 68.88 40.214818 
L 70.376 39.246278 
L 71.872 38.185931 
L 73.368 37.066996 
L 74.864 35.933596 
L 76.36 34.840491 
L 77.856 33.852396 
L 79.352 33.042701 
L 80.848 32.491376 
L 82.344 32.281818 
L 83.84 32.496427 
L 85.336 33.210857 
L 86.832 34.487171 
L 88.328 36.366522 
L 89.824 38.862505 
L 91.32 41.956634 
L 92.816 45.597409 
L 94.312 49.703876 
L 95.808 54.173497 
L 97.304 58.892947 
L 98.8 63.749524 
L 100.296 68.640835 
L 101.792 73.481087 
L 103.288 78.20349 
L 104.784 82.759358 
L 106.28 87.115102 
L 107.776 91.248378 
L 109.272 95.14437 
L 110.768 98.792702 
L 112.264 102.18512 
L 113.76 105.313804 
L 115.256 108.170111 
L 116.752 110.74356 
L 118.248 113.021087 
L 119.744 114.986856 
L 121.24 116.623484 
L 122.736 117.916003 
L 124.232 118.859536 
L 125.728 119.468801 
L 127.224 119.783284 
L 128.72 119.862181 
L 130.216 119.771168 
L 131.712 119.569513 
L 133.208 119.303333 
L 134.704 119.004747 
L 136.2 118.694055 
L 137.696 118.382668 
L 139.192 118.075721 
L 140.688 117.774097 
L 142.184 117.475915 
L 143.68 117.177609 
L 145.176 116.874715 
L 146.672 116.562438 
L 148.168 116.236023 
L 149.664 115.890982 
L 151.16 115.523166 
L 152.656 115.128753 
L 154.152 114.704192 
L 155.648 114.24617 
L 157.144 113.751633 
L 158.64 113.217878 
L 160.136 112.642683 
L 161.632 112.02443 
L 163.128 111.362189 
L 164.624 110.655716 
L 166.12 109.905384 
L 167.616 109.112043 
L 169.112 108.276871 
L 170.608 107.401238 
L 172.104 106.486602 
L 173.6 105.534431 
L 175.096 104.54612 
L 176.592 103.522913 
L 178.088 102.465838 
L 179.584 101.375708 
L 181.08 100.253194 
L 182.576 99.098998 
L 184.072 97.914078 
L 185.568 96.699907 
L 187.064 95.458715 
L 188.56 94.193667 
L 190.056 92.90896 
L 191.552 91.609821 
L 193.048 90.302426 
L 194.544 88.99379 
L 196.04 87.691677 
" style="fill:none;opacity:0.45;stroke:#591e71;stroke-dasharray:2.775,1.2;stroke-dashoffset:0;stroke-width:0.75;"/>
   </g>
   <g id="line2d_12">
    <path clip-path="url(#p210e3f477e)" d="M 46.44 64.390661 
L 47.936 64.395351 
L 49.432 64.411557 
L 50.928 64.442863 
L 52.424 64.494796 
L 53.92 64.575275 
L 55.416 64.695099 
L 56.912 64.868379 
L 58.408 65.112837 
L 59.904 65.449796 
L 61.4 65.903734 
L 62.896 66.501303 
L 64.392 67.269871 
L 65.888 68.235808 
L 67.384 69.422849 
L 68.88 70.850871 
L 70.376 72.53525 
L 71.872 74.486809 
L 73.368 76.712202 
L 74.864 79.214536 
L 76.36 81.99407 
L 77.856 85.048787 
L 79.352 88.37469 
L 80.848 91.965609 
L 82.344 95.812317 
L 83.84 99.900766 
L 85.336 104.209381 
L 86.832 108.705566 
L 88.328 113.341938 
L 89.824 118.053207 
L 91.32 122.754908 
L 92.816 127.345214 
L 94.312 131.710521 
L 95.808 135.734563 
L 97.304 139.309613 
L 98.8 142.347525 
L 100.296 144.788313 
L 101.792 146.604652 
L 103.288 147.801893 
L 104.784 148.414286 
L 106.28 148.498771 
L 107.776 148.127813 
L 109.272 147.382526 
L 110.768 146.346874 
L 112.264 145.103366 
L 113.76 143.730302 
L 115.256 142.300447 
L 116.752 140.880832 
L 118.248 139.533255 
L 119.744 138.314812 
L 121.24 137.277346 
L 122.736 136.464297 
L 124.232 135.903876 
L 125.728 135.600363 
L 127.224 135.52966 
L 128.72 135.644983 
L 130.216 135.890638 
L 131.712 136.215363 
L 133.208 136.57945 
L 134.704 136.955903 
L 136.2 137.328509 
L 137.696 137.689118 
L 139.192 138.035194 
L 140.688 138.367922 
L 142.184 138.690831 
L 143.68 139.008797 
L 145.176 139.327327 
L 146.672 139.652049 
L 148.168 139.988377 
L 149.664 140.341326 
L 151.16 140.715466 
L 152.656 141.114955 
L 154.152 141.543614 
L 155.648 142.004975 
L 157.144 142.502269 
L 158.64 143.038346 
L 160.136 143.615552 
L 161.632 144.235611 
L 163.128 144.899551 
L 164.624 145.607703 
L 166.12 146.359788 
L 167.616 147.155046 
L 169.112 147.992402 
L 170.608 148.870603 
L 172.104 149.788326 
L 173.6 150.744269 
L 175.096 151.737236 
L 176.592 152.766234 
L 178.088 153.830539 
L 179.584 154.929726 
L 181.08 156.063603 
L 182.576 157.232074 
L 184.072 158.434937 
L 185.568 159.671672 
L 187.064 160.941248 
L 188.56 162.242002 
L 190.056 163.571627 
L 191.552 164.927267 
L 193.048 166.305726 
L 194.544 167.703725 
L 196.04 169.118182 
" style="fill:none;opacity:0.45;stroke:#591e71;stroke-dasharray:2.775,1.2;stroke-dashoffset:0;stroke-width:0.75;"/>
   </g>
   <g id="patch_3">
    <path d="M 38.96 175.96 
L 38.96 25.44 
" style="fill:none;stroke:#262626;stroke-linecap:square;stroke-linejoin:miter;stroke-width:0.8;"/>
   </g>
   <g id="patch_4">
    <path d="M 38.96 175.96 
L 203.52 175.96 
" style="fill:none;stroke:#262626;stroke-linecap:square;stroke-linejoin:miter;stroke-width:0.8;"/>
   </g>
   <g id="text_11">
    <!-- Jaguar-macro SM04 -->
    <defs>
     <path d="M 2.875 20.3125 
L 11.421875 21.484375 
Q 11.765625 13.28125 14.5 10.25 
Q 17.234375 7.234375 22.078125 7.234375 
Q 25.640625 7.234375 28.21875 8.859375 
Q 30.8125 10.5 31.78125 13.296875 
Q 32.765625 16.109375 32.765625 22.265625 
L 32.765625 71.578125 
L 42.234375 71.578125 
L 42.234375 22.796875 
Q 42.234375 13.8125 40.0625 8.875 
Q 37.890625 3.953125 33.171875 1.359375 
Q 28.46875 -1.21875 22.125 -1.21875 
Q 12.703125 -1.21875 7.6875 4.203125 
Q 2.6875 9.625 2.875 20.3125 
z
" id="ArialMT-4a"/>
     <path d="M 40.4375 6.390625 
Q 35.546875 2.25 31.03125 0.53125 
Q 26.515625 -1.171875 21.34375 -1.171875 
Q 12.796875 -1.171875 8.203125 3 
Q 3.609375 7.171875 3.609375 13.671875 
Q 3.609375 17.484375 5.34375 20.625 
Q 7.078125 23.78125 9.890625 25.6875 
Q 12.703125 27.59375 16.21875 28.5625 
Q 18.796875 29.25 24.03125 29.890625 
Q 34.671875 31.15625 39.703125 32.90625 
Q 39.75 34.71875 39.75 35.203125 
Q 39.75 40.578125 37.25 42.78125 
Q 33.890625 45.75 27.25 45.75 
Q 21.046875 45.75 18.09375 43.578125 
Q 15.140625 41.40625 13.71875 35.890625 
L 5.125 37.0625 
Q 6.296875 42.578125 8.984375 45.96875 
Q 11.671875 49.359375 16.75 51.1875 
Q 21.828125 53.03125 28.515625 53.03125 
Q 35.15625 53.03125 39.296875 51.46875 
Q 43.453125 49.90625 45.40625 47.53125 
Q 47.359375 45.171875 48.140625 41.546875 
Q 48.578125 39.3125 48.578125 33.453125 
L 48.578125 21.734375 
Q 48.578125 9.46875 49.140625 6.21875 
Q 49.703125 2.984375 51.375 0 
L 42.1875 0 
Q 40.828125 2.734375 40.4375 6.390625 
z
M 39.703125 26.03125 
Q 34.90625 24.078125 25.34375 22.703125 
Q 19.921875 21.921875 17.671875 20.9375 
Q 15.4375 19.96875 14.203125 18.09375 
Q 12.984375 16.21875 12.984375 13.921875 
Q 12.984375 10.40625 15.640625 8.0625 
Q 18.3125 5.71875 23.4375 5.71875 
Q 28.515625 5.71875 32.46875 7.9375 
Q 36.421875 10.15625 38.28125 14.015625 
Q 39.703125 17 39.703125 22.796875 
z
" id="ArialMT-61"/>
     <path d="M 4.984375 -4.296875 
L 13.53125 -5.5625 
Q 14.0625 -9.515625 16.5 -11.328125 
Q 19.78125 -13.765625 25.4375 -13.765625 
Q 31.546875 -13.765625 34.859375 -11.328125 
Q 38.1875 -8.890625 39.359375 -4.5 
Q 40.046875 -1.8125 39.984375 6.78125 
Q 34.234375 0 25.640625 0 
Q 14.9375 0 9.078125 7.71875 
Q 3.21875 15.4375 3.21875 26.21875 
Q 3.21875 33.640625 5.90625 39.90625 
Q 8.59375 46.1875 13.6875 49.609375 
Q 18.796875 53.03125 25.6875 53.03125 
Q 34.859375 53.03125 40.828125 45.609375 
L 40.828125 51.859375 
L 48.921875 51.859375 
L 48.921875 7.03125 
Q 48.921875 -5.078125 46.453125 -10.125 
Q 44 -15.1875 38.640625 -18.109375 
Q 33.296875 -21.046875 25.484375 -21.046875 
Q 16.21875 -21.046875 10.5 -16.875 
Q 4.78125 -12.703125 4.984375 -4.296875 
z
M 12.25 26.859375 
Q 12.25 16.65625 16.296875 11.96875 
Q 20.359375 7.28125 26.46875 7.28125 
Q 32.515625 7.28125 36.609375 11.9375 
Q 40.71875 16.609375 40.71875 26.5625 
Q 40.71875 36.078125 36.5 40.90625 
Q 32.28125 45.75 26.3125 45.75 
Q 20.453125 45.75 16.34375 40.984375 
Q 12.25 36.234375 12.25 26.859375 
z
" id="ArialMT-67"/>
     <path d="M 40.578125 0 
L 40.578125 7.625 
Q 34.515625 -1.171875 24.125 -1.171875 
Q 19.53125 -1.171875 15.546875 0.578125 
Q 11.578125 2.34375 9.640625 5 
Q 7.71875 7.671875 6.9375 11.53125 
Q 6.390625 14.109375 6.390625 19.734375 
L 6.390625 51.859375 
L 15.1875 51.859375 
L 15.1875 23.09375 
Q 15.1875 16.21875 15.71875 13.8125 
Q 16.546875 10.359375 19.234375 8.375 
Q 21.921875 6.390625 25.875 6.390625 
Q 29.828125 6.390625 33.296875 8.421875 
Q 36.765625 10.453125 38.203125 13.9375 
Q 39.65625 17.4375 39.65625 24.078125 
L 39.65625 51.859375 
L 48.4375 51.859375 
L 48.4375 0 
z
" id="ArialMT-75"/>
     <path d="M 6.5 0 
L 6.5 51.859375 
L 14.40625 51.859375 
L 14.40625 44 
Q 17.4375 49.515625 20 51.265625 
Q 22.5625 53.03125 25.640625 53.03125 
Q 30.078125 53.03125 34.671875 50.203125 
L 31.640625 42.046875 
Q 28.421875 43.953125 25.203125 43.953125 
Q 22.3125 43.953125 20.015625 42.21875 
Q 17.71875 40.484375 16.75 37.40625 
Q 15.28125 32.71875 15.28125 27.15625 
L 15.28125 0 
z
" id="ArialMT-72"/>
     <path d="M 3.171875 21.484375 
L 3.171875 30.328125 
L 30.171875 30.328125 
L 30.171875 21.484375 
z
" id="ArialMT-2d"/>
     <path d="M 6.59375 0 
L 6.59375 51.859375 
L 14.453125 51.859375 
L 14.453125 44.578125 
Q 16.890625 48.390625 20.9375 50.703125 
Q 25 53.03125 30.171875 53.03125 
Q 35.9375 53.03125 39.625 50.640625 
Q 43.3125 48.25 44.828125 43.953125 
Q 50.984375 53.03125 60.84375 53.03125 
Q 68.5625 53.03125 72.703125 48.75 
Q 76.859375 44.484375 76.859375 35.59375 
L 76.859375 0 
L 68.109375 0 
L 68.109375 32.671875 
Q 68.109375 37.9375 67.25 40.25 
Q 66.40625 42.578125 64.15625 43.984375 
Q 61.921875 45.40625 58.890625 45.40625 
Q 53.421875 45.40625 49.796875 41.765625 
Q 46.1875 38.140625 46.1875 30.125 
L 46.1875 0 
L 37.40625 0 
L 37.40625 33.6875 
Q 37.40625 39.546875 35.25 42.46875 
Q 33.109375 45.40625 28.21875 45.40625 
Q 24.515625 45.40625 21.359375 43.453125 
Q 18.21875 41.5 16.796875 37.734375 
Q 15.375 33.984375 15.375 26.90625 
L 15.375 0 
z
" id="ArialMT-6d"/>
     <path d="M 40.4375 19 
L 49.078125 17.875 
Q 47.65625 8.9375 41.8125 3.875 
Q 35.984375 -1.171875 27.484375 -1.171875 
Q 16.84375 -1.171875 10.375 5.78125 
Q 3.90625 12.75 3.90625 25.734375 
Q 3.90625 34.125 6.6875 40.421875 
Q 9.46875 46.734375 15.15625 49.875 
Q 20.84375 53.03125 27.546875 53.03125 
Q 35.984375 53.03125 41.359375 48.75 
Q 46.734375 44.484375 48.25 36.625 
L 39.703125 35.296875 
Q 38.484375 40.53125 35.375 43.15625 
Q 32.28125 45.796875 27.875 45.796875 
Q 21.234375 45.796875 17.078125 41.03125 
Q 12.9375 36.28125 12.9375 25.984375 
Q 12.9375 15.53125 16.9375 10.796875 
Q 20.953125 6.0625 27.390625 6.0625 
Q 32.5625 6.0625 36.03125 9.234375 
Q 39.5 12.40625 40.4375 19 
z
" id="ArialMT-63"/>
     <path d="M 3.328125 25.921875 
Q 3.328125 40.328125 11.328125 47.265625 
Q 18.015625 53.03125 27.640625 53.03125 
Q 38.328125 53.03125 45.109375 46.015625 
Q 51.90625 39.015625 51.90625 26.65625 
Q 51.90625 16.65625 48.90625 10.90625 
Q 45.90625 5.171875 40.15625 2 
Q 34.421875 -1.171875 27.640625 -1.171875 
Q 16.75 -1.171875 10.03125 5.8125 
Q 3.328125 12.796875 3.328125 25.921875 
z
M 12.359375 25.921875 
Q 12.359375 15.96875 16.703125 11.015625 
Q 21.046875 6.0625 27.640625 6.0625 
Q 34.1875 6.0625 38.53125 11.03125 
Q 42.875 16.015625 42.875 26.21875 
Q 42.875 35.84375 38.5 40.796875 
Q 34.125 45.75 27.640625 45.75 
Q 21.046875 45.75 16.703125 40.8125 
Q 12.359375 35.890625 12.359375 25.921875 
z
" id="ArialMT-6f"/>
     <path id="ArialMT-20"/>
     <path d="M 4.5 23 
L 13.421875 23.78125 
Q 14.0625 18.40625 16.375 14.96875 
Q 18.703125 11.53125 23.578125 9.40625 
Q 28.46875 7.28125 34.578125 7.28125 
Q 39.984375 7.28125 44.140625 8.890625 
Q 48.296875 10.5 50.3125 13.296875 
Q 52.34375 16.109375 52.34375 19.4375 
Q 52.34375 22.796875 50.390625 25.3125 
Q 48.4375 27.828125 43.953125 29.546875 
Q 41.0625 30.671875 31.203125 33.03125 
Q 21.34375 35.40625 17.390625 37.5 
Q 12.25 40.1875 9.734375 44.15625 
Q 7.234375 48.140625 7.234375 53.078125 
Q 7.234375 58.5 10.296875 63.203125 
Q 13.375 67.921875 19.28125 70.359375 
Q 25.203125 72.796875 32.421875 72.796875 
Q 40.375 72.796875 46.453125 70.234375 
Q 52.546875 67.671875 55.8125 62.6875 
Q 59.078125 57.71875 59.328125 51.421875 
L 50.25 50.734375 
Q 49.515625 57.515625 45.28125 60.984375 
Q 41.0625 64.453125 32.8125 64.453125 
Q 24.21875 64.453125 20.28125 61.296875 
Q 16.359375 58.15625 16.359375 53.71875 
Q 16.359375 49.859375 19.140625 47.359375 
Q 21.875 44.875 33.421875 42.265625 
Q 44.96875 39.65625 49.265625 37.703125 
Q 55.515625 34.8125 58.484375 30.390625 
Q 61.46875 25.984375 61.46875 20.21875 
Q 61.46875 14.5 58.203125 9.4375 
Q 54.9375 4.390625 48.796875 1.578125 
Q 42.671875 -1.21875 35.015625 -1.21875 
Q 25.296875 -1.21875 18.71875 1.609375 
Q 12.15625 4.4375 8.421875 10.125 
Q 4.6875 15.828125 4.5 23 
z
" id="ArialMT-53"/>
     <path d="M 7.421875 0 
L 7.421875 71.578125 
L 21.6875 71.578125 
L 38.625 20.90625 
Q 40.96875 13.8125 42.046875 10.296875 
Q 43.265625 14.203125 45.84375 21.78125 
L 62.984375 71.578125 
L 75.734375 71.578125 
L 75.734375 0 
L 66.609375 0 
L 66.609375 59.90625 
L 45.796875 0 
L 37.25 0 
L 16.546875 60.9375 
L 16.546875 0 
z
" id="ArialMT-4d"/>
    </defs>
    <g style="fill:#262626;" transform="translate(66.889375 19.44)scale(0.12 -0.12)">
     <use xlink:href="#ArialMT-4a"/>
     <use x="50" xlink:href="#ArialMT-61"/>
     <use x="105.615234" xlink:href="#ArialMT-67"/>
     <use x="161.230469" xlink:href="#ArialMT-75"/>
     <use x="216.845703" xlink:href="#ArialMT-61"/>
     <use x="272.460938" xlink:href="#ArialMT-72"/>
     <use x="305.761719" xlink:href="#ArialMT-2d"/>
     <use x="339.0625" xlink:href="#ArialMT-6d"/>
     <use x="422.363281" xlink:href="#ArialMT-61"/>
     <use x="477.978516" xlink:href="#ArialMT-63"/>
     <use x="527.978516" xlink:href="#ArialMT-72"/>
     <use x="561.279297" xlink:href="#ArialMT-6f"/>
     <use x="616.894531" xlink:href="#ArialMT-20"/>
     <use x="644.677734" xlink:href="#ArialMT-53"/>
     <use x="711.376953" xlink:href="#ArialMT-4d"/>
     <use x="794.677734" xlink:href="#ArialMT-30"/>
     <use x="850.292969" xlink:href="#ArialMT-34"/>
    </g>
   </g>
  </g>
 </g>
 <defs>
  <clipPath id="p210e3f477e">
   <rect height="150.52" width="164.56" x="38.96" y="25.44"/>
  </clipPath>
 </defs>
</svg>
