<?xml version="1.0" encoding="utf-8" standalone="no"?>
<!DOCTYPE svg PUBLIC "-//W3C//DTD SVG 1.1//EN"
  "http://www.w3.org/Graphics/SVG/1.1/DTD/svg11.dtd">
<!-- Created with matplotlib (http://matplotlib.org/) -->
<svg height="144pt" version="1.1" viewBox="0 0 144 144" width="144pt" xmlns="http://www.w3.org/2000/svg" xmlns:xlink="http://www.w3.org/1999/xlink">
 <defs>
  <style type="text/css">
*{stroke-linecap:butt;stroke-linejoin:round;}
  </style>
 </defs>
 <g id="figure_1">
  <g id="patch_1">
   <path d="M 0 144 
L 144 144 
L 144 0 
L 0 0 
z
" style="fill:#ffffff;"/>
  </g>
  <g id="axes_1">
   <g id="patch_2">
    <path d="M 53.72 101.92 
L 130.44 101.92 
L 130.44 13.56 
L 53.72 13.56 
z
" style="fill:#ffffff;"/>
   </g>
   <g id="matplotlib.axis_1">
    <g id="xtick_1">
     <g id="line2d_1">
      <defs>
       <path d="M 0 0 
L 0 3.5 
" id="m9d13c4358e" style="stroke:#262626;stroke-width:0.8;"/>
      </defs>
      <g>
       <use style="fill:#262626;stroke:#262626;stroke-width:0.8;" x="57.207273" xlink:href="#m9d13c4358e" y="101.92"/>
      </g>
     </g>
     <g id="text_1">
      <!-- 2 -->
      <defs>
       <path d="M 50.34375 8.453125 
L 50.34375 0 
L 3.03125 0 
Q 2.9375 3.171875 4.046875 6.109375 
Q 5.859375 10.9375 9.828125 15.625 
Q 13.8125 20.3125 21.34375 26.46875 
Q 33.015625 36.03125 37.109375 41.625 
Q 41.21875 47.21875 41.21875 52.203125 
Q 41.21875 57.421875 37.46875 61 
Q 33.734375 64.59375 27.734375 64.59375 
Q 21.390625 64.59375 17.578125 60.78125 
Q 13.765625 56.984375 13.71875 50.25 
L 4.6875 51.171875 
Q 5.609375 61.28125 11.65625 66.578125 
Q 17.71875 71.875 27.9375 71.875 
Q 38.234375 71.875 44.234375 66.15625 
Q 50.25 60.453125 50.25 52 
Q 50.25 47.703125 48.484375 43.546875 
Q 46.734375 39.40625 42.65625 34.8125 
Q 38.578125 30.21875 29.109375 22.21875 
Q 21.1875 15.578125 18.9375 13.203125 
Q 16.703125 10.84375 15.234375 8.453125 
z
" id="ArialMT-32"/>
      </defs>
      <g style="fill:#262626;" transform="translate(54.148757 116.793594)scale(0.11 -0.11)">
       <use xlink:href="#ArialMT-32"/>
      </g>
     </g>
    </g>
    <g id="xtick_2">
     <g id="line2d_2">
      <g>
       <use style="fill:#262626;stroke:#262626;stroke-width:0.8;" x="71.156364" xlink:href="#m9d13c4358e" y="101.92"/>
      </g>
     </g>
     <g id="text_2">
      <!-- 4 -->
      <defs>
       <path d="M 32.328125 0 
L 32.328125 17.140625 
L 1.265625 17.140625 
L 1.265625 25.203125 
L 33.9375 71.578125 
L 41.109375 71.578125 
L 41.109375 25.203125 
L 50.78125 25.203125 
L 50.78125 17.140625 
L 41.109375 17.140625 
L 41.109375 0 
z
M 32.328125 25.203125 
L 32.328125 57.46875 
L 9.90625 25.203125 
z
" id="ArialMT-34"/>
      </defs>
      <g style="fill:#262626;" transform="translate(68.097848 116.793594)scale(0.11 -0.11)">
       <use xlink:href="#ArialMT-34"/>
      </g>
     </g>
    </g>
    <g id="xtick_3">
     <g id="line2d_3">
      <g>
       <use style="fill:#262626;stroke:#262626;stroke-width:0.8;" x="85.105455" xlink:href="#m9d13c4358e" y="101.92"/>
      </g>
     </g>
     <g id="text_3">
      <!-- 6 -->
      <defs>
       <path d="M 49.75 54.046875 
L 41.015625 53.375 
Q 39.84375 58.546875 37.703125 60.890625 
Q 34.125 64.65625 28.90625 64.65625 
Q 24.703125 64.65625 21.53125 62.3125 
Q 17.390625 59.28125 14.984375 53.46875 
Q 12.59375 47.65625 12.5 36.921875 
Q 15.671875 41.75 20.265625 44.09375 
Q 24.859375 46.4375 29.890625 46.4375 
Q 38.671875 46.4375 44.84375 39.96875 
Q 51.03125 33.5 51.03125 23.25 
Q 51.03125 16.5 48.125 10.71875 
Q 45.21875 4.9375 40.140625 1.859375 
Q 35.0625 -1.21875 28.609375 -1.21875 
Q 17.625 -1.21875 10.6875 6.859375 
Q 3.765625 14.9375 3.765625 33.5 
Q 3.765625 54.25 11.421875 63.671875 
Q 18.109375 71.875 29.4375 71.875 
Q 37.890625 71.875 43.28125 67.140625 
Q 48.6875 62.40625 49.75 54.046875 
z
M 13.875 23.1875 
Q 13.875 18.65625 15.796875 14.5 
Q 17.71875 10.359375 21.1875 8.171875 
Q 24.65625 6 28.46875 6 
Q 34.03125 6 38.03125 10.484375 
Q 42.046875 14.984375 42.046875 22.703125 
Q 42.046875 30.125 38.078125 34.390625 
Q 34.125 38.671875 28.125 38.671875 
Q 22.171875 38.671875 18.015625 34.390625 
Q 13.875 30.125 13.875 23.1875 
z
" id="ArialMT-36"/>
      </defs>
      <g style="fill:#262626;" transform="translate(82.046939 116.793594)scale(0.11 -0.11)">
       <use xlink:href="#ArialMT-36"/>
      </g>
     </g>
    </g>
    <g id="xtick_4">
     <g id="line2d_4">
      <g>
       <use style="fill:#262626;stroke:#262626;stroke-width:0.8;" x="99.054545" xlink:href="#m9d13c4358e" y="101.92"/>
      </g>
     </g>
     <g id="text_4">
      <!-- 8 -->
      <defs>
       <path d="M 17.671875 38.8125 
Q 12.203125 40.828125 9.5625 44.53125 
Q 6.9375 48.25 6.9375 53.421875 
Q 6.9375 61.234375 12.546875 66.546875 
Q 18.171875 71.875 27.484375 71.875 
Q 36.859375 71.875 42.578125 66.421875 
Q 48.296875 60.984375 48.296875 53.171875 
Q 48.296875 48.1875 45.671875 44.5 
Q 43.0625 40.828125 37.75 38.8125 
Q 44.34375 36.671875 47.78125 31.875 
Q 51.21875 27.09375 51.21875 20.453125 
Q 51.21875 11.28125 44.71875 5.03125 
Q 38.234375 -1.21875 27.640625 -1.21875 
Q 17.046875 -1.21875 10.546875 5.046875 
Q 4.046875 11.328125 4.046875 20.703125 
Q 4.046875 27.6875 7.59375 32.390625 
Q 11.140625 37.109375 17.671875 38.8125 
z
M 15.921875 53.71875 
Q 15.921875 48.640625 19.1875 45.40625 
Q 22.46875 42.1875 27.6875 42.1875 
Q 32.765625 42.1875 36.015625 45.375 
Q 39.265625 48.578125 39.265625 53.21875 
Q 39.265625 58.0625 35.90625 61.359375 
Q 32.5625 64.65625 27.59375 64.65625 
Q 22.5625 64.65625 19.234375 61.421875 
Q 15.921875 58.203125 15.921875 53.71875 
z
M 13.09375 20.65625 
Q 13.09375 16.890625 14.875 13.375 
Q 16.65625 9.859375 20.171875 7.921875 
Q 23.6875 6 27.734375 6 
Q 34.03125 6 38.125 10.046875 
Q 42.234375 14.109375 42.234375 20.359375 
Q 42.234375 26.703125 38.015625 30.859375 
Q 33.796875 35.015625 27.4375 35.015625 
Q 21.234375 35.015625 17.15625 30.90625 
Q 13.09375 26.8125 13.09375 20.65625 
z
" id="ArialMT-38"/>
      </defs>
      <g style="fill:#262626;" transform="translate(95.99603 116.793594)scale(0.11 -0.11)">
       <use xlink:href="#ArialMT-38"/>
      </g>
     </g>
    </g>
    <g id="xtick_5">
     <g id="line2d_5">
      <g>
       <use style="fill:#262626;stroke:#262626;stroke-width:0.8;" x="113.003636" xlink:href="#m9d13c4358e" y="101.92"/>
      </g>
     </g>
     <g id="text_5">
      <!-- 10 -->
      <defs>
       <path d="M 37.25 0 
L 28.46875 0 
L 28.46875 56 
Q 25.296875 52.984375 20.140625 49.953125 
Q 14.984375 46.921875 10.890625 45.40625 
L 10.890625 53.90625 
Q 18.265625 57.375 23.78125 62.296875 
Q 29.296875 67.234375 31.59375 71.875 
L 37.25 71.875 
z
" id="ArialMT-31"/>
       <path d="M 4.15625 35.296875 
Q 4.15625 48 6.765625 55.734375 
Q 9.375 63.484375 14.515625 67.671875 
Q 19.671875 71.875 27.484375 71.875 
Q 33.25 71.875 37.59375 69.546875 
Q 41.9375 67.234375 44.765625 62.859375 
Q 47.609375 58.5 49.21875 52.21875 
Q 50.828125 45.953125 50.828125 35.296875 
Q 50.828125 22.703125 48.234375 14.96875 
Q 45.65625 7.234375 40.5 3 
Q 35.359375 -1.21875 27.484375 -1.21875 
Q 17.140625 -1.21875 11.234375 6.203125 
Q 4.15625 15.140625 4.15625 35.296875 
z
M 13.1875 35.296875 
Q 13.1875 17.671875 17.3125 11.828125 
Q 21.4375 6 27.484375 6 
Q 33.546875 6 37.671875 11.859375 
Q 41.796875 17.71875 41.796875 35.296875 
Q 41.796875 52.984375 37.671875 58.78125 
Q 33.546875 64.59375 27.390625 64.59375 
Q 21.34375 64.59375 17.71875 59.46875 
Q 13.1875 52.9375 13.1875 35.296875 
z
" id="ArialMT-30"/>
      </defs>
      <g style="fill:#262626;" transform="translate(106.886605 116.793594)scale(0.11 -0.11)">
       <use xlink:href="#ArialMT-31"/>
       <use x="55.615234" xlink:href="#ArialMT-30"/>
      </g>
     </g>
    </g>
    <g id="xtick_6">
     <g id="line2d_6">
      <g>
       <use style="fill:#262626;stroke:#262626;stroke-width:0.8;" x="126.952727" xlink:href="#m9d13c4358e" y="101.92"/>
      </g>
     </g>
     <g id="text_6">
      <!-- 12 -->
      <g style="fill:#262626;" transform="translate(120.835696 116.793594)scale(0.11 -0.11)">
       <use xlink:href="#ArialMT-31"/>
       <use x="55.615234" xlink:href="#ArialMT-32"/>
      </g>
     </g>
    </g>
    <g id="text_7">
     <!-- pH -->
     <defs>
      <path d="M 6.59375 -19.875 
L 6.59375 51.859375 
L 14.59375 51.859375 
L 14.59375 45.125 
Q 17.4375 49.078125 21 51.046875 
Q 24.5625 53.03125 29.640625 53.03125 
Q 36.28125 53.03125 41.359375 49.609375 
Q 46.4375 46.1875 49.015625 39.953125 
Q 51.609375 33.734375 51.609375 26.3125 
Q 51.609375 18.359375 48.75 11.984375 
Q 45.90625 5.609375 40.453125 2.21875 
Q 35.015625 -1.171875 29 -1.171875 
Q 24.609375 -1.171875 21.109375 0.6875 
Q 17.625 2.546875 15.375 5.375 
L 15.375 -19.875 
z
M 14.546875 25.640625 
Q 14.546875 15.625 18.59375 10.84375 
Q 22.65625 6.0625 28.421875 6.0625 
Q 34.28125 6.0625 38.453125 11.015625 
Q 42.625 15.96875 42.625 26.375 
Q 42.625 36.28125 38.546875 41.203125 
Q 34.46875 46.140625 28.8125 46.140625 
Q 23.1875 46.140625 18.859375 40.890625 
Q 14.546875 35.640625 14.546875 25.640625 
z
" id="ArialMT-70"/>
      <path d="M 8.015625 0 
L 8.015625 71.578125 
L 17.484375 71.578125 
L 17.484375 42.1875 
L 54.6875 42.1875 
L 54.6875 71.578125 
L 64.15625 71.578125 
L 64.15625 0 
L 54.6875 0 
L 54.6875 33.734375 
L 17.484375 33.734375 
L 17.484375 0 
z
" id="ArialMT-48"/>
     </defs>
     <g style="fill:#262626;" transform="translate(85.049453 130.853437)scale(0.11 -0.11)">
      <use xlink:href="#ArialMT-70"/>
      <use x="55.615234" xlink:href="#ArialMT-48"/>
     </g>
    </g>
   </g>
   <g id="matplotlib.axis_2">
    <g id="ytick_1">
     <g id="line2d_7">
      <defs>
       <path d="M 0 0 
L -3.5 0 
" id="m0543e4a2fa" style="stroke:#262626;stroke-width:0.8;"/>
      </defs>
      <g>
       <use style="fill:#262626;stroke:#262626;stroke-width:0.8;" x="53.72" xlink:href="#m0543e4a2fa" y="92.73503"/>
      </g>
     </g>
     <g id="text_8">
      <!-- 0 -->
      <g style="fill:#262626;" transform="translate(40.602969 96.671827)scale(0.11 -0.11)">
       <use xlink:href="#ArialMT-30"/>
      </g>
     </g>
    </g>
    <g id="ytick_2">
     <g id="line2d_8">
      <g>
       <use style="fill:#262626;stroke:#262626;stroke-width:0.8;" x="53.72" xlink:href="#m0543e4a2fa" y="54.033353"/>
      </g>
     </g>
     <g id="text_9">
      <!-- 50 -->
      <defs>
       <path d="M 4.15625 18.75 
L 13.375 19.53125 
Q 14.40625 12.796875 18.140625 9.390625 
Q 21.875 6 27.15625 6 
Q 33.5 6 37.890625 10.78125 
Q 42.28125 15.578125 42.28125 23.484375 
Q 42.28125 31 38.0625 35.34375 
Q 33.84375 39.703125 27 39.703125 
Q 22.75 39.703125 19.328125 37.765625 
Q 15.921875 35.84375 13.96875 32.765625 
L 5.71875 33.84375 
L 12.640625 70.609375 
L 48.25 70.609375 
L 48.25 62.203125 
L 19.671875 62.203125 
L 15.828125 42.96875 
Q 22.265625 47.46875 29.34375 47.46875 
Q 38.71875 47.46875 45.15625 40.96875 
Q 51.609375 34.46875 51.609375 24.265625 
Q 51.609375 14.546875 45.953125 7.46875 
Q 39.0625 -1.21875 27.15625 -1.21875 
Q 17.390625 -1.21875 11.203125 4.25 
Q 5.03125 9.71875 4.15625 18.75 
z
" id="ArialMT-35"/>
      </defs>
      <g style="fill:#262626;" transform="translate(34.485938 57.97015)scale(0.11 -0.11)">
       <use xlink:href="#ArialMT-35"/>
       <use x="55.615234" xlink:href="#ArialMT-30"/>
      </g>
     </g>
    </g>
    <g id="ytick_3">
     <g id="line2d_9">
      <g>
       <use style="fill:#262626;stroke:#262626;stroke-width:0.8;" x="53.72" xlink:href="#m0543e4a2fa" y="15.331677"/>
      </g>
     </g>
     <g id="text_10">
      <!-- 100 -->
      <g style="fill:#262626;" transform="translate(28.368906 19.268474)scale(0.11 -0.11)">
       <use xlink:href="#ArialMT-31"/>
       <use x="55.615234" xlink:href="#ArialMT-30"/>
       <use x="111.230469" xlink:href="#ArialMT-30"/>
      </g>
     </g>
    </g>
    <g id="text_11">
     <!-- Free energy ($k_B T$) -->
     <defs>
      <path d="M 8.203125 0 
L 8.203125 71.578125 
L 56.5 71.578125 
L 56.5 63.140625 
L 17.671875 63.140625 
L 17.671875 40.96875 
L 51.265625 40.96875 
L 51.265625 32.515625 
L 17.671875 32.515625 
L 17.671875 0 
z
" id="ArialMT-46"/>
      <path d="M 6.5 0 
L 6.5 51.859375 
L 14.40625 51.859375 
L 14.40625 44 
Q 17.4375 49.515625 20 51.265625 
Q 22.5625 53.03125 25.640625 53.03125 
Q 30.078125 53.03125 34.671875 50.203125 
L 31.640625 42.046875 
Q 28.421875 43.953125 25.203125 43.953125 
Q 22.3125 43.953125 20.015625 42.21875 
Q 17.71875 40.484375 16.75 37.40625 
Q 15.28125 32.71875 15.28125 27.15625 
L 15.28125 0 
z
" id="ArialMT-72"/>
      <path d="M 42.09375 16.703125 
L 51.171875 15.578125 
Q 49.03125 7.625 43.21875 3.21875 
Q 37.40625 -1.171875 28.375 -1.171875 
Q 17 -1.171875 10.328125 5.828125 
Q 3.65625 12.84375 3.65625 25.484375 
Q 3.65625 38.578125 10.390625 45.796875 
Q 17.140625 53.03125 27.875 53.03125 
Q 38.28125 53.03125 44.875 45.953125 
Q 51.46875 38.875 51.46875 26.03125 
Q 51.46875 25.25 51.421875 23.6875 
L 12.75 23.6875 
Q 13.234375 15.140625 17.578125 10.59375 
Q 21.921875 6.0625 28.421875 6.0625 
Q 33.25 6.0625 36.671875 8.59375 
Q 40.09375 11.140625 42.09375 16.703125 
z
M 13.234375 30.90625 
L 42.1875 30.90625 
Q 41.609375 37.453125 38.875 40.71875 
Q 34.671875 45.796875 27.984375 45.796875 
Q 21.921875 45.796875 17.796875 41.75 
Q 13.671875 37.703125 13.234375 30.90625 
z
" id="ArialMT-65"/>
      <path id="ArialMT-20"/>
      <path d="M 6.59375 0 
L 6.59375 51.859375 
L 14.5 51.859375 
L 14.5 44.484375 
Q 20.21875 53.03125 31 53.03125 
Q 35.6875 53.03125 39.625 51.34375 
Q 43.5625 49.65625 45.515625 46.921875 
Q 47.46875 44.1875 48.25 40.4375 
Q 48.734375 37.984375 48.734375 31.890625 
L 48.734375 0 
L 39.9375 0 
L 39.9375 31.546875 
Q 39.9375 36.921875 38.90625 39.578125 
Q 37.890625 42.234375 35.28125 43.8125 
Q 32.671875 45.40625 29.15625 45.40625 
Q 23.53125 45.40625 19.453125 41.84375 
Q 15.375 38.28125 15.375 28.328125 
L 15.375 0 
z
" id="ArialMT-6e"/>
      <path d="M 4.984375 -4.296875 
L 13.53125 -5.5625 
Q 14.0625 -9.515625 16.5 -11.328125 
Q 19.78125 -13.765625 25.4375 -13.765625 
Q 31.546875 -13.765625 34.859375 -11.328125 
Q 38.1875 -8.890625 39.359375 -4.5 
Q 40.046875 -1.8125 39.984375 6.78125 
Q 34.234375 0 25.640625 0 
Q 14.9375 0 9.078125 7.71875 
Q 3.21875 15.4375 3.21875 26.21875 
Q 3.21875 33.640625 5.90625 39.90625 
Q 8.59375 46.1875 13.6875 49.609375 
Q 18.796875 53.03125 25.6875 53.03125 
Q 34.859375 53.03125 40.828125 45.609375 
L 40.828125 51.859375 
L 48.921875 51.859375 
L 48.921875 7.03125 
Q 48.921875 -5.078125 46.453125 -10.125 
Q 44 -15.1875 38.640625 -18.109375 
Q 33.296875 -21.046875 25.484375 -21.046875 
Q 16.21875 -21.046875 10.5 -16.875 
Q 4.78125 -12.703125 4.984375 -4.296875 
z
M 12.25 26.859375 
Q 12.25 16.65625 16.296875 11.96875 
Q 20.359375 7.28125 26.46875 7.28125 
Q 32.515625 7.28125 36.609375 11.9375 
Q 40.71875 16.609375 40.71875 26.5625 
Q 40.71875 36.078125 36.5 40.90625 
Q 32.28125 45.75 26.3125 45.75 
Q 20.453125 45.75 16.34375 40.984375 
Q 12.25 36.234375 12.25 26.859375 
z
" id="ArialMT-67"/>
      <path d="M 6.203125 -19.96875 
L 5.21875 -11.71875 
Q 8.109375 -12.5 10.25 -12.5 
Q 13.1875 -12.5 14.9375 -11.515625 
Q 16.703125 -10.546875 17.828125 -8.796875 
Q 18.65625 -7.46875 20.515625 -2.25 
Q 20.75 -1.515625 21.296875 -0.09375 
L 1.609375 51.859375 
L 11.078125 51.859375 
L 21.875 21.828125 
Q 23.96875 16.109375 25.640625 9.8125 
Q 27.15625 15.875 29.25 21.625 
L 40.328125 51.859375 
L 49.125 51.859375 
L 29.390625 -0.875 
Q 26.21875 -9.421875 24.46875 -12.640625 
Q 22.125 -17 19.09375 -19.015625 
Q 16.0625 -21.046875 11.859375 -21.046875 
Q 9.328125 -21.046875 6.203125 -19.96875 
z
" id="ArialMT-79"/>
      <path d="M 23.390625 -21.046875 
Q 16.109375 -11.859375 11.078125 0.4375 
Q 6.0625 12.75 6.0625 25.921875 
Q 6.0625 37.546875 9.8125 48.1875 
Q 14.203125 60.546875 23.390625 72.796875 
L 29.6875 72.796875 
Q 23.78125 62.640625 21.875 58.296875 
Q 18.890625 51.5625 17.1875 44.234375 
Q 15.09375 35.109375 15.09375 25.875 
Q 15.09375 2.390625 29.6875 -21.046875 
z
" id="ArialMT-28"/>
      <path d="M 18.3125 75.984375 
L 27.296875 75.984375 
L 18.703125 31.6875 
L 49.515625 54.6875 
L 61.1875 54.6875 
L 26.8125 28.515625 
L 51.90625 0 
L 41.015625 0 
L 17.671875 26.703125 
L 12.5 0 
L 3.515625 0 
z
" id="DejaVuSans-Oblique-6b"/>
      <path d="M 16.890625 72.90625 
L 42.09375 72.90625 
Q 52.34375 72.90625 57.421875 69.09375 
Q 62.5 65.28125 62.5 57.625 
Q 62.5 50.59375 58.125 45.484375 
Q 53.765625 40.375 46.6875 39.3125 
Q 52.734375 37.9375 55.765625 34.078125 
Q 58.796875 30.21875 58.796875 23.78125 
Q 58.796875 12.796875 50.65625 6.390625 
Q 42.53125 0 28.421875 0 
L 2.6875 0 
z
M 19.28125 34.8125 
L 14.109375 8.109375 
L 29.984375 8.109375 
Q 38.921875 8.109375 43.75 12.203125 
Q 48.578125 16.3125 48.578125 23.78125 
Q 48.578125 29.546875 45.375 32.171875 
Q 42.1875 34.8125 35.109375 34.8125 
z
M 25.09375 64.796875 
L 20.796875 42.828125 
L 35.5 42.828125 
Q 43.359375 42.828125 47.78125 46.234375 
Q 52.203125 49.65625 52.203125 55.71875 
Q 52.203125 60.453125 49.21875 62.625 
Q 46.234375 64.796875 39.703125 64.796875 
z
" id="DejaVuSans-Oblique-42"/>
      <path d="M 5.90625 72.90625 
L 67.578125 72.90625 
L 66.015625 64.59375 
L 39.984375 64.59375 
L 27.484375 0 
L 17.578125 0 
L 30.078125 64.59375 
L 4.296875 64.59375 
z
" id="DejaVuSans-Oblique-54"/>
      <path d="M 12.359375 -21.046875 
L 6.0625 -21.046875 
Q 20.65625 2.390625 20.65625 25.875 
Q 20.65625 35.0625 18.5625 44.09375 
Q 16.890625 51.421875 13.921875 58.15625 
Q 12.015625 62.546875 6.0625 72.796875 
L 12.359375 72.796875 
Q 21.53125 60.546875 25.921875 48.1875 
Q 29.6875 37.546875 29.6875 25.921875 
Q 29.6875 12.75 24.625 0.4375 
Q 19.578125 -11.859375 12.359375 -21.046875 
z
" id="ArialMT-29"/>
     </defs>
     <g style="fill:#262626;" transform="translate(21.948906 101.96)rotate(-90)scale(0.11 -0.11)">
      <use transform="translate(0 0.015625)" xlink:href="#ArialMT-46"/>
      <use transform="translate(61.083984 0.015625)" xlink:href="#ArialMT-72"/>
      <use transform="translate(94.384766 0.015625)" xlink:href="#ArialMT-65"/>
      <use transform="translate(150 0.015625)" xlink:href="#ArialMT-65"/>
      <use transform="translate(205.615234 0.015625)" xlink:href="#ArialMT-20"/>
      <use transform="translate(233.398438 0.015625)" xlink:href="#ArialMT-65"/>
      <use transform="translate(289.013672 0.015625)" xlink:href="#ArialMT-6e"/>
      <use transform="translate(344.628906 0.015625)" xlink:href="#ArialMT-65"/>
      <use transform="translate(400.244141 0.015625)" xlink:href="#ArialMT-72"/>
      <use transform="translate(433.544922 0.015625)" xlink:href="#ArialMT-67"/>
      <use transform="translate(489.160156 0.015625)" xlink:href="#ArialMT-79"/>
      <use transform="translate(539.160156 0.015625)" xlink:href="#ArialMT-20"/>
      <use transform="translate(566.943359 0.015625)" xlink:href="#ArialMT-28"/>
      <use transform="translate(600.244141 0.015625)" xlink:href="#DejaVuSans-Oblique-6b"/>
      <use transform="translate(658.154297 -16.390625)scale(0.7)" xlink:href="#DejaVuSans-Oblique-42"/>
      <use transform="translate(708.911133 0.015625)" xlink:href="#DejaVuSans-Oblique-54"/>
      <use transform="translate(769.995117 0.015625)" xlink:href="#ArialMT-29"/>
     </g>
    </g>
   </g>
   <g id="patch_3">
    <path d="M 53.72 101.92 
L 53.72 13.56 
" style="fill:none;stroke:#262626;stroke-linecap:square;stroke-linejoin:miter;stroke-width:0.8;"/>
   </g>
   <g id="patch_4">
    <path d="M 53.72 101.92 
L 130.44 101.92 
" style="fill:none;stroke:#262626;stroke-linecap:square;stroke-linejoin:miter;stroke-width:0.8;"/>
   </g>
   <g id="line2d_10">
    <path clip-path="url(#p80eaf418a2)" d="M 57.207273 71.044706 
L 57.904727 70.510022 
L 58.602182 69.975339 
L 59.299636 69.440656 
L 59.997091 68.905972 
L 60.694545 68.371289 
L 61.392 67.836605 
L 62.089455 67.301922 
L 62.786909 66.767238 
L 63.484364 66.232555 
L 64.181818 65.697872 
L 64.879273 65.163188 
L 65.576727 64.628505 
L 66.274182 64.093821 
L 66.971636 63.559138 
L 67.669091 63.024454 
L 68.366545 62.489771 
L 69.064 61.955088 
L 69.761455 61.420404 
L 70.458909 60.885721 
L 71.156364 60.351037 
L 71.853818 59.816354 
L 72.551273 59.281671 
L 73.248727 58.746987 
L 73.946182 58.212304 
L 74.643636 57.67762 
L 75.341091 57.142937 
L 76.038545 56.608253 
L 76.736 56.07357 
L 77.433455 55.538887 
L 78.130909 55.004203 
L 78.828364 54.46952 
L 79.525818 53.934836 
L 80.223273 53.400153 
L 80.920727 52.865469 
L 81.618182 52.330786 
L 82.315636 51.796103 
L 83.013091 51.261419 
L 83.710545 50.726736 
L 84.408 50.192052 
L 85.105455 49.657369 
L 85.802909 49.122686 
L 86.500364 48.588002 
L 87.197818 48.053319 
L 87.895273 47.518635 
L 88.592727 46.983952 
L 89.290182 46.449268 
L 89.987636 45.914585 
L 90.685091 45.379902 
L 91.382545 44.845218 
L 92.08 44.310535 
L 92.777455 43.775851 
L 93.474909 43.241168 
L 94.172364 42.706484 
L 94.869818 42.171801 
L 95.567273 41.637118 
L 96.264727 41.102434 
L 96.962182 40.567751 
L 97.659636 40.033067 
L 98.357091 39.498384 
L 99.054545 38.963701 
L 99.752 38.429017 
L 100.449455 37.894334 
L 101.146909 37.35965 
L 101.844364 36.824967 
L 102.541818 36.290283 
L 103.239273 35.7556 
L 103.936727 35.220917 
L 104.634182 34.686233 
L 105.331636 34.15155 
L 106.029091 33.616866 
L 106.726545 33.082183 
L 107.424 32.547499 
L 108.121455 32.012816 
L 108.818909 31.478133 
L 109.516364 30.943449 
L 110.213818 30.408766 
L 110.911273 29.874082 
L 111.608727 29.339399 
L 112.306182 28.804715 
L 113.003636 28.270032 
L 113.701091 27.735349 
L 114.398545 27.200665 
L 115.096 26.665982 
L 115.793455 26.131298 
L 116.490909 25.596615 
L 117.188364 25.061932 
L 117.885818 24.527248 
L 118.583273 23.992565 
L 119.280727 23.457881 
L 119.978182 22.923198 
L 120.675636 22.388514 
L 121.373091 21.853831 
L 122.070545 21.319148 
L 122.768 20.784464 
L 123.465455 20.249781 
L 124.162909 19.715097 
L 124.860364 19.180414 
L 125.557818 18.64573 
L 126.255273 18.111047 
L 126.952727 17.576364 
" style="fill:none;stroke:#2166ac;stroke-linecap:round;stroke-width:1.5;"/>
   </g>
   <g id="line2d_11">
    <path clip-path="url(#p80eaf418a2)" d="M 57.207273 79.08278 
L 57.904727 78.726324 
L 58.602182 78.369869 
L 59.299636 78.013413 
L 59.997091 77.656957 
L 60.694545 77.300502 
L 61.392 76.944046 
L 62.089455 76.587591 
L 62.786909 76.231135 
L 63.484364 75.874679 
L 64.181818 75.518224 
L 64.879273 75.161768 
L 65.576727 74.805313 
L 66.274182 74.448857 
L 66.971636 74.092401 
L 67.669091 73.735946 
L 68.366545 73.37949 
L 69.064 73.023034 
L 69.761455 72.666579 
L 70.458909 72.310123 
L 71.156364 71.953668 
L 71.853818 71.597212 
L 72.551273 71.240756 
L 73.248727 70.884301 
L 73.946182 70.527845 
L 74.643636 70.17139 
L 75.341091 69.814934 
L 76.038545 69.458478 
L 76.736 69.102023 
L 77.433455 68.745567 
L 78.130909 68.389111 
L 78.828364 68.032656 
L 79.525818 67.6762 
L 80.223273 67.319745 
L 80.920727 66.963289 
L 81.618182 66.606833 
L 82.315636 66.250378 
L 83.013091 65.893922 
L 83.710545 65.537467 
L 84.408 65.181011 
L 85.105455 64.824555 
L 85.802909 64.4681 
L 86.500364 64.111644 
L 87.197818 63.755188 
L 87.895273 63.398733 
L 88.592727 63.042277 
L 89.290182 62.685822 
L 89.987636 62.329366 
L 90.685091 61.97291 
L 91.382545 61.616455 
L 92.08 61.259999 
L 92.777455 60.903544 
L 93.474909 60.547088 
L 94.172364 60.190632 
L 94.869818 59.834177 
L 95.567273 59.477721 
L 96.264727 59.121266 
L 96.962182 58.76481 
L 97.659636 58.408354 
L 98.357091 58.051899 
L 99.054545 57.695443 
L 99.752 57.338987 
L 100.449455 56.982532 
L 101.146909 56.626076 
L 101.844364 56.269621 
L 102.541818 55.913165 
L 103.239273 55.556709 
L 103.936727 55.200254 
L 104.634182 54.843798 
L 105.331636 54.487343 
L 106.029091 54.130887 
L 106.726545 53.774431 
L 107.424 53.417976 
L 108.121455 53.06152 
L 108.818909 52.705064 
L 109.516364 52.348609 
L 110.213818 51.992153 
L 110.911273 51.635698 
L 111.608727 51.279242 
L 112.306182 50.922786 
L 113.003636 50.566331 
L 113.701091 50.209875 
L 114.398545 49.85342 
L 115.096 49.496964 
L 115.793455 49.140508 
L 116.490909 48.784053 
L 117.188364 48.427597 
L 117.885818 48.071141 
L 118.583273 47.714686 
L 119.280727 47.35823 
L 119.978182 47.001775 
L 120.675636 46.645319 
L 121.373091 46.288863 
L 122.070545 45.932408 
L 122.768 45.575952 
L 123.465455 45.219497 
L 124.162909 44.863041 
L 124.860364 44.506585 
L 125.557818 44.15013 
L 126.255273 43.793674 
L 126.952727 43.437218 
" style="fill:none;stroke:#4393c3;stroke-linecap:round;stroke-width:1.5;"/>
   </g>
   <g id="line2d_12">
    <path clip-path="url(#p80eaf418a2)" d="M 57.207273 89.045714 
L 57.904727 88.689259 
L 58.602182 88.332803 
L 59.299636 87.976347 
L 59.997091 87.619892 
L 60.694545 87.263436 
L 61.392 86.906981 
L 62.089455 86.550525 
L 62.786909 86.194069 
L 63.484364 85.837614 
L 64.181818 85.481158 
L 64.879273 85.124703 
L 65.576727 84.768247 
L 66.274182 84.411791 
L 66.971636 84.055336 
L 67.669091 83.69888 
L 68.366545 83.342425 
L 69.064 82.985969 
L 69.761455 82.629513 
L 70.458909 82.273058 
L 71.156364 81.916602 
L 71.853818 81.560146 
L 72.551273 81.203691 
L 73.248727 80.847235 
L 73.946182 80.49078 
L 74.643636 80.134324 
L 75.341091 79.777868 
L 76.038545 79.421413 
L 76.736 79.064957 
L 77.433455 78.708502 
L 78.130909 78.352046 
L 78.828364 77.99559 
L 79.525818 77.639135 
L 80.223273 77.282679 
L 80.920727 76.926223 
L 81.618182 76.569768 
L 82.315636 76.213312 
L 83.013091 75.856857 
L 83.710545 75.500401 
L 84.408 75.143945 
L 85.105455 74.78749 
L 85.802909 74.431034 
L 86.500364 74.074579 
L 87.197818 73.718123 
L 87.895273 73.361667 
L 88.592727 73.005212 
L 89.290182 72.648756 
L 89.987636 72.2923 
L 90.685091 71.935845 
L 91.382545 71.579389 
L 92.08 71.222934 
L 92.777455 70.866478 
L 93.474909 70.510022 
L 94.172364 70.153567 
L 94.869818 69.797111 
L 95.567273 69.440656 
L 96.264727 69.0842 
L 96.962182 68.727744 
L 97.659636 68.371289 
L 98.357091 68.014833 
L 99.054545 67.658377 
L 99.752 67.301922 
L 100.449455 66.945466 
L 101.146909 66.589011 
L 101.844364 66.232555 
L 102.541818 65.876099 
L 103.239273 65.519644 
L 103.936727 65.163188 
L 104.634182 64.806733 
L 105.331636 64.450277 
L 106.029091 64.093821 
L 106.726545 63.737366 
L 107.424 63.38091 
L 108.121455 63.024454 
L 108.818909 62.667999 
L 109.516364 62.311543 
L 110.213818 61.955088 
L 110.911273 61.598632 
L 111.608727 61.242176 
L 112.306182 60.885721 
L 113.003636 60.529265 
L 113.701091 60.17281 
L 114.398545 59.816354 
L 115.096 59.459898 
L 115.793455 59.103443 
L 116.490909 58.746987 
L 117.188364 58.390531 
L 117.885818 58.034076 
L 118.583273 57.67762 
L 119.280727 57.321165 
L 119.978182 56.964709 
L 120.675636 56.608253 
L 121.373091 56.251798 
L 122.070545 55.895342 
L 122.768 55.538887 
L 123.465455 55.182431 
L 124.162909 54.825975 
L 124.860364 54.46952 
L 125.557818 54.113064 
L 126.255273 53.756609 
L 126.952727 53.400153 
" style="fill:none;stroke:#4393c3;stroke-linecap:round;stroke-width:1.5;"/>
   </g>
   <g id="line2d_13">
    <path clip-path="url(#p80eaf418a2)" d="M 57.207273 73.611186 
L 57.904727 73.254731 
L 58.602182 72.898275 
L 59.299636 72.541819 
L 59.997091 72.185364 
L 60.694545 71.828908 
L 61.392 71.472453 
L 62.089455 71.115997 
L 62.786909 70.759541 
L 63.484364 70.403086 
L 64.181818 70.04663 
L 64.879273 69.690174 
L 65.576727 69.333719 
L 66.274182 68.977263 
L 66.971636 68.620808 
L 67.669091 68.264352 
L 68.366545 67.907896 
L 69.064 67.551441 
L 69.761455 67.194985 
L 70.458909 66.83853 
L 71.156364 66.482074 
L 71.853818 66.125618 
L 72.551273 65.769163 
L 73.248727 65.412707 
L 73.946182 65.056251 
L 74.643636 64.699796 
L 75.341091 64.34334 
L 76.038545 63.986885 
L 76.736 63.630429 
L 77.433455 63.273973 
L 78.130909 62.917518 
L 78.828364 62.561062 
L 79.525818 62.204607 
L 80.223273 61.848151 
L 80.920727 61.491695 
L 81.618182 61.13524 
L 82.315636 60.778784 
L 83.013091 60.422328 
L 83.710545 60.065873 
L 84.408 59.709417 
L 85.105455 59.352962 
L 85.802909 58.996506 
L 86.500364 58.64005 
L 87.197818 58.283595 
L 87.895273 57.927139 
L 88.592727 57.570684 
L 89.290182 57.214228 
L 89.987636 56.857772 
L 90.685091 56.501317 
L 91.382545 56.144861 
L 92.08 55.788406 
L 92.777455 55.43195 
L 93.474909 55.075494 
L 94.172364 54.719039 
L 94.869818 54.362583 
L 95.567273 54.006127 
L 96.264727 53.649672 
L 96.962182 53.293216 
L 97.659636 52.936761 
L 98.357091 52.580305 
L 99.054545 52.223849 
L 99.752 51.867394 
L 100.449455 51.510938 
L 101.146909 51.154483 
L 101.844364 50.798027 
L 102.541818 50.441571 
L 103.239273 50.085116 
L 103.936727 49.72866 
L 104.634182 49.372204 
L 105.331636 49.015749 
L 106.029091 48.659293 
L 106.726545 48.302838 
L 107.424 47.946382 
L 108.121455 47.589926 
L 108.818909 47.233471 
L 109.516364 46.877015 
L 110.213818 46.52056 
L 110.911273 46.164104 
L 111.608727 45.807648 
L 112.306182 45.451193 
L 113.003636 45.094737 
L 113.701091 44.738281 
L 114.398545 44.381826 
L 115.096 44.02537 
L 115.793455 43.668915 
L 116.490909 43.312459 
L 117.188364 42.956003 
L 117.885818 42.599548 
L 118.583273 42.243092 
L 119.280727 41.886637 
L 119.978182 41.530181 
L 120.675636 41.173725 
L 121.373091 40.81727 
L 122.070545 40.460814 
L 122.768 40.104358 
L 123.465455 39.747903 
L 124.162909 39.391447 
L 124.860364 39.034992 
L 125.557818 38.678536 
L 126.255273 38.32208 
L 126.952727 37.965625 
" style="fill:none;stroke:#4393c3;stroke-linecap:round;stroke-width:1.5;"/>
   </g>
   <g id="line2d_14">
    <path clip-path="url(#p80eaf418a2)" d="M 57.207273 70.581314 
L 57.904727 70.759541 
L 58.602182 70.937769 
L 59.299636 71.115997 
L 59.997091 71.294225 
L 60.694545 71.472453 
L 61.392 71.65068 
L 62.089455 71.828908 
L 62.786909 72.007136 
L 63.484364 72.185364 
L 64.181818 72.363592 
L 64.879273 72.541819 
L 65.576727 72.720047 
L 66.274182 72.898275 
L 66.971636 73.076503 
L 67.669091 73.254731 
L 68.366545 73.432958 
L 69.064 73.611186 
L 69.761455 73.789414 
L 70.458909 73.967642 
L 71.156364 74.14587 
L 71.853818 74.324097 
L 72.551273 74.502325 
L 73.248727 74.680553 
L 73.946182 74.858781 
L 74.643636 75.037009 
L 75.341091 75.215237 
L 76.038545 75.393464 
L 76.736 75.571692 
L 77.433455 75.74992 
L 78.130909 75.928148 
L 78.828364 76.106376 
L 79.525818 76.284603 
L 80.223273 76.462831 
L 80.920727 76.641059 
L 81.618182 76.819287 
L 82.315636 76.997515 
L 83.013091 77.175742 
L 83.710545 77.35397 
L 84.408 77.532198 
L 85.105455 77.710426 
L 85.802909 77.888654 
L 86.500364 78.066881 
L 87.197818 78.245109 
L 87.895273 78.423337 
L 88.592727 78.601565 
L 89.290182 78.779793 
L 89.987636 78.95802 
L 90.685091 79.136248 
L 91.382545 79.314476 
L 92.08 79.492704 
L 92.777455 79.670932 
L 93.474909 79.849159 
L 94.172364 80.027387 
L 94.869818 80.205615 
L 95.567273 80.383843 
L 96.264727 80.562071 
L 96.962182 80.740299 
L 97.659636 80.918526 
L 98.357091 81.096754 
L 99.054545 81.274982 
L 99.752 81.45321 
L 100.449455 81.631438 
L 101.146909 81.809665 
L 101.844364 81.987893 
L 102.541818 82.166121 
L 103.239273 82.344349 
L 103.936727 82.522577 
L 104.634182 82.700804 
L 105.331636 82.879032 
L 106.029091 83.05726 
L 106.726545 83.235488 
L 107.424 83.413716 
L 108.121455 83.591943 
L 108.818909 83.770171 
L 109.516364 83.948399 
L 110.213818 84.126627 
L 110.911273 84.304855 
L 111.608727 84.483082 
L 112.306182 84.66131 
L 113.003636 84.839538 
L 113.701091 85.017766 
L 114.398545 85.195994 
L 115.096 85.374222 
L 115.793455 85.552449 
L 116.490909 85.730677 
L 117.188364 85.908905 
L 117.885818 86.087133 
L 118.583273 86.265361 
L 119.280727 86.443588 
L 119.978182 86.621816 
L 120.675636 86.800044 
L 121.373091 86.978272 
L 122.070545 87.1565 
L 122.768 87.334727 
L 123.465455 87.512955 
L 124.162909 87.691183 
L 124.860364 87.869411 
L 125.557818 88.047639 
L 126.255273 88.225866 
L 126.952727 88.404094 
" style="fill:none;stroke:#f4a582;stroke-linecap:round;stroke-width:1.5;"/>
   </g>
   <g id="line2d_15">
    <path clip-path="url(#p80eaf418a2)" d="M 57.207273 97.903636 
L 57.904727 97.725409 
L 58.602182 97.547181 
L 59.299636 97.368953 
L 59.997091 97.190725 
L 60.694545 97.012497 
L 61.392 96.83427 
L 62.089455 96.656042 
L 62.786909 96.477814 
L 63.484364 96.299586 
L 64.181818 96.121358 
L 64.879273 95.94313 
L 65.576727 95.764903 
L 66.274182 95.586675 
L 66.971636 95.408447 
L 67.669091 95.230219 
L 68.366545 95.051991 
L 69.064 94.873764 
L 69.761455 94.695536 
L 70.458909 94.517308 
L 71.156364 94.33908 
L 71.853818 94.160852 
L 72.551273 93.982625 
L 73.248727 93.804397 
L 73.946182 93.626169 
L 74.643636 93.447941 
L 75.341091 93.269713 
L 76.038545 93.091486 
L 76.736 92.913258 
L 77.433455 92.73503 
L 78.130909 92.556802 
L 78.828364 92.378574 
L 79.525818 92.200347 
L 80.223273 92.022119 
L 80.920727 91.843891 
L 81.618182 91.665663 
L 82.315636 91.487435 
L 83.013091 91.309207 
L 83.710545 91.13098 
L 84.408 90.952752 
L 85.105455 90.774524 
L 85.802909 90.596296 
L 86.500364 90.418068 
L 87.197818 90.239841 
L 87.895273 90.061613 
L 88.592727 89.883385 
L 89.290182 89.705157 
L 89.987636 89.526929 
L 90.685091 89.348702 
L 91.382545 89.170474 
L 92.08 88.992246 
L 92.777455 88.814018 
L 93.474909 88.63579 
L 94.172364 88.457563 
L 94.869818 88.279335 
L 95.567273 88.101107 
L 96.264727 87.922879 
L 96.962182 87.744651 
L 97.659636 87.566424 
L 98.357091 87.388196 
L 99.054545 87.209968 
L 99.752 87.03174 
L 100.449455 86.853512 
L 101.146909 86.675285 
L 101.844364 86.497057 
L 102.541818 86.318829 
L 103.239273 86.140601 
L 103.936727 85.962373 
L 104.634182 85.784145 
L 105.331636 85.605918 
L 106.029091 85.42769 
L 106.726545 85.249462 
L 107.424 85.071234 
L 108.121455 84.893006 
L 108.818909 84.714779 
L 109.516364 84.536551 
L 110.213818 84.358323 
L 110.911273 84.180095 
L 111.608727 84.001867 
L 112.306182 83.82364 
L 113.003636 83.645412 
L 113.701091 83.467184 
L 114.398545 83.288956 
L 115.096 83.110728 
L 115.793455 82.932501 
L 116.490909 82.754273 
L 117.188364 82.576045 
L 117.885818 82.397817 
L 118.583273 82.219589 
L 119.280727 82.041362 
L 119.978182 81.863134 
L 120.675636 81.684906 
L 121.373091 81.506678 
L 122.070545 81.32845 
L 122.768 81.150222 
L 123.465455 80.971995 
L 124.162909 80.793767 
L 124.860364 80.615539 
L 125.557818 80.437311 
L 126.255273 80.259083 
L 126.952727 80.080856 
" style="fill:none;stroke:#92c5de;stroke-linecap:round;stroke-width:1.5;"/>
   </g>
   <g id="line2d_16">
    <path clip-path="url(#p80eaf418a2)" d="M 57.207273 96.424346 
L 57.904727 96.246118 
L 58.602182 96.06789 
L 59.299636 95.889662 
L 59.997091 95.711434 
L 60.694545 95.533207 
L 61.392 95.354979 
L 62.089455 95.176751 
L 62.786909 94.998523 
L 63.484364 94.820295 
L 64.181818 94.642067 
L 64.879273 94.46384 
L 65.576727 94.285612 
L 66.274182 94.107384 
L 66.971636 93.929156 
L 67.669091 93.750928 
L 68.366545 93.572701 
L 69.064 93.394473 
L 69.761455 93.216245 
L 70.458909 93.038017 
L 71.156364 92.859789 
L 71.853818 92.681562 
L 72.551273 92.503334 
L 73.248727 92.325106 
L 73.946182 92.146878 
L 74.643636 91.96865 
L 75.341091 91.790423 
L 76.038545 91.612195 
L 76.736 91.433967 
L 77.433455 91.255739 
L 78.130909 91.077511 
L 78.828364 90.899284 
L 79.525818 90.721056 
L 80.223273 90.542828 
L 80.920727 90.3646 
L 81.618182 90.186372 
L 82.315636 90.008145 
L 83.013091 89.829917 
L 83.710545 89.651689 
L 84.408 89.473461 
L 85.105455 89.295233 
L 85.802909 89.117005 
L 86.500364 88.938778 
L 87.197818 88.76055 
L 87.895273 88.582322 
L 88.592727 88.404094 
L 89.290182 88.225866 
L 89.987636 88.047639 
L 90.685091 87.869411 
L 91.382545 87.691183 
L 92.08 87.512955 
L 92.777455 87.334727 
L 93.474909 87.1565 
L 94.172364 86.978272 
L 94.869818 86.800044 
L 95.567273 86.621816 
L 96.264727 86.443588 
L 96.962182 86.265361 
L 97.659636 86.087133 
L 98.357091 85.908905 
L 99.054545 85.730677 
L 99.752 85.552449 
L 100.449455 85.374222 
L 101.146909 85.195994 
L 101.844364 85.017766 
L 102.541818 84.839538 
L 103.239273 84.66131 
L 103.936727 84.483082 
L 104.634182 84.304855 
L 105.331636 84.126627 
L 106.029091 83.948399 
L 106.726545 83.770171 
L 107.424 83.591943 
L 108.121455 83.413716 
L 108.818909 83.235488 
L 109.516364 83.05726 
L 110.213818 82.879032 
L 110.911273 82.700804 
L 111.608727 82.522577 
L 112.306182 82.344349 
L 113.003636 82.166121 
L 113.701091 81.987893 
L 114.398545 81.809665 
L 115.096 81.631438 
L 115.793455 81.45321 
L 116.490909 81.274982 
L 117.188364 81.096754 
L 117.885818 80.918526 
L 118.583273 80.740299 
L 119.280727 80.562071 
L 119.978182 80.383843 
L 120.675636 80.205615 
L 121.373091 80.027387 
L 122.070545 79.849159 
L 122.768 79.670932 
L 123.465455 79.492704 
L 124.162909 79.314476 
L 124.860364 79.136248 
L 125.557818 78.95802 
L 126.255273 78.779793 
L 126.952727 78.601565 
" style="fill:none;stroke:#92c5de;stroke-linecap:round;stroke-width:1.5;"/>
   </g>
   <g id="line2d_17">
    <path clip-path="url(#p80eaf418a2)" d="M 57.207273 83.948399 
L 57.904727 83.770171 
L 58.602182 83.591943 
L 59.299636 83.413716 
L 59.997091 83.235488 
L 60.694545 83.05726 
L 61.392 82.879032 
L 62.089455 82.700804 
L 62.786909 82.522577 
L 63.484364 82.344349 
L 64.181818 82.166121 
L 64.879273 81.987893 
L 65.576727 81.809665 
L 66.274182 81.631438 
L 66.971636 81.45321 
L 67.669091 81.274982 
L 68.366545 81.096754 
L 69.064 80.918526 
L 69.761455 80.740299 
L 70.458909 80.562071 
L 71.156364 80.383843 
L 71.853818 80.205615 
L 72.551273 80.027387 
L 73.248727 79.849159 
L 73.946182 79.670932 
L 74.643636 79.492704 
L 75.341091 79.314476 
L 76.038545 79.136248 
L 76.736 78.95802 
L 77.433455 78.779793 
L 78.130909 78.601565 
L 78.828364 78.423337 
L 79.525818 78.245109 
L 80.223273 78.066881 
L 80.920727 77.888654 
L 81.618182 77.710426 
L 82.315636 77.532198 
L 83.013091 77.35397 
L 83.710545 77.175742 
L 84.408 76.997515 
L 85.105455 76.819287 
L 85.802909 76.641059 
L 86.500364 76.462831 
L 87.197818 76.284603 
L 87.895273 76.106376 
L 88.592727 75.928148 
L 89.290182 75.74992 
L 89.987636 75.571692 
L 90.685091 75.393464 
L 91.382545 75.215237 
L 92.08 75.037009 
L 92.777455 74.858781 
L 93.474909 74.680553 
L 94.172364 74.502325 
L 94.869818 74.324097 
L 95.567273 74.14587 
L 96.264727 73.967642 
L 96.962182 73.789414 
L 97.659636 73.611186 
L 98.357091 73.432958 
L 99.054545 73.254731 
L 99.752 73.076503 
L 100.449455 72.898275 
L 101.146909 72.720047 
L 101.844364 72.541819 
L 102.541818 72.363592 
L 103.239273 72.185364 
L 103.936727 72.007136 
L 104.634182 71.828908 
L 105.331636 71.65068 
L 106.029091 71.472453 
L 106.726545 71.294225 
L 107.424 71.115997 
L 108.121455 70.937769 
L 108.818909 70.759541 
L 109.516364 70.581314 
L 110.213818 70.403086 
L 110.911273 70.224858 
L 111.608727 70.04663 
L 112.306182 69.868402 
L 113.003636 69.690174 
L 113.701091 69.511947 
L 114.398545 69.333719 
L 115.096 69.155491 
L 115.793455 68.977263 
L 116.490909 68.799035 
L 117.188364 68.620808 
L 117.885818 68.44258 
L 118.583273 68.264352 
L 119.280727 68.086124 
L 119.978182 67.907896 
L 120.675636 67.729669 
L 121.373091 67.551441 
L 122.070545 67.373213 
L 122.768 67.194985 
L 123.465455 67.016757 
L 124.162909 66.83853 
L 124.860364 66.660302 
L 125.557818 66.482074 
L 126.255273 66.303846 
L 126.952727 66.125618 
" style="fill:none;stroke:#92c5de;stroke-linecap:round;stroke-width:1.5;"/>
   </g>
   <g id="line2d_18">
    <path clip-path="url(#p80eaf418a2)" d="M 57.207273 92.73503 
L 57.904727 92.73503 
L 58.602182 92.73503 
L 59.299636 92.73503 
L 59.997091 92.73503 
L 60.694545 92.73503 
L 61.392 92.73503 
L 62.089455 92.73503 
L 62.786909 92.73503 
L 63.484364 92.73503 
L 64.181818 92.73503 
L 64.879273 92.73503 
L 65.576727 92.73503 
L 66.274182 92.73503 
L 66.971636 92.73503 
L 67.669091 92.73503 
L 68.366545 92.73503 
L 69.064 92.73503 
L 69.761455 92.73503 
L 70.458909 92.73503 
L 71.156364 92.73503 
L 71.853818 92.73503 
L 72.551273 92.73503 
L 73.248727 92.73503 
L 73.946182 92.73503 
L 74.643636 92.73503 
L 75.341091 92.73503 
L 76.038545 92.73503 
L 76.736 92.73503 
L 77.433455 92.73503 
L 78.130909 92.73503 
L 78.828364 92.73503 
L 79.525818 92.73503 
L 80.223273 92.73503 
L 80.920727 92.73503 
L 81.618182 92.73503 
L 82.315636 92.73503 
L 83.013091 92.73503 
L 83.710545 92.73503 
L 84.408 92.73503 
L 85.105455 92.73503 
L 85.802909 92.73503 
L 86.500364 92.73503 
L 87.197818 92.73503 
L 87.895273 92.73503 
L 88.592727 92.73503 
L 89.290182 92.73503 
L 89.987636 92.73503 
L 90.685091 92.73503 
L 91.382545 92.73503 
L 92.08 92.73503 
L 92.777455 92.73503 
L 93.474909 92.73503 
L 94.172364 92.73503 
L 94.869818 92.73503 
L 95.567273 92.73503 
L 96.264727 92.73503 
L 96.962182 92.73503 
L 97.659636 92.73503 
L 98.357091 92.73503 
L 99.054545 92.73503 
L 99.752 92.73503 
L 100.449455 92.73503 
L 101.146909 92.73503 
L 101.844364 92.73503 
L 102.541818 92.73503 
L 103.239273 92.73503 
L 103.936727 92.73503 
L 104.634182 92.73503 
L 105.331636 92.73503 
L 106.029091 92.73503 
L 106.726545 92.73503 
L 107.424 92.73503 
L 108.121455 92.73503 
L 108.818909 92.73503 
L 109.516364 92.73503 
L 110.213818 92.73503 
L 110.911273 92.73503 
L 111.608727 92.73503 
L 112.306182 92.73503 
L 113.003636 92.73503 
L 113.701091 92.73503 
L 114.398545 92.73503 
L 115.096 92.73503 
L 115.793455 92.73503 
L 116.490909 92.73503 
L 117.188364 92.73503 
L 117.885818 92.73503 
L 118.583273 92.73503 
L 119.280727 92.73503 
L 119.978182 92.73503 
L 120.675636 92.73503 
L 121.373091 92.73503 
L 122.070545 92.73503 
L 122.768 92.73503 
L 123.465455 92.73503 
L 124.162909 92.73503 
L 124.860364 92.73503 
L 125.557818 92.73503 
L 126.255273 92.73503 
L 126.952727 92.73503 
" style="fill:none;stroke:#333333;stroke-linecap:round;stroke-width:1.5;"/>
   </g>
   <g id="line2d_19">
    <path clip-path="url(#p80eaf418a2)" d="M 57.207273 83.841462 
L 57.904727 83.841462 
L 58.602182 83.841462 
L 59.299636 83.841462 
L 59.997091 83.841462 
L 60.694545 83.841462 
L 61.392 83.841462 
L 62.089455 83.841462 
L 62.786909 83.841462 
L 63.484364 83.841462 
L 64.181818 83.841462 
L 64.879273 83.841462 
L 65.576727 83.841462 
L 66.274182 83.841462 
L 66.971636 83.841462 
L 67.669091 83.841462 
L 68.366545 83.841462 
L 69.064 83.841462 
L 69.761455 83.841462 
L 70.458909 83.841462 
L 71.156364 83.841462 
L 71.853818 83.841462 
L 72.551273 83.841462 
L 73.248727 83.841462 
L 73.946182 83.841462 
L 74.643636 83.841462 
L 75.341091 83.841462 
L 76.038545 83.841462 
L 76.736 83.841462 
L 77.433455 83.841462 
L 78.130909 83.841462 
L 78.828364 83.841462 
L 79.525818 83.841462 
L 80.223273 83.841462 
L 80.920727 83.841462 
L 81.618182 83.841462 
L 82.315636 83.841462 
L 83.013091 83.841462 
L 83.710545 83.841462 
L 84.408 83.841462 
L 85.105455 83.841462 
L 85.802909 83.841462 
L 86.500364 83.841462 
L 87.197818 83.841462 
L 87.895273 83.841462 
L 88.592727 83.841462 
L 89.290182 83.841462 
L 89.987636 83.841462 
L 90.685091 83.841462 
L 91.382545 83.841462 
L 92.08 83.841462 
L 92.777455 83.841462 
L 93.474909 83.841462 
L 94.172364 83.841462 
L 94.869818 83.841462 
L 95.567273 83.841462 
L 96.264727 83.841462 
L 96.962182 83.841462 
L 97.659636 83.841462 
L 98.357091 83.841462 
L 99.054545 83.841462 
L 99.752 83.841462 
L 100.449455 83.841462 
L 101.146909 83.841462 
L 101.844364 83.841462 
L 102.541818 83.841462 
L 103.239273 83.841462 
L 103.936727 83.841462 
L 104.634182 83.841462 
L 105.331636 83.841462 
L 106.029091 83.841462 
L 106.726545 83.841462 
L 107.424 83.841462 
L 108.121455 83.841462 
L 108.818909 83.841462 
L 109.516364 83.841462 
L 110.213818 83.841462 
L 110.911273 83.841462 
L 111.608727 83.841462 
L 112.306182 83.841462 
L 113.003636 83.841462 
L 113.701091 83.841462 
L 114.398545 83.841462 
L 115.096 83.841462 
L 115.793455 83.841462 
L 116.490909 83.841462 
L 117.188364 83.841462 
L 117.885818 83.841462 
L 118.583273 83.841462 
L 119.280727 83.841462 
L 119.978182 83.841462 
L 120.675636 83.841462 
L 121.373091 83.841462 
L 122.070545 83.841462 
L 122.768 83.841462 
L 123.465455 83.841462 
L 124.162909 83.841462 
L 124.860364 83.841462 
L 125.557818 83.841462 
L 126.255273 83.841462 
L 126.952727 83.841462 
" style="fill:none;stroke:#333333;stroke-linecap:round;stroke-width:1.5;"/>
   </g>
   <g id="line2d_20">
    <path clip-path="url(#p80eaf418a2)" d="M 57.207273 86.265361 
L 57.904727 86.265361 
L 58.602182 86.265361 
L 59.299636 86.265361 
L 59.997091 86.265361 
L 60.694545 86.265361 
L 61.392 86.265361 
L 62.089455 86.265361 
L 62.786909 86.265361 
L 63.484364 86.265361 
L 64.181818 86.265361 
L 64.879273 86.265361 
L 65.576727 86.265361 
L 66.274182 86.265361 
L 66.971636 86.265361 
L 67.669091 86.265361 
L 68.366545 86.265361 
L 69.064 86.265361 
L 69.761455 86.265361 
L 70.458909 86.265361 
L 71.156364 86.265361 
L 71.853818 86.265361 
L 72.551273 86.265361 
L 73.248727 86.265361 
L 73.946182 86.265361 
L 74.643636 86.265361 
L 75.341091 86.265361 
L 76.038545 86.265361 
L 76.736 86.265361 
L 77.433455 86.265361 
L 78.130909 86.265361 
L 78.828364 86.265361 
L 79.525818 86.265361 
L 80.223273 86.265361 
L 80.920727 86.265361 
L 81.618182 86.265361 
L 82.315636 86.265361 
L 83.013091 86.265361 
L 83.710545 86.265361 
L 84.408 86.265361 
L 85.105455 86.265361 
L 85.802909 86.265361 
L 86.500364 86.265361 
L 87.197818 86.265361 
L 87.895273 86.265361 
L 88.592727 86.265361 
L 89.290182 86.265361 
L 89.987636 86.265361 
L 90.685091 86.265361 
L 91.382545 86.265361 
L 92.08 86.265361 
L 92.777455 86.265361 
L 93.474909 86.265361 
L 94.172364 86.265361 
L 94.869818 86.265361 
L 95.567273 86.265361 
L 96.264727 86.265361 
L 96.962182 86.265361 
L 97.659636 86.265361 
L 98.357091 86.265361 
L 99.054545 86.265361 
L 99.752 86.265361 
L 100.449455 86.265361 
L 101.146909 86.265361 
L 101.844364 86.265361 
L 102.541818 86.265361 
L 103.239273 86.265361 
L 103.936727 86.265361 
L 104.634182 86.265361 
L 105.331636 86.265361 
L 106.029091 86.265361 
L 106.726545 86.265361 
L 107.424 86.265361 
L 108.121455 86.265361 
L 108.818909 86.265361 
L 109.516364 86.265361 
L 110.213818 86.265361 
L 110.911273 86.265361 
L 111.608727 86.265361 
L 112.306182 86.265361 
L 113.003636 86.265361 
L 113.701091 86.265361 
L 114.398545 86.265361 
L 115.096 86.265361 
L 115.793455 86.265361 
L 116.490909 86.265361 
L 117.188364 86.265361 
L 117.885818 86.265361 
L 118.583273 86.265361 
L 119.280727 86.265361 
L 119.978182 86.265361 
L 120.675636 86.265361 
L 121.373091 86.265361 
L 122.070545 86.265361 
L 122.768 86.265361 
L 123.465455 86.265361 
L 124.162909 86.265361 
L 124.860364 86.265361 
L 125.557818 86.265361 
L 126.255273 86.265361 
L 126.952727 86.265361 
" style="fill:none;stroke:#333333;stroke-linecap:round;stroke-width:1.5;"/>
   </g>
  </g>
 </g>
 <defs>
  <clipPath id="p80eaf418a2">
   <rect height="88.36" width="76.72" x="53.72" y="13.56"/>
  </clipPath>
 </defs>
</svg>
