<?xml version="1.0" encoding="utf-8" standalone="no"?>
<!DOCTYPE svg PUBLIC "-//W3C//DTD SVG 1.1//EN"
  "http://www.w3.org/Graphics/SVG/1.1/DTD/svg11.dtd">
<!-- Created with matplotlib (http://matplotlib.org/) -->
<svg height="216pt" version="1.1" viewBox="0 0 216 216" width="216pt" xmlns="http://www.w3.org/2000/svg" xmlns:xlink="http://www.w3.org/1999/xlink">
 <defs>
  <style type="text/css">
*{stroke-linecap:butt;stroke-linejoin:round;}
  </style>
 </defs>
 <g id="figure_1">
  <g id="patch_1">
   <path d="M 0 216 
L 216 216 
L 216 0 
L 0 0 
z
" style="fill:#ffffff;"/>
  </g>
  <g id="axes_1">
   <g id="patch_2">
    <path d="M 44.78 175.96 
L 203.52 175.96 
L 203.52 25.44 
L 44.78 25.44 
z
" style="fill:#ffffff;"/>
   </g>
   <g id="matplotlib.axis_1">
    <g id="xtick_1">
     <g id="line2d_1">
      <defs>
       <path d="M 0 0 
L 0 3.5 
" id="me325ca2cab" style="stroke:#262626;stroke-width:0.8;"/>
      </defs>
      <g>
       <use style="fill:#262626;stroke:#262626;stroke-width:0.8;" x="51.995455" xlink:href="#me325ca2cab" y="175.96"/>
      </g>
     </g>
     <g id="text_1">
      <!-- 2 -->
      <defs>
       <path d="M 50.34375 8.453125 
L 50.34375 0 
L 3.03125 0 
Q 2.9375 3.171875 4.046875 6.109375 
Q 5.859375 10.9375 9.828125 15.625 
Q 13.8125 20.3125 21.34375 26.46875 
Q 33.015625 36.03125 37.109375 41.625 
Q 41.21875 47.21875 41.21875 52.203125 
Q 41.21875 57.421875 37.46875 61 
Q 33.734375 64.59375 27.734375 64.59375 
Q 21.390625 64.59375 17.578125 60.78125 
Q 13.765625 56.984375 13.71875 50.25 
L 4.6875 51.171875 
Q 5.609375 61.28125 11.65625 66.578125 
Q 17.71875 71.875 27.9375 71.875 
Q 38.234375 71.875 44.234375 66.15625 
Q 50.25 60.453125 50.25 52 
Q 50.25 47.703125 48.484375 43.546875 
Q 46.734375 39.40625 42.65625 34.8125 
Q 38.578125 30.21875 29.109375 22.21875 
Q 21.1875 15.578125 18.9375 13.203125 
Q 16.703125 10.84375 15.234375 8.453125 
z
" id="ArialMT-32"/>
      </defs>
      <g style="fill:#262626;" transform="translate(49.214986 190.117812)scale(0.1 -0.1)">
       <use xlink:href="#ArialMT-32"/>
      </g>
     </g>
    </g>
    <g id="xtick_2">
     <g id="line2d_2">
      <g>
       <use style="fill:#262626;stroke:#262626;stroke-width:0.8;" x="80.857273" xlink:href="#me325ca2cab" y="175.96"/>
      </g>
     </g>
     <g id="text_2">
      <!-- 4 -->
      <defs>
       <path d="M 32.328125 0 
L 32.328125 17.140625 
L 1.265625 17.140625 
L 1.265625 25.203125 
L 33.9375 71.578125 
L 41.109375 71.578125 
L 41.109375 25.203125 
L 50.78125 25.203125 
L 50.78125 17.140625 
L 41.109375 17.140625 
L 41.109375 0 
z
M 32.328125 25.203125 
L 32.328125 57.46875 
L 9.90625 25.203125 
z
" id="ArialMT-34"/>
      </defs>
      <g style="fill:#262626;" transform="translate(78.076804 190.117812)scale(0.1 -0.1)">
       <use xlink:href="#ArialMT-34"/>
      </g>
     </g>
    </g>
    <g id="xtick_3">
     <g id="line2d_3">
      <g>
       <use style="fill:#262626;stroke:#262626;stroke-width:0.8;" x="109.719091" xlink:href="#me325ca2cab" y="175.96"/>
      </g>
     </g>
     <g id="text_3">
      <!-- 6 -->
      <defs>
       <path d="M 49.75 54.046875 
L 41.015625 53.375 
Q 39.84375 58.546875 37.703125 60.890625 
Q 34.125 64.65625 28.90625 64.65625 
Q 24.703125 64.65625 21.53125 62.3125 
Q 17.390625 59.28125 14.984375 53.46875 
Q 12.59375 47.65625 12.5 36.921875 
Q 15.671875 41.75 20.265625 44.09375 
Q 24.859375 46.4375 29.890625 46.4375 
Q 38.671875 46.4375 44.84375 39.96875 
Q 51.03125 33.5 51.03125 23.25 
Q 51.03125 16.5 48.125 10.71875 
Q 45.21875 4.9375 40.140625 1.859375 
Q 35.0625 -1.21875 28.609375 -1.21875 
Q 17.625 -1.21875 10.6875 6.859375 
Q 3.765625 14.9375 3.765625 33.5 
Q 3.765625 54.25 11.421875 63.671875 
Q 18.109375 71.875 29.4375 71.875 
Q 37.890625 71.875 43.28125 67.140625 
Q 48.6875 62.40625 49.75 54.046875 
z
M 13.875 23.1875 
Q 13.875 18.65625 15.796875 14.5 
Q 17.71875 10.359375 21.1875 8.171875 
Q 24.65625 6 28.46875 6 
Q 34.03125 6 38.03125 10.484375 
Q 42.046875 14.984375 42.046875 22.703125 
Q 42.046875 30.125 38.078125 34.390625 
Q 34.125 38.671875 28.125 38.671875 
Q 22.171875 38.671875 18.015625 34.390625 
Q 13.875 30.125 13.875 23.1875 
z
" id="ArialMT-36"/>
      </defs>
      <g style="fill:#262626;" transform="translate(106.938622 190.117812)scale(0.1 -0.1)">
       <use xlink:href="#ArialMT-36"/>
      </g>
     </g>
    </g>
    <g id="xtick_4">
     <g id="line2d_4">
      <g>
       <use style="fill:#262626;stroke:#262626;stroke-width:0.8;" x="138.580909" xlink:href="#me325ca2cab" y="175.96"/>
      </g>
     </g>
     <g id="text_4">
      <!-- 8 -->
      <defs>
       <path d="M 17.671875 38.8125 
Q 12.203125 40.828125 9.5625 44.53125 
Q 6.9375 48.25 6.9375 53.421875 
Q 6.9375 61.234375 12.546875 66.546875 
Q 18.171875 71.875 27.484375 71.875 
Q 36.859375 71.875 42.578125 66.421875 
Q 48.296875 60.984375 48.296875 53.171875 
Q 48.296875 48.1875 45.671875 44.5 
Q 43.0625 40.828125 37.75 38.8125 
Q 44.34375 36.671875 47.78125 31.875 
Q 51.21875 27.09375 51.21875 20.453125 
Q 51.21875 11.28125 44.71875 5.03125 
Q 38.234375 -1.21875 27.640625 -1.21875 
Q 17.046875 -1.21875 10.546875 5.046875 
Q 4.046875 11.328125 4.046875 20.703125 
Q 4.046875 27.6875 7.59375 32.390625 
Q 11.140625 37.109375 17.671875 38.8125 
z
M 15.921875 53.71875 
Q 15.921875 48.640625 19.1875 45.40625 
Q 22.46875 42.1875 27.6875 42.1875 
Q 32.765625 42.1875 36.015625 45.375 
Q 39.265625 48.578125 39.265625 53.21875 
Q 39.265625 58.0625 35.90625 61.359375 
Q 32.5625 64.65625 27.59375 64.65625 
Q 22.5625 64.65625 19.234375 61.421875 
Q 15.921875 58.203125 15.921875 53.71875 
z
M 13.09375 20.65625 
Q 13.09375 16.890625 14.875 13.375 
Q 16.65625 9.859375 20.171875 7.921875 
Q 23.6875 6 27.734375 6 
Q 34.03125 6 38.125 10.046875 
Q 42.234375 14.109375 42.234375 20.359375 
Q 42.234375 26.703125 38.015625 30.859375 
Q 33.796875 35.015625 27.4375 35.015625 
Q 21.234375 35.015625 17.15625 30.90625 
Q 13.09375 26.8125 13.09375 20.65625 
z
" id="ArialMT-38"/>
      </defs>
      <g style="fill:#262626;" transform="translate(135.80044 190.117812)scale(0.1 -0.1)">
       <use xlink:href="#ArialMT-38"/>
      </g>
     </g>
    </g>
    <g id="xtick_5">
     <g id="line2d_5">
      <g>
       <use style="fill:#262626;stroke:#262626;stroke-width:0.8;" x="167.442727" xlink:href="#me325ca2cab" y="175.96"/>
      </g>
     </g>
     <g id="text_5">
      <!-- 10 -->
      <defs>
       <path d="M 37.25 0 
L 28.46875 0 
L 28.46875 56 
Q 25.296875 52.984375 20.140625 49.953125 
Q 14.984375 46.921875 10.890625 45.40625 
L 10.890625 53.90625 
Q 18.265625 57.375 23.78125 62.296875 
Q 29.296875 67.234375 31.59375 71.875 
L 37.25 71.875 
z
" id="ArialMT-31"/>
       <path d="M 4.15625 35.296875 
Q 4.15625 48 6.765625 55.734375 
Q 9.375 63.484375 14.515625 67.671875 
Q 19.671875 71.875 27.484375 71.875 
Q 33.25 71.875 37.59375 69.546875 
Q 41.9375 67.234375 44.765625 62.859375 
Q 47.609375 58.5 49.21875 52.21875 
Q 50.828125 45.953125 50.828125 35.296875 
Q 50.828125 22.703125 48.234375 14.96875 
Q 45.65625 7.234375 40.5 3 
Q 35.359375 -1.21875 27.484375 -1.21875 
Q 17.140625 -1.21875 11.234375 6.203125 
Q 4.15625 15.140625 4.15625 35.296875 
z
M 13.1875 35.296875 
Q 13.1875 17.671875 17.3125 11.828125 
Q 21.4375 6 27.484375 6 
Q 33.546875 6 37.671875 11.859375 
Q 41.796875 17.71875 41.796875 35.296875 
Q 41.796875 52.984375 37.671875 58.78125 
Q 33.546875 64.59375 27.390625 64.59375 
Q 21.34375 64.59375 17.71875 59.46875 
Q 13.1875 52.9375 13.1875 35.296875 
z
" id="ArialMT-30"/>
      </defs>
      <g style="fill:#262626;" transform="translate(161.88179 190.117812)scale(0.1 -0.1)">
       <use xlink:href="#ArialMT-31"/>
       <use x="55.615234" xlink:href="#ArialMT-30"/>
      </g>
     </g>
    </g>
    <g id="xtick_6">
     <g id="line2d_6">
      <g>
       <use style="fill:#262626;stroke:#262626;stroke-width:0.8;" x="196.304545" xlink:href="#me325ca2cab" y="175.96"/>
      </g>
     </g>
     <g id="text_6">
      <!-- 12 -->
      <g style="fill:#262626;" transform="translate(190.743608 190.117812)scale(0.1 -0.1)">
       <use xlink:href="#ArialMT-31"/>
       <use x="55.615234" xlink:href="#ArialMT-32"/>
      </g>
     </g>
    </g>
    <g id="text_7">
     <!-- pH -->
     <defs>
      <path d="M 6.59375 -19.875 
L 6.59375 51.859375 
L 14.59375 51.859375 
L 14.59375 45.125 
Q 17.4375 49.078125 21 51.046875 
Q 24.5625 53.03125 29.640625 53.03125 
Q 36.28125 53.03125 41.359375 49.609375 
Q 46.4375 46.1875 49.015625 39.953125 
Q 51.609375 33.734375 51.609375 26.3125 
Q 51.609375 18.359375 48.75 11.984375 
Q 45.90625 5.609375 40.453125 2.21875 
Q 35.015625 -1.171875 29 -1.171875 
Q 24.609375 -1.171875 21.109375 0.6875 
Q 17.625 2.546875 15.375 5.375 
L 15.375 -19.875 
z
M 14.546875 25.640625 
Q 14.546875 15.625 18.59375 10.84375 
Q 22.65625 6.0625 28.421875 6.0625 
Q 34.28125 6.0625 38.453125 11.015625 
Q 42.625 15.96875 42.625 26.375 
Q 42.625 36.28125 38.546875 41.203125 
Q 34.46875 46.140625 28.8125 46.140625 
Q 23.1875 46.140625 18.859375 40.890625 
Q 14.546875 35.640625 14.546875 25.640625 
z
" id="ArialMT-70"/>
      <path d="M 8.015625 0 
L 8.015625 71.578125 
L 17.484375 71.578125 
L 17.484375 42.1875 
L 54.6875 42.1875 
L 54.6875 71.578125 
L 64.15625 71.578125 
L 64.15625 0 
L 54.6875 0 
L 54.6875 33.734375 
L 17.484375 33.734375 
L 17.484375 0 
z
" id="ArialMT-48"/>
     </defs>
     <g style="fill:#262626;" transform="translate(117.758594 203.263125)scale(0.1 -0.1)">
      <use xlink:href="#ArialMT-70"/>
      <use x="55.615234" xlink:href="#ArialMT-48"/>
     </g>
    </g>
   </g>
   <g id="matplotlib.axis_2">
    <g id="ytick_1">
     <g id="line2d_7">
      <defs>
       <path d="M 0 0 
L -3.5 0 
" id="m9ca4aaf62f" style="stroke:#262626;stroke-width:0.8;"/>
      </defs>
      <g>
       <use style="fill:#262626;stroke:#262626;stroke-width:0.8;" x="44.78" xlink:href="#m9ca4aaf62f" y="137.726871"/>
      </g>
     </g>
     <g id="text_8">
      <!-- −1 -->
      <defs>
       <path d="M 52.828125 31.203125 
L 5.5625 31.203125 
L 5.5625 39.40625 
L 52.828125 39.40625 
z
" id="ArialMT-2212"/>
      </defs>
      <g style="fill:#262626;" transform="translate(26.378438 141.305777)scale(0.1 -0.1)">
       <use xlink:href="#ArialMT-2212"/>
       <use x="58.398438" xlink:href="#ArialMT-31"/>
      </g>
     </g>
    </g>
    <g id="ytick_2">
     <g id="line2d_8">
      <g>
       <use style="fill:#262626;stroke:#262626;stroke-width:0.8;" x="44.78" xlink:href="#m9ca4aaf62f" y="61.373464"/>
      </g>
     </g>
     <g id="text_9">
      <!-- 0 -->
      <g style="fill:#262626;" transform="translate(32.219063 64.95237)scale(0.1 -0.1)">
       <use xlink:href="#ArialMT-30"/>
      </g>
     </g>
    </g>
    <g id="text_10">
     <!-- $\langle q_\mathsf{total} \rangle$ -->
     <defs>
      <path d="M 8.9375 31.34375 
L 22.703125 75.875 
L 31 75.875 
L 17.234375 31.34375 
L 31 -13.1875 
L 22.703125 -13.1875 
z
" id="DejaVuSans-27e8"/>
      <path d="M 41.703125 8.203125 
Q 38.09375 3.46875 33.171875 1.015625 
Q 28.265625 -1.421875 22.3125 -1.421875 
Q 14.015625 -1.421875 9.296875 4.171875 
Q 4.59375 9.765625 4.59375 19.578125 
Q 4.59375 27.484375 7.5 34.859375 
Q 10.40625 42.234375 15.828125 48.09375 
Q 19.34375 51.90625 23.90625 53.953125 
Q 28.46875 56 33.5 56 
Q 39.546875 56 43.453125 53.609375 
Q 47.359375 51.21875 49.125 46.390625 
L 50.6875 54.59375 
L 59.71875 54.59375 
L 45.125 -20.609375 
L 36.078125 -20.609375 
z
M 13.921875 20.90625 
Q 13.921875 13.671875 16.9375 9.890625 
Q 19.96875 6.109375 25.6875 6.109375 
Q 34.1875 6.109375 40.1875 14.234375 
Q 46.1875 22.359375 46.1875 33.984375 
Q 46.1875 41.015625 43.078125 44.75 
Q 39.984375 48.484375 34.1875 48.484375 
Q 29.9375 48.484375 26.3125 46.5 
Q 22.703125 44.53125 20.015625 40.71875 
Q 17.1875 36.71875 15.546875 31.34375 
Q 13.921875 25.984375 13.921875 20.90625 
z
" id="DejaVuSans-Oblique-71"/>
      <path d="M 18.3125 70.21875 
L 18.3125 54.6875 
L 36.8125 54.6875 
L 36.8125 47.703125 
L 18.3125 47.703125 
L 18.3125 18.015625 
Q 18.3125 11.328125 20.140625 9.421875 
Q 21.96875 7.515625 27.59375 7.515625 
L 36.8125 7.515625 
L 36.8125 0 
L 27.59375 0 
Q 17.1875 0 13.234375 3.875 
Q 9.28125 7.765625 9.28125 18.015625 
L 9.28125 47.703125 
L 2.6875 47.703125 
L 2.6875 54.6875 
L 9.28125 54.6875 
L 9.28125 70.21875 
z
" id="DejaVuSans-74"/>
      <path d="M 30.609375 48.390625 
Q 23.390625 48.390625 19.1875 42.75 
Q 14.984375 37.109375 14.984375 27.296875 
Q 14.984375 17.484375 19.15625 11.84375 
Q 23.34375 6.203125 30.609375 6.203125 
Q 37.796875 6.203125 41.984375 11.859375 
Q 46.1875 17.53125 46.1875 27.296875 
Q 46.1875 37.015625 41.984375 42.703125 
Q 37.796875 48.390625 30.609375 48.390625 
z
M 30.609375 56 
Q 42.328125 56 49.015625 48.375 
Q 55.71875 40.765625 55.71875 27.296875 
Q 55.71875 13.875 49.015625 6.21875 
Q 42.328125 -1.421875 30.609375 -1.421875 
Q 18.84375 -1.421875 12.171875 6.21875 
Q 5.515625 13.875 5.515625 27.296875 
Q 5.515625 40.765625 12.171875 48.375 
Q 18.84375 56 30.609375 56 
z
" id="DejaVuSans-6f"/>
      <path d="M 34.28125 27.484375 
Q 23.390625 27.484375 19.1875 25 
Q 14.984375 22.515625 14.984375 16.5 
Q 14.984375 11.71875 18.140625 8.90625 
Q 21.296875 6.109375 26.703125 6.109375 
Q 34.1875 6.109375 38.703125 11.40625 
Q 43.21875 16.703125 43.21875 25.484375 
L 43.21875 27.484375 
z
M 52.203125 31.203125 
L 52.203125 0 
L 43.21875 0 
L 43.21875 8.296875 
Q 40.140625 3.328125 35.546875 0.953125 
Q 30.953125 -1.421875 24.3125 -1.421875 
Q 15.921875 -1.421875 10.953125 3.296875 
Q 6 8.015625 6 15.921875 
Q 6 25.140625 12.171875 29.828125 
Q 18.359375 34.515625 30.609375 34.515625 
L 43.21875 34.515625 
L 43.21875 35.40625 
Q 43.21875 41.609375 39.140625 45 
Q 35.0625 48.390625 27.6875 48.390625 
Q 23 48.390625 18.546875 47.265625 
Q 14.109375 46.140625 10.015625 43.890625 
L 10.015625 52.203125 
Q 14.9375 54.109375 19.578125 55.046875 
Q 24.21875 56 28.609375 56 
Q 40.484375 56 46.34375 49.84375 
Q 52.203125 43.703125 52.203125 31.203125 
z
" id="DejaVuSans-61"/>
      <path d="M 9.421875 75.984375 
L 18.40625 75.984375 
L 18.40625 0 
L 9.421875 0 
z
" id="DejaVuSans-6c"/>
      <path d="M 30.078125 31.34375 
L 16.3125 -13.1875 
L 8.015625 -13.1875 
L 21.78125 31.34375 
L 8.015625 75.875 
L 16.3125 75.875 
z
" id="DejaVuSans-27e9"/>
     </defs>
     <g style="fill:#262626;" transform="translate(20.278438 115.95)rotate(-90)scale(0.1 -0.1)">
      <use transform="translate(0 0.125)" xlink:href="#DejaVuSans-27e8"/>
      <use transform="translate(39.013672 0.125)" xlink:href="#DejaVuSans-Oblique-71"/>
      <use transform="translate(102.490234 -16.28125)scale(0.7)" xlink:href="#DejaVuSans-74"/>
      <use transform="translate(129.936523 -16.28125)scale(0.7)" xlink:href="#DejaVuSans-6f"/>
      <use transform="translate(172.763672 -16.28125)scale(0.7)" xlink:href="#DejaVuSans-74"/>
      <use transform="translate(200.209961 -16.28125)scale(0.7)" xlink:href="#DejaVuSans-61"/>
      <use transform="translate(243.105469 -16.28125)scale(0.7)" xlink:href="#DejaVuSans-6c"/>
      <use transform="translate(265.288086 0.125)" xlink:href="#DejaVuSans-27e9"/>
     </g>
    </g>
   </g>
   <g id="PolyCollection_1">
    <defs>
     <path d="M 51.995455 -168.144715 
L 51.995455 -141.108417 
L 53.438545 -141.10849 
L 54.881636 -141.108583 
L 56.324727 -141.108702 
L 57.767818 -141.108856 
L 59.210909 -141.109051 
L 60.654 -141.1093 
L 62.097091 -141.109615 
L 63.540182 -141.110013 
L 64.983273 -141.110515 
L 66.426364 -141.111149 
L 67.869455 -141.111947 
L 69.312545 -141.112953 
L 70.755636 -141.114219 
L 72.198727 -141.115813 
L 73.641818 -141.117818 
L 75.084909 -141.12034 
L 76.528 -141.123512 
L 77.971091 -141.127499 
L 79.414182 -141.132511 
L 80.857273 -141.138805 
L 82.300364 -141.146707 
L 83.743455 -141.15662 
L 85.186545 -141.169044 
L 86.629636 -141.184597 
L 88.072727 -141.204042 
L 89.515818 -141.228311 
L 90.958909 -141.258538 
L 92.402 -141.296091 
L 93.845091 -141.342601 
L 95.288182 -141.399995 
L 96.731273 -141.47051 
L 98.174364 -141.556704 
L 99.617455 -141.661432 
L 101.060545 -141.787806 
L 102.503636 -141.939094 
L 103.946727 -142.118573 
L 105.389818 -142.329285 
L 106.832909 -142.57366 
L 108.276 -142.852944 
L 109.719091 -143.166332 
L 111.162182 -143.509678 
L 112.605273 -143.873633 
L 114.048364 -144.241123 
L 115.491455 -144.584239 
L 116.934545 -144.861159 
L 118.377636 -145.014748 
L 119.820727 -144.97582 
L 121.263818 -144.673792 
L 122.706909 -144.053107 
L 124.15 -143.086779 
L 125.593091 -141.778234 
L 127.036182 -140.15203 
L 128.479273 -138.241608 
L 129.922364 -136.080326 
L 131.365455 -133.696901 
L 132.808545 -131.113785 
L 134.251636 -128.346961 
L 135.694727 -125.406281 
L 137.137818 -122.296003 
L 138.580909 -119.015453 
L 140.024 -115.559857 
L 141.467091 -111.921449 
L 142.910182 -108.091025 
L 144.353273 -104.060139 
L 145.796364 -99.824166 
L 147.239455 -95.386307 
L 148.682545 -90.762348 
L 150.125636 -85.985526 
L 151.568727 -81.110403 
L 153.011818 -76.214376 
L 154.454909 -71.395532 
L 155.898 -66.76632 
L 157.341091 -62.443596 
L 158.784182 -58.536809 
L 160.227273 -55.136781 
L 161.670364 -52.307369 
L 163.113455 -50.081375 
L 164.556545 -48.460824 
L 165.999636 -47.4207 
L 167.442727 -46.914727 
L 168.885818 -46.881818 
L 170.328909 -47.252177 
L 171.772 -47.952481 
L 173.215091 -48.909967 
L 174.658182 -50.055456 
L 176.101273 -51.325461 
L 177.544364 -52.663554 
L 178.987455 -54.021127 
L 180.430545 -55.357662 
L 181.873636 -56.640612 
L 183.316727 -57.844984 
L 184.759818 -58.952726 
L 186.202909 -59.952021 
L 187.646 -60.836574 
L 189.089091 -61.604943 
L 190.532182 -62.259889 
L 191.975273 -62.807679 
L 193.418364 -63.257305 
L 194.861455 -63.619585 
L 196.304545 -63.906231 
L 196.304545 -92.871695 
L 196.304545 -92.871695 
L 194.861455 -93.219315 
L 193.418364 -93.65806 
L 191.975273 -94.203662 
L 190.532182 -94.871964 
L 189.089091 -95.678241 
L 187.646 -96.636609 
L 186.202909 -97.759611 
L 184.759818 -99.057975 
L 183.316727 -100.540505 
L 181.873636 -102.214039 
L 180.430545 -104.083468 
L 178.987455 -106.151843 
L 177.544364 -108.420627 
L 176.101273 -110.890135 
L 174.658182 -113.560162 
L 173.215091 -116.430705 
L 171.772 -119.502646 
L 170.328909 -122.778142 
L 168.885818 -126.260445 
L 167.442727 -129.95284 
L 165.999636 -133.856446 
L 164.556545 -137.96677 
L 163.113455 -142.269202 
L 161.670364 -146.734031 
L 160.227273 -151.312036 
L 158.784182 -155.932026 
L 157.341091 -160.501692 
L 155.898 -164.912603 
L 154.454909 -169.049096 
L 153.011818 -172.799608 
L 151.568727 -176.068125 
L 150.125636 -178.783315 
L 148.682545 -180.903684 
L 147.239455 -182.418277 
L 145.796364 -183.343614 
L 144.353273 -183.718182 
L 142.910182 -183.595981 
L 141.467091 -183.040287 
L 140.024 -182.11841 
L 138.580909 -180.897822 
L 137.137818 -179.443692 
L 135.694727 -177.817694 
L 134.251636 -176.077822 
L 132.808545 -174.278937 
L 131.365455 -172.473759 
L 129.922364 -170.714092 
L 128.479273 -169.051997 
L 127.036182 -167.540463 
L 125.593091 -166.232616 
L 124.15 -165.177907 
L 122.706909 -164.413816 
L 121.263818 -163.954158 
L 119.820727 -163.780282 
L 118.377636 -163.843301 
L 116.934545 -164.077969 
L 115.491455 -164.419352 
L 114.048364 -164.813713 
L 112.605273 -165.221932 
L 111.162182 -165.618256 
L 109.719091 -165.987322 
L 108.276 -166.321147 
L 106.832909 -166.616669 
L 105.389818 -166.873943 
L 103.946727 -167.094904 
L 102.503636 -167.282526 
L 101.060545 -167.440282 
L 99.617455 -167.571793 
L 98.174364 -167.680603 
L 96.731273 -167.770039 
L 95.288182 -167.84313 
L 93.845091 -167.902569 
L 92.402 -167.950705 
L 90.958909 -167.989548 
L 89.515818 -168.0208 
L 88.072727 -168.045884 
L 86.629636 -168.065976 
L 85.186545 -168.082044 
L 83.743455 -168.094876 
L 82.300364 -168.105113 
L 80.857273 -168.113273 
L 79.414182 -168.119772 
L 77.971091 -168.124946 
L 76.528 -168.129063 
L 75.084909 -168.132338 
L 73.641818 -168.134942 
L 72.198727 -168.137012 
L 70.755636 -168.138658 
L 69.312545 -168.139966 
L 67.869455 -168.141005 
L 66.426364 -168.141831 
L 64.983273 -168.142487 
L 63.540182 -168.143008 
L 62.097091 -168.143422 
L 60.654 -168.14375 
L 59.210909 -168.144012 
L 57.767818 -168.144219 
L 56.324727 -168.144385 
L 54.881636 -168.144518 
L 53.438545 -168.144625 
L 51.995455 -168.144715 
z
" id="m783c8de52b" style="stroke:#ffffff;stroke-opacity:0.05;"/>
    </defs>
    <g clip-path="url(#pc001c8a56b)">
     <use style="fill:#591e71;fill-opacity:0.05;stroke:#ffffff;stroke-opacity:0.05;" x="0" xlink:href="#m783c8de52b" y="216"/>
    </g>
   </g>
   <g id="line2d_9">
    <path clip-path="url(#pc001c8a56b)" d="M 51.995455 61.373434 
L 53.438545 61.373443 
L 54.881636 61.37345 
L 56.324727 61.373456 
L 57.767818 61.373463 
L 59.210909 61.373469 
L 60.654 61.373475 
L 62.097091 61.373482 
L 63.540182 61.37349 
L 64.983273 61.373499 
L 66.426364 61.37351 
L 67.869455 61.373524 
L 69.312545 61.373541 
L 70.755636 61.373561 
L 72.198727 61.373588 
L 73.641818 61.37362 
L 75.084909 61.373661 
L 76.528 61.373713 
L 77.971091 61.373777 
L 79.414182 61.373859 
L 80.857273 61.373961 
L 82.300364 61.37409 
L 83.743455 61.374252 
L 85.186545 61.374456 
L 86.629636 61.374713 
L 88.072727 61.375037 
L 89.515818 61.375444 
L 90.958909 61.375957 
L 92.402 61.376602 
L 93.845091 61.377415 
L 95.288182 61.378438 
L 96.731273 61.379726 
L 98.174364 61.381347 
L 99.617455 61.383387 
L 101.060545 61.385956 
L 102.503636 61.38919 
L 103.946727 61.393261 
L 105.389818 61.398386 
L 106.832909 61.404836 
L 108.276 61.412954 
L 109.719091 61.423173 
L 111.162182 61.436033 
L 112.605273 61.452217 
L 114.048364 61.472582 
L 115.491455 61.498204 
L 116.934545 61.530436 
L 118.377636 61.570975 
L 119.820727 61.621949 
L 121.263818 61.686025 
L 122.706909 61.766539 
L 124.15 61.867657 
L 125.593091 61.994575 
L 127.036182 62.153753 
L 128.479273 62.353197 
L 129.922364 62.602791 
L 131.365455 62.91467 
L 132.808545 63.303639 
L 134.251636 63.787609 
L 135.694727 64.388013 
L 137.137818 65.130152 
L 138.580909 66.043362 
L 140.024 67.160867 
L 141.467091 68.519132 
L 142.910182 70.156497 
L 144.353273 72.11084 
L 145.796364 74.41611 
L 147.239455 77.097708 
L 148.682545 80.166984 
L 150.125636 83.61558 
L 151.568727 87.410736 
L 153.011818 91.493008 
L 154.454909 95.777686 
L 155.898 100.160538 
L 157.341091 104.527356 
L 158.784182 108.765583 
L 160.227273 112.775591 
L 161.670364 116.4793 
L 163.113455 119.824712 
L 164.556545 122.786203 
L 165.999636 125.361427 
L 167.442727 127.566217 
L 168.885818 129.428868 
L 170.328909 130.98484 
L 171.772 132.272436 
L 173.215091 133.329664 
L 174.658182 134.192191 
L 176.101273 134.892202 
L 177.544364 135.45791 
L 178.987455 135.913515 
L 180.430545 136.279435 
L 181.873636 136.572675 
L 183.316727 136.807256 
L 184.759818 136.99465 
L 186.202909 137.144184 
L 187.646 137.263409 
L 189.089091 137.358408 
L 190.532182 137.434074 
L 191.975273 137.49433 
L 193.418364 137.542317 
L 194.861455 137.58055 
L 196.304545 137.611037 
" style="fill:none;opacity:0.9;stroke:#591e71;stroke-linecap:round;stroke-width:1.5;"/>
   </g>
   <g id="line2d_10">
    <path clip-path="url(#pc001c8a56b)" d="M 51.995455 61.373471 
L 53.438545 61.373473 
L 54.881636 61.373476 
L 56.324727 61.373479 
L 57.767818 61.373482 
L 59.210909 61.373487 
L 60.654 61.373493 
L 62.097091 61.373501 
L 63.540182 61.37351 
L 64.983273 61.373522 
L 66.426364 61.373537 
L 67.869455 61.373556 
L 69.312545 61.37358 
L 70.755636 61.373609 
L 72.198727 61.373647 
L 73.641818 61.373695 
L 75.084909 61.373754 
L 76.528 61.373829 
L 77.971091 61.373924 
L 79.414182 61.374043 
L 80.857273 61.374193 
L 82.300364 61.374382 
L 83.743455 61.37462 
L 85.186545 61.374919 
L 86.629636 61.375296 
L 88.072727 61.37577 
L 89.515818 61.376367 
L 90.958909 61.377118 
L 92.402 61.378064 
L 93.845091 61.379256 
L 95.288182 61.380755 
L 96.731273 61.382643 
L 98.174364 61.385019 
L 99.617455 61.38801 
L 101.060545 61.391776 
L 102.503636 61.396515 
L 103.946727 61.402482 
L 105.389818 61.409992 
L 106.832909 61.419444 
L 108.276 61.43134 
L 109.719091 61.446311 
L 111.162182 61.465151 
L 112.605273 61.488855 
L 114.048364 61.518676 
L 115.491455 61.556185 
L 116.934545 61.603353 
L 118.377636 61.662652 
L 119.820727 61.737174 
L 121.263818 61.830783 
L 122.706909 61.948303 
L 124.15 62.095736 
L 125.593091 62.280529 
L 127.036182 62.511889 
L 128.479273 62.801144 
L 129.922364 63.162147 
L 131.365455 63.611706 
L 132.808545 64.170018 
L 134.251636 64.861042 
L 135.694727 65.712744 
L 137.137818 66.757074 
L 138.580909 68.02951 
L 140.024 69.567967 
L 141.467091 71.410807 
L 142.910182 73.593774 
L 144.353273 76.145747 
L 145.796364 79.083484 
L 147.239455 82.405908 
L 148.682545 86.088934 
L 150.125636 90.082211 
L 151.568727 94.309163 
L 153.011818 98.671272 
L 154.454909 103.056463 
L 155.898 107.350286 
L 157.341091 111.447594 
L 158.784182 115.262275 
L 160.227273 118.733258 
L 161.670364 121.826185 
L 163.113455 124.531324 
L 164.556545 126.85898 
L 165.999636 128.833859 
L 167.442727 130.48953 
L 168.885818 131.863745 
L 170.328909 132.99489 
L 171.772 133.919596 
L 173.215091 134.671308 
L 174.658182 135.279608 
L 176.101273 135.770042 
L 177.544364 136.16427 
L 178.987455 136.480406 
L 180.430545 136.733433 
L 181.873636 136.935638 
L 183.316727 137.09703 
L 184.759818 137.22572 
L 186.202909 137.328255 
L 187.646 137.409898 
L 189.089091 137.474875 
L 190.532182 137.526568 
L 191.975273 137.567679 
L 193.418364 137.600366 
L 194.861455 137.62635 
L 196.304545 137.647003 
" style="fill:none;opacity:0.7;stroke:#000000;stroke-linecap:round;stroke-width:1.5;"/>
   </g>
   <g id="line2d_11">
    <path clip-path="url(#pc001c8a56b)" d="M 51.995455 47.855285 
L 53.438545 47.855375 
L 54.881636 47.855482 
L 56.324727 47.855615 
L 57.767818 47.855781 
L 59.210909 47.855988 
L 60.654 47.85625 
L 62.097091 47.856578 
L 63.540182 47.856992 
L 64.983273 47.857513 
L 66.426364 47.858169 
L 67.869455 47.858995 
L 69.312545 47.860034 
L 70.755636 47.861342 
L 72.198727 47.862988 
L 73.641818 47.865058 
L 75.084909 47.867662 
L 76.528 47.870937 
L 77.971091 47.875054 
L 79.414182 47.880228 
L 80.857273 47.886727 
L 82.300364 47.894887 
L 83.743455 47.905124 
L 85.186545 47.917956 
L 86.629636 47.934024 
L 88.072727 47.954116 
L 89.515818 47.9792 
L 90.958909 48.010452 
L 92.402 48.049295 
L 93.845091 48.097431 
L 95.288182 48.15687 
L 96.731273 48.229961 
L 98.174364 48.319397 
L 99.617455 48.428207 
L 101.060545 48.559718 
L 102.503636 48.717474 
L 103.946727 48.905096 
L 105.389818 49.126057 
L 106.832909 49.383331 
L 108.276 49.678853 
L 109.719091 50.012678 
L 111.162182 50.381744 
L 112.605273 50.778068 
L 114.048364 51.186287 
L 115.491455 51.580648 
L 116.934545 51.922031 
L 118.377636 52.156699 
L 119.820727 52.219718 
L 121.263818 52.045842 
L 122.706909 51.586184 
L 124.15 50.822093 
L 125.593091 49.767384 
L 127.036182 48.459537 
L 128.479273 46.948003 
L 129.922364 45.285908 
L 131.365455 43.526241 
L 132.808545 41.721063 
L 134.251636 39.922178 
L 135.694727 38.182306 
L 137.137818 36.556308 
L 138.580909 35.102178 
L 140.024 33.88159 
L 141.467091 32.959713 
L 142.910182 32.404019 
L 144.353273 32.281818 
L 145.796364 32.656386 
L 147.239455 33.581723 
L 148.682545 35.096316 
L 150.125636 37.216685 
L 151.568727 39.931875 
L 153.011818 43.200392 
L 154.454909 46.950904 
L 155.898 51.087397 
L 157.341091 55.498308 
L 158.784182 60.067974 
L 160.227273 64.687964 
L 161.670364 69.265969 
L 163.113455 73.730798 
L 164.556545 78.03323 
L 165.999636 82.143554 
L 167.442727 86.04716 
L 168.885818 89.739555 
L 170.328909 93.221858 
L 171.772 96.497354 
L 173.215091 99.569295 
L 174.658182 102.439838 
L 176.101273 105.109865 
L 177.544364 107.579373 
L 178.987455 109.848157 
L 180.430545 111.916532 
L 181.873636 113.785961 
L 183.316727 115.459495 
L 184.759818 116.942025 
L 186.202909 118.240389 
L 187.646 119.363391 
L 189.089091 120.321759 
L 190.532182 121.128036 
L 191.975273 121.796338 
L 193.418364 122.34194 
L 194.861455 122.780685 
L 196.304545 123.128305 
" style="fill:none;opacity:0.45;stroke:#591e71;stroke-dasharray:2.775,1.2;stroke-dashoffset:0;stroke-width:0.75;"/>
   </g>
   <g id="line2d_12">
    <path clip-path="url(#pc001c8a56b)" d="M 51.995455 74.891583 
L 53.438545 74.89151 
L 54.881636 74.891417 
L 56.324727 74.891298 
L 57.767818 74.891144 
L 59.210909 74.890949 
L 60.654 74.8907 
L 62.097091 74.890385 
L 63.540182 74.889987 
L 64.983273 74.889485 
L 66.426364 74.888851 
L 67.869455 74.888053 
L 69.312545 74.887047 
L 70.755636 74.885781 
L 72.198727 74.884187 
L 73.641818 74.882182 
L 75.084909 74.87966 
L 76.528 74.876488 
L 77.971091 74.872501 
L 79.414182 74.867489 
L 80.857273 74.861195 
L 82.300364 74.853293 
L 83.743455 74.84338 
L 85.186545 74.830956 
L 86.629636 74.815403 
L 88.072727 74.795958 
L 89.515818 74.771689 
L 90.958909 74.741462 
L 92.402 74.703909 
L 93.845091 74.657399 
L 95.288182 74.600005 
L 96.731273 74.52949 
L 98.174364 74.443296 
L 99.617455 74.338568 
L 101.060545 74.212194 
L 102.503636 74.060906 
L 103.946727 73.881427 
L 105.389818 73.670715 
L 106.832909 73.42634 
L 108.276 73.147056 
L 109.719091 72.833668 
L 111.162182 72.490322 
L 112.605273 72.126367 
L 114.048364 71.758877 
L 115.491455 71.415761 
L 116.934545 71.138841 
L 118.377636 70.985252 
L 119.820727 71.02418 
L 121.263818 71.326208 
L 122.706909 71.946893 
L 124.15 72.913221 
L 125.593091 74.221766 
L 127.036182 75.84797 
L 128.479273 77.758392 
L 129.922364 79.919674 
L 131.365455 82.303099 
L 132.808545 84.886215 
L 134.251636 87.653039 
L 135.694727 90.593719 
L 137.137818 93.703997 
L 138.580909 96.984547 
L 140.024 100.440143 
L 141.467091 104.078551 
L 142.910182 107.908975 
L 144.353273 111.939861 
L 145.796364 116.175834 
L 147.239455 120.613693 
L 148.682545 125.237652 
L 150.125636 130.014474 
L 151.568727 134.889597 
L 153.011818 139.785624 
L 154.454909 144.604468 
L 155.898 149.23368 
L 157.341091 153.556404 
L 158.784182 157.463191 
L 160.227273 160.863219 
L 161.670364 163.692631 
L 163.113455 165.918625 
L 164.556545 167.539176 
L 165.999636 168.5793 
L 167.442727 169.085273 
L 168.885818 169.118182 
L 170.328909 168.747823 
L 171.772 168.047519 
L 173.215091 167.090033 
L 174.658182 165.944544 
L 176.101273 164.674539 
L 177.544364 163.336446 
L 178.987455 161.978873 
L 180.430545 160.642338 
L 181.873636 159.359388 
L 183.316727 158.155016 
L 184.759818 157.047274 
L 186.202909 156.047979 
L 187.646 155.163426 
L 189.089091 154.395057 
L 190.532182 153.740111 
L 191.975273 153.192321 
L 193.418364 152.742695 
L 194.861455 152.380415 
L 196.304545 152.093769 
" style="fill:none;opacity:0.45;stroke:#591e71;stroke-dasharray:2.775,1.2;stroke-dashoffset:0;stroke-width:0.75;"/>
   </g>
   <g id="patch_3">
    <path d="M 44.78 175.96 
L 44.78 25.44 
" style="fill:none;stroke:#262626;stroke-linecap:square;stroke-linejoin:miter;stroke-width:0.8;"/>
   </g>
   <g id="patch_4">
    <path d="M 44.78 175.96 
L 203.52 175.96 
" style="fill:none;stroke:#262626;stroke-linecap:square;stroke-linejoin:miter;stroke-width:0.8;"/>
   </g>
   <g id="text_11">
    <!-- Jaguar-macro SM10 -->
    <defs>
     <path d="M 2.875 20.3125 
L 11.421875 21.484375 
Q 11.765625 13.28125 14.5 10.25 
Q 17.234375 7.234375 22.078125 7.234375 
Q 25.640625 7.234375 28.21875 8.859375 
Q 30.8125 10.5 31.78125 13.296875 
Q 32.765625 16.109375 32.765625 22.265625 
L 32.765625 71.578125 
L 42.234375 71.578125 
L 42.234375 22.796875 
Q 42.234375 13.8125 40.0625 8.875 
Q 37.890625 3.953125 33.171875 1.359375 
Q 28.46875 -1.21875 22.125 -1.21875 
Q 12.703125 -1.21875 7.6875 4.203125 
Q 2.6875 9.625 2.875 20.3125 
z
" id="ArialMT-4a"/>
     <path d="M 40.4375 6.390625 
Q 35.546875 2.25 31.03125 0.53125 
Q 26.515625 -1.171875 21.34375 -1.171875 
Q 12.796875 -1.171875 8.203125 3 
Q 3.609375 7.171875 3.609375 13.671875 
Q 3.609375 17.484375 5.34375 20.625 
Q 7.078125 23.78125 9.890625 25.6875 
Q 12.703125 27.59375 16.21875 28.5625 
Q 18.796875 29.25 24.03125 29.890625 
Q 34.671875 31.15625 39.703125 32.90625 
Q 39.75 34.71875 39.75 35.203125 
Q 39.75 40.578125 37.25 42.78125 
Q 33.890625 45.75 27.25 45.75 
Q 21.046875 45.75 18.09375 43.578125 
Q 15.140625 41.40625 13.71875 35.890625 
L 5.125 37.0625 
Q 6.296875 42.578125 8.984375 45.96875 
Q 11.671875 49.359375 16.75 51.1875 
Q 21.828125 53.03125 28.515625 53.03125 
Q 35.15625 53.03125 39.296875 51.46875 
Q 43.453125 49.90625 45.40625 47.53125 
Q 47.359375 45.171875 48.140625 41.546875 
Q 48.578125 39.3125 48.578125 33.453125 
L 48.578125 21.734375 
Q 48.578125 9.46875 49.140625 6.21875 
Q 49.703125 2.984375 51.375 0 
L 42.1875 0 
Q 40.828125 2.734375 40.4375 6.390625 
z
M 39.703125 26.03125 
Q 34.90625 24.078125 25.34375 22.703125 
Q 19.921875 21.921875 17.671875 20.9375 
Q 15.4375 19.96875 14.203125 18.09375 
Q 12.984375 16.21875 12.984375 13.921875 
Q 12.984375 10.40625 15.640625 8.0625 
Q 18.3125 5.71875 23.4375 5.71875 
Q 28.515625 5.71875 32.46875 7.9375 
Q 36.421875 10.15625 38.28125 14.015625 
Q 39.703125 17 39.703125 22.796875 
z
" id="ArialMT-61"/>
     <path d="M 4.984375 -4.296875 
L 13.53125 -5.5625 
Q 14.0625 -9.515625 16.5 -11.328125 
Q 19.78125 -13.765625 25.4375 -13.765625 
Q 31.546875 -13.765625 34.859375 -11.328125 
Q 38.1875 -8.890625 39.359375 -4.5 
Q 40.046875 -1.8125 39.984375 6.78125 
Q 34.234375 0 25.640625 0 
Q 14.9375 0 9.078125 7.71875 
Q 3.21875 15.4375 3.21875 26.21875 
Q 3.21875 33.640625 5.90625 39.90625 
Q 8.59375 46.1875 13.6875 49.609375 
Q 18.796875 53.03125 25.6875 53.03125 
Q 34.859375 53.03125 40.828125 45.609375 
L 40.828125 51.859375 
L 48.921875 51.859375 
L 48.921875 7.03125 
Q 48.921875 -5.078125 46.453125 -10.125 
Q 44 -15.1875 38.640625 -18.109375 
Q 33.296875 -21.046875 25.484375 -21.046875 
Q 16.21875 -21.046875 10.5 -16.875 
Q 4.78125 -12.703125 4.984375 -4.296875 
z
M 12.25 26.859375 
Q 12.25 16.65625 16.296875 11.96875 
Q 20.359375 7.28125 26.46875 7.28125 
Q 32.515625 7.28125 36.609375 11.9375 
Q 40.71875 16.609375 40.71875 26.5625 
Q 40.71875 36.078125 36.5 40.90625 
Q 32.28125 45.75 26.3125 45.75 
Q 20.453125 45.75 16.34375 40.984375 
Q 12.25 36.234375 12.25 26.859375 
z
" id="ArialMT-67"/>
     <path d="M 40.578125 0 
L 40.578125 7.625 
Q 34.515625 -1.171875 24.125 -1.171875 
Q 19.53125 -1.171875 15.546875 0.578125 
Q 11.578125 2.34375 9.640625 5 
Q 7.71875 7.671875 6.9375 11.53125 
Q 6.390625 14.109375 6.390625 19.734375 
L 6.390625 51.859375 
L 15.1875 51.859375 
L 15.1875 23.09375 
Q 15.1875 16.21875 15.71875 13.8125 
Q 16.546875 10.359375 19.234375 8.375 
Q 21.921875 6.390625 25.875 6.390625 
Q 29.828125 6.390625 33.296875 8.421875 
Q 36.765625 10.453125 38.203125 13.9375 
Q 39.65625 17.4375 39.65625 24.078125 
L 39.65625 51.859375 
L 48.4375 51.859375 
L 48.4375 0 
z
" id="ArialMT-75"/>
     <path d="M 6.5 0 
L 6.5 51.859375 
L 14.40625 51.859375 
L 14.40625 44 
Q 17.4375 49.515625 20 51.265625 
Q 22.5625 53.03125 25.640625 53.03125 
Q 30.078125 53.03125 34.671875 50.203125 
L 31.640625 42.046875 
Q 28.421875 43.953125 25.203125 43.953125 
Q 22.3125 43.953125 20.015625 42.21875 
Q 17.71875 40.484375 16.75 37.40625 
Q 15.28125 32.71875 15.28125 27.15625 
L 15.28125 0 
z
" id="ArialMT-72"/>
     <path d="M 3.171875 21.484375 
L 3.171875 30.328125 
L 30.171875 30.328125 
L 30.171875 21.484375 
z
" id="ArialMT-2d"/>
     <path d="M 6.59375 0 
L 6.59375 51.859375 
L 14.453125 51.859375 
L 14.453125 44.578125 
Q 16.890625 48.390625 20.9375 50.703125 
Q 25 53.03125 30.171875 53.03125 
Q 35.9375 53.03125 39.625 50.640625 
Q 43.3125 48.25 44.828125 43.953125 
Q 50.984375 53.03125 60.84375 53.03125 
Q 68.5625 53.03125 72.703125 48.75 
Q 76.859375 44.484375 76.859375 35.59375 
L 76.859375 0 
L 68.109375 0 
L 68.109375 32.671875 
Q 68.109375 37.9375 67.25 40.25 
Q 66.40625 42.578125 64.15625 43.984375 
Q 61.921875 45.40625 58.890625 45.40625 
Q 53.421875 45.40625 49.796875 41.765625 
Q 46.1875 38.140625 46.1875 30.125 
L 46.1875 0 
L 37.40625 0 
L 37.40625 33.6875 
Q 37.40625 39.546875 35.25 42.46875 
Q 33.109375 45.40625 28.21875 45.40625 
Q 24.515625 45.40625 21.359375 43.453125 
Q 18.21875 41.5 16.796875 37.734375 
Q 15.375 33.984375 15.375 26.90625 
L 15.375 0 
z
" id="ArialMT-6d"/>
     <path d="M 40.4375 19 
L 49.078125 17.875 
Q 47.65625 8.9375 41.8125 3.875 
Q 35.984375 -1.171875 27.484375 -1.171875 
Q 16.84375 -1.171875 10.375 5.78125 
Q 3.90625 12.75 3.90625 25.734375 
Q 3.90625 34.125 6.6875 40.421875 
Q 9.46875 46.734375 15.15625 49.875 
Q 20.84375 53.03125 27.546875 53.03125 
Q 35.984375 53.03125 41.359375 48.75 
Q 46.734375 44.484375 48.25 36.625 
L 39.703125 35.296875 
Q 38.484375 40.53125 35.375 43.15625 
Q 32.28125 45.796875 27.875 45.796875 
Q 21.234375 45.796875 17.078125 41.03125 
Q 12.9375 36.28125 12.9375 25.984375 
Q 12.9375 15.53125 16.9375 10.796875 
Q 20.953125 6.0625 27.390625 6.0625 
Q 32.5625 6.0625 36.03125 9.234375 
Q 39.5 12.40625 40.4375 19 
z
" id="ArialMT-63"/>
     <path d="M 3.328125 25.921875 
Q 3.328125 40.328125 11.328125 47.265625 
Q 18.015625 53.03125 27.640625 53.03125 
Q 38.328125 53.03125 45.109375 46.015625 
Q 51.90625 39.015625 51.90625 26.65625 
Q 51.90625 16.65625 48.90625 10.90625 
Q 45.90625 5.171875 40.15625 2 
Q 34.421875 -1.171875 27.640625 -1.171875 
Q 16.75 -1.171875 10.03125 5.8125 
Q 3.328125 12.796875 3.328125 25.921875 
z
M 12.359375 25.921875 
Q 12.359375 15.96875 16.703125 11.015625 
Q 21.046875 6.0625 27.640625 6.0625 
Q 34.1875 6.0625 38.53125 11.03125 
Q 42.875 16.015625 42.875 26.21875 
Q 42.875 35.84375 38.5 40.796875 
Q 34.125 45.75 27.640625 45.75 
Q 21.046875 45.75 16.703125 40.8125 
Q 12.359375 35.890625 12.359375 25.921875 
z
" id="ArialMT-6f"/>
     <path id="ArialMT-20"/>
     <path d="M 4.5 23 
L 13.421875 23.78125 
Q 14.0625 18.40625 16.375 14.96875 
Q 18.703125 11.53125 23.578125 9.40625 
Q 28.46875 7.28125 34.578125 7.28125 
Q 39.984375 7.28125 44.140625 8.890625 
Q 48.296875 10.5 50.3125 13.296875 
Q 52.34375 16.109375 52.34375 19.4375 
Q 52.34375 22.796875 50.390625 25.3125 
Q 48.4375 27.828125 43.953125 29.546875 
Q 41.0625 30.671875 31.203125 33.03125 
Q 21.34375 35.40625 17.390625 37.5 
Q 12.25 40.1875 9.734375 44.15625 
Q 7.234375 48.140625 7.234375 53.078125 
Q 7.234375 58.5 10.296875 63.203125 
Q 13.375 67.921875 19.28125 70.359375 
Q 25.203125 72.796875 32.421875 72.796875 
Q 40.375 72.796875 46.453125 70.234375 
Q 52.546875 67.671875 55.8125 62.6875 
Q 59.078125 57.71875 59.328125 51.421875 
L 50.25 50.734375 
Q 49.515625 57.515625 45.28125 60.984375 
Q 41.0625 64.453125 32.8125 64.453125 
Q 24.21875 64.453125 20.28125 61.296875 
Q 16.359375 58.15625 16.359375 53.71875 
Q 16.359375 49.859375 19.140625 47.359375 
Q 21.875 44.875 33.421875 42.265625 
Q 44.96875 39.65625 49.265625 37.703125 
Q 55.515625 34.8125 58.484375 30.390625 
Q 61.46875 25.984375 61.46875 20.21875 
Q 61.46875 14.5 58.203125 9.4375 
Q 54.9375 4.390625 48.796875 1.578125 
Q 42.671875 -1.21875 35.015625 -1.21875 
Q 25.296875 -1.21875 18.71875 1.609375 
Q 12.15625 4.4375 8.421875 10.125 
Q 4.6875 15.828125 4.5 23 
z
" id="ArialMT-53"/>
     <path d="M 7.421875 0 
L 7.421875 71.578125 
L 21.6875 71.578125 
L 38.625 20.90625 
Q 40.96875 13.8125 42.046875 10.296875 
Q 43.265625 14.203125 45.84375 21.78125 
L 62.984375 71.578125 
L 75.734375 71.578125 
L 75.734375 0 
L 66.609375 0 
L 66.609375 59.90625 
L 45.796875 0 
L 37.25 0 
L 16.546875 60.9375 
L 16.546875 0 
z
" id="ArialMT-4d"/>
    </defs>
    <g style="fill:#262626;" transform="translate(69.799375 19.44)scale(0.12 -0.12)">
     <use xlink:href="#ArialMT-4a"/>
     <use x="50" xlink:href="#ArialMT-61"/>
     <use x="105.615234" xlink:href="#ArialMT-67"/>
     <use x="161.230469" xlink:href="#ArialMT-75"/>
     <use x="216.845703" xlink:href="#ArialMT-61"/>
     <use x="272.460938" xlink:href="#ArialMT-72"/>
     <use x="305.761719" xlink:href="#ArialMT-2d"/>
     <use x="339.0625" xlink:href="#ArialMT-6d"/>
     <use x="422.363281" xlink:href="#ArialMT-61"/>
     <use x="477.978516" xlink:href="#ArialMT-63"/>
     <use x="527.978516" xlink:href="#ArialMT-72"/>
     <use x="561.279297" xlink:href="#ArialMT-6f"/>
     <use x="616.894531" xlink:href="#ArialMT-20"/>
     <use x="644.677734" xlink:href="#ArialMT-53"/>
     <use x="711.376953" xlink:href="#ArialMT-4d"/>
     <use x="794.677734" xlink:href="#ArialMT-31"/>
     <use x="850.292969" xlink:href="#ArialMT-30"/>
    </g>
   </g>
  </g>
 </g>
 <defs>
  <clipPath id="pc001c8a56b">
   <rect height="150.52" width="158.74" x="44.78" y="25.44"/>
  </clipPath>
 </defs>
</svg>
