<?xml version="1.0" encoding="utf-8" standalone="no"?>
<!DOCTYPE svg PUBLIC "-//W3C//DTD SVG 1.1//EN"
  "http://www.w3.org/Graphics/SVG/1.1/DTD/svg11.dtd">
<!-- Created with matplotlib (http://matplotlib.org/) -->
<svg height="144pt" version="1.1" viewBox="0 0 144 144" width="144pt" xmlns="http://www.w3.org/2000/svg" xmlns:xlink="http://www.w3.org/1999/xlink">
 <defs>
  <style type="text/css">
*{stroke-linecap:butt;stroke-linejoin:round;}
  </style>
 </defs>
 <g id="figure_1">
  <g id="patch_1">
   <path d="M 0 144 
L 144 144 
L 144 0 
L 0 0 
z
" style="fill:#ffffff;"/>
  </g>
  <g id="axes_1">
   <g id="patch_2">
    <path d="M 41.96 101.92 
L 130.44 101.92 
L 130.44 27.48 
L 41.96 27.48 
z
" style="fill:#ffffff;"/>
   </g>
   <g id="matplotlib.axis_1">
    <g id="xtick_1">
     <g id="line2d_1">
      <defs>
       <path d="M 0 0 
L 0 3.5 
" id="mac54218850" style="stroke:#262626;stroke-width:0.8;"/>
      </defs>
      <g>
       <use style="fill:#262626;stroke:#262626;stroke-width:0.8;" x="45.981818" xlink:href="#mac54218850" y="101.92"/>
      </g>
     </g>
     <g id="text_1">
      <!-- 2 -->
      <defs>
       <path d="M 50.34375 8.453125 
L 50.34375 0 
L 3.03125 0 
Q 2.9375 3.171875 4.046875 6.109375 
Q 5.859375 10.9375 9.828125 15.625 
Q 13.8125 20.3125 21.34375 26.46875 
Q 33.015625 36.03125 37.109375 41.625 
Q 41.21875 47.21875 41.21875 52.203125 
Q 41.21875 57.421875 37.46875 61 
Q 33.734375 64.59375 27.734375 64.59375 
Q 21.390625 64.59375 17.578125 60.78125 
Q 13.765625 56.984375 13.71875 50.25 
L 4.6875 51.171875 
Q 5.609375 61.28125 11.65625 66.578125 
Q 17.71875 71.875 27.9375 71.875 
Q 38.234375 71.875 44.234375 66.15625 
Q 50.25 60.453125 50.25 52 
Q 50.25 47.703125 48.484375 43.546875 
Q 46.734375 39.40625 42.65625 34.8125 
Q 38.578125 30.21875 29.109375 22.21875 
Q 21.1875 15.578125 18.9375 13.203125 
Q 16.703125 10.84375 15.234375 8.453125 
z
" id="ArialMT-32"/>
      </defs>
      <g style="fill:#262626;" transform="translate(42.923303 116.793594)scale(0.11 -0.11)">
       <use xlink:href="#ArialMT-32"/>
      </g>
     </g>
    </g>
    <g id="xtick_2">
     <g id="line2d_2">
      <g>
       <use style="fill:#262626;stroke:#262626;stroke-width:0.8;" x="62.069091" xlink:href="#mac54218850" y="101.92"/>
      </g>
     </g>
     <g id="text_2">
      <!-- 4 -->
      <defs>
       <path d="M 32.328125 0 
L 32.328125 17.140625 
L 1.265625 17.140625 
L 1.265625 25.203125 
L 33.9375 71.578125 
L 41.109375 71.578125 
L 41.109375 25.203125 
L 50.78125 25.203125 
L 50.78125 17.140625 
L 41.109375 17.140625 
L 41.109375 0 
z
M 32.328125 25.203125 
L 32.328125 57.46875 
L 9.90625 25.203125 
z
" id="ArialMT-34"/>
      </defs>
      <g style="fill:#262626;" transform="translate(59.010575 116.793594)scale(0.11 -0.11)">
       <use xlink:href="#ArialMT-34"/>
      </g>
     </g>
    </g>
    <g id="xtick_3">
     <g id="line2d_3">
      <g>
       <use style="fill:#262626;stroke:#262626;stroke-width:0.8;" x="78.156364" xlink:href="#mac54218850" y="101.92"/>
      </g>
     </g>
     <g id="text_3">
      <!-- 6 -->
      <defs>
       <path d="M 49.75 54.046875 
L 41.015625 53.375 
Q 39.84375 58.546875 37.703125 60.890625 
Q 34.125 64.65625 28.90625 64.65625 
Q 24.703125 64.65625 21.53125 62.3125 
Q 17.390625 59.28125 14.984375 53.46875 
Q 12.59375 47.65625 12.5 36.921875 
Q 15.671875 41.75 20.265625 44.09375 
Q 24.859375 46.4375 29.890625 46.4375 
Q 38.671875 46.4375 44.84375 39.96875 
Q 51.03125 33.5 51.03125 23.25 
Q 51.03125 16.5 48.125 10.71875 
Q 45.21875 4.9375 40.140625 1.859375 
Q 35.0625 -1.21875 28.609375 -1.21875 
Q 17.625 -1.21875 10.6875 6.859375 
Q 3.765625 14.9375 3.765625 33.5 
Q 3.765625 54.25 11.421875 63.671875 
Q 18.109375 71.875 29.4375 71.875 
Q 37.890625 71.875 43.28125 67.140625 
Q 48.6875 62.40625 49.75 54.046875 
z
M 13.875 23.1875 
Q 13.875 18.65625 15.796875 14.5 
Q 17.71875 10.359375 21.1875 8.171875 
Q 24.65625 6 28.46875 6 
Q 34.03125 6 38.03125 10.484375 
Q 42.046875 14.984375 42.046875 22.703125 
Q 42.046875 30.125 38.078125 34.390625 
Q 34.125 38.671875 28.125 38.671875 
Q 22.171875 38.671875 18.015625 34.390625 
Q 13.875 30.125 13.875 23.1875 
z
" id="ArialMT-36"/>
      </defs>
      <g style="fill:#262626;" transform="translate(75.097848 116.793594)scale(0.11 -0.11)">
       <use xlink:href="#ArialMT-36"/>
      </g>
     </g>
    </g>
    <g id="xtick_4">
     <g id="line2d_4">
      <g>
       <use style="fill:#262626;stroke:#262626;stroke-width:0.8;" x="94.243636" xlink:href="#mac54218850" y="101.92"/>
      </g>
     </g>
     <g id="text_4">
      <!-- 8 -->
      <defs>
       <path d="M 17.671875 38.8125 
Q 12.203125 40.828125 9.5625 44.53125 
Q 6.9375 48.25 6.9375 53.421875 
Q 6.9375 61.234375 12.546875 66.546875 
Q 18.171875 71.875 27.484375 71.875 
Q 36.859375 71.875 42.578125 66.421875 
Q 48.296875 60.984375 48.296875 53.171875 
Q 48.296875 48.1875 45.671875 44.5 
Q 43.0625 40.828125 37.75 38.8125 
Q 44.34375 36.671875 47.78125 31.875 
Q 51.21875 27.09375 51.21875 20.453125 
Q 51.21875 11.28125 44.71875 5.03125 
Q 38.234375 -1.21875 27.640625 -1.21875 
Q 17.046875 -1.21875 10.546875 5.046875 
Q 4.046875 11.328125 4.046875 20.703125 
Q 4.046875 27.6875 7.59375 32.390625 
Q 11.140625 37.109375 17.671875 38.8125 
z
M 15.921875 53.71875 
Q 15.921875 48.640625 19.1875 45.40625 
Q 22.46875 42.1875 27.6875 42.1875 
Q 32.765625 42.1875 36.015625 45.375 
Q 39.265625 48.578125 39.265625 53.21875 
Q 39.265625 58.0625 35.90625 61.359375 
Q 32.5625 64.65625 27.59375 64.65625 
Q 22.5625 64.65625 19.234375 61.421875 
Q 15.921875 58.203125 15.921875 53.71875 
z
M 13.09375 20.65625 
Q 13.09375 16.890625 14.875 13.375 
Q 16.65625 9.859375 20.171875 7.921875 
Q 23.6875 6 27.734375 6 
Q 34.03125 6 38.125 10.046875 
Q 42.234375 14.109375 42.234375 20.359375 
Q 42.234375 26.703125 38.015625 30.859375 
Q 33.796875 35.015625 27.4375 35.015625 
Q 21.234375 35.015625 17.15625 30.90625 
Q 13.09375 26.8125 13.09375 20.65625 
z
" id="ArialMT-38"/>
      </defs>
      <g style="fill:#262626;" transform="translate(91.185121 116.793594)scale(0.11 -0.11)">
       <use xlink:href="#ArialMT-38"/>
      </g>
     </g>
    </g>
    <g id="xtick_5">
     <g id="line2d_5">
      <g>
       <use style="fill:#262626;stroke:#262626;stroke-width:0.8;" x="110.330909" xlink:href="#mac54218850" y="101.92"/>
      </g>
     </g>
     <g id="text_5">
      <!-- 10 -->
      <defs>
       <path d="M 37.25 0 
L 28.46875 0 
L 28.46875 56 
Q 25.296875 52.984375 20.140625 49.953125 
Q 14.984375 46.921875 10.890625 45.40625 
L 10.890625 53.90625 
Q 18.265625 57.375 23.78125 62.296875 
Q 29.296875 67.234375 31.59375 71.875 
L 37.25 71.875 
z
" id="ArialMT-31"/>
       <path d="M 4.15625 35.296875 
Q 4.15625 48 6.765625 55.734375 
Q 9.375 63.484375 14.515625 67.671875 
Q 19.671875 71.875 27.484375 71.875 
Q 33.25 71.875 37.59375 69.546875 
Q 41.9375 67.234375 44.765625 62.859375 
Q 47.609375 58.5 49.21875 52.21875 
Q 50.828125 45.953125 50.828125 35.296875 
Q 50.828125 22.703125 48.234375 14.96875 
Q 45.65625 7.234375 40.5 3 
Q 35.359375 -1.21875 27.484375 -1.21875 
Q 17.140625 -1.21875 11.234375 6.203125 
Q 4.15625 15.140625 4.15625 35.296875 
z
M 13.1875 35.296875 
Q 13.1875 17.671875 17.3125 11.828125 
Q 21.4375 6 27.484375 6 
Q 33.546875 6 37.671875 11.859375 
Q 41.796875 17.71875 41.796875 35.296875 
Q 41.796875 52.984375 37.671875 58.78125 
Q 33.546875 64.59375 27.390625 64.59375 
Q 21.34375 64.59375 17.71875 59.46875 
Q 13.1875 52.9375 13.1875 35.296875 
z
" id="ArialMT-30"/>
      </defs>
      <g style="fill:#262626;" transform="translate(104.213878 116.793594)scale(0.11 -0.11)">
       <use xlink:href="#ArialMT-31"/>
       <use x="55.615234" xlink:href="#ArialMT-30"/>
      </g>
     </g>
    </g>
    <g id="xtick_6">
     <g id="line2d_6">
      <g>
       <use style="fill:#262626;stroke:#262626;stroke-width:0.8;" x="126.418182" xlink:href="#mac54218850" y="101.92"/>
      </g>
     </g>
     <g id="text_6">
      <!-- 12 -->
      <g style="fill:#262626;" transform="translate(120.301151 116.793594)scale(0.11 -0.11)">
       <use xlink:href="#ArialMT-31"/>
       <use x="55.615234" xlink:href="#ArialMT-32"/>
      </g>
     </g>
    </g>
    <g id="text_7">
     <!-- pH -->
     <defs>
      <path d="M 6.59375 -19.875 
L 6.59375 51.859375 
L 14.59375 51.859375 
L 14.59375 45.125 
Q 17.4375 49.078125 21 51.046875 
Q 24.5625 53.03125 29.640625 53.03125 
Q 36.28125 53.03125 41.359375 49.609375 
Q 46.4375 46.1875 49.015625 39.953125 
Q 51.609375 33.734375 51.609375 26.3125 
Q 51.609375 18.359375 48.75 11.984375 
Q 45.90625 5.609375 40.453125 2.21875 
Q 35.015625 -1.171875 29 -1.171875 
Q 24.609375 -1.171875 21.109375 0.6875 
Q 17.625 2.546875 15.375 5.375 
L 15.375 -19.875 
z
M 14.546875 25.640625 
Q 14.546875 15.625 18.59375 10.84375 
Q 22.65625 6.0625 28.421875 6.0625 
Q 34.28125 6.0625 38.453125 11.015625 
Q 42.625 15.96875 42.625 26.375 
Q 42.625 36.28125 38.546875 41.203125 
Q 34.46875 46.140625 28.8125 46.140625 
Q 23.1875 46.140625 18.859375 40.890625 
Q 14.546875 35.640625 14.546875 25.640625 
z
" id="ArialMT-70"/>
      <path d="M 8.015625 0 
L 8.015625 71.578125 
L 17.484375 71.578125 
L 17.484375 42.1875 
L 54.6875 42.1875 
L 54.6875 71.578125 
L 64.15625 71.578125 
L 64.15625 0 
L 54.6875 0 
L 54.6875 33.734375 
L 17.484375 33.734375 
L 17.484375 0 
z
" id="ArialMT-48"/>
     </defs>
     <g style="fill:#262626;" transform="translate(79.169453 130.853437)scale(0.11 -0.11)">
      <use xlink:href="#ArialMT-70"/>
      <use x="55.615234" xlink:href="#ArialMT-48"/>
     </g>
    </g>
   </g>
   <g id="matplotlib.axis_2">
    <g id="ytick_1">
     <g id="line2d_7">
      <defs>
       <path d="M 0 0 
L -3.5 0 
" id="m07ad8d0806" style="stroke:#262626;stroke-width:0.8;"/>
      </defs>
      <g>
       <use style="fill:#262626;stroke:#262626;stroke-width:0.8;" x="41.96" xlink:href="#m07ad8d0806" y="96.155815"/>
      </g>
     </g>
     <g id="text_8">
      <!-- 0 -->
      <g style="fill:#262626;" transform="translate(28.842969 100.092612)scale(0.11 -0.11)">
       <use xlink:href="#ArialMT-30"/>
      </g>
     </g>
    </g>
    <g id="ytick_2">
     <g id="line2d_8">
      <g>
       <use style="fill:#262626;stroke:#262626;stroke-width:0.8;" x="41.96" xlink:href="#m07ad8d0806" y="30.852548"/>
      </g>
     </g>
     <g id="text_9">
      <!-- 1 -->
      <g style="fill:#262626;" transform="translate(28.842969 34.789345)scale(0.11 -0.11)">
       <use xlink:href="#ArialMT-31"/>
      </g>
     </g>
    </g>
    <g id="text_10">
     <!-- $\langle q_\mathsf{total} \rangle$ -->
     <defs>
      <path d="M 8.9375 31.34375 
L 22.703125 75.875 
L 31 75.875 
L 17.234375 31.34375 
L 31 -13.1875 
L 22.703125 -13.1875 
z
" id="DejaVuSans-27e8"/>
      <path d="M 41.703125 8.203125 
Q 38.09375 3.46875 33.171875 1.015625 
Q 28.265625 -1.421875 22.3125 -1.421875 
Q 14.015625 -1.421875 9.296875 4.171875 
Q 4.59375 9.765625 4.59375 19.578125 
Q 4.59375 27.484375 7.5 34.859375 
Q 10.40625 42.234375 15.828125 48.09375 
Q 19.34375 51.90625 23.90625 53.953125 
Q 28.46875 56 33.5 56 
Q 39.546875 56 43.453125 53.609375 
Q 47.359375 51.21875 49.125 46.390625 
L 50.6875 54.59375 
L 59.71875 54.59375 
L 45.125 -20.609375 
L 36.078125 -20.609375 
z
M 13.921875 20.90625 
Q 13.921875 13.671875 16.9375 9.890625 
Q 19.96875 6.109375 25.6875 6.109375 
Q 34.1875 6.109375 40.1875 14.234375 
Q 46.1875 22.359375 46.1875 33.984375 
Q 46.1875 41.015625 43.078125 44.75 
Q 39.984375 48.484375 34.1875 48.484375 
Q 29.9375 48.484375 26.3125 46.5 
Q 22.703125 44.53125 20.015625 40.71875 
Q 17.1875 36.71875 15.546875 31.34375 
Q 13.921875 25.984375 13.921875 20.90625 
z
" id="DejaVuSans-Oblique-71"/>
      <path d="M 18.3125 70.21875 
L 18.3125 54.6875 
L 36.8125 54.6875 
L 36.8125 47.703125 
L 18.3125 47.703125 
L 18.3125 18.015625 
Q 18.3125 11.328125 20.140625 9.421875 
Q 21.96875 7.515625 27.59375 7.515625 
L 36.8125 7.515625 
L 36.8125 0 
L 27.59375 0 
Q 17.1875 0 13.234375 3.875 
Q 9.28125 7.765625 9.28125 18.015625 
L 9.28125 47.703125 
L 2.6875 47.703125 
L 2.6875 54.6875 
L 9.28125 54.6875 
L 9.28125 70.21875 
z
" id="DejaVuSans-74"/>
      <path d="M 30.609375 48.390625 
Q 23.390625 48.390625 19.1875 42.75 
Q 14.984375 37.109375 14.984375 27.296875 
Q 14.984375 17.484375 19.15625 11.84375 
Q 23.34375 6.203125 30.609375 6.203125 
Q 37.796875 6.203125 41.984375 11.859375 
Q 46.1875 17.53125 46.1875 27.296875 
Q 46.1875 37.015625 41.984375 42.703125 
Q 37.796875 48.390625 30.609375 48.390625 
z
M 30.609375 56 
Q 42.328125 56 49.015625 48.375 
Q 55.71875 40.765625 55.71875 27.296875 
Q 55.71875 13.875 49.015625 6.21875 
Q 42.328125 -1.421875 30.609375 -1.421875 
Q 18.84375 -1.421875 12.171875 6.21875 
Q 5.515625 13.875 5.515625 27.296875 
Q 5.515625 40.765625 12.171875 48.375 
Q 18.84375 56 30.609375 56 
z
" id="DejaVuSans-6f"/>
      <path d="M 34.28125 27.484375 
Q 23.390625 27.484375 19.1875 25 
Q 14.984375 22.515625 14.984375 16.5 
Q 14.984375 11.71875 18.140625 8.90625 
Q 21.296875 6.109375 26.703125 6.109375 
Q 34.1875 6.109375 38.703125 11.40625 
Q 43.21875 16.703125 43.21875 25.484375 
L 43.21875 27.484375 
z
M 52.203125 31.203125 
L 52.203125 0 
L 43.21875 0 
L 43.21875 8.296875 
Q 40.140625 3.328125 35.546875 0.953125 
Q 30.953125 -1.421875 24.3125 -1.421875 
Q 15.921875 -1.421875 10.953125 3.296875 
Q 6 8.015625 6 15.921875 
Q 6 25.140625 12.171875 29.828125 
Q 18.359375 34.515625 30.609375 34.515625 
L 43.21875 34.515625 
L 43.21875 35.40625 
Q 43.21875 41.609375 39.140625 45 
Q 35.0625 48.390625 27.6875 48.390625 
Q 23 48.390625 18.546875 47.265625 
Q 14.109375 46.140625 10.015625 43.890625 
L 10.015625 52.203125 
Q 14.9375 54.109375 19.578125 55.046875 
Q 24.21875 56 28.609375 56 
Q 40.484375 56 46.34375 49.84375 
Q 52.203125 43.703125 52.203125 31.203125 
z
" id="DejaVuSans-61"/>
      <path d="M 9.421875 75.984375 
L 18.40625 75.984375 
L 18.40625 0 
L 9.421875 0 
z
" id="DejaVuSans-6c"/>
      <path d="M 30.078125 31.34375 
L 16.3125 -13.1875 
L 8.015625 -13.1875 
L 21.78125 31.34375 
L 8.015625 75.875 
L 16.3125 75.875 
z
" id="DejaVuSans-27e9"/>
     </defs>
     <g style="fill:#262626;" transform="translate(22.532969 81.475)rotate(-90)scale(0.11 -0.11)">
      <use transform="translate(0 0.125)" xlink:href="#DejaVuSans-27e8"/>
      <use transform="translate(39.013672 0.125)" xlink:href="#DejaVuSans-Oblique-71"/>
      <use transform="translate(102.490234 -16.28125)scale(0.7)" xlink:href="#DejaVuSans-74"/>
      <use transform="translate(129.936523 -16.28125)scale(0.7)" xlink:href="#DejaVuSans-6f"/>
      <use transform="translate(172.763672 -16.28125)scale(0.7)" xlink:href="#DejaVuSans-74"/>
      <use transform="translate(200.209961 -16.28125)scale(0.7)" xlink:href="#DejaVuSans-61"/>
      <use transform="translate(243.105469 -16.28125)scale(0.7)" xlink:href="#DejaVuSans-6c"/>
      <use transform="translate(265.288086 0.125)" xlink:href="#DejaVuSans-27e9"/>
     </g>
    </g>
   </g>
   <g id="PolyCollection_1">
    <defs>
     <path d="M 45.981818 -113.136364 
L 45.981818 -113.136364 
L 46.786182 -113.133493 
L 47.590545 -113.12988 
L 48.394909 -113.125332 
L 49.199273 -113.119607 
L 50.003636 -113.112401 
L 50.808 -113.103331 
L 51.612364 -113.091917 
L 52.416727 -113.077553 
L 53.221091 -113.059479 
L 54.025455 -113.036739 
L 54.829818 -113.008134 
L 55.634182 -112.972158 
L 56.438545 -112.926923 
L 57.242909 -112.870065 
L 58.047273 -112.798626 
L 58.851636 -112.708912 
L 59.656 -112.596322 
L 60.460364 -112.455133 
L 61.264727 -112.27826 
L 62.069091 -112.056962 
L 62.873455 -111.780517 
L 63.677818 -111.43586 
L 64.482182 -111.00721 
L 65.286545 -110.475719 
L 66.090909 -109.819197 
L 66.895273 -109.012 
L 67.699636 -108.025215 
L 68.504 -106.827297 
L 69.308364 -105.385361 
L 70.112727 -103.667323 
L 70.917091 -101.645034 
L 71.721455 -99.298377 
L 72.525818 -96.620039 
L 73.330182 -93.620299 
L 74.134545 -90.330792 
L 74.938909 -86.806019 
L 75.743273 -83.121547 
L 76.547636 -79.368519 
L 77.352 -75.645078 
L 78.156364 -72.046323 
L 78.960727 -68.65491 
L 79.765091 -65.534189 
L 80.569455 -62.724927 
L 81.373818 -60.245591 
L 82.178182 -58.095363 
L 82.982545 -56.258654 
L 83.786909 -54.709988 
L 84.591273 -53.418422 
L 85.395636 -52.351082 
L 86.2 -51.475687 
L 87.004364 -50.762164 
L 87.808727 -50.183517 
L 88.613091 -49.716174 
L 89.417455 -49.339978 
L 90.221818 -49.037959 
L 91.026182 -48.796012 
L 91.830545 -48.602521 
L 92.634909 -48.447995 
L 93.439273 -48.324722 
L 94.243636 -48.226468 
L 95.048 -48.148209 
L 95.852364 -48.085911 
L 96.656727 -48.036341 
L 97.461091 -47.996912 
L 98.265455 -47.965559 
L 99.069818 -47.940633 
L 99.874182 -47.920819 
L 100.678545 -47.905072 
L 101.482909 -47.892559 
L 102.287273 -47.882615 
L 103.091636 -47.874715 
L 103.896 -47.868438 
L 104.700364 -47.863451 
L 105.504727 -47.85949 
L 106.309091 -47.856342 
L 107.113455 -47.853842 
L 107.917818 -47.851856 
L 108.722182 -47.850279 
L 109.526545 -47.849025 
L 110.330909 -47.84803 
L 111.135273 -47.847239 
L 111.939636 -47.846611 
L 112.744 -47.846112 
L 113.548364 -47.845715 
L 114.352727 -47.845401 
L 115.157091 -47.845151 
L 115.961455 -47.844952 
L 116.765818 -47.844794 
L 117.570182 -47.844669 
L 118.374545 -47.844569 
L 119.178909 -47.84449 
L 119.983273 -47.844427 
L 120.787636 -47.844377 
L 121.592 -47.844338 
L 122.396364 -47.844306 
L 123.200727 -47.844281 
L 124.005091 -47.844261 
L 124.809455 -47.844246 
L 125.613818 -47.844233 
L 126.418182 -47.844223 
L 126.418182 -47.844223 
L 126.418182 -45.463636 
L 125.613818 -45.938972 
L 124.809455 -46.321696 
L 124.005091 -46.629016 
L 123.200727 -46.875251 
L 122.396364 -47.072199 
L 121.592 -47.229508 
L 120.787636 -47.355018 
L 119.983273 -47.45507 
L 119.178909 -47.534777 
L 118.374545 -47.598244 
L 117.570182 -47.648764 
L 116.765818 -47.688972 
L 115.961455 -47.720975 
L 115.157091 -47.746455 
L 114.352727 -47.766754 
L 113.548364 -47.782945 
L 112.744 -47.795884 
L 111.939636 -47.806257 
L 111.135273 -47.814614 
L 110.330909 -47.821399 
L 109.526545 -47.826972 
L 108.722182 -47.831629 
L 107.917818 -47.835618 
L 107.113455 -47.839151 
L 106.309091 -47.842416 
L 105.504727 -47.845588 
L 104.700364 -47.848833 
L 103.896 -47.852327 
L 103.091636 -47.856253 
L 102.287273 -47.860822 
L 101.482909 -47.866276 
L 100.678545 -47.872905 
L 99.874182 -47.881061 
L 99.069818 -47.891177 
L 98.265455 -47.90379 
L 97.461091 -47.919568 
L 96.656727 -47.939346 
L 95.852364 -47.964169 
L 95.048 -47.995346 
L 94.243636 -48.034515 
L 93.439273 -48.08373 
L 92.634909 -48.145559 
L 91.830545 -48.223212 
L 91.026182 -48.320692 
L 90.221818 -48.442986 
L 89.417455 -48.596281 
L 88.613091 -48.788232 
L 87.808727 -49.02826 
L 87.004364 -49.327899 
L 86.2 -49.70116 
L 85.395636 -50.164902 
L 84.591273 -50.739165 
L 83.786909 -51.447397 
L 82.982545 -52.316472 
L 82.178182 -53.376365 
L 81.373818 -54.659302 
L 80.569455 -56.198172 
L 79.765091 -58.024043 
L 78.960727 -60.16266 
L 78.156364 -62.630051 
L 77.352 -65.427649 
L 76.547636 -68.537744 
L 75.743273 -71.920397 
L 74.938909 -75.513032 
L 74.134545 -79.233591 
L 73.330182 -82.987267 
L 72.525818 -86.675853 
L 71.721455 -90.207789 
L 70.917091 -93.506831 
L 70.112727 -96.51767 
L 69.308364 -99.207856 
L 68.504 -101.5664 
L 67.699636 -103.60006 
L 66.895273 -105.328581 
L 66.090909 -106.779898 
L 65.286545 -107.986015 
L 64.482182 -108.979829 
L 63.677818 -109.792961 
L 62.873455 -110.454435 
L 62.069091 -110.990015 
L 61.264727 -111.422016 
L 60.460364 -111.769403 
L 59.656 -112.048059 
L 58.851636 -112.271142 
L 58.047273 -112.449451 
L 57.242909 -112.591793 
L 56.438545 -112.705309 
L 55.634182 -112.795762 
L 54.829818 -112.867794 
L 54.025455 -112.925128 
L 53.221091 -112.970744 
L 52.416727 -113.007028 
L 51.612364 -113.035883 
L 50.808 -113.058828 
L 50.003636 -113.077072 
L 49.199273 -113.091581 
L 48.394909 -113.103122 
L 47.590545 -113.112308 
L 46.786182 -113.119625 
L 45.981818 -113.125462 
z
" id="m568bd9c88e" style="stroke:#ffffff;stroke-opacity:0.7;"/>
    </defs>
    <g clip-path="url(#p88801df051)">
     <use style="fill:#591e71;fill-opacity:0.7;stroke:#ffffff;stroke-opacity:0.7;" x="0" xlink:href="#m568bd9c88e" y="144"/>
    </g>
   </g>
   <g id="line2d_9">
    <path clip-path="url(#p88801df051)" d="M 45.981818 30.863636 
L 46.786182 30.866507 
L 47.590545 30.87012 
L 48.394909 30.874668 
L 49.199273 30.880393 
L 50.003636 30.887599 
L 50.808 30.896669 
L 51.612364 30.908083 
L 52.416727 30.922447 
L 53.221091 30.940521 
L 54.025455 30.963261 
L 54.829818 30.991866 
L 55.634182 31.027842 
L 56.438545 31.073077 
L 57.242909 31.129935 
L 58.047273 31.201374 
L 58.851636 31.291088 
L 59.656 31.403678 
L 60.460364 31.544867 
L 61.264727 31.72174 
L 62.069091 31.943038 
L 62.873455 32.219483 
L 63.677818 32.56414 
L 64.482182 32.99279 
L 65.286545 33.524281 
L 66.090909 34.180803 
L 66.895273 34.988 
L 67.699636 35.974785 
L 68.504 37.172703 
L 69.308364 38.614639 
L 70.112727 40.332677 
L 70.917091 42.354966 
L 71.721455 44.701623 
L 72.525818 47.379961 
L 73.330182 50.379701 
L 74.134545 53.669208 
L 74.938909 57.193981 
L 75.743273 60.878453 
L 76.547636 64.631481 
L 77.352 68.354922 
L 78.156364 71.953677 
L 78.960727 75.34509 
L 79.765091 78.465811 
L 80.569455 81.275073 
L 81.373818 83.754409 
L 82.178182 85.904637 
L 82.982545 87.741346 
L 83.786909 89.290012 
L 84.591273 90.581578 
L 85.395636 91.648918 
L 86.2 92.524313 
L 87.004364 93.237836 
L 87.808727 93.816483 
L 88.613091 94.283826 
L 89.417455 94.660022 
L 90.221818 94.962041 
L 91.026182 95.203988 
L 91.830545 95.397479 
L 92.634909 95.552005 
L 93.439273 95.675278 
L 94.243636 95.773532 
L 95.048 95.851791 
L 95.852364 95.914089 
L 96.656727 95.963659 
L 97.461091 96.003088 
L 98.265455 96.034441 
L 99.069818 96.059367 
L 99.874182 96.079181 
L 100.678545 96.094928 
L 101.482909 96.107441 
L 102.287273 96.117385 
L 103.091636 96.125285 
L 103.896 96.131562 
L 104.700364 96.136549 
L 105.504727 96.14051 
L 106.309091 96.143658 
L 107.113455 96.146158 
L 107.917818 96.148144 
L 108.722182 96.149721 
L 109.526545 96.150975 
L 110.330909 96.15197 
L 111.135273 96.152761 
L 111.939636 96.153389 
L 112.744 96.153888 
L 113.548364 96.154285 
L 114.352727 96.154599 
L 115.157091 96.154849 
L 115.961455 96.155048 
L 116.765818 96.155206 
L 117.570182 96.155331 
L 118.374545 96.155431 
L 119.178909 96.15551 
L 119.983273 96.155573 
L 120.787636 96.155623 
L 121.592 96.155662 
L 122.396364 96.155694 
L 123.200727 96.155719 
L 124.005091 96.155739 
L 124.809455 96.155754 
L 125.613818 96.155767 
L 126.418182 96.155777 
" style="fill:none;stroke:#333333;stroke-dasharray:1.5,2.475;stroke-dashoffset:0;stroke-width:1.5;"/>
   </g>
   <g id="line2d_10">
    <path clip-path="url(#p88801df051)" d="M 45.981818 30.874538 
L 46.786182 30.880375 
L 47.590545 30.887692 
L 48.394909 30.896878 
L 49.199273 30.908419 
L 50.003636 30.922928 
L 50.808 30.941172 
L 51.612364 30.964117 
L 52.416727 30.992972 
L 53.221091 31.029256 
L 54.025455 31.074872 
L 54.829818 31.132206 
L 55.634182 31.204238 
L 56.438545 31.294691 
L 57.242909 31.408207 
L 58.047273 31.550549 
L 58.851636 31.728858 
L 59.656 31.951941 
L 60.460364 32.230597 
L 61.264727 32.577984 
L 62.069091 33.009985 
L 62.873455 33.545565 
L 63.677818 34.207039 
L 64.482182 35.020171 
L 65.286545 36.013985 
L 66.090909 37.220102 
L 66.895273 38.671419 
L 67.699636 40.39994 
L 68.504 42.4336 
L 69.308364 44.792144 
L 70.112727 47.48233 
L 70.917091 50.493169 
L 71.721455 53.792211 
L 72.525818 57.324147 
L 73.330182 61.012733 
L 74.134545 64.766409 
L 74.938909 68.486968 
L 75.743273 72.079603 
L 76.547636 75.462256 
L 77.352 78.572351 
L 78.156364 81.369949 
L 78.960727 83.83734 
L 79.765091 85.975957 
L 80.569455 87.801828 
L 81.373818 89.340698 
L 82.178182 90.623635 
L 82.982545 91.683528 
L 83.786909 92.552603 
L 84.591273 93.260835 
L 85.395636 93.835098 
L 86.2 94.29884 
L 87.004364 94.672101 
L 87.808727 94.97174 
L 88.613091 95.211768 
L 89.417455 95.403719 
L 90.221818 95.557014 
L 91.026182 95.679308 
L 91.830545 95.776788 
L 92.634909 95.854441 
L 93.439273 95.91627 
L 94.243636 95.965485 
L 95.048 96.004654 
L 95.852364 96.035831 
L 96.656727 96.060654 
L 97.461091 96.080432 
L 98.265455 96.09621 
L 99.069818 96.108823 
L 99.874182 96.118939 
L 100.678545 96.127095 
L 101.482909 96.133724 
L 102.287273 96.139178 
L 103.091636 96.143747 
L 103.896 96.147673 
L 104.700364 96.151167 
L 105.504727 96.154412 
L 106.309091 96.157584 
L 107.113455 96.160849 
L 107.917818 96.164382 
L 108.722182 96.168371 
L 109.526545 96.173028 
L 110.330909 96.178601 
L 111.135273 96.185386 
L 111.939636 96.193743 
L 112.744 96.204116 
L 113.548364 96.217055 
L 114.352727 96.233246 
L 115.157091 96.253545 
L 115.961455 96.279025 
L 116.765818 96.311028 
L 117.570182 96.351236 
L 118.374545 96.401756 
L 119.178909 96.465223 
L 119.983273 96.54493 
L 120.787636 96.644982 
L 121.592 96.770492 
L 122.396364 96.927801 
L 123.200727 97.124749 
L 124.005091 97.370984 
L 124.809455 97.678304 
L 125.613818 98.061028 
L 126.418182 98.536364 
" style="fill:none;stroke:#333333;stroke-linecap:round;stroke-width:1.5;"/>
   </g>
   <g id="patch_3">
    <path d="M 41.96 101.92 
L 41.96 27.48 
" style="fill:none;stroke:#262626;stroke-linecap:square;stroke-linejoin:miter;stroke-width:0.8;"/>
   </g>
   <g id="patch_4">
    <path d="M 41.96 101.92 
L 130.44 101.92 
" style="fill:none;stroke:#262626;stroke-linecap:square;stroke-linejoin:miter;stroke-width:0.8;"/>
   </g>
   <g id="text_11">
    <!-- $\Delta$ area : 0.32 -->
    <defs>
     <path d="M 34.1875 63.1875 
L 14.15625 8.203125 
L 54.25 8.203125 
z
M 0.78125 0 
L 28.609375 72.90625 
L 39.796875 72.90625 
L 67.578125 0 
z
" id="DejaVuSans-394"/>
     <path id="ArialMT-20"/>
     <path d="M 40.4375 6.390625 
Q 35.546875 2.25 31.03125 0.53125 
Q 26.515625 -1.171875 21.34375 -1.171875 
Q 12.796875 -1.171875 8.203125 3 
Q 3.609375 7.171875 3.609375 13.671875 
Q 3.609375 17.484375 5.34375 20.625 
Q 7.078125 23.78125 9.890625 25.6875 
Q 12.703125 27.59375 16.21875 28.5625 
Q 18.796875 29.25 24.03125 29.890625 
Q 34.671875 31.15625 39.703125 32.90625 
Q 39.75 34.71875 39.75 35.203125 
Q 39.75 40.578125 37.25 42.78125 
Q 33.890625 45.75 27.25 45.75 
Q 21.046875 45.75 18.09375 43.578125 
Q 15.140625 41.40625 13.71875 35.890625 
L 5.125 37.0625 
Q 6.296875 42.578125 8.984375 45.96875 
Q 11.671875 49.359375 16.75 51.1875 
Q 21.828125 53.03125 28.515625 53.03125 
Q 35.15625 53.03125 39.296875 51.46875 
Q 43.453125 49.90625 45.40625 47.53125 
Q 47.359375 45.171875 48.140625 41.546875 
Q 48.578125 39.3125 48.578125 33.453125 
L 48.578125 21.734375 
Q 48.578125 9.46875 49.140625 6.21875 
Q 49.703125 2.984375 51.375 0 
L 42.1875 0 
Q 40.828125 2.734375 40.4375 6.390625 
z
M 39.703125 26.03125 
Q 34.90625 24.078125 25.34375 22.703125 
Q 19.921875 21.921875 17.671875 20.9375 
Q 15.4375 19.96875 14.203125 18.09375 
Q 12.984375 16.21875 12.984375 13.921875 
Q 12.984375 10.40625 15.640625 8.0625 
Q 18.3125 5.71875 23.4375 5.71875 
Q 28.515625 5.71875 32.46875 7.9375 
Q 36.421875 10.15625 38.28125 14.015625 
Q 39.703125 17 39.703125 22.796875 
z
" id="ArialMT-61"/>
     <path d="M 6.5 0 
L 6.5 51.859375 
L 14.40625 51.859375 
L 14.40625 44 
Q 17.4375 49.515625 20 51.265625 
Q 22.5625 53.03125 25.640625 53.03125 
Q 30.078125 53.03125 34.671875 50.203125 
L 31.640625 42.046875 
Q 28.421875 43.953125 25.203125 43.953125 
Q 22.3125 43.953125 20.015625 42.21875 
Q 17.71875 40.484375 16.75 37.40625 
Q 15.28125 32.71875 15.28125 27.15625 
L 15.28125 0 
z
" id="ArialMT-72"/>
     <path d="M 42.09375 16.703125 
L 51.171875 15.578125 
Q 49.03125 7.625 43.21875 3.21875 
Q 37.40625 -1.171875 28.375 -1.171875 
Q 17 -1.171875 10.328125 5.828125 
Q 3.65625 12.84375 3.65625 25.484375 
Q 3.65625 38.578125 10.390625 45.796875 
Q 17.140625 53.03125 27.875 53.03125 
Q 38.28125 53.03125 44.875 45.953125 
Q 51.46875 38.875 51.46875 26.03125 
Q 51.46875 25.25 51.421875 23.6875 
L 12.75 23.6875 
Q 13.234375 15.140625 17.578125 10.59375 
Q 21.921875 6.0625 28.421875 6.0625 
Q 33.25 6.0625 36.671875 8.59375 
Q 40.09375 11.140625 42.09375 16.703125 
z
M 13.234375 30.90625 
L 42.1875 30.90625 
Q 41.609375 37.453125 38.875 40.71875 
Q 34.671875 45.796875 27.984375 45.796875 
Q 21.921875 45.796875 17.796875 41.75 
Q 13.671875 37.703125 13.234375 30.90625 
z
" id="ArialMT-65"/>
     <path d="M 9.03125 41.84375 
L 9.03125 51.859375 
L 19.046875 51.859375 
L 19.046875 41.84375 
z
M 9.03125 0 
L 9.03125 10.015625 
L 19.046875 10.015625 
L 19.046875 0 
z
" id="ArialMT-3a"/>
     <path d="M 9.078125 0 
L 9.078125 10.015625 
L 19.09375 10.015625 
L 19.09375 0 
z
" id="ArialMT-2e"/>
     <path d="M 4.203125 18.890625 
L 12.984375 20.0625 
Q 14.5 12.59375 18.140625 9.296875 
Q 21.78125 6 27 6 
Q 33.203125 6 37.46875 10.296875 
Q 41.75 14.59375 41.75 20.953125 
Q 41.75 27 37.796875 30.921875 
Q 33.84375 34.859375 27.734375 34.859375 
Q 25.25 34.859375 21.53125 33.890625 
L 22.515625 41.609375 
Q 23.390625 41.5 23.921875 41.5 
Q 29.546875 41.5 34.03125 44.421875 
Q 38.53125 47.359375 38.53125 53.46875 
Q 38.53125 58.296875 35.25 61.46875 
Q 31.984375 64.65625 26.8125 64.65625 
Q 21.6875 64.65625 18.265625 61.421875 
Q 14.84375 58.203125 13.875 51.765625 
L 5.078125 53.328125 
Q 6.6875 62.15625 12.390625 67.015625 
Q 18.109375 71.875 26.609375 71.875 
Q 32.46875 71.875 37.390625 69.359375 
Q 42.328125 66.84375 44.9375 62.5 
Q 47.5625 58.15625 47.5625 53.265625 
Q 47.5625 48.640625 45.0625 44.828125 
Q 42.578125 41.015625 37.703125 38.765625 
Q 44.046875 37.3125 47.5625 32.6875 
Q 51.078125 28.078125 51.078125 21.140625 
Q 51.078125 11.765625 44.234375 5.25 
Q 37.40625 -1.265625 26.953125 -1.265625 
Q 17.53125 -1.265625 11.296875 4.34375 
Q 5.078125 9.96875 4.203125 18.890625 
z
" id="ArialMT-33"/>
    </defs>
    <g style="fill:#262626;" transform="translate(48.25 21.48)scale(0.132 -0.132)">
     <use transform="translate(0 0.09375)" xlink:href="#DejaVuSans-394"/>
     <use transform="translate(68.408203 0.09375)" xlink:href="#ArialMT-20"/>
     <use transform="translate(96.191406 0.09375)" xlink:href="#ArialMT-61"/>
     <use transform="translate(151.806641 0.09375)" xlink:href="#ArialMT-72"/>
     <use transform="translate(185.107422 0.09375)" xlink:href="#ArialMT-65"/>
     <use transform="translate(240.722656 0.09375)" xlink:href="#ArialMT-61"/>
     <use transform="translate(296.337891 0.09375)" xlink:href="#ArialMT-20"/>
     <use transform="translate(324.121094 0.09375)" xlink:href="#ArialMT-3a"/>
     <use transform="translate(351.904297 0.09375)" xlink:href="#ArialMT-20"/>
     <use transform="translate(379.6875 0.09375)" xlink:href="#ArialMT-30"/>
     <use transform="translate(435.302734 0.09375)" xlink:href="#ArialMT-2e"/>
     <use transform="translate(463.085938 0.09375)" xlink:href="#ArialMT-33"/>
     <use transform="translate(518.701172 0.09375)" xlink:href="#ArialMT-32"/>
    </g>
   </g>
  </g>
 </g>
 <defs>
  <clipPath id="p88801df051">
   <rect height="74.44" width="88.48" x="41.96" y="27.48"/>
  </clipPath>
 </defs>
</svg>
