<?xml version="1.0" encoding="utf-8" standalone="no"?>
<!DOCTYPE svg PUBLIC "-//W3C//DTD SVG 1.1//EN"
  "http://www.w3.org/Graphics/SVG/1.1/DTD/svg11.dtd">
<!-- Created with matplotlib (http://matplotlib.org/) -->
<svg height="144pt" version="1.1" viewBox="0 0 144 144" width="144pt" xmlns="http://www.w3.org/2000/svg" xmlns:xlink="http://www.w3.org/1999/xlink">
 <defs>
  <style type="text/css">
*{stroke-linecap:butt;stroke-linejoin:round;}
  </style>
 </defs>
 <g id="figure_1">
  <g id="patch_1">
   <path d="M 0 144 
L 144 144 
L 144 0 
L 0 0 
z
" style="fill:#ffffff;"/>
  </g>
  <g id="axes_1">
   <g id="patch_2">
    <path d="M 54.02 101.92 
L 130.44 101.92 
L 130.44 13.56 
L 54.02 13.56 
z
" style="fill:#ffffff;"/>
   </g>
   <g id="matplotlib.axis_1">
    <g id="xtick_1">
     <g id="line2d_1">
      <defs>
       <path d="M 0 0 
L 0 3.5 
" id="m4850558af5" style="stroke:#262626;stroke-width:0.8;"/>
      </defs>
      <g>
       <use style="fill:#262626;stroke:#262626;stroke-width:0.8;" x="57.493636" xlink:href="#m4850558af5" y="101.92"/>
      </g>
     </g>
     <g id="text_1">
      <!-- 2 -->
      <defs>
       <path d="M 50.34375 8.453125 
L 50.34375 0 
L 3.03125 0 
Q 2.9375 3.171875 4.046875 6.109375 
Q 5.859375 10.9375 9.828125 15.625 
Q 13.8125 20.3125 21.34375 26.46875 
Q 33.015625 36.03125 37.109375 41.625 
Q 41.21875 47.21875 41.21875 52.203125 
Q 41.21875 57.421875 37.46875 61 
Q 33.734375 64.59375 27.734375 64.59375 
Q 21.390625 64.59375 17.578125 60.78125 
Q 13.765625 56.984375 13.71875 50.25 
L 4.6875 51.171875 
Q 5.609375 61.28125 11.65625 66.578125 
Q 17.71875 71.875 27.9375 71.875 
Q 38.234375 71.875 44.234375 66.15625 
Q 50.25 60.453125 50.25 52 
Q 50.25 47.703125 48.484375 43.546875 
Q 46.734375 39.40625 42.65625 34.8125 
Q 38.578125 30.21875 29.109375 22.21875 
Q 21.1875 15.578125 18.9375 13.203125 
Q 16.703125 10.84375 15.234375 8.453125 
z
" id="ArialMT-32"/>
      </defs>
      <g style="fill:#262626;" transform="translate(54.435121 116.793594)scale(0.11 -0.11)">
       <use xlink:href="#ArialMT-32"/>
      </g>
     </g>
    </g>
    <g id="xtick_2">
     <g id="line2d_2">
      <g>
       <use style="fill:#262626;stroke:#262626;stroke-width:0.8;" x="71.388182" xlink:href="#m4850558af5" y="101.92"/>
      </g>
     </g>
     <g id="text_2">
      <!-- 4 -->
      <defs>
       <path d="M 32.328125 0 
L 32.328125 17.140625 
L 1.265625 17.140625 
L 1.265625 25.203125 
L 33.9375 71.578125 
L 41.109375 71.578125 
L 41.109375 25.203125 
L 50.78125 25.203125 
L 50.78125 17.140625 
L 41.109375 17.140625 
L 41.109375 0 
z
M 32.328125 25.203125 
L 32.328125 57.46875 
L 9.90625 25.203125 
z
" id="ArialMT-34"/>
      </defs>
      <g style="fill:#262626;" transform="translate(68.329666 116.793594)scale(0.11 -0.11)">
       <use xlink:href="#ArialMT-34"/>
      </g>
     </g>
    </g>
    <g id="xtick_3">
     <g id="line2d_3">
      <g>
       <use style="fill:#262626;stroke:#262626;stroke-width:0.8;" x="85.282727" xlink:href="#m4850558af5" y="101.92"/>
      </g>
     </g>
     <g id="text_3">
      <!-- 6 -->
      <defs>
       <path d="M 49.75 54.046875 
L 41.015625 53.375 
Q 39.84375 58.546875 37.703125 60.890625 
Q 34.125 64.65625 28.90625 64.65625 
Q 24.703125 64.65625 21.53125 62.3125 
Q 17.390625 59.28125 14.984375 53.46875 
Q 12.59375 47.65625 12.5 36.921875 
Q 15.671875 41.75 20.265625 44.09375 
Q 24.859375 46.4375 29.890625 46.4375 
Q 38.671875 46.4375 44.84375 39.96875 
Q 51.03125 33.5 51.03125 23.25 
Q 51.03125 16.5 48.125 10.71875 
Q 45.21875 4.9375 40.140625 1.859375 
Q 35.0625 -1.21875 28.609375 -1.21875 
Q 17.625 -1.21875 10.6875 6.859375 
Q 3.765625 14.9375 3.765625 33.5 
Q 3.765625 54.25 11.421875 63.671875 
Q 18.109375 71.875 29.4375 71.875 
Q 37.890625 71.875 43.28125 67.140625 
Q 48.6875 62.40625 49.75 54.046875 
z
M 13.875 23.1875 
Q 13.875 18.65625 15.796875 14.5 
Q 17.71875 10.359375 21.1875 8.171875 
Q 24.65625 6 28.46875 6 
Q 34.03125 6 38.03125 10.484375 
Q 42.046875 14.984375 42.046875 22.703125 
Q 42.046875 30.125 38.078125 34.390625 
Q 34.125 38.671875 28.125 38.671875 
Q 22.171875 38.671875 18.015625 34.390625 
Q 13.875 30.125 13.875 23.1875 
z
" id="ArialMT-36"/>
      </defs>
      <g style="fill:#262626;" transform="translate(82.224212 116.793594)scale(0.11 -0.11)">
       <use xlink:href="#ArialMT-36"/>
      </g>
     </g>
    </g>
    <g id="xtick_4">
     <g id="line2d_4">
      <g>
       <use style="fill:#262626;stroke:#262626;stroke-width:0.8;" x="99.177273" xlink:href="#m4850558af5" y="101.92"/>
      </g>
     </g>
     <g id="text_4">
      <!-- 8 -->
      <defs>
       <path d="M 17.671875 38.8125 
Q 12.203125 40.828125 9.5625 44.53125 
Q 6.9375 48.25 6.9375 53.421875 
Q 6.9375 61.234375 12.546875 66.546875 
Q 18.171875 71.875 27.484375 71.875 
Q 36.859375 71.875 42.578125 66.421875 
Q 48.296875 60.984375 48.296875 53.171875 
Q 48.296875 48.1875 45.671875 44.5 
Q 43.0625 40.828125 37.75 38.8125 
Q 44.34375 36.671875 47.78125 31.875 
Q 51.21875 27.09375 51.21875 20.453125 
Q 51.21875 11.28125 44.71875 5.03125 
Q 38.234375 -1.21875 27.640625 -1.21875 
Q 17.046875 -1.21875 10.546875 5.046875 
Q 4.046875 11.328125 4.046875 20.703125 
Q 4.046875 27.6875 7.59375 32.390625 
Q 11.140625 37.109375 17.671875 38.8125 
z
M 15.921875 53.71875 
Q 15.921875 48.640625 19.1875 45.40625 
Q 22.46875 42.1875 27.6875 42.1875 
Q 32.765625 42.1875 36.015625 45.375 
Q 39.265625 48.578125 39.265625 53.21875 
Q 39.265625 58.0625 35.90625 61.359375 
Q 32.5625 64.65625 27.59375 64.65625 
Q 22.5625 64.65625 19.234375 61.421875 
Q 15.921875 58.203125 15.921875 53.71875 
z
M 13.09375 20.65625 
Q 13.09375 16.890625 14.875 13.375 
Q 16.65625 9.859375 20.171875 7.921875 
Q 23.6875 6 27.734375 6 
Q 34.03125 6 38.125 10.046875 
Q 42.234375 14.109375 42.234375 20.359375 
Q 42.234375 26.703125 38.015625 30.859375 
Q 33.796875 35.015625 27.4375 35.015625 
Q 21.234375 35.015625 17.15625 30.90625 
Q 13.09375 26.8125 13.09375 20.65625 
z
" id="ArialMT-38"/>
      </defs>
      <g style="fill:#262626;" transform="translate(96.118757 116.793594)scale(0.11 -0.11)">
       <use xlink:href="#ArialMT-38"/>
      </g>
     </g>
    </g>
    <g id="xtick_5">
     <g id="line2d_5">
      <g>
       <use style="fill:#262626;stroke:#262626;stroke-width:0.8;" x="113.071818" xlink:href="#m4850558af5" y="101.92"/>
      </g>
     </g>
     <g id="text_5">
      <!-- 10 -->
      <defs>
       <path d="M 37.25 0 
L 28.46875 0 
L 28.46875 56 
Q 25.296875 52.984375 20.140625 49.953125 
Q 14.984375 46.921875 10.890625 45.40625 
L 10.890625 53.90625 
Q 18.265625 57.375 23.78125 62.296875 
Q 29.296875 67.234375 31.59375 71.875 
L 37.25 71.875 
z
" id="ArialMT-31"/>
       <path d="M 4.15625 35.296875 
Q 4.15625 48 6.765625 55.734375 
Q 9.375 63.484375 14.515625 67.671875 
Q 19.671875 71.875 27.484375 71.875 
Q 33.25 71.875 37.59375 69.546875 
Q 41.9375 67.234375 44.765625 62.859375 
Q 47.609375 58.5 49.21875 52.21875 
Q 50.828125 45.953125 50.828125 35.296875 
Q 50.828125 22.703125 48.234375 14.96875 
Q 45.65625 7.234375 40.5 3 
Q 35.359375 -1.21875 27.484375 -1.21875 
Q 17.140625 -1.21875 11.234375 6.203125 
Q 4.15625 15.140625 4.15625 35.296875 
z
M 13.1875 35.296875 
Q 13.1875 17.671875 17.3125 11.828125 
Q 21.4375 6 27.484375 6 
Q 33.546875 6 37.671875 11.859375 
Q 41.796875 17.71875 41.796875 35.296875 
Q 41.796875 52.984375 37.671875 58.78125 
Q 33.546875 64.59375 27.390625 64.59375 
Q 21.34375 64.59375 17.71875 59.46875 
Q 13.1875 52.9375 13.1875 35.296875 
z
" id="ArialMT-30"/>
      </defs>
      <g style="fill:#262626;" transform="translate(106.954787 116.793594)scale(0.11 -0.11)">
       <use xlink:href="#ArialMT-31"/>
       <use x="55.615234" xlink:href="#ArialMT-30"/>
      </g>
     </g>
    </g>
    <g id="xtick_6">
     <g id="line2d_6">
      <g>
       <use style="fill:#262626;stroke:#262626;stroke-width:0.8;" x="126.966364" xlink:href="#m4850558af5" y="101.92"/>
      </g>
     </g>
     <g id="text_6">
      <!-- 12 -->
      <g style="fill:#262626;" transform="translate(120.849332 116.793594)scale(0.11 -0.11)">
       <use xlink:href="#ArialMT-31"/>
       <use x="55.615234" xlink:href="#ArialMT-32"/>
      </g>
     </g>
    </g>
    <g id="text_7">
     <!-- pH -->
     <defs>
      <path d="M 6.59375 -19.875 
L 6.59375 51.859375 
L 14.59375 51.859375 
L 14.59375 45.125 
Q 17.4375 49.078125 21 51.046875 
Q 24.5625 53.03125 29.640625 53.03125 
Q 36.28125 53.03125 41.359375 49.609375 
Q 46.4375 46.1875 49.015625 39.953125 
Q 51.609375 33.734375 51.609375 26.3125 
Q 51.609375 18.359375 48.75 11.984375 
Q 45.90625 5.609375 40.453125 2.21875 
Q 35.015625 -1.171875 29 -1.171875 
Q 24.609375 -1.171875 21.109375 0.6875 
Q 17.625 2.546875 15.375 5.375 
L 15.375 -19.875 
z
M 14.546875 25.640625 
Q 14.546875 15.625 18.59375 10.84375 
Q 22.65625 6.0625 28.421875 6.0625 
Q 34.28125 6.0625 38.453125 11.015625 
Q 42.625 15.96875 42.625 26.375 
Q 42.625 36.28125 38.546875 41.203125 
Q 34.46875 46.140625 28.8125 46.140625 
Q 23.1875 46.140625 18.859375 40.890625 
Q 14.546875 35.640625 14.546875 25.640625 
z
" id="ArialMT-70"/>
      <path d="M 8.015625 0 
L 8.015625 71.578125 
L 17.484375 71.578125 
L 17.484375 42.1875 
L 54.6875 42.1875 
L 54.6875 71.578125 
L 64.15625 71.578125 
L 64.15625 0 
L 54.6875 0 
L 54.6875 33.734375 
L 17.484375 33.734375 
L 17.484375 0 
z
" id="ArialMT-48"/>
     </defs>
     <g style="fill:#262626;" transform="translate(85.199453 130.853437)scale(0.11 -0.11)">
      <use xlink:href="#ArialMT-70"/>
      <use x="55.615234" xlink:href="#ArialMT-48"/>
     </g>
    </g>
   </g>
   <g id="matplotlib.axis_2">
    <g id="ytick_1">
     <g id="line2d_7">
      <defs>
       <path d="M 0 0 
L -3.5 0 
" id="m51c8d1742c" style="stroke:#262626;stroke-width:0.8;"/>
      </defs>
      <g>
       <use style="fill:#262626;stroke:#262626;stroke-width:0.8;" x="54.02" xlink:href="#m51c8d1742c" y="97.805569"/>
      </g>
     </g>
     <g id="text_8">
      <!-- −10 -->
      <defs>
       <path d="M 52.828125 31.203125 
L 5.5625 31.203125 
L 5.5625 39.40625 
L 52.828125 39.40625 
z
" id="ArialMT-2212"/>
      </defs>
      <g style="fill:#262626;" transform="translate(28.36125 101.742366)scale(0.11 -0.11)">
       <use xlink:href="#ArialMT-2212"/>
       <use x="58.398438" xlink:href="#ArialMT-31"/>
       <use x="114.013672" xlink:href="#ArialMT-30"/>
      </g>
     </g>
    </g>
    <g id="ytick_2">
     <g id="line2d_8">
      <g>
       <use style="fill:#262626;stroke:#262626;stroke-width:0.8;" x="54.02" xlink:href="#m51c8d1742c" y="72.833707"/>
      </g>
     </g>
     <g id="text_9">
      <!-- 0 -->
      <g style="fill:#262626;" transform="translate(40.902969 76.770504)scale(0.11 -0.11)">
       <use xlink:href="#ArialMT-30"/>
      </g>
     </g>
    </g>
    <g id="ytick_3">
     <g id="line2d_9">
      <g>
       <use style="fill:#262626;stroke:#262626;stroke-width:0.8;" x="54.02" xlink:href="#m51c8d1742c" y="47.861845"/>
      </g>
     </g>
     <g id="text_10">
      <!-- 10 -->
      <g style="fill:#262626;" transform="translate(34.785938 51.798642)scale(0.11 -0.11)">
       <use xlink:href="#ArialMT-31"/>
       <use x="55.615234" xlink:href="#ArialMT-30"/>
      </g>
     </g>
    </g>
    <g id="ytick_4">
     <g id="line2d_10">
      <g>
       <use style="fill:#262626;stroke:#262626;stroke-width:0.8;" x="54.02" xlink:href="#m51c8d1742c" y="22.889983"/>
      </g>
     </g>
     <g id="text_11">
      <!-- 20 -->
      <g style="fill:#262626;" transform="translate(34.785938 26.82678)scale(0.11 -0.11)">
       <use xlink:href="#ArialMT-32"/>
       <use x="55.615234" xlink:href="#ArialMT-30"/>
      </g>
     </g>
    </g>
    <g id="text_12">
     <!-- Free energy ($k_B T$) -->
     <defs>
      <path d="M 8.203125 0 
L 8.203125 71.578125 
L 56.5 71.578125 
L 56.5 63.140625 
L 17.671875 63.140625 
L 17.671875 40.96875 
L 51.265625 40.96875 
L 51.265625 32.515625 
L 17.671875 32.515625 
L 17.671875 0 
z
" id="ArialMT-46"/>
      <path d="M 6.5 0 
L 6.5 51.859375 
L 14.40625 51.859375 
L 14.40625 44 
Q 17.4375 49.515625 20 51.265625 
Q 22.5625 53.03125 25.640625 53.03125 
Q 30.078125 53.03125 34.671875 50.203125 
L 31.640625 42.046875 
Q 28.421875 43.953125 25.203125 43.953125 
Q 22.3125 43.953125 20.015625 42.21875 
Q 17.71875 40.484375 16.75 37.40625 
Q 15.28125 32.71875 15.28125 27.15625 
L 15.28125 0 
z
" id="ArialMT-72"/>
      <path d="M 42.09375 16.703125 
L 51.171875 15.578125 
Q 49.03125 7.625 43.21875 3.21875 
Q 37.40625 -1.171875 28.375 -1.171875 
Q 17 -1.171875 10.328125 5.828125 
Q 3.65625 12.84375 3.65625 25.484375 
Q 3.65625 38.578125 10.390625 45.796875 
Q 17.140625 53.03125 27.875 53.03125 
Q 38.28125 53.03125 44.875 45.953125 
Q 51.46875 38.875 51.46875 26.03125 
Q 51.46875 25.25 51.421875 23.6875 
L 12.75 23.6875 
Q 13.234375 15.140625 17.578125 10.59375 
Q 21.921875 6.0625 28.421875 6.0625 
Q 33.25 6.0625 36.671875 8.59375 
Q 40.09375 11.140625 42.09375 16.703125 
z
M 13.234375 30.90625 
L 42.1875 30.90625 
Q 41.609375 37.453125 38.875 40.71875 
Q 34.671875 45.796875 27.984375 45.796875 
Q 21.921875 45.796875 17.796875 41.75 
Q 13.671875 37.703125 13.234375 30.90625 
z
" id="ArialMT-65"/>
      <path id="ArialMT-20"/>
      <path d="M 6.59375 0 
L 6.59375 51.859375 
L 14.5 51.859375 
L 14.5 44.484375 
Q 20.21875 53.03125 31 53.03125 
Q 35.6875 53.03125 39.625 51.34375 
Q 43.5625 49.65625 45.515625 46.921875 
Q 47.46875 44.1875 48.25 40.4375 
Q 48.734375 37.984375 48.734375 31.890625 
L 48.734375 0 
L 39.9375 0 
L 39.9375 31.546875 
Q 39.9375 36.921875 38.90625 39.578125 
Q 37.890625 42.234375 35.28125 43.8125 
Q 32.671875 45.40625 29.15625 45.40625 
Q 23.53125 45.40625 19.453125 41.84375 
Q 15.375 38.28125 15.375 28.328125 
L 15.375 0 
z
" id="ArialMT-6e"/>
      <path d="M 4.984375 -4.296875 
L 13.53125 -5.5625 
Q 14.0625 -9.515625 16.5 -11.328125 
Q 19.78125 -13.765625 25.4375 -13.765625 
Q 31.546875 -13.765625 34.859375 -11.328125 
Q 38.1875 -8.890625 39.359375 -4.5 
Q 40.046875 -1.8125 39.984375 6.78125 
Q 34.234375 0 25.640625 0 
Q 14.9375 0 9.078125 7.71875 
Q 3.21875 15.4375 3.21875 26.21875 
Q 3.21875 33.640625 5.90625 39.90625 
Q 8.59375 46.1875 13.6875 49.609375 
Q 18.796875 53.03125 25.6875 53.03125 
Q 34.859375 53.03125 40.828125 45.609375 
L 40.828125 51.859375 
L 48.921875 51.859375 
L 48.921875 7.03125 
Q 48.921875 -5.078125 46.453125 -10.125 
Q 44 -15.1875 38.640625 -18.109375 
Q 33.296875 -21.046875 25.484375 -21.046875 
Q 16.21875 -21.046875 10.5 -16.875 
Q 4.78125 -12.703125 4.984375 -4.296875 
z
M 12.25 26.859375 
Q 12.25 16.65625 16.296875 11.96875 
Q 20.359375 7.28125 26.46875 7.28125 
Q 32.515625 7.28125 36.609375 11.9375 
Q 40.71875 16.609375 40.71875 26.5625 
Q 40.71875 36.078125 36.5 40.90625 
Q 32.28125 45.75 26.3125 45.75 
Q 20.453125 45.75 16.34375 40.984375 
Q 12.25 36.234375 12.25 26.859375 
z
" id="ArialMT-67"/>
      <path d="M 6.203125 -19.96875 
L 5.21875 -11.71875 
Q 8.109375 -12.5 10.25 -12.5 
Q 13.1875 -12.5 14.9375 -11.515625 
Q 16.703125 -10.546875 17.828125 -8.796875 
Q 18.65625 -7.46875 20.515625 -2.25 
Q 20.75 -1.515625 21.296875 -0.09375 
L 1.609375 51.859375 
L 11.078125 51.859375 
L 21.875 21.828125 
Q 23.96875 16.109375 25.640625 9.8125 
Q 27.15625 15.875 29.25 21.625 
L 40.328125 51.859375 
L 49.125 51.859375 
L 29.390625 -0.875 
Q 26.21875 -9.421875 24.46875 -12.640625 
Q 22.125 -17 19.09375 -19.015625 
Q 16.0625 -21.046875 11.859375 -21.046875 
Q 9.328125 -21.046875 6.203125 -19.96875 
z
" id="ArialMT-79"/>
      <path d="M 23.390625 -21.046875 
Q 16.109375 -11.859375 11.078125 0.4375 
Q 6.0625 12.75 6.0625 25.921875 
Q 6.0625 37.546875 9.8125 48.1875 
Q 14.203125 60.546875 23.390625 72.796875 
L 29.6875 72.796875 
Q 23.78125 62.640625 21.875 58.296875 
Q 18.890625 51.5625 17.1875 44.234375 
Q 15.09375 35.109375 15.09375 25.875 
Q 15.09375 2.390625 29.6875 -21.046875 
z
" id="ArialMT-28"/>
      <path d="M 18.3125 75.984375 
L 27.296875 75.984375 
L 18.703125 31.6875 
L 49.515625 54.6875 
L 61.1875 54.6875 
L 26.8125 28.515625 
L 51.90625 0 
L 41.015625 0 
L 17.671875 26.703125 
L 12.5 0 
L 3.515625 0 
z
" id="DejaVuSans-Oblique-6b"/>
      <path d="M 16.890625 72.90625 
L 42.09375 72.90625 
Q 52.34375 72.90625 57.421875 69.09375 
Q 62.5 65.28125 62.5 57.625 
Q 62.5 50.59375 58.125 45.484375 
Q 53.765625 40.375 46.6875 39.3125 
Q 52.734375 37.9375 55.765625 34.078125 
Q 58.796875 30.21875 58.796875 23.78125 
Q 58.796875 12.796875 50.65625 6.390625 
Q 42.53125 0 28.421875 0 
L 2.6875 0 
z
M 19.28125 34.8125 
L 14.109375 8.109375 
L 29.984375 8.109375 
Q 38.921875 8.109375 43.75 12.203125 
Q 48.578125 16.3125 48.578125 23.78125 
Q 48.578125 29.546875 45.375 32.171875 
Q 42.1875 34.8125 35.109375 34.8125 
z
M 25.09375 64.796875 
L 20.796875 42.828125 
L 35.5 42.828125 
Q 43.359375 42.828125 47.78125 46.234375 
Q 52.203125 49.65625 52.203125 55.71875 
Q 52.203125 60.453125 49.21875 62.625 
Q 46.234375 64.796875 39.703125 64.796875 
z
" id="DejaVuSans-Oblique-42"/>
      <path d="M 5.90625 72.90625 
L 67.578125 72.90625 
L 66.015625 64.59375 
L 39.984375 64.59375 
L 27.484375 0 
L 17.578125 0 
L 30.078125 64.59375 
L 4.296875 64.59375 
z
" id="DejaVuSans-Oblique-54"/>
      <path d="M 12.359375 -21.046875 
L 6.0625 -21.046875 
Q 20.65625 2.390625 20.65625 25.875 
Q 20.65625 35.0625 18.5625 44.09375 
Q 16.890625 51.421875 13.921875 58.15625 
Q 12.015625 62.546875 6.0625 72.796875 
L 12.359375 72.796875 
Q 21.53125 60.546875 25.921875 48.1875 
Q 29.6875 37.546875 29.6875 25.921875 
Q 29.6875 12.75 24.625 0.4375 
Q 19.578125 -11.859375 12.359375 -21.046875 
z
" id="ArialMT-29"/>
     </defs>
     <g style="fill:#262626;" transform="translate(21.94125 101.96)rotate(-90)scale(0.11 -0.11)">
      <use transform="translate(0 0.015625)" xlink:href="#ArialMT-46"/>
      <use transform="translate(61.083984 0.015625)" xlink:href="#ArialMT-72"/>
      <use transform="translate(94.384766 0.015625)" xlink:href="#ArialMT-65"/>
      <use transform="translate(150 0.015625)" xlink:href="#ArialMT-65"/>
      <use transform="translate(205.615234 0.015625)" xlink:href="#ArialMT-20"/>
      <use transform="translate(233.398438 0.015625)" xlink:href="#ArialMT-65"/>
      <use transform="translate(289.013672 0.015625)" xlink:href="#ArialMT-6e"/>
      <use transform="translate(344.628906 0.015625)" xlink:href="#ArialMT-65"/>
      <use transform="translate(400.244141 0.015625)" xlink:href="#ArialMT-72"/>
      <use transform="translate(433.544922 0.015625)" xlink:href="#ArialMT-67"/>
      <use transform="translate(489.160156 0.015625)" xlink:href="#ArialMT-79"/>
      <use transform="translate(539.160156 0.015625)" xlink:href="#ArialMT-20"/>
      <use transform="translate(566.943359 0.015625)" xlink:href="#ArialMT-28"/>
      <use transform="translate(600.244141 0.015625)" xlink:href="#DejaVuSans-Oblique-6b"/>
      <use transform="translate(658.154297 -16.390625)scale(0.7)" xlink:href="#DejaVuSans-Oblique-42"/>
      <use transform="translate(708.911133 0.015625)" xlink:href="#DejaVuSans-Oblique-54"/>
      <use transform="translate(769.995117 0.015625)" xlink:href="#ArialMT-29"/>
     </g>
    </g>
   </g>
   <g id="patch_3">
    <path d="M 54.02 101.92 
L 54.02 13.56 
" style="fill:none;stroke:#262626;stroke-linecap:square;stroke-linejoin:miter;stroke-width:0.8;"/>
   </g>
   <g id="patch_4">
    <path d="M 54.02 101.92 
L 130.44 101.92 
" style="fill:none;stroke:#262626;stroke-linecap:square;stroke-linejoin:miter;stroke-width:0.8;"/>
   </g>
   <g id="line2d_11">
    <path clip-path="url(#p788d46e1b6)" d="M 57.493636 40.403799 
L 58.188364 40.978797 
L 58.883091 41.553796 
L 59.577818 42.128794 
L 60.272545 42.703793 
L 60.967273 43.278791 
L 61.662 43.853789 
L 62.356727 44.428788 
L 63.051455 45.003786 
L 63.746182 45.578784 
L 64.440909 46.153783 
L 65.135636 46.728781 
L 65.830364 47.30378 
L 66.525091 47.878778 
L 67.219818 48.453776 
L 67.914545 49.028775 
L 68.609273 49.603773 
L 69.304 50.178771 
L 69.998727 50.75377 
L 70.693455 51.328768 
L 71.388182 51.903767 
L 72.082909 52.478765 
L 72.777636 53.053763 
L 73.472364 53.628762 
L 74.167091 54.20376 
L 74.861818 54.778758 
L 75.556545 55.353757 
L 76.251273 55.928755 
L 76.946 56.503753 
L 77.640727 57.078752 
L 78.335455 57.65375 
L 79.030182 58.228749 
L 79.724909 58.803747 
L 80.419636 59.378745 
L 81.114364 59.953744 
L 81.809091 60.528742 
L 82.503818 61.10374 
L 83.198545 61.678739 
L 83.893273 62.253737 
L 84.588 62.828736 
L 85.282727 63.403734 
L 85.977455 63.978732 
L 86.672182 64.553731 
L 87.366909 65.128729 
L 88.061636 65.703727 
L 88.756364 66.278726 
L 89.451091 66.853724 
L 90.145818 67.428723 
L 90.840545 68.003721 
L 91.535273 68.578719 
L 92.23 69.153718 
L 92.924727 69.728716 
L 93.619455 70.303714 
L 94.314182 70.878713 
L 95.008909 71.453711 
L 95.703636 72.02871 
L 96.398364 72.603708 
L 97.093091 73.178706 
L 97.787818 73.753705 
L 98.482545 74.328703 
L 99.177273 74.903701 
L 99.872 75.4787 
L 100.566727 76.053698 
L 101.261455 76.628697 
L 101.956182 77.203695 
L 102.650909 77.778693 
L 103.345636 78.353692 
L 104.040364 78.92869 
L 104.735091 79.503688 
L 105.429818 80.078687 
L 106.124545 80.653685 
L 106.819273 81.228684 
L 107.514 81.803682 
L 108.208727 82.37868 
L 108.903455 82.953679 
L 109.598182 83.528677 
L 110.292909 84.103675 
L 110.987636 84.678674 
L 111.682364 85.253672 
L 112.377091 85.828671 
L 113.071818 86.403669 
L 113.766545 86.978667 
L 114.461273 87.553666 
L 115.156 88.128664 
L 115.850727 88.703662 
L 116.545455 89.278661 
L 117.240182 89.853659 
L 117.934909 90.428658 
L 118.629636 91.003656 
L 119.324364 91.578654 
L 120.019091 92.153653 
L 120.713818 92.728651 
L 121.408545 93.303649 
L 122.103273 93.878648 
L 122.798 94.453646 
L 123.492727 95.028644 
L 124.187455 95.603643 
L 124.882182 96.178641 
L 125.576909 96.75364 
L 126.271636 97.328638 
L 126.966364 97.903636 
" style="fill:none;stroke:#f4a582;stroke-linecap:round;stroke-width:1.5;"/>
   </g>
   <g id="line2d_12">
    <path clip-path="url(#p788d46e1b6)" d="M 57.493636 75.076201 
L 58.188364 74.501203 
L 58.883091 73.926204 
L 59.577818 73.351206 
L 60.272545 72.776207 
L 60.967273 72.201209 
L 61.662 71.626211 
L 62.356727 71.051212 
L 63.051455 70.476214 
L 63.746182 69.901216 
L 64.440909 69.326217 
L 65.135636 68.751219 
L 65.830364 68.17622 
L 66.525091 67.601222 
L 67.219818 67.026224 
L 67.914545 66.451225 
L 68.609273 65.876227 
L 69.304 65.301229 
L 69.998727 64.72623 
L 70.693455 64.151232 
L 71.388182 63.576233 
L 72.082909 63.001235 
L 72.777636 62.426237 
L 73.472364 61.851238 
L 74.167091 61.27624 
L 74.861818 60.701242 
L 75.556545 60.126243 
L 76.251273 59.551245 
L 76.946 58.976247 
L 77.640727 58.401248 
L 78.335455 57.82625 
L 79.030182 57.251251 
L 79.724909 56.676253 
L 80.419636 56.101255 
L 81.114364 55.526256 
L 81.809091 54.951258 
L 82.503818 54.37626 
L 83.198545 53.801261 
L 83.893273 53.226263 
L 84.588 52.651264 
L 85.282727 52.076266 
L 85.977455 51.501268 
L 86.672182 50.926269 
L 87.366909 50.351271 
L 88.061636 49.776273 
L 88.756364 49.201274 
L 89.451091 48.626276 
L 90.145818 48.051277 
L 90.840545 47.476279 
L 91.535273 46.901281 
L 92.23 46.326282 
L 92.924727 45.751284 
L 93.619455 45.176286 
L 94.314182 44.601287 
L 95.008909 44.026289 
L 95.703636 43.45129 
L 96.398364 42.876292 
L 97.093091 42.301294 
L 97.787818 41.726295 
L 98.482545 41.151297 
L 99.177273 40.576299 
L 99.872 40.0013 
L 100.566727 39.426302 
L 101.261455 38.851303 
L 101.956182 38.276305 
L 102.650909 37.701307 
L 103.345636 37.126308 
L 104.040364 36.55131 
L 104.735091 35.976312 
L 105.429818 35.401313 
L 106.124545 34.826315 
L 106.819273 34.251316 
L 107.514 33.676318 
L 108.208727 33.10132 
L 108.903455 32.526321 
L 109.598182 31.951323 
L 110.292909 31.376325 
L 110.987636 30.801326 
L 111.682364 30.226328 
L 112.377091 29.651329 
L 113.071818 29.076331 
L 113.766545 28.501333 
L 114.461273 27.926334 
L 115.156 27.351336 
L 115.850727 26.776338 
L 116.545455 26.201339 
L 117.240182 25.626341 
L 117.934909 25.051342 
L 118.629636 24.476344 
L 119.324364 23.901346 
L 120.019091 23.326347 
L 120.713818 22.751349 
L 121.408545 22.176351 
L 122.103273 21.601352 
L 122.798 21.026354 
L 123.492727 20.451356 
L 124.187455 19.876357 
L 124.882182 19.301359 
L 125.576909 18.72636 
L 126.271636 18.151362 
L 126.966364 17.576364 
" style="fill:none;stroke:#92c5de;stroke-linecap:round;stroke-width:1.5;"/>
   </g>
   <g id="line2d_13">
    <path clip-path="url(#p788d46e1b6)" d="M 57.493636 72.833707 
L 58.188364 72.833707 
L 58.883091 72.833707 
L 59.577818 72.833707 
L 60.272545 72.833707 
L 60.967273 72.833707 
L 61.662 72.833707 
L 62.356727 72.833707 
L 63.051455 72.833707 
L 63.746182 72.833707 
L 64.440909 72.833707 
L 65.135636 72.833707 
L 65.830364 72.833707 
L 66.525091 72.833707 
L 67.219818 72.833707 
L 67.914545 72.833707 
L 68.609273 72.833707 
L 69.304 72.833707 
L 69.998727 72.833707 
L 70.693455 72.833707 
L 71.388182 72.833707 
L 72.082909 72.833707 
L 72.777636 72.833707 
L 73.472364 72.833707 
L 74.167091 72.833707 
L 74.861818 72.833707 
L 75.556545 72.833707 
L 76.251273 72.833707 
L 76.946 72.833707 
L 77.640727 72.833707 
L 78.335455 72.833707 
L 79.030182 72.833707 
L 79.724909 72.833707 
L 80.419636 72.833707 
L 81.114364 72.833707 
L 81.809091 72.833707 
L 82.503818 72.833707 
L 83.198545 72.833707 
L 83.893273 72.833707 
L 84.588 72.833707 
L 85.282727 72.833707 
L 85.977455 72.833707 
L 86.672182 72.833707 
L 87.366909 72.833707 
L 88.061636 72.833707 
L 88.756364 72.833707 
L 89.451091 72.833707 
L 90.145818 72.833707 
L 90.840545 72.833707 
L 91.535273 72.833707 
L 92.23 72.833707 
L 92.924727 72.833707 
L 93.619455 72.833707 
L 94.314182 72.833707 
L 95.008909 72.833707 
L 95.703636 72.833707 
L 96.398364 72.833707 
L 97.093091 72.833707 
L 97.787818 72.833707 
L 98.482545 72.833707 
L 99.177273 72.833707 
L 99.872 72.833707 
L 100.566727 72.833707 
L 101.261455 72.833707 
L 101.956182 72.833707 
L 102.650909 72.833707 
L 103.345636 72.833707 
L 104.040364 72.833707 
L 104.735091 72.833707 
L 105.429818 72.833707 
L 106.124545 72.833707 
L 106.819273 72.833707 
L 107.514 72.833707 
L 108.208727 72.833707 
L 108.903455 72.833707 
L 109.598182 72.833707 
L 110.292909 72.833707 
L 110.987636 72.833707 
L 111.682364 72.833707 
L 112.377091 72.833707 
L 113.071818 72.833707 
L 113.766545 72.833707 
L 114.461273 72.833707 
L 115.156 72.833707 
L 115.850727 72.833707 
L 116.545455 72.833707 
L 117.240182 72.833707 
L 117.934909 72.833707 
L 118.629636 72.833707 
L 119.324364 72.833707 
L 120.019091 72.833707 
L 120.713818 72.833707 
L 121.408545 72.833707 
L 122.103273 72.833707 
L 122.798 72.833707 
L 123.492727 72.833707 
L 124.187455 72.833707 
L 124.882182 72.833707 
L 125.576909 72.833707 
L 126.271636 72.833707 
L 126.966364 72.833707 
" style="fill:none;stroke:#333333;stroke-linecap:round;stroke-width:1.5;"/>
   </g>
   <g id="line2d_14">
    <path clip-path="url(#p788d46e1b6)" d="M 57.493636 63.518734 
L 58.188364 63.518734 
L 58.883091 63.518734 
L 59.577818 63.518734 
L 60.272545 63.518734 
L 60.967273 63.518734 
L 61.662 63.518734 
L 62.356727 63.518734 
L 63.051455 63.518734 
L 63.746182 63.518734 
L 64.440909 63.518734 
L 65.135636 63.518734 
L 65.830364 63.518734 
L 66.525091 63.518734 
L 67.219818 63.518734 
L 67.914545 63.518734 
L 68.609273 63.518734 
L 69.304 63.518734 
L 69.998727 63.518734 
L 70.693455 63.518734 
L 71.388182 63.518734 
L 72.082909 63.518734 
L 72.777636 63.518734 
L 73.472364 63.518734 
L 74.167091 63.518734 
L 74.861818 63.518734 
L 75.556545 63.518734 
L 76.251273 63.518734 
L 76.946 63.518734 
L 77.640727 63.518734 
L 78.335455 63.518734 
L 79.030182 63.518734 
L 79.724909 63.518734 
L 80.419636 63.518734 
L 81.114364 63.518734 
L 81.809091 63.518734 
L 82.503818 63.518734 
L 83.198545 63.518734 
L 83.893273 63.518734 
L 84.588 63.518734 
L 85.282727 63.518734 
L 85.977455 63.518734 
L 86.672182 63.518734 
L 87.366909 63.518734 
L 88.061636 63.518734 
L 88.756364 63.518734 
L 89.451091 63.518734 
L 90.145818 63.518734 
L 90.840545 63.518734 
L 91.535273 63.518734 
L 92.23 63.518734 
L 92.924727 63.518734 
L 93.619455 63.518734 
L 94.314182 63.518734 
L 95.008909 63.518734 
L 95.703636 63.518734 
L 96.398364 63.518734 
L 97.093091 63.518734 
L 97.787818 63.518734 
L 98.482545 63.518734 
L 99.177273 63.518734 
L 99.872 63.518734 
L 100.566727 63.518734 
L 101.261455 63.518734 
L 101.956182 63.518734 
L 102.650909 63.518734 
L 103.345636 63.518734 
L 104.040364 63.518734 
L 104.735091 63.518734 
L 105.429818 63.518734 
L 106.124545 63.518734 
L 106.819273 63.518734 
L 107.514 63.518734 
L 108.208727 63.518734 
L 108.903455 63.518734 
L 109.598182 63.518734 
L 110.292909 63.518734 
L 110.987636 63.518734 
L 111.682364 63.518734 
L 112.377091 63.518734 
L 113.071818 63.518734 
L 113.766545 63.518734 
L 114.461273 63.518734 
L 115.156 63.518734 
L 115.850727 63.518734 
L 116.545455 63.518734 
L 117.240182 63.518734 
L 117.934909 63.518734 
L 118.629636 63.518734 
L 119.324364 63.518734 
L 120.019091 63.518734 
L 120.713818 63.518734 
L 121.408545 63.518734 
L 122.103273 63.518734 
L 122.798 63.518734 
L 123.492727 63.518734 
L 124.187455 63.518734 
L 124.882182 63.518734 
L 125.576909 63.518734 
L 126.271636 63.518734 
L 126.966364 63.518734 
" style="fill:none;stroke:#333333;stroke-linecap:round;stroke-width:1.5;"/>
   </g>
  </g>
 </g>
 <defs>
  <clipPath id="p788d46e1b6">
   <rect height="88.36" width="76.42" x="54.02" y="13.56"/>
  </clipPath>
 </defs>
</svg>
