<?xml version="1.0" encoding="utf-8" standalone="no"?>
<!DOCTYPE svg PUBLIC "-//W3C//DTD SVG 1.1//EN"
  "http://www.w3.org/Graphics/SVG/1.1/DTD/svg11.dtd">
<!-- Created with matplotlib (http://matplotlib.org/) -->
<svg height="216pt" version="1.1" viewBox="0 0 216 216" width="216pt" xmlns="http://www.w3.org/2000/svg" xmlns:xlink="http://www.w3.org/1999/xlink">
 <defs>
  <style type="text/css">
*{stroke-linecap:butt;stroke-linejoin:round;}
  </style>
 </defs>
 <g id="figure_1">
  <g id="patch_1">
   <path d="M 0 216 
L 216 216 
L 216 0 
L 0 0 
z
" style="fill:#ffffff;"/>
  </g>
  <g id="axes_1">
   <g id="patch_2">
    <path d="M 44.78 175.96 
L 203.52 175.96 
L 203.52 25.44 
L 44.78 25.44 
z
" style="fill:#ffffff;"/>
   </g>
   <g id="matplotlib.axis_1">
    <g id="xtick_1">
     <g id="line2d_1">
      <defs>
       <path d="M 0 0 
L 0 3.5 
" id="m039861ff55" style="stroke:#262626;stroke-width:0.8;"/>
      </defs>
      <g>
       <use style="fill:#262626;stroke:#262626;stroke-width:0.8;" x="51.995455" xlink:href="#m039861ff55" y="175.96"/>
      </g>
     </g>
     <g id="text_1">
      <!-- 2 -->
      <defs>
       <path d="M 50.34375 8.453125 
L 50.34375 0 
L 3.03125 0 
Q 2.9375 3.171875 4.046875 6.109375 
Q 5.859375 10.9375 9.828125 15.625 
Q 13.8125 20.3125 21.34375 26.46875 
Q 33.015625 36.03125 37.109375 41.625 
Q 41.21875 47.21875 41.21875 52.203125 
Q 41.21875 57.421875 37.46875 61 
Q 33.734375 64.59375 27.734375 64.59375 
Q 21.390625 64.59375 17.578125 60.78125 
Q 13.765625 56.984375 13.71875 50.25 
L 4.6875 51.171875 
Q 5.609375 61.28125 11.65625 66.578125 
Q 17.71875 71.875 27.9375 71.875 
Q 38.234375 71.875 44.234375 66.15625 
Q 50.25 60.453125 50.25 52 
Q 50.25 47.703125 48.484375 43.546875 
Q 46.734375 39.40625 42.65625 34.8125 
Q 38.578125 30.21875 29.109375 22.21875 
Q 21.1875 15.578125 18.9375 13.203125 
Q 16.703125 10.84375 15.234375 8.453125 
z
" id="ArialMT-32"/>
      </defs>
      <g style="fill:#262626;" transform="translate(49.214986 190.117812)scale(0.1 -0.1)">
       <use xlink:href="#ArialMT-32"/>
      </g>
     </g>
    </g>
    <g id="xtick_2">
     <g id="line2d_2">
      <g>
       <use style="fill:#262626;stroke:#262626;stroke-width:0.8;" x="80.857273" xlink:href="#m039861ff55" y="175.96"/>
      </g>
     </g>
     <g id="text_2">
      <!-- 4 -->
      <defs>
       <path d="M 32.328125 0 
L 32.328125 17.140625 
L 1.265625 17.140625 
L 1.265625 25.203125 
L 33.9375 71.578125 
L 41.109375 71.578125 
L 41.109375 25.203125 
L 50.78125 25.203125 
L 50.78125 17.140625 
L 41.109375 17.140625 
L 41.109375 0 
z
M 32.328125 25.203125 
L 32.328125 57.46875 
L 9.90625 25.203125 
z
" id="ArialMT-34"/>
      </defs>
      <g style="fill:#262626;" transform="translate(78.076804 190.117812)scale(0.1 -0.1)">
       <use xlink:href="#ArialMT-34"/>
      </g>
     </g>
    </g>
    <g id="xtick_3">
     <g id="line2d_3">
      <g>
       <use style="fill:#262626;stroke:#262626;stroke-width:0.8;" x="109.719091" xlink:href="#m039861ff55" y="175.96"/>
      </g>
     </g>
     <g id="text_3">
      <!-- 6 -->
      <defs>
       <path d="M 49.75 54.046875 
L 41.015625 53.375 
Q 39.84375 58.546875 37.703125 60.890625 
Q 34.125 64.65625 28.90625 64.65625 
Q 24.703125 64.65625 21.53125 62.3125 
Q 17.390625 59.28125 14.984375 53.46875 
Q 12.59375 47.65625 12.5 36.921875 
Q 15.671875 41.75 20.265625 44.09375 
Q 24.859375 46.4375 29.890625 46.4375 
Q 38.671875 46.4375 44.84375 39.96875 
Q 51.03125 33.5 51.03125 23.25 
Q 51.03125 16.5 48.125 10.71875 
Q 45.21875 4.9375 40.140625 1.859375 
Q 35.0625 -1.21875 28.609375 -1.21875 
Q 17.625 -1.21875 10.6875 6.859375 
Q 3.765625 14.9375 3.765625 33.5 
Q 3.765625 54.25 11.421875 63.671875 
Q 18.109375 71.875 29.4375 71.875 
Q 37.890625 71.875 43.28125 67.140625 
Q 48.6875 62.40625 49.75 54.046875 
z
M 13.875 23.1875 
Q 13.875 18.65625 15.796875 14.5 
Q 17.71875 10.359375 21.1875 8.171875 
Q 24.65625 6 28.46875 6 
Q 34.03125 6 38.03125 10.484375 
Q 42.046875 14.984375 42.046875 22.703125 
Q 42.046875 30.125 38.078125 34.390625 
Q 34.125 38.671875 28.125 38.671875 
Q 22.171875 38.671875 18.015625 34.390625 
Q 13.875 30.125 13.875 23.1875 
z
" id="ArialMT-36"/>
      </defs>
      <g style="fill:#262626;" transform="translate(106.938622 190.117812)scale(0.1 -0.1)">
       <use xlink:href="#ArialMT-36"/>
      </g>
     </g>
    </g>
    <g id="xtick_4">
     <g id="line2d_4">
      <g>
       <use style="fill:#262626;stroke:#262626;stroke-width:0.8;" x="138.580909" xlink:href="#m039861ff55" y="175.96"/>
      </g>
     </g>
     <g id="text_4">
      <!-- 8 -->
      <defs>
       <path d="M 17.671875 38.8125 
Q 12.203125 40.828125 9.5625 44.53125 
Q 6.9375 48.25 6.9375 53.421875 
Q 6.9375 61.234375 12.546875 66.546875 
Q 18.171875 71.875 27.484375 71.875 
Q 36.859375 71.875 42.578125 66.421875 
Q 48.296875 60.984375 48.296875 53.171875 
Q 48.296875 48.1875 45.671875 44.5 
Q 43.0625 40.828125 37.75 38.8125 
Q 44.34375 36.671875 47.78125 31.875 
Q 51.21875 27.09375 51.21875 20.453125 
Q 51.21875 11.28125 44.71875 5.03125 
Q 38.234375 -1.21875 27.640625 -1.21875 
Q 17.046875 -1.21875 10.546875 5.046875 
Q 4.046875 11.328125 4.046875 20.703125 
Q 4.046875 27.6875 7.59375 32.390625 
Q 11.140625 37.109375 17.671875 38.8125 
z
M 15.921875 53.71875 
Q 15.921875 48.640625 19.1875 45.40625 
Q 22.46875 42.1875 27.6875 42.1875 
Q 32.765625 42.1875 36.015625 45.375 
Q 39.265625 48.578125 39.265625 53.21875 
Q 39.265625 58.0625 35.90625 61.359375 
Q 32.5625 64.65625 27.59375 64.65625 
Q 22.5625 64.65625 19.234375 61.421875 
Q 15.921875 58.203125 15.921875 53.71875 
z
M 13.09375 20.65625 
Q 13.09375 16.890625 14.875 13.375 
Q 16.65625 9.859375 20.171875 7.921875 
Q 23.6875 6 27.734375 6 
Q 34.03125 6 38.125 10.046875 
Q 42.234375 14.109375 42.234375 20.359375 
Q 42.234375 26.703125 38.015625 30.859375 
Q 33.796875 35.015625 27.4375 35.015625 
Q 21.234375 35.015625 17.15625 30.90625 
Q 13.09375 26.8125 13.09375 20.65625 
z
" id="ArialMT-38"/>
      </defs>
      <g style="fill:#262626;" transform="translate(135.80044 190.117812)scale(0.1 -0.1)">
       <use xlink:href="#ArialMT-38"/>
      </g>
     </g>
    </g>
    <g id="xtick_5">
     <g id="line2d_5">
      <g>
       <use style="fill:#262626;stroke:#262626;stroke-width:0.8;" x="167.442727" xlink:href="#m039861ff55" y="175.96"/>
      </g>
     </g>
     <g id="text_5">
      <!-- 10 -->
      <defs>
       <path d="M 37.25 0 
L 28.46875 0 
L 28.46875 56 
Q 25.296875 52.984375 20.140625 49.953125 
Q 14.984375 46.921875 10.890625 45.40625 
L 10.890625 53.90625 
Q 18.265625 57.375 23.78125 62.296875 
Q 29.296875 67.234375 31.59375 71.875 
L 37.25 71.875 
z
" id="ArialMT-31"/>
       <path d="M 4.15625 35.296875 
Q 4.15625 48 6.765625 55.734375 
Q 9.375 63.484375 14.515625 67.671875 
Q 19.671875 71.875 27.484375 71.875 
Q 33.25 71.875 37.59375 69.546875 
Q 41.9375 67.234375 44.765625 62.859375 
Q 47.609375 58.5 49.21875 52.21875 
Q 50.828125 45.953125 50.828125 35.296875 
Q 50.828125 22.703125 48.234375 14.96875 
Q 45.65625 7.234375 40.5 3 
Q 35.359375 -1.21875 27.484375 -1.21875 
Q 17.140625 -1.21875 11.234375 6.203125 
Q 4.15625 15.140625 4.15625 35.296875 
z
M 13.1875 35.296875 
Q 13.1875 17.671875 17.3125 11.828125 
Q 21.4375 6 27.484375 6 
Q 33.546875 6 37.671875 11.859375 
Q 41.796875 17.71875 41.796875 35.296875 
Q 41.796875 52.984375 37.671875 58.78125 
Q 33.546875 64.59375 27.390625 64.59375 
Q 21.34375 64.59375 17.71875 59.46875 
Q 13.1875 52.9375 13.1875 35.296875 
z
" id="ArialMT-30"/>
      </defs>
      <g style="fill:#262626;" transform="translate(161.88179 190.117812)scale(0.1 -0.1)">
       <use xlink:href="#ArialMT-31"/>
       <use x="55.615234" xlink:href="#ArialMT-30"/>
      </g>
     </g>
    </g>
    <g id="xtick_6">
     <g id="line2d_6">
      <g>
       <use style="fill:#262626;stroke:#262626;stroke-width:0.8;" x="196.304545" xlink:href="#m039861ff55" y="175.96"/>
      </g>
     </g>
     <g id="text_6">
      <!-- 12 -->
      <g style="fill:#262626;" transform="translate(190.743608 190.117812)scale(0.1 -0.1)">
       <use xlink:href="#ArialMT-31"/>
       <use x="55.615234" xlink:href="#ArialMT-32"/>
      </g>
     </g>
    </g>
    <g id="text_7">
     <!-- pH -->
     <defs>
      <path d="M 6.59375 -19.875 
L 6.59375 51.859375 
L 14.59375 51.859375 
L 14.59375 45.125 
Q 17.4375 49.078125 21 51.046875 
Q 24.5625 53.03125 29.640625 53.03125 
Q 36.28125 53.03125 41.359375 49.609375 
Q 46.4375 46.1875 49.015625 39.953125 
Q 51.609375 33.734375 51.609375 26.3125 
Q 51.609375 18.359375 48.75 11.984375 
Q 45.90625 5.609375 40.453125 2.21875 
Q 35.015625 -1.171875 29 -1.171875 
Q 24.609375 -1.171875 21.109375 0.6875 
Q 17.625 2.546875 15.375 5.375 
L 15.375 -19.875 
z
M 14.546875 25.640625 
Q 14.546875 15.625 18.59375 10.84375 
Q 22.65625 6.0625 28.421875 6.0625 
Q 34.28125 6.0625 38.453125 11.015625 
Q 42.625 15.96875 42.625 26.375 
Q 42.625 36.28125 38.546875 41.203125 
Q 34.46875 46.140625 28.8125 46.140625 
Q 23.1875 46.140625 18.859375 40.890625 
Q 14.546875 35.640625 14.546875 25.640625 
z
" id="ArialMT-70"/>
      <path d="M 8.015625 0 
L 8.015625 71.578125 
L 17.484375 71.578125 
L 17.484375 42.1875 
L 54.6875 42.1875 
L 54.6875 71.578125 
L 64.15625 71.578125 
L 64.15625 0 
L 54.6875 0 
L 54.6875 33.734375 
L 17.484375 33.734375 
L 17.484375 0 
z
" id="ArialMT-48"/>
     </defs>
     <g style="fill:#262626;" transform="translate(117.758594 203.263125)scale(0.1 -0.1)">
      <use xlink:href="#ArialMT-70"/>
      <use x="55.615234" xlink:href="#ArialMT-48"/>
     </g>
    </g>
   </g>
   <g id="matplotlib.axis_2">
    <g id="ytick_1">
     <g id="line2d_7">
      <defs>
       <path d="M 0 0 
L -3.5 0 
" id="m7d0595d1a7" style="stroke:#262626;stroke-width:0.8;"/>
      </defs>
      <g>
       <use style="fill:#262626;stroke:#262626;stroke-width:0.8;" x="44.78" xlink:href="#m7d0595d1a7" y="151.682123"/>
      </g>
     </g>
     <g id="text_8">
      <!-- −1 -->
      <defs>
       <path d="M 52.828125 31.203125 
L 5.5625 31.203125 
L 5.5625 39.40625 
L 52.828125 39.40625 
z
" id="ArialMT-2212"/>
      </defs>
      <g style="fill:#262626;" transform="translate(26.378438 155.26103)scale(0.1 -0.1)">
       <use xlink:href="#ArialMT-2212"/>
       <use x="58.398438" xlink:href="#ArialMT-31"/>
      </g>
     </g>
    </g>
    <g id="ytick_2">
     <g id="line2d_8">
      <g>
       <use style="fill:#262626;stroke:#262626;stroke-width:0.8;" x="44.78" xlink:href="#m7d0595d1a7" y="99.421749"/>
      </g>
     </g>
     <g id="text_9">
      <!-- 0 -->
      <g style="fill:#262626;" transform="translate(32.219063 103.000655)scale(0.1 -0.1)">
       <use xlink:href="#ArialMT-30"/>
      </g>
     </g>
    </g>
    <g id="ytick_3">
     <g id="line2d_9">
      <g>
       <use style="fill:#262626;stroke:#262626;stroke-width:0.8;" x="44.78" xlink:href="#m7d0595d1a7" y="47.161374"/>
      </g>
     </g>
     <g id="text_10">
      <!-- 1 -->
      <g style="fill:#262626;" transform="translate(32.219063 50.74028)scale(0.1 -0.1)">
       <use xlink:href="#ArialMT-31"/>
      </g>
     </g>
    </g>
    <g id="text_11">
     <!-- $\langle q_\mathsf{total} \rangle$ -->
     <defs>
      <path d="M 8.9375 31.34375 
L 22.703125 75.875 
L 31 75.875 
L 17.234375 31.34375 
L 31 -13.1875 
L 22.703125 -13.1875 
z
" id="DejaVuSans-27e8"/>
      <path d="M 41.703125 8.203125 
Q 38.09375 3.46875 33.171875 1.015625 
Q 28.265625 -1.421875 22.3125 -1.421875 
Q 14.015625 -1.421875 9.296875 4.171875 
Q 4.59375 9.765625 4.59375 19.578125 
Q 4.59375 27.484375 7.5 34.859375 
Q 10.40625 42.234375 15.828125 48.09375 
Q 19.34375 51.90625 23.90625 53.953125 
Q 28.46875 56 33.5 56 
Q 39.546875 56 43.453125 53.609375 
Q 47.359375 51.21875 49.125 46.390625 
L 50.6875 54.59375 
L 59.71875 54.59375 
L 45.125 -20.609375 
L 36.078125 -20.609375 
z
M 13.921875 20.90625 
Q 13.921875 13.671875 16.9375 9.890625 
Q 19.96875 6.109375 25.6875 6.109375 
Q 34.1875 6.109375 40.1875 14.234375 
Q 46.1875 22.359375 46.1875 33.984375 
Q 46.1875 41.015625 43.078125 44.75 
Q 39.984375 48.484375 34.1875 48.484375 
Q 29.9375 48.484375 26.3125 46.5 
Q 22.703125 44.53125 20.015625 40.71875 
Q 17.1875 36.71875 15.546875 31.34375 
Q 13.921875 25.984375 13.921875 20.90625 
z
" id="DejaVuSans-Oblique-71"/>
      <path d="M 18.3125 70.21875 
L 18.3125 54.6875 
L 36.8125 54.6875 
L 36.8125 47.703125 
L 18.3125 47.703125 
L 18.3125 18.015625 
Q 18.3125 11.328125 20.140625 9.421875 
Q 21.96875 7.515625 27.59375 7.515625 
L 36.8125 7.515625 
L 36.8125 0 
L 27.59375 0 
Q 17.1875 0 13.234375 3.875 
Q 9.28125 7.765625 9.28125 18.015625 
L 9.28125 47.703125 
L 2.6875 47.703125 
L 2.6875 54.6875 
L 9.28125 54.6875 
L 9.28125 70.21875 
z
" id="DejaVuSans-74"/>
      <path d="M 30.609375 48.390625 
Q 23.390625 48.390625 19.1875 42.75 
Q 14.984375 37.109375 14.984375 27.296875 
Q 14.984375 17.484375 19.15625 11.84375 
Q 23.34375 6.203125 30.609375 6.203125 
Q 37.796875 6.203125 41.984375 11.859375 
Q 46.1875 17.53125 46.1875 27.296875 
Q 46.1875 37.015625 41.984375 42.703125 
Q 37.796875 48.390625 30.609375 48.390625 
z
M 30.609375 56 
Q 42.328125 56 49.015625 48.375 
Q 55.71875 40.765625 55.71875 27.296875 
Q 55.71875 13.875 49.015625 6.21875 
Q 42.328125 -1.421875 30.609375 -1.421875 
Q 18.84375 -1.421875 12.171875 6.21875 
Q 5.515625 13.875 5.515625 27.296875 
Q 5.515625 40.765625 12.171875 48.375 
Q 18.84375 56 30.609375 56 
z
" id="DejaVuSans-6f"/>
      <path d="M 34.28125 27.484375 
Q 23.390625 27.484375 19.1875 25 
Q 14.984375 22.515625 14.984375 16.5 
Q 14.984375 11.71875 18.140625 8.90625 
Q 21.296875 6.109375 26.703125 6.109375 
Q 34.1875 6.109375 38.703125 11.40625 
Q 43.21875 16.703125 43.21875 25.484375 
L 43.21875 27.484375 
z
M 52.203125 31.203125 
L 52.203125 0 
L 43.21875 0 
L 43.21875 8.296875 
Q 40.140625 3.328125 35.546875 0.953125 
Q 30.953125 -1.421875 24.3125 -1.421875 
Q 15.921875 -1.421875 10.953125 3.296875 
Q 6 8.015625 6 15.921875 
Q 6 25.140625 12.171875 29.828125 
Q 18.359375 34.515625 30.609375 34.515625 
L 43.21875 34.515625 
L 43.21875 35.40625 
Q 43.21875 41.609375 39.140625 45 
Q 35.0625 48.390625 27.6875 48.390625 
Q 23 48.390625 18.546875 47.265625 
Q 14.109375 46.140625 10.015625 43.890625 
L 10.015625 52.203125 
Q 14.9375 54.109375 19.578125 55.046875 
Q 24.21875 56 28.609375 56 
Q 40.484375 56 46.34375 49.84375 
Q 52.203125 43.703125 52.203125 31.203125 
z
" id="DejaVuSans-61"/>
      <path d="M 9.421875 75.984375 
L 18.40625 75.984375 
L 18.40625 0 
L 9.421875 0 
z
" id="DejaVuSans-6c"/>
      <path d="M 30.078125 31.34375 
L 16.3125 -13.1875 
L 8.015625 -13.1875 
L 21.78125 31.34375 
L 8.015625 75.875 
L 16.3125 75.875 
z
" id="DejaVuSans-27e9"/>
     </defs>
     <g style="fill:#262626;" transform="translate(20.278438 115.95)rotate(-90)scale(0.1 -0.1)">
      <use transform="translate(0 0.125)" xlink:href="#DejaVuSans-27e8"/>
      <use transform="translate(39.013672 0.125)" xlink:href="#DejaVuSans-Oblique-71"/>
      <use transform="translate(102.490234 -16.28125)scale(0.7)" xlink:href="#DejaVuSans-74"/>
      <use transform="translate(129.936523 -16.28125)scale(0.7)" xlink:href="#DejaVuSans-6f"/>
      <use transform="translate(172.763672 -16.28125)scale(0.7)" xlink:href="#DejaVuSans-74"/>
      <use transform="translate(200.209961 -16.28125)scale(0.7)" xlink:href="#DejaVuSans-61"/>
      <use transform="translate(243.105469 -16.28125)scale(0.7)" xlink:href="#DejaVuSans-6c"/>
      <use transform="translate(265.288086 0.125)" xlink:href="#DejaVuSans-27e9"/>
     </g>
    </g>
   </g>
   <g id="PolyCollection_1">
    <defs>
     <path d="M 51.995455 -171.70374 
L 51.995455 -165.826079 
L 53.438545 -165.491805 
L 54.881636 -165.122831 
L 56.324727 -164.712921 
L 57.767818 -164.254226 
L 59.210909 -163.737149 
L 60.654 -163.150421 
L 62.097091 -162.481437 
L 63.540182 -161.716791 
L 64.983273 -160.842918 
L 66.426364 -159.846695 
L 67.869455 -158.715871 
L 69.312545 -157.439302 
L 70.755636 -156.007022 
L 72.198727 -154.41023 
L 73.641818 -152.641285 
L 75.084909 -150.693787 
L 76.528 -148.562763 
L 77.971091 -146.245002 
L 79.414182 -143.739548 
L 80.857273 -141.048442 
L 82.300364 -138.177791 
L 83.743455 -135.139309 
L 85.186545 -131.95233 
L 86.629636 -128.646142 
L 88.072727 -125.262197 
L 89.515818 -121.85543 
L 90.958909 -118.493837 
L 92.402 -115.255593 
L 93.845091 -112.22356 
L 95.288182 -109.477845 
L 96.731273 -107.087747 
L 98.174364 -105.104784 
L 99.617455 -103.558168 
L 101.060545 -102.453407 
L 102.503636 -101.77383 
L 103.946727 -101.484248 
L 105.389818 -101.535682 
L 106.832909 -101.870144 
L 108.276 -102.424748 
L 109.719091 -103.134666 
L 111.162182 -103.93471 
L 112.605273 -104.759526 
L 114.048364 -105.542666 
L 115.491455 -106.215352 
L 116.934545 -106.706722 
L 118.377636 -106.948259 
L 119.820727 -106.88414 
L 121.263818 -106.484085 
L 122.706909 -105.74956 
L 124.15 -104.707268 
L 125.593091 -103.39495 
L 127.036182 -101.849082 
L 128.479273 -100.098886 
L 129.922364 -98.165328 
L 131.365455 -96.06237 
L 132.808545 -93.798712 
L 134.251636 -91.379369 
L 135.694727 -88.807095 
L 137.137818 -86.083875 
L 138.580909 -83.212745 
L 140.024 -80.200134 
L 141.467091 -77.058747 
L 142.910182 -73.810771 
L 144.353273 -70.49085 
L 145.796364 -67.147994 
L 147.239455 -63.845457 
L 148.682545 -60.657907 
L 150.125636 -57.665787 
L 151.568727 -54.94765 
L 153.011818 -52.57199 
L 154.454909 -50.590295 
L 155.898 -49.032713 
L 157.341091 -47.906924 
L 158.784182 -47.199917 
L 160.227273 -46.881818 
L 161.670364 -46.910686 
L 163.113455 -47.237345 
L 164.556545 -47.80962 
L 165.999636 -48.575663 
L 167.442727 -49.486336 
L 168.885818 -50.496743 
L 170.328909 -51.567119 
L 171.772 -52.663251 
L 173.215091 -53.756599 
L 174.658182 -54.824196 
L 176.101273 -55.848373 
L 177.544364 -56.816316 
L 178.987455 -57.719464 
L 180.430545 -58.5528 
L 181.873636 -59.314117 
L 183.316727 -60.003338 
L 184.759818 -60.621946 
L 186.202909 -61.172549 
L 187.646 -61.658558 
L 189.089091 -62.083956 
L 190.532182 -62.453133 
L 191.975273 -62.770761 
L 193.418364 -63.04168 
L 194.861455 -63.270799 
L 196.304545 -63.462984 
L 196.304545 -65.230176 
L 196.304545 -65.230176 
L 194.861455 -65.437216 
L 193.418364 -65.685029 
L 191.975273 -65.979473 
L 190.532182 -66.326701 
L 189.089091 -66.73312 
L 187.646 -67.205365 
L 186.202909 -67.75029 
L 184.759818 -68.37497 
L 183.316727 -69.086686 
L 181.873636 -69.892887 
L 180.430545 -70.801099 
L 178.987455 -71.818777 
L 177.544364 -72.953067 
L 176.101273 -74.210541 
L 174.658182 -75.596917 
L 173.215091 -77.116894 
L 171.772 -78.774124 
L 170.328909 -80.571363 
L 168.885818 -82.51076 
L 167.442727 -84.594174 
L 165.999636 -86.823433 
L 164.556545 -89.200409 
L 163.113455 -91.726791 
L 161.670364 -94.403435 
L 160.227273 -97.229159 
L 158.784182 -100.198905 
L 157.341091 -103.30128 
L 155.898 -106.515681 
L 154.454909 -109.809525 
L 153.011818 -113.136312 
L 151.568727 -116.435464 
L 150.125636 -119.634651 
L 148.682545 -122.654826 
L 147.239455 -125.417376 
L 145.796364 -127.85209 
L 144.353273 -129.904265 
L 142.910182 -131.539546 
L 141.467091 -132.745752 
L 140.024 -133.53182 
L 138.580909 -133.92459 
L 137.137818 -133.964441 
L 135.694727 -133.700761 
L 134.251636 -133.187919 
L 132.808545 -132.482178 
L 131.365455 -131.63971 
L 129.922364 -130.715745 
L 128.479273 -129.764816 
L 127.036182 -128.842023 
L 125.593091 -128.005017 
L 124.15 -127.315877 
L 122.706909 -126.840931 
L 121.263818 -126.645707 
L 119.820727 -126.783628 
L 118.377636 -127.282826 
L 116.934545 -128.140656 
L 115.491455 -129.330898 
L 114.048364 -130.81755 
L 112.605273 -132.566022 
L 111.162182 -134.548209 
L 109.719091 -136.74303 
L 108.276 -139.134945 
L 106.832909 -141.711945 
L 105.389818 -144.463541 
L 103.946727 -147.37869 
L 102.503636 -150.443492 
L 101.060545 -153.638512 
L 99.617455 -156.935866 
L 98.174364 -160.296493 
L 96.731273 -163.668387 
L 95.288182 -166.98668 
L 93.845091 -170.176313 
L 92.402 -173.157449 
L 90.958909 -175.852946 
L 89.515818 -178.196471 
L 88.072727 -180.139495 
L 86.629636 -181.655723 
L 85.186545 -182.742266 
L 83.743455 -183.41775 
L 82.300364 -183.718182 
L 80.857273 -183.691668 
L 79.414182 -183.393006 
L 77.971091 -182.878872 
L 76.528 -182.204021 
L 75.084909 -181.418635 
L 73.641818 -180.566739 
L 72.198727 -179.6855 
L 70.755636 -178.805139 
L 69.312545 -177.949227 
L 67.869455 -177.135161 
L 66.426364 -176.374709 
L 64.983273 -175.674591 
L 63.540182 -175.037138 
L 62.097091 -174.461059 
L 60.654 -173.942348 
L 59.210909 -173.475298 
L 57.767818 -173.05348 
L 56.324727 -172.670577 
L 54.881636 -172.320949 
L 53.438545 -171.999908 
L 51.995455 -171.70374 
z
" id="mb3806c5f4c" style="stroke:#ffffff;stroke-opacity:0.05;"/>
    </defs>
    <g clip-path="url(#pe4ddaecd48)">
     <use style="fill:#8c0800;fill-opacity:0.05;stroke:#ffffff;stroke-opacity:0.05;" x="0" xlink:href="#mb3806c5f4c" y="216"/>
    </g>
   </g>
   <g id="line2d_10">
    <path clip-path="url(#pe4ddaecd48)" d="M 51.995455 47.23509 
L 53.438545 47.254143 
L 54.881636 47.27811 
L 56.324727 47.308251 
L 57.767818 47.346147 
L 59.210909 47.393777 
L 60.654 47.453615 
L 62.097091 47.528752 
L 63.540182 47.623035 
L 64.983273 47.741245 
L 66.426364 47.889298 
L 67.869455 48.074484 
L 69.312545 48.305735 
L 70.755636 48.59392 
L 72.198727 48.952135 
L 73.641818 49.395988 
L 75.084909 49.943789 
L 76.528 50.616608 
L 77.971091 51.438063 
L 79.414182 52.433723 
L 80.857273 53.629945 
L 82.300364 55.052013 
L 83.743455 56.72147 
L 85.186545 58.652702 
L 86.629636 60.849067 
L 88.072727 63.299154 
L 89.515818 65.974049 
L 90.958909 68.826608 
L 92.402 71.793479 
L 93.845091 74.800063 
L 95.288182 77.767737 
L 96.731273 80.621933 
L 98.174364 83.299362 
L 99.617455 85.752983 
L 101.060545 87.95404 
L 102.503636 89.891339 
L 103.946727 91.568531 
L 105.389818 93.000389 
L 106.832909 94.208956 
L 108.276 95.220154 
L 109.719091 96.061152 
L 111.162182 96.75854 
L 112.605273 97.337226 
L 114.048364 97.819892 
L 115.491455 98.226875 
L 116.934545 98.576311 
L 118.377636 98.884458 
L 119.820727 99.166116 
L 121.263818 99.435104 
L 122.706909 99.704754 
L 124.15 99.988428 
L 125.593091 100.300017 
L 127.036182 100.654448 
L 128.479273 101.068149 
L 129.922364 101.559463 
L 131.365455 102.14896 
L 132.808545 102.859555 
L 134.251636 103.716356 
L 135.694727 104.746072 
L 137.137818 105.975842 
L 138.580909 107.431333 
L 140.024 109.134023 
L 141.467091 111.097751 
L 142.910182 113.324842 
L 144.353273 115.802442 
L 145.796364 118.499958 
L 147.239455 121.368584 
L 148.682545 124.343633 
L 150.125636 127.349781 
L 151.568727 130.308443 
L 153.011818 133.145849 
L 154.454909 135.80009 
L 155.898 138.225803 
L 157.341091 140.395898 
L 158.784182 142.300589 
L 160.227273 143.944512 
L 161.670364 145.34294 
L 163.113455 146.517932 
L 164.556545 147.494986 
L 165.999636 148.300452 
L 167.442727 148.959745 
L 168.885818 149.496249 
L 170.328909 149.930759 
L 171.772 150.281313 
L 173.215091 150.563253 
L 174.658182 150.789444 
L 176.101273 150.970543 
L 177.544364 151.115308 
L 178.987455 151.23088 
L 180.430545 151.32305 
L 181.873636 151.396498 
L 183.316727 151.454988 
L 184.759818 151.501542 
L 186.202909 151.53858 
L 187.646 151.568039 
L 189.089091 151.591462 
L 190.532182 151.610083 
L 191.975273 151.624883 
L 193.418364 151.636646 
L 194.861455 151.645993 
L 196.304545 151.65342 
" style="fill:none;opacity:0.9;stroke:#8c0800;stroke-linecap:round;stroke-width:1.5;"/>
   </g>
   <g id="line2d_11">
    <path clip-path="url(#pe4ddaecd48)" d="M 51.995455 47.265439 
L 53.438545 47.292317 
L 54.881636 47.326115 
L 56.324727 47.368601 
L 57.767818 47.42199 
L 59.210909 47.489047 
L 60.654 47.573222 
L 62.097091 47.678804 
L 63.540182 47.811114 
L 64.983273 47.976724 
L 66.426364 48.18371 
L 67.869455 48.441933 
L 69.312545 48.763339 
L 70.755636 49.16225 
L 72.198727 49.655604 
L 73.641818 50.263098 
L 75.084909 51.007121 
L 76.528 51.912369 
L 77.971091 53.004988 
L 79.414182 54.311075 
L 80.857273 55.854419 
L 82.300364 57.65344 
L 83.743455 59.717492 
L 85.186545 62.042957 
L 86.629636 64.609891 
L 88.072727 67.380173 
L 89.515818 70.298081 
L 90.958909 73.293817 
L 92.402 76.289733 
L 93.845091 79.208187 
L 95.288182 81.979401 
L 96.731273 84.547691 
L 98.174364 86.874993 
L 99.617455 88.941443 
L 101.060545 90.743539 
L 102.503636 92.290783 
L 103.946727 93.601794 
L 105.389818 94.700614 
L 106.832909 95.613664 
L 108.276 96.3675 
L 109.719091 96.987333 
L 111.162182 97.496205 
L 112.605273 97.914631 
L 114.048364 98.260576 
L 115.491455 98.549653 
L 116.934545 98.795424 
L 118.377636 99.009775 
L 119.820727 99.203313 
L 121.263818 99.385769 
L 122.706909 99.566396 
L 124.15 99.75437 
L 125.593091 99.959181 
L 127.036182 100.191038 
L 128.479273 100.461267 
L 129.922364 100.782715 
L 131.365455 101.17013 
L 132.808545 101.640507 
L 134.251636 102.213329 
L 135.694727 102.910647 
L 137.137818 103.756874 
L 138.580909 104.778167 
L 140.024 106.001223 
L 141.467091 107.451359 
L 142.910182 109.149776 
L 144.353273 111.110091 
L 145.796364 113.334457 
L 147.239455 115.809884 
L 148.682545 118.50567 
L 150.125636 121.372926 
L 151.568727 124.346899 
L 153.011818 127.352209 
L 154.454909 130.310227 
L 155.898 133.147145 
L 157.341091 135.801023 
L 158.784182 138.226467 
L 160.227273 140.396369 
L 161.670364 142.300921 
L 163.113455 143.944745 
L 164.556545 145.343104 
L 165.999636 146.518048 
L 167.442727 147.495069 
L 168.885818 148.300511 
L 170.328909 148.959788 
L 171.772 149.49628 
L 173.215091 149.930782 
L 174.658182 150.28133 
L 176.101273 150.563266 
L 177.544364 150.789453 
L 178.987455 150.970551 
L 180.430545 151.115314 
L 181.873636 151.230884 
L 183.316727 151.323054 
L 184.759818 151.396501 
L 186.202909 151.45499 
L 187.646 151.501544 
L 189.089091 151.538582 
L 190.532182 151.56804 
L 191.975273 151.591463 
L 193.418364 151.610083 
L 194.861455 151.624884 
L 196.304545 151.636646 
" style="fill:none;opacity:0.7;stroke:#000000;stroke-linecap:round;stroke-width:1.5;"/>
   </g>
   <g id="line2d_12">
    <path clip-path="url(#pe4ddaecd48)" d="M 51.995455 44.29626 
L 53.438545 44.000092 
L 54.881636 43.679051 
L 56.324727 43.329423 
L 57.767818 42.94652 
L 59.210909 42.524702 
L 60.654 42.057652 
L 62.097091 41.538941 
L 63.540182 40.962862 
L 64.983273 40.325409 
L 66.426364 39.625291 
L 67.869455 38.864839 
L 69.312545 38.050773 
L 70.755636 37.194861 
L 72.198727 36.3145 
L 73.641818 35.433261 
L 75.084909 34.581365 
L 76.528 33.795979 
L 77.971091 33.121128 
L 79.414182 32.606994 
L 80.857273 32.308332 
L 82.300364 32.281818 
L 83.743455 32.58225 
L 85.186545 33.257734 
L 86.629636 34.344277 
L 88.072727 35.860505 
L 89.515818 37.803529 
L 90.958909 40.147054 
L 92.402 42.842551 
L 93.845091 45.823687 
L 95.288182 49.01332 
L 96.731273 52.331613 
L 98.174364 55.703507 
L 99.617455 59.064134 
L 101.060545 62.361488 
L 102.503636 65.556508 
L 103.946727 68.62131 
L 105.389818 71.536459 
L 106.832909 74.288055 
L 108.276 76.865055 
L 109.719091 79.25697 
L 111.162182 81.451791 
L 112.605273 83.433978 
L 114.048364 85.18245 
L 115.491455 86.669102 
L 116.934545 87.859344 
L 118.377636 88.717174 
L 119.820727 89.216372 
L 121.263818 89.354293 
L 122.706909 89.159069 
L 124.15 88.684123 
L 125.593091 87.994983 
L 127.036182 87.157977 
L 128.479273 86.235184 
L 129.922364 85.284255 
L 131.365455 84.36029 
L 132.808545 83.517822 
L 134.251636 82.812081 
L 135.694727 82.299239 
L 137.137818 82.035559 
L 138.580909 82.07541 
L 140.024 82.46818 
L 141.467091 83.254248 
L 142.910182 84.460454 
L 144.353273 86.095735 
L 145.796364 88.14791 
L 147.239455 90.582624 
L 148.682545 93.345174 
L 150.125636 96.365349 
L 151.568727 99.564536 
L 153.011818 102.863688 
L 154.454909 106.190475 
L 155.898 109.484319 
L 157.341091 112.69872 
L 158.784182 115.801095 
L 160.227273 118.770841 
L 161.670364 121.596565 
L 163.113455 124.273209 
L 164.556545 126.799591 
L 165.999636 129.176567 
L 167.442727 131.405826 
L 168.885818 133.48924 
L 170.328909 135.428637 
L 171.772 137.225876 
L 173.215091 138.883106 
L 174.658182 140.403083 
L 176.101273 141.789459 
L 177.544364 143.046933 
L 178.987455 144.181223 
L 180.430545 145.198901 
L 181.873636 146.107113 
L 183.316727 146.913314 
L 184.759818 147.62503 
L 186.202909 148.24971 
L 187.646 148.794635 
L 189.089091 149.26688 
L 190.532182 149.673299 
L 191.975273 150.020527 
L 193.418364 150.314971 
L 194.861455 150.562784 
L 196.304545 150.769824 
" style="fill:none;opacity:0.45;stroke:#8c0800;stroke-dasharray:2.775,1.2;stroke-dashoffset:0;stroke-width:0.75;"/>
   </g>
   <g id="line2d_13">
    <path clip-path="url(#pe4ddaecd48)" d="M 51.995455 50.173921 
L 53.438545 50.508195 
L 54.881636 50.877169 
L 56.324727 51.287079 
L 57.767818 51.745774 
L 59.210909 52.262851 
L 60.654 52.849579 
L 62.097091 53.518563 
L 63.540182 54.283209 
L 64.983273 55.157082 
L 66.426364 56.153305 
L 67.869455 57.284129 
L 69.312545 58.560698 
L 70.755636 59.992978 
L 72.198727 61.58977 
L 73.641818 63.358715 
L 75.084909 65.306213 
L 76.528 67.437237 
L 77.971091 69.754998 
L 79.414182 72.260452 
L 80.857273 74.951558 
L 82.300364 77.822209 
L 83.743455 80.860691 
L 85.186545 84.04767 
L 86.629636 87.353858 
L 88.072727 90.737803 
L 89.515818 94.14457 
L 90.958909 97.506163 
L 92.402 100.744407 
L 93.845091 103.77644 
L 95.288182 106.522155 
L 96.731273 108.912253 
L 98.174364 110.895216 
L 99.617455 112.441832 
L 101.060545 113.546593 
L 102.503636 114.22617 
L 103.946727 114.515752 
L 105.389818 114.464318 
L 106.832909 114.129856 
L 108.276 113.575252 
L 109.719091 112.865334 
L 111.162182 112.06529 
L 112.605273 111.240474 
L 114.048364 110.457334 
L 115.491455 109.784648 
L 116.934545 109.293278 
L 118.377636 109.051741 
L 119.820727 109.11586 
L 121.263818 109.515915 
L 122.706909 110.25044 
L 124.15 111.292732 
L 125.593091 112.60505 
L 127.036182 114.150918 
L 128.479273 115.901114 
L 129.922364 117.834672 
L 131.365455 119.93763 
L 132.808545 122.201288 
L 134.251636 124.620631 
L 135.694727 127.192905 
L 137.137818 129.916125 
L 138.580909 132.787255 
L 140.024 135.799866 
L 141.467091 138.941253 
L 142.910182 142.189229 
L 144.353273 145.50915 
L 145.796364 148.852006 
L 147.239455 152.154543 
L 148.682545 155.342093 
L 150.125636 158.334213 
L 151.568727 161.05235 
L 153.011818 163.42801 
L 154.454909 165.409705 
L 155.898 166.967287 
L 157.341091 168.093076 
L 158.784182 168.800083 
L 160.227273 169.118182 
L 161.670364 169.089314 
L 163.113455 168.762655 
L 164.556545 168.19038 
L 165.999636 167.424337 
L 167.442727 166.513664 
L 168.885818 165.503257 
L 170.328909 164.432881 
L 171.772 163.336749 
L 173.215091 162.243401 
L 174.658182 161.175804 
L 176.101273 160.151627 
L 177.544364 159.183684 
L 178.987455 158.280536 
L 180.430545 157.4472 
L 181.873636 156.685883 
L 183.316727 155.996662 
L 184.759818 155.378054 
L 186.202909 154.827451 
L 187.646 154.341442 
L 189.089091 153.916044 
L 190.532182 153.546867 
L 191.975273 153.229239 
L 193.418364 152.95832 
L 194.861455 152.729201 
L 196.304545 152.537016 
" style="fill:none;opacity:0.45;stroke:#8c0800;stroke-dasharray:2.775,1.2;stroke-dashoffset:0;stroke-width:0.75;"/>
   </g>
   <g id="patch_3">
    <path d="M 44.78 175.96 
L 44.78 25.44 
" style="fill:none;stroke:#262626;stroke-linecap:square;stroke-linejoin:miter;stroke-width:0.8;"/>
   </g>
   <g id="patch_4">
    <path d="M 44.78 175.96 
L 203.52 175.96 
" style="fill:none;stroke:#262626;stroke-linecap:square;stroke-linejoin:miter;stroke-width:0.8;"/>
   </g>
   <g id="text_12">
    <!-- Jaguar-micro SM15 -->
    <defs>
     <path d="M 2.875 20.3125 
L 11.421875 21.484375 
Q 11.765625 13.28125 14.5 10.25 
Q 17.234375 7.234375 22.078125 7.234375 
Q 25.640625 7.234375 28.21875 8.859375 
Q 30.8125 10.5 31.78125 13.296875 
Q 32.765625 16.109375 32.765625 22.265625 
L 32.765625 71.578125 
L 42.234375 71.578125 
L 42.234375 22.796875 
Q 42.234375 13.8125 40.0625 8.875 
Q 37.890625 3.953125 33.171875 1.359375 
Q 28.46875 -1.21875 22.125 -1.21875 
Q 12.703125 -1.21875 7.6875 4.203125 
Q 2.6875 9.625 2.875 20.3125 
z
" id="ArialMT-4a"/>
     <path d="M 40.4375 6.390625 
Q 35.546875 2.25 31.03125 0.53125 
Q 26.515625 -1.171875 21.34375 -1.171875 
Q 12.796875 -1.171875 8.203125 3 
Q 3.609375 7.171875 3.609375 13.671875 
Q 3.609375 17.484375 5.34375 20.625 
Q 7.078125 23.78125 9.890625 25.6875 
Q 12.703125 27.59375 16.21875 28.5625 
Q 18.796875 29.25 24.03125 29.890625 
Q 34.671875 31.15625 39.703125 32.90625 
Q 39.75 34.71875 39.75 35.203125 
Q 39.75 40.578125 37.25 42.78125 
Q 33.890625 45.75 27.25 45.75 
Q 21.046875 45.75 18.09375 43.578125 
Q 15.140625 41.40625 13.71875 35.890625 
L 5.125 37.0625 
Q 6.296875 42.578125 8.984375 45.96875 
Q 11.671875 49.359375 16.75 51.1875 
Q 21.828125 53.03125 28.515625 53.03125 
Q 35.15625 53.03125 39.296875 51.46875 
Q 43.453125 49.90625 45.40625 47.53125 
Q 47.359375 45.171875 48.140625 41.546875 
Q 48.578125 39.3125 48.578125 33.453125 
L 48.578125 21.734375 
Q 48.578125 9.46875 49.140625 6.21875 
Q 49.703125 2.984375 51.375 0 
L 42.1875 0 
Q 40.828125 2.734375 40.4375 6.390625 
z
M 39.703125 26.03125 
Q 34.90625 24.078125 25.34375 22.703125 
Q 19.921875 21.921875 17.671875 20.9375 
Q 15.4375 19.96875 14.203125 18.09375 
Q 12.984375 16.21875 12.984375 13.921875 
Q 12.984375 10.40625 15.640625 8.0625 
Q 18.3125 5.71875 23.4375 5.71875 
Q 28.515625 5.71875 32.46875 7.9375 
Q 36.421875 10.15625 38.28125 14.015625 
Q 39.703125 17 39.703125 22.796875 
z
" id="ArialMT-61"/>
     <path d="M 4.984375 -4.296875 
L 13.53125 -5.5625 
Q 14.0625 -9.515625 16.5 -11.328125 
Q 19.78125 -13.765625 25.4375 -13.765625 
Q 31.546875 -13.765625 34.859375 -11.328125 
Q 38.1875 -8.890625 39.359375 -4.5 
Q 40.046875 -1.8125 39.984375 6.78125 
Q 34.234375 0 25.640625 0 
Q 14.9375 0 9.078125 7.71875 
Q 3.21875 15.4375 3.21875 26.21875 
Q 3.21875 33.640625 5.90625 39.90625 
Q 8.59375 46.1875 13.6875 49.609375 
Q 18.796875 53.03125 25.6875 53.03125 
Q 34.859375 53.03125 40.828125 45.609375 
L 40.828125 51.859375 
L 48.921875 51.859375 
L 48.921875 7.03125 
Q 48.921875 -5.078125 46.453125 -10.125 
Q 44 -15.1875 38.640625 -18.109375 
Q 33.296875 -21.046875 25.484375 -21.046875 
Q 16.21875 -21.046875 10.5 -16.875 
Q 4.78125 -12.703125 4.984375 -4.296875 
z
M 12.25 26.859375 
Q 12.25 16.65625 16.296875 11.96875 
Q 20.359375 7.28125 26.46875 7.28125 
Q 32.515625 7.28125 36.609375 11.9375 
Q 40.71875 16.609375 40.71875 26.5625 
Q 40.71875 36.078125 36.5 40.90625 
Q 32.28125 45.75 26.3125 45.75 
Q 20.453125 45.75 16.34375 40.984375 
Q 12.25 36.234375 12.25 26.859375 
z
" id="ArialMT-67"/>
     <path d="M 40.578125 0 
L 40.578125 7.625 
Q 34.515625 -1.171875 24.125 -1.171875 
Q 19.53125 -1.171875 15.546875 0.578125 
Q 11.578125 2.34375 9.640625 5 
Q 7.71875 7.671875 6.9375 11.53125 
Q 6.390625 14.109375 6.390625 19.734375 
L 6.390625 51.859375 
L 15.1875 51.859375 
L 15.1875 23.09375 
Q 15.1875 16.21875 15.71875 13.8125 
Q 16.546875 10.359375 19.234375 8.375 
Q 21.921875 6.390625 25.875 6.390625 
Q 29.828125 6.390625 33.296875 8.421875 
Q 36.765625 10.453125 38.203125 13.9375 
Q 39.65625 17.4375 39.65625 24.078125 
L 39.65625 51.859375 
L 48.4375 51.859375 
L 48.4375 0 
z
" id="ArialMT-75"/>
     <path d="M 6.5 0 
L 6.5 51.859375 
L 14.40625 51.859375 
L 14.40625 44 
Q 17.4375 49.515625 20 51.265625 
Q 22.5625 53.03125 25.640625 53.03125 
Q 30.078125 53.03125 34.671875 50.203125 
L 31.640625 42.046875 
Q 28.421875 43.953125 25.203125 43.953125 
Q 22.3125 43.953125 20.015625 42.21875 
Q 17.71875 40.484375 16.75 37.40625 
Q 15.28125 32.71875 15.28125 27.15625 
L 15.28125 0 
z
" id="ArialMT-72"/>
     <path d="M 3.171875 21.484375 
L 3.171875 30.328125 
L 30.171875 30.328125 
L 30.171875 21.484375 
z
" id="ArialMT-2d"/>
     <path d="M 6.59375 0 
L 6.59375 51.859375 
L 14.453125 51.859375 
L 14.453125 44.578125 
Q 16.890625 48.390625 20.9375 50.703125 
Q 25 53.03125 30.171875 53.03125 
Q 35.9375 53.03125 39.625 50.640625 
Q 43.3125 48.25 44.828125 43.953125 
Q 50.984375 53.03125 60.84375 53.03125 
Q 68.5625 53.03125 72.703125 48.75 
Q 76.859375 44.484375 76.859375 35.59375 
L 76.859375 0 
L 68.109375 0 
L 68.109375 32.671875 
Q 68.109375 37.9375 67.25 40.25 
Q 66.40625 42.578125 64.15625 43.984375 
Q 61.921875 45.40625 58.890625 45.40625 
Q 53.421875 45.40625 49.796875 41.765625 
Q 46.1875 38.140625 46.1875 30.125 
L 46.1875 0 
L 37.40625 0 
L 37.40625 33.6875 
Q 37.40625 39.546875 35.25 42.46875 
Q 33.109375 45.40625 28.21875 45.40625 
Q 24.515625 45.40625 21.359375 43.453125 
Q 18.21875 41.5 16.796875 37.734375 
Q 15.375 33.984375 15.375 26.90625 
L 15.375 0 
z
" id="ArialMT-6d"/>
     <path d="M 6.640625 61.46875 
L 6.640625 71.578125 
L 15.4375 71.578125 
L 15.4375 61.46875 
z
M 6.640625 0 
L 6.640625 51.859375 
L 15.4375 51.859375 
L 15.4375 0 
z
" id="ArialMT-69"/>
     <path d="M 40.4375 19 
L 49.078125 17.875 
Q 47.65625 8.9375 41.8125 3.875 
Q 35.984375 -1.171875 27.484375 -1.171875 
Q 16.84375 -1.171875 10.375 5.78125 
Q 3.90625 12.75 3.90625 25.734375 
Q 3.90625 34.125 6.6875 40.421875 
Q 9.46875 46.734375 15.15625 49.875 
Q 20.84375 53.03125 27.546875 53.03125 
Q 35.984375 53.03125 41.359375 48.75 
Q 46.734375 44.484375 48.25 36.625 
L 39.703125 35.296875 
Q 38.484375 40.53125 35.375 43.15625 
Q 32.28125 45.796875 27.875 45.796875 
Q 21.234375 45.796875 17.078125 41.03125 
Q 12.9375 36.28125 12.9375 25.984375 
Q 12.9375 15.53125 16.9375 10.796875 
Q 20.953125 6.0625 27.390625 6.0625 
Q 32.5625 6.0625 36.03125 9.234375 
Q 39.5 12.40625 40.4375 19 
z
" id="ArialMT-63"/>
     <path d="M 3.328125 25.921875 
Q 3.328125 40.328125 11.328125 47.265625 
Q 18.015625 53.03125 27.640625 53.03125 
Q 38.328125 53.03125 45.109375 46.015625 
Q 51.90625 39.015625 51.90625 26.65625 
Q 51.90625 16.65625 48.90625 10.90625 
Q 45.90625 5.171875 40.15625 2 
Q 34.421875 -1.171875 27.640625 -1.171875 
Q 16.75 -1.171875 10.03125 5.8125 
Q 3.328125 12.796875 3.328125 25.921875 
z
M 12.359375 25.921875 
Q 12.359375 15.96875 16.703125 11.015625 
Q 21.046875 6.0625 27.640625 6.0625 
Q 34.1875 6.0625 38.53125 11.03125 
Q 42.875 16.015625 42.875 26.21875 
Q 42.875 35.84375 38.5 40.796875 
Q 34.125 45.75 27.640625 45.75 
Q 21.046875 45.75 16.703125 40.8125 
Q 12.359375 35.890625 12.359375 25.921875 
z
" id="ArialMT-6f"/>
     <path id="ArialMT-20"/>
     <path d="M 4.5 23 
L 13.421875 23.78125 
Q 14.0625 18.40625 16.375 14.96875 
Q 18.703125 11.53125 23.578125 9.40625 
Q 28.46875 7.28125 34.578125 7.28125 
Q 39.984375 7.28125 44.140625 8.890625 
Q 48.296875 10.5 50.3125 13.296875 
Q 52.34375 16.109375 52.34375 19.4375 
Q 52.34375 22.796875 50.390625 25.3125 
Q 48.4375 27.828125 43.953125 29.546875 
Q 41.0625 30.671875 31.203125 33.03125 
Q 21.34375 35.40625 17.390625 37.5 
Q 12.25 40.1875 9.734375 44.15625 
Q 7.234375 48.140625 7.234375 53.078125 
Q 7.234375 58.5 10.296875 63.203125 
Q 13.375 67.921875 19.28125 70.359375 
Q 25.203125 72.796875 32.421875 72.796875 
Q 40.375 72.796875 46.453125 70.234375 
Q 52.546875 67.671875 55.8125 62.6875 
Q 59.078125 57.71875 59.328125 51.421875 
L 50.25 50.734375 
Q 49.515625 57.515625 45.28125 60.984375 
Q 41.0625 64.453125 32.8125 64.453125 
Q 24.21875 64.453125 20.28125 61.296875 
Q 16.359375 58.15625 16.359375 53.71875 
Q 16.359375 49.859375 19.140625 47.359375 
Q 21.875 44.875 33.421875 42.265625 
Q 44.96875 39.65625 49.265625 37.703125 
Q 55.515625 34.8125 58.484375 30.390625 
Q 61.46875 25.984375 61.46875 20.21875 
Q 61.46875 14.5 58.203125 9.4375 
Q 54.9375 4.390625 48.796875 1.578125 
Q 42.671875 -1.21875 35.015625 -1.21875 
Q 25.296875 -1.21875 18.71875 1.609375 
Q 12.15625 4.4375 8.421875 10.125 
Q 4.6875 15.828125 4.5 23 
z
" id="ArialMT-53"/>
     <path d="M 7.421875 0 
L 7.421875 71.578125 
L 21.6875 71.578125 
L 38.625 20.90625 
Q 40.96875 13.8125 42.046875 10.296875 
Q 43.265625 14.203125 45.84375 21.78125 
L 62.984375 71.578125 
L 75.734375 71.578125 
L 75.734375 0 
L 66.609375 0 
L 66.609375 59.90625 
L 45.796875 0 
L 37.25 0 
L 16.546875 60.9375 
L 16.546875 0 
z
" id="ArialMT-4d"/>
     <path d="M 4.15625 18.75 
L 13.375 19.53125 
Q 14.40625 12.796875 18.140625 9.390625 
Q 21.875 6 27.15625 6 
Q 33.5 6 37.890625 10.78125 
Q 42.28125 15.578125 42.28125 23.484375 
Q 42.28125 31 38.0625 35.34375 
Q 33.84375 39.703125 27 39.703125 
Q 22.75 39.703125 19.328125 37.765625 
Q 15.921875 35.84375 13.96875 32.765625 
L 5.71875 33.84375 
L 12.640625 70.609375 
L 48.25 70.609375 
L 48.25 62.203125 
L 19.671875 62.203125 
L 15.828125 42.96875 
Q 22.265625 47.46875 29.34375 47.46875 
Q 38.71875 47.46875 45.15625 40.96875 
Q 51.609375 34.46875 51.609375 24.265625 
Q 51.609375 14.546875 45.953125 7.46875 
Q 39.0625 -1.21875 27.15625 -1.21875 
Q 17.390625 -1.21875 11.203125 4.25 
Q 5.03125 9.71875 4.15625 18.75 
z
" id="ArialMT-35"/>
    </defs>
    <g style="fill:#262626;" transform="translate(71.802813 19.44)scale(0.12 -0.12)">
     <use xlink:href="#ArialMT-4a"/>
     <use x="50" xlink:href="#ArialMT-61"/>
     <use x="105.615234" xlink:href="#ArialMT-67"/>
     <use x="161.230469" xlink:href="#ArialMT-75"/>
     <use x="216.845703" xlink:href="#ArialMT-61"/>
     <use x="272.460938" xlink:href="#ArialMT-72"/>
     <use x="305.761719" xlink:href="#ArialMT-2d"/>
     <use x="339.0625" xlink:href="#ArialMT-6d"/>
     <use x="422.363281" xlink:href="#ArialMT-69"/>
     <use x="444.580078" xlink:href="#ArialMT-63"/>
     <use x="494.580078" xlink:href="#ArialMT-72"/>
     <use x="527.880859" xlink:href="#ArialMT-6f"/>
     <use x="583.496094" xlink:href="#ArialMT-20"/>
     <use x="611.279297" xlink:href="#ArialMT-53"/>
     <use x="677.978516" xlink:href="#ArialMT-4d"/>
     <use x="761.279297" xlink:href="#ArialMT-31"/>
     <use x="816.894531" xlink:href="#ArialMT-35"/>
    </g>
   </g>
  </g>
 </g>
 <defs>
  <clipPath id="pe4ddaecd48">
   <rect height="150.52" width="158.74" x="44.78" y="25.44"/>
  </clipPath>
 </defs>
</svg>
