<?xml version="1.0" encoding="utf-8" standalone="no"?>
<!DOCTYPE svg PUBLIC "-//W3C//DTD SVG 1.1//EN"
  "http://www.w3.org/Graphics/SVG/1.1/DTD/svg11.dtd">
<!-- Created with matplotlib (http://matplotlib.org/) -->
<svg height="216pt" version="1.1" viewBox="0 0 216 216" width="216pt" xmlns="http://www.w3.org/2000/svg" xmlns:xlink="http://www.w3.org/1999/xlink">
 <defs>
  <style type="text/css">
*{stroke-linecap:butt;stroke-linejoin:round;}
  </style>
 </defs>
 <g id="figure_1">
  <g id="patch_1">
   <path d="M 0 216 
L 216 216 
L 216 0 
L 0 0 
z
" style="fill:#ffffff;"/>
  </g>
  <g id="axes_1">
   <g id="patch_2">
    <path d="M 38.96 175.96 
L 203.52 175.96 
L 203.52 25.44 
L 38.96 25.44 
z
" style="fill:#ffffff;"/>
   </g>
   <g id="matplotlib.axis_1">
    <g id="xtick_1">
     <g id="line2d_1">
      <defs>
       <path d="M 0 0 
L 0 3.5 
" id="m252473aff6" style="stroke:#262626;stroke-width:0.8;"/>
      </defs>
      <g>
       <use style="fill:#262626;stroke:#262626;stroke-width:0.8;" x="46.44" xlink:href="#m252473aff6" y="175.96"/>
      </g>
     </g>
     <g id="text_1">
      <!-- 2 -->
      <defs>
       <path d="M 50.34375 8.453125 
L 50.34375 0 
L 3.03125 0 
Q 2.9375 3.171875 4.046875 6.109375 
Q 5.859375 10.9375 9.828125 15.625 
Q 13.8125 20.3125 21.34375 26.46875 
Q 33.015625 36.03125 37.109375 41.625 
Q 41.21875 47.21875 41.21875 52.203125 
Q 41.21875 57.421875 37.46875 61 
Q 33.734375 64.59375 27.734375 64.59375 
Q 21.390625 64.59375 17.578125 60.78125 
Q 13.765625 56.984375 13.71875 50.25 
L 4.6875 51.171875 
Q 5.609375 61.28125 11.65625 66.578125 
Q 17.71875 71.875 27.9375 71.875 
Q 38.234375 71.875 44.234375 66.15625 
Q 50.25 60.453125 50.25 52 
Q 50.25 47.703125 48.484375 43.546875 
Q 46.734375 39.40625 42.65625 34.8125 
Q 38.578125 30.21875 29.109375 22.21875 
Q 21.1875 15.578125 18.9375 13.203125 
Q 16.703125 10.84375 15.234375 8.453125 
z
" id="ArialMT-32"/>
      </defs>
      <g style="fill:#262626;" transform="translate(43.659531 190.117812)scale(0.1 -0.1)">
       <use xlink:href="#ArialMT-32"/>
      </g>
     </g>
    </g>
    <g id="xtick_2">
     <g id="line2d_2">
      <g>
       <use style="fill:#262626;stroke:#262626;stroke-width:0.8;" x="76.36" xlink:href="#m252473aff6" y="175.96"/>
      </g>
     </g>
     <g id="text_2">
      <!-- 4 -->
      <defs>
       <path d="M 32.328125 0 
L 32.328125 17.140625 
L 1.265625 17.140625 
L 1.265625 25.203125 
L 33.9375 71.578125 
L 41.109375 71.578125 
L 41.109375 25.203125 
L 50.78125 25.203125 
L 50.78125 17.140625 
L 41.109375 17.140625 
L 41.109375 0 
z
M 32.328125 25.203125 
L 32.328125 57.46875 
L 9.90625 25.203125 
z
" id="ArialMT-34"/>
      </defs>
      <g style="fill:#262626;" transform="translate(73.579531 190.117812)scale(0.1 -0.1)">
       <use xlink:href="#ArialMT-34"/>
      </g>
     </g>
    </g>
    <g id="xtick_3">
     <g id="line2d_3">
      <g>
       <use style="fill:#262626;stroke:#262626;stroke-width:0.8;" x="106.28" xlink:href="#m252473aff6" y="175.96"/>
      </g>
     </g>
     <g id="text_3">
      <!-- 6 -->
      <defs>
       <path d="M 49.75 54.046875 
L 41.015625 53.375 
Q 39.84375 58.546875 37.703125 60.890625 
Q 34.125 64.65625 28.90625 64.65625 
Q 24.703125 64.65625 21.53125 62.3125 
Q 17.390625 59.28125 14.984375 53.46875 
Q 12.59375 47.65625 12.5 36.921875 
Q 15.671875 41.75 20.265625 44.09375 
Q 24.859375 46.4375 29.890625 46.4375 
Q 38.671875 46.4375 44.84375 39.96875 
Q 51.03125 33.5 51.03125 23.25 
Q 51.03125 16.5 48.125 10.71875 
Q 45.21875 4.9375 40.140625 1.859375 
Q 35.0625 -1.21875 28.609375 -1.21875 
Q 17.625 -1.21875 10.6875 6.859375 
Q 3.765625 14.9375 3.765625 33.5 
Q 3.765625 54.25 11.421875 63.671875 
Q 18.109375 71.875 29.4375 71.875 
Q 37.890625 71.875 43.28125 67.140625 
Q 48.6875 62.40625 49.75 54.046875 
z
M 13.875 23.1875 
Q 13.875 18.65625 15.796875 14.5 
Q 17.71875 10.359375 21.1875 8.171875 
Q 24.65625 6 28.46875 6 
Q 34.03125 6 38.03125 10.484375 
Q 42.046875 14.984375 42.046875 22.703125 
Q 42.046875 30.125 38.078125 34.390625 
Q 34.125 38.671875 28.125 38.671875 
Q 22.171875 38.671875 18.015625 34.390625 
Q 13.875 30.125 13.875 23.1875 
z
" id="ArialMT-36"/>
      </defs>
      <g style="fill:#262626;" transform="translate(103.499531 190.117812)scale(0.1 -0.1)">
       <use xlink:href="#ArialMT-36"/>
      </g>
     </g>
    </g>
    <g id="xtick_4">
     <g id="line2d_4">
      <g>
       <use style="fill:#262626;stroke:#262626;stroke-width:0.8;" x="136.2" xlink:href="#m252473aff6" y="175.96"/>
      </g>
     </g>
     <g id="text_4">
      <!-- 8 -->
      <defs>
       <path d="M 17.671875 38.8125 
Q 12.203125 40.828125 9.5625 44.53125 
Q 6.9375 48.25 6.9375 53.421875 
Q 6.9375 61.234375 12.546875 66.546875 
Q 18.171875 71.875 27.484375 71.875 
Q 36.859375 71.875 42.578125 66.421875 
Q 48.296875 60.984375 48.296875 53.171875 
Q 48.296875 48.1875 45.671875 44.5 
Q 43.0625 40.828125 37.75 38.8125 
Q 44.34375 36.671875 47.78125 31.875 
Q 51.21875 27.09375 51.21875 20.453125 
Q 51.21875 11.28125 44.71875 5.03125 
Q 38.234375 -1.21875 27.640625 -1.21875 
Q 17.046875 -1.21875 10.546875 5.046875 
Q 4.046875 11.328125 4.046875 20.703125 
Q 4.046875 27.6875 7.59375 32.390625 
Q 11.140625 37.109375 17.671875 38.8125 
z
M 15.921875 53.71875 
Q 15.921875 48.640625 19.1875 45.40625 
Q 22.46875 42.1875 27.6875 42.1875 
Q 32.765625 42.1875 36.015625 45.375 
Q 39.265625 48.578125 39.265625 53.21875 
Q 39.265625 58.0625 35.90625 61.359375 
Q 32.5625 64.65625 27.59375 64.65625 
Q 22.5625 64.65625 19.234375 61.421875 
Q 15.921875 58.203125 15.921875 53.71875 
z
M 13.09375 20.65625 
Q 13.09375 16.890625 14.875 13.375 
Q 16.65625 9.859375 20.171875 7.921875 
Q 23.6875 6 27.734375 6 
Q 34.03125 6 38.125 10.046875 
Q 42.234375 14.109375 42.234375 20.359375 
Q 42.234375 26.703125 38.015625 30.859375 
Q 33.796875 35.015625 27.4375 35.015625 
Q 21.234375 35.015625 17.15625 30.90625 
Q 13.09375 26.8125 13.09375 20.65625 
z
" id="ArialMT-38"/>
      </defs>
      <g style="fill:#262626;" transform="translate(133.419531 190.117812)scale(0.1 -0.1)">
       <use xlink:href="#ArialMT-38"/>
      </g>
     </g>
    </g>
    <g id="xtick_5">
     <g id="line2d_5">
      <g>
       <use style="fill:#262626;stroke:#262626;stroke-width:0.8;" x="166.12" xlink:href="#m252473aff6" y="175.96"/>
      </g>
     </g>
     <g id="text_5">
      <!-- 10 -->
      <defs>
       <path d="M 37.25 0 
L 28.46875 0 
L 28.46875 56 
Q 25.296875 52.984375 20.140625 49.953125 
Q 14.984375 46.921875 10.890625 45.40625 
L 10.890625 53.90625 
Q 18.265625 57.375 23.78125 62.296875 
Q 29.296875 67.234375 31.59375 71.875 
L 37.25 71.875 
z
" id="ArialMT-31"/>
       <path d="M 4.15625 35.296875 
Q 4.15625 48 6.765625 55.734375 
Q 9.375 63.484375 14.515625 67.671875 
Q 19.671875 71.875 27.484375 71.875 
Q 33.25 71.875 37.59375 69.546875 
Q 41.9375 67.234375 44.765625 62.859375 
Q 47.609375 58.5 49.21875 52.21875 
Q 50.828125 45.953125 50.828125 35.296875 
Q 50.828125 22.703125 48.234375 14.96875 
Q 45.65625 7.234375 40.5 3 
Q 35.359375 -1.21875 27.484375 -1.21875 
Q 17.140625 -1.21875 11.234375 6.203125 
Q 4.15625 15.140625 4.15625 35.296875 
z
M 13.1875 35.296875 
Q 13.1875 17.671875 17.3125 11.828125 
Q 21.4375 6 27.484375 6 
Q 33.546875 6 37.671875 11.859375 
Q 41.796875 17.71875 41.796875 35.296875 
Q 41.796875 52.984375 37.671875 58.78125 
Q 33.546875 64.59375 27.390625 64.59375 
Q 21.34375 64.59375 17.71875 59.46875 
Q 13.1875 52.9375 13.1875 35.296875 
z
" id="ArialMT-30"/>
      </defs>
      <g style="fill:#262626;" transform="translate(160.559062 190.117812)scale(0.1 -0.1)">
       <use xlink:href="#ArialMT-31"/>
       <use x="55.615234" xlink:href="#ArialMT-30"/>
      </g>
     </g>
    </g>
    <g id="xtick_6">
     <g id="line2d_6">
      <g>
       <use style="fill:#262626;stroke:#262626;stroke-width:0.8;" x="196.04" xlink:href="#m252473aff6" y="175.96"/>
      </g>
     </g>
     <g id="text_6">
      <!-- 12 -->
      <g style="fill:#262626;" transform="translate(190.479062 190.117812)scale(0.1 -0.1)">
       <use xlink:href="#ArialMT-31"/>
       <use x="55.615234" xlink:href="#ArialMT-32"/>
      </g>
     </g>
    </g>
    <g id="text_7">
     <!-- pH -->
     <defs>
      <path d="M 6.59375 -19.875 
L 6.59375 51.859375 
L 14.59375 51.859375 
L 14.59375 45.125 
Q 17.4375 49.078125 21 51.046875 
Q 24.5625 53.03125 29.640625 53.03125 
Q 36.28125 53.03125 41.359375 49.609375 
Q 46.4375 46.1875 49.015625 39.953125 
Q 51.609375 33.734375 51.609375 26.3125 
Q 51.609375 18.359375 48.75 11.984375 
Q 45.90625 5.609375 40.453125 2.21875 
Q 35.015625 -1.171875 29 -1.171875 
Q 24.609375 -1.171875 21.109375 0.6875 
Q 17.625 2.546875 15.375 5.375 
L 15.375 -19.875 
z
M 14.546875 25.640625 
Q 14.546875 15.625 18.59375 10.84375 
Q 22.65625 6.0625 28.421875 6.0625 
Q 34.28125 6.0625 38.453125 11.015625 
Q 42.625 15.96875 42.625 26.375 
Q 42.625 36.28125 38.546875 41.203125 
Q 34.46875 46.140625 28.8125 46.140625 
Q 23.1875 46.140625 18.859375 40.890625 
Q 14.546875 35.640625 14.546875 25.640625 
z
" id="ArialMT-70"/>
      <path d="M 8.015625 0 
L 8.015625 71.578125 
L 17.484375 71.578125 
L 17.484375 42.1875 
L 54.6875 42.1875 
L 54.6875 71.578125 
L 64.15625 71.578125 
L 64.15625 0 
L 54.6875 0 
L 54.6875 33.734375 
L 17.484375 33.734375 
L 17.484375 0 
z
" id="ArialMT-48"/>
     </defs>
     <g style="fill:#262626;" transform="translate(114.848594 203.263125)scale(0.1 -0.1)">
      <use xlink:href="#ArialMT-70"/>
      <use x="55.615234" xlink:href="#ArialMT-48"/>
     </g>
    </g>
   </g>
   <g id="matplotlib.axis_2">
    <g id="ytick_1">
     <g id="line2d_7">
      <defs>
       <path d="M 0 0 
L -3.5 0 
" id="m2a5cfd0bfd" style="stroke:#262626;stroke-width:0.8;"/>
      </defs>
      <g>
       <use style="fill:#262626;stroke:#262626;stroke-width:0.8;" x="38.96" xlink:href="#m2a5cfd0bfd" y="132.294122"/>
      </g>
     </g>
     <g id="text_8">
      <!-- 0 -->
      <g style="fill:#262626;" transform="translate(26.399063 135.873028)scale(0.1 -0.1)">
       <use xlink:href="#ArialMT-30"/>
      </g>
     </g>
    </g>
    <g id="ytick_2">
     <g id="line2d_8">
      <g>
       <use style="fill:#262626;stroke:#262626;stroke-width:0.8;" x="38.96" xlink:href="#m2a5cfd0bfd" y="73.782749"/>
      </g>
     </g>
     <g id="text_9">
      <!-- 1 -->
      <g style="fill:#262626;" transform="translate(26.399063 77.361655)scale(0.1 -0.1)">
       <use xlink:href="#ArialMT-31"/>
      </g>
     </g>
    </g>
    <g id="text_10">
     <!-- $\langle q_\mathsf{total} \rangle$ -->
     <defs>
      <path d="M 8.9375 31.34375 
L 22.703125 75.875 
L 31 75.875 
L 17.234375 31.34375 
L 31 -13.1875 
L 22.703125 -13.1875 
z
" id="DejaVuSans-27e8"/>
      <path d="M 41.703125 8.203125 
Q 38.09375 3.46875 33.171875 1.015625 
Q 28.265625 -1.421875 22.3125 -1.421875 
Q 14.015625 -1.421875 9.296875 4.171875 
Q 4.59375 9.765625 4.59375 19.578125 
Q 4.59375 27.484375 7.5 34.859375 
Q 10.40625 42.234375 15.828125 48.09375 
Q 19.34375 51.90625 23.90625 53.953125 
Q 28.46875 56 33.5 56 
Q 39.546875 56 43.453125 53.609375 
Q 47.359375 51.21875 49.125 46.390625 
L 50.6875 54.59375 
L 59.71875 54.59375 
L 45.125 -20.609375 
L 36.078125 -20.609375 
z
M 13.921875 20.90625 
Q 13.921875 13.671875 16.9375 9.890625 
Q 19.96875 6.109375 25.6875 6.109375 
Q 34.1875 6.109375 40.1875 14.234375 
Q 46.1875 22.359375 46.1875 33.984375 
Q 46.1875 41.015625 43.078125 44.75 
Q 39.984375 48.484375 34.1875 48.484375 
Q 29.9375 48.484375 26.3125 46.5 
Q 22.703125 44.53125 20.015625 40.71875 
Q 17.1875 36.71875 15.546875 31.34375 
Q 13.921875 25.984375 13.921875 20.90625 
z
" id="DejaVuSans-Oblique-71"/>
      <path d="M 18.3125 70.21875 
L 18.3125 54.6875 
L 36.8125 54.6875 
L 36.8125 47.703125 
L 18.3125 47.703125 
L 18.3125 18.015625 
Q 18.3125 11.328125 20.140625 9.421875 
Q 21.96875 7.515625 27.59375 7.515625 
L 36.8125 7.515625 
L 36.8125 0 
L 27.59375 0 
Q 17.1875 0 13.234375 3.875 
Q 9.28125 7.765625 9.28125 18.015625 
L 9.28125 47.703125 
L 2.6875 47.703125 
L 2.6875 54.6875 
L 9.28125 54.6875 
L 9.28125 70.21875 
z
" id="DejaVuSans-74"/>
      <path d="M 30.609375 48.390625 
Q 23.390625 48.390625 19.1875 42.75 
Q 14.984375 37.109375 14.984375 27.296875 
Q 14.984375 17.484375 19.15625 11.84375 
Q 23.34375 6.203125 30.609375 6.203125 
Q 37.796875 6.203125 41.984375 11.859375 
Q 46.1875 17.53125 46.1875 27.296875 
Q 46.1875 37.015625 41.984375 42.703125 
Q 37.796875 48.390625 30.609375 48.390625 
z
M 30.609375 56 
Q 42.328125 56 49.015625 48.375 
Q 55.71875 40.765625 55.71875 27.296875 
Q 55.71875 13.875 49.015625 6.21875 
Q 42.328125 -1.421875 30.609375 -1.421875 
Q 18.84375 -1.421875 12.171875 6.21875 
Q 5.515625 13.875 5.515625 27.296875 
Q 5.515625 40.765625 12.171875 48.375 
Q 18.84375 56 30.609375 56 
z
" id="DejaVuSans-6f"/>
      <path d="M 34.28125 27.484375 
Q 23.390625 27.484375 19.1875 25 
Q 14.984375 22.515625 14.984375 16.5 
Q 14.984375 11.71875 18.140625 8.90625 
Q 21.296875 6.109375 26.703125 6.109375 
Q 34.1875 6.109375 38.703125 11.40625 
Q 43.21875 16.703125 43.21875 25.484375 
L 43.21875 27.484375 
z
M 52.203125 31.203125 
L 52.203125 0 
L 43.21875 0 
L 43.21875 8.296875 
Q 40.140625 3.328125 35.546875 0.953125 
Q 30.953125 -1.421875 24.3125 -1.421875 
Q 15.921875 -1.421875 10.953125 3.296875 
Q 6 8.015625 6 15.921875 
Q 6 25.140625 12.171875 29.828125 
Q 18.359375 34.515625 30.609375 34.515625 
L 43.21875 34.515625 
L 43.21875 35.40625 
Q 43.21875 41.609375 39.140625 45 
Q 35.0625 48.390625 27.6875 48.390625 
Q 23 48.390625 18.546875 47.265625 
Q 14.109375 46.140625 10.015625 43.890625 
L 10.015625 52.203125 
Q 14.9375 54.109375 19.578125 55.046875 
Q 24.21875 56 28.609375 56 
Q 40.484375 56 46.34375 49.84375 
Q 52.203125 43.703125 52.203125 31.203125 
z
" id="DejaVuSans-61"/>
      <path d="M 9.421875 75.984375 
L 18.40625 75.984375 
L 18.40625 0 
L 9.421875 0 
z
" id="DejaVuSans-6c"/>
      <path d="M 30.078125 31.34375 
L 16.3125 -13.1875 
L 8.015625 -13.1875 
L 21.78125 31.34375 
L 8.015625 75.875 
L 16.3125 75.875 
z
" id="DejaVuSans-27e9"/>
     </defs>
     <g style="fill:#262626;" transform="translate(20.299063 115.95)rotate(-90)scale(0.1 -0.1)">
      <use transform="translate(0 0.125)" xlink:href="#DejaVuSans-27e8"/>
      <use transform="translate(39.013672 0.125)" xlink:href="#DejaVuSans-Oblique-71"/>
      <use transform="translate(102.490234 -16.28125)scale(0.7)" xlink:href="#DejaVuSans-74"/>
      <use transform="translate(129.936523 -16.28125)scale(0.7)" xlink:href="#DejaVuSans-6f"/>
      <use transform="translate(172.763672 -16.28125)scale(0.7)" xlink:href="#DejaVuSans-74"/>
      <use transform="translate(200.209961 -16.28125)scale(0.7)" xlink:href="#DejaVuSans-61"/>
      <use transform="translate(243.105469 -16.28125)scale(0.7)" xlink:href="#DejaVuSans-6c"/>
      <use transform="translate(265.288086 0.125)" xlink:href="#DejaVuSans-27e9"/>
     </g>
    </g>
   </g>
   <g id="line2d_9">
    <path clip-path="url(#p116b42307d)" d="M 46.44 73.856317 
L 47.936 73.875336 
L 49.432 73.899262 
L 50.928 73.929354 
L 52.424 73.967195 
L 53.92 74.014763 
L 55.416 74.074538 
L 56.912 74.149616 
L 58.408 74.243858 
L 59.904 74.362069 
L 61.4 74.510205 
L 62.896 74.695623 
L 64.392 74.927366 
L 65.888 75.216474 
L 67.384 75.576323 
L 68.88 76.022945 
L 70.376 76.575305 
L 71.872 77.255454 
L 73.368 78.088458 
L 74.864 79.101964 
L 76.36 80.325243 
L 77.856 81.787508 
L 79.352 83.515386 
L 80.848 85.529493 
L 82.344 87.840286 
L 83.84 90.443701 
L 85.336 93.317389 
L 86.832 96.418645 
L 88.328 99.685053 
L 89.824 103.038435 
L 91.32 106.391818 
L 92.816 109.658226 
L 94.312 112.759481 
L 95.808 115.633169 
L 97.304 118.236585 
L 98.8 120.547378 
L 100.296 122.561485 
L 101.792 124.289363 
L 103.288 125.751628 
L 104.784 126.974906 
L 106.28 127.988413 
L 107.776 128.821417 
L 109.272 129.501566 
L 110.768 130.053926 
L 112.264 130.500548 
L 113.76 130.860396 
L 115.256 131.149505 
L 116.752 131.381247 
L 118.248 131.566666 
L 119.744 131.714802 
L 121.24 131.833012 
L 122.736 131.927255 
L 124.232 132.002333 
L 125.728 132.062108 
L 127.224 132.109676 
L 128.72 132.147516 
L 130.216 132.177609 
L 131.712 132.201535 
L 133.208 132.220553 
L 134.704 132.235669 
L 136.2 132.247682 
L 137.696 132.257227 
L 139.192 132.264812 
L 140.688 132.270838 
L 142.184 132.275625 
L 143.68 132.279428 
L 145.176 132.28245 
L 146.672 132.28485 
L 148.168 132.286757 
L 149.664 132.288272 
L 151.16 132.289475 
L 152.656 132.29043 
L 154.152 132.29119 
L 155.648 132.291793 
L 157.144 132.292272 
L 158.64 132.292652 
L 160.136 132.292955 
L 161.632 132.293195 
L 163.128 132.293385 
L 164.624 132.293537 
L 166.12 132.293657 
L 167.616 132.293753 
L 169.112 132.293829 
L 170.608 132.293889 
L 172.104 132.293937 
L 173.6 132.293975 
L 175.096 132.294005 
L 176.592 132.294029 
L 178.088 132.294048 
L 179.584 132.294064 
L 181.08 132.294076 
L 182.576 132.294085 
L 184.072 132.294093 
L 185.568 132.294099 
L 187.064 132.294104 
L 188.56 132.294107 
L 190.056 132.29411 
L 191.552 132.294113 
L 193.048 132.294115 
L 194.544 132.294116 
L 196.04 132.294117 
" style="fill:none;opacity:0.9;stroke:#001c7f;stroke-linecap:round;stroke-width:1.5;"/>
   </g>
   <g id="line2d_10">
    <path clip-path="url(#p116b42307d)" d="M 46.44 77.568815 
L 47.936 78.470583 
L 49.432 79.564443 
L 50.928 80.879889 
L 52.424 82.445454 
L 53.92 84.285821 
L 55.416 86.418064 
L 56.912 88.847347 
L 58.408 91.562672 
L 59.904 94.533664 
L 61.4 97.709477 
L 62.896 101.020732 
L 64.392 104.384758 
L 65.888 107.71348 
L 67.384 110.922453 
L 68.88 113.939119 
L 70.376 116.708664 
L 71.872 119.196619 
L 73.368 121.388317 
L 74.864 123.286009 
L 76.36 124.904745 
L 77.856 126.268008 
L 79.352 127.403822 
L 80.848 128.341677 
L 82.344 129.110351 
L 83.84 129.73654 
L 85.336 130.244133 
L 86.832 130.653939 
L 88.328 130.983723 
L 89.824 131.248419 
L 91.32 131.460426 
L 92.816 131.629947 
L 94.312 131.765315 
L 95.808 131.873293 
L 97.304 131.959351 
L 98.8 132.02789 
L 100.296 132.082449 
L 101.792 132.125859 
L 103.288 132.160387 
L 104.784 132.187842 
L 106.28 132.209669 
L 107.776 132.227019 
L 109.272 132.240808 
L 110.768 132.251765 
L 112.264 132.260472 
L 113.76 132.267389 
L 115.256 132.272886 
L 116.752 132.277252 
L 118.248 132.280721 
L 119.744 132.283477 
L 121.24 132.285666 
L 122.736 132.287405 
L 124.232 132.288786 
L 125.728 132.289884 
L 127.224 132.290755 
L 128.72 132.291448 
L 130.216 132.291998 
L 131.712 132.292435 
L 133.208 132.292782 
L 134.704 132.293057 
L 136.2 132.293276 
L 137.696 132.29345 
L 139.192 132.293588 
L 140.688 132.293698 
L 142.184 132.293785 
L 143.68 132.293855 
L 145.176 132.29391 
L 146.672 132.293953 
L 148.168 132.293988 
L 149.664 132.294016 
L 151.16 132.294038 
L 152.656 132.294055 
L 154.152 132.294069 
L 155.648 132.29408 
L 157.144 132.294088 
L 158.64 132.294095 
L 160.136 132.294101 
L 161.632 132.294105 
L 163.128 132.294109 
L 164.624 132.294111 
L 166.12 132.294114 
L 167.616 132.294115 
L 169.112 132.294117 
L 170.608 132.294118 
L 172.104 132.294119 
L 173.6 132.294119 
L 175.096 132.29412 
L 176.592 132.29412 
L 178.088 132.294121 
L 179.584 132.294121 
L 181.08 132.294121 
L 182.576 132.294121 
L 184.072 132.294122 
L 185.568 132.294122 
L 187.064 132.294122 
L 188.56 132.294122 
L 190.056 132.294122 
L 191.552 132.294122 
L 193.048 132.294122 
L 194.544 132.294122 
L 196.04 132.294122 
" style="fill:none;opacity:0.7;stroke:#000000;stroke-linecap:round;stroke-width:1.5;"/>
   </g>
   <g id="line2d_11">
    <path clip-path="url(#p116b42307d)" d="M 46.44 71.853159 
L 47.936 71.477501 
L 49.432 71.046027 
L 50.928 70.554 
L 52.424 69.996617 
L 53.92 69.369166 
L 55.416 68.667374 
L 56.912 67.887932 
L 58.408 67.029147 
L 59.904 66.091624 
L 61.4 65.078935 
L 62.896 63.998251 
L 64.392 62.860981 
L 65.888 61.683415 
L 67.384 60.487378 
L 68.88 59.30084 
L 70.376 58.158384 
L 71.872 57.101426 
L 73.368 56.17802 
L 74.864 55.442092 
L 76.36 54.951913 
L 77.856 54.767652 
L 79.352 54.947883 
L 80.848 55.545078 
L 82.344 56.60031 
L 83.84 58.137734 
L 85.336 60.159744 
L 86.832 62.643938 
L 88.328 65.542975 
L 89.824 68.787907 
L 91.32 72.294734 
L 92.816 75.97301 
L 94.312 79.734696 
L 95.808 83.501465 
L 97.304 87.209271 
L 98.8 90.809907 
L 100.296 94.270052 
L 101.792 97.568758 
L 103.288 100.69435 
L 104.784 103.641463 
L 106.28 106.408649 
L 107.776 108.996707 
L 109.272 111.407689 
L 110.768 113.64444 
L 112.264 115.710483 
L 113.76 117.61008 
L 115.256 119.348311 
L 116.752 120.931113 
L 118.248 122.365214 
L 119.744 123.658003 
L 121.24 124.817355 
L 122.736 125.851467 
L 124.232 126.76872 
L 125.728 127.577592 
L 127.224 128.286614 
L 128.72 128.904327 
L 130.216 129.439241 
L 131.712 129.899757 
L 133.208 130.294058 
L 134.704 130.629969 
L 136.2 130.914817 
L 137.696 131.155318 
L 139.192 131.357512 
L 140.688 131.526761 
L 142.184 131.667786 
L 143.68 131.784736 
L 145.176 131.881248 
L 146.672 131.960508 
L 148.168 132.025298 
L 149.664 132.078032 
L 151.16 132.120785 
L 152.656 132.155327 
L 154.152 132.183151 
L 155.648 132.205508 
L 157.144 132.223432 
L 158.64 132.237778 
L 160.136 132.249243 
L 161.632 132.258395 
L 163.128 132.265693 
L 164.624 132.271508 
L 166.12 132.276139 
L 167.616 132.279825 
L 169.112 132.282757 
L 170.608 132.28509 
L 172.104 132.286944 
L 173.6 132.288418 
L 175.096 132.28959 
L 176.592 132.290521 
L 178.088 132.291261 
L 179.584 132.291849 
L 181.08 132.292317 
L 182.576 132.292688 
L 184.072 132.292983 
L 185.568 132.293217 
L 187.064 132.293403 
L 188.56 132.293551 
L 190.056 132.293668 
L 191.552 132.293762 
L 193.048 132.293836 
L 194.544 132.293895 
L 196.04 132.293941 
" style="fill:none;opacity:0.45;stroke:#001c7f;stroke-dasharray:2.775,1.2;stroke-dashoffset:0;stroke-width:0.75;"/>
   </g>
   <g id="line2d_12">
    <path clip-path="url(#p116b42307d)" d="M 46.44 75.859476 
L 47.936 76.273171 
L 49.432 76.752496 
L 50.928 77.304709 
L 52.424 77.937772 
L 53.92 78.66036 
L 55.416 79.481702 
L 56.912 80.4113 
L 58.408 81.45857 
L 59.904 82.632514 
L 61.4 83.941475 
L 62.896 85.392996 
L 64.392 86.993751 
L 65.888 88.749534 
L 67.384 90.665268 
L 68.88 92.74505 
L 70.376 94.992225 
L 71.872 97.409482 
L 73.368 99.998895 
L 74.864 102.761837 
L 76.36 105.698572 
L 77.856 108.807363 
L 79.352 112.082889 
L 80.848 115.513907 
L 82.344 119.080262 
L 83.84 122.749668 
L 85.336 126.475035 
L 86.832 130.193352 
L 88.328 133.827131 
L 89.824 137.288963 
L 91.32 140.488902 
L 92.816 143.343442 
L 94.312 145.784267 
L 95.808 147.764874 
L 97.304 149.263898 
L 98.8 150.284849 
L 100.296 150.852918 
L 101.792 151.009968 
L 103.288 150.808905 
L 104.784 150.30835 
L 106.28 149.568178 
L 107.776 148.646127 
L 109.272 147.595443 
L 110.768 146.463413 
L 112.264 145.290612 
L 113.76 144.110713 
L 115.256 142.950698 
L 116.752 141.831382 
L 118.248 140.768117 
L 119.744 139.771601 
L 121.24 138.84867 
L 122.736 138.003043 
L 124.232 137.235946 
L 125.728 136.546623 
L 127.224 135.932738 
L 128.72 135.390706 
L 130.216 134.915977 
L 131.712 134.503312 
L 133.208 134.147048 
L 134.704 133.841369 
L 136.2 133.580546 
L 137.696 133.359136 
L 139.192 133.172111 
L 140.688 133.014915 
L 142.184 132.883464 
L 143.68 132.774121 
L 145.176 132.683652 
L 146.672 132.609193 
L 148.168 132.548216 
L 149.664 132.498511 
L 151.16 132.458164 
L 152.656 132.425534 
L 154.152 132.399228 
L 155.648 132.378078 
L 157.144 132.361111 
L 158.64 132.347527 
L 160.136 132.336666 
L 161.632 132.327995 
L 163.128 132.321078 
L 164.624 132.315566 
L 166.12 132.311176 
L 167.616 132.307681 
L 169.112 132.3049 
L 170.608 132.302689 
L 172.104 132.30093 
L 173.6 132.299532 
L 175.096 132.298421 
L 176.592 132.297537 
L 178.088 132.296835 
L 179.584 132.296278 
L 181.08 132.295835 
L 182.576 132.295482 
L 184.072 132.295203 
L 185.568 132.294981 
L 187.064 132.294804 
L 188.56 132.294664 
L 190.056 132.294552 
L 191.552 132.294464 
L 193.048 132.294394 
L 194.544 132.294338 
L 196.04 132.294293 
" style="fill:none;opacity:0.45;stroke:#001c7f;stroke-dasharray:2.775,1.2;stroke-dashoffset:0;stroke-width:0.75;"/>
   </g>
   <g id="line2d_13">
    <path clip-path="url(#p116b42307d)" d="M 46.44 73.856317 
L 47.936 73.875336 
L 49.432 73.899262 
L 50.928 73.929354 
L 52.424 73.967195 
L 53.92 74.014763 
L 55.416 74.074538 
L 56.912 74.149616 
L 58.408 74.243858 
L 59.904 74.362069 
L 61.4 74.510205 
L 62.896 74.695623 
L 64.392 74.927366 
L 65.888 75.216474 
L 67.384 75.576323 
L 68.88 76.022945 
L 70.376 76.575305 
L 71.872 77.255454 
L 73.368 78.088458 
L 74.864 79.101964 
L 76.36 80.325243 
L 77.856 81.787508 
L 79.352 83.515386 
L 80.848 85.529493 
L 82.344 87.840286 
L 83.84 90.443701 
L 85.336 93.317389 
L 86.832 96.418645 
L 88.328 99.685053 
L 89.824 103.038435 
L 91.32 106.391818 
L 92.816 109.658226 
L 94.312 112.759481 
L 95.808 115.633169 
L 97.304 118.236585 
L 98.8 120.547378 
L 100.296 122.561485 
L 101.792 124.289363 
L 103.288 125.751628 
L 104.784 126.974906 
L 106.28 127.988413 
L 107.776 128.821417 
L 109.272 129.501566 
L 110.768 130.053926 
L 112.264 130.500548 
L 113.76 130.860396 
L 115.256 131.149505 
L 116.752 131.381247 
L 118.248 131.566666 
L 119.744 131.714802 
L 121.24 131.833012 
L 122.736 131.927255 
L 124.232 132.002333 
L 125.728 132.062108 
L 127.224 132.109676 
L 128.72 132.147516 
L 130.216 132.177609 
L 131.712 132.201535 
L 133.208 132.220553 
L 134.704 132.235669 
L 136.2 132.247682 
L 137.696 132.257227 
L 139.192 132.264812 
L 140.688 132.270838 
L 142.184 132.275625 
L 143.68 132.279428 
L 145.176 132.28245 
L 146.672 132.28485 
L 148.168 132.286757 
L 149.664 132.288272 
L 151.16 132.289475 
L 152.656 132.29043 
L 154.152 132.29119 
L 155.648 132.291793 
L 157.144 132.292272 
L 158.64 132.292652 
L 160.136 132.292955 
L 161.632 132.293195 
L 163.128 132.293385 
L 164.624 132.293537 
L 166.12 132.293657 
L 167.616 132.293753 
L 169.112 132.293829 
L 170.608 132.293889 
L 172.104 132.293937 
L 173.6 132.293975 
L 175.096 132.294005 
L 176.592 132.294029 
L 178.088 132.294048 
L 179.584 132.294064 
L 181.08 132.294076 
L 182.576 132.294085 
L 184.072 132.294093 
L 185.568 132.294099 
L 187.064 132.294104 
L 188.56 132.294107 
L 190.056 132.29411 
L 191.552 132.294113 
L 193.048 132.294115 
L 194.544 132.294116 
L 196.04 132.294117 
" style="fill:none;opacity:0.9;stroke:#b1400d;stroke-linecap:round;stroke-width:1.5;"/>
   </g>
   <g id="line2d_14">
    <path clip-path="url(#p116b42307d)" d="M 46.44 77.568815 
L 47.936 78.470583 
L 49.432 79.564443 
L 50.928 80.879889 
L 52.424 82.445454 
L 53.92 84.285821 
L 55.416 86.418064 
L 56.912 88.847347 
L 58.408 91.562672 
L 59.904 94.533664 
L 61.4 97.709477 
L 62.896 101.020732 
L 64.392 104.384758 
L 65.888 107.71348 
L 67.384 110.922453 
L 68.88 113.939119 
L 70.376 116.708664 
L 71.872 119.196619 
L 73.368 121.388317 
L 74.864 123.286009 
L 76.36 124.904745 
L 77.856 126.268008 
L 79.352 127.403822 
L 80.848 128.341677 
L 82.344 129.110351 
L 83.84 129.73654 
L 85.336 130.244133 
L 86.832 130.653939 
L 88.328 130.983723 
L 89.824 131.248419 
L 91.32 131.460426 
L 92.816 131.629947 
L 94.312 131.765315 
L 95.808 131.873293 
L 97.304 131.959351 
L 98.8 132.02789 
L 100.296 132.082449 
L 101.792 132.125859 
L 103.288 132.160387 
L 104.784 132.187842 
L 106.28 132.209669 
L 107.776 132.227019 
L 109.272 132.240808 
L 110.768 132.251765 
L 112.264 132.260472 
L 113.76 132.267389 
L 115.256 132.272886 
L 116.752 132.277252 
L 118.248 132.280721 
L 119.744 132.283477 
L 121.24 132.285666 
L 122.736 132.287405 
L 124.232 132.288786 
L 125.728 132.289884 
L 127.224 132.290755 
L 128.72 132.291448 
L 130.216 132.291998 
L 131.712 132.292435 
L 133.208 132.292782 
L 134.704 132.293057 
L 136.2 132.293276 
L 137.696 132.29345 
L 139.192 132.293588 
L 140.688 132.293698 
L 142.184 132.293785 
L 143.68 132.293855 
L 145.176 132.29391 
L 146.672 132.293953 
L 148.168 132.293988 
L 149.664 132.294016 
L 151.16 132.294038 
L 152.656 132.294055 
L 154.152 132.294069 
L 155.648 132.29408 
L 157.144 132.294088 
L 158.64 132.294095 
L 160.136 132.294101 
L 161.632 132.294105 
L 163.128 132.294109 
L 164.624 132.294111 
L 166.12 132.294114 
L 167.616 132.294115 
L 169.112 132.294117 
L 170.608 132.294118 
L 172.104 132.294119 
L 173.6 132.294119 
L 175.096 132.29412 
L 176.592 132.29412 
L 178.088 132.294121 
L 179.584 132.294121 
L 181.08 132.294121 
L 182.576 132.294121 
L 184.072 132.294122 
L 185.568 132.294122 
L 187.064 132.294122 
L 188.56 132.294122 
L 190.056 132.294122 
L 191.552 132.294122 
L 193.048 132.294122 
L 194.544 132.294122 
L 196.04 132.294122 
" style="fill:none;opacity:0.7;stroke:#000000;stroke-linecap:round;stroke-width:1.5;"/>
   </g>
   <g id="line2d_15">
    <path clip-path="url(#p116b42307d)" d="M 46.44 67.203448 
L 47.936 67.120274 
L 49.432 67.006021 
L 50.928 66.850994 
L 52.424 66.643516 
L 53.92 66.370342 
L 55.416 66.017622 
L 56.912 65.572374 
L 58.408 65.024273 
L 59.904 64.367382 
L 61.4 63.601512 
L 62.896 62.733013 
L 64.392 61.775067 
L 65.888 60.747641 
L 67.384 59.677302 
L 68.88 58.597019 
L 70.376 57.546002 
L 71.872 56.569517 
L 73.368 55.718521 
L 74.864 55.048917 
L 76.36 54.620159 
L 77.856 54.492988 
L 79.352 54.726143 
L 80.848 55.372056 
L 82.344 56.471765 
L 83.84 58.049551 
L 85.336 60.108193 
L 86.832 62.625932 
L 88.328 65.55626 
L 89.824 68.831172 
L 91.32 72.367677 
L 92.816 76.076406 
L 94.312 79.870494 
L 95.808 83.672896 
L 97.304 87.420909 
L 98.8 91.067622 
L 100.296 94.580788 
L 101.792 97.940123 
L 103.288 101.13402 
L 104.784 104.156446 
L 106.28 107.004473 
L 107.776 109.676574 
L 109.272 112.171619 
L 110.768 114.488376 
L 112.264 116.625281 
L 113.76 118.580271 
L 115.256 120.350522 
L 116.752 121.932057 
L 118.248 123.31929 
L 119.744 124.504851 
L 121.24 125.480346 
L 122.736 126.239054 
L 124.232 126.781126 
L 125.728 127.119708 
L 127.224 127.283625 
L 128.72 127.313141 
L 130.216 127.25102 
L 131.712 127.134648 
L 133.208 126.992412 
L 134.704 126.843678 
L 136.2 126.700459 
L 137.696 126.569411 
L 139.192 126.453567 
L 140.688 126.353655 
L 142.184 126.269044 
L 143.68 126.198376 
L 145.176 126.13998 
L 146.672 126.092125 
L 148.168 126.053162 
L 149.664 126.021601 
L 151.16 125.996139 
L 152.656 125.975664 
L 154.152 125.959241 
L 155.648 125.946094 
L 157.144 125.935586 
L 158.64 125.927199 
L 160.136 125.920511 
L 161.632 125.915181 
L 163.128 125.910938 
L 164.624 125.907561 
L 166.12 125.904874 
L 167.616 125.902737 
L 169.112 125.901038 
L 170.608 125.899688 
L 172.104 125.898614 
L 173.6 125.897761 
L 175.096 125.897083 
L 176.592 125.896545 
L 178.088 125.896117 
L 179.584 125.895777 
L 181.08 125.895506 
L 182.576 125.895292 
L 184.072 125.895121 
L 185.568 125.894986 
L 187.064 125.894878 
L 188.56 125.894793 
L 190.056 125.894725 
L 191.552 125.894671 
L 193.048 125.894628 
L 194.544 125.894594 
L 196.04 125.894567 
" style="fill:none;opacity:0.45;stroke:#b1400d;stroke-dasharray:2.775,1.2;stroke-dashoffset:0;stroke-width:0.75;"/>
   </g>
   <g id="line2d_16">
    <path clip-path="url(#p116b42307d)" d="M 46.44 80.509187 
L 47.936 80.630399 
L 49.432 80.792502 
L 50.928 81.007714 
L 52.424 81.290874 
L 53.92 81.659184 
L 55.416 82.131454 
L 56.912 82.726857 
L 58.408 83.463444 
L 59.904 84.356756 
L 61.4 85.418898 
L 62.896 86.658234 
L 64.392 88.079665 
L 65.888 89.685308 
L 67.384 91.475344 
L 68.88 93.448871 
L 70.376 95.604607 
L 71.872 97.941391 
L 73.368 100.458394 
L 74.864 103.155012 
L 76.36 106.030327 
L 77.856 109.082027 
L 79.352 112.304629 
L 80.848 115.686929 
L 82.344 119.208807 
L 83.84 122.837851 
L 85.336 126.526585 
L 86.832 130.211357 
L 88.328 133.813846 
L 89.824 137.245699 
L 91.32 140.415959 
L 92.816 143.240046 
L 94.312 145.648468 
L 95.808 147.593443 
L 97.304 149.05226 
L 98.8 150.027134 
L 100.296 150.542182 
L 101.792 150.638603 
L 103.288 150.369236 
L 104.784 149.793366 
L 106.28 148.972353 
L 107.776 147.96626 
L 109.272 146.831513 
L 110.768 145.619476 
L 112.264 144.375814 
L 113.76 143.140522 
L 115.256 141.948488 
L 116.752 140.830438 
L 118.248 139.814041 
L 119.744 138.924752 
L 121.24 138.185679 
L 122.736 137.615456 
L 124.232 137.22354 
L 125.728 137.004508 
L 127.224 136.935727 
L 128.72 136.981892 
L 130.216 137.104198 
L 131.712 137.268421 
L 133.208 137.448694 
L 134.704 137.62766 
L 136.2 137.794904 
L 137.696 137.945043 
L 139.192 138.076057 
L 140.688 138.18802 
L 142.184 138.282206 
L 143.68 138.360481 
L 145.176 138.42492 
L 146.672 138.477576 
L 148.168 138.520352 
L 149.664 138.554942 
L 151.16 138.58281 
L 152.656 138.605197 
L 154.152 138.623138 
L 155.648 138.637492 
L 157.144 138.648958 
L 158.64 138.658106 
L 160.136 138.665399 
L 161.632 138.671208 
L 163.128 138.675833 
L 164.624 138.679513 
L 166.12 138.682441 
L 167.616 138.684769 
L 169.112 138.686619 
L 170.608 138.688091 
L 172.104 138.68926 
L 173.6 138.690189 
L 175.096 138.690927 
L 176.592 138.691514 
L 178.088 138.69198 
L 179.584 138.692351 
L 181.08 138.692645 
L 182.576 138.692878 
L 184.072 138.693064 
L 185.568 138.693212 
L 187.064 138.693329 
L 188.56 138.693422 
L 190.056 138.693496 
L 191.552 138.693554 
L 193.048 138.693601 
L 194.544 138.693638 
L 196.04 138.693668 
" style="fill:none;opacity:0.45;stroke:#b1400d;stroke-dasharray:2.775,1.2;stroke-dashoffset:0;stroke-width:0.75;"/>
   </g>
   <g id="line2d_17">
    <path clip-path="url(#p116b42307d)" d="M 46.44 73.85598 
L 47.936 73.874911 
L 49.432 73.898727 
L 50.928 73.928682 
L 52.424 73.96635 
L 53.92 74.013701 
L 55.416 74.073204 
L 56.912 74.147941 
L 58.408 74.241756 
L 59.904 74.359434 
L 61.4 74.506904 
L 62.896 74.691494 
L 64.392 74.922209 
L 65.888 75.210048 
L 67.384 75.568334 
L 68.88 76.013044 
L 70.376 76.563084 
L 71.872 77.240441 
L 73.368 78.070124 
L 74.864 79.079737 
L 76.36 80.29853 
L 77.856 81.755741 
L 79.352 83.478078 
L 80.848 85.486317 
L 82.344 87.791161 
L 83.84 90.388877 
L 85.336 93.257509 
L 86.832 96.354763 
L 88.328 99.618592 
L 89.824 102.971072 
L 91.32 106.325322 
L 92.816 109.594278 
L 94.312 112.699509 
L 95.808 115.578236 
L 97.304 118.187342 
L 98.8 120.504083 
L 100.296 122.524062 
L 101.792 124.25749 
L 103.288 125.72482 
L 104.784 126.952595 
L 106.28 127.970008 
L 107.776 128.806343 
L 109.272 129.489294 
L 110.768 130.043984 
L 112.264 130.492524 
L 113.76 130.853942 
L 115.256 131.144325 
L 116.752 131.3771 
L 118.248 131.56335 
L 119.744 131.712154 
L 121.24 131.830901 
L 122.736 131.925572 
L 124.232 132.000993 
L 125.728 132.061041 
L 127.224 132.108827 
L 128.72 132.146841 
L 130.216 132.177072 
L 131.712 132.201108 
L 133.208 132.220214 
L 134.704 132.2354 
L 136.2 132.247468 
L 137.696 132.257057 
L 139.192 132.264676 
L 140.688 132.27073 
L 142.184 132.27554 
L 143.68 132.279361 
L 145.176 132.282396 
L 146.672 132.284807 
L 148.168 132.286723 
L 149.664 132.288245 
L 151.16 132.289453 
L 152.656 132.290413 
L 154.152 132.291176 
L 155.648 132.291782 
L 157.144 132.292263 
L 158.64 132.292646 
L 160.136 132.292949 
L 161.632 132.29319 
L 163.128 132.293382 
L 164.624 132.293534 
L 166.12 132.293655 
L 167.616 132.293751 
L 169.112 132.293827 
L 170.608 132.293888 
L 172.104 132.293936 
L 173.6 132.293974 
L 175.096 132.294005 
L 176.592 132.294029 
L 178.088 132.294048 
L 179.584 132.294063 
L 181.08 132.294075 
L 182.576 132.294085 
L 184.072 132.294093 
L 185.568 132.294099 
L 187.064 132.294103 
L 188.56 132.294107 
L 190.056 132.29411 
L 191.552 132.294113 
L 193.048 132.294115 
L 194.544 132.294116 
L 196.04 132.294117 
" style="fill:none;opacity:0.9;stroke:#12711c;stroke-linecap:round;stroke-width:1.5;"/>
   </g>
   <g id="line2d_18">
    <path clip-path="url(#p116b42307d)" d="M 46.44 77.568815 
L 47.936 78.470583 
L 49.432 79.564443 
L 50.928 80.879889 
L 52.424 82.445454 
L 53.92 84.285821 
L 55.416 86.418064 
L 56.912 88.847347 
L 58.408 91.562672 
L 59.904 94.533664 
L 61.4 97.709477 
L 62.896 101.020732 
L 64.392 104.384758 
L 65.888 107.71348 
L 67.384 110.922453 
L 68.88 113.939119 
L 70.376 116.708664 
L 71.872 119.196619 
L 73.368 121.388317 
L 74.864 123.286009 
L 76.36 124.904745 
L 77.856 126.268008 
L 79.352 127.403822 
L 80.848 128.341677 
L 82.344 129.110351 
L 83.84 129.73654 
L 85.336 130.244133 
L 86.832 130.653939 
L 88.328 130.983723 
L 89.824 131.248419 
L 91.32 131.460426 
L 92.816 131.629947 
L 94.312 131.765315 
L 95.808 131.873293 
L 97.304 131.959351 
L 98.8 132.02789 
L 100.296 132.082449 
L 101.792 132.125859 
L 103.288 132.160387 
L 104.784 132.187842 
L 106.28 132.209669 
L 107.776 132.227019 
L 109.272 132.240808 
L 110.768 132.251765 
L 112.264 132.260472 
L 113.76 132.267389 
L 115.256 132.272886 
L 116.752 132.277252 
L 118.248 132.280721 
L 119.744 132.283477 
L 121.24 132.285666 
L 122.736 132.287405 
L 124.232 132.288786 
L 125.728 132.289884 
L 127.224 132.290755 
L 128.72 132.291448 
L 130.216 132.291998 
L 131.712 132.292435 
L 133.208 132.292782 
L 134.704 132.293057 
L 136.2 132.293276 
L 137.696 132.29345 
L 139.192 132.293588 
L 140.688 132.293698 
L 142.184 132.293785 
L 143.68 132.293855 
L 145.176 132.29391 
L 146.672 132.293953 
L 148.168 132.293988 
L 149.664 132.294016 
L 151.16 132.294038 
L 152.656 132.294055 
L 154.152 132.294069 
L 155.648 132.29408 
L 157.144 132.294088 
L 158.64 132.294095 
L 160.136 132.294101 
L 161.632 132.294105 
L 163.128 132.294109 
L 164.624 132.294111 
L 166.12 132.294114 
L 167.616 132.294115 
L 169.112 132.294117 
L 170.608 132.294118 
L 172.104 132.294119 
L 173.6 132.294119 
L 175.096 132.29412 
L 176.592 132.29412 
L 178.088 132.294121 
L 179.584 132.294121 
L 181.08 132.294121 
L 182.576 132.294121 
L 184.072 132.294122 
L 185.568 132.294122 
L 187.064 132.294122 
L 188.56 132.294122 
L 190.056 132.294122 
L 191.552 132.294122 
L 193.048 132.294122 
L 194.544 132.294122 
L 196.04 132.294122 
" style="fill:none;opacity:0.7;stroke:#000000;stroke-linecap:round;stroke-width:1.5;"/>
   </g>
   <g id="line2d_19">
    <path clip-path="url(#p116b42307d)" d="M 46.44 68.102288 
L 47.936 68.000472 
L 49.432 67.859076 
L 50.928 67.667375 
L 52.424 67.413718 
L 53.92 67.086284 
L 55.416 66.674103 
L 56.912 66.168173 
L 58.408 65.562546 
L 59.904 64.855223 
L 61.4 64.048818 
L 62.896 63.150992 
L 64.392 62.174748 
L 65.888 61.138652 
L 67.384 60.067063 
L 68.88 58.990395 
L 70.376 57.945354 
L 71.872 56.975056 
L 73.368 56.128818 
L 74.864 55.46144 
L 76.36 55.031744 
L 77.856 54.900219 
L 79.352 55.125643 
L 80.848 55.760726 
L 82.344 56.84699 
L 83.84 58.409394 
L 85.336 60.451557 
L 86.832 62.95266 
L 88.328 65.867129 
L 89.824 69.127737 
L 91.32 72.651975 
L 92.816 76.350573 
L 94.312 80.136386 
L 95.808 83.931805 
L 97.304 87.673437 
L 98.8 91.313691 
L 100.296 94.819755 
L 101.792 98.170931 
L 103.288 101.35535 
L 104.784 104.366849 
L 106.28 107.202495 
L 107.776 109.860892 
L 109.272 112.341209 
L 110.768 114.642747 
L 112.264 116.764796 
L 113.76 118.706566 
L 115.256 120.467042 
L 116.752 122.044704 
L 118.248 123.437177 
L 119.744 124.641015 
L 121.24 125.652007 
L 122.736 126.466593 
L 124.232 127.084932 
L 125.728 127.515245 
L 127.224 127.777197 
L 128.72 127.901157 
L 130.216 127.922766 
L 131.712 127.876118 
L 133.208 127.78922 
L 134.704 127.682664 
L 136.2 127.570381 
L 137.696 127.461127 
L 139.192 127.359955 
L 140.688 127.269389 
L 142.184 127.190301 
L 143.68 127.122528 
L 145.176 127.065308 
L 146.672 127.017566 
L 148.168 126.97811 
L 149.664 126.945753 
L 151.16 126.919383 
L 152.656 126.898001 
L 154.152 126.880733 
L 155.648 126.866835 
L 157.144 126.855677 
L 158.64 126.84674 
L 160.136 126.839593 
L 161.632 126.833885 
L 163.128 126.829332 
L 164.624 126.825703 
L 166.12 126.822812 
L 167.616 126.820511 
L 169.112 126.81868 
L 170.608 126.817224 
L 172.104 126.816066 
L 173.6 126.815145 
L 175.096 126.814414 
L 176.592 126.813832 
L 178.088 126.81337 
L 179.584 126.813003 
L 181.08 126.812711 
L 182.576 126.812479 
L 184.072 126.812295 
L 185.568 126.812149 
L 187.064 126.812032 
L 188.56 126.81194 
L 190.056 126.811867 
L 191.552 126.811808 
L 193.048 126.811762 
L 194.544 126.811725 
L 196.04 126.811696 
" style="fill:none;opacity:0.45;stroke:#12711c;stroke-dasharray:2.775,1.2;stroke-dashoffset:0;stroke-width:0.75;"/>
   </g>
   <g id="line2d_20">
    <path clip-path="url(#p116b42307d)" d="M 46.44 79.609672 
L 47.936 79.749351 
L 49.432 79.938379 
L 50.928 80.18999 
L 52.424 80.518982 
L 53.92 80.941118 
L 55.416 81.472305 
L 56.912 82.127708 
L 58.408 82.920967 
L 59.904 83.863644 
L 61.4 84.96499 
L 62.896 86.231996 
L 64.392 87.66967 
L 65.888 89.281443 
L 67.384 91.069604 
L 68.88 93.035694 
L 70.376 95.180813 
L 71.872 97.505826 
L 73.368 100.01143 
L 74.864 102.698035 
L 76.36 105.565317 
L 77.856 108.611262 
L 79.352 111.830514 
L 80.848 115.211907 
L 82.344 118.735332 
L 83.84 122.368359 
L 85.336 126.063461 
L 86.832 129.756866 
L 88.328 133.370055 
L 89.824 136.814407 
L 91.32 139.998669 
L 92.816 142.837983 
L 94.312 145.262633 
L 95.808 147.224668 
L 97.304 148.701247 
L 98.8 149.694475 
L 100.296 150.228369 
L 101.792 150.344048 
L 103.288 150.094289 
L 104.784 149.538342 
L 106.28 148.73752 
L 107.776 147.751794 
L 109.272 146.637379 
L 110.768 145.44522 
L 112.264 144.220252 
L 113.76 143.001317 
L 115.256 141.821609 
L 116.752 140.709496 
L 118.248 139.689522 
L 119.744 138.783293 
L 121.24 138.009795 
L 122.736 137.384552 
L 124.232 136.917054 
L 125.728 136.606837 
L 127.224 136.440457 
L 128.72 136.392526 
L 130.216 136.431379 
L 131.712 136.526098 
L 133.208 136.651208 
L 134.704 136.788135 
L 136.2 136.924554 
L 137.696 137.052986 
L 139.192 137.169397 
L 140.688 137.272071 
L 142.184 137.360779 
L 143.68 137.436193 
L 145.176 137.499484 
L 146.672 137.552048 
L 148.168 137.595335 
L 149.664 137.630736 
L 151.16 137.659524 
L 152.656 137.682826 
L 154.152 137.701619 
L 155.648 137.71673 
L 157.144 137.728849 
L 158.64 137.738551 
L 160.136 137.746306 
L 161.632 137.752496 
L 163.128 137.757433 
L 164.624 137.761366 
L 166.12 137.764498 
L 167.616 137.766991 
L 169.112 137.768975 
L 170.608 137.770552 
L 172.104 137.771806 
L 173.6 137.772803 
L 175.096 137.773596 
L 176.592 137.774226 
L 178.088 137.774726 
L 179.584 137.775124 
L 181.08 137.77544 
L 182.576 137.775691 
L 184.072 137.77589 
L 185.568 137.776049 
L 187.064 137.776175 
L 188.56 137.776275 
L 190.056 137.776354 
L 191.552 137.776417 
L 193.048 137.776467 
L 194.544 137.776507 
L 196.04 137.776539 
" style="fill:none;opacity:0.45;stroke:#12711c;stroke-dasharray:2.775,1.2;stroke-dashoffset:0;stroke-width:0.75;"/>
   </g>
   <g id="line2d_21">
    <path clip-path="url(#p116b42307d)" d="M 46.44 76.951253 
L 47.936 77.722681 
L 49.432 78.662646 
L 50.928 79.800049 
L 52.424 81.16448 
L 53.92 82.784046 
L 55.416 84.6823 
L 56.912 86.874355 
L 58.408 89.362521 
L 59.904 92.132188 
L 61.4 95.148938 
L 62.896 98.358001 
L 64.392 101.686856 
L 65.888 105.051079 
L 67.384 108.362607 
L 68.88 111.538761 
L 70.376 114.510149 
L 71.872 117.225903 
L 73.368 119.655626 
L 74.864 121.788301 
L 76.36 123.629073 
L 77.856 125.195009 
L 79.352 126.510784 
L 80.848 127.60493 
L 82.344 128.506943 
L 83.84 129.245273 
L 85.336 129.846101 
L 86.832 130.332712 
L 88.328 130.725303 
L 89.824 131.041055 
L 91.32 131.294372 
L 92.816 131.497192 
L 94.312 131.65932 
L 95.808 131.788753 
L 97.304 131.891979 
L 98.8 131.974236 
L 100.296 132.039742 
L 101.792 132.09188 
L 103.288 132.133361 
L 104.784 132.166353 
L 106.28 132.192586 
L 107.776 132.21344 
L 109.272 132.230016 
L 110.768 132.243189 
L 112.264 132.253657 
L 113.76 132.261975 
L 115.256 132.268584 
L 116.752 132.273835 
L 118.248 132.278006 
L 119.744 132.28132 
L 121.24 132.283953 
L 122.736 132.286044 
L 124.232 132.287705 
L 125.728 132.289025 
L 127.224 132.290073 
L 128.72 132.290906 
L 130.216 132.291567 
L 131.712 132.292093 
L 133.208 132.29251 
L 134.704 132.292842 
L 136.2 132.293105 
L 137.696 132.293314 
L 139.192 132.29348 
L 140.688 132.293612 
L 142.184 132.293717 
L 143.68 132.2938 
L 145.176 132.293867 
L 146.672 132.293919 
L 148.168 132.293961 
L 149.664 132.293994 
L 151.16 132.29402 
L 152.656 132.294041 
L 154.152 132.294058 
L 155.648 132.294071 
L 157.144 132.294082 
L 158.64 132.29409 
L 160.136 132.294097 
L 161.632 132.294102 
L 163.128 132.294106 
L 164.624 132.294109 
L 166.12 132.294112 
L 167.616 132.294114 
L 169.112 132.294116 
L 170.608 132.294117 
L 172.104 132.294118 
L 173.6 132.294119 
L 175.096 132.29412 
L 176.592 132.29412 
L 178.088 132.29412 
L 179.584 132.294121 
L 181.08 132.294121 
L 182.576 132.294121 
L 184.072 132.294121 
L 185.568 132.294122 
L 187.064 132.294122 
L 188.56 132.294122 
L 190.056 132.294122 
L 191.552 132.294122 
L 193.048 132.294122 
L 194.544 132.294122 
L 196.04 132.294122 
" style="fill:none;opacity:0.9;stroke:#8c0800;stroke-linecap:round;stroke-width:1.5;"/>
   </g>
   <g id="line2d_22">
    <path clip-path="url(#p116b42307d)" d="M 46.44 77.568815 
L 47.936 78.470583 
L 49.432 79.564443 
L 50.928 80.879889 
L 52.424 82.445454 
L 53.92 84.285821 
L 55.416 86.418064 
L 56.912 88.847347 
L 58.408 91.562672 
L 59.904 94.533664 
L 61.4 97.709477 
L 62.896 101.020732 
L 64.392 104.384758 
L 65.888 107.71348 
L 67.384 110.922453 
L 68.88 113.939119 
L 70.376 116.708664 
L 71.872 119.196619 
L 73.368 121.388317 
L 74.864 123.286009 
L 76.36 124.904745 
L 77.856 126.268008 
L 79.352 127.403822 
L 80.848 128.341677 
L 82.344 129.110351 
L 83.84 129.73654 
L 85.336 130.244133 
L 86.832 130.653939 
L 88.328 130.983723 
L 89.824 131.248419 
L 91.32 131.460426 
L 92.816 131.629947 
L 94.312 131.765315 
L 95.808 131.873293 
L 97.304 131.959351 
L 98.8 132.02789 
L 100.296 132.082449 
L 101.792 132.125859 
L 103.288 132.160387 
L 104.784 132.187842 
L 106.28 132.209669 
L 107.776 132.227019 
L 109.272 132.240808 
L 110.768 132.251765 
L 112.264 132.260472 
L 113.76 132.267389 
L 115.256 132.272886 
L 116.752 132.277252 
L 118.248 132.280721 
L 119.744 132.283477 
L 121.24 132.285666 
L 122.736 132.287405 
L 124.232 132.288786 
L 125.728 132.289884 
L 127.224 132.290755 
L 128.72 132.291448 
L 130.216 132.291998 
L 131.712 132.292435 
L 133.208 132.292782 
L 134.704 132.293057 
L 136.2 132.293276 
L 137.696 132.29345 
L 139.192 132.293588 
L 140.688 132.293698 
L 142.184 132.293785 
L 143.68 132.293855 
L 145.176 132.29391 
L 146.672 132.293953 
L 148.168 132.293988 
L 149.664 132.294016 
L 151.16 132.294038 
L 152.656 132.294055 
L 154.152 132.294069 
L 155.648 132.29408 
L 157.144 132.294088 
L 158.64 132.294095 
L 160.136 132.294101 
L 161.632 132.294105 
L 163.128 132.294109 
L 164.624 132.294111 
L 166.12 132.294114 
L 167.616 132.294115 
L 169.112 132.294117 
L 170.608 132.294118 
L 172.104 132.294119 
L 173.6 132.294119 
L 175.096 132.29412 
L 176.592 132.29412 
L 178.088 132.294121 
L 179.584 132.294121 
L 181.08 132.294121 
L 182.576 132.294121 
L 184.072 132.294122 
L 185.568 132.294122 
L 187.064 132.294122 
L 188.56 132.294122 
L 190.056 132.294122 
L 191.552 132.294122 
L 193.048 132.294122 
L 194.544 132.294122 
L 196.04 132.294122 
" style="fill:none;opacity:0.7;stroke:#000000;stroke-linecap:round;stroke-width:1.5;"/>
   </g>
   <g id="line2d_23">
    <path clip-path="url(#p116b42307d)" d="M 46.44 52.380622 
L 47.936 53.275827 
L 49.432 54.068211 
L 50.928 54.804045 
L 52.424 55.551027 
L 53.92 56.391286 
L 55.416 57.41215 
L 56.912 58.696581 
L 58.408 60.31417 
L 59.904 62.313307 
L 61.4 64.715539 
L 62.896 67.513121 
L 64.392 70.669983 
L 65.888 74.125743 
L 67.384 77.802396 
L 68.88 81.61317 
L 70.376 85.472285 
L 71.872 89.303508 
L 73.368 93.045382 
L 74.864 96.652428 
L 76.36 100.093242 
L 77.856 103.34708 
L 79.352 106.400376 
L 80.848 109.244296 
L 82.344 111.87344 
L 83.84 114.285105 
L 85.336 116.478843 
L 86.832 118.456613 
L 88.328 120.223419 
L 89.824 121.787627 
L 91.32 123.160512 
L 92.816 124.355439 
L 94.312 125.387204 
L 95.808 126.271672 
L 97.304 127.025489 
L 98.8 127.665719 
L 100.296 128.209316 
L 101.792 128.672481 
L 103.288 129.070011 
L 104.784 129.414798 
L 106.28 129.717564 
L 107.776 129.986861 
L 109.272 130.229276 
L 110.768 130.449744 
L 112.264 130.651868 
L 113.76 130.838197 
L 115.256 131.010443 
L 116.752 131.169642 
L 118.248 131.316316 
L 119.744 131.450631 
L 121.24 131.572568 
L 122.736 131.682093 
L 124.232 131.779296 
L 125.728 131.864479 
L 127.224 131.938191 
L 128.72 132.001208 
L 130.216 132.054481 
L 131.712 132.099065 
L 133.208 132.136046 
L 134.704 132.166487 
L 136.2 132.191383 
L 137.696 132.211633 
L 139.192 132.228029 
L 140.688 132.241256 
L 142.184 132.251895 
L 143.68 132.26043 
L 145.176 132.267264 
L 146.672 132.272727 
L 148.168 132.277089 
L 149.664 132.280568 
L 151.16 132.28334 
L 152.656 132.285548 
L 154.152 132.287305 
L 155.648 132.288703 
L 157.144 132.289815 
L 158.64 132.290699 
L 160.136 132.291402 
L 161.632 132.291961 
L 163.128 132.292405 
L 164.624 132.292758 
L 166.12 132.293038 
L 167.616 132.293261 
L 169.112 132.293438 
L 170.608 132.293579 
L 172.104 132.293691 
L 173.6 132.293779 
L 175.096 132.29385 
L 176.592 132.293906 
L 178.088 132.29395 
L 179.584 132.293986 
L 181.08 132.294014 
L 182.576 132.294036 
L 184.072 132.294054 
L 185.568 132.294068 
L 187.064 132.294079 
L 188.56 132.294088 
L 190.056 132.294095 
L 191.552 132.2941 
L 193.048 132.294105 
L 194.544 132.294108 
L 196.04 132.294111 
" style="fill:none;opacity:0.45;stroke:#8c0800;stroke-dasharray:2.775,1.2;stroke-dashoffset:0;stroke-width:0.75;"/>
   </g>
   <g id="line2d_24">
    <path clip-path="url(#p116b42307d)" d="M 46.44 101.521885 
L 47.936 102.169535 
L 49.432 103.257081 
L 50.928 104.796054 
L 52.424 106.777934 
L 53.92 109.176805 
L 55.416 111.95245 
L 56.912 115.052129 
L 58.408 118.410873 
L 59.904 121.951069 
L 61.4 125.582337 
L 62.896 129.202881 
L 64.392 132.703729 
L 65.888 135.976416 
L 67.384 138.922817 
L 68.88 141.464352 
L 70.376 143.548013 
L 71.872 145.148299 
L 73.368 146.26587 
L 74.864 146.924174 
L 76.36 147.164904 
L 77.856 147.042939 
L 79.352 146.621192 
L 80.848 145.965565 
L 82.344 145.140446 
L 83.84 144.205442 
L 85.336 143.213359 
L 86.832 142.208811 
L 88.328 141.227187 
L 89.824 140.294483 
L 91.32 139.428232 
L 92.816 138.638945 
L 94.312 137.931435 
L 95.808 137.305834 
L 97.304 136.758469 
L 98.8 136.282754 
L 100.296 135.870167 
L 101.792 135.511278 
L 103.288 135.196711 
L 104.784 134.917908 
L 106.28 134.667608 
L 107.776 134.44002 
L 109.272 134.230756 
L 110.768 134.036635 
L 112.264 133.855447 
L 113.76 133.685753 
L 115.256 133.526725 
L 116.752 133.378027 
L 118.248 133.239696 
L 119.744 133.112009 
L 121.24 132.995338 
L 122.736 132.889995 
L 124.232 132.796114 
L 125.728 132.71357 
L 127.224 132.641955 
L 128.72 132.580603 
L 130.216 132.528653 
L 131.712 132.485121 
L 133.208 132.448974 
L 134.704 132.419196 
L 136.2 132.394827 
L 137.696 132.374996 
L 139.192 132.358932 
L 140.688 132.345968 
L 142.184 132.33554 
L 143.68 132.327171 
L 145.176 132.320469 
L 146.672 132.315111 
L 148.168 132.310833 
L 149.664 132.30742 
L 151.16 132.304701 
L 152.656 132.302535 
L 154.152 132.300811 
L 155.648 132.299439 
L 157.144 132.298348 
L 158.64 132.29748 
L 160.136 132.296791 
L 161.632 132.296242 
L 163.128 132.295807 
L 164.624 132.29546 
L 166.12 132.295185 
L 167.616 132.294967 
L 169.112 132.294793 
L 170.608 132.294655 
L 172.104 132.294546 
L 173.6 132.294458 
L 175.096 132.294389 
L 176.592 132.294334 
L 178.088 132.294291 
L 179.584 132.294256 
L 181.08 132.294228 
L 182.576 132.294207 
L 184.072 132.294189 
L 185.568 132.294175 
L 187.064 132.294164 
L 188.56 132.294156 
L 190.056 132.294149 
L 191.552 132.294143 
L 193.048 132.294139 
L 194.544 132.294135 
L 196.04 132.294133 
" style="fill:none;opacity:0.45;stroke:#8c0800;stroke-dasharray:2.775,1.2;stroke-dashoffset:0;stroke-width:0.75;"/>
   </g>
   <g id="line2d_25">
    <path clip-path="url(#p116b42307d)" d="M 46.44 76.9513 
L 47.936 77.722718 
L 49.432 78.662675 
L 50.928 79.800072 
L 52.424 81.164498 
L 53.92 82.78406 
L 55.416 84.682311 
L 56.912 86.874364 
L 58.408 89.362528 
L 59.904 92.132193 
L 61.4 95.148942 
L 62.896 98.358004 
L 64.392 101.686858 
L 65.888 105.051081 
L 67.384 108.362608 
L 68.88 111.538762 
L 70.376 114.51015 
L 71.872 117.225904 
L 73.368 119.655626 
L 74.864 121.788301 
L 76.36 123.629073 
L 77.856 125.195009 
L 79.352 126.510784 
L 80.848 127.604931 
L 82.344 128.506943 
L 83.84 129.245273 
L 85.336 129.846101 
L 86.832 130.332712 
L 88.328 130.725303 
L 89.824 131.041055 
L 91.32 131.294372 
L 92.816 131.497192 
L 94.312 131.65932 
L 95.808 131.788753 
L 97.304 131.891979 
L 98.8 131.974236 
L 100.296 132.039742 
L 101.792 132.09188 
L 103.288 132.133361 
L 104.784 132.166353 
L 106.28 132.192586 
L 107.776 132.21344 
L 109.272 132.230016 
L 110.768 132.243189 
L 112.264 132.253657 
L 113.76 132.261975 
L 115.256 132.268584 
L 116.752 132.273835 
L 118.248 132.278006 
L 119.744 132.28132 
L 121.24 132.283953 
L 122.736 132.286044 
L 124.232 132.287705 
L 125.728 132.289025 
L 127.224 132.290073 
L 128.72 132.290906 
L 130.216 132.291567 
L 131.712 132.292093 
L 133.208 132.29251 
L 134.704 132.292842 
L 136.2 132.293105 
L 137.696 132.293314 
L 139.192 132.29348 
L 140.688 132.293612 
L 142.184 132.293717 
L 143.68 132.2938 
L 145.176 132.293867 
L 146.672 132.293919 
L 148.168 132.293961 
L 149.664 132.293994 
L 151.16 132.29402 
L 152.656 132.294041 
L 154.152 132.294058 
L 155.648 132.294071 
L 157.144 132.294082 
L 158.64 132.29409 
L 160.136 132.294097 
L 161.632 132.294102 
L 163.128 132.294106 
L 164.624 132.294109 
L 166.12 132.294112 
L 167.616 132.294114 
L 169.112 132.294116 
L 170.608 132.294117 
L 172.104 132.294118 
L 173.6 132.294119 
L 175.096 132.29412 
L 176.592 132.29412 
L 178.088 132.29412 
L 179.584 132.294121 
L 181.08 132.294121 
L 182.576 132.294121 
L 184.072 132.294121 
L 185.568 132.294122 
L 187.064 132.294122 
L 188.56 132.294122 
L 190.056 132.294122 
L 191.552 132.294122 
L 193.048 132.294122 
L 194.544 132.294122 
L 196.04 132.294122 
" style="fill:none;opacity:0.9;stroke:#591e71;stroke-linecap:round;stroke-width:1.5;"/>
   </g>
   <g id="line2d_26">
    <path clip-path="url(#p116b42307d)" d="M 46.44 77.568815 
L 47.936 78.470583 
L 49.432 79.564443 
L 50.928 80.879889 
L 52.424 82.445454 
L 53.92 84.285821 
L 55.416 86.418064 
L 56.912 88.847347 
L 58.408 91.562672 
L 59.904 94.533664 
L 61.4 97.709477 
L 62.896 101.020732 
L 64.392 104.384758 
L 65.888 107.71348 
L 67.384 110.922453 
L 68.88 113.939119 
L 70.376 116.708664 
L 71.872 119.196619 
L 73.368 121.388317 
L 74.864 123.286009 
L 76.36 124.904745 
L 77.856 126.268008 
L 79.352 127.403822 
L 80.848 128.341677 
L 82.344 129.110351 
L 83.84 129.73654 
L 85.336 130.244133 
L 86.832 130.653939 
L 88.328 130.983723 
L 89.824 131.248419 
L 91.32 131.460426 
L 92.816 131.629947 
L 94.312 131.765315 
L 95.808 131.873293 
L 97.304 131.959351 
L 98.8 132.02789 
L 100.296 132.082449 
L 101.792 132.125859 
L 103.288 132.160387 
L 104.784 132.187842 
L 106.28 132.209669 
L 107.776 132.227019 
L 109.272 132.240808 
L 110.768 132.251765 
L 112.264 132.260472 
L 113.76 132.267389 
L 115.256 132.272886 
L 116.752 132.277252 
L 118.248 132.280721 
L 119.744 132.283477 
L 121.24 132.285666 
L 122.736 132.287405 
L 124.232 132.288786 
L 125.728 132.289884 
L 127.224 132.290755 
L 128.72 132.291448 
L 130.216 132.291998 
L 131.712 132.292435 
L 133.208 132.292782 
L 134.704 132.293057 
L 136.2 132.293276 
L 137.696 132.29345 
L 139.192 132.293588 
L 140.688 132.293698 
L 142.184 132.293785 
L 143.68 132.293855 
L 145.176 132.29391 
L 146.672 132.293953 
L 148.168 132.293988 
L 149.664 132.294016 
L 151.16 132.294038 
L 152.656 132.294055 
L 154.152 132.294069 
L 155.648 132.29408 
L 157.144 132.294088 
L 158.64 132.294095 
L 160.136 132.294101 
L 161.632 132.294105 
L 163.128 132.294109 
L 164.624 132.294111 
L 166.12 132.294114 
L 167.616 132.294115 
L 169.112 132.294117 
L 170.608 132.294118 
L 172.104 132.294119 
L 173.6 132.294119 
L 175.096 132.29412 
L 176.592 132.29412 
L 178.088 132.294121 
L 179.584 132.294121 
L 181.08 132.294121 
L 182.576 132.294121 
L 184.072 132.294122 
L 185.568 132.294122 
L 187.064 132.294122 
L 188.56 132.294122 
L 190.056 132.294122 
L 191.552 132.294122 
L 193.048 132.294122 
L 194.544 132.294122 
L 196.04 132.294122 
" style="fill:none;opacity:0.7;stroke:#000000;stroke-linecap:round;stroke-width:1.5;"/>
   </g>
   <g id="line2d_27">
    <path clip-path="url(#p116b42307d)" d="M 46.44 32.281818 
L 47.936 32.534949 
L 49.432 32.981697 
L 50.928 33.658379 
L 52.424 34.601478 
L 53.92 35.845615 
L 55.416 37.420557 
L 56.912 39.347323 
L 58.408 41.633733 
L 59.904 44.270162 
L 61.4 47.226547 
L 62.896 50.451781 
L 64.392 53.876255 
L 65.888 57.417648 
L 67.384 60.989112 
L 68.88 64.508237 
L 70.376 67.904951 
L 71.872 71.126836 
L 73.368 74.14124 
L 74.864 76.934416 
L 76.36 79.508542 
L 77.856 81.877665 
L 79.352 84.0635 
L 80.848 86.091679 
L 82.344 87.988784 
L 83.84 89.78023 
L 85.336 91.488923 
L 86.832 93.134553 
L 88.328 94.73336 
L 89.824 96.29822 
L 91.32 97.838937 
L 92.816 99.362648 
L 94.312 100.874266 
L 95.808 102.376923 
L 97.304 103.872393 
L 98.8 105.361469 
L 100.296 106.844268 
L 101.792 108.32043 
L 103.288 109.78918 
L 104.784 111.249196 
L 106.28 112.698269 
L 107.776 114.13274 
L 109.272 115.546722 
L 110.768 116.931146 
L 112.264 118.27263 
L 113.76 119.552221 
L 115.256 120.7441 
L 116.752 121.814644 
L 118.248 122.722801 
L 119.744 123.423645 
L 121.24 123.87716 
L 122.736 124.061523 
L 124.232 123.984168 
L 125.728 123.681702 
L 127.224 123.207992 
L 128.72 122.619336 
L 130.216 121.964687 
L 131.712 121.282202 
L 133.208 120.599641 
L 134.704 119.936216 
L 136.2 119.304606 
L 137.696 118.712672 
L 139.192 118.164773 
L 140.688 117.662742 
L 142.184 117.206599 
L 143.68 116.795075 
L 145.176 116.426018 
L 146.672 116.096716 
L 148.168 115.804151 
L 149.664 115.545202 
L 151.16 115.316788 
L 152.656 115.11594 
L 154.152 114.939835 
L 155.648 114.785794 
L 157.144 114.651276 
L 158.64 114.533879 
L 160.136 114.43136 
L 161.632 114.341672 
L 163.128 114.262989 
L 164.624 114.193737 
L 166.12 114.132599 
L 167.616 114.078502 
L 169.112 114.030593 
L 170.608 113.9882 
L 172.104 113.95079 
L 173.6 113.917926 
L 175.096 113.889224 
L 176.592 113.864324 
L 178.088 113.842863 
L 179.584 113.82447 
L 181.08 113.808762 
L 182.576 113.795355 
L 184.072 113.783874 
L 185.568 113.773975 
L 187.064 113.765357 
L 188.56 113.757769 
L 190.056 113.751025 
L 191.552 113.744991 
L 193.048 113.739585 
L 194.544 113.734756 
L 196.04 113.730474 
" style="fill:none;opacity:0.45;stroke:#591e71;stroke-dasharray:2.775,1.2;stroke-dashoffset:0;stroke-width:0.75;"/>
   </g>
   <g id="line2d_28">
    <path clip-path="url(#p116b42307d)" d="M 46.44 121.620781 
L 47.936 122.910486 
L 49.432 124.343653 
L 50.928 125.941766 
L 52.424 127.727518 
L 53.92 129.722505 
L 55.416 131.944066 
L 56.912 134.401405 
L 58.408 137.091323 
L 59.904 139.994225 
L 61.4 143.071337 
L 62.896 146.264227 
L 64.392 149.497462 
L 65.888 152.684514 
L 67.384 155.736104 
L 68.88 158.569287 
L 70.376 161.115349 
L 71.872 163.324972 
L 73.368 165.170013 
L 74.864 166.642186 
L 76.36 167.749605 
L 77.856 168.512354 
L 79.352 168.958068 
L 80.848 169.118182 
L 82.344 169.025102 
L 83.84 168.710317 
L 85.336 168.203279 
L 86.832 167.530871 
L 88.328 166.717246 
L 89.824 165.78389 
L 91.32 164.749807 
L 92.816 163.631735 
L 94.312 162.444374 
L 95.808 161.200584 
L 97.304 159.911565 
L 98.8 158.587003 
L 100.296 157.235215 
L 101.792 155.863329 
L 103.288 154.477542 
L 104.784 153.08351 
L 106.28 151.686902 
L 107.776 150.29414 
L 109.272 148.913309 
L 110.768 147.555232 
L 112.264 146.234685 
L 113.76 144.97173 
L 115.256 143.793068 
L 116.752 142.733025 
L 118.248 141.833212 
L 119.744 141.138995 
L 121.24 140.690745 
L 122.736 140.510564 
L 124.232 140.591242 
L 125.728 140.896348 
L 127.224 141.372154 
L 128.72 141.962476 
L 130.216 142.618448 
L 131.712 143.301983 
L 133.208 143.985379 
L 134.704 144.649467 
L 136.2 145.281604 
L 137.696 145.873956 
L 139.192 146.422188 
L 140.688 146.924482 
L 142.184 147.380836 
L 143.68 147.792526 
L 145.176 148.161715 
L 146.672 148.491122 
L 148.168 148.783771 
L 149.664 149.042786 
L 151.16 149.271253 
L 152.656 149.472143 
L 154.152 149.648281 
L 155.648 149.802348 
L 157.144 149.936887 
L 158.64 150.054301 
L 160.136 150.156833 
L 161.632 150.246532 
L 163.128 150.325223 
L 164.624 150.394481 
L 166.12 150.455625 
L 167.616 150.509726 
L 169.112 150.557638 
L 170.608 150.600034 
L 172.104 150.637446 
L 173.6 150.670312 
L 175.096 150.699015 
L 176.592 150.723916 
L 178.088 150.745378 
L 179.584 150.763771 
L 181.08 150.77948 
L 182.576 150.792888 
L 184.072 150.804369 
L 185.568 150.814268 
L 187.064 150.822887 
L 188.56 150.830474 
L 190.056 150.837219 
L 191.552 150.843252 
L 193.048 150.848659 
L 194.544 150.853488 
L 196.04 150.85777 
" style="fill:none;opacity:0.45;stroke:#591e71;stroke-dasharray:2.775,1.2;stroke-dashoffset:0;stroke-width:0.75;"/>
   </g>
   <g id="patch_3">
    <path d="M 38.96 175.96 
L 38.96 25.44 
" style="fill:none;stroke:#262626;stroke-linecap:square;stroke-linejoin:miter;stroke-width:0.8;"/>
   </g>
   <g id="patch_4">
    <path d="M 38.96 175.96 
L 203.52 175.96 
" style="fill:none;stroke:#262626;stroke-linecap:square;stroke-linejoin:miter;stroke-width:0.8;"/>
   </g>
   <g id="text_11">
    <!-- SM17 -->
    <defs>
     <path d="M 4.5 23 
L 13.421875 23.78125 
Q 14.0625 18.40625 16.375 14.96875 
Q 18.703125 11.53125 23.578125 9.40625 
Q 28.46875 7.28125 34.578125 7.28125 
Q 39.984375 7.28125 44.140625 8.890625 
Q 48.296875 10.5 50.3125 13.296875 
Q 52.34375 16.109375 52.34375 19.4375 
Q 52.34375 22.796875 50.390625 25.3125 
Q 48.4375 27.828125 43.953125 29.546875 
Q 41.0625 30.671875 31.203125 33.03125 
Q 21.34375 35.40625 17.390625 37.5 
Q 12.25 40.1875 9.734375 44.15625 
Q 7.234375 48.140625 7.234375 53.078125 
Q 7.234375 58.5 10.296875 63.203125 
Q 13.375 67.921875 19.28125 70.359375 
Q 25.203125 72.796875 32.421875 72.796875 
Q 40.375 72.796875 46.453125 70.234375 
Q 52.546875 67.671875 55.8125 62.6875 
Q 59.078125 57.71875 59.328125 51.421875 
L 50.25 50.734375 
Q 49.515625 57.515625 45.28125 60.984375 
Q 41.0625 64.453125 32.8125 64.453125 
Q 24.21875 64.453125 20.28125 61.296875 
Q 16.359375 58.15625 16.359375 53.71875 
Q 16.359375 49.859375 19.140625 47.359375 
Q 21.875 44.875 33.421875 42.265625 
Q 44.96875 39.65625 49.265625 37.703125 
Q 55.515625 34.8125 58.484375 30.390625 
Q 61.46875 25.984375 61.46875 20.21875 
Q 61.46875 14.5 58.203125 9.4375 
Q 54.9375 4.390625 48.796875 1.578125 
Q 42.671875 -1.21875 35.015625 -1.21875 
Q 25.296875 -1.21875 18.71875 1.609375 
Q 12.15625 4.4375 8.421875 10.125 
Q 4.6875 15.828125 4.5 23 
z
" id="ArialMT-53"/>
     <path d="M 7.421875 0 
L 7.421875 71.578125 
L 21.6875 71.578125 
L 38.625 20.90625 
Q 40.96875 13.8125 42.046875 10.296875 
Q 43.265625 14.203125 45.84375 21.78125 
L 62.984375 71.578125 
L 75.734375 71.578125 
L 75.734375 0 
L 66.609375 0 
L 66.609375 59.90625 
L 45.796875 0 
L 37.25 0 
L 16.546875 60.9375 
L 16.546875 0 
z
" id="ArialMT-4d"/>
     <path d="M 4.734375 62.203125 
L 4.734375 70.65625 
L 51.078125 70.65625 
L 51.078125 63.8125 
Q 44.234375 56.546875 37.515625 44.484375 
Q 30.8125 32.421875 27.15625 19.671875 
Q 24.515625 10.6875 23.78125 0 
L 14.75 0 
Q 14.890625 8.453125 18.0625 20.40625 
Q 21.234375 32.375 27.171875 43.484375 
Q 33.109375 54.59375 39.796875 62.203125 
z
" id="ArialMT-37"/>
    </defs>
    <g style="fill:#262626;" transform="translate(105.566875 19.44)scale(0.12 -0.12)">
     <use xlink:href="#ArialMT-53"/>
     <use x="66.699219" xlink:href="#ArialMT-4d"/>
     <use x="150" xlink:href="#ArialMT-31"/>
     <use x="205.615234" xlink:href="#ArialMT-37"/>
    </g>
   </g>
  </g>
 </g>
 <defs>
  <clipPath id="p116b42307d">
   <rect height="150.52" width="164.56" x="38.96" y="25.44"/>
  </clipPath>
 </defs>
</svg>
