<?xml version="1.0" encoding="utf-8" standalone="no"?>
<!DOCTYPE svg PUBLIC "-//W3C//DTD SVG 1.1//EN"
  "http://www.w3.org/Graphics/SVG/1.1/DTD/svg11.dtd">
<!-- Created with matplotlib (http://matplotlib.org/) -->
<svg height="216pt" version="1.1" viewBox="0 0 216 216" width="216pt" xmlns="http://www.w3.org/2000/svg" xmlns:xlink="http://www.w3.org/1999/xlink">
 <defs>
  <style type="text/css">
*{stroke-linecap:butt;stroke-linejoin:round;}
  </style>
 </defs>
 <g id="figure_1">
  <g id="patch_1">
   <path d="M 0 216 
L 216 216 
L 216 0 
L 0 0 
z
" style="fill:#ffffff;"/>
  </g>
  <g id="axes_1">
   <g id="patch_2">
    <path d="M 44.78 175.96 
L 203.52 175.96 
L 203.52 25.44 
L 44.78 25.44 
z
" style="fill:#ffffff;"/>
   </g>
   <g id="matplotlib.axis_1">
    <g id="xtick_1">
     <g id="line2d_1">
      <defs>
       <path d="M 0 0 
L 0 3.5 
" id="m8c584aecd9" style="stroke:#262626;stroke-width:0.8;"/>
      </defs>
      <g>
       <use style="fill:#262626;stroke:#262626;stroke-width:0.8;" x="51.995455" xlink:href="#m8c584aecd9" y="175.96"/>
      </g>
     </g>
     <g id="text_1">
      <!-- 2 -->
      <defs>
       <path d="M 50.34375 8.453125 
L 50.34375 0 
L 3.03125 0 
Q 2.9375 3.171875 4.046875 6.109375 
Q 5.859375 10.9375 9.828125 15.625 
Q 13.8125 20.3125 21.34375 26.46875 
Q 33.015625 36.03125 37.109375 41.625 
Q 41.21875 47.21875 41.21875 52.203125 
Q 41.21875 57.421875 37.46875 61 
Q 33.734375 64.59375 27.734375 64.59375 
Q 21.390625 64.59375 17.578125 60.78125 
Q 13.765625 56.984375 13.71875 50.25 
L 4.6875 51.171875 
Q 5.609375 61.28125 11.65625 66.578125 
Q 17.71875 71.875 27.9375 71.875 
Q 38.234375 71.875 44.234375 66.15625 
Q 50.25 60.453125 50.25 52 
Q 50.25 47.703125 48.484375 43.546875 
Q 46.734375 39.40625 42.65625 34.8125 
Q 38.578125 30.21875 29.109375 22.21875 
Q 21.1875 15.578125 18.9375 13.203125 
Q 16.703125 10.84375 15.234375 8.453125 
z
" id="ArialMT-32"/>
      </defs>
      <g style="fill:#262626;" transform="translate(49.214986 190.117812)scale(0.1 -0.1)">
       <use xlink:href="#ArialMT-32"/>
      </g>
     </g>
    </g>
    <g id="xtick_2">
     <g id="line2d_2">
      <g>
       <use style="fill:#262626;stroke:#262626;stroke-width:0.8;" x="80.857273" xlink:href="#m8c584aecd9" y="175.96"/>
      </g>
     </g>
     <g id="text_2">
      <!-- 4 -->
      <defs>
       <path d="M 32.328125 0 
L 32.328125 17.140625 
L 1.265625 17.140625 
L 1.265625 25.203125 
L 33.9375 71.578125 
L 41.109375 71.578125 
L 41.109375 25.203125 
L 50.78125 25.203125 
L 50.78125 17.140625 
L 41.109375 17.140625 
L 41.109375 0 
z
M 32.328125 25.203125 
L 32.328125 57.46875 
L 9.90625 25.203125 
z
" id="ArialMT-34"/>
      </defs>
      <g style="fill:#262626;" transform="translate(78.076804 190.117812)scale(0.1 -0.1)">
       <use xlink:href="#ArialMT-34"/>
      </g>
     </g>
    </g>
    <g id="xtick_3">
     <g id="line2d_3">
      <g>
       <use style="fill:#262626;stroke:#262626;stroke-width:0.8;" x="109.719091" xlink:href="#m8c584aecd9" y="175.96"/>
      </g>
     </g>
     <g id="text_3">
      <!-- 6 -->
      <defs>
       <path d="M 49.75 54.046875 
L 41.015625 53.375 
Q 39.84375 58.546875 37.703125 60.890625 
Q 34.125 64.65625 28.90625 64.65625 
Q 24.703125 64.65625 21.53125 62.3125 
Q 17.390625 59.28125 14.984375 53.46875 
Q 12.59375 47.65625 12.5 36.921875 
Q 15.671875 41.75 20.265625 44.09375 
Q 24.859375 46.4375 29.890625 46.4375 
Q 38.671875 46.4375 44.84375 39.96875 
Q 51.03125 33.5 51.03125 23.25 
Q 51.03125 16.5 48.125 10.71875 
Q 45.21875 4.9375 40.140625 1.859375 
Q 35.0625 -1.21875 28.609375 -1.21875 
Q 17.625 -1.21875 10.6875 6.859375 
Q 3.765625 14.9375 3.765625 33.5 
Q 3.765625 54.25 11.421875 63.671875 
Q 18.109375 71.875 29.4375 71.875 
Q 37.890625 71.875 43.28125 67.140625 
Q 48.6875 62.40625 49.75 54.046875 
z
M 13.875 23.1875 
Q 13.875 18.65625 15.796875 14.5 
Q 17.71875 10.359375 21.1875 8.171875 
Q 24.65625 6 28.46875 6 
Q 34.03125 6 38.03125 10.484375 
Q 42.046875 14.984375 42.046875 22.703125 
Q 42.046875 30.125 38.078125 34.390625 
Q 34.125 38.671875 28.125 38.671875 
Q 22.171875 38.671875 18.015625 34.390625 
Q 13.875 30.125 13.875 23.1875 
z
" id="ArialMT-36"/>
      </defs>
      <g style="fill:#262626;" transform="translate(106.938622 190.117812)scale(0.1 -0.1)">
       <use xlink:href="#ArialMT-36"/>
      </g>
     </g>
    </g>
    <g id="xtick_4">
     <g id="line2d_4">
      <g>
       <use style="fill:#262626;stroke:#262626;stroke-width:0.8;" x="138.580909" xlink:href="#m8c584aecd9" y="175.96"/>
      </g>
     </g>
     <g id="text_4">
      <!-- 8 -->
      <defs>
       <path d="M 17.671875 38.8125 
Q 12.203125 40.828125 9.5625 44.53125 
Q 6.9375 48.25 6.9375 53.421875 
Q 6.9375 61.234375 12.546875 66.546875 
Q 18.171875 71.875 27.484375 71.875 
Q 36.859375 71.875 42.578125 66.421875 
Q 48.296875 60.984375 48.296875 53.171875 
Q 48.296875 48.1875 45.671875 44.5 
Q 43.0625 40.828125 37.75 38.8125 
Q 44.34375 36.671875 47.78125 31.875 
Q 51.21875 27.09375 51.21875 20.453125 
Q 51.21875 11.28125 44.71875 5.03125 
Q 38.234375 -1.21875 27.640625 -1.21875 
Q 17.046875 -1.21875 10.546875 5.046875 
Q 4.046875 11.328125 4.046875 20.703125 
Q 4.046875 27.6875 7.59375 32.390625 
Q 11.140625 37.109375 17.671875 38.8125 
z
M 15.921875 53.71875 
Q 15.921875 48.640625 19.1875 45.40625 
Q 22.46875 42.1875 27.6875 42.1875 
Q 32.765625 42.1875 36.015625 45.375 
Q 39.265625 48.578125 39.265625 53.21875 
Q 39.265625 58.0625 35.90625 61.359375 
Q 32.5625 64.65625 27.59375 64.65625 
Q 22.5625 64.65625 19.234375 61.421875 
Q 15.921875 58.203125 15.921875 53.71875 
z
M 13.09375 20.65625 
Q 13.09375 16.890625 14.875 13.375 
Q 16.65625 9.859375 20.171875 7.921875 
Q 23.6875 6 27.734375 6 
Q 34.03125 6 38.125 10.046875 
Q 42.234375 14.109375 42.234375 20.359375 
Q 42.234375 26.703125 38.015625 30.859375 
Q 33.796875 35.015625 27.4375 35.015625 
Q 21.234375 35.015625 17.15625 30.90625 
Q 13.09375 26.8125 13.09375 20.65625 
z
" id="ArialMT-38"/>
      </defs>
      <g style="fill:#262626;" transform="translate(135.80044 190.117812)scale(0.1 -0.1)">
       <use xlink:href="#ArialMT-38"/>
      </g>
     </g>
    </g>
    <g id="xtick_5">
     <g id="line2d_5">
      <g>
       <use style="fill:#262626;stroke:#262626;stroke-width:0.8;" x="167.442727" xlink:href="#m8c584aecd9" y="175.96"/>
      </g>
     </g>
     <g id="text_5">
      <!-- 10 -->
      <defs>
       <path d="M 37.25 0 
L 28.46875 0 
L 28.46875 56 
Q 25.296875 52.984375 20.140625 49.953125 
Q 14.984375 46.921875 10.890625 45.40625 
L 10.890625 53.90625 
Q 18.265625 57.375 23.78125 62.296875 
Q 29.296875 67.234375 31.59375 71.875 
L 37.25 71.875 
z
" id="ArialMT-31"/>
       <path d="M 4.15625 35.296875 
Q 4.15625 48 6.765625 55.734375 
Q 9.375 63.484375 14.515625 67.671875 
Q 19.671875 71.875 27.484375 71.875 
Q 33.25 71.875 37.59375 69.546875 
Q 41.9375 67.234375 44.765625 62.859375 
Q 47.609375 58.5 49.21875 52.21875 
Q 50.828125 45.953125 50.828125 35.296875 
Q 50.828125 22.703125 48.234375 14.96875 
Q 45.65625 7.234375 40.5 3 
Q 35.359375 -1.21875 27.484375 -1.21875 
Q 17.140625 -1.21875 11.234375 6.203125 
Q 4.15625 15.140625 4.15625 35.296875 
z
M 13.1875 35.296875 
Q 13.1875 17.671875 17.3125 11.828125 
Q 21.4375 6 27.484375 6 
Q 33.546875 6 37.671875 11.859375 
Q 41.796875 17.71875 41.796875 35.296875 
Q 41.796875 52.984375 37.671875 58.78125 
Q 33.546875 64.59375 27.390625 64.59375 
Q 21.34375 64.59375 17.71875 59.46875 
Q 13.1875 52.9375 13.1875 35.296875 
z
" id="ArialMT-30"/>
      </defs>
      <g style="fill:#262626;" transform="translate(161.88179 190.117812)scale(0.1 -0.1)">
       <use xlink:href="#ArialMT-31"/>
       <use x="55.615234" xlink:href="#ArialMT-30"/>
      </g>
     </g>
    </g>
    <g id="xtick_6">
     <g id="line2d_6">
      <g>
       <use style="fill:#262626;stroke:#262626;stroke-width:0.8;" x="196.304545" xlink:href="#m8c584aecd9" y="175.96"/>
      </g>
     </g>
     <g id="text_6">
      <!-- 12 -->
      <g style="fill:#262626;" transform="translate(190.743608 190.117812)scale(0.1 -0.1)">
       <use xlink:href="#ArialMT-31"/>
       <use x="55.615234" xlink:href="#ArialMT-32"/>
      </g>
     </g>
    </g>
    <g id="text_7">
     <!-- pH -->
     <defs>
      <path d="M 6.59375 -19.875 
L 6.59375 51.859375 
L 14.59375 51.859375 
L 14.59375 45.125 
Q 17.4375 49.078125 21 51.046875 
Q 24.5625 53.03125 29.640625 53.03125 
Q 36.28125 53.03125 41.359375 49.609375 
Q 46.4375 46.1875 49.015625 39.953125 
Q 51.609375 33.734375 51.609375 26.3125 
Q 51.609375 18.359375 48.75 11.984375 
Q 45.90625 5.609375 40.453125 2.21875 
Q 35.015625 -1.171875 29 -1.171875 
Q 24.609375 -1.171875 21.109375 0.6875 
Q 17.625 2.546875 15.375 5.375 
L 15.375 -19.875 
z
M 14.546875 25.640625 
Q 14.546875 15.625 18.59375 10.84375 
Q 22.65625 6.0625 28.421875 6.0625 
Q 34.28125 6.0625 38.453125 11.015625 
Q 42.625 15.96875 42.625 26.375 
Q 42.625 36.28125 38.546875 41.203125 
Q 34.46875 46.140625 28.8125 46.140625 
Q 23.1875 46.140625 18.859375 40.890625 
Q 14.546875 35.640625 14.546875 25.640625 
z
" id="ArialMT-70"/>
      <path d="M 8.015625 0 
L 8.015625 71.578125 
L 17.484375 71.578125 
L 17.484375 42.1875 
L 54.6875 42.1875 
L 54.6875 71.578125 
L 64.15625 71.578125 
L 64.15625 0 
L 54.6875 0 
L 54.6875 33.734375 
L 17.484375 33.734375 
L 17.484375 0 
z
" id="ArialMT-48"/>
     </defs>
     <g style="fill:#262626;" transform="translate(117.758594 203.263125)scale(0.1 -0.1)">
      <use xlink:href="#ArialMT-70"/>
      <use x="55.615234" xlink:href="#ArialMT-48"/>
     </g>
    </g>
   </g>
   <g id="matplotlib.axis_2">
    <g id="ytick_1">
     <g id="line2d_7">
      <defs>
       <path d="M 0 0 
L -3.5 0 
" id="md8f8d99164" style="stroke:#262626;stroke-width:0.8;"/>
      </defs>
      <g>
       <use style="fill:#262626;stroke:#262626;stroke-width:0.8;" x="44.78" xlink:href="#md8f8d99164" y="169.184925"/>
      </g>
     </g>
     <g id="text_8">
      <!-- −2 -->
      <defs>
       <path d="M 52.828125 31.203125 
L 5.5625 31.203125 
L 5.5625 39.40625 
L 52.828125 39.40625 
z
" id="ArialMT-2212"/>
      </defs>
      <g style="fill:#262626;" transform="translate(26.378438 172.763831)scale(0.1 -0.1)">
       <use xlink:href="#ArialMT-2212"/>
       <use x="58.398438" xlink:href="#ArialMT-32"/>
      </g>
     </g>
    </g>
    <g id="ytick_2">
     <g id="line2d_8">
      <g>
       <use style="fill:#262626;stroke:#262626;stroke-width:0.8;" x="44.78" xlink:href="#md8f8d99164" y="133.305241"/>
      </g>
     </g>
     <g id="text_9">
      <!-- −1 -->
      <g style="fill:#262626;" transform="translate(26.378438 136.884147)scale(0.1 -0.1)">
       <use xlink:href="#ArialMT-2212"/>
       <use x="58.398438" xlink:href="#ArialMT-31"/>
      </g>
     </g>
    </g>
    <g id="ytick_3">
     <g id="line2d_9">
      <g>
       <use style="fill:#262626;stroke:#262626;stroke-width:0.8;" x="44.78" xlink:href="#md8f8d99164" y="97.425557"/>
      </g>
     </g>
     <g id="text_10">
      <!-- 0 -->
      <g style="fill:#262626;" transform="translate(32.219063 101.004464)scale(0.1 -0.1)">
       <use xlink:href="#ArialMT-30"/>
      </g>
     </g>
    </g>
    <g id="ytick_4">
     <g id="line2d_10">
      <g>
       <use style="fill:#262626;stroke:#262626;stroke-width:0.8;" x="44.78" xlink:href="#md8f8d99164" y="61.545874"/>
      </g>
     </g>
     <g id="text_11">
      <!-- 1 -->
      <g style="fill:#262626;" transform="translate(32.219063 65.12478)scale(0.1 -0.1)">
       <use xlink:href="#ArialMT-31"/>
      </g>
     </g>
    </g>
    <g id="ytick_5">
     <g id="line2d_11">
      <g>
       <use style="fill:#262626;stroke:#262626;stroke-width:0.8;" x="44.78" xlink:href="#md8f8d99164" y="25.66619"/>
      </g>
     </g>
     <g id="text_12">
      <!-- 2 -->
      <g style="fill:#262626;" transform="translate(32.219063 29.245096)scale(0.1 -0.1)">
       <use xlink:href="#ArialMT-32"/>
      </g>
     </g>
    </g>
    <g id="text_13">
     <!-- $\langle q_\mathsf{total} \rangle$ -->
     <defs>
      <path d="M 8.9375 31.34375 
L 22.703125 75.875 
L 31 75.875 
L 17.234375 31.34375 
L 31 -13.1875 
L 22.703125 -13.1875 
z
" id="DejaVuSans-27e8"/>
      <path d="M 41.703125 8.203125 
Q 38.09375 3.46875 33.171875 1.015625 
Q 28.265625 -1.421875 22.3125 -1.421875 
Q 14.015625 -1.421875 9.296875 4.171875 
Q 4.59375 9.765625 4.59375 19.578125 
Q 4.59375 27.484375 7.5 34.859375 
Q 10.40625 42.234375 15.828125 48.09375 
Q 19.34375 51.90625 23.90625 53.953125 
Q 28.46875 56 33.5 56 
Q 39.546875 56 43.453125 53.609375 
Q 47.359375 51.21875 49.125 46.390625 
L 50.6875 54.59375 
L 59.71875 54.59375 
L 45.125 -20.609375 
L 36.078125 -20.609375 
z
M 13.921875 20.90625 
Q 13.921875 13.671875 16.9375 9.890625 
Q 19.96875 6.109375 25.6875 6.109375 
Q 34.1875 6.109375 40.1875 14.234375 
Q 46.1875 22.359375 46.1875 33.984375 
Q 46.1875 41.015625 43.078125 44.75 
Q 39.984375 48.484375 34.1875 48.484375 
Q 29.9375 48.484375 26.3125 46.5 
Q 22.703125 44.53125 20.015625 40.71875 
Q 17.1875 36.71875 15.546875 31.34375 
Q 13.921875 25.984375 13.921875 20.90625 
z
" id="DejaVuSans-Oblique-71"/>
      <path d="M 18.3125 70.21875 
L 18.3125 54.6875 
L 36.8125 54.6875 
L 36.8125 47.703125 
L 18.3125 47.703125 
L 18.3125 18.015625 
Q 18.3125 11.328125 20.140625 9.421875 
Q 21.96875 7.515625 27.59375 7.515625 
L 36.8125 7.515625 
L 36.8125 0 
L 27.59375 0 
Q 17.1875 0 13.234375 3.875 
Q 9.28125 7.765625 9.28125 18.015625 
L 9.28125 47.703125 
L 2.6875 47.703125 
L 2.6875 54.6875 
L 9.28125 54.6875 
L 9.28125 70.21875 
z
" id="DejaVuSans-74"/>
      <path d="M 30.609375 48.390625 
Q 23.390625 48.390625 19.1875 42.75 
Q 14.984375 37.109375 14.984375 27.296875 
Q 14.984375 17.484375 19.15625 11.84375 
Q 23.34375 6.203125 30.609375 6.203125 
Q 37.796875 6.203125 41.984375 11.859375 
Q 46.1875 17.53125 46.1875 27.296875 
Q 46.1875 37.015625 41.984375 42.703125 
Q 37.796875 48.390625 30.609375 48.390625 
z
M 30.609375 56 
Q 42.328125 56 49.015625 48.375 
Q 55.71875 40.765625 55.71875 27.296875 
Q 55.71875 13.875 49.015625 6.21875 
Q 42.328125 -1.421875 30.609375 -1.421875 
Q 18.84375 -1.421875 12.171875 6.21875 
Q 5.515625 13.875 5.515625 27.296875 
Q 5.515625 40.765625 12.171875 48.375 
Q 18.84375 56 30.609375 56 
z
" id="DejaVuSans-6f"/>
      <path d="M 34.28125 27.484375 
Q 23.390625 27.484375 19.1875 25 
Q 14.984375 22.515625 14.984375 16.5 
Q 14.984375 11.71875 18.140625 8.90625 
Q 21.296875 6.109375 26.703125 6.109375 
Q 34.1875 6.109375 38.703125 11.40625 
Q 43.21875 16.703125 43.21875 25.484375 
L 43.21875 27.484375 
z
M 52.203125 31.203125 
L 52.203125 0 
L 43.21875 0 
L 43.21875 8.296875 
Q 40.140625 3.328125 35.546875 0.953125 
Q 30.953125 -1.421875 24.3125 -1.421875 
Q 15.921875 -1.421875 10.953125 3.296875 
Q 6 8.015625 6 15.921875 
Q 6 25.140625 12.171875 29.828125 
Q 18.359375 34.515625 30.609375 34.515625 
L 43.21875 34.515625 
L 43.21875 35.40625 
Q 43.21875 41.609375 39.140625 45 
Q 35.0625 48.390625 27.6875 48.390625 
Q 23 48.390625 18.546875 47.265625 
Q 14.109375 46.140625 10.015625 43.890625 
L 10.015625 52.203125 
Q 14.9375 54.109375 19.578125 55.046875 
Q 24.21875 56 28.609375 56 
Q 40.484375 56 46.34375 49.84375 
Q 52.203125 43.703125 52.203125 31.203125 
z
" id="DejaVuSans-61"/>
      <path d="M 9.421875 75.984375 
L 18.40625 75.984375 
L 18.40625 0 
L 9.421875 0 
z
" id="DejaVuSans-6c"/>
      <path d="M 30.078125 31.34375 
L 16.3125 -13.1875 
L 8.015625 -13.1875 
L 21.78125 31.34375 
L 8.015625 75.875 
L 16.3125 75.875 
z
" id="DejaVuSans-27e9"/>
     </defs>
     <g style="fill:#262626;" transform="translate(20.278438 115.95)rotate(-90)scale(0.1 -0.1)">
      <use transform="translate(0 0.125)" xlink:href="#DejaVuSans-27e8"/>
      <use transform="translate(39.013672 0.125)" xlink:href="#DejaVuSans-Oblique-71"/>
      <use transform="translate(102.490234 -16.28125)scale(0.7)" xlink:href="#DejaVuSans-74"/>
      <use transform="translate(129.936523 -16.28125)scale(0.7)" xlink:href="#DejaVuSans-6f"/>
      <use transform="translate(172.763672 -16.28125)scale(0.7)" xlink:href="#DejaVuSans-74"/>
      <use transform="translate(200.209961 -16.28125)scale(0.7)" xlink:href="#DejaVuSans-61"/>
      <use transform="translate(243.105469 -16.28125)scale(0.7)" xlink:href="#DejaVuSans-6c"/>
      <use transform="translate(265.288086 0.125)" xlink:href="#DejaVuSans-27e9"/>
     </g>
    </g>
   </g>
   <g id="line2d_12">
    <path clip-path="url(#p5c8fc02ee0)" d="M 51.995455 62.782466 
L 53.438545 63.18644 
L 54.881636 63.66351 
L 56.324727 64.23139 
L 57.767818 64.908884 
L 59.210909 65.715258 
L 60.654 66.669141 
L 62.097091 67.786868 
L 63.540182 69.080283 
L 64.983273 70.554155 
L 66.426364 72.203567 
L 67.869455 74.011842 
L 69.312545 75.949688 
L 70.755636 77.976137 
L 72.198727 80.041518 
L 73.641818 82.092142 
L 75.084909 84.075819 
L 76.528 85.947065 
L 77.971091 87.670928 
L 79.414182 89.224869 
L 80.857273 90.598668 
L 82.300364 91.792818 
L 83.743455 92.816074 
L 85.186545 93.682796 
L 86.629636 94.410525 
L 88.072727 95.018059 
L 89.515818 95.524091 
L 90.958909 95.946349 
L 92.402 96.301171 
L 93.845091 96.603373 
L 95.288182 96.866343 
L 96.731273 97.102257 
L 98.174364 97.322393 
L 99.617455 97.537472 
L 101.060545 97.758035 
L 102.503636 97.994819 
L 103.946727 98.25913 
L 105.389818 98.563187 
L 106.832909 98.920431 
L 108.276 99.345736 
L 109.719091 99.855497 
L 111.162182 100.467485 
L 112.605273 101.200408 
L 114.048364 102.073031 
L 115.491455 103.10279 
L 116.934545 104.303842 
L 118.377636 105.684626 
L 119.820727 107.245205 
L 121.263818 108.974828 
L 122.706909 110.850378 
L 124.15 112.836352 
L 125.593091 114.886817 
L 127.036182 116.949315 
L 128.479273 118.970092 
L 129.922364 120.899599 
L 131.365455 122.697116 
L 132.808545 124.333623 
L 134.251636 125.792656 
L 135.694727 127.069358 
L 137.137818 128.168359 
L 138.580909 129.101127 
L 140.024 129.883363 
L 141.467091 130.532786 
L 142.910182 131.067452 
L 144.353273 131.504613 
L 145.796364 131.86004 
L 147.239455 132.147691 
L 148.682545 132.379627 
L 150.125636 132.566079 
L 151.568727 132.715606 
L 153.011818 132.83529 
L 154.454909 132.930938 
L 155.898 133.007282 
L 157.341091 133.068159 
L 158.784182 133.116664 
L 160.227273 133.155287 
L 161.670364 133.186026 
L 163.113455 133.21048 
L 164.556545 133.229929 
L 165.999636 133.245393 
L 167.442727 133.257686 
L 168.885818 133.267456 
L 170.328909 133.275221 
L 171.772 133.281391 
L 173.215091 133.286294 
L 174.658182 133.290189 
L 176.101273 133.293284 
L 177.544364 133.295742 
L 178.987455 133.297696 
L 180.430545 133.299247 
L 181.873636 133.30048 
L 183.316727 133.301459 
L 184.759818 133.302237 
L 186.202909 133.302855 
L 187.646 133.303345 
L 189.089091 133.303735 
L 190.532182 133.304045 
L 191.975273 133.304291 
L 193.418364 133.304486 
L 194.861455 133.304642 
L 196.304545 133.304765 
" style="fill:none;opacity:0.9;stroke:#001c7f;stroke-linecap:round;stroke-width:1.5;"/>
   </g>
   <g id="line2d_13">
    <path clip-path="url(#p5c8fc02ee0)" d="M 51.995455 97.4259 
L 53.438545 97.425989 
L 54.881636 97.4261 
L 56.324727 97.426241 
L 57.767818 97.426418 
L 59.210909 97.426641 
L 60.654 97.426921 
L 62.097091 97.427275 
L 63.540182 97.427719 
L 64.983273 97.428279 
L 66.426364 97.428984 
L 67.869455 97.429871 
L 69.312545 97.430987 
L 70.755636 97.432393 
L 72.198727 97.434162 
L 73.641818 97.43639 
L 75.084909 97.439193 
L 76.528 97.442722 
L 77.971091 97.447164 
L 79.414182 97.452754 
L 80.857273 97.45979 
L 82.300364 97.468642 
L 83.743455 97.479781 
L 85.186545 97.493795 
L 86.629636 97.511421 
L 88.072727 97.533586 
L 89.515818 97.561451 
L 90.958909 97.59647 
L 92.402 97.640459 
L 93.845091 97.695683 
L 95.288182 97.764964 
L 96.731273 97.851801 
L 98.174364 97.960521 
L 99.617455 98.096447 
L 101.060545 98.266088 
L 102.503636 98.477343 
L 103.946727 98.739703 
L 105.389818 99.064426 
L 106.832909 99.464654 
L 108.276 99.955401 
L 109.719091 100.55334 
L 111.162182 101.276285 
L 112.605273 102.142265 
L 114.048364 103.168076 
L 115.491455 104.367289 
L 116.934545 105.747778 
L 118.377636 107.309038 
L 119.820727 109.039751 
L 121.263818 110.916255 
L 122.706909 112.902568 
L 124.15 114.952392 
L 125.593091 117.013063 
L 127.036182 119.030799 
L 128.479273 120.95619 
L 129.922364 122.748769 
L 131.365455 124.379839 
L 132.808545 125.833255 
L 134.251636 127.104443 
L 135.694727 128.198246 
L 137.137818 129.126273 
L 138.580909 129.904299 
L 140.024 130.550065 
L 141.467091 131.081608 
L 142.910182 131.516142 
L 144.353273 131.869383 
L 145.796364 132.155233 
L 147.239455 132.385696 
L 148.682545 132.57095 
L 150.125636 132.719507 
L 151.568727 132.838409 
L 153.011818 132.933428 
L 154.454909 133.009269 
L 155.898 133.069742 
L 157.341091 133.117925 
L 158.784182 133.156291 
L 160.227273 133.186824 
L 161.670364 133.211116 
L 163.113455 133.230434 
L 164.556545 133.245794 
L 165.999636 133.258005 
L 167.442727 133.26771 
L 168.885818 133.275423 
L 170.328909 133.281551 
L 171.772 133.286421 
L 173.215091 133.29029 
L 174.658182 133.293364 
L 176.101273 133.295806 
L 177.544364 133.297746 
L 178.987455 133.299288 
L 180.430545 133.300512 
L 181.873636 133.301484 
L 183.316727 133.302257 
L 184.759818 133.302871 
L 186.202909 133.303358 
L 187.646 133.303745 
L 189.089091 133.304053 
L 190.532182 133.304297 
L 191.975273 133.304492 
L 193.418364 133.304646 
L 194.861455 133.304768 
L 196.304545 133.304865 
" style="fill:none;opacity:0.7;stroke:#000000;stroke-linecap:round;stroke-width:1.5;"/>
   </g>
   <g id="line2d_14">
    <path clip-path="url(#p5c8fc02ee0)" d="M 51.995455 32.281818 
L 53.438545 32.621209 
L 54.881636 33.024625 
L 56.324727 33.513719 
L 57.767818 34.109266 
L 59.210909 34.83101 
L 60.654 35.697745 
L 62.097091 36.726401 
L 63.540182 37.929896 
L 64.983273 39.314413 
L 66.426364 40.876721 
L 67.869455 42.601903 
L 69.312545 44.462013 
L 70.755636 46.416247 
L 72.198727 48.413208 
L 73.641818 50.395602 
L 75.084909 52.30693 
L 76.528 54.098521 
L 77.971091 55.734505 
L 79.414182 57.193277 
L 80.857273 58.466194 
L 82.300364 59.555222 
L 83.743455 60.470417 
L 85.186545 61.227381 
L 86.629636 61.844861 
L 88.072727 62.342491 
L 89.515818 62.7387 
L 90.958909 63.049204 
L 92.402 63.286615 
L 93.845091 63.461093 
L 95.288182 63.581526 
L 96.731273 63.65685 
L 98.174364 63.697119 
L 99.617455 63.713628 
L 101.060545 63.718235 
L 102.503636 63.723276 
L 103.946727 63.742795 
L 105.389818 63.794127 
L 106.832909 63.898424 
L 108.276 64.079543 
L 109.719091 64.362071 
L 111.162182 64.770137 
L 112.605273 65.327549 
L 114.048364 66.057627 
L 115.491455 66.981213 
L 116.934545 68.113833 
L 118.377636 69.464061 
L 119.820727 71.032961 
L 121.263818 72.812433 
L 122.706909 74.781794 
L 124.15 76.905169 
L 125.593091 79.132863 
L 127.036182 81.407308 
L 128.479273 83.671294 
L 129.922364 85.875275 
L 131.365455 87.981753 
L 132.808545 89.966282 
L 134.251636 91.815779 
L 135.694727 93.525932 
L 137.137818 95.099674 
L 138.580909 96.546455 
L 140.024 97.880318 
L 141.467091 99.116338 
L 142.910182 100.267543 
L 144.353273 101.344451 
L 145.796364 102.356684 
L 147.239455 103.314556 
L 148.682545 104.229564 
L 150.125636 105.1136 
L 151.568727 105.977061 
L 153.011818 106.827154 
L 154.454909 107.667795 
L 155.898 108.50073 
L 157.341091 109.326462 
L 158.784182 110.144344 
L 160.227273 110.952659 
L 161.670364 111.749512 
L 163.113455 112.533855 
L 164.556545 113.305491 
L 165.999636 114.064307 
L 167.442727 114.809913 
L 168.885818 115.541782 
L 170.328909 116.259222 
L 171.772 116.961208 
L 173.215091 117.646622 
L 174.658182 118.314882 
L 176.101273 118.966319 
L 177.544364 119.601905 
L 178.987455 120.22259 
L 180.430545 120.828784 
L 181.873636 121.420233 
L 183.316727 121.996171 
L 184.759818 122.55553 
L 186.202909 123.097132 
L 187.646 123.619913 
L 189.089091 124.123156 
L 190.532182 124.606584 
L 191.975273 125.070263 
L 193.418364 125.514456 
L 194.861455 125.939555 
L 196.304545 126.346075 
" style="fill:none;opacity:0.45;stroke:#001c7f;stroke-dasharray:2.775,1.2;stroke-dashoffset:0;stroke-width:0.75;"/>
   </g>
   <g id="line2d_15">
    <path clip-path="url(#p5c8fc02ee0)" d="M 51.995455 93.283113 
L 53.438545 93.751672 
L 54.881636 94.302394 
L 56.324727 94.949061 
L 57.767818 95.708502 
L 59.210909 96.599507 
L 60.654 97.640538 
L 62.097091 98.847336 
L 63.540182 100.230671 
L 64.983273 101.793897 
L 66.426364 103.530413 
L 67.869455 105.421781 
L 69.312545 107.437363 
L 70.755636 109.536026 
L 72.198727 111.669828 
L 73.641818 113.788682 
L 75.084909 115.844709 
L 76.528 117.795608 
L 77.971091 119.60735 
L 79.414182 121.256462 
L 80.857273 122.731143 
L 82.300364 124.030413 
L 83.743455 125.161732 
L 85.186545 126.138211 
L 86.629636 126.976188 
L 88.072727 127.693628 
L 89.515818 128.309482 
L 90.958909 128.843495 
L 92.402 129.315727 
L 93.845091 129.745654 
L 95.288182 130.15116 
L 96.731273 130.547665 
L 98.174364 130.947667 
L 99.617455 131.361316 
L 101.060545 131.797835 
L 102.503636 132.266363 
L 103.946727 132.775465 
L 105.389818 133.332248 
L 106.832909 133.942438 
L 108.276 134.61193 
L 109.719091 135.348922 
L 111.162182 136.164833 
L 112.605273 137.073267 
L 114.048364 138.088435 
L 115.491455 139.224368 
L 116.934545 140.493851 
L 118.377636 141.905192 
L 119.820727 143.457449 
L 121.263818 145.137223 
L 122.706909 146.918962 
L 124.15 148.767534 
L 125.593091 150.640772 
L 127.036182 152.491323 
L 128.479273 154.268889 
L 129.922364 155.923923 
L 131.365455 157.412478 
L 132.808545 158.700965 
L 134.251636 159.769532 
L 135.694727 160.612783 
L 137.137818 161.237044 
L 138.580909 161.6558 
L 140.024 161.886409 
L 141.467091 161.949235 
L 142.910182 161.86736 
L 144.353273 161.664774 
L 145.796364 161.363395 
L 147.239455 160.980826 
L 148.682545 160.52969 
L 150.125636 160.018558 
L 151.568727 159.454152 
L 153.011818 158.843425 
L 154.454909 158.194081 
L 155.898 157.513834 
L 157.341091 156.809856 
L 158.784182 156.088984 
L 160.227273 155.357914 
L 161.670364 154.62254 
L 163.113455 153.887105 
L 164.556545 153.154367 
L 165.999636 152.426478 
L 167.442727 151.705458 
L 168.885818 150.99313 
L 170.328909 150.29122 
L 171.772 149.601574 
L 173.215091 148.925965 
L 174.658182 148.265497 
L 176.101273 147.620249 
L 177.544364 146.98958 
L 178.987455 146.372801 
L 180.430545 145.769711 
L 181.873636 145.180727 
L 183.316727 144.606747 
L 184.759818 144.048944 
L 186.202909 143.508577 
L 187.646 142.986778 
L 189.089091 142.484314 
L 190.532182 142.001506 
L 191.975273 141.53832 
L 193.418364 141.094517 
L 194.861455 140.669728 
L 196.304545 140.263455 
" style="fill:none;opacity:0.45;stroke:#001c7f;stroke-dasharray:2.775,1.2;stroke-dashoffset:0;stroke-width:0.75;"/>
   </g>
   <g id="line2d_16">
    <path clip-path="url(#p5c8fc02ee0)" d="M 51.995455 97.084321 
L 53.438545 97.155077 
L 54.881636 97.21115 
L 56.324727 97.255627 
L 57.767818 97.290942 
L 59.210909 97.319017 
L 60.654 97.341372 
L 62.097091 97.359216 
L 63.540182 97.373508 
L 64.983273 97.385017 
L 66.426364 97.39436 
L 67.869455 97.402037 
L 69.312545 97.408458 
L 70.755636 97.413967 
L 72.198727 97.418858 
L 73.641818 97.42339 
L 75.084909 97.427807 
L 76.528 97.432342 
L 77.971091 97.437238 
L 79.414182 97.442754 
L 80.857273 97.449184 
L 82.300364 97.456869 
L 83.743455 97.466216 
L 85.186545 97.47772 
L 86.629636 97.491988 
L 88.072727 97.509774 
L 89.515818 97.532011 
L 90.958909 97.559866 
L 92.402 97.59479 
L 93.845091 97.638597 
L 95.288182 97.693543 
L 96.731273 97.762436 
L 98.174364 97.848757 
L 99.617455 97.95681 
L 101.060545 98.091888 
L 102.503636 98.260464 
L 103.946727 98.470396 
L 105.389818 98.731126 
L 106.832909 99.053859 
L 108.276 99.451683 
L 109.719091 99.939559 
L 111.162182 100.534116 
L 112.605273 101.253148 
L 114.048364 102.114695 
L 115.491455 103.135616 
L 116.934545 104.329608 
L 118.377636 105.704751 
L 119.820727 107.260823 
L 121.263818 108.98685 
L 122.706909 110.85954 
L 124.15 112.843254 
L 125.593091 114.891948 
L 127.036182 116.953075 
L 128.479273 118.972804 
L 129.922364 120.901527 
L 131.365455 122.698464 
L 132.808545 124.334554 
L 134.251636 125.793289 
L 135.694727 127.069784 
L 137.137818 128.168642 
L 138.580909 129.101314 
L 140.024 129.883485 
L 141.467091 130.532866 
L 142.910182 131.067503 
L 144.353273 131.504646 
L 145.796364 131.860061 
L 147.239455 132.147704 
L 148.682545 132.379635 
L 150.125636 132.566085 
L 151.568727 132.71561 
L 153.011818 132.835292 
L 154.454909 132.930939 
L 155.898 133.007283 
L 157.341091 133.06816 
L 158.784182 133.116664 
L 160.227273 133.155287 
L 161.670364 133.186026 
L 163.113455 133.21048 
L 164.556545 133.229929 
L 165.999636 133.245393 
L 167.442727 133.257686 
L 168.885818 133.267456 
L 170.328909 133.275221 
L 171.772 133.281391 
L 173.215091 133.286294 
L 174.658182 133.290189 
L 176.101273 133.293284 
L 177.544364 133.295742 
L 178.987455 133.297696 
L 180.430545 133.299247 
L 181.873636 133.30048 
L 183.316727 133.301459 
L 184.759818 133.302237 
L 186.202909 133.302855 
L 187.646 133.303345 
L 189.089091 133.303735 
L 190.532182 133.304045 
L 191.975273 133.304291 
L 193.418364 133.304486 
L 194.861455 133.304642 
L 196.304545 133.304765 
" style="fill:none;opacity:0.9;stroke:#b1400d;stroke-linecap:round;stroke-width:1.5;"/>
   </g>
   <g id="line2d_17">
    <path clip-path="url(#p5c8fc02ee0)" d="M 51.995455 97.4259 
L 53.438545 97.425989 
L 54.881636 97.4261 
L 56.324727 97.426241 
L 57.767818 97.426418 
L 59.210909 97.426641 
L 60.654 97.426921 
L 62.097091 97.427275 
L 63.540182 97.427719 
L 64.983273 97.428279 
L 66.426364 97.428984 
L 67.869455 97.429871 
L 69.312545 97.430987 
L 70.755636 97.432393 
L 72.198727 97.434162 
L 73.641818 97.43639 
L 75.084909 97.439193 
L 76.528 97.442722 
L 77.971091 97.447164 
L 79.414182 97.452754 
L 80.857273 97.45979 
L 82.300364 97.468642 
L 83.743455 97.479781 
L 85.186545 97.493795 
L 86.629636 97.511421 
L 88.072727 97.533586 
L 89.515818 97.561451 
L 90.958909 97.59647 
L 92.402 97.640459 
L 93.845091 97.695683 
L 95.288182 97.764964 
L 96.731273 97.851801 
L 98.174364 97.960521 
L 99.617455 98.096447 
L 101.060545 98.266088 
L 102.503636 98.477343 
L 103.946727 98.739703 
L 105.389818 99.064426 
L 106.832909 99.464654 
L 108.276 99.955401 
L 109.719091 100.55334 
L 111.162182 101.276285 
L 112.605273 102.142265 
L 114.048364 103.168076 
L 115.491455 104.367289 
L 116.934545 105.747778 
L 118.377636 107.309038 
L 119.820727 109.039751 
L 121.263818 110.916255 
L 122.706909 112.902568 
L 124.15 114.952392 
L 125.593091 117.013063 
L 127.036182 119.030799 
L 128.479273 120.95619 
L 129.922364 122.748769 
L 131.365455 124.379839 
L 132.808545 125.833255 
L 134.251636 127.104443 
L 135.694727 128.198246 
L 137.137818 129.126273 
L 138.580909 129.904299 
L 140.024 130.550065 
L 141.467091 131.081608 
L 142.910182 131.516142 
L 144.353273 131.869383 
L 145.796364 132.155233 
L 147.239455 132.385696 
L 148.682545 132.57095 
L 150.125636 132.719507 
L 151.568727 132.838409 
L 153.011818 132.933428 
L 154.454909 133.009269 
L 155.898 133.069742 
L 157.341091 133.117925 
L 158.784182 133.156291 
L 160.227273 133.186824 
L 161.670364 133.211116 
L 163.113455 133.230434 
L 164.556545 133.245794 
L 165.999636 133.258005 
L 167.442727 133.26771 
L 168.885818 133.275423 
L 170.328909 133.281551 
L 171.772 133.286421 
L 173.215091 133.29029 
L 174.658182 133.293364 
L 176.101273 133.295806 
L 177.544364 133.297746 
L 178.987455 133.299288 
L 180.430545 133.300512 
L 181.873636 133.301484 
L 183.316727 133.302257 
L 184.759818 133.302871 
L 186.202909 133.303358 
L 187.646 133.303745 
L 189.089091 133.304053 
L 190.532182 133.304297 
L 191.975273 133.304492 
L 193.418364 133.304646 
L 194.861455 133.304768 
L 196.304545 133.304865 
" style="fill:none;opacity:0.7;stroke:#000000;stroke-linecap:round;stroke-width:1.5;"/>
   </g>
   <g id="line2d_18">
    <path clip-path="url(#p5c8fc02ee0)" d="M 51.995455 52.05627 
L 53.438545 52.818386 
L 54.881636 53.557276 
L 56.324727 54.272472 
L 57.767818 54.96305 
L 59.210909 55.627985 
L 60.654 56.266483 
L 62.097091 56.878235 
L 63.540182 57.463515 
L 64.983273 58.023131 
L 66.426364 58.558289 
L 67.869455 59.070498 
L 69.312545 59.56156 
L 70.755636 60.033644 
L 72.198727 60.489312 
L 73.641818 60.931449 
L 75.084909 61.363112 
L 76.528 61.787412 
L 77.971091 62.207492 
L 79.414182 62.626552 
L 80.857273 63.047883 
L 82.300364 63.47483 
L 83.743455 63.910717 
L 85.186545 64.358784 
L 86.629636 64.822237 
L 88.072727 65.304431 
L 89.515818 65.809084 
L 90.958909 66.340408 
L 92.402 66.903107 
L 93.845091 67.502364 
L 95.288182 68.143856 
L 96.731273 68.833835 
L 98.174364 69.579199 
L 99.617455 70.387556 
L 101.060545 71.267267 
L 102.503636 72.227476 
L 103.946727 73.278119 
L 105.389818 74.429884 
L 106.832909 75.694082 
L 108.276 77.082332 
L 109.719091 78.60596 
L 111.162182 80.274998 
L 112.605273 82.096635 
L 114.048364 84.073013 
L 115.491455 86.198292 
L 116.934545 88.455108 
L 118.377636 90.810989 
L 119.820727 93.215933 
L 121.263818 95.603202 
L 122.706909 97.895492 
L 124.15 100.016828 
L 125.593091 101.906365 
L 127.036182 103.527283 
L 128.479273 104.866742 
L 129.922364 105.929467 
L 131.365455 106.730573 
L 132.808545 107.290863 
L 134.251636 107.634534 
L 135.694727 107.78799 
L 137.137818 107.778834 
L 138.580909 107.634758 
L 140.024 107.382422 
L 141.467091 107.046515 
L 142.910182 106.649103 
L 144.353273 106.209307 
L 145.796364 105.743261 
L 147.239455 105.264276 
L 148.682545 104.783108 
L 150.125636 104.308264 
L 151.568727 103.846274 
L 153.011818 103.401924 
L 154.454909 102.978449 
L 155.898 102.577728 
L 157.341091 102.200493 
L 158.784182 101.846573 
L 160.227273 101.51516 
L 161.670364 101.205086 
L 163.113455 100.915057 
L 164.556545 100.643839 
L 165.999636 100.390363 
L 167.442727 100.153753 
L 168.885818 99.933291 
L 170.328909 99.728353 
L 171.772 99.538332 
L 173.215091 99.362587 
L 174.658182 99.200407 
L 176.101273 99.051018 
L 177.544364 98.913599 
L 178.987455 98.787317 
L 180.430545 98.671355 
L 181.873636 98.564937 
L 183.316727 98.467326 
L 184.759818 98.377831 
L 186.202909 98.29579 
L 187.646 98.220576 
L 189.089091 98.151592 
L 190.532182 98.088281 
L 191.975273 98.030141 
L 193.418364 97.976728 
L 194.861455 97.92766 
L 196.304545 97.882611 
" style="fill:none;opacity:0.45;stroke:#b1400d;stroke-dasharray:2.775,1.2;stroke-dashoffset:0;stroke-width:0.75;"/>
   </g>
   <g id="line2d_19">
    <path clip-path="url(#p5c8fc02ee0)" d="M 51.995455 142.112373 
L 53.438545 141.491769 
L 54.881636 140.865024 
L 56.324727 140.238783 
L 57.767818 139.618835 
L 59.210909 139.010049 
L 60.654 138.416261 
L 62.097091 137.840196 
L 63.540182 137.283501 
L 64.983273 136.746904 
L 66.426364 136.230431 
L 67.869455 135.733576 
L 69.312545 135.255357 
L 70.755636 134.794291 
L 72.198727 134.348403 
L 73.641818 133.915331 
L 75.084909 133.492502 
L 76.528 133.077272 
L 77.971091 132.666984 
L 79.414182 132.258956 
L 80.857273 131.850486 
L 82.300364 131.438908 
L 83.743455 131.021715 
L 85.186545 130.596656 
L 86.629636 130.16174 
L 88.072727 129.715117 
L 89.515818 129.254939 
L 90.958909 128.779324 
L 92.402 128.286473 
L 93.845091 127.77483 
L 95.288182 127.24323 
L 96.731273 126.691037 
L 98.174364 126.118316 
L 99.617455 125.526065 
L 101.060545 124.916509 
L 102.503636 124.293452 
L 103.946727 123.662674 
L 105.389818 123.032368 
L 106.832909 122.413637 
L 108.276 121.821035 
L 109.719091 121.273158 
L 111.162182 120.793234 
L 112.605273 120.409662 
L 114.048364 120.156377 
L 115.491455 120.072939 
L 116.934545 120.204107 
L 118.377636 120.598513 
L 119.820727 121.305712 
L 121.263818 122.370498 
L 122.706909 123.823588 
L 124.15 125.669679 
L 125.593091 127.877531 
L 127.036182 130.378866 
L 128.479273 133.078866 
L 129.922364 135.873586 
L 131.365455 138.666356 
L 132.808545 141.378244 
L 134.251636 143.952044 
L 135.694727 146.351577 
L 137.137818 148.55845 
L 138.580909 150.56787 
L 140.024 152.384549 
L 141.467091 154.019216 
L 142.910182 155.485903 
L 144.353273 156.799984 
L 145.796364 157.97686 
L 147.239455 159.031133 
L 148.682545 159.976163 
L 150.125636 160.823905 
L 151.568727 161.584946 
L 153.011818 162.26866 
L 154.454909 162.883429 
L 155.898 163.436838 
L 157.341091 163.935826 
L 158.784182 164.386756 
L 160.227273 164.795414 
L 161.670364 165.166966 
L 163.113455 165.505904 
L 164.556545 165.81602 
L 165.999636 166.100422 
L 167.442727 166.361618 
L 168.885818 166.601621 
L 170.328909 166.822089 
L 171.772 167.02445 
L 173.215091 167.210001 
L 174.658182 167.379971 
L 176.101273 167.535549 
L 177.544364 167.677886 
L 178.987455 167.808075 
L 180.430545 167.927139 
L 181.873636 168.036023 
L 183.316727 168.135592 
L 184.759818 168.226643 
L 186.202909 168.309919 
L 187.646 168.386115 
L 189.089091 168.455879 
L 190.532182 168.519809 
L 191.975273 168.578441 
L 193.418364 168.632245 
L 194.861455 168.681623 
L 196.304545 168.726919 
" style="fill:none;opacity:0.45;stroke:#b1400d;stroke-dasharray:2.775,1.2;stroke-dashoffset:0;stroke-width:0.75;"/>
   </g>
   <g id="line2d_20">
    <path clip-path="url(#p5c8fc02ee0)" d="M 51.995455 97.42583 
L 53.438545 97.4259 
L 54.881636 97.425989 
L 56.324727 97.4261 
L 57.767818 97.426241 
L 59.210909 97.426418 
L 60.654 97.426641 
L 62.097091 97.426921 
L 63.540182 97.427275 
L 64.983273 97.427719 
L 66.426364 97.428279 
L 67.869455 97.428984 
L 69.312545 97.429871 
L 70.755636 97.430987 
L 72.198727 97.432393 
L 73.641818 97.434162 
L 75.084909 97.43639 
L 76.528 97.439193 
L 77.971091 97.442722 
L 79.414182 97.447164 
L 80.857273 97.452754 
L 82.300364 97.45979 
L 83.743455 97.468642 
L 85.186545 97.479781 
L 86.629636 97.493795 
L 88.072727 97.511421 
L 89.515818 97.533586 
L 90.958909 97.561451 
L 92.402 97.59647 
L 93.845091 97.640459 
L 95.288182 97.695683 
L 96.731273 97.764964 
L 98.174364 97.851801 
L 99.617455 97.960521 
L 101.060545 98.096447 
L 102.503636 98.266088 
L 103.946727 98.477343 
L 105.389818 98.739703 
L 106.832909 99.064426 
L 108.276 99.464654 
L 109.719091 99.955401 
L 111.162182 100.55334 
L 112.605273 101.276285 
L 114.048364 102.142265 
L 115.491455 103.168076 
L 116.934545 104.367289 
L 118.377636 105.747778 
L 119.820727 107.309038 
L 121.263818 109.039751 
L 122.706909 110.916255 
L 124.15 112.902568 
L 125.593091 114.952392 
L 127.036182 117.013063 
L 128.479273 119.030799 
L 129.922364 120.95619 
L 131.365455 122.748769 
L 132.808545 124.379839 
L 134.251636 125.833255 
L 135.694727 127.104443 
L 137.137818 128.198246 
L 138.580909 129.126273 
L 140.024 129.904299 
L 141.467091 130.550065 
L 142.910182 131.081608 
L 144.353273 131.516142 
L 145.796364 131.869383 
L 147.239455 132.155233 
L 148.682545 132.385696 
L 150.125636 132.57095 
L 151.568727 132.719507 
L 153.011818 132.838409 
L 154.454909 132.933428 
L 155.898 133.009269 
L 157.341091 133.069742 
L 158.784182 133.117925 
L 160.227273 133.156291 
L 161.670364 133.186824 
L 163.113455 133.211116 
L 164.556545 133.230434 
L 165.999636 133.245794 
L 167.442727 133.258005 
L 168.885818 133.26771 
L 170.328909 133.275423 
L 171.772 133.281551 
L 173.215091 133.286421 
L 174.658182 133.29029 
L 176.101273 133.293364 
L 177.544364 133.295806 
L 178.987455 133.297746 
L 180.430545 133.299288 
L 181.873636 133.300512 
L 183.316727 133.301484 
L 184.759818 133.302257 
L 186.202909 133.302871 
L 187.646 133.303358 
L 189.089091 133.303745 
L 190.532182 133.304053 
L 191.975273 133.304297 
L 193.418364 133.304492 
L 194.861455 133.304646 
L 196.304545 133.304768 
" style="fill:none;opacity:0.9;stroke:#12711c;stroke-linecap:round;stroke-width:1.5;"/>
   </g>
   <g id="line2d_21">
    <path clip-path="url(#p5c8fc02ee0)" d="M 51.995455 97.4259 
L 53.438545 97.425989 
L 54.881636 97.4261 
L 56.324727 97.426241 
L 57.767818 97.426418 
L 59.210909 97.426641 
L 60.654 97.426921 
L 62.097091 97.427275 
L 63.540182 97.427719 
L 64.983273 97.428279 
L 66.426364 97.428984 
L 67.869455 97.429871 
L 69.312545 97.430987 
L 70.755636 97.432393 
L 72.198727 97.434162 
L 73.641818 97.43639 
L 75.084909 97.439193 
L 76.528 97.442722 
L 77.971091 97.447164 
L 79.414182 97.452754 
L 80.857273 97.45979 
L 82.300364 97.468642 
L 83.743455 97.479781 
L 85.186545 97.493795 
L 86.629636 97.511421 
L 88.072727 97.533586 
L 89.515818 97.561451 
L 90.958909 97.59647 
L 92.402 97.640459 
L 93.845091 97.695683 
L 95.288182 97.764964 
L 96.731273 97.851801 
L 98.174364 97.960521 
L 99.617455 98.096447 
L 101.060545 98.266088 
L 102.503636 98.477343 
L 103.946727 98.739703 
L 105.389818 99.064426 
L 106.832909 99.464654 
L 108.276 99.955401 
L 109.719091 100.55334 
L 111.162182 101.276285 
L 112.605273 102.142265 
L 114.048364 103.168076 
L 115.491455 104.367289 
L 116.934545 105.747778 
L 118.377636 107.309038 
L 119.820727 109.039751 
L 121.263818 110.916255 
L 122.706909 112.902568 
L 124.15 114.952392 
L 125.593091 117.013063 
L 127.036182 119.030799 
L 128.479273 120.95619 
L 129.922364 122.748769 
L 131.365455 124.379839 
L 132.808545 125.833255 
L 134.251636 127.104443 
L 135.694727 128.198246 
L 137.137818 129.126273 
L 138.580909 129.904299 
L 140.024 130.550065 
L 141.467091 131.081608 
L 142.910182 131.516142 
L 144.353273 131.869383 
L 145.796364 132.155233 
L 147.239455 132.385696 
L 148.682545 132.57095 
L 150.125636 132.719507 
L 151.568727 132.838409 
L 153.011818 132.933428 
L 154.454909 133.009269 
L 155.898 133.069742 
L 157.341091 133.117925 
L 158.784182 133.156291 
L 160.227273 133.186824 
L 161.670364 133.211116 
L 163.113455 133.230434 
L 164.556545 133.245794 
L 165.999636 133.258005 
L 167.442727 133.26771 
L 168.885818 133.275423 
L 170.328909 133.281551 
L 171.772 133.286421 
L 173.215091 133.29029 
L 174.658182 133.293364 
L 176.101273 133.295806 
L 177.544364 133.297746 
L 178.987455 133.299288 
L 180.430545 133.300512 
L 181.873636 133.301484 
L 183.316727 133.302257 
L 184.759818 133.302871 
L 186.202909 133.303358 
L 187.646 133.303745 
L 189.089091 133.304053 
L 190.532182 133.304297 
L 191.975273 133.304492 
L 193.418364 133.304646 
L 194.861455 133.304768 
L 196.304545 133.304865 
" style="fill:none;opacity:0.7;stroke:#000000;stroke-linecap:round;stroke-width:1.5;"/>
   </g>
   <g id="line2d_22">
    <path clip-path="url(#p5c8fc02ee0)" d="M 51.995455 62.124792 
L 53.438545 62.18431 
L 54.881636 62.249619 
L 56.324727 62.320986 
L 57.767818 62.398649 
L 59.210909 62.482841 
L 60.654 62.573807 
L 62.097091 62.671826 
L 63.540182 62.777219 
L 64.983273 62.890359 
L 66.426364 63.011685 
L 67.869455 63.141721 
L 69.312545 63.281098 
L 70.755636 63.430579 
L 72.198727 63.591069 
L 73.641818 63.763625 
L 75.084909 63.949452 
L 76.528 64.149886 
L 77.971091 64.366385 
L 79.414182 64.600505 
L 80.857273 64.853889 
L 82.300364 65.128271 
L 83.743455 65.425495 
L 85.186545 65.747565 
L 86.629636 66.096718 
L 88.072727 66.475506 
L 89.515818 66.88688 
L 90.958909 67.334253 
L 92.402 67.82156 
L 93.845091 68.353297 
L 95.288182 68.934556 
L 96.731273 69.571068 
L 98.174364 70.269246 
L 99.617455 71.036228 
L 101.060545 71.879916 
L 102.503636 72.809009 
L 103.946727 73.833001 
L 105.389818 74.962144 
L 106.832909 76.207314 
L 108.276 77.579724 
L 109.719091 79.090375 
L 111.162182 80.74913 
L 112.605273 82.563224 
L 114.048364 84.535093 
L 115.491455 86.659416 
L 116.934545 88.919483 
L 118.377636 91.283438 
L 119.820727 93.701575 
L 121.263818 96.106751 
L 122.706909 98.420238 
L 124.15 100.563661 
L 125.593091 102.473423 
L 127.036182 104.110473 
L 128.479273 105.460744 
L 129.922364 106.528658 
L 131.365455 107.329609 
L 132.808545 107.88502 
L 134.251636 108.219939 
L 135.694727 108.361799 
L 137.137818 108.339349 
L 138.580909 108.181462 
L 140.024 107.915925 
L 141.467091 107.568401 
L 142.910182 107.161701 
L 144.353273 106.715376 
L 145.796364 106.245619 
L 147.239455 105.765398 
L 148.682545 105.284749 
L 150.125636 104.81117 
L 151.568727 104.350043 
L 153.011818 103.905066 
L 154.454909 103.478644 
L 155.898 103.072227 
L 157.341091 102.686592 
L 158.784182 102.322047 
L 160.227273 101.978574 
L 161.670364 101.655908 
L 163.113455 101.353577 
L 164.556545 101.070916 
L 165.999636 100.807086 
L 167.442727 100.561102 
L 168.885818 100.331885 
L 170.328909 100.118334 
L 171.772 99.919391 
L 173.215091 99.7341 
L 174.658182 99.56163 
L 176.101273 99.401269 
L 177.544364 99.252395 
L 178.987455 99.114429 
L 180.430545 98.98679 
L 181.873636 98.868873 
L 183.316727 98.760037 
L 184.759818 98.65961 
L 186.202909 98.5669 
L 187.646 98.481206 
L 189.089091 98.401825 
L 190.532182 98.328069 
L 191.975273 98.25929 
L 193.418364 98.194911 
L 194.861455 98.134463 
L 196.304545 98.077607 
" style="fill:none;opacity:0.45;stroke:#12711c;stroke-dasharray:2.775,1.2;stroke-dashoffset:0;stroke-width:0.75;"/>
   </g>
   <g id="line2d_23">
    <path clip-path="url(#p5c8fc02ee0)" d="M 51.995455 132.726867 
L 53.438545 132.66749 
L 54.881636 132.602358 
L 56.324727 132.531215 
L 57.767818 132.453833 
L 59.210909 132.369995 
L 60.654 132.279474 
L 62.097091 132.182016 
L 63.540182 132.07733 
L 64.983273 131.96508 
L 66.426364 131.844873 
L 67.869455 131.716246 
L 69.312545 131.578643 
L 70.755636 131.431396 
L 72.198727 131.273717 
L 73.641818 131.104699 
L 75.084909 130.923327 
L 76.528 130.7285 
L 77.971091 130.519059 
L 79.414182 130.293823 
L 80.857273 130.051619 
L 82.300364 129.791308 
L 83.743455 129.51179 
L 85.186545 129.211998 
L 86.629636 128.890872 
L 88.072727 128.547335 
L 89.515818 128.180292 
L 90.958909 127.78865 
L 92.402 127.37138 
L 93.845091 126.927621 
L 95.288182 126.456811 
L 96.731273 125.958861 
L 98.174364 125.434357 
L 99.617455 124.884815 
L 101.060545 124.312978 
L 102.503636 123.723167 
L 103.946727 123.121685 
L 105.389818 122.517261 
L 106.832909 121.921537 
L 108.276 121.349585 
L 109.719091 120.820428 
L 111.162182 120.35755 
L 112.605273 119.989346 
L 114.048364 119.749436 
L 115.491455 119.676736 
L 116.934545 119.815094 
L 118.377636 120.212118 
L 119.820727 120.916501 
L 121.263818 121.972751 
L 122.706909 123.412273 
L 124.15 125.241475 
L 125.593091 127.431361 
L 127.036182 129.915654 
L 128.479273 132.600854 
L 129.922364 135.383722 
L 131.365455 138.16793 
L 132.808545 140.874659 
L 134.251636 143.446571 
L 135.694727 145.847087 
L 137.137818 148.057143 
L 138.580909 150.071084 
L 140.024 151.892674 
L 141.467091 153.531728 
L 142.910182 155.001515 
L 144.353273 156.316908 
L 145.796364 157.493148 
L 147.239455 158.545069 
L 148.682545 159.486642 
L 150.125636 160.33073 
L 151.568727 161.088972 
L 153.011818 161.771752 
L 154.454909 162.388212 
L 155.898 162.94631 
L 157.341091 163.452893 
L 158.784182 163.913803 
L 160.227273 164.334008 
L 161.670364 164.717741 
L 163.113455 165.068654 
L 164.556545 165.389952 
L 165.999636 165.684503 
L 167.442727 165.954908 
L 168.885818 166.203535 
L 170.328909 166.432511 
L 171.772 166.643711 
L 173.215091 166.838742 
L 174.658182 167.018951 
L 176.101273 167.18546 
L 177.544364 167.339217 
L 178.987455 167.481064 
L 180.430545 167.611786 
L 181.873636 167.732151 
L 183.316727 167.842932 
L 184.759818 167.944905 
L 186.202909 168.038842 
L 187.646 168.125511 
L 189.089091 168.205666 
L 190.532182 168.280037 
L 191.975273 168.349305 
L 193.418364 168.414073 
L 194.861455 168.474829 
L 196.304545 168.53193 
" style="fill:none;opacity:0.45;stroke:#12711c;stroke-dasharray:2.775,1.2;stroke-dashoffset:0;stroke-width:0.75;"/>
   </g>
   <g id="line2d_24">
    <path clip-path="url(#p5c8fc02ee0)" d="M 51.995455 74.911698 
L 53.438545 76.892283 
L 54.881636 78.939635 
L 56.324727 81.001356 
L 57.767818 83.023573 
L 59.210909 84.956446 
L 60.654 86.758833 
L 62.097091 88.401241 
L 63.540182 89.866741 
L 64.983273 91.150085 
L 66.426364 92.255609 
L 67.869455 93.194592 
L 69.312545 93.982651 
L 70.755636 94.637498 
L 72.198727 95.177251 
L 73.641818 95.619273 
L 75.084909 95.97948 
L 76.528 96.27201 
L 77.971091 96.509133 
L 79.414182 96.701321 
L 80.857273 96.857417 
L 82.300364 96.984837 
L 83.743455 97.089789 
L 85.186545 97.177492 
L 86.629636 97.252379 
L 88.072727 97.318282 
L 89.515818 97.378604 
L 90.958909 97.43648 
L 92.402 97.494925 
L 93.845091 97.556983 
L 95.288182 97.625872 
L 96.731273 97.705138 
L 98.174364 97.79882 
L 99.617455 97.911626 
L 101.060545 98.049126 
L 102.503636 98.21796 
L 103.946727 98.426058 
L 105.389818 98.682859 
L 106.832909 98.999501 
L 108.276 99.38896 
L 109.719091 99.866069 
L 111.162182 100.447351 
L 112.605273 101.150558 
L 114.048364 101.993818 
L 115.491455 102.99428 
L 116.934545 104.166204 
L 118.377636 105.518557 
L 119.820727 107.052336 
L 121.263818 108.758062 
L 122.706909 110.614059 
L 124.15 112.5862 
L 125.593091 114.629593 
L 127.036182 116.692251 
L 128.479273 118.720201 
L 129.922364 120.663018 
L 131.365455 122.478604 
L 132.808545 124.136324 
L 134.251636 125.618099 
L 135.694727 126.917669 
L 137.137818 128.038578 
L 138.580909 128.991556 
L 140.024 129.791886 
L 141.467091 130.457126 
L 142.910182 131.005356 
L 144.353273 131.453971 
L 145.796364 131.818953 
L 147.239455 132.114496 
L 148.682545 132.352899 
L 150.125636 132.544616 
L 151.568727 132.69841 
L 153.011818 132.821535 
L 154.454909 132.919952 
L 155.898 132.998518 
L 157.341091 133.061173 
L 158.784182 133.1111 
L 160.227273 133.150857 
L 161.670364 133.182501 
L 163.113455 133.207677 
L 164.556545 133.2277 
L 165.999636 133.243622 
L 167.442727 133.256278 
L 168.885818 133.266339 
L 170.328909 133.274334 
L 171.772 133.280688 
L 173.215091 133.285737 
L 174.658182 133.289749 
L 176.101273 133.292937 
L 177.544364 133.29547 
L 178.987455 133.297484 
L 180.430545 133.299085 
L 181.873636 133.300358 
L 183.316727 133.301371 
L 184.759818 133.302178 
L 186.202909 133.302822 
L 187.646 133.303338 
L 189.089091 133.303752 
L 190.532182 133.304086 
L 191.975273 133.304359 
L 193.418364 133.304586 
L 194.861455 133.304777 
L 196.304545 133.304944 
" style="fill:none;opacity:0.9;stroke:#8c0800;stroke-linecap:round;stroke-width:1.5;"/>
   </g>
   <g id="line2d_25">
    <path clip-path="url(#p5c8fc02ee0)" d="M 51.995455 97.4259 
L 53.438545 97.425989 
L 54.881636 97.4261 
L 56.324727 97.426241 
L 57.767818 97.426418 
L 59.210909 97.426641 
L 60.654 97.426921 
L 62.097091 97.427275 
L 63.540182 97.427719 
L 64.983273 97.428279 
L 66.426364 97.428984 
L 67.869455 97.429871 
L 69.312545 97.430987 
L 70.755636 97.432393 
L 72.198727 97.434162 
L 73.641818 97.43639 
L 75.084909 97.439193 
L 76.528 97.442722 
L 77.971091 97.447164 
L 79.414182 97.452754 
L 80.857273 97.45979 
L 82.300364 97.468642 
L 83.743455 97.479781 
L 85.186545 97.493795 
L 86.629636 97.511421 
L 88.072727 97.533586 
L 89.515818 97.561451 
L 90.958909 97.59647 
L 92.402 97.640459 
L 93.845091 97.695683 
L 95.288182 97.764964 
L 96.731273 97.851801 
L 98.174364 97.960521 
L 99.617455 98.096447 
L 101.060545 98.266088 
L 102.503636 98.477343 
L 103.946727 98.739703 
L 105.389818 99.064426 
L 106.832909 99.464654 
L 108.276 99.955401 
L 109.719091 100.55334 
L 111.162182 101.276285 
L 112.605273 102.142265 
L 114.048364 103.168076 
L 115.491455 104.367289 
L 116.934545 105.747778 
L 118.377636 107.309038 
L 119.820727 109.039751 
L 121.263818 110.916255 
L 122.706909 112.902568 
L 124.15 114.952392 
L 125.593091 117.013063 
L 127.036182 119.030799 
L 128.479273 120.95619 
L 129.922364 122.748769 
L 131.365455 124.379839 
L 132.808545 125.833255 
L 134.251636 127.104443 
L 135.694727 128.198246 
L 137.137818 129.126273 
L 138.580909 129.904299 
L 140.024 130.550065 
L 141.467091 131.081608 
L 142.910182 131.516142 
L 144.353273 131.869383 
L 145.796364 132.155233 
L 147.239455 132.385696 
L 148.682545 132.57095 
L 150.125636 132.719507 
L 151.568727 132.838409 
L 153.011818 132.933428 
L 154.454909 133.009269 
L 155.898 133.069742 
L 157.341091 133.117925 
L 158.784182 133.156291 
L 160.227273 133.186824 
L 161.670364 133.211116 
L 163.113455 133.230434 
L 164.556545 133.245794 
L 165.999636 133.258005 
L 167.442727 133.26771 
L 168.885818 133.275423 
L 170.328909 133.281551 
L 171.772 133.286421 
L 173.215091 133.29029 
L 174.658182 133.293364 
L 176.101273 133.295806 
L 177.544364 133.297746 
L 178.987455 133.299288 
L 180.430545 133.300512 
L 181.873636 133.301484 
L 183.316727 133.302257 
L 184.759818 133.302871 
L 186.202909 133.303358 
L 187.646 133.303745 
L 189.089091 133.304053 
L 190.532182 133.304297 
L 191.975273 133.304492 
L 193.418364 133.304646 
L 194.861455 133.304768 
L 196.304545 133.304865 
" style="fill:none;opacity:0.7;stroke:#000000;stroke-linecap:round;stroke-width:1.5;"/>
   </g>
   <g id="line2d_26">
    <path clip-path="url(#p5c8fc02ee0)" d="M 51.995455 52.747338 
L 53.438545 54.154963 
L 54.881636 55.633197 
L 56.324727 57.133159 
L 57.767818 58.604641 
L 59.210909 60.001576 
L 60.654 61.286731 
L 62.097091 62.434537 
L 63.540182 63.431742 
L 64.983273 64.276268 
L 66.426364 64.975026 
L 67.869455 65.541321 
L 69.312545 65.992339 
L 70.755636 66.347015 
L 72.198727 66.624397 
L 73.641818 66.842524 
L 75.084909 67.017744 
L 76.528 67.164391 
L 77.971091 67.294776 
L 79.414182 67.419325 
L 80.857273 67.546614 
L 82.300364 67.683208 
L 83.743455 67.833561 
L 85.186545 68.00031 
L 86.629636 68.184871 
L 88.072727 68.387962 
L 89.515818 68.609798 
L 90.958909 68.850158 
L 92.402 69.108582 
L 93.845091 69.384566 
L 95.288182 69.677163 
L 96.731273 69.983994 
L 98.174364 70.30067 
L 99.617455 70.621634 
L 101.060545 70.942255 
L 102.503636 71.261021 
L 103.946727 71.580864 
L 105.389818 71.909343 
L 106.832909 72.257955 
L 108.276 72.641119 
L 109.719091 73.075398 
L 111.162182 73.579118 
L 112.605273 74.171934 
L 114.048364 74.874141 
L 115.491455 75.705938 
L 116.934545 76.686162 
L 118.377636 77.829618 
L 119.820727 79.143346 
L 121.263818 80.623472 
L 122.706909 82.25377 
L 124.15 84.006162 
L 125.593091 85.843022 
L 127.036182 87.720792 
L 128.479273 89.594142 
L 129.922364 91.420157 
L 131.365455 93.162314 
L 132.808545 94.793754 
L 134.251636 96.299019 
L 135.694727 97.673908 
L 137.137818 98.923998 
L 138.580909 100.062246 
L 140.024 101.1057 
L 141.467091 102.071984 
L 142.910182 102.976757 
L 144.353273 103.832643 
L 145.796364 104.649363 
L 147.239455 105.434749 
L 148.682545 106.196043 
L 150.125636 106.940493 
L 151.568727 107.6749 
L 153.011818 108.4048 
L 154.454909 109.134045 
L 155.898 109.864831 
L 157.341091 110.597962 
L 158.784182 111.333223 
L 160.227273 112.069833 
L 161.670364 112.806787 
L 163.113455 113.542963 
L 164.556545 114.277024 
L 165.999636 115.007331 
L 167.442727 115.731968 
L 168.885818 116.448817 
L 170.328909 117.155575 
L 171.772 117.849784 
L 173.215091 118.528964 
L 174.658182 119.190804 
L 176.101273 119.833248 
L 177.544364 120.454346 
L 178.987455 121.051971 
L 180.430545 121.62359 
L 181.873636 122.166175 
L 183.316727 122.676246 
L 184.759818 123.149987 
L 186.202909 123.583392 
L 187.646 123.97243 
L 189.089091 124.313201 
L 190.532182 124.602089 
L 191.975273 124.835911 
L 193.418364 125.012072 
L 194.861455 125.128701 
L 196.304545 125.184722 
" style="fill:none;opacity:0.45;stroke:#8c0800;stroke-dasharray:2.775,1.2;stroke-dashoffset:0;stroke-width:0.75;"/>
   </g>
   <g id="line2d_27">
    <path clip-path="url(#p5c8fc02ee0)" d="M 51.995455 97.076058 
L 53.438545 99.629603 
L 54.881636 102.246073 
L 56.324727 104.869553 
L 57.767818 107.442505 
L 59.210909 109.911316 
L 60.654 112.230936 
L 62.097091 114.367946 
L 63.540182 116.301741 
L 64.983273 118.023903 
L 66.426364 119.536191 
L 67.869455 120.847864 
L 69.312545 121.972962 
L 70.755636 122.927982 
L 72.198727 123.730106 
L 73.641818 124.396021 
L 75.084909 124.941217 
L 76.528 125.37963 
L 77.971091 125.723489 
L 79.414182 125.983318 
L 80.857273 126.168221 
L 82.300364 126.286466 
L 83.743455 126.346017 
L 85.186545 126.354675 
L 86.629636 126.319888 
L 88.072727 126.248603 
L 89.515818 126.14741 
L 90.958909 126.022803 
L 92.402 125.881268 
L 93.845091 125.7294 
L 95.288182 125.574581 
L 96.731273 125.426282 
L 98.174364 125.29697 
L 99.617455 125.201618 
L 101.060545 125.155997 
L 102.503636 125.174899 
L 103.946727 125.271252 
L 105.389818 125.456375 
L 106.832909 125.741046 
L 108.276 126.136801 
L 109.719091 126.656741 
L 111.162182 127.315584 
L 112.605273 128.129183 
L 114.048364 129.113495 
L 115.491455 130.282622 
L 116.934545 131.646245 
L 118.377636 133.207495 
L 119.820727 134.961326 
L 121.263818 136.892652 
L 122.706909 138.974348 
L 124.15 141.166239 
L 125.593091 143.416165 
L 127.036182 145.663711 
L 128.479273 147.84626 
L 129.922364 149.905878 
L 131.365455 151.794895 
L 132.808545 153.478894 
L 134.251636 154.937178 
L 135.694727 156.16143 
L 137.137818 157.153157 
L 138.580909 157.920865 
L 140.024 158.478072 
L 141.467091 158.842268 
L 142.910182 159.033954 
L 144.353273 159.0753 
L 145.796364 158.988543 
L 147.239455 158.794243 
L 148.682545 158.509754 
L 150.125636 158.14874 
L 151.568727 157.72192 
L 153.011818 157.23827 
L 154.454909 156.705859 
L 155.898 156.132204 
L 157.341091 155.524384 
L 158.784182 154.888976 
L 160.227273 154.231881 
L 161.670364 153.558216 
L 163.113455 152.872392 
L 164.556545 152.178377 
L 165.999636 151.479912 
L 167.442727 150.780589 
L 168.885818 150.08386 
L 170.328909 149.393093 
L 171.772 148.711592 
L 173.215091 148.04251 
L 174.658182 147.388694 
L 176.101273 146.752626 
L 177.544364 146.136595 
L 178.987455 145.542997 
L 180.430545 144.97458 
L 181.873636 144.434541 
L 183.316727 143.926496 
L 184.759818 143.45437 
L 186.202909 143.022253 
L 187.646 142.634246 
L 189.089091 142.294302 
L 190.532182 142.006083 
L 191.975273 141.772808 
L 193.418364 141.597099 
L 194.861455 141.480853 
L 196.304545 141.425165 
" style="fill:none;opacity:0.45;stroke:#8c0800;stroke-dasharray:2.775,1.2;stroke-dashoffset:0;stroke-width:0.75;"/>
   </g>
   <g id="line2d_28">
    <path clip-path="url(#p5c8fc02ee0)" d="M 51.995455 84.086686 
L 53.438545 85.952979 
L 54.881636 87.671188 
L 56.324727 89.218644 
L 57.767818 90.584956 
L 59.210909 91.770375 
L 60.654 92.783329 
L 62.097091 93.637737 
L 63.540182 94.35057 
L 64.983273 94.939904 
L 66.426364 95.423514 
L 67.869455 95.817986 
L 69.312545 96.138228 
L 70.755636 96.397277 
L 72.198727 96.606306 
L 73.641818 96.774746 
L 75.084909 96.91047 
L 76.528 97.020001 
L 77.971091 97.108722 
L 79.414182 97.18107 
L 80.857273 97.240713 
L 82.300364 97.29071 
L 83.743455 97.333649 
L 85.186545 97.371765 
L 86.629636 97.407056 
L 88.072727 97.441374 
L 89.515818 97.476524 
L 90.958909 97.514351 
L 92.402 97.556838 
L 93.845091 97.606197 
L 95.288182 97.664986 
L 96.731273 97.736221 
L 98.174364 97.823519 
L 99.617455 97.931249 
L 101.060545 98.064715 
L 102.503636 98.230343 
L 103.946727 98.435893 
L 105.389818 98.690668 
L 106.832909 99.0057 
L 108.276 99.393879 
L 109.719091 99.869971 
L 111.162182 100.450443 
L 112.605273 101.153005 
L 114.048364 101.995751 
L 115.491455 102.995803 
L 116.934545 104.1674 
L 118.377636 105.519491 
L 119.820727 107.053062 
L 121.263818 108.758621 
L 122.706909 110.614486 
L 124.15 112.586522 
L 125.593091 114.629833 
L 127.036182 116.692427 
L 128.479273 118.720328 
L 129.922364 120.663108 
L 131.365455 122.478667 
L 132.808545 124.136367 
L 134.251636 125.618128 
L 135.694727 126.917689 
L 137.137818 128.038591 
L 138.580909 128.991564 
L 140.024 129.791892 
L 141.467091 130.45713 
L 142.910182 131.005358 
L 144.353273 131.453973 
L 145.796364 131.818954 
L 147.239455 132.114497 
L 148.682545 132.352899 
L 150.125636 132.544617 
L 151.568727 132.69841 
L 153.011818 132.821535 
L 154.454909 132.919952 
L 155.898 132.998518 
L 157.341091 133.061173 
L 158.784182 133.1111 
L 160.227273 133.150857 
L 161.670364 133.182501 
L 163.113455 133.207677 
L 164.556545 133.2277 
L 165.999636 133.243622 
L 167.442727 133.256278 
L 168.885818 133.266339 
L 170.328909 133.274334 
L 171.772 133.280688 
L 173.215091 133.285737 
L 174.658182 133.289749 
L 176.101273 133.292937 
L 177.544364 133.29547 
L 178.987455 133.297484 
L 180.430545 133.299085 
L 181.873636 133.300358 
L 183.316727 133.301371 
L 184.759818 133.302178 
L 186.202909 133.302822 
L 187.646 133.303338 
L 189.089091 133.303752 
L 190.532182 133.304086 
L 191.975273 133.304359 
L 193.418364 133.304586 
L 194.861455 133.304777 
L 196.304545 133.304944 
" style="fill:none;opacity:0.9;stroke:#591e71;stroke-linecap:round;stroke-width:1.5;"/>
   </g>
   <g id="line2d_29">
    <path clip-path="url(#p5c8fc02ee0)" d="M 51.995455 97.4259 
L 53.438545 97.425989 
L 54.881636 97.4261 
L 56.324727 97.426241 
L 57.767818 97.426418 
L 59.210909 97.426641 
L 60.654 97.426921 
L 62.097091 97.427275 
L 63.540182 97.427719 
L 64.983273 97.428279 
L 66.426364 97.428984 
L 67.869455 97.429871 
L 69.312545 97.430987 
L 70.755636 97.432393 
L 72.198727 97.434162 
L 73.641818 97.43639 
L 75.084909 97.439193 
L 76.528 97.442722 
L 77.971091 97.447164 
L 79.414182 97.452754 
L 80.857273 97.45979 
L 82.300364 97.468642 
L 83.743455 97.479781 
L 85.186545 97.493795 
L 86.629636 97.511421 
L 88.072727 97.533586 
L 89.515818 97.561451 
L 90.958909 97.59647 
L 92.402 97.640459 
L 93.845091 97.695683 
L 95.288182 97.764964 
L 96.731273 97.851801 
L 98.174364 97.960521 
L 99.617455 98.096447 
L 101.060545 98.266088 
L 102.503636 98.477343 
L 103.946727 98.739703 
L 105.389818 99.064426 
L 106.832909 99.464654 
L 108.276 99.955401 
L 109.719091 100.55334 
L 111.162182 101.276285 
L 112.605273 102.142265 
L 114.048364 103.168076 
L 115.491455 104.367289 
L 116.934545 105.747778 
L 118.377636 107.309038 
L 119.820727 109.039751 
L 121.263818 110.916255 
L 122.706909 112.902568 
L 124.15 114.952392 
L 125.593091 117.013063 
L 127.036182 119.030799 
L 128.479273 120.95619 
L 129.922364 122.748769 
L 131.365455 124.379839 
L 132.808545 125.833255 
L 134.251636 127.104443 
L 135.694727 128.198246 
L 137.137818 129.126273 
L 138.580909 129.904299 
L 140.024 130.550065 
L 141.467091 131.081608 
L 142.910182 131.516142 
L 144.353273 131.869383 
L 145.796364 132.155233 
L 147.239455 132.385696 
L 148.682545 132.57095 
L 150.125636 132.719507 
L 151.568727 132.838409 
L 153.011818 132.933428 
L 154.454909 133.009269 
L 155.898 133.069742 
L 157.341091 133.117925 
L 158.784182 133.156291 
L 160.227273 133.186824 
L 161.670364 133.211116 
L 163.113455 133.230434 
L 164.556545 133.245794 
L 165.999636 133.258005 
L 167.442727 133.26771 
L 168.885818 133.275423 
L 170.328909 133.281551 
L 171.772 133.286421 
L 173.215091 133.29029 
L 174.658182 133.293364 
L 176.101273 133.295806 
L 177.544364 133.297746 
L 178.987455 133.299288 
L 180.430545 133.300512 
L 181.873636 133.301484 
L 183.316727 133.302257 
L 184.759818 133.302871 
L 186.202909 133.303358 
L 187.646 133.303745 
L 189.089091 133.304053 
L 190.532182 133.304297 
L 191.975273 133.304492 
L 193.418364 133.304646 
L 194.861455 133.304768 
L 196.304545 133.304865 
" style="fill:none;opacity:0.7;stroke:#000000;stroke-linecap:round;stroke-width:1.5;"/>
   </g>
   <g id="line2d_30">
    <path clip-path="url(#p5c8fc02ee0)" d="M 51.995455 39.257695 
L 53.438545 41.236511 
L 54.881636 43.109755 
L 56.324727 44.853154 
L 57.767818 46.454131 
L 59.210909 47.910243 
L 60.654 49.226807 
L 62.097091 50.414341 
L 63.540182 51.486275 
L 64.983273 52.457144 
L 66.426364 53.341308 
L 67.869455 54.152115 
L 69.312545 54.901443 
L 70.755636 55.599491 
L 72.198727 56.254772 
L 73.641818 56.874222 
L 75.084909 57.463393 
L 76.528 58.026716 
L 77.971091 58.567802 
L 79.414182 59.089773 
L 80.857273 59.59558 
L 82.300364 60.08829 
L 83.743455 60.571303 
L 85.186545 61.048494 
L 86.629636 61.524279 
L 88.072727 62.003613 
L 89.515818 62.491967 
L 90.958909 62.995298 
L 92.402 63.520045 
L 93.845091 64.073152 
L 95.288182 64.662125 
L 96.731273 65.29507 
L 98.174364 65.980725 
L 99.617455 66.728466 
L 101.060545 67.548298 
L 102.503636 68.450865 
L 103.946727 69.447459 
L 105.389818 70.549978 
L 106.832909 71.770776 
L 108.276 73.12229 
L 109.719091 74.616366 
L 111.162182 76.263143 
L 112.605273 78.069361 
L 114.048364 80.036017 
L 115.491455 82.155378 
L 116.934545 84.407644 
L 118.377636 86.757938 
L 119.820727 89.154853 
L 121.263818 91.53221 
L 122.706909 93.815399 
L 124.15 95.931959 
L 125.593091 97.823167 
L 127.036182 99.451748 
L 128.479273 100.802844 
L 129.922364 101.879647 
L 131.365455 102.697474 
L 132.808545 103.278965 
L 134.251636 103.650973 
L 135.694727 103.842516 
L 137.137818 103.883183 
L 138.580909 103.801735 
L 140.024 103.624933 
L 141.467091 103.376697 
L 142.910182 103.077648 
L 144.353273 102.744997 
L 145.796364 102.392727 
L 147.239455 102.031945 
L 148.682545 101.671318 
L 150.125636 101.317515 
L 151.568727 100.975588 
L 153.011818 100.649276 
L 154.454909 100.341226 
L 155.898 100.053149 
L 157.341091 99.785954 
L 158.784182 99.53987 
L 160.227273 99.314589 
L 161.670364 99.109401 
L 163.113455 98.923335 
L 164.556545 98.755275 
L 165.999636 98.60404 
L 167.442727 98.468441 
L 168.885818 98.347299 
L 170.328909 98.239455 
L 171.772 98.143774 
L 173.215091 98.059146 
L 174.658182 97.984501 
L 176.101273 97.918819 
L 177.544364 97.861139 
L 178.987455 97.810563 
L 180.430545 97.766255 
L 181.873636 97.727431 
L 183.316727 97.693353 
L 184.759818 97.66332 
L 186.202909 97.636665 
L 187.646 97.612745 
L 189.089091 97.590936 
L 190.532182 97.570624 
L 191.975273 97.551189 
L 193.418364 97.531997 
L 194.861455 97.512394 
L 196.304545 97.491705 
" style="fill:none;opacity:0.45;stroke:#591e71;stroke-dasharray:2.775,1.2;stroke-dashoffset:0;stroke-width:0.75;"/>
   </g>
   <g id="line2d_31">
    <path clip-path="url(#p5c8fc02ee0)" d="M 51.995455 128.915676 
L 53.438545 130.669447 
L 54.881636 132.23262 
L 56.324727 133.584134 
L 57.767818 134.715781 
L 59.210909 135.630507 
L 60.654 136.339851 
L 62.097091 136.861132 
L 63.540182 137.214865 
L 64.983273 137.422663 
L 66.426364 137.50572 
L 67.869455 137.483857 
L 69.312545 137.375014 
L 70.755636 137.195064 
L 72.198727 136.95784 
L 73.641818 136.67527 
L 75.084909 136.357546 
L 76.528 136.013286 
L 77.971091 135.649642 
L 79.414182 135.272367 
L 80.857273 134.885846 
L 82.300364 134.49313 
L 83.743455 134.095995 
L 85.186545 133.695037 
L 86.629636 133.289834 
L 88.072727 132.879135 
L 89.515818 132.46108 
L 90.958909 132.033404 
L 92.402 131.593631 
L 93.845091 131.139242 
L 95.288182 130.667848 
L 96.731273 130.177373 
L 98.174364 129.666312 
L 99.617455 129.134033 
L 101.060545 128.581132 
L 102.503636 128.00982 
L 103.946727 127.424327 
L 105.389818 126.831358 
L 106.832909 126.240625 
L 108.276 125.665469 
L 109.719091 125.123575 
L 111.162182 124.637742 
L 112.605273 124.236648 
L 114.048364 123.955485 
L 115.491455 123.836227 
L 116.934545 123.927155 
L 118.377636 124.281044 
L 119.820727 124.95127 
L 121.263818 125.985032 
L 122.706909 127.413572 
L 124.15 129.241085 
L 125.593091 131.436499 
L 127.036182 133.933106 
L 128.479273 136.637813 
L 129.922364 139.446568 
L 131.365455 142.259861 
L 132.808545 144.99377 
L 134.251636 147.585284 
L 135.694727 149.992861 
L 137.137818 152.193998 
L 138.580909 154.181393 
L 140.024 155.95885 
L 141.467091 157.537562 
L 142.910182 158.933068 
L 144.353273 160.162949 
L 145.796364 161.245182 
L 147.239455 162.197049 
L 148.682545 163.03448 
L 150.125636 163.771718 
L 151.568727 164.421231 
L 153.011818 164.993794 
L 154.454909 165.498678 
L 155.898 165.943886 
L 157.341091 166.336392 
L 158.784182 166.682329 
L 160.227273 166.987126 
L 161.670364 167.255602 
L 163.113455 167.492019 
L 164.556545 167.700126 
L 165.999636 167.883203 
L 167.442727 168.044116 
L 168.885818 168.185378 
L 170.328909 168.309213 
L 171.772 168.417602 
L 173.215091 168.512328 
L 174.658182 168.594997 
L 176.101273 168.667055 
L 177.544364 168.729802 
L 178.987455 168.784405 
L 180.430545 168.831914 
L 181.873636 168.873285 
L 183.316727 168.909389 
L 184.759818 168.941037 
L 186.202909 168.96898 
L 187.646 168.993931 
L 189.089091 169.016567 
L 190.532182 169.037548 
L 191.975273 169.05753 
L 193.418364 169.077174 
L 194.861455 169.09716 
L 196.304545 169.118182 
" style="fill:none;opacity:0.45;stroke:#591e71;stroke-dasharray:2.775,1.2;stroke-dashoffset:0;stroke-width:0.75;"/>
   </g>
   <g id="patch_3">
    <path d="M 44.78 175.96 
L 44.78 25.44 
" style="fill:none;stroke:#262626;stroke-linecap:square;stroke-linejoin:miter;stroke-width:0.8;"/>
   </g>
   <g id="patch_4">
    <path d="M 44.78 175.96 
L 203.52 175.96 
" style="fill:none;stroke:#262626;stroke-linecap:square;stroke-linejoin:miter;stroke-width:0.8;"/>
   </g>
   <g id="text_14">
    <!-- SM03 -->
    <defs>
     <path d="M 4.5 23 
L 13.421875 23.78125 
Q 14.0625 18.40625 16.375 14.96875 
Q 18.703125 11.53125 23.578125 9.40625 
Q 28.46875 7.28125 34.578125 7.28125 
Q 39.984375 7.28125 44.140625 8.890625 
Q 48.296875 10.5 50.3125 13.296875 
Q 52.34375 16.109375 52.34375 19.4375 
Q 52.34375 22.796875 50.390625 25.3125 
Q 48.4375 27.828125 43.953125 29.546875 
Q 41.0625 30.671875 31.203125 33.03125 
Q 21.34375 35.40625 17.390625 37.5 
Q 12.25 40.1875 9.734375 44.15625 
Q 7.234375 48.140625 7.234375 53.078125 
Q 7.234375 58.5 10.296875 63.203125 
Q 13.375 67.921875 19.28125 70.359375 
Q 25.203125 72.796875 32.421875 72.796875 
Q 40.375 72.796875 46.453125 70.234375 
Q 52.546875 67.671875 55.8125 62.6875 
Q 59.078125 57.71875 59.328125 51.421875 
L 50.25 50.734375 
Q 49.515625 57.515625 45.28125 60.984375 
Q 41.0625 64.453125 32.8125 64.453125 
Q 24.21875 64.453125 20.28125 61.296875 
Q 16.359375 58.15625 16.359375 53.71875 
Q 16.359375 49.859375 19.140625 47.359375 
Q 21.875 44.875 33.421875 42.265625 
Q 44.96875 39.65625 49.265625 37.703125 
Q 55.515625 34.8125 58.484375 30.390625 
Q 61.46875 25.984375 61.46875 20.21875 
Q 61.46875 14.5 58.203125 9.4375 
Q 54.9375 4.390625 48.796875 1.578125 
Q 42.671875 -1.21875 35.015625 -1.21875 
Q 25.296875 -1.21875 18.71875 1.609375 
Q 12.15625 4.4375 8.421875 10.125 
Q 4.6875 15.828125 4.5 23 
z
" id="ArialMT-53"/>
     <path d="M 7.421875 0 
L 7.421875 71.578125 
L 21.6875 71.578125 
L 38.625 20.90625 
Q 40.96875 13.8125 42.046875 10.296875 
Q 43.265625 14.203125 45.84375 21.78125 
L 62.984375 71.578125 
L 75.734375 71.578125 
L 75.734375 0 
L 66.609375 0 
L 66.609375 59.90625 
L 45.796875 0 
L 37.25 0 
L 16.546875 60.9375 
L 16.546875 0 
z
" id="ArialMT-4d"/>
     <path d="M 4.203125 18.890625 
L 12.984375 20.0625 
Q 14.5 12.59375 18.140625 9.296875 
Q 21.78125 6 27 6 
Q 33.203125 6 37.46875 10.296875 
Q 41.75 14.59375 41.75 20.953125 
Q 41.75 27 37.796875 30.921875 
Q 33.84375 34.859375 27.734375 34.859375 
Q 25.25 34.859375 21.53125 33.890625 
L 22.515625 41.609375 
Q 23.390625 41.5 23.921875 41.5 
Q 29.546875 41.5 34.03125 44.421875 
Q 38.53125 47.359375 38.53125 53.46875 
Q 38.53125 58.296875 35.25 61.46875 
Q 31.984375 64.65625 26.8125 64.65625 
Q 21.6875 64.65625 18.265625 61.421875 
Q 14.84375 58.203125 13.875 51.765625 
L 5.078125 53.328125 
Q 6.6875 62.15625 12.390625 67.015625 
Q 18.109375 71.875 26.609375 71.875 
Q 32.46875 71.875 37.390625 69.359375 
Q 42.328125 66.84375 44.9375 62.5 
Q 47.5625 58.15625 47.5625 53.265625 
Q 47.5625 48.640625 45.0625 44.828125 
Q 42.578125 41.015625 37.703125 38.765625 
Q 44.046875 37.3125 47.5625 32.6875 
Q 51.078125 28.078125 51.078125 21.140625 
Q 51.078125 11.765625 44.234375 5.25 
Q 37.40625 -1.265625 26.953125 -1.265625 
Q 17.53125 -1.265625 11.296875 4.34375 
Q 5.078125 9.96875 4.203125 18.890625 
z
" id="ArialMT-33"/>
    </defs>
    <g style="fill:#262626;" transform="translate(108.476875 19.44)scale(0.12 -0.12)">
     <use xlink:href="#ArialMT-53"/>
     <use x="66.699219" xlink:href="#ArialMT-4d"/>
     <use x="150" xlink:href="#ArialMT-30"/>
     <use x="205.615234" xlink:href="#ArialMT-33"/>
    </g>
   </g>
  </g>
 </g>
 <defs>
  <clipPath id="p5c8fc02ee0">
   <rect height="150.52" width="158.74" x="44.78" y="25.44"/>
  </clipPath>
 </defs>
</svg>
