<?xml version="1.0" encoding="utf-8" standalone="no"?>
<!DOCTYPE svg PUBLIC "-//W3C//DTD SVG 1.1//EN"
  "http://www.w3.org/Graphics/SVG/1.1/DTD/svg11.dtd">
<!-- Created with matplotlib (http://matplotlib.org/) -->
<svg height="216pt" version="1.1" viewBox="0 0 216 216" width="216pt" xmlns="http://www.w3.org/2000/svg" xmlns:xlink="http://www.w3.org/1999/xlink">
 <defs>
  <style type="text/css">
*{stroke-linecap:butt;stroke-linejoin:round;}
  </style>
 </defs>
 <g id="figure_1">
  <g id="patch_1">
   <path d="M 0 216 
L 216 216 
L 216 0 
L 0 0 
z
" style="fill:#ffffff;"/>
  </g>
  <g id="axes_1">
   <g id="patch_2">
    <path d="M 44.78 175.96 
L 203.52 175.96 
L 203.52 25.44 
L 44.78 25.44 
z
" style="fill:#ffffff;"/>
   </g>
   <g id="matplotlib.axis_1">
    <g id="xtick_1">
     <g id="line2d_1">
      <defs>
       <path d="M 0 0 
L 0 3.5 
" id="m30cf077152" style="stroke:#262626;stroke-width:0.8;"/>
      </defs>
      <g>
       <use style="fill:#262626;stroke:#262626;stroke-width:0.8;" x="51.995455" xlink:href="#m30cf077152" y="175.96"/>
      </g>
     </g>
     <g id="text_1">
      <!-- 2 -->
      <defs>
       <path d="M 50.34375 8.453125 
L 50.34375 0 
L 3.03125 0 
Q 2.9375 3.171875 4.046875 6.109375 
Q 5.859375 10.9375 9.828125 15.625 
Q 13.8125 20.3125 21.34375 26.46875 
Q 33.015625 36.03125 37.109375 41.625 
Q 41.21875 47.21875 41.21875 52.203125 
Q 41.21875 57.421875 37.46875 61 
Q 33.734375 64.59375 27.734375 64.59375 
Q 21.390625 64.59375 17.578125 60.78125 
Q 13.765625 56.984375 13.71875 50.25 
L 4.6875 51.171875 
Q 5.609375 61.28125 11.65625 66.578125 
Q 17.71875 71.875 27.9375 71.875 
Q 38.234375 71.875 44.234375 66.15625 
Q 50.25 60.453125 50.25 52 
Q 50.25 47.703125 48.484375 43.546875 
Q 46.734375 39.40625 42.65625 34.8125 
Q 38.578125 30.21875 29.109375 22.21875 
Q 21.1875 15.578125 18.9375 13.203125 
Q 16.703125 10.84375 15.234375 8.453125 
z
" id="ArialMT-32"/>
      </defs>
      <g style="fill:#262626;" transform="translate(49.214986 190.117812)scale(0.1 -0.1)">
       <use xlink:href="#ArialMT-32"/>
      </g>
     </g>
    </g>
    <g id="xtick_2">
     <g id="line2d_2">
      <g>
       <use style="fill:#262626;stroke:#262626;stroke-width:0.8;" x="80.857273" xlink:href="#m30cf077152" y="175.96"/>
      </g>
     </g>
     <g id="text_2">
      <!-- 4 -->
      <defs>
       <path d="M 32.328125 0 
L 32.328125 17.140625 
L 1.265625 17.140625 
L 1.265625 25.203125 
L 33.9375 71.578125 
L 41.109375 71.578125 
L 41.109375 25.203125 
L 50.78125 25.203125 
L 50.78125 17.140625 
L 41.109375 17.140625 
L 41.109375 0 
z
M 32.328125 25.203125 
L 32.328125 57.46875 
L 9.90625 25.203125 
z
" id="ArialMT-34"/>
      </defs>
      <g style="fill:#262626;" transform="translate(78.076804 190.117812)scale(0.1 -0.1)">
       <use xlink:href="#ArialMT-34"/>
      </g>
     </g>
    </g>
    <g id="xtick_3">
     <g id="line2d_3">
      <g>
       <use style="fill:#262626;stroke:#262626;stroke-width:0.8;" x="109.719091" xlink:href="#m30cf077152" y="175.96"/>
      </g>
     </g>
     <g id="text_3">
      <!-- 6 -->
      <defs>
       <path d="M 49.75 54.046875 
L 41.015625 53.375 
Q 39.84375 58.546875 37.703125 60.890625 
Q 34.125 64.65625 28.90625 64.65625 
Q 24.703125 64.65625 21.53125 62.3125 
Q 17.390625 59.28125 14.984375 53.46875 
Q 12.59375 47.65625 12.5 36.921875 
Q 15.671875 41.75 20.265625 44.09375 
Q 24.859375 46.4375 29.890625 46.4375 
Q 38.671875 46.4375 44.84375 39.96875 
Q 51.03125 33.5 51.03125 23.25 
Q 51.03125 16.5 48.125 10.71875 
Q 45.21875 4.9375 40.140625 1.859375 
Q 35.0625 -1.21875 28.609375 -1.21875 
Q 17.625 -1.21875 10.6875 6.859375 
Q 3.765625 14.9375 3.765625 33.5 
Q 3.765625 54.25 11.421875 63.671875 
Q 18.109375 71.875 29.4375 71.875 
Q 37.890625 71.875 43.28125 67.140625 
Q 48.6875 62.40625 49.75 54.046875 
z
M 13.875 23.1875 
Q 13.875 18.65625 15.796875 14.5 
Q 17.71875 10.359375 21.1875 8.171875 
Q 24.65625 6 28.46875 6 
Q 34.03125 6 38.03125 10.484375 
Q 42.046875 14.984375 42.046875 22.703125 
Q 42.046875 30.125 38.078125 34.390625 
Q 34.125 38.671875 28.125 38.671875 
Q 22.171875 38.671875 18.015625 34.390625 
Q 13.875 30.125 13.875 23.1875 
z
" id="ArialMT-36"/>
      </defs>
      <g style="fill:#262626;" transform="translate(106.938622 190.117812)scale(0.1 -0.1)">
       <use xlink:href="#ArialMT-36"/>
      </g>
     </g>
    </g>
    <g id="xtick_4">
     <g id="line2d_4">
      <g>
       <use style="fill:#262626;stroke:#262626;stroke-width:0.8;" x="138.580909" xlink:href="#m30cf077152" y="175.96"/>
      </g>
     </g>
     <g id="text_4">
      <!-- 8 -->
      <defs>
       <path d="M 17.671875 38.8125 
Q 12.203125 40.828125 9.5625 44.53125 
Q 6.9375 48.25 6.9375 53.421875 
Q 6.9375 61.234375 12.546875 66.546875 
Q 18.171875 71.875 27.484375 71.875 
Q 36.859375 71.875 42.578125 66.421875 
Q 48.296875 60.984375 48.296875 53.171875 
Q 48.296875 48.1875 45.671875 44.5 
Q 43.0625 40.828125 37.75 38.8125 
Q 44.34375 36.671875 47.78125 31.875 
Q 51.21875 27.09375 51.21875 20.453125 
Q 51.21875 11.28125 44.71875 5.03125 
Q 38.234375 -1.21875 27.640625 -1.21875 
Q 17.046875 -1.21875 10.546875 5.046875 
Q 4.046875 11.328125 4.046875 20.703125 
Q 4.046875 27.6875 7.59375 32.390625 
Q 11.140625 37.109375 17.671875 38.8125 
z
M 15.921875 53.71875 
Q 15.921875 48.640625 19.1875 45.40625 
Q 22.46875 42.1875 27.6875 42.1875 
Q 32.765625 42.1875 36.015625 45.375 
Q 39.265625 48.578125 39.265625 53.21875 
Q 39.265625 58.0625 35.90625 61.359375 
Q 32.5625 64.65625 27.59375 64.65625 
Q 22.5625 64.65625 19.234375 61.421875 
Q 15.921875 58.203125 15.921875 53.71875 
z
M 13.09375 20.65625 
Q 13.09375 16.890625 14.875 13.375 
Q 16.65625 9.859375 20.171875 7.921875 
Q 23.6875 6 27.734375 6 
Q 34.03125 6 38.125 10.046875 
Q 42.234375 14.109375 42.234375 20.359375 
Q 42.234375 26.703125 38.015625 30.859375 
Q 33.796875 35.015625 27.4375 35.015625 
Q 21.234375 35.015625 17.15625 30.90625 
Q 13.09375 26.8125 13.09375 20.65625 
z
" id="ArialMT-38"/>
      </defs>
      <g style="fill:#262626;" transform="translate(135.80044 190.117812)scale(0.1 -0.1)">
       <use xlink:href="#ArialMT-38"/>
      </g>
     </g>
    </g>
    <g id="xtick_5">
     <g id="line2d_5">
      <g>
       <use style="fill:#262626;stroke:#262626;stroke-width:0.8;" x="167.442727" xlink:href="#m30cf077152" y="175.96"/>
      </g>
     </g>
     <g id="text_5">
      <!-- 10 -->
      <defs>
       <path d="M 37.25 0 
L 28.46875 0 
L 28.46875 56 
Q 25.296875 52.984375 20.140625 49.953125 
Q 14.984375 46.921875 10.890625 45.40625 
L 10.890625 53.90625 
Q 18.265625 57.375 23.78125 62.296875 
Q 29.296875 67.234375 31.59375 71.875 
L 37.25 71.875 
z
" id="ArialMT-31"/>
       <path d="M 4.15625 35.296875 
Q 4.15625 48 6.765625 55.734375 
Q 9.375 63.484375 14.515625 67.671875 
Q 19.671875 71.875 27.484375 71.875 
Q 33.25 71.875 37.59375 69.546875 
Q 41.9375 67.234375 44.765625 62.859375 
Q 47.609375 58.5 49.21875 52.21875 
Q 50.828125 45.953125 50.828125 35.296875 
Q 50.828125 22.703125 48.234375 14.96875 
Q 45.65625 7.234375 40.5 3 
Q 35.359375 -1.21875 27.484375 -1.21875 
Q 17.140625 -1.21875 11.234375 6.203125 
Q 4.15625 15.140625 4.15625 35.296875 
z
M 13.1875 35.296875 
Q 13.1875 17.671875 17.3125 11.828125 
Q 21.4375 6 27.484375 6 
Q 33.546875 6 37.671875 11.859375 
Q 41.796875 17.71875 41.796875 35.296875 
Q 41.796875 52.984375 37.671875 58.78125 
Q 33.546875 64.59375 27.390625 64.59375 
Q 21.34375 64.59375 17.71875 59.46875 
Q 13.1875 52.9375 13.1875 35.296875 
z
" id="ArialMT-30"/>
      </defs>
      <g style="fill:#262626;" transform="translate(161.88179 190.117812)scale(0.1 -0.1)">
       <use xlink:href="#ArialMT-31"/>
       <use x="55.615234" xlink:href="#ArialMT-30"/>
      </g>
     </g>
    </g>
    <g id="xtick_6">
     <g id="line2d_6">
      <g>
       <use style="fill:#262626;stroke:#262626;stroke-width:0.8;" x="196.304545" xlink:href="#m30cf077152" y="175.96"/>
      </g>
     </g>
     <g id="text_6">
      <!-- 12 -->
      <g style="fill:#262626;" transform="translate(190.743608 190.117812)scale(0.1 -0.1)">
       <use xlink:href="#ArialMT-31"/>
       <use x="55.615234" xlink:href="#ArialMT-32"/>
      </g>
     </g>
    </g>
    <g id="text_7">
     <!-- pH -->
     <defs>
      <path d="M 6.59375 -19.875 
L 6.59375 51.859375 
L 14.59375 51.859375 
L 14.59375 45.125 
Q 17.4375 49.078125 21 51.046875 
Q 24.5625 53.03125 29.640625 53.03125 
Q 36.28125 53.03125 41.359375 49.609375 
Q 46.4375 46.1875 49.015625 39.953125 
Q 51.609375 33.734375 51.609375 26.3125 
Q 51.609375 18.359375 48.75 11.984375 
Q 45.90625 5.609375 40.453125 2.21875 
Q 35.015625 -1.171875 29 -1.171875 
Q 24.609375 -1.171875 21.109375 0.6875 
Q 17.625 2.546875 15.375 5.375 
L 15.375 -19.875 
z
M 14.546875 25.640625 
Q 14.546875 15.625 18.59375 10.84375 
Q 22.65625 6.0625 28.421875 6.0625 
Q 34.28125 6.0625 38.453125 11.015625 
Q 42.625 15.96875 42.625 26.375 
Q 42.625 36.28125 38.546875 41.203125 
Q 34.46875 46.140625 28.8125 46.140625 
Q 23.1875 46.140625 18.859375 40.890625 
Q 14.546875 35.640625 14.546875 25.640625 
z
" id="ArialMT-70"/>
      <path d="M 8.015625 0 
L 8.015625 71.578125 
L 17.484375 71.578125 
L 17.484375 42.1875 
L 54.6875 42.1875 
L 54.6875 71.578125 
L 64.15625 71.578125 
L 64.15625 0 
L 54.6875 0 
L 54.6875 33.734375 
L 17.484375 33.734375 
L 17.484375 0 
z
" id="ArialMT-48"/>
     </defs>
     <g style="fill:#262626;" transform="translate(117.758594 203.263125)scale(0.1 -0.1)">
      <use xlink:href="#ArialMT-70"/>
      <use x="55.615234" xlink:href="#ArialMT-48"/>
     </g>
    </g>
   </g>
   <g id="matplotlib.axis_2">
    <g id="ytick_1">
     <g id="line2d_7">
      <defs>
       <path d="M 0 0 
L -3.5 0 
" id="m4fc002e83a" style="stroke:#262626;stroke-width:0.8;"/>
      </defs>
      <g>
       <use style="fill:#262626;stroke:#262626;stroke-width:0.8;" x="44.78" xlink:href="#m4fc002e83a" y="150.818936"/>
      </g>
     </g>
     <g id="text_8">
      <!-- −1 -->
      <defs>
       <path d="M 52.828125 31.203125 
L 5.5625 31.203125 
L 5.5625 39.40625 
L 52.828125 39.40625 
z
" id="ArialMT-2212"/>
      </defs>
      <g style="fill:#262626;" transform="translate(26.378438 154.397842)scale(0.1 -0.1)">
       <use xlink:href="#ArialMT-2212"/>
       <use x="58.398438" xlink:href="#ArialMT-31"/>
      </g>
     </g>
    </g>
    <g id="ytick_2">
     <g id="line2d_8">
      <g>
       <use style="fill:#262626;stroke:#262626;stroke-width:0.8;" x="44.78" xlink:href="#m4fc002e83a" y="118.708329"/>
      </g>
     </g>
     <g id="text_9">
      <!-- 0 -->
      <g style="fill:#262626;" transform="translate(32.219063 122.287235)scale(0.1 -0.1)">
       <use xlink:href="#ArialMT-30"/>
      </g>
     </g>
    </g>
    <g id="ytick_3">
     <g id="line2d_9">
      <g>
       <use style="fill:#262626;stroke:#262626;stroke-width:0.8;" x="44.78" xlink:href="#m4fc002e83a" y="86.597723"/>
      </g>
     </g>
     <g id="text_10">
      <!-- 1 -->
      <g style="fill:#262626;" transform="translate(32.219063 90.176629)scale(0.1 -0.1)">
       <use xlink:href="#ArialMT-31"/>
      </g>
     </g>
    </g>
    <g id="ytick_4">
     <g id="line2d_10">
      <g>
       <use style="fill:#262626;stroke:#262626;stroke-width:0.8;" x="44.78" xlink:href="#m4fc002e83a" y="54.487116"/>
      </g>
     </g>
     <g id="text_11">
      <!-- 2 -->
      <g style="fill:#262626;" transform="translate(32.219063 58.066022)scale(0.1 -0.1)">
       <use xlink:href="#ArialMT-32"/>
      </g>
     </g>
    </g>
    <g id="text_12">
     <!-- $\langle q_\mathsf{total} \rangle$ -->
     <defs>
      <path d="M 8.9375 31.34375 
L 22.703125 75.875 
L 31 75.875 
L 17.234375 31.34375 
L 31 -13.1875 
L 22.703125 -13.1875 
z
" id="DejaVuSans-27e8"/>
      <path d="M 41.703125 8.203125 
Q 38.09375 3.46875 33.171875 1.015625 
Q 28.265625 -1.421875 22.3125 -1.421875 
Q 14.015625 -1.421875 9.296875 4.171875 
Q 4.59375 9.765625 4.59375 19.578125 
Q 4.59375 27.484375 7.5 34.859375 
Q 10.40625 42.234375 15.828125 48.09375 
Q 19.34375 51.90625 23.90625 53.953125 
Q 28.46875 56 33.5 56 
Q 39.546875 56 43.453125 53.609375 
Q 47.359375 51.21875 49.125 46.390625 
L 50.6875 54.59375 
L 59.71875 54.59375 
L 45.125 -20.609375 
L 36.078125 -20.609375 
z
M 13.921875 20.90625 
Q 13.921875 13.671875 16.9375 9.890625 
Q 19.96875 6.109375 25.6875 6.109375 
Q 34.1875 6.109375 40.1875 14.234375 
Q 46.1875 22.359375 46.1875 33.984375 
Q 46.1875 41.015625 43.078125 44.75 
Q 39.984375 48.484375 34.1875 48.484375 
Q 29.9375 48.484375 26.3125 46.5 
Q 22.703125 44.53125 20.015625 40.71875 
Q 17.1875 36.71875 15.546875 31.34375 
Q 13.921875 25.984375 13.921875 20.90625 
z
" id="DejaVuSans-Oblique-71"/>
      <path d="M 18.3125 70.21875 
L 18.3125 54.6875 
L 36.8125 54.6875 
L 36.8125 47.703125 
L 18.3125 47.703125 
L 18.3125 18.015625 
Q 18.3125 11.328125 20.140625 9.421875 
Q 21.96875 7.515625 27.59375 7.515625 
L 36.8125 7.515625 
L 36.8125 0 
L 27.59375 0 
Q 17.1875 0 13.234375 3.875 
Q 9.28125 7.765625 9.28125 18.015625 
L 9.28125 47.703125 
L 2.6875 47.703125 
L 2.6875 54.6875 
L 9.28125 54.6875 
L 9.28125 70.21875 
z
" id="DejaVuSans-74"/>
      <path d="M 30.609375 48.390625 
Q 23.390625 48.390625 19.1875 42.75 
Q 14.984375 37.109375 14.984375 27.296875 
Q 14.984375 17.484375 19.15625 11.84375 
Q 23.34375 6.203125 30.609375 6.203125 
Q 37.796875 6.203125 41.984375 11.859375 
Q 46.1875 17.53125 46.1875 27.296875 
Q 46.1875 37.015625 41.984375 42.703125 
Q 37.796875 48.390625 30.609375 48.390625 
z
M 30.609375 56 
Q 42.328125 56 49.015625 48.375 
Q 55.71875 40.765625 55.71875 27.296875 
Q 55.71875 13.875 49.015625 6.21875 
Q 42.328125 -1.421875 30.609375 -1.421875 
Q 18.84375 -1.421875 12.171875 6.21875 
Q 5.515625 13.875 5.515625 27.296875 
Q 5.515625 40.765625 12.171875 48.375 
Q 18.84375 56 30.609375 56 
z
" id="DejaVuSans-6f"/>
      <path d="M 34.28125 27.484375 
Q 23.390625 27.484375 19.1875 25 
Q 14.984375 22.515625 14.984375 16.5 
Q 14.984375 11.71875 18.140625 8.90625 
Q 21.296875 6.109375 26.703125 6.109375 
Q 34.1875 6.109375 38.703125 11.40625 
Q 43.21875 16.703125 43.21875 25.484375 
L 43.21875 27.484375 
z
M 52.203125 31.203125 
L 52.203125 0 
L 43.21875 0 
L 43.21875 8.296875 
Q 40.140625 3.328125 35.546875 0.953125 
Q 30.953125 -1.421875 24.3125 -1.421875 
Q 15.921875 -1.421875 10.953125 3.296875 
Q 6 8.015625 6 15.921875 
Q 6 25.140625 12.171875 29.828125 
Q 18.359375 34.515625 30.609375 34.515625 
L 43.21875 34.515625 
L 43.21875 35.40625 
Q 43.21875 41.609375 39.140625 45 
Q 35.0625 48.390625 27.6875 48.390625 
Q 23 48.390625 18.546875 47.265625 
Q 14.109375 46.140625 10.015625 43.890625 
L 10.015625 52.203125 
Q 14.9375 54.109375 19.578125 55.046875 
Q 24.21875 56 28.609375 56 
Q 40.484375 56 46.34375 49.84375 
Q 52.203125 43.703125 52.203125 31.203125 
z
" id="DejaVuSans-61"/>
      <path d="M 9.421875 75.984375 
L 18.40625 75.984375 
L 18.40625 0 
L 9.421875 0 
z
" id="DejaVuSans-6c"/>
      <path d="M 30.078125 31.34375 
L 16.3125 -13.1875 
L 8.015625 -13.1875 
L 21.78125 31.34375 
L 8.015625 75.875 
L 16.3125 75.875 
z
" id="DejaVuSans-27e9"/>
     </defs>
     <g style="fill:#262626;" transform="translate(20.278438 115.95)rotate(-90)scale(0.1 -0.1)">
      <use transform="translate(0 0.125)" xlink:href="#DejaVuSans-27e8"/>
      <use transform="translate(39.013672 0.125)" xlink:href="#DejaVuSans-Oblique-71"/>
      <use transform="translate(102.490234 -16.28125)scale(0.7)" xlink:href="#DejaVuSans-74"/>
      <use transform="translate(129.936523 -16.28125)scale(0.7)" xlink:href="#DejaVuSans-6f"/>
      <use transform="translate(172.763672 -16.28125)scale(0.7)" xlink:href="#DejaVuSans-74"/>
      <use transform="translate(200.209961 -16.28125)scale(0.7)" xlink:href="#DejaVuSans-61"/>
      <use transform="translate(243.105469 -16.28125)scale(0.7)" xlink:href="#DejaVuSans-6c"/>
      <use transform="translate(265.288086 0.125)" xlink:href="#DejaVuSans-27e9"/>
     </g>
    </g>
   </g>
   <g id="line2d_11">
    <path clip-path="url(#pd86bce82d4)" d="M 51.995455 118.389729 
L 53.438545 118.454739 
L 54.881636 118.506568 
L 56.324727 118.547857 
L 57.767818 118.58073 
L 59.210909 118.606891 
L 60.654 118.627701 
L 62.097091 118.644251 
L 63.540182 118.657409 
L 64.983273 118.667869 
L 66.426364 118.676182 
L 67.869455 118.682789 
L 69.312545 118.688038 
L 70.755636 118.692209 
L 72.198727 118.695524 
L 73.641818 118.698156 
L 75.084909 118.700248 
L 76.528 118.70191 
L 77.971091 118.70323 
L 79.414182 118.704279 
L 80.857273 118.705112 
L 82.300364 118.705773 
L 83.743455 118.706299 
L 85.186545 118.706717 
L 86.629636 118.707048 
L 88.072727 118.707312 
L 89.515818 118.707521 
L 90.958909 118.707688 
L 92.402 118.70782 
L 93.845091 118.707925 
L 95.288182 118.708008 
L 96.731273 118.708075 
L 98.174364 118.708127 
L 99.617455 118.708169 
L 101.060545 118.708203 
L 102.503636 118.70823 
L 103.946727 118.708251 
L 105.389818 118.708269 
L 106.832909 118.708283 
L 108.276 118.708295 
L 109.719091 118.708305 
L 111.162182 118.708314 
L 112.605273 118.708321 
L 114.048364 118.708329 
L 115.491455 118.708336 
L 116.934545 118.708344 
L 118.377636 118.708353 
L 119.820727 118.708363 
L 121.263818 118.708374 
L 122.706909 118.708388 
L 124.15 118.708405 
L 125.593091 118.708427 
L 127.036182 118.708453 
L 128.479273 118.708486 
L 129.922364 118.708527 
L 131.365455 118.708579 
L 132.808545 118.708644 
L 134.251636 118.708726 
L 135.694727 118.70883 
L 137.137818 118.708959 
L 138.580909 118.709123 
L 140.024 118.709328 
L 141.467091 118.709587 
L 142.910182 118.709913 
L 144.353273 118.710323 
L 145.796364 118.71084 
L 147.239455 118.711489 
L 148.682545 118.712308 
L 150.125636 118.713338 
L 151.568727 118.714634 
L 153.011818 118.716267 
L 154.454909 118.718321 
L 155.898 118.720907 
L 157.341091 118.724162 
L 158.784182 118.72826 
L 160.227273 118.733416 
L 161.670364 118.739905 
L 163.113455 118.748071 
L 164.556545 118.758345 
L 165.999636 118.771271 
L 167.442727 118.787528 
L 168.885818 118.807971 
L 170.328909 118.833671 
L 171.772 118.865966 
L 173.215091 118.906532 
L 174.658182 118.957456 
L 176.101273 119.021336 
L 177.544364 119.101395 
L 178.987455 119.201615 
L 180.430545 119.326893 
L 181.873636 119.483213 
L 183.316727 119.677827 
L 184.759818 119.919443 
L 186.202909 120.218371 
L 187.646 120.586626 
L 189.089091 121.037896 
L 190.532182 121.587334 
L 191.975273 122.251056 
L 193.418364 123.045267 
L 194.861455 123.984914 
L 196.304545 125.081854 
" style="fill:none;opacity:0.9;stroke:#001c7f;stroke-linecap:round;stroke-width:1.5;"/>
   </g>
   <g id="line2d_12">
    <path clip-path="url(#pd86bce82d4)" d="M 51.995455 86.850776 
L 53.438545 86.915649 
L 54.881636 86.996945 
L 56.324727 87.098701 
L 57.767818 87.22588 
L 59.210909 87.384541 
L 60.654 87.582023 
L 62.097091 87.827125 
L 63.540182 88.130257 
L 64.983273 88.503517 
L 66.426364 88.960664 
L 67.869455 89.516869 
L 69.312545 90.188195 
L 70.755636 90.990675 
L 72.198727 91.938922 
L 73.641818 93.044248 
L 75.084909 94.312395 
L 76.528 95.74113 
L 77.971091 97.318188 
L 79.414182 99.020134 
L 80.857273 100.812715 
L 82.300364 102.653026 
L 83.743455 104.493337 
L 85.186545 106.285918 
L 86.629636 107.987864 
L 88.072727 109.564922 
L 89.515818 110.993657 
L 90.958909 112.261804 
L 92.402 113.36713 
L 93.845091 114.315377 
L 95.288182 115.117857 
L 96.731273 115.789183 
L 98.174364 116.345388 
L 99.617455 116.802534 
L 101.060545 117.175795 
L 102.503636 117.478926 
L 103.946727 117.724029 
L 105.389818 117.921511 
L 106.832909 118.080172 
L 108.276 118.20735 
L 109.719091 118.309106 
L 111.162182 118.390402 
L 112.605273 118.455276 
L 114.048364 118.506995 
L 115.491455 118.548197 
L 116.934545 118.581001 
L 118.377636 118.607107 
L 119.820727 118.627873 
L 121.263818 118.644388 
L 122.706909 118.657518 
L 124.15 118.667955 
L 125.593091 118.676251 
L 127.036182 118.682843 
L 128.479273 118.688082 
L 129.922364 118.692244 
L 131.365455 118.695551 
L 132.808545 118.698178 
L 134.251636 118.700265 
L 135.694727 118.701924 
L 137.137818 118.703241 
L 138.580909 118.704287 
L 140.024 118.705118 
L 141.467091 118.705779 
L 142.910182 118.706303 
L 144.353273 118.70672 
L 145.796364 118.707051 
L 147.239455 118.707314 
L 148.682545 118.707523 
L 150.125636 118.707688 
L 151.568727 118.70782 
L 153.011818 118.707925 
L 154.454909 118.708008 
L 155.898 118.708074 
L 157.341091 118.708127 
L 158.784182 118.708168 
L 160.227273 118.708201 
L 161.670364 118.708228 
L 163.113455 118.708249 
L 164.556545 118.708265 
L 165.999636 118.708278 
L 167.442727 118.708289 
L 168.885818 118.708297 
L 170.328909 118.708304 
L 171.772 118.708309 
L 173.215091 118.708313 
L 174.658182 118.708316 
L 176.101273 118.708319 
L 177.544364 118.708321 
L 178.987455 118.708323 
L 180.430545 118.708324 
L 181.873636 118.708325 
L 183.316727 118.708326 
L 184.759818 118.708327 
L 186.202909 118.708327 
L 187.646 118.708328 
L 189.089091 118.708328 
L 190.532182 118.708328 
L 191.975273 118.708328 
L 193.418364 118.708329 
L 194.861455 118.708329 
L 196.304545 118.708329 
" style="fill:none;opacity:0.7;stroke:#000000;stroke-linecap:round;stroke-width:1.5;"/>
   </g>
   <g id="line2d_13">
    <path clip-path="url(#pd86bce82d4)" d="M 51.995455 89.246828 
L 53.438545 89.335958 
L 54.881636 89.425187 
L 56.324727 89.517299 
L 57.767818 89.614562 
L 59.210909 89.718791 
L 60.654 89.831399 
L 62.097091 89.953454 
L 63.540182 90.085736 
L 64.983273 90.228791 
L 66.426364 90.382988 
L 67.869455 90.548575 
L 69.312545 90.725731 
L 70.755636 90.914604 
L 72.198727 91.115333 
L 73.641818 91.32805 
L 75.084909 91.552869 
L 76.528 91.789847 
L 77.971091 92.038958 
L 79.414182 92.300052 
L 80.857273 92.572841 
L 82.300364 92.856878 
L 83.743455 93.15156 
L 85.186545 93.456102 
L 86.629636 93.769536 
L 88.072727 94.090797 
L 89.515818 94.418996 
L 90.958909 94.753807 
L 92.402 95.095633 
L 93.845091 95.445291 
L 95.288182 95.803319 
L 96.731273 96.169389 
L 98.174364 96.542164 
L 99.617455 96.919748 
L 101.060545 97.300447 
L 102.503636 97.683203 
L 103.946727 98.067305 
L 105.389818 98.451875 
L 106.832909 98.835857 
L 108.276 99.218364 
L 109.719091 99.598634 
L 111.162182 99.975371 
L 112.605273 100.346095 
L 114.048364 100.707184 
L 115.491455 101.054551 
L 116.934545 101.384308 
L 118.377636 101.692953 
L 119.820727 101.977189 
L 121.263818 102.233538 
L 122.706909 102.457864 
L 124.15 102.645139 
L 125.593091 102.789776 
L 127.036182 102.886404 
L 128.479273 102.930803 
L 129.922364 102.920671 
L 131.365455 102.855852 
L 132.808545 102.737947 
L 134.251636 102.569646 
L 135.694727 102.354206 
L 137.137818 102.095282 
L 138.580909 101.797014 
L 140.024 101.4641 
L 141.467091 101.101628 
L 142.910182 100.714849 
L 144.353273 100.308995 
L 145.796364 99.888745 
L 147.239455 99.457451 
L 148.682545 99.017049 
L 150.125636 98.569171 
L 151.568727 98.116491 
L 153.011818 97.663047 
L 154.454909 97.21336 
L 155.898 96.771282 
L 157.341091 96.339509 
L 158.784182 95.919908 
L 160.227273 95.514164 
L 161.670364 95.12425 
L 163.113455 94.752454 
L 164.556545 94.401033 
L 165.999636 94.071948 
L 167.442727 93.767032 
L 168.885818 93.488431 
L 170.328909 93.238871 
L 171.772 93.021666 
L 173.215091 92.840627 
L 174.658182 92.700009 
L 176.101273 92.604493 
L 177.544364 92.559164 
L 178.987455 92.569483 
L 180.430545 92.641318 
L 181.873636 92.781081 
L 183.316727 92.995985 
L 184.759818 93.294323 
L 186.202909 93.685712 
L 187.646 94.181249 
L 189.089091 94.793476 
L 190.532182 95.536117 
L 191.975273 96.423467 
L 193.418364 97.469375 
L 194.861455 98.685751 
L 196.304545 100.080582 
" style="fill:none;opacity:0.45;stroke:#001c7f;stroke-dasharray:2.775,1.2;stroke-dashoffset:0;stroke-width:0.75;"/>
   </g>
   <g id="line2d_14">
    <path clip-path="url(#pd86bce82d4)" d="M 51.995455 147.532631 
L 53.438545 147.57352 
L 54.881636 147.587948 
L 56.324727 147.578415 
L 57.767818 147.546899 
L 59.210909 147.494991 
L 60.654 147.424004 
L 62.097091 147.335048 
L 63.540182 147.229083 
L 64.983273 147.106947 
L 66.426364 146.969377 
L 67.869455 146.817002 
L 69.312545 146.650345 
L 70.755636 146.469815 
L 72.198727 146.275714 
L 73.641818 146.068263 
L 75.084909 145.847627 
L 76.528 145.613972 
L 77.971091 145.367502 
L 79.414182 145.108505 
L 80.857273 144.837383 
L 82.300364 144.554668 
L 83.743455 144.261038 
L 85.186545 143.957331 
L 86.629636 143.644561 
L 88.072727 143.323827 
L 89.515818 142.996046 
L 90.958909 142.661568 
L 92.402 142.320006 
L 93.845091 141.970559 
L 95.288182 141.612697 
L 96.731273 141.24676 
L 98.174364 140.87409 
L 99.617455 140.496591 
L 101.060545 140.115959 
L 102.503636 139.733257 
L 103.946727 139.349198 
L 105.389818 138.964663 
L 106.832909 138.58071 
L 108.276 138.198226 
L 109.719091 137.817976 
L 111.162182 137.441256 
L 112.605273 137.070548 
L 114.048364 136.709474 
L 115.491455 136.362121 
L 116.934545 136.03238 
L 118.377636 135.723753 
L 119.820727 135.439537 
L 121.263818 135.18321 
L 122.706909 134.958913 
L 124.15 134.771672 
L 125.593091 134.627077 
L 127.036182 134.530502 
L 128.479273 134.486169 
L 129.922364 134.496383 
L 131.365455 134.561306 
L 132.808545 134.679342 
L 134.251636 134.847807 
L 135.694727 135.063453 
L 137.137818 135.322637 
L 138.580909 135.621232 
L 140.024 135.954556 
L 141.467091 136.317547 
L 142.910182 136.704977 
L 144.353273 137.111652 
L 145.796364 137.532934 
L 147.239455 137.965528 
L 148.682545 138.407567 
L 150.125636 138.857504 
L 151.568727 139.312778 
L 153.011818 139.769486 
L 154.454909 140.223282 
L 155.898 140.670532 
L 157.341091 141.108816 
L 158.784182 141.536611 
L 160.227273 141.952667 
L 161.670364 142.35556 
L 163.113455 142.743688 
L 164.556545 143.115658 
L 165.999636 143.470593 
L 167.442727 143.808023 
L 168.885818 144.127511 
L 170.328909 144.42847 
L 171.772 144.710266 
L 173.215091 144.972437 
L 174.658182 145.214903 
L 176.101273 145.438179 
L 177.544364 145.643626 
L 178.987455 145.833747 
L 180.430545 146.012469 
L 181.873636 146.185344 
L 183.316727 146.359669 
L 184.759818 146.544563 
L 186.202909 146.75103 
L 187.646 146.992003 
L 189.089091 147.282316 
L 190.532182 147.638551 
L 191.975273 148.078645 
L 193.418364 148.621158 
L 194.861455 149.284076 
L 196.304545 150.083126 
" style="fill:none;opacity:0.45;stroke:#001c7f;stroke-dasharray:2.775,1.2;stroke-dashoffset:0;stroke-width:0.75;"/>
   </g>
   <g id="line2d_15">
    <path clip-path="url(#pd86bce82d4)" d="M 51.995455 87.00017 
L 53.438545 87.102735 
L 54.881636 87.230917 
L 56.324727 87.390818 
L 57.767818 87.589825 
L 59.210909 87.836794 
L 60.654 88.142189 
L 62.097091 88.518174 
L 63.540182 88.978559 
L 64.983273 89.538559 
L 66.426364 90.214256 
L 67.869455 91.021657 
L 69.312545 91.975294 
L 70.755636 93.086323 
L 72.198727 94.360243 
L 73.641818 95.794499 
L 75.084909 97.376443 
L 76.528 99.082239 
L 77.971091 100.877281 
L 79.414182 102.718422 
L 80.857273 104.557844 
L 82.300364 106.347908 
L 83.743455 108.045961 
L 85.186545 109.618105 
L 86.629636 111.041304 
L 88.072727 112.303674 
L 89.515818 113.403306 
L 90.958909 114.346177 
L 92.402 115.143754 
L 93.845091 115.81073 
L 95.288182 116.36316 
L 96.731273 116.817087 
L 98.174364 117.187641 
L 99.617455 117.488523 
L 101.060545 117.731774 
L 102.503636 117.927742 
L 103.946727 118.085172 
L 105.389818 118.211355 
L 106.832909 118.31231 
L 108.276 118.392962 
L 109.719091 118.457319 
L 111.162182 118.508627 
L 112.605273 118.549501 
L 114.048364 118.582044 
L 115.491455 118.607942 
L 116.934545 118.628546 
L 118.377636 118.644932 
L 119.820727 118.657963 
L 121.263818 118.668325 
L 122.706909 118.676564 
L 124.15 118.683117 
L 125.593091 118.688331 
L 127.036182 118.692481 
L 128.479273 118.695789 
L 129.922364 118.69843 
L 131.365455 118.700545 
L 132.808545 118.702245 
L 134.251636 118.703621 
L 135.694727 118.704747 
L 137.137818 118.705682 
L 138.580909 118.706476 
L 140.024 118.707171 
L 141.467091 118.707805 
L 142.910182 118.708411 
L 144.353273 118.709021 
L 145.796364 118.709669 
L 147.239455 118.710387 
L 148.682545 118.711215 
L 150.125636 118.712197 
L 151.568727 118.713384 
L 153.011818 118.714841 
L 154.454909 118.716644 
L 155.898 118.718889 
L 157.341091 118.721697 
L 158.784182 118.725215 
L 160.227273 118.729631 
L 161.670364 118.735179 
L 163.113455 118.742153 
L 164.556545 118.750923 
L 165.999636 118.761952 
L 167.442727 118.775822 
L 168.885818 118.793264 
L 170.328909 118.815192 
L 171.772 118.842754 
L 173.215091 118.877383 
L 174.658182 118.920873 
L 176.101273 118.975455 
L 177.544364 119.043905 
L 178.987455 119.129664 
L 180.430545 119.236977 
L 181.873636 119.371052 
L 183.316727 119.538245 
L 184.759818 119.746234 
L 186.202909 120.004204 
L 187.646 120.322985 
L 189.089091 120.715118 
L 190.532182 121.19478 
L 191.975273 121.777498 
L 193.418364 122.479549 
L 194.861455 123.316942 
L 196.304545 124.303932 
" style="fill:none;opacity:0.9;stroke:#b1400d;stroke-linecap:round;stroke-width:1.5;"/>
   </g>
   <g id="line2d_16">
    <path clip-path="url(#pd86bce82d4)" d="M 51.995455 86.850776 
L 53.438545 86.915649 
L 54.881636 86.996945 
L 56.324727 87.098701 
L 57.767818 87.22588 
L 59.210909 87.384541 
L 60.654 87.582023 
L 62.097091 87.827125 
L 63.540182 88.130257 
L 64.983273 88.503517 
L 66.426364 88.960664 
L 67.869455 89.516869 
L 69.312545 90.188195 
L 70.755636 90.990675 
L 72.198727 91.938922 
L 73.641818 93.044248 
L 75.084909 94.312395 
L 76.528 95.74113 
L 77.971091 97.318188 
L 79.414182 99.020134 
L 80.857273 100.812715 
L 82.300364 102.653026 
L 83.743455 104.493337 
L 85.186545 106.285918 
L 86.629636 107.987864 
L 88.072727 109.564922 
L 89.515818 110.993657 
L 90.958909 112.261804 
L 92.402 113.36713 
L 93.845091 114.315377 
L 95.288182 115.117857 
L 96.731273 115.789183 
L 98.174364 116.345388 
L 99.617455 116.802534 
L 101.060545 117.175795 
L 102.503636 117.478926 
L 103.946727 117.724029 
L 105.389818 117.921511 
L 106.832909 118.080172 
L 108.276 118.20735 
L 109.719091 118.309106 
L 111.162182 118.390402 
L 112.605273 118.455276 
L 114.048364 118.506995 
L 115.491455 118.548197 
L 116.934545 118.581001 
L 118.377636 118.607107 
L 119.820727 118.627873 
L 121.263818 118.644388 
L 122.706909 118.657518 
L 124.15 118.667955 
L 125.593091 118.676251 
L 127.036182 118.682843 
L 128.479273 118.688082 
L 129.922364 118.692244 
L 131.365455 118.695551 
L 132.808545 118.698178 
L 134.251636 118.700265 
L 135.694727 118.701924 
L 137.137818 118.703241 
L 138.580909 118.704287 
L 140.024 118.705118 
L 141.467091 118.705779 
L 142.910182 118.706303 
L 144.353273 118.70672 
L 145.796364 118.707051 
L 147.239455 118.707314 
L 148.682545 118.707523 
L 150.125636 118.707688 
L 151.568727 118.70782 
L 153.011818 118.707925 
L 154.454909 118.708008 
L 155.898 118.708074 
L 157.341091 118.708127 
L 158.784182 118.708168 
L 160.227273 118.708201 
L 161.670364 118.708228 
L 163.113455 118.708249 
L 164.556545 118.708265 
L 165.999636 118.708278 
L 167.442727 118.708289 
L 168.885818 118.708297 
L 170.328909 118.708304 
L 171.772 118.708309 
L 173.215091 118.708313 
L 174.658182 118.708316 
L 176.101273 118.708319 
L 177.544364 118.708321 
L 178.987455 118.708323 
L 180.430545 118.708324 
L 181.873636 118.708325 
L 183.316727 118.708326 
L 184.759818 118.708327 
L 186.202909 118.708327 
L 187.646 118.708328 
L 189.089091 118.708328 
L 190.532182 118.708328 
L 191.975273 118.708328 
L 193.418364 118.708329 
L 194.861455 118.708329 
L 196.304545 118.708329 
" style="fill:none;opacity:0.7;stroke:#000000;stroke-linecap:round;stroke-width:1.5;"/>
   </g>
   <g id="line2d_17">
    <path clip-path="url(#pd86bce82d4)" d="M 51.995455 66.420507 
L 53.438545 66.042174 
L 54.881636 65.696468 
L 56.324727 65.392269 
L 57.767818 65.139749 
L 59.210909 64.950627 
L 60.654 64.838401 
L 62.097091 64.81848 
L 63.540182 64.908158 
L 64.983273 65.126327 
L 66.426364 65.492854 
L 67.869455 66.027506 
L 69.312545 66.748386 
L 70.755636 67.669884 
L 72.198727 68.800275 
L 73.641818 70.13926 
L 75.084909 71.675903 
L 76.528 73.387569 
L 77.971091 75.240397 
L 79.414182 77.191609 
L 80.857273 79.19346 
L 82.300364 81.198145 
L 83.743455 83.16265 
L 85.186545 85.052527 
L 86.629636 86.843983 
L 88.072727 88.524147 
L 89.515818 90.089862 
L 90.958909 91.545594 
L 92.402 92.901037 
L 93.845091 94.168872 
L 95.288182 95.362921 
L 96.731273 96.496805 
L 98.174364 97.583064 
L 99.617455 98.632658 
L 101.060545 99.654774 
L 102.503636 100.656802 
L 103.946727 101.644425 
L 105.389818 102.621729 
L 106.832909 103.591292 
L 108.276 104.554226 
L 109.719091 105.510147 
L 111.162182 106.457056 
L 112.605273 107.391099 
L 114.048364 108.306157 
L 115.491455 109.193232 
L 116.934545 110.039617 
L 118.377636 110.827941 
L 119.820727 111.535391 
L 121.263818 112.133849 
L 122.706909 112.592291 
L 124.15 112.882844 
L 125.593091 112.989922 
L 127.036182 112.917726 
L 128.479273 112.690083 
L 129.922364 112.342365 
L 131.365455 111.911523 
L 132.808545 111.429554 
L 134.251636 110.921163 
L 135.694727 110.403982 
L 137.137818 109.889766 
L 138.580909 109.38573 
L 140.024 108.895734 
L 141.467091 108.421233 
L 142.910182 107.961994 
L 144.353273 107.516607 
L 145.796364 107.082836 
L 147.239455 106.65786 
L 148.682545 106.238447 
L 150.125636 105.821121 
L 151.568727 105.402353 
L 153.011818 104.978789 
L 154.454909 104.547512 
L 155.898 104.106293 
L 157.341091 103.653787 
L 158.784182 103.189598 
L 160.227273 102.71422 
L 161.670364 102.22884 
L 163.113455 101.735085 
L 164.556545 101.234764 
L 165.999636 100.729684 
L 167.442727 100.221553 
L 168.885818 99.711973 
L 170.328909 99.202508 
L 171.772 98.694807 
L 173.215091 98.19077 
L 174.658182 97.692727 
L 176.101273 97.203612 
L 177.544364 96.727113 
L 178.987455 96.267802 
L 180.430545 95.831264 
L 181.873636 95.42421 
L 183.316727 95.054557 
L 184.759818 94.731465 
L 186.202909 94.465374 
L 187.646 94.268076 
L 189.089091 94.152834 
L 190.532182 94.134463 
L 191.975273 94.229257 
L 193.418364 94.454557 
L 194.861455 94.827829 
L 196.304545 95.365136 
" style="fill:none;opacity:0.45;stroke:#b1400d;stroke-dasharray:2.775,1.2;stroke-dashoffset:0;stroke-width:0.75;"/>
   </g>
   <g id="line2d_18">
    <path clip-path="url(#pd86bce82d4)" d="M 51.995455 107.579832 
L 53.438545 108.163296 
L 54.881636 108.765366 
L 56.324727 109.389366 
L 57.767818 110.039902 
L 59.210909 110.72296 
L 60.654 111.445978 
L 62.097091 112.217867 
L 63.540182 113.04896 
L 64.983273 113.950792 
L 66.426364 114.935658 
L 67.869455 116.015808 
L 69.312545 117.202202 
L 70.755636 118.502763 
L 72.198727 119.920211 
L 73.641818 121.449737 
L 75.084909 123.076982 
L 76.528 124.776909 
L 77.971091 126.514166 
L 79.414182 128.245235 
L 80.857273 129.922228 
L 82.300364 131.497671 
L 83.743455 132.929272 
L 85.186545 134.183683 
L 86.629636 135.238625 
L 88.072727 136.083202 
L 89.515818 136.71675 
L 90.958909 137.14676 
L 92.402 137.386471 
L 93.845091 137.452589 
L 95.288182 137.363399 
L 96.731273 137.137368 
L 98.174364 136.792219 
L 99.617455 136.344388 
L 101.060545 135.808774 
L 102.503636 135.198682 
L 103.946727 134.525919 
L 105.389818 133.800982 
L 106.832909 133.033327 
L 108.276 132.231697 
L 109.719091 131.404492 
L 111.162182 130.560198 
L 112.605273 129.707903 
L 114.048364 128.857931 
L 115.491455 128.022653 
L 116.934545 127.217474 
L 118.377636 126.461924 
L 119.820727 125.780536 
L 121.263818 125.202801 
L 122.706909 124.760838 
L 124.15 124.483391 
L 125.593091 124.386739 
L 127.036182 124.467237 
L 128.479273 124.701496 
L 129.922364 125.054496 
L 131.365455 125.489566 
L 132.808545 125.974936 
L 134.251636 126.486079 
L 135.694727 127.005511 
L 137.137818 127.521597 
L 138.580909 128.027222 
L 140.024 128.518609 
L 141.467091 128.994377 
L 142.910182 129.454829 
L 144.353273 129.901436 
L 145.796364 130.336501 
L 147.239455 130.762914 
L 148.682545 131.183983 
L 150.125636 131.603273 
L 151.568727 132.024415 
L 153.011818 132.450892 
L 154.454909 132.885776 
L 155.898 133.331485 
L 157.341091 133.789607 
L 158.784182 134.260831 
L 160.227273 134.745042 
L 161.670364 135.241518 
L 163.113455 135.749222 
L 164.556545 136.267082 
L 165.999636 136.79422 
L 167.442727 137.330091 
L 168.885818 137.874554 
L 170.328909 138.427876 
L 171.772 138.9907 
L 173.215091 139.563997 
L 174.658182 140.149019 
L 176.101273 140.747297 
L 177.544364 141.360697 
L 178.987455 141.991526 
L 180.430545 142.642689 
L 181.873636 143.317895 
L 183.316727 144.021933 
L 184.759818 144.761003 
L 186.202909 145.543035 
L 187.646 146.377894 
L 189.089091 147.277402 
L 190.532182 148.255096 
L 191.975273 149.325739 
L 193.418364 150.50454 
L 194.861455 151.806054 
L 196.304545 153.242727 
" style="fill:none;opacity:0.45;stroke:#b1400d;stroke-dasharray:2.775,1.2;stroke-dashoffset:0;stroke-width:0.75;"/>
   </g>
   <g id="line2d_19">
    <path clip-path="url(#pd86bce82d4)" d="M 51.995455 69.503976 
L 53.438545 71.453525 
L 54.881636 73.418991 
L 56.324727 75.359524 
L 57.767818 77.241331 
L 59.210909 79.041372 
L 60.654 80.749267 
L 62.097091 82.367373 
L 63.540182 83.909333 
L 64.983273 85.397621 
L 66.426364 86.860556 
L 67.869455 88.329119 
L 69.312545 89.833704 
L 70.755636 91.400889 
L 72.198727 93.050292 
L 73.641818 94.791735 
L 75.084909 96.623088 
L 76.528 98.529313 
L 77.971091 100.483178 
L 79.414182 102.447846 
L 80.857273 104.381082 
L 82.300364 106.240328 
L 83.743455 107.987612 
L 85.186545 109.593306 
L 86.629636 111.038154 
L 88.072727 112.313493 
L 89.515818 113.42003 
L 90.958909 114.365774 
L 92.402 115.163697 
L 93.845091 115.829552 
L 95.288182 116.380113 
L 96.731273 116.831881 
L 98.174364 117.200266 
L 99.617455 117.499121 
L 101.060545 117.74056 
L 102.503636 117.934959 
L 103.946727 118.091057 
L 105.389818 118.216128 
L 106.832909 118.316163 
L 108.276 118.396062 
L 109.719091 118.459807 
L 111.162182 118.510619 
L 112.605273 118.551093 
L 114.048364 118.583315 
L 115.491455 118.608956 
L 116.934545 118.629353 
L 118.377636 118.645576 
L 119.820727 118.658475 
L 121.263818 118.668732 
L 122.706909 118.676888 
L 124.15 118.683375 
L 125.593091 118.688536 
L 127.036182 118.692644 
L 128.479273 118.695919 
L 129.922364 118.698533 
L 131.365455 118.700627 
L 132.808545 118.70231 
L 134.251636 118.703673 
L 135.694727 118.704788 
L 137.137818 118.705715 
L 138.580909 118.706502 
L 140.024 118.707193 
L 141.467091 118.707822 
L 142.910182 118.708425 
L 144.353273 118.709033 
L 145.796364 118.709678 
L 147.239455 118.710396 
L 148.682545 118.711223 
L 150.125636 118.712204 
L 151.568727 118.713391 
L 153.011818 118.714848 
L 154.454909 118.716652 
L 155.898 118.718899 
L 157.341091 118.721708 
L 158.784182 118.725228 
L 160.227273 118.729647 
L 161.670364 118.735199 
L 163.113455 118.742178 
L 164.556545 118.750954 
L 165.999636 118.761991 
L 167.442727 118.775871 
L 168.885818 118.793325 
L 170.328909 118.815268 
L 171.772 118.842848 
L 173.215091 118.877501 
L 174.658182 118.921019 
L 176.101273 118.975635 
L 177.544364 119.044126 
L 178.987455 119.129933 
L 180.430545 119.2373 
L 181.873636 119.371437 
L 183.316727 119.538694 
L 184.759818 119.746745 
L 186.202909 120.004762 
L 187.646 120.323557 
L 189.089091 120.715637 
L 190.532182 121.195129 
L 191.975273 121.77748 
L 193.418364 122.478848 
L 194.861455 123.315069 
L 196.304545 124.300154 
" style="fill:none;opacity:0.9;stroke:#12711c;stroke-linecap:round;stroke-width:1.5;"/>
   </g>
   <g id="line2d_20">
    <path clip-path="url(#pd86bce82d4)" d="M 51.995455 86.850776 
L 53.438545 86.915649 
L 54.881636 86.996945 
L 56.324727 87.098701 
L 57.767818 87.22588 
L 59.210909 87.384541 
L 60.654 87.582023 
L 62.097091 87.827125 
L 63.540182 88.130257 
L 64.983273 88.503517 
L 66.426364 88.960664 
L 67.869455 89.516869 
L 69.312545 90.188195 
L 70.755636 90.990675 
L 72.198727 91.938922 
L 73.641818 93.044248 
L 75.084909 94.312395 
L 76.528 95.74113 
L 77.971091 97.318188 
L 79.414182 99.020134 
L 80.857273 100.812715 
L 82.300364 102.653026 
L 83.743455 104.493337 
L 85.186545 106.285918 
L 86.629636 107.987864 
L 88.072727 109.564922 
L 89.515818 110.993657 
L 90.958909 112.261804 
L 92.402 113.36713 
L 93.845091 114.315377 
L 95.288182 115.117857 
L 96.731273 115.789183 
L 98.174364 116.345388 
L 99.617455 116.802534 
L 101.060545 117.175795 
L 102.503636 117.478926 
L 103.946727 117.724029 
L 105.389818 117.921511 
L 106.832909 118.080172 
L 108.276 118.20735 
L 109.719091 118.309106 
L 111.162182 118.390402 
L 112.605273 118.455276 
L 114.048364 118.506995 
L 115.491455 118.548197 
L 116.934545 118.581001 
L 118.377636 118.607107 
L 119.820727 118.627873 
L 121.263818 118.644388 
L 122.706909 118.657518 
L 124.15 118.667955 
L 125.593091 118.676251 
L 127.036182 118.682843 
L 128.479273 118.688082 
L 129.922364 118.692244 
L 131.365455 118.695551 
L 132.808545 118.698178 
L 134.251636 118.700265 
L 135.694727 118.701924 
L 137.137818 118.703241 
L 138.580909 118.704287 
L 140.024 118.705118 
L 141.467091 118.705779 
L 142.910182 118.706303 
L 144.353273 118.70672 
L 145.796364 118.707051 
L 147.239455 118.707314 
L 148.682545 118.707523 
L 150.125636 118.707688 
L 151.568727 118.70782 
L 153.011818 118.707925 
L 154.454909 118.708008 
L 155.898 118.708074 
L 157.341091 118.708127 
L 158.784182 118.708168 
L 160.227273 118.708201 
L 161.670364 118.708228 
L 163.113455 118.708249 
L 164.556545 118.708265 
L 165.999636 118.708278 
L 167.442727 118.708289 
L 168.885818 118.708297 
L 170.328909 118.708304 
L 171.772 118.708309 
L 173.215091 118.708313 
L 174.658182 118.708316 
L 176.101273 118.708319 
L 177.544364 118.708321 
L 178.987455 118.708323 
L 180.430545 118.708324 
L 181.873636 118.708325 
L 183.316727 118.708326 
L 184.759818 118.708327 
L 186.202909 118.708327 
L 187.646 118.708328 
L 189.089091 118.708328 
L 190.532182 118.708328 
L 191.975273 118.708328 
L 193.418364 118.708329 
L 194.861455 118.708329 
L 196.304545 118.708329 
" style="fill:none;opacity:0.7;stroke:#000000;stroke-linecap:round;stroke-width:1.5;"/>
   </g>
   <g id="line2d_21">
    <path clip-path="url(#pd86bce82d4)" d="M 51.995455 32.281818 
L 53.438545 34.034685 
L 54.881636 35.833345 
L 56.324727 37.63869 
L 57.767818 39.418456 
L 59.210909 41.150981 
L 60.654 42.827233 
L 62.097091 44.45094 
L 63.540182 46.037102 
L 64.983273 47.609408 
L 66.426364 49.197107 
L 67.869455 50.831769 
L 69.312545 52.544114 
L 70.755636 54.360915 
L 72.198727 56.301987 
L 73.641818 58.377377 
L 75.084909 60.585178 
L 76.528 62.910486 
L 77.971091 65.325997 
L 79.414182 67.794491 
L 80.857273 70.272965 
L 82.300364 72.717757 
L 83.743455 75.089597 
L 85.186545 77.357543 
L 86.629636 79.501081 
L 88.072727 81.510304 
L 89.515818 83.384607 
L 90.958909 85.130609 
L 92.402 86.759853 
L 93.845091 88.286663 
L 95.288182 89.726339 
L 96.731273 91.093807 
L 98.174364 92.402791 
L 99.617455 93.665463 
L 101.060545 94.892442 
L 102.503636 96.092932 
L 103.946727 97.274841 
L 105.389818 98.444787 
L 106.832909 99.60795 
L 108.276 100.76776 
L 109.719091 101.925438 
L 111.162182 103.079484 
L 112.605273 104.225142 
L 114.048364 105.353788 
L 115.491455 106.452138 
L 116.934545 107.501174 
L 118.377636 108.474937 
L 119.820727 109.339637 
L 121.263818 110.054241 
L 122.706909 110.57451 
L 124.15 110.862292 
L 125.593091 110.8984 
L 127.036182 110.691708 
L 128.479273 110.2769 
L 129.922364 109.702484 
L 131.365455 109.017837 
L 132.808545 108.265394 
L 134.251636 107.478155 
L 135.694727 106.680201 
L 137.137818 105.888265 
L 138.580909 105.113348 
L 140.024 104.362065 
L 141.467091 103.637715 
L 142.910182 102.941181 
L 144.353273 102.271728 
L 145.796364 101.627721 
L 147.239455 101.007189 
L 148.682545 100.40819 
L 150.125636 99.828962 
L 151.568727 99.267913 
L 153.011818 98.723532 
L 154.454909 98.19428 
L 155.898 97.678526 
L 157.341091 97.174548 
L 158.784182 96.680588 
L 160.227273 96.194947 
L 161.670364 95.716084 
L 163.113455 95.242708 
L 164.556545 94.773874 
L 165.999636 94.309095 
L 167.442727 93.848459 
L 168.885818 93.392738 
L 170.328909 92.943461 
L 171.772 92.502911 
L 173.215091 92.074074 
L 174.658182 91.660559 
L 176.101273 91.266534 
L 177.544364 90.896721 
L 178.987455 90.556429 
L 180.430545 90.25165 
L 181.873636 89.989175 
L 183.316727 89.776756 
L 184.759818 89.623282 
L 186.202909 89.538964 
L 187.646 89.535497 
L 189.089091 89.626159 
L 190.532182 89.825757 
L 191.975273 90.150364 
L 193.418364 90.616709 
L 194.861455 91.241146 
L 196.304545 92.038135 
" style="fill:none;opacity:0.45;stroke:#12711c;stroke-dasharray:2.775,1.2;stroke-dashoffset:0;stroke-width:0.75;"/>
   </g>
   <g id="line2d_22">
    <path clip-path="url(#pd86bce82d4)" d="M 51.995455 106.726133 
L 53.438545 108.872364 
L 54.881636 111.004637 
L 56.324727 113.080357 
L 57.767818 115.064207 
L 59.210909 116.931762 
L 60.654 118.6713 
L 62.097091 120.283806 
L 63.540182 121.781565 
L 64.983273 123.185834 
L 66.426364 124.524006 
L 67.869455 125.826469 
L 69.312545 127.123294 
L 70.755636 128.440862 
L 72.198727 129.798597 
L 73.641818 131.206094 
L 75.084909 132.660998 
L 76.528 134.14814 
L 77.971091 135.640359 
L 79.414182 137.101201 
L 80.857273 138.489198 
L 82.300364 139.7629 
L 83.743455 140.885628 
L 85.186545 141.829069 
L 86.629636 142.575227 
L 88.072727 143.116682 
L 89.515818 143.455453 
L 90.958909 143.60094 
L 92.402 143.56754 
L 93.845091 143.372441 
L 95.288182 143.033886 
L 96.731273 142.569956 
L 98.174364 141.997741 
L 99.617455 141.332779 
L 101.060545 140.588679 
L 102.503636 139.776985 
L 103.946727 138.907273 
L 105.389818 137.987468 
L 106.832909 137.024375 
L 108.276 136.024364 
L 109.719091 134.994176 
L 111.162182 133.941754 
L 112.605273 132.877045 
L 114.048364 131.812842 
L 115.491455 130.765775 
L 116.934545 129.757533 
L 118.377636 128.816214 
L 119.820727 127.977313 
L 121.263818 127.283224 
L 122.706909 126.779266 
L 124.15 126.504458 
L 125.593091 126.478672 
L 127.036182 126.693581 
L 128.479273 127.114937 
L 129.922364 127.694582 
L 131.365455 128.383416 
L 132.808545 129.139226 
L 134.251636 129.929191 
L 135.694727 130.729376 
L 137.137818 131.523165 
L 138.580909 132.299657 
L 140.024 133.052321 
L 141.467091 133.77793 
L 142.910182 134.475669 
L 144.353273 135.146338 
L 145.796364 135.791636 
L 147.239455 136.413602 
L 148.682545 137.014255 
L 150.125636 137.595446 
L 151.568727 138.15887 
L 153.011818 138.706165 
L 154.454909 139.239024 
L 155.898 139.759271 
L 157.341091 140.268867 
L 158.784182 140.769869 
L 160.227273 141.264348 
L 161.670364 141.754314 
L 163.113455 142.241649 
L 164.556545 142.728035 
L 165.999636 143.214887 
L 167.442727 143.703283 
L 168.885818 144.193911 
L 170.328909 144.687075 
L 171.772 145.182786 
L 173.215091 145.680928 
L 174.658182 146.181479 
L 176.101273 146.684735 
L 177.544364 147.191531 
L 178.987455 147.703436 
L 180.430545 148.222951 
L 181.873636 148.7537 
L 183.316727 149.300632 
L 184.759818 149.870207 
L 186.202909 150.470561 
L 187.646 151.111616 
L 189.089091 151.805115 
L 190.532182 152.5645 
L 191.975273 153.404597 
L 193.418364 154.340988 
L 194.861455 155.388992 
L 196.304545 156.562173 
" style="fill:none;opacity:0.45;stroke:#12711c;stroke-dasharray:2.775,1.2;stroke-dashoffset:0;stroke-width:0.75;"/>
   </g>
   <g id="line2d_23">
    <path clip-path="url(#pd86bce82d4)" d="M 51.995455 92.800576 
L 53.438545 94.034682 
L 54.881636 95.430609 
L 56.324727 96.978318 
L 57.767818 98.656728 
L 59.210909 100.433722 
L 60.654 102.267932 
L 62.097091 104.112256 
L 63.540182 105.918548 
L 64.983273 107.642537 
L 66.426364 109.247928 
L 67.869455 110.708944 
L 69.312545 112.011043 
L 70.755636 113.150054 
L 72.198727 114.130248 
L 73.641818 114.961976 
L 75.084909 115.659332 
L 76.528 116.238185 
L 77.971091 116.714681 
L 79.414182 117.104235 
L 80.857273 117.420925 
L 82.300364 117.677205 
L 83.743455 117.883833 
L 85.186545 118.049932 
L 86.629636 118.183131 
L 88.072727 118.289741 
L 89.515818 118.37494 
L 90.958909 118.442942 
L 92.402 118.497166 
L 93.845091 118.54037 
L 95.288182 118.574772 
L 96.731273 118.602151 
L 98.174364 118.623933 
L 99.617455 118.641256 
L 101.060545 118.65503 
L 102.503636 118.66598 
L 103.946727 118.674685 
L 105.389818 118.681603 
L 106.832909 118.687101 
L 108.276 118.691471 
L 109.719091 118.694945 
L 111.162182 118.697707 
L 112.605273 118.699904 
L 114.048364 118.701653 
L 115.491455 118.703047 
L 116.934545 118.704159 
L 118.377636 118.705049 
L 119.820727 118.705765 
L 121.263818 118.706344 
L 122.706909 118.706818 
L 124.15 118.707211 
L 125.593091 118.707544 
L 127.036182 118.707836 
L 128.479273 118.708102 
L 129.922364 118.708355 
L 131.365455 118.70861 
L 132.808545 118.708879 
L 134.251636 118.709178 
L 135.694727 118.709523 
L 137.137818 118.70993 
L 138.580909 118.710423 
L 140.024 118.711028 
L 141.467091 118.711776 
L 142.910182 118.712707 
L 144.353273 118.713872 
L 145.796364 118.715332 
L 147.239455 118.717164 
L 148.682545 118.719466 
L 150.125636 118.722361 
L 151.568727 118.726003 
L 153.011818 118.730583 
L 154.454909 118.736347 
L 155.898 118.743598 
L 157.341091 118.752721 
L 158.784182 118.764199 
L 160.227273 118.778636 
L 161.670364 118.796791 
L 163.113455 118.819619 
L 164.556545 118.84831 
L 165.999636 118.884357 
L 167.442727 118.929622 
L 168.885818 118.986424 
L 170.328909 119.057647 
L 171.772 119.14686 
L 173.215091 119.258462 
L 174.658182 119.397846 
L 176.101273 119.571581 
L 177.544364 119.787586 
L 178.987455 120.055311 
L 180.430545 120.385858 
L 181.873636 120.792027 
L 183.316727 121.288203 
L 184.759818 121.890009 
L 186.202909 122.613634 
L 187.646 123.474721 
L 189.089091 124.486772 
L 190.532182 125.659089 
L 191.975273 126.994403 
L 193.418364 128.486546 
L 194.861455 130.118701 
L 196.304545 131.862819 
" style="fill:none;opacity:0.9;stroke:#8c0800;stroke-linecap:round;stroke-width:1.5;"/>
   </g>
   <g id="line2d_24">
    <path clip-path="url(#pd86bce82d4)" d="M 51.995455 86.850776 
L 53.438545 86.915649 
L 54.881636 86.996945 
L 56.324727 87.098701 
L 57.767818 87.22588 
L 59.210909 87.384541 
L 60.654 87.582023 
L 62.097091 87.827125 
L 63.540182 88.130257 
L 64.983273 88.503517 
L 66.426364 88.960664 
L 67.869455 89.516869 
L 69.312545 90.188195 
L 70.755636 90.990675 
L 72.198727 91.938922 
L 73.641818 93.044248 
L 75.084909 94.312395 
L 76.528 95.74113 
L 77.971091 97.318188 
L 79.414182 99.020134 
L 80.857273 100.812715 
L 82.300364 102.653026 
L 83.743455 104.493337 
L 85.186545 106.285918 
L 86.629636 107.987864 
L 88.072727 109.564922 
L 89.515818 110.993657 
L 90.958909 112.261804 
L 92.402 113.36713 
L 93.845091 114.315377 
L 95.288182 115.117857 
L 96.731273 115.789183 
L 98.174364 116.345388 
L 99.617455 116.802534 
L 101.060545 117.175795 
L 102.503636 117.478926 
L 103.946727 117.724029 
L 105.389818 117.921511 
L 106.832909 118.080172 
L 108.276 118.20735 
L 109.719091 118.309106 
L 111.162182 118.390402 
L 112.605273 118.455276 
L 114.048364 118.506995 
L 115.491455 118.548197 
L 116.934545 118.581001 
L 118.377636 118.607107 
L 119.820727 118.627873 
L 121.263818 118.644388 
L 122.706909 118.657518 
L 124.15 118.667955 
L 125.593091 118.676251 
L 127.036182 118.682843 
L 128.479273 118.688082 
L 129.922364 118.692244 
L 131.365455 118.695551 
L 132.808545 118.698178 
L 134.251636 118.700265 
L 135.694727 118.701924 
L 137.137818 118.703241 
L 138.580909 118.704287 
L 140.024 118.705118 
L 141.467091 118.705779 
L 142.910182 118.706303 
L 144.353273 118.70672 
L 145.796364 118.707051 
L 147.239455 118.707314 
L 148.682545 118.707523 
L 150.125636 118.707688 
L 151.568727 118.70782 
L 153.011818 118.707925 
L 154.454909 118.708008 
L 155.898 118.708074 
L 157.341091 118.708127 
L 158.784182 118.708168 
L 160.227273 118.708201 
L 161.670364 118.708228 
L 163.113455 118.708249 
L 164.556545 118.708265 
L 165.999636 118.708278 
L 167.442727 118.708289 
L 168.885818 118.708297 
L 170.328909 118.708304 
L 171.772 118.708309 
L 173.215091 118.708313 
L 174.658182 118.708316 
L 176.101273 118.708319 
L 177.544364 118.708321 
L 178.987455 118.708323 
L 180.430545 118.708324 
L 181.873636 118.708325 
L 183.316727 118.708326 
L 184.759818 118.708327 
L 186.202909 118.708327 
L 187.646 118.708328 
L 189.089091 118.708328 
L 190.532182 118.708328 
L 191.975273 118.708328 
L 193.418364 118.708329 
L 194.861455 118.708329 
L 196.304545 118.708329 
" style="fill:none;opacity:0.7;stroke:#000000;stroke-linecap:round;stroke-width:1.5;"/>
   </g>
   <g id="line2d_25">
    <path clip-path="url(#pd86bce82d4)" d="M 51.995455 65.918072 
L 53.438545 67.031477 
L 54.881636 68.305351 
L 56.324727 69.730287 
L 57.767818 71.286145 
L 59.210909 72.942138 
L 60.654 74.658653 
L 62.097091 76.390529 
L 63.540182 78.091373 
L 64.983273 79.718168 
L 66.426364 81.235374 
L 67.869455 82.617801 
L 69.312545 83.851548 
L 70.755636 84.932763 
L 72.198727 85.865493 
L 73.641818 86.660188 
L 75.084909 87.332054 
L 76.528 87.897991 
L 77.971091 88.373869 
L 79.414182 88.773796 
L 80.857273 89.110581 
L 82.300364 89.395917 
L 83.743455 89.639739 
L 85.186545 89.849351 
L 86.629636 90.029203 
L 88.072727 90.181632 
L 89.515818 90.308005 
L 90.958909 90.409633 
L 92.402 90.488719 
L 93.845091 90.549652 
L 95.288182 90.599792 
L 96.731273 90.648239 
L 98.174364 90.703185 
L 99.617455 90.770217 
L 101.060545 90.852225 
L 102.503636 90.949698 
L 103.946727 91.0608 
L 105.389818 91.181684 
L 106.832909 91.307483 
L 108.276 91.433516 
L 109.719091 91.556164 
L 111.162182 91.673313 
L 112.605273 91.784116 
L 114.048364 91.887861 
L 115.491455 91.982987 
L 116.934545 92.067271 
L 118.377636 92.138805 
L 119.820727 92.196478 
L 121.263818 92.239611 
L 122.706909 92.267521 
L 124.15 92.27962 
L 125.593091 92.276026 
L 127.036182 92.258053 
L 128.479273 92.227912 
L 129.922364 92.187864 
L 131.365455 92.139579 
L 132.808545 92.083881 
L 134.251636 92.020608 
L 135.694727 91.948648 
L 137.137818 91.866477 
L 138.580909 91.773149 
L 140.024 91.669142 
L 141.467091 91.556552 
L 142.910182 91.438789 
L 144.353273 91.320059 
L 145.796364 91.204647 
L 147.239455 91.09596 
L 148.682545 90.995762 
L 150.125636 90.904232 
L 151.568727 90.821095 
L 153.011818 90.74706 
L 154.454909 90.68437 
L 155.898 90.636176 
L 157.341091 90.605559 
L 158.784182 90.595004 
L 160.227273 90.60637 
L 161.670364 90.641123 
L 163.113455 90.700721 
L 164.556545 90.787035 
L 165.999636 90.902589 
L 167.442727 91.050534 
L 168.885818 91.234493 
L 170.328909 91.458432 
L 171.772 91.726673 
L 173.215091 92.044 
L 174.658182 92.415813 
L 176.101273 92.84831 
L 177.544364 93.34871 
L 178.987455 93.925474 
L 180.430545 94.588515 
L 181.873636 95.349362 
L 183.316727 96.221171 
L 184.759818 97.218497 
L 186.202909 98.35671 
L 187.646 99.650927 
L 189.089091 101.114371 
L 190.532182 102.756204 
L 191.975273 104.579026 
L 193.418364 106.57641 
L 194.861455 108.731025 
L 196.304545 111.013965 
" style="fill:none;opacity:0.45;stroke:#8c0800;stroke-dasharray:2.775,1.2;stroke-dashoffset:0;stroke-width:0.75;"/>
   </g>
   <g id="line2d_26">
    <path clip-path="url(#pd86bce82d4)" d="M 51.995455 119.683081 
L 53.438545 121.037886 
L 54.881636 122.555867 
L 56.324727 124.22635 
L 57.767818 126.027311 
L 59.210909 127.925305 
L 60.654 129.877212 
L 62.097091 131.833982 
L 63.540182 133.745723 
L 64.983273 135.566905 
L 66.426364 137.260481 
L 67.869455 138.800086 
L 69.312545 140.170539 
L 70.755636 141.367345 
L 72.198727 142.395004 
L 73.641818 143.263763 
L 75.084909 143.98661 
L 76.528 144.578378 
L 77.971091 145.055493 
L 79.414182 145.434674 
L 80.857273 145.731268 
L 82.300364 145.958492 
L 83.743455 146.127927 
L 85.186545 146.250513 
L 86.629636 146.337059 
L 88.072727 146.39785 
L 89.515818 146.441875 
L 90.958909 146.476251 
L 92.402 146.505614 
L 93.845091 146.531088 
L 95.288182 146.549751 
L 96.731273 146.556062 
L 98.174364 146.544681 
L 99.617455 146.512295 
L 101.060545 146.457836 
L 102.503636 146.382263 
L 103.946727 146.288569 
L 105.389818 146.181521 
L 106.832909 146.06672 
L 108.276 145.949426 
L 109.719091 145.833727 
L 111.162182 145.722101 
L 112.605273 145.615693 
L 114.048364 145.515445 
L 115.491455 145.423106 
L 116.934545 145.341047 
L 118.377636 145.271293 
L 119.820727 145.215052 
L 121.263818 145.173078 
L 122.706909 145.146115 
L 124.15 145.134801 
L 125.593091 145.139063 
L 127.036182 145.15762 
L 128.479273 145.188291 
L 129.922364 145.228846 
L 131.365455 145.27764 
L 132.808545 145.333877 
L 134.251636 145.397748 
L 135.694727 145.470397 
L 137.137818 145.553384 
L 138.580909 145.647697 
L 140.024 145.752914 
L 141.467091 145.867 
L 142.910182 145.986626 
L 144.353273 146.107685 
L 145.796364 146.226017 
L 147.239455 146.338368 
L 148.682545 146.443171 
L 150.125636 146.540491 
L 151.568727 146.63091 
L 153.011818 146.714107 
L 154.454909 146.788323 
L 155.898 146.85102 
L 157.341091 146.899883 
L 158.784182 146.933393 
L 160.227273 146.950901 
L 161.670364 146.95246 
L 163.113455 146.938517 
L 164.556545 146.909585 
L 165.999636 146.866125 
L 167.442727 146.808709 
L 168.885818 146.738356 
L 170.328909 146.656863 
L 171.772 146.567046 
L 173.215091 146.472923 
L 174.658182 146.37988 
L 176.101273 146.294851 
L 177.544364 146.226461 
L 178.987455 146.185148 
L 180.430545 146.183201 
L 181.873636 146.234692 
L 183.316727 146.355234 
L 184.759818 146.561521 
L 186.202909 146.870558 
L 187.646 147.298514 
L 189.089091 147.859173 
L 190.532182 148.561975 
L 191.975273 149.409779 
L 193.418364 150.396682 
L 194.861455 151.506377 
L 196.304545 152.711674 
" style="fill:none;opacity:0.45;stroke:#8c0800;stroke-dasharray:2.775,1.2;stroke-dashoffset:0;stroke-width:0.75;"/>
   </g>
   <g id="line2d_27">
    <path clip-path="url(#pd86bce82d4)" d="M 51.995455 87.485905 
L 53.438545 87.707927 
L 54.881636 87.982987 
L 56.324727 88.322403 
L 57.767818 88.739186 
L 59.210909 89.247903 
L 60.654 89.864296 
L 62.097091 90.604554 
L 63.540182 91.484148 
L 64.983273 92.51617 
L 66.426364 93.709219 
L 67.869455 95.065019 
L 69.312545 96.576128 
L 70.755636 98.224301 
L 72.198727 99.980102 
L 73.641818 101.804217 
L 75.084909 103.650575 
L 76.528 105.470822 
L 77.971091 107.219278 
L 79.414182 108.857336 
L 80.857273 110.356438 
L 82.300364 111.699246 
L 83.743455 112.879133 
L 85.186545 113.898466 
L 86.629636 114.766295 
L 88.072727 115.495978 
L 89.515818 116.103098 
L 90.958909 116.603848 
L 92.402 117.013897 
L 93.845091 117.347699 
L 95.288182 117.618133 
L 96.731273 117.836383 
L 98.174364 118.011976 
L 99.617455 118.152905 
L 101.060545 118.265801 
L 102.503636 118.356116 
L 103.946727 118.4283 
L 105.389818 118.485969 
L 106.832909 118.532049 
L 108.276 118.5689 
L 109.719091 118.598428 
L 111.162182 118.622166 
L 112.605273 118.641357 
L 114.048364 118.657006 
L 115.491455 118.669938 
L 116.934545 118.680836 
L 118.377636 118.690276 
L 119.820727 118.698758 
L 121.263818 118.706732 
L 122.706909 118.714621 
L 124.15 118.722844 
L 125.593091 118.731837 
L 127.036182 118.742077 
L 128.479273 118.754106 
L 129.922364 118.76856 
L 131.365455 118.7862 
L 132.808545 118.807954 
L 134.251636 118.83496 
L 135.694727 118.868625 
L 137.137818 118.910695 
L 138.580909 118.963332 
L 140.024 119.029218 
L 141.467091 119.111673 
L 142.910182 119.214788 
L 144.353273 119.343586 
L 145.796364 119.504198 
L 147.239455 119.70404 
L 148.682545 119.951996 
L 150.125636 120.258567 
L 151.568727 120.635945 
L 153.011818 121.097972 
L 154.454909 121.659886 
L 155.898 122.337776 
L 157.341091 123.147639 
L 158.784182 124.103966 
L 160.227273 125.217835 
L 161.670364 126.494624 
L 163.113455 127.931617 
L 164.556545 129.515977 
L 165.999636 131.22367 
L 167.442727 133.019916 
L 168.885818 134.861448 
L 170.328909 136.700408 
L 171.772 138.489207 
L 173.215091 140.185314 
L 174.658182 141.755011 
L 176.101273 143.17546 
L 177.544364 144.434966 
L 178.987455 145.531777 
L 180.430545 146.471988 
L 181.873636 147.267142 
L 183.316727 147.931969 
L 184.759818 148.482534 
L 186.202909 148.934872 
L 187.646 149.304091 
L 189.089091 149.603864 
L 190.532182 149.846201 
L 191.975273 150.041423 
L 193.418364 150.198248 
L 194.861455 150.323941 
L 196.304545 150.424502 
" style="fill:none;opacity:0.9;stroke:#591e71;stroke-linecap:round;stroke-width:1.5;"/>
   </g>
   <g id="line2d_28">
    <path clip-path="url(#pd86bce82d4)" d="M 51.995455 86.850776 
L 53.438545 86.915649 
L 54.881636 86.996945 
L 56.324727 87.098701 
L 57.767818 87.22588 
L 59.210909 87.384541 
L 60.654 87.582023 
L 62.097091 87.827125 
L 63.540182 88.130257 
L 64.983273 88.503517 
L 66.426364 88.960664 
L 67.869455 89.516869 
L 69.312545 90.188195 
L 70.755636 90.990675 
L 72.198727 91.938922 
L 73.641818 93.044248 
L 75.084909 94.312395 
L 76.528 95.74113 
L 77.971091 97.318188 
L 79.414182 99.020134 
L 80.857273 100.812715 
L 82.300364 102.653026 
L 83.743455 104.493337 
L 85.186545 106.285918 
L 86.629636 107.987864 
L 88.072727 109.564922 
L 89.515818 110.993657 
L 90.958909 112.261804 
L 92.402 113.36713 
L 93.845091 114.315377 
L 95.288182 115.117857 
L 96.731273 115.789183 
L 98.174364 116.345388 
L 99.617455 116.802534 
L 101.060545 117.175795 
L 102.503636 117.478926 
L 103.946727 117.724029 
L 105.389818 117.921511 
L 106.832909 118.080172 
L 108.276 118.20735 
L 109.719091 118.309106 
L 111.162182 118.390402 
L 112.605273 118.455276 
L 114.048364 118.506995 
L 115.491455 118.548197 
L 116.934545 118.581001 
L 118.377636 118.607107 
L 119.820727 118.627873 
L 121.263818 118.644388 
L 122.706909 118.657518 
L 124.15 118.667955 
L 125.593091 118.676251 
L 127.036182 118.682843 
L 128.479273 118.688082 
L 129.922364 118.692244 
L 131.365455 118.695551 
L 132.808545 118.698178 
L 134.251636 118.700265 
L 135.694727 118.701924 
L 137.137818 118.703241 
L 138.580909 118.704287 
L 140.024 118.705118 
L 141.467091 118.705779 
L 142.910182 118.706303 
L 144.353273 118.70672 
L 145.796364 118.707051 
L 147.239455 118.707314 
L 148.682545 118.707523 
L 150.125636 118.707688 
L 151.568727 118.70782 
L 153.011818 118.707925 
L 154.454909 118.708008 
L 155.898 118.708074 
L 157.341091 118.708127 
L 158.784182 118.708168 
L 160.227273 118.708201 
L 161.670364 118.708228 
L 163.113455 118.708249 
L 164.556545 118.708265 
L 165.999636 118.708278 
L 167.442727 118.708289 
L 168.885818 118.708297 
L 170.328909 118.708304 
L 171.772 118.708309 
L 173.215091 118.708313 
L 174.658182 118.708316 
L 176.101273 118.708319 
L 177.544364 118.708321 
L 178.987455 118.708323 
L 180.430545 118.708324 
L 181.873636 118.708325 
L 183.316727 118.708326 
L 184.759818 118.708327 
L 186.202909 118.708327 
L 187.646 118.708328 
L 189.089091 118.708328 
L 190.532182 118.708328 
L 191.975273 118.708328 
L 193.418364 118.708329 
L 194.861455 118.708329 
L 196.304545 118.708329 
" style="fill:none;opacity:0.7;stroke:#000000;stroke-linecap:round;stroke-width:1.5;"/>
   </g>
   <g id="line2d_29">
    <path clip-path="url(#pd86bce82d4)" d="M 51.995455 68.727723 
L 53.438545 68.304807 
L 54.881636 67.947583 
L 56.324727 67.672388 
L 57.767818 67.497246 
L 59.210909 67.441666 
L 60.654 67.526201 
L 62.097091 67.771675 
L 63.540182 68.198002 
L 64.983273 68.822519 
L 66.426364 69.657872 
L 67.869455 70.709621 
L 69.312545 71.973921 
L 70.755636 73.435814 
L 72.198727 75.068745 
L 73.641818 76.835755 
L 75.084909 78.692481 
L 76.528 80.591533 
L 77.971091 82.487403 
L 79.414182 84.340847 
L 80.857273 86.121907 
L 82.300364 87.811142 
L 83.743455 89.399202 
L 85.186545 90.885192 
L 86.629636 92.274433 
L 88.072727 93.576141 
L 89.515818 94.801387 
L 90.958909 95.961512 
L 92.402 97.067037 
L 93.845091 98.127042 
L 95.288182 99.148902 
L 96.731273 100.13832 
L 98.174364 101.099524 
L 99.617455 102.035571 
L 101.060545 102.948679 
L 102.503636 103.840548 
L 103.946727 104.712628 
L 105.389818 105.566296 
L 106.832909 106.402895 
L 108.276 107.223608 
L 109.719091 108.029136 
L 111.162182 108.819177 
L 112.605273 109.591709 
L 114.048364 110.342067 
L 115.491455 111.061795 
L 116.934545 111.737287 
L 118.377636 112.348352 
L 119.820727 112.867281 
L 121.263818 113.25981 
L 122.706909 113.49023 
L 124.15 113.531594 
L 125.593091 113.376726 
L 127.036182 113.041455 
L 128.479273 112.557203 
L 129.922364 111.959732 
L 131.365455 111.281371 
L 132.808545 110.548135 
L 134.251636 109.779812 
L 135.694727 108.991162 
L 137.137818 108.193325 
L 138.580909 107.39511 
L 140.024 106.604085 
L 141.467091 105.827474 
L 142.910182 105.072859 
L 144.353273 104.348745 
L 145.796364 103.665 
L 147.239455 103.033186 
L 148.682545 102.4668 
L 150.125636 101.981393 
L 151.568727 101.594565 
L 153.011818 101.325782 
L 154.454909 101.19596 
L 155.898 101.226748 
L 157.341091 101.43942 
L 158.784182 101.853319 
L 160.227273 102.483843 
L 161.670364 103.340103 
L 163.113455 104.422503 
L 164.556545 105.72074 
L 165.999636 107.212766 
L 167.442727 108.865276 
L 168.885818 110.635976 
L 170.328909 112.477448 
L 171.772 114.341923 
L 173.215091 116.185981 
L 174.658182 117.974203 
L 176.101273 119.681185 
L 177.544364 121.291803 
L 178.987455 122.800092 
L 180.430545 124.207271 
L 181.873636 125.519497 
L 183.316727 126.745755 
L 184.759818 127.896122 
L 186.202909 128.980485 
L 187.646 130.007703 
L 189.089091 130.985135 
L 190.532182 131.918462 
L 191.975273 132.811709 
L 193.418364 133.667405 
L 194.861455 134.486799 
L 196.304545 135.270103 
" style="fill:none;opacity:0.45;stroke:#591e71;stroke-dasharray:2.775,1.2;stroke-dashoffset:0;stroke-width:0.75;"/>
   </g>
   <g id="line2d_30">
    <path clip-path="url(#pd86bce82d4)" d="M 51.995455 106.244087 
L 53.438545 107.111048 
L 54.881636 108.018392 
L 56.324727 108.972418 
L 57.767818 109.981125 
L 59.210909 111.054139 
L 60.654 112.20239 
L 62.097091 113.437433 
L 63.540182 114.770294 
L 64.983273 116.20982 
L 66.426364 117.760567 
L 67.869455 119.420418 
L 69.312545 121.178336 
L 70.755636 123.012789 
L 72.198727 124.891458 
L 73.641818 126.772678 
L 75.084909 128.608669 
L 76.528 130.35011 
L 77.971091 131.951153 
L 79.414182 133.373825 
L 80.857273 134.590969 
L 82.300364 135.58735 
L 83.743455 136.359064 
L 85.186545 136.91174 
L 86.629636 137.258157 
L 88.072727 137.415814 
L 89.515818 137.404809 
L 90.958909 137.246184 
L 92.402 136.960756 
L 93.845091 136.568356 
L 95.288182 136.087364 
L 96.731273 135.534446 
L 98.174364 134.924428 
L 99.617455 134.27024 
L 101.060545 133.582924 
L 102.503636 132.871684 
L 103.946727 132.143972 
L 105.389818 131.405642 
L 106.832909 130.661202 
L 108.276 129.914192 
L 109.719091 129.167719 
L 111.162182 128.425155 
L 112.605273 127.691004 
L 114.048364 126.971945 
L 115.491455 126.278081 
L 116.934545 125.624385 
L 118.377636 125.032199 
L 119.820727 124.530235 
L 121.263818 124.153653 
L 122.706909 123.939011 
L 124.15 123.914093 
L 125.593091 124.086948 
L 127.036182 124.442699 
L 128.479273 124.951009 
L 129.922364 125.577388 
L 131.365455 126.291029 
L 132.808545 127.067773 
L 134.251636 127.890108 
L 135.694727 128.746088 
L 137.137818 129.628064 
L 138.580909 130.531554 
L 140.024 131.454352 
L 141.467091 132.395872 
L 142.910182 133.356716 
L 144.353273 134.338427 
L 145.796364 135.343396 
L 147.239455 136.374893 
L 148.682545 137.437193 
L 150.125636 138.535741 
L 151.568727 139.677326 
L 153.011818 140.870163 
L 154.454909 142.123812 
L 155.898 143.448803 
L 157.341091 144.855857 
L 158.784182 146.354613 
L 160.227273 147.951826 
L 161.670364 149.649144 
L 163.113455 151.440731 
L 164.556545 153.311214 
L 165.999636 155.234575 
L 167.442727 157.174557 
L 168.885818 159.086919 
L 170.328909 160.923369 
L 171.772 162.636491 
L 173.215091 164.184647 
L 174.658182 165.535819 
L 176.101273 166.669735 
L 177.544364 167.578129 
L 178.987455 168.263462 
L 180.430545 168.736705 
L 181.873636 169.014786 
L 183.316727 169.118182 
L 184.759818 169.068946 
L 186.202909 168.889258 
L 187.646 168.600479 
L 189.089091 168.222593 
L 190.532182 167.773941 
L 191.975273 167.271137 
L 193.418364 166.72909 
L 194.861455 166.161084 
L 196.304545 165.578901 
" style="fill:none;opacity:0.45;stroke:#591e71;stroke-dasharray:2.775,1.2;stroke-dashoffset:0;stroke-width:0.75;"/>
   </g>
   <g id="patch_3">
    <path d="M 44.78 175.96 
L 44.78 25.44 
" style="fill:none;stroke:#262626;stroke-linecap:square;stroke-linejoin:miter;stroke-width:0.8;"/>
   </g>
   <g id="patch_4">
    <path d="M 44.78 175.96 
L 203.52 175.96 
" style="fill:none;stroke:#262626;stroke-linecap:square;stroke-linejoin:miter;stroke-width:0.8;"/>
   </g>
   <g id="text_13">
    <!-- SM21 -->
    <defs>
     <path d="M 4.5 23 
L 13.421875 23.78125 
Q 14.0625 18.40625 16.375 14.96875 
Q 18.703125 11.53125 23.578125 9.40625 
Q 28.46875 7.28125 34.578125 7.28125 
Q 39.984375 7.28125 44.140625 8.890625 
Q 48.296875 10.5 50.3125 13.296875 
Q 52.34375 16.109375 52.34375 19.4375 
Q 52.34375 22.796875 50.390625 25.3125 
Q 48.4375 27.828125 43.953125 29.546875 
Q 41.0625 30.671875 31.203125 33.03125 
Q 21.34375 35.40625 17.390625 37.5 
Q 12.25 40.1875 9.734375 44.15625 
Q 7.234375 48.140625 7.234375 53.078125 
Q 7.234375 58.5 10.296875 63.203125 
Q 13.375 67.921875 19.28125 70.359375 
Q 25.203125 72.796875 32.421875 72.796875 
Q 40.375 72.796875 46.453125 70.234375 
Q 52.546875 67.671875 55.8125 62.6875 
Q 59.078125 57.71875 59.328125 51.421875 
L 50.25 50.734375 
Q 49.515625 57.515625 45.28125 60.984375 
Q 41.0625 64.453125 32.8125 64.453125 
Q 24.21875 64.453125 20.28125 61.296875 
Q 16.359375 58.15625 16.359375 53.71875 
Q 16.359375 49.859375 19.140625 47.359375 
Q 21.875 44.875 33.421875 42.265625 
Q 44.96875 39.65625 49.265625 37.703125 
Q 55.515625 34.8125 58.484375 30.390625 
Q 61.46875 25.984375 61.46875 20.21875 
Q 61.46875 14.5 58.203125 9.4375 
Q 54.9375 4.390625 48.796875 1.578125 
Q 42.671875 -1.21875 35.015625 -1.21875 
Q 25.296875 -1.21875 18.71875 1.609375 
Q 12.15625 4.4375 8.421875 10.125 
Q 4.6875 15.828125 4.5 23 
z
" id="ArialMT-53"/>
     <path d="M 7.421875 0 
L 7.421875 71.578125 
L 21.6875 71.578125 
L 38.625 20.90625 
Q 40.96875 13.8125 42.046875 10.296875 
Q 43.265625 14.203125 45.84375 21.78125 
L 62.984375 71.578125 
L 75.734375 71.578125 
L 75.734375 0 
L 66.609375 0 
L 66.609375 59.90625 
L 45.796875 0 
L 37.25 0 
L 16.546875 60.9375 
L 16.546875 0 
z
" id="ArialMT-4d"/>
    </defs>
    <g style="fill:#262626;" transform="translate(108.476875 19.44)scale(0.12 -0.12)">
     <use xlink:href="#ArialMT-53"/>
     <use x="66.699219" xlink:href="#ArialMT-4d"/>
     <use x="150" xlink:href="#ArialMT-32"/>
     <use x="205.615234" xlink:href="#ArialMT-31"/>
    </g>
   </g>
  </g>
 </g>
 <defs>
  <clipPath id="pd86bce82d4">
   <rect height="150.52" width="158.74" x="44.78" y="25.44"/>
  </clipPath>
 </defs>
</svg>
