<?xml version="1.0" encoding="utf-8" standalone="no"?>
<!DOCTYPE svg PUBLIC "-//W3C//DTD SVG 1.1//EN"
  "http://www.w3.org/Graphics/SVG/1.1/DTD/svg11.dtd">
<!-- Created with matplotlib (http://matplotlib.org/) -->
<svg height="36pt" version="1.1" viewBox="0 0 576 36" width="576pt" xmlns="http://www.w3.org/2000/svg" xmlns:xlink="http://www.w3.org/1999/xlink">
 <defs>
  <style type="text/css">
*{stroke-linecap:butt;stroke-linejoin:round;}
  </style>
 </defs>
 <g id="figure_1">
  <g id="patch_1">
   <path d="M 0 36 
L 576 36 
L 576 0 
L 0 0 
z
" style="fill:#ffffff;"/>
  </g>
  <g id="axes_1">
   <g id="patch_2">
    <path d="M 72 31.5 
L 518.4 31.5 
L 518.4 4.32 
L 72 4.32 
z
" style="fill:#ffffff;"/>
   </g>
  </g>
  <g id="legend_1">
   <g id="patch_3">
    <path d="M 8.286328 27.429922 
L 567.713672 27.429922 
Q 569.913672 27.429922 569.913672 25.229922 
L 569.913672 10.770078 
Q 569.913672 8.570078 567.713672 8.570078 
L 8.286328 8.570078 
Q 6.086328 8.570078 6.086328 10.770078 
L 6.086328 25.229922 
Q 6.086328 27.429922 8.286328 27.429922 
z
" style="fill:#ffffff;opacity:0.8;stroke:#cccccc;stroke-linejoin:miter;"/>
   </g>
   <g id="line2d_1">
    <path d="M 10.486328 16.993672 
L 32.486328 16.993672 
" style="fill:none;stroke:#470911;stroke-linecap:round;stroke-width:1.5;"/>
   </g>
   <g id="line2d_2"/>
   <g id="text_1">
    <!-- -4 -->
    <defs>
     <path d="M 3.171875 21.484375 
L 3.171875 30.328125 
L 30.171875 30.328125 
L 30.171875 21.484375 
z
" id="ArialMT-2d"/>
     <path d="M 32.328125 0 
L 32.328125 17.140625 
L 1.265625 17.140625 
L 1.265625 25.203125 
L 33.9375 71.578125 
L 41.109375 71.578125 
L 41.109375 25.203125 
L 50.78125 25.203125 
L 50.78125 17.140625 
L 41.109375 17.140625 
L 41.109375 0 
z
M 32.328125 25.203125 
L 32.328125 57.46875 
L 9.90625 25.203125 
z
" id="ArialMT-34"/>
    </defs>
    <g style="fill:#262626;" transform="translate(41.286328 20.843672)scale(0.11 -0.11)">
     <use xlink:href="#ArialMT-2d"/>
     <use x="33.300781" xlink:href="#ArialMT-34"/>
    </g>
   </g>
   <g id="line2d_3">
    <path d="M 73.066016 16.993672 
L 95.066016 16.993672 
" style="fill:none;stroke:#b2182b;stroke-linecap:round;stroke-width:1.5;"/>
   </g>
   <g id="line2d_4"/>
   <g id="text_2">
    <!-- -3 -->
    <defs>
     <path d="M 4.203125 18.890625 
L 12.984375 20.0625 
Q 14.5 12.59375 18.140625 9.296875 
Q 21.78125 6 27 6 
Q 33.203125 6 37.46875 10.296875 
Q 41.75 14.59375 41.75 20.953125 
Q 41.75 27 37.796875 30.921875 
Q 33.84375 34.859375 27.734375 34.859375 
Q 25.25 34.859375 21.53125 33.890625 
L 22.515625 41.609375 
Q 23.390625 41.5 23.921875 41.5 
Q 29.546875 41.5 34.03125 44.421875 
Q 38.53125 47.359375 38.53125 53.46875 
Q 38.53125 58.296875 35.25 61.46875 
Q 31.984375 64.65625 26.8125 64.65625 
Q 21.6875 64.65625 18.265625 61.421875 
Q 14.84375 58.203125 13.875 51.765625 
L 5.078125 53.328125 
Q 6.6875 62.15625 12.390625 67.015625 
Q 18.109375 71.875 26.609375 71.875 
Q 32.46875 71.875 37.390625 69.359375 
Q 42.328125 66.84375 44.9375 62.5 
Q 47.5625 58.15625 47.5625 53.265625 
Q 47.5625 48.640625 45.0625 44.828125 
Q 42.578125 41.015625 37.703125 38.765625 
Q 44.046875 37.3125 47.5625 32.6875 
Q 51.078125 28.078125 51.078125 21.140625 
Q 51.078125 11.765625 44.234375 5.25 
Q 37.40625 -1.265625 26.953125 -1.265625 
Q 17.53125 -1.265625 11.296875 4.34375 
Q 5.078125 9.96875 4.203125 18.890625 
z
" id="ArialMT-33"/>
    </defs>
    <g style="fill:#262626;" transform="translate(103.866016 20.843672)scale(0.11 -0.11)">
     <use xlink:href="#ArialMT-2d"/>
     <use x="33.300781" xlink:href="#ArialMT-33"/>
    </g>
   </g>
   <g id="line2d_5">
    <path d="M 135.645703 16.993672 
L 157.645703 16.993672 
" style="fill:none;stroke:#d6604d;stroke-linecap:round;stroke-width:1.5;"/>
   </g>
   <g id="line2d_6"/>
   <g id="text_3">
    <!-- -2 -->
    <defs>
     <path d="M 50.34375 8.453125 
L 50.34375 0 
L 3.03125 0 
Q 2.9375 3.171875 4.046875 6.109375 
Q 5.859375 10.9375 9.828125 15.625 
Q 13.8125 20.3125 21.34375 26.46875 
Q 33.015625 36.03125 37.109375 41.625 
Q 41.21875 47.21875 41.21875 52.203125 
Q 41.21875 57.421875 37.46875 61 
Q 33.734375 64.59375 27.734375 64.59375 
Q 21.390625 64.59375 17.578125 60.78125 
Q 13.765625 56.984375 13.71875 50.25 
L 4.6875 51.171875 
Q 5.609375 61.28125 11.65625 66.578125 
Q 17.71875 71.875 27.9375 71.875 
Q 38.234375 71.875 44.234375 66.15625 
Q 50.25 60.453125 50.25 52 
Q 50.25 47.703125 48.484375 43.546875 
Q 46.734375 39.40625 42.65625 34.8125 
Q 38.578125 30.21875 29.109375 22.21875 
Q 21.1875 15.578125 18.9375 13.203125 
Q 16.703125 10.84375 15.234375 8.453125 
z
" id="ArialMT-32"/>
    </defs>
    <g style="fill:#262626;" transform="translate(166.445703 20.843672)scale(0.11 -0.11)">
     <use xlink:href="#ArialMT-2d"/>
     <use x="33.300781" xlink:href="#ArialMT-32"/>
    </g>
   </g>
   <g id="line2d_7">
    <path d="M 198.225391 16.993672 
L 220.225391 16.993672 
" style="fill:none;stroke:#f4a582;stroke-linecap:round;stroke-width:1.5;"/>
   </g>
   <g id="line2d_8"/>
   <g id="text_4">
    <!-- -1 -->
    <defs>
     <path d="M 37.25 0 
L 28.46875 0 
L 28.46875 56 
Q 25.296875 52.984375 20.140625 49.953125 
Q 14.984375 46.921875 10.890625 45.40625 
L 10.890625 53.90625 
Q 18.265625 57.375 23.78125 62.296875 
Q 29.296875 67.234375 31.59375 71.875 
L 37.25 71.875 
z
" id="ArialMT-31"/>
    </defs>
    <g style="fill:#262626;" transform="translate(229.025391 20.843672)scale(0.11 -0.11)">
     <use xlink:href="#ArialMT-2d"/>
     <use x="33.300781" xlink:href="#ArialMT-31"/>
    </g>
   </g>
   <g id="line2d_9">
    <path d="M 260.805078 16.993672 
L 282.805078 16.993672 
" style="fill:none;stroke:#333333;stroke-linecap:round;stroke-width:1.5;"/>
   </g>
   <g id="line2d_10"/>
   <g id="text_5">
    <!-- +0 -->
    <defs>
     <path d="M 25.046875 11.578125 
L 25.046875 31.203125 
L 5.5625 31.203125 
L 5.5625 39.40625 
L 25.046875 39.40625 
L 25.046875 58.890625 
L 33.34375 58.890625 
L 33.34375 39.40625 
L 52.828125 39.40625 
L 52.828125 31.203125 
L 33.34375 31.203125 
L 33.34375 11.578125 
z
" id="ArialMT-2b"/>
     <path d="M 4.15625 35.296875 
Q 4.15625 48 6.765625 55.734375 
Q 9.375 63.484375 14.515625 67.671875 
Q 19.671875 71.875 27.484375 71.875 
Q 33.25 71.875 37.59375 69.546875 
Q 41.9375 67.234375 44.765625 62.859375 
Q 47.609375 58.5 49.21875 52.21875 
Q 50.828125 45.953125 50.828125 35.296875 
Q 50.828125 22.703125 48.234375 14.96875 
Q 45.65625 7.234375 40.5 3 
Q 35.359375 -1.21875 27.484375 -1.21875 
Q 17.140625 -1.21875 11.234375 6.203125 
Q 4.15625 15.140625 4.15625 35.296875 
z
M 13.1875 35.296875 
Q 13.1875 17.671875 17.3125 11.828125 
Q 21.4375 6 27.484375 6 
Q 33.546875 6 37.671875 11.859375 
Q 41.796875 17.71875 41.796875 35.296875 
Q 41.796875 52.984375 37.671875 58.78125 
Q 33.546875 64.59375 27.390625 64.59375 
Q 21.34375 64.59375 17.71875 59.46875 
Q 13.1875 52.9375 13.1875 35.296875 
z
" id="ArialMT-30"/>
    </defs>
    <g style="fill:#262626;" transform="translate(291.605078 20.843672)scale(0.11 -0.11)">
     <use xlink:href="#ArialMT-2b"/>
     <use x="58.398438" xlink:href="#ArialMT-30"/>
    </g>
   </g>
   <g id="line2d_11">
    <path d="M 326.146797 16.993672 
L 348.146797 16.993672 
" style="fill:none;stroke:#92c5de;stroke-linecap:round;stroke-width:1.5;"/>
   </g>
   <g id="line2d_12"/>
   <g id="text_6">
    <!-- +1 -->
    <g style="fill:#262626;" transform="translate(356.946797 20.843672)scale(0.11 -0.11)">
     <use xlink:href="#ArialMT-2b"/>
     <use x="58.398438" xlink:href="#ArialMT-31"/>
    </g>
   </g>
   <g id="line2d_13">
    <path d="M 391.488516 16.993672 
L 413.488516 16.993672 
" style="fill:none;stroke:#4393c3;stroke-linecap:round;stroke-width:1.5;"/>
   </g>
   <g id="line2d_14"/>
   <g id="text_7">
    <!-- +2 -->
    <g style="fill:#262626;" transform="translate(422.288516 20.843672)scale(0.11 -0.11)">
     <use xlink:href="#ArialMT-2b"/>
     <use x="58.398438" xlink:href="#ArialMT-32"/>
    </g>
   </g>
   <g id="line2d_15">
    <path d="M 456.830234 16.993672 
L 478.830234 16.993672 
" style="fill:none;stroke:#2166ac;stroke-linecap:round;stroke-width:1.5;"/>
   </g>
   <g id="line2d_16"/>
   <g id="text_8">
    <!-- +3 -->
    <g style="fill:#262626;" transform="translate(487.630234 20.843672)scale(0.11 -0.11)">
     <use xlink:href="#ArialMT-2b"/>
     <use x="58.398438" xlink:href="#ArialMT-33"/>
    </g>
   </g>
   <g id="line2d_17">
    <path d="M 522.171953 16.993672 
L 544.171953 16.993672 
" style="fill:none;stroke:#0d2844;stroke-linecap:round;stroke-width:1.5;"/>
   </g>
   <g id="line2d_18"/>
   <g id="text_9">
    <!-- +4 -->
    <g style="fill:#262626;" transform="translate(552.971953 20.843672)scale(0.11 -0.11)">
     <use xlink:href="#ArialMT-2b"/>
     <use x="58.398438" xlink:href="#ArialMT-34"/>
    </g>
   </g>
  </g>
 </g>
</svg>
